<?xml version='1.0' encoding='utf-8'?>
<svg xmlns:ns0="http://www.w3.org/2000/svg" xmlns="http://www.w3.org/2000/svg" width="235" height="121" viewBox="0 0 235 121"><g transform="translate(0.06969626530502637,-99.25768645962549) scale(0.051068870680077885)"><ns0:metadata>
Created by potrace 1.16, written by Peter Selinger 2001-2019
</ns0:metadata>
<ns0:g transform="translate(0.000000,206.000000) scale(0.100000,-0.100000)" fill="#000000" stroke="none">
<ns0:path d="M1199 1320 c-33 -17 -38 -26 -53 -87 -9 -37 -20 -99 -26 -138 -13 -100 -45 -249 -69 -325 -12 -36 -21 -79 -21 -97 0 -18 -6 -52 -14 -75 -8 -24 -17 -61 -21 -83 -3 -22 -8 -50 -11 -62 -3 -17 2 -23 27 -28 57 -13 78 27 120 230 10 50 27 119 37 155 11 36 30 112 42 170 13 58 29 112 36 120 6 8 15 33 19 55 3 22 14 48 22 57 18 20 13 48 -17 96 -23 37 -23 37 -71 12z" />
</ns0:g>
</g><g transform="translate(-2.2728777080222926,51.23690269721874) scale(0.051068870680077885)"><ns0:metadata>
Created by potrace 1.16, written by Peter Selinger 2001-2019
</ns0:metadata>
<ns0:g transform="translate(0.000000,208.000000) scale(0.100000,-0.100000)" fill="#000000" stroke="none">
<ns0:path d="M912 1298 c-29 -8 -72 -53 -72 -77 0 -10 61 -61 74 -61 4 0 22 12 41 26 24 18 43 24 66 22 48 -5 55 -24 42 -112 -17 -121 -150 -366 -198 -366 -12 0 -24 -9 -102 -76 -48 -40 -56 -79 -25 -107 26 -24 59 -21 96 9 173 141 192 152 346 204 115 39 130 47 130 65 0 27 -86 22 -193 -12 -44 -13 -82 -22 -85 -18 -5 5 19 57 57 125 10 17 23 48 45 102 8 20 17 65 21 101 6 54 4 70 -14 106 -30 58 -72 82 -142 79 -30 -1 -69 -6 -87 -10z" />
</ns0:g>
</g><g transform="translate(-0.18580050646397694,191.86860344374577) scale(0.051068870680077885)"><ns0:metadata>
Created by potrace 1.16, written by Peter Selinger 2001-2019
</ns0:metadata>
<ns0:g transform="translate(0.000000,208.000000) scale(0.100000,-0.100000)" fill="#000000" stroke="none">
<ns0:path d="M1135 1490 c-11 -5 -37 -11 -58 -15 -50 -8 -72 -41 -64 -99 4 -24 2 -47 -4 -53 -5 -5 -12 -48 -14 -95 -2 -47 -12 -112 -23 -144 -40 -125 -54 -183 -48 -199 6 -18 69 -47 101 -48 11 0 64 6 119 12 54 7 101 10 104 7 9 -9 -30 -88 -65 -132 -18 -23 -33 -46 -33 -51 0 -6 -19 -26 -42 -46 -24 -19 -56 -47 -73 -63 -46 -42 -116 -84 -143 -84 -59 0 -83 -42 -34 -61 101 -39 305 81 413 242 52 77 70 122 81 201 11 69 10 71 -13 89 -33 26 -91 24 -248 -7 l-34 -7 5 40 c3 22 13 55 21 74 9 19 21 59 27 90 9 49 17 62 58 96 26 21 60 47 77 58 28 18 78 60 136 116 34 32 30 76 -8 85 -19 5 -32 -1 -56 -24 -18 -16 -52 -40 -76 -53 -24 -13 -55 -30 -68 -37 -32 -18 -40 -9 -19 22 16 25 23 97 9 95 -5 0 -17 -4 -28 -9z" />
</ns0:g>
</g><g transform="translate(1.0657613948296785,347.00849323404395) scale(0.051068870680077885)"><ns0:metadata>
Created by potrace 1.16, written by Peter Selinger 2001-2019
</ns0:metadata>
<ns0:g transform="translate(0.000000,219.000000) scale(0.100000,-0.100000)" fill="#000000" stroke="none">
<ns0:path d="M1059 1625 c-3 -2 -31 -7 -63 -10 -89 -8 -143 -59 -121 -112 23 -53 42 -239 34 -328 -19 -199 -51 -308 -127 -424 -23 -36 -42 -69 -42 -73 0 -15 39 -47 66 -54 14 -4 35 -2 47 4 19 9 82 19 246 38 24 3 55 10 68 15 13 5 35 9 47 9 27 0 112 -36 121 -50 8 -13 62 -13 71 1 3 6 17 8 31 5 23 -6 24 -6 7 19 -9 14 -21 25 -27 25 -5 0 -24 15 -42 33 -18 18 -50 38 -71 44 -44 13 -252 14 -260 1 -3 -4 -28 -8 -56 -8 l-51 0 7 43 c4 23 14 56 22 72 8 17 19 64 24 105 5 41 12 100 16 130 3 30 7 131 8 225 l1 170 69 22 c50 16 73 20 82 12 12 -10 45 -7 96 7 16 5 17 8 3 34 -8 15 -28 33 -46 39 -31 11 -151 16 -160 6z" />
<ns0:path d="M1370 1530 c0 -5 5 -10 10 -10 6 0 10 5 10 10 0 6 -4 10 -10 10 -5 0 -10 -4 -10 -10z" />
</ns0:g>
</g><g transform="translate(2.942524382247825,491.7330846190101) scale(0.051068870680077885)"><ns0:metadata>
Created by potrace 1.16, written by Peter Selinger 2001-2019
</ns0:metadata>
<ns0:g transform="translate(0.000000,207.000000) scale(0.100000,-0.100000)" fill="#000000" stroke="none">
<ns0:path d="M840 1478 c-39 -43 -12 -98 50 -98 40 0 51 -12 44 -49 -7 -32 -82 -116 -148 -166 -44 -33 -56 -46 -56 -59 0 -29 34 -41 129 -46 108 -6 110 -8 91 -79 -16 -59 -120 -179 -186 -215 -48 -26 -54 -32 -54 -61 0 -27 5 -34 25 -39 31 -8 90 16 104 42 6 12 21 24 33 28 41 13 96 65 139 131 36 57 43 75 47 135 6 93 -5 111 -79 135 -62 19 -74 37 -36 54 12 6 38 36 57 67 27 45 34 68 35 108 0 62 -20 89 -79 106 -23 6 -45 15 -50 20 -17 14 -45 9 -66 -14z" />
</ns0:g>
</g><g transform="translate(-0.5977604971664618,649.7249348956454) scale(0.051068870680077885)"><ns0:metadata>
Created by potrace 1.16, written by Peter Selinger 2001-2019
</ns0:metadata>
<ns0:g transform="translate(0.000000,210.000000) scale(0.100000,-0.100000)" fill="#000000" stroke="none">
<ns0:path d="M756 1009 c-35 -51 -5 -121 57 -133 20 -4 50 0 74 8 37 13 223 15 348 4 l30 -3 -2 63 c-1 35 -3 65 -5 67 -2 1 -112 6 -244 10 l-242 7 -16 -23z" />
</ns0:g>
</g><g transform="translate(0.2710293121899099,781.0500217315112) scale(0.051068870680077885)"><ns0:metadata>
Created by potrace 1.16, written by Peter Selinger 2001-2019
</ns0:metadata>
<ns0:g transform="translate(0.000000,208.000000) scale(0.100000,-0.100000)" fill="#000000" stroke="none">
<ns0:path d="M791 1371 c-12 -12 -21 -31 -21 -43 0 -13 -12 -50 -25 -83 -28 -68 -32 -88 -11 -59 26 35 29 5 7 -68 -23 -79 -27 -158 -11 -204 18 -51 72 -78 163 -83 l79 -3 -7 -52 c-4 -28 -16 -76 -26 -106 -23 -66 -24 -100 -4 -100 33 0 99 96 130 190 14 43 32 83 38 88 7 5 36 15 65 22 59 14 68 26 74 101 3 39 0 45 -26 58 -27 13 -31 12 -48 -9 -10 -12 -18 -28 -18 -36 0 -8 -4 -14 -10 -14 -13 0 -13 15 -1 38 5 9 15 39 22 66 7 27 26 64 42 83 33 37 30 58 -8 73 -93 35 -128 -9 -166 -210 -7 -36 -16 -67 -20 -70 -5 -3 -36 -5 -69 -4 -82 2 -104 21 -95 83 4 25 16 79 27 120 11 42 22 85 25 96 2 11 -2 47 -10 80 -13 56 -15 60 -45 63 -21 2 -37 -3 -51 -17z" />
</ns0:g>
</g><g transform="translate(-2.9810402000283034,919.0068509281568) scale(0.051068870680077885)"><ns0:metadata>
Created by potrace 1.16, written by Peter Selinger 2001-2019
</ns0:metadata>
<ns0:g transform="translate(0.000000,216.000000) scale(0.100000,-0.100000)" fill="#000000" stroke="none">
<ns0:path d="M1165 1640 c-21 -16 -42 -30 -46 -30 -5 0 -32 -11 -61 -24 -74 -35 -172 -66 -206 -66 -30 0 -62 -26 -62 -51 0 -8 23 -31 50 -51 l51 -38 10 24 c8 16 28 28 72 41 34 10 76 27 92 37 65 39 65 41 61 -194 -3 -198 -30 -622 -42 -659 -3 -11 -32 -24 -82 -37 -42 -11 -111 -30 -152 -41 -41 -11 -87 -23 -102 -26 -34 -7 -36 -23 -5 -34 29 -11 206 5 270 24 40 12 58 13 85 4 29 -10 38 -8 61 8 33 25 38 57 46 278 3 94 8 185 11 204 3 18 9 119 15 225 5 105 13 214 18 241 30 168 27 195 -18 195 -16 0 -44 -13 -66 -30z" />
</ns0:g>
</g></svg>