<?xml version='1.0' encoding='utf-8'?>
<svg xmlns:ns0="http://www.w3.org/2000/svg" xmlns="http://www.w3.org/2000/svg" width="221" height="122" viewBox="0 0 221 122"><g transform="translate(1.936749944492476,-113.27831962605214) scale(0.051490927462557866)"><ns0:metadata>
Created by potrace 1.16, written by Peter Selinger 2001-2019
</ns0:metadata>
<ns0:g transform="translate(0.000000,203.000000) scale(0.100000,-0.100000)" fill="#000000" stroke="none">
<ns0:path d="M1298 1952 c-30 -6 -76 -136 -93 -269 -7 -56 -22 -72 -140 -145 -27 -17 -67 -42 -87 -56 -26 -17 -45 -22 -62 -18 -13 3 -43 -1 -67 -9 -23 -8 -44 -14 -46 -11 -2 2 -6 37 -8 77 -4 69 -3 75 21 94 31 24 24 51 -14 59 -90 18 -97 18 -121 -5 -20 -19 -22 -28 -16 -63 15 -92 26 -164 32 -212 l5 -51 -61 -62 c-62 -63 -69 -79 -51 -126 12 -32 44 -44 89 -34 41 9 51 0 51 -48 0 -26 -7 -37 -37 -58 -21 -14 -45 -25 -55 -25 -9 0 -21 -6 -25 -12 -8 -14 -99 -78 -109 -78 -14 0 -152 -69 -158 -78 -11 -19 13 -62 41 -73 22 -8 38 -4 99 25 39 20 92 51 117 70 83 64 113 72 102 29 -3 -15 -6 -71 -6 -125 0 -80 -3 -98 -15 -98 -22 0 -55 18 -86 48 -28 26 -58 25 -58 -2 0 -31 161 -196 191 -196 41 0 63 83 80 293 6 78 15 149 19 157 4 8 11 34 15 57 5 33 14 47 38 62 18 11 44 32 59 46 l28 25 27 -41 c16 -23 32 -48 37 -55 11 -13 -83 -211 -141 -298 -41 -60 -42 -76 -4 -76 44 0 134 99 194 213 27 51 52 95 56 100 4 4 38 -4 75 -18 92 -35 177 -41 208 -15 30 24 16 51 -33 62 -19 5 -43 13 -54 18 -11 6 -40 17 -65 25 -24 9 -54 25 -66 36 -24 22 -22 46 10 129 21 55 43 138 61 230 22 117 66 199 105 200 12 0 15 -21 17 -123 3 -124 26 -359 43 -432 5 -22 10 -62 10 -90 0 -53 21 -167 42 -231 22 -66 83 -64 109 3 16 44 11 81 -15 98 -21 14 -25 26 -31 98 -3 45 -13 136 -21 202 -9 66 -18 138 -20 160 -3 22 -6 94 -6 160 l-1 120 41 88 c47 100 55 161 23 172 -25 8 -61 -8 -91 -40 -14 -15 -52 -45 -85 -67 -55 -36 -60 -37 -63 -19 -2 11 2 29 7 40 6 11 11 28 11 39 0 10 16 33 35 50 31 29 33 35 23 57 -10 21 -17 25 -52 22 -23 -1 -49 -3 -58 -5z m-134 -509 c-5 -39 -37 -146 -70 -242 -4 -11 -8 -11 -22 3 -24 21 -45 20 -67 -4 -12 -13 -25 -18 -41 -14 -16 4 -36 -4 -70 -30 -26 -20 -51 -36 -55 -36 -9 0 -12 45 -9 130 2 70 6 78 43 76 18 -1 48 5 67 13 46 20 123 71 133 88 4 7 14 13 22 13 8 0 27 11 42 25 15 13 29 25 31 25 2 0 0 -21 -4 -47z" />
<ns0:path d="M1620 570 c-44 -47 -52 -134 -20 -215 11 -27 24 -68 30 -90 5 -23 23 -54 41 -70 30 -29 31 -29 45 -11 15 21 13 61 -7 156 -13 59 -15 145 -6 197 4 22 1 37 -9 48 -23 22 -43 18 -74 -15z" />
<ns0:path d="M1225 487 c-33 -18 -40 -28 -40 -52 0 -23 10 -37 50 -68 48 -36 53 -38 114 -35 48 3 67 9 77 23 12 16 12 21 -3 37 -9 10 -28 18 -43 18 -38 0 -58 20 -62 60 -2 29 -7 35 -28 37 -14 1 -43 -8 -65 -20z" />
<ns0:path d="M675 456 c-11 -7 -45 -19 -76 -25 -45 -9 -59 -17 -68 -38 -10 -22 -7 -34 20 -92 18 -36 39 -74 47 -83 22 -26 77 -33 107 -14 31 21 32 39 1 59 -13 9 -30 33 -36 53 -11 33 -11 39 6 50 39 27 55 49 52 74 -4 29 -25 36 -53 16z" />
<ns0:path d="M1025 417 c-13 -20 -13 -29 -2 -62 18 -52 77 -100 111 -91 31 8 31 11 6 96 -16 53 -25 69 -43 74 -39 10 -56 6 -72 -17z" />
</ns0:g>
</g><g transform="translate(-1.3281627433036647,22.53160960015194) scale(0.051490927462557866)"><ns0:metadata>
Created by potrace 1.16, written by Peter Selinger 2001-2019
</ns0:metadata>
<ns0:g transform="translate(0.000000,203.000000) scale(0.100000,-0.100000)" fill="#000000" stroke="none">
<ns0:path d="M1241 1682 c-22 -17 -23 -22 -14 -63 6 -24 11 -78 12 -119 1 -41 4 -87 7 -102 10 -52 -5 -87 -47 -109 -22 -11 -44 -17 -49 -14 -6 4 -13 -1 -16 -9 -3 -9 -11 -16 -18 -16 -6 0 -23 -6 -38 -14 -14 -8 -43 -19 -65 -26 -21 -7 -60 -23 -88 -35 -27 -13 -72 -32 -98 -42 -85 -32 -132 -108 -89 -145 41 -37 120 -23 165 28 12 14 41 37 65 51 23 14 42 28 42 32 0 4 19 13 41 20 23 7 68 26 101 43 33 16 62 27 65 24 11 -10 -26 -378 -57 -576 -6 -36 -14 -98 -19 -138 -5 -40 -11 -76 -14 -79 -10 -10 -94 48 -138 95 -24 26 -63 64 -87 85 -23 21 -42 43 -42 50 0 7 24 23 53 35 110 48 197 109 197 140 0 28 -21 37 -50 22 -47 -25 -247 -88 -283 -89 -47 -1 -97 -34 -97 -65 0 -23 47 -76 68 -76 14 0 189 -163 258 -241 25 -28 16 -39 -33 -39 -69 -1 -189 -24 -253 -49 -49 -20 -123 -38 -173 -44 -14 -2 -23 12 -39 58 -26 77 -21 139 15 187 15 19 27 39 27 44 0 5 12 27 28 49 27 40 27 41 26 200 -1 106 -5 170 -14 190 -7 17 -14 56 -15 87 -4 80 -10 93 -54 113 -31 14 -43 15 -61 5 -29 -16 -24 -49 33 -215 41 -120 61 -225 58 -300 -1 -22 -15 -43 -54 -80 -125 -118 -138 -171 -81 -319 4 -10 -14 -35 -50 -70 -60 -58 -67 -80 -36 -114 27 -28 34 -28 111 7 35 15 105 40 154 55 50 15 110 34 135 42 93 31 128 36 256 37 88 1 136 -2 145 -10 8 -6 36 -11 63 -10 33 1 51 -3 59 -14 7 -8 19 -18 27 -22 31 -14 111 -77 136 -106 23 -28 31 -31 85 -31 33 0 59 4 59 10 0 6 -18 27 -41 48 -23 20 -53 50 -68 65 -26 27 -57 50 -178 133 -42 29 -52 41 -47 58 2 11 9 64 14 116 5 52 25 214 44 360 20 146 36 282 36 302 0 20 6 43 13 50 7 7 22 44 32 81 15 55 23 71 43 78 13 5 36 18 51 30 14 11 50 37 79 58 61 44 103 108 77 117 -9 4 -42 -11 -78 -34 -69 -45 -175 -98 -181 -91 -7 7 -7 170 0 212 4 21 13 41 20 44 19 7 17 30 -3 42 -10 5 -38 12 -63 16 -37 5 -50 3 -69 -13z" />
</ns0:g>
</g><g transform="translate(-2.042584810077983,176.8295311262396) scale(0.051490927462557866)"><ns0:metadata>
Created by potrace 1.16, written by Peter Selinger 2001-2019
</ns0:metadata>
<ns0:g transform="translate(0.000000,207.000000) scale(0.100000,-0.100000)" fill="#000000" stroke="none">
<ns0:path d="M769 1933 c-9 -2 -21 -14 -27 -27 -8 -18 -1 -49 34 -155 24 -73 44 -145 44 -159 0 -28 -17 -46 -173 -194 -84 -78 -105 -93 -93 -62 5 11 12 53 18 94 17 135 18 141 38 148 10 4 37 24 59 45 45 42 57 87 22 87 -11 0 -23 -4 -26 -10 -12 -20 -32 -10 -28 14 4 21 1 24 -31 28 -20 2 -52 2 -71 0 -46 -5 -69 -46 -62 -108 4 -41 2 -45 -32 -71 -37 -28 -130 -89 -166 -109 -36 -19 -47 -57 -30 -98 14 -32 19 -36 52 -36 29 0 42 7 67 37 46 54 96 103 107 103 16 0 15 -90 -2 -187 -10 -58 -16 -68 -68 -118 -31 -30 -64 -60 -73 -67 -29 -23 -88 -120 -88 -144 0 -31 51 -59 79 -45 10 6 44 43 74 83 68 89 122 148 136 148 16 0 13 -38 -5 -66 -15 -21 -15 -30 -4 -63 14 -43 9 -121 -11 -168 -12 -30 -11 -34 11 -58 13 -14 32 -25 42 -25 11 0 46 28 78 63 41 43 60 58 63 47 3 -8 10 -64 17 -125 6 -60 14 -133 17 -161 l6 -52 -36 -11 c-19 -7 -43 -21 -53 -33 -11 -11 -37 -32 -59 -45 -22 -14 -54 -40 -71 -57 -16 -18 -38 -37 -48 -43 -21 -11 -25 -55 -7 -77 6 -7 37 -21 69 -31 31 -10 79 -28 106 -41 27 -13 53 -21 58 -18 5 4 -15 28 -46 56 l-56 49 16 30 c8 17 23 33 32 36 9 4 31 22 50 40 41 42 60 42 67 1 3 -18 10 -55 16 -83 19 -92 17 -126 -8 -136 -32 -12 -29 -35 7 -48 43 -14 72 1 93 50 16 38 17 48 2 144 -24 161 -22 178 23 208 20 13 55 33 77 43 22 10 55 31 73 46 43 37 61 33 79 -17 75 -198 125 -303 149 -312 9 -3 20 -17 25 -30 11 -30 71 -56 110 -48 72 16 96 106 81 297 -6 73 -16 169 -21 213 -6 44 -13 130 -15 190 -6 150 -17 271 -26 285 -5 8 -19 8 -49 1 -50 -11 -42 -2 -76 -76 -22 -48 -29 -77 -32 -150 -2 -49 -5 -127 -7 -173 -4 -80 -3 -83 17 -80 44 6 91 116 88 206 -1 23 3 42 7 42 13 0 37 -314 35 -465 -1 -132 -9 -180 -29 -167 -24 16 -82 113 -103 173 -13 35 -34 90 -48 122 -18 43 -23 68 -19 92 5 27 3 36 -13 44 -13 8 -24 33 -36 88 -9 43 -30 125 -47 183 -17 58 -34 119 -38 136 -8 36 -37 119 -52 151 -10 20 -8 34 8 98 4 16 -2 24 -28 35 -24 11 -33 22 -34 40 0 14 -4 39 -8 56 -8 36 -4 42 113 150 83 76 82 76 96 -24 20 -149 103 -99 93 56 -3 40 0 85 8 112 8 25 14 55 14 68 0 56 -73 30 -140 -50 -23 -27 -53 -56 -66 -64 -22 -15 -28 -15 -66 1 -45 18 -112 67 -164 122 -30 31 -47 37 -85 26z m200 -189 c39 -8 39 -24 1 -53 -40 -29 -52 -24 -57 22 -4 40 0 42 56 31z m-359 -68 c0 -3 -4 -8 -10 -11 -5 -3 -10 -1 -10 4 0 6 5 11 10 11 6 0 10 -2 10 -4z m263 -251 c9 -20 17 -42 17 -49 0 -26 -216 -193 -238 -184 -19 7 11 69 60 126 29 33 68 79 86 101 18 23 39 41 46 41 7 0 20 -16 29 -35z m81 -238 c14 -37 26 -74 26 -82 0 -8 13 -55 29 -103 44 -130 75 -293 59 -305 -23 -16 -220 -108 -224 -105 -6 6 -27 192 -26 233 0 22 5 76 12 120 9 64 17 86 39 110 16 17 31 38 34 48 8 22 -18 34 -38 17 -16 -14 -18 -10 -9 14 3 9 14 16 23 16 23 1 51 24 51 43 0 9 -10 23 -22 31 -18 13 -19 18 -8 31 17 20 21 14 54 -68z m-234 -133 c0 -27 -8 -42 -32 -65 l-33 -30 -3 26 c-4 28 43 103 66 105 1 0 2 -16 2 -36z" />
</ns0:g>
</g><g transform="translate(1.3697535471515039,329.284678894394) scale(0.051490927462557866)"><ns0:metadata>
Created by potrace 1.16, written by Peter Selinger 2001-2019
</ns0:metadata>
<ns0:g transform="translate(0.000000,206.000000) scale(0.100000,-0.100000)" fill="#000000" stroke="none">
<ns0:path d="M1407 1911 c-22 -26 -24 -37 -21 -110 3 -88 4 -86 -70 -149 -36 -30 -33 -71 7 -90 15 -7 27 -19 27 -27 0 -12 -42 -70 -61 -85 -4 -3 -23 -26 -42 -52 -50 -66 -208 -219 -221 -215 -6 2 -14 35 -17 73 -4 38 -14 86 -23 108 -15 36 -18 38 -49 32 -38 -8 -60 -33 -52 -61 12 -37 24 -120 24 -176 1 -44 -3 -60 -19 -74 -24 -22 -25 -37 -4 -80 14 -30 13 -39 -10 -126 -28 -107 -82 -284 -96 -314 -12 -27 -30 -96 -30 -118 0 -33 54 -53 187 -68 180 -20 387 -18 442 5 24 9 45 15 48 13 2 -3 25 3 51 13 52 20 77 52 61 82 -10 18 -49 26 -49 10 0 -28 -269 -49 -384 -30 -28 4 -71 11 -96 13 -93 11 -122 17 -126 30 -3 7 6 48 20 91 55 171 95 311 101 351 4 23 12 46 18 52 16 13 170 91 180 91 5 0 22 9 39 21 16 12 32 19 35 16 3 -3 2 -36 -2 -74 -7 -66 -8 -69 -56 -107 -27 -21 -51 -47 -54 -57 -4 -11 -10 -19 -15 -19 -14 0 -180 -207 -180 -224 0 -11 9 -16 28 -16 21 0 40 12 68 43 22 23 54 54 72 70 18 15 32 31 32 36 0 5 16 19 35 32 19 13 36 31 39 39 2 8 2 -3 0 -25 -2 -22 -6 -80 -9 -130 -3 -49 -11 -114 -17 -143 -10 -44 -9 -55 3 -62 19 -12 56 24 64 64 4 17 13 40 20 51 7 11 20 65 30 120 21 118 34 151 35 84 0 -31 6 -51 18 -62 30 -27 94 -42 176 -41 87 1 106 13 106 65 0 41 -22 52 -100 50 -80 -2 -99 6 -157 66 l-42 43 13 88 c20 121 22 131 51 187 19 38 36 56 70 74 55 29 104 89 84 102 -20 12 -28 11 -78 -11 -24 -11 -45 -19 -47 -17 -11 10 33 237 46 237 10 0 50 81 50 102 0 9 -16 23 -36 33 l-35 17 2 80 c2 69 -1 83 -16 95 -27 19 -40 16 -68 -16z m-61 -533 c-3 -13 -6 -35 -6 -50 0 -27 -12 -37 -127 -111 -22 -14 -14 9 17 49 80 106 104 134 113 134 5 0 7 -10 3 -22z m-486 -772 c0 -8 -4 -18 -10 -21 -5 -3 -10 3 -10 14 0 12 5 21 10 21 6 0 10 -6 10 -14z" />
<ns0:path d="M830 1737 c-18 -9 -32 -32 -50 -82 -28 -77 -84 -190 -99 -199 -5 -3 -27 -39 -49 -79 -22 -39 -58 -97 -81 -127 -23 -30 -41 -63 -41 -73 0 -58 55 -80 116 -48 51 28 67 27 59 -1 -11 -34 -63 -137 -148 -293 -9 -16 -17 -35 -17 -41 0 -7 -15 -25 -33 -41 -19 -16 -41 -45 -51 -63 -16 -32 -15 -34 6 -57 25 -27 64 -24 110 8 14 11 30 19 35 19 4 1 26 9 48 20 83 40 85 19 11 -82 -84 -114 -167 -216 -219 -270 -57 -59 -61 -90 -17 -113 29 -15 34 -15 75 6 60 30 139 105 165 157 23 46 20 78 -5 68 -27 -10 -5 44 39 101 80 101 116 167 116 216 0 27 -6 49 -15 57 -15 12 -67 10 -114 -5 -22 -8 -23 -6 -17 21 4 16 16 38 26 49 10 11 28 40 39 65 12 25 25 52 30 60 27 45 43 104 43 162 0 115 3 108 -42 108 -22 0 -40 2 -40 3 0 10 32 67 41 72 15 10 88 121 116 178 15 28 34 57 42 64 23 17 20 106 -4 133 -21 23 -40 25 -75 7z" />
</ns0:g>
</g><g transform="translate(1.9110602604466749,463.03014811252024) scale(0.051490927462557866)"><ns0:metadata>
Created by potrace 1.16, written by Peter Selinger 2001-2019
</ns0:metadata>
<ns0:g transform="translate(0.000000,205.000000) scale(0.100000,-0.100000)" fill="#000000" stroke="none">
<ns0:path d="M833 1670 c-26 -11 -32 -60 -9 -79 7 -6 16 -32 19 -59 4 -26 9 -57 13 -68 5 -17 -6 -30 -58 -70 -35 -26 -93 -65 -130 -85 -66 -36 -70 -37 -143 -32 -65 5 -78 3 -96 -13 -18 -17 -20 -26 -14 -77 3 -32 15 -93 26 -135 15 -57 21 -120 24 -242 6 -226 13 -285 37 -307 19 -17 21 -17 39 6 10 13 20 37 20 55 1 17 3 112 5 211 7 355 7 350 26 347 25 -4 56 15 109 65 25 25 55 50 66 56 11 7 39 25 62 41 23 16 45 26 49 22 11 -11 19 -288 9 -309 -5 -10 -23 -25 -40 -32 -18 -7 -53 -33 -79 -58 -63 -59 -65 -93 -9 -134 l39 -28 -36 -50 c-20 -27 -49 -70 -66 -95 -56 -85 -180 -219 -201 -220 -6 0 -19 -14 -29 -30 -20 -36 -13 -50 34 -70 34 -14 42 -10 133 64 30 24 68 51 85 60 16 8 32 22 35 31 7 16 32 20 41 7 5 -8 2 -22 -29 -137 -7 -27 -12 -75 -10 -105 2 -30 4 -63 4 -73 1 -24 58 -56 161 -90 73 -24 101 -28 200 -29 131 0 247 23 330 67 14 7 50 20 80 28 30 7 81 31 114 53 32 21 68 44 79 51 12 7 25 20 28 30 11 27 -1 113 -22 155 -11 21 -19 46 -19 56 0 11 -11 40 -25 66 -14 26 -25 54 -25 62 0 21 -28 17 -40 -6 -17 -32 -15 -170 3 -214 25 -57 21 -70 -25 -100 -46 -30 -179 -86 -204 -86 -8 0 -28 -7 -44 -15 -19 -10 -83 -19 -180 -25 -146 -10 -151 -10 -205 13 -64 27 -109 63 -101 82 3 8 10 41 16 75 6 33 21 93 34 133 13 39 27 87 31 104 3 18 10 33 14 33 5 0 26 -14 47 -31 32 -26 44 -29 74 -24 41 8 64 26 79 63 23 58 61 366 61 498 0 73 6 178 12 235 15 124 13 306 -3 325 -6 8 -19 14 -29 14 -16 0 -137 -73 -150 -91 -10 -12 -72 -40 -78 -35 -3 4 -20 39 -37 79 -33 77 -51 88 -102 67z m295 -310 c-6 -63 -12 -189 -12 -280 -1 -91 -7 -196 -13 -235 -7 -38 -17 -106 -23 -150 -14 -93 -22 -106 -50 -80 -26 23 -25 29 5 59 45 45 23 80 -36 56 -16 -7 -32 -10 -35 -7 -3 3 2 36 11 74 14 54 18 120 20 328 2 143 6 268 10 277 9 22 117 90 126 80 4 -4 3 -59 -3 -122z m-298 -724 c0 -19 -37 -63 -45 -54 -4 3 3 20 16 37 26 35 29 37 29 17z" />
</ns0:g>
</g><g transform="translate(2.34860539059423,608.9356058259275) scale(0.051490927462557866)"><ns0:metadata>
Created by potrace 1.16, written by Peter Selinger 2001-2019
</ns0:metadata>
<ns0:g transform="translate(0.000000,205.000000) scale(0.100000,-0.100000)" fill="#000000" stroke="none">
<ns0:path d="M1227 1963 c-25 -13 -67 -81 -67 -110 0 -7 -7 -33 -15 -58 -31 -90 11 -77 59 19 39 78 98 88 131 24 18 -37 19 -49 3 -100 -8 -29 -18 -40 -37 -45 -41 -9 -61 -33 -61 -70 0 -27 -10 -43 -54 -86 -30 -28 -73 -65 -95 -80 -24 -17 -41 -36 -41 -48 0 -26 10 -24 56 11 21 16 44 30 49 30 6 1 32 18 60 39 l49 38 23 -34 c25 -37 30 -73 11 -73 -7 0 -23 -10 -37 -23 -15 -13 -55 -36 -91 -52 -36 -15 -97 -45 -136 -66 -39 -22 -74 -39 -77 -39 -17 0 -4 25 33 68 22 25 39 50 37 56 -6 18 -68 17 -121 -2 l-49 -17 -28 -99 c-20 -70 -35 -103 -51 -115 -30 -22 -137 -83 -230 -131 -42 -22 -79 -44 -83 -50 -4 -6 -37 -26 -73 -46 -105 -55 -140 -78 -183 -120 -48 -47 -53 -89 -13 -104 54 -21 68 -15 154 63 14 13 39 32 55 42 17 11 40 28 51 40 12 11 74 47 138 79 64 33 121 66 126 75 32 54 -32 -214 -73 -309 -9 -19 -22 -51 -30 -70 -27 -62 -31 -90 -13 -90 9 0 16 3 16 8 0 4 17 25 38 47 21 22 42 52 45 67 4 15 20 36 35 47 20 14 34 38 47 80 l18 60 146 -1 c150 -1 161 0 244 9 42 4 48 8 45 26 -4 30 -70 47 -193 51 -120 4 -181 14 -195 32 -8 9 -8 23 2 51 28 78 75 128 162 168 17 8 45 24 61 35 17 11 37 22 45 26 8 3 33 14 56 25 23 10 46 19 51 19 5 0 35 18 67 40 31 22 71 42 89 45 17 4 38 12 47 18 26 22 97 57 114 57 9 0 16 -8 16 -20 0 -14 -19 -32 -61 -57 -34 -21 -74 -48 -90 -61 -15 -12 -45 -28 -66 -36 -22 -7 -39 -21 -42 -31 -3 -15 2 -17 30 -11 63 12 151 61 216 119 24 20 47 37 53 37 22 0 50 41 50 73 0 65 -50 80 -168 51 -78 -20 -85 -15 -108 74 l-16 62 35 42 c29 36 36 54 42 111 9 86 -14 139 -77 179 -47 29 -87 32 -131 11z" />
<ns0:path d="M1000 1863 c-13 -16 -18 -33 -13 -42 12 -28 16 -320 4 -335 -6 -7 -9 -21 -5 -30 20 -52 94 41 105 134 11 84 10 245 -1 274 -13 36 -61 36 -90 -1z" />
<ns0:path d="M587 1809 c-27 -21 -69 -98 -82 -152 -10 -39 -24 -43 -36 -8 -19 54 -102 62 -129 11 -12 -22 -8 -33 21 -65 26 -30 52 -141 44 -192 -7 -46 7 -83 30 -83 8 0 15 1 15 3 0 1 16 47 36 102 19 55 38 109 41 120 3 11 13 29 23 40 9 11 25 39 35 62 23 53 45 74 82 75 37 1 69 -16 89 -48 29 -44 14 -145 -36 -239 -51 -97 -95 -142 -183 -189 -63 -33 -70 -35 -91 -21 -26 17 -36 11 -36 -21 0 -23 33 -54 57 -54 24 0 121 41 143 60 13 11 26 20 31 20 12 0 89 53 89 61 0 4 16 26 36 50 68 82 87 133 92 244 3 97 3 101 -26 146 -34 53 -91 85 -167 94 -41 4 -55 2 -78 -16z" />
<ns0:path d="M1246 605 c-38 -13 -56 -29 -56 -51 0 -22 54 -64 103 -82 90 -31 95 -78 17 -161 -50 -53 -93 -71 -180 -74 -32 -2 -35 1 -52 48 -45 122 -78 185 -110 208 -24 18 -30 18 -58 7 -34 -14 -55 -44 -43 -63 4 -6 28 -39 53 -72 61 -78 103 -161 95 -186 -4 -10 -22 -31 -41 -45 -40 -31 -42 -42 -13 -78 27 -34 52 -33 99 4 21 17 44 30 52 30 8 0 18 4 23 8 6 5 35 19 66 31 31 12 67 33 80 47 12 13 28 24 34 24 12 0 73 55 110 98 11 14 22 46 26 80 9 82 -8 119 -76 162 -31 20 -56 44 -60 57 -6 26 -15 27 -69 8z" />
<ns0:path d="M528 459 c-31 -15 -38 -25 -38 -48 0 -22 7 -32 32 -44 18 -9 36 -13 41 -10 4 2 40 5 79 4 90 -1 108 -14 98 -71 -4 -22 -15 -50 -24 -62 -9 -13 -26 -37 -37 -54 -12 -19 -44 -43 -82 -62 -102 -50 -113 -53 -130 -34 -20 24 -30 59 -17 67 5 3 10 13 10 21 0 17 68 127 81 132 10 4 13 42 4 42 -4 0 -20 -7 -38 -16 -39 -20 -85 -68 -128 -135 -29 -45 -31 -55 -25 -104 10 -89 3 -85 136 -85 92 0 120 3 130 15 7 8 18 15 25 15 21 0 121 104 129 133 3 15 11 27 17 27 18 0 39 68 39 127 -1 92 -36 122 -171 147 -47 9 -87 16 -90 15 -2 -1 -21 -10 -41 -20z" />
</ns0:g>
</g></svg>