<?xml version='1.0' encoding='utf-8'?>
<svg xmlns:ns0="http://www.w3.org/2000/svg" xmlns="http://www.w3.org/2000/svg" width="235" height="109" viewBox="0 0 235 109"><g transform="translate(0.3667841157225098,-87.46433150588211) scale(0.0460041892903181)"><ns0:metadata>
Created by potrace 1.16, written by Peter Selinger 2001-2019
</ns0:metadata>
<ns0:g transform="translate(0.000000,213.000000) scale(0.100000,-0.100000)" fill="#000000" stroke="none">
<ns0:path d="M974 1438 c-42 -60 -75 -162 -85 -263 -12 -131 -45 -274 -105 -453 -35 -104 -32 -127 17 -173 70 -65 142 -57 276 33 122 81 117 142 -24 283 -29 29 -53 57 -53 63 0 5 -7 15 -16 23 -11 9 -14 22 -9 48 4 20 9 51 10 70 9 84 31 185 46 206 3 6 14 36 23 68 16 54 16 61 1 83 -17 26 -66 33 -81 12z m-12 -615 c10 -9 18 -22 18 -29 0 -7 6 -17 13 -21 8 -4 24 -22 37 -40 27 -38 23 -46 -49 -92 -53 -35 -88 -39 -98 -14 -6 14 30 183 44 206 6 11 15 9 35 -10z" />
</ns0:g>
</g><g transform="translate(0.1731106714948396,44.86859096645773) scale(0.0460041892903181)"><ns0:metadata>
Created by potrace 1.16, written by Peter Selinger 2001-2019
</ns0:metadata>
<ns0:g transform="translate(0.000000,217.000000) scale(0.100000,-0.100000)" fill="#000000" stroke="none">
<ns0:path d="M1450 1621 c-8 -5 -41 -12 -72 -16 -32 -3 -58 -10 -58 -14 0 -11 -69 -31 -85 -24 -18 6 -73 -27 -78 -46 -6 -29 5 -60 23 -66 18 -6 56 -107 47 -122 -3 -5 -1 -42 4 -83 6 -41 10 -79 11 -85 2 -17 -32 -297 -43 -355 -6 -30 -21 -76 -35 -101 -30 -59 -30 -66 2 -91 19 -15 43 -21 89 -23 49 -2 79 -10 129 -34 80 -40 136 -50 155 -27 12 14 8 21 -28 56 -24 21 -58 46 -76 55 -19 8 -37 20 -40 25 -3 4 -22 14 -43 21 -57 18 -60 22 -50 86 21 149 31 283 33 449 l1 181 34 41 c22 28 44 44 66 48 23 4 34 13 38 30 4 13 13 24 21 24 8 0 19 9 25 20 22 42 -25 76 -70 51z" />
</ns0:g>
</g><g transform="translate(2.8952437114269287,182.56839329360542) scale(0.0460041892903181)"><ns0:metadata>
Created by potrace 1.16, written by Peter Selinger 2001-2019
</ns0:metadata>
<ns0:g transform="translate(0.000000,206.000000) scale(0.100000,-0.100000)" fill="#000000" stroke="none">
<ns0:path d="M832 1494 c-13 -9 -22 -26 -22 -40 0 -26 -5 -26 -57 -7 -25 10 -43 -44 -53 -157 -5 -63 -17 -158 -26 -210 -37 -223 -43 -284 -33 -329 21 -93 91 -146 174 -130 49 9 156 79 198 129 52 61 65 320 25 491 -12 52 -21 118 -20 148 2 72 -9 88 -63 97 -25 3 -45 10 -45 15 0 15 -54 10 -78 -7z m63 -98 c10 4 15 0 15 -15 0 -12 12 -79 28 -149 30 -141 34 -248 13 -350 -12 -53 -20 -67 -52 -93 -48 -38 -101 -54 -129 -39 -17 9 -20 20 -19 73 0 61 3 81 32 247 8 47 20 137 27 200 14 145 13 142 45 130 13 -5 32 -7 40 -4z" />
</ns0:g>
</g><g transform="translate(-0.4617214309016049,324.140255717254) scale(0.0460041892903181)"><ns0:metadata>
Created by potrace 1.16, written by Peter Selinger 2001-2019
</ns0:metadata>
<ns0:g transform="translate(0.000000,210.000000) scale(0.100000,-0.100000)" fill="#000000" stroke="none">
<ns0:path d="M653 1020 c-13 -5 -23 -14 -23 -20 0 -20 28 -77 41 -86 33 -21 442 -56 487 -42 41 12 41 33 1 85 -28 36 -35 40 -59 33 -52 -15 -181 -3 -337 31 -51 11 -81 11 -110 -1z" />
</ns0:g>
</g><g transform="translate(0.16969910004291933,443.7930272021267) scale(0.0460041892903181)"><ns0:metadata>
Created by potrace 1.16, written by Peter Selinger 2001-2019
</ns0:metadata>
<ns0:g transform="translate(0.000000,206.000000) scale(0.100000,-0.100000)" fill="#000000" stroke="none">
<ns0:path d="M1261 1449 c-32 -26 -41 -81 -47 -284 -2 -88 -10 -214 -18 -280 -7 -66 -9 -130 -5 -141 4 -12 5 -31 3 -41 -3 -11 1 -25 10 -32 12 -10 20 -7 45 16 27 24 32 37 37 93 9 116 36 284 51 327 10 28 13 60 10 95 -4 29 -3 83 1 121 9 75 -3 118 -37 136 -25 14 -21 14 -50 -10z" />
</ns0:g>
</g><g transform="translate(1.9557038138936491,566.28663885274) scale(0.0460041892903181)"><ns0:metadata>
Created by potrace 1.16, written by Peter Selinger 2001-2019
</ns0:metadata>
<ns0:g transform="translate(0.000000,216.000000) scale(0.100000,-0.100000)" fill="#000000" stroke="none">
<ns0:path d="M1165 1640 c-21 -16 -42 -30 -46 -30 -5 0 -32 -11 -61 -24 -74 -35 -172 -66 -206 -66 -30 0 -62 -26 -62 -51 0 -8 23 -31 50 -51 l51 -38 10 24 c8 16 28 28 72 41 34 10 76 27 92 37 65 39 65 41 61 -194 -3 -198 -30 -622 -42 -659 -3 -11 -32 -24 -82 -37 -42 -11 -111 -30 -152 -41 -41 -11 -87 -23 -102 -26 -34 -7 -36 -23 -5 -34 29 -11 206 5 270 24 40 12 58 13 85 4 29 -10 38 -8 61 8 33 25 38 57 46 278 3 94 8 185 11 204 3 18 9 119 15 225 5 105 13 214 18 241 30 168 27 195 -18 195 -16 0 -44 -13 -66 -30z" />
</ns0:g>
</g></svg>