<?xml version='1.0' encoding='utf-8'?>
<svg xmlns:ns0="http://www.w3.org/2000/svg" xmlns="http://www.w3.org/2000/svg" width="235" height="121" viewBox="0 0 235 121"><g transform="translate(-0.09728899574702154,-119.07373440522265) scale(0.051068870680077885)"><ns0:metadata>
Created by potrace 1.16, written by Peter Selinger 2001-2019
</ns0:metadata>
<ns0:g transform="translate(0.000000,217.000000) scale(0.100000,-0.100000)" fill="#000000" stroke="none">
<ns0:path d="M1096 2029 c-22 -18 -106 -172 -106 -196 0 -18 -55 -119 -74 -134 -31 -27 -162 -89 -185 -89 -53 0 -109 -65 -94 -107 19 -55 59 -66 123 -33 22 11 40 17 40 12 0 -8 -140 -273 -160 -302 -5 -8 -15 -25 -20 -38 -12 -29 -35 -52 -50 -52 -21 0 -68 -29 -74 -47 -3 -10 -14 -31 -25 -48 -24 -37 -25 -45 -7 -45 7 0 16 9 19 20 3 11 10 20 16 20 15 0 14 -32 -3 -55 -7 -11 -23 -38 -35 -60 -12 -23 -37 -49 -58 -60 -45 -26 -50 -38 -20 -52 29 -14 47 -5 108 54 33 31 49 41 54 33 14 -23 23 -164 15 -235 -14 -125 -31 -209 -51 -258 -26 -62 -21 -82 16 -63 29 15 105 155 105 194 0 13 4 32 10 42 28 52 28 371 0 444 -12 32 1 63 36 89 22 17 27 17 42 4 33 -29 60 -30 74 -3 20 37 136 136 152 130 8 -3 42 21 83 58 60 57 121 103 124 96 1 -2 3 -118 4 -258 2 -140 7 -297 10 -349 6 -86 5 -93 -10 -81 -9 7 -23 29 -30 47 -8 19 -28 55 -45 79 -16 25 -30 48 -30 51 0 3 -11 21 -25 39 -34 45 -32 65 15 119 44 51 48 66 23 90 -13 14 -28 16 -68 11 -74 -8 -129 -30 -134 -51 -3 -20 -30 -51 -32 -38 -1 4 -1 16 0 26 3 20 -10 22 -27 5 -22 -22 -13 -46 28 -75 22 -15 40 -31 40 -35 0 -3 -24 -26 -52 -49 -29 -24 -56 -49 -61 -56 -4 -7 -14 -19 -23 -27 -20 -20 -10 -51 22 -72 19 -13 45 -15 121 -13 l98 4 -3 -24 c-2 -14 -24 -49 -48 -79 -24 -29 -44 -57 -44 -61 0 -13 -212 -219 -255 -247 -116 -77 -187 -106 -305 -123 -78 -12 -160 -61 -160 -98 0 -17 51 -63 71 -63 9 0 42 11 73 25 31 14 75 27 99 31 23 3 94 23 157 44 144 48 157 51 270 69 96 16 143 26 165 38 11 6 56 13 100 16 105 8 160 15 215 27 53 12 337 29 428 27 57 -2 66 -5 86 -30 22 -27 40 -32 70 -21 13 5 16 22 16 86 l0 80 -37 -6 c-21 -3 -148 -8 -283 -12 -135 -3 -254 -8 -265 -10 -11 -3 -87 -13 -168 -24 -81 -11 -173 -27 -203 -35 -62 -16 -214 -38 -220 -32 -4 4 52 66 159 177 35 36 77 85 92 110 47 73 87 92 101 48 3 -12 26 -49 49 -82 23 -34 45 -71 49 -84 9 -27 40 -45 66 -37 31 10 38 59 26 205 -5 74 -10 259 -10 410 1 275 1 275 34 419 31 137 32 145 15 157 -24 17 -62 -3 -90 -46 -49 -77 -410 -358 -432 -336 -7 7 27 77 69 143 128 200 180 266 300 387 92 92 128 135 128 152 0 32 -29 32 -67 0 -15 -12 -38 -28 -50 -35 -21 -11 -22 -10 -14 11 5 14 19 25 37 28 16 3 30 12 32 20 3 18 -75 110 -93 110 -7 0 -24 -10 -39 -21z m-154 -391 c-7 -7 -12 -8 -12 -2 0 14 12 26 19 19 2 -3 -1 -11 -7 -17z m12 -794 c9 -23 8 -24 -13 -24 -14 0 -18 5 -14 20 6 24 19 26 27 4z" />
</ns0:g>
</g><g transform="translate(2.4629231584539752,33.29651196588105) scale(0.051068870680077885)"><ns0:metadata>
Created by potrace 1.16, written by Peter Selinger 2001-2019
</ns0:metadata>
<ns0:g transform="translate(0.000000,210.000000) scale(0.100000,-0.100000)" fill="#000000" stroke="none">
<ns0:path d="M895 1924 c-7 -7 -15 -30 -19 -51 -3 -21 -15 -67 -26 -103 -10 -36 -27 -93 -36 -126 -12 -47 -23 -65 -41 -73 -29 -13 -39 -21 -114 -90 -84 -77 -89 -118 -16 -135 25 -6 35 0 86 54 32 33 63 60 69 60 11 0 -41 -156 -77 -235 -11 -22 -22 -51 -26 -65 -4 -14 -23 -56 -43 -93 -29 -56 -33 -72 -24 -91 11 -25 65 -42 96 -30 19 7 21 -12 6 -104 -13 -79 -32 -135 -80 -237 -20 -44 -43 -97 -49 -117 -7 -21 -17 -40 -22 -43 -5 -4 -9 -19 -9 -35 0 -30 30 -60 61 -60 22 0 63 54 79 105 11 35 24 62 71 157 5 10 9 25 9 35 0 9 6 24 14 32 8 9 30 48 50 87 19 39 46 84 59 100 13 16 33 50 45 75 20 40 82 103 82 81 0 -5 -11 -42 -26 -83 -14 -41 -34 -110 -45 -154 -11 -44 -24 -93 -28 -110 -20 -76 -106 -251 -136 -275 -22 -19 -19 -67 5 -75 20 -6 60 10 60 24 0 5 15 27 34 50 44 52 142 253 171 350 l22 75 7 -149 c9 -186 10 -198 25 -260 7 -27 14 -58 16 -68 6 -28 14 -36 63 -62 26 -14 59 -35 74 -46 20 -16 48 -24 115 -30 105 -10 290 6 314 27 8 8 18 14 22 14 4 0 31 12 61 26 77 36 91 75 91 254 0 137 -9 178 -58 279 -10 21 -64 47 -75 37 -6 -7 -3 -41 12 -136 21 -125 21 -271 1 -311 -11 -20 -35 -39 -73 -57 -51 -24 -69 -27 -177 -29 -110 -1 -124 1 -165 23 -81 45 -105 74 -120 145 -20 100 -24 643 -5 725 19 85 14 96 -43 92 -38 -3 -48 -8 -63 -33 -10 -16 -18 -44 -18 -62 -1 -20 -11 -43 -26 -60 -23 -26 -96 -115 -113 -138 -4 -6 -18 -30 -31 -55 -46 -84 -76 -92 -68 -17 16 132 80 240 234 394 128 128 263 242 263 221 0 -7 -13 -51 -30 -97 -16 -46 -27 -88 -24 -92 11 -19 32 -7 68 43 63 84 97 156 91 192 -4 25 -11 85 -14 129 -1 4 -16 7 -35 7 -26 0 -42 -10 -80 -47 -49 -50 -98 -95 -155 -141 -18 -15 -52 -45 -76 -67 -148 -139 -203 -185 -220 -185 -8 0 -24 -20 -36 -45 -38 -75 -56 -49 -20 29 11 23 26 68 35 101 34 127 60 197 77 206 10 5 21 18 24 29 3 11 13 20 22 20 14 0 59 43 166 159 31 35 36 45 27 61 -16 29 -26 25 -87 -30 -31 -28 -72 -59 -92 -70 -21 -10 -43 -26 -50 -34 -8 -9 -17 -16 -22 -16 -16 0 -10 31 17 84 25 50 42 144 27 148 -33 6 -67 3 -78 -8z" />
<ns0:path d="M148 1380 c-27 -31 -28 -70 -3 -70 8 0 16 -8 20 -18 3 -11 23 -42 44 -71 21 -28 44 -65 51 -81 15 -37 23 -37 45 -4 20 31 13 88 -20 154 -12 25 -26 56 -30 70 -17 56 -67 65 -107 20z" />
<ns0:path d="M525 918 c-69 -140 -95 -187 -135 -253 -14 -22 -32 -53 -40 -69 l-15 -29 -12 64 c-7 35 -15 124 -19 197 -4 73 -11 135 -16 138 -4 3 -22 -8 -39 -25 -17 -17 -35 -31 -39 -31 -5 0 -15 -18 -21 -40 -10 -33 -9 -50 4 -98 28 -103 39 -198 36 -336 -3 -120 -1 -137 16 -156 10 -11 30 -20 44 -20 23 0 29 8 49 58 12 32 22 62 22 67 0 6 16 44 36 85 71 149 93 196 119 260 14 36 30 73 36 82 5 10 9 23 9 29 0 6 6 25 14 42 16 37 36 117 36 146 0 44 -21 16 -85 -111z" />
</ns0:g>
</g><g transform="translate(-0.47854757977944473,174.76560639710192) scale(0.051068870680077885)"><ns0:metadata>
Created by potrace 1.16, written by Peter Selinger 2001-2019
</ns0:metadata>
<ns0:g transform="translate(0.000000,206.000000) scale(0.100000,-0.100000)" fill="#000000" stroke="none">
<ns0:path d="M1040 2003 c-29 -26 -34 -40 -65 -188 -18 -88 -36 -183 -40 -212 -5 -41 -15 -60 -48 -96 -85 -92 -97 -108 -97 -131 0 -24 38 -66 60 -66 9 0 8 -6 -5 -20 -10 -11 -23 -20 -29 -20 -20 0 -89 -78 -83 -93 3 -8 21 -20 40 -26 33 -11 38 -9 113 40 42 28 90 65 106 82 38 42 47 27 12 -20 -50 -68 -78 -94 -129 -119 -63 -31 -75 -48 -75 -99 0 -38 -6 -48 -84 -127 -70 -71 -84 -90 -79 -110 7 -29 30 -48 60 -48 13 0 26 -6 29 -14 7 -18 -36 -102 -75 -145 -44 -49 -49 -71 -20 -93 13 -10 33 -27 45 -38 11 -10 34 -22 50 -26 16 -4 57 -18 92 -31 69 -28 72 -35 42 -100 -20 -44 -36 -54 -46 -28 -10 25 -43 38 -60 24 -22 -18 -17 -44 21 -89 19 -23 35 -46 35 -51 0 -5 12 -14 26 -19 42 -16 75 9 108 82 16 34 32 71 37 80 5 10 9 24 9 32 0 18 67 11 90 -10 23 -19 149 -46 186 -40 42 8 72 41 58 64 -6 9 -24 19 -40 20 -16 2 -34 8 -39 12 -6 5 -31 16 -56 24 -25 9 -72 27 -103 41 l-57 25 26 47 c14 26 25 55 25 63 0 9 6 24 13 35 8 11 26 56 42 100 15 44 33 87 40 95 6 8 18 31 25 50 7 19 33 74 56 122 36 72 53 94 104 134 l60 47 0 54 c0 38 -4 55 -15 59 -16 6 -98 -29 -129 -55 -10 -9 -35 -25 -56 -36 -21 -11 -80 -49 -132 -84 -51 -35 -104 -68 -118 -73 l-25 -9 27 28 c15 15 34 46 43 68 10 22 35 57 56 78 21 21 47 50 56 65 20 31 44 60 90 109 62 66 94 146 70 175 -23 29 -42 26 -87 -13 -24 -22 -50 -39 -57 -39 -7 0 -27 -13 -45 -29 -18 -15 -60 -43 -93 -61 -33 -18 -68 -43 -77 -54 -17 -20 -18 -20 -18 -2 0 11 24 43 53 72 28 28 85 86 126 128 41 42 78 76 83 76 12 0 128 117 128 129 0 38 -92 8 -183 -61 -29 -21 -55 -38 -59 -38 -20 0 12 152 57 271 25 65 25 99 0 99 -7 0 -20 3 -28 6 -9 3 -29 -7 -47 -23z m24 -1164 c-25 -68 -54 -142 -64 -164 -45 -97 -70 -158 -70 -171 0 -22 -24 -17 -90 18 -62 32 -69 46 -47 85 6 12 39 75 71 138 l60 116 90 60 c50 33 92 56 94 51 1 -5 -18 -65 -44 -133z" />
<ns0:path d="M326 1661 c-15 -16 -16 -27 -7 -77 16 -85 29 -216 23 -236 -2 -9 -23 -28 -45 -43 -44 -27 -97 -92 -97 -118 0 -29 12 -48 41 -62 26 -14 31 -13 61 5 18 11 36 20 41 20 4 0 7 -20 7 -46 0 -42 -2 -46 -34 -59 -19 -8 -37 -19 -40 -23 -3 -5 -44 -28 -91 -51 -81 -41 -85 -44 -85 -75 0 -37 25 -66 57 -66 11 0 48 18 82 40 34 22 65 40 68 40 4 0 15 8 26 18 19 17 19 16 14 -78 -8 -149 -30 -350 -39 -350 -13 0 -28 37 -28 69 0 37 -16 81 -29 81 -18 0 -33 -83 -28 -147 4 -34 15 -80 27 -102 11 -22 20 -47 20 -55 0 -27 22 -64 46 -76 19 -11 27 -10 48 3 16 11 23 23 19 35 -2 11 3 41 12 68 9 27 21 107 26 179 5 72 14 142 21 158 6 15 10 71 10 125 0 68 4 104 14 119 8 12 14 33 14 47 0 23 9 34 102 123 41 39 64 92 43 99 -12 5 -28 -4 -125 -70 -24 -16 -37 -20 -42 -12 -13 20 -8 110 7 130 8 11 15 25 15 32 0 22 107 116 164 144 78 40 105 62 106 86 0 39 -43 37 -110 -5 -8 -5 -41 -21 -72 -35 -32 -14 -58 -30 -58 -34 0 -7 -14 -16 -62 -40 -5 -2 -8 33 -8 78 0 78 1 80 20 70 33 -18 36 14 4 55 -43 56 -105 72 -138 36z" />
</ns0:g>
</g><g transform="translate(2.0837193462518826,334.1180823395121) scale(0.051068870680077885)"><ns0:metadata>
Created by potrace 1.16, written by Peter Selinger 2001-2019
</ns0:metadata>
<ns0:g transform="translate(0.000000,210.000000) scale(0.100000,-0.100000)" fill="#000000" stroke="none">
<ns0:path d="M629 1923 c-19 -5 -39 -44 -39 -76 0 -40 -37 -201 -58 -253 -11 -28 -38 -84 -59 -125 -56 -106 -85 -183 -77 -202 7 -20 44 -31 73 -22 12 3 37 35 58 72 20 36 59 94 86 127 28 34 52 63 54 65 2 2 6 1 9 -2 10 -10 -14 -61 -57 -123 -22 -30 -39 -57 -39 -59 0 -3 -16 -29 -35 -59 -19 -30 -35 -58 -35 -62 0 -4 -17 -28 -38 -53 -41 -49 -95 -130 -132 -198 -13 -24 -27 -43 -31 -43 -4 0 -13 -16 -19 -35 -13 -40 -2 -65 30 -65 32 0 50 -12 66 -43 13 -25 15 -62 13 -215 -4 -167 -2 -186 14 -196 12 -8 22 -8 35 0 35 22 43 62 49 227 6 170 -1 227 -38 314 l-17 41 30 41 c34 46 43 50 58 21 6 -11 19 -20 29 -20 17 0 189 168 415 405 l67 70 -6 -70 c-4 -38 -8 -200 -9 -359 -1 -189 -5 -291 -12 -293 -6 -2 -32 24 -59 58 l-48 62 5 82 c7 106 -4 125 -59 104 -21 -8 -43 -26 -50 -39 -8 -17 -26 -28 -55 -36 -39 -10 -43 -14 -49 -47 -3 -20 -11 -42 -17 -50 -21 -25 -82 -151 -82 -168 0 -10 -4 -21 -10 -24 -19 -12 -11 -63 12 -79 12 -9 28 -16 34 -16 26 0 77 56 116 127 22 41 42 72 44 70 2 -2 6 -39 9 -83 10 -154 36 -212 81 -180 15 11 18 25 16 72 -3 67 6 134 17 134 14 0 86 -113 111 -172 17 -41 31 -60 51 -68 15 -7 32 -9 37 -6 5 3 23 1 40 -4 19 -5 34 -5 37 1 4 5 26 9 50 9 50 0 124 15 170 35 17 7 52 21 78 30 27 9 51 23 54 31 10 28 33 15 33 -18 1 -57 43 -170 68 -179 12 -5 23 -5 26 0 17 27 2 308 -21 391 -31 114 -69 152 -115 116 -22 -16 -22 -44 -3 -116 8 -30 15 -65 15 -77 0 -31 -79 -72 -170 -89 -109 -20 -128 -19 -132 8 -5 33 7 108 36 223 39 157 45 171 86 185 45 16 136 83 151 113 7 12 21 28 31 35 26 19 83 137 97 200 24 113 4 169 -68 191 -54 16 -88 8 -147 -34 -26 -19 -51 -32 -54 -30 -4 3 -10 31 -13 64 -7 80 -47 168 -83 181 -21 8 -32 7 -51 -5 -23 -15 -24 -20 -19 -88 3 -40 5 -80 5 -89 1 -29 21 -21 21 8 0 16 5 24 13 22 8 -3 13 -37 15 -114 2 -97 0 -113 -21 -149 -13 -23 -32 -41 -46 -45 -23 -5 -47 -52 -36 -70 2 -4 0 -24 -6 -45 -11 -40 -11 -40 31 -125 l22 -45 -21 -105 c-12 -58 -24 -114 -26 -125 -3 -11 -9 -38 -13 -60 l-8 -40 -7 35 c-4 19 -5 197 -3 395 2 283 6 372 18 415 20 70 21 122 4 145 -13 18 -15 17 -54 -11 -22 -16 -55 -47 -74 -69 -57 -66 -387 -389 -392 -384 -3 3 10 29 29 59 19 30 43 73 54 95 10 22 35 74 55 117 36 78 55 172 38 196 -8 12 -19 11 -68 -1 -33 -9 -67 -19 -77 -22 -13 -6 -16 -3 -11 9 3 9 10 16 15 16 5 0 9 15 9 33 0 17 7 41 15 51 18 24 20 104 3 143 -7 15 -12 29 -13 29 -1 5 -43 11 -56 7z m915 -449 c11 -4 16 -19 16 -50 0 -42 -7 -60 -68 -171 -8 -13 -20 -27 -28 -30 -8 -3 -14 -11 -14 -18 0 -8 -24 -34 -52 -59 -60 -53 -66 -48 -49 45 31 172 43 194 135 260 44 33 39 31 60 23z m-307 -346 c-3 -8 -6 -5 -6 6 -1 11 2 17 5 13 3 -3 4 -12 1 -19z" />
</ns0:g>
</g><g transform="translate(0.1705380856509464,463.53777621864526) scale(0.051068870680077885)"><ns0:metadata>
Created by potrace 1.16, written by Peter Selinger 2001-2019
</ns0:metadata>
<ns0:g transform="translate(0.000000,205.000000) scale(0.100000,-0.100000)" fill="#000000" stroke="none">
<ns0:path d="M1328 2017 c37 -63 45 -104 32 -155 -20 -83 -111 -201 -181 -237 -44 -24 -54 -9 -36 56 38 137 28 238 -26 274 -51 33 -115 -15 -90 -68 40 -83 41 -138 7 -297 -14 -65 -15 -82 -4 -95 14 -17 40 -20 40 -5 0 6 10 10 23 10 12 0 30 9 40 20 23 27 46 25 57 -4 5 -13 14 -27 20 -31 24 -15 52 -115 32 -115 -5 0 -44 -20 -88 -45 -83 -48 -104 -54 -104 -31 0 18 -27 29 -36 14 -4 -6 -44 -28 -90 -49 -80 -37 -83 -40 -86 -75 -3 -33 -8 -39 -57 -65 -30 -16 -60 -34 -67 -40 -20 -17 -126 -79 -134 -79 -3 0 -31 -17 -62 -37 -80 -56 -91 -62 -118 -75 -14 -6 -49 -34 -77 -62 -43 -40 -53 -57 -53 -83 0 -27 6 -35 34 -48 30 -14 40 -15 70 -4 20 7 36 16 36 20 0 11 149 159 161 159 6 0 42 20 80 45 132 85 166 96 139 45 -6 -11 -15 -43 -20 -72 -6 -29 -19 -83 -31 -120 -34 -111 -8 -115 64 -10 25 37 53 86 62 110 19 46 22 48 50 29 54 -36 198 -47 283 -22 41 13 53 21 58 41 9 37 -7 49 -47 35 -38 -13 -121 -15 -135 -2 -5 5 -18 11 -29 13 -13 2 -22 14 -25 33 -5 28 -8 30 -48 29 -48 -2 -54 11 -24 60 19 31 57 55 217 137 55 28 107 57 116 65 8 8 20 14 26 14 6 0 26 11 45 23 19 13 48 27 64 31 16 4 43 18 59 30 43 32 113 52 133 39 13 -7 26 -5 54 9 78 41 31 96 -72 86 -28 -3 -58 -13 -68 -22 -10 -9 -43 -23 -73 -31 -30 -9 -64 -21 -77 -27 -17 -9 -25 -9 -34 0 -13 13 -15 71 -3 115 7 25 5 28 -24 33 -37 8 -38 11 -8 46 68 81 82 102 113 168 9 19 22 42 30 51 16 18 13 115 -6 167 -12 31 -13 32 -72 32 l-60 0 20 -33z" />
<ns0:path d="M768 1943 c-18 -22 -13 -50 11 -58 31 -10 100 -93 107 -130 10 -55 -32 -132 -120 -220 -92 -92 -111 -96 -102 -25 4 28 11 61 16 73 15 33 27 192 17 215 -15 34 -53 45 -93 26 l-34 -16 0 -208 c0 -240 -1 -237 78 -216 38 10 66 27 114 71 35 32 66 66 70 76 4 10 16 22 27 28 29 16 101 165 101 210 0 63 -19 110 -63 151 -32 32 -49 40 -77 40 -23 0 -43 -7 -52 -17z" />
<ns0:path d="M1262 598 c-28 -30 -28 -39 1 -65 14 -13 43 -23 80 -28 68 -8 74 -17 57 -83 -10 -37 -28 -61 -79 -110 -36 -35 -73 -68 -83 -73 -16 -8 -18 -5 -20 23 -5 114 -25 239 -42 272 -18 34 -59 76 -74 76 -8 0 -27 -10 -44 -21 -34 -25 -33 -45 6 -107 31 -51 43 -86 56 -164 15 -94 6 -141 -31 -157 -32 -14 -39 -52 -15 -83 17 -23 79 -24 97 -1 8 9 33 28 56 42 82 51 200 179 233 253 6 13 17 34 25 48 8 14 15 40 15 59 0 43 -48 91 -117 115 -81 30 -96 30 -121 4z" />
<ns0:path d="M653 522 c-13 -4 -32 -15 -43 -24 -38 -33 -23 -58 65 -109 54 -32 60 -39 62 -70 1 -19 -5 -43 -15 -56 -19 -25 -170 -105 -183 -97 -11 6 -1 32 29 72 33 43 19 61 -28 37 -45 -23 -128 -110 -136 -141 -10 -41 24 -79 72 -80 21 -1 44 2 49 6 6 5 28 11 50 15 43 8 145 61 185 98 14 12 36 37 49 55 47 67 26 187 -40 226 -16 9 -34 29 -41 44 -14 28 -37 35 -75 24z" />
</ns0:g>
</g></svg>