<?xml version='1.0' encoding='utf-8'?>
<svg xmlns:ns0="http://www.w3.org/2000/svg" xmlns="http://www.w3.org/2000/svg" width="235" height="136" viewBox="0 0 235 136"><g transform="translate(-1.3856955983990247,-127.88241857850348) scale(0.05739972241727762)"><ns0:metadata>
Created by potrace 1.16, written by Peter Selinger 2001-2019
</ns0:metadata>
<ns0:g transform="translate(0.000000,204.000000) scale(0.100000,-0.100000)" fill="#000000" stroke="none">
<ns0:path d="M1120 1944 c-6 -14 -10 -35 -10 -47 0 -41 -26 -65 -77 -70 -53 -5 -105 -23 -146 -50 -14 -9 -33 -17 -41 -17 -9 0 -38 -20 -65 -44 -39 -35 -61 -46 -98 -52 -51 -7 -93 -36 -93 -65 0 -40 23 -69 59 -75 29 -6 48 -1 103 28 l66 34 10 -21 c16 -35 117 -48 146 -20 8 8 17 15 20 15 7 0 -9 -50 -33 -105 -24 -55 -26 -65 -8 -65 16 0 77 61 77 77 0 6 13 24 28 40 16 15 45 66 66 113 82 187 101 213 178 247 27 12 46 52 33 72 -8 14 -52 14 -60 1 -11 -17 -44 -11 -55 10 -8 15 -21 20 -51 20 -33 0 -41 -4 -49 -26z m-88 -271 c-6 -33 -21 -55 -32 -48 -5 3 -20 0 -35 -7 -40 -18 -52 8 -18 40 50 46 92 54 85 15z" />
<ns0:path d="M1775 1580 c-22 -4 -62 -11 -90 -15 -27 -4 -66 -16 -85 -26 -19 -10 -73 -28 -120 -39 -129 -32 -204 -53 -215 -60 -10 -7 -24 -10 -170 -45 -74 -18 -113 -31 -210 -75 -33 -15 -94 -39 -136 -54 -42 -14 -103 -41 -136 -59 -32 -18 -90 -41 -128 -51 -38 -10 -74 -21 -80 -25 -5 -5 -38 -18 -72 -29 -34 -12 -86 -34 -115 -50 -29 -16 -64 -33 -78 -37 -14 -4 -44 -21 -67 -38 -48 -34 -57 -72 -25 -99 37 -32 53 -30 127 16 61 39 167 92 280 141 17 7 68 25 115 40 47 15 105 38 130 50 101 50 364 151 438 169 32 8 77 21 102 31 25 9 68 23 95 32 28 9 59 19 70 24 11 4 45 13 75 19 66 14 135 37 172 56 37 20 99 19 92 -1 -9 -24 19 -18 91 18 59 29 65 35 65 64 0 50 -31 61 -125 43z m-1295 -464 c0 -3 -4 -8 -10 -11 -5 -3 -10 -1 -10 4 0 6 5 11 10 11 6 0 10 -2 10 -4z" />
<ns0:path d="M1260 1193 c-60 -30 -86 -37 -134 -38 -62 0 -70 -6 -80 -55 -5 -26 -53 -66 -145 -124 -25 -15 -48 -31 -51 -35 -3 -4 -24 -25 -48 -46 -33 -29 -52 -39 -85 -41 -31 -2 -48 -10 -66 -31 -23 -26 -24 -31 -17 -140 7 -124 51 -364 69 -375 22 -14 38 -8 48 20 14 34 15 57 3 162 -12 116 -10 246 6 265 7 8 23 15 37 15 15 0 51 23 95 60 77 64 88 70 88 43 0 -44 -12 -61 -46 -68 -50 -9 -61 -42 -34 -102 11 -25 20 -52 20 -59 0 -17 -57 -130 -83 -166 -19 -25 -19 -28 -3 -52 12 -20 25 -26 49 -25 55 2 76 13 111 56 l33 43 56 -58 c30 -31 65 -66 76 -76 24 -22 19 -36 -13 -36 -12 0 -31 -7 -42 -15 -10 -8 -29 -15 -41 -15 -14 0 -23 -6 -23 -15 0 -8 7 -15 15 -15 8 0 15 4 15 9 0 17 41 -2 57 -26 27 -42 69 -55 167 -56 l91 -1 1 35 c1 18 5 41 9 50 8 22 -8 31 -55 31 -48 -1 -55 14 -35 76 17 55 22 90 30 192 3 41 15 125 26 185 57 318 63 385 43 447 -9 29 -61 22 -144 -19z m57 -110 c-28 -142 -38 -195 -55 -308 -11 -71 -26 -175 -32 -230 -11 -93 -21 -125 -40 -125 -9 0 -90 107 -98 129 -3 9 -14 27 -24 40 -29 38 -24 68 53 363 13 51 43 83 114 123 77 42 89 43 82 8z" />
<ns0:path d="M711 219 c-34 -24 -42 -35 -39 -57 3 -24 7 -27 40 -26 23 1 54 12 78 28 40 26 53 56 25 56 -8 0 -15 7 -15 15 0 25 -44 17 -89 -16z" />
</ns0:g>
</g><g transform="translate(-1.1091118840851664,35.93900255587107) scale(0.05739972241727762)"><ns0:metadata>
Created by potrace 1.16, written by Peter Selinger 2001-2019
</ns0:metadata>
<ns0:g transform="translate(0.000000,210.000000) scale(0.100000,-0.100000)" fill="#000000" stroke="none">
<ns0:path d="M755 1907 c-37 -22 -43 -42 -50 -147 -11 -192 -6 -178 -92 -246 -87 -66 -229 -161 -255 -170 -41 -13 -34 -89 10 -105 49 -19 92 -2 152 59 82 83 141 134 147 128 3 -3 1 -63 -4 -134 l-9 -129 -49 -79 c-26 -43 -58 -90 -70 -104 -35 -40 -59 -89 -95 -190 -18 -52 -44 -119 -57 -149 -13 -30 -27 -68 -30 -85 -4 -17 -28 -68 -55 -114 -45 -76 -52 -102 -27 -102 15 0 89 81 109 120 10 19 32 47 47 61 16 15 41 59 57 100 16 41 39 95 52 120 13 26 24 54 24 62 0 9 12 29 26 44 l25 28 -5 -95 c-3 -52 -9 -162 -12 -245 -6 -141 -5 -152 14 -175 18 -23 22 -23 46 -11 22 12 32 34 27 64 -2 11 28 404 35 465 3 28 10 52 14 52 11 0 80 -37 108 -58 l23 -18 -31 -74 c-17 -41 -38 -93 -46 -115 -8 -21 -20 -46 -28 -55 -7 -8 -21 -35 -30 -59 -38 -97 30 -62 86 44 11 22 37 60 57 85 62 76 121 179 121 211 0 32 25 89 39 89 8 0 110 226 126 278 4 13 28 67 55 120 26 53 51 107 54 120 4 12 11 22 16 22 4 0 10 17 12 38 3 20 14 59 24 85 l19 49 -23 19 c-21 16 -27 17 -55 6 -29 -11 -35 -23 -62 -103 -16 -50 -35 -102 -42 -115 -24 -50 -92 -216 -107 -259 -27 -80 -126 -281 -141 -286 -18 -7 -55 16 -119 72 -55 49 -58 70 -12 89 34 15 46 31 46 67 0 15 -6 19 -27 16 l-28 -3 2 102 c1 84 5 107 21 130 23 33 30 54 49 143 22 102 21 105 -7 105 -23 0 -25 4 -24 44 1 36 7 49 38 78 45 42 45 72 1 86 -16 5 -37 16 -46 23 -18 16 -18 16 -44 1z" />
<ns0:path d="M1333 1528 c-35 -44 -17 -80 57 -119 25 -13 56 -32 69 -41 34 -26 48 -22 56 12 8 35 -16 76 -74 127 -38 34 -90 44 -108 21z" />
<ns0:path d="M1225 1106 c-11 -7 -37 -19 -58 -26 -24 -7 -42 -21 -47 -35 -5 -13 -12 -79 -15 -146 -4 -94 -12 -147 -35 -224 -40 -139 -137 -340 -188 -386 -76 -71 -90 -111 -50 -149 31 -29 54 -25 96 18 21 20 46 45 57 54 11 10 29 27 40 39 11 12 36 32 55 45 19 13 60 45 90 70 107 88 176 137 216 154 23 10 45 23 48 29 15 24 25 9 31 -46 11 -91 77 -319 99 -340 23 -24 27 103 9 302 -5 55 -7 134 -3 175 4 46 2 82 -4 92 -8 13 -7 21 2 30 22 22 13 46 -19 57 -46 16 -65 14 -94 -11 -24 -21 -25 -26 -14 -56 6 -18 8 -48 5 -67 -6 -31 -14 -37 -99 -78 -51 -24 -98 -51 -106 -60 -7 -9 -19 -17 -27 -17 -7 0 -24 -11 -37 -23 -30 -31 -76 -61 -83 -55 -3 3 4 25 14 49 52 117 95 288 108 423 3 35 16 83 31 113 34 68 23 101 -22 69z" />
</ns0:g>
</g><g transform="translate(-1.0944137389391244,191.79618739041769) scale(0.05739972241727762)"><ns0:metadata>
Created by potrace 1.16, written by Peter Selinger 2001-2019
</ns0:metadata>
<ns0:g transform="translate(0.000000,205.000000) scale(0.100000,-0.100000)" fill="#000000" stroke="none">
<ns0:path d="M680 2035 c0 -19 30 -49 70 -70 35 -18 62 -70 53 -103 -3 -14 -36 -38 -98 -72 -95 -51 -130 -83 -142 -128 -8 -34 26 -62 78 -62 27 0 39 -4 39 -14 0 -24 -78 -280 -108 -356 -5 -14 -15 -49 -22 -78 -6 -28 -20 -69 -30 -90 -9 -20 -25 -71 -34 -112 -18 -76 -71 -251 -87 -283 -5 -9 -20 -51 -33 -91 -29 -93 -54 -125 -116 -151 -27 -11 -85 -49 -130 -84 -66 -53 -80 -68 -80 -92 0 -30 23 -49 59 -49 12 0 41 16 67 35 54 41 78 46 69 13 -21 -74 -58 -137 -97 -164 -34 -24 -36 -28 -26 -55 9 -28 13 -29 68 -29 58 0 58 0 84 43 13 24 42 58 63 76 118 100 195 161 205 161 13 0 68 -59 68 -74 0 -6 19 -33 42 -59 41 -48 114 -91 177 -103 17 -4 38 -15 47 -25 9 -11 27 -19 39 -19 25 0 55 29 55 53 0 9 4 18 9 22 6 3 7 28 4 55 -6 55 9 194 38 350 19 99 28 120 57 120 6 0 12 4 12 8 0 8 143 83 183 96 10 3 17 0 17 -7 0 -17 -88 -186 -110 -212 -30 -36 -70 -113 -70 -136 0 -22 45 -79 62 -79 16 0 108 -44 108 -52 0 -11 95 -58 160 -79 30 -9 82 -27 115 -39 45 -17 84 -23 155 -24 83 -1 101 2 145 24 67 33 101 96 86 159 -12 54 -36 81 -74 81 -26 0 -29 -3 -23 -23 18 -63 18 -76 -3 -106 -17 -23 -32 -31 -67 -37 -44 -6 -159 10 -179 26 -5 4 -48 20 -94 35 -77 25 -115 45 -181 92 -13 10 -32 21 -42 25 -10 4 -18 14 -18 22 0 14 87 189 135 270 31 53 47 123 34 149 -9 15 -17 17 -52 12 -22 -4 -59 -15 -82 -25 -22 -9 -69 -27 -105 -40 -36 -12 -72 -29 -81 -36 -30 -27 -42 -17 -37 30 6 54 51 125 97 155 l33 23 27 -26 c19 -18 38 -26 63 -26 31 0 37 4 51 38 8 20 18 50 22 66 8 37 42 86 60 86 7 0 15 5 17 12 2 6 32 17 66 24 60 12 127 50 165 91 19 22 26 88 11 103 -14 14 -93 -17 -189 -73 -44 -26 -85 -47 -91 -47 -16 0 -8 235 12 376 8 56 14 119 14 140 0 22 9 72 20 112 11 39 20 88 20 107 0 33 -2 35 -35 35 -25 0 -44 -8 -61 -25 -14 -14 -27 -25 -30 -25 -2 0 -41 -24 -87 -53 -45 -30 -119 -76 -164 -103 -119 -72 -253 -207 -253 -256 0 -34 41 -49 100 -38 29 5 54 10 56 10 2 0 4 -27 4 -59 0 -53 -2 -60 -22 -66 -24 -6 -82 -29 -134 -51 -17 -7 -36 -26 -43 -41 -11 -25 -10 -29 9 -45 14 -12 39 -18 69 -18 33 0 57 -7 84 -26 l38 -25 -5 -107 c-2 -59 -5 -108 -5 -109 -1 -1 -36 -19 -79 -41 -42 -21 -99 -55 -125 -75 -27 -21 -70 -49 -95 -64 -26 -15 -52 -32 -59 -38 -19 -20 -123 -69 -129 -62 -4 4 7 44 24 89 16 46 40 124 52 173 12 50 28 104 35 120 8 17 27 75 43 130 17 55 44 139 61 187 17 48 44 139 60 202 36 142 74 223 114 245 17 9 44 28 61 42 17 14 38 29 46 32 8 4 55 32 103 62 48 30 91 55 95 55 19 1 53 42 55 67 3 38 -21 40 -89 8 -31 -15 -75 -35 -98 -46 -23 -10 -63 -32 -91 -48 -27 -17 -55 -30 -62 -31 -7 0 -15 21 -19 48 -3 26 -14 59 -22 75 -16 26 -19 27 -99 27 -67 0 -83 -3 -83 -15z m635 -292 c-2 -16 -7 -71 -10 -123 -3 -52 -8 -116 -12 -142 -5 -42 -8 -47 -27 -43 -11 3 -46 -4 -76 -16 -90 -34 -87 -34 -92 3 -3 18 -1 62 4 98 6 36 11 78 12 93 2 20 12 33 32 43 16 9 38 24 49 34 25 23 108 80 117 80 4 0 6 -12 3 -27z m-36 -460 c-1 -43 -4 -107 -8 -143 l-6 -64 -47 -17 -47 -17 -37 33 c-35 32 -36 35 -31 81 15 119 18 124 79 158 31 17 60 34 64 39 4 4 13 7 21 7 10 0 13 -19 12 -77z m-335 -575 c-4 -24 -10 -54 -14 -68 -8 -30 -85 -85 -210 -147 -19 -10 -53 -30 -74 -45 -30 -22 -51 -28 -90 -28 -60 0 -57 2 -129 -77 -59 -65 -72 -62 -36 9 24 48 111 138 133 138 8 0 19 6 23 14 4 7 27 23 51 35 23 12 42 25 42 30 0 5 15 14 33 20 17 6 57 29 87 51 122 88 149 105 183 109 4 1 4 -18 1 -41z m-44 -205 c0 -10 -9 -79 -20 -153 -11 -74 -20 -156 -20 -182 0 -53 -1 -53 -67 -37 -46 12 -123 78 -123 106 0 7 -4 13 -9 13 -13 0 -41 77 -35 95 4 9 36 36 73 61 36 24 88 60 116 79 55 39 85 45 85 18z" />
</ns0:g>
</g></svg>