<?xml version='1.0' encoding='utf-8'?>
<svg xmlns:ns0="http://www.w3.org/2000/svg" xmlns="http://www.w3.org/2000/svg" width="235" height="121" viewBox="0 0 235 121"><g transform="translate(2.34707583798928,-57.28014953558676) scale(0.02490501044236066)"><ns0:metadata>
Created by potrace 1.16, written by Peter Selinger 2001-2019
</ns0:metadata>
<ns0:g transform="translate(0.000000,212.000000) scale(0.100000,-0.100000)" fill="#000000" stroke="none">
<ns0:path d="M1043 1520 c-45 -23 -59 -53 -44 -93 14 -36 25 -39 55 -16 19 15 37 19 73 17 43 -3 47 -5 55 -35 16 -61 -60 -250 -166 -413 -52 -79 -122 -157 -132 -147 -4 3 -1 57 5 119 7 62 14 142 16 178 3 62 8 105 20 178 12 66 -78 109 -126 61 -19 -19 -20 -27 -12 -107 13 -143 7 -328 -16 -448 -11 -60 -20 -147 -20 -194 0 -47 -8 -123 -17 -170 -9 -47 -18 -136 -21 -198 -5 -102 -3 -115 13 -127 28 -21 59 -18 73 8 7 13 14 66 16 118 2 51 9 119 15 149 5 30 16 110 22 177 10 100 15 124 29 128 9 3 20 12 23 21 3 8 16 18 29 23 13 5 58 47 100 93 132 146 240 385 239 530 0 110 -36 153 -132 163 -44 5 -63 2 -97 -15z" />
</ns0:g>
</g><g transform="translate(-2.3328645209240335,26.013636757568094) scale(0.02490501044236066)"><ns0:metadata>
Created by potrace 1.16, written by Peter Selinger 2001-2019
</ns0:metadata>
<ns0:g transform="translate(0.000000,211.000000) scale(0.100000,-0.100000)" fill="#000000" stroke="none">
<ns0:path d="M1535 1475 c-22 -25 -68 -73 -103 -107 -35 -35 -68 -72 -75 -84 -7 -12 -58 -82 -114 -155 -232 -305 -276 -359 -291 -359 -10 0 -24 27 -42 80 -18 52 -43 103 -61 125 -10 11 -31 47 -49 80 -46 86 -111 185 -122 185 -5 0 -22 -7 -37 -15 -46 -23 -53 -64 -21 -117 11 -18 20 -38 20 -44 0 -13 78 -134 96 -149 7 -5 35 -55 64 -110 28 -55 55 -104 60 -110 4 -5 11 -24 14 -42 9 -38 48 -83 74 -83 21 0 42 18 42 36 0 11 49 80 225 323 11 15 36 52 56 82 21 30 44 61 53 68 9 7 16 17 16 22 0 9 107 177 140 220 69 89 110 158 110 184 0 25 -14 17 -55 -30z" />
</ns0:g>
</g><g transform="translate(-0.5249483812362428,103.1555318946667) scale(0.02490501044236066)"><ns0:metadata>
Created by potrace 1.16, written by Peter Selinger 2001-2019
</ns0:metadata>
<ns0:g transform="translate(0.000000,208.000000) scale(0.100000,-0.100000)" fill="#000000" stroke="none">
<ns0:path d="M1226 1490 c-16 -10 -33 -17 -37 -15 -6 4 -35 -5 -104 -34 -18 -8 -37 -13 -122 -36 -13 -4 -23 -11 -23 -17 0 -6 -15 -30 -34 -52 -39 -48 -60 -93 -82 -180 -9 -34 -19 -65 -24 -71 -18 -23 -42 -119 -42 -171 -1 -81 38 -125 137 -155 49 -14 154 -14 168 0 6 6 21 11 33 11 45 0 132 42 181 88 59 57 118 129 127 158 8 26 -2 54 -18 54 -12 0 -88 -65 -167 -142 -21 -21 -44 -38 -51 -38 -7 0 -40 -9 -72 -20 -102 -35 -180 -20 -220 42 -14 22 -13 32 21 133 59 182 63 191 111 243 39 41 57 52 102 62 30 7 66 23 80 35 14 13 45 31 70 41 59 22 64 28 56 58 -8 32 -46 34 -90 6z" />
</ns0:g>
</g><g transform="translate(1.3408521181585797,158.96456732038172) scale(0.02490501044236066)"><ns0:metadata>
Created by potrace 1.16, written by Peter Selinger 2001-2019
</ns0:metadata>
<ns0:g transform="translate(0.000000,207.000000) scale(0.100000,-0.100000)" fill="#000000" stroke="none">
<ns0:path d="M1005 1768 c-11 -7 -26 -18 -33 -25 -7 -7 -16 -13 -20 -13 -4 0 -20 -13 -37 -28 -45 -41 -156 -132 -210 -172 -26 -19 -59 -47 -74 -61 -14 -14 -36 -31 -49 -38 -21 -11 -42 -38 -95 -121 l-22 -35 -7 40 c-4 22 -7 57 -7 78 -1 45 -26 87 -53 87 -10 0 -30 -7 -43 -16 -24 -16 -25 -21 -25 -123 0 -90 -10 -181 -47 -423 -3 -20 -3 -48 1 -62 18 -73 79 17 112 168 13 60 24 115 24 121 0 7 10 34 21 60 18 40 23 45 31 32 5 -10 12 -17 16 -17 13 0 52 31 131 105 96 90 248 216 280 233 23 12 24 11 18 -20 -29 -168 -41 -231 -54 -278 -8 -30 -25 -98 -38 -150 -32 -133 -83 -302 -117 -389 -30 -73 -28 -101 5 -88 17 6 87 108 87 125 0 6 6 15 13 19 31 20 87 206 167 563 39 171 49 209 65 240 7 14 13 36 14 50 2 65 3 126 2 138 -1 15 -29 15 -56 0z" />
<ns0:path d="M1334 1770 c-12 -5 -25 -14 -29 -21 -11 -17 -32 -143 -45 -271 -15 -157 -16 -162 -33 -258 -8 -47 -20 -98 -26 -113 -15 -39 -14 -77 2 -77 16 0 47 31 47 47 0 6 7 16 15 23 8 7 15 21 15 31 0 30 43 109 58 109 20 0 85 54 199 165 93 91 113 128 77 142 -22 8 -51 -8 -120 -64 -86 -69 -120 -90 -131 -79 -7 7 23 252 38 309 15 58 -11 80 -67 57z" />
<ns0:path d="M635 1302 c-34 -21 -49 -75 -60 -211 -7 -93 -70 -380 -95 -436 -11 -24 -28 -45 -40 -48 -17 -4 -19 -9 -10 -29 9 -19 7 -33 -12 -74 -29 -63 -113 -170 -139 -177 -27 -7 -26 -47 2 -47 49 0 126 63 205 168 8 12 19 10 65 -11 107 -49 122 -52 251 -53 l127 -2 28 29 c15 16 35 29 43 29 8 0 26 9 40 20 23 18 25 24 24 112 -1 83 -4 100 -32 159 -18 36 -32 80 -32 97 0 41 -16 41 -63 -2 -42 -39 -47 -70 -17 -109 32 -41 50 -104 50 -178 l0 -68 -56 -7 c-97 -12 -221 15 -293 63 -19 13 -38 23 -42 23 -17 0 -20 48 -6 77 8 15 29 85 45 153 28 113 39 170 72 378 6 34 19 77 29 95 34 61 -17 90 -84 49z" />
<ns0:path d="M1246 996 c-30 -27 -34 -66 -8 -89 23 -21 31 -21 70 -1 21 10 43 13 67 8 32 -6 35 -9 35 -39 0 -40 -20 -87 -60 -140 -16 -22 -34 -49 -40 -60 -6 -11 -25 -30 -43 -42 -18 -13 -69 -60 -115 -105 -90 -89 -96 -107 -50 -141 26 -20 26 -20 60 1 18 12 69 58 113 103 44 45 97 93 117 107 38 25 42 31 39 64 -1 10 10 38 24 63 30 50 55 133 55 183 0 52 -41 87 -121 101 -93 16 -115 14 -143 -13z" />
</ns0:g>
</g><g transform="translate(1.411737689167353,227.2535008813323) scale(0.02490501044236066)"><ns0:metadata>
Created by potrace 1.16, written by Peter Selinger 2001-2019
</ns0:metadata>
<ns0:g transform="translate(0.000000,216.000000) scale(0.100000,-0.100000)" fill="#000000" stroke="none">
<ns0:path d="M1132 1904 c-26 -12 -39 -70 -41 -189 -1 -73 -8 -142 -18 -175 -18 -65 -93 -218 -152 -310 -22 -36 -52 -86 -66 -112 -13 -26 -29 -49 -34 -53 -27 -16 -141 -178 -141 -199 0 -24 32 -55 73 -69 32 -12 40 -55 29 -147 -13 -107 -7 -148 24 -162 25 -12 54 3 54 27 0 7 6 18 14 24 8 7 18 31 22 54 7 43 68 175 107 235 12 18 48 60 80 94 31 34 57 66 57 70 0 4 4 8 8 8 10 0 39 -182 47 -290 15 -205 45 -299 137 -421 58 -78 97 -101 165 -97 44 3 50 7 86 53 68 90 129 206 135 257 8 80 -22 64 -117 -62 -59 -77 -101 -120 -119 -120 -63 0 -154 164 -167 300 -4 36 -9 86 -11 110 -2 25 -8 122 -13 215 -7 159 -7 172 11 198 26 37 40 87 26 87 -6 0 -26 -11 -44 -25 -38 -29 -40 -26 -50 69 -7 67 5 106 31 106 9 0 15 10 15 25 0 27 -24 42 -87 52 -35 6 -39 16 -22 60 6 15 17 87 24 160 7 72 19 148 26 167 9 25 10 39 3 46 -13 13 -74 22 -92 14z m-22 -581 c0 -9 4 -30 9 -47 6 -17 15 -60 20 -96 l11 -65 -62 -59 c-35 -32 -70 -63 -78 -70 -18 -12 -109 -123 -126 -152 -10 -17 -14 -15 -34 27 l-23 47 82 122 c91 135 118 179 158 258 28 53 43 66 43 35z" />
<ns0:path d="M420 1635 c-7 -8 -19 -15 -26 -15 -16 0 -36 -42 -70 -147 -22 -68 -61 -149 -90 -183 -7 -8 -25 -39 -39 -69 -24 -46 -80 -118 -155 -196 -28 -29 -25 -59 10 -89 35 -29 43 -27 150 28 199 103 225 115 234 106 13 -13 -27 -101 -84 -186 -82 -123 -122 -179 -134 -189 -6 -5 -27 -32 -45 -60 -19 -27 -38 -52 -41 -55 -4 -3 -13 -16 -20 -30 -7 -14 -26 -41 -41 -61 -35 -45 -37 -78 -5 -108 l23 -22 56 21 c30 11 61 28 68 36 7 9 29 24 48 34 20 10 92 71 160 137 68 65 140 128 160 140 41 24 65 61 59 89 -10 51 -147 -20 -282 -147 -29 -27 -46 -36 -46 -23 0 3 18 27 40 53 22 26 40 51 40 55 0 4 18 29 40 55 56 66 113 207 118 292 4 63 3 67 -19 74 -45 15 -110 7 -162 -18 -59 -29 -117 -49 -117 -40 0 10 55 107 73 127 21 24 73 132 83 173 12 45 40 90 84 129 47 43 49 55 14 83 -31 25 -67 27 -84 6z" />
<ns0:path d="M479 408 c-35 -23 -68 -47 -74 -53 -19 -22 -113 -85 -125 -85 -7 0 -31 -8 -54 -19 -23 -10 -63 -24 -91 -30 -58 -14 -85 -35 -85 -67 0 -29 53 -69 78 -58 9 4 51 19 92 33 55 20 97 44 156 91 45 36 89 77 98 92 9 14 36 47 61 73 25 25 45 50 45 55 0 21 -41 8 -101 -32z" />
</ns0:g>
</g><g transform="translate(-2.4455200844572005,316.74675170148555) scale(0.02490501044236066)"><ns0:metadata>
Created by potrace 1.16, written by Peter Selinger 2001-2019
</ns0:metadata>
<ns0:g transform="translate(0.000000,207.000000) scale(0.100000,-0.100000)" fill="#000000" stroke="none">
<ns0:path d="M768 1060 c-30 -23 -35 -55 -15 -81 10 -14 50 -17 267 -22 155 -4 282 -12 324 -21 45 -9 78 -11 93 -5 21 8 23 14 20 65 l-3 57 -115 4 c-63 2 -132 5 -154 7 -22 2 -119 7 -215 11 -170 7 -176 7 -202 -15z" />
</ns0:g>
</g><g transform="translate(-1.8755777042379123,377.77242178829044) scale(0.02490501044236066)"><ns0:metadata>
Created by potrace 1.16, written by Peter Selinger 2001-2019
</ns0:metadata>
<ns0:g transform="translate(0.000000,208.000000) scale(0.100000,-0.100000)" fill="#000000" stroke="none">
<ns0:path d="M871 1322 c-20 -20 -30 -42 -35 -79 -6 -47 -4 -56 21 -92 21 -30 35 -40 56 -41 21 0 30 -7 38 -27 16 -41 2 -130 -28 -183 -14 -25 -34 -61 -44 -80 -22 -44 -86 -106 -164 -158 -67 -45 -108 -93 -99 -117 3 -8 22 -22 41 -31 32 -16 35 -16 56 2 33 28 60 42 140 71 39 14 81 31 92 38 24 15 105 38 199 56 66 13 89 30 69 50 -16 16 -201 12 -255 -4 -39 -12 -48 -12 -48 -2 0 13 51 96 89 146 30 38 38 65 45 149 5 53 3 91 -7 130 -21 76 -26 88 -64 148 -38 61 -61 66 -102 24z" />
</ns0:g>
</g><g transform="translate(-2.5436607053613898,451.1817216371161) scale(0.02490501044236066)"><ns0:metadata>
Created by potrace 1.16, written by Peter Selinger 2001-2019
</ns0:metadata>
<ns0:g transform="translate(0.000000,215.000000) scale(0.100000,-0.100000)" fill="#000000" stroke="none">
<ns0:path d="M1192 1565 c-34 -18 -72 -56 -88 -87 -8 -15 -35 -57 -62 -92 -66 -92 -92 -135 -92 -154 0 -28 51 -90 83 -101 60 -22 182 13 235 66 35 35 42 -3 13 -82 -44 -125 -90 -265 -104 -325 -15 -62 -15 -65 4 -97 31 -50 89 -41 89 13 0 28 32 150 63 239 100 286 120 356 115 412 -3 33 -7 39 -33 43 -22 4 -30 11 -30 26 -1 11 -10 33 -22 48 -12 15 -25 37 -29 49 -12 41 -35 57 -78 56 -23 -1 -51 -7 -64 -14z m60 -112 c10 -21 24 -30 56 -37 41 -10 42 -11 36 -40 -3 -17 -11 -35 -18 -41 -62 -52 -139 -107 -161 -115 -35 -13 -92 -13 -100 1 -9 14 13 66 42 97 13 14 23 29 23 34 0 12 92 127 102 127 4 1 13 -11 20 -26z" />
</ns0:g>
</g><g transform="translate(-0.7933748877005087,521.9906560691992) scale(0.02490501044236066)"><ns0:metadata>
Created by potrace 1.16, written by Peter Selinger 2001-2019
</ns0:metadata>
<ns0:g transform="translate(0.000000,208.000000) scale(0.100000,-0.100000)" fill="#000000" stroke="none">
<ns0:path d="M791 1371 c-12 -12 -21 -31 -21 -43 0 -13 -12 -50 -25 -83 -28 -68 -32 -88 -11 -59 26 35 29 5 7 -68 -23 -79 -27 -158 -11 -204 18 -51 72 -78 163 -83 l79 -3 -7 -52 c-4 -28 -16 -76 -26 -106 -23 -66 -24 -100 -4 -100 33 0 99 96 130 190 14 43 32 83 38 88 7 5 36 15 65 22 59 14 68 26 74 101 3 39 0 45 -26 58 -27 13 -31 12 -48 -9 -10 -12 -18 -28 -18 -36 0 -8 -4 -14 -10 -14 -13 0 -13 15 -1 38 5 9 15 39 22 66 7 27 26 64 42 83 33 37 30 58 -8 73 -93 35 -128 -9 -166 -210 -7 -36 -16 -67 -20 -70 -5 -3 -36 -5 -69 -4 -82 2 -104 21 -95 83 4 25 16 79 27 120 11 42 22 85 25 96 2 11 -2 47 -10 80 -13 56 -15 60 -45 63 -21 2 -37 -3 -51 -17z" />
</ns0:g>
</g><g transform="translate(-2.0771608591809354,598.9924177998228) scale(0.02490501044236066)"><ns0:metadata>
Created by potrace 1.16, written by Peter Selinger 2001-2019
</ns0:metadata>
<ns0:g transform="translate(0.000000,207.000000) scale(0.100000,-0.100000)" fill="#000000" stroke="none">
<ns0:path d="M1225 1568 c-32 -17 -85 -71 -85 -85 0 -7 -4 -13 -10 -13 -5 0 -10 9 -10 20 0 17 -7 20 -53 20 -29 0 -58 -5 -65 -12 -16 -16 -15 -85 3 -144 19 -64 19 -94 -4 -123 -17 -23 -25 -24 -127 -26 -128 -1 -184 -19 -184 -57 0 -42 17 -48 132 -48 64 0 108 -4 108 -10 0 -5 -19 -48 -42 -95 -29 -58 -48 -85 -60 -85 -16 0 -38 -27 -38 -48 0 -5 9 -19 20 -31 21 -25 10 -28 110 25 31 16 99 112 139 196 37 77 44 78 85 5 20 -35 36 -69 36 -75 0 -6 6 -17 14 -25 8 -8 23 -30 33 -49 72 -139 71 -138 108 -138 34 0 35 1 35 43 0 41 -8 61 -73 177 -85 152 -86 157 -39 176 15 6 50 21 77 32 58 24 96 65 77 84 -9 9 -30 7 -95 -11 -129 -36 -124 -35 -131 -13 -8 23 35 126 81 197 47 70 50 85 23 107 -25 21 -37 22 -65 6z" />
</ns0:g>
</g><g transform="translate(-0.20546373525462513,663.0863063568671) scale(0.02490501044236066)"><ns0:metadata>
Created by potrace 1.16, written by Peter Selinger 2001-2019
</ns0:metadata>
<ns0:g transform="translate(0.000000,207.000000) scale(0.100000,-0.100000)" fill="#000000" stroke="none">
<ns0:path d="M1467 1412 c-10 -10 -17 -21 -17 -24 0 -10 49 -15 53 -5 2 6 11 6 25 -2 18 -10 22 -9 22 3 0 9 -13 22 -30 31 -36 19 -34 19 -53 -3z" />
<ns0:path d="M840 1261 c0 -6 -7 -11 -15 -11 -31 0 -31 -92 0 -104 9 -3 35 1 58 9 99 34 165 7 152 -63 -21 -114 -213 -390 -300 -431 -44 -21 -115 -92 -115 -115 0 -39 85 -61 111 -29 8 9 42 28 75 44 34 15 65 32 68 38 4 6 20 11 35 11 16 0 46 6 67 14 22 7 81 17 132 21 70 5 95 11 99 23 4 8 -1 20 -11 27 -22 16 -181 27 -229 16 -51 -12 -55 2 -14 52 19 23 37 52 41 64 4 12 21 33 37 47 31 26 81 125 94 184 19 90 -25 182 -96 196 -68 14 -189 19 -189 7z" />
</ns0:g>
</g><g transform="translate(-1.955809732463706,734.1612957379838) scale(0.02490501044236066)"><ns0:metadata>
Created by potrace 1.16, written by Peter Selinger 2001-2019
</ns0:metadata>
<ns0:g transform="translate(0.000000,207.000000) scale(0.100000,-0.100000)" fill="#000000" stroke="none">
<ns0:path d="M514 1367 c-27 -18 -60 -38 -74 -44 -62 -29 -124 -53 -136 -53 -8 0 -21 -17 -30 -37 -15 -36 -15 -40 3 -73 22 -43 55 -50 94 -21 35 26 44 26 76 2 30 -24 51 -18 60 18 8 31 30 50 59 51 47 0 39 -78 -12 -116 -44 -34 -59 -81 -41 -125 13 -31 12 -37 -10 -71 -19 -28 -22 -41 -14 -56 12 -23 46 -46 80 -55 30 -7 81 46 116 121 33 71 59 81 188 75 53 -3 97 -9 97 -14 0 -11 -106 -167 -134 -198 -11 -12 -42 -41 -68 -63 -41 -34 -59 -41 -133 -55 -68 -12 -85 -19 -85 -33 0 -22 37 -30 135 -30 117 0 131 6 214 87 41 40 84 91 96 112 11 22 41 70 66 108 50 74 72 160 47 180 -7 6 -78 11 -162 11 -96 0 -153 5 -160 12 -6 6 -11 45 -11 90 -1 90 -17 122 -74 152 -18 9 -40 26 -48 37 -22 33 -80 28 -139 -12z" />
</ns0:g>
</g><g transform="translate(2.3479125120893514,805.9192297244149) scale(0.02490501044236066)"><ns0:metadata>
Created by potrace 1.16, written by Peter Selinger 2001-2019
</ns0:metadata>
<ns0:g transform="translate(0.000000,208.000000) scale(0.100000,-0.100000)" fill="#000000" stroke="none">
<ns0:path d="M1117 1374 c-37 -20 -75 -103 -88 -189 -5 -38 -16 -92 -24 -120 -7 -27 -19 -77 -26 -110 -7 -33 -16 -64 -19 -70 -21 -29 -19 -53 5 -81 22 -26 31 -29 99 -32 l75 -4 -2 -66 c-2 -56 1 -67 16 -70 10 -2 20 4 24 15 8 22 86 142 107 165 8 9 32 20 53 23 91 15 133 57 133 135 0 26 -4 30 -26 30 -14 0 -39 -11 -56 -25 -44 -37 -60 -33 -52 13 4 20 13 49 20 64 8 15 14 32 14 38 0 5 13 31 29 57 20 32 39 50 62 57 28 9 34 16 35 44 1 22 -4 36 -17 42 -29 16 -129 15 -144 -1 -15 -16 -56 -132 -90 -255 -30 -108 -45 -130 -96 -144 -49 -13 -69 -8 -69 19 0 29 26 124 43 157 8 16 20 54 27 84 18 78 37 118 60 130 28 15 25 39 -9 78 -32 36 -43 38 -84 16z" />
</ns0:g>
</g><g transform="translate(-1.2714170135482163,878.6239196545725) scale(0.02490501044236066)"><ns0:metadata>
Created by potrace 1.16, written by Peter Selinger 2001-2019
</ns0:metadata>
<ns0:g transform="translate(0.000000,207.000000) scale(0.100000,-0.100000)" fill="#000000" stroke="none">
<ns0:path d="M1360 1547 c-12 -7 -32 -30 -44 -52 -11 -21 -30 -47 -41 -56 -11 -9 -26 -37 -33 -62 -19 -63 -36 -76 -62 -46 -10 13 -19 36 -20 50 0 18 -8 29 -25 37 -52 24 -125 7 -125 -28 0 -23 25 -76 38 -82 5 -1 21 -22 35 -45 33 -52 29 -55 -113 -58 -129 -3 -140 -7 -140 -51 0 -28 5 -36 35 -50 41 -19 134 -14 204 11 23 8 41 13 41 11 0 -3 -31 -73 -82 -186 -11 -25 -33 -65 -50 -89 -34 -52 -35 -94 -1 -99 25 -4 73 24 73 43 0 7 18 36 40 64 22 28 52 82 66 120 14 38 34 77 44 86 16 14 18 14 32 -7 18 -28 42 -81 94 -208 57 -142 65 -150 104 -108 20 22 27 72 11 82 -4 3 -18 34 -31 68 -43 122 -73 193 -97 230 -35 57 -31 73 25 93 26 10 65 19 87 20 36 2 43 -2 69 -37 25 -35 28 -43 17 -60 -14 -23 -6 -37 10 -21 6 6 12 44 14 83 3 103 -9 115 -109 113 -53 -1 -76 3 -76 11 0 6 16 36 35 66 40 62 48 85 43 125 -4 34 -35 48 -68 32z" />
</ns0:g>
</g><g transform="translate(-1.3128743030914052,948.233971992709) scale(0.02490501044236066)"><ns0:metadata>
Created by potrace 1.16, written by Peter Selinger 2001-2019
</ns0:metadata>
<ns0:g transform="translate(0.000000,206.000000) scale(0.100000,-0.100000)" fill="#000000" stroke="none">
<ns0:path d="M1020 1511 c-17 -5 -26 -16 -30 -36 -3 -18 -15 -34 -28 -41 -44 -22 -55 -57 -90 -299 -21 -148 -20 -340 3 -365 8 -9 15 -26 15 -39 0 -12 6 -37 14 -56 19 -46 54 -54 109 -27 23 11 65 24 92 27 62 9 71 16 102 80 79 163 90 203 94 340 6 233 -3 325 -33 325 -6 0 -27 14 -49 31 -21 16 -55 33 -76 36 -21 3 -47 12 -58 19 -21 15 -27 16 -65 5z m115 -114 c60 -34 66 -55 66 -225 0 -142 -11 -210 -40 -246 -5 -6 -14 -29 -21 -50 -19 -58 -62 -96 -109 -96 -37 0 -39 1 -55 53 -17 53 -16 54 18 213 19 87 40 180 46 206 7 26 9 56 5 67 -3 10 -1 22 5 26 5 3 10 22 10 41 0 41 17 44 75 11z" />
</ns0:g>
</g><g transform="translate(2.041812287039704,1017.5510397772007) scale(0.02490501044236066)"><ns0:metadata>
Created by potrace 1.16, written by Peter Selinger 2001-2019
</ns0:metadata>
<ns0:g transform="translate(0.000000,211.000000) scale(0.100000,-0.100000)" fill="#000000" stroke="none">
<ns0:path d="M1255 970 c-3 -5 -20 -9 -38 -8 -53 2 -72 -16 -106 -99 -34 -84 -40 -155 -16 -186 7 -11 32 -23 55 -28 37 -9 47 -6 88 19 41 25 48 35 64 89 16 55 17 66 5 102 -8 23 -11 45 -6 53 5 7 9 25 9 41 0 22 -4 27 -24 27 -14 0 -28 -4 -31 -10z" />
</ns0:g>
</g><g transform="translate(2.6965563492361184,1088.8926660882485) scale(0.02490501044236066)"><ns0:metadata>
Created by potrace 1.16, written by Peter Selinger 2001-2019
</ns0:metadata>
<ns0:g transform="translate(0.000000,207.000000) scale(0.100000,-0.100000)" fill="#000000" stroke="none">
<ns0:path d="M840 1478 c-39 -43 -12 -98 50 -98 40 0 51 -12 44 -49 -7 -32 -82 -116 -148 -166 -44 -33 -56 -46 -56 -59 0 -29 34 -41 129 -46 108 -6 110 -8 91 -79 -16 -59 -120 -179 -186 -215 -48 -26 -54 -32 -54 -61 0 -27 5 -34 25 -39 31 -8 90 16 104 42 6 12 21 24 33 28 41 13 96 65 139 131 36 57 43 75 47 135 6 93 -5 111 -79 135 -62 19 -74 37 -36 54 12 6 38 36 57 67 27 45 34 68 35 108 0 62 -20 89 -79 106 -23 6 -45 15 -50 20 -17 14 -45 9 -66 -14z" />
</ns0:g>
</g><g transform="translate(-2.804562134289938,1159.122975216233) scale(0.02490501044236066)"><ns0:metadata>
Created by potrace 1.16, written by Peter Selinger 2001-2019
</ns0:metadata>
<ns0:g transform="translate(0.000000,206.000000) scale(0.100000,-0.100000)" fill="#000000" stroke="none">
<ns0:path d="M1034 1393 c-22 -16 -61 -39 -87 -53 -65 -34 -97 -79 -108 -148 -4 -32 -17 -91 -28 -132 -10 -41 -25 -130 -31 -198 -11 -119 -10 -125 11 -169 23 -48 51 -65 125 -78 26 -4 44 -2 49 4 3 6 17 8 30 5 19 -5 31 1 55 27 16 19 30 39 30 46 0 19 -32 32 -55 23 -27 -10 -103 3 -121 22 -31 31 -19 216 24 358 11 36 25 84 31 107 9 32 23 52 59 78 28 22 55 55 69 83 27 57 27 52 5 52 -11 0 -37 -12 -58 -27z" />
</ns0:g>
</g><g transform="translate(-2.264375593408886,1220.8379990364522) scale(0.02490501044236066)"><ns0:metadata>
Created by potrace 1.16, written by Peter Selinger 2001-2019
</ns0:metadata>
<ns0:g transform="translate(0.000000,204.000000) scale(0.100000,-0.100000)" fill="#000000" stroke="none">
<ns0:path d="M1033 1968 c-31 -15 -29 -27 14 -116 34 -70 38 -86 41 -180 3 -71 1 -107 -8 -117 -13 -16 -7 -45 9 -45 5 0 26 30 45 67 34 64 36 72 36 164 0 119 -26 201 -71 225 -32 16 -36 16 -66 2z" />
<ns0:path d="M1320 1579 c-19 -10 -41 -23 -47 -29 -26 -22 -103 -70 -233 -145 -74 -42 -144 -85 -155 -95 -11 -10 -29 -21 -41 -24 -33 -10 -94 -72 -94 -95 0 -14 11 -27 34 -38 36 -17 42 -15 91 17 67 43 64 43 71 5 3 -19 12 -39 20 -46 8 -6 14 -17 14 -24 0 -7 9 -32 20 -56 31 -69 27 -94 -17 -113 -75 -33 -238 -156 -268 -203 -16 -24 -16 -26 1 -43 40 -38 56 -34 154 40 51 39 106 78 122 86 l28 15 0 -44 c0 -105 -50 -364 -73 -379 -7 -5 -49 -27 -95 -49 -88 -42 -116 -74 -95 -107 22 -36 65 -26 216 50 178 90 250 123 302 139 46 14 100 38 133 59 22 15 30 54 12 65 -14 9 -167 -13 -203 -29 -18 -8 -54 -22 -80 -32 -26 -9 -50 -21 -53 -25 -3 -5 -14 -9 -25 -9 -19 0 -19 1 -3 32 22 42 52 166 59 243 4 33 14 89 23 123 14 51 23 67 45 79 15 8 37 23 47 33 11 11 37 31 60 45 47 29 51 51 13 66 -29 11 -42 6 -115 -38 -64 -39 -80 -29 -91 60 -7 47 -6 48 29 64 25 13 34 23 32 38 -3 18 -10 20 -90 19 -90 -1 -106 6 -65 27 43 23 232 148 281 186 77 60 117 105 114 127 -4 27 -33 29 -78 5z" />
</ns0:g>
</g><g transform="translate(-0.17740238148292065,1286.4355967649376) scale(0.02490501044236066)"><ns0:metadata>
Created by potrace 1.16, written by Peter Selinger 2001-2019
</ns0:metadata>
<ns0:g transform="translate(0.000000,205.000000) scale(0.100000,-0.100000)" fill="#000000" stroke="none">
<ns0:path d="M833 1670 c-26 -11 -32 -60 -9 -79 7 -6 16 -32 19 -59 4 -26 9 -57 13 -68 5 -17 -6 -30 -58 -70 -35 -26 -93 -65 -130 -85 -66 -36 -70 -37 -143 -32 -65 5 -78 3 -96 -13 -18 -17 -20 -26 -14 -77 3 -32 15 -93 26 -135 15 -57 21 -120 24 -242 6 -226 13 -285 37 -307 19 -17 21 -17 39 6 10 13 20 37 20 55 1 17 3 112 5 211 7 355 7 350 26 347 25 -4 56 15 109 65 25 25 55 50 66 56 11 7 39 25 62 41 23 16 45 26 49 22 11 -11 19 -288 9 -309 -5 -10 -23 -25 -40 -32 -18 -7 -53 -33 -79 -58 -63 -59 -65 -93 -9 -134 l39 -28 -36 -50 c-20 -27 -49 -70 -66 -95 -56 -85 -180 -219 -201 -220 -6 0 -19 -14 -29 -30 -20 -36 -13 -50 34 -70 34 -14 42 -10 133 64 30 24 68 51 85 60 16 8 32 22 35 31 7 16 32 20 41 7 5 -8 2 -22 -29 -137 -7 -27 -12 -75 -10 -105 2 -30 4 -63 4 -73 1 -24 58 -56 161 -90 73 -24 101 -28 200 -29 131 0 247 23 330 67 14 7 50 20 80 28 30 7 81 31 114 53 32 21 68 44 79 51 12 7 25 20 28 30 11 27 -1 113 -22 155 -11 21 -19 46 -19 56 0 11 -11 40 -25 66 -14 26 -25 54 -25 62 0 21 -28 17 -40 -6 -17 -32 -15 -170 3 -214 25 -57 21 -70 -25 -100 -46 -30 -179 -86 -204 -86 -8 0 -28 -7 -44 -15 -19 -10 -83 -19 -180 -25 -146 -10 -151 -10 -205 13 -64 27 -109 63 -101 82 3 8 10 41 16 75 6 33 21 93 34 133 13 39 27 87 31 104 3 18 10 33 14 33 5 0 26 -14 47 -31 32 -26 44 -29 74 -24 41 8 64 26 79 63 23 58 61 366 61 498 0 73 6 178 12 235 15 124 13 306 -3 325 -6 8 -19 14 -29 14 -16 0 -137 -73 -150 -91 -10 -12 -72 -40 -78 -35 -3 4 -20 39 -37 79 -33 77 -51 88 -102 67z m295 -310 c-6 -63 -12 -189 -12 -280 -1 -91 -7 -196 -13 -235 -7 -38 -17 -106 -23 -150 -14 -93 -22 -106 -50 -80 -26 23 -25 29 5 59 45 45 23 80 -36 56 -16 -7 -32 -10 -35 -7 -3 3 2 36 11 74 14 54 18 120 20 328 2 143 6 268 10 277 9 22 117 90 126 80 4 -4 3 -59 -3 -122z m-298 -724 c0 -19 -37 -63 -45 -54 -4 3 3 20 16 37 26 35 29 37 29 17z" />
</ns0:g>
</g><g transform="translate(1.6498792586938862,1358.7546875634573) scale(0.02490501044236066)"><ns0:metadata>
Created by potrace 1.16, written by Peter Selinger 2001-2019
</ns0:metadata>
<ns0:g transform="translate(0.000000,209.000000) scale(0.100000,-0.100000)" fill="#000000" stroke="none">
<ns0:path d="M1245 2056 c-27 -18 -56 -40 -64 -49 -7 -10 -19 -17 -25 -18 -6 0 -31 -16 -56 -35 -25 -18 -72 -53 -105 -76 -33 -23 -64 -49 -69 -57 -6 -9 -25 -29 -43 -45 -40 -36 -44 -77 -11 -100 26 -18 64 -21 73 -6 4 6 24 22 46 36 22 14 39 32 39 43 0 18 105 123 150 149 31 19 37 6 12 -26 -30 -39 -119 -219 -131 -267 -5 -22 -18 -65 -29 -95 -19 -52 -32 -95 -68 -227 -9 -32 -25 -80 -35 -107 -10 -27 -19 -55 -19 -62 0 -8 -19 -69 -41 -136 -23 -68 -42 -132 -44 -143 -1 -11 -19 -72 -39 -135 -21 -63 -47 -146 -58 -185 -12 -38 -29 -83 -39 -100 -10 -16 -29 -66 -44 -110 -31 -98 -50 -150 -81 -235 -13 -36 -24 -66 -24 -67 0 -2 24 -3 53 -3 l53 0 18 52 c10 29 24 67 31 83 7 17 22 62 34 100 12 39 40 112 62 163 21 50 53 143 69 205 17 61 37 132 45 157 27 84 82 265 94 307 6 23 16 45 21 48 15 9 103 -183 96 -209 -3 -12 -19 -30 -36 -41 -41 -27 -61 -93 -34 -112 10 -7 24 -13 31 -13 20 0 16 -23 -12 -64 -14 -20 -25 -41 -25 -46 0 -5 -10 -19 -22 -30 -13 -12 -30 -34 -38 -50 -8 -16 -36 -56 -62 -89 -27 -34 -48 -64 -48 -67 0 -3 -11 -20 -24 -37 -31 -41 -96 -170 -96 -190 0 -31 29 -25 64 14 20 21 36 43 36 48 0 5 7 16 14 24 26 26 146 190 146 200 0 5 20 31 44 58 24 26 58 79 77 116 37 75 49 88 65 70 26 -29 112 -256 119 -312 10 -91 23 -125 53 -136 22 -9 30 -7 44 11 10 12 18 30 18 39 0 9 5 22 10 27 6 6 11 60 11 120 1 68 6 118 14 134 7 14 20 70 30 125 31 186 34 198 54 219 26 28 40 84 47 186 3 47 9 105 14 130 5 25 12 68 15 95 7 53 23 113 56 210 32 90 41 146 28 162 -22 26 -58 15 -87 -26 -15 -21 -43 -49 -62 -62 -19 -13 -66 -51 -105 -84 -117 -99 -109 -95 -102 -59 3 16 26 64 51 105 25 41 56 97 70 124 14 28 31 58 38 67 9 13 9 22 0 43 -12 25 -17 27 -53 22 -52 -7 -55 -11 -139 -192 -23 -49 -51 -108 -61 -131 -10 -22 -19 -44 -19 -48 0 -14 -84 -181 -109 -216 -14 -19 -26 -36 -26 -37 0 -1 -11 0 -23 4 -34 9 -33 18 32 219 20 62 36 119 36 127 0 8 11 34 24 58 13 24 34 73 46 109 12 36 33 89 46 118 13 29 24 61 24 72 0 10 5 22 11 26 17 10 49 86 49 117 0 23 -4 27 -27 26 -16 0 -50 -15 -78 -33z m295 -596 c0 -5 -7 -53 -15 -107 -8 -54 -16 -116 -17 -138 -3 -37 -5 -40 -38 -45 -28 -4 -38 -12 -52 -42 -10 -21 -30 -44 -45 -52 -16 -8 -37 -24 -48 -36 -28 -32 -95 -80 -112 -80 -9 0 -13 13 -13 39 0 22 -6 44 -15 51 -19 16 -9 33 15 25 33 -10 101 15 139 52 20 19 54 48 76 64 23 16 49 43 59 59 32 55 -2 66 -78 25 -26 -14 -53 -25 -60 -25 -7 0 -25 -11 -39 -24 -14 -13 -43 -30 -64 -36 -21 -7 -48 -19 -60 -26 -21 -13 -23 -13 -23 6 0 13 9 22 28 26 15 4 43 21 62 39 19 17 85 69 145 115 61 45 116 91 124 101 14 20 31 25 31 9z m-146 -542 c-3 -29 -10 -71 -15 -93 -5 -22 -9 -69 -9 -105 0 -72 -13 -109 -26 -75 -4 11 -20 38 -36 59 -15 22 -33 56 -38 78 -6 21 -15 38 -20 38 -22 0 -7 27 33 63 64 57 101 86 110 87 4 0 5 -24 1 -52z" />
<ns0:path d="M520 1504 c-9 -3 -26 -24 -38 -47 -18 -35 -21 -49 -13 -70 6 -15 9 -60 7 -101 -3 -56 0 -78 10 -87 10 -8 17 -9 28 0 20 17 116 189 116 208 0 19 -48 93 -61 93 -4 0 -13 2 -21 4 -7 2 -20 2 -28 0z" />
<ns0:path d="M532 980 c-18 -4 -42 -16 -54 -26 -20 -18 -20 -25 -14 -199 6 -177 6 -181 -19 -233 -32 -70 -32 -88 5 -107 37 -19 77 -11 86 18 21 67 137 300 165 332 25 29 50 93 38 100 -12 8 -73 -41 -119 -94 -19 -22 -37 -41 -40 -41 -10 0 1 143 13 180 6 19 10 42 8 50 -3 14 -20 31 -31 29 -3 -1 -20 -5 -38 -9z" />
<ns0:path d="M1565 664 c-46 -42 -32 -85 39 -122 80 -41 206 -34 206 13 0 7 -26 22 -58 34 -55 21 -112 62 -112 80 0 21 -51 17 -75 -5z" />
</ns0:g>
</g><g transform="translate(1.8877346843917735,1448.034861136393) scale(0.02490501044236066)"><ns0:metadata>
Created by potrace 1.16, written by Peter Selinger 2001-2019
</ns0:metadata>
<ns0:g transform="translate(0.000000,210.000000) scale(0.100000,-0.100000)" fill="#000000" stroke="none">
<ns0:path d="M653 1020 c-13 -5 -23 -14 -23 -20 0 -20 28 -77 41 -86 33 -21 442 -56 487 -42 41 12 41 33 1 85 -28 36 -35 40 -59 33 -52 -15 -181 -3 -337 31 -51 11 -81 11 -110 -1z" />
</ns0:g>
</g><g transform="translate(-2.0323587241854852,1507.040333906793) scale(0.02490501044236066)"><ns0:metadata>
Created by potrace 1.16, written by Peter Selinger 2001-2019
</ns0:metadata>
<ns0:g transform="translate(0.000000,206.000000) scale(0.100000,-0.100000)" fill="#000000" stroke="none">
<ns0:path d="M1372 1474 c-11 -7 -43 -23 -72 -34 -29 -11 -64 -30 -78 -40 -14 -11 -33 -20 -43 -20 -11 0 -19 -4 -19 -9 0 -5 -12 -12 -27 -15 -68 -16 -131 -48 -142 -72 -18 -40 -13 -59 20 -83 l30 -23 38 26 c20 14 40 26 43 26 3 0 42 20 86 45 76 43 112 55 112 37 0 -18 -42 -157 -56 -183 -9 -17 -23 -29 -35 -29 -11 0 -36 -7 -57 -16 -20 -9 -46 -17 -57 -18 -43 -6 -63 -18 -74 -45 -10 -24 -9 -34 10 -67 13 -21 39 -53 59 -71 l35 -32 -34 -63 c-19 -35 -50 -95 -70 -134 -20 -39 -53 -91 -73 -116 -42 -50 -48 -86 -19 -112 22 -20 53 -21 146 -7 39 6 94 10 124 11 30 0 80 5 110 10 31 6 86 13 123 16 36 3 74 12 85 20 17 13 17 15 -7 35 -22 19 -35 20 -200 19 -96 -1 -183 -2 -192 -1 -26 2 -22 29 12 91 17 30 44 85 61 122 29 63 34 68 63 67 29 0 66 5 124 17 17 3 22 11 20 25 -3 17 -12 21 -66 24 -35 1 -66 5 -68 8 -8 8 24 95 52 147 22 39 63 160 109 320 8 27 9 49 4 55 -5 5 -9 23 -9 41 0 26 -5 33 -25 36 -13 3 -33 -1 -43 -8z m-180 -499 c-12 -22 -27 -2 -18 22 5 12 10 13 17 6 7 -7 8 -17 1 -28z" />
</ns0:g>
</g><g transform="translate(2.15061819354014,1578.0067889785407) scale(0.02490501044236066)"><ns0:metadata>
Created by potrace 1.16, written by Peter Selinger 2001-2019
</ns0:metadata>
<ns0:g transform="translate(0.000000,207.000000) scale(0.100000,-0.100000)" fill="#000000" stroke="none">
<ns0:path d="M764 1425 l-34 -36 0 -147 c0 -81 -5 -176 -10 -212 -5 -36 -12 -110 -15 -165 -7 -110 -19 -155 -76 -293 -21 -51 -39 -98 -39 -105 0 -7 9 -23 20 -35 24 -25 70 -29 103 -8 17 11 64 14 200 14 l179 0 -6 -24 c-8 -30 7 -37 59 -26 34 7 40 13 53 50 10 30 11 53 5 80 -9 35 -11 37 -48 35 -196 -8 -385 -7 -396 4 -9 9 -5 36 14 115 16 62 28 148 32 217 3 63 8 117 9 120 2 3 7 66 11 139 7 146 19 187 66 229 21 19 29 35 27 53 -3 23 -7 25 -61 28 -56 3 -60 1 -93 -33z" />
</ns0:g>
</g><g transform="translate(1.9509287946280551,1644.5078379544132) scale(0.02490501044236066)"><ns0:metadata>
Created by potrace 1.16, written by Peter Selinger 2001-2019
</ns0:metadata>
<ns0:g transform="translate(0.000000,207.000000) scale(0.100000,-0.100000)" fill="#000000" stroke="none">
<ns0:path d="M1054 1535 c-59 -40 -63 -44 -99 -110 -40 -75 -65 -117 -86 -144 -10 -13 -19 -28 -19 -33 0 -5 -34 -79 -76 -164 -70 -141 -78 -166 -95 -267 -22 -136 -23 -184 -5 -228 42 -100 178 -146 265 -92 58 37 128 122 179 219 36 69 39 99 16 132 -21 30 -29 28 -48 -12 -21 -45 -95 -144 -149 -200 -34 -36 -51 -46 -76 -46 -64 0 -96 37 -92 105 5 101 35 221 76 305 58 120 141 268 164 297 14 17 37 47 51 67 20 28 32 36 57 36 33 0 33 -2 49 91 7 45 -9 79 -39 79 -12 0 -45 -16 -73 -35z" />
<ns0:path d="M1280 1125 c-31 -6 -74 -21 -95 -32 -22 -12 -66 -29 -99 -39 -153 -46 -128 -153 32 -135 6 0 12 9 12 20 0 13 16 26 53 42 28 12 55 25 59 27 10 5 -2 -68 -15 -93 -20 -38 -47 -250 -54 -413 -5 -123 -9 -165 -20 -169 -25 -10 -13 -48 26 -80 21 -17 46 -33 56 -35 30 -5 51 46 45 112 -13 158 12 476 41 505 5 5 9 15 9 23 0 26 53 147 77 176 18 21 23 38 21 65 -3 35 -4 36 -48 37 -25 0 -70 -5 -100 -11z m-40 -505 c0 -5 -2 -10 -4 -10 -3 0 -8 5 -11 10 -3 6 -1 10 4 10 6 0 11 -4 11 -10z" />
</ns0:g>
</g><g transform="translate(1.7444141222846383,1731.648679713312) scale(0.02490501044236066)"><ns0:metadata>
Created by potrace 1.16, written by Peter Selinger 2001-2019
</ns0:metadata>
<ns0:g transform="translate(0.000000,210.000000) scale(0.100000,-0.100000)" fill="#000000" stroke="none">
<ns0:path d="M756 1009 c-35 -51 -5 -121 57 -133 20 -4 50 0 74 8 37 13 223 15 348 4 l30 -3 -2 63 c-1 35 -3 65 -5 67 -2 1 -112 6 -244 10 l-242 7 -16 -23z" />
</ns0:g>
</g><g transform="translate(-1.3354957708062898,1793.675464240747) scale(0.02490501044236066)"><ns0:metadata>
Created by potrace 1.16, written by Peter Selinger 2001-2019
</ns0:metadata>
<ns0:g transform="translate(0.000000,211.000000) scale(0.100000,-0.100000)" fill="#000000" stroke="none">
<ns0:path d="M1188 1760 c-21 -4 -46 -14 -55 -22 -10 -9 -36 -21 -58 -27 -45 -12 -113 -67 -117 -95 -2 -11 8 -27 23 -38 l26 -20 49 26 c27 14 67 39 89 55 22 16 55 32 73 36 28 6 32 4 32 -15 0 -28 -64 -156 -116 -235 -98 -146 -113 -171 -113 -192 -1 -31 15 -38 89 -38 64 0 65 -1 68 -28 5 -41 -25 -160 -58 -234 -44 -96 -198 -243 -256 -243 -8 0 1 215 15 338 8 63 17 101 31 120 33 46 77 280 59 315 -30 57 -88 79 -128 49 -21 -17 -23 -28 -27 -113 -4 -129 -7 -162 -32 -337 -12 -84 -22 -207 -23 -273 -1 -65 -5 -122 -10 -125 -5 -3 -16 -1 -25 4 -19 11 -104 -12 -116 -31 -26 -41 18 -68 114 -72 56 -2 75 -7 83 -20 5 -10 18 -27 27 -39 25 -31 52 -11 56 41 3 38 5 41 65 69 87 40 206 158 246 245 42 88 72 210 74 294 2 61 -1 75 -23 104 -14 18 -35 37 -47 42 -29 11 -30 52 -3 79 11 11 20 23 20 26 0 14 53 110 71 130 35 38 55 187 29 219 -13 16 -67 18 -132 5z" />
</ns0:g>
</g><g transform="translate(2.8315595742460573,1862.3788444958236) scale(0.02490501044236066)"><ns0:metadata>
Created by potrace 1.16, written by Peter Selinger 2001-2019
</ns0:metadata>
<ns0:g transform="translate(0.000000,207.000000) scale(0.100000,-0.100000)" fill="#000000" stroke="none">
<ns0:path d="M978 1329 c-50 -28 -40 -85 19 -116 19 -10 43 -22 54 -28 37 -19 50 -68 48 -183 -1 -59 -5 -125 -10 -147 -4 -22 -11 -67 -14 -100 -4 -33 -16 -85 -28 -116 -19 -48 -29 -60 -66 -80 -51 -27 -84 -74 -71 -99 12 -22 54 -31 72 -15 7 6 38 19 70 28 63 19 64 20 100 157 34 129 47 230 48 365 2 186 -3 206 -63 271 -28 30 -59 54 -68 54 -10 0 -21 5 -24 10 -8 13 -45 12 -67 -1z" />
</ns0:g>
</g></svg>