<?xml version='1.0' encoding='utf-8'?>
<svg xmlns:ns0="http://www.w3.org/2000/svg" xmlns="http://www.w3.org/2000/svg" width="235" height="109" viewBox="0 0 235 109"><g transform="translate(-2.416626013049381,-46.244003191406875) scale(0.02243509205138274)"><ns0:metadata>
Created by potrace 1.16, written by Peter Selinger 2001-2019
</ns0:metadata>
<ns0:g transform="translate(0.000000,207.000000) scale(0.100000,-0.100000)" fill="#000000" stroke="none">
<ns0:path d="M1005 1768 c-11 -7 -26 -18 -33 -25 -7 -7 -16 -13 -20 -13 -4 0 -20 -13 -37 -28 -45 -41 -156 -132 -210 -172 -26 -19 -59 -47 -74 -61 -14 -14 -36 -31 -49 -38 -21 -11 -42 -38 -95 -121 l-22 -35 -7 40 c-4 22 -7 57 -7 78 -1 45 -26 87 -53 87 -10 0 -30 -7 -43 -16 -24 -16 -25 -21 -25 -123 0 -90 -10 -181 -47 -423 -3 -20 -3 -48 1 -62 18 -73 79 17 112 168 13 60 24 115 24 121 0 7 10 34 21 60 18 40 23 45 31 32 5 -10 12 -17 16 -17 13 0 52 31 131 105 96 90 248 216 280 233 23 12 24 11 18 -20 -29 -168 -41 -231 -54 -278 -8 -30 -25 -98 -38 -150 -32 -133 -83 -302 -117 -389 -30 -73 -28 -101 5 -88 17 6 87 108 87 125 0 6 6 15 13 19 31 20 87 206 167 563 39 171 49 209 65 240 7 14 13 36 14 50 2 65 3 126 2 138 -1 15 -29 15 -56 0z" />
<ns0:path d="M1334 1770 c-12 -5 -25 -14 -29 -21 -11 -17 -32 -143 -45 -271 -15 -157 -16 -162 -33 -258 -8 -47 -20 -98 -26 -113 -15 -39 -14 -77 2 -77 16 0 47 31 47 47 0 6 7 16 15 23 8 7 15 21 15 31 0 30 43 109 58 109 20 0 85 54 199 165 93 91 113 128 77 142 -22 8 -51 -8 -120 -64 -86 -69 -120 -90 -131 -79 -7 7 23 252 38 309 15 58 -11 80 -67 57z" />
<ns0:path d="M635 1302 c-34 -21 -49 -75 -60 -211 -7 -93 -70 -380 -95 -436 -11 -24 -28 -45 -40 -48 -17 -4 -19 -9 -10 -29 9 -19 7 -33 -12 -74 -29 -63 -113 -170 -139 -177 -27 -7 -26 -47 2 -47 49 0 126 63 205 168 8 12 19 10 65 -11 107 -49 122 -52 251 -53 l127 -2 28 29 c15 16 35 29 43 29 8 0 26 9 40 20 23 18 25 24 24 112 -1 83 -4 100 -32 159 -18 36 -32 80 -32 97 0 41 -16 41 -63 -2 -42 -39 -47 -70 -17 -109 32 -41 50 -104 50 -178 l0 -68 -56 -7 c-97 -12 -221 15 -293 63 -19 13 -38 23 -42 23 -17 0 -20 48 -6 77 8 15 29 85 45 153 28 113 39 170 72 378 6 34 19 77 29 95 34 61 -17 90 -84 49z" />
<ns0:path d="M1246 996 c-30 -27 -34 -66 -8 -89 23 -21 31 -21 70 -1 21 10 43 13 67 8 32 -6 35 -9 35 -39 0 -40 -20 -87 -60 -140 -16 -22 -34 -49 -40 -60 -6 -11 -25 -30 -43 -42 -18 -13 -69 -60 -115 -105 -90 -89 -96 -107 -50 -141 26 -20 26 -20 60 1 18 12 69 58 113 103 44 45 97 93 117 107 38 25 42 31 39 64 -1 10 10 38 24 63 30 50 55 133 55 183 0 52 -41 87 -121 101 -93 16 -115 14 -143 -13z" />
</ns0:g>
</g><g transform="translate(2.6905229010841367,11.042935093621793) scale(0.02243509205138274)"><ns0:metadata>
Created by potrace 1.16, written by Peter Selinger 2001-2019
</ns0:metadata>
<ns0:g transform="translate(0.000000,207.000000) scale(0.100000,-0.100000)" fill="#000000" stroke="none">
<ns0:path d="M1058 1644 c-33 -17 -31 -3 -32 -189 -1 -164 -6 -180 -58 -214 -45 -28 -85 -58 -154 -113 -32 -27 -63 -48 -68 -48 -8 0 -7 13 13 120 5 30 13 73 16 95 3 22 8 56 11 75 3 19 0 55 -6 80 -7 25 -14 63 -17 85 -3 22 -12 48 -21 58 -20 23 -67 22 -91 -2 -21 -21 -21 -38 1 -153 16 -84 14 -171 -5 -283 -16 -93 -28 -142 -78 -315 -11 -36 -24 -90 -29 -120 -5 -30 -14 -66 -19 -80 -5 -14 -19 -61 -31 -105 -12 -44 -33 -112 -46 -151 -13 -40 -29 -96 -34 -125 -12 -56 -25 -99 -42 -136 -14 -29 -4 -54 19 -46 31 11 45 27 65 73 11 25 26 58 33 75 8 16 24 59 35 95 12 36 26 70 30 75 12 15 45 117 70 223 23 92 23 92 44 74 12 -10 34 -24 49 -32 24 -12 31 -12 56 3 16 9 34 17 41 17 6 0 42 13 80 30 38 16 71 30 74 30 2 0 2 -123 0 -273 -5 -244 -4 -275 11 -287 25 -21 36 0 47 92 5 45 16 106 23 133 8 28 17 99 21 160 4 60 12 139 18 176 6 36 9 91 8 121 -3 50 -6 57 -28 62 -20 5 -35 -2 -68 -31 -62 -54 -142 -91 -211 -99 -33 -3 -75 -15 -92 -25 -33 -18 -33 -18 -33 4 0 12 5 39 11 60 8 29 14 37 27 33 23 -7 33 1 62 49 24 39 87 112 124 144 70 60 84 71 89 71 3 0 -3 -31 -14 -70 -23 -85 -23 -90 -1 -90 19 0 72 74 72 100 0 9 11 31 24 49 48 64 64 127 75 293 6 91 16 167 23 178 11 18 9 23 -17 45 -35 28 -41 29 -77 9z" />
</ns0:g>
</g><g transform="translate(1.6577566891408537,78.78377933963361) scale(0.02243509205138274)"><ns0:metadata>
Created by potrace 1.16, written by Peter Selinger 2001-2019
</ns0:metadata>
<ns0:g transform="translate(0.000000,211.000000) scale(0.100000,-0.100000)" fill="#000000" stroke="none">
<ns0:path d="M860 1784 c-25 -8 -52 -20 -61 -27 -15 -11 -28 -68 -45 -187 -19 -141 -105 -423 -157 -520 -42 -76 -57 -92 -82 -86 -32 8 -107 -34 -128 -71 -15 -27 -16 -36 -6 -55 18 -35 30 -39 84 -33 l50 6 25 -98 c26 -100 35 -276 17 -333 -12 -39 4 -53 51 -45 30 5 42 12 46 28 10 41 7 252 -4 327 -7 41 -13 96 -16 123 -2 26 -8 56 -13 66 -8 13 -4 26 16 54 22 31 32 37 63 37 49 0 67 20 46 53 -15 22 -15 26 14 65 17 23 35 42 40 42 5 0 32 22 59 50 50 50 143 129 240 202 42 32 55 38 63 27 5 -8 6 -82 3 -174 -3 -88 -8 -234 -11 -325 l-6 -165 -116 -17 c-65 -9 -119 -14 -120 -13 -6 5 31 65 39 65 4 0 10 8 14 19 3 10 17 31 30 46 14 14 35 45 46 67 12 23 32 53 45 67 29 31 46 88 42 139 -3 32 -7 37 -32 40 -29 4 -114 -28 -144 -53 -89 -75 -162 -155 -162 -177 0 -27 41 -78 62 -78 7 0 25 20 40 44 22 37 68 79 68 62 0 -13 -24 -56 -31 -56 -4 0 -10 -9 -14 -19 -3 -11 -15 -23 -26 -26 -10 -4 -19 -12 -19 -19 0 -6 -22 -34 -48 -62 -66 -67 -78 -90 -61 -120 14 -27 75 -48 117 -40 22 3 35 -4 71 -45 l44 -49 -22 -24 c-23 -25 -41 -33 -120 -57 -80 -24 -88 -75 -18 -116 93 -56 183 -70 305 -49 40 7 63 28 48 43 -3 3 -49 10 -103 14 -73 6 -101 13 -115 27 -18 17 -16 19 42 60 48 34 65 41 87 36 47 -11 127 -37 138 -44 6 -4 20 -4 33 1 17 6 22 17 24 46 3 58 2 68 -21 213 -15 92 -20 161 -17 215 22 374 18 652 -11 680 -25 25 -52 17 -106 -33 -29 -26 -65 -56 -82 -67 -16 -10 -34 -22 -40 -27 -5 -5 -35 -28 -65 -51 -58 -44 -60 -45 -124 -103 -21 -19 -40 -33 -41 -32 -6 6 65 274 80 304 8 18 15 38 15 46 1 29 29 91 48 104 25 17 37 61 21 80 -14 17 -31 17 -89 -2z m138 -796 c-2 -6 -10 -14 -16 -16 -7 -2 -10 2 -6 12 7 18 28 22 22 4z m122 -359 c0 -16 -56 -69 -73 -69 -17 0 -77 47 -77 60 0 9 38 16 108 18 24 1 42 -3 42 -9z m60 -94 c0 -9 -9 -15 -21 -15 -18 0 -19 2 -9 15 7 8 16 15 21 15 5 0 9 -7 9 -15z" />
</ns0:g>
</g><g transform="translate(-1.6536323570087461,136.40372696537224) scale(0.02243509205138274)"><ns0:metadata>
Created by potrace 1.16, written by Peter Selinger 2001-2019
</ns0:metadata>
<ns0:g transform="translate(0.000000,213.000000) scale(0.100000,-0.100000)" fill="#000000" stroke="none">
<ns0:path d="M1136 2037 c-16 -11 -22 -37 -32 -135 -20 -196 -23 -201 -204 -291 -119 -60 -148 -81 -160 -117 -8 -24 -6 -64 4 -64 0 0 16 -4 34 -10 30 -8 37 -6 60 18 33 33 186 123 190 111 2 -4 -19 -76 -47 -160 -28 -83 -51 -156 -51 -160 0 -5 -9 -28 -19 -52 -11 -23 -23 -53 -26 -67 -10 -35 -24 -50 -46 -50 -27 0 -45 -43 -32 -72 8 -17 6 -34 -7 -68 -14 -36 -88 -175 -139 -260 -14 -24 -80 -17 -145 16 -33 16 -61 36 -63 45 -3 9 -19 21 -36 26 -38 10 -36 -30 -18 428 12 317 14 350 30 474 10 71 10 86 -4 107 -12 18 -22 23 -46 20 -17 -2 -35 -8 -39 -12 -24 -24 -39 -135 -39 -289 0 -88 -2 -228 -5 -311 l-4 -152 -36 -48 c-20 -27 -49 -67 -66 -89 -171 -229 -190 -266 -190 -372 0 -76 0 -77 17 -53 9 14 19 27 22 30 17 15 61 88 61 101 0 13 15 33 110 151 17 20 30 41 30 46 0 5 9 12 21 15 21 6 21 4 15 -101 -4 -59 -11 -125 -17 -147 -10 -35 -27 -148 -28 -182 -1 -7 -7 -13 -14 -13 -36 0 -83 -244 -63 -324 6 -23 12 -26 46 -26 33 0 42 4 49 23 14 36 77 303 90 382 11 61 20 111 37 192 l4 22 61 -25 c33 -14 77 -26 97 -28 21 -2 43 -4 50 -5 6 0 12 -8 12 -15 0 -20 -104 -216 -157 -296 -70 -106 -76 -114 -97 -138 -24 -27 -10 -48 24 -37 31 10 105 79 150 140 58 79 110 154 110 160 0 2 15 28 34 57 18 29 44 78 57 108 13 30 52 109 88 175 35 66 73 137 83 158 18 35 21 37 53 31 61 -11 138 41 89 60 -9 3 -26 6 -39 6 -43 0 -45 26 -9 119 19 47 38 95 43 106 5 11 25 67 44 125 32 97 46 144 77 258 17 67 46 106 108 150 57 40 162 144 162 160 0 30 -30 19 -95 -34 -33 -26 -104 -64 -122 -64 -5 0 3 80 13 133 3 15 17 40 30 54 24 26 30 48 16 57 -5 3 -30 8 -58 11 -35 5 -54 2 -68 -8z" />
<ns0:path d="M1529 1635 c-33 -18 -45 -47 -64 -155 -9 -47 -29 -125 -45 -175 -16 -49 -41 -137 -56 -195 -38 -156 -39 -160 -64 -232 -13 -37 -21 -71 -17 -74 29 -29 153 224 231 471 32 99 69 211 83 249 20 52 24 75 17 95 -11 31 -46 38 -85 16z" />
<ns0:path d="M1218 1405 c-38 -19 -69 -117 -103 -327 -22 -128 -39 -188 -100 -343 -92 -231 -263 -553 -353 -665 -35 -44 -41 -56 -27 -58 22 -5 84 39 137 97 39 42 57 69 121 175 11 17 28 41 39 53 24 26 31 38 91 159 25 50 53 113 62 140 9 27 33 85 54 129 38 80 59 151 82 275 17 99 79 282 105 313 24 28 31 56 17 58 -35 6 -109 3 -125 -6z" />
<ns0:path d="M1030 390 c0 -54 111 -141 209 -164 35 -8 68 -21 72 -28 4 -7 26 -22 48 -33 234 -120 235 -120 354 -130 27 -2 59 -11 72 -19 28 -18 68 -21 96 -6 15 9 19 21 18 65 -1 30 -7 59 -13 64 -23 19 -78 22 -102 6 -20 -13 -32 -13 -111 1 -48 8 -101 24 -118 34 -16 11 -48 29 -70 40 -22 12 -53 30 -70 40 -43 27 -130 70 -143 70 -15 0 -83 31 -102 46 -22 19 -140 30 -140 14z m560 -270 c0 -5 -4 -10 -10 -10 -5 0 -10 5 -10 10 0 6 5 10 10 10 6 0 10 -4 10 -10z" />
</ns0:g>
</g><g transform="translate(0.27176355309711653,203.80703091339507) scale(0.02243509205138274)"><ns0:metadata>
Created by potrace 1.16, written by Peter Selinger 2001-2019
</ns0:metadata>
<ns0:g transform="translate(0.000000,206.000000) scale(0.100000,-0.100000)" fill="#000000" stroke="none">
<ns0:path d="M1372 2005 c-33 -30 -63 -55 -67 -55 -8 0 -113 -89 -169 -144 -21 -21 -58 -47 -81 -57 -23 -10 -47 -29 -53 -44 -6 -14 -16 -25 -22 -25 -20 0 -9 -39 16 -59 15 -12 30 -21 34 -21 28 0 211 151 250 206 8 12 29 28 46 37 17 9 63 47 102 85 59 57 72 76 72 101 0 29 -3 31 -34 31 -28 0 -46 -10 -94 -55z" />
<ns0:path d="M860 1917 c-23 -11 -25 -20 -31 -97 -7 -104 -21 -151 -75 -255 -49 -95 -156 -264 -201 -320 -119 -146 -135 -192 -47 -126 61 45 204 190 204 207 0 8 6 17 14 20 13 5 106 134 106 148 0 5 9 20 20 35 10 16 27 50 36 77 9 27 29 72 45 100 16 28 29 58 29 66 0 8 7 29 15 45 19 38 13 55 -30 87 -38 29 -49 31 -85 13z" />
<ns0:path d="M1416 1838 c-11 -6 -47 -38 -80 -72 -34 -34 -87 -85 -119 -113 -86 -77 -138 -150 -130 -182 8 -36 7 -35 74 -36 64 0 83 13 74 51 -2 11 3 31 12 45 23 34 65 79 75 79 4 0 8 -39 8 -88 l0 -87 -70 -55 c-57 -44 -91 -61 -178 -90 -89 -29 -108 -39 -110 -57 -2 -12 6 -31 18 -43 26 -26 52 -24 159 15 88 33 99 40 156 110 l25 30 -4 -50 c-2 -27 -4 -58 -5 -67 -1 -14 -10 -18 -40 -18 -21 0 -49 -8 -62 -18 -13 -10 -36 -23 -51 -30 -16 -6 -28 -16 -28 -21 0 -5 -17 -20 -37 -32 -21 -13 -66 -45 -99 -71 -34 -26 -65 -48 -69 -48 -3 0 -5 60 -3 133 2 101 7 140 21 166 9 19 17 45 17 58 0 22 -3 23 -50 20 -27 -2 -60 -11 -73 -20 -25 -16 -25 -17 -26 -196 -1 -108 -8 -223 -18 -288 -24 -158 -23 -168 7 -168 18 0 29 9 42 34 9 19 22 39 27 44 6 6 11 19 11 28 0 20 76 89 98 89 9 0 3 -13 -17 -39 -17 -21 -31 -44 -31 -51 0 -6 -11 -26 -23 -43 -13 -18 -36 -57 -51 -87 -16 -30 -34 -62 -41 -70 -6 -8 -19 -34 -28 -57 -9 -22 -33 -70 -55 -105 -21 -34 -53 -92 -71 -128 -18 -36 -43 -78 -56 -95 -12 -16 -32 -48 -43 -70 -12 -22 -36 -59 -53 -82 -30 -40 -32 -63 -5 -63 17 0 136 116 166 162 14 21 28 38 32 38 4 0 15 14 24 32 9 18 23 39 32 47 8 9 23 34 33 56 10 22 31 59 47 83 l29 43 21 -34 c18 -31 43 -49 162 -116 8 -4 16 -15 18 -23 3 -17 -118 -222 -155 -260 l-27 -28 48 0 c39 0 51 5 71 28 56 62 103 120 142 174 l42 56 68 -18 c37 -10 81 -23 97 -29 48 -19 161 -31 296 -32 l127 0 18 -39 c23 -52 40 -56 70 -16 20 27 25 44 25 94 0 55 -3 63 -25 78 -20 13 -28 14 -40 4 -15 -13 -217 -17 -310 -6 -85 10 -255 59 -266 78 -8 13 27 105 47 126 9 8 32 50 51 91 19 42 59 125 89 185 30 59 54 121 54 136 0 48 -30 59 -96 33 -15 -6 -16 -1 -10 43 19 127 25 188 30 299 4 66 9 174 12 240 3 66 11 126 17 133 5 7 11 52 11 100 1 92 -6 105 -48 80z m-111 -839 c-9 -57 -18 -111 -21 -120 -5 -19 -105 -96 -142 -110 -36 -14 -91 -79 -92 -110 0 -53 42 -63 102 -24 21 14 57 37 81 53 23 15 47 34 54 42 7 8 13 12 13 9 0 -12 -80 -180 -104 -217 -13 -20 -29 -54 -36 -75 -6 -20 -16 -37 -21 -37 -20 0 -74 33 -109 67 -41 39 -70 49 -98 34 -44 -23 -43 -6 2 62 19 29 42 70 52 92 10 22 33 60 51 84 18 24 33 47 33 51 0 36 226 328 242 312 4 -4 1 -55 -7 -113z m-175 -639 c0 -5 -2 -10 -4 -10 -3 0 -8 5 -11 10 -3 6 -1 10 4 10 6 0 11 -4 11 -10z m377 -106 c-3 -3 -12 -4 -19 -1 -8 3 -5 6 6 6 11 1 17 -2 13 -5z" />
</ns0:g>
</g><g transform="translate(-1.2837605297006576,264.9238002659043) scale(0.02243509205138274)"><ns0:metadata>
Created by potrace 1.16, written by Peter Selinger 2001-2019
</ns0:metadata>
<ns0:g transform="translate(0.000000,204.000000) scale(0.100000,-0.100000)" fill="#000000" stroke="none">
<ns0:path d="M1288 1914 c-27 -15 -48 -30 -48 -36 0 -5 -20 -18 -45 -29 -24 -11 -47 -24 -50 -29 -4 -6 -21 -16 -39 -24 -50 -21 -94 -69 -102 -112 -9 -48 4 -68 48 -72 32 -3 38 0 54 34 20 38 104 96 104 71 0 -6 -14 -59 -31 -117 -22 -76 -31 -128 -32 -190 l-2 -85 -40 -22 c-22 -12 -47 -22 -55 -22 -8 -1 -28 -8 -44 -16 -36 -19 -56 -6 -56 37 0 48 -31 171 -51 205 -26 42 -37 44 -81 20 -48 -26 -49 -51 -3 -104 19 -23 35 -51 35 -63 0 -11 6 -33 14 -48 7 -15 17 -47 21 -72 10 -59 20 -77 55 -95 27 -14 33 -14 60 0 44 23 50 19 50 -32 0 -27 5 -83 12 -127 12 -78 12 -79 -13 -97 -13 -11 -29 -23 -35 -28 -6 -5 -26 -17 -45 -26 -19 -10 -36 -21 -39 -24 -3 -3 -21 -18 -40 -32 -87 -64 -141 -97 -225 -138 -49 -24 -104 -50 -122 -59 -18 -9 -35 -13 -38 -10 -4 3 -9 32 -12 64 -14 158 -55 286 -120 372 -38 49 -40 59 -13 87 10 11 30 39 42 61 13 23 43 73 67 113 24 39 56 113 72 164 16 50 40 115 53 143 34 72 49 131 38 151 -5 9 -7 24 -5 34 7 24 -14 49 -39 49 -24 0 -68 -28 -68 -44 0 -39 -116 -343 -163 -426 -82 -147 -165 -300 -180 -333 -10 -20 -29 -48 -42 -62 -14 -13 -25 -35 -25 -48 0 -13 -16 -45 -36 -71 -27 -36 -40 -45 -55 -41 -17 6 -19 1 -19 -59 0 -40 4 -66 11 -66 20 0 165 146 207 210 24 36 46 67 48 69 9 9 46 -35 65 -78 40 -89 58 -167 66 -284 5 -65 6 -120 2 -123 -11 -6 -20 -70 -13 -88 4 -9 19 -23 33 -31 25 -12 32 -11 91 19 53 27 66 39 71 63 3 16 9 35 13 41 8 13 86 67 141 97 82 44 115 65 162 99 55 41 144 96 156 96 10 0 9 -18 -4 -62 -5 -21 -16 -38 -23 -38 -25 0 -76 -69 -76 -102 0 -35 -45 -172 -66 -203 -8 -11 -14 -26 -14 -33 0 -8 -8 -26 -19 -40 -10 -15 -24 -45 -31 -67 -6 -22 -28 -64 -47 -93 -31 -46 -34 -56 -25 -77 14 -31 45 -32 71 -4 57 62 69 78 85 119 10 25 27 61 37 80 11 19 31 61 45 92 15 32 31 58 35 58 14 0 10 -103 -6 -156 -19 -63 -19 -99 1 -118 19 -19 68 -21 82 -3 21 27 37 172 47 444 3 72 9 143 15 158 5 14 10 42 10 61 0 19 4 34 9 34 5 0 14 12 20 28 19 51 41 68 161 122 25 11 68 34 95 51 28 18 65 37 84 44 60 21 65 95 6 95 -30 0 -153 -45 -174 -64 -9 -8 -34 -23 -56 -32 -22 -9 -59 -30 -83 -46 -54 -37 -66 -27 -58 47 4 36 13 56 31 73 47 43 31 57 -60 56 l-80 -2 35 30 c19 16 58 42 86 59 29 16 55 36 58 45 7 18 -10 54 -25 54 -23 0 11 133 61 245 5 11 16 45 25 75 8 30 27 72 41 93 21 32 24 47 22 100 -4 73 -12 78 -80 41z" />
<ns0:path d="M1242 527 c-12 -13 -22 -28 -22 -34 0 -10 104 -53 128 -53 6 0 32 -7 58 -16 53 -18 144 -28 144 -15 0 4 11 7 25 6 13 -2 29 3 36 11 17 20 -3 40 -49 49 -20 4 -83 22 -138 41 -121 40 -153 42 -182 11z" />
</ns0:g>
</g><g transform="translate(-0.7860040454695536,329.72563026425644) scale(0.02243509205138274)"><ns0:metadata>
Created by potrace 1.16, written by Peter Selinger 2001-2019
</ns0:metadata>
<ns0:g transform="translate(0.000000,210.000000) scale(0.100000,-0.100000)" fill="#000000" stroke="none">
<ns0:path d="M1323 1891 c-9 -14 -27 -38 -41 -52 -19 -22 -22 -30 -12 -45 10 -18 -19 -82 -118 -259 -6 -11 -36 -67 -68 -125 -73 -136 -77 -139 -117 -130 -18 4 -43 6 -57 4 -57 -6 -178 -41 -219 -62 -53 -28 -62 -23 -27 15 14 15 28 35 31 44 3 9 17 22 30 29 14 7 25 19 25 26 0 8 11 21 24 30 48 31 97 152 83 205 -13 47 -24 54 -79 54 -194 -2 -260 -18 -266 -66 -3 -28 25 -60 54 -60 11 0 44 7 74 15 30 9 71 16 92 16 37 0 38 -1 32 -27 -8 -31 -30 -69 -53 -94 -9 -9 -63 -69 -120 -133 -58 -64 -107 -112 -111 -106 -3 5 -3 42 1 82 11 109 10 201 -2 237 -10 29 -15 32 -48 29 -56 -5 -65 -43 -63 -254 2 -130 -1 -187 -14 -240 -9 -38 -18 -87 -20 -109 -4 -49 -16 -116 -38 -213 -9 -40 -16 -97 -17 -125 -1 -132 -23 -176 -86 -177 -22 0 -33 -5 -33 -15 0 -19 31 -35 69 -35 37 0 37 0 16 -145 -8 -55 -15 -124 -15 -153 l0 -53 42 3 43 3 16 106 c9 59 22 155 29 213 13 104 13 106 49 132 39 29 66 53 112 97 15 16 33 26 38 23 14 -9 241 205 343 324 26 30 29 31 50 16 30 -21 55 -20 86 5 55 42 188 136 212 149 14 7 45 30 70 51 28 23 62 41 90 46 39 8 45 12 42 33 -4 42 -21 52 -71 45 -49 -7 -80 -20 -96 -41 -5 -6 -39 -27 -75 -45 -36 -18 -81 -45 -100 -61 -109 -89 -83 35 57 262 42 68 85 145 138 245 18 33 44 80 58 105 14 25 33 71 43 103 21 68 14 88 -35 98 -27 6 -34 3 -48 -20z m-373 -698 c0 -7 -69 -100 -120 -160 -19 -23 -50 -61 -68 -85 -143 -187 -214 -263 -284 -305 -29 -18 -61 -35 -70 -39 -30 -11 -26 32 34 350 l11 58 66 30 c143 65 147 67 215 112 41 28 216 59 216 39z" />
<ns0:path d="M1433 1696 c-29 -6 -59 -18 -68 -26 -21 -22 -34 -262 -15 -285 7 -8 16 -15 21 -15 12 0 49 75 49 98 0 39 34 118 61 144 31 28 40 82 17 90 -7 2 -37 0 -65 -6z" />
<ns0:path d="M1190 725 c-30 -7 -80 -20 -110 -29 -30 -9 -66 -16 -80 -16 -14 0 -47 -12 -75 -25 -27 -14 -55 -25 -61 -25 -7 0 -22 -8 -34 -18 -22 -18 -22 -19 -6 -45 10 -14 26 -29 35 -32 16 -5 275 78 348 112 17 8 44 13 60 11 36 -4 43 -40 14 -79 -12 -15 -21 -32 -21 -36 0 -29 -227 -253 -285 -282 -22 -11 -79 -36 -126 -56 -98 -41 -152 -84 -142 -112 3 -10 15 -28 26 -40 20 -22 30 -22 92 6 166 76 239 101 330 115 152 23 279 27 354 11 36 -8 88 -17 114 -20 42 -6 50 -10 59 -36 26 -75 128 -30 128 55 0 50 -10 61 -65 70 -266 40 -311 43 -450 36 -71 -4 -132 -5 -134 -3 -3 2 16 25 41 51 79 83 178 255 178 311 0 27 -29 60 -67 76 -41 17 -49 17 -123 0z m-125 -495 c3 -5 -1 -10 -10 -10 -9 0 -13 5 -10 10 3 6 8 10 10 10 2 0 7 -4 10 -10z" />
</ns0:g>
</g><g transform="translate(-0.6976482681665743,397.1237507780796) scale(0.02243509205138274)"><ns0:metadata>
Created by potrace 1.16, written by Peter Selinger 2001-2019
</ns0:metadata>
<ns0:g transform="translate(0.000000,212.000000) scale(0.100000,-0.100000)" fill="#000000" stroke="none">
<ns0:path d="M1463 1878 c-14 -7 -23 -23 -27 -47 -9 -50 -64 -176 -115 -261 -11 -19 -24 -42 -28 -50 -3 -8 -18 -33 -33 -55 -48 -72 -110 -177 -110 -187 0 -6 10 -26 21 -45 20 -32 25 -34 58 -28 40 7 166 66 255 120 55 33 106 53 106 43 0 -16 -23 -68 -30 -68 -5 0 -20 -24 -34 -54 -14 -30 -30 -56 -34 -58 -8 -3 -87 -115 -127 -182 -11 -18 -28 -45 -39 -59 -18 -26 -18 -27 1 -59 10 -18 30 -35 45 -39 35 -9 74 19 188 135 46 47 89 86 95 86 5 1 22 19 37 40 l28 40 -26 17 c-22 14 -31 15 -57 5 -17 -6 -32 -10 -34 -8 -3 2 14 40 36 84 33 64 41 90 41 133 -1 75 -16 92 -80 90 -32 0 -65 -9 -91 -23 -175 -97 -195 -100 -144 -26 14 20 25 43 25 51 0 7 13 34 29 59 16 25 50 90 76 144 25 55 55 116 66 137 29 54 19 77 -34 76 -23 0 -52 -5 -64 -11z" />
<ns0:path d="M737 1796 c-8 -8 -22 -39 -31 -68 -9 -29 -26 -71 -36 -93 -11 -22 -40 -85 -65 -139 -25 -55 -58 -120 -73 -145 -15 -25 -41 -77 -57 -116 -16 -38 -41 -88 -56 -110 -41 -61 -43 -79 -16 -111 29 -33 75 -35 113 -5 31 25 158 66 244 80 35 6 65 9 67 7 2 -2 -5 -23 -16 -47 -11 -24 -30 -71 -43 -104 -12 -33 -35 -78 -50 -99 -16 -21 -28 -47 -28 -56 0 -10 -7 -23 -15 -30 -23 -19 -105 -178 -105 -203 0 -18 10 -28 40 -42 46 -21 57 -15 96 47 13 20 60 64 105 98 101 78 189 166 189 191 0 27 -19 24 -76 -12 -92 -60 -114 -70 -114 -55 0 7 9 25 20 39 11 14 20 32 20 41 0 15 70 155 143 286 20 36 37 78 37 93 0 15 10 45 22 66 13 22 19 45 15 55 -6 15 -15 17 -74 11 -89 -10 -96 -16 -88 -81 4 -38 3 -54 -7 -60 -13 -9 -233 -63 -278 -69 -14 -2 -36 -7 -49 -11 -26 -8 -27 -11 16 59 34 55 180 341 214 421 28 66 36 120 21 141 -6 9 -56 35 -67 35 -2 0 -10 -6 -18 -14z" />
<ns0:path d="M1578 700 c-38 -11 -89 -30 -115 -44 -27 -14 -68 -30 -93 -37 -25 -6 -47 -14 -50 -18 -3 -3 -57 -32 -120 -64 -124 -62 -190 -99 -232 -128 -14 -11 -29 -19 -32 -19 -19 0 -159 -105 -168 -126 -6 -13 -15 -24 -19 -24 -13 0 -21 -60 -10 -74 18 -22 58 -24 86 -6 14 9 47 37 73 62 58 55 197 148 283 188 69 32 141 71 161 87 7 6 27 13 43 17 17 4 52 18 78 32 65 32 155 58 195 55 37 -2 44 8 46 72 1 40 0 42 -29 43 -16 1 -60 -6 -97 -16z" />
</ns0:g>
</g><g transform="translate(-2.869621349004774,476.5399900591667) scale(0.02243509205138274)"><ns0:metadata>
Created by potrace 1.16, written by Peter Selinger 2001-2019
</ns0:metadata>
<ns0:g transform="translate(0.000000,210.000000) scale(0.100000,-0.100000)" fill="#000000" stroke="none">
<ns0:path d="M756 1009 c-35 -51 -5 -121 57 -133 20 -4 50 0 74 8 37 13 223 15 348 4 l30 -3 -2 63 c-1 35 -3 65 -5 67 -2 1 -112 6 -244 10 l-242 7 -16 -23z" />
</ns0:g>
</g><g transform="translate(0.8381186089278003,524.5977210006312) scale(0.02243509205138274)"><ns0:metadata>
Created by potrace 1.16, written by Peter Selinger 2001-2019
</ns0:metadata>
<ns0:g transform="translate(0.000000,211.000000) scale(0.100000,-0.100000)" fill="#000000" stroke="none">
<ns0:path d="M1000 1304 c-24 -13 -47 -28 -50 -32 -3 -5 -19 -14 -37 -21 -92 -37 -247 -202 -299 -318 -22 -48 -23 -57 -12 -110 12 -58 58 -129 117 -177 14 -11 39 -34 56 -51 17 -16 50 -41 73 -55 23 -14 42 -28 42 -31 0 -7 -79 -59 -90 -59 -4 0 -13 -7 -20 -15 -15 -18 -213 -119 -295 -150 -35 -13 -84 -27 -109 -30 -26 -4 -49 -12 -52 -17 -11 -17 15 -25 59 -18 23 4 76 13 117 20 84 14 194 56 353 136 38 19 76 34 85 34 9 1 40 13 67 29 45 24 50 31 53 65 4 41 -18 76 -47 76 -70 0 -281 181 -295 252 -11 58 26 127 123 231 51 54 134 107 167 107 7 0 34 15 58 33 36 26 45 38 45 64 1 17 -2 38 -5 47 -9 23 -51 19 -104 -10z" />
</ns0:g>
</g><g transform="translate(-2.612129315983168,591.7575994601523) scale(0.02243509205138274)"><ns0:metadata>
Created by potrace 1.16, written by Peter Selinger 2001-2019
</ns0:metadata>
<ns0:g transform="translate(0.000000,208.000000) scale(0.100000,-0.100000)" fill="#000000" stroke="none">
<ns0:path d="M1251 1682 c-5 -10 -17 -51 -27 -92 -10 -41 -40 -129 -66 -195 -27 -66 -56 -141 -64 -168 -8 -26 -28 -72 -44 -101 -17 -30 -30 -61 -30 -69 0 -14 -23 -68 -85 -202 -18 -38 -36 -79 -39 -89 -13 -38 -26 1 -41 119 -9 66 -20 152 -26 190 -5 39 -9 126 -7 195 3 148 -9 266 -29 297 -24 36 -68 31 -93 -9 -11 -18 -20 -41 -20 -50 0 -13 -8 -18 -32 -18 -50 -1 -87 -37 -94 -90 -7 -54 -39 -159 -66 -219 -10 -24 -28 -64 -38 -90 -10 -25 -30 -69 -44 -97 -14 -29 -26 -56 -26 -60 0 -5 -9 -27 -20 -49 -10 -22 -27 -67 -35 -100 -9 -33 -20 -67 -25 -75 -4 -9 -11 -35 -15 -59 -6 -36 -4 -46 16 -67 39 -42 78 -28 107 39 7 15 12 40 12 54 0 14 17 67 38 117 49 116 54 129 57 142 4 18 102 195 137 248 46 69 58 70 58 4 0 -30 11 -124 24 -209 13 -85 29 -208 36 -274 13 -145 43 -250 76 -272 40 -26 58 1 98 143 14 50 32 104 41 120 8 16 15 36 15 45 0 8 11 39 25 67 14 29 25 56 25 62 0 6 4 18 9 28 5 9 44 100 86 202 75 180 90 209 99 199 9 -9 45 -184 51 -249 14 -139 34 -259 59 -347 14 -51 26 -105 26 -121 0 -15 6 -51 14 -78 8 -27 17 -70 21 -96 12 -87 94 -117 152 -56 39 40 49 76 30 102 -14 19 -16 19 -41 3 l-26 -17 -15 37 c-9 21 -27 90 -40 153 -13 63 -31 147 -39 185 -8 39 -22 129 -31 200 -9 72 -25 177 -35 235 -11 58 -21 157 -24 220 -6 135 -15 200 -29 218 -14 18 -55 15 -66 -6z" />
</ns0:g>
</g><g transform="translate(-0.8471615381411652,656.1226502434715) scale(0.02243509205138274)"><ns0:metadata>
Created by potrace 1.16, written by Peter Selinger 2001-2019
</ns0:metadata>
<ns0:g transform="translate(0.000000,207.000000) scale(0.100000,-0.100000)" fill="#000000" stroke="none">
<ns0:path d="M1000 1675 c-93 -16 -105 -21 -124 -50 -8 -13 -31 -28 -51 -35 -19 -6 -40 -20 -45 -30 -12 -22 -12 -171 0 -290 17 -170 31 -612 20 -645 -12 -37 -80 -108 -80 -83 0 8 7 21 15 28 19 16 20 60 1 60 -14 0 -87 -74 -105 -107 -27 -52 -42 -113 -31 -133 26 -48 85 -53 132 -9 18 16 46 40 61 52 73 58 225 278 259 377 11 30 35 88 54 128 19 41 34 77 34 81 0 3 9 23 20 44 11 21 31 81 45 135 62 249 61 392 -6 463 -31 34 -70 36 -199 14z m140 -95 c27 -17 19 -196 -14 -310 -15 -52 -31 -108 -35 -125 -5 -16 -26 -66 -48 -110 -22 -44 -45 -98 -52 -120 -19 -61 -64 -149 -79 -153 -11 -4 -13 47 -8 284 7 349 6 333 18 415 8 57 14 69 39 88 17 13 33 21 35 18 2 -2 30 2 62 8 31 7 59 13 62 14 3 0 12 -4 20 -9z" />
</ns0:g>
</g><g transform="translate(-2.0211784866999096,731.3395421771933) scale(0.02243509205138274)"><ns0:metadata>
Created by potrace 1.16, written by Peter Selinger 2001-2019
</ns0:metadata>
<ns0:g transform="translate(0.000000,210.000000) scale(0.100000,-0.100000)" fill="#000000" stroke="none">
<ns0:path d="M653 1020 c-13 -5 -23 -14 -23 -20 0 -20 28 -77 41 -86 33 -21 442 -56 487 -42 41 12 41 33 1 85 -28 36 -35 40 -59 33 -52 -15 -181 -3 -337 31 -51 11 -81 11 -110 -1z" />
</ns0:g>
</g><g transform="translate(0.5219060218274194,791.616895978433) scale(0.02243509205138274)"><ns0:metadata>
Created by potrace 1.16, written by Peter Selinger 2001-2019
</ns0:metadata>
<ns0:g transform="translate(0.000000,207.000000) scale(0.100000,-0.100000)" fill="#000000" stroke="none">
<ns0:path d="M840 1478 c-39 -43 -12 -98 50 -98 40 0 51 -12 44 -49 -7 -32 -82 -116 -148 -166 -44 -33 -56 -46 -56 -59 0 -29 34 -41 129 -46 108 -6 110 -8 91 -79 -16 -59 -120 -179 -186 -215 -48 -26 -54 -32 -54 -61 0 -27 5 -34 25 -39 31 -8 90 16 104 42 6 12 21 24 33 28 41 13 96 65 139 131 36 57 43 75 47 135 6 93 -5 111 -79 135 -62 19 -74 37 -36 54 12 6 38 36 57 67 27 45 34 68 35 108 0 62 -20 89 -79 106 -23 6 -45 15 -50 20 -17 14 -45 9 -66 -14z" />
</ns0:g>
</g><g transform="translate(-2.924951228683824,854.1629367704439) scale(0.02243509205138274)"><ns0:metadata>
Created by potrace 1.16, written by Peter Selinger 2001-2019
</ns0:metadata>
<ns0:g transform="translate(0.000000,206.000000) scale(0.100000,-0.100000)" fill="#000000" stroke="none">
<ns0:path d="M988 1436 c-15 -8 -48 -14 -74 -14 -25 0 -51 -5 -56 -10 -6 -6 -17 -59 -24 -119 -8 -59 -23 -135 -34 -168 -22 -70 -41 -285 -30 -341 10 -50 18 -70 48 -118 23 -38 25 -38 73 -34 40 4 61 15 121 61 115 88 187 166 238 261 20 35 21 45 12 115 -20 149 -54 229 -119 275 -24 16 -45 37 -48 45 -4 13 -66 61 -77 61 -2 0 -15 -6 -30 -14z m39 -113 c65 -64 93 -107 117 -180 14 -43 26 -89 26 -102 0 -54 -117 -195 -204 -246 -90 -52 -106 -14 -76 175 12 74 23 146 25 160 8 53 33 142 44 153 6 6 11 21 11 32 0 43 19 45 57 8z" />
</ns0:g>
</g><g transform="translate(-1.5840428634226669,919.9130417068902) scale(0.02243509205138274)"><ns0:metadata>
Created by potrace 1.16, written by Peter Selinger 2001-2019
</ns0:metadata>
<ns0:g transform="translate(0.000000,211.000000) scale(0.100000,-0.100000)" fill="#000000" stroke="none">
<ns0:path d="M1257 1463 c-6 -16 -14 -30 -17 -33 -5 -5 -39 -56 -82 -125 -13 -22 -37 -67 -52 -100 -16 -33 -36 -78 -47 -100 -10 -22 -26 -65 -34 -97 -20 -71 -37 -88 -54 -52 -6 15 -9 35 -6 45 16 51 -64 285 -122 356 -41 50 -56 57 -100 42 -37 -12 -54 -49 -33 -74 17 -20 80 -146 80 -159 1 -6 9 -29 20 -51 11 -22 19 -49 20 -60 0 -12 4 -25 8 -30 5 -6 14 -35 21 -65 21 -95 32 -134 47 -160 8 -14 20 -37 25 -53 6 -15 21 -30 34 -33 31 -8 65 12 65 37 0 10 11 37 25 59 28 45 46 89 70 175 20 69 44 132 87 225 17 36 35 76 40 90 6 14 14 32 19 40 5 8 11 20 12 25 40 119 40 125 6 125 -12 0 -24 -11 -32 -27z" />
</ns0:g>
</g><g transform="translate(1.1080574072468607,989.0879275937014) scale(0.02243509205138274)"><ns0:metadata>
Created by potrace 1.16, written by Peter Selinger 2001-2019
</ns0:metadata>
<ns0:g transform="translate(0.000000,210.000000) scale(0.100000,-0.100000)" fill="#000000" stroke="none">
<ns0:path d="M935 1134 c-55 -7 -128 -13 -163 -12 -53 1 -66 -2 -87 -22 -35 -33 -32 -66 8 -90 18 -12 41 -18 52 -15 11 3 70 13 130 21 91 12 121 13 173 3 68 -14 107 -6 126 24 16 24 -2 48 -55 73 -66 32 -76 33 -184 18z" />
</ns0:g>
</g><g transform="translate(-0.03702012573501179,1043.800041240445) scale(0.02243509205138274)"><ns0:metadata>
Created by potrace 1.16, written by Peter Selinger 2001-2019
</ns0:metadata>
<ns0:g transform="translate(0.000000,208.000000) scale(0.100000,-0.100000)" fill="#000000" stroke="none">
<ns0:path d="M871 1322 c-20 -20 -30 -42 -35 -79 -6 -47 -4 -56 21 -92 21 -30 35 -40 56 -41 21 0 30 -7 38 -27 16 -41 2 -130 -28 -183 -14 -25 -34 -61 -44 -80 -22 -44 -86 -106 -164 -158 -67 -45 -108 -93 -99 -117 3 -8 22 -22 41 -31 32 -16 35 -16 56 2 33 28 60 42 140 71 39 14 81 31 92 38 24 15 105 38 199 56 66 13 89 30 69 50 -16 16 -201 12 -255 -4 -39 -12 -48 -12 -48 -2 0 13 51 96 89 146 30 38 38 65 45 149 5 53 3 91 -7 130 -21 76 -26 88 -64 148 -38 61 -61 66 -102 24z" />
</ns0:g>
</g><g transform="translate(0.01582467883673644,1107.192522562368) scale(0.02243509205138274)"><ns0:metadata>
Created by potrace 1.16, written by Peter Selinger 2001-2019
</ns0:metadata>
<ns0:g transform="translate(0.000000,206.000000) scale(0.100000,-0.100000)" fill="#000000" stroke="none">
<ns0:path d="M832 1494 c-13 -9 -22 -26 -22 -40 0 -26 -5 -26 -57 -7 -25 10 -43 -44 -53 -157 -5 -63 -17 -158 -26 -210 -37 -223 -43 -284 -33 -329 21 -93 91 -146 174 -130 49 9 156 79 198 129 52 61 65 320 25 491 -12 52 -21 118 -20 148 2 72 -9 88 -63 97 -25 3 -45 10 -45 15 0 15 -54 10 -78 -7z m63 -98 c10 4 15 0 15 -15 0 -12 12 -79 28 -149 30 -141 34 -248 13 -350 -12 -53 -20 -67 -52 -93 -48 -38 -101 -54 -129 -39 -17 9 -20 20 -19 73 0 61 3 81 32 247 8 47 20 137 27 200 14 145 13 142 45 130 13 -5 32 -7 40 -4z" />
</ns0:g>
</g><g transform="translate(-0.6259564379115545,1173.8529076304192) scale(0.02243509205138274)"><ns0:metadata>
Created by potrace 1.16, written by Peter Selinger 2001-2019
</ns0:metadata>
<ns0:g transform="translate(0.000000,206.000000) scale(0.100000,-0.100000)" fill="#000000" stroke="none">
<ns0:path d="M1020 1511 c-17 -5 -26 -16 -30 -36 -3 -18 -15 -34 -28 -41 -44 -22 -55 -57 -90 -299 -21 -148 -20 -340 3 -365 8 -9 15 -26 15 -39 0 -12 6 -37 14 -56 19 -46 54 -54 109 -27 23 11 65 24 92 27 62 9 71 16 102 80 79 163 90 203 94 340 6 233 -3 325 -33 325 -6 0 -27 14 -49 31 -21 16 -55 33 -76 36 -21 3 -47 12 -58 19 -21 15 -27 16 -65 5z m115 -114 c60 -34 66 -55 66 -225 0 -142 -11 -210 -40 -246 -5 -6 -14 -29 -21 -50 -19 -58 -62 -96 -109 -96 -37 0 -39 1 -55 53 -17 53 -16 54 18 213 19 87 40 180 46 206 7 26 9 56 5 67 -3 10 -1 22 5 26 5 3 10 22 10 41 0 41 17 44 75 11z" />
</ns0:g>
</g><g transform="translate(-1.4571916503709872,1237.7563978058233) scale(0.02243509205138274)"><ns0:metadata>
Created by potrace 1.16, written by Peter Selinger 2001-2019
</ns0:metadata>
<ns0:g transform="translate(0.000000,211.000000) scale(0.100000,-0.100000)" fill="#000000" stroke="none">
<ns0:path d="M1073 1360 c-12 -5 -29 -22 -37 -38 -22 -43 -66 -173 -61 -182 8 -14 -34 -163 -65 -227 -21 -44 -30 -73 -26 -89 7 -28 49 -48 81 -40 24 7 65 67 65 95 0 28 78 175 106 202 l24 22 0 -126 c0 -138 9 -172 48 -182 28 -7 67 22 75 58 10 41 32 92 66 152 52 92 122 197 128 192 3 -3 -7 -63 -21 -134 -34 -171 -40 -375 -12 -415 14 -22 22 -26 36 -18 26 14 29 28 41 189 5 80 16 167 24 193 18 63 40 277 31 311 -8 34 -44 44 -83 24 -40 -21 -117 -105 -144 -158 -30 -60 -69 -110 -81 -103 -5 3 -8 27 -7 52 1 26 -2 71 -6 100 -6 43 -13 56 -32 65 -17 8 -27 7 -35 -1 -20 -20 -35 -14 -43 15 -12 51 -29 60 -72 43z" />
</ns0:g>
</g><g transform="translate(-0.6867425631254491,1296.627205014313) scale(0.02243509205138274)"><ns0:metadata>
Created by potrace 1.16, written by Peter Selinger 2001-2019
</ns0:metadata>
<ns0:g transform="translate(0.000000,206.000000) scale(0.100000,-0.100000)" fill="#000000" stroke="none">
<ns0:path d="M991 1674 c-61 -26 -70 -43 -136 -279 -9 -33 -25 -85 -35 -115 -10 -30 -33 -109 -51 -175 -18 -66 -43 -135 -55 -154 -16 -23 -21 -43 -17 -65 3 -20 -4 -51 -21 -89 -14 -32 -26 -64 -26 -71 0 -8 -12 -37 -27 -66 -21 -41 -25 -56 -17 -78 12 -34 40 -38 81 -13 31 20 52 67 56 125 0 11 11 40 24 63 13 23 23 48 23 56 0 33 36 58 105 74 39 8 79 22 90 29 11 8 25 14 33 14 7 0 18 4 25 10 76 61 72 56 51 68 -15 8 -40 6 -99 -8 -84 -20 -145 -25 -145 -12 0 20 39 161 49 181 16 29 41 111 41 134 0 9 9 39 21 65 50 113 52 114 69 40 7 -29 21 -64 31 -77 11 -13 19 -31 19 -39 0 -9 9 -41 19 -71 53 -155 100 -346 101 -404 0 -21 4 -46 10 -56 5 -10 12 -54 16 -98 6 -67 4 -84 -11 -107 -17 -25 -17 -27 0 -46 26 -28 56 -25 87 11 30 33 31 51 9 202 -6 42 -16 112 -22 154 -16 113 -130 516 -175 622 -14 31 -17 33 -50 28 -29 -5 -35 -3 -32 11 2 10 14 18 30 20 22 3 27 9 33 43 8 45 -2 63 -44 77 -20 7 -37 6 -60 -4z" />
</ns0:g>
</g><g transform="translate(-1.0070815898872638,1369.4049774877803) scale(0.02243509205138274)"><ns0:metadata>
Created by potrace 1.16, written by Peter Selinger 2001-2019
</ns0:metadata>
<ns0:g transform="translate(0.000000,210.000000) scale(0.100000,-0.100000)" fill="#000000" stroke="none">
<ns0:path d="M653 1020 c-13 -5 -23 -14 -23 -20 0 -20 28 -77 41 -86 33 -21 442 -56 487 -42 41 12 41 33 1 85 -28 36 -35 40 -59 33 -52 -15 -181 -3 -337 31 -51 11 -81 11 -110 -1z" />
</ns0:g>
</g><g transform="translate(2.9429098905806654,1427.9294830249285) scale(0.02243509205138274)"><ns0:metadata>
Created by potrace 1.16, written by Peter Selinger 2001-2019
</ns0:metadata>
<ns0:g transform="translate(0.000000,206.000000) scale(0.100000,-0.100000)" fill="#000000" stroke="none">
<ns0:path d="M1261 1449 c-32 -26 -41 -81 -47 -284 -2 -88 -10 -214 -18 -280 -7 -66 -9 -130 -5 -141 4 -12 5 -31 3 -41 -3 -11 1 -25 10 -32 12 -10 20 -7 45 16 27 24 32 37 37 93 9 116 36 284 51 327 10 28 13 60 10 95 -4 29 -3 83 1 121 9 75 -3 118 -37 136 -25 14 -21 14 -50 -10z" />
</ns0:g>
</g><g transform="translate(1.3345122478710323,1488.180944675902) scale(0.02243509205138274)"><ns0:metadata>
Created by potrace 1.16, written by Peter Selinger 2001-2019
</ns0:metadata>
<ns0:g transform="translate(0.000000,207.000000) scale(0.100000,-0.100000)" fill="#000000" stroke="none">
<ns0:path d="M1467 1412 c-10 -10 -17 -21 -17 -24 0 -10 49 -15 53 -5 2 6 11 6 25 -2 18 -10 22 -9 22 3 0 9 -13 22 -30 31 -36 19 -34 19 -53 -3z" />
<ns0:path d="M840 1261 c0 -6 -7 -11 -15 -11 -31 0 -31 -92 0 -104 9 -3 35 1 58 9 99 34 165 7 152 -63 -21 -114 -213 -390 -300 -431 -44 -21 -115 -92 -115 -115 0 -39 85 -61 111 -29 8 9 42 28 75 44 34 15 65 32 68 38 4 6 20 11 35 11 16 0 46 6 67 14 22 7 81 17 132 21 70 5 95 11 99 23 4 8 -1 20 -11 27 -22 16 -181 27 -229 16 -51 -12 -55 2 -14 52 19 23 37 52 41 64 4 12 21 33 37 47 31 26 81 125 94 184 19 90 -25 182 -96 196 -68 14 -189 19 -189 7z" />
</ns0:g>
</g><g transform="translate(1.2509391884658498,1554.4645520705253) scale(0.02243509205138274)"><ns0:metadata>
Created by potrace 1.16, written by Peter Selinger 2001-2019
</ns0:metadata>
<ns0:g transform="translate(0.000000,206.000000) scale(0.100000,-0.100000)" fill="#000000" stroke="none">
<ns0:path d="M832 1494 c-13 -9 -22 -26 -22 -40 0 -26 -5 -26 -57 -7 -25 10 -43 -44 -53 -157 -5 -63 -17 -158 -26 -210 -37 -223 -43 -284 -33 -329 21 -93 91 -146 174 -130 49 9 156 79 198 129 52 61 65 320 25 491 -12 52 -21 118 -20 148 2 72 -9 88 -63 97 -25 3 -45 10 -45 15 0 15 -54 10 -78 -7z m63 -98 c10 4 15 0 15 -15 0 -12 12 -79 28 -149 30 -141 34 -248 13 -350 -12 -53 -20 -67 -52 -93 -48 -38 -101 -54 -129 -39 -17 9 -20 20 -19 73 0 61 3 81 32 247 8 47 20 137 27 200 14 145 13 142 45 130 13 -5 32 -7 40 -4z" />
</ns0:g>
</g><g transform="translate(-1.6500754780373086,1617.2000205499999) scale(0.02243509205138274)"><ns0:metadata>
Created by potrace 1.16, written by Peter Selinger 2001-2019
</ns0:metadata>
<ns0:g transform="translate(0.000000,213.000000) scale(0.100000,-0.100000)" fill="#000000" stroke="none">
<ns0:path d="M1097 1492 c-10 -10 -17 -22 -17 -26 0 -5 -6 -22 -14 -39 -8 -18 -24 -61 -35 -97 -26 -84 -40 -126 -61 -175 -10 -22 -21 -51 -25 -65 -4 -14 -20 -53 -36 -86 -20 -45 -34 -63 -52 -68 -31 -7 -44 -36 -23 -52 20 -14 20 -32 0 -101 -33 -113 -3 -192 93 -247 l63 -36 37 19 c118 61 197 312 132 418 -21 34 -33 40 -44 23 -4 -7 -12 -7 -25 0 -10 5 -28 10 -40 10 -28 0 -34 22 -17 62 8 18 24 60 36 93 12 33 28 74 36 90 7 17 21 52 31 78 9 26 21 50 25 53 5 3 9 16 9 28 0 13 9 35 20 49 28 35 26 65 -6 77 -38 15 -69 12 -87 -8z m-13 -618 c9 -8 16 -25 16 -37 -1 -31 -53 -145 -86 -186 l-27 -34 -29 32 c-31 35 -32 61 -7 151 25 87 28 90 74 90 26 0 50 -6 59 -16z" />
</ns0:g>
</g></svg>