<?xml version='1.0' encoding='utf-8'?>
<svg xmlns:ns0="http://www.w3.org/2000/svg" xmlns="http://www.w3.org/2000/svg" width="235" height="136" viewBox="0 0 235 136"><g transform="translate(-0.5783712525961278,-133.14356070442648) scale(0.05739972241727762)"><ns0:metadata>
Created by potrace 1.16, written by Peter Selinger 2001-2019
</ns0:metadata>
<ns0:g transform="translate(0.000000,209.000000) scale(0.100000,-0.100000)" fill="#000000" stroke="none">
<ns0:path d="M1505 1958 c-11 -6 -24 -17 -28 -25 -4 -7 -14 -13 -22 -13 -7 0 -31 -15 -54 -32 -22 -18 -70 -55 -107 -83 -36 -27 -78 -62 -93 -77 -26 -25 -45 -38 -131 -88 -80 -46 -124 -87 -156 -145 l-34 -60 5 -110 c10 -221 12 -228 64 -240 21 -4 43 3 90 31 33 20 61 40 61 44 0 5 24 24 53 43 30 20 58 42 63 49 21 28 32 65 23 79 -7 12 -14 11 -46 -5 -21 -11 -52 -30 -70 -43 -17 -13 -35 -23 -39 -23 -4 0 -27 -10 -51 -21 -24 -12 -46 -19 -49 -16 -3 3 -5 40 -6 82 0 71 2 80 33 123 37 51 85 102 97 102 5 0 21 13 38 28 16 16 56 51 89 79 33 27 87 76 119 107 33 31 66 56 74 56 18 0 13 -63 -18 -250 -12 -69 -26 -163 -31 -210 -16 -152 -26 -186 -72 -234 -23 -23 -67 -60 -97 -81 -64 -44 -123 -93 -186 -154 -56 -54 -73 -46 -57 26 6 26 9 51 7 55 -12 20 -62 6 -97 -26 -31 -28 -37 -40 -37 -74 0 -22 5 -53 10 -68 12 -31 14 -399 3 -458 -5 -21 -15 -42 -23 -46 -41 -21 -89 -39 -125 -48 -169 -43 -217 -63 -229 -96 -8 -20 -6 -30 9 -46 32 -36 59 -30 355 74 97 35 134 46 148 46 6 0 34 13 62 30 28 16 83 44 123 60 39 17 83 42 97 55 14 12 52 37 85 55 60 31 60 31 74 11 22 -34 65 -27 106 16 19 21 35 43 35 50 0 15 58 63 77 63 8 0 27 6 41 14 15 7 41 20 57 28 17 8 50 18 75 22 24 4 49 10 55 15 5 4 57 22 115 40 163 52 150 43 150 101 0 27 -4 50 -10 50 -5 0 -62 -18 -127 -41 -65 -23 -154 -50 -198 -61 -44 -11 -96 -28 -115 -38 -19 -10 -47 -20 -62 -24 l-28 -6 0 72 c0 71 44 440 54 456 3 5 10 37 15 72 9 54 8 68 -5 88 -24 36 -61 20 -177 -74 -9 -8 -19 -14 -22 -14 -9 0 -5 49 5 55 6 3 10 23 10 43 0 20 7 62 15 92 8 30 15 73 15 95 0 22 7 69 15 105 32 141 55 267 55 298 0 28 -3 32 -27 32 -16 0 -37 -6 -48 -12z m16 -958 c-6 -47 -16 -156 -21 -243 -8 -152 -17 -187 -44 -187 -6 0 -47 -18 -91 -40 -44 -22 -81 -40 -84 -40 -2 0 0 28 4 63 4 34 9 85 10 112 1 28 7 60 13 72 7 12 12 50 12 85 0 35 5 80 11 101 8 29 7 42 -3 54 -10 13 -8 18 12 35 14 11 45 37 70 59 25 21 61 52 80 68 l35 30 3 -42 c2 -23 -1 -80 -7 -127z m-394 -236 c14 -113 32 -144 81 -144 l25 0 -7 -87 c-8 -98 -15 -108 -93 -138 -24 -9 -43 -20 -43 -25 0 -9 -61 -34 -109 -45 l-34 -7 8 53 c4 30 9 129 10 222 1 92 4 170 7 172 3 3 19 0 36 -6 27 -9 37 -8 65 10 37 24 51 22 54 -5z" />
<ns0:path d="M1278 1551 c-20 -10 -51 -29 -70 -42 -18 -13 -62 -31 -98 -39 -75 -17 -88 -40 -49 -84 28 -32 31 -32 99 2 74 36 145 95 160 133 17 41 3 51 -42 30z" />
<ns0:path d="M542 1278 c-30 -19 -33 -24 -27 -52 4 -17 10 -67 13 -111 9 -100 22 -103 68 -16 19 35 43 71 54 78 29 21 25 56 -12 92 -37 36 -50 37 -96 9z" />
<ns0:path d="M456 791 c-16 -3 -38 -18 -48 -32 -20 -26 -20 -27 2 -75 52 -115 83 -228 86 -313 3 -91 18 -121 59 -121 34 0 42 17 54 110 16 130 28 188 45 222 18 35 21 74 7 83 -11 6 -61 -44 -61 -61 0 -6 -6 -17 -14 -23 -22 -19 -69 97 -64 162 3 57 -4 62 -66 48z" />
</ns0:g>
</g><g transform="translate(2.6141669069635896,28.881354305101723) scale(0.05739972241727762)"><ns0:metadata>
Created by potrace 1.16, written by Peter Selinger 2001-2019
</ns0:metadata>
<ns0:g transform="translate(0.000000,207.000000) scale(0.100000,-0.100000)" fill="#000000" stroke="none">
<ns0:path d="M1291 2024 c-30 -25 -75 -57 -100 -71 -25 -14 -50 -31 -56 -37 -10 -11 -119 -95 -142 -109 -6 -4 -19 7 -32 29 -38 64 -134 79 -181 29 -17 -18 -19 -27 -11 -48 6 -14 22 -33 36 -43 21 -14 30 -14 54 -4 32 13 51 7 51 -15 0 -14 -65 -59 -156 -109 -34 -18 -55 -37 -58 -52 -4 -13 -16 -29 -29 -35 -30 -16 -33 -22 -36 -73 -1 -36 3 -49 24 -70 14 -14 32 -26 40 -26 19 0 55 40 55 60 0 9 11 27 25 40 31 29 31 26 -1 -85 -36 -127 -53 -191 -70 -264 -8 -36 -18 -69 -23 -75 -5 -6 -25 -56 -45 -110 -21 -55 -54 -136 -76 -180 -69 -147 -129 -290 -156 -376 -23 -76 -43 -134 -86 -250 -7 -19 -29 -61 -49 -93 -35 -52 -36 -57 -17 -57 18 0 37 17 103 90 19 21 84 173 91 212 7 35 33 94 65 143 22 36 22 34 49 109 11 33 29 71 39 85 26 36 118 230 127 266 4 16 20 57 35 90 15 33 43 119 64 190 20 72 45 159 56 195 11 36 24 81 30 100 6 19 14 44 19 55 5 11 11 32 14 47 8 34 167 194 270 272 41 31 77 56 81 56 7 0 18 11 122 110 l51 50 -61 0 c-59 0 -65 -3 -116 -46z" />
<ns0:path d="M1530 1800 c-19 -10 -53 -35 -75 -54 -22 -20 -55 -41 -72 -48 -18 -7 -33 -15 -33 -19 0 -4 -20 -20 -45 -37 -59 -39 -110 -84 -118 -105 -3 -9 -13 -17 -21 -17 -17 0 -32 53 -17 58 15 5 41 32 41 42 0 9 -52 19 -117 22 -68 3 -93 -34 -54 -83 27 -34 48 -90 46 -119 -1 -20 -8 -26 -31 -28 -16 -2 -44 -10 -62 -18 -31 -14 -33 -19 -28 -48 5 -27 1 -37 -24 -61 -16 -15 -34 -43 -41 -62 -6 -18 -15 -33 -20 -33 -5 0 -9 -13 -9 -28 0 -28 38 -72 61 -72 14 0 3 -80 -17 -129 -17 -42 -18 -85 -1 -99 28 -23 95 -30 139 -15 80 27 233 162 288 253 14 23 39 60 56 83 17 23 52 84 77 136 39 78 47 103 47 150 0 76 -16 126 -47 151 l-26 20 44 48 c24 27 59 59 77 71 17 13 32 32 32 42 0 23 -6 23 -50 -1z m-133 -311 c4 -36 -2 -58 -32 -119 -46 -97 -157 -256 -215 -309 -25 -23 -52 -48 -61 -56 -9 -8 -19 -15 -22 -15 -14 0 -6 52 13 90 11 22 20 49 20 60 0 12 5 31 12 43 12 22 14 28 16 59 1 9 9 23 17 32 8 8 20 39 25 67 6 29 19 62 30 74 11 12 20 24 20 26 0 11 77 89 87 89 5 0 18 9 28 20 18 20 19 20 38 1 11 -10 21 -38 24 -62z m-367 -519 c0 -5 -7 -10 -16 -10 -8 0 -12 5 -9 10 3 6 10 10 16 10 5 0 9 -4 9 -10z" />
<ns0:path d="M1589 1158 c-35 -17 -80 -44 -99 -60 -19 -15 -39 -28 -44 -28 -14 0 -89 -52 -104 -73 -7 -9 -34 -27 -59 -38 -45 -20 -123 -67 -133 -80 -3 -3 -41 -24 -84 -45 -89 -43 -124 -73 -132 -113 -5 -22 -1 -31 20 -44 14 -9 32 -17 41 -17 9 0 75 39 147 88 72 48 138 92 147 97 9 6 36 24 61 41 25 17 52 33 61 37 16 5 -21 -73 -126 -268 -21 -38 -44 -83 -52 -98 l-15 -28 -86 6 c-48 3 -109 8 -137 10 -76 8 -136 -33 -107 -72 6 -10 16 -28 22 -41 8 -19 13 -21 29 -12 19 9 199 5 209 -5 9 -9 -49 -118 -114 -217 -35 -53 -64 -100 -64 -106 0 -9 -42 -53 -75 -77 -18 -13 -15 -14 38 -15 58 0 97 12 97 30 0 5 20 31 45 57 24 26 45 53 45 59 0 6 9 19 20 29 11 10 20 22 20 27 0 5 11 24 24 41 13 18 31 48 40 67 34 73 47 90 69 91 12 1 108 1 212 0 215 0 300 12 300 44 0 25 -33 33 -174 40 -64 4 -138 11 -165 16 -27 5 -66 9 -87 9 -23 0 -39 5 -39 11 0 10 87 174 125 238 6 9 28 48 49 86 21 39 55 89 75 111 91 104 106 128 108 169 1 41 -10 65 -32 65 -6 0 -41 -14 -76 -32z" />
<ns0:path d="M795 10 c-3 -5 3 -10 15 -10 12 0 18 5 15 10 -3 6 -10 10 -15 10 -5 0 -12 -4 -15 -10z" />
</ns0:g>
</g><g transform="translate(2.7706260140265044,202.37531944957436) scale(0.05739972241727762)"><ns0:metadata>
Created by potrace 1.16, written by Peter Selinger 2001-2019
</ns0:metadata>
<ns0:g transform="translate(0.000000,211.000000) scale(0.100000,-0.100000)" fill="#000000" stroke="none">
<ns0:path d="M1303 1940 c-56 -13 -58 -19 -61 -152 l-3 -123 -37 -33 c-20 -18 -57 -43 -82 -56 -25 -13 -65 -43 -90 -66 -25 -23 -61 -56 -80 -72 -58 -51 -110 -119 -110 -144 0 -41 75 -61 102 -28 63 79 248 254 268 254 13 0 13 -61 0 -94 -5 -14 -15 -26 -23 -26 -21 0 -48 -57 -54 -114 -5 -53 -7 -54 -77 -107 -39 -30 -106 -88 -149 -130 -71 -69 -78 -80 -75 -110 4 -42 38 -57 95 -43 29 7 42 17 55 44 9 19 39 57 67 84 l51 49 0 -30 c0 -16 -14 -72 -30 -124 -45 -139 -47 -160 -17 -192 26 -29 46 -34 65 -15 15 15 104 48 227 83 33 10 87 26 119 36 66 21 106 24 106 8 0 -32 -93 -147 -137 -169 -15 -8 -41 -25 -56 -37 -16 -13 -35 -23 -42 -23 -7 0 -20 -7 -28 -14 -19 -20 -132 -74 -180 -87 -46 -12 -66 -46 -49 -84 11 -25 85 -64 187 -100 28 -10 64 -23 80 -30 39 -17 261 -71 350 -86 89 -14 185 1 185 30 0 19 -40 31 -102 31 -14 0 -66 13 -115 29 -48 15 -115 36 -148 45 -66 19 -225 93 -225 105 0 11 50 46 116 79 91 47 193 152 248 256 36 67 34 97 -9 134 -37 33 -52 34 -150 10 -22 -5 -64 -14 -94 -19 -30 -5 -87 -19 -128 -29 -74 -20 -113 -25 -113 -14 0 31 97 324 114 343 22 25 162 133 195 150 11 6 22 20 26 30 3 11 14 22 23 25 25 8 82 85 75 102 -5 15 -33 20 -33 6 0 -4 -15 -16 -32 -26 -61 -34 -163 -101 -182 -118 -27 -24 -37 -11 -37 48 0 49 35 203 49 214 86 70 132 115 132 131 0 27 -37 24 -82 -6 -39 -26 -68 -32 -68 -14 0 31 25 107 41 125 26 28 24 41 -11 59 -16 8 -30 15 -32 14 -2 -1 -18 -5 -35 -9z" />
<ns0:path d="M847 1824 c-15 -14 -27 -33 -27 -44 0 -42 -76 -244 -143 -380 -77 -157 -197 -348 -246 -394 -50 -45 -171 -199 -200 -254 -10 -19 -10 -28 4 -48 8 -13 24 -24 35 -24 35 0 234 214 293 315 15 25 32 45 39 43 31 -11 68 -202 68 -358 0 -100 -20 -232 -40 -271 -23 -42 -3 -67 45 -55 31 8 48 41 74 143 43 166 19 456 -50 599 -32 67 -32 69 -15 99 18 31 22 38 74 140 16 33 37 74 45 90 9 17 30 66 48 110 18 44 43 104 56 133 28 64 30 132 6 154 -32 27 -39 27 -66 2z" />
</ns0:g>
</g><g transform="translate(-1.0195198977195332,369.4364400305043) scale(0.05739972241727762)"><ns0:metadata>
Created by potrace 1.16, written by Peter Selinger 2001-2019
</ns0:metadata>
<ns0:g transform="translate(0.000000,211.000000) scale(0.100000,-0.100000)" fill="#000000" stroke="none">
<ns0:path d="M875 2103 c-16 -2 -46 -17 -65 -33 l-35 -28 18 -36 c24 -52 23 -103 -4 -111 -11 -4 -35 -19 -52 -33 -18 -15 -41 -32 -52 -38 -25 -14 -32 -66 -11 -83 18 -15 15 -23 -81 -221 -74 -152 -100 -210 -134 -293 -21 -54 -22 -61 -8 -85 11 -20 23 -27 44 -27 24 0 30 5 36 30 24 100 223 518 276 578 18 20 33 41 33 46 0 5 7 12 16 15 10 4 20 -4 30 -27 8 -17 26 -50 39 -72 36 -58 32 -78 -22 -122 -86 -71 -151 -135 -156 -154 -4 -13 5 -32 24 -53 16 -19 29 -43 29 -55 0 -14 11 -25 36 -36 37 -15 37 -15 18 -36 -20 -22 -85 -59 -104 -59 -6 0 -28 12 -50 26 -48 32 -80 26 -80 -15 0 -29 17 -49 60 -71 20 -11 85 -15 162 -11 10 1 42 24 73 52 l55 52 0 62 c0 69 -5 76 -62 94 -21 7 -38 15 -38 18 0 14 52 93 60 93 13 0 45 32 53 53 10 27 23 20 56 -27 16 -25 39 -58 52 -75 21 -29 21 -31 6 -78 -8 -26 -19 -66 -22 -88 -4 -22 -14 -65 -22 -95 -37 -136 -39 -160 -15 -160 23 0 43 22 70 75 32 61 38 76 53 125 8 25 21 46 29 47 8 1 35 -23 60 -53 25 -31 77 -80 116 -110 60 -45 78 -54 113 -54 34 0 43 4 50 23 11 28 7 34 -35 52 -45 18 -122 86 -168 147 -71 94 -106 148 -106 163 0 29 23 111 46 163 13 29 24 56 24 61 0 4 12 18 26 32 14 13 34 38 45 55 12 21 42 42 83 62 95 45 109 92 28 92 -31 0 -34 2 -29 23 26 102 28 119 20 159 l-9 43 -48 3 c-47 3 -48 2 -42 -20 4 -13 10 -67 13 -120 5 -88 4 -98 -11 -98 -33 0 -129 -111 -160 -186 -51 -124 -57 -135 -69 -131 -10 3 -71 101 -137 222 -16 28 -30 64 -32 79 -3 24 3 31 46 55 62 35 154 111 159 131 2 9 0 26 -4 38 -12 32 -51 28 -108 -12 -45 -32 -124 -76 -136 -76 -10 0 -5 56 6 67 11 11 -4 55 -19 51 -4 0 -20 -3 -37 -5z" />
<ns0:path d="M755 1022 c-43 -15 -50 -21 -53 -46 -2 -16 2 -40 9 -52 9 -17 10 -57 6 -146 -9 -167 -16 -190 -74 -222 -25 -14 -52 -26 -59 -26 -8 0 -14 -4 -14 -8 0 -5 -19 -15 -42 -22 -24 -7 -61 -20 -83 -30 -22 -10 -67 -23 -100 -30 -99 -20 -133 -46 -121 -93 17 -68 129 -37 336 92 64 40 96 55 98 46 2 -7 -13 -45 -32 -85 -39 -78 -40 -122 -4 -141 20 -11 150 -1 300 22 111 17 119 18 233 24 101 5 290 31 308 42 23 14 -4 142 -49 233 -38 78 -94 124 -119 99 -12 -12 -10 -27 16 -102 16 -49 34 -97 39 -107 19 -35 -9 -41 -255 -55 -55 -4 -115 -11 -132 -16 -18 -6 -43 -9 -55 -8 -13 2 -28 1 -33 -3 -20 -12 -129 -12 -133 0 -2 7 5 40 16 74 40 125 59 235 67 401 3 60 11 110 20 128 27 52 1 61 -90 31z" />
<ns0:path d="M922 868 c-25 -12 -37 -46 -28 -76 7 -20 45 -42 72 -42 19 0 71 -36 99 -67 25 -29 44 -18 52 30 4 30 0 45 -21 77 -14 22 -32 40 -39 40 -7 0 -28 11 -47 25 -37 27 -53 29 -88 13z" />
<ns0:path d="M1535 664 c-21 -35 -25 -53 -21 -79 17 -88 250 -188 269 -115 5 20 -27 70 -44 70 -6 0 -30 13 -54 30 -36 25 -44 37 -50 72 -9 52 -20 68 -50 68 -17 0 -31 -13 -50 -46z" />
</ns0:g>
</g><g transform="translate(0.6639827663862548,519.256704002348) scale(0.05739972241727762)"><ns0:metadata>
Created by potrace 1.16, written by Peter Selinger 2001-2019
</ns0:metadata>
<ns0:g transform="translate(0.000000,205.000000) scale(0.100000,-0.100000)" fill="#000000" stroke="none">
<ns0:path d="M1328 2017 c37 -63 45 -104 32 -155 -20 -83 -111 -201 -181 -237 -44 -24 -54 -9 -36 56 38 137 28 238 -26 274 -51 33 -115 -15 -90 -68 40 -83 41 -138 7 -297 -14 -65 -15 -82 -4 -95 14 -17 40 -20 40 -5 0 6 10 10 23 10 12 0 30 9 40 20 23 27 46 25 57 -4 5 -13 14 -27 20 -31 24 -15 52 -115 32 -115 -5 0 -44 -20 -88 -45 -83 -48 -104 -54 -104 -31 0 18 -27 29 -36 14 -4 -6 -44 -28 -90 -49 -80 -37 -83 -40 -86 -75 -3 -33 -8 -39 -57 -65 -30 -16 -60 -34 -67 -40 -20 -17 -126 -79 -134 -79 -3 0 -31 -17 -62 -37 -80 -56 -91 -62 -118 -75 -14 -6 -49 -34 -77 -62 -43 -40 -53 -57 -53 -83 0 -27 6 -35 34 -48 30 -14 40 -15 70 -4 20 7 36 16 36 20 0 11 149 159 161 159 6 0 42 20 80 45 132 85 166 96 139 45 -6 -11 -15 -43 -20 -72 -6 -29 -19 -83 -31 -120 -34 -111 -8 -115 64 -10 25 37 53 86 62 110 19 46 22 48 50 29 54 -36 198 -47 283 -22 41 13 53 21 58 41 9 37 -7 49 -47 35 -38 -13 -121 -15 -135 -2 -5 5 -18 11 -29 13 -13 2 -22 14 -25 33 -5 28 -8 30 -48 29 -48 -2 -54 11 -24 60 19 31 57 55 217 137 55 28 107 57 116 65 8 8 20 14 26 14 6 0 26 11 45 23 19 13 48 27 64 31 16 4 43 18 59 30 43 32 113 52 133 39 13 -7 26 -5 54 9 78 41 31 96 -72 86 -28 -3 -58 -13 -68 -22 -10 -9 -43 -23 -73 -31 -30 -9 -64 -21 -77 -27 -17 -9 -25 -9 -34 0 -13 13 -15 71 -3 115 7 25 5 28 -24 33 -37 8 -38 11 -8 46 68 81 82 102 113 168 9 19 22 42 30 51 16 18 13 115 -6 167 -12 31 -13 32 -72 32 l-60 0 20 -33z" />
<ns0:path d="M768 1943 c-18 -22 -13 -50 11 -58 31 -10 100 -93 107 -130 10 -55 -32 -132 -120 -220 -92 -92 -111 -96 -102 -25 4 28 11 61 16 73 15 33 27 192 17 215 -15 34 -53 45 -93 26 l-34 -16 0 -208 c0 -240 -1 -237 78 -216 38 10 66 27 114 71 35 32 66 66 70 76 4 10 16 22 27 28 29 16 101 165 101 210 0 63 -19 110 -63 151 -32 32 -49 40 -77 40 -23 0 -43 -7 -52 -17z" />
<ns0:path d="M1262 598 c-28 -30 -28 -39 1 -65 14 -13 43 -23 80 -28 68 -8 74 -17 57 -83 -10 -37 -28 -61 -79 -110 -36 -35 -73 -68 -83 -73 -16 -8 -18 -5 -20 23 -5 114 -25 239 -42 272 -18 34 -59 76 -74 76 -8 0 -27 -10 -44 -21 -34 -25 -33 -45 6 -107 31 -51 43 -86 56 -164 15 -94 6 -141 -31 -157 -32 -14 -39 -52 -15 -83 17 -23 79 -24 97 -1 8 9 33 28 56 42 82 51 200 179 233 253 6 13 17 34 25 48 8 14 15 40 15 59 0 43 -48 91 -117 115 -81 30 -96 30 -121 4z" />
<ns0:path d="M653 522 c-13 -4 -32 -15 -43 -24 -38 -33 -23 -58 65 -109 54 -32 60 -39 62 -70 1 -19 -5 -43 -15 -56 -19 -25 -170 -105 -183 -97 -11 6 -1 32 29 72 33 43 19 61 -28 37 -45 -23 -128 -110 -136 -141 -10 -41 24 -79 72 -80 21 -1 44 2 49 6 6 5 28 11 50 15 43 8 145 61 185 98 14 12 36 37 49 55 47 67 26 187 -40 226 -16 9 -34 29 -41 44 -14 28 -37 35 -75 24z" />
</ns0:g>
</g></svg>