<?xml version='1.0' encoding='utf-8'?>
<svg xmlns:ns0="http://www.w3.org/2000/svg" xmlns="http://www.w3.org/2000/svg" width="235" height="121" viewBox="0 0 235 121"><g transform="translate(-2.7224878149936558,-47.30298497905555) scale(0.027595579437518742)"><ns0:metadata>
Created by potrace 1.16, written by Peter Selinger 2001-2019
</ns0:metadata>
<ns0:g transform="translate(0.000000,214.000000) scale(0.100000,-0.100000)" fill="#000000" stroke="none">
<ns0:path d="M1179 1566 c-76 -40 -138 -112 -170 -197 -32 -83 -23 -122 39 -174 30 -25 38 -27 99 -23 39 2 68 9 71 16 5 17 32 15 32 -3 0 -9 -12 -44 -26 -78 -23 -54 -28 -83 -35 -232 -8 -155 -7 -196 7 -247 6 -21 72 -25 79 -6 3 7 9 92 14 188 9 181 12 205 30 239 6 11 20 46 30 78 11 32 36 103 56 158 50 137 52 149 24 169 -15 10 -27 12 -33 6 -6 -6 -20 -10 -32 -10 -17 0 -20 5 -17 23 7 37 -14 77 -49 91 -65 27 -74 27 -119 2z m61 -140 c0 -18 9 -45 20 -59 l21 -26 -29 -29 c-26 -26 -85 -62 -103 -62 -15 0 -39 32 -39 51 0 39 50 127 83 147 39 24 47 20 47 -22z" />
</ns0:g>
</g><g transform="translate(-0.3585544171991728,23.5774364767519) scale(0.027595579437518742)"><ns0:metadata>
Created by potrace 1.16, written by Peter Selinger 2001-2019
</ns0:metadata>
<ns0:g transform="translate(0.000000,208.000000) scale(0.100000,-0.100000)" fill="#000000" stroke="none">
<ns0:path d="M1092 1836 c-11 -15 -22 -49 -25 -86 -9 -77 -18 -95 -67 -120 -55 -28 -67 -26 -80 18 -9 34 -8 39 17 60 16 13 47 32 71 42 77 35 34 59 -51 28 -26 -9 -71 -21 -99 -28 -28 -6 -58 -15 -65 -22 -18 -14 -17 -53 2 -68 8 -7 15 -19 15 -27 0 -7 7 -25 16 -38 19 -29 13 -40 -23 -50 -15 -3 -50 -17 -78 -29 -27 -13 -70 -32 -95 -44 -145 -65 -142 -156 5 -150 55 3 60 5 58 25 -3 23 31 49 120 90 l47 22 20 -39 c11 -22 24 -40 29 -40 29 0 41 16 47 61 8 57 20 76 56 84 32 8 35 1 43 -114 6 -93 9 -101 34 -101 25 0 48 66 56 155 3 39 8 79 10 91 4 19 93 86 170 127 17 9 48 32 70 50 37 32 39 36 27 61 -6 14 -18 26 -27 26 -17 0 -66 -25 -112 -57 -17 -13 -34 -23 -38 -23 -4 0 -18 -9 -32 -20 -34 -27 -44 -18 -42 40 2 52 -20 100 -46 100 -7 0 -22 -11 -33 -24z" />
<ns0:path d="M733 1128 c-30 -65 -34 -89 -34 -209 0 -145 0 -145 -77 -179 -25 -11 -53 -27 -62 -34 -26 -22 -190 -76 -232 -76 l-40 0 33 38 c19 22 41 48 50 59 10 12 25 26 35 31 15 9 16 13 7 23 -10 10 -16 9 -30 -3 -10 -9 -36 -22 -58 -29 -22 -7 -52 -21 -66 -31 -15 -10 -49 -27 -75 -38 -54 -23 -64 -34 -64 -68 0 -18 11 -28 56 -49 49 -22 66 -25 135 -21 43 3 84 9 91 15 7 5 28 15 46 21 17 6 56 26 85 45 122 79 158 99 164 93 4 -4 -1 -32 -11 -64 -9 -31 -25 -82 -34 -112 -18 -59 -27 -80 -56 -123 -15 -22 -17 -32 -8 -52 13 -27 74 -44 95 -27 16 13 84 36 157 52 30 7 78 18 105 26 28 7 88 20 133 28 46 9 88 19 93 22 6 3 24 7 42 10 98 11 133 17 143 25 6 5 40 9 75 10 35 1 81 4 103 6 l39 5 -7 60 c-3 33 -12 72 -20 86 -8 15 -25 54 -38 87 -27 71 -80 129 -125 139 -40 9 -44 -9 -12 -60 25 -41 80 -195 73 -206 -3 -4 -14 -8 -25 -8 -11 0 -28 -4 -38 -10 -18 -9 -95 -25 -178 -36 -23 -3 -84 -14 -135 -25 -51 -11 -117 -25 -147 -30 -29 -5 -61 -14 -70 -18 -25 -13 -98 -23 -104 -14 -2 4 4 33 14 63 32 99 40 178 35 365 -3 99 -6 191 -8 205 -4 34 -40 39 -55 8z" />
<ns0:path d="M1536 1107 c7 -21 -32 -104 -55 -117 -50 -26 2 -107 76 -117 72 -10 133 43 81 68 -10 5 -26 13 -35 18 -15 7 -17 19 -15 65 3 44 0 62 -14 77 -19 22 -46 26 -38 6z" />
<ns0:path d="M1020 1013 c-72 -12 -101 -25 -112 -49 -16 -35 21 -74 72 -74 20 0 62 -7 94 -15 32 -9 67 -13 77 -10 33 11 23 50 -22 86 -34 27 -38 34 -25 41 41 23 -5 35 -84 21z" />
</ns0:g>
</g><g transform="translate(-2.440299612465026,91.00683503187028) scale(0.027595579437518742)"><ns0:metadata>
Created by potrace 1.16, written by Peter Selinger 2001-2019
</ns0:metadata>
<ns0:g transform="translate(0.000000,210.000000) scale(0.100000,-0.100000)" fill="#000000" stroke="none">
<ns0:path d="M855 2077 c-16 -12 -34 -28 -38 -35 -5 -7 -29 -34 -53 -60 -85 -89 -92 -97 -118 -154 -14 -31 -26 -62 -26 -67 0 -6 -4 -11 -9 -11 -6 0 -13 -21 -17 -47 -4 -26 -17 -70 -30 -99 -32 -72 -55 -193 -48 -247 6 -40 -22 -157 -56 -242 -17 -41 -39 -113 -65 -210 -14 -55 -41 -138 -60 -185 -170 -436 -193 -487 -214 -493 -11 -3 -23 -26 -35 -68 -10 -35 -22 -75 -27 -88 -14 -34 14 -75 44 -65 12 4 24 11 26 17 2 6 14 20 27 32 13 12 31 39 40 60 8 21 22 49 31 61 14 22 17 22 36 9 25 -17 73 -20 82 -5 4 6 32 29 63 52 31 22 66 49 77 59 43 41 193 145 240 169 28 13 64 35 81 47 l32 24 5 -27 c2 -15 1 -41 -3 -58 -5 -17 -11 -74 -15 -126 -5 -76 -36 -232 -60 -307 -3 -9 11 -13 50 -13 l54 0 7 37 c3 21 15 67 25 102 11 35 26 123 34 195 8 72 19 156 24 188 9 54 41 130 65 153 22 21 111 54 122 45 6 -6 19 -4 32 5 11 9 23 12 26 7 2 -4 5 -93 5 -197 0 -165 -7 -267 -34 -488 l-6 -47 56 0 c37 0 55 4 55 13 0 6 7 70 15 142 8 72 17 229 20 350 7 287 12 343 33 354 9 5 40 12 68 16 42 5 54 11 63 31 22 49 8 84 -36 84 -21 0 -39 -6 -110 -36 -17 -8 -39 -14 -48 -14 -24 0 -54 -18 -90 -54 -18 -18 -60 -42 -96 -55 -35 -13 -74 -29 -87 -37 -19 -13 -23 -13 -28 0 -9 23 16 130 48 201 8 18 46 49 97 80 26 15 103 76 131 103 13 13 56 45 95 70 38 26 72 50 75 53 3 3 15 11 28 18 27 14 27 22 5 50 -16 19 -22 20 -56 11 -20 -6 -65 -32 -100 -58 -119 -90 -277 -194 -355 -234 -26 -13 -45 -31 -48 -45 -7 -28 -77 -80 -83 -62 -2 7 4 16 13 21 9 5 16 16 16 26 0 9 9 25 19 37 57 59 99 115 116 153 10 23 23 42 29 42 6 0 18 11 26 24 24 39 102 140 116 152 25 20 156 189 171 221 9 17 13 38 10 47 -6 15 -9 15 -37 1 -16 -8 -39 -28 -51 -44 -11 -15 -59 -59 -106 -97 -47 -38 -113 -91 -146 -119 -116 -96 -202 -160 -267 -195 -75 -41 -88 -70 -47 -109 l25 -22 56 32 c31 17 59 29 62 26 3 -3 -6 -23 -20 -44 -14 -20 -26 -43 -26 -48 0 -6 -14 -24 -31 -41 -17 -16 -55 -66 -86 -112 -31 -45 -71 -99 -89 -119 -43 -46 -43 -75 -3 -104 31 -21 32 -22 63 -4 17 10 47 30 66 44 72 54 126 88 148 95 21 7 22 4 23 -43 1 -28 2 -59 2 -68 2 -52 -37 -87 -204 -182 -59 -33 -129 -77 -156 -98 -53 -41 -59 -45 -148 -99 -33 -20 -63 -41 -67 -48 -5 -7 -8 -5 -8 6 0 19 57 176 69 193 5 5 23 53 40 105 18 52 36 104 41 115 5 11 20 56 34 100 30 95 127 387 141 424 18 47 57 93 92 107 18 8 50 32 71 53 80 83 132 142 149 168 10 16 22 33 28 39 15 18 72 94 100 134 30 43 104 180 127 235 9 22 17 57 17 78 l1 37 -157 -1 c-146 0 -160 -2 -188 -22z m261 -11 c3 -14 -1 -37 -9 -53 -9 -15 -34 -66 -57 -113 -23 -47 -51 -94 -61 -106 -11 -11 -32 -39 -47 -61 -46 -68 -99 -137 -124 -159 -12 -12 -47 -47 -77 -78 -87 -91 -95 -78 -60 95 13 65 19 121 16 150 -5 43 -4 49 21 65 38 25 182 170 182 183 0 6 15 17 33 26 17 8 39 19 47 24 32 18 106 51 117 51 7 0 15 -11 19 -24z m-356 -1515 c0 -5 -7 -12 -16 -15 -24 -9 -28 -7 -14 9 14 17 30 20 30 6z" />
</ns0:g>
</g><g transform="translate(0.11385063082957458,168.60416006276182) scale(0.027595579437518742)"><ns0:metadata>
Created by potrace 1.16, written by Peter Selinger 2001-2019
</ns0:metadata>
<ns0:g transform="translate(0.000000,207.000000) scale(0.100000,-0.100000)" fill="#000000" stroke="none">
<ns0:path d="M1084 1903 c-27 -5 -53 -52 -47 -84 3 -14 -1 -30 -9 -36 -13 -10 -147 -53 -167 -53 -6 0 -11 17 -11 39 0 40 20 71 44 71 8 0 19 7 26 16 11 12 11 17 -1 28 -11 11 -29 12 -87 3 -96 -13 -105 -26 -93 -126 10 -75 7 -101 -11 -101 -5 0 -41 -16 -79 -35 -39 -19 -76 -35 -84 -35 -7 0 -29 -9 -47 -21 -18 -11 -58 -35 -88 -52 -36 -21 -62 -46 -77 -71 -27 -49 -18 -71 34 -85 34 -10 41 -7 97 29 42 28 72 40 97 40 24 0 42 7 55 21 10 12 36 30 57 40 42 22 42 22 52 -56 9 -79 36 -195 46 -201 5 -3 9 -10 9 -15 0 -6 -4 -8 -9 -5 -12 8 -63 -12 -73 -27 -4 -7 -7 -50 -7 -96 1 -67 -3 -86 -15 -93 -9 -5 -28 -20 -43 -32 -24 -21 -27 -30 -26 -82 2 -55 0 -60 -25 -72 -40 -18 -60 -15 -74 15 -20 41 -40 49 -88 33 l-42 -14 8 -60 c4 -34 7 -162 6 -286 -1 -123 1 -232 4 -242 9 -30 39 -21 57 18 10 19 15 40 11 45 -3 5 -1 16 5 23 6 7 13 46 17 87 7 84 38 215 56 236 15 19 68 46 76 39 3 -3 0 -17 -6 -30 -6 -14 -16 -64 -23 -112 -11 -81 -10 -89 7 -101 12 -9 32 -12 52 -9 30 4 32 3 32 -26 0 -17 -8 -40 -17 -51 -21 -22 -23 -88 -4 -111 20 -24 63 -20 83 8 11 15 23 69 34 147 21 154 19 149 43 149 26 0 83 49 79 68 -2 10 -21 20 -48 27 l-45 11 -3 59 c-2 32 2 70 8 85 9 23 62 69 115 102 15 9 13 -606 -3 -624 -16 -20 -3 -63 28 -93 63 -61 88 -5 92 208 2 85 7 159 11 163 4 4 26 -10 49 -33 l41 -41 -12 -48 c-7 -27 -30 -90 -52 -141 -52 -123 -51 -151 7 -165 32 -8 48 11 71 82 30 91 71 180 83 180 5 0 10 -4 10 -9 0 -12 114 -131 125 -131 4 0 36 -27 72 -60 35 -33 68 -60 74 -60 6 0 35 -25 66 -55 79 -78 112 -95 184 -95 51 0 59 2 59 19 0 11 2 26 5 33 4 9 -8 20 -32 32 -83 39 -201 126 -337 249 -93 84 -112 103 -158 165 l-39 53 21 87 c12 48 44 152 72 231 53 152 69 255 51 336 -8 35 -13 40 -38 43 -20 2 -38 -5 -55 -20 -14 -13 -37 -31 -52 -41 -27 -17 -28 -17 -28 1 0 10 4 22 10 28 8 8 21 53 46 159 7 26 -15 53 -46 56 -36 5 -90 -30 -90 -58 0 -13 -4 -23 -9 -23 -12 0 -25 221 -16 268 4 20 10 55 13 77 6 36 10 40 42 45 19 4 64 18 100 32 36 14 72 28 81 31 17 6 30 58 21 89 -6 26 -43 23 -116 -12 -35 -16 -82 -32 -105 -36 -34 -5 -42 -4 -47 12 -14 48 -23 54 -60 47z m-86 -308 c-6 -51 7 -69 22 -31 17 45 28 28 35 -51 6 -72 23 -143 46 -200 10 -27 37 -30 55 -5 13 16 13 16 14 -3 0 -32 -27 -157 -41 -190 l-13 -30 -4 32 c-2 21 -10 34 -22 38 -24 8 -75 -18 -95 -48 -8 -12 -37 -40 -65 -61 -38 -29 -54 -36 -59 -27 -5 7 -19 18 -32 25 -21 11 -24 18 -20 61 4 61 16 85 41 85 33 0 72 63 76 124 l4 54 -24 -11 c-15 -7 -27 -24 -31 -42 -12 -61 -27 4 -26 115 1 138 7 155 73 185 29 14 57 25 62 25 5 0 6 -20 4 -45z m308 -612 c-15 -49 -37 -115 -48 -148 -11 -33 -27 -87 -35 -120 -24 -95 -21 -92 -49 -60 -13 17 -27 43 -31 58 -3 16 -12 31 -19 34 -22 8 -17 25 37 119 69 120 152 224 167 209 3 -2 -7 -44 -22 -92z m-592 -88 c-4 -8 -8 -15 -10 -15 -2 0 -4 7 -4 15 0 8 4 15 10 15 5 0 7 -7 4 -15z" />
</ns0:g>
</g><g transform="translate(0.2722790470953669,252.94353156476922) scale(0.027595579437518742)"><ns0:metadata>
Created by potrace 1.16, written by Peter Selinger 2001-2019
</ns0:metadata>
<ns0:g transform="translate(0.000000,216.000000) scale(0.100000,-0.100000)" fill="#000000" stroke="none">
<ns0:path d="M1030 2005 c-7 -8 -10 -29 -7 -47 3 -18 12 -80 21 -138 8 -58 19 -119 24 -136 5 -17 13 -58 17 -92 8 -69 19 -58 -98 -102 -66 -26 -85 -50 -67 -86 7 -12 25 -28 41 -34 24 -10 34 -8 78 16 28 15 53 25 56 22 3 -3 8 -27 11 -54 6 -47 4 -52 -27 -82 -48 -47 -128 -114 -166 -141 -38 -26 -41 -46 -13 -80 28 -32 56 -30 122 13 86 54 89 52 86 -51 l-3 -88 -50 -27 c-27 -15 -59 -25 -69 -23 -12 3 -36 -9 -63 -31 -23 -19 -67 -46 -97 -60 -30 -13 -60 -31 -66 -39 -7 -8 -18 -15 -26 -15 -18 0 -26 -33 -15 -63 13 -33 78 -50 92 -24 5 8 32 23 59 32 27 9 52 21 56 26 3 5 22 18 42 30 20 11 55 33 77 49 22 16 45 29 51 30 7 0 13 -56 18 -167 11 -262 29 -374 77 -479 32 -71 100 -79 172 -18 49 41 137 195 137 240 0 13 4 33 9 46 14 38 21 102 12 116 -8 14 -41 6 -41 -10 0 -22 -66 -157 -107 -220 -61 -95 -95 -107 -108 -38 -2 13 -9 37 -14 54 -29 93 -40 376 -19 506 9 61 17 80 40 102 16 16 32 28 35 28 3 0 14 11 25 25 11 14 25 25 31 25 12 0 45 30 92 84 51 59 -20 56 -89 -4 -17 -15 -57 -41 -88 -58 l-58 -32 0 55 c0 63 23 130 41 119 13 -7 139 123 139 144 0 24 -20 52 -39 52 -9 0 -44 -13 -77 -29 -32 -16 -63 -25 -67 -21 -5 4 -5 43 -2 87 l7 78 51 35 c27 19 62 41 76 49 14 7 35 21 46 31 11 9 28 20 38 23 10 4 17 17 17 31 0 39 -48 48 -103 20 -18 -9 -34 -20 -37 -23 -10 -12 -113 -72 -117 -68 -2 2 -8 30 -13 61 -6 31 -14 81 -20 111 -11 67 -6 85 26 85 27 0 28 2 14 50 -13 48 -90 120 -129 120 -16 0 -34 -7 -41 -15z" />
<ns0:path d="M589 1890 c-22 -22 -53 -47 -69 -55 -34 -18 -37 -33 -14 -77 21 -41 15 -67 -51 -221 -30 -71 -55 -133 -55 -139 0 -6 -6 -19 -14 -27 -8 -9 -27 -48 -44 -87 -16 -39 -50 -98 -74 -131 -62 -85 -73 -114 -56 -150 21 -45 60 -43 108 6 35 36 111 91 125 91 20 0 -71 -189 -137 -287 -15 -23 -28 -45 -28 -49 0 -4 -10 -18 -21 -30 -15 -16 -20 -30 -15 -47 7 -30 50 -60 74 -53 10 3 55 42 102 86 47 45 97 88 113 96 15 8 27 19 27 24 0 6 6 10 13 10 7 0 23 14 36 31 19 25 25 28 38 18 12 -11 14 -8 11 22 -2 28 -7 35 -30 37 -14 2 -49 -8 -77 -22 -28 -14 -53 -26 -56 -26 -17 0 1 42 45 107 28 40 50 76 50 79 0 4 14 26 30 51 17 25 42 68 57 97 28 55 113 199 151 256 29 43 28 113 -2 118 -52 10 -128 -55 -168 -145 -11 -25 -33 -66 -49 -91 -44 -69 -169 -173 -169 -141 0 7 47 107 104 223 57 116 109 227 117 246 7 19 25 59 41 88 23 44 25 56 16 82 -21 62 -74 66 -129 10z" />
<ns0:path d="M1513 1755 c-42 -18 -42 -46 0 -104 40 -54 72 -79 115 -87 29 -6 32 -4 32 16 0 13 -6 31 -14 39 -22 25 -23 57 -2 80 20 21 20 22 0 40 -26 26 -91 34 -131 16z" />
<ns0:path d="M684 796 c-30 -13 -102 -80 -221 -206 -34 -36 -83 -81 -107 -100 -25 -19 -60 -55 -77 -80 -37 -52 -32 -86 15 -109 36 -17 65 -3 100 48 30 44 64 88 91 115 11 11 34 39 50 62 30 42 86 112 153 193 47 56 55 69 47 81 -8 13 -13 12 -51 -4z" />
</ns0:g>
</g><g transform="translate(0.21757996852261385,350.1215822342334) scale(0.027595579437518742)"><ns0:metadata>
Created by potrace 1.16, written by Peter Selinger 2001-2019
</ns0:metadata>
<ns0:g transform="translate(0.000000,210.000000) scale(0.100000,-0.100000)" fill="#000000" stroke="none">
<ns0:path d="M756 1009 c-35 -51 -5 -121 57 -133 20 -4 50 0 74 8 37 13 223 15 348 4 l30 -3 -2 63 c-1 35 -3 65 -5 67 -2 1 -112 6 -244 10 l-242 7 -16 -23z" />
</ns0:g>
</g><g transform="translate(-0.7027217333547924,416.175428871962) scale(0.027595579437518742)"><ns0:metadata>
Created by potrace 1.16, written by Peter Selinger 2001-2019
</ns0:metadata>
<ns0:g transform="translate(0.000000,212.000000) scale(0.100000,-0.100000)" fill="#000000" stroke="none">
<ns0:path d="M1439 1893 c-58 -6 -137 -88 -189 -196 -23 -48 -49 -110 -58 -139 -14 -42 -23 -53 -47 -61 -16 -5 -38 -16 -47 -24 -19 -17 -94 -193 -102 -240 -8 -48 9 -48 38 0 l26 42 -6 -115 c-8 -143 -16 -200 -29 -203 -5 -1 -14 13 -20 31 -5 17 -12 32 -16 32 -18 0 -12 -59 10 -109 24 -54 24 -55 8 -120 -9 -36 -19 -93 -23 -126 -9 -85 -48 -198 -78 -228 -30 -30 -35 -81 -10 -91 36 -14 63 -5 91 29 35 42 89 190 98 270 12 107 51 195 87 195 7 0 28 10 47 23 20 13 60 39 88 58 29 19 53 39 53 44 0 6 19 28 41 50 22 22 52 58 66 80 15 22 34 48 41 57 23 28 112 228 112 252 0 12 5 27 10 32 27 27 38 197 20 301 -11 62 -19 80 -49 113 -38 41 -80 52 -162 43z m104 -135 c21 -42 25 -207 8 -293 -35 -174 -147 -377 -268 -484 -60 -54 -133 -95 -144 -83 -4 4 -4 28 1 53 5 25 12 97 16 160 4 65 15 140 26 174 10 33 23 89 27 125 14 105 106 272 193 350 33 29 49 36 82 35 37 0 43 -3 59 -37z" />
<ns0:path d="M1283 877 c-18 -5 -33 -14 -33 -19 0 -6 -10 -18 -22 -28 l-23 -18 26 -10 c14 -6 52 -35 84 -66 31 -31 61 -56 66 -56 4 0 32 -19 61 -43 67 -54 183 -127 202 -127 8 0 28 16 45 35 52 59 36 142 -20 107 -28 -18 -37 -15 -93 22 -63 42 -208 162 -219 181 -13 25 -40 32 -74 22z" />
</ns0:g>
</g><g transform="translate(-1.669340980207778,504.17697313682004) scale(0.027595579437518742)"><ns0:metadata>
Created by potrace 1.16, written by Peter Selinger 2001-2019
</ns0:metadata>
<ns0:g transform="translate(0.000000,211.000000) scale(0.100000,-0.100000)" fill="#000000" stroke="none">
<ns0:path d="M1257 1463 c-6 -16 -14 -30 -17 -33 -5 -5 -39 -56 -82 -125 -13 -22 -37 -67 -52 -100 -16 -33 -36 -78 -47 -100 -10 -22 -26 -65 -34 -97 -20 -71 -37 -88 -54 -52 -6 15 -9 35 -6 45 16 51 -64 285 -122 356 -41 50 -56 57 -100 42 -37 -12 -54 -49 -33 -74 17 -20 80 -146 80 -159 1 -6 9 -29 20 -51 11 -22 19 -49 20 -60 0 -12 4 -25 8 -30 5 -6 14 -35 21 -65 21 -95 32 -134 47 -160 8 -14 20 -37 25 -53 6 -15 21 -30 34 -33 31 -8 65 12 65 37 0 10 11 37 25 59 28 45 46 89 70 175 20 69 44 132 87 225 17 36 35 76 40 90 6 14 14 32 19 40 5 8 11 20 12 25 40 119 40 125 6 125 -12 0 -24 -11 -32 -27z" />
</ns0:g>
</g><g transform="translate(1.871960165401731,577.5725145460231) scale(0.027595579437518742)"><ns0:metadata>
Created by potrace 1.16, written by Peter Selinger 2001-2019
</ns0:metadata>
<ns0:g transform="translate(0.000000,211.000000) scale(0.100000,-0.100000)" fill="#000000" stroke="none">
<ns0:path d="M1535 1475 c-22 -25 -68 -73 -103 -107 -35 -35 -68 -72 -75 -84 -7 -12 -58 -82 -114 -155 -232 -305 -276 -359 -291 -359 -10 0 -24 27 -42 80 -18 52 -43 103 -61 125 -10 11 -31 47 -49 80 -46 86 -111 185 -122 185 -5 0 -22 -7 -37 -15 -46 -23 -53 -64 -21 -117 11 -18 20 -38 20 -44 0 -13 78 -134 96 -149 7 -5 35 -55 64 -110 28 -55 55 -104 60 -110 4 -5 11 -24 14 -42 9 -38 48 -83 74 -83 21 0 42 18 42 36 0 11 49 80 225 323 11 15 36 52 56 82 21 30 44 61 53 68 9 7 16 17 16 22 0 9 107 177 140 220 69 89 110 158 110 184 0 25 -14 17 -55 -30z" />
</ns0:g>
</g><g transform="translate(-0.665361057614291,647.0432796374689) scale(0.027595579437518742)"><ns0:metadata>
Created by potrace 1.16, written by Peter Selinger 2001-2019
</ns0:metadata>
<ns0:g transform="translate(0.000000,212.000000) scale(0.100000,-0.100000)" fill="#000000" stroke="none">
<ns0:path d="M1085 1599 c-22 -5 -69 -14 -105 -20 -82 -14 -119 -45 -104 -87 13 -37 54 -40 156 -8 95 30 116 32 125 9 12 -32 -44 -199 -88 -258 -16 -22 -66 -96 -112 -165 -45 -68 -87 -126 -93 -127 -10 -3 -24 130 -40 362 -3 50 -10 102 -16 118 -13 35 -46 36 -78 2 -22 -23 -23 -32 -21 -128 1 -56 11 -160 22 -230 14 -87 19 -149 14 -190 -3 -34 -5 -105 -5 -157 2 -190 -49 -432 -93 -444 -17 -4 -19 -11 -13 -48 7 -46 27 -68 61 -68 39 0 47 15 110 210 9 30 22 104 27 165 5 60 11 139 15 175 4 57 9 68 38 96 19 17 59 69 90 115 30 46 64 98 75 114 12 17 35 53 53 80 17 28 34 52 38 55 9 7 61 109 76 150 7 19 20 74 28 122 14 79 14 91 0 118 -26 50 -66 60 -160 39z m-275 -579 c0 -5 -4 -10 -10 -10 -5 0 -10 5 -10 10 0 6 5 10 10 10 6 0 10 -4 10 -10z" />
</ns0:g>
</g><g transform="translate(0.3374576053080318,744.6363005608027) scale(0.027595579437518742)"><ns0:metadata>
Created by potrace 1.16, written by Peter Selinger 2001-2019
</ns0:metadata>
<ns0:g transform="translate(0.000000,210.000000) scale(0.100000,-0.100000)" fill="#000000" stroke="none">
<ns0:path d="M653 1020 c-13 -5 -23 -14 -23 -20 0 -20 28 -77 41 -86 33 -21 442 -56 487 -42 41 12 41 33 1 85 -28 36 -35 40 -59 33 -52 -15 -181 -3 -337 31 -51 11 -81 11 -110 -1z" />
</ns0:g>
</g><g transform="translate(-2.142528607490931,817.6481258771561) scale(0.027595579437518742)"><ns0:metadata>
Created by potrace 1.16, written by Peter Selinger 2001-2019
</ns0:metadata>
<ns0:g transform="translate(0.000000,215.000000) scale(0.100000,-0.100000)" fill="#000000" stroke="none">
<ns0:path d="M1192 1565 c-34 -18 -72 -56 -88 -87 -8 -15 -35 -57 -62 -92 -66 -92 -92 -135 -92 -154 0 -28 51 -90 83 -101 60 -22 182 13 235 66 35 35 42 -3 13 -82 -44 -125 -90 -265 -104 -325 -15 -62 -15 -65 4 -97 31 -50 89 -41 89 13 0 28 32 150 63 239 100 286 120 356 115 412 -3 33 -7 39 -33 43 -22 4 -30 11 -30 26 -1 11 -10 33 -22 48 -12 15 -25 37 -29 49 -12 41 -35 57 -78 56 -23 -1 -51 -7 -64 -14z m60 -112 c10 -21 24 -30 56 -37 41 -10 42 -11 36 -40 -3 -17 -11 -35 -18 -41 -62 -52 -139 -107 -161 -115 -35 -13 -92 -13 -100 1 -9 14 13 66 42 97 13 14 23 29 23 34 0 12 92 127 102 127 4 1 13 -11 20 -26z" />
</ns0:g>
</g><g transform="translate(-1.935556634433567,897.2211959151307) scale(0.027595579437518742)"><ns0:metadata>
Created by potrace 1.16, written by Peter Selinger 2001-2019
</ns0:metadata>
<ns0:g transform="translate(0.000000,207.000000) scale(0.100000,-0.100000)" fill="#000000" stroke="none">
<ns0:path d="M1225 1568 c-32 -17 -85 -71 -85 -85 0 -7 -4 -13 -10 -13 -5 0 -10 9 -10 20 0 17 -7 20 -53 20 -29 0 -58 -5 -65 -12 -16 -16 -15 -85 3 -144 19 -64 19 -94 -4 -123 -17 -23 -25 -24 -127 -26 -128 -1 -184 -19 -184 -57 0 -42 17 -48 132 -48 64 0 108 -4 108 -10 0 -5 -19 -48 -42 -95 -29 -58 -48 -85 -60 -85 -16 0 -38 -27 -38 -48 0 -5 9 -19 20 -31 21 -25 10 -28 110 25 31 16 99 112 139 196 37 77 44 78 85 5 20 -35 36 -69 36 -75 0 -6 6 -17 14 -25 8 -8 23 -30 33 -49 72 -139 71 -138 108 -138 34 0 35 1 35 43 0 41 -8 61 -73 177 -85 152 -86 157 -39 176 15 6 50 21 77 32 58 24 96 65 77 84 -9 9 -30 7 -95 -11 -129 -36 -124 -35 -131 -13 -8 23 35 126 81 197 47 70 50 85 23 107 -25 21 -37 22 -65 6z" />
</ns0:g>
</g><g transform="translate(-2.7133263238195013,973.1182185384789) scale(0.027595579437518742)"><ns0:metadata>
Created by potrace 1.16, written by Peter Selinger 2001-2019
</ns0:metadata>
<ns0:g transform="translate(0.000000,206.000000) scale(0.100000,-0.100000)" fill="#000000" stroke="none">
<ns0:path d="M1020 1511 c-17 -5 -26 -16 -30 -36 -3 -18 -15 -34 -28 -41 -44 -22 -55 -57 -90 -299 -21 -148 -20 -340 3 -365 8 -9 15 -26 15 -39 0 -12 6 -37 14 -56 19 -46 54 -54 109 -27 23 11 65 24 92 27 62 9 71 16 102 80 79 163 90 203 94 340 6 233 -3 325 -33 325 -6 0 -27 14 -49 31 -21 16 -55 33 -76 36 -21 3 -47 12 -58 19 -21 15 -27 16 -65 5z m115 -114 c60 -34 66 -55 66 -225 0 -142 -11 -210 -40 -246 -5 -6 -14 -29 -21 -50 -19 -58 -62 -96 -109 -96 -37 0 -39 1 -55 53 -17 53 -16 54 18 213 19 87 40 180 46 206 7 26 9 56 5 67 -3 10 -1 22 5 26 5 3 10 22 10 41 0 41 17 44 75 11z" />
</ns0:g>
</g><g transform="translate(-1.768615741721021,1052.8129363758724) scale(0.027595579437518742)"><ns0:metadata>
Created by potrace 1.16, written by Peter Selinger 2001-2019
</ns0:metadata>
<ns0:g transform="translate(0.000000,211.000000) scale(0.100000,-0.100000)" fill="#000000" stroke="none">
<ns0:path d="M1255 970 c-3 -5 -20 -9 -38 -8 -53 2 -72 -16 -106 -99 -34 -84 -40 -155 -16 -186 7 -11 32 -23 55 -28 37 -9 47 -6 88 19 41 25 48 35 64 89 16 55 17 66 5 102 -8 23 -11 45 -6 53 5 7 9 25 9 41 0 22 -4 27 -24 27 -14 0 -28 -4 -31 -10z" />
</ns0:g>
</g><g transform="translate(-0.2077616203038133,1127.8363462143964) scale(0.027595579437518742)"><ns0:metadata>
Created by potrace 1.16, written by Peter Selinger 2001-2019
</ns0:metadata>
<ns0:g transform="translate(0.000000,207.000000) scale(0.100000,-0.100000)" fill="#000000" stroke="none">
<ns0:path d="M514 1367 c-27 -18 -60 -38 -74 -44 -62 -29 -124 -53 -136 -53 -8 0 -21 -17 -30 -37 -15 -36 -15 -40 3 -73 22 -43 55 -50 94 -21 35 26 44 26 76 2 30 -24 51 -18 60 18 8 31 30 50 59 51 47 0 39 -78 -12 -116 -44 -34 -59 -81 -41 -125 13 -31 12 -37 -10 -71 -19 -28 -22 -41 -14 -56 12 -23 46 -46 80 -55 30 -7 81 46 116 121 33 71 59 81 188 75 53 -3 97 -9 97 -14 0 -11 -106 -167 -134 -198 -11 -12 -42 -41 -68 -63 -41 -34 -59 -41 -133 -55 -68 -12 -85 -19 -85 -33 0 -22 37 -30 135 -30 117 0 131 6 214 87 41 40 84 91 96 112 11 22 41 70 66 108 50 74 72 160 47 180 -7 6 -78 11 -162 11 -96 0 -153 5 -160 12 -6 6 -11 45 -11 90 -1 90 -17 122 -74 152 -18 9 -40 26 -48 37 -22 33 -80 28 -139 -12z" />
</ns0:g>
</g><g transform="translate(1.8907040429479025,1219.2078738496323) scale(0.027595579437518742)"><ns0:metadata>
Created by potrace 1.16, written by Peter Selinger 2001-2019
</ns0:metadata>
<ns0:g transform="translate(0.000000,210.000000) scale(0.100000,-0.100000)" fill="#000000" stroke="none">
<ns0:path d="M935 1134 c-55 -7 -128 -13 -163 -12 -53 1 -66 -2 -87 -22 -35 -33 -32 -66 8 -90 18 -12 41 -18 52 -15 11 3 70 13 130 21 91 12 121 13 173 3 68 -14 107 -6 126 24 16 24 -2 48 -55 73 -66 32 -76 33 -184 18z" />
</ns0:g>
</g><g transform="translate(-1.9563262986766858,1277.7674646503028) scale(0.027595579437518742)"><ns0:metadata>
Created by potrace 1.16, written by Peter Selinger 2001-2019
</ns0:metadata>
<ns0:g transform="translate(0.000000,202.000000) scale(0.100000,-0.100000)" fill="#000000" stroke="none">
<ns0:path d="M1110 1730 c-11 -11 -22 -30 -24 -42 -8 -35 -17 -486 -16 -738 l1 -225 -71 -34 c-38 -18 -73 -37 -75 -41 -3 -5 -22 -14 -43 -21 -44 -14 -211 -95 -265 -128 -33 -20 -38 -28 -35 -54 2 -22 11 -36 30 -47 26 -14 30 -13 75 13 27 15 90 48 142 73 52 26 125 64 162 85 76 43 94 47 121 22 15 -13 23 -14 44 -5 14 7 22 17 19 22 -14 22 58 72 130 91 162 43 192 48 264 43 42 -3 86 -10 98 -16 37 -18 53 -4 53 46 0 36 -4 48 -21 57 -55 29 -307 18 -402 -17 -23 -8 -51 -17 -62 -20 -11 -2 -32 -7 -47 -10 l-28 -6 0 175 c0 96 3 189 6 206 l7 32 26 -25 26 -25 70 20 c134 37 248 111 280 181 33 74 -18 80 -94 11 -57 -51 -112 -75 -219 -94 -34 -6 -69 -18 -77 -26 -13 -12 -14 1 -9 99 4 62 13 133 21 158 8 25 17 69 20 98 3 29 10 55 14 58 5 3 9 23 9 44 0 29 -5 42 -19 50 -32 17 -89 12 -111 -10z" />
</ns0:g>
</g><g transform="translate(-2.5099654097033977,1346.9668912642362) scale(0.027595579437518742)"><ns0:metadata>
Created by potrace 1.16, written by Peter Selinger 2001-2019
</ns0:metadata>
<ns0:g transform="translate(0.000000,213.000000) scale(0.100000,-0.100000)" fill="#000000" stroke="none">
<ns0:path d="M1026 1982 c-3 -6 -14 -8 -24 -5 -25 6 -50 -26 -61 -78 -6 -24 -20 -89 -31 -144 -12 -55 -39 -153 -62 -218 -22 -65 -37 -124 -34 -132 6 -17 -57 -172 -83 -199 -14 -16 -17 -27 -10 -43 7 -20 11 -22 34 -11 13 6 39 36 57 67 28 49 33 53 36 32 2 -13 -1 -43 -7 -67 -6 -23 -11 -121 -11 -217 0 -123 -4 -178 -12 -189 -25 -31 -239 -128 -282 -128 -8 0 -19 -7 -26 -15 -26 -31 -41 -6 -20 33 28 52 81 176 101 236 12 38 28 80 35 94 7 14 10 30 7 35 -9 14 -53 -40 -53 -64 0 -10 -4 -19 -9 -19 -11 0 -46 -57 -91 -146 -29 -59 -55 -92 -65 -82 -12 12 20 187 43 231 13 26 21 54 18 62 -9 23 -37 31 -47 12 -5 -8 -25 -21 -43 -27 -40 -13 -61 -35 -62 -64 -2 -64 -28 -263 -45 -336 -10 -47 -21 -116 -24 -155 -4 -38 -13 -87 -22 -107 -9 -21 -13 -47 -9 -62 7 -30 49 -61 70 -53 17 7 106 181 106 208 0 10 6 33 14 51 8 18 19 46 25 62 l12 29 23 -22 c37 -35 91 -28 193 25 48 26 97 53 108 60 11 8 23 14 27 14 12 0 9 -213 -3 -268 -11 -45 -10 -54 8 -84 24 -41 56 -41 94 1 25 28 199 121 225 121 8 0 54 21 104 47 50 25 92 44 94 42 2 -2 9 -56 15 -119 7 -63 16 -132 22 -154 17 -62 10 -67 -63 -50 -35 7 -76 20 -93 27 -127 58 -155 70 -161 65 -11 -12 15 -45 53 -64 21 -10 54 -31 73 -46 48 -36 239 -118 275 -118 8 0 19 18 26 43 10 35 8 65 -9 177 -23 148 -27 191 -42 447 -7 117 -7 199 0 254 10 80 10 82 69 145 94 100 97 139 6 79 -31 -21 -58 -35 -61 -33 -2 3 0 49 6 102 12 114 56 232 127 338 52 79 54 111 9 116 -33 4 -76 -15 -76 -34 0 -7 -13 -22 -30 -34 -16 -12 -30 -26 -30 -31 0 -34 -192 -216 -309 -293 -74 -49 -151 -128 -151 -157 0 -38 66 -73 95 -49 8 7 15 17 15 23 0 13 188 194 221 212 l25 14 -4 -142 c-5 -156 -9 -167 -71 -193 -18 -8 -35 -14 -37 -14 -11 0 -2 39 16 68 11 17 23 50 26 72 9 53 -16 65 -55 27 -14 -14 -45 -43 -68 -63 -48 -40 -54 -70 -31 -147 12 -38 11 -41 -18 -64 -16 -13 -47 -29 -69 -35 -22 -7 -51 -19 -63 -27 -18 -11 -25 -12 -31 -2 -10 16 -4 235 8 312 6 34 8 66 5 70 -3 5 2 19 10 31 9 12 16 38 16 56 0 19 8 46 18 60 39 56 63 115 53 125 -10 10 -72 -37 -110 -82 -14 -17 -14 -15 12 40 25 57 168 192 240 229 39 20 99 88 95 108 -5 27 -65 28 -93 2 -32 -30 -157 -110 -173 -110 -8 0 -11 7 -8 18 18 62 46 199 46 225 0 36 -14 65 -24 49z m-155 -669 c-12 -20 -14 -14 -5 12 4 9 9 14 11 11 3 -2 0 -13 -6 -23z m439 -435 c0 -46 3 -134 7 -195 l6 -113 -31 0 c-17 0 -41 -4 -54 -9 -13 -5 -59 -19 -103 -31 -44 -13 -94 -29 -112 -36 -53 -24 -94 -29 -104 -13 -14 22 -11 176 5 213 15 35 63 76 91 76 9 0 40 14 70 30 30 17 65 30 80 30 20 0 28 8 41 38 13 32 73 89 97 91 4 1 7 -36 7 -81z" />
<ns0:path d="M1008 694 c-41 -18 -55 -43 -38 -73 17 -33 45 -43 88 -31 20 5 51 10 67 10 44 0 140 52 140 76 0 17 -8 19 -85 20 -47 1 -96 4 -110 7 -14 4 -41 0 -62 -9z" />
<ns0:path d="M252 1753 c-23 -28 -23 -72 0 -99 10 -13 12 -22 34 -149 9 -49 22 -119 31 -155 11 -48 13 -93 8 -170 l-6 -105 20 24 c12 13 21 29 21 36 0 7 9 24 20 37 25 32 38 117 28 188 -34 255 -36 310 -13 322 31 18 11 68 -27 68 -10 0 -21 7 -24 15 -10 26 -67 19 -92 -12z" />
</ns0:g>
</g><g transform="translate(-0.68900879694678,1434.7758854922956) scale(0.027595579437518742)"><ns0:metadata>
Created by potrace 1.16, written by Peter Selinger 2001-2019
</ns0:metadata>
<ns0:g transform="translate(0.000000,207.000000) scale(0.100000,-0.100000)" fill="#000000" stroke="none">
<ns0:path d="M483 1669 c-20 -20 -15 -64 10 -86 12 -11 40 -26 62 -33 22 -7 47 -18 55 -25 67 -55 241 -122 303 -116 30 3 33 -8 16 -58 -10 -27 -28 -39 -138 -93 -118 -57 -181 -97 -224 -140 -10 -10 -22 -18 -27 -18 -14 0 -22 -57 -11 -79 20 -36 42 -51 76 -51 71 0 135 43 135 92 0 20 6 31 23 37 12 5 33 21 46 35 26 28 52 37 30 10 -7 -8 -14 -25 -15 -37 -1 -12 -9 -42 -17 -67 -9 -25 -28 -83 -42 -130 -14 -47 -35 -103 -45 -125 -33 -73 -88 -259 -92 -310 -2 -38 0 -50 12 -53 14 -2 52 72 101 196 5 12 13 22 19 22 5 0 10 10 10 23 0 12 6 31 14 42 7 11 25 53 40 94 15 41 30 80 35 88 9 17 13 8 65 -147 40 -122 81 -193 155 -276 29 -33 58 -69 63 -81 6 -12 23 -26 39 -32 26 -9 30 -7 52 33 23 40 24 49 16 122 -5 44 -13 106 -19 139 -9 55 -7 229 5 380 9 103 62 295 95 342 17 23 30 45 30 50 0 5 15 32 34 61 38 59 49 145 21 156 -21 8 -56 -7 -80 -34 -11 -13 -44 -38 -72 -57 -29 -18 -67 -47 -83 -63 -17 -17 -35 -30 -39 -30 -5 0 -22 -7 -37 -15 -57 -30 -66 -17 -35 51 43 95 35 154 -22 154 -35 0 -55 -28 -78 -111 -29 -108 -25 -102 -56 -81 -45 31 -136 88 -162 102 -27 14 -72 64 -83 92 -4 10 -14 19 -23 19 -8 1 -27 3 -42 4 -16 1 -46 5 -68 9 -28 5 -44 4 -52 -5z m723 -311 c-2 -7 -9 -33 -15 -58 -6 -25 -19 -83 -31 -130 -11 -47 -23 -130 -26 -185 -3 -55 -7 -111 -9 -125 -1 -14 0 -82 4 -153 4 -82 2 -127 -4 -127 -22 1 -84 69 -114 124 -17 33 -35 64 -40 70 -4 6 -11 20 -13 31 -3 11 -9 28 -13 37 -5 13 -2 15 17 11 13 -3 32 -12 43 -20 36 -24 85 -11 85 24 0 20 -77 99 -110 113 -24 10 -35 9 -61 -4 -18 -9 -34 -14 -36 -12 -4 3 24 82 78 222 21 55 70 102 149 145 25 13 49 30 53 37 4 6 17 12 27 12 11 0 18 -6 16 -12z" />
</ns0:g>
</g><g transform="translate(-2.4085527209084603,1504.8624202861408) scale(0.027595579437518742)"><ns0:metadata>
Created by potrace 1.16, written by Peter Selinger 2001-2019
</ns0:metadata>
<ns0:g transform="translate(0.000000,217.000000) scale(0.100000,-0.100000)" fill="#000000" stroke="none">
<ns0:path d="M1144 1990 c-30 -12 -38 -28 -39 -80 l0 -45 -115 3 c-70 1 -125 -2 -142 -9 -32 -13 -45 -48 -29 -77 6 -12 11 -23 11 -26 0 -4 -52 -34 -180 -102 -84 -45 -133 -79 -151 -104 -41 -59 -30 -94 36 -112 89 -24 137 -5 114 46 -14 29 -11 32 67 81 17 11 50 32 72 47 71 48 85 47 141 -12 44 -47 52 -51 87 -48 29 2 42 9 49 26 13 29 25 28 25 -2 0 -41 -90 -118 -189 -161 -25 -11 -73 -35 -108 -52 -48 -25 -76 -33 -116 -33 -29 0 -58 -5 -65 -12 -16 -16 -15 -133 2 -183 31 -92 36 -114 38 -171 1 -33 -2 -65 -6 -72 -4 -7 -5 -24 -2 -38 5 -19 12 -25 29 -22 17 2 27 17 45 68 23 66 24 100 6 251 -6 45 -5 46 26 52 17 4 43 19 58 35 15 16 54 41 87 57 33 16 83 43 112 61 40 26 53 30 57 18 10 -25 22 -19 67 32 9 11 36 34 60 52 197 146 279 203 289 197 3 -2 1 -37 -6 -77 -7 -40 -15 -102 -18 -138 -21 -222 -18 -216 -120 -270 -33 -17 -74 -42 -92 -55 -18 -14 -47 -28 -64 -31 -29 -6 -30 -5 -30 29 0 52 26 106 55 113 14 3 25 11 25 16 0 15 -48 58 -65 58 -8 0 -17 5 -20 10 -8 13 -51 13 -74 0 -16 -8 -19 -29 -26 -152 -7 -142 -15 -178 -38 -178 -7 0 -41 -19 -77 -43 -120 -78 -185 -115 -212 -122 -15 -4 -32 -13 -39 -21 -6 -8 -19 -14 -28 -14 -9 0 -43 -15 -76 -33 -50 -27 -61 -37 -63 -61 -4 -31 27 -65 59 -66 21 0 121 41 134 55 6 7 44 31 85 55 41 24 84 52 95 61 11 10 37 25 58 34 20 8 37 20 37 26 0 5 5 7 10 4 6 -3 8 -16 5 -28 -3 -12 -7 -41 -9 -65 -4 -30 -12 -49 -28 -61 -13 -10 -43 -34 -68 -53 -39 -29 -100 -101 -150 -178 -8 -12 -22 -32 -31 -44 -38 -52 -119 -257 -119 -303 0 -49 40 -39 65 17 10 21 28 49 41 61 14 13 24 34 24 51 0 15 4 28 10 28 5 0 19 19 31 42 45 89 185 288 202 288 5 0 7 -12 3 -28 -3 -15 -13 -94 -21 -176 -16 -160 -11 -232 21 -281 20 -30 35 -32 59 -5 14 15 16 29 11 67 -6 47 4 189 24 328 5 39 18 133 29 210 22 158 47 220 101 260 19 14 38 25 43 25 5 0 41 25 80 55 39 30 75 55 80 55 5 0 7 -15 3 -32 -20 -106 -20 -110 -1 -107 18 4 41 43 86 145 37 82 45 116 74 294 34 213 46 272 62 296 13 21 23 65 26 119 2 26 -2 30 -25 33 -41 5 -92 -27 -288 -181 -60 -46 -111 -77 -130 -77 -21 0 -21 3 -15 52 11 78 27 107 76 135 41 23 61 31 167 63 62 19 56 66 -11 77 -34 5 -125 -19 -179 -48 -14 -7 -18 -1 -24 39 -10 69 -23 81 -70 62z m-54 -272 c0 -29 -41 -88 -60 -87 -8 0 -26 14 -39 30 -28 35 -21 47 37 65 54 17 62 16 62 -8z" />
<ns0:path d="M1143 504 c-9 -24 31 -77 77 -101 60 -32 240 -93 274 -93 15 0 43 -7 63 -15 43 -18 107 -20 121 -2 6 6 12 29 13 49 4 43 -23 73 -52 57 -9 -4 -19 -6 -21 -3 -7 7 -181 34 -187 29 -2 -3 -9 -1 -15 4 -6 5 -40 26 -76 47 -53 30 -76 37 -128 40 -47 2 -65 -1 -69 -12z" />
</ns0:g>
</g></svg>