<?xml version='1.0' encoding='utf-8'?>
<svg xmlns:ns0="http://www.w3.org/2000/svg" xmlns="http://www.w3.org/2000/svg" width="224" height="150" viewBox="0 0 224 150"><g transform="translate(2.413276254363325,-106.51515027149198) scale(0.06330851737199739)"><ns0:metadata>
Created by potrace 1.16, written by Peter Selinger 2001-2019
</ns0:metadata>
<ns0:g transform="translate(0.000000,207.000000) scale(0.100000,-0.100000)" fill="#000000" stroke="none">
<ns0:path d="M840 1478 c-39 -43 -12 -98 50 -98 40 0 51 -12 44 -49 -7 -32 -82 -116 -148 -166 -44 -33 -56 -46 -56 -59 0 -29 34 -41 129 -46 108 -6 110 -8 91 -79 -16 -59 -120 -179 -186 -215 -48 -26 -54 -32 -54 -61 0 -27 5 -34 25 -39 31 -8 90 16 104 42 6 12 21 24 33 28 41 13 96 65 139 131 36 57 43 75 47 135 6 93 -5 111 -79 135 -62 19 -74 37 -36 54 12 6 38 36 57 67 27 45 34 68 35 108 0 62 -20 89 -79 106 -23 6 -45 15 -50 20 -17 14 -45 9 -66 -14z" />
</ns0:g>
</g><g transform="translate(27.540167152532774,-120.88808950137602) scale(0.06330851737199739)"><ns0:metadata>
Created by potrace 1.16, written by Peter Selinger 2001-2019
</ns0:metadata>
<ns0:g transform="translate(0.000000,213.000000) scale(0.100000,-0.100000)" fill="#000000" stroke="none">
<ns0:path d="M1263 1463 c-38 -7 -193 -184 -228 -261 -14 -30 -14 -43 5 -145 28 -152 36 -189 44 -208 7 -16 -36 -71 -124 -159 -14 -14 -37 -47 -50 -73 l-25 -48 23 -20 c15 -11 38 -18 60 -18 21 0 96 -4 167 -9 143 -11 238 0 271 30 16 14 21 44 15 87 0 4 -26 28 -58 52 -87 68 -133 119 -133 148 0 14 34 94 75 178 41 84 79 170 83 190 8 39 -3 130 -18 148 -5 6 -11 28 -15 50 -12 63 -24 71 -92 58z m15 -168 c32 -69 -10 -190 -94 -275 -21 -21 -30 -3 -44 82 l-12 68 62 75 c35 41 66 75 70 75 4 0 12 -11 18 -25z m-75 -604 c31 -27 66 -52 77 -56 29 -9 21 -37 -14 -46 -16 -5 -51 -4 -79 2 -27 5 -64 9 -81 9 -51 0 -63 13 -41 47 32 50 66 93 74 93 4 0 33 -22 64 -49z" />
</ns0:g>
</g></svg>