<?xml version='1.0' encoding='utf-8'?>
<svg xmlns:ns0="http://www.w3.org/2000/svg" xmlns="http://www.w3.org/2000/svg" width="207" height="121" viewBox="0 0 207 121"><g transform="translate(1.414040116783923,-95.04586681248969) scale(0.051068870680077885)"><ns0:metadata>
Created by potrace 1.16, written by Peter Selinger 2001-2019
</ns0:metadata>
<ns0:g transform="translate(0.000000,208.000000) scale(0.100000,-0.100000)" fill="#000000" stroke="none">
<ns0:path d="M912 1298 c-29 -8 -72 -53 -72 -77 0 -10 61 -61 74 -61 4 0 22 12 41 26 24 18 43 24 66 22 48 -5 55 -24 42 -112 -17 -121 -150 -366 -198 -366 -12 0 -24 -9 -102 -76 -48 -40 -56 -79 -25 -107 26 -24 59 -21 96 9 173 141 192 152 346 204 115 39 130 47 130 65 0 27 -86 22 -193 -12 -44 -13 -82 -22 -85 -18 -5 5 19 57 57 125 10 17 23 48 45 102 8 20 17 65 21 101 6 54 4 70 -14 106 -30 58 -72 82 -142 79 -30 -1 -69 -6 -87 -10z" />
</ns0:g>
</g><g transform="translate(-2.2596636486327384,58.11535869828282) scale(0.051068870680077885)"><ns0:metadata>
Created by potrace 1.16, written by Peter Selinger 2001-2019
</ns0:metadata>
<ns0:g transform="translate(0.000000,206.000000) scale(0.100000,-0.100000)" fill="#000000" stroke="none">
<ns0:path d="M988 1436 c-15 -8 -48 -14 -74 -14 -25 0 -51 -5 -56 -10 -6 -6 -17 -59 -24 -119 -8 -59 -23 -135 -34 -168 -22 -70 -41 -285 -30 -341 10 -50 18 -70 48 -118 23 -38 25 -38 73 -34 40 4 61 15 121 61 115 88 187 166 238 261 20 35 21 45 12 115 -20 149 -54 229 -119 275 -24 16 -45 37 -48 45 -4 13 -66 61 -77 61 -2 0 -15 -6 -30 -14z m39 -113 c65 -64 93 -107 117 -180 14 -43 26 -89 26 -102 0 -54 -117 -195 -204 -246 -90 -52 -106 -14 -76 175 12 74 23 146 25 160 8 53 33 142 44 153 6 6 11 21 11 32 0 43 19 45 57 8z" />
</ns0:g>
</g><g transform="translate(-2.9614800324967234,193.1840372975223) scale(0.051068870680077885)"><ns0:metadata>
Created by potrace 1.16, written by Peter Selinger 2001-2019
</ns0:metadata>
<ns0:g transform="translate(0.000000,207.000000) scale(0.100000,-0.100000)" fill="#000000" stroke="none">
<ns0:path d="M1467 1412 c-10 -10 -17 -21 -17 -24 0 -10 49 -15 53 -5 2 6 11 6 25 -2 18 -10 22 -9 22 3 0 9 -13 22 -30 31 -36 19 -34 19 -53 -3z" />
<ns0:path d="M840 1261 c0 -6 -7 -11 -15 -11 -31 0 -31 -92 0 -104 9 -3 35 1 58 9 99 34 165 7 152 -63 -21 -114 -213 -390 -300 -431 -44 -21 -115 -92 -115 -115 0 -39 85 -61 111 -29 8 9 42 28 75 44 34 15 65 32 68 38 4 6 20 11 35 11 16 0 46 6 67 14 22 7 81 17 132 21 70 5 95 11 99 23 4 8 -1 20 -11 27 -22 16 -181 27 -229 16 -51 -12 -55 2 -14 52 19 23 37 52 41 64 4 12 21 33 37 47 31 26 81 125 94 184 19 90 -25 182 -96 196 -68 14 -189 19 -189 7z" />
</ns0:g>
</g><g transform="translate(1.7468829400471577,344.87433337908647) scale(0.051068870680077885)"><ns0:metadata>
Created by potrace 1.16, written by Peter Selinger 2001-2019
</ns0:metadata>
<ns0:g transform="translate(0.000000,208.000000) scale(0.100000,-0.100000)" fill="#000000" stroke="none">
<ns0:path d="M791 1371 c-12 -12 -21 -31 -21 -43 0 -13 -12 -50 -25 -83 -28 -68 -32 -88 -11 -59 26 35 29 5 7 -68 -23 -79 -27 -158 -11 -204 18 -51 72 -78 163 -83 l79 -3 -7 -52 c-4 -28 -16 -76 -26 -106 -23 -66 -24 -100 -4 -100 33 0 99 96 130 190 14 43 32 83 38 88 7 5 36 15 65 22 59 14 68 26 74 101 3 39 0 45 -26 58 -27 13 -31 12 -48 -9 -10 -12 -18 -28 -18 -36 0 -8 -4 -14 -10 -14 -13 0 -13 15 -1 38 5 9 15 39 22 66 7 27 26 64 42 83 33 37 30 58 -8 73 -93 35 -128 -9 -166 -210 -7 -36 -16 -67 -20 -70 -5 -3 -36 -5 -69 -4 -82 2 -104 21 -95 83 4 25 16 79 27 120 11 42 22 85 25 96 2 11 -2 47 -10 80 -13 56 -15 60 -45 63 -21 2 -37 -3 -51 -17z" />
</ns0:g>
</g><g transform="translate(1.9725743523933943,492.77285933188716) scale(0.051068870680077885)"><ns0:metadata>
Created by potrace 1.16, written by Peter Selinger 2001-2019
</ns0:metadata>
<ns0:g transform="translate(0.000000,211.000000) scale(0.100000,-0.100000)" fill="#000000" stroke="none">
<ns0:path d="M1255 970 c-3 -5 -20 -9 -38 -8 -53 2 -72 -16 -106 -99 -34 -84 -40 -155 -16 -186 7 -11 32 -23 55 -28 37 -9 47 -6 88 19 41 25 48 35 64 89 16 55 17 66 5 102 -8 23 -11 45 -6 53 5 7 9 25 9 41 0 22 -4 27 -24 27 -14 0 -28 -4 -31 -10z" />
</ns0:g>
</g><g transform="translate(17.681134673479107,485.1209947712972) scale(0.051068870680077885)"><ns0:metadata>
Created by potrace 1.16, written by Peter Selinger 2001-2019
</ns0:metadata>
<ns0:g transform="translate(0.000000,206.000000) scale(0.100000,-0.100000)" fill="#000000" stroke="none">
<ns0:path d="M1199 1320 c-33 -17 -38 -26 -53 -87 -9 -37 -20 -99 -26 -138 -13 -100 -45 -249 -69 -325 -12 -36 -21 -79 -21 -97 0 -18 -6 -52 -14 -75 -8 -24 -17 -61 -21 -83 -3 -22 -8 -50 -11 -62 -3 -17 2 -23 27 -28 57 -13 78 27 120 230 10 50 27 119 37 155 11 36 30 112 42 170 13 58 29 112 36 120 6 8 15 33 19 55 3 22 14 48 22 57 18 20 13 48 -17 96 -23 37 -23 37 -71 12z" />
</ns0:g>
</g><g transform="translate(25.168005361251602,484.8289729320203) scale(0.051068870680077885)"><ns0:metadata>
Created by potrace 1.16, written by Peter Selinger 2001-2019
</ns0:metadata>
<ns0:g transform="translate(0.000000,205.000000) scale(0.100000,-0.100000)" fill="#000000" stroke="none">
<ns0:path d="M802 1318 c-45 -67 -75 -135 -68 -153 5 -14 9 -15 21 -5 12 10 15 10 15 -3 0 -9 -4 -27 -10 -41 -5 -14 -16 -76 -25 -138 -17 -125 -33 -223 -41 -251 -5 -15 -8 -16 -20 -6 -29 24 -38 -4 -24 -78 21 -111 57 -151 107 -118 25 17 27 22 42 145 23 192 62 413 78 443 9 18 20 52 24 77 4 25 10 62 14 82 4 20 5 48 1 62 -5 22 -12 26 -46 26 -35 0 -42 -5 -68 -42z" />
</ns0:g>
</g><g transform="translate(26.694690890191936,497.0962844135569) scale(0.051068870680077885)"><ns0:metadata>
Created by potrace 1.16, written by Peter Selinger 2001-2019
</ns0:metadata>
<ns0:g transform="translate(0.000000,210.000000) scale(0.100000,-0.100000)" fill="#000000" stroke="none">
<ns0:path d="M1210 915 c-14 -7 -33 -16 -43 -19 -40 -13 -65 -149 -32 -176 8 -7 15 -18 15 -24 0 -7 13 -25 29 -40 28 -27 29 -27 67 -11 49 20 71 41 96 89 31 60 20 107 -34 156 -47 43 -61 46 -98 25z" />
</ns0:g>
</g><g transform="translate(25.882116439318906,486.2071583436274) scale(0.051068870680077885)"><ns0:metadata>
Created by potrace 1.16, written by Peter Selinger 2001-2019
</ns0:metadata>
<ns0:g transform="translate(0.000000,206.000000) scale(0.100000,-0.100000)" fill="#000000" stroke="none">
<ns0:path d="M832 1494 c-13 -9 -22 -26 -22 -40 0 -26 -5 -26 -57 -7 -25 10 -43 -44 -53 -157 -5 -63 -17 -158 -26 -210 -37 -223 -43 -284 -33 -329 21 -93 91 -146 174 -130 49 9 156 79 198 129 52 61 65 320 25 491 -12 52 -21 118 -20 148 2 72 -9 88 -63 97 -25 3 -45 10 -45 15 0 15 -54 10 -78 -7z m63 -98 c10 4 15 0 15 -15 0 -12 12 -79 28 -149 30 -141 34 -248 13 -350 -12 -53 -20 -67 -52 -93 -48 -38 -101 -54 -129 -39 -17 9 -20 20 -19 73 0 61 3 81 32 247 8 47 20 137 27 200 14 145 13 142 45 130 13 -5 32 -7 40 -4z" />
</ns0:g>
</g><g transform="translate(2.3077998676636753,634.1465429238176) scale(0.051068870680077885)"><ns0:metadata>
Created by potrace 1.16, written by Peter Selinger 2001-2019
</ns0:metadata>
<ns0:g transform="translate(0.000000,213.000000) scale(0.100000,-0.100000)" fill="#000000" stroke="none">
<ns0:path d="M1278 1556 c-15 -6 -40 -24 -55 -38 -36 -34 -185 -108 -217 -108 -14 0 -28 5 -31 10 -9 15 -32 12 -96 -12 -81 -31 -89 -62 -28 -107 l30 -22 92 21 c58 14 113 34 148 56 31 19 60 34 64 34 14 0 -4 -98 -33 -182 -16 -46 -35 -108 -42 -138 -6 -30 -26 -98 -43 -150 -28 -86 -31 -107 -32 -222 0 -118 2 -129 22 -149 21 -21 23 -21 47 -5 25 16 26 21 26 104 1 95 6 127 40 247 12 44 29 105 37 135 19 71 61 194 83 245 9 22 22 67 29 100 8 33 21 74 30 90 26 48 29 69 13 88 -17 19 -45 21 -84 3z" />
</ns0:g>
</g></svg>