<?xml version='1.0' encoding='utf-8'?>
<svg xmlns:ns0="http://www.w3.org/2000/svg" xmlns="http://www.w3.org/2000/svg" width="249" height="109" viewBox="0 0 249 109"><g transform="translate(2.805729208767332,-88.75707981638537) scale(0.0460041892903181)"><ns0:metadata>
Created by potrace 1.16, written by Peter Selinger 2001-2019
</ns0:metadata>
<ns0:g transform="translate(0.000000,206.000000) scale(0.100000,-0.100000)" fill="#000000" stroke="none">
<ns0:path d="M1199 1320 c-33 -17 -38 -26 -53 -87 -9 -37 -20 -99 -26 -138 -13 -100 -45 -249 -69 -325 -12 -36 -21 -79 -21 -97 0 -18 -6 -52 -14 -75 -8 -24 -17 -61 -21 -83 -3 -22 -8 -50 -11 -62 -3 -17 2 -23 27 -28 57 -13 78 27 120 230 10 50 27 119 37 155 11 36 30 112 42 170 13 58 29 112 36 120 6 8 15 33 19 55 3 22 14 48 22 57 18 20 13 48 -17 96 -23 37 -23 37 -71 12z" />
</ns0:g>
</g><g transform="translate(2.8794054178050033,41.69127138352388) scale(0.0460041892903181)"><ns0:metadata>
Created by potrace 1.16, written by Peter Selinger 2001-2019
</ns0:metadata>
<ns0:g transform="translate(0.000000,214.000000) scale(0.100000,-0.100000)" fill="#000000" stroke="none">
<ns0:path d="M1150 1448 c-42 -12 -82 -46 -179 -152 -88 -97 -101 -125 -101 -213 0 -63 3 -72 44 -133 47 -71 47 -82 -1 -114 -43 -29 -96 -106 -104 -153 -6 -28 -4 -55 5 -80 11 -32 24 -44 87 -78 112 -61 180 -79 277 -77 85 2 98 7 120 48 9 17 8 31 -5 65 -9 24 -23 51 -30 60 -7 8 -13 18 -13 22 0 3 -31 53 -70 110 -38 57 -70 110 -70 118 0 16 94 111 126 127 28 15 94 73 94 84 0 15 -62 8 -88 -10 -46 -32 -52 -34 -52 -18 0 8 25 44 55 80 62 73 63 76 50 216 -5 60 -12 88 -24 97 -19 15 -72 15 -121 1z m36 -144 c2 -25 6 -53 9 -63 4 -12 -6 -29 -31 -52 -51 -49 -109 -128 -124 -171 -13 -35 -15 -37 -32 -22 -21 20 -38 70 -34 104 2 14 4 37 5 51 0 15 18 44 44 71 23 25 53 58 67 73 28 31 81 67 89 59 2 -2 6 -25 7 -50z m-138 -548 c17 -24 39 -56 47 -73 8 -16 26 -40 41 -54 32 -30 57 -76 48 -90 -15 -25 -189 17 -233 56 -25 23 -31 36 -31 69 1 34 8 49 43 88 23 26 44 47 47 47 3 0 20 -19 38 -43z" />
</ns0:g>
</g><g transform="translate(-1.500892247687318,183.27904202097903) scale(0.0460041892903181)"><ns0:metadata>
Created by potrace 1.16, written by Peter Selinger 2001-2019
</ns0:metadata>
<ns0:g transform="translate(0.000000,206.000000) scale(0.100000,-0.100000)" fill="#000000" stroke="none">
<ns0:path d="M1020 1511 c-17 -5 -26 -16 -30 -36 -3 -18 -15 -34 -28 -41 -44 -22 -55 -57 -90 -299 -21 -148 -20 -340 3 -365 8 -9 15 -26 15 -39 0 -12 6 -37 14 -56 19 -46 54 -54 109 -27 23 11 65 24 92 27 62 9 71 16 102 80 79 163 90 203 94 340 6 233 -3 325 -33 325 -6 0 -27 14 -49 31 -21 16 -55 33 -76 36 -21 3 -47 12 -58 19 -21 15 -27 16 -65 5z m115 -114 c60 -34 66 -55 66 -225 0 -142 -11 -210 -40 -246 -5 -6 -14 -29 -21 -50 -19 -58 -62 -96 -109 -96 -37 0 -39 1 -55 53 -17 53 -16 54 18 213 19 87 40 180 46 206 7 26 9 56 5 67 -3 10 -1 22 5 26 5 3 10 22 10 41 0 41 17 44 75 11z" />
</ns0:g>
</g><g transform="translate(2.0772196071758344,324.4968536926483) scale(0.0460041892903181)"><ns0:metadata>
Created by potrace 1.16, written by Peter Selinger 2001-2019
</ns0:metadata>
<ns0:g transform="translate(0.000000,210.000000) scale(0.100000,-0.100000)" fill="#000000" stroke="none">
<ns0:path d="M1689 1316 c-35 -35 -43 -46 -119 -159 -38 -56 -84 -120 -103 -142 -32 -36 -37 -39 -63 -30 -32 12 -90 84 -127 159 -23 47 -56 80 -82 82 -5 0 -22 6 -37 14 -38 18 -108 5 -157 -30 -22 -17 -45 -30 -49 -30 -5 0 -34 -24 -65 -52 -52 -48 -57 -57 -57 -94 0 -34 4 -43 25 -52 14 -7 30 -12 34 -12 5 0 47 38 93 85 68 69 90 85 114 85 45 0 72 -25 110 -104 19 -39 40 -78 47 -86 21 -28 107 -69 158 -76 l48 -6 57 58 c31 33 65 79 76 103 10 24 31 62 46 85 15 23 38 64 51 91 13 28 30 58 38 67 16 18 14 59 -3 65 -6 2 -21 -7 -35 -21z" />
</ns0:g>
</g><g transform="translate(1.120121793249666,444.4809658957722) scale(0.0460041892903181)"><ns0:metadata>
Created by potrace 1.16, written by Peter Selinger 2001-2019
</ns0:metadata>
<ns0:g transform="translate(0.000000,206.000000) scale(0.100000,-0.100000)" fill="#000000" stroke="none">
<ns0:path d="M1261 1449 c-32 -26 -41 -81 -47 -284 -2 -88 -10 -214 -18 -280 -7 -66 -9 -130 -5 -141 4 -12 5 -31 3 -41 -3 -11 1 -25 10 -32 12 -10 20 -7 45 16 27 24 32 37 37 93 9 116 36 284 51 327 10 28 13 60 10 95 -4 29 -3 83 1 121 9 75 -3 118 -37 136 -25 14 -21 14 -50 -10z" />
</ns0:g>
</g><g transform="translate(2.520664641873225,569.5596790624638) scale(0.0460041892903181)"><ns0:metadata>
Created by potrace 1.16, written by Peter Selinger 2001-2019
</ns0:metadata>
<ns0:g transform="translate(0.000000,213.000000) scale(0.100000,-0.100000)" fill="#000000" stroke="none">
<ns0:path d="M1263 1463 c-38 -7 -193 -184 -228 -261 -14 -30 -14 -43 5 -145 28 -152 36 -189 44 -208 7 -16 -36 -71 -124 -159 -14 -14 -37 -47 -50 -73 l-25 -48 23 -20 c15 -11 38 -18 60 -18 21 0 96 -4 167 -9 143 -11 238 0 271 30 16 14 21 44 15 87 0 4 -26 28 -58 52 -87 68 -133 119 -133 148 0 14 34 94 75 178 41 84 79 170 83 190 8 39 -3 130 -18 148 -5 6 -11 28 -15 50 -12 63 -24 71 -92 58z m15 -168 c32 -69 -10 -190 -94 -275 -21 -21 -30 -3 -44 82 l-12 68 62 75 c35 41 66 75 70 75 4 0 12 -11 18 -25z m-75 -604 c31 -27 66 -52 77 -56 29 -9 21 -37 -14 -46 -16 -5 -51 -4 -79 2 -27 5 -64 9 -81 9 -51 0 -63 13 -41 47 32 50 66 93 74 93 4 0 33 -22 64 -49z" />
</ns0:g>
</g><g transform="translate(2.447810630077754,703.5413208798427) scale(0.0460041892903181)"><ns0:metadata>
Created by potrace 1.16, written by Peter Selinger 2001-2019
</ns0:metadata>
<ns0:g transform="translate(0.000000,206.000000) scale(0.100000,-0.100000)" fill="#000000" stroke="none">
<ns0:path d="M988 1436 c-15 -8 -48 -14 -74 -14 -25 0 -51 -5 -56 -10 -6 -6 -17 -59 -24 -119 -8 -59 -23 -135 -34 -168 -22 -70 -41 -285 -30 -341 10 -50 18 -70 48 -118 23 -38 25 -38 73 -34 40 4 61 15 121 61 115 88 187 166 238 261 20 35 21 45 12 115 -20 149 -54 229 -119 275 -24 16 -45 37 -48 45 -4 13 -66 61 -77 61 -2 0 -15 -6 -30 -14z m39 -113 c65 -64 93 -107 117 -180 14 -43 26 -89 26 -102 0 -54 -117 -195 -204 -246 -90 -52 -106 -14 -76 175 12 74 23 146 25 160 8 53 33 142 44 153 6 6 11 21 11 32 0 43 19 45 57 8z" />
</ns0:g>
</g></svg>