<?xml version='1.0' encoding='utf-8'?>
<svg xmlns:ns0="http://www.w3.org/2000/svg" xmlns="http://www.w3.org/2000/svg" width="221" height="122" viewBox="0 0 221 122"><g transform="translate(-2.9987919669232497,-53.80237198828311) scale(0.025110836974942156)"><ns0:metadata>
Created by potrace 1.16, written by Peter Selinger 2001-2019
</ns0:metadata>
<ns0:g transform="translate(0.000000,204.000000) scale(0.100000,-0.100000)" fill="#000000" stroke="none">
<ns0:path d="M1213 1938 c-13 -6 -23 -17 -23 -23 0 -7 -6 -18 -14 -24 -7 -6 -21 -59 -32 -119 -17 -97 -22 -110 -52 -139 -18 -18 -38 -33 -43 -33 -5 0 -22 -11 -37 -25 -15 -14 -36 -28 -47 -31 -29 -10 -115 -84 -115 -100 0 -7 -15 -20 -34 -28 -18 -8 -37 -19 -40 -25 -22 -35 -38 25 -25 93 4 23 10 58 14 78 5 33 12 41 49 57 59 27 72 45 58 76 -13 28 -38 32 -66 10 -22 -17 -56 -20 -56 -6 0 6 4 12 9 15 5 4 12 24 16 47 4 22 13 43 21 46 8 3 14 16 14 29 0 31 -60 58 -107 49 -39 -7 -49 -35 -59 -167 l-7 -86 -48 -42 c-32 -27 -49 -50 -49 -65 0 -32 37 -75 64 -75 26 0 36 -29 36 -105 0 -51 -9 -60 -115 -115 -98 -51 -135 -82 -135 -115 0 -24 40 -55 71 -55 6 0 40 23 76 51 36 28 67 49 69 46 9 -8 7 -41 -5 -101 -6 -33 -11 -85 -11 -115 0 -56 -24 -192 -38 -218 -5 -7 -6 -29 -4 -48 4 -34 5 -35 48 -35 42 0 44 1 53 38 23 85 39 183 46 277 8 125 21 194 39 214 8 9 20 38 27 64 9 36 19 51 39 62 16 8 38 30 50 50 20 32 25 35 54 29 29 -5 40 1 97 50 35 30 65 49 67 43 1 -7 -13 -53 -32 -102 -51 -135 -60 -155 -67 -155 -3 0 -18 11 -33 25 -32 30 -100 35 -110 9 -14 -36 -4 -63 38 -105 l44 -44 -25 -50 c-14 -27 -38 -65 -53 -85 -15 -19 -37 -52 -49 -73 -19 -31 -20 -38 -8 -43 26 -9 141 89 217 185 l25 32 50 -16 c28 -9 59 -20 70 -25 127 -53 214 -51 203 6 -4 22 -73 57 -145 75 -30 7 -57 19 -60 26 -3 7 -11 13 -17 13 -7 0 -20 6 -30 13 -18 13 -15 25 34 132 14 29 36 101 55 173 9 35 26 82 38 105 22 44 141 167 160 167 9 0 13 -83 15 -303 5 -437 5 -462 2 -570 -2 -54 1 -102 6 -106 18 -17 51 -21 68 -8 16 12 20 37 27 183 5 93 6 219 3 279 -10 159 -10 147 -1 425 5 140 6 267 2 283 -9 34 -41 36 -79 6 -24 -19 -29 -20 -44 -6 -9 8 -41 20 -70 26 -62 13 -60 13 -89 -1z m147 -67 c0 -13 -90 -84 -98 -77 -11 11 21 60 48 73 29 15 50 17 50 4z" />
<ns0:path d="M591 498 l-43 -20 6 -44 c6 -44 21 -84 54 -141 17 -29 19 -30 30 -12 7 10 23 19 37 19 21 0 25 5 25 29 0 17 -4 33 -10 36 -13 8 -13 62 1 70 5 4 15 18 20 32 20 54 -38 69 -120 31z" />
<ns0:path d="M1519 481 c-58 -59 -26 -160 82 -261 44 -40 56 -45 97 -34 30 9 28 34 -7 66 -44 42 -81 129 -81 192 0 40 -4 55 -16 60 -29 11 -45 6 -75 -23z" />
<ns0:path d="M1113 443 c-33 -22 -28 -45 15 -80 30 -24 45 -29 83 -27 57 2 109 28 109 54 0 25 -7 28 -63 32 -34 2 -47 8 -51 21 -5 22 -62 22 -93 0z" />
<ns0:path d="M860 383 c-38 -15 -41 -66 -5 -89 35 -23 88 -26 152 -9 70 18 73 21 73 60 l0 35 -62 -2 c-35 -2 -81 1 -103 4 -22 4 -47 5 -55 1z" />
</ns0:g>
</g><g transform="translate(0.0387780502115902,13.368535642701204) scale(0.025110836974942156)"><ns0:metadata>
Created by potrace 1.16, written by Peter Selinger 2001-2019
</ns0:metadata>
<ns0:g transform="translate(0.000000,205.000000) scale(0.100000,-0.100000)" fill="#000000" stroke="none">
<ns0:path d="M1317 1628 l-27 -20 0 -132 0 -132 -29 -22 c-16 -12 -61 -37 -100 -56 -38 -18 -83 -43 -98 -53 -15 -11 -59 -37 -98 -58 -129 -71 -205 -134 -205 -169 0 -25 44 -66 72 -66 23 0 108 58 108 74 0 7 14 19 30 26 17 7 30 16 30 20 0 7 105 80 116 80 3 0 20 10 37 23 18 12 49 30 70 39 34 16 38 16 44 2 3 -9 2 -113 -2 -232 -5 -119 -8 -246 -7 -282 2 -93 -9 -104 -53 -57 -19 20 -39 37 -45 37 -5 0 -32 21 -61 46 -28 25 -62 49 -75 54 -36 14 -29 36 31 95 58 56 67 80 37 90 -23 7 -104 -37 -131 -71 -13 -17 -29 -24 -52 -24 -42 0 -95 -31 -104 -61 -10 -29 25 -59 69 -59 17 0 46 -9 63 -20 30 -18 53 -35 202 -152 30 -24 78 -67 106 -97 49 -51 54 -54 69 -38 36 36 44 103 50 437 7 317 7 327 32 390 19 47 35 72 61 90 19 14 42 33 51 43 9 9 20 17 25 17 16 0 117 53 117 62 0 4 18 11 40 14 53 9 77 39 53 66 -23 25 -51 23 -129 -13 -38 -17 -94 -42 -124 -56 -30 -14 -62 -31 -71 -39 -15 -13 -17 -13 -23 2 -4 9 0 27 9 40 8 13 15 30 15 38 0 10 13 16 43 18 34 2 42 7 42 23 0 14 -10 23 -32 30 -18 6 -45 20 -60 31 -56 41 -66 44 -96 22z" />
<ns0:path d="M500 1207 c-31 -15 -33 -49 -4 -61 34 -15 50 -97 34 -172 -30 -140 -21 -344 17 -418 17 -33 19 -135 3 -164 -5 -9 -19 -41 -31 -70 -23 -56 -50 -82 -85 -82 -23 0 -54 -29 -54 -51 0 -34 25 -50 85 -55 113 -8 250 -27 268 -36 10 -5 26 -11 35 -13 9 -3 34 -9 55 -15 20 -5 54 -14 75 -20 57 -15 306 -12 402 5 47 8 105 17 130 19 25 3 52 7 60 9 163 50 193 63 210 87 12 17 15 32 9 47 -7 21 -9 21 -55 7 -26 -8 -66 -14 -88 -14 -23 0 -54 -7 -71 -16 -36 -19 -115 -31 -300 -47 -169 -15 -290 -3 -410 38 -44 16 -100 32 -125 37 -59 11 -68 13 -74 19 -9 9 43 149 55 149 4 0 11 25 14 55 6 44 3 62 -14 98 -12 24 -21 54 -21 68 0 13 -12 72 -27 132 -27 112 -27 128 9 217 6 14 13 71 15 127 l6 101 -34 10 c-19 5 -41 13 -49 16 -8 3 -26 0 -40 -7z" />
</ns0:g>
</g><g transform="translate(-1.66765333300998,84.99543700139688) scale(0.025110836974942156)"><ns0:metadata>
Created by potrace 1.16, written by Peter Selinger 2001-2019
</ns0:metadata>
<ns0:g transform="translate(0.000000,207.000000) scale(0.100000,-0.100000)" fill="#000000" stroke="none">
<ns0:path d="M981 1953 l-34 -14 6 -107 c3 -59 12 -138 21 -177 8 -38 18 -91 21 -116 l7 -45 -87 -75 c-48 -41 -103 -89 -122 -108 -42 -40 -62 -32 -44 20 6 17 11 50 11 73 0 51 17 113 33 123 19 11 47 55 47 71 0 11 -8 13 -29 9 -26 -5 -28 -4 -23 16 3 12 12 27 20 33 22 16 11 46 -25 67 -64 37 -97 -3 -109 -131 l-7 -70 -99 -93 c-113 -105 -125 -125 -100 -169 26 -45 75 -42 130 8 23 22 42 46 42 54 0 9 7 22 17 29 15 13 16 8 11 -54 -5 -59 -10 -73 -37 -101 -17 -17 -47 -58 -67 -91 -31 -52 -35 -66 -29 -101 5 -36 3 -44 -17 -60 -54 -43 -71 -92 -44 -123 11 -13 12 -27 3 -73 -12 -69 -2 -88 51 -88 38 0 160 57 199 93 26 23 25 25 42 -81 14 -89 14 -122 1 -122 -11 0 -228 -144 -284 -189 -21 -17 -43 -31 -49 -31 -6 0 -24 -11 -41 -24 -17 -13 -50 -33 -72 -44 -37 -19 -104 -92 -104 -114 0 -5 11 -20 25 -33 19 -20 34 -25 72 -25 27 0 73 -6 103 -14 178 -44 413 -57 446 -24 25 25 37 143 31 307 l-6 154 33 33 c19 19 41 34 50 34 9 0 38 16 65 35 27 20 51 32 54 28 3 -4 12 -42 22 -83 9 -41 23 -96 31 -122 8 -26 14 -54 14 -63 0 -8 4 -23 10 -33 5 -9 28 -60 51 -112 23 -52 54 -113 68 -134 14 -21 31 -46 36 -55 25 -39 33 -41 143 -41 129 0 122 -8 122 138 0 62 -7 116 -20 164 -11 40 -20 89 -20 108 0 20 -5 41 -11 47 -17 17 -41 200 -48 363 l-6 145 -42 3 c-37 3 -45 -1 -87 -44 -25 -25 -67 -84 -93 -130 -48 -84 -69 -105 -57 -59 3 14 2 25 -4 25 -10 0 -26 97 -37 225 -4 39 -13 120 -21 180 -10 76 -13 143 -8 215 l7 105 68 58 c37 31 71 57 76 57 16 0 51 44 58 72 6 23 2 29 -27 44 -20 11 -50 17 -78 15 -25 -1 -65 -3 -90 -4 l-45 -2 4 91 c3 84 1 92 -20 116 -30 33 -65 40 -108 21z m75 -292 c-13 -20 -26 -11 -26 16 0 25 1 26 16 11 9 -9 13 -21 10 -27z m169 9 c11 -18 -61 -80 -95 -80 -14 0 -13 47 3 57 12 8 66 30 79 32 4 0 9 -3 13 -9z m-198 -418 c45 -381 56 -523 42 -537 -8 -7 -50 -31 -94 -53 -65 -33 -81 -38 -88 -26 -4 8 -6 62 -4 121 4 99 6 108 28 123 50 33 69 60 63 88 -12 51 -22 54 -109 26 -43 -14 -85 -29 -91 -35 -6 -5 -14 -26 -17 -47 -6 -34 -13 -40 -68 -69 -34 -18 -65 -30 -70 -27 -19 11 34 97 86 139 20 17 55 47 78 68 23 20 44 37 48 37 4 0 10 8 13 18 3 9 26 28 51 42 25 14 45 28 45 33 0 4 14 13 30 18 22 8 30 17 30 35 0 53 -59 38 -194 -50 -111 -73 -116 -74 -76 -30 19 21 39 42 44 45 14 11 125 109 176 156 30 28 48 38 55 32 6 -5 15 -54 22 -107z m394 -439 c0 -5 4 -57 9 -118 12 -140 25 -226 38 -251 5 -10 15 -74 21 -141 23 -257 10 -315 -51 -229 -17 25 -36 46 -40 46 -18 0 -121 250 -158 382 -20 71 -20 79 -6 107 9 17 25 35 35 41 11 5 29 27 42 47 48 81 107 143 110 116z m-626 -482 c7 -120 1 -196 -17 -218 -22 -28 -219 -1 -340 46 -43 16 -37 27 44 76 9 6 60 44 113 85 53 41 113 87 132 103 20 15 42 27 48 27 9 0 15 -35 20 -119z" />
</ns0:g>
</g><g transform="translate(2.6867370364858516,159.10585405059845) scale(0.025110836974942156)"><ns0:metadata>
Created by potrace 1.16, written by Peter Selinger 2001-2019
</ns0:metadata>
<ns0:g transform="translate(0.000000,206.000000) scale(0.100000,-0.100000)" fill="#000000" stroke="none">
<ns0:path d="M1407 1911 c-22 -26 -24 -37 -21 -110 3 -88 4 -86 -70 -149 -36 -30 -33 -71 7 -90 15 -7 27 -19 27 -27 0 -12 -42 -70 -61 -85 -4 -3 -23 -26 -42 -52 -50 -66 -208 -219 -221 -215 -6 2 -14 35 -17 73 -4 38 -14 86 -23 108 -15 36 -18 38 -49 32 -38 -8 -60 -33 -52 -61 12 -37 24 -120 24 -176 1 -44 -3 -60 -19 -74 -24 -22 -25 -37 -4 -80 14 -30 13 -39 -10 -126 -28 -107 -82 -284 -96 -314 -12 -27 -30 -96 -30 -118 0 -33 54 -53 187 -68 180 -20 387 -18 442 5 24 9 45 15 48 13 2 -3 25 3 51 13 52 20 77 52 61 82 -10 18 -49 26 -49 10 0 -28 -269 -49 -384 -30 -28 4 -71 11 -96 13 -93 11 -122 17 -126 30 -3 7 6 48 20 91 55 171 95 311 101 351 4 23 12 46 18 52 16 13 170 91 180 91 5 0 22 9 39 21 16 12 32 19 35 16 3 -3 2 -36 -2 -74 -7 -66 -8 -69 -56 -107 -27 -21 -51 -47 -54 -57 -4 -11 -10 -19 -15 -19 -14 0 -180 -207 -180 -224 0 -11 9 -16 28 -16 21 0 40 12 68 43 22 23 54 54 72 70 18 15 32 31 32 36 0 5 16 19 35 32 19 13 36 31 39 39 2 8 2 -3 0 -25 -2 -22 -6 -80 -9 -130 -3 -49 -11 -114 -17 -143 -10 -44 -9 -55 3 -62 19 -12 56 24 64 64 4 17 13 40 20 51 7 11 20 65 30 120 21 118 34 151 35 84 0 -31 6 -51 18 -62 30 -27 94 -42 176 -41 87 1 106 13 106 65 0 41 -22 52 -100 50 -80 -2 -99 6 -157 66 l-42 43 13 88 c20 121 22 131 51 187 19 38 36 56 70 74 55 29 104 89 84 102 -20 12 -28 11 -78 -11 -24 -11 -45 -19 -47 -17 -11 10 33 237 46 237 10 0 50 81 50 102 0 9 -16 23 -36 33 l-35 17 2 80 c2 69 -1 83 -16 95 -27 19 -40 16 -68 -16z m-61 -533 c-3 -13 -6 -35 -6 -50 0 -27 -12 -37 -127 -111 -22 -14 -14 9 17 49 80 106 104 134 113 134 5 0 7 -10 3 -22z m-486 -772 c0 -8 -4 -18 -10 -21 -5 -3 -10 3 -10 14 0 12 5 21 10 21 6 0 10 -6 10 -14z" />
<ns0:path d="M830 1737 c-18 -9 -32 -32 -50 -82 -28 -77 -84 -190 -99 -199 -5 -3 -27 -39 -49 -79 -22 -39 -58 -97 -81 -127 -23 -30 -41 -63 -41 -73 0 -58 55 -80 116 -48 51 28 67 27 59 -1 -11 -34 -63 -137 -148 -293 -9 -16 -17 -35 -17 -41 0 -7 -15 -25 -33 -41 -19 -16 -41 -45 -51 -63 -16 -32 -15 -34 6 -57 25 -27 64 -24 110 8 14 11 30 19 35 19 4 1 26 9 48 20 83 40 85 19 11 -82 -84 -114 -167 -216 -219 -270 -57 -59 -61 -90 -17 -113 29 -15 34 -15 75 6 60 30 139 105 165 157 23 46 20 78 -5 68 -27 -10 -5 44 39 101 80 101 116 167 116 216 0 27 -6 49 -15 57 -15 12 -67 10 -114 -5 -22 -8 -23 -6 -17 21 4 16 16 38 26 49 10 11 28 40 39 65 12 25 25 52 30 60 27 45 43 104 43 162 0 115 3 108 -42 108 -22 0 -40 2 -40 3 0 10 32 67 41 72 15 10 88 121 116 178 15 28 34 57 42 64 23 17 20 106 -4 133 -21 23 -40 25 -75 7z" />
</ns0:g>
</g><g transform="translate(-0.7607898646832609,228.23544964967) scale(0.025110836974942156)"><ns0:metadata>
Created by potrace 1.16, written by Peter Selinger 2001-2019
</ns0:metadata>
<ns0:g transform="translate(0.000000,205.000000) scale(0.100000,-0.100000)" fill="#000000" stroke="none">
<ns0:path d="M833 1670 c-26 -11 -32 -60 -9 -79 7 -6 16 -32 19 -59 4 -26 9 -57 13 -68 5 -17 -6 -30 -58 -70 -35 -26 -93 -65 -130 -85 -66 -36 -70 -37 -143 -32 -65 5 -78 3 -96 -13 -18 -17 -20 -26 -14 -77 3 -32 15 -93 26 -135 15 -57 21 -120 24 -242 6 -226 13 -285 37 -307 19 -17 21 -17 39 6 10 13 20 37 20 55 1 17 3 112 5 211 7 355 7 350 26 347 25 -4 56 15 109 65 25 25 55 50 66 56 11 7 39 25 62 41 23 16 45 26 49 22 11 -11 19 -288 9 -309 -5 -10 -23 -25 -40 -32 -18 -7 -53 -33 -79 -58 -63 -59 -65 -93 -9 -134 l39 -28 -36 -50 c-20 -27 -49 -70 -66 -95 -56 -85 -180 -219 -201 -220 -6 0 -19 -14 -29 -30 -20 -36 -13 -50 34 -70 34 -14 42 -10 133 64 30 24 68 51 85 60 16 8 32 22 35 31 7 16 32 20 41 7 5 -8 2 -22 -29 -137 -7 -27 -12 -75 -10 -105 2 -30 4 -63 4 -73 1 -24 58 -56 161 -90 73 -24 101 -28 200 -29 131 0 247 23 330 67 14 7 50 20 80 28 30 7 81 31 114 53 32 21 68 44 79 51 12 7 25 20 28 30 11 27 -1 113 -22 155 -11 21 -19 46 -19 56 0 11 -11 40 -25 66 -14 26 -25 54 -25 62 0 21 -28 17 -40 -6 -17 -32 -15 -170 3 -214 25 -57 21 -70 -25 -100 -46 -30 -179 -86 -204 -86 -8 0 -28 -7 -44 -15 -19 -10 -83 -19 -180 -25 -146 -10 -151 -10 -205 13 -64 27 -109 63 -101 82 3 8 10 41 16 75 6 33 21 93 34 133 13 39 27 87 31 104 3 18 10 33 14 33 5 0 26 -14 47 -31 32 -26 44 -29 74 -24 41 8 64 26 79 63 23 58 61 366 61 498 0 73 6 178 12 235 15 124 13 306 -3 325 -6 8 -19 14 -29 14 -16 0 -137 -73 -150 -91 -10 -12 -72 -40 -78 -35 -3 4 -20 39 -37 79 -33 77 -51 88 -102 67z m295 -310 c-6 -63 -12 -189 -12 -280 -1 -91 -7 -196 -13 -235 -7 -38 -17 -106 -23 -150 -14 -93 -22 -106 -50 -80 -26 23 -25 29 5 59 45 45 23 80 -36 56 -16 -7 -32 -10 -35 -7 -3 3 2 36 11 74 14 54 18 120 20 328 2 143 6 268 10 277 9 22 117 90 126 80 4 -4 3 -59 -3 -122z m-298 -724 c0 -19 -37 -63 -45 -54 -4 3 3 20 16 37 26 35 29 37 29 17z" />
</ns0:g>
</g><g transform="translate(-2.448996861971409,298.35298762643833) scale(0.025110836974942156)"><ns0:metadata>
Created by potrace 1.16, written by Peter Selinger 2001-2019
</ns0:metadata>
<ns0:g transform="translate(0.000000,205.000000) scale(0.100000,-0.100000)" fill="#000000" stroke="none">
<ns0:path d="M1328 2017 c37 -63 45 -104 32 -155 -20 -83 -111 -201 -181 -237 -44 -24 -54 -9 -36 56 38 137 28 238 -26 274 -51 33 -115 -15 -90 -68 40 -83 41 -138 7 -297 -14 -65 -15 -82 -4 -95 14 -17 40 -20 40 -5 0 6 10 10 23 10 12 0 30 9 40 20 23 27 46 25 57 -4 5 -13 14 -27 20 -31 24 -15 52 -115 32 -115 -5 0 -44 -20 -88 -45 -83 -48 -104 -54 -104 -31 0 18 -27 29 -36 14 -4 -6 -44 -28 -90 -49 -80 -37 -83 -40 -86 -75 -3 -33 -8 -39 -57 -65 -30 -16 -60 -34 -67 -40 -20 -17 -126 -79 -134 -79 -3 0 -31 -17 -62 -37 -80 -56 -91 -62 -118 -75 -14 -6 -49 -34 -77 -62 -43 -40 -53 -57 -53 -83 0 -27 6 -35 34 -48 30 -14 40 -15 70 -4 20 7 36 16 36 20 0 11 149 159 161 159 6 0 42 20 80 45 132 85 166 96 139 45 -6 -11 -15 -43 -20 -72 -6 -29 -19 -83 -31 -120 -34 -111 -8 -115 64 -10 25 37 53 86 62 110 19 46 22 48 50 29 54 -36 198 -47 283 -22 41 13 53 21 58 41 9 37 -7 49 -47 35 -38 -13 -121 -15 -135 -2 -5 5 -18 11 -29 13 -13 2 -22 14 -25 33 -5 28 -8 30 -48 29 -48 -2 -54 11 -24 60 19 31 57 55 217 137 55 28 107 57 116 65 8 8 20 14 26 14 6 0 26 11 45 23 19 13 48 27 64 31 16 4 43 18 59 30 43 32 113 52 133 39 13 -7 26 -5 54 9 78 41 31 96 -72 86 -28 -3 -58 -13 -68 -22 -10 -9 -43 -23 -73 -31 -30 -9 -64 -21 -77 -27 -17 -9 -25 -9 -34 0 -13 13 -15 71 -3 115 7 25 5 28 -24 33 -37 8 -38 11 -8 46 68 81 82 102 113 168 9 19 22 42 30 51 16 18 13 115 -6 167 -12 31 -13 32 -72 32 l-60 0 20 -33z" />
<ns0:path d="M768 1943 c-18 -22 -13 -50 11 -58 31 -10 100 -93 107 -130 10 -55 -32 -132 -120 -220 -92 -92 -111 -96 -102 -25 4 28 11 61 16 73 15 33 27 192 17 215 -15 34 -53 45 -93 26 l-34 -16 0 -208 c0 -240 -1 -237 78 -216 38 10 66 27 114 71 35 32 66 66 70 76 4 10 16 22 27 28 29 16 101 165 101 210 0 63 -19 110 -63 151 -32 32 -49 40 -77 40 -23 0 -43 -7 -52 -17z" />
<ns0:path d="M1262 598 c-28 -30 -28 -39 1 -65 14 -13 43 -23 80 -28 68 -8 74 -17 57 -83 -10 -37 -28 -61 -79 -110 -36 -35 -73 -68 -83 -73 -16 -8 -18 -5 -20 23 -5 114 -25 239 -42 272 -18 34 -59 76 -74 76 -8 0 -27 -10 -44 -21 -34 -25 -33 -45 6 -107 31 -51 43 -86 56 -164 15 -94 6 -141 -31 -157 -32 -14 -39 -52 -15 -83 17 -23 79 -24 97 -1 8 9 33 28 56 42 82 51 200 179 233 253 6 13 17 34 25 48 8 14 15 40 15 59 0 43 -48 91 -117 115 -81 30 -96 30 -121 4z" />
<ns0:path d="M653 522 c-13 -4 -32 -15 -43 -24 -38 -33 -23 -58 65 -109 54 -32 60 -39 62 -70 1 -19 -5 -43 -15 -56 -19 -25 -170 -105 -183 -97 -11 6 -1 32 29 72 33 43 19 61 -28 37 -45 -23 -128 -110 -136 -141 -10 -41 24 -79 72 -80 21 -1 44 2 49 6 6 5 28 11 50 15 43 8 145 61 185 98 14 12 36 37 49 55 47 67 26 187 -40 226 -16 9 -34 29 -41 44 -14 28 -37 35 -75 24z" />
</ns0:g>
</g><g transform="translate(0.09269664390990329,391.78482869970105) scale(0.025110836974942156)"><ns0:metadata>
Created by potrace 1.16, written by Peter Selinger 2001-2019
</ns0:metadata>
<ns0:g transform="translate(0.000000,210.000000) scale(0.100000,-0.100000)" fill="#000000" stroke="none">
<ns0:path d="M756 1009 c-35 -51 -5 -121 57 -133 20 -4 50 0 74 8 37 13 223 15 348 4 l30 -3 -2 63 c-1 35 -3 65 -5 67 -2 1 -112 6 -244 10 l-242 7 -16 -23z" />
</ns0:g>
</g><g transform="translate(1.6233309981873845,451.20188685442974) scale(0.025110836974942156)"><ns0:metadata>
Created by potrace 1.16, written by Peter Selinger 2001-2019
</ns0:metadata>
<ns0:g transform="translate(0.000000,208.000000) scale(0.100000,-0.100000)" fill="#000000" stroke="none">
<ns0:path d="M1252 1562 c-12 -8 -22 -24 -22 -37 0 -12 -9 -48 -19 -81 -10 -32 -24 -90 -31 -129 -18 -104 -25 -133 -55 -210 -15 -38 -40 -118 -55 -176 -15 -59 -31 -112 -34 -118 -7 -10 -77 -45 -80 -39 -20 42 -38 76 -46 88 -5 8 -21 42 -36 75 -27 60 -31 71 -54 133 -19 49 -16 129 11 258 l23 116 -23 20 c-17 13 -27 16 -35 8 -5 -5 -18 -10 -28 -10 -11 0 -18 -7 -18 -18 0 -11 -9 -27 -20 -37 -12 -10 -19 -24 -16 -30 4 -11 -15 -117 -50 -275 -9 -41 -20 -95 -25 -120 -24 -116 -85 -328 -101 -350 -10 -14 -30 -68 -44 -120 l-25 -95 26 -22 c14 -13 32 -23 39 -23 42 0 110 157 127 295 11 88 40 212 61 265 l14 34 31 -67 c18 -36 43 -79 57 -94 14 -15 26 -32 26 -38 0 -27 65 -155 82 -161 19 -6 24 -24 9 -39 -4 -6 -14 -32 -21 -58 -12 -45 -12 -49 10 -72 36 -38 65 -33 88 18 12 23 24 60 28 82 4 22 26 92 50 155 23 63 52 153 64 200 12 46 29 105 40 130 47 117 60 161 74 245 7 50 23 109 35 130 11 22 21 45 21 51 0 6 7 17 15 24 28 23 11 97 -23 101 -4 0 -16 2 -28 3 -11 1 -30 -4 -42 -12z" />
</ns0:g>
</g><g transform="translate(-2.956623055191244,519.9470343164691) scale(0.025110836974942156)"><ns0:metadata>
Created by potrace 1.16, written by Peter Selinger 2001-2019
</ns0:metadata>
<ns0:g transform="translate(0.000000,212.000000) scale(0.100000,-0.100000)" fill="#000000" stroke="none">
<ns0:path d="M1439 1893 c-58 -6 -137 -88 -189 -196 -23 -48 -49 -110 -58 -139 -14 -42 -23 -53 -47 -61 -16 -5 -38 -16 -47 -24 -19 -17 -94 -193 -102 -240 -8 -48 9 -48 38 0 l26 42 -6 -115 c-8 -143 -16 -200 -29 -203 -5 -1 -14 13 -20 31 -5 17 -12 32 -16 32 -18 0 -12 -59 10 -109 24 -54 24 -55 8 -120 -9 -36 -19 -93 -23 -126 -9 -85 -48 -198 -78 -228 -30 -30 -35 -81 -10 -91 36 -14 63 -5 91 29 35 42 89 190 98 270 12 107 51 195 87 195 7 0 28 10 47 23 20 13 60 39 88 58 29 19 53 39 53 44 0 6 19 28 41 50 22 22 52 58 66 80 15 22 34 48 41 57 23 28 112 228 112 252 0 12 5 27 10 32 27 27 38 197 20 301 -11 62 -19 80 -49 113 -38 41 -80 52 -162 43z m104 -135 c21 -42 25 -207 8 -293 -35 -174 -147 -377 -268 -484 -60 -54 -133 -95 -144 -83 -4 4 -4 28 1 53 5 25 12 97 16 160 4 65 15 140 26 174 10 33 23 89 27 125 14 105 106 272 193 350 33 29 49 36 82 35 37 0 43 -3 59 -37z" />
<ns0:path d="M1283 877 c-18 -5 -33 -14 -33 -19 0 -6 -10 -18 -22 -28 l-23 -18 26 -10 c14 -6 52 -35 84 -66 31 -31 61 -56 66 -56 4 0 32 -19 61 -43 67 -54 183 -127 202 -127 8 0 28 16 45 35 52 59 36 142 -20 107 -28 -18 -37 -15 -93 22 -63 42 -208 162 -219 181 -13 25 -40 32 -74 22z" />
</ns0:g>
</g><g transform="translate(-0.9730880354940155,597.4015412070609) scale(0.025110836974942156)"><ns0:metadata>
Created by potrace 1.16, written by Peter Selinger 2001-2019
</ns0:metadata>
<ns0:g transform="translate(0.000000,207.000000) scale(0.100000,-0.100000)" fill="#000000" stroke="none">
<ns0:path d="M1467 1412 c-10 -10 -17 -21 -17 -24 0 -10 49 -15 53 -5 2 6 11 6 25 -2 18 -10 22 -9 22 3 0 9 -13 22 -30 31 -36 19 -34 19 -53 -3z" />
<ns0:path d="M840 1261 c0 -6 -7 -11 -15 -11 -31 0 -31 -92 0 -104 9 -3 35 1 58 9 99 34 165 7 152 -63 -21 -114 -213 -390 -300 -431 -44 -21 -115 -92 -115 -115 0 -39 85 -61 111 -29 8 9 42 28 75 44 34 15 65 32 68 38 4 6 20 11 35 11 16 0 46 6 67 14 22 7 81 17 132 21 70 5 95 11 99 23 4 8 -1 20 -11 27 -22 16 -181 27 -229 16 -51 -12 -55 2 -14 52 19 23 37 52 41 64 4 12 21 33 37 47 31 26 81 125 94 184 19 90 -25 182 -96 196 -68 14 -189 19 -189 7z" />
</ns0:g>
</g><g transform="translate(-1.0490743665083073,679.8964297463275) scale(0.025110836974942156)"><ns0:metadata>
Created by potrace 1.16, written by Peter Selinger 2001-2019
</ns0:metadata>
<ns0:g transform="translate(0.000000,210.000000) scale(0.100000,-0.100000)" fill="#000000" stroke="none">
<ns0:path d="M935 1134 c-55 -7 -128 -13 -163 -12 -53 1 -66 -2 -87 -22 -35 -33 -32 -66 8 -90 18 -12 41 -18 52 -15 11 3 70 13 130 21 91 12 121 13 173 3 68 -14 107 -6 126 24 16 24 -2 48 -55 73 -66 32 -76 33 -184 18z" />
</ns0:g>
</g><g transform="translate(0.2944521578773447,739.2437474598355) scale(0.025110836974942156)"><ns0:metadata>
Created by potrace 1.16, written by Peter Selinger 2001-2019
</ns0:metadata>
<ns0:g transform="translate(0.000000,208.000000) scale(0.100000,-0.100000)" fill="#000000" stroke="none">
<ns0:path d="M912 1298 c-29 -8 -72 -53 -72 -77 0 -10 61 -61 74 -61 4 0 22 12 41 26 24 18 43 24 66 22 48 -5 55 -24 42 -112 -17 -121 -150 -366 -198 -366 -12 0 -24 -9 -102 -76 -48 -40 -56 -79 -25 -107 26 -24 59 -21 96 9 173 141 192 152 346 204 115 39 130 47 130 65 0 27 -86 22 -193 -12 -44 -13 -82 -22 -85 -18 -5 5 19 57 57 125 10 17 23 48 45 102 8 20 17 65 21 101 6 54 4 70 -14 106 -30 58 -72 82 -142 79 -30 -1 -69 -6 -87 -10z" />
</ns0:g>
</g><g transform="translate(1.941687759422166,806.6108518331372) scale(0.025110836974942156)"><ns0:metadata>
Created by potrace 1.16, written by Peter Selinger 2001-2019
</ns0:metadata>
<ns0:g transform="translate(0.000000,208.000000) scale(0.100000,-0.100000)" fill="#000000" stroke="none">
<ns0:path d="M1135 1490 c-11 -5 -37 -11 -58 -15 -50 -8 -72 -41 -64 -99 4 -24 2 -47 -4 -53 -5 -5 -12 -48 -14 -95 -2 -47 -12 -112 -23 -144 -40 -125 -54 -183 -48 -199 6 -18 69 -47 101 -48 11 0 64 6 119 12 54 7 101 10 104 7 9 -9 -30 -88 -65 -132 -18 -23 -33 -46 -33 -51 0 -6 -19 -26 -42 -46 -24 -19 -56 -47 -73 -63 -46 -42 -116 -84 -143 -84 -59 0 -83 -42 -34 -61 101 -39 305 81 413 242 52 77 70 122 81 201 11 69 10 71 -13 89 -33 26 -91 24 -248 -7 l-34 -7 5 40 c3 22 13 55 21 74 9 19 21 59 27 90 9 49 17 62 58 96 26 21 60 47 77 58 28 18 78 60 136 116 34 32 30 76 -8 85 -19 5 -32 -1 -56 -24 -18 -16 -52 -40 -76 -53 -24 -13 -55 -30 -68 -37 -32 -18 -40 -9 -19 22 16 25 23 97 9 95 -5 0 -17 -4 -28 -9z" />
</ns0:g>
</g><g transform="translate(-1.3871992293815083,876.3032006230087) scale(0.025110836974942156)"><ns0:metadata>
Created by potrace 1.16, written by Peter Selinger 2001-2019
</ns0:metadata>
<ns0:g transform="translate(0.000000,205.000000) scale(0.100000,-0.100000)" fill="#000000" stroke="none">
<ns0:path d="M1158 1526 c-69 -47 -85 -64 -91 -94 -3 -15 -35 -62 -71 -105 -72 -86 -90 -132 -100 -257 -4 -41 -11 -122 -18 -180 -17 -164 4 -209 183 -392 102 -103 123 -118 169 -118 43 0 77 30 86 77 5 25 2 32 -14 37 -11 4 -31 4 -44 1 -19 -5 -38 9 -105 75 -46 44 -83 84 -83 89 0 6 -8 16 -19 23 -10 7 -32 45 -48 84 -27 65 -29 78 -22 130 36 261 39 279 59 306 11 15 20 30 20 33 0 9 124 167 146 186 11 10 28 19 38 20 12 3 23 16 27 33 7 24 3 33 -21 57 -16 16 -32 29 -37 28 -4 -1 -29 -16 -55 -33z" />
</ns0:g>
</g><g transform="translate(-1.8526817704718042,958.5339495740784) scale(0.025110836974942156)"><ns0:metadata>
Created by potrace 1.16, written by Peter Selinger 2001-2019
</ns0:metadata>
<ns0:g transform="translate(0.000000,206.000000) scale(0.100000,-0.100000)" fill="#000000" stroke="none">
<ns0:path d="M1261 1449 c-32 -26 -41 -81 -47 -284 -2 -88 -10 -214 -18 -280 -7 -66 -9 -130 -5 -141 4 -12 5 -31 3 -41 -3 -11 1 -25 10 -32 12 -10 20 -7 45 16 27 24 32 37 37 93 9 116 36 284 51 327 10 28 13 60 10 95 -4 29 -3 83 1 121 9 75 -3 118 -37 136 -25 14 -21 14 -50 -10z" />
</ns0:g>
</g><g transform="translate(0.21675327836408087,1030.336804597901) scale(0.025110836974942156)"><ns0:metadata>
Created by potrace 1.16, written by Peter Selinger 2001-2019
</ns0:metadata>
<ns0:g transform="translate(0.000000,214.000000) scale(0.100000,-0.100000)" fill="#000000" stroke="none">
<ns0:path d="M1315 1450 c-3 -5 -22 -10 -41 -10 -19 0 -42 -4 -52 -9 -31 -16 -86 -30 -144 -36 -67 -8 -118 -36 -118 -65 0 -23 45 -70 67 -70 7 0 29 6 47 14 18 7 55 18 82 24 27 6 58 14 68 18 23 9 23 9 -38 -224 -47 -181 -52 -247 -26 -342 16 -57 25 -66 57 -54 l28 9 6 125 c7 138 24 211 94 400 54 146 60 185 34 211 -20 20 -54 25 -64 9z" />
</ns0:g>
</g><g transform="translate(-1.565482462270893,1102.2993642700233) scale(0.025110836974942156)"><ns0:metadata>
Created by potrace 1.16, written by Peter Selinger 2001-2019
</ns0:metadata>
<ns0:g transform="translate(0.000000,212.000000) scale(0.100000,-0.100000)" fill="#000000" stroke="none">
<ns0:path d="M934 1149 c-31 -4 -64 -22 -124 -67 -111 -84 -121 -98 -109 -148 9 -36 15 -42 51 -51 40 -11 41 -10 94 39 29 28 68 60 86 73 52 34 183 50 200 23 4 -7 8 -31 8 -53 0 -43 28 -113 51 -131 22 -18 84 -25 113 -15 30 12 233 200 259 241 15 24 15 29 3 40 -21 16 -103 -22 -176 -82 -117 -95 -126 -95 -141 -13 -10 56 -48 135 -67 143 -19 7 -198 8 -248 1z" />
</ns0:g>
</g><g transform="translate(1.5615352060784744,1165.6563917820413) scale(0.025110836974942156)"><ns0:metadata>
Created by potrace 1.16, written by Peter Selinger 2001-2019
</ns0:metadata>
<ns0:g transform="translate(0.000000,208.000000) scale(0.100000,-0.100000)" fill="#000000" stroke="none">
<ns0:path d="M871 1322 c-20 -20 -30 -42 -35 -79 -6 -47 -4 -56 21 -92 21 -30 35 -40 56 -41 21 0 30 -7 38 -27 16 -41 2 -130 -28 -183 -14 -25 -34 -61 -44 -80 -22 -44 -86 -106 -164 -158 -67 -45 -108 -93 -99 -117 3 -8 22 -22 41 -31 32 -16 35 -16 56 2 33 28 60 42 140 71 39 14 81 31 92 38 24 15 105 38 199 56 66 13 89 30 69 50 -16 16 -201 12 -255 -4 -39 -12 -48 -12 -48 -2 0 13 51 96 89 146 30 38 38 65 45 149 5 53 3 91 -7 130 -21 76 -26 88 -64 148 -38 61 -61 66 -102 24z" />
</ns0:g>
</g><g transform="translate(-0.32631441730984534,1232.3689022218934) scale(0.025110836974942156)"><ns0:metadata>
Created by potrace 1.16, written by Peter Selinger 2001-2019
</ns0:metadata>
<ns0:g transform="translate(0.000000,208.000000) scale(0.100000,-0.100000)" fill="#000000" stroke="none">
<ns0:path d="M958 1305 c-16 -9 -29 -21 -29 -28 -2 -24 3 -42 17 -58 8 -8 17 -37 20 -62 5 -38 3 -51 -11 -67 -15 -16 -15 -22 -5 -35 12 -15 9 -139 -6 -266 -8 -66 20 -95 103 -108 35 -5 78 -7 98 -4 54 9 45 -21 -27 -90 -73 -69 -172 -147 -186 -147 -6 0 -12 -4 -14 -9 -3 -7 -36 -27 -165 -97 -43 -23 -88 -40 -133 -48 -94 -18 -103 -23 -78 -44 19 -15 209 20 293 55 39 16 95 45 125 64 30 20 70 42 88 49 17 7 32 16 32 21 0 5 5 9 11 9 6 0 29 16 50 35 22 19 45 35 53 35 16 0 65 58 90 107 20 40 22 136 2 152 -14 12 -165 8 -198 -4 -8 -3 -20 1 -27 9 -10 12 -9 39 4 133 17 128 20 132 96 173 20 10 44 31 53 45 9 14 34 33 54 43 57 25 72 42 72 78 0 71 -26 82 -95 39 -50 -30 -63 -31 -67 -2 -3 20 -9 22 -58 23 -30 1 -73 5 -95 8 -27 4 -49 1 -67 -9z m183 -79 c-29 -30 -58 -39 -66 -19 -9 24 14 43 53 43 l35 0 -22 -24z" />
</ns0:g>
</g><g transform="translate(-2.359369480160808,1306.3622466619713) scale(0.025110836974942156)"><ns0:metadata>
Created by potrace 1.16, written by Peter Selinger 2001-2019
</ns0:metadata>
<ns0:g transform="translate(0.000000,207.000000) scale(0.100000,-0.100000)" fill="#000000" stroke="none">
<ns0:path d="M978 1329 c-50 -28 -40 -85 19 -116 19 -10 43 -22 54 -28 37 -19 50 -68 48 -183 -1 -59 -5 -125 -10 -147 -4 -22 -11 -67 -14 -100 -4 -33 -16 -85 -28 -116 -19 -48 -29 -60 -66 -80 -51 -27 -84 -74 -71 -99 12 -22 54 -31 72 -15 7 6 38 19 70 28 63 19 64 20 100 157 34 129 47 230 48 365 2 186 -3 206 -63 271 -28 30 -59 54 -68 54 -10 0 -21 5 -24 10 -8 13 -45 12 -67 -1z" />
</ns0:g>
</g><g transform="translate(-1.0704456909161308,1384.2813651441884) scale(0.025110836974942156)"><ns0:metadata>
Created by potrace 1.16, written by Peter Selinger 2001-2019
</ns0:metadata>
<ns0:g transform="translate(0.000000,206.000000) scale(0.100000,-0.100000)" fill="#000000" stroke="none">
<ns0:path d="M1113 1883 c-28 -6 -48 -38 -57 -92 -4 -24 -16 -64 -28 -90 -11 -25 -20 -59 -18 -76 1 -16 2 -42 3 -57 0 -43 25 -34 47 18 11 25 20 52 20 60 0 8 4 14 10 14 10 0 24 -45 40 -127 10 -57 38 -143 76 -239 14 -35 24 -69 22 -75 -6 -18 -123 -60 -198 -71 -36 -5 -79 -16 -97 -24 -17 -8 -37 -14 -44 -14 -7 0 -21 -7 -31 -17 -30 -27 -33 -6 -6 44 13 27 30 68 38 93 7 25 27 90 45 145 18 55 38 142 45 194 11 93 10 95 -12 117 -29 28 -72 22 -95 -13 -9 -14 -23 -66 -30 -116 -16 -110 -66 -314 -86 -354 -8 -15 -27 -64 -41 -108 -46 -135 -119 -329 -128 -340 -4 -5 -8 -23 -8 -41 0 -26 7 -36 36 -53 49 -29 67 -16 94 63 12 36 31 77 42 91 15 19 22 44 23 83 2 55 36 152 52 152 5 0 13 -10 18 -22 12 -29 75 -37 109 -15 12 9 54 23 92 32 38 10 74 21 79 25 6 4 34 13 64 20 68 16 73 10 95 -103 8 -45 22 -104 31 -131 l15 -49 -80 7 c-62 5 -80 4 -80 -6 0 -20 118 -88 151 -88 9 0 33 -7 54 -16 64 -27 79 -18 86 51 4 33 3 62 -1 65 -18 12 -60 121 -74 195 -24 120 -66 286 -81 320 -27 62 -66 194 -85 290 -45 230 -57 268 -79 264 -3 -1 -16 -4 -28 -6z m112 -433 c4 -6 1 -18 -6 -26 -11 -14 -13 -14 -21 0 -15 26 12 51 27 26z" />
</ns0:g>
</g><g transform="translate(-1.9331703131625773,1460.4130451701913) scale(0.025110836974942156)"><ns0:metadata>
Created by potrace 1.16, written by Peter Selinger 2001-2019
</ns0:metadata>
<ns0:g transform="translate(0.000000,210.000000) scale(0.100000,-0.100000)" fill="#000000" stroke="none">
<ns0:path d="M653 1020 c-13 -5 -23 -14 -23 -20 0 -20 28 -77 41 -86 33 -21 442 -56 487 -42 41 12 41 33 1 85 -28 36 -35 40 -59 33 -52 -15 -181 -3 -337 31 -51 11 -81 11 -110 -1z" />
</ns0:g>
</g><g transform="translate(-1.3717560078559927,1529.9257924649785) scale(0.025110836974942156)"><ns0:metadata>
Created by potrace 1.16, written by Peter Selinger 2001-2019
</ns0:metadata>
<ns0:g transform="translate(0.000000,209.000000) scale(0.100000,-0.100000)" fill="#000000" stroke="none">
<ns0:path d="M1120 1493 c-36 -14 -81 -37 -100 -51 -48 -35 -240 -232 -240 -247 0 -6 -16 -27 -36 -46 -39 -37 -81 -120 -90 -178 -3 -20 1 -54 9 -76 12 -35 23 -45 83 -76 104 -53 156 -67 299 -79 72 -6 139 -11 150 -13 39 -4 60 121 29 168 -20 31 -40 32 -50 3 -16 -52 -31 -57 -143 -48 -56 4 -108 13 -114 19 -6 6 -19 11 -28 11 -22 0 -109 57 -116 76 -7 19 15 80 41 112 13 15 26 36 30 48 3 11 17 27 31 34 14 7 27 21 30 31 4 10 39 52 78 93 61 63 82 78 134 95 34 12 73 21 86 21 30 0 74 40 82 73 6 21 2 28 -24 41 -41 22 -65 20 -141 -11z" />
</ns0:g>
</g><g transform="translate(-0.2629165289303046,1593.3003166290182) scale(0.025110836974942156)"><ns0:metadata>
Created by potrace 1.16, written by Peter Selinger 2001-2019
</ns0:metadata>
<ns0:g transform="translate(0.000000,206.000000) scale(0.100000,-0.100000)" fill="#000000" stroke="none">
<ns0:path d="M1243 1748 c-27 -30 -36 -154 -39 -583 -1 -176 -7 -396 -12 -490 -10 -186 -5 -215 44 -215 34 0 46 31 50 139 3 53 9 146 14 206 5 61 10 218 10 350 0 133 4 245 9 250 21 22 41 123 40 199 0 63 -5 90 -22 121 -27 49 -62 58 -94 23z" />
<ns0:path d="M794 1673 c-26 -40 -26 -90 2 -333 4 -30 7 -112 8 -181 1 -122 0 -127 -27 -166 -25 -36 -29 -73 -8 -73 19 0 28 -49 20 -105 -4 -33 -13 -116 -19 -185 -7 -69 -19 -137 -26 -152 -18 -35 -18 -62 1 -78 18 -15 63 -16 77 -2 12 12 47 206 47 262 1 19 8 90 17 158 15 111 19 124 39 132 13 5 29 17 36 27 8 11 41 37 74 59 33 21 67 46 76 55 8 8 25 22 38 31 19 14 21 19 12 37 -14 25 -54 28 -91 7 -55 -32 -145 -76 -154 -76 -8 0 -6 57 10 244 6 69 1 139 -22 282 -5 38 -46 84 -72 84 -11 0 -28 -12 -38 -27z" />
</ns0:g>
</g><g transform="translate(1.4148381623995192,1662.0707266085635) scale(0.025110836974942156)"><ns0:metadata>
Created by potrace 1.16, written by Peter Selinger 2001-2019
</ns0:metadata>
<ns0:g transform="translate(0.000000,208.000000) scale(0.100000,-0.100000)" fill="#000000" stroke="none">
<ns0:path d="M1538 1664 c-15 -8 -29 -22 -32 -32 -3 -9 -21 -73 -41 -142 -20 -69 -48 -161 -62 -205 -14 -44 -34 -109 -46 -145 -54 -174 -115 -321 -132 -316 -5 1 -22 45 -36 97 -14 52 -38 119 -52 151 -38 82 -68 179 -62 198 7 21 -11 37 -45 42 -21 2 -25 8 -22 33 8 81 6 98 -9 108 -12 8 -21 5 -37 -11 -12 -12 -26 -22 -30 -22 -14 0 -61 -79 -73 -123 -24 -91 -105 -325 -144 -415 -9 -20 -23 -52 -31 -70 -8 -18 -14 -43 -14 -55 0 -12 -18 -55 -40 -96 -22 -40 -50 -101 -61 -135 -11 -33 -32 -83 -45 -109 -39 -78 -29 -116 32 -120 20 -2 31 5 45 28 24 39 39 73 39 89 0 18 22 71 76 183 25 51 48 112 53 135 4 24 18 61 29 83 12 22 22 44 22 49 0 5 9 27 19 50 11 23 27 68 35 101 21 76 65 167 80 162 25 -8 130 -241 145 -320 6 -31 17 -70 26 -87 9 -17 18 -59 22 -93 5 -56 2 -71 -31 -150 -20 -48 -36 -94 -36 -102 0 -17 56 -55 82 -55 12 0 30 24 53 70 19 38 39 70 44 70 12 0 36 40 45 72 5 21 1 33 -15 49 -21 21 -21 22 -4 58 10 20 21 43 25 52 5 8 20 47 35 85 14 38 30 78 35 89 34 85 76 203 96 270 62 217 129 379 162 394 29 14 22 46 -16 78 -30 26 -45 27 -84 7z" />
</ns0:g>
</g><g transform="translate(-1.8749789488146007,1737.9926230307594) scale(0.025110836974942156)"><ns0:metadata>
Created by potrace 1.16, written by Peter Selinger 2001-2019
</ns0:metadata>
<ns0:g transform="translate(0.000000,211.000000) scale(0.100000,-0.100000)" fill="#000000" stroke="none">
<ns0:path d="M1035 1583 c-50 -6 -186 -44 -229 -63 -23 -10 -73 -28 -113 -40 -67 -20 -74 -26 -99 -68 l-27 -46 32 -28 c31 -27 71 -38 71 -18 0 6 22 10 50 10 48 0 100 16 100 30 0 12 139 80 144 71 3 -4 -1 -27 -8 -52 -7 -24 -19 -105 -25 -179 -6 -74 -16 -187 -22 -250 -12 -136 -15 -432 -5 -449 11 -18 55 -32 71 -24 19 11 65 81 65 98 0 8 -7 15 -15 15 -8 0 -18 12 -21 27 -7 25 1 326 10 388 2 17 7 68 11 115 4 47 13 101 20 120 28 76 46 150 43 172 -2 16 -13 26 -35 33 -61 17 -39 28 85 40 68 8 86 23 80 73 -3 27 -4 27 -78 28 -41 1 -88 0 -105 -3z" />
</ns0:g>
</g></svg>