<?xml version='1.0' encoding='utf-8'?>
<svg xmlns:ns0="http://www.w3.org/2000/svg" xmlns="http://www.w3.org/2000/svg" width="235" height="115" viewBox="0 0 235 115"><g transform="translate(-2.02890896289,-80.67936453292754) scale(0.03567880959119619)"><ns0:metadata>
Created by potrace 1.16, written by Peter Selinger 2001-2019
</ns0:metadata>
<ns0:g transform="translate(0.000000,204.000000) scale(0.100000,-0.100000)" fill="#000000" stroke="none">
<ns0:path d="M936 1781 c-34 -7 -47 -35 -34 -71 12 -31 23 -86 44 -209 15 -90 15 -95 -2 -108 -10 -7 -23 -13 -30 -13 -7 0 -24 -10 -38 -23 -13 -12 -44 -33 -68 -45 -23 -13 -59 -32 -78 -44 -19 -11 -41 -21 -50 -23 -86 -17 -95 -31 -86 -129 4 -39 9 -98 12 -131 3 -33 7 -145 9 -250 4 -210 16 -280 50 -280 14 0 21 8 23 25 5 34 28 58 66 66 17 4 47 15 66 25 36 19 70 25 70 12 0 -5 -9 -86 -21 -182 -21 -167 -22 -175 -5 -206 11 -19 33 -40 54 -49 43 -19 140 -38 153 -31 4 3 17 0 27 -6 12 -7 30 -9 48 -4 16 4 47 8 69 10 119 8 309 56 475 120 19 8 52 20 73 27 56 18 61 34 53 170 -8 144 -40 263 -71 263 -17 0 -21 -10 -27 -70 -4 -38 -6 -109 -3 -157 l4 -87 -52 -29 c-29 -16 -67 -32 -85 -35 -18 -4 -65 -21 -104 -38 -138 -60 -399 -84 -471 -42 -42 25 -55 48 -39 73 6 11 12 48 12 83 0 34 7 87 15 117 9 30 20 73 26 95 15 59 24 62 65 22 43 -42 74 -52 118 -37 67 22 90 96 106 340 31 472 31 474 18 550 -13 73 -14 75 -43 78 -21 2 -58 -11 -117 -42 -98 -51 -89 -56 -108 52 -22 123 -64 226 -90 221 -3 -1 -18 -4 -34 -8z m305 -432 c0 -250 -27 -633 -47 -671 -19 -38 -64 -38 -93 -2 l-20 26 25 40 c34 53 26 69 -28 66 -34 -2 -42 0 -39 12 30 118 32 150 29 358 -1 52 3 87 10 94 7 7 12 29 12 49 0 34 4 39 43 58 23 12 53 30 67 41 14 10 29 15 33 11 5 -5 8 -42 8 -82z m-281 -112 c0 -42 -1 -43 -50 -60 -27 -10 -50 -22 -50 -27 0 -6 16 -41 35 -79 45 -88 49 -159 10 -189 -14 -11 -25 -25 -25 -30 0 -16 -119 -162 -132 -162 -6 0 -17 -8 -25 -17 -12 -16 -13 12 -11 202 3 148 8 227 16 242 6 12 32 32 57 44 25 12 45 26 45 30 0 7 117 89 126 89 2 0 4 -19 4 -43z m-49 -506 c-12 -22 -41 -29 -41 -9 0 6 8 20 17 30 21 24 39 8 24 -21z" />
</ns0:g>
</g><g transform="translate(0.9008952002960768,19.007322119241678) scale(0.03567880959119619)"><ns0:metadata>
Created by potrace 1.16, written by Peter Selinger 2001-2019
</ns0:metadata>
<ns0:g transform="translate(0.000000,209.000000) scale(0.100000,-0.100000)" fill="#000000" stroke="none">
<ns0:path d="M1092 1993 c-30 -6 -38 -28 -37 -98 1 -33 -1 -73 -5 -90 -4 -16 -18 -75 -31 -131 l-24 -101 -74 -49 c-91 -60 -102 -75 -77 -103 11 -12 29 -21 42 -21 13 0 25 -4 28 -8 3 -5 1 -51 -5 -103 -5 -52 -9 -103 -8 -114 12 -163 -40 -412 -111 -540 -43 -76 -91 -205 -88 -234 4 -31 58 -52 83 -31 23 19 102 190 147 320 43 124 92 207 162 276 62 61 121 101 129 86 2 -4 5 -26 6 -50 1 -40 -24 -113 -95 -283 -13 -31 -24 -63 -24 -70 -1 -36 -79 -244 -92 -247 -33 -6 -49 -82 -24 -114 18 -24 33 -23 73 8 19 14 36 24 38 22 3 -2 6 -33 8 -69 4 -85 43 -146 114 -179 64 -30 160 -30 223 -1 63 30 123 64 139 79 8 8 24 18 35 23 12 5 39 23 61 39 22 17 63 46 92 66 28 19 70 53 93 75 41 40 41 41 37 98 -4 47 -13 70 -42 112 -20 30 -43 67 -51 84 -8 16 -25 48 -39 70 -13 22 -24 49 -25 61 0 27 -33 56 -54 48 -9 -4 -16 -17 -16 -35 0 -71 49 -237 80 -274 23 -26 33 -60 25 -84 -7 -22 -173 -157 -211 -171 -15 -6 -57 -31 -95 -56 -57 -39 -76 -46 -117 -47 -67 0 -107 18 -124 56 -18 43 -16 175 4 267 9 41 21 114 27 162 6 48 20 107 30 131 35 82 48 163 52 340 2 54 6 100 11 103 4 3 8 12 8 20 0 8 9 27 20 42 27 37 58 131 76 227 19 107 5 185 -34 185 -31 0 -155 -110 -347 -310 -54 -55 -60 -59 -63 -39 -5 29 37 135 64 163 45 46 103 96 112 96 5 0 17 9 27 20 10 11 23 20 30 20 7 0 31 23 54 50 82 97 29 148 -78 76 -29 -20 -58 -36 -63 -36 -6 0 -17 -8 -25 -17 -12 -16 -13 -13 -7 22 3 22 12 57 20 78 8 20 14 67 14 102 0 61 -2 66 -26 75 -14 6 -26 9 -27 9 -1 -1 -12 -4 -25 -6z m258 -523 c0 -21 -7 -54 -14 -72 -8 -18 -18 -55 -21 -82 -5 -37 -15 -57 -41 -84 -21 -22 -34 -45 -34 -62 0 -32 -14 -51 -60 -82 -68 -46 -100 -72 -100 -83 0 -12 -51 -65 -63 -65 -13 0 -7 102 9 158 9 32 25 66 35 78 11 11 19 26 19 34 0 7 24 39 53 71 90 99 171 191 185 210 21 30 32 22 32 -21z" />
<ns0:path d="M422 1453 c-28 -6 -56 -46 -48 -71 4 -11 22 -34 42 -51 47 -43 56 -73 48 -148 -3 -35 -4 -63 -1 -63 3 0 19 22 36 48 26 42 32 64 41 152 9 83 8 106 -2 116 -15 14 -82 24 -116 17z" />
<ns0:path d="M413 904 c-15 -23 -16 -37 -6 -133 7 -65 22 -135 38 -181 32 -91 33 -99 6 -174 -34 -97 -25 -122 45 -128 74 -5 95 40 91 191 -3 93 -5 105 -23 112 -15 5 -25 27 -39 85 -10 44 -23 85 -29 92 -5 8 -11 43 -12 79 -2 64 -11 82 -41 83 -7 0 -20 -12 -30 -26z" />
</ns0:g>
</g><g transform="translate(1.8970500589580297,125.38672337462981) scale(0.03567880959119619)"><ns0:metadata>
Created by potrace 1.16, written by Peter Selinger 2001-2019
</ns0:metadata>
<ns0:g transform="translate(0.000000,211.000000) scale(0.100000,-0.100000)" fill="#000000" stroke="none">
<ns0:path d="M1303 1940 c-56 -13 -58 -19 -61 -152 l-3 -123 -37 -33 c-20 -18 -57 -43 -82 -56 -25 -13 -65 -43 -90 -66 -25 -23 -61 -56 -80 -72 -58 -51 -110 -119 -110 -144 0 -41 75 -61 102 -28 63 79 248 254 268 254 13 0 13 -61 0 -94 -5 -14 -15 -26 -23 -26 -21 0 -48 -57 -54 -114 -5 -53 -7 -54 -77 -107 -39 -30 -106 -88 -149 -130 -71 -69 -78 -80 -75 -110 4 -42 38 -57 95 -43 29 7 42 17 55 44 9 19 39 57 67 84 l51 49 0 -30 c0 -16 -14 -72 -30 -124 -45 -139 -47 -160 -17 -192 26 -29 46 -34 65 -15 15 15 104 48 227 83 33 10 87 26 119 36 66 21 106 24 106 8 0 -32 -93 -147 -137 -169 -15 -8 -41 -25 -56 -37 -16 -13 -35 -23 -42 -23 -7 0 -20 -7 -28 -14 -19 -20 -132 -74 -180 -87 -46 -12 -66 -46 -49 -84 11 -25 85 -64 187 -100 28 -10 64 -23 80 -30 39 -17 261 -71 350 -86 89 -14 185 1 185 30 0 19 -40 31 -102 31 -14 0 -66 13 -115 29 -48 15 -115 36 -148 45 -66 19 -225 93 -225 105 0 11 50 46 116 79 91 47 193 152 248 256 36 67 34 97 -9 134 -37 33 -52 34 -150 10 -22 -5 -64 -14 -94 -19 -30 -5 -87 -19 -128 -29 -74 -20 -113 -25 -113 -14 0 31 97 324 114 343 22 25 162 133 195 150 11 6 22 20 26 30 3 11 14 22 23 25 25 8 82 85 75 102 -5 15 -33 20 -33 6 0 -4 -15 -16 -32 -26 -61 -34 -163 -101 -182 -118 -27 -24 -37 -11 -37 48 0 49 35 203 49 214 86 70 132 115 132 131 0 27 -37 24 -82 -6 -39 -26 -68 -32 -68 -14 0 31 25 107 41 125 26 28 24 41 -11 59 -16 8 -30 15 -32 14 -2 -1 -18 -5 -35 -9z" />
<ns0:path d="M847 1824 c-15 -14 -27 -33 -27 -44 0 -42 -76 -244 -143 -380 -77 -157 -197 -348 -246 -394 -50 -45 -171 -199 -200 -254 -10 -19 -10 -28 4 -48 8 -13 24 -24 35 -24 35 0 234 214 293 315 15 25 32 45 39 43 31 -11 68 -202 68 -358 0 -100 -20 -232 -40 -271 -23 -42 -3 -67 45 -55 31 8 48 41 74 143 43 166 19 456 -50 599 -32 67 -32 69 -15 99 18 31 22 38 74 140 16 33 37 74 45 90 9 17 30 66 48 110 18 44 43 104 56 133 28 64 30 132 6 154 -32 27 -39 27 -66 2z" />
</ns0:g>
</g><g transform="translate(0.14056615344412648,228.9673195333412) scale(0.03567880959119619)"><ns0:metadata>
Created by potrace 1.16, written by Peter Selinger 2001-2019
</ns0:metadata>
<ns0:g transform="translate(0.000000,211.000000) scale(0.100000,-0.100000)" fill="#000000" stroke="none">
<ns0:path d="M875 2103 c-16 -2 -46 -17 -65 -33 l-35 -28 18 -36 c24 -52 23 -103 -4 -111 -11 -4 -35 -19 -52 -33 -18 -15 -41 -32 -52 -38 -25 -14 -32 -66 -11 -83 18 -15 15 -23 -81 -221 -74 -152 -100 -210 -134 -293 -21 -54 -22 -61 -8 -85 11 -20 23 -27 44 -27 24 0 30 5 36 30 24 100 223 518 276 578 18 20 33 41 33 46 0 5 7 12 16 15 10 4 20 -4 30 -27 8 -17 26 -50 39 -72 36 -58 32 -78 -22 -122 -86 -71 -151 -135 -156 -154 -4 -13 5 -32 24 -53 16 -19 29 -43 29 -55 0 -14 11 -25 36 -36 37 -15 37 -15 18 -36 -20 -22 -85 -59 -104 -59 -6 0 -28 12 -50 26 -48 32 -80 26 -80 -15 0 -29 17 -49 60 -71 20 -11 85 -15 162 -11 10 1 42 24 73 52 l55 52 0 62 c0 69 -5 76 -62 94 -21 7 -38 15 -38 18 0 14 52 93 60 93 13 0 45 32 53 53 10 27 23 20 56 -27 16 -25 39 -58 52 -75 21 -29 21 -31 6 -78 -8 -26 -19 -66 -22 -88 -4 -22 -14 -65 -22 -95 -37 -136 -39 -160 -15 -160 23 0 43 22 70 75 32 61 38 76 53 125 8 25 21 46 29 47 8 1 35 -23 60 -53 25 -31 77 -80 116 -110 60 -45 78 -54 113 -54 34 0 43 4 50 23 11 28 7 34 -35 52 -45 18 -122 86 -168 147 -71 94 -106 148 -106 163 0 29 23 111 46 163 13 29 24 56 24 61 0 4 12 18 26 32 14 13 34 38 45 55 12 21 42 42 83 62 95 45 109 92 28 92 -31 0 -34 2 -29 23 26 102 28 119 20 159 l-9 43 -48 3 c-47 3 -48 2 -42 -20 4 -13 10 -67 13 -120 5 -88 4 -98 -11 -98 -33 0 -129 -111 -160 -186 -51 -124 -57 -135 -69 -131 -10 3 -71 101 -137 222 -16 28 -30 64 -32 79 -3 24 3 31 46 55 62 35 154 111 159 131 2 9 0 26 -4 38 -12 32 -51 28 -108 -12 -45 -32 -124 -76 -136 -76 -10 0 -5 56 6 67 11 11 -4 55 -19 51 -4 0 -20 -3 -37 -5z" />
<ns0:path d="M755 1022 c-43 -15 -50 -21 -53 -46 -2 -16 2 -40 9 -52 9 -17 10 -57 6 -146 -9 -167 -16 -190 -74 -222 -25 -14 -52 -26 -59 -26 -8 0 -14 -4 -14 -8 0 -5 -19 -15 -42 -22 -24 -7 -61 -20 -83 -30 -22 -10 -67 -23 -100 -30 -99 -20 -133 -46 -121 -93 17 -68 129 -37 336 92 64 40 96 55 98 46 2 -7 -13 -45 -32 -85 -39 -78 -40 -122 -4 -141 20 -11 150 -1 300 22 111 17 119 18 233 24 101 5 290 31 308 42 23 14 -4 142 -49 233 -38 78 -94 124 -119 99 -12 -12 -10 -27 16 -102 16 -49 34 -97 39 -107 19 -35 -9 -41 -255 -55 -55 -4 -115 -11 -132 -16 -18 -6 -43 -9 -55 -8 -13 2 -28 1 -33 -3 -20 -12 -129 -12 -133 0 -2 7 5 40 16 74 40 125 59 235 67 401 3 60 11 110 20 128 27 52 1 61 -90 31z" />
<ns0:path d="M922 868 c-25 -12 -37 -46 -28 -76 7 -20 45 -42 72 -42 19 0 71 -36 99 -67 25 -29 44 -18 52 30 4 30 0 45 -21 77 -14 22 -32 40 -39 40 -7 0 -28 11 -47 25 -37 27 -53 29 -88 13z" />
<ns0:path d="M1535 664 c-21 -35 -25 -53 -21 -79 17 -88 250 -188 269 -115 5 20 -27 70 -44 70 -6 0 -30 13 -54 30 -36 25 -44 37 -50 72 -9 52 -20 68 -50 68 -17 0 -31 -13 -50 -46z" />
</ns0:g>
</g><g transform="translate(-1.1330593193920322,319.94841504518706) scale(0.03567880959119619)"><ns0:metadata>
Created by potrace 1.16, written by Peter Selinger 2001-2019
</ns0:metadata>
<ns0:g transform="translate(0.000000,205.000000) scale(0.100000,-0.100000)" fill="#000000" stroke="none">
<ns0:path d="M1227 1963 c-25 -13 -67 -81 -67 -110 0 -7 -7 -33 -15 -58 -31 -90 11 -77 59 19 39 78 98 88 131 24 18 -37 19 -49 3 -100 -8 -29 -18 -40 -37 -45 -41 -9 -61 -33 -61 -70 0 -27 -10 -43 -54 -86 -30 -28 -73 -65 -95 -80 -24 -17 -41 -36 -41 -48 0 -26 10 -24 56 11 21 16 44 30 49 30 6 1 32 18 60 39 l49 38 23 -34 c25 -37 30 -73 11 -73 -7 0 -23 -10 -37 -23 -15 -13 -55 -36 -91 -52 -36 -15 -97 -45 -136 -66 -39 -22 -74 -39 -77 -39 -17 0 -4 25 33 68 22 25 39 50 37 56 -6 18 -68 17 -121 -2 l-49 -17 -28 -99 c-20 -70 -35 -103 -51 -115 -30 -22 -137 -83 -230 -131 -42 -22 -79 -44 -83 -50 -4 -6 -37 -26 -73 -46 -105 -55 -140 -78 -183 -120 -48 -47 -53 -89 -13 -104 54 -21 68 -15 154 63 14 13 39 32 55 42 17 11 40 28 51 40 12 11 74 47 138 79 64 33 121 66 126 75 32 54 -32 -214 -73 -309 -9 -19 -22 -51 -30 -70 -27 -62 -31 -90 -13 -90 9 0 16 3 16 8 0 4 17 25 38 47 21 22 42 52 45 67 4 15 20 36 35 47 20 14 34 38 47 80 l18 60 146 -1 c150 -1 161 0 244 9 42 4 48 8 45 26 -4 30 -70 47 -193 51 -120 4 -181 14 -195 32 -8 9 -8 23 2 51 28 78 75 128 162 168 17 8 45 24 61 35 17 11 37 22 45 26 8 3 33 14 56 25 23 10 46 19 51 19 5 0 35 18 67 40 31 22 71 42 89 45 17 4 38 12 47 18 26 22 97 57 114 57 9 0 16 -8 16 -20 0 -14 -19 -32 -61 -57 -34 -21 -74 -48 -90 -61 -15 -12 -45 -28 -66 -36 -22 -7 -39 -21 -42 -31 -3 -15 2 -17 30 -11 63 12 151 61 216 119 24 20 47 37 53 37 22 0 50 41 50 73 0 65 -50 80 -168 51 -78 -20 -85 -15 -108 74 l-16 62 35 42 c29 36 36 54 42 111 9 86 -14 139 -77 179 -47 29 -87 32 -131 11z" />
<ns0:path d="M1000 1863 c-13 -16 -18 -33 -13 -42 12 -28 16 -320 4 -335 -6 -7 -9 -21 -5 -30 20 -52 94 41 105 134 11 84 10 245 -1 274 -13 36 -61 36 -90 -1z" />
<ns0:path d="M587 1809 c-27 -21 -69 -98 -82 -152 -10 -39 -24 -43 -36 -8 -19 54 -102 62 -129 11 -12 -22 -8 -33 21 -65 26 -30 52 -141 44 -192 -7 -46 7 -83 30 -83 8 0 15 1 15 3 0 1 16 47 36 102 19 55 38 109 41 120 3 11 13 29 23 40 9 11 25 39 35 62 23 53 45 74 82 75 37 1 69 -16 89 -48 29 -44 14 -145 -36 -239 -51 -97 -95 -142 -183 -189 -63 -33 -70 -35 -91 -21 -26 17 -36 11 -36 -21 0 -23 33 -54 57 -54 24 0 121 41 143 60 13 11 26 20 31 20 12 0 89 53 89 61 0 4 16 26 36 50 68 82 87 133 92 244 3 97 3 101 -26 146 -34 53 -91 85 -167 94 -41 4 -55 2 -78 -16z" />
<ns0:path d="M1246 605 c-38 -13 -56 -29 -56 -51 0 -22 54 -64 103 -82 90 -31 95 -78 17 -161 -50 -53 -93 -71 -180 -74 -32 -2 -35 1 -52 48 -45 122 -78 185 -110 208 -24 18 -30 18 -58 7 -34 -14 -55 -44 -43 -63 4 -6 28 -39 53 -72 61 -78 103 -161 95 -186 -4 -10 -22 -31 -41 -45 -40 -31 -42 -42 -13 -78 27 -34 52 -33 99 4 21 17 44 30 52 30 8 0 18 4 23 8 6 5 35 19 66 31 31 12 67 33 80 47 12 13 28 24 34 24 12 0 73 55 110 98 11 14 22 46 26 80 9 82 -8 119 -76 162 -31 20 -56 44 -60 57 -6 26 -15 27 -69 8z" />
<ns0:path d="M528 459 c-31 -15 -38 -25 -38 -48 0 -22 7 -32 32 -44 18 -9 36 -13 41 -10 4 2 40 5 79 4 90 -1 108 -14 98 -71 -4 -22 -15 -50 -24 -62 -9 -13 -26 -37 -37 -54 -12 -19 -44 -43 -82 -62 -102 -50 -113 -53 -130 -34 -20 24 -30 59 -17 67 5 3 10 13 10 21 0 17 68 127 81 132 10 4 13 42 4 42 -4 0 -20 -7 -38 -16 -39 -20 -85 -68 -128 -135 -29 -45 -31 -55 -25 -104 10 -89 3 -85 136 -85 92 0 120 3 130 15 7 8 18 15 25 15 21 0 121 104 129 133 3 15 11 27 17 27 18 0 39 68 39 127 -1 92 -36 122 -171 147 -47 9 -87 16 -90 15 -2 -1 -21 -10 -41 -20z" />
</ns0:g>
</g><g transform="translate(-0.7563149405390277,458.39991278884315) scale(0.03567880959119619)"><ns0:metadata>
Created by potrace 1.16, written by Peter Selinger 2001-2019
</ns0:metadata>
<ns0:g transform="translate(0.000000,210.000000) scale(0.100000,-0.100000)" fill="#000000" stroke="none">
<ns0:path d="M935 1134 c-55 -7 -128 -13 -163 -12 -53 1 -66 -2 -87 -22 -35 -33 -32 -66 8 -90 18 -12 41 -18 52 -15 11 3 70 13 130 21 91 12 121 13 173 3 68 -14 107 -6 126 24 16 24 -2 48 -55 73 -66 32 -76 33 -184 18z" />
</ns0:g>
</g><g transform="translate(0.34955250311554664,539.2667479562994) scale(0.03567880959119619)"><ns0:metadata>
Created by potrace 1.16, written by Peter Selinger 2001-2019
</ns0:metadata>
<ns0:g transform="translate(0.000000,207.000000) scale(0.100000,-0.100000)" fill="#000000" stroke="none">
<ns0:path d="M1277 1747 c-23 -18 -28 -29 -27 -67 1 -25 -3 -94 -9 -155 -6 -60 -15 -234 -21 -385 -10 -262 -12 -305 -26 -410 -10 -76 -11 -314 -1 -327 5 -7 25 -13 43 -13 47 0 54 22 58 199 1 80 8 216 14 301 6 85 13 234 16 330 6 171 14 244 35 325 5 22 9 73 7 114 -3 63 -7 78 -26 93 -28 23 -29 23 -63 -5z" />
<ns0:path d="M711 1624 c-11 -14 -23 -35 -26 -47 -19 -74 -25 -105 -39 -222 -8 -71 -18 -168 -21 -215 -11 -179 -69 -439 -121 -544 -19 -38 -32 -76 -30 -83 8 -20 60 -16 88 7 37 28 64 101 104 273 20 84 36 152 37 152 27 8 251 127 272 146 16 14 46 36 65 49 48 32 90 80 90 101 0 41 -46 36 -106 -12 -42 -34 -221 -123 -267 -133 l-28 -7 5 118 c6 124 26 278 46 350 11 37 10 47 -4 68 -21 32 -39 32 -65 -1z" />
</ns0:g>
</g><g transform="translate(-0.08507054228272182,646.1048327245965) scale(0.03567880959119619)"><ns0:metadata>
Created by potrace 1.16, written by Peter Selinger 2001-2019
</ns0:metadata>
<ns0:g transform="translate(0.000000,209.000000) scale(0.100000,-0.100000)" fill="#000000" stroke="none">
<ns0:path d="M1014 1571 c-22 -10 -56 -32 -75 -48 -32 -27 -96 -54 -195 -82 -32 -8 -45 -18 -54 -41 -15 -36 -3 -72 29 -89 16 -9 24 -7 39 9 11 12 43 30 72 41 63 24 79 16 61 -30 -21 -49 -37 -303 -29 -456 3 -77 5 -147 2 -157 -6 -19 -31 -26 -121 -33 -96 -7 -147 -47 -128 -101 16 -44 53 -48 185 -19 63 14 160 27 215 30 146 7 217 16 230 29 37 37 13 101 -33 92 -50 -11 -202 -15 -224 -7 -15 5 -22 17 -23 42 -6 78 -6 359 -1 368 3 5 9 37 12 72 9 95 67 258 102 289 26 22 29 30 25 68 -6 49 -22 53 -89 23z" />
</ns0:g>
</g><g transform="translate(-1.113304336535009,740.6667707050383) scale(0.03567880959119619)"><ns0:metadata>
Created by potrace 1.16, written by Peter Selinger 2001-2019
</ns0:metadata>
<ns0:g transform="translate(0.000000,211.000000) scale(0.100000,-0.100000)" fill="#000000" stroke="none">
<ns0:path d="M1175 1579 c-22 -5 -76 -27 -120 -49 -44 -21 -93 -42 -109 -46 -56 -14 -191 -74 -201 -90 -5 -10 -18 -24 -27 -33 -23 -20 -23 -33 3 -65 22 -28 54 -34 62 -13 3 8 45 32 94 56 48 23 101 48 117 57 16 8 30 13 31 12 2 -2 -1 -28 -6 -59 -11 -68 -24 -174 -44 -339 -8 -69 -19 -161 -24 -205 -6 -44 -16 -134 -22 -200 -13 -142 -7 -170 41 -177 49 -7 62 28 71 205 7 142 28 336 50 481 6 37 13 83 14 100 2 18 14 65 28 104 26 75 77 137 124 148 29 8 57 57 48 85 -12 35 -56 45 -130 28z" />
</ns0:g>
</g><g transform="translate(-1.5064661605058518,842.161579544789) scale(0.03567880959119619)"><ns0:metadata>
Created by potrace 1.16, written by Peter Selinger 2001-2019
</ns0:metadata>
<ns0:g transform="translate(0.000000,206.000000) scale(0.100000,-0.100000)" fill="#000000" stroke="none">
<ns0:path d="M1199 1320 c-33 -17 -38 -26 -53 -87 -9 -37 -20 -99 -26 -138 -13 -100 -45 -249 -69 -325 -12 -36 -21 -79 -21 -97 0 -18 -6 -52 -14 -75 -8 -24 -17 -61 -21 -83 -3 -22 -8 -50 -11 -62 -3 -17 2 -23 27 -28 57 -13 78 27 120 230 10 50 27 119 37 155 11 36 30 112 42 170 13 58 29 112 36 120 6 8 15 33 19 55 3 22 14 48 22 57 18 20 13 48 -17 96 -23 37 -23 37 -71 12z" />
</ns0:g>
</g><g transform="translate(2.0051300500607,951.529805369318) scale(0.03567880959119619)"><ns0:metadata>
Created by potrace 1.16, written by Peter Selinger 2001-2019
</ns0:metadata>
<ns0:g transform="translate(0.000000,206.000000) scale(0.100000,-0.100000)" fill="#000000" stroke="none">
<ns0:path d="M988 1436 c-15 -8 -48 -14 -74 -14 -25 0 -51 -5 -56 -10 -6 -6 -17 -59 -24 -119 -8 -59 -23 -135 -34 -168 -22 -70 -41 -285 -30 -341 10 -50 18 -70 48 -118 23 -38 25 -38 73 -34 40 4 61 15 121 61 115 88 187 166 238 261 20 35 21 45 12 115 -20 149 -54 229 -119 275 -24 16 -45 37 -48 45 -4 13 -66 61 -77 61 -2 0 -15 -6 -30 -14z m39 -113 c65 -64 93 -107 117 -180 14 -43 26 -89 26 -102 0 -54 -117 -195 -204 -246 -90 -52 -106 -14 -76 175 12 74 23 146 25 160 8 53 33 142 44 153 6 6 11 21 11 32 0 43 19 45 57 8z" />
</ns0:g>
</g><g transform="translate(-1.6442853757155262,1055.1463809796232) scale(0.03567880959119619)"><ns0:metadata>
Created by potrace 1.16, written by Peter Selinger 2001-2019
</ns0:metadata>
<ns0:g transform="translate(0.000000,206.000000) scale(0.100000,-0.100000)" fill="#000000" stroke="none">
<ns0:path d="M1020 1511 c-17 -5 -26 -16 -30 -36 -3 -18 -15 -34 -28 -41 -44 -22 -55 -57 -90 -299 -21 -148 -20 -340 3 -365 8 -9 15 -26 15 -39 0 -12 6 -37 14 -56 19 -46 54 -54 109 -27 23 11 65 24 92 27 62 9 71 16 102 80 79 163 90 203 94 340 6 233 -3 325 -33 325 -6 0 -27 14 -49 31 -21 16 -55 33 -76 36 -21 3 -47 12 -58 19 -21 15 -27 16 -65 5z m115 -114 c60 -34 66 -55 66 -225 0 -142 -11 -210 -40 -246 -5 -6 -14 -29 -21 -50 -19 -58 -62 -96 -109 -96 -37 0 -39 1 -55 53 -17 53 -16 54 18 213 19 87 40 180 46 206 7 26 9 56 5 67 -3 10 -1 22 5 26 5 3 10 22 10 41 0 41 17 44 75 11z" />
</ns0:g>
</g><g transform="translate(0.9562848351575894,1165.5672977695904) scale(0.03567880959119619)"><ns0:metadata>
Created by potrace 1.16, written by Peter Selinger 2001-2019
</ns0:metadata>
<ns0:g transform="translate(0.000000,210.000000) scale(0.100000,-0.100000)" fill="#000000" stroke="none">
<ns0:path d="M653 1020 c-13 -5 -23 -14 -23 -20 0 -20 28 -77 41 -86 33 -21 442 -56 487 -42 41 12 41 33 1 85 -28 36 -35 40 -59 33 -52 -15 -181 -3 -337 31 -51 11 -81 11 -110 -1z" />
</ns0:g>
</g><g transform="translate(0.804459083824554,1242.3919346587174) scale(0.03567880959119619)"><ns0:metadata>
Created by potrace 1.16, written by Peter Selinger 2001-2019
</ns0:metadata>
<ns0:g transform="translate(0.000000,209.000000) scale(0.100000,-0.100000)" fill="#000000" stroke="none">
<ns0:path d="M973 1890 c-14 -6 -26 -24 -34 -52 -7 -24 -16 -45 -20 -48 -4 -3 -19 -48 -34 -100 -42 -149 -68 -207 -165 -364 -49 -80 -96 -158 -105 -173 -44 -79 -126 -182 -168 -214 -97 -72 -118 -159 -40 -159 20 0 10 -14 -62 -86 -85 -85 -100 -115 -73 -142 7 -7 23 -12 36 -12 25 0 98 -21 165 -48 29 -12 37 -20 35 -36 -2 -16 -11 -22 -35 -24 -40 -4 -44 -28 -10 -61 28 -25 45 -21 97 21 19 15 44 28 55 28 26 -1 97 -33 138 -63 77 -59 260 -125 324 -119 l41 4 7 61 c4 34 17 85 30 113 13 28 34 77 45 110 12 32 28 73 35 89 48 108 66 143 80 155 8 7 15 16 15 21 0 11 56 93 75 109 8 7 15 8 15 2 0 -25 -33 -178 -40 -187 -4 -5 -20 -46 -35 -90 -15 -44 -35 -96 -45 -115 -39 -76 -43 -96 -26 -129 26 -49 68 -66 166 -66 73 1 92 5 135 28 106 59 164 106 224 181 39 48 41 108 9 211 -38 122 -170 276 -191 223 -8 -22 5 -78 18 -78 17 0 39 -59 65 -171 21 -90 21 -98 6 -128 -23 -43 -159 -142 -210 -152 -71 -14 -86 -12 -86 14 0 12 14 63 30 112 66 196 83 275 95 447 4 55 3 94 -4 106 -27 50 -97 29 -120 -35 -7 -21 -26 -59 -42 -86 -16 -26 -29 -50 -29 -54 0 -3 -17 -34 -39 -67 -21 -34 -40 -70 -42 -81 -2 -10 -9 -20 -16 -22 -8 -3 -8 9 2 44 55 192 75 254 92 293 43 95 63 143 63 150 0 4 19 40 42 81 95 168 117 220 106 249 -17 50 -45 45 -115 -20 -64 -60 -92 -75 -78 -42 4 9 10 55 13 101 l5 84 -43 -6 c-24 -3 -47 -11 -51 -19 -14 -22 -21 -109 -16 -184 l5 -71 -42 -44 c-24 -24 -57 -56 -74 -70 l-32 -27 0 39 c0 37 25 142 49 202 6 16 11 44 11 63 0 58 -59 65 -100 11 -8 -10 -24 -27 -34 -36 -10 -9 -28 -27 -40 -40 -43 -50 -65 -71 -76 -71 -13 0 -4 37 15 60 6 8 20 42 30 75 19 63 24 75 45 115 35 64 42 84 47 118 4 28 0 42 -17 60 -22 23 -41 26 -77 12z m35 -595 c-13 -66 -15 -69 -45 -76 -17 -3 -37 -3 -44 1 -18 12 -66 -8 -83 -34 -8 -13 -18 -54 -22 -92 l-7 -69 -79 -52 c-87 -58 -103 -63 -111 -33 -5 21 43 98 119 190 67 81 66 80 145 150 40 36 87 78 103 94 28 25 31 26 34 10 1 -11 -3 -50 -10 -89z m249 -102 c-20 -43 -50 -132 -67 -198 -17 -66 -45 -160 -60 -210 -16 -49 -32 -101 -35 -114 -5 -17 -9 -20 -15 -11 -11 18 -12 264 -1 373 7 77 12 92 37 118 15 16 37 29 48 29 12 0 43 23 71 53 28 28 51 49 53 45 2 -4 -12 -42 -31 -85z m-277 -31 c0 -11 -22 -32 -32 -32 -5 0 -4 9 2 20 11 20 30 28 30 12z m-16 -229 c-10 -158 -42 -163 -43 -7 -1 79 8 104 36 104 11 0 12 -20 7 -97z m-146 -65 c25 -103 25 -125 1 -158 -22 -29 -23 -33 -8 -58 23 -41 74 -35 117 14 17 20 34 35 36 33 2 -2 9 -61 14 -130 6 -70 18 -143 26 -164 24 -55 21 -75 -9 -75 -15 0 -40 7 -57 16 -17 9 -58 25 -92 36 -34 11 -74 26 -91 33 -16 7 -50 21 -73 31 -43 17 -44 19 -38 53 19 103 26 163 26 232 0 58 4 82 18 98 16 20 99 78 113 80 4 1 11 -18 17 -41z m-288 -16 c0 -5 -11 -19 -25 -32 -29 -27 -36 -7 -7 21 19 19 32 24 32 11z m31 -199 c-2 -54 -21 -123 -34 -123 -1 0 -26 9 -55 19 -55 21 -82 37 -82 52 0 11 162 131 168 124 3 -3 4 -35 3 -72z" />
</ns0:g>
</g><g transform="translate(-1.5506748516849598,1339.1390001184102) scale(0.03567880959119619)"><ns0:metadata>
Created by potrace 1.16, written by Peter Selinger 2001-2019
</ns0:metadata>
<ns0:g transform="translate(0.000000,207.000000) scale(0.100000,-0.100000)" fill="#000000" stroke="none">
<ns0:path d="M442 1937 c-14 -15 -22 -36 -22 -59 0 -60 -39 -263 -64 -335 -13 -37 -43 -122 -65 -188 -61 -176 -60 -175 -88 -245 -35 -93 -35 -93 -19 -115 14 -19 14 -19 35 5 12 14 29 41 38 60 9 19 29 54 44 76 16 23 38 70 50 105 12 35 25 69 29 74 3 6 26 62 50 126 40 107 45 116 62 105 16 -9 24 -6 48 22 17 17 33 32 37 32 5 0 31 18 59 39 45 34 114 70 207 109 29 12 39 55 14 65 -20 8 -99 -9 -149 -32 -23 -11 -63 -25 -88 -32 -25 -7 -50 -16 -57 -21 -20 -16 -24 10 -8 57 18 54 18 59 4 107 -7 26 -19 43 -39 53 -39 20 -53 19 -78 -8z" />
<ns0:path d="M1154 1845 c-38 -17 -84 -70 -84 -96 0 -38 79 -49 112 -16 7 8 28 16 46 20 31 6 32 5 32 -26 0 -62 -90 -187 -157 -219 -34 -16 -41 -43 -17 -69 28 -31 55 -23 102 29 60 65 147 204 161 255 14 53 3 98 -30 114 -41 19 -130 24 -165 8z" />
<ns0:path d="M909 1685 c-28 -15 -44 -52 -30 -69 10 -13 61 -224 61 -253 0 -11 8 -31 18 -43 16 -20 21 -21 40 -9 29 18 37 88 23 208 -6 56 -7 100 -1 110 10 20 4 31 -32 54 -33 20 -45 21 -79 2z" />
<ns0:path d="M632 1530 c-12 -5 -25 -18 -28 -27 -4 -10 -14 -36 -24 -58 -10 -22 -21 -66 -25 -97 -6 -57 -7 -58 -63 -95 -83 -55 -202 -178 -202 -208 0 -27 29 -49 64 -50 30 -1 42 5 66 32 35 39 40 41 40 9 0 -25 -53 -204 -72 -243 -6 -11 -8 -27 -6 -34 6 -18 50 30 74 79 18 38 64 113 75 122 3 3 11 15 18 28 10 18 18 22 39 17 15 -3 62 -7 105 -10 44 -2 81 -6 83 -8 3 -2 -9 -30 -26 -62 -27 -52 -29 -60 -17 -79 8 -12 27 -22 45 -24 27 -3 35 2 57 39 44 69 106 130 125 124 27 -8 81 26 104 67 25 42 61 88 70 88 4 0 33 27 65 59 32 33 68 64 80 71 22 11 22 11 14 -52 -20 -156 -5 -504 32 -730 4 -25 1 -28 -23 -28 -15 0 -47 9 -71 20 -24 11 -47 20 -52 20 -5 0 -18 8 -28 17 -22 19 -115 56 -203 81 -99 28 -86 59 50 116 114 49 116 49 108 -19 -7 -63 7 -74 30 -22 8 17 26 47 39 66 14 19 25 40 25 48 0 27 -47 63 -82 63 -38 0 -149 -25 -175 -39 -10 -5 -38 -19 -63 -30 -54 -24 -120 -86 -120 -111 0 -22 44 -58 79 -66 50 -10 114 -37 170 -70 31 -18 77 -45 104 -60 26 -15 47 -31 47 -35 0 -20 -222 -120 -236 -106 -3 3 3 18 14 34 21 29 37 83 26 83 -4 0 -50 -43 -101 -95 -52 -52 -98 -95 -102 -95 -4 0 -22 -13 -39 -28 -42 -38 -42 -72 -1 -96 34 -20 59 -14 134 33 22 14 74 43 115 64 41 22 84 48 95 57 11 10 55 39 98 64 l77 46 53 -19 c28 -11 67 -22 84 -26 29 -6 34 -4 44 22 20 51 21 98 5 162 -10 38 -21 151 -28 280 -12 233 -4 373 26 466 38 114 38 115 26 145 -14 34 -41 46 -69 31 -11 -6 -48 -36 -83 -66 -34 -30 -68 -55 -75 -55 -6 0 -22 -13 -36 -30 -27 -32 -110 -96 -236 -184 -75 -53 -78 -54 -122 -45 -24 6 -62 12 -84 15 -84 10 -145 27 -145 42 0 7 9 25 20 39 11 14 20 31 20 37 0 11 143 122 188 145 13 7 22 21 22 36 0 36 -39 42 -100 16 -27 -11 -51 -21 -54 -21 -14 0 -4 60 14 83 26 33 25 46 -6 57 -30 12 -42 12 -72 0z" />
<ns0:path d="M567 829 l-27 -21 1 -168 c0 -93 -3 -185 -7 -204 -14 -80 22 -111 71 -62 24 25 29 51 40 211 2 44 7 110 11 147 6 62 5 68 -19 92 -31 31 -34 31 -70 5z" />
</ns0:g>
</g></svg>