<?xml version='1.0' encoding='utf-8'?>
<svg xmlns:ns0="http://www.w3.org/2000/svg" xmlns="http://www.w3.org/2000/svg" width="235" height="121" viewBox="0 0 235 121"><g transform="translate(2.8156302537628903,-74.81048830023953) scale(0.032186125601421485)"><ns0:metadata>
Created by potrace 1.16, written by Peter Selinger 2001-2019
</ns0:metadata>
<ns0:g transform="translate(0.000000,208.000000) scale(0.100000,-0.100000)" fill="#000000" stroke="none">
<ns0:path d="M1437 1960 c-12 -10 -31 -20 -42 -24 -12 -3 -37 -21 -56 -39 -56 -51 -166 -135 -207 -157 -165 -93 -261 -169 -293 -234 -28 -58 -25 -73 18 -87 34 -11 38 -10 55 12 55 70 116 124 217 189 34 22 83 57 111 77 66 51 121 85 128 79 6 -6 -36 -223 -49 -251 -5 -11 -19 -54 -32 -95 -30 -103 -61 -140 -115 -140 -10 0 -27 -9 -37 -20 -15 -16 -16 -22 -5 -35 11 -13 10 -21 -1 -43 -8 -17 -13 -65 -14 -136 l0 -108 -40 -34 c-22 -18 -71 -55 -110 -81 -38 -26 -86 -63 -105 -82 -19 -18 -53 -45 -75 -59 -22 -14 -44 -31 -50 -39 -10 -14 -52 -38 -120 -71 -22 -11 -46 -27 -54 -36 -7 -9 -22 -16 -32 -16 -10 0 -27 -10 -39 -22 -25 -28 -25 -18 0 32 21 41 26 70 11 70 -11 0 -41 -29 -123 -119 -42 -45 -69 -68 -72 -60 -2 8 -10 41 -17 74 -7 33 -23 83 -35 110 -26 59 -40 140 -24 150 7 4 7 12 0 26 -13 24 -87 27 -96 4 -4 -9 -11 -15 -18 -14 -39 7 -61 -36 -30 -62 14 -11 46 -74 89 -174 22 -51 43 -167 34 -191 -3 -11 -12 -37 -19 -59 -7 -22 -15 -45 -17 -52 -7 -19 35 -53 67 -53 23 0 33 7 46 33 9 17 32 51 50 74 19 23 34 47 34 54 0 8 6 7 18 -4 30 -27 75 -21 121 16 103 82 175 134 215 157 53 30 186 129 186 138 1 4 24 23 51 42 28 19 69 50 91 68 22 17 44 32 49 32 6 0 8 -49 5 -117 -2 -65 -5 -132 -5 -150 -1 -21 -10 -41 -28 -58 -27 -25 -27 -26 -9 -40 17 -13 18 -23 11 -122 -4 -59 -9 -137 -10 -173 -2 -36 -8 -78 -15 -94 -11 -29 -11 -29 -26 -8 -18 26 -46 18 -42 -12 3 -19 10 -21 81 -24 76 -3 77 -2 88 25 5 15 17 101 24 192 8 91 20 170 25 175 7 7 21 6 44 -2 19 -7 77 -16 128 -21 87 -7 103 -12 212 -66 104 -51 128 -59 192 -63 78 -5 104 5 104 38 0 19 -29 36 -77 45 -18 4 -43 15 -57 26 -14 11 -41 26 -62 35 -20 8 -53 26 -73 38 -40 26 -186 66 -238 66 -19 0 -63 7 -99 16 l-65 17 6 81 c3 44 7 126 9 181 3 55 8 108 11 118 7 16 102 95 157 130 15 9 41 29 57 45 17 15 49 41 71 57 23 17 53 40 66 52 14 13 33 27 44 33 11 6 20 19 20 30 0 26 -44 38 -68 18 -9 -7 -33 -21 -53 -30 -20 -9 -73 -45 -119 -80 -123 -94 -143 -108 -157 -108 -21 0 -22 103 -1 128 13 15 32 47 44 72 4 8 16 21 26 28 11 8 17 21 13 31 -3 10 3 29 13 42 11 13 17 30 14 38 -3 8 2 19 11 26 18 13 87 218 87 257 0 15 14 69 30 120 32 98 38 159 18 175 -19 15 -47 12 -71 -7z m-691 -1351 c8 -14 -14 -29 -33 -22 -10 4 -11 9 -2 19 14 17 25 18 35 3z" />
<ns0:path d="M1110 1521 c-28 -14 -38 -29 -52 -72 -10 -30 -24 -67 -31 -84 -8 -16 -22 -55 -32 -85 -27 -85 -122 -275 -161 -321 -19 -23 -39 -50 -44 -60 -5 -9 -23 -31 -40 -47 -53 -53 -34 -91 28 -58 58 31 175 190 249 338 26 51 54 105 64 119 27 39 79 176 79 209 0 16 5 32 10 35 6 3 10 15 10 26 0 25 -34 25 -80 0z" />
<ns0:path d="M633 1470 c-29 -12 -30 -51 -3 -88 27 -38 44 -174 35 -299 -8 -128 4 -134 59 -32 38 69 38 71 37 177 -1 124 -8 167 -27 183 -8 6 -14 19 -14 28 0 37 -39 50 -87 31z" />
<ns0:path d="M178 1146 c-32 -24 -21 -58 35 -114 l53 -52 22 20 c12 12 22 24 22 29 0 22 -35 108 -48 119 -20 16 -62 15 -84 -2z" />
<ns0:path d="M1013 700 c-26 -16 -49 -35 -131 -113 -18 -17 -54 -65 -79 -107 -26 -41 -61 -93 -77 -115 -17 -21 -35 -46 -41 -55 -36 -60 -105 -159 -114 -165 -18 -11 -13 -53 8 -60 29 -9 42 1 109 84 35 43 79 93 98 110 19 18 34 39 34 47 0 8 11 24 25 36 22 19 45 54 111 170 7 11 27 36 46 56 40 44 78 97 78 110 0 18 -39 20 -67 2z" />
</ns0:g>
</g><g transform="translate(-0.6679107442045051,13.50414530229736) scale(0.032186125601421485)"><ns0:metadata>
Created by potrace 1.16, written by Peter Selinger 2001-2019
</ns0:metadata>
<ns0:g transform="translate(0.000000,210.000000) scale(0.100000,-0.100000)" fill="#000000" stroke="none">
<ns0:path d="M1805 1953 c-39 -10 -46 -23 -40 -82 10 -100 12 -274 4 -366 -16 -189 -30 -321 -39 -355 -5 -19 -12 -105 -15 -190 -6 -183 -21 -363 -41 -515 -8 -60 -19 -159 -25 -219 -5 -60 -14 -117 -19 -126 -5 -9 -6 -35 -3 -58 l6 -42 65 0 65 0 -6 73 c-4 41 0 134 9 217 37 348 44 439 54 675 6 138 17 304 25 370 8 66 16 167 19 225 3 58 8 160 12 228 4 75 3 122 -3 122 -6 0 -15 11 -21 25 -6 14 -15 24 -19 24 -5 -1 -17 -4 -28 -6z" />
<ns0:path d="M1054 1710 c-40 -16 -40 -67 0 -94 14 -9 33 -43 49 -89 22 -61 27 -93 28 -180 0 -58 -2 -110 -5 -115 -3 -5 -13 -59 -22 -118 -9 -60 -19 -113 -24 -119 -4 -5 -13 -34 -20 -62 -6 -29 -16 -53 -21 -53 -15 0 -243 -206 -264 -239 -11 -17 -36 -43 -56 -57 -20 -14 -58 -52 -85 -85 -26 -32 -49 -58 -51 -56 -1 2 6 39 17 81 30 118 42 222 51 441 11 272 9 267 74 306 57 34 86 72 69 89 -7 7 -20 6 -40 -5 -16 -8 -34 -15 -40 -15 -6 0 -17 -7 -24 -15 -25 -30 -40 -17 -40 34 0 77 10 108 46 143 34 33 44 63 22 70 -17 6 -120 -9 -127 -19 -3 -4 -15 -13 -26 -19 -19 -11 -20 -20 -16 -146 l3 -134 -38 -31 c-22 -16 -60 -42 -87 -57 -79 -46 -98 -93 -54 -134 35 -33 63 -28 107 21 22 23 40 45 40 50 0 4 6 7 14 7 11 0 16 -24 22 -97 7 -105 -13 -316 -42 -423 -24 -91 -42 -160 -64 -253 -11 -49 -24 -96 -29 -105 -48 -99 -46 -88 -20 -127 13 -19 29 -35 36 -35 22 0 43 12 43 26 0 7 13 28 28 46 16 18 34 48 41 65 7 18 27 48 45 67 45 51 96 121 96 134 0 7 21 36 48 66 100 115 132 154 132 161 0 4 33 43 73 87 47 53 73 75 75 65 4 -21 -35 -153 -58 -197 -29 -54 -58 -123 -66 -155 -3 -17 -19 -50 -34 -75 -15 -25 -50 -103 -79 -175 -29 -72 -61 -142 -72 -157 l-20 -28 44 0 c40 0 45 3 81 51 21 29 49 79 63 111 13 32 43 98 67 146 24 48 47 98 51 112 4 14 23 59 42 100 40 88 67 162 87 245 8 33 28 112 44 175 47 181 65 324 60 480 -6 153 -14 180 -80 255 -40 45 -55 51 -94 35z" />
<ns0:path d="M1338 1229 c-36 -14 -42 -38 -21 -80 22 -42 30 -183 14 -242 -6 -23 -18 -84 -28 -135 -14 -79 -15 -95 -3 -102 17 -11 49 5 56 28 3 9 12 30 20 45 7 16 14 36 14 46 0 9 5 22 11 28 32 32 54 317 28 364 -34 60 -43 65 -91 48z" />
</ns0:g>
</g><g transform="translate(0.487802816343617,108.02627281441005) scale(0.032186125601421485)"><ns0:metadata>
Created by potrace 1.16, written by Peter Selinger 2001-2019
</ns0:metadata>
<ns0:g transform="translate(0.000000,209.000000) scale(0.100000,-0.100000)" fill="#000000" stroke="none">
<ns0:path d="M1465 1968 c-33 -10 -96 -30 -140 -44 -44 -14 -91 -32 -103 -41 -25 -16 -97 -42 -201 -73 -78 -24 -210 -78 -231 -94 -8 -7 -44 -23 -80 -35 -36 -12 -101 -40 -145 -61 -44 -21 -142 -68 -217 -105 -80 -38 -142 -74 -148 -86 -17 -30 -8 -60 23 -83 26 -19 30 -19 85 -6 38 10 60 22 66 35 9 20 69 65 87 65 5 0 30 15 56 34 72 52 266 136 280 122 3 -3 1 -38 -5 -78 -6 -40 -14 -106 -18 -146 -8 -90 -35 -129 -95 -138 -21 -4 -39 -11 -39 -16 0 -5 -29 -23 -65 -39 -36 -17 -73 -41 -83 -54 -10 -13 -29 -25 -42 -27 -48 -7 -59 -40 -70 -218 -5 -91 -17 -212 -26 -268 -11 -72 -13 -107 -6 -114 14 -14 42 -3 42 17 0 8 11 32 23 53 23 35 39 91 52 177 3 22 12 78 20 125 8 47 17 102 20 123 5 29 10 37 21 33 9 -3 30 2 47 11 31 16 49 27 113 71 18 11 44 24 59 28 23 6 26 4 22 -12 -3 -11 -9 -46 -12 -79 -4 -33 -12 -96 -20 -140 -7 -44 -17 -120 -20 -170 -4 -49 -9 -93 -12 -97 -2 -5 -6 -52 -9 -105 -3 -54 -12 -147 -20 -208 -23 -168 -28 -235 -17 -235 12 0 48 65 61 110 6 19 19 60 31 90 11 31 27 119 35 195 26 226 30 233 94 157 40 -48 152 -122 184 -122 9 0 34 -14 54 -32 28 -25 39 -29 52 -21 32 19 46 67 53 188 11 164 16 199 54 360 19 77 37 156 40 175 4 19 20 64 36 99 16 35 29 69 29 75 0 6 22 43 48 83 97 149 102 158 102 207 0 66 -33 71 -95 16 -11 -10 -37 -27 -57 -39 -91 -51 -115 -65 -153 -90 -22 -15 -69 -42 -104 -61 -71 -36 -121 -67 -163 -100 -32 -25 -52 -18 -44 14 3 13 6 78 7 145 2 137 1 135 84 161 22 7 49 19 60 26 11 7 46 17 77 24 32 6 60 15 62 19 3 5 27 16 53 26 26 10 55 23 63 30 8 7 38 18 65 25 28 7 67 21 87 32 21 10 47 18 58 18 61 0 104 57 61 80 -26 14 -55 11 -126 -12z m-655 -298 c0 -5 -4 -10 -10 -10 -5 0 -10 5 -10 10 0 6 5 10 10 10 6 0 10 -4 10 -10z m495 -227 c-3 -16 -21 -59 -40 -98 -30 -65 -65 -186 -80 -280 -3 -22 -12 -58 -20 -80 -21 -64 -45 -226 -45 -310 l0 -77 -37 7 c-78 14 -168 78 -197 139 -9 18 -22 65 -31 104 -13 64 -13 81 5 201 10 72 24 139 29 150 12 21 99 101 111 101 4 0 52 27 106 60 54 33 102 60 106 60 4 0 24 11 44 25 47 32 58 32 49 -2z" />
<ns0:path d="M510 1920 c-38 -38 -27 -76 41 -141 67 -64 93 -72 111 -34 9 19 7 34 -6 68 -9 23 -16 52 -16 64 0 28 -45 63 -81 63 -16 0 -38 -9 -49 -20z" />
</ns0:g>
</g><g transform="translate(-0.12255475736111521,199.15909625582407) scale(0.032186125601421485)"><ns0:metadata>
Created by potrace 1.16, written by Peter Selinger 2001-2019
</ns0:metadata>
<ns0:g transform="translate(0.000000,210.000000) scale(0.100000,-0.100000)" fill="#000000" stroke="none">
<ns0:path d="M1158 1961 c-59 -57 -74 -78 -116 -166 -11 -22 -37 -63 -58 -92 -69 -93 -182 -260 -236 -348 -23 -38 -58 -91 -78 -116 -19 -25 -42 -56 -50 -69 -30 -44 -56 -78 -127 -162 -40 -47 -73 -89 -73 -94 0 -4 -10 -18 -22 -31 -18 -19 -20 -27 -10 -48 9 -20 19 -25 46 -25 31 0 40 7 78 57 24 31 61 77 83 102 23 25 49 60 60 76 48 78 193 231 206 218 5 -5 10 -81 11 -168 3 -157 3 -160 26 -163 12 -2 22 1 22 7 0 6 9 20 20 31 16 16 21 39 26 127 8 137 -3 298 -22 318 -20 20 -7 48 78 166 40 55 87 124 103 154 17 29 55 77 86 106 57 55 98 132 86 164 -4 9 -19 15 -41 15 -30 0 -46 -10 -98 -59z" />
<ns0:path d="M1644 1905 c-13 -13 -33 -29 -44 -35 -11 -6 -46 -33 -79 -60 -33 -28 -65 -50 -71 -50 -5 0 -10 14 -10 30 0 17 4 30 10 30 11 0 35 36 45 68 5 18 2 22 -14 22 -11 0 -35 -9 -53 -19 -18 -10 -50 -22 -71 -25 -21 -4 -41 -14 -44 -23 -3 -8 4 -38 16 -67 27 -66 27 -95 -4 -137 -36 -51 -75 -126 -75 -147 0 -23 19 -42 42 -42 10 0 18 -6 18 -13 0 -26 -41 -193 -64 -262 -21 -63 -26 -70 -48 -67 -14 2 -34 -5 -47 -15 -20 -16 -22 -30 -28 -150 l-6 -132 -36 -24 c-76 -51 -172 -98 -290 -142 -67 -25 -129 -45 -138 -45 -32 0 -93 -51 -93 -77 0 -57 48 -86 98 -59 31 17 105 49 171 76 64 26 95 40 169 78 79 39 86 40 78 5 -24 -112 -55 -269 -86 -448 -10 -60 -22 -125 -26 -142 l-6 -33 41 0 c33 0 41 4 41 18 0 10 4 22 10 28 11 11 36 108 60 239 44 236 78 371 109 430 20 37 89 92 162 131 15 7 37 22 50 34 36 30 99 71 144 91 22 11 65 37 95 60 30 22 69 47 85 55 67 33 84 45 90 65 4 12 2 26 -5 33 -19 19 -92 11 -132 -15 -56 -36 -147 -92 -201 -125 -27 -16 -63 -38 -81 -49 -18 -11 -55 -33 -82 -49 -27 -16 -61 -41 -76 -54 -15 -14 -31 -23 -34 -19 -11 10 16 130 33 150 9 9 23 17 32 17 43 0 162 98 344 282 126 128 161 178 125 178 -20 0 -52 -25 -174 -130 -86 -75 -174 -144 -200 -158 -21 -11 -24 -11 -24 5 0 44 75 370 96 420 8 17 36 53 63 80 78 77 171 186 171 200 0 21 -29 15 -56 -12z m-454 -1005 c0 -5 -4 -10 -10 -10 -5 0 -10 5 -10 10 0 6 5 10 10 10 6 0 10 -4 10 -10z m-170 -206 c0 -8 -4 -12 -10 -9 -5 3 -10 10 -10 16 0 5 5 9 10 9 6 0 10 -7 10 -16z m40 -444 c0 -5 -2 -10 -4 -10 -3 0 -8 5 -11 10 -3 6 -1 10 4 10 6 0 11 -4 11 -10z" />
</ns0:g>
</g><g transform="translate(1.0410529528825236,294.5906653272233) scale(0.032186125601421485)"><ns0:metadata>
Created by potrace 1.16, written by Peter Selinger 2001-2019
</ns0:metadata>
<ns0:g transform="translate(0.000000,207.000000) scale(0.100000,-0.100000)" fill="#000000" stroke="none">
<ns0:path d="M1290 1640 c0 -5 -18 -14 -39 -20 -75 -20 -162 -50 -189 -64 -15 -8 -58 -29 -97 -47 -38 -18 -98 -50 -133 -71 -35 -21 -81 -44 -102 -52 -58 -20 -130 -65 -130 -81 0 -8 -4 -15 -10 -15 -5 0 -10 -15 -10 -33 0 -61 56 -88 130 -62 49 17 100 60 100 84 0 15 89 81 109 81 5 0 11 4 13 9 3 9 199 111 214 111 5 0 32 12 59 25 28 14 55 25 62 25 20 0 83 61 83 80 0 11 -12 22 -30 29 -17 5 -30 6 -30 1z" />
<ns0:path d="M1610 1324 c-25 -14 -70 -39 -100 -56 -30 -17 -66 -40 -80 -52 -14 -13 -61 -44 -106 -69 -45 -26 -89 -56 -99 -67 -10 -11 -22 -20 -27 -20 -4 0 -36 -20 -70 -45 -34 -25 -68 -45 -76 -45 -8 0 -30 -9 -48 -21 l-34 -21 0 23 c0 12 6 48 14 78 8 31 20 82 26 114 10 47 16 60 40 72 32 17 57 53 43 65 -4 4 -38 10 -75 13 -92 8 -102 -2 -118 -118 -7 -49 -16 -103 -20 -120 -5 -16 -16 -67 -26 -112 -15 -76 -20 -84 -51 -103 -102 -60 -313 -128 -406 -131 -31 -1 -59 -5 -64 -8 -17 -13 -35 -60 -29 -78 8 -26 71 -56 94 -44 9 5 70 21 134 36 64 15 131 36 148 46 38 24 54 24 47 2 -37 -120 -111 -311 -130 -336 -13 -18 -32 -50 -42 -72 -10 -22 -32 -59 -48 -83 -58 -86 -3 -99 79 -19 30 30 54 57 54 60 0 4 16 27 35 52 19 25 41 60 49 78 18 40 66 187 66 204 0 24 70 148 112 199 24 28 62 62 85 74 24 13 67 38 95 57 29 19 68 41 86 50 19 9 50 32 70 52 40 38 60 52 110 75 18 9 54 32 80 51 92 70 198 147 235 172 28 18 37 30 35 46 -4 31 -35 31 -88 1z" />
<ns0:path d="M985 490 c-52 -32 -57 -40 -51 -74 11 -55 40 -72 211 -127 33 -11 74 -26 92 -34 17 -8 38 -15 46 -15 8 0 30 -6 49 -14 48 -20 210 -25 231 -7 27 22 20 37 -25 56 -24 10 -57 24 -74 31 -17 7 -56 20 -87 28 -44 12 -186 60 -275 94 -7 2 -20 19 -29 36 -26 51 -41 55 -88 26z" />
</ns0:g>
</g><g transform="translate(2.456085145999225,385.5636880897813) scale(0.032186125601421485)"><ns0:metadata>
Created by potrace 1.16, written by Peter Selinger 2001-2019
</ns0:metadata>
<ns0:g transform="translate(0.000000,202.000000) scale(0.100000,-0.100000)" fill="#000000" stroke="none">
<ns0:path d="M1664 1970 c-99 -71 -159 -113 -242 -167 -41 -27 -90 -58 -109 -71 -20 -13 -61 -37 -92 -53 -31 -17 -65 -38 -76 -48 -11 -11 -77 -48 -148 -84 -70 -36 -141 -77 -158 -91 -17 -14 -37 -26 -45 -26 -19 0 -94 -69 -94 -87 0 -17 48 -63 66 -63 17 0 107 58 192 124 20 15 46 32 57 37 22 10 28 13 140 85 44 28 125 77 180 108 123 70 111 63 176 109 30 20 56 37 60 37 7 0 -22 -143 -52 -250 -11 -41 -38 -115 -60 -164 -44 -101 -110 -288 -134 -385 -8 -35 -29 -88 -46 -118 -50 -87 -16 -98 42 -12 19 27 37 49 41 49 4 0 14 23 23 52 8 28 21 58 28 67 15 18 67 133 67 149 0 6 6 23 14 39 64 130 117 277 166 458 21 79 46 134 100 215 22 34 30 57 30 93 0 45 -1 47 -28 47 -18 0 -54 -18 -98 -50z" />
<ns0:path d="M522 1692 c-15 -10 -22 -25 -22 -48 0 -36 21 -54 62 -54 13 0 28 -4 34 -9 5 -5 48 -30 97 -56 88 -47 129 -54 135 -23 4 19 -50 77 -91 98 -17 8 -38 30 -48 49 -25 47 -27 48 -90 53 -38 3 -63 0 -77 -10z" />
<ns0:path d="M1225 1210 c-8 -14 -183 -130 -195 -130 -5 0 -14 9 -20 20 -25 47 -110 4 -110 -55 0 -26 -22 -47 -112 -105 -37 -24 -70 -52 -74 -62 -6 -21 20 -68 39 -68 6 0 18 -4 25 -8 24 -16 -80 -212 -112 -212 -7 0 -25 -14 -41 -30 -16 -16 -34 -30 -39 -30 -16 -1 -51 -32 -59 -53 -4 -10 -2 -27 3 -37 12 -22 92 -80 111 -80 22 0 189 -80 189 -90 0 -4 -11 -19 -25 -34 -28 -30 -30 -39 -15 -67 11 -19 60 -27 60 -10 0 5 9 13 21 16 11 4 27 22 36 41 22 45 24 45 157 14 105 -25 198 -32 237 -18 65 22 21 48 -136 78 -33 7 -64 16 -70 20 -5 5 -34 16 -63 25 -62 21 -61 7 -18 170 28 108 111 330 133 356 7 8 13 23 13 32 0 9 5 19 10 22 6 3 10 15 10 25 0 11 9 24 20 30 11 6 20 15 20 21 0 6 18 31 39 57 33 40 40 57 46 110 l7 62 -40 0 c-23 0 -44 -5 -47 -10z m-145 -243 c0 -14 -32 -81 -50 -101 -6 -8 -13 -24 -15 -35 -6 -31 -51 -161 -69 -196 -8 -16 -24 -74 -36 -127 -12 -54 -28 -105 -35 -115 -12 -16 -15 -16 -32 -2 -10 9 -44 28 -75 43 -32 15 -58 31 -58 35 0 4 23 32 50 63 28 31 50 62 50 69 0 7 11 24 24 38 20 22 64 102 110 201 7 14 20 25 30 25 10 0 22 10 27 23 5 12 13 22 19 22 5 0 10 10 10 23 0 25 17 47 37 47 7 0 13 -6 13 -13z" />
<ns0:path d="M379 1107 c-30 -8 -31 -10 -24 -45 4 -20 9 -133 12 -249 4 -202 5 -213 23 -213 11 0 31 12 45 27 21 24 25 37 25 93 0 36 5 97 11 135 6 39 14 93 18 121 4 29 15 60 25 69 10 10 16 29 14 44 -3 25 -6 26 -60 26 -32 0 -72 -4 -89 -8z" />
</ns0:g>
</g><g transform="translate(1.4429780468433364,471.68174445125305) scale(0.032186125601421485)"><ns0:metadata>
Created by potrace 1.16, written by Peter Selinger 2001-2019
</ns0:metadata>
<ns0:g transform="translate(0.000000,205.000000) scale(0.100000,-0.100000)" fill="#000000" stroke="none">
<ns0:path d="M833 1670 c-26 -11 -32 -60 -9 -79 7 -6 16 -32 19 -59 4 -26 9 -57 13 -68 5 -17 -6 -30 -58 -70 -35 -26 -93 -65 -130 -85 -66 -36 -70 -37 -143 -32 -65 5 -78 3 -96 -13 -18 -17 -20 -26 -14 -77 3 -32 15 -93 26 -135 15 -57 21 -120 24 -242 6 -226 13 -285 37 -307 19 -17 21 -17 39 6 10 13 20 37 20 55 1 17 3 112 5 211 7 355 7 350 26 347 25 -4 56 15 109 65 25 25 55 50 66 56 11 7 39 25 62 41 23 16 45 26 49 22 11 -11 19 -288 9 -309 -5 -10 -23 -25 -40 -32 -18 -7 -53 -33 -79 -58 -63 -59 -65 -93 -9 -134 l39 -28 -36 -50 c-20 -27 -49 -70 -66 -95 -56 -85 -180 -219 -201 -220 -6 0 -19 -14 -29 -30 -20 -36 -13 -50 34 -70 34 -14 42 -10 133 64 30 24 68 51 85 60 16 8 32 22 35 31 7 16 32 20 41 7 5 -8 2 -22 -29 -137 -7 -27 -12 -75 -10 -105 2 -30 4 -63 4 -73 1 -24 58 -56 161 -90 73 -24 101 -28 200 -29 131 0 247 23 330 67 14 7 50 20 80 28 30 7 81 31 114 53 32 21 68 44 79 51 12 7 25 20 28 30 11 27 -1 113 -22 155 -11 21 -19 46 -19 56 0 11 -11 40 -25 66 -14 26 -25 54 -25 62 0 21 -28 17 -40 -6 -17 -32 -15 -170 3 -214 25 -57 21 -70 -25 -100 -46 -30 -179 -86 -204 -86 -8 0 -28 -7 -44 -15 -19 -10 -83 -19 -180 -25 -146 -10 -151 -10 -205 13 -64 27 -109 63 -101 82 3 8 10 41 16 75 6 33 21 93 34 133 13 39 27 87 31 104 3 18 10 33 14 33 5 0 26 -14 47 -31 32 -26 44 -29 74 -24 41 8 64 26 79 63 23 58 61 366 61 498 0 73 6 178 12 235 15 124 13 306 -3 325 -6 8 -19 14 -29 14 -16 0 -137 -73 -150 -91 -10 -12 -72 -40 -78 -35 -3 4 -20 39 -37 79 -33 77 -51 88 -102 67z m295 -310 c-6 -63 -12 -189 -12 -280 -1 -91 -7 -196 -13 -235 -7 -38 -17 -106 -23 -150 -14 -93 -22 -106 -50 -80 -26 23 -25 29 5 59 45 45 23 80 -36 56 -16 -7 -32 -10 -35 -7 -3 3 2 36 11 74 14 54 18 120 20 328 2 143 6 268 10 277 9 22 117 90 126 80 4 -4 3 -59 -3 -122z m-298 -724 c0 -19 -37 -63 -45 -54 -4 3 3 20 16 37 26 35 29 37 29 17z" />
</ns0:g>
</g><g transform="translate(2.448934174037049,574.0446569451829) scale(0.032186125601421485)"><ns0:metadata>
Created by potrace 1.16, written by Peter Selinger 2001-2019
</ns0:metadata>
<ns0:g transform="translate(0.000000,208.000000) scale(0.100000,-0.100000)" fill="#000000" stroke="none">
<ns0:path d="M1330 1599 c-58 -10 -134 -23 -170 -29 -36 -6 -83 -17 -105 -25 -36 -12 -40 -17 -38 -47 2 -49 35 -71 92 -63 25 4 61 13 81 19 92 33 150 46 150 32 0 -13 -104 -207 -116 -217 -9 -7 -29 -38 -45 -68 -16 -31 -43 -78 -59 -106 -16 -27 -37 -65 -46 -82 -9 -18 -20 -33 -24 -33 -4 0 -13 -14 -20 -30 -18 -43 -59 -61 -180 -77 -58 -7 -136 -18 -175 -23 -128 -17 -165 -35 -165 -79 0 -37 57 -76 91 -62 31 13 166 46 249 61 36 7 91 19 123 28 l58 15 32 -31 c51 -50 84 -126 97 -228 17 -125 17 -125 -121 -154 -91 -19 -117 -21 -142 -12 -34 13 -47 8 -47 -16 0 -11 16 -25 43 -36 35 -16 64 -18 174 -17 158 2 183 9 183 50 0 17 6 34 14 38 11 6 12 26 5 103 -9 110 -26 181 -63 264 -14 32 -26 64 -26 71 0 15 22 25 53 25 12 0 45 12 72 26 55 27 127 53 222 79 69 19 96 40 72 56 -22 15 -146 0 -214 -26 -65 -24 -202 -52 -211 -43 -7 8 26 72 60 117 14 19 26 39 26 43 0 5 16 31 35 58 20 28 48 76 62 108 15 31 44 79 65 105 38 49 54 88 65 165 10 69 5 70 -157 41z m-520 -769 c0 -5 -12 -12 -27 -16 -16 -3 -34 -7 -40 -10 -7 -2 -13 1 -13 6 0 5 15 14 33 19 43 12 47 13 47 1z" />
</ns0:g>
</g><g transform="translate(0.9036291116401003,666.470075192667) scale(0.032186125601421485)"><ns0:metadata>
Created by potrace 1.16, written by Peter Selinger 2001-2019
</ns0:metadata>
<ns0:g transform="translate(0.000000,208.000000) scale(0.100000,-0.100000)" fill="#000000" stroke="none">
<ns0:path d="M1363 2056 c-26 -22 -151 -100 -246 -155 -23 -13 -67 -40 -97 -59 -80 -53 -137 -82 -144 -75 -3 4 -6 30 -6 59 0 56 -14 100 -35 108 -7 2 -23 -1 -36 -8 -22 -11 -24 -18 -25 -91 -2 -137 -3 -139 -129 -217 -27 -17 -83 -48 -123 -69 -66 -35 -127 -76 -160 -106 -7 -7 -18 -13 -23 -13 -5 0 -9 -8 -9 -18 0 -10 -7 -27 -15 -38 -8 -10 -15 -26 -15 -34 0 -21 55 -80 74 -80 9 0 32 26 52 58 20 31 53 70 74 85 55 39 162 98 168 93 7 -8 -12 -54 -84 -201 -34 -71 -77 -165 -95 -207 -22 -52 -43 -86 -66 -104 -18 -14 -33 -30 -33 -35 0 -4 -26 -34 -57 -66 -148 -149 -211 -272 -154 -303 29 -15 34 -13 80 23 39 31 64 62 148 187 117 173 204 273 221 256 5 -5 -17 -296 -24 -307 -2 -3 -8 -37 -14 -75 -6 -38 -20 -88 -32 -112 -23 -48 -16 -65 22 -54 62 18 93 64 109 162 22 143 40 285 44 360 6 99 -9 130 -65 130 -40 0 -36 24 21 132 27 51 64 134 81 184 36 103 85 163 166 203 43 21 114 71 152 108 7 7 18 13 23 13 10 0 70 42 97 68 7 6 19 12 26 12 7 0 23 12 37 26 13 14 37 32 52 40 15 9 46 32 68 54 35 34 38 41 29 64 -12 32 -21 32 -57 2z" />
<ns0:path d="M1372 1773 c-158 -153 -227 -214 -278 -246 -24 -15 -44 -31 -44 -35 0 -4 -40 -42 -89 -83 -126 -104 -159 -178 -93 -209 23 -10 29 -9 45 12 50 63 241 248 255 248 14 0 82 72 82 87 0 7 6 13 13 13 8 0 19 10 26 23 11 21 70 62 78 54 2 -2 -3 -33 -11 -68 -24 -104 -49 -432 -42 -540 8 -111 14 -101 -96 -157 -41 -22 -97 -54 -122 -72 -51 -34 -64 -35 -46 -1 6 12 13 50 17 85 5 60 4 66 -22 91 -25 26 -31 27 -90 22 -69 -7 -139 -36 -149 -62 -15 -39 -6 -61 29 -78 46 -22 52 -22 87 8 38 32 62 33 52 3 -10 -34 -77 -138 -126 -198 -33 -41 -35 -63 -8 -90 20 -20 80 -28 80 -10 0 5 17 18 39 29 l38 20 81 -78 c55 -52 97 -84 129 -96 44 -17 126 -58 171 -86 28 -17 51 -5 68 37 14 33 14 59 -2 263 -18 247 -23 540 -12 696 13 176 38 286 94 416 36 84 30 109 -25 109 -10 0 -68 -48 -129 -107z m-48 -990 c4 -43 12 -122 18 -176 13 -121 9 -128 -59 -100 -26 11 -60 23 -74 27 -15 3 -54 26 -87 50 l-61 45 26 46 c14 26 33 49 42 53 9 3 52 34 96 69 44 34 83 63 87 63 3 0 9 -35 12 -77z" />
</ns0:g>
</g><g transform="translate(-0.412712357631392,749.5726597727254) scale(0.032186125601421485)"><ns0:metadata>
Created by potrace 1.16, written by Peter Selinger 2001-2019
</ns0:metadata>
<ns0:g transform="translate(0.000000,210.000000) scale(0.100000,-0.100000)" fill="#000000" stroke="none">
<ns0:path d="M1369 1882 c-6 -13 -246 -190 -268 -197 -26 -8 -41 1 -41 24 0 27 -24 43 -54 35 -32 -8 -66 -69 -90 -158 -8 -32 -24 -68 -35 -80 -15 -16 -19 -30 -14 -61 3 -27 -6 -87 -30 -185 -19 -80 -45 -190 -57 -245 -12 -55 -27 -116 -33 -135 -6 -19 -12 -82 -13 -140 -2 -102 -14 -185 -34 -225 -6 -11 -21 -69 -34 -130 -13 -60 -30 -125 -37 -143 -19 -45 3 -86 48 -90 26 -3 45 7 96 46 35 27 77 57 93 65 16 9 56 41 89 73 64 60 112 94 134 94 7 0 29 14 48 30 39 35 52 37 84 11 13 -10 69 -42 124 -71 55 -29 116 -63 135 -75 19 -11 54 -27 77 -34 49 -16 73 -5 73 34 0 31 -42 90 -65 91 -11 1 -36 11 -55 22 -19 12 -53 31 -75 43 -49 27 -92 56 -128 88 l-27 25 72 73 c130 132 161 175 148 208 -7 19 -10 17 -41 -16 -19 -20 -59 -51 -89 -69 -30 -18 -68 -45 -85 -59 -16 -15 -50 -42 -74 -60 l-43 -34 -42 23 c-22 13 -43 26 -46 29 -34 41 -116 53 -144 22 -33 -37 -3 -88 65 -110 20 -7 44 -20 53 -29 14 -17 13 -21 -29 -55 -24 -20 -48 -37 -54 -37 -6 0 -15 -9 -21 -20 -6 -11 -48 -47 -93 -81 -99 -74 -101 -70 -63 84 14 56 30 132 35 169 5 37 14 82 20 100 6 18 18 63 27 101 18 72 12 65 146 163 16 12 35 28 41 36 7 8 37 30 67 49 76 47 102 76 90 100 -15 27 -30 32 -48 17 -9 -8 -42 -25 -72 -37 -30 -13 -77 -37 -103 -53 -41 -26 -52 -29 -73 -20 -27 13 -30 32 -13 83 15 43 12 42 41 29 21 -10 31 -7 69 18 24 16 62 41 84 54 22 14 53 37 68 52 15 14 32 26 37 26 13 0 66 52 80 79 10 19 9 26 -4 39 -15 15 -19 15 -49 -2 -17 -10 -43 -29 -57 -41 -27 -23 -219 -119 -226 -112 -2 2 2 23 10 48 8 24 17 55 20 69 8 37 160 190 189 190 6 0 41 21 78 46 38 25 72 44 76 41 16 -10 5 -229 -43 -818 -4 -48 -2 -79 4 -83 15 -9 59 10 71 32 17 32 57 466 77 832 13 230 15 215 -27 218 -21 2 -39 -1 -40 -6z" />
<ns0:path d="M551 1704 c-37 -10 -72 -30 -115 -65 -33 -28 -64 -57 -68 -63 -4 -7 0 -71 7 -144 12 -117 12 -136 -1 -169 -10 -24 -14 -51 -10 -77 11 -73 9 -199 -3 -276 -7 -41 -15 -77 -17 -80 -3 -2 -19 -4 -37 -5 -26 0 -31 -4 -29 -20 2 -11 16 -32 33 -46 l30 -26 -21 -144 c-11 -79 -25 -161 -31 -182 -11 -43 -14 -253 -3 -280 8 -23 37 -22 59 3 13 15 20 47 27 127 5 60 20 169 34 243 13 74 27 166 31 203 4 48 13 78 29 100 12 18 46 73 75 122 29 50 59 96 65 102 33 34 40 198 10 238 -7 9 -30 16 -63 17 -36 2 -53 7 -53 15 0 7 16 37 36 67 44 67 81 173 89 263 9 88 1 96 -74 77z m-11 -554 c0 -21 -42 -120 -51 -120 -18 0 -3 112 16 127 18 13 35 9 35 -7z" />
</ns0:g>
</g><g transform="translate(-2.8878062768503696,843.5216094261502) scale(0.032186125601421485)"><ns0:metadata>
Created by potrace 1.16, written by Peter Selinger 2001-2019
</ns0:metadata>
<ns0:g transform="translate(0.000000,207.000000) scale(0.100000,-0.100000)" fill="#000000" stroke="none">
<ns0:path d="M1005 1928 c-21 -24 -57 -83 -82 -133 -24 -49 -57 -115 -74 -145 -17 -30 -58 -113 -91 -185 -33 -71 -77 -155 -96 -185 -38 -59 -112 -200 -112 -213 0 -5 -11 -23 -25 -41 -14 -18 -25 -37 -25 -43 0 -6 -20 -41 -45 -79 -25 -37 -45 -72 -45 -77 0 -4 -12 -33 -27 -63 -25 -51 -26 -56 -10 -72 20 -19 43 -10 61 24 24 45 81 133 117 180 21 28 68 107 103 177 35 69 78 145 94 169 16 24 48 81 71 128 24 47 51 99 61 115 10 17 21 40 24 52 9 28 69 129 94 157 11 12 36 49 56 84 21 34 50 69 66 77 53 27 40 80 -26 105 -41 16 -50 12 -89 -32z" />
<ns0:path d="M1188 1549 c-21 -11 -25 -79 -6 -79 6 0 19 -6 27 -14 9 -8 41 -24 71 -36 30 -12 65 -31 76 -42 27 -24 77 -21 82 5 4 18 -18 42 -125 140 -43 39 -88 48 -125 26z" />
<ns0:path d="M1040 1183 c-8 -2 -24 -8 -35 -13 -11 -5 -32 -11 -46 -14 -25 -5 -26 -8 -32 -105 -12 -179 -73 -380 -151 -496 -100 -149 -130 -187 -181 -231 -50 -44 -53 -48 -43 -75 6 -16 23 -36 38 -44 31 -16 37 -12 119 63 35 32 117 77 178 97 29 9 55 21 58 26 4 5 17 9 30 9 13 0 27 5 30 10 3 6 17 10 29 10 13 0 29 6 36 14 6 8 17 13 25 10 7 -3 27 2 44 10 16 9 37 16 46 16 9 0 44 13 78 29 54 25 113 45 140 46 4 0 18 -29 31 -65 38 -109 55 -142 68 -138 23 8 29 115 13 213 -8 50 -17 137 -19 194 -3 57 -6 104 -8 105 -68 48 -108 54 -142 21 -15 -15 -13 -59 3 -80 9 -11 41 -136 41 -158 0 -9 -16 -16 -45 -20 -25 -4 -63 -16 -85 -27 -21 -11 -47 -20 -57 -20 -16 0 -128 -32 -281 -81 -35 -11 -66 -18 -69 -15 -3 3 13 33 36 68 22 35 41 70 41 78 0 8 7 28 15 43 8 16 29 94 46 175 17 81 35 155 40 164 5 10 9 30 9 44 0 14 11 39 25 56 27 32 32 57 13 76 -13 13 -15 13 -38 5z" />
</ns0:g>
</g><g transform="translate(-0.3103554059269982,936.1506397526366) scale(0.032186125601421485)"><ns0:metadata>
Created by potrace 1.16, written by Peter Selinger 2001-2019
</ns0:metadata>
<ns0:g transform="translate(0.000000,209.000000) scale(0.100000,-0.100000)" fill="#000000" stroke="none">
<ns0:path d="M1199 2057 c-116 -67 -156 -91 -219 -132 -36 -23 -101 -61 -145 -84 -44 -24 -84 -49 -88 -57 -4 -8 -12 -14 -18 -14 -19 0 -136 -59 -149 -75 -8 -10 -39 -28 -70 -41 -85 -38 -113 -91 -71 -133 16 -16 30 -19 72 -15 57 5 89 18 89 37 0 17 87 107 103 107 8 0 26 11 40 24 26 24 35 30 132 80 28 15 66 38 85 51 61 44 111 75 120 75 4 0 20 14 33 30 14 17 32 30 40 30 8 0 20 7 27 15 7 8 18 15 26 15 7 0 20 7 29 16 9 9 18 14 21 11 7 -7 -28 -158 -65 -282 -17 -55 -33 -116 -36 -135 -3 -19 -12 -64 -20 -100 -32 -136 -52 -265 -60 -393 -3 -42 -11 -96 -19 -120 -35 -110 -49 -277 -35 -405 6 -51 9 -95 6 -99 -3 -3 -21 6 -39 20 -60 45 -94 57 -160 57 -81 0 -110 -8 -106 -29 2 -11 22 -19 68 -26 36 -6 75 -16 86 -23 33 -18 100 -102 128 -162 15 -30 31 -62 36 -70 5 -8 17 -32 26 -53 21 -48 57 -68 81 -45 21 22 28 102 14 180 -6 34 -18 131 -26 213 -19 173 -15 261 21 444 13 69 24 137 24 152 0 135 130 698 187 813 14 27 27 73 30 102 l6 54 -74 0 c-65 -1 -81 -5 -130 -33z" />
<ns0:path d="M1055 1615 c-16 -8 -61 -28 -100 -45 -38 -18 -87 -44 -110 -59 -22 -15 -52 -32 -66 -38 -15 -6 -42 -25 -60 -41 -19 -16 -54 -40 -79 -52 -91 -47 -144 -137 -105 -180 14 -16 31 -20 81 -20 34 0 69 3 78 6 21 8 21 60 0 72 -24 13 35 67 206 189 14 10 61 36 104 58 92 46 136 81 136 107 0 22 -40 24 -85 3z" />
<ns0:path d="M588 1004 c-38 -20 -41 -53 -7 -90 19 -20 19 -21 -1 -39 -11 -10 -20 -24 -20 -30 0 -7 -7 -18 -15 -25 -8 -7 -15 -21 -15 -31 0 -11 -4 -19 -9 -19 -29 0 -75 -236 -52 -264 26 -31 63 -26 151 21 154 84 310 264 310 360 0 42 -34 69 -101 82 -31 5 -82 19 -115 30 -69 25 -89 25 -126 5z m182 -114 c25 -6 55 -12 66 -15 12 -3 24 -12 28 -20 9 -25 -28 -88 -76 -128 -24 -20 -51 -43 -60 -51 -27 -23 -75 -46 -97 -46 -11 0 -23 -5 -26 -10 -4 -6 -11 -7 -17 -4 -11 7 -4 74 12 102 5 9 21 46 36 82 44 104 50 108 134 90z" />
</ns0:g>
</g></svg>