<?xml version='1.0' encoding='utf-8'?>
<svg xmlns:ns0="http://www.w3.org/2000/svg" xmlns="http://www.w3.org/2000/svg" width="235" height="121" viewBox="0 0 235 121"><g transform="translate(2.336348213794679,-101.98199075886072) scale(0.051068870680077885)"><ns0:metadata>
Created by potrace 1.16, written by Peter Selinger 2001-2019
</ns0:metadata>
<ns0:g transform="translate(0.000000,212.000000) scale(0.100000,-0.100000)" fill="#000000" stroke="none">
<ns0:path d="M911 1561 c-36 -36 -27 -59 32 -86 28 -14 58 -25 65 -25 22 0 97 -56 111 -83 35 -66 -27 -206 -136 -304 -71 -64 -113 -93 -138 -93 -9 0 -9 16 2 72 19 100 -6 455 -34 475 -19 15 -50 8 -75 -16 -19 -19 -34 -150 -31 -276 7 -286 8 -626 1 -715 -9 -117 -1 -151 38 -169 33 -15 60 3 68 43 4 17 6 123 6 236 0 113 -1 215 0 228 0 18 15 29 83 61 45 21 99 53 119 72 20 19 50 44 66 56 16 12 37 38 46 57 9 19 21 38 26 41 6 3 15 26 21 51 6 24 15 44 19 44 13 0 25 60 21 105 -4 48 -34 110 -70 146 -86 85 -197 123 -240 80z" />
</ns0:g>
</g><g transform="translate(-2.319596177046776,41.473963090352356) scale(0.051068870680077885)"><ns0:metadata>
Created by potrace 1.16, written by Peter Selinger 2001-2019
</ns0:metadata>
<ns0:g transform="translate(0.000000,208.000000) scale(0.100000,-0.100000)" fill="#000000" stroke="none">
<ns0:path d="M1273 1433 c-13 -13 -35 -23 -48 -23 -25 0 -55 -21 -119 -86 -80 -79 -150 -226 -161 -336 -4 -35 -12 -79 -20 -98 -35 -95 -90 -375 -82 -428 10 -78 32 -111 92 -137 65 -29 111 -27 178 7 134 69 234 183 296 338 17 41 35 83 41 93 18 31 58 169 80 277 30 147 41 266 29 316 -10 37 -50 94 -67 94 -195 6 -194 6 -219 -17z m181 -86 c15 -11 17 -24 13 -83 -6 -93 -33 -233 -63 -323 -13 -40 -24 -77 -24 -82 0 -5 -13 -38 -30 -72 -16 -35 -30 -73 -30 -84 0 -11 -16 -40 -35 -64 -19 -24 -35 -49 -35 -54 0 -18 -74 -91 -130 -127 -76 -49 -114 -55 -147 -22 -24 24 -25 29 -18 102 3 42 17 120 30 172 13 52 33 140 43 195 32 159 72 248 132 290 15 11 61 47 101 80 40 33 82 65 93 72 28 16 78 16 100 0z" />
</ns0:g>
</g><g transform="translate(-0.2227618985093045,180.7171394648105) scale(0.051068870680077885)"><ns0:metadata>
Created by potrace 1.16, written by Peter Selinger 2001-2019
</ns0:metadata>
<ns0:g transform="translate(0.000000,209.000000) scale(0.100000,-0.100000)" fill="#000000" stroke="none">
<ns0:path d="M946 1349 c-52 -12 -68 -27 -64 -58 3 -23 9 -27 53 -32 28 -3 43 -7 34 -7 -9 -1 -28 -13 -42 -26 -15 -14 -35 -27 -46 -31 -38 -12 -61 -59 -72 -147 -13 -107 -20 -170 -23 -238 -2 -30 -13 -89 -26 -130 -29 -95 -78 -240 -90 -261 -17 -33 -22 -107 -9 -143 11 -31 20 -38 62 -50 90 -26 205 -3 280 58 73 58 187 171 214 211 15 22 35 49 44 60 51 61 109 211 109 283 0 97 -39 277 -79 362 -14 30 -47 76 -74 101 -44 42 -55 47 -109 53 -76 8 -112 6 -162 -5z m217 -142 c73 -96 112 -221 110 -352 -1 -83 -27 -157 -81 -230 -21 -27 -50 -69 -65 -91 -29 -43 -175 -174 -207 -186 -48 -18 -120 -25 -137 -13 -15 11 -15 18 -4 61 7 27 19 63 26 79 34 77 65 228 85 415 13 112 36 210 50 210 5 0 44 36 87 79 86 87 90 88 136 28z" />
</ns0:g>
</g><g transform="translate(-1.9727325860104088,329.9688335394263) scale(0.051068870680077885)"><ns0:metadata>
Created by potrace 1.16, written by Peter Selinger 2001-2019
</ns0:metadata>
<ns0:g transform="translate(0.000000,212.000000) scale(0.100000,-0.100000)" fill="#000000" stroke="none">
<ns0:path d="M1439 1893 c-58 -6 -137 -88 -189 -196 -23 -48 -49 -110 -58 -139 -14 -42 -23 -53 -47 -61 -16 -5 -38 -16 -47 -24 -19 -17 -94 -193 -102 -240 -8 -48 9 -48 38 0 l26 42 -6 -115 c-8 -143 -16 -200 -29 -203 -5 -1 -14 13 -20 31 -5 17 -12 32 -16 32 -18 0 -12 -59 10 -109 24 -54 24 -55 8 -120 -9 -36 -19 -93 -23 -126 -9 -85 -48 -198 -78 -228 -30 -30 -35 -81 -10 -91 36 -14 63 -5 91 29 35 42 89 190 98 270 12 107 51 195 87 195 7 0 28 10 47 23 20 13 60 39 88 58 29 19 53 39 53 44 0 6 19 28 41 50 22 22 52 58 66 80 15 22 34 48 41 57 23 28 112 228 112 252 0 12 5 27 10 32 27 27 38 197 20 301 -11 62 -19 80 -49 113 -38 41 -80 52 -162 43z m104 -135 c21 -42 25 -207 8 -293 -35 -174 -147 -377 -268 -484 -60 -54 -133 -95 -144 -83 -4 4 -4 28 1 53 5 25 12 97 16 160 4 65 15 140 26 174 10 33 23 89 27 125 14 105 106 272 193 350 33 29 49 36 82 35 37 0 43 -3 59 -37z" />
<ns0:path d="M1283 877 c-18 -5 -33 -14 -33 -19 0 -6 -10 -18 -22 -28 l-23 -18 26 -10 c14 -6 52 -35 84 -66 31 -31 61 -56 66 -56 4 0 32 -19 61 -43 67 -54 183 -127 202 -127 8 0 28 16 45 35 52 59 36 142 -20 107 -28 -18 -37 -15 -93 22 -63 42 -208 162 -219 181 -13 25 -40 32 -74 22z" />
</ns0:g>
</g><g transform="translate(-2.564442809280706,469.0025017244701) scale(0.051068870680077885)"><ns0:metadata>
Created by potrace 1.16, written by Peter Selinger 2001-2019
</ns0:metadata>
<ns0:g transform="translate(0.000000,208.000000) scale(0.100000,-0.100000)" fill="#000000" stroke="none">
<ns0:path d="M1139 1489 c-65 -23 -118 -73 -103 -97 24 -37 53 -42 102 -16 29 16 62 24 92 24 41 0 50 -4 65 -27 26 -39 22 -126 -8 -194 -54 -119 -68 -147 -106 -209 -22 -36 -57 -93 -78 -128 -89 -146 -192 -293 -211 -300 -16 -5 -15 32 2 105 20 86 35 204 42 327 3 60 12 129 20 154 15 44 34 214 27 242 -3 8 -16 23 -29 33 -23 17 -27 17 -49 3 -13 -9 -28 -24 -34 -33 -14 -27 -30 -181 -37 -353 -6 -156 -28 -349 -43 -379 -7 -14 -19 -108 -26 -199 -1 -22 -13 -43 -35 -65 -29 -29 -33 -30 -45 -14 -7 9 -16 17 -20 17 -9 0 -45 -44 -67 -83 -15 -27 -16 -33 -2 -58 33 -65 147 -10 307 149 53 53 131 158 201 270 41 67 68 109 109 174 21 31 37 60 37 65 0 4 15 31 33 58 19 28 41 70 49 95 69 200 78 284 40 361 -25 51 -41 62 -124 82 -52 12 -63 12 -109 -4z" />
</ns0:g>
</g><g transform="translate(1.1311809035608462,636.8518749349324) scale(0.051068870680077885)"><ns0:metadata>
Created by potrace 1.16, written by Peter Selinger 2001-2019
</ns0:metadata>
<ns0:g transform="translate(0.000000,206.000000) scale(0.100000,-0.100000)" fill="#000000" stroke="none">
<ns0:path d="M988 1436 c-15 -8 -48 -14 -74 -14 -25 0 -51 -5 -56 -10 -6 -6 -17 -59 -24 -119 -8 -59 -23 -135 -34 -168 -22 -70 -41 -285 -30 -341 10 -50 18 -70 48 -118 23 -38 25 -38 73 -34 40 4 61 15 121 61 115 88 187 166 238 261 20 35 21 45 12 115 -20 149 -54 229 -119 275 -24 16 -45 37 -48 45 -4 13 -66 61 -77 61 -2 0 -15 -6 -30 -14z m39 -113 c65 -64 93 -107 117 -180 14 -43 26 -89 26 -102 0 -54 -117 -195 -204 -246 -90 -52 -106 -14 -76 175 12 74 23 146 25 160 8 53 33 142 44 153 6 6 11 21 11 32 0 43 19 45 57 8z" />
</ns0:g>
</g><g transform="translate(-0.9363900031219714,777.1449766932035) scale(0.051068870680077885)"><ns0:metadata>
Created by potrace 1.16, written by Peter Selinger 2001-2019
</ns0:metadata>
<ns0:g transform="translate(0.000000,213.000000) scale(0.100000,-0.100000)" fill="#000000" stroke="none">
<ns0:path d="M1263 1463 c-38 -7 -193 -184 -228 -261 -14 -30 -14 -43 5 -145 28 -152 36 -189 44 -208 7 -16 -36 -71 -124 -159 -14 -14 -37 -47 -50 -73 l-25 -48 23 -20 c15 -11 38 -18 60 -18 21 0 96 -4 167 -9 143 -11 238 0 271 30 16 14 21 44 15 87 0 4 -26 28 -58 52 -87 68 -133 119 -133 148 0 14 34 94 75 178 41 84 79 170 83 190 8 39 -3 130 -18 148 -5 6 -11 28 -15 50 -12 63 -24 71 -92 58z m15 -168 c32 -69 -10 -190 -94 -275 -21 -21 -30 -3 -44 82 l-12 68 62 75 c35 41 66 75 70 75 4 0 12 -11 18 -25z m-75 -604 c31 -27 66 -52 77 -56 29 -9 21 -37 -14 -46 -16 -5 -51 -4 -79 2 -27 5 -64 9 -81 9 -51 0 -63 13 -41 47 32 50 66 93 74 93 4 0 33 -22 64 -49z" />
</ns0:g>
</g><g transform="translate(-2.686280089747811,926.2006444616488) scale(0.051068870680077885)"><ns0:metadata>
Created by potrace 1.16, written by Peter Selinger 2001-2019
</ns0:metadata>
<ns0:g transform="translate(0.000000,206.000000) scale(0.100000,-0.100000)" fill="#000000" stroke="none">
<ns0:path d="M1020 1511 c-17 -5 -26 -16 -30 -36 -3 -18 -15 -34 -28 -41 -44 -22 -55 -57 -90 -299 -21 -148 -20 -340 3 -365 8 -9 15 -26 15 -39 0 -12 6 -37 14 -56 19 -46 54 -54 109 -27 23 11 65 24 92 27 62 9 71 16 102 80 79 163 90 203 94 340 6 233 -3 325 -33 325 -6 0 -27 14 -49 31 -21 16 -55 33 -76 36 -21 3 -47 12 -58 19 -21 15 -27 16 -65 5z m115 -114 c60 -34 66 -55 66 -225 0 -142 -11 -210 -40 -246 -5 -6 -14 -29 -21 -50 -19 -58 -62 -96 -109 -96 -37 0 -39 1 -55 53 -17 53 -16 54 18 213 19 87 40 180 46 206 7 26 9 56 5 67 -3 10 -1 22 5 26 5 3 10 22 10 41 0 41 17 44 75 11z" />
</ns0:g>
</g><g transform="translate(0.9769509824820943,1073.1580747969335) scale(0.051068870680077885)"><ns0:metadata>
Created by potrace 1.16, written by Peter Selinger 2001-2019
</ns0:metadata>
<ns0:g transform="translate(0.000000,206.000000) scale(0.100000,-0.100000)" fill="#000000" stroke="none">
<ns0:path d="M832 1494 c-13 -9 -22 -26 -22 -40 0 -26 -5 -26 -57 -7 -25 10 -43 -44 -53 -157 -5 -63 -17 -158 -26 -210 -37 -223 -43 -284 -33 -329 21 -93 91 -146 174 -130 49 9 156 79 198 129 52 61 65 320 25 491 -12 52 -21 118 -20 148 2 72 -9 88 -63 97 -25 3 -45 10 -45 15 0 15 -54 10 -78 -7z m63 -98 c10 4 15 0 15 -15 0 -12 12 -79 28 -149 30 -141 34 -248 13 -350 -12 -53 -20 -67 -52 -93 -48 -38 -101 -54 -129 -39 -17 9 -20 20 -19 73 0 61 3 81 32 247 8 47 20 137 27 200 14 145 13 142 45 130 13 -5 32 -7 40 -4z" />
</ns0:g>
</g><g transform="translate(2.501011764065254,1210.4686206967824) scale(0.051068870680077885)"><ns0:metadata>
Created by potrace 1.16, written by Peter Selinger 2001-2019
</ns0:metadata>
<ns0:g transform="translate(0.000000,205.000000) scale(0.100000,-0.100000)" fill="#000000" stroke="none">
<ns0:path d="M802 1318 c-45 -67 -75 -135 -68 -153 5 -14 9 -15 21 -5 12 10 15 10 15 -3 0 -9 -4 -27 -10 -41 -5 -14 -16 -76 -25 -138 -17 -125 -33 -223 -41 -251 -5 -15 -8 -16 -20 -6 -29 24 -38 -4 -24 -78 21 -111 57 -151 107 -118 25 17 27 22 42 145 23 192 62 413 78 443 9 18 20 52 24 77 4 25 10 62 14 82 4 20 5 48 1 62 -5 22 -12 26 -46 26 -35 0 -42 -5 -68 -42z" />
</ns0:g>
</g><g transform="translate(-1.693371479794223,1353.6424762355123) scale(0.051068870680077885)"><ns0:metadata>
Created by potrace 1.16, written by Peter Selinger 2001-2019
</ns0:metadata>
<ns0:g transform="translate(0.000000,206.000000) scale(0.100000,-0.100000)" fill="#000000" stroke="none">
<ns0:path d="M1199 1320 c-33 -17 -38 -26 -53 -87 -9 -37 -20 -99 -26 -138 -13 -100 -45 -249 -69 -325 -12 -36 -21 -79 -21 -97 0 -18 -6 -52 -14 -75 -8 -24 -17 -61 -21 -83 -3 -22 -8 -50 -11 -62 -3 -17 2 -23 27 -28 57 -13 78 27 120 230 10 50 27 119 37 155 11 36 30 112 42 170 13 58 29 112 36 120 6 8 15 33 19 55 3 22 14 48 22 57 18 20 13 48 -17 96 -23 37 -23 37 -71 12z" />
</ns0:g>
</g></svg>