<?xml version='1.0' encoding='utf-8'?>
<svg xmlns:ns0="http://www.w3.org/2000/svg" xmlns="http://www.w3.org/2000/svg" width="235" height="109" viewBox="0 0 235 109"><g transform="translate(0.14060686495821528,-99.91216300897335) scale(0.0460041892903181)"><ns0:metadata>
Created by potrace 1.16, written by Peter Selinger 2001-2019
</ns0:metadata>
<ns0:g transform="translate(0.000000,212.000000) scale(0.100000,-0.100000)" fill="#000000" stroke="none">
<ns0:path d="M1085 1599 c-22 -5 -69 -14 -105 -20 -82 -14 -119 -45 -104 -87 13 -37 54 -40 156 -8 95 30 116 32 125 9 12 -32 -44 -199 -88 -258 -16 -22 -66 -96 -112 -165 -45 -68 -87 -126 -93 -127 -10 -3 -24 130 -40 362 -3 50 -10 102 -16 118 -13 35 -46 36 -78 2 -22 -23 -23 -32 -21 -128 1 -56 11 -160 22 -230 14 -87 19 -149 14 -190 -3 -34 -5 -105 -5 -157 2 -190 -49 -432 -93 -444 -17 -4 -19 -11 -13 -48 7 -46 27 -68 61 -68 39 0 47 15 110 210 9 30 22 104 27 165 5 60 11 139 15 175 4 57 9 68 38 96 19 17 59 69 90 115 30 46 64 98 75 114 12 17 35 53 53 80 17 28 34 52 38 55 9 7 61 109 76 150 7 19 20 74 28 122 14 79 14 91 0 118 -26 50 -66 60 -160 39z m-275 -579 c0 -5 -4 -10 -10 -10 -5 0 -10 5 -10 10 0 6 5 10 10 10 6 0 10 -4 10 -10z" />
</ns0:g>
</g><g transform="translate(2.678954136499101,36.03652468186925) scale(0.0460041892903181)"><ns0:metadata>
Created by potrace 1.16, written by Peter Selinger 2001-2019
</ns0:metadata>
<ns0:g transform="translate(0.000000,208.000000) scale(0.100000,-0.100000)" fill="#000000" stroke="none">
<ns0:path d="M1273 1433 c-13 -13 -35 -23 -48 -23 -25 0 -55 -21 -119 -86 -80 -79 -150 -226 -161 -336 -4 -35 -12 -79 -20 -98 -35 -95 -90 -375 -82 -428 10 -78 32 -111 92 -137 65 -29 111 -27 178 7 134 69 234 183 296 338 17 41 35 83 41 93 18 31 58 169 80 277 30 147 41 266 29 316 -10 37 -50 94 -67 94 -195 6 -194 6 -219 -17z m181 -86 c15 -11 17 -24 13 -83 -6 -93 -33 -233 -63 -323 -13 -40 -24 -77 -24 -82 0 -5 -13 -38 -30 -72 -16 -35 -30 -73 -30 -84 0 -11 -16 -40 -35 -64 -19 -24 -35 -49 -35 -54 0 -18 -74 -91 -130 -127 -76 -49 -114 -55 -147 -22 -24 24 -25 29 -18 102 3 42 17 120 30 172 13 52 33 140 43 195 32 159 72 248 132 290 15 11 61 47 101 80 40 33 82 65 93 72 28 16 78 16 100 0z" />
</ns0:g>
</g><g transform="translate(2.993853062119456,160.74717369961496) scale(0.0460041892903181)"><ns0:metadata>
Created by potrace 1.16, written by Peter Selinger 2001-2019
</ns0:metadata>
<ns0:g transform="translate(0.000000,209.000000) scale(0.100000,-0.100000)" fill="#000000" stroke="none">
<ns0:path d="M946 1349 c-52 -12 -68 -27 -64 -58 3 -23 9 -27 53 -32 28 -3 43 -7 34 -7 -9 -1 -28 -13 -42 -26 -15 -14 -35 -27 -46 -31 -38 -12 -61 -59 -72 -147 -13 -107 -20 -170 -23 -238 -2 -30 -13 -89 -26 -130 -29 -95 -78 -240 -90 -261 -17 -33 -22 -107 -9 -143 11 -31 20 -38 62 -50 90 -26 205 -3 280 58 73 58 187 171 214 211 15 22 35 49 44 60 51 61 109 211 109 283 0 97 -39 277 -79 362 -14 30 -47 76 -74 101 -44 42 -55 47 -109 53 -76 8 -112 6 -162 -5z m217 -142 c73 -96 112 -221 110 -352 -1 -83 -27 -157 -81 -230 -21 -27 -50 -69 -65 -91 -29 -43 -175 -174 -207 -186 -48 -18 -120 -25 -137 -13 -15 11 -15 18 -4 61 7 27 19 63 26 79 34 77 65 228 85 415 13 112 36 210 50 210 5 0 44 36 87 79 86 87 90 88 136 28z" />
</ns0:g>
</g><g transform="translate(2.517669204551794,297.1071665945903) scale(0.0460041892903181)"><ns0:metadata>
Created by potrace 1.16, written by Peter Selinger 2001-2019
</ns0:metadata>
<ns0:g transform="translate(0.000000,212.000000) scale(0.100000,-0.100000)" fill="#000000" stroke="none">
<ns0:path d="M1439 1893 c-58 -6 -137 -88 -189 -196 -23 -48 -49 -110 -58 -139 -14 -42 -23 -53 -47 -61 -16 -5 -38 -16 -47 -24 -19 -17 -94 -193 -102 -240 -8 -48 9 -48 38 0 l26 42 -6 -115 c-8 -143 -16 -200 -29 -203 -5 -1 -14 13 -20 31 -5 17 -12 32 -16 32 -18 0 -12 -59 10 -109 24 -54 24 -55 8 -120 -9 -36 -19 -93 -23 -126 -9 -85 -48 -198 -78 -228 -30 -30 -35 -81 -10 -91 36 -14 63 -5 91 29 35 42 89 190 98 270 12 107 51 195 87 195 7 0 28 10 47 23 20 13 60 39 88 58 29 19 53 39 53 44 0 6 19 28 41 50 22 22 52 58 66 80 15 22 34 48 41 57 23 28 112 228 112 252 0 12 5 27 10 32 27 27 38 197 20 301 -11 62 -19 80 -49 113 -38 41 -80 52 -162 43z m104 -135 c21 -42 25 -207 8 -293 -35 -174 -147 -377 -268 -484 -60 -54 -133 -95 -144 -83 -4 4 -4 28 1 53 5 25 12 97 16 160 4 65 15 140 26 174 10 33 23 89 27 125 14 105 106 272 193 350 33 29 49 36 82 35 37 0 43 -3 59 -37z" />
<ns0:path d="M1283 877 c-18 -5 -33 -14 -33 -19 0 -6 -10 -18 -22 -28 l-23 -18 26 -10 c14 -6 52 -35 84 -66 31 -31 61 -56 66 -56 4 0 32 -19 61 -43 67 -54 183 -127 202 -127 8 0 28 16 45 35 52 59 36 142 -20 107 -28 -18 -37 -15 -93 22 -63 42 -208 162 -219 181 -13 25 -40 32 -74 22z" />
</ns0:g>
</g><g transform="translate(1.1849478866088248,428.783668122583) scale(0.0460041892903181)"><ns0:metadata>
Created by potrace 1.16, written by Peter Selinger 2001-2019
</ns0:metadata>
<ns0:g transform="translate(0.000000,207.000000) scale(0.100000,-0.100000)" fill="#000000" stroke="none">
<ns0:path d="M1000 1675 c-93 -16 -105 -21 -124 -50 -8 -13 -31 -28 -51 -35 -19 -6 -40 -20 -45 -30 -12 -22 -12 -171 0 -290 17 -170 31 -612 20 -645 -12 -37 -80 -108 -80 -83 0 8 7 21 15 28 19 16 20 60 1 60 -14 0 -87 -74 -105 -107 -27 -52 -42 -113 -31 -133 26 -48 85 -53 132 -9 18 16 46 40 61 52 73 58 225 278 259 377 11 30 35 88 54 128 19 41 34 77 34 81 0 3 9 23 20 44 11 21 31 81 45 135 62 249 61 392 -6 463 -31 34 -70 36 -199 14z m140 -95 c27 -17 19 -196 -14 -310 -15 -52 -31 -108 -35 -125 -5 -16 -26 -66 -48 -110 -22 -44 -45 -98 -52 -120 -19 -61 -64 -149 -79 -153 -11 -4 -13 47 -8 284 7 349 6 333 18 415 8 57 14 69 39 88 17 13 33 21 35 18 2 -2 30 2 62 8 31 7 59 13 62 14 3 0 12 -4 20 -9z" />
</ns0:g>
</g><g transform="translate(0.7391036272156839,572.7308555125611) scale(0.0460041892903181)"><ns0:metadata>
Created by potrace 1.16, written by Peter Selinger 2001-2019
</ns0:metadata>
<ns0:g transform="translate(0.000000,206.000000) scale(0.100000,-0.100000)" fill="#000000" stroke="none">
<ns0:path d="M1020 1511 c-17 -5 -26 -16 -30 -36 -3 -18 -15 -34 -28 -41 -44 -22 -55 -57 -90 -299 -21 -148 -20 -340 3 -365 8 -9 15 -26 15 -39 0 -12 6 -37 14 -56 19 -46 54 -54 109 -27 23 11 65 24 92 27 62 9 71 16 102 80 79 163 90 203 94 340 6 233 -3 325 -33 325 -6 0 -27 14 -49 31 -21 16 -55 33 -76 36 -21 3 -47 12 -58 19 -21 15 -27 16 -65 5z m115 -114 c60 -34 66 -55 66 -225 0 -142 -11 -210 -40 -246 -5 -6 -14 -29 -21 -50 -19 -58 -62 -96 -109 -96 -37 0 -39 1 -55 53 -17 53 -16 54 18 213 19 87 40 180 46 206 7 26 9 56 5 67 -3 10 -1 22 5 26 5 3 10 22 10 41 0 41 17 44 75 11z" />
</ns0:g>
</g><g transform="translate(-2.8019077288266203,698.7558471323867) scale(0.0460041892903181)"><ns0:metadata>
Created by potrace 1.16, written by Peter Selinger 2001-2019
</ns0:metadata>
<ns0:g transform="translate(0.000000,214.000000) scale(0.100000,-0.100000)" fill="#000000" stroke="none">
<ns0:path d="M1328 1472 c-1 -5 -36 -28 -76 -52 -73 -43 -91 -48 -252 -71 -94 -14 -110 -22 -110 -59 0 -57 66 -89 121 -59 11 5 50 18 87 28 37 11 77 22 90 26 23 8 23 7 17 -41 -9 -73 -26 -145 -41 -184 -8 -19 -19 -68 -24 -109 -6 -40 -12 -76 -15 -80 -12 -20 -32 -204 -28 -254 6 -66 30 -91 80 -85 l28 3 7 120 c8 160 31 273 129 637 5 20 20 50 32 65 26 31 34 88 16 109 -12 15 -55 19 -61 6z" />
</ns0:g>
</g><g transform="translate(0.19742406801464085,835.243428790188) scale(0.0460041892903181)"><ns0:metadata>
Created by potrace 1.16, written by Peter Selinger 2001-2019
</ns0:metadata>
<ns0:g transform="translate(0.000000,206.000000) scale(0.100000,-0.100000)" fill="#000000" stroke="none">
<ns0:path d="M1261 1449 c-32 -26 -41 -81 -47 -284 -2 -88 -10 -214 -18 -280 -7 -66 -9 -130 -5 -141 4 -12 5 -31 3 -41 -3 -11 1 -25 10 -32 12 -10 20 -7 45 16 27 24 32 37 37 93 9 116 36 284 51 327 10 28 13 60 10 95 -4 29 -3 83 1 121 9 75 -3 118 -37 136 -25 14 -21 14 -50 -10z" />
</ns0:g>
</g><g transform="translate(-2.6146256018540726,960.6892820150144) scale(0.0460041892903181)"><ns0:metadata>
Created by potrace 1.16, written by Peter Selinger 2001-2019
</ns0:metadata>
<ns0:g transform="translate(0.000000,205.000000) scale(0.100000,-0.100000)" fill="#000000" stroke="none">
<ns0:path d="M802 1318 c-45 -67 -75 -135 -68 -153 5 -14 9 -15 21 -5 12 10 15 10 15 -3 0 -9 -4 -27 -10 -41 -5 -14 -16 -76 -25 -138 -17 -125 -33 -223 -41 -251 -5 -15 -8 -16 -20 -6 -29 24 -38 -4 -24 -78 21 -111 57 -151 107 -118 25 17 27 22 42 145 23 192 62 413 78 443 9 18 20 52 24 77 4 25 10 62 14 82 4 20 5 48 1 62 -5 22 -12 26 -46 26 -35 0 -42 -5 -68 -42z" />
</ns0:g>
</g><g transform="translate(2.0552477586273312,1097.4686805167516) scale(0.0460041892903181)"><ns0:metadata>
Created by potrace 1.16, written by Peter Selinger 2001-2019
</ns0:metadata>
<ns0:g transform="translate(0.000000,214.000000) scale(0.100000,-0.100000)" fill="#000000" stroke="none">
<ns0:path d="M1179 1566 c-76 -40 -138 -112 -170 -197 -32 -83 -23 -122 39 -174 30 -25 38 -27 99 -23 39 2 68 9 71 16 5 17 32 15 32 -3 0 -9 -12 -44 -26 -78 -23 -54 -28 -83 -35 -232 -8 -155 -7 -196 7 -247 6 -21 72 -25 79 -6 3 7 9 92 14 188 9 181 12 205 30 239 6 11 20 46 30 78 11 32 36 103 56 158 50 137 52 149 24 169 -15 10 -27 12 -33 6 -6 -6 -20 -10 -32 -10 -17 0 -20 5 -17 23 7 37 -14 77 -49 91 -65 27 -74 27 -119 2z m61 -140 c0 -18 9 -45 20 -59 l21 -26 -29 -29 c-26 -26 -85 -62 -103 -62 -15 0 -39 32 -39 51 0 39 50 127 83 147 39 24 47 20 47 -22z" />
</ns0:g>
</g><g transform="translate(1.527643160715911,1229.641575015654) scale(0.0460041892903181)"><ns0:metadata>
Created by potrace 1.16, written by Peter Selinger 2001-2019
</ns0:metadata>
<ns0:g transform="translate(0.000000,214.000000) scale(0.100000,-0.100000)" fill="#000000" stroke="none">
<ns0:path d="M1315 1450 c-3 -5 -22 -10 -41 -10 -19 0 -42 -4 -52 -9 -31 -16 -86 -30 -144 -36 -67 -8 -118 -36 -118 -65 0 -23 45 -70 67 -70 7 0 29 6 47 14 18 7 55 18 82 24 27 6 58 14 68 18 23 9 23 9 -38 -224 -47 -181 -52 -247 -26 -342 16 -57 25 -66 57 -54 l28 9 6 125 c7 138 24 211 94 400 54 146 60 185 34 211 -20 20 -54 25 -64 9z" />
</ns0:g>
</g></svg>