<?xml version='1.0' encoding='utf-8'?>
<svg xmlns:ns0="http://www.w3.org/2000/svg" xmlns="http://www.w3.org/2000/svg" width="235" height="152" viewBox="0 0 235 152"><g transform="translate(0.8533578380918243,-125.76340230451581) scale(0.06415263093695735)"><ns0:metadata>
Created by potrace 1.16, written by Peter Selinger 2001-2019
</ns0:metadata>
<ns0:g transform="translate(0.000000,208.000000) scale(0.100000,-0.100000)" fill="#000000" stroke="none">
<ns0:path d="M948 1211 c-21 -12 -28 -24 -28 -48 0 -46 45 -70 128 -68 34 1 65 5 69 8 8 9 87 9 96 1 7 -8 -27 -87 -61 -139 -29 -45 -84 -90 -149 -123 -54 -28 -62 -50 -28 -79 30 -26 74 -29 114 -8 16 8 47 17 70 21 35 6 41 4 41 -10 0 -30 -131 -183 -173 -202 -20 -9 -42 -23 -48 -30 -6 -7 -34 -20 -62 -30 -29 -9 -59 -23 -67 -31 -13 -13 -13 -16 5 -29 13 -10 30 -13 50 -9 17 4 48 11 70 15 93 17 243 120 281 192 8 15 25 43 38 63 19 27 24 49 25 94 0 65 -7 75 -57 86 l-33 7 40 73 c40 75 60 161 46 204 -12 38 -52 49 -200 54 -118 4 -144 2 -167 -12z" />
</ns0:g>
</g><g transform="translate(1.098159672916779,64.37785500233053) scale(0.06415263093695735)"><ns0:metadata>
Created by potrace 1.16, written by Peter Selinger 2001-2019
</ns0:metadata>
<ns0:g transform="translate(0.000000,213.000000) scale(0.100000,-0.100000)" fill="#000000" stroke="none">
<ns0:path d="M1278 1556 c-15 -6 -40 -24 -55 -38 -36 -34 -185 -108 -217 -108 -14 0 -28 5 -31 10 -9 15 -32 12 -96 -12 -81 -31 -89 -62 -28 -107 l30 -22 92 21 c58 14 113 34 148 56 31 19 60 34 64 34 14 0 -4 -98 -33 -182 -16 -46 -35 -108 -42 -138 -6 -30 -26 -98 -43 -150 -28 -86 -31 -107 -32 -222 0 -118 2 -129 22 -149 21 -21 23 -21 47 -5 25 16 26 21 26 104 1 95 6 127 40 247 12 44 29 105 37 135 19 71 61 194 83 245 9 22 22 67 29 100 8 33 21 74 30 90 26 48 29 69 13 88 -17 19 -45 21 -84 3z" />
</ns0:g>
</g><g transform="translate(-2.3565297262649665,250.55682934878683) scale(0.06415263093695735)"><ns0:metadata>
Created by potrace 1.16, written by Peter Selinger 2001-2019
</ns0:metadata>
<ns0:g transform="translate(0.000000,207.000000) scale(0.100000,-0.100000)" fill="#000000" stroke="none">
<ns0:path d="M514 1367 c-27 -18 -60 -38 -74 -44 -62 -29 -124 -53 -136 -53 -8 0 -21 -17 -30 -37 -15 -36 -15 -40 3 -73 22 -43 55 -50 94 -21 35 26 44 26 76 2 30 -24 51 -18 60 18 8 31 30 50 59 51 47 0 39 -78 -12 -116 -44 -34 -59 -81 -41 -125 13 -31 12 -37 -10 -71 -19 -28 -22 -41 -14 -56 12 -23 46 -46 80 -55 30 -7 81 46 116 121 33 71 59 81 188 75 53 -3 97 -9 97 -14 0 -11 -106 -167 -134 -198 -11 -12 -42 -41 -68 -63 -41 -34 -59 -41 -133 -55 -68 -12 -85 -19 -85 -33 0 -22 37 -30 135 -30 117 0 131 6 214 87 41 40 84 91 96 112 11 22 41 70 66 108 50 74 72 160 47 180 -7 6 -78 11 -162 11 -96 0 -153 5 -160 12 -6 6 -11 45 -11 90 -1 90 -17 122 -74 152 -18 9 -40 26 -48 37 -22 33 -80 28 -139 -12z" />
</ns0:g>
</g><g transform="translate(-2.7477000913460756,449.05344626184) scale(0.06415263093695735)"><ns0:metadata>
Created by potrace 1.16, written by Peter Selinger 2001-2019
</ns0:metadata>
<ns0:g transform="translate(0.000000,210.000000) scale(0.100000,-0.100000)" fill="#000000" stroke="none">
<ns0:path d="M1063 1640 c-28 -11 -35 -37 -23 -80 6 -19 10 -60 10 -91 l0 -56 -42 -14 c-60 -19 -118 -74 -118 -109 0 -37 42 -72 77 -64 53 14 58 11 56 -26 -6 -120 -16 -217 -24 -226 -5 -6 -29 -14 -52 -16 -83 -10 -125 -80 -77 -128 25 -25 27 -25 92 1 46 19 74 22 219 23 123 0 173 -3 192 -13 44 -24 58 -9 55 56 -3 57 -4 58 -33 60 -16 0 -84 7 -150 15 l-120 13 -3 60 c-6 122 26 266 65 292 11 7 41 16 69 19 60 8 74 18 74 53 0 48 -13 56 -92 56 l-73 0 2 55 c2 42 8 59 24 72 12 10 19 24 16 32 -9 23 -100 34 -144 16z" />
</ns0:g>
</g><g transform="translate(1.8030610307075108,606.5312227671116) scale(0.06415263093695735)"><ns0:metadata>
Created by potrace 1.16, written by Peter Selinger 2001-2019
</ns0:metadata>
<ns0:g transform="translate(0.000000,208.000000) scale(0.100000,-0.100000)" fill="#000000" stroke="none">
<ns0:path d="M862 1397 c-24 -13 -29 -23 -42 -94 -4 -26 -13 -61 -18 -78 -6 -16 -16 -86 -23 -154 l-11 -123 24 -25 c31 -31 85 -43 166 -38 80 6 86 -7 38 -77 -20 -29 -54 -78 -74 -108 -21 -30 -58 -75 -82 -100 -25 -25 -53 -54 -62 -65 -9 -11 -24 -26 -33 -33 -37 -31 3 -84 49 -67 30 11 236 211 236 229 0 6 16 31 36 56 49 62 64 102 64 175 0 83 -8 89 -122 86 -141 -3 -143 -2 -106 108 26 80 35 91 96 122 26 13 73 44 105 68 58 45 72 76 44 99 -18 15 -78 -2 -114 -32 -15 -13 -41 -26 -58 -30 -28 -7 -29 -7 -12 12 18 20 23 57 9 66 -20 12 -89 14 -110 3z" />
</ns0:g>
</g></svg>