<?xml version='1.0' encoding='utf-8'?>
<svg xmlns:ns0="http://www.w3.org/2000/svg" xmlns="http://www.w3.org/2000/svg" width="235" height="121" viewBox="0 0 235 121"><g transform="translate(-1.3494181492467305,-121.52160034135993) scale(0.051068870680077885)"><ns0:metadata>
Created by potrace 1.16, written by Peter Selinger 2001-2019
</ns0:metadata>
<ns0:g transform="translate(0.000000,205.000000) scale(0.100000,-0.100000)" fill="#000000" stroke="none">
<ns0:path d="M653 1874 c-16 -7 -17 -46 -2 -61 21 -21 49 -223 42 -307 l-6 -78 -41 -20 c-73 -35 -84 -43 -126 -99 -48 -64 -56 -90 -41 -127 6 -15 10 -39 9 -52 -2 -14 2 -25 9 -25 10 0 63 68 63 82 0 14 61 80 90 97 l33 19 -7 -59 c-15 -121 -20 -132 -80 -149 -30 -9 -60 -22 -66 -30 -21 -25 -2 -69 45 -105 35 -27 44 -42 44 -65 1 -53 -23 -121 -54 -156 -30 -34 -46 -47 -117 -94 -45 -30 -48 -56 -12 -90 32 -29 37 -30 58 -9 9 8 23 14 32 12 13 -3 16 -28 17 -173 2 -153 4 -174 23 -210 21 -38 99 -105 124 -105 6 0 24 -7 40 -15 41 -21 127 -30 287 -29 97 0 161 6 200 17 32 8 89 21 126 27 38 7 106 28 150 47 45 20 98 41 117 48 33 12 35 16 40 72 6 58 -5 95 -46 163 -8 14 -20 37 -25 53 -6 15 -15 27 -20 27 -5 0 -13 8 -17 18 -15 37 -77 122 -87 119 -18 -6 -17 -46 4 -102 12 -31 21 -66 21 -78 0 -12 7 -35 16 -52 26 -48 42 -111 33 -127 -15 -27 -147 -79 -237 -94 -259 -43 -431 -44 -522 -2 -30 13 -70 41 -88 62 -29 33 -32 44 -34 104 -4 141 0 180 27 240 25 56 29 60 80 76 30 9 57 21 60 26 11 18 34 10 41 -12 8 -26 51 -86 74 -105 26 -21 55 -14 88 20 18 18 32 38 32 44 0 6 6 16 14 22 21 18 57 298 71 566 3 50 10 133 15 185 13 127 16 223 6 238 -8 14 -42 16 -50 3 -3 -4 -27 -16 -53 -26 -26 -10 -55 -24 -64 -31 -8 -8 -54 -29 -101 -48 l-85 -33 -5 137 c-5 127 -7 141 -34 191 -26 48 -33 54 -64 56 -19 1 -41 0 -47 -3z m107 -258 c0 -3 -4 -8 -10 -11 -5 -3 -10 -1 -10 4 0 6 5 11 10 11 6 0 10 -2 10 -4z m297 -153 c-8 -37 -25 -227 -40 -443 l-12 -175 -24 3 c-13 2 -50 -11 -83 -28 -32 -17 -65 -30 -71 -27 -7 3 -21 21 -32 41 l-20 36 25 48 c14 26 30 53 37 60 24 24 15 68 -18 96 -17 14 -34 26 -39 26 -18 0 -18 34 1 142 12 66 27 120 37 131 15 17 26 23 122 65 25 11 54 27 65 36 11 8 28 16 39 16 15 0 17 -5 13 -27z m-289 -690 c2 -15 -4 -23 -18 -28 -28 -9 -32 -3 -24 29 8 32 37 32 42 -1z m232 -13 c0 -22 -4 -48 -9 -58 -5 -9 -13 -35 -18 -56 -10 -51 -26 -55 -63 -18 -45 46 -41 81 14 116 25 15 47 34 50 42 11 28 26 13 26 -26z" />
<ns0:path d="M300 1234 c-15 -38 -12 -82 11 -149 39 -118 45 -160 48 -332 1 -40 5 -53 16 -53 20 0 35 31 52 109 17 77 17 122 3 246 -24 194 -29 205 -91 205 -22 0 -32 -6 -39 -26z" />
</ns0:g>
</g><g transform="translate(1.91204051584549,41.296510928405155) scale(0.051068870680077885)"><ns0:metadata>
Created by potrace 1.16, written by Peter Selinger 2001-2019
</ns0:metadata>
<ns0:g transform="translate(0.000000,210.000000) scale(0.100000,-0.100000)" fill="#000000" stroke="none">
<ns0:path d="M1062 1963 c-44 -8 -55 -43 -45 -135 5 -46 6 -137 2 -202 -7 -129 -5 -126 -80 -171 -144 -88 -229 -191 -229 -275 0 -39 34 -57 82 -44 29 9 34 15 38 50 7 45 31 81 91 132 l40 35 -6 -37 c-17 -91 21 -79 66 20 18 40 45 76 76 104 55 49 201 120 254 125 59 4 73 20 43 49 -25 25 -103 20 -200 -14 l-86 -30 6 43 c3 23 8 101 11 172 7 162 -3 189 -63 178z" />
<ns0:path d="M513 1732 c-34 -2 -65 -8 -71 -15 -9 -12 -34 -89 -72 -227 -32 -111 -56 -173 -84 -215 -14 -21 -26 -42 -26 -48 0 -10 -37 -98 -80 -193 -17 -35 -41 -69 -57 -79 -68 -45 -123 -104 -123 -132 0 -22 1 -22 19 -5 67 63 91 82 91 72 0 -17 -40 -91 -76 -141 -27 -37 -34 -56 -34 -93 0 -26 5 -46 11 -46 15 0 115 108 134 144 9 17 24 43 33 57 9 15 31 50 47 78 25 42 35 51 60 52 48 2 59 -1 77 -24 23 -30 30 -89 29 -266 -1 -176 -13 -271 -36 -283 -34 -20 -10 -68 34 -68 50 0 65 25 87 142 13 65 15 123 11 270 -4 166 -7 192 -27 233 -31 63 -62 85 -122 85 -44 0 -49 2 -43 18 4 9 18 46 31 82 13 36 32 76 42 90 29 42 93 191 108 252 3 15 12 32 19 38 8 7 21 33 30 58 13 39 22 50 55 64 42 17 62 57 41 82 -15 18 -34 22 -108 18z" />
<ns0:path d="M1415 1278 c-58 -19 -180 -72 -195 -84 -20 -17 -161 -84 -176 -84 -6 0 -17 -7 -24 -15 -7 -8 -19 -15 -28 -15 -14 0 -44 -13 -162 -70 -51 -24 -55 -29 -55 -60 0 -30 4 -35 33 -44 28 -8 41 -5 83 17 27 15 57 27 68 27 10 0 31 10 46 22 15 12 69 42 119 66 50 24 93 47 96 51 3 4 22 15 42 24 20 10 40 22 43 27 10 15 45 12 45 -4 0 -8 -5 -18 -10 -21 -6 -4 -16 -21 -24 -39 -11 -27 -107 -146 -190 -236 -13 -14 -36 -43 -52 -66 -16 -22 -45 -54 -64 -72 -19 -17 -55 -63 -80 -102 -25 -40 -69 -96 -97 -125 -29 -29 -53 -61 -53 -70 0 -22 45 -65 69 -65 11 0 35 9 53 20 18 11 42 20 53 20 20 0 81 19 100 31 13 9 184 76 212 84 13 3 29 12 35 19 7 7 78 34 158 60 79 26 158 55 175 63 44 23 291 94 351 100 33 4 54 1 58 -6 14 -22 -56 -128 -144 -218 -49 -50 -86 -93 -83 -96 15 -16 134 59 211 131 l52 50 0 120 0 120 -47 4 c-78 6 -329 -55 -425 -103 -14 -7 -86 -29 -238 -74 -44 -13 -142 -53 -245 -101 -67 -31 -105 -40 -105 -24 0 15 45 74 117 155 30 33 76 85 103 115 27 30 71 80 98 110 27 30 59 73 71 95 12 22 30 54 41 70 43 66 52 91 57 147 l6 58 -34 -1 c-19 0 -47 -5 -64 -11z m-14 -661 c-10 -9 -11 -8 -5 6 3 10 9 15 12 12 3 -3 0 -11 -7 -18z" />
</ns0:g>
</g><g transform="translate(1.617153350732508,172.35904810876076) scale(0.051068870680077885)"><ns0:metadata>
Created by potrace 1.16, written by Peter Selinger 2001-2019
</ns0:metadata>
<ns0:g transform="translate(0.000000,206.000000) scale(0.100000,-0.100000)" fill="#000000" stroke="none">
<ns0:path d="M1093 1998 c-28 -30 -29 -67 -3 -96 24 -26 55 -29 68 -6 5 9 18 14 28 12 46 -9 -4 -162 -69 -211 -18 -13 -48 -26 -69 -30 l-36 -5 -6 61 c-4 34 -14 87 -23 117 -9 30 -17 61 -19 68 -5 18 -53 34 -78 26 -46 -15 -58 -59 -27 -102 36 -53 74 -165 73 -220 0 -56 15 -75 43 -52 23 19 31 5 44 -77 7 -43 15 -98 20 -124 4 -25 5 -51 3 -57 -3 -10 -81 -52 -184 -100 -5 -2 -8 4 -8 14 0 9 23 41 50 70 53 56 59 68 35 78 -20 7 -157 -23 -174 -39 -15 -15 -40 -128 -41 -186 0 -42 -24 -66 -125 -128 -38 -23 -88 -56 -110 -72 -22 -16 -51 -37 -65 -47 -44 -30 -140 -129 -150 -156 -14 -37 2 -72 37 -79 44 -9 110 20 122 54 14 40 105 134 169 175 55 36 77 42 69 22 -5 -15 -32 -170 -46 -273 -15 -105 -19 -123 -33 -163 -12 -37 -62 -91 -85 -92 -6 0 -14 -8 -18 -19 -14 -46 29 -75 94 -65 55 9 111 -19 111 -55 0 -46 -88 -105 -186 -124 -23 -4 -37 -1 -52 13 -18 17 -20 27 -15 74 6 54 6 54 -21 49 -36 -7 -86 -67 -86 -102 0 -40 26 -98 50 -111 10 -6 54 -11 97 -12 76 -1 81 1 161 46 93 53 128 97 138 170 8 58 -16 100 -70 121 -76 30 -96 40 -96 48 0 4 11 25 25 45 14 20 25 42 25 49 0 7 16 42 35 79 19 36 35 78 35 94 0 25 15 110 26 149 3 9 11 5 25 -13 11 -14 26 -26 32 -26 7 0 25 -7 40 -15 15 -8 43 -17 62 -21 19 -3 35 -10 35 -14 0 -5 8 -9 18 -9 9 -1 58 -6 107 -12 50 -6 98 -11 109 -10 17 0 56 32 56 46 0 11 -70 35 -103 35 -42 0 -122 27 -138 46 -6 8 -20 14 -31 14 -10 0 -46 14 -81 31 -52 27 -66 30 -89 21 -16 -6 -28 -7 -28 -4 1 24 28 91 43 106 9 10 24 31 32 47 9 16 32 38 53 49 20 11 55 32 77 45 22 14 56 33 75 43 19 9 55 31 80 48 25 16 53 33 64 37 23 9 115 80 116 89 1 18 -53 18 -111 0 -50 -15 -66 -17 -71 -7 -14 23 -10 208 4 242 7 17 35 50 61 73 31 28 47 50 47 65 0 13 7 28 15 32 8 5 22 38 31 74 17 63 17 66 -2 104 -22 45 -53 63 -121 71 -42 5 -51 3 -70 -18z" />
<ns0:path d="M558 1767 c-14 -5 -35 -26 -45 -46 -17 -31 -18 -42 -8 -81 7 -25 17 -45 23 -44 28 2 32 5 46 32 26 48 18 -2 -9 -56 -14 -28 -25 -56 -25 -64 0 -8 -7 -23 -15 -34 -14 -19 -14 -19 -15 3 0 12 -4 23 -9 25 -11 4 -48 105 -61 162 -4 22 -16 46 -27 54 -25 18 -103 7 -124 -18 -24 -28 -10 -82 30 -116 30 -25 121 -152 121 -168 0 -4 7 -23 16 -42 13 -26 22 -34 43 -34 28 0 71 36 71 58 0 7 12 22 26 35 45 38 84 136 90 224 3 43 0 56 -20 81 -14 16 -31 29 -38 29 -7 0 -20 3 -28 6 -8 3 -27 0 -42 -6z" />
<ns0:path d="M1095 551 c-3 -5 -27 -17 -54 -26 -79 -26 -84 -77 -15 -151 67 -72 110 -163 85 -179 -16 -9 -69 35 -80 67 -8 23 -16 29 -33 26 -20 -3 -23 -9 -22 -44 1 -47 31 -97 72 -118 15 -8 37 -23 48 -34 29 -28 86 -38 102 -19 19 22 26 126 12 190 -7 36 -22 71 -39 90 -34 40 -61 83 -61 97 0 6 9 24 21 39 14 19 19 36 14 50 -6 21 -39 29 -50 12z" />
</ns0:g>
</g></svg>