<?xml version='1.0' encoding='utf-8'?>
<svg xmlns:ns0="http://www.w3.org/2000/svg" xmlns="http://www.w3.org/2000/svg" width="235" height="152" viewBox="0 0 235 152"><g transform="translate(-0.14896002600033853,-71.78369009760277) scale(0.03466552127688305)"><ns0:metadata>
Created by potrace 1.16, written by Peter Selinger 2001-2019
</ns0:metadata>
<ns0:g transform="translate(0.000000,212.000000) scale(0.100000,-0.100000)" fill="#000000" stroke="none">
<ns0:path d="M855 1902 c-37 -7 -40 -20 -38 -150 4 -171 -2 -186 -95 -239 -99 -56 -132 -86 -132 -122 0 -16 6 -33 13 -38 21 -18 67 -24 88 -12 11 6 23 9 25 6 2 -2 -2 -31 -10 -65 -13 -57 -27 -90 -119 -280 l-40 -84 20 -26 c11 -15 27 -28 35 -30 13 -2 63 35 208 159 73 61 183 130 205 127 19 -3 20 -10 19 -168 0 -169 -17 -292 -42 -323 -8 -9 -16 -40 -18 -69 -2 -29 -10 -89 -17 -133 -18 -102 -4 -144 48 -145 25 0 65 85 65 139 0 20 7 61 15 91 24 85 25 92 30 145 3 28 10 75 16 105 5 30 11 118 13 195 5 210 9 219 111 251 116 36 148 60 111 81 -8 5 -55 5 -103 2 -48 -3 -91 -5 -94 -3 -15 8 5 52 32 68 16 9 29 23 29 30 0 7 -32 25 -71 40 l-72 28 -26 -20 c-28 -21 -30 -34 -16 -129 7 -46 6 -53 -11 -59 -34 -12 -157 -72 -211 -104 -29 -17 -53 -27 -53 -23 1 21 69 243 85 273 34 67 148 179 250 244 107 70 203 187 153 186 -20 -1 -95 -37 -102 -49 -4 -6 -29 -22 -54 -35 -26 -13 -75 -45 -109 -70 -33 -25 -64 -46 -67 -46 -11 0 -6 148 5 173 6 14 22 30 35 36 30 13 31 29 2 35 -37 8 -92 12 -113 8z m255 -590 c0 -12 -4 -12 -20 3 -11 10 -20 25 -20 33 0 12 4 12 20 -3 11 -10 20 -25 20 -33z" />
<ns0:path d="M778 832 c-53 -25 -154 -118 -169 -156 -7 -17 -22 -40 -32 -51 -10 -11 -26 -36 -35 -55 -8 -19 -24 -46 -34 -59 -10 -13 -18 -40 -18 -62 0 -32 4 -39 19 -39 19 0 51 24 51 39 0 4 18 26 40 50 22 23 40 51 40 62 0 10 4 19 9 19 5 0 28 26 52 58 55 73 85 103 130 129 34 19 39 20 68 6 17 -9 33 -14 35 -12 2 2 1 18 -1 35 -8 54 -82 70 -155 36z" />
<ns0:path d="M1426 768 c-9 -12 -16 -27 -16 -33 0 -22 60 -81 105 -105 27 -14 58 -35 71 -47 27 -27 79 -31 88 -7 11 28 6 111 -6 122 -7 5 -33 15 -58 22 -25 7 -53 21 -63 32 -40 41 -98 49 -121 16z" />
</ns0:g>
</g><g transform="translate(1.550590075303262,22.441900940230084) scale(0.03466552127688305)"><ns0:metadata>
Created by potrace 1.16, written by Peter Selinger 2001-2019
</ns0:metadata>
<ns0:g transform="translate(0.000000,214.000000) scale(0.100000,-0.100000)" fill="#000000" stroke="none">
<ns0:path d="M1450 2107 c-30 -18 -70 -42 -88 -53 -28 -18 -38 -20 -71 -11 -48 13 -68 0 -77 -49 -5 -27 -15 -39 -43 -53 -20 -10 -70 -37 -111 -59 -80 -42 -140 -61 -140 -43 0 5 5 22 12 36 14 31 127 90 156 81 11 -4 24 -1 31 7 38 47 -127 43 -234 -4 -49 -22 -75 -70 -75 -140 0 -29 -5 -41 -17 -46 -10 -3 -25 -12 -33 -18 -8 -7 -32 -18 -53 -25 -42 -13 -60 -38 -55 -78 2 -22 11 -30 44 -41 39 -14 43 -13 87 11 l46 26 35 -55 c20 -31 36 -58 36 -62 0 -3 20 -28 43 -54 35 -37 50 -47 76 -47 24 0 34 6 43 24 9 20 16 24 38 19 22 -4 32 0 44 19 14 22 15 29 2 59 -9 21 -11 41 -6 49 19 30 -31 70 -89 70 -28 0 -71 -31 -71 -52 0 -4 -4 -8 -8 -8 -15 0 -29 44 -25 77 4 24 11 33 32 38 14 4 59 26 100 51 40 24 77 44 81 44 4 0 19 9 33 20 30 24 25 31 52 -94 11 -53 15 -95 10 -125 -4 -25 -8 -62 -10 -81 -1 -23 -10 -40 -26 -51 -13 -9 -67 -48 -120 -87 -106 -78 -167 -108 -183 -92 -13 13 -52 13 -77 0 -13 -8 -19 -21 -19 -48 0 -40 -3 -43 -119 -104 -107 -55 -129 -103 -63 -138 29 -16 36 -16 61 -4 16 8 34 21 41 29 13 16 55 21 46 6 -6 -8 21 -38 27 -30 2 2 15 25 30 50 17 29 43 56 70 72 23 14 63 44 87 66 25 23 66 55 93 72 26 17 47 35 47 40 0 5 4 9 10 9 5 0 20 10 34 23 13 12 47 38 76 57 56 38 93 66 197 151 37 30 74 59 82 64 23 13 8 -297 -20 -406 -27 -109 -27 -113 -8 -117 10 -2 25 10 38 31 31 51 81 213 81 265 0 26 4 63 10 82 5 19 12 58 15 86 6 61 42 184 54 184 17 0 61 77 61 108 0 68 -65 60 -142 -17 -173 -173 -318 -298 -331 -284 -3 2 4 21 16 41 19 33 22 53 24 181 1 84 6 148 12 154 6 6 50 38 97 71 105 73 115 87 90 115 -11 12 -22 21 -25 21 -3 0 -31 -15 -61 -33z m-400 -592 c0 -29 -30 -15 -45 21 -8 20 -15 42 -15 48 1 17 60 -52 60 -69z" />
<ns0:path d="M1149 1237 c-180 -95 -211 -116 -220 -151 -6 -23 -3 -32 18 -52 18 -17 33 -22 47 -18 33 10 128 70 166 105 19 17 55 41 80 52 62 27 120 75 120 97 0 21 -28 40 -57 39 -10 0 -79 -33 -154 -72z" />
<ns0:path d="M1150 994 c-19 -8 -41 -21 -50 -28 -8 -8 -60 -37 -115 -66 -165 -85 -238 -125 -277 -151 -20 -13 -59 -36 -87 -51 -58 -32 -65 -55 -26 -93 30 -31 46 -31 83 0 17 14 37 25 45 25 9 0 20 6 24 13 4 8 24 22 43 33 19 10 39 25 43 32 4 6 13 12 18 12 6 0 23 9 39 20 15 11 30 17 33 14 7 -7 -43 -154 -58 -174 -7 -8 -22 -40 -33 -70 -27 -72 -60 -139 -83 -169 -18 -23 -18 -24 2 -52 32 -45 70 -40 109 15 16 25 30 48 30 53 0 4 18 34 40 67 22 32 40 64 40 71 0 7 15 30 34 51 19 22 46 53 59 69 14 17 28 28 30 25 3 -3 -1 -34 -8 -70 -16 -74 -19 -146 -6 -154 4 -3 11 -19 15 -36 7 -37 85 -117 143 -147 23 -12 71 -27 107 -34 63 -11 67 -10 132 21 59 28 173 98 214 133 8 6 30 30 49 51 31 37 33 43 27 91 -3 29 -14 74 -25 101 -23 61 -40 140 -46 222 -5 72 -12 102 -25 102 -6 0 -13 -12 -16 -27 -4 -16 -11 -33 -15 -39 -5 -6 -11 -60 -15 -120 -5 -94 -4 -117 14 -165 28 -79 21 -100 -49 -149 -32 -22 -62 -47 -66 -54 -9 -15 -123 -66 -148 -66 -33 0 -126 52 -148 83 -54 73 -55 116 -7 252 46 130 44 185 -6 185 -35 0 -62 -15 -111 -63 -24 -22 -45 -38 -48 -35 -3 3 1 20 9 39 15 35 67 90 122 127 51 35 63 123 16 122 -9 -1 -33 -8 -52 -16z" />
</ns0:g>
</g><g transform="translate(-0.9422140687630076,114.92486568844441) scale(0.03466552127688305)"><ns0:metadata>
Created by potrace 1.16, written by Peter Selinger 2001-2019
</ns0:metadata>
<ns0:g transform="translate(0.000000,228.000000) scale(0.100000,-0.100000)" fill="#000000" stroke="none">
<ns0:path d="M525 2183 c4 -54 8 -132 10 -173 1 -41 6 -85 10 -97 6 -19 2 -24 -21 -33 -16 -6 -49 -24 -74 -40 -25 -15 -61 -31 -80 -35 -77 -17 -140 -56 -140 -88 0 -27 38 -77 59 -77 9 0 41 11 69 25 29 14 56 25 62 25 5 0 24 13 43 29 18 16 76 50 128 75 51 25 118 61 147 81 30 19 56 35 58 35 2 0 34 18 70 40 36 22 72 40 80 40 8 0 14 5 14 10 0 6 8 14 18 18 54 23 93 56 90 76 -5 36 -72 22 -173 -36 -22 -13 -67 -34 -100 -47 -33 -14 -62 -27 -65 -30 -3 -4 -16 -12 -30 -19 -14 -8 -41 -22 -59 -32 -19 -11 -37 -17 -40 -15 -2 3 1 35 7 72 7 38 14 106 17 153 2 47 7 97 11 113 l6 27 -61 0 -62 0 6 -97z m-98 -408 c-23 -22 -33 -18 -12 5 10 11 20 18 23 16 2 -3 -3 -12 -11 -21z" />
<ns0:path d="M1285 1858 c-16 -6 -46 -23 -65 -38 -19 -14 -63 -40 -97 -58 -35 -17 -68 -36 -75 -42 -14 -12 -105 -70 -221 -141 -38 -22 -71 -38 -75 -34 -3 3 2 36 11 74 10 37 15 75 11 84 -9 24 -40 30 -71 15 -28 -14 -58 -82 -82 -191 -12 -55 -15 -58 -64 -83 -29 -14 -59 -35 -67 -45 -16 -20 -114 -62 -123 -52 -15 15 10 72 49 113 40 41 54 76 38 93 -3 3 -29 -7 -58 -22 -28 -16 -68 -34 -89 -41 -20 -6 -42 -20 -47 -30 -6 -10 -10 -63 -10 -117 0 -74 -5 -108 -19 -139 -12 -27 -16 -46 -10 -57 10 -17 -12 -125 -74 -367 -14 -52 -23 -97 -21 -99 2 -2 14 -1 27 3 49 12 108 137 147 312 18 80 27 102 44 110 15 7 21 18 21 44 1 53 18 75 87 109 35 17 71 36 80 43 9 7 20 9 23 6 7 -6 -13 -80 -45 -173 -17 -48 -72 -311 -84 -405 -4 -25 -19 -97 -35 -161 -16 -63 -34 -169 -41 -235 -22 -234 -28 -285 -32 -290 -3 -2 -72 -6 -154 -8 -82 -3 -152 -5 -156 -5 -5 -1 -8 -8 -8 -16 0 -13 122 -15 1040 -15 1033 0 1040 0 1040 20 0 20 -7 20 -577 21 -553 0 -773 -1 -985 -4 -54 -1 -101 2 -107 8 -6 6 -4 37 4 85 7 41 18 115 25 165 12 96 25 168 40 225 9 33 37 177 75 380 9 47 32 137 51 200 86 278 103 308 202 360 37 19 104 63 150 98 45 34 86 62 91 62 5 0 11 7 15 15 3 8 15 15 26 15 11 0 20 5 20 11 0 5 4 8 10 4 6 -3 6 -14 0 -28 -24 -60 -101 -315 -115 -379 -9 -40 -21 -95 -27 -123 -6 -27 -10 -87 -9 -132 1 -46 -2 -83 -6 -83 -13 0 -126 100 -144 127 -9 13 -33 40 -54 60 -52 49 -65 32 -32 -41 35 -76 66 -115 179 -228 70 -70 105 -98 122 -98 14 0 28 5 32 11 4 7 8 93 9 193 3 204 13 263 76 461 46 144 80 224 115 271 13 17 24 35 24 41 0 6 16 25 36 44 81 77 58 132 -41 97z" />
</ns0:g>
</g><g transform="translate(1.1253342284380778,218.15055669000975) scale(0.03466552127688305)"><ns0:metadata>
Created by potrace 1.16, written by Peter Selinger 2001-2019
</ns0:metadata>
<ns0:g transform="translate(0.000000,209.000000) scale(0.100000,-0.100000)" fill="#000000" stroke="none">
<ns0:path d="M1280 1970 c-11 -11 -20 -29 -20 -39 0 -11 -4 -23 -10 -26 -12 -7 -82 -155 -100 -210 -7 -22 -25 -62 -40 -90 -15 -27 -44 -93 -65 -145 -35 -89 -84 -193 -255 -540 -73 -150 -98 -195 -167 -315 -35 -60 -45 -70 -67 -68 -22 1 -27 -4 -37 -37 -26 -85 45 -91 118 -11 24 25 43 50 43 54 0 5 12 25 28 44 36 48 97 158 177 323 37 74 83 169 103 210 20 41 43 83 51 92 13 16 16 16 43 -7 16 -14 34 -25 38 -25 5 0 26 18 47 41 40 43 99 87 163 119 34 17 59 33 130 80 8 6 30 20 49 33 19 12 42 27 50 32 9 6 43 28 76 49 33 22 73 50 88 63 16 12 32 23 37 23 4 0 7 -48 6 -107 -4 -303 24 -895 56 -1175 6 -59 9 -110 6 -113 -3 -3 -18 1 -34 10 -16 8 -35 15 -41 15 -7 0 -13 5 -13 10 0 6 -9 10 -20 10 -10 0 -35 14 -53 30 -38 33 -57 38 -57 16 0 -21 94 -116 114 -116 21 0 73 -26 98 -49 10 -10 30 -24 44 -32 23 -12 27 -11 39 5 24 32 28 117 11 232 -36 256 -51 554 -51 1034 0 170 3 211 17 240 39 82 55 185 31 199 -26 14 -55 1 -114 -53 -60 -54 -103 -86 -184 -139 -27 -18 -63 -42 -80 -54 -55 -38 -206 -134 -228 -144 -12 -5 -44 -23 -72 -39 -27 -16 -71 -41 -98 -55 l-47 -25 19 47 c11 27 29 72 41 102 12 30 30 65 41 79 10 14 19 30 19 37 0 6 9 20 20 30 11 10 17 21 15 25 -2 4 4 15 15 25 11 10 31 41 45 69 14 28 39 69 55 91 32 42 35 77 11 138 -8 21 -17 27 -41 27 -17 0 -39 -9 -50 -20z" />
<ns0:path d="M1276 919 c-14 -11 -26 -30 -26 -43 0 -25 33 -40 112 -51 34 -5 49 -13 53 -26 4 -10 11 -19 17 -19 15 0 1 -76 -20 -112 -21 -35 -97 -96 -131 -105 -38 -10 -73 38 -69 97 4 60 -21 67 -45 12 -27 -62 -23 -118 12 -153 25 -24 38 -29 78 -29 150 1 236 67 268 207 16 69 13 136 -8 161 -13 16 -77 51 -127 69 -50 18 -84 16 -114 -8z" />
<ns0:path d="M905 833 c-28 -7 -45 -32 -45 -65 0 -16 -14 -61 -31 -101 -34 -79 -63 -179 -80 -273 -8 -50 -7 -68 5 -98 26 -63 76 -34 76 46 0 46 64 257 99 326 30 60 46 140 31 157 -13 15 -20 16 -55 8z" />
</ns0:g>
</g><g transform="translate(-2.8623554561312403,321.900477940053) scale(0.03466552127688305)"><ns0:metadata>
Created by potrace 1.16, written by Peter Selinger 2001-2019
</ns0:metadata>
<ns0:g transform="translate(0.000000,210.000000) scale(0.100000,-0.100000)" fill="#000000" stroke="none">
<ns0:path d="M1284 1683 c-44 -58 -145 -154 -179 -169 -35 -15 -88 -62 -104 -92 -9 -17 -9 -27 0 -44 27 -52 60 -50 113 7 24 25 46 45 50 45 4 0 23 12 42 26 19 15 37 24 41 20 7 -7 10 -403 4 -594 -4 -104 -8 -135 -20 -147 -9 -7 -52 -28 -96 -45 -91 -35 -104 -44 -124 -83 -14 -26 -13 -29 16 -59 31 -30 31 -30 63 -14 43 21 55 20 90 -5 l29 -22 33 28 c18 15 40 40 48 56 36 67 208 148 380 179 35 6 72 16 81 21 19 10 34 62 24 79 -15 25 -190 3 -325 -40 -51 -16 -95 -28 -97 -26 -2 2 1 174 6 382 6 209 11 413 12 454 l2 75 -30 3 c-25 3 -35 -4 -59 -35z" />
<ns0:path d="M403 1600 c-15 -6 -24 -21 -28 -47 -3 -21 -10 -46 -16 -55 -5 -10 -9 -49 -9 -88 0 -59 -5 -79 -32 -132 -25 -48 -32 -76 -33 -118 0 -46 3 -55 18 -54 38 3 14 -129 -32 -170 -28 -25 -26 -47 4 -76 19 -18 25 -34 25 -64 0 -55 -27 -221 -45 -272 -8 -23 -17 -65 -21 -93 -6 -46 -4 -55 16 -76 29 -31 43 -31 60 -1 7 14 63 71 124 128 61 57 137 129 169 161 l59 57 40 -31 c22 -18 42 -38 45 -46 14 -37 104 -47 111 -12 2 12 -69 119 -105 157 -7 7 -13 16 -13 20 0 4 -16 24 -34 46 l-34 38 -28 -18 c-40 -26 -45 -35 -39 -69 6 -38 1 -46 -60 -80 -27 -16 -76 -53 -108 -82 -52 -46 -77 -62 -77 -49 0 2 6 39 14 82 8 44 17 107 21 141 3 34 17 83 30 110 14 26 25 53 25 58 0 9 24 35 90 99 64 61 143 202 155 273 4 24 4 56 0 73 -10 45 -42 48 -146 15 -49 -16 -91 -26 -94 -23 -3 3 1 31 10 64 20 78 19 103 -7 125 -24 21 -24 21 -55 9z m194 -284 c-19 -49 -85 -137 -107 -142 -14 -4 -30 -11 -37 -16 -6 -5 -14 -5 -16 0 -7 10 10 87 24 114 20 37 149 79 136 44z" />
<ns0:path d="M22 1184 c-35 -24 -30 -85 11 -137 18 -23 40 -58 49 -77 9 -19 30 -54 47 -77 59 -81 92 -45 63 67 -12 49 -81 191 -105 218 -24 26 -35 27 -65 6z" />
</ns0:g>
</g><g transform="translate(0.013758644442361856,410.6520698791071) scale(0.03466552127688305)"><ns0:metadata>
Created by potrace 1.16, written by Peter Selinger 2001-2019
</ns0:metadata>
<ns0:g transform="translate(0.000000,205.000000) scale(0.100000,-0.100000)" fill="#000000" stroke="none">
<ns0:path d="M653 1874 c-16 -7 -17 -46 -2 -61 21 -21 49 -223 42 -307 l-6 -78 -41 -20 c-73 -35 -84 -43 -126 -99 -48 -64 -56 -90 -41 -127 6 -15 10 -39 9 -52 -2 -14 2 -25 9 -25 10 0 63 68 63 82 0 14 61 80 90 97 l33 19 -7 -59 c-15 -121 -20 -132 -80 -149 -30 -9 -60 -22 -66 -30 -21 -25 -2 -69 45 -105 35 -27 44 -42 44 -65 1 -53 -23 -121 -54 -156 -30 -34 -46 -47 -117 -94 -45 -30 -48 -56 -12 -90 32 -29 37 -30 58 -9 9 8 23 14 32 12 13 -3 16 -28 17 -173 2 -153 4 -174 23 -210 21 -38 99 -105 124 -105 6 0 24 -7 40 -15 41 -21 127 -30 287 -29 97 0 161 6 200 17 32 8 89 21 126 27 38 7 106 28 150 47 45 20 98 41 117 48 33 12 35 16 40 72 6 58 -5 95 -46 163 -8 14 -20 37 -25 53 -6 15 -15 27 -20 27 -5 0 -13 8 -17 18 -15 37 -77 122 -87 119 -18 -6 -17 -46 4 -102 12 -31 21 -66 21 -78 0 -12 7 -35 16 -52 26 -48 42 -111 33 -127 -15 -27 -147 -79 -237 -94 -259 -43 -431 -44 -522 -2 -30 13 -70 41 -88 62 -29 33 -32 44 -34 104 -4 141 0 180 27 240 25 56 29 60 80 76 30 9 57 21 60 26 11 18 34 10 41 -12 8 -26 51 -86 74 -105 26 -21 55 -14 88 20 18 18 32 38 32 44 0 6 6 16 14 22 21 18 57 298 71 566 3 50 10 133 15 185 13 127 16 223 6 238 -8 14 -42 16 -50 3 -3 -4 -27 -16 -53 -26 -26 -10 -55 -24 -64 -31 -8 -8 -54 -29 -101 -48 l-85 -33 -5 137 c-5 127 -7 141 -34 191 -26 48 -33 54 -64 56 -19 1 -41 0 -47 -3z m107 -258 c0 -3 -4 -8 -10 -11 -5 -3 -10 -1 -10 4 0 6 5 11 10 11 6 0 10 -2 10 -4z m297 -153 c-8 -37 -25 -227 -40 -443 l-12 -175 -24 3 c-13 2 -50 -11 -83 -28 -32 -17 -65 -30 -71 -27 -7 3 -21 21 -32 41 l-20 36 25 48 c14 26 30 53 37 60 24 24 15 68 -18 96 -17 14 -34 26 -39 26 -18 0 -18 34 1 142 12 66 27 120 37 131 15 17 26 23 122 65 25 11 54 27 65 36 11 8 28 16 39 16 15 0 17 -5 13 -27z m-289 -690 c2 -15 -4 -23 -18 -28 -28 -9 -32 -3 -24 29 8 32 37 32 42 -1z m232 -13 c0 -22 -4 -48 -9 -58 -5 -9 -13 -35 -18 -56 -10 -51 -26 -55 -63 -18 -45 46 -41 81 14 116 25 15 47 34 50 42 11 28 26 13 26 -26z" />
<ns0:path d="M300 1234 c-15 -38 -12 -82 11 -149 39 -118 45 -160 48 -332 1 -40 5 -53 16 -53 20 0 35 31 52 109 17 77 17 122 3 246 -24 194 -29 205 -91 205 -22 0 -32 -6 -39 -26z" />
</ns0:g>
</g><g transform="translate(0.502340369935041,513.4871018803988) scale(0.03466552127688305)"><ns0:metadata>
Created by potrace 1.16, written by Peter Selinger 2001-2019
</ns0:metadata>
<ns0:g transform="translate(0.000000,209.000000) scale(0.100000,-0.100000)" fill="#000000" stroke="none">
<ns0:path d="M1005 1715 c-22 -7 -53 -20 -70 -29 -16 -9 -39 -16 -51 -16 -28 0 -54 -30 -54 -62 0 -19 9 -32 34 -47 18 -12 36 -30 39 -41 8 -33 35 -24 39 12 6 59 101 87 226 67 85 -14 100 -30 59 -65 -15 -13 -27 -26 -27 -31 0 -4 -9 -16 -19 -28 -130 -140 -170 -184 -185 -209 -18 -28 -84 -101 -180 -197 -49 -50 -54 -68 -32 -121 6 -13 -7 -19 -81 -36 -157 -36 -298 -56 -385 -54 -9 0 -38 -7 -65 -17 -40 -14 -49 -21 -51 -45 -2 -19 4 -36 19 -52 24 -26 49 -30 79 -14 11 6 76 17 144 25 69 8 144 22 168 30 24 9 78 20 120 25 42 5 102 16 133 26 l56 18 25 -30 c38 -46 61 -106 74 -191 7 -43 20 -112 30 -153 10 -41 20 -109 22 -150 l3 -75 -68 2 c-58 2 -80 8 -145 43 -81 44 -155 71 -262 99 -115 29 -132 7 -42 -51 32 -20 88 -48 127 -62 38 -15 91 -41 119 -59 62 -40 127 -69 224 -99 67 -20 76 -21 100 -7 16 8 28 25 30 39 2 14 8 35 14 47 25 51 -36 445 -92 590 -15 40 -25 75 -22 78 3 3 14 5 25 5 10 0 31 6 45 14 27 14 145 45 255 66 33 7 74 18 93 26 18 8 48 14 67 14 18 0 38 5 45 12 18 18 15 87 -3 94 -8 4 -52 -3 -97 -15 -46 -11 -110 -25 -143 -31 -33 -6 -100 -22 -150 -36 -49 -14 -118 -30 -153 -36 -55 -9 -65 -8 -82 7 -11 10 -20 22 -20 27 0 8 75 97 201 239 28 31 58 67 67 80 9 13 43 56 77 95 98 116 107 196 28 229 -46 20 -173 52 -228 58 -22 2 -58 -1 -80 -8z m-425 -875 c0 -16 -23 -22 -71 -18 -42 4 -43 4 -19 15 32 15 90 16 90 3z" />
</ns0:g>
</g><g transform="translate(-2.930894470155579,621.1331051133385) scale(0.03466552127688305)"><ns0:metadata>
Created by potrace 1.16, written by Peter Selinger 2001-2019
</ns0:metadata>
<ns0:g transform="translate(0.000000,207.000000) scale(0.100000,-0.100000)" fill="#000000" stroke="none">
<ns0:path d="M953 1943 c-7 -2 -13 -9 -13 -15 0 -5 -15 -44 -34 -87 -18 -42 -41 -108 -51 -147 -13 -54 -22 -73 -43 -86 -223 -142 -321 -216 -337 -255 -22 -52 -19 -69 18 -97 40 -31 71 -26 87 14 15 36 107 133 119 126 5 -4 -4 -33 -20 -66 -16 -33 -29 -63 -29 -67 0 -7 -110 -228 -174 -348 -48 -91 -163 -269 -195 -302 -11 -12 -21 -25 -21 -28 0 -4 -14 -26 -30 -49 -33 -46 -32 -72 4 -85 17 -7 29 0 59 29 20 21 37 42 37 48 0 6 8 17 18 24 22 16 72 90 72 106 0 7 16 29 35 51 19 21 35 43 35 48 0 6 39 48 87 93 105 100 106 100 88 -91 -7 -74 -12 -188 -11 -254 1 -135 10 -148 59 -97 27 28 28 35 37 178 6 82 14 185 19 229 15 119 13 220 -2 234 -18 14 -73 -2 -104 -31 -12 -12 -23 -18 -23 -15 0 4 20 46 44 94 24 49 55 115 69 148 30 71 74 152 96 178 9 10 25 37 36 59 11 22 24 40 28 39 5 -1 21 15 36 36 15 21 45 50 67 64 93 61 131 85 157 98 15 7 27 17 27 22 0 5 20 18 44 30 24 11 67 43 96 70 44 42 49 51 40 69 -13 24 -15 24 -60 1 -19 -11 -59 -31 -89 -45 -29 -14 -74 -41 -100 -59 -63 -46 -129 -82 -137 -74 -6 6 19 94 37 129 28 55 -21 105 -78 81z" />
<ns0:path d="M1417 1738 c-167 -178 -203 -214 -217 -220 -22 -9 -170 -138 -170 -148 0 -5 -26 -29 -57 -53 -39 -30 -68 -63 -87 -100 -28 -52 -29 -57 -13 -80 27 -42 54 -41 86 3 39 55 256 280 269 280 6 0 21 13 34 29 13 16 33 34 46 40 26 14 26 15 11 -84 -6 -38 -12 -171 -13 -294 l-1 -224 -86 -46 c-48 -25 -94 -52 -103 -60 -34 -29 -28 1 12 58 23 32 46 69 51 83 5 13 19 46 32 72 l23 49 -28 23 c-37 33 -87 30 -160 -9 -50 -27 -65 -41 -93 -92 -37 -68 -37 -89 4 -167 l25 -47 -20 -28 c-11 -15 -45 -51 -77 -80 -47 -43 -55 -56 -50 -75 19 -63 75 -64 143 -3 27 25 54 45 59 45 5 0 20 -12 34 -26 56 -62 196 -165 244 -180 27 -10 61 -25 74 -35 29 -23 64 -24 82 -2 21 24 15 130 -16 289 -15 75 -30 167 -35 203 -5 36 -14 89 -20 116 -19 84 6 451 37 550 17 54 33 86 78 155 19 29 29 59 29 85 1 37 -1 40 -29 43 -26 2 -39 -7 -98 -70z m-267 -762 c0 -7 -14 -30 -30 -51 -17 -21 -33 -49 -36 -62 -7 -27 -43 -52 -45 -31 -5 64 15 111 63 145 32 23 48 22 48 -1z m183 -244 c3 -43 11 -91 17 -106 5 -15 13 -54 16 -87 4 -47 2 -59 -9 -59 -24 0 -120 48 -163 83 -23 17 -56 40 -75 50 l-33 18 44 41 c54 50 171 136 186 137 7 1 13 -30 17 -77z" />
</ns0:g>
</g><g transform="translate(0.26970385688997567,710.7796093722927) scale(0.03466552127688305)"><ns0:metadata>
Created by potrace 1.16, written by Peter Selinger 2001-2019
</ns0:metadata>
<ns0:g transform="translate(0.000000,210.000000) scale(0.100000,-0.100000)" fill="#000000" stroke="none">
<ns0:path d="M1369 1882 c-6 -13 -246 -190 -268 -197 -26 -8 -41 1 -41 24 0 27 -24 43 -54 35 -32 -8 -66 -69 -90 -158 -8 -32 -24 -68 -35 -80 -15 -16 -19 -30 -14 -61 3 -27 -6 -87 -30 -185 -19 -80 -45 -190 -57 -245 -12 -55 -27 -116 -33 -135 -6 -19 -12 -82 -13 -140 -2 -102 -14 -185 -34 -225 -6 -11 -21 -69 -34 -130 -13 -60 -30 -125 -37 -143 -19 -45 3 -86 48 -90 26 -3 45 7 96 46 35 27 77 57 93 65 16 9 56 41 89 73 64 60 112 94 134 94 7 0 29 14 48 30 39 35 52 37 84 11 13 -10 69 -42 124 -71 55 -29 116 -63 135 -75 19 -11 54 -27 77 -34 49 -16 73 -5 73 34 0 31 -42 90 -65 91 -11 1 -36 11 -55 22 -19 12 -53 31 -75 43 -49 27 -92 56 -128 88 l-27 25 72 73 c130 132 161 175 148 208 -7 19 -10 17 -41 -16 -19 -20 -59 -51 -89 -69 -30 -18 -68 -45 -85 -59 -16 -15 -50 -42 -74 -60 l-43 -34 -42 23 c-22 13 -43 26 -46 29 -34 41 -116 53 -144 22 -33 -37 -3 -88 65 -110 20 -7 44 -20 53 -29 14 -17 13 -21 -29 -55 -24 -20 -48 -37 -54 -37 -6 0 -15 -9 -21 -20 -6 -11 -48 -47 -93 -81 -99 -74 -101 -70 -63 84 14 56 30 132 35 169 5 37 14 82 20 100 6 18 18 63 27 101 18 72 12 65 146 163 16 12 35 28 41 36 7 8 37 30 67 49 76 47 102 76 90 100 -15 27 -30 32 -48 17 -9 -8 -42 -25 -72 -37 -30 -13 -77 -37 -103 -53 -41 -26 -52 -29 -73 -20 -27 13 -30 32 -13 83 15 43 12 42 41 29 21 -10 31 -7 69 18 24 16 62 41 84 54 22 14 53 37 68 52 15 14 32 26 37 26 13 0 66 52 80 79 10 19 9 26 -4 39 -15 15 -19 15 -49 -2 -17 -10 -43 -29 -57 -41 -27 -23 -219 -119 -226 -112 -2 2 2 23 10 48 8 24 17 55 20 69 8 37 160 190 189 190 6 0 41 21 78 46 38 25 72 44 76 41 16 -10 5 -229 -43 -818 -4 -48 -2 -79 4 -83 15 -9 59 10 71 32 17 32 57 466 77 832 13 230 15 215 -27 218 -21 2 -39 -1 -40 -6z" />
<ns0:path d="M551 1704 c-37 -10 -72 -30 -115 -65 -33 -28 -64 -57 -68 -63 -4 -7 0 -71 7 -144 12 -117 12 -136 -1 -169 -10 -24 -14 -51 -10 -77 11 -73 9 -199 -3 -276 -7 -41 -15 -77 -17 -80 -3 -2 -19 -4 -37 -5 -26 0 -31 -4 -29 -20 2 -11 16 -32 33 -46 l30 -26 -21 -144 c-11 -79 -25 -161 -31 -182 -11 -43 -14 -253 -3 -280 8 -23 37 -22 59 3 13 15 20 47 27 127 5 60 20 169 34 243 13 74 27 166 31 203 4 48 13 78 29 100 12 18 46 73 75 122 29 50 59 96 65 102 33 34 40 198 10 238 -7 9 -30 16 -63 17 -36 2 -53 7 -53 15 0 7 16 37 36 67 44 67 81 173 89 263 9 88 1 96 -74 77z m-11 -554 c0 -21 -42 -120 -51 -120 -18 0 -3 112 16 127 18 13 35 9 35 -7z" />
</ns0:g>
</g><g transform="translate(2.3985871567386994,812.1296731979241) scale(0.03466552127688305)"><ns0:metadata>
Created by potrace 1.16, written by Peter Selinger 2001-2019
</ns0:metadata>
<ns0:g transform="translate(0.000000,207.000000) scale(0.100000,-0.100000)" fill="#000000" stroke="none">
<ns0:path d="M1005 1928 c-21 -24 -57 -83 -82 -133 -24 -49 -57 -115 -74 -145 -17 -30 -58 -113 -91 -185 -33 -71 -77 -155 -96 -185 -38 -59 -112 -200 -112 -213 0 -5 -11 -23 -25 -41 -14 -18 -25 -37 -25 -43 0 -6 -20 -41 -45 -79 -25 -37 -45 -72 -45 -77 0 -4 -12 -33 -27 -63 -25 -51 -26 -56 -10 -72 20 -19 43 -10 61 24 24 45 81 133 117 180 21 28 68 107 103 177 35 69 78 145 94 169 16 24 48 81 71 128 24 47 51 99 61 115 10 17 21 40 24 52 9 28 69 129 94 157 11 12 36 49 56 84 21 34 50 69 66 77 53 27 40 80 -26 105 -41 16 -50 12 -89 -32z" />
<ns0:path d="M1188 1549 c-21 -11 -25 -79 -6 -79 6 0 19 -6 27 -14 9 -8 41 -24 71 -36 30 -12 65 -31 76 -42 27 -24 77 -21 82 5 4 18 -18 42 -125 140 -43 39 -88 48 -125 26z" />
<ns0:path d="M1040 1183 c-8 -2 -24 -8 -35 -13 -11 -5 -32 -11 -46 -14 -25 -5 -26 -8 -32 -105 -12 -179 -73 -380 -151 -496 -100 -149 -130 -187 -181 -231 -50 -44 -53 -48 -43 -75 6 -16 23 -36 38 -44 31 -16 37 -12 119 63 35 32 117 77 178 97 29 9 55 21 58 26 4 5 17 9 30 9 13 0 27 5 30 10 3 6 17 10 29 10 13 0 29 6 36 14 6 8 17 13 25 10 7 -3 27 2 44 10 16 9 37 16 46 16 9 0 44 13 78 29 54 25 113 45 140 46 4 0 18 -29 31 -65 38 -109 55 -142 68 -138 23 8 29 115 13 213 -8 50 -17 137 -19 194 -3 57 -6 104 -8 105 -68 48 -108 54 -142 21 -15 -15 -13 -59 3 -80 9 -11 41 -136 41 -158 0 -9 -16 -16 -45 -20 -25 -4 -63 -16 -85 -27 -21 -11 -47 -20 -57 -20 -16 0 -128 -32 -281 -81 -35 -11 -66 -18 -69 -15 -3 3 13 33 36 68 22 35 41 70 41 78 0 8 7 28 15 43 8 16 29 94 46 175 17 81 35 155 40 164 5 10 9 30 9 44 0 14 11 39 25 56 27 32 32 57 13 76 -13 13 -15 13 -38 5z" />
</ns0:g>
</g><g transform="translate(-0.5775483485257382,907.0441954418786) scale(0.03466552127688305)"><ns0:metadata>
Created by potrace 1.16, written by Peter Selinger 2001-2019
</ns0:metadata>
<ns0:g transform="translate(0.000000,209.000000) scale(0.100000,-0.100000)" fill="#000000" stroke="none">
<ns0:path d="M1199 2057 c-116 -67 -156 -91 -219 -132 -36 -23 -101 -61 -145 -84 -44 -24 -84 -49 -88 -57 -4 -8 -12 -14 -18 -14 -19 0 -136 -59 -149 -75 -8 -10 -39 -28 -70 -41 -85 -38 -113 -91 -71 -133 16 -16 30 -19 72 -15 57 5 89 18 89 37 0 17 87 107 103 107 8 0 26 11 40 24 26 24 35 30 132 80 28 15 66 38 85 51 61 44 111 75 120 75 4 0 20 14 33 30 14 17 32 30 40 30 8 0 20 7 27 15 7 8 18 15 26 15 7 0 20 7 29 16 9 9 18 14 21 11 7 -7 -28 -158 -65 -282 -17 -55 -33 -116 -36 -135 -3 -19 -12 -64 -20 -100 -32 -136 -52 -265 -60 -393 -3 -42 -11 -96 -19 -120 -35 -110 -49 -277 -35 -405 6 -51 9 -95 6 -99 -3 -3 -21 6 -39 20 -60 45 -94 57 -160 57 -81 0 -110 -8 -106 -29 2 -11 22 -19 68 -26 36 -6 75 -16 86 -23 33 -18 100 -102 128 -162 15 -30 31 -62 36 -70 5 -8 17 -32 26 -53 21 -48 57 -68 81 -45 21 22 28 102 14 180 -6 34 -18 131 -26 213 -19 173 -15 261 21 444 13 69 24 137 24 152 0 135 130 698 187 813 14 27 27 73 30 102 l6 54 -74 0 c-65 -1 -81 -5 -130 -33z" />
<ns0:path d="M1055 1615 c-16 -8 -61 -28 -100 -45 -38 -18 -87 -44 -110 -59 -22 -15 -52 -32 -66 -38 -15 -6 -42 -25 -60 -41 -19 -16 -54 -40 -79 -52 -91 -47 -144 -137 -105 -180 14 -16 31 -20 81 -20 34 0 69 3 78 6 21 8 21 60 0 72 -24 13 35 67 206 189 14 10 61 36 104 58 92 46 136 81 136 107 0 22 -40 24 -85 3z" />
<ns0:path d="M588 1004 c-38 -20 -41 -53 -7 -90 19 -20 19 -21 -1 -39 -11 -10 -20 -24 -20 -30 0 -7 -7 -18 -15 -25 -8 -7 -15 -21 -15 -31 0 -11 -4 -19 -9 -19 -29 0 -75 -236 -52 -264 26 -31 63 -26 151 21 154 84 310 264 310 360 0 42 -34 69 -101 82 -31 5 -82 19 -115 30 -69 25 -89 25 -126 5z m182 -114 c25 -6 55 -12 66 -15 12 -3 24 -12 28 -20 9 -25 -28 -88 -76 -128 -24 -20 -51 -43 -60 -51 -27 -23 -75 -46 -97 -46 -11 0 -23 -5 -26 -10 -4 -6 -11 -7 -17 -4 -11 7 -4 74 12 102 5 9 21 46 36 82 44 104 50 108 134 90z" />
</ns0:g>
</g></svg>