<?xml version='1.0' encoding='utf-8'?>
<svg xmlns:ns0="http://www.w3.org/2000/svg" xmlns="http://www.w3.org/2000/svg" width="235" height="121" viewBox="0 0 235 121"><g transform="translate(0.2391507588106947,-71.5861000443077) scale(0.03057681932135041)"><ns0:metadata>
Created by potrace 1.16, written by Peter Selinger 2001-2019
</ns0:metadata>
<ns0:g transform="translate(0.000000,208.000000) scale(0.100000,-0.100000)" fill="#000000" stroke="none">
<ns0:path d="M1437 1960 c-12 -10 -31 -20 -42 -24 -12 -3 -37 -21 -56 -39 -56 -51 -166 -135 -207 -157 -165 -93 -261 -169 -293 -234 -28 -58 -25 -73 18 -87 34 -11 38 -10 55 12 55 70 116 124 217 189 34 22 83 57 111 77 66 51 121 85 128 79 6 -6 -36 -223 -49 -251 -5 -11 -19 -54 -32 -95 -30 -103 -61 -140 -115 -140 -10 0 -27 -9 -37 -20 -15 -16 -16 -22 -5 -35 11 -13 10 -21 -1 -43 -8 -17 -13 -65 -14 -136 l0 -108 -40 -34 c-22 -18 -71 -55 -110 -81 -38 -26 -86 -63 -105 -82 -19 -18 -53 -45 -75 -59 -22 -14 -44 -31 -50 -39 -10 -14 -52 -38 -120 -71 -22 -11 -46 -27 -54 -36 -7 -9 -22 -16 -32 -16 -10 0 -27 -10 -39 -22 -25 -28 -25 -18 0 32 21 41 26 70 11 70 -11 0 -41 -29 -123 -119 -42 -45 -69 -68 -72 -60 -2 8 -10 41 -17 74 -7 33 -23 83 -35 110 -26 59 -40 140 -24 150 7 4 7 12 0 26 -13 24 -87 27 -96 4 -4 -9 -11 -15 -18 -14 -39 7 -61 -36 -30 -62 14 -11 46 -74 89 -174 22 -51 43 -167 34 -191 -3 -11 -12 -37 -19 -59 -7 -22 -15 -45 -17 -52 -7 -19 35 -53 67 -53 23 0 33 7 46 33 9 17 32 51 50 74 19 23 34 47 34 54 0 8 6 7 18 -4 30 -27 75 -21 121 16 103 82 175 134 215 157 53 30 186 129 186 138 1 4 24 23 51 42 28 19 69 50 91 68 22 17 44 32 49 32 6 0 8 -49 5 -117 -2 -65 -5 -132 -5 -150 -1 -21 -10 -41 -28 -58 -27 -25 -27 -26 -9 -40 17 -13 18 -23 11 -122 -4 -59 -9 -137 -10 -173 -2 -36 -8 -78 -15 -94 -11 -29 -11 -29 -26 -8 -18 26 -46 18 -42 -12 3 -19 10 -21 81 -24 76 -3 77 -2 88 25 5 15 17 101 24 192 8 91 20 170 25 175 7 7 21 6 44 -2 19 -7 77 -16 128 -21 87 -7 103 -12 212 -66 104 -51 128 -59 192 -63 78 -5 104 5 104 38 0 19 -29 36 -77 45 -18 4 -43 15 -57 26 -14 11 -41 26 -62 35 -20 8 -53 26 -73 38 -40 26 -186 66 -238 66 -19 0 -63 7 -99 16 l-65 17 6 81 c3 44 7 126 9 181 3 55 8 108 11 118 7 16 102 95 157 130 15 9 41 29 57 45 17 15 49 41 71 57 23 17 53 40 66 52 14 13 33 27 44 33 11 6 20 19 20 30 0 26 -44 38 -68 18 -9 -7 -33 -21 -53 -30 -20 -9 -73 -45 -119 -80 -123 -94 -143 -108 -157 -108 -21 0 -22 103 -1 128 13 15 32 47 44 72 4 8 16 21 26 28 11 8 17 21 13 31 -3 10 3 29 13 42 11 13 17 30 14 38 -3 8 2 19 11 26 18 13 87 218 87 257 0 15 14 69 30 120 32 98 38 159 18 175 -19 15 -47 12 -71 -7z m-691 -1351 c8 -14 -14 -29 -33 -22 -10 4 -11 9 -2 19 14 17 25 18 35 3z" />
<ns0:path d="M1110 1521 c-28 -14 -38 -29 -52 -72 -10 -30 -24 -67 -31 -84 -8 -16 -22 -55 -32 -85 -27 -85 -122 -275 -161 -321 -19 -23 -39 -50 -44 -60 -5 -9 -23 -31 -40 -47 -53 -53 -34 -91 28 -58 58 31 175 190 249 338 26 51 54 105 64 119 27 39 79 176 79 209 0 16 5 32 10 35 6 3 10 15 10 26 0 25 -34 25 -80 0z" />
<ns0:path d="M633 1470 c-29 -12 -30 -51 -3 -88 27 -38 44 -174 35 -299 -8 -128 4 -134 59 -32 38 69 38 71 37 177 -1 124 -8 167 -27 183 -8 6 -14 19 -14 28 0 37 -39 50 -87 31z" />
<ns0:path d="M178 1146 c-32 -24 -21 -58 35 -114 l53 -52 22 20 c12 12 22 24 22 29 0 22 -35 108 -48 119 -20 16 -62 15 -84 -2z" />
<ns0:path d="M1013 700 c-26 -16 -49 -35 -131 -113 -18 -17 -54 -65 -79 -107 -26 -41 -61 -93 -77 -115 -17 -21 -35 -46 -41 -55 -36 -60 -105 -159 -114 -165 -18 -11 -13 -53 8 -60 29 -9 42 1 109 84 35 43 79 93 98 110 19 18 34 39 34 47 0 8 11 24 25 36 22 19 45 54 111 170 7 11 27 36 46 56 40 44 78 97 78 110 0 18 -39 20 -67 2z" />
</ns0:g>
</g><g transform="translate(-2.60012065591053,13.206914479621304) scale(0.03057681932135041)"><ns0:metadata>
Created by potrace 1.16, written by Peter Selinger 2001-2019
</ns0:metadata>
<ns0:g transform="translate(0.000000,210.000000) scale(0.100000,-0.100000)" fill="#000000" stroke="none">
<ns0:path d="M1683 2039 c-56 -16 -67 -52 -67 -219 0 -80 4 -197 9 -260 10 -111 9 -479 0 -530 -8 -42 -14 -161 -25 -480 -6 -168 -14 -332 -18 -365 -4 -33 -5 -87 -2 -120 l5 -60 44 -3 c24 -2 48 1 54 7 5 5 11 74 13 153 9 453 18 728 32 918 10 130 9 354 -3 641 -7 177 -6 201 10 246 27 76 16 92 -52 72z" />
<ns0:path d="M918 1674 c-26 -13 -28 -20 -29 -77 -3 -157 -18 -458 -24 -467 -2 -3 -6 -40 -9 -81 -6 -86 -13 -109 -31 -109 -8 0 -42 -32 -77 -71 -35 -39 -72 -79 -83 -88 -37 -31 -80 -79 -144 -159 -74 -93 -158 -179 -167 -170 -3 4 -1 22 5 40 10 31 46 246 58 348 3 25 8 49 13 53 4 5 6 25 3 45 -6 61 17 112 73 165 28 26 56 47 62 47 11 0 42 38 42 52 0 4 -9 12 -20 18 -16 9 -33 3 -94 -30 l-75 -41 -6 33 c-4 19 -4 67 -1 107 4 68 7 76 41 111 21 21 34 43 31 49 -16 25 -158 -3 -180 -35 -14 -20 -12 -94 9 -265 7 -54 6 -57 -23 -77 -16 -12 -35 -22 -41 -22 -22 0 -103 -64 -112 -88 -14 -37 2 -68 44 -81 45 -15 80 -1 109 43 13 20 26 36 31 36 13 0 8 -71 -17 -235 -29 -189 -39 -231 -102 -465 -4 -14 -20 -44 -35 -68 -37 -55 -37 -78 1 -97 16 -8 33 -15 38 -15 17 0 84 75 103 115 22 45 179 260 213 290 28 24 106 121 124 152 6 13 12 30 12 38 0 9 6 18 14 21 17 6 112 125 128 159 27 59 34 18 20 -122 -9 -87 11 -277 46 -433 10 -44 35 -50 58 -14 20 29 22 107 9 339 -5 91 -3 144 10 220 9 55 22 145 30 200 24 168 37 216 61 226 43 16 38 79 -6 79 -15 0 -17 10 -14 88 1 48 5 113 9 144 13 95 -32 133 -107 92z" />
<ns0:path d="M1256 1595 c-17 -13 -19 -32 -22 -182 -5 -240 -5 -248 2 -463 5 -161 3 -206 -10 -256 -23 -88 -21 -140 5 -154 90 -49 105 51 105 695 l-1 370 -30 2 c-16 2 -38 -4 -49 -12z" />
</ns0:g>
</g><g transform="translate(1.6083945957083756,101.19298587230486) scale(0.03057681932135041)"><ns0:metadata>
Created by potrace 1.16, written by Peter Selinger 2001-2019
</ns0:metadata>
<ns0:g transform="translate(0.000000,228.000000) scale(0.100000,-0.100000)" fill="#000000" stroke="none">
<ns0:path d="M525 2183 c4 -54 8 -132 10 -173 1 -41 6 -85 10 -97 6 -19 2 -24 -21 -33 -16 -6 -49 -24 -74 -40 -25 -15 -61 -31 -80 -35 -77 -17 -140 -56 -140 -88 0 -27 38 -77 59 -77 9 0 41 11 69 25 29 14 56 25 62 25 5 0 24 13 43 29 18 16 76 50 128 75 51 25 118 61 147 81 30 19 56 35 58 35 2 0 34 18 70 40 36 22 72 40 80 40 8 0 14 5 14 10 0 6 8 14 18 18 54 23 93 56 90 76 -5 36 -72 22 -173 -36 -22 -13 -67 -34 -100 -47 -33 -14 -62 -27 -65 -30 -3 -4 -16 -12 -30 -19 -14 -8 -41 -22 -59 -32 -19 -11 -37 -17 -40 -15 -2 3 1 35 7 72 7 38 14 106 17 153 2 47 7 97 11 113 l6 27 -61 0 -62 0 6 -97z m-98 -408 c-23 -22 -33 -18 -12 5 10 11 20 18 23 16 2 -3 -3 -12 -11 -21z" />
<ns0:path d="M1285 1858 c-16 -6 -46 -23 -65 -38 -19 -14 -63 -40 -97 -58 -35 -17 -68 -36 -75 -42 -14 -12 -105 -70 -221 -141 -38 -22 -71 -38 -75 -34 -3 3 2 36 11 74 10 37 15 75 11 84 -9 24 -40 30 -71 15 -28 -14 -58 -82 -82 -191 -12 -55 -15 -58 -64 -83 -29 -14 -59 -35 -67 -45 -16 -20 -114 -62 -123 -52 -15 15 10 72 49 113 40 41 54 76 38 93 -3 3 -29 -7 -58 -22 -28 -16 -68 -34 -89 -41 -20 -6 -42 -20 -47 -30 -6 -10 -10 -63 -10 -117 0 -74 -5 -108 -19 -139 -12 -27 -16 -46 -10 -57 10 -17 -12 -125 -74 -367 -14 -52 -23 -97 -21 -99 2 -2 14 -1 27 3 49 12 108 137 147 312 18 80 27 102 44 110 15 7 21 18 21 44 1 53 18 75 87 109 35 17 71 36 80 43 9 7 20 9 23 6 7 -6 -13 -80 -45 -173 -17 -48 -72 -311 -84 -405 -4 -25 -19 -97 -35 -161 -16 -63 -34 -169 -41 -235 -22 -234 -28 -285 -32 -290 -3 -2 -72 -6 -154 -8 -82 -3 -152 -5 -156 -5 -5 -1 -8 -8 -8 -16 0 -13 122 -15 1040 -15 1033 0 1040 0 1040 20 0 20 -7 20 -577 21 -553 0 -773 -1 -985 -4 -54 -1 -101 2 -107 8 -6 6 -4 37 4 85 7 41 18 115 25 165 12 96 25 168 40 225 9 33 37 177 75 380 9 47 32 137 51 200 86 278 103 308 202 360 37 19 104 63 150 98 45 34 86 62 91 62 5 0 11 7 15 15 3 8 15 15 26 15 11 0 20 5 20 11 0 5 4 8 10 4 6 -3 6 -14 0 -28 -24 -60 -101 -315 -115 -379 -9 -40 -21 -95 -27 -123 -6 -27 -10 -87 -9 -132 1 -46 -2 -83 -6 -83 -13 0 -126 100 -144 127 -9 13 -33 40 -54 60 -52 49 -65 32 -32 -41 35 -76 66 -115 179 -228 70 -70 105 -98 122 -98 14 0 28 5 32 11 4 7 8 93 9 193 3 204 13 263 76 461 46 144 80 224 115 271 13 17 24 35 24 41 0 6 16 25 36 44 81 77 58 132 -41 97z" />
</ns0:g>
</g><g transform="translate(-1.7175201698040041,198.1743601452638) scale(0.03057681932135041)"><ns0:metadata>
Created by potrace 1.16, written by Peter Selinger 2001-2019
</ns0:metadata>
<ns0:g transform="translate(0.000000,215.000000) scale(0.100000,-0.100000)" fill="#000000" stroke="none">
<ns0:path d="M1157 1895 c-82 -73 -203 -183 -238 -218 -15 -15 -43 -34 -62 -42 -19 -8 -50 -33 -69 -55 -19 -22 -40 -40 -46 -40 -7 0 -13 18 -13 43 -2 50 -3 56 -14 125 -4 29 -14 59 -21 67 -16 15 -48 9 -66 -12 -16 -20 -18 -145 -1 -158 15 -13 1 -259 -20 -330 -8 -27 -18 -68 -21 -90 -8 -49 -30 -125 -64 -225 -40 -118 -60 -161 -98 -202 -27 -31 -34 -46 -32 -71 3 -27 7 -32 33 -35 119 -11 244 -64 245 -104 0 -10 -9 -39 -19 -66 -23 -58 -35 -133 -27 -166 9 -37 61 -56 153 -56 97 1 180 20 255 60 66 34 81 36 131 15 53 -22 169 -20 190 3 19 21 22 81 6 132 -6 19 -15 128 -20 241 -8 182 -6 223 10 342 11 75 23 143 28 151 13 22 116 96 135 96 9 0 23 8 30 19 7 10 28 26 45 35 39 20 68 60 59 82 -7 18 -36 12 -76 -16 -32 -23 -151 -73 -157 -66 -8 8 36 139 79 236 36 79 38 90 28 111 -13 24 -47 24 -81 1 -44 -29 -137 -100 -187 -145 -26 -23 -61 -51 -76 -62 -28 -20 -42 -31 -165 -129 -34 -27 -64 -46 -67 -44 -3 3 0 57 7 119 13 127 36 195 73 209 13 5 43 32 67 61 24 29 60 68 79 88 60 60 102 121 96 136 -10 28 -46 15 -109 -40z m182 -402 c-6 -16 -15 -50 -20 -78 -21 -111 -38 -154 -69 -170 -48 -25 -59 -20 -53 24 6 47 -6 57 -47 36 -17 -9 -34 -13 -39 -10 -5 2 -16 -6 -25 -20 -12 -18 -15 -38 -10 -77 l6 -53 -54 -36 c-72 -48 -98 -56 -98 -31 0 10 11 29 25 42 14 13 25 35 25 48 0 19 25 50 94 119 52 51 99 93 104 93 5 0 20 15 33 34 29 41 106 106 125 106 11 0 11 -6 3 -27z m-505 -230 c-4 -197 -17 -278 -51 -315 -10 -11 -49 -36 -88 -55 -38 -19 -85 -46 -104 -59 -64 -45 -65 -33 -11 72 22 43 40 92 40 109 0 17 9 48 20 70 11 22 27 69 34 105 8 36 23 94 33 129 16 59 21 66 50 73 18 5 40 19 50 33 10 13 21 25 24 25 4 0 5 -84 3 -187z m422 -140 c-12 -44 -19 -192 -17 -343 l2 -165 -38 -45 c-21 -25 -41 -46 -45 -48 -4 -2 -26 -16 -50 -32 -24 -17 -51 -30 -61 -30 -24 0 -197 59 -224 78 -30 19 -29 46 3 129 14 37 33 95 41 128 25 100 32 112 91 152 32 21 70 48 85 60 37 30 53 29 61 -2 4 -14 12 -25 20 -25 14 0 26 21 51 91 16 44 41 67 73 68 8 1 11 -6 8 -16z m-508 -360 c-9 -21 -21 -57 -28 -79 -20 -68 -23 -70 -69 -49 -23 10 -41 22 -41 27 0 5 -12 13 -26 18 -26 10 -25 30 2 30 8 0 14 4 14 8 0 5 16 17 36 28 91 49 119 62 123 58 2 -2 -3 -21 -11 -41z m117 -293 c28 -15 63 -35 79 -46 l30 -19 -40 -12 c-49 -15 -149 -16 -175 -3 -21 12 -19 40 7 92 16 30 19 30 99 -12z m393 -48 c3 -21 0 -23 -34 -20 -44 4 -54 20 -22 36 33 16 53 10 56 -16z" />
<ns0:path d="M1040 781 c-19 -3 -50 -15 -68 -26 -27 -16 -32 -25 -30 -50 2 -22 11 -34 32 -44 26 -12 33 -11 70 9 81 45 120 99 80 114 -17 7 -32 6 -84 -3z" />
<ns0:path d="M207 1522 c-24 -26 -21 -59 8 -94 33 -39 48 -97 49 -195 1 -88 12 -104 41 -60 53 82 59 317 9 354 -26 19 -88 16 -107 -5z" />
<ns0:path d="M305 871 c-22 -10 -58 -23 -80 -30 -82 -25 -96 -34 -115 -71 -18 -36 -18 -38 -1 -54 9 -9 32 -19 50 -22 28 -6 37 -2 65 27 18 19 58 52 88 74 59 42 82 70 73 85 -9 15 -35 12 -80 -9z" />
<ns0:path d="M310 529 c-23 -25 -54 -47 -90 -60 -66 -25 -90 -45 -90 -75 0 -25 26 -44 60 -44 36 0 93 36 143 89 46 49 56 77 41 115 -10 25 -26 18 -64 -25z" />
</ns0:g>
</g><g transform="translate(-1.6949725070772388,276.55763669469815) scale(0.03057681932135041)"><ns0:metadata>
Created by potrace 1.16, written by Peter Selinger 2001-2019
</ns0:metadata>
<ns0:g transform="translate(0.000000,209.000000) scale(0.100000,-0.100000)" fill="#000000" stroke="none">
<ns0:path d="M1402 1891 c-41 -31 -45 -40 -57 -137 -5 -41 -13 -58 -38 -81 -46 -41 -179 -132 -240 -163 -31 -16 -97 -84 -97 -101 0 -15 50 -59 67 -59 8 0 34 16 57 35 24 19 46 35 51 35 4 0 17 9 29 19 80 72 106 91 127 93 24 3 24 2 24 -81 l0 -83 -57 -52 c-32 -29 -95 -72 -140 -96 -110 -57 -147 -86 -146 -113 3 -50 76 -87 102 -51 7 9 27 24 43 33 44 23 135 86 168 117 35 32 45 20 45 -57 0 -54 -1 -56 -39 -81 -22 -14 -57 -32 -78 -38 -21 -7 -51 -22 -68 -34 -16 -11 -56 -34 -88 -51 -32 -16 -70 -41 -84 -54 -15 -12 -49 -30 -77 -38 -28 -8 -57 -20 -64 -25 -7 -6 -15 -8 -18 -5 -9 8 16 146 27 153 5 3 9 21 9 39 0 23 9 45 28 67 45 54 54 76 42 99 -9 16 -17 19 -41 14 -32 -7 -38 1 -14 19 9 7 20 40 26 81 6 39 16 80 22 93 14 29 0 56 -32 60 -21 3 -22 7 -17 55 18 157 18 201 -3 235 -23 35 -45 40 -79 16 -19 -13 -22 -24 -22 -77 0 -34 -3 -106 -7 -160 -6 -94 -7 -99 -33 -112 -15 -8 -38 -16 -51 -19 -13 -2 -39 -8 -56 -12 -31 -6 -33 -5 -33 19 0 14 4 29 10 32 6 3 10 15 10 25 0 10 7 23 16 28 19 10 43 76 44 118 0 34 -26 64 -56 64 -47 -1 -94 -54 -94 -106 0 -12 -4 -25 -9 -28 -4 -3 -14 -47 -20 -98 -7 -51 -28 -172 -46 -268 -18 -96 -39 -208 -46 -248 -11 -65 -17 -79 -56 -119 -46 -50 -55 -87 -25 -109 16 -12 16 -14 0 -46 -10 -18 -37 -77 -62 -130 -43 -94 -102 -184 -144 -221 -15 -14 -29 -17 -51 -12 -38 8 -43 -15 -9 -39 37 -26 82 -20 119 15 19 18 44 38 56 46 45 30 144 202 197 344 14 36 34 59 97 110 44 35 107 86 140 112 66 53 64 55 49 -58 -39 -291 -55 -535 -34 -542 6 -2 27 37 47 89 35 89 42 118 51 198 18 166 22 179 53 159 17 -10 29 -8 76 15 31 14 63 26 71 26 8 0 38 19 65 42 80 68 284 189 297 176 3 -3 6 -79 7 -167 l2 -162 -25 -19 c-33 -25 -170 -77 -260 -98 -45 -10 -75 -23 -81 -34 -9 -18 -2 -67 10 -69 49 -6 119 -41 161 -82 41 -39 123 -141 150 -185 11 -17 32 -38 48 -46 27 -14 31 -14 45 2 15 17 19 56 33 267 3 50 9 131 14 180 6 50 10 144 10 210 0 182 14 287 41 305 12 8 47 41 79 73 31 31 62 57 68 57 16 0 27 50 15 68 -16 27 -28 24 -76 -15 -56 -47 -115 -79 -125 -69 -16 17 -4 98 19 122 18 19 20 26 10 38 -10 12 -4 23 33 60 52 51 61 86 21 86 -30 0 -76 -22 -94 -44 -26 -31 -32 -16 -26 57 8 98 37 172 89 227 77 82 122 170 86 170 -4 0 -34 -21 -66 -47 -50 -41 -56 -44 -50 -22 4 13 9 39 13 57 5 29 3 32 -19 32 -14 0 -43 -13 -66 -29z m-646 -678 c-9 -113 -22 -160 -47 -174 -11 -6 -45 -31 -74 -57 -146 -127 -149 -126 -115 33 11 50 25 117 31 149 12 70 15 76 38 76 9 0 23 6 29 13 14 13 97 44 126 46 18 1 18 -5 12 -86z m575 -739 c-6 -32 -11 -84 -11 -116 0 -32 -3 -58 -7 -58 -5 0 -28 21 -53 46 -25 25 -57 52 -72 60 -32 16 -37 42 -10 51 9 3 35 18 57 33 107 72 114 70 96 -16z" />
</ns0:g>
</g><g transform="translate(1.056804036378253,371.95133985600273) scale(0.03057681932135041)"><ns0:metadata>
Created by potrace 1.16, written by Peter Selinger 2001-2019
</ns0:metadata>
<ns0:g transform="translate(0.000000,208.000000) scale(0.100000,-0.100000)" fill="#000000" stroke="none">
<ns0:path d="M1092 1836 c-11 -15 -22 -49 -25 -86 -9 -77 -18 -95 -67 -120 -55 -28 -67 -26 -80 18 -9 34 -8 39 17 60 16 13 47 32 71 42 77 35 34 59 -51 28 -26 -9 -71 -21 -99 -28 -28 -6 -58 -15 -65 -22 -18 -14 -17 -53 2 -68 8 -7 15 -19 15 -27 0 -7 7 -25 16 -38 19 -29 13 -40 -23 -50 -15 -3 -50 -17 -78 -29 -27 -13 -70 -32 -95 -44 -145 -65 -142 -156 5 -150 55 3 60 5 58 25 -3 23 31 49 120 90 l47 22 20 -39 c11 -22 24 -40 29 -40 29 0 41 16 47 61 8 57 20 76 56 84 32 8 35 1 43 -114 6 -93 9 -101 34 -101 25 0 48 66 56 155 3 39 8 79 10 91 4 19 93 86 170 127 17 9 48 32 70 50 37 32 39 36 27 61 -6 14 -18 26 -27 26 -17 0 -66 -25 -112 -57 -17 -13 -34 -23 -38 -23 -4 0 -18 -9 -32 -20 -34 -27 -44 -18 -42 40 2 52 -20 100 -46 100 -7 0 -22 -11 -33 -24z" />
<ns0:path d="M733 1128 c-30 -65 -34 -89 -34 -209 0 -145 0 -145 -77 -179 -25 -11 -53 -27 -62 -34 -26 -22 -190 -76 -232 -76 l-40 0 33 38 c19 22 41 48 50 59 10 12 25 26 35 31 15 9 16 13 7 23 -10 10 -16 9 -30 -3 -10 -9 -36 -22 -58 -29 -22 -7 -52 -21 -66 -31 -15 -10 -49 -27 -75 -38 -54 -23 -64 -34 -64 -68 0 -18 11 -28 56 -49 49 -22 66 -25 135 -21 43 3 84 9 91 15 7 5 28 15 46 21 17 6 56 26 85 45 122 79 158 99 164 93 4 -4 -1 -32 -11 -64 -9 -31 -25 -82 -34 -112 -18 -59 -27 -80 -56 -123 -15 -22 -17 -32 -8 -52 13 -27 74 -44 95 -27 16 13 84 36 157 52 30 7 78 18 105 26 28 7 88 20 133 28 46 9 88 19 93 22 6 3 24 7 42 10 98 11 133 17 143 25 6 5 40 9 75 10 35 1 81 4 103 6 l39 5 -7 60 c-3 33 -12 72 -20 86 -8 15 -25 54 -38 87 -27 71 -80 129 -125 139 -40 9 -44 -9 -12 -60 25 -41 80 -195 73 -206 -3 -4 -14 -8 -25 -8 -11 0 -28 -4 -38 -10 -18 -9 -95 -25 -178 -36 -23 -3 -84 -14 -135 -25 -51 -11 -117 -25 -147 -30 -29 -5 -61 -14 -70 -18 -25 -13 -98 -23 -104 -14 -2 4 4 33 14 63 32 99 40 178 35 365 -3 99 -6 191 -8 205 -4 34 -40 39 -55 8z" />
<ns0:path d="M1536 1107 c7 -21 -32 -104 -55 -117 -50 -26 2 -107 76 -117 72 -10 133 43 81 68 -10 5 -26 13 -35 18 -15 7 -17 19 -15 65 3 44 0 62 -14 77 -19 22 -46 26 -38 6z" />
<ns0:path d="M1020 1013 c-72 -12 -101 -25 -112 -49 -16 -35 21 -74 72 -74 20 0 62 -7 94 -15 32 -9 67 -13 77 -10 33 11 23 50 -22 86 -34 27 -38 34 -25 41 41 23 -5 35 -84 21z" />
</ns0:g>
</g><g transform="translate(-0.3126667345958367,454.8050702579977) scale(0.03057681932135041)"><ns0:metadata>
Created by potrace 1.16, written by Peter Selinger 2001-2019
</ns0:metadata>
<ns0:g transform="translate(0.000000,211.000000) scale(0.100000,-0.100000)" fill="#000000" stroke="none">
<ns0:path d="M1520 1927 c-23 -12 -25 -18 -24 -77 1 -36 4 -112 8 -170 11 -174 17 -364 12 -386 -4 -15 -41 -39 -133 -85 -71 -35 -151 -78 -180 -96 -29 -18 -57 -33 -63 -33 -6 0 -10 26 -10 63 0 51 6 75 36 137 20 41 47 98 61 126 19 42 24 65 22 120 -3 95 -26 162 -61 180 -54 28 -96 -26 -64 -83 32 -59 58 -152 52 -185 -7 -40 -52 -73 -123 -93 -26 -7 -70 -23 -96 -35 -27 -12 -50 -20 -53 -18 -2 3 -6 22 -9 45 -3 22 -13 66 -23 99 -16 53 -21 59 -45 59 -15 -1 -27 0 -27 1 0 1 7 15 15 30 22 43 20 91 -5 99 -35 11 -60 -5 -81 -53 -12 -26 -25 -49 -28 -52 -9 -7 -55 -114 -71 -165 -19 -59 -71 -161 -118 -233 -37 -58 -70 -90 -132 -132 -12 -8 -40 -27 -61 -43 -22 -15 -58 -35 -82 -44 -23 -9 -49 -21 -57 -28 -8 -6 -31 -18 -50 -25 -97 -38 -139 -109 -85 -144 30 -20 49 -20 65 -1 13 15 167 108 225 136 28 13 67 39 198 134 23 17 69 44 102 60 33 17 66 36 73 42 7 7 16 13 19 13 7 0 -3 -77 -19 -147 -11 -46 -15 -52 -34 -47 -29 8 -93 -71 -140 -172 -52 -112 -190 -294 -222 -294 -15 0 -26 -40 -14 -52 6 -6 22 -8 35 -4 31 7 169 153 204 215 45 80 73 121 82 121 5 0 15 -16 21 -35 10 -29 8 -45 -8 -98 -11 -34 -30 -95 -42 -136 -12 -41 -28 -85 -37 -97 -34 -53 24 -75 69 -26 36 38 80 143 122 289 20 71 55 89 188 97 89 6 121 12 160 32 83 42 54 71 -53 51 -80 -14 -95 -1 -48 43 19 17 48 39 64 47 17 9 57 39 90 67 75 65 178 132 297 195 44 23 59 27 67 17 11 -13 -11 -230 -28 -291 -10 -33 -22 -169 -27 -310 -8 -221 -17 -310 -35 -347 -34 -67 -23 -88 47 -88 24 0 38 6 49 24 19 28 40 218 50 431 6 135 28 346 40 377 3 8 10 61 15 119 15 181 21 192 125 239 28 12 54 29 58 36 4 8 18 14 31 14 29 0 61 24 52 38 -4 7 -18 12 -31 12 -30 0 -172 -46 -202 -66 l-23 -14 -1 87 c-5 384 -6 409 -23 461 -9 28 -21 52 -26 52 -4 0 -14 2 -22 5 -7 3 -24 -1 -38 -8z m-745 -347 c-3 -5 -11 -10 -16 -10 -6 0 -7 5 -4 10 3 6 11 10 16 10 6 0 7 -4 4 -10z m-11 -267 c-5 -73 -10 -91 -28 -106 -23 -20 -67 -40 -73 -34 -2 2 10 31 25 63 16 32 37 83 48 112 10 28 22 52 26 52 4 0 5 -39 2 -87z m266 -84 c-5 -17 -6 -59 -3 -94 7 -72 -5 -110 -46 -153 -42 -45 -181 -143 -181 -129 0 41 40 197 59 227 11 19 21 47 21 62 0 23 12 35 67 73 82 54 95 57 83 14z m-800 -385 c-8 -8 -22 -20 -32 -25 -15 -8 -18 -6 -18 10 0 18 14 27 49 30 11 1 11 -2 1 -15z m451 -21 c-4 -15 -13 -29 -20 -31 -9 -3 -11 1 -7 9 3 8 9 22 12 32 10 28 23 20 15 -10z" />
</ns0:g>
</g><g transform="translate(1.6863094111108694,537.7411135305009) scale(0.03057681932135041)"><ns0:metadata>
Created by potrace 1.16, written by Peter Selinger 2001-2019
</ns0:metadata>
<ns0:g transform="translate(0.000000,214.000000) scale(0.100000,-0.100000)" fill="#000000" stroke="none">
<ns0:path d="M2236 1167 c1 -534 -1 -980 -3 -989 -8 -33 -133 -16 -314 42 -51 17 -101 30 -111 30 -30 0 -141 40 -161 58 -18 17 -123 78 -182 107 -16 8 -41 23 -54 33 l-24 19 37 99 c21 54 44 113 51 129 14 28 68 158 121 289 13 33 30 66 37 75 34 40 122 197 124 220 1 14 -1 41 -3 59 -4 26 -10 32 -28 32 -13 0 -29 -7 -36 -15 -7 -8 -18 -15 -26 -15 -7 0 -19 -9 -26 -19 -8 -11 -47 -39 -88 -62 -41 -24 -77 -46 -80 -49 -6 -7 -100 -60 -107 -60 -2 0 -3 69 -3 153 2 154 5 181 43 344 5 20 37 52 121 123 42 36 96 93 96 101 0 12 -30 39 -44 39 -7 0 -27 -12 -44 -27 -34 -32 -99 -73 -113 -73 -17 0 -9 18 16 34 27 17 33 50 13 62 -21 13 -71 4 -93 -16 -12 -11 -26 -20 -33 -20 -20 0 -32 -37 -32 -103 0 -60 -2 -67 -29 -90 -36 -30 -66 -88 -75 -145 l-6 -42 39 6 c38 6 40 5 48 -22 4 -16 7 -112 8 -212 l0 -184 -25 -19 c-24 -19 -56 -46 -143 -120 -65 -55 -85 -119 -48 -153 29 -27 61 -16 83 26 21 41 91 98 119 98 10 0 42 27 71 61 44 51 171 149 192 149 11 0 7 -20 -13 -63 -11 -24 -23 -56 -27 -72 -4 -17 -12 -37 -19 -45 -7 -8 -18 -33 -24 -55 -7 -22 -19 -53 -26 -70 -51 -112 -69 -153 -81 -194 -7 -26 -20 -55 -28 -66 -15 -19 -17 -19 -61 28 -50 52 -86 61 -125 29 -30 -24 -22 -55 25 -112 23 -28 34 -49 29 -59 -11 -29 -9 -46 6 -46 9 0 15 9 14 23 0 15 5 22 18 22 11 0 18 -7 18 -19 0 -31 -56 -145 -78 -158 -28 -17 -37 -61 -16 -84 9 -11 21 -19 26 -19 19 0 99 90 117 133 33 76 42 76 185 5 69 -35 149 -75 178 -90 65 -34 108 -47 173 -55 28 -3 58 -9 67 -14 34 -18 212 -49 279 -49 l69 0 0 -45 0 -45 39 0 c39 0 40 1 46 44 8 52 16 56 128 56 l77 0 0 31 c0 30 -1 31 -47 29 -27 -2 -74 -2 -106 -1 l-58 1 5 608 c3 334 5 762 4 952 0 190 0 362 1 383 l1 37 -42 0 -43 0 1 -973z" />
<ns0:path d="M840 1825 l-23 -25 16 -97 c9 -54 18 -118 19 -143 3 -42 1 -46 -32 -62 -45 -23 -127 -58 -135 -58 -3 0 -19 -10 -35 -22 -23 -16 -30 -30 -30 -54 0 -80 121 -88 194 -13 38 39 56 38 56 -4 0 -18 5 -59 11 -91 13 -72 5 -113 -24 -122 -12 -3 -33 -17 -47 -29 -14 -13 -50 -35 -80 -50 -30 -16 -80 -52 -110 -81 -30 -28 -64 -55 -75 -58 -27 -8 -56 -77 -42 -102 5 -11 11 -20 12 -22 2 -2 20 -5 40 -7 41 -4 97 26 113 61 5 11 25 32 43 48 19 15 61 49 94 76 33 28 65 50 72 50 20 0 26 -108 14 -240 -12 -124 -47 -300 -59 -300 -12 0 -47 64 -49 90 -1 14 -7 43 -12 66 -6 22 -10 75 -9 117 2 92 -13 119 -36 63 -58 -139 -36 -324 55 -448 38 -52 46 -59 73 -56 29 3 32 8 59 88 59 180 73 262 88 500 15 243 16 249 60 292 21 20 45 51 54 68 15 29 15 32 -4 56 -19 24 -20 24 -30 5 -10 -17 -70 -61 -84 -61 -4 0 -6 12 -6 28 1 15 0 68 -1 117 -1 87 0 91 27 112 84 67 134 125 124 141 -8 14 -16 10 -144 -60 -18 -10 -35 -14 -40 -9 -14 14 3 171 19 171 38 0 25 42 -22 70 -47 27 -85 26 -114 -5z" />
</ns0:g>
</g><g transform="translate(2.5645197878347403,635.5460384320314) scale(0.03057681932135041)"><ns0:metadata>
Created by potrace 1.16, written by Peter Selinger 2001-2019
</ns0:metadata>
<ns0:g transform="translate(0.000000,208.000000) scale(0.100000,-0.100000)" fill="#000000" stroke="none">
<ns0:path d="M1363 2056 c-26 -22 -151 -100 -246 -155 -23 -13 -67 -40 -97 -59 -80 -53 -137 -82 -144 -75 -3 4 -6 30 -6 59 0 56 -14 100 -35 108 -7 2 -23 -1 -36 -8 -22 -11 -24 -18 -25 -91 -2 -137 -3 -139 -129 -217 -27 -17 -83 -48 -123 -69 -66 -35 -127 -76 -160 -106 -7 -7 -18 -13 -23 -13 -5 0 -9 -8 -9 -18 0 -10 -7 -27 -15 -38 -8 -10 -15 -26 -15 -34 0 -21 55 -80 74 -80 9 0 32 26 52 58 20 31 53 70 74 85 55 39 162 98 168 93 7 -8 -12 -54 -84 -201 -34 -71 -77 -165 -95 -207 -22 -52 -43 -86 -66 -104 -18 -14 -33 -30 -33 -35 0 -4 -26 -34 -57 -66 -148 -149 -211 -272 -154 -303 29 -15 34 -13 80 23 39 31 64 62 148 187 117 173 204 273 221 256 5 -5 -17 -296 -24 -307 -2 -3 -8 -37 -14 -75 -6 -38 -20 -88 -32 -112 -23 -48 -16 -65 22 -54 62 18 93 64 109 162 22 143 40 285 44 360 6 99 -9 130 -65 130 -40 0 -36 24 21 132 27 51 64 134 81 184 36 103 85 163 166 203 43 21 114 71 152 108 7 7 18 13 23 13 10 0 70 42 97 68 7 6 19 12 26 12 7 0 23 12 37 26 13 14 37 32 52 40 15 9 46 32 68 54 35 34 38 41 29 64 -12 32 -21 32 -57 2z" />
<ns0:path d="M1372 1773 c-158 -153 -227 -214 -278 -246 -24 -15 -44 -31 -44 -35 0 -4 -40 -42 -89 -83 -126 -104 -159 -178 -93 -209 23 -10 29 -9 45 12 50 63 241 248 255 248 14 0 82 72 82 87 0 7 6 13 13 13 8 0 19 10 26 23 11 21 70 62 78 54 2 -2 -3 -33 -11 -68 -24 -104 -49 -432 -42 -540 8 -111 14 -101 -96 -157 -41 -22 -97 -54 -122 -72 -51 -34 -64 -35 -46 -1 6 12 13 50 17 85 5 60 4 66 -22 91 -25 26 -31 27 -90 22 -69 -7 -139 -36 -149 -62 -15 -39 -6 -61 29 -78 46 -22 52 -22 87 8 38 32 62 33 52 3 -10 -34 -77 -138 -126 -198 -33 -41 -35 -63 -8 -90 20 -20 80 -28 80 -10 0 5 17 18 39 29 l38 20 81 -78 c55 -52 97 -84 129 -96 44 -17 126 -58 171 -86 28 -17 51 -5 68 37 14 33 14 59 -2 263 -18 247 -23 540 -12 696 13 176 38 286 94 416 36 84 30 109 -25 109 -10 0 -68 -48 -129 -107z m-48 -990 c4 -43 12 -122 18 -176 13 -121 9 -128 -59 -100 -26 11 -60 23 -74 27 -15 3 -54 26 -87 50 l-61 45 26 46 c14 26 33 49 42 53 9 3 52 34 96 69 44 34 83 63 87 63 3 0 9 -35 12 -77z" />
</ns0:g>
</g><g transform="translate(-2.9777549881048344,714.5167912985547) scale(0.03057681932135041)"><ns0:metadata>
Created by potrace 1.16, written by Peter Selinger 2001-2019
</ns0:metadata>
<ns0:g transform="translate(0.000000,210.000000) scale(0.100000,-0.100000)" fill="#000000" stroke="none">
<ns0:path d="M1165 1844 c-45 -38 -227 -154 -240 -154 -7 0 -18 -7 -25 -15 -7 -8 -20 -15 -29 -15 -10 0 -28 -11 -41 -25 -13 -14 -31 -25 -40 -25 -8 0 -26 -7 -38 -16 -21 -14 -22 -23 -22 -137 0 -167 -27 -323 -95 -562 -47 -161 -46 -157 -23 -163 22 -5 22 -16 -1 -122 -13 -60 -13 -175 0 -225 6 -22 12 -59 12 -83 2 -46 23 -72 59 -72 17 0 92 73 311 304 84 89 95 97 105 80 7 -13 22 -19 49 -20 21 0 88 -22 148 -47 61 -26 117 -47 126 -47 9 0 22 -7 29 -15 7 -8 24 -21 39 -28 14 -7 35 -18 46 -24 167 -85 226 -113 239 -113 73 0 116 94 56 125 -17 9 -30 11 -30 5 0 -5 -6 -10 -13 -10 -13 0 -261 124 -282 140 -6 5 -33 17 -60 28 -86 34 -164 72 -170 83 -4 5 13 31 37 58 130 142 185 241 144 257 -15 6 -55 -29 -56 -50 0 -11 -115 -126 -125 -126 -4 0 -5 7 -2 15 12 29 -13 25 -50 -8 -21 -18 -52 -43 -69 -55 l-31 -21 -52 24 c-62 30 -94 32 -121 5 -29 -29 -25 -52 16 -88 l36 -32 -44 -48 c-119 -125 -216 -212 -236 -212 -31 0 -15 230 23 328 7 20 30 79 49 129 20 51 36 103 36 116 0 16 9 28 28 38 15 7 47 30 72 50 25 20 59 42 77 48 18 7 39 24 48 37 24 36 47 32 41 -8 -3 -18 -8 -82 -11 -142 -4 -59 -9 -114 -12 -122 -3 -9 2 -14 16 -14 16 0 29 17 57 73 34 67 37 81 45 202 5 72 11 207 15 300 4 127 11 184 25 227 10 32 19 84 19 116 0 85 -28 104 -85 56z m-61 -311 c-1 -82 -3 -179 -3 -216 -1 -55 -4 -69 -18 -73 -22 -7 -114 -52 -203 -99 -36 -19 -69 -34 -74 -35 -10 0 0 61 16 96 6 13 38 46 72 75 66 55 85 81 86 117 0 30 -21 28 -80 -5 -27 -15 -52 -24 -56 -21 -3 4 -3 34 1 68 6 51 12 66 39 90 17 17 45 37 63 45 18 9 36 21 40 28 10 16 94 76 108 77 7 0 10 -53 9 -147z m116 -767 c0 -3 -4 -8 -10 -11 -5 -3 -10 -1 -10 4 0 6 5 11 10 11 6 0 10 -2 10 -4z" />
<ns0:path d="M410 1740 c-12 -12 -20 -33 -20 -54 0 -19 -5 -47 -10 -62 -6 -14 -15 -70 -21 -123 -6 -53 -15 -134 -20 -181 -5 -47 -11 -123 -13 -170 -9 -184 -22 -240 -56 -240 -21 0 -21 -42 0 -65 21 -22 21 -25 10 -191 -15 -241 -33 -370 -53 -392 -18 -20 -22 -68 -8 -91 14 -21 61 -16 86 10 26 28 48 131 64 304 6 61 16 164 22 230 7 66 13 131 14 145 1 14 3 28 4 32 0 3 37 51 81 105 93 113 131 184 136 250 4 48 -15 93 -39 93 -36 1 -38 17 -8 63 43 63 61 119 61 189 0 67 -7 77 -98 134 -61 39 -103 43 -132 14z m136 -181 c-8 -52 -43 -123 -69 -138 -20 -13 -20 -12 -14 50 4 35 17 83 29 106 19 36 25 40 41 31 16 -8 18 -17 13 -49z m-26 -328 c0 -10 -8 -29 -19 -42 -10 -13 -26 -39 -35 -56 -22 -43 -36 -42 -36 2 0 26 9 45 36 75 40 44 54 50 54 21z" />
</ns0:g>
</g><g transform="translate(-1.885527244142395,804.9104321262027) scale(0.03057681932135041)"><ns0:metadata>
Created by potrace 1.16, written by Peter Selinger 2001-2019
</ns0:metadata>
<ns0:g transform="translate(0.000000,207.000000) scale(0.100000,-0.100000)" fill="#000000" stroke="none">
<ns0:path d="M1005 1928 c-21 -24 -57 -83 -82 -133 -24 -49 -57 -115 -74 -145 -17 -30 -58 -113 -91 -185 -33 -71 -77 -155 -96 -185 -38 -59 -112 -200 -112 -213 0 -5 -11 -23 -25 -41 -14 -18 -25 -37 -25 -43 0 -6 -20 -41 -45 -79 -25 -37 -45 -72 -45 -77 0 -4 -12 -33 -27 -63 -25 -51 -26 -56 -10 -72 20 -19 43 -10 61 24 24 45 81 133 117 180 21 28 68 107 103 177 35 69 78 145 94 169 16 24 48 81 71 128 24 47 51 99 61 115 10 17 21 40 24 52 9 28 69 129 94 157 11 12 36 49 56 84 21 34 50 69 66 77 53 27 40 80 -26 105 -41 16 -50 12 -89 -32z" />
<ns0:path d="M1188 1549 c-21 -11 -25 -79 -6 -79 6 0 19 -6 27 -14 9 -8 41 -24 71 -36 30 -12 65 -31 76 -42 27 -24 77 -21 82 5 4 18 -18 42 -125 140 -43 39 -88 48 -125 26z" />
<ns0:path d="M1040 1183 c-8 -2 -24 -8 -35 -13 -11 -5 -32 -11 -46 -14 -25 -5 -26 -8 -32 -105 -12 -179 -73 -380 -151 -496 -100 -149 -130 -187 -181 -231 -50 -44 -53 -48 -43 -75 6 -16 23 -36 38 -44 31 -16 37 -12 119 63 35 32 117 77 178 97 29 9 55 21 58 26 4 5 17 9 30 9 13 0 27 5 30 10 3 6 17 10 29 10 13 0 29 6 36 14 6 8 17 13 25 10 7 -3 27 2 44 10 16 9 37 16 46 16 9 0 44 13 78 29 54 25 113 45 140 46 4 0 18 -29 31 -65 38 -109 55 -142 68 -138 23 8 29 115 13 213 -8 50 -17 137 -19 194 -3 57 -6 104 -8 105 -68 48 -108 54 -142 21 -15 -15 -13 -59 3 -80 9 -11 41 -136 41 -158 0 -9 -16 -16 -45 -20 -25 -4 -63 -16 -85 -27 -21 -11 -47 -20 -57 -20 -16 0 -128 -32 -281 -81 -35 -11 -66 -18 -69 -15 -3 3 13 33 36 68 22 35 41 70 41 78 0 8 7 28 15 43 8 16 29 94 46 175 17 81 35 155 40 164 5 10 9 30 9 44 0 14 11 39 25 56 27 32 32 57 13 76 -13 13 -15 13 -38 5z" />
</ns0:g>
</g><g transform="translate(-2.3530691624079623,898.594740533656) scale(0.03057681932135041)"><ns0:metadata>
Created by potrace 1.16, written by Peter Selinger 2001-2019
</ns0:metadata>
<ns0:g transform="translate(0.000000,209.000000) scale(0.100000,-0.100000)" fill="#000000" stroke="none">
<ns0:path d="M1384 2047 c-56 -46 -134 -112 -197 -167 -43 -37 -166 -117 -232 -150 -22 -11 -65 -24 -95 -30 -87 -17 -144 -49 -148 -83 -2 -16 4 -40 13 -54 16 -23 22 -25 64 -20 43 5 121 38 237 100 64 35 123 80 204 157 41 40 91 84 110 100 l35 28 -1 -277 c-1 -289 -6 -387 -29 -586 -8 -66 -19 -199 -25 -295 -7 -96 -16 -183 -22 -194 -8 -14 -17 -17 -44 -13 -20 4 -46 0 -64 -10 -20 -9 -58 -15 -106 -15 -63 1 -75 -2 -72 -15 2 -9 15 -25 30 -36 23 -17 44 -20 187 -22 l161 -2 0 39 c0 25 5 38 13 38 10 0 13 13 10 53 -4 53 15 306 43 567 8 80 17 249 18 375 3 182 7 238 19 270 9 22 16 57 17 77 0 26 10 50 35 82 19 26 35 51 35 56 0 6 11 20 25 32 14 12 25 25 25 30 0 13 -47 9 -53 -5 -7 -19 -86 -71 -95 -62 -4 4 -1 10 7 13 7 2 28 17 45 33 l31 28 -65 0 c-61 0 -68 -3 -116 -42z" />
<ns0:path d="M1095 1559 c-38 -16 -81 -36 -95 -44 -14 -8 -58 -31 -99 -52 -92 -45 -183 -129 -183 -167 0 -55 50 -77 113 -49 27 12 42 25 46 43 7 29 52 79 71 80 7 0 23 11 35 24 13 14 75 52 138 84 119 63 146 92 97 106 -37 9 -49 7 -123 -25z" />
<ns0:path d="M1079 1278 c-39 -44 -39 -68 3 -68 49 0 117 -37 125 -68 5 -22 -1 -32 -38 -64 -61 -53 -152 -95 -221 -101 -56 -5 -57 -5 -67 26 -23 64 -70 86 -104 49 -20 -22 -21 -36 -4 -82 21 -59 45 -96 71 -114 27 -17 76 -22 76 -6 0 5 17 16 38 26 106 46 149 69 168 88 12 11 47 34 78 49 65 33 92 64 100 115 10 63 -5 93 -70 139 -76 53 -113 56 -155 11z" />
</ns0:g>
</g></svg>