<?xml version='1.0' encoding='utf-8'?>
<svg xmlns:ns0="http://www.w3.org/2000/svg" xmlns="http://www.w3.org/2000/svg" width="249" height="109" viewBox="0 0 249 109"><g transform="translate(0.4281084598599705,-101.42369661749566) scale(0.0460041892903181)"><ns0:metadata>
Created by potrace 1.16, written by Peter Selinger 2001-2019
</ns0:metadata>
<ns0:g transform="translate(0.000000,204.000000) scale(0.100000,-0.100000)" fill="#000000" stroke="none">
<ns0:path d="M1383 1775 c-85 -37 -361 -282 -412 -366 -28 -45 -26 -97 3 -132 32 -39 58 -33 68 16 9 46 27 74 92 152 77 92 177 185 198 185 8 0 9 -56 4 -177 -8 -188 -8 -189 -25 -298 -7 -38 -16 -118 -21 -178 -5 -59 -13 -122 -18 -140 -5 -17 -15 -59 -22 -92 -7 -33 -14 -66 -16 -73 -6 -21 -24 -3 -43 42 -10 22 -28 62 -39 87 -54 117 -62 148 -61 230 1 63 -3 84 -17 100 -20 22 -80 25 -106 5 -21 -16 -23 -49 -5 -68 20 -20 20 -259 0 -323 -26 -84 -112 -220 -128 -203 -5 4 30 292 40 336 3 12 8 73 11 135 3 62 9 131 15 154 5 23 6 69 2 103 -5 51 -10 64 -28 72 -28 12 -73 -13 -80 -46 -3 -11 -7 -97 -9 -191 -4 -155 -17 -330 -32 -445 -3 -25 -7 -56 -9 -70 -1 -14 -8 -58 -16 -99 -16 -84 -23 -92 -112 -110 -38 -8 -61 -19 -67 -32 -26 -47 48 -108 94 -79 11 7 34 14 51 16 89 7 334 66 410 99 70 30 154 55 167 50 8 -3 31 7 51 23 40 32 133 58 237 67 36 2 91 7 122 11 55 6 58 5 94 -30 35 -34 37 -35 66 -20 24 13 29 20 27 52 -1 20 1 44 5 52 12 30 -29 58 -79 54 -197 -18 -405 -47 -442 -61 -14 -6 -16 2 -10 73 3 43 15 132 27 197 11 66 20 135 20 154 0 20 9 97 19 172 11 75 22 197 26 271 3 74 10 169 16 210 7 52 7 83 0 103 -12 30 -22 32 -68 12z m-254 -1070 c18 -44 41 -98 52 -121 10 -23 19 -44 19 -47 0 -3 -33 -21 -72 -40 -74 -35 -168 -65 -245 -77 l-42 -7 30 41 c61 85 109 155 109 160 0 3 19 33 43 68 24 35 47 76 51 92 9 36 14 30 55 -69z" />
<ns0:path d="M475 1610 c-14 -16 -18 -41 -21 -127 -8 -239 -50 -581 -94 -768 -42 -178 -50 -214 -67 -320 -28 -177 -21 -235 32 -235 37 0 59 33 51 80 -3 22 -2 59 4 83 5 23 19 94 30 157 31 167 71 330 82 330 10 0 78 49 89 63 13 17 55 70 85 105 36 42 85 168 87 224 2 49 -22 73 -70 73 -20 0 -38 5 -40 12 -2 6 11 29 30 50 42 47 71 128 62 177 -5 26 -15 38 -40 50 -18 9 -39 16 -47 16 -7 0 -34 11 -60 25 -57 30 -89 32 -113 5z m165 -149 c0 -21 -45 -80 -54 -71 -2 3 -2 24 1 48 5 36 9 42 29 42 17 0 24 -6 24 -19z m0 -320 c-11 -40 -27 -68 -74 -131 -23 -30 -44 -62 -48 -70 -4 -8 -5 14 -2 50 11 140 12 144 47 162 34 18 68 27 79 21 3 -2 3 -16 -2 -32z" />
</ns0:g>
</g><g transform="translate(2.9592918755949995,28.935224427700547) scale(0.0460041892903181)"><ns0:metadata>
Created by potrace 1.16, written by Peter Selinger 2001-2019
</ns0:metadata>
<ns0:g transform="translate(0.000000,214.000000) scale(0.100000,-0.100000)" fill="#000000" stroke="none">
<ns0:path d="M1117 1888 c-67 -92 -72 -106 -77 -235 l-5 -123 -55 -47 c-30 -26 -67 -60 -82 -75 -29 -31 -50 -35 -68 -13 -13 16 -6 81 12 102 5 7 7 21 4 31 -4 11 0 24 9 32 24 20 18 62 -15 98 -16 18 -30 37 -30 41 0 5 -12 11 -27 14 -37 7 -89 -43 -77 -76 4 -12 9 -79 11 -149 l4 -127 -30 -15 c-16 -9 -38 -16 -47 -16 -10 0 -36 -11 -58 -24 -23 -13 -72 -29 -111 -36 -94 -17 -92 -16 -110 -44 -22 -33 -12 -61 27 -80 29 -15 35 -14 102 10 38 14 75 29 81 34 5 4 36 23 69 40 68 38 79 32 73 -38 -6 -54 -19 -69 -120 -128 -85 -50 -138 -84 -147 -95 -3 -4 -22 -14 -43 -23 -21 -8 -58 -33 -81 -53 -24 -21 -56 -45 -72 -53 -34 -18 -91 -75 -99 -99 -7 -24 38 -71 69 -71 13 0 31 6 38 13 7 7 32 21 55 31 32 14 45 27 54 53 10 32 74 103 93 103 6 0 31 18 57 40 26 22 50 40 54 40 3 0 30 18 60 40 62 46 60 49 45 -70 -5 -41 -16 -133 -25 -205 -25 -219 -42 -318 -64 -375 -25 -65 -27 -98 -6 -107 23 -8 52 23 72 76 9 25 23 56 31 68 15 25 30 102 72 392 17 112 34 209 39 215 7 9 24 77 47 184 3 17 11 22 35 22 29 0 30 -1 24 -33 -4 -17 -17 -59 -30 -92 -22 -57 -31 -94 -55 -230 -5 -33 -17 -96 -26 -140 -8 -44 -18 -109 -20 -145 -3 -36 -12 -90 -21 -120 -27 -101 -67 -225 -80 -250 -11 -21 -11 -25 2 -28 17 -4 64 40 83 78 7 14 24 45 37 70 13 25 24 53 24 63 1 10 8 28 16 40 8 12 19 56 25 97 7 41 20 120 31 175 10 56 19 104 19 108 0 4 11 7 25 7 15 0 31 9 41 24 20 32 99 82 166 107 29 11 62 24 73 29 41 18 119 40 142 40 21 0 23 -5 23 -46 0 -48 -17 -122 -32 -139 -4 -5 -8 -16 -8 -25 0 -10 -13 -36 -30 -58 -16 -23 -30 -44 -30 -47 0 -4 -25 -48 -55 -99 -30 -51 -58 -102 -62 -112 -4 -11 -29 -53 -55 -94 -26 -41 -48 -82 -48 -91 0 -31 29 -87 60 -112 82 -69 287 -50 425 40 22 15 56 37 75 49 19 13 52 30 73 39 20 8 37 20 37 25 0 6 7 10 15 10 9 0 18 7 21 15 3 8 22 17 42 21 21 4 40 11 43 16 13 20 -1 113 -19 125 -63 44 -196 189 -272 297 -14 19 -30 36 -36 36 -15 0 -41 72 -50 135 -10 73 -19 90 -54 105 -55 23 -220 -13 -388 -84 -65 -28 -88 -27 -74 2 5 9 17 46 26 81 10 36 26 76 36 90 9 14 29 47 43 72 15 26 51 77 82 114 30 37 55 71 55 75 0 9 -25 20 -45 20 -15 0 -86 -57 -152 -123 -47 -45 -50 -45 -30 1 11 28 79 92 97 92 4 0 46 38 94 85 47 46 113 103 146 125 33 22 60 44 60 49 0 4 20 18 45 31 50 26 70 44 61 58 -7 12 -55 22 -61 12 -2 -4 -43 -26 -90 -50 -47 -23 -85 -46 -85 -50 0 -7 -92 -60 -104 -60 -3 0 -6 13 -6 30 0 43 38 137 71 175 47 53 35 95 -27 95 -26 0 -38 -7 -57 -32z m-176 -631 c-10 -9 -11 -8 -5 6 3 10 9 15 12 12 3 -3 0 -11 -7 -18z m-5 -194 c-10 -10 -19 5 -10 18 6 11 8 11 12 0 2 -7 1 -15 -2 -18z m567 -361 c25 -37 76 -102 114 -146 37 -43 72 -85 78 -92 16 -23 -6 -46 -80 -85 -38 -20 -78 -45 -89 -56 -28 -27 -48 -37 -135 -67 -81 -28 -121 -32 -170 -15 -20 7 -31 18 -31 31 0 23 39 104 80 168 32 49 34 53 50 90 6 14 19 39 30 55 11 17 26 44 34 62 8 18 25 55 37 82 13 27 26 48 30 45 4 -2 28 -35 52 -72z" />
</ns0:g>
</g><g transform="translate(-0.7257872017701175,153.1336716674686) scale(0.0460041892903181)"><ns0:metadata>
Created by potrace 1.16, written by Peter Selinger 2001-2019
</ns0:metadata>
<ns0:g transform="translate(0.000000,205.000000) scale(0.100000,-0.100000)" fill="#000000" stroke="none">
<ns0:path d="M653 1874 c-16 -7 -17 -46 -2 -61 21 -21 49 -223 42 -307 l-6 -78 -41 -20 c-73 -35 -84 -43 -126 -99 -48 -64 -56 -90 -41 -127 6 -15 10 -39 9 -52 -2 -14 2 -25 9 -25 10 0 63 68 63 82 0 14 61 80 90 97 l33 19 -7 -59 c-15 -121 -20 -132 -80 -149 -30 -9 -60 -22 -66 -30 -21 -25 -2 -69 45 -105 35 -27 44 -42 44 -65 1 -53 -23 -121 -54 -156 -30 -34 -46 -47 -117 -94 -45 -30 -48 -56 -12 -90 32 -29 37 -30 58 -9 9 8 23 14 32 12 13 -3 16 -28 17 -173 2 -153 4 -174 23 -210 21 -38 99 -105 124 -105 6 0 24 -7 40 -15 41 -21 127 -30 287 -29 97 0 161 6 200 17 32 8 89 21 126 27 38 7 106 28 150 47 45 20 98 41 117 48 33 12 35 16 40 72 6 58 -5 95 -46 163 -8 14 -20 37 -25 53 -6 15 -15 27 -20 27 -5 0 -13 8 -17 18 -15 37 -77 122 -87 119 -18 -6 -17 -46 4 -102 12 -31 21 -66 21 -78 0 -12 7 -35 16 -52 26 -48 42 -111 33 -127 -15 -27 -147 -79 -237 -94 -259 -43 -431 -44 -522 -2 -30 13 -70 41 -88 62 -29 33 -32 44 -34 104 -4 141 0 180 27 240 25 56 29 60 80 76 30 9 57 21 60 26 11 18 34 10 41 -12 8 -26 51 -86 74 -105 26 -21 55 -14 88 20 18 18 32 38 32 44 0 6 6 16 14 22 21 18 57 298 71 566 3 50 10 133 15 185 13 127 16 223 6 238 -8 14 -42 16 -50 3 -3 -4 -27 -16 -53 -26 -26 -10 -55 -24 -64 -31 -8 -8 -54 -29 -101 -48 l-85 -33 -5 137 c-5 127 -7 141 -34 191 -26 48 -33 54 -64 56 -19 1 -41 0 -47 -3z m107 -258 c0 -3 -4 -8 -10 -11 -5 -3 -10 -1 -10 4 0 6 5 11 10 11 6 0 10 -2 10 -4z m297 -153 c-8 -37 -25 -227 -40 -443 l-12 -175 -24 3 c-13 2 -50 -11 -83 -28 -32 -17 -65 -30 -71 -27 -7 3 -21 21 -32 41 l-20 36 25 48 c14 26 30 53 37 60 24 24 15 68 -18 96 -17 14 -34 26 -39 26 -18 0 -18 34 1 142 12 66 27 120 37 131 15 17 26 23 122 65 25 11 54 27 65 36 11 8 28 16 39 16 15 0 17 -5 13 -27z m-289 -690 c2 -15 -4 -23 -18 -28 -28 -9 -32 -3 -24 29 8 32 37 32 42 -1z m232 -13 c0 -22 -4 -48 -9 -58 -5 -9 -13 -35 -18 -56 -10 -51 -26 -55 -63 -18 -45 46 -41 81 14 116 25 15 47 34 50 42 11 28 26 13 26 -26z" />
<ns0:path d="M300 1234 c-15 -38 -12 -82 11 -149 39 -118 45 -160 48 -332 1 -40 5 -53 16 -53 20 0 35 31 52 109 17 77 17 122 3 246 -24 194 -29 205 -91 205 -22 0 -32 -6 -39 -26z" />
</ns0:g>
</g><g transform="translate(-2.571789445283798,286.08281002501803) scale(0.0460041892903181)"><ns0:metadata>
Created by potrace 1.16, written by Peter Selinger 2001-2019
</ns0:metadata>
<ns0:g transform="translate(0.000000,206.000000) scale(0.100000,-0.100000)" fill="#000000" stroke="none">
<ns0:path d="M1370 1926 c-30 -19 -113 -66 -185 -106 -71 -39 -139 -80 -150 -90 -11 -10 -36 -27 -56 -37 -59 -31 -166 -105 -176 -123 -20 -30 -24 -75 -10 -94 8 -10 31 -22 53 -25 31 -6 38 -11 36 -26 -2 -11 -6 -49 -10 -86 -6 -51 -21 -92 -69 -190 -34 -68 -76 -161 -93 -206 -17 -45 -39 -92 -49 -105 -10 -13 -22 -34 -26 -47 -4 -14 -16 -39 -26 -55 -27 -47 -89 -177 -89 -187 0 -14 -47 -105 -63 -120 -7 -8 -48 -84 -90 -169 -43 -85 -86 -167 -95 -182 -13 -22 -14 -30 -4 -40 17 -17 66 31 99 97 14 28 32 57 39 66 8 8 24 35 36 60 25 47 48 82 89 132 14 18 33 46 41 62 92 181 203 393 214 409 8 11 14 29 14 40 0 16 5 18 33 13 20 -3 40 0 52 9 27 20 35 18 35 -9 0 -43 -68 -352 -98 -442 -51 -156 -77 -201 -165 -281 -29 -26 -18 -66 23 -85 33 -16 36 -16 65 5 32 22 152 76 171 76 6 0 21 9 34 20 13 11 42 25 64 31 23 6 59 19 81 29 22 10 65 30 95 44 30 14 64 31 75 38 11 7 44 28 72 46 50 31 73 67 59 91 -9 14 -79 1 -93 -18 -7 -9 -13 -13 -13 -9 0 4 -30 -8 -67 -26 -90 -45 -126 -60 -203 -84 -36 -11 -82 -28 -104 -37 -21 -9 -40 -14 -43 -12 -2 3 9 40 26 83 36 97 67 211 76 284 4 30 12 66 17 80 5 14 14 52 19 85 6 33 16 83 24 110 8 28 17 61 19 75 4 16 24 37 58 59 65 43 118 97 118 122 0 26 -10 24 -81 -12 -33 -16 -72 -35 -86 -40 l-26 -10 6 76 c5 70 8 77 42 109 22 21 35 42 33 53 -3 16 -13 18 -71 15 -71 -3 -72 -2 -58 26 5 9 14 31 20 47 8 19 31 42 66 65 57 35 90 73 80 90 -9 15 -43 12 -70 -6 -23 -15 -25 -15 -25 -1 0 9 10 22 23 28 12 7 45 29 72 50 28 20 77 52 110 69 33 18 69 40 80 50 11 9 48 33 81 53 77 46 91 62 74 82 -21 25 -72 18 -130 -19z m-437 -799 c5 -34 3 -39 -25 -53 -16 -8 -32 -14 -34 -11 -2 2 8 27 22 56 14 29 26 52 28 50 2 -2 6 -21 9 -42z" />
<ns0:path d="M1125 783 c-32 -31 -32 -57 3 -83 15 -11 29 -19 32 -18 14 6 100 -65 100 -82 0 -11 4 -20 10 -20 5 0 18 -10 30 -22 47 -51 60 42 16 116 -14 25 -26 56 -26 70 0 31 -11 38 -82 52 -54 10 -59 9 -83 -13z" />
</ns0:g>
</g><g transform="translate(-0.9439492226898096,438.6353442704909) scale(0.0460041892903181)"><ns0:metadata>
Created by potrace 1.16, written by Peter Selinger 2001-2019
</ns0:metadata>
<ns0:g transform="translate(0.000000,214.000000) scale(0.100000,-0.100000)" fill="#000000" stroke="none">
<ns0:path d="M1173 1460 c-49 -47 -98 -131 -108 -185 -4 -21 -14 -53 -22 -70 -24 -44 -53 -171 -53 -224 0 -56 47 -220 91 -316 32 -72 113 -135 198 -153 47 -11 56 -10 73 4 29 27 22 40 -45 88 -34 24 -77 65 -95 90 -18 25 -37 46 -41 46 -4 0 -13 26 -20 58 -7 31 -17 76 -22 99 -5 23 -9 72 -9 109 0 57 6 79 40 152 22 47 63 122 90 167 54 90 59 112 33 143 -34 38 -65 36 -110 -8z" />
</ns0:g>
</g><g transform="translate(-0.41759954523121223,558.8053232963921) scale(0.0460041892903181)"><ns0:metadata>
Created by potrace 1.16, written by Peter Selinger 2001-2019
</ns0:metadata>
<ns0:g transform="translate(0.000000,214.000000) scale(0.100000,-0.100000)" fill="#000000" stroke="none">
<ns0:path d="M1334 1726 c-11 -8 -26 -34 -33 -58 -18 -61 -61 -125 -72 -107 -5 8 -9 24 -9 36 0 34 -53 67 -96 60 -41 -7 -67 -29 -131 -111 -54 -68 -91 -181 -95 -289 -2 -45 32 -87 71 -87 32 0 116 43 155 79 l28 26 -7 -25 c-4 -14 -18 -45 -32 -70 -48 -85 -96 -175 -125 -235 -17 -33 -34 -62 -38 -65 -5 -3 -29 -50 -55 -105 -65 -140 -84 -176 -111 -205 -24 -26 -59 -123 -70 -191 -5 -32 -3 -39 19 -53 18 -13 31 -14 50 -7 21 8 28 20 37 68 7 32 16 60 20 63 4 3 17 23 28 45 109 215 186 357 221 410 15 22 33 56 40 75 8 19 20 42 28 51 7 9 16 27 18 39 2 13 13 33 24 44 22 24 56 95 102 219 17 45 41 105 55 132 13 28 24 54 24 58 0 4 10 28 23 55 34 72 52 131 41 141 -19 18 -88 22 -110 7z m-204 -201 c0 -8 -4 -15 -10 -15 -5 0 -10 7 -10 15 0 8 5 15 10 15 6 0 10 -7 10 -15z m-19 -112 c-11 -39 -74 -123 -93 -123 -13 0 -2 82 18 128 11 27 17 32 38 26 13 -3 27 -1 31 6 13 21 16 2 6 -37z m80 -50 c-12 -20 -14 -14 -5 12 4 9 9 14 11 11 3 -2 0 -13 -6 -23z" />
<ns0:path d="M1215 912 c-80 -26 -161 -184 -172 -334 -9 -109 31 -148 127 -126 28 6 50 14 50 18 0 3 33 45 73 93 53 64 76 100 88 140 14 50 14 57 0 76 -9 12 -32 29 -51 39 -22 11 -37 27 -41 45 -14 52 -30 63 -74 49z m59 -144 c9 -12 16 -30 16 -39 0 -18 -39 -75 -86 -125 -60 -63 -69 -37 -28 74 24 67 54 112 74 112 5 0 16 -10 24 -22z" />
</ns0:g>
</g><g transform="translate(2.3259539248671217,701.1801320574108) scale(0.0460041892903181)"><ns0:metadata>
Created by potrace 1.16, written by Peter Selinger 2001-2019
</ns0:metadata>
<ns0:g transform="translate(0.000000,206.000000) scale(0.100000,-0.100000)" fill="#000000" stroke="none">
<ns0:path d="M846 1516 c-7 -6 -17 -24 -20 -40 -10 -42 14 -70 76 -91 113 -36 145 -88 133 -214 -14 -142 -60 -244 -146 -328 -35 -34 -80 -73 -99 -86 -59 -39 -160 -140 -160 -159 0 -26 36 -58 64 -58 16 0 44 20 82 58 33 31 88 82 123 112 145 124 182 176 212 297 23 97 25 249 4 319 -18 58 -56 104 -105 129 -19 9 -48 27 -65 40 -36 27 -80 36 -99 21z" />
</ns0:g>
</g><g transform="translate(-1.3571196993432295,823.9952064783098) scale(0.0460041892903181)"><ns0:metadata>
Created by potrace 1.16, written by Peter Selinger 2001-2019
</ns0:metadata>
<ns0:g transform="translate(0.000000,207.000000) scale(0.100000,-0.100000)" fill="#000000" stroke="none">
<ns0:path d="M1045 1611 c-3 -7 -22 -9 -43 -6 -51 8 -84 -12 -94 -55 -4 -19 -14 -55 -22 -80 -8 -25 -24 -79 -36 -120 -40 -138 -58 -184 -129 -332 -39 -81 -71 -150 -71 -153 0 -4 -6 -21 -14 -38 -111 -250 -120 -279 -94 -305 7 -7 26 -12 43 -12 29 0 34 5 57 58 14 31 33 80 42 107 9 28 31 79 49 115 30 60 35 65 77 76 26 6 58 19 72 28 17 11 35 15 52 10 20 -5 26 -2 26 10 0 17 86 62 139 72 27 6 30 4 35 -27 3 -19 13 -74 22 -124 20 -117 27 -251 13 -293 -22 -67 58 -156 96 -106 33 43 -1 418 -58 634 -23 86 -42 138 -120 323 -25 59 -29 129 -8 150 17 17 13 42 -8 61 -12 11 -21 14 -26 7z m3 -396 c22 -49 43 -104 47 -122 7 -35 19 -29 -130 -69 -113 -30 -115 -30 -115 2 0 16 12 52 25 79 14 28 25 55 25 61 0 13 35 88 62 132 26 43 32 37 86 -83z" />
</ns0:g>
</g></svg>