<?xml version='1.0' encoding='utf-8'?>
<svg xmlns:ns0="http://www.w3.org/2000/svg" xmlns="http://www.w3.org/2000/svg" width="235" height="136" viewBox="0 0 235 136"><g transform="translate(1.1074357701997428,-66.99102224165253) scale(0.027992408431083055)"><ns0:metadata>
Created by potrace 1.16, written by Peter Selinger 2001-2019
</ns0:metadata>
<ns0:g transform="translate(0.000000,208.000000) scale(0.100000,-0.100000)" fill="#000000" stroke="none">
<ns0:path d="M1437 1960 c-12 -10 -31 -20 -42 -24 -12 -3 -37 -21 -56 -39 -56 -51 -166 -135 -207 -157 -165 -93 -261 -169 -293 -234 -28 -58 -25 -73 18 -87 34 -11 38 -10 55 12 55 70 116 124 217 189 34 22 83 57 111 77 66 51 121 85 128 79 6 -6 -36 -223 -49 -251 -5 -11 -19 -54 -32 -95 -30 -103 -61 -140 -115 -140 -10 0 -27 -9 -37 -20 -15 -16 -16 -22 -5 -35 11 -13 10 -21 -1 -43 -8 -17 -13 -65 -14 -136 l0 -108 -40 -34 c-22 -18 -71 -55 -110 -81 -38 -26 -86 -63 -105 -82 -19 -18 -53 -45 -75 -59 -22 -14 -44 -31 -50 -39 -10 -14 -52 -38 -120 -71 -22 -11 -46 -27 -54 -36 -7 -9 -22 -16 -32 -16 -10 0 -27 -10 -39 -22 -25 -28 -25 -18 0 32 21 41 26 70 11 70 -11 0 -41 -29 -123 -119 -42 -45 -69 -68 -72 -60 -2 8 -10 41 -17 74 -7 33 -23 83 -35 110 -26 59 -40 140 -24 150 7 4 7 12 0 26 -13 24 -87 27 -96 4 -4 -9 -11 -15 -18 -14 -39 7 -61 -36 -30 -62 14 -11 46 -74 89 -174 22 -51 43 -167 34 -191 -3 -11 -12 -37 -19 -59 -7 -22 -15 -45 -17 -52 -7 -19 35 -53 67 -53 23 0 33 7 46 33 9 17 32 51 50 74 19 23 34 47 34 54 0 8 6 7 18 -4 30 -27 75 -21 121 16 103 82 175 134 215 157 53 30 186 129 186 138 1 4 24 23 51 42 28 19 69 50 91 68 22 17 44 32 49 32 6 0 8 -49 5 -117 -2 -65 -5 -132 -5 -150 -1 -21 -10 -41 -28 -58 -27 -25 -27 -26 -9 -40 17 -13 18 -23 11 -122 -4 -59 -9 -137 -10 -173 -2 -36 -8 -78 -15 -94 -11 -29 -11 -29 -26 -8 -18 26 -46 18 -42 -12 3 -19 10 -21 81 -24 76 -3 77 -2 88 25 5 15 17 101 24 192 8 91 20 170 25 175 7 7 21 6 44 -2 19 -7 77 -16 128 -21 87 -7 103 -12 212 -66 104 -51 128 -59 192 -63 78 -5 104 5 104 38 0 19 -29 36 -77 45 -18 4 -43 15 -57 26 -14 11 -41 26 -62 35 -20 8 -53 26 -73 38 -40 26 -186 66 -238 66 -19 0 -63 7 -99 16 l-65 17 6 81 c3 44 7 126 9 181 3 55 8 108 11 118 7 16 102 95 157 130 15 9 41 29 57 45 17 15 49 41 71 57 23 17 53 40 66 52 14 13 33 27 44 33 11 6 20 19 20 30 0 26 -44 38 -68 18 -9 -7 -33 -21 -53 -30 -20 -9 -73 -45 -119 -80 -123 -94 -143 -108 -157 -108 -21 0 -22 103 -1 128 13 15 32 47 44 72 4 8 16 21 26 28 11 8 17 21 13 31 -3 10 3 29 13 42 11 13 17 30 14 38 -3 8 2 19 11 26 18 13 87 218 87 257 0 15 14 69 30 120 32 98 38 159 18 175 -19 15 -47 12 -71 -7z m-691 -1351 c8 -14 -14 -29 -33 -22 -10 4 -11 9 -2 19 14 17 25 18 35 3z" />
<ns0:path d="M1110 1521 c-28 -14 -38 -29 -52 -72 -10 -30 -24 -67 -31 -84 -8 -16 -22 -55 -32 -85 -27 -85 -122 -275 -161 -321 -19 -23 -39 -50 -44 -60 -5 -9 -23 -31 -40 -47 -53 -53 -34 -91 28 -58 58 31 175 190 249 338 26 51 54 105 64 119 27 39 79 176 79 209 0 16 5 32 10 35 6 3 10 15 10 26 0 25 -34 25 -80 0z" />
<ns0:path d="M633 1470 c-29 -12 -30 -51 -3 -88 27 -38 44 -174 35 -299 -8 -128 4 -134 59 -32 38 69 38 71 37 177 -1 124 -8 167 -27 183 -8 6 -14 19 -14 28 0 37 -39 50 -87 31z" />
<ns0:path d="M178 1146 c-32 -24 -21 -58 35 -114 l53 -52 22 20 c12 12 22 24 22 29 0 22 -35 108 -48 119 -20 16 -62 15 -84 -2z" />
<ns0:path d="M1013 700 c-26 -16 -49 -35 -131 -113 -18 -17 -54 -65 -79 -107 -26 -41 -61 -93 -77 -115 -17 -21 -35 -46 -41 -55 -36 -60 -105 -159 -114 -165 -18 -11 -13 -53 8 -60 29 -9 42 1 109 84 35 43 79 93 98 110 19 18 34 39 34 47 0 8 11 24 25 36 22 19 45 54 111 170 7 11 27 36 46 56 40 44 78 97 78 110 0 18 -39 20 -67 2z" />
</ns0:g>
</g><g transform="translate(0.0027824907440390234,12.960790265084256) scale(0.027992408431083055)"><ns0:metadata>
Created by potrace 1.16, written by Peter Selinger 2001-2019
</ns0:metadata>
<ns0:g transform="translate(0.000000,211.000000) scale(0.100000,-0.100000)" fill="#000000" stroke="none">
<ns0:path d="M1717 1996 c-16 -13 -17 -21 -8 -73 35 -200 42 -436 24 -813 -7 -140 -16 -374 -19 -520 -3 -146 -7 -287 -9 -315 -2 -27 -6 -101 -10 -162 l-6 -113 65 0 65 0 3 98 c2 53 0 108 -5 122 -4 13 -5 97 -2 185 4 88 8 239 10 335 1 96 8 308 15 470 6 162 9 338 6 390 -3 52 -9 163 -12 245 -4 91 -11 153 -18 157 -18 13 -80 8 -99 -6z m93 -916 c0 -5 -2 -10 -4 -10 -3 0 -8 5 -11 10 -3 6 -1 10 4 10 6 0 11 -4 11 -10z m-53 -362 c-3 -8 -6 -5 -6 6 -1 11 2 17 5 13 3 -3 4 -12 1 -19z" />
<ns0:path d="M1170 1671 c-23 -6 -25 -12 -28 -74 -2 -41 3 -84 12 -111 30 -88 48 -281 40 -421 -4 -71 -8 -211 -9 -310 -1 -99 -6 -191 -12 -205 -5 -14 -13 -48 -17 -77 -6 -45 -4 -55 14 -73 47 -47 74 -12 96 126 8 54 17 164 19 244 2 80 7 217 10 305 6 169 -1 263 -36 450 -19 102 -39 156 -57 154 -4 -1 -18 -4 -32 -8z" />
<ns0:path d="M283 1433 c-50 -7 -59 -25 -43 -86 7 -29 16 -57 21 -63 11 -14 39 -136 33 -145 -11 -19 -148 -101 -191 -116 -81 -27 -103 -48 -103 -97 0 -36 4 -45 25 -54 36 -17 44 -15 81 13 18 14 37 25 43 25 5 0 44 27 85 60 l75 60 7 -36 c9 -49 -3 -215 -27 -364 -23 -150 -36 -203 -61 -252 -35 -70 -22 -107 40 -112 38 -3 42 -1 53 28 7 17 20 40 29 51 10 11 25 41 35 66 9 26 34 68 56 94 21 26 39 51 39 56 0 5 18 25 40 45 22 20 40 41 40 47 0 6 27 43 60 83 33 40 60 77 60 83 0 6 5 11 10 11 15 0 43 29 69 72 12 21 28 41 35 45 32 20 105 186 86 198 -4 2 -20 -13 -35 -35 -15 -21 -48 -58 -73 -83 -51 -47 -191 -198 -219 -236 -10 -13 -28 -33 -41 -45 -13 -11 -40 -42 -60 -68 -42 -56 -68 -64 -59 -18 8 38 24 217 32 351 l7 106 64 68 c35 37 64 74 64 81 0 24 -21 26 -44 5 -12 -12 -27 -21 -32 -21 -5 0 -26 -14 -47 -31 -40 -33 -36 -34 -54 21 -2 8 -7 41 -10 72 -5 55 -4 57 27 73 51 26 37 50 -30 51 -30 1 -69 -1 -87 -3z m64 -785 c-3 -8 -6 -5 -6 6 -1 11 2 17 5 13 3 -3 4 -12 1 -19z" />
<ns0:path d="M943 1370 c-35 -14 -44 -42 -32 -99 10 -49 7 -219 -6 -296 -3 -22 -17 -97 -31 -168 -28 -148 -33 -287 -9 -287 17 0 50 60 59 110 7 34 20 76 36 115 10 23 31 127 56 268 21 124 16 302 -9 341 -18 28 -29 30 -64 16z" />
</ns0:g>
</g><g transform="translate(2.5456011828135274,92.81409855778995) scale(0.027992408431083055)"><ns0:metadata>
Created by potrace 1.16, written by Peter Selinger 2001-2019
</ns0:metadata>
<ns0:g transform="translate(0.000000,228.000000) scale(0.100000,-0.100000)" fill="#000000" stroke="none">
<ns0:path d="M525 2183 c4 -54 8 -132 10 -173 1 -41 6 -85 10 -97 6 -19 2 -24 -21 -33 -16 -6 -49 -24 -74 -40 -25 -15 -61 -31 -80 -35 -77 -17 -140 -56 -140 -88 0 -27 38 -77 59 -77 9 0 41 11 69 25 29 14 56 25 62 25 5 0 24 13 43 29 18 16 76 50 128 75 51 25 118 61 147 81 30 19 56 35 58 35 2 0 34 18 70 40 36 22 72 40 80 40 8 0 14 5 14 10 0 6 8 14 18 18 54 23 93 56 90 76 -5 36 -72 22 -173 -36 -22 -13 -67 -34 -100 -47 -33 -14 -62 -27 -65 -30 -3 -4 -16 -12 -30 -19 -14 -8 -41 -22 -59 -32 -19 -11 -37 -17 -40 -15 -2 3 1 35 7 72 7 38 14 106 17 153 2 47 7 97 11 113 l6 27 -61 0 -62 0 6 -97z m-98 -408 c-23 -22 -33 -18 -12 5 10 11 20 18 23 16 2 -3 -3 -12 -11 -21z" />
<ns0:path d="M1285 1858 c-16 -6 -46 -23 -65 -38 -19 -14 -63 -40 -97 -58 -35 -17 -68 -36 -75 -42 -14 -12 -105 -70 -221 -141 -38 -22 -71 -38 -75 -34 -3 3 2 36 11 74 10 37 15 75 11 84 -9 24 -40 30 -71 15 -28 -14 -58 -82 -82 -191 -12 -55 -15 -58 -64 -83 -29 -14 -59 -35 -67 -45 -16 -20 -114 -62 -123 -52 -15 15 10 72 49 113 40 41 54 76 38 93 -3 3 -29 -7 -58 -22 -28 -16 -68 -34 -89 -41 -20 -6 -42 -20 -47 -30 -6 -10 -10 -63 -10 -117 0 -74 -5 -108 -19 -139 -12 -27 -16 -46 -10 -57 10 -17 -12 -125 -74 -367 -14 -52 -23 -97 -21 -99 2 -2 14 -1 27 3 49 12 108 137 147 312 18 80 27 102 44 110 15 7 21 18 21 44 1 53 18 75 87 109 35 17 71 36 80 43 9 7 20 9 23 6 7 -6 -13 -80 -45 -173 -17 -48 -72 -311 -84 -405 -4 -25 -19 -97 -35 -161 -16 -63 -34 -169 -41 -235 -22 -234 -28 -285 -32 -290 -3 -2 -72 -6 -154 -8 -82 -3 -152 -5 -156 -5 -5 -1 -8 -8 -8 -16 0 -13 122 -15 1040 -15 1033 0 1040 0 1040 20 0 20 -7 20 -577 21 -553 0 -773 -1 -985 -4 -54 -1 -101 2 -107 8 -6 6 -4 37 4 85 7 41 18 115 25 165 12 96 25 168 40 225 9 33 37 177 75 380 9 47 32 137 51 200 86 278 103 308 202 360 37 19 104 63 150 98 45 34 86 62 91 62 5 0 11 7 15 15 3 8 15 15 26 15 11 0 20 5 20 11 0 5 4 8 10 4 6 -3 6 -14 0 -28 -24 -60 -101 -315 -115 -379 -9 -40 -21 -95 -27 -123 -6 -27 -10 -87 -9 -132 1 -46 -2 -83 -6 -83 -13 0 -126 100 -144 127 -9 13 -33 40 -54 60 -52 49 -65 32 -32 -41 35 -76 66 -115 179 -228 70 -70 105 -98 122 -98 14 0 28 5 32 11 4 7 8 93 9 193 3 204 13 263 76 461 46 144 80 224 115 271 13 17 24 35 24 41 0 6 16 25 36 44 81 77 58 132 -41 97z" />
</ns0:g>
</g><g transform="translate(-1.8986895026149568,172.22537056546759) scale(0.027992408431083055)"><ns0:metadata>
Created by potrace 1.16, written by Peter Selinger 2001-2019
</ns0:metadata>
<ns0:g transform="translate(0.000000,214.000000) scale(0.100000,-0.100000)" fill="#000000" stroke="none">
<ns0:path d="M1255 1841 c-22 -16 -71 -49 -110 -74 -38 -25 -88 -62 -110 -83 -78 -72 -152 -134 -159 -134 -4 0 -5 18 -1 41 8 48 -14 169 -32 176 -7 3 -28 0 -47 -7 l-34 -11 -2 -102 c-1 -56 -1 -111 0 -122 5 -101 -11 -193 -76 -436 -44 -164 -44 -210 -2 -161 18 19 68 120 68 136 0 6 15 40 33 76 29 57 61 168 69 240 2 19 11 26 38 31 23 5 45 20 65 45 69 87 289 294 312 294 18 0 83 76 83 98 0 32 -45 28 -95 -7z" />
<ns0:path d="M1505 1677 c-51 -37 -150 -121 -158 -134 -4 -7 -14 -13 -21 -13 -11 0 -104 -72 -207 -159 -45 -39 -59 -39 -59 -2 0 17 -5 33 -10 36 -15 9 -40 -14 -40 -36 0 -11 -14 -45 -30 -76 -28 -51 -30 -64 -30 -155 0 -55 -4 -129 -10 -166 -5 -37 -12 -92 -15 -123 l-6 -56 -82 -53 c-45 -29 -93 -61 -107 -70 -14 -10 -45 -27 -68 -39 -23 -12 -42 -26 -42 -31 0 -6 -9 -10 -21 -10 -11 0 -29 -5 -40 -10 -20 -11 -26 -1 -10 16 5 5 11 28 13 52 3 35 1 42 -14 42 -9 0 -23 -10 -29 -22 -27 -51 -112 -149 -119 -137 -8 13 -4 67 11 144 6 28 13 66 15 85 3 19 7 44 11 55 15 47 38 203 33 223 -6 24 -35 62 -48 62 -25 0 -44 -30 -52 -85 -5 -33 -14 -85 -20 -115 -5 -30 -14 -84 -20 -120 -5 -36 -16 -91 -24 -123 -20 -76 -11 -238 14 -269 21 -26 55 -20 100 18 26 22 35 25 53 16 12 -6 59 -13 104 -16 66 -5 213 -42 229 -59 8 -7 -50 -173 -73 -205 -12 -19 -25 -42 -28 -53 -14 -44 68 -87 104 -55 9 8 38 25 63 36 26 11 50 25 53 30 3 6 14 10 24 10 11 0 42 16 70 35 28 19 54 35 59 35 5 0 17 9 27 20 23 25 38 25 84 0 52 -28 190 -79 233 -86 l37 -6 15 53 c8 30 18 83 22 119 4 36 8 74 10 85 1 11 3 30 3 42 1 12 10 31 22 42 27 25 21 52 -15 69 l-28 14 7 247 c4 135 11 263 16 284 6 24 26 52 55 80 26 23 61 56 80 73 19 18 34 37 34 43 0 6 4 11 8 11 12 0 32 46 25 54 -18 17 -70 -12 -136 -76 -16 -16 -35 -28 -43 -28 -18 0 -16 12 29 220 50 233 33 303 -58 237z m-55 -209 c0 -18 -7 -82 -15 -143 -9 -60 -18 -129 -21 -153 -5 -42 -23 -67 -72 -99 -30 -20 -37 -11 -36 43 1 34 6 49 22 60 25 18 29 62 7 71 -21 8 -107 -17 -121 -35 -27 -36 -46 26 -23 71 24 45 219 213 252 216 4 1 7 -14 7 -31z m-244 -385 c17 -90 13 -119 -19 -129 -12 -3 -50 -26 -84 -50 -36 -25 -65 -39 -69 -33 -3 6 -1 47 5 92 7 45 13 111 14 147 l2 65 52 0 c28 0 55 4 59 8 12 12 24 -17 40 -100z m189 -335 c-3 -128 -8 -243 -10 -254 -4 -16 -41 -40 -145 -92 l-141 -71 -47 15 c-26 9 -64 21 -84 27 -34 10 -38 14 -38 45 0 19 7 40 15 46 8 6 22 48 31 96 8 47 18 96 21 110 5 27 81 103 128 127 17 9 33 21 37 26 3 6 25 11 49 11 42 1 45 4 69 56 7 16 100 90 112 90 5 0 5 -105 3 -232z m-511 -165 c-10 -60 -46 -154 -61 -160 -16 -6 -154 48 -156 62 -1 5 26 28 60 50 34 22 77 50 95 62 18 11 41 22 51 22 15 1 17 -5 11 -36z m493 -299 c-3 -31 -8 -59 -11 -62 -8 -7 -129 32 -133 44 -4 11 103 71 131 73 17 1 18 -4 13 -55z m-420 20 c24 -9 43 -20 43 -23 0 -11 -37 -39 -80 -61 l-40 -20 0 33 c0 31 19 87 30 87 2 0 24 -7 47 -16z" />
<ns0:path d="M1212 615 c-108 -38 -142 -64 -142 -110 0 -24 6 -35 25 -43 36 -17 34 -17 106 38 35 27 69 50 75 50 20 0 77 68 71 84 -9 22 -28 19 -135 -19z" />
<ns0:path d="M351 1604 c-19 -14 -22 -23 -18 -58 2 -22 14 -66 26 -96 11 -30 24 -89 27 -132 4 -43 10 -78 14 -78 11 0 46 43 63 76 27 53 4 242 -35 284 -23 24 -46 25 -77 4z" />
</ns0:g>
</g><g transform="translate(0.15024959210813904,254.53754112411576) scale(0.027992408431083055)"><ns0:metadata>
Created by potrace 1.16, written by Peter Selinger 2001-2019
</ns0:metadata>
<ns0:g transform="translate(0.000000,210.000000) scale(0.100000,-0.100000)" fill="#000000" stroke="none">
<ns0:path d="M1294 1919 c-17 -5 -36 -15 -42 -22 -14 -16 -32 -126 -32 -193 0 -49 -2 -53 -49 -95 -43 -38 -176 -147 -206 -167 -26 -18 -75 -85 -75 -102 0 -28 35 -60 65 -60 16 0 30 9 41 28 20 32 105 117 158 157 42 32 42 31 21 -79 -8 -44 -13 -87 -10 -97 4 -12 -6 -26 -32 -45 -21 -16 -48 -38 -59 -49 -12 -11 -33 -30 -48 -42 -36 -30 -35 -68 4 -88 16 -8 34 -15 40 -15 5 0 37 27 69 61 33 34 65 59 72 57 21 -7 45 -122 31 -145 -4 -7 -39 -32 -77 -57 -96 -62 -134 -88 -155 -108 -11 -9 -32 -24 -48 -32 -16 -8 -53 -36 -83 -61 -29 -25 -58 -45 -63 -45 -6 0 -31 -14 -55 -30 -24 -17 -49 -30 -56 -30 -16 0 -27 170 -15 225 25 113 31 127 99 207 47 55 71 91 75 116 11 70 -5 69 -80 -8 -32 -33 -64 -60 -71 -60 -15 0 -19 120 -4 135 5 6 11 21 13 35 2 17 20 36 57 61 30 20 58 45 62 55 16 47 -21 57 -84 24 -20 -11 -41 -20 -46 -20 -5 0 -11 39 -13 88 -8 135 -50 191 -104 137 -28 -28 -31 -79 -13 -213 10 -76 10 -82 -12 -111 -21 -28 -110 -91 -129 -91 -5 0 -15 -9 -23 -20 -7 -11 -31 -33 -53 -48 l-40 -29 8 86 c4 47 10 92 13 100 3 8 8 51 11 95 3 45 9 83 14 84 6 2 10 37 10 77 0 55 -4 78 -18 93 -26 32 -63 37 -90 12 -21 -19 -22 -29 -22 -153 -1 -73 -5 -163 -10 -202 -6 -38 -13 -95 -16 -125 -15 -150 -68 -392 -104 -475 -45 -104 -50 -119 -40 -129 9 -9 55 36 97 94 11 16 58 138 100 260 16 48 22 55 45 55 18 0 46 17 85 52 123 109 164 139 177 126 3 -3 6 -46 6 -93 l0 -87 -55 -48 c-30 -26 -69 -57 -87 -68 -18 -10 -53 -38 -78 -61 -25 -23 -60 -51 -78 -62 -46 -26 -102 -106 -95 -133 6 -24 41 -36 75 -25 34 10 72 40 162 128 95 92 123 113 136 100 14 -14 13 -234 -1 -339 -7 -49 -13 -157 -13 -240 -1 -127 1 -150 14 -150 10 0 19 18 26 58 7 32 17 70 22 85 6 15 14 47 18 72 3 25 9 49 12 54 3 5 6 25 8 44 4 41 36 79 109 127 112 75 171 118 188 136 10 10 24 19 31 19 8 0 19 7 26 15 7 8 48 40 91 70 44 31 79 59 79 64 0 5 8 11 18 15 9 3 23 9 30 12 15 7 17 -78 2 -106 -5 -10 -14 -62 -20 -116 -15 -128 -15 -129 -40 -104 -21 21 -40 26 -40 10 0 -5 -33 -27 -72 -50 -63 -34 -82 -40 -133 -40 -68 0 -105 -19 -105 -53 0 -32 10 -43 55 -57 22 -7 54 -22 70 -33 53 -36 205 -196 205 -216 0 -11 15 -31 33 -45 l32 -26 21 24 c22 25 32 80 34 191 0 33 5 87 10 120 5 33 14 112 21 175 6 63 15 129 20 145 5 17 13 76 19 132 14 131 29 173 86 236 75 83 99 124 84 142 -18 21 -22 20 -75 -30 -74 -70 -82 -72 -90 -25 -15 90 9 155 83 223 12 11 22 25 22 31 0 5 7 17 16 27 21 24 12 49 -16 42 -11 -3 -43 -25 -70 -50 -33 -29 -65 -48 -99 -57 -28 -7 -51 -12 -51 -11 0 14 37 103 45 110 13 11 31 75 40 145 3 25 14 60 25 78 22 36 27 82 9 82 -11 0 -6 80 7 114 8 21 -26 34 -62 25z m-117 -1519 c-5 -58 -12 -108 -16 -113 -4 -4 -25 8 -47 26 -21 19 -49 39 -61 46 -13 6 -23 17 -23 24 0 7 28 32 61 57 33 25 65 53 71 64 19 36 25 0 15 -104z" />
</ns0:g>
</g><g transform="translate(-0.7420724398810421,341.1627945561756) scale(0.027992408431083055)"><ns0:metadata>
Created by potrace 1.16, written by Peter Selinger 2001-2019
</ns0:metadata>
<ns0:g transform="translate(0.000000,208.000000) scale(0.100000,-0.100000)" fill="#000000" stroke="none">
<ns0:path d="M1394 2018 c-8 -12 -82 -59 -124 -79 -30 -14 -38 -14 -57 -2 -32 21 -76 -5 -96 -56 -12 -29 -27 -45 -53 -57 -28 -13 -39 -15 -42 -6 -5 17 -26 15 -53 -6 -13 -10 -44 -27 -69 -37 -25 -11 -58 -29 -73 -42 -16 -13 -35 -23 -43 -23 -8 0 -14 -4 -14 -9 0 -5 -12 -12 -27 -16 -15 -3 -45 -15 -68 -25 -22 -10 -59 -23 -82 -29 -35 -10 -43 -17 -53 -47 -10 -29 -9 -39 4 -59 9 -14 26 -25 39 -25 12 0 35 -7 51 -15 37 -20 66 -11 66 20 0 16 11 30 36 44 19 12 40 19 45 16 11 -8 39 -102 39 -134 0 -36 35 -90 66 -101 20 -8 33 -6 55 7 37 22 36 34 -1 71 -32 32 -36 56 -31 162 3 65 17 83 74 99 23 7 47 17 54 23 29 24 35 -3 29 -135 -4 -72 -11 -136 -15 -142 -5 -5 -11 -23 -13 -40 -4 -38 25 -47 44 -12 67 122 77 149 82 216 3 37 26 128 45 179 14 39 23 47 78 74 35 16 81 45 104 64 23 19 50 39 59 44 21 11 31 52 18 73 -9 17 -65 20 -74 5z" />
<ns0:path d="M764 1180 c-33 -13 -64 -87 -64 -154 0 -91 -21 -249 -36 -273 -14 -23 -142 -76 -207 -86 -33 -5 -39 -3 -49 18 -8 18 -7 33 6 65 19 49 19 50 3 50 -8 0 -37 -25 -65 -55 -42 -44 -52 -62 -52 -89 0 -28 5 -36 33 -49 77 -37 164 -26 275 33 56 30 61 12 20 -72 -69 -142 -70 -148 -30 -188 l28 -28 115 4 c186 7 424 52 539 102 91 39 187 90 195 102 3 6 24 19 46 31 22 11 49 29 59 39 26 26 27 91 2 113 -17 15 -20 15 -41 1 -31 -22 -250 -31 -334 -14 -58 12 -147 66 -147 90 0 4 21 12 48 16 38 7 48 13 50 32 5 31 -16 48 -71 56 -26 4 -50 13 -54 19 -17 26 -58 39 -88 27 -26 -10 -54 -36 -55 -51 -1 -17 166 -169 186 -169 6 0 18 -7 25 -17 30 -36 244 -104 272 -86 5 3 8 0 5 -8 -8 -25 -160 -103 -224 -115 -22 -3 -44 -10 -49 -15 -6 -4 -53 -13 -105 -19 -52 -6 -115 -14 -140 -17 -55 -8 -113 -8 -133 0 -12 5 -12 13 4 60 22 64 53 255 69 412 5 61 15 133 22 162 9 41 8 56 -2 68 -14 17 -25 18 -56 5z" />
<ns0:path d="M1727 1173 c-2 -5 -10 -24 -16 -44 -7 -21 -32 -55 -57 -78 -58 -53 -57 -77 6 -107 56 -27 124 -26 145 2 19 25 15 35 -22 59 -23 16 -28 25 -22 40 21 55 -9 171 -34 128z" />
</ns0:g>
</g><g transform="translate(-1.4357968728582478,411.1385459728177) scale(0.027992408431083055)"><ns0:metadata>
Created by potrace 1.16, written by Peter Selinger 2001-2019
</ns0:metadata>
<ns0:g transform="translate(0.000000,211.000000) scale(0.100000,-0.100000)" fill="#000000" stroke="none">
<ns0:path d="M764 1765 c-30 -13 -32 -19 -49 -112 -25 -136 -64 -232 -141 -348 -36 -55 -77 -121 -90 -147 -13 -26 -28 -49 -34 -53 -6 -4 -22 -27 -35 -53 -14 -26 -35 -59 -47 -74 -12 -15 -19 -31 -15 -34 9 -10 98 74 168 157 33 41 80 97 104 124 84 98 119 151 141 216 12 36 32 81 43 100 12 19 26 51 31 71 6 21 18 39 29 43 19 6 31 32 31 68 0 11 -13 23 -32 31 -56 23 -72 25 -104 11z" />
<ns0:path d="M1288 1674 c-32 -17 -31 -12 -17 -124 16 -120 17 -137 20 -303 1 -81 -1 -150 -4 -154 -4 -3 -26 -7 -50 -8 -23 -1 -63 -6 -89 -10 -43 -7 -48 -6 -48 11 0 11 11 37 25 59 95 158 115 242 79 345 -17 50 -110 170 -131 170 -8 0 -27 -7 -43 -15 -50 -26 -41 -61 33 -136 83 -84 98 -118 88 -191 -4 -34 -18 -73 -33 -95 -14 -21 -36 -56 -49 -78 -13 -22 -34 -51 -46 -65 -13 -14 -23 -28 -23 -31 0 -4 -30 -31 -67 -62 -38 -30 -81 -66 -97 -81 -33 -32 -40 -29 -31 13 4 20 23 44 53 68 26 21 59 49 73 63 15 14 41 35 58 48 32 24 41 59 17 68 -18 7 -75 -17 -130 -55 -24 -17 -46 -27 -50 -24 -17 18 9 162 31 170 29 11 13 43 -33 65 -43 20 -48 20 -73 5 -24 -15 -26 -22 -33 -114 -17 -222 -11 -206 -82 -242 -25 -12 -48 -26 -51 -31 -5 -9 -90 -51 -140 -70 -15 -6 -45 -23 -68 -39 -23 -15 -76 -45 -117 -65 -41 -20 -94 -47 -118 -60 -49 -27 -112 -88 -112 -108 0 -8 15 -22 33 -31 33 -18 35 -18 75 3 23 12 44 25 47 29 2 4 46 29 97 56 51 26 107 58 123 70 17 12 40 25 53 29 12 4 22 11 22 16 0 4 19 15 43 25 23 9 56 27 72 39 32 23 85 49 91 43 7 -6 -19 -124 -30 -139 -10 -13 -130 -88 -142 -88 -3 0 -2 9 1 20 3 11 3 20 -1 20 -40 0 -271 -223 -281 -272 -13 -64 68 -31 145 58 40 46 181 145 233 163 l31 11 -5 -33 c-18 -122 -80 -372 -98 -392 -5 -5 -9 -22 -9 -37 0 -22 4 -28 23 -28 40 0 46 7 100 111 10 19 28 84 42 144 13 61 31 137 40 171 16 59 18 61 62 74 37 10 52 11 80 1 28 -11 39 -10 71 6 41 20 51 55 17 61 -35 5 -65 25 -65 42 0 26 76 107 143 151 60 40 123 59 198 59 l38 0 -5 -62 c-23 -299 -58 -605 -84 -733 -6 -27 -13 -80 -17 -117 l-6 -68 55 0 55 0 1 57 c1 32 11 108 22 168 12 61 28 171 35 245 28 281 37 356 45 375 4 11 13 46 20 78 13 67 27 77 102 77 48 0 58 4 88 35 32 33 33 34 16 60 -18 27 -44 27 -76 0 -9 -8 -36 -12 -70 -10 l-55 3 0 154 c1 84 4 175 7 202 8 57 -6 132 -36 196 -24 50 -45 58 -88 34z m-861 -880 c-3 -3 -12 -4 -19 -1 -8 3 -5 6 6 6 11 1 17 -2 13 -5z" />
</ns0:g>
</g><g transform="translate(1.4473373162345524,489.236285315494) scale(0.027992408431083055)"><ns0:metadata>
Created by potrace 1.16, written by Peter Selinger 2001-2019
</ns0:metadata>
<ns0:g transform="translate(0.000000,214.000000) scale(0.100000,-0.100000)" fill="#000000" stroke="none">
<ns0:path d="M2236 1167 c1 -534 -1 -980 -3 -989 -8 -33 -133 -16 -314 42 -51 17 -101 30 -111 30 -30 0 -141 40 -161 58 -18 17 -123 78 -182 107 -16 8 -41 23 -54 33 l-24 19 37 99 c21 54 44 113 51 129 14 28 68 158 121 289 13 33 30 66 37 75 34 40 122 197 124 220 1 14 -1 41 -3 59 -4 26 -10 32 -28 32 -13 0 -29 -7 -36 -15 -7 -8 -18 -15 -26 -15 -7 0 -19 -9 -26 -19 -8 -11 -47 -39 -88 -62 -41 -24 -77 -46 -80 -49 -6 -7 -100 -60 -107 -60 -2 0 -3 69 -3 153 2 154 5 181 43 344 5 20 37 52 121 123 42 36 96 93 96 101 0 12 -30 39 -44 39 -7 0 -27 -12 -44 -27 -34 -32 -99 -73 -113 -73 -17 0 -9 18 16 34 27 17 33 50 13 62 -21 13 -71 4 -93 -16 -12 -11 -26 -20 -33 -20 -20 0 -32 -37 -32 -103 0 -60 -2 -67 -29 -90 -36 -30 -66 -88 -75 -145 l-6 -42 39 6 c38 6 40 5 48 -22 4 -16 7 -112 8 -212 l0 -184 -25 -19 c-24 -19 -56 -46 -143 -120 -65 -55 -85 -119 -48 -153 29 -27 61 -16 83 26 21 41 91 98 119 98 10 0 42 27 71 61 44 51 171 149 192 149 11 0 7 -20 -13 -63 -11 -24 -23 -56 -27 -72 -4 -17 -12 -37 -19 -45 -7 -8 -18 -33 -24 -55 -7 -22 -19 -53 -26 -70 -51 -112 -69 -153 -81 -194 -7 -26 -20 -55 -28 -66 -15 -19 -17 -19 -61 28 -50 52 -86 61 -125 29 -30 -24 -22 -55 25 -112 23 -28 34 -49 29 -59 -11 -29 -9 -46 6 -46 9 0 15 9 14 23 0 15 5 22 18 22 11 0 18 -7 18 -19 0 -31 -56 -145 -78 -158 -28 -17 -37 -61 -16 -84 9 -11 21 -19 26 -19 19 0 99 90 117 133 33 76 42 76 185 5 69 -35 149 -75 178 -90 65 -34 108 -47 173 -55 28 -3 58 -9 67 -14 34 -18 212 -49 279 -49 l69 0 0 -45 0 -45 39 0 c39 0 40 1 46 44 8 52 16 56 128 56 l77 0 0 31 c0 30 -1 31 -47 29 -27 -2 -74 -2 -106 -1 l-58 1 5 608 c3 334 5 762 4 952 0 190 0 362 1 383 l1 37 -42 0 -43 0 1 -973z" />
<ns0:path d="M840 1825 l-23 -25 16 -97 c9 -54 18 -118 19 -143 3 -42 1 -46 -32 -62 -45 -23 -127 -58 -135 -58 -3 0 -19 -10 -35 -22 -23 -16 -30 -30 -30 -54 0 -80 121 -88 194 -13 38 39 56 38 56 -4 0 -18 5 -59 11 -91 13 -72 5 -113 -24 -122 -12 -3 -33 -17 -47 -29 -14 -13 -50 -35 -80 -50 -30 -16 -80 -52 -110 -81 -30 -28 -64 -55 -75 -58 -27 -8 -56 -77 -42 -102 5 -11 11 -20 12 -22 2 -2 20 -5 40 -7 41 -4 97 26 113 61 5 11 25 32 43 48 19 15 61 49 94 76 33 28 65 50 72 50 20 0 26 -108 14 -240 -12 -124 -47 -300 -59 -300 -12 0 -47 64 -49 90 -1 14 -7 43 -12 66 -6 22 -10 75 -9 117 2 92 -13 119 -36 63 -58 -139 -36 -324 55 -448 38 -52 46 -59 73 -56 29 3 32 8 59 88 59 180 73 262 88 500 15 243 16 249 60 292 21 20 45 51 54 68 15 29 15 32 -4 56 -19 24 -20 24 -30 5 -10 -17 -70 -61 -84 -61 -4 0 -6 12 -6 28 1 15 0 68 -1 117 -1 87 0 91 27 112 84 67 134 125 124 141 -8 14 -16 10 -144 -60 -18 -10 -35 -14 -40 -9 -14 14 3 171 19 171 38 0 25 42 -22 70 -47 27 -85 26 -114 -5z" />
</ns0:g>
</g><g transform="translate(0.8332114207294694,577.3023425828762) scale(0.027992408431083055)"><ns0:metadata>
Created by potrace 1.16, written by Peter Selinger 2001-2019
</ns0:metadata>
<ns0:g transform="translate(0.000000,208.000000) scale(0.100000,-0.100000)" fill="#000000" stroke="none">
<ns0:path d="M851 1794 c-16 -11 -21 -23 -17 -37 3 -12 -3 -40 -14 -64 -10 -23 -22 -63 -26 -88 -7 -51 -37 -95 -64 -95 -9 0 -23 -7 -30 -15 -7 -8 -29 -19 -50 -25 -20 -5 -54 -21 -74 -35 -20 -14 -40 -25 -45 -25 -14 0 -71 -79 -71 -99 0 -27 45 -60 73 -53 18 4 98 61 117 83 3 3 13 8 23 12 14 5 16 3 9 -11 -5 -9 -12 -34 -16 -55 -9 -50 -84 -228 -116 -277 -9 -14 -38 -74 -65 -135 -26 -60 -61 -133 -76 -161 -16 -28 -29 -61 -29 -72 0 -12 -18 -56 -39 -99 -22 -43 -42 -90 -46 -106 -4 -15 -16 -44 -26 -64 -22 -44 -23 -57 -6 -71 26 -22 62 -2 85 48 12 26 22 56 22 65 0 18 39 73 133 190 54 66 117 119 127 108 10 -12 30 -144 30 -199 0 -26 5 -86 12 -135 9 -68 9 -94 0 -114 -19 -41 1 -69 41 -61 44 9 49 17 56 88 10 107 -23 464 -49 534 -15 38 -66 33 -117 -11 -23 -19 -44 -35 -47 -35 -6 0 32 94 58 140 56 102 116 232 141 310 20 61 60 137 90 172 11 13 31 39 43 60 12 20 28 38 35 41 7 2 39 27 72 55 33 27 76 57 95 66 19 9 50 26 68 39 18 12 47 31 65 42 20 13 33 30 35 47 3 22 -2 27 -27 33 -21 4 -42 1 -63 -11 -18 -9 -69 -35 -113 -56 -44 -22 -91 -50 -104 -62 l-24 -21 8 25 c14 43 9 109 -10 130 -22 24 -43 25 -74 4z" />
<ns0:path d="M1355 1620 c-20 -8 -130 -114 -260 -251 -39 -41 -83 -80 -98 -88 -54 -28 -147 -130 -147 -161 0 -25 30 -60 51 -60 12 0 44 23 72 53 29 28 86 84 127 124 41 39 96 94 121 122 l46 51 7 -183 c4 -100 9 -195 11 -212 2 -16 6 -83 9 -148 l6 -117 -38 -26 c-20 -14 -75 -50 -122 -79 -99 -63 -114 -61 -141 21 -33 98 -33 100 9 141 52 52 153 118 175 115 23 -4 57 25 57 49 0 56 -119 47 -184 -13 -11 -10 -25 -18 -31 -18 -7 0 -40 -14 -73 -31 -41 -22 -64 -41 -72 -60 -14 -33 -6 -66 20 -74 12 -4 25 -29 40 -78 12 -40 28 -84 36 -99 14 -26 13 -29 -24 -66 -21 -21 -64 -53 -95 -71 -52 -30 -57 -36 -57 -67 0 -29 5 -37 34 -51 34 -16 35 -16 66 15 17 18 37 32 44 32 7 0 23 12 37 26 13 14 37 33 52 41 32 16 41 12 85 -39 38 -44 121 -84 210 -102 112 -22 119 -21 138 16 13 26 15 48 10 117 -4 47 -13 111 -21 141 -52 202 -61 281 -79 665 -4 84 6 208 23 287 15 69 0 94 -44 78z m35 -920 c0 -5 -4 -10 -10 -10 -5 0 -10 5 -10 10 0 6 5 10 10 10 6 0 10 -4 10 -10z m-41 -127 c27 -122 25 -177 -5 -181 -51 -7 -214 83 -214 119 0 4 23 30 52 56 29 26 70 67 92 91 28 30 42 39 47 30 4 -7 16 -59 28 -115z" />
</ns0:g>
</g><g transform="translate(2.954896836334626,649.4515967132338) scale(0.027992408431083055)"><ns0:metadata>
Created by potrace 1.16, written by Peter Selinger 2001-2019
</ns0:metadata>
<ns0:g transform="translate(0.000000,209.000000) scale(0.100000,-0.100000)" fill="#000000" stroke="none">
<ns0:path d="M1491 1903 c-31 -32 -71 -75 -88 -95 -18 -21 -61 -57 -97 -82 -122 -84 -206 -156 -206 -177 0 -12 -8 -23 -19 -26 -30 -8 -51 -64 -67 -176 -18 -130 -21 -140 -42 -131 -40 17 -94 16 -142 -5 -27 -12 -51 -21 -54 -21 -13 0 -4 20 29 68 154 225 165 418 25 452 -117 28 -218 -43 -153 -108 18 -18 16 -39 -6 -76 -19 -31 -29 -101 -36 -251 -4 -98 -13 -163 -26 -186 -6 -12 -5 -20 2 -25 8 -5 10 -53 7 -165 -6 -168 -17 -209 -57 -209 -24 0 -42 -22 -32 -39 5 -7 24 -16 42 -20 l34 -7 1 -94 c6 -356 7 -371 25 -381 10 -5 26 -9 37 -9 43 0 46 18 43 280 -1 196 1 256 12 283 17 40 78 128 122 177 18 19 49 60 69 90 l37 55 -6 -40 c-4 -22 -14 -77 -22 -122 -23 -124 -9 -143 52 -65 35 45 37 46 32 17 -3 -16 -9 -68 -12 -115 -4 -47 -13 -110 -20 -140 -21 -89 -72 -225 -100 -266 -30 -44 -32 -77 -5 -104 24 -24 31 -24 92 -5 70 21 138 78 258 213 30 34 63 62 72 62 9 0 40 -23 70 -51 29 -28 88 -77 130 -110 42 -32 80 -64 83 -69 7 -11 111 -80 121 -80 3 0 19 -14 36 -30 17 -17 45 -42 63 -56 l33 -25 58 22 c93 35 134 96 85 126 -16 10 -24 9 -44 -7 -33 -26 -49 -25 -85 5 -17 14 -33 25 -36 25 -11 0 -178 119 -236 167 -30 25 -71 67 -92 93 -21 26 -53 59 -73 74 -42 32 -43 44 -10 80 14 15 25 29 25 30 0 2 14 19 31 37 17 19 47 56 65 84 19 27 50 73 70 100 19 28 37 60 40 73 7 26 -11 52 -37 52 -17 0 -139 -110 -139 -125 0 -7 -60 -86 -105 -140 -14 -16 -34 -41 -44 -54 l-18 -25 -31 25 c-17 13 -31 29 -31 35 -1 18 -60 64 -82 64 -20 0 -21 4 -17 63 9 101 27 147 77 192 122 109 153 144 149 167 -4 29 -43 37 -66 13 -25 -24 -140 -105 -150 -105 -5 0 -17 -9 -27 -20 -29 -32 -38 -24 -30 27 13 88 43 189 50 171 11 -27 32 -22 109 26 39 23 90 54 114 66 41 23 42 23 57 4 17 -22 19 -112 11 -374 -1 -46 29 -52 61 -11 30 38 43 156 43 386 0 209 21 372 57 432 18 32 23 53 21 90 -3 42 -6 48 -26 51 -18 3 -38 -11 -81 -55z m-51 -211 c0 -5 -5 -35 -12 -68 -11 -56 -14 -82 -17 -132 -1 -20 -5 -22 -39 -16 -28 4 -41 2 -51 -10 -7 -9 -19 -16 -26 -16 -7 0 -18 -7 -25 -15 -7 -8 -20 -15 -30 -15 -9 0 -38 -11 -64 -25 -56 -30 -59 -30 -53 -7 3 9 8 33 11 53 5 27 13 39 29 43 12 3 49 31 82 62 33 31 80 69 104 85 24 15 50 37 58 49 14 20 33 27 33 12z m-604 -94 c10 -16 7 -74 -5 -97 -11 -20 -13 -19 -51 18 -45 44 -48 53 -21 80 19 19 65 19 77 -1z m-46 -193 c0 -2 -9 -19 -20 -37 l-20 -33 0 31 c0 17 3 34 7 37 7 8 33 9 33 2z m80 -280 c0 -10 -63 -120 -94 -162 -36 -52 -56 -56 -56 -10 0 77 11 104 50 126 20 11 43 28 50 36 12 14 50 22 50 10z m320 -580 c11 -20 10 -28 -4 -50 -10 -14 -24 -29 -32 -32 -8 -3 -28 -24 -43 -47 -28 -40 -91 -87 -91 -68 0 5 7 29 16 53 8 24 24 80 35 124 11 44 22 86 25 93 5 16 75 -38 94 -73z" />
</ns0:g>
</g><g transform="translate(-2.705648364357444,728.7749024106581) scale(0.027992408431083055)"><ns0:metadata>
Created by potrace 1.16, written by Peter Selinger 2001-2019
</ns0:metadata>
<ns0:g transform="translate(0.000000,207.000000) scale(0.100000,-0.100000)" fill="#000000" stroke="none">
<ns0:path d="M1013 1898 c-17 -18 -34 -44 -38 -57 -4 -14 -21 -46 -36 -72 -16 -25 -29 -50 -29 -54 0 -5 -6 -16 -14 -24 -16 -18 -136 -276 -171 -366 -12 -33 -34 -82 -48 -110 -46 -90 -97 -207 -97 -221 0 -29 47 -13 93 31 26 24 47 50 47 56 0 7 15 35 33 63 31 47 60 115 74 175 3 14 28 61 55 105 27 45 52 94 55 109 3 15 15 34 26 42 12 8 38 41 59 72 21 32 52 78 68 102 33 49 36 66 18 108 -12 29 -47 73 -58 73 -3 0 -20 -15 -37 -32z" />
<ns0:path d="M1435 1831 c-45 -19 -47 -32 -30 -148 27 -179 28 -179 69 -115 17 25 26 56 29 97 3 33 10 79 18 103 8 27 9 46 3 52 -14 14 -66 21 -89 11z" />
<ns0:path d="M1113 1379 c-18 -5 -33 -11 -33 -13 0 -14 -71 -230 -78 -239 -10 -13 -39 -92 -52 -142 -30 -117 -53 -192 -64 -205 -21 -26 -76 -137 -96 -196 -19 -53 -32 -73 -110 -167 -38 -45 -41 -74 -12 -100 36 -31 58 -29 97 7 20 19 56 45 80 56 24 12 45 24 47 28 2 4 41 33 88 65 47 32 112 78 145 103 33 24 67 47 75 51 8 4 18 12 23 19 8 14 109 74 125 74 17 0 22 -43 32 -248 12 -266 47 -396 115 -432 44 -24 48 -3 19 106 -22 82 -28 132 -34 294 -4 118 -4 214 2 243 8 37 6 59 -6 97 -24 72 -21 88 19 111 56 34 57 76 0 80 -49 4 -112 -4 -138 -18 -27 -14 -28 -17 -26 -79 l2 -66 -53 -29 c-30 -16 -61 -35 -69 -42 -9 -6 -27 -18 -40 -25 -13 -8 -38 -22 -55 -31 -34 -20 -97 -60 -136 -88 -39 -28 -92 -55 -97 -49 -3 2 24 64 60 138 35 73 70 155 76 182 25 103 74 244 112 322 21 45 39 84 39 88 0 3 13 24 29 47 17 22 27 47 24 55 -6 16 -60 18 -110 3z" />
</ns0:g>
</g><g transform="translate(-2.3709522533685004,810.9679135268768) scale(0.027992408431083055)"><ns0:metadata>
Created by potrace 1.16, written by Peter Selinger 2001-2019
</ns0:metadata>
<ns0:g transform="translate(0.000000,209.000000) scale(0.100000,-0.100000)" fill="#000000" stroke="none">
<ns0:path d="M1199 2057 c-116 -67 -156 -91 -219 -132 -36 -23 -101 -61 -145 -84 -44 -24 -84 -49 -88 -57 -4 -8 -12 -14 -18 -14 -19 0 -136 -59 -149 -75 -8 -10 -39 -28 -70 -41 -85 -38 -113 -91 -71 -133 16 -16 30 -19 72 -15 57 5 89 18 89 37 0 17 87 107 103 107 8 0 26 11 40 24 26 24 35 30 132 80 28 15 66 38 85 51 61 44 111 75 120 75 4 0 20 14 33 30 14 17 32 30 40 30 8 0 20 7 27 15 7 8 18 15 26 15 7 0 20 7 29 16 9 9 18 14 21 11 7 -7 -28 -158 -65 -282 -17 -55 -33 -116 -36 -135 -3 -19 -12 -64 -20 -100 -32 -136 -52 -265 -60 -393 -3 -42 -11 -96 -19 -120 -35 -110 -49 -277 -35 -405 6 -51 9 -95 6 -99 -3 -3 -21 6 -39 20 -60 45 -94 57 -160 57 -81 0 -110 -8 -106 -29 2 -11 22 -19 68 -26 36 -6 75 -16 86 -23 33 -18 100 -102 128 -162 15 -30 31 -62 36 -70 5 -8 17 -32 26 -53 21 -48 57 -68 81 -45 21 22 28 102 14 180 -6 34 -18 131 -26 213 -19 173 -15 261 21 444 13 69 24 137 24 152 0 135 130 698 187 813 14 27 27 73 30 102 l6 54 -74 0 c-65 -1 -81 -5 -130 -33z" />
<ns0:path d="M1055 1615 c-16 -8 -61 -28 -100 -45 -38 -18 -87 -44 -110 -59 -22 -15 -52 -32 -66 -38 -15 -6 -42 -25 -60 -41 -19 -16 -54 -40 -79 -52 -91 -47 -144 -137 -105 -180 14 -16 31 -20 81 -20 34 0 69 3 78 6 21 8 21 60 0 72 -24 13 35 67 206 189 14 10 61 36 104 58 92 46 136 81 136 107 0 22 -40 24 -85 3z" />
<ns0:path d="M588 1004 c-38 -20 -41 -53 -7 -90 19 -20 19 -21 -1 -39 -11 -10 -20 -24 -20 -30 0 -7 -7 -18 -15 -25 -8 -7 -15 -21 -15 -31 0 -11 -4 -19 -9 -19 -29 0 -75 -236 -52 -264 26 -31 63 -26 151 21 154 84 310 264 310 360 0 42 -34 69 -101 82 -31 5 -82 19 -115 30 -69 25 -89 25 -126 5z m182 -114 c25 -6 55 -12 66 -15 12 -3 24 -12 28 -20 9 -25 -28 -88 -76 -128 -24 -20 -51 -43 -60 -51 -27 -23 -75 -46 -97 -46 -11 0 -23 -5 -26 -10 -4 -6 -11 -7 -17 -4 -11 7 -4 74 12 102 5 9 21 46 36 82 44 104 50 108 134 90z" />
</ns0:g>
</g></svg>