<?xml version='1.0' encoding='utf-8'?>
<svg xmlns:ns0="http://www.w3.org/2000/svg" xmlns="http://www.w3.org/2000/svg" width="235" height="121" viewBox="0 0 235 121"><g transform="translate(-0.0861834809191464,-98.88433521183498) scale(0.051068870680077885)"><ns0:metadata>
Created by potrace 1.16, written by Peter Selinger 2001-2019
</ns0:metadata>
<ns0:g transform="translate(0.000000,214.000000) scale(0.100000,-0.100000)" fill="#000000" stroke="none">
<ns0:path d="M993 1569 c-34 -4 -71 -12 -82 -18 -11 -6 -28 -11 -38 -11 -26 -1 -88 -58 -112 -105 -18 -34 -21 -57 -21 -168 0 -146 9 -177 68 -228 28 -25 41 -30 68 -26 18 3 34 3 37 1 9 -9 -41 -188 -83 -294 -25 -63 -48 -145 -61 -214 -13 -73 0 -92 54 -82 26 5 38 14 47 36 6 16 9 33 6 39 -7 10 13 83 39 151 8 19 19 55 26 80 6 25 24 73 40 108 16 35 29 68 29 74 0 6 13 54 30 107 16 53 32 116 36 141 7 43 14 59 69 155 13 22 29 67 36 99 13 59 13 59 -14 80 -15 12 -27 27 -27 32 0 14 -35 46 -42 38 -4 -3 -15 -2 -25 3 -10 5 -46 6 -80 2z m19 -84 c6 -6 -15 -146 -30 -200 -6 -22 -14 -57 -17 -77 -6 -37 -61 -98 -89 -98 -43 0 -56 220 -17 283 36 58 130 115 153 92z" />
</ns0:g>
</g><g transform="translate(-2.9004387422284026,43.397114989015506) scale(0.051068870680077885)"><ns0:metadata>
Created by potrace 1.16, written by Peter Selinger 2001-2019
</ns0:metadata>
<ns0:g transform="translate(0.000000,208.000000) scale(0.100000,-0.100000)" fill="#000000" stroke="none">
<ns0:path d="M1611 2023 c-8 -3 -52 -30 -99 -59 -47 -30 -101 -57 -121 -60 -19 -4 -49 -15 -66 -26 -37 -21 -79 -27 -226 -32 -146 -5 -171 -22 -134 -92 8 -16 15 -37 15 -46 0 -23 -62 -54 -127 -63 -29 -4 -69 -15 -90 -26 -20 -10 -45 -19 -55 -19 -27 0 -43 -37 -27 -66 22 -42 86 -48 149 -15 60 31 150 55 161 44 7 -7 7 -40 0 -102 -10 -90 -3 -141 18 -141 6 0 22 5 36 12 30 14 42 50 50 168 4 47 12 96 18 109 12 25 118 89 149 90 17 1 22 -13 34 -102 8 -60 29 -71 58 -32 15 22 21 46 23 105 3 95 10 116 50 138 18 9 65 39 105 66 40 27 94 63 121 80 59 38 62 70 7 73 -19 1 -41 -1 -49 -4z" />
<ns0:path d="M1669 1233 c-1 -5 0 -18 0 -29 1 -12 -15 -41 -38 -68 -50 -58 -52 -85 -8 -125 36 -35 69 -44 142 -39 48 3 50 4 50 33 0 25 -5 30 -33 36 -55 11 -70 33 -67 92 2 51 -16 107 -35 107 -6 0 -10 -3 -11 -7z" />
<ns0:path d="M823 1158 c-10 -13 -32 -107 -53 -233 -14 -78 -70 -264 -100 -333 -20 -45 -27 -145 -12 -169 23 -36 102 -33 257 11 122 35 254 61 360 72 33 3 89 12 124 21 35 8 94 13 130 12 90 -4 95 0 87 75 -7 68 -29 136 -60 181 -25 37 -30 41 -89 60 -76 25 -87 7 -32 -53 42 -48 80 -131 65 -146 -5 -5 -22 -11 -37 -12 -59 -5 -238 -36 -248 -44 -5 -4 -43 -11 -83 -14 -89 -9 -174 -26 -266 -55 -93 -29 -99 -28 -93 12 6 34 56 204 81 272 8 22 17 63 21 90 13 105 12 103 46 62 39 -48 139 -82 200 -68 51 12 51 12 36 44 -8 18 -25 29 -55 38 -23 6 -45 16 -48 21 -8 13 25 60 47 65 10 3 19 14 19 24 0 16 -5 18 -27 14 -56 -12 -164 -48 -169 -56 -14 -24 -24 -4 -21 46 1 41 -2 58 -13 65 -21 14 -56 12 -67 -2z" />
<ns0:path d="M680 914 c-19 -9 -71 -33 -115 -54 -115 -54 -303 -109 -325 -95 -17 10 3 43 36 61 19 10 34 26 34 36 0 21 -17 23 -39 4 -9 -7 -47 -24 -85 -36 -97 -32 -136 -56 -136 -86 0 -42 72 -68 180 -67 53 1 157 30 227 63 34 17 67 30 72 30 6 0 11 4 11 10 0 5 17 16 38 25 44 20 44 20 116 69 31 21 56 43 56 47 0 14 -31 10 -70 -7z" />
</ns0:g>
</g><g transform="translate(-0.11631693779980878,169.1369722270013) scale(0.051068870680077885)"><ns0:metadata>
Created by potrace 1.16, written by Peter Selinger 2001-2019
</ns0:metadata>
<ns0:g transform="translate(0.000000,210.000000) scale(0.100000,-0.100000)" fill="#000000" stroke="none">
<ns0:path d="M855 2077 c-16 -12 -34 -28 -38 -35 -5 -7 -29 -34 -53 -60 -85 -89 -92 -97 -118 -154 -14 -31 -26 -62 -26 -67 0 -6 -4 -11 -9 -11 -6 0 -13 -21 -17 -47 -4 -26 -17 -70 -30 -99 -32 -72 -55 -193 -48 -247 6 -40 -22 -157 -56 -242 -17 -41 -39 -113 -65 -210 -14 -55 -41 -138 -60 -185 -170 -436 -193 -487 -214 -493 -11 -3 -23 -26 -35 -68 -10 -35 -22 -75 -27 -88 -14 -34 14 -75 44 -65 12 4 24 11 26 17 2 6 14 20 27 32 13 12 31 39 40 60 8 21 22 49 31 61 14 22 17 22 36 9 25 -17 73 -20 82 -5 4 6 32 29 63 52 31 22 66 49 77 59 43 41 193 145 240 169 28 13 64 35 81 47 l32 24 5 -27 c2 -15 1 -41 -3 -58 -5 -17 -11 -74 -15 -126 -5 -76 -36 -232 -60 -307 -3 -9 11 -13 50 -13 l54 0 7 37 c3 21 15 67 25 102 11 35 26 123 34 195 8 72 19 156 24 188 9 54 41 130 65 153 22 21 111 54 122 45 6 -6 19 -4 32 5 11 9 23 12 26 7 2 -4 5 -93 5 -197 0 -165 -7 -267 -34 -488 l-6 -47 56 0 c37 0 55 4 55 13 0 6 7 70 15 142 8 72 17 229 20 350 7 287 12 343 33 354 9 5 40 12 68 16 42 5 54 11 63 31 22 49 8 84 -36 84 -21 0 -39 -6 -110 -36 -17 -8 -39 -14 -48 -14 -24 0 -54 -18 -90 -54 -18 -18 -60 -42 -96 -55 -35 -13 -74 -29 -87 -37 -19 -13 -23 -13 -28 0 -9 23 16 130 48 201 8 18 46 49 97 80 26 15 103 76 131 103 13 13 56 45 95 70 38 26 72 50 75 53 3 3 15 11 28 18 27 14 27 22 5 50 -16 19 -22 20 -56 11 -20 -6 -65 -32 -100 -58 -119 -90 -277 -194 -355 -234 -26 -13 -45 -31 -48 -45 -7 -28 -77 -80 -83 -62 -2 7 4 16 13 21 9 5 16 16 16 26 0 9 9 25 19 37 57 59 99 115 116 153 10 23 23 42 29 42 6 0 18 11 26 24 24 39 102 140 116 152 25 20 156 189 171 221 9 17 13 38 10 47 -6 15 -9 15 -37 1 -16 -8 -39 -28 -51 -44 -11 -15 -59 -59 -106 -97 -47 -38 -113 -91 -146 -119 -116 -96 -202 -160 -267 -195 -75 -41 -88 -70 -47 -109 l25 -22 56 32 c31 17 59 29 62 26 3 -3 -6 -23 -20 -44 -14 -20 -26 -43 -26 -48 0 -6 -14 -24 -31 -41 -17 -16 -55 -66 -86 -112 -31 -45 -71 -99 -89 -119 -43 -46 -43 -75 -3 -104 31 -21 32 -22 63 -4 17 10 47 30 66 44 72 54 126 88 148 95 21 7 22 4 23 -43 1 -28 2 -59 2 -68 2 -52 -37 -87 -204 -182 -59 -33 -129 -77 -156 -98 -53 -41 -59 -45 -148 -99 -33 -20 -63 -41 -67 -48 -5 -7 -8 -5 -8 6 0 19 57 176 69 193 5 5 23 53 40 105 18 52 36 104 41 115 5 11 20 56 34 100 30 95 127 387 141 424 18 47 57 93 92 107 18 8 50 32 71 53 80 83 132 142 149 168 10 16 22 33 28 39 15 18 72 94 100 134 30 43 104 180 127 235 9 22 17 57 17 78 l1 37 -157 -1 c-146 0 -160 -2 -188 -22z m261 -11 c3 -14 -1 -37 -9 -53 -9 -15 -34 -66 -57 -113 -23 -47 -51 -94 -61 -106 -11 -11 -32 -39 -47 -61 -46 -68 -99 -137 -124 -159 -12 -12 -47 -47 -77 -78 -87 -91 -95 -78 -60 95 13 65 19 121 16 150 -5 43 -4 49 21 65 38 25 182 170 182 183 0 6 15 17 33 26 17 8 39 19 47 24 32 18 106 51 117 51 7 0 15 -11 19 -24z m-356 -1515 c0 -5 -7 -12 -16 -15 -24 -9 -28 -7 -14 9 14 17 30 20 30 6z" />
</ns0:g>
</g><g transform="translate(-1.0429172410479737,331.69892819029525) scale(0.051068870680077885)"><ns0:metadata>
Created by potrace 1.16, written by Peter Selinger 2001-2019
</ns0:metadata>
<ns0:g transform="translate(0.000000,210.000000) scale(0.100000,-0.100000)" fill="#000000" stroke="none">
<ns0:path d="M1518 2069 c-8 -4 -47 -13 -87 -20 -55 -8 -75 -8 -86 1 -19 16 -81 5 -89 -16 -3 -9 -6 -33 -6 -54 0 -31 -6 -42 -32 -62 -45 -33 -99 -64 -125 -73 -35 -10 -30 32 8 73 29 31 35 34 69 36 8 1 16 9 18 18 3 16 -5 17 -90 12 -53 -4 -103 -12 -115 -20 -23 -15 -25 -25 -27 -148 -1 -43 -1 -43 -96 -82 -87 -35 -114 -48 -120 -55 -8 -9 -68 -39 -79 -39 -13 0 -83 -48 -93 -63 -13 -20 -9 -36 12 -57 23 -23 82 -27 99 -6 7 8 27 17 46 20 19 4 69 25 110 46 41 22 80 40 87 40 10 0 13 -24 13 -91 0 -89 1 -92 30 -115 19 -15 26 -27 20 -33 -25 -23 -93 -51 -125 -51 -27 0 -46 -9 -80 -40 -25 -22 -48 -40 -52 -40 -12 0 -43 -63 -45 -90 -1 -14 -6 -90 -11 -170 -6 -80 -13 -152 -16 -160 -12 -32 -34 -238 -31 -297 4 -83 11 -100 43 -106 37 -8 52 15 52 80 0 30 4 84 10 121 34 231 41 283 41 328 2 62 7 71 26 44 11 -16 22 -20 39 -16 22 6 24 3 24 -32 0 -60 57 -96 90 -57 18 22 32 7 27 -29 -8 -58 6 -109 32 -123 51 -25 68 9 77 146 4 55 9 70 40 108 41 49 60 56 129 45 42 -6 50 -11 48 -27 -2 -11 -6 -111 -9 -222 -6 -176 -9 -203 -23 -203 -9 0 -27 17 -41 37 -33 49 -50 64 -61 58 -16 -10 -10 -38 18 -94 25 -48 35 -57 100 -89 72 -35 73 -35 94 -17 19 18 20 28 16 170 -4 134 7 362 17 373 2 2 15 -4 29 -12 22 -15 57 -13 57 3 0 4 10 17 21 30 12 13 33 45 48 72 27 50 139 187 154 188 5 1 5 -13 2 -31 -7 -30 -70 -196 -101 -265 -8 -17 -14 -35 -14 -40 0 -4 -4 -15 -10 -23 -8 -12 -11 -12 -27 2 -23 21 -40 24 -79 14 -46 -11 -49 -39 -11 -103 17 -29 37 -53 44 -53 7 0 13 -3 13 -7 0 -15 -22 -88 -35 -118 -7 -16 -25 -58 -40 -92 -15 -34 -36 -70 -46 -79 -11 -10 -19 -30 -19 -51 0 -27 6 -37 31 -52 58 -35 72 -18 149 184 24 63 44 105 49 105 3 0 78 -70 166 -156 88 -86 179 -169 201 -184 23 -16 44 -36 47 -45 19 -49 84 17 71 72 -7 31 -61 93 -81 93 -11 0 -84 62 -118 100 -5 7 -30 30 -55 53 -67 64 -98 97 -142 154 -44 58 -44 52 2 173 62 163 119 317 131 355 7 22 23 59 36 82 16 28 23 58 23 92 0 50 -1 51 -30 51 -40 0 -89 -32 -174 -114 -38 -36 -71 -64 -73 -62 -2 2 1 23 6 47 5 24 12 87 16 140 l7 96 -30 11 c-31 11 -69 -2 -101 -33 -12 -12 -12 -17 -1 -30 44 -53 -30 -411 -96 -466 -15 -13 -16 -10 -11 26 22 146 35 376 23 413 -10 31 -41 28 -73 -10 -30 -34 -35 -38 -99 -93 l-42 -35 -27 36 c-36 47 -64 43 -79 -11 -14 -49 -21 -38 -25 40 -2 33 -9 68 -17 79 -7 11 -11 30 -8 43 4 14 0 29 -10 38 -9 9 -16 23 -16 30 0 17 38 45 61 45 9 0 22 7 29 16 15 17 80 47 88 39 3 -2 -3 -44 -13 -92 -31 -159 -22 -176 44 -86 48 63 49 66 82 175 25 88 62 126 140 149 24 7 51 18 60 26 8 7 21 13 28 13 8 0 11 15 9 46 -2 37 -8 48 -24 54 -11 5 -27 4 -36 -1z m-172 -746 c-7 -101 -14 -123 -38 -123 -11 0 -60 -18 -109 -40 -49 -22 -91 -40 -94 -40 -3 0 -5 10 -5 23 1 35 36 104 58 111 11 4 23 13 26 21 3 8 11 15 18 15 7 0 40 25 72 55 33 30 64 55 69 55 5 0 6 -34 3 -77z m-394 -93 c-17 -16 -35 -30 -40 -30 -5 0 -30 -22 -56 -50 -26 -27 -51 -50 -55 -50 -11 0 2 68 18 98 10 19 18 22 44 17 24 -5 40 0 67 19 48 34 58 32 22 -4z" />
</ns0:g>
</g><g transform="translate(1.1492715226656287,464.63328647148865) scale(0.051068870680077885)"><ns0:metadata>
Created by potrace 1.16, written by Peter Selinger 2001-2019
</ns0:metadata>
<ns0:g transform="translate(0.000000,216.000000) scale(0.100000,-0.100000)" fill="#000000" stroke="none">
<ns0:path d="M1030 2005 c-7 -8 -10 -29 -7 -47 3 -18 12 -80 21 -138 8 -58 19 -119 24 -136 5 -17 13 -58 17 -92 8 -69 19 -58 -98 -102 -66 -26 -85 -50 -67 -86 7 -12 25 -28 41 -34 24 -10 34 -8 78 16 28 15 53 25 56 22 3 -3 8 -27 11 -54 6 -47 4 -52 -27 -82 -48 -47 -128 -114 -166 -141 -38 -26 -41 -46 -13 -80 28 -32 56 -30 122 13 86 54 89 52 86 -51 l-3 -88 -50 -27 c-27 -15 -59 -25 -69 -23 -12 3 -36 -9 -63 -31 -23 -19 -67 -46 -97 -60 -30 -13 -60 -31 -66 -39 -7 -8 -18 -15 -26 -15 -18 0 -26 -33 -15 -63 13 -33 78 -50 92 -24 5 8 32 23 59 32 27 9 52 21 56 26 3 5 22 18 42 30 20 11 55 33 77 49 22 16 45 29 51 30 7 0 13 -56 18 -167 11 -262 29 -374 77 -479 32 -71 100 -79 172 -18 49 41 137 195 137 240 0 13 4 33 9 46 14 38 21 102 12 116 -8 14 -41 6 -41 -10 0 -22 -66 -157 -107 -220 -61 -95 -95 -107 -108 -38 -2 13 -9 37 -14 54 -29 93 -40 376 -19 506 9 61 17 80 40 102 16 16 32 28 35 28 3 0 14 11 25 25 11 14 25 25 31 25 12 0 45 30 92 84 51 59 -20 56 -89 -4 -17 -15 -57 -41 -88 -58 l-58 -32 0 55 c0 63 23 130 41 119 13 -7 139 123 139 144 0 24 -20 52 -39 52 -9 0 -44 -13 -77 -29 -32 -16 -63 -25 -67 -21 -5 4 -5 43 -2 87 l7 78 51 35 c27 19 62 41 76 49 14 7 35 21 46 31 11 9 28 20 38 23 10 4 17 17 17 31 0 39 -48 48 -103 20 -18 -9 -34 -20 -37 -23 -10 -12 -113 -72 -117 -68 -2 2 -8 30 -13 61 -6 31 -14 81 -20 111 -11 67 -6 85 26 85 27 0 28 2 14 50 -13 48 -90 120 -129 120 -16 0 -34 -7 -41 -15z" />
<ns0:path d="M589 1890 c-22 -22 -53 -47 -69 -55 -34 -18 -37 -33 -14 -77 21 -41 15 -67 -51 -221 -30 -71 -55 -133 -55 -139 0 -6 -6 -19 -14 -27 -8 -9 -27 -48 -44 -87 -16 -39 -50 -98 -74 -131 -62 -85 -73 -114 -56 -150 21 -45 60 -43 108 6 35 36 111 91 125 91 20 0 -71 -189 -137 -287 -15 -23 -28 -45 -28 -49 0 -4 -10 -18 -21 -30 -15 -16 -20 -30 -15 -47 7 -30 50 -60 74 -53 10 3 55 42 102 86 47 45 97 88 113 96 15 8 27 19 27 24 0 6 6 10 13 10 7 0 23 14 36 31 19 25 25 28 38 18 12 -11 14 -8 11 22 -2 28 -7 35 -30 37 -14 2 -49 -8 -77 -22 -28 -14 -53 -26 -56 -26 -17 0 1 42 45 107 28 40 50 76 50 79 0 4 14 26 30 51 17 25 42 68 57 97 28 55 113 199 151 256 29 43 28 113 -2 118 -52 10 -128 -55 -168 -145 -11 -25 -33 -66 -49 -91 -44 -69 -169 -173 -169 -141 0 7 47 107 104 223 57 116 109 227 117 246 7 19 25 59 41 88 23 44 25 56 16 82 -21 62 -74 66 -129 10z" />
<ns0:path d="M1513 1755 c-42 -18 -42 -46 0 -104 40 -54 72 -79 115 -87 29 -6 32 -4 32 16 0 13 -6 31 -14 39 -22 25 -23 57 -2 80 20 21 20 22 0 40 -26 26 -91 34 -131 16z" />
<ns0:path d="M684 796 c-30 -13 -102 -80 -221 -206 -34 -36 -83 -81 -107 -100 -25 -19 -60 -55 -77 -80 -37 -52 -32 -86 15 -109 36 -17 65 -3 100 48 30 44 64 88 91 115 11 11 34 39 50 62 30 42 86 112 153 193 47 56 55 69 47 81 -8 13 -13 12 -51 -4z" />
</ns0:g>
</g></svg>