<?xml version='1.0' encoding='utf-8'?>
<svg xmlns:ns0="http://www.w3.org/2000/svg" xmlns="http://www.w3.org/2000/svg" width="235" height="121" viewBox="0 0 235 121"><g transform="translate(0.19975839729448808,-96.22567359568325) scale(0.051068870680077885)"><ns0:metadata>
Created by potrace 1.16, written by Peter Selinger 2001-2019
</ns0:metadata>
<ns0:g transform="translate(0.000000,207.000000) scale(0.100000,-0.100000)" fill="#000000" stroke="none">
<ns0:path d="M1467 1412 c-10 -10 -17 -21 -17 -24 0 -10 49 -15 53 -5 2 6 11 6 25 -2 18 -10 22 -9 22 3 0 9 -13 22 -30 31 -36 19 -34 19 -53 -3z" />
<ns0:path d="M840 1261 c0 -6 -7 -11 -15 -11 -31 0 -31 -92 0 -104 9 -3 35 1 58 9 99 34 165 7 152 -63 -21 -114 -213 -390 -300 -431 -44 -21 -115 -92 -115 -115 0 -39 85 -61 111 -29 8 9 42 28 75 44 34 15 65 32 68 38 4 6 20 11 35 11 16 0 46 6 67 14 22 7 81 17 132 21 70 5 95 11 99 23 4 8 -1 20 -11 27 -22 16 -181 27 -229 16 -51 -12 -55 2 -14 52 19 23 37 52 41 64 4 12 21 33 37 47 31 26 81 125 94 184 19 90 -25 182 -96 196 -68 14 -189 19 -189 7z" />
</ns0:g>
</g><g transform="translate(-1.1605787183493703,44.931301524210994) scale(0.051068870680077885)"><ns0:metadata>
Created by potrace 1.16, written by Peter Selinger 2001-2019
</ns0:metadata>
<ns0:g transform="translate(0.000000,208.000000) scale(0.100000,-0.100000)" fill="#000000" stroke="none">
<ns0:path d="M1135 1490 c-11 -5 -37 -11 -58 -15 -50 -8 -72 -41 -64 -99 4 -24 2 -47 -4 -53 -5 -5 -12 -48 -14 -95 -2 -47 -12 -112 -23 -144 -40 -125 -54 -183 -48 -199 6 -18 69 -47 101 -48 11 0 64 6 119 12 54 7 101 10 104 7 9 -9 -30 -88 -65 -132 -18 -23 -33 -46 -33 -51 0 -6 -19 -26 -42 -46 -24 -19 -56 -47 -73 -63 -46 -42 -116 -84 -143 -84 -59 0 -83 -42 -34 -61 101 -39 305 81 413 242 52 77 70 122 81 201 11 69 10 71 -13 89 -33 26 -91 24 -248 -7 l-34 -7 5 40 c3 22 13 55 21 74 9 19 21 59 27 90 9 49 17 62 58 96 26 21 60 47 77 58 28 18 78 60 136 116 34 32 30 76 -8 85 -19 5 -32 -1 -56 -24 -18 -16 -52 -40 -76 -53 -24 -13 -55 -30 -68 -37 -32 -18 -40 -9 -19 22 16 25 23 97 9 95 -5 0 -17 -4 -28 -9z" />
</ns0:g>
</g><g transform="translate(1.5872116711491344,200.50307665745737) scale(0.051068870680077885)"><ns0:metadata>
Created by potrace 1.16, written by Peter Selinger 2001-2019
</ns0:metadata>
<ns0:g transform="translate(0.000000,206.000000) scale(0.100000,-0.100000)" fill="#000000" stroke="none">
<ns0:path d="M832 1494 c-13 -9 -22 -26 -22 -40 0 -26 -5 -26 -57 -7 -25 10 -43 -44 -53 -157 -5 -63 -17 -158 -26 -210 -37 -223 -43 -284 -33 -329 21 -93 91 -146 174 -130 49 9 156 79 198 129 52 61 65 320 25 491 -12 52 -21 118 -20 148 2 72 -9 88 -63 97 -25 3 -45 10 -45 15 0 15 -54 10 -78 -7z m63 -98 c10 4 15 0 15 -15 0 -12 12 -79 28 -149 30 -141 34 -248 13 -350 -12 -53 -20 -67 -52 -93 -48 -38 -101 -54 -129 -39 -17 9 -20 20 -19 73 0 61 3 81 32 247 8 47 20 137 27 200 14 145 13 142 45 130 13 -5 32 -7 40 -4z" />
</ns0:g>
</g><g transform="translate(-0.8419736425269662,337.8473990453494) scale(0.051068870680077885)"><ns0:metadata>
Created by potrace 1.16, written by Peter Selinger 2001-2019
</ns0:metadata>
<ns0:g transform="translate(0.000000,214.000000) scale(0.100000,-0.100000)" fill="#000000" stroke="none">
<ns0:path d="M1150 1448 c-42 -12 -82 -46 -179 -152 -88 -97 -101 -125 -101 -213 0 -63 3 -72 44 -133 47 -71 47 -82 -1 -114 -43 -29 -96 -106 -104 -153 -6 -28 -4 -55 5 -80 11 -32 24 -44 87 -78 112 -61 180 -79 277 -77 85 2 98 7 120 48 9 17 8 31 -5 65 -9 24 -23 51 -30 60 -7 8 -13 18 -13 22 0 3 -31 53 -70 110 -38 57 -70 110 -70 118 0 16 94 111 126 127 28 15 94 73 94 84 0 15 -62 8 -88 -10 -46 -32 -52 -34 -52 -18 0 8 25 44 55 80 62 73 63 76 50 216 -5 60 -12 88 -24 97 -19 15 -72 15 -121 1z m36 -144 c2 -25 6 -53 9 -63 4 -12 -6 -29 -31 -52 -51 -49 -109 -128 -124 -171 -13 -35 -15 -37 -32 -22 -21 20 -38 70 -34 104 2 14 4 37 5 51 0 15 18 44 44 71 23 25 53 58 67 73 28 31 81 67 89 59 2 -2 6 -25 7 -50z m-138 -548 c17 -24 39 -56 47 -73 8 -16 26 -40 41 -54 32 -30 57 -76 48 -90 -15 -25 -189 17 -233 56 -25 23 -31 36 -31 69 1 34 8 49 43 88 23 26 44 47 47 47 3 0 20 -19 38 -43z" />
</ns0:g>
</g><g transform="translate(1.1839008156538853,490.77287466291966) scale(0.051068870680077885)"><ns0:metadata>
Created by potrace 1.16, written by Peter Selinger 2001-2019
</ns0:metadata>
<ns0:g transform="translate(0.000000,206.000000) scale(0.100000,-0.100000)" fill="#000000" stroke="none">
<ns0:path d="M1020 1511 c-17 -5 -26 -16 -30 -36 -3 -18 -15 -34 -28 -41 -44 -22 -55 -57 -90 -299 -21 -148 -20 -340 3 -365 8 -9 15 -26 15 -39 0 -12 6 -37 14 -56 19 -46 54 -54 109 -27 23 11 65 24 92 27 62 9 71 16 102 80 79 163 90 203 94 340 6 233 -3 325 -33 325 -6 0 -27 14 -49 31 -21 16 -55 33 -76 36 -21 3 -47 12 -58 19 -21 15 -27 16 -65 5z m115 -114 c60 -34 66 -55 66 -225 0 -142 -11 -210 -40 -246 -5 -6 -14 -29 -21 -50 -19 -58 -62 -96 -109 -96 -37 0 -39 1 -55 53 -17 53 -16 54 18 213 19 87 40 180 46 206 7 26 9 56 5 67 -3 10 -1 22 5 26 5 3 10 22 10 41 0 41 17 44 75 11z" />
</ns0:g>
</g><g transform="translate(2.2329235366735816,632.6607028042683) scale(0.051068870680077885)"><ns0:metadata>
Created by potrace 1.16, written by Peter Selinger 2001-2019
</ns0:metadata>
<ns0:g transform="translate(0.000000,213.000000) scale(0.100000,-0.100000)" fill="#000000" stroke="none">
<ns0:path d="M1263 1463 c-38 -7 -193 -184 -228 -261 -14 -30 -14 -43 5 -145 28 -152 36 -189 44 -208 7 -16 -36 -71 -124 -159 -14 -14 -37 -47 -50 -73 l-25 -48 23 -20 c15 -11 38 -18 60 -18 21 0 96 -4 167 -9 143 -11 238 0 271 30 16 14 21 44 15 87 0 4 -26 28 -58 52 -87 68 -133 119 -133 148 0 14 34 94 75 178 41 84 79 170 83 190 8 39 -3 130 -18 148 -5 6 -11 28 -15 50 -12 63 -24 71 -92 58z m15 -168 c32 -69 -10 -190 -94 -275 -21 -21 -30 -3 -44 82 l-12 68 62 75 c35 41 66 75 70 75 4 0 12 -11 18 -25z m-75 -604 c31 -27 66 -52 77 -56 29 -9 21 -37 -14 -46 -16 -5 -51 -4 -79 2 -27 5 -64 9 -81 9 -51 0 -63 13 -41 47 32 50 66 93 74 93 4 0 33 -22 64 -49z" />
</ns0:g>
</g></svg>