<?xml version='1.0' encoding='utf-8'?>
<svg xmlns:ns0="http://www.w3.org/2000/svg" xmlns="http://www.w3.org/2000/svg" width="235" height="152" viewBox="0 0 235 152"><g transform="translate(1.5209567936681196,-65.15003277590667) scale(0.031285632952386955)"><ns0:metadata>
Created by potrace 1.16, written by Peter Selinger 2001-2019
</ns0:metadata>
<ns0:g transform="translate(0.000000,208.000000) scale(0.100000,-0.100000)" fill="#000000" stroke="none">
<ns0:path d="M1251 1682 c-5 -10 -17 -51 -27 -92 -10 -41 -40 -129 -66 -195 -27 -66 -56 -141 -64 -168 -8 -26 -28 -72 -44 -101 -17 -30 -30 -61 -30 -69 0 -14 -23 -68 -85 -202 -18 -38 -36 -79 -39 -89 -13 -38 -26 1 -41 119 -9 66 -20 152 -26 190 -5 39 -9 126 -7 195 3 148 -9 266 -29 297 -24 36 -68 31 -93 -9 -11 -18 -20 -41 -20 -50 0 -13 -8 -18 -32 -18 -50 -1 -87 -37 -94 -90 -7 -54 -39 -159 -66 -219 -10 -24 -28 -64 -38 -90 -10 -25 -30 -69 -44 -97 -14 -29 -26 -56 -26 -60 0 -5 -9 -27 -20 -49 -10 -22 -27 -67 -35 -100 -9 -33 -20 -67 -25 -75 -4 -9 -11 -35 -15 -59 -6 -36 -4 -46 16 -67 39 -42 78 -28 107 39 7 15 12 40 12 54 0 14 17 67 38 117 49 116 54 129 57 142 4 18 102 195 137 248 46 69 58 70 58 4 0 -30 11 -124 24 -209 13 -85 29 -208 36 -274 13 -145 43 -250 76 -272 40 -26 58 1 98 143 14 50 32 104 41 120 8 16 15 36 15 45 0 8 11 39 25 67 14 29 25 56 25 62 0 6 4 18 9 28 5 9 44 100 86 202 75 180 90 209 99 199 9 -9 45 -184 51 -249 14 -139 34 -259 59 -347 14 -51 26 -105 26 -121 0 -15 6 -51 14 -78 8 -27 17 -70 21 -96 12 -87 94 -117 152 -56 39 40 49 76 30 102 -14 19 -16 19 -41 3 l-26 -17 -15 37 c-9 21 -27 90 -40 153 -13 63 -31 147 -39 185 -8 39 -22 129 -31 200 -9 72 -25 177 -35 235 -11 58 -21 157 -24 220 -6 135 -15 200 -29 218 -14 18 -55 15 -66 -6z" />
</ns0:g>
</g><g transform="translate(1.734173169662597,31.308227363502652) scale(0.031285632952386955)"><ns0:metadata>
Created by potrace 1.16, written by Peter Selinger 2001-2019
</ns0:metadata>
<ns0:g transform="translate(0.000000,211.000000) scale(0.100000,-0.100000)" fill="#000000" stroke="none">
<ns0:path d="M1360 1549 c-62 -34 -143 -69 -159 -69 -9 0 -47 -12 -86 -26 -38 -14 -86 -30 -105 -36 -19 -5 -46 -16 -60 -23 -14 -7 -47 -23 -75 -35 -27 -13 -53 -28 -57 -34 -14 -21 -8 -56 13 -77 30 -30 81 -20 155 30 67 45 152 81 190 81 l26 0 -6 -132 c-14 -270 -17 -377 -16 -531 0 -86 3 -164 6 -172 3 -7 20 -17 37 -21 38 -8 52 8 68 82 9 40 9 57 1 67 -8 9 -10 62 -7 173 3 87 5 197 5 244 0 47 4 110 10 140 6 30 14 73 18 94 4 23 15 43 27 50 30 16 36 28 31 58 -5 23 0 30 37 50 38 21 42 27 42 63 0 37 -2 40 -30 42 -16 1 -46 -7 -65 -18z" />
</ns0:g>
</g><g transform="translate(2.594970770411919,118.06592035871608) scale(0.031285632952386955)"><ns0:metadata>
Created by potrace 1.16, written by Peter Selinger 2001-2019
</ns0:metadata>
<ns0:g transform="translate(0.000000,211.000000) scale(0.100000,-0.100000)" fill="#000000" stroke="none">
<ns0:path d="M1035 1583 c-50 -6 -186 -44 -229 -63 -23 -10 -73 -28 -113 -40 -67 -20 -74 -26 -99 -68 l-27 -46 32 -28 c31 -27 71 -38 71 -18 0 6 22 10 50 10 48 0 100 16 100 30 0 12 139 80 144 71 3 -4 -1 -27 -8 -52 -7 -24 -19 -105 -25 -179 -6 -74 -16 -187 -22 -250 -12 -136 -15 -432 -5 -449 11 -18 55 -32 71 -24 19 11 65 81 65 98 0 8 -7 15 -15 15 -8 0 -18 12 -21 27 -7 25 1 326 10 388 2 17 7 68 11 115 4 47 13 101 20 120 28 76 46 150 43 172 -2 16 -13 26 -35 33 -61 17 -39 28 85 40 68 8 86 23 80 73 -3 27 -4 27 -78 28 -41 1 -88 0 -105 -3z" />
</ns0:g>
</g><g transform="translate(-1.2721166100437813,225.77835278066328) scale(0.031285632952386955)"><ns0:metadata>
Created by potrace 1.16, written by Peter Selinger 2001-2019
</ns0:metadata>
<ns0:g transform="translate(0.000000,210.000000) scale(0.100000,-0.100000)" fill="#000000" stroke="none">
<ns0:path d="M935 1134 c-55 -7 -128 -13 -163 -12 -53 1 -66 -2 -87 -22 -35 -33 -32 -66 8 -90 18 -12 41 -18 52 -15 11 3 70 13 130 21 91 12 121 13 173 3 68 -14 107 -6 126 24 16 24 -2 48 -55 73 -66 32 -76 33 -184 18z" />
</ns0:g>
</g><g transform="translate(2.828687657302794,296.6073733737928) scale(0.031285632952386955)"><ns0:metadata>
Created by potrace 1.16, written by Peter Selinger 2001-2019
</ns0:metadata>
<ns0:g transform="translate(0.000000,205.000000) scale(0.100000,-0.100000)" fill="#000000" stroke="none">
<ns0:path d="M802 1318 c-45 -67 -75 -135 -68 -153 5 -14 9 -15 21 -5 12 10 15 10 15 -3 0 -9 -4 -27 -10 -41 -5 -14 -16 -76 -25 -138 -17 -125 -33 -223 -41 -251 -5 -15 -8 -16 -20 -6 -29 24 -38 -4 -24 -78 21 -111 57 -151 107 -118 25 17 27 22 42 145 23 192 62 413 78 443 9 18 20 52 24 77 4 25 10 62 14 82 4 20 5 48 1 62 -5 22 -12 26 -46 26 -35 0 -42 -5 -68 -42z" />
</ns0:g>
</g><g transform="translate(-1.1831614163519362,386.72108836465213) scale(0.031285632952386955)"><ns0:metadata>
Created by potrace 1.16, written by Peter Selinger 2001-2019
</ns0:metadata>
<ns0:g transform="translate(0.000000,208.000000) scale(0.100000,-0.100000)" fill="#000000" stroke="none">
<ns0:path d="M871 1322 c-20 -20 -30 -42 -35 -79 -6 -47 -4 -56 21 -92 21 -30 35 -40 56 -41 21 0 30 -7 38 -27 16 -41 2 -130 -28 -183 -14 -25 -34 -61 -44 -80 -22 -44 -86 -106 -164 -158 -67 -45 -108 -93 -99 -117 3 -8 22 -22 41 -31 32 -16 35 -16 56 2 33 28 60 42 140 71 39 14 81 31 92 38 24 15 105 38 199 56 66 13 89 30 69 50 -16 16 -201 12 -255 -4 -39 -12 -48 -12 -48 -2 0 13 51 96 89 146 30 38 38 65 45 149 5 53 3 91 -7 130 -21 76 -26 88 -64 148 -38 61 -61 66 -102 24z" />
</ns0:g>
</g><g transform="translate(0.8734900607017835,478.46660618933595) scale(0.031285632952386955)"><ns0:metadata>
Created by potrace 1.16, written by Peter Selinger 2001-2019
</ns0:metadata>
<ns0:g transform="translate(0.000000,206.000000) scale(0.100000,-0.100000)" fill="#000000" stroke="none">
<ns0:path d="M832 1494 c-13 -9 -22 -26 -22 -40 0 -26 -5 -26 -57 -7 -25 10 -43 -44 -53 -157 -5 -63 -17 -158 -26 -210 -37 -223 -43 -284 -33 -329 21 -93 91 -146 174 -130 49 9 156 79 198 129 52 61 65 320 25 491 -12 52 -21 118 -20 148 2 72 -9 88 -63 97 -25 3 -45 10 -45 15 0 15 -54 10 -78 -7z m63 -98 c10 4 15 0 15 -15 0 -12 12 -79 28 -149 30 -141 34 -248 13 -350 -12 -53 -20 -67 -52 -93 -48 -38 -101 -54 -129 -39 -17 9 -20 20 -19 73 0 61 3 81 32 247 8 47 20 137 27 200 14 145 13 142 45 130 13 -5 32 -7 40 -4z" />
</ns0:g>
</g><g transform="translate(-1.6107762879769325,557.2063287787953) scale(0.031285632952386955)"><ns0:metadata>
Created by potrace 1.16, written by Peter Selinger 2001-2019
</ns0:metadata>
<ns0:g transform="translate(0.000000,205.000000) scale(0.100000,-0.100000)" fill="#000000" stroke="none">
<ns0:path d="M783 1580 c-36 -15 -42 -39 -35 -146 4 -54 6 -187 5 -294 -2 -170 -6 -214 -31 -345 -17 -83 -39 -181 -51 -218 -11 -36 -23 -101 -26 -144 -3 -43 -8 -92 -11 -110 -10 -64 74 -103 97 -45 7 15 16 37 22 50 6 13 10 62 10 110 -1 60 5 111 19 164 21 76 22 78 57 84 19 4 55 2 78 -4 24 -7 56 -12 73 -12 16 0 32 -4 35 -10 3 -5 14 -10 24 -10 22 0 45 -12 124 -63 31 -20 66 -37 77 -37 32 0 51 59 34 104 -9 23 -183 105 -250 118 -33 6 -63 14 -68 18 -4 5 26 54 68 109 71 93 156 249 171 313 5 21 1 33 -19 52 -14 15 -30 26 -36 26 -23 0 -60 -49 -60 -79 0 -42 -62 -150 -148 -259 -18 -22 -32 -43 -32 -48 0 -13 -53 -64 -67 -64 -16 0 -16 9 2 95 8 39 15 108 15 155 0 47 5 101 11 120 11 39 23 293 15 326 -5 17 -61 56 -78 53 -1 0 -13 -4 -25 -9z" />
</ns0:g>
</g><g transform="translate(1.8995128801256556,649.3156089812131) scale(0.031285632952386955)"><ns0:metadata>
Created by potrace 1.16, written by Peter Selinger 2001-2019
</ns0:metadata>
<ns0:g transform="translate(0.000000,206.000000) scale(0.100000,-0.100000)" fill="#000000" stroke="none">
<ns0:path d="M1199 1320 c-33 -17 -38 -26 -53 -87 -9 -37 -20 -99 -26 -138 -13 -100 -45 -249 -69 -325 -12 -36 -21 -79 -21 -97 0 -18 -6 -52 -14 -75 -8 -24 -17 -61 -21 -83 -3 -22 -8 -50 -11 -62 -3 -17 2 -23 27 -28 57 -13 78 27 120 230 10 50 27 119 37 155 11 36 30 112 42 170 13 58 29 112 36 120 6 8 15 33 19 55 3 22 14 48 22 57 18 20 13 48 -17 96 -23 37 -23 37 -71 12z" />
</ns0:g>
</g><g transform="translate(-2.2025131931150668,742.8176969472792) scale(0.031285632952386955)"><ns0:metadata>
Created by potrace 1.16, written by Peter Selinger 2001-2019
</ns0:metadata>
<ns0:g transform="translate(0.000000,213.000000) scale(0.100000,-0.100000)" fill="#000000" stroke="none">
<ns0:path d="M1137 1450 c-150 -146 -227 -242 -227 -282 0 -31 57 -132 94 -167 34 -32 33 -39 -8 -87 -18 -21 -56 -74 -85 -118 -39 -61 -51 -87 -51 -118 0 -39 0 -40 73 -73 40 -18 86 -37 102 -41 17 -4 40 -14 52 -21 29 -19 113 -43 193 -55 123 -18 115 -21 118 47 3 65 -15 113 -94 250 -19 33 -38 69 -43 80 -5 11 -25 37 -45 57 -61 62 -50 90 82 211 23 21 42 44 42 51 0 7 7 28 17 46 32 66 61 226 49 276 -10 40 -52 69 -99 69 -40 1 -47 -4 -170 -125z m174 18 c3 -33 -40 -178 -65 -221 -21 -34 -156 -147 -177 -147 -18 0 -39 33 -39 61 0 33 25 89 40 89 6 0 10 5 10 11 0 17 69 99 83 99 7 0 23 16 36 36 44 64 109 106 112 72z m-158 -634 c7 -12 35 -62 64 -111 28 -48 55 -101 59 -117 7 -29 7 -29 -29 -22 -20 4 -56 16 -79 26 -24 11 -48 20 -55 20 -11 0 -122 47 -131 55 -11 10 29 88 71 143 48 61 50 62 69 46 10 -10 24 -28 31 -40z" />
</ns0:g>
</g><g transform="translate(0.4853038311861724,829.8935462790463) scale(0.031285632952386955)"><ns0:metadata>
Created by potrace 1.16, written by Peter Selinger 2001-2019
</ns0:metadata>
<ns0:g transform="translate(0.000000,208.000000) scale(0.100000,-0.100000)" fill="#000000" stroke="none">
<ns0:path d="M862 1397 c-24 -13 -29 -23 -42 -94 -4 -26 -13 -61 -18 -78 -6 -16 -16 -86 -23 -154 l-11 -123 24 -25 c31 -31 85 -43 166 -38 80 6 86 -7 38 -77 -20 -29 -54 -78 -74 -108 -21 -30 -58 -75 -82 -100 -25 -25 -53 -54 -62 -65 -9 -11 -24 -26 -33 -33 -37 -31 3 -84 49 -67 30 11 236 211 236 229 0 6 16 31 36 56 49 62 64 102 64 175 0 83 -8 89 -122 86 -141 -3 -143 -2 -106 108 26 80 35 91 96 122 26 13 73 44 105 68 58 45 72 76 44 99 -18 15 -78 -2 -114 -32 -15 -13 -41 -26 -58 -30 -28 -7 -29 -7 -12 12 18 20 23 57 9 66 -20 12 -89 14 -110 3z" />
</ns0:g>
</g><g transform="translate(-0.5757175254240678,919.7704944272484) scale(0.031285632952386955)"><ns0:metadata>
Created by potrace 1.16, written by Peter Selinger 2001-2019
</ns0:metadata>
<ns0:g transform="translate(0.000000,208.000000) scale(0.100000,-0.100000)" fill="#000000" stroke="none">
<ns0:path d="M968 1553 c-23 -4 -30 -12 -45 -61 -9 -31 -25 -68 -35 -81 -21 -28 -22 -49 -4 -73 17 -23 72 -34 91 -18 9 7 26 9 45 5 78 -17 114 110 58 203 -20 33 -35 36 -110 25z" />
<ns0:path d="M1051 838 c-17 -18 -31 -38 -31 -44 0 -6 -28 -17 -62 -24 -43 -8 -72 -20 -90 -38 -31 -29 -34 -44 -15 -64 7 -7 16 -20 19 -29 3 -8 24 -21 46 -27 33 -10 42 -18 47 -43 5 -21 17 -35 41 -46 31 -15 35 -15 53 1 10 9 21 35 25 57 4 22 14 51 22 65 9 13 14 34 11 45 -9 34 16 5 29 -34 9 -27 16 -32 44 -32 28 0 35 5 43 29 23 68 -50 195 -121 210 -25 6 -35 2 -61 -26z" />
</ns0:g>
</g><g transform="translate(-2.5708275440600232,1008.8425943119591) scale(0.031285632952386955)"><ns0:metadata>
Created by potrace 1.16, written by Peter Selinger 2001-2019
</ns0:metadata>
<ns0:g transform="translate(0.000000,208.000000) scale(0.100000,-0.100000)" fill="#000000" stroke="none">
<ns0:path d="M912 1298 c-29 -8 -72 -53 -72 -77 0 -10 61 -61 74 -61 4 0 22 12 41 26 24 18 43 24 66 22 48 -5 55 -24 42 -112 -17 -121 -150 -366 -198 -366 -12 0 -24 -9 -102 -76 -48 -40 -56 -79 -25 -107 26 -24 59 -21 96 9 173 141 192 152 346 204 115 39 130 47 130 65 0 27 -86 22 -193 -12 -44 -13 -82 -22 -85 -18 -5 5 19 57 57 125 10 17 23 48 45 102 8 20 17 65 21 101 6 54 4 70 -14 106 -30 58 -72 82 -142 79 -30 -1 -69 -6 -87 -10z" />
</ns0:g>
</g><g transform="translate(-2.8062649444412955,1099.3834260187132) scale(0.031285632952386955)"><ns0:metadata>
Created by potrace 1.16, written by Peter Selinger 2001-2019
</ns0:metadata>
<ns0:g transform="translate(0.000000,208.000000) scale(0.100000,-0.100000)" fill="#000000" stroke="none">
<ns0:path d="M871 1322 c-20 -20 -30 -42 -35 -79 -6 -47 -4 -56 21 -92 21 -30 35 -40 56 -41 21 0 30 -7 38 -27 16 -41 2 -130 -28 -183 -14 -25 -34 -61 -44 -80 -22 -44 -86 -106 -164 -158 -67 -45 -108 -93 -99 -117 3 -8 22 -22 41 -31 32 -16 35 -16 56 2 33 28 60 42 140 71 39 14 81 31 92 38 24 15 105 38 199 56 66 13 89 30 69 50 -16 16 -201 12 -255 -4 -39 -12 -48 -12 -48 -2 0 13 51 96 89 146 30 38 38 65 45 149 5 53 3 91 -7 130 -21 76 -26 88 -64 148 -38 61 -61 66 -102 24z" />
</ns0:g>
</g><g transform="translate(1.419535267463175,1192.7481302303368) scale(0.031285632952386955)"><ns0:metadata>
Created by potrace 1.16, written by Peter Selinger 2001-2019
</ns0:metadata>
<ns0:g transform="translate(0.000000,206.000000) scale(0.100000,-0.100000)" fill="#000000" stroke="none">
<ns0:path d="M988 1436 c-15 -8 -48 -14 -74 -14 -25 0 -51 -5 -56 -10 -6 -6 -17 -59 -24 -119 -8 -59 -23 -135 -34 -168 -22 -70 -41 -285 -30 -341 10 -50 18 -70 48 -118 23 -38 25 -38 73 -34 40 4 61 15 121 61 115 88 187 166 238 261 20 35 21 45 12 115 -20 149 -54 229 -119 275 -24 16 -45 37 -48 45 -4 13 -66 61 -77 61 -2 0 -15 -6 -30 -14z m39 -113 c65 -64 93 -107 117 -180 14 -43 26 -89 26 -102 0 -54 -117 -195 -204 -246 -90 -52 -106 -14 -76 175 12 74 23 146 25 160 8 53 33 142 44 153 6 6 11 21 11 32 0 43 19 45 57 8z" />
</ns0:g>
</g><g transform="translate(-2.2468266893030773,1278.6444464143885) scale(0.031285632952386955)"><ns0:metadata>
Created by potrace 1.16, written by Peter Selinger 2001-2019
</ns0:metadata>
<ns0:g transform="translate(0.000000,211.000000) scale(0.100000,-0.100000)" fill="#000000" stroke="none">
<ns0:path d="M1073 1555 c-11 -8 -28 -32 -36 -54 -9 -22 -21 -42 -27 -46 -5 -3 -10 -14 -10 -23 0 -10 -21 -58 -46 -107 -25 -50 -57 -112 -70 -140 -59 -120 -93 -183 -122 -230 -49 -78 -125 -187 -144 -205 -10 -9 -24 -32 -32 -52 -9 -20 -21 -38 -28 -41 -29 -11 17 -36 71 -39 l54 -3 31 62 c18 33 47 81 64 105 52 69 80 110 100 148 40 74 112 219 112 225 0 4 13 25 29 48 15 23 41 69 56 102 15 33 43 92 61 131 36 76 41 103 22 122 -16 16 -59 15 -85 -3z" />
</ns0:g>
</g><g transform="translate(-0.23547946164381983,1367.6018185442383) scale(0.031285632952386955)"><ns0:metadata>
Created by potrace 1.16, written by Peter Selinger 2001-2019
</ns0:metadata>
<ns0:g transform="translate(0.000000,207.000000) scale(0.100000,-0.100000)" fill="#000000" stroke="none">
<ns0:path d="M514 1367 c-27 -18 -60 -38 -74 -44 -62 -29 -124 -53 -136 -53 -8 0 -21 -17 -30 -37 -15 -36 -15 -40 3 -73 22 -43 55 -50 94 -21 35 26 44 26 76 2 30 -24 51 -18 60 18 8 31 30 50 59 51 47 0 39 -78 -12 -116 -44 -34 -59 -81 -41 -125 13 -31 12 -37 -10 -71 -19 -28 -22 -41 -14 -56 12 -23 46 -46 80 -55 30 -7 81 46 116 121 33 71 59 81 188 75 53 -3 97 -9 97 -14 0 -11 -106 -167 -134 -198 -11 -12 -42 -41 -68 -63 -41 -34 -59 -41 -133 -55 -68 -12 -85 -19 -85 -33 0 -22 37 -30 135 -30 117 0 131 6 214 87 41 40 84 91 96 112 11 22 41 70 66 108 50 74 72 160 47 180 -7 6 -78 11 -162 11 -96 0 -153 5 -160 12 -6 6 -11 45 -11 90 -1 90 -17 122 -74 152 -18 9 -40 26 -48 37 -22 33 -80 28 -139 -12z" />
</ns0:g>
</g><g transform="translate(2.7840017401275645,1452.9538579500186) scale(0.031285632952386955)"><ns0:metadata>
Created by potrace 1.16, written by Peter Selinger 2001-2019
</ns0:metadata>
<ns0:g transform="translate(0.000000,213.000000) scale(0.100000,-0.100000)" fill="#000000" stroke="none">
<ns0:path d="M1263 1463 c-38 -7 -193 -184 -228 -261 -14 -30 -14 -43 5 -145 28 -152 36 -189 44 -208 7 -16 -36 -71 -124 -159 -14 -14 -37 -47 -50 -73 l-25 -48 23 -20 c15 -11 38 -18 60 -18 21 0 96 -4 167 -9 143 -11 238 0 271 30 16 14 21 44 15 87 0 4 -26 28 -58 52 -87 68 -133 119 -133 148 0 14 34 94 75 178 41 84 79 170 83 190 8 39 -3 130 -18 148 -5 6 -11 28 -15 50 -12 63 -24 71 -92 58z m15 -168 c32 -69 -10 -190 -94 -275 -21 -21 -30 -3 -44 82 l-12 68 62 75 c35 41 66 75 70 75 4 0 12 -11 18 -25z m-75 -604 c31 -27 66 -52 77 -56 29 -9 21 -37 -14 -46 -16 -5 -51 -4 -79 2 -27 5 -64 9 -81 9 -51 0 -63 13 -41 47 32 50 66 93 74 93 4 0 33 -22 64 -49z" />
</ns0:g>
</g><g transform="translate(-1.5714858472498463,1548.2729247345726) scale(0.031285632952386955)"><ns0:metadata>
Created by potrace 1.16, written by Peter Selinger 2001-2019
</ns0:metadata>
<ns0:g transform="translate(0.000000,206.000000) scale(0.100000,-0.100000)" fill="#000000" stroke="none">
<ns0:path d="M832 1494 c-13 -9 -22 -26 -22 -40 0 -26 -5 -26 -57 -7 -25 10 -43 -44 -53 -157 -5 -63 -17 -158 -26 -210 -37 -223 -43 -284 -33 -329 21 -93 91 -146 174 -130 49 9 156 79 198 129 52 61 65 320 25 491 -12 52 -21 118 -20 148 2 72 -9 88 -63 97 -25 3 -45 10 -45 15 0 15 -54 10 -78 -7z m63 -98 c10 4 15 0 15 -15 0 -12 12 -79 28 -149 30 -141 34 -248 13 -350 -12 -53 -20 -67 -52 -93 -48 -38 -101 -54 -129 -39 -17 9 -20 20 -19 73 0 61 3 81 32 247 8 47 20 137 27 200 14 145 13 142 45 130 13 -5 32 -7 40 -4z" />
</ns0:g>
</g><g transform="translate(2.9126122426460483,1633.9585269571) scale(0.031285632952386955)"><ns0:metadata>
Created by potrace 1.16, written by Peter Selinger 2001-2019
</ns0:metadata>
<ns0:g transform="translate(0.000000,206.000000) scale(0.100000,-0.100000)" fill="#000000" stroke="none">
<ns0:path d="M1029 1361 c-85 -55 -78 -43 -193 -336 -81 -206 -104 -278 -98 -313 2 -18 7 -32 11 -32 3 0 15 -16 26 -36 22 -41 48 -57 125 -73 30 -7 62 -15 70 -19 8 -3 49 -7 90 -7 41 -1 92 -8 112 -15 30 -11 39 -11 52 -1 55 46 -48 112 -170 110 -64 -1 -165 39 -182 72 -16 31 -7 109 19 160 10 21 19 43 19 50 0 6 23 62 50 124 28 62 50 121 50 132 0 27 21 53 84 103 31 25 56 52 56 62 0 14 -49 48 -70 48 -3 0 -26 -13 -51 -29z" />
</ns0:g>
</g><g transform="translate(2.496536808500025,1730.820783129039) scale(0.031285632952386955)"><ns0:metadata>
Created by potrace 1.16, written by Peter Selinger 2001-2019
</ns0:metadata>
<ns0:g transform="translate(0.000000,209.000000) scale(0.100000,-0.100000)" fill="#000000" stroke="none">
<ns0:path d="M1060 1370 c-17 -13 -34 -18 -51 -14 -21 4 -31 -1 -47 -23 -40 -57 -172 -331 -172 -358 0 -7 -8 -23 -19 -36 -24 -32 -43 -92 -35 -113 5 -13 16 -16 48 -14 43 3 43 3 91 106 26 54 89 169 101 183 8 8 14 20 14 26 0 21 32 73 45 73 7 0 26 -21 42 -46 15 -25 43 -65 61 -90 17 -24 32 -49 32 -55 0 -6 12 -26 26 -45 15 -19 25 -36 23 -38 -14 -12 -112 -24 -133 -16 -13 5 -26 7 -28 5 -2 -2 -30 -6 -61 -9 -67 -7 -93 -18 -102 -46 -8 -25 -1 -36 34 -55 23 -11 46 -12 127 -4 54 5 116 16 138 25 29 11 41 12 52 3 17 -14 84 -5 96 13 11 18 10 85 -1 92 -5 3 -26 32 -47 63 -21 32 -46 66 -54 76 -9 9 -23 30 -30 45 -8 15 -19 34 -26 42 -6 8 -14 24 -17 35 -3 11 -13 39 -21 62 -14 37 -14 46 0 78 8 20 12 40 9 45 -10 17 -69 10 -95 -10z" />
</ns0:g>
</g><g transform="translate(2.845231554003135,1806.938322718897) scale(0.031285632952386955)"><ns0:metadata>
Created by potrace 1.16, written by Peter Selinger 2001-2019
</ns0:metadata>
<ns0:g transform="translate(0.000000,210.000000) scale(0.100000,-0.100000)" fill="#000000" stroke="none">
<ns0:path d="M1490 1616 c-13 -10 -110 -196 -110 -210 0 -7 -69 -164 -110 -251 -50 -105 -77 -169 -84 -199 -4 -17 -16 -42 -27 -57 -10 -15 -19 -33 -19 -40 0 -12 -48 -100 -60 -109 -3 -3 -14 -26 -24 -52 -9 -26 -27 -59 -39 -74 -27 -35 -77 -141 -77 -164 0 -21 45 -60 69 -60 24 1 45 21 66 65 10 22 28 56 41 75 12 19 25 51 29 70 4 19 13 42 20 50 7 8 21 35 31 60 9 25 23 52 31 61 7 8 13 19 13 23 0 4 16 40 35 79 19 39 35 76 35 83 0 7 11 32 25 55 14 24 25 51 25 60 0 9 7 22 16 30 8 7 13 21 11 31 -3 10 -1 21 4 24 13 7 93 169 109 220 7 21 26 63 43 92 23 41 28 60 23 86 -9 48 -48 74 -76 52z m-249 -689 c-8 -8 -11 -7 -11 4 0 20 13 34 18 19 3 -7 -1 -17 -7 -23z" />
</ns0:g>
</g><g transform="translate(0.6282902517190223,1891.9871446990605) scale(0.031285632952386955)"><ns0:metadata>
Created by potrace 1.16, written by Peter Selinger 2001-2019
</ns0:metadata>
<ns0:g transform="translate(0.000000,205.000000) scale(0.100000,-0.100000)" fill="#000000" stroke="none">
<ns0:path d="M1434 1402 c-40 -28 -78 -45 -149 -66 -22 -7 -58 -20 -80 -30 -22 -10 -73 -20 -113 -23 -62 -5 -76 -10 -93 -31 -21 -28 -19 -75 6 -100 10 -12 18 -11 45 3 18 10 65 26 104 37 39 11 76 24 82 29 20 17 73 28 80 18 3 -6 -6 -26 -21 -45 -15 -19 -49 -83 -77 -142 -96 -207 -103 -212 -185 -157 -81 54 -196 53 -209 -2 -9 -35 1 -50 38 -58 18 -3 62 -13 98 -21 36 -8 75 -17 86 -19 16 -4 20 -10 17 -29 -3 -14 -14 -33 -24 -42 -10 -9 -19 -24 -19 -32 0 -13 -34 -80 -77 -149 -11 -18 -35 -43 -53 -55 -18 -13 -38 -36 -43 -51 -8 -24 -5 -33 14 -53 35 -37 56 -39 97 -8 20 15 45 35 54 45 19 19 100 38 166 38 43 0 92 22 92 41 0 5 -14 17 -32 26 -25 13 -47 15 -111 9 -75 -6 -79 -5 -75 12 8 32 138 223 151 223 6 -1 37 -7 67 -14 64 -15 80 -12 80 15 0 15 -16 27 -55 45 -62 29 -63 31 -19 107 13 23 24 48 24 55 0 8 16 37 35 66 19 29 35 56 35 60 0 4 14 27 30 51 17 24 30 47 30 52 0 4 21 35 45 68 30 39 44 67 41 79 -3 11 0 26 7 34 9 11 7 17 -8 28 -26 19 -36 18 -81 -14z" />
</ns0:g>
</g><g transform="translate(-1.9559416271354735,1989.0465468023808) scale(0.031285632952386955)"><ns0:metadata>
Created by potrace 1.16, written by Peter Selinger 2001-2019
</ns0:metadata>
<ns0:g transform="translate(0.000000,207.000000) scale(0.100000,-0.100000)" fill="#000000" stroke="none">
<ns0:path d="M1400 1368 c-14 -6 -51 -11 -82 -13 -65 -3 -108 -25 -108 -56 0 -26 38 -77 71 -94 48 -25 82 -200 80 -410 -1 -129 -3 -141 -24 -163 -12 -14 -37 -31 -55 -39 -30 -12 -33 -17 -30 -51 3 -34 6 -37 35 -40 18 -2 43 4 56 12 13 9 26 13 30 10 3 -3 14 -3 25 0 14 5 26 28 42 86 21 74 22 93 17 257 -4 111 -12 203 -22 243 -34 135 -37 164 -18 175 32 19 54 46 51 62 -4 22 -38 32 -68 21z" />
</ns0:g>
</g><g transform="translate(-2.9190288075879494,2066.801450000516) scale(0.031285632952386955)"><ns0:metadata>
Created by potrace 1.16, written by Peter Selinger 2001-2019
</ns0:metadata>
<ns0:g transform="translate(0.000000,201.000000) scale(0.100000,-0.100000)" fill="#000000" stroke="none">
<ns0:path d="M1625 1743 c-11 -3 -31 -15 -45 -28 -14 -12 -53 -35 -87 -50 -34 -15 -70 -36 -79 -46 -9 -11 -23 -19 -29 -19 -7 0 -26 -7 -41 -15 -16 -8 -37 -15 -46 -15 -10 0 -37 -6 -60 -14 -168 -54 -251 -77 -282 -80 -72 -5 -125 -93 -66 -109 11 -3 20 -12 20 -21 0 -9 8 -16 18 -16 18 0 116 38 142 55 29 19 112 55 126 55 20 0 176 50 189 61 6 4 51 28 100 52 99 49 190 117 200 148 7 21 -10 50 -29 48 -6 -1 -20 -3 -31 -6z" />
<ns0:path d="M1360 1130 c-74 -38 -162 -81 -195 -95 -33 -14 -71 -32 -85 -39 -14 -8 -50 -21 -81 -30 -105 -31 -167 -84 -141 -122 18 -28 48 -33 83 -15 19 11 71 30 114 44 84 27 140 51 165 72 8 7 38 20 66 28 58 17 130 52 139 67 9 15 53 32 94 35 19 2 38 10 42 17 20 31 -19 109 -55 108 -6 0 -72 -32 -146 -70z" />
<ns0:path d="M1640 728 c0 -13 5 -29 12 -36 8 -8 5 -14 -16 -22 -15 -5 -32 -10 -38 -10 -21 0 -168 -63 -168 -71 0 -5 -8 -9 -18 -9 -31 0 -185 -55 -312 -112 -35 -16 -78 -32 -94 -35 -17 -4 -65 -24 -107 -45 -42 -21 -80 -38 -84 -38 -5 0 -36 -14 -70 -30 -66 -32 -129 -98 -119 -124 6 -17 41 -31 64 -27 20 4 201 91 220 106 8 7 62 29 120 50 58 21 107 41 110 45 3 5 32 17 65 28 58 19 92 33 173 69 20 9 39 17 42 18 3 0 19 8 35 17 32 17 179 68 196 68 5 0 29 9 52 20 26 13 60 20 87 20 91 -3 87 -5 95 51 4 28 3 55 -1 59 -5 5 -31 11 -59 13 -27 3 -80 8 -117 13 -67 7 -68 7 -68 -18z m-660 -358 c0 -11 -4 -20 -9 -20 -11 0 -22 26 -14 34 12 12 23 5 23 -14z" />
</ns0:g>
</g><g transform="translate(-1.8818180160133124,2159.0033968149423) scale(0.031285632952386955)"><ns0:metadata>
Created by potrace 1.16, written by Peter Selinger 2001-2019
</ns0:metadata>
<ns0:g transform="translate(0.000000,209.000000) scale(0.100000,-0.100000)" fill="#000000" stroke="none">
<ns0:path d="M1281 1852 c-12 -23 -3 -296 11 -301 19 -7 -81 -61 -187 -101 -55 -21 -128 -74 -148 -107 -19 -32 23 -73 74 -73 12 0 44 20 72 44 47 39 124 82 134 73 2 -2 -1 -26 -6 -54 -6 -27 -12 -85 -16 -128 -3 -42 -9 -84 -13 -91 -23 -41 -150 -100 -272 -128 -34 -7 -94 -70 -87 -90 7 -18 52 -39 79 -38 10 0 41 12 69 26 28 14 59 26 69 26 10 0 32 11 48 25 32 26 72 34 72 13 -1 -51 -21 -191 -33 -228 -8 -25 -19 -64 -26 -87 l-12 -42 -52 6 c-28 3 -63 11 -77 18 -14 7 -63 32 -110 55 -47 23 -107 58 -135 76 -72 49 -141 84 -167 84 -46 0 -49 8 -33 115 24 167 23 164 55 180 37 19 39 42 5 55 -29 11 -30 20 -11 163 15 114 27 131 131 192 77 45 149 109 142 127 -7 21 -47 11 -140 -37 -48 -25 -90 -45 -92 -45 -3 0 -5 18 -5 40 0 27 5 43 15 46 23 9 18 21 -24 63 l-39 39 -34 -16 -33 -17 -3 -107 c-3 -120 1 -113 -98 -168 -97 -54 -205 -119 -306 -185 -92 -59 -93 -61 -96 -104 -6 -88 51 -97 129 -21 58 57 138 115 182 133 19 9 59 34 88 57 28 22 57 39 63 37 22 -7 3 -200 -26 -272 -19 -48 -54 -101 -109 -168 -14 -18 -39 -52 -54 -77 -15 -25 -31 -47 -34 -50 -6 -5 -35 -63 -90 -181 -12 -25 -48 -77 -79 -114 -74 -88 -78 -93 -70 -101 18 -17 66 14 143 91 47 46 85 90 85 97 0 7 12 24 26 37 14 14 38 50 54 80 15 31 44 72 64 90 l36 35 0 -35 c0 -38 -35 -314 -50 -398 -5 -30 -15 -60 -21 -67 -13 -16 -3 -50 17 -58 19 -7 54 10 54 26 0 7 10 22 22 35 23 25 48 135 69 308 15 125 13 123 58 82 21 -19 68 -51 105 -72 36 -20 66 -40 66 -45 0 -4 21 -17 48 -29 101 -48 187 -96 185 -106 -1 -5 -26 -15 -55 -21 -66 -13 -159 -43 -175 -57 -18 -13 -16 -72 2 -87 17 -14 66 -21 80 -11 6 4 39 15 75 25 36 10 90 26 120 36 106 35 255 79 320 94 36 8 89 26 117 40 28 14 57 26 65 26 8 0 18 4 24 9 5 5 38 19 74 31 112 39 190 79 184 94 -3 8 -11 17 -18 19 -23 9 -305 -59 -341 -81 -19 -13 -80 -33 -125 -42 -25 -5 -66 -14 -92 -21 -27 -7 -51 -10 -54 -6 -8 7 22 86 41 107 19 21 50 138 71 263 9 59 21 110 26 113 4 3 8 16 8 29 0 17 12 32 41 52 72 49 89 67 95 101 8 41 -10 43 -67 5 -34 -22 -42 -24 -50 -12 -5 8 -6 21 -3 29 4 8 10 38 15 65 5 32 15 55 29 64 11 7 20 19 20 27 0 19 -40 38 -72 36 -41 -3 -34 13 20 43 26 15 70 43 99 61 28 19 56 34 62 34 6 0 11 4 11 9 0 5 16 19 35 31 48 30 65 48 65 71 0 24 -35 26 -76 4 -16 -8 -36 -15 -44 -15 -8 0 -28 -11 -44 -25 -15 -13 -41 -30 -57 -37 -16 -7 -29 -16 -29 -20 0 -5 -9 -8 -20 -8 -25 0 -25 2 0 42 11 18 20 44 20 56 0 30 29 134 41 147 15 16 10 44 -10 55 -32 17 -99 12 -110 -8z" />
</ns0:g>
</g><g transform="translate(-1.8802322113760965,2241.8713007124015) scale(0.031285632952386955)"><ns0:metadata>
Created by potrace 1.16, written by Peter Selinger 2001-2019
</ns0:metadata>
<ns0:g transform="translate(0.000000,213.000000) scale(0.100000,-0.100000)" fill="#000000" stroke="none">
<ns0:path d="M1358 1983 c-38 -6 -63 -78 -89 -252 -11 -75 -28 -154 -39 -176 -10 -22 -28 -65 -40 -96 -11 -31 -43 -93 -70 -138 -28 -45 -50 -85 -50 -88 0 -4 -19 -30 -60 -80 -6 -7 -30 -43 -53 -80 -23 -38 -47 -74 -54 -81 -19 -20 0 -56 34 -66 41 -11 74 11 122 83 20 31 58 85 83 121 25 36 55 84 67 108 33 65 77 118 179 216 51 49 105 100 120 115 49 47 114 101 123 101 12 0 12 -17 0 -24 -5 -3 -12 -17 -15 -31 -4 -14 -22 -59 -41 -100 -19 -41 -35 -77 -35 -81 0 -4 -26 -59 -59 -123 -32 -64 -71 -147 -86 -186 -15 -38 -32 -76 -37 -82 -6 -7 -23 -40 -39 -74 -16 -33 -33 -58 -39 -54 -5 3 -10 11 -10 16 0 6 -11 25 -25 44 -23 29 -29 32 -58 25 -55 -13 -67 -21 -67 -46 0 -29 22 -66 68 -114 50 -53 50 -70 1 -168 -24 -48 -49 -94 -55 -102 -6 -8 -17 -33 -24 -55 -7 -22 -34 -86 -61 -141 -27 -56 -49 -108 -50 -115 0 -8 -9 -32 -18 -54 -18 -40 -18 -40 -29 -15 -6 14 -13 34 -16 44 -4 10 -10 16 -14 12 -15 -16 -15 -165 1 -184 13 -16 70 -10 94 10 19 15 95 174 187 390 25 58 57 126 71 150 14 24 28 51 32 61 7 23 18 22 35 -5 22 -33 149 -161 194 -194 22 -16 43 -35 47 -41 4 -7 22 -20 40 -29 18 -9 42 -26 53 -38 12 -12 43 -37 69 -56 27 -19 66 -52 88 -72 45 -43 53 -45 85 -18 17 14 22 25 17 40 -3 11 -8 32 -9 48 -2 21 -15 34 -57 60 -29 17 -65 42 -79 54 -24 22 -36 30 -109 73 -44 26 -246 229 -278 279 -30 47 -28 58 34 186 25 52 52 109 59 125 7 17 34 75 59 130 26 55 62 134 80 176 18 42 38 85 43 95 38 69 84 193 89 241 5 46 3 58 -11 69 -19 13 -78 2 -106 -20 -8 -7 -26 -18 -40 -24 -65 -32 -111 -68 -187 -143 -45 -46 -84 -81 -87 -78 -2 2 2 29 10 59 8 30 14 65 14 78 0 24 39 156 70 236 30 75 14 92 -72 79z m267 -483 c3 -5 1 -10 -4 -10 -6 0 -11 5 -11 10 0 6 2 10 4 10 3 0 8 -4 11 -10z m5 -1020 c0 -5 -4 -10 -10 -10 -5 0 -10 5 -10 10 0 6 5 10 10 10 6 0 10 -4 10 -10z" />
<ns0:path d="M867 1905 c-22 -7 -49 -23 -61 -34 -12 -12 -26 -21 -32 -21 -5 0 -31 -18 -59 -40 -69 -55 -85 -53 -85 9 0 80 -40 100 -97 48 -29 -26 -29 -28 8 -104 34 -70 32 -92 -10 -111 -15 -7 -63 -46 -105 -87 -83 -82 -94 -112 -52 -135 42 -22 75 -4 164 91 47 49 89 89 93 89 16 0 9 -17 -26 -69 -19 -28 -35 -59 -35 -70 0 -11 -11 -32 -24 -48 -37 -45 -74 -108 -151 -258 -40 -77 -82 -158 -94 -180 -11 -22 -42 -85 -67 -139 -51 -109 -51 -121 5 -143 31 -13 31 -13 60 34 16 27 41 67 55 90 15 23 32 56 38 75 6 18 21 47 33 63 13 17 30 44 38 60 8 17 34 49 56 70 23 22 41 45 41 52 0 16 177 173 195 173 20 0 19 -8 -10 -68 -14 -29 -25 -58 -25 -64 0 -23 -38 -115 -63 -151 -13 -20 -37 -65 -52 -101 -15 -36 -32 -66 -36 -66 -5 0 -13 18 -19 40 -14 54 -43 73 -83 56 -20 -7 -33 -22 -38 -39 -10 -36 9 -93 35 -107 12 -6 30 -26 40 -44 17 -32 17 -35 -2 -72 -25 -51 -84 -146 -115 -187 -13 -17 -31 -46 -40 -63 -11 -21 -26 -33 -47 -37 -33 -7 -35 -13 -20 -51 12 -33 19 -33 72 3 70 47 178 189 204 266 5 16 16 31 25 33 9 1 52 -24 96 -57 81 -60 144 -88 252 -110 56 -12 81 -4 81 24 0 16 -60 55 -83 55 -34 0 -151 76 -226 148 l-56 53 30 57 c92 172 116 224 136 292 12 41 30 84 39 95 30 34 88 176 82 198 -1 4 2 16 8 27 18 33 2 50 -45 50 -31 0 -52 -7 -72 -23 -15 -13 -57 -40 -93 -59 -36 -20 -74 -46 -84 -57 -11 -12 -23 -21 -28 -21 -16 0 -7 22 31 73 21 29 56 84 76 122 59 112 108 189 125 200 18 11 90 126 90 144 0 16 -18 41 -29 41 -4 -1 -23 -7 -44 -15z" />
</ns0:g>
</g><g transform="translate(1.9529463620824572,2329.347290436413) scale(0.031285632952386955)"><ns0:metadata>
Created by potrace 1.16, written by Peter Selinger 2001-2019
</ns0:metadata>
<ns0:g transform="translate(0.000000,210.000000) scale(0.100000,-0.100000)" fill="#000000" stroke="none">
<ns0:path d="M1005 2044 c-67 -34 -92 -48 -112 -66 -30 -25 -125 -90 -128 -86 -2 2 -7 28 -12 58 -7 46 -13 57 -36 68 -25 12 -31 12 -46 -2 -10 -9 -23 -16 -29 -16 -6 0 -14 -11 -18 -25 -4 -18 1 -33 19 -54 29 -35 43 -96 27 -116 -6 -8 -25 -17 -41 -20 -16 -4 -29 -11 -29 -16 0 -5 -6 -9 -14 -9 -8 0 -21 -6 -28 -13 -7 -7 -38 -32 -68 -56 -59 -46 -68 -60 -69 -103 -1 -37 35 -60 77 -52 18 4 32 10 32 13 0 9 103 96 195 166 36 28 89 69 118 92 29 23 93 74 142 113 50 38 96 75 103 80 18 16 15 48 -7 60 -24 12 -17 14 -76 -16z" />
<ns0:path d="M865 1722 c-28 -6 -55 -32 -55 -53 0 -10 -6 -36 -14 -56 -39 -102 -67 -172 -85 -209 -11 -22 -23 -52 -26 -67 -4 -15 -11 -30 -16 -33 -5 -3 -9 -14 -9 -26 0 -19 -94 -138 -109 -138 -5 0 -11 46 -15 102 -6 93 -5 103 14 123 11 12 20 31 20 42 0 33 -29 36 -66 8 -19 -14 -50 -33 -69 -41 -20 -8 -38 -21 -42 -29 -6 -16 21 -80 37 -90 17 -11 11 -108 -12 -177 -19 -60 -20 -71 -8 -108 7 -22 16 -40 19 -40 13 0 108 70 136 100 17 18 42 44 58 58 15 15 27 31 27 36 0 5 10 28 22 52 19 39 26 44 54 44 18 0 44 5 57 11 19 9 31 7 61 -10 45 -26 67 -26 97 -2 23 18 24 18 56 -7 30 -22 39 -24 94 -18 34 3 82 17 108 30 25 13 54 27 64 30 9 3 25 22 34 42 17 35 17 36 -2 50 -25 19 -37 18 -90 -7 -25 -12 -49 -19 -52 -15 -10 9 15 71 48 125 16 24 29 53 29 62 0 10 5 21 10 24 6 3 10 31 10 60 0 45 -4 56 -21 66 -26 13 -65 -4 -75 -33 -3 -10 -21 -39 -40 -63 -19 -25 -34 -49 -34 -54 0 -4 -9 -16 -20 -26 -11 -10 -20 -24 -20 -32 0 -7 -4 -13 -8 -13 -4 0 -16 -15 -27 -32 -19 -33 -73 -88 -87 -88 -3 0 -10 10 -14 22 -8 27 -32 47 -56 48 -22 0 -23 14 -3 44 28 42 65 165 65 214 0 55 -16 81 -45 74z" />
<ns0:path d="M920 1134 c-8 -3 -32 -13 -54 -22 l-38 -16 7 -81 c4 -44 11 -102 16 -130 9 -48 8 -51 -18 -72 -15 -13 -34 -23 -40 -23 -7 0 -13 -4 -13 -10 0 -5 -15 -17 -32 -26 -18 -9 -63 -36 -99 -60 -37 -24 -77 -44 -91 -44 -23 0 -69 -35 -151 -116 -23 -23 -56 -48 -74 -58 -44 -22 -93 -77 -93 -103 0 -24 34 -53 63 -53 10 0 30 9 44 20 14 11 32 20 39 20 8 0 14 7 14 15 0 9 12 21 28 27 15 7 47 28 71 48 49 39 171 126 275 195 80 54 90 49 80 -30 -12 -82 -12 -517 -1 -552 18 -56 104 -83 131 -41 8 13 5 30 -12 70 -22 52 -23 60 -18 329 5 312 11 341 75 375 19 11 39 24 45 29 18 17 118 77 151 90 16 6 49 20 73 31 l43 19 -3 55 c-3 52 -4 55 -32 58 -38 5 -79 -13 -110 -49 -14 -16 -33 -29 -41 -29 -8 0 -35 -15 -60 -32 -26 -18 -56 -39 -68 -45 -26 -15 -63 -17 -71 -4 -3 5 1 44 10 87 23 122 23 129 -6 131 -14 1 -32 0 -40 -3z" />
</ns0:g>
</g><g transform="translate(-2.3027359957657723,2427.922489817848) scale(0.031285632952386955)"><ns0:metadata>
Created by potrace 1.16, written by Peter Selinger 2001-2019
</ns0:metadata>
<ns0:g transform="translate(0.000000,214.000000) scale(0.100000,-0.100000)" fill="#000000" stroke="none">
<ns0:path d="M993 1569 c-34 -4 -71 -12 -82 -18 -11 -6 -28 -11 -38 -11 -26 -1 -88 -58 -112 -105 -18 -34 -21 -57 -21 -168 0 -146 9 -177 68 -228 28 -25 41 -30 68 -26 18 3 34 3 37 1 9 -9 -41 -188 -83 -294 -25 -63 -48 -145 -61 -214 -13 -73 0 -92 54 -82 26 5 38 14 47 36 6 16 9 33 6 39 -7 10 13 83 39 151 8 19 19 55 26 80 6 25 24 73 40 108 16 35 29 68 29 74 0 6 13 54 30 107 16 53 32 116 36 141 7 43 14 59 69 155 13 22 29 67 36 99 13 59 13 59 -14 80 -15 12 -27 27 -27 32 0 14 -35 46 -42 38 -4 -3 -15 -2 -25 3 -10 5 -46 6 -80 2z m19 -84 c6 -6 -15 -146 -30 -200 -6 -22 -14 -57 -17 -77 -6 -37 -61 -98 -89 -98 -43 0 -56 220 -17 283 36 58 130 115 153 92z" />
</ns0:g>
</g><g transform="translate(0.32999977268264047,2521.721475862722) scale(0.031285632952386955)"><ns0:metadata>
Created by potrace 1.16, written by Peter Selinger 2001-2019
</ns0:metadata>
<ns0:g transform="translate(0.000000,213.000000) scale(0.100000,-0.100000)" fill="#000000" stroke="none">
<ns0:path d="M1137 1450 c-150 -146 -227 -242 -227 -282 0 -31 57 -132 94 -167 34 -32 33 -39 -8 -87 -18 -21 -56 -74 -85 -118 -39 -61 -51 -87 -51 -118 0 -39 0 -40 73 -73 40 -18 86 -37 102 -41 17 -4 40 -14 52 -21 29 -19 113 -43 193 -55 123 -18 115 -21 118 47 3 65 -15 113 -94 250 -19 33 -38 69 -43 80 -5 11 -25 37 -45 57 -61 62 -50 90 82 211 23 21 42 44 42 51 0 7 7 28 17 46 32 66 61 226 49 276 -10 40 -52 69 -99 69 -40 1 -47 -4 -170 -125z m174 18 c3 -33 -40 -178 -65 -221 -21 -34 -156 -147 -177 -147 -18 0 -39 33 -39 61 0 33 25 89 40 89 6 0 10 5 10 11 0 17 69 99 83 99 7 0 23 16 36 36 44 64 109 106 112 72z m-158 -634 c7 -12 35 -62 64 -111 28 -48 55 -101 59 -117 7 -29 7 -29 -29 -22 -20 4 -56 16 -79 26 -24 11 -48 20 -55 20 -11 0 -122 47 -131 55 -11 10 29 88 71 143 48 61 50 62 69 46 10 -10 24 -28 31 -40z" />
</ns0:g>
</g><g transform="translate(-0.9499852775757063,2608.288011934062) scale(0.031285632952386955)"><ns0:metadata>
Created by potrace 1.16, written by Peter Selinger 2001-2019
</ns0:metadata>
<ns0:g transform="translate(0.000000,214.000000) scale(0.100000,-0.100000)" fill="#000000" stroke="none">
<ns0:path d="M1324 1638 c-4 -6 -10 -25 -13 -41 -5 -23 -14 -33 -36 -38 -16 -5 -33 -15 -38 -24 -7 -14 -11 -13 -34 5 -53 42 -110 24 -197 -63 -48 -47 -66 -72 -71 -100 -18 -93 68 -171 160 -146 43 12 62 4 43 -19 -14 -18 -35 -58 -68 -132 -11 -25 -47 -97 -81 -160 -34 -63 -76 -158 -94 -210 -18 -52 -44 -122 -58 -155 -15 -33 -27 -67 -27 -76 0 -19 36 -59 53 -59 28 0 74 66 91 130 20 77 77 200 101 220 18 15 65 106 65 126 0 6 7 17 15 24 8 7 24 33 35 57 11 25 30 53 43 64 14 10 30 39 37 63 7 25 19 51 26 57 8 6 14 16 14 21 0 5 9 28 21 51 19 39 31 75 80 231 19 59 25 139 13 170 -7 19 -69 22 -80 4z m-168 -163 c7 -17 -18 -76 -41 -95 -8 -7 -15 -18 -15 -25 0 -7 -8 -22 -17 -34 -17 -20 -19 -21 -40 -6 -26 18 -31 63 -8 71 8 4 15 12 15 19 0 7 12 21 28 31 15 9 33 26 40 36 16 22 31 23 38 3z" />
<ns0:path d="M1354 849 c-3 -6 2 -35 11 -64 l18 -52 -26 -54 c-15 -29 -27 -60 -27 -69 0 -21 -81 -83 -93 -71 -5 5 5 33 24 67 42 76 89 171 89 180 0 14 -32 43 -43 39 -7 -2 -24 -6 -39 -9 -21 -5 -35 -20 -58 -64 -17 -31 -35 -64 -40 -72 -55 -85 -81 -143 -78 -178 3 -33 8 -39 48 -59 57 -28 99 -29 153 -3 62 30 72 40 111 111 66 121 96 251 64 276 -12 8 -86 33 -101 33 -3 0 -9 -5 -13 -11z" />
</ns0:g>
</g></svg>