<?xml version='1.0' encoding='utf-8'?>
<svg xmlns:ns0="http://www.w3.org/2000/svg" xmlns="http://www.w3.org/2000/svg" width="235" height="152" viewBox="0 0 235 152"><g transform="translate(2.4607728268763935,-62.80058938331527) scale(0.031285632952386955)"><ns0:metadata>
Created by potrace 1.16, written by Peter Selinger 2001-2019
</ns0:metadata>
<ns0:g transform="translate(0.000000,212.000000) scale(0.100000,-0.100000)" fill="#000000" stroke="none">
<ns0:path d="M911 1561 c-36 -36 -27 -59 32 -86 28 -14 58 -25 65 -25 22 0 97 -56 111 -83 35 -66 -27 -206 -136 -304 -71 -64 -113 -93 -138 -93 -9 0 -9 16 2 72 19 100 -6 455 -34 475 -19 15 -50 8 -75 -16 -19 -19 -34 -150 -31 -276 7 -286 8 -626 1 -715 -9 -117 -1 -151 38 -169 33 -15 60 3 68 43 4 17 6 123 6 236 0 113 -1 215 0 228 0 18 15 29 83 61 45 21 99 53 119 72 20 19 50 44 66 56 16 12 37 38 46 57 9 19 21 38 26 41 6 3 15 26 21 51 6 24 15 44 19 44 13 0 25 60 21 105 -4 48 -34 110 -70 146 -86 85 -197 123 -240 80z" />
</ns0:g>
</g><g transform="translate(2.497712990787136,38.68458256279564) scale(0.031285632952386955)"><ns0:metadata>
Created by potrace 1.16, written by Peter Selinger 2001-2019
</ns0:metadata>
<ns0:g transform="translate(0.000000,208.000000) scale(0.100000,-0.100000)" fill="#000000" stroke="none">
<ns0:path d="M1226 1490 c-16 -10 -33 -17 -37 -15 -6 4 -35 -5 -104 -34 -18 -8 -37 -13 -122 -36 -13 -4 -23 -11 -23 -17 0 -6 -15 -30 -34 -52 -39 -48 -60 -93 -82 -180 -9 -34 -19 -65 -24 -71 -18 -23 -42 -119 -42 -171 -1 -81 38 -125 137 -155 49 -14 154 -14 168 0 6 6 21 11 33 11 45 0 132 42 181 88 59 57 118 129 127 158 8 26 -2 54 -18 54 -12 0 -88 -65 -167 -142 -21 -21 -44 -38 -51 -38 -7 0 -40 -9 -72 -20 -102 -35 -180 -20 -220 42 -14 22 -13 32 21 133 59 182 63 191 111 243 39 41 57 52 102 62 30 7 66 23 80 35 14 13 45 31 70 41 59 22 64 28 56 58 -8 32 -46 34 -90 6z" />
</ns0:g>
</g><g transform="translate(1.6193239368514583,116.07017308643907) scale(0.031285632952386955)"><ns0:metadata>
Created by potrace 1.16, written by Peter Selinger 2001-2019
</ns0:metadata>
<ns0:g transform="translate(0.000000,207.000000) scale(0.100000,-0.100000)" fill="#000000" stroke="none">
<ns0:path d="M1176 1670 c-26 -11 -80 -26 -120 -35 -54 -12 -82 -25 -117 -55 -46 -39 -47 -39 -64 -20 -21 23 -63 26 -88 7 -15 -10 -21 -53 -37 -272 -11 -143 -27 -312 -36 -375 -17 -119 -22 -193 -23 -342 l-1 -86 -45 -18 c-32 -12 -45 -22 -43 -33 3 -12 16 -16 58 -17 30 0 63 -4 72 -8 26 -12 52 -3 63 21 6 15 36 32 97 55 66 24 102 45 141 81 28 27 71 62 94 79 51 37 147 156 173 212 21 47 40 132 40 180 0 44 -55 108 -108 125 -21 7 -62 12 -91 10 -51 -4 -52 -4 -46 21 3 14 28 46 55 72 28 25 50 53 50 61 0 8 15 29 34 45 20 17 50 63 71 107 31 67 35 86 33 139 l-3 61 -55 1 c-33 1 -75 -6 -104 -16z m60 -94 c6 -16 -68 -131 -143 -220 -55 -66 -88 -117 -128 -193 -44 -84 21 -114 188 -87 52 9 87 -15 87 -59 0 -39 -60 -160 -109 -219 -54 -66 -191 -187 -236 -210 -22 -11 -53 -30 -69 -41 l-28 -20 4 169 c3 93 15 237 26 319 12 83 26 188 33 235 37 271 29 249 90 234 18 -4 36 2 64 20 21 14 43 26 50 26 7 0 18 7 25 15 7 8 22 15 34 16 11 0 37 6 56 13 47 18 50 18 56 2z" />
</ns0:g>
</g><g transform="translate(-1.0418188213616304,195.9613967437108) scale(0.031285632952386955)"><ns0:metadata>
Created by potrace 1.16, written by Peter Selinger 2001-2019
</ns0:metadata>
<ns0:g transform="translate(0.000000,208.000000) scale(0.100000,-0.100000)" fill="#000000" stroke="none">
<ns0:path d="M1333 1820 c-31 -13 -43 -41 -43 -98 0 -59 -35 -242 -55 -292 -19 -46 -44 -146 -59 -240 -7 -41 -19 -97 -28 -125 -24 -74 -55 -222 -57 -276 -1 -8 -7 -23 -13 -32 -12 -15 -17 -15 -64 1 -28 10 -64 27 -80 37 -53 35 -119 65 -143 65 -23 0 -23 2 -17 50 4 28 11 61 16 73 5 12 14 74 20 136 7 63 19 125 26 137 8 12 18 41 22 65 5 31 14 47 30 55 13 6 32 21 43 33 11 12 31 28 44 37 14 9 25 23 25 30 0 8 6 23 12 34 21 33 -3 47 -46 26 -20 -9 -36 -21 -36 -25 0 -4 -11 -13 -25 -19 -21 -10 -25 -9 -25 4 0 9 10 24 22 34 l22 18 -37 41 c-20 23 -37 48 -37 56 0 24 -53 19 -78 -7 -17 -19 -22 -41 -28 -136 -7 -109 -8 -114 -36 -137 -16 -14 -34 -25 -39 -25 -6 0 -75 -43 -154 -95 -79 -52 -164 -105 -189 -118 -73 -36 -84 -96 -27 -144 57 -48 160 -15 174 56 4 16 18 38 33 48 14 10 50 41 79 69 29 27 69 55 89 61 l36 11 0 -65 c0 -72 -6 -88 -60 -153 -47 -56 -83 -128 -105 -205 -21 -78 -62 -189 -107 -292 -10 -23 -18 -46 -18 -51 0 -5 -11 -29 -25 -53 -40 -72 -56 -112 -50 -127 4 -11 8 -11 24 0 36 25 111 131 147 208 42 87 43 89 68 124 10 15 30 55 43 89 21 55 23 58 18 22 -17 -119 -25 -222 -24 -325 1 -143 11 -216 32 -238 16 -16 19 -15 42 13 23 29 24 35 20 155 -3 122 17 338 36 388 7 18 14 22 27 17 9 -4 42 -13 72 -20 64 -14 183 -47 189 -52 9 -7 -1 -136 -13 -171 -13 -38 -20 -197 -10 -244 7 -36 29 -42 58 -15 22 19 26 36 36 122 6 55 14 118 19 140 5 22 15 72 21 110 7 39 23 111 36 160 12 50 26 116 30 149 8 68 25 90 82 105 25 7 43 19 50 35 9 19 92 86 108 86 9 0 4 -92 -6 -111 -13 -24 -61 -247 -58 -269 3 -25 -12 -90 -22 -90 -5 0 -25 16 -44 35 -40 39 -70 44 -103 16 -46 -38 -31 -66 90 -173 l38 -33 -14 -65 c-23 -98 -36 -169 -43 -232 -6 -48 -4 -58 8 -58 19 0 37 23 67 85 37 78 40 86 52 153 10 55 14 62 35 62 12 0 25 -4 28 -9 9 -13 89 -51 109 -51 10 0 33 -7 53 -15 30 -12 106 -27 261 -50 24 -4 77 -4 118 0 l75 7 0 43 0 42 -72 -3 c-160 -6 -462 82 -533 156 l-25 26 20 115 c11 63 25 143 30 179 6 36 24 119 41 185 45 175 47 275 8 275 -6 0 -58 -36 -115 -80 -106 -82 -149 -108 -161 -97 -8 9 15 140 33 187 7 19 23 76 34 125 11 50 25 106 29 125 27 108 28 122 16 163 -13 45 -31 54 -72 37z" />
</ns0:g>
</g><g transform="translate(2.3909670919256314,294.9564785076451) scale(0.031285632952386955)"><ns0:metadata>
Created by potrace 1.16, written by Peter Selinger 2001-2019
</ns0:metadata>
<ns0:g transform="translate(0.000000,206.000000) scale(0.100000,-0.100000)" fill="#000000" stroke="none">
<ns0:path d="M1074 1684 c-21 -8 -61 -19 -89 -24 -86 -17 -234 -102 -310 -177 -26 -26 -53 -42 -77 -47 -20 -3 -38 -13 -41 -21 -10 -26 12 -81 38 -93 34 -16 47 -72 41 -189 -4 -91 -19 -194 -31 -212 -5 -10 -27 -177 -26 -206 0 -11 -7 -43 -15 -71 -8 -28 -19 -87 -24 -130 -7 -66 -6 -82 7 -96 9 -10 22 -18 30 -18 24 0 53 39 53 71 0 28 3 31 23 25 63 -20 104 -18 182 9 86 30 158 67 178 94 7 9 21 21 32 27 11 6 26 23 33 37 7 14 21 28 31 32 10 3 32 28 50 55 18 28 37 50 42 50 6 0 21 25 35 55 27 59 41 168 30 230 -10 53 -53 69 -173 67 -51 0 -93 0 -93 2 0 3 51 71 72 96 7 8 34 44 60 80 26 36 56 77 68 92 34 44 70 131 70 170 0 57 -41 96 -106 101 -29 3 -68 -2 -90 -9z m103 -113 c-5 -39 -67 -137 -170 -269 -56 -71 -235 -242 -254 -242 -10 0 -13 31 -12 128 0 70 -4 139 -10 155 -10 25 -7 31 27 65 21 20 41 44 44 53 3 8 57 41 119 72 108 54 166 73 233 76 28 1 28 0 23 -38z m-6 -522 c11 -11 18 -27 15 -36 -3 -8 -6 -25 -6 -37 0 -33 -134 -204 -229 -290 -25 -23 -53 -49 -64 -59 -10 -11 -40 -26 -65 -35 -26 -8 -57 -22 -69 -30 -16 -10 -34 -12 -59 -7 l-36 6 5 47 c12 107 37 270 43 286 4 10 13 14 24 11 11 -3 40 9 76 33 87 57 200 120 226 125 64 12 118 7 139 -14z" />
</ns0:g>
</g><g transform="translate(0.15792542719771063,383.89708902278414) scale(0.031285632952386955)"><ns0:metadata>
Created by potrace 1.16, written by Peter Selinger 2001-2019
</ns0:metadata>
<ns0:g transform="translate(0.000000,205.000000) scale(0.100000,-0.100000)" fill="#000000" stroke="none">
<ns0:path d="M800 1513 c-8 -16 -15 -39 -16 -53 -2 -14 -8 -45 -13 -70 -6 -25 -13 -119 -16 -210 -8 -239 -16 -331 -31 -369 -8 -18 -11 -43 -9 -55 5 -19 1 -46 -41 -226 -27 -118 -27 -120 -9 -140 21 -23 58 -26 74 -6 6 7 18 49 27 92 25 129 46 204 55 204 5 0 26 -6 46 -14 21 -8 65 -22 98 -31 33 -10 86 -35 118 -57 32 -21 60 -38 63 -38 2 0 33 -21 69 -46 74 -51 108 -55 113 -14 2 21 -13 41 -87 109 -93 86 -116 100 -241 145 -110 40 -120 45 -120 55 0 10 47 66 110 132 56 59 114 130 129 158 7 14 19 33 26 41 7 8 39 66 71 128 51 101 56 115 45 138 -25 55 -98 2 -152 -109 -17 -34 -41 -80 -55 -102 -13 -22 -27 -47 -31 -55 -3 -8 -9 -17 -13 -20 -3 -3 -22 -27 -42 -55 -50 -68 -104 -119 -118 -110 -7 4 -9 21 -6 44 3 20 8 88 11 151 6 109 19 250 29 314 3 17 -2 45 -9 63 -18 43 -56 46 -75 6z" />
</ns0:g>
</g><g transform="translate(-0.48621965369574127,487.8035857302656) scale(0.031285632952386955)"><ns0:metadata>
Created by potrace 1.16, written by Peter Selinger 2001-2019
</ns0:metadata>
<ns0:g transform="translate(0.000000,210.000000) scale(0.100000,-0.100000)" fill="#000000" stroke="none">
<ns0:path d="M756 1009 c-35 -51 -5 -121 57 -133 20 -4 50 0 74 8 37 13 223 15 348 4 l30 -3 -2 63 c-1 35 -3 65 -5 67 -2 1 -112 6 -244 10 l-242 7 -16 -23z" />
</ns0:g>
</g><g transform="translate(0.5264692036029714,567.4991441653874) scale(0.031285632952386955)"><ns0:metadata>
Created by potrace 1.16, written by Peter Selinger 2001-2019
</ns0:metadata>
<ns0:g transform="translate(0.000000,208.000000) scale(0.100000,-0.100000)" fill="#000000" stroke="none">
<ns0:path d="M791 1371 c-12 -12 -21 -31 -21 -43 0 -13 -12 -50 -25 -83 -28 -68 -32 -88 -11 -59 26 35 29 5 7 -68 -23 -79 -27 -158 -11 -204 18 -51 72 -78 163 -83 l79 -3 -7 -52 c-4 -28 -16 -76 -26 -106 -23 -66 -24 -100 -4 -100 33 0 99 96 130 190 14 43 32 83 38 88 7 5 36 15 65 22 59 14 68 26 74 101 3 39 0 45 -26 58 -27 13 -31 12 -48 -9 -10 -12 -18 -28 -18 -36 0 -8 -4 -14 -10 -14 -13 0 -13 15 -1 38 5 9 15 39 22 66 7 27 26 64 42 83 33 37 30 58 -8 73 -93 35 -128 -9 -166 -210 -7 -36 -16 -67 -20 -70 -5 -3 -36 -5 -69 -4 -82 2 -104 21 -95 83 4 25 16 79 27 120 11 42 22 85 25 96 2 11 -2 47 -10 80 -13 56 -15 60 -45 63 -21 2 -37 -3 -51 -17z" />
</ns0:g>
</g><g transform="translate(-2.3695294890799232,653.4788588417581) scale(0.031285632952386955)"><ns0:metadata>
Created by potrace 1.16, written by Peter Selinger 2001-2019
</ns0:metadata>
<ns0:g transform="translate(0.000000,213.000000) scale(0.100000,-0.100000)" fill="#000000" stroke="none">
<ns0:path d="M974 1438 c-42 -60 -75 -162 -85 -263 -12 -131 -45 -274 -105 -453 -35 -104 -32 -127 17 -173 70 -65 142 -57 276 33 122 81 117 142 -24 283 -29 29 -53 57 -53 63 0 5 -7 15 -16 23 -11 9 -14 22 -9 48 4 20 9 51 10 70 9 84 31 185 46 206 3 6 14 36 23 68 16 54 16 61 1 83 -17 26 -66 33 -81 12z m-12 -615 c10 -9 18 -22 18 -29 0 -7 6 -17 13 -21 8 -4 24 -22 37 -40 27 -38 23 -46 -49 -92 -53 -35 -88 -39 -98 -14 -6 14 30 183 44 206 6 11 15 9 35 -10z" />
</ns0:g>
</g><g transform="translate(1.5061444964952102,743.088061444938) scale(0.031285632952386955)"><ns0:metadata>
Created by potrace 1.16, written by Peter Selinger 2001-2019
</ns0:metadata>
<ns0:g transform="translate(0.000000,213.000000) scale(0.100000,-0.100000)" fill="#000000" stroke="none">
<ns0:path d="M1097 1492 c-10 -10 -17 -22 -17 -26 0 -5 -6 -22 -14 -39 -8 -18 -24 -61 -35 -97 -26 -84 -40 -126 -61 -175 -10 -22 -21 -51 -25 -65 -4 -14 -20 -53 -36 -86 -20 -45 -34 -63 -52 -68 -31 -7 -44 -36 -23 -52 20 -14 20 -32 0 -101 -33 -113 -3 -192 93 -247 l63 -36 37 19 c118 61 197 312 132 418 -21 34 -33 40 -44 23 -4 -7 -12 -7 -25 0 -10 5 -28 10 -40 10 -28 0 -34 22 -17 62 8 18 24 60 36 93 12 33 28 74 36 90 7 17 21 52 31 78 9 26 21 50 25 53 5 3 9 16 9 28 0 13 9 35 20 49 28 35 26 65 -6 77 -38 15 -69 12 -87 -8z m-13 -618 c9 -8 16 -25 16 -37 -1 -31 -53 -145 -86 -186 l-27 -34 -29 32 c-31 35 -32 61 -7 151 25 87 28 90 74 90 26 0 50 -6 59 -16z" />
</ns0:g>
</g><g transform="translate(1.074766316582327,830.5685441227239) scale(0.031285632952386955)"><ns0:metadata>
Created by potrace 1.16, written by Peter Selinger 2001-2019
</ns0:metadata>
<ns0:g transform="translate(0.000000,211.000000) scale(0.100000,-0.100000)" fill="#000000" stroke="none">
<ns0:path d="M1188 1760 c-21 -4 -46 -14 -55 -22 -10 -9 -36 -21 -58 -27 -45 -12 -113 -67 -117 -95 -2 -11 8 -27 23 -38 l26 -20 49 26 c27 14 67 39 89 55 22 16 55 32 73 36 28 6 32 4 32 -15 0 -28 -64 -156 -116 -235 -98 -146 -113 -171 -113 -192 -1 -31 15 -38 89 -38 64 0 65 -1 68 -28 5 -41 -25 -160 -58 -234 -44 -96 -198 -243 -256 -243 -8 0 1 215 15 338 8 63 17 101 31 120 33 46 77 280 59 315 -30 57 -88 79 -128 49 -21 -17 -23 -28 -27 -113 -4 -129 -7 -162 -32 -337 -12 -84 -22 -207 -23 -273 -1 -65 -5 -122 -10 -125 -5 -3 -16 -1 -25 4 -19 11 -104 -12 -116 -31 -26 -41 18 -68 114 -72 56 -2 75 -7 83 -20 5 -10 18 -27 27 -39 25 -31 52 -11 56 41 3 38 5 41 65 69 87 40 206 158 246 245 42 88 72 210 74 294 2 61 -1 75 -23 104 -14 18 -35 37 -47 42 -29 11 -30 52 -3 79 11 11 20 23 20 26 0 14 53 110 71 130 35 38 55 187 29 219 -13 16 -67 18 -132 5z" />
</ns0:g>
</g><g transform="translate(0.2365448300950561,917.1472148404664) scale(0.031285632952386955)"><ns0:metadata>
Created by potrace 1.16, written by Peter Selinger 2001-2019
</ns0:metadata>
<ns0:g transform="translate(0.000000,210.000000) scale(0.100000,-0.100000)" fill="#000000" stroke="none">
<ns0:path d="M1490 1616 c-13 -10 -110 -196 -110 -210 0 -7 -69 -164 -110 -251 -50 -105 -77 -169 -84 -199 -4 -17 -16 -42 -27 -57 -10 -15 -19 -33 -19 -40 0 -12 -48 -100 -60 -109 -3 -3 -14 -26 -24 -52 -9 -26 -27 -59 -39 -74 -27 -35 -77 -141 -77 -164 0 -21 45 -60 69 -60 24 1 45 21 66 65 10 22 28 56 41 75 12 19 25 51 29 70 4 19 13 42 20 50 7 8 21 35 31 60 9 25 23 52 31 61 7 8 13 19 13 23 0 4 16 40 35 79 19 39 35 76 35 83 0 7 11 32 25 55 14 24 25 51 25 60 0 9 7 22 16 30 8 7 13 21 11 31 -3 10 -1 21 4 24 13 7 93 169 109 220 7 21 26 63 43 92 23 41 28 60 23 86 -9 48 -48 74 -76 52z m-249 -689 c-8 -8 -11 -7 -11 4 0 20 13 34 18 19 3 -7 -1 -17 -7 -23z" />
</ns0:g>
</g><g transform="translate(-0.9600514118658339,1010.0350880724816) scale(0.031285632952386955)"><ns0:metadata>
Created by potrace 1.16, written by Peter Selinger 2001-2019
</ns0:metadata>
<ns0:g transform="translate(0.000000,211.000000) scale(0.100000,-0.100000)" fill="#000000" stroke="none">
<ns0:path d="M1535 1475 c-22 -25 -68 -73 -103 -107 -35 -35 -68 -72 -75 -84 -7 -12 -58 -82 -114 -155 -232 -305 -276 -359 -291 -359 -10 0 -24 27 -42 80 -18 52 -43 103 -61 125 -10 11 -31 47 -49 80 -46 86 -111 185 -122 185 -5 0 -22 -7 -37 -15 -46 -23 -53 -64 -21 -117 11 -18 20 -38 20 -44 0 -13 78 -134 96 -149 7 -5 35 -55 64 -110 28 -55 55 -104 60 -110 4 -5 11 -24 14 -42 9 -38 48 -83 74 -83 21 0 42 18 42 36 0 11 49 80 225 323 11 15 36 52 56 82 21 30 44 61 53 68 9 7 16 17 16 22 0 9 107 177 140 220 69 89 110 158 110 184 0 25 -14 17 -55 -30z" />
</ns0:g>
</g><g transform="translate(-2.4010114325404857,1097.140781078461) scale(0.031285632952386955)"><ns0:metadata>
Created by potrace 1.16, written by Peter Selinger 2001-2019
</ns0:metadata>
<ns0:g transform="translate(0.000000,205.000000) scale(0.100000,-0.100000)" fill="#000000" stroke="none">
<ns0:path d="M802 1318 c-45 -67 -75 -135 -68 -153 5 -14 9 -15 21 -5 12 10 15 10 15 -3 0 -9 -4 -27 -10 -41 -5 -14 -16 -76 -25 -138 -17 -125 -33 -223 -41 -251 -5 -15 -8 -16 -20 -6 -29 24 -38 -4 -24 -78 21 -111 57 -151 107 -118 25 17 27 22 42 145 23 192 62 413 78 443 9 18 20 52 24 77 4 25 10 62 14 82 4 20 5 48 1 62 -5 22 -12 26 -46 26 -35 0 -42 -5 -68 -42z" />
</ns0:g>
</g><g transform="translate(-2.8037853160483905,1192.8766143703076) scale(0.031285632952386955)"><ns0:metadata>
Created by potrace 1.16, written by Peter Selinger 2001-2019
</ns0:metadata>
<ns0:g transform="translate(0.000000,211.000000) scale(0.100000,-0.100000)" fill="#000000" stroke="none">
<ns0:path d="M1255 970 c-3 -5 -20 -9 -38 -8 -53 2 -72 -16 -106 -99 -34 -84 -40 -155 -16 -186 7 -11 32 -23 55 -28 37 -9 47 -6 88 19 41 25 48 35 64 89 16 55 17 66 5 102 -8 23 -11 45 -6 53 5 7 9 25 9 41 0 22 -4 27 -24 27 -14 0 -28 -4 -31 -10z" />
</ns0:g>
</g><g transform="translate(0.8605310321832462,1277.6075342387157) scale(0.031285632952386955)"><ns0:metadata>
Created by potrace 1.16, written by Peter Selinger 2001-2019
</ns0:metadata>
<ns0:g transform="translate(0.000000,207.000000) scale(0.100000,-0.100000)" fill="#000000" stroke="none">
<ns0:path d="M1467 1412 c-10 -10 -17 -21 -17 -24 0 -10 49 -15 53 -5 2 6 11 6 25 -2 18 -10 22 -9 22 3 0 9 -13 22 -30 31 -36 19 -34 19 -53 -3z" />
<ns0:path d="M840 1261 c0 -6 -7 -11 -15 -11 -31 0 -31 -92 0 -104 9 -3 35 1 58 9 99 34 165 7 152 -63 -21 -114 -213 -390 -300 -431 -44 -21 -115 -92 -115 -115 0 -39 85 -61 111 -29 8 9 42 28 75 44 34 15 65 32 68 38 4 6 20 11 35 11 16 0 46 6 67 14 22 7 81 17 132 21 70 5 95 11 99 23 4 8 -1 20 -11 27 -22 16 -181 27 -229 16 -51 -12 -55 2 -14 52 19 23 37 52 41 64 4 12 21 33 37 47 31 26 81 125 94 184 19 90 -25 182 -96 196 -68 14 -189 19 -189 7z" />
</ns0:g>
</g><g transform="translate(-0.8902172175216378,1368.8735964636921) scale(0.031285632952386955)"><ns0:metadata>
Created by potrace 1.16, written by Peter Selinger 2001-2019
</ns0:metadata>
<ns0:g transform="translate(0.000000,211.000000) scale(0.100000,-0.100000)" fill="#000000" stroke="none">
<ns0:path d="M1073 1555 c-11 -8 -28 -32 -36 -54 -9 -22 -21 -42 -27 -46 -5 -3 -10 -14 -10 -23 0 -10 -21 -58 -46 -107 -25 -50 -57 -112 -70 -140 -59 -120 -93 -183 -122 -230 -49 -78 -125 -187 -144 -205 -10 -9 -24 -32 -32 -52 -9 -20 -21 -38 -28 -41 -29 -11 17 -36 71 -39 l54 -3 31 62 c18 33 47 81 64 105 52 69 80 110 100 148 40 74 112 219 112 225 0 4 13 25 29 48 15 23 41 69 56 102 15 33 43 92 61 131 36 76 41 103 22 122 -16 16 -59 15 -85 -3z" />
</ns0:g>
</g><g transform="translate(-0.24177467951955123,1455.5292659315521) scale(0.031285632952386955)"><ns0:metadata>
Created by potrace 1.16, written by Peter Selinger 2001-2019
</ns0:metadata>
<ns0:g transform="translate(0.000000,213.000000) scale(0.100000,-0.100000)" fill="#000000" stroke="none">
<ns0:path d="M1263 1463 c-38 -7 -193 -184 -228 -261 -14 -30 -14 -43 5 -145 28 -152 36 -189 44 -208 7 -16 -36 -71 -124 -159 -14 -14 -37 -47 -50 -73 l-25 -48 23 -20 c15 -11 38 -18 60 -18 21 0 96 -4 167 -9 143 -11 238 0 271 30 16 14 21 44 15 87 0 4 -26 28 -58 52 -87 68 -133 119 -133 148 0 14 34 94 75 178 41 84 79 170 83 190 8 39 -3 130 -18 148 -5 6 -11 28 -15 50 -12 63 -24 71 -92 58z m15 -168 c32 -69 -10 -190 -94 -275 -21 -21 -30 -3 -44 82 l-12 68 62 75 c35 41 66 75 70 75 4 0 12 -11 18 -25z m-75 -604 c31 -27 66 -52 77 -56 29 -9 21 -37 -14 -46 -16 -5 -51 -4 -79 2 -27 5 -64 9 -81 9 -51 0 -63 13 -41 47 32 50 66 93 74 93 4 0 33 -22 64 -49z" />
</ns0:g>
</g><g transform="translate(2.141603888066072,1541.4966218055915) scale(0.031285632952386955)"><ns0:metadata>
Created by potrace 1.16, written by Peter Selinger 2001-2019
</ns0:metadata>
<ns0:g transform="translate(0.000000,206.000000) scale(0.100000,-0.100000)" fill="#000000" stroke="none">
<ns0:path d="M1199 1320 c-33 -17 -38 -26 -53 -87 -9 -37 -20 -99 -26 -138 -13 -100 -45 -249 -69 -325 -12 -36 -21 -79 -21 -97 0 -18 -6 -52 -14 -75 -8 -24 -17 -61 -21 -83 -3 -22 -8 -50 -11 -62 -3 -17 2 -23 27 -28 57 -13 78 27 120 230 10 50 27 119 37 155 11 36 30 112 42 170 13 58 29 112 36 120 6 8 15 33 19 55 3 22 14 48 22 57 18 20 13 48 -17 96 -23 37 -23 37 -71 12z" />
</ns0:g>
</g><g transform="translate(1.5453964513020537,1640.8155970643434) scale(0.031285632952386955)"><ns0:metadata>
Created by potrace 1.16, written by Peter Selinger 2001-2019
</ns0:metadata>
<ns0:g transform="translate(0.000000,207.000000) scale(0.100000,-0.100000)" fill="#000000" stroke="none">
<ns0:path d="M1225 1568 c-32 -17 -85 -71 -85 -85 0 -7 -4 -13 -10 -13 -5 0 -10 9 -10 20 0 17 -7 20 -53 20 -29 0 -58 -5 -65 -12 -16 -16 -15 -85 3 -144 19 -64 19 -94 -4 -123 -17 -23 -25 -24 -127 -26 -128 -1 -184 -19 -184 -57 0 -42 17 -48 132 -48 64 0 108 -4 108 -10 0 -5 -19 -48 -42 -95 -29 -58 -48 -85 -60 -85 -16 0 -38 -27 -38 -48 0 -5 9 -19 20 -31 21 -25 10 -28 110 25 31 16 99 112 139 196 37 77 44 78 85 5 20 -35 36 -69 36 -75 0 -6 6 -17 14 -25 8 -8 23 -30 33 -49 72 -139 71 -138 108 -138 34 0 35 1 35 43 0 41 -8 61 -73 177 -85 152 -86 157 -39 176 15 6 50 21 77 32 58 24 96 65 77 84 -9 9 -30 7 -95 -11 -129 -36 -124 -35 -131 -13 -8 23 35 126 81 197 47 70 50 85 23 107 -25 21 -37 22 -65 6z" />
</ns0:g>
</g><g transform="translate(-2.6753971498029614,1720.8967986639445) scale(0.031285632952386955)"><ns0:metadata>
Created by potrace 1.16, written by Peter Selinger 2001-2019
</ns0:metadata>
<ns0:g transform="translate(0.000000,208.000000) scale(0.100000,-0.100000)" fill="#000000" stroke="none">
<ns0:path d="M912 1298 c-29 -8 -72 -53 -72 -77 0 -10 61 -61 74 -61 4 0 22 12 41 26 24 18 43 24 66 22 48 -5 55 -24 42 -112 -17 -121 -150 -366 -198 -366 -12 0 -24 -9 -102 -76 -48 -40 -56 -79 -25 -107 26 -24 59 -21 96 9 173 141 192 152 346 204 115 39 130 47 130 65 0 27 -86 22 -193 -12 -44 -13 -82 -22 -85 -18 -5 5 19 57 57 125 10 17 23 48 45 102 8 20 17 65 21 101 6 54 4 70 -14 106 -30 58 -72 82 -142 79 -30 -1 -69 -6 -87 -10z" />
</ns0:g>
</g><g transform="translate(2.814033161228565,1805.623233049292) scale(0.031285632952386955)"><ns0:metadata>
Created by potrace 1.16, written by Peter Selinger 2001-2019
</ns0:metadata>
<ns0:g transform="translate(0.000000,208.000000) scale(0.100000,-0.100000)" fill="#000000" stroke="none">
<ns0:path d="M862 1397 c-24 -13 -29 -23 -42 -94 -4 -26 -13 -61 -18 -78 -6 -16 -16 -86 -23 -154 l-11 -123 24 -25 c31 -31 85 -43 166 -38 80 6 86 -7 38 -77 -20 -29 -54 -78 -74 -108 -21 -30 -58 -75 -82 -100 -25 -25 -53 -54 -62 -65 -9 -11 -24 -26 -33 -33 -37 -31 3 -84 49 -67 30 11 236 211 236 229 0 6 16 31 36 56 49 62 64 102 64 175 0 83 -8 89 -122 86 -141 -3 -143 -2 -106 108 26 80 35 91 96 122 26 13 73 44 105 68 58 45 72 76 44 99 -18 15 -78 -2 -114 -32 -15 -13 -41 -26 -58 -30 -28 -7 -29 -7 -12 12 18 20 23 57 9 66 -20 12 -89 14 -110 3z" />
</ns0:g>
</g><g transform="translate(2.5489432359459556,1903.5671283398697) scale(0.031285632952386955)"><ns0:metadata>
Created by potrace 1.16, written by Peter Selinger 2001-2019
</ns0:metadata>
<ns0:g transform="translate(0.000000,207.000000) scale(0.100000,-0.100000)" fill="#000000" stroke="none">
<ns0:path d="M1360 1547 c-12 -7 -32 -30 -44 -52 -11 -21 -30 -47 -41 -56 -11 -9 -26 -37 -33 -62 -19 -63 -36 -76 -62 -46 -10 13 -19 36 -20 50 0 18 -8 29 -25 37 -52 24 -125 7 -125 -28 0 -23 25 -76 38 -82 5 -1 21 -22 35 -45 33 -52 29 -55 -113 -58 -129 -3 -140 -7 -140 -51 0 -28 5 -36 35 -50 41 -19 134 -14 204 11 23 8 41 13 41 11 0 -3 -31 -73 -82 -186 -11 -25 -33 -65 -50 -89 -34 -52 -35 -94 -1 -99 25 -4 73 24 73 43 0 7 18 36 40 64 22 28 52 82 66 120 14 38 34 77 44 86 16 14 18 14 32 -7 18 -28 42 -81 94 -208 57 -142 65 -150 104 -108 20 22 27 72 11 82 -4 3 -18 34 -31 68 -43 122 -73 193 -97 230 -35 57 -31 73 25 93 26 10 65 19 87 20 36 2 43 -2 69 -37 25 -35 28 -43 17 -60 -14 -23 -6 -37 10 -21 6 6 12 44 14 83 3 103 -9 115 -109 113 -53 -1 -76 3 -76 11 0 6 16 36 35 66 40 62 48 85 43 125 -4 34 -35 48 -68 32z" />
</ns0:g>
</g><g transform="translate(2.9027766600061113,1993.1890399812287) scale(0.031285632952386955)"><ns0:metadata>
Created by potrace 1.16, written by Peter Selinger 2001-2019
</ns0:metadata>
<ns0:g transform="translate(0.000000,206.000000) scale(0.100000,-0.100000)" fill="#000000" stroke="none">
<ns0:path d="M1261 1449 c-32 -26 -41 -81 -47 -284 -2 -88 -10 -214 -18 -280 -7 -66 -9 -130 -5 -141 4 -12 5 -31 3 -41 -3 -11 1 -25 10 -32 12 -10 20 -7 45 16 27 24 32 37 37 93 9 116 36 284 51 327 10 28 13 60 10 95 -4 29 -3 83 1 121 9 75 -3 118 -37 136 -25 14 -21 14 -50 -10z" />
</ns0:g>
</g><g transform="translate(1.8644004673786299,2079.237054624632) scale(0.031285632952386955)"><ns0:metadata>
Created by potrace 1.16, written by Peter Selinger 2001-2019
</ns0:metadata>
<ns0:g transform="translate(0.000000,210.000000) scale(0.100000,-0.100000)" fill="#000000" stroke="none">
<ns0:path d="M1248 963 c-59 -16 -138 -78 -138 -110 0 -9 16 -31 35 -49 l35 -33 -16 -40 c-48 -120 70 -135 147 -20 60 90 60 90 54 154 -5 56 -28 106 -51 111 -5 1 -35 -5 -66 -13z" />
</ns0:g>
</g><g transform="translate(-2.6092399107727715,2165.7500197995023) scale(0.031285632952386955)"><ns0:metadata>
Created by potrace 1.16, written by Peter Selinger 2001-2019
</ns0:metadata>
<ns0:g transform="translate(0.000000,213.000000) scale(0.100000,-0.100000)" fill="#000000" stroke="none">
<ns0:path d="M974 1438 c-42 -60 -75 -162 -85 -263 -12 -131 -45 -274 -105 -453 -35 -104 -32 -127 17 -173 70 -65 142 -57 276 33 122 81 117 142 -24 283 -29 29 -53 57 -53 63 0 5 -7 15 -16 23 -11 9 -14 22 -9 48 4 20 9 51 10 70 9 84 31 185 46 206 3 6 14 36 23 68 16 54 16 61 1 83 -17 26 -66 33 -81 12z m-12 -615 c10 -9 18 -22 18 -29 0 -7 6 -17 13 -21 8 -4 24 -22 37 -40 27 -38 23 -46 -49 -92 -53 -35 -88 -39 -98 -14 -6 14 30 183 44 206 6 11 15 9 35 -10z" />
</ns0:g>
</g><g transform="translate(2.1322666705869437,2256.9489259633765) scale(0.031285632952386955)"><ns0:metadata>
Created by potrace 1.16, written by Peter Selinger 2001-2019
</ns0:metadata>
<ns0:g transform="translate(0.000000,211.000000) scale(0.100000,-0.100000)" fill="#000000" stroke="none">
<ns0:path d="M1353 1632 c-22 -11 -36 -27 -44 -51 -6 -20 -18 -47 -26 -61 -7 -14 -29 -68 -47 -120 -52 -146 -78 -214 -87 -226 -5 -6 -59 -109 -120 -230 -61 -120 -115 -223 -120 -229 -5 -5 -9 -24 -9 -41 0 -38 29 -64 70 -64 37 0 47 10 54 56 8 45 54 149 86 194 11 16 20 33 20 38 0 6 29 60 65 120 63 107 148 291 160 348 4 16 22 68 41 115 19 48 34 98 34 111 0 21 -28 61 -41 57 -2 -1 -19 -9 -36 -17z" />
</ns0:g>
</g><g transform="translate(-0.5842662912061201,2340.849593813889) scale(0.031285632952386955)"><ns0:metadata>
Created by potrace 1.16, written by Peter Selinger 2001-2019
</ns0:metadata>
<ns0:g transform="translate(0.000000,206.000000) scale(0.100000,-0.100000)" fill="#000000" stroke="none">
<ns0:path d="M1199 1320 c-33 -17 -38 -26 -53 -87 -9 -37 -20 -99 -26 -138 -13 -100 -45 -249 -69 -325 -12 -36 -21 -79 -21 -97 0 -18 -6 -52 -14 -75 -8 -24 -17 -61 -21 -83 -3 -22 -8 -50 -11 -62 -3 -17 2 -23 27 -28 57 -13 78 27 120 230 10 50 27 119 37 155 11 36 30 112 42 170 13 58 29 112 36 120 6 8 15 33 19 55 3 22 14 48 22 57 18 20 13 48 -17 96 -23 37 -23 37 -71 12z" />
</ns0:g>
</g><g transform="translate(-0.6938168647250791,2440.32607732672) scale(0.031285632952386955)"><ns0:metadata>
Created by potrace 1.16, written by Peter Selinger 2001-2019
</ns0:metadata>
<ns0:g transform="translate(0.000000,205.000000) scale(0.100000,-0.100000)" fill="#000000" stroke="none">
<ns0:path d="M1039 1505 c-15 -8 -29 -21 -33 -30 -3 -8 -11 -15 -18 -15 -45 -2 -139 -132 -201 -280 -36 -84 -43 -286 -12 -333 26 -41 83 -70 125 -64 38 5 129 55 170 94 84 78 123 125 149 180 41 85 49 123 52 235 3 109 -5 128 -55 128 -39 1 -63 18 -71 53 -12 46 -56 59 -106 32z m6 -197 c6 0 37 2 69 3 l59 3 -1 -63 c0 -35 -6 -69 -11 -74 -6 -6 -11 -18 -11 -26 0 -8 -18 -38 -40 -67 -22 -29 -40 -58 -40 -64 0 -5 -4 -10 -9 -10 -6 0 -23 -13 -38 -28 -15 -16 -51 -45 -80 -66 -57 -41 -63 -39 -77 29 -11 53 37 236 75 284 11 13 19 29 19 35 0 25 35 56 55 49 11 -3 25 -6 30 -5z" />
</ns0:g>
</g><g transform="translate(-0.75079870279842,2517.6371929822512) scale(0.031285632952386955)"><ns0:metadata>
Created by potrace 1.16, written by Peter Selinger 2001-2019
</ns0:metadata>
<ns0:g transform="translate(0.000000,211.000000) scale(0.100000,-0.100000)" fill="#000000" stroke="none">
<ns0:path d="M1265 1399 c-45 -7 -79 -19 -155 -52 -14 -7 -40 -24 -58 -39 -18 -16 -37 -28 -42 -28 -4 0 -18 -16 -30 -35 -25 -40 -15 -71 25 -81 27 -7 45 2 141 69 62 42 102 60 92 40 -2 -5 -21 -44 -41 -88 -21 -44 -42 -87 -47 -95 -5 -8 -26 -43 -46 -78 -25 -44 -41 -61 -51 -58 -8 3 -18 6 -23 6 -5 0 -16 7 -24 16 -9 8 -35 17 -59 20 -23 2 -56 7 -73 10 -35 7 -104 -19 -104 -38 1 -55 45 -88 119 -88 41 0 108 -17 115 -29 3 -5 -7 -26 -22 -47 -15 -22 -45 -68 -67 -104 -43 -73 -65 -103 -112 -159 -18 -21 -33 -43 -33 -49 0 -15 50 -72 64 -72 6 0 29 9 50 21 21 11 44 18 52 15 18 -7 109 35 164 75 25 19 54 38 65 44 30 16 53 61 37 77 -9 9 -19 8 -47 -5 -31 -15 -39 -15 -58 -3 -33 21 -67 5 -67 -33 0 -33 -30 -57 -56 -47 -12 5 -11 13 9 48 143 252 141 249 202 255 28 2 99 5 159 6 109 2 133 10 102 36 -15 13 -84 27 -176 37 -30 3 -60 7 -67 9 -7 2 21 68 71 168 84 167 108 245 85 273 -13 15 -21 16 -94 3z" />
</ns0:g>
</g><g transform="translate(0.9884703785575084,2608.404529756348) scale(0.031285632952386955)"><ns0:metadata>
Created by potrace 1.16, written by Peter Selinger 2001-2019
</ns0:metadata>
<ns0:g transform="translate(0.000000,210.000000) scale(0.100000,-0.100000)" fill="#000000" stroke="none">
<ns0:path d="M1490 1616 c-13 -10 -110 -196 -110 -210 0 -7 -69 -164 -110 -251 -50 -105 -77 -169 -84 -199 -4 -17 -16 -42 -27 -57 -10 -15 -19 -33 -19 -40 0 -12 -48 -100 -60 -109 -3 -3 -14 -26 -24 -52 -9 -26 -27 -59 -39 -74 -27 -35 -77 -141 -77 -164 0 -21 45 -60 69 -60 24 1 45 21 66 65 10 22 28 56 41 75 12 19 25 51 29 70 4 19 13 42 20 50 7 8 21 35 31 60 9 25 23 52 31 61 7 8 13 19 13 23 0 4 16 40 35 79 19 39 35 76 35 83 0 7 11 32 25 55 14 24 25 51 25 60 0 9 7 22 16 30 8 7 13 21 11 31 -3 10 -1 21 4 24 13 7 93 169 109 220 7 21 26 63 43 92 23 41 28 60 23 86 -9 48 -48 74 -76 52z m-249 -689 c-8 -8 -11 -7 -11 4 0 20 13 34 18 19 3 -7 -1 -17 -7 -23z" />
</ns0:g>
</g><g transform="translate(-1.1912845634659561,2693.4158628699793) scale(0.031285632952386955)"><ns0:metadata>
Created by potrace 1.16, written by Peter Selinger 2001-2019
</ns0:metadata>
<ns0:g transform="translate(0.000000,207.000000) scale(0.100000,-0.100000)" fill="#000000" stroke="none">
<ns0:path d="M1235 1768 c-33 -11 -82 -31 -110 -43 -74 -34 -118 -46 -201 -54 -82 -8 -94 -15 -97 -55 -3 -42 39 -71 79 -56 16 6 54 16 84 22 30 5 78 20 105 33 43 20 195 80 248 98 22 8 22 39 -1 60 -23 21 -33 21 -107 -5z" />
<ns0:path d="M1025 1501 c-3 -5 -19 -12 -35 -16 -17 -4 -43 -18 -59 -31 -40 -34 -49 -97 -56 -404 -3 -140 -10 -293 -15 -340 -25 -202 -28 -294 -14 -317 8 -13 24 -23 38 -23 44 0 53 25 66 195 6 88 16 185 21 215 6 30 12 161 14 290 6 271 14 328 56 371 24 24 27 33 19 49 -11 21 -25 26 -35 11z" />
<ns0:path d="M1428 1084 c-10 -10 -171 -42 -246 -50 -50 -4 -76 -12 -88 -25 -23 -25 -11 -67 23 -80 29 -11 99 -3 109 12 3 5 9 7 14 4 11 -7 117 19 208 51 66 24 72 28 72 54 0 23 -5 29 -31 34 -39 8 -54 8 -61 0z" />
</ns0:g>
</g><g transform="translate(-0.6869310492412524,2781.240055176806) scale(0.031285632952386955)"><ns0:metadata>
Created by potrace 1.16, written by Peter Selinger 2001-2019
</ns0:metadata>
<ns0:g transform="translate(0.000000,212.000000) scale(0.100000,-0.100000)" fill="#000000" stroke="none">
<ns0:path d="M1117 1683 c-36 -19 -103 -104 -133 -169 -22 -48 -26 -52 -67 -58 -25 -4 -51 -12 -60 -19 -22 -16 -45 -128 -76 -367 -17 -127 -20 -140 -39 -140 -35 0 -61 -113 -41 -179 14 -49 -3 -143 -32 -176 -24 -28 -32 -107 -13 -134 15 -21 49 -27 70 -13 23 15 53 92 75 195 7 31 15 57 20 57 10 0 19 -27 19 -61 0 -69 173 -175 335 -204 45 -8 135 -49 162 -74 56 -50 85 -70 97 -65 8 3 26 22 40 43 34 49 40 139 10 172 l-19 21 -17 -22 c-10 -12 -18 -28 -18 -36 0 -26 -20 -23 -102 15 -46 22 -120 49 -166 61 -106 27 -177 63 -228 115 -71 71 -71 75 -10 136 29 30 60 68 69 84 8 17 28 44 44 62 15 17 35 41 43 53 8 12 23 33 33 45 9 13 17 29 17 37 0 7 11 31 25 53 67 110 114 255 122 370 5 80 3 95 -17 138 -35 75 -79 94 -143 60z m65 -154 c7 -49 -1 -86 -43 -209 -33 -95 -134 -304 -158 -330 -9 -9 -38 -48 -65 -88 -61 -89 -97 -98 -66 -16 6 15 19 84 30 153 40 256 47 297 66 349 10 28 24 52 30 52 12 0 64 39 134 100 25 22 50 38 55 37 6 -2 13 -24 17 -48z" />
</ns0:g>
</g><g transform="translate(-2.690561489672632,2883.341539279728) scale(0.031285632952386955)"><ns0:metadata>
Created by potrace 1.16, written by Peter Selinger 2001-2019
</ns0:metadata>
<ns0:g transform="translate(0.000000,208.000000) scale(0.100000,-0.100000)" fill="#000000" stroke="none">
<ns0:path d="M985 1344 c-18 -20 -38 -56 -45 -82 -7 -26 -21 -67 -33 -92 -57 -127 -67 -153 -65 -163 1 -7 -2 -36 -6 -65 -14 -90 32 -146 116 -142 65 4 70 -2 44 -52 -18 -34 -29 -85 -21 -97 12 -21 45 7 96 82 32 48 63 83 78 88 15 5 34 14 43 19 10 6 28 10 40 10 12 0 49 9 83 21 66 22 102 61 90 99 -10 31 -36 32 -121 5 -130 -41 -131 -41 -85 101 34 105 80 188 107 193 10 1 34 14 52 28 25 19 32 31 30 51 -3 23 -7 27 -33 25 -145 -10 -156 -15 -186 -81 -36 -80 -79 -213 -95 -291 -8 -41 -16 -76 -18 -78 -8 -9 -63 -10 -84 -2 -21 8 -23 13 -17 52 10 71 109 284 140 301 31 17 42 36 37 66 -4 30 -23 40 -81 40 -26 0 -41 -8 -66 -36z" />
</ns0:g>
</g><g transform="translate(-2.1514299614861443,2969.8171502759146) scale(0.031285632952386955)"><ns0:metadata>
Created by potrace 1.16, written by Peter Selinger 2001-2019
</ns0:metadata>
<ns0:g transform="translate(0.000000,211.000000) scale(0.100000,-0.100000)" fill="#000000" stroke="none">
<ns0:path d="M1073 1555 c-11 -8 -28 -32 -36 -54 -9 -22 -21 -42 -27 -46 -5 -3 -10 -14 -10 -23 0 -10 -21 -58 -46 -107 -25 -50 -57 -112 -70 -140 -59 -120 -93 -183 -122 -230 -49 -78 -125 -187 -144 -205 -10 -9 -24 -32 -32 -52 -9 -20 -21 -38 -28 -41 -29 -11 17 -36 71 -39 l54 -3 31 62 c18 33 47 81 64 105 52 69 80 110 100 148 40 74 112 219 112 225 0 4 13 25 29 48 15 23 41 69 56 102 15 33 43 92 61 131 36 76 41 103 22 122 -16 16 -59 15 -85 -3z" />
</ns0:g>
</g><g transform="translate(2.044183454398251,3056.1008987726086) scale(0.031285632952386955)"><ns0:metadata>
Created by potrace 1.16, written by Peter Selinger 2001-2019
</ns0:metadata>
<ns0:g transform="translate(0.000000,208.000000) scale(0.100000,-0.100000)" fill="#000000" stroke="none">
<ns0:path d="M871 1322 c-20 -20 -30 -42 -35 -79 -6 -47 -4 -56 21 -92 21 -30 35 -40 56 -41 21 0 30 -7 38 -27 16 -41 2 -130 -28 -183 -14 -25 -34 -61 -44 -80 -22 -44 -86 -106 -164 -158 -67 -45 -108 -93 -99 -117 3 -8 22 -22 41 -31 32 -16 35 -16 56 2 33 28 60 42 140 71 39 14 81 31 92 38 24 15 105 38 199 56 66 13 89 30 69 50 -16 16 -201 12 -255 -4 -39 -12 -48 -12 -48 -2 0 13 51 96 89 146 30 38 38 65 45 149 5 53 3 91 -7 130 -21 76 -26 88 -64 148 -38 61 -61 66 -102 24z" />
</ns0:g>
</g><g transform="translate(-0.7984259899109816,3127.669208127632) scale(0.031285632952386955)"><ns0:metadata>
Created by potrace 1.16, written by Peter Selinger 2001-2019
</ns0:metadata>
<ns0:g transform="translate(0.000000,217.000000) scale(0.100000,-0.100000)" fill="#000000" stroke="none">
<ns0:path d="M1110 2157 c-14 -7 -44 -25 -67 -40 -24 -15 -45 -27 -48 -27 -8 0 -108 -72 -131 -95 -12 -11 -27 -37 -35 -58 -9 -25 -18 -36 -27 -32 -8 3 -37 8 -66 11 -48 6 -54 4 -73 -20 -18 -23 -20 -36 -16 -110 3 -48 1 -97 -5 -114 -13 -37 2 -54 37 -45 21 5 22 4 15 -48 -6 -53 -70 -296 -119 -454 -100 -322 -129 -411 -136 -421 -5 -6 -25 -50 -44 -99 -20 -48 -46 -111 -60 -140 -13 -29 -29 -72 -35 -96 -7 -24 -23 -65 -36 -91 -13 -26 -24 -52 -24 -58 0 -6 -18 -41 -41 -78 -35 -58 -69 -126 -69 -138 0 -2 25 -4 55 -4 33 0 55 4 55 11 0 6 24 61 54 122 69 141 83 175 115 267 15 41 38 93 51 114 l24 39 11 -34 c9 -27 19 -36 49 -43 31 -8 40 -6 64 12 15 13 41 29 57 37 17 7 48 32 70 55 40 41 88 73 97 64 13 -12 -5 -213 -24 -269 -30 -86 -78 -184 -98 -198 -50 -35 -49 -98 1 -116 37 -13 40 -11 118 62 34 31 65 57 69 57 4 0 22 13 40 28 18 16 70 47 115 70 45 24 114 67 152 98 82 65 153 109 162 100 3 -3 8 -44 11 -92 5 -106 37 -197 70 -202 20 -3 22 1 23 50 3 192 31 385 64 435 32 49 -6 84 -70 63 -25 -8 -39 -22 -54 -54 -12 -23 -21 -52 -21 -64 0 -32 -27 -54 -126 -102 -49 -23 -107 -56 -130 -72 -59 -42 -224 -131 -231 -124 -2 2 3 35 12 75 8 40 15 90 15 112 0 62 30 182 51 205 10 11 19 26 19 32 0 14 84 82 140 113 22 13 42 31 46 41 3 10 12 18 21 18 9 0 31 9 49 21 26 16 34 27 34 50 0 28 -2 29 -43 29 -24 0 -47 -4 -53 -9 -5 -5 -36 -24 -69 -42 -33 -17 -82 -46 -110 -64 -59 -38 -140 -85 -241 -140 -41 -23 -79 -46 -86 -53 -7 -7 -16 -12 -20 -12 -5 0 -45 -30 -89 -66 -44 -36 -82 -64 -84 -62 -2 2 8 35 22 73 75 207 148 434 188 585 15 58 41 143 57 190 16 47 36 112 44 145 11 41 25 68 45 87 32 30 36 49 15 67 -11 10 -26 9 -65 -3 -28 -8 -53 -11 -56 -7 -2 5 6 28 18 52 18 33 31 45 52 49 21 4 31 12 35 30 5 18 12 24 28 23 13 -2 29 8 41 25 33 43 95 102 109 102 16 0 16 0 -9 -57 -28 -63 -94 -253 -130 -372 -7 -24 -32 -69 -56 -99 -48 -62 -49 -65 -27 -86 28 -29 70 -20 111 25 21 22 42 48 47 57 5 10 25 36 43 59 44 53 41 77 -10 81 -20 2 -37 5 -37 8 0 2 9 21 20 41 11 21 20 45 20 53 0 8 13 36 28 62 15 25 47 81 71 123 24 42 54 89 67 105 13 15 24 32 24 38 0 5 19 27 42 48 31 28 43 46 45 71 l2 33 -72 0 c-40 0 -83 -6 -97 -13z" />
<ns0:path d="M1118 1379 c-32 -16 -58 -34 -58 -39 0 -5 -31 -30 -69 -54 -38 -25 -71 -49 -73 -53 -1 -5 -38 -26 -81 -48 -43 -22 -92 -52 -110 -67 -31 -26 -32 -27 -16 -55 23 -42 87 -39 160 8 60 38 168 116 214 155 17 14 45 34 63 45 33 20 52 53 52 93 0 43 -20 46 -82 15z" />
</ns0:g>
</g><g transform="translate(-1.340073920486759,3221.461379405577) scale(0.031285632952386955)"><ns0:metadata>
Created by potrace 1.16, written by Peter Selinger 2001-2019
</ns0:metadata>
<ns0:g transform="translate(0.000000,209.000000) scale(0.100000,-0.100000)" fill="#000000" stroke="none">
<ns0:path d="M1290 2041 c-20 -16 -25 -31 -31 -88 -16 -157 -30 -250 -44 -283 -13 -30 -32 -104 -84 -340 -5 -19 -22 -78 -39 -130 -17 -52 -34 -108 -37 -125 -6 -27 -76 -247 -97 -303 -9 -27 -17 -26 -116 19 -78 36 -91 59 -74 132 7 29 14 97 16 153 2 56 8 110 14 120 5 10 18 39 28 62 11 26 36 58 63 80 96 79 132 118 138 156 5 32 3 36 -15 36 -11 0 -22 -4 -24 -9 -3 -9 -165 -121 -174 -121 -9 0 8 94 19 108 11 14 -17 52 -38 52 -7 0 -15 7 -19 15 -8 21 -46 18 -75 -4 -24 -18 -24 -20 -12 -74 8 -30 11 -59 8 -63 -3 -5 -2 -29 3 -54 5 -26 4 -52 -1 -62 -20 -37 -226 -155 -389 -222 -36 -15 -70 -47 -70 -66 0 -21 51 -70 73 -70 26 0 95 30 100 44 3 7 31 28 63 47 111 65 189 108 198 108 9 1 -2 -147 -15 -191 -4 -16 -25 -50 -47 -76 -69 -83 -113 -153 -182 -286 -81 -158 -136 -255 -157 -278 -12 -14 -13 -21 -4 -32 10 -12 16 -12 36 -2 36 19 101 96 135 161 17 32 42 71 57 89 14 17 33 47 41 66 16 39 82 130 94 130 11 0 10 -44 -1 -89 -14 -54 -31 -154 -47 -266 -7 -55 -16 -110 -20 -122 -11 -38 24 -42 53 -7 13 16 30 37 39 46 9 9 20 46 24 85 12 93 58 305 69 316 6 6 25 4 51 -7 22 -9 54 -16 70 -16 16 0 31 -4 34 -9 7 -10 -24 -109 -61 -196 -33 -79 -41 -105 -58 -199 -14 -80 -8 -116 22 -116 20 0 62 59 74 103 6 23 19 61 30 85 10 23 19 48 19 56 0 21 119 250 138 264 14 10 14 17 3 47 -11 31 -10 44 10 103 12 37 24 71 26 75 8 14 30 -12 36 -42 6 -26 19 -50 91 -155 19 -29 19 -31 2 -75 -10 -25 -22 -66 -28 -91 -5 -25 -18 -63 -28 -85 -9 -22 -25 -74 -35 -115 -9 -41 -24 -98 -32 -127 -17 -58 -13 -83 14 -83 35 1 70 43 88 105 49 166 109 335 119 335 7 0 28 -21 48 -48 39 -51 71 -80 115 -108 15 -10 44 -32 64 -49 21 -16 66 -50 100 -75 35 -25 75 -58 88 -74 57 -66 61 -67 97 -31 20 20 23 29 14 40 -8 10 -8 19 0 34 15 29 -2 53 -54 74 -23 9 -46 17 -52 17 -6 0 -20 10 -31 23 -12 12 -40 36 -64 52 -92 65 -179 148 -228 217 -28 39 -51 78 -51 86 0 39 120 381 175 500 14 29 25 58 25 65 0 6 18 47 40 90 36 70 40 84 40 152 0 74 -1 75 -25 75 -34 0 -120 -61 -161 -113 -19 -24 -64 -68 -101 -97 -38 -30 -83 -67 -100 -84 -18 -16 -35 -27 -37 -25 -8 8 50 274 78 364 28 87 66 311 62 361 -1 17 -6 36 -10 42 -11 18 -48 14 -76 -7z m190 -706 c0 -15 -67 -203 -119 -332 -34 -84 -61 -160 -61 -169 0 -10 -3 -14 -7 -11 -8 9 -14 50 -14 99 0 50 -18 62 -85 55 l-56 -6 7 42 c9 54 11 57 40 57 36 0 75 18 81 37 15 47 42 86 84 120 25 20 60 54 78 75 29 33 52 48 52 33z" />
</ns0:g>
</g><g transform="translate(-2.561052980815191,3316.628292873406) scale(0.031285632952386955)"><ns0:metadata>
Created by potrace 1.16, written by Peter Selinger 2001-2019
</ns0:metadata>
<ns0:g transform="translate(0.000000,210.000000) scale(0.100000,-0.100000)" fill="#000000" stroke="none">
<ns0:path d="M1490 1616 c-13 -10 -110 -196 -110 -210 0 -7 -69 -164 -110 -251 -50 -105 -77 -169 -84 -199 -4 -17 -16 -42 -27 -57 -10 -15 -19 -33 -19 -40 0 -12 -48 -100 -60 -109 -3 -3 -14 -26 -24 -52 -9 -26 -27 -59 -39 -74 -27 -35 -77 -141 -77 -164 0 -21 45 -60 69 -60 24 1 45 21 66 65 10 22 28 56 41 75 12 19 25 51 29 70 4 19 13 42 20 50 7 8 21 35 31 60 9 25 23 52 31 61 7 8 13 19 13 23 0 4 16 40 35 79 19 39 35 76 35 83 0 7 11 32 25 55 14 24 25 51 25 60 0 9 7 22 16 30 8 7 13 21 11 31 -3 10 -1 21 4 24 13 7 93 169 109 220 7 21 26 63 43 92 23 41 28 60 23 86 -9 48 -48 74 -76 52z m-249 -689 c-8 -8 -11 -7 -11 4 0 20 13 34 18 19 3 -7 -1 -17 -7 -23z" />
</ns0:g>
</g><g transform="translate(2.4271020923665674,3410.655982832564) scale(0.031285632952386955)"><ns0:metadata>
Created by potrace 1.16, written by Peter Selinger 2001-2019
</ns0:metadata>
<ns0:g transform="translate(0.000000,214.000000) scale(0.100000,-0.100000)" fill="#000000" stroke="none">
<ns0:path d="M1150 1448 c-42 -12 -82 -46 -179 -152 -88 -97 -101 -125 -101 -213 0 -63 3 -72 44 -133 47 -71 47 -82 -1 -114 -43 -29 -96 -106 -104 -153 -6 -28 -4 -55 5 -80 11 -32 24 -44 87 -78 112 -61 180 -79 277 -77 85 2 98 7 120 48 9 17 8 31 -5 65 -9 24 -23 51 -30 60 -7 8 -13 18 -13 22 0 3 -31 53 -70 110 -38 57 -70 110 -70 118 0 16 94 111 126 127 28 15 94 73 94 84 0 15 -62 8 -88 -10 -46 -32 -52 -34 -52 -18 0 8 25 44 55 80 62 73 63 76 50 216 -5 60 -12 88 -24 97 -19 15 -72 15 -121 1z m36 -144 c2 -25 6 -53 9 -63 4 -12 -6 -29 -31 -52 -51 -49 -109 -128 -124 -171 -13 -35 -15 -37 -32 -22 -21 20 -38 70 -34 104 2 14 4 37 5 51 0 15 18 44 44 71 23 25 53 58 67 73 28 31 81 67 89 59 2 -2 6 -25 7 -50z m-138 -548 c17 -24 39 -56 47 -73 8 -16 26 -40 41 -54 32 -30 57 -76 48 -90 -15 -25 -189 17 -233 56 -25 23 -31 36 -31 69 1 34 8 49 43 88 23 26 44 47 47 47 3 0 20 -19 38 -43z" />
</ns0:g>
</g><g transform="translate(1.054004391293688,3486.4384647255592) scale(0.031285632952386955)"><ns0:metadata>
Created by potrace 1.16, written by Peter Selinger 2001-2019
</ns0:metadata>
<ns0:g transform="translate(0.000000,200.000000) scale(0.100000,-0.100000)" fill="#000000" stroke="none">
<ns0:path d="M1045 1696 c-28 -23 -29 -26 -17 -58 15 -44 15 -136 -1 -167 -10 -21 -25 -27 -107 -42 -52 -9 -107 -20 -122 -24 -18 -5 -28 -3 -28 4 0 18 -45 13 -71 -8 -21 -16 -93 -51 -105 -51 -9 0 -3 66 8 96 10 29 9 35 -20 72 -29 36 -36 40 -74 38 -31 -2 -43 -7 -48 -22 -6 -18 0 -107 16 -215 l6 -46 -52 -39 c-29 -21 -61 -44 -70 -49 -10 -6 -24 -16 -31 -22 -8 -6 -31 -16 -51 -22 -21 -7 -38 -17 -38 -22 0 -5 -11 -9 -24 -9 -27 0 -56 -33 -56 -63 0 -10 7 -29 16 -42 14 -22 24 -25 73 -25 35 0 65 -6 77 -15 32 -24 61 -19 72 14 8 22 7 34 -5 51 -14 21 -13 24 23 61 59 61 64 56 64 -74 l0 -114 -32 -29 c-18 -17 -49 -41 -68 -54 -56 -40 -132 -101 -173 -139 -46 -43 -48 -72 -6 -102 l31 -22 40 23 c40 22 97 77 98 93 0 16 83 88 91 80 5 -5 4 -67 -1 -137 -7 -106 -13 -134 -29 -157 -12 -16 -21 -37 -21 -49 0 -11 -4 -20 -10 -20 -12 0 -29 31 -56 100 -13 34 -28 56 -39 59 -16 3 -18 -4 -12 -78 5 -76 9 -87 66 -188 86 -151 84 -150 116 -129 16 10 25 26 25 41 0 14 4 33 10 43 5 9 12 42 15 74 6 50 10 59 41 80 19 12 43 37 53 54 27 45 317 234 334 218 5 -5 3 -58 -7 -289 -5 -109 0 -135 30 -135 17 0 25 7 30 28 4 15 13 36 20 47 12 21 24 146 28 317 3 108 15 137 66 158 17 7 32 11 34 9 8 -9 25 -355 26 -527 1 -101 4 -190 7 -198 13 -34 53 4 53 51 0 19 5 46 11 62 19 48 25 297 13 538 -8 165 -4 174 121 272 55 43 125 95 156 115 30 20 62 44 69 53 8 10 24 21 36 25 23 9 41 57 26 72 -12 12 -176 -66 -214 -103 -17 -16 -46 -34 -64 -41 -19 -7 -34 -15 -34 -19 0 -7 -84 -59 -95 -59 -4 0 -5 9 -2 21 3 11 2 57 -3 102 -8 79 -22 107 -54 107 -22 -1 -55 -36 -60 -64 -3 -16 -6 -29 -8 -30 -3 -2 -115 -37 -135 -42 -37 -9 -68 -152 -58 -269 l4 -60 -47 -32 c-26 -17 -74 -45 -107 -62 -33 -17 -85 -49 -115 -71 -92 -68 -99 -72 -109 -66 -11 7 -4 154 9 209 25 98 36 125 61 160 39 56 22 101 -23 60 -10 -9 -21 -13 -24 -10 -12 11 -4 170 11 221 12 42 26 61 71 99 58 49 74 56 74 35 0 -25 17 -40 55 -48 32 -7 44 -5 76 15 20 13 49 27 63 31 22 5 26 3 26 -15 0 -14 -35 -56 -102 -121 -97 -95 -101 -100 -86 -121 35 -54 49 -53 119 1 35 27 92 73 126 102 33 28 70 55 82 59 11 5 40 26 63 48 24 21 86 75 138 118 93 77 115 108 89 124 -14 8 -78 -14 -94 -34 -12 -14 -91 -67 -101 -67 -4 0 -30 -17 -58 -39 -55 -42 -95 -65 -102 -59 -6 6 34 88 60 123 16 21 26 57 35 119 l12 89 -28 23 c-35 29 -41 29 -78 0z m103 -674 l3 -72 -38 -35 c-21 -19 -44 -35 -50 -35 -31 0 -3 190 31 213 6 4 20 6 31 5 18 -3 20 -12 23 -76z" />
</ns0:g>
</g><g transform="translate(-1.122798004997776,3575.681685732322) scale(0.031285632952386955)"><ns0:metadata>
Created by potrace 1.16, written by Peter Selinger 2001-2019
</ns0:metadata>
<ns0:g transform="translate(0.000000,208.000000) scale(0.100000,-0.100000)" fill="#000000" stroke="none">
<ns0:path d="M1333 1820 c-31 -13 -43 -41 -43 -98 0 -59 -35 -242 -55 -292 -19 -46 -44 -146 -59 -240 -7 -41 -19 -97 -28 -125 -24 -74 -55 -222 -57 -276 -1 -8 -7 -23 -13 -32 -12 -15 -17 -15 -64 1 -28 10 -64 27 -80 37 -53 35 -119 65 -143 65 -23 0 -23 2 -17 50 4 28 11 61 16 73 5 12 14 74 20 136 7 63 19 125 26 137 8 12 18 41 22 65 5 31 14 47 30 55 13 6 32 21 43 33 11 12 31 28 44 37 14 9 25 23 25 30 0 8 6 23 12 34 21 33 -3 47 -46 26 -20 -9 -36 -21 -36 -25 0 -4 -11 -13 -25 -19 -21 -10 -25 -9 -25 4 0 9 10 24 22 34 l22 18 -37 41 c-20 23 -37 48 -37 56 0 24 -53 19 -78 -7 -17 -19 -22 -41 -28 -136 -7 -109 -8 -114 -36 -137 -16 -14 -34 -25 -39 -25 -6 0 -75 -43 -154 -95 -79 -52 -164 -105 -189 -118 -73 -36 -84 -96 -27 -144 57 -48 160 -15 174 56 4 16 18 38 33 48 14 10 50 41 79 69 29 27 69 55 89 61 l36 11 0 -65 c0 -72 -6 -88 -60 -153 -47 -56 -83 -128 -105 -205 -21 -78 -62 -189 -107 -292 -10 -23 -18 -46 -18 -51 0 -5 -11 -29 -25 -53 -40 -72 -56 -112 -50 -127 4 -11 8 -11 24 0 36 25 111 131 147 208 42 87 43 89 68 124 10 15 30 55 43 89 21 55 23 58 18 22 -17 -119 -25 -222 -24 -325 1 -143 11 -216 32 -238 16 -16 19 -15 42 13 23 29 24 35 20 155 -3 122 17 338 36 388 7 18 14 22 27 17 9 -4 42 -13 72 -20 64 -14 183 -47 189 -52 9 -7 -1 -136 -13 -171 -13 -38 -20 -197 -10 -244 7 -36 29 -42 58 -15 22 19 26 36 36 122 6 55 14 118 19 140 5 22 15 72 21 110 7 39 23 111 36 160 12 50 26 116 30 149 8 68 25 90 82 105 25 7 43 19 50 35 9 19 92 86 108 86 9 0 4 -92 -6 -111 -13 -24 -61 -247 -58 -269 3 -25 -12 -90 -22 -90 -5 0 -25 16 -44 35 -40 39 -70 44 -103 16 -46 -38 -31 -66 90 -173 l38 -33 -14 -65 c-23 -98 -36 -169 -43 -232 -6 -48 -4 -58 8 -58 19 0 37 23 67 85 37 78 40 86 52 153 10 55 14 62 35 62 12 0 25 -4 28 -9 9 -13 89 -51 109 -51 10 0 33 -7 53 -15 30 -12 106 -27 261 -50 24 -4 77 -4 118 0 l75 7 0 43 0 42 -72 -3 c-160 -6 -462 82 -533 156 l-25 26 20 115 c11 63 25 143 30 179 6 36 24 119 41 185 45 175 47 275 8 275 -6 0 -58 -36 -115 -80 -106 -82 -149 -108 -161 -97 -8 9 15 140 33 187 7 19 23 76 34 125 11 50 25 106 29 125 27 108 28 122 16 163 -13 45 -31 54 -72 37z" />
</ns0:g>
</g></svg>