<?xml version='1.0' encoding='utf-8'?>
<svg xmlns:ns0="http://www.w3.org/2000/svg" xmlns="http://www.w3.org/2000/svg" width="235" height="107" viewBox="0 0 235 107"><g transform="translate(1.0575251141711988,-106.91514418270907) scale(0.04516007572535813)"><ns0:metadata>
Created by potrace 1.16, written by Peter Selinger 2001-2019
</ns0:metadata>
<ns0:g transform="translate(0.000000,210.000000) scale(0.100000,-0.100000)" fill="#000000" stroke="none">
<ns0:path d="M756 1978 c-14 -21 -11 -34 28 -153 43 -129 46 -165 12 -165 -19 0 -48 -36 -44 -56 1 -9 19 -25 38 -35 33 -18 47 -41 49 -81 1 -24 -307 -368 -330 -368 -12 0 -11 88 3 262 13 166 9 181 -46 176 -54 -5 -60 -32 -63 -302 -1 -131 -6 -243 -11 -250 -5 -6 -12 -47 -15 -91 -8 -105 -23 -151 -78 -240 -25 -39 -29 -53 -20 -65 7 -8 19 -32 28 -53 19 -44 48 -55 102 -39 26 8 48 9 76 1 21 -6 79 -12 129 -13 107 -3 109 -6 77 -98 -20 -58 -20 -58 0 -68 11 -6 23 -9 27 -6 4 2 23 38 42 79 38 82 60 101 130 112 58 9 144 38 165 55 24 20 38 0 28 -41 -13 -53 0 -175 22 -199 21 -23 34 -25 59 -7 16 12 19 32 22 153 2 115 8 159 34 259 17 66 37 154 46 195 8 41 24 100 35 130 12 30 26 68 32 83 8 23 14 27 31 22 12 -4 30 -8 41 -9 18 -2 21 -15 33 -147 13 -144 11 -694 -3 -804 -3 -27 -3 -87 0 -132 l7 -83 33 0 c41 0 38 -14 62 280 16 200 18 392 10 870 -3 166 2 176 174 356 39 41 51 74 27 74 -17 0 -171 -99 -181 -116 -4 -7 -28 -25 -52 -39 -24 -15 -60 -44 -80 -66 -20 -23 -39 -39 -41 -36 -7 7 23 176 46 257 51 176 45 280 -15 280 -45 0 -64 -29 -70 -105 -6 -78 -18 -157 -40 -255 -8 -36 -22 -103 -31 -150 -9 -46 -28 -114 -43 -150 -40 -98 -101 -311 -101 -350 0 -12 -5 -42 -12 -67 l-11 -45 -61 4 c-66 6 -126 30 -126 51 0 8 -16 32 -35 54 -31 37 -33 43 -25 74 6 19 10 48 10 64 0 28 31 129 50 166 5 9 44 31 87 49 123 53 184 90 181 109 -5 20 -84 18 -132 -3 -40 -18 -127 -38 -134 -32 -10 11 -1 109 14 157 12 37 35 66 101 131 154 151 206 232 179 276 -16 27 -54 14 -216 -73 -36 -19 -69 -34 -74 -32 -10 3 -36 74 -36 99 0 29 -41 129 -61 149 -26 26 -65 24 -83 -3z m64 -715 l0 -48 -52 -23 c-28 -12 -53 -20 -55 -18 -6 6 89 136 99 136 4 0 8 -21 8 -47z m-35 -220 c-19 -130 -24 -143 -72 -171 -25 -15 -51 -33 -57 -41 -6 -8 -29 -30 -51 -50 -22 -20 -64 -60 -93 -89 -94 -92 -105 -65 -54 127 23 83 36 117 53 130 32 23 251 138 268 140 10 1 12 -9 6 -46z m-40 -330 c-4 -49 -12 -94 -18 -101 -8 -10 -31 -12 -90 -7 -44 3 -83 7 -85 10 -6 5 185 185 195 185 3 0 2 -39 -2 -87z m141 -28 c9 -8 24 -15 34 -15 10 0 31 -5 47 -11 l28 -11 -35 -13 c-19 -8 -56 -14 -81 -14 -45 -1 -46 0 -42 27 9 57 21 66 49 37z" />
</ns0:g>
</g><g transform="translate(-1.7684714438016726,27.00205889676377) scale(0.04516007572535813)"><ns0:metadata>
Created by potrace 1.16, written by Peter Selinger 2001-2019
</ns0:metadata>
<ns0:g transform="translate(0.000000,216.000000) scale(0.100000,-0.100000)" fill="#000000" stroke="none">
<ns0:path d="M1409 1777 c-20 -7 -53 -25 -72 -42 -20 -16 -53 -44 -74 -62 -21 -17 -40 -29 -42 -27 -3 3 3 21 14 40 18 35 18 35 -3 56 l-22 22 -29 -28 c-28 -27 -65 -95 -111 -201 -44 -101 -92 -194 -106 -205 -8 -7 -14 -18 -14 -25 0 -8 -16 -34 -35 -59 -43 -57 -46 -98 -10 -122 23 -15 29 -15 52 -3 14 7 29 24 34 36 5 13 13 23 19 23 5 0 10 6 10 13 0 17 85 145 121 182 16 17 29 35 29 40 0 5 9 18 20 30 43 44 150 170 150 177 0 13 88 68 118 74 38 8 56 -15 49 -61 -9 -53 -123 -273 -192 -370 -33 -46 -65 -92 -71 -101 -9 -16 -16 -16 -73 -5 -57 11 -64 11 -77 -6 -22 -29 -16 -59 16 -87 l31 -25 -27 -43 c-15 -23 -44 -64 -66 -91 -21 -27 -38 -53 -38 -58 0 -14 -75 -113 -132 -174 -25 -27 -67 -77 -92 -109 -38 -49 -46 -55 -46 -36 0 12 6 28 13 34 15 12 57 150 57 186 0 16 -4 20 -16 16 -9 -3 -18 -6 -20 -6 -2 0 -4 -7 -4 -15 0 -9 -12 -34 -27 -58 -15 -23 -35 -58 -44 -79 -10 -20 -25 -45 -34 -55 -9 -10 -24 -29 -35 -43 -10 -14 -21 -22 -24 -19 -3 3 23 53 58 110 116 187 137 232 129 284 -3 25 -10 48 -14 51 -5 2 -33 -33 -63 -78 -30 -46 -66 -96 -80 -112 l-24 -29 -6 44 c-4 39 -16 197 -21 304 -2 43 -30 62 -41 28 -4 -10 -16 -25 -27 -34 -12 -10 -23 -36 -28 -69 -6 -41 -15 -59 -36 -76 -32 -25 -44 -23 -21 3 8 10 21 45 28 78 8 33 25 75 38 93 34 44 15 40 -58 -14 -60 -44 -87 -51 -62 -16 6 9 26 44 43 77 18 33 46 83 63 110 17 28 47 81 66 119 19 38 54 91 78 117 39 44 43 54 45 104 2 68 -9 78 -78 69 -72 -8 -121 -24 -145 -46 -40 -37 -15 -108 39 -108 19 0 21 -4 16 -22 -9 -28 -75 -181 -81 -187 -3 -3 -3 20 -2 50 5 117 -1 167 -25 195 -22 25 -26 26 -60 15 -30 -10 -37 -18 -43 -46 -3 -18 -1 -42 6 -55 18 -33 22 -58 25 -153 2 -49 6 -91 9 -95 4 -3 19 7 34 21 16 15 31 27 35 27 4 0 -6 -36 -23 -80 -16 -45 -32 -102 -36 -128 -4 -26 -13 -56 -20 -67 -28 -39 -14 -78 30 -86 17 -4 20 -14 22 -74 2 -74 28 -223 45 -265 14 -31 12 -221 -2 -275 -17 -68 -17 -81 2 -103 29 -37 64 -28 99 23 22 31 38 45 54 45 30 0 89 45 146 110 25 29 68 76 95 104 138 145 273 305 352 421 58 85 90 115 119 115 22 0 53 -10 154 -52 32 -13 108 -20 138 -13 15 4 22 13 22 29 0 30 -11 38 -85 60 -33 10 -67 22 -75 27 -8 5 -34 19 -57 31 -24 12 -43 25 -43 29 0 3 9 17 19 31 30 37 111 160 111 167 0 3 16 35 35 71 79 150 105 220 105 286 0 105 -88 158 -201 121z m-819 -1304 c0 -10 -11 -31 -24 -47 l-23 -29 1 34 c1 19 5 40 9 47 12 18 37 15 37 -5z" />
<ns0:path d="M1108 631 c-52 -45 -82 -111 -74 -161 7 -44 40 -103 76 -135 19 -17 36 -20 120 -20 112 0 125 7 166 87 17 33 24 64 24 104 0 52 -3 59 -36 90 -48 46 -100 48 -132 4 -12 -16 -22 -34 -22 -39 0 -13 57 -56 73 -56 7 0 13 -12 15 -27 9 -75 -135 -104 -182 -36 -25 36 -19 78 19 138 19 30 34 59 32 65 -7 22 -46 15 -79 -14z" />
</ns0:g>
</g><g transform="translate(2.4086934512253606,152.98077222005963) scale(0.04516007572535813)"><ns0:metadata>
Created by potrace 1.16, written by Peter Selinger 2001-2019
</ns0:metadata>
<ns0:g transform="translate(0.000000,206.000000) scale(0.100000,-0.100000)" fill="#000000" stroke="none">
<ns0:path d="M1093 1998 c-28 -30 -29 -67 -3 -96 24 -26 55 -29 68 -6 5 9 18 14 28 12 46 -9 -4 -162 -69 -211 -18 -13 -48 -26 -69 -30 l-36 -5 -6 61 c-4 34 -14 87 -23 117 -9 30 -17 61 -19 68 -5 18 -53 34 -78 26 -46 -15 -58 -59 -27 -102 36 -53 74 -165 73 -220 0 -56 15 -75 43 -52 23 19 31 5 44 -77 7 -43 15 -98 20 -124 4 -25 5 -51 3 -57 -3 -10 -81 -52 -184 -100 -5 -2 -8 4 -8 14 0 9 23 41 50 70 53 56 59 68 35 78 -20 7 -157 -23 -174 -39 -15 -15 -40 -128 -41 -186 0 -42 -24 -66 -125 -128 -38 -23 -88 -56 -110 -72 -22 -16 -51 -37 -65 -47 -44 -30 -140 -129 -150 -156 -14 -37 2 -72 37 -79 44 -9 110 20 122 54 14 40 105 134 169 175 55 36 77 42 69 22 -5 -15 -32 -170 -46 -273 -15 -105 -19 -123 -33 -163 -12 -37 -62 -91 -85 -92 -6 0 -14 -8 -18 -19 -14 -46 29 -75 94 -65 55 9 111 -19 111 -55 0 -46 -88 -105 -186 -124 -23 -4 -37 -1 -52 13 -18 17 -20 27 -15 74 6 54 6 54 -21 49 -36 -7 -86 -67 -86 -102 0 -40 26 -98 50 -111 10 -6 54 -11 97 -12 76 -1 81 1 161 46 93 53 128 97 138 170 8 58 -16 100 -70 121 -76 30 -96 40 -96 48 0 4 11 25 25 45 14 20 25 42 25 49 0 7 16 42 35 79 19 36 35 78 35 94 0 25 15 110 26 149 3 9 11 5 25 -13 11 -14 26 -26 32 -26 7 0 25 -7 40 -15 15 -8 43 -17 62 -21 19 -3 35 -10 35 -14 0 -5 8 -9 18 -9 9 -1 58 -6 107 -12 50 -6 98 -11 109 -10 17 0 56 32 56 46 0 11 -70 35 -103 35 -42 0 -122 27 -138 46 -6 8 -20 14 -31 14 -10 0 -46 14 -81 31 -52 27 -66 30 -89 21 -16 -6 -28 -7 -28 -4 1 24 28 91 43 106 9 10 24 31 32 47 9 16 32 38 53 49 20 11 55 32 77 45 22 14 56 33 75 43 19 9 55 31 80 48 25 16 53 33 64 37 23 9 115 80 116 89 1 18 -53 18 -111 0 -50 -15 -66 -17 -71 -7 -14 23 -10 208 4 242 7 17 35 50 61 73 31 28 47 50 47 65 0 13 7 28 15 32 8 5 22 38 31 74 17 63 17 66 -2 104 -22 45 -53 63 -121 71 -42 5 -51 3 -70 -18z" />
<ns0:path d="M558 1767 c-14 -5 -35 -26 -45 -46 -17 -31 -18 -42 -8 -81 7 -25 17 -45 23 -44 28 2 32 5 46 32 26 48 18 -2 -9 -56 -14 -28 -25 -56 -25 -64 0 -8 -7 -23 -15 -34 -14 -19 -14 -19 -15 3 0 12 -4 23 -9 25 -11 4 -48 105 -61 162 -4 22 -16 46 -27 54 -25 18 -103 7 -124 -18 -24 -28 -10 -82 30 -116 30 -25 121 -152 121 -168 0 -4 7 -23 16 -42 13 -26 22 -34 43 -34 28 0 71 36 71 58 0 7 12 22 26 35 45 38 84 136 90 224 3 43 0 56 -20 81 -14 16 -31 29 -38 29 -7 0 -20 3 -28 6 -8 3 -27 0 -42 -6z" />
<ns0:path d="M1095 551 c-3 -5 -27 -17 -54 -26 -79 -26 -84 -77 -15 -151 67 -72 110 -163 85 -179 -16 -9 -69 35 -80 67 -8 23 -16 29 -33 26 -20 -3 -23 -9 -22 -44 1 -47 31 -97 72 -118 15 -8 37 -23 48 -34 29 -28 86 -38 102 -19 19 22 26 126 12 190 -7 36 -22 71 -39 90 -34 40 -61 83 -61 97 0 6 9 24 21 39 14 19 19 36 14 50 -6 21 -39 29 -50 12z" />
</ns0:g>
</g></svg>