<?xml version='1.0' encoding='utf-8'?>
<svg xmlns:ns0="http://www.w3.org/2000/svg" xmlns="http://www.w3.org/2000/svg" width="235" height="136" viewBox="0 0 235 136"><g transform="translate(-1.4841125555983012,-100.78835575044539) scale(0.05739972241727762)"><ns0:metadata>
Created by potrace 1.16, written by Peter Selinger 2001-2019
</ns0:metadata>
<ns0:g transform="translate(0.000000,208.000000) scale(0.100000,-0.100000)" fill="#000000" stroke="none">
<ns0:path d="M985 1344 c-18 -20 -38 -56 -45 -82 -7 -26 -21 -67 -33 -92 -57 -127 -67 -153 -65 -163 1 -7 -2 -36 -6 -65 -14 -90 32 -146 116 -142 65 4 70 -2 44 -52 -18 -34 -29 -85 -21 -97 12 -21 45 7 96 82 32 48 63 83 78 88 15 5 34 14 43 19 10 6 28 10 40 10 12 0 49 9 83 21 66 22 102 61 90 99 -10 31 -36 32 -121 5 -130 -41 -131 -41 -85 101 34 105 80 188 107 193 10 1 34 14 52 28 25 19 32 31 30 51 -3 23 -7 27 -33 25 -145 -10 -156 -15 -186 -81 -36 -80 -79 -213 -95 -291 -8 -41 -16 -76 -18 -78 -8 -9 -63 -10 -84 -2 -21 8 -23 13 -17 52 10 71 109 284 140 301 31 17 42 36 37 66 -4 30 -23 40 -81 40 -26 0 -41 -8 -66 -36z" />
</ns0:g>
</g><g transform="translate(-2.5106894275056106,65.19346560281724) scale(0.05739972241727762)"><ns0:metadata>
Created by potrace 1.16, written by Peter Selinger 2001-2019
</ns0:metadata>
<ns0:g transform="translate(0.000000,210.000000) scale(0.100000,-0.100000)" fill="#000000" stroke="none">
<ns0:path d="M1210 915 c-14 -7 -33 -16 -43 -19 -40 -13 -65 -149 -32 -176 8 -7 15 -18 15 -24 0 -7 13 -25 29 -40 28 -27 29 -27 67 -11 49 20 71 41 96 89 31 60 20 107 -34 156 -47 43 -61 46 -98 25z" />
</ns0:g>
</g><g transform="translate(1.2139382974949058,218.02583581267203) scale(0.05739972241727762)"><ns0:metadata>
Created by potrace 1.16, written by Peter Selinger 2001-2019
</ns0:metadata>
<ns0:g transform="translate(0.000000,208.000000) scale(0.100000,-0.100000)" fill="#000000" stroke="none">
<ns0:path d="M871 1322 c-20 -20 -30 -42 -35 -79 -6 -47 -4 -56 21 -92 21 -30 35 -40 56 -41 21 0 30 -7 38 -27 16 -41 2 -130 -28 -183 -14 -25 -34 -61 -44 -80 -22 -44 -86 -106 -164 -158 -67 -45 -108 -93 -99 -117 3 -8 22 -22 41 -31 32 -16 35 -16 56 2 33 28 60 42 140 71 39 14 81 31 92 38 24 15 105 38 199 56 66 13 89 30 69 50 -16 16 -201 12 -255 -4 -39 -12 -48 -12 -48 -2 0 13 51 96 89 146 30 38 38 65 45 149 5 53 3 91 -7 130 -21 76 -26 88 -64 148 -38 61 -61 66 -102 24z" />
</ns0:g>
</g><g transform="translate(0.7390945763328318,375.4562470908612) scale(0.05739972241727762)"><ns0:metadata>
Created by potrace 1.16, written by Peter Selinger 2001-2019
</ns0:metadata>
<ns0:g transform="translate(0.000000,208.000000) scale(0.100000,-0.100000)" fill="#000000" stroke="none">
<ns0:path d="M1135 1490 c-11 -5 -37 -11 -58 -15 -50 -8 -72 -41 -64 -99 4 -24 2 -47 -4 -53 -5 -5 -12 -48 -14 -95 -2 -47 -12 -112 -23 -144 -40 -125 -54 -183 -48 -199 6 -18 69 -47 101 -48 11 0 64 6 119 12 54 7 101 10 104 7 9 -9 -30 -88 -65 -132 -18 -23 -33 -46 -33 -51 0 -6 -19 -26 -42 -46 -24 -19 -56 -47 -73 -63 -46 -42 -116 -84 -143 -84 -59 0 -83 -42 -34 -61 101 -39 305 81 413 242 52 77 70 122 81 201 11 69 10 71 -13 89 -33 26 -91 24 -248 -7 l-34 -7 5 40 c3 22 13 55 21 74 9 19 21 59 27 90 9 49 17 62 58 96 26 21 60 47 77 58 28 18 78 60 136 116 34 32 30 76 -8 85 -19 5 -32 -1 -56 -24 -18 -16 -52 -40 -76 -53 -24 -13 -55 -30 -68 -37 -32 -18 -40 -9 -19 22 16 25 23 97 9 95 -5 0 -17 -4 -28 -9z" />
</ns0:g>
</g><g transform="translate(2.8491078568675903,553.5519124511117) scale(0.05739972241727762)"><ns0:metadata>
Created by potrace 1.16, written by Peter Selinger 2001-2019
</ns0:metadata>
<ns0:g transform="translate(0.000000,211.000000) scale(0.100000,-0.100000)" fill="#000000" stroke="none">
<ns0:path d="M1255 970 c-3 -5 -20 -9 -38 -8 -53 2 -72 -16 -106 -99 -34 -84 -40 -155 -16 -186 7 -11 32 -23 55 -28 37 -9 47 -6 88 19 41 25 48 35 64 89 16 55 17 66 5 102 -8 23 -11 45 -6 53 5 7 9 25 9 41 0 22 -4 27 -24 27 -14 0 -28 -4 -31 -10z" />
</ns0:g>
</g><g transform="translate(0.35600275404334525,697.6279652172384) scale(0.05739972241727762)"><ns0:metadata>
Created by potrace 1.16, written by Peter Selinger 2001-2019
</ns0:metadata>
<ns0:g transform="translate(0.000000,208.000000) scale(0.100000,-0.100000)" fill="#000000" stroke="none">
<ns0:path d="M1251 1682 c-5 -10 -17 -51 -27 -92 -10 -41 -40 -129 -66 -195 -27 -66 -56 -141 -64 -168 -8 -26 -28 -72 -44 -101 -17 -30 -30 -61 -30 -69 0 -14 -23 -68 -85 -202 -18 -38 -36 -79 -39 -89 -13 -38 -26 1 -41 119 -9 66 -20 152 -26 190 -5 39 -9 126 -7 195 3 148 -9 266 -29 297 -24 36 -68 31 -93 -9 -11 -18 -20 -41 -20 -50 0 -13 -8 -18 -32 -18 -50 -1 -87 -37 -94 -90 -7 -54 -39 -159 -66 -219 -10 -24 -28 -64 -38 -90 -10 -25 -30 -69 -44 -97 -14 -29 -26 -56 -26 -60 0 -5 -9 -27 -20 -49 -10 -22 -27 -67 -35 -100 -9 -33 -20 -67 -25 -75 -4 -9 -11 -35 -15 -59 -6 -36 -4 -46 16 -67 39 -42 78 -28 107 39 7 15 12 40 12 54 0 14 17 67 38 117 49 116 54 129 57 142 4 18 102 195 137 248 46 69 58 70 58 4 0 -30 11 -124 24 -209 13 -85 29 -208 36 -274 13 -145 43 -250 76 -272 40 -26 58 1 98 143 14 50 32 104 41 120 8 16 15 36 15 45 0 8 11 39 25 67 14 29 25 56 25 62 0 6 4 18 9 28 5 9 44 100 86 202 75 180 90 209 99 199 9 -9 45 -184 51 -249 14 -139 34 -259 59 -347 14 -51 26 -105 26 -121 0 -15 6 -51 14 -78 8 -27 17 -70 21 -96 12 -87 94 -117 152 -56 39 40 49 76 30 102 -14 19 -16 19 -41 3 l-26 -17 -15 37 c-9 21 -27 90 -40 153 -13 63 -31 147 -39 185 -8 39 -22 129 -31 200 -9 72 -25 177 -35 235 -11 58 -21 157 -24 220 -6 135 -15 200 -29 218 -14 18 -55 15 -66 -6z" />
</ns0:g>
</g><g transform="translate(-0.17160724384859805,869.083349301794) scale(0.05739972241727762)"><ns0:metadata>
Created by potrace 1.16, written by Peter Selinger 2001-2019
</ns0:metadata>
<ns0:g transform="translate(0.000000,211.000000) scale(0.100000,-0.100000)" fill="#000000" stroke="none">
<ns0:path d="M1175 1579 c-22 -5 -76 -27 -120 -49 -44 -21 -93 -42 -109 -46 -56 -14 -191 -74 -201 -90 -5 -10 -18 -24 -27 -33 -23 -20 -23 -33 3 -65 22 -28 54 -34 62 -13 3 8 45 32 94 56 48 23 101 48 117 57 16 8 30 13 31 12 2 -2 -1 -28 -6 -59 -11 -68 -24 -174 -44 -339 -8 -69 -19 -161 -24 -205 -6 -44 -16 -134 -22 -200 -13 -142 -7 -170 41 -177 49 -7 62 28 71 205 7 142 28 336 50 481 6 37 13 83 14 100 2 18 14 65 28 104 26 75 77 137 124 148 29 8 57 57 48 85 -12 35 -56 45 -130 28z" />
</ns0:g>
</g><g transform="translate(1.665180177559364,1034.7206754976266) scale(0.05739972241727762)"><ns0:metadata>
Created by potrace 1.16, written by Peter Selinger 2001-2019
</ns0:metadata>
<ns0:g transform="translate(0.000000,211.000000) scale(0.100000,-0.100000)" fill="#000000" stroke="none">
<ns0:path d="M1360 1549 c-62 -34 -143 -69 -159 -69 -9 0 -47 -12 -86 -26 -38 -14 -86 -30 -105 -36 -19 -5 -46 -16 -60 -23 -14 -7 -47 -23 -75 -35 -27 -13 -53 -28 -57 -34 -14 -21 -8 -56 13 -77 30 -30 81 -20 155 30 67 45 152 81 190 81 l26 0 -6 -132 c-14 -270 -17 -377 -16 -531 0 -86 3 -164 6 -172 3 -7 20 -17 37 -21 38 -8 52 8 68 82 9 40 9 57 1 67 -8 9 -10 62 -7 173 3 87 5 197 5 244 0 47 4 110 10 140 6 30 14 73 18 94 4 23 15 43 27 50 30 16 36 28 31 58 -5 23 0 30 37 50 38 21 42 27 42 63 0 37 -2 40 -30 42 -16 1 -46 -7 -65 -18z" />
</ns0:g>
</g><g transform="translate(-1.6807826971322015,1206.2744955302696) scale(0.05739972241727762)"><ns0:metadata>
Created by potrace 1.16, written by Peter Selinger 2001-2019
</ns0:metadata>
<ns0:g transform="translate(0.000000,206.000000) scale(0.100000,-0.100000)" fill="#000000" stroke="none">
<ns0:path d="M832 1494 c-13 -9 -22 -26 -22 -40 0 -26 -5 -26 -57 -7 -25 10 -43 -44 -53 -157 -5 -63 -17 -158 -26 -210 -37 -223 -43 -284 -33 -329 21 -93 91 -146 174 -130 49 9 156 79 198 129 52 61 65 320 25 491 -12 52 -21 118 -20 148 2 72 -9 88 -63 97 -25 3 -45 10 -45 15 0 15 -54 10 -78 -7z m63 -98 c10 4 15 0 15 -15 0 -12 12 -79 28 -149 30 -141 34 -248 13 -350 -12 -53 -20 -67 -52 -93 -48 -38 -101 -54 -129 -39 -17 9 -20 20 -19 73 0 61 3 81 32 247 8 47 20 137 27 200 14 145 13 142 45 130 13 -5 32 -7 40 -4z" />
</ns0:g>
</g><g transform="translate(-2.190614984709441,1357.4889337919712) scale(0.05739972241727762)"><ns0:metadata>
Created by potrace 1.16, written by Peter Selinger 2001-2019
</ns0:metadata>
<ns0:g transform="translate(0.000000,208.000000) scale(0.100000,-0.100000)" fill="#000000" stroke="none">
<ns0:path d="M862 1397 c-24 -13 -29 -23 -42 -94 -4 -26 -13 -61 -18 -78 -6 -16 -16 -86 -23 -154 l-11 -123 24 -25 c31 -31 85 -43 166 -38 80 6 86 -7 38 -77 -20 -29 -54 -78 -74 -108 -21 -30 -58 -75 -82 -100 -25 -25 -53 -54 -62 -65 -9 -11 -24 -26 -33 -33 -37 -31 3 -84 49 -67 30 11 236 211 236 229 0 6 16 31 36 56 49 62 64 102 64 175 0 83 -8 89 -122 86 -141 -3 -143 -2 -106 108 26 80 35 91 96 122 26 13 73 44 105 68 58 45 72 76 44 99 -18 15 -78 -2 -114 -32 -15 -13 -41 -26 -58 -30 -28 -7 -29 -7 -12 12 18 20 23 57 9 66 -20 12 -89 14 -110 3z" />
</ns0:g>
</g><g transform="translate(0.7852749265950933,1525.4742235998604) scale(0.05739972241727762)"><ns0:metadata>
Created by potrace 1.16, written by Peter Selinger 2001-2019
</ns0:metadata>
<ns0:g transform="translate(0.000000,205.000000) scale(0.100000,-0.100000)" fill="#000000" stroke="none">
<ns0:path d="M802 1318 c-45 -67 -75 -135 -68 -153 5 -14 9 -15 21 -5 12 10 15 10 15 -3 0 -9 -4 -27 -10 -41 -5 -14 -16 -76 -25 -138 -17 -125 -33 -223 -41 -251 -5 -15 -8 -16 -20 -6 -29 24 -38 -4 -24 -78 21 -111 57 -151 107 -118 25 17 27 22 42 145 23 192 62 413 78 443 9 18 20 52 24 77 4 25 10 62 14 82 4 20 5 48 1 62 -5 22 -12 26 -46 26 -35 0 -42 -5 -68 -42z" />
</ns0:g>
</g></svg>