<?xml version='1.0' encoding='utf-8'?>
<svg xmlns:ns0="http://www.w3.org/2000/svg" xmlns="http://www.w3.org/2000/svg" width="249" height="109" viewBox="0 0 249 109"><g transform="translate(2.479335964789186,-90.90810190555354) scale(0.0460041892903181)"><ns0:metadata>
Created by potrace 1.16, written by Peter Selinger 2001-2019
</ns0:metadata>
<ns0:g transform="translate(0.000000,206.000000) scale(0.100000,-0.100000)" fill="#000000" stroke="none">
<ns0:path d="M1199 1320 c-33 -17 -38 -26 -53 -87 -9 -37 -20 -99 -26 -138 -13 -100 -45 -249 -69 -325 -12 -36 -21 -79 -21 -97 0 -18 -6 -52 -14 -75 -8 -24 -17 -61 -21 -83 -3 -22 -8 -50 -11 -62 -3 -17 2 -23 27 -28 57 -13 78 27 120 230 10 50 27 119 37 155 11 36 30 112 42 170 13 58 29 112 36 120 6 8 15 33 19 55 3 22 14 48 22 57 18 20 13 48 -17 96 -23 37 -23 37 -71 12z" />
</ns0:g>
</g><g transform="translate(-1.12858475673994,51.19512767933381) scale(0.0460041892903181)"><ns0:metadata>
Created by potrace 1.16, written by Peter Selinger 2001-2019
</ns0:metadata>
<ns0:g transform="translate(0.000000,210.000000) scale(0.100000,-0.100000)" fill="#000000" stroke="none">
<ns0:path d="M1210 915 c-14 -7 -33 -16 -43 -19 -40 -13 -65 -149 -32 -176 8 -7 15 -18 15 -24 0 -7 13 -25 29 -40 28 -27 29 -27 67 -11 49 20 71 41 96 89 31 60 20 107 -34 156 -47 43 -61 46 -98 25z" />
</ns0:g>
</g><g transform="translate(2.828693622820367,176.76563140770662) scale(0.0460041892903181)"><ns0:metadata>
Created by potrace 1.16, written by Peter Selinger 2001-2019
</ns0:metadata>
<ns0:g transform="translate(0.000000,213.000000) scale(0.100000,-0.100000)" fill="#000000" stroke="none">
<ns0:path d="M1097 1492 c-10 -10 -17 -22 -17 -26 0 -5 -6 -22 -14 -39 -8 -18 -24 -61 -35 -97 -26 -84 -40 -126 -61 -175 -10 -22 -21 -51 -25 -65 -4 -14 -20 -53 -36 -86 -20 -45 -34 -63 -52 -68 -31 -7 -44 -36 -23 -52 20 -14 20 -32 0 -101 -33 -113 -3 -192 93 -247 l63 -36 37 19 c118 61 197 312 132 418 -21 34 -33 40 -44 23 -4 -7 -12 -7 -25 0 -10 5 -28 10 -40 10 -28 0 -34 22 -17 62 8 18 24 60 36 93 12 33 28 74 36 90 7 17 21 52 31 78 9 26 21 50 25 53 5 3 9 16 9 28 0 13 9 35 20 49 28 35 26 65 -6 77 -38 15 -69 12 -87 -8z m-13 -618 c9 -8 16 -25 16 -37 -1 -31 -53 -145 -86 -186 l-27 -34 -29 32 c-31 35 -32 61 -7 151 25 87 28 90 74 90 26 0 50 -6 59 -16z" />
</ns0:g>
</g><g transform="translate(2.2541752617372026,325.42405539844094) scale(0.0460041892903181)"><ns0:metadata>
Created by potrace 1.16, written by Peter Selinger 2001-2019
</ns0:metadata>
<ns0:g transform="translate(0.000000,212.000000) scale(0.100000,-0.100000)" fill="#000000" stroke="none">
<ns0:path d="M1068 1345 c-44 -35 -64 -53 -85 -77 -6 -7 -26 -24 -44 -38 -58 -43 -79 -68 -79 -93 0 -28 14 -43 50 -52 28 -7 46 7 94 74 17 23 35 41 42 41 7 0 14 -26 19 -67 11 -108 39 -169 88 -197 23 -13 61 -27 85 -31 73 -12 178 42 227 117 6 8 23 35 40 59 45 67 85 150 85 180 0 25 -27 59 -46 59 -5 0 -18 -21 -29 -47 -11 -25 -33 -63 -50 -84 -16 -21 -48 -62 -69 -90 -22 -28 -54 -58 -72 -65 -18 -8 -35 -18 -39 -24 -17 -27 -86 14 -104 62 -5 13 -8 73 -8 135 0 121 -13 173 -43 173 -10 0 -38 -16 -62 -35z" />
</ns0:g>
</g><g transform="translate(1.550357541851838,438.37385512303774) scale(0.0460041892903181)"><ns0:metadata>
Created by potrace 1.16, written by Peter Selinger 2001-2019
</ns0:metadata>
<ns0:g transform="translate(0.000000,205.000000) scale(0.100000,-0.100000)" fill="#000000" stroke="none">
<ns0:path d="M802 1318 c-45 -67 -75 -135 -68 -153 5 -14 9 -15 21 -5 12 10 15 10 15 -3 0 -9 -4 -27 -10 -41 -5 -14 -16 -76 -25 -138 -17 -125 -33 -223 -41 -251 -5 -15 -8 -16 -20 -6 -29 24 -38 -4 -24 -78 21 -111 57 -151 107 -118 25 17 27 22 42 145 23 192 62 413 78 443 9 18 20 52 24 77 4 25 10 62 14 82 4 20 5 48 1 62 -5 22 -12 26 -46 26 -35 0 -42 -5 -68 -42z" />
</ns0:g>
</g><g transform="translate(-2.479203527561822,575.0832462180413) scale(0.0460041892903181)"><ns0:metadata>
Created by potrace 1.16, written by Peter Selinger 2001-2019
</ns0:metadata>
<ns0:g transform="translate(0.000000,210.000000) scale(0.100000,-0.100000)" fill="#000000" stroke="none">
<ns0:path d="M1248 963 c-59 -16 -138 -78 -138 -110 0 -9 16 -31 35 -49 l35 -33 -16 -40 c-48 -120 70 -135 147 -20 60 90 60 90 54 154 -5 56 -28 106 -51 111 -5 1 -35 -5 -66 -13z" />
</ns0:g>
</g><g transform="translate(-0.8632556614014106,699.6570288884396) scale(0.0460041892903181)"><ns0:metadata>
Created by potrace 1.16, written by Peter Selinger 2001-2019
</ns0:metadata>
<ns0:g transform="translate(0.000000,213.000000) scale(0.100000,-0.100000)" fill="#000000" stroke="none">
<ns0:path d="M1137 1450 c-150 -146 -227 -242 -227 -282 0 -31 57 -132 94 -167 34 -32 33 -39 -8 -87 -18 -21 -56 -74 -85 -118 -39 -61 -51 -87 -51 -118 0 -39 0 -40 73 -73 40 -18 86 -37 102 -41 17 -4 40 -14 52 -21 29 -19 113 -43 193 -55 123 -18 115 -21 118 47 3 65 -15 113 -94 250 -19 33 -38 69 -43 80 -5 11 -25 37 -45 57 -61 62 -50 90 82 211 23 21 42 44 42 51 0 7 7 28 17 46 32 66 61 226 49 276 -10 40 -52 69 -99 69 -40 1 -47 -4 -170 -125z m174 18 c3 -33 -40 -178 -65 -221 -21 -34 -156 -147 -177 -147 -18 0 -39 33 -39 61 0 33 25 89 40 89 6 0 10 5 10 11 0 17 69 99 83 99 7 0 23 16 36 36 44 64 109 106 112 72z m-158 -634 c7 -12 35 -62 64 -111 28 -48 55 -101 59 -117 7 -29 7 -29 -29 -22 -20 4 -56 16 -79 26 -24 11 -48 20 -55 20 -11 0 -122 47 -131 55 -11 10 29 88 71 143 48 61 50 62 69 46 10 -10 24 -28 31 -40z" />
</ns0:g>
</g></svg>