<?xml version='1.0' encoding='utf-8'?>
<svg xmlns:ns0="http://www.w3.org/2000/svg" xmlns="http://www.w3.org/2000/svg" width="221" height="121" viewBox="0 0 221 121"><g transform="translate(2.701942503444002,-121.40914881338996) scale(0.051068870680077885)"><ns0:metadata>
Created by potrace 1.16, written by Peter Selinger 2001-2019
</ns0:metadata>
<ns0:g transform="translate(0.000000,205.000000) scale(0.100000,-0.100000)" fill="#000000" stroke="none">
<ns0:path d="M784 1709 c-18 -5 -35 -16 -38 -25 -3 -9 -13 -93 -22 -187 -8 -95 -23 -228 -33 -297 -29 -200 -27 -222 24 -256 23 -15 27 -15 54 2 46 30 266 232 321 295 48 55 63 89 39 89 -17 0 -149 -89 -149 -100 0 -6 -21 -20 -47 -32 -27 -11 -67 -36 -90 -54 -44 -36 -63 -42 -63 -21 0 17 31 208 37 227 4 11 7 10 13 -6 5 -12 22 -26 39 -32 27 -9 38 -7 83 17 29 15 86 60 127 99 76 75 152 131 212 156 42 18 49 24 42 42 -16 41 -169 -9 -278 -91 -41 -30 -80 -55 -88 -55 -8 0 -25 -8 -38 -19 -13 -10 -34 -21 -46 -25 -11 -4 -27 -13 -33 -21 -26 -31 -32 -15 -26 73 4 48 12 113 18 144 8 45 8 61 -2 73 -14 17 -13 17 -56 4z" />
<ns0:path d="M460 1622 c-35 -17 -35 -17 -42 -102 -18 -233 -19 -242 -47 -267 -14 -14 -44 -33 -67 -43 -56 -27 -94 -64 -94 -93 0 -35 44 -61 98 -58 l43 2 -3 -66 -3 -66 -45 -23 c-25 -13 -81 -41 -125 -62 -87 -43 -103 -68 -69 -105 22 -24 58 -24 92 0 15 10 44 24 64 30 21 7 40 17 43 22 4 5 10 9 16 9 14 0 10 -57 -11 -150 -11 -47 -20 -97 -20 -112 0 -15 -4 -29 -9 -32 -9 -6 -129 16 -161 29 -8 3 -25 21 -38 40 -29 46 -52 46 -52 1 0 -69 78 -136 177 -151 24 -3 49 -12 56 -19 37 -38 107 -50 107 -18 0 10 7 27 15 39 9 13 13 32 10 45 -3 13 -1 52 5 88 6 36 16 102 23 148 8 45 19 88 25 94 7 7 12 23 12 38 1 14 6 35 13 46 11 20 90 93 120 111 18 11 67 78 67 91 0 25 -59 11 -116 -28 -33 -22 -65 -40 -71 -40 -15 0 -17 26 -4 34 5 3 16 41 26 83 9 43 19 86 21 95 3 10 31 38 62 62 49 39 92 90 92 110 0 15 -69 3 -105 -19 -55 -34 -64 -33 -55 13 12 62 33 126 47 143 23 28 15 56 -23 78 -19 12 -36 21 -37 21 -1 -1 -18 -9 -37 -18z" />
<ns0:path d="M1353 1182 c-13 -4 -35 -17 -50 -29 -16 -12 -46 -36 -68 -53 -22 -16 -46 -34 -52 -40 -7 -6 -28 -20 -48 -31 -19 -12 -35 -25 -35 -29 0 -4 -15 -15 -32 -24 -18 -9 -67 -37 -108 -61 -71 -42 -88 -51 -150 -79 -32 -14 -40 -25 -40 -58 0 -17 -6 -28 -17 -30 -31 -6 -61 -161 -75 -379 -6 -108 -9 -203 -5 -212 3 -9 15 -17 26 -17 36 0 66 95 76 240 6 94 17 117 33 72 7 -21 18 -31 40 -35 33 -7 105 30 207 104 28 20 60 40 73 44 16 5 22 13 20 28 -3 19 -9 22 -51 20 -46 -1 -158 -43 -261 -98 l-48 -26 6 38 c4 21 13 54 21 73 8 19 19 54 25 77 9 36 20 49 80 90 39 26 89 59 113 73 48 28 150 101 200 142 17 15 33 25 35 23 3 -2 -1 -64 -8 -137 -15 -168 -10 -592 7 -609 18 -18 43 6 43 41 0 15 8 42 17 61 14 27 17 71 20 234 3 200 14 305 38 380 19 61 28 170 15 194 -11 22 -13 23 -47 13z" />
<ns0:path d="M1160 413 c-66 -28 -247 -142 -286 -180 -22 -21 -53 -45 -69 -53 -44 -21 -104 -69 -116 -92 -8 -14 -7 -25 5 -42 19 -30 60 -38 97 -19 30 15 43 27 167 156 41 41 89 83 108 92 19 9 42 27 51 41 9 14 36 39 60 55 62 43 51 71 -17 42z" />
</ns0:g>
</g><g transform="translate(0.17383809311775167,28.439011231595117) scale(0.051068870680077885)"><ns0:metadata>
Created by potrace 1.16, written by Peter Selinger 2001-2019
</ns0:metadata>
<ns0:g transform="translate(0.000000,204.000000) scale(0.100000,-0.100000)" fill="#000000" stroke="none">
<ns0:path d="M1399 1626 c-49 -35 -186 -116 -197 -116 -5 0 -27 -12 -48 -28 -35 -25 -73 -44 -174 -86 -19 -8 -46 -22 -60 -30 -14 -8 -52 -23 -84 -33 -102 -31 -127 -100 -45 -125 38 -11 45 -9 102 20 34 17 78 40 97 51 19 11 61 32 93 47 31 15 57 30 57 34 0 8 97 70 110 70 5 0 29 16 54 35 26 19 50 35 54 35 4 0 31 22 60 49 82 75 67 138 -19 77z" />
<ns0:path d="M1320 1223 c-54 -9 -207 -66 -235 -87 -16 -13 -55 -35 -85 -50 -30 -16 -82 -46 -115 -67 -33 -22 -71 -44 -85 -51 -14 -6 -36 -22 -50 -34 -26 -23 -254 -164 -265 -164 -4 0 -21 -14 -38 -31 -31 -31 -174 -129 -188 -129 -11 0 -49 -69 -49 -88 0 -52 73 -84 102 -44 7 10 36 34 63 54 28 20 65 53 83 72 19 20 40 36 48 36 8 0 14 4 14 10 0 5 17 19 37 30 21 11 56 34 78 51 22 16 58 39 80 51 22 11 45 29 52 38 7 10 26 23 43 30 16 7 30 16 30 21 0 5 10 13 23 18 12 5 59 32 105 60 46 28 86 51 88 51 3 0 20 11 37 24 65 47 67 46 69 -57 4 -263 -1 -454 -14 -497 l-14 -44 -22 58 c-12 32 -22 71 -22 87 0 43 -47 61 -110 43 -48 -14 -117 -79 -147 -138 -8 -17 -30 -47 -48 -66 -40 -43 -109 -172 -119 -220 -7 -40 12 -77 35 -68 8 3 23 23 34 44 11 21 26 45 33 52 6 7 12 20 12 28 0 8 7 17 15 20 8 3 26 26 40 50 14 24 30 44 34 44 5 0 14 13 21 29 6 16 22 39 36 52 13 12 24 28 24 34 0 6 14 21 30 33 l30 23 11 -28 c6 -15 19 -62 29 -103 10 -41 26 -97 35 -125 9 -27 18 -55 20 -60 4 -16 52 -38 69 -32 8 3 18 25 21 51 4 25 11 46 16 46 5 0 9 11 9 25 0 14 11 81 24 148 20 96 26 165 30 326 l5 204 40 41 c50 51 53 76 12 76 -17 0 -32 -4 -35 -8 -4 -7 -32 -8 -56 -2 -7 1 64 36 117 56 44 17 46 17 59 -1 12 -16 17 -17 40 -6 22 10 25 16 19 39 -3 15 -13 33 -22 40 -16 11 -80 14 -133 5z" />
<ns0:path d="M1656 668 c-11 -44 -6 -77 18 -105 19 -23 24 -39 23 -76 -2 -52 11 -72 42 -62 29 9 52 61 58 130 5 55 3 62 -21 84 -14 14 -26 30 -26 38 0 9 -14 13 -44 13 -37 0 -45 -4 -50 -22z" />
</ns0:g>
</g><g transform="translate(-1.5613362453264017,173.97050302703423) scale(0.051068870680077885)"><ns0:metadata>
Created by potrace 1.16, written by Peter Selinger 2001-2019
</ns0:metadata>
<ns0:g transform="translate(0.000000,213.000000) scale(0.100000,-0.100000)" fill="#000000" stroke="none">
<ns0:path d="M1436 1915 c-15 -8 -54 -36 -85 -62 -86 -74 -205 -150 -381 -247 -47 -25 -100 -58 -117 -73 l-33 -26 0 23 c0 37 22 104 42 126 27 30 22 48 -17 67 -45 21 -64 21 -91 -1 -25 -20 -30 -41 -48 -222 -12 -119 -26 -184 -55 -255 -5 -11 -16 -54 -25 -95 -9 -42 -26 -91 -38 -110 -12 -19 -39 -69 -60 -110 -34 -65 -38 -70 -35 -40 2 19 18 91 35 160 48 191 62 293 63 435 0 121 7 187 23 226 11 27 -20 49 -69 49 -64 0 -73 -23 -69 -170 6 -233 5 -260 -9 -278 -11 -14 -46 -12 -154 9 -40 8 -53 15 -53 28 0 34 -33 51 -102 53 -75 3 -118 -18 -118 -55 0 -32 35 -67 68 -67 15 0 47 -8 72 -17 31 -11 82 -16 162 -17 81 -1 118 -5 118 -12 0 -32 -33 -181 -46 -205 -8 -16 -14 -38 -14 -51 0 -35 -54 -231 -93 -340 -21 -59 -46 -111 -66 -133 -33 -39 -37 -68 -10 -73 24 -4 106 84 134 145 14 28 25 55 25 60 0 4 4 14 9 22 8 12 31 -5 108 -80 76 -73 111 -98 152 -113 50 -18 54 -18 69 -2 16 16 12 22 -60 89 -42 40 -84 86 -92 104 -9 18 -22 36 -30 40 -18 11 -46 67 -46 92 0 11 6 24 14 28 17 10 125 163 160 226 14 26 29 66 32 90 4 23 14 53 23 67 27 39 41 78 56 149 7 36 18 77 23 91 9 24 10 24 18 5 18 -46 64 -47 107 -1 18 18 48 44 67 57 19 12 55 39 80 59 45 37 157 96 165 88 2 -2 -2 -22 -10 -45 -21 -60 -51 -260 -66 -433 -5 -58 -11 -118 -13 -135 -3 -16 -10 -104 -16 -194 -10 -164 0 -342 30 -510 6 -36 6 -57 0 -61 -5 -3 -45 -2 -87 2 -136 15 -297 10 -386 -11 -45 -11 -104 -22 -130 -26 -26 -4 -58 -15 -70 -25 l-22 -18 27 -7 c15 -4 99 -2 188 5 122 8 184 8 258 0 53 -7 100 -14 103 -15 3 -2 37 -9 75 -15 38 -6 77 -18 86 -27 15 -13 22 -14 48 -3 28 12 31 17 29 49 -2 20 0 41 4 47 3 6 -2 51 -12 100 -29 140 -45 340 -38 461 19 307 32 446 68 705 14 99 91 275 148 340 43 48 52 82 25 92 -19 7 -14 8 -48 -9z" />
</ns0:g>
</g></svg>