<?xml version='1.0' encoding='utf-8'?>
<svg xmlns:ns0="http://www.w3.org/2000/svg" xmlns="http://www.w3.org/2000/svg" width="235" height="152" viewBox="0 0 235 152"><g transform="translate(-1.0267513779775186,-122.84295287690007) scale(0.06415263093695735)"><ns0:metadata>
Created by potrace 1.16, written by Peter Selinger 2001-2019
</ns0:metadata>
<ns0:g transform="translate(0.000000,208.000000) scale(0.100000,-0.100000)" fill="#000000" stroke="none">
<ns0:path d="M862 1397 c-24 -13 -29 -23 -42 -94 -4 -26 -13 -61 -18 -78 -6 -16 -16 -86 -23 -154 l-11 -123 24 -25 c31 -31 85 -43 166 -38 80 6 86 -7 38 -77 -20 -29 -54 -78 -74 -108 -21 -30 -58 -75 -82 -100 -25 -25 -53 -54 -62 -65 -9 -11 -24 -26 -33 -33 -37 -31 3 -84 49 -67 30 11 236 211 236 229 0 6 16 31 36 56 49 62 64 102 64 175 0 83 -8 89 -122 86 -141 -3 -143 -2 -106 108 26 80 35 91 96 122 26 13 73 44 105 68 58 45 72 76 44 99 -18 15 -78 -2 -114 -32 -15 -13 -41 -26 -58 -30 -28 -7 -29 -7 -12 12 18 20 23 57 9 66 -20 12 -89 14 -110 3z" />
</ns0:g>
</g><g transform="translate(2.478237491109553,67.7020295330565) scale(0.06415263093695735)"><ns0:metadata>
Created by potrace 1.16, written by Peter Selinger 2001-2019
</ns0:metadata>
<ns0:g transform="translate(0.000000,217.000000) scale(0.100000,-0.100000)" fill="#000000" stroke="none">
<ns0:path d="M1086 1619 c-14 -11 -38 -24 -53 -30 -32 -11 -73 -65 -73 -97 0 -12 9 -26 20 -32 11 -6 20 -17 20 -24 0 -8 12 -37 26 -64 23 -45 26 -62 27 -163 0 -111 -15 -269 -35 -359 -5 -24 -27 -71 -48 -102 -66 -99 -38 -127 132 -136 153 -8 289 -5 299 5 5 5 6 30 3 56 l-7 47 -76 1 c-131 2 -203 7 -212 16 -5 5 -3 30 6 59 22 71 43 271 47 444 2 51 -12 168 -22 194 -19 50 -12 69 34 99 24 15 67 32 96 37 60 11 70 16 70 35 0 26 -37 35 -134 34 -79 -1 -100 -4 -120 -20z" />
</ns0:g>
</g><g transform="translate(1.6058279371403046,250.510393629541) scale(0.06415263093695735)"><ns0:metadata>
Created by potrace 1.16, written by Peter Selinger 2001-2019
</ns0:metadata>
<ns0:g transform="translate(0.000000,206.000000) scale(0.100000,-0.100000)" fill="#000000" stroke="none">
<ns0:path d="M832 1494 c-13 -9 -22 -26 -22 -40 0 -26 -5 -26 -57 -7 -25 10 -43 -44 -53 -157 -5 -63 -17 -158 -26 -210 -37 -223 -43 -284 -33 -329 21 -93 91 -146 174 -130 49 9 156 79 198 129 52 61 65 320 25 491 -12 52 -21 118 -20 148 2 72 -9 88 -63 97 -25 3 -45 10 -45 15 0 15 -54 10 -78 -7z m63 -98 c10 4 15 0 15 -15 0 -12 12 -79 28 -149 30 -141 34 -248 13 -350 -12 -53 -20 -67 -52 -93 -48 -38 -101 -54 -129 -39 -17 9 -20 20 -19 73 0 61 3 81 32 247 8 47 20 137 27 200 14 145 13 142 45 130 13 -5 32 -7 40 -4z" />
</ns0:g>
</g><g transform="translate(2.5188021097043247,453.0125731481472) scale(0.06415263093695735)"><ns0:metadata>
Created by potrace 1.16, written by Peter Selinger 2001-2019
</ns0:metadata>
<ns0:g transform="translate(0.000000,210.000000) scale(0.100000,-0.100000)" fill="#000000" stroke="none">
<ns0:path d="M756 1009 c-35 -51 -5 -121 57 -133 20 -4 50 0 74 8 37 13 223 15 348 4 l30 -3 -2 63 c-1 35 -3 65 -5 67 -2 1 -112 6 -244 10 l-242 7 -16 -23z" />
</ns0:g>
</g><g transform="translate(2.082382330054145,620.7688197644604) scale(0.06415263093695735)"><ns0:metadata>
Created by potrace 1.16, written by Peter Selinger 2001-2019
</ns0:metadata>
<ns0:g transform="translate(0.000000,206.000000) scale(0.100000,-0.100000)" fill="#000000" stroke="none">
<ns0:path d="M1261 1449 c-32 -26 -41 -81 -47 -284 -2 -88 -10 -214 -18 -280 -7 -66 -9 -130 -5 -141 4 -12 5 -31 3 -41 -3 -11 1 -25 10 -32 12 -10 20 -7 45 16 27 24 32 37 37 93 9 116 36 284 51 327 10 28 13 60 10 95 -4 29 -3 83 1 121 9 75 -3 118 -37 136 -25 14 -21 14 -50 -10z" />
</ns0:g>
</g><g transform="translate(-1.1033570146460079,800.4855397289416) scale(0.06415263093695735)"><ns0:metadata>
Created by potrace 1.16, written by Peter Selinger 2001-2019
</ns0:metadata>
<ns0:g transform="translate(0.000000,217.000000) scale(0.100000,-0.100000)" fill="#000000" stroke="none">
<ns0:path d="M1394 1620 c-37 -8 -94 -42 -138 -81 -18 -15 -62 -35 -104 -47 -62 -18 -82 -19 -132 -10 -54 9 -62 8 -90 -12 -29 -20 -31 -26 -25 -59 8 -43 30 -81 49 -81 7 0 21 -9 31 -20 28 -31 47 -26 43 12 -3 33 -3 33 61 46 35 7 86 24 112 39 27 14 52 24 55 20 8 -8 11 -491 3 -593 -6 -89 -13 -108 -36 -100 -8 4 -31 2 -52 -3 -20 -6 -82 -15 -139 -22 -56 -6 -105 -15 -108 -20 -3 -5 -16 -9 -28 -9 -32 0 -68 -31 -57 -49 6 -9 14 -10 27 -3 11 5 99 10 198 11 141 2 183 -1 200 -13 12 -7 34 -12 48 -9 44 8 50 59 53 450 2 193 6 366 10 383 4 18 25 50 46 71 40 40 49 75 27 97 -7 7 -14 12 -17 11 -4 -1 -20 -4 -37 -9z" />
</ns0:g>
</g></svg>