<?xml version='1.0' encoding='utf-8'?>
<svg xmlns:ns0="http://www.w3.org/2000/svg" xmlns="http://www.w3.org/2000/svg" width="235" height="122" viewBox="0 0 235 122"><g transform="translate(-1.832545400890183,-101.48580467778527) scale(0.051490927462557866)"><ns0:metadata>
Created by potrace 1.16, written by Peter Selinger 2001-2019
</ns0:metadata>
<ns0:g transform="translate(0.000000,208.000000) scale(0.100000,-0.100000)" fill="#000000" stroke="none">
<ns0:path d="M948 1211 c-21 -12 -28 -24 -28 -48 0 -46 45 -70 128 -68 34 1 65 5 69 8 8 9 87 9 96 1 7 -8 -27 -87 -61 -139 -29 -45 -84 -90 -149 -123 -54 -28 -62 -50 -28 -79 30 -26 74 -29 114 -8 16 8 47 17 70 21 35 6 41 4 41 -10 0 -30 -131 -183 -173 -202 -20 -9 -42 -23 -48 -30 -6 -7 -34 -20 -62 -30 -29 -9 -59 -23 -67 -31 -13 -13 -13 -16 5 -29 13 -10 30 -13 50 -9 17 4 48 11 70 15 93 17 243 120 281 192 8 15 25 43 38 63 19 27 24 49 25 94 0 65 -7 75 -57 86 l-33 7 40 73 c40 75 60 161 46 204 -12 38 -52 49 -200 54 -118 4 -144 2 -167 -12z" />
</ns0:g>
</g><g transform="translate(-0.733774524804403,46.717787930254076) scale(0.051490927462557866)"><ns0:metadata>
Created by potrace 1.16, written by Peter Selinger 2001-2019
</ns0:metadata>
<ns0:g transform="translate(0.000000,206.000000) scale(0.100000,-0.100000)" fill="#000000" stroke="none">
<ns0:path d="M1199 1320 c-33 -17 -38 -26 -53 -87 -9 -37 -20 -99 -26 -138 -13 -100 -45 -249 -69 -325 -12 -36 -21 -79 -21 -97 0 -18 -6 -52 -14 -75 -8 -24 -17 -61 -21 -83 -3 -22 -8 -50 -11 -62 -3 -17 2 -23 27 -28 57 -13 78 27 120 230 10 50 27 119 37 155 11 36 30 112 42 170 13 58 29 112 36 120 6 8 15 33 19 55 3 22 14 48 22 57 18 20 13 48 -17 96 -23 37 -23 37 -71 12z" />
</ns0:g>
</g><g transform="translate(-1.9009420802671002,181.34213339065246) scale(0.051490927462557866)"><ns0:metadata>
Created by potrace 1.16, written by Peter Selinger 2001-2019
</ns0:metadata>
<ns0:g transform="translate(0.000000,208.000000) scale(0.100000,-0.100000)" fill="#000000" stroke="none">
<ns0:path d="M958 1305 c-16 -9 -29 -21 -29 -28 -2 -24 3 -42 17 -58 8 -8 17 -37 20 -62 5 -38 3 -51 -11 -67 -15 -16 -15 -22 -5 -35 12 -15 9 -139 -6 -266 -8 -66 20 -95 103 -108 35 -5 78 -7 98 -4 54 9 45 -21 -27 -90 -73 -69 -172 -147 -186 -147 -6 0 -12 -4 -14 -9 -3 -7 -36 -27 -165 -97 -43 -23 -88 -40 -133 -48 -94 -18 -103 -23 -78 -44 19 -15 209 20 293 55 39 16 95 45 125 64 30 20 70 42 88 49 17 7 32 16 32 21 0 5 5 9 11 9 6 0 29 16 50 35 22 19 45 35 53 35 16 0 65 58 90 107 20 40 22 136 2 152 -14 12 -165 8 -198 -4 -8 -3 -20 1 -27 9 -10 12 -9 39 4 133 17 128 20 132 96 173 20 10 44 31 53 45 9 14 34 33 54 43 57 25 72 42 72 78 0 71 -26 82 -95 39 -50 -30 -63 -31 -67 -2 -3 20 -9 22 -58 23 -30 1 -73 5 -95 8 -27 4 -49 1 -67 -9z m183 -79 c-29 -30 -58 -39 -66 -19 -9 24 14 43 53 43 l35 0 -22 -24z" />
</ns0:g>
</g><g transform="translate(1.5568584318338026,345.3027484437801) scale(0.051490927462557866)"><ns0:metadata>
Created by potrace 1.16, written by Peter Selinger 2001-2019
</ns0:metadata>
<ns0:g transform="translate(0.000000,217.000000) scale(0.100000,-0.100000)" fill="#000000" stroke="none">
<ns0:path d="M1450 1621 c-8 -5 -41 -12 -72 -16 -32 -3 -58 -10 -58 -14 0 -11 -69 -31 -85 -24 -18 6 -73 -27 -78 -46 -6 -29 5 -60 23 -66 18 -6 56 -107 47 -122 -3 -5 -1 -42 4 -83 6 -41 10 -79 11 -85 2 -17 -32 -297 -43 -355 -6 -30 -21 -76 -35 -101 -30 -59 -30 -66 2 -91 19 -15 43 -21 89 -23 49 -2 79 -10 129 -34 80 -40 136 -50 155 -27 12 14 8 21 -28 56 -24 21 -58 46 -76 55 -19 8 -37 20 -40 25 -3 4 -22 14 -43 21 -57 18 -60 22 -50 86 21 149 31 283 33 449 l1 181 34 41 c22 28 44 44 66 48 23 4 34 13 38 30 4 13 13 24 21 24 8 0 19 9 25 20 22 42 -25 76 -70 51z" />
</ns0:g>
</g><g transform="translate(-0.16983555269769113,491.96919454166243) scale(0.051490927462557866)"><ns0:metadata>
Created by potrace 1.16, written by Peter Selinger 2001-2019
</ns0:metadata>
<ns0:g transform="translate(0.000000,214.000000) scale(0.100000,-0.100000)" fill="#000000" stroke="none">
<ns0:path d="M1328 1472 c-1 -5 -36 -28 -76 -52 -73 -43 -91 -48 -252 -71 -94 -14 -110 -22 -110 -59 0 -57 66 -89 121 -59 11 5 50 18 87 28 37 11 77 22 90 26 23 8 23 7 17 -41 -9 -73 -26 -145 -41 -184 -8 -19 -19 -68 -24 -109 -6 -40 -12 -76 -15 -80 -12 -20 -32 -204 -28 -254 6 -66 30 -91 80 -85 l28 3 7 120 c8 160 31 273 129 637 5 20 20 50 32 65 26 31 34 88 16 109 -12 15 -55 19 -61 6z" />
</ns0:g>
</g><g transform="translate(0.49770346433496115,654.1108418468995) scale(0.051490927462557866)"><ns0:metadata>
Created by potrace 1.16, written by Peter Selinger 2001-2019
</ns0:metadata>
<ns0:g transform="translate(0.000000,210.000000) scale(0.100000,-0.100000)" fill="#000000" stroke="none">
<ns0:path d="M653 1020 c-13 -5 -23 -14 -23 -20 0 -20 28 -77 41 -86 33 -21 442 -56 487 -42 41 12 41 33 1 85 -28 36 -35 40 -59 33 -52 -15 -181 -3 -337 31 -51 11 -81 11 -110 -1z" />
</ns0:g>
</g><g transform="translate(-1.3124591289250702,784.8641550766583) scale(0.051490927462557866)"><ns0:metadata>
Created by potrace 1.16, written by Peter Selinger 2001-2019
</ns0:metadata>
<ns0:g transform="translate(0.000000,213.000000) scale(0.100000,-0.100000)" fill="#000000" stroke="none">
<ns0:path d="M1263 1463 c-38 -7 -193 -184 -228 -261 -14 -30 -14 -43 5 -145 28 -152 36 -189 44 -208 7 -16 -36 -71 -124 -159 -14 -14 -37 -47 -50 -73 l-25 -48 23 -20 c15 -11 38 -18 60 -18 21 0 96 -4 167 -9 143 -11 238 0 271 30 16 14 21 44 15 87 0 4 -26 28 -58 52 -87 68 -133 119 -133 148 0 14 34 94 75 178 41 84 79 170 83 190 8 39 -3 130 -18 148 -5 6 -11 28 -15 50 -12 63 -24 71 -92 58z m15 -168 c32 -69 -10 -190 -94 -275 -21 -21 -30 -3 -44 82 l-12 68 62 75 c35 41 66 75 70 75 4 0 12 -11 18 -25z m-75 -604 c31 -27 66 -52 77 -56 29 -9 21 -37 -14 -46 -16 -5 -51 -4 -79 2 -27 5 -64 9 -81 9 -51 0 -63 13 -41 47 32 50 66 93 74 93 4 0 33 -22 64 -49z" />
</ns0:g>
</g><g transform="translate(-0.11158608260438996,933.4065767001603) scale(0.051490927462557866)"><ns0:metadata>
Created by potrace 1.16, written by Peter Selinger 2001-2019
</ns0:metadata>
<ns0:g transform="translate(0.000000,217.000000) scale(0.100000,-0.100000)" fill="#000000" stroke="none">
<ns0:path d="M1394 1620 c-37 -8 -94 -42 -138 -81 -18 -15 -62 -35 -104 -47 -62 -18 -82 -19 -132 -10 -54 9 -62 8 -90 -12 -29 -20 -31 -26 -25 -59 8 -43 30 -81 49 -81 7 0 21 -9 31 -20 28 -31 47 -26 43 12 -3 33 -3 33 61 46 35 7 86 24 112 39 27 14 52 24 55 20 8 -8 11 -491 3 -593 -6 -89 -13 -108 -36 -100 -8 4 -31 2 -52 -3 -20 -6 -82 -15 -139 -22 -56 -6 -105 -15 -108 -20 -3 -5 -16 -9 -28 -9 -32 0 -68 -31 -57 -49 6 -9 14 -10 27 -3 11 5 99 10 198 11 141 2 183 -1 200 -13 12 -7 34 -12 48 -9 44 8 50 59 53 450 2 193 6 366 10 383 4 18 25 50 46 71 40 40 49 75 27 97 -7 7 -14 12 -17 11 -4 -1 -20 -4 -37 -9z" />
</ns0:g>
</g></svg>