<?xml version='1.0' encoding='utf-8'?>
<svg xmlns:ns0="http://www.w3.org/2000/svg" xmlns="http://www.w3.org/2000/svg" width="235" height="121" viewBox="0 0 235 121"><g transform="translate(-0.11401824445840703,-57.84140800339661) scale(0.02904797835528289)"><ns0:metadata>
Created by potrace 1.16, written by Peter Selinger 2001-2019
</ns0:metadata>
<ns0:g transform="translate(0.000000,208.000000) scale(0.100000,-0.100000)" fill="#000000" stroke="none">
<ns0:path d="M1070 1577 c-3 -3 -33 -8 -67 -11 -34 -3 -73 -10 -87 -16 -54 -20 -132 -78 -159 -117 -25 -36 -31 -40 -66 -37 -31 2 -44 -3 -63 -23 -19 -21 -23 -34 -21 -82 1 -31 10 -74 18 -95 23 -54 24 -175 3 -271 -10 -44 -21 -132 -24 -195 l-7 -115 -48 -43 c-85 -76 -127 -204 -81 -245 25 -23 80 -21 120 3 18 11 37 20 43 20 18 0 89 60 184 155 99 100 222 268 292 403 25 48 54 96 64 107 10 11 24 38 32 60 82 218 81 217 82 315 0 106 -13 138 -68 167 -30 15 -137 30 -147 20z m114 -120 c24 -33 26 -108 3 -183 -19 -59 -98 -216 -152 -299 -145 -225 -198 -298 -259 -363 -77 -80 -100 -90 -92 -39 3 17 11 79 16 137 6 58 19 157 30 220 10 63 20 162 21 220 3 102 3 105 40 160 21 30 46 65 56 76 32 38 114 77 187 90 101 17 125 14 150 -19z m-591 -1004 c-9 -7 -20 -13 -25 -13 -10 0 -11 32 -1 55 5 15 8 15 24 -6 17 -22 17 -25 2 -36z" />
</ns0:g>
</g><g transform="translate(0.5106777128677891,23.445994658152784) scale(0.02904797835528289)"><ns0:metadata>
Created by potrace 1.16, written by Peter Selinger 2001-2019
</ns0:metadata>
<ns0:g transform="translate(0.000000,212.000000) scale(0.100000,-0.100000)" fill="#000000" stroke="none">
<ns0:path d="M1117 1683 c-36 -19 -103 -104 -133 -169 -22 -48 -26 -52 -67 -58 -25 -4 -51 -12 -60 -19 -22 -16 -45 -128 -76 -367 -17 -127 -20 -140 -39 -140 -35 0 -61 -113 -41 -179 14 -49 -3 -143 -32 -176 -24 -28 -32 -107 -13 -134 15 -21 49 -27 70 -13 23 15 53 92 75 195 7 31 15 57 20 57 10 0 19 -27 19 -61 0 -69 173 -175 335 -204 45 -8 135 -49 162 -74 56 -50 85 -70 97 -65 8 3 26 22 40 43 34 49 40 139 10 172 l-19 21 -17 -22 c-10 -12 -18 -28 -18 -36 0 -26 -20 -23 -102 15 -46 22 -120 49 -166 61 -106 27 -177 63 -228 115 -71 71 -71 75 -10 136 29 30 60 68 69 84 8 17 28 44 44 62 15 17 35 41 43 53 8 12 23 33 33 45 9 13 17 29 17 37 0 7 11 31 25 53 67 110 114 255 122 370 5 80 3 95 -17 138 -35 75 -79 94 -143 60z m65 -154 c7 -49 -1 -86 -43 -209 -33 -95 -134 -304 -158 -330 -9 -9 -38 -48 -65 -88 -61 -89 -97 -98 -66 -16 6 15 19 84 30 153 40 256 47 297 66 349 10 28 24 52 30 52 12 0 64 39 134 100 25 22 50 38 55 37 6 -2 13 -24 17 -48z" />
</ns0:g>
</g><g transform="translate(-2.9762275053796543,109.16876373588906) scale(0.02904797835528289)"><ns0:metadata>
Created by potrace 1.16, written by Peter Selinger 2001-2019
</ns0:metadata>
<ns0:g transform="translate(0.000000,211.000000) scale(0.100000,-0.100000)" fill="#000000" stroke="none">
<ns0:path d="M1360 1549 c-62 -34 -143 -69 -159 -69 -9 0 -47 -12 -86 -26 -38 -14 -86 -30 -105 -36 -19 -5 -46 -16 -60 -23 -14 -7 -47 -23 -75 -35 -27 -13 -53 -28 -57 -34 -14 -21 -8 -56 13 -77 30 -30 81 -20 155 30 67 45 152 81 190 81 l26 0 -6 -132 c-14 -270 -17 -377 -16 -531 0 -86 3 -164 6 -172 3 -7 20 -17 37 -21 38 -8 52 8 68 82 9 40 9 57 1 67 -8 9 -10 62 -7 173 3 87 5 197 5 244 0 47 4 110 10 140 6 30 14 73 18 94 4 23 15 43 27 50 30 16 36 28 31 58 -5 23 0 30 37 50 38 21 42 27 42 63 0 37 -2 40 -30 42 -16 1 -46 -7 -65 -18z" />
</ns0:g>
</g><g transform="translate(1.9347306057842388,191.48376863023083) scale(0.02904797835528289)"><ns0:metadata>
Created by potrace 1.16, written by Peter Selinger 2001-2019
</ns0:metadata>
<ns0:g transform="translate(0.000000,207.000000) scale(0.100000,-0.100000)" fill="#000000" stroke="none">
<ns0:path d="M1176 1670 c-26 -11 -80 -26 -120 -35 -54 -12 -82 -25 -117 -55 -46 -39 -47 -39 -64 -20 -21 23 -63 26 -88 7 -15 -10 -21 -53 -37 -272 -11 -143 -27 -312 -36 -375 -17 -119 -22 -193 -23 -342 l-1 -86 -45 -18 c-32 -12 -45 -22 -43 -33 3 -12 16 -16 58 -17 30 0 63 -4 72 -8 26 -12 52 -3 63 21 6 15 36 32 97 55 66 24 102 45 141 81 28 27 71 62 94 79 51 37 147 156 173 212 21 47 40 132 40 180 0 44 -55 108 -108 125 -21 7 -62 12 -91 10 -51 -4 -52 -4 -46 21 3 14 28 46 55 72 28 25 50 53 50 61 0 8 15 29 34 45 20 17 50 63 71 107 31 67 35 86 33 139 l-3 61 -55 1 c-33 1 -75 -6 -104 -16z m60 -94 c6 -16 -68 -131 -143 -220 -55 -66 -88 -117 -128 -193 -44 -84 21 -114 188 -87 52 9 87 -15 87 -59 0 -39 -60 -160 -109 -219 -54 -66 -191 -187 -236 -210 -22 -11 -53 -30 -69 -41 l-28 -20 4 169 c3 93 15 237 26 319 12 83 26 188 33 235 37 271 29 249 90 234 18 -4 36 2 64 20 21 14 43 26 50 26 7 0 18 7 25 15 7 8 22 15 34 16 11 0 37 6 56 13 47 18 50 18 56 2z" />
</ns0:g>
</g><g transform="translate(1.3872619450454522,278.7091745521388) scale(0.02904797835528289)"><ns0:metadata>
Created by potrace 1.16, written by Peter Selinger 2001-2019
</ns0:metadata>
<ns0:g transform="translate(0.000000,207.000000) scale(0.100000,-0.100000)" fill="#000000" stroke="none">
<ns0:path d="M514 1367 c-27 -18 -60 -38 -74 -44 -62 -29 -124 -53 -136 -53 -8 0 -21 -17 -30 -37 -15 -36 -15 -40 3 -73 22 -43 55 -50 94 -21 35 26 44 26 76 2 30 -24 51 -18 60 18 8 31 30 50 59 51 47 0 39 -78 -12 -116 -44 -34 -59 -81 -41 -125 13 -31 12 -37 -10 -71 -19 -28 -22 -41 -14 -56 12 -23 46 -46 80 -55 30 -7 81 46 116 121 33 71 59 81 188 75 53 -3 97 -9 97 -14 0 -11 -106 -167 -134 -198 -11 -12 -42 -41 -68 -63 -41 -34 -59 -41 -133 -55 -68 -12 -85 -19 -85 -33 0 -22 37 -30 135 -30 117 0 131 6 214 87 41 40 84 91 96 112 11 22 41 70 66 108 50 74 72 160 47 180 -7 6 -78 11 -162 11 -96 0 -153 5 -160 12 -6 6 -11 45 -11 90 -1 90 -17 122 -74 152 -18 9 -40 26 -48 37 -22 33 -80 28 -139 -12z" />
</ns0:g>
</g><g transform="translate(1.8130581259378005,369.8157596834093) scale(0.02904797835528289)"><ns0:metadata>
Created by potrace 1.16, written by Peter Selinger 2001-2019
</ns0:metadata>
<ns0:g transform="translate(0.000000,210.000000) scale(0.100000,-0.100000)" fill="#000000" stroke="none">
<ns0:path d="M756 1009 c-35 -51 -5 -121 57 -133 20 -4 50 0 74 8 37 13 223 15 348 4 l30 -3 -2 63 c-1 35 -3 65 -5 67 -2 1 -112 6 -244 10 l-242 7 -16 -23z" />
</ns0:g>
</g><g transform="translate(-1.5521406438918461,428.49915501732926) scale(0.02904797835528289)"><ns0:metadata>
Created by potrace 1.16, written by Peter Selinger 2001-2019
</ns0:metadata>
<ns0:g transform="translate(0.000000,207.000000) scale(0.100000,-0.100000)" fill="#000000" stroke="none">
<ns0:path d="M915 2060 c28 -12 55 -12 55 0 0 6 -17 10 -37 9 -31 0 -34 -2 -18 -9z" />
<ns0:path d="M1020 2036 c-41 -18 -97 -44 -125 -59 -27 -14 -69 -34 -92 -46 -24 -11 -43 -25 -43 -30 0 -6 -3 -10 -7 -10 -28 5 -50 -8 -103 -58 -66 -64 -79 -102 -39 -124 30 -15 87 -4 115 22 30 28 30 25 0 -97 -13 -54 -27 -117 -31 -139 -3 -22 -22 -76 -40 -120 -51 -120 -85 -215 -85 -236 0 -11 -4 -27 -9 -37 -25 -47 -70 -151 -81 -184 -6 -21 -16 -40 -21 -43 -5 -4 -9 -14 -9 -23 0 -28 -103 -225 -136 -262 -15 -16 -23 -37 -22 -60 0 -19 -6 -55 -15 -80 -8 -25 -24 -83 -35 -130 -11 -47 -39 -137 -61 -200 -22 -63 -41 -116 -41 -117 0 -2 22 -3 49 -3 46 0 49 2 61 33 11 29 28 71 65 162 7 17 23 73 34 125 28 121 58 196 88 215 28 19 28 15 3 -35 -37 -73 -23 -104 57 -130 35 -11 53 -11 100 -1 32 7 65 19 73 26 8 8 27 17 42 20 24 6 30 2 48 -27 20 -34 74 -68 110 -68 24 0 89 -75 104 -120 6 -19 23 -41 38 -50 25 -14 28 -13 42 5 9 11 16 28 16 37 0 9 6 23 13 30 8 9 12 56 13 153 1 214 9 270 46 304 40 37 186 114 204 107 12 -4 7 -20 -21 -76 -53 -105 -48 -127 45 -200 48 -38 86 -60 104 -60 6 0 43 -15 81 -34 202 -99 270 -119 374 -111 73 6 93 14 89 33 -3 17 -25 24 -124 40 -59 10 -226 81 -239 102 -3 5 -30 21 -60 34 -29 14 -56 29 -59 35 -4 5 -19 12 -35 16 -38 8 -81 51 -81 82 0 23 8 39 56 113 30 46 54 142 42 164 -14 24 -29 20 -131 -34 -52 -27 -101 -50 -110 -50 -9 0 -20 -6 -24 -14 -4 -7 -32 -25 -61 -40 -44 -22 -53 -24 -58 -11 -9 22 13 167 26 175 6 4 10 11 9 16 -3 19 13 50 31 62 19 12 45 2 163 -59 42 -22 67 -14 67 22 0 10 5 21 10 24 6 3 10 33 10 66 0 40 4 60 13 61 6 1 31 2 55 3 23 1 45 5 48 8 4 3 9 26 11 51 5 41 3 45 -25 60 -17 9 -47 16 -67 16 l-35 0 5 121 c3 66 1 128 -4 137 -17 34 6 159 43 235 45 93 65 153 59 177 -7 28 -81 28 -116 0 -14 -11 -42 -27 -61 -35 -20 -9 -36 -19 -36 -24 0 -6 -8 -12 -18 -15 -10 -4 -28 -15 -39 -25 -23 -22 -77 -51 -94 -51 -6 0 -17 8 -24 17 -10 14 -19 15 -46 7 -31 -9 -35 -14 -43 -61 -7 -42 -13 -53 -40 -67 -41 -21 -155 -99 -185 -126 -12 -12 -25 -19 -27 -17 -8 8 18 99 43 154 13 28 42 69 63 91 43 43 50 66 23 76 -15 6 -14 9 7 21 53 30 117 65 166 89 27 14 75 39 105 56 l54 30 -95 0 c-86 0 -102 -3 -170 -34z m-130 -186 c0 -5 -2 -10 -4 -10 -3 0 -8 5 -11 10 -3 6 -1 10 4 10 6 0 11 -4 11 -10z m480 -111 c-11 -40 -20 -94 -20 -119 0 -25 -3 -61 -6 -82 -6 -32 -12 -38 -53 -54 -25 -10 -63 -21 -83 -24 l-38 -7 0 50 c0 28 5 79 11 114 9 53 16 66 43 85 17 12 35 28 39 35 4 7 14 13 21 13 7 0 33 15 57 34 24 19 45 33 47 31 1 -1 -6 -36 -18 -76z m-310 -234 c0 -41 0 -78 1 -82 0 -3 -27 -21 -61 -39 -114 -59 -118 -92 -21 -164 68 -50 81 -70 81 -120 0 -37 -11 -49 -71 -73 -30 -13 -80 -40 -111 -60 -31 -20 -63 -37 -70 -37 -7 0 -37 -16 -65 -35 -29 -19 -56 -35 -61 -35 -5 0 -17 -9 -27 -20 -17 -19 -97 -70 -109 -70 -3 0 -6 5 -6 10 0 11 48 140 99 265 47 115 79 199 86 223 4 12 20 52 36 88 25 54 33 64 49 59 21 -7 96 12 119 29 7 6 23 15 35 21 11 6 23 22 24 35 2 14 12 33 23 43 10 10 19 22 19 27 0 6 7 10 15 10 12 0 15 -15 15 -75z m290 -184 c0 -97 -5 -107 -77 -137 l-66 -28 -23 28 c-20 22 -23 34 -18 69 10 71 23 94 56 101 16 3 37 2 46 -3 12 -6 26 -4 42 5 37 20 40 18 40 -35z m-319 -413 c1 -7 1 -15 1 -18 -10 -214 -9 -209 -82 -247 -19 -10 -48 -27 -65 -38 -42 -29 -66 -42 -100 -59 -29 -14 -31 -13 -52 12 -40 50 -40 173 1 194 12 6 25 17 29 24 4 8 14 14 21 14 7 0 35 16 62 35 27 19 52 35 56 35 4 0 29 14 55 30 50 32 72 37 74 18z m-203 -26 c2 -7 -3 -12 -12 -12 -9 0 -16 7 -16 16 0 17 22 14 28 -4z m172 -293 c0 -20 -22 -204 -26 -217 -3 -11 -11 -9 -36 6 -18 11 -49 23 -69 27 -24 4 -44 17 -58 35 l-21 29 23 13 c56 31 97 61 97 69 0 8 67 48 83 49 4 0 7 -5 7 -11z m-340 -87 c0 -15 -8 -26 -26 -32 -28 -11 -74 -13 -74 -4 0 3 16 26 36 50 34 41 38 43 50 27 7 -10 14 -28 14 -41z" />
</ns0:g>
</g><g transform="translate(-2.7816776514450794,520.106848291124) scale(0.02904797835528289)"><ns0:metadata>
Created by potrace 1.16, written by Peter Selinger 2001-2019
</ns0:metadata>
<ns0:g transform="translate(0.000000,209.000000) scale(0.100000,-0.100000)" fill="#000000" stroke="none">
<ns0:path d="M1463 1780 c-25 -10 -29 -43 -24 -200 3 -87 2 -88 -105 -160 -37 -25 -95 -70 -128 -100 -34 -30 -83 -74 -108 -96 -26 -23 -49 -40 -51 -38 -6 7 10 97 28 159 20 65 27 180 14 206 -11 21 -56 13 -72 -12 -7 -11 -16 -19 -20 -19 -5 0 -26 -15 -47 -33 -22 -18 -52 -40 -67 -47 -15 -8 -50 -30 -78 -48 -27 -19 -63 -40 -80 -47 -16 -7 -52 -34 -80 -60 -27 -25 -77 -61 -110 -80 -33 -18 -69 -43 -79 -54 -41 -45 -45 -21 -17 86 25 96 130 272 188 315 15 12 45 37 66 57 31 30 37 42 37 77 0 55 -18 71 -59 50 -49 -26 -114 -72 -154 -110 -21 -20 -43 -36 -49 -36 -5 0 -30 -18 -55 -40 -25 -22 -49 -40 -54 -40 -9 0 -4 -84 6 -100 4 -6 -1 -34 -9 -64 -9 -30 -22 -88 -30 -129 -8 -42 -21 -86 -29 -99 -8 -13 -18 -36 -21 -53 -4 -16 -20 -74 -37 -127 -36 -114 -35 -139 4 -149 36 -10 54 -3 62 22 17 51 25 7 25 -130 0 -155 4 -181 25 -181 14 0 39 27 40 44 1 6 6 22 12 36 5 14 13 78 16 144 3 65 10 123 16 129 6 6 11 41 11 77 0 52 4 71 18 83 10 10 22 14 25 10 4 -3 7 -41 7 -84 0 -114 17 -149 73 -149 34 0 35 -14 7 -142 -11 -51 -25 -116 -32 -145 -18 -84 12 -115 48 -48 10 19 22 35 27 35 11 0 36 67 52 145 33 154 46 259 41 344 -6 106 -21 138 -66 148 -16 3 -27 9 -25 13 8 12 123 90 134 90 5 0 16 11 25 25 9 14 32 33 50 43 18 9 52 27 76 40 23 13 45 21 48 18 9 -10 -37 -314 -73 -486 -7 -36 -19 -99 -26 -140 -7 -41 -21 -99 -31 -128 -25 -66 -19 -84 24 -80 27 2 37 11 54 43 22 43 58 179 69 260 3 28 15 88 26 135 11 47 22 95 24 108 5 21 7 22 28 7 12 -8 26 -15 32 -15 6 0 69 57 140 128 72 70 145 136 164 146 l34 19 -8 -89 c-4 -49 -8 -203 -10 -342 -1 -139 -5 -256 -9 -259 -3 -4 -20 3 -36 15 -16 12 -32 22 -35 22 -3 0 -26 19 -50 41 -25 23 -54 48 -65 56 -24 17 -28 84 -5 103 8 7 15 19 15 27 0 8 16 30 35 50 71 73 30 100 -52 34 -64 -51 -86 -77 -117 -135 -39 -74 -35 -101 17 -124 23 -11 58 -35 77 -53 19 -18 73 -62 120 -98 47 -36 87 -69 89 -74 8 -20 46 -47 67 -47 20 0 23 6 28 68 3 37 8 215 12 397 3 181 8 334 12 339 3 6 5 24 4 40 -2 16 4 39 12 51 8 12 20 41 27 66 14 49 51 100 81 111 10 4 21 21 24 37 4 18 15 33 26 37 10 3 17 11 15 17 -6 19 -63 20 -96 2 l-31 -16 0 36 c0 55 -43 125 -75 124 -5 0 -20 -4 -32 -9z" />
</ns0:g>
</g><g transform="translate(2.0101520945393077,594.6154742720385) scale(0.02904797835528289)"><ns0:metadata>
Created by potrace 1.16, written by Peter Selinger 2001-2019
</ns0:metadata>
<ns0:g transform="translate(0.000000,210.000000) scale(0.100000,-0.100000)" fill="#000000" stroke="none">
<ns0:path d="M1294 1919 c-17 -5 -36 -15 -42 -22 -14 -16 -32 -126 -32 -193 0 -49 -2 -53 -49 -95 -43 -38 -176 -147 -206 -167 -26 -18 -75 -85 -75 -102 0 -28 35 -60 65 -60 16 0 30 9 41 28 20 32 105 117 158 157 42 32 42 31 21 -79 -8 -44 -13 -87 -10 -97 4 -12 -6 -26 -32 -45 -21 -16 -48 -38 -59 -49 -12 -11 -33 -30 -48 -42 -36 -30 -35 -68 4 -88 16 -8 34 -15 40 -15 5 0 37 27 69 61 33 34 65 59 72 57 21 -7 45 -122 31 -145 -4 -7 -39 -32 -77 -57 -96 -62 -134 -88 -155 -108 -11 -9 -32 -24 -48 -32 -16 -8 -53 -36 -83 -61 -29 -25 -58 -45 -63 -45 -6 0 -31 -14 -55 -30 -24 -17 -49 -30 -56 -30 -16 0 -27 170 -15 225 25 113 31 127 99 207 47 55 71 91 75 116 11 70 -5 69 -80 -8 -32 -33 -64 -60 -71 -60 -15 0 -19 120 -4 135 5 6 11 21 13 35 2 17 20 36 57 61 30 20 58 45 62 55 16 47 -21 57 -84 24 -20 -11 -41 -20 -46 -20 -5 0 -11 39 -13 88 -8 135 -50 191 -104 137 -28 -28 -31 -79 -13 -213 10 -76 10 -82 -12 -111 -21 -28 -110 -91 -129 -91 -5 0 -15 -9 -23 -20 -7 -11 -31 -33 -53 -48 l-40 -29 8 86 c4 47 10 92 13 100 3 8 8 51 11 95 3 45 9 83 14 84 6 2 10 37 10 77 0 55 -4 78 -18 93 -26 32 -63 37 -90 12 -21 -19 -22 -29 -22 -153 -1 -73 -5 -163 -10 -202 -6 -38 -13 -95 -16 -125 -15 -150 -68 -392 -104 -475 -45 -104 -50 -119 -40 -129 9 -9 55 36 97 94 11 16 58 138 100 260 16 48 22 55 45 55 18 0 46 17 85 52 123 109 164 139 177 126 3 -3 6 -46 6 -93 l0 -87 -55 -48 c-30 -26 -69 -57 -87 -68 -18 -10 -53 -38 -78 -61 -25 -23 -60 -51 -78 -62 -46 -26 -102 -106 -95 -133 6 -24 41 -36 75 -25 34 10 72 40 162 128 95 92 123 113 136 100 14 -14 13 -234 -1 -339 -7 -49 -13 -157 -13 -240 -1 -127 1 -150 14 -150 10 0 19 18 26 58 7 32 17 70 22 85 6 15 14 47 18 72 3 25 9 49 12 54 3 5 6 25 8 44 4 41 36 79 109 127 112 75 171 118 188 136 10 10 24 19 31 19 8 0 19 7 26 15 7 8 48 40 91 70 44 31 79 59 79 64 0 5 8 11 18 15 9 3 23 9 30 12 15 7 17 -78 2 -106 -5 -10 -14 -62 -20 -116 -15 -128 -15 -129 -40 -104 -21 21 -40 26 -40 10 0 -5 -33 -27 -72 -50 -63 -34 -82 -40 -133 -40 -68 0 -105 -19 -105 -53 0 -32 10 -43 55 -57 22 -7 54 -22 70 -33 53 -36 205 -196 205 -216 0 -11 15 -31 33 -45 l32 -26 21 24 c22 25 32 80 34 191 0 33 5 87 10 120 5 33 14 112 21 175 6 63 15 129 20 145 5 17 13 76 19 132 14 131 29 173 86 236 75 83 99 124 84 142 -18 21 -22 20 -75 -30 -74 -70 -82 -72 -90 -25 -15 90 9 155 83 223 12 11 22 25 22 31 0 5 7 17 16 27 21 24 12 49 -16 42 -11 -3 -43 -25 -70 -50 -33 -29 -65 -48 -99 -57 -28 -7 -51 -12 -51 -11 0 14 37 103 45 110 13 11 31 75 40 145 3 25 14 60 25 78 22 36 27 82 9 82 -11 0 -6 80 7 114 8 21 -26 34 -62 25z m-117 -1519 c-5 -58 -12 -108 -16 -113 -4 -4 -25 8 -47 26 -21 19 -49 39 -61 46 -13 6 -23 17 -23 24 0 7 28 32 61 57 33 25 65 53 71 64 19 36 25 0 15 -104z" />
</ns0:g>
</g><g transform="translate(2.4410921783884305,691.515139351302) scale(0.02904797835528289)"><ns0:metadata>
Created by potrace 1.16, written by Peter Selinger 2001-2019
</ns0:metadata>
<ns0:g transform="translate(0.000000,206.000000) scale(0.100000,-0.100000)" fill="#000000" stroke="none">
<ns0:path d="M1034 1393 c-22 -16 -61 -39 -87 -53 -65 -34 -97 -79 -108 -148 -4 -32 -17 -91 -28 -132 -10 -41 -25 -130 -31 -198 -11 -119 -10 -125 11 -169 23 -48 51 -65 125 -78 26 -4 44 -2 49 4 3 6 17 8 30 5 19 -5 31 1 55 27 16 19 30 39 30 46 0 19 -32 32 -55 23 -27 -10 -103 3 -121 22 -31 31 -19 216 24 358 11 36 25 84 31 107 9 32 23 52 59 78 28 22 55 55 69 83 27 57 27 52 5 52 -11 0 -37 -12 -58 -27z" />
</ns0:g>
</g><g transform="translate(1.2931341286648603,771.5703333720392) scale(0.02904797835528289)"><ns0:metadata>
Created by potrace 1.16, written by Peter Selinger 2001-2019
</ns0:metadata>
<ns0:g transform="translate(0.000000,211.000000) scale(0.100000,-0.100000)" fill="#000000" stroke="none">
<ns0:path d="M1035 1583 c-50 -6 -186 -44 -229 -63 -23 -10 -73 -28 -113 -40 -67 -20 -74 -26 -99 -68 l-27 -46 32 -28 c31 -27 71 -38 71 -18 0 6 22 10 50 10 48 0 100 16 100 30 0 12 139 80 144 71 3 -4 -1 -27 -8 -52 -7 -24 -19 -105 -25 -179 -6 -74 -16 -187 -22 -250 -12 -136 -15 -432 -5 -449 11 -18 55 -32 71 -24 19 11 65 81 65 98 0 8 -7 15 -15 15 -8 0 -18 12 -21 27 -7 25 1 326 10 388 2 17 7 68 11 115 4 47 13 101 20 120 28 76 46 150 43 172 -2 16 -13 26 -35 33 -61 17 -39 28 85 40 68 8 86 23 80 73 -3 27 -4 27 -78 28 -41 1 -88 0 -105 -3z" />
</ns0:g>
</g><g transform="translate(-2.808417384504139,850.4528941326505) scale(0.02904797835528289)"><ns0:metadata>
Created by potrace 1.16, written by Peter Selinger 2001-2019
</ns0:metadata>
<ns0:g transform="translate(0.000000,212.000000) scale(0.100000,-0.100000)" fill="#000000" stroke="none">
<ns0:path d="M1439 1893 c-58 -6 -137 -88 -189 -196 -23 -48 -49 -110 -58 -139 -14 -42 -23 -53 -47 -61 -16 -5 -38 -16 -47 -24 -19 -17 -94 -193 -102 -240 -8 -48 9 -48 38 0 l26 42 -6 -115 c-8 -143 -16 -200 -29 -203 -5 -1 -14 13 -20 31 -5 17 -12 32 -16 32 -18 0 -12 -59 10 -109 24 -54 24 -55 8 -120 -9 -36 -19 -93 -23 -126 -9 -85 -48 -198 -78 -228 -30 -30 -35 -81 -10 -91 36 -14 63 -5 91 29 35 42 89 190 98 270 12 107 51 195 87 195 7 0 28 10 47 23 20 13 60 39 88 58 29 19 53 39 53 44 0 6 19 28 41 50 22 22 52 58 66 80 15 22 34 48 41 57 23 28 112 228 112 252 0 12 5 27 10 32 27 27 38 197 20 301 -11 62 -19 80 -49 113 -38 41 -80 52 -162 43z m104 -135 c21 -42 25 -207 8 -293 -35 -174 -147 -377 -268 -484 -60 -54 -133 -95 -144 -83 -4 4 -4 28 1 53 5 25 12 97 16 160 4 65 15 140 26 174 10 33 23 89 27 125 14 105 106 272 193 350 33 29 49 36 82 35 37 0 43 -3 59 -37z" />
<ns0:path d="M1283 877 c-18 -5 -33 -14 -33 -19 0 -6 -10 -18 -22 -28 l-23 -18 26 -10 c14 -6 52 -35 84 -66 31 -31 61 -56 66 -56 4 0 32 -19 61 -43 67 -54 183 -127 202 -127 8 0 28 16 45 35 52 59 36 142 -20 107 -28 -18 -37 -15 -93 22 -63 42 -208 162 -219 181 -13 25 -40 32 -74 22z" />
</ns0:g>
</g><g transform="translate(-1.8424372354510297,950.5770774896664) scale(0.02904797835528289)"><ns0:metadata>
Created by potrace 1.16, written by Peter Selinger 2001-2019
</ns0:metadata>
<ns0:g transform="translate(0.000000,210.000000) scale(0.100000,-0.100000)" fill="#000000" stroke="none">
<ns0:path d="M935 1134 c-55 -7 -128 -13 -163 -12 -53 1 -66 -2 -87 -22 -35 -33 -32 -66 8 -90 18 -12 41 -18 52 -15 11 3 70 13 130 21 91 12 121 13 173 3 68 -14 107 -6 126 24 16 24 -2 48 -55 73 -66 32 -76 33 -184 18z" />
</ns0:g>
</g><g transform="translate(-0.08455939246545086,1026.0318650470551) scale(0.02904797835528289)"><ns0:metadata>
Created by potrace 1.16, written by Peter Selinger 2001-2019
</ns0:metadata>
<ns0:g transform="translate(0.000000,207.000000) scale(0.100000,-0.100000)" fill="#000000" stroke="none">
<ns0:path d="M840 1478 c-39 -43 -12 -98 50 -98 40 0 51 -12 44 -49 -7 -32 -82 -116 -148 -166 -44 -33 -56 -46 -56 -59 0 -29 34 -41 129 -46 108 -6 110 -8 91 -79 -16 -59 -120 -179 -186 -215 -48 -26 -54 -32 -54 -61 0 -27 5 -34 25 -39 31 -8 90 16 104 42 6 12 21 24 33 28 41 13 96 65 139 131 36 57 43 75 47 135 6 93 -5 111 -79 135 -62 19 -74 37 -36 54 12 6 38 36 57 67 27 45 34 68 35 108 0 62 -20 89 -79 106 -23 6 -45 15 -50 20 -17 14 -45 9 -66 -14z" />
</ns0:g>
</g><g transform="translate(-1.3511689566811924,1099.3938758177467) scale(0.02904797835528289)"><ns0:metadata>
Created by potrace 1.16, written by Peter Selinger 2001-2019
</ns0:metadata>
<ns0:g transform="translate(0.000000,208.000000) scale(0.100000,-0.100000)" fill="#000000" stroke="none">
<ns0:path d="M1226 1665 c-12 -13 -28 -43 -35 -67 -7 -23 -18 -53 -23 -67 -6 -14 -12 -33 -14 -41 -24 -109 -43 -210 -55 -290 -5 -36 -14 -81 -19 -100 -6 -19 -21 -98 -35 -176 -13 -77 -38 -187 -55 -244 -16 -57 -36 -146 -42 -198 -11 -94 -11 -95 11 -113 53 -43 84 -10 96 101 9 82 19 132 49 245 26 93 38 154 55 265 5 36 22 119 36 185 15 66 32 149 40 185 7 36 22 90 33 120 34 93 47 166 34 195 -15 32 -46 32 -76 0z" />
<ns0:path d="M710 1553 c-28 -10 -50 -36 -50 -58 0 -11 -4 -25 -9 -30 -15 -17 -39 -116 -46 -190 -3 -38 -8 -135 -10 -215 -2 -80 -11 -174 -19 -210 -8 -36 -17 -85 -20 -110 -8 -74 -23 -132 -50 -190 -30 -63 -32 -92 -11 -114 44 -44 83 -28 111 46 36 92 44 123 44 170 0 25 9 90 20 145 11 54 20 101 20 106 0 24 23 -2 51 -60 31 -67 112 -191 133 -205 6 -4 25 -8 43 -8 27 0 33 5 44 37 11 33 10 38 -10 54 -12 10 -25 19 -29 21 -8 3 -50 75 -106 183 -18 33 -49 89 -71 124 -22 38 -39 77 -39 95 0 17 15 99 33 181 18 83 35 162 38 178 9 44 -21 67 -67 50z" />
</ns0:g>
</g><g transform="translate(0.7317004440695314,1195.5698338689187) scale(0.02904797835528289)"><ns0:metadata>
Created by potrace 1.16, written by Peter Selinger 2001-2019
</ns0:metadata>
<ns0:g transform="translate(0.000000,210.000000) scale(0.100000,-0.100000)" fill="#000000" stroke="none">
<ns0:path d="M653 1020 c-13 -5 -23 -14 -23 -20 0 -20 28 -77 41 -86 33 -21 442 -56 487 -42 41 12 41 33 1 85 -28 36 -35 40 -59 33 -52 -15 -181 -3 -337 31 -51 11 -81 11 -110 -1z" />
</ns0:g>
</g><g transform="translate(-2.8417306562958515,1257.6885270520006) scale(0.02904797835528289)"><ns0:metadata>
Created by potrace 1.16, written by Peter Selinger 2001-2019
</ns0:metadata>
<ns0:g transform="translate(0.000000,215.000000) scale(0.100000,-0.100000)" fill="#000000" stroke="none">
<ns0:path d="M1154 2036 c-28 -29 -40 -67 -54 -177 -21 -169 -42 -294 -52 -313 -5 -10 -8 -32 -5 -50 2 -17 -2 -60 -10 -96 -47 -209 -56 -267 -42 -275 11 -7 49 44 49 66 0 10 5 21 10 24 16 10 39 71 62 160 21 86 35 108 83 130 16 8 41 25 55 38 14 12 49 40 78 62 28 21 52 42 52 46 0 10 60 33 67 26 3 -4 -2 -35 -11 -71 -9 -36 -16 -80 -16 -98 0 -18 -11 -80 -25 -138 -24 -97 -43 -193 -95 -459 -14 -69 -17 -108 -11 -114 16 -16 37 8 62 71 12 31 28 64 34 72 17 20 21 37 44 165 11 61 32 153 46 205 14 52 32 135 41 185 8 49 31 129 51 178 39 96 53 198 31 224 -16 20 -55 8 -92 -28 -17 -17 -76 -62 -131 -100 -55 -38 -118 -83 -139 -99 -68 -52 -78 -38 -52 72 8 31 16 61 20 66 3 5 13 53 21 107 14 88 14 99 0 121 -19 29 -43 29 -71 0z" />
<ns0:path d="M899 2029 c-53 -12 -246 -111 -336 -173 -44 -29 -95 -59 -115 -65 -20 -7 -42 -19 -48 -27 -7 -7 -21 -14 -32 -14 -29 0 -75 -30 -87 -57 -14 -31 2 -70 35 -85 22 -10 31 -9 57 5 24 14 32 15 39 5 4 -7 5 -20 2 -28 -4 -8 -15 -80 -24 -160 -10 -80 -28 -194 -40 -255 -12 -60 -28 -141 -35 -180 -21 -113 -54 -237 -69 -259 -16 -26 -52 -125 -72 -202 -8 -32 -28 -83 -44 -113 -17 -30 -30 -58 -30 -63 0 -19 45 -68 61 -68 10 0 29 11 43 24 45 40 291 107 406 108 85 2 231 -16 241 -29 9 -10 4 -28 -20 -77 -37 -76 -38 -86 -8 -86 15 0 29 11 41 32 11 17 34 48 51 67 18 20 43 56 56 81 12 25 31 55 40 68 10 13 20 36 24 51 3 16 17 39 30 51 23 22 25 22 32 4 4 -10 14 -26 22 -36 20 -21 168 -108 201 -118 14 -5 57 -21 95 -36 88 -34 160 -43 168 -20 8 21 -26 52 -82 73 -25 9 -66 30 -91 45 -25 15 -65 37 -88 48 -53 24 -102 69 -102 92 0 24 -37 41 -76 35 -19 -3 -34 -2 -34 2 0 18 40 160 60 216 12 33 31 89 42 125 54 169 77 220 120 266 17 18 26 37 23 46 -11 29 -131 32 -154 4 -6 -7 -14 -30 -20 -51 -5 -22 -15 -58 -21 -80 -6 -22 -17 -69 -25 -105 -8 -36 -29 -100 -46 -142 -26 -66 -64 -181 -99 -303 -14 -51 -61 -159 -75 -173 -11 -12 -25 -10 -86 11 -67 24 -247 48 -274 37 -5 -2 -28 -5 -50 -6 -72 -3 -156 -15 -181 -25 -14 -5 -32 -9 -41 -9 -22 0 -12 58 27 155 33 82 112 371 124 460 4 28 16 93 26 145 10 52 24 136 30 185 11 82 27 134 63 205 7 13 28 35 47 48 55 37 92 65 130 99 30 28 33 34 23 52 -10 16 -9 22 4 32 19 16 50 35 83 49 14 6 43 19 65 29 22 10 48 21 58 24 23 9 22 54 -2 67 -11 5 -21 10 -23 9 -2 -1 -19 -5 -39 -10z" />
<ns0:path d="M911 1789 c-56 -34 -97 -120 -122 -254 -12 -66 -94 -288 -107 -293 -6 -2 -21 8 -33 22 -43 49 -128 25 -114 -33 3 -14 31 -50 61 -79 51 -49 55 -56 48 -85 -9 -42 -69 -173 -83 -181 -18 -12 -12 -36 9 -36 13 0 24 10 30 25 5 14 17 28 25 31 9 4 27 27 42 53 42 73 52 82 77 69 11 -6 38 -28 58 -49 57 -58 83 -73 107 -59 12 6 21 15 21 19 0 12 -79 116 -128 169 l-40 43 45 112 c49 121 70 185 85 260 11 57 61 139 112 184 33 28 35 34 25 56 -17 37 -78 51 -118 26z" />
</ns0:g>
</g><g transform="translate(0.2557930326813107,1336.4986574986956) scale(0.02904797835528289)"><ns0:metadata>
Created by potrace 1.16, written by Peter Selinger 2001-2019
</ns0:metadata>
<ns0:g transform="translate(0.000000,204.000000) scale(0.100000,-0.100000)" fill="#000000" stroke="none">
<ns0:path d="M1111 1900 c-22 -19 -23 -25 -25 -177 l-1 -158 -25 -5 c-35 -7 -100 -49 -100 -65 0 -21 40 -65 60 -65 10 0 32 8 49 17 16 10 33 15 36 11 3 -3 9 -62 12 -131 l6 -125 -104 -50 c-57 -27 -120 -55 -139 -62 -19 -7 -39 -17 -44 -22 -6 -4 -18 -8 -28 -8 -10 0 -18 -4 -18 -9 0 -8 -62 -37 -85 -40 -6 0 -10 25 -11 57 0 37 -11 86 -29 135 -27 75 -27 79 -11 115 64 147 62 416 -4 437 -51 16 -98 -44 -70 -89 7 -12 18 -29 24 -38 7 -12 7 -38 -2 -88 -7 -39 -12 -84 -12 -101 l0 -32 -50 7 c-59 8 -80 -6 -80 -51 0 -15 -5 -44 -10 -64 -5 -19 -12 -80 -14 -135 -11 -245 -19 -360 -28 -371 -6 -7 -5 -19 1 -32 11 -20 10 -28 -23 -196 -9 -44 -25 -455 -19 -471 9 -23 40 -16 61 13 23 32 42 142 42 235 0 35 12 149 27 254 l26 192 35 27 c25 20 37 24 45 16 16 -16 58 -13 88 7 114 75 179 118 209 138 47 30 189 88 198 80 3 -4 5 -66 4 -139 -3 -131 -25 -280 -57 -374 -19 -54 -20 -103 -2 -103 22 0 89 76 85 96 -2 11 3 24 10 30 23 17 51 186 57 339 3 77 8 153 11 170 5 35 76 105 107 105 12 0 33 9 47 20 21 17 70 28 70 16 0 -2 -7 -20 -15 -40 -14 -33 -14 -37 0 -42 22 -9 84 42 91 74 3 15 8 35 10 44 3 9 -2 30 -10 46 -21 41 -66 46 -131 17 -27 -13 -73 -30 -101 -38 l-52 -15 -6 30 c-9 46 -7 174 3 201 6 16 20 26 42 31 38 7 89 51 89 76 0 9 -9 25 -19 34 -16 15 -25 16 -57 7 -20 -6 -41 -8 -46 -5 -4 3 -8 48 -8 100 0 74 -4 102 -20 131 -31 57 -50 65 -89 33z m-526 -770 c28 -31 17 -126 -21 -182 l-29 -43 -3 50 c-2 28 -1 83 3 123 7 77 18 88 50 52z" />
<ns0:path d="M1555 888 c-11 -6 -22 -12 -23 -14 -7 -5 -48 -175 -65 -275 -18 -98 -26 -106 -142 -135 -110 -27 -120 -31 -314 -127 l-133 -67 5 32 c3 18 16 78 30 133 43 168 51 281 25 313 -27 32 -47 34 -73 6 -22 -24 -25 -36 -26 -103 0 -67 -4 -102 -23 -214 -3 -16 -12 -42 -20 -58 -8 -16 -18 -43 -21 -61 -4 -18 -16 -45 -26 -60 -11 -14 -19 -30 -19 -35 0 -5 -16 -32 -35 -62 -19 -29 -35 -55 -35 -58 0 -3 -13 -21 -30 -40 -47 -53 -41 -63 39 -63 l69 0 45 50 c25 27 47 53 49 58 1 5 34 26 72 47 39 20 76 43 83 51 13 12 137 74 149 74 4 0 23 10 42 22 42 26 152 67 200 75 l32 5 -6 -58 c-4 -33 -10 -66 -15 -75 -4 -9 -11 -46 -15 -82 -6 -59 -5 -66 14 -76 49 -26 92 3 92 64 0 16 7 43 15 59 8 16 22 54 31 85 20 68 29 81 60 81 36 0 34 53 -3 77 -16 9 -29 18 -31 19 -7 5 32 181 49 226 11 26 19 58 19 71 0 14 7 30 15 37 21 18 19 46 -7 70 -24 22 -44 25 -73 8z m-5 -202 c0 -8 -7 -16 -15 -20 -15 -5 -21 14 -8 27 11 12 23 8 23 -7z" />
</ns0:g>
</g><g transform="translate(-1.3327321238110699,1430.987335294634) scale(0.02904797835528289)"><ns0:metadata>
Created by potrace 1.16, written by Peter Selinger 2001-2019
</ns0:metadata>
<ns0:g transform="translate(0.000000,207.000000) scale(0.100000,-0.100000)" fill="#000000" stroke="none">
<ns0:path d="M1400 1368 c-14 -6 -51 -11 -82 -13 -65 -3 -108 -25 -108 -56 0 -26 38 -77 71 -94 48 -25 82 -200 80 -410 -1 -129 -3 -141 -24 -163 -12 -14 -37 -31 -55 -39 -30 -12 -33 -17 -30 -51 3 -34 6 -37 35 -40 18 -2 43 4 56 12 13 9 26 13 30 10 3 -3 14 -3 25 0 14 5 26 28 42 86 21 74 22 93 17 257 -4 111 -12 203 -22 243 -34 135 -37 164 -18 175 32 19 54 46 51 62 -4 22 -38 32 -68 21z" />
</ns0:g>
</g></svg>