<?xml version='1.0' encoding='utf-8'?>
<svg xmlns:ns0="http://www.w3.org/2000/svg" xmlns="http://www.w3.org/2000/svg" width="235" height="152" viewBox="0 0 235 152"><g transform="translate(-2.351888678673845,-110.69734273250599) scale(0.0550028619495738)"><ns0:metadata>
Created by potrace 1.16, written by Peter Selinger 2001-2019
</ns0:metadata>
<ns0:g transform="translate(0.000000,207.000000) scale(0.100000,-0.100000)" fill="#000000" stroke="none">
<ns0:path d="M1230 1587 c-28 -14 -38 -46 -50 -165 -5 -45 -18 -117 -29 -160 -11 -42 -23 -90 -26 -107 -4 -16 -15 -48 -25 -70 -10 -22 -22 -53 -25 -68 -4 -15 -11 -30 -16 -33 -5 -3 -9 -12 -9 -21 0 -9 -16 -37 -35 -64 -19 -26 -42 -65 -50 -86 -9 -21 -27 -49 -39 -63 -13 -14 -31 -39 -39 -56 -9 -17 -23 -36 -31 -43 -14 -12 -16 -10 -16 10 0 13 -7 45 -15 72 -8 26 -23 155 -35 288 -13 157 -25 250 -35 269 -8 16 -15 38 -15 50 0 14 -6 20 -24 20 -32 0 -37 19 -30 110 6 73 5 79 -15 90 -18 9 -29 8 -56 -4 -36 -18 -34 -11 -64 -186 -27 -153 -60 -305 -78 -360 -21 -64 -159 -414 -204 -519 -12 -27 -18 -54 -14 -61 11 -18 72 -41 90 -34 18 7 47 66 105 214 104 267 210 494 223 481 5 -5 13 -60 18 -123 5 -62 13 -144 19 -183 20 -124 21 -138 27 -256 5 -106 7 -119 29 -143 15 -16 35 -26 52 -26 25 0 30 8 62 92 19 50 40 96 45 102 12 12 47 72 102 176 20 36 49 89 65 118 49 89 128 310 133 371 2 24 6 46 9 49 6 5 7 4 35 -88 10 -36 26 -81 34 -100 8 -19 22 -75 32 -125 9 -49 23 -110 31 -134 8 -24 28 -96 45 -160 17 -64 34 -120 40 -126 5 -5 9 -18 9 -30 0 -11 8 -46 17 -77 21 -68 50 -89 89 -63 17 11 23 22 20 38 -3 12 -7 42 -11 67 -6 46 -21 102 -35 131 -11 21 -70 222 -85 289 -14 59 -67 252 -92 335 -8 28 -19 70 -25 95 -5 25 -14 63 -19 85 -9 37 -13 61 -25 142 -6 41 -31 56 -64 40z" />
</ns0:g>
</g><g transform="translate(1.9422919894755069,58.65070841080566) scale(0.0550028619495738)"><ns0:metadata>
Created by potrace 1.16, written by Peter Selinger 2001-2019
</ns0:metadata>
<ns0:g transform="translate(0.000000,208.000000) scale(0.100000,-0.100000)" fill="#000000" stroke="none">
<ns0:path d="M791 1371 c-12 -12 -21 -31 -21 -43 0 -13 -12 -50 -25 -83 -28 -68 -32 -88 -11 -59 26 35 29 5 7 -68 -23 -79 -27 -158 -11 -204 18 -51 72 -78 163 -83 l79 -3 -7 -52 c-4 -28 -16 -76 -26 -106 -23 -66 -24 -100 -4 -100 33 0 99 96 130 190 14 43 32 83 38 88 7 5 36 15 65 22 59 14 68 26 74 101 3 39 0 45 -26 58 -27 13 -31 12 -48 -9 -10 -12 -18 -28 -18 -36 0 -8 -4 -14 -10 -14 -13 0 -13 15 -1 38 5 9 15 39 22 66 7 27 26 64 42 83 33 37 30 58 -8 73 -93 35 -128 -9 -166 -210 -7 -36 -16 -67 -20 -70 -5 -3 -36 -5 -69 -4 -82 2 -104 21 -95 83 4 25 16 79 27 120 11 42 22 85 25 96 2 11 -2 47 -10 80 -13 56 -15 60 -45 63 -21 2 -37 -3 -51 -17z" />
</ns0:g>
</g><g transform="translate(-1.0474949925645092,218.40851633687203) scale(0.0550028619495738)"><ns0:metadata>
Created by potrace 1.16, written by Peter Selinger 2001-2019
</ns0:metadata>
<ns0:g transform="translate(0.000000,207.000000) scale(0.100000,-0.100000)" fill="#000000" stroke="none">
<ns0:path d="M1352 1446 c-68 -17 -88 -36 -126 -119 l-31 -69 -25 20 c-33 26 -83 19 -110 -16 -26 -32 -25 -34 8 -70 16 -17 36 -42 45 -55 l16 -24 -55 -7 c-65 -7 -134 -47 -134 -76 0 -32 44 -54 95 -47 25 4 45 4 45 0 0 -16 -97 -170 -121 -193 -41 -38 -45 -65 -14 -86 24 -16 27 -15 64 9 39 26 91 85 91 104 0 5 13 27 30 49 16 21 30 47 30 57 0 9 4 17 9 17 6 0 18 14 28 30 9 17 23 30 30 30 17 0 110 -142 133 -203 10 -29 18 -67 17 -86 -2 -40 26 -57 64 -37 22 11 24 18 22 77 -1 73 -28 150 -74 214 -46 64 -38 78 50 91 68 10 101 28 101 55 0 29 -85 42 -200 29 -40 -4 -45 -3 -48 16 -6 45 92 224 123 224 19 0 31 60 14 71 -16 10 -10 11 -77 -5z" />
</ns0:g>
</g><g transform="translate(1.1649955794202356,361.80582641852106) scale(0.0550028619495738)"><ns0:metadata>
Created by potrace 1.16, written by Peter Selinger 2001-2019
</ns0:metadata>
<ns0:g transform="translate(0.000000,214.000000) scale(0.100000,-0.100000)" fill="#000000" stroke="none">
<ns0:path d="M1150 1448 c-42 -12 -82 -46 -179 -152 -88 -97 -101 -125 -101 -213 0 -63 3 -72 44 -133 47 -71 47 -82 -1 -114 -43 -29 -96 -106 -104 -153 -6 -28 -4 -55 5 -80 11 -32 24 -44 87 -78 112 -61 180 -79 277 -77 85 2 98 7 120 48 9 17 8 31 -5 65 -9 24 -23 51 -30 60 -7 8 -13 18 -13 22 0 3 -31 53 -70 110 -38 57 -70 110 -70 118 0 16 94 111 126 127 28 15 94 73 94 84 0 15 -62 8 -88 -10 -46 -32 -52 -34 -52 -18 0 8 25 44 55 80 62 73 63 76 50 216 -5 60 -12 88 -24 97 -19 15 -72 15 -121 1z m36 -144 c2 -25 6 -53 9 -63 4 -12 -6 -29 -31 -52 -51 -49 -109 -128 -124 -171 -13 -35 -15 -37 -32 -22 -21 20 -38 70 -34 104 2 14 4 37 5 51 0 15 18 44 44 71 23 25 53 58 67 73 28 31 81 67 89 59 2 -2 6 -25 7 -50z m-138 -548 c17 -24 39 -56 47 -73 8 -16 26 -40 41 -54 32 -30 57 -76 48 -90 -15 -25 -189 17 -233 56 -25 23 -31 36 -31 69 1 34 8 49 43 88 23 26 44 47 47 47 3 0 20 -19 38 -43z" />
</ns0:g>
</g><g transform="translate(-2.8739951536634294,518.0903704609294) scale(0.0550028619495738)"><ns0:metadata>
Created by potrace 1.16, written by Peter Selinger 2001-2019
</ns0:metadata>
<ns0:g transform="translate(0.000000,204.000000) scale(0.100000,-0.100000)" fill="#000000" stroke="none">
<ns0:path d="M1350 1962 c-8 -2 -22 -10 -30 -17 -8 -8 -52 -33 -98 -56 -46 -23 -87 -50 -92 -59 -11 -20 -167 -115 -321 -196 -15 -8 -32 -21 -38 -28 -7 -8 -26 -19 -44 -26 -69 -25 -118 -56 -123 -77 -9 -33 5 -62 36 -78 27 -14 33 -13 82 9 29 14 71 38 93 55 22 17 68 48 102 69 35 21 80 54 100 73 30 27 82 59 96 59 3 0 -15 -385 -19 -389 -2 -2 -10 2 -18 8 -13 11 -23 8 -58 -16 -50 -33 -102 -126 -118 -211 -5 -30 -29 -88 -53 -130 -23 -43 -53 -99 -66 -127 -28 -62 -80 -131 -154 -209 -60 -62 -70 -86 -36 -86 25 0 54 15 99 52 19 15 39 28 45 28 22 1 86 69 113 121 32 62 52 97 63 119 30 55 80 166 85 189 13 60 58 171 75 187 23 21 23 21 -1 -117 -19 -105 -39 -407 -40 -599 0 -74 1 -76 31 -94 32 -19 32 -19 49 5 22 29 46 137 34 149 -16 16 2 376 29 575 14 105 31 264 37 355 7 91 18 183 26 205 8 23 14 51 14 64 0 25 11 36 108 108 34 26 62 50 62 55 0 12 -54 36 -70 30z" />
<ns0:path d="M1278 1133 c-56 -29 -16 -101 77 -141 28 -11 91 -39 141 -61 50 -23 99 -41 108 -41 10 0 45 -11 79 -23 34 -13 88 -32 119 -42 31 -10 59 -24 62 -31 3 -8 20 -14 40 -14 41 0 50 18 44 86 -2 32 -7 39 -23 37 -11 -1 -36 2 -55 8 -19 6 -59 17 -89 25 -30 8 -60 19 -65 23 -6 5 -31 14 -56 20 -87 22 -210 80 -292 138 -53 37 -52 37 -90 16z" />
</ns0:g>
</g><g transform="translate(1.3642182101793878,660.4953552542709) scale(0.0550028619495738)"><ns0:metadata>
Created by potrace 1.16, written by Peter Selinger 2001-2019
</ns0:metadata>
<ns0:g transform="translate(0.000000,212.000000) scale(0.100000,-0.100000)" fill="#000000" stroke="none">
<ns0:path d="M1252 2052 c-33 -28 -47 -51 -62 -97 -21 -68 -117 -294 -132 -312 -6 -7 -7 -21 -4 -30 6 -15 11 -13 37 15 30 32 106 157 147 243 26 54 55 83 97 96 25 8 31 15 33 46 7 84 -44 101 -116 39z" />
<ns0:path d="M583 1763 c-28 -5 -34 -14 -67 -98 -45 -114 -54 -138 -66 -180 -7 -22 -52 -122 -101 -222 -49 -99 -89 -184 -89 -189 0 -4 -16 -31 -35 -60 -19 -29 -35 -64 -35 -79 0 -26 -22 -77 -45 -105 -7 -8 -21 -37 -31 -65 -10 -27 -27 -65 -39 -82 -11 -18 -31 -49 -44 -70 -25 -40 -40 -113 -24 -113 5 0 35 33 66 73 31 39 61 77 67 84 5 7 10 16 10 21 0 4 6 16 13 26 12 17 16 17 50 2 l37 -15 67 44 c38 24 76 51 86 59 9 9 20 16 23 16 3 0 3 -28 0 -62 -6 -61 -50 -202 -87 -283 -29 -64 -34 -101 -15 -130 22 -34 60 -33 83 2 10 15 34 43 53 62 19 19 42 45 51 58 9 14 34 43 56 66 22 23 43 52 47 65 4 12 11 22 15 22 13 0 121 186 121 207 0 10 17 29 38 43 50 34 50 34 68 15 20 -19 48 -12 89 24 17 14 62 41 100 60 39 18 78 37 88 43 11 5 21 7 24 4 12 -12 -39 -71 -155 -179 -72 -67 -74 -80 -20 -133 42 -43 46 -44 133 -55 80 -10 93 -14 118 -41 15 -16 27 -31 27 -32 0 -16 -33 -89 -54 -121 -41 -61 -158 -178 -199 -200 -36 -19 -38 -19 -71 -1 -21 11 -41 33 -51 57 -23 50 -42 66 -57 51 -8 -8 -9 -18 -1 -34 6 -13 19 -43 29 -67 10 -24 32 -57 49 -73 25 -24 36 -28 70 -25 58 6 140 41 188 80 23 19 69 69 101 112 61 79 86 142 86 218 0 85 -78 142 -237 172 -18 4 -33 11 -33 17 0 22 54 100 76 108 12 5 24 19 26 32 2 12 14 28 27 35 31 15 39 30 50 90 11 59 -3 80 -61 89 -41 7 -51 30 -23 58 8 8 15 20 15 26 0 6 7 21 16 35 8 13 17 38 19 56 3 17 9 46 14 63 5 17 17 65 26 106 10 41 24 85 32 97 17 26 11 53 -12 53 -12 0 -15 12 -15 55 0 51 -2 55 -26 61 -15 4 -38 3 -52 -2 -23 -8 -26 -16 -29 -64 -7 -127 -10 -134 -61 -171 -43 -31 -68 -45 -189 -109 -23 -12 -47 -28 -54 -36 -6 -8 -16 -14 -21 -14 -5 0 -21 -9 -35 -20 -35 -27 -53 -25 -53 6 0 26 -1 26 -46 19 -45 -6 -75 -20 -212 -99 -59 -33 -63 -34 -56 -13 4 12 17 38 29 57 12 19 27 50 33 69 15 44 59 101 77 101 8 0 29 13 47 28 18 16 54 41 79 56 63 36 79 55 68 84 -7 19 -13 21 -36 16 -16 -4 -36 -11 -45 -15 -42 -22 -70 9 -28 31 29 16 25 54 -11 95 -17 19 -34 34 -38 34 -3 -1 -16 -4 -28 -6z m552 -405 c-4 -23 -17 -41 -39 -56 -69 -47 -196 -193 -242 -277 -9 -16 -32 -49 -51 -72 -18 -23 -40 -58 -49 -78 -8 -20 -20 -38 -27 -41 -7 -2 -40 -37 -73 -76 -80 -97 -142 -163 -148 -157 -11 11 45 230 69 265 14 20 25 40 25 44 0 4 25 23 57 41 68 41 103 73 103 94 0 19 -27 19 -97 -1 -30 -9 -57 -13 -60 -10 -5 5 3 26 24 67 2 3 -6 16 -17 29 -26 30 -25 44 4 58 23 10 24 9 23 -25 -1 -24 5 -40 18 -49 35 -26 67 -16 123 36 29 28 56 50 60 50 4 0 20 12 35 26 15 14 47 34 70 44 24 11 52 28 62 40 10 11 23 20 29 20 6 0 31 16 56 34 25 18 46 32 48 31 2 -2 0 -18 -3 -37z m-38 -203 c-8 -59 -10 -62 -58 -75 -44 -12 -65 -5 -36 11 9 6 17 14 17 20 0 9 71 89 79 89 1 0 1 -20 -2 -45z m-612 -117 c-11 -92 -9 -90 -106 -136 -50 -24 -93 -41 -97 -38 -3 4 4 9 16 13 14 3 25 17 31 40 11 40 45 86 99 137 53 51 64 48 57 -16z" />
<ns0:path d="M1323 1390 c-44 -18 -35 -84 14 -96 36 -10 78 9 81 37 6 47 -46 79 -95 59z" />
<ns0:path d="M837 729 c-19 -11 -47 -68 -67 -134 -7 -22 -27 -78 -46 -125 -18 -47 -37 -101 -42 -120 -6 -19 -21 -65 -35 -102 -27 -72 -21 -94 15 -61 20 18 128 177 128 189 0 8 83 186 115 247 27 51 32 86 13 105 -15 15 -57 15 -81 1z" />
</ns0:g>
</g><g transform="translate(0.5191271708867475,817.1706792317844) scale(0.0550028619495738)"><ns0:metadata>
Created by potrace 1.16, written by Peter Selinger 2001-2019
</ns0:metadata>
<ns0:g transform="translate(0.000000,211.000000) scale(0.100000,-0.100000)" fill="#000000" stroke="none">
<ns0:path d="M1749 2083 c-13 -15 -60 -61 -104 -102 -44 -42 -175 -170 -292 -286 -328 -327 -299 -300 -318 -281 -20 20 -38 20 -74 1 -28 -14 -29 -18 -36 -112 -11 -157 -12 -167 -35 -253 -16 -56 -26 -80 -35 -76 -18 7 -42 -22 -74 -91 -28 -58 -66 -111 -129 -181 l-34 -37 6 45 c11 78 35 136 76 180 48 52 56 100 16 100 -14 0 -28 -5 -31 -10 -3 -6 -13 -10 -21 -10 -12 0 -13 4 -3 22 10 18 8 24 -7 35 -10 7 -24 13 -31 13 -13 0 8 25 39 45 9 6 40 28 69 51 30 22 76 50 102 62 57 27 62 55 10 60 -31 3 -184 -64 -243 -107 -62 -45 -111 -73 -116 -68 -4 3 9 57 28 119 l35 113 69 53 c38 29 84 65 103 80 19 15 43 31 55 35 11 4 27 14 36 22 8 8 28 25 45 39 25 20 28 26 16 40 -15 18 -51 21 -66 7 -6 -5 -41 -26 -80 -46 -38 -20 -85 -45 -102 -56 -18 -11 -37 -18 -43 -14 -13 8 -3 84 17 132 15 38 9 74 -17 98 -18 16 -21 16 -57 -1 -30 -15 -38 -25 -40 -49 -1 -16 -6 -61 -11 -99 -6 -38 -8 -74 -6 -80 8 -22 -41 -234 -70 -301 -10 -22 -24 -60 -31 -85 -22 -78 -53 -152 -80 -190 -14 -20 -25 -50 -25 -68 0 -19 -17 -65 -42 -110 -22 -42 -54 -101 -70 -131 -16 -30 -41 -69 -55 -88 -21 -27 -23 -34 -10 -39 9 -3 25 0 37 6 17 9 29 9 50 0 23 -9 32 -8 57 7 44 27 116 89 205 176 49 49 84 75 89 70 12 -12 -44 -233 -67 -268 -13 -20 -14 -30 -4 -60 16 -48 50 -64 85 -41 14 9 25 23 25 30 0 8 6 16 14 19 8 3 20 18 28 34 32 61 71 126 108 180 22 31 40 61 40 66 0 5 15 39 34 76 18 36 37 81 40 98 4 18 12 36 18 39 16 10 4 -74 -27 -186 -43 -155 -48 -172 -76 -235 -15 -33 -34 -89 -42 -125 -9 -36 -23 -91 -33 -123 -13 -44 -14 -61 -5 -70 8 -8 15 -8 25 3 23 23 84 152 94 197 5 23 21 56 35 74 28 37 67 129 67 158 0 10 12 52 26 92 28 81 37 120 86 351 31 149 34 158 58 163 21 5 29 15 38 50 12 45 97 146 277 332 107 110 135 141 135 151 0 6 23 27 50 47 28 20 55 45 60 55 8 15 62 50 78 50 7 0 -2 -53 -31 -180 -30 -138 -44 -209 -53 -272 -6 -46 -16 -59 -29 -38 -14 22 -74 10 -110 -21 -39 -35 -39 -34 -114 -185 -30 -60 -67 -127 -81 -149 -15 -22 -29 -48 -33 -57 -10 -29 -33 -21 -75 24 l-39 42 -39 -15 c-30 -11 -40 -21 -42 -41 -3 -21 9 -38 60 -87 l63 -62 -19 -32 c-46 -77 -96 -170 -96 -178 0 -5 -5 -9 -10 -9 -6 0 -15 -10 -21 -22 -5 -13 -21 -38 -34 -57 -14 -18 -22 -37 -19 -42 13 -21 67 31 146 139 45 64 93 126 105 139 l22 23 48 -21 c26 -12 55 -26 63 -30 21 -13 29 -16 84 -31 27 -7 51 -19 54 -27 3 -7 -1 -36 -8 -65 -7 -28 -16 -76 -21 -106 -4 -30 -12 -73 -18 -95 -5 -22 -14 -67 -20 -99 -6 -33 -14 -62 -19 -65 -18 -13 -20 -40 -4 -54 23 -19 77 -36 90 -28 17 10 30 54 37 123 8 75 31 204 50 273 7 28 16 70 19 95 28 234 74 532 101 665 8 39 24 126 35 195 31 185 79 378 110 440 15 30 30 74 33 98 l5 42 -53 0 c-45 0 -56 -4 -76 -27z m-188 -925 c-16 -101 -35 -221 -41 -268 -6 -47 -15 -95 -21 -108 -8 -20 -12 -21 -31 -11 -36 18 -157 99 -163 108 -9 16 26 100 48 114 12 8 32 36 45 63 13 27 27 56 33 64 5 8 27 47 49 86 54 95 103 161 108 146 2 -6 -10 -94 -27 -194z m-1021 -232 c0 -54 0 -55 -62 -110 -91 -79 -152 -119 -156 -101 -5 22 55 123 102 174 78 83 87 91 101 91 11 0 15 -13 15 -54z" />
</ns0:g>
</g><g transform="translate(2.8214169962998312,1000.16369360203) scale(0.0550028619495738)"><ns0:metadata>
Created by potrace 1.16, written by Peter Selinger 2001-2019
</ns0:metadata>
<ns0:g transform="translate(0.000000,207.000000) scale(0.100000,-0.100000)" fill="#000000" stroke="none">
<ns0:path d="M840 1478 c-39 -43 -12 -98 50 -98 40 0 51 -12 44 -49 -7 -32 -82 -116 -148 -166 -44 -33 -56 -46 -56 -59 0 -29 34 -41 129 -46 108 -6 110 -8 91 -79 -16 -59 -120 -179 -186 -215 -48 -26 -54 -32 -54 -61 0 -27 5 -34 25 -39 31 -8 90 16 104 42 6 12 21 24 33 28 41 13 96 65 139 131 36 57 43 75 47 135 6 93 -5 111 -79 135 -62 19 -74 37 -36 54 12 6 38 36 57 67 27 45 34 68 35 108 0 62 -20 89 -79 106 -23 6 -45 15 -50 20 -17 14 -45 9 -66 -14z" />
</ns0:g>
</g><g transform="translate(0.2780605824719373,1155.4035344304461) scale(0.0550028619495738)"><ns0:metadata>
Created by potrace 1.16, written by Peter Selinger 2001-2019
</ns0:metadata>
<ns0:g transform="translate(0.000000,206.000000) scale(0.100000,-0.100000)" fill="#000000" stroke="none">
<ns0:path d="M1020 1511 c-17 -5 -26 -16 -30 -36 -3 -18 -15 -34 -28 -41 -44 -22 -55 -57 -90 -299 -21 -148 -20 -340 3 -365 8 -9 15 -26 15 -39 0 -12 6 -37 14 -56 19 -46 54 -54 109 -27 23 11 65 24 92 27 62 9 71 16 102 80 79 163 90 203 94 340 6 233 -3 325 -33 325 -6 0 -27 14 -49 31 -21 16 -55 33 -76 36 -21 3 -47 12 -58 19 -21 15 -27 16 -65 5z m115 -114 c60 -34 66 -55 66 -225 0 -142 -11 -210 -40 -246 -5 -6 -14 -29 -21 -50 -19 -58 -62 -96 -109 -96 -37 0 -39 1 -55 53 -17 53 -16 54 18 213 19 87 40 180 46 206 7 26 9 56 5 67 -3 10 -1 22 5 26 5 3 10 22 10 41 0 41 17 44 75 11z" />
</ns0:g>
</g><g transform="translate(2.175530298614376,1313.9135410069698) scale(0.0550028619495738)"><ns0:metadata>
Created by potrace 1.16, written by Peter Selinger 2001-2019
</ns0:metadata>
<ns0:g transform="translate(0.000000,208.000000) scale(0.100000,-0.100000)" fill="#000000" stroke="none">
<ns0:path d="M985 1344 c-18 -20 -38 -56 -45 -82 -7 -26 -21 -67 -33 -92 -57 -127 -67 -153 -65 -163 1 -7 -2 -36 -6 -65 -14 -90 32 -146 116 -142 65 4 70 -2 44 -52 -18 -34 -29 -85 -21 -97 12 -21 45 7 96 82 32 48 63 83 78 88 15 5 34 14 43 19 10 6 28 10 40 10 12 0 49 9 83 21 66 22 102 61 90 99 -10 31 -36 32 -121 5 -130 -41 -131 -41 -85 101 34 105 80 188 107 193 10 1 34 14 52 28 25 19 32 31 30 51 -3 23 -7 27 -33 25 -145 -10 -156 -15 -186 -81 -36 -80 -79 -213 -95 -291 -8 -41 -16 -76 -18 -78 -8 -9 -63 -10 -84 -2 -21 8 -23 13 -17 52 10 71 109 284 140 301 31 17 42 36 37 66 -4 30 -23 40 -81 40 -26 0 -41 -8 -66 -36z" />
</ns0:g>
</g></svg>