<?xml version='1.0' encoding='utf-8'?>
<svg xmlns:ns0="http://www.w3.org/2000/svg" xmlns="http://www.w3.org/2000/svg" width="235" height="109" viewBox="0 0 235 109"><g transform="translate(0.9575132515787459,-98.2996591881637) scale(0.0460041892903181)"><ns0:metadata>
Created by potrace 1.16, written by Peter Selinger 2001-2019
</ns0:metadata>
<ns0:g transform="translate(0.000000,210.000000) scale(0.100000,-0.100000)" fill="#000000" stroke="none">
<ns0:path d="M1195 2079 c-22 -12 -59 -34 -82 -49 -23 -16 -61 -38 -85 -49 -24 -11 -70 -37 -103 -56 -33 -19 -68 -38 -77 -41 -10 -4 -18 -10 -18 -15 0 -5 -5 -9 -10 -9 -16 0 -102 -41 -128 -62 -13 -9 -76 -34 -139 -54 -63 -20 -120 -43 -126 -50 -41 -46 -41 -45 -20 -72 41 -55 83 -52 184 14 29 19 60 34 67 34 8 0 41 18 74 40 33 22 65 40 70 40 11 0 67 37 83 54 13 14 125 69 131 64 2 -3 0 -18 -5 -34 -4 -16 -8 -99 -8 -184 0 -85 -4 -236 -8 -335 -11 -251 -11 -259 -21 -360 -5 -49 -7 -164 -6 -255 5 -195 -5 -330 -22 -330 -14 0 -34 39 -76 150 -59 156 -59 155 -10 256 41 88 59 164 60 261 0 62 -38 102 -106 110 -45 5 -60 1 -118 -27 -36 -18 -71 -39 -77 -46 -18 -21 -2 -62 31 -79 16 -8 40 -30 53 -47 23 -31 57 -124 57 -155 0 -16 -89 -129 -109 -138 -8 -3 -18 0 -22 6 -13 22 -30 158 -23 193 7 39 -1 86 -15 86 -4 0 -21 -30 -37 -67 -24 -56 -29 -82 -29 -148 0 -72 3 -85 30 -127 53 -82 97 -88 180 -23 32 25 59 44 61 42 4 -5 44 -171 44 -184 0 -7 12 -32 27 -56 15 -23 32 -51 38 -62 14 -27 73 -65 102 -65 49 0 64 98 64 405 0 132 4 281 9 330 5 50 14 250 21 445 11 336 13 359 36 427 21 60 33 79 74 113 27 23 49 47 49 55 0 7 3 15 8 17 4 2 18 15 31 31 l24 27 -44 0 c-26 0 -61 -9 -84 -21z m-398 -281 c-3 -8 -6 -5 -6 6 -1 11 2 17 5 13 3 -3 4 -12 1 -19z m17 -852 c-4 -47 -10 -86 -13 -86 -7 0 -51 138 -51 157 0 14 52 33 63 23 5 -4 5 -46 1 -94z" />
</ns0:g>
</g><g transform="translate(-1.913732248117583,23.56806899947054) scale(0.0460041892903181)"><ns0:metadata>
Created by potrace 1.16, written by Peter Selinger 2001-2019
</ns0:metadata>
<ns0:g transform="translate(0.000000,204.000000) scale(0.100000,-0.100000)" fill="#000000" stroke="none">
<ns0:path d="M1046 1901 c-10 -11 -15 -27 -12 -38 7 -22 9 -243 2 -296 -6 -50 -20 -66 -66 -73 -20 -3 -43 -10 -50 -14 -16 -10 -15 -82 1 -112 8 -15 14 -75 15 -168 2 -86 7 -146 13 -148 5 -2 24 16 40 39 17 23 31 40 31 37 0 -17 -38 -113 -76 -191 -8 -16 -14 -37 -14 -47 0 -10 -4 -22 -10 -25 -5 -3 -14 -23 -20 -45 -6 -21 -16 -45 -24 -52 -7 -8 -43 -61 -80 -118 -36 -58 -76 -117 -88 -132 -20 -25 -19 -58 1 -58 30 0 206 207 221 260 5 20 20 47 32 60 24 25 39 50 87 145 46 92 44 91 79 66 17 -12 37 -37 43 -56 22 -60 54 -51 66 20 4 26 0 50 -17 86 -23 47 -25 49 -57 43 -25 -5 -33 -3 -33 8 0 22 99 251 119 273 60 68 64 111 9 100 -18 -4 -37 -11 -43 -16 -5 -5 -16 -9 -26 -9 -36 0 -67 -39 -93 -119 -15 -44 -34 -97 -43 -118 l-17 -38 -8 95 c-6 83 -5 96 10 105 9 6 37 31 62 56 25 26 62 56 83 69 20 12 37 26 37 31 0 5 12 15 28 21 15 7 50 31 77 54 47 39 86 64 99 64 15 0 -10 -153 -39 -235 -7 -22 -21 -65 -30 -95 -9 -30 -28 -78 -42 -106 -15 -31 -23 -59 -19 -69 11 -29 46 3 93 85 23 40 47 78 52 83 6 6 11 20 11 31 0 10 11 38 23 60 13 23 29 66 35 96 34 172 43 231 40 280 -3 50 -5 55 -28 58 -18 2 -50 -17 -115 -68 -49 -38 -99 -74 -110 -79 -12 -5 -27 -16 -34 -25 -7 -9 -19 -16 -25 -16 -7 0 -27 -13 -46 -30 -34 -31 -67 -46 -77 -36 -3 3 2 25 11 49 9 23 16 61 16 84 0 23 5 65 11 94 16 72 3 99 -49 99 -26 0 -45 -7 -56 -19z" />
<ns0:path d="M588 1828 c-20 -16 -38 -132 -38 -247 0 -46 -5 -84 -12 -94 -7 -9 -38 -28 -68 -42 -45 -21 -141 -76 -197 -112 -6 -5 -14 -20 -18 -35 -17 -68 98 -108 150 -52 14 15 25 31 25 35 0 11 79 69 93 69 7 0 8 -56 4 -162 l-7 -163 -57 -52 c-32 -28 -74 -60 -93 -70 -19 -10 -55 -33 -80 -53 -25 -19 -57 -41 -72 -49 -51 -26 -88 -68 -88 -100 0 -32 6 -38 50 -51 25 -7 35 -3 82 38 29 25 82 67 118 93 36 26 73 57 82 68 22 26 51 28 44 4 -15 -54 -25 -144 -31 -268 -9 -224 -17 -340 -22 -345 -9 -9 -73 73 -79 100 -3 14 -12 42 -20 62 -7 21 -16 58 -18 83 -7 72 -26 87 -45 34 -14 -40 -14 -120 -1 -189 11 -58 53 -122 136 -207 54 -57 60 -59 97 -42 23 10 25 20 36 118 6 58 13 178 16 266 6 181 31 431 45 457 6 10 10 31 10 48 0 20 9 39 24 53 69 64 174 165 195 190 22 26 23 30 8 44 -14 15 -18 15 -41 -1 -14 -9 -58 -45 -98 -81 -75 -68 -83 -73 -90 -52 -7 19 12 226 26 287 13 53 15 56 77 92 35 21 78 45 94 53 50 26 67 43 63 62 -7 35 -32 29 -182 -43 -52 -25 -56 -20 -50 49 7 82 23 136 46 148 21 11 23 32 4 48 -22 18 -99 24 -118 9z m27 -146 c0 -18 -20 -15 -23 4 -3 10 1 15 10 12 7 -3 13 -10 13 -16z m-65 -1114 c0 -10 -5 -18 -10 -18 -15 0 -23 27 -16 47 6 15 8 15 16 3 6 -8 10 -23 10 -32z" />
<ns0:path d="M1230 767 c-36 -22 -69 -46 -73 -53 -4 -7 -38 -30 -75 -51 -37 -20 -94 -55 -127 -78 -33 -22 -81 -48 -106 -58 -25 -10 -56 -29 -69 -42 -13 -14 -29 -25 -37 -25 -13 0 -18 -36 -7 -64 3 -8 21 -18 40 -22 27 -5 43 0 81 25 27 16 55 37 63 45 8 8 27 20 43 27 15 7 27 16 27 21 0 5 15 16 33 24 17 8 51 26 75 39 23 13 42 22 42 19 0 -8 -61 -118 -74 -134 -8 -8 -27 -45 -44 -81 -17 -37 -35 -70 -41 -73 -5 -4 -28 -40 -50 -80 -25 -45 -67 -99 -109 -140 l-67 -66 308 0 307 0 40 41 c44 45 54 94 24 123 -23 23 -32 20 -54 -17 -32 -53 -74 -65 -254 -71 -128 -5 -157 -3 -153 7 9 23 74 121 95 143 23 24 52 77 52 95 0 7 12 28 28 48 35 46 63 91 107 175 20 39 44 81 54 95 29 44 41 80 41 127 0 42 -1 44 -27 42 -16 -1 -57 -20 -93 -41z" />
</ns0:g>
</g><g transform="translate(2.3600990701913815,165.87820446393937) scale(0.0460041892903181)"><ns0:metadata>
Created by potrace 1.16, written by Peter Selinger 2001-2019
</ns0:metadata>
<ns0:g transform="translate(0.000000,205.000000) scale(0.100000,-0.100000)" fill="#000000" stroke="none">
<ns0:path d="M1461 1956 c-17 -18 -23 -39 -27 -92 -2 -38 -7 -76 -10 -84 -5 -15 -106 -93 -153 -119 -14 -8 -47 -32 -73 -54 -53 -44 -63 -81 -30 -110 34 -31 64 -21 130 43 34 33 67 60 75 60 10 0 12 -16 9 -67 -8 -136 -18 -151 -134 -213 -55 -30 -98 -75 -98 -105 0 -14 4 -25 10 -25 5 0 18 -10 30 -22 l20 -22 42 31 c74 52 71 53 63 -18 -5 -49 -13 -71 -34 -92 -37 -40 -160 -134 -245 -186 -39 -25 -76 -52 -83 -60 -16 -21 -16 -11 3 84 8 44 17 117 19 162 3 69 0 87 -15 105 l-18 23 -43 -22 c-24 -12 -82 -58 -129 -102 -47 -43 -87 -78 -89 -76 -4 5 55 109 91 159 15 21 28 43 28 47 0 4 18 35 40 68 22 33 40 63 40 67 0 4 24 39 54 79 29 39 61 86 71 105 10 19 28 46 41 59 13 13 21 28 17 34 -4 6 -6 28 -4 49 2 28 -2 40 -15 45 -19 7 -115 -42 -179 -91 -22 -17 -56 -40 -75 -50 -120 -66 -220 -139 -220 -162 0 -8 -4 -14 -10 -14 -12 0 -14 -67 -2 -73 35 -20 61 -15 96 17 20 19 45 38 56 41 11 3 20 11 20 16 0 11 81 71 88 65 6 -7 -51 -108 -103 -181 -23 -33 -68 -107 -100 -165 -32 -58 -65 -114 -75 -125 -9 -11 -33 -52 -52 -91 -20 -38 -65 -113 -100 -165 -35 -51 -81 -128 -102 -169 -20 -41 -55 -106 -77 -145 -49 -85 -53 -114 -20 -131 20 -10 30 -10 50 1 34 17 67 54 80 87 14 37 135 214 181 264 21 23 43 52 50 65 11 20 77 89 86 89 1 0 2 -19 2 -42 -2 -79 45 -218 73 -218 10 0 21 -4 24 -10 19 -31 79 19 120 101 20 39 28 46 48 42 23 -5 95 32 122 62 6 6 31 26 56 44 26 18 51 43 58 57 6 13 18 24 27 24 9 0 34 16 57 35 69 59 71 56 63 -112 -4 -82 -12 -172 -19 -202 -11 -47 -18 -56 -54 -77 -23 -13 -67 -30 -97 -39 -31 -9 -58 -21 -61 -26 -4 -5 -15 -9 -26 -9 -11 0 -36 -12 -55 -27 -40 -33 -45 -69 -11 -100 l22 -21 73 24 c40 14 87 33 105 43 24 13 37 15 49 8 13 -9 25 -3 57 26 23 20 46 37 51 37 11 0 127 51 174 77 16 9 59 23 95 33 64 16 68 16 101 -1 34 -18 35 -18 54 1 17 17 18 24 8 57 -6 21 -9 48 -6 60 4 16 1 25 -10 29 -26 10 -132 -19 -241 -67 -41 -18 -117 -40 -122 -36 -2 3 0 40 6 82 6 42 11 118 11 168 1 102 19 204 44 242 9 13 32 40 51 59 60 60 53 113 -10 84 -31 -14 -43 -4 -21 17 21 21 20 26 -9 54 -14 13 -25 27 -25 31 0 4 32 36 72 71 82 73 128 121 128 132 0 4 -9 16 -20 27 -17 17 -24 18 -47 8 -16 -7 -38 -21 -50 -32 -13 -11 -25 -17 -28 -14 -3 3 10 59 28 124 48 167 47 160 38 253 -7 63 -13 88 -27 98 -24 17 -27 17 -53 -11z m-646 -636 c-10 -11 -21 -17 -24 -14 -3 3 3 12 13 20 28 20 32 17 11 -6z m55 -302 c0 -31 -36 -173 -60 -234 -37 -98 -54 -124 -70 -108 -26 26 -14 222 16 255 8 8 14 20 14 25 1 18 100 79 100 62z" />
</ns0:g>
</g></svg>