<?xml version='1.0' encoding='utf-8'?>
<svg xmlns:ns0="http://www.w3.org/2000/svg" xmlns="http://www.w3.org/2000/svg" width="235" height="136" viewBox="0 0 235 136"><g transform="translate(2.3928181090873863,-108.23333560999107) scale(0.05739972241727762)"><ns0:metadata>
Created by potrace 1.16, written by Peter Selinger 2001-2019
</ns0:metadata>
<ns0:g transform="translate(0.000000,209.000000) scale(0.100000,-0.100000)" fill="#000000" stroke="none">
<ns0:path d="M1381 1876 c-22 -23 -23 -33 -26 -188 -2 -132 -7 -174 -23 -223 -12 -33 -28 -82 -37 -110 -9 -27 -26 -69 -37 -93 -21 -44 -19 -72 5 -72 18 0 117 106 117 126 0 12 24 63 47 103 2 2 15 -1 29 -8 24 -11 30 -9 53 13 14 13 48 33 76 44 62 24 76 44 51 71 -26 29 -81 27 -131 -4 -22 -13 -42 -25 -45 -25 -3 0 -5 87 -5 192 l0 193 -25 3 c-17 2 -34 -6 -49 -22z" />
<ns0:path d="M1085 1837 c-16 -5 -50 -28 -75 -51 -25 -23 -67 -57 -95 -75 -27 -19 -61 -44 -75 -56 -39 -35 -66 -40 -84 -14 -10 15 -26 22 -46 22 -37 0 -49 -10 -60 -54 -5 -19 -16 -54 -25 -78 -9 -25 -18 -85 -21 -135 -4 -80 -19 -266 -40 -492 -10 -116 29 -111 71 9 25 70 36 131 62 350 l17 147 47 48 c26 26 64 61 85 78 42 33 160 114 167 114 12 0 -49 -505 -64 -525 -12 -17 -22 -102 -11 -109 17 -10 71 49 95 105 32 72 69 273 81 434 14 187 18 283 10 287 -5 3 -22 1 -39 -5z" />
<ns0:path d="M825 1413 c-16 -8 -32 -17 -34 -19 -5 -5 -28 -126 -47 -254 -31 -209 -87 -369 -157 -445 -10 -11 -35 -41 -54 -67 -20 -26 -47 -49 -60 -52 -32 -9 -31 -44 2 -56 28 -11 51 -5 59 16 3 8 11 14 18 14 7 0 29 16 47 35 19 19 42 37 50 40 9 3 31 28 49 55 17 28 36 50 41 50 5 0 18 -15 29 -34 35 -59 96 -80 236 -81 89 0 89 0 90 -26 2 -28 67 -106 101 -119 19 -7 147 22 170 39 5 4 30 13 55 21 25 7 59 21 75 31 17 9 46 20 66 24 57 11 99 40 99 71 0 28 9 28 -129 4 -35 -6 -66 -8 -69 -5 -3 3 8 25 25 49 116 164 120 401 8 422 -58 11 -136 -12 -177 -53 -32 -32 -38 -44 -38 -80 0 -31 5 -45 16 -50 18 -7 84 22 84 36 0 5 14 18 32 29 47 30 68 15 68 -46 -1 -84 -58 -194 -139 -267 -24 -22 -57 -52 -72 -67 -15 -16 -31 -28 -36 -28 -4 0 -7 27 -7 60 1 49 -2 63 -16 70 -32 17 -53 102 -45 185 6 69 5 74 -15 80 -27 8 -30 5 -70 -70 -32 -62 -36 -107 -15 -187 l7 -28 -56 0 c-82 0 -143 18 -167 48 -11 15 -33 32 -49 38 l-28 12 14 54 c8 29 22 77 30 107 9 30 22 93 30 140 21 132 31 172 53 221 27 59 26 74 -4 88 -32 15 -33 15 -70 -5z" />
</ns0:g>
</g><g transform="translate(2.9875153324850316,33.190771320964046) scale(0.05739972241727762)"><ns0:metadata>
Created by potrace 1.16, written by Peter Selinger 2001-2019
</ns0:metadata>
<ns0:g transform="translate(0.000000,207.000000) scale(0.100000,-0.100000)" fill="#000000" stroke="none">
<ns0:path d="M1058 1644 c-33 -17 -31 -3 -32 -189 -1 -164 -6 -180 -58 -214 -45 -28 -85 -58 -154 -113 -32 -27 -63 -48 -68 -48 -8 0 -7 13 13 120 5 30 13 73 16 95 3 22 8 56 11 75 3 19 0 55 -6 80 -7 25 -14 63 -17 85 -3 22 -12 48 -21 58 -20 23 -67 22 -91 -2 -21 -21 -21 -38 1 -153 16 -84 14 -171 -5 -283 -16 -93 -28 -142 -78 -315 -11 -36 -24 -90 -29 -120 -5 -30 -14 -66 -19 -80 -5 -14 -19 -61 -31 -105 -12 -44 -33 -112 -46 -151 -13 -40 -29 -96 -34 -125 -12 -56 -25 -99 -42 -136 -14 -29 -4 -54 19 -46 31 11 45 27 65 73 11 25 26 58 33 75 8 16 24 59 35 95 12 36 26 70 30 75 12 15 45 117 70 223 23 92 23 92 44 74 12 -10 34 -24 49 -32 24 -12 31 -12 56 3 16 9 34 17 41 17 6 0 42 13 80 30 38 16 71 30 74 30 2 0 2 -123 0 -273 -5 -244 -4 -275 11 -287 25 -21 36 0 47 92 5 45 16 106 23 133 8 28 17 99 21 160 4 60 12 139 18 176 6 36 9 91 8 121 -3 50 -6 57 -28 62 -20 5 -35 -2 -68 -31 -62 -54 -142 -91 -211 -99 -33 -3 -75 -15 -92 -25 -33 -18 -33 -18 -33 4 0 12 5 39 11 60 8 29 14 37 27 33 23 -7 33 1 62 49 24 39 87 112 124 144 70 60 84 71 89 71 3 0 -3 -31 -14 -70 -23 -85 -23 -90 -1 -90 19 0 72 74 72 100 0 9 11 31 24 49 48 64 64 127 75 293 6 91 16 167 23 178 11 18 9 23 -17 45 -35 28 -41 29 -77 9z" />
</ns0:g>
</g><g transform="translate(-2.729798231897348,221.200810136879) scale(0.05739972241727762)"><ns0:metadata>
Created by potrace 1.16, written by Peter Selinger 2001-2019
</ns0:metadata>
<ns0:g transform="translate(0.000000,211.000000) scale(0.100000,-0.100000)" fill="#000000" stroke="none">
<ns0:path d="M1360 1549 c-62 -34 -143 -69 -159 -69 -9 0 -47 -12 -86 -26 -38 -14 -86 -30 -105 -36 -19 -5 -46 -16 -60 -23 -14 -7 -47 -23 -75 -35 -27 -13 -53 -28 -57 -34 -14 -21 -8 -56 13 -77 30 -30 81 -20 155 30 67 45 152 81 190 81 l26 0 -6 -132 c-14 -270 -17 -377 -16 -531 0 -86 3 -164 6 -172 3 -7 20 -17 37 -21 38 -8 52 8 68 82 9 40 9 57 1 67 -8 9 -10 62 -7 173 3 87 5 197 5 244 0 47 4 110 10 140 6 30 14 73 18 94 4 23 15 43 27 50 30 16 36 28 31 58 -5 23 0 30 37 50 38 21 42 27 42 63 0 37 -2 40 -30 42 -16 1 -46 -7 -65 -18z" />
</ns0:g>
</g><g transform="translate(0.7241070264890936,384.50250578131454) scale(0.05739972241727762)"><ns0:metadata>
Created by potrace 1.16, written by Peter Selinger 2001-2019
</ns0:metadata>
<ns0:g transform="translate(0.000000,211.000000) scale(0.100000,-0.100000)" fill="#000000" stroke="none">
<ns0:path d="M1535 1475 c-22 -25 -68 -73 -103 -107 -35 -35 -68 -72 -75 -84 -7 -12 -58 -82 -114 -155 -232 -305 -276 -359 -291 -359 -10 0 -24 27 -42 80 -18 52 -43 103 -61 125 -10 11 -31 47 -49 80 -46 86 -111 185 -122 185 -5 0 -22 -7 -37 -15 -46 -23 -53 -64 -21 -117 11 -18 20 -38 20 -44 0 -13 78 -134 96 -149 7 -5 35 -55 64 -110 28 -55 55 -104 60 -110 4 -5 11 -24 14 -42 9 -38 48 -83 74 -83 21 0 42 18 42 36 0 11 49 80 225 323 11 15 36 52 56 82 21 30 44 61 53 68 9 7 16 17 16 22 0 9 107 177 140 220 69 89 110 158 110 184 0 25 -14 17 -55 -30z" />
</ns0:g>
</g><g transform="translate(-1.510098546453321,527.2953472268528) scale(0.05739972241727762)"><ns0:metadata>
Created by potrace 1.16, written by Peter Selinger 2001-2019
</ns0:metadata>
<ns0:g transform="translate(0.000000,211.000000) scale(0.100000,-0.100000)" fill="#000000" stroke="none">
<ns0:path d="M1000 1304 c-24 -13 -47 -28 -50 -32 -3 -5 -19 -14 -37 -21 -92 -37 -247 -202 -299 -318 -22 -48 -23 -57 -12 -110 12 -58 58 -129 117 -177 14 -11 39 -34 56 -51 17 -16 50 -41 73 -55 23 -14 42 -28 42 -31 0 -7 -79 -59 -90 -59 -4 0 -13 -7 -20 -15 -15 -18 -213 -119 -295 -150 -35 -13 -84 -27 -109 -30 -26 -4 -49 -12 -52 -17 -11 -17 15 -25 59 -18 23 4 76 13 117 20 84 14 194 56 353 136 38 19 76 34 85 34 9 1 40 13 67 29 45 24 50 31 53 65 4 41 -18 76 -47 76 -70 0 -281 181 -295 252 -11 58 26 127 123 231 51 54 134 107 167 107 7 0 34 15 58 33 36 26 45 38 45 64 1 17 -2 38 -5 47 -9 23 -51 19 -104 -10z" />
</ns0:g>
</g><g transform="translate(1.3170786710648485,699.835580608245) scale(0.05739972241727762)"><ns0:metadata>
Created by potrace 1.16, written by Peter Selinger 2001-2019
</ns0:metadata>
<ns0:g transform="translate(0.000000,218.000000) scale(0.100000,-0.100000)" fill="#000000" stroke="none">
<ns0:path d="M1192 2151 c-71 -46 -255 -216 -339 -314 l-33 -38 -31 17 c-17 9 -42 14 -55 11 -28 -5 -33 17 -10 42 23 26 29 66 12 83 -12 12 -26 13 -67 7 -29 -5 -57 -13 -62 -18 -6 -6 -16 -54 -23 -108 -13 -94 -20 -121 -49 -188 -17 -38 -53 -136 -71 -194 -15 -47 -8 -66 18 -56 19 8 62 70 73 105 4 14 20 39 35 55 15 17 36 46 45 65 29 56 56 88 86 101 16 6 29 15 29 20 0 5 7 9 15 9 19 0 19 -11 0 -36 -8 -10 -15 -29 -15 -41 0 -19 5 -23 33 -23 31 0 38 7 99 98 46 68 105 134 194 220 70 67 133 122 141 122 7 0 13 4 13 8 0 10 87 72 100 72 5 0 6 -8 3 -17 -9 -24 -86 -136 -140 -202 -25 -30 -53 -72 -64 -94 -11 -21 -36 -52 -55 -69 -25 -23 -34 -38 -34 -62 0 -36 -13 -51 -100 -109 -56 -37 -140 -119 -140 -137 0 -5 5 -20 12 -34 10 -23 7 -30 -33 -75 -60 -67 -66 -74 -90 -117 -11 -20 -37 -58 -57 -83 -20 -25 -44 -59 -52 -76 -9 -17 -24 -30 -35 -30 -24 0 -38 50 -25 88 5 16 23 44 40 63 37 43 41 84 6 84 -13 0 -34 -8 -47 -19 -13 -10 -34 -21 -47 -25 -29 -10 -72 -67 -72 -97 0 -42 32 -117 70 -160 31 -36 43 -43 72 -43 44 0 61 14 106 83 34 54 179 233 210 261 9 8 25 28 35 43 10 15 26 31 35 34 9 4 45 28 79 55 35 26 68 48 74 48 6 0 23 9 37 21 32 24 190 119 200 119 4 0 27 16 50 35 24 19 53 37 65 41 11 4 50 28 86 54 36 26 82 56 103 65 58 28 76 85 26 85 -11 0 -54 -17 -96 -39 -43 -21 -111 -54 -152 -73 -41 -19 -89 -47 -106 -61 -36 -30 -139 -87 -159 -87 -6 0 -33 -16 -59 -36 -26 -20 -50 -33 -54 -29 -4 4 -1 10 6 12 7 3 36 27 65 54 28 27 70 59 92 70 22 11 63 33 90 49 28 16 60 34 71 39 20 9 77 61 220 201 59 58 82 96 68 110 -12 12 -190 -103 -298 -193 -61 -50 -96 -69 -96 -52 0 5 52 89 90 145 16 24 80 156 80 166 0 2 -39 4 -87 3 -78 0 -93 -3 -131 -28z" />
<ns0:path d="M1323 1452 c-28 -10 -62 -26 -75 -35 -12 -10 -41 -30 -63 -45 -62 -42 -118 -85 -135 -104 -36 -40 -101 -86 -117 -82 -11 3 -37 -14 -70 -45 l-53 -49 -1 -159 c-2 -246 -6 -290 -34 -360 -28 -71 -24 -96 21 -113 34 -13 50 -4 85 50 17 27 51 62 74 79 24 17 56 45 72 61 15 17 65 53 111 81 137 83 258 119 290 87 17 -17 15 -69 -6 -99 -57 -86 -75 -109 -123 -156 -66 -64 -147 -108 -224 -122 -68 -13 -75 -8 -75 52 0 30 -4 37 -20 37 -12 0 -26 -12 -36 -32 -14 -27 -15 -39 -5 -84 7 -28 20 -59 29 -67 30 -28 92 -31 163 -9 114 36 144 53 241 134 65 54 133 176 159 284 11 46 10 56 -7 90 -15 28 -34 46 -68 62 -45 22 -52 23 -124 11 -47 -7 -95 -22 -122 -37 -80 -47 -98 -57 -140 -80 -24 -13 -68 -44 -99 -68 -49 -38 -56 -42 -59 -25 -2 10 4 36 12 56 9 21 16 46 16 56 0 15 7 19 38 19 87 0 135 25 228 118 75 75 195 239 244 332 19 36 19 158 0 170 -23 15 -69 11 -127 -8z m32 -124 c-4 -13 -20 -36 -35 -53 -15 -16 -43 -55 -61 -85 -18 -30 -61 -84 -95 -120 -35 -36 -72 -78 -84 -93 -25 -31 -96 -71 -115 -64 -8 4 -13 26 -13 62 0 49 4 61 31 93 18 20 37 40 44 45 6 4 35 32 65 63 29 30 80 72 113 92 33 19 73 46 88 59 38 31 71 31 62 1z" />
</ns0:g>
</g></svg>