<?xml version='1.0' encoding='utf-8'?>
<svg xmlns:ns0="http://www.w3.org/2000/svg" xmlns="http://www.w3.org/2000/svg" width="235" height="121" viewBox="0 0 235 121"><g transform="translate(-0.42413616232227014,-102.56730894798402) scale(0.051068870680077885)"><ns0:metadata>
Created by potrace 1.16, written by Peter Selinger 2001-2019
</ns0:metadata>
<ns0:g transform="translate(0.000000,212.000000) scale(0.100000,-0.100000)" fill="#000000" stroke="none">
<ns0:path d="M911 1561 c-36 -36 -27 -59 32 -86 28 -14 58 -25 65 -25 22 0 97 -56 111 -83 35 -66 -27 -206 -136 -304 -71 -64 -113 -93 -138 -93 -9 0 -9 16 2 72 19 100 -6 455 -34 475 -19 15 -50 8 -75 -16 -19 -19 -34 -150 -31 -276 7 -286 8 -626 1 -715 -9 -117 -1 -151 38 -169 33 -15 60 3 68 43 4 17 6 123 6 236 0 113 -1 215 0 228 0 18 15 29 83 61 45 21 99 53 119 72 20 19 50 44 66 56 16 12 37 38 46 57 9 19 21 38 26 41 6 3 15 26 21 51 6 24 15 44 19 44 13 0 25 60 21 105 -4 48 -34 110 -70 146 -86 85 -197 123 -240 80z" />
</ns0:g>
</g><g transform="translate(-2.608002744173916,32.13703032902595) scale(0.051068870680077885)"><ns0:metadata>
Created by potrace 1.16, written by Peter Selinger 2001-2019
</ns0:metadata>
<ns0:g transform="translate(0.000000,209.000000) scale(0.100000,-0.100000)" fill="#000000" stroke="none">
<ns0:path d="M1227 1316 c-26 -8 -70 -26 -98 -41 -34 -17 -60 -24 -77 -21 -15 3 -34 0 -42 -7 -37 -30 -91 -121 -158 -267 -12 -25 -30 -61 -41 -80 -52 -89 -161 -331 -174 -385 -20 -80 -21 -177 -4 -217 8 -18 20 -48 27 -66 7 -18 27 -42 44 -54 17 -12 36 -29 42 -36 7 -10 29 -14 65 -14 45 0 67 8 132 44 92 52 227 173 290 260 26 35 60 81 77 103 113 147 138 198 160 328 20 120 7 313 -25 382 -14 29 -31 58 -38 63 -21 18 -128 22 -180 8z m135 -114 c18 -46 30 -240 18 -302 -19 -101 -33 -145 -50 -165 -10 -11 -25 -33 -34 -50 -22 -41 -38 -64 -61 -92 -10 -13 -37 -50 -60 -82 -48 -71 -189 -200 -262 -241 -71 -40 -103 -39 -142 5 -17 20 -34 48 -38 63 -13 52 21 200 71 305 25 53 46 100 46 103 0 13 35 81 58 112 13 17 37 56 53 85 16 28 37 68 48 88 20 36 138 139 159 139 6 0 25 13 43 29 37 34 95 52 122 39 10 -5 23 -21 29 -36z" />
</ns0:g>
</g><g transform="translate(2.7288521249417954,184.40975241012325) scale(0.051068870680077885)"><ns0:metadata>
Created by potrace 1.16, written by Peter Selinger 2001-2019
</ns0:metadata>
<ns0:g transform="translate(0.000000,208.000000) scale(0.100000,-0.100000)" fill="#000000" stroke="none">
<ns0:path d="M1273 1433 c-13 -13 -35 -23 -48 -23 -25 0 -55 -21 -119 -86 -80 -79 -150 -226 -161 -336 -4 -35 -12 -79 -20 -98 -35 -95 -90 -375 -82 -428 10 -78 32 -111 92 -137 65 -29 111 -27 178 7 134 69 234 183 296 338 17 41 35 83 41 93 18 31 58 169 80 277 30 147 41 266 29 316 -10 37 -50 94 -67 94 -195 6 -194 6 -219 -17z m181 -86 c15 -11 17 -24 13 -83 -6 -93 -33 -233 -63 -323 -13 -40 -24 -77 -24 -82 0 -5 -13 -38 -30 -72 -16 -35 -30 -73 -30 -84 0 -11 -16 -40 -35 -64 -19 -24 -35 -49 -35 -54 0 -18 -74 -91 -130 -127 -76 -49 -114 -55 -147 -22 -24 24 -25 29 -18 102 3 42 17 120 30 172 13 52 33 140 43 195 32 159 72 248 132 290 15 11 61 47 101 80 40 33 82 65 93 72 28 16 78 16 100 0z" />
</ns0:g>
</g><g transform="translate(0.7662156387623895,331.3246769585899) scale(0.051068870680077885)"><ns0:metadata>
Created by potrace 1.16, written by Peter Selinger 2001-2019
</ns0:metadata>
<ns0:g transform="translate(0.000000,212.000000) scale(0.100000,-0.100000)" fill="#000000" stroke="none">
<ns0:path d="M793 1761 c-31 -20 -50 -34 -108 -83 -18 -16 -37 -28 -42 -28 -19 0 -51 -46 -55 -80 -3 -19 -12 -62 -21 -95 -9 -33 -18 -100 -20 -150 -3 -49 -16 -147 -31 -218 -14 -70 -30 -173 -36 -230 -11 -114 -55 -277 -105 -392 -35 -80 -24 -115 39 -115 28 0 34 5 48 38 47 109 103 303 118 407 20 142 48 207 94 221 19 6 76 54 174 146 18 17 58 65 89 106 55 71 58 77 61 141 4 82 -22 175 -84 306 -16 34 -24 40 -54 43 -21 1 -47 -5 -67 -17z m44 -112 c6 -13 26 -63 43 -110 38 -103 36 -124 -20 -208 -38 -56 -203 -221 -223 -221 -5 0 -7 18 -3 43 3 23 10 92 16 152 6 61 22 154 35 208 14 54 25 100 25 103 0 9 94 64 105 61 5 -2 15 -14 22 -28z" />
<ns0:path d="M623 816 l-28 -25 20 -37 c17 -30 35 -43 110 -76 50 -22 101 -46 115 -53 14 -8 41 -22 60 -32 19 -9 44 -25 55 -34 11 -9 37 -22 58 -29 20 -6 43 -17 50 -24 34 -33 105 -86 115 -86 6 0 15 -6 19 -12 29 -47 143 -85 218 -74 36 6 47 13 64 42 36 61 22 84 -41 66 -45 -12 -120 12 -156 50 -15 15 -30 28 -34 28 -9 0 -132 71 -138 81 -3 4 -30 19 -60 33 -67 32 -125 64 -165 92 -17 11 -46 27 -65 34 -19 8 -61 29 -92 47 -31 18 -61 33 -67 33 -5 0 -23 -11 -38 -24z" />
</ns0:g>
</g><g transform="translate(-2.8616049893671516,476.2580269286801) scale(0.051068870680077885)"><ns0:metadata>
Created by potrace 1.16, written by Peter Selinger 2001-2019
</ns0:metadata>
<ns0:g transform="translate(0.000000,207.000000) scale(0.100000,-0.100000)" fill="#000000" stroke="none">
<ns0:path d="M1000 1675 c-93 -16 -105 -21 -124 -50 -8 -13 -31 -28 -51 -35 -19 -6 -40 -20 -45 -30 -12 -22 -12 -171 0 -290 17 -170 31 -612 20 -645 -12 -37 -80 -108 -80 -83 0 8 7 21 15 28 19 16 20 60 1 60 -14 0 -87 -74 -105 -107 -27 -52 -42 -113 -31 -133 26 -48 85 -53 132 -9 18 16 46 40 61 52 73 58 225 278 259 377 11 30 35 88 54 128 19 41 34 77 34 81 0 3 9 23 20 44 11 21 31 81 45 135 62 249 61 392 -6 463 -31 34 -70 36 -199 14z m140 -95 c27 -17 19 -196 -14 -310 -15 -52 -31 -108 -35 -125 -5 -16 -26 -66 -48 -110 -22 -44 -45 -98 -52 -120 -19 -61 -64 -149 -79 -153 -11 -4 -13 47 -8 284 7 349 6 333 18 415 8 57 14 69 39 88 17 13 33 21 35 18 2 -2 30 2 62 8 31 7 59 13 62 14 3 0 12 -4 20 -9z" />
</ns0:g>
</g><g transform="translate(1.587909344358252,637.1808823558455) scale(0.051068870680077885)"><ns0:metadata>
Created by potrace 1.16, written by Peter Selinger 2001-2019
</ns0:metadata>
<ns0:g transform="translate(0.000000,206.000000) scale(0.100000,-0.100000)" fill="#000000" stroke="none">
<ns0:path d="M832 1494 c-13 -9 -22 -26 -22 -40 0 -26 -5 -26 -57 -7 -25 10 -43 -44 -53 -157 -5 -63 -17 -158 -26 -210 -37 -223 -43 -284 -33 -329 21 -93 91 -146 174 -130 49 9 156 79 198 129 52 61 65 320 25 491 -12 52 -21 118 -20 148 2 72 -9 88 -63 97 -25 3 -45 10 -45 15 0 15 -54 10 -78 -7z m63 -98 c10 4 15 0 15 -15 0 -12 12 -79 28 -149 30 -141 34 -248 13 -350 -12 -53 -20 -67 -52 -93 -48 -38 -101 -54 -129 -39 -17 9 -20 20 -19 73 0 61 3 81 32 247 8 47 20 137 27 200 14 145 13 142 45 130 13 -5 32 -7 40 -4z" />
</ns0:g>
</g><g transform="translate(1.519939124002235,784.2582497202218) scale(0.051068870680077885)"><ns0:metadata>
Created by potrace 1.16, written by Peter Selinger 2001-2019
</ns0:metadata>
<ns0:g transform="translate(0.000000,214.000000) scale(0.100000,-0.100000)" fill="#000000" stroke="none">
<ns0:path d="M1315 1450 c-3 -5 -22 -10 -41 -10 -19 0 -42 -4 -52 -9 -31 -16 -86 -30 -144 -36 -67 -8 -118 -36 -118 -65 0 -23 45 -70 67 -70 7 0 29 6 47 14 18 7 55 18 82 24 27 6 58 14 68 18 23 9 23 9 -38 -224 -47 -181 -52 -247 -26 -342 16 -57 25 -66 57 -54 l28 9 6 125 c7 138 24 211 94 400 54 146 60 185 34 211 -20 20 -54 25 -64 9z" />
</ns0:g>
</g><g transform="translate(-2.5222769965698717,923.7595447712549) scale(0.051068870680077885)"><ns0:metadata>
Created by potrace 1.16, written by Peter Selinger 2001-2019
</ns0:metadata>
<ns0:g transform="translate(0.000000,208.000000) scale(0.100000,-0.100000)" fill="#000000" stroke="none">
<ns0:path d="M912 1298 c-29 -8 -72 -53 -72 -77 0 -10 61 -61 74 -61 4 0 22 12 41 26 24 18 43 24 66 22 48 -5 55 -24 42 -112 -17 -121 -150 -366 -198 -366 -12 0 -24 -9 -102 -76 -48 -40 -56 -79 -25 -107 26 -24 59 -21 96 9 173 141 192 152 346 204 115 39 130 47 130 65 0 27 -86 22 -193 -12 -44 -13 -82 -22 -85 -18 -5 5 19 57 57 125 10 17 23 48 45 102 8 20 17 65 21 101 6 54 4 70 -14 106 -30 58 -72 82 -142 79 -30 -1 -69 -6 -87 -10z" />
</ns0:g>
</g><g transform="translate(0.12792921207136487,1066.6006548079317) scale(0.051068870680077885)"><ns0:metadata>
Created by potrace 1.16, written by Peter Selinger 2001-2019
</ns0:metadata>
<ns0:g transform="translate(0.000000,213.000000) scale(0.100000,-0.100000)" fill="#000000" stroke="none">
<ns0:path d="M1097 1492 c-10 -10 -17 -22 -17 -26 0 -5 -6 -22 -14 -39 -8 -18 -24 -61 -35 -97 -26 -84 -40 -126 -61 -175 -10 -22 -21 -51 -25 -65 -4 -14 -20 -53 -36 -86 -20 -45 -34 -63 -52 -68 -31 -7 -44 -36 -23 -52 20 -14 20 -32 0 -101 -33 -113 -3 -192 93 -247 l63 -36 37 19 c118 61 197 312 132 418 -21 34 -33 40 -44 23 -4 -7 -12 -7 -25 0 -10 5 -28 10 -40 10 -28 0 -34 22 -17 62 8 18 24 60 36 93 12 33 28 74 36 90 7 17 21 52 31 78 9 26 21 50 25 53 5 3 9 16 9 28 0 13 9 35 20 49 28 35 26 65 -6 77 -38 15 -69 12 -87 -8z m-13 -618 c9 -8 16 -25 16 -37 -1 -31 -53 -145 -86 -186 l-27 -34 -29 32 c-31 35 -32 61 -7 151 25 87 28 90 74 90 26 0 50 -6 59 -16z" />
</ns0:g>
</g><g transform="translate(-1.2378023752854688,1207.1480415696776) scale(0.051068870680077885)"><ns0:metadata>
Created by potrace 1.16, written by Peter Selinger 2001-2019
</ns0:metadata>
<ns0:g transform="translate(0.000000,214.000000) scale(0.100000,-0.100000)" fill="#000000" stroke="none">
<ns0:path d="M993 1569 c-34 -4 -71 -12 -82 -18 -11 -6 -28 -11 -38 -11 -26 -1 -88 -58 -112 -105 -18 -34 -21 -57 -21 -168 0 -146 9 -177 68 -228 28 -25 41 -30 68 -26 18 3 34 3 37 1 9 -9 -41 -188 -83 -294 -25 -63 -48 -145 -61 -214 -13 -73 0 -92 54 -82 26 5 38 14 47 36 6 16 9 33 6 39 -7 10 13 83 39 151 8 19 19 55 26 80 6 25 24 73 40 108 16 35 29 68 29 74 0 6 13 54 30 107 16 53 32 116 36 141 7 43 14 59 69 155 13 22 29 67 36 99 13 59 13 59 -14 80 -15 12 -27 27 -27 32 0 14 -35 46 -42 38 -4 -3 -15 -2 -25 3 -10 5 -46 6 -80 2z m19 -84 c6 -6 -15 -146 -30 -200 -6 -22 -14 -57 -17 -77 -6 -37 -61 -98 -89 -98 -43 0 -56 220 -17 283 36 58 130 115 153 92z" />
</ns0:g>
</g><g transform="translate(-1.9477256447929676,1356.3355478860801) scale(0.051068870680077885)"><ns0:metadata>
Created by potrace 1.16, written by Peter Selinger 2001-2019
</ns0:metadata>
<ns0:g transform="translate(0.000000,213.000000) scale(0.100000,-0.100000)" fill="#000000" stroke="none">
<ns0:path d="M1116 1428 c-8 -13 -17 -48 -21 -78 -7 -58 -48 -223 -95 -380 -56 -189 -63 -216 -68 -276 -4 -53 -1 -66 19 -95 81 -114 179 -123 272 -25 65 69 147 176 147 192 0 7 -4 16 -10 19 -5 3 -10 17 -10 30 0 15 -11 32 -32 46 -27 19 -47 24 -121 26 -49 1 -92 4 -95 7 -3 3 0 23 6 43 6 21 19 65 28 98 9 33 25 83 35 110 26 70 59 204 59 242 0 41 -23 63 -65 63 -25 0 -39 -6 -49 -22z m80 -628 c11 0 29 -6 39 -14 18 -13 18 -14 0 -42 -42 -65 -107 -124 -136 -124 -52 0 -72 59 -49 142 9 33 15 37 48 41 20 2 46 3 57 1 11 -2 29 -4 41 -4z" />
</ns0:g>
</g></svg>