<?xml version='1.0' encoding='utf-8'?>
<svg xmlns:ns0="http://www.w3.org/2000/svg" xmlns="http://www.w3.org/2000/svg" width="249" height="109" viewBox="0 0 249 109"><g transform="translate(2.7060352637631695,-87.09671887253809) scale(0.0460041892903181)"><ns0:metadata>
Created by potrace 1.16, written by Peter Selinger 2001-2019
</ns0:metadata>
<ns0:g transform="translate(0.000000,206.000000) scale(0.100000,-0.100000)" fill="#000000" stroke="none">
<ns0:path d="M991 1674 c-61 -26 -70 -43 -136 -279 -9 -33 -25 -85 -35 -115 -10 -30 -33 -109 -51 -175 -18 -66 -43 -135 -55 -154 -16 -23 -21 -43 -17 -65 3 -20 -4 -51 -21 -89 -14 -32 -26 -64 -26 -71 0 -8 -12 -37 -27 -66 -21 -41 -25 -56 -17 -78 12 -34 40 -38 81 -13 31 20 52 67 56 125 0 11 11 40 24 63 13 23 23 48 23 56 0 33 36 58 105 74 39 8 79 22 90 29 11 8 25 14 33 14 7 0 18 4 25 10 76 61 72 56 51 68 -15 8 -40 6 -99 -8 -84 -20 -145 -25 -145 -12 0 20 39 161 49 181 16 29 41 111 41 134 0 9 9 39 21 65 50 113 52 114 69 40 7 -29 21 -64 31 -77 11 -13 19 -31 19 -39 0 -9 9 -41 19 -71 53 -155 100 -346 101 -404 0 -21 4 -46 10 -56 5 -10 12 -54 16 -98 6 -67 4 -84 -11 -107 -17 -25 -17 -27 0 -46 26 -28 56 -25 87 11 30 33 31 51 9 202 -6 42 -16 112 -22 154 -16 113 -130 516 -175 622 -14 31 -17 33 -50 28 -29 -5 -35 -3 -32 11 2 10 14 18 30 20 22 3 27 9 33 43 8 45 -2 63 -44 77 -20 7 -37 6 -60 -4z" />
</ns0:g>
</g><g transform="translate(0.12497558996227554,19.808182345541468) scale(0.0460041892903181)"><ns0:metadata>
Created by potrace 1.16, written by Peter Selinger 2001-2019
</ns0:metadata>
<ns0:g transform="translate(0.000000,204.000000) scale(0.100000,-0.100000)" fill="#000000" stroke="none">
<ns0:path d="M0 1020 c0 -703 3 -1020 10 -1020 8 0 10 315 9 1020 -1 561 -6 1020 -11 1020 -4 0 -8 -459 -8 -1020z" />
<ns0:path d="M1152 960 c-12 -12 -22 -33 -22 -48 0 -63 44 -170 99 -239 23 -29 32 -33 72 -33 48 0 79 21 79 54 0 9 -25 40 -55 68 -36 33 -55 59 -55 74 0 12 -4 26 -10 29 -5 3 -14 25 -20 48 -18 66 -49 83 -88 47z" />
</ns0:g>
</g><g transform="translate(1.4562156715979313,172.2535961545325) scale(0.0460041892903181)"><ns0:metadata>
Created by potrace 1.16, written by Peter Selinger 2001-2019
</ns0:metadata>
<ns0:g transform="translate(0.000000,207.000000) scale(0.100000,-0.100000)" fill="#000000" stroke="none">
<ns0:path d="M1176 1670 c-26 -11 -80 -26 -120 -35 -54 -12 -82 -25 -117 -55 -46 -39 -47 -39 -64 -20 -21 23 -63 26 -88 7 -15 -10 -21 -53 -37 -272 -11 -143 -27 -312 -36 -375 -17 -119 -22 -193 -23 -342 l-1 -86 -45 -18 c-32 -12 -45 -22 -43 -33 3 -12 16 -16 58 -17 30 0 63 -4 72 -8 26 -12 52 -3 63 21 6 15 36 32 97 55 66 24 102 45 141 81 28 27 71 62 94 79 51 37 147 156 173 212 21 47 40 132 40 180 0 44 -55 108 -108 125 -21 7 -62 12 -91 10 -51 -4 -52 -4 -46 21 3 14 28 46 55 72 28 25 50 53 50 61 0 8 15 29 34 45 20 17 50 63 71 107 31 67 35 86 33 139 l-3 61 -55 1 c-33 1 -75 -6 -104 -16z m60 -94 c6 -16 -68 -131 -143 -220 -55 -66 -88 -117 -128 -193 -44 -84 21 -114 188 -87 52 9 87 -15 87 -59 0 -39 -60 -160 -109 -219 -54 -66 -191 -187 -236 -210 -22 -11 -53 -30 -69 -41 l-28 -20 4 169 c3 93 15 237 26 319 12 83 26 188 33 235 37 271 29 249 90 234 18 -4 36 2 64 20 21 14 43 26 50 26 7 0 18 7 25 15 7 8 22 15 34 16 11 0 37 6 56 13 47 18 50 18 56 2z" />
</ns0:g>
</g><g transform="translate(1.0564900849819878,306.90331281456713) scale(0.0460041892903181)"><ns0:metadata>
Created by potrace 1.16, written by Peter Selinger 2001-2019
</ns0:metadata>
<ns0:g transform="translate(0.000000,203.000000) scale(0.100000,-0.100000)" fill="#000000" stroke="none">
<ns0:path d="M1253 873 c-13 -2 -32 -16 -44 -31 -16 -21 -19 -35 -14 -67 3 -22 12 -47 20 -56 8 -8 15 -19 15 -23 0 -4 18 -33 40 -63 22 -31 40 -60 40 -64 0 -5 19 -26 43 -48 30 -29 48 -39 62 -34 29 8 29 9 31 69 2 48 -4 67 -42 140 -24 46 -44 91 -44 100 0 16 -65 85 -78 83 -4 -1 -17 -4 -29 -6z" />
</ns0:g>
</g><g transform="translate(0.5420266034200836,449.4358480604744) scale(0.0460041892903181)"><ns0:metadata>
Created by potrace 1.16, written by Peter Selinger 2001-2019
</ns0:metadata>
<ns0:g transform="translate(0.000000,208.000000) scale(0.100000,-0.100000)" fill="#000000" stroke="none">
<ns0:path d="M1226 1490 c-16 -10 -33 -17 -37 -15 -6 4 -35 -5 -104 -34 -18 -8 -37 -13 -122 -36 -13 -4 -23 -11 -23 -17 0 -6 -15 -30 -34 -52 -39 -48 -60 -93 -82 -180 -9 -34 -19 -65 -24 -71 -18 -23 -42 -119 -42 -171 -1 -81 38 -125 137 -155 49 -14 154 -14 168 0 6 6 21 11 33 11 45 0 132 42 181 88 59 57 118 129 127 158 8 26 -2 54 -18 54 -12 0 -88 -65 -167 -142 -21 -21 -44 -38 -51 -38 -7 0 -40 -9 -72 -20 -102 -35 -180 -20 -220 42 -14 22 -13 32 21 133 59 182 63 191 111 243 39 41 57 52 102 62 30 7 66 23 80 35 14 13 45 31 70 41 59 22 64 28 56 58 -8 32 -46 34 -90 6z" />
</ns0:g>
</g><g transform="translate(1.5649345052705712,574.7703434865925) scale(0.0460041892903181)"><ns0:metadata>
Created by potrace 1.16, written by Peter Selinger 2001-2019
</ns0:metadata>
<ns0:g transform="translate(0.000000,214.000000) scale(0.100000,-0.100000)" fill="#000000" stroke="none">
<ns0:path d="M1216 1463 c-59 -63 -96 -116 -96 -137 0 -12 -13 -49 -30 -82 -36 -75 -47 -122 -55 -250 l-7 -100 46 -85 c25 -46 52 -98 59 -114 8 -17 29 -39 48 -49 35 -18 35 -18 84 5 64 31 92 68 75 99 -11 20 -17 22 -61 16 -48 -7 -49 -6 -66 28 -76 147 -76 147 -70 211 9 92 63 246 120 343 41 70 46 101 19 125 -25 23 -37 21 -66 -10z" />
</ns0:g>
</g><g transform="translate(-1.7068289482956516,703.7546717311301) scale(0.0460041892903181)"><ns0:metadata>
Created by potrace 1.16, written by Peter Selinger 2001-2019
</ns0:metadata>
<ns0:g transform="translate(0.000000,206.000000) scale(0.100000,-0.100000)" fill="#000000" stroke="none">
<ns0:path d="M988 1436 c-15 -8 -48 -14 -74 -14 -25 0 -51 -5 -56 -10 -6 -6 -17 -59 -24 -119 -8 -59 -23 -135 -34 -168 -22 -70 -41 -285 -30 -341 10 -50 18 -70 48 -118 23 -38 25 -38 73 -34 40 4 61 15 121 61 115 88 187 166 238 261 20 35 21 45 12 115 -20 149 -54 229 -119 275 -24 16 -45 37 -48 45 -4 13 -66 61 -77 61 -2 0 -15 -6 -30 -14z m39 -113 c65 -64 93 -107 117 -180 14 -43 26 -89 26 -102 0 -54 -117 -195 -204 -246 -90 -52 -106 -14 -76 175 12 74 23 146 25 160 8 53 33 142 44 153 6 6 11 21 11 32 0 43 19 45 57 8z" />
</ns0:g>
</g><g transform="translate(-0.5852150550408624,836.4486034527333) scale(0.0460041892903181)"><ns0:metadata>
Created by potrace 1.16, written by Peter Selinger 2001-2019
</ns0:metadata>
<ns0:g transform="translate(0.000000,210.000000) scale(0.100000,-0.100000)" fill="#000000" stroke="none">
<ns0:path d="M1248 963 c-59 -16 -138 -78 -138 -110 0 -9 16 -31 35 -49 l35 -33 -16 -40 c-48 -120 70 -135 147 -20 60 90 60 90 54 154 -5 56 -28 106 -51 111 -5 1 -35 -5 -66 -13z" />
</ns0:g>
</g><g transform="translate(-0.7074923609871462,957.8449690685313) scale(0.0460041892903181)"><ns0:metadata>
Created by potrace 1.16, written by Peter Selinger 2001-2019
</ns0:metadata>
<ns0:g transform="translate(0.000000,206.000000) scale(0.100000,-0.100000)" fill="#000000" stroke="none">
<ns0:path d="M1199 1320 c-33 -17 -38 -26 -53 -87 -9 -37 -20 -99 -26 -138 -13 -100 -45 -249 -69 -325 -12 -36 -21 -79 -21 -97 0 -18 -6 -52 -14 -75 -8 -24 -17 -61 -21 -83 -3 -22 -8 -50 -11 -62 -3 -17 2 -23 27 -28 57 -13 78 27 120 230 10 50 27 119 37 155 11 36 30 112 42 170 13 58 29 112 36 120 6 8 15 33 19 55 3 22 14 48 22 57 18 20 13 48 -17 96 -23 37 -23 37 -71 12z" />
</ns0:g>
</g><g transform="translate(-1.34232996596387,1097.9600732244073) scale(0.0460041892903181)"><ns0:metadata>
Created by potrace 1.16, written by Peter Selinger 2001-2019
</ns0:metadata>
<ns0:g transform="translate(0.000000,208.000000) scale(0.100000,-0.100000)" fill="#000000" stroke="none">
<ns0:path d="M985 1344 c-18 -20 -38 -56 -45 -82 -7 -26 -21 -67 -33 -92 -57 -127 -67 -153 -65 -163 1 -7 -2 -36 -6 -65 -14 -90 32 -146 116 -142 65 4 70 -2 44 -52 -18 -34 -29 -85 -21 -97 12 -21 45 7 96 82 32 48 63 83 78 88 15 5 34 14 43 19 10 6 28 10 40 10 12 0 49 9 83 21 66 22 102 61 90 99 -10 31 -36 32 -121 5 -130 -41 -131 -41 -85 101 34 105 80 188 107 193 10 1 34 14 52 28 25 19 32 31 30 51 -3 23 -7 27 -33 25 -145 -10 -156 -15 -186 -81 -36 -80 -79 -213 -95 -291 -8 -41 -16 -76 -18 -78 -8 -9 -63 -10 -84 -2 -21 8 -23 13 -17 52 10 71 109 284 140 301 31 17 42 36 37 66 -4 30 -23 40 -81 40 -26 0 -41 -8 -66 -36z" />
</ns0:g>
</g><g transform="translate(-1.2300623976344696,1239.6905633009515) scale(0.0460041892903181)"><ns0:metadata>
Created by potrace 1.16, written by Peter Selinger 2001-2019
</ns0:metadata>
<ns0:g transform="translate(0.000000,210.000000) scale(0.100000,-0.100000)" fill="#000000" stroke="none">
<ns0:path d="M1689 1316 c-35 -35 -43 -46 -119 -159 -38 -56 -84 -120 -103 -142 -32 -36 -37 -39 -63 -30 -32 12 -90 84 -127 159 -23 47 -56 80 -82 82 -5 0 -22 6 -37 14 -38 18 -108 5 -157 -30 -22 -17 -45 -30 -49 -30 -5 0 -34 -24 -65 -52 -52 -48 -57 -57 -57 -94 0 -34 4 -43 25 -52 14 -7 30 -12 34 -12 5 0 47 38 93 85 68 69 90 85 114 85 45 0 72 -25 110 -104 19 -39 40 -78 47 -86 21 -28 107 -69 158 -76 l48 -6 57 58 c31 33 65 79 76 103 10 24 31 62 46 85 15 23 38 64 51 91 13 28 30 58 38 67 16 18 14 59 -3 65 -6 2 -21 -7 -35 -21z" />
</ns0:g>
</g><g transform="translate(2.759219713293419,1357.0535992964287) scale(0.0460041892903181)"><ns0:metadata>
Created by potrace 1.16, written by Peter Selinger 2001-2019
</ns0:metadata>
<ns0:g transform="translate(0.000000,206.000000) scale(0.100000,-0.100000)" fill="#000000" stroke="none">
<ns0:path d="M1020 1511 c-17 -5 -26 -16 -30 -36 -3 -18 -15 -34 -28 -41 -44 -22 -55 -57 -90 -299 -21 -148 -20 -340 3 -365 8 -9 15 -26 15 -39 0 -12 6 -37 14 -56 19 -46 54 -54 109 -27 23 11 65 24 92 27 62 9 71 16 102 80 79 163 90 203 94 340 6 233 -3 325 -33 325 -6 0 -27 14 -49 31 -21 16 -55 33 -76 36 -21 3 -47 12 -58 19 -21 15 -27 16 -65 5z m115 -114 c60 -34 66 -55 66 -225 0 -142 -11 -210 -40 -246 -5 -6 -14 -29 -21 -50 -19 -58 -62 -96 -109 -96 -37 0 -39 1 -55 53 -17 53 -16 54 18 213 19 87 40 180 46 206 7 26 9 56 5 67 -3 10 -1 22 5 26 5 3 10 22 10 41 0 41 17 44 75 11z" />
</ns0:g>
</g><g transform="translate(2.9293410666287514,1489.2567899143598) scale(0.0460041892903181)"><ns0:metadata>
Created by potrace 1.16, written by Peter Selinger 2001-2019
</ns0:metadata>
<ns0:g transform="translate(0.000000,210.000000) scale(0.100000,-0.100000)" fill="#000000" stroke="none">
<ns0:path d="M1210 915 c-14 -7 -33 -16 -43 -19 -40 -13 -65 -149 -32 -176 8 -7 15 -18 15 -24 0 -7 13 -25 29 -40 28 -27 29 -27 67 -11 49 20 71 41 96 89 31 60 20 107 -34 156 -47 43 -61 46 -98 25z" />
</ns0:g>
</g><g transform="translate(1.5823310603302616,1616.198423545994) scale(0.0460041892903181)"><ns0:metadata>
Created by potrace 1.16, written by Peter Selinger 2001-2019
</ns0:metadata>
<ns0:g transform="translate(0.000000,205.000000) scale(0.100000,-0.100000)" fill="#000000" stroke="none">
<ns0:path d="M802 1318 c-45 -67 -75 -135 -68 -153 5 -14 9 -15 21 -5 12 10 15 10 15 -3 0 -9 -4 -27 -10 -41 -5 -14 -16 -76 -25 -138 -17 -125 -33 -223 -41 -251 -5 -15 -8 -16 -20 -6 -29 24 -38 -4 -24 -78 21 -111 57 -151 107 -118 25 17 27 22 42 145 23 192 62 413 78 443 9 18 20 52 24 77 4 25 10 62 14 82 4 20 5 48 1 62 -5 22 -12 26 -46 26 -35 0 -42 -5 -68 -42z" />
</ns0:g>
</g><g transform="translate(-1.6797494134361273,1733.287069640104) scale(0.0460041892903181)"><ns0:metadata>
Created by potrace 1.16, written by Peter Selinger 2001-2019
</ns0:metadata>
<ns0:g transform="translate(0.000000,208.000000) scale(0.100000,-0.100000)" fill="#000000" stroke="none">
<ns0:path d="M958 1305 c-16 -9 -29 -21 -29 -28 -2 -24 3 -42 17 -58 8 -8 17 -37 20 -62 5 -38 3 -51 -11 -67 -15 -16 -15 -22 -5 -35 12 -15 9 -139 -6 -266 -8 -66 20 -95 103 -108 35 -5 78 -7 98 -4 54 9 45 -21 -27 -90 -73 -69 -172 -147 -186 -147 -6 0 -12 -4 -14 -9 -3 -7 -36 -27 -165 -97 -43 -23 -88 -40 -133 -48 -94 -18 -103 -23 -78 -44 19 -15 209 20 293 55 39 16 95 45 125 64 30 20 70 42 88 49 17 7 32 16 32 21 0 5 5 9 11 9 6 0 29 16 50 35 22 19 45 35 53 35 16 0 65 58 90 107 20 40 22 136 2 152 -14 12 -165 8 -198 -4 -8 -3 -20 1 -27 9 -10 12 -9 39 4 133 17 128 20 132 96 173 20 10 44 31 53 45 9 14 34 33 54 43 57 25 72 42 72 78 0 71 -26 82 -95 39 -50 -30 -63 -31 -67 -2 -3 20 -9 22 -58 23 -30 1 -73 5 -95 8 -27 4 -49 1 -67 -9z m183 -79 c-29 -30 -58 -39 -66 -19 -9 24 14 43 53 43 l35 0 -22 -24z" />
</ns0:g>
</g><g transform="translate(-2.093099856644301,1879.70115228789) scale(0.0460041892903181)"><ns0:metadata>
Created by potrace 1.16, written by Peter Selinger 2001-2019
</ns0:metadata>
<ns0:g transform="translate(0.000000,206.000000) scale(0.100000,-0.100000)" fill="#000000" stroke="none">
<ns0:path d="M846 1516 c-7 -6 -17 -24 -20 -40 -10 -42 14 -70 76 -91 113 -36 145 -88 133 -214 -14 -142 -60 -244 -146 -328 -35 -34 -80 -73 -99 -86 -59 -39 -160 -140 -160 -159 0 -26 36 -58 64 -58 16 0 44 20 82 58 33 31 88 82 123 112 145 124 182 176 212 297 23 97 25 249 4 319 -18 58 -56 104 -105 129 -19 9 -48 27 -65 40 -36 27 -80 36 -99 21z" />
</ns0:g>
</g><g transform="translate(-1.7188441498111047,1997.7971512535128) scale(0.0460041892903181)"><ns0:metadata>
Created by potrace 1.16, written by Peter Selinger 2001-2019
</ns0:metadata>
<ns0:g transform="translate(0.000000,209.000000) scale(0.100000,-0.100000)" fill="#000000" stroke="none">
<ns0:path d="M855 1350 c-4 -6 -10 -8 -15 -5 -19 12 -80 -25 -103 -62 -13 -21 -32 -45 -41 -52 -10 -8 -24 -28 -33 -45 -8 -17 -32 -55 -52 -85 -35 -53 -36 -53 -39 -25 -2 16 -8 46 -13 67 -9 34 -13 37 -44 37 -38 0 -58 -22 -69 -76 -5 -22 -2 -35 9 -44 9 -8 15 -29 15 -57 0 -44 -47 -259 -75 -343 -22 -66 -19 -95 11 -115 55 -36 82 -6 134 145 47 138 67 186 88 220 12 19 22 41 22 48 0 7 19 43 41 80 23 37 57 92 76 123 27 46 42 60 78 74 25 9 49 14 55 10 17 -11 11 -70 -22 -228 -24 -109 -33 -178 -33 -245 0 -101 5 -112 57 -112 23 0 32 8 52 49 19 37 32 50 54 54 35 7 96 90 87 118 -3 10 -1 20 5 24 5 3 10 0 10 -8 0 -8 7 -20 15 -27 9 -7 23 -40 32 -72 16 -57 18 -59 47 -56 29 3 31 0 40 -41 6 -29 5 -79 -3 -151 -8 -59 -10 -126 -6 -149 9 -56 57 -111 95 -111 41 0 88 43 95 88 3 20 12 49 20 64 12 24 12 30 -3 48 -17 21 -18 20 -51 -35 -19 -33 -37 -53 -42 -48 -13 13 -13 89 0 175 9 55 9 99 2 155 -5 43 -10 116 -11 162 -1 64 -7 98 -25 144 -14 33 -25 68 -25 77 0 22 -28 47 -62 55 -21 5 -29 2 -40 -15 -7 -12 -37 -33 -65 -46 -29 -13 -69 -42 -89 -64 -42 -45 -59 -51 -50 -17 15 53 28 189 22 231 -5 33 -14 50 -34 64 -32 23 -108 37 -117 22z" />
</ns0:g>
</g><g transform="translate(2.099611869620219,2132.2840556342235) scale(0.0460041892903181)"><ns0:metadata>
Created by potrace 1.16, written by Peter Selinger 2001-2019
</ns0:metadata>
<ns0:g transform="translate(0.000000,208.000000) scale(0.100000,-0.100000)" fill="#000000" stroke="none">
<ns0:path d="M1308 1716 c-10 -7 -18 -23 -18 -34 0 -11 -5 -33 -12 -49 -7 -18 -12 -120 -13 -298 -3 -419 -20 -666 -49 -724 -8 -14 -21 -56 -30 -93 -14 -56 -14 -71 -4 -88 34 -55 102 -22 111 53 2 23 14 80 26 127 27 105 52 464 52 750 0 115 4 199 10 207 16 19 23 117 10 141 -13 25 -56 29 -83 8z" />
<ns0:path d="M693 1502 c-13 -2 -31 -14 -41 -27 -16 -20 -17 -32 -10 -102 12 -109 2 -307 -22 -443 -12 -63 -25 -140 -29 -170 -5 -30 -16 -71 -24 -90 -8 -19 -21 -55 -28 -80 -7 -25 -21 -63 -31 -86 -25 -59 -15 -84 33 -84 35 0 41 4 53 33 41 93 69 185 91 301 18 92 20 96 45 96 22 0 178 95 240 146 25 21 68 52 96 70 28 18 66 51 83 73 27 34 30 43 21 61 -10 19 -13 20 -28 7 -9 -8 -48 -32 -87 -52 -38 -21 -79 -46 -91 -56 -11 -10 -47 -32 -80 -49 -32 -17 -72 -39 -89 -49 -43 -28 -69 -27 -61 2 4 12 10 93 13 180 3 87 10 160 15 163 4 3 8 18 8 34 0 16 5 32 10 35 6 3 10 19 10 34 0 23 -7 30 -37 42 -21 8 -48 13 -60 11z" />
</ns0:g>
</g></svg>