<?xml version='1.0' encoding='utf-8'?>
<svg xmlns:ns0="http://www.w3.org/2000/svg" xmlns="http://www.w3.org/2000/svg" width="235" height="115" viewBox="0 0 235 115"><g transform="translate(-0.03716511147513302,-74.36453606806492) scale(0.030590119373251824)"><ns0:metadata>
Created by potrace 1.16, written by Peter Selinger 2001-2019
</ns0:metadata>
<ns0:g transform="translate(0.000000,208.000000) scale(0.100000,-0.100000)" fill="#000000" stroke="none">
<ns0:path d="M1437 1960 c-12 -10 -31 -20 -42 -24 -12 -3 -37 -21 -56 -39 -56 -51 -166 -135 -207 -157 -165 -93 -261 -169 -293 -234 -28 -58 -25 -73 18 -87 34 -11 38 -10 55 12 55 70 116 124 217 189 34 22 83 57 111 77 66 51 121 85 128 79 6 -6 -36 -223 -49 -251 -5 -11 -19 -54 -32 -95 -30 -103 -61 -140 -115 -140 -10 0 -27 -9 -37 -20 -15 -16 -16 -22 -5 -35 11 -13 10 -21 -1 -43 -8 -17 -13 -65 -14 -136 l0 -108 -40 -34 c-22 -18 -71 -55 -110 -81 -38 -26 -86 -63 -105 -82 -19 -18 -53 -45 -75 -59 -22 -14 -44 -31 -50 -39 -10 -14 -52 -38 -120 -71 -22 -11 -46 -27 -54 -36 -7 -9 -22 -16 -32 -16 -10 0 -27 -10 -39 -22 -25 -28 -25 -18 0 32 21 41 26 70 11 70 -11 0 -41 -29 -123 -119 -42 -45 -69 -68 -72 -60 -2 8 -10 41 -17 74 -7 33 -23 83 -35 110 -26 59 -40 140 -24 150 7 4 7 12 0 26 -13 24 -87 27 -96 4 -4 -9 -11 -15 -18 -14 -39 7 -61 -36 -30 -62 14 -11 46 -74 89 -174 22 -51 43 -167 34 -191 -3 -11 -12 -37 -19 -59 -7 -22 -15 -45 -17 -52 -7 -19 35 -53 67 -53 23 0 33 7 46 33 9 17 32 51 50 74 19 23 34 47 34 54 0 8 6 7 18 -4 30 -27 75 -21 121 16 103 82 175 134 215 157 53 30 186 129 186 138 1 4 24 23 51 42 28 19 69 50 91 68 22 17 44 32 49 32 6 0 8 -49 5 -117 -2 -65 -5 -132 -5 -150 -1 -21 -10 -41 -28 -58 -27 -25 -27 -26 -9 -40 17 -13 18 -23 11 -122 -4 -59 -9 -137 -10 -173 -2 -36 -8 -78 -15 -94 -11 -29 -11 -29 -26 -8 -18 26 -46 18 -42 -12 3 -19 10 -21 81 -24 76 -3 77 -2 88 25 5 15 17 101 24 192 8 91 20 170 25 175 7 7 21 6 44 -2 19 -7 77 -16 128 -21 87 -7 103 -12 212 -66 104 -51 128 -59 192 -63 78 -5 104 5 104 38 0 19 -29 36 -77 45 -18 4 -43 15 -57 26 -14 11 -41 26 -62 35 -20 8 -53 26 -73 38 -40 26 -186 66 -238 66 -19 0 -63 7 -99 16 l-65 17 6 81 c3 44 7 126 9 181 3 55 8 108 11 118 7 16 102 95 157 130 15 9 41 29 57 45 17 15 49 41 71 57 23 17 53 40 66 52 14 13 33 27 44 33 11 6 20 19 20 30 0 26 -44 38 -68 18 -9 -7 -33 -21 -53 -30 -20 -9 -73 -45 -119 -80 -123 -94 -143 -108 -157 -108 -21 0 -22 103 -1 128 13 15 32 47 44 72 4 8 16 21 26 28 11 8 17 21 13 31 -3 10 3 29 13 42 11 13 17 30 14 38 -3 8 2 19 11 26 18 13 87 218 87 257 0 15 14 69 30 120 32 98 38 159 18 175 -19 15 -47 12 -71 -7z m-691 -1351 c8 -14 -14 -29 -33 -22 -10 4 -11 9 -2 19 14 17 25 18 35 3z" />
<ns0:path d="M1110 1521 c-28 -14 -38 -29 -52 -72 -10 -30 -24 -67 -31 -84 -8 -16 -22 -55 -32 -85 -27 -85 -122 -275 -161 -321 -19 -23 -39 -50 -44 -60 -5 -9 -23 -31 -40 -47 -53 -53 -34 -91 28 -58 58 31 175 190 249 338 26 51 54 105 64 119 27 39 79 176 79 209 0 16 5 32 10 35 6 3 10 15 10 26 0 25 -34 25 -80 0z" />
<ns0:path d="M633 1470 c-29 -12 -30 -51 -3 -88 27 -38 44 -174 35 -299 -8 -128 4 -134 59 -32 38 69 38 71 37 177 -1 124 -8 167 -27 183 -8 6 -14 19 -14 28 0 37 -39 50 -87 31z" />
<ns0:path d="M178 1146 c-32 -24 -21 -58 35 -114 l53 -52 22 20 c12 12 22 24 22 29 0 22 -35 108 -48 119 -20 16 -62 15 -84 -2z" />
<ns0:path d="M1013 700 c-26 -16 -49 -35 -131 -113 -18 -17 -54 -65 -79 -107 -26 -41 -61 -93 -77 -115 -17 -21 -35 -46 -41 -55 -36 -60 -105 -159 -114 -165 -18 -11 -13 -53 8 -60 29 -9 42 1 109 84 35 43 79 93 98 110 19 18 34 39 34 47 0 8 11 24 25 36 22 19 45 54 111 170 7 11 27 36 46 56 40 44 78 97 78 110 0 18 -39 20 -67 2z" />
</ns0:g>
</g><g transform="translate(1.4086178787899257,15.527322997691329) scale(0.030590119373251824)"><ns0:metadata>
Created by potrace 1.16, written by Peter Selinger 2001-2019
</ns0:metadata>
<ns0:g transform="translate(0.000000,211.000000) scale(0.100000,-0.100000)" fill="#000000" stroke="none">
<ns0:path d="M1717 1996 c-16 -13 -17 -21 -8 -73 35 -200 42 -436 24 -813 -7 -140 -16 -374 -19 -520 -3 -146 -7 -287 -9 -315 -2 -27 -6 -101 -10 -162 l-6 -113 65 0 65 0 3 98 c2 53 0 108 -5 122 -4 13 -5 97 -2 185 4 88 8 239 10 335 1 96 8 308 15 470 6 162 9 338 6 390 -3 52 -9 163 -12 245 -4 91 -11 153 -18 157 -18 13 -80 8 -99 -6z m93 -916 c0 -5 -2 -10 -4 -10 -3 0 -8 5 -11 10 -3 6 -1 10 4 10 6 0 11 -4 11 -10z m-53 -362 c-3 -8 -6 -5 -6 6 -1 11 2 17 5 13 3 -3 4 -12 1 -19z" />
<ns0:path d="M1170 1671 c-23 -6 -25 -12 -28 -74 -2 -41 3 -84 12 -111 30 -88 48 -281 40 -421 -4 -71 -8 -211 -9 -310 -1 -99 -6 -191 -12 -205 -5 -14 -13 -48 -17 -77 -6 -45 -4 -55 14 -73 47 -47 74 -12 96 126 8 54 17 164 19 244 2 80 7 217 10 305 6 169 -1 263 -36 450 -19 102 -39 156 -57 154 -4 -1 -18 -4 -32 -8z" />
<ns0:path d="M283 1433 c-50 -7 -59 -25 -43 -86 7 -29 16 -57 21 -63 11 -14 39 -136 33 -145 -11 -19 -148 -101 -191 -116 -81 -27 -103 -48 -103 -97 0 -36 4 -45 25 -54 36 -17 44 -15 81 13 18 14 37 25 43 25 5 0 44 27 85 60 l75 60 7 -36 c9 -49 -3 -215 -27 -364 -23 -150 -36 -203 -61 -252 -35 -70 -22 -107 40 -112 38 -3 42 -1 53 28 7 17 20 40 29 51 10 11 25 41 35 66 9 26 34 68 56 94 21 26 39 51 39 56 0 5 18 25 40 45 22 20 40 41 40 47 0 6 27 43 60 83 33 40 60 77 60 83 0 6 5 11 10 11 15 0 43 29 69 72 12 21 28 41 35 45 32 20 105 186 86 198 -4 2 -20 -13 -35 -35 -15 -21 -48 -58 -73 -83 -51 -47 -191 -198 -219 -236 -10 -13 -28 -33 -41 -45 -13 -11 -40 -42 -60 -68 -42 -56 -68 -64 -59 -18 8 38 24 217 32 351 l7 106 64 68 c35 37 64 74 64 81 0 24 -21 26 -44 5 -12 -12 -27 -21 -32 -21 -5 0 -26 -14 -47 -31 -40 -33 -36 -34 -54 21 -2 8 -7 41 -10 72 -5 55 -4 57 27 73 51 26 37 50 -30 51 -30 1 -69 -1 -87 -3z m64 -785 c-3 -8 -6 -5 -6 6 -1 11 2 17 5 13 3 -3 4 -12 1 -19z" />
<ns0:path d="M943 1370 c-35 -14 -44 -42 -32 -99 10 -49 7 -219 -6 -296 -3 -22 -17 -97 -31 -168 -28 -148 -33 -287 -9 -287 17 0 50 60 59 110 7 34 20 76 36 115 10 23 31 127 56 268 21 124 16 302 -9 341 -18 28 -29 30 -64 16z" />
</ns0:g>
</g><g transform="translate(-0.9041148932968781,103.09163437583766) scale(0.030590119373251824)"><ns0:metadata>
Created by potrace 1.16, written by Peter Selinger 2001-2019
</ns0:metadata>
<ns0:g transform="translate(0.000000,209.000000) scale(0.100000,-0.100000)" fill="#000000" stroke="none">
<ns0:path d="M1465 1968 c-33 -10 -96 -30 -140 -44 -44 -14 -91 -32 -103 -41 -25 -16 -97 -42 -201 -73 -78 -24 -210 -78 -231 -94 -8 -7 -44 -23 -80 -35 -36 -12 -101 -40 -145 -61 -44 -21 -142 -68 -217 -105 -80 -38 -142 -74 -148 -86 -17 -30 -8 -60 23 -83 26 -19 30 -19 85 -6 38 10 60 22 66 35 9 20 69 65 87 65 5 0 30 15 56 34 72 52 266 136 280 122 3 -3 1 -38 -5 -78 -6 -40 -14 -106 -18 -146 -8 -90 -35 -129 -95 -138 -21 -4 -39 -11 -39 -16 0 -5 -29 -23 -65 -39 -36 -17 -73 -41 -83 -54 -10 -13 -29 -25 -42 -27 -48 -7 -59 -40 -70 -218 -5 -91 -17 -212 -26 -268 -11 -72 -13 -107 -6 -114 14 -14 42 -3 42 17 0 8 11 32 23 53 23 35 39 91 52 177 3 22 12 78 20 125 8 47 17 102 20 123 5 29 10 37 21 33 9 -3 30 2 47 11 31 16 49 27 113 71 18 11 44 24 59 28 23 6 26 4 22 -12 -3 -11 -9 -46 -12 -79 -4 -33 -12 -96 -20 -140 -7 -44 -17 -120 -20 -170 -4 -49 -9 -93 -12 -97 -2 -5 -6 -52 -9 -105 -3 -54 -12 -147 -20 -208 -23 -168 -28 -235 -17 -235 12 0 48 65 61 110 6 19 19 60 31 90 11 31 27 119 35 195 26 226 30 233 94 157 40 -48 152 -122 184 -122 9 0 34 -14 54 -32 28 -25 39 -29 52 -21 32 19 46 67 53 188 11 164 16 199 54 360 19 77 37 156 40 175 4 19 20 64 36 99 16 35 29 69 29 75 0 6 22 43 48 83 97 149 102 158 102 207 0 66 -33 71 -95 16 -11 -10 -37 -27 -57 -39 -91 -51 -115 -65 -153 -90 -22 -15 -69 -42 -104 -61 -71 -36 -121 -67 -163 -100 -32 -25 -52 -18 -44 14 3 13 6 78 7 145 2 137 1 135 84 161 22 7 49 19 60 26 11 7 46 17 77 24 32 6 60 15 62 19 3 5 27 16 53 26 26 10 55 23 63 30 8 7 38 18 65 25 28 7 67 21 87 32 21 10 47 18 58 18 61 0 104 57 61 80 -26 14 -55 11 -126 -12z m-655 -298 c0 -5 -4 -10 -10 -10 -5 0 -10 5 -10 10 0 6 5 10 10 10 6 0 10 -4 10 -10z m495 -227 c-3 -16 -21 -59 -40 -98 -30 -65 -65 -186 -80 -280 -3 -22 -12 -58 -20 -80 -21 -64 -45 -226 -45 -310 l0 -77 -37 7 c-78 14 -168 78 -197 139 -9 18 -22 65 -31 104 -13 64 -13 81 5 201 10 72 24 139 29 150 12 21 99 101 111 101 4 0 52 27 106 60 54 33 102 60 106 60 4 0 24 11 44 25 47 32 58 32 49 -2z" />
<ns0:path d="M510 1920 c-38 -38 -27 -76 41 -141 67 -64 93 -72 111 -34 9 19 7 34 -6 68 -9 23 -16 52 -16 64 0 28 -45 63 -81 63 -16 0 -38 -9 -49 -20z" />
</ns0:g>
</g><g transform="translate(-0.056443206689039016,197.11205606080966) scale(0.030590119373251824)"><ns0:metadata>
Created by potrace 1.16, written by Peter Selinger 2001-2019
</ns0:metadata>
<ns0:g transform="translate(0.000000,210.000000) scale(0.100000,-0.100000)" fill="#000000" stroke="none">
<ns0:path d="M448 1837 c-21 -17 -28 -32 -28 -60 0 -33 -13 -73 -45 -137 -7 -14 -43 -101 -80 -194 -37 -93 -81 -192 -98 -220 -45 -77 -67 -115 -102 -181 -18 -33 -46 -86 -64 -118 -24 -44 -31 -70 -31 -112 0 -55 0 -55 30 -55 27 0 36 9 85 84 30 46 55 86 55 89 0 7 70 110 86 127 8 8 21 24 28 34 23 34 35 9 33 -71 l-2 -77 -74 -50 c-91 -62 -120 -98 -101 -121 27 -32 46 -36 92 -15 23 11 52 27 63 35 17 14 20 14 28 0 4 -8 6 -19 3 -23 -3 -5 -10 -69 -16 -143 -5 -74 -15 -157 -21 -186 -14 -61 -3 -83 41 -83 44 0 57 25 71 145 14 120 20 132 99 174 19 11 64 51 99 90 63 71 90 87 92 54 1 -10 3 -36 4 -58 2 -22 5 -103 7 -180 3 -135 2 -140 -17 -139 -11 1 -28 5 -37 9 -14 5 -18 2 -18 -14 0 -24 30 -54 77 -76 52 -25 75 -17 89 30 15 49 17 249 5 365 -6 47 -13 137 -16 200 -3 63 -11 149 -16 190 -24 172 -34 282 -32 317 2 21 6 63 9 94 3 31 1 75 -6 98 -10 37 -14 41 -33 35 -21 -6 -101 -88 -122 -125 -5 -9 -24 -32 -40 -51 -17 -18 -40 -47 -52 -64 -34 -47 -83 -97 -89 -91 -3 3 6 32 21 63 53 111 107 259 116 316 10 63 3 90 -31 108 -26 14 -31 13 -62 -13z m191 -482 c10 -77 9 -81 -16 -117 -14 -21 -41 -49 -59 -63 -29 -22 -34 -23 -34 -9 0 10 9 27 20 39 12 12 22 35 23 51 2 26 -1 29 -31 32 -49 5 -39 29 49 124 18 21 35 34 36 30 1 -4 7 -43 12 -87z m36 -332 c7 -59 11 -111 9 -115 -3 -5 -12 -8 -21 -8 -8 0 -37 -16 -63 -35 -26 -19 -53 -35 -59 -35 -13 0 -15 17 -2 24 9 6 16 45 27 141 5 38 15 60 47 97 22 26 42 46 44 44 3 -2 11 -53 18 -113z m-194 -80 c3 -45 -4 -78 -24 -111 l-22 -37 -3 52 c-2 33 3 63 13 83 17 33 34 39 36 13z" />
<ns0:path d="M1020 1705 c-8 -9 -13 -63 -15 -153 -5 -176 -23 -233 -101 -307 -63 -60 -76 -95 -43 -119 13 -9 33 -16 45 -16 22 0 124 85 124 104 1 14 88 102 95 95 6 -6 -3 -38 -83 -309 -65 -222 -106 -341 -140 -407 -12 -23 -22 -48 -22 -56 0 -15 37 -51 60 -59 27 -10 71 36 120 125 41 75 120 183 169 231 l50 49 7 -38 c3 -20 3 -78 -1 -129 -23 -301 -23 -302 30 -344 40 -32 105 -37 222 -18 117 19 206 55 272 110 64 54 82 91 69 147 -5 24 -16 55 -24 69 -72 132 -104 231 -104 327 0 35 -3 43 -18 43 -32 0 -50 -32 -63 -113 -12 -69 -11 -85 5 -145 9 -37 30 -87 44 -111 47 -75 53 -91 47 -109 -6 -20 -86 -74 -135 -92 -19 -6 -44 -16 -55 -20 -20 -8 -26 -9 -102 -11 -93 -2 -106 20 -92 153 21 192 16 268 -23 346 -31 61 -50 75 -88 67 -32 -7 -111 -76 -123 -107 -3 -10 -11 -18 -17 -18 -13 0 -13 2 4 47 8 21 17 54 20 73 7 36 41 152 83 279 17 53 23 93 22 140 -3 85 -5 91 -43 91 -23 0 -43 -12 -78 -46 l-48 -46 6 64 c3 35 10 90 14 123 6 46 5 65 -6 83 -17 26 -65 30 -84 7z" />
</ns0:g>
</g><g transform="translate(-1.9227151534993823,279.9644328511754) scale(0.030590119373251824)"><ns0:metadata>
Created by potrace 1.16, written by Peter Selinger 2001-2019
</ns0:metadata>
<ns0:g transform="translate(0.000000,207.000000) scale(0.100000,-0.100000)" fill="#000000" stroke="none">
<ns0:path d="M442 1937 c-14 -15 -22 -36 -22 -59 0 -60 -39 -263 -64 -335 -13 -37 -43 -122 -65 -188 -61 -176 -60 -175 -88 -245 -35 -93 -35 -93 -19 -115 14 -19 14 -19 35 5 12 14 29 41 38 60 9 19 29 54 44 76 16 23 38 70 50 105 12 35 25 69 29 74 3 6 26 62 50 126 40 107 45 116 62 105 16 -9 24 -6 48 22 17 17 33 32 37 32 5 0 31 18 59 39 45 34 114 70 207 109 29 12 39 55 14 65 -20 8 -99 -9 -149 -32 -23 -11 -63 -25 -88 -32 -25 -7 -50 -16 -57 -21 -20 -16 -24 10 -8 57 18 54 18 59 4 107 -7 26 -19 43 -39 53 -39 20 -53 19 -78 -8z" />
<ns0:path d="M1154 1845 c-38 -17 -84 -70 -84 -96 0 -38 79 -49 112 -16 7 8 28 16 46 20 31 6 32 5 32 -26 0 -62 -90 -187 -157 -219 -34 -16 -41 -43 -17 -69 28 -31 55 -23 102 29 60 65 147 204 161 255 14 53 3 98 -30 114 -41 19 -130 24 -165 8z" />
<ns0:path d="M909 1685 c-28 -15 -44 -52 -30 -69 10 -13 61 -224 61 -253 0 -11 8 -31 18 -43 16 -20 21 -21 40 -9 29 18 37 88 23 208 -6 56 -7 100 -1 110 10 20 4 31 -32 54 -33 20 -45 21 -79 2z" />
<ns0:path d="M632 1530 c-12 -5 -25 -18 -28 -27 -4 -10 -14 -36 -24 -58 -10 -22 -21 -66 -25 -97 -6 -57 -7 -58 -63 -95 -83 -55 -202 -178 -202 -208 0 -27 29 -49 64 -50 30 -1 42 5 66 32 35 39 40 41 40 9 0 -25 -53 -204 -72 -243 -6 -11 -8 -27 -6 -34 6 -18 50 30 74 79 18 38 64 113 75 122 3 3 11 15 18 28 10 18 18 22 39 17 15 -3 62 -7 105 -10 44 -2 81 -6 83 -8 3 -2 -9 -30 -26 -62 -27 -52 -29 -60 -17 -79 8 -12 27 -22 45 -24 27 -3 35 2 57 39 44 69 106 130 125 124 27 -8 81 26 104 67 25 42 61 88 70 88 4 0 33 27 65 59 32 33 68 64 80 71 22 11 22 11 14 -52 -20 -156 -5 -504 32 -730 4 -25 1 -28 -23 -28 -15 0 -47 9 -71 20 -24 11 -47 20 -52 20 -5 0 -18 8 -28 17 -22 19 -115 56 -203 81 -99 28 -86 59 50 116 114 49 116 49 108 -19 -7 -63 7 -74 30 -22 8 17 26 47 39 66 14 19 25 40 25 48 0 27 -47 63 -82 63 -38 0 -149 -25 -175 -39 -10 -5 -38 -19 -63 -30 -54 -24 -120 -86 -120 -111 0 -22 44 -58 79 -66 50 -10 114 -37 170 -70 31 -18 77 -45 104 -60 26 -15 47 -31 47 -35 0 -20 -222 -120 -236 -106 -3 3 3 18 14 34 21 29 37 83 26 83 -4 0 -50 -43 -101 -95 -52 -52 -98 -95 -102 -95 -4 0 -22 -13 -39 -28 -42 -38 -42 -72 -1 -96 34 -20 59 -14 134 33 22 14 74 43 115 64 41 22 84 48 95 57 11 10 55 39 98 64 l77 46 53 -19 c28 -11 67 -22 84 -26 29 -6 34 -4 44 22 20 51 21 98 5 162 -10 38 -21 151 -28 280 -12 233 -4 373 26 466 38 114 38 115 26 145 -14 34 -41 46 -69 31 -11 -6 -48 -36 -83 -66 -34 -30 -68 -55 -75 -55 -6 0 -22 -13 -36 -30 -27 -32 -110 -96 -236 -184 -75 -53 -78 -54 -122 -45 -24 6 -62 12 -84 15 -84 10 -145 27 -145 42 0 7 9 25 20 39 11 14 20 31 20 37 0 11 143 122 188 145 13 7 22 21 22 36 0 36 -39 42 -100 16 -27 -11 -51 -21 -54 -21 -14 0 -4 60 14 83 26 33 25 46 -6 57 -30 12 -42 12 -72 0z" />
<ns0:path d="M567 829 l-27 -21 1 -168 c0 -93 -3 -185 -7 -204 -14 -80 22 -111 71 -62 24 25 29 51 40 211 2 44 7 110 11 147 6 62 5 68 -19 92 -31 31 -34 31 -70 5z" />
</ns0:g>
</g><g transform="translate(0.8481266496393118,361.5683419833143) scale(0.030590119373251824)"><ns0:metadata>
Created by potrace 1.16, written by Peter Selinger 2001-2019
</ns0:metadata>
<ns0:g transform="translate(0.000000,205.000000) scale(0.100000,-0.100000)" fill="#000000" stroke="none">
<ns0:path d="M1368 1844 c-23 -12 -27 -21 -27 -52 2 -59 -13 -166 -24 -180 -6 -8 -33 -25 -59 -38 -66 -33 -128 -91 -128 -119 0 -28 29 -55 59 -55 13 0 32 11 43 25 11 14 29 30 40 36 20 11 21 10 15 -44 -9 -75 -10 -76 -80 -126 -68 -49 -111 -104 -102 -131 3 -9 14 -25 25 -35 17 -15 24 -16 46 -7 33 16 44 15 44 -3 0 -20 -43 -57 -138 -119 -136 -87 -174 -109 -249 -142 -75 -34 -132 -85 -133 -120 0 -11 10 -30 23 -42 24 -23 57 -30 57 -12 0 6 40 30 89 54 49 24 108 58 130 75 23 17 60 45 82 63 38 28 43 30 54 15 7 -10 16 -17 21 -17 14 0 95 80 134 132 19 25 59 61 87 79 29 19 53 37 53 40 0 6 29 26 105 75 29 18 29 17 -9 -31 -52 -65 -323 -332 -356 -349 -14 -8 -40 -34 -59 -59 -18 -25 -44 -48 -58 -51 -40 -11 -63 -42 -64 -88 -2 -77 -11 -93 -49 -90 -18 2 -58 15 -88 29 -30 14 -78 32 -106 40 -28 8 -62 22 -75 30 -15 10 -36 13 -58 10 l-35 -6 7 42 c4 23 16 69 27 102 19 58 49 233 48 285 0 14 7 55 16 91 15 62 21 72 80 125 35 31 64 63 64 71 0 21 -29 27 -48 10 -9 -9 -36 -22 -60 -30 l-43 -15 6 66 c9 88 20 124 50 152 28 26 34 77 10 86 -9 4 -13 14 -9 28 7 28 -26 58 -82 75 -46 15 -79 8 -93 -17 -5 -9 -6 -60 -2 -112 7 -90 4 -115 -19 -150 -5 -8 -19 -39 -31 -67 -23 -57 -46 -68 -76 -37 -11 10 -23 13 -37 8 -12 -4 -39 -6 -62 -5 -74 2 -107 -57 -62 -114 19 -24 26 -27 62 -22 67 10 73 -2 30 -64 -25 -37 -49 -60 -75 -71 -51 -21 -68 -58 -45 -93 12 -17 25 -25 47 -25 35 0 136 49 163 79 11 12 24 21 29 21 6 0 25 11 44 26 l33 25 0 -51 c0 -83 -29 -200 -59 -240 -14 -19 -37 -55 -50 -80 -13 -25 -44 -78 -68 -118 -24 -40 -66 -120 -95 -177 -28 -58 -64 -116 -79 -130 -16 -13 -29 -31 -29 -41 0 -14 7 -16 48 -10 27 3 52 13 60 24 7 9 24 31 38 47 30 37 94 134 94 145 0 4 7 13 15 20 12 10 15 10 15 -2 0 -31 -30 -239 -45 -309 -8 -41 -15 -98 -15 -126 l0 -53 44 0 44 0 10 63 c5 34 21 127 35 207 13 80 30 182 37 227 7 46 15 83 18 83 2 0 24 -18 48 -40 24 -22 51 -40 60 -40 15 0 35 -8 109 -41 17 -7 57 -22 90 -34 l60 -20 -3 -50 c-1 -27 -13 -102 -26 -165 -14 -63 -27 -132 -30 -153 l-5 -37 48 0 49 0 7 48 c7 50 34 158 65 257 10 33 24 89 31 125 6 36 18 76 24 90 7 14 16 49 20 78 5 40 11 52 24 52 9 0 86 70 169 155 84 85 156 155 160 155 4 0 22 21 41 45 18 25 37 45 42 45 11 0 10 -471 0 -515 l-8 -30 -13 28 c-7 15 -17 27 -22 27 -4 0 -8 11 -8 25 0 18 -7 28 -25 35 -16 6 -25 17 -25 30 0 12 -17 37 -37 55 -47 43 -84 46 -108 8 -17 -26 -17 -28 9 -74 36 -65 34 -82 -14 -104 -50 -22 -130 -114 -130 -148 0 -51 55 -68 118 -35 51 25 78 52 119 116 25 39 53 56 53 32 0 -6 20 -44 45 -84 25 -41 45 -83 45 -94 0 -26 34 -68 61 -75 17 -4 24 2 37 31 14 32 16 92 18 417 2 364 10 471 35 501 5 7 12 31 14 53 3 33 0 43 -17 55 l-22 15 27 25 c27 25 36 60 18 70 -9 6 -85 -33 -146 -77 -127 -89 -220 -145 -223 -134 -3 14 31 94 50 117 7 9 40 37 73 63 33 26 66 52 73 58 20 17 10 54 -15 57 -12 2 -43 -8 -70 -22 -53 -29 -71 -33 -56 -13 5 6 15 31 22 55 10 35 21 48 62 73 52 32 54 36 40 58 -6 10 -21 12 -50 8 -23 -3 -43 -2 -45 1 -8 13 27 97 45 110 36 25 20 64 -31 74 -14 3 -32 8 -40 11 -8 4 -27 0 -42 -9z" />
</ns0:g>
</g><g transform="translate(0.7051292626434815,451.190523981817) scale(0.030590119373251824)"><ns0:metadata>
Created by potrace 1.16, written by Peter Selinger 2001-2019
</ns0:metadata>
<ns0:g transform="translate(0.000000,210.000000) scale(0.100000,-0.100000)" fill="#000000" stroke="none">
<ns0:path d="M905 2073 c6 -24 30 -52 47 -53 16 0 69 -54 82 -83 18 -41 26 -144 12 -156 -10 -8 -83 -37 -191 -76 -27 -10 -54 -22 -60 -27 -40 -33 -91 -58 -130 -63 -77 -12 -86 -25 -87 -135 -1 -52 2 -135 6 -185 5 -65 3 -113 -8 -175 -9 -50 -12 -88 -6 -94 15 -15 40 3 57 41 8 21 19 40 23 43 17 11 30 90 30 184 0 110 17 227 34 239 6 4 27 5 46 2 27 -5 42 -1 60 13 31 24 165 92 182 92 13 0 30 8 198 90 119 59 147 74 182 104 18 14 35 26 38 26 12 0 -33 -266 -53 -310 -15 -33 -21 -68 -22 -135 -2 -140 -5 -147 -85 -194 -38 -23 -73 -41 -79 -41 -12 0 -15 23 -5 33 4 3 16 35 29 71 12 36 33 81 45 101 15 24 20 44 16 60 -6 22 -11 24 -54 22 -26 -2 -54 -7 -61 -11 -18 -12 -51 -88 -66 -156 -23 -96 -32 -127 -49 -160 -9 -18 -16 -39 -16 -46 0 -13 -66 -55 -134 -86 l-38 -18 6 27 c13 65 56 329 56 351 0 15 16 40 40 65 23 22 39 46 36 52 -9 24 -132 27 -162 4 -6 -5 -14 -49 -17 -97 -10 -135 -36 -293 -56 -337 -10 -22 -24 -56 -31 -75 -8 -19 -24 -48 -37 -63 -30 -37 -29 -50 6 -89 l29 -33 29 21 c26 19 143 68 143 60 0 -13 -57 -128 -87 -174 -20 -32 -54 -92 -76 -135 -24 -45 -60 -96 -86 -120 -42 -40 -101 -113 -143 -177 -9 -14 -70 -80 -137 -148 l-121 -122 50 0 c61 0 85 14 165 95 33 34 69 68 80 76 11 8 36 34 55 59 83 110 143 180 154 180 9 0 9 -27 3 -107 -7 -94 -12 -114 -38 -156 -33 -54 -37 -87 -11 -109 39 -34 84 -29 96 10 4 10 28 28 54 40 26 11 88 39 138 61 50 23 96 41 103 41 6 0 19 4 29 9 9 4 38 18 65 30 26 11 47 25 47 31 0 5 9 10 20 10 17 0 136 70 150 88 3 4 12 12 21 17 52 33 119 89 119 100 0 21 29 40 42 27 14 -14 -7 -193 -28 -234 -8 -15 -14 -36 -14 -46 0 -24 -58 -134 -76 -145 -18 -11 -18 -37 0 -37 58 0 115 51 160 145 42 87 51 118 66 230 7 50 27 151 46 225 19 74 34 150 34 168 0 18 7 55 16 82 12 37 13 53 5 69 -14 26 -55 37 -90 25 -23 -8 -27 -16 -33 -74 -27 -261 -25 -251 -73 -298 -24 -23 -49 -42 -55 -42 -5 0 -10 -4 -10 -10 0 -5 -6 -10 -12 -10 -7 0 -43 -24 -80 -53 -37 -28 -86 -63 -109 -77 -23 -14 -57 -35 -75 -47 -19 -12 -36 -18 -38 -14 -3 4 5 30 18 57 52 109 66 142 66 157 0 25 40 125 56 142 9 8 28 15 43 15 26 0 51 16 51 32 0 4 -23 14 -52 23 -28 8 -59 22 -69 31 -17 15 -20 14 -48 -6 -41 -28 -46 -39 -65 -140 -10 -47 -26 -108 -37 -136 -11 -28 -26 -86 -34 -129 -7 -42 -17 -81 -22 -85 -13 -13 -225 -98 -261 -105 -30 -6 -33 -5 -28 11 3 11 10 51 15 89 10 65 34 133 52 145 5 3 15 26 24 50 24 68 69 130 140 190 66 58 74 70 51 89 -10 8 -24 7 -56 -4 -23 -8 -53 -15 -66 -15 -22 0 -23 2 -12 28 7 15 24 41 38 58 14 17 43 61 65 98 31 51 52 73 91 96 28 16 63 41 78 55 17 16 35 24 46 20 12 -4 26 4 42 22 13 15 65 66 116 112 114 103 120 119 61 169 -99 85 -106 100 -67 141 11 13 25 40 29 60 4 20 13 54 19 76 6 22 18 74 25 115 8 41 21 98 29 126 16 58 9 117 -15 122 -9 2 -48 -22 -88 -53 -39 -30 -74 -55 -77 -55 -3 0 -18 -12 -33 -27 -33 -33 -237 -141 -247 -131 -3 4 3 25 15 48 29 57 28 125 -5 195 l-26 55 -90 0 -90 0 7 -27z m235 -303 c0 -5 -7 -10 -16 -10 -8 0 -12 5 -9 10 3 6 10 10 16 10 5 0 9 -4 9 -10z m340 -389 c0 -5 -7 -14 -15 -21 -12 -10 -15 -10 -15 2 0 8 3 18 7 21 9 10 23 9 23 -2z" />
</ns0:g>
</g><g transform="translate(-2.209644197559726,536.6964301403282) scale(0.030590119373251824)"><ns0:metadata>
Created by potrace 1.16, written by Peter Selinger 2001-2019
</ns0:metadata>
<ns0:g transform="translate(0.000000,205.000000) scale(0.100000,-0.100000)" fill="#000000" stroke="none">
<ns0:path d="M833 1670 c-26 -11 -32 -60 -9 -79 7 -6 16 -32 19 -59 4 -26 9 -57 13 -68 5 -17 -6 -30 -58 -70 -35 -26 -93 -65 -130 -85 -66 -36 -70 -37 -143 -32 -65 5 -78 3 -96 -13 -18 -17 -20 -26 -14 -77 3 -32 15 -93 26 -135 15 -57 21 -120 24 -242 6 -226 13 -285 37 -307 19 -17 21 -17 39 6 10 13 20 37 20 55 1 17 3 112 5 211 7 355 7 350 26 347 25 -4 56 15 109 65 25 25 55 50 66 56 11 7 39 25 62 41 23 16 45 26 49 22 11 -11 19 -288 9 -309 -5 -10 -23 -25 -40 -32 -18 -7 -53 -33 -79 -58 -63 -59 -65 -93 -9 -134 l39 -28 -36 -50 c-20 -27 -49 -70 -66 -95 -56 -85 -180 -219 -201 -220 -6 0 -19 -14 -29 -30 -20 -36 -13 -50 34 -70 34 -14 42 -10 133 64 30 24 68 51 85 60 16 8 32 22 35 31 7 16 32 20 41 7 5 -8 2 -22 -29 -137 -7 -27 -12 -75 -10 -105 2 -30 4 -63 4 -73 1 -24 58 -56 161 -90 73 -24 101 -28 200 -29 131 0 247 23 330 67 14 7 50 20 80 28 30 7 81 31 114 53 32 21 68 44 79 51 12 7 25 20 28 30 11 27 -1 113 -22 155 -11 21 -19 46 -19 56 0 11 -11 40 -25 66 -14 26 -25 54 -25 62 0 21 -28 17 -40 -6 -17 -32 -15 -170 3 -214 25 -57 21 -70 -25 -100 -46 -30 -179 -86 -204 -86 -8 0 -28 -7 -44 -15 -19 -10 -83 -19 -180 -25 -146 -10 -151 -10 -205 13 -64 27 -109 63 -101 82 3 8 10 41 16 75 6 33 21 93 34 133 13 39 27 87 31 104 3 18 10 33 14 33 5 0 26 -14 47 -31 32 -26 44 -29 74 -24 41 8 64 26 79 63 23 58 61 366 61 498 0 73 6 178 12 235 15 124 13 306 -3 325 -6 8 -19 14 -29 14 -16 0 -137 -73 -150 -91 -10 -12 -72 -40 -78 -35 -3 4 -20 39 -37 79 -33 77 -51 88 -102 67z m295 -310 c-6 -63 -12 -189 -12 -280 -1 -91 -7 -196 -13 -235 -7 -38 -17 -106 -23 -150 -14 -93 -22 -106 -50 -80 -26 23 -25 29 5 59 45 45 23 80 -36 56 -16 -7 -32 -10 -35 -7 -3 3 2 36 11 74 14 54 18 120 20 328 2 143 6 268 10 277 9 22 117 90 126 80 4 -4 3 -59 -3 -122z m-298 -724 c0 -19 -37 -63 -45 -54 -4 3 3 20 16 37 26 35 29 37 29 17z" />
</ns0:g>
</g><g transform="translate(-1.388047989271513,627.7281219682638) scale(0.030590119373251824)"><ns0:metadata>
Created by potrace 1.16, written by Peter Selinger 2001-2019
</ns0:metadata>
<ns0:g transform="translate(0.000000,209.000000) scale(0.100000,-0.100000)" fill="#000000" stroke="none">
<ns0:path d="M1005 1715 c-22 -7 -53 -20 -70 -29 -16 -9 -39 -16 -51 -16 -28 0 -54 -30 -54 -62 0 -19 9 -32 34 -47 18 -12 36 -30 39 -41 8 -33 35 -24 39 12 6 59 101 87 226 67 85 -14 100 -30 59 -65 -15 -13 -27 -26 -27 -31 0 -4 -9 -16 -19 -28 -130 -140 -170 -184 -185 -209 -18 -28 -84 -101 -180 -197 -49 -50 -54 -68 -32 -121 6 -13 -7 -19 -81 -36 -157 -36 -298 -56 -385 -54 -9 0 -38 -7 -65 -17 -40 -14 -49 -21 -51 -45 -2 -19 4 -36 19 -52 24 -26 49 -30 79 -14 11 6 76 17 144 25 69 8 144 22 168 30 24 9 78 20 120 25 42 5 102 16 133 26 l56 18 25 -30 c38 -46 61 -106 74 -191 7 -43 20 -112 30 -153 10 -41 20 -109 22 -150 l3 -75 -68 2 c-58 2 -80 8 -145 43 -81 44 -155 71 -262 99 -115 29 -132 7 -42 -51 32 -20 88 -48 127 -62 38 -15 91 -41 119 -59 62 -40 127 -69 224 -99 67 -20 76 -21 100 -7 16 8 28 25 30 39 2 14 8 35 14 47 25 51 -36 445 -92 590 -15 40 -25 75 -22 78 3 3 14 5 25 5 10 0 31 6 45 14 27 14 145 45 255 66 33 7 74 18 93 26 18 8 48 14 67 14 18 0 38 5 45 12 18 18 15 87 -3 94 -8 4 -52 -3 -97 -15 -46 -11 -110 -25 -143 -31 -33 -6 -100 -22 -150 -36 -49 -14 -118 -30 -153 -36 -55 -9 -65 -8 -82 7 -11 10 -20 22 -20 27 0 8 75 97 201 239 28 31 58 67 67 80 9 13 43 56 77 95 98 116 107 196 28 229 -46 20 -173 52 -228 58 -22 2 -58 -1 -80 -8z m-425 -875 c0 -16 -23 -22 -71 -18 -42 4 -43 4 -19 15 32 15 90 16 90 3z" />
</ns0:g>
</g><g transform="translate(0.18039072280760138,720.577151405527) scale(0.030590119373251824)"><ns0:metadata>
Created by potrace 1.16, written by Peter Selinger 2001-2019
</ns0:metadata>
<ns0:g transform="translate(0.000000,207.000000) scale(0.100000,-0.100000)" fill="#000000" stroke="none">
<ns0:path d="M953 1943 c-7 -2 -13 -9 -13 -15 0 -5 -15 -44 -34 -87 -18 -42 -41 -108 -51 -147 -13 -54 -22 -73 -43 -86 -223 -142 -321 -216 -337 -255 -22 -52 -19 -69 18 -97 40 -31 71 -26 87 14 15 36 107 133 119 126 5 -4 -4 -33 -20 -66 -16 -33 -29 -63 -29 -67 0 -7 -110 -228 -174 -348 -48 -91 -163 -269 -195 -302 -11 -12 -21 -25 -21 -28 0 -4 -14 -26 -30 -49 -33 -46 -32 -72 4 -85 17 -7 29 0 59 29 20 21 37 42 37 48 0 6 8 17 18 24 22 16 72 90 72 106 0 7 16 29 35 51 19 21 35 43 35 48 0 6 39 48 87 93 105 100 106 100 88 -91 -7 -74 -12 -188 -11 -254 1 -135 10 -148 59 -97 27 28 28 35 37 178 6 82 14 185 19 229 15 119 13 220 -2 234 -18 14 -73 -2 -104 -31 -12 -12 -23 -18 -23 -15 0 4 20 46 44 94 24 49 55 115 69 148 30 71 74 152 96 178 9 10 25 37 36 59 11 22 24 40 28 39 5 -1 21 15 36 36 15 21 45 50 67 64 93 61 131 85 157 98 15 7 27 17 27 22 0 5 20 18 44 30 24 11 67 43 96 70 44 42 49 51 40 69 -13 24 -15 24 -60 1 -19 -11 -59 -31 -89 -45 -29 -14 -74 -41 -100 -59 -63 -46 -129 -82 -137 -74 -6 6 19 94 37 129 28 55 -21 105 -78 81z" />
<ns0:path d="M1417 1738 c-167 -178 -203 -214 -217 -220 -22 -9 -170 -138 -170 -148 0 -5 -26 -29 -57 -53 -39 -30 -68 -63 -87 -100 -28 -52 -29 -57 -13 -80 27 -42 54 -41 86 3 39 55 256 280 269 280 6 0 21 13 34 29 13 16 33 34 46 40 26 14 26 15 11 -84 -6 -38 -12 -171 -13 -294 l-1 -224 -86 -46 c-48 -25 -94 -52 -103 -60 -34 -29 -28 1 12 58 23 32 46 69 51 83 5 13 19 46 32 72 l23 49 -28 23 c-37 33 -87 30 -160 -9 -50 -27 -65 -41 -93 -92 -37 -68 -37 -89 4 -167 l25 -47 -20 -28 c-11 -15 -45 -51 -77 -80 -47 -43 -55 -56 -50 -75 19 -63 75 -64 143 -3 27 25 54 45 59 45 5 0 20 -12 34 -26 56 -62 196 -165 244 -180 27 -10 61 -25 74 -35 29 -23 64 -24 82 -2 21 24 15 130 -16 289 -15 75 -30 167 -35 203 -5 36 -14 89 -20 116 -19 84 6 451 37 550 17 54 33 86 78 155 19 29 29 59 29 85 1 37 -1 40 -29 43 -26 2 -39 -7 -98 -70z m-267 -762 c0 -7 -14 -30 -30 -51 -17 -21 -33 -49 -36 -62 -7 -27 -43 -52 -45 -31 -5 64 15 111 63 145 32 23 48 22 48 -1z m183 -244 c3 -43 11 -91 17 -106 5 -15 13 -54 16 -87 4 -47 2 -59 -9 -59 -24 0 -120 48 -163 83 -23 17 -56 40 -75 50 l-33 18 44 41 c54 50 171 136 186 137 7 1 13 -30 17 -77z" />
</ns0:g>
</g><g transform="translate(-2.8955058184705535,802.6976296015359) scale(0.030590119373251824)"><ns0:metadata>
Created by potrace 1.16, written by Peter Selinger 2001-2019
</ns0:metadata>
<ns0:g transform="translate(0.000000,210.000000) scale(0.100000,-0.100000)" fill="#000000" stroke="none">
<ns0:path d="M1165 1844 c-45 -38 -227 -154 -240 -154 -7 0 -18 -7 -25 -15 -7 -8 -20 -15 -29 -15 -10 0 -28 -11 -41 -25 -13 -14 -31 -25 -40 -25 -8 0 -26 -7 -38 -16 -21 -14 -22 -23 -22 -137 0 -167 -27 -323 -95 -562 -47 -161 -46 -157 -23 -163 22 -5 22 -16 -1 -122 -13 -60 -13 -175 0 -225 6 -22 12 -59 12 -83 2 -46 23 -72 59 -72 17 0 92 73 311 304 84 89 95 97 105 80 7 -13 22 -19 49 -20 21 0 88 -22 148 -47 61 -26 117 -47 126 -47 9 0 22 -7 29 -15 7 -8 24 -21 39 -28 14 -7 35 -18 46 -24 167 -85 226 -113 239 -113 73 0 116 94 56 125 -17 9 -30 11 -30 5 0 -5 -6 -10 -13 -10 -13 0 -261 124 -282 140 -6 5 -33 17 -60 28 -86 34 -164 72 -170 83 -4 5 13 31 37 58 130 142 185 241 144 257 -15 6 -55 -29 -56 -50 0 -11 -115 -126 -125 -126 -4 0 -5 7 -2 15 12 29 -13 25 -50 -8 -21 -18 -52 -43 -69 -55 l-31 -21 -52 24 c-62 30 -94 32 -121 5 -29 -29 -25 -52 16 -88 l36 -32 -44 -48 c-119 -125 -216 -212 -236 -212 -31 0 -15 230 23 328 7 20 30 79 49 129 20 51 36 103 36 116 0 16 9 28 28 38 15 7 47 30 72 50 25 20 59 42 77 48 18 7 39 24 48 37 24 36 47 32 41 -8 -3 -18 -8 -82 -11 -142 -4 -59 -9 -114 -12 -122 -3 -9 2 -14 16 -14 16 0 29 17 57 73 34 67 37 81 45 202 5 72 11 207 15 300 4 127 11 184 25 227 10 32 19 84 19 116 0 85 -28 104 -85 56z m-61 -311 c-1 -82 -3 -179 -3 -216 -1 -55 -4 -69 -18 -73 -22 -7 -114 -52 -203 -99 -36 -19 -69 -34 -74 -35 -10 0 0 61 16 96 6 13 38 46 72 75 66 55 85 81 86 117 0 30 -21 28 -80 -5 -27 -15 -52 -24 -56 -21 -3 4 -3 34 1 68 6 51 12 66 39 90 17 17 45 37 63 45 18 9 36 21 40 28 10 16 94 76 108 77 7 0 10 -53 9 -147z m116 -767 c0 -3 -4 -8 -10 -11 -5 -3 -10 -1 -10 4 0 6 5 11 10 11 6 0 10 -2 10 -4z" />
<ns0:path d="M410 1740 c-12 -12 -20 -33 -20 -54 0 -19 -5 -47 -10 -62 -6 -14 -15 -70 -21 -123 -6 -53 -15 -134 -20 -181 -5 -47 -11 -123 -13 -170 -9 -184 -22 -240 -56 -240 -21 0 -21 -42 0 -65 21 -22 21 -25 10 -191 -15 -241 -33 -370 -53 -392 -18 -20 -22 -68 -8 -91 14 -21 61 -16 86 10 26 28 48 131 64 304 6 61 16 164 22 230 7 66 13 131 14 145 1 14 3 28 4 32 0 3 37 51 81 105 93 113 131 184 136 250 4 48 -15 93 -39 93 -36 1 -38 17 -8 63 43 63 61 119 61 189 0 67 -7 77 -98 134 -61 39 -103 43 -132 14z m136 -181 c-8 -52 -43 -123 -69 -138 -20 -13 -20 -12 -14 50 4 35 17 83 29 106 19 36 25 40 41 31 16 -8 18 -17 13 -49z m-26 -328 c0 -10 -8 -29 -19 -42 -10 -13 -26 -39 -35 -56 -22 -43 -36 -42 -36 2 0 26 9 45 36 75 40 44 54 50 54 21z" />
</ns0:g>
</g><g transform="translate(0.592935120372033,888.8503188035738) scale(0.030590119373251824)"><ns0:metadata>
Created by potrace 1.16, written by Peter Selinger 2001-2019
</ns0:metadata>
<ns0:g transform="translate(0.000000,207.000000) scale(0.100000,-0.100000)" fill="#000000" stroke="none">
<ns0:path d="M1005 1928 c-21 -24 -57 -83 -82 -133 -24 -49 -57 -115 -74 -145 -17 -30 -58 -113 -91 -185 -33 -71 -77 -155 -96 -185 -38 -59 -112 -200 -112 -213 0 -5 -11 -23 -25 -41 -14 -18 -25 -37 -25 -43 0 -6 -20 -41 -45 -79 -25 -37 -45 -72 -45 -77 0 -4 -12 -33 -27 -63 -25 -51 -26 -56 -10 -72 20 -19 43 -10 61 24 24 45 81 133 117 180 21 28 68 107 103 177 35 69 78 145 94 169 16 24 48 81 71 128 24 47 51 99 61 115 10 17 21 40 24 52 9 28 69 129 94 157 11 12 36 49 56 84 21 34 50 69 66 77 53 27 40 80 -26 105 -41 16 -50 12 -89 -32z" />
<ns0:path d="M1188 1549 c-21 -11 -25 -79 -6 -79 6 0 19 -6 27 -14 9 -8 41 -24 71 -36 30 -12 65 -31 76 -42 27 -24 77 -21 82 5 4 18 -18 42 -125 140 -43 39 -88 48 -125 26z" />
<ns0:path d="M1040 1183 c-8 -2 -24 -8 -35 -13 -11 -5 -32 -11 -46 -14 -25 -5 -26 -8 -32 -105 -12 -179 -73 -380 -151 -496 -100 -149 -130 -187 -181 -231 -50 -44 -53 -48 -43 -75 6 -16 23 -36 38 -44 31 -16 37 -12 119 63 35 32 117 77 178 97 29 9 55 21 58 26 4 5 17 9 30 9 13 0 27 5 30 10 3 6 17 10 29 10 13 0 29 6 36 14 6 8 17 13 25 10 7 -3 27 2 44 10 16 9 37 16 46 16 9 0 44 13 78 29 54 25 113 45 140 46 4 0 18 -29 31 -65 38 -109 55 -142 68 -138 23 8 29 115 13 213 -8 50 -17 137 -19 194 -3 57 -6 104 -8 105 -68 48 -108 54 -142 21 -15 -15 -13 -59 3 -80 9 -11 41 -136 41 -158 0 -9 -16 -16 -45 -20 -25 -4 -63 -16 -85 -27 -21 -11 -47 -20 -57 -20 -16 0 -128 -32 -281 -81 -35 -11 -66 -18 -69 -15 -3 3 13 33 36 68 22 35 41 70 41 78 0 8 7 28 15 43 8 16 29 94 46 175 17 81 35 155 40 164 5 10 9 30 9 44 0 14 11 39 25 56 27 32 32 57 13 76 -13 13 -15 13 -38 5z" />
</ns0:g>
</g><g transform="translate(1.131603550565842,975.5997976045999) scale(0.030590119373251824)"><ns0:metadata>
Created by potrace 1.16, written by Peter Selinger 2001-2019
</ns0:metadata>
<ns0:g transform="translate(0.000000,209.000000) scale(0.100000,-0.100000)" fill="#000000" stroke="none">
<ns0:path d="M1199 2057 c-116 -67 -156 -91 -219 -132 -36 -23 -101 -61 -145 -84 -44 -24 -84 -49 -88 -57 -4 -8 -12 -14 -18 -14 -19 0 -136 -59 -149 -75 -8 -10 -39 -28 -70 -41 -85 -38 -113 -91 -71 -133 16 -16 30 -19 72 -15 57 5 89 18 89 37 0 17 87 107 103 107 8 0 26 11 40 24 26 24 35 30 132 80 28 15 66 38 85 51 61 44 111 75 120 75 4 0 20 14 33 30 14 17 32 30 40 30 8 0 20 7 27 15 7 8 18 15 26 15 7 0 20 7 29 16 9 9 18 14 21 11 7 -7 -28 -158 -65 -282 -17 -55 -33 -116 -36 -135 -3 -19 -12 -64 -20 -100 -32 -136 -52 -265 -60 -393 -3 -42 -11 -96 -19 -120 -35 -110 -49 -277 -35 -405 6 -51 9 -95 6 -99 -3 -3 -21 6 -39 20 -60 45 -94 57 -160 57 -81 0 -110 -8 -106 -29 2 -11 22 -19 68 -26 36 -6 75 -16 86 -23 33 -18 100 -102 128 -162 15 -30 31 -62 36 -70 5 -8 17 -32 26 -53 21 -48 57 -68 81 -45 21 22 28 102 14 180 -6 34 -18 131 -26 213 -19 173 -15 261 21 444 13 69 24 137 24 152 0 135 130 698 187 813 14 27 27 73 30 102 l6 54 -74 0 c-65 -1 -81 -5 -130 -33z" />
<ns0:path d="M1055 1615 c-16 -8 -61 -28 -100 -45 -38 -18 -87 -44 -110 -59 -22 -15 -52 -32 -66 -38 -15 -6 -42 -25 -60 -41 -19 -16 -54 -40 -79 -52 -91 -47 -144 -137 -105 -180 14 -16 31 -20 81 -20 34 0 69 3 78 6 21 8 21 60 0 72 -24 13 35 67 206 189 14 10 61 36 104 58 92 46 136 81 136 107 0 22 -40 24 -85 3z" />
<ns0:path d="M588 1004 c-38 -20 -41 -53 -7 -90 19 -20 19 -21 -1 -39 -11 -10 -20 -24 -20 -30 0 -7 -7 -18 -15 -25 -8 -7 -15 -21 -15 -31 0 -11 -4 -19 -9 -19 -29 0 -75 -236 -52 -264 26 -31 63 -26 151 21 154 84 310 264 310 360 0 42 -34 69 -101 82 -31 5 -82 19 -115 30 -69 25 -89 25 -126 5z m182 -114 c25 -6 55 -12 66 -15 12 -3 24 -12 28 -20 9 -25 -28 -88 -76 -128 -24 -20 -51 -43 -60 -51 -27 -23 -75 -46 -97 -46 -11 0 -23 -5 -26 -10 -4 -6 -11 -7 -17 -4 -11 7 -4 74 12 102 5 9 21 46 36 82 44 104 50 108 134 90z" />
</ns0:g>
</g></svg>