<?xml version='1.0' encoding='utf-8'?>
<svg xmlns:ns0="http://www.w3.org/2000/svg" xmlns="http://www.w3.org/2000/svg" width="235" height="115" viewBox="0 0 235 115"><g transform="translate(0.291645312034575,-84.20699011654415) scale(0.04610970348593809)"><ns0:metadata>
Created by potrace 1.16, written by Peter Selinger 2001-2019
</ns0:metadata>
<ns0:g transform="translate(0.000000,213.000000) scale(0.100000,-0.100000)" fill="#000000" stroke="none">
<ns0:path d="M974 1438 c-42 -60 -75 -162 -85 -263 -12 -131 -45 -274 -105 -453 -35 -104 -32 -127 17 -173 70 -65 142 -57 276 33 122 81 117 142 -24 283 -29 29 -53 57 -53 63 0 5 -7 15 -16 23 -11 9 -14 22 -9 48 4 20 9 51 10 70 9 84 31 185 46 206 3 6 14 36 23 68 16 54 16 61 1 83 -17 26 -66 33 -81 12z m-12 -615 c10 -9 18 -22 18 -29 0 -7 6 -17 13 -21 8 -4 24 -22 37 -40 27 -38 23 -46 -49 -92 -53 -35 -88 -39 -98 -14 -6 14 30 183 44 206 6 11 15 9 35 -10z" />
</ns0:g>
</g><g transform="translate(-1.6723776303194313,50.6159524986906) scale(0.04610970348593809)"><ns0:metadata>
Created by potrace 1.16, written by Peter Selinger 2001-2019
</ns0:metadata>
<ns0:g transform="translate(0.000000,206.000000) scale(0.100000,-0.100000)" fill="#000000" stroke="none">
<ns0:path d="M1020 1511 c-17 -5 -26 -16 -30 -36 -3 -18 -15 -34 -28 -41 -44 -22 -55 -57 -90 -299 -21 -148 -20 -340 3 -365 8 -9 15 -26 15 -39 0 -12 6 -37 14 -56 19 -46 54 -54 109 -27 23 11 65 24 92 27 62 9 71 16 102 80 79 163 90 203 94 340 6 233 -3 325 -33 325 -6 0 -27 14 -49 31 -21 16 -55 33 -76 36 -21 3 -47 12 -58 19 -21 15 -27 16 -65 5z m115 -114 c60 -34 66 -55 66 -225 0 -142 -11 -210 -40 -246 -5 -6 -14 -29 -21 -50 -19 -58 -62 -96 -109 -96 -37 0 -39 1 -55 53 -17 53 -16 54 18 213 19 87 40 180 46 206 7 26 9 56 5 67 -3 10 -1 22 5 26 5 3 10 22 10 41 0 41 17 44 75 11z" />
</ns0:g>
</g></svg>