<?xml version='1.0' encoding='utf-8'?>
<svg xmlns:ns0="http://www.w3.org/2000/svg" xmlns="http://www.w3.org/2000/svg" width="235" height="136" viewBox="0 0 235 136"><g transform="translate(0.3319127998269664,-105.9592602106427) scale(0.05739972241727762)"><ns0:metadata>
Created by potrace 1.16, written by Peter Selinger 2001-2019
</ns0:metadata>
<ns0:g transform="translate(0.000000,205.000000) scale(0.100000,-0.100000)" fill="#000000" stroke="none">
<ns0:path d="M802 1318 c-45 -67 -75 -135 -68 -153 5 -14 9 -15 21 -5 12 10 15 10 15 -3 0 -9 -4 -27 -10 -41 -5 -14 -16 -76 -25 -138 -17 -125 -33 -223 -41 -251 -5 -15 -8 -16 -20 -6 -29 24 -38 -4 -24 -78 21 -111 57 -151 107 -118 25 17 27 22 42 145 23 192 62 413 78 443 9 18 20 52 24 77 4 25 10 62 14 82 4 20 5 48 1 62 -5 22 -12 26 -46 26 -35 0 -42 -5 -68 -42z" />
</ns0:g>
</g><g transform="translate(-1.1939709372928178,48.922549767567375) scale(0.05739972241727762)"><ns0:metadata>
Created by potrace 1.16, written by Peter Selinger 2001-2019
</ns0:metadata>
<ns0:g transform="translate(0.000000,214.000000) scale(0.100000,-0.100000)" fill="#000000" stroke="none">
<ns0:path d="M1052 1542 c-18 -9 -34 -25 -36 -36 -24 -127 -58 -399 -54 -430 9 -60 -29 -281 -58 -337 -26 -52 -86 -243 -87 -283 -2 -38 0 -41 26 -44 36 -4 56 13 55 46 -1 33 12 69 69 190 25 50 49 92 54 92 5 0 17 -4 27 -9 9 -5 37 -14 62 -21 25 -6 61 -24 80 -39 46 -36 158 -97 193 -105 44 -11 37 34 -15 84 -23 22 -45 40 -49 40 -13 0 -129 121 -129 135 0 8 5 17 10 20 6 4 20 25 31 47 11 22 35 55 52 74 18 18 46 52 62 74 49 68 116 139 136 145 11 4 30 16 42 28 13 12 40 36 60 52 75 63 49 134 -44 119 -35 -6 -54 -19 -108 -74 -74 -75 -118 -129 -143 -177 -10 -18 -58 -86 -107 -150 -84 -111 -125 -152 -139 -139 -3 4 0 34 6 69 7 34 13 85 13 112 2 61 24 215 40 270 45 162 48 215 17 245 -25 23 -22 23 -66 2z" />
</ns0:g>
</g><g transform="translate(-1.8644512364336379,223.93858334520758) scale(0.05739972241727762)"><ns0:metadata>
Created by potrace 1.16, written by Peter Selinger 2001-2019
</ns0:metadata>
<ns0:g transform="translate(0.000000,211.000000) scale(0.100000,-0.100000)" fill="#000000" stroke="none">
<ns0:path d="M1535 1475 c-22 -25 -68 -73 -103 -107 -35 -35 -68 -72 -75 -84 -7 -12 -58 -82 -114 -155 -232 -305 -276 -359 -291 -359 -10 0 -24 27 -42 80 -18 52 -43 103 -61 125 -10 11 -31 47 -49 80 -46 86 -111 185 -122 185 -5 0 -22 -7 -37 -15 -46 -23 -53 -64 -21 -117 11 -18 20 -38 20 -44 0 -13 78 -134 96 -149 7 -5 35 -55 64 -110 28 -55 55 -104 60 -110 4 -5 11 -24 14 -42 9 -38 48 -83 74 -83 21 0 42 18 42 36 0 11 49 80 225 323 11 15 36 52 56 82 21 30 44 61 53 68 9 7 16 17 16 22 0 9 107 177 140 220 69 89 110 158 110 184 0 25 -14 17 -55 -30z" />
</ns0:g>
</g><g transform="translate(2.9881838307903763,387.5646785918409) scale(0.05739972241727762)"><ns0:metadata>
Created by potrace 1.16, written by Peter Selinger 2001-2019
</ns0:metadata>
<ns0:g transform="translate(0.000000,207.000000) scale(0.100000,-0.100000)" fill="#000000" stroke="none">
<ns0:path d="M1130 1663 c-21 -26 -22 -36 -16 -120 l5 -91 -59 -31 c-35 -18 -81 -33 -112 -36 -60 -6 -88 -28 -117 -89 -42 -92 -53 -120 -72 -173 -24 -70 -24 -89 0 -139 19 -38 62 -74 121 -101 74 -33 99 -43 110 -43 8 0 11 -19 9 -57 -8 -154 7 -191 58 -140 19 18 30 47 42 108 l17 83 74 16 c42 8 95 26 120 39 25 13 60 31 78 40 19 9 34 26 38 41 3 14 14 43 24 65 12 27 20 80 25 163 9 160 -1 199 -68 254 -49 42 -72 47 -143 32 l-31 -6 -6 88 c-4 75 -8 91 -27 106 -30 25 -45 23 -70 -9z m203 -306 l39 -32 -11 -113 c-15 -149 -28 -180 -90 -215 -27 -15 -61 -27 -76 -27 -23 0 -26 3 -22 23 4 12 9 42 13 67 3 25 12 70 19 100 7 30 16 86 19 124 4 38 11 77 17 87 15 28 49 23 92 -14z m-221 -69 c6 -56 -20 -206 -58 -325 -10 -34 -103 2 -152 58 -45 52 -41 78 25 150 25 27 60 82 69 110 4 13 59 37 105 48 4 0 9 -18 11 -41z" />
</ns0:g>
</g><g transform="translate(-0.9488967833089532,551.0548704513247) scale(0.05739972241727762)"><ns0:metadata>
Created by potrace 1.16, written by Peter Selinger 2001-2019
</ns0:metadata>
<ns0:g transform="translate(0.000000,214.000000) scale(0.100000,-0.100000)" fill="#000000" stroke="none">
<ns0:path d="M1179 1566 c-76 -40 -138 -112 -170 -197 -32 -83 -23 -122 39 -174 30 -25 38 -27 99 -23 39 2 68 9 71 16 5 17 32 15 32 -3 0 -9 -12 -44 -26 -78 -23 -54 -28 -83 -35 -232 -8 -155 -7 -196 7 -247 6 -21 72 -25 79 -6 3 7 9 92 14 188 9 181 12 205 30 239 6 11 20 46 30 78 11 32 36 103 56 158 50 137 52 149 24 169 -15 10 -27 12 -33 6 -6 -6 -20 -10 -32 -10 -17 0 -20 5 -17 23 7 37 -14 77 -49 91 -65 27 -74 27 -119 2z m61 -140 c0 -18 9 -45 20 -59 l21 -26 -29 -29 c-26 -26 -85 -62 -103 -62 -15 0 -39 32 -39 51 0 39 50 127 83 147 39 24 47 20 47 -22z" />
</ns0:g>
</g><g transform="translate(-2.9162214448946315,717.8145366070206) scale(0.05739972241727762)"><ns0:metadata>
Created by potrace 1.16, written by Peter Selinger 2001-2019
</ns0:metadata>
<ns0:g transform="translate(0.000000,206.000000) scale(0.100000,-0.100000)" fill="#000000" stroke="none">
<ns0:path d="M1020 1511 c-17 -5 -26 -16 -30 -36 -3 -18 -15 -34 -28 -41 -44 -22 -55 -57 -90 -299 -21 -148 -20 -340 3 -365 8 -9 15 -26 15 -39 0 -12 6 -37 14 -56 19 -46 54 -54 109 -27 23 11 65 24 92 27 62 9 71 16 102 80 79 163 90 203 94 340 6 233 -3 325 -33 325 -6 0 -27 14 -49 31 -21 16 -55 33 -76 36 -21 3 -47 12 -58 19 -21 15 -27 16 -65 5z m115 -114 c60 -34 66 -55 66 -225 0 -142 -11 -210 -40 -246 -5 -6 -14 -29 -21 -50 -19 -58 -62 -96 -109 -96 -37 0 -39 1 -55 53 -17 53 -16 54 18 213 19 87 40 180 46 206 7 26 9 56 5 67 -3 10 -1 22 5 26 5 3 10 22 10 41 0 41 17 44 75 11z" />
</ns0:g>
</g><g transform="translate(-0.0002595726340928195,874.7922091314276) scale(0.05739972241727762)"><ns0:metadata>
Created by potrace 1.16, written by Peter Selinger 2001-2019
</ns0:metadata>
<ns0:g transform="translate(0.000000,211.000000) scale(0.100000,-0.100000)" fill="#000000" stroke="none">
<ns0:path d="M1176 1285 c-61 -22 -111 -75 -217 -232 -41 -63 -59 -71 -59 -30 0 29 -27 116 -41 133 -26 32 -89 11 -119 -39 l-19 -31 -10 25 c-5 14 -7 37 -4 51 4 20 -1 30 -20 43 -22 14 -30 15 -54 3 l-28 -13 -2 -130 c-2 -99 -9 -156 -28 -238 -15 -61 -25 -128 -23 -155 l3 -47 43 -3 c33 -2 42 0 42 12 0 9 11 37 25 63 13 27 34 80 45 119 12 39 36 95 53 125 l31 54 14 -70 c7 -39 11 -99 8 -136 -5 -77 3 -94 52 -103 38 -7 38 -6 72 114 12 41 22 77 23 80 3 8 81 140 100 168 9 15 20 35 23 45 4 9 10 17 15 17 5 0 9 6 9 13 0 6 18 27 40 45 57 47 59 26 11 -99 -66 -173 -86 -262 -85 -366 2 -113 16 -143 69 -143 45 0 56 21 39 71 -24 70 1 211 75 421 30 87 38 189 16 222 -19 29 -41 32 -99 11z" />
</ns0:g>
</g><g transform="translate(-0.6594779334943155,1042.0279656345745) scale(0.05739972241727762)"><ns0:metadata>
Created by potrace 1.16, written by Peter Selinger 2001-2019
</ns0:metadata>
<ns0:g transform="translate(0.000000,211.000000) scale(0.100000,-0.100000)" fill="#000000" stroke="none">
<ns0:path d="M1073 1360 c-12 -5 -29 -22 -37 -38 -22 -43 -66 -173 -61 -182 8 -14 -34 -163 -65 -227 -21 -44 -30 -73 -26 -89 7 -28 49 -48 81 -40 24 7 65 67 65 95 0 28 78 175 106 202 l24 22 0 -126 c0 -138 9 -172 48 -182 28 -7 67 22 75 58 10 41 32 92 66 152 52 92 122 197 128 192 3 -3 -7 -63 -21 -134 -34 -171 -40 -375 -12 -415 14 -22 22 -26 36 -18 26 14 29 28 41 189 5 80 16 167 24 193 18 63 40 277 31 311 -8 34 -44 44 -83 24 -40 -21 -117 -105 -144 -158 -30 -60 -69 -110 -81 -103 -5 3 -8 27 -7 52 1 26 -2 71 -6 100 -6 43 -13 56 -32 65 -17 8 -27 7 -35 -1 -20 -20 -35 -14 -43 15 -12 51 -29 60 -72 43z" />
</ns0:g>
</g><g transform="translate(-2.538154089864804,1218.6183814105918) scale(0.05739972241727762)"><ns0:metadata>
Created by potrace 1.16, written by Peter Selinger 2001-2019
</ns0:metadata>
<ns0:g transform="translate(0.000000,210.000000) scale(0.100000,-0.100000)" fill="#000000" stroke="none">
<ns0:path d="M756 1009 c-35 -51 -5 -121 57 -133 20 -4 50 0 74 8 37 13 223 15 348 4 l30 -3 -2 63 c-1 35 -3 65 -5 67 -2 1 -112 6 -244 10 l-242 7 -16 -23z" />
</ns0:g>
</g><g transform="translate(-2.1642161139760674,1348.9396340939043) scale(0.05739972241727762)"><ns0:metadata>
Created by potrace 1.16, written by Peter Selinger 2001-2019
</ns0:metadata>
<ns0:g transform="translate(0.000000,210.000000) scale(0.100000,-0.100000)" fill="#000000" stroke="none">
<ns0:path d="M462 1484 c-15 -10 -22 -25 -22 -49 0 -37 -64 -197 -86 -216 -8 -6 -14 -18 -14 -25 0 -8 -24 -47 -53 -87 -30 -39 -60 -83 -67 -96 -7 -13 -30 -43 -51 -66 -35 -37 -38 -46 -30 -68 6 -14 23 -33 38 -41 26 -13 34 -12 82 4 29 11 58 23 65 29 6 5 29 13 50 17 l40 7 -29 -49 c-15 -27 -35 -58 -44 -69 -9 -11 -37 -49 -60 -85 -24 -36 -60 -82 -79 -102 -32 -33 -35 -41 -26 -65 6 -18 24 -36 50 -49 l41 -21 -28 -34 c-37 -44 -37 -78 0 -113 26 -25 35 -27 83 -23 113 10 307 78 335 118 7 9 31 20 52 24 53 9 62 22 53 76 -7 41 -10 44 -42 49 -30 5 -40 1 -73 -32 -26 -24 -57 -42 -95 -53 -31 -9 -73 -26 -94 -36 -28 -15 -38 -16 -38 -6 0 7 5 18 11 24 6 6 12 21 14 34 2 13 6 33 10 44 9 31 -16 56 -63 62 -23 3 -42 10 -42 14 0 5 3 9 8 9 4 0 12 9 17 19 6 11 37 58 70 106 33 48 69 102 81 121 11 19 30 44 42 57 12 13 22 29 22 35 0 7 18 32 40 56 37 40 40 48 40 101 l0 58 -34 -6 c-32 -5 -97 -42 -104 -60 -2 -4 -38 -28 -80 -53 -43 -24 -85 -50 -94 -57 -26 -18 -34 0 -11 26 36 39 89 120 122 187 18 36 39 77 47 92 15 27 34 114 34 154 0 27 -24 54 -48 54 -10 0 -28 -7 -40 -16z" />
<ns0:path d="M1303 1444 c-18 -8 -59 -33 -90 -56 -32 -24 -74 -52 -93 -62 -53 -29 -110 -78 -110 -93 0 -8 7 -25 16 -38 22 -34 59 -32 101 6 19 16 37 28 39 26 3 -2 -5 -75 -16 -161 -12 -88 -22 -229 -24 -319 -1 -89 -8 -178 -14 -197 -7 -19 -17 -54 -22 -78 -12 -46 -35 -62 -91 -62 -61 0 -159 -61 -159 -100 0 -29 30 -60 59 -60 15 0 72 12 126 26 104 28 117 28 410 21 114 -2 155 13 155 57 0 39 -26 51 -114 51 -73 1 -261 26 -272 38 -2 2 3 49 12 103 9 54 17 169 19 254 2 170 17 290 47 390 29 97 59 170 69 170 19 0 31 45 20 73 -12 30 -21 32 -68 11z m-113 -538 c0 -3 -4 -8 -10 -11 -5 -3 -10 -1 -10 4 0 6 5 11 10 11 6 0 10 -2 10 -4z" />
</ns0:g>
</g></svg>