<?xml version='1.0' encoding='utf-8'?>
<svg xmlns:ns0="http://www.w3.org/2000/svg" xmlns="http://www.w3.org/2000/svg" width="235" height="152" viewBox="0 0 235 152"><g transform="translate(2.974964174218769,-114.02502076613177) scale(0.06415263093695735)"><ns0:metadata>
Created by potrace 1.16, written by Peter Selinger 2001-2019
</ns0:metadata>
<ns0:g transform="translate(0.000000,207.000000) scale(0.100000,-0.100000)" fill="#000000" stroke="none">
<ns0:path d="M514 1367 c-27 -18 -60 -38 -74 -44 -62 -29 -124 -53 -136 -53 -8 0 -21 -17 -30 -37 -15 -36 -15 -40 3 -73 22 -43 55 -50 94 -21 35 26 44 26 76 2 30 -24 51 -18 60 18 8 31 30 50 59 51 47 0 39 -78 -12 -116 -44 -34 -59 -81 -41 -125 13 -31 12 -37 -10 -71 -19 -28 -22 -41 -14 -56 12 -23 46 -46 80 -55 30 -7 81 46 116 121 33 71 59 81 188 75 53 -3 97 -9 97 -14 0 -11 -106 -167 -134 -198 -11 -12 -42 -41 -68 -63 -41 -34 -59 -41 -133 -55 -68 -12 -85 -19 -85 -33 0 -22 37 -30 135 -30 117 0 131 6 214 87 41 40 84 91 96 112 11 22 41 70 66 108 50 74 72 160 47 180 -7 6 -78 11 -162 11 -96 0 -153 5 -160 12 -6 6 -11 45 -11 90 -1 90 -17 122 -74 152 -18 9 -40 26 -48 37 -22 33 -80 28 -139 -12z" />
</ns0:g>
</g><g transform="translate(-0.10942050320528551,73.45880370105633) scale(0.06415263093695735)"><ns0:metadata>
Created by potrace 1.16, written by Peter Selinger 2001-2019
</ns0:metadata>
<ns0:g transform="translate(0.000000,214.000000) scale(0.100000,-0.100000)" fill="#000000" stroke="none">
<ns0:path d="M1315 1450 c-3 -5 -22 -10 -41 -10 -19 0 -42 -4 -52 -9 -31 -16 -86 -30 -144 -36 -67 -8 -118 -36 -118 -65 0 -23 45 -70 67 -70 7 0 29 6 47 14 18 7 55 18 82 24 27 6 58 14 68 18 23 9 23 9 -38 -224 -47 -181 -52 -247 -26 -342 16 -57 25 -66 57 -54 l28 9 6 125 c7 138 24 211 94 400 54 146 60 185 34 211 -20 20 -54 25 -64 9z" />
</ns0:g>
</g><g transform="translate(0.4286066900332912,245.5859268472346) scale(0.06415263093695735)"><ns0:metadata>
Created by potrace 1.16, written by Peter Selinger 2001-2019
</ns0:metadata>
<ns0:g transform="translate(0.000000,214.000000) scale(0.100000,-0.100000)" fill="#000000" stroke="none">
<ns0:path d="M1328 1472 c-1 -5 -36 -28 -76 -52 -73 -43 -91 -48 -252 -71 -94 -14 -110 -22 -110 -59 0 -57 66 -89 121 -59 11 5 50 18 87 28 37 11 77 22 90 26 23 8 23 7 17 -41 -9 -73 -26 -145 -41 -184 -8 -19 -19 -68 -24 -109 -6 -40 -12 -76 -15 -80 -12 -20 -32 -204 -28 -254 6 -66 30 -91 80 -85 l28 3 7 120 c8 160 31 273 129 637 5 20 20 50 32 65 26 31 34 88 16 109 -12 15 -55 19 -61 6z" />
</ns0:g>
</g></svg>