<?xml version='1.0' encoding='utf-8'?>
<svg xmlns:ns0="http://www.w3.org/2000/svg" xmlns="http://www.w3.org/2000/svg" width="235" height="121" viewBox="0 0 235 121"><g transform="translate(-2.095239449743076,-120.02534054701408) scale(0.051068870680077885)"><ns0:metadata>
Created by potrace 1.16, written by Peter Selinger 2001-2019
</ns0:metadata>
<ns0:g transform="translate(0.000000,203.000000) scale(0.100000,-0.100000)" fill="#000000" stroke="none">
<ns0:path d="M1096 1971 c-10 -11 -31 -25 -47 -31 -25 -11 -32 -10 -47 3 -35 32 -96 -4 -116 -69 -8 -25 -55 -49 -69 -35 -5 5 -24 -1 -50 -19 -23 -15 -56 -31 -73 -34 -34 -8 -80 -50 -86 -79 -5 -29 -172 -95 -286 -114 -35 -6 -72 -44 -72 -74 0 -23 46 -59 77 -59 14 0 57 16 97 36 39 20 85 41 101 48 17 7 53 23 80 35 l50 22 43 -21 c48 -24 70 -23 86 2 8 13 6 21 -7 36 -23 26 -21 40 8 54 14 6 25 15 25 20 0 4 7 8 15 8 18 0 19 7 -4 -98 -11 -48 -22 -110 -26 -138 l-7 -52 -60 -12 c-33 -6 -79 -20 -102 -30 -63 -28 -227 -88 -261 -96 -16 -4 -35 -11 -42 -16 -28 -22 -133 -70 -191 -87 -34 -11 -78 -31 -97 -46 -29 -21 -35 -33 -35 -64 0 -39 14 -61 38 -61 8 0 92 38 186 84 199 97 241 116 262 116 8 0 25 5 37 12 12 7 49 22 82 34 33 12 98 36 144 53 46 17 91 31 101 31 9 0 43 9 76 21 32 11 83 27 113 35 30 9 71 24 90 34 20 11 70 31 111 46 41 15 95 36 120 47 91 41 229 64 160 27 -17 -9 -50 -58 -50 -75 0 -12 24 -3 63 24 82 56 156 101 165 101 17 0 43 51 40 78 -3 27 -3 27 -81 25 -86 -3 -253 -51 -412 -118 -16 -7 -50 -19 -75 -25 -25 -7 -61 -20 -80 -30 -19 -10 -53 -24 -75 -31 -22 -6 -44 -15 -50 -19 -17 -13 -114 -34 -121 -27 -4 4 13 49 39 100 25 50 48 103 52 117 18 70 68 164 93 175 12 5 22 13 22 17 0 5 7 8 15 8 8 0 15 5 15 11 0 5 14 15 30 21 32 11 46 42 35 77 -8 26 -27 27 -49 2z m-776 -770 c0 -12 -20 -25 -27 -18 -7 7 6 27 18 27 5 0 9 -4 9 -9z" />
<ns0:path d="M802 1258 c-5 -7 -12 -69 -14 -137 l-4 -124 -35 -28 c-119 -99 -126 -109 -91 -135 20 -16 78 -18 87 -4 3 6 13 10 21 10 11 0 14 -15 14 -65 l0 -64 -62 -3 c-57 -3 -63 -5 -66 -25 -6 -39 -17 -25 -31 36 -14 62 -36 95 -72 106 -41 13 -89 -61 -59 -91 21 -21 62 -162 67 -229 5 -88 19 -106 58 -72 32 27 47 101 34 171 -4 23 -6 43 -4 45 2 2 16 -6 31 -18 17 -13 41 -21 65 -21 35 0 39 -3 39 -24 0 -45 -17 -71 -84 -125 -55 -44 -66 -58 -64 -79 4 -36 29 -48 74 -36 30 7 42 18 58 48 15 29 30 42 52 48 37 9 60 40 69 91 4 20 13 41 21 48 22 18 18 77 -6 91 -22 14 -24 38 -13 176 l6 82 58 39 c32 21 79 48 106 60 26 13 55 27 63 32 58 37 120 50 120 25 0 -7 -15 -46 -33 -87 -19 -41 -39 -96 -45 -124 -17 -80 -49 -234 -62 -305 -25 -134 -50 -190 -85 -190 -18 0 -25 -5 -25 -20 0 -23 28 -40 66 -40 32 0 84 44 84 71 0 9 6 19 13 22 8 3 28 69 50 159 19 84 45 191 56 238 11 47 36 132 56 189 29 84 35 116 33 165 l-3 61 -44 -2 c-26 -1 -74 -17 -120 -39 -42 -20 -107 -47 -144 -60 -37 -12 -79 -32 -94 -44 -14 -11 -30 -20 -34 -20 -5 0 -9 40 -9 89 0 68 -4 93 -16 105 -19 19 -68 21 -82 4z" />
<ns0:path d="M1197 153 c-30 -5 -27 -23 4 -23 11 0 22 -8 26 -17 3 -10 17 -30 30 -44 19 -20 30 -25 51 -20 48 11 65 26 59 52 -12 47 -74 66 -170 52z" />
<ns0:path d="M640 138 c-46 -13 -100 -54 -100 -77 0 -48 90 -73 153 -43 15 6 37 17 50 23 39 18 80 56 73 68 -9 14 -41 14 -67 1 -16 -9 -21 -7 -29 15 -10 27 -24 29 -80 13z" />
</ns0:g>
</g><g transform="translate(-1.0181650597345993,29.591155633334722) scale(0.051068870680077885)"><ns0:metadata>
Created by potrace 1.16, written by Peter Selinger 2001-2019
</ns0:metadata>
<ns0:g transform="translate(0.000000,210.000000) scale(0.100000,-0.100000)" fill="#000000" stroke="none">
<ns0:path d="M755 1907 c-37 -22 -43 -42 -50 -147 -11 -192 -6 -178 -92 -246 -87 -66 -229 -161 -255 -170 -41 -13 -34 -89 10 -105 49 -19 92 -2 152 59 82 83 141 134 147 128 3 -3 1 -63 -4 -134 l-9 -129 -49 -79 c-26 -43 -58 -90 -70 -104 -35 -40 -59 -89 -95 -190 -18 -52 -44 -119 -57 -149 -13 -30 -27 -68 -30 -85 -4 -17 -28 -68 -55 -114 -45 -76 -52 -102 -27 -102 15 0 89 81 109 120 10 19 32 47 47 61 16 15 41 59 57 100 16 41 39 95 52 120 13 26 24 54 24 62 0 9 12 29 26 44 l25 28 -5 -95 c-3 -52 -9 -162 -12 -245 -6 -141 -5 -152 14 -175 18 -23 22 -23 46 -11 22 12 32 34 27 64 -2 11 28 404 35 465 3 28 10 52 14 52 11 0 80 -37 108 -58 l23 -18 -31 -74 c-17 -41 -38 -93 -46 -115 -8 -21 -20 -46 -28 -55 -7 -8 -21 -35 -30 -59 -38 -97 30 -62 86 44 11 22 37 60 57 85 62 76 121 179 121 211 0 32 25 89 39 89 8 0 110 226 126 278 4 13 28 67 55 120 26 53 51 107 54 120 4 12 11 22 16 22 4 0 10 17 12 38 3 20 14 59 24 85 l19 49 -23 19 c-21 16 -27 17 -55 6 -29 -11 -35 -23 -62 -103 -16 -50 -35 -102 -42 -115 -24 -50 -92 -216 -107 -259 -27 -80 -126 -281 -141 -286 -18 -7 -55 16 -119 72 -55 49 -58 70 -12 89 34 15 46 31 46 67 0 15 -6 19 -27 16 l-28 -3 2 102 c1 84 5 107 21 130 23 33 30 54 49 143 22 102 21 105 -7 105 -23 0 -25 4 -24 44 1 36 7 49 38 78 45 42 45 72 1 86 -16 5 -37 16 -46 23 -18 16 -18 16 -44 1z" />
<ns0:path d="M1333 1528 c-35 -44 -17 -80 57 -119 25 -13 56 -32 69 -41 34 -26 48 -22 56 12 8 35 -16 76 -74 127 -38 34 -90 44 -108 21z" />
<ns0:path d="M1225 1106 c-11 -7 -37 -19 -58 -26 -24 -7 -42 -21 -47 -35 -5 -13 -12 -79 -15 -146 -4 -94 -12 -147 -35 -224 -40 -139 -137 -340 -188 -386 -76 -71 -90 -111 -50 -149 31 -29 54 -25 96 18 21 20 46 45 57 54 11 10 29 27 40 39 11 12 36 32 55 45 19 13 60 45 90 70 107 88 176 137 216 154 23 10 45 23 48 29 15 24 25 9 31 -46 11 -91 77 -319 99 -340 23 -24 27 103 9 302 -5 55 -7 134 -3 175 4 46 2 82 -4 92 -8 13 -7 21 2 30 22 22 13 46 -19 57 -46 16 -65 14 -94 -11 -24 -21 -25 -26 -14 -56 6 -18 8 -48 5 -67 -6 -31 -14 -37 -99 -78 -51 -24 -98 -51 -106 -60 -7 -9 -19 -17 -27 -17 -7 0 -24 -11 -37 -23 -30 -31 -76 -61 -83 -55 -3 3 4 25 14 49 52 117 95 288 108 423 3 35 16 83 31 113 34 68 23 101 -22 69z" />
</ns0:g>
</g><g transform="translate(0.5206033602066782,168.22797925371844) scale(0.051068870680077885)"><ns0:metadata>
Created by potrace 1.16, written by Peter Selinger 2001-2019
</ns0:metadata>
<ns0:g transform="translate(0.000000,207.000000) scale(0.100000,-0.100000)" fill="#000000" stroke="none">
<ns0:path d="M915 2060 c28 -12 55 -12 55 0 0 6 -17 10 -37 9 -31 0 -34 -2 -18 -9z" />
<ns0:path d="M1020 2036 c-41 -18 -97 -44 -125 -59 -27 -14 -69 -34 -92 -46 -24 -11 -43 -25 -43 -30 0 -6 -3 -10 -7 -10 -28 5 -50 -8 -103 -58 -66 -64 -79 -102 -39 -124 30 -15 87 -4 115 22 30 28 30 25 0 -97 -13 -54 -27 -117 -31 -139 -3 -22 -22 -76 -40 -120 -51 -120 -85 -215 -85 -236 0 -11 -4 -27 -9 -37 -25 -47 -70 -151 -81 -184 -6 -21 -16 -40 -21 -43 -5 -4 -9 -14 -9 -23 0 -28 -103 -225 -136 -262 -15 -16 -23 -37 -22 -60 0 -19 -6 -55 -15 -80 -8 -25 -24 -83 -35 -130 -11 -47 -39 -137 -61 -200 -22 -63 -41 -116 -41 -117 0 -2 22 -3 49 -3 46 0 49 2 61 33 11 29 28 71 65 162 7 17 23 73 34 125 28 121 58 196 88 215 28 19 28 15 3 -35 -37 -73 -23 -104 57 -130 35 -11 53 -11 100 -1 32 7 65 19 73 26 8 8 27 17 42 20 24 6 30 2 48 -27 20 -34 74 -68 110 -68 24 0 89 -75 104 -120 6 -19 23 -41 38 -50 25 -14 28 -13 42 5 9 11 16 28 16 37 0 9 6 23 13 30 8 9 12 56 13 153 1 214 9 270 46 304 40 37 186 114 204 107 12 -4 7 -20 -21 -76 -53 -105 -48 -127 45 -200 48 -38 86 -60 104 -60 6 0 43 -15 81 -34 202 -99 270 -119 374 -111 73 6 93 14 89 33 -3 17 -25 24 -124 40 -59 10 -226 81 -239 102 -3 5 -30 21 -60 34 -29 14 -56 29 -59 35 -4 5 -19 12 -35 16 -38 8 -81 51 -81 82 0 23 8 39 56 113 30 46 54 142 42 164 -14 24 -29 20 -131 -34 -52 -27 -101 -50 -110 -50 -9 0 -20 -6 -24 -14 -4 -7 -32 -25 -61 -40 -44 -22 -53 -24 -58 -11 -9 22 13 167 26 175 6 4 10 11 9 16 -3 19 13 50 31 62 19 12 45 2 163 -59 42 -22 67 -14 67 22 0 10 5 21 10 24 6 3 10 33 10 66 0 40 4 60 13 61 6 1 31 2 55 3 23 1 45 5 48 8 4 3 9 26 11 51 5 41 3 45 -25 60 -17 9 -47 16 -67 16 l-35 0 5 121 c3 66 1 128 -4 137 -17 34 6 159 43 235 45 93 65 153 59 177 -7 28 -81 28 -116 0 -14 -11 -42 -27 -61 -35 -20 -9 -36 -19 -36 -24 0 -6 -8 -12 -18 -15 -10 -4 -28 -15 -39 -25 -23 -22 -77 -51 -94 -51 -6 0 -17 8 -24 17 -10 14 -19 15 -46 7 -31 -9 -35 -14 -43 -61 -7 -42 -13 -53 -40 -67 -41 -21 -155 -99 -185 -126 -12 -12 -25 -19 -27 -17 -8 8 18 99 43 154 13 28 42 69 63 91 43 43 50 66 23 76 -15 6 -14 9 7 21 53 30 117 65 166 89 27 14 75 39 105 56 l54 30 -95 0 c-86 0 -102 -3 -170 -34z m-130 -186 c0 -5 -2 -10 -4 -10 -3 0 -8 5 -11 10 -3 6 -1 10 4 10 6 0 11 -4 11 -10z m480 -111 c-11 -40 -20 -94 -20 -119 0 -25 -3 -61 -6 -82 -6 -32 -12 -38 -53 -54 -25 -10 -63 -21 -83 -24 l-38 -7 0 50 c0 28 5 79 11 114 9 53 16 66 43 85 17 12 35 28 39 35 4 7 14 13 21 13 7 0 33 15 57 34 24 19 45 33 47 31 1 -1 -6 -36 -18 -76z m-310 -234 c0 -41 0 -78 1 -82 0 -3 -27 -21 -61 -39 -114 -59 -118 -92 -21 -164 68 -50 81 -70 81 -120 0 -37 -11 -49 -71 -73 -30 -13 -80 -40 -111 -60 -31 -20 -63 -37 -70 -37 -7 0 -37 -16 -65 -35 -29 -19 -56 -35 -61 -35 -5 0 -17 -9 -27 -20 -17 -19 -97 -70 -109 -70 -3 0 -6 5 -6 10 0 11 48 140 99 265 47 115 79 199 86 223 4 12 20 52 36 88 25 54 33 64 49 59 21 -7 96 12 119 29 7 6 23 15 35 21 11 6 23 22 24 35 2 14 12 33 23 43 10 10 19 22 19 27 0 6 7 10 15 10 12 0 15 -15 15 -75z m290 -184 c0 -97 -5 -107 -77 -137 l-66 -28 -23 28 c-20 22 -23 34 -18 69 10 71 23 94 56 101 16 3 37 2 46 -3 12 -6 26 -4 42 5 37 20 40 18 40 -35z m-319 -413 c1 -7 1 -15 1 -18 -10 -214 -9 -209 -82 -247 -19 -10 -48 -27 -65 -38 -42 -29 -66 -42 -100 -59 -29 -14 -31 -13 -52 12 -40 50 -40 173 1 194 12 6 25 17 29 24 4 8 14 14 21 14 7 0 35 16 62 35 27 19 52 35 56 35 4 0 29 14 55 30 50 32 72 37 74 18z m-203 -26 c2 -7 -3 -12 -12 -12 -9 0 -16 7 -16 16 0 17 22 14 28 -4z m172 -293 c0 -20 -22 -204 -26 -217 -3 -11 -11 -9 -36 6 -18 11 -49 23 -69 27 -24 4 -44 17 -58 35 l-21 29 23 13 c56 31 97 61 97 69 0 8 67 48 83 49 4 0 7 -5 7 -11z m-340 -87 c0 -15 -8 -26 -26 -32 -28 -11 -74 -13 -74 -4 0 3 16 26 36 50 34 41 38 43 50 27 7 -10 14 -28 14 -41z" />
</ns0:g>
</g></svg>