<?xml version='1.0' encoding='utf-8'?>
<svg xmlns:ns0="http://www.w3.org/2000/svg" xmlns="http://www.w3.org/2000/svg" width="235" height="152" viewBox="0 0 235 152"><g transform="translate(-2.6597655849454895,-146.8620673005905) scale(0.06415263093695735)"><ns0:metadata>
Created by potrace 1.16, written by Peter Selinger 2001-2019
</ns0:metadata>
<ns0:g transform="translate(0.000000,203.000000) scale(0.100000,-0.100000)" fill="#000000" stroke="none">
<ns0:path d="M1285 1267 c-33 -13 -71 -30 -85 -39 -14 -9 -38 -20 -55 -23 -16 -4 -55 -16 -85 -27 -41 -15 -69 -18 -110 -14 -45 5 -61 2 -87 -14 -41 -25 -47 -67 -16 -102 20 -23 43 -23 144 2 131 31 238 68 314 108 78 42 103 74 81 107 -18 27 -31 27 -101 2z" />
<ns0:path d="M1405 892 c-13 -11 -156 -41 -225 -46 -64 -6 -214 -45 -281 -74 -73 -32 -101 -89 -61 -125 26 -23 34 -22 109 18 36 19 74 35 84 35 10 0 40 7 66 16 26 9 57 17 70 19 59 6 203 40 203 47 0 4 6 8 14 8 7 0 34 9 59 20 47 21 66 53 45 77 -12 14 -69 18 -83 5z" />
<ns0:path d="M1614 535 c-9 -24 -50 -41 -144 -60 -47 -10 -109 -29 -139 -42 -29 -12 -64 -23 -76 -23 -30 0 -198 -55 -227 -74 -13 -8 -59 -24 -103 -36 -44 -12 -102 -29 -130 -37 -27 -8 -67 -19 -88 -24 -45 -11 -116 -54 -124 -75 -9 -23 13 -63 42 -76 21 -9 33 -7 77 17 60 31 195 80 251 90 20 4 37 11 37 16 0 5 9 9 19 9 11 0 32 6 48 14 53 27 128 53 203 71 41 10 85 23 96 31 26 16 153 42 254 52 l75 7 9 48 c11 58 3 76 -43 94 -27 11 -32 11 -37 -2z" />
</ns0:g>
</g><g transform="translate(1.8729131021645458,33.16838122007718) scale(0.06415263093695735)"><ns0:metadata>
Created by potrace 1.16, written by Peter Selinger 2001-2019
</ns0:metadata>
<ns0:g transform="translate(0.000000,217.000000) scale(0.100000,-0.100000)" fill="#000000" stroke="none">
<ns0:path d="M1795 2000 c-20 -5 -72 -49 -160 -137 -71 -72 -145 -138 -163 -147 -37 -19 -109 -72 -158 -116 -17 -16 -62 -49 -99 -75 -37 -27 -85 -64 -105 -84 -35 -34 -38 -41 -44 -116 -4 -44 -12 -105 -18 -135 -6 -30 -12 -138 -12 -240 -1 -173 -2 -185 -19 -182 -10 2 -27 12 -38 23 -10 10 -26 19 -35 19 -13 0 -149 63 -162 75 -2 2 4 40 13 86 9 46 34 189 55 318 24 143 45 240 54 250 8 9 18 36 22 60 4 26 13 45 23 47 100 30 190 114 160 150 -15 19 -29 17 -59 -6 -14 -11 -31 -20 -37 -20 -7 0 -29 25 -49 55 -30 44 -42 55 -64 55 -54 0 -70 -26 -77 -125 -6 -86 -8 -91 -40 -122 -19 -18 -41 -33 -48 -33 -8 0 -22 -9 -32 -19 -10 -11 -55 -38 -100 -61 -46 -23 -83 -46 -83 -51 0 -6 -16 -17 -35 -25 -42 -17 -55 -53 -31 -89 9 -14 27 -27 40 -31 56 -14 206 53 206 93 0 15 67 89 74 82 6 -6 -23 -206 -34 -235 -5 -13 -17 -27 -25 -30 -8 -4 -15 -15 -15 -25 0 -23 -9 -24 -24 -3 -21 28 -83 -7 -151 -84 -32 -37 -65 -74 -72 -82 -46 -50 -121 -190 -175 -325 -12 -27 -24 -59 -29 -70 -12 -30 -69 -217 -69 -226 0 -17 27 -9 46 14 26 30 64 101 64 120 0 9 9 25 20 35 12 11 24 37 27 58 3 22 14 50 25 63 10 13 18 30 18 37 0 7 6 17 14 21 7 4 26 31 40 58 15 28 39 70 54 95 31 54 195 220 217 220 18 0 19 -31 5 -92 -5 -24 -14 -61 -18 -83 -5 -24 -14 -39 -21 -37 -47 10 -85 4 -102 -17 -17 -21 -17 -25 -4 -52 9 -16 19 -29 24 -29 5 0 20 -12 35 -26 34 -35 34 -87 1 -249 -31 -148 -44 -327 -25 -350 14 -16 47 -20 68 -6 8 5 15 36 17 82 7 110 14 162 41 292 13 64 24 133 24 152 0 18 4 37 10 40 5 3 33 -1 62 -9 29 -8 87 -24 128 -34 l75 -19 -3 -67 c-1 -37 -10 -88 -19 -114 -9 -26 -17 -71 -18 -100 -2 -61 -18 -83 -110 -145 -33 -23 -67 -49 -75 -59 -8 -10 -40 -31 -70 -46 -49 -25 -55 -32 -58 -63 -3 -30 1 -36 33 -53 30 -16 40 -18 56 -8 27 17 122 52 183 67 28 7 65 18 81 24 17 6 64 23 105 37 261 91 355 125 401 149 19 10 61 21 94 24 50 5 60 9 63 26 4 29 -43 54 -93 49 -46 -4 -165 -34 -180 -45 -5 -4 -39 -15 -75 -24 -36 -9 -75 -23 -87 -31 -13 -8 -53 -21 -90 -29 -38 -7 -83 -21 -101 -30 -70 -35 -62 -10 26 80 181 186 272 298 328 408 9 16 18 27 21 24 8 -8 53 -189 53 -214 0 -13 11 -30 26 -39 24 -16 26 -16 46 3 24 24 37 150 37 374 1 149 29 399 65 584 13 66 27 137 30 157 8 47 88 204 121 239 19 19 25 36 25 71 0 53 -4 57 -45 48z m-199 -332 c-4 -13 -11 -54 -16 -93 -5 -38 -17 -101 -25 -140 -33 -150 -54 -320 -56 -455 -1 -61 -6 -113 -10 -116 -5 -3 -9 0 -9 7 0 7 -8 31 -19 53 -22 48 -51 153 -51 184 0 12 15 42 34 66 39 52 55 118 34 143 -21 26 -73 43 -132 43 -44 0 -59 -5 -76 -22 -23 -25 -26 -63 -5 -71 8 -4 23 -23 33 -44 38 -75 38 -77 -19 -138 -58 -60 -126 -112 -136 -102 -13 14 -2 122 16 157 12 23 21 69 25 126 l7 89 52 50 c122 115 260 235 273 235 5 1 23 12 39 25 37 31 49 32 41 3z m-181 -408 c10 -16 -5 -50 -21 -50 -8 0 -14 10 -14 23 0 34 21 50 35 27z m-37 -269 c8 -22 7 -32 -2 -40 -18 -15 -92 -25 -100 -13 -7 12 72 94 84 87 4 -3 13 -18 18 -34z m-81 -145 c118 9 119 -6 8 -156 -42 -57 -237 -260 -250 -260 -8 0 0 36 17 77 6 15 17 51 24 78 7 28 17 68 23 90 6 22 11 63 11 90 1 85 6 94 48 84 21 -5 74 -6 119 -3z" />
</ns0:g>
</g><g transform="translate(-2.6572996311998622,217.1502347548015) scale(0.06415263093695735)"><ns0:metadata>
Created by potrace 1.16, written by Peter Selinger 2001-2019
</ns0:metadata>
<ns0:g transform="translate(0.000000,210.000000) scale(0.100000,-0.100000)" fill="#000000" stroke="none">
<ns0:path d="M1171 2064 c-23 -20 -77 -55 -121 -78 -43 -22 -118 -69 -166 -103 -48 -35 -91 -63 -95 -63 -5 0 -11 17 -14 38 -11 60 -37 152 -46 157 -14 9 -89 -36 -89 -54 0 -9 7 -48 15 -86 25 -119 23 -129 -41 -188 -31 -29 -60 -56 -65 -62 -77 -85 -89 -139 -40 -168 37 -22 49 -17 86 38 17 24 32 45 35 45 3 0 34 27 69 60 35 33 67 58 71 55 8 -5 14 -33 55 -227 8 -40 15 -92 15 -116 0 -45 23 -111 43 -124 15 -10 57 -10 57 0 0 61 -24 292 -35 340 -19 82 -19 149 -1 159 26 15 67 84 61 103 -4 14 7 29 45 59 29 23 58 41 65 41 8 0 33 18 56 40 23 22 47 40 52 40 13 0 117 105 117 119 0 6 -18 11 -43 11 -35 0 -51 -7 -86 -36z" />
<ns0:path d="M1237 1945 c-17 -16 -43 -124 -52 -210 -3 -33 -12 -98 -20 -145 -25 -152 -35 -230 -35 -263 0 -31 -24 -160 -36 -190 -4 -12 -115 -87 -129 -87 -2 0 -32 -18 -66 -40 -35 -22 -75 -46 -89 -52 -59 -29 -161 -102 -181 -130 -20 -28 -21 -33 -8 -104 8 -45 18 -74 25 -74 7 0 30 -20 51 -45 21 -26 58 -58 83 -72 52 -30 100 -72 100 -87 0 -6 -14 -26 -30 -45 -17 -18 -30 -37 -30 -40 0 -4 -8 -16 -18 -27 -10 -10 -31 -37 -47 -59 -49 -65 -166 -176 -184 -173 -8 2 -20 17 -25 33 -13 40 -16 42 -26 25 -16 -24 -11 -56 11 -84 26 -33 70 -34 120 -3 50 31 186 160 193 185 4 11 22 32 41 47 19 14 35 32 35 40 0 21 29 45 54 45 13 0 49 -9 82 -21 68 -24 291 -76 379 -88 89 -13 341 -10 500 4 77 8 141 14 143 14 1 1 2 15 2 31 l0 30 -147 -6 c-82 -3 -166 -8 -188 -9 -57 -4 -259 14 -330 30 -220 49 -313 78 -345 105 -32 27 -33 30 -18 47 9 10 23 34 32 53 16 34 45 79 85 131 11 14 42 68 69 121 27 53 53 102 58 109 5 8 16 36 26 62 9 26 32 69 50 95 19 26 40 71 47 101 13 50 12 55 -5 68 -11 8 -30 12 -44 9 -24 -4 -134 -66 -154 -86 -15 -15 -36 -12 -36 4 0 7 6 19 14 25 7 6 19 46 25 89 12 79 17 106 50 297 11 61 22 144 25 186 4 42 11 90 16 108 6 23 5 35 -6 46 -19 19 -48 19 -67 0z m-3 -887 c-10 -35 -71 -151 -142 -273 -35 -60 -81 -138 -101 -172 -20 -35 -40 -63 -46 -63 -5 0 -28 16 -49 35 -22 19 -43 35 -48 35 -10 0 -68 60 -68 71 0 5 -9 18 -20 29 -39 39 -32 49 80 124 36 23 76 50 90 59 101 67 129 85 157 96 18 7 38 20 45 29 12 14 82 50 101 51 5 1 5 -9 1 -21z m-174 -433 c0 -8 -4 -15 -10 -15 -5 0 -10 7 -10 15 0 8 5 15 10 15 6 0 10 -7 10 -15z" />
<ns0:path d="M1402 1723 c-48 -9 -50 -71 -4 -93 15 -7 35 -16 44 -21 30 -15 47 -10 54 17 10 38 -31 106 -61 102 -5 0 -20 -3 -33 -5z" />
<ns0:path d="M690 1449 c-22 -22 -51 -60 -64 -82 -61 -106 -87 -154 -93 -172 -11 -33 -191 -384 -244 -474 -55 -94 -62 -124 -27 -119 23 3 87 78 135 158 14 25 32 50 39 55 23 19 67 100 198 360 72 143 132 272 134 288 5 41 -29 35 -78 -14z" />
</ns0:g>
</g><g transform="translate(-0.7033899266500612,398.0314337940116) scale(0.06415263093695735)"><ns0:metadata>
Created by potrace 1.16, written by Peter Selinger 2001-2019
</ns0:metadata>
<ns0:g transform="translate(0.000000,206.000000) scale(0.100000,-0.100000)" fill="#000000" stroke="none">
<ns0:path d="M1370 1926 c-30 -19 -113 -66 -185 -106 -71 -39 -139 -80 -150 -90 -11 -10 -36 -27 -56 -37 -59 -31 -166 -105 -176 -123 -20 -30 -24 -75 -10 -94 8 -10 31 -22 53 -25 31 -6 38 -11 36 -26 -2 -11 -6 -49 -10 -86 -6 -51 -21 -92 -69 -190 -34 -68 -76 -161 -93 -206 -17 -45 -39 -92 -49 -105 -10 -13 -22 -34 -26 -47 -4 -14 -16 -39 -26 -55 -27 -47 -89 -177 -89 -187 0 -14 -47 -105 -63 -120 -7 -8 -48 -84 -90 -169 -43 -85 -86 -167 -95 -182 -13 -22 -14 -30 -4 -40 17 -17 66 31 99 97 14 28 32 57 39 66 8 8 24 35 36 60 25 47 48 82 89 132 14 18 33 46 41 62 92 181 203 393 214 409 8 11 14 29 14 40 0 16 5 18 33 13 20 -3 40 0 52 9 27 20 35 18 35 -9 0 -43 -68 -352 -98 -442 -51 -156 -77 -201 -165 -281 -29 -26 -18 -66 23 -85 33 -16 36 -16 65 5 32 22 152 76 171 76 6 0 21 9 34 20 13 11 42 25 64 31 23 6 59 19 81 29 22 10 65 30 95 44 30 14 64 31 75 38 11 7 44 28 72 46 50 31 73 67 59 91 -9 14 -79 1 -93 -18 -7 -9 -13 -13 -13 -9 0 4 -30 -8 -67 -26 -90 -45 -126 -60 -203 -84 -36 -11 -82 -28 -104 -37 -21 -9 -40 -14 -43 -12 -2 3 9 40 26 83 36 97 67 211 76 284 4 30 12 66 17 80 5 14 14 52 19 85 6 33 16 83 24 110 8 28 17 61 19 75 4 16 24 37 58 59 65 43 118 97 118 122 0 26 -10 24 -81 -12 -33 -16 -72 -35 -86 -40 l-26 -10 6 76 c5 70 8 77 42 109 22 21 35 42 33 53 -3 16 -13 18 -71 15 -71 -3 -72 -2 -58 26 5 9 14 31 20 47 8 19 31 42 66 65 57 35 90 73 80 90 -9 15 -43 12 -70 -6 -23 -15 -25 -15 -25 -1 0 9 10 22 23 28 12 7 45 29 72 50 28 20 77 52 110 69 33 18 69 40 80 50 11 9 48 33 81 53 77 46 91 62 74 82 -21 25 -72 18 -130 -19z m-437 -799 c5 -34 3 -39 -25 -53 -16 -8 -32 -14 -34 -11 -2 2 8 27 22 56 14 29 26 52 28 50 2 -2 6 -21 9 -42z" />
<ns0:path d="M1125 783 c-32 -31 -32 -57 3 -83 15 -11 29 -19 32 -18 14 6 100 -65 100 -82 0 -11 4 -20 10 -20 5 0 18 -10 30 -22 47 -51 60 42 16 116 -14 25 -26 56 -26 70 0 31 -11 38 -82 52 -54 10 -59 9 -83 -13z" />
</ns0:g>
</g><g transform="translate(2.9314309359957633,578.6387495596659) scale(0.06415263093695735)"><ns0:metadata>
Created by potrace 1.16, written by Peter Selinger 2001-2019
</ns0:metadata>
<ns0:g transform="translate(0.000000,206.000000) scale(0.100000,-0.100000)" fill="#000000" stroke="none">
<ns0:path d="M1093 1998 c-28 -30 -29 -67 -3 -96 24 -26 55 -29 68 -6 5 9 18 14 28 12 46 -9 -4 -162 -69 -211 -18 -13 -48 -26 -69 -30 l-36 -5 -6 61 c-4 34 -14 87 -23 117 -9 30 -17 61 -19 68 -5 18 -53 34 -78 26 -46 -15 -58 -59 -27 -102 36 -53 74 -165 73 -220 0 -56 15 -75 43 -52 23 19 31 5 44 -77 7 -43 15 -98 20 -124 4 -25 5 -51 3 -57 -3 -10 -81 -52 -184 -100 -5 -2 -8 4 -8 14 0 9 23 41 50 70 53 56 59 68 35 78 -20 7 -157 -23 -174 -39 -15 -15 -40 -128 -41 -186 0 -42 -24 -66 -125 -128 -38 -23 -88 -56 -110 -72 -22 -16 -51 -37 -65 -47 -44 -30 -140 -129 -150 -156 -14 -37 2 -72 37 -79 44 -9 110 20 122 54 14 40 105 134 169 175 55 36 77 42 69 22 -5 -15 -32 -170 -46 -273 -15 -105 -19 -123 -33 -163 -12 -37 -62 -91 -85 -92 -6 0 -14 -8 -18 -19 -14 -46 29 -75 94 -65 55 9 111 -19 111 -55 0 -46 -88 -105 -186 -124 -23 -4 -37 -1 -52 13 -18 17 -20 27 -15 74 6 54 6 54 -21 49 -36 -7 -86 -67 -86 -102 0 -40 26 -98 50 -111 10 -6 54 -11 97 -12 76 -1 81 1 161 46 93 53 128 97 138 170 8 58 -16 100 -70 121 -76 30 -96 40 -96 48 0 4 11 25 25 45 14 20 25 42 25 49 0 7 16 42 35 79 19 36 35 78 35 94 0 25 15 110 26 149 3 9 11 5 25 -13 11 -14 26 -26 32 -26 7 0 25 -7 40 -15 15 -8 43 -17 62 -21 19 -3 35 -10 35 -14 0 -5 8 -9 18 -9 9 -1 58 -6 107 -12 50 -6 98 -11 109 -10 17 0 56 32 56 46 0 11 -70 35 -103 35 -42 0 -122 27 -138 46 -6 8 -20 14 -31 14 -10 0 -46 14 -81 31 -52 27 -66 30 -89 21 -16 -6 -28 -7 -28 -4 1 24 28 91 43 106 9 10 24 31 32 47 9 16 32 38 53 49 20 11 55 32 77 45 22 14 56 33 75 43 19 9 55 31 80 48 25 16 53 33 64 37 23 9 115 80 116 89 1 18 -53 18 -111 0 -50 -15 -66 -17 -71 -7 -14 23 -10 208 4 242 7 17 35 50 61 73 31 28 47 50 47 65 0 13 7 28 15 32 8 5 22 38 31 74 17 63 17 66 -2 104 -22 45 -53 63 -121 71 -42 5 -51 3 -70 -18z" />
<ns0:path d="M558 1767 c-14 -5 -35 -26 -45 -46 -17 -31 -18 -42 -8 -81 7 -25 17 -45 23 -44 28 2 32 5 46 32 26 48 18 -2 -9 -56 -14 -28 -25 -56 -25 -64 0 -8 -7 -23 -15 -34 -14 -19 -14 -19 -15 3 0 12 -4 23 -9 25 -11 4 -48 105 -61 162 -4 22 -16 46 -27 54 -25 18 -103 7 -124 -18 -24 -28 -10 -82 30 -116 30 -25 121 -152 121 -168 0 -4 7 -23 16 -42 13 -26 22 -34 43 -34 28 0 71 36 71 58 0 7 12 22 26 35 45 38 84 136 90 224 3 43 0 56 -20 81 -14 16 -31 29 -38 29 -7 0 -20 3 -28 6 -8 3 -27 0 -42 -6z" />
<ns0:path d="M1095 551 c-3 -5 -27 -17 -54 -26 -79 -26 -84 -77 -15 -151 67 -72 110 -163 85 -179 -16 -9 -69 35 -80 67 -8 23 -16 29 -33 26 -20 -3 -23 -9 -22 -44 1 -47 31 -97 72 -118 15 -8 37 -23 48 -34 29 -28 86 -38 102 -19 19 22 26 126 12 190 -7 36 -22 71 -39 90 -34 40 -61 83 -61 97 0 6 9 24 21 39 14 19 19 36 14 50 -6 21 -39 29 -50 12z" />
</ns0:g>
</g></svg>