<?xml version='1.0' encoding='utf-8'?>
<svg xmlns:ns0="http://www.w3.org/2000/svg" xmlns="http://www.w3.org/2000/svg" width="235" height="136" viewBox="0 0 235 136"><g transform="translate(0.8604792860961652,-115.17933040116999) scale(0.05739972241727762)"><ns0:metadata>
Created by potrace 1.16, written by Peter Selinger 2001-2019
</ns0:metadata>
<ns0:g transform="translate(0.000000,212.000000) scale(0.100000,-0.100000)" fill="#000000" stroke="none">
<ns0:path d="M911 1561 c-36 -36 -27 -59 32 -86 28 -14 58 -25 65 -25 22 0 97 -56 111 -83 35 -66 -27 -206 -136 -304 -71 -64 -113 -93 -138 -93 -9 0 -9 16 2 72 19 100 -6 455 -34 475 -19 15 -50 8 -75 -16 -19 -19 -34 -150 -31 -276 7 -286 8 -626 1 -715 -9 -117 -1 -151 38 -169 33 -15 60 3 68 43 4 17 6 123 6 236 0 113 -1 215 0 228 0 18 15 29 83 61 45 21 99 53 119 72 20 19 50 44 66 56 16 12 37 38 46 57 9 19 21 38 26 41 6 3 15 26 21 51 6 24 15 44 19 44 13 0 25 60 21 105 -4 48 -34 110 -70 146 -86 85 -197 123 -240 80z" />
</ns0:g>
</g><g transform="translate(-1.0647845886564369,35.230434343255695) scale(0.05739972241727762)"><ns0:metadata>
Created by potrace 1.16, written by Peter Selinger 2001-2019
</ns0:metadata>
<ns0:g transform="translate(0.000000,209.000000) scale(0.100000,-0.100000)" fill="#000000" stroke="none">
<ns0:path d="M1227 1316 c-26 -8 -70 -26 -98 -41 -34 -17 -60 -24 -77 -21 -15 3 -34 0 -42 -7 -37 -30 -91 -121 -158 -267 -12 -25 -30 -61 -41 -80 -52 -89 -161 -331 -174 -385 -20 -80 -21 -177 -4 -217 8 -18 20 -48 27 -66 7 -18 27 -42 44 -54 17 -12 36 -29 42 -36 7 -10 29 -14 65 -14 45 0 67 8 132 44 92 52 227 173 290 260 26 35 60 81 77 103 113 147 138 198 160 328 20 120 7 313 -25 382 -14 29 -31 58 -38 63 -21 18 -128 22 -180 8z m135 -114 c18 -46 30 -240 18 -302 -19 -101 -33 -145 -50 -165 -10 -11 -25 -33 -34 -50 -22 -41 -38 -64 -61 -92 -10 -13 -37 -50 -60 -82 -48 -71 -189 -200 -262 -241 -71 -40 -103 -39 -142 5 -17 20 -34 48 -38 63 -13 52 21 200 71 305 25 53 46 100 46 103 0 13 35 81 58 112 13 17 37 56 53 85 16 28 37 68 48 88 20 36 138 139 159 139 6 0 25 13 43 29 37 34 95 52 122 39 10 -5 23 -21 29 -36z" />
</ns0:g>
</g><g transform="translate(1.0032216580606814,203.10855331799746) scale(0.05739972241727762)"><ns0:metadata>
Created by potrace 1.16, written by Peter Selinger 2001-2019
</ns0:metadata>
<ns0:g transform="translate(0.000000,209.000000) scale(0.100000,-0.100000)" fill="#000000" stroke="none">
<ns0:path d="M946 1349 c-52 -12 -68 -27 -64 -58 3 -23 9 -27 53 -32 28 -3 43 -7 34 -7 -9 -1 -28 -13 -42 -26 -15 -14 -35 -27 -46 -31 -38 -12 -61 -59 -72 -147 -13 -107 -20 -170 -23 -238 -2 -30 -13 -89 -26 -130 -29 -95 -78 -240 -90 -261 -17 -33 -22 -107 -9 -143 11 -31 20 -38 62 -50 90 -26 205 -3 280 58 73 58 187 171 214 211 15 22 35 49 44 60 51 61 109 211 109 283 0 97 -39 277 -79 362 -14 30 -47 76 -74 101 -44 42 -55 47 -109 53 -76 8 -112 6 -162 -5z m217 -142 c73 -96 112 -221 110 -352 -1 -83 -27 -157 -81 -230 -21 -27 -50 -69 -65 -91 -29 -43 -175 -174 -207 -186 -48 -18 -120 -25 -137 -13 -15 11 -15 18 -4 61 7 27 19 63 26 79 34 77 65 228 85 415 13 112 36 210 50 210 5 0 44 36 87 79 86 87 90 88 136 28z" />
</ns0:g>
</g><g transform="translate(-1.7994686031755123,372.5790486493129) scale(0.05739972241727762)"><ns0:metadata>
Created by potrace 1.16, written by Peter Selinger 2001-2019
</ns0:metadata>
<ns0:g transform="translate(0.000000,212.000000) scale(0.100000,-0.100000)" fill="#000000" stroke="none">
<ns0:path d="M793 1761 c-31 -20 -50 -34 -108 -83 -18 -16 -37 -28 -42 -28 -19 0 -51 -46 -55 -80 -3 -19 -12 -62 -21 -95 -9 -33 -18 -100 -20 -150 -3 -49 -16 -147 -31 -218 -14 -70 -30 -173 -36 -230 -11 -114 -55 -277 -105 -392 -35 -80 -24 -115 39 -115 28 0 34 5 48 38 47 109 103 303 118 407 20 142 48 207 94 221 19 6 76 54 174 146 18 17 58 65 89 106 55 71 58 77 61 141 4 82 -22 175 -84 306 -16 34 -24 40 -54 43 -21 1 -47 -5 -67 -17z m44 -112 c6 -13 26 -63 43 -110 38 -103 36 -124 -20 -208 -38 -56 -203 -221 -223 -221 -5 0 -7 18 -3 43 3 23 10 92 16 152 6 61 22 154 35 208 14 54 25 100 25 103 0 9 94 64 105 61 5 -2 15 -14 22 -28z" />
<ns0:path d="M623 816 l-28 -25 20 -37 c17 -30 35 -43 110 -76 50 -22 101 -46 115 -53 14 -8 41 -22 60 -32 19 -9 44 -25 55 -34 11 -9 37 -22 58 -29 20 -6 43 -17 50 -24 34 -33 105 -86 115 -86 6 0 15 -6 19 -12 29 -47 143 -85 218 -74 36 6 47 13 64 42 36 61 22 84 -41 66 -45 -12 -120 12 -156 50 -15 15 -30 28 -34 28 -9 0 -132 71 -138 81 -3 4 -30 19 -60 33 -67 32 -125 64 -165 92 -17 11 -46 27 -65 34 -19 8 -61 29 -92 47 -31 18 -61 33 -67 33 -5 0 -23 -11 -38 -24z" />
</ns0:g>
</g><g transform="translate(0.8289796612790497,535.6832718483495) scale(0.05739972241727762)"><ns0:metadata>
Created by potrace 1.16, written by Peter Selinger 2001-2019
</ns0:metadata>
<ns0:g transform="translate(0.000000,207.000000) scale(0.100000,-0.100000)" fill="#000000" stroke="none">
<ns0:path d="M1000 1675 c-93 -16 -105 -21 -124 -50 -8 -13 -31 -28 -51 -35 -19 -6 -40 -20 -45 -30 -12 -22 -12 -171 0 -290 17 -170 31 -612 20 -645 -12 -37 -80 -108 -80 -83 0 8 7 21 15 28 19 16 20 60 1 60 -14 0 -87 -74 -105 -107 -27 -52 -42 -113 -31 -133 26 -48 85 -53 132 -9 18 16 46 40 61 52 73 58 225 278 259 377 11 30 35 88 54 128 19 41 34 77 34 81 0 3 9 23 20 44 11 21 31 81 45 135 62 249 61 392 -6 463 -31 34 -70 36 -199 14z m140 -95 c27 -17 19 -196 -14 -310 -15 -52 -31 -108 -35 -125 -5 -16 -26 -66 -48 -110 -22 -44 -45 -98 -52 -120 -19 -61 -64 -149 -79 -153 -11 -4 -13 47 -8 284 7 349 6 333 18 415 8 57 14 69 39 88 17 13 33 21 35 18 2 -2 30 2 62 8 31 7 59 13 62 14 3 0 12 -4 20 -9z" />
</ns0:g>
</g><g transform="translate(-0.47241542420704263,716.8062853274623) scale(0.05739972241727762)"><ns0:metadata>
Created by potrace 1.16, written by Peter Selinger 2001-2019
</ns0:metadata>
<ns0:g transform="translate(0.000000,206.000000) scale(0.100000,-0.100000)" fill="#000000" stroke="none">
<ns0:path d="M988 1436 c-15 -8 -48 -14 -74 -14 -25 0 -51 -5 -56 -10 -6 -6 -17 -59 -24 -119 -8 -59 -23 -135 -34 -168 -22 -70 -41 -285 -30 -341 10 -50 18 -70 48 -118 23 -38 25 -38 73 -34 40 4 61 15 121 61 115 88 187 166 238 261 20 35 21 45 12 115 -20 149 -54 229 -119 275 -24 16 -45 37 -48 45 -4 13 -66 61 -77 61 -2 0 -15 -6 -30 -14z m39 -113 c65 -64 93 -107 117 -180 14 -43 26 -89 26 -102 0 -54 -117 -195 -204 -246 -90 -52 -106 -14 -76 175 12 74 23 146 25 160 8 53 33 142 44 153 6 6 11 21 11 32 0 43 19 45 57 8z" />
</ns0:g>
</g><g transform="translate(2.470963179695559,873.632806279725) scale(0.05739972241727762)"><ns0:metadata>
Created by potrace 1.16, written by Peter Selinger 2001-2019
</ns0:metadata>
<ns0:g transform="translate(0.000000,213.000000) scale(0.100000,-0.100000)" fill="#000000" stroke="none">
<ns0:path d="M1263 1463 c-38 -7 -193 -184 -228 -261 -14 -30 -14 -43 5 -145 28 -152 36 -189 44 -208 7 -16 -36 -71 -124 -159 -14 -14 -37 -47 -50 -73 l-25 -48 23 -20 c15 -11 38 -18 60 -18 21 0 96 -4 167 -9 143 -11 238 0 271 30 16 14 21 44 15 87 0 4 -26 28 -58 52 -87 68 -133 119 -133 148 0 14 34 94 75 178 41 84 79 170 83 190 8 39 -3 130 -18 148 -5 6 -11 28 -15 50 -12 63 -24 71 -92 58z m15 -168 c32 -69 -10 -190 -94 -275 -21 -21 -30 -3 -44 82 l-12 68 62 75 c35 41 66 75 70 75 4 0 12 -11 18 -25z m-75 -604 c31 -27 66 -52 77 -56 29 -9 21 -37 -14 -46 -16 -5 -51 -4 -79 2 -27 5 -64 9 -81 9 -51 0 -63 13 -41 47 32 50 66 93 74 93 4 0 33 -22 64 -49z" />
</ns0:g>
</g><g transform="translate(-2.7960844975546024,1042.6956432008883) scale(0.05739972241727762)"><ns0:metadata>
Created by potrace 1.16, written by Peter Selinger 2001-2019
</ns0:metadata>
<ns0:g transform="translate(0.000000,206.000000) scale(0.100000,-0.100000)" fill="#000000" stroke="none">
<ns0:path d="M832 1494 c-13 -9 -22 -26 -22 -40 0 -26 -5 -26 -57 -7 -25 10 -43 -44 -53 -157 -5 -63 -17 -158 -26 -210 -37 -223 -43 -284 -33 -329 21 -93 91 -146 174 -130 49 9 156 79 198 129 52 61 65 320 25 491 -12 52 -21 118 -20 148 2 72 -9 88 -63 97 -25 3 -45 10 -45 15 0 15 -54 10 -78 -7z m63 -98 c10 4 15 0 15 -15 0 -12 12 -79 28 -149 30 -141 34 -248 13 -350 -12 -53 -20 -67 -52 -93 -48 -38 -101 -54 -129 -39 -17 9 -20 20 -19 73 0 61 3 81 32 247 8 47 20 137 27 200 14 145 13 142 45 130 13 -5 32 -7 40 -4z" />
</ns0:g>
</g><g transform="translate(0.0597691381881873,1207.1886398831252) scale(0.05739972241727762)"><ns0:metadata>
Created by potrace 1.16, written by Peter Selinger 2001-2019
</ns0:metadata>
<ns0:g transform="translate(0.000000,206.000000) scale(0.100000,-0.100000)" fill="#000000" stroke="none">
<ns0:path d="M1020 1511 c-17 -5 -26 -16 -30 -36 -3 -18 -15 -34 -28 -41 -44 -22 -55 -57 -90 -299 -21 -148 -20 -340 3 -365 8 -9 15 -26 15 -39 0 -12 6 -37 14 -56 19 -46 54 -54 109 -27 23 11 65 24 92 27 62 9 71 16 102 80 79 163 90 203 94 340 6 233 -3 325 -33 325 -6 0 -27 14 -49 31 -21 16 -55 33 -76 36 -21 3 -47 12 -58 19 -21 15 -27 16 -65 5z m115 -114 c60 -34 66 -55 66 -225 0 -142 -11 -210 -40 -246 -5 -6 -14 -29 -21 -50 -19 -58 -62 -96 -109 -96 -37 0 -39 1 -55 53 -17 53 -16 54 18 213 19 87 40 180 46 206 7 26 9 56 5 67 -3 10 -1 22 5 26 5 3 10 22 10 41 0 41 17 44 75 11z" />
</ns0:g>
</g><g transform="translate(1.0393169341205066,1372.8468230431338) scale(0.05739972241727762)"><ns0:metadata>
Created by potrace 1.16, written by Peter Selinger 2001-2019
</ns0:metadata>
<ns0:g transform="translate(0.000000,207.000000) scale(0.100000,-0.100000)" fill="#000000" stroke="none">
<ns0:path d="M840 1478 c-39 -43 -12 -98 50 -98 40 0 51 -12 44 -49 -7 -32 -82 -116 -148 -166 -44 -33 -56 -46 -56 -59 0 -29 34 -41 129 -46 108 -6 110 -8 91 -79 -16 -59 -120 -179 -186 -215 -48 -26 -54 -32 -54 -61 0 -27 5 -34 25 -39 31 -8 90 16 104 42 6 12 21 24 33 28 41 13 96 65 139 131 36 57 43 75 47 135 6 93 -5 111 -79 135 -62 19 -74 37 -36 54 12 6 38 36 57 67 27 45 34 68 35 108 0 62 -20 89 -79 106 -23 6 -45 15 -50 20 -17 14 -45 9 -66 -14z" />
</ns0:g>
</g><g transform="translate(-1.8897433411066231,1525.263155593469) scale(0.05739972241727762)"><ns0:metadata>
Created by potrace 1.16, written by Peter Selinger 2001-2019
</ns0:metadata>
<ns0:g transform="translate(0.000000,213.000000) scale(0.100000,-0.100000)" fill="#000000" stroke="none">
<ns0:path d="M1278 1556 c-15 -6 -40 -24 -55 -38 -36 -34 -185 -108 -217 -108 -14 0 -28 5 -31 10 -9 15 -32 12 -96 -12 -81 -31 -89 -62 -28 -107 l30 -22 92 21 c58 14 113 34 148 56 31 19 60 34 64 34 14 0 -4 -98 -33 -182 -16 -46 -35 -108 -42 -138 -6 -30 -26 -98 -43 -150 -28 -86 -31 -107 -32 -222 0 -118 2 -129 22 -149 21 -21 23 -21 47 -5 25 16 26 21 26 104 1 95 6 127 40 247 12 44 29 105 37 135 19 71 61 194 83 245 9 22 22 67 29 100 8 33 21 74 30 90 26 48 29 69 13 88 -17 19 -45 21 -84 3z" />
</ns0:g>
</g></svg>