<?xml version='1.0' encoding='utf-8'?>
<svg xmlns:ns0="http://www.w3.org/2000/svg" xmlns="http://www.w3.org/2000/svg" width="235" height="136" viewBox="0 0 235 136"><g transform="translate(0.30287838657562816,-108.80790541096945) scale(0.05739972241727762)"><ns0:metadata>
Created by potrace 1.16, written by Peter Selinger 2001-2019
</ns0:metadata>
<ns0:g transform="translate(0.000000,207.000000) scale(0.100000,-0.100000)" fill="#000000" stroke="none">
<ns0:path d="M1467 1412 c-10 -10 -17 -21 -17 -24 0 -10 49 -15 53 -5 2 6 11 6 25 -2 18 -10 22 -9 22 3 0 9 -13 22 -30 31 -36 19 -34 19 -53 -3z" />
<ns0:path d="M840 1261 c0 -6 -7 -11 -15 -11 -31 0 -31 -92 0 -104 9 -3 35 1 58 9 99 34 165 7 152 -63 -21 -114 -213 -390 -300 -431 -44 -21 -115 -92 -115 -115 0 -39 85 -61 111 -29 8 9 42 28 75 44 34 15 65 32 68 38 4 6 20 11 35 11 16 0 46 6 67 14 22 7 81 17 132 21 70 5 95 11 99 23 4 8 -1 20 -11 27 -22 16 -181 27 -229 16 -51 -12 -55 2 -14 52 19 23 37 52 41 64 4 12 21 33 37 47 31 26 81 125 94 184 19 90 -25 182 -96 196 -68 14 -189 19 -189 7z" />
</ns0:g>
</g><g transform="translate(2.538168386704058,62.020884458936024) scale(0.05739972241727762)"><ns0:metadata>
Created by potrace 1.16, written by Peter Selinger 2001-2019
</ns0:metadata>
<ns0:g transform="translate(0.000000,206.000000) scale(0.100000,-0.100000)" fill="#000000" stroke="none">
<ns0:path d="M832 1494 c-13 -9 -22 -26 -22 -40 0 -26 -5 -26 -57 -7 -25 10 -43 -44 -53 -157 -5 -63 -17 -158 -26 -210 -37 -223 -43 -284 -33 -329 21 -93 91 -146 174 -130 49 9 156 79 198 129 52 61 65 320 25 491 -12 52 -21 118 -20 148 2 72 -9 88 -63 97 -25 3 -45 10 -45 15 0 15 -54 10 -78 -7z m63 -98 c10 4 15 0 15 -15 0 -12 12 -79 28 -149 30 -141 34 -248 13 -350 -12 -53 -20 -67 -52 -93 -48 -38 -101 -54 -129 -39 -17 9 -20 20 -19 73 0 61 3 81 32 247 8 47 20 137 27 200 14 145 13 142 45 130 13 -5 32 -7 40 -4z" />
</ns0:g>
</g><g transform="translate(2.7609237147660224,219.45588438645876) scale(0.05739972241727762)"><ns0:metadata>
Created by potrace 1.16, written by Peter Selinger 2001-2019
</ns0:metadata>
<ns0:g transform="translate(0.000000,208.000000) scale(0.100000,-0.100000)" fill="#000000" stroke="none">
<ns0:path d="M912 1298 c-29 -8 -72 -53 -72 -77 0 -10 61 -61 74 -61 4 0 22 12 41 26 24 18 43 24 66 22 48 -5 55 -24 42 -112 -17 -121 -150 -366 -198 -366 -12 0 -24 -9 -102 -76 -48 -40 -56 -79 -25 -107 26 -24 59 -21 96 9 173 141 192 152 346 204 115 39 130 47 130 65 0 27 -86 22 -193 -12 -44 -13 -82 -22 -85 -18 -5 5 19 57 57 125 10 17 23 48 45 102 8 20 17 65 21 101 6 54 4 70 -14 106 -30 58 -72 82 -142 79 -30 -1 -69 -6 -87 -10z" />
</ns0:g>
</g><g transform="translate(-2.7721501626378426,379.53198054069003) scale(0.05739972241727762)"><ns0:metadata>
Created by potrace 1.16, written by Peter Selinger 2001-2019
</ns0:metadata>
<ns0:g transform="translate(0.000000,208.000000) scale(0.100000,-0.100000)" fill="#000000" stroke="none">
<ns0:path d="M862 1397 c-24 -13 -29 -23 -42 -94 -4 -26 -13 -61 -18 -78 -6 -16 -16 -86 -23 -154 l-11 -123 24 -25 c31 -31 85 -43 166 -38 80 6 86 -7 38 -77 -20 -29 -54 -78 -74 -108 -21 -30 -58 -75 -82 -100 -25 -25 -53 -54 -62 -65 -9 -11 -24 -26 -33 -33 -37 -31 3 -84 49 -67 30 11 236 211 236 229 0 6 16 31 36 56 49 62 64 102 64 175 0 83 -8 89 -122 86 -141 -3 -143 -2 -106 108 26 80 35 91 96 122 26 13 73 44 105 68 58 45 72 76 44 99 -18 15 -78 -2 -114 -32 -15 -13 -41 -26 -58 -30 -28 -7 -29 -7 -12 12 18 20 23 57 9 66 -20 12 -89 14 -110 3z" />
</ns0:g>
</g><g transform="translate(-1.389850531818297,551.1881019000587) scale(0.05739972241727762)"><ns0:metadata>
Created by potrace 1.16, written by Peter Selinger 2001-2019
</ns0:metadata>
<ns0:g transform="translate(0.000000,210.000000) scale(0.100000,-0.100000)" fill="#000000" stroke="none">
<ns0:path d="M1248 963 c-59 -16 -138 -78 -138 -110 0 -9 16 -31 35 -49 l35 -33 -16 -40 c-48 -120 70 -135 147 -20 60 90 60 90 54 154 -5 56 -28 106 -51 111 -5 1 -35 -5 -66 -13z" />
</ns0:g>
</g><g transform="translate(1.2831382127072857,715.8185051910298) scale(0.05739972241727762)"><ns0:metadata>
Created by potrace 1.16, written by Peter Selinger 2001-2019
</ns0:metadata>
<ns0:g transform="translate(0.000000,206.000000) scale(0.100000,-0.100000)" fill="#000000" stroke="none">
<ns0:path d="M1020 1511 c-17 -5 -26 -16 -30 -36 -3 -18 -15 -34 -28 -41 -44 -22 -55 -57 -90 -299 -21 -148 -20 -340 3 -365 8 -9 15 -26 15 -39 0 -12 6 -37 14 -56 19 -46 54 -54 109 -27 23 11 65 24 92 27 62 9 71 16 102 80 79 163 90 203 94 340 6 233 -3 325 -33 325 -6 0 -27 14 -49 31 -21 16 -55 33 -76 36 -21 3 -47 12 -58 19 -21 15 -27 16 -65 5z m115 -114 c60 -34 66 -55 66 -225 0 -142 -11 -210 -40 -246 -5 -6 -14 -29 -21 -50 -19 -58 -62 -96 -109 -96 -37 0 -39 1 -55 53 -17 53 -16 54 18 213 19 87 40 180 46 206 7 26 9 56 5 67 -3 10 -1 22 5 26 5 3 10 22 10 41 0 41 17 44 75 11z" />
</ns0:g>
</g><g transform="translate(0.5164053873633634,873.9140933152166) scale(0.05739972241727762)"><ns0:metadata>
Created by potrace 1.16, written by Peter Selinger 2001-2019
</ns0:metadata>
<ns0:g transform="translate(0.000000,213.000000) scale(0.100000,-0.100000)" fill="#000000" stroke="none">
<ns0:path d="M1263 1463 c-38 -7 -193 -184 -228 -261 -14 -30 -14 -43 5 -145 28 -152 36 -189 44 -208 7 -16 -36 -71 -124 -159 -14 -14 -37 -47 -50 -73 l-25 -48 23 -20 c15 -11 38 -18 60 -18 21 0 96 -4 167 -9 143 -11 238 0 271 30 16 14 21 44 15 87 0 4 -26 28 -58 52 -87 68 -133 119 -133 148 0 14 34 94 75 178 41 84 79 170 83 190 8 39 -3 130 -18 148 -5 6 -11 28 -15 50 -12 63 -24 71 -92 58z m15 -168 c32 -69 -10 -190 -94 -275 -21 -21 -30 -3 -44 82 l-12 68 62 75 c35 41 66 75 70 75 4 0 12 -11 18 -25z m-75 -604 c31 -27 66 -52 77 -56 29 -9 21 -37 -14 -46 -16 -5 -51 -4 -79 2 -27 5 -64 9 -81 9 -51 0 -63 13 -41 47 32 50 66 93 74 93 4 0 33 -22 64 -49z" />
</ns0:g>
</g><g transform="translate(-0.6196499336177226,1044.7693898964098) scale(0.05739972241727762)"><ns0:metadata>
Created by potrace 1.16, written by Peter Selinger 2001-2019
</ns0:metadata>
<ns0:g transform="translate(0.000000,210.000000) scale(0.100000,-0.100000)" fill="#000000" stroke="none">
<ns0:path d="M1210 915 c-14 -7 -33 -16 -43 -19 -40 -13 -65 -149 -32 -176 8 -7 15 -18 15 -24 0 -7 13 -25 29 -40 28 -27 29 -27 67 -11 49 20 71 41 96 89 31 60 20 107 -34 156 -47 43 -61 46 -98 25z" />
</ns0:g>
</g><g transform="translate(1.4136745599461165,1205.7442594037075) scale(0.05739972241727762)"><ns0:metadata>
Created by potrace 1.16, written by Peter Selinger 2001-2019
</ns0:metadata>
<ns0:g transform="translate(0.000000,206.000000) scale(0.100000,-0.100000)" fill="#000000" stroke="none">
<ns0:path d="M988 1436 c-15 -8 -48 -14 -74 -14 -25 0 -51 -5 -56 -10 -6 -6 -17 -59 -24 -119 -8 -59 -23 -135 -34 -168 -22 -70 -41 -285 -30 -341 10 -50 18 -70 48 -118 23 -38 25 -38 73 -34 40 4 61 15 121 61 115 88 187 166 238 261 20 35 21 45 12 115 -20 149 -54 229 -119 275 -24 16 -45 37 -48 45 -4 13 -66 61 -77 61 -2 0 -15 -6 -30 -14z m39 -113 c65 -64 93 -107 117 -180 14 -43 26 -89 26 -102 0 -54 -117 -195 -204 -246 -90 -52 -106 -14 -76 175 12 74 23 146 25 160 8 53 33 142 44 153 6 6 11 21 11 32 0 43 19 45 57 8z" />
</ns0:g>
</g><g transform="translate(0.6336461371162159,1363.5567132011788) scale(0.05739972241727762)"><ns0:metadata>
Created by potrace 1.16, written by Peter Selinger 2001-2019
</ns0:metadata>
<ns0:g transform="translate(0.000000,213.000000) scale(0.100000,-0.100000)" fill="#000000" stroke="none">
<ns0:path d="M974 1438 c-42 -60 -75 -162 -85 -263 -12 -131 -45 -274 -105 -453 -35 -104 -32 -127 17 -173 70 -65 142 -57 276 33 122 81 117 142 -24 283 -29 29 -53 57 -53 63 0 5 -7 15 -16 23 -11 9 -14 22 -9 48 4 20 9 51 10 70 9 84 31 185 46 206 3 6 14 36 23 68 16 54 16 61 1 83 -17 26 -66 33 -81 12z m-12 -615 c10 -9 18 -22 18 -29 0 -7 6 -17 13 -21 8 -4 24 -22 37 -40 27 -38 23 -46 -49 -92 -53 -35 -88 -39 -98 -14 -6 14 30 183 44 206 6 11 15 9 35 -10z" />
</ns0:g>
</g></svg>