<?xml version='1.0' encoding='utf-8'?>
<svg xmlns:ns0="http://www.w3.org/2000/svg" xmlns="http://www.w3.org/2000/svg" width="249" height="109" viewBox="0 0 249 109"><g transform="translate(-1.0025129335045904,-84.95460307513657) scale(0.0460041892903181)"><ns0:metadata>
Created by potrace 1.16, written by Peter Selinger 2001-2019
</ns0:metadata>
<ns0:g transform="translate(0.000000,208.000000) scale(0.100000,-0.100000)" fill="#000000" stroke="none">
<ns0:path d="M871 1322 c-20 -20 -30 -42 -35 -79 -6 -47 -4 -56 21 -92 21 -30 35 -40 56 -41 21 0 30 -7 38 -27 16 -41 2 -130 -28 -183 -14 -25 -34 -61 -44 -80 -22 -44 -86 -106 -164 -158 -67 -45 -108 -93 -99 -117 3 -8 22 -22 41 -31 32 -16 35 -16 56 2 33 28 60 42 140 71 39 14 81 31 92 38 24 15 105 38 199 56 66 13 89 30 69 50 -16 16 -201 12 -255 -4 -39 -12 -48 -12 -48 -2 0 13 51 96 89 146 30 38 38 65 45 149 5 53 3 91 -7 130 -21 76 -26 88 -64 148 -38 61 -61 66 -102 24z" />
</ns0:g>
</g><g transform="translate(-1.9968112000109954,49.61387702945595) scale(0.0460041892903181)"><ns0:metadata>
Created by potrace 1.16, written by Peter Selinger 2001-2019
</ns0:metadata>
<ns0:g transform="translate(0.000000,211.000000) scale(0.100000,-0.100000)" fill="#000000" stroke="none">
<ns0:path d="M1255 970 c-3 -5 -20 -9 -38 -8 -53 2 -72 -16 -106 -99 -34 -84 -40 -155 -16 -186 7 -11 32 -23 55 -28 37 -9 47 -6 88 19 41 25 48 35 64 89 16 55 17 66 5 102 -8 23 -11 45 -6 53 5 7 9 25 9 41 0 22 -4 27 -24 27 -14 0 -28 -4 -31 -10z" />
</ns0:g>
</g><g transform="translate(-0.4603611756658097,183.0297843640223) scale(0.0460041892903181)"><ns0:metadata>
Created by potrace 1.16, written by Peter Selinger 2001-2019
</ns0:metadata>
<ns0:g transform="translate(0.000000,206.000000) scale(0.100000,-0.100000)" fill="#000000" stroke="none">
<ns0:path d="M832 1494 c-13 -9 -22 -26 -22 -40 0 -26 -5 -26 -57 -7 -25 10 -43 -44 -53 -157 -5 -63 -17 -158 -26 -210 -37 -223 -43 -284 -33 -329 21 -93 91 -146 174 -130 49 9 156 79 198 129 52 61 65 320 25 491 -12 52 -21 118 -20 148 2 72 -9 88 -63 97 -25 3 -45 10 -45 15 0 15 -54 10 -78 -7z m63 -98 c10 4 15 0 15 -15 0 -12 12 -79 28 -149 30 -141 34 -248 13 -350 -12 -53 -20 -67 -52 -93 -48 -38 -101 -54 -129 -39 -17 9 -20 20 -19 73 0 61 3 81 32 247 8 47 20 137 27 200 14 145 13 142 45 130 13 -5 32 -7 40 -4z" />
</ns0:g>
</g><g transform="translate(-2.918071410096559,303.094893481108) scale(0.0460041892903181)"><ns0:metadata>
Created by potrace 1.16, written by Peter Selinger 2001-2019
</ns0:metadata>
<ns0:g transform="translate(0.000000,214.000000) scale(0.100000,-0.100000)" fill="#000000" stroke="none">
<ns0:path d="M1150 1448 c-42 -12 -82 -46 -179 -152 -88 -97 -101 -125 -101 -213 0 -63 3 -72 44 -133 47 -71 47 -82 -1 -114 -43 -29 -96 -106 -104 -153 -6 -28 -4 -55 5 -80 11 -32 24 -44 87 -78 112 -61 180 -79 277 -77 85 2 98 7 120 48 9 17 8 31 -5 65 -9 24 -23 51 -30 60 -7 8 -13 18 -13 22 0 3 -31 53 -70 110 -38 57 -70 110 -70 118 0 16 94 111 126 127 28 15 94 73 94 84 0 15 -62 8 -88 -10 -46 -32 -52 -34 -52 -18 0 8 25 44 55 80 62 73 63 76 50 216 -5 60 -12 88 -24 97 -19 15 -72 15 -121 1z m36 -144 c2 -25 6 -53 9 -63 4 -12 -6 -29 -31 -52 -51 -49 -109 -128 -124 -171 -13 -35 -15 -37 -32 -22 -21 20 -38 70 -34 104 2 14 4 37 5 51 0 15 18 44 44 71 23 25 53 58 67 73 28 31 81 67 89 59 2 -2 6 -25 7 -50z m-138 -548 c17 -24 39 -56 47 -73 8 -16 26 -40 41 -54 32 -30 57 -76 48 -90 -15 -25 -189 17 -233 56 -25 23 -31 36 -31 69 1 34 8 49 43 88 23 26 44 47 47 47 3 0 20 -19 38 -43z" />
</ns0:g>
</g><g transform="translate(0.6215746040750787,442.9627034191077) scale(0.0460041892903181)"><ns0:metadata>
Created by potrace 1.16, written by Peter Selinger 2001-2019
</ns0:metadata>
<ns0:g transform="translate(0.000000,210.000000) scale(0.100000,-0.100000)" fill="#000000" stroke="none">
<ns0:path d="M1248 963 c-59 -16 -138 -78 -138 -110 0 -9 16 -31 35 -49 l35 -33 -16 -40 c-48 -120 70 -135 147 -20 60 90 60 90 54 154 -5 56 -28 106 -51 111 -5 1 -35 -5 -66 -13z" />
</ns0:g>
</g><g transform="translate(-1.4172518963239327,575.9891285626447) scale(0.0460041892903181)"><ns0:metadata>
Created by potrace 1.16, written by Peter Selinger 2001-2019
</ns0:metadata>
<ns0:g transform="translate(0.000000,206.000000) scale(0.100000,-0.100000)" fill="#000000" stroke="none">
<ns0:path d="M1020 1511 c-17 -5 -26 -16 -30 -36 -3 -18 -15 -34 -28 -41 -44 -22 -55 -57 -90 -299 -21 -148 -20 -340 3 -365 8 -9 15 -26 15 -39 0 -12 6 -37 14 -56 19 -46 54 -54 109 -27 23 11 65 24 92 27 62 9 71 16 102 80 79 163 90 203 94 340 6 233 -3 325 -33 325 -6 0 -27 14 -49 31 -21 16 -55 33 -76 36 -21 3 -47 12 -58 19 -21 15 -27 16 -65 5z m115 -114 c60 -34 66 -55 66 -225 0 -142 -11 -210 -40 -246 -5 -6 -14 -29 -21 -50 -19 -58 -62 -96 -109 -96 -37 0 -39 1 -55 53 -17 53 -16 54 18 213 19 87 40 180 46 206 7 26 9 56 5 67 -3 10 -1 22 5 26 5 3 10 22 10 41 0 41 17 44 75 11z" />
</ns0:g>
</g><g transform="translate(-2.6946446274632194,703.2234450550804) scale(0.0460041892903181)"><ns0:metadata>
Created by potrace 1.16, written by Peter Selinger 2001-2019
</ns0:metadata>
<ns0:g transform="translate(0.000000,206.000000) scale(0.100000,-0.100000)" fill="#000000" stroke="none">
<ns0:path d="M832 1494 c-13 -9 -22 -26 -22 -40 0 -26 -5 -26 -57 -7 -25 10 -43 -44 -53 -157 -5 -63 -17 -158 -26 -210 -37 -223 -43 -284 -33 -329 21 -93 91 -146 174 -130 49 9 156 79 198 129 52 61 65 320 25 491 -12 52 -21 118 -20 148 2 72 -9 88 -63 97 -25 3 -45 10 -45 15 0 15 -54 10 -78 -7z m63 -98 c10 4 15 0 15 -15 0 -12 12 -79 28 -149 30 -141 34 -248 13 -350 -12 -53 -20 -67 -52 -93 -48 -38 -101 -54 -129 -39 -17 9 -20 20 -19 73 0 61 3 81 32 247 8 47 20 137 27 200 14 145 13 142 45 130 13 -5 32 -7 40 -4z" />
</ns0:g>
</g><g transform="translate(1.2676646770516982,835.4264041061152) scale(0.0460041892903181)"><ns0:metadata>
Created by potrace 1.16, written by Peter Selinger 2001-2019
</ns0:metadata>
<ns0:g transform="translate(0.000000,206.000000) scale(0.100000,-0.100000)" fill="#000000" stroke="none">
<ns0:path d="M1020 1511 c-17 -5 -26 -16 -30 -36 -3 -18 -15 -34 -28 -41 -44 -22 -55 -57 -90 -299 -21 -148 -20 -340 3 -365 8 -9 15 -26 15 -39 0 -12 6 -37 14 -56 19 -46 54 -54 109 -27 23 11 65 24 92 27 62 9 71 16 102 80 79 163 90 203 94 340 6 233 -3 325 -33 325 -6 0 -27 14 -49 31 -21 16 -55 33 -76 36 -21 3 -47 12 -58 19 -21 15 -27 16 -65 5z m115 -114 c60 -34 66 -55 66 -225 0 -142 -11 -210 -40 -246 -5 -6 -14 -29 -21 -50 -19 -58 -62 -96 -109 -96 -37 0 -39 1 -55 53 -17 53 -16 54 18 213 19 87 40 180 46 206 7 26 9 56 5 67 -3 10 -1 22 5 26 5 3 10 22 10 41 0 41 17 44 75 11z" />
</ns0:g>
</g><g transform="translate(-1.8768006703122637,967.58084577143) scale(0.0460041892903181)"><ns0:metadata>
Created by potrace 1.16, written by Peter Selinger 2001-2019
</ns0:metadata>
<ns0:g transform="translate(0.000000,206.000000) scale(0.100000,-0.100000)" fill="#000000" stroke="none">
<ns0:path d="M988 1436 c-15 -8 -48 -14 -74 -14 -25 0 -51 -5 -56 -10 -6 -6 -17 -59 -24 -119 -8 -59 -23 -135 -34 -168 -22 -70 -41 -285 -30 -341 10 -50 18 -70 48 -118 23 -38 25 -38 73 -34 40 4 61 15 121 61 115 88 187 166 238 261 20 35 21 45 12 115 -20 149 -54 229 -119 275 -24 16 -45 37 -48 45 -4 13 -66 61 -77 61 -2 0 -15 -6 -30 -14z m39 -113 c65 -64 93 -107 117 -180 14 -43 26 -89 26 -102 0 -54 -117 -195 -204 -246 -90 -52 -106 -14 -76 175 12 74 23 146 25 160 8 53 33 142 44 153 6 6 11 21 11 32 0 43 19 45 57 8z" />
</ns0:g>
</g><g transform="translate(2.0233659309920426,1099.1284870192135) scale(0.0460041892903181)"><ns0:metadata>
Created by potrace 1.16, written by Peter Selinger 2001-2019
</ns0:metadata>
<ns0:g transform="translate(0.000000,207.000000) scale(0.100000,-0.100000)" fill="#000000" stroke="none">
<ns0:path d="M840 1478 c-39 -43 -12 -98 50 -98 40 0 51 -12 44 -49 -7 -32 -82 -116 -148 -166 -44 -33 -56 -46 -56 -59 0 -29 34 -41 129 -46 108 -6 110 -8 91 -79 -16 -59 -120 -179 -186 -215 -48 -26 -54 -32 -54 -61 0 -27 5 -34 25 -39 31 -8 90 16 104 42 6 12 21 24 33 28 41 13 96 65 139 131 36 57 43 75 47 135 6 93 -5 111 -79 135 -62 19 -74 37 -36 54 12 6 38 36 57 67 27 45 34 68 35 108 0 62 -20 89 -79 106 -23 6 -45 15 -50 20 -17 14 -45 9 -66 -14z" />
</ns0:g>
</g><g transform="translate(1.9914621615101282,1221.9593232632071) scale(0.0460041892903181)"><ns0:metadata>
Created by potrace 1.16, written by Peter Selinger 2001-2019
</ns0:metadata>
<ns0:g transform="translate(0.000000,213.000000) scale(0.100000,-0.100000)" fill="#000000" stroke="none">
<ns0:path d="M974 1438 c-42 -60 -75 -162 -85 -263 -12 -131 -45 -274 -105 -453 -35 -104 -32 -127 17 -173 70 -65 142 -57 276 33 122 81 117 142 -24 283 -29 29 -53 57 -53 63 0 5 -7 15 -16 23 -11 9 -14 22 -9 48 4 20 9 51 10 70 9 84 31 185 46 206 3 6 14 36 23 68 16 54 16 61 1 83 -17 26 -66 33 -81 12z m-12 -615 c10 -9 18 -22 18 -29 0 -7 6 -17 13 -21 8 -4 24 -22 37 -40 27 -38 23 -46 -49 -92 -53 -35 -88 -39 -98 -14 -6 14 30 183 44 206 6 11 15 9 35 -10z" />
</ns0:g>
</g></svg>