<?xml version='1.0' encoding='utf-8'?>
<svg xmlns:ns0="http://www.w3.org/2000/svg" xmlns="http://www.w3.org/2000/svg" width="235" height="121" viewBox="0 0 235 121"><g transform="translate(0.7472419368669989,-63.57042991747271) scale(0.027595579437518742)"><ns0:metadata>
Created by potrace 1.16, written by Peter Selinger 2001-2019
</ns0:metadata>
<ns0:g transform="translate(0.000000,211.000000) scale(0.100000,-0.100000)" fill="#000000" stroke="none">
<ns0:path d="M1457 2097 c-3 -7 -10 -55 -17 -107 -21 -162 -20 -160 -109 -223 -43 -32 -94 -71 -112 -87 -56 -49 -59 -44 -55 83 4 120 17 171 47 188 26 13 24 28 -8 61 -32 34 -74 37 -102 7 -42 -45 -47 -118 -42 -585 l4 -282 -42 -44 c-22 -25 -41 -52 -41 -60 0 -8 -4 -18 -8 -23 -14 -16 -32 -90 -32 -132 0 -22 -6 -62 -14 -89 -20 -66 -28 -137 -19 -150 4 -6 18 -16 31 -23 25 -13 25 -30 -1 -172 -10 -58 -11 -85 -3 -109 14 -43 49 -57 76 -30 28 28 61 144 54 191 -4 21 -3 69 1 106 7 64 9 70 59 118 52 52 185 150 193 142 2 -3 -1 -33 -6 -68 -6 -35 -13 -99 -17 -141 -6 -86 -15 -94 -54 -53 -26 27 -46 32 -53 13 -6 -19 21 -90 45 -115 20 -21 20 -26 9 -80 -24 -111 -38 -257 -29 -290 10 -37 43 -52 77 -34 25 14 28 27 35 159 7 110 18 147 42 138 43 -16 132 -17 173 0 61 24 93 77 201 334 29 69 59 141 67 160 29 66 83 229 89 269 4 22 3 52 0 66 -7 28 -51 51 -70 37 -6 -5 -25 -12 -42 -15 -27 -5 -205 -84 -266 -117 -16 -9 -48 -14 -48 -7 0 1 7 40 16 87 8 47 16 92 18 100 1 8 8 25 14 37 7 12 12 28 12 35 0 8 14 27 30 43 37 35 39 62 5 71 -36 9 -49 38 -31 66 8 13 17 43 21 68 14 85 47 166 106 255 59 90 73 137 44 149 -22 8 -45 -3 -92 -46 -24 -21 -47 -38 -53 -38 -19 0 0 103 21 119 33 24 21 31 -50 31 -47 0 -70 -4 -74 -13z m-41 -531 c-7 -121 -7 -121 -39 -149 -18 -15 -54 -34 -81 -42 -27 -8 -64 -26 -82 -40 -18 -14 -35 -25 -38 -25 -3 0 -6 31 -6 69 0 80 23 142 66 182 65 60 169 137 177 132 6 -3 7 -56 3 -127z m-45 -395 c-7 -47 -14 -100 -17 -118 -4 -25 -16 -40 -61 -70 -67 -46 -173 -113 -179 -113 -10 0 -3 66 15 142 11 46 25 122 32 170 l12 87 28 -19 c34 -25 51 -25 119 3 30 13 57 18 59 13 2 -5 -2 -48 -8 -95z m429 3 c0 -9 -13 -46 -30 -84 -16 -38 -30 -71 -30 -75 0 -3 -9 -25 -19 -48 -10 -23 -31 -73 -46 -112 -47 -121 -128 -295 -136 -295 -5 0 -9 -6 -9 -13 0 -27 -39 -50 -85 -50 -58 0 -76 15 -65 54 5 17 14 74 19 127 16 140 50 284 72 301 11 7 19 21 19 30 0 16 6 21 66 51 16 8 31 17 34 20 23 26 171 108 198 109 6 1 12 -6 12 -15z" />
<ns0:path d="M840 1946 c-30 -17 -52 -80 -69 -193 -6 -40 -22 -105 -35 -145 -40 -121 -58 -172 -67 -190 -5 -10 -9 -27 -9 -38 0 -10 -24 -68 -54 -127 -30 -59 -57 -119 -61 -133 -4 -14 -17 -35 -28 -47 -11 -13 -21 -31 -22 -40 -3 -36 -18 -77 -59 -168 -27 -59 -85 -144 -97 -145 -4 0 -10 12 -13 26 -10 39 -31 23 -30 -24 1 -49 17 -72 51 -72 18 0 45 20 94 70 38 39 69 75 69 80 0 16 71 164 87 182 14 15 18 16 43 3 15 -8 34 -24 42 -37 24 -37 49 -154 49 -229 0 -126 -22 -363 -37 -412 -17 -56 -8 -77 35 -77 41 0 51 12 66 76 14 62 35 318 35 433 0 139 -51 247 -142 304 -59 37 -59 39 9 172 25 50 56 128 70 174 14 47 35 105 47 130 25 49 51 145 61 226 4 28 16 78 28 113 17 47 19 66 11 80 -14 22 -43 25 -74 8z" />
</ns0:g>
</g><g transform="translate(2.2594180551694762,19.23574390550857) scale(0.027595579437518742)"><ns0:metadata>
Created by potrace 1.16, written by Peter Selinger 2001-2019
</ns0:metadata>
<ns0:g transform="translate(0.000000,215.000000) scale(0.100000,-0.100000)" fill="#000000" stroke="none">
<ns0:path d="M1008 1741 c-12 -14 -18 -49 -22 -128 -4 -59 -11 -157 -16 -218 -5 -60 -7 -135 -5 -165 5 -61 -17 -234 -39 -320 -8 -30 -17 -74 -21 -97 -4 -24 -10 -43 -15 -43 -11 0 -30 -56 -30 -87 0 -20 -12 -30 -71 -58 -80 -38 -176 -62 -190 -48 -6 6 -4 33 6 69 9 32 27 118 41 189 14 72 28 142 31 157 4 23 1 30 -21 39 -23 11 -30 10 -53 -7 -54 -40 -61 -62 -78 -212 -8 -79 -21 -156 -29 -170 -7 -15 -16 -45 -20 -67 -4 -22 -12 -53 -18 -68 -27 -69 42 -106 112 -62 22 14 50 25 62 25 36 0 99 20 127 40 14 11 38 22 53 25 27 7 27 6 20 -32 -4 -21 -7 -56 -7 -78 0 -32 5 -42 27 -55 21 -11 32 -12 45 -4 30 19 54 70 63 137 11 78 35 137 55 137 26 0 114 49 125 69 16 32 12 51 -15 61 -14 5 -25 16 -25 24 0 27 -22 28 -49 2 -15 -14 -30 -26 -34 -26 -12 0 -8 44 17 166 29 143 34 185 42 378 3 82 10 172 15 200 5 28 12 78 15 111 3 33 10 70 16 82 18 37 4 53 -49 53 -35 0 -53 -5 -65 -19z m15 -635 c6 -16 -2 -28 -14 -20 -12 7 -11 34 0 34 5 0 11 -6 14 -14z" />
<ns0:path d="M1230 1177 c-23 -12 -25 -18 -22 -73 2 -40 -2 -69 -12 -89 -18 -34 -20 -61 -7 -70 5 -3 13 0 17 7 29 46 33 -226 5 -329 -6 -23 -18 -95 -27 -160 -8 -65 -21 -141 -29 -170 -18 -62 -19 -83 -3 -83 14 0 68 50 68 63 0 5 8 21 19 35 10 15 24 61 30 102 7 41 16 88 21 103 5 15 19 105 31 200 20 153 21 183 10 267 -12 97 -30 175 -44 198 -10 15 -25 15 -57 -1z" />
</ns0:g>
</g><g transform="translate(-1.7010720134646817,90.85035753587857) scale(0.027595579437518742)"><ns0:metadata>
Created by potrace 1.16, written by Peter Selinger 2001-2019
</ns0:metadata>
<ns0:g transform="translate(0.000000,228.000000) scale(0.100000,-0.100000)" fill="#000000" stroke="none">
<ns0:path d="M525 2183 c4 -54 8 -132 10 -173 1 -41 6 -85 10 -97 6 -19 2 -24 -21 -33 -16 -6 -49 -24 -74 -40 -25 -15 -61 -31 -80 -35 -77 -17 -140 -56 -140 -88 0 -27 38 -77 59 -77 9 0 41 11 69 25 29 14 56 25 62 25 5 0 24 13 43 29 18 16 76 50 128 75 51 25 118 61 147 81 30 19 56 35 58 35 2 0 34 18 70 40 36 22 72 40 80 40 8 0 14 5 14 10 0 6 8 14 18 18 54 23 93 56 90 76 -5 36 -72 22 -173 -36 -22 -13 -67 -34 -100 -47 -33 -14 -62 -27 -65 -30 -3 -4 -16 -12 -30 -19 -14 -8 -41 -22 -59 -32 -19 -11 -37 -17 -40 -15 -2 3 1 35 7 72 7 38 14 106 17 153 2 47 7 97 11 113 l6 27 -61 0 -62 0 6 -97z m-98 -408 c-23 -22 -33 -18 -12 5 10 11 20 18 23 16 2 -3 -3 -12 -11 -21z" />
<ns0:path d="M1285 1858 c-16 -6 -46 -23 -65 -38 -19 -14 -63 -40 -97 -58 -35 -17 -68 -36 -75 -42 -14 -12 -105 -70 -221 -141 -38 -22 -71 -38 -75 -34 -3 3 2 36 11 74 10 37 15 75 11 84 -9 24 -40 30 -71 15 -28 -14 -58 -82 -82 -191 -12 -55 -15 -58 -64 -83 -29 -14 -59 -35 -67 -45 -16 -20 -114 -62 -123 -52 -15 15 10 72 49 113 40 41 54 76 38 93 -3 3 -29 -7 -58 -22 -28 -16 -68 -34 -89 -41 -20 -6 -42 -20 -47 -30 -6 -10 -10 -63 -10 -117 0 -74 -5 -108 -19 -139 -12 -27 -16 -46 -10 -57 10 -17 -12 -125 -74 -367 -14 -52 -23 -97 -21 -99 2 -2 14 -1 27 3 49 12 108 137 147 312 18 80 27 102 44 110 15 7 21 18 21 44 1 53 18 75 87 109 35 17 71 36 80 43 9 7 20 9 23 6 7 -6 -13 -80 -45 -173 -17 -48 -72 -311 -84 -405 -4 -25 -19 -97 -35 -161 -16 -63 -34 -169 -41 -235 -22 -234 -28 -285 -32 -290 -3 -2 -72 -6 -154 -8 -82 -3 -152 -5 -156 -5 -5 -1 -8 -8 -8 -16 0 -13 122 -15 1040 -15 1033 0 1040 0 1040 20 0 20 -7 20 -577 21 -553 0 -773 -1 -985 -4 -54 -1 -101 2 -107 8 -6 6 -4 37 4 85 7 41 18 115 25 165 12 96 25 168 40 225 9 33 37 177 75 380 9 47 32 137 51 200 86 278 103 308 202 360 37 19 104 63 150 98 45 34 86 62 91 62 5 0 11 7 15 15 3 8 15 15 26 15 11 0 20 5 20 11 0 5 4 8 10 4 6 -3 6 -14 0 -28 -24 -60 -101 -315 -115 -379 -9 -40 -21 -95 -27 -123 -6 -27 -10 -87 -9 -132 1 -46 -2 -83 -6 -83 -13 0 -126 100 -144 127 -9 13 -33 40 -54 60 -52 49 -65 32 -32 -41 35 -76 66 -115 179 -228 70 -70 105 -98 122 -98 14 0 28 5 32 11 4 7 8 93 9 193 3 204 13 263 76 461 46 144 80 224 115 271 13 17 24 35 24 41 0 6 16 25 36 44 81 77 58 132 -41 97z" />
</ns0:g>
</g><g transform="translate(2.8497781860559144,175.74026867014402) scale(0.027595579437518742)"><ns0:metadata>
Created by potrace 1.16, written by Peter Selinger 2001-2019
</ns0:metadata>
<ns0:g transform="translate(0.000000,210.000000) scale(0.100000,-0.100000)" fill="#000000" stroke="none">
<ns0:path d="M1217 1932 c-15 -2 -31 -11 -36 -21 -6 -10 -12 -84 -15 -164 -7 -175 -9 -180 -113 -248 -86 -56 -203 -160 -203 -180 0 -32 31 -59 66 -59 29 0 46 11 107 69 39 38 75 66 80 62 4 -4 -2 -34 -12 -67 -11 -32 -27 -86 -37 -119 -23 -78 -38 -109 -88 -172 -116 -147 -120 -162 -52 -197 28 -14 32 -13 85 16 31 16 73 44 94 60 45 35 57 31 29 -9 -32 -47 -102 -169 -102 -179 0 -5 -14 -29 -31 -54 -17 -25 -40 -66 -52 -92 -12 -27 -26 -48 -31 -48 -6 0 -40 18 -77 40 -37 22 -71 40 -76 40 -11 0 -60 40 -138 113 -34 31 -69 57 -78 57 -20 0 -23 40 -5 73 6 12 15 38 19 57 10 50 46 223 63 300 13 60 21 125 31 256 5 72 23 132 42 143 16 8 16 12 3 36 -20 38 -41 46 -81 32 -56 -20 -55 -17 -65 -215 -7 -146 -6 -144 -72 -146 -33 -1 -37 2 -38 24 -1 39 -14 70 -29 70 -8 0 -25 -4 -40 -10 -20 -7 -34 -6 -56 5 -28 15 -31 14 -64 -11 -40 -30 -44 -54 -14 -95 15 -22 28 -29 52 -28 18 1 59 -6 91 -15 36 -9 77 -13 103 -9 47 6 47 6 32 -52 -10 -41 -55 -279 -66 -348 -3 -21 -10 -40 -14 -43 -5 -3 -9 -13 -9 -22 0 -17 -28 -94 -60 -167 -10 -22 -21 -51 -25 -65 -4 -14 -20 -43 -36 -64 -32 -44 -25 -74 9 -43 10 9 23 17 29 17 17 0 64 68 84 119 10 26 27 64 40 85 l22 37 46 -49 c26 -28 70 -61 98 -76 29 -14 54 -30 58 -36 3 -5 14 -10 23 -10 10 0 39 -12 66 -26 47 -25 65 -31 93 -33 22 -2 -5 -52 -58 -108 -42 -44 -50 -58 -47 -85 2 -19 13 -38 29 -50 25 -19 28 -19 60 -3 19 10 40 22 48 28 16 13 51 26 178 68 51 16 95 34 98 39 4 6 12 10 19 10 28 0 140 59 216 114 l40 29 35 -39 c19 -21 34 -44 35 -49 0 -6 16 -35 36 -65 20 -30 42 -75 49 -100 9 -38 15 -45 36 -45 27 0 26 -2 15 80 -4 33 -15 68 -23 77 -9 10 -13 24 -10 32 4 9 -7 48 -23 88 -17 40 -30 77 -30 81 0 5 10 17 22 26 13 11 19 24 15 34 -5 14 -21 17 -77 17 -62 0 -74 -3 -95 -25 -14 -13 -25 -28 -25 -33 0 -6 -20 -19 -45 -31 -25 -12 -45 -25 -45 -30 0 -5 -28 -18 -62 -31 -35 -12 -76 -29 -93 -38 -16 -9 -32 -16 -35 -15 -3 0 -15 -3 -28 -8 -13 -5 -34 -9 -47 -9 -13 0 -27 -4 -30 -10 -7 -12 -45 -14 -45 -2 0 4 18 41 40 82 22 41 57 112 80 158 22 45 43 82 48 82 4 0 12 9 17 20 15 31 143 247 194 328 25 40 53 85 61 100 8 15 19 30 23 33 9 6 26 72 27 100 0 22 -44 33 -73 18 -26 -14 -65 -52 -114 -112 -63 -75 -148 -167 -155 -167 -4 0 0 24 9 53 16 55 44 156 69 247 8 30 19 64 24 75 5 11 16 36 23 56 8 20 32 49 53 65 21 16 63 54 94 84 31 30 76 71 101 92 35 29 41 39 32 49 -12 12 -28 8 -73 -20 -8 -5 -44 -26 -80 -47 -36 -21 -82 -48 -104 -62 l-39 -24 7 33 c3 19 8 44 10 56 3 11 8 42 12 68 4 27 15 54 25 63 22 19 25 55 7 69 -17 14 -47 19 -81 15z" />
<ns0:path d="M777 1607 c-20 -15 -32 -37 -38 -67 -12 -59 -37 -209 -48 -290 -5 -36 -29 -118 -54 -182 -33 -89 -41 -120 -32 -128 17 -14 57 32 100 120 21 41 43 82 50 90 7 8 15 31 18 50 5 36 54 228 81 313 15 51 13 70 -12 100 -20 22 -31 22 -65 -6z" />
</ns0:g>
</g><g transform="translate(-1.874058388384583,258.67493582381474) scale(0.027595579437518742)"><ns0:metadata>
Created by potrace 1.16, written by Peter Selinger 2001-2019
</ns0:metadata>
<ns0:g transform="translate(0.000000,215.000000) scale(0.100000,-0.100000)" fill="#000000" stroke="none">
<ns0:path d="M1305 2116 c-13 -13 -26 -39 -29 -57 -2 -19 -9 -70 -15 -114 -10 -72 -15 -83 -44 -107 -54 -46 -67 -35 -67 60 0 36 5 61 15 72 21 23 11 44 -29 58 -45 17 -59 15 -85 -9 -25 -23 -25 -33 6 -181 8 -42 13 -87 9 -101 -3 -14 -36 -49 -76 -81 l-70 -57 0 80 c0 75 -2 82 -25 97 -25 16 -27 16 -50 -6 -19 -18 -25 -34 -25 -64 0 -23 -10 -98 -21 -169 -24 -140 -22 -150 33 -161 28 -6 35 -1 87 56 127 142 170 181 185 169 17 -14 29 -1 45 51 10 31 27 48 47 48 3 0 2 -16 -2 -35 -8 -47 19 -48 42 -2 9 17 20 34 24 37 22 15 85 157 106 240 28 113 31 185 8 194 -28 11 -44 6 -69 -18z" />
<ns0:path d="M405 1654 c-38 -20 -79 -44 -90 -54 -11 -10 -36 -25 -55 -33 -47 -19 -66 -44 -75 -94 -6 -40 -5 -43 26 -62 21 -13 44 -19 60 -16 33 6 36 -1 45 -98 l6 -74 -108 -112 c-60 -62 -113 -123 -119 -137 -11 -30 1 -54 38 -72 37 -18 90 8 124 60 14 21 29 38 33 38 9 0 -5 -110 -25 -196 -29 -126 -46 -167 -86 -205 -34 -31 -39 -42 -39 -81 0 -38 4 -46 25 -56 43 -20 58 -14 114 43 29 30 57 55 61 55 5 0 42 20 84 44 41 25 98 55 127 67 47 21 54 21 78 8 26 -15 26 -16 28 -146 2 -129 11 -173 36 -173 16 0 44 55 51 100 3 19 12 76 20 125 8 50 21 111 30 136 9 27 13 59 10 77 -7 34 8 49 26 27 21 -25 34 -18 97 50 34 36 63 62 65 58 2 -4 1 -132 -2 -283 -6 -280 -2 -320 30 -320 27 0 46 40 44 95 -1 28 2 66 7 85 5 19 13 123 17 230 6 155 11 202 25 230 17 33 17 35 -2 50 -20 15 -20 16 20 58 22 23 44 42 47 42 4 0 7 -136 7 -303 -1 -347 3 -422 24 -422 16 0 28 35 38 105 3 25 10 53 15 64 6 10 12 104 14 210 2 105 9 226 16 268 10 68 9 79 -6 102 -9 14 -24 26 -34 26 -11 0 6 23 50 66 38 36 72 63 77 60 18 -12 35 -711 18 -788 -5 -23 -15 -39 -27 -43 -22 -7 -26 -35 -8 -53 38 -38 121 8 135 75 9 44 10 475 1 733 -4 96 -7 191 -7 211 -1 42 -18 53 -57 39 -37 -15 -73 -43 -177 -141 -82 -77 -162 -147 -248 -218 -16 -13 -29 -19 -29 -13 0 20 45 77 140 175 120 125 128 140 121 227 -2 19 -59 11 -75 -11 -8 -12 -27 -29 -43 -39 -28 -17 -126 -93 -197 -152 -22 -18 -51 -40 -65 -49 -41 -25 -230 -174 -293 -230 -65 -58 -74 -88 -33 -107 39 -18 42 -16 115 43 37 30 72 55 78 55 6 0 19 12 30 26 10 15 24 25 31 23 9 -3 7 -12 -7 -30 -11 -13 -38 -58 -60 -99 -35 -66 -47 -78 -93 -102 -30 -16 -58 -28 -62 -28 -5 0 -42 -16 -83 -35 -40 -19 -78 -35 -83 -35 -5 0 -17 -7 -26 -16 -24 -24 -29 -11 -16 48 6 29 16 78 22 108 6 30 15 73 21 95 6 22 12 47 14 55 1 8 11 41 23 72 12 32 21 65 21 75 0 10 6 30 13 44 17 31 5 69 -22 69 -10 0 -22 7 -25 16 -18 46 8 184 35 191 21 6 29 31 19 58 -8 22 14 55 36 55 20 0 37 38 30 66 -9 35 -57 31 -141 -12z" />
</ns0:g>
</g><g transform="translate(2.1118261506334193,325.83824681498817) scale(0.027595579437518742)"><ns0:metadata>
Created by potrace 1.16, written by Peter Selinger 2001-2019
</ns0:metadata>
<ns0:g transform="translate(0.000000,205.000000) scale(0.100000,-0.100000)" fill="#000000" stroke="none">
<ns0:path d="M833 1670 c-26 -11 -32 -60 -9 -79 7 -6 16 -32 19 -59 4 -26 9 -57 13 -68 5 -17 -6 -30 -58 -70 -35 -26 -93 -65 -130 -85 -66 -36 -70 -37 -143 -32 -65 5 -78 3 -96 -13 -18 -17 -20 -26 -14 -77 3 -32 15 -93 26 -135 15 -57 21 -120 24 -242 6 -226 13 -285 37 -307 19 -17 21 -17 39 6 10 13 20 37 20 55 1 17 3 112 5 211 7 355 7 350 26 347 25 -4 56 15 109 65 25 25 55 50 66 56 11 7 39 25 62 41 23 16 45 26 49 22 11 -11 19 -288 9 -309 -5 -10 -23 -25 -40 -32 -18 -7 -53 -33 -79 -58 -63 -59 -65 -93 -9 -134 l39 -28 -36 -50 c-20 -27 -49 -70 -66 -95 -56 -85 -180 -219 -201 -220 -6 0 -19 -14 -29 -30 -20 -36 -13 -50 34 -70 34 -14 42 -10 133 64 30 24 68 51 85 60 16 8 32 22 35 31 7 16 32 20 41 7 5 -8 2 -22 -29 -137 -7 -27 -12 -75 -10 -105 2 -30 4 -63 4 -73 1 -24 58 -56 161 -90 73 -24 101 -28 200 -29 131 0 247 23 330 67 14 7 50 20 80 28 30 7 81 31 114 53 32 21 68 44 79 51 12 7 25 20 28 30 11 27 -1 113 -22 155 -11 21 -19 46 -19 56 0 11 -11 40 -25 66 -14 26 -25 54 -25 62 0 21 -28 17 -40 -6 -17 -32 -15 -170 3 -214 25 -57 21 -70 -25 -100 -46 -30 -179 -86 -204 -86 -8 0 -28 -7 -44 -15 -19 -10 -83 -19 -180 -25 -146 -10 -151 -10 -205 13 -64 27 -109 63 -101 82 3 8 10 41 16 75 6 33 21 93 34 133 13 39 27 87 31 104 3 18 10 33 14 33 5 0 26 -14 47 -31 32 -26 44 -29 74 -24 41 8 64 26 79 63 23 58 61 366 61 498 0 73 6 178 12 235 15 124 13 306 -3 325 -6 8 -19 14 -29 14 -16 0 -137 -73 -150 -91 -10 -12 -72 -40 -78 -35 -3 4 -20 39 -37 79 -33 77 -51 88 -102 67z m295 -310 c-6 -63 -12 -189 -12 -280 -1 -91 -7 -196 -13 -235 -7 -38 -17 -106 -23 -150 -14 -93 -22 -106 -50 -80 -26 23 -25 29 5 59 45 45 23 80 -36 56 -16 -7 -32 -10 -35 -7 -3 3 2 36 11 74 14 54 18 120 20 328 2 143 6 268 10 277 9 22 117 90 126 80 4 -4 3 -59 -3 -122z m-298 -724 c0 -19 -37 -63 -45 -54 -4 3 3 20 16 37 26 35 29 37 29 17z" />
</ns0:g>
</g><g transform="translate(1.2194010474885886,413.98435010632534) scale(0.027595579437518742)"><ns0:metadata>
Created by potrace 1.16, written by Peter Selinger 2001-2019
</ns0:metadata>
<ns0:g transform="translate(0.000000,208.000000) scale(0.100000,-0.100000)" fill="#000000" stroke="none">
<ns0:path d="M1330 1599 c-58 -10 -134 -23 -170 -29 -36 -6 -83 -17 -105 -25 -36 -12 -40 -17 -38 -47 2 -49 35 -71 92 -63 25 4 61 13 81 19 92 33 150 46 150 32 0 -13 -104 -207 -116 -217 -9 -7 -29 -38 -45 -68 -16 -31 -43 -78 -59 -106 -16 -27 -37 -65 -46 -82 -9 -18 -20 -33 -24 -33 -4 0 -13 -14 -20 -30 -18 -43 -59 -61 -180 -77 -58 -7 -136 -18 -175 -23 -128 -17 -165 -35 -165 -79 0 -37 57 -76 91 -62 31 13 166 46 249 61 36 7 91 19 123 28 l58 15 32 -31 c51 -50 84 -126 97 -228 17 -125 17 -125 -121 -154 -91 -19 -117 -21 -142 -12 -34 13 -47 8 -47 -16 0 -11 16 -25 43 -36 35 -16 64 -18 174 -17 158 2 183 9 183 50 0 17 6 34 14 38 11 6 12 26 5 103 -9 110 -26 181 -63 264 -14 32 -26 64 -26 71 0 15 22 25 53 25 12 0 45 12 72 26 55 27 127 53 222 79 69 19 96 40 72 56 -22 15 -146 0 -214 -26 -65 -24 -202 -52 -211 -43 -7 8 26 72 60 117 14 19 26 39 26 43 0 5 16 31 35 58 20 28 48 76 62 108 15 31 44 79 65 105 38 49 54 88 65 165 10 69 5 70 -157 41z m-520 -769 c0 -5 -12 -12 -27 -16 -16 -3 -34 -7 -40 -10 -7 -2 -13 1 -13 6 0 5 15 14 33 19 43 12 47 13 47 1z" />
</ns0:g>
</g><g transform="translate(0.8183472600168784,487.6150524415077) scale(0.027595579437518742)"><ns0:metadata>
Created by potrace 1.16, written by Peter Selinger 2001-2019
</ns0:metadata>
<ns0:g transform="translate(0.000000,211.000000) scale(0.100000,-0.100000)" fill="#000000" stroke="none">
<ns0:path d="M1520 1927 c-23 -12 -25 -18 -24 -77 1 -36 4 -112 8 -170 11 -174 17 -364 12 -386 -4 -15 -41 -39 -133 -85 -71 -35 -151 -78 -180 -96 -29 -18 -57 -33 -63 -33 -6 0 -10 26 -10 63 0 51 6 75 36 137 20 41 47 98 61 126 19 42 24 65 22 120 -3 95 -26 162 -61 180 -54 28 -96 -26 -64 -83 32 -59 58 -152 52 -185 -7 -40 -52 -73 -123 -93 -26 -7 -70 -23 -96 -35 -27 -12 -50 -20 -53 -18 -2 3 -6 22 -9 45 -3 22 -13 66 -23 99 -16 53 -21 59 -45 59 -15 -1 -27 0 -27 1 0 1 7 15 15 30 22 43 20 91 -5 99 -35 11 -60 -5 -81 -53 -12 -26 -25 -49 -28 -52 -9 -7 -55 -114 -71 -165 -19 -59 -71 -161 -118 -233 -37 -58 -70 -90 -132 -132 -12 -8 -40 -27 -61 -43 -22 -15 -58 -35 -82 -44 -23 -9 -49 -21 -57 -28 -8 -6 -31 -18 -50 -25 -97 -38 -139 -109 -85 -144 30 -20 49 -20 65 -1 13 15 167 108 225 136 28 13 67 39 198 134 23 17 69 44 102 60 33 17 66 36 73 42 7 7 16 13 19 13 7 0 -3 -77 -19 -147 -11 -46 -15 -52 -34 -47 -29 8 -93 -71 -140 -172 -52 -112 -190 -294 -222 -294 -15 0 -26 -40 -14 -52 6 -6 22 -8 35 -4 31 7 169 153 204 215 45 80 73 121 82 121 5 0 15 -16 21 -35 10 -29 8 -45 -8 -98 -11 -34 -30 -95 -42 -136 -12 -41 -28 -85 -37 -97 -34 -53 24 -75 69 -26 36 38 80 143 122 289 20 71 55 89 188 97 89 6 121 12 160 32 83 42 54 71 -53 51 -80 -14 -95 -1 -48 43 19 17 48 39 64 47 17 9 57 39 90 67 75 65 178 132 297 195 44 23 59 27 67 17 11 -13 -11 -230 -28 -291 -10 -33 -22 -169 -27 -310 -8 -221 -17 -310 -35 -347 -34 -67 -23 -88 47 -88 24 0 38 6 49 24 19 28 40 218 50 431 6 135 28 346 40 377 3 8 10 61 15 119 15 181 21 192 125 239 28 12 54 29 58 36 4 8 18 14 31 14 29 0 61 24 52 38 -4 7 -18 12 -31 12 -30 0 -172 -46 -202 -66 l-23 -14 -1 87 c-5 384 -6 409 -23 461 -9 28 -21 52 -26 52 -4 0 -14 2 -22 5 -7 3 -24 -1 -38 -8z m-745 -347 c-3 -5 -11 -10 -16 -10 -6 0 -7 5 -4 10 3 6 11 10 16 10 6 0 7 -4 4 -10z m-11 -267 c-5 -73 -10 -91 -28 -106 -23 -20 -67 -40 -73 -34 -2 2 10 31 25 63 16 32 37 83 48 112 10 28 22 52 26 52 4 0 5 -39 2 -87z m266 -84 c-5 -17 -6 -59 -3 -94 7 -72 -5 -110 -46 -153 -42 -45 -181 -143 -181 -129 0 41 40 197 59 227 11 19 21 47 21 62 0 23 12 35 67 73 82 54 95 57 83 14z m-800 -385 c-8 -8 -22 -20 -32 -25 -15 -8 -18 -6 -18 10 0 18 14 27 49 30 11 1 11 -2 1 -15z m451 -21 c-4 -15 -13 -29 -20 -31 -9 -3 -11 1 -7 9 3 8 9 22 12 32 10 28 23 20 15 -10z" />
</ns0:g>
</g><g transform="translate(2.3961535415833737,560.564683918608) scale(0.027595579437518742)"><ns0:metadata>
Created by potrace 1.16, written by Peter Selinger 2001-2019
</ns0:metadata>
<ns0:g transform="translate(0.000000,214.000000) scale(0.100000,-0.100000)" fill="#000000" stroke="none">
<ns0:path d="M1233 1978 c-19 -21 -53 -155 -53 -209 0 -36 -30 -74 -91 -114 -32 -21 -69 -49 -81 -62 -12 -13 -26 -23 -31 -23 -5 0 -34 -22 -65 -50 -31 -27 -61 -50 -68 -50 -18 0 -101 -94 -120 -136 l-16 -39 -9 30 c-5 17 -12 75 -15 130 l-6 100 31 12 c64 24 25 66 -71 77 -50 5 -60 3 -83 -16 -25 -22 -25 -24 -12 -68 22 -68 37 -148 42 -218 3 -34 6 -66 6 -70 7 -41 -12 -60 -136 -137 -58 -36 -164 -139 -175 -169 -13 -38 9 -74 51 -83 l30 -6 -65 -43 c-94 -63 -116 -103 -78 -137 23 -21 65 -22 81 -3 7 8 43 33 81 55 37 23 89 57 114 76 l46 35 0 -43 c0 -68 -19 -274 -29 -320 -23 -101 -42 -278 -39 -352 3 -73 5 -80 25 -83 13 -2 25 4 31 15 19 38 85 433 123 738 6 53 19 103 30 121 10 17 19 38 19 46 0 20 45 78 76 99 35 23 64 68 64 101 0 43 -17 42 -70 -2 -34 -28 -50 -37 -50 -26 0 20 21 66 31 66 4 0 20 13 36 29 16 16 38 30 48 32 11 3 24 14 30 25 6 12 45 54 88 95 42 41 77 79 77 85 0 9 59 56 109 88 16 10 11 -90 -14 -279 -25 -187 -19 -175 -121 -238 -101 -61 -130 -90 -159 -159 -14 -36 -14 -39 5 -58 36 -36 62 -26 126 50 41 50 74 78 109 95 27 13 61 36 75 50 14 15 50 44 80 63 30 20 61 42 68 49 33 32 42 6 14 -35 -11 -15 -31 -52 -47 -82 -15 -30 -31 -63 -36 -72 -5 -10 -9 -25 -9 -35 0 -26 -22 -83 -53 -138 -15 -27 -35 -66 -43 -85 -8 -19 -23 -51 -33 -70 -10 -19 -24 -52 -31 -72 -6 -21 -14 -38 -16 -38 -19 0 -61 42 -86 86 -34 61 -55 71 -96 50 -33 -17 -45 -38 -35 -63 17 -44 86 -133 118 -153 19 -12 38 -32 41 -45 7 -30 -47 -156 -92 -214 -19 -24 -34 -48 -34 -53 0 -4 -8 -8 -18 -8 -41 0 -55 -47 -26 -88 23 -33 45 -27 95 26 62 65 91 106 129 185 18 37 37 67 43 67 5 0 32 -21 61 -46 28 -26 81 -66 118 -90 37 -24 71 -50 75 -58 13 -22 85 -64 141 -81 29 -10 55 -21 58 -26 3 -5 123 -8 267 -8 200 1 244 4 187 10 -41 5 -119 13 -174 19 -93 11 -210 39 -248 60 -10 6 -25 10 -34 10 -19 0 -66 31 -119 80 -22 20 -49 43 -61 51 -85 57 -174 133 -198 167 l-28 41 28 78 c16 43 50 120 77 172 26 53 60 131 74 176 15 44 30 85 34 90 4 6 18 30 32 55 13 25 39 72 58 105 18 33 61 93 96 132 35 40 63 81 63 90 0 10 3 35 6 56 6 35 5 37 -21 37 -32 0 -124 -42 -175 -80 -19 -14 -48 -32 -64 -40 -16 -8 -43 -28 -60 -44 -28 -26 -89 -66 -101 -66 -11 0 -3 41 20 109 15 41 31 123 39 194 16 140 34 204 65 238 41 45 48 54 60 76 15 29 0 37 -35 18 -27 -14 -29 -14 -32 4 -4 24 34 100 53 108 8 3 15 11 15 19 0 38 -104 47 -137 12z m-643 -910 c-1 -31 -15 -47 -82 -91 -62 -41 -68 -43 -68 -24 0 17 120 137 137 137 7 0 13 -10 13 -22z" />
</ns0:g>
</g><g transform="translate(-2.1505893201818367,651.9704916539474) scale(0.027595579437518742)"><ns0:metadata>
Created by potrace 1.16, written by Peter Selinger 2001-2019
</ns0:metadata>
<ns0:g transform="translate(0.000000,207.000000) scale(0.100000,-0.100000)" fill="#000000" stroke="none">
<ns0:path d="M953 1943 c-7 -2 -13 -9 -13 -15 0 -5 -15 -44 -34 -87 -18 -42 -41 -108 -51 -147 -13 -54 -22 -73 -43 -86 -223 -142 -321 -216 -337 -255 -22 -52 -19 -69 18 -97 40 -31 71 -26 87 14 15 36 107 133 119 126 5 -4 -4 -33 -20 -66 -16 -33 -29 -63 -29 -67 0 -7 -110 -228 -174 -348 -48 -91 -163 -269 -195 -302 -11 -12 -21 -25 -21 -28 0 -4 -14 -26 -30 -49 -33 -46 -32 -72 4 -85 17 -7 29 0 59 29 20 21 37 42 37 48 0 6 8 17 18 24 22 16 72 90 72 106 0 7 16 29 35 51 19 21 35 43 35 48 0 6 39 48 87 93 105 100 106 100 88 -91 -7 -74 -12 -188 -11 -254 1 -135 10 -148 59 -97 27 28 28 35 37 178 6 82 14 185 19 229 15 119 13 220 -2 234 -18 14 -73 -2 -104 -31 -12 -12 -23 -18 -23 -15 0 4 20 46 44 94 24 49 55 115 69 148 30 71 74 152 96 178 9 10 25 37 36 59 11 22 24 40 28 39 5 -1 21 15 36 36 15 21 45 50 67 64 93 61 131 85 157 98 15 7 27 17 27 22 0 5 20 18 44 30 24 11 67 43 96 70 44 42 49 51 40 69 -13 24 -15 24 -60 1 -19 -11 -59 -31 -89 -45 -29 -14 -74 -41 -100 -59 -63 -46 -129 -82 -137 -74 -6 6 19 94 37 129 28 55 -21 105 -78 81z" />
<ns0:path d="M1417 1738 c-167 -178 -203 -214 -217 -220 -22 -9 -170 -138 -170 -148 0 -5 -26 -29 -57 -53 -39 -30 -68 -63 -87 -100 -28 -52 -29 -57 -13 -80 27 -42 54 -41 86 3 39 55 256 280 269 280 6 0 21 13 34 29 13 16 33 34 46 40 26 14 26 15 11 -84 -6 -38 -12 -171 -13 -294 l-1 -224 -86 -46 c-48 -25 -94 -52 -103 -60 -34 -29 -28 1 12 58 23 32 46 69 51 83 5 13 19 46 32 72 l23 49 -28 23 c-37 33 -87 30 -160 -9 -50 -27 -65 -41 -93 -92 -37 -68 -37 -89 4 -167 l25 -47 -20 -28 c-11 -15 -45 -51 -77 -80 -47 -43 -55 -56 -50 -75 19 -63 75 -64 143 -3 27 25 54 45 59 45 5 0 20 -12 34 -26 56 -62 196 -165 244 -180 27 -10 61 -25 74 -35 29 -23 64 -24 82 -2 21 24 15 130 -16 289 -15 75 -30 167 -35 203 -5 36 -14 89 -20 116 -19 84 6 451 37 550 17 54 33 86 78 155 19 29 29 59 29 85 1 37 -1 40 -29 43 -26 2 -39 -7 -98 -70z m-267 -762 c0 -7 -14 -30 -30 -51 -17 -21 -33 -49 -36 -62 -7 -27 -43 -52 -45 -31 -5 64 15 111 63 145 32 23 48 22 48 -1z m183 -244 c3 -43 11 -91 17 -106 5 -15 13 -54 16 -87 4 -47 2 -59 -9 -59 -24 0 -120 48 -163 83 -23 17 -56 40 -75 50 l-33 18 44 41 c54 50 171 136 186 137 7 1 13 -30 17 -77z" />
</ns0:g>
</g><g transform="translate(-2.9995159258491526,720.3097764374171) scale(0.027595579437518742)"><ns0:metadata>
Created by potrace 1.16, written by Peter Selinger 2001-2019
</ns0:metadata>
<ns0:g transform="translate(0.000000,209.000000) scale(0.100000,-0.100000)" fill="#000000" stroke="none">
<ns0:path d="M1491 1903 c-31 -32 -71 -75 -88 -95 -18 -21 -61 -57 -97 -82 -122 -84 -206 -156 -206 -177 0 -12 -8 -23 -19 -26 -30 -8 -51 -64 -67 -176 -18 -130 -21 -140 -42 -131 -40 17 -94 16 -142 -5 -27 -12 -51 -21 -54 -21 -13 0 -4 20 29 68 154 225 165 418 25 452 -117 28 -218 -43 -153 -108 18 -18 16 -39 -6 -76 -19 -31 -29 -101 -36 -251 -4 -98 -13 -163 -26 -186 -6 -12 -5 -20 2 -25 8 -5 10 -53 7 -165 -6 -168 -17 -209 -57 -209 -24 0 -42 -22 -32 -39 5 -7 24 -16 42 -20 l34 -7 1 -94 c6 -356 7 -371 25 -381 10 -5 26 -9 37 -9 43 0 46 18 43 280 -1 196 1 256 12 283 17 40 78 128 122 177 18 19 49 60 69 90 l37 55 -6 -40 c-4 -22 -14 -77 -22 -122 -23 -124 -9 -143 52 -65 35 45 37 46 32 17 -3 -16 -9 -68 -12 -115 -4 -47 -13 -110 -20 -140 -21 -89 -72 -225 -100 -266 -30 -44 -32 -77 -5 -104 24 -24 31 -24 92 -5 70 21 138 78 258 213 30 34 63 62 72 62 9 0 40 -23 70 -51 29 -28 88 -77 130 -110 42 -32 80 -64 83 -69 7 -11 111 -80 121 -80 3 0 19 -14 36 -30 17 -17 45 -42 63 -56 l33 -25 58 22 c93 35 134 96 85 126 -16 10 -24 9 -44 -7 -33 -26 -49 -25 -85 5 -17 14 -33 25 -36 25 -11 0 -178 119 -236 167 -30 25 -71 67 -92 93 -21 26 -53 59 -73 74 -42 32 -43 44 -10 80 14 15 25 29 25 30 0 2 14 19 31 37 17 19 47 56 65 84 19 27 50 73 70 100 19 28 37 60 40 73 7 26 -11 52 -37 52 -17 0 -139 -110 -139 -125 0 -7 -60 -86 -105 -140 -14 -16 -34 -41 -44 -54 l-18 -25 -31 25 c-17 13 -31 29 -31 35 -1 18 -60 64 -82 64 -20 0 -21 4 -17 63 9 101 27 147 77 192 122 109 153 144 149 167 -4 29 -43 37 -66 13 -25 -24 -140 -105 -150 -105 -5 0 -17 -9 -27 -20 -29 -32 -38 -24 -30 27 13 88 43 189 50 171 11 -27 32 -22 109 26 39 23 90 54 114 66 41 23 42 23 57 4 17 -22 19 -112 11 -374 -1 -46 29 -52 61 -11 30 38 43 156 43 386 0 209 21 372 57 432 18 32 23 53 21 90 -3 42 -6 48 -26 51 -18 3 -38 -11 -81 -55z m-51 -211 c0 -5 -5 -35 -12 -68 -11 -56 -14 -82 -17 -132 -1 -20 -5 -22 -39 -16 -28 4 -41 2 -51 -10 -7 -9 -19 -16 -26 -16 -7 0 -18 -7 -25 -15 -7 -8 -20 -15 -30 -15 -9 0 -38 -11 -64 -25 -56 -30 -59 -30 -53 -7 3 9 8 33 11 53 5 27 13 39 29 43 12 3 49 31 82 62 33 31 80 69 104 85 24 15 50 37 58 49 14 20 33 27 33 12z m-604 -94 c10 -16 7 -74 -5 -97 -11 -20 -13 -19 -51 18 -45 44 -48 53 -21 80 19 19 65 19 77 -1z m-46 -193 c0 -2 -9 -19 -20 -37 l-20 -33 0 31 c0 17 3 34 7 37 7 8 33 9 33 2z m80 -280 c0 -10 -63 -120 -94 -162 -36 -52 -56 -56 -56 -10 0 77 11 104 50 126 20 11 43 28 50 36 12 14 50 22 50 10z m320 -580 c11 -20 10 -28 -4 -50 -10 -14 -24 -29 -32 -32 -8 -3 -28 -24 -43 -47 -28 -40 -91 -87 -91 -68 0 5 7 29 16 53 8 24 24 80 35 124 11 44 22 86 25 93 5 16 75 -38 94 -73z" />
</ns0:g>
</g><g transform="translate(0.7990795345240258,801.2398140700482) scale(0.027595579437518742)"><ns0:metadata>
Created by potrace 1.16, written by Peter Selinger 2001-2019
</ns0:metadata>
<ns0:g transform="translate(0.000000,207.000000) scale(0.100000,-0.100000)" fill="#000000" stroke="none">
<ns0:path d="M1005 1928 c-21 -24 -57 -83 -82 -133 -24 -49 -57 -115 -74 -145 -17 -30 -58 -113 -91 -185 -33 -71 -77 -155 -96 -185 -38 -59 -112 -200 -112 -213 0 -5 -11 -23 -25 -41 -14 -18 -25 -37 -25 -43 0 -6 -20 -41 -45 -79 -25 -37 -45 -72 -45 -77 0 -4 -12 -33 -27 -63 -25 -51 -26 -56 -10 -72 20 -19 43 -10 61 24 24 45 81 133 117 180 21 28 68 107 103 177 35 69 78 145 94 169 16 24 48 81 71 128 24 47 51 99 61 115 10 17 21 40 24 52 9 28 69 129 94 157 11 12 36 49 56 84 21 34 50 69 66 77 53 27 40 80 -26 105 -41 16 -50 12 -89 -32z" />
<ns0:path d="M1188 1549 c-21 -11 -25 -79 -6 -79 6 0 19 -6 27 -14 9 -8 41 -24 71 -36 30 -12 65 -31 76 -42 27 -24 77 -21 82 5 4 18 -18 42 -125 140 -43 39 -88 48 -125 26z" />
<ns0:path d="M1040 1183 c-8 -2 -24 -8 -35 -13 -11 -5 -32 -11 -46 -14 -25 -5 -26 -8 -32 -105 -12 -179 -73 -380 -151 -496 -100 -149 -130 -187 -181 -231 -50 -44 -53 -48 -43 -75 6 -16 23 -36 38 -44 31 -16 37 -12 119 63 35 32 117 77 178 97 29 9 55 21 58 26 4 5 17 9 30 9 13 0 27 5 30 10 3 6 17 10 29 10 13 0 29 6 36 14 6 8 17 13 25 10 7 -3 27 2 44 10 16 9 37 16 46 16 9 0 44 13 78 29 54 25 113 45 140 46 4 0 18 -29 31 -65 38 -109 55 -142 68 -138 23 8 29 115 13 213 -8 50 -17 137 -19 194 -3 57 -6 104 -8 105 -68 48 -108 54 -142 21 -15 -15 -13 -59 3 -80 9 -11 41 -136 41 -158 0 -9 -16 -16 -45 -20 -25 -4 -63 -16 -85 -27 -21 -11 -47 -20 -57 -20 -16 0 -128 -32 -281 -81 -35 -11 -66 -18 -69 -15 -3 3 13 33 36 68 22 35 41 70 41 78 0 8 7 28 15 43 8 16 29 94 46 175 17 81 35 155 40 164 5 10 9 30 9 44 0 14 11 39 25 56 27 32 32 57 13 76 -13 13 -15 13 -38 5z" />
</ns0:g>
</g><g transform="translate(2.400624491948122,880.0622195167716) scale(0.027595579437518742)"><ns0:metadata>
Created by potrace 1.16, written by Peter Selinger 2001-2019
</ns0:metadata>
<ns0:g transform="translate(0.000000,209.000000) scale(0.100000,-0.100000)" fill="#000000" stroke="none">
<ns0:path d="M1199 2057 c-116 -67 -156 -91 -219 -132 -36 -23 -101 -61 -145 -84 -44 -24 -84 -49 -88 -57 -4 -8 -12 -14 -18 -14 -19 0 -136 -59 -149 -75 -8 -10 -39 -28 -70 -41 -85 -38 -113 -91 -71 -133 16 -16 30 -19 72 -15 57 5 89 18 89 37 0 17 87 107 103 107 8 0 26 11 40 24 26 24 35 30 132 80 28 15 66 38 85 51 61 44 111 75 120 75 4 0 20 14 33 30 14 17 32 30 40 30 8 0 20 7 27 15 7 8 18 15 26 15 7 0 20 7 29 16 9 9 18 14 21 11 7 -7 -28 -158 -65 -282 -17 -55 -33 -116 -36 -135 -3 -19 -12 -64 -20 -100 -32 -136 -52 -265 -60 -393 -3 -42 -11 -96 -19 -120 -35 -110 -49 -277 -35 -405 6 -51 9 -95 6 -99 -3 -3 -21 6 -39 20 -60 45 -94 57 -160 57 -81 0 -110 -8 -106 -29 2 -11 22 -19 68 -26 36 -6 75 -16 86 -23 33 -18 100 -102 128 -162 15 -30 31 -62 36 -70 5 -8 17 -32 26 -53 21 -48 57 -68 81 -45 21 22 28 102 14 180 -6 34 -18 131 -26 213 -19 173 -15 261 21 444 13 69 24 137 24 152 0 135 130 698 187 813 14 27 27 73 30 102 l6 54 -74 0 c-65 -1 -81 -5 -130 -33z" />
<ns0:path d="M1055 1615 c-16 -8 -61 -28 -100 -45 -38 -18 -87 -44 -110 -59 -22 -15 -52 -32 -66 -38 -15 -6 -42 -25 -60 -41 -19 -16 -54 -40 -79 -52 -91 -47 -144 -137 -105 -180 14 -16 31 -20 81 -20 34 0 69 3 78 6 21 8 21 60 0 72 -24 13 35 67 206 189 14 10 61 36 104 58 92 46 136 81 136 107 0 22 -40 24 -85 3z" />
<ns0:path d="M588 1004 c-38 -20 -41 -53 -7 -90 19 -20 19 -21 -1 -39 -11 -10 -20 -24 -20 -30 0 -7 -7 -18 -15 -25 -8 -7 -15 -21 -15 -31 0 -11 -4 -19 -9 -19 -29 0 -75 -236 -52 -264 26 -31 63 -26 151 21 154 84 310 264 310 360 0 42 -34 69 -101 82 -31 5 -82 19 -115 30 -69 25 -89 25 -126 5z m182 -114 c25 -6 55 -12 66 -15 12 -3 24 -12 28 -20 9 -25 -28 -88 -76 -128 -24 -20 -51 -43 -60 -51 -27 -23 -75 -46 -97 -46 -11 0 -23 -5 -26 -10 -4 -6 -11 -7 -17 -4 -11 7 -4 74 12 102 5 9 21 46 36 82 44 104 50 108 134 90z" />
</ns0:g>
</g></svg>