<?xml version='1.0' encoding='utf-8'?>
<svg xmlns:ns0="http://www.w3.org/2000/svg" xmlns="http://www.w3.org/2000/svg" width="235" height="152" viewBox="0 0 235 152"><g transform="translate(-2.1028329897393405,-118.26838323190441) scale(0.06415263093695735)"><ns0:metadata>
Created by potrace 1.16, written by Peter Selinger 2001-2019
</ns0:metadata>
<ns0:g transform="translate(0.000000,207.000000) scale(0.100000,-0.100000)" fill="#000000" stroke="none">
<ns0:path d="M1467 1412 c-10 -10 -17 -21 -17 -24 0 -10 49 -15 53 -5 2 6 11 6 25 -2 18 -10 22 -9 22 3 0 9 -13 22 -30 31 -36 19 -34 19 -53 -3z" />
<ns0:path d="M840 1261 c0 -6 -7 -11 -15 -11 -31 0 -31 -92 0 -104 9 -3 35 1 58 9 99 34 165 7 152 -63 -21 -114 -213 -390 -300 -431 -44 -21 -115 -92 -115 -115 0 -39 85 -61 111 -29 8 9 42 28 75 44 34 15 65 32 68 38 4 6 20 11 35 11 16 0 46 6 67 14 22 7 81 17 132 21 70 5 95 11 99 23 4 8 -1 20 -11 27 -22 16 -181 27 -229 16 -51 -12 -55 2 -14 52 19 23 37 52 41 64 4 12 21 33 37 47 31 26 81 125 94 184 19 90 -25 182 -96 196 -68 14 -189 19 -189 7z" />
</ns0:g>
</g><g transform="translate(0.40958403938373067,66.82900744996641) scale(0.06415263093695735)"><ns0:metadata>
Created by potrace 1.16, written by Peter Selinger 2001-2019
</ns0:metadata>
<ns0:g transform="translate(0.000000,208.000000) scale(0.100000,-0.100000)" fill="#000000" stroke="none">
<ns0:path d="M791 1371 c-12 -12 -21 -31 -21 -43 0 -13 -12 -50 -25 -83 -28 -68 -32 -88 -11 -59 26 35 29 5 7 -68 -23 -79 -27 -158 -11 -204 18 -51 72 -78 163 -83 l79 -3 -7 -52 c-4 -28 -16 -76 -26 -106 -23 -66 -24 -100 -4 -100 33 0 99 96 130 190 14 43 32 83 38 88 7 5 36 15 65 22 59 14 68 26 74 101 3 39 0 45 -26 58 -27 13 -31 12 -48 -9 -10 -12 -18 -28 -18 -36 0 -8 -4 -14 -10 -14 -13 0 -13 15 -1 38 5 9 15 39 22 66 7 27 26 64 42 83 33 37 30 58 -8 73 -93 35 -128 -9 -166 -210 -7 -36 -16 -67 -20 -70 -5 -3 -36 -5 -69 -4 -82 2 -104 21 -95 83 4 25 16 79 27 120 11 42 22 85 25 96 2 11 -2 47 -10 80 -13 56 -15 60 -45 63 -21 2 -37 -3 -51 -17z" />
</ns0:g>
</g><g transform="translate(2.686202576700964,245.44728239462376) scale(0.06415263093695735)"><ns0:metadata>
Created by potrace 1.16, written by Peter Selinger 2001-2019
</ns0:metadata>
<ns0:g transform="translate(0.000000,213.000000) scale(0.100000,-0.100000)" fill="#000000" stroke="none">
<ns0:path d="M1278 1556 c-15 -6 -40 -24 -55 -38 -36 -34 -185 -108 -217 -108 -14 0 -28 5 -31 10 -9 15 -32 12 -96 -12 -81 -31 -89 -62 -28 -107 l30 -22 92 21 c58 14 113 34 148 56 31 19 60 34 64 34 14 0 -4 -98 -33 -182 -16 -46 -35 -108 -42 -138 -6 -30 -26 -98 -43 -150 -28 -86 -31 -107 -32 -222 0 -118 2 -129 22 -149 21 -21 23 -21 47 -5 25 16 26 21 26 104 1 95 6 127 40 247 12 44 29 105 37 135 19 71 61 194 83 245 9 22 22 67 29 100 8 33 21 74 30 90 26 48 29 69 13 88 -17 19 -45 21 -84 3z" />
</ns0:g>
</g><g transform="translate(-1.8940080758999898,448.24548807542715) scale(0.06415263093695735)"><ns0:metadata>
Created by potrace 1.16, written by Peter Selinger 2001-2019
</ns0:metadata>
<ns0:g transform="translate(0.000000,212.000000) scale(0.100000,-0.100000)" fill="#000000" stroke="none">
<ns0:path d="M934 1149 c-31 -4 -64 -22 -124 -67 -111 -84 -121 -98 -109 -148 9 -36 15 -42 51 -51 40 -11 41 -10 94 39 29 28 68 60 86 73 52 34 183 50 200 23 4 -7 8 -31 8 -53 0 -43 28 -113 51 -131 22 -18 84 -25 113 -15 30 12 233 200 259 241 15 24 15 29 3 40 -21 16 -103 -22 -176 -82 -117 -95 -126 -95 -141 -13 -10 56 -48 135 -67 143 -19 7 -198 8 -248 1z" />
</ns0:g>
</g><g transform="translate(-1.2693546926343515,608.0774619109076) scale(0.06415263093695735)"><ns0:metadata>
Created by potrace 1.16, written by Peter Selinger 2001-2019
</ns0:metadata>
<ns0:g transform="translate(0.000000,208.000000) scale(0.100000,-0.100000)" fill="#000000" stroke="none">
<ns0:path d="M871 1322 c-20 -20 -30 -42 -35 -79 -6 -47 -4 -56 21 -92 21 -30 35 -40 56 -41 21 0 30 -7 38 -27 16 -41 2 -130 -28 -183 -14 -25 -34 -61 -44 -80 -22 -44 -86 -106 -164 -158 -67 -45 -108 -93 -99 -117 3 -8 22 -22 41 -31 32 -16 35 -16 56 2 33 28 60 42 140 71 39 14 81 31 92 38 24 15 105 38 199 56 66 13 89 30 69 50 -16 16 -201 12 -255 -4 -39 -12 -48 -12 -48 -2 0 13 51 96 89 146 30 38 38 65 45 149 5 53 3 91 -7 130 -21 76 -26 88 -64 148 -38 61 -61 66 -102 24z" />
</ns0:g>
</g><g transform="translate(2.781850427118343,799.7560403803661) scale(0.06415263093695735)"><ns0:metadata>
Created by potrace 1.16, written by Peter Selinger 2001-2019
</ns0:metadata>
<ns0:g transform="translate(0.000000,208.000000) scale(0.100000,-0.100000)" fill="#000000" stroke="none">
<ns0:path d="M985 1344 c-18 -20 -38 -56 -45 -82 -7 -26 -21 -67 -33 -92 -57 -127 -67 -153 -65 -163 1 -7 -2 -36 -6 -65 -14 -90 32 -146 116 -142 65 4 70 -2 44 -52 -18 -34 -29 -85 -21 -97 12 -21 45 7 96 82 32 48 63 83 78 88 15 5 34 14 43 19 10 6 28 10 40 10 12 0 49 9 83 21 66 22 102 61 90 99 -10 31 -36 32 -121 5 -130 -41 -131 -41 -85 101 34 105 80 188 107 193 10 1 34 14 52 28 25 19 32 31 30 51 -3 23 -7 27 -33 25 -145 -10 -156 -15 -186 -81 -36 -80 -79 -213 -95 -291 -8 -41 -16 -76 -18 -78 -8 -9 -63 -10 -84 -2 -21 8 -23 13 -17 52 10 71 109 284 140 301 31 17 42 36 37 66 -4 30 -23 40 -81 40 -26 0 -41 -8 -66 -36z" />
</ns0:g>
</g><g transform="translate(-2.0886811653589348,978.0054823824507) scale(0.06415263093695735)"><ns0:metadata>
Created by potrace 1.16, written by Peter Selinger 2001-2019
</ns0:metadata>
<ns0:g transform="translate(0.000000,214.000000) scale(0.100000,-0.100000)" fill="#000000" stroke="none">
<ns0:path d="M1328 1472 c-1 -5 -36 -28 -76 -52 -73 -43 -91 -48 -252 -71 -94 -14 -110 -22 -110 -59 0 -57 66 -89 121 -59 11 5 50 18 87 28 37 11 77 22 90 26 23 8 23 7 17 -41 -9 -73 -26 -145 -41 -184 -8 -19 -19 -68 -24 -109 -6 -40 -12 -76 -15 -80 -12 -20 -32 -204 -28 -254 6 -66 30 -91 80 -85 l28 3 7 120 c8 160 31 273 129 637 5 20 20 50 32 65 26 31 34 88 16 109 -12 15 -55 19 -61 6z" />
</ns0:g>
</g></svg>