<?xml version='1.0' encoding='utf-8'?>
<svg xmlns:ns0="http://www.w3.org/2000/svg" xmlns="http://www.w3.org/2000/svg" width="235" height="152" viewBox="0 0 235 152"><g transform="translate(-0.48679006549770065,-128.95936823850832) scale(0.06415263093695735)"><ns0:metadata>
Created by potrace 1.16, written by Peter Selinger 2001-2019
</ns0:metadata>
<ns0:g transform="translate(0.000000,212.000000) scale(0.100000,-0.100000)" fill="#000000" stroke="none">
<ns0:path d="M911 1561 c-36 -36 -27 -59 32 -86 28 -14 58 -25 65 -25 22 0 97 -56 111 -83 35 -66 -27 -206 -136 -304 -71 -64 -113 -93 -138 -93 -9 0 -9 16 2 72 19 100 -6 455 -34 475 -19 15 -50 8 -75 -16 -19 -19 -34 -150 -31 -276 7 -286 8 -626 1 -715 -9 -117 -1 -151 38 -169 33 -15 60 3 68 43 4 17 6 123 6 236 0 113 -1 215 0 228 0 18 15 29 83 61 45 21 99 53 119 72 20 19 50 44 66 56 16 12 37 38 46 57 9 19 21 38 26 41 6 3 15 26 21 51 6 24 15 44 19 44 13 0 25 60 21 105 -4 48 -34 110 -70 146 -86 85 -197 123 -240 80z" />
</ns0:g>
</g><g transform="translate(0.8905582580713371,37.72030676234061) scale(0.06415263093695735)"><ns0:metadata>
Created by potrace 1.16, written by Peter Selinger 2001-2019
</ns0:metadata>
<ns0:g transform="translate(0.000000,209.000000) scale(0.100000,-0.100000)" fill="#000000" stroke="none">
<ns0:path d="M1227 1316 c-26 -8 -70 -26 -98 -41 -34 -17 -60 -24 -77 -21 -15 3 -34 0 -42 -7 -37 -30 -91 -121 -158 -267 -12 -25 -30 -61 -41 -80 -52 -89 -161 -331 -174 -385 -20 -80 -21 -177 -4 -217 8 -18 20 -48 27 -66 7 -18 27 -42 44 -54 17 -12 36 -29 42 -36 7 -10 29 -14 65 -14 45 0 67 8 132 44 92 52 227 173 290 260 26 35 60 81 77 103 113 147 138 198 160 328 20 120 7 313 -25 382 -14 29 -31 58 -38 63 -21 18 -128 22 -180 8z m135 -114 c18 -46 30 -240 18 -302 -19 -101 -33 -145 -50 -165 -10 -11 -25 -33 -34 -50 -22 -41 -38 -64 -61 -92 -10 -13 -37 -50 -60 -82 -48 -71 -189 -200 -262 -241 -71 -40 -103 -39 -142 5 -17 20 -34 48 -38 63 -13 52 21 200 71 305 25 53 46 100 46 103 0 13 35 81 58 112 13 17 37 56 53 85 16 28 37 68 48 88 20 36 138 139 159 139 6 0 25 13 43 29 37 34 95 52 122 39 10 -5 23 -21 29 -36z" />
</ns0:g>
</g><g transform="translate(-2.930713378071516,233.78300509716814) scale(0.06415263093695735)"><ns0:metadata>
Created by potrace 1.16, written by Peter Selinger 2001-2019
</ns0:metadata>
<ns0:g transform="translate(0.000000,208.000000) scale(0.100000,-0.100000)" fill="#000000" stroke="none">
<ns0:path d="M1273 1433 c-13 -13 -35 -23 -48 -23 -25 0 -55 -21 -119 -86 -80 -79 -150 -226 -161 -336 -4 -35 -12 -79 -20 -98 -35 -95 -90 -375 -82 -428 10 -78 32 -111 92 -137 65 -29 111 -27 178 7 134 69 234 183 296 338 17 41 35 83 41 93 18 31 58 169 80 277 30 147 41 266 29 316 -10 37 -50 94 -67 94 -195 6 -194 6 -219 -17z m181 -86 c15 -11 17 -24 13 -83 -6 -93 -33 -233 -63 -323 -13 -40 -24 -77 -24 -82 0 -5 -13 -38 -30 -72 -16 -35 -30 -73 -30 -84 0 -11 -16 -40 -35 -64 -19 -24 -35 -49 -35 -54 0 -18 -74 -91 -130 -127 -76 -49 -114 -55 -147 -22 -24 24 -25 29 -18 102 3 42 17 120 30 172 13 52 33 140 43 195 32 159 72 248 132 290 15 11 61 47 101 80 40 33 82 65 93 72 28 16 78 16 100 0z" />
</ns0:g>
</g><g transform="translate(1.0742170756969927,415.43192512892836) scale(0.06415263093695735)"><ns0:metadata>
Created by potrace 1.16, written by Peter Selinger 2001-2019
</ns0:metadata>
<ns0:g transform="translate(0.000000,212.000000) scale(0.100000,-0.100000)" fill="#000000" stroke="none">
<ns0:path d="M1439 1893 c-58 -6 -137 -88 -189 -196 -23 -48 -49 -110 -58 -139 -14 -42 -23 -53 -47 -61 -16 -5 -38 -16 -47 -24 -19 -17 -94 -193 -102 -240 -8 -48 9 -48 38 0 l26 42 -6 -115 c-8 -143 -16 -200 -29 -203 -5 -1 -14 13 -20 31 -5 17 -12 32 -16 32 -18 0 -12 -59 10 -109 24 -54 24 -55 8 -120 -9 -36 -19 -93 -23 -126 -9 -85 -48 -198 -78 -228 -30 -30 -35 -81 -10 -91 36 -14 63 -5 91 29 35 42 89 190 98 270 12 107 51 195 87 195 7 0 28 10 47 23 20 13 60 39 88 58 29 19 53 39 53 44 0 6 19 28 41 50 22 22 52 58 66 80 15 22 34 48 41 57 23 28 112 228 112 252 0 12 5 27 10 32 27 27 38 197 20 301 -11 62 -19 80 -49 113 -38 41 -80 52 -162 43z m104 -135 c21 -42 25 -207 8 -293 -35 -174 -147 -377 -268 -484 -60 -54 -133 -95 -144 -83 -4 4 -4 28 1 53 5 25 12 97 16 160 4 65 15 140 26 174 10 33 23 89 27 125 14 105 106 272 193 350 33 29 49 36 82 35 37 0 43 -3 59 -37z" />
<ns0:path d="M1283 877 c-18 -5 -33 -14 -33 -19 0 -6 -10 -18 -22 -28 l-23 -18 26 -10 c14 -6 52 -35 84 -66 31 -31 61 -56 66 -56 4 0 32 -19 61 -43 67 -54 183 -127 202 -127 8 0 28 16 45 35 52 59 36 142 -20 107 -28 -18 -37 -15 -93 22 -63 42 -208 162 -219 181 -13 25 -40 32 -74 22z" />
</ns0:g>
</g><g transform="translate(-1.676997885968774,599.2785695754702) scale(0.06415263093695735)"><ns0:metadata>
Created by potrace 1.16, written by Peter Selinger 2001-2019
</ns0:metadata>
<ns0:g transform="translate(0.000000,207.000000) scale(0.100000,-0.100000)" fill="#000000" stroke="none">
<ns0:path d="M1000 1675 c-93 -16 -105 -21 -124 -50 -8 -13 -31 -28 -51 -35 -19 -6 -40 -20 -45 -30 -12 -22 -12 -171 0 -290 17 -170 31 -612 20 -645 -12 -37 -80 -108 -80 -83 0 8 7 21 15 28 19 16 20 60 1 60 -14 0 -87 -74 -105 -107 -27 -52 -42 -113 -31 -133 26 -48 85 -53 132 -9 18 16 46 40 61 52 73 58 225 278 259 377 11 30 35 88 54 128 19 41 34 77 34 81 0 3 9 23 20 44 11 21 31 81 45 135 62 249 61 392 -6 463 -31 34 -70 36 -199 14z m140 -95 c27 -17 19 -196 -14 -310 -15 -52 -31 -108 -35 -125 -5 -16 -26 -66 -48 -110 -22 -44 -45 -98 -52 -120 -19 -61 -64 -149 -79 -153 -11 -4 -13 47 -8 284 7 349 6 333 18 415 8 57 14 69 39 88 17 13 33 21 35 18 2 -2 30 2 62 8 31 7 59 13 62 14 3 0 12 -4 20 -9z" />
</ns0:g>
</g><g transform="translate(-0.9846032541991576,800.5863154893618) scale(0.06415263093695735)"><ns0:metadata>
Created by potrace 1.16, written by Peter Selinger 2001-2019
</ns0:metadata>
<ns0:g transform="translate(0.000000,206.000000) scale(0.100000,-0.100000)" fill="#000000" stroke="none">
<ns0:path d="M988 1436 c-15 -8 -48 -14 -74 -14 -25 0 -51 -5 -56 -10 -6 -6 -17 -59 -24 -119 -8 -59 -23 -135 -34 -168 -22 -70 -41 -285 -30 -341 10 -50 18 -70 48 -118 23 -38 25 -38 73 -34 40 4 61 15 121 61 115 88 187 166 238 261 20 35 21 45 12 115 -20 149 -54 229 -119 275 -24 16 -45 37 -48 45 -4 13 -66 61 -77 61 -2 0 -15 -6 -30 -14z m39 -113 c65 -64 93 -107 117 -180 14 -43 26 -89 26 -102 0 -54 -117 -195 -204 -246 -90 -52 -106 -14 -76 175 12 74 23 146 25 160 8 53 33 142 44 153 6 6 11 21 11 32 0 43 19 45 57 8z" />
</ns0:g>
</g><g transform="translate(1.168627250557961,977.4743717418883) scale(0.06415263093695735)"><ns0:metadata>
Created by potrace 1.16, written by Peter Selinger 2001-2019
</ns0:metadata>
<ns0:g transform="translate(0.000000,213.000000) scale(0.100000,-0.100000)" fill="#000000" stroke="none">
<ns0:path d="M1278 1556 c-15 -6 -40 -24 -55 -38 -36 -34 -185 -108 -217 -108 -14 0 -28 5 -31 10 -9 15 -32 12 -96 -12 -81 -31 -89 -62 -28 -107 l30 -22 92 21 c58 14 113 34 148 56 31 19 60 34 64 34 14 0 -4 -98 -33 -182 -16 -46 -35 -108 -42 -138 -6 -30 -26 -98 -43 -150 -28 -86 -31 -107 -32 -222 0 -118 2 -129 22 -149 21 -21 23 -21 47 -5 25 16 26 21 26 104 1 95 6 127 40 247 12 44 29 105 37 135 19 71 61 194 83 245 9 22 22 67 29 100 8 33 21 74 30 90 26 48 29 69 13 88 -17 19 -45 21 -84 3z" />
</ns0:g>
</g><g transform="translate(1.5453076742379608,1141.7195810261492) scale(0.06415263093695735)"><ns0:metadata>
Created by potrace 1.16, written by Peter Selinger 2001-2019
</ns0:metadata>
<ns0:g transform="translate(0.000000,208.000000) scale(0.100000,-0.100000)" fill="#000000" stroke="none">
<ns0:path d="M958 1305 c-16 -9 -29 -21 -29 -28 -2 -24 3 -42 17 -58 8 -8 17 -37 20 -62 5 -38 3 -51 -11 -67 -15 -16 -15 -22 -5 -35 12 -15 9 -139 -6 -266 -8 -66 20 -95 103 -108 35 -5 78 -7 98 -4 54 9 45 -21 -27 -90 -73 -69 -172 -147 -186 -147 -6 0 -12 -4 -14 -9 -3 -7 -36 -27 -165 -97 -43 -23 -88 -40 -133 -48 -94 -18 -103 -23 -78 -44 19 -15 209 20 293 55 39 16 95 45 125 64 30 20 70 42 88 49 17 7 32 16 32 21 0 5 5 9 11 9 6 0 29 16 50 35 22 19 45 35 53 35 16 0 65 58 90 107 20 40 22 136 2 152 -14 12 -165 8 -198 -4 -8 -3 -20 1 -27 9 -10 12 -9 39 4 133 17 128 20 132 96 173 20 10 44 31 53 45 9 14 34 33 54 43 57 25 72 42 72 78 0 71 -26 82 -95 39 -50 -30 -63 -31 -67 -2 -3 20 -9 22 -58 23 -30 1 -73 5 -95 8 -27 4 -49 1 -67 -9z m183 -79 c-29 -30 -58 -39 -66 -19 -9 24 14 43 53 43 l35 0 -22 -24z" />
</ns0:g>
</g><g transform="translate(1.077615298094372,1342.111785457984) scale(0.06415263093695735)"><ns0:metadata>
Created by potrace 1.16, written by Peter Selinger 2001-2019
</ns0:metadata>
<ns0:g transform="translate(0.000000,208.000000) scale(0.100000,-0.100000)" fill="#000000" stroke="none">
<ns0:path d="M791 1371 c-12 -12 -21 -31 -21 -43 0 -13 -12 -50 -25 -83 -28 -68 -32 -88 -11 -59 26 35 29 5 7 -68 -23 -79 -27 -158 -11 -204 18 -51 72 -78 163 -83 l79 -3 -7 -52 c-4 -28 -16 -76 -26 -106 -23 -66 -24 -100 -4 -100 33 0 99 96 130 190 14 43 32 83 38 88 7 5 36 15 65 22 59 14 68 26 74 101 3 39 0 45 -26 58 -27 13 -31 12 -48 -9 -10 -12 -18 -28 -18 -36 0 -8 -4 -14 -10 -14 -13 0 -13 15 -1 38 5 9 15 39 22 66 7 27 26 64 42 83 33 37 30 58 -8 73 -93 35 -128 -9 -166 -210 -7 -36 -16 -67 -20 -70 -5 -3 -36 -5 -69 -4 -82 2 -104 21 -95 83 4 25 16 79 27 120 11 42 22 85 25 96 2 11 -2 47 -10 80 -13 56 -15 60 -45 63 -21 2 -37 -3 -51 -17z" />
</ns0:g>
</g><g transform="translate(-1.8789379515544624,1533.088469462638) scale(0.06415263093695735)"><ns0:metadata>
Created by potrace 1.16, written by Peter Selinger 2001-2019
</ns0:metadata>
<ns0:g transform="translate(0.000000,214.000000) scale(0.100000,-0.100000)" fill="#000000" stroke="none">
<ns0:path d="M1315 1450 c-3 -5 -22 -10 -41 -10 -19 0 -42 -4 -52 -9 -31 -16 -86 -30 -144 -36 -67 -8 -118 -36 -118 -65 0 -23 45 -70 67 -70 7 0 29 6 47 14 18 7 55 18 82 24 27 6 58 14 68 18 23 9 23 9 -38 -224 -47 -181 -52 -247 -26 -342 16 -57 25 -66 57 -54 l28 9 6 125 c7 138 24 211 94 400 54 146 60 185 34 211 -20 20 -54 25 -64 9z" />
</ns0:g>
</g><g transform="translate(2.44874291152405,1697.18102939765) scale(0.06415263093695735)"><ns0:metadata>
Created by potrace 1.16, written by Peter Selinger 2001-2019
</ns0:metadata>
<ns0:g transform="translate(0.000000,214.000000) scale(0.100000,-0.100000)" fill="#000000" stroke="none">
<ns0:path d="M993 1569 c-34 -4 -71 -12 -82 -18 -11 -6 -28 -11 -38 -11 -26 -1 -88 -58 -112 -105 -18 -34 -21 -57 -21 -168 0 -146 9 -177 68 -228 28 -25 41 -30 68 -26 18 3 34 3 37 1 9 -9 -41 -188 -83 -294 -25 -63 -48 -145 -61 -214 -13 -73 0 -92 54 -82 26 5 38 14 47 36 6 16 9 33 6 39 -7 10 13 83 39 151 8 19 19 55 26 80 6 25 24 73 40 108 16 35 29 68 29 74 0 6 13 54 30 107 16 53 32 116 36 141 7 43 14 59 69 155 13 22 29 67 36 99 13 59 13 59 -14 80 -15 12 -27 27 -27 32 0 14 -35 46 -42 38 -4 -3 -15 -2 -25 3 -10 5 -46 6 -80 2z m19 -84 c6 -6 -15 -146 -30 -200 -6 -22 -14 -57 -17 -77 -6 -37 -61 -98 -89 -98 -43 0 -56 220 -17 283 36 58 130 115 153 92z" />
</ns0:g>
</g></svg>