<?xml version='1.0' encoding='utf-8'?>
<svg xmlns:ns0="http://www.w3.org/2000/svg" xmlns="http://www.w3.org/2000/svg" width="235" height="136" viewBox="0 0 235 136"><g transform="translate(2.0025011245236897,-70.2513201696165) scale(0.03264896740759068)"><ns0:metadata>
Created by potrace 1.16, written by Peter Selinger 2001-2019
</ns0:metadata>
<ns0:g transform="translate(0.000000,211.000000) scale(0.100000,-0.100000)" fill="#000000" stroke="none">
<ns0:path d="M1030 2089 c-7 -12 -9 -37 -5 -61 4 -22 8 -103 10 -179 l2 -138 -33 -47 c-41 -58 -42 -76 -7 -102 l28 -20 -17 -69 c-10 -37 -20 -106 -24 -151 -7 -90 -16 -108 -96 -180 -29 -26 -39 -45 -48 -90 -19 -94 -40 -173 -66 -246 -29 -83 -30 -98 -6 -119 19 -18 72 -24 72 -9 0 8 43 32 56 32 3 0 3 -17 0 -37 -3 -21 -8 -93 -11 -161 -7 -138 -2 -152 50 -152 29 0 35 4 45 36 7 19 9 45 6 57 -3 11 2 86 10 166 14 134 18 150 47 193 31 46 32 47 43 25 6 -12 22 -51 34 -87 12 -36 26 -69 30 -75 4 -5 22 -37 40 -70 17 -33 41 -68 53 -78 18 -16 20 -27 18 -141 -2 -137 8 -176 45 -176 36 0 54 26 54 79 0 63 10 112 24 116 6 2 23 6 38 9 28 6 98 61 98 77 0 5 20 51 44 101 105 218 236 587 236 663 0 86 -82 107 -205 52 -27 -12 -52 -25 -55 -28 -13 -16 -53 -30 -68 -24 -15 6 -15 8 2 21 11 8 14 14 8 14 -17 0 -15 46 3 63 10 11 13 25 9 46 -4 19 -2 31 4 31 12 0 18 30 26 122 4 48 2 57 -12 60 -15 3 -17 16 -13 103 2 55 7 110 12 123 5 13 9 35 9 50 0 15 15 49 34 75 38 53 51 95 41 127 -6 18 -12 20 -38 14 -18 -3 -37 -10 -43 -15 -8 -6 -14 -4 -18 6 -4 11 -21 15 -67 15 l-62 0 7 -64 6 -65 -36 -28 c-20 -15 -45 -36 -55 -45 -11 -10 -23 -18 -27 -18 -5 0 -19 -12 -33 -26 -22 -24 -69 -54 -84 -54 -4 0 -4 48 -1 107 4 78 10 111 22 124 15 17 15 20 0 44 -14 22 -24 25 -71 25 -45 0 -56 -4 -65 -21z m356 -266 c-3 -21 -8 -49 -11 -63 -3 -14 -10 -63 -16 -110 -13 -91 -31 -140 -53 -140 -7 0 -33 -15 -57 -33 -24 -19 -57 -41 -74 -51 -16 -9 -38 -22 -47 -28 -9 -7 -20 -10 -23 -7 -9 10 26 192 46 236 10 23 19 45 19 48 0 17 194 185 214 185 5 0 6 -17 2 -37z m-67 -495 c-4 -68 -2 -74 19 -83 14 -6 22 -18 22 -35 0 -33 -5 -39 -75 -90 -33 -24 -63 -47 -66 -52 -7 -11 -140 -98 -150 -98 -14 0 -15 33 -4 120 13 96 22 120 60 140 14 7 35 28 45 46 11 17 33 37 50 44 16 7 41 27 55 46 39 51 48 44 44 -38z m381 -89 c0 -11 -5 -30 -11 -41 -6 -12 -34 -85 -61 -162 -65 -181 -79 -218 -111 -289 -15 -32 -27 -60 -27 -63 0 -3 -11 -30 -25 -60 -14 -30 -25 -59 -25 -64 0 -10 -32 -30 -49 -30 -16 0 -13 54 9 181 11 63 20 141 20 174 1 72 24 205 37 214 5 3 15 20 21 36 12 30 70 75 95 75 7 0 18 5 25 12 12 12 67 35 90 37 6 0 12 -8 12 -20z m-374 -231 c-3 -18 -8 -82 -11 -143 -9 -170 -39 -272 -61 -203 -3 13 -16 35 -28 49 -40 50 -95 148 -96 170 0 9 19 29 43 45 44 30 50 34 107 83 45 39 54 39 46 -1z m-376 -59 c0 -36 -5 -54 -21 -70 -11 -11 -23 -19 -25 -17 -4 4 13 105 22 136 9 29 24 -2 24 -49z" />
<ns0:path d="M624 1966 c-35 -55 -84 -192 -84 -234 0 -22 -4 -52 -9 -68 -50 -164 -69 -214 -111 -295 -26 -52 -71 -139 -99 -193 -28 -55 -51 -104 -51 -110 0 -7 -13 -27 -30 -46 -16 -19 -29 -40 -30 -47 0 -24 -62 -83 -86 -83 -21 0 -24 -5 -24 -34 0 -55 42 -62 100 -16 21 16 43 30 49 30 9 0 34 34 125 177 23 36 48 37 77 3 43 -50 39 -566 -6 -683 -19 -49 -19 -57 4 -57 23 0 59 43 67 79 3 14 11 40 19 56 41 86 45 528 6 618 -22 50 -43 62 -105 58 l-39 -3 16 26 c9 14 17 30 17 36 0 6 21 45 46 87 25 42 52 96 59 122 28 95 111 329 121 342 18 24 40 79 73 182 17 52 -4 87 -52 87 -25 -1 -36 -8 -53 -34z" />
</ns0:g>
</g><g transform="translate(1.4995001493958284,24.572978827979284) scale(0.03264896740759068)"><ns0:metadata>
Created by potrace 1.16, written by Peter Selinger 2001-2019
</ns0:metadata>
<ns0:g transform="translate(0.000000,213.000000) scale(0.100000,-0.100000)" fill="#000000" stroke="none">
<ns0:path d="M1163 1748 c-24 -26 -25 -52 -4 -218 15 -121 13 -352 -4 -430 -7 -36 -26 -134 -42 -218 l-28 -153 -65 -43 c-36 -24 -85 -56 -109 -72 -157 -105 -165 -102 -141 40 6 33 14 136 18 227 l8 167 38 46 c27 33 36 54 34 73 -3 25 -6 28 -36 25 -36 -4 -91 -33 -129 -68 -25 -23 -25 -24 -27 -246 -2 -228 -13 -313 -54 -430 -15 -46 -15 -49 5 -75 26 -35 56 -40 81 -13 18 20 47 38 127 79 40 21 71 43 157 113 67 55 71 57 93 42 34 -22 57 -6 100 70 24 44 44 67 63 74 37 13 127 96 119 109 -9 14 -82 -3 -119 -29 -14 -10 -29 -18 -33 -18 -9 0 0 98 14 161 43 189 52 275 44 420 -4 79 -8 177 -8 218 0 70 1 74 33 100 52 44 46 51 -68 66 -39 6 -48 3 -67 -17z" />
<ns0:path d="M1454 1360 c-24 -9 -38 -51 -29 -81 4 -10 2 -52 -4 -92 -6 -39 -13 -127 -16 -195 -3 -68 -10 -155 -15 -195 -5 -40 -11 -119 -14 -177 -3 -58 -8 -118 -11 -135 -6 -30 -12 -74 -14 -108 0 -9 -10 -25 -21 -34 -31 -27 -26 -53 9 -53 43 0 89 30 100 65 12 38 28 150 41 290 15 160 36 316 56 432 16 87 17 112 6 172 -19 115 -34 133 -88 111z" />
</ns0:g>
</g><g transform="translate(-0.21473230436515678,109.65208622172281) scale(0.03264896740759068)"><ns0:metadata>
Created by potrace 1.16, written by Peter Selinger 2001-2019
</ns0:metadata>
<ns0:g transform="translate(0.000000,228.000000) scale(0.100000,-0.100000)" fill="#000000" stroke="none">
<ns0:path d="M525 2183 c4 -54 8 -132 10 -173 1 -41 6 -85 10 -97 6 -19 2 -24 -21 -33 -16 -6 -49 -24 -74 -40 -25 -15 -61 -31 -80 -35 -77 -17 -140 -56 -140 -88 0 -27 38 -77 59 -77 9 0 41 11 69 25 29 14 56 25 62 25 5 0 24 13 43 29 18 16 76 50 128 75 51 25 118 61 147 81 30 19 56 35 58 35 2 0 34 18 70 40 36 22 72 40 80 40 8 0 14 5 14 10 0 6 8 14 18 18 54 23 93 56 90 76 -5 36 -72 22 -173 -36 -22 -13 -67 -34 -100 -47 -33 -14 -62 -27 -65 -30 -3 -4 -16 -12 -30 -19 -14 -8 -41 -22 -59 -32 -19 -11 -37 -17 -40 -15 -2 3 1 35 7 72 7 38 14 106 17 153 2 47 7 97 11 113 l6 27 -61 0 -62 0 6 -97z m-98 -408 c-23 -22 -33 -18 -12 5 10 11 20 18 23 16 2 -3 -3 -12 -11 -21z" />
<ns0:path d="M1285 1858 c-16 -6 -46 -23 -65 -38 -19 -14 -63 -40 -97 -58 -35 -17 -68 -36 -75 -42 -14 -12 -105 -70 -221 -141 -38 -22 -71 -38 -75 -34 -3 3 2 36 11 74 10 37 15 75 11 84 -9 24 -40 30 -71 15 -28 -14 -58 -82 -82 -191 -12 -55 -15 -58 -64 -83 -29 -14 -59 -35 -67 -45 -16 -20 -114 -62 -123 -52 -15 15 10 72 49 113 40 41 54 76 38 93 -3 3 -29 -7 -58 -22 -28 -16 -68 -34 -89 -41 -20 -6 -42 -20 -47 -30 -6 -10 -10 -63 -10 -117 0 -74 -5 -108 -19 -139 -12 -27 -16 -46 -10 -57 10 -17 -12 -125 -74 -367 -14 -52 -23 -97 -21 -99 2 -2 14 -1 27 3 49 12 108 137 147 312 18 80 27 102 44 110 15 7 21 18 21 44 1 53 18 75 87 109 35 17 71 36 80 43 9 7 20 9 23 6 7 -6 -13 -80 -45 -173 -17 -48 -72 -311 -84 -405 -4 -25 -19 -97 -35 -161 -16 -63 -34 -169 -41 -235 -22 -234 -28 -285 -32 -290 -3 -2 -72 -6 -154 -8 -82 -3 -152 -5 -156 -5 -5 -1 -8 -8 -8 -16 0 -13 122 -15 1040 -15 1033 0 1040 0 1040 20 0 20 -7 20 -577 21 -553 0 -773 -1 -985 -4 -54 -1 -101 2 -107 8 -6 6 -4 37 4 85 7 41 18 115 25 165 12 96 25 168 40 225 9 33 37 177 75 380 9 47 32 137 51 200 86 278 103 308 202 360 37 19 104 63 150 98 45 34 86 62 91 62 5 0 11 7 15 15 3 8 15 15 26 15 11 0 20 5 20 11 0 5 4 8 10 4 6 -3 6 -14 0 -28 -24 -60 -101 -315 -115 -379 -9 -40 -21 -95 -27 -123 -6 -27 -10 -87 -9 -132 1 -46 -2 -83 -6 -83 -13 0 -126 100 -144 127 -9 13 -33 40 -54 60 -52 49 -65 32 -32 -41 35 -76 66 -115 179 -228 70 -70 105 -98 122 -98 14 0 28 5 32 11 4 7 8 93 9 193 3 204 13 263 76 461 46 144 80 224 115 271 13 17 24 35 24 41 0 6 16 25 36 44 81 77 58 132 -41 97z" />
</ns0:g>
</g><g transform="translate(2.516049518866339,202.73146904263263) scale(0.03264896740759068)"><ns0:metadata>
Created by potrace 1.16, written by Peter Selinger 2001-2019
</ns0:metadata>
<ns0:g transform="translate(0.000000,204.000000) scale(0.100000,-0.100000)" fill="#000000" stroke="none">
<ns0:path d="M1475 2030 c-4 -6 -24 -19 -45 -30 -22 -11 -54 -33 -72 -49 -18 -16 -55 -41 -83 -56 -27 -15 -64 -40 -80 -56 -17 -16 -36 -29 -41 -29 -6 0 -19 -10 -30 -21 -23 -26 -142 -109 -156 -109 -18 0 -6 42 22 73 16 19 30 46 30 59 0 24 -1 25 -74 22 -80 -3 -146 -24 -146 -47 0 -29 22 -77 36 -77 7 0 21 -14 30 -32 15 -29 15 -33 0 -60 -10 -15 -31 -43 -47 -61 -36 -39 -34 -65 9 -90 l32 -19 58 59 c31 32 70 64 85 71 38 16 137 90 137 102 0 6 7 10 15 10 8 0 19 8 24 18 5 9 42 37 81 62 38 25 94 64 123 88 58 48 70 41 41 -25 -9 -21 -20 -54 -25 -73 -30 -132 -45 -175 -64 -185 -42 -21 -112 -75 -150 -115 -37 -39 -116 -100 -129 -100 -3 0 -6 10 -6 23 0 14 11 28 31 39 19 12 29 24 27 35 -3 15 -15 18 -73 18 -39 0 -80 -5 -91 -12 -20 -11 -21 -18 -16 -102 l5 -89 -49 -26 c-27 -14 -67 -39 -89 -56 -22 -16 -51 -35 -65 -42 -43 -21 -60 -40 -60 -69 0 -58 85 -79 138 -34 17 14 35 25 41 25 16 0 13 -40 -7 -85 -10 -22 -27 -67 -37 -100 -10 -33 -31 -80 -45 -105 -15 -25 -39 -77 -54 -116 -15 -39 -45 -95 -66 -125 -22 -29 -40 -57 -40 -62 0 -6 -11 -25 -25 -43 -33 -43 -32 -77 2 -99 20 -14 30 -15 42 -7 42 30 82 44 107 38 14 -4 40 -2 57 4 18 5 70 21 117 35 102 29 248 80 274 96 26 15 32 2 40 -85 20 -220 36 -318 53 -323 26 -9 33 43 39 284 4 136 10 252 15 258 5 5 9 21 9 36 0 57 13 89 41 106 32 19 37 44 14 63 -22 19 -144 9 -160 -13 -6 -9 -15 -64 -18 -123 -3 -58 -8 -108 -9 -110 -2 -2 -44 -10 -93 -19 -50 -8 -114 -20 -144 -26 -29 -5 -55 -8 -58 -5 -3 2 13 40 35 83 78 156 121 307 102 358 -9 25 -14 27 -45 22 -43 -7 -44 1 -7 100 29 78 87 153 157 205 22 16 75 63 118 104 42 42 77 72 77 68 0 -4 -9 -59 -19 -123 -24 -144 -34 -268 -22 -276 22 -13 38 11 55 77 9 40 23 79 30 88 12 14 35 109 66 280 19 104 89 322 115 362 14 21 25 40 25 44 0 3 16 24 35 47 19 22 35 44 35 49 0 12 -178 10 -185 -2z" />
<ns0:path d="M567 1279 c-20 -15 -25 -28 -26 -66 0 -27 -5 -88 -10 -138 -6 -49 -11 -114 -11 -143 0 -45 3 -53 17 -50 10 2 32 30 49 63 25 46 33 73 33 116 1 61 22 133 47 160 9 10 14 30 12 46 -3 25 -7 28 -45 30 -28 1 -50 -4 -66 -18z" />
</ns0:g>
</g><g transform="translate(0.9622994221965655,298.50196142051385) scale(0.03264896740759068)"><ns0:metadata>
Created by potrace 1.16, written by Peter Selinger 2001-2019
</ns0:metadata>
<ns0:g transform="translate(0.000000,217.000000) scale(0.100000,-0.100000)" fill="#000000" stroke="none">
<ns0:path d="M633 1755 c-18 -8 -36 -23 -42 -33 -5 -10 -13 -66 -17 -126 l-7 -107 -71 -61 c-39 -34 -73 -64 -76 -68 -3 -4 -18 -14 -35 -23 -49 -25 -94 -76 -101 -115 -8 -43 2 -61 49 -87 l36 -20 25 24 c14 14 26 30 26 38 0 13 48 65 104 113 l29 25 -7 -100 c-8 -113 -31 -260 -51 -320 -7 -22 -16 -56 -20 -75 -4 -19 -20 -75 -37 -125 -16 -49 -40 -153 -53 -230 -13 -77 -31 -169 -39 -205 -22 -93 -21 -110 8 -110 51 0 91 96 126 305 12 72 34 154 75 285 61 195 105 442 105 585 0 36 4 65 9 65 5 0 11 10 13 22 4 26 55 64 106 78 43 11 45 10 33 -21 -46 -122 -44 -620 5 -953 8 -55 10 -104 6 -108 -27 -27 -195 93 -269 191 -20 27 -24 7 -8 -45 8 -27 28 -64 45 -82 16 -18 30 -37 30 -41 0 -10 126 -103 170 -126 19 -10 48 -29 64 -42 41 -35 59 -27 72 34 12 53 9 109 -20 338 -19 160 -28 308 -28 490 1 161 13 241 55 361 14 39 28 95 32 125 6 47 4 56 -14 66 -16 10 -24 9 -43 -5 -37 -27 -180 -92 -203 -92 -25 0 -19 70 11 113 35 52 29 72 -21 74 -22 1 -54 -5 -72 -12z m227 -770 c0 -8 0 -18 1 -22 0 -4 -4 -9 -9 -11 -12 -4 -24 26 -16 39 8 14 24 11 24 -6z" />
<ns0:path d="M1561 1585 c-18 -8 -37 -13 -41 -10 -4 3 -14 -3 -21 -12 -8 -9 -30 -23 -49 -32 -81 -38 -180 -121 -180 -153 0 -40 25 -98 42 -98 10 0 18 4 18 10 0 23 68 84 147 131 46 28 87 49 90 46 7 -8 -54 -247 -73 -286 -8 -17 -17 -43 -20 -58 -9 -50 -56 -176 -109 -293 -29 -63 -60 -137 -69 -165 -9 -27 -26 -66 -39 -86 -40 -67 -76 -117 -87 -124 -18 -11 -11 -51 13 -72 48 -43 76 -39 109 15 72 120 136 162 328 216 34 9 46 18 48 34 3 21 0 22 -93 22 -68 0 -105 -5 -127 -16 -17 -9 -34 -12 -39 -7 -7 8 23 93 72 200 12 26 25 59 30 73 4 14 27 77 50 140 82 222 128 465 100 518 -14 26 -50 28 -100 7z" />
<ns0:path d="M1056 1184 c-14 -14 -16 -36 -10 -162 4 -111 2 -175 -11 -262 -34 -234 -33 -248 8 -229 26 12 49 67 53 130 1 20 8 47 15 60 18 34 38 179 39 276 0 47 7 102 16 128 12 36 13 50 3 61 -16 19 -93 18 -113 -2z" />
</ns0:g>
</g><g transform="translate(0.9903090926918594,385.65971475276353) scale(0.03264896740759068)"><ns0:metadata>
Created by potrace 1.16, written by Peter Selinger 2001-2019
</ns0:metadata>
<ns0:g transform="translate(0.000000,210.000000) scale(0.100000,-0.100000)" fill="#000000" stroke="none">
<ns0:path d="M1276 1925 c-41 -36 -79 -65 -85 -65 -6 0 -26 -14 -46 -31 -29 -26 -35 -38 -35 -71 0 -35 -8 -50 -54 -102 -47 -54 -54 -69 -64 -126 -6 -36 -20 -117 -32 -180 -11 -63 -20 -123 -20 -133 0 -10 -11 -38 -25 -63 -20 -35 -23 -49 -15 -65 22 -39 -4 -183 -63 -354 -11 -33 -28 -71 -38 -85 -9 -14 -19 -34 -22 -45 -3 -12 -5 -7 -4 12 1 19 -9 46 -26 70 -15 22 -28 53 -28 69 -2 79 9 206 20 217 18 18 13 44 -10 50 -25 7 -113 -18 -127 -36 -6 -7 -8 -54 -5 -122 3 -60 6 -153 7 -205 l1 -95 -122 -80 c-130 -86 -144 -104 -103 -145 30 -30 57 -24 109 23 48 42 98 74 105 66 2 -2 -1 -28 -7 -56 -10 -48 -9 -55 11 -82 l21 -29 -31 -73 c-33 -81 -62 -119 -89 -119 -16 0 -49 -45 -49 -65 0 -3 34 -5 76 -3 l77 3 38 64 c22 34 39 68 39 74 0 6 23 51 50 99 28 48 50 90 50 93 0 2 14 33 31 67 83 167 172 442 200 613 12 78 16 86 32 79 33 -12 57 -80 57 -157 0 -71 -2 -77 -27 -96 -79 -58 -92 -92 -43 -110 27 -9 40 -5 110 31 44 22 86 51 95 64 8 13 22 24 30 24 18 0 18 5 1 -83 -13 -65 -41 -232 -49 -297 -2 -17 -7 -5 -16 35 -26 118 -41 145 -80 145 -29 0 -49 -18 -69 -64 -16 -37 -8 -44 26 -24 l28 17 18 -82 c10 -45 24 -111 32 -147 9 -36 21 -109 29 -163 7 -54 19 -105 26 -113 8 -10 25 -14 48 -12 32 3 36 7 39 33 2 17 7 34 12 38 4 5 5 57 3 115 -6 120 29 414 62 537 8 28 20 73 28 101 15 52 39 97 68 126 16 16 17 15 23 -17 7 -37 22 -53 37 -38 16 16 50 156 64 268 22 172 33 223 66 320 17 50 34 108 39 130 17 81 -32 101 -92 38 -43 -46 -69 -67 -100 -84 -12 -7 -37 -26 -54 -43 -17 -17 -57 -53 -89 -81 -32 -27 -84 -74 -116 -103 l-58 -54 12 37 c6 21 22 50 37 65 14 15 47 72 74 126 27 55 60 109 74 122 44 41 13 128 -41 114 -12 -2 -28 -9 -35 -15 -16 -13 -84 -155 -106 -224 -10 -29 -22 -55 -27 -58 -5 -4 -9 -13 -9 -20 0 -8 -11 -38 -24 -67 -59 -129 -76 -172 -76 -189 0 -11 -4 -19 -10 -19 -5 0 -10 10 -10 23 0 23 22 161 41 257 11 55 55 165 74 187 5 6 38 42 73 80 92 100 95 104 115 146 39 89 15 92 -77 12z m260 -430 c-4 -14 -9 -46 -13 -73 -8 -64 -17 -78 -59 -92 -43 -15 -149 -88 -215 -151 -54 -51 -64 -90 -30 -109 45 -24 86 -7 114 46 9 17 37 48 64 69 26 22 51 45 56 52 16 25 39 43 49 37 10 -6 6 -79 -8 -161 -5 -27 -9 -30 -23 -21 -33 21 -91 -3 -125 -50 -29 -41 -139 -142 -154 -142 -4 0 -6 36 -4 79 3 59 0 88 -12 112 -32 64 -33 62 197 297 130 131 177 162 163 107z" />
<ns0:path d="M706 1564 c-9 -8 -16 -24 -16 -34 0 -19 4 -24 49 -59 14 -10 30 -36 36 -57 22 -80 85 -39 71 46 -3 23 -2 49 4 60 8 14 8 26 0 40 -9 17 -21 20 -70 20 -40 0 -64 -5 -74 -16z" />
<ns0:path d="M1407 589 c-15 -9 -17 -22 -15 -91 3 -85 14 -103 53 -88 31 11 42 30 48 79 6 49 -11 94 -38 105 -22 8 -27 7 -48 -5z" />
</ns0:g>
</g><g transform="translate(2.054546626372314,480.2222650971064) scale(0.03264896740759068)"><ns0:metadata>
Created by potrace 1.16, written by Peter Selinger 2001-2019
</ns0:metadata>
<ns0:g transform="translate(0.000000,205.000000) scale(0.100000,-0.100000)" fill="#000000" stroke="none">
<ns0:path d="M653 1874 c-16 -7 -17 -46 -2 -61 21 -21 49 -223 42 -307 l-6 -78 -41 -20 c-73 -35 -84 -43 -126 -99 -48 -64 -56 -90 -41 -127 6 -15 10 -39 9 -52 -2 -14 2 -25 9 -25 10 0 63 68 63 82 0 14 61 80 90 97 l33 19 -7 -59 c-15 -121 -20 -132 -80 -149 -30 -9 -60 -22 -66 -30 -21 -25 -2 -69 45 -105 35 -27 44 -42 44 -65 1 -53 -23 -121 -54 -156 -30 -34 -46 -47 -117 -94 -45 -30 -48 -56 -12 -90 32 -29 37 -30 58 -9 9 8 23 14 32 12 13 -3 16 -28 17 -173 2 -153 4 -174 23 -210 21 -38 99 -105 124 -105 6 0 24 -7 40 -15 41 -21 127 -30 287 -29 97 0 161 6 200 17 32 8 89 21 126 27 38 7 106 28 150 47 45 20 98 41 117 48 33 12 35 16 40 72 6 58 -5 95 -46 163 -8 14 -20 37 -25 53 -6 15 -15 27 -20 27 -5 0 -13 8 -17 18 -15 37 -77 122 -87 119 -18 -6 -17 -46 4 -102 12 -31 21 -66 21 -78 0 -12 7 -35 16 -52 26 -48 42 -111 33 -127 -15 -27 -147 -79 -237 -94 -259 -43 -431 -44 -522 -2 -30 13 -70 41 -88 62 -29 33 -32 44 -34 104 -4 141 0 180 27 240 25 56 29 60 80 76 30 9 57 21 60 26 11 18 34 10 41 -12 8 -26 51 -86 74 -105 26 -21 55 -14 88 20 18 18 32 38 32 44 0 6 6 16 14 22 21 18 57 298 71 566 3 50 10 133 15 185 13 127 16 223 6 238 -8 14 -42 16 -50 3 -3 -4 -27 -16 -53 -26 -26 -10 -55 -24 -64 -31 -8 -8 -54 -29 -101 -48 l-85 -33 -5 137 c-5 127 -7 141 -34 191 -26 48 -33 54 -64 56 -19 1 -41 0 -47 -3z m107 -258 c0 -3 -4 -8 -10 -11 -5 -3 -10 -1 -10 4 0 6 5 11 10 11 6 0 10 -2 10 -4z m297 -153 c-8 -37 -25 -227 -40 -443 l-12 -175 -24 3 c-13 2 -50 -11 -83 -28 -32 -17 -65 -30 -71 -27 -7 3 -21 21 -32 41 l-20 36 25 48 c14 26 30 53 37 60 24 24 15 68 -18 96 -17 14 -34 26 -39 26 -18 0 -18 34 1 142 12 66 27 120 37 131 15 17 26 23 122 65 25 11 54 27 65 36 11 8 28 16 39 16 15 0 17 -5 13 -27z m-289 -690 c2 -15 -4 -23 -18 -28 -28 -9 -32 -3 -24 29 8 32 37 32 42 -1z m232 -13 c0 -22 -4 -48 -9 -58 -5 -9 -13 -35 -18 -56 -10 -51 -26 -55 -63 -18 -45 46 -41 81 14 116 25 15 47 34 50 42 11 28 26 13 26 -26z" />
<ns0:path d="M300 1234 c-15 -38 -12 -82 11 -149 39 -118 45 -160 48 -332 1 -40 5 -53 16 -53 20 0 35 31 52 109 17 77 17 122 3 246 -24 194 -29 205 -91 205 -22 0 -32 -6 -39 -26z" />
</ns0:g>
</g><g transform="translate(-1.0493837868301057,570.7195844394469) scale(0.03264896740759068)"><ns0:metadata>
Created by potrace 1.16, written by Peter Selinger 2001-2019
</ns0:metadata>
<ns0:g transform="translate(0.000000,205.000000) scale(0.100000,-0.100000)" fill="#000000" stroke="none">
<ns0:path d="M1227 1963 c-25 -13 -67 -81 -67 -110 0 -7 -7 -33 -15 -58 -31 -90 11 -77 59 19 39 78 98 88 131 24 18 -37 19 -49 3 -100 -8 -29 -18 -40 -37 -45 -41 -9 -61 -33 -61 -70 0 -27 -10 -43 -54 -86 -30 -28 -73 -65 -95 -80 -24 -17 -41 -36 -41 -48 0 -26 10 -24 56 11 21 16 44 30 49 30 6 1 32 18 60 39 l49 38 23 -34 c25 -37 30 -73 11 -73 -7 0 -23 -10 -37 -23 -15 -13 -55 -36 -91 -52 -36 -15 -97 -45 -136 -66 -39 -22 -74 -39 -77 -39 -17 0 -4 25 33 68 22 25 39 50 37 56 -6 18 -68 17 -121 -2 l-49 -17 -28 -99 c-20 -70 -35 -103 -51 -115 -30 -22 -137 -83 -230 -131 -42 -22 -79 -44 -83 -50 -4 -6 -37 -26 -73 -46 -105 -55 -140 -78 -183 -120 -48 -47 -53 -89 -13 -104 54 -21 68 -15 154 63 14 13 39 32 55 42 17 11 40 28 51 40 12 11 74 47 138 79 64 33 121 66 126 75 32 54 -32 -214 -73 -309 -9 -19 -22 -51 -30 -70 -27 -62 -31 -90 -13 -90 9 0 16 3 16 8 0 4 17 25 38 47 21 22 42 52 45 67 4 15 20 36 35 47 20 14 34 38 47 80 l18 60 146 -1 c150 -1 161 0 244 9 42 4 48 8 45 26 -4 30 -70 47 -193 51 -120 4 -181 14 -195 32 -8 9 -8 23 2 51 28 78 75 128 162 168 17 8 45 24 61 35 17 11 37 22 45 26 8 3 33 14 56 25 23 10 46 19 51 19 5 0 35 18 67 40 31 22 71 42 89 45 17 4 38 12 47 18 26 22 97 57 114 57 9 0 16 -8 16 -20 0 -14 -19 -32 -61 -57 -34 -21 -74 -48 -90 -61 -15 -12 -45 -28 -66 -36 -22 -7 -39 -21 -42 -31 -3 -15 2 -17 30 -11 63 12 151 61 216 119 24 20 47 37 53 37 22 0 50 41 50 73 0 65 -50 80 -168 51 -78 -20 -85 -15 -108 74 l-16 62 35 42 c29 36 36 54 42 111 9 86 -14 139 -77 179 -47 29 -87 32 -131 11z" />
<ns0:path d="M1000 1863 c-13 -16 -18 -33 -13 -42 12 -28 16 -320 4 -335 -6 -7 -9 -21 -5 -30 20 -52 94 41 105 134 11 84 10 245 -1 274 -13 36 -61 36 -90 -1z" />
<ns0:path d="M587 1809 c-27 -21 -69 -98 -82 -152 -10 -39 -24 -43 -36 -8 -19 54 -102 62 -129 11 -12 -22 -8 -33 21 -65 26 -30 52 -141 44 -192 -7 -46 7 -83 30 -83 8 0 15 1 15 3 0 1 16 47 36 102 19 55 38 109 41 120 3 11 13 29 23 40 9 11 25 39 35 62 23 53 45 74 82 75 37 1 69 -16 89 -48 29 -44 14 -145 -36 -239 -51 -97 -95 -142 -183 -189 -63 -33 -70 -35 -91 -21 -26 17 -36 11 -36 -21 0 -23 33 -54 57 -54 24 0 121 41 143 60 13 11 26 20 31 20 12 0 89 53 89 61 0 4 16 26 36 50 68 82 87 133 92 244 3 97 3 101 -26 146 -34 53 -91 85 -167 94 -41 4 -55 2 -78 -16z" />
<ns0:path d="M1246 605 c-38 -13 -56 -29 -56 -51 0 -22 54 -64 103 -82 90 -31 95 -78 17 -161 -50 -53 -93 -71 -180 -74 -32 -2 -35 1 -52 48 -45 122 -78 185 -110 208 -24 18 -30 18 -58 7 -34 -14 -55 -44 -43 -63 4 -6 28 -39 53 -72 61 -78 103 -161 95 -186 -4 -10 -22 -31 -41 -45 -40 -31 -42 -42 -13 -78 27 -34 52 -33 99 4 21 17 44 30 52 30 8 0 18 4 23 8 6 5 35 19 66 31 31 12 67 33 80 47 12 13 28 24 34 24 12 0 73 55 110 98 11 14 22 46 26 80 9 82 -8 119 -76 162 -31 20 -56 44 -60 57 -6 26 -15 27 -69 8z" />
<ns0:path d="M528 459 c-31 -15 -38 -25 -38 -48 0 -22 7 -32 32 -44 18 -9 36 -13 41 -10 4 2 40 5 79 4 90 -1 108 -14 98 -71 -4 -22 -15 -50 -24 -62 -9 -13 -26 -37 -37 -54 -12 -19 -44 -43 -82 -62 -102 -50 -113 -53 -130 -34 -20 24 -30 59 -17 67 5 3 10 13 10 21 0 17 68 127 81 132 10 4 13 42 4 42 -4 0 -20 -7 -38 -16 -39 -20 -85 -68 -128 -135 -29 -45 -31 -55 -25 -104 10 -89 3 -85 136 -85 92 0 120 3 130 15 7 8 18 15 25 15 21 0 121 104 129 133 3 15 11 27 17 27 18 0 39 68 39 127 -1 92 -36 122 -171 147 -47 9 -87 16 -90 15 -2 -1 -21 -10 -41 -20z" />
</ns0:g>
</g><g transform="translate(1.5728949354969473,678.3936196808244) scale(0.03264896740759068)"><ns0:metadata>
Created by potrace 1.16, written by Peter Selinger 2001-2019
</ns0:metadata>
<ns0:g transform="translate(0.000000,208.000000) scale(0.100000,-0.100000)" fill="#000000" stroke="none">
<ns0:path d="M1363 2056 c-26 -22 -151 -100 -246 -155 -23 -13 -67 -40 -97 -59 -80 -53 -137 -82 -144 -75 -3 4 -6 30 -6 59 0 56 -14 100 -35 108 -7 2 -23 -1 -36 -8 -22 -11 -24 -18 -25 -91 -2 -137 -3 -139 -129 -217 -27 -17 -83 -48 -123 -69 -66 -35 -127 -76 -160 -106 -7 -7 -18 -13 -23 -13 -5 0 -9 -8 -9 -18 0 -10 -7 -27 -15 -38 -8 -10 -15 -26 -15 -34 0 -21 55 -80 74 -80 9 0 32 26 52 58 20 31 53 70 74 85 55 39 162 98 168 93 7 -8 -12 -54 -84 -201 -34 -71 -77 -165 -95 -207 -22 -52 -43 -86 -66 -104 -18 -14 -33 -30 -33 -35 0 -4 -26 -34 -57 -66 -148 -149 -211 -272 -154 -303 29 -15 34 -13 80 23 39 31 64 62 148 187 117 173 204 273 221 256 5 -5 -17 -296 -24 -307 -2 -3 -8 -37 -14 -75 -6 -38 -20 -88 -32 -112 -23 -48 -16 -65 22 -54 62 18 93 64 109 162 22 143 40 285 44 360 6 99 -9 130 -65 130 -40 0 -36 24 21 132 27 51 64 134 81 184 36 103 85 163 166 203 43 21 114 71 152 108 7 7 18 13 23 13 10 0 70 42 97 68 7 6 19 12 26 12 7 0 23 12 37 26 13 14 37 32 52 40 15 9 46 32 68 54 35 34 38 41 29 64 -12 32 -21 32 -57 2z" />
<ns0:path d="M1372 1773 c-158 -153 -227 -214 -278 -246 -24 -15 -44 -31 -44 -35 0 -4 -40 -42 -89 -83 -126 -104 -159 -178 -93 -209 23 -10 29 -9 45 12 50 63 241 248 255 248 14 0 82 72 82 87 0 7 6 13 13 13 8 0 19 10 26 23 11 21 70 62 78 54 2 -2 -3 -33 -11 -68 -24 -104 -49 -432 -42 -540 8 -111 14 -101 -96 -157 -41 -22 -97 -54 -122 -72 -51 -34 -64 -35 -46 -1 6 12 13 50 17 85 5 60 4 66 -22 91 -25 26 -31 27 -90 22 -69 -7 -139 -36 -149 -62 -15 -39 -6 -61 29 -78 46 -22 52 -22 87 8 38 32 62 33 52 3 -10 -34 -77 -138 -126 -198 -33 -41 -35 -63 -8 -90 20 -20 80 -28 80 -10 0 5 17 18 39 29 l38 20 81 -78 c55 -52 97 -84 129 -96 44 -17 126 -58 171 -86 28 -17 51 -5 68 37 14 33 14 59 -2 263 -18 247 -23 540 -12 696 13 176 38 286 94 416 36 84 30 109 -25 109 -10 0 -68 -48 -129 -107z m-48 -990 c4 -43 12 -122 18 -176 13 -121 9 -128 -59 -100 -26 11 -60 23 -74 27 -15 3 -54 26 -87 50 l-61 45 26 46 c14 26 33 49 42 53 9 3 52 34 96 69 44 34 83 63 87 63 3 0 9 -35 12 -77z" />
</ns0:g>
</g><g transform="translate(-0.6653705595948054,762.3754230219098) scale(0.03264896740759068)"><ns0:metadata>
Created by potrace 1.16, written by Peter Selinger 2001-2019
</ns0:metadata>
<ns0:g transform="translate(0.000000,210.000000) scale(0.100000,-0.100000)" fill="#000000" stroke="none">
<ns0:path d="M1369 1882 c-6 -13 -246 -190 -268 -197 -26 -8 -41 1 -41 24 0 27 -24 43 -54 35 -32 -8 -66 -69 -90 -158 -8 -32 -24 -68 -35 -80 -15 -16 -19 -30 -14 -61 3 -27 -6 -87 -30 -185 -19 -80 -45 -190 -57 -245 -12 -55 -27 -116 -33 -135 -6 -19 -12 -82 -13 -140 -2 -102 -14 -185 -34 -225 -6 -11 -21 -69 -34 -130 -13 -60 -30 -125 -37 -143 -19 -45 3 -86 48 -90 26 -3 45 7 96 46 35 27 77 57 93 65 16 9 56 41 89 73 64 60 112 94 134 94 7 0 29 14 48 30 39 35 52 37 84 11 13 -10 69 -42 124 -71 55 -29 116 -63 135 -75 19 -11 54 -27 77 -34 49 -16 73 -5 73 34 0 31 -42 90 -65 91 -11 1 -36 11 -55 22 -19 12 -53 31 -75 43 -49 27 -92 56 -128 88 l-27 25 72 73 c130 132 161 175 148 208 -7 19 -10 17 -41 -16 -19 -20 -59 -51 -89 -69 -30 -18 -68 -45 -85 -59 -16 -15 -50 -42 -74 -60 l-43 -34 -42 23 c-22 13 -43 26 -46 29 -34 41 -116 53 -144 22 -33 -37 -3 -88 65 -110 20 -7 44 -20 53 -29 14 -17 13 -21 -29 -55 -24 -20 -48 -37 -54 -37 -6 0 -15 -9 -21 -20 -6 -11 -48 -47 -93 -81 -99 -74 -101 -70 -63 84 14 56 30 132 35 169 5 37 14 82 20 100 6 18 18 63 27 101 18 72 12 65 146 163 16 12 35 28 41 36 7 8 37 30 67 49 76 47 102 76 90 100 -15 27 -30 32 -48 17 -9 -8 -42 -25 -72 -37 -30 -13 -77 -37 -103 -53 -41 -26 -52 -29 -73 -20 -27 13 -30 32 -13 83 15 43 12 42 41 29 21 -10 31 -7 69 18 24 16 62 41 84 54 22 14 53 37 68 52 15 14 32 26 37 26 13 0 66 52 80 79 10 19 9 26 -4 39 -15 15 -19 15 -49 -2 -17 -10 -43 -29 -57 -41 -27 -23 -219 -119 -226 -112 -2 2 2 23 10 48 8 24 17 55 20 69 8 37 160 190 189 190 6 0 41 21 78 46 38 25 72 44 76 41 16 -10 5 -229 -43 -818 -4 -48 -2 -79 4 -83 15 -9 59 10 71 32 17 32 57 466 77 832 13 230 15 215 -27 218 -21 2 -39 -1 -40 -6z" />
<ns0:path d="M551 1704 c-37 -10 -72 -30 -115 -65 -33 -28 -64 -57 -68 -63 -4 -7 0 -71 7 -144 12 -117 12 -136 -1 -169 -10 -24 -14 -51 -10 -77 11 -73 9 -199 -3 -276 -7 -41 -15 -77 -17 -80 -3 -2 -19 -4 -37 -5 -26 0 -31 -4 -29 -20 2 -11 16 -32 33 -46 l30 -26 -21 -144 c-11 -79 -25 -161 -31 -182 -11 -43 -14 -253 -3 -280 8 -23 37 -22 59 3 13 15 20 47 27 127 5 60 20 169 34 243 13 74 27 166 31 203 4 48 13 78 29 100 12 18 46 73 75 122 29 50 59 96 65 102 33 34 40 198 10 238 -7 9 -30 16 -63 17 -36 2 -53 7 -53 15 0 7 16 37 36 67 44 67 81 173 89 263 9 88 1 96 -74 77z m-11 -554 c0 -21 -42 -120 -51 -120 -18 0 -3 112 16 127 18 13 35 9 35 -7z" />
</ns0:g>
</g><g transform="translate(-2.972764890118242,853.4806883013193) scale(0.03264896740759068)"><ns0:metadata>
Created by potrace 1.16, written by Peter Selinger 2001-2019
</ns0:metadata>
<ns0:g transform="translate(0.000000,207.000000) scale(0.100000,-0.100000)" fill="#000000" stroke="none">
<ns0:path d="M1013 1898 c-17 -18 -34 -44 -38 -57 -4 -14 -21 -46 -36 -72 -16 -25 -29 -50 -29 -54 0 -5 -6 -16 -14 -24 -16 -18 -136 -276 -171 -366 -12 -33 -34 -82 -48 -110 -46 -90 -97 -207 -97 -221 0 -29 47 -13 93 31 26 24 47 50 47 56 0 7 15 35 33 63 31 47 60 115 74 175 3 14 28 61 55 105 27 45 52 94 55 109 3 15 15 34 26 42 12 8 38 41 59 72 21 32 52 78 68 102 33 49 36 66 18 108 -12 29 -47 73 -58 73 -3 0 -20 -15 -37 -32z" />
<ns0:path d="M1435 1831 c-45 -19 -47 -32 -30 -148 27 -179 28 -179 69 -115 17 25 26 56 29 97 3 33 10 79 18 103 8 27 9 46 3 52 -14 14 -66 21 -89 11z" />
<ns0:path d="M1113 1379 c-18 -5 -33 -11 -33 -13 0 -14 -71 -230 -78 -239 -10 -13 -39 -92 -52 -142 -30 -117 -53 -192 -64 -205 -21 -26 -76 -137 -96 -196 -19 -53 -32 -73 -110 -167 -38 -45 -41 -74 -12 -100 36 -31 58 -29 97 7 20 19 56 45 80 56 24 12 45 24 47 28 2 4 41 33 88 65 47 32 112 78 145 103 33 24 67 47 75 51 8 4 18 12 23 19 8 14 109 74 125 74 17 0 22 -43 32 -248 12 -266 47 -396 115 -432 44 -24 48 -3 19 106 -22 82 -28 132 -34 294 -4 118 -4 214 2 243 8 37 6 59 -6 97 -24 72 -21 88 19 111 56 34 57 76 0 80 -49 4 -112 -4 -138 -18 -27 -14 -28 -17 -26 -79 l2 -66 -53 -29 c-30 -16 -61 -35 -69 -42 -9 -6 -27 -18 -40 -25 -13 -8 -38 -22 -55 -31 -34 -20 -97 -60 -136 -88 -39 -28 -92 -55 -97 -49 -3 2 24 64 60 138 35 73 70 155 76 182 25 103 74 244 112 322 21 45 39 84 39 88 0 3 13 24 29 47 17 22 27 47 24 55 -6 16 -60 18 -110 3z" />
</ns0:g>
</g><g transform="translate(1.1817975211189378,947.4871408269078) scale(0.03264896740759068)"><ns0:metadata>
Created by potrace 1.16, written by Peter Selinger 2001-2019
</ns0:metadata>
<ns0:g transform="translate(0.000000,210.000000) scale(0.100000,-0.100000)" fill="#000000" stroke="none">
<ns0:path d="M1430 2055 c-14 -8 -38 -22 -55 -30 -16 -9 -48 -27 -70 -40 -22 -14 -46 -25 -53 -25 -7 0 -28 -11 -45 -24 -18 -14 -51 -31 -74 -39 -22 -8 -63 -27 -90 -43 -43 -26 -88 -46 -205 -90 -21 -7 -58 -15 -83 -18 -33 -2 -53 -11 -76 -34 -36 -36 -33 -60 11 -92 25 -18 35 -19 62 -11 77 23 171 62 210 88 102 65 289 166 296 159 2 -3 -16 -17 -40 -32 -70 -45 -82 -72 -57 -128 11 -23 16 -24 80 -22 73 3 76 5 148 75 19 19 37 29 39 23 2 -6 -4 -46 -14 -89 -10 -43 -18 -85 -19 -93 0 -9 -4 -20 -7 -25 -26 -43 -39 -242 -40 -620 -1 -257 4 -329 35 -523 8 -45 12 -82 9 -82 -2 0 -20 13 -38 30 -19 16 -51 34 -73 40 -21 5 -44 17 -51 25 -7 8 -21 15 -31 15 -22 0 -87 28 -111 49 -28 22 -169 10 -240 -22 -32 -14 -58 -30 -58 -35 0 -6 46 -8 118 -6 84 4 123 1 140 -8 12 -7 57 -31 99 -53 43 -22 102 -64 133 -93 30 -30 78 -71 105 -92 28 -20 59 -47 69 -59 23 -26 51 -27 61 -3 15 39 16 125 1 170 -19 58 -51 244 -65 372 -11 106 -6 441 10 685 10 160 25 237 59 308 10 21 22 52 25 70 4 18 10 37 14 42 4 6 14 30 21 55 8 25 20 54 27 65 7 11 13 38 13 61 0 34 -5 47 -26 63 -15 12 -31 21 -36 21 -11 0 -55 -44 -82 -84 -27 -38 -89 -66 -124 -57 l-27 8 30 15 c17 9 43 30 59 47 17 17 37 31 46 31 23 0 40 20 40 47 0 27 -31 31 -70 8z" />
<ns0:path d="M1180 1533 c-25 -8 -53 -18 -63 -24 -9 -5 -47 -20 -83 -34 -36 -14 -82 -40 -103 -60 -21 -20 -59 -50 -86 -68 -51 -33 -70 -70 -59 -113 10 -39 39 -56 94 -56 72 0 101 30 64 66 -14 15 -14 18 4 43 39 55 144 131 187 136 17 2 48 13 70 24 23 12 58 25 79 28 34 7 37 10 34 39 -3 29 -5 31 -48 32 -25 1 -65 -5 -90 -13z" />
<ns0:path d="M958 1095 c-20 -14 -39 -34 -43 -45 -5 -16 -15 -20 -53 -20 -60 0 -96 -18 -100 -50 -3 -29 30 -70 56 -70 15 0 18 -9 19 -51 1 -51 1 -51 -27 -45 -29 5 -40 -6 -40 -42 0 -23 85 -60 130 -57 40 2 302 70 329 85 21 11 38 103 21 108 -5 2 -10 9 -10 16 0 7 -40 32 -89 55 -79 38 -91 47 -97 75 -7 34 -30 66 -48 66 -6 0 -28 -11 -48 -25z m171 -211 c9 -9 -23 -24 -49 -24 -14 0 -41 -9 -61 -19 -20 -11 -58 -22 -85 -26 l-49 -7 35 31 c25 21 45 30 71 31 25 0 39 5 43 16 5 13 15 15 48 10 23 -4 45 -9 47 -12z" />
</ns0:g>
</g></svg>