<?xml version='1.0' encoding='utf-8'?>
<svg xmlns:ns0="http://www.w3.org/2000/svg" xmlns="http://www.w3.org/2000/svg" width="235" height="121" viewBox="0 0 235 121"><g transform="translate(2.1239442100264796,-122.37369234786094) scale(0.051068870680077885)"><ns0:metadata>
Created by potrace 1.16, written by Peter Selinger 2001-2019
</ns0:metadata>
<ns0:g transform="translate(0.000000,208.000000) scale(0.100000,-0.100000)" fill="#000000" stroke="none">
<ns0:path d="M1279 1967 c-34 -15 -141 -141 -230 -269 -9 -13 -45 -43 -80 -67 l-64 -42 -5 27 c-3 15 -17 36 -31 46 -25 19 -28 19 -65 3 -21 -10 -65 -25 -96 -35 l-58 -18 0 92 c0 85 -2 94 -24 115 -18 17 -33 22 -62 19 -52 -4 -72 -40 -54 -102 9 -33 8 -60 -4 -136 -15 -92 -23 -118 -60 -205 -27 -64 -87 -177 -118 -220 -50 -69 -98 -147 -98 -156 0 -22 30 -4 81 49 57 58 205 248 229 291 11 21 92 104 132 137 16 13 138 84 144 84 2 0 4 -13 4 -29 0 -24 -13 -41 -72 -91 -171 -146 -196 -178 -166 -208 26 -26 64 -13 112 36 25 26 46 52 46 57 0 6 23 28 50 50 28 22 50 44 50 49 0 5 39 46 86 92 l86 83 28 -21 c22 -16 37 -19 64 -15 l36 6 -22 -29 c-30 -41 -14 -74 49 -101 79 -35 173 -18 173 31 0 20 -32 36 -50 25 -6 -4 -22 1 -36 10 -25 16 -26 20 -19 72 9 75 12 81 46 88 16 4 37 18 45 31 9 13 22 24 28 24 16 0 116 108 116 124 0 7 -3 15 -6 19 -7 7 -72 -25 -129 -64 -76 -51 -115 -70 -115 -55 0 16 43 77 93 131 40 43 47 69 21 79 -20 8 -24 7 -55 -7z" />
<ns0:path d="M1280 1318 c-14 -15 -19 -29 -14 -43 3 -11 12 -67 20 -125 l13 -105 -70 -70 c-39 -39 -75 -79 -81 -90 -6 -11 -38 -49 -72 -85 -34 -36 -99 -107 -145 -159 -92 -102 -102 -103 -100 -16 3 105 -55 170 -141 156 -25 -4 -60 -15 -78 -25 -47 -25 -56 -17 -31 29 12 22 55 108 97 190 41 83 80 152 85 154 5 2 18 12 28 22 10 10 33 25 52 32 18 8 41 26 50 41 16 23 16 27 2 32 -8 4 -27 4 -40 0 -14 -3 -37 -9 -52 -12 -16 -3 -58 -20 -96 -37 -61 -29 -68 -36 -77 -72 -10 -38 -36 -105 -94 -243 -15 -34 -40 -81 -55 -105 -43 -63 -131 -225 -131 -240 0 -22 23 -37 57 -37 28 0 44 11 97 65 35 36 66 65 71 65 4 0 20 11 36 25 37 30 93 42 115 24 13 -11 15 -27 12 -84 -3 -38 -9 -79 -15 -90 -60 -122 -116 -221 -134 -241 -28 -30 -25 -78 6 -92 47 -22 62 -14 119 59 31 39 56 76 56 81 0 6 46 58 103 117 105 110 171 185 220 252 16 22 33 39 38 39 5 0 9 5 9 11 0 7 20 37 45 67 25 30 45 60 45 66 0 14 53 56 70 56 8 0 9 -33 6 -107 -3 -60 -8 -189 -11 -287 -3 -99 -7 -182 -10 -185 -2 -3 1 -46 7 -95 13 -119 9 -126 -45 -82 -24 20 -49 36 -56 36 -7 0 -22 10 -35 23 -13 13 -38 29 -56 37 -56 23 -63 36 -41 78 11 20 29 43 40 50 24 14 28 40 6 48 -39 15 -175 -90 -175 -135 0 -23 65 -88 135 -135 28 -19 86 -66 130 -105 l80 -71 78 0 78 0 -6 33 c-11 66 -34 373 -30 392 3 11 7 94 10 185 3 91 8 190 10 220 14 154 7 230 -40 450 -11 51 -14 55 -42 58 -22 2 -37 -3 -53 -20z" />
</ns0:g>
</g><g transform="translate(2.3275187123022647,29.536397941363447) scale(0.051068870680077885)"><ns0:metadata>
Created by potrace 1.16, written by Peter Selinger 2001-2019
</ns0:metadata>
<ns0:g transform="translate(0.000000,206.000000) scale(0.100000,-0.100000)" fill="#000000" stroke="none">
<ns0:path d="M1208 1933 c-14 -16 -29 -38 -33 -51 -3 -12 -24 -43 -46 -69 -36 -41 -40 -50 -34 -83 5 -31 -1 -53 -36 -126 -23 -49 -60 -118 -82 -153 -50 -82 -112 -199 -121 -229 -9 -28 -168 -286 -187 -302 -3 -3 -27 -43 -53 -90 -26 -47 -67 -112 -91 -145 -25 -33 -57 -80 -72 -104 -16 -25 -51 -70 -78 -100 -28 -31 -72 -84 -98 -118 -27 -34 -55 -64 -64 -67 -8 -3 -12 -10 -8 -16 13 -21 107 28 153 80 24 27 78 80 120 116 42 37 83 79 91 93 8 14 31 45 51 69 21 23 45 57 54 75 9 17 22 41 29 52 27 45 71 110 76 115 3 3 11 14 18 25 81 136 106 180 107 189 4 24 36 74 51 79 8 4 15 15 15 25 0 10 16 44 35 76 19 32 35 64 35 70 0 6 10 27 23 46 13 19 36 61 53 94 16 32 36 61 45 63 9 3 22 16 29 29 8 13 18 24 25 24 11 0 99 -128 130 -188 19 -39 36 -38 47 4 11 39 -18 117 -86 228 -42 69 -43 87 -16 156 25 64 26 121 2 143 -27 24 -55 21 -84 -10z m-358 -820 c0 -14 -19 -38 -25 -32 -8 8 5 39 16 39 5 0 9 -3 9 -7z" />
<ns0:path d="M1245 1172 c-44 -26 -103 -62 -130 -79 -28 -18 -55 -33 -61 -33 -18 0 -105 -51 -166 -98 -68 -51 -77 -86 -32 -121 38 -30 55 -26 107 24 25 25 72 61 104 80 100 59 211 139 223 161 6 11 27 28 45 38 37 20 48 37 39 61 -10 25 -45 16 -129 -33z" />
<ns0:path d="M1305 860 c-3 -5 -27 -10 -52 -10 -50 0 -109 -24 -123 -50 -14 -26 -1 -59 30 -75 24 -12 34 -12 86 4 32 11 84 20 114 22 46 3 55 1 58 -14 4 -19 -37 -125 -75 -192 -42 -74 -145 -186 -201 -216 -63 -34 -72 -35 -72 -9 0 27 -45 194 -68 255 -20 49 -19 49 1 76 22 31 17 59 -11 59 -10 0 -45 -7 -77 -15 -93 -24 -107 -57 -50 -118 19 -20 35 -42 35 -47 0 -6 12 -29 26 -51 47 -75 74 -204 54 -263 -13 -41 -1 -68 39 -86 21 -9 29 -8 50 9 14 12 41 27 59 35 17 8 32 20 32 25 0 6 26 27 58 47 31 20 68 47 82 60 38 36 80 67 130 93 63 34 160 111 160 127 0 20 -33 17 -77 -5 -21 -10 -51 -22 -66 -25 l-28 -7 19 38 c11 21 32 73 46 117 22 63 26 88 21 128 -8 58 -25 77 -68 80 -61 3 -82 5 -104 12 -12 4 -24 2 -28 -4z" />
</ns0:g>
</g></svg>