<?xml version='1.0' encoding='utf-8'?>
<svg xmlns:ns0="http://www.w3.org/2000/svg" xmlns="http://www.w3.org/2000/svg" width="235" height="107" viewBox="0 0 235 107"><g transform="translate(-2.931641348066762,-70.82437820684912) scale(0.031536965173435585)"><ns0:metadata>
Created by potrace 1.16, written by Peter Selinger 2001-2019
</ns0:metadata>
<ns0:g transform="translate(0.000000,208.000000) scale(0.100000,-0.100000)" fill="#000000" stroke="none">
<ns0:path d="M1522 1754 c-64 -17 -182 -75 -278 -136 -39 -25 -98 -60 -132 -76 -33 -17 -78 -42 -99 -56 -20 -14 -43 -26 -50 -26 -25 0 -144 -64 -154 -82 -16 -29 -2 -74 27 -87 34 -15 43 -14 84 8 19 10 52 24 73 30 21 7 52 26 70 42 17 16 34 29 38 29 3 0 23 14 44 30 21 17 44 30 51 30 7 0 46 25 86 55 40 30 107 69 148 86 41 17 84 38 95 45 31 22 45 17 45 -17 0 -26 3 -30 22 -27 51 7 78 123 36 152 -27 19 -37 19 -106 0z" />
<ns0:path d="M1279 1419 c-31 -33 -41 -56 -60 -132 -12 -51 -33 -116 -45 -145 -13 -30 -28 -71 -34 -92 -10 -39 -22 -49 -125 -107 -22 -12 -56 -30 -75 -39 -19 -9 -57 -26 -85 -39 -128 -60 -184 -84 -232 -99 -62 -21 -103 -56 -103 -91 0 -28 32 -65 56 -65 15 0 132 55 264 124 95 50 194 95 199 90 2 -2 -4 -34 -14 -71 -15 -59 -76 -187 -147 -311 -12 -20 -33 -58 -47 -83 -14 -25 -36 -59 -49 -75 -90 -117 -111 -139 -129 -142 -52 -8 -50 -72 3 -72 28 0 88 36 123 74 14 14 28 26 32 26 20 0 72 70 131 177 115 208 155 287 168 328 27 87 83 211 112 247 17 22 47 47 67 58 21 10 61 37 89 59 28 23 54 41 57 41 6 0 9 2 65 48 19 16 73 54 120 86 177 118 234 176 203 207 -13 13 -83 -20 -153 -72 -19 -14 -57 -36 -84 -49 -27 -13 -78 -45 -113 -72 -35 -26 -73 -53 -86 -59 -12 -7 -38 -25 -57 -41 -47 -38 -60 -37 -49 5 36 138 49 166 117 239 l25 27 -31 30 c-41 42 -67 39 -113 -10z m-269 -529 c0 -5 -5 -10 -11 -10 -5 0 -7 5 -4 10 3 6 8 10 11 10 2 0 4 -4 4 -10z" />
<ns0:path d="M1180 593 c-21 -8 -30 -24 -30 -52 0 -36 27 -60 89 -77 31 -8 70 -22 86 -29 17 -8 66 -25 111 -39 148 -47 282 -27 308 47 15 42 -3 53 -59 35 -40 -13 -55 -14 -113 -2 -90 18 -194 58 -247 94 -43 29 -103 39 -145 23z" />
</ns0:g>
</g><g transform="translate(-2.2442973142606206,24.212106043159906) scale(0.031536965173435585)"><ns0:metadata>
Created by potrace 1.16, written by Peter Selinger 2001-2019
</ns0:metadata>
<ns0:g transform="translate(0.000000,208.000000) scale(0.100000,-0.100000)" fill="#000000" stroke="none">
<ns0:path d="M965 1596 c-15 -22 -17 -61 -19 -269 l-2 -244 -35 -31 c-19 -17 -38 -32 -42 -32 -10 0 -124 -68 -148 -87 -23 -19 -26 -17 -39 25 -7 20 -16 41 -21 46 -5 6 -9 17 -9 27 0 9 -9 28 -20 42 -11 14 -20 32 -20 39 0 8 -10 24 -23 36 l-22 21 -33 -25 c-28 -22 -32 -31 -32 -74 0 -38 -11 -69 -50 -147 -27 -55 -62 -115 -78 -135 -15 -20 -34 -54 -42 -77 -7 -23 -17 -41 -22 -41 -5 0 -13 -12 -18 -26 -14 -36 3 -62 46 -70 29 -5 40 -2 62 17 15 14 44 33 66 44 21 11 63 43 94 72 56 54 88 71 102 56 4 -4 15 -33 24 -64 19 -69 72 -183 92 -200 8 -6 14 -17 14 -24 0 -6 23 -38 50 -69 28 -31 50 -61 50 -66 0 -10 62 -50 78 -50 11 0 28 38 24 54 -2 5 5 17 14 27 13 15 16 47 19 191 4 250 22 469 41 488 8 8 38 29 67 47 29 18 70 44 93 58 43 26 104 43 104 29 0 -12 -145 -205 -173 -229 -13 -12 -31 -40 -40 -63 -15 -38 -15 -45 -1 -81 8 -21 25 -43 37 -50 12 -6 42 -24 67 -39 25 -15 60 -36 78 -47 19 -11 53 -32 75 -46 112 -71 137 -85 207 -119 41 -20 82 -45 90 -55 8 -10 34 -30 57 -44 23 -14 62 -45 87 -68 24 -24 49 -43 54 -43 16 0 21 54 7 75 -16 24 -93 104 -155 161 -47 43 -99 74 -124 74 -8 0 -19 6 -23 14 -4 7 -25 21 -45 31 -21 9 -40 26 -43 37 -4 10 -12 17 -18 15 -7 -2 -28 8 -47 23 -19 14 -55 38 -80 53 -25 14 -58 37 -74 50 l-30 24 60 79 c32 44 76 104 96 134 21 30 56 75 78 99 22 24 42 53 45 65 14 75 14 87 -1 93 -37 14 -171 -31 -328 -111 -60 -31 -115 -56 -123 -56 -9 0 -13 17 -13 63 0 52 4 67 20 82 19 17 21 28 17 127 -2 66 -8 113 -15 120 -7 7 -12 20 -12 29 0 21 -5 24 -47 33 -27 6 -34 3 -48 -18z m-38 -802 c-8 -82 -11 -171 -8 -199 8 -61 2 -145 -10 -145 -5 0 -9 6 -9 13 0 6 -20 37 -45 67 -25 30 -52 77 -61 105 -8 27 -22 63 -31 79 -8 15 -21 50 -28 77 l-13 49 29 15 c16 9 44 29 63 46 19 16 54 40 78 53 54 29 53 34 35 -160z m-312 130 c19 -47 19 -61 -2 -68 -10 -3 -34 -19 -53 -36 -32 -27 -67 -41 -58 -22 26 53 44 88 49 92 3 3 14 20 23 38 9 17 19 32 21 32 3 0 12 -16 20 -36z" />
</ns0:g>
</g><g transform="translate(1.9556887521939643,119.58117290152325) scale(0.031536965173435585)"><ns0:metadata>
Created by potrace 1.16, written by Peter Selinger 2001-2019
</ns0:metadata>
<ns0:g transform="translate(0.000000,212.000000) scale(0.100000,-0.100000)" fill="#000000" stroke="none">
<ns0:path d="M1321 1457 c-6 -8 -30 -20 -53 -27 -24 -7 -61 -21 -83 -31 -22 -10 -62 -23 -90 -30 -70 -17 -201 -57 -222 -68 -29 -14 -128 -51 -138 -51 -22 0 -87 -53 -96 -78 -23 -59 66 -139 118 -106 12 8 34 14 48 14 20 0 25 5 25 24 0 17 15 35 50 62 28 21 50 42 50 46 0 4 10 8 21 8 31 0 215 58 269 84 25 12 64 29 88 36 37 12 45 12 53 -1 6 -10 9 -10 9 -1 0 6 5 11 12 10 16 -4 29 81 16 105 -10 20 -61 23 -77 4z m-321 -171 c0 -3 -4 -8 -10 -11 -5 -3 -10 -1 -10 4 0 6 5 11 10 11 6 0 10 -2 10 -4z" />
<ns0:path d="M1320 876 c-14 -7 -47 -21 -75 -30 -27 -10 -79 -28 -115 -41 -198 -74 -242 -88 -315 -102 -84 -17 -170 -62 -181 -96 -6 -20 19 -65 42 -74 8 -3 36 6 62 20 26 13 72 30 102 37 65 14 254 79 360 123 41 17 95 33 120 36 44 6 45 7 54 49 6 29 5 51 -2 67 -13 29 -18 29 -52 11z" />
</ns0:g>
</g><g transform="translate(-2.194782719366742,226.48710399774086) scale(0.031536965173435585)"><ns0:metadata>
Created by potrace 1.16, written by Peter Selinger 2001-2019
</ns0:metadata>
<ns0:g transform="translate(0.000000,203.000000) scale(0.100000,-0.100000)" fill="#000000" stroke="none">
<ns0:path d="M1500 1206 c0 -9 5 -16 10 -16 6 0 10 -7 10 -16 0 -8 -5 -12 -10 -9 -6 3 -13 -1 -16 -10 -4 -9 -12 -14 -20 -11 -7 3 -15 0 -18 -7 -5 -9 -7 -9 -12 0 -4 9 -11 10 -22 4 -9 -5 -20 -9 -24 -10 -5 -1 -7 -4 -5 -8 1 -5 33 -8 70 -8 l68 0 -3 49 c-2 28 -8 51 -15 54 -7 2 -13 -3 -13 -12z" />
<ns0:path d="M1420 1180 c0 -5 7 -7 15 -4 8 4 15 8 15 10 0 2 -7 4 -15 4 -8 0 -15 -4 -15 -10z" />
<ns0:path d="M1375 1170 c-3 -5 -1 -10 4 -10 6 0 11 5 11 10 0 6 -2 10 -4 10 -3 0 -8 -4 -11 -10z" />
<ns0:path d="M1275 1145 c-22 -7 -74 -18 -116 -24 -42 -7 -93 -16 -113 -22 -32 -9 -35 -13 -30 -36 5 -19 3 -24 -7 -21 -8 3 -13 15 -11 28 3 21 1 22 -30 15 -18 -3 -80 -9 -138 -12 -58 -3 -110 -9 -116 -14 -15 -12 -15 -62 -1 -71 6 -4 23 -5 37 -3 14 2 80 7 147 10 71 3 136 11 156 20 19 8 57 20 84 26 51 12 63 14 130 22 23 3 51 11 63 17 27 15 26 34 -2 26 -43 -12 -194 -18 -178 -7 8 5 37 13 65 17 27 3 70 15 95 25 51 20 26 23 -35 4z" />
<ns0:path d="M635 1049 c-9 -14 3 -59 15 -59 6 0 10 16 10 35 0 34 -12 46 -25 24z" />
</ns0:g>
</g><g transform="translate(1.3705676325448621,294.4740827093909) scale(0.031536965173435585)"><ns0:metadata>
Created by potrace 1.16, written by Peter Selinger 2001-2019
</ns0:metadata>
<ns0:g transform="translate(0.000000,201.000000) scale(0.100000,-0.100000)" fill="#000000" stroke="none">
<ns0:path d="M1315 1576 c-33 -11 -74 -29 -92 -38 -18 -10 -40 -18 -51 -18 -10 0 -22 -4 -27 -9 -6 -4 -37 -18 -70 -29 -111 -39 -146 -52 -196 -77 -27 -14 -81 -32 -121 -40 -40 -9 -80 -23 -90 -32 -54 -49 23 -139 90 -104 49 26 252 119 282 130 19 7 53 20 75 28 22 8 47 20 55 27 8 7 33 18 55 24 158 42 169 47 177 83 9 41 2 79 -15 78 -6 -1 -39 -11 -72 -23z" />
<ns0:path d="M1193 1150 c-34 -16 -95 -41 -137 -54 -41 -14 -85 -31 -98 -39 -13 -8 -56 -25 -96 -38 -103 -32 -121 -74 -50 -117 26 -15 31 -15 80 3 29 10 64 27 77 37 13 10 42 23 65 28 22 6 50 15 61 20 87 40 137 58 153 53 28 -7 82 43 82 76 0 32 -27 61 -56 61 -10 -1 -47 -14 -81 -30z" />
<ns0:path d="M1605 740 c-60 -20 -135 -47 -165 -58 -30 -11 -89 -30 -130 -42 -41 -12 -89 -28 -107 -36 -17 -8 -37 -14 -45 -14 -8 0 -18 -4 -24 -9 -14 -13 -130 -48 -204 -61 -36 -7 -87 -19 -115 -27 -27 -8 -86 -18 -130 -23 -104 -11 -113 -15 -121 -56 -12 -65 12 -84 85 -66 57 14 236 55 316 72 33 7 64 17 69 22 6 4 22 8 37 8 35 0 127 29 159 50 27 18 141 60 164 60 7 0 35 12 62 26 48 26 138 54 172 54 9 0 33 5 53 10 33 9 37 14 42 51 11 80 6 82 -118 39z" />
</ns0:g>
</g><g transform="translate(-1.3276000109925121,372.7255990619226) scale(0.031536965173435585)"><ns0:metadata>
Created by potrace 1.16, written by Peter Selinger 2001-2019
</ns0:metadata>
<ns0:g transform="translate(0.000000,205.000000) scale(0.100000,-0.100000)" fill="#000000" stroke="none">
<ns0:path d="M833 1670 c-26 -11 -32 -60 -9 -79 7 -6 16 -32 19 -59 4 -26 9 -57 13 -68 5 -17 -6 -30 -58 -70 -35 -26 -93 -65 -130 -85 -66 -36 -70 -37 -143 -32 -65 5 -78 3 -96 -13 -18 -17 -20 -26 -14 -77 3 -32 15 -93 26 -135 15 -57 21 -120 24 -242 6 -226 13 -285 37 -307 19 -17 21 -17 39 6 10 13 20 37 20 55 1 17 3 112 5 211 7 355 7 350 26 347 25 -4 56 15 109 65 25 25 55 50 66 56 11 7 39 25 62 41 23 16 45 26 49 22 11 -11 19 -288 9 -309 -5 -10 -23 -25 -40 -32 -18 -7 -53 -33 -79 -58 -63 -59 -65 -93 -9 -134 l39 -28 -36 -50 c-20 -27 -49 -70 -66 -95 -56 -85 -180 -219 -201 -220 -6 0 -19 -14 -29 -30 -20 -36 -13 -50 34 -70 34 -14 42 -10 133 64 30 24 68 51 85 60 16 8 32 22 35 31 7 16 32 20 41 7 5 -8 2 -22 -29 -137 -7 -27 -12 -75 -10 -105 2 -30 4 -63 4 -73 1 -24 58 -56 161 -90 73 -24 101 -28 200 -29 131 0 247 23 330 67 14 7 50 20 80 28 30 7 81 31 114 53 32 21 68 44 79 51 12 7 25 20 28 30 11 27 -1 113 -22 155 -11 21 -19 46 -19 56 0 11 -11 40 -25 66 -14 26 -25 54 -25 62 0 21 -28 17 -40 -6 -17 -32 -15 -170 3 -214 25 -57 21 -70 -25 -100 -46 -30 -179 -86 -204 -86 -8 0 -28 -7 -44 -15 -19 -10 -83 -19 -180 -25 -146 -10 -151 -10 -205 13 -64 27 -109 63 -101 82 3 8 10 41 16 75 6 33 21 93 34 133 13 39 27 87 31 104 3 18 10 33 14 33 5 0 26 -14 47 -31 32 -26 44 -29 74 -24 41 8 64 26 79 63 23 58 61 366 61 498 0 73 6 178 12 235 15 124 13 306 -3 325 -6 8 -19 14 -29 14 -16 0 -137 -73 -150 -91 -10 -12 -72 -40 -78 -35 -3 4 -20 39 -37 79 -33 77 -51 88 -102 67z m295 -310 c-6 -63 -12 -189 -12 -280 -1 -91 -7 -196 -13 -235 -7 -38 -17 -106 -23 -150 -14 -93 -22 -106 -50 -80 -26 23 -25 29 5 59 45 45 23 80 -36 56 -16 -7 -32 -10 -35 -7 -3 3 2 36 11 74 14 54 18 120 20 328 2 143 6 268 10 277 9 22 117 90 126 80 4 -4 3 -59 -3 -122z m-298 -724 c0 -19 -37 -63 -45 -54 -4 3 3 20 16 37 26 35 29 37 29 17z" />
</ns0:g>
</g><g transform="translate(-1.8413174970315822,462.60575766491945) scale(0.031536965173435585)"><ns0:metadata>
Created by potrace 1.16, written by Peter Selinger 2001-2019
</ns0:metadata>
<ns0:g transform="translate(0.000000,205.000000) scale(0.100000,-0.100000)" fill="#000000" stroke="none">
<ns0:path d="M1227 1963 c-25 -13 -67 -81 -67 -110 0 -7 -7 -33 -15 -58 -31 -90 11 -77 59 19 39 78 98 88 131 24 18 -37 19 -49 3 -100 -8 -29 -18 -40 -37 -45 -41 -9 -61 -33 -61 -70 0 -27 -10 -43 -54 -86 -30 -28 -73 -65 -95 -80 -24 -17 -41 -36 -41 -48 0 -26 10 -24 56 11 21 16 44 30 49 30 6 1 32 18 60 39 l49 38 23 -34 c25 -37 30 -73 11 -73 -7 0 -23 -10 -37 -23 -15 -13 -55 -36 -91 -52 -36 -15 -97 -45 -136 -66 -39 -22 -74 -39 -77 -39 -17 0 -4 25 33 68 22 25 39 50 37 56 -6 18 -68 17 -121 -2 l-49 -17 -28 -99 c-20 -70 -35 -103 -51 -115 -30 -22 -137 -83 -230 -131 -42 -22 -79 -44 -83 -50 -4 -6 -37 -26 -73 -46 -105 -55 -140 -78 -183 -120 -48 -47 -53 -89 -13 -104 54 -21 68 -15 154 63 14 13 39 32 55 42 17 11 40 28 51 40 12 11 74 47 138 79 64 33 121 66 126 75 32 54 -32 -214 -73 -309 -9 -19 -22 -51 -30 -70 -27 -62 -31 -90 -13 -90 9 0 16 3 16 8 0 4 17 25 38 47 21 22 42 52 45 67 4 15 20 36 35 47 20 14 34 38 47 80 l18 60 146 -1 c150 -1 161 0 244 9 42 4 48 8 45 26 -4 30 -70 47 -193 51 -120 4 -181 14 -195 32 -8 9 -8 23 2 51 28 78 75 128 162 168 17 8 45 24 61 35 17 11 37 22 45 26 8 3 33 14 56 25 23 10 46 19 51 19 5 0 35 18 67 40 31 22 71 42 89 45 17 4 38 12 47 18 26 22 97 57 114 57 9 0 16 -8 16 -20 0 -14 -19 -32 -61 -57 -34 -21 -74 -48 -90 -61 -15 -12 -45 -28 -66 -36 -22 -7 -39 -21 -42 -31 -3 -15 2 -17 30 -11 63 12 151 61 216 119 24 20 47 37 53 37 22 0 50 41 50 73 0 65 -50 80 -168 51 -78 -20 -85 -15 -108 74 l-16 62 35 42 c29 36 36 54 42 111 9 86 -14 139 -77 179 -47 29 -87 32 -131 11z" />
<ns0:path d="M1000 1863 c-13 -16 -18 -33 -13 -42 12 -28 16 -320 4 -335 -6 -7 -9 -21 -5 -30 20 -52 94 41 105 134 11 84 10 245 -1 274 -13 36 -61 36 -90 -1z" />
<ns0:path d="M587 1809 c-27 -21 -69 -98 -82 -152 -10 -39 -24 -43 -36 -8 -19 54 -102 62 -129 11 -12 -22 -8 -33 21 -65 26 -30 52 -141 44 -192 -7 -46 7 -83 30 -83 8 0 15 1 15 3 0 1 16 47 36 102 19 55 38 109 41 120 3 11 13 29 23 40 9 11 25 39 35 62 23 53 45 74 82 75 37 1 69 -16 89 -48 29 -44 14 -145 -36 -239 -51 -97 -95 -142 -183 -189 -63 -33 -70 -35 -91 -21 -26 17 -36 11 -36 -21 0 -23 33 -54 57 -54 24 0 121 41 143 60 13 11 26 20 31 20 12 0 89 53 89 61 0 4 16 26 36 50 68 82 87 133 92 244 3 97 3 101 -26 146 -34 53 -91 85 -167 94 -41 4 -55 2 -78 -16z" />
<ns0:path d="M1246 605 c-38 -13 -56 -29 -56 -51 0 -22 54 -64 103 -82 90 -31 95 -78 17 -161 -50 -53 -93 -71 -180 -74 -32 -2 -35 1 -52 48 -45 122 -78 185 -110 208 -24 18 -30 18 -58 7 -34 -14 -55 -44 -43 -63 4 -6 28 -39 53 -72 61 -78 103 -161 95 -186 -4 -10 -22 -31 -41 -45 -40 -31 -42 -42 -13 -78 27 -34 52 -33 99 4 21 17 44 30 52 30 8 0 18 4 23 8 6 5 35 19 66 31 31 12 67 33 80 47 12 13 28 24 34 24 12 0 73 55 110 98 11 14 22 46 26 80 9 82 -8 119 -76 162 -31 20 -56 44 -60 57 -6 26 -15 27 -69 8z" />
<ns0:path d="M528 459 c-31 -15 -38 -25 -38 -48 0 -22 7 -32 32 -44 18 -9 36 -13 41 -10 4 2 40 5 79 4 90 -1 108 -14 98 -71 -4 -22 -15 -50 -24 -62 -9 -13 -26 -37 -37 -54 -12 -19 -44 -43 -82 -62 -102 -50 -113 -53 -130 -34 -20 24 -30 59 -17 67 5 3 10 13 10 21 0 17 68 127 81 132 10 4 13 42 4 42 -4 0 -20 -7 -38 -16 -39 -20 -85 -68 -128 -135 -29 -45 -31 -55 -25 -104 10 -89 3 -85 136 -85 92 0 120 3 130 15 7 8 18 15 25 15 21 0 121 104 129 133 3 15 11 27 17 27 18 0 39 68 39 127 -1 92 -36 122 -171 147 -47 9 -87 16 -90 15 -2 -1 -21 -10 -41 -20z" />
</ns0:g>
</g><g transform="translate(-0.3280649159921154,551.840226347125) scale(0.031536965173435585)"><ns0:metadata>
Created by potrace 1.16, written by Peter Selinger 2001-2019
</ns0:metadata>
<ns0:g transform="translate(0.000000,211.000000) scale(0.100000,-0.100000)" fill="#000000" stroke="none">
<ns0:path d="M1097 2022 c-15 -15 -27 -35 -27 -43 0 -26 -30 -111 -65 -184 -18 -38 -47 -99 -64 -134 -45 -95 -42 -109 28 -120 l35 -6 -50 -50 c-27 -28 -72 -75 -99 -106 -28 -31 -62 -64 -77 -74 -30 -19 -38 -64 -15 -82 21 -18 69 -21 96 -7 14 7 55 27 91 45 36 17 78 41 93 51 16 11 31 17 35 13 4 -4 -31 -42 -77 -84 -47 -42 -147 -138 -223 -213 -76 -76 -142 -138 -147 -138 -12 0 6 77 24 104 25 34 19 160 -10 251 -14 43 -35 90 -45 106 -11 15 -20 37 -20 48 0 12 31 76 69 142 39 66 73 135 76 152 3 18 13 60 21 95 21 89 5 123 -49 103 -18 -7 -34 -36 -67 -121 -24 -61 -47 -113 -52 -116 -4 -3 -8 -12 -8 -20 0 -38 -66 -150 -120 -203 -32 -31 -65 -70 -74 -88 -14 -29 -14 -33 0 -47 22 -22 38 -20 72 9 17 14 34 25 39 25 10 0 31 -40 65 -120 30 -72 32 -205 4 -297 -15 -49 -16 -65 -7 -77 10 -12 3 -21 -35 -53 -26 -21 -63 -52 -83 -69 -98 -84 -241 -184 -264 -184 -24 0 -97 -59 -97 -78 0 -31 23 -52 60 -53 30 -2 181 52 230 82 38 23 163 80 207 95 26 9 55 22 64 30 8 8 23 14 31 14 15 0 72 25 162 70 22 11 42 18 44 15 3 -3 -2 -45 -12 -93 -9 -48 -19 -111 -21 -140 -2 -30 -8 -68 -14 -85 -8 -27 -27 -179 -36 -292 -4 -54 33 -100 65 -80 27 17 47 84 53 175 4 52 11 111 16 130 6 19 15 76 21 125 16 143 58 303 84 324 6 4 49 23 96 41 47 17 103 40 126 51 23 10 47 19 54 19 7 0 29 9 49 19 20 11 44 22 54 25 20 6 39 49 31 71 -8 21 -54 19 -116 -6 -29 -12 -74 -28 -100 -35 -26 -8 -71 -26 -100 -39 -29 -14 -58 -25 -64 -25 -6 0 -14 21 -18 48 -6 47 -47 122 -67 122 -5 0 -20 -10 -33 -23 -18 -18 -24 -38 -29 -98 -4 -42 -9 -82 -12 -90 -9 -23 -370 -187 -383 -174 -7 7 30 54 46 60 17 5 127 109 407 384 234 231 277 279 273 310 -3 23 -8 26 -45 29 -33 2 -61 -7 -142 -48 -56 -27 -101 -46 -101 -41 0 23 52 101 98 146 42 41 43 77 2 107 -16 12 -30 26 -30 31 0 25 85 192 110 217 24 24 54 124 46 154 -9 35 -45 34 -79 -2z m-547 -1382 c0 -12 -28 -25 -36 -17 -9 9 6 27 22 27 8 0 14 -5 14 -10z" />
<ns0:path d="M752 595 c-17 -14 -33 -25 -36 -25 -4 0 -26 -19 -49 -42 -23 -23 -69 -64 -102 -91 -33 -27 -67 -57 -75 -67 -8 -10 -35 -35 -60 -55 -25 -21 -90 -79 -145 -130 -55 -52 -121 -110 -147 -130 -27 -20 -48 -40 -48 -45 0 -6 20 -10 44 -10 34 0 50 6 74 28 29 28 134 115 215 180 22 18 79 71 126 119 47 47 101 97 118 111 18 13 33 29 33 34 0 10 7 19 69 87 51 56 38 82 -17 36z" />
<ns0:path d="M960 392 c0 -26 9 -43 38 -71 35 -36 43 -38 152 -56 63 -9 121 -22 127 -27 7 -6 55 -19 107 -29 51 -10 111 -25 132 -33 62 -23 90 -26 106 -13 17 13 42 112 32 128 -8 13 -51 11 -74 -3 -20 -13 -45 -8 -230 43 -41 11 -107 27 -147 34 -39 8 -95 25 -125 38 -29 14 -68 25 -85 24 -31 0 -33 -3 -33 -35z" />
</ns0:g>
</g><g transform="translate(0.04500407696281172,642.3265492524781) scale(0.031536965173435585)"><ns0:metadata>
Created by potrace 1.16, written by Peter Selinger 2001-2019
</ns0:metadata>
<ns0:g transform="translate(0.000000,203.000000) scale(0.100000,-0.100000)" fill="#000000" stroke="none">
<ns0:path d="M1464 1973 c-44 -31 -97 -69 -120 -84 -23 -16 -47 -36 -55 -45 -7 -9 -42 -34 -76 -56 -35 -22 -63 -43 -63 -46 -1 -4 -26 -25 -57 -47 -30 -22 -65 -49 -77 -60 -11 -11 -39 -33 -61 -48 -23 -14 -58 -45 -80 -67 -21 -22 -43 -40 -47 -40 -4 0 -43 -22 -86 -49 -158 -101 -143 -94 -162 -76 -20 18 -40 19 -74 4 -23 -11 -42 -51 -32 -68 3 -5 -1 -39 -9 -77 -7 -38 -19 -148 -25 -244 -7 -96 -13 -191 -15 -210 -25 -283 -22 -510 9 -655 23 -106 55 -117 179 -64 40 17 95 38 122 46 28 8 64 21 80 28 17 7 57 21 90 31 33 9 74 24 90 33 17 8 37 16 45 17 25 4 224 76 246 90 50 33 228 49 259 24 19 -16 71 13 90 50 20 38 20 194 1 287 -8 37 -20 113 -26 168 -14 125 -14 701 0 809 31 233 32 241 66 302 19 33 34 71 34 82 0 21 -5 22 -84 22 l-84 0 -78 -57z m76 -85 c-5 -18 -11 -72 -14 -119 -3 -48 -10 -117 -17 -155 -7 -42 -11 -189 -11 -379 0 -302 7 -411 44 -658 13 -86 5 -107 -43 -110 -13 0 -26 -4 -29 -8 -3 -4 -44 -18 -90 -30 -47 -12 -111 -34 -142 -50 -32 -16 -67 -29 -78 -29 -20 0 -20 4 -16 88 3 48 8 146 11 218 3 72 12 162 20 199 7 37 19 129 25 204 7 75 18 154 25 176 8 22 21 82 29 133 11 67 22 102 41 126 13 18 27 51 30 74 6 47 3 50 -89 74 l-48 13 63 48 c35 26 91 68 123 95 177 142 180 143 166 90z m-389 -294 c-6 -16 -12 -54 -15 -84 -3 -38 -9 -58 -22 -65 -9 -5 -26 -19 -36 -30 -24 -25 -21 -22 -93 -88 -33 -30 -93 -79 -134 -110 -125 -95 -152 -162 -75 -187 25 -9 43 -9 62 -2 15 6 42 14 61 17 32 7 33 8 28 46 -5 37 -2 42 66 110 71 70 114 105 121 98 5 -5 -11 -254 -20 -307 -4 -26 -10 -39 -14 -32 -4 7 -39 15 -76 17 -66 5 -71 4 -111 -28 -58 -47 -117 -126 -154 -206 -44 -94 -43 -91 -84 -253 -20 -80 -52 -183 -71 -230 -19 -46 -34 -90 -34 -97 0 -11 -29 -33 -43 -33 -3 0 -5 10 -5 23 0 12 -1 94 -1 182 -1 146 19 423 35 492 4 15 13 35 21 45 13 14 12 17 -4 27 -17 9 -17 11 -2 23 19 15 33 71 35 138 3 127 -2 117 77 144 9 3 17 15 17 26 0 28 55 78 148 137 43 26 94 63 114 83 20 19 56 51 79 70 23 19 49 42 58 50 31 29 74 60 78 57 2 -2 -1 -17 -6 -33z m-461 -253 c0 -6 -4 -13 -10 -16 -5 -3 -10 1 -10 9 0 9 5 16 10 16 6 0 10 -4 10 -9z m-165 -231 c-3 -5 -10 -10 -16 -10 -5 0 -9 5 -9 10 0 6 7 10 16 10 8 0 12 -4 9 -10z m561 -202 c-25 -85 -30 -169 -36 -533 l-1 -70 -37 -17 c-20 -9 -73 -26 -117 -37 -44 -12 -91 -25 -105 -30 -14 -5 -52 -17 -85 -27 -33 -9 -73 -24 -88 -31 -40 -20 -44 -10 -13 30 14 19 26 37 26 41 0 5 9 20 20 36 11 15 34 63 51 106 17 43 35 85 40 93 5 9 18 45 30 81 29 91 92 218 128 260 90 102 108 115 170 119 20 1 22 -2 17 -21z" />
</ns0:g>
</g><g transform="translate(1.447114782278618,736.9966322738243) scale(0.031536965173435585)"><ns0:metadata>
Created by potrace 1.16, written by Peter Selinger 2001-2019
</ns0:metadata>
<ns0:g transform="translate(0.000000,208.000000) scale(0.100000,-0.100000)" fill="#000000" stroke="none">
<ns0:path d="M851 1794 c-16 -11 -21 -23 -17 -37 3 -12 -3 -40 -14 -64 -10 -23 -22 -63 -26 -88 -7 -51 -37 -95 -64 -95 -9 0 -23 -7 -30 -15 -7 -8 -29 -19 -50 -25 -20 -5 -54 -21 -74 -35 -20 -14 -40 -25 -45 -25 -14 0 -71 -79 -71 -99 0 -27 45 -60 73 -53 18 4 98 61 117 83 3 3 13 8 23 12 14 5 16 3 9 -11 -5 -9 -12 -34 -16 -55 -9 -50 -84 -228 -116 -277 -9 -14 -38 -74 -65 -135 -26 -60 -61 -133 -76 -161 -16 -28 -29 -61 -29 -72 0 -12 -18 -56 -39 -99 -22 -43 -42 -90 -46 -106 -4 -15 -16 -44 -26 -64 -22 -44 -23 -57 -6 -71 26 -22 62 -2 85 48 12 26 22 56 22 65 0 18 39 73 133 190 54 66 117 119 127 108 10 -12 30 -144 30 -199 0 -26 5 -86 12 -135 9 -68 9 -94 0 -114 -19 -41 1 -69 41 -61 44 9 49 17 56 88 10 107 -23 464 -49 534 -15 38 -66 33 -117 -11 -23 -19 -44 -35 -47 -35 -6 0 32 94 58 140 56 102 116 232 141 310 20 61 60 137 90 172 11 13 31 39 43 60 12 20 28 38 35 41 7 2 39 27 72 55 33 27 76 57 95 66 19 9 50 26 68 39 18 12 47 31 65 42 20 13 33 30 35 47 3 22 -2 27 -27 33 -21 4 -42 1 -63 -11 -18 -9 -69 -35 -113 -56 -44 -22 -91 -50 -104 -62 l-24 -21 8 25 c14 43 9 109 -10 130 -22 24 -43 25 -74 4z" />
<ns0:path d="M1355 1620 c-20 -8 -130 -114 -260 -251 -39 -41 -83 -80 -98 -88 -54 -28 -147 -130 -147 -161 0 -25 30 -60 51 -60 12 0 44 23 72 53 29 28 86 84 127 124 41 39 96 94 121 122 l46 51 7 -183 c4 -100 9 -195 11 -212 2 -16 6 -83 9 -148 l6 -117 -38 -26 c-20 -14 -75 -50 -122 -79 -99 -63 -114 -61 -141 21 -33 98 -33 100 9 141 52 52 153 118 175 115 23 -4 57 25 57 49 0 56 -119 47 -184 -13 -11 -10 -25 -18 -31 -18 -7 0 -40 -14 -73 -31 -41 -22 -64 -41 -72 -60 -14 -33 -6 -66 20 -74 12 -4 25 -29 40 -78 12 -40 28 -84 36 -99 14 -26 13 -29 -24 -66 -21 -21 -64 -53 -95 -71 -52 -30 -57 -36 -57 -67 0 -29 5 -37 34 -51 34 -16 35 -16 66 15 17 18 37 32 44 32 7 0 23 12 37 26 13 14 37 33 52 41 32 16 41 12 85 -39 38 -44 121 -84 210 -102 112 -22 119 -21 138 16 13 26 15 48 10 117 -4 47 -13 111 -21 141 -52 202 -61 281 -79 665 -4 84 6 208 23 287 15 69 0 94 -44 78z m35 -920 c0 -5 -4 -10 -10 -10 -5 0 -10 5 -10 10 0 6 5 10 10 10 6 0 10 -4 10 -10z m-41 -127 c27 -122 25 -177 -5 -181 -51 -7 -214 83 -214 119 0 4 23 30 52 56 29 26 70 67 92 91 28 30 42 39 47 30 4 -7 16 -59 28 -115z" />
</ns0:g>
</g><g transform="translate(-1.3446813716285533,824.9213682764216) scale(0.031536965173435585)"><ns0:metadata>
Created by potrace 1.16, written by Peter Selinger 2001-2019
</ns0:metadata>
<ns0:g transform="translate(0.000000,209.000000) scale(0.100000,-0.100000)" fill="#000000" stroke="none">
<ns0:path d="M1491 1903 c-31 -32 -71 -75 -88 -95 -18 -21 -61 -57 -97 -82 -122 -84 -206 -156 -206 -177 0 -12 -8 -23 -19 -26 -30 -8 -51 -64 -67 -176 -18 -130 -21 -140 -42 -131 -40 17 -94 16 -142 -5 -27 -12 -51 -21 -54 -21 -13 0 -4 20 29 68 154 225 165 418 25 452 -117 28 -218 -43 -153 -108 18 -18 16 -39 -6 -76 -19 -31 -29 -101 -36 -251 -4 -98 -13 -163 -26 -186 -6 -12 -5 -20 2 -25 8 -5 10 -53 7 -165 -6 -168 -17 -209 -57 -209 -24 0 -42 -22 -32 -39 5 -7 24 -16 42 -20 l34 -7 1 -94 c6 -356 7 -371 25 -381 10 -5 26 -9 37 -9 43 0 46 18 43 280 -1 196 1 256 12 283 17 40 78 128 122 177 18 19 49 60 69 90 l37 55 -6 -40 c-4 -22 -14 -77 -22 -122 -23 -124 -9 -143 52 -65 35 45 37 46 32 17 -3 -16 -9 -68 -12 -115 -4 -47 -13 -110 -20 -140 -21 -89 -72 -225 -100 -266 -30 -44 -32 -77 -5 -104 24 -24 31 -24 92 -5 70 21 138 78 258 213 30 34 63 62 72 62 9 0 40 -23 70 -51 29 -28 88 -77 130 -110 42 -32 80 -64 83 -69 7 -11 111 -80 121 -80 3 0 19 -14 36 -30 17 -17 45 -42 63 -56 l33 -25 58 22 c93 35 134 96 85 126 -16 10 -24 9 -44 -7 -33 -26 -49 -25 -85 5 -17 14 -33 25 -36 25 -11 0 -178 119 -236 167 -30 25 -71 67 -92 93 -21 26 -53 59 -73 74 -42 32 -43 44 -10 80 14 15 25 29 25 30 0 2 14 19 31 37 17 19 47 56 65 84 19 27 50 73 70 100 19 28 37 60 40 73 7 26 -11 52 -37 52 -17 0 -139 -110 -139 -125 0 -7 -60 -86 -105 -140 -14 -16 -34 -41 -44 -54 l-18 -25 -31 25 c-17 13 -31 29 -31 35 -1 18 -60 64 -82 64 -20 0 -21 4 -17 63 9 101 27 147 77 192 122 109 153 144 149 167 -4 29 -43 37 -66 13 -25 -24 -140 -105 -150 -105 -5 0 -17 -9 -27 -20 -29 -32 -38 -24 -30 27 13 88 43 189 50 171 11 -27 32 -22 109 26 39 23 90 54 114 66 41 23 42 23 57 4 17 -22 19 -112 11 -374 -1 -46 29 -52 61 -11 30 38 43 156 43 386 0 209 21 372 57 432 18 32 23 53 21 90 -3 42 -6 48 -26 51 -18 3 -38 -11 -81 -55z m-51 -211 c0 -5 -5 -35 -12 -68 -11 -56 -14 -82 -17 -132 -1 -20 -5 -22 -39 -16 -28 4 -41 2 -51 -10 -7 -9 -19 -16 -26 -16 -7 0 -18 -7 -25 -15 -7 -8 -20 -15 -30 -15 -9 0 -38 -11 -64 -25 -56 -30 -59 -30 -53 -7 3 9 8 33 11 53 5 27 13 39 29 43 12 3 49 31 82 62 33 31 80 69 104 85 24 15 50 37 58 49 14 20 33 27 33 12z m-604 -94 c10 -16 7 -74 -5 -97 -11 -20 -13 -19 -51 18 -45 44 -48 53 -21 80 19 19 65 19 77 -1z m-46 -193 c0 -2 -9 -19 -20 -37 l-20 -33 0 31 c0 17 3 34 7 37 7 8 33 9 33 2z m80 -280 c0 -10 -63 -120 -94 -162 -36 -52 -56 -56 -56 -10 0 77 11 104 50 126 20 11 43 28 50 36 12 14 50 22 50 10z m320 -580 c11 -20 10 -28 -4 -50 -10 -14 -24 -29 -32 -32 -8 -3 -28 -24 -43 -47 -28 -40 -91 -87 -91 -68 0 5 7 29 16 53 8 24 24 80 35 124 11 44 22 86 25 93 5 16 75 -38 94 -73z" />
</ns0:g>
</g><g transform="translate(-2.547774499286618,917.6095861126157) scale(0.031536965173435585)"><ns0:metadata>
Created by potrace 1.16, written by Peter Selinger 2001-2019
</ns0:metadata>
<ns0:g transform="translate(0.000000,207.000000) scale(0.100000,-0.100000)" fill="#000000" stroke="none">
<ns0:path d="M1100 1720 c-8 -5 -29 -10 -47 -10 -76 0 -101 -33 -182 -240 -29 -74 -56 -139 -61 -145 -4 -5 -31 -55 -60 -110 -29 -55 -58 -107 -65 -115 -20 -25 -110 -209 -151 -310 -21 -52 -51 -117 -66 -143 -51 -88 -33 -101 39 -29 68 66 133 169 214 332 28 58 59 116 69 130 20 29 67 121 139 274 29 60 63 122 75 137 13 15 33 48 45 73 13 27 37 54 57 67 41 25 60 64 43 85 -13 16 -28 17 -49 4z" />
<ns0:path d="M1283 1480 c-34 -14 -40 -56 -12 -86 12 -13 31 -24 41 -24 10 0 30 -8 45 -17 24 -16 26 -16 39 2 22 30 16 58 -20 98 -34 37 -53 43 -93 27z" />
<ns0:path d="M863 1053 c-18 -2 -37 -12 -42 -21 -7 -15 -15 -83 -27 -241 -1 -18 -8 -54 -14 -80 -17 -62 -153 -340 -190 -386 -36 -46 -39 -87 -8 -109 31 -22 75 -20 88 3 5 11 38 34 73 51 59 31 140 77 219 127 21 13 42 23 47 23 10 0 115 62 140 83 9 7 28 18 43 25 35 14 46 1 58 -72 5 -31 11 -60 14 -65 3 -5 8 -30 11 -56 11 -87 67 -186 92 -161 12 12 10 130 -3 221 -7 50 -27 140 -43 200 -29 100 -30 110 -15 126 20 22 11 37 -35 57 -48 21 -72 23 -98 6 -34 -21 -36 -47 -8 -103 32 -63 30 -82 -13 -93 -18 -5 -55 -22 -83 -38 -27 -17 -54 -30 -59 -30 -9 0 -136 -57 -203 -90 l-38 -20 7 23 c3 12 12 29 19 37 7 8 16 26 20 40 3 14 13 39 21 57 13 30 51 177 74 293 19 95 21 104 37 136 29 57 12 69 -84 57z" />
</ns0:g>
</g><g transform="translate(-1.879296651696393,1017.8448197095681) scale(0.031536965173435585)"><ns0:metadata>
Created by potrace 1.16, written by Peter Selinger 2001-2019
</ns0:metadata>
<ns0:g transform="translate(0.000000,209.000000) scale(0.100000,-0.100000)" fill="#000000" stroke="none">
<ns0:path d="M1384 2047 c-56 -46 -134 -112 -197 -167 -43 -37 -166 -117 -232 -150 -22 -11 -65 -24 -95 -30 -87 -17 -144 -49 -148 -83 -2 -16 4 -40 13 -54 16 -23 22 -25 64 -20 43 5 121 38 237 100 64 35 123 80 204 157 41 40 91 84 110 100 l35 28 -1 -277 c-1 -289 -6 -387 -29 -586 -8 -66 -19 -199 -25 -295 -7 -96 -16 -183 -22 -194 -8 -14 -17 -17 -44 -13 -20 4 -46 0 -64 -10 -20 -9 -58 -15 -106 -15 -63 1 -75 -2 -72 -15 2 -9 15 -25 30 -36 23 -17 44 -20 187 -22 l161 -2 0 39 c0 25 5 38 13 38 10 0 13 13 10 53 -4 53 15 306 43 567 8 80 17 249 18 375 3 182 7 238 19 270 9 22 16 57 17 77 0 26 10 50 35 82 19 26 35 51 35 56 0 6 11 20 25 32 14 12 25 25 25 30 0 13 -47 9 -53 -5 -7 -19 -86 -71 -95 -62 -4 4 -1 10 7 13 7 2 28 17 45 33 l31 28 -65 0 c-61 0 -68 -3 -116 -42z" />
<ns0:path d="M1095 1559 c-38 -16 -81 -36 -95 -44 -14 -8 -58 -31 -99 -52 -92 -45 -183 -129 -183 -167 0 -55 50 -77 113 -49 27 12 42 25 46 43 7 29 52 79 71 80 7 0 23 11 35 24 13 14 75 52 138 84 119 63 146 92 97 106 -37 9 -49 7 -123 -25z" />
<ns0:path d="M1079 1278 c-39 -44 -39 -68 3 -68 49 0 117 -37 125 -68 5 -22 -1 -32 -38 -64 -61 -53 -152 -95 -221 -101 -56 -5 -57 -5 -67 26 -23 64 -70 86 -104 49 -20 -22 -21 -36 -4 -82 21 -59 45 -96 71 -114 27 -17 76 -22 76 -6 0 5 17 16 38 26 106 46 149 69 168 88 12 11 47 34 78 49 65 33 92 64 100 115 10 63 -5 93 -70 139 -76 53 -113 56 -155 11z" />
</ns0:g>
</g></svg>