<?xml version='1.0' encoding='utf-8'?>
<svg xmlns:ns0="http://www.w3.org/2000/svg" xmlns="http://www.w3.org/2000/svg" width="221" height="122" viewBox="0 0 221 122"><g transform="translate(-1.062110175646012,-99.59859531553366) scale(0.051490927462557866)"><ns0:metadata>
Created by potrace 1.16, written by Peter Selinger 2001-2019
</ns0:metadata>
<ns0:g transform="translate(0.000000,208.000000) scale(0.100000,-0.100000)" fill="#000000" stroke="none">
<ns0:path d="M1135 1490 c-11 -5 -37 -11 -58 -15 -50 -8 -72 -41 -64 -99 4 -24 2 -47 -4 -53 -5 -5 -12 -48 -14 -95 -2 -47 -12 -112 -23 -144 -40 -125 -54 -183 -48 -199 6 -18 69 -47 101 -48 11 0 64 6 119 12 54 7 101 10 104 7 9 -9 -30 -88 -65 -132 -18 -23 -33 -46 -33 -51 0 -6 -19 -26 -42 -46 -24 -19 -56 -47 -73 -63 -46 -42 -116 -84 -143 -84 -59 0 -83 -42 -34 -61 101 -39 305 81 413 242 52 77 70 122 81 201 11 69 10 71 -13 89 -33 26 -91 24 -248 -7 l-34 -7 5 40 c3 22 13 55 21 74 9 19 21 59 27 90 9 49 17 62 58 96 26 21 60 47 77 58 28 18 78 60 136 116 34 32 30 76 -8 85 -19 5 -32 -1 -56 -24 -18 -16 -52 -40 -76 -53 -24 -13 -55 -30 -68 -37 -32 -18 -40 -9 -19 22 16 25 23 97 9 95 -5 0 -17 -4 -28 -9z" />
</ns0:g>
</g><g transform="translate(0.8406454315751262,55.979064371515875) scale(0.051490927462557866)"><ns0:metadata>
Created by potrace 1.16, written by Peter Selinger 2001-2019
</ns0:metadata>
<ns0:g transform="translate(0.000000,217.000000) scale(0.100000,-0.100000)" fill="#000000" stroke="none">
<ns0:path d="M1086 1619 c-14 -11 -38 -24 -53 -30 -32 -11 -73 -65 -73 -97 0 -12 9 -26 20 -32 11 -6 20 -17 20 -24 0 -8 12 -37 26 -64 23 -45 26 -62 27 -163 0 -111 -15 -269 -35 -359 -5 -24 -27 -71 -48 -102 -66 -99 -38 -127 132 -136 153 -8 289 -5 299 5 5 5 6 30 3 56 l-7 47 -76 1 c-131 2 -203 7 -212 16 -5 5 -3 30 6 59 22 71 43 271 47 444 2 51 -12 168 -22 194 -19 50 -12 69 34 99 24 15 67 32 96 37 60 11 70 16 70 35 0 26 -37 35 -134 34 -79 -1 -100 -4 -120 -20z" />
</ns0:g>
</g><g transform="translate(-0.428906517264636,201.66921542207558) scale(0.051490927462557866)"><ns0:metadata>
Created by potrace 1.16, written by Peter Selinger 2001-2019
</ns0:metadata>
<ns0:g transform="translate(0.000000,206.000000) scale(0.100000,-0.100000)" fill="#000000" stroke="none">
<ns0:path d="M988 1436 c-15 -8 -48 -14 -74 -14 -25 0 -51 -5 -56 -10 -6 -6 -17 -59 -24 -119 -8 -59 -23 -135 -34 -168 -22 -70 -41 -285 -30 -341 10 -50 18 -70 48 -118 23 -38 25 -38 73 -34 40 4 61 15 121 61 115 88 187 166 238 261 20 35 21 45 12 115 -20 149 -54 229 -119 275 -24 16 -45 37 -48 45 -4 13 -66 61 -77 61 -2 0 -15 -6 -30 -14z m39 -113 c65 -64 93 -107 117 -180 14 -43 26 -89 26 -102 0 -54 -117 -195 -204 -246 -90 -52 -106 -14 -76 175 12 74 23 146 25 160 8 53 33 142 44 153 6 6 11 21 11 32 0 43 19 45 57 8z" />
</ns0:g>
</g><g transform="translate(-2.6974932350366316,360.7411176451043) scale(0.051490927462557866)"><ns0:metadata>
Created by potrace 1.16, written by Peter Selinger 2001-2019
</ns0:metadata>
<ns0:g transform="translate(0.000000,210.000000) scale(0.100000,-0.100000)" fill="#000000" stroke="none">
<ns0:path d="M756 1009 c-35 -51 -5 -121 57 -133 20 -4 50 0 74 8 37 13 223 15 348 4 l30 -3 -2 63 c-1 35 -3 65 -5 67 -2 1 -112 6 -244 10 l-242 7 -16 -23z" />
</ns0:g>
</g><g transform="translate(-0.12771124098867404,485.73891938409463) scale(0.051490927462557866)"><ns0:metadata>
Created by potrace 1.16, written by Peter Selinger 2001-2019
</ns0:metadata>
<ns0:g transform="translate(0.000000,206.000000) scale(0.100000,-0.100000)" fill="#000000" stroke="none">
<ns0:path d="M1199 1320 c-33 -17 -38 -26 -53 -87 -9 -37 -20 -99 -26 -138 -13 -100 -45 -249 -69 -325 -12 -36 -21 -79 -21 -97 0 -18 -6 -52 -14 -75 -8 -24 -17 -61 -21 -83 -3 -22 -8 -50 -11 -62 -3 -17 2 -23 27 -28 57 -13 78 27 120 230 10 50 27 119 37 155 11 36 30 112 42 170 13 58 29 112 36 120 6 8 15 33 19 55 3 22 14 48 22 57 18 20 13 48 -17 96 -23 37 -23 37 -71 12z" />
</ns0:g>
</g><g transform="translate(2.8148973499708063,626.5318203491169) scale(0.051490927462557866)"><ns0:metadata>
Created by potrace 1.16, written by Peter Selinger 2001-2019
</ns0:metadata>
<ns0:g transform="translate(0.000000,216.000000) scale(0.100000,-0.100000)" fill="#000000" stroke="none">
<ns0:path d="M1175 1549 c-182 -21 -222 -29 -245 -54 -17 -18 -20 -27 -11 -43 14 -27 86 -55 109 -42 28 15 186 50 194 42 4 -4 3 -32 -2 -62 -20 -130 -51 -290 -68 -360 -24 -95 -40 -230 -40 -343 0 -49 -3 -91 -6 -94 -7 -7 -90 -23 -149 -29 -27 -2 -64 -11 -82 -18 -42 -18 -159 -98 -200 -137 -17 -16 -38 -29 -47 -29 -17 0 -32 -26 -22 -41 7 -12 30 -12 52 0 9 5 46 23 82 40 36 17 90 45 120 62 51 29 62 32 155 33 81 1 106 -3 128 -16 37 -25 54 -22 72 11 16 32 16 34 9 224 -5 134 -7 120 56 431 11 55 27 125 35 155 23 91 34 175 28 219 -6 43 -7 43 -83 56 -8 1 -46 -1 -85 -5z" />
</ns0:g>
</g></svg>