<?xml version='1.0' encoding='utf-8'?>
<svg xmlns:ns0="http://www.w3.org/2000/svg" xmlns="http://www.w3.org/2000/svg" width="235" height="121" viewBox="0 0 235 121"><g transform="translate(2.1053431906547644,-45.4760255847946) scale(0.02490501044236066)"><ns0:metadata>
Created by potrace 1.16, written by Peter Selinger 2001-2019
</ns0:metadata>
<ns0:g transform="translate(0.000000,208.000000) scale(0.100000,-0.100000)" fill="#000000" stroke="none">
<ns0:path d="M1168 1441 c-16 -13 -29 -38 -36 -73 -16 -69 -129 -225 -272 -376 -25 -26 -67 -73 -94 -104 -27 -31 -53 -55 -58 -52 -4 3 -8 20 -9 37 0 41 -22 143 -32 153 -4 4 -7 25 -7 47 0 41 -42 141 -78 183 -9 12 -32 24 -50 28 -64 11 -97 -62 -47 -108 13 -13 41 -56 61 -96 37 -76 46 -118 63 -304 9 -108 20 -126 72 -126 20 0 36 11 58 39 17 21 31 42 31 46 0 4 12 19 28 34 40 40 160 175 233 265 35 43 74 90 86 105 l21 26 6 -35 c3 -19 8 -66 12 -105 17 -189 79 -427 124 -475 52 -55 68 -42 95 85 41 184 141 405 250 549 36 47 65 90 65 94 0 4 18 26 40 47 22 21 40 45 40 52 0 8 7 16 15 19 32 13 6 64 -33 64 -17 0 -110 -90 -148 -143 -21 -29 -54 -70 -75 -92 -35 -38 -99 -148 -99 -171 0 -6 -13 -29 -30 -52 -35 -48 -60 -106 -60 -137 0 -23 -35 -62 -43 -48 -6 11 -23 94 -36 178 -6 39 -13 150 -15 247 -6 217 -17 246 -78 199z" />
</ns0:g>
</g><g transform="translate(2.545062649638737,17.05212870704375) scale(0.02490501044236066)"><ns0:metadata>
Created by potrace 1.16, written by Peter Selinger 2001-2019
</ns0:metadata>
<ns0:g transform="translate(0.000000,208.000000) scale(0.100000,-0.100000)" fill="#000000" stroke="none">
<ns0:path d="M1139 1489 c-65 -23 -118 -73 -103 -97 24 -37 53 -42 102 -16 29 16 62 24 92 24 41 0 50 -4 65 -27 26 -39 22 -126 -8 -194 -54 -119 -68 -147 -106 -209 -22 -36 -57 -93 -78 -128 -89 -146 -192 -293 -211 -300 -16 -5 -15 32 2 105 20 86 35 204 42 327 3 60 12 129 20 154 15 44 34 214 27 242 -3 8 -16 23 -29 33 -23 17 -27 17 -49 3 -13 -9 -28 -24 -34 -33 -14 -27 -30 -181 -37 -353 -6 -156 -28 -349 -43 -379 -7 -14 -19 -108 -26 -199 -1 -22 -13 -43 -35 -65 -29 -29 -33 -30 -45 -14 -7 9 -16 17 -20 17 -9 0 -45 -44 -67 -83 -15 -27 -16 -33 -2 -58 33 -65 147 -10 307 149 53 53 131 158 201 270 41 67 68 109 109 174 21 31 37 60 37 65 0 4 15 31 33 58 19 28 41 70 49 95 69 200 78 284 40 361 -25 51 -41 62 -124 82 -52 12 -63 12 -109 -4z" />
</ns0:g>
</g><g transform="translate(-2.9192824593995965,105.70288592140639) scale(0.02490501044236066)"><ns0:metadata>
Created by potrace 1.16, written by Peter Selinger 2001-2019
</ns0:metadata>
<ns0:g transform="translate(0.000000,210.000000) scale(0.100000,-0.100000)" fill="#000000" stroke="none">
<ns0:path d="M653 1020 c-13 -5 -23 -14 -23 -20 0 -20 28 -77 41 -86 33 -21 442 -56 487 -42 41 12 41 33 1 85 -28 36 -35 40 -59 33 -52 -15 -181 -3 -337 31 -51 11 -81 11 -110 -1z" />
</ns0:g>
</g><g transform="translate(0.7855482334796307,166.48309724728426) scale(0.02490501044236066)"><ns0:metadata>
Created by potrace 1.16, written by Peter Selinger 2001-2019
</ns0:metadata>
<ns0:g transform="translate(0.000000,207.000000) scale(0.100000,-0.100000)" fill="#000000" stroke="none">
<ns0:path d="M1467 1412 c-10 -10 -17 -21 -17 -24 0 -10 49 -15 53 -5 2 6 11 6 25 -2 18 -10 22 -9 22 3 0 9 -13 22 -30 31 -36 19 -34 19 -53 -3z" />
<ns0:path d="M840 1261 c0 -6 -7 -11 -15 -11 -31 0 -31 -92 0 -104 9 -3 35 1 58 9 99 34 165 7 152 -63 -21 -114 -213 -390 -300 -431 -44 -21 -115 -92 -115 -115 0 -39 85 -61 111 -29 8 9 42 28 75 44 34 15 65 32 68 38 4 6 20 11 35 11 16 0 46 6 67 14 22 7 81 17 132 21 70 5 95 11 99 23 4 8 -1 20 -11 27 -22 16 -181 27 -229 16 -51 -12 -55 2 -14 52 19 23 37 52 41 64 4 12 21 33 37 47 31 26 81 125 94 184 19 90 -25 182 -96 196 -68 14 -189 19 -189 7z" />
</ns0:g>
</g><g transform="translate(1.6485305072783945,237.69526532568307) scale(0.02490501044236066)"><ns0:metadata>
Created by potrace 1.16, written by Peter Selinger 2001-2019
</ns0:metadata>
<ns0:g transform="translate(0.000000,209.000000) scale(0.100000,-0.100000)" fill="#000000" stroke="none">
<ns0:path d="M1014 1571 c-22 -10 -56 -32 -75 -48 -32 -27 -96 -54 -195 -82 -32 -8 -45 -18 -54 -41 -15 -36 -3 -72 29 -89 16 -9 24 -7 39 9 11 12 43 30 72 41 63 24 79 16 61 -30 -21 -49 -37 -303 -29 -456 3 -77 5 -147 2 -157 -6 -19 -31 -26 -121 -33 -96 -7 -147 -47 -128 -101 16 -44 53 -48 185 -19 63 14 160 27 215 30 146 7 217 16 230 29 37 37 13 101 -33 92 -50 -11 -202 -15 -224 -7 -15 5 -22 17 -23 42 -6 78 -6 359 -1 368 3 5 9 37 12 72 9 95 67 258 102 289 26 22 29 30 25 68 -6 49 -22 53 -89 23z" />
</ns0:g>
</g><g transform="translate(2.178710199513489,302.18501390020214) scale(0.02490501044236066)"><ns0:metadata>
Created by potrace 1.16, written by Peter Selinger 2001-2019
</ns0:metadata>
<ns0:g transform="translate(0.000000,208.000000) scale(0.100000,-0.100000)" fill="#000000" stroke="none">
<ns0:path d="M1070 1577 c-3 -3 -33 -8 -67 -11 -34 -3 -73 -10 -87 -16 -54 -20 -132 -78 -159 -117 -25 -36 -31 -40 -66 -37 -31 2 -44 -3 -63 -23 -19 -21 -23 -34 -21 -82 1 -31 10 -74 18 -95 23 -54 24 -175 3 -271 -10 -44 -21 -132 -24 -195 l-7 -115 -48 -43 c-85 -76 -127 -204 -81 -245 25 -23 80 -21 120 3 18 11 37 20 43 20 18 0 89 60 184 155 99 100 222 268 292 403 25 48 54 96 64 107 10 11 24 38 32 60 82 218 81 217 82 315 0 106 -13 138 -68 167 -30 15 -137 30 -147 20z m114 -120 c24 -33 26 -108 3 -183 -19 -59 -98 -216 -152 -299 -145 -225 -198 -298 -259 -363 -77 -80 -100 -90 -92 -39 3 17 11 79 16 137 6 58 19 157 30 220 10 63 20 162 21 220 3 102 3 105 40 160 21 30 46 65 56 76 32 38 114 77 187 90 101 17 125 14 150 -19z m-591 -1004 c-9 -7 -20 -13 -25 -13 -10 0 -11 32 -1 55 5 15 8 15 24 -6 17 -22 17 -25 2 -36z" />
</ns0:g>
</g><g transform="translate(-1.327142362426116,391.82981402761766) scale(0.02490501044236066)"><ns0:metadata>
Created by potrace 1.16, written by Peter Selinger 2001-2019
</ns0:metadata>
<ns0:g transform="translate(0.000000,210.000000) scale(0.100000,-0.100000)" fill="#000000" stroke="none">
<ns0:path d="M935 1134 c-55 -7 -128 -13 -163 -12 -53 1 -66 -2 -87 -22 -35 -33 -32 -66 8 -90 18 -12 41 -18 52 -15 11 3 70 13 130 21 91 12 121 13 173 3 68 -14 107 -6 126 24 16 24 -2 48 -55 73 -66 32 -76 33 -184 18z" />
</ns0:g>
</g><g transform="translate(-1.6044179264665672,438.6099698643377) scale(0.02490501044236066)"><ns0:metadata>
Created by potrace 1.16, written by Peter Selinger 2001-2019
</ns0:metadata>
<ns0:g transform="translate(0.000000,207.000000) scale(0.100000,-0.100000)" fill="#000000" stroke="none">
<ns0:path d="M1100 1908 c-11 -18 -20 -39 -20 -45 0 -15 -16 -17 -25 -3 -3 6 -22 10 -41 10 -81 0 -105 -44 -92 -170 7 -73 12 -88 34 -106 l26 -21 -63 -56 c-34 -32 -68 -57 -74 -57 -7 0 -19 -10 -28 -22 -8 -13 -18 -20 -22 -16 -12 11 20 196 51 293 23 75 -4 118 -57 91 -31 -15 -67 -117 -79 -224 -5 -48 -16 -110 -24 -137 -26 -90 -25 -156 4 -185 35 -35 62 -25 131 46 35 36 71 73 80 81 46 42 70 63 74 63 2 0 1 -16 -2 -35 -3 -19 -1 -41 5 -48 9 -10 5 -19 -18 -35 -16 -12 -32 -22 -35 -22 -3 0 -42 -27 -85 -60 -43 -33 -82 -60 -86 -60 -7 0 -53 -36 -111 -87 -21 -18 -40 -33 -44 -33 -3 0 -17 -10 -30 -21 -13 -12 -40 -31 -59 -44 -44 -28 -110 -95 -110 -112 0 -22 39 -53 65 -53 16 0 53 24 106 68 44 37 85 69 90 70 14 5 11 -86 -5 -172 -16 -81 -38 -151 -62 -197 -13 -27 -13 -32 3 -59 34 -58 81 -36 139 65 39 69 99 150 159 214 27 29 60 64 72 77 48 51 54 20 24 -116 -11 -47 -27 -110 -36 -140 -24 -80 -33 -143 -34 -243 -1 -81 1 -90 24 -112 33 -34 59 -31 124 12 62 42 191 165 191 181 0 6 15 27 33 46 17 19 42 47 54 63 36 46 44 20 23 -70 -10 -43 -23 -84 -28 -90 -5 -7 -19 -41 -32 -77 -12 -36 -28 -74 -35 -85 -33 -56 -24 -120 19 -131 50 -12 61 6 127 206 34 104 67 190 73 190 6 0 29 -17 51 -38 99 -91 182 -162 191 -162 5 0 20 -14 34 -31 14 -17 45 -44 70 -61 25 -17 49 -36 53 -44 4 -7 36 -35 70 -61 34 -26 74 -60 89 -75 14 -15 32 -28 38 -28 7 0 19 -8 26 -17 12 -16 13 -8 14 54 0 69 -2 75 -31 103 -17 16 -53 44 -80 61 -27 17 -49 35 -49 39 0 4 -26 27 -57 51 -63 47 -260 218 -330 286 -24 22 -43 48 -43 57 0 22 101 313 174 501 24 61 58 153 76 205 18 52 37 100 41 105 4 6 9 30 10 53 3 34 -1 46 -15 54 -27 15 -66 1 -107 -40 -151 -148 -190 -184 -194 -180 -3 3 2 24 10 48 9 24 24 91 35 149 20 114 52 191 94 230 20 19 23 27 15 38 -15 17 -71 17 -114 -1 -50 -21 -59 -42 -101 -256 -15 -76 -31 -135 -54 -195 -21 -56 -201 -427 -211 -435 -4 -3 -14 -23 -23 -45 -18 -41 -57 -105 -66 -105 -3 0 -5 49 -5 108 0 118 -9 142 -52 142 -36 0 -92 -26 -121 -58 -50 -52 -162 -143 -162 -130 0 49 23 194 33 213 17 31 74 95 86 95 5 0 22 15 38 33 15 18 46 44 68 57 22 13 45 29 50 35 21 22 55 75 55 84 0 17 -46 24 -72 10 -22 -11 -22 -11 -7 7 9 10 20 33 23 49 7 30 19 58 57 143 11 24 17 48 13 53 -3 5 1 20 9 32 27 43 83 240 72 258 -4 5 -22 9 -41 9 -28 0 -38 -6 -54 -32z m-44 -140 c-12 -76 -27 -121 -37 -111 -11 11 7 121 23 141 18 21 21 14 14 -30z m606 -442 c-9 -21 -28 -67 -72 -175 -12 -30 -37 -97 -55 -150 -69 -200 -83 -235 -94 -239 -15 -5 -14 28 3 47 15 18 46 106 46 133 0 10 -5 18 -11 18 -15 0 -31 -21 -75 -97 -20 -36 -47 -68 -62 -75 -19 -10 -28 -23 -33 -50 -3 -20 -14 -48 -25 -63 -10 -15 -26 -38 -35 -51 -25 -37 -191 -194 -206 -194 -17 0 -17 36 3 143 17 92 27 107 63 87 14 -7 27 -8 40 -1 17 10 141 191 141 207 0 4 14 29 30 56 17 26 30 54 30 61 0 7 13 28 30 47 16 19 29 41 30 48 0 7 17 29 38 49 20 20 42 47 47 60 16 37 169 193 173 175 2 -8 0 -24 -6 -36z" />
<ns0:path d="M641 1853 c-16 -16 -48 -66 -71 -113 -23 -47 -46 -92 -50 -100 -5 -8 -21 -37 -36 -65 -14 -27 -52 -87 -83 -133 -31 -45 -63 -95 -71 -110 -8 -16 -27 -44 -42 -64 -16 -19 -28 -38 -28 -43 0 -4 -18 -29 -40 -55 -22 -26 -40 -51 -40 -56 0 -4 -15 -22 -33 -39 -17 -17 -48 -52 -67 -79 -19 -26 -45 -57 -58 -70 -19 -19 -23 -31 -20 -72 5 -87 41 -72 166 70 24 27 50 59 59 72 21 32 33 30 33 -6 0 -29 -76 -281 -106 -348 -19 -44 -18 -66 4 -85 25 -23 44 -21 77 5 l28 22 28 -35 c69 -82 80 -250 21 -321 -20 -23 -42 -6 -42 31 0 15 -6 36 -14 46 -13 18 -14 18 -26 -5 -9 -17 -10 -32 -2 -59 6 -20 14 -48 17 -63 7 -37 38 -51 91 -43 52 7 74 37 99 135 29 110 8 240 -53 332 -15 23 -39 61 -53 86 l-27 45 20 66 c45 152 52 238 26 316 -9 27 -5 38 32 99 23 38 46 74 52 80 15 18 98 148 122 190 11 22 37 69 56 105 20 36 59 104 88 150 56 92 62 115 33 131 -32 17 -59 12 -90 -17z" />
</ns0:g>
</g><g transform="translate(-0.8028794298501225,509.55083468967825) scale(0.02490501044236066)"><ns0:metadata>
Created by potrace 1.16, written by Peter Selinger 2001-2019
</ns0:metadata>
<ns0:g transform="translate(0.000000,204.000000) scale(0.100000,-0.100000)" fill="#000000" stroke="none">
<ns0:path d="M936 1781 c-34 -7 -47 -35 -34 -71 12 -31 23 -86 44 -209 15 -90 15 -95 -2 -108 -10 -7 -23 -13 -30 -13 -7 0 -24 -10 -38 -23 -13 -12 -44 -33 -68 -45 -23 -13 -59 -32 -78 -44 -19 -11 -41 -21 -50 -23 -86 -17 -95 -31 -86 -129 4 -39 9 -98 12 -131 3 -33 7 -145 9 -250 4 -210 16 -280 50 -280 14 0 21 8 23 25 5 34 28 58 66 66 17 4 47 15 66 25 36 19 70 25 70 12 0 -5 -9 -86 -21 -182 -21 -167 -22 -175 -5 -206 11 -19 33 -40 54 -49 43 -19 140 -38 153 -31 4 3 17 0 27 -6 12 -7 30 -9 48 -4 16 4 47 8 69 10 119 8 309 56 475 120 19 8 52 20 73 27 56 18 61 34 53 170 -8 144 -40 263 -71 263 -17 0 -21 -10 -27 -70 -4 -38 -6 -109 -3 -157 l4 -87 -52 -29 c-29 -16 -67 -32 -85 -35 -18 -4 -65 -21 -104 -38 -138 -60 -399 -84 -471 -42 -42 25 -55 48 -39 73 6 11 12 48 12 83 0 34 7 87 15 117 9 30 20 73 26 95 15 59 24 62 65 22 43 -42 74 -52 118 -37 67 22 90 96 106 340 31 472 31 474 18 550 -13 73 -14 75 -43 78 -21 2 -58 -11 -117 -42 -98 -51 -89 -56 -108 52 -22 123 -64 226 -90 221 -3 -1 -18 -4 -34 -8z m305 -432 c0 -250 -27 -633 -47 -671 -19 -38 -64 -38 -93 -2 l-20 26 25 40 c34 53 26 69 -28 66 -34 -2 -42 0 -39 12 30 118 32 150 29 358 -1 52 3 87 10 94 7 7 12 29 12 49 0 34 4 39 43 58 23 12 53 30 67 41 14 10 29 15 33 11 5 -5 8 -42 8 -82z m-281 -112 c0 -42 -1 -43 -50 -60 -27 -10 -50 -22 -50 -27 0 -6 16 -41 35 -79 45 -88 49 -159 10 -189 -14 -11 -25 -25 -25 -30 0 -16 -119 -162 -132 -162 -6 0 -17 -8 -25 -17 -12 -16 -13 12 -11 202 3 148 8 227 16 242 6 12 32 32 57 44 25 12 45 26 45 30 0 7 117 89 126 89 2 0 4 -19 4 -43z m-49 -506 c-12 -22 -41 -29 -41 -9 0 6 8 20 17 30 21 24 39 8 24 -21z" />
</ns0:g>
</g><g transform="translate(0.8316618738110151,585.9678206180683) scale(0.02490501044236066)"><ns0:metadata>
Created by potrace 1.16, written by Peter Selinger 2001-2019
</ns0:metadata>
<ns0:g transform="translate(0.000000,211.000000) scale(0.100000,-0.100000)" fill="#000000" stroke="none">
<ns0:path d="M900 2005 c-7 -8 -17 -15 -23 -15 -6 0 -53 -33 -105 -72 -51 -40 -117 -90 -144 -110 -47 -34 -133 -109 -303 -268 -38 -36 -71 -68 -73 -72 -2 -4 -16 -26 -32 -50 -46 -68 -39 -99 27 -111 37 -7 75 18 99 66 9 18 23 39 30 47 8 8 36 40 64 70 27 30 50 58 50 62 0 10 30 38 42 38 7 0 8 -15 4 -42 -22 -148 -48 -353 -52 -408 -3 -36 -9 -92 -14 -125 -5 -33 -12 -91 -15 -130 -5 -67 -5 -71 24 -102 35 -39 50 -40 111 -11 25 12 49 22 54 22 5 1 12 8 15 17 3 8 16 29 29 45 13 16 46 60 73 97 28 38 54 66 57 62 9 -9 3 -317 -9 -420 -5 -49 -15 -107 -21 -128 -10 -34 -14 -38 -36 -32 -23 6 -24 4 -18 -27 5 -30 37 -68 56 -68 13 0 73 45 80 60 4 8 12 25 18 37 13 24 28 207 37 448 3 88 10 198 15 245 5 47 12 141 15 210 4 69 8 150 10 180 18 312 18 319 5 335 -16 19 -59 10 -82 -17 -12 -14 -18 -37 -18 -72 0 -28 -6 -85 -14 -126 -8 -44 -12 -121 -10 -185 1 -60 0 -160 -3 -221 l-6 -110 -103 -109 c-57 -60 -106 -106 -110 -103 -3 4 -1 30 5 58 6 28 11 68 11 88 0 42 13 68 28 58 6 -4 12 16 16 51 3 32 8 79 12 105 5 40 3 48 -14 57 -15 8 -29 8 -48 1 l-27 -11 7 53 c4 29 11 57 16 63 5 6 13 39 19 74 6 39 20 79 36 101 25 37 34 100 14 100 -6 0 -29 -14 -51 -31 -21 -17 -42 -29 -45 -25 -4 3 1 12 9 19 29 21 212 171 229 187 10 8 38 30 63 49 25 18 46 39 46 47 0 7 7 17 17 22 10 6 14 16 10 26 -8 20 -60 21 -77 1z" />
<ns0:path d="M1200 1732 c-41 -36 -44 -42 -48 -100 -4 -60 -4 -62 20 -62 13 0 29 5 36 12 6 6 14 9 17 6 6 -5 -65 -109 -105 -153 -45 -49 -46 -69 -7 -99 27 -21 40 -25 58 -18 34 13 109 23 109 16 0 -4 -14 -23 -31 -43 -17 -20 -43 -55 -57 -78 -15 -23 -66 -82 -115 -132 -48 -49 -87 -98 -87 -108 0 -10 7 -29 16 -42 15 -21 22 -23 66 -18 44 6 49 4 43 -11 -4 -9 -9 -33 -12 -52 -2 -19 -13 -51 -23 -70 -10 -19 -26 -62 -35 -95 -10 -33 -23 -67 -30 -75 -6 -8 -22 -37 -35 -65 -13 -27 -34 -63 -47 -79 -18 -21 -23 -39 -21 -65 3 -35 5 -36 45 -39 40 -3 43 -1 70 40 15 24 45 77 66 118 21 41 42 79 47 83 15 16 79 12 92 -5 7 -9 38 -24 68 -34 52 -16 81 -40 144 -115 23 -28 55 -24 67 8 7 20 7 46 -2 93 -13 68 -29 90 -63 90 -12 0 -54 16 -94 36 -70 35 -76 36 -113 24 -22 -7 -44 -19 -50 -27 -6 -7 -16 -13 -21 -13 -11 0 -4 27 27 95 29 63 75 208 75 233 0 11 9 31 20 45 11 14 20 27 20 29 0 3 18 24 40 48 22 24 40 47 40 53 0 5 9 20 20 34 26 33 25 68 -1 87 -19 13 -20 20 -14 73 5 44 3 62 -7 70 -18 15 -79 22 -104 13 -36 -14 -46 2 -24 38 11 18 24 32 28 32 20 0 62 130 62 191 0 78 -79 94 -150 31z m165 -491 c-9 -18 -20 -29 -26 -26 -10 7 -5 17 20 47 22 25 25 15 6 -21z" />
</ns0:g>
</g><g transform="translate(1.4264262415649682,653.513806290545) scale(0.02490501044236066)"><ns0:metadata>
Created by potrace 1.16, written by Peter Selinger 2001-2019
</ns0:metadata>
<ns0:g transform="translate(0.000000,207.000000) scale(0.100000,-0.100000)" fill="#000000" stroke="none">
<ns0:path d="M1247 1988 c-15 -8 -58 -91 -72 -140 -4 -12 -18 -46 -31 -75 -13 -28 -24 -57 -24 -63 0 -12 -46 -96 -66 -120 -7 -8 -36 -60 -65 -115 -29 -55 -64 -118 -78 -140 -14 -22 -30 -47 -36 -56 -5 -9 -35 -54 -66 -100 -52 -77 -128 -198 -189 -300 -38 -63 -76 -119 -115 -169 -19 -25 -44 -58 -54 -75 -45 -70 -128 -166 -163 -187 -41 -25 -47 -55 -10 -51 35 4 137 75 185 129 24 27 62 77 85 111 23 34 61 82 85 106 23 24 59 71 80 103 20 32 46 70 58 83 l20 24 15 -21 c20 -28 57 -28 97 1 18 12 42 27 54 34 13 6 55 36 95 66 40 30 93 65 118 77 25 13 59 33 76 46 17 13 40 24 51 24 31 0 49 26 32 46 -10 13 -25 15 -67 11 -29 -3 -63 -12 -75 -20 -12 -8 -45 -22 -74 -31 -28 -9 -57 -24 -63 -32 -7 -7 -17 -14 -23 -14 -6 0 -18 -7 -27 -15 -8 -8 -41 -28 -73 -45 -65 -35 -71 -26 -27 39 17 24 30 49 30 56 0 6 12 22 26 36 26 23 104 170 104 195 0 6 14 28 30 49 17 21 30 43 30 50 0 7 7 19 16 26 23 19 64 85 64 103 0 7 9 24 20 37 18 22 21 22 30 7 6 -9 26 -36 45 -60 19 -24 53 -78 75 -120 41 -80 50 -88 68 -65 29 35 2 142 -60 235 -15 24 -32 62 -38 85 -5 23 -17 47 -26 54 -17 12 -17 15 0 62 9 27 16 64 14 82 -3 28 -8 34 -34 40 -18 3 -39 2 -47 -3z" />
<ns0:path d="M1315 886 c-22 -6 -80 -30 -129 -54 -49 -23 -92 -42 -95 -42 -4 0 -21 -15 -39 -34 -37 -39 -42 -80 -13 -96 33 -17 56 -11 112 29 65 46 185 104 198 96 21 -12 -57 -186 -116 -260 -67 -84 -100 -126 -115 -148 -18 -26 -118 -87 -142 -87 -9 0 -16 18 -21 55 -6 52 -26 119 -58 194 -9 20 -13 50 -10 73 5 36 4 38 -23 38 -36 0 -111 -37 -124 -60 -8 -14 -2 -27 25 -60 19 -23 35 -48 35 -55 0 -7 6 -18 14 -24 23 -19 48 -128 44 -195 -2 -50 0 -61 13 -64 9 -2 24 5 33 14 16 15 19 15 40 -5 23 -22 73 -28 104 -12 9 5 56 21 104 36 48 15 93 33 99 41 6 8 15 14 20 14 28 0 142 66 188 109 64 59 61 77 -9 50 -28 -10 -73 -28 -101 -38 -28 -11 -56 -24 -62 -29 -19 -14 -67 -24 -67 -13 0 10 23 38 73 89 12 13 29 36 37 52 8 16 31 53 51 82 47 69 77 202 59 267 -9 33 -15 41 -35 41 -13 0 -29 2 -37 4 -7 2 -31 -2 -53 -8z" />
</ns0:g>
</g><g transform="translate(0.8147084686551125,738.3700005581928) scale(0.02490501044236066)"><ns0:metadata>
Created by potrace 1.16, written by Peter Selinger 2001-2019
</ns0:metadata>
<ns0:g transform="translate(0.000000,214.000000) scale(0.100000,-0.100000)" fill="#000000" stroke="none">
<ns0:path d="M985 1475 c-41 -51 -95 -154 -151 -293 -34 -81 -36 -95 -38 -202 -1 -105 1 -118 22 -147 38 -54 124 -69 267 -48 64 9 95 29 95 60 0 35 -25 40 -170 35 -30 -1 -68 3 -84 9 l-29 12 6 81 c7 81 29 159 54 189 7 8 13 20 13 24 0 8 24 60 102 221 26 53 15 97 -24 102 -19 2 -33 -7 -63 -43z" />
</ns0:g>
</g><g transform="translate(1.3658044507249656,805.2945137242874) scale(0.02490501044236066)"><ns0:metadata>
Created by potrace 1.16, written by Peter Selinger 2001-2019
</ns0:metadata>
<ns0:g transform="translate(0.000000,208.000000) scale(0.100000,-0.100000)" fill="#000000" stroke="none">
<ns0:path d="M912 1298 c-29 -8 -72 -53 -72 -77 0 -10 61 -61 74 -61 4 0 22 12 41 26 24 18 43 24 66 22 48 -5 55 -24 42 -112 -17 -121 -150 -366 -198 -366 -12 0 -24 -9 -102 -76 -48 -40 -56 -79 -25 -107 26 -24 59 -21 96 9 173 141 192 152 346 204 115 39 130 47 130 65 0 27 -86 22 -193 -12 -44 -13 -82 -22 -85 -18 -5 5 19 57 57 125 10 17 23 48 45 102 8 20 17 65 21 101 6 54 4 70 -14 106 -30 58 -72 82 -142 79 -30 -1 -69 -6 -87 -10z" />
</ns0:g>
</g><g transform="translate(-0.49759919938247776,879.2088343954192) scale(0.02490501044236066)"><ns0:metadata>
Created by potrace 1.16, written by Peter Selinger 2001-2019
</ns0:metadata>
<ns0:g transform="translate(0.000000,208.000000) scale(0.100000,-0.100000)" fill="#000000" stroke="none">
<ns0:path d="M985 1344 c-18 -20 -38 -56 -45 -82 -7 -26 -21 -67 -33 -92 -57 -127 -67 -153 -65 -163 1 -7 -2 -36 -6 -65 -14 -90 32 -146 116 -142 65 4 70 -2 44 -52 -18 -34 -29 -85 -21 -97 12 -21 45 7 96 82 32 48 63 83 78 88 15 5 34 14 43 19 10 6 28 10 40 10 12 0 49 9 83 21 66 22 102 61 90 99 -10 31 -36 32 -121 5 -130 -41 -131 -41 -85 101 34 105 80 188 107 193 10 1 34 14 52 28 25 19 32 31 30 51 -3 23 -7 27 -33 25 -145 -10 -156 -15 -186 -81 -36 -80 -79 -213 -95 -291 -8 -41 -16 -76 -18 -78 -8 -9 -63 -10 -84 -2 -21 8 -23 13 -17 52 10 71 109 284 140 301 31 17 42 36 37 66 -4 30 -23 40 -81 40 -26 0 -41 -8 -66 -36z" />
</ns0:g>
</g><g transform="translate(-0.3898033594829826,949.4683463670542) scale(0.02490501044236066)"><ns0:metadata>
Created by potrace 1.16, written by Peter Selinger 2001-2019
</ns0:metadata>
<ns0:g transform="translate(0.000000,211.000000) scale(0.100000,-0.100000)" fill="#000000" stroke="none">
<ns0:path d="M1257 1463 c-6 -16 -14 -30 -17 -33 -5 -5 -39 -56 -82 -125 -13 -22 -37 -67 -52 -100 -16 -33 -36 -78 -47 -100 -10 -22 -26 -65 -34 -97 -20 -71 -37 -88 -54 -52 -6 15 -9 35 -6 45 16 51 -64 285 -122 356 -41 50 -56 57 -100 42 -37 -12 -54 -49 -33 -74 17 -20 80 -146 80 -159 1 -6 9 -29 20 -51 11 -22 19 -49 20 -60 0 -12 4 -25 8 -30 5 -6 14 -35 21 -65 21 -95 32 -134 47 -160 8 -14 20 -37 25 -53 6 -15 21 -30 34 -33 31 -8 65 12 65 37 0 10 11 37 25 59 28 45 46 89 70 175 20 69 44 132 87 225 17 36 35 76 40 90 6 14 14 32 19 40 5 8 11 20 12 25 40 119 40 125 6 125 -12 0 -24 -11 -32 -27z" />
</ns0:g>
</g><g transform="translate(-1.7785090204606604,1009.8606382013802) scale(0.02490501044236066)"><ns0:metadata>
Created by potrace 1.16, written by Peter Selinger 2001-2019
</ns0:metadata>
<ns0:g transform="translate(0.000000,208.000000) scale(0.100000,-0.100000)" fill="#000000" stroke="none">
<ns0:path d="M1139 1489 c-65 -23 -118 -73 -103 -97 24 -37 53 -42 102 -16 29 16 62 24 92 24 41 0 50 -4 65 -27 26 -39 22 -126 -8 -194 -54 -119 -68 -147 -106 -209 -22 -36 -57 -93 -78 -128 -89 -146 -192 -293 -211 -300 -16 -5 -15 32 2 105 20 86 35 204 42 327 3 60 12 129 20 154 15 44 34 214 27 242 -3 8 -16 23 -29 33 -23 17 -27 17 -49 3 -13 -9 -28 -24 -34 -33 -14 -27 -30 -181 -37 -353 -6 -156 -28 -349 -43 -379 -7 -14 -19 -108 -26 -199 -1 -22 -13 -43 -35 -65 -29 -29 -33 -30 -45 -14 -7 9 -16 17 -20 17 -9 0 -45 -44 -67 -83 -15 -27 -16 -33 -2 -58 33 -65 147 -10 307 149 53 53 131 158 201 270 41 67 68 109 109 174 21 31 37 60 37 65 0 4 15 31 33 58 19 28 41 70 49 95 69 200 78 284 40 361 -25 51 -41 62 -124 82 -52 12 -63 12 -109 -4z" />
</ns0:g>
</g><g transform="translate(1.9387687750490272,1092.6720473174073) scale(0.02490501044236066)"><ns0:metadata>
Created by potrace 1.16, written by Peter Selinger 2001-2019
</ns0:metadata>
<ns0:g transform="translate(0.000000,209.000000) scale(0.100000,-0.100000)" fill="#000000" stroke="none">
<ns0:path d="M1120 1493 c-36 -14 -81 -37 -100 -51 -48 -35 -240 -232 -240 -247 0 -6 -16 -27 -36 -46 -39 -37 -81 -120 -90 -178 -3 -20 1 -54 9 -76 12 -35 23 -45 83 -76 104 -53 156 -67 299 -79 72 -6 139 -11 150 -13 39 -4 60 121 29 168 -20 31 -40 32 -50 3 -16 -52 -31 -57 -143 -48 -56 4 -108 13 -114 19 -6 6 -19 11 -28 11 -22 0 -109 57 -116 76 -7 19 15 80 41 112 13 15 26 36 30 48 3 11 17 27 31 34 14 7 27 21 30 31 4 10 39 52 78 93 61 63 82 78 134 95 34 12 73 21 86 21 30 0 74 40 82 73 6 21 2 28 -24 41 -41 22 -65 20 -141 -11z" />
</ns0:g>
</g><g transform="translate(-1.323530120904877,1144.3011436104932) scale(0.02490501044236066)"><ns0:metadata>
Created by potrace 1.16, written by Peter Selinger 2001-2019
</ns0:metadata>
<ns0:g transform="translate(0.000000,201.000000) scale(0.100000,-0.100000)" fill="#000000" stroke="none">
<ns0:path d="M1524 1866 c-32 -32 -34 -39 -34 -97 0 -72 -23 -122 -61 -134 -12 -4 -52 -32 -88 -61 -88 -73 -107 -72 -51 2 59 78 34 93 -74 44 -76 -34 -88 -53 -75 -121 12 -67 13 -66 -43 -103 -78 -52 -124 -96 -147 -143 -27 -55 -27 -60 10 -78 l31 -16 61 58 c34 32 76 69 93 81 l32 22 23 -24 c35 -34 68 -48 95 -42 27 7 30 25 10 64 -7 15 -16 39 -20 55 -6 24 -2 30 29 48 20 12 42 33 50 48 14 28 79 70 91 59 3 -4 1 -21 -5 -39 -6 -18 -11 -44 -11 -59 0 -14 -6 -46 -14 -71 -7 -24 -20 -69 -29 -99 -49 -168 -37 -151 -142 -209 -51 -28 -95 -55 -97 -59 -5 -12 -99 -69 -150 -92 -26 -11 -50 -25 -53 -30 -3 -6 -16 -10 -27 -10 -11 0 -36 -10 -55 -21 l-35 -22 -24 29 c-13 16 -23 32 -24 37 0 4 -5 7 -11 7 -7 0 -17 7 -24 16 -12 17 -25 19 -112 22 l-42 2 27 48 c14 26 47 71 74 100 26 30 48 57 48 62 0 5 13 23 29 41 17 18 49 68 73 111 39 71 78 133 141 225 69 102 97 162 97 213 0 29 -27 60 -51 60 -18 0 -69 -51 -69 -68 0 -18 -50 -123 -80 -167 -15 -22 -52 -85 -84 -140 -68 -120 -120 -192 -241 -341 -27 -34 -66 -81 -85 -105 -19 -24 -56 -77 -82 -117 -26 -41 -60 -88 -75 -106 -42 -45 -93 -122 -93 -139 0 -17 17 -32 46 -41 24 -7 61 24 124 103 128 162 143 174 226 179 52 4 65 1 82 -16 41 -41 48 -112 27 -267 -10 -77 -60 -309 -81 -375 -18 -56 -18 -60 5 -89 15 -20 21 -22 39 -12 27 14 50 57 61 114 5 23 20 85 34 137 14 52 28 113 31 135 3 22 11 76 16 120 15 112 19 126 33 123 14 -3 113 35 172 67 101 54 157 89 162 101 3 8 14 14 25 14 19 0 19 -7 1 -57 -9 -23 27 -14 57 15 17 15 42 51 57 81 34 67 108 123 305 233 16 9 37 24 46 33 10 9 35 27 57 40 22 13 68 40 102 60 76 45 90 60 73 80 -22 26 -80 17 -167 -25 -45 -22 -85 -45 -89 -51 -3 -6 -27 -21 -53 -33 -25 -12 -66 -34 -89 -50 -24 -15 -46 -25 -49 -22 -3 3 6 35 19 73 14 37 33 102 43 143 9 41 23 82 29 90 18 23 48 166 42 197 -4 16 -7 55 -7 88 -1 59 -19 105 -40 105 -6 0 -26 -15 -45 -34z" />
<ns0:path d="M1356 825 c-9 -9 -37 -23 -63 -32 -59 -20 -84 -40 -81 -67 4 -34 -92 -306 -137 -388 -8 -14 -15 -32 -15 -39 0 -7 -22 -58 -49 -113 -46 -95 -81 -174 -81 -182 0 -2 18 -4 39 -4 32 0 43 5 53 24 7 13 29 48 50 78 48 70 170 342 222 493 23 66 54 136 69 156 27 36 35 73 18 84 -5 3 -16 -2 -25 -10z" />
<ns0:path d="M1539 461 c-23 -19 -23 -21 -9 -47 9 -16 41 -41 80 -61 52 -26 77 -33 125 -33 33 0 76 -4 94 -10 38 -11 61 0 61 29 0 32 -26 54 -76 63 -27 5 -62 12 -79 15 -16 3 -50 19 -76 34 -54 34 -88 36 -120 10z" />
</ns0:g>
</g><g transform="translate(-2.591829741218362,1217.8679889118105) scale(0.02490501044236066)"><ns0:metadata>
Created by potrace 1.16, written by Peter Selinger 2001-2019
</ns0:metadata>
<ns0:g transform="translate(0.000000,205.000000) scale(0.100000,-0.100000)" fill="#000000" stroke="none">
<ns0:path d="M653 1874 c-16 -7 -17 -46 -2 -61 21 -21 49 -223 42 -307 l-6 -78 -41 -20 c-73 -35 -84 -43 -126 -99 -48 -64 -56 -90 -41 -127 6 -15 10 -39 9 -52 -2 -14 2 -25 9 -25 10 0 63 68 63 82 0 14 61 80 90 97 l33 19 -7 -59 c-15 -121 -20 -132 -80 -149 -30 -9 -60 -22 -66 -30 -21 -25 -2 -69 45 -105 35 -27 44 -42 44 -65 1 -53 -23 -121 -54 -156 -30 -34 -46 -47 -117 -94 -45 -30 -48 -56 -12 -90 32 -29 37 -30 58 -9 9 8 23 14 32 12 13 -3 16 -28 17 -173 2 -153 4 -174 23 -210 21 -38 99 -105 124 -105 6 0 24 -7 40 -15 41 -21 127 -30 287 -29 97 0 161 6 200 17 32 8 89 21 126 27 38 7 106 28 150 47 45 20 98 41 117 48 33 12 35 16 40 72 6 58 -5 95 -46 163 -8 14 -20 37 -25 53 -6 15 -15 27 -20 27 -5 0 -13 8 -17 18 -15 37 -77 122 -87 119 -18 -6 -17 -46 4 -102 12 -31 21 -66 21 -78 0 -12 7 -35 16 -52 26 -48 42 -111 33 -127 -15 -27 -147 -79 -237 -94 -259 -43 -431 -44 -522 -2 -30 13 -70 41 -88 62 -29 33 -32 44 -34 104 -4 141 0 180 27 240 25 56 29 60 80 76 30 9 57 21 60 26 11 18 34 10 41 -12 8 -26 51 -86 74 -105 26 -21 55 -14 88 20 18 18 32 38 32 44 0 6 6 16 14 22 21 18 57 298 71 566 3 50 10 133 15 185 13 127 16 223 6 238 -8 14 -42 16 -50 3 -3 -4 -27 -16 -53 -26 -26 -10 -55 -24 -64 -31 -8 -8 -54 -29 -101 -48 l-85 -33 -5 137 c-5 127 -7 141 -34 191 -26 48 -33 54 -64 56 -19 1 -41 0 -47 -3z m107 -258 c0 -3 -4 -8 -10 -11 -5 -3 -10 -1 -10 4 0 6 5 11 10 11 6 0 10 -2 10 -4z m297 -153 c-8 -37 -25 -227 -40 -443 l-12 -175 -24 3 c-13 2 -50 -11 -83 -28 -32 -17 -65 -30 -71 -27 -7 3 -21 21 -32 41 l-20 36 25 48 c14 26 30 53 37 60 24 24 15 68 -18 96 -17 14 -34 26 -39 26 -18 0 -18 34 1 142 12 66 27 120 37 131 15 17 26 23 122 65 25 11 54 27 65 36 11 8 28 16 39 16 15 0 17 -5 13 -27z m-289 -690 c2 -15 -4 -23 -18 -28 -28 -9 -32 -3 -24 29 8 32 37 32 42 -1z m232 -13 c0 -22 -4 -48 -9 -58 -5 -9 -13 -35 -18 -56 -10 -51 -26 -55 -63 -18 -45 46 -41 81 14 116 25 15 47 34 50 42 11 28 26 13 26 -26z" />
<ns0:path d="M300 1234 c-15 -38 -12 -82 11 -149 39 -118 45 -160 48 -332 1 -40 5 -53 16 -53 20 0 35 31 52 109 17 77 17 122 3 246 -24 194 -29 205 -91 205 -22 0 -32 -6 -39 -26z" />
</ns0:g>
</g><g transform="translate(0.27721392715801585,1307.9166095071885) scale(0.02490501044236066)"><ns0:metadata>
Created by potrace 1.16, written by Peter Selinger 2001-2019
</ns0:metadata>
<ns0:g transform="translate(0.000000,207.000000) scale(0.100000,-0.100000)" fill="#000000" stroke="none">
<ns0:path d="M1020 1258 c-43 -29 -49 -62 -19 -94 l23 -24 -28 -84 c-15 -46 -38 -98 -51 -117 -36 -47 -33 -63 9 -56 52 8 104 47 121 91 9 21 27 54 40 74 14 20 25 46 25 58 0 12 7 38 15 57 12 30 13 42 2 74 -11 36 -15 38 -57 41 -35 2 -54 -3 -80 -20z" />
</ns0:g>
</g><g transform="translate(0.6817948944030832,1362.4682273311332) scale(0.02490501044236066)"><ns0:metadata>
Created by potrace 1.16, written by Peter Selinger 2001-2019
</ns0:metadata>
<ns0:g transform="translate(0.000000,203.000000) scale(0.100000,-0.100000)" fill="#000000" stroke="none">
<ns0:path d="M1130 2022 c-23 -3 -41 -23 -77 -86 -6 -12 -23 -58 -38 -104 -14 -46 -46 -122 -71 -169 -24 -47 -44 -90 -44 -95 0 -10 -11 -38 -54 -128 -45 -96 -67 -130 -97 -147 -28 -17 -49 -62 -49 -108 0 -22 -80 -115 -98 -115 -8 0 -12 24 -12 73 0 66 16 162 55 337 19 83 19 97 -3 109 -28 15 -71 1 -92 -30 -28 -39 -50 -104 -50 -150 0 -35 -7 -46 -77 -114 -42 -41 -77 -75 -79 -75 -7 0 27 104 62 185 7 17 16 42 19 58 7 26 57 77 76 77 5 0 9 6 9 13 1 6 45 50 99 97 135 116 172 176 123 195 -12 4 -26 -4 -47 -28 -16 -19 -46 -42 -65 -52 -43 -22 -97 -61 -130 -95 l-25 -25 -3 30 c-4 29 7 43 54 71 12 7 15 16 11 29 -6 15 -15 17 -63 12 -83 -9 -98 -22 -117 -111 -9 -42 -17 -87 -17 -100 0 -24 -52 -67 -97 -81 -31 -9 -73 -62 -73 -91 0 -32 42 -74 75 -74 23 0 25 -3 19 -27 -14 -65 -49 -162 -75 -211 -36 -65 -37 -96 -5 -117 37 -24 69 -10 119 53 24 32 65 75 91 96 25 22 46 45 46 51 0 5 9 16 20 23 28 17 32 3 34 -119 l1 -100 -50 -45 c-27 -24 -92 -84 -144 -132 -51 -48 -100 -89 -107 -92 -7 -3 -24 -20 -38 -39 -14 -18 -34 -40 -45 -48 -26 -18 -28 -64 -3 -85 9 -9 32 -19 49 -23 18 -3 33 -11 33 -16 0 -5 6 -9 13 -9 7 0 26 -14 42 -30 16 -17 34 -30 41 -30 6 0 14 -7 18 -15 3 -8 10 -15 16 -15 5 0 -10 38 -35 85 -25 46 -45 91 -45 100 0 17 211 235 227 235 10 0 9 -65 -2 -215 -4 -44 -9 -124 -11 -179 -6 -119 -15 -147 -43 -139 -27 7 -29 -25 -3 -49 9 -9 23 -24 30 -32 17 -22 38 -10 73 41 35 50 41 91 60 398 10 162 14 184 35 218 14 20 27 37 31 37 3 0 2 -26 -2 -57 -9 -73 -14 -183 -19 -393 -3 -91 -9 -181 -15 -200 -15 -46 -14 -87 2 -93 25 -9 55 12 62 45 4 18 14 41 22 50 15 17 20 61 38 371 6 88 10 107 23 107 8 0 23 7 33 16 17 15 19 15 28 -7 19 -49 72 -270 83 -349 21 -140 28 -164 55 -184 26 -19 26 -19 44 3 10 12 21 39 24 59 4 20 10 47 13 59 l7 22 55 -28 c55 -28 118 -45 215 -57 62 -7 107 -18 164 -39 60 -22 106 -17 107 12 1 12 5 30 9 40 4 10 9 128 10 263 4 332 -34 791 -69 845 -20 30 -31 31 -72 6 -26 -16 -32 -26 -32 -58 -1 -61 -101 -305 -144 -351 l-22 -22 -21 26 c-19 24 -24 25 -46 14 -13 -7 -34 -24 -46 -37 -29 -30 -63 -31 -63 0 0 29 45 244 59 279 13 35 3 98 -16 98 -27 0 -71 -39 -126 -113 -69 -90 -189 -217 -206 -217 -8 0 -29 -13 -48 -30 -36 -32 -53 -38 -53 -17 0 20 49 87 64 87 8 0 17 11 20 25 4 14 31 54 61 89 30 35 60 80 68 99 17 40 227 257 249 257 16 0 58 40 58 56 0 5 -12 25 -28 43 -25 30 -31 32 -65 26 -38 -7 -42 -14 -38 -66 1 -19 -7 -33 -34 -53 -20 -16 -38 -26 -41 -24 -2 3 21 59 51 126 30 67 61 144 69 172 8 27 31 81 52 120 20 38 34 76 31 83 -6 17 -32 24 -67 19z m335 -962 c3 -52 11 -126 16 -165 6 -42 7 -159 3 -297 -7 -225 -7 -228 -31 -243 -17 -12 -28 -13 -43 -5 -11 6 -64 13 -117 17 -108 6 -250 45 -260 70 -9 22 16 363 28 385 12 23 70 24 104 2 48 -32 104 1 140 82 9 22 21 47 26 56 5 10 9 22 9 27 0 5 13 38 29 73 16 35 32 74 36 88 4 14 15 36 24 49 l16 24 7 -34 c4 -19 10 -77 13 -129z m-503 -52 c3 -7 3 -30 0 -50 -4 -36 -5 -36 -47 -35 -47 2 -47 2 -1 60 31 39 41 44 48 25z m-16 -240 c-4 -29 -7 -63 -6 -76 0 -39 -18 -15 -29 39 -17 78 -15 89 15 89 26 0 26 -1 20 -52z m449 -448 c3 -5 2 -10 -4 -10 -5 0 -13 5 -16 10 -3 6 -2 10 4 10 5 0 13 -4 16 -10z" />
</ns0:g>
</g><g transform="translate(2.547763661901513,1436.1866062892257) scale(0.02490501044236066)"><ns0:metadata>
Created by potrace 1.16, written by Peter Selinger 2001-2019
</ns0:metadata>
<ns0:g transform="translate(0.000000,207.000000) scale(0.100000,-0.100000)" fill="#000000" stroke="none">
<ns0:path d="M835 1612 c-49 -11 -63 -51 -32 -88 19 -22 32 -26 104 -30 92 -5 206 -31 273 -63 122 -58 175 -97 227 -166 29 -39 56 -79 59 -90 4 -11 18 -38 32 -60 48 -76 77 -301 52 -410 -35 -156 -76 -235 -122 -235 -43 0 1 -106 55 -132 30 -14 37 -15 55 -2 11 7 22 28 25 46 12 71 27 131 41 156 43 81 65 270 46 405 -18 132 -42 201 -104 297 -20 30 -36 60 -36 67 0 7 -6 13 -13 13 -7 0 -21 14 -30 30 -10 17 -21 30 -25 30 -4 0 -27 18 -52 40 -25 22 -48 40 -52 40 -4 0 -31 14 -60 31 -63 37 -189 82 -278 99 -36 6 -69 15 -75 18 -12 8 -63 10 -90 4z" />
<ns0:path d="M1092 1187 c-11 -13 -25 -62 -46 -162 -7 -33 -23 -91 -35 -130 -12 -38 -31 -99 -42 -135 -11 -36 -26 -78 -34 -95 -7 -16 -23 -68 -36 -115 -12 -47 -36 -113 -52 -148 -21 -44 -27 -66 -19 -74 14 -14 76 36 99 82 10 19 28 48 41 63 12 16 22 34 22 42 0 16 28 110 45 150 7 17 20 47 29 68 9 21 16 43 16 50 0 7 16 43 35 80 40 79 53 126 61 232 4 52 2 81 -6 91 -15 17 -64 18 -78 1z" />
</ns0:g>
</g><g transform="translate(0.9373268901375127,1511.232984973382) scale(0.02490501044236066)"><ns0:metadata>
Created by potrace 1.16, written by Peter Selinger 2001-2019
</ns0:metadata>
<ns0:g transform="translate(0.000000,208.000000) scale(0.100000,-0.100000)" fill="#000000" stroke="none">
<ns0:path d="M862 1397 c-24 -13 -29 -23 -42 -94 -4 -26 -13 -61 -18 -78 -6 -16 -16 -86 -23 -154 l-11 -123 24 -25 c31 -31 85 -43 166 -38 80 6 86 -7 38 -77 -20 -29 -54 -78 -74 -108 -21 -30 -58 -75 -82 -100 -25 -25 -53 -54 -62 -65 -9 -11 -24 -26 -33 -33 -37 -31 3 -84 49 -67 30 11 236 211 236 229 0 6 16 31 36 56 49 62 64 102 64 175 0 83 -8 89 -122 86 -141 -3 -143 -2 -106 108 26 80 35 91 96 122 26 13 73 44 105 68 58 45 72 76 44 99 -18 15 -78 -2 -114 -32 -15 -13 -41 -26 -58 -30 -28 -7 -29 -7 -12 12 18 20 23 57 9 66 -20 12 -89 14 -110 3z" />
</ns0:g>
</g><g transform="translate(2.940117812603148,1582.7976177108367) scale(0.02490501044236066)"><ns0:metadata>
Created by potrace 1.16, written by Peter Selinger 2001-2019
</ns0:metadata>
<ns0:g transform="translate(0.000000,211.000000) scale(0.100000,-0.100000)" fill="#000000" stroke="none">
<ns0:path d="M1535 1475 c-22 -25 -68 -73 -103 -107 -35 -35 -68 -72 -75 -84 -7 -12 -58 -82 -114 -155 -232 -305 -276 -359 -291 -359 -10 0 -24 27 -42 80 -18 52 -43 103 -61 125 -10 11 -31 47 -49 80 -46 86 -111 185 -122 185 -5 0 -22 -7 -37 -15 -46 -23 -53 -64 -21 -117 11 -18 20 -38 20 -44 0 -13 78 -134 96 -149 7 -5 35 -55 64 -110 28 -55 55 -104 60 -110 4 -5 11 -24 14 -42 9 -38 48 -83 74 -83 21 0 42 18 42 36 0 11 49 80 225 323 11 15 36 52 56 82 21 30 44 61 53 68 9 7 16 17 16 22 0 9 107 177 140 220 69 89 110 158 110 184 0 25 -14 17 -55 -30z" />
</ns0:g>
</g><g transform="translate(0.5101224739349277,1648.0840611820736) scale(0.02490501044236066)"><ns0:metadata>
Created by potrace 1.16, written by Peter Selinger 2001-2019
</ns0:metadata>
<ns0:g transform="translate(0.000000,212.000000) scale(0.100000,-0.100000)" fill="#000000" stroke="none">
<ns0:path d="M1211 2106 c-6 -7 -44 -27 -83 -45 -40 -17 -86 -39 -103 -48 -16 -9 -55 -30 -85 -46 -30 -16 -80 -44 -111 -63 -31 -19 -61 -34 -66 -34 -6 0 -21 -8 -34 -19 -13 -10 -41 -24 -62 -31 -26 -8 -46 -23 -59 -46 -15 -25 -27 -34 -47 -34 -58 0 -63 -13 -58 -155 6 -161 25 -284 46 -308 15 -18 16 -17 38 10 20 25 23 39 23 130 l0 103 30 -6 c46 -10 97 4 133 35 17 16 50 38 72 50 22 11 58 32 80 46 62 40 226 118 232 111 3 -3 12 -88 19 -188 7 -101 13 -186 13 -190 1 -14 28 -8 43 10 31 37 40 94 35 237 -5 140 6 283 23 316 14 24 24 123 16 153 -5 22 -12 26 -45 26 -21 0 -44 -6 -50 -14z m-35 -167 c-3 -17 -6 -40 -6 -51 0 -14 -22 -30 -82 -59 -46 -23 -99 -49 -118 -59 -19 -10 -69 -31 -110 -47 -41 -15 -86 -37 -100 -49 -14 -11 -45 -26 -70 -34 -25 -8 -48 -19 -52 -25 -5 -6 -8 -3 -8 6 0 9 7 22 15 29 8 7 15 17 15 23 0 14 31 36 51 37 9 0 22 6 28 14 7 8 25 18 41 21 16 3 34 13 42 22 36 44 302 196 352 202 5 1 6 -13 2 -30z" />
<ns0:path d="M997 1487 c-41 -26 -58 -31 -103 -30 -51 1 -58 -1 -95 -37 -22 -21 -56 -46 -74 -55 -59 -27 -95 -64 -95 -96 0 -31 30 -69 55 -69 12 0 15 -16 15 -87 0 -118 -18 -265 -33 -275 -17 -11 -77 -10 -134 2 -88 18 -133 -13 -103 -71 11 -20 16 -21 116 -15 57 4 112 10 121 13 14 5 15 1 10 -29 -4 -30 -1 -40 19 -59 13 -12 24 -26 24 -29 0 -20 -165 -111 -283 -156 -110 -42 -151 -90 -109 -126 34 -30 58 -30 125 2 35 16 68 30 73 30 5 0 41 15 79 34 93 45 161 76 167 76 3 0 23 8 44 17 22 9 48 18 59 20 51 9 102 27 125 43 14 10 40 21 59 25 18 4 52 15 75 25 22 10 79 24 126 30 47 6 112 18 145 26 33 9 127 19 210 24 120 7 152 12 162 26 15 20 -1 51 -32 61 -31 10 -245 6 -290 -5 -41 -11 -80 -16 -195 -28 -36 -3 -89 -14 -118 -25 -29 -11 -70 -23 -90 -29 -20 -5 -70 -21 -111 -35 -40 -14 -75 -24 -77 -22 -2 2 24 33 57 68 74 77 144 159 167 198 42 69 87 121 99 116 8 -2 17 3 20 13 4 9 17 31 30 48 48 64 -7 94 -91 50 -42 -22 -62 -43 -105 -107 -29 -43 -55 -79 -57 -79 -2 0 -2 44 1 97 6 115 -5 163 -39 163 -29 0 -68 -41 -68 -72 0 -13 3 -77 6 -143 4 -66 4 -137 0 -157 -6 -37 -48 -100 -82 -124 -16 -11 -17 -7 -15 54 12 347 28 458 75 518 22 27 111 87 146 98 12 4 22 11 22 16 0 5 12 20 26 33 27 26 30 60 4 64 -8 1 -37 -13 -63 -30z" />
</ns0:g>
</g><g transform="translate(2.233067453668525,1712.6527587902065) scale(0.02490501044236066)"><ns0:metadata>
Created by potrace 1.16, written by Peter Selinger 2001-2019
</ns0:metadata>
<ns0:g transform="translate(0.000000,204.000000) scale(0.100000,-0.100000)" fill="#000000" stroke="none">
<ns0:path d="M1399 1626 c-49 -35 -186 -116 -197 -116 -5 0 -27 -12 -48 -28 -35 -25 -73 -44 -174 -86 -19 -8 -46 -22 -60 -30 -14 -8 -52 -23 -84 -33 -102 -31 -127 -100 -45 -125 38 -11 45 -9 102 20 34 17 78 40 97 51 19 11 61 32 93 47 31 15 57 30 57 34 0 8 97 70 110 70 5 0 29 16 54 35 26 19 50 35 54 35 4 0 31 22 60 49 82 75 67 138 -19 77z" />
<ns0:path d="M1320 1223 c-54 -9 -207 -66 -235 -87 -16 -13 -55 -35 -85 -50 -30 -16 -82 -46 -115 -67 -33 -22 -71 -44 -85 -51 -14 -6 -36 -22 -50 -34 -26 -23 -254 -164 -265 -164 -4 0 -21 -14 -38 -31 -31 -31 -174 -129 -188 -129 -11 0 -49 -69 -49 -88 0 -52 73 -84 102 -44 7 10 36 34 63 54 28 20 65 53 83 72 19 20 40 36 48 36 8 0 14 4 14 10 0 5 17 19 37 30 21 11 56 34 78 51 22 16 58 39 80 51 22 11 45 29 52 38 7 10 26 23 43 30 16 7 30 16 30 21 0 5 10 13 23 18 12 5 59 32 105 60 46 28 86 51 88 51 3 0 20 11 37 24 65 47 67 46 69 -57 4 -263 -1 -454 -14 -497 l-14 -44 -22 58 c-12 32 -22 71 -22 87 0 43 -47 61 -110 43 -48 -14 -117 -79 -147 -138 -8 -17 -30 -47 -48 -66 -40 -43 -109 -172 -119 -220 -7 -40 12 -77 35 -68 8 3 23 23 34 44 11 21 26 45 33 52 6 7 12 20 12 28 0 8 7 17 15 20 8 3 26 26 40 50 14 24 30 44 34 44 5 0 14 13 21 29 6 16 22 39 36 52 13 12 24 28 24 34 0 6 14 21 30 33 l30 23 11 -28 c6 -15 19 -62 29 -103 10 -41 26 -97 35 -125 9 -27 18 -55 20 -60 4 -16 52 -38 69 -32 8 3 18 25 21 51 4 25 11 46 16 46 5 0 9 11 9 25 0 14 11 81 24 148 20 96 26 165 30 326 l5 204 40 41 c50 51 53 76 12 76 -17 0 -32 -4 -35 -8 -4 -7 -32 -8 -56 -2 -7 1 64 36 117 56 44 17 46 17 59 -1 12 -16 17 -17 40 -6 22 10 25 16 19 39 -3 15 -13 33 -22 40 -16 11 -80 14 -133 5z" />
<ns0:path d="M1656 668 c-11 -44 -6 -77 18 -105 19 -23 24 -39 23 -76 -2 -52 11 -72 42 -62 29 9 52 61 58 130 5 55 3 62 -21 84 -14 14 -26 30 -26 38 0 9 -14 13 -44 13 -37 0 -45 -4 -50 -22z" />
</ns0:g>
</g><g transform="translate(-0.5218108914002073,1788.6257803458884) scale(0.02490501044236066)"><ns0:metadata>
Created by potrace 1.16, written by Peter Selinger 2001-2019
</ns0:metadata>
<ns0:g transform="translate(0.000000,208.000000) scale(0.100000,-0.100000)" fill="#000000" stroke="none">
<ns0:path d="M958 1305 c-16 -9 -29 -21 -29 -28 -2 -24 3 -42 17 -58 8 -8 17 -37 20 -62 5 -38 3 -51 -11 -67 -15 -16 -15 -22 -5 -35 12 -15 9 -139 -6 -266 -8 -66 20 -95 103 -108 35 -5 78 -7 98 -4 54 9 45 -21 -27 -90 -73 -69 -172 -147 -186 -147 -6 0 -12 -4 -14 -9 -3 -7 -36 -27 -165 -97 -43 -23 -88 -40 -133 -48 -94 -18 -103 -23 -78 -44 19 -15 209 20 293 55 39 16 95 45 125 64 30 20 70 42 88 49 17 7 32 16 32 21 0 5 5 9 11 9 6 0 29 16 50 35 22 19 45 35 53 35 16 0 65 58 90 107 20 40 22 136 2 152 -14 12 -165 8 -198 -4 -8 -3 -20 1 -27 9 -10 12 -9 39 4 133 17 128 20 132 96 173 20 10 44 31 53 45 9 14 34 33 54 43 57 25 72 42 72 78 0 71 -26 82 -95 39 -50 -30 -63 -31 -67 -2 -3 20 -9 22 -58 23 -30 1 -73 5 -95 8 -27 4 -49 1 -67 -9z m183 -79 c-29 -30 -58 -39 -66 -19 -9 24 14 43 53 43 l35 0 -22 -24z" />
</ns0:g>
</g><g transform="translate(-1.8249552529482571,1867.448599210766) scale(0.02490501044236066)"><ns0:metadata>
Created by potrace 1.16, written by Peter Selinger 2001-2019
</ns0:metadata>
<ns0:g transform="translate(0.000000,206.000000) scale(0.100000,-0.100000)" fill="#000000" stroke="none">
<ns0:path d="M832 1494 c-13 -9 -22 -26 -22 -40 0 -26 -5 -26 -57 -7 -25 10 -43 -44 -53 -157 -5 -63 -17 -158 -26 -210 -37 -223 -43 -284 -33 -329 21 -93 91 -146 174 -130 49 9 156 79 198 129 52 61 65 320 25 491 -12 52 -21 118 -20 148 2 72 -9 88 -63 97 -25 3 -45 10 -45 15 0 15 -54 10 -78 -7z m63 -98 c10 4 15 0 15 -15 0 -12 12 -79 28 -149 30 -141 34 -248 13 -350 -12 -53 -20 -67 -52 -93 -48 -38 -101 -54 -129 -39 -17 9 -20 20 -19 73 0 61 3 81 32 247 8 47 20 137 27 200 14 145 13 142 45 130 13 -5 32 -7 40 -4z" />
</ns0:g>
</g><g transform="translate(0.30055967486003965,1940.4063372370751) scale(0.02490501044236066)"><ns0:metadata>
Created by potrace 1.16, written by Peter Selinger 2001-2019
</ns0:metadata>
<ns0:g transform="translate(0.000000,206.000000) scale(0.100000,-0.100000)" fill="#000000" stroke="none">
<ns0:path d="M1020 1511 c-17 -5 -26 -16 -30 -36 -3 -18 -15 -34 -28 -41 -44 -22 -55 -57 -90 -299 -21 -148 -20 -340 3 -365 8 -9 15 -26 15 -39 0 -12 6 -37 14 -56 19 -46 54 -54 109 -27 23 11 65 24 92 27 62 9 71 16 102 80 79 163 90 203 94 340 6 233 -3 325 -33 325 -6 0 -27 14 -49 31 -21 16 -55 33 -76 36 -21 3 -47 12 -58 19 -21 15 -27 16 -65 5z m115 -114 c60 -34 66 -55 66 -225 0 -142 -11 -210 -40 -246 -5 -6 -14 -29 -21 -50 -19 -58 -62 -96 -109 -96 -37 0 -39 1 -55 53 -17 53 -16 54 18 213 19 87 40 180 46 206 7 26 9 56 5 67 -3 10 -1 22 5 26 5 3 10 22 10 41 0 41 17 44 75 11z" />
</ns0:g>
</g><g transform="translate(2.0905913077403397,2008.0695096954132) scale(0.02490501044236066)"><ns0:metadata>
Created by potrace 1.16, written by Peter Selinger 2001-2019
</ns0:metadata>
<ns0:g transform="translate(0.000000,206.000000) scale(0.100000,-0.100000)" fill="#000000" stroke="none">
<ns0:path d="M832 1494 c-13 -9 -22 -26 -22 -40 0 -26 -5 -26 -57 -7 -25 10 -43 -44 -53 -157 -5 -63 -17 -158 -26 -210 -37 -223 -43 -284 -33 -329 21 -93 91 -146 174 -130 49 9 156 79 198 129 52 61 65 320 25 491 -12 52 -21 118 -20 148 2 72 -9 88 -63 97 -25 3 -45 10 -45 15 0 15 -54 10 -78 -7z m63 -98 c10 4 15 0 15 -15 0 -12 12 -79 28 -149 30 -141 34 -248 13 -350 -12 -53 -20 -67 -52 -93 -48 -38 -101 -54 -129 -39 -17 9 -20 20 -19 73 0 61 3 81 32 247 8 47 20 137 27 200 14 145 13 142 45 130 13 -5 32 -7 40 -4z" />
</ns0:g>
</g><g transform="translate(1.3458391933162375,2076.1611074584857) scale(0.02490501044236066)"><ns0:metadata>
Created by potrace 1.16, written by Peter Selinger 2001-2019
</ns0:metadata>
<ns0:g transform="translate(0.000000,207.000000) scale(0.100000,-0.100000)" fill="#000000" stroke="none">
<ns0:path d="M1045 1611 c-3 -7 -22 -9 -43 -6 -51 8 -84 -12 -94 -55 -4 -19 -14 -55 -22 -80 -8 -25 -24 -79 -36 -120 -40 -138 -58 -184 -129 -332 -39 -81 -71 -150 -71 -153 0 -4 -6 -21 -14 -38 -111 -250 -120 -279 -94 -305 7 -7 26 -12 43 -12 29 0 34 5 57 58 14 31 33 80 42 107 9 28 31 79 49 115 30 60 35 65 77 76 26 6 58 19 72 28 17 11 35 15 52 10 20 -5 26 -2 26 10 0 17 86 62 139 72 27 6 30 4 35 -27 3 -19 13 -74 22 -124 20 -117 27 -251 13 -293 -22 -67 58 -156 96 -106 33 43 -1 418 -58 634 -23 86 -42 138 -120 323 -25 59 -29 129 -8 150 17 17 13 42 -8 61 -12 11 -21 14 -26 7z m3 -396 c22 -49 43 -104 47 -122 7 -35 19 -29 -130 -69 -113 -30 -115 -30 -115 2 0 16 12 52 25 79 14 28 25 55 25 61 0 13 35 88 62 132 26 43 32 37 86 -83z" />
</ns0:g>
</g><g transform="translate(2.550134059063055,2156.218503400772) scale(0.02490501044236066)"><ns0:metadata>
Created by potrace 1.16, written by Peter Selinger 2001-2019
</ns0:metadata>
<ns0:g transform="translate(0.000000,207.000000) scale(0.100000,-0.100000)" fill="#000000" stroke="none">
<ns0:path d="M1030 1132 c-44 -22 -49 -45 -14 -77 21 -20 29 -39 36 -87 8 -58 7 -64 -22 -108 -30 -47 -38 -80 -20 -80 18 0 65 25 86 45 11 11 28 25 37 30 21 12 42 150 32 204 -8 42 -31 71 -56 71 -10 0 -21 5 -24 10 -8 14 -14 13 -55 -8z" />
</ns0:g>
</g><g transform="translate(-2.389956418226575,2212.2129495222302) scale(0.02490501044236066)"><ns0:metadata>
Created by potrace 1.16, written by Peter Selinger 2001-2019
</ns0:metadata>
<ns0:g transform="translate(0.000000,215.000000) scale(0.100000,-0.100000)" fill="#000000" stroke="none">
<ns0:path d="M1309 1852 c-13 -10 -44 -26 -69 -37 -25 -10 -52 -24 -60 -30 -8 -6 -53 -31 -100 -55 -129 -66 -172 -89 -185 -100 -7 -6 -34 -22 -61 -36 -26 -14 -95 -57 -153 -95 -58 -38 -109 -69 -113 -69 -14 0 -8 -67 7 -80 18 -15 95 -25 128 -16 19 4 26 15 31 41 8 39 4 36 219 177 56 36 106 63 111 58 4 -4 1 -32 -7 -62 -19 -65 -34 -189 -47 -373 -12 -169 -23 -263 -43 -370 -8 -44 -25 -136 -37 -205 -34 -191 -21 -175 -158 -190 -64 -7 -121 -17 -126 -21 -17 -15 -36 -10 -36 9 0 15 29 129 59 227 5 17 21 73 36 125 15 52 38 118 52 146 30 62 28 85 -12 96 -39 10 -104 -19 -105 -46 0 -11 -7 -42 -15 -70 -8 -28 -28 -109 -46 -181 -17 -71 -39 -157 -49 -190 -11 -33 -24 -87 -31 -120 -6 -33 -20 -71 -30 -84 -54 -69 30 -136 101 -81 14 11 32 20 41 20 9 0 19 3 22 7 4 3 30 15 59 25 55 19 98 23 98 10 0 -5 6 -16 13 -26 12 -16 17 -17 37 -6 13 7 31 22 40 32 11 14 36 22 85 28 66 8 284 20 385 22 68 1 88 12 96 52 3 20 3 48 0 62 -7 28 -21 29 -126 6 -51 -12 -336 -26 -349 -18 -10 6 11 94 34 139 8 17 26 92 39 167 32 179 45 209 107 251 28 19 59 39 70 44 21 11 35 47 24 64 -8 13 -48 14 -60 2 -6 -5 -27 -13 -47 -16 l-38 -7 5 58 c3 33 10 111 15 175 11 144 47 262 93 308 18 17 64 61 103 98 79 75 98 104 89 133 -8 26 -63 27 -96 2z" />
</ns0:g>
</g><g transform="translate(1.8394774830095457,2283.2901597025984) scale(0.02490501044236066)"><ns0:metadata>
Created by potrace 1.16, written by Peter Selinger 2001-2019
</ns0:metadata>
<ns0:g transform="translate(0.000000,206.000000) scale(0.100000,-0.100000)" fill="#000000" stroke="none">
<ns0:path d="M655 2010 c-7 -11 -27 -96 -46 -200 -11 -58 -47 -174 -70 -225 -7 -16 -31 -54 -52 -83 -21 -29 -41 -70 -44 -90 -8 -52 -23 -79 -34 -61 -4 7 -9 11 -11 9 -74 -100 -76 -160 -6 -143 61 16 139 106 213 248 52 101 68 121 99 131 11 4 33 16 48 27 52 39 49 6 -14 -133 -51 -114 -89 -182 -129 -233 -21 -27 -39 -53 -39 -59 0 -5 -7 -16 -15 -25 -12 -12 -19 -12 -30 -3 -22 18 -82 4 -100 -24 -10 -15 -14 -36 -10 -62 23 -175 22 -281 -1 -325 -18 -36 -18 -68 1 -75 24 -10 80 22 94 53 15 31 40 218 41 299 0 42 5 55 28 76 15 14 38 28 52 31 14 4 45 25 70 47 25 23 70 54 100 70 75 39 181 108 263 170 38 29 71 50 74 46 8 -7 -32 -231 -67 -376 -10 -41 -21 -97 -25 -125 -3 -27 -10 -59 -15 -70 -15 -33 -40 -115 -40 -129 0 -8 -7 -19 -15 -26 -19 -16 -19 -44 1 -60 20 -18 30 -7 94 105 41 71 58 114 80 205 43 178 68 295 89 415 10 61 24 122 30 137 6 17 8 50 3 85 -9 78 -30 81 -97 16 -28 -26 -72 -65 -100 -85 -27 -20 -56 -42 -64 -49 -37 -32 -103 -79 -133 -95 -18 -9 -41 -23 -50 -32 -24 -21 -23 -1 3 50 11 22 29 66 39 97 10 31 25 73 34 93 23 53 22 174 -1 187 -22 12 -47 2 -119 -49 -57 -40 -59 -41 -62 -19 -2 13 4 48 13 79 13 42 14 70 8 120 l-8 65 -37 3 c-20 2 -39 -2 -43 -8z" />
<ns0:path d="M884 1203 c-12 -2 -39 -19 -60 -37 -35 -30 -38 -38 -50 -117 -18 -117 -39 -215 -62 -285 -34 -104 -163 -369 -209 -430 -13 -17 -23 -36 -23 -42 0 -6 -18 -26 -41 -45 -80 -69 -18 -108 67 -42 70 52 105 98 164 212 53 101 70 117 70 65 1 -15 9 -37 19 -49 16 -19 159 -93 181 -93 5 0 50 -14 99 -30 88 -30 108 -30 139 -5 1 1 -2 13 -9 26 -16 35 -117 104 -171 117 -25 6 -79 32 -119 57 -41 25 -85 45 -101 45 -34 0 -34 1 -7 70 11 30 34 100 50 155 16 55 34 114 39 130 5 17 11 46 14 65 7 56 17 91 48 158 15 35 28 68 28 73 0 9 -26 10 -66 2z" />
</ns0:g>
</g><g transform="translate(-0.5246510968152052,2354.868007481269) scale(0.02490501044236066)"><ns0:metadata>
Created by potrace 1.16, written by Peter Selinger 2001-2019
</ns0:metadata>
<ns0:g transform="translate(0.000000,213.000000) scale(0.100000,-0.100000)" fill="#000000" stroke="none">
<ns0:path d="M1115 2121 c-7 -12 -125 -91 -134 -91 -4 0 -18 -11 -31 -25 -13 -14 -28 -25 -32 -25 -5 0 -29 -13 -53 -30 -24 -16 -48 -30 -53 -30 -5 0 -40 -24 -78 -53 -79 -61 -93 -94 -51 -122 32 -21 64 -12 104 29 18 17 45 39 60 47 15 7 38 23 51 35 13 11 41 32 64 45 22 13 61 40 86 59 66 50 103 72 109 67 2 -3 -5 -56 -16 -118 -23 -127 -26 -220 -10 -336 12 -86 20 -103 43 -84 21 17 37 97 46 231 8 106 40 273 61 311 4 9 12 35 18 58 l9 41 -93 0 c-52 0 -96 -4 -100 -9z" />
<ns0:path d="M435 1727 c-14 -11 -16 -21 -11 -53 4 -21 16 -55 26 -74 9 -19 29 -57 43 -85 26 -51 50 -134 61 -214 5 -33 3 -48 -10 -62 -15 -17 -15 -21 -1 -42 13 -21 53 -37 89 -37 5 0 50 41 99 90 49 50 93 90 98 90 5 0 11 6 14 13 2 7 25 23 51 36 25 13 48 32 51 41 3 9 17 22 32 29 45 21 103 72 103 91 0 36 -39 34 -98 -6 -79 -52 -123 -79 -153 -95 -51 -28 -93 -55 -123 -79 -17 -14 -43 -33 -58 -43 l-26 -16 1 67 c1 37 -3 92 -7 122 -9 55 -79 218 -100 232 -18 12 -61 9 -81 -5z" />
<ns0:path d="M945 1729 c-65 -22 -133 -55 -203 -99 -65 -41 -72 -48 -70 -74 2 -17 13 -37 29 -48 24 -18 29 -18 74 -5 47 13 58 22 69 58 4 17 103 85 168 117 47 24 46 56 -2 59 -19 1 -48 -3 -65 -8z" />
<ns0:path d="M940 1273 c-50 -9 -61 -30 -54 -102 3 -36 12 -93 19 -126 7 -33 16 -92 20 -131 l7 -71 -63 -89 c-105 -150 -123 -162 -114 -73 5 56 20 89 38 89 19 0 87 59 87 76 0 18 -9 18 -55 -2 -42 -17 -70 -12 -61 12 3 9 11 67 16 129 9 98 15 123 43 178 36 70 33 97 -12 97 -35 0 -108 -80 -114 -126 -3 -21 -10 -61 -17 -89 -6 -27 -14 -97 -18 -155 l-7 -105 -29 -3 c-16 -2 -39 -9 -50 -17 -12 -7 -43 -15 -69 -19 -64 -8 -87 -21 -87 -51 0 -17 9 -29 30 -40 32 -16 60 -20 60 -7 0 8 19 14 116 38 20 5 23 1 29 -48 3 -29 9 -61 11 -70 9 -30 -46 -76 -107 -92 -118 -30 -155 -72 -108 -122 25 -26 54 -30 109 -13 19 5 49 12 65 14 17 2 64 13 105 25 52 15 92 20 130 17 30 -2 69 0 85 5 17 4 53 11 80 14 28 3 79 9 115 14 157 22 287 30 336 20 116 -24 116 -24 130 -5 18 24 18 95 2 96 -90 7 -129 8 -218 9 -58 0 -172 -7 -255 -15 -82 -8 -198 -18 -258 -22 -97 -5 -107 -4 -101 10 7 20 102 80 128 81 13 1 31 24 58 74 21 40 49 90 63 110 14 20 25 44 25 53 0 10 22 33 48 53 26 19 77 68 112 108 34 40 76 81 91 90 31 19 48 63 31 80 -8 8 -30 3 -77 -17 -53 -23 -84 -46 -150 -114 -47 -46 -87 -82 -91 -78 -3 3 -9 55 -12 115 -4 93 -2 113 13 136 16 23 16 29 4 41 -18 17 -47 23 -79 18z m95 -793 c3 -5 1 -10 -4 -10 -6 0 -11 5 -11 10 0 6 2 10 4 10 3 0 8 -4 11 -10z" />
</ns0:g>
</g><g transform="translate(2.3384263360796353,2424.523975897981) scale(0.02490501044236066)"><ns0:metadata>
Created by potrace 1.16, written by Peter Selinger 2001-2019
</ns0:metadata>
<ns0:g transform="translate(0.000000,205.000000) scale(0.100000,-0.100000)" fill="#000000" stroke="none">
<ns0:path d="M1255 1613 c-11 -2 -29 -8 -40 -13 -11 -5 -31 -14 -45 -20 -14 -6 -45 -24 -70 -40 -68 -45 -191 -107 -227 -114 -17 -4 -37 -13 -43 -21 -6 -8 -34 -21 -61 -30 -60 -20 -169 -98 -170 -122 -2 -32 2 -48 19 -67 31 -33 144 -6 168 41 16 34 156 132 187 133 10 0 33 11 51 25 18 13 50 32 71 41 22 9 51 25 65 36 57 44 106 71 135 73 16 2 33 3 38 4 9 1 9 43 1 65 -6 16 -35 19 -79 9z" />
<ns0:path d="M1275 1208 c-27 -11 -57 -25 -65 -33 -8 -7 -62 -36 -120 -64 -58 -28 -130 -67 -160 -86 -30 -19 -61 -34 -67 -35 -7 0 -13 -4 -13 -10 0 -21 -320 -200 -358 -200 -6 0 -38 -26 -72 -58 -42 -41 -60 -66 -60 -84 0 -31 28 -58 62 -58 23 0 98 46 112 69 7 10 34 28 221 141 41 25 107 68 147 95 104 71 127 82 138 66 4 -8 11 -62 14 -120 6 -83 3 -131 -13 -225 -11 -65 -26 -125 -32 -132 -13 -16 -39 -19 -39 -4 0 5 -13 30 -29 56 -17 25 -33 60 -37 77 -9 41 -30 56 -77 57 -41 0 -77 -14 -90 -36 -4 -8 -14 -14 -20 -14 -22 0 -200 -182 -268 -274 -86 -115 -92 -126 -80 -152 18 -40 52 -31 106 28 26 29 57 71 68 95 12 24 25 43 29 43 13 0 150 130 171 162 16 24 42 40 72 43 18 2 35 -17 61 -69 14 -28 31 -56 38 -61 18 -14 56 -82 56 -99 0 -14 30 -26 67 -26 23 0 43 26 43 57 0 10 12 43 26 73 37 80 59 243 55 413 -3 114 0 142 13 162 9 14 23 25 31 25 10 0 15 10 15 28 0 20 9 33 38 51 108 71 113 74 110 95 -4 28 -31 29 -93 4z" />
<ns0:path d="M1313 645 c-25 -11 -33 -20 -33 -40 0 -38 34 -81 70 -88 17 -4 33 -15 36 -24 26 -76 39 -87 67 -55 21 24 22 39 8 104 -11 51 -17 61 -57 88 -51 34 -48 34 -91 15z" />
</ns0:g>
</g><g transform="translate(2.780735634382552,2504.9614925747583) scale(0.02490501044236066)"><ns0:metadata>
Created by potrace 1.16, written by Peter Selinger 2001-2019
</ns0:metadata>
<ns0:g transform="translate(0.000000,206.000000) scale(0.100000,-0.100000)" fill="#000000" stroke="none">
<ns0:path d="M846 1516 c-7 -6 -17 -24 -20 -40 -10 -42 14 -70 76 -91 113 -36 145 -88 133 -214 -14 -142 -60 -244 -146 -328 -35 -34 -80 -73 -99 -86 -59 -39 -160 -140 -160 -159 0 -26 36 -58 64 -58 16 0 44 20 82 58 33 31 88 82 123 112 145 124 182 176 212 297 23 97 25 249 4 319 -18 58 -56 104 -105 129 -19 9 -48 27 -65 40 -36 27 -80 36 -99 21z" />
</ns0:g>
</g></svg>