<?xml version='1.0' encoding='utf-8'?>
<svg xmlns:ns0="http://www.w3.org/2000/svg" xmlns="http://www.w3.org/2000/svg" width="235" height="121" viewBox="0 0 235 121"><g transform="translate(-1.8866389355185902,-90.21067683036685) scale(0.051068870680077885)"><ns0:metadata>
Created by potrace 1.16, written by Peter Selinger 2001-2019
</ns0:metadata>
<ns0:g transform="translate(0.000000,207.000000) scale(0.100000,-0.100000)" fill="#000000" stroke="none">
<ns0:path d="M514 1367 c-27 -18 -60 -38 -74 -44 -62 -29 -124 -53 -136 -53 -8 0 -21 -17 -30 -37 -15 -36 -15 -40 3 -73 22 -43 55 -50 94 -21 35 26 44 26 76 2 30 -24 51 -18 60 18 8 31 30 50 59 51 47 0 39 -78 -12 -116 -44 -34 -59 -81 -41 -125 13 -31 12 -37 -10 -71 -19 -28 -22 -41 -14 -56 12 -23 46 -46 80 -55 30 -7 81 46 116 121 33 71 59 81 188 75 53 -3 97 -9 97 -14 0 -11 -106 -167 -134 -198 -11 -12 -42 -41 -68 -63 -41 -34 -59 -41 -133 -55 -68 -12 -85 -19 -85 -33 0 -22 37 -30 135 -30 117 0 131 6 214 87 41 40 84 91 96 112 11 22 41 70 66 108 50 74 72 160 47 180 -7 6 -78 11 -162 11 -96 0 -153 5 -160 12 -6 6 -11 45 -11 90 -1 90 -17 122 -74 152 -18 9 -40 26 -48 37 -22 33 -80 28 -139 -12z" />
</ns0:g>
</g><g transform="translate(1.0144306054934304,57.29878466616782) scale(0.051068870680077885)"><ns0:metadata>
Created by potrace 1.16, written by Peter Selinger 2001-2019
</ns0:metadata>
<ns0:g transform="translate(0.000000,219.000000) scale(0.100000,-0.100000)" fill="#000000" stroke="none">
<ns0:path d="M1059 1625 c-3 -2 -31 -7 -63 -10 -89 -8 -143 -59 -121 -112 23 -53 42 -239 34 -328 -19 -199 -51 -308 -127 -424 -23 -36 -42 -69 -42 -73 0 -15 39 -47 66 -54 14 -4 35 -2 47 4 19 9 82 19 246 38 24 3 55 10 68 15 13 5 35 9 47 9 27 0 112 -36 121 -50 8 -13 62 -13 71 1 3 6 17 8 31 5 23 -6 24 -6 7 19 -9 14 -21 25 -27 25 -5 0 -24 15 -42 33 -18 18 -50 38 -71 44 -44 13 -252 14 -260 1 -3 -4 -28 -8 -56 -8 l-51 0 7 43 c4 23 14 56 22 72 8 17 19 64 24 105 5 41 12 100 16 130 3 30 7 131 8 225 l1 170 69 22 c50 16 73 20 82 12 12 -10 45 -7 96 7 16 5 17 8 3 34 -8 15 -28 33 -46 39 -31 11 -151 16 -160 6z" />
<ns0:path d="M1370 1530 c0 -5 5 -10 10 -10 6 0 10 5 10 10 0 6 -4 10 -10 10 -5 0 -10 -4 -10 -10z" />
</ns0:g>
</g><g transform="translate(-2.4513347775960597,200.63604055706486) scale(0.051068870680077885)"><ns0:metadata>
Created by potrace 1.16, written by Peter Selinger 2001-2019
</ns0:metadata>
<ns0:g transform="translate(0.000000,206.000000) scale(0.100000,-0.100000)" fill="#000000" stroke="none">
<ns0:path d="M1020 1511 c-17 -5 -26 -16 -30 -36 -3 -18 -15 -34 -28 -41 -44 -22 -55 -57 -90 -299 -21 -148 -20 -340 3 -365 8 -9 15 -26 15 -39 0 -12 6 -37 14 -56 19 -46 54 -54 109 -27 23 11 65 24 92 27 62 9 71 16 102 80 79 163 90 203 94 340 6 233 -3 325 -33 325 -6 0 -27 14 -49 31 -21 16 -55 33 -76 36 -21 3 -47 12 -58 19 -21 15 -27 16 -65 5z m115 -114 c60 -34 66 -55 66 -225 0 -142 -11 -210 -40 -246 -5 -6 -14 -29 -21 -50 -19 -58 -62 -96 -109 -96 -37 0 -39 1 -55 53 -17 53 -16 54 18 213 19 87 40 180 46 206 7 26 9 56 5 67 -3 10 -1 22 5 26 5 3 10 22 10 41 0 41 17 44 75 11z" />
</ns0:g>
</g><g transform="translate(-0.1067879519117696,359.67232936254356) scale(0.051068870680077885)"><ns0:metadata>
Created by potrace 1.16, written by Peter Selinger 2001-2019
</ns0:metadata>
<ns0:g transform="translate(0.000000,210.000000) scale(0.100000,-0.100000)" fill="#000000" stroke="none">
<ns0:path d="M653 1020 c-13 -5 -23 -14 -23 -20 0 -20 28 -77 41 -86 33 -21 442 -56 487 -42 41 12 41 33 1 85 -28 36 -35 40 -59 33 -52 -15 -181 -3 -337 31 -51 11 -81 11 -110 -1z" />
</ns0:g>
</g><g transform="translate(-1.5672913101094537,484.966082947264) scale(0.051068870680077885)"><ns0:metadata>
Created by potrace 1.16, written by Peter Selinger 2001-2019
</ns0:metadata>
<ns0:g transform="translate(0.000000,205.000000) scale(0.100000,-0.100000)" fill="#000000" stroke="none">
<ns0:path d="M802 1318 c-45 -67 -75 -135 -68 -153 5 -14 9 -15 21 -5 12 10 15 10 15 -3 0 -9 -4 -27 -10 -41 -5 -14 -16 -76 -25 -138 -17 -125 -33 -223 -41 -251 -5 -15 -8 -16 -20 -6 -29 24 -38 -4 -24 -78 21 -111 57 -151 107 -118 25 17 27 22 42 145 23 192 62 413 78 443 9 18 20 52 24 77 4 25 10 62 14 82 4 20 5 48 1 62 -5 22 -12 26 -46 26 -35 0 -42 -5 -68 -42z" />
</ns0:g>
</g><g transform="translate(-0.8258195433426749,622.4479324692019) scale(0.051068870680077885)"><ns0:metadata>
Created by potrace 1.16, written by Peter Selinger 2001-2019
</ns0:metadata>
<ns0:g transform="translate(0.000000,216.000000) scale(0.100000,-0.100000)" fill="#000000" stroke="none">
<ns0:path d="M1175 1549 c-182 -21 -222 -29 -245 -54 -17 -18 -20 -27 -11 -43 14 -27 86 -55 109 -42 28 15 186 50 194 42 4 -4 3 -32 -2 -62 -20 -130 -51 -290 -68 -360 -24 -95 -40 -230 -40 -343 0 -49 -3 -91 -6 -94 -7 -7 -90 -23 -149 -29 -27 -2 -64 -11 -82 -18 -42 -18 -159 -98 -200 -137 -17 -16 -38 -29 -47 -29 -17 0 -32 -26 -22 -41 7 -12 30 -12 52 0 9 5 46 23 82 40 36 17 90 45 120 62 51 29 62 32 155 33 81 1 106 -3 128 -16 37 -25 54 -22 72 11 16 32 16 34 9 224 -5 134 -7 120 56 431 11 55 27 125 35 155 23 91 34 175 28 219 -6 43 -7 43 -83 56 -8 1 -46 -1 -85 -5z" />
</ns0:g>
</g></svg>