<?xml version='1.0' encoding='utf-8'?>
<svg xmlns:ns0="http://www.w3.org/2000/svg" xmlns="http://www.w3.org/2000/svg" width="235" height="121" viewBox="0 0 235 121"><g transform="translate(0.30935081316937385,-106.94846911336816) scale(0.051068870680077885)"><ns0:metadata>
Created by potrace 1.16, written by Peter Selinger 2001-2019
</ns0:metadata>
<ns0:g transform="translate(0.000000,208.000000) scale(0.100000,-0.100000)" fill="#000000" stroke="none">
<ns0:path d="M958 1305 c-16 -9 -29 -21 -29 -28 -2 -24 3 -42 17 -58 8 -8 17 -37 20 -62 5 -38 3 -51 -11 -67 -15 -16 -15 -22 -5 -35 12 -15 9 -139 -6 -266 -8 -66 20 -95 103 -108 35 -5 78 -7 98 -4 54 9 45 -21 -27 -90 -73 -69 -172 -147 -186 -147 -6 0 -12 -4 -14 -9 -3 -7 -36 -27 -165 -97 -43 -23 -88 -40 -133 -48 -94 -18 -103 -23 -78 -44 19 -15 209 20 293 55 39 16 95 45 125 64 30 20 70 42 88 49 17 7 32 16 32 21 0 5 5 9 11 9 6 0 29 16 50 35 22 19 45 35 53 35 16 0 65 58 90 107 20 40 22 136 2 152 -14 12 -165 8 -198 -4 -8 -3 -20 1 -27 9 -10 12 -9 39 4 133 17 128 20 132 96 173 20 10 44 31 53 45 9 14 34 33 54 43 57 25 72 42 72 78 0 71 -26 82 -95 39 -50 -30 -63 -31 -67 -2 -3 20 -9 22 -58 23 -30 1 -73 5 -95 8 -27 4 -49 1 -67 -9z m183 -79 c-29 -30 -58 -39 -66 -19 -9 24 14 43 53 43 l35 0 -22 -24z" />
</ns0:g>
</g><g transform="translate(0.018799860604190144,57.89016811438506) scale(0.051068870680077885)"><ns0:metadata>
Created by potrace 1.16, written by Peter Selinger 2001-2019
</ns0:metadata>
<ns0:g transform="translate(0.000000,206.000000) scale(0.100000,-0.100000)" fill="#000000" stroke="none">
<ns0:path d="M988 1436 c-15 -8 -48 -14 -74 -14 -25 0 -51 -5 -56 -10 -6 -6 -17 -59 -24 -119 -8 -59 -23 -135 -34 -168 -22 -70 -41 -285 -30 -341 10 -50 18 -70 48 -118 23 -38 25 -38 73 -34 40 4 61 15 121 61 115 88 187 166 238 261 20 35 21 45 12 115 -20 149 -54 229 -119 275 -24 16 -45 37 -48 45 -4 13 -66 61 -77 61 -2 0 -15 -6 -30 -14z m39 -113 c65 -64 93 -107 117 -180 14 -43 26 -89 26 -102 0 -54 -117 -195 -204 -246 -90 -52 -106 -14 -76 175 12 74 23 146 25 160 8 53 33 142 44 153 6 6 11 21 11 32 0 43 19 45 57 8z" />
</ns0:g>
</g><g transform="translate(0.4559574543468443,201.16881475477834) scale(0.051068870680077885)"><ns0:metadata>
Created by potrace 1.16, written by Peter Selinger 2001-2019
</ns0:metadata>
<ns0:g transform="translate(0.000000,219.000000) scale(0.100000,-0.100000)" fill="#000000" stroke="none">
<ns0:path d="M1059 1625 c-3 -2 -31 -7 -63 -10 -89 -8 -143 -59 -121 -112 23 -53 42 -239 34 -328 -19 -199 -51 -308 -127 -424 -23 -36 -42 -69 -42 -73 0 -15 39 -47 66 -54 14 -4 35 -2 47 4 19 9 82 19 246 38 24 3 55 10 68 15 13 5 35 9 47 9 27 0 112 -36 121 -50 8 -13 62 -13 71 1 3 6 17 8 31 5 23 -6 24 -6 7 19 -9 14 -21 25 -27 25 -5 0 -24 15 -42 33 -18 18 -50 38 -71 44 -44 13 -252 14 -260 1 -3 -4 -28 -8 -56 -8 l-51 0 7 43 c4 23 14 56 22 72 8 17 19 64 24 105 5 41 12 100 16 130 3 30 7 131 8 225 l1 170 69 22 c50 16 73 20 82 12 12 -10 45 -7 96 7 16 5 17 8 3 34 -8 15 -28 33 -46 39 -31 11 -151 16 -160 6z" />
<ns0:path d="M1370 1530 c0 -5 5 -10 10 -10 6 0 10 5 10 10 0 6 -4 10 -10 10 -5 0 -10 -4 -10 -10z" />
</ns0:g>
</g><g transform="translate(2.9196001902309945,344.9852282508927) scale(0.051068870680077885)"><ns0:metadata>
Created by potrace 1.16, written by Peter Selinger 2001-2019
</ns0:metadata>
<ns0:g transform="translate(0.000000,206.000000) scale(0.100000,-0.100000)" fill="#000000" stroke="none">
<ns0:path d="M832 1494 c-13 -9 -22 -26 -22 -40 0 -26 -5 -26 -57 -7 -25 10 -43 -44 -53 -157 -5 -63 -17 -158 -26 -210 -37 -223 -43 -284 -33 -329 21 -93 91 -146 174 -130 49 9 156 79 198 129 52 61 65 320 25 491 -12 52 -21 118 -20 148 2 72 -9 88 -63 97 -25 3 -45 10 -45 15 0 15 -54 10 -78 -7z m63 -98 c10 4 15 0 15 -15 0 -12 12 -79 28 -149 30 -141 34 -248 13 -350 -12 -53 -20 -67 -52 -93 -48 -38 -101 -54 -129 -39 -17 9 -20 20 -19 73 0 61 3 81 32 247 8 47 20 137 27 200 14 145 13 142 45 130 13 -5 32 -7 40 -4z" />
</ns0:g>
</g><g transform="translate(-2.660591504313402,511.0132599404826) scale(0.051068870680077885)"><ns0:metadata>
Created by potrace 1.16, written by Peter Selinger 2001-2019
</ns0:metadata>
<ns0:g transform="translate(0.000000,210.000000) scale(0.100000,-0.100000)" fill="#000000" stroke="none">
<ns0:path d="M935 1134 c-55 -7 -128 -13 -163 -12 -53 1 -66 -2 -87 -22 -35 -33 -32 -66 8 -90 18 -12 41 -18 52 -15 11 3 70 13 130 21 91 12 121 13 173 3 68 -14 107 -6 126 24 16 24 -2 48 -55 73 -66 32 -76 33 -184 18z" />
</ns0:g>
</g><g transform="translate(-1.5594126034959004,638.0697405321579) scale(0.051068870680077885)"><ns0:metadata>
Created by potrace 1.16, written by Peter Selinger 2001-2019
</ns0:metadata>
<ns0:g transform="translate(0.000000,206.000000) scale(0.100000,-0.100000)" fill="#000000" stroke="none">
<ns0:path d="M1261 1449 c-32 -26 -41 -81 -47 -284 -2 -88 -10 -214 -18 -280 -7 -66 -9 -130 -5 -141 4 -12 5 -31 3 -41 -3 -11 1 -25 10 -32 12 -10 20 -7 45 16 27 24 32 37 37 93 9 116 36 284 51 327 10 28 13 60 10 95 -4 29 -3 83 1 121 9 75 -3 118 -37 136 -25 14 -21 14 -50 -10z" />
</ns0:g>
</g><g transform="translate(2.0696325487046465,767.1692100442826) scale(0.051068870680077885)"><ns0:metadata>
Created by potrace 1.16, written by Peter Selinger 2001-2019
</ns0:metadata>
<ns0:g transform="translate(0.000000,216.000000) scale(0.100000,-0.100000)" fill="#000000" stroke="none">
<ns0:path d="M1175 1549 c-182 -21 -222 -29 -245 -54 -17 -18 -20 -27 -11 -43 14 -27 86 -55 109 -42 28 15 186 50 194 42 4 -4 3 -32 -2 -62 -20 -130 -51 -290 -68 -360 -24 -95 -40 -230 -40 -343 0 -49 -3 -91 -6 -94 -7 -7 -90 -23 -149 -29 -27 -2 -64 -11 -82 -18 -42 -18 -159 -98 -200 -137 -17 -16 -38 -29 -47 -29 -17 0 -32 -26 -22 -41 7 -12 30 -12 52 0 9 5 46 23 82 40 36 17 90 45 120 62 51 29 62 32 155 33 81 1 106 -3 128 -16 37 -25 54 -22 72 11 16 32 16 34 9 224 -5 134 -7 120 56 431 11 55 27 125 35 155 23 91 34 175 28 219 -6 43 -7 43 -83 56 -8 1 -46 -1 -85 -5z" />
</ns0:g>
</g></svg>