<?xml version='1.0' encoding='utf-8'?>
<svg xmlns:ns0="http://www.w3.org/2000/svg" xmlns="http://www.w3.org/2000/svg" width="235" height="107" viewBox="0 0 235 107"><g transform="translate(1.6359157437121894,-101.11482259577409) scale(0.04516007572535813)"><ns0:metadata>
Created by potrace 1.16, written by Peter Selinger 2001-2019
</ns0:metadata>
<ns0:g transform="translate(0.000000,212.000000) scale(0.100000,-0.100000)" fill="#000000" stroke="none">
<ns0:path d="M1085 1599 c-22 -5 -69 -14 -105 -20 -82 -14 -119 -45 -104 -87 13 -37 54 -40 156 -8 95 30 116 32 125 9 12 -32 -44 -199 -88 -258 -16 -22 -66 -96 -112 -165 -45 -68 -87 -126 -93 -127 -10 -3 -24 130 -40 362 -3 50 -10 102 -16 118 -13 35 -46 36 -78 2 -22 -23 -23 -32 -21 -128 1 -56 11 -160 22 -230 14 -87 19 -149 14 -190 -3 -34 -5 -105 -5 -157 2 -190 -49 -432 -93 -444 -17 -4 -19 -11 -13 -48 7 -46 27 -68 61 -68 39 0 47 15 110 210 9 30 22 104 27 165 5 60 11 139 15 175 4 57 9 68 38 96 19 17 59 69 90 115 30 46 64 98 75 114 12 17 35 53 53 80 17 28 34 52 38 55 9 7 61 109 76 150 7 19 20 74 28 122 14 79 14 91 0 118 -26 50 -66 60 -160 39z m-275 -579 c0 -5 -4 -10 -10 -10 -5 0 -10 5 -10 10 0 6 5 10 10 10 6 0 10 -4 10 -10z" />
</ns0:g>
</g><g transform="translate(1.9652369312050837,30.26595933846349) scale(0.04516007572535813)"><ns0:metadata>
Created by potrace 1.16, written by Peter Selinger 2001-2019
</ns0:metadata>
<ns0:g transform="translate(0.000000,209.000000) scale(0.100000,-0.100000)" fill="#000000" stroke="none">
<ns0:path d="M946 1349 c-52 -12 -68 -27 -64 -58 3 -23 9 -27 53 -32 28 -3 43 -7 34 -7 -9 -1 -28 -13 -42 -26 -15 -14 -35 -27 -46 -31 -38 -12 -61 -59 -72 -147 -13 -107 -20 -170 -23 -238 -2 -30 -13 -89 -26 -130 -29 -95 -78 -240 -90 -261 -17 -33 -22 -107 -9 -143 11 -31 20 -38 62 -50 90 -26 205 -3 280 58 73 58 187 171 214 211 15 22 35 49 44 60 51 61 109 211 109 283 0 97 -39 277 -79 362 -14 30 -47 76 -74 101 -44 42 -55 47 -109 53 -76 8 -112 6 -162 -5z m217 -142 c73 -96 112 -221 110 -352 -1 -83 -27 -157 -81 -230 -21 -27 -50 -69 -65 -91 -29 -43 -175 -174 -207 -186 -48 -18 -120 -25 -137 -13 -15 11 -15 18 -4 61 7 27 19 63 26 79 34 77 65 228 85 415 13 112 36 210 50 210 5 0 44 36 87 79 86 87 90 88 136 28z" />
</ns0:g>
</g><g transform="translate(1.2312561924504166,154.54110653346504) scale(0.04516007572535813)"><ns0:metadata>
Created by potrace 1.16, written by Peter Selinger 2001-2019
</ns0:metadata>
<ns0:g transform="translate(0.000000,209.000000) scale(0.100000,-0.100000)" fill="#000000" stroke="none">
<ns0:path d="M1227 1316 c-26 -8 -70 -26 -98 -41 -34 -17 -60 -24 -77 -21 -15 3 -34 0 -42 -7 -37 -30 -91 -121 -158 -267 -12 -25 -30 -61 -41 -80 -52 -89 -161 -331 -174 -385 -20 -80 -21 -177 -4 -217 8 -18 20 -48 27 -66 7 -18 27 -42 44 -54 17 -12 36 -29 42 -36 7 -10 29 -14 65 -14 45 0 67 8 132 44 92 52 227 173 290 260 26 35 60 81 77 103 113 147 138 198 160 328 20 120 7 313 -25 382 -14 29 -31 58 -38 63 -21 18 -128 22 -180 8z m135 -114 c18 -46 30 -240 18 -302 -19 -101 -33 -145 -50 -165 -10 -11 -25 -33 -34 -50 -22 -41 -38 -64 -61 -92 -10 -13 -37 -50 -60 -82 -48 -71 -189 -200 -262 -241 -71 -40 -103 -39 -142 5 -17 20 -34 48 -38 63 -13 52 21 200 71 305 25 53 46 100 46 103 0 13 35 81 58 112 13 17 37 56 53 85 16 28 37 68 48 88 20 36 138 139 159 139 6 0 25 13 43 29 37 34 95 52 122 39 10 -5 23 -21 29 -36z" />
</ns0:g>
</g><g transform="translate(1.0226497343774668,291.69245995672645) scale(0.04516007572535813)"><ns0:metadata>
Created by potrace 1.16, written by Peter Selinger 2001-2019
</ns0:metadata>
<ns0:g transform="translate(0.000000,212.000000) scale(0.100000,-0.100000)" fill="#000000" stroke="none">
<ns0:path d="M793 1761 c-31 -20 -50 -34 -108 -83 -18 -16 -37 -28 -42 -28 -19 0 -51 -46 -55 -80 -3 -19 -12 -62 -21 -95 -9 -33 -18 -100 -20 -150 -3 -49 -16 -147 -31 -218 -14 -70 -30 -173 -36 -230 -11 -114 -55 -277 -105 -392 -35 -80 -24 -115 39 -115 28 0 34 5 48 38 47 109 103 303 118 407 20 142 48 207 94 221 19 6 76 54 174 146 18 17 58 65 89 106 55 71 58 77 61 141 4 82 -22 175 -84 306 -16 34 -24 40 -54 43 -21 1 -47 -5 -67 -17z m44 -112 c6 -13 26 -63 43 -110 38 -103 36 -124 -20 -208 -38 -56 -203 -221 -223 -221 -5 0 -7 18 -3 43 3 23 10 92 16 152 6 61 22 154 35 208 14 54 25 100 25 103 0 9 94 64 105 61 5 -2 15 -14 22 -28z" />
<ns0:path d="M623 816 l-28 -25 20 -37 c17 -30 35 -43 110 -76 50 -22 101 -46 115 -53 14 -8 41 -22 60 -32 19 -9 44 -25 55 -34 11 -9 37 -22 58 -29 20 -6 43 -17 50 -24 34 -33 105 -86 115 -86 6 0 15 -6 19 -12 29 -47 143 -85 218 -74 36 6 47 13 64 42 36 61 22 84 -41 66 -45 -12 -120 12 -156 50 -15 15 -30 28 -34 28 -9 0 -132 71 -138 81 -3 4 -30 19 -60 33 -67 32 -125 64 -165 92 -17 11 -46 27 -65 34 -19 8 -61 29 -92 47 -31 18 -61 33 -67 33 -5 0 -23 -11 -38 -24z" />
</ns0:g>
</g><g transform="translate(1.8384979369731127,420.4591043947544) scale(0.04516007572535813)"><ns0:metadata>
Created by potrace 1.16, written by Peter Selinger 2001-2019
</ns0:metadata>
<ns0:g transform="translate(0.000000,208.000000) scale(0.100000,-0.100000)" fill="#000000" stroke="none">
<ns0:path d="M1070 1577 c-3 -3 -33 -8 -67 -11 -34 -3 -73 -10 -87 -16 -54 -20 -132 -78 -159 -117 -25 -36 -31 -40 -66 -37 -31 2 -44 -3 -63 -23 -19 -21 -23 -34 -21 -82 1 -31 10 -74 18 -95 23 -54 24 -175 3 -271 -10 -44 -21 -132 -24 -195 l-7 -115 -48 -43 c-85 -76 -127 -204 -81 -245 25 -23 80 -21 120 3 18 11 37 20 43 20 18 0 89 60 184 155 99 100 222 268 292 403 25 48 54 96 64 107 10 11 24 38 32 60 82 218 81 217 82 315 0 106 -13 138 -68 167 -30 15 -137 30 -147 20z m114 -120 c24 -33 26 -108 3 -183 -19 -59 -98 -216 -152 -299 -145 -225 -198 -298 -259 -363 -77 -80 -100 -90 -92 -39 3 17 11 79 16 137 6 58 19 157 30 220 10 63 20 162 21 220 3 102 3 105 40 160 21 30 46 65 56 76 32 38 114 77 187 90 101 17 125 14 150 -19z m-591 -1004 c-9 -7 -20 -13 -25 -13 -10 0 -11 32 -1 55 5 15 8 15 24 -6 17 -22 17 -25 2 -36z" />
</ns0:g>
</g><g transform="translate(-2.220723067775623,562.8794891718485) scale(0.04516007572535813)"><ns0:metadata>
Created by potrace 1.16, written by Peter Selinger 2001-2019
</ns0:metadata>
<ns0:g transform="translate(0.000000,206.000000) scale(0.100000,-0.100000)" fill="#000000" stroke="none">
<ns0:path d="M832 1494 c-13 -9 -22 -26 -22 -40 0 -26 -5 -26 -57 -7 -25 10 -43 -44 -53 -157 -5 -63 -17 -158 -26 -210 -37 -223 -43 -284 -33 -329 21 -93 91 -146 174 -130 49 9 156 79 198 129 52 61 65 320 25 491 -12 52 -21 118 -20 148 2 72 -9 88 -63 97 -25 3 -45 10 -45 15 0 15 -54 10 -78 -7z m63 -98 c10 4 15 0 15 -15 0 -12 12 -79 28 -149 30 -141 34 -248 13 -350 -12 -53 -20 -67 -52 -93 -48 -38 -101 -54 -129 -39 -17 9 -20 20 -19 73 0 61 3 81 32 247 8 47 20 137 27 200 14 145 13 142 45 130 13 -5 32 -7 40 -4z" />
</ns0:g>
</g><g transform="translate(2.680796263060074,689.2691105820951) scale(0.04516007572535813)"><ns0:metadata>
Created by potrace 1.16, written by Peter Selinger 2001-2019
</ns0:metadata>
<ns0:g transform="translate(0.000000,214.000000) scale(0.100000,-0.100000)" fill="#000000" stroke="none">
<ns0:path d="M1328 1472 c-1 -5 -36 -28 -76 -52 -73 -43 -91 -48 -252 -71 -94 -14 -110 -22 -110 -59 0 -57 66 -89 121 -59 11 5 50 18 87 28 37 11 77 22 90 26 23 8 23 7 17 -41 -9 -73 -26 -145 -41 -184 -8 -19 -19 -68 -24 -109 -6 -40 -12 -76 -15 -80 -12 -20 -32 -204 -28 -254 6 -66 30 -91 80 -85 l28 3 7 120 c8 160 31 273 129 637 5 20 20 50 32 65 26 31 34 88 16 109 -12 15 -55 19 -61 6z" />
</ns0:g>
</g><g transform="translate(-1.1975892782086248,815.4726134137521) scale(0.04516007572535813)"><ns0:metadata>
Created by potrace 1.16, written by Peter Selinger 2001-2019
</ns0:metadata>
<ns0:g transform="translate(0.000000,205.000000) scale(0.100000,-0.100000)" fill="#000000" stroke="none">
<ns0:path d="M802 1318 c-45 -67 -75 -135 -68 -153 5 -14 9 -15 21 -5 12 10 15 10 15 -3 0 -9 -4 -27 -10 -41 -5 -14 -16 -76 -25 -138 -17 -125 -33 -223 -41 -251 -5 -15 -8 -16 -20 -6 -29 24 -38 -4 -24 -78 21 -111 57 -151 107 -118 25 17 27 22 42 145 23 192 62 413 78 443 9 18 20 52 24 77 4 25 10 62 14 82 4 20 5 48 1 62 -5 22 -12 26 -46 26 -35 0 -42 -5 -68 -42z" />
</ns0:g>
</g><g transform="translate(1.9358127708929942,941.626835160447) scale(0.04516007572535813)"><ns0:metadata>
Created by potrace 1.16, written by Peter Selinger 2001-2019
</ns0:metadata>
<ns0:g transform="translate(0.000000,207.000000) scale(0.100000,-0.100000)" fill="#000000" stroke="none">
<ns0:path d="M1467 1412 c-10 -10 -17 -21 -17 -24 0 -10 49 -15 53 -5 2 6 11 6 25 -2 18 -10 22 -9 22 3 0 9 -13 22 -30 31 -36 19 -34 19 -53 -3z" />
<ns0:path d="M840 1261 c0 -6 -7 -11 -15 -11 -31 0 -31 -92 0 -104 9 -3 35 1 58 9 99 34 165 7 152 -63 -21 -114 -213 -390 -300 -431 -44 -21 -115 -92 -115 -115 0 -39 85 -61 111 -29 8 9 42 28 75 44 34 15 65 32 68 38 4 6 20 11 35 11 16 0 46 6 67 14 22 7 81 17 132 21 70 5 95 11 99 23 4 8 -1 20 -11 27 -22 16 -181 27 -229 16 -51 -12 -55 2 -14 52 19 23 37 52 41 64 4 12 21 33 37 47 31 26 81 125 94 184 19 90 -25 182 -96 196 -68 14 -189 19 -189 7z" />
</ns0:g>
</g><g transform="translate(-0.26855730448460235,1069.478988796887) scale(0.04516007572535813)"><ns0:metadata>
Created by potrace 1.16, written by Peter Selinger 2001-2019
</ns0:metadata>
<ns0:g transform="translate(0.000000,213.000000) scale(0.100000,-0.100000)" fill="#000000" stroke="none">
<ns0:path d="M1116 1428 c-8 -13 -17 -48 -21 -78 -7 -58 -48 -223 -95 -380 -56 -189 -63 -216 -68 -276 -4 -53 -1 -66 19 -95 81 -114 179 -123 272 -25 65 69 147 176 147 192 0 7 -4 16 -10 19 -5 3 -10 17 -10 30 0 15 -11 32 -32 46 -27 19 -47 24 -121 26 -49 1 -92 4 -95 7 -3 3 0 23 6 43 6 21 19 65 28 98 9 33 25 83 35 110 26 70 59 204 59 242 0 41 -23 63 -65 63 -25 0 -39 -6 -49 -22z m80 -628 c11 0 29 -6 39 -14 18 -13 18 -14 0 -42 -42 -65 -107 -124 -136 -124 -52 0 -72 59 -49 142 9 33 15 37 48 41 20 2 46 3 57 1 11 -2 29 -4 41 -4z" />
</ns0:g>
</g><g transform="translate(1.1149710618890936,1204.8184026985202) scale(0.04516007572535813)"><ns0:metadata>
Created by potrace 1.16, written by Peter Selinger 2001-2019
</ns0:metadata>
<ns0:g transform="translate(0.000000,214.000000) scale(0.100000,-0.100000)" fill="#000000" stroke="none">
<ns0:path d="M1179 1566 c-76 -40 -138 -112 -170 -197 -32 -83 -23 -122 39 -174 30 -25 38 -27 99 -23 39 2 68 9 71 16 5 17 32 15 32 -3 0 -9 -12 -44 -26 -78 -23 -54 -28 -83 -35 -232 -8 -155 -7 -196 7 -247 6 -21 72 -25 79 -6 3 7 9 92 14 188 9 181 12 205 30 239 6 11 20 46 30 78 11 32 36 103 56 158 50 137 52 149 24 169 -15 10 -27 12 -33 6 -6 -6 -20 -10 -32 -10 -17 0 -20 5 -17 23 7 37 -14 77 -49 91 -65 27 -74 27 -119 2z m61 -140 c0 -18 9 -45 20 -59 l21 -26 -29 -29 c-26 -26 -85 -62 -103 -62 -15 0 -39 32 -39 51 0 39 50 127 83 147 39 24 47 20 47 -22z" />
</ns0:g>
</g></svg>