<?xml version='1.0' encoding='utf-8'?>
<svg xmlns:ns0="http://www.w3.org/2000/svg" xmlns="http://www.w3.org/2000/svg" width="235" height="121" viewBox="0 0 235 121"><g transform="translate(-1.9829144971625396,-113.9404088492172) scale(0.051068870680077885)"><ns0:metadata>
Created by potrace 1.16, written by Peter Selinger 2001-2019
</ns0:metadata>
<ns0:g transform="translate(0.000000,204.000000) scale(0.100000,-0.100000)" fill="#000000" stroke="none">
<ns0:path d="M1120 1944 c-6 -14 -10 -35 -10 -47 0 -41 -26 -65 -77 -70 -53 -5 -105 -23 -146 -50 -14 -9 -33 -17 -41 -17 -9 0 -38 -20 -65 -44 -39 -35 -61 -46 -98 -52 -51 -7 -93 -36 -93 -65 0 -40 23 -69 59 -75 29 -6 48 -1 103 28 l66 34 10 -21 c16 -35 117 -48 146 -20 8 8 17 15 20 15 7 0 -9 -50 -33 -105 -24 -55 -26 -65 -8 -65 16 0 77 61 77 77 0 6 13 24 28 40 16 15 45 66 66 113 82 187 101 213 178 247 27 12 46 52 33 72 -8 14 -52 14 -60 1 -11 -17 -44 -11 -55 10 -8 15 -21 20 -51 20 -33 0 -41 -4 -49 -26z m-88 -271 c-6 -33 -21 -55 -32 -48 -5 3 -20 0 -35 -7 -40 -18 -52 8 -18 40 50 46 92 54 85 15z" />
<ns0:path d="M1775 1580 c-22 -4 -62 -11 -90 -15 -27 -4 -66 -16 -85 -26 -19 -10 -73 -28 -120 -39 -129 -32 -204 -53 -215 -60 -10 -7 -24 -10 -170 -45 -74 -18 -113 -31 -210 -75 -33 -15 -94 -39 -136 -54 -42 -14 -103 -41 -136 -59 -32 -18 -90 -41 -128 -51 -38 -10 -74 -21 -80 -25 -5 -5 -38 -18 -72 -29 -34 -12 -86 -34 -115 -50 -29 -16 -64 -33 -78 -37 -14 -4 -44 -21 -67 -38 -48 -34 -57 -72 -25 -99 37 -32 53 -30 127 16 61 39 167 92 280 141 17 7 68 25 115 40 47 15 105 38 130 50 101 50 364 151 438 169 32 8 77 21 102 31 25 9 68 23 95 32 28 9 59 19 70 24 11 4 45 13 75 19 66 14 135 37 172 56 37 20 99 19 92 -1 -9 -24 19 -18 91 18 59 29 65 35 65 64 0 50 -31 61 -125 43z m-1295 -464 c0 -3 -4 -8 -10 -11 -5 -3 -10 -1 -10 4 0 6 5 11 10 11 6 0 10 -2 10 -4z" />
<ns0:path d="M1260 1193 c-60 -30 -86 -37 -134 -38 -62 0 -70 -6 -80 -55 -5 -26 -53 -66 -145 -124 -25 -15 -48 -31 -51 -35 -3 -4 -24 -25 -48 -46 -33 -29 -52 -39 -85 -41 -31 -2 -48 -10 -66 -31 -23 -26 -24 -31 -17 -140 7 -124 51 -364 69 -375 22 -14 38 -8 48 20 14 34 15 57 3 162 -12 116 -10 246 6 265 7 8 23 15 37 15 15 0 51 23 95 60 77 64 88 70 88 43 0 -44 -12 -61 -46 -68 -50 -9 -61 -42 -34 -102 11 -25 20 -52 20 -59 0 -17 -57 -130 -83 -166 -19 -25 -19 -28 -3 -52 12 -20 25 -26 49 -25 55 2 76 13 111 56 l33 43 56 -58 c30 -31 65 -66 76 -76 24 -22 19 -36 -13 -36 -12 0 -31 -7 -42 -15 -10 -8 -29 -15 -41 -15 -14 0 -23 -6 -23 -15 0 -8 7 -15 15 -15 8 0 15 4 15 9 0 17 41 -2 57 -26 27 -42 69 -55 167 -56 l91 -1 1 35 c1 18 5 41 9 50 8 22 -8 31 -55 31 -48 -1 -55 14 -35 76 17 55 22 90 30 192 3 41 15 125 26 185 57 318 63 385 43 447 -9 29 -61 22 -144 -19z m57 -110 c-28 -142 -38 -195 -55 -308 -11 -71 -26 -175 -32 -230 -11 -93 -21 -125 -40 -125 -9 0 -90 107 -98 129 -3 9 -14 27 -24 40 -29 38 -24 68 53 363 13 51 43 83 114 123 77 42 89 43 82 8z" />
<ns0:path d="M711 219 c-34 -24 -42 -35 -39 -57 3 -24 7 -27 40 -26 23 1 54 12 78 28 40 26 53 56 25 56 -8 0 -15 7 -15 15 0 25 -44 17 -89 -16z" />
</ns0:g>
</g><g transform="translate(1.4248528862573266,31.370389657272227) scale(0.051068870680077885)"><ns0:metadata>
Created by potrace 1.16, written by Peter Selinger 2001-2019
</ns0:metadata>
<ns0:g transform="translate(0.000000,210.000000) scale(0.100000,-0.100000)" fill="#000000" stroke="none">
<ns0:path d="M755 1907 c-37 -22 -43 -42 -50 -147 -11 -192 -6 -178 -92 -246 -87 -66 -229 -161 -255 -170 -41 -13 -34 -89 10 -105 49 -19 92 -2 152 59 82 83 141 134 147 128 3 -3 1 -63 -4 -134 l-9 -129 -49 -79 c-26 -43 -58 -90 -70 -104 -35 -40 -59 -89 -95 -190 -18 -52 -44 -119 -57 -149 -13 -30 -27 -68 -30 -85 -4 -17 -28 -68 -55 -114 -45 -76 -52 -102 -27 -102 15 0 89 81 109 120 10 19 32 47 47 61 16 15 41 59 57 100 16 41 39 95 52 120 13 26 24 54 24 62 0 9 12 29 26 44 l25 28 -5 -95 c-3 -52 -9 -162 -12 -245 -6 -141 -5 -152 14 -175 18 -23 22 -23 46 -11 22 12 32 34 27 64 -2 11 28 404 35 465 3 28 10 52 14 52 11 0 80 -37 108 -58 l23 -18 -31 -74 c-17 -41 -38 -93 -46 -115 -8 -21 -20 -46 -28 -55 -7 -8 -21 -35 -30 -59 -38 -97 30 -62 86 44 11 22 37 60 57 85 62 76 121 179 121 211 0 32 25 89 39 89 8 0 110 226 126 278 4 13 28 67 55 120 26 53 51 107 54 120 4 12 11 22 16 22 4 0 10 17 12 38 3 20 14 59 24 85 l19 49 -23 19 c-21 16 -27 17 -55 6 -29 -11 -35 -23 -62 -103 -16 -50 -35 -102 -42 -115 -24 -50 -92 -216 -107 -259 -27 -80 -126 -281 -141 -286 -18 -7 -55 16 -119 72 -55 49 -58 70 -12 89 34 15 46 31 46 67 0 15 -6 19 -27 16 l-28 -3 2 102 c1 84 5 107 21 130 23 33 30 54 49 143 22 102 21 105 -7 105 -23 0 -25 4 -24 44 1 36 7 49 38 78 45 42 45 72 1 86 -16 5 -37 16 -46 23 -18 16 -18 16 -44 1z" />
<ns0:path d="M1333 1528 c-35 -44 -17 -80 57 -119 25 -13 56 -32 69 -41 34 -26 48 -22 56 12 8 35 -16 76 -74 127 -38 34 -90 44 -108 21z" />
<ns0:path d="M1225 1106 c-11 -7 -37 -19 -58 -26 -24 -7 -42 -21 -47 -35 -5 -13 -12 -79 -15 -146 -4 -94 -12 -147 -35 -224 -40 -139 -137 -340 -188 -386 -76 -71 -90 -111 -50 -149 31 -29 54 -25 96 18 21 20 46 45 57 54 11 10 29 27 40 39 11 12 36 32 55 45 19 13 60 45 90 70 107 88 176 137 216 154 23 10 45 23 48 29 15 24 25 9 31 -46 11 -91 77 -319 99 -340 23 -24 27 103 9 302 -5 55 -7 134 -3 175 4 46 2 82 -4 92 -8 13 -7 21 2 30 22 22 13 46 -19 57 -46 16 -65 14 -94 -11 -24 -21 -25 -26 -14 -56 6 -18 8 -48 5 -67 -6 -31 -14 -37 -99 -78 -51 -24 -98 -51 -106 -60 -7 -9 -19 -17 -27 -17 -7 0 -24 -11 -37 -23 -30 -31 -76 -61 -83 -55 -3 3 4 25 14 49 52 117 95 288 108 423 3 35 16 83 31 113 34 68 23 101 -22 69z" />
</ns0:g>
</g><g transform="translate(-1.4205970162552148,168.87729927266486) scale(0.051068870680077885)"><ns0:metadata>
Created by potrace 1.16, written by Peter Selinger 2001-2019
</ns0:metadata>
<ns0:g transform="translate(0.000000,214.000000) scale(0.100000,-0.100000)" fill="#000000" stroke="none">
<ns0:path d="M1143 2018 c-28 -14 -29 -37 -3 -83 34 -61 24 -187 -17 -202 -10 -3 -34 -19 -54 -35 -20 -15 -42 -28 -48 -28 -5 0 -34 -19 -63 -43 -29 -24 -74 -53 -100 -66 -28 -13 -67 -46 -94 -77 -42 -49 -46 -57 -36 -79 11 -24 34 -31 86 -27 14 2 16 -2 11 -15 -4 -10 -13 -40 -20 -68 -8 -27 -30 -93 -49 -145 -20 -52 -50 -133 -67 -180 -17 -47 -48 -119 -69 -160 -21 -42 -41 -90 -44 -107 -4 -17 -13 -36 -20 -42 -8 -6 -21 -33 -30 -59 -20 -55 -35 -89 -106 -232 -29 -58 -60 -133 -70 -168 -11 -34 -29 -79 -42 -100 -13 -20 -28 -52 -34 -69 l-12 -33 52 0 52 0 36 73 c20 39 39 86 42 104 9 38 35 91 64 128 12 15 22 34 22 41 0 39 44 86 105 113 60 27 65 26 65 -3 0 -23 -71 -120 -113 -155 -10 -7 -17 -20 -17 -27 0 -8 -9 -19 -20 -26 -11 -7 -20 -18 -20 -24 0 -12 45 -64 56 -64 12 0 107 62 139 91 17 14 41 32 54 39 22 11 27 10 49 -16 82 -99 153 -175 192 -205 25 -19 51 -42 58 -51 7 -10 26 -18 42 -18 24 0 30 6 41 38 6 20 15 42 20 48 5 6 6 13 3 16 -3 3 0 41 6 84 5 44 17 148 24 232 8 84 19 158 25 165 14 18 109 62 117 55 3 -4 -1 -19 -9 -35 -14 -26 -14 -33 1 -65 29 -60 125 -128 203 -144 84 -17 285 16 372 61 27 14 54 25 60 25 6 0 31 7 54 16 33 13 43 22 43 39 0 22 0 22 -72 9 -40 -7 -102 -20 -138 -29 -99 -25 -189 -37 -251 -33 -46 3 -63 10 -97 39 -41 34 -52 61 -31 75 17 10 49 86 49 117 0 22 -5 29 -29 33 l-29 6 -7 139 c-8 152 -7 158 49 186 43 21 108 91 104 111 -4 22 -70 29 -89 10 -8 -7 -27 -24 -44 -37 l-30 -23 -6 47 c-6 51 12 204 31 270 7 22 22 60 35 85 12 25 25 66 29 92 7 44 5 49 -17 59 -20 9 -32 6 -76 -18 -29 -15 -69 -37 -91 -48 -21 -11 -57 -37 -79 -58 -56 -52 -86 -64 -108 -45 -33 29 -60 31 -93 6 -30 -22 -31 -24 -25 -83 7 -60 7 -60 -34 -104 -58 -63 -101 -141 -90 -163 6 -10 21 -18 34 -18 30 0 32 -11 5 -28 -30 -19 -25 -58 12 -93 18 -16 39 -31 48 -34 17 -6 70 -73 70 -89 0 -12 -143 -109 -245 -166 -34 -19 -72 -43 -86 -53 -13 -10 -50 -33 -82 -52 -54 -32 -58 -33 -52 -12 4 12 25 56 47 97 22 41 53 108 69 147 16 40 33 81 38 90 6 10 28 69 51 131 22 62 49 129 60 150 11 20 20 48 20 61 0 13 11 39 25 57 14 18 25 38 25 44 0 6 7 22 16 36 20 30 11 43 -17 26 -19 -12 -19 -11 -8 10 24 44 123 129 187 160 36 17 84 45 107 62 62 46 182 128 220 151 18 11 56 34 84 50 42 25 51 35 51 58 0 25 -3 27 -42 26 -35 0 -60 -11 -133 -60 -81 -53 -177 -109 -189 -109 -2 0 -2 18 1 40 6 46 -12 128 -34 153 -18 19 -47 21 -80 5z m261 -495 c-3 -16 -12 -44 -19 -63 -19 -51 -28 -150 -27 -278 1 -112 1 -112 -26 -128 -15 -9 -40 -26 -56 -37 -23 -16 -30 -17 -37 -6 -19 30 2 64 64 102 19 13 27 26 27 47 0 37 -34 61 -92 64 l-43 3 3 79 c3 60 8 84 22 98 16 16 180 143 188 145 1 1 0 -11 -4 -26z m-327 -315 c-3 -8 -6 -5 -6 6 -1 11 2 17 5 13 3 -3 4 -12 1 -19z m301 -398 c-3 -42 -5 -45 -28 -42 -27 4 -45 23 -75 78 -18 34 -18 34 6 60 13 15 38 35 54 45 l30 19 8 -58 c4 -31 6 -77 5 -102z m-265 -99 c10 -71 3 -111 -18 -111 -8 0 -15 -5 -15 -10 0 -6 -17 -19 -38 -28 -20 -9 -51 -27 -69 -39 -17 -13 -34 -23 -38 -23 -3 0 -22 -11 -43 -25 -33 -23 -37 -23 -54 -8 -10 9 -18 27 -18 41 0 22 -3 24 -35 20 -42 -5 -44 4 -7 27 15 10 41 32 58 50 17 18 59 48 94 66 34 19 65 40 67 47 3 6 10 12 17 12 6 0 25 11 41 25 17 13 35 23 40 21 6 -1 14 -31 18 -65z m161 20 l27 -28 -25 -17 c-38 -25 -56 -21 -56 13 0 33 9 61 19 61 4 0 20 -13 35 -29z m-165 -333 c-11 -159 -27 -238 -48 -238 -23 0 -105 81 -148 146 -38 57 -37 63 5 88 56 33 159 105 171 120 24 29 29 4 20 -116z" />
</ns0:g>
</g></svg>