<?xml version='1.0' encoding='utf-8'?>
<svg xmlns:ns0="http://www.w3.org/2000/svg" xmlns="http://www.w3.org/2000/svg" width="249" height="109" viewBox="0 0 249 109"><g transform="translate(-1.3422856012861644,-83.91214457749224) scale(0.0460041892903181)"><ns0:metadata>
Created by potrace 1.16, written by Peter Selinger 2001-2019
</ns0:metadata>
<ns0:g transform="translate(0.000000,205.000000) scale(0.100000,-0.100000)" fill="#000000" stroke="none">
<ns0:path d="M802 1318 c-45 -67 -75 -135 -68 -153 5 -14 9 -15 21 -5 12 10 15 10 15 -3 0 -9 -4 -27 -10 -41 -5 -14 -16 -76 -25 -138 -17 -125 -33 -223 -41 -251 -5 -15 -8 -16 -20 -6 -29 24 -38 -4 -24 -78 21 -111 57 -151 107 -118 25 17 27 22 42 145 23 192 62 413 78 443 9 18 20 52 24 77 4 25 10 62 14 82 4 20 5 48 1 62 -5 22 -12 26 -46 26 -35 0 -42 -5 -68 -42z" />
</ns0:g>
</g><g transform="translate(-2.5091924401099845,45.37559421302498) scale(0.0460041892903181)"><ns0:metadata>
Created by potrace 1.16, written by Peter Selinger 2001-2019
</ns0:metadata>
<ns0:g transform="translate(0.000000,213.000000) scale(0.100000,-0.100000)" fill="#000000" stroke="none">
<ns0:path d="M1137 1450 c-150 -146 -227 -242 -227 -282 0 -31 57 -132 94 -167 34 -32 33 -39 -8 -87 -18 -21 -56 -74 -85 -118 -39 -61 -51 -87 -51 -118 0 -39 0 -40 73 -73 40 -18 86 -37 102 -41 17 -4 40 -14 52 -21 29 -19 113 -43 193 -55 123 -18 115 -21 118 47 3 65 -15 113 -94 250 -19 33 -38 69 -43 80 -5 11 -25 37 -45 57 -61 62 -50 90 82 211 23 21 42 44 42 51 0 7 7 28 17 46 32 66 61 226 49 276 -10 40 -52 69 -99 69 -40 1 -47 -4 -170 -125z m174 18 c3 -33 -40 -178 -65 -221 -21 -34 -156 -147 -177 -147 -18 0 -39 33 -39 61 0 33 25 89 40 89 6 0 10 5 10 11 0 17 69 99 83 99 7 0 23 16 36 36 44 64 109 106 112 72z m-158 -634 c7 -12 35 -62 64 -111 28 -48 55 -101 59 -117 7 -29 7 -29 -29 -22 -20 4 -56 16 -79 26 -24 11 -48 20 -55 20 -11 0 -122 47 -131 55 -11 10 29 88 71 143 48 61 50 62 69 46 10 -10 24 -28 31 -40z" />
</ns0:g>
</g><g transform="translate(0.5763784636743594,180.86174015126147) scale(0.0460041892903181)"><ns0:metadata>
Created by potrace 1.16, written by Peter Selinger 2001-2019
</ns0:metadata>
<ns0:g transform="translate(0.000000,206.000000) scale(0.100000,-0.100000)" fill="#000000" stroke="none">
<ns0:path d="M832 1494 c-13 -9 -22 -26 -22 -40 0 -26 -5 -26 -57 -7 -25 10 -43 -44 -53 -157 -5 -63 -17 -158 -26 -210 -37 -223 -43 -284 -33 -329 21 -93 91 -146 174 -130 49 9 156 79 198 129 52 61 65 320 25 491 -12 52 -21 118 -20 148 2 72 -9 88 -63 97 -25 3 -45 10 -45 15 0 15 -54 10 -78 -7z m63 -98 c10 4 15 0 15 -15 0 -12 12 -79 28 -149 30 -141 34 -248 13 -350 -12 -53 -20 -67 -52 -93 -48 -38 -101 -54 -129 -39 -17 9 -20 20 -19 73 0 61 3 81 32 247 8 47 20 137 27 200 14 145 13 142 45 130 13 -5 32 -7 40 -4z" />
</ns0:g>
</g></svg>