<?xml version='1.0' encoding='utf-8'?>
<svg xmlns:ns0="http://www.w3.org/2000/svg" xmlns="http://www.w3.org/2000/svg" width="235" height="136" viewBox="0 0 235 136"><g transform="translate(-2.2702360734220406,-125.18578438869734) scale(0.05739972241727762)"><ns0:metadata>
Created by potrace 1.16, written by Peter Selinger 2001-2019
</ns0:metadata>
<ns0:g transform="translate(0.000000,204.000000) scale(0.100000,-0.100000)" fill="#000000" stroke="none">
<ns0:path d="M1213 1938 c-13 -6 -23 -17 -23 -23 0 -7 -6 -18 -14 -24 -7 -6 -21 -59 -32 -119 -17 -97 -22 -110 -52 -139 -18 -18 -38 -33 -43 -33 -5 0 -22 -11 -37 -25 -15 -14 -36 -28 -47 -31 -29 -10 -115 -84 -115 -100 0 -7 -15 -20 -34 -28 -18 -8 -37 -19 -40 -25 -22 -35 -38 25 -25 93 4 23 10 58 14 78 5 33 12 41 49 57 59 27 72 45 58 76 -13 28 -38 32 -66 10 -22 -17 -56 -20 -56 -6 0 6 4 12 9 15 5 4 12 24 16 47 4 22 13 43 21 46 8 3 14 16 14 29 0 31 -60 58 -107 49 -39 -7 -49 -35 -59 -167 l-7 -86 -48 -42 c-32 -27 -49 -50 -49 -65 0 -32 37 -75 64 -75 26 0 36 -29 36 -105 0 -51 -9 -60 -115 -115 -98 -51 -135 -82 -135 -115 0 -24 40 -55 71 -55 6 0 40 23 76 51 36 28 67 49 69 46 9 -8 7 -41 -5 -101 -6 -33 -11 -85 -11 -115 0 -56 -24 -192 -38 -218 -5 -7 -6 -29 -4 -48 4 -34 5 -35 48 -35 42 0 44 1 53 38 23 85 39 183 46 277 8 125 21 194 39 214 8 9 20 38 27 64 9 36 19 51 39 62 16 8 38 30 50 50 20 32 25 35 54 29 29 -5 40 1 97 50 35 30 65 49 67 43 1 -7 -13 -53 -32 -102 -51 -135 -60 -155 -67 -155 -3 0 -18 11 -33 25 -32 30 -100 35 -110 9 -14 -36 -4 -63 38 -105 l44 -44 -25 -50 c-14 -27 -38 -65 -53 -85 -15 -19 -37 -52 -49 -73 -19 -31 -20 -38 -8 -43 26 -9 141 89 217 185 l25 32 50 -16 c28 -9 59 -20 70 -25 127 -53 214 -51 203 6 -4 22 -73 57 -145 75 -30 7 -57 19 -60 26 -3 7 -11 13 -17 13 -7 0 -20 6 -30 13 -18 13 -15 25 34 132 14 29 36 101 55 173 9 35 26 82 38 105 22 44 141 167 160 167 9 0 13 -83 15 -303 5 -437 5 -462 2 -570 -2 -54 1 -102 6 -106 18 -17 51 -21 68 -8 16 12 20 37 27 183 5 93 6 219 3 279 -10 159 -10 147 -1 425 5 140 6 267 2 283 -9 34 -41 36 -79 6 -24 -19 -29 -20 -44 -6 -9 8 -41 20 -70 26 -62 13 -60 13 -89 -1z m147 -67 c0 -13 -90 -84 -98 -77 -11 11 21 60 48 73 29 15 50 17 50 4z" />
<ns0:path d="M591 498 l-43 -20 6 -44 c6 -44 21 -84 54 -141 17 -29 19 -30 30 -12 7 10 23 19 37 19 21 0 25 5 25 29 0 17 -4 33 -10 36 -13 8 -13 62 1 70 5 4 15 18 20 32 20 54 -38 69 -120 31z" />
<ns0:path d="M1519 481 c-58 -59 -26 -160 82 -261 44 -40 56 -45 97 -34 30 9 28 34 -7 66 -44 42 -81 129 -81 192 0 40 -4 55 -16 60 -29 11 -45 6 -75 -23z" />
<ns0:path d="M1113 443 c-33 -22 -28 -45 15 -80 30 -24 45 -29 83 -27 57 2 109 28 109 54 0 25 -7 28 -63 32 -34 2 -47 8 -51 21 -5 22 -62 22 -93 0z" />
<ns0:path d="M860 383 c-38 -15 -41 -66 -5 -89 35 -23 88 -26 152 -9 70 18 73 21 73 60 l0 35 -62 -2 c-35 -2 -81 1 -103 4 -22 4 -47 5 -55 1z" />
</ns0:g>
</g><g transform="translate(2.725906918472333,34.66223898157432) scale(0.05739972241727762)"><ns0:metadata>
Created by potrace 1.16, written by Peter Selinger 2001-2019
</ns0:metadata>
<ns0:g transform="translate(0.000000,209.000000) scale(0.100000,-0.100000)" fill="#000000" stroke="none">
<ns0:path d="M1565 1971 c-16 -10 -41 -31 -55 -46 -14 -15 -68 -62 -120 -104 -52 -42 -102 -83 -111 -91 -53 -49 -148 -107 -301 -187 -34 -17 -70 -60 -88 -103 -13 -31 -12 -34 9 -51 13 -11 31 -19 40 -19 19 0 94 66 104 93 3 9 13 17 21 17 32 0 29 -11 -44 -145 -71 -130 -149 -242 -220 -318 -41 -43 -82 -89 -90 -102 -8 -12 -40 -49 -70 -82 l-56 -60 -16 39 c-13 30 -22 38 -42 38 -15 0 -26 6 -26 14 0 27 56 165 97 240 21 38 30 151 13 171 -18 22 -41 19 -65 -9 -22 -26 -65 -44 -65 -27 0 6 9 30 19 53 28 62 56 134 81 206 36 103 11 192 -49 177 -36 -8 -61 -41 -61 -80 0 -65 -30 -162 -94 -305 -82 -185 -119 -258 -151 -305 -46 -68 -28 -115 43 -115 24 0 37 9 65 48 19 26 46 57 60 68 13 12 27 28 29 35 3 8 8 11 12 8 9 -8 -21 -104 -55 -174 -41 -86 -79 -188 -79 -212 0 -11 8 -27 18 -36 34 -31 62 -21 121 43 53 56 59 60 90 54 28 -6 37 -3 53 17 12 15 21 20 24 12 3 -7 22 -17 42 -24 108 -36 171 -197 128 -328 -9 -28 -16 -56 -16 -63 0 -7 -9 -19 -20 -26 -25 -15 -26 -48 -2 -61 21 -11 51 5 89 49 33 39 58 134 57 220 -1 64 -6 86 -36 150 -19 41 -49 88 -67 104 -17 17 -31 35 -31 41 0 7 50 65 111 130 61 65 122 139 137 164 14 25 37 59 50 75 13 16 37 57 53 90 35 73 78 136 99 146 43 20 55 28 57 41 5 23 -12 40 -53 54 -51 17 -53 30 -9 51 20 9 41 24 48 33 10 14 92 71 136 96 20 11 5 -30 -29 -83 -16 -23 -40 -77 -53 -120 -39 -119 -62 -166 -96 -195 -42 -35 -65 -88 -50 -120 9 -19 4 -36 -30 -104 -23 -45 -41 -86 -41 -91 0 -5 -11 -29 -24 -53 -28 -51 -34 -101 -42 -359 -6 -193 4 -279 47 -374 24 -54 63 -70 91 -36 10 12 22 19 27 16 14 -9 74 15 96 38 11 12 34 30 50 41 51 32 125 107 125 127 0 24 -28 23 -60 -2 -33 -26 -53 -26 -46 0 3 11 9 30 12 43 7 29 37 87 45 87 3 0 18 -22 32 -49 32 -59 46 -71 86 -76 58 -7 62 15 76 406 7 190 10 370 7 400 -8 89 -34 91 -111 12 -73 -75 -194 -189 -246 -231 -72 -59 -75 -62 -80 -62 -12 0 -3 39 20 85 56 110 110 202 129 220 29 27 80 112 97 162 18 50 19 57 4 72 -21 24 -19 36 15 96 17 29 44 86 60 126 17 40 48 95 69 123 21 28 42 60 48 71 15 29 15 108 1 128 -12 16 -15 16 -43 -2z m-70 -1002 c7 -48 -3 -373 -13 -468 -2 -11 -5 -11 -17 -1 -8 7 -15 18 -15 24 0 6 -14 38 -30 71 -17 33 -30 65 -30 72 0 19 -55 53 -87 53 -54 0 -70 -46 -33 -93 11 -14 20 -40 20 -60 0 -81 -86 -276 -137 -312 -18 -13 -21 -12 -32 11 -15 34 -13 292 3 368 9 42 18 61 32 67 24 9 64 47 64 60 0 6 10 23 23 38 35 41 227 221 237 221 4 0 11 -23 15 -51z" />
<ns0:path d="M956 1955 c-20 -30 -20 -45 -2 -70 21 -31 28 -91 16 -136 -13 -47 -5 -61 28 -52 32 8 82 115 76 163 -7 55 -23 98 -42 106 -37 16 -61 13 -76 -11z" />
<ns0:path d="M706 1433 c-17 -23 -17 -30 -7 -60 9 -23 12 -87 11 -196 -3 -204 -4 -197 20 -197 13 0 22 9 26 28 4 15 13 36 19 47 29 48 53 363 29 384 -5 5 -25 11 -44 14 -29 4 -38 1 -54 -20z" />
<ns0:path d="M527 530 c-14 -11 -34 -39 -45 -63 -19 -40 -43 -66 -135 -142 -25 -20 -37 -38 -37 -56 0 -28 37 -69 62 -69 8 0 42 24 75 53 32 28 74 64 93 78 30 23 34 31 36 82 1 31 5 60 8 66 10 15 -4 59 -19 65 -8 3 -25 -4 -38 -14z" />
</ns0:g>
</g><g transform="translate(0.24698259686863366,198.11415446659532) scale(0.05739972241727762)"><ns0:metadata>
Created by potrace 1.16, written by Peter Selinger 2001-2019
</ns0:metadata>
<ns0:g transform="translate(0.000000,217.000000) scale(0.100000,-0.100000)" fill="#000000" stroke="none">
<ns0:path d="M1464 2156 c-11 -8 -45 -52 -77 -98 -31 -47 -68 -95 -82 -108 -14 -13 -25 -27 -25 -32 0 -4 -15 -27 -33 -51 -18 -23 -38 -61 -46 -83 -12 -39 -12 -44 9 -72 l22 -30 -27 -36 c-15 -20 -31 -36 -36 -36 -5 0 -9 -9 -9 -21 0 -13 11 -25 35 -35 19 -8 35 -18 35 -23 0 -6 -39 -34 -86 -63 -47 -29 -96 -60 -109 -68 -22 -13 -25 -12 -49 13 -26 28 -57 34 -100 17 -32 -12 -35 -54 -6 -72 11 -7 20 -20 20 -28 0 -9 -35 -47 -77 -85 -130 -116 -157 -147 -192 -218 -39 -78 -36 -100 17 -105 22 -2 34 3 47 20 9 13 36 50 60 83 25 33 45 65 45 70 0 6 30 30 65 55 35 25 81 58 102 73 60 43 182 130 222 156 20 13 47 33 61 45 14 12 44 31 68 41 23 10 47 24 52 31 6 6 37 24 68 39 31 14 70 34 87 42 39 22 135 44 135 31 0 -15 -76 -101 -226 -255 -138 -142 -142 -145 -190 -150 -60 -6 -147 -45 -177 -79 -11 -13 -28 -44 -37 -67 -22 -58 -10 -87 36 -87 29 0 36 6 53 38 26 51 59 78 103 86 34 6 38 4 44 -18 14 -59 -102 -279 -198 -373 -39 -38 -52 -42 -42 -10 4 12 7 69 6 125 -2 111 -18 153 -62 167 -58 18 -100 -17 -114 -96 -9 -53 10 -213 30 -243 14 -23 15 -32 4 -73 -8 -25 -29 -69 -48 -97 -19 -28 -36 -65 -39 -83 -5 -29 -2 -34 31 -49 33 -16 36 -21 36 -59 0 -101 69 -152 217 -162 85 -5 91 -4 177 31 49 20 103 48 121 62 38 29 114 134 134 184 43 112 50 141 51 195 0 132 -89 183 -275 156 -38 -6 -71 -8 -73 -6 -3 2 26 65 64 140 66 133 68 138 69 216 0 69 4 83 20 95 29 20 129 110 197 179 34 33 65 60 69 60 5 0 16 11 25 25 10 14 29 39 45 55 15 17 35 56 44 87 14 49 14 62 3 85 -13 27 -16 28 -86 27 -42 0 -77 -5 -84 -12 -7 -7 -22 -12 -34 -12 -20 0 -48 -13 -198 -94 -38 -20 -71 -35 -73 -32 -3 3 4 18 16 34 24 34 27 63 9 91 -9 15 -8 22 3 34 8 8 26 30 41 48 123 151 133 170 107 196 -9 9 -6 23 11 57 12 25 25 46 30 46 10 0 60 73 60 88 0 17 -71 15 -96 -2z m-534 -1341 c0 -62 -11 -84 -24 -49 -8 20 -8 78 0 98 13 35 24 13 24 -49z m523 -160 c33 -24 32 -82 -2 -159 -62 -137 -142 -213 -281 -268 -116 -46 -219 -4 -220 89 0 23 -4 44 -10 48 -13 8 -2 32 47 96 48 64 87 96 170 140 108 57 256 85 296 54z" />
<ns0:path d="M814 1987 c-6 -7 -18 -44 -28 -82 -9 -39 -24 -97 -32 -130 -13 -49 -55 -143 -122 -272 -10 -17 -74 -181 -85 -214 -3 -9 -1 -22 3 -30 13 -20 35 4 105 111 l60 91 48 -3 c33 -2 47 1 47 10 0 6 4 12 10 12 14 0 210 190 210 204 0 6 13 22 29 36 21 18 27 30 22 44 -7 17 -9 17 -36 -8 -35 -33 -48 -33 -33 -1 10 22 9 29 -10 47 -18 18 -25 20 -44 11 -13 -7 -38 -13 -57 -16 l-33 -4 6 41 c17 102 18 136 6 151 -15 18 -51 19 -66 2z m156 -284 c-1 -15 -94 -76 -124 -82 -22 -5 -32 -13 -34 -29 -2 -12 -8 -22 -14 -22 -6 0 -7 7 -3 18 4 9 11 32 17 50 8 28 13 32 42 32 19 0 44 9 57 20 24 19 59 27 59 13z" />
</ns0:g>
</g></svg>