<?xml version='1.0' encoding='utf-8'?>
<svg xmlns:ns0="http://www.w3.org/2000/svg" xmlns="http://www.w3.org/2000/svg" width="235" height="109" viewBox="0 0 235 109"><g transform="translate(-1.5225994467474493,-85.94611072087135) scale(0.04370397982580219)"><ns0:metadata>
Created by potrace 1.16, written by Peter Selinger 2001-2019
</ns0:metadata>
<ns0:g transform="translate(0.000000,207.000000) scale(0.100000,-0.100000)" fill="#000000" stroke="none">
<ns0:path d="M1098 1540 c-20 -11 -46 -32 -57 -47 -12 -16 -31 -41 -43 -56 -11 -15 -30 -45 -41 -65 -11 -20 -30 -47 -42 -60 -13 -12 -29 -37 -36 -55 -7 -17 -20 -44 -30 -58 -28 -41 -111 -269 -116 -319 -6 -66 20 -102 94 -130 126 -47 263 -13 338 86 38 49 49 44 40 -18 -9 -61 -8 -53 -3 -223 5 -133 13 -166 48 -185 36 -19 85 28 64 61 -4 7 -6 94 -5 193 1 146 5 197 22 263 15 60 20 104 17 159 -4 89 -19 108 -71 93 -18 -5 -46 -9 -64 -9 -18 0 -48 -8 -68 -17 -43 -20 -48 -58 -11 -92 19 -18 30 -21 66 -15 l43 7 -7 -49 c-14 -94 -15 -95 -41 -78 -30 20 -55 12 -83 -26 -13 -17 -29 -30 -36 -30 -7 0 -25 -9 -39 -20 -31 -25 -105 -27 -153 -4 -27 13 -34 22 -34 46 0 75 115 329 198 438 23 30 42 60 42 67 0 7 14 28 31 48 25 29 38 35 69 35 50 0 64 30 28 60 -29 25 -73 24 -120 0z" />
</ns0:g>
</g><g transform="translate(2.990779702067414,63.52980749644587) scale(0.04370397982580219)"><ns0:metadata>
Created by potrace 1.16, written by Peter Selinger 2001-2019
</ns0:metadata>
<ns0:g transform="translate(0.000000,210.000000) scale(0.100000,-0.100000)" fill="#000000" stroke="none">
<ns0:path d="M935 1134 c-55 -7 -128 -13 -163 -12 -53 1 -66 -2 -87 -22 -35 -33 -32 -66 8 -90 18 -12 41 -18 52 -15 11 3 70 13 130 21 91 12 121 13 173 3 68 -14 107 -6 126 24 16 24 -2 48 -55 73 -66 32 -76 33 -184 18z" />
</ns0:g>
</g><g transform="translate(-1.4248320662610467,160.10052620116267) scale(0.04370397982580219)"><ns0:metadata>
Created by potrace 1.16, written by Peter Selinger 2001-2019
</ns0:metadata>
<ns0:g transform="translate(0.000000,204.000000) scale(0.100000,-0.100000)" fill="#000000" stroke="none">
<ns0:path d="M756 1560 c-69 -21 -79 -51 -81 -245 -1 -138 -17 -331 -36 -430 -6 -33 -15 -98 -20 -145 -10 -101 -22 -164 -38 -205 -14 -35 -7 -88 14 -105 27 -22 81 -4 104 36 30 50 35 78 17 93 -15 13 -13 66 4 84 6 7 78 -20 90 -34 3 -4 23 -15 45 -26 90 -46 157 -86 162 -99 5 -13 33 -32 119 -84 23 -14 54 -34 69 -44 25 -18 74 -24 95 -11 23 14 9 51 -29 78 -22 15 -43 27 -49 27 -5 0 -29 17 -53 38 -91 77 -146 119 -214 162 -73 45 -115 79 -115 90 0 4 23 33 51 66 168 195 178 210 268 389 40 80 68 123 83 130 14 6 24 20 26 36 3 22 -2 29 -26 37 -25 8 -39 6 -80 -13 -45 -21 -52 -29 -71 -79 -19 -52 -52 -118 -104 -210 -12 -22 -35 -53 -51 -70 -16 -17 -46 -53 -67 -81 -21 -27 -59 -68 -85 -89 l-47 -39 7 54 c14 117 27 271 33 407 3 78 10 145 14 148 5 3 9 15 9 28 0 13 9 31 20 41 27 25 25 49 -5 63 -14 7 -27 12 -28 11 -1 0 -15 -5 -31 -9z" />
</ns0:g>
</g><g transform="translate(-0.6206242607862578,281.650540264569) scale(0.04370397982580219)"><ns0:metadata>
Created by potrace 1.16, written by Peter Selinger 2001-2019
</ns0:metadata>
<ns0:g transform="translate(0.000000,211.000000) scale(0.100000,-0.100000)" fill="#000000" stroke="none">
<ns0:path d="M1125 1871 c-39 -10 -145 -64 -215 -109 -70 -46 -177 -102 -195 -102 -7 0 -35 -15 -61 -33 -27 -18 -70 -45 -97 -60 -58 -34 -106 -102 -88 -126 6 -9 19 -28 29 -43 22 -36 49 -35 70 2 9 16 20 30 23 30 4 0 6 -100 5 -222 -1 -172 -4 -222 -14 -226 -7 -2 -21 -12 -30 -21 -9 -10 -33 -26 -52 -37 -19 -10 -46 -27 -59 -36 -32 -24 -41 -15 -37 33 3 31 12 49 38 75 20 19 38 48 42 65 12 59 -18 67 -58 15 -19 -25 -37 -37 -68 -43 -26 -5 -48 -17 -59 -33 -18 -24 -18 -29 2 -140 18 -104 18 -128 8 -260 -13 -171 -13 -164 -11 -262 2 -61 5 -78 17 -78 13 0 45 83 45 119 0 9 7 29 15 45 9 16 18 59 21 96 3 37 9 108 12 156 5 65 11 88 20 86 7 -1 25 6 40 16 15 10 39 23 55 30 24 10 27 9 27 -7 0 -11 -14 -31 -30 -44 -17 -14 -30 -30 -30 -36 0 -5 -8 -16 -19 -23 -10 -7 -26 -28 -36 -47 -22 -44 -38 -221 -24 -274 9 -33 13 -38 36 -35 33 4 98 92 108 146 4 20 15 52 25 72 9 19 23 60 29 90 10 49 18 61 73 111 69 63 71 85 7 75 l-38 -6 10 32 c8 31 82 107 104 108 6 0 30 14 55 30 25 16 48 30 52 30 10 0 -40 -176 -66 -235 -13 -27 -36 -79 -51 -115 -16 -36 -34 -72 -41 -80 -15 -20 -64 -117 -64 -129 0 -13 35 -20 52 -10 9 5 31 32 49 61 18 29 42 64 55 78 50 57 121 225 164 387 10 40 24 81 29 91 6 11 7 22 4 26 -8 8 41 56 56 56 6 0 15 8 20 18 5 10 22 24 38 32 15 8 43 25 61 38 18 13 35 22 38 20 2 -2 -2 -40 -10 -84 -8 -43 -17 -113 -21 -154 -8 -80 -30 -208 -37 -216 -3 -2 -18 15 -34 38 -34 51 -41 57 -63 53 -9 -2 -24 -4 -34 -4 -27 -1 -42 -44 -28 -78 12 -28 110 -113 130 -113 6 0 15 -8 20 -19 12 -22 -7 -143 -22 -138 -10 3 -61 86 -72 117 -7 18 -45 45 -45 32 0 -23 46 -166 72 -227 46 -105 64 -127 101 -123 26 3 33 9 40 38 5 19 9 51 8 70 0 19 6 81 14 136 8 56 15 126 15 155 0 66 46 405 66 478 8 31 14 86 14 123 0 68 0 68 -27 68 -16 0 -39 -7 -53 -15 -14 -8 -32 -17 -40 -21 -30 -14 -149 -94 -155 -104 -19 -30 -24 -2 -17 83 9 121 9 272 -1 323 l-8 40 83 47 c46 26 87 48 92 50 5 2 6 15 2 30 -7 29 -22 32 -81 18z m-201 -238 c12 -30 17 -257 7 -346 -8 -82 -11 -90 -42 -118 -18 -16 -37 -29 -43 -29 -6 0 -40 -23 -75 -50 -35 -28 -67 -50 -72 -50 -5 0 -8 30 -7 68 1 37 0 110 -1 163 -3 78 0 108 18 162 17 50 20 71 12 86 -15 27 -17 25 37 50 97 47 132 66 132 73 0 15 28 8 34 -9z m-463 -1188 c-25 -50 -26 -38 -3 34 13 43 18 50 20 31 1 -14 -6 -43 -17 -65z" />
</ns0:g>
</g><g transform="translate(-0.7412423195250426,395.21382202822883) scale(0.04370397982580219)"><ns0:metadata>
Created by potrace 1.16, written by Peter Selinger 2001-2019
</ns0:metadata>
<ns0:g transform="translate(0.000000,207.000000) scale(0.100000,-0.100000)" fill="#000000" stroke="none">
<ns0:path d="M574 1983 c-7 -12 -9 -61 -6 -135 4 -98 2 -122 -12 -143 -9 -14 -21 -25 -26 -25 -6 0 -29 -8 -53 -18 -49 -22 -104 -41 -131 -47 -10 -2 -24 -9 -31 -15 -7 -6 -43 -13 -79 -17 -109 -10 -148 -62 -90 -120 22 -22 32 -25 67 -20 23 4 89 29 146 58 58 29 119 55 135 59 17 4 38 9 46 11 8 2 14 0 13 -6 0 -5 -9 -66 -19 -135 -20 -144 -59 -241 -137 -343 -14 -19 -44 -72 -67 -118 -22 -45 -46 -90 -53 -98 -8 -9 -47 -82 -87 -164 -49 -97 -88 -163 -117 -192 -46 -48 -55 -75 -24 -75 43 0 129 86 191 193 24 39 55 90 69 111 14 22 40 65 56 95 43 80 97 161 107 161 5 0 5 -55 1 -122 -4 -68 -8 -188 -7 -267 0 -140 1 -144 24 -163 l25 -20 19 25 c16 22 19 47 22 164 3 136 18 321 28 330 8 9 43 -7 68 -31 14 -12 39 -28 57 -35 36 -16 38 -24 11 -78 -23 -48 -82 -103 -111 -103 -16 0 -20 -5 -17 -28 3 -23 8 -27 41 -30 31 -3 43 2 68 28 46 45 68 55 75 33 17 -55 38 -86 81 -117 52 -39 85 -44 135 -22 18 8 55 23 83 33 31 11 67 36 96 66 l47 48 39 -21 c21 -11 58 -34 83 -50 25 -16 62 -39 83 -50 21 -11 46 -28 55 -36 9 -9 39 -29 65 -46 27 -17 60 -49 73 -70 14 -21 31 -41 39 -44 8 -3 29 -29 46 -57 17 -29 35 -54 38 -57 4 -3 20 -26 36 -51 68 -105 153 -176 233 -194 25 -5 33 -3 39 11 4 12 -1 22 -18 33 -13 9 -40 32 -60 52 -20 19 -43 38 -52 42 -9 3 -17 15 -17 25 0 11 -8 30 -19 43 -39 50 -141 230 -141 250 0 14 -12 25 -37 36 -21 8 -42 21 -46 29 -7 12 -59 49 -143 100 -66 40 -203 135 -214 148 -9 11 -7 23 8 53 35 69 81 217 91 290 15 113 -12 194 -92 280 -80 86 -87 94 -87 104 0 15 30 60 75 109 87 99 134 213 114 278 l-11 32 -69 0 c-39 0 -79 -5 -89 -10 -10 -6 -38 -11 -62 -12 -24 -1 -50 -4 -58 -8 -8 -4 -28 -14 -44 -21 -68 -32 -51 -109 23 -109 21 0 44 6 50 14 13 15 148 52 158 43 8 -8 -27 -62 -90 -136 -43 -52 -63 -68 -102 -80 -55 -18 -57 -20 -80 -121 -43 -188 -145 -432 -186 -445 -29 -9 -43 -33 -30 -49 13 -15 -1 -66 -18 -66 -26 0 -123 77 -179 141 l-32 37 15 57 c8 31 24 72 36 91 20 33 20 36 4 54 -16 18 -17 27 -5 116 25 186 50 231 174 309 38 24 54 43 79 94 33 68 30 93 -12 99 -15 2 -21 -2 -21 -15 0 -26 -141 -153 -169 -153 -6 0 -8 23 -4 58 6 77 9 82 38 82 34 0 33 26 -2 35 -15 3 -39 15 -54 26 -34 24 -81 25 -95 2z m26 -552 c0 -6 -4 -13 -10 -16 -5 -3 -10 1 -10 9 0 9 5 16 10 16 6 0 10 -4 10 -9z m616 -63 c30 -30 63 -74 74 -101 18 -42 20 -56 12 -115 -6 -38 -28 -112 -54 -172 -50 -120 -64 -130 -120 -83 -18 16 -59 46 -91 67 -86 58 -86 56 19 272 24 50 44 96 44 102 0 15 43 81 53 82 5 0 33 -24 63 -52z m-273 -482 c18 -13 52 -34 77 -46 50 -25 90 -58 90 -74 0 -6 -22 -32 -48 -57 -73 -71 -156 -88 -200 -40 -63 68 -74 96 -53 130 7 12 14 10 36 -8 35 -27 71 -27 85 0 13 24 7 49 -12 49 -22 0 -41 39 -27 56 15 18 15 18 52 -10z" />
</ns0:g>
</g><g transform="translate(1.7700468417981483,530.2957604816196) scale(0.04370397982580219)"><ns0:metadata>
Created by potrace 1.16, written by Peter Selinger 2001-2019
</ns0:metadata>
<ns0:g transform="translate(0.000000,205.000000) scale(0.100000,-0.100000)" fill="#000000" stroke="none">
<ns0:path d="M1263 1837 c-106 -60 -176 -97 -183 -97 -5 0 -15 -6 -23 -14 -8 -8 -54 -41 -102 -73 -134 -88 -145 -97 -215 -161 l-65 -60 24 -26 c14 -14 34 -26 45 -26 12 1 53 28 91 61 39 33 102 81 140 106 39 26 88 61 110 78 35 28 118 75 130 75 11 0 4 -39 -21 -114 -24 -78 -30 -124 -65 -526 -10 -113 -9 -234 7 -538 5 -94 -3 -116 -49 -137 -18 -8 -44 -24 -58 -36 -15 -11 -41 -24 -59 -28 -42 -8 -48 -24 -15 -39 36 -17 94 -15 130 4 17 8 52 18 78 21 41 5 50 11 64 37 18 35 18 29 11 386 -9 415 12 676 76 931 38 154 38 189 -3 189 -14 0 -36 -6 -48 -13z m-173 -147 c0 -5 -4 -10 -10 -10 -5 0 -10 5 -10 10 0 6 5 10 10 10 6 0 10 -4 10 -10z m-96 -71 c-3 -5 -10 -7 -15 -3 -5 3 -7 10 -3 15 3 5 10 7 15 3 5 -3 7 -10 3 -15z" />
<ns0:path d="M158 1423 c-41 -10 -30 -103 12 -103 11 0 42 -12 69 -27 47 -27 50 -27 69 -10 23 21 18 64 -9 72 -10 4 -19 13 -19 21 0 40 -61 63 -122 47z" />
<ns0:path d="M979 1291 c-24 -17 -62 -44 -84 -60 -22 -17 -53 -37 -68 -46 -15 -9 -36 -24 -47 -35 -10 -10 -35 -26 -55 -35 -19 -10 -58 -38 -85 -62 l-49 -44 -71 37 c-61 32 -74 35 -96 26 -31 -15 -46 -52 -34 -89 38 -125 58 -220 65 -303 7 -75 15 -88 48 -73 24 11 44 64 31 84 -3 5 0 25 5 45 7 27 6 55 -4 106 -8 38 -15 85 -15 104 0 31 3 34 28 34 16 0 37 -7 48 -15 29 -22 60 -18 107 12 23 15 44 30 47 33 3 3 28 20 57 38 28 18 57 40 64 48 7 9 26 22 41 30 l29 15 -2 -58 c-1 -32 1 -137 6 -234 5 -130 4 -181 -4 -198 -10 -17 -10 -26 0 -37 18 -22 43 -17 75 17 l29 30 1 257 c0 150 5 282 12 316 8 43 9 63 1 73 -17 19 -30 16 -80 -16z" />
<ns0:path d="M276 992 c-8 -16 -30 -41 -48 -56 -18 -14 -39 -31 -46 -37 -8 -7 -10 -22 -5 -52 5 -23 8 -60 7 -82 -1 -52 -24 -319 -31 -367 -4 -30 -2 -39 12 -45 25 -9 51 25 59 79 4 24 13 52 20 63 15 23 24 60 30 120 21 204 29 262 41 286 20 38 16 113 -7 117 -10 2 -23 -8 -32 -26z" />
<ns0:path d="M730 967 c-26 -13 -36 -43 -22 -65 5 -7 27 -19 48 -27 50 -17 54 -40 17 -106 -30 -56 -62 -92 -108 -124 -81 -55 -98 -103 -46 -125 34 -14 59 -8 92 21 13 11 61 45 106 76 46 31 86 60 89 65 4 6 0 16 -8 24 -11 12 -21 12 -43 4 -15 -6 -30 -8 -33 -6 -5 5 12 45 49 120 18 35 19 40 4 62 -8 13 -15 32 -15 43 0 12 -12 26 -32 35 -37 19 -65 20 -98 3z" />
</ns0:g>
</g><g transform="translate(-0.07015601618189748,643.7151680484099) scale(0.04370397982580219)"><ns0:metadata>
Created by potrace 1.16, written by Peter Selinger 2001-2019
</ns0:metadata>
<ns0:g transform="translate(0.000000,205.000000) scale(0.100000,-0.100000)" fill="#000000" stroke="none">
<ns0:path d="M833 1670 c-26 -11 -32 -60 -9 -79 7 -6 16 -32 19 -59 4 -26 9 -57 13 -68 5 -17 -6 -30 -58 -70 -35 -26 -93 -65 -130 -85 -66 -36 -70 -37 -143 -32 -65 5 -78 3 -96 -13 -18 -17 -20 -26 -14 -77 3 -32 15 -93 26 -135 15 -57 21 -120 24 -242 6 -226 13 -285 37 -307 19 -17 21 -17 39 6 10 13 20 37 20 55 1 17 3 112 5 211 7 355 7 350 26 347 25 -4 56 15 109 65 25 25 55 50 66 56 11 7 39 25 62 41 23 16 45 26 49 22 11 -11 19 -288 9 -309 -5 -10 -23 -25 -40 -32 -18 -7 -53 -33 -79 -58 -63 -59 -65 -93 -9 -134 l39 -28 -36 -50 c-20 -27 -49 -70 -66 -95 -56 -85 -180 -219 -201 -220 -6 0 -19 -14 -29 -30 -20 -36 -13 -50 34 -70 34 -14 42 -10 133 64 30 24 68 51 85 60 16 8 32 22 35 31 7 16 32 20 41 7 5 -8 2 -22 -29 -137 -7 -27 -12 -75 -10 -105 2 -30 4 -63 4 -73 1 -24 58 -56 161 -90 73 -24 101 -28 200 -29 131 0 247 23 330 67 14 7 50 20 80 28 30 7 81 31 114 53 32 21 68 44 79 51 12 7 25 20 28 30 11 27 -1 113 -22 155 -11 21 -19 46 -19 56 0 11 -11 40 -25 66 -14 26 -25 54 -25 62 0 21 -28 17 -40 -6 -17 -32 -15 -170 3 -214 25 -57 21 -70 -25 -100 -46 -30 -179 -86 -204 -86 -8 0 -28 -7 -44 -15 -19 -10 -83 -19 -180 -25 -146 -10 -151 -10 -205 13 -64 27 -109 63 -101 82 3 8 10 41 16 75 6 33 21 93 34 133 13 39 27 87 31 104 3 18 10 33 14 33 5 0 26 -14 47 -31 32 -26 44 -29 74 -24 41 8 64 26 79 63 23 58 61 366 61 498 0 73 6 178 12 235 15 124 13 306 -3 325 -6 8 -19 14 -29 14 -16 0 -137 -73 -150 -91 -10 -12 -72 -40 -78 -35 -3 4 -20 39 -37 79 -33 77 -51 88 -102 67z m295 -310 c-6 -63 -12 -189 -12 -280 -1 -91 -7 -196 -13 -235 -7 -38 -17 -106 -23 -150 -14 -93 -22 -106 -50 -80 -26 23 -25 29 5 59 45 45 23 80 -36 56 -16 -7 -32 -10 -35 -7 -3 3 2 36 11 74 14 54 18 120 20 328 2 143 6 268 10 277 9 22 117 90 126 80 4 -4 3 -59 -3 -122z m-298 -724 c0 -19 -37 -63 -45 -54 -4 3 3 20 16 37 26 35 29 37 29 17z" />
</ns0:g>
</g><g transform="translate(-1.9607050040442573,769.8185871285533) scale(0.04370397982580219)"><ns0:metadata>
Created by potrace 1.16, written by Peter Selinger 2001-2019
</ns0:metadata>
<ns0:g transform="translate(0.000000,204.000000) scale(0.100000,-0.100000)" fill="#000000" stroke="none">
<ns0:path d="M1587 1826 c-21 -8 -52 -31 -70 -51 -39 -46 -57 -63 -93 -93 -16 -13 -66 -60 -112 -105 -148 -144 -203 -253 -164 -320 10 -18 17 -40 15 -50 -3 -10 14 -39 39 -70 24 -28 49 -65 56 -80 14 -32 16 -103 3 -111 -4 -3 -11 -18 -14 -33 -4 -16 -27 -59 -52 -98 -25 -38 -45 -79 -45 -90 0 -11 13 -37 30 -56 23 -29 28 -42 22 -63 -8 -28 -116 -145 -168 -180 -29 -19 -110 -78 -194 -141 -64 -47 -138 -92 -162 -99 -35 -9 -87 -58 -90 -85 -2 -16 6 -30 25 -44 l27 -21 56 28 c53 27 223 86 248 86 7 0 27 8 47 18 71 36 119 52 319 102 122 31 177 40 271 45 95 4 112 2 167 -19 64 -25 144 -91 165 -136 10 -19 20 -25 46 -25 30 0 35 4 47 38 11 33 11 43 -3 72 -9 19 -21 35 -26 35 -5 0 -39 20 -76 45 -37 24 -85 49 -107 54 -21 6 -66 17 -98 25 -77 20 -227 13 -308 -14 -32 -11 -76 -22 -96 -25 -106 -18 -276 -67 -296 -86 -6 -5 -16 -9 -23 -9 -24 0 -2 25 64 75 88 66 193 173 228 233 17 28 33 52 37 52 3 0 16 -30 28 -66 12 -36 32 -77 45 -92 20 -23 26 -25 47 -15 34 16 40 47 43 253 1 96 7 206 14 243 11 64 20 147 41 388 12 138 71 341 110 379 3 3 11 27 18 54 10 40 10 51 0 58 -16 10 -15 10 -61 -6z m-137 -265 c0 -11 -7 -47 -15 -80 -9 -33 -18 -102 -20 -153 -4 -101 -20 -268 -35 -363 -6 -33 -13 -111 -17 -173 -4 -78 -9 -110 -17 -102 -17 17 -25 12 -34 -22 l-8 -32 -23 46 c-25 53 -21 112 9 128 23 12 35 90 33 216 -1 94 -4 105 -33 157 -17 31 -40 59 -51 62 -49 16 -6 105 112 233 27 29 56 64 65 77 19 30 34 32 34 6z m-310 -1281 c0 -5 -7 -10 -15 -10 -8 0 -15 5 -15 10 0 6 7 10 15 10 8 0 15 -4 15 -10z" />
<ns0:path d="M485 1658 c-11 -6 -27 -14 -35 -18 -21 -10 -29 -83 -17 -165 16 -119 17 -517 1 -645 -7 -63 -16 -151 -19 -195 -4 -44 -13 -138 -21 -208 -19 -177 -20 -174 16 -182 62 -14 67 4 105 376 l6 57 57 7 c31 4 73 16 92 28 59 36 169 126 181 150 7 12 24 38 39 57 35 44 47 127 30 199 -13 55 -41 87 -82 95 -15 2 -31 7 -36 10 -4 3 -32 6 -61 7 -28 2 -54 6 -56 9 -2 4 23 36 57 71 88 94 118 145 118 206 0 67 -21 86 -98 89 -87 3 -147 -39 -123 -85 14 -25 37 -33 77 -25 23 4 34 2 34 -6 0 -21 -57 -94 -129 -164 l-71 -69 -1 57 c-1 31 -2 71 -4 89 -2 32 7 88 27 180 9 41 8 51 -7 68 -20 21 -49 24 -80 7z m322 -533 c29 -20 37 -75 19 -120 -18 -42 -89 -131 -146 -182 -49 -44 -126 -81 -141 -66 -7 7 -7 44 0 113 6 56 11 133 11 171 0 47 4 71 13 73 102 29 211 34 244 11z m-307 -295 c0 -5 -2 -10 -4 -10 -3 0 -8 5 -11 10 -3 6 -1 10 4 10 6 0 11 -4 11 -10z" />
<ns0:path d="M1018 1378 c-30 -11 -56 -74 -38 -92 29 -29 -13 -320 -48 -333 -9 -4 -10 -9 -2 -19 8 -9 8 -18 1 -33 -6 -11 -11 -44 -11 -73 0 -29 -7 -93 -16 -143 -28 -160 -29 -183 -9 -205 20 -23 58 -26 72 -7 11 14 43 213 53 332 4 44 18 125 33 180 29 112 52 309 42 355 -5 24 -32 53 -47 49 -2 0 -15 -5 -30 -11z" />
</ns0:g>
</g><g transform="translate(-2.957997245070942,919.6781384275023) scale(0.04370397982580219)"><ns0:metadata>
Created by potrace 1.16, written by Peter Selinger 2001-2019
</ns0:metadata>
<ns0:g transform="translate(0.000000,214.000000) scale(0.100000,-0.100000)" fill="#000000" stroke="none">
<ns0:path d="M1216 1463 c-59 -63 -96 -116 -96 -137 0 -12 -13 -49 -30 -82 -36 -75 -47 -122 -55 -250 l-7 -100 46 -85 c25 -46 52 -98 59 -114 8 -17 29 -39 48 -49 35 -18 35 -18 84 5 64 31 92 68 75 99 -11 20 -17 22 -61 16 -48 -7 -49 -6 -66 28 -76 147 -76 147 -70 211 9 92 63 246 120 343 41 70 46 101 19 125 -25 23 -37 21 -66 -10z" />
</ns0:g>
</g><g transform="translate(-0.06271644396701959,1047.6219266448793) scale(0.04370397982580219)"><ns0:metadata>
Created by potrace 1.16, written by Peter Selinger 2001-2019
</ns0:metadata>
<ns0:g transform="translate(0.000000,208.000000) scale(0.100000,-0.100000)" fill="#000000" stroke="none">
<ns0:path d="M1035 1424 c-16 -8 -38 -25 -48 -37 -40 -49 -77 -109 -77 -123 0 -8 -13 -40 -29 -72 -28 -56 -65 -160 -76 -214 -5 -27 -7 -28 -78 -28 -39 -1 -106 -5 -147 -10 -65 -7 -78 -12 -102 -39 -23 -26 -25 -33 -15 -55 16 -34 53 -41 120 -21 50 15 216 22 302 13 l30 -3 -3 100 c-3 89 -1 108 24 175 15 41 31 81 37 87 5 7 22 40 38 74 l29 61 26 -21 c15 -12 39 -21 53 -21 57 0 65 -45 29 -163 -15 -49 -23 -107 -26 -180 l-3 -107 30 -30 29 -30 151 -2 c83 -1 165 -2 183 -2 31 -1 31 0 33 47 2 44 0 49 -24 58 -14 6 -46 8 -71 5 -97 -13 -215 -4 -223 17 -2 7 2 46 9 87 29 165 34 197 34 241 0 25 -9 64 -20 87 -19 39 -35 52 -107 86 -18 8 -33 20 -33 25 0 16 -41 13 -75 -5z" />
</ns0:g>
</g><g transform="translate(-1.3728400416186446,1159.1208193894897) scale(0.04370397982580219)"><ns0:metadata>
Created by potrace 1.16, written by Peter Selinger 2001-2019
</ns0:metadata>
<ns0:g transform="translate(0.000000,206.000000) scale(0.100000,-0.100000)" fill="#000000" stroke="none">
<ns0:path d="M873 1480 c-48 -20 -16 -100 81 -204 80 -85 112 -159 102 -240 -8 -69 -29 -119 -61 -144 -34 -27 -33 -102 2 -102 19 0 -29 -68 -101 -143 -45 -47 -56 -65 -56 -92 0 -74 61 -69 146 14 33 31 67 68 77 81 9 14 35 50 57 80 46 64 49 84 16 105 -23 15 -23 18 -11 53 39 111 43 234 9 307 -31 65 -90 154 -144 215 -8 9 -23 30 -32 46 -18 31 -48 39 -85 24z" />
</ns0:g>
</g></svg>