<?xml version='1.0' encoding='utf-8'?>
<svg xmlns:ns0="http://www.w3.org/2000/svg" xmlns="http://www.w3.org/2000/svg" width="249" height="109" viewBox="0 0 249 109"><g transform="translate(2.4874213724570495,-87.94868518527885) scale(0.0460041892903181)"><ns0:metadata>
Created by potrace 1.16, written by Peter Selinger 2001-2019
</ns0:metadata>
<ns0:g transform="translate(0.000000,206.000000) scale(0.100000,-0.100000)" fill="#000000" stroke="none">
<ns0:path d="M991 1674 c-61 -26 -70 -43 -136 -279 -9 -33 -25 -85 -35 -115 -10 -30 -33 -109 -51 -175 -18 -66 -43 -135 -55 -154 -16 -23 -21 -43 -17 -65 3 -20 -4 -51 -21 -89 -14 -32 -26 -64 -26 -71 0 -8 -12 -37 -27 -66 -21 -41 -25 -56 -17 -78 12 -34 40 -38 81 -13 31 20 52 67 56 125 0 11 11 40 24 63 13 23 23 48 23 56 0 33 36 58 105 74 39 8 79 22 90 29 11 8 25 14 33 14 7 0 18 4 25 10 76 61 72 56 51 68 -15 8 -40 6 -99 -8 -84 -20 -145 -25 -145 -12 0 20 39 161 49 181 16 29 41 111 41 134 0 9 9 39 21 65 50 113 52 114 69 40 7 -29 21 -64 31 -77 11 -13 19 -31 19 -39 0 -9 9 -41 19 -71 53 -155 100 -346 101 -404 0 -21 4 -46 10 -56 5 -10 12 -54 16 -98 6 -67 4 -84 -11 -107 -17 -25 -17 -27 0 -46 26 -28 56 -25 87 11 30 33 31 51 9 202 -6 42 -16 112 -22 154 -16 113 -130 516 -175 622 -14 31 -17 33 -50 28 -29 -5 -35 -3 -32 11 2 10 14 18 30 20 22 3 27 9 33 43 8 45 -2 63 -44 77 -20 7 -37 6 -60 -4z" />
</ns0:g>
</g><g transform="translate(-2.791214015945968,44.950611341364265) scale(0.0460041892903181)"><ns0:metadata>
Created by potrace 1.16, written by Peter Selinger 2001-2019
</ns0:metadata>
<ns0:g transform="translate(0.000000,203.000000) scale(0.100000,-0.100000)" fill="#000000" stroke="none">
<ns0:path d="M1253 873 c-13 -2 -32 -16 -44 -31 -16 -21 -19 -35 -14 -67 3 -22 12 -47 20 -56 8 -8 15 -19 15 -23 0 -4 18 -33 40 -63 22 -31 40 -60 40 -64 0 -5 19 -26 43 -48 30 -29 48 -39 62 -34 29 8 29 9 31 69 2 48 -4 67 -42 140 -24 46 -44 91 -44 100 0 16 -65 85 -78 83 -4 -1 -17 -4 -29 -6z" />
</ns0:g>
</g><g transform="translate(-1.2929376105760753,170.97165178385075) scale(0.0460041892903181)"><ns0:metadata>
Created by potrace 1.16, written by Peter Selinger 2001-2019
</ns0:metadata>
<ns0:g transform="translate(0.000000,206.000000) scale(0.100000,-0.100000)" fill="#000000" stroke="none">
<ns0:path d="M1074 1684 c-21 -8 -61 -19 -89 -24 -86 -17 -234 -102 -310 -177 -26 -26 -53 -42 -77 -47 -20 -3 -38 -13 -41 -21 -10 -26 12 -81 38 -93 34 -16 47 -72 41 -189 -4 -91 -19 -194 -31 -212 -5 -10 -27 -177 -26 -206 0 -11 -7 -43 -15 -71 -8 -28 -19 -87 -24 -130 -7 -66 -6 -82 7 -96 9 -10 22 -18 30 -18 24 0 53 39 53 71 0 28 3 31 23 25 63 -20 104 -18 182 9 86 30 158 67 178 94 7 9 21 21 32 27 11 6 26 23 33 37 7 14 21 28 31 32 10 3 32 28 50 55 18 28 37 50 42 50 6 0 21 25 35 55 27 59 41 168 30 230 -10 53 -53 69 -173 67 -51 0 -93 0 -93 2 0 3 51 71 72 96 7 8 34 44 60 80 26 36 56 77 68 92 34 44 70 131 70 170 0 57 -41 96 -106 101 -29 3 -68 -2 -90 -9z m103 -113 c-5 -39 -67 -137 -170 -269 -56 -71 -235 -242 -254 -242 -10 0 -13 31 -12 128 0 70 -4 139 -10 155 -10 25 -7 31 27 65 21 20 41 44 44 53 3 8 57 41 119 72 108 54 166 73 233 76 28 1 28 0 23 -38z m-6 -522 c11 -11 18 -27 15 -36 -3 -8 -6 -25 -6 -37 0 -33 -134 -204 -229 -290 -25 -23 -53 -49 -64 -59 -10 -11 -40 -26 -65 -35 -26 -8 -57 -22 -69 -30 -16 -10 -34 -12 -59 -7 l-36 6 5 47 c12 107 37 270 43 286 4 10 13 14 24 11 11 -3 40 9 76 33 87 57 200 120 226 125 64 12 118 7 139 -14z" />
</ns0:g>
</g><g transform="translate(1.5860883371085492,309.9100195592072) scale(0.0460041892903181)"><ns0:metadata>
Created by potrace 1.16, written by Peter Selinger 2001-2019
</ns0:metadata>
<ns0:g transform="translate(0.000000,205.000000) scale(0.100000,-0.100000)" fill="#000000" stroke="none">
<ns0:path d="M1133 938 c-31 -40 -34 -57 -14 -112 24 -69 174 -246 208 -246 53 0 55 105 2 163 -38 41 -79 120 -79 151 0 14 -7 32 -16 40 -18 19 -87 21 -101 4z" />
</ns0:g>
</g><g transform="translate(0.28289510195162393,451.2327909099779) scale(0.0460041892903181)"><ns0:metadata>
Created by potrace 1.16, written by Peter Selinger 2001-2019
</ns0:metadata>
<ns0:g transform="translate(0.000000,208.000000) scale(0.100000,-0.100000)" fill="#000000" stroke="none">
<ns0:path d="M1113 1493 c-36 -38 -77 -85 -90 -105 -14 -20 -31 -39 -38 -42 -8 -3 -23 -23 -34 -45 -12 -22 -32 -52 -46 -67 -14 -15 -25 -32 -25 -38 0 -6 -13 -30 -29 -53 -37 -56 -59 -182 -39 -228 44 -99 100 -139 208 -151 49 -5 75 -2 104 10 21 9 48 16 60 16 12 0 42 13 67 28 24 15 60 35 79 44 53 25 200 150 200 170 0 4 -9 10 -20 13 -14 5 -49 -9 -113 -45 -143 -79 -255 -130 -300 -136 -64 -9 -121 11 -156 53 -27 33 -29 41 -24 82 3 25 14 64 25 86 38 83 238 345 264 345 6 0 21 -22 32 -50 12 -27 26 -50 32 -50 18 0 32 52 21 76 -5 12 -13 43 -16 70 -9 59 -29 84 -67 84 -23 0 -44 -15 -95 -67z" />
</ns0:g>
</g><g transform="translate(2.167069964359655,573.5759455020876) scale(0.0460041892903181)"><ns0:metadata>
Created by potrace 1.16, written by Peter Selinger 2001-2019
</ns0:metadata>
<ns0:g transform="translate(0.000000,214.000000) scale(0.100000,-0.100000)" fill="#000000" stroke="none">
<ns0:path d="M1216 1463 c-59 -63 -96 -116 -96 -137 0 -12 -13 -49 -30 -82 -36 -75 -47 -122 -55 -250 l-7 -100 46 -85 c25 -46 52 -98 59 -114 8 -17 29 -39 48 -49 35 -18 35 -18 84 5 64 31 92 68 75 99 -11 20 -17 22 -61 16 -48 -7 -49 -6 -66 28 -76 147 -76 147 -70 211 9 92 63 246 120 343 41 70 46 101 19 125 -25 23 -37 21 -66 -10z" />
</ns0:g>
</g><g transform="translate(-0.5067042926275462,696.9597931910827) scale(0.0460041892903181)"><ns0:metadata>
Created by potrace 1.16, written by Peter Selinger 2001-2019
</ns0:metadata>
<ns0:g transform="translate(0.000000,206.000000) scale(0.100000,-0.100000)" fill="#000000" stroke="none">
<ns0:path d="M1199 1320 c-33 -17 -38 -26 -53 -87 -9 -37 -20 -99 -26 -138 -13 -100 -45 -249 -69 -325 -12 -36 -21 -79 -21 -97 0 -18 -6 -52 -14 -75 -8 -24 -17 -61 -21 -83 -3 -22 -8 -50 -11 -62 -3 -17 2 -23 27 -28 57 -13 78 27 120 230 10 50 27 119 37 155 11 36 30 112 42 170 13 58 29 112 36 120 6 8 15 33 19 55 3 22 14 48 22 57 18 20 13 48 -17 96 -23 37 -23 37 -71 12z" />
</ns0:g>
</g><g transform="translate(0.8142062968404389,834.7390730607368) scale(0.0460041892903181)"><ns0:metadata>
Created by potrace 1.16, written by Peter Selinger 2001-2019
</ns0:metadata>
<ns0:g transform="translate(0.000000,210.000000) scale(0.100000,-0.100000)" fill="#000000" stroke="none">
<ns0:path d="M1248 963 c-59 -16 -138 -78 -138 -110 0 -9 16 -31 35 -49 l35 -33 -16 -40 c-48 -120 70 -135 147 -20 60 90 60 90 54 154 -5 56 -28 106 -51 111 -5 1 -35 -5 -66 -13z" />
</ns0:g>
</g><g transform="translate(-1.8340596554040758,970.5819029825852) scale(0.0460041892903181)"><ns0:metadata>
Created by potrace 1.16, written by Peter Selinger 2001-2019
</ns0:metadata>
<ns0:g transform="translate(0.000000,214.000000) scale(0.100000,-0.100000)" fill="#000000" stroke="none">
<ns0:path d="M1315 1450 c-3 -5 -22 -10 -41 -10 -19 0 -42 -4 -52 -9 -31 -16 -86 -30 -144 -36 -67 -8 -118 -36 -118 -65 0 -23 45 -70 67 -70 7 0 29 6 47 14 18 7 55 18 82 24 27 6 58 14 68 18 23 9 23 9 -38 -224 -47 -181 -52 -247 -26 -342 16 -57 25 -66 57 -54 l28 9 6 125 c7 138 24 211 94 400 54 146 60 185 34 211 -20 20 -54 25 -64 9z" />
</ns0:g>
</g><g transform="translate(2.9968242840241714,1088.1478479839643) scale(0.0460041892903181)"><ns0:metadata>
Created by potrace 1.16, written by Peter Selinger 2001-2019
</ns0:metadata>
<ns0:g transform="translate(0.000000,208.000000) scale(0.100000,-0.100000)" fill="#000000" stroke="none">
<ns0:path d="M1135 1490 c-11 -5 -37 -11 -58 -15 -50 -8 -72 -41 -64 -99 4 -24 2 -47 -4 -53 -5 -5 -12 -48 -14 -95 -2 -47 -12 -112 -23 -144 -40 -125 -54 -183 -48 -199 6 -18 69 -47 101 -48 11 0 64 6 119 12 54 7 101 10 104 7 9 -9 -30 -88 -65 -132 -18 -23 -33 -46 -33 -51 0 -6 -19 -26 -42 -46 -24 -19 -56 -47 -73 -63 -46 -42 -116 -84 -143 -84 -59 0 -83 -42 -34 -61 101 -39 305 81 413 242 52 77 70 122 81 201 11 69 10 71 -13 89 -33 26 -91 24 -248 -7 l-34 -7 5 40 c3 22 13 55 21 74 9 19 21 59 27 90 9 49 17 62 58 96 26 21 60 47 77 58 28 18 78 60 136 116 34 32 30 76 -8 85 -19 5 -32 -1 -56 -24 -18 -16 -52 -40 -76 -53 -24 -13 -55 -30 -68 -37 -32 -18 -40 -9 -19 22 16 25 23 97 9 95 -5 0 -17 -4 -28 -9z" />
</ns0:g>
</g><g transform="translate(2.6320116295925686,1238.3053749921937) scale(0.0460041892903181)"><ns0:metadata>
Created by potrace 1.16, written by Peter Selinger 2001-2019
</ns0:metadata>
<ns0:g transform="translate(0.000000,210.000000) scale(0.100000,-0.100000)" fill="#000000" stroke="none">
<ns0:path d="M1689 1316 c-35 -35 -43 -46 -119 -159 -38 -56 -84 -120 -103 -142 -32 -36 -37 -39 -63 -30 -32 12 -90 84 -127 159 -23 47 -56 80 -82 82 -5 0 -22 6 -37 14 -38 18 -108 5 -157 -30 -22 -17 -45 -30 -49 -30 -5 0 -34 -24 -65 -52 -52 -48 -57 -57 -57 -94 0 -34 4 -43 25 -52 14 -7 30 -12 34 -12 5 0 47 38 93 85 68 69 90 85 114 85 45 0 72 -25 110 -104 19 -39 40 -78 47 -86 21 -28 107 -69 158 -76 l48 -6 57 58 c31 33 65 79 76 103 10 24 31 62 46 85 15 23 38 64 51 91 13 28 30 58 38 67 16 18 14 59 -3 65 -6 2 -21 -7 -35 -21z" />
</ns0:g>
</g><g transform="translate(2.090642663854169,1354.6797597688023) scale(0.0460041892903181)"><ns0:metadata>
Created by potrace 1.16, written by Peter Selinger 2001-2019
</ns0:metadata>
<ns0:g transform="translate(0.000000,205.000000) scale(0.100000,-0.100000)" fill="#000000" stroke="none">
<ns0:path d="M802 1318 c-45 -67 -75 -135 -68 -153 5 -14 9 -15 21 -5 12 10 15 10 15 -3 0 -9 -4 -27 -10 -41 -5 -14 -16 -76 -25 -138 -17 -125 -33 -223 -41 -251 -5 -15 -8 -16 -20 -6 -29 24 -38 -4 -24 -78 21 -111 57 -151 107 -118 25 17 27 22 42 145 23 192 62 413 78 443 9 18 20 52 24 77 4 25 10 62 14 82 4 20 5 48 1 62 -5 22 -12 26 -46 26 -35 0 -42 -5 -68 -42z" />
</ns0:g>
</g><g transform="translate(-2.9439960739279627,1489.2184778169214) scale(0.0460041892903181)"><ns0:metadata>
Created by potrace 1.16, written by Peter Selinger 2001-2019
</ns0:metadata>
<ns0:g transform="translate(0.000000,210.000000) scale(0.100000,-0.100000)" fill="#000000" stroke="none">
<ns0:path d="M1210 915 c-14 -7 -33 -16 -43 -19 -40 -13 -65 -149 -32 -176 8 -7 15 -18 15 -24 0 -7 13 -25 29 -40 28 -27 29 -27 67 -11 49 20 71 41 96 89 31 60 20 107 -34 156 -47 43 -61 46 -98 25z" />
</ns0:g>
</g><g transform="translate(1.3536799262747081,1615.2974204308753) scale(0.0460041892903181)"><ns0:metadata>
Created by potrace 1.16, written by Peter Selinger 2001-2019
</ns0:metadata>
<ns0:g transform="translate(0.000000,213.000000) scale(0.100000,-0.100000)" fill="#000000" stroke="none">
<ns0:path d="M1278 1556 c-15 -6 -40 -24 -55 -38 -36 -34 -185 -108 -217 -108 -14 0 -28 5 -31 10 -9 15 -32 12 -96 -12 -81 -31 -89 -62 -28 -107 l30 -22 92 21 c58 14 113 34 148 56 31 19 60 34 64 34 14 0 -4 -98 -33 -182 -16 -46 -35 -108 -42 -138 -6 -30 -26 -98 -43 -150 -28 -86 -31 -107 -32 -222 0 -118 2 -129 22 -149 21 -21 23 -21 47 -5 25 16 26 21 26 104 1 95 6 127 40 247 12 44 29 105 37 135 19 71 61 194 83 245 9 22 22 67 29 100 8 33 21 74 30 90 26 48 29 69 13 88 -17 19 -45 21 -84 3z" />
</ns0:g>
</g><g transform="translate(-1.6183861599787974,1745.8907067069824) scale(0.0460041892903181)"><ns0:metadata>
Created by potrace 1.16, written by Peter Selinger 2001-2019
</ns0:metadata>
<ns0:g transform="translate(0.000000,213.000000) scale(0.100000,-0.100000)" fill="#000000" stroke="none">
<ns0:path d="M1137 1450 c-150 -146 -227 -242 -227 -282 0 -31 57 -132 94 -167 34 -32 33 -39 -8 -87 -18 -21 -56 -74 -85 -118 -39 -61 -51 -87 -51 -118 0 -39 0 -40 73 -73 40 -18 86 -37 102 -41 17 -4 40 -14 52 -21 29 -19 113 -43 193 -55 123 -18 115 -21 118 47 3 65 -15 113 -94 250 -19 33 -38 69 -43 80 -5 11 -25 37 -45 57 -61 62 -50 90 82 211 23 21 42 44 42 51 0 7 7 28 17 46 32 66 61 226 49 276 -10 40 -52 69 -99 69 -40 1 -47 -4 -170 -125z m174 18 c3 -33 -40 -178 -65 -221 -21 -34 -156 -147 -177 -147 -18 0 -39 33 -39 61 0 33 25 89 40 89 6 0 10 5 10 11 0 17 69 99 83 99 7 0 23 16 36 36 44 64 109 106 112 72z m-158 -634 c7 -12 35 -62 64 -111 28 -48 55 -101 59 -117 7 -29 7 -29 -29 -22 -20 4 -56 16 -79 26 -24 11 -48 20 -55 20 -11 0 -122 47 -131 55 -11 10 29 88 71 143 48 61 50 62 69 46 10 -10 24 -28 31 -40z" />
</ns0:g>
</g><g transform="translate(2.0116374492589557,1877.940060136243) scale(0.0460041892903181)"><ns0:metadata>
Created by potrace 1.16, written by Peter Selinger 2001-2019
</ns0:metadata>
<ns0:g transform="translate(0.000000,206.000000) scale(0.100000,-0.100000)" fill="#000000" stroke="none">
<ns0:path d="M963 1355 c-59 -26 -37 -85 32 -85 14 0 28 -7 31 -15 4 -8 15 -15 25 -15 35 0 41 -42 24 -174 -12 -91 -25 -144 -53 -215 -32 -82 -46 -102 -109 -167 -49 -49 -82 -74 -100 -76 -24 -2 -28 -8 -28 -33 0 -24 5 -31 32 -38 77 -22 221 84 277 204 14 31 26 61 26 68 0 7 8 26 17 44 26 49 45 310 28 392 -17 87 -124 145 -202 110z" />
</ns0:g>
</g><g transform="translate(-1.2288105270990286,1998.2025953094744) scale(0.0460041892903181)"><ns0:metadata>
Created by potrace 1.16, written by Peter Selinger 2001-2019
</ns0:metadata>
<ns0:g transform="translate(0.000000,214.000000) scale(0.100000,-0.100000)" fill="#000000" stroke="none">
<ns0:path d="M1334 1726 c-11 -8 -26 -34 -33 -58 -18 -61 -61 -125 -72 -107 -5 8 -9 24 -9 36 0 34 -53 67 -96 60 -41 -7 -67 -29 -131 -111 -54 -68 -91 -181 -95 -289 -2 -45 32 -87 71 -87 32 0 116 43 155 79 l28 26 -7 -25 c-4 -14 -18 -45 -32 -70 -48 -85 -96 -175 -125 -235 -17 -33 -34 -62 -38 -65 -5 -3 -29 -50 -55 -105 -65 -140 -84 -176 -111 -205 -24 -26 -59 -123 -70 -191 -5 -32 -3 -39 19 -53 18 -13 31 -14 50 -7 21 8 28 20 37 68 7 32 16 60 20 63 4 3 17 23 28 45 109 215 186 357 221 410 15 22 33 56 40 75 8 19 20 42 28 51 7 9 16 27 18 39 2 13 13 33 24 44 22 24 56 95 102 219 17 45 41 105 55 132 13 28 24 54 24 58 0 4 10 28 23 55 34 72 52 131 41 141 -19 18 -88 22 -110 7z m-204 -201 c0 -8 -4 -15 -10 -15 -5 0 -10 7 -10 15 0 8 5 15 10 15 6 0 10 -7 10 -15z m-19 -112 c-11 -39 -74 -123 -93 -123 -13 0 -2 82 18 128 11 27 17 32 38 26 13 -3 27 -1 31 6 13 21 16 2 6 -37z m80 -50 c-12 -20 -14 -14 -5 12 4 9 9 14 11 11 3 -2 0 -13 -6 -23z" />
<ns0:path d="M1215 912 c-80 -26 -161 -184 -172 -334 -9 -109 31 -148 127 -126 28 6 50 14 50 18 0 3 33 45 73 93 53 64 76 100 88 140 14 50 14 57 0 76 -9 12 -32 29 -51 39 -22 11 -37 27 -41 45 -14 52 -30 63 -74 49z m59 -144 c9 -12 16 -30 16 -39 0 -18 -39 -75 -86 -125 -60 -63 -69 -37 -28 74 24 67 54 112 74 112 5 0 16 -10 24 -22z" />
</ns0:g>
</g></svg>