<?xml version='1.0' encoding='utf-8'?>
<svg xmlns:ns0="http://www.w3.org/2000/svg" xmlns="http://www.w3.org/2000/svg" width="235" height="122" viewBox="0 0 235 122"><g transform="translate(-1.9894188293416164,-112.827796795052) scale(0.051490927462557866)"><ns0:metadata>
Created by potrace 1.16, written by Peter Selinger 2001-2019
</ns0:metadata>
<ns0:g transform="translate(0.000000,209.000000) scale(0.100000,-0.100000)" fill="#000000" stroke="none">
<ns0:path d="M1176 1837 c-14 -10 -25 -53 -46 -168 -15 -85 -30 -179 -34 -211 -7 -54 -10 -58 -68 -105 -106 -85 -148 -130 -148 -161 0 -15 5 -33 11 -39 12 -12 -37 -53 -124 -102 l-58 -33 6 128 c3 71 9 140 12 154 3 14 5 35 4 48 -3 28 12 41 102 88 57 29 68 39 65 57 -4 28 -60 35 -113 13 -68 -29 -73 -23 -50 50 8 25 -28 64 -83 90 -30 14 -35 14 -59 -1 -27 -18 -27 -28 -3 -127 6 -26 10 -61 8 -79 -3 -31 -8 -35 -83 -64 -104 -42 -192 -85 -233 -113 -25 -18 -32 -31 -32 -56 0 -45 24 -63 96 -71 65 -7 94 6 94 44 0 32 146 131 171 116 6 -4 7 -65 3 -168 -7 -173 -12 -189 -61 -202 -14 -3 -43 -20 -65 -38 -31 -24 -49 -32 -83 -32 -35 0 -48 -5 -60 -22 -9 -13 -22 -23 -29 -23 -24 0 -66 -41 -66 -65 0 -14 13 -32 35 -49 34 -26 35 -30 35 -92 0 -110 64 -248 148 -319 17 -15 32 -32 32 -39 0 -20 34 -46 61 -46 19 0 28 9 42 40 9 22 17 49 17 59 0 10 6 52 14 92 8 41 20 124 26 184 19 182 31 254 46 283 7 15 14 32 14 37 0 10 136 129 182 159 26 17 27 17 38 -3 6 -12 25 -28 42 -37 44 -23 194 -13 262 16 26 11 52 20 57 20 14 0 11 -17 -8 -36 -10 -10 -22 -25 -28 -35 -5 -10 -42 -59 -81 -111 -39 -51 -79 -108 -88 -126 -9 -18 -28 -45 -41 -60 -13 -15 -46 -53 -74 -85 -28 -31 -51 -62 -51 -67 0 -17 -179 -190 -196 -190 -17 0 -84 -67 -84 -83 0 -5 9 -22 21 -38 22 -32 68 -40 88 -16 6 8 30 22 53 32 24 11 77 38 118 61 41 23 86 45 98 49 13 4 61 29 107 55 46 26 94 51 107 55 26 8 140 67 148 76 3 3 28 17 55 31 28 13 99 55 158 91 60 37 112 67 117 67 14 0 19 27 7 39 -16 16 -31 14 -60 -9 -13 -11 -49 -25 -78 -31 -49 -10 -117 -41 -219 -98 -19 -11 -84 -40 -145 -65 -60 -25 -132 -56 -160 -70 -55 -28 -69 -21 -33 17 76 82 168 203 191 252 8 17 29 46 46 65 18 19 34 45 37 57 4 13 12 23 18 23 7 0 29 22 50 50 20 27 56 68 79 92 70 71 117 132 117 150 0 32 -45 33 -107 1 -59 -30 -132 -57 -236 -88 l-58 -16 -25 26 c-21 22 -29 25 -57 19 -36 -8 -88 -11 -100 -6 -4 2 4 13 18 24 14 10 25 27 25 36 0 26 107 133 168 168 17 10 32 22 32 26 0 4 6 8 14 8 8 0 41 22 73 50 32 27 63 50 70 50 6 0 33 18 60 40 26 22 54 45 61 51 36 29 -5 43 -54 18 -21 -10 -44 -19 -51 -19 -7 0 -27 -8 -45 -19 -18 -10 -66 -37 -106 -60 -92 -53 -110 -52 -83 4 10 22 29 74 41 115 32 103 44 124 85 148 42 26 49 66 13 76 -40 10 -114 6 -132 -7z m-611 -1216 c-16 -154 -33 -221 -54 -221 -19 0 -79 82 -98 133 -10 29 -20 78 -22 109 l-2 57 53 31 c29 17 71 43 93 58 31 22 41 25 43 14 2 -8 -4 -89 -13 -181z" />
</ns0:g>
</g></svg>