<?xml version='1.0' encoding='utf-8'?>
<svg xmlns:ns0="http://www.w3.org/2000/svg" xmlns="http://www.w3.org/2000/svg" width="207" height="121" viewBox="0 0 207 121"><g transform="translate(-0.10433179516641644,-100.51547822193814) scale(0.051068870680077885)"><ns0:metadata>
Created by potrace 1.16, written by Peter Selinger 2001-2019
</ns0:metadata>
<ns0:g transform="translate(0.000000,208.000000) scale(0.100000,-0.100000)" fill="#000000" stroke="none">
<ns0:path d="M1135 1490 c-11 -5 -37 -11 -58 -15 -50 -8 -72 -41 -64 -99 4 -24 2 -47 -4 -53 -5 -5 -12 -48 -14 -95 -2 -47 -12 -112 -23 -144 -40 -125 -54 -183 -48 -199 6 -18 69 -47 101 -48 11 0 64 6 119 12 54 7 101 10 104 7 9 -9 -30 -88 -65 -132 -18 -23 -33 -46 -33 -51 0 -6 -19 -26 -42 -46 -24 -19 -56 -47 -73 -63 -46 -42 -116 -84 -143 -84 -59 0 -83 -42 -34 -61 101 -39 305 81 413 242 52 77 70 122 81 201 11 69 10 71 -13 89 -33 26 -91 24 -248 -7 l-34 -7 5 40 c3 22 13 55 21 74 9 19 21 59 27 90 9 49 17 62 58 96 26 21 60 47 77 58 28 18 78 60 136 116 34 32 30 76 -8 85 -19 5 -32 -1 -56 -24 -18 -16 -52 -40 -76 -53 -24 -13 -55 -30 -68 -37 -32 -18 -40 -9 -19 22 16 25 23 97 9 95 -5 0 -17 -4 -28 -9z" />
</ns0:g>
</g><g transform="translate(2.041066495923019,50.63723180436034) scale(0.051068870680077885)"><ns0:metadata>
Created by potrace 1.16, written by Peter Selinger 2001-2019
</ns0:metadata>
<ns0:g transform="translate(0.000000,217.000000) scale(0.100000,-0.100000)" fill="#000000" stroke="none">
<ns0:path d="M1450 1621 c-8 -5 -41 -12 -72 -16 -32 -3 -58 -10 -58 -14 0 -11 -69 -31 -85 -24 -18 6 -73 -27 -78 -46 -6 -29 5 -60 23 -66 18 -6 56 -107 47 -122 -3 -5 -1 -42 4 -83 6 -41 10 -79 11 -85 2 -17 -32 -297 -43 -355 -6 -30 -21 -76 -35 -101 -30 -59 -30 -66 2 -91 19 -15 43 -21 89 -23 49 -2 79 -10 129 -34 80 -40 136 -50 155 -27 12 14 8 21 -28 56 -24 21 -58 46 -76 55 -19 8 -37 20 -40 25 -3 4 -22 14 -43 21 -57 18 -60 22 -50 86 21 149 31 283 33 449 l1 181 34 41 c22 28 44 44 66 48 23 4 34 13 38 30 4 13 13 24 21 24 8 0 19 9 25 20 22 42 -25 76 -70 51z" />
</ns0:g>
</g><g transform="translate(23.682746744642685,56.55112961278789) scale(0.051068870680077885)"><ns0:metadata>
Created by potrace 1.16, written by Peter Selinger 2001-2019
</ns0:metadata>
<ns0:g transform="translate(0.000000,206.000000) scale(0.100000,-0.100000)" fill="#000000" stroke="none">
<ns0:path d="M988 1436 c-15 -8 -48 -14 -74 -14 -25 0 -51 -5 -56 -10 -6 -6 -17 -59 -24 -119 -8 -59 -23 -135 -34 -168 -22 -70 -41 -285 -30 -341 10 -50 18 -70 48 -118 23 -38 25 -38 73 -34 40 4 61 15 121 61 115 88 187 166 238 261 20 35 21 45 12 115 -20 149 -54 229 -119 275 -24 16 -45 37 -48 45 -4 13 -66 61 -77 61 -2 0 -15 -6 -30 -14z m39 -113 c65 -64 93 -107 117 -180 14 -43 26 -89 26 -102 0 -54 -117 -195 -204 -246 -90 -52 -106 -14 -76 175 12 74 23 146 25 160 8 53 33 142 44 153 6 6 11 21 11 32 0 43 19 45 57 8z" />
</ns0:g>
</g><g transform="translate(-0.36883178401319583,213.3772571742278) scale(0.051068870680077885)"><ns0:metadata>
Created by potrace 1.16, written by Peter Selinger 2001-2019
</ns0:metadata>
<ns0:g transform="translate(0.000000,210.000000) scale(0.100000,-0.100000)" fill="#000000" stroke="none">
<ns0:path d="M756 1009 c-35 -51 -5 -121 57 -133 20 -4 50 0 74 8 37 13 223 15 348 4 l30 -3 -2 63 c-1 35 -3 65 -5 67 -2 1 -112 6 -244 10 l-242 7 -16 -23z" />
</ns0:g>
</g><g transform="translate(-2.9729430504126526,348.21021236356773) scale(0.051068870680077885)"><ns0:metadata>
Created by potrace 1.16, written by Peter Selinger 2001-2019
</ns0:metadata>
<ns0:g transform="translate(0.000000,206.000000) scale(0.100000,-0.100000)" fill="#000000" stroke="none">
<ns0:path d="M1261 1449 c-32 -26 -41 -81 -47 -284 -2 -88 -10 -214 -18 -280 -7 -66 -9 -130 -5 -141 4 -12 5 -31 3 -41 -3 -11 1 -25 10 -32 12 -10 20 -7 45 16 27 24 32 37 37 93 9 116 36 284 51 327 10 28 13 60 10 95 -4 29 -3 83 1 121 9 75 -3 118 -37 136 -25 14 -21 14 -50 -10z" />
</ns0:g>
</g><g transform="translate(5.584334112195762,339.2728050399378) scale(0.051068870680077885)"><ns0:metadata>
Created by potrace 1.16, written by Peter Selinger 2001-2019
</ns0:metadata>
<ns0:g transform="translate(0.000000,216.000000) scale(0.100000,-0.100000)" fill="#000000" stroke="none">
<ns0:path d="M1165 1640 c-21 -16 -42 -30 -46 -30 -5 0 -32 -11 -61 -24 -74 -35 -172 -66 -206 -66 -30 0 -62 -26 -62 -51 0 -8 23 -31 50 -51 l51 -38 10 24 c8 16 28 28 72 41 34 10 76 27 92 37 65 39 65 41 61 -194 -3 -198 -30 -622 -42 -659 -3 -11 -32 -24 -82 -37 -42 -11 -111 -30 -152 -41 -41 -11 -87 -23 -102 -26 -34 -7 -36 -23 -5 -34 29 -11 206 5 270 24 40 12 58 13 85 4 29 -10 38 -8 61 8 33 25 38 57 46 278 3 94 8 185 11 204 3 18 9 119 15 225 5 105 13 214 18 241 30 168 27 195 -18 195 -16 0 -44 -13 -66 -30z" />
</ns0:g>
</g></svg>