<?xml version='1.0' encoding='utf-8'?>
<svg xmlns:ns0="http://www.w3.org/2000/svg" xmlns="http://www.w3.org/2000/svg" width="235" height="109" viewBox="0 0 235 109"><g transform="translate(1.9194468036996,-94.29844790714412) scale(0.0460041892903181)"><ns0:metadata>
Created by potrace 1.16, written by Peter Selinger 2001-2019
</ns0:metadata>
<ns0:g transform="translate(0.000000,208.000000) scale(0.100000,-0.100000)" fill="#000000" stroke="none">
<ns0:path d="M1233 2033 c-17 -21 -38 -53 -47 -70 -9 -18 -20 -33 -25 -33 -4 0 -12 -8 -17 -19 -5 -10 -19 -32 -31 -47 -50 -64 -123 -184 -123 -203 0 -21 35 -51 60 -51 9 0 34 9 55 21 29 15 63 22 120 24 87 3 115 12 159 49 25 21 28 27 17 40 -9 11 -27 15 -55 14 -38 -3 -41 -1 -44 23 -2 20 5 33 30 54 66 54 198 189 198 202 0 28 -62 29 -92 0 -7 -6 -36 -27 -63 -46 -28 -19 -67 -50 -87 -70 -35 -32 -38 -33 -38 -13 0 11 14 44 30 73 34 57 35 82 4 87 -15 2 -31 -9 -51 -35z" />
<ns0:path d="M481 1813 c-16 -13 -24 -36 -32 -88 -17 -117 -48 -202 -86 -238 -29 -27 -33 -37 -28 -64 4 -22 -1 -45 -15 -72 -11 -22 -20 -45 -20 -51 0 -22 39 -8 63 23 13 18 52 59 86 92 33 33 61 66 61 72 0 7 15 19 33 26 17 8 41 24 51 36 11 11 23 21 28 21 6 0 22 9 36 21 31 24 44 8 17 -21 -9 -10 -14 -24 -10 -29 13 -22 45 -10 87 31 24 23 58 54 76 69 92 76 164 151 154 161 -10 10 -47 -8 -89 -45 -12 -11 -46 -24 -75 -28 -56 -9 -188 -62 -227 -91 -13 -10 -32 -18 -41 -18 -17 0 -17 4 2 67 26 85 17 136 -23 141 -14 2 -35 -5 -48 -15z" />
<ns0:path d="M710 1484 c-51 -17 -87 -52 -96 -92 -4 -15 -12 -34 -19 -42 -28 -35 -84 -141 -103 -198 -22 -61 -78 -162 -90 -162 -8 0 -102 -114 -102 -124 0 -3 -29 -36 -65 -73 -89 -93 -97 -129 -28 -138 20 -2 36 2 46 13 66 71 111 103 134 96 34 -13 61 -46 84 -102 l23 -55 -29 -79 -28 -80 20 -26 c27 -36 67 -41 85 -10 16 29 68 150 68 159 0 3 18 38 41 77 45 79 109 149 183 202 26 19 67 51 90 71 22 20 62 46 88 58 25 12 49 28 52 36 3 8 11 15 17 15 9 0 10 -28 3 -112 -4 -62 -8 -179 -7 -260 2 -148 1 -148 -21 -148 -13 0 -60 19 -106 41 l-84 42 25 19 c68 53 138 121 133 130 -16 25 -115 -10 -207 -72 -25 -16 -49 -30 -54 -30 -16 0 -43 -35 -43 -56 0 -23 18 -44 37 -44 7 0 42 -14 78 -30 36 -17 70 -30 74 -30 5 0 22 -11 38 -24 15 -13 42 -27 60 -30 18 -4 49 -21 69 -37 42 -33 65 -36 85 -11 35 44 37 57 29 193 -9 137 3 418 19 474 5 17 9 45 8 63 0 27 8 41 47 77 29 27 46 50 44 61 -5 29 -23 26 -61 -11 -54 -53 -61 -48 -54 44 5 76 4 80 -25 115 -24 30 -36 36 -67 36 -65 0 -74 -25 -41 -124 11 -33 20 -85 20 -117 0 -58 -1 -60 -42 -90 -24 -17 -54 -36 -68 -42 -14 -6 -43 -24 -65 -39 -201 -144 -259 -191 -292 -236 -21 -29 -42 -52 -47 -52 -11 0 -89 88 -98 112 -4 10 -12 18 -18 18 -21 0 -8 27 40 80 33 36 60 81 80 130 17 41 30 79 30 84 0 4 13 28 30 52 16 25 39 64 49 88 11 23 27 49 36 56 8 7 15 17 15 22 0 6 14 26 30 45 33 37 37 52 18 71 -15 15 -12 15 -68 -4z" />
</ns0:g>
</g><g transform="translate(-2.8586009498403087,28.90264246160558) scale(0.0460041892903181)"><ns0:metadata>
Created by potrace 1.16, written by Peter Selinger 2001-2019
</ns0:metadata>
<ns0:g transform="translate(0.000000,206.000000) scale(0.100000,-0.100000)" fill="#000000" stroke="none">
<ns0:path d="M1208 1933 c-14 -16 -29 -38 -33 -51 -3 -12 -24 -43 -46 -69 -36 -41 -40 -50 -34 -83 5 -31 -1 -53 -36 -126 -23 -49 -60 -118 -82 -153 -50 -82 -112 -199 -121 -229 -9 -28 -168 -286 -187 -302 -3 -3 -27 -43 -53 -90 -26 -47 -67 -112 -91 -145 -25 -33 -57 -80 -72 -104 -16 -25 -51 -70 -78 -100 -28 -31 -72 -84 -98 -118 -27 -34 -55 -64 -64 -67 -8 -3 -12 -10 -8 -16 13 -21 107 28 153 80 24 27 78 80 120 116 42 37 83 79 91 93 8 14 31 45 51 69 21 23 45 57 54 75 9 17 22 41 29 52 27 45 71 110 76 115 3 3 11 14 18 25 81 136 106 180 107 189 4 24 36 74 51 79 8 4 15 15 15 25 0 10 16 44 35 76 19 32 35 64 35 70 0 6 10 27 23 46 13 19 36 61 53 94 16 32 36 61 45 63 9 3 22 16 29 29 8 13 18 24 25 24 11 0 99 -128 130 -188 19 -39 36 -38 47 4 11 39 -18 117 -86 228 -42 69 -43 87 -16 156 25 64 26 121 2 143 -27 24 -55 21 -84 -10z m-358 -820 c0 -14 -19 -38 -25 -32 -8 8 5 39 16 39 5 0 9 -3 9 -7z" />
<ns0:path d="M1245 1172 c-44 -26 -103 -62 -130 -79 -28 -18 -55 -33 -61 -33 -18 0 -105 -51 -166 -98 -68 -51 -77 -86 -32 -121 38 -30 55 -26 107 24 25 25 72 61 104 80 100 59 211 139 223 161 6 11 27 28 45 38 37 20 48 37 39 61 -10 25 -45 16 -129 -33z" />
<ns0:path d="M1305 860 c-3 -5 -27 -10 -52 -10 -50 0 -109 -24 -123 -50 -14 -26 -1 -59 30 -75 24 -12 34 -12 86 4 32 11 84 20 114 22 46 3 55 1 58 -14 4 -19 -37 -125 -75 -192 -42 -74 -145 -186 -201 -216 -63 -34 -72 -35 -72 -9 0 27 -45 194 -68 255 -20 49 -19 49 1 76 22 31 17 59 -11 59 -10 0 -45 -7 -77 -15 -93 -24 -107 -57 -50 -118 19 -20 35 -42 35 -47 0 -6 12 -29 26 -51 47 -75 74 -204 54 -263 -13 -41 -1 -68 39 -86 21 -9 29 -8 50 9 14 12 41 27 59 35 17 8 32 20 32 25 0 6 26 27 58 47 31 20 68 47 82 60 38 36 80 67 130 93 63 34 160 111 160 127 0 20 -33 17 -77 -5 -21 -10 -51 -22 -66 -25 l-28 -7 19 38 c11 21 32 73 46 117 22 63 26 88 21 128 -8 58 -25 77 -68 80 -61 3 -82 5 -104 12 -12 4 -24 2 -28 -4z" />
</ns0:g>
</g></svg>