<?xml version='1.0' encoding='utf-8'?>
<svg xmlns:ns0="http://www.w3.org/2000/svg" xmlns="http://www.w3.org/2000/svg" width="235" height="121" viewBox="0 0 235 121"><g transform="translate(-2.110732205616273,-75.2215891437015) scale(0.032186125601421485)"><ns0:metadata>
Created by potrace 1.16, written by Peter Selinger 2001-2019
</ns0:metadata>
<ns0:g transform="translate(0.000000,215.000000) scale(0.100000,-0.100000)" fill="#000000" stroke="none">
<ns0:path d="M815 1920 c-12 -13 -16 -29 -12 -52 7 -44 40 -164 71 -259 33 -101 44 -179 24 -179 -13 0 -28 -9 -88 -57 -15 -13 -32 -23 -38 -23 -13 0 -96 -81 -111 -107 -17 -34 -13 -68 12 -91 20 -19 28 -21 55 -11 17 6 34 19 37 29 8 25 146 150 166 150 9 0 29 -73 29 -108 0 -25 -6 -35 -29 -47 -16 -8 -35 -21 -43 -28 -7 -8 -31 -25 -53 -39 -57 -36 -129 -98 -136 -117 -8 -19 37 -71 61 -71 9 0 32 14 50 30 18 17 36 30 40 30 4 0 31 23 60 50 30 28 57 47 61 43 3 -5 9 -45 12 -91 l6 -83 -32 -14 c-17 -8 -53 -31 -78 -52 -25 -22 -65 -45 -89 -53 -23 -8 -54 -25 -69 -39 -15 -14 -41 -32 -57 -40 -16 -8 -55 -31 -86 -50 -47 -29 -58 -41 -58 -62 0 -22 -6 -28 -34 -33 -19 -4 -45 -15 -59 -26 -14 -11 -30 -20 -35 -20 -5 0 -20 -11 -33 -25 -25 -25 -49 -33 -49 -15 0 17 50 130 74 169 40 62 59 191 34 230 -9 16 -4 29 34 87 43 66 58 104 79 204 11 53 6 70 -20 70 -30 0 -35 18 -14 47 36 52 113 178 119 197 9 26 94 149 111 159 14 9 17 55 5 74 -4 7 -21 15 -38 19 -26 5 -35 0 -75 -43 -24 -27 -64 -87 -87 -134 -41 -81 -78 -147 -172 -298 -67 -109 -70 -114 -70 -138 0 -34 44 -59 81 -46 16 6 29 9 29 7 0 -15 -124 -194 -194 -280 -30 -37 -31 -45 -11 -84 13 -25 22 -30 52 -30 20 0 45 8 55 17 18 16 18 15 12 -43 -3 -32 -14 -81 -24 -109 -11 -27 -24 -69 -30 -91 -7 -30 -28 -59 -75 -106 -36 -36 -65 -72 -65 -81 0 -15 45 -57 60 -57 17 0 138 98 200 163 36 37 71 67 78 67 7 0 12 6 12 14 0 8 15 31 33 53 28 34 36 38 71 35 26 -2 48 3 65 15 14 11 48 29 74 42 27 12 59 33 72 46 12 14 26 25 30 25 4 0 43 25 87 56 44 31 81 54 83 52 2 -2 5 -30 6 -63 2 -65 43 -460 58 -562 10 -66 44 -113 81 -113 24 0 101 44 128 73 26 27 132 223 132 243 0 8 4 14 8 14 13 0 45 81 49 124 2 22 7 44 12 49 12 12 1 47 -14 47 -8 0 -17 -10 -21 -22 -4 -13 -22 -45 -40 -73 -19 -27 -34 -55 -34 -61 0 -6 -6 -17 -14 -23 -8 -7 -41 -57 -73 -111 -55 -93 -99 -137 -107 -107 -38 137 -63 468 -46 607 l11 94 59 56 c37 35 60 65 60 79 0 11 -5 21 -10 21 -17 0 -65 -27 -79 -44 -8 -9 -24 -16 -38 -16 l-24 0 7 93 6 92 40 36 c38 33 39 36 23 52 -19 19 -42 21 -79 7 -33 -12 -36 -6 -40 80 -4 63 -2 72 17 85 30 21 37 19 37 -10 0 -14 4 -25 8 -25 16 0 112 100 117 122 11 43 -7 70 -49 73 -20 1 -39 -2 -42 -6 -3 -6 -122 -69 -129 -69 -2 0 -6 20 -9 43 -4 24 -16 67 -26 95 -24 63 -37 157 -22 166 6 3 31 -10 57 -30 26 -19 49 -33 52 -30 8 8 -28 94 -46 109 -29 25 -134 77 -156 77 -12 0 -30 -9 -40 -20z" />
<ns0:path d="M1310 1753 c-8 -3 -18 -11 -22 -17 -13 -19 -9 -75 6 -83 7 -4 38 -37 68 -73 60 -71 133 -117 155 -98 19 16 16 32 -12 58 -14 13 -25 29 -25 36 0 6 -7 17 -15 24 -8 7 -15 19 -15 26 0 8 7 14 15 14 17 0 19 14 5 40 -11 21 -110 80 -131 79 -8 0 -21 -3 -29 -6z" />
</ns0:g>
</g><g transform="translate(-1.64320662711674,21.502700475041763) scale(0.032186125601421485)"><ns0:metadata>
Created by potrace 1.16, written by Peter Selinger 2001-2019
</ns0:metadata>
<ns0:g transform="translate(0.000000,209.000000) scale(0.100000,-0.100000)" fill="#000000" stroke="none">
<ns0:path d="M1362 1855 l-32 -14 7 -133 c12 -217 12 -217 -17 -233 -31 -18 -117 -55 -126 -55 -3 0 -20 -12 -38 -26 -17 -15 -58 -40 -91 -56 -115 -56 -183 -114 -185 -155 0 -20 38 -53 60 -53 21 0 130 67 130 81 0 4 20 17 45 29 25 12 45 26 45 30 0 5 12 15 28 23 87 44 133 70 138 78 3 5 10 7 15 4 12 -8 12 -253 -1 -330 -18 -113 -50 -425 -50 -486 0 -38 -4 -59 -11 -57 -6 2 -34 48 -62 102 -29 55 -58 101 -64 104 -16 5 -17 -38 -4 -82 6 -17 19 -61 30 -98 18 -57 74 -188 116 -268 16 -30 47 -37 64 -16 23 28 31 88 42 301 12 263 14 282 34 435 8 69 17 186 19 260 5 183 15 215 82 279 52 49 70 91 40 91 -8 0 -37 -12 -65 -27 -28 -14 -53 -24 -56 -22 -8 8 -8 144 0 199 7 52 6 57 -20 83 -32 31 -30 31 -73 12z" />
<ns0:path d="M815 1736 c-20 -20 -24 -36 -30 -134 -8 -121 -5 -116 -85 -137 -55 -15 -156 -59 -186 -81 -17 -13 -37 -24 -45 -24 -8 0 -25 -9 -39 -20 -14 -11 -35 -20 -47 -20 -15 0 -33 -14 -53 -42 -16 -22 -30 -44 -30 -49 0 -21 54 -69 77 -69 39 0 123 42 129 65 8 26 74 77 149 115 91 46 95 44 88 -42 -10 -120 -24 -159 -64 -181 -41 -23 -79 -57 -79 -70 0 -6 -7 -18 -15 -27 -17 -19 -75 -123 -111 -200 -30 -64 -48 -118 -73 -216 -10 -39 -32 -100 -49 -135 -17 -35 -40 -84 -51 -109 -11 -25 -26 -53 -33 -62 -10 -14 -10 -20 1 -30 10 -11 21 -4 59 38 54 59 162 246 185 319 38 121 80 208 132 270 l25 30 -5 -123 c-3 -68 -12 -152 -20 -185 -10 -42 -15 -120 -15 -243 0 -193 4 -209 48 -197 18 4 22 1 22 -16 0 -11 5 -21 12 -21 13 0 108 97 108 110 0 5 6 15 13 22 20 20 97 144 97 156 0 6 3 12 8 14 11 5 88 168 132 278 20 52 51 117 68 144 18 28 32 55 32 62 0 6 9 23 21 38 52 66 40 124 -22 112 -61 -11 -114 -100 -204 -341 -23 -60 -44 -78 -64 -53 -5 7 -33 39 -61 71 -62 71 -71 92 -59 143 14 61 57 301 70 387 6 42 15 77 18 77 4 0 13 21 20 46 13 42 19 49 65 69 59 26 79 46 74 72 -3 14 -13 18 -43 17 -22 0 -48 -4 -57 -8 -15 -7 -18 -3 -18 24 0 24 4 31 14 27 20 -8 38 17 29 39 -17 41 -78 114 -95 114 -11 0 -30 -11 -43 -24z m2 -1092 c81 -62 81 -58 29 -193 -25 -66 -60 -141 -78 -167 l-33 -49 -3 140 c-4 140 12 305 29 305 5 0 30 -16 56 -36z" />
</ns0:g>
</g><g transform="translate(0.8059906172168212,136.67505421499663) scale(0.032186125601421485)"><ns0:metadata>
Created by potrace 1.16, written by Peter Selinger 2001-2019
</ns0:metadata>
<ns0:g transform="translate(0.000000,210.000000) scale(0.100000,-0.100000)" fill="#000000" stroke="none">
<ns0:path d="M756 1009 c-35 -51 -5 -121 57 -133 20 -4 50 0 74 8 37 13 223 15 348 4 l30 -3 -2 63 c-1 35 -3 65 -5 67 -2 1 -112 6 -244 10 l-242 7 -16 -23z" />
</ns0:g>
</g><g transform="translate(-2.8159929518933495,203.69827855222366) scale(0.032186125601421485)"><ns0:metadata>
Created by potrace 1.16, written by Peter Selinger 2001-2019
</ns0:metadata>
<ns0:g transform="translate(0.000000,207.000000) scale(0.100000,-0.100000)" fill="#000000" stroke="none">
<ns0:path d="M1318 1903 c-14 -2 -31 -10 -36 -16 -9 -12 -36 -141 -48 -232 -3 -27 -12 -72 -19 -100 -7 -27 -16 -81 -20 -120 -3 -38 -14 -108 -24 -155 -39 -176 -43 -196 -51 -255 -5 -33 -16 -90 -24 -127 -8 -36 -18 -99 -21 -140 -9 -100 -45 -321 -54 -331 -8 -8 -115 118 -125 148 -3 11 -19 34 -36 52 -16 18 -30 36 -30 42 0 5 -10 22 -23 38 -27 34 -59 98 -86 178 -25 70 -26 93 -6 119 39 52 1 109 -57 87 -34 -13 -50 -38 -78 -126 -13 -38 -29 -85 -37 -104 -15 -36 -35 -180 -27 -193 10 -16 43 -7 49 12 3 11 12 26 18 33 7 7 23 34 36 60 13 26 29 47 35 47 12 0 35 -44 57 -110 7 -19 43 -84 81 -143 37 -60 68 -112 68 -116 0 -4 23 -37 52 -72 28 -35 59 -82 69 -105 23 -51 51 -76 81 -72 18 2 24 10 26 38 2 19 8 40 15 45 7 6 12 30 13 55 0 25 6 68 13 95 16 68 17 70 36 235 20 174 40 292 110 645 13 66 27 140 30 165 14 102 27 150 40 150 9 0 17 15 20 38 12 76 15 82 41 88 24 6 26 10 21 47 -4 26 -16 51 -38 73 -18 19 -35 33 -38 33 -4 -1 -18 -4 -33 -6z" />
<ns0:path d="M1484 835 c-18 -19 -23 -31 -19 -48 8 -24 43 -56 62 -57 7 0 27 -6 45 -14 98 -42 117 -48 137 -41 39 12 24 42 -41 86 -35 23 -75 55 -90 70 -33 36 -61 37 -94 4z" />
</ns0:g>
</g><g transform="translate(-2.9951619762647397,289.52513321606693) scale(0.032186125601421485)"><ns0:metadata>
Created by potrace 1.16, written by Peter Selinger 2001-2019
</ns0:metadata>
<ns0:g transform="translate(0.000000,205.000000) scale(0.100000,-0.100000)" fill="#000000" stroke="none">
<ns0:path d="M833 1670 c-26 -11 -32 -60 -9 -79 7 -6 16 -32 19 -59 4 -26 9 -57 13 -68 5 -17 -6 -30 -58 -70 -35 -26 -93 -65 -130 -85 -66 -36 -70 -37 -143 -32 -65 5 -78 3 -96 -13 -18 -17 -20 -26 -14 -77 3 -32 15 -93 26 -135 15 -57 21 -120 24 -242 6 -226 13 -285 37 -307 19 -17 21 -17 39 6 10 13 20 37 20 55 1 17 3 112 5 211 7 355 7 350 26 347 25 -4 56 15 109 65 25 25 55 50 66 56 11 7 39 25 62 41 23 16 45 26 49 22 11 -11 19 -288 9 -309 -5 -10 -23 -25 -40 -32 -18 -7 -53 -33 -79 -58 -63 -59 -65 -93 -9 -134 l39 -28 -36 -50 c-20 -27 -49 -70 -66 -95 -56 -85 -180 -219 -201 -220 -6 0 -19 -14 -29 -30 -20 -36 -13 -50 34 -70 34 -14 42 -10 133 64 30 24 68 51 85 60 16 8 32 22 35 31 7 16 32 20 41 7 5 -8 2 -22 -29 -137 -7 -27 -12 -75 -10 -105 2 -30 4 -63 4 -73 1 -24 58 -56 161 -90 73 -24 101 -28 200 -29 131 0 247 23 330 67 14 7 50 20 80 28 30 7 81 31 114 53 32 21 68 44 79 51 12 7 25 20 28 30 11 27 -1 113 -22 155 -11 21 -19 46 -19 56 0 11 -11 40 -25 66 -14 26 -25 54 -25 62 0 21 -28 17 -40 -6 -17 -32 -15 -170 3 -214 25 -57 21 -70 -25 -100 -46 -30 -179 -86 -204 -86 -8 0 -28 -7 -44 -15 -19 -10 -83 -19 -180 -25 -146 -10 -151 -10 -205 13 -64 27 -109 63 -101 82 3 8 10 41 16 75 6 33 21 93 34 133 13 39 27 87 31 104 3 18 10 33 14 33 5 0 26 -14 47 -31 32 -26 44 -29 74 -24 41 8 64 26 79 63 23 58 61 366 61 498 0 73 6 178 12 235 15 124 13 306 -3 325 -6 8 -19 14 -29 14 -16 0 -137 -73 -150 -91 -10 -12 -72 -40 -78 -35 -3 4 -20 39 -37 79 -33 77 -51 88 -102 67z m295 -310 c-6 -63 -12 -189 -12 -280 -1 -91 -7 -196 -13 -235 -7 -38 -17 -106 -23 -150 -14 -93 -22 -106 -50 -80 -26 23 -25 29 5 59 45 45 23 80 -36 56 -16 -7 -32 -10 -35 -7 -3 3 2 36 11 74 14 54 18 120 20 328 2 143 6 268 10 277 9 22 117 90 126 80 4 -4 3 -59 -3 -122z m-298 -724 c0 -19 -37 -63 -45 -54 -4 3 3 20 16 37 26 35 29 37 29 17z" />
</ns0:g>
</g><g transform="translate(-2.3675782220707333,384.02878296382084) scale(0.032186125601421485)"><ns0:metadata>
Created by potrace 1.16, written by Peter Selinger 2001-2019
</ns0:metadata>
<ns0:g transform="translate(0.000000,209.000000) scale(0.100000,-0.100000)" fill="#000000" stroke="none">
<ns0:path d="M1092 1993 c-30 -6 -38 -28 -37 -98 1 -33 -1 -73 -5 -90 -4 -16 -18 -75 -31 -131 l-24 -101 -74 -49 c-91 -60 -102 -75 -77 -103 11 -12 29 -21 42 -21 13 0 25 -4 28 -8 3 -5 1 -51 -5 -103 -5 -52 -9 -103 -8 -114 12 -163 -40 -412 -111 -540 -43 -76 -91 -205 -88 -234 4 -31 58 -52 83 -31 23 19 102 190 147 320 43 124 92 207 162 276 62 61 121 101 129 86 2 -4 5 -26 6 -50 1 -40 -24 -113 -95 -283 -13 -31 -24 -63 -24 -70 -1 -36 -79 -244 -92 -247 -33 -6 -49 -82 -24 -114 18 -24 33 -23 73 8 19 14 36 24 38 22 3 -2 6 -33 8 -69 4 -85 43 -146 114 -179 64 -30 160 -30 223 -1 63 30 123 64 139 79 8 8 24 18 35 23 12 5 39 23 61 39 22 17 63 46 92 66 28 19 70 53 93 75 41 40 41 41 37 98 -4 47 -13 70 -42 112 -20 30 -43 67 -51 84 -8 16 -25 48 -39 70 -13 22 -24 49 -25 61 0 27 -33 56 -54 48 -9 -4 -16 -17 -16 -35 0 -71 49 -237 80 -274 23 -26 33 -60 25 -84 -7 -22 -173 -157 -211 -171 -15 -6 -57 -31 -95 -56 -57 -39 -76 -46 -117 -47 -67 0 -107 18 -124 56 -18 43 -16 175 4 267 9 41 21 114 27 162 6 48 20 107 30 131 35 82 48 163 52 340 2 54 6 100 11 103 4 3 8 12 8 20 0 8 9 27 20 42 27 37 58 131 76 227 19 107 5 185 -34 185 -31 0 -155 -110 -347 -310 -54 -55 -60 -59 -63 -39 -5 29 37 135 64 163 45 46 103 96 112 96 5 0 17 9 27 20 10 11 23 20 30 20 7 0 31 23 54 50 82 97 29 148 -78 76 -29 -20 -58 -36 -63 -36 -6 0 -17 -8 -25 -17 -12 -16 -13 -13 -7 22 3 22 12 57 20 78 8 20 14 67 14 102 0 61 -2 66 -26 75 -14 6 -26 9 -27 9 -1 -1 -12 -4 -25 -6z m258 -523 c0 -21 -7 -54 -14 -72 -8 -18 -18 -55 -21 -82 -5 -37 -15 -57 -41 -84 -21 -22 -34 -45 -34 -62 0 -32 -14 -51 -60 -82 -68 -46 -100 -72 -100 -83 0 -12 -51 -65 -63 -65 -13 0 -7 102 9 158 9 32 25 66 35 78 11 11 19 26 19 34 0 7 24 39 53 71 90 99 171 191 185 210 21 30 32 22 32 -21z" />
<ns0:path d="M422 1453 c-28 -6 -56 -46 -48 -71 4 -11 22 -34 42 -51 47 -43 56 -73 48 -148 -3 -35 -4 -63 -1 -63 3 0 19 22 36 48 26 42 32 64 41 152 9 83 8 106 -2 116 -15 14 -82 24 -116 17z" />
<ns0:path d="M413 904 c-15 -23 -16 -37 -6 -133 7 -65 22 -135 38 -181 32 -91 33 -99 6 -174 -34 -97 -25 -122 45 -128 74 -5 95 40 91 191 -3 93 -5 105 -23 112 -15 5 -25 27 -39 85 -10 44 -23 85 -29 92 -5 8 -11 43 -12 79 -2 64 -11 82 -41 83 -7 0 -20 -12 -30 -26z" />
</ns0:g>
</g><g transform="translate(-1.4567394410541965,474.80294094414694) scale(0.032186125601421485)"><ns0:metadata>
Created by potrace 1.16, written by Peter Selinger 2001-2019
</ns0:metadata>
<ns0:g transform="translate(0.000000,210.000000) scale(0.100000,-0.100000)" fill="#000000" stroke="none">
<ns0:path d="M1276 1925 c-41 -36 -79 -65 -85 -65 -6 0 -26 -14 -46 -31 -29 -26 -35 -38 -35 -71 0 -35 -8 -50 -54 -102 -47 -54 -54 -69 -64 -126 -6 -36 -20 -117 -32 -180 -11 -63 -20 -123 -20 -133 0 -10 -11 -38 -25 -63 -20 -35 -23 -49 -15 -65 22 -39 -4 -183 -63 -354 -11 -33 -28 -71 -38 -85 -9 -14 -19 -34 -22 -45 -3 -12 -5 -7 -4 12 1 19 -9 46 -26 70 -15 22 -28 53 -28 69 -2 79 9 206 20 217 18 18 13 44 -10 50 -25 7 -113 -18 -127 -36 -6 -7 -8 -54 -5 -122 3 -60 6 -153 7 -205 l1 -95 -122 -80 c-130 -86 -144 -104 -103 -145 30 -30 57 -24 109 23 48 42 98 74 105 66 2 -2 -1 -28 -7 -56 -10 -48 -9 -55 11 -82 l21 -29 -31 -73 c-33 -81 -62 -119 -89 -119 -16 0 -49 -45 -49 -65 0 -3 34 -5 76 -3 l77 3 38 64 c22 34 39 68 39 74 0 6 23 51 50 99 28 48 50 90 50 93 0 2 14 33 31 67 83 167 172 442 200 613 12 78 16 86 32 79 33 -12 57 -80 57 -157 0 -71 -2 -77 -27 -96 -79 -58 -92 -92 -43 -110 27 -9 40 -5 110 31 44 22 86 51 95 64 8 13 22 24 30 24 18 0 18 5 1 -83 -13 -65 -41 -232 -49 -297 -2 -17 -7 -5 -16 35 -26 118 -41 145 -80 145 -29 0 -49 -18 -69 -64 -16 -37 -8 -44 26 -24 l28 17 18 -82 c10 -45 24 -111 32 -147 9 -36 21 -109 29 -163 7 -54 19 -105 26 -113 8 -10 25 -14 48 -12 32 3 36 7 39 33 2 17 7 34 12 38 4 5 5 57 3 115 -6 120 29 414 62 537 8 28 20 73 28 101 15 52 39 97 68 126 16 16 17 15 23 -17 7 -37 22 -53 37 -38 16 16 50 156 64 268 22 172 33 223 66 320 17 50 34 108 39 130 17 81 -32 101 -92 38 -43 -46 -69 -67 -100 -84 -12 -7 -37 -26 -54 -43 -17 -17 -57 -53 -89 -81 -32 -27 -84 -74 -116 -103 l-58 -54 12 37 c6 21 22 50 37 65 14 15 47 72 74 126 27 55 60 109 74 122 44 41 13 128 -41 114 -12 -2 -28 -9 -35 -15 -16 -13 -84 -155 -106 -224 -10 -29 -22 -55 -27 -58 -5 -4 -9 -13 -9 -20 0 -8 -11 -38 -24 -67 -59 -129 -76 -172 -76 -189 0 -11 -4 -19 -10 -19 -5 0 -10 10 -10 23 0 23 22 161 41 257 11 55 55 165 74 187 5 6 38 42 73 80 92 100 95 104 115 146 39 89 15 92 -77 12z m260 -430 c-4 -14 -9 -46 -13 -73 -8 -64 -17 -78 -59 -92 -43 -15 -149 -88 -215 -151 -54 -51 -64 -90 -30 -109 45 -24 86 -7 114 46 9 17 37 48 64 69 26 22 51 45 56 52 16 25 39 43 49 37 10 -6 6 -79 -8 -161 -5 -27 -9 -30 -23 -21 -33 21 -91 -3 -125 -50 -29 -41 -139 -142 -154 -142 -4 0 -6 36 -4 79 3 59 0 88 -12 112 -32 64 -33 62 197 297 130 131 177 162 163 107z" />
<ns0:path d="M706 1564 c-9 -8 -16 -24 -16 -34 0 -19 4 -24 49 -59 14 -10 30 -36 36 -57 22 -80 85 -39 71 46 -3 23 -2 49 4 60 8 14 8 26 0 40 -9 17 -21 20 -70 20 -40 0 -64 -5 -74 -16z" />
<ns0:path d="M1407 589 c-15 -9 -17 -22 -15 -91 3 -85 14 -103 53 -88 31 11 42 30 48 79 6 49 -11 94 -38 105 -22 8 -27 7 -48 -5z" />
</ns0:g>
</g><g transform="translate(-1.1034092749646902,591.1559627258098) scale(0.032186125601421485)"><ns0:metadata>
Created by potrace 1.16, written by Peter Selinger 2001-2019
</ns0:metadata>
<ns0:g transform="translate(0.000000,210.000000) scale(0.100000,-0.100000)" fill="#000000" stroke="none">
<ns0:path d="M653 1020 c-13 -5 -23 -14 -23 -20 0 -20 28 -77 41 -86 33 -21 442 -56 487 -42 41 12 41 33 1 85 -28 36 -35 40 -59 33 -52 -15 -181 -3 -337 31 -51 11 -81 11 -110 -1z" />
</ns0:g>
</g><g transform="translate(-0.7009094383665229,664.6529875888228) scale(0.032186125601421485)"><ns0:metadata>
Created by potrace 1.16, written by Peter Selinger 2001-2019
</ns0:metadata>
<ns0:g transform="translate(0.000000,212.000000) scale(0.100000,-0.100000)" fill="#000000" stroke="none">
<ns0:path d="M911 1561 c-36 -36 -27 -59 32 -86 28 -14 58 -25 65 -25 22 0 97 -56 111 -83 35 -66 -27 -206 -136 -304 -71 -64 -113 -93 -138 -93 -9 0 -9 16 2 72 19 100 -6 455 -34 475 -19 15 -50 8 -75 -16 -19 -19 -34 -150 -31 -276 7 -286 8 -626 1 -715 -9 -117 -1 -151 38 -169 33 -15 60 3 68 43 4 17 6 123 6 236 0 113 -1 215 0 228 0 18 15 29 83 61 45 21 99 53 119 72 20 19 50 44 66 56 16 12 37 38 46 57 9 19 21 38 26 41 6 3 15 26 21 51 6 24 15 44 19 44 13 0 25 60 21 105 -4 48 -34 110 -70 146 -86 85 -197 123 -240 80z" />
</ns0:g>
</g><g transform="translate(-2.49347031908718,760.6547485541005) scale(0.032186125601421485)"><ns0:metadata>
Created by potrace 1.16, written by Peter Selinger 2001-2019
</ns0:metadata>
<ns0:g transform="translate(0.000000,207.000000) scale(0.100000,-0.100000)" fill="#000000" stroke="none">
<ns0:path d="M1230 1587 c-28 -14 -38 -46 -50 -165 -5 -45 -18 -117 -29 -160 -11 -42 -23 -90 -26 -107 -4 -16 -15 -48 -25 -70 -10 -22 -22 -53 -25 -68 -4 -15 -11 -30 -16 -33 -5 -3 -9 -12 -9 -21 0 -9 -16 -37 -35 -64 -19 -26 -42 -65 -50 -86 -9 -21 -27 -49 -39 -63 -13 -14 -31 -39 -39 -56 -9 -17 -23 -36 -31 -43 -14 -12 -16 -10 -16 10 0 13 -7 45 -15 72 -8 26 -23 155 -35 288 -13 157 -25 250 -35 269 -8 16 -15 38 -15 50 0 14 -6 20 -24 20 -32 0 -37 19 -30 110 6 73 5 79 -15 90 -18 9 -29 8 -56 -4 -36 -18 -34 -11 -64 -186 -27 -153 -60 -305 -78 -360 -21 -64 -159 -414 -204 -519 -12 -27 -18 -54 -14 -61 11 -18 72 -41 90 -34 18 7 47 66 105 214 104 267 210 494 223 481 5 -5 13 -60 18 -123 5 -62 13 -144 19 -183 20 -124 21 -138 27 -256 5 -106 7 -119 29 -143 15 -16 35 -26 52 -26 25 0 30 8 62 92 19 50 40 96 45 102 12 12 47 72 102 176 20 36 49 89 65 118 49 89 128 310 133 371 2 24 6 46 9 49 6 5 7 4 35 -88 10 -36 26 -81 34 -100 8 -19 22 -75 32 -125 9 -49 23 -110 31 -134 8 -24 28 -96 45 -160 17 -64 34 -120 40 -126 5 -5 9 -18 9 -30 0 -11 8 -46 17 -77 21 -68 50 -89 89 -63 17 11 23 22 20 38 -3 12 -7 42 -11 67 -6 46 -21 102 -35 131 -11 21 -70 222 -85 289 -14 59 -67 252 -92 335 -8 28 -19 70 -25 95 -5 25 -14 63 -19 85 -9 37 -13 61 -25 142 -6 41 -31 56 -64 40z" />
</ns0:g>
</g><g transform="translate(2.4139082969460333,868.798595230068) scale(0.032186125601421485)"><ns0:metadata>
Created by potrace 1.16, written by Peter Selinger 2001-2019
</ns0:metadata>
<ns0:g transform="translate(0.000000,210.000000) scale(0.100000,-0.100000)" fill="#000000" stroke="none">
<ns0:path d="M756 1009 c-35 -51 -5 -121 57 -133 20 -4 50 0 74 8 37 13 223 15 348 4 l30 -3 -2 63 c-1 35 -3 65 -5 67 -2 1 -112 6 -244 10 l-242 7 -16 -23z" />
</ns0:g>
</g><g transform="translate(-1.6814700584038178,949.9645241018538) scale(0.032186125601421485)"><ns0:metadata>
Created by potrace 1.16, written by Peter Selinger 2001-2019
</ns0:metadata>
<ns0:g transform="translate(0.000000,206.000000) scale(0.100000,-0.100000)" fill="#000000" stroke="none">
<ns0:path d="M988 1436 c-15 -8 -48 -14 -74 -14 -25 0 -51 -5 -56 -10 -6 -6 -17 -59 -24 -119 -8 -59 -23 -135 -34 -168 -22 -70 -41 -285 -30 -341 10 -50 18 -70 48 -118 23 -38 25 -38 73 -34 40 4 61 15 121 61 115 88 187 166 238 261 20 35 21 45 12 115 -20 149 -54 229 -119 275 -24 16 -45 37 -48 45 -4 13 -66 61 -77 61 -2 0 -15 -6 -30 -14z m39 -113 c65 -64 93 -107 117 -180 14 -43 26 -89 26 -102 0 -54 -117 -195 -204 -246 -90 -52 -106 -14 -76 175 12 74 23 146 25 160 8 53 33 142 44 153 6 6 11 21 11 32 0 43 19 45 57 8z" />
</ns0:g>
</g><g transform="translate(-2.581251598461904,1043.8287761919205) scale(0.032186125601421485)"><ns0:metadata>
Created by potrace 1.16, written by Peter Selinger 2001-2019
</ns0:metadata>
<ns0:g transform="translate(0.000000,206.000000) scale(0.100000,-0.100000)" fill="#000000" stroke="none">
<ns0:path d="M1020 1511 c-17 -5 -26 -16 -30 -36 -3 -18 -15 -34 -28 -41 -44 -22 -55 -57 -90 -299 -21 -148 -20 -340 3 -365 8 -9 15 -26 15 -39 0 -12 6 -37 14 -56 19 -46 54 -54 109 -27 23 11 65 24 92 27 62 9 71 16 102 80 79 163 90 203 94 340 6 233 -3 325 -33 325 -6 0 -27 14 -49 31 -21 16 -55 33 -76 36 -21 3 -47 12 -58 19 -21 15 -27 16 -65 5z m115 -114 c60 -34 66 -55 66 -225 0 -142 -11 -210 -40 -246 -5 -6 -14 -29 -21 -50 -19 -58 -62 -96 -109 -96 -37 0 -39 1 -55 53 -17 53 -16 54 18 213 19 87 40 180 46 206 7 26 9 56 5 67 -3 10 -1 22 5 26 5 3 10 22 10 41 0 41 17 44 75 11z" />
</ns0:g>
</g><g transform="translate(-1.2450157390555887,1134.0446503734217) scale(0.032186125601421485)"><ns0:metadata>
Created by potrace 1.16, written by Peter Selinger 2001-2019
</ns0:metadata>
<ns0:g transform="translate(0.000000,206.000000) scale(0.100000,-0.100000)" fill="#000000" stroke="none">
<ns0:path d="M1261 1449 c-32 -26 -41 -81 -47 -284 -2 -88 -10 -214 -18 -280 -7 -66 -9 -130 -5 -141 4 -12 5 -31 3 -41 -3 -11 1 -25 10 -32 12 -10 20 -7 45 16 27 24 32 37 37 93 9 116 36 284 51 327 10 28 13 60 10 95 -4 29 -3 83 1 121 9 75 -3 118 -37 136 -25 14 -21 14 -50 -10z" />
</ns0:g>
</g><g transform="translate(-0.2996358043259306,1230.9490454072143) scale(0.032186125601421485)"><ns0:metadata>
Created by potrace 1.16, written by Peter Selinger 2001-2019
</ns0:metadata>
<ns0:g transform="translate(0.000000,210.000000) scale(0.100000,-0.100000)" fill="#000000" stroke="none">
<ns0:path d="M653 1020 c-13 -5 -23 -14 -23 -20 0 -20 28 -77 41 -86 33 -21 442 -56 487 -42 41 12 41 33 1 85 -28 36 -35 40 -59 33 -52 -15 -181 -3 -337 31 -51 11 -81 11 -110 -1z" />
</ns0:g>
</g><g transform="translate(1.9409699793264963,1315.938544273123) scale(0.032186125601421485)"><ns0:metadata>
Created by potrace 1.16, written by Peter Selinger 2001-2019
</ns0:metadata>
<ns0:g transform="translate(0.000000,210.000000) scale(0.100000,-0.100000)" fill="#000000" stroke="none">
<ns0:path d="M1438 1357 c-15 -12 -55 -58 -89 -102 -34 -44 -73 -91 -86 -104 -13 -13 -23 -29 -23 -35 0 -7 -21 -43 -47 -82 -27 -38 -57 -85 -67 -104 -10 -19 -27 -44 -36 -55 -10 -11 -23 -30 -29 -42 -18 -36 -36 -27 -60 30 -12 28 -29 63 -37 77 -30 50 -94 188 -94 203 0 9 -5 19 -11 22 -6 4 -8 22 -4 44 7 45 -9 69 -50 72 -126 11 -120 -114 15 -307 22 -31 40 -61 40 -66 0 -5 9 -21 19 -36 13 -17 24 -61 32 -122 14 -106 28 -136 66 -143 20 -4 33 2 52 22 43 45 121 143 121 151 0 5 16 32 35 62 20 29 40 69 45 89 6 20 21 51 35 70 13 19 29 45 35 59 6 14 16 30 23 35 15 13 33 41 51 82 8 18 35 61 59 95 50 71 66 108 45 108 -7 0 -25 -10 -40 -23z" />
</ns0:g>
</g><g transform="translate(2.8588439778182533,1402.7044598570697) scale(0.032186125601421485)"><ns0:metadata>
Created by potrace 1.16, written by Peter Selinger 2001-2019
</ns0:metadata>
<ns0:g transform="translate(0.000000,205.000000) scale(0.100000,-0.100000)" fill="#000000" stroke="none">
<ns0:path d="M802 1318 c-45 -67 -75 -135 -68 -153 5 -14 9 -15 21 -5 12 10 15 10 15 -3 0 -9 -4 -27 -10 -41 -5 -14 -16 -76 -25 -138 -17 -125 -33 -223 -41 -251 -5 -15 -8 -16 -20 -6 -29 24 -38 -4 -24 -78 21 -111 57 -151 107 -118 25 17 27 22 42 145 23 192 62 413 78 443 9 18 20 52 24 77 4 25 10 62 14 82 4 20 5 48 1 62 -5 22 -12 26 -46 26 -35 0 -42 -5 -68 -42z" />
</ns0:g>
</g><g transform="translate(-1.0543078518562652,1498.2266281934121) scale(0.032186125601421485)"><ns0:metadata>
Created by potrace 1.16, written by Peter Selinger 2001-2019
</ns0:metadata>
<ns0:g transform="translate(0.000000,211.000000) scale(0.100000,-0.100000)" fill="#000000" stroke="none">
<ns0:path d="M1255 970 c-3 -5 -20 -9 -38 -8 -53 2 -72 -16 -106 -99 -34 -84 -40 -155 -16 -186 7 -11 32 -23 55 -28 37 -9 47 -6 88 19 41 25 48 35 64 89 16 55 17 66 5 102 -8 23 -11 45 -6 53 5 7 9 25 9 41 0 22 -4 27 -24 27 -14 0 -28 -4 -31 -10z" />
</ns0:g>
</g><g transform="translate(-2.3714200060382495,1587.8864556596534) scale(0.032186125601421485)"><ns0:metadata>
Created by potrace 1.16, written by Peter Selinger 2001-2019
</ns0:metadata>
<ns0:g transform="translate(0.000000,208.000000) scale(0.100000,-0.100000)" fill="#000000" stroke="none">
<ns0:path d="M912 1298 c-29 -8 -72 -53 -72 -77 0 -10 61 -61 74 -61 4 0 22 12 41 26 24 18 43 24 66 22 48 -5 55 -24 42 -112 -17 -121 -150 -366 -198 -366 -12 0 -24 -9 -102 -76 -48 -40 -56 -79 -25 -107 26 -24 59 -21 96 9 173 141 192 152 346 204 115 39 130 47 130 65 0 27 -86 22 -193 -12 -44 -13 -82 -22 -85 -18 -5 5 19 57 57 125 10 17 23 48 45 102 8 20 17 65 21 101 6 54 4 70 -14 106 -30 58 -72 82 -142 79 -30 -1 -69 -6 -87 -10z" />
</ns0:g>
</g></svg>