<?xml version='1.0' encoding='utf-8'?>
<svg xmlns:ns0="http://www.w3.org/2000/svg" xmlns="http://www.w3.org/2000/svg" width="235" height="109" viewBox="0 0 235 109"><g transform="translate(0.9554409226140592,-63.29190085500221) scale(0.030520119100086486)"><ns0:metadata>
Created by potrace 1.16, written by Peter Selinger 2001-2019
</ns0:metadata>
<ns0:g transform="translate(0.000000,210.000000) scale(0.100000,-0.100000)" fill="#000000" stroke="none">
<ns0:path d="M1195 2079 c-22 -12 -59 -34 -82 -49 -23 -16 -61 -38 -85 -49 -24 -11 -70 -37 -103 -56 -33 -19 -68 -38 -77 -41 -10 -4 -18 -10 -18 -15 0 -5 -5 -9 -10 -9 -16 0 -102 -41 -128 -62 -13 -9 -76 -34 -139 -54 -63 -20 -120 -43 -126 -50 -41 -46 -41 -45 -20 -72 41 -55 83 -52 184 14 29 19 60 34 67 34 8 0 41 18 74 40 33 22 65 40 70 40 11 0 67 37 83 54 13 14 125 69 131 64 2 -3 0 -18 -5 -34 -4 -16 -8 -99 -8 -184 0 -85 -4 -236 -8 -335 -11 -251 -11 -259 -21 -360 -5 -49 -7 -164 -6 -255 5 -195 -5 -330 -22 -330 -14 0 -34 39 -76 150 -59 156 -59 155 -10 256 41 88 59 164 60 261 0 62 -38 102 -106 110 -45 5 -60 1 -118 -27 -36 -18 -71 -39 -77 -46 -18 -21 -2 -62 31 -79 16 -8 40 -30 53 -47 23 -31 57 -124 57 -155 0 -16 -89 -129 -109 -138 -8 -3 -18 0 -22 6 -13 22 -30 158 -23 193 7 39 -1 86 -15 86 -4 0 -21 -30 -37 -67 -24 -56 -29 -82 -29 -148 0 -72 3 -85 30 -127 53 -82 97 -88 180 -23 32 25 59 44 61 42 4 -5 44 -171 44 -184 0 -7 12 -32 27 -56 15 -23 32 -51 38 -62 14 -27 73 -65 102 -65 49 0 64 98 64 405 0 132 4 281 9 330 5 50 14 250 21 445 11 336 13 359 36 427 21 60 33 79 74 113 27 23 49 47 49 55 0 7 3 15 8 17 4 2 18 15 31 31 l24 27 -44 0 c-26 0 -61 -9 -84 -21z m-398 -281 c-3 -8 -6 -5 -6 6 -1 11 2 17 5 13 3 -3 4 -12 1 -19z m17 -852 c-4 -47 -10 -86 -13 -86 -7 0 -51 138 -51 157 0 14 52 33 63 23 5 -4 5 -46 1 -94z" />
</ns0:g>
</g><g transform="translate(-2.391627754578508,13.798781579926242) scale(0.030520119100086486)"><ns0:metadata>
Created by potrace 1.16, written by Peter Selinger 2001-2019
</ns0:metadata>
<ns0:g transform="translate(0.000000,205.000000) scale(0.100000,-0.100000)" fill="#000000" stroke="none">
<ns0:path d="M1436 1838 c-125 -125 -173 -167 -199 -173 -32 -8 -32 -6 -12 43 20 46 13 75 -21 90 -38 18 -78 -3 -82 -43 -4 -52 -34 -179 -46 -194 -6 -8 -27 -21 -46 -30 -57 -27 -147 -89 -154 -106 -12 -32 -6 -64 13 -75 30 -16 68 -12 88 9 26 27 59 42 77 35 10 -4 27 5 45 22 16 16 64 56 106 89 43 33 96 76 119 96 22 19 58 48 79 64 l38 28 -5 -119 c-3 -65 -11 -155 -17 -199 -6 -44 -15 -116 -19 -160 -4 -44 -15 -106 -24 -138 -21 -77 -21 -97 3 -97 22 0 36 15 46 50 4 14 22 57 40 95 21 45 35 95 40 139 4 38 9 79 10 90 14 83 37 402 33 466 -3 63 -4 65 -31 68 -22 3 -38 -7 -81 -50z" />
<ns0:path d="M639 1735 c-15 -8 -29 -22 -33 -30 -3 -9 1 -62 9 -117 9 -56 14 -102 13 -103 -6 -5 -99 -35 -109 -35 -27 0 -69 -42 -69 -69 0 -47 64 -86 93 -57 8 8 30 18 50 21 33 6 35 5 41 -22 3 -15 5 -80 4 -144 -1 -105 -3 -118 -24 -142 -13 -15 -27 -27 -32 -27 -5 0 -19 -11 -32 -24 -12 -14 -37 -28 -54 -32 -17 -3 -40 -14 -51 -24 -22 -19 -183 -110 -194 -110 -4 0 -17 -10 -28 -22 -20 -22 -27 -39 -24 -65 1 -17 42 -53 60 -53 12 0 177 108 300 196 50 35 60 32 54 -18 -2 -24 -8 -61 -13 -83 -5 -22 -12 -87 -15 -145 -11 -190 -8 -177 -58 -225 -46 -44 -47 -44 -59 -22 -8 14 -13 71 -14 162 -1 137 -2 140 -24 143 -14 2 -20 0 -16 -7 4 -6 -1 -25 -10 -43 -13 -24 -19 -65 -22 -148 l-4 -115 67 -135 c38 -74 75 -143 83 -152 30 -35 82 -16 82 29 0 13 4 31 10 41 12 22 50 208 50 247 1 45 32 105 79 150 35 33 41 36 41 19 0 -11 12 -32 28 -46 37 -35 69 -28 127 29 52 52 178 137 183 123 2 -5 -18 -58 -44 -117 -26 -59 -58 -137 -71 -173 -14 -36 -36 -80 -49 -97 -14 -18 -36 -63 -50 -100 -14 -38 -35 -87 -47 -110 -17 -34 -19 -47 -11 -60 14 -23 97 -30 127 -10 12 8 45 17 72 21 51 7 112 25 130 37 6 4 30 10 54 14 24 4 72 20 106 35 34 15 77 31 96 34 48 10 130 49 126 60 -5 16 -71 34 -89 25 -16 -9 -119 -30 -233 -49 -27 -4 -62 -13 -76 -18 -38 -15 -136 -25 -142 -15 -3 5 15 49 40 98 25 49 53 112 63 140 9 27 31 77 47 110 17 33 34 71 38 85 4 14 17 45 28 70 15 34 20 64 19 119 -2 107 -24 121 -98 65 -17 -13 -36 -24 -42 -24 -6 0 -23 -10 -39 -23 -37 -30 -211 -137 -223 -137 -9 0 5 26 76 133 38 58 99 170 124 227 5 14 22 43 35 65 14 22 28 47 31 55 3 8 10 22 15 30 5 8 27 45 49 82 22 36 66 90 99 120 35 31 61 65 65 82 7 27 6 28 -21 23 -86 -17 -114 -26 -153 -48 -38 -21 -50 -38 -110 -154 -37 -71 -92 -175 -122 -230 -30 -55 -58 -111 -61 -125 -4 -14 -17 -41 -29 -60 -21 -30 -46 -74 -89 -150 -25 -45 -60 -90 -70 -90 -16 0 21 301 40 324 5 6 12 34 17 61 5 35 17 63 40 91 52 63 38 119 -20 81 -22 -15 -24 -15 -29 3 -4 16 -2 73 8 155 1 17 3 44 4 61 1 28 8 35 67 65 76 39 134 91 134 120 0 32 -24 32 -93 -1 -37 -17 -79 -32 -94 -33 -26 -2 -28 1 -38 58 -6 33 -17 71 -25 85 -7 14 -16 31 -20 39 -9 21 -21 22 -51 6z m-88 -1428 c-13 -35 -27 -34 -34 1 -4 20 0 31 16 44 21 16 22 16 25 -1 2 -9 -2 -29 -7 -44z" />
<ns0:path d="M1228 1209 c-12 -6 -18 -22 -18 -44 0 -28 7 -38 42 -64 46 -34 69 -38 88 -16 14 17 6 46 -28 97 -25 39 -50 47 -84 27z" />
</ns0:g>
</g><g transform="translate(1.5363559778244849,109.95599487964938) scale(0.030520119100086486)"><ns0:metadata>
Created by potrace 1.16, written by Peter Selinger 2001-2019
</ns0:metadata>
<ns0:g transform="translate(0.000000,205.000000) scale(0.100000,-0.100000)" fill="#000000" stroke="none">
<ns0:path d="M1458 1889 c-26 -10 -28 -15 -28 -67 0 -31 -4 -62 -8 -69 -9 -14 -93 -73 -106 -73 -4 0 -21 -11 -38 -25 -16 -14 -37 -25 -47 -25 -23 0 -71 -51 -71 -76 0 -10 12 -27 26 -37 28 -21 14 -25 148 44 21 11 40 19 42 16 4 -3 -23 -105 -57 -219 -19 -63 -22 -68 -67 -88 -26 -12 -54 -26 -62 -31 -8 -5 -26 -14 -39 -19 -52 -23 -81 -51 -81 -79 0 -32 27 -61 56 -61 11 0 55 23 99 50 44 28 82 50 86 50 3 0 6 -53 5 -118 l-1 -118 -40 -36 c-22 -19 -70 -52 -106 -72 l-65 -36 -11 80 c-9 69 -16 87 -49 130 -21 27 -44 50 -51 50 -7 0 -13 5 -13 10 0 15 -87 12 -119 -5 -26 -13 -41 -33 -41 -55 0 -4 24 -15 53 -24 79 -25 94 -35 112 -76 13 -28 15 -49 10 -81 -10 -60 -42 -125 -70 -143 -16 -10 -21 -22 -18 -38 5 -27 -63 -97 -114 -118 -38 -14 -95 -7 -114 16 -15 18 -17 91 -6 234 8 107 22 173 61 275 15 39 38 108 51 155 48 164 75 238 127 336 92 176 86 158 79 277 -2 18 -50 3 -159 -48 -143 -68 -192 -94 -213 -111 -8 -8 -30 -17 -47 -20 -18 -4 -32 -10 -32 -14 0 -4 -11 -11 -25 -14 -34 -9 -42 -48 -21 -93 16 -35 18 -35 63 -30 31 3 52 12 62 25 9 12 39 32 68 45 28 13 68 38 88 55 62 55 68 38 19 -60 -24 -47 -49 -118 -79 -223 -33 -116 -74 -244 -84 -263 -6 -11 -15 -50 -21 -88 -6 -38 -16 -85 -22 -104 -24 -80 -41 -127 -54 -157 -8 -17 -14 -36 -14 -41 0 -6 -7 -23 -15 -39 -19 -38 -42 -92 -50 -123 -4 -14 -18 -42 -32 -62 -54 -80 -25 -157 49 -129 25 9 58 76 89 179 7 24 18 51 25 60 12 15 13 13 14 -16 0 -80 59 -129 139 -117 67 9 113 26 142 52 14 13 29 23 34 23 4 0 40 33 79 73 39 40 85 79 101 87 17 8 55 31 85 50 30 20 73 49 96 63 22 15 44 27 48 27 5 0 5 -42 2 -92 -11 -160 -12 -162 -96 -202 -92 -45 -126 -70 -144 -108 -22 -42 -20 -63 6 -87 30 -29 64 -18 115 37 34 37 46 43 67 38 14 -3 28 -2 31 4 9 14 144 100 158 100 7 0 24 7 39 14 16 8 49 18 75 22 27 3 54 10 62 14 8 4 25 3 38 -3 36 -16 65 15 57 62 -12 65 -38 75 -110 44 -39 -16 -206 -54 -212 -48 -2 2 1 38 7 80 6 42 11 102 11 133 0 76 16 129 40 137 11 4 20 13 20 20 0 8 9 19 20 25 11 6 20 17 20 24 0 7 9 25 21 40 17 21 19 29 9 41 -19 23 -33 18 -84 -26 -25 -22 -46 -37 -47 -32 -4 30 5 90 17 118 19 47 18 54 -11 61 -14 3 -25 10 -25 14 0 5 25 30 56 57 31 26 76 66 101 89 l46 40 -18 27 c-9 15 -21 27 -26 27 -5 0 -30 -15 -56 -33 -82 -58 -85 -56 -56 26 14 40 29 77 34 82 4 6 12 29 18 50 5 22 20 72 32 112 l22 72 -20 53 c-22 57 -36 65 -85 47z m-871 -1161 c-3 -8 -6 -5 -6 6 -1 11 2 17 5 13 3 -3 4 -12 1 -19z" />
<ns0:path d="M790 980 c0 -5 5 -10 10 -10 6 0 10 5 10 10 0 6 -4 10 -10 10 -5 0 -10 -4 -10 -10z" />
</ns0:g>
</g><g transform="translate(-2.995310915671382,212.6203936880014) scale(0.030520119100086486)"><ns0:metadata>
Created by potrace 1.16, written by Peter Selinger 2001-2019
</ns0:metadata>
<ns0:g transform="translate(0.000000,210.000000) scale(0.100000,-0.100000)" fill="#000000" stroke="none">
<ns0:path d="M653 1020 c-13 -5 -23 -14 -23 -20 0 -20 28 -77 41 -86 33 -21 442 -56 487 -42 41 12 41 33 1 85 -28 36 -35 40 -59 33 -52 -15 -181 -3 -337 31 -51 11 -81 11 -110 -1z" />
</ns0:g>
</g><g transform="translate(-2.51126525608521,289.0224260272968) scale(0.030520119100086486)"><ns0:metadata>
Created by potrace 1.16, written by Peter Selinger 2001-2019
</ns0:metadata>
<ns0:g transform="translate(0.000000,211.000000) scale(0.100000,-0.100000)" fill="#000000" stroke="none">
<ns0:path d="M1175 1579 c-22 -5 -76 -27 -120 -49 -44 -21 -93 -42 -109 -46 -56 -14 -191 -74 -201 -90 -5 -10 -18 -24 -27 -33 -23 -20 -23 -33 3 -65 22 -28 54 -34 62 -13 3 8 45 32 94 56 48 23 101 48 117 57 16 8 30 13 31 12 2 -2 -1 -28 -6 -59 -11 -68 -24 -174 -44 -339 -8 -69 -19 -161 -24 -205 -6 -44 -16 -134 -22 -200 -13 -142 -7 -170 41 -177 49 -7 62 28 71 205 7 142 28 336 50 481 6 37 13 83 14 100 2 18 14 65 28 104 26 75 77 137 124 148 29 8 57 57 48 85 -12 35 -56 45 -130 28z" />
</ns0:g>
</g><g transform="translate(0.21725515924907768,378.5363263898912) scale(0.030520119100086486)"><ns0:metadata>
Created by potrace 1.16, written by Peter Selinger 2001-2019
</ns0:metadata>
<ns0:g transform="translate(0.000000,211.000000) scale(0.100000,-0.100000)" fill="#000000" stroke="none">
<ns0:path d="M1360 1549 c-62 -34 -143 -69 -159 -69 -9 0 -47 -12 -86 -26 -38 -14 -86 -30 -105 -36 -19 -5 -46 -16 -60 -23 -14 -7 -47 -23 -75 -35 -27 -13 -53 -28 -57 -34 -14 -21 -8 -56 13 -77 30 -30 81 -20 155 30 67 45 152 81 190 81 l26 0 -6 -132 c-14 -270 -17 -377 -16 -531 0 -86 3 -164 6 -172 3 -7 20 -17 37 -21 38 -8 52 8 68 82 9 40 9 57 1 67 -8 9 -10 62 -7 173 3 87 5 197 5 244 0 47 4 110 10 140 6 30 14 73 18 94 4 23 15 43 27 50 30 16 36 28 31 58 -5 23 0 30 37 50 38 21 42 27 42 63 0 37 -2 40 -30 42 -16 1 -46 -7 -65 -18z" />
</ns0:g>
</g><g transform="translate(-2.78075548120205,475.75647818573805) scale(0.030520119100086486)"><ns0:metadata>
Created by potrace 1.16, written by Peter Selinger 2001-2019
</ns0:metadata>
<ns0:g transform="translate(0.000000,210.000000) scale(0.100000,-0.100000)" fill="#000000" stroke="none">
<ns0:path d="M756 1009 c-35 -51 -5 -121 57 -133 20 -4 50 0 74 8 37 13 223 15 348 4 l30 -3 -2 63 c-1 35 -3 65 -5 67 -2 1 -112 6 -244 10 l-242 7 -16 -23z" />
</ns0:g>
</g><g transform="translate(2.25832609133505,550.9060910942179) scale(0.030520119100086486)"><ns0:metadata>
Created by potrace 1.16, written by Peter Selinger 2001-2019
</ns0:metadata>
<ns0:g transform="translate(0.000000,208.000000) scale(0.100000,-0.100000)" fill="#000000" stroke="none">
<ns0:path d="M871 1322 c-20 -20 -30 -42 -35 -79 -6 -47 -4 -56 21 -92 21 -30 35 -40 56 -41 21 0 30 -7 38 -27 16 -41 2 -130 -28 -183 -14 -25 -34 -61 -44 -80 -22 -44 -86 -106 -164 -158 -67 -45 -108 -93 -99 -117 3 -8 22 -22 41 -31 32 -16 35 -16 56 2 33 28 60 42 140 71 39 14 81 31 92 38 24 15 105 38 199 56 66 13 89 30 69 50 -16 16 -201 12 -255 -4 -39 -12 -48 -12 -48 -2 0 13 51 96 89 146 30 38 38 65 45 149 5 53 3 91 -7 130 -21 76 -26 88 -64 148 -38 61 -61 66 -102 24z" />
</ns0:g>
</g><g transform="translate(2.1840203164058494,633.9962688739769) scale(0.030520119100086486)"><ns0:metadata>
Created by potrace 1.16, written by Peter Selinger 2001-2019
</ns0:metadata>
<ns0:g transform="translate(0.000000,208.000000) scale(0.100000,-0.100000)" fill="#000000" stroke="none">
<ns0:path d="M862 1397 c-24 -13 -29 -23 -42 -94 -4 -26 -13 -61 -18 -78 -6 -16 -16 -86 -23 -154 l-11 -123 24 -25 c31 -31 85 -43 166 -38 80 6 86 -7 38 -77 -20 -29 -54 -78 -74 -108 -21 -30 -58 -75 -82 -100 -25 -25 -53 -54 -62 -65 -9 -11 -24 -26 -33 -33 -37 -31 3 -84 49 -67 30 11 236 211 236 229 0 6 16 31 36 56 49 62 64 102 64 175 0 83 -8 89 -122 86 -141 -3 -143 -2 -106 108 26 80 35 91 96 122 26 13 73 44 105 68 58 45 72 76 44 99 -18 15 -78 -2 -114 -32 -15 -13 -41 -26 -58 -30 -28 -7 -29 -7 -12 12 18 20 23 57 9 66 -20 12 -89 14 -110 3z" />
</ns0:g>
</g><g transform="translate(2.6143851000658174,727.3279139727639) scale(0.030520119100086486)"><ns0:metadata>
Created by potrace 1.16, written by Peter Selinger 2001-2019
</ns0:metadata>
<ns0:g transform="translate(0.000000,206.000000) scale(0.100000,-0.100000)" fill="#000000" stroke="none">
<ns0:path d="M1020 1511 c-17 -5 -26 -16 -30 -36 -3 -18 -15 -34 -28 -41 -44 -22 -55 -57 -90 -299 -21 -148 -20 -340 3 -365 8 -9 15 -26 15 -39 0 -12 6 -37 14 -56 19 -46 54 -54 109 -27 23 11 65 24 92 27 62 9 71 16 102 80 79 163 90 203 94 340 6 233 -3 325 -33 325 -6 0 -27 14 -49 31 -21 16 -55 33 -76 36 -21 3 -47 12 -58 19 -21 15 -27 16 -65 5z m115 -114 c60 -34 66 -55 66 -225 0 -142 -11 -210 -40 -246 -5 -6 -14 -29 -21 -50 -19 -58 -62 -96 -109 -96 -37 0 -39 1 -55 53 -17 53 -16 54 18 213 19 87 40 180 46 206 7 26 9 56 5 67 -3 10 -1 22 5 26 5 3 10 22 10 41 0 41 17 44 75 11z" />
</ns0:g>
</g><g transform="translate(0.8202965810104956,814.6427233112661) scale(0.030520119100086486)"><ns0:metadata>
Created by potrace 1.16, written by Peter Selinger 2001-2019
</ns0:metadata>
<ns0:g transform="translate(0.000000,206.000000) scale(0.100000,-0.100000)" fill="#000000" stroke="none">
<ns0:path d="M1113 1883 c-28 -6 -48 -38 -57 -92 -4 -24 -16 -64 -28 -90 -11 -25 -20 -59 -18 -76 1 -16 2 -42 3 -57 0 -43 25 -34 47 18 11 25 20 52 20 60 0 8 4 14 10 14 10 0 24 -45 40 -127 10 -57 38 -143 76 -239 14 -35 24 -69 22 -75 -6 -18 -123 -60 -198 -71 -36 -5 -79 -16 -97 -24 -17 -8 -37 -14 -44 -14 -7 0 -21 -7 -31 -17 -30 -27 -33 -6 -6 44 13 27 30 68 38 93 7 25 27 90 45 145 18 55 38 142 45 194 11 93 10 95 -12 117 -29 28 -72 22 -95 -13 -9 -14 -23 -66 -30 -116 -16 -110 -66 -314 -86 -354 -8 -15 -27 -64 -41 -108 -46 -135 -119 -329 -128 -340 -4 -5 -8 -23 -8 -41 0 -26 7 -36 36 -53 49 -29 67 -16 94 63 12 36 31 77 42 91 15 19 22 44 23 83 2 55 36 152 52 152 5 0 13 -10 18 -22 12 -29 75 -37 109 -15 12 9 54 23 92 32 38 10 74 21 79 25 6 4 34 13 64 20 68 16 73 10 95 -103 8 -45 22 -104 31 -131 l15 -49 -80 7 c-62 5 -80 4 -80 -6 0 -20 118 -88 151 -88 9 0 33 -7 54 -16 64 -27 79 -18 86 51 4 33 3 62 -1 65 -18 12 -60 121 -74 195 -24 120 -66 286 -81 320 -27 62 -66 194 -85 290 -45 230 -57 268 -79 264 -3 -1 -16 -4 -28 -6z m112 -433 c4 -6 1 -18 -6 -26 -11 -14 -13 -14 -21 0 -15 26 12 51 27 26z" />
</ns0:g>
</g><g transform="translate(2.062976382282102,907.7494150572904) scale(0.030520119100086486)"><ns0:metadata>
Created by potrace 1.16, written by Peter Selinger 2001-2019
</ns0:metadata>
<ns0:g transform="translate(0.000000,210.000000) scale(0.100000,-0.100000)" fill="#000000" stroke="none">
<ns0:path d="M653 1020 c-13 -5 -23 -14 -23 -20 0 -20 28 -77 41 -86 33 -21 442 -56 487 -42 41 12 41 33 1 85 -28 36 -35 40 -59 33 -52 -15 -181 -3 -337 31 -51 11 -81 11 -110 -1z" />
</ns0:g>
</g><g transform="translate(-0.835455848897368,987.0615830972022) scale(0.030520119100086486)"><ns0:metadata>
Created by potrace 1.16, written by Peter Selinger 2001-2019
</ns0:metadata>
<ns0:g transform="translate(0.000000,208.000000) scale(0.100000,-0.100000)" fill="#000000" stroke="none">
<ns0:path d="M912 1298 c-29 -8 -72 -53 -72 -77 0 -10 61 -61 74 -61 4 0 22 12 41 26 24 18 43 24 66 22 48 -5 55 -24 42 -112 -17 -121 -150 -366 -198 -366 -12 0 -24 -9 -102 -76 -48 -40 -56 -79 -25 -107 26 -24 59 -21 96 9 173 141 192 152 346 204 115 39 130 47 130 65 0 27 -86 22 -193 -12 -44 -13 -82 -22 -85 -18 -5 5 19 57 57 125 10 17 23 48 45 102 8 20 17 65 21 101 6 54 4 70 -14 106 -30 58 -72 82 -142 79 -30 -1 -69 -6 -87 -10z" />
</ns0:g>
</g><g transform="translate(-1.344732921318041,1076.7128084764847) scale(0.030520119100086486)"><ns0:metadata>
Created by potrace 1.16, written by Peter Selinger 2001-2019
</ns0:metadata>
<ns0:g transform="translate(0.000000,206.000000) scale(0.100000,-0.100000)" fill="#000000" stroke="none">
<ns0:path d="M988 1436 c-15 -8 -48 -14 -74 -14 -25 0 -51 -5 -56 -10 -6 -6 -17 -59 -24 -119 -8 -59 -23 -135 -34 -168 -22 -70 -41 -285 -30 -341 10 -50 18 -70 48 -118 23 -38 25 -38 73 -34 40 4 61 15 121 61 115 88 187 166 238 261 20 35 21 45 12 115 -20 149 -54 229 -119 275 -24 16 -45 37 -48 45 -4 13 -66 61 -77 61 -2 0 -15 -6 -30 -14z m39 -113 c65 -64 93 -107 117 -180 14 -43 26 -89 26 -102 0 -54 -117 -195 -204 -246 -90 -52 -106 -14 -76 175 12 74 23 146 25 160 8 53 33 142 44 153 6 6 11 21 11 32 0 43 19 45 57 8z" />
</ns0:g>
</g><g transform="translate(-1.9714241949029656,1160.4661780736449) scale(0.030520119100086486)"><ns0:metadata>
Created by potrace 1.16, written by Peter Selinger 2001-2019
</ns0:metadata>
<ns0:g transform="translate(0.000000,206.000000) scale(0.100000,-0.100000)" fill="#000000" stroke="none">
<ns0:path d="M1020 1511 c-17 -5 -26 -16 -30 -36 -3 -18 -15 -34 -28 -41 -44 -22 -55 -57 -90 -299 -21 -148 -20 -340 3 -365 8 -9 15 -26 15 -39 0 -12 6 -37 14 -56 19 -46 54 -54 109 -27 23 11 65 24 92 27 62 9 71 16 102 80 79 163 90 203 94 340 6 233 -3 325 -33 325 -6 0 -27 14 -49 31 -21 16 -55 33 -76 36 -21 3 -47 12 -58 19 -21 15 -27 16 -65 5z m115 -114 c60 -34 66 -55 66 -225 0 -142 -11 -210 -40 -246 -5 -6 -14 -29 -21 -50 -19 -58 -62 -96 -109 -96 -37 0 -39 1 -55 53 -17 53 -16 54 18 213 19 87 40 180 46 206 7 26 9 56 5 67 -3 10 -1 22 5 26 5 3 10 22 10 41 0 41 17 44 75 11z" />
</ns0:g>
</g><g transform="translate(-1.4753026709187225,1248.5789964573514) scale(0.030520119100086486)"><ns0:metadata>
Created by potrace 1.16, written by Peter Selinger 2001-2019
</ns0:metadata>
<ns0:g transform="translate(0.000000,206.000000) scale(0.100000,-0.100000)" fill="#000000" stroke="none">
<ns0:path d="M832 1494 c-13 -9 -22 -26 -22 -40 0 -26 -5 -26 -57 -7 -25 10 -43 -44 -53 -157 -5 -63 -17 -158 -26 -210 -37 -223 -43 -284 -33 -329 21 -93 91 -146 174 -130 49 9 156 79 198 129 52 61 65 320 25 491 -12 52 -21 118 -20 148 2 72 -9 88 -63 97 -25 3 -45 10 -45 15 0 15 -54 10 -78 -7z m63 -98 c10 4 15 0 15 -15 0 -12 12 -79 28 -149 30 -141 34 -248 13 -350 -12 -53 -20 -67 -52 -93 -48 -38 -101 -54 -129 -39 -17 9 -20 20 -19 73 0 61 3 81 32 247 8 47 20 137 27 200 14 145 13 142 45 130 13 -5 32 -7 40 -4z" />
</ns0:g>
</g><g transform="translate(-1.099209554842389,1334.7285077992253) scale(0.030520119100086486)"><ns0:metadata>
Created by potrace 1.16, written by Peter Selinger 2001-2019
</ns0:metadata>
<ns0:g transform="translate(0.000000,211.000000) scale(0.100000,-0.100000)" fill="#000000" stroke="none">
<ns0:path d="M1535 1475 c-22 -25 -68 -73 -103 -107 -35 -35 -68 -72 -75 -84 -7 -12 -58 -82 -114 -155 -232 -305 -276 -359 -291 -359 -10 0 -24 27 -42 80 -18 52 -43 103 -61 125 -10 11 -31 47 -49 80 -46 86 -111 185 -122 185 -5 0 -22 -7 -37 -15 -46 -23 -53 -64 -21 -117 11 -18 20 -38 20 -44 0 -13 78 -134 96 -149 7 -5 35 -55 64 -110 28 -55 55 -104 60 -110 4 -5 11 -24 14 -42 9 -38 48 -83 74 -83 21 0 42 18 42 36 0 11 49 80 225 323 11 15 36 52 56 82 21 30 44 61 53 68 9 7 16 17 16 22 0 9 107 177 140 220 69 89 110 158 110 184 0 25 -14 17 -55 -30z" />
</ns0:g>
</g><g transform="translate(-0.6565963918217221,1432.4289525596919) scale(0.030520119100086486)"><ns0:metadata>
Created by potrace 1.16, written by Peter Selinger 2001-2019
</ns0:metadata>
<ns0:g transform="translate(0.000000,210.000000) scale(0.100000,-0.100000)" fill="#000000" stroke="none">
<ns0:path d="M935 1134 c-55 -7 -128 -13 -163 -12 -53 1 -66 -2 -87 -22 -35 -33 -32 -66 8 -90 18 -12 41 -18 52 -15 11 3 70 13 130 21 91 12 121 13 173 3 68 -14 107 -6 126 24 16 24 -2 48 -55 73 -66 32 -76 33 -184 18z" />
</ns0:g>
</g><g transform="translate(0.4509361610980136,1492.8214252193452) scale(0.030520119100086486)"><ns0:metadata>
Created by potrace 1.16, written by Peter Selinger 2001-2019
</ns0:metadata>
<ns0:g transform="translate(0.000000,212.000000) scale(0.100000,-0.100000)" fill="#000000" stroke="none">
<ns0:path d="M1620 2030 c-50 -50 -109 -103 -132 -117 -53 -36 -118 -133 -118 -179 0 -32 2 -34 34 -34 27 0 39 7 60 34 35 46 208 216 219 216 6 0 7 -18 3 -42 -16 -105 -26 -356 -32 -764 -6 -387 -4 -456 11 -572 10 -73 16 -135 13 -137 -3 -3 -25 6 -49 20 -43 24 -116 106 -155 173 l-19 34 25 19 c49 38 70 61 70 76 0 16 -7 15 -114 -3 l-39 -7 6 76 c6 83 25 128 63 153 16 11 24 24 22 38 -2 17 -9 21 -38 19 -43 -2 -50 8 -39 56 5 20 9 52 9 72 0 26 6 41 22 51 l22 14 -21 20 c-11 10 -28 24 -39 30 -18 11 -18 13 5 38 15 15 35 26 51 26 19 0 30 7 38 25 10 22 8 28 -16 50 -15 14 -33 23 -40 20 -8 -3 -21 -5 -31 -5 -9 0 -45 -25 -79 -56 -54 -50 -62 -61 -62 -93 0 -20 6 -45 14 -56 18 -26 39 -167 35 -230 -4 -48 -6 -51 -51 -75 -26 -14 -78 -49 -115 -77 -92 -71 -97 -70 -90 20 21 257 28 410 22 434 -4 15 -8 44 -9 63 -1 28 -5 36 -23 38 -16 2 -23 -2 -23 -12 0 -9 -13 -40 -29 -69 -29 -51 -29 -56 -35 -242 -5 -176 -11 -263 -35 -483 -5 -46 -6 -122 -3 -168 4 -70 8 -85 23 -89 28 -9 39 2 39 38 0 18 7 55 16 82 8 28 14 70 13 95 -1 25 4 59 10 75 7 17 15 42 18 57 6 29 9 29 74 12 8 -2 48 22 90 56 41 33 79 60 84 60 6 0 11 -31 13 -69 l3 -70 -33 -17 c-52 -27 -108 -76 -108 -94 0 -24 35 -52 65 -52 14 0 36 9 49 21 12 11 27 21 33 21 6 0 25 14 43 30 18 17 35 30 39 30 3 0 22 -27 41 -61 33 -57 83 -112 235 -257 60 -57 68 -63 93 -54 24 7 28 15 32 61 3 30 -2 96 -12 154 -28 161 -37 334 -32 587 3 129 5 285 5 345 0 215 19 475 40 537 11 35 19 85 19 128 l0 70 -54 0 -54 0 -92 -90z" />
<ns0:path d="M964 1740 c-61 -9 -94 -34 -94 -71 0 -34 41 -79 73 -79 11 0 40 -12 64 -26 37 -21 47 -23 59 -13 13 11 14 27 9 93 -4 45 -8 82 -10 84 -9 10 -67 17 -101 12z" />
<ns0:path d="M450 1726 c-17 -10 -30 -11 -43 -5 -25 14 -77 -24 -77 -57 0 -29 22 -75 44 -93 26 -21 30 -94 11 -197 -10 -53 -13 -100 -9 -104 16 -16 50 24 74 83 12 31 26 57 30 57 6 0 20 112 24 200 1 19 7 45 14 57 16 29 15 38 -4 57 -19 19 -31 20 -64 2z" />
<ns0:path d="M440 1042 c-41 -20 -41 -12 -12 -207 13 -90 22 -213 25 -345 5 -188 4 -209 -15 -251 -26 -63 -21 -100 16 -118 20 -9 34 -11 45 -4 20 12 110 190 111 218 0 11 18 47 40 80 22 33 40 65 40 71 0 6 13 25 29 42 26 30 62 97 106 197 10 22 29 54 41 71 13 17 27 45 30 62 17 85 -83 -7 -182 -167 -21 -35 -54 -80 -71 -101 -18 -21 -33 -41 -33 -45 0 -11 -41 -65 -50 -65 -4 0 -10 75 -13 168 -4 92 -9 183 -12 202 -4 19 -7 60 -9 90 -1 30 -3 70 -4 88 -2 26 -6 32 -24 32 -13 0 -39 -8 -58 -18z" />
</ns0:g>
</g><g transform="translate(-0.06527613167162372,1578.3167017075125) scale(0.030520119100086486)"><ns0:metadata>
Created by potrace 1.16, written by Peter Selinger 2001-2019
</ns0:metadata>
<ns0:g transform="translate(0.000000,215.000000) scale(0.100000,-0.100000)" fill="#000000" stroke="none">
<ns0:path d="M933 2051 c-37 -33 -88 -130 -118 -221 -28 -85 -50 -125 -130 -240 -36 -52 -86 -126 -112 -165 -47 -72 -102 -130 -132 -140 -10 -3 -27 -19 -39 -35 l-23 -30 26 0 c14 0 25 -3 25 -7 0 -5 -20 -37 -45 -72 -52 -75 -92 -106 -112 -89 -10 8 -17 8 -26 -1 -18 -18 5 -45 41 -49 47 -5 172 66 172 98 0 17 28 11 34 -8 15 -46 33 -208 25 -223 -4 -9 -20 -24 -34 -33 -32 -21 -32 -46 1 -80 30 -29 59 -33 88 -11 39 30 49 10 17 -32 -24 -30 -17 -53 16 -53 33 0 96 66 147 154 41 70 109 135 184 176 23 13 42 27 42 32 0 4 7 8 15 8 10 0 15 -10 15 -27 0 -38 -20 -217 -32 -280 l-9 -53 -76 -36 c-41 -19 -111 -49 -156 -65 -44 -16 -92 -36 -106 -44 -14 -8 -57 -24 -96 -34 -241 -67 -260 -77 -260 -131 0 -30 4 -35 33 -42 32 -8 139 16 202 47 61 29 118 54 150 65 19 7 44 16 55 21 11 4 48 17 83 28 34 11 76 29 91 41 16 11 41 20 55 20 33 0 33 -18 6 -134 -21 -93 -130 -348 -163 -384 l-20 -22 56 0 c42 0 62 5 75 18 38 38 147 335 177 482 14 68 53 130 93 147 20 8 79 35 131 60 105 50 116 48 107 -23 -8 -66 35 -88 72 -36 15 20 19 41 18 85 l-2 58 51 37 c113 84 115 85 141 72 20 -11 29 -9 74 20 79 51 101 98 62 133 -24 22 -35 21 -80 -6 -20 -13 -49 -27 -64 -31 -15 -3 -49 -20 -75 -36 -76 -47 -105 -62 -109 -57 -2 2 -4 113 -5 248 -1 229 1 250 24 339 27 105 40 177 58 320 15 124 16 133 23 167 3 15 2 34 -3 42 -13 20 -75 8 -120 -24 -21 -14 -43 -25 -50 -25 -8 0 -36 -16 -62 -35 -27 -19 -53 -35 -57 -35 -5 0 -17 -9 -27 -20 -10 -11 -23 -20 -29 -21 -6 0 -36 -18 -66 -39 -30 -22 -75 -49 -99 -61 -72 -35 -182 -116 -202 -149 -48 -79 13 -123 83 -59 56 52 61 56 148 109 47 29 94 61 105 71 11 10 31 23 45 28 14 6 52 29 85 51 75 48 117 71 123 66 7 -8 -18 -186 -48 -341 -32 -161 -39 -225 -39 -378 l-1 -97 -27 7 c-16 4 -41 6 -58 6 -51 -3 -149 -14 -163 -18 -20 -7 -25 20 -9 52 8 15 15 47 16 71 0 24 5 52 11 62 8 15 6 19 -13 22 -21 3 -22 9 -27 103 -4 88 -3 103 14 122 23 28 15 51 -21 58 -15 4 -35 10 -44 15 -22 12 -65 1 -85 -22 -16 -17 -16 -23 -5 -51 8 -18 16 -46 18 -62 l5 -31 -60 0 c-114 -2 -162 -21 -162 -64 0 -11 11 -26 24 -35 21 -14 29 -14 82 0 76 20 84 19 84 -6 0 -21 -35 -67 -150 -198 -62 -71 -178 -176 -186 -168 -10 10 -42 248 -39 288 4 52 28 95 102 185 49 59 153 214 153 228 0 5 9 21 21 37 11 16 24 43 29 61 5 17 31 68 57 113 37 66 55 87 90 106 38 21 44 28 41 54 -2 23 -9 32 -33 38 -16 5 -38 13 -47 18 -26 13 -31 12 -65 -20z m55 -861 c-18 -16 -36 -30 -40 -30 -18 0 -6 27 24 56 25 24 35 28 41 18 5 -9 -3 -24 -25 -44z m401 -231 c-3 -101 -7 -106 -94 -143 -22 -10 -59 -26 -83 -37 -59 -26 -70 -24 -39 9 15 15 27 36 27 45 0 15 -7 16 -55 11 l-55 -7 0 39 c0 50 21 90 44 86 17 -3 136 31 168 49 10 5 24 9 32 9 7 0 19 7 26 15 25 30 31 14 29 -76z" />
<ns0:path d="M350 1190 c-20 -12 -5 -24 16 -12 9 5 12 12 7 15 -5 3 -15 2 -23 -3z" />
<ns0:path d="M1157 396 c-13 -14 -14 -22 -2 -66 14 -53 68 -130 91 -130 15 0 92 -37 114 -56 8 -7 44 -18 80 -25 36 -7 67 -16 70 -19 9 -11 82 -29 94 -24 7 3 56 -4 108 -15 100 -21 165 -29 291 -35 l77 -4 0 48 c0 46 -2 49 -30 55 -17 4 -62 8 -100 10 -38 2 -98 10 -132 19 -35 8 -102 20 -151 26 -48 6 -97 15 -110 20 -12 5 -54 18 -94 29 -40 12 -75 26 -78 31 -3 5 -20 16 -38 25 -46 23 -59 35 -84 80 -18 33 -28 41 -56 43 -21 2 -40 -3 -50 -12z" />
</ns0:g>
</g></svg>