<?xml version='1.0' encoding='utf-8'?>
<svg xmlns:ns0="http://www.w3.org/2000/svg" xmlns="http://www.w3.org/2000/svg" width="249" height="109" viewBox="0 0 249 109"><g transform="translate(-1.3831614154738077,-78.3776325538647) scale(0.0460041892903181)"><ns0:metadata>
Created by potrace 1.16, written by Peter Selinger 2001-2019
</ns0:metadata>
<ns0:g transform="translate(0.000000,206.000000) scale(0.100000,-0.100000)" fill="#000000" stroke="none">
<ns0:path d="M1261 1449 c-32 -26 -41 -81 -47 -284 -2 -88 -10 -214 -18 -280 -7 -66 -9 -130 -5 -141 4 -12 5 -31 3 -41 -3 -11 1 -25 10 -32 12 -10 20 -7 45 16 27 24 32 37 37 93 9 116 36 284 51 327 10 28 13 60 10 95 -4 29 -3 83 1 121 9 75 -3 118 -37 136 -25 14 -21 14 -50 -10z" />
</ns0:g>
</g><g transform="translate(-0.08637861805391367,43.09387063866569) scale(0.0460041892903181)"><ns0:metadata>
Created by potrace 1.16, written by Peter Selinger 2001-2019
</ns0:metadata>
<ns0:g transform="translate(0.000000,208.000000) scale(0.100000,-0.100000)" fill="#000000" stroke="none">
<ns0:path d="M862 1397 c-24 -13 -29 -23 -42 -94 -4 -26 -13 -61 -18 -78 -6 -16 -16 -86 -23 -154 l-11 -123 24 -25 c31 -31 85 -43 166 -38 80 6 86 -7 38 -77 -20 -29 -54 -78 -74 -108 -21 -30 -58 -75 -82 -100 -25 -25 -53 -54 -62 -65 -9 -11 -24 -26 -33 -33 -37 -31 3 -84 49 -67 30 11 236 211 236 229 0 6 16 31 36 56 49 62 64 102 64 175 0 83 -8 89 -122 86 -141 -3 -143 -2 -106 108 26 80 35 91 96 122 26 13 73 44 105 68 58 45 72 76 44 99 -18 15 -78 -2 -114 -32 -15 -13 -41 -26 -58 -30 -28 -7 -29 -7 -12 12 18 20 23 57 9 66 -20 12 -89 14 -110 3z" />
</ns0:g>
</g><g transform="translate(1.341488471573598,162.24176450308573) scale(0.0460041892903181)"><ns0:metadata>
Created by potrace 1.16, written by Peter Selinger 2001-2019
</ns0:metadata>
<ns0:g transform="translate(0.000000,208.000000) scale(0.100000,-0.100000)" fill="#000000" stroke="none">
<ns0:path d="M958 1305 c-16 -9 -29 -21 -29 -28 -2 -24 3 -42 17 -58 8 -8 17 -37 20 -62 5 -38 3 -51 -11 -67 -15 -16 -15 -22 -5 -35 12 -15 9 -139 -6 -266 -8 -66 20 -95 103 -108 35 -5 78 -7 98 -4 54 9 45 -21 -27 -90 -73 -69 -172 -147 -186 -147 -6 0 -12 -4 -14 -9 -3 -7 -36 -27 -165 -97 -43 -23 -88 -40 -133 -48 -94 -18 -103 -23 -78 -44 19 -15 209 20 293 55 39 16 95 45 125 64 30 20 70 42 88 49 17 7 32 16 32 21 0 5 5 9 11 9 6 0 29 16 50 35 22 19 45 35 53 35 16 0 65 58 90 107 20 40 22 136 2 152 -14 12 -165 8 -198 -4 -8 -3 -20 1 -27 9 -10 12 -9 39 4 133 17 128 20 132 96 173 20 10 44 31 53 45 9 14 34 33 54 43 57 25 72 42 72 78 0 71 -26 82 -95 39 -50 -30 -63 -31 -67 -2 -3 20 -9 22 -58 23 -30 1 -73 5 -95 8 -27 4 -49 1 -67 -9z m183 -79 c-29 -30 -58 -39 -66 -19 -9 24 14 43 53 43 l35 0 -22 -24z" />
</ns0:g>
</g><g transform="translate(-0.35347716241631133,313.6670795573603) scale(0.0460041892903181)"><ns0:metadata>
Created by potrace 1.16, written by Peter Selinger 2001-2019
</ns0:metadata>
<ns0:g transform="translate(0.000000,212.000000) scale(0.100000,-0.100000)" fill="#000000" stroke="none">
<ns0:path d="M955 1513 c-92 -24 -98 -32 -92 -129 5 -91 1 -98 -71 -108 -48 -7 -110 -52 -117 -86 -3 -16 -13 -31 -21 -34 -20 -8 -19 -80 2 -97 14 -11 19 -10 35 13 13 17 33 29 59 33 22 4 56 20 77 36 20 17 46 29 57 27 19 -3 21 -10 21 -88 -1 -47 -5 -122 -9 -168 l-9 -83 -42 -20 c-51 -24 -118 -101 -113 -131 2 -12 18 -30 36 -40 35 -19 56 -15 81 16 12 14 16 14 37 -3 34 -27 73 -16 90 24 11 27 20 33 56 38 23 3 65 1 92 -4 84 -16 202 -19 220 -6 13 10 14 19 6 46 -5 19 -7 38 -4 43 12 18 -18 38 -52 34 -18 -3 -37 -7 -42 -10 -5 -3 -36 -1 -68 4 -32 5 -85 10 -117 12 -40 2 -61 8 -66 18 -4 8 -4 56 0 105 4 50 8 129 8 178 l1 87 33 1 c63 2 86 8 136 33 54 28 74 63 51 90 -18 23 -65 29 -97 12 -21 -10 -47 -13 -91 -9 l-62 6 0 38 c0 29 8 47 31 74 18 20 29 41 25 50 -6 18 -5 18 -81 -2z" />
</ns0:g>
</g><g transform="translate(-2.295812541161979,434.2282417912023) scale(0.0460041892903181)"><ns0:metadata>
Created by potrace 1.16, written by Peter Selinger 2001-2019
</ns0:metadata>
<ns0:g transform="translate(0.000000,206.000000) scale(0.100000,-0.100000)" fill="#000000" stroke="none">
<ns0:path d="M1199 1320 c-33 -17 -38 -26 -53 -87 -9 -37 -20 -99 -26 -138 -13 -100 -45 -249 -69 -325 -12 -36 -21 -79 -21 -97 0 -18 -6 -52 -14 -75 -8 -24 -17 -61 -21 -83 -3 -22 -8 -50 -11 -62 -3 -17 2 -23 27 -28 57 -13 78 27 120 230 10 50 27 119 37 155 11 36 30 112 42 170 13 58 29 112 36 120 6 8 15 33 19 55 3 22 14 48 22 57 18 20 13 48 -17 96 -23 37 -23 37 -71 12z" />
</ns0:g>
</g><g transform="translate(1.515354281514817,573.5809883210673) scale(0.0460041892903181)"><ns0:metadata>
Created by potrace 1.16, written by Peter Selinger 2001-2019
</ns0:metadata>
<ns0:g transform="translate(0.000000,206.000000) scale(0.100000,-0.100000)" fill="#000000" stroke="none">
<ns0:path d="M1020 1511 c-17 -5 -26 -16 -30 -36 -3 -18 -15 -34 -28 -41 -44 -22 -55 -57 -90 -299 -21 -148 -20 -340 3 -365 8 -9 15 -26 15 -39 0 -12 6 -37 14 -56 19 -46 54 -54 109 -27 23 11 65 24 92 27 62 9 71 16 102 80 79 163 90 203 94 340 6 233 -3 325 -33 325 -6 0 -27 14 -49 31 -21 16 -55 33 -76 36 -21 3 -47 12 -58 19 -21 15 -27 16 -65 5z m115 -114 c60 -34 66 -55 66 -225 0 -142 -11 -210 -40 -246 -5 -6 -14 -29 -21 -50 -19 -58 -62 -96 -109 -96 -37 0 -39 1 -55 53 -17 53 -16 54 18 213 19 87 40 180 46 206 7 26 9 56 5 67 -3 10 -1 22 5 26 5 3 10 22 10 41 0 41 17 44 75 11z" />
</ns0:g>
</g><g transform="translate(-0.3309900408088424,700.466655480708) scale(0.0460041892903181)"><ns0:metadata>
Created by potrace 1.16, written by Peter Selinger 2001-2019
</ns0:metadata>
<ns0:g transform="translate(0.000000,214.000000) scale(0.100000,-0.100000)" fill="#000000" stroke="none">
<ns0:path d="M1583 1812 c-22 -26 -50 -66 -61 -89 -24 -46 -28 -47 -144 -22 -57 13 -74 5 -114 -53 -16 -24 -44 -63 -63 -88 -19 -25 -42 -63 -53 -85 -10 -22 -26 -52 -35 -67 -15 -23 -15 -30 -4 -51 29 -54 97 -51 199 9 l45 26 -7 -36 c-4 -21 -27 -71 -52 -113 -24 -41 -44 -77 -44 -80 0 -10 -173 -355 -189 -376 -26 -34 -81 -189 -81 -228 0 -57 40 -77 88 -43 17 11 22 25 22 57 0 23 7 56 16 72 9 17 54 105 100 197 46 93 89 168 95 168 5 0 20 21 32 48 13 26 30 58 39 72 8 14 37 84 63 155 26 72 55 144 63 160 9 17 28 52 42 80 15 30 36 55 53 63 35 17 74 76 83 127 3 22 12 51 19 65 11 20 11 30 -1 52 -23 45 -62 38 -111 -20z m-163 -202 c13 -8 13 -12 0 -36 -17 -32 -47 -47 -37 -20 4 10 7 29 7 42 0 26 7 29 30 14z" />
<ns0:path d="M1430 1002 c-51 -23 -90 -88 -111 -181 -5 -25 -16 -60 -25 -78 -21 -46 -9 -104 32 -152 28 -32 42 -40 83 -46 45 -6 54 -4 94 24 44 30 95 98 117 156 7 17 17 62 24 100 16 93 -1 151 -50 171 -34 14 -137 18 -164 6z m118 -146 c4 -59 -32 -142 -80 -185 -33 -30 -33 -30 -53 -11 -19 19 -19 20 4 91 23 72 91 164 115 156 6 -2 12 -25 14 -51z" />
</ns0:g>
</g></svg>