<?xml version='1.0' encoding='utf-8'?>
<svg xmlns:ns0="http://www.w3.org/2000/svg" xmlns="http://www.w3.org/2000/svg" width="249" height="109" viewBox="0 0 249 109"><g transform="translate(-0.7188987282870585,-77.74823163013556) scale(0.0460041892903181)"><ns0:metadata>
Created by potrace 1.16, written by Peter Selinger 2001-2019
</ns0:metadata>
<ns0:g transform="translate(0.000000,207.000000) scale(0.100000,-0.100000)" fill="#000000" stroke="none">
<ns0:path d="M840 1478 c-39 -43 -12 -98 50 -98 40 0 51 -12 44 -49 -7 -32 -82 -116 -148 -166 -44 -33 -56 -46 -56 -59 0 -29 34 -41 129 -46 108 -6 110 -8 91 -79 -16 -59 -120 -179 -186 -215 -48 -26 -54 -32 -54 -61 0 -27 5 -34 25 -39 31 -8 90 16 104 42 6 12 21 24 33 28 41 13 96 65 139 131 36 57 43 75 47 135 6 93 -5 111 -79 135 -62 19 -74 37 -36 54 12 6 38 36 57 67 27 45 34 68 35 108 0 62 -20 89 -79 106 -23 6 -45 15 -50 20 -17 14 -45 9 -66 -14z" />
</ns0:g>
</g><g transform="translate(-2.643660369802774,47.308200041915796) scale(0.0460041892903181)"><ns0:metadata>
Created by potrace 1.16, written by Peter Selinger 2001-2019
</ns0:metadata>
<ns0:g transform="translate(0.000000,207.000000) scale(0.100000,-0.100000)" fill="#000000" stroke="none">
<ns0:path d="M514 1367 c-27 -18 -60 -38 -74 -44 -62 -29 -124 -53 -136 -53 -8 0 -21 -17 -30 -37 -15 -36 -15 -40 3 -73 22 -43 55 -50 94 -21 35 26 44 26 76 2 30 -24 51 -18 60 18 8 31 30 50 59 51 47 0 39 -78 -12 -116 -44 -34 -59 -81 -41 -125 13 -31 12 -37 -10 -71 -19 -28 -22 -41 -14 -56 12 -23 46 -46 80 -55 30 -7 81 46 116 121 33 71 59 81 188 75 53 -3 97 -9 97 -14 0 -11 -106 -167 -134 -198 -11 -12 -42 -41 -68 -63 -41 -34 -59 -41 -133 -55 -68 -12 -85 -19 -85 -33 0 -22 37 -30 135 -30 117 0 131 6 214 87 41 40 84 91 96 112 11 22 41 70 66 108 50 74 72 160 47 180 -7 6 -78 11 -162 11 -96 0 -153 5 -160 12 -6 6 -11 45 -11 90 -1 90 -17 122 -74 152 -18 9 -40 26 -48 37 -22 33 -80 28 -139 -12z" />
</ns0:g>
</g><g transform="translate(1.8555351295146352,175.37178377929348) scale(0.0460041892903181)"><ns0:metadata>
Created by potrace 1.16, written by Peter Selinger 2001-2019
</ns0:metadata>
<ns0:g transform="translate(0.000000,213.000000) scale(0.100000,-0.100000)" fill="#000000" stroke="none">
<ns0:path d="M1278 1556 c-15 -6 -40 -24 -55 -38 -36 -34 -185 -108 -217 -108 -14 0 -28 5 -31 10 -9 15 -32 12 -96 -12 -81 -31 -89 -62 -28 -107 l30 -22 92 21 c58 14 113 34 148 56 31 19 60 34 64 34 14 0 -4 -98 -33 -182 -16 -46 -35 -108 -42 -138 -6 -30 -26 -98 -43 -150 -28 -86 -31 -107 -32 -222 0 -118 2 -129 22 -149 21 -21 23 -21 47 -5 25 16 26 21 26 104 1 95 6 127 40 247 12 44 29 105 37 135 19 71 61 194 83 245 9 22 22 67 29 100 8 33 21 74 30 90 26 48 29 69 13 88 -17 19 -45 21 -84 3z" />
</ns0:g>
</g></svg>