<?xml version='1.0' encoding='utf-8'?>
<svg xmlns:ns0="http://www.w3.org/2000/svg" xmlns="http://www.w3.org/2000/svg" width="235" height="152" viewBox="0 0 235 152"><g transform="translate(1.6671207692878625,-144.8308182774727) scale(0.06415263093695735)"><ns0:metadata>
Created by potrace 1.16, written by Peter Selinger 2001-2019
</ns0:metadata>
<ns0:g transform="translate(0.000000,212.000000) scale(0.100000,-0.100000)" fill="#000000" stroke="none">
<ns0:path d="M1043 1520 c-45 -23 -59 -53 -44 -93 14 -36 25 -39 55 -16 19 15 37 19 73 17 43 -3 47 -5 55 -35 16 -61 -60 -250 -166 -413 -52 -79 -122 -157 -132 -147 -4 3 -1 57 5 119 7 62 14 142 16 178 3 62 8 105 20 178 12 66 -78 109 -126 61 -19 -19 -20 -27 -12 -107 13 -143 7 -328 -16 -448 -11 -60 -20 -147 -20 -194 0 -47 -8 -123 -17 -170 -9 -47 -18 -136 -21 -198 -5 -102 -3 -115 13 -127 28 -21 59 -18 73 8 7 13 14 66 16 118 2 51 9 119 15 149 5 30 16 110 22 177 10 100 15 124 29 128 9 3 20 12 23 21 3 8 16 18 29 23 13 5 58 47 100 93 132 146 240 385 239 530 0 110 -36 153 -132 163 -44 5 -63 2 -97 -15z" />
</ns0:g>
</g><g transform="translate(-2.256458399743792,49.84222705018331) scale(0.06415263093695735)"><ns0:metadata>
Created by potrace 1.16, written by Peter Selinger 2001-2019
</ns0:metadata>
<ns0:g transform="translate(0.000000,208.000000) scale(0.100000,-0.100000)" fill="#000000" stroke="none">
<ns0:path d="M1273 1433 c-13 -13 -35 -23 -48 -23 -25 0 -55 -21 -119 -86 -80 -79 -150 -226 -161 -336 -4 -35 -12 -79 -20 -98 -35 -95 -90 -375 -82 -428 10 -78 32 -111 92 -137 65 -29 111 -27 178 7 134 69 234 183 296 338 17 41 35 83 41 93 18 31 58 169 80 277 30 147 41 266 29 316 -10 37 -50 94 -67 94 -195 6 -194 6 -219 -17z m181 -86 c15 -11 17 -24 13 -83 -6 -93 -33 -233 -63 -323 -13 -40 -24 -77 -24 -82 0 -5 -13 -38 -30 -72 -16 -35 -30 -73 -30 -84 0 -11 -16 -40 -35 -64 -19 -24 -35 -49 -35 -54 0 -18 -74 -91 -130 -127 -76 -49 -114 -55 -147 -22 -24 24 -25 29 -18 102 3 42 17 120 30 172 13 52 33 140 43 195 32 159 72 248 132 290 15 11 61 47 101 80 40 33 82 65 93 72 28 16 78 16 100 0z" />
</ns0:g>
</g><g transform="translate(2.754561593482265,224.86532838970123) scale(0.06415263093695735)"><ns0:metadata>
Created by potrace 1.16, written by Peter Selinger 2001-2019
</ns0:metadata>
<ns0:g transform="translate(0.000000,209.000000) scale(0.100000,-0.100000)" fill="#000000" stroke="none">
<ns0:path d="M946 1349 c-52 -12 -68 -27 -64 -58 3 -23 9 -27 53 -32 28 -3 43 -7 34 -7 -9 -1 -28 -13 -42 -26 -15 -14 -35 -27 -46 -31 -38 -12 -61 -59 -72 -147 -13 -107 -20 -170 -23 -238 -2 -30 -13 -89 -26 -130 -29 -95 -78 -240 -90 -261 -17 -33 -22 -107 -9 -143 11 -31 20 -38 62 -50 90 -26 205 -3 280 58 73 58 187 171 214 211 15 22 35 49 44 60 51 61 109 211 109 283 0 97 -39 277 -79 362 -14 30 -47 76 -74 101 -44 42 -55 47 -109 53 -76 8 -112 6 -162 -5z m217 -142 c73 -96 112 -221 110 -352 -1 -83 -27 -157 -81 -230 -21 -27 -50 -69 -65 -91 -29 -43 -175 -174 -207 -186 -48 -18 -120 -25 -137 -13 -15 11 -15 18 -4 61 7 27 19 63 26 79 34 77 65 228 85 415 13 112 36 210 50 210 5 0 44 36 87 79 86 87 90 88 136 28z" />
</ns0:g>
</g><g transform="translate(-0.29804751125357143,417.51962144401784) scale(0.06415263093695735)"><ns0:metadata>
Created by potrace 1.16, written by Peter Selinger 2001-2019
</ns0:metadata>
<ns0:g transform="translate(0.000000,212.000000) scale(0.100000,-0.100000)" fill="#000000" stroke="none">
<ns0:path d="M793 1761 c-31 -20 -50 -34 -108 -83 -18 -16 -37 -28 -42 -28 -19 0 -51 -46 -55 -80 -3 -19 -12 -62 -21 -95 -9 -33 -18 -100 -20 -150 -3 -49 -16 -147 -31 -218 -14 -70 -30 -173 -36 -230 -11 -114 -55 -277 -105 -392 -35 -80 -24 -115 39 -115 28 0 34 5 48 38 47 109 103 303 118 407 20 142 48 207 94 221 19 6 76 54 174 146 18 17 58 65 89 106 55 71 58 77 61 141 4 82 -22 175 -84 306 -16 34 -24 40 -54 43 -21 1 -47 -5 -67 -17z m44 -112 c6 -13 26 -63 43 -110 38 -103 36 -124 -20 -208 -38 -56 -203 -221 -223 -221 -5 0 -7 18 -3 43 3 23 10 92 16 152 6 61 22 154 35 208 14 54 25 100 25 103 0 9 94 64 105 61 5 -2 15 -14 22 -28z" />
<ns0:path d="M623 816 l-28 -25 20 -37 c17 -30 35 -43 110 -76 50 -22 101 -46 115 -53 14 -8 41 -22 60 -32 19 -9 44 -25 55 -34 11 -9 37 -22 58 -29 20 -6 43 -17 50 -24 34 -33 105 -86 115 -86 6 0 15 -6 19 -12 29 -47 143 -85 218 -74 36 6 47 13 64 42 36 61 22 84 -41 66 -45 -12 -120 12 -156 50 -15 15 -30 28 -34 28 -9 0 -132 71 -138 81 -3 4 -30 19 -60 33 -67 32 -125 64 -165 92 -17 11 -46 27 -65 34 -19 8 -61 29 -92 47 -31 18 -61 33 -67 33 -5 0 -23 -11 -38 -24z" />
</ns0:g>
</g><g transform="translate(-2.5507011073411263,599.7689823539401) scale(0.06415263093695735)"><ns0:metadata>
Created by potrace 1.16, written by Peter Selinger 2001-2019
</ns0:metadata>
<ns0:g transform="translate(0.000000,207.000000) scale(0.100000,-0.100000)" fill="#000000" stroke="none">
<ns0:path d="M1000 1675 c-93 -16 -105 -21 -124 -50 -8 -13 -31 -28 -51 -35 -19 -6 -40 -20 -45 -30 -12 -22 -12 -171 0 -290 17 -170 31 -612 20 -645 -12 -37 -80 -108 -80 -83 0 8 7 21 15 28 19 16 20 60 1 60 -14 0 -87 -74 -105 -107 -27 -52 -42 -113 -31 -133 26 -48 85 -53 132 -9 18 16 46 40 61 52 73 58 225 278 259 377 11 30 35 88 54 128 19 41 34 77 34 81 0 3 9 23 20 44 11 21 31 81 45 135 62 249 61 392 -6 463 -31 34 -70 36 -199 14z m140 -95 c27 -17 19 -196 -14 -310 -15 -52 -31 -108 -35 -125 -5 -16 -26 -66 -48 -110 -22 -44 -45 -98 -52 -120 -19 -61 -64 -149 -79 -153 -11 -4 -13 47 -8 284 7 349 6 333 18 415 8 57 14 69 39 88 17 13 33 21 35 18 2 -2 30 2 62 8 31 7 59 13 62 14 3 0 12 -4 20 -9z" />
</ns0:g>
</g><g transform="translate(0.3510010009441089,800.9644814198384) scale(0.06415263093695735)"><ns0:metadata>
Created by potrace 1.16, written by Peter Selinger 2001-2019
</ns0:metadata>
<ns0:g transform="translate(0.000000,206.000000) scale(0.100000,-0.100000)" fill="#000000" stroke="none">
<ns0:path d="M1020 1511 c-17 -5 -26 -16 -30 -36 -3 -18 -15 -34 -28 -41 -44 -22 -55 -57 -90 -299 -21 -148 -20 -340 3 -365 8 -9 15 -26 15 -39 0 -12 6 -37 14 -56 19 -46 54 -54 109 -27 23 11 65 24 92 27 62 9 71 16 102 80 79 163 90 203 94 340 6 233 -3 325 -33 325 -6 0 -27 14 -49 31 -21 16 -55 33 -76 36 -21 3 -47 12 -58 19 -21 15 -27 16 -65 5z m115 -114 c60 -34 66 -55 66 -225 0 -142 -11 -210 -40 -246 -5 -6 -14 -29 -21 -50 -19 -58 -62 -96 -109 -96 -37 0 -39 1 -55 53 -17 53 -16 54 18 213 19 87 40 180 46 206 7 26 9 56 5 67 -3 10 -1 22 5 26 5 3 10 22 10 41 0 41 17 44 75 11z" />
</ns0:g>
</g><g transform="translate(1.9553535908041226,985.146232700074) scale(0.06415263093695735)"><ns0:metadata>
Created by potrace 1.16, written by Peter Selinger 2001-2019
</ns0:metadata>
<ns0:g transform="translate(0.000000,214.000000) scale(0.100000,-0.100000)" fill="#000000" stroke="none">
<ns0:path d="M1315 1450 c-3 -5 -22 -10 -41 -10 -19 0 -42 -4 -52 -9 -31 -16 -86 -30 -144 -36 -67 -8 -118 -36 -118 -65 0 -23 45 -70 67 -70 7 0 29 6 47 14 18 7 55 18 82 24 27 6 58 14 68 18 23 9 23 9 -38 -224 -47 -181 -52 -247 -26 -342 16 -57 25 -66 57 -54 l28 9 6 125 c7 138 24 211 94 400 54 146 60 185 34 211 -20 20 -54 25 -64 9z" />
</ns0:g>
</g><g transform="translate(-1.156588443540329,1152.0165017716074) scale(0.06415263093695735)"><ns0:metadata>
Created by potrace 1.16, written by Peter Selinger 2001-2019
</ns0:metadata>
<ns0:g transform="translate(0.000000,208.000000) scale(0.100000,-0.100000)" fill="#000000" stroke="none">
<ns0:path d="M1135 1490 c-11 -5 -37 -11 -58 -15 -50 -8 -72 -41 -64 -99 4 -24 2 -47 -4 -53 -5 -5 -12 -48 -14 -95 -2 -47 -12 -112 -23 -144 -40 -125 -54 -183 -48 -199 6 -18 69 -47 101 -48 11 0 64 6 119 12 54 7 101 10 104 7 9 -9 -30 -88 -65 -132 -18 -23 -33 -46 -33 -51 0 -6 -19 -26 -42 -46 -24 -19 -56 -47 -73 -63 -46 -42 -116 -84 -143 -84 -59 0 -83 -42 -34 -61 101 -39 305 81 413 242 52 77 70 122 81 201 11 69 10 71 -13 89 -33 26 -91 24 -248 -7 l-34 -7 5 40 c3 22 13 55 21 74 9 19 21 59 27 90 9 49 17 62 58 96 26 21 60 47 77 58 28 18 78 60 136 116 34 32 30 76 -8 85 -19 5 -32 -1 -56 -24 -18 -16 -52 -40 -76 -53 -24 -13 -55 -30 -68 -37 -32 -18 -40 -9 -19 22 16 25 23 97 9 95 -5 0 -17 -4 -28 -9z" />
</ns0:g>
</g><g transform="translate(0.3631516748336594,1349.0997586596336) scale(0.06415263093695735)"><ns0:metadata>
Created by potrace 1.16, written by Peter Selinger 2001-2019
</ns0:metadata>
<ns0:g transform="translate(0.000000,208.000000) scale(0.100000,-0.100000)" fill="#000000" stroke="none">
<ns0:path d="M985 1344 c-18 -20 -38 -56 -45 -82 -7 -26 -21 -67 -33 -92 -57 -127 -67 -153 -65 -163 1 -7 -2 -36 -6 -65 -14 -90 32 -146 116 -142 65 4 70 -2 44 -52 -18 -34 -29 -85 -21 -97 12 -21 45 7 96 82 32 48 63 83 78 88 15 5 34 14 43 19 10 6 28 10 40 10 12 0 49 9 83 21 66 22 102 61 90 99 -10 31 -36 32 -121 5 -130 -41 -131 -41 -85 101 34 105 80 188 107 193 10 1 34 14 52 28 25 19 32 31 30 51 -3 23 -7 27 -33 25 -145 -10 -156 -15 -186 -81 -36 -80 -79 -213 -95 -291 -8 -41 -16 -76 -18 -78 -8 -9 -63 -10 -84 -2 -21 8 -23 13 -17 52 10 71 109 284 140 301 31 17 42 36 37 66 -4 30 -23 40 -81 40 -26 0 -41 -8 -66 -36z" />
</ns0:g>
</g><g transform="translate(0.9896892255690659,1532.4818180005711) scale(0.06415263093695735)"><ns0:metadata>
Created by potrace 1.16, written by Peter Selinger 2001-2019
</ns0:metadata>
<ns0:g transform="translate(0.000000,207.000000) scale(0.100000,-0.100000)" fill="#000000" stroke="none">
<ns0:path d="M840 1478 c-39 -43 -12 -98 50 -98 40 0 51 -12 44 -49 -7 -32 -82 -116 -148 -166 -44 -33 -56 -46 -56 -59 0 -29 34 -41 129 -46 108 -6 110 -8 91 -79 -16 -59 -120 -179 -186 -215 -48 -26 -54 -32 -54 -61 0 -27 5 -34 25 -39 31 -8 90 16 104 42 6 12 21 24 33 28 41 13 96 65 139 131 36 57 43 75 47 135 6 93 -5 111 -79 135 -62 19 -74 37 -36 54 12 6 38 36 57 67 27 45 34 68 35 108 0 62 -20 89 -79 106 -23 6 -45 15 -50 20 -17 14 -45 9 -66 -14z" />
</ns0:g>
</g><g transform="translate(-0.14447325757652152,1710.2411700071223) scale(0.06415263093695735)"><ns0:metadata>
Created by potrace 1.16, written by Peter Selinger 2001-2019
</ns0:metadata>
<ns0:g transform="translate(0.000000,206.000000) scale(0.100000,-0.100000)" fill="#000000" stroke="none">
<ns0:path d="M832 1494 c-13 -9 -22 -26 -22 -40 0 -26 -5 -26 -57 -7 -25 10 -43 -44 -53 -157 -5 -63 -17 -158 -26 -210 -37 -223 -43 -284 -33 -329 21 -93 91 -146 174 -130 49 9 156 79 198 129 52 61 65 320 25 491 -12 52 -21 118 -20 148 2 72 -9 88 -63 97 -25 3 -45 10 -45 15 0 15 -54 10 -78 -7z m63 -98 c10 4 15 0 15 -15 0 -12 12 -79 28 -149 30 -141 34 -248 13 -350 -12 -53 -20 -67 -52 -93 -48 -38 -101 -54 -129 -39 -17 9 -20 20 -19 73 0 61 3 81 32 247 8 47 20 137 27 200 14 145 13 142 45 130 13 -5 32 -7 40 -4z" />
</ns0:g>
</g></svg>