<?xml version='1.0' encoding='utf-8'?>
<svg xmlns:ns0="http://www.w3.org/2000/svg" xmlns="http://www.w3.org/2000/svg" width="235" height="152" viewBox="0 0 235 152"><g transform="translate(-0.9876118191791647,-125.19389596465442) scale(0.06415263093695735)"><ns0:metadata>
Created by potrace 1.16, written by Peter Selinger 2001-2019
</ns0:metadata>
<ns0:g transform="translate(0.000000,208.000000) scale(0.100000,-0.100000)" fill="#000000" stroke="none">
<ns0:path d="M948 1211 c-21 -12 -28 -24 -28 -48 0 -46 45 -70 128 -68 34 1 65 5 69 8 8 9 87 9 96 1 7 -8 -27 -87 -61 -139 -29 -45 -84 -90 -149 -123 -54 -28 -62 -50 -28 -79 30 -26 74 -29 114 -8 16 8 47 17 70 21 35 6 41 4 41 -10 0 -30 -131 -183 -173 -202 -20 -9 -42 -23 -48 -30 -6 -7 -34 -20 -62 -30 -29 -9 -59 -23 -67 -31 -13 -13 -13 -16 5 -29 13 -10 30 -13 50 -9 17 4 48 11 70 15 93 17 243 120 281 192 8 15 25 43 38 63 19 27 24 49 25 94 0 65 -7 75 -57 86 l-33 7 40 73 c40 75 60 161 46 204 -12 38 -52 49 -200 54 -118 4 -144 2 -167 -12z" />
</ns0:g>
</g><g transform="translate(0.0846869339553109,62.522431746278215) scale(0.06415263093695735)"><ns0:metadata>
Created by potrace 1.16, written by Peter Selinger 2001-2019
</ns0:metadata>
<ns0:g transform="translate(0.000000,213.000000) scale(0.100000,-0.100000)" fill="#000000" stroke="none">
<ns0:path d="M1263 1463 c-38 -7 -193 -184 -228 -261 -14 -30 -14 -43 5 -145 28 -152 36 -189 44 -208 7 -16 -36 -71 -124 -159 -14 -14 -37 -47 -50 -73 l-25 -48 23 -20 c15 -11 38 -18 60 -18 21 0 96 -4 167 -9 143 -11 238 0 271 30 16 14 21 44 15 87 0 4 -26 28 -58 52 -87 68 -133 119 -133 148 0 14 34 94 75 178 41 84 79 170 83 190 8 39 -3 130 -18 148 -5 6 -11 28 -15 50 -12 63 -24 71 -92 58z m15 -168 c32 -69 -10 -190 -94 -275 -21 -21 -30 -3 -44 82 l-12 68 62 75 c35 41 66 75 70 75 4 0 12 -11 18 -25z m-75 -604 c31 -27 66 -52 77 -56 29 -9 21 -37 -14 -46 -16 -5 -51 -4 -79 2 -27 5 -64 9 -81 9 -51 0 -63 13 -41 47 32 50 66 93 74 93 4 0 33 -22 64 -49z" />
</ns0:g>
</g><g transform="translate(-0.7097892852958125,253.92235658994457) scale(0.06415263093695735)"><ns0:metadata>
Created by potrace 1.16, written by Peter Selinger 2001-2019
</ns0:metadata>
<ns0:g transform="translate(0.000000,206.000000) scale(0.100000,-0.100000)" fill="#000000" stroke="none">
<ns0:path d="M832 1494 c-13 -9 -22 -26 -22 -40 0 -26 -5 -26 -57 -7 -25 10 -43 -44 -53 -157 -5 -63 -17 -158 -26 -210 -37 -223 -43 -284 -33 -329 21 -93 91 -146 174 -130 49 9 156 79 198 129 52 61 65 320 25 491 -12 52 -21 118 -20 148 2 72 -9 88 -63 97 -25 3 -45 10 -45 15 0 15 -54 10 -78 -7z m63 -98 c10 4 15 0 15 -15 0 -12 12 -79 28 -149 30 -141 34 -248 13 -350 -12 -53 -20 -67 -52 -93 -48 -38 -101 -54 -129 -39 -17 9 -20 20 -19 73 0 61 3 81 32 247 8 47 20 137 27 200 14 145 13 142 45 130 13 -5 32 -7 40 -4z" />
</ns0:g>
</g><g transform="translate(1.60761408655776,434.99965469582946) scale(0.06415263093695735)"><ns0:metadata>
Created by potrace 1.16, written by Peter Selinger 2001-2019
</ns0:metadata>
<ns0:g transform="translate(0.000000,212.000000) scale(0.100000,-0.100000)" fill="#000000" stroke="none">
<ns0:path d="M955 1513 c-92 -24 -98 -32 -92 -129 5 -91 1 -98 -71 -108 -48 -7 -110 -52 -117 -86 -3 -16 -13 -31 -21 -34 -20 -8 -19 -80 2 -97 14 -11 19 -10 35 13 13 17 33 29 59 33 22 4 56 20 77 36 20 17 46 29 57 27 19 -3 21 -10 21 -88 -1 -47 -5 -122 -9 -168 l-9 -83 -42 -20 c-51 -24 -118 -101 -113 -131 2 -12 18 -30 36 -40 35 -19 56 -15 81 16 12 14 16 14 37 -3 34 -27 73 -16 90 24 11 27 20 33 56 38 23 3 65 1 92 -4 84 -16 202 -19 220 -6 13 10 14 19 6 46 -5 19 -7 38 -4 43 12 18 -18 38 -52 34 -18 -3 -37 -7 -42 -10 -5 -3 -36 -1 -68 4 -32 5 -85 10 -117 12 -40 2 -61 8 -66 18 -4 8 -4 56 0 105 4 50 8 129 8 178 l1 87 33 1 c63 2 86 8 136 33 54 28 74 63 51 90 -18 23 -65 29 -97 12 -21 -10 -47 -13 -91 -9 l-62 6 0 38 c0 29 8 47 31 74 18 20 29 41 25 50 -6 18 -5 18 -81 -2z" />
</ns0:g>
</g><g transform="translate(1.0818870129400011,615.3404386925827) scale(0.06415263093695735)"><ns0:metadata>
Created by potrace 1.16, written by Peter Selinger 2001-2019
</ns0:metadata>
<ns0:g transform="translate(0.000000,207.000000) scale(0.100000,-0.100000)" fill="#000000" stroke="none">
<ns0:path d="M514 1367 c-27 -18 -60 -38 -74 -44 -62 -29 -124 -53 -136 -53 -8 0 -21 -17 -30 -37 -15 -36 -15 -40 3 -73 22 -43 55 -50 94 -21 35 26 44 26 76 2 30 -24 51 -18 60 18 8 31 30 50 59 51 47 0 39 -78 -12 -116 -44 -34 -59 -81 -41 -125 13 -31 12 -37 -10 -71 -19 -28 -22 -41 -14 -56 12 -23 46 -46 80 -55 30 -7 81 46 116 121 33 71 59 81 188 75 53 -3 97 -9 97 -14 0 -11 -106 -167 -134 -198 -11 -12 -42 -41 -68 -63 -41 -34 -59 -41 -133 -55 -68 -12 -85 -19 -85 -33 0 -22 37 -30 135 -30 117 0 131 6 214 87 41 40 84 91 96 112 11 22 41 70 66 108 50 74 72 160 47 180 -7 6 -78 11 -162 11 -96 0 -153 5 -160 12 -6 6 -11 45 -11 90 -1 90 -17 122 -74 152 -18 9 -40 26 -48 37 -22 33 -80 28 -139 -12z" />
</ns0:g>
</g><g transform="translate(-2.6226088529254525,781.338904627514) scale(0.06415263093695735)"><ns0:metadata>
Created by potrace 1.16, written by Peter Selinger 2001-2019
</ns0:metadata>
<ns0:g transform="translate(0.000000,214.000000) scale(0.100000,-0.100000)" fill="#000000" stroke="none">
<ns0:path d="M1334 1726 c-11 -8 -26 -34 -33 -58 -18 -61 -61 -125 -72 -107 -5 8 -9 24 -9 36 0 34 -53 67 -96 60 -41 -7 -67 -29 -131 -111 -54 -68 -91 -181 -95 -289 -2 -45 32 -87 71 -87 32 0 116 43 155 79 l28 26 -7 -25 c-4 -14 -18 -45 -32 -70 -48 -85 -96 -175 -125 -235 -17 -33 -34 -62 -38 -65 -5 -3 -29 -50 -55 -105 -65 -140 -84 -176 -111 -205 -24 -26 -59 -123 -70 -191 -5 -32 -3 -39 19 -53 18 -13 31 -14 50 -7 21 8 28 20 37 68 7 32 16 60 20 63 4 3 17 23 28 45 109 215 186 357 221 410 15 22 33 56 40 75 8 19 20 42 28 51 7 9 16 27 18 39 2 13 13 33 24 44 22 24 56 95 102 219 17 45 41 105 55 132 13 28 24 54 24 58 0 4 10 28 23 55 34 72 52 131 41 141 -19 18 -88 22 -110 7z m-204 -201 c0 -8 -4 -15 -10 -15 -5 0 -10 7 -10 15 0 8 5 15 10 15 6 0 10 -7 10 -15z m-19 -112 c-11 -39 -74 -123 -93 -123 -13 0 -2 82 18 128 11 27 17 32 38 26 13 -3 27 -1 31 6 13 21 16 2 6 -37z m80 -50 c-12 -20 -14 -14 -5 12 4 9 9 14 11 11 3 -2 0 -13 -6 -23z" />
<ns0:path d="M1215 912 c-80 -26 -161 -184 -172 -334 -9 -109 31 -148 127 -126 28 6 50 14 50 18 0 3 33 45 73 93 53 64 76 100 88 140 14 50 14 57 0 76 -9 12 -32 29 -51 39 -22 11 -37 27 -41 45 -14 52 -30 63 -74 49z m59 -144 c9 -12 16 -30 16 -39 0 -18 -39 -75 -86 -125 -60 -63 -69 -37 -28 74 24 67 54 112 74 112 5 0 16 -10 24 -22z" />
</ns0:g>
</g></svg>