<?xml version='1.0' encoding='utf-8'?>
<svg xmlns:ns0="http://www.w3.org/2000/svg" xmlns="http://www.w3.org/2000/svg" width="235" height="122" viewBox="0 0 235 122"><g transform="translate(-1.2866924832988502,-108.346298999434) scale(0.051490927462557866)"><ns0:metadata>
Created by potrace 1.16, written by Peter Selinger 2001-2019
</ns0:metadata>
<ns0:g transform="translate(0.000000,205.000000) scale(0.100000,-0.100000)" fill="#000000" stroke="none">
<ns0:path d="M1113 2035 c-13 -9 -23 -24 -23 -34 0 -25 -15 -35 -80 -56 -30 -10 -89 -35 -130 -55 -41 -21 -91 -44 -110 -51 -19 -7 -42 -18 -50 -24 -21 -18 -76 -40 -145 -60 -85 -25 -125 -57 -125 -100 0 -24 7 -39 22 -49 26 -18 100 -21 129 -5 15 7 24 7 35 -2 21 -17 44 6 44 46 0 56 60 81 120 50 30 -15 75 -12 86 7 3 5 -2 20 -11 34 -16 24 -15 26 2 40 28 21 145 76 150 70 6 -6 -30 -170 -58 -266 -19 -65 -20 -65 -80 -92 -34 -16 -66 -28 -73 -28 -6 0 -42 -15 -81 -34 -99 -50 -246 -109 -345 -141 -47 -15 -101 -38 -120 -50 -19 -13 -46 -26 -60 -30 -28 -8 -120 -100 -120 -120 0 -17 47 -55 69 -55 9 0 32 13 51 29 19 15 49 36 65 45 17 9 49 28 73 41 24 13 80 38 125 55 45 18 99 40 122 50 108 49 216 94 270 115 90 34 157 61 190 79 17 9 36 16 44 16 7 0 30 9 50 19 31 17 138 60 266 108 60 23 153 41 166 32 9 -5 -4 -27 -40 -68 -34 -40 -51 -67 -47 -77 6 -16 29 -6 108 48 14 10 31 18 36 18 36 0 82 171 51 191 -39 26 -251 -19 -386 -81 -24 -11 -47 -20 -53 -20 -17 0 -105 -32 -119 -43 -15 -13 -83 -38 -89 -33 -1 2 9 25 23 51 14 26 25 55 25 63 0 26 79 211 108 252 15 21 37 43 50 49 28 13 29 47 2 61 -38 20 -113 23 -137 5z m-193 -589 c0 -3 -4 -8 -10 -11 -5 -3 -10 -1 -10 4 0 6 5 11 10 11 6 0 10 -2 10 -4z m-480 -202 c0 -8 -4 -12 -10 -9 -5 3 -10 10 -10 16 0 5 5 9 10 9 6 0 10 -7 10 -16z" />
<ns0:path d="M929 1294 c-8 -9 -18 -59 -24 -113 l-10 -96 -49 -26 c-63 -32 -128 -98 -124 -123 2 -11 18 -28 37 -38 33 -19 34 -19 55 -1 11 11 30 25 41 33 20 14 20 14 2 -7 -14 -16 -17 -30 -12 -56 4 -20 3 -37 -3 -41 -6 -4 -9 -30 -6 -63 3 -45 9 -61 29 -78 13 -11 25 -33 27 -50 2 -22 9 -31 25 -33 25 -4 32 8 53 87 l12 45 19 -25 c11 -13 31 -40 44 -59 41 -60 59 -77 101 -98 37 -19 43 -19 62 -6 23 16 37 58 47 144 3 30 17 96 30 145 12 50 28 119 34 155 6 36 17 90 26 120 19 68 20 144 1 159 -10 9 -25 9 -57 1 -24 -6 -55 -14 -69 -17 -14 -3 -47 -20 -75 -38 -56 -36 -113 -65 -128 -65 -6 0 -7 16 -2 43 4 23 8 58 9 77 1 34 0 35 -40 38 -29 2 -45 -2 -55 -14z m321 -153 c0 -5 -9 -38 -20 -73 -11 -34 -20 -77 -20 -94 0 -18 -9 -60 -19 -95 -15 -48 -41 -199 -41 -236 0 -2 -6 -3 -14 -3 -7 0 -28 29 -46 65 -18 35 -41 72 -51 81 -11 9 -19 23 -19 30 0 7 -7 17 -17 22 -13 8 -16 24 -15 81 2 85 9 100 59 126 21 11 69 39 108 62 69 42 95 52 95 34z" />
<ns0:path d="M581 939 c-11 -12 -21 -25 -21 -28 0 -3 7 -46 15 -96 8 -49 18 -137 21 -193 8 -121 20 -136 65 -81 27 34 28 35 28 184 1 83 4 164 7 181 7 36 2 41 -53 50 -34 5 -44 2 -62 -17z" />
<ns0:path d="M1166 463 c-3 -4 -6 -14 -6 -22 0 -12 -17 -20 -57 -30 -70 -16 -93 -27 -93 -46 0 -15 21 -20 129 -30 36 -4 83 -13 104 -20 57 -20 86 -4 89 47 1 21 2 45 2 54 2 26 -147 68 -168 47z" />
<ns0:path d="M663 393 c-41 -21 -60 -68 -37 -94 8 -9 23 -15 32 -14 59 12 72 17 86 31 19 19 21 44 3 44 -7 0 -17 10 -22 22 -13 28 -23 30 -62 11z" />
</ns0:g>
</g><g transform="translate(1.745973855968714,33.84907944762176) scale(0.051490927462557866)"><ns0:metadata>
Created by potrace 1.16, written by Peter Selinger 2001-2019
</ns0:metadata>
<ns0:g transform="translate(0.000000,208.000000) scale(0.100000,-0.100000)" fill="#000000" stroke="none">
<ns0:path d="M527 1744 c-21 -8 -48 -21 -60 -29 -32 -23 -64 -18 -84 11 -13 21 -22 25 -46 20 -51 -10 -60 -24 -52 -82 l6 -51 -118 -79 c-65 -43 -124 -84 -131 -91 -7 -7 -20 -16 -28 -21 -11 -6 -14 -23 -12 -71 l3 -63 87 66 c48 36 89 66 92 66 3 0 22 16 43 35 21 19 43 33 48 32 6 -2 11 -69 13 -166 3 -155 2 -165 -27 -259 -31 -102 -70 -201 -88 -224 -5 -7 -27 -53 -48 -102 -21 -49 -46 -103 -55 -120 -10 -17 -23 -48 -29 -68 -7 -20 -19 -42 -27 -48 -9 -9 -14 -33 -14 -77 0 -58 2 -64 15 -53 16 13 171 245 193 290 7 14 22 36 32 50 l20 25 0 -25 c0 -74 -22 -196 -41 -216 -25 -26 -24 -50 2 -64 19 -11 20 -17 14 -78 -4 -37 -13 -81 -20 -99 -24 -58 19 -60 65 -4 33 42 42 79 59 230 5 46 14 87 21 91 6 4 22 30 35 59 13 28 28 51 32 51 5 0 28 25 51 55 32 41 50 55 68 55 62 0 86 43 34 61 -35 13 -40 41 -10 62 10 7 38 54 60 103 23 49 58 122 78 162 20 39 47 93 60 118 16 31 28 44 38 40 8 -3 31 4 52 16 89 50 126 68 143 68 10 0 33 6 51 14 18 8 59 24 91 36 62 24 72 43 37 75 -18 16 -25 17 -53 7 -18 -6 -57 -14 -87 -18 -30 -4 -68 -13 -84 -21 -32 -17 -87 -71 -128 -128 -41 -57 -34 -28 25 103 35 77 56 137 61 175 6 54 5 58 -16 66 -13 5 -30 7 -38 6 -20 -2 -86 -111 -95 -155 -16 -84 -55 -180 -152 -380 -36 -74 -73 -153 -83 -175 -35 -79 -55 -117 -67 -127 -16 -13 -70 19 -77 46 -15 57 5 168 34 189 21 15 41 52 33 61 -3 3 -19 6 -35 6 l-28 0 0 88 c0 48 5 114 11 147 7 33 13 82 15 108 3 51 11 62 69 94 51 27 115 86 115 105 0 21 -19 22 -73 2z m-341 -261 c-10 -10 -19 5 -10 18 6 11 8 11 12 0 2 -7 1 -15 -2 -18z m214 -692 c0 -5 -7 -14 -15 -21 -13 -10 -15 -9 -15 9 0 12 6 21 15 21 8 0 15 -4 15 -9z" />
<ns0:path d="M823 1185 c-58 -38 -56 -35 -78 -185 -9 -58 -26 -139 -39 -180 -13 -41 -29 -95 -36 -120 -43 -160 -90 -265 -147 -328 -64 -72 -107 -152 -98 -183 10 -31 105 -49 105 -19 0 27 266 320 292 320 11 0 45 24 148 103 27 20 54 37 59 37 5 0 17 -26 26 -57 22 -75 106 -288 132 -333 21 -37 39 -46 63 -31 13 9 12 18 -3 73 -10 35 -32 114 -48 176 -16 62 -31 117 -34 122 -11 17 -36 168 -41 250 -6 80 -4 87 19 118 14 19 23 40 21 47 -3 7 -25 18 -49 25 -35 10 -48 9 -72 -2 -28 -13 -28 -14 -28 -108 1 -52 4 -114 8 -137 l7 -41 -76 -42 c-41 -22 -84 -50 -94 -60 -20 -20 -110 -63 -118 -56 -2 3 6 35 18 73 12 37 29 93 37 123 7 30 18 71 24 90 5 19 18 84 30 145 12 69 27 117 38 130 25 27 30 46 19 68 -12 24 -25 21 -85 -18z" />
</ns0:g>
</g><g transform="translate(0.26491167177061925,172.49692931845874) scale(0.051490927462557866)"><ns0:metadata>
Created by potrace 1.16, written by Peter Selinger 2001-2019
</ns0:metadata>
<ns0:g transform="translate(0.000000,205.000000) scale(0.100000,-0.100000)" fill="#000000" stroke="none">
<ns0:path d="M680 2035 c0 -19 30 -49 70 -70 35 -18 62 -70 53 -103 -3 -14 -36 -38 -98 -72 -95 -51 -130 -83 -142 -128 -8 -34 26 -62 78 -62 27 0 39 -4 39 -14 0 -24 -78 -280 -108 -356 -5 -14 -15 -49 -22 -78 -6 -28 -20 -69 -30 -90 -9 -20 -25 -71 -34 -112 -18 -76 -71 -251 -87 -283 -5 -9 -20 -51 -33 -91 -29 -93 -54 -125 -116 -151 -27 -11 -85 -49 -130 -84 -66 -53 -80 -68 -80 -92 0 -30 23 -49 59 -49 12 0 41 16 67 35 54 41 78 46 69 13 -21 -74 -58 -137 -97 -164 -34 -24 -36 -28 -26 -55 9 -28 13 -29 68 -29 58 0 58 0 84 43 13 24 42 58 63 76 118 100 195 161 205 161 13 0 68 -59 68 -74 0 -6 19 -33 42 -59 41 -48 114 -91 177 -103 17 -4 38 -15 47 -25 9 -11 27 -19 39 -19 25 0 55 29 55 53 0 9 4 18 9 22 6 3 7 28 4 55 -6 55 9 194 38 350 19 99 28 120 57 120 6 0 12 4 12 8 0 8 143 83 183 96 10 3 17 0 17 -7 0 -17 -88 -186 -110 -212 -30 -36 -70 -113 -70 -136 0 -22 45 -79 62 -79 16 0 108 -44 108 -52 0 -11 95 -58 160 -79 30 -9 82 -27 115 -39 45 -17 84 -23 155 -24 83 -1 101 2 145 24 67 33 101 96 86 159 -12 54 -36 81 -74 81 -26 0 -29 -3 -23 -23 18 -63 18 -76 -3 -106 -17 -23 -32 -31 -67 -37 -44 -6 -159 10 -179 26 -5 4 -48 20 -94 35 -77 25 -115 45 -181 92 -13 10 -32 21 -42 25 -10 4 -18 14 -18 22 0 14 87 189 135 270 31 53 47 123 34 149 -9 15 -17 17 -52 12 -22 -4 -59 -15 -82 -25 -22 -9 -69 -27 -105 -40 -36 -12 -72 -29 -81 -36 -30 -27 -42 -17 -37 30 6 54 51 125 97 155 l33 23 27 -26 c19 -18 38 -26 63 -26 31 0 37 4 51 38 8 20 18 50 22 66 8 37 42 86 60 86 7 0 15 5 17 12 2 6 32 17 66 24 60 12 127 50 165 91 19 22 26 88 11 103 -14 14 -93 -17 -189 -73 -44 -26 -85 -47 -91 -47 -16 0 -8 235 12 376 8 56 14 119 14 140 0 22 9 72 20 112 11 39 20 88 20 107 0 33 -2 35 -35 35 -25 0 -44 -8 -61 -25 -14 -14 -27 -25 -30 -25 -2 0 -41 -24 -87 -53 -45 -30 -119 -76 -164 -103 -119 -72 -253 -207 -253 -256 0 -34 41 -49 100 -38 29 5 54 10 56 10 2 0 4 -27 4 -59 0 -53 -2 -60 -22 -66 -24 -6 -82 -29 -134 -51 -17 -7 -36 -26 -43 -41 -11 -25 -10 -29 9 -45 14 -12 39 -18 69 -18 33 0 57 -7 84 -26 l38 -25 -5 -107 c-2 -59 -5 -108 -5 -109 -1 -1 -36 -19 -79 -41 -42 -21 -99 -55 -125 -75 -27 -21 -70 -49 -95 -64 -26 -15 -52 -32 -59 -38 -19 -20 -123 -69 -129 -62 -4 4 7 44 24 89 16 46 40 124 52 173 12 50 28 104 35 120 8 17 27 75 43 130 17 55 44 139 61 187 17 48 44 139 60 202 36 142 74 223 114 245 17 9 44 28 61 42 17 14 38 29 46 32 8 4 55 32 103 62 48 30 91 55 95 55 19 1 53 42 55 67 3 38 -21 40 -89 8 -31 -15 -75 -35 -98 -46 -23 -10 -63 -32 -91 -48 -27 -17 -55 -30 -62 -31 -7 0 -15 21 -19 48 -3 26 -14 59 -22 75 -16 26 -19 27 -99 27 -67 0 -83 -3 -83 -15z m635 -292 c-2 -16 -7 -71 -10 -123 -3 -52 -8 -116 -12 -142 -5 -42 -8 -47 -27 -43 -11 3 -46 -4 -76 -16 -90 -34 -87 -34 -92 3 -3 18 -1 62 4 98 6 36 11 78 12 93 2 20 12 33 32 43 16 9 38 24 49 34 25 23 108 80 117 80 4 0 6 -12 3 -27z m-36 -460 c-1 -43 -4 -107 -8 -143 l-6 -64 -47 -17 -47 -17 -37 33 c-35 32 -36 35 -31 81 15 119 18 124 79 158 31 17 60 34 64 39 4 4 13 7 21 7 10 0 13 -19 12 -77z m-335 -575 c-4 -24 -10 -54 -14 -68 -8 -30 -85 -85 -210 -147 -19 -10 -53 -30 -74 -45 -30 -22 -51 -28 -90 -28 -60 0 -57 2 -129 -77 -59 -65 -72 -62 -36 9 24 48 111 138 133 138 8 0 19 6 23 14 4 7 27 23 51 35 23 12 42 25 42 30 0 5 15 14 33 20 17 6 57 29 87 51 122 88 149 105 183 109 4 1 4 -18 1 -41z m-44 -205 c0 -10 -9 -79 -20 -153 -11 -74 -20 -156 -20 -182 0 -53 -1 -53 -67 -37 -46 12 -123 78 -123 106 0 7 -4 13 -9 13 -13 0 -41 77 -35 95 4 9 36 36 73 61 36 24 88 60 116 79 55 39 85 45 85 18z" />
</ns0:g>
</g></svg>