<?xml version='1.0' encoding='utf-8'?>
<svg xmlns:ns0="http://www.w3.org/2000/svg" xmlns="http://www.w3.org/2000/svg" width="207" height="121" viewBox="0 0 207 121"><g transform="translate(-1.1879779205909813,-117.90413347784157) scale(0.051068870680077885)"><ns0:metadata>
Created by potrace 1.16, written by Peter Selinger 2001-2019
</ns0:metadata>
<ns0:g transform="translate(0.000000,216.000000) scale(0.100000,-0.100000)" fill="#000000" stroke="none">
<ns0:path d="M1132 1904 c-26 -12 -39 -70 -41 -189 -1 -73 -8 -142 -18 -175 -18 -65 -93 -218 -152 -310 -22 -36 -52 -86 -66 -112 -13 -26 -29 -49 -34 -53 -27 -16 -141 -178 -141 -199 0 -24 32 -55 73 -69 32 -12 40 -55 29 -147 -13 -107 -7 -148 24 -162 25 -12 54 3 54 27 0 7 6 18 14 24 8 7 18 31 22 54 7 43 68 175 107 235 12 18 48 60 80 94 31 34 57 66 57 70 0 4 4 8 8 8 10 0 39 -182 47 -290 15 -205 45 -299 137 -421 58 -78 97 -101 165 -97 44 3 50 7 86 53 68 90 129 206 135 257 8 80 -22 64 -117 -62 -59 -77 -101 -120 -119 -120 -63 0 -154 164 -167 300 -4 36 -9 86 -11 110 -2 25 -8 122 -13 215 -7 159 -7 172 11 198 26 37 40 87 26 87 -6 0 -26 -11 -44 -25 -38 -29 -40 -26 -50 69 -7 67 5 106 31 106 9 0 15 10 15 25 0 27 -24 42 -87 52 -35 6 -39 16 -22 60 6 15 17 87 24 160 7 72 19 148 26 167 9 25 10 39 3 46 -13 13 -74 22 -92 14z m-22 -581 c0 -9 4 -30 9 -47 6 -17 15 -60 20 -96 l11 -65 -62 -59 c-35 -32 -70 -63 -78 -70 -18 -12 -109 -123 -126 -152 -10 -17 -14 -15 -34 27 l-23 47 82 122 c91 135 118 179 158 258 28 53 43 66 43 35z" />
<ns0:path d="M420 1635 c-7 -8 -19 -15 -26 -15 -16 0 -36 -42 -70 -147 -22 -68 -61 -149 -90 -183 -7 -8 -25 -39 -39 -69 -24 -46 -80 -118 -155 -196 -28 -29 -25 -59 10 -89 35 -29 43 -27 150 28 199 103 225 115 234 106 13 -13 -27 -101 -84 -186 -82 -123 -122 -179 -134 -189 -6 -5 -27 -32 -45 -60 -19 -27 -38 -52 -41 -55 -4 -3 -13 -16 -20 -30 -7 -14 -26 -41 -41 -61 -35 -45 -37 -78 -5 -108 l23 -22 56 21 c30 11 61 28 68 36 7 9 29 24 48 34 20 10 92 71 160 137 68 65 140 128 160 140 41 24 65 61 59 89 -10 51 -147 -20 -282 -147 -29 -27 -46 -36 -46 -23 0 3 18 27 40 53 22 26 40 51 40 55 0 4 18 29 40 55 56 66 113 207 118 292 4 63 3 67 -19 74 -45 15 -110 7 -162 -18 -59 -29 -117 -49 -117 -40 0 10 55 107 73 127 21 24 73 132 83 173 12 45 40 90 84 129 47 43 49 55 14 83 -31 25 -67 27 -84 6z" />
<ns0:path d="M479 408 c-35 -23 -68 -47 -74 -53 -19 -22 -113 -85 -125 -85 -7 0 -31 -8 -54 -19 -23 -10 -63 -24 -91 -30 -58 -14 -85 -35 -85 -67 0 -29 53 -69 78 -58 9 4 51 19 92 33 55 20 97 44 156 91 45 36 89 77 98 92 9 14 36 47 61 73 25 25 45 50 45 55 0 21 -41 8 -101 -32z" />
</ns0:g>
</g><g transform="translate(1.9928123699854723,39.24543820399424) scale(0.051068870680077885)"><ns0:metadata>
Created by potrace 1.16, written by Peter Selinger 2001-2019
</ns0:metadata>
<ns0:g transform="translate(0.000000,217.000000) scale(0.100000,-0.100000)" fill="#000000" stroke="none">
<ns0:path d="M1209 2067 c-28 -13 -163 -146 -216 -212 -17 -22 -46 -58 -64 -80 -17 -22 -43 -58 -57 -80 -14 -22 -53 -68 -86 -102 -60 -61 -62 -63 -113 -63 l-53 0 0 58 c0 105 -21 131 -80 103 l-35 -16 -12 -109 c-9 -80 -16 -112 -28 -118 -12 -7 -14 -19 -9 -57 4 -34 0 -66 -15 -116 -31 -98 -91 -247 -108 -267 -17 -20 -14 -53 6 -53 13 0 77 88 149 206 18 30 48 92 67 139 30 73 69 129 82 117 5 -6 -47 -98 -70 -124 -13 -14 -17 -28 -12 -43 15 -46 79 -1 133 94 13 23 30 45 38 49 8 4 14 16 14 26 0 10 10 25 23 34 12 8 35 39 49 69 15 31 45 77 66 104 21 27 60 81 86 119 58 87 170 203 213 221 17 8 34 18 38 24 3 5 18 10 32 10 24 0 25 -1 18 -52 -9 -65 -53 -163 -94 -210 -36 -41 -37 -48 -15 -90 14 -27 20 -30 49 -25 18 3 42 14 52 24 10 10 56 47 101 82 45 36 84 73 88 83 3 10 11 18 18 18 19 0 108 98 103 113 -5 17 -58 9 -82 -12 -11 -10 -38 -28 -60 -41 -22 -13 -50 -30 -62 -38 l-22 -13 6 74 c8 100 -1 141 -33 155 -31 15 -71 14 -105 -1z" />
<ns0:path d="M1802 1778 c-44 -51 -108 -120 -143 -154 -35 -33 -100 -98 -144 -145 -106 -110 -212 -209 -225 -209 -20 0 -30 -51 -35 -178 -8 -208 -15 -284 -29 -347 -24 -103 -35 -175 -30 -190 14 -36 75 -22 92 22 28 74 53 251 68 476 l7 108 38 16 c33 13 39 20 39 44 0 15 10 39 23 52 12 14 56 62 97 107 41 46 91 99 110 119 19 20 47 51 63 69 15 18 32 32 37 32 12 0 13 8 -5 -75 -12 -55 -15 -151 -15 -448 -1 -213 -5 -375 -9 -372 -13 7 -101 172 -101 188 0 7 10 33 22 58 31 64 36 131 11 156 -39 39 -214 56 -246 24 -21 -21 5 -64 54 -88 34 -16 50 -32 64 -62 17 -39 17 -42 0 -78 -10 -21 -43 -76 -74 -122 -31 -46 -63 -95 -71 -109 -8 -14 -28 -39 -43 -56 -71 -80 -90 -145 -51 -177 23 -19 84 -12 139 15 28 13 60 27 73 30 54 17 72 136 21 136 -10 0 -19 -4 -19 -8 0 -10 -60 -46 -66 -39 -7 6 27 77 56 116 14 19 36 55 50 80 14 24 31 46 37 48 13 5 44 -60 73 -151 12 -36 43 -108 69 -158 43 -86 49 -93 76 -93 48 0 55 41 43 221 -5 82 -7 304 -5 494 4 357 13 441 54 530 9 19 18 68 21 109 4 64 2 76 -13 88 -11 7 -22 13 -27 13 -4 0 -43 -42 -86 -92z m-202 -754 c0 -8 -4 -12 -10 -9 -5 3 -10 10 -10 16 0 5 5 9 10 9 6 0 10 -7 10 -16z" />
<ns0:path d="M884 1406 c-40 -18 -45 -32 -45 -142 l0 -92 -47 -17 c-72 -26 -223 -104 -255 -131 -16 -13 -35 -24 -43 -24 -8 0 -20 -11 -26 -25 -6 -14 -14 -25 -18 -25 -21 0 -142 -106 -169 -148 -31 -49 -32 -52 -17 -80 38 -73 106 -47 181 69 37 57 164 163 235 196 14 6 55 26 93 44 37 17 70 29 74 25 4 -3 7 -39 7 -79 l1 -72 -60 -30 c-33 -17 -82 -40 -110 -52 -27 -12 -68 -34 -90 -48 -22 -13 -50 -30 -62 -36 -22 -12 -35 -43 -26 -62 2 -7 45 -48 95 -92 49 -44 140 -131 203 -192 63 -62 121 -113 130 -113 15 0 22 12 45 83 12 39 15 257 6 467 -3 58 -2 140 1 183 5 70 8 77 27 77 58 0 61 59 6 120 -36 39 -49 74 -39 105 7 27 -1 59 -22 81 -26 27 -32 28 -75 10z m-3 -733 c1 -165 0 -195 -6 -202 -5 -4 -22 11 -93 79 -31 31 -74 70 -96 86 -34 27 -37 33 -27 52 6 12 40 40 74 61 34 22 71 49 82 59 19 18 39 29 58 31 4 1 8 -74 8 -166z" />
</ns0:g>
</g></svg>