<?xml version='1.0' encoding='utf-8'?>
<svg xmlns:ns0="http://www.w3.org/2000/svg" xmlns="http://www.w3.org/2000/svg" width="235" height="152" viewBox="0 0 235 152"><g transform="translate(1.8192044786607653,-111.24372211616175) scale(0.06415263093695735)"><ns0:metadata>
Created by potrace 1.16, written by Peter Selinger 2001-2019
</ns0:metadata>
<ns0:g transform="translate(0.000000,208.000000) scale(0.100000,-0.100000)" fill="#000000" stroke="none">
<ns0:path d="M985 1344 c-18 -20 -38 -56 -45 -82 -7 -26 -21 -67 -33 -92 -57 -127 -67 -153 -65 -163 1 -7 -2 -36 -6 -65 -14 -90 32 -146 116 -142 65 4 70 -2 44 -52 -18 -34 -29 -85 -21 -97 12 -21 45 7 96 82 32 48 63 83 78 88 15 5 34 14 43 19 10 6 28 10 40 10 12 0 49 9 83 21 66 22 102 61 90 99 -10 31 -36 32 -121 5 -130 -41 -131 -41 -85 101 34 105 80 188 107 193 10 1 34 14 52 28 25 19 32 31 30 51 -3 23 -7 27 -33 25 -145 -10 -156 -15 -186 -81 -36 -80 -79 -213 -95 -291 -8 -41 -16 -76 -18 -78 -8 -9 -63 -10 -84 -2 -21 8 -23 13 -17 52 10 71 109 284 140 301 31 17 42 36 37 66 -4 30 -23 40 -81 40 -26 0 -41 -8 -66 -36z" />
</ns0:g>
</g><g transform="translate(-2.419053322634852,70.65590137922851) scale(0.06415263093695735)"><ns0:metadata>
Created by potrace 1.16, written by Peter Selinger 2001-2019
</ns0:metadata>
<ns0:g transform="translate(0.000000,206.000000) scale(0.100000,-0.100000)" fill="#000000" stroke="none">
<ns0:path d="M1020 1511 c-17 -5 -26 -16 -30 -36 -3 -18 -15 -34 -28 -41 -44 -22 -55 -57 -90 -299 -21 -148 -20 -340 3 -365 8 -9 15 -26 15 -39 0 -12 6 -37 14 -56 19 -46 54 -54 109 -27 23 11 65 24 92 27 62 9 71 16 102 80 79 163 90 203 94 340 6 233 -3 325 -33 325 -6 0 -27 14 -49 31 -21 16 -55 33 -76 36 -21 3 -47 12 -58 19 -21 15 -27 16 -65 5z m115 -114 c60 -34 66 -55 66 -225 0 -142 -11 -210 -40 -246 -5 -6 -14 -29 -21 -50 -19 -58 -62 -96 -109 -96 -37 0 -39 1 -55 53 -17 53 -16 54 18 213 19 87 40 180 46 206 7 26 9 56 5 67 -3 10 -1 22 5 26 5 3 10 22 10 41 0 41 17 44 75 11z" />
</ns0:g>
</g><g transform="translate(-0.5724041344772104,247.02384051551007) scale(0.06415263093695735)"><ns0:metadata>
Created by potrace 1.16, written by Peter Selinger 2001-2019
</ns0:metadata>
<ns0:g transform="translate(0.000000,205.000000) scale(0.100000,-0.100000)" fill="#000000" stroke="none">
<ns0:path d="M802 1318 c-45 -67 -75 -135 -68 -153 5 -14 9 -15 21 -5 12 10 15 10 15 -3 0 -9 -4 -27 -10 -41 -5 -14 -16 -76 -25 -138 -17 -125 -33 -223 -41 -251 -5 -15 -8 -16 -20 -6 -29 24 -38 -4 -24 -78 21 -111 57 -151 107 -118 25 17 27 22 42 145 23 192 62 413 78 443 9 18 20 52 24 77 4 25 10 62 14 82 4 20 5 48 1 62 -5 22 -12 26 -46 26 -35 0 -42 -5 -68 -42z" />
</ns0:g>
</g></svg>