<?xml version='1.0' encoding='utf-8'?>
<svg xmlns:ns0="http://www.w3.org/2000/svg" xmlns="http://www.w3.org/2000/svg" width="235" height="109" viewBox="0 0 235 109"><g transform="translate(-1.5798370625917642,-107.59669341610308) scale(0.0460041892903181)"><ns0:metadata>
Created by potrace 1.16, written by Peter Selinger 2001-2019
</ns0:metadata>
<ns0:g transform="translate(0.000000,214.000000) scale(0.100000,-0.100000)" fill="#000000" stroke="none">
<ns0:path d="M802 2098 c-12 -24 -26 -50 -30 -58 -5 -8 -17 -28 -26 -45 -10 -16 -20 -38 -23 -47 -8 -26 -33 -30 -51 -9 -15 17 -26 19 -89 14 -71 -5 -72 -6 -79 -36 -8 -40 14 -59 90 -76 39 -9 56 -17 56 -28 0 -22 -66 -157 -85 -173 -8 -7 -15 -17 -15 -22 0 -24 -64 -87 -118 -116 -80 -43 -91 -81 -33 -115 29 -17 29 -17 14 -59 -8 -24 -22 -52 -32 -63 -10 -11 -24 -36 -31 -55 -7 -19 -19 -42 -27 -51 -28 -33 -5 -91 41 -103 26 -6 136 45 207 95 l32 22 -7 -37 c-13 -71 -116 -364 -140 -401 -20 -31 -15 -55 12 -55 21 0 92 69 92 90 0 7 8 22 17 33 27 29 80 177 128 351 13 49 31 96 38 105 8 9 17 28 20 42 6 22 136 162 211 226 l26 21 -5 -21 c-45 -216 -46 -268 -3 -252 16 6 81 140 81 165 0 8 8 26 19 39 10 13 18 33 18 45 0 11 8 35 17 51 20 38 20 142 0 163 -13 12 -19 12 -45 -2 -16 -8 -40 -28 -53 -43 -13 -15 -57 -59 -98 -97 -79 -75 -77 -74 -111 -16 -5 9 -22 13 -47 12 -36 -2 -37 -1 -18 14 11 9 38 24 60 35 22 10 54 31 70 47 17 16 42 37 58 47 28 18 36 50 15 58 -7 2 -24 -4 -38 -13 -14 -10 -59 -33 -100 -51 -41 -18 -84 -40 -95 -50 -11 -9 -30 -20 -42 -24 -19 -5 -22 -3 -16 12 3 10 21 37 40 60 18 23 33 46 33 52 0 6 16 34 35 61 19 27 35 55 35 61 0 13 21 49 85 149 23 36 45 71 49 78 5 9 -8 12 -56 12 l-64 0 -22 -42z m-82 -537 c0 -8 -35 -117 -63 -196 -11 -31 -28 -50 -76 -82 -92 -63 -93 -63 -50 52 27 75 47 105 118 178 53 55 71 67 71 48z" />
<ns0:path d="M1568 2098 c-25 -24 -71 -65 -102 -93 -64 -56 -66 -58 -101 -102 -22 -27 -30 -30 -63 -26 -60 8 -78 -22 -87 -145 -34 -483 -83 -692 -182 -777 -44 -38 -38 -60 12 -51 19 4 36 3 39 -2 3 -5 8 -40 11 -78 l6 -69 -98 -53 c-54 -29 -118 -66 -143 -82 -65 -42 -84 -52 -194 -110 -129 -66 -196 -122 -196 -160 0 -71 73 -81 146 -20 27 22 68 50 92 61 23 12 48 29 55 38 6 10 32 28 57 41 45 23 90 52 125 81 36 30 126 72 135 63 9 -10 -13 -138 -27 -157 -6 -6 -23 -57 -38 -112 -15 -55 -36 -115 -46 -133 -24 -42 -24 -52 1 -52 63 0 155 159 195 340 29 130 67 207 115 232 19 11 42 27 50 36 8 10 41 34 72 55 31 21 60 42 63 47 4 6 21 16 38 24 18 7 41 22 52 32 11 11 37 34 58 52 l38 32 27 -25 c38 -36 66 -30 70 15 2 19 7 39 11 45 4 5 5 42 1 80 -9 92 -4 369 9 470 15 112 39 313 51 420 6 50 13 98 16 108 5 15 -5 17 -109 17 l-115 0 -44 -42z m146 -95 c-2 -43 -7 -87 -11 -98 -4 -11 -8 -40 -9 -65 -5 -87 -21 -130 -39 -101 -11 19 -69 41 -105 41 -22 0 -62 -13 -99 -32 -71 -37 -68 -17 -31 -187 l23 -103 -44 -44 c-100 -100 -114 -114 -121 -114 -10 0 -10 1 8 137 15 117 30 226 40 313 8 59 18 70 58 63 32 -5 40 1 167 131 74 75 142 136 151 136 15 0 17 -9 12 -77z m-132 -366 c-2 -32 0 -57 6 -57 5 0 19 14 32 30 25 33 54 41 46 13 -8 -31 -16 -163 -18 -305 -1 -76 -6 -138 -10 -138 -8 0 -68 122 -82 167 -7 21 14 53 35 53 5 0 17 16 26 35 15 32 15 37 1 51 -12 13 -20 14 -36 5 -36 -19 -44 -13 -27 20 9 17 14 37 11 45 -7 18 -34 7 -41 -17 -5 -15 -42 -28 -46 -16 0 1 -3 30 -5 64 l-5 62 48 24 c27 13 53 23 58 22 6 -1 9 -26 7 -58z m-64 -399 c11 -31 34 -77 51 -101 39 -57 39 -72 -1 -93 -17 -9 -59 -35 -92 -59 -34 -23 -74 -49 -91 -58 -16 -8 -46 -30 -65 -47 -40 -37 -99 -65 -111 -53 -16 17 8 94 40 127 32 33 41 66 17 66 -7 0 -29 -6 -48 -14 -56 -24 -67 -8 -39 56 13 29 27 61 32 70 5 10 9 24 9 32 0 24 24 36 57 27 28 -8 60 0 73 20 12 17 136 96 142 91 3 -4 15 -33 26 -64z" />
<ns0:path d="M1850 230 c-12 -22 -62 -38 -146 -45 -33 -3 -88 -11 -124 -16 -36 -6 -85 -13 -110 -14 -87 -7 -144 -16 -162 -26 -11 -6 -18 -6 -18 0 0 5 -15 6 -37 1 -21 -5 -65 -11 -98 -15 -104 -10 -129 -15 -165 -32 -19 -9 -78 -27 -130 -40 -52 -14 -108 -28 -125 -33 -58 -16 431 -11 519 5 45 8 137 21 206 29 69 8 166 22 215 30 50 9 128 21 175 28 l85 13 3 43 c4 54 -18 92 -53 92 -14 0 -29 -8 -35 -20z m-726 -169 c8 -12 -50 -32 -69 -25 -16 7 -19 17 -8 27 10 10 71 8 77 -2z" />
</ns0:g>
</g><g transform="translate(-2.67339917250996,36.76993177928725) scale(0.0460041892903181)"><ns0:metadata>
Created by potrace 1.16, written by Peter Selinger 2001-2019
</ns0:metadata>
<ns0:g transform="translate(0.000000,212.000000) scale(0.100000,-0.100000)" fill="#000000" stroke="none">
<ns0:path d="M944 2106 c-3 -8 1 -28 10 -44 8 -16 18 -48 22 -69 6 -40 6 -40 -42 -61 -27 -12 -65 -31 -84 -41 -19 -11 -46 -24 -60 -30 -14 -6 -32 -15 -40 -20 -8 -6 -35 -19 -60 -30 -25 -11 -52 -25 -60 -30 -8 -5 -27 -12 -42 -16 -32 -6 -78 -52 -78 -78 0 -10 7 -31 15 -47 13 -25 21 -30 54 -30 47 0 131 34 131 53 0 17 60 71 98 86 17 7 40 23 53 37 12 13 28 24 34 24 6 0 30 9 53 20 22 11 45 20 51 20 15 0 24 -95 11 -119 -6 -12 -14 -21 -19 -21 -5 0 -35 -18 -67 -40 -33 -22 -62 -40 -66 -40 -14 0 -134 -73 -160 -98 -70 -65 13 -133 105 -85 33 17 85 57 167 131 26 23 50 42 55 42 4 0 37 28 73 61 37 34 77 66 88 71 31 14 51 55 36 70 -10 10 -20 9 -45 -1 -17 -7 -45 -16 -61 -18 -28 -5 -28 -5 -23 28 15 91 20 100 77 131 30 16 66 40 80 52 14 13 46 35 72 50 83 48 82 56 -10 56 -58 0 -83 -4 -92 -15 -7 -8 -19 -15 -26 -15 -8 0 -14 -4 -14 -8 0 -9 -64 -42 -80 -42 -19 0 -10 28 11 33 13 4 20 12 17 24 -3 15 -15 18 -91 21 -69 2 -88 0 -93 -12z" />
<ns0:path d="M1404 1751 c-44 -43 -106 -97 -364 -315 -41 -35 -113 -93 -160 -129 -47 -36 -93 -72 -102 -81 -9 -8 -29 -23 -44 -33 -28 -18 -28 -18 -20 2 4 11 10 32 13 48 5 25 4 27 -31 27 -44 0 -106 -24 -107 -42 -1 -7 -2 -89 -3 -183 -1 -148 -4 -179 -24 -240 -13 -38 -29 -81 -36 -95 -8 -14 -19 -41 -25 -61 -6 -20 -25 -49 -41 -64 -35 -33 -40 -65 -10 -65 28 0 84 53 119 113 17 29 40 63 51 77 17 21 50 148 76 288 3 12 11 22 18 22 13 0 216 196 216 209 0 7 76 71 85 71 4 0 38 30 76 67 38 37 77 72 86 77 21 11 167 138 200 173 54 57 69 9 53 -167 -5 -63 -10 -123 -10 -133 0 -11 -14 -24 -37 -33 -21 -9 -59 -33 -85 -55 -26 -22 -71 -51 -100 -65 -29 -15 -67 -37 -84 -50 -18 -13 -56 -35 -85 -48 -57 -27 -99 -50 -146 -81 -15 -11 -41 -26 -58 -35 -32 -16 -40 -37 -31 -76 13 -51 90 -54 147 -7 16 14 33 22 37 18 4 -3 6 -59 6 -123 -1 -94 -6 -134 -27 -203 -29 -100 -43 -129 -60 -129 -7 0 -39 10 -72 21 -33 11 -87 22 -120 24 -312 19 -305 19 -305 3 0 -22 16 -32 95 -56 108 -33 149 -42 187 -42 19 0 72 -13 118 -30 47 -16 92 -30 101 -30 9 0 19 -7 23 -15 15 -40 60 4 92 90 65 175 84 290 84 515 0 35 3 40 28 46 39 10 62 33 62 65 0 21 6 29 30 38 37 12 39 -1 10 -59 -25 -49 -78 -193 -90 -245 -10 -41 2 -145 22 -197 16 -42 66 -68 155 -78 66 -7 91 -5 163 12 93 23 157 59 166 93 9 38 -15 103 -58 152 -22 27 -46 51 -52 55 -39 26 -48 -21 -16 -87 22 -46 25 -81 8 -91 -40 -25 -152 -32 -219 -14 -56 15 -76 74 -54 160 29 118 44 158 84 227 22 40 41 79 41 88 0 8 5 15 10 15 6 0 10 -11 10 -25 0 -46 26 -27 43 33 86 296 108 475 78 617 -22 102 -44 109 -117 36z" />
</ns0:g>
</g><g transform="translate(-2.0205108061988426,154.0545492971916) scale(0.0460041892903181)"><ns0:metadata>
Created by potrace 1.16, written by Peter Selinger 2001-2019
</ns0:metadata>
<ns0:g transform="translate(0.000000,210.000000) scale(0.100000,-0.100000)" fill="#000000" stroke="none">
<ns0:path d="M756 1978 c-14 -21 -11 -34 28 -153 43 -129 46 -165 12 -165 -19 0 -48 -36 -44 -56 1 -9 19 -25 38 -35 33 -18 47 -41 49 -81 1 -24 -307 -368 -330 -368 -12 0 -11 88 3 262 13 166 9 181 -46 176 -54 -5 -60 -32 -63 -302 -1 -131 -6 -243 -11 -250 -5 -6 -12 -47 -15 -91 -8 -105 -23 -151 -78 -240 -25 -39 -29 -53 -20 -65 7 -8 19 -32 28 -53 19 -44 48 -55 102 -39 26 8 48 9 76 1 21 -6 79 -12 129 -13 107 -3 109 -6 77 -98 -20 -58 -20 -58 0 -68 11 -6 23 -9 27 -6 4 2 23 38 42 79 38 82 60 101 130 112 58 9 144 38 165 55 24 20 38 0 28 -41 -13 -53 0 -175 22 -199 21 -23 34 -25 59 -7 16 12 19 32 22 153 2 115 8 159 34 259 17 66 37 154 46 195 8 41 24 100 35 130 12 30 26 68 32 83 8 23 14 27 31 22 12 -4 30 -8 41 -9 18 -2 21 -15 33 -147 13 -144 11 -694 -3 -804 -3 -27 -3 -87 0 -132 l7 -83 33 0 c41 0 38 -14 62 280 16 200 18 392 10 870 -3 166 2 176 174 356 39 41 51 74 27 74 -17 0 -171 -99 -181 -116 -4 -7 -28 -25 -52 -39 -24 -15 -60 -44 -80 -66 -20 -23 -39 -39 -41 -36 -7 7 23 176 46 257 51 176 45 280 -15 280 -45 0 -64 -29 -70 -105 -6 -78 -18 -157 -40 -255 -8 -36 -22 -103 -31 -150 -9 -46 -28 -114 -43 -150 -40 -98 -101 -311 -101 -350 0 -12 -5 -42 -12 -67 l-11 -45 -61 4 c-66 6 -126 30 -126 51 0 8 -16 32 -35 54 -31 37 -33 43 -25 74 6 19 10 48 10 64 0 28 31 129 50 166 5 9 44 31 87 49 123 53 184 90 181 109 -5 20 -84 18 -132 -3 -40 -18 -127 -38 -134 -32 -10 11 -1 109 14 157 12 37 35 66 101 131 154 151 206 232 179 276 -16 27 -54 14 -216 -73 -36 -19 -69 -34 -74 -32 -10 3 -36 74 -36 99 0 29 -41 129 -61 149 -26 26 -65 24 -83 -3z m64 -715 l0 -48 -52 -23 c-28 -12 -53 -20 -55 -18 -6 6 89 136 99 136 4 0 8 -21 8 -47z m-35 -220 c-19 -130 -24 -143 -72 -171 -25 -15 -51 -33 -57 -41 -6 -8 -29 -30 -51 -50 -22 -20 -64 -60 -93 -89 -94 -92 -105 -65 -54 127 23 83 36 117 53 130 32 23 251 138 268 140 10 1 12 -9 6 -46z m-40 -330 c-4 -49 -12 -94 -18 -101 -8 -10 -31 -12 -90 -7 -44 3 -83 7 -85 10 -6 5 185 185 195 185 3 0 2 -39 -2 -87z m141 -28 c9 -8 24 -15 34 -15 10 0 31 -5 47 -11 l28 -11 -35 -13 c-19 -8 -56 -14 -81 -14 -45 -1 -46 0 -42 27 9 57 21 66 49 37z" />
</ns0:g>
</g><g transform="translate(2.609353884314771,301.7445202158225) scale(0.0460041892903181)"><ns0:metadata>
Created by potrace 1.16, written by Peter Selinger 2001-2019
</ns0:metadata>
<ns0:g transform="translate(0.000000,216.000000) scale(0.100000,-0.100000)" fill="#000000" stroke="none">
<ns0:path d="M1577 2089 c-23 -14 -38 -45 -83 -179 -44 -133 -113 -276 -186 -388 -35 -53 -89 -142 -105 -174 -30 -59 29 -102 126 -91 39 3 61 2 61 -4 0 -10 -44 -72 -77 -108 -10 -10 -26 -32 -35 -47 -13 -20 -26 -28 -47 -28 -22 0 -41 -13 -85 -60 -30 -33 -67 -77 -83 -98 -42 -58 -76 -92 -90 -92 -24 0 -18 59 27 290 31 157 34 169 67 245 49 114 50 125 13 155 -31 25 -31 25 -17 65 26 73 84 179 136 249 56 74 68 107 52 147 -14 38 -54 28 -117 -31 -28 -26 -68 -57 -90 -68 -21 -11 -66 -43 -99 -71 -33 -28 -73 -58 -90 -67 -16 -9 -43 -27 -58 -40 -16 -13 -34 -24 -40 -24 -13 0 -66 -35 -130 -84 -34 -26 -38 -34 -35 -65 3 -33 0 -36 -25 -39 -32 -4 -51 -34 -42 -69 3 -14 6 -126 5 -249 0 -213 1 -224 19 -224 19 0 51 52 51 83 0 9 4 18 9 21 12 8 30 141 36 275 4 90 2 119 -9 136 -14 22 -13 23 18 28 20 3 68 32 117 69 46 35 91 68 100 73 41 25 76 50 97 69 27 24 27 17 3 -60 -11 -32 -27 -84 -36 -114 -38 -126 -79 -178 -173 -225 -17 -9 -40 -31 -52 -50 -12 -19 -29 -37 -40 -40 -13 -4 -18 -15 -18 -35 1 -24 8 -32 41 -45 l40 -16 57 58 c46 46 64 58 90 58 28 0 31 -3 27 -25 -12 -61 -28 -144 -39 -197 -6 -32 -12 -115 -12 -185 -1 -88 -5 -129 -13 -132 -12 -5 -33 71 -33 119 0 13 -4 27 -10 30 -15 9 -11 87 5 109 8 11 15 29 15 39 0 17 -5 19 -37 14 -21 -4 -39 -11 -41 -17 -2 -5 -9 -10 -16 -10 -23 0 -50 -40 -49 -74 1 -18 8 -61 18 -97 9 -37 17 -109 18 -170 2 -117 16 -149 63 -149 21 0 64 34 64 50 0 10 57 40 78 40 13 0 35 22 63 62 44 61 272 298 287 298 8 0 25 19 107 115 101 120 155 188 155 196 0 15 58 36 158 59 133 29 182 54 182 92 0 21 -5 22 -122 7 -52 -7 -93 -8 -98 -3 -8 8 22 76 82 188 14 25 21 58 22 97 1 83 -12 94 -114 94 -91 -1 -88 -6 -43 94 59 130 66 175 30 209 -27 25 -26 25 -50 11z m73 -425 c0 -9 -23 -58 -52 -108 -97 -173 -116 -193 -173 -187 -56 5 -58 12 -18 77 60 94 62 97 78 130 24 47 66 82 110 93 56 13 55 13 55 -5z" />
<ns0:path d="M1521 1014 c-54 -45 -54 -53 -9 -127 50 -83 54 -145 14 -224 -65 -129 -206 -205 -230 -126 -8 28 0 176 12 203 19 45 52 159 52 180 0 17 -4 20 -22 15 -32 -10 -41 -21 -76 -90 -43 -83 -62 -160 -62 -247 0 -65 4 -80 29 -120 39 -62 60 -72 138 -65 60 4 67 8 116 53 61 57 118 126 139 169 8 17 20 62 26 102 11 63 10 78 -8 136 -11 35 -27 70 -35 77 -9 8 -13 21 -9 36 7 26 -10 54 -31 54 -8 0 -27 -12 -44 -26z" />
</ns0:g>
</g><g transform="translate(2.623956017655985,412.29557202067144) scale(0.0460041892903181)"><ns0:metadata>
Created by potrace 1.16, written by Peter Selinger 2001-2019
</ns0:metadata>
<ns0:g transform="translate(0.000000,205.000000) scale(0.100000,-0.100000)" fill="#000000" stroke="none">
<ns0:path d="M1227 1963 c-25 -13 -67 -81 -67 -110 0 -7 -7 -33 -15 -58 -31 -90 11 -77 59 19 39 78 98 88 131 24 18 -37 19 -49 3 -100 -8 -29 -18 -40 -37 -45 -41 -9 -61 -33 -61 -70 0 -27 -10 -43 -54 -86 -30 -28 -73 -65 -95 -80 -24 -17 -41 -36 -41 -48 0 -26 10 -24 56 11 21 16 44 30 49 30 6 1 32 18 60 39 l49 38 23 -34 c25 -37 30 -73 11 -73 -7 0 -23 -10 -37 -23 -15 -13 -55 -36 -91 -52 -36 -15 -97 -45 -136 -66 -39 -22 -74 -39 -77 -39 -17 0 -4 25 33 68 22 25 39 50 37 56 -6 18 -68 17 -121 -2 l-49 -17 -28 -99 c-20 -70 -35 -103 -51 -115 -30 -22 -137 -83 -230 -131 -42 -22 -79 -44 -83 -50 -4 -6 -37 -26 -73 -46 -105 -55 -140 -78 -183 -120 -48 -47 -53 -89 -13 -104 54 -21 68 -15 154 63 14 13 39 32 55 42 17 11 40 28 51 40 12 11 74 47 138 79 64 33 121 66 126 75 32 54 -32 -214 -73 -309 -9 -19 -22 -51 -30 -70 -27 -62 -31 -90 -13 -90 9 0 16 3 16 8 0 4 17 25 38 47 21 22 42 52 45 67 4 15 20 36 35 47 20 14 34 38 47 80 l18 60 146 -1 c150 -1 161 0 244 9 42 4 48 8 45 26 -4 30 -70 47 -193 51 -120 4 -181 14 -195 32 -8 9 -8 23 2 51 28 78 75 128 162 168 17 8 45 24 61 35 17 11 37 22 45 26 8 3 33 14 56 25 23 10 46 19 51 19 5 0 35 18 67 40 31 22 71 42 89 45 17 4 38 12 47 18 26 22 97 57 114 57 9 0 16 -8 16 -20 0 -14 -19 -32 -61 -57 -34 -21 -74 -48 -90 -61 -15 -12 -45 -28 -66 -36 -22 -7 -39 -21 -42 -31 -3 -15 2 -17 30 -11 63 12 151 61 216 119 24 20 47 37 53 37 22 0 50 41 50 73 0 65 -50 80 -168 51 -78 -20 -85 -15 -108 74 l-16 62 35 42 c29 36 36 54 42 111 9 86 -14 139 -77 179 -47 29 -87 32 -131 11z" />
<ns0:path d="M1000 1863 c-13 -16 -18 -33 -13 -42 12 -28 16 -320 4 -335 -6 -7 -9 -21 -5 -30 20 -52 94 41 105 134 11 84 10 245 -1 274 -13 36 -61 36 -90 -1z" />
<ns0:path d="M587 1809 c-27 -21 -69 -98 -82 -152 -10 -39 -24 -43 -36 -8 -19 54 -102 62 -129 11 -12 -22 -8 -33 21 -65 26 -30 52 -141 44 -192 -7 -46 7 -83 30 -83 8 0 15 1 15 3 0 1 16 47 36 102 19 55 38 109 41 120 3 11 13 29 23 40 9 11 25 39 35 62 23 53 45 74 82 75 37 1 69 -16 89 -48 29 -44 14 -145 -36 -239 -51 -97 -95 -142 -183 -189 -63 -33 -70 -35 -91 -21 -26 17 -36 11 -36 -21 0 -23 33 -54 57 -54 24 0 121 41 143 60 13 11 26 20 31 20 12 0 89 53 89 61 0 4 16 26 36 50 68 82 87 133 92 244 3 97 3 101 -26 146 -34 53 -91 85 -167 94 -41 4 -55 2 -78 -16z" />
<ns0:path d="M1246 605 c-38 -13 -56 -29 -56 -51 0 -22 54 -64 103 -82 90 -31 95 -78 17 -161 -50 -53 -93 -71 -180 -74 -32 -2 -35 1 -52 48 -45 122 -78 185 -110 208 -24 18 -30 18 -58 7 -34 -14 -55 -44 -43 -63 4 -6 28 -39 53 -72 61 -78 103 -161 95 -186 -4 -10 -22 -31 -41 -45 -40 -31 -42 -42 -13 -78 27 -34 52 -33 99 4 21 17 44 30 52 30 8 0 18 4 23 8 6 5 35 19 66 31 31 12 67 33 80 47 12 13 28 24 34 24 12 0 73 55 110 98 11 14 22 46 26 80 9 82 -8 119 -76 162 -31 20 -56 44 -60 57 -6 26 -15 27 -69 8z" />
<ns0:path d="M528 459 c-31 -15 -38 -25 -38 -48 0 -22 7 -32 32 -44 18 -9 36 -13 41 -10 4 2 40 5 79 4 90 -1 108 -14 98 -71 -4 -22 -15 -50 -24 -62 -9 -13 -26 -37 -37 -54 -12 -19 -44 -43 -82 -62 -102 -50 -113 -53 -130 -34 -20 24 -30 59 -17 67 5 3 10 13 10 21 0 17 68 127 81 132 10 4 13 42 4 42 -4 0 -20 -7 -38 -16 -39 -20 -85 -68 -128 -135 -29 -45 -31 -55 -25 -104 10 -89 3 -85 136 -85 92 0 120 3 130 15 7 8 18 15 25 15 21 0 121 104 129 133 3 15 11 27 17 27 18 0 39 68 39 127 -1 92 -36 122 -171 147 -47 9 -87 16 -90 15 -2 -1 -21 -10 -41 -20z" />
</ns0:g>
</g></svg>