<?xml version='1.0' encoding='utf-8'?>
<svg xmlns:ns0="http://www.w3.org/2000/svg" xmlns="http://www.w3.org/2000/svg" width="249" height="109" viewBox="0 0 249 109"><g transform="translate(0.7670366975608545,-84.64064667824246) scale(0.0460041892903181)"><ns0:metadata>
Created by potrace 1.16, written by Peter Selinger 2001-2019
</ns0:metadata>
<ns0:g transform="translate(0.000000,207.000000) scale(0.100000,-0.100000)" fill="#000000" stroke="none">
<ns0:path d="M1467 1412 c-10 -10 -17 -21 -17 -24 0 -10 49 -15 53 -5 2 6 11 6 25 -2 18 -10 22 -9 22 3 0 9 -13 22 -30 31 -36 19 -34 19 -53 -3z" />
<ns0:path d="M840 1261 c0 -6 -7 -11 -15 -11 -31 0 -31 -92 0 -104 9 -3 35 1 58 9 99 34 165 7 152 -63 -21 -114 -213 -390 -300 -431 -44 -21 -115 -92 -115 -115 0 -39 85 -61 111 -29 8 9 42 28 75 44 34 15 65 32 68 38 4 6 20 11 35 11 16 0 46 6 67 14 22 7 81 17 132 21 70 5 95 11 99 23 4 8 -1 20 -11 27 -22 16 -181 27 -229 16 -51 -12 -55 2 -14 52 19 23 37 52 41 64 4 12 21 33 37 47 31 26 81 125 94 184 19 90 -25 182 -96 196 -68 14 -189 19 -189 7z" />
</ns0:g>
</g><g transform="translate(2.0377941177962953,47.42155434834021) scale(0.0460041892903181)"><ns0:metadata>
Created by potrace 1.16, written by Peter Selinger 2001-2019
</ns0:metadata>
<ns0:g transform="translate(0.000000,213.000000) scale(0.100000,-0.100000)" fill="#000000" stroke="none">
<ns0:path d="M1263 1463 c-38 -7 -193 -184 -228 -261 -14 -30 -14 -43 5 -145 28 -152 36 -189 44 -208 7 -16 -36 -71 -124 -159 -14 -14 -37 -47 -50 -73 l-25 -48 23 -20 c15 -11 38 -18 60 -18 21 0 96 -4 167 -9 143 -11 238 0 271 30 16 14 21 44 15 87 0 4 -26 28 -58 52 -87 68 -133 119 -133 148 0 14 34 94 75 178 41 84 79 170 83 190 8 39 -3 130 -18 148 -5 6 -11 28 -15 50 -12 63 -24 71 -92 58z m15 -168 c32 -69 -10 -190 -94 -275 -21 -21 -30 -3 -44 82 l-12 68 62 75 c35 41 66 75 70 75 4 0 12 -11 18 -25z m-75 -604 c31 -27 66 -52 77 -56 29 -9 21 -37 -14 -46 -16 -5 -51 -4 -79 2 -27 5 -64 9 -81 9 -51 0 -63 13 -41 47 32 50 66 93 74 93 4 0 33 -22 64 -49z" />
</ns0:g>
</g><g transform="translate(-2.913201963925644,179.16204306756111) scale(0.0460041892903181)"><ns0:metadata>
Created by potrace 1.16, written by Peter Selinger 2001-2019
</ns0:metadata>
<ns0:g transform="translate(0.000000,206.000000) scale(0.100000,-0.100000)" fill="#000000" stroke="none">
<ns0:path d="M832 1494 c-13 -9 -22 -26 -22 -40 0 -26 -5 -26 -57 -7 -25 10 -43 -44 -53 -157 -5 -63 -17 -158 -26 -210 -37 -223 -43 -284 -33 -329 21 -93 91 -146 174 -130 49 9 156 79 198 129 52 61 65 320 25 491 -12 52 -21 118 -20 148 2 72 -9 88 -63 97 -25 3 -45 10 -45 15 0 15 -54 10 -78 -7z m63 -98 c10 4 15 0 15 -15 0 -12 12 -79 28 -149 30 -141 34 -248 13 -350 -12 -53 -20 -67 -52 -93 -48 -38 -101 -54 -129 -39 -17 9 -20 20 -19 73 0 61 3 81 32 247 8 47 20 137 27 200 14 145 13 142 45 130 13 -5 32 -7 40 -4z" />
</ns0:g>
</g><g transform="translate(0.5079026358392866,311.7632216939486) scale(0.0460041892903181)"><ns0:metadata>
Created by potrace 1.16, written by Peter Selinger 2001-2019
</ns0:metadata>
<ns0:g transform="translate(0.000000,212.000000) scale(0.100000,-0.100000)" fill="#000000" stroke="none">
<ns0:path d="M955 1513 c-92 -24 -98 -32 -92 -129 5 -91 1 -98 -71 -108 -48 -7 -110 -52 -117 -86 -3 -16 -13 -31 -21 -34 -20 -8 -19 -80 2 -97 14 -11 19 -10 35 13 13 17 33 29 59 33 22 4 56 20 77 36 20 17 46 29 57 27 19 -3 21 -10 21 -88 -1 -47 -5 -122 -9 -168 l-9 -83 -42 -20 c-51 -24 -118 -101 -113 -131 2 -12 18 -30 36 -40 35 -19 56 -15 81 16 12 14 16 14 37 -3 34 -27 73 -16 90 24 11 27 20 33 56 38 23 3 65 1 92 -4 84 -16 202 -19 220 -6 13 10 14 19 6 46 -5 19 -7 38 -4 43 12 18 -18 38 -52 34 -18 -3 -37 -7 -42 -10 -5 -3 -36 -1 -68 4 -32 5 -85 10 -117 12 -40 2 -61 8 -66 18 -4 8 -4 56 0 105 4 50 8 129 8 178 l1 87 33 1 c63 2 86 8 136 33 54 28 74 63 51 90 -18 23 -65 29 -97 12 -21 -10 -47 -13 -91 -9 l-62 6 0 38 c0 29 8 47 31 74 18 20 29 41 25 50 -6 18 -5 18 -81 -2z" />
</ns0:g>
</g><g transform="translate(-0.36254125439893414,432.66113168064214) scale(0.0460041892903181)"><ns0:metadata>
Created by potrace 1.16, written by Peter Selinger 2001-2019
</ns0:metadata>
<ns0:g transform="translate(0.000000,208.000000) scale(0.100000,-0.100000)" fill="#000000" stroke="none">
<ns0:path d="M1135 1490 c-11 -5 -37 -11 -58 -15 -50 -8 -72 -41 -64 -99 4 -24 2 -47 -4 -53 -5 -5 -12 -48 -14 -95 -2 -47 -12 -112 -23 -144 -40 -125 -54 -183 -48 -199 6 -18 69 -47 101 -48 11 0 64 6 119 12 54 7 101 10 104 7 9 -9 -30 -88 -65 -132 -18 -23 -33 -46 -33 -51 0 -6 -19 -26 -42 -46 -24 -19 -56 -47 -73 -63 -46 -42 -116 -84 -143 -84 -59 0 -83 -42 -34 -61 101 -39 305 81 413 242 52 77 70 122 81 201 11 69 10 71 -13 89 -33 26 -91 24 -248 -7 l-34 -7 5 40 c3 22 13 55 21 74 9 19 21 59 27 90 9 49 17 62 58 96 26 21 60 47 77 58 28 18 78 60 136 116 34 32 30 76 -8 85 -19 5 -32 -1 -56 -24 -18 -16 -52 -40 -76 -53 -24 -13 -55 -30 -68 -37 -32 -18 -40 -9 -19 22 16 25 23 97 9 95 -5 0 -17 -4 -28 -9z" />
</ns0:g>
</g><g transform="translate(-1.372893428679788,567.1973707330321) scale(0.0460041892903181)"><ns0:metadata>
Created by potrace 1.16, written by Peter Selinger 2001-2019
</ns0:metadata>
<ns0:g transform="translate(0.000000,214.000000) scale(0.100000,-0.100000)" fill="#000000" stroke="none">
<ns0:path d="M1583 1812 c-22 -26 -50 -66 -61 -89 -24 -46 -28 -47 -144 -22 -57 13 -74 5 -114 -53 -16 -24 -44 -63 -63 -88 -19 -25 -42 -63 -53 -85 -10 -22 -26 -52 -35 -67 -15 -23 -15 -30 -4 -51 29 -54 97 -51 199 9 l45 26 -7 -36 c-4 -21 -27 -71 -52 -113 -24 -41 -44 -77 -44 -80 0 -10 -173 -355 -189 -376 -26 -34 -81 -189 -81 -228 0 -57 40 -77 88 -43 17 11 22 25 22 57 0 23 7 56 16 72 9 17 54 105 100 197 46 93 89 168 95 168 5 0 20 21 32 48 13 26 30 58 39 72 8 14 37 84 63 155 26 72 55 144 63 160 9 17 28 52 42 80 15 30 36 55 53 63 35 17 74 76 83 127 3 22 12 51 19 65 11 20 11 30 -1 52 -23 45 -62 38 -111 -20z m-163 -202 c13 -8 13 -12 0 -36 -17 -32 -47 -47 -37 -20 4 10 7 29 7 42 0 26 7 29 30 14z" />
<ns0:path d="M1430 1002 c-51 -23 -90 -88 -111 -181 -5 -25 -16 -60 -25 -78 -21 -46 -9 -104 32 -152 28 -32 42 -40 83 -46 45 -6 54 -4 94 24 44 30 95 98 117 156 7 17 17 62 24 100 16 93 -1 151 -50 171 -34 14 -137 18 -164 6z m118 -146 c4 -59 -32 -142 -80 -185 -33 -30 -33 -30 -53 -11 -19 19 -19 20 4 91 23 72 91 164 115 156 6 -2 12 -25 14 -51z" />
</ns0:g>
</g></svg>