<?xml version='1.0' encoding='utf-8'?>
<svg xmlns:ns0="http://www.w3.org/2000/svg" xmlns="http://www.w3.org/2000/svg" width="221" height="121" viewBox="0 0 221 121"><g transform="translate(1.8024136489389093,-94.9238774881385) scale(0.051068870680077885)"><ns0:metadata>
Created by potrace 1.16, written by Peter Selinger 2001-2019
</ns0:metadata>
<ns0:g transform="translate(0.000000,205.000000) scale(0.100000,-0.100000)" fill="#000000" stroke="none">
<ns0:path d="M802 1318 c-45 -67 -75 -135 -68 -153 5 -14 9 -15 21 -5 12 10 15 10 15 -3 0 -9 -4 -27 -10 -41 -5 -14 -16 -76 -25 -138 -17 -125 -33 -223 -41 -251 -5 -15 -8 -16 -20 -6 -29 24 -38 -4 -24 -78 21 -111 57 -151 107 -118 25 17 27 22 42 145 23 192 62 413 78 443 9 18 20 52 24 77 4 25 10 62 14 82 4 20 5 48 1 62 -5 22 -12 26 -46 26 -35 0 -42 -5 -68 -42z" />
</ns0:g>
</g><g transform="translate(-2.916670042514852,46.144938027441384) scale(0.051068870680077885)"><ns0:metadata>
Created by potrace 1.16, written by Peter Selinger 2001-2019
</ns0:metadata>
<ns0:g transform="translate(0.000000,208.000000) scale(0.100000,-0.100000)" fill="#000000" stroke="none">
<ns0:path d="M862 1397 c-24 -13 -29 -23 -42 -94 -4 -26 -13 -61 -18 -78 -6 -16 -16 -86 -23 -154 l-11 -123 24 -25 c31 -31 85 -43 166 -38 80 6 86 -7 38 -77 -20 -29 -54 -78 -74 -108 -21 -30 -58 -75 -82 -100 -25 -25 -53 -54 -62 -65 -9 -11 -24 -26 -33 -33 -37 -31 3 -84 49 -67 30 11 236 211 236 229 0 6 16 31 36 56 49 62 64 102 64 175 0 83 -8 89 -122 86 -141 -3 -143 -2 -106 108 26 80 35 91 96 122 26 13 73 44 105 68 58 45 72 76 44 99 -18 15 -78 -2 -114 -32 -15 -13 -41 -26 -58 -30 -28 -7 -29 -7 -12 12 18 20 23 57 9 66 -20 12 -89 14 -110 3z" />
</ns0:g>
</g><g transform="translate(1.9767754974595846,193.09801325220428) scale(0.051068870680077885)"><ns0:metadata>
Created by potrace 1.16, written by Peter Selinger 2001-2019
</ns0:metadata>
<ns0:g transform="translate(0.000000,208.000000) scale(0.100000,-0.100000)" fill="#000000" stroke="none">
<ns0:path d="M871 1322 c-20 -20 -30 -42 -35 -79 -6 -47 -4 -56 21 -92 21 -30 35 -40 56 -41 21 0 30 -7 38 -27 16 -41 2 -130 -28 -183 -14 -25 -34 -61 -44 -80 -22 -44 -86 -106 -164 -158 -67 -45 -108 -93 -99 -117 3 -8 22 -22 41 -31 32 -16 35 -16 56 2 33 28 60 42 140 71 39 14 81 31 92 38 24 15 105 38 199 56 66 13 89 30 69 50 -16 16 -201 12 -255 -4 -39 -12 -48 -12 -48 -2 0 13 51 96 89 146 30 38 38 65 45 149 5 53 3 91 -7 130 -21 76 -26 88 -64 148 -38 61 -61 66 -102 24z" />
</ns0:g>
</g></svg>