<?xml version='1.0' encoding='utf-8'?>
<svg xmlns:ns0="http://www.w3.org/2000/svg" xmlns="http://www.w3.org/2000/svg" width="235" height="152" viewBox="0 0 235 152"><g transform="translate(0.34224097875465986,-69.97777568602984) scale(0.031285632952386955)"><ns0:metadata>
Created by potrace 1.16, written by Peter Selinger 2001-2019
</ns0:metadata>
<ns0:g transform="translate(0.000000,208.000000) scale(0.100000,-0.100000)" fill="#000000" stroke="none">
<ns0:path d="M1520 2046 c-30 -18 -66 -35 -80 -39 -31 -8 -240 -144 -240 -156 0 -5 -21 -19 -47 -31 -27 -12 -57 -26 -68 -31 -12 -6 -27 -11 -35 -13 -29 -4 -90 -28 -91 -34 -1 -4 -2 -77 -4 -162 -1 -90 -7 -171 -14 -192 -14 -43 -6 -81 16 -76 30 6 88 137 103 231 16 105 30 127 110 167 32 16 60 35 63 43 13 36 281 187 299 169 4 -4 3 -46 -2 -92 -8 -82 -45 -195 -112 -343 -20 -44 -24 -47 -51 -41 -47 10 -124 6 -146 -8 -11 -7 -23 -9 -27 -6 -12 13 50 137 93 185 24 26 43 50 43 54 0 4 -20 11 -44 14 -79 12 -102 -8 -168 -143 -31 -64 -66 -146 -78 -182 -23 -69 -46 -125 -61 -150 -5 -8 -29 -53 -54 -100 -25 -47 -55 -97 -67 -112 -28 -36 -16 -47 25 -23 50 28 66 45 114 120 25 39 56 81 68 95 13 14 38 56 55 94 23 53 33 67 42 58 16 -16 58 -15 101 3 20 8 47 14 62 13 22 -2 25 -7 25 -40 0 -51 14 -55 42 -11 12 20 35 55 50 77 15 23 34 56 42 73 8 18 26 48 39 65 59 81 107 224 107 318 0 27 4 59 9 72 5 13 6 56 3 96 l-5 72 -31 0 c-17 -1 -56 -16 -86 -34z" />
<ns0:path d="M638 1603 c-45 -3 -61 -9 -73 -26 -17 -24 -20 -63 -6 -71 5 -3 12 -34 15 -68 5 -48 2 -82 -14 -142 -13 -53 -17 -83 -10 -90 13 -13 44 17 70 68 12 22 31 54 43 69 16 21 22 45 25 97 3 56 8 73 28 91 27 26 32 64 8 73 -9 3 -19 5 -22 4 -4 -1 -33 -3 -64 -5z" />
<ns0:path d="M1245 1294 c-21 -16 -26 -89 -12 -182 8 -53 7 -54 -28 -87 -19 -19 -53 -46 -75 -62 -21 -15 -77 -56 -124 -91 -47 -34 -100 -68 -118 -74 -18 -6 -44 -19 -57 -30 -13 -10 -28 -18 -34 -18 -5 0 -25 -12 -43 -28 -19 -15 -50 -40 -69 -55 -48 -40 -48 -77 1 -106 l36 -21 31 21 c18 12 46 36 63 53 16 17 52 45 78 61 72 45 149 93 170 107 17 11 45 34 133 108 25 22 33 17 33 -22 0 -17 -5 -28 -14 -28 -8 0 -16 -3 -18 -7 -1 -5 -27 -26 -55 -48 -29 -21 -53 -42 -53 -46 0 -4 -18 -29 -40 -55 -22 -27 -40 -53 -40 -59 0 -15 -72 -154 -103 -199 -15 -21 -27 -43 -27 -49 0 -6 -7 -18 -16 -28 -21 -23 -11 -49 19 -49 26 0 46 14 70 50 9 14 30 43 47 65 16 22 38 59 49 81 11 23 36 63 56 90 21 27 54 82 74 123 31 65 36 72 39 48 2 -15 -1 -59 -7 -97 -6 -38 -11 -99 -11 -137 0 -77 -22 -182 -47 -224 -14 -23 -15 -33 -5 -53 17 -37 66 -36 85 1 40 80 92 385 106 621 l8 143 34 35 c19 20 54 46 79 58 48 24 149 116 168 153 10 17 9 25 -4 37 -8 9 -18 16 -22 16 -4 0 -41 -26 -82 -58 -41 -32 -96 -70 -123 -85 -56 -33 -63 -26 -54 52 5 41 3 49 -16 62 -36 23 -62 27 -82 13z" />
<ns0:path d="M531 993 c-24 -21 -31 -89 -37 -336 -2 -82 -6 -152 -9 -157 -10 -16 9 -104 27 -122 21 -21 66 -24 74 -4 3 7 6 24 8 38 1 13 5 28 9 34 3 6 3 44 0 85 -9 99 -4 268 8 290 8 15 15 134 10 177 -2 18 -66 15 -90 -5z" />
<ns0:path d="M1499 662 c-33 -4 -54 -44 -39 -72 22 -41 91 -34 103 9 7 29 -31 67 -64 63z" />
<ns0:path d="M685 421 c-27 -22 -90 -78 -140 -125 -49 -47 -94 -86 -101 -86 -13 0 -39 -28 -47 -53 -9 -23 34 -67 64 -67 12 0 31 7 41 17 10 9 28 21 40 27 13 6 24 20 27 31 2 10 14 27 27 38 13 10 24 27 24 38 0 10 5 19 10 19 6 0 10 8 10 19 0 10 11 26 25 35 14 9 37 36 53 59 15 23 33 48 40 55 13 15 8 32 -11 31 -7 0 -34 -17 -62 -38z" />
</ns0:g>
</g><g transform="translate(2.111161612776641,15.356297199422102) scale(0.031285632952386955)"><ns0:metadata>
Created by potrace 1.16, written by Peter Selinger 2001-2019
</ns0:metadata>
<ns0:g transform="translate(0.000000,210.000000) scale(0.100000,-0.100000)" fill="#000000" stroke="none">
<ns0:path d="M1805 1953 c-39 -10 -46 -23 -40 -82 10 -100 12 -274 4 -366 -16 -189 -30 -321 -39 -355 -5 -19 -12 -105 -15 -190 -6 -183 -21 -363 -41 -515 -8 -60 -19 -159 -25 -219 -5 -60 -14 -117 -19 -126 -5 -9 -6 -35 -3 -58 l6 -42 65 0 65 0 -6 73 c-4 41 0 134 9 217 37 348 44 439 54 675 6 138 17 304 25 370 8 66 16 167 19 225 3 58 8 160 12 228 4 75 3 122 -3 122 -6 0 -15 11 -21 25 -6 14 -15 24 -19 24 -5 -1 -17 -4 -28 -6z" />
<ns0:path d="M1054 1710 c-40 -16 -40 -67 0 -94 14 -9 33 -43 49 -89 22 -61 27 -93 28 -180 0 -58 -2 -110 -5 -115 -3 -5 -13 -59 -22 -118 -9 -60 -19 -113 -24 -119 -4 -5 -13 -34 -20 -62 -6 -29 -16 -53 -21 -53 -15 0 -243 -206 -264 -239 -11 -17 -36 -43 -56 -57 -20 -14 -58 -52 -85 -85 -26 -32 -49 -58 -51 -56 -1 2 6 39 17 81 30 118 42 222 51 441 11 272 9 267 74 306 57 34 86 72 69 89 -7 7 -20 6 -40 -5 -16 -8 -34 -15 -40 -15 -6 0 -17 -7 -24 -15 -25 -30 -40 -17 -40 34 0 77 10 108 46 143 34 33 44 63 22 70 -17 6 -120 -9 -127 -19 -3 -4 -15 -13 -26 -19 -19 -11 -20 -20 -16 -146 l3 -134 -38 -31 c-22 -16 -60 -42 -87 -57 -79 -46 -98 -93 -54 -134 35 -33 63 -28 107 21 22 23 40 45 40 50 0 4 6 7 14 7 11 0 16 -24 22 -97 7 -105 -13 -316 -42 -423 -24 -91 -42 -160 -64 -253 -11 -49 -24 -96 -29 -105 -48 -99 -46 -88 -20 -127 13 -19 29 -35 36 -35 22 0 43 12 43 26 0 7 13 28 28 46 16 18 34 48 41 65 7 18 27 48 45 67 45 51 96 121 96 134 0 7 21 36 48 66 100 115 132 154 132 161 0 4 33 43 73 87 47 53 73 75 75 65 4 -21 -35 -153 -58 -197 -29 -54 -58 -123 -66 -155 -3 -17 -19 -50 -34 -75 -15 -25 -50 -103 -79 -175 -29 -72 -61 -142 -72 -157 l-20 -28 44 0 c40 0 45 3 81 51 21 29 49 79 63 111 13 32 43 98 67 146 24 48 47 98 51 112 4 14 23 59 42 100 40 88 67 162 87 245 8 33 28 112 44 175 47 181 65 324 60 480 -6 153 -14 180 -80 255 -40 45 -55 51 -94 35z" />
<ns0:path d="M1338 1229 c-36 -14 -42 -38 -21 -80 22 -42 30 -183 14 -242 -6 -23 -18 -84 -28 -135 -14 -79 -15 -95 -3 -102 17 -11 49 5 56 28 3 9 12 30 20 45 7 16 14 36 14 46 0 9 5 22 11 28 32 32 54 317 28 364 -34 60 -43 65 -91 48z" />
</ns0:g>
</g><g transform="translate(2.4453764546157117,102.20789325451409) scale(0.031285632952386955)"><ns0:metadata>
Created by potrace 1.16, written by Peter Selinger 2001-2019
</ns0:metadata>
<ns0:g transform="translate(0.000000,208.000000) scale(0.100000,-0.100000)" fill="#000000" stroke="none">
<ns0:path d="M891 1884 c-26 -33 -26 -39 -2 -72 23 -33 82 -208 75 -225 -6 -17 -49 -41 -229 -132 -82 -42 -151 -80 -153 -86 -2 -5 -10 -9 -18 -9 -16 0 -28 -41 -20 -68 6 -19 45 -42 72 -42 23 0 134 59 140 75 3 7 38 33 77 56 40 23 81 50 92 59 22 19 56 34 68 31 10 -2 133 67 151 85 17 17 71 49 116 70 19 9 47 27 62 39 15 13 43 28 62 35 19 6 37 17 40 25 3 8 15 15 26 15 11 0 28 8 38 18 10 10 33 24 52 32 44 18 120 69 120 80 0 24 -15 40 -36 40 -22 0 -214 -89 -344 -160 -60 -33 -173 -84 -206 -94 -19 -6 -22 -1 -28 40 -10 76 -7 98 14 112 24 15 27 64 4 83 -8 7 -46 14 -84 16 -64 3 -70 2 -89 -23z" />
<ns0:path d="M1650 1605 c-7 -8 -18 -15 -24 -15 -7 0 -30 -18 -51 -41 -38 -38 -72 -63 -249 -181 -66 -44 -227 -128 -245 -128 -4 0 -13 11 -19 25 -23 49 -95 25 -104 -35 -3 -22 -10 -26 -78 -38 -110 -20 -153 -36 -166 -61 -7 -13 -15 -87 -18 -165 -4 -77 -11 -172 -16 -211 -5 -38 -11 -134 -13 -213 -3 -139 -3 -143 17 -140 11 2 25 13 31 24 6 12 17 29 24 38 8 9 15 54 17 118 3 57 9 119 14 138 6 19 15 92 20 161 8 117 29 199 51 199 4 0 21 -13 38 -29 18 -17 38 -28 45 -25 21 8 27 -176 21 -623 -6 -395 -6 -403 13 -403 12 0 23 9 27 23 20 64 38 199 44 342 5 103 12 172 22 193 16 36 21 38 43 17 8 -8 20 -15 26 -15 6 0 30 -13 54 -29 23 -16 67 -34 97 -39 31 -6 72 -20 91 -32 19 -11 42 -18 50 -15 16 6 34 82 48 210 6 50 20 119 31 154 21 66 60 246 85 386 7 44 18 93 24 109 5 16 10 39 10 51 0 12 9 30 20 40 11 10 20 26 20 35 0 9 11 27 25 40 23 22 26 31 23 85 -3 63 -21 82 -48 50z m-154 -297 c-8 -29 -20 -80 -25 -113 -19 -110 -60 -302 -85 -396 -13 -52 -27 -124 -31 -162 -4 -37 -11 -69 -15 -72 -13 -8 -107 13 -155 35 -51 23 -66 43 -89 115 -34 106 -43 169 -35 225 5 30 10 79 12 108 5 61 27 91 82 111 43 15 262 142 290 168 22 20 58 41 63 37 2 -1 -3 -26 -12 -56z" />
</ns0:g>
</g><g transform="translate(-0.05642872965620427,193.01554903939632) scale(0.031285632952386955)"><ns0:metadata>
Created by potrace 1.16, written by Peter Selinger 2001-2019
</ns0:metadata>
<ns0:g transform="translate(0.000000,213.000000) scale(0.100000,-0.100000)" fill="#000000" stroke="none">
<ns0:path d="M1026 1982 c-3 -6 -14 -8 -24 -5 -25 6 -50 -26 -61 -78 -6 -24 -20 -89 -31 -144 -12 -55 -39 -153 -62 -218 -22 -65 -37 -124 -34 -132 6 -17 -57 -172 -83 -199 -14 -16 -17 -27 -10 -43 7 -20 11 -22 34 -11 13 6 39 36 57 67 28 49 33 53 36 32 2 -13 -1 -43 -7 -67 -6 -23 -11 -121 -11 -217 0 -123 -4 -178 -12 -189 -25 -31 -239 -128 -282 -128 -8 0 -19 -7 -26 -15 -26 -31 -41 -6 -20 33 28 52 81 176 101 236 12 38 28 80 35 94 7 14 10 30 7 35 -9 14 -53 -40 -53 -64 0 -10 -4 -19 -9 -19 -11 0 -46 -57 -91 -146 -29 -59 -55 -92 -65 -82 -12 12 20 187 43 231 13 26 21 54 18 62 -9 23 -37 31 -47 12 -5 -8 -25 -21 -43 -27 -40 -13 -61 -35 -62 -64 -2 -64 -28 -263 -45 -336 -10 -47 -21 -116 -24 -155 -4 -38 -13 -87 -22 -107 -9 -21 -13 -47 -9 -62 7 -30 49 -61 70 -53 17 7 106 181 106 208 0 10 6 33 14 51 8 18 19 46 25 62 l12 29 23 -22 c37 -35 91 -28 193 25 48 26 97 53 108 60 11 8 23 14 27 14 12 0 9 -213 -3 -268 -11 -45 -10 -54 8 -84 24 -41 56 -41 94 1 25 28 199 121 225 121 8 0 54 21 104 47 50 25 92 44 94 42 2 -2 9 -56 15 -119 7 -63 16 -132 22 -154 17 -62 10 -67 -63 -50 -35 7 -76 20 -93 27 -127 58 -155 70 -161 65 -11 -12 15 -45 53 -64 21 -10 54 -31 73 -46 48 -36 239 -118 275 -118 8 0 19 18 26 43 10 35 8 65 -9 177 -23 148 -27 191 -42 447 -7 117 -7 199 0 254 10 80 10 82 69 145 94 100 97 139 6 79 -31 -21 -58 -35 -61 -33 -2 3 0 49 6 102 12 114 56 232 127 338 52 79 54 111 9 116 -33 4 -76 -15 -76 -34 0 -7 -13 -22 -30 -34 -16 -12 -30 -26 -30 -31 0 -34 -192 -216 -309 -293 -74 -49 -151 -128 -151 -157 0 -38 66 -73 95 -49 8 7 15 17 15 23 0 13 188 194 221 212 l25 14 -4 -142 c-5 -156 -9 -167 -71 -193 -18 -8 -35 -14 -37 -14 -11 0 -2 39 16 68 11 17 23 50 26 72 9 53 -16 65 -55 27 -14 -14 -45 -43 -68 -63 -48 -40 -54 -70 -31 -147 12 -38 11 -41 -18 -64 -16 -13 -47 -29 -69 -35 -22 -7 -51 -19 -63 -27 -18 -11 -25 -12 -31 -2 -10 16 -4 235 8 312 6 34 8 66 5 70 -3 5 2 19 10 31 9 12 16 38 16 56 0 19 8 46 18 60 39 56 63 115 53 125 -10 10 -72 -37 -110 -82 -14 -17 -14 -15 12 40 25 57 168 192 240 229 39 20 99 88 95 108 -5 27 -65 28 -93 2 -32 -30 -157 -110 -173 -110 -8 0 -11 7 -8 18 18 62 46 199 46 225 0 36 -14 65 -24 49z m-155 -669 c-12 -20 -14 -14 -5 12 4 9 9 14 11 11 3 -2 0 -13 -6 -23z m439 -435 c0 -46 3 -134 7 -195 l6 -113 -31 0 c-17 0 -41 -4 -54 -9 -13 -5 -59 -19 -103 -31 -44 -13 -94 -29 -112 -36 -53 -24 -94 -29 -104 -13 -14 22 -11 176 5 213 15 35 63 76 91 76 9 0 40 14 70 30 30 17 65 30 80 30 20 0 28 8 41 38 13 32 73 89 97 91 4 1 7 -36 7 -81z" />
<ns0:path d="M1008 694 c-41 -18 -55 -43 -38 -73 17 -33 45 -43 88 -31 20 5 51 10 67 10 44 0 140 52 140 76 0 17 -8 19 -85 20 -47 1 -96 4 -110 7 -14 4 -41 0 -62 -9z" />
<ns0:path d="M252 1753 c-23 -28 -23 -72 0 -99 10 -13 12 -22 34 -149 9 -49 22 -119 31 -155 11 -48 13 -93 8 -170 l-6 -105 20 24 c12 13 21 29 21 36 0 7 9 24 20 37 25 32 38 117 28 188 -34 255 -36 310 -13 322 31 18 11 68 -27 68 -10 0 -21 7 -24 15 -10 26 -67 19 -92 -12z" />
</ns0:g>
</g><g transform="translate(-1.0537295936496776,285.4514602577356) scale(0.031285632952386955)"><ns0:metadata>
Created by potrace 1.16, written by Peter Selinger 2001-2019
</ns0:metadata>
<ns0:g transform="translate(0.000000,209.000000) scale(0.100000,-0.100000)" fill="#000000" stroke="none">
<ns0:path d="M1402 1891 c-41 -31 -45 -40 -57 -137 -5 -41 -13 -58 -38 -81 -46 -41 -179 -132 -240 -163 -31 -16 -97 -84 -97 -101 0 -15 50 -59 67 -59 8 0 34 16 57 35 24 19 46 35 51 35 4 0 17 9 29 19 80 72 106 91 127 93 24 3 24 2 24 -81 l0 -83 -57 -52 c-32 -29 -95 -72 -140 -96 -110 -57 -147 -86 -146 -113 3 -50 76 -87 102 -51 7 9 27 24 43 33 44 23 135 86 168 117 35 32 45 20 45 -57 0 -54 -1 -56 -39 -81 -22 -14 -57 -32 -78 -38 -21 -7 -51 -22 -68 -34 -16 -11 -56 -34 -88 -51 -32 -16 -70 -41 -84 -54 -15 -12 -49 -30 -77 -38 -28 -8 -57 -20 -64 -25 -7 -6 -15 -8 -18 -5 -9 8 16 146 27 153 5 3 9 21 9 39 0 23 9 45 28 67 45 54 54 76 42 99 -9 16 -17 19 -41 14 -32 -7 -38 1 -14 19 9 7 20 40 26 81 6 39 16 80 22 93 14 29 0 56 -32 60 -21 3 -22 7 -17 55 18 157 18 201 -3 235 -23 35 -45 40 -79 16 -19 -13 -22 -24 -22 -77 0 -34 -3 -106 -7 -160 -6 -94 -7 -99 -33 -112 -15 -8 -38 -16 -51 -19 -13 -2 -39 -8 -56 -12 -31 -6 -33 -5 -33 19 0 14 4 29 10 32 6 3 10 15 10 25 0 10 7 23 16 28 19 10 43 76 44 118 0 34 -26 64 -56 64 -47 -1 -94 -54 -94 -106 0 -12 -4 -25 -9 -28 -4 -3 -14 -47 -20 -98 -7 -51 -28 -172 -46 -268 -18 -96 -39 -208 -46 -248 -11 -65 -17 -79 -56 -119 -46 -50 -55 -87 -25 -109 16 -12 16 -14 0 -46 -10 -18 -37 -77 -62 -130 -43 -94 -102 -184 -144 -221 -15 -14 -29 -17 -51 -12 -38 8 -43 -15 -9 -39 37 -26 82 -20 119 15 19 18 44 38 56 46 45 30 144 202 197 344 14 36 34 59 97 110 44 35 107 86 140 112 66 53 64 55 49 -58 -39 -291 -55 -535 -34 -542 6 -2 27 37 47 89 35 89 42 118 51 198 18 166 22 179 53 159 17 -10 29 -8 76 15 31 14 63 26 71 26 8 0 38 19 65 42 80 68 284 189 297 176 3 -3 6 -79 7 -167 l2 -162 -25 -19 c-33 -25 -170 -77 -260 -98 -45 -10 -75 -23 -81 -34 -9 -18 -2 -67 10 -69 49 -6 119 -41 161 -82 41 -39 123 -141 150 -185 11 -17 32 -38 48 -46 27 -14 31 -14 45 2 15 17 19 56 33 267 3 50 9 131 14 180 6 50 10 144 10 210 0 182 14 287 41 305 12 8 47 41 79 73 31 31 62 57 68 57 16 0 27 50 15 68 -16 27 -28 24 -76 -15 -56 -47 -115 -79 -125 -69 -16 17 -4 98 19 122 18 19 20 26 10 38 -10 12 -4 23 33 60 52 51 61 86 21 86 -30 0 -76 -22 -94 -44 -26 -31 -32 -16 -26 57 8 98 37 172 89 227 77 82 122 170 86 170 -4 0 -34 -21 -66 -47 -50 -41 -56 -44 -50 -22 4 13 9 39 13 57 5 29 3 32 -19 32 -14 0 -43 -13 -66 -29z m-646 -678 c-9 -113 -22 -160 -47 -174 -11 -6 -45 -31 -74 -57 -146 -127 -149 -126 -115 33 11 50 25 117 31 149 12 70 15 76 38 76 9 0 23 6 29 13 14 13 97 44 126 46 18 1 18 -5 12 -86z m575 -739 c-6 -32 -11 -84 -11 -116 0 -32 -3 -58 -7 -58 -5 0 -28 21 -53 46 -25 25 -57 52 -72 60 -32 16 -37 42 -10 51 9 3 35 18 57 33 107 72 114 70 96 -16z" />
</ns0:g>
</g><g transform="translate(-0.9157337393436933,384.3047929007065) scale(0.031285632952386955)"><ns0:metadata>
Created by potrace 1.16, written by Peter Selinger 2001-2019
</ns0:metadata>
<ns0:g transform="translate(0.000000,208.000000) scale(0.100000,-0.100000)" fill="#000000" stroke="none">
<ns0:path d="M1611 2023 c-8 -3 -52 -30 -99 -59 -47 -30 -101 -57 -121 -60 -19 -4 -49 -15 -66 -26 -37 -21 -79 -27 -226 -32 -146 -5 -171 -22 -134 -92 8 -16 15 -37 15 -46 0 -23 -62 -54 -127 -63 -29 -4 -69 -15 -90 -26 -20 -10 -45 -19 -55 -19 -27 0 -43 -37 -27 -66 22 -42 86 -48 149 -15 60 31 150 55 161 44 7 -7 7 -40 0 -102 -10 -90 -3 -141 18 -141 6 0 22 5 36 12 30 14 42 50 50 168 4 47 12 96 18 109 12 25 118 89 149 90 17 1 22 -13 34 -102 8 -60 29 -71 58 -32 15 22 21 46 23 105 3 95 10 116 50 138 18 9 65 39 105 66 40 27 94 63 121 80 59 38 62 70 7 73 -19 1 -41 -1 -49 -4z" />
<ns0:path d="M1669 1233 c-1 -5 0 -18 0 -29 1 -12 -15 -41 -38 -68 -50 -58 -52 -85 -8 -125 36 -35 69 -44 142 -39 48 3 50 4 50 33 0 25 -5 30 -33 36 -55 11 -70 33 -67 92 2 51 -16 107 -35 107 -6 0 -10 -3 -11 -7z" />
<ns0:path d="M823 1158 c-10 -13 -32 -107 -53 -233 -14 -78 -70 -264 -100 -333 -20 -45 -27 -145 -12 -169 23 -36 102 -33 257 11 122 35 254 61 360 72 33 3 89 12 124 21 35 8 94 13 130 12 90 -4 95 0 87 75 -7 68 -29 136 -60 181 -25 37 -30 41 -89 60 -76 25 -87 7 -32 -53 42 -48 80 -131 65 -146 -5 -5 -22 -11 -37 -12 -59 -5 -238 -36 -248 -44 -5 -4 -43 -11 -83 -14 -89 -9 -174 -26 -266 -55 -93 -29 -99 -28 -93 12 6 34 56 204 81 272 8 22 17 63 21 90 13 105 12 103 46 62 39 -48 139 -82 200 -68 51 12 51 12 36 44 -8 18 -25 29 -55 38 -23 6 -45 16 -48 21 -8 13 25 60 47 65 10 3 19 14 19 24 0 16 -5 18 -27 14 -56 -12 -164 -48 -169 -56 -14 -24 -24 -4 -21 46 1 41 -2 58 -13 65 -21 14 -56 12 -67 -2z" />
<ns0:path d="M680 914 c-19 -9 -71 -33 -115 -54 -115 -54 -303 -109 -325 -95 -17 10 3 43 36 61 19 10 34 26 34 36 0 21 -17 23 -39 4 -9 -7 -47 -24 -85 -36 -97 -32 -136 -56 -136 -86 0 -42 72 -68 180 -67 53 1 157 30 227 63 34 17 67 30 72 30 6 0 11 4 11 10 0 5 17 16 38 25 44 20 44 20 116 69 31 21 56 43 56 47 0 14 -31 10 -70 -7z" />
</ns0:g>
</g><g transform="translate(1.5782532760536583,459.3661257200888) scale(0.031285632952386955)"><ns0:metadata>
Created by potrace 1.16, written by Peter Selinger 2001-2019
</ns0:metadata>
<ns0:g transform="translate(0.000000,212.000000) scale(0.100000,-0.100000)" fill="#000000" stroke="none">
<ns0:path d="M1436 1961 c-11 -12 -25 -70 -41 -177 -14 -87 -27 -164 -29 -171 -8 -21 -37 -261 -44 -364 l-7 -100 -85 -36 c-47 -20 -102 -47 -123 -60 -21 -13 -42 -21 -47 -18 -6 3 -9 34 -9 68 1 39 -5 78 -16 105 -15 36 -16 47 -5 67 7 13 10 31 7 40 -6 13 -15 11 -66 -15 -33 -17 -61 -39 -63 -48 -2 -9 11 -45 29 -80 18 -35 33 -73 33 -84 0 -41 -35 -121 -63 -142 -39 -29 -127 -117 -127 -127 0 -4 5 -19 11 -33 16 -35 56 -42 88 -16 45 36 98 74 127 92 16 10 54 36 84 58 30 22 59 40 63 40 5 0 23 10 40 23 65 46 106 59 108 35 2 -23 -3 -172 -6 -208 -2 -19 -8 -101 -14 -182 -6 -81 -16 -171 -21 -200 -13 -69 -33 -273 -31 -320 1 -26 -6 -45 -24 -66 -14 -16 -25 -33 -25 -36 0 -3 31 -6 68 -6 l68 0 12 70 c7 39 12 101 12 138 1 37 5 87 10 112 14 67 48 408 55 545 10 202 21 223 153 286 85 41 110 63 123 111 9 35 8 41 -13 58 -30 25 -37 25 -47 -2 -13 -33 -49 -64 -102 -86 -26 -11 -50 -25 -53 -31 -4 -6 -14 -11 -22 -11 -13 0 -15 12 -10 78 10 145 17 207 32 292 9 47 19 112 23 145 9 62 37 134 59 148 19 13 15 91 -6 110 -25 23 -85 22 -106 -2z" />
<ns0:path d="M620 1753 c-30 -16 -36 -25 -46 -73 -7 -30 -17 -68 -22 -85 -6 -16 -22 -67 -36 -113 -14 -45 -39 -110 -56 -143 -33 -68 -36 -79 -17 -79 39 0 166 178 193 270 4 14 17 48 30 75 55 120 62 155 29 155 -7 0 -19 2 -27 5 -7 3 -29 -3 -48 -12z" />
<ns0:path d="M1146 1621 c-14 -15 -16 -31 -12 -82 3 -34 10 -67 16 -73 17 -17 60 12 76 52 8 20 19 45 24 54 15 26 12 55 -6 62 -32 12 -81 6 -98 -13z" />
<ns0:path d="M668 1488 c-20 -17 -44 -143 -47 -249 -1 -22 -16 -36 -83 -79 -46 -29 -99 -63 -119 -76 -19 -13 -39 -24 -45 -24 -8 0 -122 -73 -219 -140 -56 -39 -139 -90 -147 -90 -4 0 -8 -32 -8 -72 l0 -71 23 19 c12 11 62 46 112 78 163 106 185 121 185 128 0 3 24 18 53 32 60 30 79 41 127 76 77 55 103 71 108 66 2 -3 -1 -61 -8 -130 l-13 -124 -41 -44 c-23 -23 -67 -77 -97 -118 -31 -41 -73 -96 -95 -121 -21 -25 -44 -55 -51 -65 -7 -10 -28 -43 -48 -73 -39 -59 -43 -76 -18 -85 19 -8 162 136 238 239 70 95 87 116 91 113 2 -2 -1 -35 -7 -73 -5 -39 -16 -125 -24 -193 -8 -67 -22 -152 -31 -188 -19 -76 -12 -94 32 -78 22 7 31 22 50 84 13 41 24 83 24 93 0 10 4 27 10 37 5 10 19 83 30 162 28 190 26 187 55 148 34 -45 57 -59 117 -70 92 -16 137 -19 172 -9 52 14 61 59 11 59 -35 0 -165 49 -200 76 -17 13 -50 26 -73 30 -50 8 -50 5 -27 194 17 143 43 240 65 248 34 13 200 162 200 181 0 25 -29 20 -91 -15 -126 -73 -138 -79 -144 -72 -4 3 -1 41 5 83 10 66 9 79 -4 101 -18 26 -44 31 -68 12z" />
</ns0:g>
</g><g transform="translate(0.7187223123117406,548.4897921857513) scale(0.031285632952386955)"><ns0:metadata>
Created by potrace 1.16, written by Peter Selinger 2001-2019
</ns0:metadata>
<ns0:g transform="translate(0.000000,214.000000) scale(0.100000,-0.100000)" fill="#000000" stroke="none">
<ns0:path d="M2236 1167 c1 -534 -1 -980 -3 -989 -8 -33 -133 -16 -314 42 -51 17 -101 30 -111 30 -30 0 -141 40 -161 58 -18 17 -123 78 -182 107 -16 8 -41 23 -54 33 l-24 19 37 99 c21 54 44 113 51 129 14 28 68 158 121 289 13 33 30 66 37 75 34 40 122 197 124 220 1 14 -1 41 -3 59 -4 26 -10 32 -28 32 -13 0 -29 -7 -36 -15 -7 -8 -18 -15 -26 -15 -7 0 -19 -9 -26 -19 -8 -11 -47 -39 -88 -62 -41 -24 -77 -46 -80 -49 -6 -7 -100 -60 -107 -60 -2 0 -3 69 -3 153 2 154 5 181 43 344 5 20 37 52 121 123 42 36 96 93 96 101 0 12 -30 39 -44 39 -7 0 -27 -12 -44 -27 -34 -32 -99 -73 -113 -73 -17 0 -9 18 16 34 27 17 33 50 13 62 -21 13 -71 4 -93 -16 -12 -11 -26 -20 -33 -20 -20 0 -32 -37 -32 -103 0 -60 -2 -67 -29 -90 -36 -30 -66 -88 -75 -145 l-6 -42 39 6 c38 6 40 5 48 -22 4 -16 7 -112 8 -212 l0 -184 -25 -19 c-24 -19 -56 -46 -143 -120 -65 -55 -85 -119 -48 -153 29 -27 61 -16 83 26 21 41 91 98 119 98 10 0 42 27 71 61 44 51 171 149 192 149 11 0 7 -20 -13 -63 -11 -24 -23 -56 -27 -72 -4 -17 -12 -37 -19 -45 -7 -8 -18 -33 -24 -55 -7 -22 -19 -53 -26 -70 -51 -112 -69 -153 -81 -194 -7 -26 -20 -55 -28 -66 -15 -19 -17 -19 -61 28 -50 52 -86 61 -125 29 -30 -24 -22 -55 25 -112 23 -28 34 -49 29 -59 -11 -29 -9 -46 6 -46 9 0 15 9 14 23 0 15 5 22 18 22 11 0 18 -7 18 -19 0 -31 -56 -145 -78 -158 -28 -17 -37 -61 -16 -84 9 -11 21 -19 26 -19 19 0 99 90 117 133 33 76 42 76 185 5 69 -35 149 -75 178 -90 65 -34 108 -47 173 -55 28 -3 58 -9 67 -14 34 -18 212 -49 279 -49 l69 0 0 -45 0 -45 39 0 c39 0 40 1 46 44 8 52 16 56 128 56 l77 0 0 31 c0 30 -1 31 -47 29 -27 -2 -74 -2 -106 -1 l-58 1 5 608 c3 334 5 762 4 952 0 190 0 362 1 383 l1 37 -42 0 -43 0 1 -973z" />
<ns0:path d="M840 1825 l-23 -25 16 -97 c9 -54 18 -118 19 -143 3 -42 1 -46 -32 -62 -45 -23 -127 -58 -135 -58 -3 0 -19 -10 -35 -22 -23 -16 -30 -30 -30 -54 0 -80 121 -88 194 -13 38 39 56 38 56 -4 0 -18 5 -59 11 -91 13 -72 5 -113 -24 -122 -12 -3 -33 -17 -47 -29 -14 -13 -50 -35 -80 -50 -30 -16 -80 -52 -110 -81 -30 -28 -64 -55 -75 -58 -27 -8 -56 -77 -42 -102 5 -11 11 -20 12 -22 2 -2 20 -5 40 -7 41 -4 97 26 113 61 5 11 25 32 43 48 19 15 61 49 94 76 33 28 65 50 72 50 20 0 26 -108 14 -240 -12 -124 -47 -300 -59 -300 -12 0 -47 64 -49 90 -1 14 -7 43 -12 66 -6 22 -10 75 -9 117 2 92 -13 119 -36 63 -58 -139 -36 -324 55 -448 38 -52 46 -59 73 -56 29 3 32 8 59 88 59 180 73 262 88 500 15 243 16 249 60 292 21 20 45 51 54 68 15 29 15 32 -4 56 -19 24 -20 24 -30 5 -10 -17 -70 -61 -84 -61 -4 0 -6 12 -6 28 1 15 0 68 -1 117 -1 87 0 91 27 112 84 67 134 125 124 141 -8 14 -16 10 -144 -60 -18 -10 -35 -14 -40 -9 -14 14 3 171 19 171 38 0 25 42 -22 70 -47 27 -85 26 -114 -5z" />
</ns0:g>
</g><g transform="translate(-2.65719208633368,649.2181539501312) scale(0.031285632952386955)"><ns0:metadata>
Created by potrace 1.16, written by Peter Selinger 2001-2019
</ns0:metadata>
<ns0:g transform="translate(0.000000,208.000000) scale(0.100000,-0.100000)" fill="#000000" stroke="none">
<ns0:path d="M1363 2056 c-26 -22 -151 -100 -246 -155 -23 -13 -67 -40 -97 -59 -80 -53 -137 -82 -144 -75 -3 4 -6 30 -6 59 0 56 -14 100 -35 108 -7 2 -23 -1 -36 -8 -22 -11 -24 -18 -25 -91 -2 -137 -3 -139 -129 -217 -27 -17 -83 -48 -123 -69 -66 -35 -127 -76 -160 -106 -7 -7 -18 -13 -23 -13 -5 0 -9 -8 -9 -18 0 -10 -7 -27 -15 -38 -8 -10 -15 -26 -15 -34 0 -21 55 -80 74 -80 9 0 32 26 52 58 20 31 53 70 74 85 55 39 162 98 168 93 7 -8 -12 -54 -84 -201 -34 -71 -77 -165 -95 -207 -22 -52 -43 -86 -66 -104 -18 -14 -33 -30 -33 -35 0 -4 -26 -34 -57 -66 -148 -149 -211 -272 -154 -303 29 -15 34 -13 80 23 39 31 64 62 148 187 117 173 204 273 221 256 5 -5 -17 -296 -24 -307 -2 -3 -8 -37 -14 -75 -6 -38 -20 -88 -32 -112 -23 -48 -16 -65 22 -54 62 18 93 64 109 162 22 143 40 285 44 360 6 99 -9 130 -65 130 -40 0 -36 24 21 132 27 51 64 134 81 184 36 103 85 163 166 203 43 21 114 71 152 108 7 7 18 13 23 13 10 0 70 42 97 68 7 6 19 12 26 12 7 0 23 12 37 26 13 14 37 32 52 40 15 9 46 32 68 54 35 34 38 41 29 64 -12 32 -21 32 -57 2z" />
<ns0:path d="M1372 1773 c-158 -153 -227 -214 -278 -246 -24 -15 -44 -31 -44 -35 0 -4 -40 -42 -89 -83 -126 -104 -159 -178 -93 -209 23 -10 29 -9 45 12 50 63 241 248 255 248 14 0 82 72 82 87 0 7 6 13 13 13 8 0 19 10 26 23 11 21 70 62 78 54 2 -2 -3 -33 -11 -68 -24 -104 -49 -432 -42 -540 8 -111 14 -101 -96 -157 -41 -22 -97 -54 -122 -72 -51 -34 -64 -35 -46 -1 6 12 13 50 17 85 5 60 4 66 -22 91 -25 26 -31 27 -90 22 -69 -7 -139 -36 -149 -62 -15 -39 -6 -61 29 -78 46 -22 52 -22 87 8 38 32 62 33 52 3 -10 -34 -77 -138 -126 -198 -33 -41 -35 -63 -8 -90 20 -20 80 -28 80 -10 0 5 17 18 39 29 l38 20 81 -78 c55 -52 97 -84 129 -96 44 -17 126 -58 171 -86 28 -17 51 -5 68 37 14 33 14 59 -2 263 -18 247 -23 540 -12 696 13 176 38 286 94 416 36 84 30 109 -25 109 -10 0 -68 -48 -129 -107z m-48 -990 c4 -43 12 -122 18 -176 13 -121 9 -128 -59 -100 -26 11 -60 23 -74 27 -15 3 -54 26 -87 50 l-61 45 26 46 c14 26 33 49 42 53 9 3 52 34 96 69 44 34 83 63 87 63 3 0 9 -35 12 -77z" />
</ns0:g>
</g><g transform="translate(-1.9249702660126786,729.0566823253421) scale(0.031285632952386955)"><ns0:metadata>
Created by potrace 1.16, written by Peter Selinger 2001-2019
</ns0:metadata>
<ns0:g transform="translate(0.000000,210.000000) scale(0.100000,-0.100000)" fill="#000000" stroke="none">
<ns0:path d="M1369 1882 c-6 -13 -246 -190 -268 -197 -26 -8 -41 1 -41 24 0 27 -24 43 -54 35 -32 -8 -66 -69 -90 -158 -8 -32 -24 -68 -35 -80 -15 -16 -19 -30 -14 -61 3 -27 -6 -87 -30 -185 -19 -80 -45 -190 -57 -245 -12 -55 -27 -116 -33 -135 -6 -19 -12 -82 -13 -140 -2 -102 -14 -185 -34 -225 -6 -11 -21 -69 -34 -130 -13 -60 -30 -125 -37 -143 -19 -45 3 -86 48 -90 26 -3 45 7 96 46 35 27 77 57 93 65 16 9 56 41 89 73 64 60 112 94 134 94 7 0 29 14 48 30 39 35 52 37 84 11 13 -10 69 -42 124 -71 55 -29 116 -63 135 -75 19 -11 54 -27 77 -34 49 -16 73 -5 73 34 0 31 -42 90 -65 91 -11 1 -36 11 -55 22 -19 12 -53 31 -75 43 -49 27 -92 56 -128 88 l-27 25 72 73 c130 132 161 175 148 208 -7 19 -10 17 -41 -16 -19 -20 -59 -51 -89 -69 -30 -18 -68 -45 -85 -59 -16 -15 -50 -42 -74 -60 l-43 -34 -42 23 c-22 13 -43 26 -46 29 -34 41 -116 53 -144 22 -33 -37 -3 -88 65 -110 20 -7 44 -20 53 -29 14 -17 13 -21 -29 -55 -24 -20 -48 -37 -54 -37 -6 0 -15 -9 -21 -20 -6 -11 -48 -47 -93 -81 -99 -74 -101 -70 -63 84 14 56 30 132 35 169 5 37 14 82 20 100 6 18 18 63 27 101 18 72 12 65 146 163 16 12 35 28 41 36 7 8 37 30 67 49 76 47 102 76 90 100 -15 27 -30 32 -48 17 -9 -8 -42 -25 -72 -37 -30 -13 -77 -37 -103 -53 -41 -26 -52 -29 -73 -20 -27 13 -30 32 -13 83 15 43 12 42 41 29 21 -10 31 -7 69 18 24 16 62 41 84 54 22 14 53 37 68 52 15 14 32 26 37 26 13 0 66 52 80 79 10 19 9 26 -4 39 -15 15 -19 15 -49 -2 -17 -10 -43 -29 -57 -41 -27 -23 -219 -119 -226 -112 -2 2 2 23 10 48 8 24 17 55 20 69 8 37 160 190 189 190 6 0 41 21 78 46 38 25 72 44 76 41 16 -10 5 -229 -43 -818 -4 -48 -2 -79 4 -83 15 -9 59 10 71 32 17 32 57 466 77 832 13 230 15 215 -27 218 -21 2 -39 -1 -40 -6z" />
<ns0:path d="M551 1704 c-37 -10 -72 -30 -115 -65 -33 -28 -64 -57 -68 -63 -4 -7 0 -71 7 -144 12 -117 12 -136 -1 -169 -10 -24 -14 -51 -10 -77 11 -73 9 -199 -3 -276 -7 -41 -15 -77 -17 -80 -3 -2 -19 -4 -37 -5 -26 0 -31 -4 -29 -20 2 -11 16 -32 33 -46 l30 -26 -21 -144 c-11 -79 -25 -161 -31 -182 -11 -43 -14 -253 -3 -280 8 -23 37 -22 59 3 13 15 20 47 27 127 5 60 20 169 34 243 13 74 27 166 31 203 4 48 13 78 29 100 12 18 46 73 75 122 29 50 59 96 65 102 33 34 40 198 10 238 -7 9 -30 16 -63 17 -36 2 -53 7 -53 15 0 7 16 37 36 67 44 67 81 173 89 263 9 88 1 96 -74 77z m-11 -554 c0 -21 -42 -120 -51 -120 -18 0 -3 112 16 127 18 13 35 9 35 -7z" />
</ns0:g>
</g><g transform="translate(-2.100416232530222,820.2508749617532) scale(0.031285632952386955)"><ns0:metadata>
Created by potrace 1.16, written by Peter Selinger 2001-2019
</ns0:metadata>
<ns0:g transform="translate(0.000000,207.000000) scale(0.100000,-0.100000)" fill="#000000" stroke="none">
<ns0:path d="M1005 1928 c-21 -24 -57 -83 -82 -133 -24 -49 -57 -115 -74 -145 -17 -30 -58 -113 -91 -185 -33 -71 -77 -155 -96 -185 -38 -59 -112 -200 -112 -213 0 -5 -11 -23 -25 -41 -14 -18 -25 -37 -25 -43 0 -6 -20 -41 -45 -79 -25 -37 -45 -72 -45 -77 0 -4 -12 -33 -27 -63 -25 -51 -26 -56 -10 -72 20 -19 43 -10 61 24 24 45 81 133 117 180 21 28 68 107 103 177 35 69 78 145 94 169 16 24 48 81 71 128 24 47 51 99 61 115 10 17 21 40 24 52 9 28 69 129 94 157 11 12 36 49 56 84 21 34 50 69 66 77 53 27 40 80 -26 105 -41 16 -50 12 -89 -32z" />
<ns0:path d="M1188 1549 c-21 -11 -25 -79 -6 -79 6 0 19 -6 27 -14 9 -8 41 -24 71 -36 30 -12 65 -31 76 -42 27 -24 77 -21 82 5 4 18 -18 42 -125 140 -43 39 -88 48 -125 26z" />
<ns0:path d="M1040 1183 c-8 -2 -24 -8 -35 -13 -11 -5 -32 -11 -46 -14 -25 -5 -26 -8 -32 -105 -12 -179 -73 -380 -151 -496 -100 -149 -130 -187 -181 -231 -50 -44 -53 -48 -43 -75 6 -16 23 -36 38 -44 31 -16 37 -12 119 63 35 32 117 77 178 97 29 9 55 21 58 26 4 5 17 9 30 9 13 0 27 5 30 10 3 6 17 10 29 10 13 0 29 6 36 14 6 8 17 13 25 10 7 -3 27 2 44 10 16 9 37 16 46 16 9 0 44 13 78 29 54 25 113 45 140 46 4 0 18 -29 31 -65 38 -109 55 -142 68 -138 23 8 29 115 13 213 -8 50 -17 137 -19 194 -3 57 -6 104 -8 105 -68 48 -108 54 -142 21 -15 -15 -13 -59 3 -80 9 -11 41 -136 41 -158 0 -9 -16 -16 -45 -20 -25 -4 -63 -16 -85 -27 -21 -11 -47 -20 -57 -20 -16 0 -128 -32 -281 -81 -35 -11 -66 -18 -69 -15 -3 3 13 33 36 68 22 35 41 70 41 78 0 8 7 28 15 43 8 16 29 94 46 175 17 81 35 155 40 164 5 10 9 30 9 44 0 14 11 39 25 56 27 32 32 57 13 76 -13 13 -15 13 -38 5z" />
</ns0:g>
</g><g transform="translate(-1.9580737600385874,908.4682089793521) scale(0.031285632952386955)"><ns0:metadata>
Created by potrace 1.16, written by Peter Selinger 2001-2019
</ns0:metadata>
<ns0:g transform="translate(0.000000,209.000000) scale(0.100000,-0.100000)" fill="#000000" stroke="none">
<ns0:path d="M1199 2057 c-116 -67 -156 -91 -219 -132 -36 -23 -101 -61 -145 -84 -44 -24 -84 -49 -88 -57 -4 -8 -12 -14 -18 -14 -19 0 -136 -59 -149 -75 -8 -10 -39 -28 -70 -41 -85 -38 -113 -91 -71 -133 16 -16 30 -19 72 -15 57 5 89 18 89 37 0 17 87 107 103 107 8 0 26 11 40 24 26 24 35 30 132 80 28 15 66 38 85 51 61 44 111 75 120 75 4 0 20 14 33 30 14 17 32 30 40 30 8 0 20 7 27 15 7 8 18 15 26 15 7 0 20 7 29 16 9 9 18 14 21 11 7 -7 -28 -158 -65 -282 -17 -55 -33 -116 -36 -135 -3 -19 -12 -64 -20 -100 -32 -136 -52 -265 -60 -393 -3 -42 -11 -96 -19 -120 -35 -110 -49 -277 -35 -405 6 -51 9 -95 6 -99 -3 -3 -21 6 -39 20 -60 45 -94 57 -160 57 -81 0 -110 -8 -106 -29 2 -11 22 -19 68 -26 36 -6 75 -16 86 -23 33 -18 100 -102 128 -162 15 -30 31 -62 36 -70 5 -8 17 -32 26 -53 21 -48 57 -68 81 -45 21 22 28 102 14 180 -6 34 -18 131 -26 213 -19 173 -15 261 21 444 13 69 24 137 24 152 0 135 130 698 187 813 14 27 27 73 30 102 l6 54 -74 0 c-65 -1 -81 -5 -130 -33z" />
<ns0:path d="M1055 1615 c-16 -8 -61 -28 -100 -45 -38 -18 -87 -44 -110 -59 -22 -15 -52 -32 -66 -38 -15 -6 -42 -25 -60 -41 -19 -16 -54 -40 -79 -52 -91 -47 -144 -137 -105 -180 14 -16 31 -20 81 -20 34 0 69 3 78 6 21 8 21 60 0 72 -24 13 35 67 206 189 14 10 61 36 104 58 92 46 136 81 136 107 0 22 -40 24 -85 3z" />
<ns0:path d="M588 1004 c-38 -20 -41 -53 -7 -90 19 -20 19 -21 -1 -39 -11 -10 -20 -24 -20 -30 0 -7 -7 -18 -15 -25 -8 -7 -15 -21 -15 -31 0 -11 -4 -19 -9 -19 -29 0 -75 -236 -52 -264 26 -31 63 -26 151 21 154 84 310 264 310 360 0 42 -34 69 -101 82 -31 5 -82 19 -115 30 -69 25 -89 25 -126 5z m182 -114 c25 -6 55 -12 66 -15 12 -3 24 -12 28 -20 9 -25 -28 -88 -76 -128 -24 -20 -51 -43 -60 -51 -27 -23 -75 -46 -97 -46 -11 0 -23 -5 -26 -10 -4 -6 -11 -7 -17 -4 -11 7 -4 74 12 102 5 9 21 46 36 82 44 104 50 108 134 90z" />
</ns0:g>
</g></svg>