<?xml version='1.0' encoding='utf-8'?>
<svg xmlns:ns0="http://www.w3.org/2000/svg" xmlns="http://www.w3.org/2000/svg" width="221" height="122" viewBox="0 0 221 122"><g transform="translate(0.5337910715311409,-65.04464445953005) scale(0.029288044292103407)"><ns0:metadata>
Created by potrace 1.16, written by Peter Selinger 2001-2019
</ns0:metadata>
<ns0:g transform="translate(0.000000,211.000000) scale(0.100000,-0.100000)" fill="#000000" stroke="none">
<ns0:path d="M1457 2097 c-3 -7 -10 -55 -17 -107 -21 -162 -20 -160 -109 -223 -43 -32 -94 -71 -112 -87 -56 -49 -59 -44 -55 83 4 120 17 171 47 188 26 13 24 28 -8 61 -32 34 -74 37 -102 7 -42 -45 -47 -118 -42 -585 l4 -282 -42 -44 c-22 -25 -41 -52 -41 -60 0 -8 -4 -18 -8 -23 -14 -16 -32 -90 -32 -132 0 -22 -6 -62 -14 -89 -20 -66 -28 -137 -19 -150 4 -6 18 -16 31 -23 25 -13 25 -30 -1 -172 -10 -58 -11 -85 -3 -109 14 -43 49 -57 76 -30 28 28 61 144 54 191 -4 21 -3 69 1 106 7 64 9 70 59 118 52 52 185 150 193 142 2 -3 -1 -33 -6 -68 -6 -35 -13 -99 -17 -141 -6 -86 -15 -94 -54 -53 -26 27 -46 32 -53 13 -6 -19 21 -90 45 -115 20 -21 20 -26 9 -80 -24 -111 -38 -257 -29 -290 10 -37 43 -52 77 -34 25 14 28 27 35 159 7 110 18 147 42 138 43 -16 132 -17 173 0 61 24 93 77 201 334 29 69 59 141 67 160 29 66 83 229 89 269 4 22 3 52 0 66 -7 28 -51 51 -70 37 -6 -5 -25 -12 -42 -15 -27 -5 -205 -84 -266 -117 -16 -9 -48 -14 -48 -7 0 1 7 40 16 87 8 47 16 92 18 100 1 8 8 25 14 37 7 12 12 28 12 35 0 8 14 27 30 43 37 35 39 62 5 71 -36 9 -49 38 -31 66 8 13 17 43 21 68 14 85 47 166 106 255 59 90 73 137 44 149 -22 8 -45 -3 -92 -46 -24 -21 -47 -38 -53 -38 -19 0 0 103 21 119 33 24 21 31 -50 31 -47 0 -70 -4 -74 -13z m-41 -531 c-7 -121 -7 -121 -39 -149 -18 -15 -54 -34 -81 -42 -27 -8 -64 -26 -82 -40 -18 -14 -35 -25 -38 -25 -3 0 -6 31 -6 69 0 80 23 142 66 182 65 60 169 137 177 132 6 -3 7 -56 3 -127z m-45 -395 c-7 -47 -14 -100 -17 -118 -4 -25 -16 -40 -61 -70 -67 -46 -173 -113 -179 -113 -10 0 -3 66 15 142 11 46 25 122 32 170 l12 87 28 -19 c34 -25 51 -25 119 3 30 13 57 18 59 13 2 -5 -2 -48 -8 -95z m429 3 c0 -9 -13 -46 -30 -84 -16 -38 -30 -71 -30 -75 0 -3 -9 -25 -19 -48 -10 -23 -31 -73 -46 -112 -47 -121 -128 -295 -136 -295 -5 0 -9 -6 -9 -13 0 -27 -39 -50 -85 -50 -58 0 -76 15 -65 54 5 17 14 74 19 127 16 140 50 284 72 301 11 7 19 21 19 30 0 16 6 21 66 51 16 8 31 17 34 20 23 26 171 108 198 109 6 1 12 -6 12 -15z" />
<ns0:path d="M840 1946 c-30 -17 -52 -80 -69 -193 -6 -40 -22 -105 -35 -145 -40 -121 -58 -172 -67 -190 -5 -10 -9 -27 -9 -38 0 -10 -24 -68 -54 -127 -30 -59 -57 -119 -61 -133 -4 -14 -17 -35 -28 -47 -11 -13 -21 -31 -22 -40 -3 -36 -18 -77 -59 -168 -27 -59 -85 -144 -97 -145 -4 0 -10 12 -13 26 -10 39 -31 23 -30 -24 1 -49 17 -72 51 -72 18 0 45 20 94 70 38 39 69 75 69 80 0 16 71 164 87 182 14 15 18 16 43 3 15 -8 34 -24 42 -37 24 -37 49 -154 49 -229 0 -126 -22 -363 -37 -412 -17 -56 -8 -77 35 -77 41 0 51 12 66 76 14 62 35 318 35 433 0 139 -51 247 -142 304 -59 37 -59 39 9 172 25 50 56 128 70 174 14 47 35 105 47 130 25 49 51 145 61 226 4 28 16 78 28 113 17 47 19 66 11 80 -14 22 -43 25 -74 8z" />
</ns0:g>
</g><g transform="translate(-1.9679854769948406,23.006774632035842) scale(0.029288044292103407)"><ns0:metadata>
Created by potrace 1.16, written by Peter Selinger 2001-2019
</ns0:metadata>
<ns0:g transform="translate(0.000000,213.000000) scale(0.100000,-0.100000)" fill="#000000" stroke="none">
<ns0:path d="M1163 1748 c-24 -26 -25 -52 -4 -218 15 -121 13 -352 -4 -430 -7 -36 -26 -134 -42 -218 l-28 -153 -65 -43 c-36 -24 -85 -56 -109 -72 -157 -105 -165 -102 -141 40 6 33 14 136 18 227 l8 167 38 46 c27 33 36 54 34 73 -3 25 -6 28 -36 25 -36 -4 -91 -33 -129 -68 -25 -23 -25 -24 -27 -246 -2 -228 -13 -313 -54 -430 -15 -46 -15 -49 5 -75 26 -35 56 -40 81 -13 18 20 47 38 127 79 40 21 71 43 157 113 67 55 71 57 93 42 34 -22 57 -6 100 70 24 44 44 67 63 74 37 13 127 96 119 109 -9 14 -82 -3 -119 -29 -14 -10 -29 -18 -33 -18 -9 0 0 98 14 161 43 189 52 275 44 420 -4 79 -8 177 -8 218 0 70 1 74 33 100 52 44 46 51 -68 66 -39 6 -48 3 -67 -17z" />
<ns0:path d="M1454 1360 c-24 -9 -38 -51 -29 -81 4 -10 2 -52 -4 -92 -6 -39 -13 -127 -16 -195 -3 -68 -10 -155 -15 -195 -5 -40 -11 -119 -14 -177 -3 -58 -8 -118 -11 -135 -6 -30 -12 -74 -14 -108 0 -9 -10 -25 -21 -34 -31 -27 -26 -53 9 -53 43 0 89 30 100 65 12 38 28 150 41 290 15 160 36 316 56 432 16 87 17 112 6 172 -19 115 -34 133 -88 111z" />
</ns0:g>
</g><g transform="translate(0.06650749048901616,101.22085454178938) scale(0.029288044292103407)"><ns0:metadata>
Created by potrace 1.16, written by Peter Selinger 2001-2019
</ns0:metadata>
<ns0:g transform="translate(0.000000,209.000000) scale(0.100000,-0.100000)" fill="#000000" stroke="none">
<ns0:path d="M1465 1968 c-33 -10 -96 -30 -140 -44 -44 -14 -91 -32 -103 -41 -25 -16 -97 -42 -201 -73 -78 -24 -210 -78 -231 -94 -8 -7 -44 -23 -80 -35 -36 -12 -101 -40 -145 -61 -44 -21 -142 -68 -217 -105 -80 -38 -142 -74 -148 -86 -17 -30 -8 -60 23 -83 26 -19 30 -19 85 -6 38 10 60 22 66 35 9 20 69 65 87 65 5 0 30 15 56 34 72 52 266 136 280 122 3 -3 1 -38 -5 -78 -6 -40 -14 -106 -18 -146 -8 -90 -35 -129 -95 -138 -21 -4 -39 -11 -39 -16 0 -5 -29 -23 -65 -39 -36 -17 -73 -41 -83 -54 -10 -13 -29 -25 -42 -27 -48 -7 -59 -40 -70 -218 -5 -91 -17 -212 -26 -268 -11 -72 -13 -107 -6 -114 14 -14 42 -3 42 17 0 8 11 32 23 53 23 35 39 91 52 177 3 22 12 78 20 125 8 47 17 102 20 123 5 29 10 37 21 33 9 -3 30 2 47 11 31 16 49 27 113 71 18 11 44 24 59 28 23 6 26 4 22 -12 -3 -11 -9 -46 -12 -79 -4 -33 -12 -96 -20 -140 -7 -44 -17 -120 -20 -170 -4 -49 -9 -93 -12 -97 -2 -5 -6 -52 -9 -105 -3 -54 -12 -147 -20 -208 -23 -168 -28 -235 -17 -235 12 0 48 65 61 110 6 19 19 60 31 90 11 31 27 119 35 195 26 226 30 233 94 157 40 -48 152 -122 184 -122 9 0 34 -14 54 -32 28 -25 39 -29 52 -21 32 19 46 67 53 188 11 164 16 199 54 360 19 77 37 156 40 175 4 19 20 64 36 99 16 35 29 69 29 75 0 6 22 43 48 83 97 149 102 158 102 207 0 66 -33 71 -95 16 -11 -10 -37 -27 -57 -39 -91 -51 -115 -65 -153 -90 -22 -15 -69 -42 -104 -61 -71 -36 -121 -67 -163 -100 -32 -25 -52 -18 -44 14 3 13 6 78 7 145 2 137 1 135 84 161 22 7 49 19 60 26 11 7 46 17 77 24 32 6 60 15 62 19 3 5 27 16 53 26 26 10 55 23 63 30 8 7 38 18 65 25 28 7 67 21 87 32 21 10 47 18 58 18 61 0 104 57 61 80 -26 14 -55 11 -126 -12z m-655 -298 c0 -5 -4 -10 -10 -10 -5 0 -10 5 -10 10 0 6 5 10 10 10 6 0 10 -4 10 -10z m495 -227 c-3 -16 -21 -59 -40 -98 -30 -65 -65 -186 -80 -280 -3 -22 -12 -58 -20 -80 -21 -64 -45 -226 -45 -310 l0 -77 -37 7 c-78 14 -168 78 -197 139 -9 18 -22 65 -31 104 -13 64 -13 81 5 201 10 72 24 139 29 150 12 21 99 101 111 101 4 0 52 27 106 60 54 33 102 60 106 60 4 0 24 11 44 25 47 32 58 32 49 -2z" />
<ns0:path d="M510 1920 c-38 -38 -27 -76 41 -141 67 -64 93 -72 111 -34 9 19 7 34 -6 68 -9 23 -16 52 -16 64 0 28 -45 63 -81 63 -16 0 -38 -9 -49 -20z" />
</ns0:g>
</g><g transform="translate(-0.6328363024462078,183.68576551573432) scale(0.029288044292103407)"><ns0:metadata>
Created by potrace 1.16, written by Peter Selinger 2001-2019
</ns0:metadata>
<ns0:g transform="translate(0.000000,204.000000) scale(0.100000,-0.100000)" fill="#000000" stroke="none">
<ns0:path d="M1475 2030 c-4 -6 -24 -19 -45 -30 -22 -11 -54 -33 -72 -49 -18 -16 -55 -41 -83 -56 -27 -15 -64 -40 -80 -56 -17 -16 -36 -29 -41 -29 -6 0 -19 -10 -30 -21 -23 -26 -142 -109 -156 -109 -18 0 -6 42 22 73 16 19 30 46 30 59 0 24 -1 25 -74 22 -80 -3 -146 -24 -146 -47 0 -29 22 -77 36 -77 7 0 21 -14 30 -32 15 -29 15 -33 0 -60 -10 -15 -31 -43 -47 -61 -36 -39 -34 -65 9 -90 l32 -19 58 59 c31 32 70 64 85 71 38 16 137 90 137 102 0 6 7 10 15 10 8 0 19 8 24 18 5 9 42 37 81 62 38 25 94 64 123 88 58 48 70 41 41 -25 -9 -21 -20 -54 -25 -73 -30 -132 -45 -175 -64 -185 -42 -21 -112 -75 -150 -115 -37 -39 -116 -100 -129 -100 -3 0 -6 10 -6 23 0 14 11 28 31 39 19 12 29 24 27 35 -3 15 -15 18 -73 18 -39 0 -80 -5 -91 -12 -20 -11 -21 -18 -16 -102 l5 -89 -49 -26 c-27 -14 -67 -39 -89 -56 -22 -16 -51 -35 -65 -42 -43 -21 -60 -40 -60 -69 0 -58 85 -79 138 -34 17 14 35 25 41 25 16 0 13 -40 -7 -85 -10 -22 -27 -67 -37 -100 -10 -33 -31 -80 -45 -105 -15 -25 -39 -77 -54 -116 -15 -39 -45 -95 -66 -125 -22 -29 -40 -57 -40 -62 0 -6 -11 -25 -25 -43 -33 -43 -32 -77 2 -99 20 -14 30 -15 42 -7 42 30 82 44 107 38 14 -4 40 -2 57 4 18 5 70 21 117 35 102 29 248 80 274 96 26 15 32 2 40 -85 20 -220 36 -318 53 -323 26 -9 33 43 39 284 4 136 10 252 15 258 5 5 9 21 9 36 0 57 13 89 41 106 32 19 37 44 14 63 -22 19 -144 9 -160 -13 -6 -9 -15 -64 -18 -123 -3 -58 -8 -108 -9 -110 -2 -2 -44 -10 -93 -19 -50 -8 -114 -20 -144 -26 -29 -5 -55 -8 -58 -5 -3 2 13 40 35 83 78 156 121 307 102 358 -9 25 -14 27 -45 22 -43 -7 -44 1 -7 100 29 78 87 153 157 205 22 16 75 63 118 104 42 42 77 72 77 68 0 -4 -9 -59 -19 -123 -24 -144 -34 -268 -22 -276 22 -13 38 11 55 77 9 40 23 79 30 88 12 14 35 109 66 280 19 104 89 322 115 362 14 21 25 40 25 44 0 3 16 24 35 47 19 22 35 44 35 49 0 12 -178 10 -185 -2z" />
<ns0:path d="M567 1279 c-20 -15 -25 -28 -26 -66 0 -27 -5 -88 -10 -138 -6 -49 -11 -114 -11 -143 0 -45 3 -53 17 -50 10 2 32 30 49 63 25 46 33 73 33 116 1 61 22 133 47 160 9 10 14 30 12 46 -3 25 -7 28 -45 30 -28 1 -50 -4 -66 -18z" />
</ns0:g>
</g><g transform="translate(-1.3859300458282178,273.2481370901481) scale(0.029288044292103407)"><ns0:metadata>
Created by potrace 1.16, written by Peter Selinger 2001-2019
</ns0:metadata>
<ns0:g transform="translate(0.000000,218.000000) scale(0.100000,-0.100000)" fill="#000000" stroke="none">
<ns0:path d="M1215 1939 c-37 -21 -100 -63 -125 -85 -38 -32 -162 -115 -167 -110 -2 2 1 43 8 91 13 94 9 105 -37 105 -46 0 -71 -52 -97 -202 -7 -36 -15 -70 -19 -74 -5 -4 -8 -15 -8 -25 0 -12 -26 -33 -77 -63 -143 -82 -159 -107 -104 -160 26 -25 33 -27 76 -20 47 7 48 6 42 -17 -3 -13 -15 -49 -26 -79 -12 -30 -26 -73 -30 -95 -5 -22 -32 -105 -61 -185 -58 -160 -135 -393 -152 -455 -5 -22 -14 -50 -19 -63 -15 -38 -11 -62 10 -62 30 0 85 70 110 140 13 36 40 112 61 170 45 127 84 240 101 297 6 24 23 60 36 80 l24 38 -6 -55 c-3 -30 -8 -159 -11 -286 -6 -228 -6 -232 20 -322 14 -50 26 -96 26 -103 0 -7 12 -30 26 -51 26 -37 56 -49 70 -27 10 16 25 78 29 119 2 19 9 62 14 95 6 33 20 125 31 205 33 224 88 493 119 583 16 45 41 116 55 157 15 41 31 84 36 95 4 11 11 32 14 46 3 15 21 50 40 78 42 62 60 112 61 174 2 68 -23 91 -70 66z m-100 -221 c-4 -18 -15 -49 -25 -68 -9 -19 -27 -71 -39 -114 -12 -44 -32 -100 -43 -125 -12 -25 -31 -83 -44 -128 -12 -46 -25 -87 -28 -92 -3 -5 -19 -89 -35 -188 -44 -267 -40 -240 -62 -438 0 -5 -7 13 -15 40 -34 125 -40 537 -10 680 14 68 18 86 49 207 23 93 81 162 181 213 31 16 60 33 62 37 11 18 15 6 9 -24z" />
<ns0:path d="M1565 1479 c-44 -4 -97 -12 -119 -19 -45 -14 -86 -51 -86 -78 0 -31 58 -70 76 -52 14 13 116 52 149 57 75 10 70 14 68 -53 -1 -64 -28 -131 -75 -190 -13 -16 -34 -50 -48 -76 -13 -27 -30 -48 -37 -48 -7 0 -13 -5 -13 -11 0 -5 -18 -29 -39 -52 -84 -90 -141 -163 -141 -179 0 -18 50 -58 73 -58 20 0 64 43 118 115 24 32 62 75 84 95 72 65 76 70 70 91 -4 12 2 34 16 57 27 47 66 148 86 229 14 54 14 67 2 99 -14 38 -49 69 -84 76 -11 3 -56 1 -100 -3z" />
<ns0:path d="M1151 1304 c-21 -15 -22 -21 -16 -73 11 -104 8 -195 -10 -268 -10 -40 -14 -80 -11 -90 6 -16 11 -14 37 17 63 74 76 109 89 225 6 61 17 125 23 143 10 30 9 36 -8 48 -25 19 -75 18 -104 -2z" />
</ns0:g>
</g><g transform="translate(2.2557749223554993,347.28332641453216) scale(0.029288044292103407)"><ns0:metadata>
Created by potrace 1.16, written by Peter Selinger 2001-2019
</ns0:metadata>
<ns0:g transform="translate(0.000000,210.000000) scale(0.100000,-0.100000)" fill="#000000" stroke="none">
<ns0:path d="M1276 1925 c-41 -36 -79 -65 -85 -65 -6 0 -26 -14 -46 -31 -29 -26 -35 -38 -35 -71 0 -35 -8 -50 -54 -102 -47 -54 -54 -69 -64 -126 -6 -36 -20 -117 -32 -180 -11 -63 -20 -123 -20 -133 0 -10 -11 -38 -25 -63 -20 -35 -23 -49 -15 -65 22 -39 -4 -183 -63 -354 -11 -33 -28 -71 -38 -85 -9 -14 -19 -34 -22 -45 -3 -12 -5 -7 -4 12 1 19 -9 46 -26 70 -15 22 -28 53 -28 69 -2 79 9 206 20 217 18 18 13 44 -10 50 -25 7 -113 -18 -127 -36 -6 -7 -8 -54 -5 -122 3 -60 6 -153 7 -205 l1 -95 -122 -80 c-130 -86 -144 -104 -103 -145 30 -30 57 -24 109 23 48 42 98 74 105 66 2 -2 -1 -28 -7 -56 -10 -48 -9 -55 11 -82 l21 -29 -31 -73 c-33 -81 -62 -119 -89 -119 -16 0 -49 -45 -49 -65 0 -3 34 -5 76 -3 l77 3 38 64 c22 34 39 68 39 74 0 6 23 51 50 99 28 48 50 90 50 93 0 2 14 33 31 67 83 167 172 442 200 613 12 78 16 86 32 79 33 -12 57 -80 57 -157 0 -71 -2 -77 -27 -96 -79 -58 -92 -92 -43 -110 27 -9 40 -5 110 31 44 22 86 51 95 64 8 13 22 24 30 24 18 0 18 5 1 -83 -13 -65 -41 -232 -49 -297 -2 -17 -7 -5 -16 35 -26 118 -41 145 -80 145 -29 0 -49 -18 -69 -64 -16 -37 -8 -44 26 -24 l28 17 18 -82 c10 -45 24 -111 32 -147 9 -36 21 -109 29 -163 7 -54 19 -105 26 -113 8 -10 25 -14 48 -12 32 3 36 7 39 33 2 17 7 34 12 38 4 5 5 57 3 115 -6 120 29 414 62 537 8 28 20 73 28 101 15 52 39 97 68 126 16 16 17 15 23 -17 7 -37 22 -53 37 -38 16 16 50 156 64 268 22 172 33 223 66 320 17 50 34 108 39 130 17 81 -32 101 -92 38 -43 -46 -69 -67 -100 -84 -12 -7 -37 -26 -54 -43 -17 -17 -57 -53 -89 -81 -32 -27 -84 -74 -116 -103 l-58 -54 12 37 c6 21 22 50 37 65 14 15 47 72 74 126 27 55 60 109 74 122 44 41 13 128 -41 114 -12 -2 -28 -9 -35 -15 -16 -13 -84 -155 -106 -224 -10 -29 -22 -55 -27 -58 -5 -4 -9 -13 -9 -20 0 -8 -11 -38 -24 -67 -59 -129 -76 -172 -76 -189 0 -11 -4 -19 -10 -19 -5 0 -10 10 -10 23 0 23 22 161 41 257 11 55 55 165 74 187 5 6 38 42 73 80 92 100 95 104 115 146 39 89 15 92 -77 12z m260 -430 c-4 -14 -9 -46 -13 -73 -8 -64 -17 -78 -59 -92 -43 -15 -149 -88 -215 -151 -54 -51 -64 -90 -30 -109 45 -24 86 -7 114 46 9 17 37 48 64 69 26 22 51 45 56 52 16 25 39 43 49 37 10 -6 6 -79 -8 -161 -5 -27 -9 -30 -23 -21 -33 21 -91 -3 -125 -50 -29 -41 -139 -142 -154 -142 -4 0 -6 36 -4 79 3 59 0 88 -12 112 -32 64 -33 62 197 297 130 131 177 162 163 107z" />
<ns0:path d="M706 1564 c-9 -8 -16 -24 -16 -34 0 -19 4 -24 49 -59 14 -10 30 -36 36 -57 22 -80 85 -39 71 46 -3 23 -2 49 4 60 8 14 8 26 0 40 -9 17 -21 20 -70 20 -40 0 -64 -5 -74 -16z" />
<ns0:path d="M1407 589 c-15 -9 -17 -22 -15 -91 3 -85 14 -103 53 -88 31 11 42 30 48 79 6 49 -11 94 -38 105 -22 8 -27 7 -48 -5z" />
</ns0:g>
</g><g transform="translate(1.1493484032416745,429.64081705931983) scale(0.029288044292103407)"><ns0:metadata>
Created by potrace 1.16, written by Peter Selinger 2001-2019
</ns0:metadata>
<ns0:g transform="translate(0.000000,205.000000) scale(0.100000,-0.100000)" fill="#000000" stroke="none">
<ns0:path d="M653 1874 c-16 -7 -17 -46 -2 -61 21 -21 49 -223 42 -307 l-6 -78 -41 -20 c-73 -35 -84 -43 -126 -99 -48 -64 -56 -90 -41 -127 6 -15 10 -39 9 -52 -2 -14 2 -25 9 -25 10 0 63 68 63 82 0 14 61 80 90 97 l33 19 -7 -59 c-15 -121 -20 -132 -80 -149 -30 -9 -60 -22 -66 -30 -21 -25 -2 -69 45 -105 35 -27 44 -42 44 -65 1 -53 -23 -121 -54 -156 -30 -34 -46 -47 -117 -94 -45 -30 -48 -56 -12 -90 32 -29 37 -30 58 -9 9 8 23 14 32 12 13 -3 16 -28 17 -173 2 -153 4 -174 23 -210 21 -38 99 -105 124 -105 6 0 24 -7 40 -15 41 -21 127 -30 287 -29 97 0 161 6 200 17 32 8 89 21 126 27 38 7 106 28 150 47 45 20 98 41 117 48 33 12 35 16 40 72 6 58 -5 95 -46 163 -8 14 -20 37 -25 53 -6 15 -15 27 -20 27 -5 0 -13 8 -17 18 -15 37 -77 122 -87 119 -18 -6 -17 -46 4 -102 12 -31 21 -66 21 -78 0 -12 7 -35 16 -52 26 -48 42 -111 33 -127 -15 -27 -147 -79 -237 -94 -259 -43 -431 -44 -522 -2 -30 13 -70 41 -88 62 -29 33 -32 44 -34 104 -4 141 0 180 27 240 25 56 29 60 80 76 30 9 57 21 60 26 11 18 34 10 41 -12 8 -26 51 -86 74 -105 26 -21 55 -14 88 20 18 18 32 38 32 44 0 6 6 16 14 22 21 18 57 298 71 566 3 50 10 133 15 185 13 127 16 223 6 238 -8 14 -42 16 -50 3 -3 -4 -27 -16 -53 -26 -26 -10 -55 -24 -64 -31 -8 -8 -54 -29 -101 -48 l-85 -33 -5 137 c-5 127 -7 141 -34 191 -26 48 -33 54 -64 56 -19 1 -41 0 -47 -3z m107 -258 c0 -3 -4 -8 -10 -11 -5 -3 -10 -1 -10 4 0 6 5 11 10 11 6 0 10 -2 10 -4z m297 -153 c-8 -37 -25 -227 -40 -443 l-12 -175 -24 3 c-13 2 -50 -11 -83 -28 -32 -17 -65 -30 -71 -27 -7 3 -21 21 -32 41 l-20 36 25 48 c14 26 30 53 37 60 24 24 15 68 -18 96 -17 14 -34 26 -39 26 -18 0 -18 34 1 142 12 66 27 120 37 131 15 17 26 23 122 65 25 11 54 27 65 36 11 8 28 16 39 16 15 0 17 -5 13 -27z m-289 -690 c2 -15 -4 -23 -18 -28 -28 -9 -32 -3 -24 29 8 32 37 32 42 -1z m232 -13 c0 -22 -4 -48 -9 -58 -5 -9 -13 -35 -18 -56 -10 -51 -26 -55 -63 -18 -45 46 -41 81 14 116 25 15 47 34 50 42 11 28 26 13 26 -26z" />
<ns0:path d="M300 1234 c-15 -38 -12 -82 11 -149 39 -118 45 -160 48 -332 1 -40 5 -53 16 -53 20 0 35 31 52 109 17 77 17 122 3 246 -24 194 -29 205 -91 205 -22 0 -32 -6 -39 -26z" />
</ns0:g>
</g><g transform="translate(-1.4279339130548578,512.530090986249) scale(0.029288044292103407)"><ns0:metadata>
Created by potrace 1.16, written by Peter Selinger 2001-2019
</ns0:metadata>
<ns0:g transform="translate(0.000000,205.000000) scale(0.100000,-0.100000)" fill="#000000" stroke="none">
<ns0:path d="M1227 1963 c-25 -13 -67 -81 -67 -110 0 -7 -7 -33 -15 -58 -31 -90 11 -77 59 19 39 78 98 88 131 24 18 -37 19 -49 3 -100 -8 -29 -18 -40 -37 -45 -41 -9 -61 -33 -61 -70 0 -27 -10 -43 -54 -86 -30 -28 -73 -65 -95 -80 -24 -17 -41 -36 -41 -48 0 -26 10 -24 56 11 21 16 44 30 49 30 6 1 32 18 60 39 l49 38 23 -34 c25 -37 30 -73 11 -73 -7 0 -23 -10 -37 -23 -15 -13 -55 -36 -91 -52 -36 -15 -97 -45 -136 -66 -39 -22 -74 -39 -77 -39 -17 0 -4 25 33 68 22 25 39 50 37 56 -6 18 -68 17 -121 -2 l-49 -17 -28 -99 c-20 -70 -35 -103 -51 -115 -30 -22 -137 -83 -230 -131 -42 -22 -79 -44 -83 -50 -4 -6 -37 -26 -73 -46 -105 -55 -140 -78 -183 -120 -48 -47 -53 -89 -13 -104 54 -21 68 -15 154 63 14 13 39 32 55 42 17 11 40 28 51 40 12 11 74 47 138 79 64 33 121 66 126 75 32 54 -32 -214 -73 -309 -9 -19 -22 -51 -30 -70 -27 -62 -31 -90 -13 -90 9 0 16 3 16 8 0 4 17 25 38 47 21 22 42 52 45 67 4 15 20 36 35 47 20 14 34 38 47 80 l18 60 146 -1 c150 -1 161 0 244 9 42 4 48 8 45 26 -4 30 -70 47 -193 51 -120 4 -181 14 -195 32 -8 9 -8 23 2 51 28 78 75 128 162 168 17 8 45 24 61 35 17 11 37 22 45 26 8 3 33 14 56 25 23 10 46 19 51 19 5 0 35 18 67 40 31 22 71 42 89 45 17 4 38 12 47 18 26 22 97 57 114 57 9 0 16 -8 16 -20 0 -14 -19 -32 -61 -57 -34 -21 -74 -48 -90 -61 -15 -12 -45 -28 -66 -36 -22 -7 -39 -21 -42 -31 -3 -15 2 -17 30 -11 63 12 151 61 216 119 24 20 47 37 53 37 22 0 50 41 50 73 0 65 -50 80 -168 51 -78 -20 -85 -15 -108 74 l-16 62 35 42 c29 36 36 54 42 111 9 86 -14 139 -77 179 -47 29 -87 32 -131 11z" />
<ns0:path d="M1000 1863 c-13 -16 -18 -33 -13 -42 12 -28 16 -320 4 -335 -6 -7 -9 -21 -5 -30 20 -52 94 41 105 134 11 84 10 245 -1 274 -13 36 -61 36 -90 -1z" />
<ns0:path d="M587 1809 c-27 -21 -69 -98 -82 -152 -10 -39 -24 -43 -36 -8 -19 54 -102 62 -129 11 -12 -22 -8 -33 21 -65 26 -30 52 -141 44 -192 -7 -46 7 -83 30 -83 8 0 15 1 15 3 0 1 16 47 36 102 19 55 38 109 41 120 3 11 13 29 23 40 9 11 25 39 35 62 23 53 45 74 82 75 37 1 69 -16 89 -48 29 -44 14 -145 -36 -239 -51 -97 -95 -142 -183 -189 -63 -33 -70 -35 -91 -21 -26 17 -36 11 -36 -21 0 -23 33 -54 57 -54 24 0 121 41 143 60 13 11 26 20 31 20 12 0 89 53 89 61 0 4 16 26 36 50 68 82 87 133 92 244 3 97 3 101 -26 146 -34 53 -91 85 -167 94 -41 4 -55 2 -78 -16z" />
<ns0:path d="M1246 605 c-38 -13 -56 -29 -56 -51 0 -22 54 -64 103 -82 90 -31 95 -78 17 -161 -50 -53 -93 -71 -180 -74 -32 -2 -35 1 -52 48 -45 122 -78 185 -110 208 -24 18 -30 18 -58 7 -34 -14 -55 -44 -43 -63 4 -6 28 -39 53 -72 61 -78 103 -161 95 -186 -4 -10 -22 -31 -41 -45 -40 -31 -42 -42 -13 -78 27 -34 52 -33 99 4 21 17 44 30 52 30 8 0 18 4 23 8 6 5 35 19 66 31 31 12 67 33 80 47 12 13 28 24 34 24 12 0 73 55 110 98 11 14 22 46 26 80 9 82 -8 119 -76 162 -31 20 -56 44 -60 57 -6 26 -15 27 -69 8z" />
<ns0:path d="M528 459 c-31 -15 -38 -25 -38 -48 0 -22 7 -32 32 -44 18 -9 36 -13 41 -10 4 2 40 5 79 4 90 -1 108 -14 98 -71 -4 -22 -15 -50 -24 -62 -9 -13 -26 -37 -37 -54 -12 -19 -44 -43 -82 -62 -102 -50 -113 -53 -130 -34 -20 24 -30 59 -17 67 5 3 10 13 10 21 0 17 68 127 81 132 10 4 13 42 4 42 -4 0 -20 -7 -38 -16 -39 -20 -85 -68 -128 -135 -29 -45 -31 -55 -25 -104 10 -89 3 -85 136 -85 92 0 120 3 130 15 7 8 18 15 25 15 21 0 121 104 129 133 3 15 11 27 17 27 18 0 39 68 39 127 -1 92 -36 122 -171 147 -47 9 -87 16 -90 15 -2 -1 -21 -10 -41 -20z" />
</ns0:g>
</g><g transform="translate(1.119865099744402,608.7080832855064) scale(0.029288044292103407)"><ns0:metadata>
Created by potrace 1.16, written by Peter Selinger 2001-2019
</ns0:metadata>
<ns0:g transform="translate(0.000000,207.000000) scale(0.100000,-0.100000)" fill="#000000" stroke="none">
<ns0:path d="M953 1943 c-7 -2 -13 -9 -13 -15 0 -5 -15 -44 -34 -87 -18 -42 -41 -108 -51 -147 -13 -54 -22 -73 -43 -86 -223 -142 -321 -216 -337 -255 -22 -52 -19 -69 18 -97 40 -31 71 -26 87 14 15 36 107 133 119 126 5 -4 -4 -33 -20 -66 -16 -33 -29 -63 -29 -67 0 -7 -110 -228 -174 -348 -48 -91 -163 -269 -195 -302 -11 -12 -21 -25 -21 -28 0 -4 -14 -26 -30 -49 -33 -46 -32 -72 4 -85 17 -7 29 0 59 29 20 21 37 42 37 48 0 6 8 17 18 24 22 16 72 90 72 106 0 7 16 29 35 51 19 21 35 43 35 48 0 6 39 48 87 93 105 100 106 100 88 -91 -7 -74 -12 -188 -11 -254 1 -135 10 -148 59 -97 27 28 28 35 37 178 6 82 14 185 19 229 15 119 13 220 -2 234 -18 14 -73 -2 -104 -31 -12 -12 -23 -18 -23 -15 0 4 20 46 44 94 24 49 55 115 69 148 30 71 74 152 96 178 9 10 25 37 36 59 11 22 24 40 28 39 5 -1 21 15 36 36 15 21 45 50 67 64 93 61 131 85 157 98 15 7 27 17 27 22 0 5 20 18 44 30 24 11 67 43 96 70 44 42 49 51 40 69 -13 24 -15 24 -60 1 -19 -11 -59 -31 -89 -45 -29 -14 -74 -41 -100 -59 -63 -46 -129 -82 -137 -74 -6 6 19 94 37 129 28 55 -21 105 -78 81z" />
<ns0:path d="M1417 1738 c-167 -178 -203 -214 -217 -220 -22 -9 -170 -138 -170 -148 0 -5 -26 -29 -57 -53 -39 -30 -68 -63 -87 -100 -28 -52 -29 -57 -13 -80 27 -42 54 -41 86 3 39 55 256 280 269 280 6 0 21 13 34 29 13 16 33 34 46 40 26 14 26 15 11 -84 -6 -38 -12 -171 -13 -294 l-1 -224 -86 -46 c-48 -25 -94 -52 -103 -60 -34 -29 -28 1 12 58 23 32 46 69 51 83 5 13 19 46 32 72 l23 49 -28 23 c-37 33 -87 30 -160 -9 -50 -27 -65 -41 -93 -92 -37 -68 -37 -89 4 -167 l25 -47 -20 -28 c-11 -15 -45 -51 -77 -80 -47 -43 -55 -56 -50 -75 19 -63 75 -64 143 -3 27 25 54 45 59 45 5 0 20 -12 34 -26 56 -62 196 -165 244 -180 27 -10 61 -25 74 -35 29 -23 64 -24 82 -2 21 24 15 130 -16 289 -15 75 -30 167 -35 203 -5 36 -14 89 -20 116 -19 84 6 451 37 550 17 54 33 86 78 155 19 29 29 59 29 85 1 37 -1 40 -29 43 -26 2 -39 -7 -98 -70z m-267 -762 c0 -7 -14 -30 -30 -51 -17 -21 -33 -49 -36 -62 -7 -27 -43 -52 -45 -31 -5 64 15 111 63 145 32 23 48 22 48 -1z m183 -244 c3 -43 11 -91 17 -106 5 -15 13 -54 16 -87 4 -47 2 -59 -9 -59 -24 0 -120 48 -163 83 -23 17 -56 40 -75 50 l-33 18 44 41 c54 50 171 136 186 137 7 1 13 -30 17 -77z" />
</ns0:g>
</g><g transform="translate(-2.3384228328104655,681.4773900811668) scale(0.029288044292103407)"><ns0:metadata>
Created by potrace 1.16, written by Peter Selinger 2001-2019
</ns0:metadata>
<ns0:g transform="translate(0.000000,209.000000) scale(0.100000,-0.100000)" fill="#000000" stroke="none">
<ns0:path d="M1491 1903 c-31 -32 -71 -75 -88 -95 -18 -21 -61 -57 -97 -82 -122 -84 -206 -156 -206 -177 0 -12 -8 -23 -19 -26 -30 -8 -51 -64 -67 -176 -18 -130 -21 -140 -42 -131 -40 17 -94 16 -142 -5 -27 -12 -51 -21 -54 -21 -13 0 -4 20 29 68 154 225 165 418 25 452 -117 28 -218 -43 -153 -108 18 -18 16 -39 -6 -76 -19 -31 -29 -101 -36 -251 -4 -98 -13 -163 -26 -186 -6 -12 -5 -20 2 -25 8 -5 10 -53 7 -165 -6 -168 -17 -209 -57 -209 -24 0 -42 -22 -32 -39 5 -7 24 -16 42 -20 l34 -7 1 -94 c6 -356 7 -371 25 -381 10 -5 26 -9 37 -9 43 0 46 18 43 280 -1 196 1 256 12 283 17 40 78 128 122 177 18 19 49 60 69 90 l37 55 -6 -40 c-4 -22 -14 -77 -22 -122 -23 -124 -9 -143 52 -65 35 45 37 46 32 17 -3 -16 -9 -68 -12 -115 -4 -47 -13 -110 -20 -140 -21 -89 -72 -225 -100 -266 -30 -44 -32 -77 -5 -104 24 -24 31 -24 92 -5 70 21 138 78 258 213 30 34 63 62 72 62 9 0 40 -23 70 -51 29 -28 88 -77 130 -110 42 -32 80 -64 83 -69 7 -11 111 -80 121 -80 3 0 19 -14 36 -30 17 -17 45 -42 63 -56 l33 -25 58 22 c93 35 134 96 85 126 -16 10 -24 9 -44 -7 -33 -26 -49 -25 -85 5 -17 14 -33 25 -36 25 -11 0 -178 119 -236 167 -30 25 -71 67 -92 93 -21 26 -53 59 -73 74 -42 32 -43 44 -10 80 14 15 25 29 25 30 0 2 14 19 31 37 17 19 47 56 65 84 19 27 50 73 70 100 19 28 37 60 40 73 7 26 -11 52 -37 52 -17 0 -139 -110 -139 -125 0 -7 -60 -86 -105 -140 -14 -16 -34 -41 -44 -54 l-18 -25 -31 25 c-17 13 -31 29 -31 35 -1 18 -60 64 -82 64 -20 0 -21 4 -17 63 9 101 27 147 77 192 122 109 153 144 149 167 -4 29 -43 37 -66 13 -25 -24 -140 -105 -150 -105 -5 0 -17 -9 -27 -20 -29 -32 -38 -24 -30 27 13 88 43 189 50 171 11 -27 32 -22 109 26 39 23 90 54 114 66 41 23 42 23 57 4 17 -22 19 -112 11 -374 -1 -46 29 -52 61 -11 30 38 43 156 43 386 0 209 21 372 57 432 18 32 23 53 21 90 -3 42 -6 48 -26 51 -18 3 -38 -11 -81 -55z m-51 -211 c0 -5 -5 -35 -12 -68 -11 -56 -14 -82 -17 -132 -1 -20 -5 -22 -39 -16 -28 4 -41 2 -51 -10 -7 -9 -19 -16 -26 -16 -7 0 -18 -7 -25 -15 -7 -8 -20 -15 -30 -15 -9 0 -38 -11 -64 -25 -56 -30 -59 -30 -53 -7 3 9 8 33 11 53 5 27 13 39 29 43 12 3 49 31 82 62 33 31 80 69 104 85 24 15 50 37 58 49 14 20 33 27 33 12z m-604 -94 c10 -16 7 -74 -5 -97 -11 -20 -13 -19 -51 18 -45 44 -48 53 -21 80 19 19 65 19 77 -1z m-46 -193 c0 -2 -9 -19 -20 -37 l-20 -33 0 31 c0 17 3 34 7 37 7 8 33 9 33 2z m80 -280 c0 -10 -63 -120 -94 -162 -36 -52 -56 -56 -56 -10 0 77 11 104 50 126 20 11 43 28 50 36 12 14 50 22 50 10z m320 -580 c11 -20 10 -28 -4 -50 -10 -14 -24 -29 -32 -32 -8 -3 -28 -24 -43 -47 -28 -40 -91 -87 -91 -68 0 5 7 29 16 53 8 24 24 80 35 124 11 44 22 86 25 93 5 16 75 -38 94 -73z" />
</ns0:g>
</g><g transform="translate(1.2861050746768115,767.4734686064121) scale(0.029288044292103407)"><ns0:metadata>
Created by potrace 1.16, written by Peter Selinger 2001-2019
</ns0:metadata>
<ns0:g transform="translate(0.000000,207.000000) scale(0.100000,-0.100000)" fill="#000000" stroke="none">
<ns0:path d="M1100 1720 c-8 -5 -29 -10 -47 -10 -76 0 -101 -33 -182 -240 -29 -74 -56 -139 -61 -145 -4 -5 -31 -55 -60 -110 -29 -55 -58 -107 -65 -115 -20 -25 -110 -209 -151 -310 -21 -52 -51 -117 -66 -143 -51 -88 -33 -101 39 -29 68 66 133 169 214 332 28 58 59 116 69 130 20 29 67 121 139 274 29 60 63 122 75 137 13 15 33 48 45 73 13 27 37 54 57 67 41 25 60 64 43 85 -13 16 -28 17 -49 4z" />
<ns0:path d="M1283 1480 c-34 -14 -40 -56 -12 -86 12 -13 31 -24 41 -24 10 0 30 -8 45 -17 24 -16 26 -16 39 2 22 30 16 58 -20 98 -34 37 -53 43 -93 27z" />
<ns0:path d="M863 1053 c-18 -2 -37 -12 -42 -21 -7 -15 -15 -83 -27 -241 -1 -18 -8 -54 -14 -80 -17 -62 -153 -340 -190 -386 -36 -46 -39 -87 -8 -109 31 -22 75 -20 88 3 5 11 38 34 73 51 59 31 140 77 219 127 21 13 42 23 47 23 10 0 115 62 140 83 9 7 28 18 43 25 35 14 46 1 58 -72 5 -31 11 -60 14 -65 3 -5 8 -30 11 -56 11 -87 67 -186 92 -161 12 12 10 130 -3 221 -7 50 -27 140 -43 200 -29 100 -30 110 -15 126 20 22 11 37 -35 57 -48 21 -72 23 -98 6 -34 -21 -36 -47 -8 -103 32 -63 30 -82 -13 -93 -18 -5 -55 -22 -83 -38 -27 -17 -54 -30 -59 -30 -9 0 -136 -57 -203 -90 l-38 -20 7 23 c3 12 12 29 19 37 7 8 16 26 20 40 3 14 13 39 21 57 13 30 51 177 74 293 19 95 21 104 37 136 29 57 12 69 -84 57z" />
</ns0:g>
</g><g transform="translate(-1.8284404515208053,848.5128812695807) scale(0.029288044292103407)"><ns0:metadata>
Created by potrace 1.16, written by Peter Selinger 2001-2019
</ns0:metadata>
<ns0:g transform="translate(0.000000,209.000000) scale(0.100000,-0.100000)" fill="#000000" stroke="none">
<ns0:path d="M1199 2057 c-116 -67 -156 -91 -219 -132 -36 -23 -101 -61 -145 -84 -44 -24 -84 -49 -88 -57 -4 -8 -12 -14 -18 -14 -19 0 -136 -59 -149 -75 -8 -10 -39 -28 -70 -41 -85 -38 -113 -91 -71 -133 16 -16 30 -19 72 -15 57 5 89 18 89 37 0 17 87 107 103 107 8 0 26 11 40 24 26 24 35 30 132 80 28 15 66 38 85 51 61 44 111 75 120 75 4 0 20 14 33 30 14 17 32 30 40 30 8 0 20 7 27 15 7 8 18 15 26 15 7 0 20 7 29 16 9 9 18 14 21 11 7 -7 -28 -158 -65 -282 -17 -55 -33 -116 -36 -135 -3 -19 -12 -64 -20 -100 -32 -136 -52 -265 -60 -393 -3 -42 -11 -96 -19 -120 -35 -110 -49 -277 -35 -405 6 -51 9 -95 6 -99 -3 -3 -21 6 -39 20 -60 45 -94 57 -160 57 -81 0 -110 -8 -106 -29 2 -11 22 -19 68 -26 36 -6 75 -16 86 -23 33 -18 100 -102 128 -162 15 -30 31 -62 36 -70 5 -8 17 -32 26 -53 21 -48 57 -68 81 -45 21 22 28 102 14 180 -6 34 -18 131 -26 213 -19 173 -15 261 21 444 13 69 24 137 24 152 0 135 130 698 187 813 14 27 27 73 30 102 l6 54 -74 0 c-65 -1 -81 -5 -130 -33z" />
<ns0:path d="M1055 1615 c-16 -8 -61 -28 -100 -45 -38 -18 -87 -44 -110 -59 -22 -15 -52 -32 -66 -38 -15 -6 -42 -25 -60 -41 -19 -16 -54 -40 -79 -52 -91 -47 -144 -137 -105 -180 14 -16 31 -20 81 -20 34 0 69 3 78 6 21 8 21 60 0 72 -24 13 35 67 206 189 14 10 61 36 104 58 92 46 136 81 136 107 0 22 -40 24 -85 3z" />
<ns0:path d="M588 1004 c-38 -20 -41 -53 -7 -90 19 -20 19 -21 -1 -39 -11 -10 -20 -24 -20 -30 0 -7 -7 -18 -15 -25 -8 -7 -15 -21 -15 -31 0 -11 -4 -19 -9 -19 -29 0 -75 -236 -52 -264 26 -31 63 -26 151 21 154 84 310 264 310 360 0 42 -34 69 -101 82 -31 5 -82 19 -115 30 -69 25 -89 25 -126 5z m182 -114 c25 -6 55 -12 66 -15 12 -3 24 -12 28 -20 9 -25 -28 -88 -76 -128 -24 -20 -51 -43 -60 -51 -27 -23 -75 -46 -97 -46 -11 0 -23 -5 -26 -10 -4 -6 -11 -7 -17 -4 -11 7 -4 74 12 102 5 9 21 46 36 82 44 104 50 108 134 90z" />
</ns0:g>
</g></svg>