<?xml version='1.0' encoding='utf-8'?>
<svg xmlns:ns0="http://www.w3.org/2000/svg" xmlns="http://www.w3.org/2000/svg" width="235" height="136" viewBox="0 0 235 136"><g transform="translate(0.5272588174335624,-58.473003116588416) scale(0.027992408431083055)"><ns0:metadata>
Created by potrace 1.16, written by Peter Selinger 2001-2019
</ns0:metadata>
<ns0:g transform="translate(0.000000,208.000000) scale(0.100000,-0.100000)" fill="#000000" stroke="none">
<ns0:path d="M1290 1947 c-40 -19 -120 -77 -120 -87 0 -5 -26 -23 -58 -39 -31 -16 -77 -47 -102 -70 -25 -23 -49 -41 -53 -41 -11 0 -164 -101 -197 -130 -36 -31 -50 -26 -39 12 12 43 4 65 -32 84 -52 26 -109 -6 -109 -62 0 -18 -5 -45 -11 -60 -5 -16 -13 -112 -16 -214 -3 -102 -8 -234 -12 -295 -8 -147 -5 -167 22 -163 17 2 25 14 34 52 7 26 19 56 27 65 10 12 16 57 21 176 7 182 17 254 40 289 16 24 17 24 45 8 27 -16 31 -15 75 6 25 12 67 42 93 66 26 24 67 56 92 71 25 15 68 45 96 66 28 22 56 39 62 39 6 0 18 10 26 22 23 32 20 10 -13 -89 -16 -48 -32 -106 -36 -128 -4 -22 -18 -74 -32 -115 -13 -41 -30 -111 -37 -155 -7 -44 -27 -134 -44 -200 -25 -99 -45 -207 -64 -350 -5 -35 41 -25 73 15 23 28 33 58 49 140 11 58 32 152 46 210 15 58 35 141 45 185 24 108 83 328 104 390 9 28 29 70 44 95 36 60 49 95 54 152 6 66 -15 82 -73 55z" />
<ns0:path d="M1537 1818 c-30 -11 -33 -19 -42 -128 -8 -88 -31 -313 -44 -420 -8 -68 -45 -222 -57 -242 -9 -14 7 -48 23 -48 8 0 17 10 21 22 9 34 63 132 81 145 9 6 28 14 43 17 36 7 178 105 190 130 5 12 24 30 41 41 21 13 33 30 35 48 5 41 -21 44 -70 8 -23 -17 -47 -31 -53 -31 -7 0 -20 -9 -30 -20 -10 -11 -27 -22 -39 -26 -11 -4 -34 -16 -49 -26 -16 -11 -31 -17 -34 -14 -4 3 -1 34 5 69 25 131 47 400 37 447 -7 34 -21 40 -58 28z" />
<ns0:path d="M873 1391 c-26 -16 -33 -28 -38 -68 -6 -48 -11 -73 -40 -218 -32 -159 -46 -216 -55 -233 -6 -9 -16 -35 -24 -57 -10 -32 -18 -41 -40 -43 -31 -4 -86 -48 -86 -69 0 -15 26 -18 35 -3 10 16 45 12 45 -6 0 -9 -9 -27 -20 -41 -11 -14 -20 -31 -20 -38 0 -22 -31 -39 -66 -37 -38 3 -43 -10 -18 -46 30 -43 92 -23 158 54 l34 39 98 -34 c133 -45 248 -52 313 -19 50 26 59 39 38 60 -11 11 -29 13 -71 8 -64 -7 -192 14 -217 36 -8 8 -21 14 -27 14 -7 0 -23 10 -37 22 -27 23 -32 56 -14 91 16 28 75 270 83 337 15 120 34 185 65 223 31 37 -45 60 -96 28z" />
<ns0:path d="M1580 903 c-72 -23 -128 -80 -144 -146 -7 -30 -47 -97 -57 -97 -12 0 -31 141 -24 180 6 36 4 41 -19 52 -23 10 -28 9 -41 -8 -8 -10 -15 -25 -15 -33 0 -7 -9 -29 -21 -47 -20 -33 -20 -35 -4 -110 19 -84 15 -186 -11 -262 -19 -59 -18 -71 11 -78 18 -4 32 -1 46 12 20 18 21 18 34 1 17 -24 71 -32 122 -18 85 23 221 185 259 310 41 135 37 226 -10 235 -43 9 -111 14 -126 9z m66 -118 c23 -59 -77 -225 -203 -337 -11 -10 -23 -18 -26 -18 -12 0 -7 21 8 36 17 17 20 50 6 58 -5 3 -21 -4 -35 -15 -15 -12 -29 -20 -31 -18 -2 3 -1 33 2 67 5 54 9 65 29 72 12 5 30 25 40 45 17 36 83 100 119 115 34 14 85 11 91 -5z" />
</ns0:g>
</g><g transform="translate(-0.055166684323012305,14.865096862915067) scale(0.027992408431083055)"><ns0:metadata>
Created by potrace 1.16, written by Peter Selinger 2001-2019
</ns0:metadata>
<ns0:g transform="translate(0.000000,207.000000) scale(0.100000,-0.100000)" fill="#000000" stroke="none">
<ns0:path d="M1058 1644 c-33 -17 -31 -3 -32 -189 -1 -164 -6 -180 -58 -214 -45 -28 -85 -58 -154 -113 -32 -27 -63 -48 -68 -48 -8 0 -7 13 13 120 5 30 13 73 16 95 3 22 8 56 11 75 3 19 0 55 -6 80 -7 25 -14 63 -17 85 -3 22 -12 48 -21 58 -20 23 -67 22 -91 -2 -21 -21 -21 -38 1 -153 16 -84 14 -171 -5 -283 -16 -93 -28 -142 -78 -315 -11 -36 -24 -90 -29 -120 -5 -30 -14 -66 -19 -80 -5 -14 -19 -61 -31 -105 -12 -44 -33 -112 -46 -151 -13 -40 -29 -96 -34 -125 -12 -56 -25 -99 -42 -136 -14 -29 -4 -54 19 -46 31 11 45 27 65 73 11 25 26 58 33 75 8 16 24 59 35 95 12 36 26 70 30 75 12 15 45 117 70 223 23 92 23 92 44 74 12 -10 34 -24 49 -32 24 -12 31 -12 56 3 16 9 34 17 41 17 6 0 42 13 80 30 38 16 71 30 74 30 2 0 2 -123 0 -273 -5 -244 -4 -275 11 -287 25 -21 36 0 47 92 5 45 16 106 23 133 8 28 17 99 21 160 4 60 12 139 18 176 6 36 9 91 8 121 -3 50 -6 57 -28 62 -20 5 -35 -2 -68 -31 -62 -54 -142 -91 -211 -99 -33 -3 -75 -15 -92 -25 -33 -18 -33 -18 -33 4 0 12 5 39 11 60 8 29 14 37 27 33 23 -7 33 1 62 49 24 39 87 112 124 144 70 60 84 71 89 71 3 0 -3 -31 -14 -70 -23 -85 -23 -90 -1 -90 19 0 72 74 72 100 0 9 11 31 24 49 48 64 64 127 75 293 6 91 16 167 23 178 11 18 9 23 -17 45 -35 28 -41 29 -77 9z" />
</ns0:g>
</g><g transform="translate(-1.9320684045844132,108.05141656068116) scale(0.027992408431083055)"><ns0:metadata>
Created by potrace 1.16, written by Peter Selinger 2001-2019
</ns0:metadata>
<ns0:g transform="translate(0.000000,211.000000) scale(0.100000,-0.100000)" fill="#000000" stroke="none">
<ns0:path d="M1360 1549 c-62 -34 -143 -69 -159 -69 -9 0 -47 -12 -86 -26 -38 -14 -86 -30 -105 -36 -19 -5 -46 -16 -60 -23 -14 -7 -47 -23 -75 -35 -27 -13 -53 -28 -57 -34 -14 -21 -8 -56 13 -77 30 -30 81 -20 155 30 67 45 152 81 190 81 l26 0 -6 -132 c-14 -270 -17 -377 -16 -531 0 -86 3 -164 6 -172 3 -7 20 -17 37 -21 38 -8 52 8 68 82 9 40 9 57 1 67 -8 9 -10 62 -7 173 3 87 5 197 5 244 0 47 4 110 10 140 6 30 14 73 18 94 4 23 15 43 27 50 30 16 36 28 31 58 -5 23 0 30 37 50 38 21 42 27 42 63 0 37 -2 40 -30 42 -16 1 -46 -7 -65 -18z" />
</ns0:g>
</g><g transform="translate(-0.130247759995882,188.17760443300978) scale(0.027992408431083055)"><ns0:metadata>
Created by potrace 1.16, written by Peter Selinger 2001-2019
</ns0:metadata>
<ns0:g transform="translate(0.000000,210.000000) scale(0.100000,-0.100000)" fill="#000000" stroke="none">
<ns0:path d="M1438 1357 c-15 -12 -55 -58 -89 -102 -34 -44 -73 -91 -86 -104 -13 -13 -23 -29 -23 -35 0 -7 -21 -43 -47 -82 -27 -38 -57 -85 -67 -104 -10 -19 -27 -44 -36 -55 -10 -11 -23 -30 -29 -42 -18 -36 -36 -27 -60 30 -12 28 -29 63 -37 77 -30 50 -94 188 -94 203 0 9 -5 19 -11 22 -6 4 -8 22 -4 44 7 45 -9 69 -50 72 -126 11 -120 -114 15 -307 22 -31 40 -61 40 -66 0 -5 9 -21 19 -36 13 -17 24 -61 32 -122 14 -106 28 -136 66 -143 20 -4 33 2 52 22 43 45 121 143 121 151 0 5 16 32 35 62 20 29 40 69 45 89 6 20 21 51 35 70 13 19 29 45 35 59 6 14 16 30 23 35 15 13 33 41 51 82 8 18 35 61 59 95 50 71 66 108 45 108 -7 0 -25 -10 -40 -23z" />
</ns0:g>
</g><g transform="translate(-2.019960969299632,263.575351693496) scale(0.027992408431083055)"><ns0:metadata>
Created by potrace 1.16, written by Peter Selinger 2001-2019
</ns0:metadata>
<ns0:g transform="translate(0.000000,212.000000) scale(0.100000,-0.100000)" fill="#000000" stroke="none">
<ns0:path d="M1245 1335 c-67 -14 -165 -58 -189 -84 -32 -36 -46 -467 -17 -544 19 -48 78 -104 126 -117 25 -7 45 -19 45 -26 0 -13 -61 -59 -115 -86 -34 -17 -165 -51 -186 -48 -65 9 -82 -23 -21 -39 88 -25 258 1 337 51 22 14 49 28 61 32 11 3 35 22 54 41 27 28 34 44 38 89 5 61 10 57 -103 71 -107 13 -127 34 -146 155 -12 77 -8 131 18 273 l16 87 54 31 c46 25 61 29 98 24 24 -4 58 -2 77 3 18 6 49 15 68 19 32 8 35 12 35 43 l0 35 -95 1 c-52 1 -122 -4 -155 -11z" />
</ns0:g>
</g><g transform="translate(-0.45257724680237743,336.4174979286065) scale(0.027992408431083055)"><ns0:metadata>
Created by potrace 1.16, written by Peter Selinger 2001-2019
</ns0:metadata>
<ns0:g transform="translate(0.000000,217.000000) scale(0.100000,-0.100000)" fill="#000000" stroke="none">
<ns0:path d="M1464 2156 c-11 -8 -45 -52 -77 -98 -31 -47 -68 -95 -82 -108 -14 -13 -25 -27 -25 -32 0 -4 -15 -27 -33 -51 -18 -23 -38 -61 -46 -83 -12 -39 -12 -44 9 -72 l22 -30 -27 -36 c-15 -20 -31 -36 -36 -36 -5 0 -9 -9 -9 -21 0 -13 11 -25 35 -35 19 -8 35 -18 35 -23 0 -6 -39 -34 -86 -63 -47 -29 -96 -60 -109 -68 -22 -13 -25 -12 -49 13 -26 28 -57 34 -100 17 -32 -12 -35 -54 -6 -72 11 -7 20 -20 20 -28 0 -9 -35 -47 -77 -85 -130 -116 -157 -147 -192 -218 -39 -78 -36 -100 17 -105 22 -2 34 3 47 20 9 13 36 50 60 83 25 33 45 65 45 70 0 6 30 30 65 55 35 25 81 58 102 73 60 43 182 130 222 156 20 13 47 33 61 45 14 12 44 31 68 41 23 10 47 24 52 31 6 6 37 24 68 39 31 14 70 34 87 42 39 22 135 44 135 31 0 -15 -76 -101 -226 -255 -138 -142 -142 -145 -190 -150 -60 -6 -147 -45 -177 -79 -11 -13 -28 -44 -37 -67 -22 -58 -10 -87 36 -87 29 0 36 6 53 38 26 51 59 78 103 86 34 6 38 4 44 -18 14 -59 -102 -279 -198 -373 -39 -38 -52 -42 -42 -10 4 12 7 69 6 125 -2 111 -18 153 -62 167 -58 18 -100 -17 -114 -96 -9 -53 10 -213 30 -243 14 -23 15 -32 4 -73 -8 -25 -29 -69 -48 -97 -19 -28 -36 -65 -39 -83 -5 -29 -2 -34 31 -49 33 -16 36 -21 36 -59 0 -101 69 -152 217 -162 85 -5 91 -4 177 31 49 20 103 48 121 62 38 29 114 134 134 184 43 112 50 141 51 195 0 132 -89 183 -275 156 -38 -6 -71 -8 -73 -6 -3 2 26 65 64 140 66 133 68 138 69 216 0 69 4 83 20 95 29 20 129 110 197 179 34 33 65 60 69 60 5 0 16 11 25 25 10 14 29 39 45 55 15 17 35 56 44 87 14 49 14 62 3 85 -13 27 -16 28 -86 27 -42 0 -77 -5 -84 -12 -7 -7 -22 -12 -34 -12 -20 0 -48 -13 -198 -94 -38 -20 -71 -35 -73 -32 -3 3 4 18 16 34 24 34 27 63 9 91 -9 15 -8 22 3 34 8 8 26 30 41 48 123 151 133 170 107 196 -9 9 -6 23 11 57 12 25 25 46 30 46 10 0 60 73 60 88 0 17 -71 15 -96 -2z m-534 -1341 c0 -62 -11 -84 -24 -49 -8 20 -8 78 0 98 13 35 24 13 24 -49z m523 -160 c33 -24 32 -82 -2 -159 -62 -137 -142 -213 -281 -268 -116 -46 -219 -4 -220 89 0 23 -4 44 -10 48 -13 8 -2 32 47 96 48 64 87 96 170 140 108 57 256 85 296 54z" />
<ns0:path d="M814 1987 c-6 -7 -18 -44 -28 -82 -9 -39 -24 -97 -32 -130 -13 -49 -55 -143 -122 -272 -10 -17 -74 -181 -85 -214 -3 -9 -1 -22 3 -30 13 -20 35 4 105 111 l60 91 48 -3 c33 -2 47 1 47 10 0 6 4 12 10 12 14 0 210 190 210 204 0 6 13 22 29 36 21 18 27 30 22 44 -7 17 -9 17 -36 -8 -35 -33 -48 -33 -33 -1 10 22 9 29 -10 47 -18 18 -25 20 -44 11 -13 -7 -38 -13 -57 -16 l-33 -4 6 41 c17 102 18 136 6 151 -15 18 -51 19 -66 2z m156 -284 c-1 -15 -94 -76 -124 -82 -22 -5 -32 -13 -34 -29 -2 -12 -8 -22 -14 -22 -6 0 -7 7 -3 18 4 9 11 32 17 50 8 28 13 32 42 32 19 0 44 9 57 20 24 19 59 27 59 13z" />
</ns0:g>
</g><g transform="translate(1.0163184236888583,421.30846185641906) scale(0.027992408431083055)"><ns0:metadata>
Created by potrace 1.16, written by Peter Selinger 2001-2019
</ns0:metadata>
<ns0:g transform="translate(0.000000,212.000000) scale(0.100000,-0.100000)" fill="#000000" stroke="none">
<ns0:path d="M911 1561 c-36 -36 -27 -59 32 -86 28 -14 58 -25 65 -25 22 0 97 -56 111 -83 35 -66 -27 -206 -136 -304 -71 -64 -113 -93 -138 -93 -9 0 -9 16 2 72 19 100 -6 455 -34 475 -19 15 -50 8 -75 -16 -19 -19 -34 -150 -31 -276 7 -286 8 -626 1 -715 -9 -117 -1 -151 38 -169 33 -15 60 3 68 43 4 17 6 123 6 236 0 113 -1 215 0 228 0 18 15 29 83 61 45 21 99 53 119 72 20 19 50 44 66 56 16 12 37 38 46 57 9 19 21 38 26 41 6 3 15 26 21 51 6 24 15 44 19 44 13 0 25 60 21 105 -4 48 -34 110 -70 146 -86 85 -197 123 -240 80z" />
</ns0:g>
</g><g transform="translate(-0.8640308128068455,504.96781930441796) scale(0.027992408431083055)"><ns0:metadata>
Created by potrace 1.16, written by Peter Selinger 2001-2019
</ns0:metadata>
<ns0:g transform="translate(0.000000,213.000000) scale(0.100000,-0.100000)" fill="#000000" stroke="none">
<ns0:path d="M974 1438 c-42 -60 -75 -162 -85 -263 -12 -131 -45 -274 -105 -453 -35 -104 -32 -127 17 -173 70 -65 142 -57 276 33 122 81 117 142 -24 283 -29 29 -53 57 -53 63 0 5 -7 15 -16 23 -11 9 -14 22 -9 48 4 20 9 51 10 70 9 84 31 185 46 206 3 6 14 36 23 68 16 54 16 61 1 83 -17 26 -66 33 -81 12z m-12 -615 c10 -9 18 -22 18 -29 0 -7 6 -17 13 -21 8 -4 24 -22 37 -40 27 -38 23 -46 -49 -92 -53 -35 -88 -39 -98 -14 -6 14 30 183 44 206 6 11 15 9 35 -10z" />
</ns0:g>
</g><g transform="translate(-1.778287012554074,575.4774402468188) scale(0.027992408431083055)"><ns0:metadata>
Created by potrace 1.16, written by Peter Selinger 2001-2019
</ns0:metadata>
<ns0:g transform="translate(0.000000,211.000000) scale(0.100000,-0.100000)" fill="#000000" stroke="none">
<ns0:path d="M1000 1304 c-24 -13 -47 -28 -50 -32 -3 -5 -19 -14 -37 -21 -92 -37 -247 -202 -299 -318 -22 -48 -23 -57 -12 -110 12 -58 58 -129 117 -177 14 -11 39 -34 56 -51 17 -16 50 -41 73 -55 23 -14 42 -28 42 -31 0 -7 -79 -59 -90 -59 -4 0 -13 -7 -20 -15 -15 -18 -213 -119 -295 -150 -35 -13 -84 -27 -109 -30 -26 -4 -49 -12 -52 -17 -11 -17 15 -25 59 -18 23 4 76 13 117 20 84 14 194 56 353 136 38 19 76 34 85 34 9 1 40 13 67 29 45 24 50 31 53 65 4 41 -18 76 -47 76 -70 0 -281 181 -295 252 -11 58 26 127 123 231 51 54 134 107 167 107 7 0 34 15 58 33 36 26 45 38 45 64 1 17 -2 38 -5 47 -9 23 -51 19 -104 -10z" />
</ns0:g>
</g><g transform="translate(-2.3580673251061057,659.5789836099779) scale(0.027992408431083055)"><ns0:metadata>
Created by potrace 1.16, written by Peter Selinger 2001-2019
</ns0:metadata>
<ns0:g transform="translate(0.000000,208.000000) scale(0.100000,-0.100000)" fill="#000000" stroke="none">
<ns0:path d="M790 1610 c-11 -11 -20 -28 -20 -37 0 -22 -17 -84 -28 -101 -7 -10 -15 -9 -41 4 -31 16 -34 15 -58 -3 -16 -11 -33 -40 -44 -75 -9 -30 -22 -64 -28 -74 -6 -11 -24 -80 -41 -154 -17 -74 -37 -148 -45 -165 -7 -16 -20 -50 -28 -75 -8 -25 -36 -103 -61 -174 -25 -72 -46 -141 -46 -155 1 -36 22 -60 58 -67 31 -6 33 -5 62 57 16 35 30 73 30 84 0 24 45 168 64 204 8 14 24 50 37 80 13 30 36 72 52 93 15 21 39 62 53 91 77 156 91 180 99 166 9 -14 22 -86 31 -169 2 -25 9 -70 15 -100 6 -30 14 -112 18 -181 4 -69 11 -131 15 -137 3 -6 8 -64 11 -129 8 -204 12 -215 70 -227 49 -9 62 9 60 82 -3 115 18 178 151 448 41 83 74 157 74 164 0 8 6 21 13 29 12 14 54 111 71 164 8 26 23 13 29 -25 3 -18 12 -73 21 -123 9 -49 20 -124 25 -165 5 -41 15 -97 21 -125 6 -27 15 -90 20 -140 12 -124 42 -224 75 -252 35 -31 41 -29 55 13 14 41 9 103 -14 179 -8 28 -19 86 -25 130 -6 44 -17 116 -25 160 -8 44 -17 109 -21 145 -6 67 -30 192 -45 245 -5 17 -12 65 -16 107 -3 43 -16 106 -28 140 -18 54 -25 63 -47 66 -39 5 -69 -38 -69 -97 0 -25 -5 -64 -11 -86 -6 -22 -14 -56 -18 -75 -18 -80 -104 -272 -229 -515 -12 -22 -23 -48 -26 -57 -11 -37 -26 -16 -26 35 -1 55 -34 312 -44 337 -3 8 -13 76 -21 150 -13 130 -36 256 -55 306 -12 30 -43 31 -70 4z" />
</ns0:g>
</g><g transform="translate(0.015993981687017822,741.2189264929619) scale(0.027992408431083055)"><ns0:metadata>
Created by potrace 1.16, written by Peter Selinger 2001-2019
</ns0:metadata>
<ns0:g transform="translate(0.000000,207.000000) scale(0.100000,-0.100000)" fill="#000000" stroke="none">
<ns0:path d="M1176 1670 c-26 -11 -80 -26 -120 -35 -54 -12 -82 -25 -117 -55 -46 -39 -47 -39 -64 -20 -21 23 -63 26 -88 7 -15 -10 -21 -53 -37 -272 -11 -143 -27 -312 -36 -375 -17 -119 -22 -193 -23 -342 l-1 -86 -45 -18 c-32 -12 -45 -22 -43 -33 3 -12 16 -16 58 -17 30 0 63 -4 72 -8 26 -12 52 -3 63 21 6 15 36 32 97 55 66 24 102 45 141 81 28 27 71 62 94 79 51 37 147 156 173 212 21 47 40 132 40 180 0 44 -55 108 -108 125 -21 7 -62 12 -91 10 -51 -4 -52 -4 -46 21 3 14 28 46 55 72 28 25 50 53 50 61 0 8 15 29 34 45 20 17 50 63 71 107 31 67 35 86 33 139 l-3 61 -55 1 c-33 1 -75 -6 -104 -16z m60 -94 c6 -16 -68 -131 -143 -220 -55 -66 -88 -117 -128 -193 -44 -84 21 -114 188 -87 52 9 87 -15 87 -59 0 -39 -60 -160 -109 -219 -54 -66 -191 -187 -236 -210 -22 -11 -53 -30 -69 -41 l-28 -20 4 169 c3 93 15 237 26 319 12 83 26 188 33 235 37 271 29 249 90 234 18 -4 36 2 64 20 21 14 43 26 50 26 7 0 18 7 25 15 7 8 22 15 34 16 11 0 37 6 56 13 47 18 50 18 56 2z" />
</ns0:g>
</g><g transform="translate(-0.23295481921701366,822.5628273166733) scale(0.027992408431083055)"><ns0:metadata>
Created by potrace 1.16, written by Peter Selinger 2001-2019
</ns0:metadata>
<ns0:g transform="translate(0.000000,205.000000) scale(0.100000,-0.100000)" fill="#000000" stroke="none">
<ns0:path d="M1211 1674 c-29 -13 -59 -24 -66 -24 -6 0 -48 -18 -93 -40 -109 -54 -166 -78 -237 -101 -33 -10 -70 -26 -82 -34 -28 -20 -30 -65 -5 -87 22 -20 59 -31 66 -20 5 8 268 142 279 142 15 0 16 -67 3 -151 -8 -52 -20 -143 -26 -204 -7 -60 -18 -155 -25 -210 -13 -94 -13 -197 0 -256 3 -14 1 -37 -4 -51 -11 -29 -32 -33 -226 -44 -60 -3 -114 -10 -119 -15 -30 -28 80 -57 243 -64 69 -3 130 -10 137 -16 7 -6 23 -9 36 -7 17 2 24 11 26 33 2 17 8 35 13 41 6 7 5 57 -1 130 -9 105 -7 147 15 349 13 127 32 268 40 315 20 112 19 142 -5 168 -27 29 -25 38 13 52 17 7 50 21 72 31 22 10 48 20 58 23 10 3 17 15 17 29 0 19 -7 26 -31 31 -40 8 -35 9 -98 -20z" />
</ns0:g>
</g><g transform="translate(-1.4693589290831142,900.3682900218384) scale(0.027992408431083055)"><ns0:metadata>
Created by potrace 1.16, written by Peter Selinger 2001-2019
</ns0:metadata>
<ns0:g transform="translate(0.000000,206.000000) scale(0.100000,-0.100000)" fill="#000000" stroke="none">
<ns0:path d="M1199 1320 c-33 -17 -38 -26 -53 -87 -9 -37 -20 -99 -26 -138 -13 -100 -45 -249 -69 -325 -12 -36 -21 -79 -21 -97 0 -18 -6 -52 -14 -75 -8 -24 -17 -61 -21 -83 -3 -22 -8 -50 -11 -62 -3 -17 2 -23 27 -28 57 -13 78 27 120 230 10 50 27 119 37 155 11 36 30 112 42 170 13 58 29 112 36 120 6 8 15 33 19 55 3 22 14 48 22 57 18 20 13 48 -17 96 -23 37 -23 37 -71 12z" />
</ns0:g>
</g><g transform="translate(-0.4667765572392,975.9923851176322) scale(0.027992408431083055)"><ns0:metadata>
Created by potrace 1.16, written by Peter Selinger 2001-2019
</ns0:metadata>
<ns0:g transform="translate(0.000000,208.000000) scale(0.100000,-0.100000)" fill="#000000" stroke="none">
<ns0:path d="M958 1305 c-16 -9 -29 -21 -29 -28 -2 -24 3 -42 17 -58 8 -8 17 -37 20 -62 5 -38 3 -51 -11 -67 -15 -16 -15 -22 -5 -35 12 -15 9 -139 -6 -266 -8 -66 20 -95 103 -108 35 -5 78 -7 98 -4 54 9 45 -21 -27 -90 -73 -69 -172 -147 -186 -147 -6 0 -12 -4 -14 -9 -3 -7 -36 -27 -165 -97 -43 -23 -88 -40 -133 -48 -94 -18 -103 -23 -78 -44 19 -15 209 20 293 55 39 16 95 45 125 64 30 20 70 42 88 49 17 7 32 16 32 21 0 5 5 9 11 9 6 0 29 16 50 35 22 19 45 35 53 35 16 0 65 58 90 107 20 40 22 136 2 152 -14 12 -165 8 -198 -4 -8 -3 -20 1 -27 9 -10 12 -9 39 4 133 17 128 20 132 96 173 20 10 44 31 53 45 9 14 34 33 54 43 57 25 72 42 72 78 0 71 -26 82 -95 39 -50 -30 -63 -31 -67 -2 -3 20 -9 22 -58 23 -30 1 -73 5 -95 8 -27 4 -49 1 -67 -9z m183 -79 c-29 -30 -58 -39 -66 -19 -9 24 14 43 53 43 l35 0 -22 -24z" />
</ns0:g>
</g><g transform="translate(2.19413043235204,1070.1188251010055) scale(0.027992408431083055)"><ns0:metadata>
Created by potrace 1.16, written by Peter Selinger 2001-2019
</ns0:metadata>
<ns0:g transform="translate(0.000000,208.000000) scale(0.100000,-0.100000)" fill="#000000" stroke="none">
<ns0:path d="M1113 1493 c-36 -38 -77 -85 -90 -105 -14 -20 -31 -39 -38 -42 -8 -3 -23 -23 -34 -45 -12 -22 -32 -52 -46 -67 -14 -15 -25 -32 -25 -38 0 -6 -13 -30 -29 -53 -37 -56 -59 -182 -39 -228 44 -99 100 -139 208 -151 49 -5 75 -2 104 10 21 9 48 16 60 16 12 0 42 13 67 28 24 15 60 35 79 44 53 25 200 150 200 170 0 4 -9 10 -20 13 -14 5 -49 -9 -113 -45 -143 -79 -255 -130 -300 -136 -64 -9 -121 11 -156 53 -27 33 -29 41 -24 82 3 25 14 64 25 86 38 83 238 345 264 345 6 0 21 -22 32 -50 12 -27 26 -50 32 -50 18 0 32 52 21 76 -5 12 -13 43 -16 70 -9 59 -29 84 -67 84 -23 0 -44 -15 -95 -67z" />
</ns0:g>
</g><g transform="translate(2.7284948073591977,1144.2210214593802) scale(0.027992408431083055)"><ns0:metadata>
Created by potrace 1.16, written by Peter Selinger 2001-2019
</ns0:metadata>
<ns0:g transform="translate(0.000000,206.000000) scale(0.100000,-0.100000)" fill="#000000" stroke="none">
<ns0:path d="M1113 1883 c-28 -6 -48 -38 -57 -92 -4 -24 -16 -64 -28 -90 -11 -25 -20 -59 -18 -76 1 -16 2 -42 3 -57 0 -43 25 -34 47 18 11 25 20 52 20 60 0 8 4 14 10 14 10 0 24 -45 40 -127 10 -57 38 -143 76 -239 14 -35 24 -69 22 -75 -6 -18 -123 -60 -198 -71 -36 -5 -79 -16 -97 -24 -17 -8 -37 -14 -44 -14 -7 0 -21 -7 -31 -17 -30 -27 -33 -6 -6 44 13 27 30 68 38 93 7 25 27 90 45 145 18 55 38 142 45 194 11 93 10 95 -12 117 -29 28 -72 22 -95 -13 -9 -14 -23 -66 -30 -116 -16 -110 -66 -314 -86 -354 -8 -15 -27 -64 -41 -108 -46 -135 -119 -329 -128 -340 -4 -5 -8 -23 -8 -41 0 -26 7 -36 36 -53 49 -29 67 -16 94 63 12 36 31 77 42 91 15 19 22 44 23 83 2 55 36 152 52 152 5 0 13 -10 18 -22 12 -29 75 -37 109 -15 12 9 54 23 92 32 38 10 74 21 79 25 6 4 34 13 64 20 68 16 73 10 95 -103 8 -45 22 -104 31 -131 l15 -49 -80 7 c-62 5 -80 4 -80 -6 0 -20 118 -88 151 -88 9 0 33 -7 54 -16 64 -27 79 -18 86 51 4 33 3 62 -1 65 -18 12 -60 121 -74 195 -24 120 -66 286 -81 320 -27 62 -66 194 -85 290 -45 230 -57 268 -79 264 -3 -1 -16 -4 -28 -6z m112 -433 c4 -6 1 -18 -6 -26 -11 -14 -13 -14 -21 0 -15 26 12 51 27 26z" />
</ns0:g>
</g><g transform="translate(-0.5390126057676525,1230.9871565040537) scale(0.027992408431083055)"><ns0:metadata>
Created by potrace 1.16, written by Peter Selinger 2001-2019
</ns0:metadata>
<ns0:g transform="translate(0.000000,210.000000) scale(0.100000,-0.100000)" fill="#000000" stroke="none">
<ns0:path d="M756 1009 c-35 -51 -5 -121 57 -133 20 -4 50 0 74 8 37 13 223 15 348 4 l30 -3 -2 63 c-1 35 -3 65 -5 67 -2 1 -112 6 -244 10 l-242 7 -16 -23z" />
</ns0:g>
</g><g transform="translate(-0.549486710602423,1306.1956815219596) scale(0.027992408431083055)"><ns0:metadata>
Created by potrace 1.16, written by Peter Selinger 2001-2019
</ns0:metadata>
<ns0:g transform="translate(0.000000,206.000000) scale(0.100000,-0.100000)" fill="#000000" stroke="none">
<ns0:path d="M1261 1449 c-32 -26 -41 -81 -47 -284 -2 -88 -10 -214 -18 -280 -7 -66 -9 -130 -5 -141 4 -12 5 -31 3 -41 -3 -11 1 -25 10 -32 12 -10 20 -7 45 16 27 24 32 37 37 93 9 116 36 284 51 327 10 28 13 60 10 95 -4 29 -3 83 1 121 9 75 -3 118 -37 136 -25 14 -21 14 -50 -10z" />
</ns0:g>
</g><g transform="translate(0.6163520320584439,1375.8045139699998) scale(0.027992408431083055)"><ns0:metadata>
Created by potrace 1.16, written by Peter Selinger 2001-2019
</ns0:metadata>
<ns0:g transform="translate(0.000000,208.000000) scale(0.100000,-0.100000)" fill="#000000" stroke="none">
<ns0:path d="M1135 1490 c-11 -5 -37 -11 -58 -15 -50 -8 -72 -41 -64 -99 4 -24 2 -47 -4 -53 -5 -5 -12 -48 -14 -95 -2 -47 -12 -112 -23 -144 -40 -125 -54 -183 -48 -199 6 -18 69 -47 101 -48 11 0 64 6 119 12 54 7 101 10 104 7 9 -9 -30 -88 -65 -132 -18 -23 -33 -46 -33 -51 0 -6 -19 -26 -42 -46 -24 -19 -56 -47 -73 -63 -46 -42 -116 -84 -143 -84 -59 0 -83 -42 -34 -61 101 -39 305 81 413 242 52 77 70 122 81 201 11 69 10 71 -13 89 -33 26 -91 24 -248 -7 l-34 -7 5 40 c3 22 13 55 21 74 9 19 21 59 27 90 9 49 17 62 58 96 26 21 60 47 77 58 28 18 78 60 136 116 34 32 30 76 -8 85 -19 5 -32 -1 -56 -24 -18 -16 -52 -40 -76 -53 -24 -13 -55 -30 -68 -37 -32 -18 -40 -9 -19 22 16 25 23 97 9 95 -5 0 -17 -4 -28 -9z" />
</ns0:g>
</g><g transform="translate(-2.8215169618334244,1461.4104352341515) scale(0.027992408431083055)"><ns0:metadata>
Created by potrace 1.16, written by Peter Selinger 2001-2019
</ns0:metadata>
<ns0:g transform="translate(0.000000,211.000000) scale(0.100000,-0.100000)" fill="#000000" stroke="none">
<ns0:path d="M1535 1475 c-22 -25 -68 -73 -103 -107 -35 -35 -68 -72 -75 -84 -7 -12 -58 -82 -114 -155 -232 -305 -276 -359 -291 -359 -10 0 -24 27 -42 80 -18 52 -43 103 -61 125 -10 11 -31 47 -49 80 -46 86 -111 185 -122 185 -5 0 -22 -7 -37 -15 -46 -23 -53 -64 -21 -117 11 -18 20 -38 20 -44 0 -13 78 -134 96 -149 7 -5 35 -55 64 -110 28 -55 55 -104 60 -110 4 -5 11 -24 14 -42 9 -38 48 -83 74 -83 21 0 42 18 42 36 0 11 49 80 225 323 11 15 36 52 56 82 21 30 44 61 53 68 9 7 16 17 16 22 0 9 107 177 140 220 69 89 110 158 110 184 0 25 -14 17 -55 -30z" />
</ns0:g>
</g><g transform="translate(1.344832991240537,1541.9355620329648) scale(0.027992408431083055)"><ns0:metadata>
Created by potrace 1.16, written by Peter Selinger 2001-2019
</ns0:metadata>
<ns0:g transform="translate(0.000000,211.000000) scale(0.100000,-0.100000)" fill="#000000" stroke="none">
<ns0:path d="M1353 1632 c-22 -11 -36 -27 -44 -51 -6 -20 -18 -47 -26 -61 -7 -14 -29 -68 -47 -120 -52 -146 -78 -214 -87 -226 -5 -6 -59 -109 -120 -230 -61 -120 -115 -223 -120 -229 -5 -5 -9 -24 -9 -41 0 -38 29 -64 70 -64 37 0 47 10 54 56 8 45 54 149 86 194 11 16 20 33 20 38 0 6 29 60 65 120 63 107 148 291 160 348 4 16 22 68 41 115 19 48 34 98 34 111 0 21 -28 61 -41 57 -2 -1 -19 -9 -36 -17z" />
</ns0:g>
</g><g transform="translate(1.5927342741411508,1617.7130242891787) scale(0.027992408431083055)"><ns0:metadata>
Created by potrace 1.16, written by Peter Selinger 2001-2019
</ns0:metadata>
<ns0:g transform="translate(0.000000,213.000000) scale(0.100000,-0.100000)" fill="#000000" stroke="none">
<ns0:path d="M1097 1492 c-10 -10 -17 -22 -17 -26 0 -5 -6 -22 -14 -39 -8 -18 -24 -61 -35 -97 -26 -84 -40 -126 -61 -175 -10 -22 -21 -51 -25 -65 -4 -14 -20 -53 -36 -86 -20 -45 -34 -63 -52 -68 -31 -7 -44 -36 -23 -52 20 -14 20 -32 0 -101 -33 -113 -3 -192 93 -247 l63 -36 37 19 c118 61 197 312 132 418 -21 34 -33 40 -44 23 -4 -7 -12 -7 -25 0 -10 5 -28 10 -40 10 -28 0 -34 22 -17 62 8 18 24 60 36 93 12 33 28 74 36 90 7 17 21 52 31 78 9 26 21 50 25 53 5 3 9 16 9 28 0 13 9 35 20 49 28 35 26 65 -6 77 -38 15 -69 12 -87 -8z m-13 -618 c9 -8 16 -25 16 -37 -1 -31 -53 -145 -86 -186 l-27 -34 -29 32 c-31 35 -32 61 -7 151 25 87 28 90 74 90 26 0 50 -6 59 -16z" />
</ns0:g>
</g><g transform="translate(2.0065918306067374,1700.5614675599456) scale(0.027992408431083055)"><ns0:metadata>
Created by potrace 1.16, written by Peter Selinger 2001-2019
</ns0:metadata>
<ns0:g transform="translate(0.000000,206.000000) scale(0.100000,-0.100000)" fill="#000000" stroke="none">
<ns0:path d="M1020 1511 c-17 -5 -26 -16 -30 -36 -3 -18 -15 -34 -28 -41 -44 -22 -55 -57 -90 -299 -21 -148 -20 -340 3 -365 8 -9 15 -26 15 -39 0 -12 6 -37 14 -56 19 -46 54 -54 109 -27 23 11 65 24 92 27 62 9 71 16 102 80 79 163 90 203 94 340 6 233 -3 325 -33 325 -6 0 -27 14 -49 31 -21 16 -55 33 -76 36 -21 3 -47 12 -58 19 -21 15 -27 16 -65 5z m115 -114 c60 -34 66 -55 66 -225 0 -142 -11 -210 -40 -246 -5 -6 -14 -29 -21 -50 -19 -58 -62 -96 -109 -96 -37 0 -39 1 -55 53 -17 53 -16 54 18 213 19 87 40 180 46 206 7 26 9 56 5 67 -3 10 -1 22 5 26 5 3 10 22 10 41 0 41 17 44 75 11z" />
</ns0:g>
</g><g transform="translate(2.2251432795589494,1782.5443112931453) scale(0.027992408431083055)"><ns0:metadata>
Created by potrace 1.16, written by Peter Selinger 2001-2019
</ns0:metadata>
<ns0:g transform="translate(0.000000,206.000000) scale(0.100000,-0.100000)" fill="#000000" stroke="none">
<ns0:path d="M988 1436 c-15 -8 -48 -14 -74 -14 -25 0 -51 -5 -56 -10 -6 -6 -17 -59 -24 -119 -8 -59 -23 -135 -34 -168 -22 -70 -41 -285 -30 -341 10 -50 18 -70 48 -118 23 -38 25 -38 73 -34 40 4 61 15 121 61 115 88 187 166 238 261 20 35 21 45 12 115 -20 149 -54 229 -119 275 -24 16 -45 37 -48 45 -4 13 -66 61 -77 61 -2 0 -15 -6 -30 -14z m39 -113 c65 -64 93 -107 117 -180 14 -43 26 -89 26 -102 0 -54 -117 -195 -204 -246 -90 -52 -106 -14 -76 175 12 74 23 146 25 160 8 53 33 142 44 153 6 6 11 21 11 32 0 43 19 45 57 8z" />
</ns0:g>
</g><g transform="translate(1.967138343751003,1861.741018680366) scale(0.027992408431083055)"><ns0:metadata>
Created by potrace 1.16, written by Peter Selinger 2001-2019
</ns0:metadata>
<ns0:g transform="translate(0.000000,209.000000) scale(0.100000,-0.100000)" fill="#000000" stroke="none">
<ns0:path d="M1693 1428 c-15 -24 -30 -45 -33 -48 -14 -12 -168 -276 -216 -370 -59 -115 -120 -207 -147 -224 -20 -12 -36 6 -49 54 -8 31 -47 148 -58 175 -9 22 -37 135 -49 200 -4 22 -13 50 -19 62 -7 12 -12 37 -12 57 0 26 -5 36 -20 41 -46 15 -68 -15 -84 -113 -3 -18 -17 -56 -31 -86 -14 -29 -25 -63 -25 -76 0 -13 -15 -55 -34 -94 -19 -39 -42 -89 -52 -111 -25 -58 -95 -148 -107 -136 -5 5 -13 53 -18 107 -5 55 -11 117 -14 139 -11 73 -71 215 -97 231 -17 10 -69 6 -84 -7 -20 -17 -28 -68 -13 -86 8 -9 20 -37 27 -62 7 -25 17 -59 22 -76 5 -16 20 -79 35 -140 14 -60 32 -124 40 -142 8 -17 15 -44 15 -60 0 -21 9 -36 31 -52 31 -23 31 -23 66 -5 58 31 179 193 197 264 4 14 20 57 36 95 16 39 31 78 34 88 13 41 36 3 71 -118 9 -33 27 -82 40 -110 12 -27 25 -68 29 -90 12 -66 16 -75 46 -90 53 -28 73 -20 146 58 50 52 82 98 117 167 26 53 47 99 47 104 0 4 8 20 18 34 23 32 76 128 110 197 13 28 32 61 42 75 9 14 25 55 35 92 27 103 6 130 -42 56z" />
</ns0:g>
</g><g transform="translate(-1.3155461359948504,1952.854253401446) scale(0.027992408431083055)"><ns0:metadata>
Created by potrace 1.16, written by Peter Selinger 2001-2019
</ns0:metadata>
<ns0:g transform="translate(0.000000,210.000000) scale(0.100000,-0.100000)" fill="#000000" stroke="none">
<ns0:path d="M935 1134 c-55 -7 -128 -13 -163 -12 -53 1 -66 -2 -87 -22 -35 -33 -32 -66 8 -90 18 -12 41 -18 52 -15 11 3 70 13 130 21 91 12 121 13 173 3 68 -14 107 -6 126 24 16 24 -2 48 -55 73 -66 32 -76 33 -184 18z" />
</ns0:g>
</g><g transform="translate(1.0525925419444206,2013.494501918325) scale(0.027992408431083055)"><ns0:metadata>
Created by potrace 1.16, written by Peter Selinger 2001-2019
</ns0:metadata>
<ns0:g transform="translate(0.000000,212.000000) scale(0.100000,-0.100000)" fill="#000000" stroke="none">
<ns0:path d="M1245 1335 c-67 -14 -165 -58 -189 -84 -32 -36 -46 -467 -17 -544 19 -48 78 -104 126 -117 25 -7 45 -19 45 -26 0 -13 -61 -59 -115 -86 -34 -17 -165 -51 -186 -48 -65 9 -82 -23 -21 -39 88 -25 258 1 337 51 22 14 49 28 61 32 11 3 35 22 54 41 27 28 34 44 38 89 5 61 10 57 -103 71 -107 13 -127 34 -146 155 -12 77 -8 131 18 273 l16 87 54 31 c46 25 61 29 98 24 24 -4 58 -2 77 3 18 6 49 15 68 19 32 8 35 12 35 43 l0 35 -95 1 c-52 1 -122 -4 -155 -11z" />
</ns0:g>
</g><g transform="translate(1.4292208835229872,2094.0656284514503) scale(0.027992408431083055)"><ns0:metadata>
Created by potrace 1.16, written by Peter Selinger 2001-2019
</ns0:metadata>
<ns0:g transform="translate(0.000000,207.000000) scale(0.100000,-0.100000)" fill="#000000" stroke="none">
<ns0:path d="M1230 1587 c-28 -14 -38 -46 -50 -165 -5 -45 -18 -117 -29 -160 -11 -42 -23 -90 -26 -107 -4 -16 -15 -48 -25 -70 -10 -22 -22 -53 -25 -68 -4 -15 -11 -30 -16 -33 -5 -3 -9 -12 -9 -21 0 -9 -16 -37 -35 -64 -19 -26 -42 -65 -50 -86 -9 -21 -27 -49 -39 -63 -13 -14 -31 -39 -39 -56 -9 -17 -23 -36 -31 -43 -14 -12 -16 -10 -16 10 0 13 -7 45 -15 72 -8 26 -23 155 -35 288 -13 157 -25 250 -35 269 -8 16 -15 38 -15 50 0 14 -6 20 -24 20 -32 0 -37 19 -30 110 6 73 5 79 -15 90 -18 9 -29 8 -56 -4 -36 -18 -34 -11 -64 -186 -27 -153 -60 -305 -78 -360 -21 -64 -159 -414 -204 -519 -12 -27 -18 -54 -14 -61 11 -18 72 -41 90 -34 18 7 47 66 105 214 104 267 210 494 223 481 5 -5 13 -60 18 -123 5 -62 13 -144 19 -183 20 -124 21 -138 27 -256 5 -106 7 -119 29 -143 15 -16 35 -26 52 -26 25 0 30 8 62 92 19 50 40 96 45 102 12 12 47 72 102 176 20 36 49 89 65 118 49 89 128 310 133 371 2 24 6 46 9 49 6 5 7 4 35 -88 10 -36 26 -81 34 -100 8 -19 22 -75 32 -125 9 -49 23 -110 31 -134 8 -24 28 -96 45 -160 17 -64 34 -120 40 -126 5 -5 9 -18 9 -30 0 -11 8 -46 17 -77 21 -68 50 -89 89 -63 17 11 23 22 20 38 -3 12 -7 42 -11 67 -6 46 -21 102 -35 131 -11 21 -70 222 -85 289 -14 59 -67 252 -92 335 -8 28 -19 70 -25 95 -5 25 -14 63 -19 85 -9 37 -13 61 -25 142 -6 41 -31 56 -64 40z" />
</ns0:g>
</g><g transform="translate(-0.5711417743528386,2175.989391877162) scale(0.027992408431083055)"><ns0:metadata>
Created by potrace 1.16, written by Peter Selinger 2001-2019
</ns0:metadata>
<ns0:g transform="translate(0.000000,211.000000) scale(0.100000,-0.100000)" fill="#000000" stroke="none">
<ns0:path d="M1188 1760 c-21 -4 -46 -14 -55 -22 -10 -9 -36 -21 -58 -27 -45 -12 -113 -67 -117 -95 -2 -11 8 -27 23 -38 l26 -20 49 26 c27 14 67 39 89 55 22 16 55 32 73 36 28 6 32 4 32 -15 0 -28 -64 -156 -116 -235 -98 -146 -113 -171 -113 -192 -1 -31 15 -38 89 -38 64 0 65 -1 68 -28 5 -41 -25 -160 -58 -234 -44 -96 -198 -243 -256 -243 -8 0 1 215 15 338 8 63 17 101 31 120 33 46 77 280 59 315 -30 57 -88 79 -128 49 -21 -17 -23 -28 -27 -113 -4 -129 -7 -162 -32 -337 -12 -84 -22 -207 -23 -273 -1 -65 -5 -122 -10 -125 -5 -3 -16 -1 -25 4 -19 11 -104 -12 -116 -31 -26 -41 18 -68 114 -72 56 -2 75 -7 83 -20 5 -10 18 -27 27 -39 25 -31 52 -11 56 41 3 38 5 41 65 69 87 40 206 158 246 245 42 88 72 210 74 294 2 61 -1 75 -23 104 -14 18 -35 37 -47 42 -29 11 -30 52 -3 79 11 11 20 23 20 26 0 14 53 110 71 130 35 38 55 187 29 219 -13 16 -67 18 -132 5z" />
</ns0:g>
</g><g transform="translate(0.7071050999911108,2259.5406269130463) scale(0.027992408431083055)"><ns0:metadata>
Created by potrace 1.16, written by Peter Selinger 2001-2019
</ns0:metadata>
<ns0:g transform="translate(0.000000,211.000000) scale(0.100000,-0.100000)" fill="#000000" stroke="none">
<ns0:path d="M1073 1555 c-11 -8 -28 -32 -36 -54 -9 -22 -21 -42 -27 -46 -5 -3 -10 -14 -10 -23 0 -10 -21 -58 -46 -107 -25 -50 -57 -112 -70 -140 -59 -120 -93 -183 -122 -230 -49 -78 -125 -187 -144 -205 -10 -9 -24 -32 -32 -52 -9 -20 -21 -38 -28 -41 -29 -11 17 -36 71 -39 l54 -3 31 62 c18 33 47 81 64 105 52 69 80 110 100 148 40 74 112 219 112 225 0 4 13 25 29 48 15 23 41 69 56 102 15 33 43 92 61 131 36 76 41 103 22 122 -16 16 -59 15 -85 -3z" />
</ns0:g>
</g><g transform="translate(0.06570617814418256,2331.2044591187314) scale(0.027992408431083055)"><ns0:metadata>
Created by potrace 1.16, written by Peter Selinger 2001-2019
</ns0:metadata>
<ns0:g transform="translate(0.000000,207.000000) scale(0.100000,-0.100000)" fill="#000000" stroke="none">
<ns0:path d="M1000 1675 c-93 -16 -105 -21 -124 -50 -8 -13 -31 -28 -51 -35 -19 -6 -40 -20 -45 -30 -12 -22 -12 -171 0 -290 17 -170 31 -612 20 -645 -12 -37 -80 -108 -80 -83 0 8 7 21 15 28 19 16 20 60 1 60 -14 0 -87 -74 -105 -107 -27 -52 -42 -113 -31 -133 26 -48 85 -53 132 -9 18 16 46 40 61 52 73 58 225 278 259 377 11 30 35 88 54 128 19 41 34 77 34 81 0 3 9 23 20 44 11 21 31 81 45 135 62 249 61 392 -6 463 -31 34 -70 36 -199 14z m140 -95 c27 -17 19 -196 -14 -310 -15 -52 -31 -108 -35 -125 -5 -16 -26 -66 -48 -110 -22 -44 -45 -98 -52 -120 -19 -61 -64 -149 -79 -153 -11 -4 -13 47 -8 284 7 349 6 333 18 415 8 57 14 69 39 88 17 13 33 21 35 18 2 -2 30 2 62 8 31 7 59 13 62 14 3 0 12 -4 20 -9z" />
</ns0:g>
</g><g transform="translate(-0.006846646205815432,2406.2164503519207) scale(0.027992408431083055)"><ns0:metadata>
Created by potrace 1.16, written by Peter Selinger 2001-2019
</ns0:metadata>
<ns0:g transform="translate(0.000000,209.000000) scale(0.100000,-0.100000)" fill="#000000" stroke="none">
<ns0:path d="M1227 1316 c-26 -8 -70 -26 -98 -41 -34 -17 -60 -24 -77 -21 -15 3 -34 0 -42 -7 -37 -30 -91 -121 -158 -267 -12 -25 -30 -61 -41 -80 -52 -89 -161 -331 -174 -385 -20 -80 -21 -177 -4 -217 8 -18 20 -48 27 -66 7 -18 27 -42 44 -54 17 -12 36 -29 42 -36 7 -10 29 -14 65 -14 45 0 67 8 132 44 92 52 227 173 290 260 26 35 60 81 77 103 113 147 138 198 160 328 20 120 7 313 -25 382 -14 29 -31 58 -38 63 -21 18 -128 22 -180 8z m135 -114 c18 -46 30 -240 18 -302 -19 -101 -33 -145 -50 -165 -10 -11 -25 -33 -34 -50 -22 -41 -38 -64 -61 -92 -10 -13 -37 -50 -60 -82 -48 -71 -189 -200 -262 -241 -71 -40 -103 -39 -142 5 -17 20 -34 48 -38 63 -13 52 21 200 71 305 25 53 46 100 46 103 0 13 35 81 58 112 13 17 37 56 53 85 16 28 37 68 48 88 20 36 138 139 159 139 6 0 25 13 43 29 37 34 95 52 122 39 10 -5 23 -21 29 -36z" />
</ns0:g>
</g><g transform="translate(-0.9342007274629509,2494.217469189712) scale(0.027992408431083055)"><ns0:metadata>
Created by potrace 1.16, written by Peter Selinger 2001-2019
</ns0:metadata>
<ns0:g transform="translate(0.000000,208.000000) scale(0.100000,-0.100000)" fill="#000000" stroke="none">
<ns0:path d="M871 1322 c-20 -20 -30 -42 -35 -79 -6 -47 -4 -56 21 -92 21 -30 35 -40 56 -41 21 0 30 -7 38 -27 16 -41 2 -130 -28 -183 -14 -25 -34 -61 -44 -80 -22 -44 -86 -106 -164 -158 -67 -45 -108 -93 -99 -117 3 -8 22 -22 41 -31 32 -16 35 -16 56 2 33 28 60 42 140 71 39 14 81 31 92 38 24 15 105 38 199 56 66 13 89 30 69 50 -16 16 -201 12 -255 -4 -39 -12 -48 -12 -48 -2 0 13 51 96 89 146 30 38 38 65 45 149 5 53 3 91 -7 130 -21 76 -26 88 -64 148 -38 61 -61 66 -102 24z" />
</ns0:g>
</g><g transform="translate(-0.4862743700571741,2573.3342335920097) scale(0.027992408431083055)"><ns0:metadata>
Created by potrace 1.16, written by Peter Selinger 2001-2019
</ns0:metadata>
<ns0:g transform="translate(0.000000,205.000000) scale(0.100000,-0.100000)" fill="#000000" stroke="none">
<ns0:path d="M802 1318 c-45 -67 -75 -135 -68 -153 5 -14 9 -15 21 -5 12 10 15 10 15 -3 0 -9 -4 -27 -10 -41 -5 -14 -16 -76 -25 -138 -17 -125 -33 -223 -41 -251 -5 -15 -8 -16 -20 -6 -29 24 -38 -4 -24 -78 21 -111 57 -151 107 -118 25 17 27 22 42 145 23 192 62 413 78 443 9 18 20 52 24 77 4 25 10 62 14 82 4 20 5 48 1 62 -5 22 -12 26 -46 26 -35 0 -42 -5 -68 -42z" />
</ns0:g>
</g><g transform="translate(2.617492028599713,2659.044680650925) scale(0.027992408431083055)"><ns0:metadata>
Created by potrace 1.16, written by Peter Selinger 2001-2019
</ns0:metadata>
<ns0:g transform="translate(0.000000,208.000000) scale(0.100000,-0.100000)" fill="#000000" stroke="none">
<ns0:path d="M985 1344 c-18 -20 -38 -56 -45 -82 -7 -26 -21 -67 -33 -92 -57 -127 -67 -153 -65 -163 1 -7 -2 -36 -6 -65 -14 -90 32 -146 116 -142 65 4 70 -2 44 -52 -18 -34 -29 -85 -21 -97 12 -21 45 7 96 82 32 48 63 83 78 88 15 5 34 14 43 19 10 6 28 10 40 10 12 0 49 9 83 21 66 22 102 61 90 99 -10 31 -36 32 -121 5 -130 -41 -131 -41 -85 101 34 105 80 188 107 193 10 1 34 14 52 28 25 19 32 31 30 51 -3 23 -7 27 -33 25 -145 -10 -156 -15 -186 -81 -36 -80 -79 -213 -95 -291 -8 -41 -16 -76 -18 -78 -8 -9 -63 -10 -84 -2 -21 8 -23 13 -17 52 10 71 109 284 140 301 31 17 42 36 37 66 -4 30 -23 40 -81 40 -26 0 -41 -8 -66 -36z" />
</ns0:g>
</g><g transform="translate(2.3315034336576446,2732.944373569068) scale(0.027992408431083055)"><ns0:metadata>
Created by potrace 1.16, written by Peter Selinger 2001-2019
</ns0:metadata>
<ns0:g transform="translate(0.000000,207.000000) scale(0.100000,-0.100000)" fill="#000000" stroke="none">
<ns0:path d="M1045 1611 c-3 -7 -22 -9 -43 -6 -51 8 -84 -12 -94 -55 -4 -19 -14 -55 -22 -80 -8 -25 -24 -79 -36 -120 -40 -138 -58 -184 -129 -332 -39 -81 -71 -150 -71 -153 0 -4 -6 -21 -14 -38 -111 -250 -120 -279 -94 -305 7 -7 26 -12 43 -12 29 0 34 5 57 58 14 31 33 80 42 107 9 28 31 79 49 115 30 60 35 65 77 76 26 6 58 19 72 28 17 11 35 15 52 10 20 -5 26 -2 26 10 0 17 86 62 139 72 27 6 30 4 35 -27 3 -19 13 -74 22 -124 20 -117 27 -251 13 -293 -22 -67 58 -156 96 -106 33 43 -1 418 -58 634 -23 86 -42 138 -120 323 -25 59 -29 129 -8 150 17 17 13 42 -8 61 -12 11 -21 14 -26 7z m3 -396 c22 -49 43 -104 47 -122 7 -35 19 -29 -130 -69 -113 -30 -115 -30 -115 2 0 16 12 52 25 79 14 28 25 55 25 61 0 13 35 88 62 132 26 43 32 37 86 -83z" />
</ns0:g>
</g><g transform="translate(-2.5465305688140916,2818.4042674854436) scale(0.027992408431083055)"><ns0:metadata>
Created by potrace 1.16, written by Peter Selinger 2001-2019
</ns0:metadata>
<ns0:g transform="translate(0.000000,206.000000) scale(0.100000,-0.100000)" fill="#000000" stroke="none">
<ns0:path d="M1113 1883 c-28 -6 -48 -38 -57 -92 -4 -24 -16 -64 -28 -90 -11 -25 -20 -59 -18 -76 1 -16 2 -42 3 -57 0 -43 25 -34 47 18 11 25 20 52 20 60 0 8 4 14 10 14 10 0 24 -45 40 -127 10 -57 38 -143 76 -239 14 -35 24 -69 22 -75 -6 -18 -123 -60 -198 -71 -36 -5 -79 -16 -97 -24 -17 -8 -37 -14 -44 -14 -7 0 -21 -7 -31 -17 -30 -27 -33 -6 -6 44 13 27 30 68 38 93 7 25 27 90 45 145 18 55 38 142 45 194 11 93 10 95 -12 117 -29 28 -72 22 -95 -13 -9 -14 -23 -66 -30 -116 -16 -110 -66 -314 -86 -354 -8 -15 -27 -64 -41 -108 -46 -135 -119 -329 -128 -340 -4 -5 -8 -23 -8 -41 0 -26 7 -36 36 -53 49 -29 67 -16 94 63 12 36 31 77 42 91 15 19 22 44 23 83 2 55 36 152 52 152 5 0 13 -10 18 -22 12 -29 75 -37 109 -15 12 9 54 23 92 32 38 10 74 21 79 25 6 4 34 13 64 20 68 16 73 10 95 -103 8 -45 22 -104 31 -131 l15 -49 -80 7 c-62 5 -80 4 -80 -6 0 -20 118 -88 151 -88 9 0 33 -7 54 -16 64 -27 79 -18 86 51 4 33 3 62 -1 65 -18 12 -60 121 -74 195 -24 120 -66 286 -81 320 -27 62 -66 194 -85 290 -45 230 -57 268 -79 264 -3 -1 -16 -4 -28 -6z m112 -433 c4 -6 1 -18 -6 -26 -11 -14 -13 -14 -21 0 -15 26 12 51 27 26z" />
</ns0:g>
</g><g transform="translate(2.894206987359553,2902.301780199478) scale(0.027992408431083055)"><ns0:metadata>
Created by potrace 1.16, written by Peter Selinger 2001-2019
</ns0:metadata>
<ns0:g transform="translate(0.000000,210.000000) scale(0.100000,-0.100000)" fill="#000000" stroke="none">
<ns0:path d="M756 1009 c-35 -51 -5 -121 57 -133 20 -4 50 0 74 8 37 13 223 15 348 4 l30 -3 -2 63 c-1 35 -3 65 -5 67 -2 1 -112 6 -244 10 l-242 7 -16 -23z" />
</ns0:g>
</g><g transform="translate(-2.193217462616019,2964.172102805988) scale(0.027992408431083055)"><ns0:metadata>
Created by potrace 1.16, written by Peter Selinger 2001-2019
</ns0:metadata>
<ns0:g transform="translate(0.000000,212.000000) scale(0.100000,-0.100000)" fill="#000000" stroke="none">
<ns0:path d="M1085 1599 c-22 -5 -69 -14 -105 -20 -82 -14 -119 -45 -104 -87 13 -37 54 -40 156 -8 95 30 116 32 125 9 12 -32 -44 -199 -88 -258 -16 -22 -66 -96 -112 -165 -45 -68 -87 -126 -93 -127 -10 -3 -24 130 -40 362 -3 50 -10 102 -16 118 -13 35 -46 36 -78 2 -22 -23 -23 -32 -21 -128 1 -56 11 -160 22 -230 14 -87 19 -149 14 -190 -3 -34 -5 -105 -5 -157 2 -190 -49 -432 -93 -444 -17 -4 -19 -11 -13 -48 7 -46 27 -68 61 -68 39 0 47 15 110 210 9 30 22 104 27 165 5 60 11 139 15 175 4 57 9 68 38 96 19 17 59 69 90 115 30 46 64 98 75 114 12 17 35 53 53 80 17 28 34 52 38 55 9 7 61 109 76 150 7 19 20 74 28 122 14 79 14 91 0 118 -26 50 -66 60 -160 39z m-275 -579 c0 -5 -4 -10 -10 -10 -5 0 -10 5 -10 10 0 6 5 10 10 10 6 0 10 -4 10 -10z" />
</ns0:g>
</g><g transform="translate(1.6797882418711083,3049.091090200263) scale(0.027992408431083055)"><ns0:metadata>
Created by potrace 1.16, written by Peter Selinger 2001-2019
</ns0:metadata>
<ns0:g transform="translate(0.000000,207.000000) scale(0.100000,-0.100000)" fill="#000000" stroke="none">
<ns0:path d="M1045 1611 c-3 -7 -22 -9 -43 -6 -51 8 -84 -12 -94 -55 -4 -19 -14 -55 -22 -80 -8 -25 -24 -79 -36 -120 -40 -138 -58 -184 -129 -332 -39 -81 -71 -150 -71 -153 0 -4 -6 -21 -14 -38 -111 -250 -120 -279 -94 -305 7 -7 26 -12 43 -12 29 0 34 5 57 58 14 31 33 80 42 107 9 28 31 79 49 115 30 60 35 65 77 76 26 6 58 19 72 28 17 11 35 15 52 10 20 -5 26 -2 26 10 0 17 86 62 139 72 27 6 30 4 35 -27 3 -19 13 -74 22 -124 20 -117 27 -251 13 -293 -22 -67 58 -156 96 -106 33 43 -1 418 -58 634 -23 86 -42 138 -120 323 -25 59 -29 129 -8 150 17 17 13 42 -8 61 -12 11 -21 14 -26 7z m3 -396 c22 -49 43 -104 47 -122 7 -35 19 -29 -130 -69 -113 -30 -115 -30 -115 2 0 16 12 52 25 79 14 28 25 55 25 61 0 13 35 88 62 132 26 43 32 37 86 -83z" />
</ns0:g>
</g><g transform="translate(0.6870277289198157,3126.9222307428504) scale(0.027992408431083055)"><ns0:metadata>
Created by potrace 1.16, written by Peter Selinger 2001-2019
</ns0:metadata>
<ns0:g transform="translate(0.000000,208.000000) scale(0.100000,-0.100000)" fill="#000000" stroke="none">
<ns0:path d="M1226 1665 c-12 -13 -28 -43 -35 -67 -7 -23 -18 -53 -23 -67 -6 -14 -12 -33 -14 -41 -24 -109 -43 -210 -55 -290 -5 -36 -14 -81 -19 -100 -6 -19 -21 -98 -35 -176 -13 -77 -38 -187 -55 -244 -16 -57 -36 -146 -42 -198 -11 -94 -11 -95 11 -113 53 -43 84 -10 96 101 9 82 19 132 49 245 26 93 38 154 55 265 5 36 22 119 36 185 15 66 32 149 40 185 7 36 22 90 33 120 34 93 47 166 34 195 -15 32 -46 32 -76 0z" />
<ns0:path d="M710 1553 c-28 -10 -50 -36 -50 -58 0 -11 -4 -25 -9 -30 -15 -17 -39 -116 -46 -190 -3 -38 -8 -135 -10 -215 -2 -80 -11 -174 -19 -210 -8 -36 -17 -85 -20 -110 -8 -74 -23 -132 -50 -190 -30 -63 -32 -92 -11 -114 44 -44 83 -28 111 46 36 92 44 123 44 170 0 25 9 90 20 145 11 54 20 101 20 106 0 24 23 -2 51 -60 31 -67 112 -191 133 -205 6 -4 25 -8 43 -8 27 0 33 5 44 37 11 33 10 38 -10 54 -12 10 -25 19 -29 21 -8 3 -50 75 -106 183 -18 33 -49 89 -71 124 -22 38 -39 77 -39 95 0 17 15 99 33 181 18 83 35 162 38 178 9 44 -21 67 -67 50z" />
</ns0:g>
</g><g transform="translate(0.7864137693504176,3210.196465557168) scale(0.027992408431083055)"><ns0:metadata>
Created by potrace 1.16, written by Peter Selinger 2001-2019
</ns0:metadata>
<ns0:g transform="translate(0.000000,204.000000) scale(0.100000,-0.100000)" fill="#000000" stroke="none">
<ns0:path d="M1211 1653 c-13 -3 -37 -13 -55 -24 -17 -10 -40 -19 -50 -19 -16 0 -72 -23 -149 -62 -10 -5 -66 -24 -125 -43 -59 -19 -115 -39 -124 -45 -10 -5 -24 -10 -31 -10 -18 0 -97 -73 -97 -89 0 -7 13 -26 30 -42 32 -33 56 -33 95 1 27 23 132 80 147 80 7 0 45 16 83 35 39 19 75 35 82 35 6 0 18 6 25 13 20 18 56 37 70 37 6 0 21 8 32 19 21 18 97 48 149 58 59 11 40 64 -22 62 -20 -1 -47 -4 -60 -6z" />
<ns0:path d="M1007 1448 c-17 -6 -29 -19 -32 -36 -3 -15 -10 -42 -16 -60 -10 -31 -23 -137 -35 -277 -26 -328 -41 -442 -57 -452 -5 -3 -45 -5 -88 -4 -128 3 -269 -39 -269 -80 0 -21 2 -21 145 -14 123 6 151 5 188 -10 24 -9 59 -15 77 -13 28 2 35 8 41 32 5 16 13 32 19 36 6 4 13 51 16 106 2 54 6 113 8 129 3 17 7 66 11 110 25 332 38 411 71 459 15 22 9 45 -20 68 -24 20 -22 20 -59 6z" />
</ns0:g>
</g><g transform="translate(0.08315521033620143,3292.8017643680882) scale(0.027992408431083055)"><ns0:metadata>
Created by potrace 1.16, written by Peter Selinger 2001-2019
</ns0:metadata>
<ns0:g transform="translate(0.000000,209.000000) scale(0.100000,-0.100000)" fill="#000000" stroke="none">
<ns0:path d="M1014 1571 c-22 -10 -56 -32 -75 -48 -32 -27 -96 -54 -195 -82 -32 -8 -45 -18 -54 -41 -15 -36 -3 -72 29 -89 16 -9 24 -7 39 9 11 12 43 30 72 41 63 24 79 16 61 -30 -21 -49 -37 -303 -29 -456 3 -77 5 -147 2 -157 -6 -19 -31 -26 -121 -33 -96 -7 -147 -47 -128 -101 16 -44 53 -48 185 -19 63 14 160 27 215 30 146 7 217 16 230 29 37 37 13 101 -33 92 -50 -11 -202 -15 -224 -7 -15 5 -22 17 -23 42 -6 78 -6 359 -1 368 3 5 9 37 12 72 9 95 67 258 102 289 26 22 29 30 25 68 -6 49 -22 53 -89 23z" />
</ns0:g>
</g><g transform="translate(-2.296993737694663,3369.0469653483788) scale(0.027992408431083055)"><ns0:metadata>
Created by potrace 1.16, written by Peter Selinger 2001-2019
</ns0:metadata>
<ns0:g transform="translate(0.000000,211.000000) scale(0.100000,-0.100000)" fill="#000000" stroke="none">
<ns0:path d="M1175 1579 c-22 -5 -76 -27 -120 -49 -44 -21 -93 -42 -109 -46 -56 -14 -191 -74 -201 -90 -5 -10 -18 -24 -27 -33 -23 -20 -23 -33 3 -65 22 -28 54 -34 62 -13 3 8 45 32 94 56 48 23 101 48 117 57 16 8 30 13 31 12 2 -2 -1 -28 -6 -59 -11 -68 -24 -174 -44 -339 -8 -69 -19 -161 -24 -205 -6 -44 -16 -134 -22 -200 -13 -142 -7 -170 41 -177 49 -7 62 28 71 205 7 142 28 336 50 481 6 37 13 83 14 100 2 18 14 65 28 104 26 75 77 137 124 148 29 8 57 57 48 85 -12 35 -56 45 -130 28z" />
</ns0:g>
</g></svg>