<?xml version='1.0' encoding='utf-8'?>
<svg xmlns:ns0="http://www.w3.org/2000/svg" xmlns="http://www.w3.org/2000/svg" width="235" height="152" viewBox="0 0 235 152"><g transform="translate(0.9808328730096605,-122.29308220758574) scale(0.06415263093695735)"><ns0:metadata>
Created by potrace 1.16, written by Peter Selinger 2001-2019
</ns0:metadata>
<ns0:g transform="translate(0.000000,209.000000) scale(0.100000,-0.100000)" fill="#000000" stroke="none">
<ns0:path d="M1381 1876 c-22 -23 -23 -33 -26 -188 -2 -132 -7 -174 -23 -223 -12 -33 -28 -82 -37 -110 -9 -27 -26 -69 -37 -93 -21 -44 -19 -72 5 -72 18 0 117 106 117 126 0 12 24 63 47 103 2 2 15 -1 29 -8 24 -11 30 -9 53 13 14 13 48 33 76 44 62 24 76 44 51 71 -26 29 -81 27 -131 -4 -22 -13 -42 -25 -45 -25 -3 0 -5 87 -5 192 l0 193 -25 3 c-17 2 -34 -6 -49 -22z" />
<ns0:path d="M1085 1837 c-16 -5 -50 -28 -75 -51 -25 -23 -67 -57 -95 -75 -27 -19 -61 -44 -75 -56 -39 -35 -66 -40 -84 -14 -10 15 -26 22 -46 22 -37 0 -49 -10 -60 -54 -5 -19 -16 -54 -25 -78 -9 -25 -18 -85 -21 -135 -4 -80 -19 -266 -40 -492 -10 -116 29 -111 71 9 25 70 36 131 62 350 l17 147 47 48 c26 26 64 61 85 78 42 33 160 114 167 114 12 0 -49 -505 -64 -525 -12 -17 -22 -102 -11 -109 17 -10 71 49 95 105 32 72 69 273 81 434 14 187 18 283 10 287 -5 3 -22 1 -39 -5z" />
<ns0:path d="M825 1413 c-16 -8 -32 -17 -34 -19 -5 -5 -28 -126 -47 -254 -31 -209 -87 -369 -157 -445 -10 -11 -35 -41 -54 -67 -20 -26 -47 -49 -60 -52 -32 -9 -31 -44 2 -56 28 -11 51 -5 59 16 3 8 11 14 18 14 7 0 29 16 47 35 19 19 42 37 50 40 9 3 31 28 49 55 17 28 36 50 41 50 5 0 18 -15 29 -34 35 -59 96 -80 236 -81 89 0 89 0 90 -26 2 -28 67 -106 101 -119 19 -7 147 22 170 39 5 4 30 13 55 21 25 7 59 21 75 31 17 9 46 20 66 24 57 11 99 40 99 71 0 28 9 28 -129 4 -35 -6 -66 -8 -69 -5 -3 3 8 25 25 49 116 164 120 401 8 422 -58 11 -136 -12 -177 -53 -32 -32 -38 -44 -38 -80 0 -31 5 -45 16 -50 18 -7 84 22 84 36 0 5 14 18 32 29 47 30 68 15 68 -46 -1 -84 -58 -194 -139 -267 -24 -22 -57 -52 -72 -67 -15 -16 -31 -28 -36 -28 -4 0 -7 27 -7 60 1 49 -2 63 -16 70 -32 17 -53 102 -45 185 6 69 5 74 -15 80 -27 8 -30 5 -70 -70 -32 -62 -36 -107 -15 -187 l7 -28 -56 0 c-82 0 -143 18 -167 48 -11 15 -33 32 -49 38 l-28 12 14 54 c8 29 22 77 30 107 9 30 22 93 30 140 21 132 31 172 53 221 27 59 26 74 -4 88 -32 15 -33 15 -70 -5z" />
</ns0:g>
</g><g transform="translate(0.7374543742285482,40.47935341408785) scale(0.06415263093695735)"><ns0:metadata>
Created by potrace 1.16, written by Peter Selinger 2001-2019
</ns0:metadata>
<ns0:g transform="translate(0.000000,207.000000) scale(0.100000,-0.100000)" fill="#000000" stroke="none">
<ns0:path d="M1098 1813 c-38 -10 -47 -47 -58 -220 -13 -222 -16 -234 -83 -268 -18 -8 -61 -33 -97 -55 -106 -64 -122 -72 -128 -65 -3 3 2 41 11 83 9 42 24 107 31 144 8 36 22 81 31 98 17 34 48 217 40 238 -10 25 -55 33 -86 15 -34 -20 -43 -46 -69 -212 -10 -64 -26 -150 -34 -191 -9 -41 -16 -92 -16 -112 0 -20 -15 -83 -34 -140 -19 -57 -37 -119 -41 -138 -18 -95 -130 -487 -152 -531 -8 -16 -32 -78 -52 -137 -31 -87 -43 -109 -65 -120 -39 -20 -30 -46 16 -50 26 -2 43 3 56 16 24 24 87 130 97 163 4 13 20 52 36 86 15 34 35 86 44 115 53 174 46 161 100 181 28 9 59 22 70 26 11 5 43 17 70 27 28 10 52 21 55 25 3 3 16 10 30 14 14 4 42 19 63 32 22 14 40 23 42 21 2 -2 -6 -37 -17 -78 -25 -94 -32 -390 -10 -412 21 -21 38 12 46 89 4 36 16 94 28 127 11 34 29 99 38 146 10 47 30 123 45 170 36 117 45 168 30 180 -20 16 -44 4 -165 -86 -127 -93 -207 -132 -312 -151 -24 -4 -28 -2 -28 16 0 32 24 83 54 116 14 15 26 34 26 40 0 14 131 135 146 135 5 0 27 14 48 30 73 55 85 31 36 -76 -23 -52 -26 -66 -15 -70 8 -3 18 -3 24 0 13 9 118 205 126 237 6 24 89 119 104 119 11 0 84 100 78 106 -10 10 -74 -16 -92 -36 -10 -11 -22 -20 -27 -20 -14 0 15 259 33 292 6 11 4 29 -8 52 -16 34 -27 39 -65 29z" />
</ns0:g>
</g><g transform="translate(2.7924343141854138,235.96555536836712) scale(0.06415263093695735)"><ns0:metadata>
Created by potrace 1.16, written by Peter Selinger 2001-2019
</ns0:metadata>
<ns0:g transform="translate(0.000000,201.000000) scale(0.100000,-0.100000)" fill="#000000" stroke="none">
<ns0:path d="M1315 1576 c-33 -11 -74 -29 -92 -38 -18 -10 -40 -18 -51 -18 -10 0 -22 -4 -27 -9 -6 -4 -37 -18 -70 -29 -111 -39 -146 -52 -196 -77 -27 -14 -81 -32 -121 -40 -40 -9 -80 -23 -90 -32 -54 -49 23 -139 90 -104 49 26 252 119 282 130 19 7 53 20 75 28 22 8 47 20 55 27 8 7 33 18 55 24 158 42 169 47 177 83 9 41 2 79 -15 78 -6 -1 -39 -11 -72 -23z" />
<ns0:path d="M1193 1150 c-34 -16 -95 -41 -137 -54 -41 -14 -85 -31 -98 -39 -13 -8 -56 -25 -96 -38 -103 -32 -121 -74 -50 -117 26 -15 31 -15 80 3 29 10 64 27 77 37 13 10 42 23 65 28 22 6 50 15 61 20 87 40 137 58 153 53 28 -7 82 43 82 76 0 32 -27 61 -56 61 -10 -1 -47 -14 -81 -30z" />
<ns0:path d="M1605 740 c-60 -20 -135 -47 -165 -58 -30 -11 -89 -30 -130 -42 -41 -12 -89 -28 -107 -36 -17 -8 -37 -14 -45 -14 -8 0 -18 -4 -24 -9 -14 -13 -130 -48 -204 -61 -36 -7 -87 -19 -115 -27 -27 -8 -86 -18 -130 -23 -104 -11 -113 -15 -121 -56 -12 -65 12 -84 85 -66 57 14 236 55 316 72 33 7 64 17 69 22 6 4 22 8 37 8 35 0 127 29 159 50 27 18 141 60 164 60 7 0 35 12 62 26 48 26 138 54 172 54 9 0 33 5 53 10 33 9 37 14 42 51 11 80 6 82 -118 39z" />
</ns0:g>
</g><g transform="translate(1.733488104610501,394.26076585892497) scale(0.06415263093695735)"><ns0:metadata>
Created by potrace 1.16, written by Peter Selinger 2001-2019
</ns0:metadata>
<ns0:g transform="translate(0.000000,208.000000) scale(0.100000,-0.100000)" fill="#000000" stroke="none">
<ns0:path d="M773 1862 c-13 -10 -23 -32 -26 -57 -3 -22 -10 -58 -15 -80 -6 -22 -19 -86 -28 -142 -10 -57 -21 -103 -24 -103 -3 0 -16 -9 -28 -20 -19 -18 -53 -39 -131 -80 -36 -19 -225 -180 -252 -215 -24 -30 -18 -59 17 -82 20 -13 30 -14 50 -4 14 6 40 11 59 11 30 0 35 4 41 28 14 69 68 136 143 179 25 15 57 36 70 47 l23 21 -7 -65 c-14 -128 -42 -240 -66 -268 -13 -15 -55 -61 -94 -103 -38 -42 -82 -92 -96 -112 -14 -20 -45 -59 -69 -88 -62 -72 -160 -216 -183 -269 -11 -25 -23 -47 -27 -50 -19 -13 -80 -93 -80 -106 0 -8 10 -14 24 -14 28 0 138 109 176 174 14 24 43 64 65 88 22 24 54 61 70 82 70 89 158 186 169 186 9 0 8 -28 -6 -112 -24 -152 -45 -267 -67 -363 -10 -44 -26 -116 -35 -160 -9 -44 -21 -99 -27 -123 -11 -52 -7 -62 30 -62 23 0 31 6 41 32 7 18 23 57 36 86 13 29 24 66 24 82 0 17 9 63 19 103 11 39 23 95 26 122 4 28 16 91 27 140 10 50 28 140 38 200 23 129 56 251 75 281 8 12 11 31 8 43 -7 26 27 229 47 276 4 11 13 38 19 60 7 28 24 52 52 75 22 19 56 48 75 64 65 54 31 71 -57 27 -34 -17 -64 -29 -67 -27 -11 12 23 154 49 204 17 30 28 61 25 68 -5 12 -68 44 -85 44 -3 0 -16 -8 -28 -18z" />
<ns0:path d="M1445 1740 c-129 -17 -194 -94 -115 -135 42 -22 80 -18 109 9 27 24 80 46 112 46 39 0 13 -67 -78 -202 -46 -69 -250 -283 -315 -331 -46 -34 -50 -68 -12 -93 21 -15 49 -17 163 -16 120 2 140 0 154 -16 14 -15 14 -21 1 -57 -8 -22 -22 -62 -30 -89 -9 -27 -24 -61 -33 -75 -52 -76 -70 -109 -76 -133 -4 -15 -13 -32 -21 -39 -8 -6 -14 -17 -14 -24 0 -6 -9 -20 -20 -30 -19 -17 -22 -15 -110 41 -50 33 -108 67 -128 77 -20 11 -46 27 -57 37 -11 10 -30 21 -42 25 -26 7 -29 31 -10 60 7 11 31 63 52 115 21 52 56 129 77 172 21 42 38 78 38 81 0 3 16 29 35 58 19 30 35 59 35 65 0 6 14 23 30 37 17 15 30 31 30 36 0 21 -44 46 -81 46 -54 0 -79 -29 -124 -150 -21 -55 -55 -136 -76 -180 -21 -44 -57 -125 -79 -180 -23 -55 -53 -119 -66 -142 -22 -39 -27 -42 -50 -33 -37 15 -44 5 -44 -57 0 -31 -5 -71 -12 -90 -15 -41 -6 -51 28 -28 30 19 21 22 156 -45 64 -31 94 -41 113 -36 23 6 25 10 19 46 -5 32 -3 40 8 40 9 0 22 -7 29 -16 8 -9 32 -25 54 -35 22 -10 49 -25 59 -33 18 -14 18 -17 3 -40 -9 -13 -35 -37 -57 -53 -23 -15 -57 -41 -77 -56 -33 -25 -42 -27 -97 -22 -32 3 -65 10 -72 16 -21 17 -26 -7 -9 -40 40 -79 210 -62 327 33 99 79 110 86 137 80 32 -7 149 -59 201 -89 14 -8 57 -27 95 -41 39 -15 90 -42 114 -61 24 -18 53 -33 65 -33 31 0 160 56 165 72 2 7 12 21 22 31 23 21 24 46 5 72 -13 19 -15 19 -33 3 -25 -23 -86 -48 -116 -48 -25 0 -284 105 -328 133 -13 8 -45 22 -71 32 -73 27 -75 35 -34 103 19 32 40 69 45 82 10 24 15 33 52 90 19 31 65 179 74 239 5 36 1 50 -17 77 -32 47 -71 63 -171 70 -95 8 -97 11 -44 67 12 14 40 46 62 72 22 27 75 84 119 128 88 89 134 173 143 264 5 47 3 57 -17 78 -20 22 -32 25 -84 24 -34 -1 -83 -5 -111 -9z m-128 -1212 c-3 -8 -6 -5 -6 6 -1 11 2 17 5 13 3 -3 4 -12 1 -19z" />
</ns0:g>
</g><g transform="translate(-0.16954634669804136,593.7215200481587) scale(0.06415263093695735)"><ns0:metadata>
Created by potrace 1.16, written by Peter Selinger 2001-2019
</ns0:metadata>
<ns0:g transform="translate(0.000000,216.000000) scale(0.100000,-0.100000)" fill="#000000" stroke="none">
<ns0:path d="M751 2123 c-40 -46 -121 -173 -121 -189 0 -6 9 -14 20 -17 16 -4 24 3 38 36 23 53 141 183 165 184 7 0 19 2 27 4 24 6 19 -86 -8 -142 -12 -25 -22 -49 -22 -53 0 -4 -16 -44 -35 -88 -33 -76 -35 -82 -20 -104 19 -29 67 -32 94 -6 10 9 33 46 51 81 38 76 58 107 122 183 27 31 48 59 48 62 0 4 11 24 25 46 l25 40 -38 0 c-29 0 -48 -8 -79 -35 -47 -40 -53 -42 -53 -16 0 48 -7 51 -110 51 l-97 0 -32 -37z" />
<ns0:path d="M381 2064 c-17 -14 -31 -35 -31 -46 0 -45 -78 -291 -118 -373 -38 -77 -109 -240 -122 -278 -9 -29 -9 -42 -1 -50 17 -17 41 2 70 57 14 26 36 59 49 72 12 14 22 31 22 38 0 7 4 16 9 22 11 11 114 216 131 262 10 25 17 31 29 26 36 -15 71 -15 93 0 12 9 35 16 50 16 21 0 29 6 34 25 4 14 1 32 -6 40 -17 21 -77 29 -118 17 -20 -6 -38 -10 -40 -7 -2 2 1 19 6 37 18 59 21 138 5 154 -20 19 -27 18 -62 -12z" />
<ns0:path d="M1127 1913 c-20 -8 -37 -19 -37 -23 0 -4 -21 -13 -47 -20 -59 -15 -84 -41 -77 -78 5 -24 0 -30 -35 -47 -22 -11 -79 -46 -127 -79 -87 -58 -88 -59 -102 -37 -21 31 -85 29 -117 -4 -30 -29 -31 -39 -5 -72 28 -36 25 -63 -16 -123 -19 -28 -42 -69 -49 -90 -8 -22 -19 -49 -26 -61 l-11 -22 -18 23 -18 24 -40 -26 -39 -26 -6 -114 c-3 -62 -9 -123 -12 -135 -5 -15 0 -28 15 -43 l22 -22 23 31 22 31 15 -22 c8 -13 17 -30 21 -40 3 -9 22 -22 41 -29 33 -12 35 -16 40 -63 8 -82 5 -128 -9 -150 -7 -12 -23 -50 -35 -86 -28 -79 -23 -135 13 -144 22 -5 23 -10 23 -80 -1 -101 19 -130 93 -134 43 -3 58 1 84 21 18 13 41 27 52 30 11 4 43 32 70 62 28 30 86 93 130 138 81 84 155 177 155 195 0 5 9 21 21 36 26 33 67 136 80 200 11 58 -2 111 -32 127 -50 26 -215 -9 -330 -71 -20 -11 -44 -20 -52 -20 -9 0 -29 -12 -44 -26 -15 -14 -47 -39 -70 -56 l-43 -29 0 35 c0 27 6 39 26 53 87 60 188 176 217 251 23 59 34 177 17 197 -38 45 -155 -7 -196 -88 -34 -66 -24 -94 35 -99 l40 -3 -42 -61 c-70 -102 -127 -142 -127 -90 0 12 -5 37 -11 54 -9 25 -19 34 -52 43 -29 8 -47 8 -65 -1 -30 -13 -36 -8 -28 25 7 28 17 39 89 100 26 22 55 55 64 74 18 37 151 173 204 209 70 47 106 69 154 95 76 41 267 116 282 110 33 -13 -9 -124 -82 -221 -39 -51 -42 -60 -18 -69 11 -4 28 7 55 38 22 24 58 64 80 87 50 55 72 117 65 185 -6 71 -32 91 -109 84 l-58 -5 0 28 c0 36 -16 41 -63 23z m-322 -682 c-3 -6 -11 -11 -17 -11 -6 0 -6 6 2 15 14 17 26 13 15 -4z m-277 -215 c2 -28 0 -37 -10 -34 -7 3 -14 22 -16 42 -2 28 0 37 10 34 7 -3 14 -22 16 -42z m602 -63 c0 -25 -60 -157 -83 -183 -13 -14 -39 -50 -59 -80 -21 -30 -70 -89 -110 -131 -40 -42 -84 -89 -98 -106 -37 -44 -133 -105 -154 -97 -19 7 -15 50 12 118 15 38 15 40 -5 53 -18 12 -19 17 -7 74 25 123 63 175 187 257 45 30 171 90 217 104 35 11 100 5 100 -9z" />
</ns0:g>
</g></svg>