<?xml version='1.0' encoding='utf-8'?>
<svg xmlns:ns0="http://www.w3.org/2000/svg" xmlns="http://www.w3.org/2000/svg" width="235" height="136" viewBox="0 0 235 136"><g transform="translate(-1.4924373295971236,-110.84742123910308) scale(0.05739972241727762)"><ns0:metadata>
Created by potrace 1.16, written by Peter Selinger 2001-2019
</ns0:metadata>
<ns0:g transform="translate(0.000000,208.000000) scale(0.100000,-0.100000)" fill="#000000" stroke="none">
<ns0:path d="M948 1211 c-21 -12 -28 -24 -28 -48 0 -46 45 -70 128 -68 34 1 65 5 69 8 8 9 87 9 96 1 7 -8 -27 -87 -61 -139 -29 -45 -84 -90 -149 -123 -54 -28 -62 -50 -28 -79 30 -26 74 -29 114 -8 16 8 47 17 70 21 35 6 41 4 41 -10 0 -30 -131 -183 -173 -202 -20 -9 -42 -23 -48 -30 -6 -7 -34 -20 -62 -30 -29 -9 -59 -23 -67 -31 -13 -13 -13 -16 5 -29 13 -10 30 -13 50 -9 17 4 48 11 70 15 93 17 243 120 281 192 8 15 25 43 38 63 19 27 24 49 25 94 0 65 -7 75 -57 86 l-33 7 40 73 c40 75 60 161 46 204 -12 38 -52 49 -200 54 -118 4 -144 2 -167 -12z" />
</ns0:g>
</g><g transform="translate(-1.5307346349923705,63.29856707143537) scale(0.05739972241727762)"><ns0:metadata>
Created by potrace 1.16, written by Peter Selinger 2001-2019
</ns0:metadata>
<ns0:g transform="translate(0.000000,210.000000) scale(0.100000,-0.100000)" fill="#000000" stroke="none">
<ns0:path d="M1210 915 c-14 -7 -33 -16 -43 -19 -40 -13 -65 -149 -32 -176 8 -7 15 -18 15 -24 0 -7 13 -25 29 -40 28 -27 29 -27 67 -11 49 20 71 41 96 89 31 60 20 107 -34 156 -47 43 -61 46 -98 25z" />
</ns0:g>
</g><g transform="translate(-1.911333120577865,219.6142188537935) scale(0.05739972241727762)"><ns0:metadata>
Created by potrace 1.16, written by Peter Selinger 2001-2019
</ns0:metadata>
<ns0:g transform="translate(0.000000,208.000000) scale(0.100000,-0.100000)" fill="#000000" stroke="none">
<ns0:path d="M871 1322 c-20 -20 -30 -42 -35 -79 -6 -47 -4 -56 21 -92 21 -30 35 -40 56 -41 21 0 30 -7 38 -27 16 -41 2 -130 -28 -183 -14 -25 -34 -61 -44 -80 -22 -44 -86 -106 -164 -158 -67 -45 -108 -93 -99 -117 3 -8 22 -22 41 -31 32 -16 35 -16 56 2 33 28 60 42 140 71 39 14 81 31 92 38 24 15 105 38 199 56 66 13 89 30 69 50 -16 16 -201 12 -255 -4 -39 -12 -48 -12 -48 -2 0 13 51 96 89 146 30 38 38 65 45 149 5 53 3 91 -7 130 -21 76 -26 88 -64 148 -38 61 -61 66 -102 24z" />
</ns0:g>
</g></svg>