<?xml version='1.0' encoding='utf-8'?>
<svg xmlns:ns0="http://www.w3.org/2000/svg" xmlns="http://www.w3.org/2000/svg" width="235" height="136" viewBox="0 0 235 136"><g transform="translate(-1.088349656204457,-65.11051647135592) scale(0.027992408431083055)"><ns0:metadata>
Created by potrace 1.16, written by Peter Selinger 2001-2019
</ns0:metadata>
<ns0:g transform="translate(0.000000,211.000000) scale(0.100000,-0.100000)" fill="#000000" stroke="none">
<ns0:path d="M495 1880 c-62 -34 -37 -108 39 -113 38 -3 61 -24 72 -64 12 -43 9 -45 -116 -108 -30 -15 -62 -31 -70 -35 -8 -5 -52 -27 -97 -49 -69 -35 -82 -45 -88 -71 -5 -21 -2 -39 9 -55 25 -39 70 -37 139 6 27 16 53 29 58 29 6 0 8 -25 4 -65 -4 -36 -7 -91 -7 -122 0 -32 -6 -96 -14 -143 -7 -47 -15 -107 -18 -135 -10 -101 -25 -216 -30 -224 -3 -4 -8 -35 -10 -69 -3 -33 -13 -100 -21 -148 -9 -49 -21 -116 -26 -149 -6 -33 -21 -92 -35 -131 -13 -39 -24 -77 -24 -86 0 -8 -9 -35 -19 -59 -36 -84 -36 -91 -5 -87 23 3 34 15 68 83 90 176 127 311 166 610 5 44 22 159 36 255 14 96 29 227 34 290 11 136 19 190 31 190 5 0 9 10 9 23 0 31 6 37 85 89 39 26 79 56 89 67 11 12 25 21 32 21 7 0 27 14 44 30 17 17 37 30 45 30 8 0 20 8 27 19 7 10 23 21 35 25 17 6 189 109 202 122 2 2 -2 10 -9 19 -14 17 -56 20 -65 5 -3 -5 -14 -10 -23 -10 -10 0 -89 -36 -176 -80 -87 -44 -160 -80 -162 -80 -2 0 -4 10 -4 22 0 13 -10 46 -22 75 -19 48 -26 54 -67 67 -74 23 -85 24 -116 6z m-65 -1219 c0 -12 -20 -25 -27 -18 -7 7 6 27 18 27 5 0 9 -4 9 -9z" />
</ns0:g>
</g><g transform="translate(1.5117305237189385,22.807093714886832) scale(0.027992408431083055)"><ns0:metadata>
Created by potrace 1.16, written by Peter Selinger 2001-2019
</ns0:metadata>
<ns0:g transform="translate(0.000000,211.000000) scale(0.100000,-0.100000)" fill="#000000" stroke="none">
<ns0:path d="M936 1950 c-65 -8 -86 -26 -86 -71 0 -15 -5 -40 -11 -56 -6 -15 -16 -68 -23 -117 l-11 -89 -40 -16 c-63 -25 -105 -59 -105 -85 0 -33 41 -68 76 -64 27 3 29 1 26 -30 -3 -30 -43 -149 -92 -272 -12 -30 -32 -87 -45 -126 -22 -71 -69 -164 -109 -219 -34 -46 -37 -61 -15 -89 29 -37 64 -34 103 9 18 19 37 35 42 35 5 0 30 21 54 46 25 25 74 66 110 91 36 26 73 55 84 66 10 10 42 34 71 53 29 18 55 37 57 42 3 8 109 45 113 40 9 -10 12 -295 4 -370 -5 -51 -12 -123 -16 -161 -3 -37 -9 -67 -13 -67 -13 0 -47 45 -76 99 -16 30 -59 85 -97 122 -84 84 -121 95 -194 54 -61 -34 -89 -75 -141 -207 -42 -107 -47 -132 -36 -162 12 -31 34 -16 63 43 16 32 41 71 54 87 13 16 34 48 45 70 20 39 74 94 92 94 24 0 83 -47 101 -79 37 -67 94 -157 124 -196 17 -21 41 -61 55 -89 18 -36 32 -52 48 -54 26 -4 51 21 52 51 0 9 4 17 8 17 9 0 31 274 42 530 5 96 11 190 15 209 7 31 10 33 41 28 19 -3 50 -18 69 -33 31 -23 39 -25 61 -16 37 17 39 37 8 76 -32 40 -48 49 -126 71 l-58 16 0 48 c0 40 5 53 30 79 33 35 38 59 14 69 -24 9 -128 -15 -141 -34 -7 -9 -14 -42 -14 -72 -2 -101 -8 -113 -60 -127 -26 -6 -62 -23 -80 -36 -19 -14 -55 -35 -80 -46 -25 -10 -62 -36 -82 -56 -20 -20 -41 -36 -47 -36 -6 0 -29 -14 -51 -32 -21 -17 -41 -29 -44 -27 -5 5 36 121 87 249 19 47 47 131 62 187 31 114 56 148 142 198 27 16 51 31 54 34 9 11 88 71 93 71 3 0 16 9 29 20 12 11 51 40 86 65 47 34 62 51 62 70 0 14 -3 25 -7 25 -21 -1 -82 -28 -107 -47 -16 -13 -33 -23 -38 -23 -5 0 -37 -19 -71 -42 -83 -57 -170 -99 -181 -88 -14 14 34 182 61 212 8 10 31 22 50 29 19 6 32 16 30 22 -4 15 -45 17 -121 7z m-256 -915 c-7 -9 -15 -13 -17 -11 -7 7 7 26 19 26 6 0 6 -6 -2 -15z" />
<ns0:path d="M1484 904 c-46 -24 -50 -32 -26 -57 12 -13 22 -28 22 -34 0 -11 47 -27 124 -43 81 -17 106 29 39 72 -116 73 -129 77 -159 62z" />
</ns0:g>
</g><g transform="translate(2.0709652855076115,97.37484727798414) scale(0.027992408431083055)"><ns0:metadata>
Created by potrace 1.16, written by Peter Selinger 2001-2019
</ns0:metadata>
<ns0:g transform="translate(0.000000,208.000000) scale(0.100000,-0.100000)" fill="#000000" stroke="none">
<ns0:path d="M866 2048 c-23 -36 -47 -135 -57 -229 -5 -47 -16 -99 -24 -115 -8 -16 -15 -46 -15 -68 0 -32 2 -36 14 -27 9 8 16 8 20 2 11 -18 -2 -375 -18 -481 -9 -58 -20 -134 -26 -170 -5 -36 -12 -114 -15 -175 -10 -185 -12 -198 -39 -265 -14 -36 -34 -96 -46 -135 -17 -59 -28 -77 -68 -112 l-47 -42 22 -20 c28 -27 48 -26 98 2 48 27 68 65 118 222 39 119 57 206 57 269 0 46 9 86 19 86 11 0 56 -84 68 -129 16 -60 27 -69 61 -50 24 14 27 20 25 67 -2 33 -11 67 -26 94 -14 24 -36 63 -50 87 -28 48 -26 63 10 101 13 14 37 42 54 63 24 29 38 37 63 37 26 0 45 13 101 68 39 37 93 81 120 97 59 34 155 102 283 202 51 40 96 73 99 73 19 0 -29 -322 -65 -435 -11 -33 -23 -76 -27 -95 -13 -65 -45 -153 -71 -197 -26 -44 -26 -73 -1 -73 17 0 100 86 120 125 45 86 127 423 148 605 6 58 16 114 22 125 16 30 26 117 15 138 -5 9 -17 17 -26 17 -25 0 -72 -23 -72 -35 -1 -5 -22 -27 -48 -47 -26 -21 -70 -58 -97 -83 -28 -25 -70 -58 -95 -72 -25 -15 -59 -39 -76 -53 -34 -30 -147 -100 -160 -100 -4 0 4 12 18 28 27 29 138 187 138 197 0 3 20 33 43 68 62 88 97 170 97 225 0 46 -14 62 -55 62 -54 0 -277 -159 -364 -261 -84 -96 -91 -141 -28 -163 31 -11 49 1 87 61 43 68 132 163 172 184 21 10 42 28 48 39 10 18 40 29 40 14 0 -10 -23 -49 -79 -133 -31 -46 -78 -118 -104 -160 -27 -42 -60 -87 -74 -101 -14 -13 -33 -41 -43 -60 -10 -19 -31 -49 -47 -67 -24 -27 -79 -95 -181 -223 -11 -14 -23 -22 -27 -18 -4 3 1 66 10 140 9 73 20 243 25 378 6 169 15 281 29 360 12 63 21 130 21 148 0 31 -2 32 -40 32 -30 0 -43 -5 -54 -22z" />
<ns0:path d="M494 1632 c-6 -4 -23 -30 -37 -59 -31 -59 -42 -69 -62 -53 -17 14 -65 5 -77 -13 -4 -7 -8 -37 -8 -67 0 -30 -7 -84 -16 -120 -8 -36 -26 -118 -40 -183 -13 -65 -42 -174 -63 -242 -63 -196 -64 -225 -11 -244 27 -9 31 -7 49 22 34 56 108 300 130 432 4 22 13 51 21 65 7 13 17 38 21 55 14 54 63 165 69 158 4 -5 3 -87 -2 -183 -5 -96 -7 -254 -6 -350 l3 -175 36 -3 c35 -3 37 -2 53 47 18 55 21 127 7 136 -6 3 -2 23 9 48 24 52 27 127 5 127 -14 0 -15 21 -8 173 10 212 9 316 -1 385 -8 47 -11 52 -35 52 -14 0 -31 -4 -37 -8z" />
<ns0:path d="M1345 1078 c-55 -20 -74 -46 -101 -145 -8 -32 -22 -80 -30 -108 -7 -27 -19 -72 -25 -100 -12 -55 -46 -154 -58 -170 -5 -5 -14 -28 -21 -50 -21 -65 -101 -217 -134 -253 -28 -29 -29 -34 -14 -48 10 -10 23 -14 36 -9 27 8 144 140 164 185 9 19 26 56 38 81 l21 46 47 -5 c26 -2 56 -13 67 -23 11 -10 46 -30 77 -44 32 -14 60 -30 63 -35 3 -4 17 -11 31 -14 25 -7 85 -33 223 -99 83 -39 97 -32 94 48 -3 72 -23 99 -70 92 -48 -8 -164 33 -332 119 l-74 38 -50 -18 c-27 -10 -51 -16 -53 -13 -2 2 3 21 11 41 9 20 20 60 26 89 30 160 87 295 147 348 41 35 42 38 23 48 -24 13 -66 13 -106 -1z" />
</ns0:g>
</g><g transform="translate(-2.5540167667719516,175.4720835041491) scale(0.027992408431083055)"><ns0:metadata>
Created by potrace 1.16, written by Peter Selinger 2001-2019
</ns0:metadata>
<ns0:g transform="translate(0.000000,206.000000) scale(0.100000,-0.100000)" fill="#000000" stroke="none">
<ns0:path d="M1282 2030 c-38 -23 -71 -88 -72 -140 0 -44 -6 -53 -50 -75 -19 -10 -49 -29 -66 -41 -17 -13 -34 -24 -38 -24 -12 0 -158 -99 -188 -128 -41 -38 -39 -84 6 -111 18 -12 40 -21 49 -21 8 0 29 24 45 54 22 37 44 61 77 81 26 15 56 36 67 47 11 11 22 17 25 15 6 -7 -30 -149 -54 -210 -12 -31 -30 -54 -51 -67 -38 -24 -95 -100 -102 -138 -4 -23 -11 -28 -45 -32 -32 -4 -41 -10 -49 -32 -8 -22 -6 -32 10 -50 53 -63 64 -115 51 -248 -4 -37 -12 -51 -45 -80 -66 -58 -63 -105 8 -116 34 -6 40 -2 135 91 55 54 116 107 135 120 19 13 60 47 90 76 30 30 69 62 85 73 48 30 85 68 85 88 0 23 -20 23 -68 -2 -22 -11 -53 -25 -71 -30 -38 -11 -39 -2 -7 62 13 25 32 70 42 100 10 29 22 57 26 62 4 6 8 20 8 32 0 11 12 38 26 60 24 35 25 40 11 64 -12 20 -13 29 -3 42 17 24 96 88 108 88 12 0 4 -81 -18 -180 -11 -51 -30 -232 -35 -340 0 -8 -7 -75 -15 -149 -15 -140 -11 -167 22 -146 15 9 42 69 48 105 1 8 5 22 9 30 10 25 36 208 47 329 6 63 13 117 15 121 3 4 12 41 20 81 16 79 48 191 71 252 8 20 14 55 14 76 0 33 -4 40 -24 45 -35 9 -56 -2 -98 -49 -20 -23 -62 -61 -94 -86 -55 -42 -80 -64 -149 -128 -52 -48 -59 -49 -51 -7 4 21 16 56 28 79 74 152 74 151 128 184 61 37 88 69 72 85 -8 8 -24 6 -54 -5 -24 -10 -47 -17 -51 -17 -17 0 -5 32 24 65 18 20 29 41 25 50 -8 22 -75 19 -114 -5z m-76 -637 c-10 -10 -19 5 -10 18 6 11 8 11 12 0 2 -7 1 -15 -2 -18z m-81 -147 l36 -44 -21 -73 c-21 -79 -61 -130 -126 -165 -34 -18 -57 -13 -36 8 8 8 12 49 12 116 l0 103 42 50 c22 27 45 49 49 49 4 0 24 -20 44 -44z" />
<ns0:path d="M600 1766 c-31 -10 -36 -17 -46 -61 -12 -55 -53 -143 -90 -192 -13 -17 -24 -35 -24 -38 0 -4 -19 -30 -43 -58 -24 -29 -61 -79 -82 -112 -22 -33 -65 -86 -97 -118 -32 -32 -58 -62 -58 -67 0 -5 5 -21 12 -35 18 -40 73 -35 121 11 20 20 37 40 37 45 0 4 18 25 40 45 22 21 40 41 40 46 0 8 29 45 66 84 11 12 34 42 50 68 31 49 35 51 64 36 19 -10 19 -12 2 -48 -9 -20 -24 -47 -34 -60 -9 -13 -22 -40 -29 -60 -7 -20 -26 -55 -44 -77 -17 -22 -39 -52 -47 -66 -9 -15 -53 -65 -97 -111 -81 -85 -95 -114 -66 -138 25 -21 73 -1 132 55 52 50 57 53 77 39 26 -17 66 -84 66 -111 0 -10 -11 -61 -25 -113 -62 -238 -129 -400 -165 -400 -16 0 -20 -7 -20 -33 0 -46 26 -69 65 -59 56 15 125 141 182 332 82 277 82 337 -6 431 -44 47 -49 63 -27 88 7 9 33 52 56 96 24 44 52 93 63 109 11 16 40 66 64 112 46 88 57 145 31 170 -23 23 -59 3 -133 -72 -66 -67 -85 -69 -41 -3 14 20 32 60 42 90 9 30 20 59 25 64 12 16 20 79 12 90 -22 28 -38 33 -73 21z" />
<ns0:path d="M1132 880 c-15 -16 -32 -30 -39 -30 -20 0 -50 -48 -57 -92 -4 -24 -18 -88 -32 -143 -14 -55 -32 -125 -40 -155 -16 -64 -43 -89 -96 -90 -42 0 -81 30 -76 58 2 9 19 26 38 38 19 12 47 34 61 48 27 26 45 73 34 84 -3 3 -34 -8 -68 -25 -34 -17 -74 -34 -89 -37 -15 -4 -43 -20 -63 -37 -29 -25 -35 -38 -35 -70 0 -52 44 -101 110 -123 45 -15 66 -15 123 1 24 6 23 -39 -3 -96 -25 -55 -25 -96 0 -121 28 -28 63 -25 127 10 30 17 63 30 73 30 11 0 45 11 76 25 31 14 65 25 75 25 9 0 24 6 31 12 7 7 38 21 68 31 30 10 70 25 89 34 39 18 162 21 202 5 41 -16 61 4 67 66 2 29 0 52 -5 52 -5 0 -26 26 -47 58 -21 31 -69 84 -107 117 -53 47 -64 61 -51 66 9 3 27 9 39 14 27 9 36 31 23 56 -8 14 -22 19 -53 20 -23 0 -62 1 -87 2 -26 1 -64 -6 -88 -16 -37 -16 -43 -22 -40 -45 2 -20 13 -32 42 -45 27 -13 42 -15 49 -8 15 15 57 14 57 -1 0 -6 11 -26 25 -44 14 -18 25 -40 25 -49 0 -9 5 -13 10 -10 12 8 63 -96 52 -107 -4 -4 -23 -10 -42 -12 -71 -11 -196 -46 -230 -65 -19 -10 -51 -22 -70 -26 -19 -4 -48 -13 -65 -20 -16 -6 -49 -17 -72 -22 -38 -9 -43 -8 -43 8 0 26 18 109 50 234 16 61 38 150 49 200 11 49 33 112 48 140 41 79 10 118 -45 55z" />
<ns0:path d="M1863 728 c-38 -47 -43 -90 -13 -115 11 -10 20 -22 20 -28 0 -7 11 -22 25 -35 14 -13 25 -29 25 -36 0 -15 17 -22 78 -30 68 -9 92 6 92 55 0 39 0 39 -27 29 -60 -22 -106 20 -123 110 -10 55 -26 92 -38 91 -4 0 -22 -18 -39 -41z" />
</ns0:g>
</g><g transform="translate(-0.31186718834032945,257.2619596839901) scale(0.027992408431083055)"><ns0:metadata>
Created by potrace 1.16, written by Peter Selinger 2001-2019
</ns0:metadata>
<ns0:g transform="translate(0.000000,210.000000) scale(0.100000,-0.100000)" fill="#000000" stroke="none">
<ns0:path d="M726 2091 c-6 -9 -34 -169 -43 -241 -10 -82 -52 -187 -87 -213 -50 -39 -146 -133 -146 -144 0 -6 -18 -22 -40 -37 -22 -14 -54 -42 -71 -61 -18 -19 -36 -35 -41 -35 -10 0 1 166 13 198 33 86 -17 242 -87 274 -45 21 -97 -42 -66 -77 8 -9 33 -124 45 -209 6 -36 -15 -172 -38 -246 -56 -183 -36 -232 88 -210 34 7 73 17 87 24 72 36 101 49 104 45 2 -2 2 -60 -1 -129 l-6 -126 -71 -29 c-39 -15 -84 -41 -100 -57 -15 -15 -33 -28 -38 -28 -14 0 -1 -62 13 -71 17 -10 2 -27 -57 -65 -60 -39 -68 -63 -32 -101 20 -22 21 -26 8 -80 -7 -32 -22 -76 -32 -99 -20 -43 -15 -78 13 -101 18 -14 242 -24 295 -13 133 28 266 84 359 155 33 25 65 45 71 45 7 0 4 -20 -9 -57 -21 -66 -34 -163 -21 -163 33 1 104 121 147 250 128 385 156 494 181 706 19 157 21 164 52 164 17 0 28 8 36 28 29 71 56 116 83 138 17 13 62 50 100 82 120 98 152 121 201 147 45 24 74 32 74 19 0 -3 -22 -69 -49 -147 -27 -78 -62 -182 -76 -232 -42 -144 -76 -257 -92 -305 -20 -61 -61 -211 -79 -290 -19 -83 -20 -232 -2 -289 21 -70 55 -86 250 -121 72 -13 165 0 241 34 85 37 102 79 120 300 16 184 12 222 -30 289 -38 61 -47 45 -54 -99 -4 -71 -12 -151 -18 -178 -7 -27 -10 -55 -7 -63 8 -21 -12 -112 -28 -129 -8 -8 -21 -14 -28 -14 -7 0 -24 -7 -36 -16 -42 -29 -221 -6 -283 37 -19 14 -28 31 -33 61 -7 52 8 194 28 257 8 25 40 134 71 241 31 107 85 285 120 395 80 253 85 271 85 325 0 68 -8 74 -79 67 -55 -6 -74 -12 -121 -39 -8 -4 -24 -12 -35 -17 -12 -5 -27 -16 -35 -26 -7 -9 -27 -23 -44 -32 -47 -24 -163 -114 -241 -187 -69 -65 -71 -66 -115 -60 -37 5 -48 2 -63 -13 -19 -21 -19 -31 -12 -145 9 -140 -32 -437 -80 -568 -14 -41 -33 -100 -42 -130 -22 -81 -22 -81 -68 -60 -22 11 -53 19 -68 20 -28 0 -28 -1 -22 -44 8 -48 4 -54 -65 -102 -35 -24 -162 -88 -230 -116 -33 -14 -223 -18 -236 -6 -2 3 2 45 11 93 8 49 13 97 9 107 -3 10 0 34 7 53 11 28 11 40 1 55 -10 17 -10 20 7 20 10 0 29 8 42 18 23 18 118 72 125 72 2 0 4 -9 4 -20 0 -11 6 -20 13 -20 20 0 37 21 37 46 0 23 45 68 81 79 16 5 19 14 17 38 -3 28 -7 33 -38 37 -48 7 -49 29 -10 185 38 152 38 228 2 233 -15 2 -37 -8 -62 -30 -69 -58 -96 -77 -126 -84 -27 -7 -28 -6 -15 12 8 10 48 52 88 91 40 40 73 77 73 82 0 5 19 27 41 50 30 30 45 38 54 31 16 -13 26 -1 64 82 17 37 36 70 42 73 15 10 27 45 48 143 11 48 26 101 35 117 9 17 16 39 16 50 0 11 9 34 20 50 36 54 29 65 -44 65 -36 0 -67 -4 -70 -9z" />
<ns0:path d="M358 1893 c-22 -6 -41 -59 -28 -83 6 -10 19 -21 29 -25 11 -3 30 -23 42 -43 12 -20 30 -46 40 -57 10 -12 22 -38 27 -60 10 -51 35 -57 53 -13 16 39 14 71 -12 139 -18 52 -18 53 1 71 26 24 25 34 -2 52 -24 14 -120 27 -150 19z" />
</ns0:g>
</g><g transform="translate(-0.0060197321894293054,337.3850494598183) scale(0.027992408431083055)"><ns0:metadata>
Created by potrace 1.16, written by Peter Selinger 2001-2019
</ns0:metadata>
<ns0:g transform="translate(0.000000,215.000000) scale(0.100000,-0.100000)" fill="#000000" stroke="none">
<ns0:path d="M1189 2045 c-28 -58 -70 -131 -94 -163 -24 -31 -55 -79 -69 -107 -15 -27 -42 -69 -62 -93 -39 -47 -50 -48 -135 -10 -33 14 -53 32 -68 59 -18 31 -28 39 -51 39 -53 0 -60 -18 -53 -139 l6 -108 -29 -20 c-33 -22 -158 -83 -172 -83 -5 0 -20 -9 -34 -19 -13 -11 -60 -38 -104 -61 -116 -62 -155 -91 -177 -133 -34 -67 -5 -107 78 -107 39 0 64 21 72 62 4 19 19 38 42 53 20 14 56 38 80 56 24 17 54 35 65 40 12 5 50 25 86 44 36 19 68 31 71 27 4 -4 0 -56 -8 -116 l-15 -110 -100 -109 c-54 -60 -107 -121 -116 -135 -9 -14 -26 -36 -37 -47 -11 -12 -42 -51 -69 -86 -27 -35 -55 -69 -61 -74 -7 -6 -22 -30 -35 -54 -21 -42 -21 -45 -5 -57 23 -17 65 3 90 43 10 15 26 37 37 48 33 35 64 76 89 116 25 40 91 82 115 72 8 -3 14 -15 14 -27 0 -27 -26 -135 -50 -211 -10 -33 -28 -89 -40 -125 -21 -69 -60 -116 -161 -192 -26 -19 -57 -45 -70 -57 -28 -26 -41 -26 -64 -1 -10 11 -21 17 -26 14 -13 -8 1 -67 21 -87 16 -17 22 -18 74 -6 31 7 61 18 67 26 18 21 32 15 25 -11 -4 -16 0 -30 10 -40 21 -22 24 -21 72 16 33 25 48 47 69 103 15 38 30 74 35 79 4 6 8 18 8 28 0 10 4 18 8 18 16 0 332 327 332 343 0 4 21 30 47 58 50 54 153 195 178 246 9 17 53 75 97 128 l80 97 47 -6 c58 -9 67 -10 116 -24 52 -13 152 -26 190 -23 17 1 43 -3 59 -9 39 -14 66 -4 66 25 0 33 -36 55 -87 55 -76 0 -313 70 -313 92 0 6 9 22 19 37 11 14 40 70 65 124 25 53 61 121 79 149 57 93 93 176 103 238 13 78 12 84 -18 112 -32 30 -52 28 -125 -13 -51 -29 -228 -173 -248 -202 -8 -11 -18 -18 -22 -14 -3 4 4 22 17 39 13 18 54 92 91 165 l68 133 -59 0 -59 0 -52 -105z m281 -175 c-12 -32 -37 -83 -56 -112 -32 -49 -72 -126 -125 -242 -12 -26 -35 -62 -51 -78 l-29 -30 -34 26 c-37 29 -61 32 -100 14 -49 -22 -24 -104 38 -124 28 -9 15 -45 -39 -112 -25 -32 -72 -95 -104 -142 -99 -144 -144 -199 -167 -206 -26 -7 -82 24 -112 62 -18 23 -19 28 -5 72 7 26 21 94 29 152 16 112 28 170 54 264 12 45 22 61 41 69 14 6 34 18 45 27 33 28 52 30 80 8 24 -18 29 -19 53 -7 26 14 209 184 312 290 30 31 69 63 85 72 17 8 46 29 65 45 19 17 37 26 39 21 1 -6 -7 -37 -19 -69z m-661 -263 c12 -15 5 -27 -16 -27 -7 0 -13 9 -13 20 0 23 13 26 29 7z m-239 -632 c0 -8 -7 -15 -16 -15 -14 0 -14 3 -4 15 7 8 14 15 16 15 2 0 4 -7 4 -15z m30 -119 c0 -3 -4 -8 -10 -11 -5 -3 -10 -1 -10 4 0 6 5 11 10 11 6 0 10 -2 10 -4z m128 -66 c17 0 -12 -41 -78 -113 -55 -58 -58 -54 -35 50 26 113 21 105 63 83 20 -11 43 -20 50 -20z" />
<ns0:path d="M1251 876 c-18 -10 -31 -11 -52 -3 -80 31 -158 -48 -178 -180 -16 -102 -14 -149 9 -223 29 -92 58 -126 120 -139 59 -13 81 -6 132 42 44 42 69 90 93 180 19 72 17 177 -4 227 -5 14 -12 36 -15 50 -4 17 -18 32 -41 43 -20 9 -37 17 -38 17 -1 -1 -13 -7 -26 -14z m-28 -74 c9 -15 27 -43 40 -62 47 -74 21 -255 -45 -301 -42 -31 -65 -18 -85 49 -27 86 -23 205 8 261 13 24 28 52 34 62 14 26 27 24 48 -9z" />
</ns0:g>
</g><g transform="translate(1.6009911091776416,412.91434643428795) scale(0.027992408431083055)"><ns0:metadata>
Created by potrace 1.16, written by Peter Selinger 2001-2019
</ns0:metadata>
<ns0:g transform="translate(0.000000,204.000000) scale(0.100000,-0.100000)" fill="#000000" stroke="none">
<ns0:path d="M936 1781 c-34 -7 -47 -35 -34 -71 12 -31 23 -86 44 -209 15 -90 15 -95 -2 -108 -10 -7 -23 -13 -30 -13 -7 0 -24 -10 -38 -23 -13 -12 -44 -33 -68 -45 -23 -13 -59 -32 -78 -44 -19 -11 -41 -21 -50 -23 -86 -17 -95 -31 -86 -129 4 -39 9 -98 12 -131 3 -33 7 -145 9 -250 4 -210 16 -280 50 -280 14 0 21 8 23 25 5 34 28 58 66 66 17 4 47 15 66 25 36 19 70 25 70 12 0 -5 -9 -86 -21 -182 -21 -167 -22 -175 -5 -206 11 -19 33 -40 54 -49 43 -19 140 -38 153 -31 4 3 17 0 27 -6 12 -7 30 -9 48 -4 16 4 47 8 69 10 119 8 309 56 475 120 19 8 52 20 73 27 56 18 61 34 53 170 -8 144 -40 263 -71 263 -17 0 -21 -10 -27 -70 -4 -38 -6 -109 -3 -157 l4 -87 -52 -29 c-29 -16 -67 -32 -85 -35 -18 -4 -65 -21 -104 -38 -138 -60 -399 -84 -471 -42 -42 25 -55 48 -39 73 6 11 12 48 12 83 0 34 7 87 15 117 9 30 20 73 26 95 15 59 24 62 65 22 43 -42 74 -52 118 -37 67 22 90 96 106 340 31 472 31 474 18 550 -13 73 -14 75 -43 78 -21 2 -58 -11 -117 -42 -98 -51 -89 -56 -108 52 -22 123 -64 226 -90 221 -3 -1 -18 -4 -34 -8z m305 -432 c0 -250 -27 -633 -47 -671 -19 -38 -64 -38 -93 -2 l-20 26 25 40 c34 53 26 69 -28 66 -34 -2 -42 0 -39 12 30 118 32 150 29 358 -1 52 3 87 10 94 7 7 12 29 12 49 0 34 4 39 43 58 23 12 53 30 67 41 14 10 29 15 33 11 5 -5 8 -42 8 -82z m-281 -112 c0 -42 -1 -43 -50 -60 -27 -10 -50 -22 -50 -27 0 -6 16 -41 35 -79 45 -88 49 -159 10 -189 -14 -11 -25 -25 -25 -30 0 -16 -119 -162 -132 -162 -6 0 -17 -8 -25 -17 -12 -16 -13 12 -11 202 3 148 8 227 16 242 6 12 32 32 57 44 25 12 45 26 45 30 0 7 117 89 126 89 2 0 4 -19 4 -43z m-49 -506 c-12 -22 -41 -29 -41 -9 0 6 8 20 17 30 21 24 39 8 24 -21z" />
</ns0:g>
</g><g transform="translate(-0.6622592697900131,498.7299105734046) scale(0.027992408431083055)"><ns0:metadata>
Created by potrace 1.16, written by Peter Selinger 2001-2019
</ns0:metadata>
<ns0:g transform="translate(0.000000,208.000000) scale(0.100000,-0.100000)" fill="#000000" stroke="none">
<ns0:path d="M1334 1815 c-28 -13 -73 -29 -100 -36 -27 -6 -63 -17 -81 -25 -17 -7 -60 -18 -95 -25 -34 -6 -80 -18 -101 -25 -20 -8 -72 -15 -115 -15 -104 -2 -134 -9 -149 -38 -14 -30 5 -76 37 -86 44 -14 241 21 315 55 29 14 187 51 193 46 7 -8 -75 -115 -126 -165 -32 -31 -73 -79 -92 -106 -18 -28 -36 -52 -39 -55 -18 -15 -122 -163 -136 -191 -34 -72 -47 -89 -73 -95 -15 -4 -31 -10 -37 -14 -5 -5 -41 -18 -80 -30 -38 -13 -75 -26 -81 -31 -6 -5 -43 -15 -83 -24 -39 -8 -84 -21 -99 -29 -15 -7 -46 -17 -70 -21 -51 -8 -102 -48 -102 -79 0 -34 40 -66 82 -66 43 0 119 25 133 44 6 8 35 22 65 32 30 9 62 23 70 30 9 7 37 18 64 24 27 6 74 22 104 36 64 29 109 26 114 -9 2 -12 12 -24 25 -27 28 -7 78 -71 110 -140 14 -30 34 -74 45 -98 11 -24 24 -59 29 -78 5 -19 13 -51 19 -71 5 -21 10 -62 10 -90 0 -63 -9 -71 -125 -109 -53 -17 -100 -25 -146 -25 -75 0 -86 -10 -48 -45 19 -17 36 -19 183 -16 190 4 211 11 233 82 29 92 -13 300 -96 481 -30 67 -84 153 -102 164 -5 4 -9 14 -9 24 0 13 16 22 63 36 34 10 109 33 167 51 58 18 130 39 160 45 56 11 110 34 122 52 3 6 4 17 0 25 -7 21 -162 9 -257 -19 -119 -35 -168 -47 -224 -54 -51 -7 -53 -6 -46 15 10 30 162 230 243 319 37 40 69 78 71 85 2 6 23 32 47 59 56 62 108 143 121 188 21 71 -22 88 -113 44z" />
</ns0:g>
</g><g transform="translate(-2.1759512365139244,573.263142495362) scale(0.027992408431083055)"><ns0:metadata>
Created by potrace 1.16, written by Peter Selinger 2001-2019
</ns0:metadata>
<ns0:g transform="translate(0.000000,205.000000) scale(0.100000,-0.100000)" fill="#000000" stroke="none">
<ns0:path d="M1815 1981 c-6 -5 -54 -33 -109 -61 -54 -28 -108 -57 -120 -65 -11 -7 -34 -17 -50 -21 -30 -7 -119 -54 -172 -91 -47 -32 -87 -57 -119 -73 -16 -8 -49 -27 -72 -43 -24 -15 -47 -27 -52 -27 -5 0 -14 -6 -20 -14 -6 -7 -26 -16 -43 -20 -17 -3 -39 -12 -47 -20 -9 -8 -41 -24 -71 -36 -132 -52 -225 -118 -232 -164 -3 -18 -11 -21 -52 -24 -49 -3 -96 -25 -96 -45 0 -6 7 -18 16 -28 12 -14 16 -50 19 -187 1 -94 6 -175 9 -181 11 -18 42 4 63 46 16 30 21 67 26 172 6 129 7 134 34 160 27 26 65 49 112 71 13 6 36 21 51 34 16 13 93 56 172 95 176 89 260 136 324 181 76 54 123 83 194 116 65 31 130 51 130 40 0 -7 -42 -224 -66 -341 -9 -44 -20 -91 -26 -105 -11 -29 -68 -241 -75 -282 -7 -39 -89 -106 -199 -163 -38 -20 -79 -43 -91 -52 -21 -14 -23 -14 -23 3 0 11 10 39 21 63 11 25 25 77 31 115 12 77 43 183 60 204 8 10 6 20 -8 39 -28 37 -47 47 -78 39 -35 -9 -44 -35 -63 -181 -8 -66 -26 -151 -40 -190 -14 -38 -35 -100 -47 -138 -21 -67 -21 -68 -86 -101 -36 -18 -119 -61 -184 -94 -66 -34 -124 -62 -129 -62 -5 0 -21 -8 -35 -18 -15 -11 -61 -32 -102 -47 -120 -45 -178 -126 -109 -152 28 -11 40 -8 113 24 44 20 90 44 101 54 11 10 49 31 85 47 98 44 112 51 155 77 52 32 79 33 70 3 -12 -42 -59 -163 -65 -168 -4 -3 -12 -26 -20 -53 -7 -26 -17 -50 -21 -53 -12 -7 -11 -34 1 -34 29 0 108 117 201 299 56 109 91 152 173 211 26 19 55 43 64 53 9 9 24 17 33 17 9 0 22 7 29 15 7 8 16 15 21 15 11 0 103 62 107 72 2 4 10 8 18 8 8 0 26 11 39 24 13 13 38 34 57 47 84 59 118 93 118 118 0 26 -15 26 -75 0 -25 -11 -49 -18 -52 -16 -2 3 2 20 10 39 30 70 46 114 53 148 3 19 15 46 25 60 10 14 30 75 43 135 49 217 69 291 93 339 26 53 55 161 45 170 -9 9 -57 7 -67 -3z" />
<ns0:path d="M1125 1940 c-38 -14 -57 -44 -45 -74 5 -15 16 -29 24 -32 17 -7 46 -97 46 -144 0 -28 3 -31 26 -28 22 2 29 11 40 48 8 25 14 60 14 79 0 19 5 50 12 68 11 30 10 36 -8 54 -25 24 -82 39 -109 29z" />
<ns0:path d="M941 1290 c-51 -8 -60 -30 -33 -85 12 -25 25 -45 30 -45 5 0 14 -22 21 -50 7 -27 17 -52 22 -56 5 -3 20 7 34 22 23 25 25 34 24 111 -2 101 -17 116 -98 103z" />
<ns0:path d="M784 857 c-26 -23 -26 -23 -9 -57 9 -18 20 -54 24 -79 5 -36 10 -46 25 -46 22 0 56 58 56 97 0 14 7 34 16 42 8 9 14 26 12 38 -3 20 -10 23 -50 26 -37 2 -52 -3 -74 -21z" />
<ns0:path d="M1216 291 c-30 -6 -46 -33 -38 -63 12 -48 139 -96 301 -113 14 -2 62 -8 106 -14 44 -6 127 -13 185 -16 58 -3 120 -11 138 -17 39 -14 67 -2 67 29 0 11 5 26 10 34 14 19 45 76 45 82 0 3 -9 7 -21 10 -19 5 -58 -4 -104 -23 -45 -19 -70 -21 -182 -10 -253 23 -350 42 -433 84 -30 15 -54 21 -74 17z" />
</ns0:g>
</g><g transform="translate(0.6424838178998016,655.5720796472841) scale(0.027992408431083055)"><ns0:metadata>
Created by potrace 1.16, written by Peter Selinger 2001-2019
</ns0:metadata>
<ns0:g transform="translate(0.000000,207.000000) scale(0.100000,-0.100000)" fill="#000000" stroke="none">
<ns0:path d="M1023 1742 c-18 -2 -37 -11 -42 -21 -11 -20 11 -161 37 -236 14 -41 17 -85 16 -235 -1 -329 -3 -364 -33 -408 -14 -22 -62 -77 -107 -123 -75 -78 -105 -106 -239 -223 -59 -51 -152 -96 -199 -96 -40 0 -147 -36 -158 -53 -17 -27 -8 -56 22 -72 32 -16 64 -12 230 32 30 8 78 18 105 23 28 4 70 17 95 28 138 63 317 134 349 139 20 3 41 9 46 13 6 4 30 11 55 15 44 7 269 78 300 95 8 4 68 18 132 29 87 16 124 18 144 11 39 -15 62 -4 70 35 10 55 3 70 -36 73 -84 8 -319 -38 -428 -84 -44 -19 -253 -79 -326 -94 -56 -11 -139 -43 -254 -96 -29 -13 -58 -24 -65 -24 -14 0 61 67 85 75 9 3 19 14 22 23 3 10 21 26 40 36 19 10 37 24 40 32 3 7 19 20 35 29 26 13 31 13 31 1 0 -7 7 -16 15 -20 16 -6 38 22 50 64 4 14 16 37 26 52 11 14 19 34 19 43 0 9 20 37 45 63 41 43 96 112 120 151 6 9 29 40 53 70 23 29 45 65 49 80 3 14 18 37 34 51 15 14 42 52 60 85 17 33 46 78 63 100 60 76 69 95 57 121 -6 13 -19 24 -30 24 -43 0 -87 -54 -221 -271 -25 -40 -66 -104 -93 -143 -26 -39 -60 -89 -75 -111 -24 -36 -27 -38 -30 -17 -2 12 1 75 6 140 11 134 1 295 -23 379 -9 31 -16 84 -15 117 1 34 2 66 1 72 -2 16 -42 30 -78 26z" />
<ns0:path d="M680 1440 c-10 -6 -15 -28 -17 -62 -2 -55 13 -239 23 -294 6 -32 6 -33 -43 -40 -67 -9 -103 -29 -103 -57 0 -12 4 -27 8 -33 11 -17 48 -34 74 -34 13 0 36 -6 51 -12 25 -12 27 -18 27 -74 0 -34 5 -75 11 -92 16 -46 69 -56 69 -13 0 10 3 21 7 25 4 4 6 37 5 74 -4 80 1 88 83 132 84 46 109 64 125 94 18 34 8 42 -27 22 -15 -8 -44 -20 -63 -25 -19 -5 -50 -15 -67 -22 -25 -10 -36 -10 -44 -2 -7 7 -13 66 -15 156 -3 161 -9 211 -30 245 -15 23 -48 29 -74 12z" />
</ns0:g>
</g><g transform="translate(0.15296260434712394,739.5730583258702) scale(0.027992408431083055)"><ns0:metadata>
Created by potrace 1.16, written by Peter Selinger 2001-2019
</ns0:metadata>
<ns0:g transform="translate(0.000000,207.000000) scale(0.100000,-0.100000)" fill="#000000" stroke="none">
<ns0:path d="M953 1943 c-7 -2 -13 -9 -13 -15 0 -5 -15 -44 -34 -87 -18 -42 -41 -108 -51 -147 -13 -54 -22 -73 -43 -86 -223 -142 -321 -216 -337 -255 -22 -52 -19 -69 18 -97 40 -31 71 -26 87 14 15 36 107 133 119 126 5 -4 -4 -33 -20 -66 -16 -33 -29 -63 -29 -67 0 -7 -110 -228 -174 -348 -48 -91 -163 -269 -195 -302 -11 -12 -21 -25 -21 -28 0 -4 -14 -26 -30 -49 -33 -46 -32 -72 4 -85 17 -7 29 0 59 29 20 21 37 42 37 48 0 6 8 17 18 24 22 16 72 90 72 106 0 7 16 29 35 51 19 21 35 43 35 48 0 6 39 48 87 93 105 100 106 100 88 -91 -7 -74 -12 -188 -11 -254 1 -135 10 -148 59 -97 27 28 28 35 37 178 6 82 14 185 19 229 15 119 13 220 -2 234 -18 14 -73 -2 -104 -31 -12 -12 -23 -18 -23 -15 0 4 20 46 44 94 24 49 55 115 69 148 30 71 74 152 96 178 9 10 25 37 36 59 11 22 24 40 28 39 5 -1 21 15 36 36 15 21 45 50 67 64 93 61 131 85 157 98 15 7 27 17 27 22 0 5 20 18 44 30 24 11 67 43 96 70 44 42 49 51 40 69 -13 24 -15 24 -60 1 -19 -11 -59 -31 -89 -45 -29 -14 -74 -41 -100 -59 -63 -46 -129 -82 -137 -74 -6 6 19 94 37 129 28 55 -21 105 -78 81z" />
<ns0:path d="M1417 1738 c-167 -178 -203 -214 -217 -220 -22 -9 -170 -138 -170 -148 0 -5 -26 -29 -57 -53 -39 -30 -68 -63 -87 -100 -28 -52 -29 -57 -13 -80 27 -42 54 -41 86 3 39 55 256 280 269 280 6 0 21 13 34 29 13 16 33 34 46 40 26 14 26 15 11 -84 -6 -38 -12 -171 -13 -294 l-1 -224 -86 -46 c-48 -25 -94 -52 -103 -60 -34 -29 -28 1 12 58 23 32 46 69 51 83 5 13 19 46 32 72 l23 49 -28 23 c-37 33 -87 30 -160 -9 -50 -27 -65 -41 -93 -92 -37 -68 -37 -89 4 -167 l25 -47 -20 -28 c-11 -15 -45 -51 -77 -80 -47 -43 -55 -56 -50 -75 19 -63 75 -64 143 -3 27 25 54 45 59 45 5 0 20 -12 34 -26 56 -62 196 -165 244 -180 27 -10 61 -25 74 -35 29 -23 64 -24 82 -2 21 24 15 130 -16 289 -15 75 -30 167 -35 203 -5 36 -14 89 -20 116 -19 84 6 451 37 550 17 54 33 86 78 155 19 29 29 59 29 85 1 37 -1 40 -29 43 -26 2 -39 -7 -98 -70z m-267 -762 c0 -7 -14 -30 -30 -51 -17 -21 -33 -49 -36 -62 -7 -27 -43 -52 -45 -31 -5 64 15 111 63 145 32 23 48 22 48 -1z m183 -244 c3 -43 11 -91 17 -106 5 -15 13 -54 16 -87 4 -47 2 -59 -9 -59 -24 0 -120 48 -163 83 -23 17 -56 40 -75 50 l-33 18 44 41 c54 50 171 136 186 137 7 1 13 -30 17 -77z" />
</ns0:g>
</g><g transform="translate(0.9006824378178635,813.7662023832944) scale(0.027992408431083055)"><ns0:metadata>
Created by potrace 1.16, written by Peter Selinger 2001-2019
</ns0:metadata>
<ns0:g transform="translate(0.000000,210.000000) scale(0.100000,-0.100000)" fill="#000000" stroke="none">
<ns0:path d="M1165 1844 c-45 -38 -227 -154 -240 -154 -7 0 -18 -7 -25 -15 -7 -8 -20 -15 -29 -15 -10 0 -28 -11 -41 -25 -13 -14 -31 -25 -40 -25 -8 0 -26 -7 -38 -16 -21 -14 -22 -23 -22 -137 0 -167 -27 -323 -95 -562 -47 -161 -46 -157 -23 -163 22 -5 22 -16 -1 -122 -13 -60 -13 -175 0 -225 6 -22 12 -59 12 -83 2 -46 23 -72 59 -72 17 0 92 73 311 304 84 89 95 97 105 80 7 -13 22 -19 49 -20 21 0 88 -22 148 -47 61 -26 117 -47 126 -47 9 0 22 -7 29 -15 7 -8 24 -21 39 -28 14 -7 35 -18 46 -24 167 -85 226 -113 239 -113 73 0 116 94 56 125 -17 9 -30 11 -30 5 0 -5 -6 -10 -13 -10 -13 0 -261 124 -282 140 -6 5 -33 17 -60 28 -86 34 -164 72 -170 83 -4 5 13 31 37 58 130 142 185 241 144 257 -15 6 -55 -29 -56 -50 0 -11 -115 -126 -125 -126 -4 0 -5 7 -2 15 12 29 -13 25 -50 -8 -21 -18 -52 -43 -69 -55 l-31 -21 -52 24 c-62 30 -94 32 -121 5 -29 -29 -25 -52 16 -88 l36 -32 -44 -48 c-119 -125 -216 -212 -236 -212 -31 0 -15 230 23 328 7 20 30 79 49 129 20 51 36 103 36 116 0 16 9 28 28 38 15 7 47 30 72 50 25 20 59 42 77 48 18 7 39 24 48 37 24 36 47 32 41 -8 -3 -18 -8 -82 -11 -142 -4 -59 -9 -114 -12 -122 -3 -9 2 -14 16 -14 16 0 29 17 57 73 34 67 37 81 45 202 5 72 11 207 15 300 4 127 11 184 25 227 10 32 19 84 19 116 0 85 -28 104 -85 56z m-61 -311 c-1 -82 -3 -179 -3 -216 -1 -55 -4 -69 -18 -73 -22 -7 -114 -52 -203 -99 -36 -19 -69 -34 -74 -35 -10 0 0 61 16 96 6 13 38 46 72 75 66 55 85 81 86 117 0 30 -21 28 -80 -5 -27 -15 -52 -24 -56 -21 -3 4 -3 34 1 68 6 51 12 66 39 90 17 17 45 37 63 45 18 9 36 21 40 28 10 16 94 76 108 77 7 0 10 -53 9 -147z m116 -767 c0 -3 -4 -8 -10 -11 -5 -3 -10 -1 -10 4 0 6 5 11 10 11 6 0 10 -2 10 -4z" />
<ns0:path d="M410 1740 c-12 -12 -20 -33 -20 -54 0 -19 -5 -47 -10 -62 -6 -14 -15 -70 -21 -123 -6 -53 -15 -134 -20 -181 -5 -47 -11 -123 -13 -170 -9 -184 -22 -240 -56 -240 -21 0 -21 -42 0 -65 21 -22 21 -25 10 -191 -15 -241 -33 -370 -53 -392 -18 -20 -22 -68 -8 -91 14 -21 61 -16 86 10 26 28 48 131 64 304 6 61 16 164 22 230 7 66 13 131 14 145 1 14 3 28 4 32 0 3 37 51 81 105 93 113 131 184 136 250 4 48 -15 93 -39 93 -36 1 -38 17 -8 63 43 63 61 119 61 189 0 67 -7 77 -98 134 -61 39 -103 43 -132 14z m136 -181 c-8 -52 -43 -123 -69 -138 -20 -13 -20 -12 -14 50 4 35 17 83 29 106 19 36 25 40 41 31 16 -8 18 -17 13 -49z m-26 -328 c0 -10 -8 -29 -19 -42 -10 -13 -26 -39 -35 -56 -22 -43 -36 -42 -36 2 0 26 9 45 36 75 40 44 54 50 54 21z" />
</ns0:g>
</g><g transform="translate(-0.8657758437899474,893.5250380135215) scale(0.027992408431083055)"><ns0:metadata>
Created by potrace 1.16, written by Peter Selinger 2001-2019
</ns0:metadata>
<ns0:g transform="translate(0.000000,207.000000) scale(0.100000,-0.100000)" fill="#000000" stroke="none">
<ns0:path d="M1005 1928 c-21 -24 -57 -83 -82 -133 -24 -49 -57 -115 -74 -145 -17 -30 -58 -113 -91 -185 -33 -71 -77 -155 -96 -185 -38 -59 -112 -200 -112 -213 0 -5 -11 -23 -25 -41 -14 -18 -25 -37 -25 -43 0 -6 -20 -41 -45 -79 -25 -37 -45 -72 -45 -77 0 -4 -12 -33 -27 -63 -25 -51 -26 -56 -10 -72 20 -19 43 -10 61 24 24 45 81 133 117 180 21 28 68 107 103 177 35 69 78 145 94 169 16 24 48 81 71 128 24 47 51 99 61 115 10 17 21 40 24 52 9 28 69 129 94 157 11 12 36 49 56 84 21 34 50 69 66 77 53 27 40 80 -26 105 -41 16 -50 12 -89 -32z" />
<ns0:path d="M1188 1549 c-21 -11 -25 -79 -6 -79 6 0 19 -6 27 -14 9 -8 41 -24 71 -36 30 -12 65 -31 76 -42 27 -24 77 -21 82 5 4 18 -18 42 -125 140 -43 39 -88 48 -125 26z" />
<ns0:path d="M1040 1183 c-8 -2 -24 -8 -35 -13 -11 -5 -32 -11 -46 -14 -25 -5 -26 -8 -32 -105 -12 -179 -73 -380 -151 -496 -100 -149 -130 -187 -181 -231 -50 -44 -53 -48 -43 -75 6 -16 23 -36 38 -44 31 -16 37 -12 119 63 35 32 117 77 178 97 29 9 55 21 58 26 4 5 17 9 30 9 13 0 27 5 30 10 3 6 17 10 29 10 13 0 29 6 36 14 6 8 17 13 25 10 7 -3 27 2 44 10 16 9 37 16 46 16 9 0 44 13 78 29 54 25 113 45 140 46 4 0 18 -29 31 -65 38 -109 55 -142 68 -138 23 8 29 115 13 213 -8 50 -17 137 -19 194 -3 57 -6 104 -8 105 -68 48 -108 54 -142 21 -15 -15 -13 -59 3 -80 9 -11 41 -136 41 -158 0 -9 -16 -16 -45 -20 -25 -4 -63 -16 -85 -27 -21 -11 -47 -20 -57 -20 -16 0 -128 -32 -281 -81 -35 -11 -66 -18 -69 -15 -3 3 13 33 36 68 22 35 41 70 41 78 0 8 7 28 15 43 8 16 29 94 46 175 17 81 35 155 40 164 5 10 9 30 9 44 0 14 11 39 25 56 27 32 32 57 13 76 -13 13 -15 13 -38 5z" />
</ns0:g>
</g><g transform="translate(0.3704668127663808,970.0595317189848) scale(0.027992408431083055)"><ns0:metadata>
Created by potrace 1.16, written by Peter Selinger 2001-2019
</ns0:metadata>
<ns0:g transform="translate(0.000000,209.000000) scale(0.100000,-0.100000)" fill="#000000" stroke="none">
<ns0:path d="M1199 2057 c-116 -67 -156 -91 -219 -132 -36 -23 -101 -61 -145 -84 -44 -24 -84 -49 -88 -57 -4 -8 -12 -14 -18 -14 -19 0 -136 -59 -149 -75 -8 -10 -39 -28 -70 -41 -85 -38 -113 -91 -71 -133 16 -16 30 -19 72 -15 57 5 89 18 89 37 0 17 87 107 103 107 8 0 26 11 40 24 26 24 35 30 132 80 28 15 66 38 85 51 61 44 111 75 120 75 4 0 20 14 33 30 14 17 32 30 40 30 8 0 20 7 27 15 7 8 18 15 26 15 7 0 20 7 29 16 9 9 18 14 21 11 7 -7 -28 -158 -65 -282 -17 -55 -33 -116 -36 -135 -3 -19 -12 -64 -20 -100 -32 -136 -52 -265 -60 -393 -3 -42 -11 -96 -19 -120 -35 -110 -49 -277 -35 -405 6 -51 9 -95 6 -99 -3 -3 -21 6 -39 20 -60 45 -94 57 -160 57 -81 0 -110 -8 -106 -29 2 -11 22 -19 68 -26 36 -6 75 -16 86 -23 33 -18 100 -102 128 -162 15 -30 31 -62 36 -70 5 -8 17 -32 26 -53 21 -48 57 -68 81 -45 21 22 28 102 14 180 -6 34 -18 131 -26 213 -19 173 -15 261 21 444 13 69 24 137 24 152 0 135 130 698 187 813 14 27 27 73 30 102 l6 54 -74 0 c-65 -1 -81 -5 -130 -33z" />
<ns0:path d="M1055 1615 c-16 -8 -61 -28 -100 -45 -38 -18 -87 -44 -110 -59 -22 -15 -52 -32 -66 -38 -15 -6 -42 -25 -60 -41 -19 -16 -54 -40 -79 -52 -91 -47 -144 -137 -105 -180 14 -16 31 -20 81 -20 34 0 69 3 78 6 21 8 21 60 0 72 -24 13 35 67 206 189 14 10 61 36 104 58 92 46 136 81 136 107 0 22 -40 24 -85 3z" />
<ns0:path d="M588 1004 c-38 -20 -41 -53 -7 -90 19 -20 19 -21 -1 -39 -11 -10 -20 -24 -20 -30 0 -7 -7 -18 -15 -25 -8 -7 -15 -21 -15 -31 0 -11 -4 -19 -9 -19 -29 0 -75 -236 -52 -264 26 -31 63 -26 151 21 154 84 310 264 310 360 0 42 -34 69 -101 82 -31 5 -82 19 -115 30 -69 25 -89 25 -126 5z m182 -114 c25 -6 55 -12 66 -15 12 -3 24 -12 28 -20 9 -25 -28 -88 -76 -128 -24 -20 -51 -43 -60 -51 -27 -23 -75 -46 -97 -46 -11 0 -23 -5 -26 -10 -4 -6 -11 -7 -17 -4 -11 7 -4 74 12 102 5 9 21 46 36 82 44 104 50 108 134 90z" />
</ns0:g>
</g></svg>