<?xml version='1.0' encoding='utf-8'?>
<svg xmlns:ns0="http://www.w3.org/2000/svg" xmlns="http://www.w3.org/2000/svg" width="235" height="136" viewBox="0 0 235 136"><g transform="translate(-2.5430856897794456,-100.20238952297746) scale(0.05739972241727762)"><ns0:metadata>
Created by potrace 1.16, written by Peter Selinger 2001-2019
</ns0:metadata>
<ns0:g transform="translate(0.000000,207.000000) scale(0.100000,-0.100000)" fill="#000000" stroke="none">
<ns0:path d="M514 1367 c-27 -18 -60 -38 -74 -44 -62 -29 -124 -53 -136 -53 -8 0 -21 -17 -30 -37 -15 -36 -15 -40 3 -73 22 -43 55 -50 94 -21 35 26 44 26 76 2 30 -24 51 -18 60 18 8 31 30 50 59 51 47 0 39 -78 -12 -116 -44 -34 -59 -81 -41 -125 13 -31 12 -37 -10 -71 -19 -28 -22 -41 -14 -56 12 -23 46 -46 80 -55 30 -7 81 46 116 121 33 71 59 81 188 75 53 -3 97 -9 97 -14 0 -11 -106 -167 -134 -198 -11 -12 -42 -41 -68 -63 -41 -34 -59 -41 -133 -55 -68 -12 -85 -19 -85 -33 0 -22 37 -30 135 -30 117 0 131 6 214 87 41 40 84 91 96 112 11 22 41 70 66 108 50 74 72 160 47 180 -7 6 -78 11 -162 11 -96 0 -153 5 -160 12 -6 6 -11 45 -11 90 -1 90 -17 122 -74 152 -18 9 -40 26 -48 37 -22 33 -80 28 -139 -12z" />
</ns0:g>
</g><g transform="translate(-1.7639987613771382,64.04934793012606) scale(0.05739972241727762)"><ns0:metadata>
Created by potrace 1.16, written by Peter Selinger 2001-2019
</ns0:metadata>
<ns0:g transform="translate(0.000000,210.000000) scale(0.100000,-0.100000)" fill="#000000" stroke="none">
<ns0:path d="M1210 915 c-14 -7 -33 -16 -43 -19 -40 -13 -65 -149 -32 -176 8 -7 15 -18 15 -24 0 -7 13 -25 29 -40 28 -27 29 -27 67 -11 49 20 71 41 96 89 31 60 20 107 -34 156 -47 43 -61 46 -98 25z" />
</ns0:g>
</g><g transform="translate(-1.5540759988393233,216.40188009977038) scale(0.05739972241727762)"><ns0:metadata>
Created by potrace 1.16, written by Peter Selinger 2001-2019
</ns0:metadata>
<ns0:g transform="translate(0.000000,206.000000) scale(0.100000,-0.100000)" fill="#000000" stroke="none">
<ns0:path d="M1199 1320 c-33 -17 -38 -26 -53 -87 -9 -37 -20 -99 -26 -138 -13 -100 -45 -249 -69 -325 -12 -36 -21 -79 -21 -97 0 -18 -6 -52 -14 -75 -8 -24 -17 -61 -21 -83 -3 -22 -8 -50 -11 -62 -3 -17 2 -23 27 -28 57 -13 78 27 120 230 10 50 27 119 37 155 11 36 30 112 42 170 13 58 29 112 36 120 6 8 15 33 19 55 3 22 14 48 22 57 18 20 13 48 -17 96 -23 37 -23 37 -71 12z" />
</ns0:g>
</g></svg>