<?xml version='1.0' encoding='utf-8'?>
<svg xmlns:ns0="http://www.w3.org/2000/svg" xmlns="http://www.w3.org/2000/svg" width="235" height="136" viewBox="0 0 235 136"><g transform="translate(-1.9581228080131154,-132.3132698928627) scale(0.05739972241727762)"><ns0:metadata>
Created by potrace 1.16, written by Peter Selinger 2001-2019
</ns0:metadata>
<ns0:g transform="translate(0.000000,214.000000) scale(0.100000,-0.100000)" fill="#000000" stroke="none">
<ns0:path d="M616 2068 c-9 -40 -21 -79 -25 -87 -22 -35 -203 -56 -225 -26 -15 21 -108 31 -145 15 -23 -9 -32 -21 -37 -48 -6 -31 -3 -39 23 -63 22 -19 38 -25 59 -22 30 4 37 4 89 0 29 -2 113 14 147 28 15 6 17 2 15 -27 -2 -38 -12 -48 -82 -85 -27 -14 -65 -37 -82 -50 -43 -33 -138 -90 -163 -98 -28 -9 -80 -79 -80 -108 0 -17 10 -33 29 -46 38 -28 46 -27 82 10 17 17 32 29 35 27 5 -6 -13 -151 -26 -197 -5 -21 -23 -58 -40 -82 -35 -53 -37 -68 -9 -103 27 -34 68 -32 86 4 20 42 248 258 260 246 3 -3 1 -23 -5 -43 -6 -21 -15 -58 -22 -83 -14 -59 -33 -106 -86 -215 -23 -49 -59 -128 -79 -175 -20 -47 -44 -103 -55 -125 -29 -63 -60 -133 -60 -139 0 -13 17 -4 50 27 54 48 86 96 133 199 23 51 54 111 68 133 60 93 87 161 168 427 12 37 21 84 21 106 0 30 7 45 33 69 17 17 46 38 64 47 18 9 36 22 40 29 18 29 156 127 179 127 16 0 37 44 32 69 -2 8 -17 19 -35 24 -25 8 -41 5 -75 -12 -25 -11 -50 -21 -56 -21 -22 0 -92 -72 -92 -94 0 -37 -84 -103 -154 -121 -31 -8 -41 -16 -47 -38 -4 -16 -14 -36 -21 -44 -22 -28 -160 -143 -171 -143 -10 0 -4 49 13 113 6 21 31 60 56 88 24 27 44 56 44 64 0 19 59 74 88 81 12 4 22 10 22 14 0 5 10 12 23 16 12 4 39 21 59 38 20 17 52 43 70 59 18 15 37 27 43 27 5 1 34 22 64 49 48 44 52 50 41 70 -6 12 -14 21 -18 19 -4 -2 -43 -21 -87 -42 -44 -21 -97 -54 -118 -72 -36 -33 -67 -44 -67 -24 0 6 4 10 9 10 5 0 12 8 15 18 3 9 22 34 41 54 19 20 35 39 35 42 0 2 5 17 12 33 6 15 19 49 28 76 l17 47 -58 0 -57 0 -16 -72z" />
<ns0:path d="M1494 2127 c-25 -14 -75 -55 -147 -118 -29 -25 -72 -60 -97 -78 -25 -17 -63 -45 -84 -61 -21 -17 -48 -30 -60 -30 -46 0 -50 -11 -51 -147 -1 -70 -5 -162 -9 -203 -8 -82 -53 -316 -66 -340 -4 -8 -10 -28 -13 -45 -3 -16 -9 -38 -12 -47 -5 -13 0 -20 18 -27 22 -9 25 -16 29 -83 3 -40 2 -82 -2 -94 -5 -12 -30 -31 -57 -44 -26 -12 -67 -36 -91 -52 -24 -17 -58 -34 -76 -39 -45 -12 -86 -52 -86 -83 0 -29 33 -56 69 -56 30 0 119 51 177 101 25 22 50 39 56 39 8 0 9 -44 3 -153 -12 -250 -16 -270 -45 -279 -14 -4 -47 -14 -75 -23 -27 -9 -61 -18 -75 -21 -14 -3 -29 -9 -35 -15 -5 -5 -15 -9 -22 -9 -16 0 -95 -56 -106 -75 -11 -20 13 -53 46 -65 23 -8 38 -5 77 15 27 14 55 25 62 25 7 1 31 9 52 19 30 14 44 16 57 8 14 -8 30 -4 77 21 59 32 126 52 287 87 44 10 91 25 105 35 14 9 52 22 85 29 33 7 80 18 105 26 25 8 77 17 117 20 60 6 75 11 98 35 17 18 25 36 23 51 -3 21 -9 24 -53 26 -74 3 -319 -48 -400 -83 -22 -9 -69 -23 -105 -30 -36 -6 -83 -17 -105 -23 -47 -12 -105 -14 -105 -3 0 4 5 24 10 44 6 20 17 112 24 205 11 127 18 176 32 200 11 18 24 33 30 33 6 0 23 11 38 25 14 13 47 38 72 55 52 37 76 76 54 90 -18 11 -55 3 -95 -20 -53 -31 -105 -60 -110 -60 -7 0 -6 112 1 148 4 20 14 32 28 36 11 3 30 11 40 19 19 14 19 14 -2 35 -12 12 -33 22 -46 22 -36 0 -48 21 -31 54 8 16 15 36 15 46 0 10 13 23 30 30 17 7 30 16 30 21 0 5 6 9 14 9 8 0 31 9 50 21 l36 21 19 -44 c33 -75 85 -153 156 -231 83 -94 106 -99 129 -31 13 39 14 63 3 177 -21 236 -11 605 20 736 12 52 14 76 6 78 -7 3 -9 19 -6 43 l6 40 -49 0 c-27 -1 -59 -6 -70 -13z m-9 -229 c-4 -51 -9 -96 -12 -100 -2 -5 -20 -8 -40 -8 -19 0 -48 -9 -63 -20 -16 -11 -42 -23 -58 -26 -27 -5 -30 -3 -36 27 -5 25 -2 37 11 50 53 52 189 169 197 169 4 0 5 -42 1 -92z m-9 -365 c0 -98 3 -218 7 -268 l8 -90 -33 34 c-34 36 -78 97 -78 109 0 4 -9 18 -20 32 -28 35 -25 74 6 99 17 13 24 28 22 43 -3 23 -11 25 -68 17 -49 -8 -32 27 56 114 48 48 91 87 95 87 4 0 6 -80 5 -177z m-266 47 c0 -11 -4 -20 -9 -20 -6 0 -9 9 -8 20 1 11 5 20 9 20 4 0 8 -9 8 -20z" />
</ns0:g>
</g><g transform="translate(2.9019933017829658,25.42423072533569) scale(0.05739972241727762)"><ns0:metadata>
Created by potrace 1.16, written by Peter Selinger 2001-2019
</ns0:metadata>
<ns0:g transform="translate(0.000000,209.000000) scale(0.100000,-0.100000)" fill="#000000" stroke="none">
<ns0:path d="M1657 1927 c-27 -25 -41 -85 -57 -252 -6 -60 -13 -135 -16 -165 -4 -30 -10 -100 -15 -155 -9 -117 -27 -220 -42 -253 -7 -15 -51 -42 -131 -81 -67 -32 -131 -61 -144 -65 -26 -9 -28 1 -8 59 8 22 19 78 25 123 6 50 19 97 31 117 25 41 25 52 -1 65 -15 9 -32 7 -70 -5 -27 -9 -49 -17 -49 -18 0 -1 -3 -63 -6 -137 -8 -232 -9 -237 -56 -270 -22 -16 -50 -32 -62 -36 -52 -16 -97 -90 -66 -109 21 -13 9 -25 -25 -25 -24 0 -38 5 -42 16 -8 21 9 138 42 304 14 69 29 143 33 165 11 55 12 57 95 111 39 26 76 53 80 61 4 7 25 22 45 32 20 10 46 28 56 40 12 13 31 21 51 21 47 0 67 27 59 79 -4 25 -14 46 -25 51 -30 17 -84 11 -107 -10 -26 -25 -26 -23 -7 -60 15 -29 15 -30 -22 -48 -21 -10 -70 -38 -110 -60 -73 -42 -93 -49 -93 -33 0 23 27 81 57 121 18 25 56 80 85 123 28 42 57 77 65 77 7 0 25 18 39 40 15 22 33 40 40 40 17 0 18 12 2 28 -33 33 -97 1 -199 -99 -45 -44 -84 -77 -88 -74 -5 2 -11 39 -14 81 -5 65 -10 81 -31 102 -22 23 -29 25 -63 16 -34 -8 -38 -12 -36 -39 3 -45 20 -185 28 -232 9 -50 -3 -59 -91 -69 -89 -11 -132 -66 -84 -109 13 -12 31 -16 60 -13 39 3 41 2 35 -20 -9 -38 -97 -156 -140 -190 -22 -17 -58 -47 -80 -67 -22 -20 -56 -45 -76 -55 -20 -11 -49 -30 -65 -43 -16 -13 -44 -32 -62 -41 -18 -9 -48 -32 -67 -51 -48 -46 -46 -69 8 -92 34 -16 64 -4 129 49 26 21 50 38 53 38 12 0 119 73 150 102 116 109 153 141 179 155 l29 15 -7 -54 c-4 -29 -15 -91 -26 -138 -10 -47 -22 -116 -27 -155 -8 -69 -25 -90 -31 -40 -2 14 -10 25 -17 25 -20 0 -65 -22 -65 -31 0 -5 -15 -16 -32 -25 -36 -18 -63 -47 -105 -111 -15 -24 -30 -43 -35 -43 -4 0 -25 -24 -46 -52 -22 -29 -60 -75 -86 -103 -48 -53 -57 -75 -30 -75 31 0 118 69 199 156 44 48 109 116 145 152 l65 65 12 -29 c18 -43 15 -121 -7 -194 -25 -80 -61 -240 -67 -297 -4 -32 -1 -43 8 -43 29 0 58 39 79 105 7 22 16 44 21 49 5 6 9 17 9 25 0 9 17 71 37 139 l38 122 40 0 c91 0 149 35 140 85 -7 34 -10 32 147 112 47 24 89 51 92 59 3 8 12 14 20 14 9 0 42 14 74 30 33 16 67 30 76 30 19 0 19 1 -15 -175 -11 -55 -22 -127 -25 -160 -3 -33 -8 -67 -11 -75 -6 -16 -17 -118 -32 -310 -6 -63 -13 -143 -17 -178 l-7 -62 50 0 50 0 7 58 c3 31 11 113 16 182 6 69 20 186 31 260 12 74 25 164 30 200 5 36 15 92 23 125 9 33 23 99 32 147 l17 88 86 57 c103 68 133 98 129 127 -5 35 -33 30 -103 -18 -65 -44 -102 -62 -111 -53 -3 2 2 38 10 78 8 41 20 155 26 254 7 99 21 223 32 275 29 136 29 139 -10 155 -29 13 -34 12 -55 -8z m-11 -513 c-11 -7 -22 -11 -25 -8 -3 4 0 9 7 11 6 3 12 12 12 21 0 13 2 14 13 3 10 -10 8 -15 -7 -27z m-723 -359 c4 -8 2 -17 -3 -20 -6 -4 -10 3 -10 14 0 25 6 27 13 6z" />
</ns0:g>
</g><g transform="translate(-1.0083407638385893,201.36134002616643) scale(0.05739972241727762)"><ns0:metadata>
Created by potrace 1.16, written by Peter Selinger 2001-2019
</ns0:metadata>
<ns0:g transform="translate(0.000000,208.000000) scale(0.100000,-0.100000)" fill="#000000" stroke="none">
<ns0:path d="M1216 1859 c-39 -16 -77 -35 -85 -42 -9 -8 -36 -19 -61 -26 -25 -7 -49 -16 -55 -21 -5 -4 -23 -10 -40 -14 -61 -15 -121 -47 -141 -77 -24 -34 -22 -59 7 -85 19 -17 22 -17 77 12 74 38 72 37 72 27 0 -5 -33 -44 -72 -86 -122 -129 -169 -183 -198 -228 -15 -24 -52 -70 -83 -101 -58 -60 -117 -157 -117 -193 0 -11 9 -28 20 -38 17 -14 20 -30 21 -99 1 -46 2 -154 3 -241 2 -175 8 -192 55 -155 47 37 51 51 50 245 0 100 1 186 4 190 3 4 2 50 -2 101 l-6 92 56 54 c32 29 69 73 84 96 15 23 49 65 76 94 141 148 197 204 229 226 19 14 62 50 95 80 33 31 72 62 87 69 64 32 99 100 73 141 -11 18 -79 9 -149 -21z" />
<ns0:path d="M1558 1800 c-23 -7 -145 -108 -283 -234 -27 -25 -53 -46 -58 -46 -4 0 -26 -17 -50 -39 -65 -59 -208 -162 -252 -181 -54 -24 -109 -83 -102 -109 3 -11 -1 -25 -8 -31 -7 -6 -18 -45 -24 -88 -10 -67 -9 -85 8 -143 24 -84 36 -106 62 -114 15 -5 28 -1 42 13 18 18 19 24 8 51 -19 45 -6 56 36 30 28 -18 50 -22 109 -21 41 0 74 -4 74 -9 0 -20 -88 -137 -150 -199 -36 -36 -98 -108 -137 -160 -40 -52 -102 -133 -137 -178 -77 -99 -89 -137 -55 -165 26 -21 76 -17 117 9 28 19 144 57 237 79 39 9 89 23 113 31 23 8 57 14 75 14 34 0 148 50 182 80 11 10 31 21 43 25 55 17 104 225 116 495 4 74 15 207 26 295 48 394 63 596 45 601 -5 1 -22 -1 -37 -6z m-89 -365 c-5 -93 -13 -192 -19 -220 -5 -27 -12 -84 -15 -125 -3 -41 -8 -102 -11 -135 -2 -33 -6 -96 -8 -140 -3 -94 -22 -219 -40 -273 -17 -49 -52 -67 -103 -53 -48 13 -62 1 -39 -34 10 -15 15 -29 12 -33 -6 -6 -88 -20 -165 -28 -25 -2 -80 -14 -124 -25 -44 -11 -88 -19 -99 -17 -18 3 -16 9 21 54 23 29 41 55 41 59 0 10 124 166 154 194 14 14 26 30 26 37 0 16 30 27 31 11 4 -46 -16 -140 -38 -172 -15 -22 -16 -44 -4 -63 22 -35 97 46 108 117 4 20 12 45 19 56 23 36 28 226 9 350 -9 61 -19 171 -22 245 l-6 135 88 80 c49 44 109 99 133 123 25 24 48 39 52 35 4 -4 4 -84 -1 -178z m-378 -187 c3 -67 7 -105 18 -181 6 -44 9 -83 5 -88 -3 -5 -22 -9 -42 -9 -63 0 -106 46 -65 68 10 6 14 16 10 27 -6 13 -14 15 -39 9 -18 -3 -43 -13 -56 -22 -30 -20 -36 -11 -22 33 9 28 9 39 0 50 -10 12 -10 18 0 30 7 8 16 15 21 15 11 0 126 77 134 90 14 22 35 9 36 -22z" />
</ns0:g>
</g><g transform="translate(-0.6137633325346883,361.81846942191146) scale(0.05739972241727762)"><ns0:metadata>
Created by potrace 1.16, written by Peter Selinger 2001-2019
</ns0:metadata>
<ns0:g transform="translate(0.000000,209.000000) scale(0.100000,-0.100000)" fill="#000000" stroke="none">
<ns0:path d="M1290 2041 c-20 -16 -25 -31 -31 -88 -16 -157 -30 -250 -44 -283 -13 -30 -32 -104 -84 -340 -5 -19 -22 -78 -39 -130 -17 -52 -34 -108 -37 -125 -6 -27 -76 -247 -97 -303 -9 -27 -17 -26 -116 19 -78 36 -91 59 -74 132 7 29 14 97 16 153 2 56 8 110 14 120 5 10 18 39 28 62 11 26 36 58 63 80 96 79 132 118 138 156 5 32 3 36 -15 36 -11 0 -22 -4 -24 -9 -3 -9 -165 -121 -174 -121 -9 0 8 94 19 108 11 14 -17 52 -38 52 -7 0 -15 7 -19 15 -8 21 -46 18 -75 -4 -24 -18 -24 -20 -12 -74 8 -30 11 -59 8 -63 -3 -5 -2 -29 3 -54 5 -26 4 -52 -1 -62 -20 -37 -226 -155 -389 -222 -36 -15 -70 -47 -70 -66 0 -21 51 -70 73 -70 26 0 95 30 100 44 3 7 31 28 63 47 111 65 189 108 198 108 9 1 -2 -147 -15 -191 -4 -16 -25 -50 -47 -76 -69 -83 -113 -153 -182 -286 -81 -158 -136 -255 -157 -278 -12 -14 -13 -21 -4 -32 10 -12 16 -12 36 -2 36 19 101 96 135 161 17 32 42 71 57 89 14 17 33 47 41 66 16 39 82 130 94 130 11 0 10 -44 -1 -89 -14 -54 -31 -154 -47 -266 -7 -55 -16 -110 -20 -122 -11 -38 24 -42 53 -7 13 16 30 37 39 46 9 9 20 46 24 85 12 93 58 305 69 316 6 6 25 4 51 -7 22 -9 54 -16 70 -16 16 0 31 -4 34 -9 7 -10 -24 -109 -61 -196 -33 -79 -41 -105 -58 -199 -14 -80 -8 -116 22 -116 20 0 62 59 74 103 6 23 19 61 30 85 10 23 19 48 19 56 0 21 119 250 138 264 14 10 14 17 3 47 -11 31 -10 44 10 103 12 37 24 71 26 75 8 14 30 -12 36 -42 6 -26 19 -50 91 -155 19 -29 19 -31 2 -75 -10 -25 -22 -66 -28 -91 -5 -25 -18 -63 -28 -85 -9 -22 -25 -74 -35 -115 -9 -41 -24 -98 -32 -127 -17 -58 -13 -83 14 -83 35 1 70 43 88 105 49 166 109 335 119 335 7 0 28 -21 48 -48 39 -51 71 -80 115 -108 15 -10 44 -32 64 -49 21 -16 66 -50 100 -75 35 -25 75 -58 88 -74 57 -66 61 -67 97 -31 20 20 23 29 14 40 -8 10 -8 19 0 34 15 29 -2 53 -54 74 -23 9 -46 17 -52 17 -6 0 -20 10 -31 23 -12 12 -40 36 -64 52 -92 65 -179 148 -228 217 -28 39 -51 78 -51 86 0 39 120 381 175 500 14 29 25 58 25 65 0 6 18 47 40 90 36 70 40 84 40 152 0 74 -1 75 -25 75 -34 0 -120 -61 -161 -113 -19 -24 -64 -68 -101 -97 -38 -30 -83 -67 -100 -84 -18 -16 -35 -27 -37 -25 -8 8 50 274 78 364 28 87 66 311 62 361 -1 17 -6 36 -10 42 -11 18 -48 14 -76 -7z m190 -706 c0 -15 -67 -203 -119 -332 -34 -84 -61 -160 -61 -169 0 -10 -3 -14 -7 -11 -8 9 -14 50 -14 99 0 50 -18 62 -85 55 l-56 -6 7 42 c9 54 11 57 40 57 36 0 75 18 81 37 15 47 42 86 84 120 25 20 60 54 78 75 29 33 52 48 52 33z" />
</ns0:g>
</g></svg>