<?xml version='1.0' encoding='utf-8'?>
<svg xmlns:ns0="http://www.w3.org/2000/svg" xmlns="http://www.w3.org/2000/svg" width="235" height="121" viewBox="0 0 235 121"><g transform="translate(-0.37783667627661544,-61.21192788666701) scale(0.027595579437518742)"><ns0:metadata>
Created by potrace 1.16, written by Peter Selinger 2001-2019
</ns0:metadata>
<ns0:g transform="translate(0.000000,211.000000) scale(0.100000,-0.100000)" fill="#000000" stroke="none">
<ns0:path d="M1030 2089 c-7 -12 -9 -37 -5 -61 4 -22 8 -103 10 -179 l2 -138 -33 -47 c-41 -58 -42 -76 -7 -102 l28 -20 -17 -69 c-10 -37 -20 -106 -24 -151 -7 -90 -16 -108 -96 -180 -29 -26 -39 -45 -48 -90 -19 -94 -40 -173 -66 -246 -29 -83 -30 -98 -6 -119 19 -18 72 -24 72 -9 0 8 43 32 56 32 3 0 3 -17 0 -37 -3 -21 -8 -93 -11 -161 -7 -138 -2 -152 50 -152 29 0 35 4 45 36 7 19 9 45 6 57 -3 11 2 86 10 166 14 134 18 150 47 193 31 46 32 47 43 25 6 -12 22 -51 34 -87 12 -36 26 -69 30 -75 4 -5 22 -37 40 -70 17 -33 41 -68 53 -78 18 -16 20 -27 18 -141 -2 -137 8 -176 45 -176 36 0 54 26 54 79 0 63 10 112 24 116 6 2 23 6 38 9 28 6 98 61 98 77 0 5 20 51 44 101 105 218 236 587 236 663 0 86 -82 107 -205 52 -27 -12 -52 -25 -55 -28 -13 -16 -53 -30 -68 -24 -15 6 -15 8 2 21 11 8 14 14 8 14 -17 0 -15 46 3 63 10 11 13 25 9 46 -4 19 -2 31 4 31 12 0 18 30 26 122 4 48 2 57 -12 60 -15 3 -17 16 -13 103 2 55 7 110 12 123 5 13 9 35 9 50 0 15 15 49 34 75 38 53 51 95 41 127 -6 18 -12 20 -38 14 -18 -3 -37 -10 -43 -15 -8 -6 -14 -4 -18 6 -4 11 -21 15 -67 15 l-62 0 7 -64 6 -65 -36 -28 c-20 -15 -45 -36 -55 -45 -11 -10 -23 -18 -27 -18 -5 0 -19 -12 -33 -26 -22 -24 -69 -54 -84 -54 -4 0 -4 48 -1 107 4 78 10 111 22 124 15 17 15 20 0 44 -14 22 -24 25 -71 25 -45 0 -56 -4 -65 -21z m356 -266 c-3 -21 -8 -49 -11 -63 -3 -14 -10 -63 -16 -110 -13 -91 -31 -140 -53 -140 -7 0 -33 -15 -57 -33 -24 -19 -57 -41 -74 -51 -16 -9 -38 -22 -47 -28 -9 -7 -20 -10 -23 -7 -9 10 26 192 46 236 10 23 19 45 19 48 0 17 194 185 214 185 5 0 6 -17 2 -37z m-67 -495 c-4 -68 -2 -74 19 -83 14 -6 22 -18 22 -35 0 -33 -5 -39 -75 -90 -33 -24 -63 -47 -66 -52 -7 -11 -140 -98 -150 -98 -14 0 -15 33 -4 120 13 96 22 120 60 140 14 7 35 28 45 46 11 17 33 37 50 44 16 7 41 27 55 46 39 51 48 44 44 -38z m381 -89 c0 -11 -5 -30 -11 -41 -6 -12 -34 -85 -61 -162 -65 -181 -79 -218 -111 -289 -15 -32 -27 -60 -27 -63 0 -3 -11 -30 -25 -60 -14 -30 -25 -59 -25 -64 0 -10 -32 -30 -49 -30 -16 0 -13 54 9 181 11 63 20 141 20 174 1 72 24 205 37 214 5 3 15 20 21 36 12 30 70 75 95 75 7 0 18 5 25 12 12 12 67 35 90 37 6 0 12 -8 12 -20z m-374 -231 c-3 -18 -8 -82 -11 -143 -9 -170 -39 -272 -61 -203 -3 13 -16 35 -28 49 -40 50 -95 148 -96 170 0 9 19 29 43 45 44 30 50 34 107 83 45 39 54 39 46 -1z m-376 -59 c0 -36 -5 -54 -21 -70 -11 -11 -23 -19 -25 -17 -4 4 13 105 22 136 9 29 24 -2 24 -49z" />
<ns0:path d="M624 1966 c-35 -55 -84 -192 -84 -234 0 -22 -4 -52 -9 -68 -50 -164 -69 -214 -111 -295 -26 -52 -71 -139 -99 -193 -28 -55 -51 -104 -51 -110 0 -7 -13 -27 -30 -46 -16 -19 -29 -40 -30 -47 0 -24 -62 -83 -86 -83 -21 0 -24 -5 -24 -34 0 -55 42 -62 100 -16 21 16 43 30 49 30 9 0 34 34 125 177 23 36 48 37 77 3 43 -50 39 -566 -6 -683 -19 -49 -19 -57 4 -57 23 0 59 43 67 79 3 14 11 40 19 56 41 86 45 528 6 618 -22 50 -43 62 -105 58 l-39 -3 16 26 c9 14 17 30 17 36 0 6 21 45 46 87 25 42 52 96 59 122 28 95 111 329 121 342 18 24 40 79 73 182 17 52 -4 87 -52 87 -25 -1 -36 -8 -53 -34z" />
</ns0:g>
</g><g transform="translate(-2.853986277347019,19.078831278350634) scale(0.027595579437518742)"><ns0:metadata>
Created by potrace 1.16, written by Peter Selinger 2001-2019
</ns0:metadata>
<ns0:g transform="translate(0.000000,215.000000) scale(0.100000,-0.100000)" fill="#000000" stroke="none">
<ns0:path d="M1008 1741 c-12 -14 -18 -49 -22 -128 -4 -59 -11 -157 -16 -218 -5 -60 -7 -135 -5 -165 5 -61 -17 -234 -39 -320 -8 -30 -17 -74 -21 -97 -4 -24 -10 -43 -15 -43 -11 0 -30 -56 -30 -87 0 -20 -12 -30 -71 -58 -80 -38 -176 -62 -190 -48 -6 6 -4 33 6 69 9 32 27 118 41 189 14 72 28 142 31 157 4 23 1 30 -21 39 -23 11 -30 10 -53 -7 -54 -40 -61 -62 -78 -212 -8 -79 -21 -156 -29 -170 -7 -15 -16 -45 -20 -67 -4 -22 -12 -53 -18 -68 -27 -69 42 -106 112 -62 22 14 50 25 62 25 36 0 99 20 127 40 14 11 38 22 53 25 27 7 27 6 20 -32 -4 -21 -7 -56 -7 -78 0 -32 5 -42 27 -55 21 -11 32 -12 45 -4 30 19 54 70 63 137 11 78 35 137 55 137 26 0 114 49 125 69 16 32 12 51 -15 61 -14 5 -25 16 -25 24 0 27 -22 28 -49 2 -15 -14 -30 -26 -34 -26 -12 0 -8 44 17 166 29 143 34 185 42 378 3 82 10 172 15 200 5 28 12 78 15 111 3 33 10 70 16 82 18 37 4 53 -49 53 -35 0 -53 -5 -65 -19z m15 -635 c6 -16 -2 -28 -14 -20 -12 7 -11 34 0 34 5 0 11 -6 14 -14z" />
<ns0:path d="M1230 1177 c-23 -12 -25 -18 -22 -73 2 -40 -2 -69 -12 -89 -18 -34 -20 -61 -7 -70 5 -3 13 0 17 7 29 46 33 -226 5 -329 -6 -23 -18 -95 -27 -160 -8 -65 -21 -141 -29 -170 -18 -62 -19 -83 -3 -83 14 0 68 50 68 63 0 5 8 21 19 35 10 15 24 61 30 102 7 41 16 88 21 103 5 15 19 105 31 200 20 153 21 183 10 267 -12 97 -30 175 -44 198 -10 15 -25 15 -57 -1z" />
</ns0:g>
</g><g transform="translate(-0.8063322250081342,92.40414428463396) scale(0.027595579437518742)"><ns0:metadata>
Created by potrace 1.16, written by Peter Selinger 2001-2019
</ns0:metadata>
<ns0:g transform="translate(0.000000,209.000000) scale(0.100000,-0.100000)" fill="#000000" stroke="none">
<ns0:path d="M1465 1968 c-33 -10 -96 -30 -140 -44 -44 -14 -91 -32 -103 -41 -25 -16 -97 -42 -201 -73 -78 -24 -210 -78 -231 -94 -8 -7 -44 -23 -80 -35 -36 -12 -101 -40 -145 -61 -44 -21 -142 -68 -217 -105 -80 -38 -142 -74 -148 -86 -17 -30 -8 -60 23 -83 26 -19 30 -19 85 -6 38 10 60 22 66 35 9 20 69 65 87 65 5 0 30 15 56 34 72 52 266 136 280 122 3 -3 1 -38 -5 -78 -6 -40 -14 -106 -18 -146 -8 -90 -35 -129 -95 -138 -21 -4 -39 -11 -39 -16 0 -5 -29 -23 -65 -39 -36 -17 -73 -41 -83 -54 -10 -13 -29 -25 -42 -27 -48 -7 -59 -40 -70 -218 -5 -91 -17 -212 -26 -268 -11 -72 -13 -107 -6 -114 14 -14 42 -3 42 17 0 8 11 32 23 53 23 35 39 91 52 177 3 22 12 78 20 125 8 47 17 102 20 123 5 29 10 37 21 33 9 -3 30 2 47 11 31 16 49 27 113 71 18 11 44 24 59 28 23 6 26 4 22 -12 -3 -11 -9 -46 -12 -79 -4 -33 -12 -96 -20 -140 -7 -44 -17 -120 -20 -170 -4 -49 -9 -93 -12 -97 -2 -5 -6 -52 -9 -105 -3 -54 -12 -147 -20 -208 -23 -168 -28 -235 -17 -235 12 0 48 65 61 110 6 19 19 60 31 90 11 31 27 119 35 195 26 226 30 233 94 157 40 -48 152 -122 184 -122 9 0 34 -14 54 -32 28 -25 39 -29 52 -21 32 19 46 67 53 188 11 164 16 199 54 360 19 77 37 156 40 175 4 19 20 64 36 99 16 35 29 69 29 75 0 6 22 43 48 83 97 149 102 158 102 207 0 66 -33 71 -95 16 -11 -10 -37 -27 -57 -39 -91 -51 -115 -65 -153 -90 -22 -15 -69 -42 -104 -61 -71 -36 -121 -67 -163 -100 -32 -25 -52 -18 -44 14 3 13 6 78 7 145 2 137 1 135 84 161 22 7 49 19 60 26 11 7 46 17 77 24 32 6 60 15 62 19 3 5 27 16 53 26 26 10 55 23 63 30 8 7 38 18 65 25 28 7 67 21 87 32 21 10 47 18 58 18 61 0 104 57 61 80 -26 14 -55 11 -126 -12z m-655 -298 c0 -5 -4 -10 -10 -10 -5 0 -10 5 -10 10 0 6 5 10 10 10 6 0 10 -4 10 -10z m495 -227 c-3 -16 -21 -59 -40 -98 -30 -65 -65 -186 -80 -280 -3 -22 -12 -58 -20 -80 -21 -64 -45 -226 -45 -310 l0 -77 -37 7 c-78 14 -168 78 -197 139 -9 18 -22 65 -31 104 -13 64 -13 81 5 201 10 72 24 139 29 150 12 21 99 101 111 101 4 0 52 27 106 60 54 33 102 60 106 60 4 0 24 11 44 25 47 32 58 32 49 -2z" />
<ns0:path d="M510 1920 c-38 -38 -27 -76 41 -141 67 -64 93 -72 111 -34 9 19 7 34 -6 68 -9 23 -16 52 -16 64 0 28 -45 63 -81 63 -16 0 -38 -9 -49 -20z" />
</ns0:g>
</g><g transform="translate(-2.889917454326053,179.8778044911516) scale(0.027595579437518742)"><ns0:metadata>
Created by potrace 1.16, written by Peter Selinger 2001-2019
</ns0:metadata>
<ns0:g transform="translate(0.000000,212.000000) scale(0.100000,-0.100000)" fill="#000000" stroke="none">
<ns0:path d="M1122 1965 c-12 -15 -19 -32 -15 -39 16 -29 38 -46 61 -46 13 0 38 -7 55 -15 18 -8 58 -24 90 -36 32 -11 61 -27 63 -34 17 -43 -125 -197 -219 -241 -30 -13 -61 -31 -67 -39 -13 -16 -39 -20 -41 -7 0 4 -2 27 -4 52 -5 77 -23 192 -32 200 -9 9 -52 14 -94 12 -18 -2 -30 -11 -42 -37 -17 -35 -17 -36 6 -58 36 -33 97 -165 97 -208 0 -29 7 -43 31 -63 17 -14 39 -26 50 -26 35 0 112 66 227 194 137 153 163 194 152 243 -8 35 -35 73 -53 73 -5 0 -44 21 -86 46 -45 28 -93 48 -117 51 -36 5 -44 2 -62 -22z" />
<ns0:path d="M1465 1180 c-4 -6 -22 -17 -41 -25 -42 -17 -44 -42 -6 -77 23 -22 36 -26 97 -27 39 -1 85 -4 103 -7 30 -6 33 -9 27 -33 -4 -14 -15 -35 -26 -47 -10 -11 -19 -24 -19 -30 0 -5 -15 -25 -33 -45 -27 -31 -48 -61 -122 -178 -35 -55 -87 -154 -105 -201 -12 -30 -28 -62 -35 -70 -8 -9 -17 -34 -21 -57 -6 -39 -4 -42 24 -57 45 -23 56 -20 100 23 22 22 76 58 121 80 79 40 108 69 97 97 -7 19 -42 18 -103 -6 -31 -11 -55 -16 -58 -10 -7 12 62 142 120 224 45 65 47 69 112 198 60 120 62 132 23 168 -18 17 -43 30 -57 30 -39 0 -122 24 -175 51 -10 5 -20 5 -23 -1z" />
<ns0:path d="M817 1002 c-13 -14 -16 -33 -14 -72 3 -51 17 -74 32 -50 11 17 35 -8 35 -37 0 -39 -46 -117 -99 -168 -28 -27 -53 -56 -56 -64 -3 -9 -19 -24 -36 -34 l-31 -17 5 32 c4 18 7 80 8 138 2 58 7 117 13 133 15 40 -2 62 -49 63 -46 1 -105 -30 -105 -56 0 -10 6 -33 14 -51 26 -63 13 -234 -29 -364 -10 -31 29 -75 66 -75 30 0 42 8 137 98 26 24 55 48 65 54 10 5 24 23 31 39 7 16 36 53 64 83 112 116 130 243 47 331 -36 39 -73 45 -98 17z" />
<ns0:path d="M1132 993 c-26 -32 -28 -74 -6 -108 32 -49 42 -365 13 -428 -11 -24 -11 -30 2 -38 19 -12 19 -12 56 10 46 29 64 118 63 315 -2 208 -4 219 -51 250 -48 32 -50 32 -77 -1z" />
</ns0:g>
</g><g transform="translate(-1.506457787726049,254.16700124579057) scale(0.027595579437518742)"><ns0:metadata>
Created by potrace 1.16, written by Peter Selinger 2001-2019
</ns0:metadata>
<ns0:g transform="translate(0.000000,214.000000) scale(0.100000,-0.100000)" fill="#000000" stroke="none">
<ns0:path d="M858 2087 c-15 -28 -43 -90 -62 -137 -18 -47 -48 -107 -65 -132 -17 -25 -31 -49 -31 -53 0 -3 -13 -26 -30 -50 -16 -24 -34 -55 -39 -69 -6 -13 -35 -63 -65 -110 -55 -83 -86 -135 -148 -249 -17 -31 -53 -79 -79 -105 -27 -26 -49 -50 -49 -53 0 -15 46 -17 82 -2 47 19 136 115 182 197 40 71 64 95 126 126 61 31 95 56 162 117 49 46 90 70 74 44 -3 -5 -7 -29 -7 -54 -1 -25 -5 -50 -8 -55 -3 -5 -31 -15 -61 -21 -61 -13 -100 -35 -100 -55 0 -7 8 -24 19 -37 27 -35 61 -98 61 -114 0 -29 -202 -211 -244 -220 -11 -2 -37 -7 -56 -10 -52 -9 -83 -42 -114 -121 -24 -61 -33 -74 -66 -90 -53 -26 -180 -125 -267 -208 l-73 -69 0 -57 c0 -64 1 -65 85 -48 46 10 117 48 140 75 16 19 66 35 79 25 6 -5 24 -12 39 -16 23 -5 36 0 75 32 26 21 60 46 75 56 l29 18 -8 -59 c-4 -32 -8 -76 -9 -98 -3 -63 -4 -65 -29 -65 -24 0 -78 21 -106 41 -25 17 -69 -6 -85 -45 -8 -19 -19 -37 -25 -41 -17 -11 -11 -71 9 -89 29 -27 102 -23 154 8 40 23 46 24 81 12 21 -7 42 -19 46 -26 6 -10 13 -9 36 1 22 11 31 24 38 55 8 40 12 43 103 89 76 38 95 53 100 74 3 14 30 48 60 74 58 52 128 127 154 167 15 24 16 24 51 7 20 -9 45 -17 56 -17 27 0 32 -18 21 -72 -8 -38 -16 -48 -49 -67 -22 -12 -68 -53 -102 -92 -34 -38 -70 -72 -80 -75 -10 -3 -53 -40 -96 -83 -42 -43 -87 -83 -99 -90 -16 -8 -23 -21 -23 -42 0 -30 31 -68 56 -69 7 0 45 16 85 36 41 19 110 53 154 74 88 42 273 104 320 106 17 1 67 5 113 9 60 6 90 4 106 -5 15 -8 46 -10 92 -6 38 3 88 6 111 5 23 0 44 5 48 11 3 5 17 10 31 10 29 0 42 26 23 45 -8 8 -43 17 -79 20 -36 3 -90 13 -120 21 -53 16 -131 15 -292 -2 -56 -6 -58 -6 -58 17 0 14 -8 36 -17 49 -14 20 -17 44 -16 124 2 100 -12 156 -39 156 -17 0 -2 55 27 97 14 21 35 52 46 70 11 17 35 43 54 57 26 20 35 36 41 71 7 51 -6 75 -40 75 -27 0 -67 -40 -66 -66 3 -68 0 -77 -54 -149 -53 -70 -91 -104 -103 -91 -3 3 -1 11 5 18 6 7 16 36 22 63 7 28 23 84 37 125 15 46 23 86 20 106 -6 35 2 40 122 81 59 20 71 34 47 59 -26 25 -126 10 -261 -39 -22 -8 -61 -18 -87 -22 l-47 -7 3 148 c3 126 6 158 26 209 12 33 25 74 27 90 3 17 21 55 40 86 23 38 33 66 31 85 -3 26 -7 29 -45 32 -41 3 -44 1 -75 -44 -39 -56 -116 -131 -164 -160 -19 -12 -46 -32 -59 -44 -47 -45 -16 46 51 146 18 29 34 57 34 63 0 19 42 80 59 86 10 3 32 -2 49 -11 30 -14 36 -14 84 2 102 34 178 73 178 93 0 35 -23 43 -87 31 -85 -18 -157 -28 -162 -24 -3 2 7 17 21 32 51 56 47 62 -45 62 l-82 0 -27 -53z m252 -925 c0 -30 -36 -163 -56 -207 -24 -53 -148 -239 -193 -290 -100 -113 -190 -185 -231 -185 -5 0 -10 21 -10 48 0 78 38 181 95 261 43 59 46 103 11 126 -25 17 -26 36 -3 83 11 23 179 112 211 112 9 0 44 16 78 35 71 39 98 44 98 17z m-535 -304 c-11 -49 -21 -64 -55 -78 -16 -7 -30 -16 -30 -21 0 -5 -9 -13 -21 -20 -19 -10 -20 -9 -14 11 16 50 92 140 118 140 5 0 5 -15 2 -32z m-295 -168 c-12 -16 -26 -30 -31 -30 -5 0 -9 -7 -9 -15 0 -8 -15 -22 -32 -31 -18 -9 -48 -28 -66 -42 -56 -42 -48 -15 12 45 53 53 120 102 139 103 5 0 -1 -13 -13 -30z m911 -202 c23 -29 24 -58 2 -58 -10 0 -37 -7 -60 -16 -24 -9 -46 -14 -49 -12 -8 8 31 77 53 93 25 20 32 18 54 -7z" />
</ns0:g>
</g><g transform="translate(-0.2934789412464056,329.6097837826334) scale(0.027595579437518742)"><ns0:metadata>
Created by potrace 1.16, written by Peter Selinger 2001-2019
</ns0:metadata>
<ns0:g transform="translate(0.000000,212.000000) scale(0.100000,-0.100000)" fill="#000000" stroke="none">
<ns0:path d="M1584 1834 c-16 -9 -36 -21 -44 -29 -8 -7 -33 -22 -55 -34 -45 -24 -78 -46 -229 -148 -102 -69 -134 -95 -196 -155 -15 -16 -33 -28 -40 -28 -6 0 -24 -7 -40 -15 -33 -17 -46 -52 -55 -150 -10 -101 -48 -267 -102 -437 -8 -27 -21 -48 -28 -48 -20 0 -80 43 -136 97 -27 26 -58 51 -68 55 -19 6 -19 10 -5 60 8 29 25 103 38 163 31 143 61 201 128 252 29 22 68 48 86 57 27 14 33 22 30 44 -2 22 -9 28 -33 30 -29 3 -117 -37 -130 -59 -14 -21 -27 -8 -22 21 7 31 32 62 60 73 28 11 19 41 -24 85 -46 48 -76 53 -106 20 -15 -18 -22 -48 -32 -143 l-12 -120 -37 -32 c-20 -18 -64 -47 -97 -64 -159 -83 -209 -141 -186 -212 19 -55 91 -76 91 -26 0 28 28 79 44 79 7 0 23 11 36 25 13 14 28 25 32 25 5 0 25 12 44 26 l34 26 0 -38 c0 -46 -43 -219 -59 -238 -6 -7 -30 -16 -53 -20 -33 -5 -52 -18 -99 -67 -38 -39 -59 -70 -59 -85 0 -12 -4 -25 -9 -29 -16 -9 -64 -86 -98 -155 -42 -86 -103 -233 -103 -247 0 -68 115 58 184 202 53 109 59 119 112 190 61 80 90 115 97 115 3 0 1 -15 -4 -33 -8 -30 -18 -83 -54 -287 -9 -47 -24 -112 -35 -145 -11 -33 -22 -106 -26 -162 l-7 -103 25 0 c43 0 71 45 79 126 4 38 16 100 28 137 11 37 28 109 36 160 9 50 26 129 37 174 l20 82 47 -38 c65 -53 114 -81 144 -81 14 0 29 -5 32 -10 7 -12 -49 -184 -71 -217 -29 -46 -11 -86 30 -64 28 15 76 95 76 126 0 13 11 36 25 50 13 15 29 43 36 63 7 21 18 46 24 57 7 11 21 45 30 75 10 30 21 60 25 65 4 6 19 63 35 128 15 64 30 117 34 117 11 0 29 61 37 123 4 41 11 60 23 64 27 10 51 35 51 54 0 9 4 19 10 21 5 2 35 28 67 59 32 31 81 71 108 90 28 19 75 53 106 77 48 36 79 51 79 38 0 -2 -10 -28 -23 -57 -13 -30 -29 -74 -36 -99 -7 -25 -24 -70 -36 -100 -34 -83 -70 -202 -100 -330 -15 -63 -33 -136 -41 -162 -18 -59 -17 -196 0 -268 16 -65 26 -90 35 -91 3 0 74 -2 156 -4 l150 -4 64 32 c35 17 67 41 72 52 5 11 18 83 29 160 11 77 23 154 26 170 6 37 -36 88 -69 83 -18 -2 -21 -9 -19 -34 2 -18 -6 -60 -17 -95 -11 -35 -22 -94 -25 -132 -9 -113 -38 -129 -201 -112 -95 10 -101 15 -104 71 -1 26 -4 51 -7 55 -6 10 32 210 57 294 31 107 58 191 94 295 18 52 38 113 45 135 7 22 33 82 57 133 53 111 66 184 36 200 -15 8 -27 7 -49 -4z m-260 -925 c-3 -5 -10 -7 -15 -3 -5 3 -7 10 -3 15 3 5 10 7 15 3 5 -3 7 -10 3 -15z" />
</ns0:g>
</g><g transform="translate(2.0055995874980113,404.7734417792424) scale(0.027595579437518742)"><ns0:metadata>
Created by potrace 1.16, written by Peter Selinger 2001-2019
</ns0:metadata>
<ns0:g transform="translate(0.000000,205.000000) scale(0.100000,-0.100000)" fill="#000000" stroke="none">
<ns0:path d="M653 1874 c-16 -7 -17 -46 -2 -61 21 -21 49 -223 42 -307 l-6 -78 -41 -20 c-73 -35 -84 -43 -126 -99 -48 -64 -56 -90 -41 -127 6 -15 10 -39 9 -52 -2 -14 2 -25 9 -25 10 0 63 68 63 82 0 14 61 80 90 97 l33 19 -7 -59 c-15 -121 -20 -132 -80 -149 -30 -9 -60 -22 -66 -30 -21 -25 -2 -69 45 -105 35 -27 44 -42 44 -65 1 -53 -23 -121 -54 -156 -30 -34 -46 -47 -117 -94 -45 -30 -48 -56 -12 -90 32 -29 37 -30 58 -9 9 8 23 14 32 12 13 -3 16 -28 17 -173 2 -153 4 -174 23 -210 21 -38 99 -105 124 -105 6 0 24 -7 40 -15 41 -21 127 -30 287 -29 97 0 161 6 200 17 32 8 89 21 126 27 38 7 106 28 150 47 45 20 98 41 117 48 33 12 35 16 40 72 6 58 -5 95 -46 163 -8 14 -20 37 -25 53 -6 15 -15 27 -20 27 -5 0 -13 8 -17 18 -15 37 -77 122 -87 119 -18 -6 -17 -46 4 -102 12 -31 21 -66 21 -78 0 -12 7 -35 16 -52 26 -48 42 -111 33 -127 -15 -27 -147 -79 -237 -94 -259 -43 -431 -44 -522 -2 -30 13 -70 41 -88 62 -29 33 -32 44 -34 104 -4 141 0 180 27 240 25 56 29 60 80 76 30 9 57 21 60 26 11 18 34 10 41 -12 8 -26 51 -86 74 -105 26 -21 55 -14 88 20 18 18 32 38 32 44 0 6 6 16 14 22 21 18 57 298 71 566 3 50 10 133 15 185 13 127 16 223 6 238 -8 14 -42 16 -50 3 -3 -4 -27 -16 -53 -26 -26 -10 -55 -24 -64 -31 -8 -8 -54 -29 -101 -48 l-85 -33 -5 137 c-5 127 -7 141 -34 191 -26 48 -33 54 -64 56 -19 1 -41 0 -47 -3z m107 -258 c0 -3 -4 -8 -10 -11 -5 -3 -10 -1 -10 4 0 6 5 11 10 11 6 0 10 -2 10 -4z m297 -153 c-8 -37 -25 -227 -40 -443 l-12 -175 -24 3 c-13 2 -50 -11 -83 -28 -32 -17 -65 -30 -71 -27 -7 3 -21 21 -32 41 l-20 36 25 48 c14 26 30 53 37 60 24 24 15 68 -18 96 -17 14 -34 26 -39 26 -18 0 -18 34 1 142 12 66 27 120 37 131 15 17 26 23 122 65 25 11 54 27 65 36 11 8 28 16 39 16 15 0 17 -5 13 -27z m-289 -690 c2 -15 -4 -23 -18 -28 -28 -9 -32 -3 -24 29 8 32 37 32 42 -1z m232 -13 c0 -22 -4 -48 -9 -58 -5 -9 -13 -35 -18 -56 -10 -51 -26 -55 -63 -18 -45 46 -41 81 14 116 25 15 47 34 50 42 11 28 26 13 26 -26z" />
<ns0:path d="M300 1234 c-15 -38 -12 -82 11 -149 39 -118 45 -160 48 -332 1 -40 5 -53 16 -53 20 0 35 31 52 109 17 77 17 122 3 246 -24 194 -29 205 -91 205 -22 0 -32 -6 -39 -26z" />
</ns0:g>
</g><g transform="translate(-1.928198495254378,485.666471523645) scale(0.027595579437518742)"><ns0:metadata>
Created by potrace 1.16, written by Peter Selinger 2001-2019
</ns0:metadata>
<ns0:g transform="translate(0.000000,211.000000) scale(0.100000,-0.100000)" fill="#000000" stroke="none">
<ns0:path d="M764 1765 c-30 -13 -32 -19 -49 -112 -25 -136 -64 -232 -141 -348 -36 -55 -77 -121 -90 -147 -13 -26 -28 -49 -34 -53 -6 -4 -22 -27 -35 -53 -14 -26 -35 -59 -47 -74 -12 -15 -19 -31 -15 -34 9 -10 98 74 168 157 33 41 80 97 104 124 84 98 119 151 141 216 12 36 32 81 43 100 12 19 26 51 31 71 6 21 18 39 29 43 19 6 31 32 31 68 0 11 -13 23 -32 31 -56 23 -72 25 -104 11z" />
<ns0:path d="M1288 1674 c-32 -17 -31 -12 -17 -124 16 -120 17 -137 20 -303 1 -81 -1 -150 -4 -154 -4 -3 -26 -7 -50 -8 -23 -1 -63 -6 -89 -10 -43 -7 -48 -6 -48 11 0 11 11 37 25 59 95 158 115 242 79 345 -17 50 -110 170 -131 170 -8 0 -27 -7 -43 -15 -50 -26 -41 -61 33 -136 83 -84 98 -118 88 -191 -4 -34 -18 -73 -33 -95 -14 -21 -36 -56 -49 -78 -13 -22 -34 -51 -46 -65 -13 -14 -23 -28 -23 -31 0 -4 -30 -31 -67 -62 -38 -30 -81 -66 -97 -81 -33 -32 -40 -29 -31 13 4 20 23 44 53 68 26 21 59 49 73 63 15 14 41 35 58 48 32 24 41 59 17 68 -18 7 -75 -17 -130 -55 -24 -17 -46 -27 -50 -24 -17 18 9 162 31 170 29 11 13 43 -33 65 -43 20 -48 20 -73 5 -24 -15 -26 -22 -33 -114 -17 -222 -11 -206 -82 -242 -25 -12 -48 -26 -51 -31 -5 -9 -90 -51 -140 -70 -15 -6 -45 -23 -68 -39 -23 -15 -76 -45 -117 -65 -41 -20 -94 -47 -118 -60 -49 -27 -112 -88 -112 -108 0 -8 15 -22 33 -31 33 -18 35 -18 75 3 23 12 44 25 47 29 2 4 46 29 97 56 51 26 107 58 123 70 17 12 40 25 53 29 12 4 22 11 22 16 0 4 19 15 43 25 23 9 56 27 72 39 32 23 85 49 91 43 7 -6 -19 -124 -30 -139 -10 -13 -130 -88 -142 -88 -3 0 -2 9 1 20 3 11 3 20 -1 20 -40 0 -271 -223 -281 -272 -13 -64 68 -31 145 58 40 46 181 145 233 163 l31 11 -5 -33 c-18 -122 -80 -372 -98 -392 -5 -5 -9 -22 -9 -37 0 -22 4 -28 23 -28 40 0 46 7 100 111 10 19 28 84 42 144 13 61 31 137 40 171 16 59 18 61 62 74 37 10 52 11 80 1 28 -11 39 -10 71 6 41 20 51 55 17 61 -35 5 -65 25 -65 42 0 26 76 107 143 151 60 40 123 59 198 59 l38 0 -5 -62 c-23 -299 -58 -605 -84 -733 -6 -27 -13 -80 -17 -117 l-6 -68 55 0 55 0 1 57 c1 32 11 108 22 168 12 61 28 171 35 245 28 281 37 356 45 375 4 11 13 46 20 78 13 67 27 77 102 77 48 0 58 4 88 35 32 33 33 34 16 60 -18 27 -44 27 -76 0 -9 -8 -36 -12 -70 -10 l-55 3 0 154 c1 84 4 175 7 202 8 57 -6 132 -36 196 -24 50 -45 58 -88 34z m-861 -880 c-3 -3 -12 -4 -19 -1 -8 3 -5 6 6 6 11 1 17 -2 13 -5z" />
</ns0:g>
</g><g transform="translate(-0.3138704043534517,561.4138039481985) scale(0.027595579437518742)"><ns0:metadata>
Created by potrace 1.16, written by Peter Selinger 2001-2019
</ns0:metadata>
<ns0:g transform="translate(0.000000,214.000000) scale(0.100000,-0.100000)" fill="#000000" stroke="none">
<ns0:path d="M2236 1167 c1 -534 -1 -980 -3 -989 -8 -33 -133 -16 -314 42 -51 17 -101 30 -111 30 -30 0 -141 40 -161 58 -18 17 -123 78 -182 107 -16 8 -41 23 -54 33 l-24 19 37 99 c21 54 44 113 51 129 14 28 68 158 121 289 13 33 30 66 37 75 34 40 122 197 124 220 1 14 -1 41 -3 59 -4 26 -10 32 -28 32 -13 0 -29 -7 -36 -15 -7 -8 -18 -15 -26 -15 -7 0 -19 -9 -26 -19 -8 -11 -47 -39 -88 -62 -41 -24 -77 -46 -80 -49 -6 -7 -100 -60 -107 -60 -2 0 -3 69 -3 153 2 154 5 181 43 344 5 20 37 52 121 123 42 36 96 93 96 101 0 12 -30 39 -44 39 -7 0 -27 -12 -44 -27 -34 -32 -99 -73 -113 -73 -17 0 -9 18 16 34 27 17 33 50 13 62 -21 13 -71 4 -93 -16 -12 -11 -26 -20 -33 -20 -20 0 -32 -37 -32 -103 0 -60 -2 -67 -29 -90 -36 -30 -66 -88 -75 -145 l-6 -42 39 6 c38 6 40 5 48 -22 4 -16 7 -112 8 -212 l0 -184 -25 -19 c-24 -19 -56 -46 -143 -120 -65 -55 -85 -119 -48 -153 29 -27 61 -16 83 26 21 41 91 98 119 98 10 0 42 27 71 61 44 51 171 149 192 149 11 0 7 -20 -13 -63 -11 -24 -23 -56 -27 -72 -4 -17 -12 -37 -19 -45 -7 -8 -18 -33 -24 -55 -7 -22 -19 -53 -26 -70 -51 -112 -69 -153 -81 -194 -7 -26 -20 -55 -28 -66 -15 -19 -17 -19 -61 28 -50 52 -86 61 -125 29 -30 -24 -22 -55 25 -112 23 -28 34 -49 29 -59 -11 -29 -9 -46 6 -46 9 0 15 9 14 23 0 15 5 22 18 22 11 0 18 -7 18 -19 0 -31 -56 -145 -78 -158 -28 -17 -37 -61 -16 -84 9 -11 21 -19 26 -19 19 0 99 90 117 133 33 76 42 76 185 5 69 -35 149 -75 178 -90 65 -34 108 -47 173 -55 28 -3 58 -9 67 -14 34 -18 212 -49 279 -49 l69 0 0 -45 0 -45 39 0 c39 0 40 1 46 44 8 52 16 56 128 56 l77 0 0 31 c0 30 -1 31 -47 29 -27 -2 -74 -2 -106 -1 l-58 1 5 608 c3 334 5 762 4 952 0 190 0 362 1 383 l1 37 -42 0 -43 0 1 -973z" />
<ns0:path d="M840 1825 l-23 -25 16 -97 c9 -54 18 -118 19 -143 3 -42 1 -46 -32 -62 -45 -23 -127 -58 -135 -58 -3 0 -19 -10 -35 -22 -23 -16 -30 -30 -30 -54 0 -80 121 -88 194 -13 38 39 56 38 56 -4 0 -18 5 -59 11 -91 13 -72 5 -113 -24 -122 -12 -3 -33 -17 -47 -29 -14 -13 -50 -35 -80 -50 -30 -16 -80 -52 -110 -81 -30 -28 -64 -55 -75 -58 -27 -8 -56 -77 -42 -102 5 -11 11 -20 12 -22 2 -2 20 -5 40 -7 41 -4 97 26 113 61 5 11 25 32 43 48 19 15 61 49 94 76 33 28 65 50 72 50 20 0 26 -108 14 -240 -12 -124 -47 -300 -59 -300 -12 0 -47 64 -49 90 -1 14 -7 43 -12 66 -6 22 -10 75 -9 117 2 92 -13 119 -36 63 -58 -139 -36 -324 55 -448 38 -52 46 -59 73 -56 29 3 32 8 59 88 59 180 73 262 88 500 15 243 16 249 60 292 21 20 45 51 54 68 15 29 15 32 -4 56 -19 24 -20 24 -30 5 -10 -17 -70 -61 -84 -61 -4 0 -6 12 -6 28 1 15 0 68 -1 117 -1 87 0 91 27 112 84 67 134 125 124 141 -8 14 -16 10 -144 -60 -18 -10 -35 -14 -40 -9 -14 14 3 171 19 171 38 0 25 42 -22 70 -47 27 -85 26 -114 -5z" />
</ns0:g>
</g><g transform="translate(-2.227935349652398,651.7941471764144) scale(0.027595579437518742)"><ns0:metadata>
Created by potrace 1.16, written by Peter Selinger 2001-2019
</ns0:metadata>
<ns0:g transform="translate(0.000000,208.000000) scale(0.100000,-0.100000)" fill="#000000" stroke="none">
<ns0:path d="M1363 2056 c-26 -22 -151 -100 -246 -155 -23 -13 -67 -40 -97 -59 -80 -53 -137 -82 -144 -75 -3 4 -6 30 -6 59 0 56 -14 100 -35 108 -7 2 -23 -1 -36 -8 -22 -11 -24 -18 -25 -91 -2 -137 -3 -139 -129 -217 -27 -17 -83 -48 -123 -69 -66 -35 -127 -76 -160 -106 -7 -7 -18 -13 -23 -13 -5 0 -9 -8 -9 -18 0 -10 -7 -27 -15 -38 -8 -10 -15 -26 -15 -34 0 -21 55 -80 74 -80 9 0 32 26 52 58 20 31 53 70 74 85 55 39 162 98 168 93 7 -8 -12 -54 -84 -201 -34 -71 -77 -165 -95 -207 -22 -52 -43 -86 -66 -104 -18 -14 -33 -30 -33 -35 0 -4 -26 -34 -57 -66 -148 -149 -211 -272 -154 -303 29 -15 34 -13 80 23 39 31 64 62 148 187 117 173 204 273 221 256 5 -5 -17 -296 -24 -307 -2 -3 -8 -37 -14 -75 -6 -38 -20 -88 -32 -112 -23 -48 -16 -65 22 -54 62 18 93 64 109 162 22 143 40 285 44 360 6 99 -9 130 -65 130 -40 0 -36 24 21 132 27 51 64 134 81 184 36 103 85 163 166 203 43 21 114 71 152 108 7 7 18 13 23 13 10 0 70 42 97 68 7 6 19 12 26 12 7 0 23 12 37 26 13 14 37 32 52 40 15 9 46 32 68 54 35 34 38 41 29 64 -12 32 -21 32 -57 2z" />
<ns0:path d="M1372 1773 c-158 -153 -227 -214 -278 -246 -24 -15 -44 -31 -44 -35 0 -4 -40 -42 -89 -83 -126 -104 -159 -178 -93 -209 23 -10 29 -9 45 12 50 63 241 248 255 248 14 0 82 72 82 87 0 7 6 13 13 13 8 0 19 10 26 23 11 21 70 62 78 54 2 -2 -3 -33 -11 -68 -24 -104 -49 -432 -42 -540 8 -111 14 -101 -96 -157 -41 -22 -97 -54 -122 -72 -51 -34 -64 -35 -46 -1 6 12 13 50 17 85 5 60 4 66 -22 91 -25 26 -31 27 -90 22 -69 -7 -139 -36 -149 -62 -15 -39 -6 -61 29 -78 46 -22 52 -22 87 8 38 32 62 33 52 3 -10 -34 -77 -138 -126 -198 -33 -41 -35 -63 -8 -90 20 -20 80 -28 80 -10 0 5 17 18 39 29 l38 20 81 -78 c55 -52 97 -84 129 -96 44 -17 126 -58 171 -86 28 -17 51 -5 68 37 14 33 14 59 -2 263 -18 247 -23 540 -12 696 13 176 38 286 94 416 36 84 30 109 -25 109 -10 0 -68 -48 -129 -107z m-48 -990 c4 -43 12 -122 18 -176 13 -121 9 -128 -59 -100 -26 11 -60 23 -74 27 -15 3 -54 26 -87 50 l-61 45 26 46 c14 26 33 49 42 53 9 3 52 34 96 69 44 34 83 63 87 63 3 0 9 -35 12 -77z" />
</ns0:g>
</g><g transform="translate(0.4032386091757303,720.7391377979565) scale(0.027595579437518742)"><ns0:metadata>
Created by potrace 1.16, written by Peter Selinger 2001-2019
</ns0:metadata>
<ns0:g transform="translate(0.000000,209.000000) scale(0.100000,-0.100000)" fill="#000000" stroke="none">
<ns0:path d="M1491 1903 c-31 -32 -71 -75 -88 -95 -18 -21 -61 -57 -97 -82 -122 -84 -206 -156 -206 -177 0 -12 -8 -23 -19 -26 -30 -8 -51 -64 -67 -176 -18 -130 -21 -140 -42 -131 -40 17 -94 16 -142 -5 -27 -12 -51 -21 -54 -21 -13 0 -4 20 29 68 154 225 165 418 25 452 -117 28 -218 -43 -153 -108 18 -18 16 -39 -6 -76 -19 -31 -29 -101 -36 -251 -4 -98 -13 -163 -26 -186 -6 -12 -5 -20 2 -25 8 -5 10 -53 7 -165 -6 -168 -17 -209 -57 -209 -24 0 -42 -22 -32 -39 5 -7 24 -16 42 -20 l34 -7 1 -94 c6 -356 7 -371 25 -381 10 -5 26 -9 37 -9 43 0 46 18 43 280 -1 196 1 256 12 283 17 40 78 128 122 177 18 19 49 60 69 90 l37 55 -6 -40 c-4 -22 -14 -77 -22 -122 -23 -124 -9 -143 52 -65 35 45 37 46 32 17 -3 -16 -9 -68 -12 -115 -4 -47 -13 -110 -20 -140 -21 -89 -72 -225 -100 -266 -30 -44 -32 -77 -5 -104 24 -24 31 -24 92 -5 70 21 138 78 258 213 30 34 63 62 72 62 9 0 40 -23 70 -51 29 -28 88 -77 130 -110 42 -32 80 -64 83 -69 7 -11 111 -80 121 -80 3 0 19 -14 36 -30 17 -17 45 -42 63 -56 l33 -25 58 22 c93 35 134 96 85 126 -16 10 -24 9 -44 -7 -33 -26 -49 -25 -85 5 -17 14 -33 25 -36 25 -11 0 -178 119 -236 167 -30 25 -71 67 -92 93 -21 26 -53 59 -73 74 -42 32 -43 44 -10 80 14 15 25 29 25 30 0 2 14 19 31 37 17 19 47 56 65 84 19 27 50 73 70 100 19 28 37 60 40 73 7 26 -11 52 -37 52 -17 0 -139 -110 -139 -125 0 -7 -60 -86 -105 -140 -14 -16 -34 -41 -44 -54 l-18 -25 -31 25 c-17 13 -31 29 -31 35 -1 18 -60 64 -82 64 -20 0 -21 4 -17 63 9 101 27 147 77 192 122 109 153 144 149 167 -4 29 -43 37 -66 13 -25 -24 -140 -105 -150 -105 -5 0 -17 -9 -27 -20 -29 -32 -38 -24 -30 27 13 88 43 189 50 171 11 -27 32 -22 109 26 39 23 90 54 114 66 41 23 42 23 57 4 17 -22 19 -112 11 -374 -1 -46 29 -52 61 -11 30 38 43 156 43 386 0 209 21 372 57 432 18 32 23 53 21 90 -3 42 -6 48 -26 51 -18 3 -38 -11 -81 -55z m-51 -211 c0 -5 -5 -35 -12 -68 -11 -56 -14 -82 -17 -132 -1 -20 -5 -22 -39 -16 -28 4 -41 2 -51 -10 -7 -9 -19 -16 -26 -16 -7 0 -18 -7 -25 -15 -7 -8 -20 -15 -30 -15 -9 0 -38 -11 -64 -25 -56 -30 -59 -30 -53 -7 3 9 8 33 11 53 5 27 13 39 29 43 12 3 49 31 82 62 33 31 80 69 104 85 24 15 50 37 58 49 14 20 33 27 33 12z m-604 -94 c10 -16 7 -74 -5 -97 -11 -20 -13 -19 -51 18 -45 44 -48 53 -21 80 19 19 65 19 77 -1z m-46 -193 c0 -2 -9 -19 -20 -37 l-20 -33 0 31 c0 17 3 34 7 37 7 8 33 9 33 2z m80 -280 c0 -10 -63 -120 -94 -162 -36 -52 -56 -56 -56 -10 0 77 11 104 50 126 20 11 43 28 50 36 12 14 50 22 50 10z m320 -580 c11 -20 10 -28 -4 -50 -10 -14 -24 -29 -32 -32 -8 -3 -28 -24 -43 -47 -28 -40 -91 -87 -91 -68 0 5 7 29 16 53 8 24 24 80 35 124 11 44 22 86 25 93 5 16 75 -38 94 -73z" />
</ns0:g>
</g><g transform="translate(-2.356454634557963,803.7362426108062) scale(0.027595579437518742)"><ns0:metadata>
Created by potrace 1.16, written by Peter Selinger 2001-2019
</ns0:metadata>
<ns0:g transform="translate(0.000000,207.000000) scale(0.100000,-0.100000)" fill="#000000" stroke="none">
<ns0:path d="M1100 1720 c-8 -5 -29 -10 -47 -10 -76 0 -101 -33 -182 -240 -29 -74 -56 -139 -61 -145 -4 -5 -31 -55 -60 -110 -29 -55 -58 -107 -65 -115 -20 -25 -110 -209 -151 -310 -21 -52 -51 -117 -66 -143 -51 -88 -33 -101 39 -29 68 66 133 169 214 332 28 58 59 116 69 130 20 29 67 121 139 274 29 60 63 122 75 137 13 15 33 48 45 73 13 27 37 54 57 67 41 25 60 64 43 85 -13 16 -28 17 -49 4z" />
<ns0:path d="M1283 1480 c-34 -14 -40 -56 -12 -86 12 -13 31 -24 41 -24 10 0 30 -8 45 -17 24 -16 26 -16 39 2 22 30 16 58 -20 98 -34 37 -53 43 -93 27z" />
<ns0:path d="M863 1053 c-18 -2 -37 -12 -42 -21 -7 -15 -15 -83 -27 -241 -1 -18 -8 -54 -14 -80 -17 -62 -153 -340 -190 -386 -36 -46 -39 -87 -8 -109 31 -22 75 -20 88 3 5 11 38 34 73 51 59 31 140 77 219 127 21 13 42 23 47 23 10 0 115 62 140 83 9 7 28 18 43 25 35 14 46 1 58 -72 5 -31 11 -60 14 -65 3 -5 8 -30 11 -56 11 -87 67 -186 92 -161 12 12 10 130 -3 221 -7 50 -27 140 -43 200 -29 100 -30 110 -15 126 20 22 11 37 -35 57 -48 21 -72 23 -98 6 -34 -21 -36 -47 -8 -103 32 -63 30 -82 -13 -93 -18 -5 -55 -22 -83 -38 -27 -17 -54 -30 -59 -30 -9 0 -136 -57 -203 -90 l-38 -20 7 23 c3 12 12 29 19 37 7 8 16 26 20 40 3 14 13 39 21 57 13 30 51 177 74 293 19 95 21 104 37 136 29 57 12 69 -84 57z" />
</ns0:g>
</g><g transform="translate(-2.9374453641655123,889.1071880980537) scale(0.027595579437518742)"><ns0:metadata>
Created by potrace 1.16, written by Peter Selinger 2001-2019
</ns0:metadata>
<ns0:g transform="translate(0.000000,209.000000) scale(0.100000,-0.100000)" fill="#000000" stroke="none">
<ns0:path d="M1384 2047 c-56 -46 -134 -112 -197 -167 -43 -37 -166 -117 -232 -150 -22 -11 -65 -24 -95 -30 -87 -17 -144 -49 -148 -83 -2 -16 4 -40 13 -54 16 -23 22 -25 64 -20 43 5 121 38 237 100 64 35 123 80 204 157 41 40 91 84 110 100 l35 28 -1 -277 c-1 -289 -6 -387 -29 -586 -8 -66 -19 -199 -25 -295 -7 -96 -16 -183 -22 -194 -8 -14 -17 -17 -44 -13 -20 4 -46 0 -64 -10 -20 -9 -58 -15 -106 -15 -63 1 -75 -2 -72 -15 2 -9 15 -25 30 -36 23 -17 44 -20 187 -22 l161 -2 0 39 c0 25 5 38 13 38 10 0 13 13 10 53 -4 53 15 306 43 567 8 80 17 249 18 375 3 182 7 238 19 270 9 22 16 57 17 77 0 26 10 50 35 82 19 26 35 51 35 56 0 6 11 20 25 32 14 12 25 25 25 30 0 13 -47 9 -53 -5 -7 -19 -86 -71 -95 -62 -4 4 -1 10 7 13 7 2 28 17 45 33 l31 28 -65 0 c-61 0 -68 -3 -116 -42z" />
<ns0:path d="M1095 1559 c-38 -16 -81 -36 -95 -44 -14 -8 -58 -31 -99 -52 -92 -45 -183 -129 -183 -167 0 -55 50 -77 113 -49 27 12 42 25 46 43 7 29 52 79 71 80 7 0 23 11 35 24 13 14 75 52 138 84 119 63 146 92 97 106 -37 9 -49 7 -123 -25z" />
<ns0:path d="M1079 1278 c-39 -44 -39 -68 3 -68 49 0 117 -37 125 -68 5 -22 -1 -32 -38 -64 -61 -53 -152 -95 -221 -101 -56 -5 -57 -5 -67 26 -23 64 -70 86 -104 49 -20 -22 -21 -36 -4 -82 21 -59 45 -96 71 -114 27 -17 76 -22 76 -6 0 5 17 16 38 26 106 46 149 69 168 88 12 11 47 34 78 49 65 33 92 64 100 115 10 63 -5 93 -70 139 -76 53 -113 56 -155 11z" />
</ns0:g>
</g></svg>