<?xml version='1.0' encoding='utf-8'?>
<svg xmlns:ns0="http://www.w3.org/2000/svg" xmlns="http://www.w3.org/2000/svg" width="235" height="121" viewBox="0 0 235 121"><g transform="translate(0.8886188341692218,-66.13171352231448) scale(0.027595579437518742)"><ns0:metadata>
Created by potrace 1.16, written by Peter Selinger 2001-2019
</ns0:metadata>
<ns0:g transform="translate(0.000000,208.000000) scale(0.100000,-0.100000)" fill="#000000" stroke="none">
<ns0:path d="M2249 2048 c0 -18 0 -397 0 -843 1 -475 -2 -816 -8 -824 -7 -11 -23 -12 -68 -7 -32 3 -80 8 -108 11 -56 6 -125 24 -140 37 -5 4 -16 8 -25 8 -18 0 -111 47 -125 64 -5 6 -26 22 -45 36 -67 45 -220 172 -220 182 0 15 60 138 82 171 11 15 48 83 83 150 34 67 69 136 78 152 51 94 99 209 111 266 8 35 21 84 29 109 23 67 31 153 17 180 -10 18 -18 21 -46 17 -51 -9 -150 -73 -236 -156 -43 -40 -78 -71 -78 -69 0 3 12 36 26 74 25 67 42 119 43 129 2 18 39 76 68 106 55 58 28 101 -42 67 -16 -9 -43 -19 -60 -24 -23 -7 -33 -20 -48 -59 -20 -53 -50 -149 -72 -229 -16 -57 -81 -195 -130 -276 -18 -30 -47 -82 -65 -115 -17 -33 -45 -74 -61 -90 -16 -17 -29 -35 -29 -40 0 -6 -11 -23 -25 -40 l-24 -30 -1 53 c0 70 -25 97 -82 88 -52 -8 -86 -26 -143 -76 -25 -22 -49 -40 -53 -40 -4 0 -43 -35 -87 -76 l-80 -76 -3 33 c-5 52 7 97 35 126 14 16 32 42 39 58 7 17 35 48 61 70 81 69 184 176 180 188 -7 24 -49 18 -100 -14 -28 -17 -56 -37 -62 -44 -5 -7 -35 -29 -65 -48 -30 -20 -77 -58 -105 -84 -27 -26 -62 -54 -76 -63 -15 -8 -52 -33 -83 -54 l-56 -39 -23 21 c-13 12 -37 27 -55 33 -39 13 -40 27 -7 75 14 20 25 42 25 49 0 6 27 39 59 73 72 73 97 135 66 158 -10 8 -22 14 -25 14 -9 0 -129 -96 -157 -125 -12 -12 -34 -47 -49 -76 -15 -30 -40 -70 -56 -90 -15 -20 -28 -41 -28 -46 0 -5 -15 -27 -33 -49 -57 -69 -87 -112 -87 -128 0 -28 13 -47 43 -63 29 -14 31 -14 43 3 26 39 80 102 96 113 28 18 78 2 90 -28 14 -37 -6 -180 -31 -231 -5 -8 -14 -40 -21 -70 -7 -30 -16 -65 -21 -78 -5 -13 -9 -31 -9 -42 0 -10 -10 -35 -21 -55 -17 -28 -20 -47 -17 -86 6 -59 7 -60 49 -62 41 -2 55 22 80 133 42 186 93 366 108 380 10 8 35 39 56 68 22 28 43 52 48 52 11 0 2 -102 -15 -170 -13 -52 -70 -165 -99 -196 -28 -30 -25 -78 8 -104 15 -11 34 -19 42 -18 20 4 79 90 128 187 38 75 147 209 183 225 11 5 20 15 20 22 0 7 16 22 35 34 19 12 35 26 35 31 0 5 25 25 56 45 68 44 84 36 56 -27 -11 -24 -28 -69 -38 -99 -18 -60 -54 -150 -85 -219 -54 -117 -91 -242 -108 -366 -18 -130 2 -195 59 -195 29 0 76 45 135 129 17 23 43 59 59 79 15 20 41 62 57 92 16 30 47 84 69 119 22 34 40 66 40 70 0 4 11 18 25 31 l25 23 0 -25 c0 -14 -9 -54 -20 -88 -33 -103 -60 -252 -49 -272 12 -22 57 -34 78 -21 8 5 34 45 58 89 58 108 69 131 90 188 25 69 42 76 92 42 23 -16 53 -40 69 -54 26 -25 76 -55 222 -135 72 -39 170 -63 318 -77 53 -5 98 -9 101 -8 31 3 33 -4 31 -90 -2 -48 -2 -111 -2 -139 l2 -53 35 0 c34 0 35 1 36 38 0 20 1 84 2 140 l2 104 40 13 c22 7 66 16 99 19 78 9 96 19 96 58 0 29 -1 30 -32 24 -80 -16 -179 -28 -192 -23 -13 5 -14 114 -9 856 l5 851 -41 0 c-39 0 -41 -1 -42 -32z m-454 -491 c-10 -23 -30 -80 -46 -127 -16 -46 -39 -100 -52 -120 -13 -19 -36 -64 -51 -100 -16 -36 -41 -86 -57 -113 -16 -26 -29 -52 -29 -58 0 -6 -8 -23 -18 -37 -10 -15 -31 -52 -46 -82 -16 -30 -34 -62 -41 -70 -7 -8 -16 -25 -20 -38 -9 -29 -24 -24 -51 16 -23 33 -22 59 4 123 15 38 0 54 -25 27 -11 -13 -26 -34 -33 -48 -7 -14 -22 -36 -32 -50 -62 -82 -118 -164 -118 -175 0 -6 -10 -21 -23 -33 -13 -12 -43 -54 -68 -93 -24 -39 -59 -92 -76 -117 -18 -26 -39 -60 -47 -77 -7 -16 -25 -41 -40 -54 -24 -22 -26 -23 -26 -6 0 37 54 211 77 247 13 21 23 41 23 45 0 8 56 167 77 214 14 35 17 37 52 32 38 -5 46 -1 84 49 9 13 27 37 40 53 41 54 97 135 97 141 0 3 15 24 34 47 18 23 55 75 81 115 26 39 51 72 56 72 5 0 14 11 20 24 10 21 116 132 221 231 35 32 43 36 46 22 2 -10 -4 -37 -13 -60z m-440 -904 c-4 -10 -10 -26 -12 -35 -4 -15 -23 -26 -23 -14 0 16 24 66 32 66 6 0 7 -8 3 -17z" />
<ns0:path d="M1061 2007 c-27 -9 -37 -20 -45 -50 -8 -27 -20 -42 -46 -55 -42 -20 -46 -36 -56 -225 l-7 -129 -51 -38 c-28 -22 -68 -53 -88 -71 l-38 -31 5 104 c3 56 7 144 10 193 6 108 1 129 -31 144 -20 9 -30 8 -49 -5 -29 -19 -27 -3 -29 -214 -1 -91 -8 -209 -15 -263 -16 -116 -10 -142 40 -149 27 -4 37 1 68 35 20 22 44 52 53 66 10 15 29 34 43 41 14 7 25 19 25 26 0 7 7 20 16 28 14 15 17 14 35 -6 l19 -23 25 30 c46 53 81 145 120 315 10 41 21 77 25 80 3 3 12 27 20 53 9 34 20 52 36 59 25 11 40 41 29 57 -6 10 -64 41 -74 40 -3 0 -21 -5 -40 -12z" />
<ns0:path d="M498 1784 c-16 -8 -28 -23 -28 -34 0 -11 -12 -30 -26 -43 -14 -12 -33 -35 -41 -52 -9 -16 -30 -46 -47 -66 -17 -19 -49 -58 -71 -85 -43 -52 -122 -133 -223 -227 l-62 -58 0 -105 c0 -57 2 -104 5 -104 31 0 125 122 125 162 0 8 45 57 100 109 55 52 114 114 130 139 16 25 52 68 80 95 28 28 60 66 72 85 12 19 37 49 55 66 39 37 40 51 12 98 -23 39 -39 43 -81 20z" />
</ns0:g>
</g><g transform="translate(0.3035882961261791,13.298522326048811) scale(0.027595579437518742)"><ns0:metadata>
Created by potrace 1.16, written by Peter Selinger 2001-2019
</ns0:metadata>
<ns0:g transform="translate(0.000000,205.000000) scale(0.100000,-0.100000)" fill="#000000" stroke="none">
<ns0:path d="M833 1670 c-26 -11 -32 -60 -9 -79 7 -6 16 -32 19 -59 4 -26 9 -57 13 -68 5 -17 -6 -30 -58 -70 -35 -26 -93 -65 -130 -85 -66 -36 -70 -37 -143 -32 -65 5 -78 3 -96 -13 -18 -17 -20 -26 -14 -77 3 -32 15 -93 26 -135 15 -57 21 -120 24 -242 6 -226 13 -285 37 -307 19 -17 21 -17 39 6 10 13 20 37 20 55 1 17 3 112 5 211 7 355 7 350 26 347 25 -4 56 15 109 65 25 25 55 50 66 56 11 7 39 25 62 41 23 16 45 26 49 22 11 -11 19 -288 9 -309 -5 -10 -23 -25 -40 -32 -18 -7 -53 -33 -79 -58 -63 -59 -65 -93 -9 -134 l39 -28 -36 -50 c-20 -27 -49 -70 -66 -95 -56 -85 -180 -219 -201 -220 -6 0 -19 -14 -29 -30 -20 -36 -13 -50 34 -70 34 -14 42 -10 133 64 30 24 68 51 85 60 16 8 32 22 35 31 7 16 32 20 41 7 5 -8 2 -22 -29 -137 -7 -27 -12 -75 -10 -105 2 -30 4 -63 4 -73 1 -24 58 -56 161 -90 73 -24 101 -28 200 -29 131 0 247 23 330 67 14 7 50 20 80 28 30 7 81 31 114 53 32 21 68 44 79 51 12 7 25 20 28 30 11 27 -1 113 -22 155 -11 21 -19 46 -19 56 0 11 -11 40 -25 66 -14 26 -25 54 -25 62 0 21 -28 17 -40 -6 -17 -32 -15 -170 3 -214 25 -57 21 -70 -25 -100 -46 -30 -179 -86 -204 -86 -8 0 -28 -7 -44 -15 -19 -10 -83 -19 -180 -25 -146 -10 -151 -10 -205 13 -64 27 -109 63 -101 82 3 8 10 41 16 75 6 33 21 93 34 133 13 39 27 87 31 104 3 18 10 33 14 33 5 0 26 -14 47 -31 32 -26 44 -29 74 -24 41 8 64 26 79 63 23 58 61 366 61 498 0 73 6 178 12 235 15 124 13 306 -3 325 -6 8 -19 14 -29 14 -16 0 -137 -73 -150 -91 -10 -12 -72 -40 -78 -35 -3 4 -20 39 -37 79 -33 77 -51 88 -102 67z m295 -310 c-6 -63 -12 -189 -12 -280 -1 -91 -7 -196 -13 -235 -7 -38 -17 -106 -23 -150 -14 -93 -22 -106 -50 -80 -26 23 -25 29 5 59 45 45 23 80 -36 56 -16 -7 -32 -10 -35 -7 -3 3 2 36 11 74 14 54 18 120 20 328 2 143 6 268 10 277 9 22 117 90 126 80 4 -4 3 -59 -3 -122z m-298 -724 c0 -19 -37 -63 -45 -54 -4 3 3 20 16 37 26 35 29 37 29 17z" />
</ns0:g>
</g><g transform="translate(1.5331637119247148,102.24653141596326) scale(0.027595579437518742)"><ns0:metadata>
Created by potrace 1.16, written by Peter Selinger 2001-2019
</ns0:metadata>
<ns0:g transform="translate(0.000000,211.000000) scale(0.100000,-0.100000)" fill="#000000" stroke="none">
<ns0:path d="M900 2005 c-7 -8 -17 -15 -23 -15 -6 0 -53 -33 -105 -72 -51 -40 -117 -90 -144 -110 -47 -34 -133 -109 -303 -268 -38 -36 -71 -68 -73 -72 -2 -4 -16 -26 -32 -50 -46 -68 -39 -99 27 -111 37 -7 75 18 99 66 9 18 23 39 30 47 8 8 36 40 64 70 27 30 50 58 50 62 0 10 30 38 42 38 7 0 8 -15 4 -42 -22 -148 -48 -353 -52 -408 -3 -36 -9 -92 -14 -125 -5 -33 -12 -91 -15 -130 -5 -67 -5 -71 24 -102 35 -39 50 -40 111 -11 25 12 49 22 54 22 5 1 12 8 15 17 3 8 16 29 29 45 13 16 46 60 73 97 28 38 54 66 57 62 9 -9 3 -317 -9 -420 -5 -49 -15 -107 -21 -128 -10 -34 -14 -38 -36 -32 -23 6 -24 4 -18 -27 5 -30 37 -68 56 -68 13 0 73 45 80 60 4 8 12 25 18 37 13 24 28 207 37 448 3 88 10 198 15 245 5 47 12 141 15 210 4 69 8 150 10 180 18 312 18 319 5 335 -16 19 -59 10 -82 -17 -12 -14 -18 -37 -18 -72 0 -28 -6 -85 -14 -126 -8 -44 -12 -121 -10 -185 1 -60 0 -160 -3 -221 l-6 -110 -103 -109 c-57 -60 -106 -106 -110 -103 -3 4 -1 30 5 58 6 28 11 68 11 88 0 42 13 68 28 58 6 -4 12 16 16 51 3 32 8 79 12 105 5 40 3 48 -14 57 -15 8 -29 8 -48 1 l-27 -11 7 53 c4 29 11 57 16 63 5 6 13 39 19 74 6 39 20 79 36 101 25 37 34 100 14 100 -6 0 -29 -14 -51 -31 -21 -17 -42 -29 -45 -25 -4 3 1 12 9 19 29 21 212 171 229 187 10 8 38 30 63 49 25 18 46 39 46 47 0 7 7 17 17 22 10 6 14 16 10 26 -8 20 -60 21 -77 1z" />
<ns0:path d="M1200 1732 c-41 -36 -44 -42 -48 -100 -4 -60 -4 -62 20 -62 13 0 29 5 36 12 6 6 14 9 17 6 6 -5 -65 -109 -105 -153 -45 -49 -46 -69 -7 -99 27 -21 40 -25 58 -18 34 13 109 23 109 16 0 -4 -14 -23 -31 -43 -17 -20 -43 -55 -57 -78 -15 -23 -66 -82 -115 -132 -48 -49 -87 -98 -87 -108 0 -10 7 -29 16 -42 15 -21 22 -23 66 -18 44 6 49 4 43 -11 -4 -9 -9 -33 -12 -52 -2 -19 -13 -51 -23 -70 -10 -19 -26 -62 -35 -95 -10 -33 -23 -67 -30 -75 -6 -8 -22 -37 -35 -65 -13 -27 -34 -63 -47 -79 -18 -21 -23 -39 -21 -65 3 -35 5 -36 45 -39 40 -3 43 -1 70 40 15 24 45 77 66 118 21 41 42 79 47 83 15 16 79 12 92 -5 7 -9 38 -24 68 -34 52 -16 81 -40 144 -115 23 -28 55 -24 67 8 7 20 7 46 -2 93 -13 68 -29 90 -63 90 -12 0 -54 16 -94 36 -70 35 -76 36 -113 24 -22 -7 -44 -19 -50 -27 -6 -7 -16 -13 -21 -13 -11 0 -4 27 27 95 29 63 75 208 75 233 0 11 9 31 20 45 11 14 20 27 20 29 0 3 18 24 40 48 22 24 40 47 40 53 0 5 9 20 20 34 26 33 25 68 -1 87 -19 13 -20 20 -14 73 5 44 3 62 -7 70 -18 15 -79 22 -104 13 -36 -14 -46 2 -24 38 11 18 24 32 28 32 20 0 62 130 62 191 0 78 -79 94 -150 31z m165 -491 c-9 -18 -20 -29 -26 -26 -10 7 -5 17 20 47 22 25 25 15 6 -21z" />
</ns0:g>
</g><g transform="translate(2.5338431270353112,173.45279708124895) scale(0.027595579437518742)"><ns0:metadata>
Created by potrace 1.16, written by Peter Selinger 2001-2019
</ns0:metadata>
<ns0:g transform="translate(0.000000,207.000000) scale(0.100000,-0.100000)" fill="#000000" stroke="none">
<ns0:path d="M1247 1988 c-15 -8 -58 -91 -72 -140 -4 -12 -18 -46 -31 -75 -13 -28 -24 -57 -24 -63 0 -12 -46 -96 -66 -120 -7 -8 -36 -60 -65 -115 -29 -55 -64 -118 -78 -140 -14 -22 -30 -47 -36 -56 -5 -9 -35 -54 -66 -100 -52 -77 -128 -198 -189 -300 -38 -63 -76 -119 -115 -169 -19 -25 -44 -58 -54 -75 -45 -70 -128 -166 -163 -187 -41 -25 -47 -55 -10 -51 35 4 137 75 185 129 24 27 62 77 85 111 23 34 61 82 85 106 23 24 59 71 80 103 20 32 46 70 58 83 l20 24 15 -21 c20 -28 57 -28 97 1 18 12 42 27 54 34 13 6 55 36 95 66 40 30 93 65 118 77 25 13 59 33 76 46 17 13 40 24 51 24 31 0 49 26 32 46 -10 13 -25 15 -67 11 -29 -3 -63 -12 -75 -20 -12 -8 -45 -22 -74 -31 -28 -9 -57 -24 -63 -32 -7 -7 -17 -14 -23 -14 -6 0 -18 -7 -27 -15 -8 -8 -41 -28 -73 -45 -65 -35 -71 -26 -27 39 17 24 30 49 30 56 0 6 12 22 26 36 26 23 104 170 104 195 0 6 14 28 30 49 17 21 30 43 30 50 0 7 7 19 16 26 23 19 64 85 64 103 0 7 9 24 20 37 18 22 21 22 30 7 6 -9 26 -36 45 -60 19 -24 53 -78 75 -120 41 -80 50 -88 68 -65 29 35 2 142 -60 235 -15 24 -32 62 -38 85 -5 23 -17 47 -26 54 -17 12 -17 15 0 62 9 27 16 64 14 82 -3 28 -8 34 -34 40 -18 3 -39 2 -47 -3z" />
<ns0:path d="M1315 886 c-22 -6 -80 -30 -129 -54 -49 -23 -92 -42 -95 -42 -4 0 -21 -15 -39 -34 -37 -39 -42 -80 -13 -96 33 -17 56 -11 112 29 65 46 185 104 198 96 21 -12 -57 -186 -116 -260 -67 -84 -100 -126 -115 -148 -18 -26 -118 -87 -142 -87 -9 0 -16 18 -21 55 -6 52 -26 119 -58 194 -9 20 -13 50 -10 73 5 36 4 38 -23 38 -36 0 -111 -37 -124 -60 -8 -14 -2 -27 25 -60 19 -23 35 -48 35 -55 0 -7 6 -18 14 -24 23 -19 48 -128 44 -195 -2 -50 0 -61 13 -64 9 -2 24 5 33 14 16 15 19 15 40 -5 23 -22 73 -28 104 -12 9 5 56 21 104 36 48 15 93 33 99 41 6 8 15 14 20 14 28 0 142 66 188 109 64 59 61 77 -9 50 -28 -10 -73 -28 -101 -38 -28 -11 -56 -24 -62 -29 -19 -14 -67 -24 -67 -13 0 10 23 38 73 89 12 13 29 36 37 52 8 16 31 53 51 82 47 69 77 202 59 267 -9 33 -15 41 -35 41 -13 0 -29 2 -37 4 -7 2 -31 -2 -53 -8z" />
</ns0:g>
</g><g transform="translate(2.86829969562217,258.61436362713647) scale(0.027595579437518742)"><ns0:metadata>
Created by potrace 1.16, written by Peter Selinger 2001-2019
</ns0:metadata>
<ns0:g transform="translate(0.000000,205.000000) scale(0.100000,-0.100000)" fill="#000000" stroke="none">
<ns0:path d="M1158 1526 c-69 -47 -85 -64 -91 -94 -3 -15 -35 -62 -71 -105 -72 -86 -90 -132 -100 -257 -4 -41 -11 -122 -18 -180 -17 -164 4 -209 183 -392 102 -103 123 -118 169 -118 43 0 77 30 86 77 5 25 2 32 -14 37 -11 4 -31 4 -44 1 -19 -5 -38 9 -105 75 -46 44 -83 84 -83 89 0 6 -8 16 -19 23 -10 7 -32 45 -48 84 -27 65 -29 78 -22 130 36 261 39 279 59 306 11 15 20 30 20 33 0 9 124 167 146 186 11 10 28 19 38 20 12 3 23 16 27 33 7 24 3 33 -21 57 -16 16 -32 29 -37 28 -4 -1 -29 -16 -55 -33z" />
</ns0:g>
</g><g transform="translate(-2.1585325888609077,327.2362626623948) scale(0.027595579437518742)"><ns0:metadata>
Created by potrace 1.16, written by Peter Selinger 2001-2019
</ns0:metadata>
<ns0:g transform="translate(0.000000,209.000000) scale(0.100000,-0.100000)" fill="#000000" stroke="none">
<ns0:path d="M1675 1880 c-11 -4 -42 -33 -70 -64 -27 -31 -90 -98 -140 -149 -119 -122 -220 -238 -228 -261 -4 -10 -9 -64 -12 -120 -5 -93 -35 -332 -54 -416 -5 -24 -12 -34 -22 -31 -8 3 -37 5 -65 5 -40 0 -61 -6 -99 -32 -27 -18 -53 -32 -58 -32 -6 0 -19 -7 -29 -17 -10 -9 -21 -14 -24 -10 -3 3 2 41 11 84 10 43 21 105 26 138 28 207 51 289 95 339 57 63 99 118 113 145 11 19 10 26 -1 37 -11 11 -22 6 -68 -32 -30 -24 -67 -56 -81 -70 -16 -14 -30 -21 -33 -15 -4 5 -7 55 -7 110 0 102 6 127 45 169 21 23 21 24 2 38 -34 24 -130 -10 -147 -53 -11 -27 -6 -214 7 -324 6 -41 3 -49 -25 -79 -38 -42 -39 -63 -5 -103 17 -20 24 -37 20 -51 -3 -12 -9 -46 -12 -76 -8 -81 -72 -337 -95 -379 -10 -20 -19 -42 -19 -50 0 -7 -10 -29 -21 -48 -16 -26 -20 -43 -15 -73 4 -28 2 -39 -9 -44 -43 -16 10 -98 69 -109 33 -5 122 19 147 40 8 7 21 13 28 13 8 0 58 46 113 103 114 117 112 120 56 -73 -57 -201 -59 -210 -25 -210 19 0 30 13 54 63 35 70 83 206 83 234 0 11 4 23 10 29 11 11 54 172 69 264 7 36 17 99 24 140 13 73 14 75 46 81 19 4 45 16 60 28 38 31 149 83 161 76 16 -10 12 -40 -16 -125 -21 -62 -41 -98 -98 -169 -161 -205 -165 -213 -132 -246 29 -29 43 -31 92 -10 20 8 40 13 44 10 5 -3 11 -24 15 -48 20 -138 74 -334 116 -424 l38 -83 62 0 61 0 -5 33 c-2 17 -14 75 -26 127 -46 201 -54 286 -54 522 0 125 5 269 12 320 6 51 15 156 21 233 12 179 35 384 55 513 21 131 8 161 -60 132z m-69 -302 c-3 -51 -10 -127 -16 -168 -5 -41 -9 -103 -10 -136 0 -64 -15 -92 -44 -81 -8 3 -22 -1 -33 -8 -10 -8 -27 -15 -38 -15 -11 0 -47 -14 -80 -30 -33 -16 -61 -26 -63 -21 -4 11 15 167 26 216 9 43 36 87 101 164 23 27 41 52 41 56 0 7 110 114 119 115 2 0 1 -42 -3 -92z m-526 -840 c0 -36 -52 -104 -161 -215 -70 -71 -113 -107 -144 -118 -46 -18 -76 -17 -83 3 -2 8 2 10 13 6 20 -8 54 25 82 80 29 58 210 245 247 255 45 13 46 13 46 -11z m453 -175 c4 -37 4 -69 2 -71 -8 -8 -35 66 -35 96 0 28 7 42 20 42 4 0 10 -30 13 -67z" />
<ns0:path d="M464 1462 c-33 -26 -39 -60 -16 -85 15 -17 21 -42 25 -105 3 -46 8 -86 12 -90 22 -23 75 78 75 144 0 20 9 38 25 52 43 37 25 77 -40 92 -53 13 -57 12 -81 -8z" />
<ns0:path d="M435 992 c-52 -32 -58 -56 -71 -285 -3 -54 -1 -142 5 -195 6 -53 11 -167 12 -254 0 -104 4 -161 12 -171 17 -22 52 -30 64 -15 17 23 32 92 38 176 3 46 12 93 20 105 28 44 57 197 38 197 -5 0 -25 -23 -45 -51 -37 -50 -38 -51 -38 -23 0 16 -4 44 -9 61 -14 48 13 399 33 431 7 12 -9 42 -23 42 -3 0 -19 -8 -36 -18z" />
</ns0:g>
</g><g transform="translate(2.4286404709707767,412.2611100894353) scale(0.027595579437518742)"><ns0:metadata>
Created by potrace 1.16, written by Peter Selinger 2001-2019
</ns0:metadata>
<ns0:g transform="translate(0.000000,200.000000) scale(0.100000,-0.100000)" fill="#000000" stroke="none">
<ns0:path d="M784 1930 c-29 -11 -34 -45 -34 -225 0 -181 -7 -341 -20 -453 -7 -62 -15 -90 -32 -111 -22 -26 -130 -112 -152 -120 -12 -4 -85 -63 -121 -96 -12 -11 -48 -40 -80 -65 -31 -25 -79 -64 -106 -87 -27 -24 -61 -50 -75 -59 -20 -14 -24 -24 -22 -53 3 -32 7 -37 38 -45 30 -7 41 -5 75 18 51 35 142 122 179 172 31 41 100 111 127 128 51 34 76 52 94 70 18 19 20 19 23 3 2 -10 -5 -59 -17 -110 -11 -50 -22 -110 -25 -132 -16 -106 -50 -276 -67 -325 -14 -46 -21 -54 -38 -52 -25 4 -27 -17 -6 -57 23 -46 74 -56 99 -19 9 12 27 58 42 103 14 44 29 89 34 100 5 11 12 47 15 80 11 101 43 284 72 405 28 120 54 170 155 291 35 43 49 79 31 79 -5 0 -37 -26 -72 -57 l-63 -57 6 80 c3 43 8 135 12 204 3 69 8 141 11 160 2 19 7 57 10 83 4 43 9 50 34 59 24 8 29 15 29 44 0 23 -6 37 -19 44 -23 12 -107 12 -137 0z" />
<ns0:path d="M1300 1890 c-11 -11 -20 -29 -20 -40 0 -11 -11 -54 -25 -97 -14 -43 -32 -122 -40 -176 -9 -54 -20 -117 -26 -140 -6 -23 -30 -136 -54 -252 -24 -115 -50 -230 -59 -254 -9 -24 -28 -96 -42 -160 -34 -151 -30 -244 13 -278 41 -33 146 -34 266 -2 36 9 156 101 185 141 8 11 25 31 38 45 13 14 24 29 24 32 0 4 13 21 30 39 46 51 79 113 101 193 21 74 20 99 -4 99 -14 0 -37 -40 -37 -64 0 -17 -47 -103 -74 -136 -46 -56 -235 -219 -282 -244 -42 -22 -58 -25 -97 -20 -40 6 -48 11 -62 41 -18 38 -17 55 17 193 29 120 30 122 70 103 30 -15 35 -15 77 1 26 10 65 23 89 29 23 5 42 16 42 22 0 24 -29 38 -65 32 -42 -7 -45 5 -16 61 33 63 133 153 238 213 95 53 128 89 84 89 -20 0 -37 -6 -116 -40 -22 -10 -51 -21 -65 -25 -39 -11 -97 -53 -186 -132 l-80 -72 8 65 c4 36 14 91 22 122 26 99 56 246 56 270 0 32 39 185 51 197 5 5 9 16 9 25 0 8 9 32 20 53 25 46 25 64 1 77 -31 16 -69 12 -91 -10z" />
<ns0:path d="M445 1360 c-27 -10 -58 -19 -68 -19 -9 -1 -23 -13 -29 -27 -14 -30 6 -75 58 -134 17 -19 35 -45 39 -58 5 -18 13 -22 32 -20 29 3 49 29 39 49 -3 8 -15 28 -26 44 -11 17 -22 35 -26 42 -7 14 16 60 50 96 14 15 26 32 26 38 0 13 -38 9 -95 -11z" />
</ns0:g>
</g><g transform="translate(-1.1908607611380262,494.1745405146572) scale(0.027595579437518742)"><ns0:metadata>
Created by potrace 1.16, written by Peter Selinger 2001-2019
</ns0:metadata>
<ns0:g transform="translate(0.000000,207.000000) scale(0.100000,-0.100000)" fill="#000000" stroke="none">
<ns0:path d="M978 1329 c-50 -28 -40 -85 19 -116 19 -10 43 -22 54 -28 37 -19 50 -68 48 -183 -1 -59 -5 -125 -10 -147 -4 -22 -11 -67 -14 -100 -4 -33 -16 -85 -28 -116 -19 -48 -29 -60 -66 -80 -51 -27 -84 -74 -71 -99 12 -22 54 -31 72 -15 7 6 38 19 70 28 63 19 64 20 100 157 34 129 47 230 48 365 2 186 -3 206 -63 271 -28 30 -59 54 -68 54 -10 0 -21 5 -24 10 -8 13 -45 12 -67 -1z" />
</ns0:g>
</g><g transform="translate(2.091593293730625,567.1505582455216) scale(0.027595579437518742)"><ns0:metadata>
Created by potrace 1.16, written by Peter Selinger 2001-2019
</ns0:metadata>
<ns0:g transform="translate(0.000000,211.000000) scale(0.100000,-0.100000)" fill="#000000" stroke="none">
<ns0:path d="M1520 1927 c-23 -12 -25 -18 -24 -77 1 -36 4 -112 8 -170 11 -174 17 -364 12 -386 -4 -15 -41 -39 -133 -85 -71 -35 -151 -78 -180 -96 -29 -18 -57 -33 -63 -33 -6 0 -10 26 -10 63 0 51 6 75 36 137 20 41 47 98 61 126 19 42 24 65 22 120 -3 95 -26 162 -61 180 -54 28 -96 -26 -64 -83 32 -59 58 -152 52 -185 -7 -40 -52 -73 -123 -93 -26 -7 -70 -23 -96 -35 -27 -12 -50 -20 -53 -18 -2 3 -6 22 -9 45 -3 22 -13 66 -23 99 -16 53 -21 59 -45 59 -15 -1 -27 0 -27 1 0 1 7 15 15 30 22 43 20 91 -5 99 -35 11 -60 -5 -81 -53 -12 -26 -25 -49 -28 -52 -9 -7 -55 -114 -71 -165 -19 -59 -71 -161 -118 -233 -37 -58 -70 -90 -132 -132 -12 -8 -40 -27 -61 -43 -22 -15 -58 -35 -82 -44 -23 -9 -49 -21 -57 -28 -8 -6 -31 -18 -50 -25 -97 -38 -139 -109 -85 -144 30 -20 49 -20 65 -1 13 15 167 108 225 136 28 13 67 39 198 134 23 17 69 44 102 60 33 17 66 36 73 42 7 7 16 13 19 13 7 0 -3 -77 -19 -147 -11 -46 -15 -52 -34 -47 -29 8 -93 -71 -140 -172 -52 -112 -190 -294 -222 -294 -15 0 -26 -40 -14 -52 6 -6 22 -8 35 -4 31 7 169 153 204 215 45 80 73 121 82 121 5 0 15 -16 21 -35 10 -29 8 -45 -8 -98 -11 -34 -30 -95 -42 -136 -12 -41 -28 -85 -37 -97 -34 -53 24 -75 69 -26 36 38 80 143 122 289 20 71 55 89 188 97 89 6 121 12 160 32 83 42 54 71 -53 51 -80 -14 -95 -1 -48 43 19 17 48 39 64 47 17 9 57 39 90 67 75 65 178 132 297 195 44 23 59 27 67 17 11 -13 -11 -230 -28 -291 -10 -33 -22 -169 -27 -310 -8 -221 -17 -310 -35 -347 -34 -67 -23 -88 47 -88 24 0 38 6 49 24 19 28 40 218 50 431 6 135 28 346 40 377 3 8 10 61 15 119 15 181 21 192 125 239 28 12 54 29 58 36 4 8 18 14 31 14 29 0 61 24 52 38 -4 7 -18 12 -31 12 -30 0 -172 -46 -202 -66 l-23 -14 -1 87 c-5 384 -6 409 -23 461 -9 28 -21 52 -26 52 -4 0 -14 2 -22 5 -7 3 -24 -1 -38 -8z m-745 -347 c-3 -5 -11 -10 -16 -10 -6 0 -7 5 -4 10 3 6 11 10 16 10 6 0 7 -4 4 -10z m-11 -267 c-5 -73 -10 -91 -28 -106 -23 -20 -67 -40 -73 -34 -2 2 10 31 25 63 16 32 37 83 48 112 10 28 22 52 26 52 4 0 5 -39 2 -87z m266 -84 c-5 -17 -6 -59 -3 -94 7 -72 -5 -110 -46 -153 -42 -45 -181 -143 -181 -129 0 41 40 197 59 227 11 19 21 47 21 62 0 23 12 35 67 73 82 54 95 57 83 14z m-800 -385 c-8 -8 -22 -20 -32 -25 -15 -8 -18 -6 -18 10 0 18 14 27 49 30 11 1 11 -2 1 -15z m451 -21 c-4 -15 -13 -29 -20 -31 -9 -3 -11 1 -7 9 3 8 9 22 12 32 10 28 23 20 15 -10z" />
</ns0:g>
</g><g transform="translate(1.3565936692156129,640.912803871402) scale(0.027595579437518742)"><ns0:metadata>
Created by potrace 1.16, written by Peter Selinger 2001-2019
</ns0:metadata>
<ns0:g transform="translate(0.000000,213.000000) scale(0.100000,-0.100000)" fill="#000000" stroke="none">
<ns0:path d="M1037 1855 c-17 -17 -37 -98 -37 -150 0 -40 -30 -72 -130 -139 -36 -24 -105 -85 -154 -134 -82 -84 -91 -90 -121 -85 -19 3 -35 0 -39 -6 -4 -6 -17 -11 -28 -11 -12 0 -31 -8 -42 -19 -12 -10 -31 -22 -43 -26 -22 -6 -23 -4 -25 52 0 32 -2 72 -3 88 -2 39 4 55 21 55 21 0 17 44 -6 65 -11 10 -22 26 -25 36 -8 24 -76 26 -99 3 -19 -19 -19 -22 -2 -149 7 -55 13 -127 12 -159 -1 -52 -4 -61 -26 -75 -82 -51 -100 -64 -100 -72 0 -5 -11 -11 -24 -15 -33 -8 -59 -49 -52 -80 17 -66 98 -63 156 6 18 21 36 37 40 35 4 -3 7 -35 6 -72 l-1 -68 -62 -35 c-106 -60 -143 -85 -147 -97 -3 -6 0 -25 7 -42 15 -41 67 -53 100 -24 20 17 70 43 84 43 9 0 -8 -219 -23 -300 -8 -41 -14 -126 -14 -188 0 -110 -1 -112 -20 -102 -11 6 -20 16 -20 22 0 6 -7 19 -16 29 -9 10 -21 54 -27 106 -15 111 -33 118 -59 23 -28 -101 -7 -176 77 -275 23 -27 47 -60 54 -72 9 -19 20 -23 55 -23 l43 0 7 48 c4 26 9 117 12 202 2 85 10 220 18 300 8 80 18 181 21 225 6 70 11 87 43 135 20 30 41 57 46 59 42 18 173 188 195 252 14 42 144 191 223 254 31 25 60 45 64 45 7 0 0 -150 -14 -303 -8 -89 -8 -88 -124 -162 -83 -53 -151 -118 -146 -140 1 -10 14 -26 29 -37 34 -25 67 -13 136 53 37 35 60 49 81 49 18 0 37 10 52 25 13 14 28 25 34 25 6 0 31 21 56 46 24 25 46 41 48 34 2 -6 -6 -34 -18 -63 -11 -29 -25 -61 -29 -72 -4 -11 -18 -41 -30 -68 -11 -26 -21 -54 -21 -62 0 -8 -27 -71 -60 -140 -58 -121 -61 -125 -83 -114 -31 17 -87 58 -121 91 -32 30 -60 35 -100 17 -30 -14 -37 -44 -19 -81 12 -25 168 -128 193 -128 6 0 10 -5 10 -12 0 -14 -60 -169 -72 -184 -4 -6 -22 -37 -39 -70 -17 -32 -45 -74 -60 -92 -34 -38 -35 -48 -11 -60 20 -11 40 -6 66 17 38 33 134 169 176 249 43 82 45 83 75 78 18 -4 63 -22 101 -41 38 -19 72 -35 77 -35 4 0 30 -11 59 -25 28 -14 55 -25 59 -25 3 0 24 -8 45 -17 41 -17 164 -62 319 -115 50 -17 99 -37 110 -44 11 -8 29 -14 40 -14 11 0 29 -6 40 -14 23 -15 148 -66 164 -66 6 0 11 12 11 28 0 21 -11 34 -51 62 -87 60 -163 99 -192 100 -15 0 -30 7 -33 15 -3 8 -22 18 -42 21 -44 8 -90 26 -152 58 -25 13 -61 27 -80 31 -19 4 -51 16 -70 26 -55 29 -102 49 -114 49 -15 0 -205 96 -235 119 -23 17 -23 21 -12 52 7 19 19 46 26 60 23 42 116 271 132 324 25 80 45 123 59 129 8 3 14 12 14 20 0 8 23 51 50 95 38 61 50 90 50 120 0 71 -39 67 -133 -12 -66 -56 -155 -112 -164 -103 -8 8 15 237 35 346 16 93 18 96 69 149 49 49 65 83 45 95 -5 3 -19 -1 -33 -8 -52 -27 -60 -27 -54 -3 7 28 -28 77 -55 77 -10 0 -25 -7 -33 -15z m-458 -589 c-11 -29 -11 -43 -1 -69 13 -32 13 -32 -60 -99 -40 -37 -79 -67 -85 -68 -18 0 -17 107 1 139 13 23 148 142 154 136 2 -2 -2 -20 -9 -39z m691 -906 c0 -5 -4 -10 -10 -10 -5 0 -10 5 -10 10 0 6 5 10 10 10 6 0 10 -4 10 -10z m90 -30 c0 -5 -4 -10 -9 -10 -6 0 -13 5 -16 10 -3 6 1 10 9 10 9 0 16 -4 16 -10z m190 -68 c0 -5 -7 -9 -15 -9 -8 0 -15 4 -15 9 0 4 7 8 15 8 8 0 15 -4 15 -8z" />
</ns0:g>
</g><g transform="translate(-1.101808597201341,729.1619806577703) scale(0.027595579437518742)"><ns0:metadata>
Created by potrace 1.16, written by Peter Selinger 2001-2019
</ns0:metadata>
<ns0:g transform="translate(0.000000,208.000000) scale(0.100000,-0.100000)" fill="#000000" stroke="none">
<ns0:path d="M1363 2056 c-26 -22 -151 -100 -246 -155 -23 -13 -67 -40 -97 -59 -80 -53 -137 -82 -144 -75 -3 4 -6 30 -6 59 0 56 -14 100 -35 108 -7 2 -23 -1 -36 -8 -22 -11 -24 -18 -25 -91 -2 -137 -3 -139 -129 -217 -27 -17 -83 -48 -123 -69 -66 -35 -127 -76 -160 -106 -7 -7 -18 -13 -23 -13 -5 0 -9 -8 -9 -18 0 -10 -7 -27 -15 -38 -8 -10 -15 -26 -15 -34 0 -21 55 -80 74 -80 9 0 32 26 52 58 20 31 53 70 74 85 55 39 162 98 168 93 7 -8 -12 -54 -84 -201 -34 -71 -77 -165 -95 -207 -22 -52 -43 -86 -66 -104 -18 -14 -33 -30 -33 -35 0 -4 -26 -34 -57 -66 -148 -149 -211 -272 -154 -303 29 -15 34 -13 80 23 39 31 64 62 148 187 117 173 204 273 221 256 5 -5 -17 -296 -24 -307 -2 -3 -8 -37 -14 -75 -6 -38 -20 -88 -32 -112 -23 -48 -16 -65 22 -54 62 18 93 64 109 162 22 143 40 285 44 360 6 99 -9 130 -65 130 -40 0 -36 24 21 132 27 51 64 134 81 184 36 103 85 163 166 203 43 21 114 71 152 108 7 7 18 13 23 13 10 0 70 42 97 68 7 6 19 12 26 12 7 0 23 12 37 26 13 14 37 32 52 40 15 9 46 32 68 54 35 34 38 41 29 64 -12 32 -21 32 -57 2z" />
<ns0:path d="M1372 1773 c-158 -153 -227 -214 -278 -246 -24 -15 -44 -31 -44 -35 0 -4 -40 -42 -89 -83 -126 -104 -159 -178 -93 -209 23 -10 29 -9 45 12 50 63 241 248 255 248 14 0 82 72 82 87 0 7 6 13 13 13 8 0 19 10 26 23 11 21 70 62 78 54 2 -2 -3 -33 -11 -68 -24 -104 -49 -432 -42 -540 8 -111 14 -101 -96 -157 -41 -22 -97 -54 -122 -72 -51 -34 -64 -35 -46 -1 6 12 13 50 17 85 5 60 4 66 -22 91 -25 26 -31 27 -90 22 -69 -7 -139 -36 -149 -62 -15 -39 -6 -61 29 -78 46 -22 52 -22 87 8 38 32 62 33 52 3 -10 -34 -77 -138 -126 -198 -33 -41 -35 -63 -8 -90 20 -20 80 -28 80 -10 0 5 17 18 39 29 l38 20 81 -78 c55 -52 97 -84 129 -96 44 -17 126 -58 171 -86 28 -17 51 -5 68 37 14 33 14 59 -2 263 -18 247 -23 540 -12 696 13 176 38 286 94 416 36 84 30 109 -25 109 -10 0 -68 -48 -129 -107z m-48 -990 c4 -43 12 -122 18 -176 13 -121 9 -128 -59 -100 -26 11 -60 23 -74 27 -15 3 -54 26 -87 50 l-61 45 26 46 c14 26 33 49 42 53 9 3 52 34 96 69 44 34 83 63 87 63 3 0 9 -35 12 -77z" />
</ns0:g>
</g><g transform="translate(2.316380540237617,799.7473397975618) scale(0.027595579437518742)"><ns0:metadata>
Created by potrace 1.16, written by Peter Selinger 2001-2019
</ns0:metadata>
<ns0:g transform="translate(0.000000,210.000000) scale(0.100000,-0.100000)" fill="#000000" stroke="none">
<ns0:path d="M1369 1882 c-6 -13 -246 -190 -268 -197 -26 -8 -41 1 -41 24 0 27 -24 43 -54 35 -32 -8 -66 -69 -90 -158 -8 -32 -24 -68 -35 -80 -15 -16 -19 -30 -14 -61 3 -27 -6 -87 -30 -185 -19 -80 -45 -190 -57 -245 -12 -55 -27 -116 -33 -135 -6 -19 -12 -82 -13 -140 -2 -102 -14 -185 -34 -225 -6 -11 -21 -69 -34 -130 -13 -60 -30 -125 -37 -143 -19 -45 3 -86 48 -90 26 -3 45 7 96 46 35 27 77 57 93 65 16 9 56 41 89 73 64 60 112 94 134 94 7 0 29 14 48 30 39 35 52 37 84 11 13 -10 69 -42 124 -71 55 -29 116 -63 135 -75 19 -11 54 -27 77 -34 49 -16 73 -5 73 34 0 31 -42 90 -65 91 -11 1 -36 11 -55 22 -19 12 -53 31 -75 43 -49 27 -92 56 -128 88 l-27 25 72 73 c130 132 161 175 148 208 -7 19 -10 17 -41 -16 -19 -20 -59 -51 -89 -69 -30 -18 -68 -45 -85 -59 -16 -15 -50 -42 -74 -60 l-43 -34 -42 23 c-22 13 -43 26 -46 29 -34 41 -116 53 -144 22 -33 -37 -3 -88 65 -110 20 -7 44 -20 53 -29 14 -17 13 -21 -29 -55 -24 -20 -48 -37 -54 -37 -6 0 -15 -9 -21 -20 -6 -11 -48 -47 -93 -81 -99 -74 -101 -70 -63 84 14 56 30 132 35 169 5 37 14 82 20 100 6 18 18 63 27 101 18 72 12 65 146 163 16 12 35 28 41 36 7 8 37 30 67 49 76 47 102 76 90 100 -15 27 -30 32 -48 17 -9 -8 -42 -25 -72 -37 -30 -13 -77 -37 -103 -53 -41 -26 -52 -29 -73 -20 -27 13 -30 32 -13 83 15 43 12 42 41 29 21 -10 31 -7 69 18 24 16 62 41 84 54 22 14 53 37 68 52 15 14 32 26 37 26 13 0 66 52 80 79 10 19 9 26 -4 39 -15 15 -19 15 -49 -2 -17 -10 -43 -29 -57 -41 -27 -23 -219 -119 -226 -112 -2 2 2 23 10 48 8 24 17 55 20 69 8 37 160 190 189 190 6 0 41 21 78 46 38 25 72 44 76 41 16 -10 5 -229 -43 -818 -4 -48 -2 -79 4 -83 15 -9 59 10 71 32 17 32 57 466 77 832 13 230 15 215 -27 218 -21 2 -39 -1 -40 -6z" />
<ns0:path d="M551 1704 c-37 -10 -72 -30 -115 -65 -33 -28 -64 -57 -68 -63 -4 -7 0 -71 7 -144 12 -117 12 -136 -1 -169 -10 -24 -14 -51 -10 -77 11 -73 9 -199 -3 -276 -7 -41 -15 -77 -17 -80 -3 -2 -19 -4 -37 -5 -26 0 -31 -4 -29 -20 2 -11 16 -32 33 -46 l30 -26 -21 -144 c-11 -79 -25 -161 -31 -182 -11 -43 -14 -253 -3 -280 8 -23 37 -22 59 3 13 15 20 47 27 127 5 60 20 169 34 243 13 74 27 166 31 203 4 48 13 78 29 100 12 18 46 73 75 122 29 50 59 96 65 102 33 34 40 198 10 238 -7 9 -30 16 -63 17 -36 2 -53 7 -53 15 0 7 16 37 36 67 44 67 81 173 89 263 9 88 1 96 -74 77z m-11 -554 c0 -21 -42 -120 -51 -120 -18 0 -3 112 16 127 18 13 35 9 35 -7z" />
</ns0:g>
</g><g transform="translate(2.525566533800088,883.4570438959363) scale(0.027595579437518742)"><ns0:metadata>
Created by potrace 1.16, written by Peter Selinger 2001-2019
</ns0:metadata>
<ns0:g transform="translate(0.000000,207.000000) scale(0.100000,-0.100000)" fill="#000000" stroke="none">
<ns0:path d="M1005 1928 c-21 -24 -57 -83 -82 -133 -24 -49 -57 -115 -74 -145 -17 -30 -58 -113 -91 -185 -33 -71 -77 -155 -96 -185 -38 -59 -112 -200 -112 -213 0 -5 -11 -23 -25 -41 -14 -18 -25 -37 -25 -43 0 -6 -20 -41 -45 -79 -25 -37 -45 -72 -45 -77 0 -4 -12 -33 -27 -63 -25 -51 -26 -56 -10 -72 20 -19 43 -10 61 24 24 45 81 133 117 180 21 28 68 107 103 177 35 69 78 145 94 169 16 24 48 81 71 128 24 47 51 99 61 115 10 17 21 40 24 52 9 28 69 129 94 157 11 12 36 49 56 84 21 34 50 69 66 77 53 27 40 80 -26 105 -41 16 -50 12 -89 -32z" />
<ns0:path d="M1188 1549 c-21 -11 -25 -79 -6 -79 6 0 19 -6 27 -14 9 -8 41 -24 71 -36 30 -12 65 -31 76 -42 27 -24 77 -21 82 5 4 18 -18 42 -125 140 -43 39 -88 48 -125 26z" />
<ns0:path d="M1040 1183 c-8 -2 -24 -8 -35 -13 -11 -5 -32 -11 -46 -14 -25 -5 -26 -8 -32 -105 -12 -179 -73 -380 -151 -496 -100 -149 -130 -187 -181 -231 -50 -44 -53 -48 -43 -75 6 -16 23 -36 38 -44 31 -16 37 -12 119 63 35 32 117 77 178 97 29 9 55 21 58 26 4 5 17 9 30 9 13 0 27 5 30 10 3 6 17 10 29 10 13 0 29 6 36 14 6 8 17 13 25 10 7 -3 27 2 44 10 16 9 37 16 46 16 9 0 44 13 78 29 54 25 113 45 140 46 4 0 18 -29 31 -65 38 -109 55 -142 68 -138 23 8 29 115 13 213 -8 50 -17 137 -19 194 -3 57 -6 104 -8 105 -68 48 -108 54 -142 21 -15 -15 -13 -59 3 -80 9 -11 41 -136 41 -158 0 -9 -16 -16 -45 -20 -25 -4 -63 -16 -85 -27 -21 -11 -47 -20 -57 -20 -16 0 -128 -32 -281 -81 -35 -11 -66 -18 -69 -15 -3 3 13 33 36 68 22 35 41 70 41 78 0 8 7 28 15 43 8 16 29 94 46 175 17 81 35 155 40 164 5 10 9 30 9 44 0 14 11 39 25 56 27 32 32 57 13 76 -13 13 -15 13 -38 5z" />
</ns0:g>
</g><g transform="translate(-0.6984020257223165,959.6197388751912) scale(0.027595579437518742)"><ns0:metadata>
Created by potrace 1.16, written by Peter Selinger 2001-2019
</ns0:metadata>
<ns0:g transform="translate(0.000000,210.000000) scale(0.100000,-0.100000)" fill="#000000" stroke="none">
<ns0:path d="M1430 2055 c-14 -8 -38 -22 -55 -30 -16 -9 -48 -27 -70 -40 -22 -14 -46 -25 -53 -25 -7 0 -28 -11 -45 -24 -18 -14 -51 -31 -74 -39 -22 -8 -63 -27 -90 -43 -43 -26 -88 -46 -205 -90 -21 -7 -58 -15 -83 -18 -33 -2 -53 -11 -76 -34 -36 -36 -33 -60 11 -92 25 -18 35 -19 62 -11 77 23 171 62 210 88 102 65 289 166 296 159 2 -3 -16 -17 -40 -32 -70 -45 -82 -72 -57 -128 11 -23 16 -24 80 -22 73 3 76 5 148 75 19 19 37 29 39 23 2 -6 -4 -46 -14 -89 -10 -43 -18 -85 -19 -93 0 -9 -4 -20 -7 -25 -26 -43 -39 -242 -40 -620 -1 -257 4 -329 35 -523 8 -45 12 -82 9 -82 -2 0 -20 13 -38 30 -19 16 -51 34 -73 40 -21 5 -44 17 -51 25 -7 8 -21 15 -31 15 -22 0 -87 28 -111 49 -28 22 -169 10 -240 -22 -32 -14 -58 -30 -58 -35 0 -6 46 -8 118 -6 84 4 123 1 140 -8 12 -7 57 -31 99 -53 43 -22 102 -64 133 -93 30 -30 78 -71 105 -92 28 -20 59 -47 69 -59 23 -26 51 -27 61 -3 15 39 16 125 1 170 -19 58 -51 244 -65 372 -11 106 -6 441 10 685 10 160 25 237 59 308 10 21 22 52 25 70 4 18 10 37 14 42 4 6 14 30 21 55 8 25 20 54 27 65 7 11 13 38 13 61 0 34 -5 47 -26 63 -15 12 -31 21 -36 21 -11 0 -55 -44 -82 -84 -27 -38 -89 -66 -124 -57 l-27 8 30 15 c17 9 43 30 59 47 17 17 37 31 46 31 23 0 40 20 40 47 0 27 -31 31 -70 8z" />
<ns0:path d="M1180 1533 c-25 -8 -53 -18 -63 -24 -9 -5 -47 -20 -83 -34 -36 -14 -82 -40 -103 -60 -21 -20 -59 -50 -86 -68 -51 -33 -70 -70 -59 -113 10 -39 39 -56 94 -56 72 0 101 30 64 66 -14 15 -14 18 4 43 39 55 144 131 187 136 17 2 48 13 70 24 23 12 58 25 79 28 34 7 37 10 34 39 -3 29 -5 31 -48 32 -25 1 -65 -5 -90 -13z" />
<ns0:path d="M958 1095 c-20 -14 -39 -34 -43 -45 -5 -16 -15 -20 -53 -20 -60 0 -96 -18 -100 -50 -3 -29 30 -70 56 -70 15 0 18 -9 19 -51 1 -51 1 -51 -27 -45 -29 5 -40 -6 -40 -42 0 -23 85 -60 130 -57 40 2 302 70 329 85 21 11 38 103 21 108 -5 2 -10 9 -10 16 0 7 -40 32 -89 55 -79 38 -91 47 -97 75 -7 34 -30 66 -48 66 -6 0 -28 -11 -48 -25z m171 -211 c9 -9 -23 -24 -49 -24 -14 0 -41 -9 -61 -19 -20 -11 -58 -22 -85 -26 l-49 -7 35 31 c25 21 45 30 71 31 25 0 39 5 43 16 5 13 15 15 48 10 23 -4 45 -9 47 -12z" />
</ns0:g>
</g></svg>