<?xml version='1.0' encoding='utf-8'?>
<svg xmlns:ns0="http://www.w3.org/2000/svg" xmlns="http://www.w3.org/2000/svg" width="235" height="136" viewBox="0 0 235 136"><g transform="translate(1.1257999487644952,-98.89211708881514) scale(0.05739972241727762)"><ns0:metadata>
Created by potrace 1.16, written by Peter Selinger 2001-2019
</ns0:metadata>
<ns0:g transform="translate(0.000000,207.000000) scale(0.100000,-0.100000)" fill="#000000" stroke="none">
<ns0:path d="M840 1478 c-39 -43 -12 -98 50 -98 40 0 51 -12 44 -49 -7 -32 -82 -116 -148 -166 -44 -33 -56 -46 -56 -59 0 -29 34 -41 129 -46 108 -6 110 -8 91 -79 -16 -59 -120 -179 -186 -215 -48 -26 -54 -32 -54 -61 0 -27 5 -34 25 -39 31 -8 90 16 104 42 6 12 21 24 33 28 41 13 96 65 139 131 36 57 43 75 47 135 6 93 -5 111 -79 135 -62 19 -74 37 -36 54 12 6 38 36 57 67 27 45 34 68 35 108 0 62 -20 89 -79 106 -23 6 -45 15 -50 20 -17 14 -45 9 -66 -14z" />
</ns0:g>
</g><g transform="translate(1.2257968588627932,64.82272748308372) scale(0.05739972241727762)"><ns0:metadata>
Created by potrace 1.16, written by Peter Selinger 2001-2019
</ns0:metadata>
<ns0:g transform="translate(0.000000,211.000000) scale(0.100000,-0.100000)" fill="#000000" stroke="none">
<ns0:path d="M1255 970 c-3 -5 -20 -9 -38 -8 -53 2 -72 -16 -106 -99 -34 -84 -40 -155 -16 -186 7 -11 32 -23 55 -28 37 -9 47 -6 88 19 41 25 48 35 64 89 16 55 17 66 5 102 -8 23 -11 45 -6 53 5 7 9 25 9 41 0 22 -4 27 -24 27 -14 0 -28 -4 -31 -10z" />
</ns0:g>
</g><g transform="translate(-1.206162303073711,218.39992938944442) scale(0.05739972241727762)"><ns0:metadata>
Created by potrace 1.16, written by Peter Selinger 2001-2019
</ns0:metadata>
<ns0:g transform="translate(0.000000,208.000000) scale(0.100000,-0.100000)" fill="#000000" stroke="none">
<ns0:path d="M871 1322 c-20 -20 -30 -42 -35 -79 -6 -47 -4 -56 21 -92 21 -30 35 -40 56 -41 21 0 30 -7 38 -27 16 -41 2 -130 -28 -183 -14 -25 -34 -61 -44 -80 -22 -44 -86 -106 -164 -158 -67 -45 -108 -93 -99 -117 3 -8 22 -22 41 -31 32 -16 35 -16 56 2 33 28 60 42 140 71 39 14 81 31 92 38 24 15 105 38 199 56 66 13 89 30 69 50 -16 16 -201 12 -255 -4 -39 -12 -48 -12 -48 -2 0 13 51 96 89 146 30 38 38 65 45 149 5 53 3 91 -7 130 -21 76 -26 88 -64 148 -38 61 -61 66 -102 24z" />
</ns0:g>
</g></svg>