<?xml version='1.0' encoding='utf-8'?>
<svg xmlns:ns0="http://www.w3.org/2000/svg" xmlns="http://www.w3.org/2000/svg" width="235" height="152" viewBox="0 0 235 152"><g transform="translate(-0.6043808106921915,-120.4041341004139) scale(0.06415263093695735)"><ns0:metadata>
Created by potrace 1.16, written by Peter Selinger 2001-2019
</ns0:metadata>
<ns0:g transform="translate(0.000000,213.000000) scale(0.100000,-0.100000)" fill="#000000" stroke="none">
<ns0:path d="M1097 1492 c-10 -10 -17 -22 -17 -26 0 -5 -6 -22 -14 -39 -8 -18 -24 -61 -35 -97 -26 -84 -40 -126 -61 -175 -10 -22 -21 -51 -25 -65 -4 -14 -20 -53 -36 -86 -20 -45 -34 -63 -52 -68 -31 -7 -44 -36 -23 -52 20 -14 20 -32 0 -101 -33 -113 -3 -192 93 -247 l63 -36 37 19 c118 61 197 312 132 418 -21 34 -33 40 -44 23 -4 -7 -12 -7 -25 0 -10 5 -28 10 -40 10 -28 0 -34 22 -17 62 8 18 24 60 36 93 12 33 28 74 36 90 7 17 21 52 31 78 9 26 21 50 25 53 5 3 9 16 9 28 0 13 9 35 20 49 28 35 26 65 -6 77 -38 15 -69 12 -87 -8z m-13 -618 c9 -8 16 -25 16 -37 -1 -31 -53 -145 -86 -186 l-27 -34 -29 32 c-31 35 -32 61 -7 151 25 87 28 90 74 90 26 0 50 -6 59 -16z" />
</ns0:g>
</g><g transform="translate(1.2565073274676593,65.73983780070873) scale(0.06415263093695735)"><ns0:metadata>
Created by potrace 1.16, written by Peter Selinger 2001-2019
</ns0:metadata>
<ns0:g transform="translate(0.000000,214.000000) scale(0.100000,-0.100000)" fill="#000000" stroke="none">
<ns0:path d="M1328 1472 c-1 -5 -36 -28 -76 -52 -73 -43 -91 -48 -252 -71 -94 -14 -110 -22 -110 -59 0 -57 66 -89 121 -59 11 5 50 18 87 28 37 11 77 22 90 26 23 8 23 7 17 -41 -9 -73 -26 -145 -41 -184 -8 -19 -19 -68 -24 -109 -6 -40 -12 -76 -15 -80 -12 -20 -32 -204 -28 -254 6 -66 30 -91 80 -85 l28 3 7 120 c8 160 31 273 129 637 5 20 20 50 32 65 26 31 34 88 16 109 -12 15 -55 19 -61 6z" />
</ns0:g>
</g><g transform="translate(-2.3466166048408468,251.79384872468523) scale(0.06415263093695735)"><ns0:metadata>
Created by potrace 1.16, written by Peter Selinger 2001-2019
</ns0:metadata>
<ns0:g transform="translate(0.000000,206.000000) scale(0.100000,-0.100000)" fill="#000000" stroke="none">
<ns0:path d="M832 1494 c-13 -9 -22 -26 -22 -40 0 -26 -5 -26 -57 -7 -25 10 -43 -44 -53 -157 -5 -63 -17 -158 -26 -210 -37 -223 -43 -284 -33 -329 21 -93 91 -146 174 -130 49 9 156 79 198 129 52 61 65 320 25 491 -12 52 -21 118 -20 148 2 72 -9 88 -63 97 -25 3 -45 10 -45 15 0 15 -54 10 -78 -7z m63 -98 c10 4 15 0 15 -15 0 -12 12 -79 28 -149 30 -141 34 -248 13 -350 -12 -53 -20 -67 -52 -93 -48 -38 -101 -54 -129 -39 -17 9 -20 20 -19 73 0 61 3 81 32 247 8 47 20 137 27 200 14 145 13 142 45 130 13 -5 32 -7 40 -4z" />
</ns0:g>
</g><g transform="translate(-2.2888769784142937,447.8665569108225) scale(0.06415263093695735)"><ns0:metadata>
Created by potrace 1.16, written by Peter Selinger 2001-2019
</ns0:metadata>
<ns0:g transform="translate(0.000000,210.000000) scale(0.100000,-0.100000)" fill="#000000" stroke="none">
<ns0:path d="M1063 1640 c-28 -11 -35 -37 -23 -80 6 -19 10 -60 10 -91 l0 -56 -42 -14 c-60 -19 -118 -74 -118 -109 0 -37 42 -72 77 -64 53 14 58 11 56 -26 -6 -120 -16 -217 -24 -226 -5 -6 -29 -14 -52 -16 -83 -10 -125 -80 -77 -128 25 -25 27 -25 92 1 46 19 74 22 219 23 123 0 173 -3 192 -13 44 -24 58 -9 55 56 -3 57 -4 58 -33 60 -16 0 -84 7 -150 15 l-120 13 -3 60 c-6 122 26 266 65 292 11 7 41 16 69 19 60 8 74 18 74 53 0 48 -13 56 -92 56 l-73 0 2 55 c2 42 8 59 24 72 12 10 19 24 16 32 -9 23 -100 34 -144 16z" />
</ns0:g>
</g><g transform="translate(0.5878439693867108,619.0119705677771) scale(0.06415263093695735)"><ns0:metadata>
Created by potrace 1.16, written by Peter Selinger 2001-2019
</ns0:metadata>
<ns0:g transform="translate(0.000000,206.000000) scale(0.100000,-0.100000)" fill="#000000" stroke="none">
<ns0:path d="M1261 1449 c-32 -26 -41 -81 -47 -284 -2 -88 -10 -214 -18 -280 -7 -66 -9 -130 -5 -141 4 -12 5 -31 3 -41 -3 -11 1 -25 10 -32 12 -10 20 -7 45 16 27 24 32 37 37 93 9 116 36 284 51 327 10 28 13 60 10 95 -4 29 -3 83 1 121 9 75 -3 118 -37 136 -25 14 -21 14 -50 -10z" />
</ns0:g>
</g><g transform="translate(0.4004731585782224,800.5574381442452) scale(0.06415263093695735)"><ns0:metadata>
Created by potrace 1.16, written by Peter Selinger 2001-2019
</ns0:metadata>
<ns0:g transform="translate(0.000000,206.000000) scale(0.100000,-0.100000)" fill="#000000" stroke="none">
<ns0:path d="M1020 1511 c-17 -5 -26 -16 -30 -36 -3 -18 -15 -34 -28 -41 -44 -22 -55 -57 -90 -299 -21 -148 -20 -340 3 -365 8 -9 15 -26 15 -39 0 -12 6 -37 14 -56 19 -46 54 -54 109 -27 23 11 65 24 92 27 62 9 71 16 102 80 79 163 90 203 94 340 6 233 -3 325 -33 325 -6 0 -27 14 -49 31 -21 16 -55 33 -76 36 -21 3 -47 12 -58 19 -21 15 -27 16 -65 5z m115 -114 c60 -34 66 -55 66 -225 0 -142 -11 -210 -40 -246 -5 -6 -14 -29 -21 -50 -19 -58 -62 -96 -109 -96 -37 0 -39 1 -55 53 -17 53 -16 54 18 213 19 87 40 180 46 206 7 26 9 56 5 67 -3 10 -1 22 5 26 5 3 10 22 10 41 0 41 17 44 75 11z" />
</ns0:g>
</g></svg>