<?xml version='1.0' encoding='utf-8'?>
<svg xmlns:ns0="http://www.w3.org/2000/svg" xmlns="http://www.w3.org/2000/svg" width="235" height="104" viewBox="0 0 235 104"><g transform="translate(-2.7490703327972597,-77.76286218553129) scale(0.04169921010902228)"><ns0:metadata>
Created by potrace 1.16, written by Peter Selinger 2001-2019
</ns0:metadata>
<ns0:g transform="translate(0.000000,213.000000) scale(0.100000,-0.100000)" fill="#000000" stroke="none">
<ns0:path d="M1097 1492 c-10 -10 -17 -22 -17 -26 0 -5 -6 -22 -14 -39 -8 -18 -24 -61 -35 -97 -26 -84 -40 -126 -61 -175 -10 -22 -21 -51 -25 -65 -4 -14 -20 -53 -36 -86 -20 -45 -34 -63 -52 -68 -31 -7 -44 -36 -23 -52 20 -14 20 -32 0 -101 -33 -113 -3 -192 93 -247 l63 -36 37 19 c118 61 197 312 132 418 -21 34 -33 40 -44 23 -4 -7 -12 -7 -25 0 -10 5 -28 10 -40 10 -28 0 -34 22 -17 62 8 18 24 60 36 93 12 33 28 74 36 90 7 17 21 52 31 78 9 26 21 50 25 53 5 3 9 16 9 28 0 13 9 35 20 49 28 35 26 65 -6 77 -38 15 -69 12 -87 -8z m-13 -618 c9 -8 16 -25 16 -37 -1 -31 -53 -145 -86 -186 l-27 -34 -29 32 c-31 35 -32 61 -7 151 25 87 28 90 74 90 26 0 50 -6 59 -16z" />
</ns0:g>
</g><g transform="translate(0.47085398153797087,40.07065232974611) scale(0.04169921010902228)"><ns0:metadata>
Created by potrace 1.16, written by Peter Selinger 2001-2019
</ns0:metadata>
<ns0:g transform="translate(0.000000,217.000000) scale(0.100000,-0.100000)" fill="#000000" stroke="none">
<ns0:path d="M1450 1621 c-8 -5 -41 -12 -72 -16 -32 -3 -58 -10 -58 -14 0 -11 -69 -31 -85 -24 -18 6 -73 -27 -78 -46 -6 -29 5 -60 23 -66 18 -6 56 -107 47 -122 -3 -5 -1 -42 4 -83 6 -41 10 -79 11 -85 2 -17 -32 -297 -43 -355 -6 -30 -21 -76 -35 -101 -30 -59 -30 -66 2 -91 19 -15 43 -21 89 -23 49 -2 79 -10 129 -34 80 -40 136 -50 155 -27 12 14 8 21 -28 56 -24 21 -58 46 -76 55 -19 8 -37 20 -40 25 -3 4 -22 14 -43 21 -57 18 -60 22 -50 86 21 149 31 283 33 449 l1 181 34 41 c22 28 44 44 66 48 23 4 34 13 38 30 4 13 13 24 21 24 8 0 19 9 25 20 22 42 -25 76 -70 51z" />
</ns0:g>
</g><g transform="translate(-1.345493628399197,163.77089877963124) scale(0.04169921010902228)"><ns0:metadata>
Created by potrace 1.16, written by Peter Selinger 2001-2019
</ns0:metadata>
<ns0:g transform="translate(0.000000,206.000000) scale(0.100000,-0.100000)" fill="#000000" stroke="none">
<ns0:path d="M1020 1511 c-17 -5 -26 -16 -30 -36 -3 -18 -15 -34 -28 -41 -44 -22 -55 -57 -90 -299 -21 -148 -20 -340 3 -365 8 -9 15 -26 15 -39 0 -12 6 -37 14 -56 19 -46 54 -54 109 -27 23 11 65 24 92 27 62 9 71 16 102 80 79 163 90 203 94 340 6 233 -3 325 -33 325 -6 0 -27 14 -49 31 -21 16 -55 33 -76 36 -21 3 -47 12 -58 19 -21 15 -27 16 -65 5z m115 -114 c60 -34 66 -55 66 -225 0 -142 -11 -210 -40 -246 -5 -6 -14 -29 -21 -50 -19 -58 -62 -96 -109 -96 -37 0 -39 1 -55 53 -17 53 -16 54 18 213 19 87 40 180 46 206 7 26 9 56 5 67 -3 10 -1 22 5 26 5 3 10 22 10 41 0 41 17 44 75 11z" />
</ns0:g>
</g><g transform="translate(-1.7091782893955383,291.84635420036443) scale(0.04169921010902228)"><ns0:metadata>
Created by potrace 1.16, written by Peter Selinger 2001-2019
</ns0:metadata>
<ns0:g transform="translate(0.000000,210.000000) scale(0.100000,-0.100000)" fill="#000000" stroke="none">
<ns0:path d="M756 1009 c-35 -51 -5 -121 57 -133 20 -4 50 0 74 8 37 13 223 15 348 4 l30 -3 -2 63 c-1 35 -3 65 -5 67 -2 1 -112 6 -244 10 l-242 7 -16 -23z" />
</ns0:g>
</g><g transform="translate(-0.32975762085942506,402.1310338342712) scale(0.04169921010902228)"><ns0:metadata>
Created by potrace 1.16, written by Peter Selinger 2001-2019
</ns0:metadata>
<ns0:g transform="translate(0.000000,206.000000) scale(0.100000,-0.100000)" fill="#000000" stroke="none">
<ns0:path d="M1261 1449 c-32 -26 -41 -81 -47 -284 -2 -88 -10 -214 -18 -280 -7 -66 -9 -130 -5 -141 4 -12 5 -31 3 -41 -3 -11 1 -25 10 -32 12 -10 20 -7 45 16 27 24 32 37 37 93 9 116 36 284 51 327 10 28 13 60 10 95 -4 29 -3 83 1 121 9 75 -3 118 -37 136 -25 14 -21 14 -50 -10z" />
</ns0:g>
</g><g transform="translate(2.0590914791990826,508.8136388639389) scale(0.04169921010902228)"><ns0:metadata>
Created by potrace 1.16, written by Peter Selinger 2001-2019
</ns0:metadata>
<ns0:g transform="translate(0.000000,216.000000) scale(0.100000,-0.100000)" fill="#000000" stroke="none">
<ns0:path d="M1175 1549 c-182 -21 -222 -29 -245 -54 -17 -18 -20 -27 -11 -43 14 -27 86 -55 109 -42 28 15 186 50 194 42 4 -4 3 -32 -2 -62 -20 -130 -51 -290 -68 -360 -24 -95 -40 -230 -40 -343 0 -49 -3 -91 -6 -94 -7 -7 -90 -23 -149 -29 -27 -2 -64 -11 -82 -18 -42 -18 -159 -98 -200 -137 -17 -16 -38 -29 -47 -29 -17 0 -32 -26 -22 -41 7 -12 30 -12 52 0 9 5 46 23 82 40 36 17 90 45 120 62 51 29 62 32 155 33 81 1 106 -3 128 -16 37 -25 54 -22 72 11 16 32 16 34 9 224 -5 134 -7 120 56 431 11 55 27 125 35 155 23 91 34 175 28 219 -6 43 -7 43 -83 56 -8 1 -46 -1 -85 -5z" />
</ns0:g>
</g></svg>