<?xml version='1.0' encoding='utf-8'?>
<svg xmlns:ns0="http://www.w3.org/2000/svg" xmlns="http://www.w3.org/2000/svg" width="235" height="122" viewBox="0 0 235 122"><g transform="translate(-1.390682483159992,-98.0331209323267) scale(0.051490927462557866)"><ns0:metadata>
Created by potrace 1.16, written by Peter Selinger 2001-2019
</ns0:metadata>
<ns0:g transform="translate(0.000000,207.000000) scale(0.100000,-0.100000)" fill="#000000" stroke="none">
<ns0:path d="M1467 1412 c-10 -10 -17 -21 -17 -24 0 -10 49 -15 53 -5 2 6 11 6 25 -2 18 -10 22 -9 22 3 0 9 -13 22 -30 31 -36 19 -34 19 -53 -3z" />
<ns0:path d="M840 1261 c0 -6 -7 -11 -15 -11 -31 0 -31 -92 0 -104 9 -3 35 1 58 9 99 34 165 7 152 -63 -21 -114 -213 -390 -300 -431 -44 -21 -115 -92 -115 -115 0 -39 85 -61 111 -29 8 9 42 28 75 44 34 15 65 32 68 38 4 6 20 11 35 11 16 0 46 6 67 14 22 7 81 17 132 21 70 5 95 11 99 23 4 8 -1 20 -11 27 -22 16 -181 27 -229 16 -51 -12 -55 2 -14 52 19 23 37 52 41 64 4 12 21 33 37 47 31 26 81 125 94 184 19 90 -25 182 -96 196 -68 14 -189 19 -189 7z" />
</ns0:g>
</g><g transform="translate(0.13325066939177077,55.62824114177184) scale(0.051490927462557866)"><ns0:metadata>
Created by potrace 1.16, written by Peter Selinger 2001-2019
</ns0:metadata>
<ns0:g transform="translate(0.000000,206.000000) scale(0.100000,-0.100000)" fill="#000000" stroke="none">
<ns0:path d="M1020 1511 c-17 -5 -26 -16 -30 -36 -3 -18 -15 -34 -28 -41 -44 -22 -55 -57 -90 -299 -21 -148 -20 -340 3 -365 8 -9 15 -26 15 -39 0 -12 6 -37 14 -56 19 -46 54 -54 109 -27 23 11 65 24 92 27 62 9 71 16 102 80 79 163 90 203 94 340 6 233 -3 325 -33 325 -6 0 -27 14 -49 31 -21 16 -55 33 -76 36 -21 3 -47 12 -58 19 -21 15 -27 16 -65 5z m115 -114 c60 -34 66 -55 66 -225 0 -142 -11 -210 -40 -246 -5 -6 -14 -29 -21 -50 -19 -58 -62 -96 -109 -96 -37 0 -39 1 -55 53 -17 53 -16 54 18 213 19 87 40 180 46 206 7 26 9 56 5 67 -3 10 -1 22 5 26 5 3 10 22 10 41 0 41 17 44 75 11z" />
</ns0:g>
</g><g transform="translate(1.812933736594232,198.71198160844352) scale(0.051490927462557866)"><ns0:metadata>
Created by potrace 1.16, written by Peter Selinger 2001-2019
</ns0:metadata>
<ns0:g transform="translate(0.000000,208.000000) scale(0.100000,-0.100000)" fill="#000000" stroke="none">
<ns0:path d="M912 1298 c-29 -8 -72 -53 -72 -77 0 -10 61 -61 74 -61 4 0 22 12 41 26 24 18 43 24 66 22 48 -5 55 -24 42 -112 -17 -121 -150 -366 -198 -366 -12 0 -24 -9 -102 -76 -48 -40 -56 -79 -25 -107 26 -24 59 -21 96 9 173 141 192 152 346 204 115 39 130 47 130 65 0 27 -86 22 -193 -12 -44 -13 -82 -22 -85 -18 -5 5 19 57 57 125 10 17 23 48 45 102 8 20 17 65 21 101 6 54 4 70 -14 106 -30 58 -72 82 -142 79 -30 -1 -69 -6 -87 -10z" />
</ns0:g>
</g><g transform="translate(-0.28407643694345097,329.6425800654914) scale(0.051490927462557866)"><ns0:metadata>
Created by potrace 1.16, written by Peter Selinger 2001-2019
</ns0:metadata>
<ns0:g transform="translate(0.000000,208.000000) scale(0.100000,-0.100000)" fill="#000000" stroke="none">
<ns0:path d="M958 1305 c-16 -9 -29 -21 -29 -28 -2 -24 3 -42 17 -58 8 -8 17 -37 20 -62 5 -38 3 -51 -11 -67 -15 -16 -15 -22 -5 -35 12 -15 9 -139 -6 -266 -8 -66 20 -95 103 -108 35 -5 78 -7 98 -4 54 9 45 -21 -27 -90 -73 -69 -172 -147 -186 -147 -6 0 -12 -4 -14 -9 -3 -7 -36 -27 -165 -97 -43 -23 -88 -40 -133 -48 -94 -18 -103 -23 -78 -44 19 -15 209 20 293 55 39 16 95 45 125 64 30 20 70 42 88 49 17 7 32 16 32 21 0 5 5 9 11 9 6 0 29 16 50 35 22 19 45 35 53 35 16 0 65 58 90 107 20 40 22 136 2 152 -14 12 -165 8 -198 -4 -8 -3 -20 1 -27 9 -10 12 -9 39 4 133 17 128 20 132 96 173 20 10 44 31 53 45 9 14 34 33 54 43 57 25 72 42 72 78 0 71 -26 82 -95 39 -50 -30 -63 -31 -67 -2 -3 20 -9 22 -58 23 -30 1 -73 5 -95 8 -27 4 -49 1 -67 -9z m183 -79 c-29 -30 -58 -39 -66 -19 -9 24 14 43 53 43 l35 0 -22 -24z" />
</ns0:g>
</g><g transform="translate(1.7403818917217109,494.8548541552789) scale(0.051490927462557866)"><ns0:metadata>
Created by potrace 1.16, written by Peter Selinger 2001-2019
</ns0:metadata>
<ns0:g transform="translate(0.000000,211.000000) scale(0.100000,-0.100000)" fill="#000000" stroke="none">
<ns0:path d="M1255 970 c-3 -5 -20 -9 -38 -8 -53 2 -72 -16 -106 -99 -34 -84 -40 -155 -16 -186 7 -11 32 -23 55 -28 37 -9 47 -6 88 19 41 25 48 35 64 89 16 55 17 66 5 102 -8 23 -11 45 -6 53 5 7 9 25 9 41 0 22 -4 27 -24 27 -14 0 -28 -4 -31 -10z" />
</ns0:g>
</g><g transform="translate(-0.3937191760210794,642.4077335627796) scale(0.051490927462557866)"><ns0:metadata>
Created by potrace 1.16, written by Peter Selinger 2001-2019
</ns0:metadata>
<ns0:g transform="translate(0.000000,206.000000) scale(0.100000,-0.100000)" fill="#000000" stroke="none">
<ns0:path d="M832 1494 c-13 -9 -22 -26 -22 -40 0 -26 -5 -26 -57 -7 -25 10 -43 -44 -53 -157 -5 -63 -17 -158 -26 -210 -37 -223 -43 -284 -33 -329 21 -93 91 -146 174 -130 49 9 156 79 198 129 52 61 65 320 25 491 -12 52 -21 118 -20 148 2 72 -9 88 -63 97 -25 3 -45 10 -45 15 0 15 -54 10 -78 -7z m63 -98 c10 4 15 0 15 -15 0 -12 12 -79 28 -149 30 -141 34 -248 13 -350 -12 -53 -20 -67 -52 -93 -48 -38 -101 -54 -129 -39 -17 9 -20 20 -19 73 0 61 3 81 32 247 8 47 20 137 27 200 14 145 13 142 45 130 13 -5 32 -7 40 -4z" />
</ns0:g>
</g><g transform="translate(1.8670054462278358,781.192623335768) scale(0.051490927462557866)"><ns0:metadata>
Created by potrace 1.16, written by Peter Selinger 2001-2019
</ns0:metadata>
<ns0:g transform="translate(0.000000,213.000000) scale(0.100000,-0.100000)" fill="#000000" stroke="none">
<ns0:path d="M1097 1492 c-10 -10 -17 -22 -17 -26 0 -5 -6 -22 -14 -39 -8 -18 -24 -61 -35 -97 -26 -84 -40 -126 -61 -175 -10 -22 -21 -51 -25 -65 -4 -14 -20 -53 -36 -86 -20 -45 -34 -63 -52 -68 -31 -7 -44 -36 -23 -52 20 -14 20 -32 0 -101 -33 -113 -3 -192 93 -247 l63 -36 37 19 c118 61 197 312 132 418 -21 34 -33 40 -44 23 -4 -7 -12 -7 -25 0 -10 5 -28 10 -40 10 -28 0 -34 22 -17 62 8 18 24 60 36 93 12 33 28 74 36 90 7 17 21 52 31 78 9 26 21 50 25 53 5 3 9 16 9 28 0 13 9 35 20 49 28 35 26 65 -6 77 -38 15 -69 12 -87 -8z m-13 -618 c9 -8 16 -25 16 -37 -1 -31 -53 -145 -86 -186 l-27 -34 -29 32 c-31 35 -32 61 -7 151 25 87 28 90 74 90 26 0 50 -6 59 -16z" />
</ns0:g>
</g><g transform="translate(-1.1963008973328897,935.2061293944234) scale(0.051490927462557866)"><ns0:metadata>
Created by potrace 1.16, written by Peter Selinger 2001-2019
</ns0:metadata>
<ns0:g transform="translate(0.000000,210.000000) scale(0.100000,-0.100000)" fill="#000000" stroke="none">
<ns0:path d="M1248 963 c-59 -16 -138 -78 -138 -110 0 -9 16 -31 35 -49 l35 -33 -16 -40 c-48 -120 70 -135 147 -20 60 90 60 90 54 154 -5 56 -28 106 -51 111 -5 1 -35 -5 -66 -13z" />
</ns0:g>
</g><g transform="translate(-1.5624379802633257,1081.3267649364964) scale(0.051490927462557866)"><ns0:metadata>
Created by potrace 1.16, written by Peter Selinger 2001-2019
</ns0:metadata>
<ns0:g transform="translate(0.000000,206.000000) scale(0.100000,-0.100000)" fill="#000000" stroke="none">
<ns0:path d="M1020 1511 c-17 -5 -26 -16 -30 -36 -3 -18 -15 -34 -28 -41 -44 -22 -55 -57 -90 -299 -21 -148 -20 -340 3 -365 8 -9 15 -26 15 -39 0 -12 6 -37 14 -56 19 -46 54 -54 109 -27 23 11 65 24 92 27 62 9 71 16 102 80 79 163 90 203 94 340 6 233 -3 325 -33 325 -6 0 -27 14 -49 31 -21 16 -55 33 -76 36 -21 3 -47 12 -58 19 -21 15 -27 16 -65 5z m115 -114 c60 -34 66 -55 66 -225 0 -142 -11 -210 -40 -246 -5 -6 -14 -29 -21 -50 -19 -58 -62 -96 -109 -96 -37 0 -39 1 -55 53 -17 53 -16 54 18 213 19 87 40 180 46 206 7 26 9 56 5 67 -3 10 -1 22 5 26 5 3 10 22 10 41 0 41 17 44 75 11z" />
</ns0:g>
</g><g transform="translate(1.2988316863973068,1216.8262388363273) scale(0.051490927462557866)"><ns0:metadata>
Created by potrace 1.16, written by Peter Selinger 2001-2019
</ns0:metadata>
<ns0:g transform="translate(0.000000,214.000000) scale(0.100000,-0.100000)" fill="#000000" stroke="none">
<ns0:path d="M993 1569 c-34 -4 -71 -12 -82 -18 -11 -6 -28 -11 -38 -11 -26 -1 -88 -58 -112 -105 -18 -34 -21 -57 -21 -168 0 -146 9 -177 68 -228 28 -25 41 -30 68 -26 18 3 34 3 37 1 9 -9 -41 -188 -83 -294 -25 -63 -48 -145 -61 -214 -13 -73 0 -92 54 -82 26 5 38 14 47 36 6 16 9 33 6 39 -7 10 13 83 39 151 8 19 19 55 26 80 6 25 24 73 40 108 16 35 29 68 29 74 0 6 13 54 30 107 16 53 32 116 36 141 7 43 14 59 69 155 13 22 29 67 36 99 13 59 13 59 -14 80 -15 12 -27 27 -27 32 0 14 -35 46 -42 38 -4 -3 -15 -2 -25 3 -10 5 -46 6 -80 2z m19 -84 c6 -6 -15 -146 -30 -200 -6 -22 -14 -57 -17 -77 -6 -37 -61 -98 -89 -98 -43 0 -56 220 -17 283 36 58 130 115 153 92z" />
</ns0:g>
</g></svg>