<?xml version='1.0' encoding='utf-8'?>
<svg xmlns:ns0="http://www.w3.org/2000/svg" xmlns="http://www.w3.org/2000/svg" width="235" height="152" viewBox="0 0 235 152"><g transform="translate(-2.853375117174778,-122.67146363383975) scale(0.06415263093695735)"><ns0:metadata>
Created by potrace 1.16, written by Peter Selinger 2001-2019
</ns0:metadata>
<ns0:g transform="translate(0.000000,208.000000) scale(0.100000,-0.100000)" fill="#000000" stroke="none">
<ns0:path d="M948 1211 c-21 -12 -28 -24 -28 -48 0 -46 45 -70 128 -68 34 1 65 5 69 8 8 9 87 9 96 1 7 -8 -27 -87 -61 -139 -29 -45 -84 -90 -149 -123 -54 -28 -62 -50 -28 -79 30 -26 74 -29 114 -8 16 8 47 17 70 21 35 6 41 4 41 -10 0 -30 -131 -183 -173 -202 -20 -9 -42 -23 -48 -30 -6 -7 -34 -20 -62 -30 -29 -9 -59 -23 -67 -31 -13 -13 -13 -16 5 -29 13 -10 30 -13 50 -9 17 4 48 11 70 15 93 17 243 120 281 192 8 15 25 43 38 63 19 27 24 49 25 94 0 65 -7 75 -57 86 l-33 7 40 73 c40 75 60 161 46 204 -12 38 -52 49 -200 54 -118 4 -144 2 -167 -12z" />
</ns0:g>
</g><g transform="translate(-1.6824197983676754,63.371255572521534) scale(0.06415263093695735)"><ns0:metadata>
Created by potrace 1.16, written by Peter Selinger 2001-2019
</ns0:metadata>
<ns0:g transform="translate(0.000000,207.000000) scale(0.100000,-0.100000)" fill="#000000" stroke="none">
<ns0:path d="M1467 1412 c-10 -10 -17 -21 -17 -24 0 -10 49 -15 53 -5 2 6 11 6 25 -2 18 -10 22 -9 22 3 0 9 -13 22 -30 31 -36 19 -34 19 -53 -3z" />
<ns0:path d="M840 1261 c0 -6 -7 -11 -15 -11 -31 0 -31 -92 0 -104 9 -3 35 1 58 9 99 34 165 7 152 -63 -21 -114 -213 -390 -300 -431 -44 -21 -115 -92 -115 -115 0 -39 85 -61 111 -29 8 9 42 28 75 44 34 15 65 32 68 38 4 6 20 11 35 11 16 0 46 6 67 14 22 7 81 17 132 21 70 5 95 11 99 23 4 8 -1 20 -11 27 -22 16 -181 27 -229 16 -51 -12 -55 2 -14 52 19 23 37 52 41 64 4 12 21 33 37 47 31 26 81 125 94 184 19 90 -25 182 -96 196 -68 14 -189 19 -189 7z" />
</ns0:g>
</g><g transform="translate(-2.8369141589535616,252.8478032234426) scale(0.06415263093695735)"><ns0:metadata>
Created by potrace 1.16, written by Peter Selinger 2001-2019
</ns0:metadata>
<ns0:g transform="translate(0.000000,217.000000) scale(0.100000,-0.100000)" fill="#000000" stroke="none">
<ns0:path d="M1086 1619 c-14 -11 -38 -24 -53 -30 -32 -11 -73 -65 -73 -97 0 -12 9 -26 20 -32 11 -6 20 -17 20 -24 0 -8 12 -37 26 -64 23 -45 26 -62 27 -163 0 -111 -15 -269 -35 -359 -5 -24 -27 -71 -48 -102 -66 -99 -38 -127 132 -136 153 -8 289 -5 299 5 5 5 6 30 3 56 l-7 47 -76 1 c-131 2 -203 7 -212 16 -5 5 -3 30 6 59 22 71 43 271 47 444 2 51 -12 168 -22 194 -19 50 -12 69 34 99 24 15 67 32 96 37 60 11 70 16 70 35 0 26 -37 35 -134 34 -79 -1 -100 -4 -120 -20z" />
</ns0:g>
</g><g transform="translate(-2.221441660856442,428.15125380840277) scale(0.06415263093695735)"><ns0:metadata>
Created by potrace 1.16, written by Peter Selinger 2001-2019
</ns0:metadata>
<ns0:g transform="translate(0.000000,208.000000) scale(0.100000,-0.100000)" fill="#000000" stroke="none">
<ns0:path d="M912 1298 c-29 -8 -72 -53 -72 -77 0 -10 61 -61 74 -61 4 0 22 12 41 26 24 18 43 24 66 22 48 -5 55 -24 42 -112 -17 -121 -150 -366 -198 -366 -12 0 -24 -9 -102 -76 -48 -40 -56 -79 -25 -107 26 -24 59 -21 96 9 173 141 192 152 346 204 115 39 130 47 130 65 0 27 -86 22 -193 -12 -44 -13 -82 -22 -85 -18 -5 5 19 57 57 125 10 17 23 48 45 102 8 20 17 65 21 101 6 54 4 70 -14 106 -30 58 -72 82 -142 79 -30 -1 -69 -6 -87 -10z" />
</ns0:g>
</g><g transform="translate(0.7160178344387305,635.5251524638287) scale(0.06415263093695735)"><ns0:metadata>
Created by potrace 1.16, written by Peter Selinger 2001-2019
</ns0:metadata>
<ns0:g transform="translate(0.000000,210.000000) scale(0.100000,-0.100000)" fill="#000000" stroke="none">
<ns0:path d="M756 1009 c-35 -51 -5 -121 57 -133 20 -4 50 0 74 8 37 13 223 15 348 4 l30 -3 -2 63 c-1 35 -3 65 -5 67 -2 1 -112 6 -244 10 l-242 7 -16 -23z" />
</ns0:g>
</g><g transform="translate(-1.7706017909381444,804.1418481298816) scale(0.06415263093695735)"><ns0:metadata>
Created by potrace 1.16, written by Peter Selinger 2001-2019
</ns0:metadata>
<ns0:g transform="translate(0.000000,207.000000) scale(0.100000,-0.100000)" fill="#000000" stroke="none">
<ns0:path d="M840 1478 c-39 -43 -12 -98 50 -98 40 0 51 -12 44 -49 -7 -32 -82 -116 -148 -166 -44 -33 -56 -46 -56 -59 0 -29 34 -41 129 -46 108 -6 110 -8 91 -79 -16 -59 -120 -179 -186 -215 -48 -26 -54 -32 -54 -61 0 -27 5 -34 25 -39 31 -8 90 16 104 42 6 12 21 24 33 28 41 13 96 65 139 131 36 57 43 75 47 135 6 93 -5 111 -79 135 -62 19 -74 37 -36 54 12 6 38 36 57 67 27 45 34 68 35 108 0 62 -20 89 -79 106 -23 6 -45 15 -50 20 -17 14 -45 9 -66 -14z" />
</ns0:g>
</g><g transform="translate(-2.154884506768269,963.5052759486632) scale(0.06415263093695735)"><ns0:metadata>
Created by potrace 1.16, written by Peter Selinger 2001-2019
</ns0:metadata>
<ns0:g transform="translate(0.000000,216.000000) scale(0.100000,-0.100000)" fill="#000000" stroke="none">
<ns0:path d="M1175 1549 c-182 -21 -222 -29 -245 -54 -17 -18 -20 -27 -11 -43 14 -27 86 -55 109 -42 28 15 186 50 194 42 4 -4 3 -32 -2 -62 -20 -130 -51 -290 -68 -360 -24 -95 -40 -230 -40 -343 0 -49 -3 -91 -6 -94 -7 -7 -90 -23 -149 -29 -27 -2 -64 -11 -82 -18 -42 -18 -159 -98 -200 -137 -17 -16 -38 -29 -47 -29 -17 0 -32 -26 -22 -41 7 -12 30 -12 52 0 9 5 46 23 82 40 36 17 90 45 120 62 51 29 62 32 155 33 81 1 106 -3 128 -16 37 -25 54 -22 72 11 16 32 16 34 9 224 -5 134 -7 120 56 431 11 55 27 125 35 155 23 91 34 175 28 219 -6 43 -7 43 -83 56 -8 1 -46 -1 -85 -5z" />
</ns0:g>
</g></svg>