<?xml version='1.0' encoding='utf-8'?>
<svg xmlns:ns0="http://www.w3.org/2000/svg" xmlns="http://www.w3.org/2000/svg" width="235" height="109" viewBox="0 0 235 109"><g transform="translate(2.552986333782769,-66.20538772137449) scale(0.027544407487828052)"><ns0:metadata>
Created by potrace 1.16, written by Peter Selinger 2001-2019
</ns0:metadata>
<ns0:g transform="translate(0.000000,211.000000) scale(0.100000,-0.100000)" fill="#000000" stroke="none">
<ns0:path d="M495 1880 c-62 -34 -37 -108 39 -113 38 -3 61 -24 72 -64 12 -43 9 -45 -116 -108 -30 -15 -62 -31 -70 -35 -8 -5 -52 -27 -97 -49 -69 -35 -82 -45 -88 -71 -5 -21 -2 -39 9 -55 25 -39 70 -37 139 6 27 16 53 29 58 29 6 0 8 -25 4 -65 -4 -36 -7 -91 -7 -122 0 -32 -6 -96 -14 -143 -7 -47 -15 -107 -18 -135 -10 -101 -25 -216 -30 -224 -3 -4 -8 -35 -10 -69 -3 -33 -13 -100 -21 -148 -9 -49 -21 -116 -26 -149 -6 -33 -21 -92 -35 -131 -13 -39 -24 -77 -24 -86 0 -8 -9 -35 -19 -59 -36 -84 -36 -91 -5 -87 23 3 34 15 68 83 90 176 127 311 166 610 5 44 22 159 36 255 14 96 29 227 34 290 11 136 19 190 31 190 5 0 9 10 9 23 0 31 6 37 85 89 39 26 79 56 89 67 11 12 25 21 32 21 7 0 27 14 44 30 17 17 37 30 45 30 8 0 20 8 27 19 7 10 23 21 35 25 17 6 189 109 202 122 2 2 -2 10 -9 19 -14 17 -56 20 -65 5 -3 -5 -14 -10 -23 -10 -10 0 -89 -36 -176 -80 -87 -44 -160 -80 -162 -80 -2 0 -4 10 -4 22 0 13 -10 46 -22 75 -19 48 -26 54 -67 67 -74 23 -85 24 -116 6z m-65 -1219 c0 -12 -20 -25 -27 -18 -7 7 6 27 18 27 5 0 9 -4 9 -9z" />
</ns0:g>
</g><g transform="translate(-1.1750531946394744,13.338964957602002) scale(0.027544407487828052)"><ns0:metadata>
Created by potrace 1.16, written by Peter Selinger 2001-2019
</ns0:metadata>
<ns0:g transform="translate(0.000000,207.000000) scale(0.100000,-0.100000)" fill="#000000" stroke="none">
<ns0:path d="M898 2053 c-16 -19 -37 -75 -44 -121 -3 -15 -9 -155 -14 -312 -12 -354 -45 -650 -90 -795 -5 -16 -16 -73 -25 -125 -18 -103 -88 -373 -112 -430 -8 -19 -21 -50 -29 -68 -8 -18 -14 -40 -14 -50 -1 -9 -19 -46 -40 -82 l-40 -65 42 -3 c32 -3 46 1 53 13 6 10 22 33 38 52 15 20 33 57 41 83 8 26 21 60 29 76 37 74 116 365 131 484 4 30 11 71 16 90 21 80 50 201 50 205 0 17 36 -1 70 -35 22 -22 49 -40 60 -40 32 0 34 -25 11 -103 -11 -40 -23 -110 -26 -157 -8 -115 -41 -298 -71 -390 -24 -75 -22 -96 10 -84 18 7 86 135 86 162 0 7 6 23 14 35 19 30 34 104 46 217 5 52 19 131 30 175 11 44 23 103 27 133 3 29 9 55 13 57 4 3 22 0 39 -6 28 -10 35 -9 54 8 12 11 30 23 40 26 9 4 17 13 17 21 0 9 12 22 28 30 15 8 48 36 73 62 26 27 68 69 93 94 26 25 56 60 67 78 11 17 27 32 35 32 8 0 14 10 14 25 0 20 -5 25 -25 25 -14 0 -25 -3 -25 -8 0 -4 -27 -28 -61 -52 -34 -25 -69 -53 -78 -63 -9 -10 -29 -25 -46 -33 -16 -8 -66 -41 -110 -73 -97 -72 -95 -75 -65 117 12 75 26 173 30 217 9 91 46 174 98 223 53 50 40 76 -43 87 -72 10 -91 -9 -116 -110 -23 -91 -45 -227 -60 -365 -12 -118 -27 -202 -37 -211 -4 -4 -36 -3 -71 2 -36 5 -73 6 -84 3 -18 -6 -19 -2 -12 102 3 60 10 153 16 208 5 54 9 163 9 241 0 119 3 146 16 160 10 9 20 44 25 83 4 37 11 83 14 103 5 26 3 40 -10 52 -22 22 -68 22 -87 0z m172 -1020 c0 -10 -4 -24 -9 -31 -6 -11 -9 -10 -13 5 -3 10 -3 24 -1 31 7 18 23 15 23 -5z" />
<ns0:path d="M1715 1917 c-17 -27 -20 -47 -34 -284 -9 -139 -29 -299 -66 -523 -8 -47 -22 -139 -31 -205 -9 -66 -18 -123 -20 -126 -2 -4 -9 -85 -14 -181 -6 -95 -13 -195 -16 -223 -3 -27 -6 -101 -6 -163 -1 -162 21 -173 62 -32 22 76 30 134 50 365 7 72 21 195 32 275 11 80 23 174 28 210 4 36 22 144 38 240 17 96 36 224 42 284 7 60 19 124 26 142 20 48 17 171 -5 209 -23 40 -64 45 -86 12z m25 -434 c0 -5 -5 -15 -10 -23 -8 -12 -10 -11 -10 8 0 12 5 22 10 22 6 0 10 -3 10 -7z" />
<ns0:path d="M630 1425 c-76 -15 -89 -23 -104 -60 -21 -49 -37 -260 -34 -432 3 -142 2 -153 -19 -181 -18 -24 -20 -33 -10 -46 11 -15 16 -14 49 16 54 48 78 126 78 249 0 66 6 117 19 160 10 35 22 84 25 108 8 56 22 80 51 91 29 11 57 52 50 72 -11 27 -46 35 -105 23z" />
<ns0:path d="M445 10 c-3 -5 1 -10 9 -10 9 0 16 5 16 10 0 6 -4 10 -9 10 -6 0 -13 -4 -16 -10z" />
</ns0:g>
</g><g transform="translate(-1.0643500458685935,89.98546890510022) scale(0.027544407487828052)"><ns0:metadata>
Created by potrace 1.16, written by Peter Selinger 2001-2019
</ns0:metadata>
<ns0:g transform="translate(0.000000,228.000000) scale(0.100000,-0.100000)" fill="#000000" stroke="none">
<ns0:path d="M525 2183 c4 -54 8 -132 10 -173 1 -41 6 -85 10 -97 6 -19 2 -24 -21 -33 -16 -6 -49 -24 -74 -40 -25 -15 -61 -31 -80 -35 -77 -17 -140 -56 -140 -88 0 -27 38 -77 59 -77 9 0 41 11 69 25 29 14 56 25 62 25 5 0 24 13 43 29 18 16 76 50 128 75 51 25 118 61 147 81 30 19 56 35 58 35 2 0 34 18 70 40 36 22 72 40 80 40 8 0 14 5 14 10 0 6 8 14 18 18 54 23 93 56 90 76 -5 36 -72 22 -173 -36 -22 -13 -67 -34 -100 -47 -33 -14 -62 -27 -65 -30 -3 -4 -16 -12 -30 -19 -14 -8 -41 -22 -59 -32 -19 -11 -37 -17 -40 -15 -2 3 1 35 7 72 7 38 14 106 17 153 2 47 7 97 11 113 l6 27 -61 0 -62 0 6 -97z m-98 -408 c-23 -22 -33 -18 -12 5 10 11 20 18 23 16 2 -3 -3 -12 -11 -21z" />
<ns0:path d="M1285 1858 c-16 -6 -46 -23 -65 -38 -19 -14 -63 -40 -97 -58 -35 -17 -68 -36 -75 -42 -14 -12 -105 -70 -221 -141 -38 -22 -71 -38 -75 -34 -3 3 2 36 11 74 10 37 15 75 11 84 -9 24 -40 30 -71 15 -28 -14 -58 -82 -82 -191 -12 -55 -15 -58 -64 -83 -29 -14 -59 -35 -67 -45 -16 -20 -114 -62 -123 -52 -15 15 10 72 49 113 40 41 54 76 38 93 -3 3 -29 -7 -58 -22 -28 -16 -68 -34 -89 -41 -20 -6 -42 -20 -47 -30 -6 -10 -10 -63 -10 -117 0 -74 -5 -108 -19 -139 -12 -27 -16 -46 -10 -57 10 -17 -12 -125 -74 -367 -14 -52 -23 -97 -21 -99 2 -2 14 -1 27 3 49 12 108 137 147 312 18 80 27 102 44 110 15 7 21 18 21 44 1 53 18 75 87 109 35 17 71 36 80 43 9 7 20 9 23 6 7 -6 -13 -80 -45 -173 -17 -48 -72 -311 -84 -405 -4 -25 -19 -97 -35 -161 -16 -63 -34 -169 -41 -235 -22 -234 -28 -285 -32 -290 -3 -2 -72 -6 -154 -8 -82 -3 -152 -5 -156 -5 -5 -1 -8 -8 -8 -16 0 -13 122 -15 1040 -15 1033 0 1040 0 1040 20 0 20 -7 20 -577 21 -553 0 -773 -1 -985 -4 -54 -1 -101 2 -107 8 -6 6 -4 37 4 85 7 41 18 115 25 165 12 96 25 168 40 225 9 33 37 177 75 380 9 47 32 137 51 200 86 278 103 308 202 360 37 19 104 63 150 98 45 34 86 62 91 62 5 0 11 7 15 15 3 8 15 15 26 15 11 0 20 5 20 11 0 5 4 8 10 4 6 -3 6 -14 0 -28 -24 -60 -101 -315 -115 -379 -9 -40 -21 -95 -27 -123 -6 -27 -10 -87 -9 -132 1 -46 -2 -83 -6 -83 -13 0 -126 100 -144 127 -9 13 -33 40 -54 60 -52 49 -65 32 -32 -41 35 -76 66 -115 179 -228 70 -70 105 -98 122 -98 14 0 28 5 32 11 4 7 8 93 9 193 3 204 13 263 76 461 46 144 80 224 115 271 13 17 24 35 24 41 0 6 16 25 36 44 81 77 58 132 -41 97z" />
</ns0:g>
</g><g transform="translate(0.19044863576874604,176.59214241201403) scale(0.027544407487828052)"><ns0:metadata>
Created by potrace 1.16, written by Peter Selinger 2001-2019
</ns0:metadata>
<ns0:g transform="translate(0.000000,209.000000) scale(0.100000,-0.100000)" fill="#000000" stroke="none">
<ns0:path d="M1043 1850 c-24 -10 -26 -15 -43 -135 -6 -44 -18 -107 -25 -140 -8 -33 -17 -113 -21 -178 -7 -129 1 -113 -88 -177 -19 -14 -39 -35 -45 -47 -6 -12 -27 -33 -48 -46 -21 -14 -51 -36 -68 -51 -16 -14 -35 -26 -41 -26 -22 0 -74 -70 -74 -98 0 -37 17 -52 60 -52 30 0 40 7 70 44 19 25 46 50 59 56 14 6 42 25 63 42 22 17 41 28 44 26 2 -3 -5 -49 -16 -104 -11 -54 -27 -135 -34 -179 -8 -44 -19 -98 -24 -120 -6 -22 -24 -116 -41 -210 -16 -93 -32 -178 -36 -187 -4 -11 0 -20 14 -27 17 -9 25 -7 51 16 25 24 33 43 51 128 12 55 28 129 35 165 8 36 20 101 28 145 8 44 23 118 34 165 11 47 27 123 37 170 19 96 55 178 94 215 14 14 61 59 104 100 42 41 77 79 77 85 0 5 6 10 14 10 10 0 16 -35 25 -142 24 -275 39 -361 68 -372 29 -11 48 20 48 77 -1 114 -8 236 -17 312 -5 44 -10 136 -10 205 0 71 -4 130 -10 138 -20 23 -58 14 -76 -19 -19 -35 -158 -199 -205 -241 -16 -15 -33 -26 -36 -23 -10 6 5 146 25 245 27 126 59 153 152 125 16 -5 22 -3 22 7 0 16 -41 58 -57 58 -6 0 -16 7 -23 15 -7 8 -23 15 -36 15 -12 0 -26 5 -29 10 -7 12 -42 12 -72 0z" />
<ns0:path d="M537 1778 c-16 -12 -60 -126 -92 -238 -18 -64 -84 -249 -101 -285 -7 -16 -25 -66 -38 -110 -13 -44 -47 -136 -76 -205 -28 -69 -65 -161 -82 -205 -17 -44 -42 -93 -55 -108 -28 -35 -29 -51 -3 -77 15 -15 25 -18 38 -11 32 17 80 72 87 99 3 14 20 55 37 91 29 62 67 157 90 226 10 30 46 55 79 55 14 0 17 -17 22 -112 10 -187 49 -402 113 -615 6 -23 34 -14 45 13 6 19 6 37 -2 61 -6 18 -8 50 -4 71 3 20 -1 69 -9 109 -9 39 -20 133 -26 210 -26 322 -27 335 -41 344 -38 24 -101 -6 -129 -59 -21 -41 -24 -14 -5 45 9 32 21 66 26 75 5 10 9 23 9 28 0 6 10 32 21 58 22 47 66 151 97 227 9 22 20 43 25 46 18 12 77 155 77 185 0 56 -67 108 -103 82z" />
<ns0:path d="M1739 1073 c-1 -5 -2 -89 -4 -188 -2 -147 -6 -191 -22 -238 -19 -56 -61 -107 -88 -107 -7 0 -18 -6 -24 -14 -10 -12 -70 -39 -156 -72 -11 -4 -33 -9 -49 -11 -16 -2 -46 -8 -65 -13 -20 -5 -73 -10 -118 -10 l-82 0 -5 43 c-17 143 -29 249 -32 297 -5 76 -8 80 -53 80 -31 0 -44 -5 -56 -23 -16 -24 -12 -72 7 -111 12 -22 38 -277 32 -303 -3 -12 9 -34 35 -62 l40 -43 93 5 c145 9 311 42 382 78 64 31 101 51 106 59 3 4 20 15 37 24 42 21 55 43 90 146 26 78 28 97 28 235 0 148 -10 207 -39 227 -14 10 -56 10 -57 1z" />
</ns0:g>
</g><g transform="translate(2.5435440859487812,251.14984849932944) scale(0.027544407487828052)"><ns0:metadata>
Created by potrace 1.16, written by Peter Selinger 2001-2019
</ns0:metadata>
<ns0:g transform="translate(0.000000,207.000000) scale(0.100000,-0.100000)" fill="#000000" stroke="none">
<ns0:path d="M1035 1900 c-22 -11 -50 -20 -62 -20 -24 0 -59 -43 -49 -59 4 -6 9 -61 12 -124 7 -132 17 -119 -132 -186 -70 -31 -92 -47 -108 -74 -18 -30 -18 -37 -6 -52 36 -43 117 -34 182 20 16 14 34 25 39 25 9 0 6 -209 -3 -214 -81 -51 -171 -168 -166 -214 3 -23 8 -27 38 -29 32 -3 38 2 70 47 19 27 38 50 42 50 3 0 20 11 37 25 16 14 54 38 83 54 29 15 78 41 110 59 61 35 68 37 68 22 0 -11 -123 -177 -149 -200 -29 -27 -108 -125 -114 -143 -4 -9 -31 -55 -61 -101 -50 -76 -59 -85 -111 -106 -65 -26 -77 -20 -68 35 3 17 -2 60 -11 94 -9 34 -16 91 -16 125 0 49 -4 67 -19 80 -17 15 -22 16 -52 3 -59 -24 -63 -35 -39 -124 11 -43 30 -124 42 -180 l21 -102 -26 -40 c-31 -47 -33 -58 -11 -89 25 -36 98 -26 151 22 39 34 37 10 -7 -66 -54 -93 -87 -193 -95 -288 l-6 -75 32 -18 c30 -17 33 -17 51 0 11 10 23 16 27 13 3 -3 15 20 26 50 22 58 41 103 56 132 13 25 11 48 -3 43 -7 -3 -24 -22 -38 -41 -13 -20 -26 -31 -28 -25 -5 16 43 117 77 161 15 19 40 66 56 105 16 38 43 85 61 105 19 22 34 51 39 77 6 36 4 43 -15 53 -26 14 -19 47 16 74 14 10 31 31 39 47 9 16 39 56 69 89 30 33 61 76 70 95 9 19 30 42 46 50 17 9 30 22 30 30 0 8 5 15 10 15 6 0 15 10 20 23 16 36 32 58 86 120 50 56 64 88 64 149 0 37 -22 45 -63 25 -18 -9 -70 -35 -117 -57 -47 -23 -127 -63 -179 -91 -52 -27 -96 -47 -98 -45 -5 5 22 87 38 119 6 10 23 56 39 103 19 58 38 94 59 113 17 16 31 33 31 39 0 5 9 12 20 15 11 3 24 16 29 29 5 13 16 30 25 37 20 17 21 51 2 51 -8 0 -45 -23 -82 -50 -36 -28 -68 -49 -70 -47 -2 2 0 37 4 78 7 69 9 75 37 88 38 18 67 50 63 70 -5 23 -66 23 -113 1z" />
<ns0:path d="M1666 1016 c-5 -77 -2 -114 14 -188 26 -120 63 -257 78 -285 7 -12 12 -28 12 -36 0 -19 -103 -84 -246 -154 -116 -56 -121 -58 -199 -57 -73 0 -84 3 -128 33 -74 51 -74 41 -17 226 49 162 49 175 -2 175 -44 -1 -62 -27 -110 -164 -46 -131 -59 -195 -44 -229 48 -109 229 -185 367 -156 65 14 312 136 417 206 l82 55 0 59 c0 58 -12 100 -37 130 -15 18 -63 177 -87 286 -18 86 -60 187 -79 191 -11 2 -15 -17 -21 -92z" />
</ns0:g>
</g><g transform="translate(2.8473176689605566,328.5255058326454) scale(0.027544407487828052)"><ns0:metadata>
Created by potrace 1.16, written by Peter Selinger 2001-2019
</ns0:metadata>
<ns0:g transform="translate(0.000000,210.000000) scale(0.100000,-0.100000)" fill="#000000" stroke="none">
<ns0:path d="M1200 2078 c-58 -26 -151 -72 -252 -125 -45 -24 -88 -43 -95 -43 -8 0 -24 -11 -36 -24 -12 -13 -36 -31 -54 -40 -94 -48 -53 -143 57 -132 25 3 46 5 47 5 1 1 4 15 8 31 5 24 24 42 90 85 46 30 86 55 89 55 3 0 30 16 60 35 30 19 58 35 61 35 3 0 29 15 58 33 59 37 119 67 137 67 6 0 10 8 8 18 -5 27 -119 28 -178 0z" />
<ns0:path d="M1484 1875 c-4 -8 -12 -15 -19 -15 -7 0 -18 -7 -25 -15 -7 -8 -18 -15 -25 -15 -7 0 -66 -30 -131 -67 -66 -36 -136 -75 -156 -85 -20 -11 -42 -26 -49 -34 -21 -26 -39 -16 -39 21 0 28 4 35 20 35 11 0 20 -4 20 -10 0 -16 20 -12 26 5 4 9 -5 33 -20 55 -19 29 -35 41 -60 45 -77 15 -106 -26 -106 -150 0 -97 1 -96 -125 -140 -123 -42 -266 -120 -331 -180 l-57 -54 7 -58 c14 -105 16 -127 19 -213 2 -67 6 -86 19 -88 8 -2 22 8 31 22 19 29 26 68 36 198 6 88 9 99 34 122 15 14 47 34 72 45 25 11 45 24 45 30 0 5 19 18 43 29 121 55 189 82 198 77 5 -4 9 -33 9 -66 0 -55 -2 -60 -26 -69 -59 -23 -171 -81 -199 -104 -25 -20 -28 -28 -19 -43 6 -10 26 -20 45 -23 29 -4 34 -9 40 -40 7 -48 23 -75 60 -101 l31 -22 -22 -17 c-17 -13 -25 -33 -32 -81 -5 -38 -5 -66 1 -72 11 -11 88 48 96 74 4 11 17 22 30 25 13 3 26 11 28 18 3 7 25 23 49 36 23 12 69 39 101 61 33 21 78 44 100 50 23 6 48 16 55 21 17 15 6 -15 -26 -66 -38 -61 -81 -96 -119 -96 -35 0 -53 -17 -32 -31 51 -33 126 -10 193 59 42 43 46 45 46 23 0 -12 -12 -46 -26 -75 -14 -28 -35 -85 -46 -126 -11 -41 -30 -106 -43 -145 -13 -38 -35 -108 -50 -155 -40 -129 -55 -156 -88 -152 -15 1 -27 -2 -27 -7 0 -8 -130 -44 -136 -38 -4 4 31 121 39 135 5 7 17 10 29 6 18 -6 19 -4 5 18 -13 20 -14 32 -2 88 18 88 35 130 68 169 33 40 36 66 6 58 -31 -8 -35 19 -10 70 31 64 22 83 -38 83 -44 0 -50 -3 -59 -27 -19 -50 -30 -97 -37 -151 -6 -44 -13 -57 -43 -82 -20 -17 -41 -30 -47 -30 -17 0 -75 -64 -75 -82 0 -23 22 -38 71 -46 l44 -8 -2 -61 c-2 -90 -52 -193 -92 -193 -20 0 -81 -76 -81 -100 0 -15 29 -48 56 -63 7 -4 28 6 48 22 21 17 51 33 69 37 17 3 43 15 57 25 50 36 310 93 411 90 62 -2 69 5 69 76 0 39 -17 46 -103 41 -37 -2 -62 1 -62 7 0 12 76 249 110 345 13 36 29 81 36 100 7 19 27 71 44 115 18 44 36 91 40 105 3 14 17 50 30 81 17 37 23 68 20 95 -2 21 -4 42 -4 47 -1 4 -12 12 -26 17 -30 11 -32 37 -10 101 24 68 62 225 75 314 6 44 16 106 21 139 4 32 6 63 3 67 -9 15 -74 10 -80 -6z m-41 -172 c-7 -46 -34 -176 -43 -208 -4 -16 -20 -79 -35 -140 -15 -60 -34 -117 -44 -126 -9 -8 -72 -42 -141 -74 -69 -31 -138 -66 -153 -77 -16 -11 -31 -17 -35 -14 -3 4 2 35 11 70 9 36 17 84 17 109 0 39 5 48 41 80 34 31 38 39 29 57 -6 12 -21 20 -36 20 -31 0 -40 22 -25 68 11 37 39 61 122 107 20 11 54 30 75 43 212 126 224 130 217 85z m-523 -514 c0 -37 -37 -126 -55 -133 -24 -9 -65 33 -65 65 0 23 7 34 31 47 17 9 41 25 53 34 30 24 36 22 36 -13z" />
<ns0:path d="M609 769 c-11 -11 -35 -23 -53 -26 -24 -4 -35 -12 -43 -34 -7 -17 -8 -31 -2 -35 19 -11 57 -101 69 -162 15 -75 29 -90 64 -67 31 21 33 57 11 183 -11 62 -11 89 -3 107 11 25 5 55 -12 55 -5 0 -19 -9 -31 -21z" />
</ns0:g>
</g><g transform="translate(2.3851715570046395,409.0519124249239) scale(0.027544407487828052)"><ns0:metadata>
Created by potrace 1.16, written by Peter Selinger 2001-2019
</ns0:metadata>
<ns0:g transform="translate(0.000000,212.000000) scale(0.100000,-0.100000)" fill="#000000" stroke="none">
<ns0:path d="M1584 1834 c-16 -9 -36 -21 -44 -29 -8 -7 -33 -22 -55 -34 -45 -24 -78 -46 -229 -148 -102 -69 -134 -95 -196 -155 -15 -16 -33 -28 -40 -28 -6 0 -24 -7 -40 -15 -33 -17 -46 -52 -55 -150 -10 -101 -48 -267 -102 -437 -8 -27 -21 -48 -28 -48 -20 0 -80 43 -136 97 -27 26 -58 51 -68 55 -19 6 -19 10 -5 60 8 29 25 103 38 163 31 143 61 201 128 252 29 22 68 48 86 57 27 14 33 22 30 44 -2 22 -9 28 -33 30 -29 3 -117 -37 -130 -59 -14 -21 -27 -8 -22 21 7 31 32 62 60 73 28 11 19 41 -24 85 -46 48 -76 53 -106 20 -15 -18 -22 -48 -32 -143 l-12 -120 -37 -32 c-20 -18 -64 -47 -97 -64 -159 -83 -209 -141 -186 -212 19 -55 91 -76 91 -26 0 28 28 79 44 79 7 0 23 11 36 25 13 14 28 25 32 25 5 0 25 12 44 26 l34 26 0 -38 c0 -46 -43 -219 -59 -238 -6 -7 -30 -16 -53 -20 -33 -5 -52 -18 -99 -67 -38 -39 -59 -70 -59 -85 0 -12 -4 -25 -9 -29 -16 -9 -64 -86 -98 -155 -42 -86 -103 -233 -103 -247 0 -68 115 58 184 202 53 109 59 119 112 190 61 80 90 115 97 115 3 0 1 -15 -4 -33 -8 -30 -18 -83 -54 -287 -9 -47 -24 -112 -35 -145 -11 -33 -22 -106 -26 -162 l-7 -103 25 0 c43 0 71 45 79 126 4 38 16 100 28 137 11 37 28 109 36 160 9 50 26 129 37 174 l20 82 47 -38 c65 -53 114 -81 144 -81 14 0 29 -5 32 -10 7 -12 -49 -184 -71 -217 -29 -46 -11 -86 30 -64 28 15 76 95 76 126 0 13 11 36 25 50 13 15 29 43 36 63 7 21 18 46 24 57 7 11 21 45 30 75 10 30 21 60 25 65 4 6 19 63 35 128 15 64 30 117 34 117 11 0 29 61 37 123 4 41 11 60 23 64 27 10 51 35 51 54 0 9 4 19 10 21 5 2 35 28 67 59 32 31 81 71 108 90 28 19 75 53 106 77 48 36 79 51 79 38 0 -2 -10 -28 -23 -57 -13 -30 -29 -74 -36 -99 -7 -25 -24 -70 -36 -100 -34 -83 -70 -202 -100 -330 -15 -63 -33 -136 -41 -162 -18 -59 -17 -196 0 -268 16 -65 26 -90 35 -91 3 0 74 -2 156 -4 l150 -4 64 32 c35 17 67 41 72 52 5 11 18 83 29 160 11 77 23 154 26 170 6 37 -36 88 -69 83 -18 -2 -21 -9 -19 -34 2 -18 -6 -60 -17 -95 -11 -35 -22 -94 -25 -132 -9 -113 -38 -129 -201 -112 -95 10 -101 15 -104 71 -1 26 -4 51 -7 55 -6 10 32 210 57 294 31 107 58 191 94 295 18 52 38 113 45 135 7 22 33 82 57 133 53 111 66 184 36 200 -15 8 -27 7 -49 -4z m-260 -925 c-3 -5 -10 -7 -15 -3 -5 3 -7 10 -3 15 3 5 10 7 15 3 5 -3 7 -10 3 -15z" />
</ns0:g>
</g><g transform="translate(1.9282209836798643,485.80659421626933) scale(0.027544407487828052)"><ns0:metadata>
Created by potrace 1.16, written by Peter Selinger 2001-2019
</ns0:metadata>
<ns0:g transform="translate(0.000000,204.000000) scale(0.100000,-0.100000)" fill="#000000" stroke="none">
<ns0:path d="M936 1781 c-34 -7 -47 -35 -34 -71 12 -31 23 -86 44 -209 15 -90 15 -95 -2 -108 -10 -7 -23 -13 -30 -13 -7 0 -24 -10 -38 -23 -13 -12 -44 -33 -68 -45 -23 -13 -59 -32 -78 -44 -19 -11 -41 -21 -50 -23 -86 -17 -95 -31 -86 -129 4 -39 9 -98 12 -131 3 -33 7 -145 9 -250 4 -210 16 -280 50 -280 14 0 21 8 23 25 5 34 28 58 66 66 17 4 47 15 66 25 36 19 70 25 70 12 0 -5 -9 -86 -21 -182 -21 -167 -22 -175 -5 -206 11 -19 33 -40 54 -49 43 -19 140 -38 153 -31 4 3 17 0 27 -6 12 -7 30 -9 48 -4 16 4 47 8 69 10 119 8 309 56 475 120 19 8 52 20 73 27 56 18 61 34 53 170 -8 144 -40 263 -71 263 -17 0 -21 -10 -27 -70 -4 -38 -6 -109 -3 -157 l4 -87 -52 -29 c-29 -16 -67 -32 -85 -35 -18 -4 -65 -21 -104 -38 -138 -60 -399 -84 -471 -42 -42 25 -55 48 -39 73 6 11 12 48 12 83 0 34 7 87 15 117 9 30 20 73 26 95 15 59 24 62 65 22 43 -42 74 -52 118 -37 67 22 90 96 106 340 31 472 31 474 18 550 -13 73 -14 75 -43 78 -21 2 -58 -11 -117 -42 -98 -51 -89 -56 -108 52 -22 123 -64 226 -90 221 -3 -1 -18 -4 -34 -8z m305 -432 c0 -250 -27 -633 -47 -671 -19 -38 -64 -38 -93 -2 l-20 26 25 40 c34 53 26 69 -28 66 -34 -2 -42 0 -39 12 30 118 32 150 29 358 -1 52 3 87 10 94 7 7 12 29 12 49 0 34 4 39 43 58 23 12 53 30 67 41 14 10 29 15 33 11 5 -5 8 -42 8 -82z m-281 -112 c0 -42 -1 -43 -50 -60 -27 -10 -50 -22 -50 -27 0 -6 16 -41 35 -79 45 -88 49 -159 10 -189 -14 -11 -25 -25 -25 -30 0 -16 -119 -162 -132 -162 -6 0 -17 -8 -25 -17 -12 -16 -13 12 -11 202 3 148 8 227 16 242 6 12 32 32 57 44 25 12 45 26 45 30 0 7 117 89 126 89 2 0 4 -19 4 -43z m-49 -506 c-12 -22 -41 -29 -41 -9 0 6 8 20 17 30 21 24 39 8 24 -21z" />
</ns0:g>
</g><g transform="translate(-0.1894501092629639,570.3556493479517) scale(0.027544407487828052)"><ns0:metadata>
Created by potrace 1.16, written by Peter Selinger 2001-2019
</ns0:metadata>
<ns0:g transform="translate(0.000000,212.000000) scale(0.100000,-0.100000)" fill="#000000" stroke="none">
<ns0:path d="M1235 1986 c-36 -16 -72 -61 -123 -154 -80 -148 -117 -212 -122 -212 -3 0 -13 18 -23 40 -14 30 -25 40 -42 40 -36 0 -52 -24 -80 -116 -28 -90 -35 -123 -65 -309 -10 -66 -29 -160 -40 -210 -12 -49 -25 -110 -30 -135 -9 -49 -57 -190 -70 -203 -9 -10 -7 21 11 196 11 111 11 134 -2 170 -13 38 -17 42 -44 39 -41 -5 -103 -41 -111 -66 -5 -14 1 -26 20 -42 14 -13 26 -25 26 -27 0 -4 -66 -70 -186 -187 -75 -73 -77 -80 -39 -122 28 -32 45 -35 66 -10 8 9 31 31 51 49 20 17 48 50 62 72 33 52 50 54 42 4 -34 -211 -32 -257 11 -274 47 -18 83 -2 104 47 11 24 23 46 28 48 5 3 18 38 30 78 12 40 27 87 33 103 5 17 14 55 18 85 4 30 13 78 19 105 6 28 16 73 22 100 18 84 29 106 51 99 38 -12 69 31 113 161 14 44 44 109 65 145 20 36 41 76 45 90 4 14 15 34 25 45 10 11 30 45 45 75 41 80 75 131 84 126 7 -5 13 -71 12 -141 0 -11 9 -58 20 -105 12 -47 22 -114 23 -150 1 -57 3 -65 22 -68 11 -2 32 7 47 18 23 18 27 29 27 69 0 27 -4 61 -9 77 -10 34 -27 156 -40 300 -9 101 -30 164 -54 164 -6 -1 -26 -7 -42 -14z" />
<ns0:path d="M550 1717 c-41 -21 -53 -59 -41 -130 6 -34 13 -136 17 -227 3 -91 10 -169 14 -174 17 -17 35 2 48 50 28 106 31 121 35 184 3 46 12 81 31 115 14 28 26 58 26 69 0 30 -43 97 -72 112 -32 17 -27 17 -58 1z" />
<ns0:path d="M1235 1317 c-11 -7 -40 -28 -65 -48 -25 -20 -76 -56 -115 -81 -38 -24 -89 -64 -113 -88 -35 -36 -42 -49 -37 -70 9 -34 16 -40 56 -46 31 -5 39 0 94 53 55 53 106 93 120 93 2 0 -1 -17 -9 -37 -18 -50 -62 -195 -77 -255 -6 -27 -16 -48 -21 -48 -5 0 -35 20 -67 45 -58 46 -93 55 -132 35 -33 -18 -23 -55 29 -100 26 -23 64 -51 84 -61 20 -10 39 -23 43 -29 11 -18 -66 -200 -103 -242 -19 -22 -9 -48 19 -48 54 0 136 89 160 172 17 62 21 64 80 38 30 -12 67 -33 84 -45 16 -13 59 -33 95 -45 36 -12 72 -28 80 -35 8 -7 29 -17 45 -21 17 -4 33 -12 36 -17 12 -17 39 1 39 25 0 23 -56 77 -92 91 -10 3 -18 11 -18 16 0 8 -120 71 -136 71 -11 0 -118 71 -130 86 -15 19 0 99 36 194 74 193 84 232 85 320 0 84 0 85 -25 87 -14 1 -34 -3 -45 -10z" />
</ns0:g>
</g><g transform="translate(-2.550541974494479,638.3105775889076) scale(0.027544407487828052)"><ns0:metadata>
Created by potrace 1.16, written by Peter Selinger 2001-2019
</ns0:metadata>
<ns0:g transform="translate(0.000000,212.000000) scale(0.100000,-0.100000)" fill="#000000" stroke="none">
<ns0:path d="M1334 2073 c-28 -24 -134 -158 -134 -169 0 -5 -20 -36 -44 -69 -25 -33 -47 -69 -50 -81 -9 -33 -45 -90 -92 -143 -22 -25 -62 -73 -88 -106 -80 -101 -119 -147 -166 -200 -25 -27 -64 -75 -86 -105 -22 -30 -53 -72 -68 -93 -35 -48 -28 -74 22 -83 34 -7 39 -4 75 37 21 24 59 71 83 104 24 33 61 80 82 104 96 112 90 107 109 94 36 -24 119 -66 141 -72 l23 -6 -28 -32 c-130 -145 -188 -204 -253 -256 -41 -33 -118 -103 -171 -156 -52 -53 -137 -132 -189 -176 -112 -97 -120 -104 -120 -115 0 -13 -150 -122 -202 -148 -26 -12 -50 -27 -53 -32 -14 -23 110 1 172 33 32 17 184 124 193 136 3 4 21 18 40 31 72 50 158 127 266 237 61 62 116 113 122 113 17 0 15 -21 -3 -48 -13 -17 -14 -26 -4 -43 12 -22 0 -38 -28 -39 -7 0 -19 -10 -27 -23 -12 -18 -14 -47 -10 -144 l5 -121 -38 -18 c-33 -17 -38 -23 -38 -54 0 -30 5 -37 37 -52 35 -17 36 -19 27 -50 -5 -18 -5 -36 -1 -40 22 -22 92 36 92 75 0 19 45 78 72 93 35 20 89 44 99 44 26 0 23 -163 -5 -256 -16 -50 -17 -51 -84 -77 -37 -15 -73 -27 -79 -27 -6 0 -30 -16 -52 -37 -86 -77 -24 -138 86 -84 132 65 247 112 333 136 14 4 57 23 97 42 39 19 91 37 115 40 71 9 79 17 76 71 -3 47 -3 47 -38 46 -43 -2 -98 -16 -139 -37 -36 -18 -36 -17 -16 68 8 33 24 160 35 282 11 122 27 243 35 270 8 27 15 88 15 141 l0 92 -32 0 c-20 0 -51 -12 -78 -30 -25 -16 -49 -30 -55 -30 -5 0 -46 -20 -89 -45 -43 -25 -91 -48 -105 -52 -14 -3 -42 -16 -61 -29 -19 -12 -46 -25 -60 -29 -20 -6 -14 5 35 57 33 35 92 98 130 139 39 42 80 81 93 88 13 7 56 12 100 11 78 -1 166 4 327 17 l90 8 3 30 c6 49 -10 53 -204 49 -97 -2 -180 -1 -185 1 -4 3 12 34 35 68 24 35 58 90 76 123 18 32 39 67 47 76 27 30 62 117 69 167 6 44 4 50 -16 61 -28 15 -91 6 -139 -20 -20 -10 -54 -24 -76 -31 -22 -6 -47 -17 -55 -24 -8 -7 -39 -25 -67 -39 -79 -40 -74 -26 45 113 26 30 66 74 90 98 46 46 53 78 25 111 -25 30 -64 36 -89 15z m156 -342 c0 -30 -161 -271 -181 -271 -3 0 -20 -20 -38 -45 -18 -25 -39 -45 -48 -45 -24 0 -137 57 -158 80 -19 21 -19 21 56 91 40 39 93 79 117 90 23 11 42 24 42 28 0 5 19 19 43 31 75 40 167 62 167 41z m-136 -761 c-4 -86 -17 -219 -23 -227 -11 -16 -91 -63 -106 -63 -27 0 -16 35 16 49 24 11 30 18 27 40 -3 25 -7 26 -73 33 -46 5 -80 4 -99 -4 -31 -12 -30 0 -10 -143 l6 -40 -58 -27 c-31 -14 -63 -24 -71 -21 -23 9 -5 102 28 144 31 40 35 59 18 76 -17 17 -4 41 28 55 15 7 40 20 56 31 15 10 67 38 115 61 48 24 94 51 101 60 23 28 46 15 45 -24z m-32 -457 c-2 -71 -7 -153 -10 -183 l-7 -54 -70 -27 c-38 -15 -73 -25 -76 -23 -8 4 10 68 35 126 11 25 16 67 16 125 0 48 4 93 8 98 7 10 92 64 102 65 3 0 4 -57 2 -127z" />
</ns0:g>
</g><g transform="translate(1.1361044024899911,728.9869410925578) scale(0.027544407487828052)"><ns0:metadata>
Created by potrace 1.16, written by Peter Selinger 2001-2019
</ns0:metadata>
<ns0:g transform="translate(0.000000,207.000000) scale(0.100000,-0.100000)" fill="#000000" stroke="none">
<ns0:path d="M953 1943 c-7 -2 -13 -9 -13 -15 0 -5 -15 -44 -34 -87 -18 -42 -41 -108 -51 -147 -13 -54 -22 -73 -43 -86 -223 -142 -321 -216 -337 -255 -22 -52 -19 -69 18 -97 40 -31 71 -26 87 14 15 36 107 133 119 126 5 -4 -4 -33 -20 -66 -16 -33 -29 -63 -29 -67 0 -7 -110 -228 -174 -348 -48 -91 -163 -269 -195 -302 -11 -12 -21 -25 -21 -28 0 -4 -14 -26 -30 -49 -33 -46 -32 -72 4 -85 17 -7 29 0 59 29 20 21 37 42 37 48 0 6 8 17 18 24 22 16 72 90 72 106 0 7 16 29 35 51 19 21 35 43 35 48 0 6 39 48 87 93 105 100 106 100 88 -91 -7 -74 -12 -188 -11 -254 1 -135 10 -148 59 -97 27 28 28 35 37 178 6 82 14 185 19 229 15 119 13 220 -2 234 -18 14 -73 -2 -104 -31 -12 -12 -23 -18 -23 -15 0 4 20 46 44 94 24 49 55 115 69 148 30 71 74 152 96 178 9 10 25 37 36 59 11 22 24 40 28 39 5 -1 21 15 36 36 15 21 45 50 67 64 93 61 131 85 157 98 15 7 27 17 27 22 0 5 20 18 44 30 24 11 67 43 96 70 44 42 49 51 40 69 -13 24 -15 24 -60 1 -19 -11 -59 -31 -89 -45 -29 -14 -74 -41 -100 -59 -63 -46 -129 -82 -137 -74 -6 6 19 94 37 129 28 55 -21 105 -78 81z" />
<ns0:path d="M1417 1738 c-167 -178 -203 -214 -217 -220 -22 -9 -170 -138 -170 -148 0 -5 -26 -29 -57 -53 -39 -30 -68 -63 -87 -100 -28 -52 -29 -57 -13 -80 27 -42 54 -41 86 3 39 55 256 280 269 280 6 0 21 13 34 29 13 16 33 34 46 40 26 14 26 15 11 -84 -6 -38 -12 -171 -13 -294 l-1 -224 -86 -46 c-48 -25 -94 -52 -103 -60 -34 -29 -28 1 12 58 23 32 46 69 51 83 5 13 19 46 32 72 l23 49 -28 23 c-37 33 -87 30 -160 -9 -50 -27 -65 -41 -93 -92 -37 -68 -37 -89 4 -167 l25 -47 -20 -28 c-11 -15 -45 -51 -77 -80 -47 -43 -55 -56 -50 -75 19 -63 75 -64 143 -3 27 25 54 45 59 45 5 0 20 -12 34 -26 56 -62 196 -165 244 -180 27 -10 61 -25 74 -35 29 -23 64 -24 82 -2 21 24 15 130 -16 289 -15 75 -30 167 -35 203 -5 36 -14 89 -20 116 -19 84 6 451 37 550 17 54 33 86 78 155 19 29 29 59 29 85 1 37 -1 40 -29 43 -26 2 -39 -7 -98 -70z m-267 -762 c0 -7 -14 -30 -30 -51 -17 -21 -33 -49 -36 -62 -7 -27 -43 -52 -45 -31 -5 64 15 111 63 145 32 23 48 22 48 -1z m183 -244 c3 -43 11 -91 17 -106 5 -15 13 -54 16 -87 4 -47 2 -59 -9 -59 -24 0 -120 48 -163 83 -23 17 -56 40 -75 50 l-33 18 44 41 c54 50 171 136 186 137 7 1 13 -30 17 -77z" />
</ns0:g>
</g><g transform="translate(-1.5429559382001798,797.6633629286467) scale(0.027544407487828052)"><ns0:metadata>
Created by potrace 1.16, written by Peter Selinger 2001-2019
</ns0:metadata>
<ns0:g transform="translate(0.000000,209.000000) scale(0.100000,-0.100000)" fill="#000000" stroke="none">
<ns0:path d="M1491 1903 c-31 -32 -71 -75 -88 -95 -18 -21 -61 -57 -97 -82 -122 -84 -206 -156 -206 -177 0 -12 -8 -23 -19 -26 -30 -8 -51 -64 -67 -176 -18 -130 -21 -140 -42 -131 -40 17 -94 16 -142 -5 -27 -12 -51 -21 -54 -21 -13 0 -4 20 29 68 154 225 165 418 25 452 -117 28 -218 -43 -153 -108 18 -18 16 -39 -6 -76 -19 -31 -29 -101 -36 -251 -4 -98 -13 -163 -26 -186 -6 -12 -5 -20 2 -25 8 -5 10 -53 7 -165 -6 -168 -17 -209 -57 -209 -24 0 -42 -22 -32 -39 5 -7 24 -16 42 -20 l34 -7 1 -94 c6 -356 7 -371 25 -381 10 -5 26 -9 37 -9 43 0 46 18 43 280 -1 196 1 256 12 283 17 40 78 128 122 177 18 19 49 60 69 90 l37 55 -6 -40 c-4 -22 -14 -77 -22 -122 -23 -124 -9 -143 52 -65 35 45 37 46 32 17 -3 -16 -9 -68 -12 -115 -4 -47 -13 -110 -20 -140 -21 -89 -72 -225 -100 -266 -30 -44 -32 -77 -5 -104 24 -24 31 -24 92 -5 70 21 138 78 258 213 30 34 63 62 72 62 9 0 40 -23 70 -51 29 -28 88 -77 130 -110 42 -32 80 -64 83 -69 7 -11 111 -80 121 -80 3 0 19 -14 36 -30 17 -17 45 -42 63 -56 l33 -25 58 22 c93 35 134 96 85 126 -16 10 -24 9 -44 -7 -33 -26 -49 -25 -85 5 -17 14 -33 25 -36 25 -11 0 -178 119 -236 167 -30 25 -71 67 -92 93 -21 26 -53 59 -73 74 -42 32 -43 44 -10 80 14 15 25 29 25 30 0 2 14 19 31 37 17 19 47 56 65 84 19 27 50 73 70 100 19 28 37 60 40 73 7 26 -11 52 -37 52 -17 0 -139 -110 -139 -125 0 -7 -60 -86 -105 -140 -14 -16 -34 -41 -44 -54 l-18 -25 -31 25 c-17 13 -31 29 -31 35 -1 18 -60 64 -82 64 -20 0 -21 4 -17 63 9 101 27 147 77 192 122 109 153 144 149 167 -4 29 -43 37 -66 13 -25 -24 -140 -105 -150 -105 -5 0 -17 -9 -27 -20 -29 -32 -38 -24 -30 27 13 88 43 189 50 171 11 -27 32 -22 109 26 39 23 90 54 114 66 41 23 42 23 57 4 17 -22 19 -112 11 -374 -1 -46 29 -52 61 -11 30 38 43 156 43 386 0 209 21 372 57 432 18 32 23 53 21 90 -3 42 -6 48 -26 51 -18 3 -38 -11 -81 -55z m-51 -211 c0 -5 -5 -35 -12 -68 -11 -56 -14 -82 -17 -132 -1 -20 -5 -22 -39 -16 -28 4 -41 2 -51 -10 -7 -9 -19 -16 -26 -16 -7 0 -18 -7 -25 -15 -7 -8 -20 -15 -30 -15 -9 0 -38 -11 -64 -25 -56 -30 -59 -30 -53 -7 3 9 8 33 11 53 5 27 13 39 29 43 12 3 49 31 82 62 33 31 80 69 104 85 24 15 50 37 58 49 14 20 33 27 33 12z m-604 -94 c10 -16 7 -74 -5 -97 -11 -20 -13 -19 -51 18 -45 44 -48 53 -21 80 19 19 65 19 77 -1z m-46 -193 c0 -2 -9 -19 -20 -37 l-20 -33 0 31 c0 17 3 34 7 37 7 8 33 9 33 2z m80 -280 c0 -10 -63 -120 -94 -162 -36 -52 -56 -56 -56 -10 0 77 11 104 50 126 20 11 43 28 50 36 12 14 50 22 50 10z m320 -580 c11 -20 10 -28 -4 -50 -10 -14 -24 -29 -32 -32 -8 -3 -28 -24 -43 -47 -28 -40 -91 -87 -91 -68 0 5 7 29 16 53 8 24 24 80 35 124 11 44 22 86 25 93 5 16 75 -38 94 -73z" />
</ns0:g>
</g><g transform="translate(-2.87829133982666,880.8406434904728) scale(0.027544407487828052)"><ns0:metadata>
Created by potrace 1.16, written by Peter Selinger 2001-2019
</ns0:metadata>
<ns0:g transform="translate(0.000000,207.000000) scale(0.100000,-0.100000)" fill="#000000" stroke="none">
<ns0:path d="M1005 1928 c-21 -24 -57 -83 -82 -133 -24 -49 -57 -115 -74 -145 -17 -30 -58 -113 -91 -185 -33 -71 -77 -155 -96 -185 -38 -59 -112 -200 -112 -213 0 -5 -11 -23 -25 -41 -14 -18 -25 -37 -25 -43 0 -6 -20 -41 -45 -79 -25 -37 -45 -72 -45 -77 0 -4 -12 -33 -27 -63 -25 -51 -26 -56 -10 -72 20 -19 43 -10 61 24 24 45 81 133 117 180 21 28 68 107 103 177 35 69 78 145 94 169 16 24 48 81 71 128 24 47 51 99 61 115 10 17 21 40 24 52 9 28 69 129 94 157 11 12 36 49 56 84 21 34 50 69 66 77 53 27 40 80 -26 105 -41 16 -50 12 -89 -32z" />
<ns0:path d="M1188 1549 c-21 -11 -25 -79 -6 -79 6 0 19 -6 27 -14 9 -8 41 -24 71 -36 30 -12 65 -31 76 -42 27 -24 77 -21 82 5 4 18 -18 42 -125 140 -43 39 -88 48 -125 26z" />
<ns0:path d="M1040 1183 c-8 -2 -24 -8 -35 -13 -11 -5 -32 -11 -46 -14 -25 -5 -26 -8 -32 -105 -12 -179 -73 -380 -151 -496 -100 -149 -130 -187 -181 -231 -50 -44 -53 -48 -43 -75 6 -16 23 -36 38 -44 31 -16 37 -12 119 63 35 32 117 77 178 97 29 9 55 21 58 26 4 5 17 9 30 9 13 0 27 5 30 10 3 6 17 10 29 10 13 0 29 6 36 14 6 8 17 13 25 10 7 -3 27 2 44 10 16 9 37 16 46 16 9 0 44 13 78 29 54 25 113 45 140 46 4 0 18 -29 31 -65 38 -109 55 -142 68 -138 23 8 29 115 13 213 -8 50 -17 137 -19 194 -3 57 -6 104 -8 105 -68 48 -108 54 -142 21 -15 -15 -13 -59 3 -80 9 -11 41 -136 41 -158 0 -9 -16 -16 -45 -20 -25 -4 -63 -16 -85 -27 -21 -11 -47 -20 -57 -20 -16 0 -128 -32 -281 -81 -35 -11 -66 -18 -69 -15 -3 3 13 33 36 68 22 35 41 70 41 78 0 8 7 28 15 43 8 16 29 94 46 175 17 81 35 155 40 164 5 10 9 30 9 44 0 14 11 39 25 56 27 32 32 57 13 76 -13 13 -15 13 -38 5z" />
</ns0:g>
</g><g transform="translate(-1.653952086783022,965.8611148560667) scale(0.027544407487828052)"><ns0:metadata>
Created by potrace 1.16, written by Peter Selinger 2001-2019
</ns0:metadata>
<ns0:g transform="translate(0.000000,209.000000) scale(0.100000,-0.100000)" fill="#000000" stroke="none">
<ns0:path d="M1384 2047 c-56 -46 -134 -112 -197 -167 -43 -37 -166 -117 -232 -150 -22 -11 -65 -24 -95 -30 -87 -17 -144 -49 -148 -83 -2 -16 4 -40 13 -54 16 -23 22 -25 64 -20 43 5 121 38 237 100 64 35 123 80 204 157 41 40 91 84 110 100 l35 28 -1 -277 c-1 -289 -6 -387 -29 -586 -8 -66 -19 -199 -25 -295 -7 -96 -16 -183 -22 -194 -8 -14 -17 -17 -44 -13 -20 4 -46 0 -64 -10 -20 -9 -58 -15 -106 -15 -63 1 -75 -2 -72 -15 2 -9 15 -25 30 -36 23 -17 44 -20 187 -22 l161 -2 0 39 c0 25 5 38 13 38 10 0 13 13 10 53 -4 53 15 306 43 567 8 80 17 249 18 375 3 182 7 238 19 270 9 22 16 57 17 77 0 26 10 50 35 82 19 26 35 51 35 56 0 6 11 20 25 32 14 12 25 25 25 30 0 13 -47 9 -53 -5 -7 -19 -86 -71 -95 -62 -4 4 -1 10 7 13 7 2 28 17 45 33 l31 28 -65 0 c-61 0 -68 -3 -116 -42z" />
<ns0:path d="M1095 1559 c-38 -16 -81 -36 -95 -44 -14 -8 -58 -31 -99 -52 -92 -45 -183 -129 -183 -167 0 -55 50 -77 113 -49 27 12 42 25 46 43 7 29 52 79 71 80 7 0 23 11 35 24 13 14 75 52 138 84 119 63 146 92 97 106 -37 9 -49 7 -123 -25z" />
<ns0:path d="M1079 1278 c-39 -44 -39 -68 3 -68 49 0 117 -37 125 -68 5 -22 -1 -32 -38 -64 -61 -53 -152 -95 -221 -101 -56 -5 -57 -5 -67 26 -23 64 -70 86 -104 49 -20 -22 -21 -36 -4 -82 21 -59 45 -96 71 -114 27 -17 76 -22 76 -6 0 5 17 16 38 26 106 46 149 69 168 88 12 11 47 34 78 49 65 33 92 64 100 115 10 63 -5 93 -70 139 -76 53 -113 56 -155 11z" />
</ns0:g>
</g></svg>