<?xml version='1.0' encoding='utf-8'?>
<svg xmlns:ns0="http://www.w3.org/2000/svg" xmlns="http://www.w3.org/2000/svg" width="210" height="105" viewBox="0 0 210 105"><g transform="translate(1.1946701443188203,-98.91691874421372) scale(0.04431596216039817)"><ns0:metadata>
Created by potrace 1.16, written by Peter Selinger 2001-2019
</ns0:metadata>
<ns0:g transform="translate(0.000000,204.000000) scale(0.100000,-0.100000)" fill="#000000" stroke="none">
<ns0:path d="M936 1781 c-34 -7 -47 -35 -34 -71 12 -31 23 -86 44 -209 15 -90 15 -95 -2 -108 -10 -7 -23 -13 -30 -13 -7 0 -24 -10 -38 -23 -13 -12 -44 -33 -68 -45 -23 -13 -59 -32 -78 -44 -19 -11 -41 -21 -50 -23 -86 -17 -95 -31 -86 -129 4 -39 9 -98 12 -131 3 -33 7 -145 9 -250 4 -210 16 -280 50 -280 14 0 21 8 23 25 5 34 28 58 66 66 17 4 47 15 66 25 36 19 70 25 70 12 0 -5 -9 -86 -21 -182 -21 -167 -22 -175 -5 -206 11 -19 33 -40 54 -49 43 -19 140 -38 153 -31 4 3 17 0 27 -6 12 -7 30 -9 48 -4 16 4 47 8 69 10 119 8 309 56 475 120 19 8 52 20 73 27 56 18 61 34 53 170 -8 144 -40 263 -71 263 -17 0 -21 -10 -27 -70 -4 -38 -6 -109 -3 -157 l4 -87 -52 -29 c-29 -16 -67 -32 -85 -35 -18 -4 -65 -21 -104 -38 -138 -60 -399 -84 -471 -42 -42 25 -55 48 -39 73 6 11 12 48 12 83 0 34 7 87 15 117 9 30 20 73 26 95 15 59 24 62 65 22 43 -42 74 -52 118 -37 67 22 90 96 106 340 31 472 31 474 18 550 -13 73 -14 75 -43 78 -21 2 -58 -11 -117 -42 -98 -51 -89 -56 -108 52 -22 123 -64 226 -90 221 -3 -1 -18 -4 -34 -8z m305 -432 c0 -250 -27 -633 -47 -671 -19 -38 -64 -38 -93 -2 l-20 26 25 40 c34 53 26 69 -28 66 -34 -2 -42 0 -39 12 30 118 32 150 29 358 -1 52 3 87 10 94 7 7 12 29 12 49 0 34 4 39 43 58 23 12 53 30 67 41 14 10 29 15 33 11 5 -5 8 -42 8 -82z m-281 -112 c0 -42 -1 -43 -50 -60 -27 -10 -50 -22 -50 -27 0 -6 16 -41 35 -79 45 -88 49 -159 10 -189 -14 -11 -25 -25 -25 -30 0 -16 -119 -162 -132 -162 -6 0 -17 -8 -25 -17 -12 -16 -13 12 -11 202 3 148 8 227 16 242 6 12 32 32 57 44 25 12 45 26 45 30 0 7 117 89 126 89 2 0 4 -19 4 -43z m-49 -506 c-12 -22 -41 -29 -41 -9 0 6 8 20 17 30 21 24 39 8 24 -21z" />
</ns0:g>
</g><g transform="translate(-2.3749120816561344,24.446328359913593) scale(0.04431596216039817)"><ns0:metadata>
Created by potrace 1.16, written by Peter Selinger 2001-2019
</ns0:metadata>
<ns0:g transform="translate(0.000000,206.000000) scale(0.100000,-0.100000)" fill="#000000" stroke="none">
<ns0:path d="M1370 1926 c-30 -19 -113 -66 -185 -106 -71 -39 -139 -80 -150 -90 -11 -10 -36 -27 -56 -37 -59 -31 -166 -105 -176 -123 -20 -30 -24 -75 -10 -94 8 -10 31 -22 53 -25 31 -6 38 -11 36 -26 -2 -11 -6 -49 -10 -86 -6 -51 -21 -92 -69 -190 -34 -68 -76 -161 -93 -206 -17 -45 -39 -92 -49 -105 -10 -13 -22 -34 -26 -47 -4 -14 -16 -39 -26 -55 -27 -47 -89 -177 -89 -187 0 -14 -47 -105 -63 -120 -7 -8 -48 -84 -90 -169 -43 -85 -86 -167 -95 -182 -13 -22 -14 -30 -4 -40 17 -17 66 31 99 97 14 28 32 57 39 66 8 8 24 35 36 60 25 47 48 82 89 132 14 18 33 46 41 62 92 181 203 393 214 409 8 11 14 29 14 40 0 16 5 18 33 13 20 -3 40 0 52 9 27 20 35 18 35 -9 0 -43 -68 -352 -98 -442 -51 -156 -77 -201 -165 -281 -29 -26 -18 -66 23 -85 33 -16 36 -16 65 5 32 22 152 76 171 76 6 0 21 9 34 20 13 11 42 25 64 31 23 6 59 19 81 29 22 10 65 30 95 44 30 14 64 31 75 38 11 7 44 28 72 46 50 31 73 67 59 91 -9 14 -79 1 -93 -18 -7 -9 -13 -13 -13 -9 0 4 -30 -8 -67 -26 -90 -45 -126 -60 -203 -84 -36 -11 -82 -28 -104 -37 -21 -9 -40 -14 -43 -12 -2 3 9 40 26 83 36 97 67 211 76 284 4 30 12 66 17 80 5 14 14 52 19 85 6 33 16 83 24 110 8 28 17 61 19 75 4 16 24 37 58 59 65 43 118 97 118 122 0 26 -10 24 -81 -12 -33 -16 -72 -35 -86 -40 l-26 -10 6 76 c5 70 8 77 42 109 22 21 35 42 33 53 -3 16 -13 18 -71 15 -71 -3 -72 -2 -58 26 5 9 14 31 20 47 8 19 31 42 66 65 57 35 90 73 80 90 -9 15 -43 12 -70 -6 -23 -15 -25 -15 -25 -1 0 9 10 22 23 28 12 7 45 29 72 50 28 20 77 52 110 69 33 18 69 40 80 50 11 9 48 33 81 53 77 46 91 62 74 82 -21 25 -72 18 -130 -19z m-437 -799 c5 -34 3 -39 -25 -53 -16 -8 -32 -14 -34 -11 -2 2 8 27 22 56 14 29 26 52 28 50 2 -2 6 -21 9 -42z" />
<ns0:path d="M1125 783 c-32 -31 -32 -57 3 -83 15 -11 29 -19 32 -18 14 6 100 -65 100 -82 0 -11 4 -20 10 -20 5 0 18 -10 30 -22 47 -51 60 42 16 116 -14 25 -26 56 -26 70 0 31 -11 38 -82 52 -54 10 -59 9 -83 -13z" />
</ns0:g>
</g><g transform="translate(0.04034453956160178,157.51452208252476) scale(0.04431596216039817)"><ns0:metadata>
Created by potrace 1.16, written by Peter Selinger 2001-2019
</ns0:metadata>
<ns0:g transform="translate(0.000000,213.000000) scale(0.100000,-0.100000)" fill="#000000" stroke="none">
<ns0:path d="M940 1867 c-56 -30 -107 -67 -145 -106 -21 -23 -42 -41 -46 -41 -3 0 -47 -24 -96 -52 -49 -29 -102 -60 -119 -68 -35 -19 -72 -83 -73 -126 -2 -61 81 -64 133 -5 23 25 51 29 42 5 -3 -9 -9 -78 -12 -153 -3 -75 -11 -167 -19 -206 -7 -38 -19 -100 -25 -138 -6 -37 -20 -85 -31 -107 -19 -36 -19 -41 -5 -68 28 -55 50 -52 140 17 103 78 326 314 326 344 0 17 -20 37 -37 37 -7 0 -21 -8 -31 -18 -9 -9 -33 -28 -52 -41 -19 -14 -60 -50 -91 -81 -30 -31 -69 -66 -87 -79 l-32 -22 0 23 c0 47 13 67 63 98 29 18 63 40 77 50 14 9 39 24 55 33 17 9 47 32 68 50 21 19 62 47 90 62 29 15 65 34 80 42 36 19 44 10 28 -30 -7 -18 -20 -52 -29 -77 -8 -25 -24 -67 -34 -94 -11 -26 -24 -85 -28 -130 -5 -44 -16 -135 -24 -201 -9 -66 -16 -155 -16 -197 0 -64 -4 -82 -20 -98 -11 -11 -27 -20 -35 -20 -8 0 -47 -15 -87 -34 -86 -40 -178 -72 -231 -82 -45 -8 -97 -48 -97 -74 0 -26 49 -63 75 -55 11 4 38 11 60 16 21 6 53 16 70 24 16 7 57 23 90 34 33 12 69 25 80 30 40 17 76 31 80 31 2 0 6 -13 10 -30 4 -16 11 -33 16 -36 14 -8 50 26 47 45 -4 33 14 57 70 92 31 20 69 40 82 44 14 4 49 19 79 32 48 23 57 24 91 13 21 -7 46 -10 54 -7 39 15 32 73 -11 99 -38 22 -156 9 -244 -27 -87 -35 -92 -31 -84 57 19 225 55 418 91 491 8 16 14 33 14 39 0 5 22 54 48 107 53 106 69 177 46 210 -14 19 -17 19 -62 5 -62 -20 -129 -53 -168 -81 -17 -13 -34 -23 -38 -23 -15 0 -156 -73 -167 -86 -13 -16 -124 -74 -142 -74 -13 0 -2 241 14 291 8 24 53 79 135 164 68 70 125 132 126 138 3 20 -13 57 -25 57 -7 0 -23 -6 -37 -13z m-40 -1465 c0 -13 -12 -22 -22 -16 -10 6 -1 24 13 24 5 0 9 -4 9 -8z" />
</ns0:g>
</g><g transform="translate(-0.8925218274621329,284.7436076204825) scale(0.04431596216039817)"><ns0:metadata>
Created by potrace 1.16, written by Peter Selinger 2001-2019
</ns0:metadata>
<ns0:g transform="translate(0.000000,211.000000) scale(0.100000,-0.100000)" fill="#000000" stroke="none">
<ns0:path d="M875 2103 c-16 -2 -46 -17 -65 -33 l-35 -28 18 -36 c24 -52 23 -103 -4 -111 -11 -4 -35 -19 -52 -33 -18 -15 -41 -32 -52 -38 -25 -14 -32 -66 -11 -83 18 -15 15 -23 -81 -221 -74 -152 -100 -210 -134 -293 -21 -54 -22 -61 -8 -85 11 -20 23 -27 44 -27 24 0 30 5 36 30 24 100 223 518 276 578 18 20 33 41 33 46 0 5 7 12 16 15 10 4 20 -4 30 -27 8 -17 26 -50 39 -72 36 -58 32 -78 -22 -122 -86 -71 -151 -135 -156 -154 -4 -13 5 -32 24 -53 16 -19 29 -43 29 -55 0 -14 11 -25 36 -36 37 -15 37 -15 18 -36 -20 -22 -85 -59 -104 -59 -6 0 -28 12 -50 26 -48 32 -80 26 -80 -15 0 -29 17 -49 60 -71 20 -11 85 -15 162 -11 10 1 42 24 73 52 l55 52 0 62 c0 69 -5 76 -62 94 -21 7 -38 15 -38 18 0 14 52 93 60 93 13 0 45 32 53 53 10 27 23 20 56 -27 16 -25 39 -58 52 -75 21 -29 21 -31 6 -78 -8 -26 -19 -66 -22 -88 -4 -22 -14 -65 -22 -95 -37 -136 -39 -160 -15 -160 23 0 43 22 70 75 32 61 38 76 53 125 8 25 21 46 29 47 8 1 35 -23 60 -53 25 -31 77 -80 116 -110 60 -45 78 -54 113 -54 34 0 43 4 50 23 11 28 7 34 -35 52 -45 18 -122 86 -168 147 -71 94 -106 148 -106 163 0 29 23 111 46 163 13 29 24 56 24 61 0 4 12 18 26 32 14 13 34 38 45 55 12 21 42 42 83 62 95 45 109 92 28 92 -31 0 -34 2 -29 23 26 102 28 119 20 159 l-9 43 -48 3 c-47 3 -48 2 -42 -20 4 -13 10 -67 13 -120 5 -88 4 -98 -11 -98 -33 0 -129 -111 -160 -186 -51 -124 -57 -135 -69 -131 -10 3 -71 101 -137 222 -16 28 -30 64 -32 79 -3 24 3 31 46 55 62 35 154 111 159 131 2 9 0 26 -4 38 -12 32 -51 28 -108 -12 -45 -32 -124 -76 -136 -76 -10 0 -5 56 6 67 11 11 -4 55 -19 51 -4 0 -20 -3 -37 -5z" />
<ns0:path d="M755 1022 c-43 -15 -50 -21 -53 -46 -2 -16 2 -40 9 -52 9 -17 10 -57 6 -146 -9 -167 -16 -190 -74 -222 -25 -14 -52 -26 -59 -26 -8 0 -14 -4 -14 -8 0 -5 -19 -15 -42 -22 -24 -7 -61 -20 -83 -30 -22 -10 -67 -23 -100 -30 -99 -20 -133 -46 -121 -93 17 -68 129 -37 336 92 64 40 96 55 98 46 2 -7 -13 -45 -32 -85 -39 -78 -40 -122 -4 -141 20 -11 150 -1 300 22 111 17 119 18 233 24 101 5 290 31 308 42 23 14 -4 142 -49 233 -38 78 -94 124 -119 99 -12 -12 -10 -27 16 -102 16 -49 34 -97 39 -107 19 -35 -9 -41 -255 -55 -55 -4 -115 -11 -132 -16 -18 -6 -43 -9 -55 -8 -13 2 -28 1 -33 -3 -20 -12 -129 -12 -133 0 -2 7 5 40 16 74 40 125 59 235 67 401 3 60 11 110 20 128 27 52 1 61 -90 31z" />
<ns0:path d="M922 868 c-25 -12 -37 -46 -28 -76 7 -20 45 -42 72 -42 19 0 71 -36 99 -67 25 -29 44 -18 52 30 4 30 0 45 -21 77 -14 22 -32 40 -39 40 -7 0 -28 11 -47 25 -37 27 -53 29 -88 13z" />
<ns0:path d="M1535 664 c-21 -35 -25 -53 -21 -79 17 -88 250 -188 269 -115 5 20 -27 70 -44 70 -6 0 -30 13 -54 30 -36 25 -44 37 -50 72 -9 52 -20 68 -50 68 -17 0 -31 -13 -50 -46z" />
</ns0:g>
</g><g transform="translate(2.1533314892576527,399.3464297976275) scale(0.04431596216039817)"><ns0:metadata>
Created by potrace 1.16, written by Peter Selinger 2001-2019
</ns0:metadata>
<ns0:g transform="translate(0.000000,206.000000) scale(0.100000,-0.100000)" fill="#000000" stroke="none">
<ns0:path d="M1093 1998 c-28 -30 -29 -67 -3 -96 24 -26 55 -29 68 -6 5 9 18 14 28 12 46 -9 -4 -162 -69 -211 -18 -13 -48 -26 -69 -30 l-36 -5 -6 61 c-4 34 -14 87 -23 117 -9 30 -17 61 -19 68 -5 18 -53 34 -78 26 -46 -15 -58 -59 -27 -102 36 -53 74 -165 73 -220 0 -56 15 -75 43 -52 23 19 31 5 44 -77 7 -43 15 -98 20 -124 4 -25 5 -51 3 -57 -3 -10 -81 -52 -184 -100 -5 -2 -8 4 -8 14 0 9 23 41 50 70 53 56 59 68 35 78 -20 7 -157 -23 -174 -39 -15 -15 -40 -128 -41 -186 0 -42 -24 -66 -125 -128 -38 -23 -88 -56 -110 -72 -22 -16 -51 -37 -65 -47 -44 -30 -140 -129 -150 -156 -14 -37 2 -72 37 -79 44 -9 110 20 122 54 14 40 105 134 169 175 55 36 77 42 69 22 -5 -15 -32 -170 -46 -273 -15 -105 -19 -123 -33 -163 -12 -37 -62 -91 -85 -92 -6 0 -14 -8 -18 -19 -14 -46 29 -75 94 -65 55 9 111 -19 111 -55 0 -46 -88 -105 -186 -124 -23 -4 -37 -1 -52 13 -18 17 -20 27 -15 74 6 54 6 54 -21 49 -36 -7 -86 -67 -86 -102 0 -40 26 -98 50 -111 10 -6 54 -11 97 -12 76 -1 81 1 161 46 93 53 128 97 138 170 8 58 -16 100 -70 121 -76 30 -96 40 -96 48 0 4 11 25 25 45 14 20 25 42 25 49 0 7 16 42 35 79 19 36 35 78 35 94 0 25 15 110 26 149 3 9 11 5 25 -13 11 -14 26 -26 32 -26 7 0 25 -7 40 -15 15 -8 43 -17 62 -21 19 -3 35 -10 35 -14 0 -5 8 -9 18 -9 9 -1 58 -6 107 -12 50 -6 98 -11 109 -10 17 0 56 32 56 46 0 11 -70 35 -103 35 -42 0 -122 27 -138 46 -6 8 -20 14 -31 14 -10 0 -46 14 -81 31 -52 27 -66 30 -89 21 -16 -6 -28 -7 -28 -4 1 24 28 91 43 106 9 10 24 31 32 47 9 16 32 38 53 49 20 11 55 32 77 45 22 14 56 33 75 43 19 9 55 31 80 48 25 16 53 33 64 37 23 9 115 80 116 89 1 18 -53 18 -111 0 -50 -15 -66 -17 -71 -7 -14 23 -10 208 4 242 7 17 35 50 61 73 31 28 47 50 47 65 0 13 7 28 15 32 8 5 22 38 31 74 17 63 17 66 -2 104 -22 45 -53 63 -121 71 -42 5 -51 3 -70 -18z" />
<ns0:path d="M558 1767 c-14 -5 -35 -26 -45 -46 -17 -31 -18 -42 -8 -81 7 -25 17 -45 23 -44 28 2 32 5 46 32 26 48 18 -2 -9 -56 -14 -28 -25 -56 -25 -64 0 -8 -7 -23 -15 -34 -14 -19 -14 -19 -15 3 0 12 -4 23 -9 25 -11 4 -48 105 -61 162 -4 22 -16 46 -27 54 -25 18 -103 7 -124 -18 -24 -28 -10 -82 30 -116 30 -25 121 -152 121 -168 0 -4 7 -23 16 -42 13 -26 22 -34 43 -34 28 0 71 36 71 58 0 7 12 22 26 35 45 38 84 136 90 224 3 43 0 56 -20 81 -14 16 -31 29 -38 29 -7 0 -20 3 -28 6 -8 3 -27 0 -42 -6z" />
<ns0:path d="M1095 551 c-3 -5 -27 -17 -54 -26 -79 -26 -84 -77 -15 -151 67 -72 110 -163 85 -179 -16 -9 -69 35 -80 67 -8 23 -16 29 -33 26 -20 -3 -23 -9 -22 -44 1 -47 31 -97 72 -118 15 -8 37 -23 48 -34 29 -28 86 -38 102 -19 19 22 26 126 12 190 -7 36 -22 71 -39 90 -34 40 -61 83 -61 97 0 6 9 24 21 39 14 19 19 36 14 50 -6 21 -39 29 -50 12z" />
</ns0:g>
</g></svg>