<?xml version='1.0' encoding='utf-8'?>
<svg xmlns:ns0="http://www.w3.org/2000/svg" xmlns="http://www.w3.org/2000/svg" width="235" height="152" viewBox="0 0 235 152"><g transform="translate(-1.9227503104634707,-110.64780605366798) scale(0.06415263093695735)"><ns0:metadata>
Created by potrace 1.16, written by Peter Selinger 2001-2019
</ns0:metadata>
<ns0:g transform="translate(0.000000,208.000000) scale(0.100000,-0.100000)" fill="#000000" stroke="none">
<ns0:path d="M985 1344 c-18 -20 -38 -56 -45 -82 -7 -26 -21 -67 -33 -92 -57 -127 -67 -153 -65 -163 1 -7 -2 -36 -6 -65 -14 -90 32 -146 116 -142 65 4 70 -2 44 -52 -18 -34 -29 -85 -21 -97 12 -21 45 7 96 82 32 48 63 83 78 88 15 5 34 14 43 19 10 6 28 10 40 10 12 0 49 9 83 21 66 22 102 61 90 99 -10 31 -36 32 -121 5 -130 -41 -131 -41 -85 101 34 105 80 188 107 193 10 1 34 14 52 28 25 19 32 31 30 51 -3 23 -7 27 -33 25 -145 -10 -156 -15 -186 -81 -36 -80 -79 -213 -95 -291 -8 -41 -16 -76 -18 -78 -8 -9 -63 -10 -84 -2 -21 8 -23 13 -17 52 10 71 109 284 140 301 31 17 42 36 37 66 -4 30 -23 40 -81 40 -26 0 -41 -8 -66 -36z" />
</ns0:g>
</g><g transform="translate(-1.1557863655405072,71.39660299676709) scale(0.06415263093695735)"><ns0:metadata>
Created by potrace 1.16, written by Peter Selinger 2001-2019
</ns0:metadata>
<ns0:g transform="translate(0.000000,210.000000) scale(0.100000,-0.100000)" fill="#000000" stroke="none">
<ns0:path d="M1210 915 c-14 -7 -33 -16 -43 -19 -40 -13 -65 -149 -32 -176 8 -7 15 -18 15 -24 0 -7 13 -25 29 -40 28 -27 29 -27 67 -11 49 20 71 41 96 89 31 60 20 107 -34 156 -47 43 -61 46 -98 25z" />
</ns0:g>
</g><g transform="translate(-2.0835953579763213,255.1104021119628) scale(0.06415263093695735)"><ns0:metadata>
Created by potrace 1.16, written by Peter Selinger 2001-2019
</ns0:metadata>
<ns0:g transform="translate(0.000000,206.000000) scale(0.100000,-0.100000)" fill="#000000" stroke="none">
<ns0:path d="M1020 1511 c-17 -5 -26 -16 -30 -36 -3 -18 -15 -34 -28 -41 -44 -22 -55 -57 -90 -299 -21 -148 -20 -340 3 -365 8 -9 15 -26 15 -39 0 -12 6 -37 14 -56 19 -46 54 -54 109 -27 23 11 65 24 92 27 62 9 71 16 102 80 79 163 90 203 94 340 6 233 -3 325 -33 325 -6 0 -27 14 -49 31 -21 16 -55 33 -76 36 -21 3 -47 12 -58 19 -21 15 -27 16 -65 5z m115 -114 c60 -34 66 -55 66 -225 0 -142 -11 -210 -40 -246 -5 -6 -14 -29 -21 -50 -19 -58 -62 -96 -109 -96 -37 0 -39 1 -55 53 -17 53 -16 54 18 213 19 87 40 180 46 206 7 26 9 56 5 67 -3 10 -1 22 5 26 5 3 10 22 10 41 0 41 17 44 75 11z" />
</ns0:g>
</g><g transform="translate(1.985194991188564,452.1680829259029) scale(0.06415263093695735)"><ns0:metadata>
Created by potrace 1.16, written by Peter Selinger 2001-2019
</ns0:metadata>
<ns0:g transform="translate(0.000000,210.000000) scale(0.100000,-0.100000)" fill="#000000" stroke="none">
<ns0:path d="M1689 1316 c-35 -35 -43 -46 -119 -159 -38 -56 -84 -120 -103 -142 -32 -36 -37 -39 -63 -30 -32 12 -90 84 -127 159 -23 47 -56 80 -82 82 -5 0 -22 6 -37 14 -38 18 -108 5 -157 -30 -22 -17 -45 -30 -49 -30 -5 0 -34 -24 -65 -52 -52 -48 -57 -57 -57 -94 0 -34 4 -43 25 -52 14 -7 30 -12 34 -12 5 0 47 38 93 85 68 69 90 85 114 85 45 0 72 -25 110 -104 19 -39 40 -78 47 -86 21 -28 107 -69 158 -76 l48 -6 57 58 c31 33 65 79 76 103 10 24 31 62 46 85 15 23 38 64 51 91 13 28 30 58 38 67 16 18 14 59 -3 65 -6 2 -21 -7 -35 -21z" />
</ns0:g>
</g><g transform="translate(-0.34260449460452946,617.7592526066271) scale(0.06415263093695735)"><ns0:metadata>
Created by potrace 1.16, written by Peter Selinger 2001-2019
</ns0:metadata>
<ns0:g transform="translate(0.000000,208.000000) scale(0.100000,-0.100000)" fill="#000000" stroke="none">
<ns0:path d="M1117 1374 c-37 -20 -75 -103 -88 -189 -5 -38 -16 -92 -24 -120 -7 -27 -19 -77 -26 -110 -7 -33 -16 -64 -19 -70 -21 -29 -19 -53 5 -81 22 -26 31 -29 99 -32 l75 -4 -2 -66 c-2 -56 1 -67 16 -70 10 -2 20 4 24 15 8 22 86 142 107 165 8 9 32 20 53 23 91 15 133 57 133 135 0 26 -4 30 -26 30 -14 0 -39 -11 -56 -25 -44 -37 -60 -33 -52 13 4 20 13 49 20 64 8 15 14 32 14 38 0 5 13 31 29 57 20 32 39 50 62 57 28 9 34 16 35 44 1 22 -4 36 -17 42 -29 16 -129 15 -144 -1 -15 -16 -56 -132 -90 -255 -30 -108 -45 -130 -96 -144 -49 -13 -69 -8 -69 19 0 29 26 124 43 157 8 16 20 54 27 84 18 78 37 118 60 130 28 15 25 39 -9 78 -32 36 -43 38 -84 16z" />
</ns0:g>
</g><g transform="translate(0.9207077924740474,800.3660383363059) scale(0.06415263093695735)"><ns0:metadata>
Created by potrace 1.16, written by Peter Selinger 2001-2019
</ns0:metadata>
<ns0:g transform="translate(0.000000,210.000000) scale(0.100000,-0.100000)" fill="#000000" stroke="none">
<ns0:path d="M1248 963 c-59 -16 -138 -78 -138 -110 0 -9 16 -31 35 -49 l35 -33 -16 -40 c-48 -120 70 -135 147 -20 60 90 60 90 54 154 -5 56 -28 106 -51 111 -5 1 -35 -5 -66 -13z" />
</ns0:g>
</g><g transform="translate(1.563343604166846,976.0724503172319) scale(0.06415263093695735)"><ns0:metadata>
Created by potrace 1.16, written by Peter Selinger 2001-2019
</ns0:metadata>
<ns0:g transform="translate(0.000000,205.000000) scale(0.100000,-0.100000)" fill="#000000" stroke="none">
<ns0:path d="M802 1318 c-45 -67 -75 -135 -68 -153 5 -14 9 -15 21 -5 12 10 15 10 15 -3 0 -9 -4 -27 -10 -41 -5 -14 -16 -76 -25 -138 -17 -125 -33 -223 -41 -251 -5 -15 -8 -16 -20 -6 -29 24 -38 -4 -24 -78 21 -111 57 -151 107 -118 25 17 27 22 42 145 23 192 62 413 78 443 9 18 20 52 24 77 4 25 10 62 14 82 4 20 5 48 1 62 -5 22 -12 26 -46 26 -35 0 -42 -5 -68 -42z" />
</ns0:g>
</g></svg>