<?xml version='1.0' encoding='utf-8'?>
<svg xmlns:ns0="http://www.w3.org/2000/svg" xmlns="http://www.w3.org/2000/svg" width="184" height="152" viewBox="0 0 184 152"><g transform="translate(0.7714905958634404,-116.99103136178674) scale(0.06415263093695735)"><ns0:metadata>
Created by potrace 1.16, written by Peter Selinger 2001-2019
</ns0:metadata>
<ns0:g transform="translate(0.000000,208.000000) scale(0.100000,-0.100000)" fill="#000000" stroke="none">
<ns0:path d="M791 1371 c-12 -12 -21 -31 -21 -43 0 -13 -12 -50 -25 -83 -28 -68 -32 -88 -11 -59 26 35 29 5 7 -68 -23 -79 -27 -158 -11 -204 18 -51 72 -78 163 -83 l79 -3 -7 -52 c-4 -28 -16 -76 -26 -106 -23 -66 -24 -100 -4 -100 33 0 99 96 130 190 14 43 32 83 38 88 7 5 36 15 65 22 59 14 68 26 74 101 3 39 0 45 -26 58 -27 13 -31 12 -48 -9 -10 -12 -18 -28 -18 -36 0 -8 -4 -14 -10 -14 -13 0 -13 15 -1 38 5 9 15 39 22 66 7 27 26 64 42 83 33 37 30 58 -8 73 -93 35 -128 -9 -166 -210 -7 -36 -16 -67 -20 -70 -5 -3 -36 -5 -69 -4 -82 2 -104 21 -95 83 4 25 16 79 27 120 11 42 22 85 25 96 2 11 -2 47 -10 80 -13 56 -15 60 -45 63 -21 2 -37 -3 -51 -17z" />
</ns0:g>
</g><g transform="translate(-0.8736204450319178,73.30721746205273) scale(0.06415263093695735)"><ns0:metadata>
Created by potrace 1.16, written by Peter Selinger 2001-2019
</ns0:metadata>
<ns0:g transform="translate(0.000000,211.000000) scale(0.100000,-0.100000)" fill="#000000" stroke="none">
<ns0:path d="M1255 970 c-3 -5 -20 -9 -38 -8 -53 2 -72 -16 -106 -99 -34 -84 -40 -155 -16 -186 7 -11 32 -23 55 -28 37 -9 47 -6 88 19 41 25 48 35 64 89 16 55 17 66 5 102 -8 23 -11 45 -6 53 5 7 9 25 9 41 0 22 -4 27 -24 27 -14 0 -28 -4 -31 -10z" />
</ns0:g>
</g><g transform="translate(0.34497738269973865,251.40482347656695) scale(0.06415263093695735)"><ns0:metadata>
Created by potrace 1.16, written by Peter Selinger 2001-2019
</ns0:metadata>
<ns0:g transform="translate(0.000000,206.000000) scale(0.100000,-0.100000)" fill="#000000" stroke="none">
<ns0:path d="M1020 1511 c-17 -5 -26 -16 -30 -36 -3 -18 -15 -34 -28 -41 -44 -22 -55 -57 -90 -299 -21 -148 -20 -340 3 -365 8 -9 15 -26 15 -39 0 -12 6 -37 14 -56 19 -46 54 -54 109 -27 23 11 65 24 92 27 62 9 71 16 102 80 79 163 90 203 94 340 6 233 -3 325 -33 325 -6 0 -27 14 -49 31 -21 16 -55 33 -76 36 -21 3 -47 12 -58 19 -21 15 -27 16 -65 5z m115 -114 c60 -34 66 -55 66 -225 0 -142 -11 -210 -40 -246 -5 -6 -14 -29 -21 -50 -19 -58 -62 -96 -109 -96 -37 0 -39 1 -55 53 -17 53 -16 54 18 213 19 87 40 180 46 206 7 26 9 56 5 67 -3 10 -1 22 5 26 5 3 10 22 10 41 0 41 17 44 75 11z" />
</ns0:g>
</g><g transform="translate(-2.7578719830707144,428.89954647568436) scale(0.06415263093695735)"><ns0:metadata>
Created by potrace 1.16, written by Peter Selinger 2001-2019
</ns0:metadata>
<ns0:g transform="translate(0.000000,207.000000) scale(0.100000,-0.100000)" fill="#000000" stroke="none">
<ns0:path d="M1467 1412 c-10 -10 -17 -21 -17 -24 0 -10 49 -15 53 -5 2 6 11 6 25 -2 18 -10 22 -9 22 3 0 9 -13 22 -30 31 -36 19 -34 19 -53 -3z" />
<ns0:path d="M840 1261 c0 -6 -7 -11 -15 -11 -31 0 -31 -92 0 -104 9 -3 35 1 58 9 99 34 165 7 152 -63 -21 -114 -213 -390 -300 -431 -44 -21 -115 -92 -115 -115 0 -39 85 -61 111 -29 8 9 42 28 75 44 34 15 65 32 68 38 4 6 20 11 35 11 16 0 46 6 67 14 22 7 81 17 132 21 70 5 95 11 99 23 4 8 -1 20 -11 27 -22 16 -181 27 -229 16 -51 -12 -55 2 -14 52 19 23 37 52 41 64 4 12 21 33 37 47 31 26 81 125 94 184 19 90 -25 182 -96 196 -68 14 -189 19 -189 7z" />
</ns0:g>
</g><g transform="translate(1.5615091019477063,616.8944368912843) scale(0.06415263093695735)"><ns0:metadata>
Created by potrace 1.16, written by Peter Selinger 2001-2019
</ns0:metadata>
<ns0:g transform="translate(0.000000,210.000000) scale(0.100000,-0.100000)" fill="#000000" stroke="none">
<ns0:path d="M1210 915 c-14 -7 -33 -16 -43 -19 -40 -13 -65 -149 -32 -176 8 -7 15 -18 15 -24 0 -7 13 -25 29 -40 28 -27 29 -27 67 -11 49 20 71 41 96 89 31 60 20 107 -34 156 -47 43 -61 46 -98 25z" />
</ns0:g>
</g><g transform="translate(-0.9925946341315637,801.6583532363447) scale(0.06415263093695735)"><ns0:metadata>
Created by potrace 1.16, written by Peter Selinger 2001-2019
</ns0:metadata>
<ns0:g transform="translate(0.000000,206.000000) scale(0.100000,-0.100000)" fill="#000000" stroke="none">
<ns0:path d="M988 1436 c-15 -8 -48 -14 -74 -14 -25 0 -51 -5 -56 -10 -6 -6 -17 -59 -24 -119 -8 -59 -23 -135 -34 -168 -22 -70 -41 -285 -30 -341 10 -50 18 -70 48 -118 23 -38 25 -38 73 -34 40 4 61 15 121 61 115 88 187 166 238 261 20 35 21 45 12 115 -20 149 -54 229 -119 275 -24 16 -45 37 -48 45 -4 13 -66 61 -77 61 -2 0 -15 -6 -30 -14z m39 -113 c65 -64 93 -107 117 -180 14 -43 26 -89 26 -102 0 -54 -117 -195 -204 -246 -90 -52 -106 -14 -76 175 12 74 23 146 25 160 8 53 33 142 44 153 6 6 11 21 11 32 0 43 19 45 57 8z" />
</ns0:g>
</g><g transform="translate(-2.1402062140667226,980.3122296015245) scale(0.06415263093695735)"><ns0:metadata>
Created by potrace 1.16, written by Peter Selinger 2001-2019
</ns0:metadata>
<ns0:g transform="translate(0.000000,206.000000) scale(0.100000,-0.100000)" fill="#000000" stroke="none">
<ns0:path d="M832 1494 c-13 -9 -22 -26 -22 -40 0 -26 -5 -26 -57 -7 -25 10 -43 -44 -53 -157 -5 -63 -17 -158 -26 -210 -37 -223 -43 -284 -33 -329 21 -93 91 -146 174 -130 49 9 156 79 198 129 52 61 65 320 25 491 -12 52 -21 118 -20 148 2 72 -9 88 -63 97 -25 3 -45 10 -45 15 0 15 -54 10 -78 -7z m63 -98 c10 4 15 0 15 -15 0 -12 12 -79 28 -149 30 -141 34 -248 13 -350 -12 -53 -20 -67 -52 -93 -48 -38 -101 -54 -129 -39 -17 9 -20 20 -19 73 0 61 3 81 32 247 8 47 20 137 27 200 14 145 13 142 45 130 13 -5 32 -7 40 -4z" />
</ns0:g>
</g><g transform="translate(-0.3398650497601352,1165.0597793235881) scale(0.06415263093695735)"><ns0:metadata>
Created by potrace 1.16, written by Peter Selinger 2001-2019
</ns0:metadata>
<ns0:g transform="translate(0.000000,206.000000) scale(0.100000,-0.100000)" fill="#000000" stroke="none">
<ns0:path d="M988 1436 c-15 -8 -48 -14 -74 -14 -25 0 -51 -5 -56 -10 -6 -6 -17 -59 -24 -119 -8 -59 -23 -135 -34 -168 -22 -70 -41 -285 -30 -341 10 -50 18 -70 48 -118 23 -38 25 -38 73 -34 40 4 61 15 121 61 115 88 187 166 238 261 20 35 21 45 12 115 -20 149 -54 229 -119 275 -24 16 -45 37 -48 45 -4 13 -66 61 -77 61 -2 0 -15 -6 -30 -14z m39 -113 c65 -64 93 -107 117 -180 14 -43 26 -89 26 -102 0 -54 -117 -195 -204 -246 -90 -52 -106 -14 -76 175 12 74 23 146 25 160 8 53 33 142 44 153 6 6 11 21 11 32 0 43 19 45 57 8z" />
</ns0:g>
</g><g transform="translate(0.8193138947333125,1334.2159330907696) scale(0.06415263093695735)"><ns0:metadata>
Created by potrace 1.16, written by Peter Selinger 2001-2019
</ns0:metadata>
<ns0:g transform="translate(0.000000,208.000000) scale(0.100000,-0.100000)" fill="#000000" stroke="none">
<ns0:path d="M948 1211 c-21 -12 -28 -24 -28 -48 0 -46 45 -70 128 -68 34 1 65 5 69 8 8 9 87 9 96 1 7 -8 -27 -87 -61 -139 -29 -45 -84 -90 -149 -123 -54 -28 -62 -50 -28 -79 30 -26 74 -29 114 -8 16 8 47 17 70 21 35 6 41 4 41 -10 0 -30 -131 -183 -173 -202 -20 -9 -42 -23 -48 -30 -6 -7 -34 -20 -62 -30 -29 -9 -59 -23 -67 -31 -13 -13 -13 -16 5 -29 13 -10 30 -13 50 -9 17 4 48 11 70 15 93 17 243 120 281 192 8 15 25 43 38 63 19 27 24 49 25 94 0 65 -7 75 -57 86 l-33 7 40 73 c40 75 60 161 46 204 -12 38 -52 49 -200 54 -118 4 -144 2 -167 -12z" />
</ns0:g>
</g><g transform="translate(-2.153368535326223,1533.9402856850265) scale(0.06415263093695735)"><ns0:metadata>
Created by potrace 1.16, written by Peter Selinger 2001-2019
</ns0:metadata>
<ns0:g transform="translate(0.000000,206.000000) scale(0.100000,-0.100000)" fill="#000000" stroke="none">
<ns0:path d="M1261 1449 c-32 -26 -41 -81 -47 -284 -2 -88 -10 -214 -18 -280 -7 -66 -9 -130 -5 -141 4 -12 5 -31 3 -41 -3 -11 1 -25 10 -32 12 -10 20 -7 45 16 27 24 32 37 37 93 9 116 36 284 51 327 10 28 13 60 10 95 -4 29 -3 83 1 121 9 75 -3 118 -37 136 -25 14 -21 14 -50 -10z" />
</ns0:g>
</g><g transform="translate(-0.009500865894978006,1713.7313419107559) scale(0.06415263093695735)"><ns0:metadata>
Created by potrace 1.16, written by Peter Selinger 2001-2019
</ns0:metadata>
<ns0:g transform="translate(0.000000,208.000000) scale(0.100000,-0.100000)" fill="#000000" stroke="none">
<ns0:path d="M1117 1374 c-37 -20 -75 -103 -88 -189 -5 -38 -16 -92 -24 -120 -7 -27 -19 -77 -26 -110 -7 -33 -16 -64 -19 -70 -21 -29 -19 -53 5 -81 22 -26 31 -29 99 -32 l75 -4 -2 -66 c-2 -56 1 -67 16 -70 10 -2 20 4 24 15 8 22 86 142 107 165 8 9 32 20 53 23 91 15 133 57 133 135 0 26 -4 30 -26 30 -14 0 -39 -11 -56 -25 -44 -37 -60 -33 -52 13 4 20 13 49 20 64 8 15 14 32 14 38 0 5 13 31 29 57 20 32 39 50 62 57 28 9 34 16 35 44 1 22 -4 36 -17 42 -29 16 -129 15 -144 -1 -15 -16 -56 -132 -90 -255 -30 -108 -45 -130 -96 -144 -49 -13 -69 -8 -69 19 0 29 26 124 43 157 8 16 20 54 27 84 18 78 37 118 60 130 28 15 25 39 -9 78 -32 36 -43 38 -84 16z" />
</ns0:g>
</g></svg>