<?xml version='1.0' encoding='utf-8'?>
<svg xmlns:ns0="http://www.w3.org/2000/svg" xmlns="http://www.w3.org/2000/svg" width="235" height="121" viewBox="0 0 235 121"><g transform="translate(0.2339988634614656,-74.29937208093452) scale(0.032186125601421485)"><ns0:metadata>
Created by potrace 1.16, written by Peter Selinger 2001-2019
</ns0:metadata>
<ns0:g transform="translate(0.000000,208.000000) scale(0.100000,-0.100000)" fill="#000000" stroke="none">
<ns0:path d="M1437 1960 c-12 -10 -31 -20 -42 -24 -12 -3 -37 -21 -56 -39 -56 -51 -166 -135 -207 -157 -165 -93 -261 -169 -293 -234 -28 -58 -25 -73 18 -87 34 -11 38 -10 55 12 55 70 116 124 217 189 34 22 83 57 111 77 66 51 121 85 128 79 6 -6 -36 -223 -49 -251 -5 -11 -19 -54 -32 -95 -30 -103 -61 -140 -115 -140 -10 0 -27 -9 -37 -20 -15 -16 -16 -22 -5 -35 11 -13 10 -21 -1 -43 -8 -17 -13 -65 -14 -136 l0 -108 -40 -34 c-22 -18 -71 -55 -110 -81 -38 -26 -86 -63 -105 -82 -19 -18 -53 -45 -75 -59 -22 -14 -44 -31 -50 -39 -10 -14 -52 -38 -120 -71 -22 -11 -46 -27 -54 -36 -7 -9 -22 -16 -32 -16 -10 0 -27 -10 -39 -22 -25 -28 -25 -18 0 32 21 41 26 70 11 70 -11 0 -41 -29 -123 -119 -42 -45 -69 -68 -72 -60 -2 8 -10 41 -17 74 -7 33 -23 83 -35 110 -26 59 -40 140 -24 150 7 4 7 12 0 26 -13 24 -87 27 -96 4 -4 -9 -11 -15 -18 -14 -39 7 -61 -36 -30 -62 14 -11 46 -74 89 -174 22 -51 43 -167 34 -191 -3 -11 -12 -37 -19 -59 -7 -22 -15 -45 -17 -52 -7 -19 35 -53 67 -53 23 0 33 7 46 33 9 17 32 51 50 74 19 23 34 47 34 54 0 8 6 7 18 -4 30 -27 75 -21 121 16 103 82 175 134 215 157 53 30 186 129 186 138 1 4 24 23 51 42 28 19 69 50 91 68 22 17 44 32 49 32 6 0 8 -49 5 -117 -2 -65 -5 -132 -5 -150 -1 -21 -10 -41 -28 -58 -27 -25 -27 -26 -9 -40 17 -13 18 -23 11 -122 -4 -59 -9 -137 -10 -173 -2 -36 -8 -78 -15 -94 -11 -29 -11 -29 -26 -8 -18 26 -46 18 -42 -12 3 -19 10 -21 81 -24 76 -3 77 -2 88 25 5 15 17 101 24 192 8 91 20 170 25 175 7 7 21 6 44 -2 19 -7 77 -16 128 -21 87 -7 103 -12 212 -66 104 -51 128 -59 192 -63 78 -5 104 5 104 38 0 19 -29 36 -77 45 -18 4 -43 15 -57 26 -14 11 -41 26 -62 35 -20 8 -53 26 -73 38 -40 26 -186 66 -238 66 -19 0 -63 7 -99 16 l-65 17 6 81 c3 44 7 126 9 181 3 55 8 108 11 118 7 16 102 95 157 130 15 9 41 29 57 45 17 15 49 41 71 57 23 17 53 40 66 52 14 13 33 27 44 33 11 6 20 19 20 30 0 26 -44 38 -68 18 -9 -7 -33 -21 -53 -30 -20 -9 -73 -45 -119 -80 -123 -94 -143 -108 -157 -108 -21 0 -22 103 -1 128 13 15 32 47 44 72 4 8 16 21 26 28 11 8 17 21 13 31 -3 10 3 29 13 42 11 13 17 30 14 38 -3 8 2 19 11 26 18 13 87 218 87 257 0 15 14 69 30 120 32 98 38 159 18 175 -19 15 -47 12 -71 -7z m-691 -1351 c8 -14 -14 -29 -33 -22 -10 4 -11 9 -2 19 14 17 25 18 35 3z" />
<ns0:path d="M1110 1521 c-28 -14 -38 -29 -52 -72 -10 -30 -24 -67 -31 -84 -8 -16 -22 -55 -32 -85 -27 -85 -122 -275 -161 -321 -19 -23 -39 -50 -44 -60 -5 -9 -23 -31 -40 -47 -53 -53 -34 -91 28 -58 58 31 175 190 249 338 26 51 54 105 64 119 27 39 79 176 79 209 0 16 5 32 10 35 6 3 10 15 10 26 0 25 -34 25 -80 0z" />
<ns0:path d="M633 1470 c-29 -12 -30 -51 -3 -88 27 -38 44 -174 35 -299 -8 -128 4 -134 59 -32 38 69 38 71 37 177 -1 124 -8 167 -27 183 -8 6 -14 19 -14 28 0 37 -39 50 -87 31z" />
<ns0:path d="M178 1146 c-32 -24 -21 -58 35 -114 l53 -52 22 20 c12 12 22 24 22 29 0 22 -35 108 -48 119 -20 16 -62 15 -84 -2z" />
<ns0:path d="M1013 700 c-26 -16 -49 -35 -131 -113 -18 -17 -54 -65 -79 -107 -26 -41 -61 -93 -77 -115 -17 -21 -35 -46 -41 -55 -36 -60 -105 -159 -114 -165 -18 -11 -13 -53 8 -60 29 -9 42 1 109 84 35 43 79 93 98 110 19 18 34 39 34 47 0 8 11 24 25 36 22 19 45 54 111 170 7 11 27 36 46 56 40 44 78 97 78 110 0 18 -39 20 -67 2z" />
</ns0:g>
</g><g transform="translate(-1.934970322964773,14.182100863546879) scale(0.032186125601421485)"><ns0:metadata>
Created by potrace 1.16, written by Peter Selinger 2001-2019
</ns0:metadata>
<ns0:g transform="translate(0.000000,210.000000) scale(0.100000,-0.100000)" fill="#000000" stroke="none">
<ns0:path d="M1683 2039 c-56 -16 -67 -52 -67 -219 0 -80 4 -197 9 -260 10 -111 9 -479 0 -530 -8 -42 -14 -161 -25 -480 -6 -168 -14 -332 -18 -365 -4 -33 -5 -87 -2 -120 l5 -60 44 -3 c24 -2 48 1 54 7 5 5 11 74 13 153 9 453 18 728 32 918 10 130 9 354 -3 641 -7 177 -6 201 10 246 27 76 16 92 -52 72z" />
<ns0:path d="M918 1674 c-26 -13 -28 -20 -29 -77 -3 -157 -18 -458 -24 -467 -2 -3 -6 -40 -9 -81 -6 -86 -13 -109 -31 -109 -8 0 -42 -32 -77 -71 -35 -39 -72 -79 -83 -88 -37 -31 -80 -79 -144 -159 -74 -93 -158 -179 -167 -170 -3 4 -1 22 5 40 10 31 46 246 58 348 3 25 8 49 13 53 4 5 6 25 3 45 -6 61 17 112 73 165 28 26 56 47 62 47 11 0 42 38 42 52 0 4 -9 12 -20 18 -16 9 -33 3 -94 -30 l-75 -41 -6 33 c-4 19 -4 67 -1 107 4 68 7 76 41 111 21 21 34 43 31 49 -16 25 -158 -3 -180 -35 -14 -20 -12 -94 9 -265 7 -54 6 -57 -23 -77 -16 -12 -35 -22 -41 -22 -22 0 -103 -64 -112 -88 -14 -37 2 -68 44 -81 45 -15 80 -1 109 43 13 20 26 36 31 36 13 0 8 -71 -17 -235 -29 -189 -39 -231 -102 -465 -4 -14 -20 -44 -35 -68 -37 -55 -37 -78 1 -97 16 -8 33 -15 38 -15 17 0 84 75 103 115 22 45 179 260 213 290 28 24 106 121 124 152 6 13 12 30 12 38 0 9 6 18 14 21 17 6 112 125 128 159 27 59 34 18 20 -122 -9 -87 11 -277 46 -433 10 -44 35 -50 58 -14 20 29 22 107 9 339 -5 91 -3 144 10 220 9 55 22 145 30 200 24 168 37 216 61 226 43 16 38 79 -6 79 -15 0 -17 10 -14 88 1 48 5 113 9 144 13 95 -32 133 -107 92z" />
<ns0:path d="M1256 1595 c-17 -13 -19 -32 -22 -182 -5 -240 -5 -248 2 -463 5 -161 3 -206 -10 -256 -23 -88 -21 -140 5 -154 90 -49 105 51 105 695 l-1 370 -30 2 c-16 2 -38 -4 -49 -12z" />
</ns0:g>
</g><g transform="translate(2.813509728868951,104.80184807996022) scale(0.032186125601421485)"><ns0:metadata>
Created by potrace 1.16, written by Peter Selinger 2001-2019
</ns0:metadata>
<ns0:g transform="translate(0.000000,228.000000) scale(0.100000,-0.100000)" fill="#000000" stroke="none">
<ns0:path d="M525 2183 c4 -54 8 -132 10 -173 1 -41 6 -85 10 -97 6 -19 2 -24 -21 -33 -16 -6 -49 -24 -74 -40 -25 -15 -61 -31 -80 -35 -77 -17 -140 -56 -140 -88 0 -27 38 -77 59 -77 9 0 41 11 69 25 29 14 56 25 62 25 5 0 24 13 43 29 18 16 76 50 128 75 51 25 118 61 147 81 30 19 56 35 58 35 2 0 34 18 70 40 36 22 72 40 80 40 8 0 14 5 14 10 0 6 8 14 18 18 54 23 93 56 90 76 -5 36 -72 22 -173 -36 -22 -13 -67 -34 -100 -47 -33 -14 -62 -27 -65 -30 -3 -4 -16 -12 -30 -19 -14 -8 -41 -22 -59 -32 -19 -11 -37 -17 -40 -15 -2 3 1 35 7 72 7 38 14 106 17 153 2 47 7 97 11 113 l6 27 -61 0 -62 0 6 -97z m-98 -408 c-23 -22 -33 -18 -12 5 10 11 20 18 23 16 2 -3 -3 -12 -11 -21z" />
<ns0:path d="M1285 1858 c-16 -6 -46 -23 -65 -38 -19 -14 -63 -40 -97 -58 -35 -17 -68 -36 -75 -42 -14 -12 -105 -70 -221 -141 -38 -22 -71 -38 -75 -34 -3 3 2 36 11 74 10 37 15 75 11 84 -9 24 -40 30 -71 15 -28 -14 -58 -82 -82 -191 -12 -55 -15 -58 -64 -83 -29 -14 -59 -35 -67 -45 -16 -20 -114 -62 -123 -52 -15 15 10 72 49 113 40 41 54 76 38 93 -3 3 -29 -7 -58 -22 -28 -16 -68 -34 -89 -41 -20 -6 -42 -20 -47 -30 -6 -10 -10 -63 -10 -117 0 -74 -5 -108 -19 -139 -12 -27 -16 -46 -10 -57 10 -17 -12 -125 -74 -367 -14 -52 -23 -97 -21 -99 2 -2 14 -1 27 3 49 12 108 137 147 312 18 80 27 102 44 110 15 7 21 18 21 44 1 53 18 75 87 109 35 17 71 36 80 43 9 7 20 9 23 6 7 -6 -13 -80 -45 -173 -17 -48 -72 -311 -84 -405 -4 -25 -19 -97 -35 -161 -16 -63 -34 -169 -41 -235 -22 -234 -28 -285 -32 -290 -3 -2 -72 -6 -154 -8 -82 -3 -152 -5 -156 -5 -5 -1 -8 -8 -8 -16 0 -13 122 -15 1040 -15 1033 0 1040 0 1040 20 0 20 -7 20 -577 21 -553 0 -773 -1 -985 -4 -54 -1 -101 2 -107 8 -6 6 -4 37 4 85 7 41 18 115 25 165 12 96 25 168 40 225 9 33 37 177 75 380 9 47 32 137 51 200 86 278 103 308 202 360 37 19 104 63 150 98 45 34 86 62 91 62 5 0 11 7 15 15 3 8 15 15 26 15 11 0 20 5 20 11 0 5 4 8 10 4 6 -3 6 -14 0 -28 -24 -60 -101 -315 -115 -379 -9 -40 -21 -95 -27 -123 -6 -27 -10 -87 -9 -132 1 -46 -2 -83 -6 -83 -13 0 -126 100 -144 127 -9 13 -33 40 -54 60 -52 49 -65 32 -32 -41 35 -76 66 -115 179 -228 70 -70 105 -98 122 -98 14 0 28 5 32 11 4 7 8 93 9 193 3 204 13 263 76 461 46 144 80 224 115 271 13 17 24 35 24 41 0 6 16 25 36 44 81 77 58 132 -41 97z" />
</ns0:g>
</g><g transform="translate(1.9840960228032145,203.18217517882988) scale(0.032186125601421485)"><ns0:metadata>
Created by potrace 1.16, written by Peter Selinger 2001-2019
</ns0:metadata>
<ns0:g transform="translate(0.000000,209.000000) scale(0.100000,-0.100000)" fill="#000000" stroke="none">
<ns0:path d="M1385 1823 c-36 -8 -80 -27 -90 -39 -10 -12 -81 -52 -185 -105 -177 -88 -327 -159 -339 -159 -10 0 -11 7 -5 28 8 28 11 89 3 96 -2 2 -18 7 -36 11 -27 5 -37 2 -57 -18 -27 -27 -39 -64 -56 -177 -7 -41 -19 -99 -27 -129 -8 -30 -19 -78 -23 -105 -31 -184 -45 -245 -80 -356 -21 -69 -42 -141 -45 -160 -10 -55 -76 -283 -86 -300 -11 -18 -11 -18 -44 -107 -15 -40 -30 -73 -35 -73 -14 0 -21 -32 -9 -46 16 -20 59 -17 76 4 7 9 24 37 36 62 13 25 29 55 35 68 25 48 31 62 55 133 37 113 57 184 57 203 0 9 15 65 34 124 42 133 60 206 106 435 6 31 15 57 19 57 5 0 17 22 29 49 14 35 33 57 65 80 25 17 51 31 58 31 7 0 20 6 28 14 9 7 97 55 196 106 99 51 198 106 219 121 22 16 44 29 49 29 11 0 5 -34 -18 -110 -9 -30 -20 -91 -25 -135 -5 -44 -14 -98 -22 -120 -11 -34 -17 -40 -38 -37 -14 2 -36 3 -50 3 -14 -1 -42 -1 -63 -1 -41 1 -97 -24 -97 -42 0 -6 -13 -39 -30 -74 -16 -34 -32 -75 -36 -91 -4 -15 -12 -34 -18 -42 -6 -8 -31 -53 -56 -100 -25 -47 -53 -87 -62 -89 -8 -2 -29 9 -46 23 -37 31 -59 31 -96 1 -20 -17 -26 -29 -22 -44 6 -19 76 -72 95 -72 18 0 21 -18 7 -45 -8 -16 -18 -31 -23 -34 -5 -3 -23 -25 -41 -48 -37 -47 -113 -126 -155 -161 -31 -25 -28 -42 8 -42 46 0 215 134 296 235 42 52 46 55 79 49 19 -4 40 -11 46 -16 13 -10 58 4 69 22 10 15 -8 33 -55 56 -22 10 -40 24 -40 30 0 11 58 131 80 164 13 20 70 145 70 153 0 4 14 26 31 50 30 42 102 87 117 72 4 -4 5 -28 3 -53 -13 -148 -2 -460 20 -534 5 -18 9 -57 9 -87 0 -49 22 -154 52 -251 12 -40 77 -129 120 -165 37 -31 95 -33 131 -5 15 12 34 46 49 88 19 56 23 87 23 193 0 78 -4 131 -11 140 -6 8 -14 31 -18 51 -6 35 -39 68 -53 54 -3 -3 -5 -70 -4 -148 2 -158 -10 -254 -35 -277 -14 -15 -19 -12 -55 29 -22 25 -47 61 -55 80 -29 65 -68 294 -101 582 -11 93 18 322 57 453 5 17 16 59 25 95 9 36 26 90 37 120 30 80 48 182 36 198 -10 12 -43 14 -83 5z m-373 -775 c-16 -16 -35 3 -26 26 6 16 8 16 22 2 13 -12 13 -18 4 -28z" />
</ns0:g>
</g><g transform="translate(0.27335062542323385,303.27152721298796) scale(0.032186125601421485)"><ns0:metadata>
Created by potrace 1.16, written by Peter Selinger 2001-2019
</ns0:metadata>
<ns0:g transform="translate(0.000000,203.000000) scale(0.100000,-0.100000)" fill="#000000" stroke="none">
<ns0:path d="M632 1634 c-29 -20 -29 -64 1 -92 13 -12 30 -22 39 -22 36 0 127 -51 160 -89 41 -49 54 -51 63 -12 13 58 -62 156 -158 206 -56 29 -74 31 -105 9z" />
<ns0:path d="M905 1195 c-5 -1 -30 -8 -55 -15 -223 -61 -290 -96 -290 -152 0 -30 28 -49 60 -42 15 3 133 51 193 78 18 8 47 17 65 21 42 9 42 -6 -3 -69 -19 -27 -35 -54 -35 -60 0 -5 -8 -19 -19 -30 -10 -12 -29 -41 -42 -66 -13 -25 -49 -76 -79 -113 -30 -38 -66 -85 -80 -105 -53 -78 -74 -101 -102 -113 -29 -12 -68 -57 -68 -79 0 -13 40 -49 54 -50 5 0 28 9 51 20 63 30 134 40 294 40 146 0 241 -11 446 -49 95 -18 117 -19 160 -8 38 9 50 16 50 31 0 16 -14 22 -85 37 -86 18 -252 63 -268 73 -17 10 -225 27 -346 28 l-124 1 28 41 c16 22 40 52 55 66 22 21 110 144 150 212 110 184 134 285 73 302 -24 6 -65 7 -83 1z" />
</ns0:g>
</g><g transform="translate(0.03304230523770002,381.96631383291697) scale(0.032186125601421485)"><ns0:metadata>
Created by potrace 1.16, written by Peter Selinger 2001-2019
</ns0:metadata>
<ns0:g transform="translate(0.000000,209.000000) scale(0.100000,-0.100000)" fill="#000000" stroke="none">
<ns0:path d="M1245 2056 c-27 -18 -56 -40 -64 -49 -7 -10 -19 -17 -25 -18 -6 0 -31 -16 -56 -35 -25 -18 -72 -53 -105 -76 -33 -23 -64 -49 -69 -57 -6 -9 -25 -29 -43 -45 -40 -36 -44 -77 -11 -100 26 -18 64 -21 73 -6 4 6 24 22 46 36 22 14 39 32 39 43 0 18 105 123 150 149 31 19 37 6 12 -26 -30 -39 -119 -219 -131 -267 -5 -22 -18 -65 -29 -95 -19 -52 -32 -95 -68 -227 -9 -32 -25 -80 -35 -107 -10 -27 -19 -55 -19 -62 0 -8 -19 -69 -41 -136 -23 -68 -42 -132 -44 -143 -1 -11 -19 -72 -39 -135 -21 -63 -47 -146 -58 -185 -12 -38 -29 -83 -39 -100 -10 -16 -29 -66 -44 -110 -31 -98 -50 -150 -81 -235 -13 -36 -24 -66 -24 -67 0 -2 24 -3 53 -3 l53 0 18 52 c10 29 24 67 31 83 7 17 22 62 34 100 12 39 40 112 62 163 21 50 53 143 69 205 17 61 37 132 45 157 27 84 82 265 94 307 6 23 16 45 21 48 15 9 103 -183 96 -209 -3 -12 -19 -30 -36 -41 -41 -27 -61 -93 -34 -112 10 -7 24 -13 31 -13 20 0 16 -23 -12 -64 -14 -20 -25 -41 -25 -46 0 -5 -10 -19 -22 -30 -13 -12 -30 -34 -38 -50 -8 -16 -36 -56 -62 -89 -27 -34 -48 -64 -48 -67 0 -3 -11 -20 -24 -37 -31 -41 -96 -170 -96 -190 0 -31 29 -25 64 14 20 21 36 43 36 48 0 5 7 16 14 24 26 26 146 190 146 200 0 5 20 31 44 58 24 26 58 79 77 116 37 75 49 88 65 70 26 -29 112 -256 119 -312 10 -91 23 -125 53 -136 22 -9 30 -7 44 11 10 12 18 30 18 39 0 9 5 22 10 27 6 6 11 60 11 120 1 68 6 118 14 134 7 14 20 70 30 125 31 186 34 198 54 219 26 28 40 84 47 186 3 47 9 105 14 130 5 25 12 68 15 95 7 53 23 113 56 210 32 90 41 146 28 162 -22 26 -58 15 -87 -26 -15 -21 -43 -49 -62 -62 -19 -13 -66 -51 -105 -84 -117 -99 -109 -95 -102 -59 3 16 26 64 51 105 25 41 56 97 70 124 14 28 31 58 38 67 9 13 9 22 0 43 -12 25 -17 27 -53 22 -52 -7 -55 -11 -139 -192 -23 -49 -51 -108 -61 -131 -10 -22 -19 -44 -19 -48 0 -14 -84 -181 -109 -216 -14 -19 -26 -36 -26 -37 0 -1 -11 0 -23 4 -34 9 -33 18 32 219 20 62 36 119 36 127 0 8 11 34 24 58 13 24 34 73 46 109 12 36 33 89 46 118 13 29 24 61 24 72 0 10 5 22 11 26 17 10 49 86 49 117 0 23 -4 27 -27 26 -16 0 -50 -15 -78 -33z m295 -596 c0 -5 -7 -53 -15 -107 -8 -54 -16 -116 -17 -138 -3 -37 -5 -40 -38 -45 -28 -4 -38 -12 -52 -42 -10 -21 -30 -44 -45 -52 -16 -8 -37 -24 -48 -36 -28 -32 -95 -80 -112 -80 -9 0 -13 13 -13 39 0 22 -6 44 -15 51 -19 16 -9 33 15 25 33 -10 101 15 139 52 20 19 54 48 76 64 23 16 49 43 59 59 32 55 -2 66 -78 25 -26 -14 -53 -25 -60 -25 -7 0 -25 -11 -39 -24 -14 -13 -43 -30 -64 -36 -21 -7 -48 -19 -60 -26 -21 -13 -23 -13 -23 6 0 13 9 22 28 26 15 4 43 21 62 39 19 17 85 69 145 115 61 45 116 91 124 101 14 20 31 25 31 9z m-146 -542 c-3 -29 -10 -71 -15 -93 -5 -22 -9 -69 -9 -105 0 -72 -13 -109 -26 -75 -4 11 -20 38 -36 59 -15 22 -33 56 -38 78 -6 21 -15 38 -20 38 -22 0 -7 27 33 63 64 57 101 86 110 87 4 0 5 -24 1 -52z" />
<ns0:path d="M520 1504 c-9 -3 -26 -24 -38 -47 -18 -35 -21 -49 -13 -70 6 -15 9 -60 7 -101 -3 -56 0 -78 10 -87 10 -8 17 -9 28 0 20 17 116 189 116 208 0 19 -48 93 -61 93 -4 0 -13 2 -21 4 -7 2 -20 2 -28 0z" />
<ns0:path d="M532 980 c-18 -4 -42 -16 -54 -26 -20 -18 -20 -25 -14 -199 6 -177 6 -181 -19 -233 -32 -70 -32 -88 5 -107 37 -19 77 -11 86 18 21 67 137 300 165 332 25 29 50 93 38 100 -12 8 -73 -41 -119 -94 -19 -22 -37 -41 -40 -41 -10 0 1 143 13 180 6 19 10 42 8 50 -3 14 -20 31 -31 29 -3 -1 -20 -5 -38 -9z" />
<ns0:path d="M1565 664 c-46 -42 -32 -85 39 -122 80 -41 206 -34 206 13 0 7 -26 22 -58 34 -55 21 -112 62 -112 80 0 21 -51 17 -75 -5z" />
</ns0:g>
</g><g transform="translate(-2.814116583607415,477.4556961314603) scale(0.032186125601421485)"><ns0:metadata>
Created by potrace 1.16, written by Peter Selinger 2001-2019
</ns0:metadata>
<ns0:g transform="translate(0.000000,204.000000) scale(0.100000,-0.100000)" fill="#000000" stroke="none">
<ns0:path d="M936 1781 c-34 -7 -47 -35 -34 -71 12 -31 23 -86 44 -209 15 -90 15 -95 -2 -108 -10 -7 -23 -13 -30 -13 -7 0 -24 -10 -38 -23 -13 -12 -44 -33 -68 -45 -23 -13 -59 -32 -78 -44 -19 -11 -41 -21 -50 -23 -86 -17 -95 -31 -86 -129 4 -39 9 -98 12 -131 3 -33 7 -145 9 -250 4 -210 16 -280 50 -280 14 0 21 8 23 25 5 34 28 58 66 66 17 4 47 15 66 25 36 19 70 25 70 12 0 -5 -9 -86 -21 -182 -21 -167 -22 -175 -5 -206 11 -19 33 -40 54 -49 43 -19 140 -38 153 -31 4 3 17 0 27 -6 12 -7 30 -9 48 -4 16 4 47 8 69 10 119 8 309 56 475 120 19 8 52 20 73 27 56 18 61 34 53 170 -8 144 -40 263 -71 263 -17 0 -21 -10 -27 -70 -4 -38 -6 -109 -3 -157 l4 -87 -52 -29 c-29 -16 -67 -32 -85 -35 -18 -4 -65 -21 -104 -38 -138 -60 -399 -84 -471 -42 -42 25 -55 48 -39 73 6 11 12 48 12 83 0 34 7 87 15 117 9 30 20 73 26 95 15 59 24 62 65 22 43 -42 74 -52 118 -37 67 22 90 96 106 340 31 472 31 474 18 550 -13 73 -14 75 -43 78 -21 2 -58 -11 -117 -42 -98 -51 -89 -56 -108 52 -22 123 -64 226 -90 221 -3 -1 -18 -4 -34 -8z m305 -432 c0 -250 -27 -633 -47 -671 -19 -38 -64 -38 -93 -2 l-20 26 25 40 c34 53 26 69 -28 66 -34 -2 -42 0 -39 12 30 118 32 150 29 358 -1 52 3 87 10 94 7 7 12 29 12 49 0 34 4 39 43 58 23 12 53 30 67 41 14 10 29 15 33 11 5 -5 8 -42 8 -82z m-281 -112 c0 -42 -1 -43 -50 -60 -27 -10 -50 -22 -50 -27 0 -6 16 -41 35 -79 45 -88 49 -159 10 -189 -14 -11 -25 -25 -25 -30 0 -16 -119 -162 -132 -162 -6 0 -17 -8 -25 -17 -12 -16 -13 12 -11 202 3 148 8 227 16 242 6 12 32 32 57 44 25 12 45 26 45 30 0 7 117 89 126 89 2 0 4 -19 4 -43z m-49 -506 c-12 -22 -41 -29 -41 -9 0 6 8 20 17 30 21 24 39 8 24 -21z" />
</ns0:g>
</g><g transform="translate(-0.3684167166800876,576.5537447345423) scale(0.032186125601421485)"><ns0:metadata>
Created by potrace 1.16, written by Peter Selinger 2001-2019
</ns0:metadata>
<ns0:g transform="translate(0.000000,208.000000) scale(0.100000,-0.100000)" fill="#000000" stroke="none">
<ns0:path d="M1330 1599 c-58 -10 -134 -23 -170 -29 -36 -6 -83 -17 -105 -25 -36 -12 -40 -17 -38 -47 2 -49 35 -71 92 -63 25 4 61 13 81 19 92 33 150 46 150 32 0 -13 -104 -207 -116 -217 -9 -7 -29 -38 -45 -68 -16 -31 -43 -78 -59 -106 -16 -27 -37 -65 -46 -82 -9 -18 -20 -33 -24 -33 -4 0 -13 -14 -20 -30 -18 -43 -59 -61 -180 -77 -58 -7 -136 -18 -175 -23 -128 -17 -165 -35 -165 -79 0 -37 57 -76 91 -62 31 13 166 46 249 61 36 7 91 19 123 28 l58 15 32 -31 c51 -50 84 -126 97 -228 17 -125 17 -125 -121 -154 -91 -19 -117 -21 -142 -12 -34 13 -47 8 -47 -16 0 -11 16 -25 43 -36 35 -16 64 -18 174 -17 158 2 183 9 183 50 0 17 6 34 14 38 11 6 12 26 5 103 -9 110 -26 181 -63 264 -14 32 -26 64 -26 71 0 15 22 25 53 25 12 0 45 12 72 26 55 27 127 53 222 79 69 19 96 40 72 56 -22 15 -146 0 -214 -26 -65 -24 -202 -52 -211 -43 -7 8 26 72 60 117 14 19 26 39 26 43 0 5 16 31 35 58 20 28 48 76 62 108 15 31 44 79 65 105 38 49 54 88 65 165 10 69 5 70 -157 41z m-520 -769 c0 -5 -12 -12 -27 -16 -16 -3 -34 -7 -40 -10 -7 -2 -13 1 -13 6 0 5 15 14 33 19 43 12 47 13 47 1z" />
</ns0:g>
</g><g transform="translate(2.9063007044978235,666.5711916092993) scale(0.032186125601421485)"><ns0:metadata>
Created by potrace 1.16, written by Peter Selinger 2001-2019
</ns0:metadata>
<ns0:g transform="translate(0.000000,207.000000) scale(0.100000,-0.100000)" fill="#000000" stroke="none">
<ns0:path d="M953 1943 c-7 -2 -13 -9 -13 -15 0 -5 -15 -44 -34 -87 -18 -42 -41 -108 -51 -147 -13 -54 -22 -73 -43 -86 -223 -142 -321 -216 -337 -255 -22 -52 -19 -69 18 -97 40 -31 71 -26 87 14 15 36 107 133 119 126 5 -4 -4 -33 -20 -66 -16 -33 -29 -63 -29 -67 0 -7 -110 -228 -174 -348 -48 -91 -163 -269 -195 -302 -11 -12 -21 -25 -21 -28 0 -4 -14 -26 -30 -49 -33 -46 -32 -72 4 -85 17 -7 29 0 59 29 20 21 37 42 37 48 0 6 8 17 18 24 22 16 72 90 72 106 0 7 16 29 35 51 19 21 35 43 35 48 0 6 39 48 87 93 105 100 106 100 88 -91 -7 -74 -12 -188 -11 -254 1 -135 10 -148 59 -97 27 28 28 35 37 178 6 82 14 185 19 229 15 119 13 220 -2 234 -18 14 -73 -2 -104 -31 -12 -12 -23 -18 -23 -15 0 4 20 46 44 94 24 49 55 115 69 148 30 71 74 152 96 178 9 10 25 37 36 59 11 22 24 40 28 39 5 -1 21 15 36 36 15 21 45 50 67 64 93 61 131 85 157 98 15 7 27 17 27 22 0 5 20 18 44 30 24 11 67 43 96 70 44 42 49 51 40 69 -13 24 -15 24 -60 1 -19 -11 -59 -31 -89 -45 -29 -14 -74 -41 -100 -59 -63 -46 -129 -82 -137 -74 -6 6 19 94 37 129 28 55 -21 105 -78 81z" />
<ns0:path d="M1417 1738 c-167 -178 -203 -214 -217 -220 -22 -9 -170 -138 -170 -148 0 -5 -26 -29 -57 -53 -39 -30 -68 -63 -87 -100 -28 -52 -29 -57 -13 -80 27 -42 54 -41 86 3 39 55 256 280 269 280 6 0 21 13 34 29 13 16 33 34 46 40 26 14 26 15 11 -84 -6 -38 -12 -171 -13 -294 l-1 -224 -86 -46 c-48 -25 -94 -52 -103 -60 -34 -29 -28 1 12 58 23 32 46 69 51 83 5 13 19 46 32 72 l23 49 -28 23 c-37 33 -87 30 -160 -9 -50 -27 -65 -41 -93 -92 -37 -68 -37 -89 4 -167 l25 -47 -20 -28 c-11 -15 -45 -51 -77 -80 -47 -43 -55 -56 -50 -75 19 -63 75 -64 143 -3 27 25 54 45 59 45 5 0 20 -12 34 -26 56 -62 196 -165 244 -180 27 -10 61 -25 74 -35 29 -23 64 -24 82 -2 21 24 15 130 -16 289 -15 75 -30 167 -35 203 -5 36 -14 89 -20 116 -19 84 6 451 37 550 17 54 33 86 78 155 19 29 29 59 29 85 1 37 -1 40 -29 43 -26 2 -39 -7 -98 -70z m-267 -762 c0 -7 -14 -30 -30 -51 -17 -21 -33 -49 -36 -62 -7 -27 -43 -52 -45 -31 -5 64 15 111 63 145 32 23 48 22 48 -1z m183 -244 c3 -43 11 -91 17 -106 5 -15 13 -54 16 -87 4 -47 2 -59 -9 -59 -24 0 -120 48 -163 83 -23 17 -56 40 -75 50 l-33 18 44 41 c54 50 171 136 186 137 7 1 13 -30 17 -77z" />
</ns0:g>
</g><g transform="translate(-2.9229844051035343,749.7237424031335) scale(0.032186125601421485)"><ns0:metadata>
Created by potrace 1.16, written by Peter Selinger 2001-2019
</ns0:metadata>
<ns0:g transform="translate(0.000000,209.000000) scale(0.100000,-0.100000)" fill="#000000" stroke="none">
<ns0:path d="M1491 1903 c-31 -32 -71 -75 -88 -95 -18 -21 -61 -57 -97 -82 -122 -84 -206 -156 -206 -177 0 -12 -8 -23 -19 -26 -30 -8 -51 -64 -67 -176 -18 -130 -21 -140 -42 -131 -40 17 -94 16 -142 -5 -27 -12 -51 -21 -54 -21 -13 0 -4 20 29 68 154 225 165 418 25 452 -117 28 -218 -43 -153 -108 18 -18 16 -39 -6 -76 -19 -31 -29 -101 -36 -251 -4 -98 -13 -163 -26 -186 -6 -12 -5 -20 2 -25 8 -5 10 -53 7 -165 -6 -168 -17 -209 -57 -209 -24 0 -42 -22 -32 -39 5 -7 24 -16 42 -20 l34 -7 1 -94 c6 -356 7 -371 25 -381 10 -5 26 -9 37 -9 43 0 46 18 43 280 -1 196 1 256 12 283 17 40 78 128 122 177 18 19 49 60 69 90 l37 55 -6 -40 c-4 -22 -14 -77 -22 -122 -23 -124 -9 -143 52 -65 35 45 37 46 32 17 -3 -16 -9 -68 -12 -115 -4 -47 -13 -110 -20 -140 -21 -89 -72 -225 -100 -266 -30 -44 -32 -77 -5 -104 24 -24 31 -24 92 -5 70 21 138 78 258 213 30 34 63 62 72 62 9 0 40 -23 70 -51 29 -28 88 -77 130 -110 42 -32 80 -64 83 -69 7 -11 111 -80 121 -80 3 0 19 -14 36 -30 17 -17 45 -42 63 -56 l33 -25 58 22 c93 35 134 96 85 126 -16 10 -24 9 -44 -7 -33 -26 -49 -25 -85 5 -17 14 -33 25 -36 25 -11 0 -178 119 -236 167 -30 25 -71 67 -92 93 -21 26 -53 59 -73 74 -42 32 -43 44 -10 80 14 15 25 29 25 30 0 2 14 19 31 37 17 19 47 56 65 84 19 27 50 73 70 100 19 28 37 60 40 73 7 26 -11 52 -37 52 -17 0 -139 -110 -139 -125 0 -7 -60 -86 -105 -140 -14 -16 -34 -41 -44 -54 l-18 -25 -31 25 c-17 13 -31 29 -31 35 -1 18 -60 64 -82 64 -20 0 -21 4 -17 63 9 101 27 147 77 192 122 109 153 144 149 167 -4 29 -43 37 -66 13 -25 -24 -140 -105 -150 -105 -5 0 -17 -9 -27 -20 -29 -32 -38 -24 -30 27 13 88 43 189 50 171 11 -27 32 -22 109 26 39 23 90 54 114 66 41 23 42 23 57 4 17 -22 19 -112 11 -374 -1 -46 29 -52 61 -11 30 38 43 156 43 386 0 209 21 372 57 432 18 32 23 53 21 90 -3 42 -6 48 -26 51 -18 3 -38 -11 -81 -55z m-51 -211 c0 -5 -5 -35 -12 -68 -11 -56 -14 -82 -17 -132 -1 -20 -5 -22 -39 -16 -28 4 -41 2 -51 -10 -7 -9 -19 -16 -26 -16 -7 0 -18 -7 -25 -15 -7 -8 -20 -15 -30 -15 -9 0 -38 -11 -64 -25 -56 -30 -59 -30 -53 -7 3 9 8 33 11 53 5 27 13 39 29 43 12 3 49 31 82 62 33 31 80 69 104 85 24 15 50 37 58 49 14 20 33 27 33 12z m-604 -94 c10 -16 7 -74 -5 -97 -11 -20 -13 -19 -51 18 -45 44 -48 53 -21 80 19 19 65 19 77 -1z m-46 -193 c0 -2 -9 -19 -20 -37 l-20 -33 0 31 c0 17 3 34 7 37 7 8 33 9 33 2z m80 -280 c0 -10 -63 -120 -94 -162 -36 -52 -56 -56 -56 -10 0 77 11 104 50 126 20 11 43 28 50 36 12 14 50 22 50 10z m320 -580 c11 -20 10 -28 -4 -50 -10 -14 -24 -29 -32 -32 -8 -3 -28 -24 -43 -47 -28 -40 -91 -87 -91 -68 0 5 7 29 16 53 8 24 24 80 35 124 11 44 22 86 25 93 5 16 75 -38 94 -73z" />
</ns0:g>
</g><g transform="translate(0.7093470450923292,839.8173565317417) scale(0.032186125601421485)"><ns0:metadata>
Created by potrace 1.16, written by Peter Selinger 2001-2019
</ns0:metadata>
<ns0:g transform="translate(0.000000,207.000000) scale(0.100000,-0.100000)" fill="#000000" stroke="none">
<ns0:path d="M1013 1898 c-17 -18 -34 -44 -38 -57 -4 -14 -21 -46 -36 -72 -16 -25 -29 -50 -29 -54 0 -5 -6 -16 -14 -24 -16 -18 -136 -276 -171 -366 -12 -33 -34 -82 -48 -110 -46 -90 -97 -207 -97 -221 0 -29 47 -13 93 31 26 24 47 50 47 56 0 7 15 35 33 63 31 47 60 115 74 175 3 14 28 61 55 105 27 45 52 94 55 109 3 15 15 34 26 42 12 8 38 41 59 72 21 32 52 78 68 102 33 49 36 66 18 108 -12 29 -47 73 -58 73 -3 0 -20 -15 -37 -32z" />
<ns0:path d="M1435 1831 c-45 -19 -47 -32 -30 -148 27 -179 28 -179 69 -115 17 25 26 56 29 97 3 33 10 79 18 103 8 27 9 46 3 52 -14 14 -66 21 -89 11z" />
<ns0:path d="M1113 1379 c-18 -5 -33 -11 -33 -13 0 -14 -71 -230 -78 -239 -10 -13 -39 -92 -52 -142 -30 -117 -53 -192 -64 -205 -21 -26 -76 -137 -96 -196 -19 -53 -32 -73 -110 -167 -38 -45 -41 -74 -12 -100 36 -31 58 -29 97 7 20 19 56 45 80 56 24 12 45 24 47 28 2 4 41 33 88 65 47 32 112 78 145 103 33 24 67 47 75 51 8 4 18 12 23 19 8 14 109 74 125 74 17 0 22 -43 32 -248 12 -266 47 -396 115 -432 44 -24 48 -3 19 106 -22 82 -28 132 -34 294 -4 118 -4 214 2 243 8 37 6 59 -6 97 -24 72 -21 88 19 111 56 34 57 76 0 80 -49 4 -112 -4 -138 -18 -27 -14 -28 -17 -26 -79 l2 -66 -53 -29 c-30 -16 -61 -35 -69 -42 -9 -6 -27 -18 -40 -25 -13 -8 -38 -22 -55 -31 -34 -20 -97 -60 -136 -88 -39 -28 -92 -55 -97 -49 -3 2 24 64 60 138 35 73 70 155 76 182 25 103 74 244 112 322 21 45 39 84 39 88 0 3 13 24 29 47 17 22 27 47 24 55 -6 16 -60 18 -110 3z" />
</ns0:g>
</g><g transform="translate(-1.2074999258545063,946.4325446023784) scale(0.032186125601421485)"><ns0:metadata>
Created by potrace 1.16, written by Peter Selinger 2001-2019
</ns0:metadata>
<ns0:g transform="translate(0.000000,209.000000) scale(0.100000,-0.100000)" fill="#000000" stroke="none">
<ns0:path d="M1384 2047 c-56 -46 -134 -112 -197 -167 -43 -37 -166 -117 -232 -150 -22 -11 -65 -24 -95 -30 -87 -17 -144 -49 -148 -83 -2 -16 4 -40 13 -54 16 -23 22 -25 64 -20 43 5 121 38 237 100 64 35 123 80 204 157 41 40 91 84 110 100 l35 28 -1 -277 c-1 -289 -6 -387 -29 -586 -8 -66 -19 -199 -25 -295 -7 -96 -16 -183 -22 -194 -8 -14 -17 -17 -44 -13 -20 4 -46 0 -64 -10 -20 -9 -58 -15 -106 -15 -63 1 -75 -2 -72 -15 2 -9 15 -25 30 -36 23 -17 44 -20 187 -22 l161 -2 0 39 c0 25 5 38 13 38 10 0 13 13 10 53 -4 53 15 306 43 567 8 80 17 249 18 375 3 182 7 238 19 270 9 22 16 57 17 77 0 26 10 50 35 82 19 26 35 51 35 56 0 6 11 20 25 32 14 12 25 25 25 30 0 13 -47 9 -53 -5 -7 -19 -86 -71 -95 -62 -4 4 -1 10 7 13 7 2 28 17 45 33 l31 28 -65 0 c-61 0 -68 -3 -116 -42z" />
<ns0:path d="M1095 1559 c-38 -16 -81 -36 -95 -44 -14 -8 -58 -31 -99 -52 -92 -45 -183 -129 -183 -167 0 -55 50 -77 113 -49 27 12 42 25 46 43 7 29 52 79 71 80 7 0 23 11 35 24 13 14 75 52 138 84 119 63 146 92 97 106 -37 9 -49 7 -123 -25z" />
<ns0:path d="M1079 1278 c-39 -44 -39 -68 3 -68 49 0 117 -37 125 -68 5 -22 -1 -32 -38 -64 -61 -53 -152 -95 -221 -101 -56 -5 -57 -5 -67 26 -23 64 -70 86 -104 49 -20 -22 -21 -36 -4 -82 21 -59 45 -96 71 -114 27 -17 76 -22 76 -6 0 5 17 16 38 26 106 46 149 69 168 88 12 11 47 34 78 49 65 33 92 64 100 115 10 63 -5 93 -70 139 -76 53 -113 56 -155 11z" />
</ns0:g>
</g></svg>