<?xml version="1.0" standalone="no"?>
<!DOCTYPE svg PUBLIC "-//W3C//DTD SVG 20010904//EN"
 "http://www.w3.org/TR/2001/REC-SVG-20010904/DTD/svg10.dtd">
<svg version="1.0" xmlns="http://www.w3.org/2000/svg"
 width="209.000000pt" height="213.000000pt" viewBox="0 0 209.000000 213.000000"
 preserveAspectRatio="xMidYMid meet">
<metadata>
Created by potrace 1.16, written by Peter Selinger 2001-2019
</metadata>
<g transform="translate(0.000000,213.000000) scale(0.100000,-0.100000)"
fill="#000000" stroke="none">
<path d="M1196 1516 c-30 -46 -41 -56 -73 -62 -21 -4 -59 -17 -85 -30 -26 -13
-61 -25 -79 -26 -36 -3 -46 14 -48 83 -1 44 -17 59 -54 52 -37 -7 -48 -32 -49
-111 0 -72 -10 -102 -33 -102 -9 0 -25 -12 -38 -26 -53 -61 -37 -124 33 -124
21 0 41 -4 44 -8 3 -5 2 -41 -1 -81 -6 -66 -8 -74 -32 -83 -55 -22 -71 -32
-120 -75 -59 -51 -78 -106 -46 -130 35 -25 64 -15 115 38 27 28 53 48 58 45 5
-3 10 -28 10 -56 0 -28 5 -57 12 -65 26 -31 105 -7 84 26 -12 19 -4 112 10
134 14 20 42 37 128 74 74 33 82 30 74 -26 -4 -27 -11 -91 -16 -143 -5 -52
-12 -120 -16 -150 -3 -34 -1 -67 6 -85 l12 -30 19 24 c10 13 19 37 19 55 1 17
7 47 15 66 37 95 45 122 50 172 9 81 36 151 65 165 14 7 42 13 62 13 31 0 39
4 43 23 13 57 -11 87 -67 80 l-41 -6 7 69 c4 38 14 119 22 180 15 102 15 114
0 143 -25 47 -49 40 -90 -23z m-57 -238 c0 -35 -4 -83 -7 -107 l-7 -44 -65
-17 c-36 -9 -79 -24 -97 -33 -18 -9 -36 -17 -40 -17 -10 0 -4 147 8 177 8 22
75 62 149 89 58 21 60 20 59 -48z"/>
</g>
</svg>
