<?xml version="1.0" standalone="no"?>
<!DOCTYPE svg PUBLIC "-//W3C//DTD SVG 20010904//EN"
 "http://www.w3.org/TR/2001/REC-SVG-20010904/DTD/svg10.dtd">
<svg version="1.0" xmlns="http://www.w3.org/2000/svg"
 width="208.000000pt" height="214.000000pt" viewBox="0 0 208.000000 214.000000"
 preserveAspectRatio="xMidYMid meet">
<metadata>
Created by potrace 1.16, written by Peter Selinger 2001-2019
</metadata>
<g transform="translate(0.000000,214.000000) scale(0.100000,-0.100000)"
fill="#000000" stroke="none">
<path d="M1081 1471 c-11 -11 -22 -41 -26 -68 -13 -98 -14 -100 -48 -106 -18
-3 -47 -9 -64 -13 -30 -6 -33 -4 -33 18 0 33 -65 118 -90 118 -10 0 -30 -4
-44 -10 -26 -10 -26 -10 -20 -94 4 -51 3 -96 -4 -115 -7 -19 -7 -33 -1 -36 5
-4 9 -55 9 -115 0 -113 -3 -120 -49 -120 -28 0 -101 -68 -101 -94 0 -45 63
-74 90 -41 7 8 19 15 26 15 11 0 14 -18 13 -81 -1 -86 13 -119 53 -119 53 0
79 51 58 115 -9 28 -8 45 4 88 14 49 20 55 58 71 24 10 60 26 80 37 20 10 42
19 47 19 24 0 2 -357 -24 -400 -11 -18 6 -50 26 -50 10 0 19 5 19 12 0 6 11
34 24 62 44 91 57 149 63 261 8 174 16 187 114 189 57 1 89 26 89 68 0 69 -31
81 -129 52 -29 -8 -56 -13 -59 -10 -3 3 0 17 6 31 7 14 12 38 12 53 0 48 11
70 41 82 31 13 44 39 34 69 -4 14 -17 21 -43 23 -35 3 -37 5 -34 35 6 60 -57
94 -97 54z m-33 -375 c-3 -36 -6 -41 -38 -49 -19 -5 -47 -18 -62 -28 -15 -11
-40 -21 -55 -22 -26 -2 -27 0 -24 43 5 82 22 107 84 125 31 9 61 23 68 32 12
14 15 11 22 -23 4 -22 7 -57 5 -78z"/>
</g>
</svg>
