<?xml version="1.0" standalone="no"?>
<!DOCTYPE svg PUBLIC "-//W3C//DTD SVG 20010904//EN"
 "http://www.w3.org/TR/2001/REC-SVG-20010904/DTD/svg10.dtd">
<svg version="1.0" xmlns="http://www.w3.org/2000/svg"
 width="208.000000pt" height="206.000000pt" viewBox="0 0 208.000000 206.000000"
 preserveAspectRatio="xMidYMid meet">
<metadata>
Created by potrace 1.16, written by Peter Selinger 2001-2019
</metadata>
<g transform="translate(0.000000,206.000000) scale(0.100000,-0.100000)"
fill="#000000" stroke="none">
<path d="M1034 1393 c-22 -16 -61 -39 -87 -53 -65 -34 -97 -79 -108 -148 -4
-32 -17 -91 -28 -132 -10 -41 -25 -130 -31 -198 -11 -119 -10 -125 11 -169 23
-48 51 -65 125 -78 26 -4 44 -2 49 4 3 6 17 8 30 5 19 -5 31 1 55 27 16 19 30
39 30 46 0 19 -32 32 -55 23 -27 -10 -103 3 -121 22 -31 31 -19 216 24 358 11
36 25 84 31 107 9 32 23 52 59 78 28 22 55 55 69 83 27 57 27 52 5 52 -11 0
-37 -12 -58 -27z"/>
</g>
</svg>
