<?xml version="1.0" standalone="no"?>
<!DOCTYPE svg PUBLIC "-//W3C//DTD SVG 20010904//EN"
 "http://www.w3.org/TR/2001/REC-SVG-20010904/DTD/svg10.dtd">
<svg version="1.0" xmlns="http://www.w3.org/2000/svg"
 width="207.000000pt" height="206.000000pt" viewBox="0 0 207.000000 206.000000"
 preserveAspectRatio="xMidYMid meet">
<metadata>
Created by potrace 1.16, written by Peter Selinger 2001-2019
</metadata>
<g transform="translate(0.000000,206.000000) scale(0.100000,-0.100000)"
fill="#000000" stroke="none">
<path d="M1029 1361 c-85 -55 -78 -43 -193 -336 -81 -206 -104 -278 -98 -313
2 -18 7 -32 11 -32 3 0 15 -16 26 -36 22 -41 48 -57 125 -73 30 -7 62 -15 70
-19 8 -3 49 -7 90 -7 41 -1 92 -8 112 -15 30 -11 39 -11 52 -1 55 46 -48 112
-170 110 -64 -1 -165 39 -182 72 -16 31 -7 109 19 160 10 21 19 43 19 50 0 6
23 62 50 124 28 62 50 121 50 132 0 27 21 53 84 103 31 25 56 52 56 62 0 14
-49 48 -70 48 -3 0 -26 -13 -51 -29z"/>
</g>
</svg>
