<?xml version="1.0" standalone="no"?>
<!DOCTYPE svg PUBLIC "-//W3C//DTD SVG 20010904//EN"
 "http://www.w3.org/TR/2001/REC-SVG-20010904/DTD/svg10.dtd">
<svg version="1.0" xmlns="http://www.w3.org/2000/svg"
 width="209.000000pt" height="207.000000pt" viewBox="0 0 209.000000 207.000000"
 preserveAspectRatio="xMidYMid meet">
<metadata>
Created by potrace 1.16, written by Peter Selinger 2001-2019
</metadata>
<g transform="translate(0.000000,207.000000) scale(0.100000,-0.100000)"
fill="#000000" stroke="none">
<path d="M1013 1497 c-16 -20 -25 -53 -49 -174 -5 -25 -55 -46 -90 -37 -43 11
-134 -39 -134 -74 0 -7 13 -27 30 -43 23 -23 33 -28 47 -20 10 5 39 12 66 16
47 7 47 7 47 -21 0 -16 5 -105 10 -197 10 -173 20 -218 45 -197 29 24 45 102
45 213 0 102 4 131 32 229 11 39 52 64 112 70 40 4 56 47 31 84 -15 23 -22 25
-55 20 -21 -3 -46 -9 -55 -12 -15 -6 -16 -4 -6 14 6 11 11 32 11 46 0 14 5 28
10 31 6 3 10 17 10 30 0 46 -75 62 -107 22z"/>
</g>
</svg>
