<?xml version="1.0" standalone="no"?>
<!DOCTYPE svg PUBLIC "-//W3C//DTD SVG 20010904//EN"
 "http://www.w3.org/TR/2001/REC-SVG-20010904/DTD/svg10.dtd">
<svg version="1.0" xmlns="http://www.w3.org/2000/svg"
 width="208.000000pt" height="207.000000pt" viewBox="0 0 208.000000 207.000000"
 preserveAspectRatio="xMidYMid meet">
<metadata>
Created by potrace 1.16, written by Peter Selinger 2001-2019
</metadata>
<g transform="translate(0.000000,207.000000) scale(0.100000,-0.100000)"
fill="#000000" stroke="none">
<path d="M768 1060 c-30 -23 -35 -55 -15 -81 10 -14 50 -17 267 -22 155 -4
282 -12 324 -21 45 -9 78 -11 93 -5 21 8 23 14 20 65 l-3 57 -115 4 c-63 2
-132 5 -154 7 -22 2 -119 7 -215 11 -170 7 -176 7 -202 -15z"/>
</g>
</svg>
