<?xml version="1.0" standalone="no"?>
<!DOCTYPE svg PUBLIC "-//W3C//DTD SVG 20010904//EN"
 "http://www.w3.org/TR/2001/REC-SVG-20010904/DTD/svg10.dtd">
<svg version="1.0" xmlns="http://www.w3.org/2000/svg"
 width="209.000000pt" height="206.000000pt" viewBox="0 0 209.000000 206.000000"
 preserveAspectRatio="xMidYMid meet">
<metadata>
Created by potrace 1.16, written by Peter Selinger 2001-2019
</metadata>
<g transform="translate(0.000000,206.000000) scale(0.100000,-0.100000)"
fill="#000000" stroke="none">
<path d="M988 1436 c-15 -8 -48 -14 -74 -14 -25 0 -51 -5 -56 -10 -6 -6 -17
-59 -24 -119 -8 -59 -23 -135 -34 -168 -22 -70 -41 -285 -30 -341 10 -50 18
-70 48 -118 23 -38 25 -38 73 -34 40 4 61 15 121 61 115 88 187 166 238 261
20 35 21 45 12 115 -20 149 -54 229 -119 275 -24 16 -45 37 -48 45 -4 13 -66
61 -77 61 -2 0 -15 -6 -30 -14z m39 -113 c65 -64 93 -107 117 -180 14 -43 26
-89 26 -102 0 -54 -117 -195 -204 -246 -90 -52 -106 -14 -76 175 12 74 23 146
25 160 8 53 33 142 44 153 6 6 11 21 11 32 0 43 19 45 57 8z"/>
</g>
</svg>
