<?xml version="1.0" standalone="no"?>
<!DOCTYPE svg PUBLIC "-//W3C//DTD SVG 20010904//EN"
 "http://www.w3.org/TR/2001/REC-SVG-20010904/DTD/svg10.dtd">
<svg version="1.0" xmlns="http://www.w3.org/2000/svg"
 width="209.000000pt" height="208.000000pt" viewBox="0 0 209.000000 208.000000"
 preserveAspectRatio="xMidYMid meet">
<metadata>
Created by potrace 1.16, written by Peter Selinger 2001-2019
</metadata>
<g transform="translate(0.000000,208.000000) scale(0.100000,-0.100000)"
fill="#000000" stroke="none">
<path d="M948 1211 c-21 -12 -28 -24 -28 -48 0 -46 45 -70 128 -68 34 1 65 5
69 8 8 9 87 9 96 1 7 -8 -27 -87 -61 -139 -29 -45 -84 -90 -149 -123 -54 -28
-62 -50 -28 -79 30 -26 74 -29 114 -8 16 8 47 17 70 21 35 6 41 4 41 -10 0
-30 -131 -183 -173 -202 -20 -9 -42 -23 -48 -30 -6 -7 -34 -20 -62 -30 -29 -9
-59 -23 -67 -31 -13 -13 -13 -16 5 -29 13 -10 30 -13 50 -9 17 4 48 11 70 15
93 17 243 120 281 192 8 15 25 43 38 63 19 27 24 49 25 94 0 65 -7 75 -57 86
l-33 7 40 73 c40 75 60 161 46 204 -12 38 -52 49 -200 54 -118 4 -144 2 -167
-12z"/>
</g>
</svg>
