<?xml version="1.0" standalone="no"?>
<!DOCTYPE svg PUBLIC "-//W3C//DTD SVG 20010904//EN"
 "http://www.w3.org/TR/2001/REC-SVG-20010904/DTD/svg10.dtd">
<svg version="1.0" xmlns="http://www.w3.org/2000/svg"
 width="205.000000pt" height="208.000000pt" viewBox="0 0 205.000000 208.000000"
 preserveAspectRatio="xMidYMid meet">
<metadata>
Created by potrace 1.16, written by Peter Selinger 2001-2019
</metadata>
<g transform="translate(0.000000,208.000000) scale(0.100000,-0.100000)"
fill="#000000" stroke="none">
<path d="M791 1371 c-12 -12 -21 -31 -21 -43 0 -13 -12 -50 -25 -83 -28 -68
-32 -88 -11 -59 26 35 29 5 7 -68 -23 -79 -27 -158 -11 -204 18 -51 72 -78
163 -83 l79 -3 -7 -52 c-4 -28 -16 -76 -26 -106 -23 -66 -24 -100 -4 -100 33
0 99 96 130 190 14 43 32 83 38 88 7 5 36 15 65 22 59 14 68 26 74 101 3 39 0
45 -26 58 -27 13 -31 12 -48 -9 -10 -12 -18 -28 -18 -36 0 -8 -4 -14 -10 -14
-13 0 -13 15 -1 38 5 9 15 39 22 66 7 27 26 64 42 83 33 37 30 58 -8 73 -93
35 -128 -9 -166 -210 -7 -36 -16 -67 -20 -70 -5 -3 -36 -5 -69 -4 -82 2 -104
21 -95 83 4 25 16 79 27 120 11 42 22 85 25 96 2 11 -2 47 -10 80 -13 56 -15
60 -45 63 -21 2 -37 -3 -51 -17z"/>
</g>
</svg>
