<?xml version="1.0" standalone="no"?>
<!DOCTYPE svg PUBLIC "-//W3C//DTD SVG 20010904//EN"
 "http://www.w3.org/TR/2001/REC-SVG-20010904/DTD/svg10.dtd">
<svg version="1.0" xmlns="http://www.w3.org/2000/svg"
 width="207.000000pt" height="213.000000pt" viewBox="0 0 207.000000 213.000000"
 preserveAspectRatio="xMidYMid meet">
<metadata>
Created by potrace 1.16, written by Peter Selinger 2001-2019
</metadata>
<g transform="translate(0.000000,213.000000) scale(0.100000,-0.100000)"
fill="#000000" stroke="none">
<path d="M1116 1428 c-8 -13 -17 -48 -21 -78 -7 -58 -48 -223 -95 -380 -56
-189 -63 -216 -68 -276 -4 -53 -1 -66 19 -95 81 -114 179 -123 272 -25 65 69
147 176 147 192 0 7 -4 16 -10 19 -5 3 -10 17 -10 30 0 15 -11 32 -32 46 -27
19 -47 24 -121 26 -49 1 -92 4 -95 7 -3 3 0 23 6 43 6 21 19 65 28 98 9 33 25
83 35 110 26 70 59 204 59 242 0 41 -23 63 -65 63 -25 0 -39 -6 -49 -22z m80
-628 c11 0 29 -6 39 -14 18 -13 18 -14 0 -42 -42 -65 -107 -124 -136 -124 -52
0 -72 59 -49 142 9 33 15 37 48 41 20 2 46 3 57 1 11 -2 29 -4 41 -4z"/>
</g>
</svg>
