<?xml version="1.0" standalone="no"?>
<!DOCTYPE svg PUBLIC "-//W3C//DTD SVG 20010904//EN"
 "http://www.w3.org/TR/2001/REC-SVG-20010904/DTD/svg10.dtd">
<svg version="1.0" xmlns="http://www.w3.org/2000/svg"
 width="207.000000pt" height="215.000000pt" viewBox="0 0 207.000000 215.000000"
 preserveAspectRatio="xMidYMid meet">
<metadata>
Created by potrace 1.16, written by Peter Selinger 2001-2019
</metadata>
<g transform="translate(0.000000,215.000000) scale(0.100000,-0.100000)"
fill="#000000" stroke="none">
<path d="M927 1331 c-6 -7 -17 -33 -23 -57 -10 -40 -9 -45 12 -63 22 -19 51
-21 84 -7 31 13 147 21 190 14 55 -10 102 3 149 41 31 25 32 29 20 49 -12 18
-23 22 -70 22 -30 0 -59 3 -63 7 -3 4 -70 7 -147 8 -110 0 -143 -3 -152 -14z"/>
<path d="M802 928 c-7 -7 -12 -17 -12 -24 0 -7 -5 -14 -12 -16 -21 -7 1 -57
32 -73 34 -18 35 -18 310 -15 181 2 220 0 245 -14 32 -17 81 -21 89 -8 3 5 -2
31 -11 59 -13 42 -22 53 -52 66 -49 21 -128 31 -136 17 -10 -17 -352 -12 -386
6 -34 17 -51 18 -67 2z m278 -68 c0 -5 -2 -10 -4 -10 -3 0 -8 5 -11 10 -3 6
-1 10 4 10 6 0 11 -4 11 -10z"/>
</g>
</svg>
