<?xml version="1.0" standalone="no"?>
<!DOCTYPE svg PUBLIC "-//W3C//DTD SVG 20010904//EN"
 "http://www.w3.org/TR/2001/REC-SVG-20010904/DTD/svg10.dtd">
<svg version="1.0" xmlns="http://www.w3.org/2000/svg"
 width="206.000000pt" height="210.000000pt" viewBox="0 0 206.000000 210.000000"
 preserveAspectRatio="xMidYMid meet">
<metadata>
Created by potrace 1.16, written by Peter Selinger 2001-2019
</metadata>
<g transform="translate(0.000000,210.000000) scale(0.100000,-0.100000)"
fill="#000000" stroke="none">
<path d="M1437 663 c-4 -3 -35 -7 -69 -8 -221 -8 -394 -18 -463 -27 -44 -5
-93 -9 -109 -9 -16 1 -65 -3 -109 -9 -125 -18 -182 -75 -127 -130 22 -22 45
-25 99 -10 184 49 439 65 714 45 98 -7 117 0 117 44 0 24 -34 111 -43 111 -2
0 -7 -3 -10 -7z m-827 -123 c0 -5 -4 -10 -10 -10 -5 0 -10 5 -10 10 0 6 5 10
10 10 6 0 10 -4 10 -10z"/>
</g>
</svg>
