<?xml version="1.0" standalone="no"?>
<!DOCTYPE svg PUBLIC "-//W3C//DTD SVG 20010904//EN"
 "http://www.w3.org/TR/2001/REC-SVG-20010904/DTD/svg10.dtd">
<svg version="1.0" xmlns="http://www.w3.org/2000/svg"
 width="206.000000pt" height="218.000000pt" viewBox="0 0 206.000000 218.000000"
 preserveAspectRatio="xMidYMid meet">
<metadata>
Created by potrace 1.16, written by Peter Selinger 2001-2019
</metadata>
<g transform="translate(0.000000,218.000000) scale(0.100000,-0.100000)"
fill="#000000" stroke="none">
<path d="M910 1407 c-46 -16 -63 -51 -49 -103 14 -50 13 -49 42 -29 18 12 27
13 32 4 4 -6 2 -15 -4 -19 -14 -8 0 -46 35 -95 12 -16 38 -64 58 -105 20 -41
57 -109 81 -150 24 -41 48 -84 53 -95 6 -11 22 -31 38 -44 42 -36 58 -19 62
64 3 66 2 68 -33 103 -20 20 -38 47 -41 61 -9 51 -39 137 -60 176 -12 22 -25
51 -29 65 -4 14 -18 39 -31 57 -13 17 -24 36 -24 42 0 9 -82 82 -91 80 -2 0
-20 -5 -39 -12z"/>
</g>
</svg>
