<?xml version="1.0" standalone="no"?>
<!DOCTYPE svg PUBLIC "-//W3C//DTD SVG 20010904//EN"
 "http://www.w3.org/TR/2001/REC-SVG-20010904/DTD/svg10.dtd">
<svg version="1.0" xmlns="http://www.w3.org/2000/svg"
 width="209.000000pt" height="207.000000pt" viewBox="0 0 209.000000 207.000000"
 preserveAspectRatio="xMidYMid meet">
<metadata>
Created by potrace 1.16, written by Peter Selinger 2001-2019
</metadata>
<g transform="translate(0.000000,207.000000) scale(0.100000,-0.100000)"
fill="#000000" stroke="none">
<path d="M1030 1132 c-44 -22 -49 -45 -14 -77 21 -20 29 -39 36 -87 8 -58 7
-64 -22 -108 -30 -47 -38 -80 -20 -80 18 0 65 25 86 45 11 11 28 25 37 30 21
12 42 150 32 204 -8 42 -31 71 -56 71 -10 0 -21 5 -24 10 -8 14 -14 13 -55 -8z"/>
</g>
</svg>
