<?xml version="1.0" standalone="no"?>
<!DOCTYPE svg PUBLIC "-//W3C//DTD SVG 20010904//EN"
 "http://www.w3.org/TR/2001/REC-SVG-20010904/DTD/svg10.dtd">
<svg version="1.0" xmlns="http://www.w3.org/2000/svg"
 width="204.000000pt" height="204.000000pt" viewBox="0 0 204.000000 204.000000"
 preserveAspectRatio="xMidYMid meet">
<metadata>
Created by potrace 1.16, written by Peter Selinger 2001-2019
</metadata>
<g transform="translate(0.000000,204.000000) scale(0.100000,-0.100000)"
fill="#000000" stroke="none">
<path d="M1023 798 c-51 -57 -55 -96 -13 -131 18 -16 30 -35 29 -49 -1 -40
-33 -104 -76 -154 -24 -26 -43 -53 -43 -60 0 -6 -10 -18 -22 -27 -61 -40 -141
-137 -113 -137 17 0 94 50 154 101 39 32 75 59 81 59 5 0 10 5 10 10 0 6 6 10
13 10 38 0 116 141 132 238 4 24 13 56 21 70 33 63 5 92 -88 92 -54 0 -68 -4
-85 -22z"/>
</g>
</svg>
