<?xml version="1.0" standalone="no"?>
<!DOCTYPE svg PUBLIC "-//W3C//DTD SVG 20010904//EN"
 "http://www.w3.org/TR/2001/REC-SVG-20010904/DTD/svg10.dtd">
<svg version="1.0" xmlns="http://www.w3.org/2000/svg"
 width="207.000000pt" height="214.000000pt" viewBox="0 0 207.000000 214.000000"
 preserveAspectRatio="xMidYMid meet">
<metadata>
Created by potrace 1.16, written by Peter Selinger 2001-2019
</metadata>
<g transform="translate(0.000000,214.000000) scale(0.100000,-0.100000)"
fill="#000000" stroke="none">
<path d="M1280 1529 c-35 -19 -35 -20 -47 -116 -10 -85 -11 -147 -4 -265 1
-19 7 -28 17 -28 25 0 43 30 44 70 0 20 4 40 9 45 8 9 30 95 46 182 4 18 15
44 26 57 11 14 19 36 17 48 -2 19 -10 23 -38 25 -19 0 -51 -7 -70 -18z"/>
<path d="M974 1510 c-32 -12 -34 -20 -39 -112 -2 -46 -11 -114 -20 -153 -43
-189 -42 -226 7 -246 28 -11 33 -11 49 10 12 15 16 31 12 51 -3 18 4 57 21
105 14 41 26 86 26 99 0 14 4 27 9 30 29 19 22 171 -10 205 -22 23 -24 24 -55
11z"/>
</g>
</svg>
