<?xml version="1.0" standalone="no"?>
<!DOCTYPE svg PUBLIC "-//W3C//DTD SVG 20010904//EN"
 "http://www.w3.org/TR/2001/REC-SVG-20010904/DTD/svg10.dtd">
<svg version="1.0" xmlns="http://www.w3.org/2000/svg"
 width="206.000000pt" height="210.000000pt" viewBox="0 0 206.000000 210.000000"
 preserveAspectRatio="xMidYMid meet">
<metadata>
Created by potrace 1.16, written by Peter Selinger 2001-2019
</metadata>
<g transform="translate(0.000000,210.000000) scale(0.100000,-0.100000)"
fill="#000000" stroke="none">
<path d="M1490 1616 c-13 -10 -110 -196 -110 -210 0 -7 -69 -164 -110 -251
-50 -105 -77 -169 -84 -199 -4 -17 -16 -42 -27 -57 -10 -15 -19 -33 -19 -40 0
-12 -48 -100 -60 -109 -3 -3 -14 -26 -24 -52 -9 -26 -27 -59 -39 -74 -27 -35
-77 -141 -77 -164 0 -21 45 -60 69 -60 24 1 45 21 66 65 10 22 28 56 41 75 12
19 25 51 29 70 4 19 13 42 20 50 7 8 21 35 31 60 9 25 23 52 31 61 7 8 13 19
13 23 0 4 16 40 35 79 19 39 35 76 35 83 0 7 11 32 25 55 14 24 25 51 25 60 0
9 7 22 16 30 8 7 13 21 11 31 -3 10 -1 21 4 24 13 7 93 169 109 220 7 21 26
63 43 92 23 41 28 60 23 86 -9 48 -48 74 -76 52z m-249 -689 c-8 -8 -11 -7
-11 4 0 20 13 34 18 19 3 -7 -1 -17 -7 -23z"/>
</g>
</svg>
