<?xml version="1.0" standalone="no"?>
<!DOCTYPE svg PUBLIC "-//W3C//DTD SVG 20010904//EN"
 "http://www.w3.org/TR/2001/REC-SVG-20010904/DTD/svg10.dtd">
<svg version="1.0" xmlns="http://www.w3.org/2000/svg"
 width="209.000000pt" height="207.000000pt" viewBox="0 0 209.000000 207.000000"
 preserveAspectRatio="xMidYMid meet">
<metadata>
Created by potrace 1.16, written by Peter Selinger 2001-2019
</metadata>
<g transform="translate(0.000000,207.000000) scale(0.100000,-0.100000)"
fill="#000000" stroke="none">
<path d="M1225 1568 c-32 -17 -85 -71 -85 -85 0 -7 -4 -13 -10 -13 -5 0 -10 9
-10 20 0 17 -7 20 -53 20 -29 0 -58 -5 -65 -12 -16 -16 -15 -85 3 -144 19 -64
19 -94 -4 -123 -17 -23 -25 -24 -127 -26 -128 -1 -184 -19 -184 -57 0 -42 17
-48 132 -48 64 0 108 -4 108 -10 0 -5 -19 -48 -42 -95 -29 -58 -48 -85 -60
-85 -16 0 -38 -27 -38 -48 0 -5 9 -19 20 -31 21 -25 10 -28 110 25 31 16 99
112 139 196 37 77 44 78 85 5 20 -35 36 -69 36 -75 0 -6 6 -17 14 -25 8 -8 23
-30 33 -49 72 -139 71 -138 108 -138 34 0 35 1 35 43 0 41 -8 61 -73 177 -85
152 -86 157 -39 176 15 6 50 21 77 32 58 24 96 65 77 84 -9 9 -30 7 -95 -11
-129 -36 -124 -35 -131 -13 -8 23 35 126 81 197 47 70 50 85 23 107 -25 21
-37 22 -65 6z"/>
</g>
</svg>
