<?xml version="1.0" standalone="no"?>
<!DOCTYPE svg PUBLIC "-//W3C//DTD SVG 20010904//EN"
 "http://www.w3.org/TR/2001/REC-SVG-20010904/DTD/svg10.dtd">
<svg version="1.0" xmlns="http://www.w3.org/2000/svg"
 width="208.000000pt" height="206.000000pt" viewBox="0 0 208.000000 206.000000"
 preserveAspectRatio="xMidYMid meet">
<metadata>
Created by potrace 1.16, written by Peter Selinger 2001-2019
</metadata>
<g transform="translate(0.000000,206.000000) scale(0.100000,-0.100000)"
fill="#000000" stroke="none">
<path d="M916 1223 c-7 -16 -14 -49 -14 -74 -2 -104 -36 -199 -98 -276 -48
-60 -77 -82 -106 -83 -30 0 -36 28 -19 99 14 58 29 88 70 137 5 6 16 24 24 40
8 16 25 39 36 51 38 40 19 113 -29 113 -20 0 -53 -40 -64 -77 -4 -13 -11 -23
-15 -23 -6 0 -31 -47 -99 -185 -63 -129 -37 -226 65 -241 36 -5 53 -2 86 16
52 28 116 87 128 118 9 22 39 31 39 11 0 -32 68 -145 107 -178 55 -46 78 -54
94 -35 10 12 8 18 -9 35 -12 11 -22 25 -22 31 0 6 -11 25 -23 42 -13 17 -34
63 -47 101 -21 61 -24 90 -24 228 -1 129 -4 159 -16 167 -27 17 -49 11 -64
-17z"/>
</g>
</svg>
