<?xml version="1.0" standalone="no"?>
<!DOCTYPE svg PUBLIC "-//W3C//DTD SVG 20010904//EN"
 "http://www.w3.org/TR/2001/REC-SVG-20010904/DTD/svg10.dtd">
<svg version="1.0" xmlns="http://www.w3.org/2000/svg"
 width="206.000000pt" height="206.000000pt" viewBox="0 0 206.000000 206.000000"
 preserveAspectRatio="xMidYMid meet">
<metadata>
Created by potrace 1.16, written by Peter Selinger 2001-2019
</metadata>
<g transform="translate(0.000000,206.000000) scale(0.100000,-0.100000)"
fill="#000000" stroke="none">
<path d="M933 1539 c-42 -12 -55 -36 -43 -80 14 -53 30 -209 30 -289 0 -67
-40 -300 -76 -446 -8 -33 -26 -73 -40 -89 -26 -31 -29 -51 -14 -106 8 -29 19
-40 59 -58 44 -21 53 -22 103 -12 100 21 162 100 193 246 18 84 19 206 2 255
-11 32 -15 35 -50 34 -27 -1 -44 -9 -63 -29 -14 -15 -28 -25 -30 -22 -3 3 -1
38 6 79 14 90 14 343 0 418 -11 60 -29 111 -39 109 -3 0 -21 -5 -38 -10z m137
-710 c0 -11 -7 -44 -16 -72 -8 -29 -20 -68 -26 -88 -13 -46 -83 -129 -109
-129 -10 0 -19 3 -19 7 0 12 72 175 98 223 42 76 72 101 72 59z"/>
</g>
</svg>
