<?xml version="1.0" standalone="no"?>
<!DOCTYPE svg PUBLIC "-//W3C//DTD SVG 20010904//EN"
 "http://www.w3.org/TR/2001/REC-SVG-20010904/DTD/svg10.dtd">
<svg version="1.0" xmlns="http://www.w3.org/2000/svg"
 width="209.000000pt" height="208.000000pt" viewBox="0 0 209.000000 208.000000"
 preserveAspectRatio="xMidYMid meet">
<metadata>
Created by potrace 1.16, written by Peter Selinger 2001-2019
</metadata>
<g transform="translate(0.000000,208.000000) scale(0.100000,-0.100000)"
fill="#000000" stroke="none">
<path d="M1113 1493 c-36 -38 -77 -85 -90 -105 -14 -20 -31 -39 -38 -42 -8 -3
-23 -23 -34 -45 -12 -22 -32 -52 -46 -67 -14 -15 -25 -32 -25 -38 0 -6 -13
-30 -29 -53 -37 -56 -59 -182 -39 -228 44 -99 100 -139 208 -151 49 -5 75 -2
104 10 21 9 48 16 60 16 12 0 42 13 67 28 24 15 60 35 79 44 53 25 200 150
200 170 0 4 -9 10 -20 13 -14 5 -49 -9 -113 -45 -143 -79 -255 -130 -300 -136
-64 -9 -121 11 -156 53 -27 33 -29 41 -24 82 3 25 14 64 25 86 38 83 238 345
264 345 6 0 21 -22 32 -50 12 -27 26 -50 32 -50 18 0 32 52 21 76 -5 12 -13
43 -16 70 -9 59 -29 84 -67 84 -23 0 -44 -15 -95 -67z"/>
</g>
</svg>
