<?xml version="1.0" standalone="no"?>
<!DOCTYPE svg PUBLIC "-//W3C//DTD SVG 20010904//EN"
 "http://www.w3.org/TR/2001/REC-SVG-20010904/DTD/svg10.dtd">
<svg version="1.0" xmlns="http://www.w3.org/2000/svg"
 width="207.000000pt" height="209.000000pt" viewBox="0 0 207.000000 209.000000"
 preserveAspectRatio="xMidYMid meet">
<metadata>
Created by potrace 1.16, written by Peter Selinger 2001-2019
</metadata>
<g transform="translate(0.000000,209.000000) scale(0.100000,-0.100000)"
fill="#000000" stroke="none">
<path d="M1404 1836 c-37 -16 -44 -31 -45 -99 0 -36 -8 -65 -24 -92 -40 -67
-46 -87 -43 -139 3 -46 5 -51 26 -50 19 1 22 -3 18 -25 -3 -14 -8 -46 -11 -71
-12 -86 -24 -110 -53 -110 -43 0 -122 -43 -180 -96 -29 -27 -75 -65 -102 -84
-70 -49 -74 -64 -62 -217 17 -199 41 -246 135 -257 70 -9 121 0 165 30 19 13
43 24 53 24 11 0 19 5 19 11 0 6 18 28 40 50 50 50 74 103 59 131 -7 13 -16
17 -27 13 -42 -16 -43 -4 -17 110 50 213 69 313 85 450 6 50 15 110 21 134 5
24 12 93 16 152 5 97 4 111 -12 129 -21 23 -21 23 -61 6z m-166 -757 c2 -24
-3 -82 -12 -129 -8 -47 -20 -118 -26 -158 -12 -71 -13 -73 -52 -92 -35 -17
-42 -17 -55 -5 -8 8 -18 15 -22 15 -31 0 -59 213 -34 263 7 15 20 27 28 27 7
0 20 8 27 19 21 30 121 112 133 108 5 -2 11 -23 13 -48z"/>
</g>
</svg>
