<?xml version="1.0" standalone="no"?>
<!DOCTYPE svg PUBLIC "-//W3C//DTD SVG 20010904//EN"
 "http://www.w3.org/TR/2001/REC-SVG-20010904/DTD/svg10.dtd">
<svg version="1.0" xmlns="http://www.w3.org/2000/svg"
 width="207.000000pt" height="208.000000pt" viewBox="0 0 207.000000 208.000000"
 preserveAspectRatio="xMidYMid meet">
<metadata>
Created by potrace 1.16, written by Peter Selinger 2001-2019
</metadata>
<g transform="translate(0.000000,208.000000) scale(0.100000,-0.100000)"
fill="#000000" stroke="none">
<path d="M1139 1489 c-65 -23 -118 -73 -103 -97 24 -37 53 -42 102 -16 29 16
62 24 92 24 41 0 50 -4 65 -27 26 -39 22 -126 -8 -194 -54 -119 -68 -147 -106
-209 -22 -36 -57 -93 -78 -128 -89 -146 -192 -293 -211 -300 -16 -5 -15 32 2
105 20 86 35 204 42 327 3 60 12 129 20 154 15 44 34 214 27 242 -3 8 -16 23
-29 33 -23 17 -27 17 -49 3 -13 -9 -28 -24 -34 -33 -14 -27 -30 -181 -37 -353
-6 -156 -28 -349 -43 -379 -7 -14 -19 -108 -26 -199 -1 -22 -13 -43 -35 -65
-29 -29 -33 -30 -45 -14 -7 9 -16 17 -20 17 -9 0 -45 -44 -67 -83 -15 -27 -16
-33 -2 -58 33 -65 147 -10 307 149 53 53 131 158 201 270 41 67 68 109 109
174 21 31 37 60 37 65 0 4 15 31 33 58 19 28 41 70 49 95 69 200 78 284 40
361 -25 51 -41 62 -124 82 -52 12 -63 12 -109 -4z"/>
</g>
</svg>
