<?xml version="1.0" standalone="no"?>
<!DOCTYPE svg PUBLIC "-//W3C//DTD SVG 20010904//EN"
 "http://www.w3.org/TR/2001/REC-SVG-20010904/DTD/svg10.dtd">
<svg version="1.0" xmlns="http://www.w3.org/2000/svg"
 width="206.000000pt" height="209.000000pt" viewBox="0 0 206.000000 209.000000"
 preserveAspectRatio="xMidYMid meet">
<metadata>
Created by potrace 1.16, written by Peter Selinger 2001-2019
</metadata>
<g transform="translate(0.000000,209.000000) scale(0.100000,-0.100000)"
fill="#000000" stroke="none">
<path d="M1401 1912 c-5 -10 -12 -82 -15 -162 -10 -193 -13 -226 -29 -285 -8
-27 -20 -72 -27 -100 -7 -27 -25 -93 -40 -145 -16 -52 -31 -108 -35 -125 -3
-16 -13 -40 -23 -53 -16 -20 -20 -21 -49 -10 -35 13 -38 12 -145 -50 -50 -29
-187 -161 -207 -200 -9 -17 -9 -33 4 -74 21 -72 36 -91 99 -127 42 -23 71 -32
118 -34 61 -4 65 -2 141 46 42 27 77 53 77 57 0 3 20 29 45 56 34 37 45 56 45
81 0 38 -3 39 -38 15 -55 -38 -54 -39 -46 30 6 57 19 96 59 183 8 16 24 66 36
110 11 44 25 84 30 89 5 6 9 24 9 41 0 16 9 55 20 85 26 71 38 138 49 282 11
127 22 162 50 153 13 -4 22 5 35 32 17 36 17 37 -6 55 -13 10 -27 18 -31 18
-5 0 -16 9 -25 21 -22 27 -89 34 -101 11z m-255 -1003 c4 -7 -2 -30 -13 -53
-20 -39 -46 -99 -77 -179 l-15 -38 -30 16 c-35 18 -61 52 -61 80 0 26 58 107
107 151 39 34 76 43 89 23z"/>
</g>
</svg>
