<?xml version="1.0" standalone="no"?>
<!DOCTYPE svg PUBLIC "-//W3C//DTD SVG 20010904//EN"
 "http://www.w3.org/TR/2001/REC-SVG-20010904/DTD/svg10.dtd">
<svg version="1.0" xmlns="http://www.w3.org/2000/svg"
 width="209.000000pt" height="207.000000pt" viewBox="0 0 209.000000 207.000000"
 preserveAspectRatio="xMidYMid meet">
<metadata>
Created by potrace 1.16, written by Peter Selinger 2001-2019
</metadata>
<g transform="translate(0.000000,207.000000) scale(0.100000,-0.100000)"
fill="#000000" stroke="none">
<path d="M1161 1854 c-29 -20 -83 -52 -120 -71 -36 -19 -71 -39 -76 -43 -6 -5
-42 -15 -80 -22 -64 -13 -72 -17 -90 -51 l-20 -36 21 -28 c12 -15 31 -29 43
-31 11 -2 21 -6 21 -10 -2 -40 -33 -275 -50 -377 -11 -71 -27 -235 -35 -364
-14 -232 -15 -235 -42 -263 -14 -15 -35 -30 -45 -34 -32 -10 -20 -64 20 -87
32 -19 33 -19 58 -1 62 44 80 53 162 79 188 59 257 75 321 75 51 0 77 20 62
47 -12 24 -32 29 -136 38 -57 5 -88 1 -165 -20 -52 -14 -108 -29 -123 -32
l-28 -5 6 98 c8 135 19 174 49 174 12 0 40 15 62 32 120 100 167 128 212 128
35 0 52 16 52 52 0 39 -26 50 -89 38 -57 -11 -87 -24 -178 -82 -34 -22 -66
-37 -71 -34 -5 3 2 74 15 158 13 84 29 187 34 228 6 41 15 79 20 85 5 5 9 21
9 36 0 15 4 39 9 52 13 32 115 137 134 137 15 0 29 10 108 79 43 37 50 65 20
81 -28 14 -31 14 -90 -26z"/>
</g>
</svg>
