<?xml version="1.0" standalone="no"?>
<!DOCTYPE svg PUBLIC "-//W3C//DTD SVG 20010904//EN"
 "http://www.w3.org/TR/2001/REC-SVG-20010904/DTD/svg10.dtd">
<svg version="1.0" xmlns="http://www.w3.org/2000/svg"
 width="208.000000pt" height="207.000000pt" viewBox="0 0 208.000000 207.000000"
 preserveAspectRatio="xMidYMid meet">
<metadata>
Created by potrace 1.16, written by Peter Selinger 2001-2019
</metadata>
<g transform="translate(0.000000,207.000000) scale(0.100000,-0.100000)"
fill="#000000" stroke="none">
<path d="M1262 1782 c-13 -2 -27 -14 -32 -27 -5 -12 -21 -28 -37 -34 -37 -15
-93 -48 -118 -71 -11 -10 -47 -33 -80 -50 -62 -34 -115 -77 -115 -93 0 -6 19
-28 41 -50 l42 -39 -7 -149 c-4 -82 -14 -175 -22 -206 -9 -32 -24 -107 -34
-168 -11 -60 -31 -157 -44 -215 -14 -58 -26 -115 -26 -127 0 -17 -11 -27 -47
-43 -30 -13 -57 -34 -73 -56 l-24 -36 27 -24 c30 -25 52 -30 62 -14 11 18 34
10 37 -12 3 -20 9 -23 43 -23 37 0 40 2 50 40 9 33 19 44 56 62 24 12 69 27
99 34 30 6 62 13 70 16 8 3 32 7 53 8 31 3 43 -2 60 -21 14 -16 31 -24 54 -24
29 0 36 5 49 35 18 43 18 56 0 80 -26 35 -260 38 -360 5 -17 -6 -33 -7 -38 -2
-5 5 5 64 21 131 31 130 32 132 110 176 20 11 47 28 61 38 13 9 32 17 41 17 8
0 37 14 64 32 35 23 58 31 83 30 59 -4 90 45 62 99 -18 33 -108 22 -155 -20
-20 -18 -171 -81 -194 -81 -7 0 -10 7 -7 18 11 35 36 228 36 284 0 80 26 179
55 204 28 26 48 61 40 73 -3 5 7 18 22 30 16 11 44 33 63 50 19 17 48 41 63
53 18 15 26 29 22 39 -8 21 -43 36 -73 31z"/>
</g>
</svg>
