<?xml version="1.0" standalone="no"?>
<!DOCTYPE svg PUBLIC "-//W3C//DTD SVG 20010904//EN"
 "http://www.w3.org/TR/2001/REC-SVG-20010904/DTD/svg10.dtd">
<svg version="1.0" xmlns="http://www.w3.org/2000/svg"
 width="208.000000pt" height="211.000000pt" viewBox="0 0 208.000000 211.000000"
 preserveAspectRatio="xMidYMid meet">
<metadata>
Created by potrace 1.16, written by Peter Selinger 2001-2019
</metadata>
<g transform="translate(0.000000,211.000000) scale(0.100000,-0.100000)"
fill="#000000" stroke="none">
<path d="M1153 1339 c-38 -39 -72 -78 -77 -87 -5 -10 -27 -38 -50 -64 -73 -82
-73 -83 -157 -247 -39 -77 -46 -146 -21 -204 22 -51 43 -65 119 -83 70 -16
143 2 241 62 40 24 76 44 81 44 15 0 126 108 119 115 -4 4 -32 -4 -63 -19 -31
-14 -59 -26 -64 -26 -5 0 -19 -9 -32 -19 -14 -10 -43 -24 -67 -30 -23 -6 -61
-16 -84 -23 -82 -22 -112 -21 -137 5 -21 23 -22 27 -9 78 11 46 17 55 38 57
14 2 68 19 121 37 156 54 239 103 239 139 0 8 5 18 10 21 6 3 10 52 10 111 0
152 -31 204 -121 204 -23 0 -43 -15 -96 -71z m121 -102 c11 -88 4 -101 -79
-141 -41 -20 -80 -36 -87 -36 -8 0 -19 -5 -26 -12 -9 -9 -13 -7 -18 5 -4 11 4
30 22 53 16 20 35 47 43 61 17 32 122 133 132 128 4 -3 10 -29 13 -58z"/>
</g>
</svg>
