<?xml version="1.0" standalone="no"?>
<!DOCTYPE svg PUBLIC "-//W3C//DTD SVG 20010904//EN"
 "http://www.w3.org/TR/2001/REC-SVG-20010904/DTD/svg10.dtd">
<svg version="1.0" xmlns="http://www.w3.org/2000/svg"
 width="206.000000pt" height="211.000000pt" viewBox="0 0 206.000000 211.000000"
 preserveAspectRatio="xMidYMid meet">
<metadata>
Created by potrace 1.16, written by Peter Selinger 2001-2019
</metadata>
<g transform="translate(0.000000,211.000000) scale(0.100000,-0.100000)"
fill="#000000" stroke="none">
<path d="M1322 1563 c-14 -3 -28 -16 -34 -31 -5 -15 -14 -35 -19 -44 -17 -34
-47 -128 -54 -170 -4 -24 -12 -48 -17 -55 -18 -22 -250 -61 -329 -55 -51 4
-95 -33 -85 -71 10 -41 48 -62 87 -48 18 6 49 11 69 11 20 0 78 7 129 16 51 9
94 14 97 12 2 -2 -2 -67 -9 -144 -10 -109 -11 -153 -1 -203 10 -58 10 -65 -7
-82 -10 -10 -33 -20 -51 -24 -62 -11 -123 -24 -183 -39 -33 -8 -96 -20 -140
-26 -81 -12 -131 -33 -120 -50 9 -15 248 -11 365 6 58 8 128 17 155 20 91 9
98 12 91 40 -4 15 -2 32 5 40 8 10 8 18 1 27 -21 25 -13 378 10 439 17 45 120
74 168 48 16 -8 22 -6 35 14 37 56 -12 98 -113 101 -37 1 -66 5 -65 11 1 5 4
29 8 54 3 25 8 52 11 60 4 14 47 41 87 54 38 12 6 80 -43 88 -14 3 -35 3 -48
1z"/>
</g>
</svg>
