<?xml version="1.0" standalone="no"?>
<!DOCTYPE svg PUBLIC "-//W3C//DTD SVG 20010904//EN"
 "http://www.w3.org/TR/2001/REC-SVG-20010904/DTD/svg10.dtd">
<svg version="1.0" xmlns="http://www.w3.org/2000/svg"
 width="209.000000pt" height="207.000000pt" viewBox="0 0 209.000000 207.000000"
 preserveAspectRatio="xMidYMid meet">
<metadata>
Created by potrace 1.16, written by Peter Selinger 2001-2019
</metadata>
<g transform="translate(0.000000,207.000000) scale(0.100000,-0.100000)"
fill="#000000" stroke="none">
<path d="M896 1750 c-15 -5 -36 -16 -45 -24 -19 -17 -144 -76 -162 -76 -17 0
-240 -110 -276 -137 -43 -32 -43 -60 1 -78 30 -13 39 -13 70 0 19 8 39 15 44
15 5 0 12 -37 16 -82 4 -45 11 -87 17 -94 7 -8 6 -46 -1 -116 -6 -56 -13 -130
-16 -162 -3 -33 -9 -67 -14 -75 -16 -33 -60 -367 -60 -461 0 -64 6 -76 42 -85
47 -12 56 16 73 210 8 90 43 298 55 330 8 22 12 24 34 14 19 -9 31 -8 63 9 44
23 164 72 176 72 8 0 123 51 187 83 31 16 32 48 2 63 -16 8 -34 8 -65 1 -65
-16 -308 -97 -339 -113 -15 -8 -29 -14 -33 -14 -3 0 -2 55 1 123 5 92 2 146
-10 220 -22 124 -16 153 32 174 21 9 57 25 82 36 25 11 59 32 75 47 17 15 56
38 88 51 51 20 58 26 55 49 -2 20 -9 25 -33 27 -16 1 -43 -2 -59 -7z"/>
</g>
</svg>
