<?xml version="1.0" standalone="no"?>
<!DOCTYPE svg PUBLIC "-//W3C//DTD SVG 20010904//EN"
 "http://www.w3.org/TR/2001/REC-SVG-20010904/DTD/svg10.dtd">
<svg version="1.0" xmlns="http://www.w3.org/2000/svg"
 width="209.000000pt" height="207.000000pt" viewBox="0 0 209.000000 207.000000"
 preserveAspectRatio="xMidYMid meet">
<metadata>
Created by potrace 1.16, written by Peter Selinger 2001-2019
</metadata>
<g transform="translate(0.000000,207.000000) scale(0.100000,-0.100000)"
fill="#000000" stroke="none">
<path d="M1098 1540 c-20 -11 -46 -32 -57 -47 -12 -16 -31 -41 -43 -56 -11
-15 -30 -45 -41 -65 -11 -20 -30 -47 -42 -60 -13 -12 -29 -37 -36 -55 -7 -17
-20 -44 -30 -58 -28 -41 -111 -269 -116 -319 -6 -66 20 -102 94 -130 126 -47
263 -13 338 86 38 49 49 44 40 -18 -9 -61 -8 -53 -3 -223 5 -133 13 -166 48
-185 36 -19 85 28 64 61 -4 7 -6 94 -5 193 1 146 5 197 22 263 15 60 20 104
17 159 -4 89 -19 108 -71 93 -18 -5 -46 -9 -64 -9 -18 0 -48 -8 -68 -17 -43
-20 -48 -58 -11 -92 19 -18 30 -21 66 -15 l43 7 -7 -49 c-14 -94 -15 -95 -41
-78 -30 20 -55 12 -83 -26 -13 -17 -29 -30 -36 -30 -7 0 -25 -9 -39 -20 -31
-25 -105 -27 -153 -4 -27 13 -34 22 -34 46 0 75 115 329 198 438 23 30 42 60
42 67 0 7 14 28 31 48 25 29 38 35 69 35 50 0 64 30 28 60 -29 25 -73 24 -120
0z"/>
</g>
</svg>
