<?xml version="1.0" standalone="no"?>
<!DOCTYPE svg PUBLIC "-//W3C//DTD SVG 20010904//EN"
 "http://www.w3.org/TR/2001/REC-SVG-20010904/DTD/svg10.dtd">
<svg version="1.0" xmlns="http://www.w3.org/2000/svg"
 width="207.000000pt" height="213.000000pt" viewBox="0 0 207.000000 213.000000"
 preserveAspectRatio="xMidYMid meet">
<metadata>
Created by potrace 1.16, written by Peter Selinger 2001-2019
</metadata>
<g transform="translate(0.000000,213.000000) scale(0.100000,-0.100000)"
fill="#000000" stroke="none">
<path d="M1075 1591 c-25 -15 -30 -24 -28 -52 3 -55 -30 -181 -119 -444 -22
-66 -45 -131 -51 -145 -5 -14 -25 -67 -43 -119 -29 -82 -32 -98 -21 -120 9
-19 21 -27 46 -29 33 -3 71 19 71 43 0 6 13 29 30 51 16 21 30 44 30 50 0 6 6
17 13 23 8 6 29 41 48 77 19 38 43 71 56 77 13 6 23 15 23 21 0 12 69 70 76
64 2 -3 -2 -24 -10 -49 -8 -24 -22 -77 -31 -117 -15 -68 -15 -76 0 -127 10
-29 27 -63 39 -74 11 -11 29 -29 40 -40 23 -25 131 -38 195 -23 86 20 194 79
280 152 79 67 121 110 121 124 0 14 -24 4 -78 -31 -78 -51 -94 -61 -117 -71
-11 -5 -44 -24 -73 -41 -33 -19 -67 -31 -89 -31 -20 0 -52 -5 -70 -12 -29 -10
-39 -9 -77 9 -60 30 -73 69 -56 167 7 39 17 80 22 90 6 11 10 58 10 104 -1 72
-4 88 -21 105 -18 19 -24 19 -63 8 -43 -13 -61 -26 -130 -96 l-40 -40 7 40 c4
21 13 51 20 65 27 53 67 188 74 250 8 78 -1 129 -25 147 -22 16 -22 16 -59 -6z"/>
</g>
</svg>
