<?xml version="1.0" standalone="no"?>
<!DOCTYPE svg PUBLIC "-//W3C//DTD SVG 20010904//EN"
 "http://www.w3.org/TR/2001/REC-SVG-20010904/DTD/svg10.dtd">
<svg version="1.0" xmlns="http://www.w3.org/2000/svg"
 width="207.000000pt" height="208.000000pt" viewBox="0 0 207.000000 208.000000"
 preserveAspectRatio="xMidYMid meet">
<metadata>
Created by potrace 1.16, written by Peter Selinger 2001-2019
</metadata>
<g transform="translate(0.000000,208.000000) scale(0.100000,-0.100000)"
fill="#000000" stroke="none">
<path d="M1308 1716 c-10 -7 -18 -23 -18 -34 0 -11 -5 -33 -12 -49 -7 -18 -12
-120 -13 -298 -3 -419 -20 -666 -49 -724 -8 -14 -21 -56 -30 -93 -14 -56 -14
-71 -4 -88 34 -55 102 -22 111 53 2 23 14 80 26 127 27 105 52 464 52 750 0
115 4 199 10 207 16 19 23 117 10 141 -13 25 -56 29 -83 8z"/>
<path d="M693 1502 c-13 -2 -31 -14 -41 -27 -16 -20 -17 -32 -10 -102 12 -109
2 -307 -22 -443 -12 -63 -25 -140 -29 -170 -5 -30 -16 -71 -24 -90 -8 -19 -21
-55 -28 -80 -7 -25 -21 -63 -31 -86 -25 -59 -15 -84 33 -84 35 0 41 4 53 33
41 93 69 185 91 301 18 92 20 96 45 96 22 0 178 95 240 146 25 21 68 52 96 70
28 18 66 51 83 73 27 34 30 43 21 61 -10 19 -13 20 -28 7 -9 -8 -48 -32 -87
-52 -38 -21 -79 -46 -91 -56 -11 -10 -47 -32 -80 -49 -32 -17 -72 -39 -89 -49
-43 -28 -69 -27 -61 2 4 12 10 93 13 180 3 87 10 160 15 163 4 3 8 18 8 34 0
16 5 32 10 35 6 3 10 19 10 34 0 23 -7 30 -37 42 -21 8 -48 13 -60 11z"/>
</g>
</svg>
