<?xml version="1.0" standalone="no"?>
<!DOCTYPE svg PUBLIC "-//W3C//DTD SVG 20010904//EN"
 "http://www.w3.org/TR/2001/REC-SVG-20010904/DTD/svg10.dtd">
<svg version="1.0" xmlns="http://www.w3.org/2000/svg"
 width="207.000000pt" height="214.000000pt" viewBox="0 0 207.000000 214.000000"
 preserveAspectRatio="xMidYMid meet">
<metadata>
Created by potrace 1.16, written by Peter Selinger 2001-2019
</metadata>
<g transform="translate(0.000000,214.000000) scale(0.100000,-0.100000)"
fill="#000000" stroke="none">
<path d="M931 1547 c-54 -27 -53 -68 3 -95 23 -12 32 -11 70 7 24 12 54 20 67
19 41 -5 35 28 -10 56 -44 28 -92 33 -130 13z"/>
<path d="M1097 1340 c-14 -11 -29 -20 -34 -20 -9 0 -120 -55 -137 -68 -6 -5
-27 -15 -46 -22 -106 -43 -85 -130 28 -121 8 1 27 15 43 32 16 18 33 29 36 25
4 -3 -5 -19 -19 -34 -13 -15 -38 -49 -53 -77 -16 -27 -49 -77 -73 -110 -53
-71 -76 -123 -97 -211 -20 -85 -19 -130 4 -180 16 -34 25 -43 63 -53 41 -12
49 -10 102 14 61 28 132 86 147 120 5 11 19 36 30 55 38 61 66 160 63 220 -2
30 -3 63 -4 73 0 9 -8 17 -18 17 -13 0 -26 -22 -50 -92 -37 -105 -44 -121 -72
-163 -11 -16 -25 -39 -31 -50 -18 -33 -91 -86 -113 -83 -19 3 -21 9 -19 68 1
41 8 78 20 100 22 42 132 210 150 228 7 7 13 17 13 20 0 4 10 18 23 32 30 34
117 177 117 194 0 7 7 19 15 26 8 7 15 28 15 46 0 33 -1 34 -39 34 -23 0 -48
-8 -64 -20z"/>
</g>
</svg>
