<?xml version="1.0" standalone="no"?>
<!DOCTYPE svg PUBLIC "-//W3C//DTD SVG 20010904//EN"
 "http://www.w3.org/TR/2001/REC-SVG-20010904/DTD/svg10.dtd">
<svg version="1.0" xmlns="http://www.w3.org/2000/svg"
 width="208.000000pt" height="206.000000pt" viewBox="0 0 208.000000 206.000000"
 preserveAspectRatio="xMidYMid meet">
<metadata>
Created by potrace 1.16, written by Peter Selinger 2001-2019
</metadata>
<g transform="translate(0.000000,206.000000) scale(0.100000,-0.100000)"
fill="#000000" stroke="none">
<path d="M1210 1694 c-14 -7 -30 -13 -36 -14 -10 0 -58 -25 -114 -60 -35 -21
-106 -50 -139 -56 -77 -15 -171 -75 -171 -110 0 -7 14 -26 31 -42 l31 -29 47
34 c25 19 73 45 106 59 33 14 66 28 73 31 18 8 15 -31 -8 -123 -11 -44 -20
-99 -20 -124 0 -25 -9 -79 -19 -120 -10 -41 -22 -118 -26 -170 -10 -139 -17
-157 -68 -165 -23 -4 -46 -10 -52 -14 -5 -3 -25 -11 -44 -16 -26 -8 -37 -18
-43 -40 -17 -64 57 -85 153 -44 27 12 58 19 70 16 12 -3 29 -2 38 3 55 31 182
63 251 64 l75 1 18 40 c13 27 16 44 10 55 -14 22 -78 24 -183 6 -144 -25 -134
-31 -125 72 4 48 16 125 26 172 10 47 19 100 19 119 0 30 31 137 78 270 8 25
33 62 54 83 32 31 39 44 36 70 -4 38 -33 52 -68 32z"/>
</g>
</svg>
