<?xml version="1.0" standalone="no"?>
<!DOCTYPE svg PUBLIC "-//W3C//DTD SVG 20010904//EN"
 "http://www.w3.org/TR/2001/REC-SVG-20010904/DTD/svg10.dtd">
<svg version="1.0" xmlns="http://www.w3.org/2000/svg"
 width="210.000000pt" height="203.000000pt" viewBox="0 0 210.000000 203.000000"
 preserveAspectRatio="xMidYMid meet">
<metadata>
Created by potrace 1.16, written by Peter Selinger 2001-2019
</metadata>
<g transform="translate(0.000000,203.000000) scale(0.100000,-0.100000)"
fill="#000000" stroke="none">
<path d="M1199 1560 c-42 -44 -163 -130 -184 -130 -7 0 -48 -18 -91 -41 -55
-28 -87 -39 -105 -35 -21 4 -42 -7 -103 -56 -81 -64 -93 -90 -58 -121 25 -23
56 -21 100 6 59 37 72 40 73 14 1 -12 0 -26 -1 -32 -1 -5 -4 -53 -7 -105 -2
-52 -11 -151 -20 -220 -8 -69 -17 -156 -20 -195 -3 -38 -10 -73 -17 -77 -6 -4
-35 -12 -64 -19 -60 -12 -132 -55 -132 -79 0 -28 31 -62 51 -57 11 3 22 1 25
-5 4 -5 13 -3 22 5 10 8 58 27 107 41 50 15 105 34 124 43 48 22 210 63 306
78 75 12 82 11 108 -7 24 -17 32 -18 58 -8 53 22 49 99 -7 120 -14 6 -68 8
-121 5 l-96 -5 5 178 c4 134 9 185 21 208 26 50 58 207 55 265 -3 53 -4 54
-35 57 -18 2 -33 -1 -33 -6 0 -5 -9 -12 -19 -15 -13 -3 -21 -18 -26 -48 -4
-24 -11 -51 -16 -60 -4 -9 -18 -58 -29 -110 -18 -80 -21 -125 -21 -296 1 -222
7 -204 -64 -218 -102 -20 -95 -21 -95 16 0 19 4 61 10 94 5 33 14 116 20 185
6 69 13 134 15 145 7 38 28 120 36 143 5 13 9 36 9 51 0 33 11 43 63 62 21 7
46 21 56 30 10 9 26 19 37 23 10 3 52 38 92 76 66 62 73 73 70 102 -3 28 -7
34 -31 36 -23 3 -37 -5 -68 -38z"/>
</g>
</svg>
