<?xml version="1.0" standalone="no"?>
<!DOCTYPE svg PUBLIC "-//W3C//DTD SVG 20010904//EN"
 "http://www.w3.org/TR/2001/REC-SVG-20010904/DTD/svg10.dtd">
<svg version="1.0" xmlns="http://www.w3.org/2000/svg"
 width="207.000000pt" height="204.000000pt" viewBox="0 0 207.000000 204.000000"
 preserveAspectRatio="xMidYMid meet">
<metadata>
Created by potrace 1.16, written by Peter Selinger 2001-2019
</metadata>
<g transform="translate(0.000000,204.000000) scale(0.100000,-0.100000)"
fill="#000000" stroke="none">
<path d="M1224 1646 c-11 -8 -39 -15 -63 -14 -37 0 -46 -4 -82 -46 -22 -25
-45 -46 -51 -46 -6 0 -37 -18 -70 -40 -33 -22 -66 -40 -72 -40 -7 0 -37 -13
-67 -29 -30 -16 -74 -36 -99 -45 -25 -10 -60 -30 -79 -46 -27 -23 -32 -33 -27
-54 8 -33 62 -52 100 -35 14 7 29 10 32 6 4 -3 -1 -46 -9 -94 -26 -148 -40
-300 -34 -358 5 -48 3 -57 -16 -70 -12 -8 -34 -15 -49 -15 -15 0 -29 -4 -33
-9 -3 -5 -20 -13 -38 -17 -36 -8 -93 -48 -108 -75 -7 -14 -5 -26 7 -44 26 -40
64 -33 215 44 90 46 156 73 198 81 34 6 88 22 119 35 71 29 174 60 271 80 40
8 76 17 80 20 22 13 115 13 142 0 36 -19 54 -19 73 1 19 18 21 70 4 81 -47 30
-101 30 -303 2 -38 -5 -88 -12 -110 -15 -22 -4 -44 -10 -50 -15 -37 -36 -43
22 -24 246 5 66 12 163 14 215 l5 95 43 40 c24 22 59 52 78 66 46 35 66 73 49
94 -15 19 -20 19 -46 1z m-265 -360 c8 -35 12 -106 10 -176 -2 -65 -1 -122 4
-126 4 -4 7 -38 7 -76 l0 -69 -37 -15 c-63 -27 -102 -29 -109 -8 -4 11 -13 26
-21 35 -12 15 -11 36 7 155 19 127 38 212 61 272 5 13 17 22 29 22 16 0 20 7
20 32 0 46 15 23 29 -46z"/>
</g>
</svg>
