<?xml version="1.0" standalone="no"?>
<!DOCTYPE svg PUBLIC "-//W3C//DTD SVG 20010904//EN"
 "http://www.w3.org/TR/2001/REC-SVG-20010904/DTD/svg10.dtd">
<svg version="1.0" xmlns="http://www.w3.org/2000/svg"
 width="206.000000pt" height="207.000000pt" viewBox="0 0 206.000000 207.000000"
 preserveAspectRatio="xMidYMid meet">
<metadata>
Created by potrace 1.16, written by Peter Selinger 2001-2019
</metadata>
<g transform="translate(0.000000,207.000000) scale(0.100000,-0.100000)"
fill="#000000" stroke="none">
<path d="M1330 1700 c-8 -5 -23 -7 -34 -4 -10 3 -28 2 -40 -4 -11 -5 -41 -15
-66 -22 -25 -7 -54 -19 -66 -26 -11 -7 -44 -19 -74 -28 -29 -9 -58 -20 -64
-25 -6 -5 -34 -17 -63 -26 -60 -19 -103 -55 -103 -84 0 -22 44 -61 68 -61 8 0
49 18 90 41 65 36 171 79 192 79 13 0 17 -48 9 -97 -5 -26 -15 -84 -24 -128
-8 -44 -20 -104 -25 -134 -5 -29 -12 -169 -16 -310 -3 -141 -8 -259 -10 -262
-1 -3 -31 -2 -66 2 -35 5 -124 6 -198 3 -102 -3 -149 -1 -194 11 -69 18 -87
10 -67 -29 8 -13 21 -27 30 -30 9 -3 42 -14 73 -25 63 -22 150 -29 215 -17 39
7 120 -9 178 -36 12 -5 45 -8 75 -6 52 3 55 5 55 30 1 14 6 32 12 40 7 8 8 43
4 96 -8 107 4 480 18 552 6 30 25 114 42 187 31 127 33 132 68 155 24 16 37
32 39 51 2 18 9 27 21 27 9 0 28 14 41 32 22 30 22 32 5 45 -22 15 -103 17
-125 3z"/>
</g>
</svg>
