<?xml version="1.0" standalone="no"?>
<!DOCTYPE svg PUBLIC "-//W3C//DTD SVG 20010904//EN"
 "http://www.w3.org/TR/2001/REC-SVG-20010904/DTD/svg10.dtd">
<svg version="1.0" xmlns="http://www.w3.org/2000/svg"
 width="208.000000pt" height="205.000000pt" viewBox="0 0 208.000000 205.000000"
 preserveAspectRatio="xMidYMid meet">
<metadata>
Created by potrace 1.16, written by Peter Selinger 2001-2019
</metadata>
<g transform="translate(0.000000,205.000000) scale(0.100000,-0.100000)"
fill="#000000" stroke="none">
<path d="M1211 1674 c-29 -13 -59 -24 -66 -24 -6 0 -48 -18 -93 -40 -109 -54
-166 -78 -237 -101 -33 -10 -70 -26 -82 -34 -28 -20 -30 -65 -5 -87 22 -20 59
-31 66 -20 5 8 268 142 279 142 15 0 16 -67 3 -151 -8 -52 -20 -143 -26 -204
-7 -60 -18 -155 -25 -210 -13 -94 -13 -197 0 -256 3 -14 1 -37 -4 -51 -11 -29
-32 -33 -226 -44 -60 -3 -114 -10 -119 -15 -30 -28 80 -57 243 -64 69 -3 130
-10 137 -16 7 -6 23 -9 36 -7 17 2 24 11 26 33 2 17 8 35 13 41 6 7 5 57 -1
130 -9 105 -7 147 15 349 13 127 32 268 40 315 20 112 19 142 -5 168 -27 29
-25 38 13 52 17 7 50 21 72 31 22 10 48 20 58 23 10 3 17 15 17 29 0 19 -7 26
-31 31 -40 8 -35 9 -98 -20z"/>
</g>
</svg>
