<?xml version="1.0" standalone="no"?>
<!DOCTYPE svg PUBLIC "-//W3C//DTD SVG 20010904//EN"
 "http://www.w3.org/TR/2001/REC-SVG-20010904/DTD/svg10.dtd">
<svg version="1.0" xmlns="http://www.w3.org/2000/svg"
 width="207.000000pt" height="215.000000pt" viewBox="0 0 207.000000 215.000000"
 preserveAspectRatio="xMidYMid meet">
<metadata>
Created by potrace 1.16, written by Peter Selinger 2001-2019
</metadata>
<g transform="translate(0.000000,215.000000) scale(0.100000,-0.100000)"
fill="#000000" stroke="none">
<path d="M918 1430 c-15 -9 -44 -83 -40 -102 9 -40 -3 -302 -17 -357 -5 -20
-12 -57 -16 -82 -5 -39 -15 -56 -61 -104 -66 -68 -65 -94 6 -135 13 -7 13 -15
1 -57 -14 -48 -16 -87 -5 -104 3 -5 21 -9 39 -9 40 0 59 27 68 99 3 24 9 47
14 51 8 7 163 -1 280 -15 53 -6 64 -5 69 9 4 10 -1 25 -11 36 -9 10 -14 24
-10 29 4 7 -8 11 -32 11 -21 0 -53 4 -72 10 -19 5 -53 12 -75 15 -23 4 -58 11
-80 18 -38 11 -38 11 -33 53 3 32 17 59 54 106 28 35 57 77 66 94 9 17 23 37
33 45 9 8 27 37 40 64 26 59 58 95 82 95 46 0 57 55 15 71 -16 6 -35 15 -45
20 -9 4 -31 6 -50 3 -36 -6 -32 0 -110 -161 -11 -24 -27 -43 -34 -43 -16 0
-13 76 7 225 15 108 12 119 -31 122 -19 2 -43 -2 -52 -7z"/>
</g>
</svg>
