<?xml version="1.0" standalone="no"?>
<!DOCTYPE svg PUBLIC "-//W3C//DTD SVG 20010904//EN"
 "http://www.w3.org/TR/2001/REC-SVG-20010904/DTD/svg10.dtd">
<svg version="1.0" xmlns="http://www.w3.org/2000/svg"
 width="210.000000pt" height="211.000000pt" viewBox="0 0 210.000000 211.000000"
 preserveAspectRatio="xMidYMid meet">
<metadata>
Created by potrace 1.16, written by Peter Selinger 2001-2019
</metadata>
<g transform="translate(0.000000,211.000000) scale(0.100000,-0.100000)"
fill="#000000" stroke="none">
<path d="M1208 1767 c-16 -15 -31 -47 -42 -92 -9 -39 -24 -83 -32 -98 -9 -18
-12 -42 -8 -67 5 -29 1 -47 -19 -81 -23 -41 -65 -175 -65 -209 0 -8 -3 -31 -5
-50 -3 -19 -11 -69 -17 -110 -11 -78 -29 -174 -62 -325 -10 -49 -20 -100 -21
-112 -1 -12 -5 -25 -9 -29 -27 -27 12 -96 54 -97 27 0 156 40 173 54 11 8 107
60 167 90 20 11 39 23 43 29 9 14 110 80 123 80 6 0 18 11 27 23 8 13 26 29
40 35 32 15 33 42 2 42 -22 0 -110 -39 -197 -86 -25 -14 -70 -37 -100 -52 -30
-15 -57 -29 -60 -32 -13 -13 -152 -72 -157 -66 -4 4 4 49 31 166 9 36 16 79
16 97 0 17 5 35 10 38 6 3 10 22 10 41 0 19 7 48 15 64 8 15 21 67 29 114 21
120 26 135 45 145 44 24 98 225 106 395 3 61 1 71 -20 92 -30 30 -45 30 -77 1z"/>
</g>
</svg>
