<?xml version="1.0" standalone="no"?>
<!DOCTYPE svg PUBLIC "-//W3C//DTD SVG 20010904//EN"
 "http://www.w3.org/TR/2001/REC-SVG-20010904/DTD/svg10.dtd">
<svg version="1.0" xmlns="http://www.w3.org/2000/svg"
 width="205.000000pt" height="207.000000pt" viewBox="0 0 205.000000 207.000000"
 preserveAspectRatio="xMidYMid meet">
<metadata>
Created by potrace 1.16, written by Peter Selinger 2001-2019
</metadata>
<g transform="translate(0.000000,207.000000) scale(0.100000,-0.100000)"
fill="#000000" stroke="none">
<path d="M764 1425 l-34 -36 0 -147 c0 -81 -5 -176 -10 -212 -5 -36 -12 -110
-15 -165 -7 -110 -19 -155 -76 -293 -21 -51 -39 -98 -39 -105 0 -7 9 -23 20
-35 24 -25 70 -29 103 -8 17 11 64 14 200 14 l179 0 -6 -24 c-8 -30 7 -37 59
-26 34 7 40 13 53 50 10 30 11 53 5 80 -9 35 -11 37 -48 35 -196 -8 -385 -7
-396 4 -9 9 -5 36 14 115 16 62 28 148 32 217 3 63 8 117 9 120 2 3 7 66 11
139 7 146 19 187 66 229 21 19 29 35 27 53 -3 23 -7 25 -61 28 -56 3 -60 1
-93 -33z"/>
</g>
</svg>
