<?xml version="1.0" standalone="no"?>
<!DOCTYPE svg PUBLIC "-//W3C//DTD SVG 20010904//EN"
 "http://www.w3.org/TR/2001/REC-SVG-20010904/DTD/svg10.dtd">
<svg version="1.0" xmlns="http://www.w3.org/2000/svg"
 width="207.000000pt" height="207.000000pt" viewBox="0 0 207.000000 207.000000"
 preserveAspectRatio="xMidYMid meet">
<metadata>
Created by potrace 1.16, written by Peter Selinger 2001-2019
</metadata>
<g transform="translate(0.000000,207.000000) scale(0.100000,-0.100000)"
fill="#000000" stroke="none">
<path d="M914 1529 c-26 -13 -40 -69 -64 -274 -11 -88 -23 -176 -28 -195 -5
-20 -10 -69 -11 -110 -2 -76 -14 -138 -50 -269 -12 -41 -21 -88 -21 -105 0
-37 -25 -184 -41 -243 -10 -36 -9 -47 5 -68 20 -30 69 -34 98 -8 10 9 39 20
66 25 146 27 223 39 277 45 33 3 63 11 67 17 14 21 8 66 -12 86 -22 22 -64 21
-150 -5 -59 -19 -215 -31 -223 -18 -11 17 23 245 43 298 11 28 24 86 29 130
23 183 41 357 49 461 7 89 13 117 30 141 25 35 28 66 10 81 -22 16 -52 21 -74
11z"/>
</g>
</svg>
