<?xml version="1.0" standalone="no"?>
<!DOCTYPE svg PUBLIC "-//W3C//DTD SVG 20010904//EN"
 "http://www.w3.org/TR/2001/REC-SVG-20010904/DTD/svg10.dtd">
<svg version="1.0" xmlns="http://www.w3.org/2000/svg"
 width="208.000000pt" height="211.000000pt" viewBox="0 0 208.000000 211.000000"
 preserveAspectRatio="xMidYMid meet">
<metadata>
Created by potrace 1.16, written by Peter Selinger 2001-2019
</metadata>
<g transform="translate(0.000000,211.000000) scale(0.100000,-0.100000)"
fill="#000000" stroke="none">
<path d="M1176 1285 c-61 -22 -111 -75 -217 -232 -41 -63 -59 -71 -59 -30 0
29 -27 116 -41 133 -26 32 -89 11 -119 -39 l-19 -31 -10 25 c-5 14 -7 37 -4
51 4 20 -1 30 -20 43 -22 14 -30 15 -54 3 l-28 -13 -2 -130 c-2 -99 -9 -156
-28 -238 -15 -61 -25 -128 -23 -155 l3 -47 43 -3 c33 -2 42 0 42 12 0 9 11 37
25 63 13 27 34 80 45 119 12 39 36 95 53 125 l31 54 14 -70 c7 -39 11 -99 8
-136 -5 -77 3 -94 52 -103 38 -7 38 -6 72 114 12 41 22 77 23 80 3 8 81 140
100 168 9 15 20 35 23 45 4 9 10 17 15 17 5 0 9 6 9 13 0 6 18 27 40 45 57 47
59 26 11 -99 -66 -173 -86 -262 -85 -366 2 -113 16 -143 69 -143 45 0 56 21
39 71 -24 70 1 211 75 421 30 87 38 189 16 222 -19 29 -41 32 -99 11z"/>
</g>
</svg>
