<?xml version="1.0" standalone="no"?>
<!DOCTYPE svg PUBLIC "-//W3C//DTD SVG 20010904//EN"
 "http://www.w3.org/TR/2001/REC-SVG-20010904/DTD/svg10.dtd">
<svg version="1.0" xmlns="http://www.w3.org/2000/svg"
 width="208.000000pt" height="205.000000pt" viewBox="0 0 208.000000 205.000000"
 preserveAspectRatio="xMidYMid meet">
<metadata>
Created by potrace 1.16, written by Peter Selinger 2001-2019
</metadata>
<g transform="translate(0.000000,205.000000) scale(0.100000,-0.100000)"
fill="#000000" stroke="none">
<path d="M587 1543 c-29 -33 -54 -105 -71 -203 -9 -52 -21 -122 -26 -155 -14
-79 -39 -344 -40 -417 0 -56 1 -58 33 -66 21 -6 36 -6 43 2 17 17 41 103 49
175 10 87 86 299 124 345 8 9 24 35 36 59 13 23 30 43 38 45 24 5 37 -81 37
-236 0 -163 33 -422 59 -467 48 -83 69 17 52 255 -6 85 -13 218 -16 295 -6
168 -22 239 -65 278 -46 41 -80 34 -137 -31 -39 -44 -50 -37 -33 20 7 24 13
59 14 78 1 34 0 35 -40 38 -29 2 -45 -2 -57 -15z"/>
</g>
</svg>
