<?xml version="1.0" standalone="no"?>
<!DOCTYPE svg PUBLIC "-//W3C//DTD SVG 20010904//EN"
 "http://www.w3.org/TR/2001/REC-SVG-20010904/DTD/svg10.dtd">
<svg version="1.0" xmlns="http://www.w3.org/2000/svg"
 width="206.000000pt" height="203.000000pt" viewBox="0 0 206.000000 203.000000"
 preserveAspectRatio="xMidYMid meet">
<metadata>
Created by potrace 1.16, written by Peter Selinger 2001-2019
</metadata>
<g transform="translate(0.000000,203.000000) scale(0.100000,-0.100000)"
fill="#000000" stroke="none">
<path d="M1127 1467 c-63 -50 -166 -161 -167 -181 0 -4 -12 -23 -27 -41 -16
-19 -40 -48 -55 -67 l-28 -33 -1 55 c-2 65 -2 69 6 96 5 16 -1 24 -29 39 l-36
20 -25 -25 c-24 -25 -24 -27 -16 -125 14 -157 2 -279 -49 -538 -6 -27 -10 -59
-10 -71 0 -43 63 -74 87 -44 17 21 63 211 63 257 0 23 7 58 16 79 9 20 24 62
34 93 10 31 35 82 57 114 21 32 43 65 48 73 6 9 27 38 48 65 20 27 37 53 37
58 0 14 64 68 73 62 5 -3 5 -12 2 -22 -4 -9 -11 -29 -16 -46 -4 -16 -17 -62
-28 -100 -46 -161 -57 -359 -25 -458 29 -94 115 -153 130 -91 4 16 2 29 -5 33
-22 14 -43 124 -42 228 1 103 18 206 51 298 26 70 60 217 60 255 0 88 -54 94
-153 17z"/>
</g>
</svg>
