<?xml version="1.0" standalone="no"?>
<!DOCTYPE svg PUBLIC "-//W3C//DTD SVG 20010904//EN"
 "http://www.w3.org/TR/2001/REC-SVG-20010904/DTD/svg10.dtd">
<svg version="1.0" xmlns="http://www.w3.org/2000/svg"
 width="210.000000pt" height="208.000000pt" viewBox="0 0 210.000000 208.000000"
 preserveAspectRatio="xMidYMid meet">
<metadata>
Created by potrace 1.16, written by Peter Selinger 2001-2019
</metadata>
<g transform="translate(0.000000,208.000000) scale(0.100000,-0.100000)"
fill="#000000" stroke="none">
<path d="M1538 1664 c-15 -8 -29 -22 -32 -32 -3 -9 -21 -73 -41 -142 -20 -69
-48 -161 -62 -205 -14 -44 -34 -109 -46 -145 -54 -174 -115 -321 -132 -316 -5
1 -22 45 -36 97 -14 52 -38 119 -52 151 -38 82 -68 179 -62 198 7 21 -11 37
-45 42 -21 2 -25 8 -22 33 8 81 6 98 -9 108 -12 8 -21 5 -37 -11 -12 -12 -26
-22 -30 -22 -14 0 -61 -79 -73 -123 -24 -91 -105 -325 -144 -415 -9 -20 -23
-52 -31 -70 -8 -18 -14 -43 -14 -55 0 -12 -18 -55 -40 -96 -22 -40 -50 -101
-61 -135 -11 -33 -32 -83 -45 -109 -39 -78 -29 -116 32 -120 20 -2 31 5 45 28
24 39 39 73 39 89 0 18 22 71 76 183 25 51 48 112 53 135 4 24 18 61 29 83 12
22 22 44 22 49 0 5 9 27 19 50 11 23 27 68 35 101 21 76 65 167 80 162 25 -8
130 -241 145 -320 6 -31 17 -70 26 -87 9 -17 18 -59 22 -93 5 -56 2 -71 -31
-150 -20 -48 -36 -94 -36 -102 0 -17 56 -55 82 -55 12 0 30 24 53 70 19 38 39
70 44 70 12 0 36 40 45 72 5 21 1 33 -15 49 -21 21 -21 22 -4 58 10 20 21 43
25 52 5 8 20 47 35 85 14 38 30 78 35 89 34 85 76 203 96 270 62 217 129 379
162 394 29 14 22 46 -16 78 -30 26 -45 27 -84 7z"/>
</g>
</svg>
