<?xml version="1.0" standalone="no"?>
<!DOCTYPE svg PUBLIC "-//W3C//DTD SVG 20010904//EN"
 "http://www.w3.org/TR/2001/REC-SVG-20010904/DTD/svg10.dtd">
<svg version="1.0" xmlns="http://www.w3.org/2000/svg"
 width="208.000000pt" height="209.000000pt" viewBox="0 0 208.000000 209.000000"
 preserveAspectRatio="xMidYMid meet">
<metadata>
Created by potrace 1.16, written by Peter Selinger 2001-2019
</metadata>
<g transform="translate(0.000000,209.000000) scale(0.100000,-0.100000)"
fill="#000000" stroke="none">
<path d="M1227 1316 c-26 -8 -70 -26 -98 -41 -34 -17 -60 -24 -77 -21 -15 3
-34 0 -42 -7 -37 -30 -91 -121 -158 -267 -12 -25 -30 -61 -41 -80 -52 -89
-161 -331 -174 -385 -20 -80 -21 -177 -4 -217 8 -18 20 -48 27 -66 7 -18 27
-42 44 -54 17 -12 36 -29 42 -36 7 -10 29 -14 65 -14 45 0 67 8 132 44 92 52
227 173 290 260 26 35 60 81 77 103 113 147 138 198 160 328 20 120 7 313 -25
382 -14 29 -31 58 -38 63 -21 18 -128 22 -180 8z m135 -114 c18 -46 30 -240
18 -302 -19 -101 -33 -145 -50 -165 -10 -11 -25 -33 -34 -50 -22 -41 -38 -64
-61 -92 -10 -13 -37 -50 -60 -82 -48 -71 -189 -200 -262 -241 -71 -40 -103
-39 -142 5 -17 20 -34 48 -38 63 -13 52 21 200 71 305 25 53 46 100 46 103 0
13 35 81 58 112 13 17 37 56 53 85 16 28 37 68 48 88 20 36 138 139 159 139 6
0 25 13 43 29 37 34 95 52 122 39 10 -5 23 -21 29 -36z"/>
</g>
</svg>
