<?xml version="1.0" standalone="no"?>
<!DOCTYPE svg PUBLIC "-//W3C//DTD SVG 20010904//EN"
 "http://www.w3.org/TR/2001/REC-SVG-20010904/DTD/svg10.dtd">
<svg version="1.0" xmlns="http://www.w3.org/2000/svg"
 width="208.000000pt" height="203.000000pt" viewBox="0 0 208.000000 203.000000"
 preserveAspectRatio="xMidYMid meet">
<metadata>
Created by potrace 1.16, written by Peter Selinger 2001-2019
</metadata>
<g transform="translate(0.000000,203.000000) scale(0.100000,-0.100000)"
fill="#000000" stroke="none">
<path d="M1157 1556 c-24 -22 -25 -27 -15 -65 10 -38 12 -40 37 -34 47 13 103
9 114 -8 18 -29 -20 -107 -90 -184 -95 -106 -105 -115 -150 -146 -41 -29 -42
-29 -53 -9 -8 15 -7 25 4 42 7 13 16 35 20 51 4 18 13 27 26 27 27 0 40 28 28
61 -7 19 -6 34 3 50 11 21 8 26 -32 61 -34 29 -53 38 -80 38 -40 0 -49 -11
-49 -59 0 -15 -6 -33 -12 -39 -10 -10 -10 -15 1 -21 25 -16 -9 -252 -41 -288
-15 -15 -19 -30 -15 -50 5 -26 -31 -193 -68 -318 -18 -59 -27 -219 -15 -251
12 -30 43 -46 74 -38 30 7 56 84 37 108 -15 18 -8 110 17 216 11 47 25 110 30
140 19 104 40 137 112 177 60 33 112 73 165 123 12 11 25 20 29 20 9 0 32 24
56 60 8 13 24 35 36 49 25 31 50 100 59 159 7 55 -25 120 -65 128 -14 3 -38
10 -54 15 -48 15 -82 10 -109 -15z"/>
</g>
</svg>
