<?xml version="1.0" standalone="no"?>
<!DOCTYPE svg PUBLIC "-//W3C//DTD SVG 20010904//EN"
 "http://www.w3.org/TR/2001/REC-SVG-20010904/DTD/svg10.dtd">
<svg version="1.0" xmlns="http://www.w3.org/2000/svg"
 width="207.000000pt" height="212.000000pt" viewBox="0 0 207.000000 212.000000"
 preserveAspectRatio="xMidYMid meet">
<metadata>
Created by potrace 1.16, written by Peter Selinger 2001-2019
</metadata>
<g transform="translate(0.000000,212.000000) scale(0.100000,-0.100000)"
fill="#000000" stroke="none">
<path d="M1043 1520 c-45 -23 -59 -53 -44 -93 14 -36 25 -39 55 -16 19 15 37
19 73 17 43 -3 47 -5 55 -35 16 -61 -60 -250 -166 -413 -52 -79 -122 -157
-132 -147 -4 3 -1 57 5 119 7 62 14 142 16 178 3 62 8 105 20 178 12 66 -78
109 -126 61 -19 -19 -20 -27 -12 -107 13 -143 7 -328 -16 -448 -11 -60 -20
-147 -20 -194 0 -47 -8 -123 -17 -170 -9 -47 -18 -136 -21 -198 -5 -102 -3
-115 13 -127 28 -21 59 -18 73 8 7 13 14 66 16 118 2 51 9 119 15 149 5 30 16
110 22 177 10 100 15 124 29 128 9 3 20 12 23 21 3 8 16 18 29 23 13 5 58 47
100 93 132 146 240 385 239 530 0 110 -36 153 -132 163 -44 5 -63 2 -97 -15z"/>
</g>
</svg>
