<?xml version="1.0" standalone="no"?>
<!DOCTYPE svg PUBLIC "-//W3C//DTD SVG 20010904//EN"
 "http://www.w3.org/TR/2001/REC-SVG-20010904/DTD/svg10.dtd">
<svg version="1.0" xmlns="http://www.w3.org/2000/svg"
 width="207.000000pt" height="212.000000pt" viewBox="0 0 207.000000 212.000000"
 preserveAspectRatio="xMidYMid meet">
<metadata>
Created by potrace 1.16, written by Peter Selinger 2001-2019
</metadata>
<g transform="translate(0.000000,212.000000) scale(0.100000,-0.100000)"
fill="#000000" stroke="none">
<path d="M1085 1599 c-22 -5 -69 -14 -105 -20 -82 -14 -119 -45 -104 -87 13
-37 54 -40 156 -8 95 30 116 32 125 9 12 -32 -44 -199 -88 -258 -16 -22 -66
-96 -112 -165 -45 -68 -87 -126 -93 -127 -10 -3 -24 130 -40 362 -3 50 -10
102 -16 118 -13 35 -46 36 -78 2 -22 -23 -23 -32 -21 -128 1 -56 11 -160 22
-230 14 -87 19 -149 14 -190 -3 -34 -5 -105 -5 -157 2 -190 -49 -432 -93 -444
-17 -4 -19 -11 -13 -48 7 -46 27 -68 61 -68 39 0 47 15 110 210 9 30 22 104
27 165 5 60 11 139 15 175 4 57 9 68 38 96 19 17 59 69 90 115 30 46 64 98 75
114 12 17 35 53 53 80 17 28 34 52 38 55 9 7 61 109 76 150 7 19 20 74 28 122
14 79 14 91 0 118 -26 50 -66 60 -160 39z m-275 -579 c0 -5 -4 -10 -10 -10 -5
0 -10 5 -10 10 0 6 5 10 10 10 6 0 10 -4 10 -10z"/>
</g>
</svg>
