<?xml version="1.0" standalone="no"?>
<!DOCTYPE svg PUBLIC "-//W3C//DTD SVG 20010904//EN"
 "http://www.w3.org/TR/2001/REC-SVG-20010904/DTD/svg10.dtd">
<svg version="1.0" xmlns="http://www.w3.org/2000/svg"
 width="208.000000pt" height="212.000000pt" viewBox="0 0 208.000000 212.000000"
 preserveAspectRatio="xMidYMid meet">
<metadata>
Created by potrace 1.16, written by Peter Selinger 2001-2019
</metadata>
<g transform="translate(0.000000,212.000000) scale(0.100000,-0.100000)"
fill="#000000" stroke="none">
<path d="M1100 1773 c-75 -49 -115 -118 -115 -200 0 -40 5 -57 23 -76 l23 -24
-40 -84 c-41 -88 -59 -135 -117 -314 -20 -60 -47 -139 -59 -175 -92 -263 -108
-364 -75 -452 20 -55 23 -57 75 -74 110 -34 189 -4 320 121 49 47 91 85 93 85
3 0 42 -39 87 -86 78 -82 84 -85 121 -82 34 3 39 6 42 30 2 16 -1 28 -7 28 -6
0 -30 26 -53 57 -24 32 -48 63 -54 68 -24 23 -44 66 -44 97 0 19 15 63 35 100
46 86 85 194 85 235 0 17 4 35 10 38 5 3 10 20 9 38 0 18 3 80 6 139 4 67 2
109 -4 113 -6 3 -8 19 -5 34 4 16 1 32 -5 35 -6 4 -11 25 -11 46 0 21 -4 41
-9 45 -5 3 -17 28 -27 57 -37 113 -94 181 -168 203 -63 19 -104 18 -136 -2z
m153 -82 c65 -60 120 -232 131 -411 7 -123 -42 -336 -102 -438 -29 -51 -52
-52 -68 -2 -10 28 -19 37 -51 46 -36 11 -43 10 -68 -10 -34 -27 -30 -58 13
-102 34 -35 62 -78 62 -97 0 -8 -40 -52 -90 -100 -67 -64 -102 -89 -139 -102
-45 -15 -53 -15 -79 -1 -16 8 -32 21 -34 28 -9 24 20 212 42 273 11 33 25 74
29 90 4 17 13 39 18 50 6 11 17 43 26 70 40 134 112 318 153 390 44 78 53 89
89 106 21 10 30 21 30 39 0 28 2 27 -112 14 -62 -7 -63 -6 -63 18 0 34 19 87
44 122 42 58 118 65 169 17z"/>
</g>
</svg>
