<?xml version="1.0" standalone="no"?>
<!DOCTYPE svg PUBLIC "-//W3C//DTD SVG 20010904//EN"
 "http://www.w3.org/TR/2001/REC-SVG-20010904/DTD/svg10.dtd">
<svg version="1.0" xmlns="http://www.w3.org/2000/svg"
 width="207.000000pt" height="212.000000pt" viewBox="0 0 207.000000 212.000000"
 preserveAspectRatio="xMidYMid meet">
<metadata>
Created by potrace 1.16, written by Peter Selinger 2001-2019
</metadata>
<g transform="translate(0.000000,212.000000) scale(0.100000,-0.100000)"
fill="#000000" stroke="none">
<path d="M994 1527 c-42 -28 -84 -97 -84 -136 0 -17 -9 -57 -21 -89 -11 -31
-36 -106 -56 -167 -19 -60 -70 -216 -113 -345 -117 -354 -129 -420 -85 -494
24 -41 28 -44 84 -50 32 -4 66 -4 77 0 50 16 105 46 130 69 15 14 30 25 35 25
4 0 10 8 13 18 4 9 23 35 44 57 20 22 47 54 60 70 l22 30 25 -30 c13 -16 36
-45 51 -62 19 -25 34 -33 58 -33 35 0 56 15 56 41 0 9 -21 45 -47 80 -27 35
-55 80 -65 100 -16 35 -15 38 8 95 54 133 69 202 68 329 0 105 -3 131 -28 205
-25 74 -55 134 -77 150 -3 3 -9 15 -13 28 -4 12 -16 27 -27 32 -12 7 -19 21
-19 40 0 23 -7 33 -30 45 -35 18 -28 19 -66 -8z m79 -172 c33 -58 67 -148 77
-205 25 -129 -7 -358 -47 -343 -7 3 -13 11 -13 18 0 30 -21 23 -74 -26 -67
-61 -69 -77 -21 -149 19 -29 35 -54 35 -56 0 -5 -44 -67 -70 -98 -78 -92 -184
-161 -217 -140 -10 6 -19 20 -21 32 -3 22 40 206 62 262 7 19 30 89 51 155 20
66 41 134 47 150 17 50 38 115 70 220 16 55 38 116 48 135 9 19 20 47 24 63 9
38 20 34 49 -18z"/>
</g>
</svg>
