<?xml version="1.0" standalone="no"?>
<!DOCTYPE svg PUBLIC "-//W3C//DTD SVG 20010904//EN"
 "http://www.w3.org/TR/2001/REC-SVG-20010904/DTD/svg10.dtd">
<svg version="1.0" xmlns="http://www.w3.org/2000/svg"
 width="206.000000pt" height="212.000000pt" viewBox="0 0 206.000000 212.000000"
 preserveAspectRatio="xMidYMid meet">
<metadata>
Created by potrace 1.16, written by Peter Selinger 2001-2019
</metadata>
<g transform="translate(0.000000,212.000000) scale(0.100000,-0.100000)"
fill="#000000" stroke="none">
<path d="M1117 1683 c-36 -19 -103 -104 -133 -169 -22 -48 -26 -52 -67 -58
-25 -4 -51 -12 -60 -19 -22 -16 -45 -128 -76 -367 -17 -127 -20 -140 -39 -140
-35 0 -61 -113 -41 -179 14 -49 -3 -143 -32 -176 -24 -28 -32 -107 -13 -134
15 -21 49 -27 70 -13 23 15 53 92 75 195 7 31 15 57 20 57 10 0 19 -27 19 -61
0 -69 173 -175 335 -204 45 -8 135 -49 162 -74 56 -50 85 -70 97 -65 8 3 26
22 40 43 34 49 40 139 10 172 l-19 21 -17 -22 c-10 -12 -18 -28 -18 -36 0 -26
-20 -23 -102 15 -46 22 -120 49 -166 61 -106 27 -177 63 -228 115 -71 71 -71
75 -10 136 29 30 60 68 69 84 8 17 28 44 44 62 15 17 35 41 43 53 8 12 23 33
33 45 9 13 17 29 17 37 0 7 11 31 25 53 67 110 114 255 122 370 5 80 3 95 -17
138 -35 75 -79 94 -143 60z m65 -154 c7 -49 -1 -86 -43 -209 -33 -95 -134
-304 -158 -330 -9 -9 -38 -48 -65 -88 -61 -89 -97 -98 -66 -16 6 15 19 84 30
153 40 256 47 297 66 349 10 28 24 52 30 52 12 0 64 39 134 100 25 22 50 38
55 37 6 -2 13 -24 17 -48z"/>
</g>
</svg>
