<?xml version="1.0" standalone="no"?>
<!DOCTYPE svg PUBLIC "-//W3C//DTD SVG 20010904//EN"
 "http://www.w3.org/TR/2001/REC-SVG-20010904/DTD/svg10.dtd">
<svg version="1.0" xmlns="http://www.w3.org/2000/svg"
 width="208.000000pt" height="205.000000pt" viewBox="0 0 208.000000 205.000000"
 preserveAspectRatio="xMidYMid meet">
<metadata>
Created by potrace 1.16, written by Peter Selinger 2001-2019
</metadata>
<g transform="translate(0.000000,205.000000) scale(0.100000,-0.100000)"
fill="#000000" stroke="none">
<path d="M1067 1482 c-27 -3 -46 -25 -45 -52 1 -8 0 -57 0 -107 l-2 -92 -32
-17 c-18 -9 -61 -25 -96 -35 -35 -10 -75 -25 -88 -34 -13 -8 -33 -15 -44 -15
-33 0 -46 -47 -24 -87 9 -18 25 -35 35 -38 12 -4 55 11 111 39 51 25 94 43 96
41 3 -2 -3 -35 -11 -72 -9 -37 -18 -99 -21 -138 -2 -38 -11 -90 -19 -115 -74
-227 -77 -259 -21 -280 27 -11 122 -5 164 10 14 5 42 11 62 15 88 14 294 143
339 212 46 69 -45 49 -173 -39 -14 -10 -57 -28 -94 -39 -37 -12 -77 -27 -88
-34 -12 -7 -42 -13 -68 -14 -56 0 -56 -1 -29 107 11 43 25 115 31 162 6 47 16
108 22 135 6 28 12 59 13 70 6 48 46 95 110 125 45 21 64 36 67 52 10 59 -14
75 -86 57 -26 -6 -49 -9 -52 -7 -2 3 0 17 6 32 5 15 10 40 10 56 0 16 5 30 11
32 19 6 0 46 -29 60 -15 7 -39 12 -55 10z"/>
</g>
</svg>
