<?xml version="1.0" standalone="no"?>
<!DOCTYPE svg PUBLIC "-//W3C//DTD SVG 20010904//EN"
 "http://www.w3.org/TR/2001/REC-SVG-20010904/DTD/svg10.dtd">
<svg version="1.0" xmlns="http://www.w3.org/2000/svg"
 width="207.000000pt" height="211.000000pt" viewBox="0 0 207.000000 211.000000"
 preserveAspectRatio="xMidYMid meet">
<metadata>
Created by potrace 1.16, written by Peter Selinger 2001-2019
</metadata>
<g transform="translate(0.000000,211.000000) scale(0.100000,-0.100000)"
fill="#000000" stroke="none">
<path d="M1035 1583 c-50 -6 -186 -44 -229 -63 -23 -10 -73 -28 -113 -40 -67
-20 -74 -26 -99 -68 l-27 -46 32 -28 c31 -27 71 -38 71 -18 0 6 22 10 50 10
48 0 100 16 100 30 0 12 139 80 144 71 3 -4 -1 -27 -8 -52 -7 -24 -19 -105
-25 -179 -6 -74 -16 -187 -22 -250 -12 -136 -15 -432 -5 -449 11 -18 55 -32
71 -24 19 11 65 81 65 98 0 8 -7 15 -15 15 -8 0 -18 12 -21 27 -7 25 1 326 10
388 2 17 7 68 11 115 4 47 13 101 20 120 28 76 46 150 43 172 -2 16 -13 26
-35 33 -61 17 -39 28 85 40 68 8 86 23 80 73 -3 27 -4 27 -78 28 -41 1 -88 0
-105 -3z"/>
</g>
</svg>
