<?xml version="1.0" standalone="no"?>
<!DOCTYPE svg PUBLIC "-//W3C//DTD SVG 20010904//EN"
 "http://www.w3.org/TR/2001/REC-SVG-20010904/DTD/svg10.dtd">
<svg version="1.0" xmlns="http://www.w3.org/2000/svg"
 width="206.000000pt" height="205.000000pt" viewBox="0 0 206.000000 205.000000"
 preserveAspectRatio="xMidYMid meet">
<metadata>
Created by potrace 1.16, written by Peter Selinger 2001-2019
</metadata>
<g transform="translate(0.000000,205.000000) scale(0.100000,-0.100000)"
fill="#000000" stroke="none">
<path d="M1440 1405 c-16 -17 -26 -44 -31 -78 -4 -28 -14 -79 -22 -112 -9 -33
-18 -78 -21 -100 -7 -56 -11 -65 -92 -187 -41 -61 -74 -113 -74 -115 0 -3 -10
-15 -23 -27 -52 -48 -81 -66 -108 -66 -46 0 -53 26 -45 174 10 181 23 266 46
298 38 51 18 85 -55 96 -47 8 -52 7 -70 -17 -14 -19 -20 -44 -22 -96 -1 -38
-4 -157 -8 -263 -6 -212 0 -249 45 -289 36 -32 65 -36 128 -18 76 23 150 78
181 137 7 15 35 53 60 85 26 32 58 78 71 103 14 25 29 52 35 60 7 8 17 47 24
85 17 93 41 184 58 217 9 19 11 45 7 83 -6 51 -8 55 -34 55 -15 0 -36 -10 -50
-25z"/>
</g>
</svg>
