<?xml version="1.0" standalone="no"?>
<!DOCTYPE svg PUBLIC "-//W3C//DTD SVG 20010904//EN"
 "http://www.w3.org/TR/2001/REC-SVG-20010904/DTD/svg10.dtd">
<svg version="1.0" xmlns="http://www.w3.org/2000/svg"
 width="207.000000pt" height="206.000000pt" viewBox="0 0 207.000000 206.000000"
 preserveAspectRatio="xMidYMid meet">
<metadata>
Created by potrace 1.16, written by Peter Selinger 2001-2019
</metadata>
<g transform="translate(0.000000,206.000000) scale(0.100000,-0.100000)"
fill="#000000" stroke="none">
<path d="M1177 1298 c-22 -24 -27 -37 -22 -60 8 -34 -27 -150 -56 -186 -10
-14 -19 -29 -19 -35 0 -5 -16 -32 -35 -58 -19 -27 -35 -53 -35 -57 0 -8 -62
-92 -105 -143 -13 -16 -28 -29 -34 -29 -15 0 -14 49 3 123 50 222 54 291 21
370 -13 32 -19 37 -38 31 -41 -12 -48 -28 -51 -110 -2 -44 -18 -154 -36 -246
-19 -99 -30 -178 -26 -193 10 -41 64 -85 104 -85 34 0 132 46 132 61 0 5 18
30 41 56 72 85 221 356 234 426 4 20 14 41 21 45 20 11 23 100 4 112 -32 20
-75 11 -103 -22z"/>
</g>
</svg>
