<?xml version="1.0" standalone="no"?>
<!DOCTYPE svg PUBLIC "-//W3C//DTD SVG 20010904//EN"
 "http://www.w3.org/TR/2001/REC-SVG-20010904/DTD/svg10.dtd">
<svg version="1.0" xmlns="http://www.w3.org/2000/svg"
 width="209.000000pt" height="210.000000pt" viewBox="0 0 209.000000 210.000000"
 preserveAspectRatio="xMidYMid meet">
<metadata>
Created by potrace 1.16, written by Peter Selinger 2001-2019
</metadata>
<g transform="translate(0.000000,210.000000) scale(0.100000,-0.100000)"
fill="#000000" stroke="none">
<path d="M1438 1357 c-15 -12 -55 -58 -89 -102 -34 -44 -73 -91 -86 -104 -13
-13 -23 -29 -23 -35 0 -7 -21 -43 -47 -82 -27 -38 -57 -85 -67 -104 -10 -19
-27 -44 -36 -55 -10 -11 -23 -30 -29 -42 -18 -36 -36 -27 -60 30 -12 28 -29
63 -37 77 -30 50 -94 188 -94 203 0 9 -5 19 -11 22 -6 4 -8 22 -4 44 7 45 -9
69 -50 72 -126 11 -120 -114 15 -307 22 -31 40 -61 40 -66 0 -5 9 -21 19 -36
13 -17 24 -61 32 -122 14 -106 28 -136 66 -143 20 -4 33 2 52 22 43 45 121
143 121 151 0 5 16 32 35 62 20 29 40 69 45 89 6 20 21 51 35 70 13 19 29 45
35 59 6 14 16 30 23 35 15 13 33 41 51 82 8 18 35 61 59 95 50 71 66 108 45
108 -7 0 -25 -10 -40 -23z"/>
</g>
</svg>
