<?xml version="1.0" standalone="no"?>
<!DOCTYPE svg PUBLIC "-//W3C//DTD SVG 20010904//EN"
 "http://www.w3.org/TR/2001/REC-SVG-20010904/DTD/svg10.dtd">
<svg version="1.0" xmlns="http://www.w3.org/2000/svg"
 width="207.000000pt" height="211.000000pt" viewBox="0 0 207.000000 211.000000"
 preserveAspectRatio="xMidYMid meet">
<metadata>
Created by potrace 1.16, written by Peter Selinger 2001-2019
</metadata>
<g transform="translate(0.000000,211.000000) scale(0.100000,-0.100000)"
fill="#000000" stroke="none">
<path d="M1265 1399 c-45 -7 -79 -19 -155 -52 -14 -7 -40 -24 -58 -39 -18 -16
-37 -28 -42 -28 -4 0 -18 -16 -30 -35 -25 -40 -15 -71 25 -81 27 -7 45 2 141
69 62 42 102 60 92 40 -2 -5 -21 -44 -41 -88 -21 -44 -42 -87 -47 -95 -5 -8
-26 -43 -46 -78 -25 -44 -41 -61 -51 -58 -8 3 -18 6 -23 6 -5 0 -16 7 -24 16
-9 8 -35 17 -59 20 -23 2 -56 7 -73 10 -35 7 -104 -19 -104 -38 1 -55 45 -88
119 -88 41 0 108 -17 115 -29 3 -5 -7 -26 -22 -47 -15 -22 -45 -68 -67 -104
-43 -73 -65 -103 -112 -159 -18 -21 -33 -43 -33 -49 0 -15 50 -72 64 -72 6 0
29 9 50 21 21 11 44 18 52 15 18 -7 109 35 164 75 25 19 54 38 65 44 30 16 53
61 37 77 -9 9 -19 8 -47 -5 -31 -15 -39 -15 -58 -3 -33 21 -67 5 -67 -33 0
-33 -30 -57 -56 -47 -12 5 -11 13 9 48 143 252 141 249 202 255 28 2 99 5 159
6 109 2 133 10 102 36 -15 13 -84 27 -176 37 -30 3 -60 7 -67 9 -7 2 21 68 71
168 84 167 108 245 85 273 -13 15 -21 16 -94 3z"/>
</g>
</svg>
