<?xml version="1.0" standalone="no"?>
<!DOCTYPE svg PUBLIC "-//W3C//DTD SVG 20010904//EN"
 "http://www.w3.org/TR/2001/REC-SVG-20010904/DTD/svg10.dtd">
<svg version="1.0" xmlns="http://www.w3.org/2000/svg"
 width="207.000000pt" height="206.000000pt" viewBox="0 0 207.000000 206.000000"
 preserveAspectRatio="xMidYMid meet">
<metadata>
Created by potrace 1.16, written by Peter Selinger 2001-2019
</metadata>
<g transform="translate(0.000000,206.000000) scale(0.100000,-0.100000)"
fill="#000000" stroke="none">
<path d="M1372 1474 c-11 -7 -43 -23 -72 -34 -29 -11 -64 -30 -78 -40 -14 -11
-33 -20 -43 -20 -11 0 -19 -4 -19 -9 0 -5 -12 -12 -27 -15 -68 -16 -131 -48
-142 -72 -18 -40 -13 -59 20 -83 l30 -23 38 26 c20 14 40 26 43 26 3 0 42 20
86 45 76 43 112 55 112 37 0 -18 -42 -157 -56 -183 -9 -17 -23 -29 -35 -29
-11 0 -36 -7 -57 -16 -20 -9 -46 -17 -57 -18 -43 -6 -63 -18 -74 -45 -10 -24
-9 -34 10 -67 13 -21 39 -53 59 -71 l35 -32 -34 -63 c-19 -35 -50 -95 -70
-134 -20 -39 -53 -91 -73 -116 -42 -50 -48 -86 -19 -112 22 -20 53 -21 146 -7
39 6 94 10 124 11 30 0 80 5 110 10 31 6 86 13 123 16 36 3 74 12 85 20 17 13
17 15 -7 35 -22 19 -35 20 -200 19 -96 -1 -183 -2 -192 -1 -26 2 -22 29 12 91
17 30 44 85 61 122 29 63 34 68 63 67 29 0 66 5 124 17 17 3 22 11 20 25 -3
17 -12 21 -66 24 -35 1 -66 5 -68 8 -8 8 24 95 52 147 22 39 63 160 109 320 8
27 9 49 4 55 -5 5 -9 23 -9 41 0 26 -5 33 -25 36 -13 3 -33 -1 -43 -8z m-180
-499 c-12 -22 -27 -2 -18 22 5 12 10 13 17 6 7 -7 8 -17 1 -28z"/>
</g>
</svg>
