<?xml version="1.0" standalone="no"?>
<!DOCTYPE svg PUBLIC "-//W3C//DTD SVG 20010904//EN"
 "http://www.w3.org/TR/2001/REC-SVG-20010904/DTD/svg10.dtd">
<svg version="1.0" xmlns="http://www.w3.org/2000/svg"
 width="208.000000pt" height="210.000000pt" viewBox="0 0 208.000000 210.000000"
 preserveAspectRatio="xMidYMid meet">
<metadata>
Created by potrace 1.16, written by Peter Selinger 2001-2019
</metadata>
<g transform="translate(0.000000,210.000000) scale(0.100000,-0.100000)"
fill="#000000" stroke="none">
<path d="M1689 1316 c-35 -35 -43 -46 -119 -159 -38 -56 -84 -120 -103 -142
-32 -36 -37 -39 -63 -30 -32 12 -90 84 -127 159 -23 47 -56 80 -82 82 -5 0
-22 6 -37 14 -38 18 -108 5 -157 -30 -22 -17 -45 -30 -49 -30 -5 0 -34 -24
-65 -52 -52 -48 -57 -57 -57 -94 0 -34 4 -43 25 -52 14 -7 30 -12 34 -12 5 0
47 38 93 85 68 69 90 85 114 85 45 0 72 -25 110 -104 19 -39 40 -78 47 -86 21
-28 107 -69 158 -76 l48 -6 57 58 c31 33 65 79 76 103 10 24 31 62 46 85 15
23 38 64 51 91 13 28 30 58 38 67 16 18 14 59 -3 65 -6 2 -21 -7 -35 -21z"/>
</g>
</svg>
