<?xml version="1.0" standalone="no"?>
<!DOCTYPE svg PUBLIC "-//W3C//DTD SVG 20010904//EN"
 "http://www.w3.org/TR/2001/REC-SVG-20010904/DTD/svg10.dtd">
<svg version="1.0" xmlns="http://www.w3.org/2000/svg"
 width="208.000000pt" height="208.000000pt" viewBox="0 0 208.000000 208.000000"
 preserveAspectRatio="xMidYMid meet">
<metadata>
Created by potrace 1.16, written by Peter Selinger 2001-2019
</metadata>
<g transform="translate(0.000000,208.000000) scale(0.100000,-0.100000)"
fill="#000000" stroke="none">
<path d="M1069 1690 c-9 -5 -31 -55 -49 -111 -20 -59 -40 -103 -49 -107 -31
-11 -97 -66 -180 -151 -65 -66 -91 -102 -117 -159 -19 -41 -34 -80 -34 -86 0
-6 -16 -42 -36 -81 -29 -56 -35 -78 -31 -108 6 -41 31 -77 54 -77 8 0 28 -13
44 -28 l30 -28 -31 -79 c-18 -44 -48 -114 -67 -155 -42 -89 -76 -190 -68 -198
10 -10 42 31 85 113 48 89 99 165 112 165 4 0 8 5 8 10 0 6 11 28 25 49 26 38
26 38 107 44 51 4 87 12 98 22 9 8 24 15 34 15 9 0 30 7 47 15 16 9 34 13 40
10 5 -4 26 10 45 29 34 34 35 38 22 58 -20 30 -81 43 -116 24 -47 -26 -96 -44
-134 -51 -36 -6 -38 -4 -38 20 0 14 11 47 25 74 13 27 30 70 36 97 7 27 36 99
65 159 44 92 59 115 95 140 65 46 129 113 123 129 -8 21 -29 26 -63 16 -16 -4
-32 -6 -34 -4 -3 3 6 37 19 75 24 70 30 122 18 153 -7 18 -59 21 -85 6z m-181
-473 c-5 -17 -14 -50 -18 -72 -11 -52 -16 -65 -55 -155 -18 -41 -36 -83 -39
-92 -7 -23 -25 -22 -54 0 l-23 18 50 116 c28 64 51 122 51 128 0 16 81 101 90
95 5 -3 4 -20 -2 -38z"/>
</g>
</svg>
