<?xml version="1.0" standalone="no"?>
<!DOCTYPE svg PUBLIC "-//W3C//DTD SVG 20010904//EN"
 "http://www.w3.org/TR/2001/REC-SVG-20010904/DTD/svg10.dtd">
<svg version="1.0" xmlns="http://www.w3.org/2000/svg"
 width="210.000000pt" height="208.000000pt" viewBox="0 0 210.000000 208.000000"
 preserveAspectRatio="xMidYMid meet">
<metadata>
Created by potrace 1.16, written by Peter Selinger 2001-2019
</metadata>
<g transform="translate(0.000000,208.000000) scale(0.100000,-0.100000)"
fill="#000000" stroke="none">
<path d="M1183 1703 c-41 -93 -46 -105 -63 -158 -17 -54 -43 -75 -95 -75 -74
-1 -190 -104 -255 -229 -14 -27 -45 -88 -70 -135 -25 -48 -53 -96 -62 -106
-26 -27 -22 -73 7 -108 26 -31 95 -72 120 -72 8 0 15 -3 15 -7 0 -5 -29 -66
-64 -138 -36 -71 -79 -161 -96 -198 -30 -66 -36 -106 -15 -109 13 -2 82 95
146 205 28 48 54 87 59 87 5 0 26 29 47 64 42 72 52 76 170 76 34 0 75 5 90
12 46 20 145 106 191 166 36 48 42 62 42 105 l0 50 -47 -5 c-44 -4 -151 -60
-167 -87 -10 -16 5 -41 25 -41 19 0 19 0 1 -20 -47 -51 -85 -70 -137 -70 -29
0 -55 3 -58 6 -4 4 4 28 17 53 13 25 46 91 72 146 27 55 54 105 60 110 14 12
86 162 107 222 10 30 11 45 3 53 -7 7 -7 16 2 30 6 11 12 26 12 34 0 7 7 19
15 26 8 6 23 36 34 66 17 44 19 59 9 79 -9 20 -18 25 -50 25 -38 0 -40 -2 -65
-57z m-184 -475 c-17 -40 -38 -83 -46 -95 -8 -11 -33 -59 -56 -105 -45 -87
-59 -97 -113 -84 -39 10 -36 20 71 206 60 104 79 127 116 135 15 4 33 13 40
22 26 30 20 -7 -12 -79z"/>
</g>
</svg>
