<?xml version="1.0" standalone="no"?>
<!DOCTYPE svg PUBLIC "-//W3C//DTD SVG 20010904//EN"
 "http://www.w3.org/TR/2001/REC-SVG-20010904/DTD/svg10.dtd">
<svg version="1.0" xmlns="http://www.w3.org/2000/svg"
 width="209.000000pt" height="204.000000pt" viewBox="0 0 209.000000 204.000000"
 preserveAspectRatio="xMidYMid meet">
<metadata>
Created by potrace 1.16, written by Peter Selinger 2001-2019
</metadata>
<g transform="translate(0.000000,204.000000) scale(0.100000,-0.100000)"
fill="#000000" stroke="none">
<path d="M887 1646 c-68 -41 -94 -74 -117 -149 -12 -40 -26 -83 -31 -97 -9
-26 -6 -103 6 -141 8 -24 61 -49 104 -49 51 0 124 30 153 64 36 41 76 150 77
206 0 63 -16 97 -50 109 -16 5 -29 16 -29 24 0 18 -42 57 -61 56 -8 0 -31 -11
-52 -23z m83 -146 c18 -43 -23 -154 -67 -181 -18 -12 -40 -19 -47 -16 -19 7
-26 117 -9 135 6 6 15 22 19 35 10 35 30 52 63 53 23 1 32 -5 41 -26z"/>
<path d="M1222 1255 c-82 -62 -150 -138 -211 -237 -44 -72 -51 -90 -51 -136 0
-53 39 -152 59 -152 6 0 13 -9 16 -21 16 -50 178 -80 260 -49 17 6 32 11 33
10 2 -1 10 7 18 17 14 18 19 99 8 127 -11 29 -84 17 -84 -13 0 -37 -29 -61
-73 -61 -50 1 -85 27 -111 84 -26 56 -24 98 7 145 15 22 27 46 27 53 0 23 169
190 188 186 9 -2 16 -10 14 -18 -16 -69 -16 -70 12 -70 40 0 62 16 75 51 15
44 14 81 -5 107 -12 18 -25 22 -69 22 -47 0 -59 -5 -113 -45z"/>
</g>
</svg>
