<?xml version="1.0" standalone="no"?>
<!DOCTYPE svg PUBLIC "-//W3C//DTD SVG 20010904//EN"
 "http://www.w3.org/TR/2001/REC-SVG-20010904/DTD/svg10.dtd">
<svg version="1.0" xmlns="http://www.w3.org/2000/svg"
 width="208.000000pt" height="210.000000pt" viewBox="0 0 208.000000 210.000000"
 preserveAspectRatio="xMidYMid meet">
<metadata>
Created by potrace 1.16, written by Peter Selinger 2001-2019
</metadata>
<g transform="translate(0.000000,210.000000) scale(0.100000,-0.100000)"
fill="#000000" stroke="none">
<path d="M1264 1468 c-58 -62 -100 -123 -132 -190 -17 -36 -37 -70 -43 -73 -6
-4 -30 12 -55 38 -67 71 -130 74 -155 9 -10 -27 21 -77 55 -88 32 -10 86 -57
86 -75 0 -8 -21 -47 -48 -85 -58 -85 -92 -142 -92 -155 0 -17 -71 -99 -86 -99
-17 0 -26 -32 -19 -63 8 -30 42 -47 79 -40 29 6 97 89 138 168 11 22 30 51 42
65 11 14 30 45 41 68 27 56 50 55 120 -8 30 -27 66 -52 79 -56 14 -3 27 -12
30 -20 3 -8 13 -14 21 -14 9 0 23 -7 32 -16 19 -19 57 -15 61 7 3 17 -78 109
-96 109 -6 0 -18 13 -26 28 -8 16 -31 41 -50 56 -20 15 -43 40 -51 56 -14 28
-14 32 15 77 16 26 30 50 30 54 0 4 25 43 55 87 61 89 72 143 37 175 -26 23
-34 22 -68 -15z"/>
</g>
</svg>
