<?xml version="1.0" standalone="no"?>
<!DOCTYPE svg PUBLIC "-//W3C//DTD SVG 20010904//EN"
 "http://www.w3.org/TR/2001/REC-SVG-20010904/DTD/svg10.dtd">
<svg version="1.0" xmlns="http://www.w3.org/2000/svg"
 width="209.000000pt" height="208.000000pt" viewBox="0 0 209.000000 208.000000"
 preserveAspectRatio="xMidYMid meet">
<metadata>
Created by potrace 1.16, written by Peter Selinger 2001-2019
</metadata>
<g transform="translate(0.000000,208.000000) scale(0.100000,-0.100000)"
fill="#000000" stroke="none">
<path d="M1302 1478 c-12 -12 -6 -66 9 -82 19 -21 8 -82 -27 -155 -20 -42 -49
-116 -64 -166 -39 -126 -43 -135 -85 -185 -67 -81 -100 -82 -152 -6 -44 64
-65 86 -84 86 -10 0 -21 5 -25 11 -3 6 -17 8 -30 5 -18 -5 -24 -2 -25 11 0 10
-2 61 -3 113 -2 52 -7 134 -11 183 -7 82 -10 90 -44 127 l-36 39 -43 -26 c-37
-22 -42 -30 -41 -57 1 -17 -2 -52 -6 -78 -8 -53 6 -69 44 -49 12 7 22 7 26 1
3 -5 8 -76 10 -158 6 -174 -4 -236 -76 -478 -13 -42 -11 -88 3 -102 17 -17 78
-16 78 2 0 8 9 33 20 57 11 24 20 58 20 74 0 17 6 55 14 85 7 30 16 67 20 83
5 21 12 27 34 27 20 0 38 -13 69 -49 49 -57 136 -104 174 -94 41 11 78 38 123
91 68 79 85 113 115 229 16 59 42 137 59 172 64 132 65 239 4 262 -15 6 -34
17 -43 25 -11 10 -18 11 -27 2z"/>
</g>
</svg>
