<?xml version="1.0" standalone="no"?>
<!DOCTYPE svg PUBLIC "-//W3C//DTD SVG 20010904//EN"
 "http://www.w3.org/TR/2001/REC-SVG-20010904/DTD/svg10.dtd">
<svg version="1.0" xmlns="http://www.w3.org/2000/svg"
 width="205.000000pt" height="208.000000pt" viewBox="0 0 205.000000 208.000000"
 preserveAspectRatio="xMidYMid meet">
<metadata>
Created by potrace 1.16, written by Peter Selinger 2001-2019
</metadata>
<g transform="translate(0.000000,208.000000) scale(0.100000,-0.100000)"
fill="#000000" stroke="none">
<path d="M1010 1560 c-21 -6 -91 -36 -165 -71 -11 -5 -38 -20 -60 -34 -22 -13
-56 -31 -75 -40 -19 -9 -57 -27 -85 -40 -27 -13 -61 -27 -75 -31 -75 -20 -108
-78 -69 -120 22 -24 69 -33 69 -14 0 13 100 61 112 54 14 -9 9 -57 -17 -139
-14 -44 -25 -88 -25 -98 0 -10 -11 -39 -24 -65 -30 -60 -66 -180 -66 -221 0
-25 6 -34 27 -42 59 -22 67 -12 112 136 11 33 31 92 46 130 31 82 52 156 70
242 7 33 22 76 33 95 11 18 20 42 19 52 -3 27 58 63 78 46 22 -18 55 -6 114
42 55 45 69 74 51 107 -11 22 -28 25 -70 11z"/>
<path d="M904 1292 c-18 -12 -31 -64 -33 -137 -2 -85 -13 -146 -53 -291 l-31
-111 24 -32 c13 -17 35 -34 49 -37 14 -3 39 -11 55 -19 78 -36 124 -54 164
-65 25 -6 67 -24 95 -38 59 -31 118 -35 143 -9 20 20 22 95 9 297 -10 145 -27
212 -60 230 -50 26 -56 12 -50 -112 2 -62 9 -155 15 -206 6 -52 8 -96 6 -99
-3 -2 -18 2 -34 10 -15 8 -44 18 -63 22 -19 4 -64 22 -100 41 -35 19 -68 34
-73 34 -4 0 -17 9 -29 20 l-21 20 23 87 c34 132 56 359 36 391 -8 13 -54 16
-72 4z"/>
</g>
</svg>
