<?xml version="1.0" standalone="no"?>
<!DOCTYPE svg PUBLIC "-//W3C//DTD SVG 20010904//EN"
 "http://www.w3.org/TR/2001/REC-SVG-20010904/DTD/svg10.dtd">
<svg version="1.0" xmlns="http://www.w3.org/2000/svg"
 width="208.000000pt" height="209.000000pt" viewBox="0 0 208.000000 209.000000"
 preserveAspectRatio="xMidYMid meet">
<metadata>
Created by potrace 1.16, written by Peter Selinger 2001-2019
</metadata>
<g transform="translate(0.000000,209.000000) scale(0.100000,-0.100000)"
fill="#000000" stroke="none">
<path d="M1124 1625 c-16 -10 -23 -29 -27 -72 -3 -32 -12 -82 -18 -110 -11
-48 -16 -54 -48 -64 -20 -6 -52 -21 -71 -33 -46 -28 -79 -43 -112 -50 -16 -4
-28 -11 -28 -17 0 -6 -13 -31 -30 -56 -16 -24 -30 -47 -30 -50 0 -3 -16 -39
-36 -80 -35 -72 -37 -78 -31 -153 5 -60 13 -91 34 -129 26 -46 31 -51 64 -51
20 0 38 -3 42 -6 3 -3 41 -8 84 -11 43 -3 80 -6 81 -8 5 -5 4 -81 -2 -148 -6
-72 -2 -82 36 -98 29 -12 32 -11 54 17 27 32 31 53 38 169 3 44 5 81 6 83 0 1
8 2 19 2 28 0 135 86 181 147 14 18 44 57 68 87 55 69 67 136 43 226 -9 33
-21 64 -26 69 -6 5 -59 30 -118 57 -94 43 -107 51 -102 69 10 35 18 172 11
199 -5 20 -13 26 -34 26 -15 0 -37 -7 -48 -15z m-59 -372 c-2 -16 -9 -77 -15
-138 -26 -274 -23 -265 -82 -265 -56 1 -131 18 -140 33 -32 49 22 246 75 273
15 8 27 20 27 27 1 22 98 93 132 96 4 1 5 -11 3 -26z m233 -26 c47 -47 53 -99
18 -147 -14 -19 -32 -49 -40 -65 -19 -41 -125 -140 -137 -128 -5 5 -5 33 1 68
6 33 15 105 20 159 6 55 14 104 20 110 5 5 10 19 10 29 0 32 66 15 108 -26z"/>
</g>
</svg>
