<?xml version="1.0" standalone="no"?>
<!DOCTYPE svg PUBLIC "-//W3C//DTD SVG 20010904//EN"
 "http://www.w3.org/TR/2001/REC-SVG-20010904/DTD/svg10.dtd">
<svg version="1.0" xmlns="http://www.w3.org/2000/svg"
 width="208.000000pt" height="207.000000pt" viewBox="0 0 208.000000 207.000000"
 preserveAspectRatio="xMidYMid meet">
<metadata>
Created by potrace 1.16, written by Peter Selinger 2001-2019
</metadata>
<g transform="translate(0.000000,207.000000) scale(0.100000,-0.100000)"
fill="#000000" stroke="none">
<path d="M982 1485 c-37 -31 -89 -182 -84 -247 0 -13 -7 -18 -25 -18 -57 0
-116 -78 -152 -202 -12 -40 -26 -80 -30 -88 -5 -9 -14 -42 -21 -73 -13 -55
-12 -58 13 -96 15 -22 40 -47 57 -56 35 -18 37 -38 15 -111 -18 -60 -19 -104
-2 -104 6 1 35 40 62 87 36 63 57 89 75 94 14 4 80 7 147 8 l121 1 52 59 c51
60 87 139 112 252 10 47 -4 159 -21 159 -4 0 -15 16 -24 35 -9 19 -29 41 -45
49 -29 15 -66 11 -183 -19 -15 -4 -30 -2 -33 4 -8 13 21 135 45 185 24 51 24
83 0 96 -30 15 -47 12 -79 -15z m204 -367 c9 -18 23 -41 32 -50 14 -16 13 -25
-6 -92 -12 -41 -22 -80 -22 -88 0 -8 -19 -32 -42 -55 -43 -41 -43 -41 -131
-45 -55 -2 -87 1 -87 7 0 6 10 38 21 70 12 33 31 102 43 154 l22 94 45 17 c24
10 59 18 76 19 27 1 35 -4 49 -31z m-312 -115 c-2 -21 -13 -73 -24 -115 -11
-43 -20 -80 -20 -83 0 -11 -28 -4 -39 9 -9 10 -4 31 19 89 16 41 30 81 30 87
0 17 19 50 30 50 4 0 6 -17 4 -37z"/>
</g>
</svg>
