<?xml version="1.0" standalone="no"?>
<!DOCTYPE svg PUBLIC "-//W3C//DTD SVG 20010904//EN"
 "http://www.w3.org/TR/2001/REC-SVG-20010904/DTD/svg10.dtd">
<svg version="1.0" xmlns="http://www.w3.org/2000/svg"
 width="205.000000pt" height="209.000000pt" viewBox="0 0 205.000000 209.000000"
 preserveAspectRatio="xMidYMid meet">
<metadata>
Created by potrace 1.16, written by Peter Selinger 2001-2019
</metadata>
<g transform="translate(0.000000,209.000000) scale(0.100000,-0.100000)"
fill="#000000" stroke="none">
<path d="M979 1417 c-79 -46 -90 -55 -133 -119 -31 -45 -40 -69 -41 -105 -1
-27 -10 -94 -19 -151 -10 -57 -15 -110 -12 -117 5 -13 -19 -89 -36 -111 -5 -7
-57 -13 -126 -16 -127 -5 -158 -15 -173 -55 -12 -31 4 -88 27 -97 29 -11 160
-6 210 8 27 7 74 14 104 15 30 1 58 5 63 10 6 6 12 31 14 58 2 26 8 62 13 78
5 17 12 71 15 120 8 114 33 262 48 291 14 26 94 94 110 94 7 0 29 -15 49 -34
28 -26 38 -44 44 -81 10 -70 -3 -210 -25 -263 -33 -81 -34 -166 -2 -204 6 -7
22 -29 34 -48 14 -22 34 -37 52 -41 42 -9 146 -9 169 0 27 11 49 97 33 131
-15 31 -43 37 -67 15 -10 -9 -33 -18 -52 -18 -28 -2 -35 3 -52 35 -20 36 -20
37 -2 130 14 71 18 124 14 214 -5 142 -23 191 -96 254 -58 49 -87 51 -163 7z"/>
</g>
</svg>
