<?xml version="1.0" standalone="no"?>
<!DOCTYPE svg PUBLIC "-//W3C//DTD SVG 20010904//EN"
 "http://www.w3.org/TR/2001/REC-SVG-20010904/DTD/svg10.dtd">
<svg version="1.0" xmlns="http://www.w3.org/2000/svg"
 width="208.000000pt" height="204.000000pt" viewBox="0 0 208.000000 204.000000"
 preserveAspectRatio="xMidYMid meet">
<metadata>
Created by potrace 1.16, written by Peter Selinger 2001-2019
</metadata>
<g transform="translate(0.000000,204.000000) scale(0.100000,-0.100000)"
fill="#000000" stroke="none">
<path d="M1107 1204 c-4 -4 -22 -9 -40 -10 -17 -2 -61 -8 -97 -14 -96 -16
-198 -20 -225 -10 -29 11 -89 -11 -99 -35 -18 -48 -2 -68 87 -108 l58 -27 24
26 c24 26 26 27 190 50 64 9 199 1 305 -17 73 -13 91 -12 107 3 22 23 -10 55
-75 74 -67 20 -191 60 -213 68 -8 4 -18 3 -22 0z m-162 -74 c-3 -5 -11 -10
-16 -10 -6 0 -7 5 -4 10 3 6 11 10 16 10 6 0 7 -4 4 -10z"/>
</g>
</svg>
