<?xml version="1.0" standalone="no"?>
<!DOCTYPE svg PUBLIC "-//W3C//DTD SVG 20010904//EN"
 "http://www.w3.org/TR/2001/REC-SVG-20010904/DTD/svg10.dtd">
<svg version="1.0" xmlns="http://www.w3.org/2000/svg"
 width="206.000000pt" height="204.000000pt" viewBox="0 0 206.000000 204.000000"
 preserveAspectRatio="xMidYMid meet">
<metadata>
Created by potrace 1.16, written by Peter Selinger 2001-2019
</metadata>
<g transform="translate(0.000000,204.000000) scale(0.100000,-0.100000)"
fill="#000000" stroke="none">
<path d="M1181 1519 c-62 -62 -126 -151 -133 -185 -2 -15 -14 -20 -53 -22 -31
-2 -58 -10 -70 -21 -11 -10 -39 -30 -62 -45 -24 -15 -57 -49 -77 -80 -73 -114
-90 -162 -87 -245 3 -80 37 -120 140 -167 61 -28 85 -34 143 -34 61 0 69 -2
64 -17 -2 -10 -7 -34 -11 -53 -12 -70 -40 -141 -65 -164 -23 -23 -34 -25 -143
-27 l-118 -2 -29 34 c-26 30 -30 32 -44 19 -18 -17 -38 -112 -30 -135 9 -23
47 -28 122 -18 69 10 87 10 207 -2 l70 -6 53 51 c28 29 54 62 57 74 2 11 14
61 25 110 12 49 23 105 24 124 3 35 12 45 95 109 26 21 96 161 93 188 -9 94
-13 110 -36 134 -30 31 -77 56 -131 67 -44 10 -46 16 -24 94 12 44 40 88 89
142 20 23 35 28 78 30 29 1 57 7 62 13 17 21 -1 50 -46 73 -71 36 -93 31 -163
-39z m-175 -395 c50 -19 50 -22 50 -164 l-1 -104 -40 -8 c-29 -6 -54 -4 -90 7
-84 27 -95 39 -95 94 0 31 5 53 15 61 8 7 15 18 15 25 0 14 82 105 95 105 5 0
28 -7 51 -16z m219 -51 c20 -20 15 -67 -13 -121 -32 -63 -43 -53 -41 40 1 45
3 86 6 91 7 12 31 8 48 -10z"/>
</g>
</svg>
