<?xml version="1.0" standalone="no"?>
<!DOCTYPE svg PUBLIC "-//W3C//DTD SVG 20010904//EN"
 "http://www.w3.org/TR/2001/REC-SVG-20010904/DTD/svg10.dtd">
<svg version="1.0" xmlns="http://www.w3.org/2000/svg"
 width="205.000000pt" height="206.000000pt" viewBox="0 0 205.000000 206.000000"
 preserveAspectRatio="xMidYMid meet">
<metadata>
Created by potrace 1.16, written by Peter Selinger 2001-2019
</metadata>
<g transform="translate(0.000000,206.000000) scale(0.100000,-0.100000)"
fill="#000000" stroke="none">
<path d="M1347 1518 c-22 -24 -57 -65 -78 -93 -92 -120 -107 -132 -199 -154
-74 -19 -85 -19 -93 -6 -8 16 -63 20 -84 7 -24 -15 -133 -246 -133 -281 0 -36
65 -149 105 -183 21 -18 79 -35 155 -46 l45 -7 -2 -40 c-4 -77 -26 -180 -50
-229 -28 -54 -9 -53 -178 -18 -73 15 -125 19 -193 16 -100 -4 -112 -7 -112
-29 0 -23 39 -42 110 -54 36 -6 110 -18 165 -27 55 -10 113 -23 128 -31 15 -8
31 -12 36 -9 4 3 15 -4 24 -15 9 -10 28 -19 41 -19 19 0 29 10 46 47 55 117
69 155 74 200 2 26 12 80 22 120 15 56 24 73 40 77 42 11 159 110 173 146 19
52 31 193 20 235 -13 48 -29 67 -86 103 -23 15 -43 32 -43 38 0 5 13 23 30 39
16 16 42 46 56 67 25 35 29 37 44 23 38 -35 78 -3 41 34 -15 15 -19 28 -14 56
4 26 1 41 -12 55 -25 28 -33 26 -78 -22z m-232 -425 c-7 -136 -26 -225 -47
-229 -9 -1 -37 2 -63 8 -38 8 -53 18 -85 60 -39 48 -39 50 -25 81 8 18 19 44
25 58 8 20 21 29 53 35 32 7 43 14 45 31 2 14 16 27 40 37 63 26 62 26 57 -81z
m166 31 c21 -23 24 -33 21 -97 -1 -44 -9 -81 -19 -97 -27 -43 -56 -70 -75 -70
-15 0 -17 6 -12 48 4 26 11 65 16 87 5 22 12 56 14 75 12 90 17 95 55 54z"/>
</g>
</svg>
