<?xml version="1.0" standalone="no"?>
<!DOCTYPE svg PUBLIC "-//W3C//DTD SVG 20010904//EN"
 "http://www.w3.org/TR/2001/REC-SVG-20010904/DTD/svg10.dtd">
<svg version="1.0" xmlns="http://www.w3.org/2000/svg"
 width="206.000000pt" height="202.000000pt" viewBox="0 0 206.000000 202.000000"
 preserveAspectRatio="xMidYMid meet">
<metadata>
Created by potrace 1.16, written by Peter Selinger 2001-2019
</metadata>
<g transform="translate(0.000000,202.000000) scale(0.100000,-0.100000)"
fill="#000000" stroke="none">
<path d="M1260 1673 c-30 -13 -57 -28 -60 -33 -3 -4 -14 -10 -26 -14 -11 -3
-45 -21 -75 -39 -53 -32 -150 -74 -219 -96 -19 -6 -63 -30 -97 -54 -55 -36
-63 -46 -63 -73 0 -36 26 -64 61 -64 26 0 68 25 82 48 10 16 125 72 147 72 8
0 23 -12 33 -25 16 -22 16 -32 6 -92 -14 -85 -77 -334 -88 -348 -5 -5 -12 -26
-16 -45 -15 -72 -97 -307 -129 -370 -56 -111 -128 -279 -124 -289 11 -33 128
77 128 121 0 9 8 22 18 27 31 17 93 155 169 377 l37 111 19 -23 c24 -31 55
-30 98 1 71 51 250 131 274 122 19 -8 35 -181 36 -407 2 -204 1 -215 -17 -212
-10 2 -25 14 -33 25 -8 12 -37 45 -66 72 -28 28 -69 79 -91 114 -45 75 -111
151 -131 151 -20 0 -16 -13 22 -84 19 -36 35 -71 35 -78 0 -29 66 -146 109
-194 25 -28 71 -81 101 -117 30 -36 65 -71 78 -76 55 -26 100 -1 74 39 -9 14
-8 21 3 30 13 10 15 58 15 281 0 260 -13 433 -42 546 -17 68 -27 71 -111 29
-41 -20 -81 -36 -91 -36 -27 0 -208 -90 -238 -118 -16 -14 -28 -20 -28 -14 0
7 18 74 39 150 46 161 64 280 51 337 -5 22 -10 45 -10 51 0 9 179 114 231 136
21 8 28 37 18 66 -11 30 -57 28 -129 -5z m-310 -948 c-7 -8 -16 -12 -21 -9
-13 8 -1 24 18 24 13 0 13 -3 3 -15z"/>
</g>
</svg>
