<?xml version="1.0" standalone="no"?>
<!DOCTYPE svg PUBLIC "-//W3C//DTD SVG 20010904//EN"
 "http://www.w3.org/TR/2001/REC-SVG-20010904/DTD/svg10.dtd">
<svg version="1.0" xmlns="http://www.w3.org/2000/svg"
 width="207.000000pt" height="203.000000pt" viewBox="0 0 207.000000 203.000000"
 preserveAspectRatio="xMidYMid meet">
<metadata>
Created by potrace 1.16, written by Peter Selinger 2001-2019
</metadata>
<g transform="translate(0.000000,203.000000) scale(0.100000,-0.100000)"
fill="#000000" stroke="none">
<path d="M1408 1714 c-29 -19 -66 -48 -83 -65 -75 -74 -215 -161 -295 -184
-14 -3 -44 -15 -67 -26 -24 -10 -52 -19 -62 -19 -11 0 -22 -4 -25 -9 -3 -4
-19 -11 -36 -14 -17 -4 -43 -15 -58 -25 -15 -11 -39 -27 -54 -36 -34 -20 -37
-57 -6 -86 27 -25 38 -25 91 -1 115 52 185 80 211 87 l29 7 -6 -119 c-5 -86
-16 -159 -42 -263 -20 -79 -40 -151 -45 -161 -15 -28 -75 -304 -105 -485 -10
-55 -21 -122 -26 -148 -14 -81 4 -96 57 -49 26 22 35 42 52 117 11 50 26 126
32 170 13 91 43 217 130 550 26 102 43 191 46 245 6 94 28 185 53 214 9 10 36
32 61 49 25 17 50 36 57 42 6 5 39 35 73 65 98 87 132 156 85 174 -8 3 -38
-11 -67 -30z"/>
<path d="M1625 1262 c-11 -4 -32 -15 -45 -25 -14 -10 -68 -46 -121 -81 -135
-88 -165 -122 -153 -171 7 -27 40 -51 63 -46 7 1 45 35 85 74 68 68 132 114
143 103 13 -13 1 -319 -18 -461 -5 -38 -14 -117 -20 -175 -14 -131 -28 -208
-39 -215 -5 -3 -19 16 -32 41 -12 25 -32 50 -43 54 -28 11 -42 29 -96 123 -44
78 -71 108 -84 95 -9 -9 52 -186 74 -218 10 -14 25 -39 34 -57 10 -18 53 -74
98 -125 133 -153 142 -140 179 232 6 63 15 138 20 165 5 28 17 151 25 273 17
242 8 383 -24 410 -16 13 -16 13 -46 4z"/>
</g>
</svg>
