<?xml version="1.0" standalone="no"?>
<!DOCTYPE svg PUBLIC "-//W3C//DTD SVG 20010904//EN"
 "http://www.w3.org/TR/2001/REC-SVG-20010904/DTD/svg10.dtd">
<svg version="1.0" xmlns="http://www.w3.org/2000/svg"
 width="209.000000pt" height="201.000000pt" viewBox="0 0 209.000000 201.000000"
 preserveAspectRatio="xMidYMid meet">
<metadata>
Created by potrace 1.16, written by Peter Selinger 2001-2019
</metadata>
<g transform="translate(0.000000,201.000000) scale(0.100000,-0.100000)"
fill="#000000" stroke="none">
<path d="M1625 1743 c-11 -3 -31 -15 -45 -28 -14 -12 -53 -35 -87 -50 -34 -15
-70 -36 -79 -46 -9 -11 -23 -19 -29 -19 -7 0 -26 -7 -41 -15 -16 -8 -37 -15
-46 -15 -10 0 -37 -6 -60 -14 -168 -54 -251 -77 -282 -80 -72 -5 -125 -93 -66
-109 11 -3 20 -12 20 -21 0 -9 8 -16 18 -16 18 0 116 38 142 55 29 19 112 55
126 55 20 0 176 50 189 61 6 4 51 28 100 52 99 49 190 117 200 148 7 21 -10
50 -29 48 -6 -1 -20 -3 -31 -6z"/>
<path d="M1360 1130 c-74 -38 -162 -81 -195 -95 -33 -14 -71 -32 -85 -39 -14
-8 -50 -21 -81 -30 -105 -31 -167 -84 -141 -122 18 -28 48 -33 83 -15 19 11
71 30 114 44 84 27 140 51 165 72 8 7 38 20 66 28 58 17 130 52 139 67 9 15
53 32 94 35 19 2 38 10 42 17 20 31 -19 109 -55 108 -6 0 -72 -32 -146 -70z"/>
<path d="M1640 728 c0 -13 5 -29 12 -36 8 -8 5 -14 -16 -22 -15 -5 -32 -10
-38 -10 -21 0 -168 -63 -168 -71 0 -5 -8 -9 -18 -9 -31 0 -185 -55 -312 -112
-35 -16 -78 -32 -94 -35 -17 -4 -65 -24 -107 -45 -42 -21 -80 -38 -84 -38 -5
0 -36 -14 -70 -30 -66 -32 -129 -98 -119 -124 6 -17 41 -31 64 -27 20 4 201
91 220 106 8 7 62 29 120 50 58 21 107 41 110 45 3 5 32 17 65 28 58 19 92 33
173 69 20 9 39 17 42 18 3 0 19 8 35 17 32 17 179 68 196 68 5 0 29 9 52 20
26 13 60 20 87 20 91 -3 87 -5 95 51 4 28 3 55 -1 59 -5 5 -31 11 -59 13 -27
3 -80 8 -117 13 -67 7 -68 7 -68 -18z m-660 -358 c0 -11 -4 -20 -9 -20 -11 0
-22 26 -14 34 12 12 23 5 23 -14z"/>
</g>
</svg>
