<?xml version="1.0" standalone="no"?>
<!DOCTYPE svg PUBLIC "-//W3C//DTD SVG 20010904//EN"
 "http://www.w3.org/TR/2001/REC-SVG-20010904/DTD/svg10.dtd">
<svg version="1.0" xmlns="http://www.w3.org/2000/svg"
 width="206.000000pt" height="203.000000pt" viewBox="0 0 206.000000 203.000000"
 preserveAspectRatio="xMidYMid meet">
<metadata>
Created by potrace 1.16, written by Peter Selinger 2001-2019
</metadata>
<g transform="translate(0.000000,203.000000) scale(0.100000,-0.100000)"
fill="#000000" stroke="none">
<path d="M1285 1267 c-33 -13 -71 -30 -85 -39 -14 -9 -38 -20 -55 -23 -16 -4
-55 -16 -85 -27 -41 -15 -69 -18 -110 -14 -45 5 -61 2 -87 -14 -41 -25 -47
-67 -16 -102 20 -23 43 -23 144 2 131 31 238 68 314 108 78 42 103 74 81 107
-18 27 -31 27 -101 2z"/>
<path d="M1405 892 c-13 -11 -156 -41 -225 -46 -64 -6 -214 -45 -281 -74 -73
-32 -101 -89 -61 -125 26 -23 34 -22 109 18 36 19 74 35 84 35 10 0 40 7 66
16 26 9 57 17 70 19 59 6 203 40 203 47 0 4 6 8 14 8 7 0 34 9 59 20 47 21 66
53 45 77 -12 14 -69 18 -83 5z"/>
<path d="M1614 535 c-9 -24 -50 -41 -144 -60 -47 -10 -109 -29 -139 -42 -29
-12 -64 -23 -76 -23 -30 0 -198 -55 -227 -74 -13 -8 -59 -24 -103 -36 -44 -12
-102 -29 -130 -37 -27 -8 -67 -19 -88 -24 -45 -11 -116 -54 -124 -75 -9 -23
13 -63 42 -76 21 -9 33 -7 77 17 60 31 195 80 251 90 20 4 37 11 37 16 0 5 9
9 19 9 11 0 32 6 48 14 53 27 128 53 203 71 41 10 85 23 96 31 26 16 153 42
254 52 l75 7 9 48 c11 58 3 76 -43 94 -27 11 -32 11 -37 -2z"/>
</g>
</svg>
