<?xml version="1.0" standalone="no"?>
<!DOCTYPE svg PUBLIC "-//W3C//DTD SVG 20010904//EN"
 "http://www.w3.org/TR/2001/REC-SVG-20010904/DTD/svg10.dtd">
<svg version="1.0" xmlns="http://www.w3.org/2000/svg"
 width="207.000000pt" height="201.000000pt" viewBox="0 0 207.000000 201.000000"
 preserveAspectRatio="xMidYMid meet">
<metadata>
Created by potrace 1.16, written by Peter Selinger 2001-2019
</metadata>
<g transform="translate(0.000000,201.000000) scale(0.100000,-0.100000)"
fill="#000000" stroke="none">
<path d="M975 1616 c-12 -18 -16 -61 -19 -192 -3 -187 -28 -468 -51 -584 -21
-108 -45 -263 -45 -296 0 -25 -8 -32 -59 -57 -32 -15 -64 -27 -72 -27 -8 0
-36 -11 -64 -25 -27 -13 -61 -25 -74 -25 -26 0 -94 -34 -128 -64 -40 -34 -26
-106 19 -106 10 0 70 25 132 55 62 31 147 67 187 80 l74 25 18 -25 c27 -36 47
-32 47 8 0 20 7 40 18 49 30 25 122 78 136 78 8 0 36 11 63 24 69 34 165 52
298 56 101 3 102 3 133 -30 52 -54 82 -36 82 52 0 36 -11 51 -87 121 -29 25
-53 22 -53 -8 0 -25 -1 -25 -78 -25 -76 0 -176 -14 -217 -30 -11 -4 -51 -18
-90 -30 -38 -12 -91 -33 -117 -46 -26 -13 -52 -24 -59 -24 -15 0 -4 93 26 230
13 58 28 159 34 225 18 185 32 278 46 301 14 22 24 188 12 200 -4 4 -7 22 -7
40 0 64 -73 99 -105 50z"/>
<path d="M1451 1225 c-29 -19 -57 -35 -63 -35 -5 0 -26 -9 -46 -19 -20 -11
-57 -25 -81 -32 -90 -27 -119 -78 -58 -104 17 -7 37 -10 42 -6 6 4 30 13 55
20 56 16 119 49 189 99 66 46 80 65 65 90 -18 28 -48 25 -103 -13z"/>
</g>
</svg>
