<?xml version="1.0" standalone="no"?>
<!DOCTYPE svg PUBLIC "-//W3C//DTD SVG 20010904//EN"
 "http://www.w3.org/TR/2001/REC-SVG-20010904/DTD/svg10.dtd">
<svg version="1.0" xmlns="http://www.w3.org/2000/svg"
 width="206.000000pt" height="205.000000pt" viewBox="0 0 206.000000 205.000000"
 preserveAspectRatio="xMidYMid meet">
<metadata>
Created by potrace 1.16, written by Peter Selinger 2001-2019
</metadata>
<g transform="translate(0.000000,205.000000) scale(0.100000,-0.100000)"
fill="#000000" stroke="none">
<path d="M1241 1924 c-22 -25 -62 -60 -88 -76 -26 -16 -61 -42 -78 -57 -28
-26 -159 -91 -182 -91 -6 0 -21 -8 -34 -19 -26 -20 -154 -59 -283 -86 -16 -3
-44 -21 -63 -40 -35 -35 -37 -57 -11 -107 12 -24 78 -24 109 1 32 25 96 56
166 82 32 12 81 35 108 50 28 15 67 35 88 44 l38 16 16 -38 c9 -21 20 -76 24
-123 22 -209 27 -285 22 -293 -3 -4 -12 -2 -21 6 -13 11 -32 13 -82 8 l-64 -6
-39 -79 c-22 -43 -48 -111 -58 -150 -11 -39 -33 -102 -51 -141 -77 -169 -141
-292 -165 -317 -28 -30 -24 -48 13 -48 29 0 107 73 148 138 64 102 98 181 143
332 13 47 31 92 39 101 8 8 14 19 14 23 0 17 54 76 86 95 l34 20 1 -27 c3 -62
-3 -206 -9 -216 -3 -6 -5 -47 -3 -91 3 -87 -14 -321 -29 -400 -20 -107 -22
-195 -5 -221 17 -26 46 -31 64 -11 6 8 16 49 22 93 6 43 17 117 25 164 7 47
17 160 20 253 6 147 9 167 23 163 9 -3 48 -12 86 -21 39 -10 79 -23 91 -30 11
-7 41 -19 65 -25 40 -11 70 -22 139 -53 14 -7 39 -22 57 -35 l32 -23 21 21
c16 16 21 32 20 68 -3 81 -20 142 -46 159 -33 21 -48 12 -63 -36 -13 -46 -13
-45 -44 -29 -42 21 -53 25 -87 32 -19 4 -57 16 -85 27 -27 10 -81 22 -120 26
l-70 8 -1 190 c-1 165 -16 359 -40 502 l-6 42 84 83 c81 80 128 154 114 177
-14 23 -46 10 -85 -35z"/>
</g>
</svg>
