<?xml version="1.0" standalone="no"?>
<!DOCTYPE svg PUBLIC "-//W3C//DTD SVG 20010904//EN"
 "http://www.w3.org/TR/2001/REC-SVG-20010904/DTD/svg10.dtd">
<svg version="1.0" xmlns="http://www.w3.org/2000/svg"
 width="208.000000pt" height="207.000000pt" viewBox="0 0 208.000000 207.000000"
 preserveAspectRatio="xMidYMid meet">
<metadata>
Created by potrace 1.16, written by Peter Selinger 2001-2019
</metadata>
<g transform="translate(0.000000,207.000000) scale(0.100000,-0.100000)"
fill="#000000" stroke="none">
<path d="M1390 1844 c-19 -14 -44 -33 -55 -43 -11 -10 -51 -36 -89 -60 -63
-38 -68 -40 -62 -19 3 13 6 26 6 31 0 4 6 7 14 7 40 0 27 42 -18 58 -73 27
-106 11 -106 -51 0 -57 -18 -124 -50 -192 -16 -33 -41 -100 -55 -150 -27 -91
-39 -124 -58 -160 -6 -11 -28 -52 -48 -92 -81 -154 -57 -212 81 -204 35 3 78
20 125 51 22 14 70 41 107 60 37 19 84 51 104 72 19 21 39 38 44 38 4 0 28 16
52 35 83 68 128 98 134 93 2 -3 -7 -47 -21 -99 -14 -52 -32 -125 -41 -164 -20
-87 -43 -172 -55 -205 -8 -21 -13 -104 -22 -360 0 -8 2 -33 4 -55 6 -65 5 -65
-276 83 -50 26 -104 49 -130 54 -18 4 -17 6 8 18 15 7 27 17 27 22 0 5 9 6 20
3 12 -4 20 -2 20 4 0 6 21 17 46 23 25 7 57 25 72 40 15 15 31 28 36 28 17 0
76 51 76 65 0 24 -33 21 -90 -7 -30 -15 -63 -28 -72 -28 -21 0 -80 -22 -168
-62 -35 -17 -94 -36 -131 -44 -37 -8 -78 -18 -91 -23 -13 -4 -45 -11 -73 -15
-27 -4 -79 -16 -115 -26 -36 -10 -81 -21 -101 -24 -39 -7 -89 -46 -89 -69 0
-19 21 -36 57 -46 23 -7 41 -3 79 15 27 13 64 24 82 24 18 0 41 4 51 9 9 5 35
12 57 14 21 3 53 10 69 16 17 6 57 19 89 29 58 18 60 18 78 0 10 -10 27 -18
38 -18 23 0 119 -54 140 -80 8 -10 47 -34 85 -55 39 -20 79 -45 90 -54 11 -10
40 -26 64 -35 24 -9 55 -26 69 -37 48 -37 82 -21 82 38 0 13 7 31 16 40 8 9
13 21 10 28 -2 7 -10 39 -16 72 -15 74 1 387 23 453 8 25 23 81 32 125 9 44
26 97 36 118 11 21 19 44 18 50 -1 7 5 29 14 49 19 41 49 226 40 241 -7 12
-74 -1 -93 -18 -8 -7 -47 -29 -87 -49 -39 -19 -75 -42 -80 -49 -4 -7 -30 -28
-57 -46 -26 -19 -65 -50 -85 -70 -39 -39 -224 -148 -278 -165 -32 -10 -30 11
11 92 18 37 43 95 54 129 23 65 80 181 98 198 5 6 21 26 34 47 13 20 36 43 50
51 26 16 43 30 125 102 28 25 65 57 83 73 25 20 34 36 35 62 2 45 -23 49 -73
14z"/>
</g>
</svg>
