<?xml version="1.0" standalone="no"?>
<!DOCTYPE svg PUBLIC "-//W3C//DTD SVG 20010904//EN"
 "http://www.w3.org/TR/2001/REC-SVG-20010904/DTD/svg10.dtd">
<svg version="1.0" xmlns="http://www.w3.org/2000/svg"
 width="207.000000pt" height="207.000000pt" viewBox="0 0 207.000000 207.000000"
 preserveAspectRatio="xMidYMid meet">
<metadata>
Created by potrace 1.16, written by Peter Selinger 2001-2019
</metadata>
<g transform="translate(0.000000,207.000000) scale(0.100000,-0.100000)"
fill="#000000" stroke="none">
<path d="M1112 1338 c-5 -7 -12 -46 -14 -85 -3 -63 -1 -73 13 -73 19 0 21 -8
45 -211 10 -75 14 -147 11 -160 -4 -13 -35 -52 -69 -86 -57 -56 -272 -239
-337 -288 -15 -11 -56 -43 -92 -71 -35 -29 -84 -62 -109 -75 -25 -12 -52 -28
-60 -34 -8 -7 -39 -20 -67 -30 -29 -9 -53 -20 -53 -25 0 -4 -11 -11 -25 -14
-27 -7 -105 -76 -105 -94 0 -6 10 -21 22 -32 26 -24 57 -21 99 10 15 11 40 22
55 25 46 10 86 27 124 51 19 13 47 26 63 29 15 4 27 10 27 15 0 9 70 30 102
30 13 0 28 4 34 8 5 5 41 19 79 31 39 12 79 26 90 31 11 5 43 16 70 24 28 8
88 26 135 41 47 15 114 31 150 36 36 5 83 11 105 15 22 3 95 6 163 7 118 1
126 -1 176 -28 38 -20 57 -38 64 -59 15 -42 45 -60 71 -44 50 31 27 102 -51
162 -78 58 -211 82 -378 66 -135 -13 -359 -58 -470 -96 -68 -23 -152 -45 -156
-41 -2 2 13 17 33 33 21 16 49 40 63 54 57 55 184 151 209 156 43 9 55 18 82
68 14 26 58 80 97 119 105 107 216 227 226 246 5 9 38 44 73 77 58 56 64 66
66 105 2 43 1 44 -32 47 -29 3 -40 -2 -66 -31 -17 -18 -38 -38 -47 -43 -8 -5
-36 -38 -61 -74 -25 -36 -66 -87 -92 -115 -25 -27 -60 -65 -76 -84 -17 -18
-32 -31 -34 -29 -2 2 -9 67 -15 143 -6 77 -18 175 -26 219 -8 43 -14 80 -14
82 0 10 -89 2 -98 -8z m488 -868 c0 -5 -5 -10 -11 -10 -5 0 -7 5 -4 10 3 6 8
10 11 10 2 0 4 -4 4 -10z"/>
<path d="M626 1088 c-22 -30 -20 -41 10 -77 21 -25 28 -50 40 -137 8 -59 13
-112 10 -120 -12 -30 -176 -49 -176 -19 0 17 -44 25 -110 21 -65 -4 -80 -13
-80 -50 0 -43 16 -56 67 -56 23 0 62 -5 85 -11 35 -10 59 -9 122 4 43 9 83 14
88 11 4 -3 8 -21 8 -40 0 -71 82 -111 127 -61 24 26 41 117 22 117 -7 0 -21
-7 -31 -17 -17 -15 -18 -15 -18 8 0 19 14 33 63 64 34 22 73 45 87 52 33 16
70 49 70 62 0 15 -17 14 -48 -3 -45 -23 -126 -55 -147 -58 -18 -3 -19 3 -18
112 0 63 3 123 4 134 3 13 -10 29 -41 52 -56 41 -111 46 -134 12z"/>
</g>
</svg>
