<?xml version="1.0" standalone="no"?>
<!DOCTYPE svg PUBLIC "-//W3C//DTD SVG 20010904//EN"
 "http://www.w3.org/TR/2001/REC-SVG-20010904/DTD/svg10.dtd">
<svg version="1.0" xmlns="http://www.w3.org/2000/svg"
 width="205.000000pt" height="212.000000pt" viewBox="0 0 205.000000 212.000000"
 preserveAspectRatio="xMidYMid meet">
<metadata>
Created by potrace 1.16, written by Peter Selinger 2001-2019
</metadata>
<g transform="translate(0.000000,212.000000) scale(0.100000,-0.100000)"
fill="#000000" stroke="none">
<path d="M855 1902 c-37 -7 -40 -20 -38 -150 4 -171 -2 -186 -95 -239 -99 -56
-132 -86 -132 -122 0 -16 6 -33 13 -38 21 -18 67 -24 88 -12 11 6 23 9 25 6 2
-2 -2 -31 -10 -65 -13 -57 -27 -90 -119 -280 l-40 -84 20 -26 c11 -15 27 -28
35 -30 13 -2 63 35 208 159 73 61 183 130 205 127 19 -3 20 -10 19 -168 0
-169 -17 -292 -42 -323 -8 -9 -16 -40 -18 -69 -2 -29 -10 -89 -17 -133 -18
-102 -4 -144 48 -145 25 0 65 85 65 139 0 20 7 61 15 91 24 85 25 92 30 145 3
28 10 75 16 105 5 30 11 118 13 195 5 210 9 219 111 251 116 36 148 60 111 81
-8 5 -55 5 -103 2 -48 -3 -91 -5 -94 -3 -15 8 5 52 32 68 16 9 29 23 29 30 0
7 -32 25 -71 40 l-72 28 -26 -20 c-28 -21 -30 -34 -16 -129 7 -46 6 -53 -11
-59 -34 -12 -157 -72 -211 -104 -29 -17 -53 -27 -53 -23 1 21 69 243 85 273
34 67 148 179 250 244 107 70 203 187 153 186 -20 -1 -95 -37 -102 -49 -4 -6
-29 -22 -54 -35 -26 -13 -75 -45 -109 -70 -33 -25 -64 -46 -67 -46 -11 0 -6
148 5 173 6 14 22 30 35 36 30 13 31 29 2 35 -37 8 -92 12 -113 8z m255 -590
c0 -12 -4 -12 -20 3 -11 10 -20 25 -20 33 0 12 4 12 20 -3 11 -10 20 -25 20
-33z"/>
<path d="M778 832 c-53 -25 -154 -118 -169 -156 -7 -17 -22 -40 -32 -51 -10
-11 -26 -36 -35 -55 -8 -19 -24 -46 -34 -59 -10 -13 -18 -40 -18 -62 0 -32 4
-39 19 -39 19 0 51 24 51 39 0 4 18 26 40 50 22 23 40 51 40 62 0 10 4 19 9
19 5 0 28 26 52 58 55 73 85 103 130 129 34 19 39 20 68 6 17 -9 33 -14 35
-12 2 2 1 18 -1 35 -8 54 -82 70 -155 36z"/>
<path d="M1426 768 c-9 -12 -16 -27 -16 -33 0 -22 60 -81 105 -105 27 -14 58
-35 71 -47 27 -27 79 -31 88 -7 11 28 6 111 -6 122 -7 5 -33 15 -58 22 -25 7
-53 21 -63 32 -40 41 -98 49 -121 16z"/>
</g>
</svg>
