<?xml version="1.0" standalone="no"?>
<!DOCTYPE svg PUBLIC "-//W3C//DTD SVG 20010904//EN"
 "http://www.w3.org/TR/2001/REC-SVG-20010904/DTD/svg10.dtd">
<svg version="1.0" xmlns="http://www.w3.org/2000/svg"
 width="208.000000pt" height="213.000000pt" viewBox="0 0 208.000000 213.000000"
 preserveAspectRatio="xMidYMid meet">
<metadata>
Created by potrace 1.16, written by Peter Selinger 2001-2019
</metadata>
<g transform="translate(0.000000,213.000000) scale(0.100000,-0.100000)"
fill="#000000" stroke="none">
<path d="M1521 1881 c-11 -11 -23 -37 -27 -58 -4 -21 -10 -42 -14 -48 -4 -5
-24 -55 -44 -110 -21 -55 -51 -127 -67 -160 -16 -33 -51 -129 -78 -214 l-49
-155 -88 -23 c-73 -20 -107 -36 -195 -95 -59 -39 -113 -82 -120 -95 -7 -14
-21 -29 -31 -34 -31 -16 -22 13 38 128 54 102 114 238 114 256 0 5 8 21 19 35
26 38 101 184 101 198 0 7 14 25 30 41 41 37 72 87 65 105 -10 26 -45 40 -87
33 -43 -8 -70 -31 -99 -87 -10 -21 -43 -55 -72 -76 -28 -22 -58 -46 -66 -55
-7 -10 -18 -17 -24 -17 -5 0 -27 -16 -48 -35 -22 -19 -43 -35 -48 -35 -17 0 4
57 69 185 77 149 95 222 64 256 -9 10 -22 19 -29 19 -14 0 -60 -49 -69 -74 -4
-11 -12 -16 -22 -12 -8 3 -25 1 -36 -5 -19 -10 -20 -17 -14 -71 5 -48 2 -69
-14 -105 -11 -25 -20 -50 -20 -55 0 -6 -15 -42 -34 -82 -18 -39 -39 -82 -45
-96 -7 -14 -25 -50 -42 -80 -16 -30 -29 -62 -29 -71 0 -17 53 -69 70 -69 11 0
60 41 251 209 25 23 49 41 52 41 6 0 -8 -54 -22 -85 -5 -11 -24 -57 -41 -103
-18 -46 -42 -98 -54 -116 -11 -18 -33 -57 -47 -87 -15 -30 -52 -106 -83 -169
-31 -63 -56 -119 -56 -123 0 -4 -9 -20 -20 -36 -17 -22 -19 -32 -11 -53 12
-32 44 -51 70 -43 10 3 56 47 102 97 202 219 356 358 397 358 6 0 12 6 15 14
3 7 22 17 42 20 21 4 61 18 91 32 29 13 60 24 70 24 9 0 51 34 93 75 43 41 80
75 83 75 10 0 -31 -102 -80 -197 l-47 -92 19 -36 c14 -26 28 -36 52 -41 49 -9
81 2 154 51 99 67 150 124 157 174 3 25 2 41 -5 41 -5 0 -38 -20 -73 -45 -88
-62 -138 -95 -144 -95 -10 0 -5 32 10 63 35 78 54 140 66 214 14 92 10 109
-27 123 -31 12 -63 -6 -146 -84 -27 -24 -48 -39 -48 -32 0 20 28 103 48 142
10 22 27 64 37 94 10 30 34 89 54 130 54 110 66 154 55 198 -11 44 -42 54 -73
23z"/>
<path d="M1794 782 c-40 -29 -107 -55 -179 -68 -22 -4 -49 -13 -60 -20 -11 -8
-25 -14 -33 -14 -7 0 -32 -9 -54 -20 -23 -11 -51 -20 -62 -20 -12 0 -41 -7
-65 -16 -24 -8 -60 -17 -80 -19 -37 -5 -130 -26 -191 -44 -111 -32 -190 -54
-230 -63 -45 -11 -160 -82 -160 -100 0 -22 43 -68 63 -68 11 0 39 9 61 19 49
23 109 46 191 71 33 11 78 26 100 34 22 8 52 15 67 16 15 0 30 5 33 10 3 6 17
10 30 10 12 0 54 9 91 20 38 11 87 26 109 32 22 6 45 15 51 20 6 4 31 12 55
17 24 6 62 15 84 21 22 6 58 16 80 21 22 6 70 19 107 30 l67 21 7 44 c5 33 2
50 -10 69 -21 31 -23 31 -72 -3z m-804 -281 c0 -6 -4 -13 -10 -16 -5 -3 -10 1
-10 9 0 9 5 16 10 16 6 0 10 -4 10 -9z m-70 -30 c0 -13 -28 -22 -35 -11 -3 4
1 11 7 13 20 8 28 8 28 -2z"/>
</g>
</svg>
