<?xml version="1.0" standalone="no"?>
<!DOCTYPE svg PUBLIC "-//W3C//DTD SVG 20010904//EN"
 "http://www.w3.org/TR/2001/REC-SVG-20010904/DTD/svg10.dtd">
<svg version="1.0" xmlns="http://www.w3.org/2000/svg"
 width="206.000000pt" height="211.000000pt" viewBox="0 0 206.000000 211.000000"
 preserveAspectRatio="xMidYMid meet">
<metadata>
Created by potrace 1.16, written by Peter Selinger 2001-2019
</metadata>
<g transform="translate(0.000000,211.000000) scale(0.100000,-0.100000)"
fill="#000000" stroke="none">
<path d="M1125 1871 c-39 -10 -145 -64 -215 -109 -70 -46 -177 -102 -195 -102
-7 0 -35 -15 -61 -33 -27 -18 -70 -45 -97 -60 -58 -34 -106 -102 -88 -126 6
-9 19 -28 29 -43 22 -36 49 -35 70 2 9 16 20 30 23 30 4 0 6 -100 5 -222 -1
-172 -4 -222 -14 -226 -7 -2 -21 -12 -30 -21 -9 -10 -33 -26 -52 -37 -19 -10
-46 -27 -59 -36 -32 -24 -41 -15 -37 33 3 31 12 49 38 75 20 19 38 48 42 65
12 59 -18 67 -58 15 -19 -25 -37 -37 -68 -43 -26 -5 -48 -17 -59 -33 -18 -24
-18 -29 2 -140 18 -104 18 -128 8 -260 -13 -171 -13 -164 -11 -262 2 -61 5
-78 17 -78 13 0 45 83 45 119 0 9 7 29 15 45 9 16 18 59 21 96 3 37 9 108 12
156 5 65 11 88 20 86 7 -1 25 6 40 16 15 10 39 23 55 30 24 10 27 9 27 -7 0
-11 -14 -31 -30 -44 -17 -14 -30 -30 -30 -36 0 -5 -8 -16 -19 -23 -10 -7 -26
-28 -36 -47 -22 -44 -38 -221 -24 -274 9 -33 13 -38 36 -35 33 4 98 92 108
146 4 20 15 52 25 72 9 19 23 60 29 90 10 49 18 61 73 111 69 63 71 85 7 75
l-38 -6 10 32 c8 31 82 107 104 108 6 0 30 14 55 30 25 16 48 30 52 30 10 0
-40 -176 -66 -235 -13 -27 -36 -79 -51 -115 -16 -36 -34 -72 -41 -80 -15 -20
-64 -117 -64 -129 0 -13 35 -20 52 -10 9 5 31 32 49 61 18 29 42 64 55 78 50
57 121 225 164 387 10 40 24 81 29 91 6 11 7 22 4 26 -8 8 41 56 56 56 6 0 15
8 20 18 5 10 22 24 38 32 15 8 43 25 61 38 18 13 35 22 38 20 2 -2 -2 -40 -10
-84 -8 -43 -17 -113 -21 -154 -8 -80 -30 -208 -37 -216 -3 -2 -18 15 -34 38
-34 51 -41 57 -63 53 -9 -2 -24 -4 -34 -4 -27 -1 -42 -44 -28 -78 12 -28 110
-113 130 -113 6 0 15 -8 20 -19 12 -22 -7 -143 -22 -138 -10 3 -61 86 -72 117
-7 18 -45 45 -45 32 0 -23 46 -166 72 -227 46 -105 64 -127 101 -123 26 3 33
9 40 38 5 19 9 51 8 70 0 19 6 81 14 136 8 56 15 126 15 155 0 66 46 405 66
478 8 31 14 86 14 123 0 68 0 68 -27 68 -16 0 -39 -7 -53 -15 -14 -8 -32 -17
-40 -21 -30 -14 -149 -94 -155 -104 -19 -30 -24 -2 -17 83 9 121 9 272 -1 323
l-8 40 83 47 c46 26 87 48 92 50 5 2 6 15 2 30 -7 29 -22 32 -81 18z m-201
-238 c12 -30 17 -257 7 -346 -8 -82 -11 -90 -42 -118 -18 -16 -37 -29 -43 -29
-6 0 -40 -23 -75 -50 -35 -28 -67 -50 -72 -50 -5 0 -8 30 -7 68 1 37 0 110 -1
163 -3 78 0 108 18 162 17 50 20 71 12 86 -15 27 -17 25 37 50 97 47 132 66
132 73 0 15 28 8 34 -9z m-463 -1188 c-25 -50 -26 -38 -3 34 13 43 18 50 20
31 1 -14 -6 -43 -17 -65z"/>
</g>
</svg>
