<?xml version="1.0" standalone="no"?>
<!DOCTYPE svg PUBLIC "-//W3C//DTD SVG 20010904//EN"
 "http://www.w3.org/TR/2001/REC-SVG-20010904/DTD/svg10.dtd">
<svg version="1.0" xmlns="http://www.w3.org/2000/svg"
 width="207.000000pt" height="214.000000pt" viewBox="0 0 207.000000 214.000000"
 preserveAspectRatio="xMidYMid meet">
<metadata>
Created by potrace 1.16, written by Peter Selinger 2001-2019
</metadata>
<g transform="translate(0.000000,214.000000) scale(0.100000,-0.100000)"
fill="#000000" stroke="none">
<path d="M1130 1852 c-30 -15 -69 -36 -85 -48 -17 -11 -59 -36 -95 -55 -36
-18 -88 -48 -116 -65 -55 -35 -102 -62 -181 -106 -29 -16 -64 -43 -78 -59 -25
-30 -25 -31 -8 -62 10 -18 18 -33 19 -34 0 -2 14 -5 30 -9 27 -5 38 2 104 65
40 39 78 71 82 71 9 0 5 -55 -12 -145 -5 -27 -13 -75 -19 -105 -21 -114 -22
-117 -47 -129 -33 -15 -34 -14 -34 8 0 11 -4 22 -9 25 -13 8 -170 -76 -176
-94 -6 -20 -15 -87 -25 -195 -4 -49 -16 -161 -25 -247 -18 -165 -15 -196 22
-234 26 -26 53 0 53 50 0 44 25 225 54 386 9 47 16 101 17 120 1 19 4 43 6 53
5 18 6 18 24 -2 11 -12 28 -21 38 -21 28 0 30 -9 16 -58 -13 -41 -58 -115 -92
-150 -7 -7 -13 -19 -13 -26 0 -18 43 -56 63 -56 28 0 114 49 131 75 8 13 42
41 76 62 33 21 62 45 65 54 7 21 65 76 65 61 0 -21 -71 -196 -94 -232 -12 -19
-28 -51 -36 -70 -8 -19 -26 -59 -42 -88 -34 -63 -35 -72 -5 -72 13 0 44 21 74
50 42 39 65 76 114 175 33 69 63 125 66 125 9 0 42 -45 43 -59 0 -15 68 -81
84 -81 5 0 17 -7 26 -15 9 -9 43 -19 76 -23 l59 -7 7 -40 c10 -57 10 -185 -1
-185 -12 0 -96 98 -135 156 -30 45 -47 57 -54 36 -1 -5 5 -18 15 -27 21 -22
43 -62 43 -81 0 -26 39 -88 101 -161 56 -66 96 -92 119 -78 22 13 29 86 22
225 -15 317 -3 438 83 801 19 81 35 160 35 175 0 16 4 44 9 61 6 20 6 35 0 39
-35 21 -135 -16 -295 -111 -42 -25 -79 -43 -82 -41 -3 3 1 46 8 96 23 164 14
331 -19 330 -9 -1 -41 -13 -71 -28z m-7 -124 c7 -25 -7 -188 -25 -295 l-12
-72 -47 -21 c-26 -11 -51 -24 -54 -30 -3 -5 -27 -19 -53 -32 -26 -12 -50 -24
-54 -26 -8 -4 -2 213 7 227 3 6 7 40 8 75 2 70 4 72 112 125 22 10 51 31 65
44 31 32 46 33 53 5z m323 -370 c-15 -68 -30 -134 -33 -148 -3 -14 -5 -32 -4
-41 1 -9 -10 -67 -24 -129 -14 -63 -30 -152 -35 -198 -5 -47 -11 -87 -14 -89
-16 -16 -139 102 -162 155 -8 18 -28 41 -45 50 -35 20 -35 24 14 202 35 130
56 163 134 217 75 51 72 50 125 73 26 11 50 25 53 31 18 28 15 -11 -9 -123z
m-415 -216 l-22 -67 -103 -64 c-57 -36 -108 -63 -112 -61 -14 7 -6 35 34 118
17 35 71 79 137 111 22 10 49 26 60 34 29 22 30 5 6 -71z"/>
</g>
</svg>
