<?xml version="1.0" standalone="no"?>
<!DOCTYPE svg PUBLIC "-//W3C//DTD SVG 20010904//EN"
 "http://www.w3.org/TR/2001/REC-SVG-20010904/DTD/svg10.dtd">
<svg version="1.0" xmlns="http://www.w3.org/2000/svg"
 width="204.000000pt" height="207.000000pt" viewBox="0 0 204.000000 207.000000"
 preserveAspectRatio="xMidYMid meet">
<metadata>
Created by potrace 1.16, written by Peter Selinger 2001-2019
</metadata>
<g transform="translate(0.000000,207.000000) scale(0.100000,-0.100000)"
fill="#000000" stroke="none">
<path d="M1063 1858 c-18 -20 -21 -41 -27 -178 -3 -85 -8 -181 -12 -212 l-7
-57 -80 -46 c-81 -46 -97 -52 -97 -36 0 5 -14 14 -32 20 -25 9 -36 8 -55 -4
-35 -23 -41 -50 -32 -139 4 -43 9 -151 10 -240 3 -173 10 -196 55 -196 21 0
83 15 162 39 l32 10 2 -47 c0 -26 1 -54 0 -62 -1 -8 3 -55 8 -105 6 -49 17
-168 25 -263 9 -94 21 -184 27 -200 32 -74 77 -109 125 -97 26 6 32 42 8 51
-17 7 -50 73 -58 119 -4 17 -9 86 -12 155 -3 69 -8 136 -10 150 -13 78 -16
280 -5 302 19 35 52 68 68 68 8 0 38 15 66 34 28 18 72 43 97 54 25 12 64 36
86 54 22 18 49 38 59 44 10 6 14 15 10 22 -10 17 -58 15 -106 -4 -23 -9 -43
-14 -46 -11 -3 3 3 25 13 49 10 24 25 63 32 88 7 25 17 55 22 68 5 13 9 34 9
48 0 14 7 48 16 75 19 56 15 133 -8 155 -12 12 -26 9 -99 -28 -46 -23 -86 -45
-89 -49 -9 -12 -79 -33 -87 -26 -10 11 -4 156 9 202 16 54 15 180 -2 200 -18
22 -53 19 -77 -7z m237 -477 c0 -15 -6 -66 -14 -112 -8 -46 -18 -110 -22 -142
-4 -40 -13 -65 -28 -78 -22 -21 -100 -59 -120 -59 -8 0 -11 41 -10 138 2 183
10 205 95 248 83 41 99 42 99 5z m-294 -253 c2 -74 1 -143 -2 -155 -7 -25 -89
-68 -146 -76 l-37 -6 5 92 c7 139 15 257 18 257 2 0 17 -5 34 -11 27 -9 37 -7
74 15 23 14 44 23 46 21 2 -2 6 -64 8 -137z"/>
</g>
</svg>
