<?xml version="1.0" standalone="no"?>
<!DOCTYPE svg PUBLIC "-//W3C//DTD SVG 20010904//EN"
 "http://www.w3.org/TR/2001/REC-SVG-20010904/DTD/svg10.dtd">
<svg version="1.0" xmlns="http://www.w3.org/2000/svg"
 width="208.000000pt" height="207.000000pt" viewBox="0 0 208.000000 207.000000"
 preserveAspectRatio="xMidYMid meet">
<metadata>
Created by potrace 1.16, written by Peter Selinger 2001-2019
</metadata>
<g transform="translate(0.000000,207.000000) scale(0.100000,-0.100000)"
fill="#000000" stroke="none">
<path d="M1055 1970 c-12 -14 -15 -28 -11 -47 4 -15 11 -62 15 -103 5 -41 14
-120 21 -176 7 -55 11 -107 8 -115 -6 -14 -41 -29 -116 -49 -26 -7 -60 -28
-89 -55 -44 -40 -48 -47 -54 -107 -5 -51 -3 -65 9 -75 9 -7 18 -13 21 -13 3 0
30 29 59 64 44 53 62 67 113 86 33 12 62 20 64 18 2 -1 6 -47 10 -100 l7 -98
-27 -10 c-15 -6 -60 -16 -99 -22 -91 -15 -128 -39 -124 -81 2 -18 13 -37 28
-48 24 -19 26 -18 95 5 39 14 81 26 95 28 l25 3 0 -110 c0 -124 14 -105 -120
-166 -130 -59 -157 -69 -179 -69 -60 0 -99 -76 -58 -113 27 -25 55 -21 135 17
40 19 90 39 112 45 22 6 49 18 59 26 11 8 27 15 36 15 14 0 16 -25 18 -218 1
-200 13 -404 28 -474 5 -28 7 -28 80 -28 l74 0 0 29 c0 32 -20 54 -42 46 -12
-5 -17 15 -26 102 -14 128 -18 533 -5 542 4 3 14 18 20 34 7 15 18 27 25 27 7
0 25 6 39 14 15 7 51 21 80 31 30 9 64 24 77 32 37 23 153 64 176 62 51 -4 86
2 100 17 20 19 21 78 2 93 -18 15 -113 1 -176 -27 -50 -21 -325 -112 -340
-112 -6 0 -10 37 -10 86 0 104 20 148 73 160 88 19 120 58 98 117 -12 32 -27
33 -101 7 -30 -10 -57 -17 -61 -14 -15 9 -16 148 -2 191 8 24 18 43 21 43 10
0 166 100 206 132 19 15 20 18 5 33 -15 15 -22 14 -95 -9 -43 -15 -92 -35
-109 -46 -16 -11 -35 -20 -41 -20 -14 0 -25 76 -29 208 -3 97 -2 104 21 129
22 24 33 73 17 73 -5 0 -38 2 -75 5 -55 3 -69 1 -83 -15z"/>
</g>
</svg>
