<?xml version="1.0" standalone="no"?>
<!DOCTYPE svg PUBLIC "-//W3C//DTD SVG 20010904//EN"
 "http://www.w3.org/TR/2001/REC-SVG-20010904/DTD/svg10.dtd">
<svg version="1.0" xmlns="http://www.w3.org/2000/svg"
 width="208.000000pt" height="207.000000pt" viewBox="0 0 208.000000 207.000000"
 preserveAspectRatio="xMidYMid meet">
<metadata>
Created by potrace 1.16, written by Peter Selinger 2001-2019
</metadata>
<g transform="translate(0.000000,207.000000) scale(0.100000,-0.100000)"
fill="#000000" stroke="none">
<path d="M1174 1846 c-17 -13 -19 -28 -19 -177 0 -134 -3 -163 -15 -170 -8 -4
-46 -20 -85 -34 -38 -15 -78 -36 -89 -48 -18 -22 -18 -22 3 -25 23 -4 30 -32
7 -32 -24 0 -36 -23 -22 -43 18 -24 33 -22 109 19 l67 35 0 -54 c0 -100 -6
-111 -63 -131 -29 -9 -65 -20 -82 -23 -45 -9 -105 -50 -105 -73 0 -10 11 -31
25 -46 26 -28 24 -28 124 0 29 9 56 14 60 12 3 -3 2 -47 -4 -100 -10 -94 -23
-124 -56 -130 -8 -1 -27 -9 -44 -18 -16 -8 -61 -23 -100 -32 -125 -31 -229
-69 -257 -95 -52 -46 -29 -97 39 -88 35 5 212 61 293 92 19 8 49 16 65 17 29
3 30 2 29 -42 0 -25 -6 -105 -13 -177 -7 -73 -10 -141 -6 -152 3 -12 19 -22
37 -27 45 -9 59 12 88 135 23 100 23 103 6 136 -16 28 -17 40 -7 85 20 93 27
100 158 152 101 41 182 65 306 92 41 9 67 41 67 80 0 19 -6 38 -12 43 -16 9
-59 4 -75 -8 -11 -10 -240 -76 -298 -86 -16 -3 -41 -14 -54 -24 -13 -11 -35
-19 -48 -19 -24 0 -25 2 -19 43 3 23 8 65 12 93 3 28 9 56 13 61 7 10 117 64
168 83 17 7 34 18 37 26 3 8 12 14 21 14 22 0 18 23 -9 49 -22 21 -27 21 -67
11 -24 -7 -49 -16 -54 -20 -6 -5 -24 -10 -40 -12 l-30 -3 1 67 c1 91 25 127
120 173 39 19 78 35 85 35 27 0 79 40 79 60 0 27 -63 54 -92 39 -19 -10 -156
-59 -166 -59 -4 0 2 58 14 138 7 48 -10 127 -34 155 -18 21 -42 22 -68 3z"/>
</g>
</svg>
