<?xml version="1.0" standalone="no"?>
<!DOCTYPE svg PUBLIC "-//W3C//DTD SVG 20010904//EN"
 "http://www.w3.org/TR/2001/REC-SVG-20010904/DTD/svg10.dtd">
<svg version="1.0" xmlns="http://www.w3.org/2000/svg"
 width="206.000000pt" height="208.000000pt" viewBox="0 0 206.000000 208.000000"
 preserveAspectRatio="xMidYMid meet">
<metadata>
Created by potrace 1.16, written by Peter Selinger 2001-2019
</metadata>
<g transform="translate(0.000000,208.000000) scale(0.100000,-0.100000)"
fill="#000000" stroke="none">
<path d="M1008 1899 c-14 -8 -18 -24 -18 -78 l0 -68 -50 -23 c-43 -20 -50 -28
-50 -51 0 -35 39 -64 74 -55 17 4 26 1 30 -10 12 -31 5 -53 -31 -103 -21 -28
-60 -85 -87 -126 -27 -42 -50 -74 -52 -73 -6 6 26 223 38 251 12 30 -5 62 -27
53 -7 -2 -17 0 -22 5 -13 13 -79 1 -94 -17 -9 -11 -9 -28 1 -74 9 -42 11 -92
6 -163 -14 -186 -5 -257 29 -257 24 0 43 41 50 109 l7 64 22 -26 c42 -50 86
-54 150 -12 34 23 43 14 52 -51 6 -49 5 -52 -17 -59 -35 -9 -93 -38 -101 -50
-13 -17 -9 -53 8 -69 19 -20 53 -20 90 -1 15 8 30 13 32 11 6 -7 31 -188 38
-274 5 -71 3 -86 -12 -103 -9 -10 -23 -19 -31 -19 -7 0 -13 -4 -13 -10 0 -5
-13 -16 -30 -25 -36 -18 -38 -42 -9 -80 17 -21 28 -26 48 -22 64 13 63 14 77
-33 8 -25 14 -65 14 -90 0 -68 30 -203 54 -245 11 -21 31 -44 43 -52 20 -13
23 -12 36 9 14 21 14 31 -2 98 -34 143 -51 255 -48 325 l2 69 40 16 c22 8 56
26 75 38 19 12 68 35 109 50 76 28 109 58 97 88 -8 22 -87 15 -171 -16 -96
-34 -105 -35 -105 -12 0 11 33 85 74 165 41 81 82 172 90 204 9 32 23 83 31
113 20 72 19 103 -4 124 -18 17 -24 15 -123 -45 -56 -35 -118 -73 -137 -86
-19 -13 -38 -23 -44 -23 -6 0 -8 35 -5 92 l4 91 47 42 c53 47 58 67 23 83 -18
8 -30 7 -51 -4 -39 -20 -44 -18 -34 14 5 15 11 44 14 65 5 29 20 51 65 96 51
51 59 63 62 102 l3 44 -55 -3 c-30 -2 -59 -7 -64 -13 -21 -20 -36 -6 -53 51
-16 56 -19 60 -48 60 -16 0 -38 -5 -47 -11z m308 -805 c-14 -35 -52 -116 -83
-180 -51 -103 -58 -113 -66 -92 -5 12 -10 73 -11 135 -1 128 -4 123 89 172 33
18 67 39 75 47 26 26 24 -11 -4 -82z"/>
<path d="M770 1003 c-14 -9 -26 -17 -27 -18 -9 -5 20 -293 32 -318 8 -17 15
-40 15 -53 0 -14 8 -25 22 -30 45 -14 56 40 39 181 -4 33 -3 97 3 142 8 64 7
85 -3 97 -17 21 -50 20 -81 -1z"/>
</g>
</svg>
