<?xml version="1.0" standalone="no"?>
<!DOCTYPE svg PUBLIC "-//W3C//DTD SVG 20010904//EN"
 "http://www.w3.org/TR/2001/REC-SVG-20010904/DTD/svg10.dtd">
<svg version="1.0" xmlns="http://www.w3.org/2000/svg"
 width="208.000000pt" height="207.000000pt" viewBox="0 0 208.000000 207.000000"
 preserveAspectRatio="xMidYMid meet">
<metadata>
Created by potrace 1.16, written by Peter Selinger 2001-2019
</metadata>
<g transform="translate(0.000000,207.000000) scale(0.100000,-0.100000)"
fill="#000000" stroke="none">
<path d="M926 2037 c-17 -17 -25 -40 -30 -88 -4 -35 -9 -77 -11 -93 -2 -15
-15 -40 -29 -55 -31 -32 -32 -42 -7 -65 13 -12 22 -43 31 -107 15 -116 7 -191
-26 -224 -29 -29 -30 -45 -6 -76 23 -30 38 -160 21 -190 -5 -11 -34 -35 -63
-54 -28 -18 -58 -40 -65 -49 -18 -21 -28 -20 -34 4 -4 16 -11 19 -29 15 -13
-3 -35 -7 -51 -9 -15 -1 -30 -6 -34 -9 -3 -4 -14 -7 -24 -7 -25 0 -51 -42 -43
-66 4 -10 19 -37 34 -59 28 -41 63 -146 75 -225 10 -61 31 -99 56 -100 4 0 12
20 19 45 13 47 5 169 -20 284 -10 46 -9 56 4 70 15 14 16 13 16 -11 0 -35 24
-52 71 -51 41 1 69 16 69 38 0 7 6 18 14 24 19 16 26 -14 26 -120 0 -124 -7
-149 -44 -164 -50 -21 -80 -59 -71 -92 9 -39 23 -53 52 -53 13 0 25 -6 28 -13
2 -6 6 -90 9 -186 6 -185 15 -224 54 -229 45 -7 49 7 45 160 -2 79 -1 185 3
236 6 87 7 93 33 106 15 8 45 18 66 21 22 4 45 11 50 15 11 8 102 25 125 23
22 -2 70 26 70 42 0 22 -38 29 -142 27 -54 -2 -98 -1 -98 2 0 15 53 102 75
122 14 13 25 29 25 37 0 7 13 27 30 43 16 16 30 32 30 36 0 4 17 33 38 65 21
32 46 74 56 93 10 19 24 46 31 60 7 14 16 51 20 82 7 56 7 57 -19 64 -16 4
-35 1 -49 -8 -12 -8 -44 -23 -72 -33 -27 -11 -87 -39 -133 -62 -46 -24 -87
-43 -91 -43 -13 0 -30 79 -22 103 22 67 36 88 69 109 41 24 91 76 92 96 0 6
-11 12 -25 12 -14 0 -28 6 -31 14 -6 15 22 76 34 76 5 0 20 19 35 43 15 23 48
64 73 91 56 61 89 117 109 182 15 51 10 68 -25 76 -25 5 -140 -32 -223 -72
l-77 -38 -6 27 c-3 14 -10 36 -15 49 -5 13 -9 32 -9 42 0 11 -9 24 -20 30 -16
9 -24 6 -44 -13z m274 -163 c0 -8 -59 -93 -86 -124 -12 -14 -31 -43 -43 -65
-11 -22 -34 -56 -51 -75 l-31 -35 5 45 c2 25 6 56 9 70 19 103 15 97 86 138
81 48 111 60 111 46z m20 -704 c0 -16 -23 -63 -52 -107 -15 -23 -28 -45 -28
-48 0 -4 -13 -23 -30 -42 -16 -18 -30 -38 -30 -44 0 -6 -19 -38 -42 -72 l-43
-62 -5 110 c-3 65 -1 122 6 140 10 29 86 93 114 95 8 0 31 9 50 20 39 21 60
25 60 10z"/>
<path d="M616 1585 c-21 -32 -20 -45 7 -118 13 -34 32 -89 41 -122 36 -121 63
-143 85 -70 12 42 12 80 -4 165 -13 73 -32 139 -44 153 -21 26 -66 21 -85 -8z"/>
</g>
</svg>
