<?xml version="1.0" standalone="no"?>
<!DOCTYPE svg PUBLIC "-//W3C//DTD SVG 20010904//EN"
 "http://www.w3.org/TR/2001/REC-SVG-20010904/DTD/svg10.dtd">
<svg version="1.0" xmlns="http://www.w3.org/2000/svg"
 width="208.000000pt" height="207.000000pt" viewBox="0 0 208.000000 207.000000"
 preserveAspectRatio="xMidYMid meet">
<metadata>
Created by potrace 1.16, written by Peter Selinger 2001-2019
</metadata>
<g transform="translate(0.000000,207.000000) scale(0.100000,-0.100000)"
fill="#000000" stroke="none">
<path d="M1111 1939 c-42 -9 -52 -24 -50 -74 4 -97 -2 -205 -11 -205 -5 0 -35
18 -67 39 -32 21 -74 45 -95 52 -31 11 -40 10 -62 -5 -47 -30 -23 -106 34
-106 10 0 21 -4 25 -9 3 -5 22 -15 42 -22 21 -6 54 -24 74 -38 l37 -27 -32
-18 c-65 -39 -133 -72 -171 -84 -66 -22 -159 -93 -163 -124 -5 -40 31 -72 73
-65 40 6 146 57 194 92 19 14 40 25 47 25 32 0 2 -133 -57 -256 -16 -34 -29
-65 -29 -69 0 -4 -13 -24 -29 -44 -15 -20 -47 -76 -71 -126 -46 -99 -45 -118
8 -123 28 -3 33 1 55 45 14 26 45 82 69 123 76 128 117 220 153 344 19 66 35
128 35 138 0 11 12 35 28 54 21 26 34 34 60 34 29 0 32 3 32 30 0 28 6 33 71
64 l71 34 -7 -52 c-10 -70 -33 -170 -56 -238 -10 -31 -22 -88 -25 -127 -6 -64
-9 -70 -33 -76 -64 -16 -71 -70 -14 -121 l36 -32 -6 -123 c-4 -67 -10 -125
-13 -128 -5 -6 -20 11 -76 84 -13 17 -43 72 -68 123 -47 98 -72 119 -64 55 23
-175 58 -251 170 -357 95 -90 118 -96 135 -33 10 37 19 249 19 442 -1 141 51
373 124 553 51 127 60 206 26 217 -12 4 -27 2 -34 -4 -23 -19 -306 -161 -322
-161 -11 0 -14 18 -14 89 0 50 5 93 10 96 6 3 10 13 10 22 0 9 10 27 21 39 12
13 19 29 16 37 -7 17 -60 25 -106 16z"/>
</g>
</svg>
