<?xml version="1.0" standalone="no"?>
<!DOCTYPE svg PUBLIC "-//W3C//DTD SVG 20010904//EN"
 "http://www.w3.org/TR/2001/REC-SVG-20010904/DTD/svg10.dtd">
<svg version="1.0" xmlns="http://www.w3.org/2000/svg"
 width="204.000000pt" height="205.000000pt" viewBox="0 0 204.000000 205.000000"
 preserveAspectRatio="xMidYMid meet">
<metadata>
Created by potrace 1.16, written by Peter Selinger 2001-2019
</metadata>
<g transform="translate(0.000000,205.000000) scale(0.100000,-0.100000)"
fill="#000000" stroke="none">
<path d="M1085 1830 c-13 -24 -14 -38 -6 -63 71 -219 85 -227 111 -69 5 30 16
62 24 71 11 12 14 27 10 48 -7 34 -24 43 -86 43 -32 0 -40 -5 -53 -30z"/>
<path d="M1378 1524 c-21 -13 -63 -38 -95 -55 -31 -17 -87 -51 -124 -75 -38
-24 -70 -44 -72 -44 -3 0 -34 -18 -68 -40 -35 -22 -102 -63 -149 -91 -86 -51
-160 -114 -160 -134 0 -6 10 -22 21 -34 17 -18 28 -22 52 -17 17 4 33 10 37
15 3 5 34 29 70 53 36 24 83 56 104 71 21 15 42 27 46 27 4 0 14 -51 23 -112
l16 -113 -28 -25 c-16 -14 -57 -45 -92 -70 -121 -88 -146 -136 -88 -169 24
-13 29 -11 105 38 43 29 83 59 87 67 13 23 36 16 44 -13 10 -35 10 -239 0
-274 -4 -18 -16 -29 -34 -33 -16 -4 -46 -15 -68 -25 -22 -10 -75 -31 -118 -46
-60 -21 -81 -33 -88 -52 -14 -37 -12 -43 25 -58 39 -17 144 -5 161 18 6 7 22
22 38 31 26 18 27 18 27 -2 0 -15 5 -19 20 -15 10 3 22 13 25 23 3 11 37 30
88 50 106 42 186 79 217 100 14 10 36 21 50 25 14 4 43 22 65 40 22 18 60 43
84 56 76 42 84 47 93 63 13 24 0 55 -26 62 -23 6 -126 -39 -172 -75 -36 -28
-292 -153 -302 -147 -5 3 -3 32 5 68 7 35 13 101 12 148 -3 187 -4 184 43 215
61 41 138 121 138 145 0 16 -6 20 -32 19 -18 0 -46 -9 -63 -19 -16 -11 -43
-27 -60 -36 -16 -9 -34 -23 -38 -30 -4 -8 -13 -14 -19 -14 -21 0 -1 98 28 135
38 51 27 69 -36 61 -28 -4 -50 -3 -50 1 0 9 82 83 92 83 13 0 102 60 110 74 4
8 27 23 50 35 60 29 118 79 118 102 0 28 -65 25 -112 -7z"/>
</g>
</svg>
