<?xml version="1.0" standalone="no"?>
<!DOCTYPE svg PUBLIC "-//W3C//DTD SVG 20010904//EN"
 "http://www.w3.org/TR/2001/REC-SVG-20010904/DTD/svg10.dtd">
<svg version="1.0" xmlns="http://www.w3.org/2000/svg"
 width="208.000000pt" height="203.000000pt" viewBox="0 0 208.000000 203.000000"
 preserveAspectRatio="xMidYMid meet">
<metadata>
Created by potrace 1.16, written by Peter Selinger 2001-2019
</metadata>
<g transform="translate(0.000000,203.000000) scale(0.100000,-0.100000)"
fill="#000000" stroke="none">
<path d="M1159 1862 c-48 -26 -93 -53 -101 -59 -8 -7 -38 -25 -66 -40 -28 -16
-75 -47 -104 -71 -29 -24 -78 -59 -108 -77 -128 -78 -195 -139 -205 -186 -6
-27 -3 -35 16 -50 46 -36 70 -25 144 65 20 25 58 59 84 75 25 17 90 64 144
105 54 42 100 76 103 76 10 0 140 88 153 104 7 9 17 16 22 16 4 0 24 10 43 23
48 30 46 61 -4 64 -25 1 -59 -11 -121 -45z"/>
<path d="M1728 1744 c-16 -8 -45 -35 -65 -60 -21 -24 -43 -44 -49 -44 -7 0
-36 -24 -65 -53 -30 -30 -74 -67 -99 -83 -61 -39 -180 -144 -180 -159 0 -6
-11 -22 -25 -35 -14 -13 -25 -33 -25 -45 0 -25 29 -55 53 -55 9 0 64 49 124
108 59 59 143 137 186 172 42 35 77 68 77 72 0 4 7 8 16 8 11 0 14 -6 9 -22
-14 -48 -16 -57 -20 -84 -2 -16 -8 -60 -14 -99 -12 -86 -28 -272 -37 -425 -5
-108 -29 -298 -37 -307 -6 -5 -66 98 -111 190 -40 82 -43 127 -8 127 28 0 54
23 47 42 -7 17 -80 41 -126 41 -33 0 -69 -28 -69 -53 0 -10 12 -26 26 -36 23
-18 83 -127 99 -184 12 -40 75 -153 100 -178 13 -12 28 -35 35 -51 10 -26 34
-40 67 -41 30 0 69 231 83 490 12 238 25 353 57 520 15 74 27 162 27 195 1 57
0 60 -24 62 -14 1 -37 -5 -52 -13z"/>
<path d="M1042 1512 c-40 -20 -91 -53 -113 -72 -23 -19 -48 -39 -56 -44 -8 -4
-24 -17 -34 -27 -11 -11 -28 -19 -39 -19 -11 0 -20 -7 -20 -15 0 -8 -32 -33
-70 -56 -39 -23 -77 -51 -85 -62 -7 -11 -24 -25 -37 -31 -14 -7 -24 -22 -26
-40 -3 -22 -12 -32 -46 -47 -60 -26 -68 -39 -58 -85 4 -23 3 -103 -4 -189 -20
-259 16 -432 77 -359 9 11 13 56 14 147 3 235 0 225 76 206 55 -14 104 -53
133 -106 36 -67 76 -157 76 -171 0 -19 59 -114 80 -127 25 -16 79 -23 94 -11
7 6 17 25 21 41 l7 30 14 -27 c16 -30 53 -38 72 -15 13 16 57 196 77 317 9 52
18 151 22 220 4 90 11 137 24 169 24 56 24 57 -11 75 -27 13 -35 13 -66 0 -20
-8 -39 -13 -42 -10 -3 3 1 36 8 74 7 37 13 112 14 167 1 81 -2 100 -14 102 -8
1 -48 -14 -88 -35z m-2 -146 c0 -19 -4 -45 -9 -58 -5 -13 -12 -57 -15 -98 -8
-108 -25 -230 -35 -265 -13 -40 -23 -166 -26 -295 -2 -130 -28 -194 -56 -139
-31 59 -48 100 -54 129 -8 35 -20 62 -41 90 -7 8 -15 30 -19 48 -6 28 -4 32
14 32 34 0 92 32 89 50 -3 11 -23 16 -88 21 -61 4 -101 13 -143 32 -32 15 -64
27 -72 27 -31 0 -3 89 38 121 17 13 49 42 72 64 23 22 86 74 140 115 54 41
119 94 144 117 25 24 49 43 54 43 4 0 7 -15 7 -34z m69 -491 c-5 -71 -17 -170
-27 -220 l-19 -90 -2 130 c0 83 5 159 15 210 9 44 18 91 21 105 3 19 6 21 12
10 4 -8 4 -73 0 -145z"/>
</g>
</svg>
