<?xml version="1.0" standalone="no"?>
<!DOCTYPE svg PUBLIC "-//W3C//DTD SVG 20010904//EN"
 "http://www.w3.org/TR/2001/REC-SVG-20010904/DTD/svg10.dtd">
<svg version="1.0" xmlns="http://www.w3.org/2000/svg"
 width="209.000000pt" height="202.000000pt" viewBox="0 0 209.000000 202.000000"
 preserveAspectRatio="xMidYMid meet">
<metadata>
Created by potrace 1.16, written by Peter Selinger 2001-2019
</metadata>
<g transform="translate(0.000000,202.000000) scale(0.100000,-0.100000)"
fill="#000000" stroke="none">
<path d="M990 1805 c-14 -8 -31 -14 -38 -15 -7 0 -46 -22 -86 -50 -40 -27 -77
-50 -81 -50 -4 0 -24 -13 -45 -30 -21 -16 -42 -30 -48 -30 -5 0 -15 -7 -22
-15 -7 -9 -27 -22 -44 -30 -17 -8 -60 -37 -96 -65 -36 -27 -70 -49 -76 -50
-14 0 -69 -60 -78 -84 -8 -23 29 -66 57 -66 27 0 84 35 137 86 25 23 70 61
100 83 30 22 60 45 67 51 7 5 14 10 17 10 16 0 155 102 211 155 18 17 53 40
79 52 25 13 46 29 46 37 0 28 -59 35 -100 11z"/>
<path d="M1408 1546 c-36 -18 -78 -42 -94 -53 -16 -11 -47 -26 -69 -33 -50
-16 -76 -33 -143 -90 -60 -51 -92 -97 -95 -136 -2 -22 -10 -30 -42 -41 -47
-16 -57 -30 -49 -63 14 -57 -10 -315 -36 -385 -28 -78 -46 -134 -76 -239 -14
-52 -11 -88 11 -106 13 -11 27 6 99 123 19 30 66 168 66 192 0 8 7 15 15 15 8
0 15 -4 15 -10 0 -17 17 -11 22 8 3 10 23 24 49 32 53 18 122 55 140 76 10 12
9 18 -3 31 -15 14 -24 14 -104 -1 -48 -9 -91 -13 -95 -9 -4 5 -1 61 6 127 13
116 14 119 46 147 19 16 37 29 42 29 4 0 7 13 7 29 0 45 109 171 149 171 5 0
16 6 23 13 18 18 96 57 113 57 17 0 17 -6 4 -75 -5 -27 -18 -117 -29 -200 -11
-82 -24 -177 -29 -210 -5 -33 -12 -82 -14 -110 -3 -27 -8 -68 -12 -90 -3 -22
-9 -97 -14 -168 -4 -72 -12 -132 -19 -139 -9 -9 -27 -7 -73 6 -52 14 -70 25
-118 77 -31 33 -60 57 -63 53 -8 -7 46 -120 71 -148 17 -19 114 -66 138 -66 7
0 31 -9 53 -20 67 -34 67 -34 101 90 5 19 14 105 19 190 5 85 16 207 25 270 9
63 24 180 35 260 20 159 38 272 45 292 2 7 1 37 -3 67 -10 74 -29 80 -114 37z"/>
<path d="M848 1423 c-10 -2 -46 -31 -80 -64 -35 -33 -88 -79 -118 -102 -30
-23 -76 -60 -102 -83 -26 -23 -60 -45 -74 -48 -15 -4 -46 -23 -69 -42 -23 -19
-47 -34 -53 -34 -15 0 -4 30 20 53 41 40 16 52 -48 23 -27 -13 -66 -30 -86
-39 -32 -14 -38 -22 -38 -47 0 -17 8 -42 17 -56 11 -17 18 -54 21 -108 4 -93
-22 -376 -38 -406 -14 -26 -5 -40 24 -40 25 0 56 28 56 52 0 8 8 30 17 49 18
36 25 75 44 262 8 76 17 117 24 117 7 0 37 -15 68 -32 47 -28 60 -43 86 -95
17 -35 31 -72 31 -83 0 -11 17 -62 38 -113 21 -50 49 -125 62 -166 20 -63 28
-75 54 -86 52 -23 57 -9 61 167 3 85 9 197 15 249 12 116 75 451 101 538 20
67 23 99 13 125 -6 16 -14 18 -46 9z m-101 -255 c-4 -31 -36 -192 -56 -288 -5
-25 -13 -93 -17 -152 -4 -60 -10 -108 -13 -108 -3 0 -16 28 -29 63 -13 34 -32
81 -42 105 -26 56 -25 64 11 85 41 23 33 38 -29 52 -49 11 -90 44 -89 70 1 10
252 205 264 205 3 0 3 -15 0 -32z"/>
</g>
</svg>
