<?xml version="1.0" standalone="no"?>
<!DOCTYPE svg PUBLIC "-//W3C//DTD SVG 20010904//EN"
 "http://www.w3.org/TR/2001/REC-SVG-20010904/DTD/svg10.dtd">
<svg version="1.0" xmlns="http://www.w3.org/2000/svg"
 width="208.000000pt" height="203.000000pt" viewBox="0 0 208.000000 203.000000"
 preserveAspectRatio="xMidYMid meet">
<metadata>
Created by potrace 1.16, written by Peter Selinger 2001-2019
</metadata>
<g transform="translate(0.000000,203.000000) scale(0.100000,-0.100000)"
fill="#000000" stroke="none">
<path d="M760 1891 c-29 -8 -33 -20 -54 -151 -32 -200 -35 -210 -72 -232 -19
-11 -34 -24 -34 -29 0 -5 -5 -9 -12 -9 -24 0 -108 -62 -108 -80 0 -11 -4 -22
-10 -25 -16 -10 -12 -33 11 -56 17 -17 29 -20 59 -15 22 3 41 2 45 -4 8 -13
-71 -246 -103 -300 -33 -57 -98 -188 -106 -217 -4 -11 -13 -27 -21 -33 -18
-15 -20 -40 -2 -40 17 0 78 65 111 118 14 23 30 42 34 42 9 0 70 90 86 125 5
11 17 40 26 65 50 130 60 151 79 179 12 16 28 46 36 65 9 20 19 36 25 36 5 0
26 16 47 35 43 40 71 55 158 84 33 11 61 24 63 30 2 6 8 11 13 11 14 0 10 -43
-6 -64 -8 -11 -15 -31 -15 -46 0 -14 -6 -35 -14 -46 -8 -11 -40 -83 -71 -159
-31 -77 -71 -169 -88 -204 -50 -104 -66 -251 -36 -331 11 -29 69 -65 108 -66
116 -4 322 179 420 375 17 33 31 67 31 75 0 29 -23 29 -48 0 -13 -16 -56 -63
-95 -105 -40 -42 -88 -94 -107 -116 -49 -55 -150 -115 -186 -111 -29 3 -29 4
-32 76 -3 82 2 100 92 299 30 67 67 152 82 190 14 37 36 88 47 113 11 25 23
71 27 103 8 68 -7 97 -47 97 -33 0 -182 -29 -208 -40 -50 -22 -61 -21 -84 10
-12 17 -20 34 -17 39 3 4 10 41 16 82 6 41 15 83 20 94 20 46 28 104 16 119
-15 19 -45 25 -76 17z"/>
</g>
</svg>
