<?xml version="1.0" standalone="no"?>
<!DOCTYPE svg PUBLIC "-//W3C//DTD SVG 20010904//EN"
 "http://www.w3.org/TR/2001/REC-SVG-20010904/DTD/svg10.dtd">
<svg version="1.0" xmlns="http://www.w3.org/2000/svg"
 width="209.000000pt" height="203.000000pt" viewBox="0 0 209.000000 203.000000"
 preserveAspectRatio="xMidYMid meet">
<metadata>
Created by potrace 1.16, written by Peter Selinger 2001-2019
</metadata>
<g transform="translate(0.000000,203.000000) scale(0.100000,-0.100000)"
fill="#000000" stroke="none">
<path d="M778 1733 c-9 -2 -24 -15 -33 -29 -15 -23 -15 -27 1 -53 14 -23 15
-36 5 -80 -6 -29 -11 -69 -11 -91 0 -46 -33 -91 -82 -111 -47 -19 -118 -88
-118 -114 0 -33 44 -58 86 -50 l35 6 -17 -38 c-9 -21 -22 -54 -29 -74 -16 -43
-83 -182 -125 -258 -17 -30 -46 -95 -66 -145 -20 -50 -51 -121 -70 -158 -35
-69 -40 -88 -25 -88 24 0 132 139 150 193 7 19 18 41 26 47 16 13 52 76 126
220 47 92 71 147 146 330 38 92 61 124 108 146 31 15 172 97 215 125 14 10 35
20 48 24 30 9 29 -10 -5 -77 -32 -61 -38 -76 -92 -214 -21 -54 -42 -119 -45
-144 -4 -25 -15 -67 -25 -95 -53 -145 -75 -308 -52 -391 9 -35 17 -43 49 -53
32 -11 49 -10 102 3 53 14 77 28 146 87 46 39 84 74 84 78 0 3 18 26 40 49 22
24 40 49 40 56 0 6 11 27 23 46 29 42 57 123 57 162 0 55 -32 31 -98 -71 -35
-54 -81 -116 -101 -137 -73 -76 -150 -143 -187 -160 -35 -17 -37 -17 -50 1
-32 43 -15 133 88 470 28 93 47 138 119 290 15 34 51 85 79 115 69 71 96 158
56 173 -28 11 -183 -52 -268 -109 -28 -19 -54 -34 -60 -34 -16 0 -96 -39 -112
-55 -8 -9 -31 -22 -51 -30 -35 -15 -35 -15 -35 9 0 14 4 27 9 30 30 19 17 143
-19 182 -23 24 -30 26 -62 17z"/>
</g>
</svg>
