<?xml version="1.0" standalone="no"?>
<!DOCTYPE svg PUBLIC "-//W3C//DTD SVG 20010904//EN"
 "http://www.w3.org/TR/2001/REC-SVG-20010904/DTD/svg10.dtd">
<svg version="1.0" xmlns="http://www.w3.org/2000/svg"
 width="207.000000pt" height="212.000000pt" viewBox="0 0 207.000000 212.000000"
 preserveAspectRatio="xMidYMid meet">
<metadata>
Created by potrace 1.16, written by Peter Selinger 2001-2019
</metadata>
<g transform="translate(0.000000,212.000000) scale(0.100000,-0.100000)"
fill="#000000" stroke="none">
<path d="M1073 1951 c-29 -16 -70 -42 -90 -59 -38 -29 -162 -96 -168 -90 -2 2
-6 15 -10 29 -6 23 -2 29 32 46 63 33 50 47 -42 49 -141 3 -172 -28 -116 -113
17 -26 30 -51 28 -57 -2 -6 -19 -14 -38 -19 -19 -5 -39 -13 -45 -18 -5 -4 -50
-13 -98 -18 -95 -11 -136 -30 -136 -62 0 -23 45 -69 68 -69 23 0 132 29 195
52 50 18 60 19 68 7 20 -29 -6 -375 -34 -457 -15 -42 -15 -43 9 -52 13 -5 24
-16 24 -25 0 -8 9 -20 20 -27 34 -21 24 -58 -31 -118 -62 -69 -71 -96 -38
-123 19 -15 34 -18 74 -14 66 6 109 27 192 94 39 31 48 23 51 -44 3 -73 -7
-97 -51 -119 -32 -17 -32 -16 -14 3 32 37 22 42 -74 38 -120 -6 -141 -25 -102
-93 23 -41 13 -51 -100 -96 -150 -61 -167 -69 -167 -77 0 -4 -20 -22 -45 -39
-62 -43 -61 -85 1 -104 15 -5 39 6 85 37 35 24 75 48 89 52 14 4 54 23 90 41
l65 33 8 -112 c4 -62 13 -139 20 -172 10 -50 16 -61 35 -63 12 -2 29 4 38 12
13 14 15 36 9 160 -7 139 -7 144 15 174 13 18 38 36 56 42 20 7 36 20 40 33 9
32 44 67 84 83 19 8 56 33 81 54 26 21 65 49 88 60 22 12 41 25 41 29 0 5 18
16 40 26 22 10 45 24 51 31 13 16 90 57 96 51 6 -7 -58 -228 -82 -282 -7 -16
-23 -57 -35 -90 -29 -81 -69 -165 -79 -165 -4 0 -8 -24 -9 -53 -1 -50 0 -54
33 -71 34 -18 40 -18 155 1 107 18 305 8 354 -19 28 -15 122 -22 130 -10 13
22 19 159 7 194 -6 19 -14 46 -16 59 -43 229 -114 403 -158 386 -30 -11 -29
-67 4 -197 50 -204 71 -312 62 -320 -4 -5 -28 -4 -53 2 -58 14 -298 20 -305 7
-4 -5 -18 -9 -33 -9 -53 0 -54 9 -21 110 16 52 34 99 38 105 5 5 14 28 20 50
7 22 16 49 21 60 5 11 18 54 29 95 12 41 29 100 38 130 23 74 24 169 1 183
-18 12 -34 6 -108 -38 -19 -12 -51 -27 -70 -35 -19 -8 -51 -26 -70 -42 -19
-15 -38 -28 -42 -28 -5 0 -26 -12 -48 -26 -22 -15 -43 -25 -45 -22 -3 3 11 41
31 84 20 43 47 104 61 134 56 126 67 144 97 152 16 4 45 22 65 40 46 43 126
107 171 138 64 43 90 72 90 102 0 16 -6 31 -13 34 -20 7 -95 -28 -149 -69 -26
-20 -66 -45 -88 -56 l-42 -20 5 22 c3 12 15 49 26 82 11 33 32 98 46 145 14
47 33 96 42 109 15 23 14 26 -7 43 -26 21 -92 24 -108 5 -6 -7 -20 -59 -31
-117 -21 -105 -88 -313 -121 -380 -10 -19 -30 -69 -46 -110 -66 -178 -122
-290 -144 -290 -7 0 -18 309 -17 460 1 77 -9 110 -33 110 -11 0 -20 -3 -20 -8
0 -4 -27 -18 -61 -32 -34 -13 -63 -30 -66 -37 -3 -7 -16 -13 -30 -13 -24 0
-25 2 -19 43 3 23 9 82 12 130 6 82 9 89 33 101 77 40 144 93 231 181 79 81
68 99 -27 46z m-108 -737 c2 -93 7 -179 10 -191 6 -20 4 -23 -21 -24 -16 0
-42 -9 -59 -19 -81 -52 -105 -61 -111 -45 -8 19 33 81 63 94 13 6 30 8 39 4
14 -5 16 -2 12 15 -4 12 -1 35 5 51 8 23 8 33 -3 46 -12 14 -28 17 -92 13
l-78 -5 7 26 c10 45 30 75 80 122 42 40 131 94 140 85 2 -2 5 -79 8 -172z"/>
<path d="M525 1236 c-32 -10 -41 -18 -43 -39 -2 -15 5 -39 16 -55 31 -44 72
-139 72 -166 0 -39 -18 -77 -41 -83 -23 -6 -22 -31 3 -47 26 -16 104 29 118
68 17 49 11 121 -17 206 -22 66 -25 85 -15 101 7 10 12 21 12 24 0 9 -64 3
-105 -9z"/>
</g>
</svg>
