<?xml version="1.0" standalone="no"?>
<!DOCTYPE svg PUBLIC "-//W3C//DTD SVG 20010904//EN"
 "http://www.w3.org/TR/2001/REC-SVG-20010904/DTD/svg10.dtd">
<svg version="1.0" xmlns="http://www.w3.org/2000/svg"
 width="207.000000pt" height="211.000000pt" viewBox="0 0 207.000000 211.000000"
 preserveAspectRatio="xMidYMid meet">
<metadata>
Created by potrace 1.16, written by Peter Selinger 2001-2019
</metadata>
<g transform="translate(0.000000,211.000000) scale(0.100000,-0.100000)"
fill="#000000" stroke="none">
<path d="M1261 1524 c-35 -8 -69 -18 -75 -23 -6 -5 -29 -12 -51 -16 -22 -4
-53 -13 -70 -20 -50 -21 -175 -65 -183 -64 -27 4 -55 -4 -78 -24 -22 -19 -26
-29 -20 -51 3 -14 16 -36 27 -47 33 -33 110 -19 249 48 216 103 235 111 295
123 142 27 152 33 115 70 -24 24 -109 26 -209 4z"/>
<path d="M1435 904 c-27 -8 -84 -18 -125 -24 -152 -20 -214 -32 -308 -56 -53
-14 -115 -30 -137 -35 -43 -10 -115 -46 -127 -63 -23 -34 16 -86 63 -86 16 0
72 16 126 36 96 35 140 47 358 97 117 27 326 52 351 43 7 -3 14 -17 14 -31 0
-36 32 -33 65 6 20 25 25 40 23 72 -2 34 -7 42 -28 48 -44 12 -223 8 -275 -7z"/>
</g>
</svg>
