<?xml version="1.0" standalone="no"?>
<!DOCTYPE svg PUBLIC "-//W3C//DTD SVG 20010904//EN"
 "http://www.w3.org/TR/2001/REC-SVG-20010904/DTD/svg10.dtd">
<svg version="1.0" xmlns="http://www.w3.org/2000/svg"
 width="208.000000pt" height="212.000000pt" viewBox="0 0 208.000000 212.000000"
 preserveAspectRatio="xMidYMid meet">
<metadata>
Created by potrace 1.16, written by Peter Selinger 2001-2019
</metadata>
<g transform="translate(0.000000,212.000000) scale(0.100000,-0.100000)"
fill="#000000" stroke="none">
<path d="M1055 1491 c-101 -51 -176 -78 -275 -101 -70 -16 -100 -31 -139 -71
-42 -41 -41 -88 2 -102 24 -8 43 -2 121 36 51 25 120 53 152 63 33 9 90 32
127 51 62 31 69 32 84 18 8 -9 22 -14 30 -11 8 3 19 6 24 6 18 0 50 81 47 118
-3 34 -5 37 -38 40 -25 1 -63 -12 -135 -47z m-405 -211 c0 -5 -4 -10 -10 -10
-5 0 -10 5 -10 10 0 6 5 10 10 10 6 0 10 -4 10 -10z"/>
<path d="M1219 1002 c-13 -10 -51 -26 -84 -36 -72 -22 -85 -27 -150 -54 -27
-12 -77 -28 -110 -37 -33 -9 -69 -20 -80 -24 -11 -5 -40 -15 -65 -22 -25 -7
-72 -23 -105 -35 -33 -12 -100 -35 -149 -50 -71 -23 -90 -33 -97 -52 -7 -18
-5 -31 5 -48 23 -34 52 -39 105 -17 25 11 75 30 111 43 257 89 442 155 475
171 34 15 164 39 216 39 53 0 51 -4 53 78 1 40 -6 47 -60 56 -32 4 -47 2 -65
-12z m-112 -98 c-3 -3 -12 -4 -19 -1 -8 3 -5 6 6 6 11 1 17 -2 13 -5z m-87
-24 c0 -5 -2 -10 -4 -10 -3 0 -8 5 -11 10 -3 6 -1 10 4 10 6 0 11 -4 11 -10z
m-130 -40 c0 -5 -4 -10 -10 -10 -5 0 -10 5 -10 10 0 6 5 10 10 10 6 0 10 -4
10 -10z"/>
</g>
</svg>
