<?xml version="1.0" standalone="no"?>
<!DOCTYPE svg PUBLIC "-//W3C//DTD SVG 20010904//EN"
 "http://www.w3.org/TR/2001/REC-SVG-20010904/DTD/svg10.dtd">
<svg version="1.0" xmlns="http://www.w3.org/2000/svg"
 width="207.000000pt" height="214.000000pt" viewBox="0 0 207.000000 214.000000"
 preserveAspectRatio="xMidYMid meet">
<metadata>
Created by potrace 1.16, written by Peter Selinger 2001-2019
</metadata>
<g transform="translate(0.000000,214.000000) scale(0.100000,-0.100000)"
fill="#000000" stroke="none">
<path d="M1095 1790 c-38 -21 -81 -44 -95 -50 -14 -6 -38 -22 -55 -34 -28 -21
-135 -75 -180 -90 -11 -4 -31 -21 -44 -38 -24 -30 -24 -31 -6 -64 10 -19 30
-37 48 -43 26 -10 36 -7 84 22 30 17 74 43 98 57 24 14 63 44 87 67 24 22 60
49 79 58 19 10 46 27 60 38 15 10 42 22 60 26 24 5 35 13 37 28 11 74 -64 84
-173 23z"/>
<path d="M1240 1315 c-111 -23 -184 -46 -206 -66 -11 -10 -24 -19 -29 -19 -31
0 -350 -159 -393 -196 -41 -34 -129 -84 -150 -84 -15 0 -80 -46 -99 -70 -18
-22 -16 -54 5 -80 23 -29 88 -32 123 -7 13 10 42 31 64 48 63 47 174 122 207
141 16 9 37 23 46 30 17 15 30 21 147 73 33 14 85 39 115 55 71 36 240 90 284
90 65 0 76 68 15 89 -38 13 -45 13 -129 -4z m-233 -141 c-3 -3 -12 -4 -19 -1
-8 3 -5 6 6 6 11 1 17 -2 13 -5z m-86 -36 c-5 -13 -18 -23 -36 -25 l-27 -4 28
25 c36 31 46 32 35 4z"/>
<path d="M864 936 c-18 -13 -22 -28 -26 -103 -8 -149 -56 -329 -121 -453 -21
-41 -43 -79 -48 -84 -13 -14 -11 -70 3 -84 26 -26 70 -14 113 31 23 24 63 54
90 67 26 13 62 36 80 51 17 16 56 40 86 55 30 15 73 44 97 65 50 44 126 74
140 56 11 -15 38 -120 52 -205 23 -134 77 -194 109 -122 11 25 11 37 1 61 -8
18 -14 86 -16 167 -1 75 -7 155 -13 177 -9 35 -8 44 9 67 33 45 28 52 -50 73
-44 12 -52 11 -80 -7 -30 -18 -32 -21 -26 -62 l7 -43 -48 -17 c-26 -10 -67
-24 -90 -32 -23 -8 -47 -21 -53 -29 -7 -8 -40 -28 -74 -44 -33 -16 -78 -43
-100 -60 -45 -36 -51 -38 -41 -13 3 9 9 34 11 54 3 21 13 64 23 95 10 32 22
78 26 103 14 91 41 151 74 171 26 15 32 25 29 47 -3 26 -5 27 -73 30 -50 2
-76 -2 -91 -12z"/>
</g>
</svg>
