<?xml version="1.0" standalone="no"?>
<!DOCTYPE svg PUBLIC "-//W3C//DTD SVG 20010904//EN"
 "http://www.w3.org/TR/2001/REC-SVG-20010904/DTD/svg10.dtd">
<svg version="1.0" xmlns="http://www.w3.org/2000/svg"
 width="206.000000pt" height="213.000000pt" viewBox="0 0 206.000000 213.000000"
 preserveAspectRatio="xMidYMid meet">
<metadata>
Created by potrace 1.16, written by Peter Selinger 2001-2019
</metadata>
<g transform="translate(0.000000,213.000000) scale(0.100000,-0.100000)"
fill="#000000" stroke="none">
<path d="M1008 1656 c-31 -13 -89 -45 -130 -72 -75 -50 -125 -78 -285 -159
-83 -43 -92 -50 -98 -81 -7 -41 16 -78 60 -94 28 -10 32 -8 70 32 55 58 74 72
155 115 38 20 84 50 102 65 18 15 37 28 42 28 5 0 23 10 40 23 40 30 60 37 76
27 20 -13 71 10 81 37 13 34 11 77 -3 91 -18 18 -46 14 -110 -12z m-218 -180
c0 -3 -4 -8 -10 -11 -5 -3 -10 -1 -10 4 0 6 5 11 10 11 6 0 10 -2 10 -4z"/>
<path d="M1073 1186 c-18 -6 -35 -15 -39 -19 -4 -4 -16 -7 -26 -7 -10 0 -46
-13 -80 -30 -34 -16 -72 -30 -85 -30 -13 0 -31 -4 -41 -10 -9 -5 -45 -19 -80
-30 -35 -12 -86 -36 -114 -55 -28 -19 -58 -35 -67 -35 -9 0 -21 -4 -27 -9 -20
-19 -186 -101 -204 -101 -23 0 -70 -65 -70 -96 0 -48 63 -65 131 -36 26 11 50
25 53 31 4 6 31 23 59 37 99 49 112 57 157 89 48 35 87 53 190 90 84 30 265
112 312 141 41 26 58 61 37 75 -19 12 -67 9 -106 -5z m-335 -178 c-6 -18 -28
-21 -28 -4 0 9 7 16 16 16 9 0 14 -5 12 -12z"/>
<path d="M880 960 c-8 -5 -28 -10 -43 -10 -65 0 -85 -42 -51 -109 15 -30 15
-39 1 -109 -38 -192 -66 -280 -112 -352 -14 -22 -25 -46 -25 -53 0 -8 -9 -26
-20 -40 -24 -30 -24 -35 -4 -75 22 -45 55 -42 109 7 24 22 66 52 95 66 28 14
72 41 98 59 26 19 65 43 87 54 22 11 64 39 94 61 57 42 81 42 81 -1 0 -10 6
-47 14 -81 8 -34 24 -111 36 -172 24 -121 25 -125 44 -125 18 0 28 82 25 195
-2 50 -3 142 -3 205 l-1 115 28 13 c36 17 45 41 23 57 -12 9 -15 20 -11 38 8
30 1 32 -86 36 -57 2 -70 0 -94 -21 -26 -23 -27 -25 -14 -66 7 -23 10 -44 8
-45 -36 -28 -139 -91 -189 -117 -36 -19 -83 -47 -104 -62 -53 -38 -66 -37 -57
5 5 18 14 43 20 56 17 31 61 245 61 297 0 46 16 101 36 125 23 26 18 59 -8 59
-13 0 -30 -5 -38 -10z m30 -564 c0 -3 -4 -8 -10 -11 -5 -3 -10 -1 -10 4 0 6 5
11 10 11 6 0 10 -2 10 -4z"/>
</g>
</svg>
