<?xml version="1.0" standalone="no"?>
<!DOCTYPE svg PUBLIC "-//W3C//DTD SVG 20010904//EN"
 "http://www.w3.org/TR/2001/REC-SVG-20010904/DTD/svg10.dtd">
<svg version="1.0" xmlns="http://www.w3.org/2000/svg"
 width="207.000000pt" height="214.000000pt" viewBox="0 0 207.000000 214.000000"
 preserveAspectRatio="xMidYMid meet">
<metadata>
Created by potrace 1.16, written by Peter Selinger 2001-2019
</metadata>
<g transform="translate(0.000000,214.000000) scale(0.100000,-0.100000)"
fill="#000000" stroke="none">
<path d="M1302 1871 c-28 -18 -67 -32 -114 -40 -39 -6 -79 -16 -90 -22 -10 -5
-62 -18 -116 -29 -82 -16 -122 -31 -256 -99 -88 -45 -168 -81 -178 -81 -10 0
-18 -4 -18 -8 0 -5 -17 -17 -38 -26 -62 -28 -120 -86 -127 -126 -9 -51 33 -99
90 -103 l40 -2 -2 38 c-4 61 39 93 287 217 36 18 82 41 104 52 50 26 64 14 46
-41 -16 -49 -8 -189 15 -271 22 -79 55 -238 55 -265 0 -18 -7 -25 -29 -30 -16
-3 -71 -23 -122 -45 -52 -21 -97 -36 -101 -33 -5 2 -8 50 -8 106 0 56 -5 146
-12 200 -12 97 -12 99 10 115 12 10 23 28 24 42 3 23 0 25 -37 23 -22 -1 -59
-5 -82 -8 -53 -8 -61 -30 -38 -106 29 -97 38 -152 42 -277 l4 -122 -28 -11
c-15 -7 -52 -14 -80 -17 -43 -4 -53 -2 -53 11 0 8 5 17 12 19 6 2 9 9 5 15 -5
7 -20 8 -44 3 -21 -5 -65 -11 -98 -13 -74 -7 -93 -14 -100 -38 -6 -19 10 -58
29 -72 6 -4 43 -7 81 -6 39 0 83 -3 100 -8 27 -9 99 -3 144 12 16 5 19 -2 25
-42 7 -50 21 -82 31 -72 3 4 13 37 23 75 13 54 22 71 42 81 14 7 48 23 75 36
54 26 112 58 151 83 28 19 85 11 65 -9 -6 -6 -11 -34 -11 -62 -1 -58 -4 -63
-110 -155 -41 -36 -99 -89 -129 -119 -30 -29 -77 -69 -105 -87 -28 -19 -76
-53 -106 -75 -110 -81 -291 -179 -332 -179 -9 0 -23 -6 -30 -14 -8 -7 -28 -21
-46 -30 -70 -36 -82 -110 -19 -121 25 -5 53 4 132 41 185 86 250 115 310 137
45 16 160 46 220 57 22 4 78 17 125 29 174 45 237 60 295 69 33 5 114 21 180
35 66 15 145 32 175 38 126 26 247 64 278 86 36 27 41 57 18 101 -15 27 -88
102 -101 102 -9 0 -1 -46 16 -87 18 -44 8 -52 -82 -69 -41 -7 -94 -18 -119
-24 -25 -6 -74 -15 -110 -21 -36 -6 -79 -15 -95 -20 -17 -5 -109 -22 -205 -39
-170 -28 -295 -57 -353 -79 -16 -6 -43 -11 -60 -11 -35 0 -44 -10 140 163 20
19 25 19 49 7 25 -14 28 -13 60 25 19 22 34 46 34 54 0 8 42 57 93 110 51 53
115 127 142 164 101 139 157 206 195 232 52 36 92 90 88 118 -5 33 -33 32 -68
-1 -17 -17 -46 -33 -65 -36 -25 -5 -54 -26 -100 -72 -36 -36 -65 -69 -65 -74
0 -28 -146 -213 -161 -204 -5 3 -9 26 -9 52 0 49 -25 201 -59 362 -21 101 -22
123 -3 181 10 27 22 40 55 55 55 25 58 56 7 65 -41 6 -55 -2 133 79 121 51
156 77 157 118 0 31 -34 29 -88 -7z m-275 -1383 c-3 -8 -6 -5 -6 6 -1 11 2 17
5 13 3 -3 4 -12 1 -19z m-202 -38 c-3 -5 -13 -10 -21 -10 -8 0 -12 5 -9 10 3
6 13 10 21 10 8 0 12 -4 9 -10z"/>
</g>
</svg>
