<?xml version="1.0" standalone="no"?>
<!DOCTYPE svg PUBLIC "-//W3C//DTD SVG 20010904//EN"
 "http://www.w3.org/TR/2001/REC-SVG-20010904/DTD/svg10.dtd">
<svg version="1.0" xmlns="http://www.w3.org/2000/svg"
 width="206.000000pt" height="208.000000pt" viewBox="0 0 206.000000 208.000000"
 preserveAspectRatio="xMidYMid meet">
<metadata>
Created by potrace 1.16, written by Peter Selinger 2001-2019
</metadata>
<g transform="translate(0.000000,208.000000) scale(0.100000,-0.100000)"
fill="#000000" stroke="none">
<path d="M1194 1903 c-20 -21 -65 -58 -100 -83 -35 -25 -97 -72 -139 -104 -42
-32 -78 -57 -80 -54 -3 3 0 29 6 59 16 80 0 131 -53 169 -57 42 -92 40 -117
-7 -19 -37 -13 -70 18 -95 34 -27 61 -99 61 -161 0 -38 -5 -46 -55 -90 -30
-26 -75 -55 -101 -65 -54 -20 -124 -83 -124 -111 0 -24 36 -51 66 -51 18 0
109 47 150 77 5 4 17 13 25 18 56 36 98 72 99 83 0 15 20 17 20 2 0 -6 -20
-52 -44 -103 -23 -51 -51 -112 -61 -137 -9 -25 -26 -63 -37 -84 -44 -90 -138
-335 -157 -411 -8 -27 -24 -82 -37 -121 -22 -68 -36 -195 -22 -209 20 -20 75
49 85 105 2 17 28 96 48 150 7 19 27 76 45 125 46 130 73 200 113 285 41 89
77 181 77 196 0 6 36 64 80 130 44 65 80 122 80 127 0 10 69 103 101 137 83
86 152 196 147 233 -5 39 -50 34 -94 -10z"/>
<path d="M1367 1368 c-17 -6 -36 -26 -48 -50 -20 -39 -22 -40 -62 -35 -23 3
-64 15 -90 27 -57 25 -100 20 -123 -15 -12 -18 -13 -28 -5 -44 13 -23 108 -61
154 -61 52 0 64 -13 48 -52 -7 -18 -21 -55 -32 -82 -10 -27 -25 -56 -32 -65
-8 -9 -18 -27 -22 -41 -10 -35 -116 -249 -126 -256 -17 -10 -49 22 -55 54 -4
18 -15 37 -26 43 -30 16 -86 2 -105 -27 -21 -33 -7 -60 70 -135 l57 -56 -52
-114 c-28 -63 -61 -130 -72 -149 -12 -19 -32 -57 -46 -84 -14 -27 -47 -73 -74
-103 -39 -44 -47 -56 -35 -64 8 -5 20 -9 28 -9 26 0 112 75 160 140 75 103 86
121 117 195 30 74 62 135 71 135 5 0 123 -60 163 -82 19 -11 26 -13 145 -60
163 -64 285 -60 364 12 33 31 34 32 15 50 -17 16 -25 17 -72 8 -63 -13 -182 1
-233 26 -18 9 -36 16 -42 16 -5 0 -23 6 -40 14 -18 8 -67 30 -110 50 -42 19
-84 42 -93 50 -8 9 -22 19 -30 24 -13 7 -11 17 14 68 55 110 110 229 117 252
3 12 10 22 15 22 11 0 58 77 112 184 17 32 42 70 56 83 23 21 25 27 13 45 -11
17 -9 23 10 44 32 34 19 54 -33 53 -24 0 -55 -5 -71 -11z"/>
</g>
</svg>
