<?xml version="1.0" standalone="no"?>
<!DOCTYPE svg PUBLIC "-//W3C//DTD SVG 20010904//EN"
 "http://www.w3.org/TR/2001/REC-SVG-20010904/DTD/svg10.dtd">
<svg version="1.0" xmlns="http://www.w3.org/2000/svg"
 width="208.000000pt" height="208.000000pt" viewBox="0 0 208.000000 208.000000"
 preserveAspectRatio="xMidYMid meet">
<metadata>
Created by potrace 1.16, written by Peter Selinger 2001-2019
</metadata>
<g transform="translate(0.000000,208.000000) scale(0.100000,-0.100000)"
fill="#000000" stroke="none">
<path d="M855 2058 c3 -13 9 -43 13 -67 4 -25 12 -46 19 -48 17 -6 50 47 58
95 l7 42 -51 0 c-48 0 -51 -1 -46 -22z"/>
<path d="M1225 1988 c-33 -11 -73 -26 -90 -33 -16 -7 -41 -16 -55 -20 -14 -3
-45 -16 -70 -27 -49 -23 -59 -28 -135 -57 -110 -42 -231 -111 -272 -155 -49
-51 -51 -58 -23 -86 35 -35 83 -25 149 33 57 49 132 93 206 120 215 78 423
177 433 206 7 21 -20 41 -52 40 -17 -1 -58 -11 -91 -21z"/>
<path d="M1080 1672 c-35 -6 -80 -40 -80 -62 0 -21 64 -65 80 -55 6 3 20 3 31
0 18 -6 20 -13 16 -40 -16 -97 -106 -217 -208 -277 -35 -21 -69 -38 -75 -38
-7 0 -14 26 -18 63 -9 86 -8 108 5 140 16 37 0 56 -33 40 -13 -6 -38 -14 -57
-17 -62 -11 -80 -49 -42 -90 18 -20 41 -132 46 -217 2 -42 11 -59 31 -59 17 0
17 -10 0 -33 -34 -45 23 -101 82 -79 15 5 59 15 97 22 39 7 84 18 100 25 50
21 112 38 124 34 7 -3 5 -15 -7 -36 -9 -18 -40 -77 -69 -132 -52 -100 -91
-163 -106 -170 -5 -2 -13 -14 -18 -28 -7 -19 -4 -39 12 -82 11 -31 25 -61 31
-68 7 -9 3 -15 -17 -23 -14 -5 -29 -10 -32 -10 -20 0 -176 -116 -200 -148 -15
-20 -34 -42 -42 -48 -9 -7 -10 -13 -4 -17 15 -9 75 19 159 75 62 42 80 48 140
54 65 6 72 5 101 -20 17 -14 40 -26 51 -26 21 0 38 32 27 50 -3 5 2 21 11 35
17 25 16 27 -13 53 -34 31 -73 84 -91 125 -14 31 -10 41 68 182 99 179 141
288 130 335 -9 38 -54 37 -163 -1 -76 -27 -254 -63 -265 -54 -1 1 22 21 51 44
57 43 147 136 147 150 0 5 16 21 35 35 19 15 35 33 35 40 0 8 7 19 15 26 20
16 55 132 55 180 0 62 -13 83 -66 105 -27 11 -60 19 -74 17z"/>
</g>
</svg>
