<?xml version="1.0" standalone="no"?>
<!DOCTYPE svg PUBLIC "-//W3C//DTD SVG 20010904//EN"
 "http://www.w3.org/TR/2001/REC-SVG-20010904/DTD/svg10.dtd">
<svg version="1.0" xmlns="http://www.w3.org/2000/svg"
 width="205.000000pt" height="208.000000pt" viewBox="0 0 205.000000 208.000000"
 preserveAspectRatio="xMidYMid meet">
<metadata>
Created by potrace 1.16, written by Peter Selinger 2001-2019
</metadata>
<g transform="translate(0.000000,208.000000) scale(0.100000,-0.100000)"
fill="#000000" stroke="none">
<path d="M1160 2002 c-26 -13 -39 -29 -52 -66 -9 -27 -33 -75 -53 -107 -21
-34 -35 -70 -35 -89 0 -28 -79 -195 -114 -240 -6 -8 -22 -35 -35 -60 -27 -51
-71 -117 -137 -205 -25 -33 -54 -80 -64 -104 -11 -23 -29 -55 -41 -70 -11 -14
-36 -51 -56 -81 -19 -30 -49 -69 -65 -87 -41 -42 -33 -57 17 -34 59 27 208
182 253 264 23 43 48 64 60 52 4 -4 7 -149 7 -323 0 -294 2 -321 20 -367 18
-43 25 -50 51 -53 45 -4 59 17 43 65 -15 42 -18 259 -8 478 8 152 15 188 40
211 11 9 19 30 19 45 l0 28 -65 -6 c-36 -3 -65 -3 -65 1 0 3 18 33 40 65 22
32 40 65 40 72 0 8 9 22 19 31 11 9 25 35 31 57 6 22 28 71 50 108 21 37 42
80 45 95 4 15 13 32 21 39 8 6 14 20 14 29 0 10 14 31 30 47 30 27 56 94 45
113 -3 5 -1 11 5 15 16 10 11 61 -8 78 -17 15 -21 15 -52 -1z"/>
<path d="M1160 1620 c-24 -3 -38 -13 -47 -29 -18 -37 -1 -59 53 -67 52 -7 223
2 269 16 17 4 47 11 68 15 30 5 37 10 37 29 0 13 -6 28 -13 34 -13 11 -294 12
-367 2z"/>
<path d="M1394 1488 c-34 -13 -55 -28 -63 -45 -32 -69 -46 -212 -60 -616 -5
-136 -15 -278 -21 -315 -14 -80 -10 -284 6 -289 15 -5 34 40 40 96 3 25 12 64
20 86 24 69 45 242 54 457 5 113 12 217 15 230 3 12 9 75 14 140 8 102 13 123
41 176 31 58 36 93 15 97 -5 2 -33 -6 -61 -17z"/>
</g>
</svg>
