<?xml version="1.0" standalone="no"?>
<!DOCTYPE svg PUBLIC "-//W3C//DTD SVG 20010904//EN"
 "http://www.w3.org/TR/2001/REC-SVG-20010904/DTD/svg10.dtd">
<svg version="1.0" xmlns="http://www.w3.org/2000/svg"
 width="208.000000pt" height="208.000000pt" viewBox="0 0 208.000000 208.000000"
 preserveAspectRatio="xMidYMid meet">
<metadata>
Created by potrace 1.16, written by Peter Selinger 2001-2019
</metadata>
<g transform="translate(0.000000,208.000000) scale(0.100000,-0.100000)"
fill="#000000" stroke="none">
<path d="M1025 1740 c-3 -5 -23 -10 -44 -10 -54 0 -72 -24 -77 -102 -10 -199
-32 -326 -66 -393 -9 -17 -30 -73 -47 -125 -18 -52 -47 -126 -66 -165 -18 -38
-52 -114 -75 -169 -65 -155 -121 -263 -191 -369 -45 -68 -41 -94 9 -58 17 11
35 21 41 21 6 0 11 4 11 8 0 5 20 35 45 68 24 32 45 64 45 69 0 6 16 32 35 59
19 27 35 55 35 61 0 7 9 22 19 34 10 12 36 55 56 96 20 41 42 75 48 75 27 0
177 -40 211 -56 20 -10 36 -23 36 -30 0 -17 -47 -152 -64 -184 -7 -14 -19 -43
-26 -65 -7 -22 -28 -73 -46 -113 -19 -40 -34 -75 -34 -78 0 -3 -14 -26 -31
-51 -54 -81 -14 -100 64 -30 26 24 47 47 47 51 0 4 10 22 23 39 13 18 31 48
40 67 48 103 75 170 87 215 7 28 17 55 21 60 4 6 37 96 73 200 111 320 131
387 145 485 6 41 12 89 15 105 10 70 29 122 52 146 16 17 24 36 22 50 -3 23
-6 24 -67 21 -94 -3 -104 -13 -107 -101 -6 -162 -16 -240 -39 -321 -28 -92
-112 -360 -127 -399 l-9 -24 -27 24 c-34 31 -104 69 -127 69 -10 0 -33 10 -52
21 -28 17 -33 26 -28 43 4 11 9 32 12 46 3 14 23 70 46 125 34 86 69 212 81
292 2 13 8 28 14 35 5 7 13 34 17 60 4 27 22 70 41 100 19 29 34 60 34 70 0
29 -61 51 -75 28z m285 -460 c0 -5 -5 -10 -11 -10 -5 0 -7 5 -4 10 3 6 8 10
11 10 2 0 4 -4 4 -10z"/>
<path d="M1310 712 c-41 -27 -51 -45 -46 -79 6 -44 46 -94 112 -139 52 -36 60
-38 130 -39 64 0 78 3 90 19 8 11 14 23 14 27 0 17 -31 37 -49 32 -30 -8 -125
40 -151 77 -13 18 -23 46 -22 63 1 56 -30 72 -78 39z"/>
</g>
</svg>
