<?xml version="1.0" standalone="no"?>
<!DOCTYPE svg PUBLIC "-//W3C//DTD SVG 20010904//EN"
 "http://www.w3.org/TR/2001/REC-SVG-20010904/DTD/svg10.dtd">
<svg version="1.0" xmlns="http://www.w3.org/2000/svg"
 width="207.000000pt" height="209.000000pt" viewBox="0 0 207.000000 209.000000"
 preserveAspectRatio="xMidYMid meet">
<metadata>
Created by potrace 1.16, written by Peter Selinger 2001-2019
</metadata>
<g transform="translate(0.000000,209.000000) scale(0.100000,-0.100000)"
fill="#000000" stroke="none">
<path d="M1203 1600 c-23 -10 -26 -15 -43 -110 -38 -215 -70 -328 -138 -485
-22 -49 -49 -121 -61 -160 -13 -38 -34 -94 -47 -123 -13 -29 -24 -57 -24 -62
0 -23 -86 2 -141 40 -14 10 -38 22 -55 26 -16 4 -34 10 -39 15 -6 4 -43 24
-83 44 -77 38 -83 48 -57 99 8 15 15 37 15 47 0 10 5 21 10 24 6 3 10 14 10
24 0 9 8 26 18 37 36 40 55 76 42 84 -17 10 32 151 76 216 41 63 67 182 45
208 -16 19 -40 20 -64 2 -33 -26 -98 -166 -132 -287 -18 -65 -69 -198 -117
-306 -31 -69 -46 -93 -60 -93 -36 0 -77 -102 -45 -113 9 -3 9 -13 -1 -48 -7
-24 -17 -57 -22 -74 -11 -37 -56 -149 -78 -194 -9 -18 -25 -36 -35 -39 -29 -8
-18 -46 15 -50 33 -4 70 19 89 56 7 15 23 36 34 47 21 21 61 118 90 216 25 84
25 84 80 70 26 -7 62 -23 79 -36 17 -13 43 -27 59 -30 15 -4 44 -16 64 -26 21
-10 48 -19 61 -19 21 0 82 -25 82 -34 0 -5 -27 -70 -59 -139 -25 -54 -48 -111
-93 -230 -6 -16 -17 -34 -24 -41 -21 -21 -21 -50 -1 -54 31 -6 114 92 158 188
22 47 47 99 56 115 9 17 21 41 27 54 35 77 83 165 92 168 5 2 18 -12 28 -31
11 -21 33 -41 55 -51 20 -9 47 -22 61 -30 97 -52 127 -66 182 -83 131 -42 328
-46 328 -7 0 19 -17 28 -75 37 -75 12 -80 13 -90 20 -6 3 -49 17 -96 32 -47
14 -97 34 -110 44 -13 11 -43 29 -66 41 -24 12 -43 25 -43 30 0 4 -11 13 -24
19 -13 6 -30 23 -38 39 -9 19 -22 29 -41 31 -34 4 -34 17 3 112 17 41 30 79
30 84 0 5 11 32 24 60 60 127 94 230 126 381 11 54 25 104 30 110 5 6 14 33
20 59 9 42 8 51 -6 67 -18 20 -45 23 -81 9z m-607 -415 c-6 -25 -36 -36 -36
-13 0 14 31 50 38 44 2 -3 2 -17 -2 -31z"/>
</g>
</svg>
