<?xml version="1.0" standalone="no"?>
<!DOCTYPE svg PUBLIC "-//W3C//DTD SVG 20010904//EN"
 "http://www.w3.org/TR/2001/REC-SVG-20010904/DTD/svg10.dtd">
<svg version="1.0" xmlns="http://www.w3.org/2000/svg"
 width="208.000000pt" height="209.000000pt" viewBox="0 0 208.000000 209.000000"
 preserveAspectRatio="xMidYMid meet">
<metadata>
Created by potrace 1.16, written by Peter Selinger 2001-2019
</metadata>
<g transform="translate(0.000000,209.000000) scale(0.100000,-0.100000)"
fill="#000000" stroke="none">
<path d="M1045 1981 c-28 -12 -58 -48 -51 -60 6 -9 -3 -33 -65 -167 -11 -22
-19 -48 -19 -57 0 -48 -193 -387 -285 -502 -66 -82 -79 -103 -164 -260 -9 -16
-35 -52 -58 -80 -24 -27 -43 -54 -43 -58 0 -5 -19 -26 -42 -46 -30 -28 -40
-42 -35 -55 5 -14 14 -17 33 -12 31 8 43 17 103 77 86 84 118 124 202 249 89
133 149 213 156 206 2 -2 -3 -35 -12 -72 -9 -38 -19 -112 -22 -164 -4 -62 -15
-124 -33 -180 -15 -47 -37 -121 -49 -165 -12 -44 -29 -93 -38 -109 -21 -37
-19 -89 4 -116 48 -55 81 -81 123 -96 25 -9 55 -21 67 -27 29 -13 156 -12 208
2 22 6 54 23 72 38 17 16 43 36 57 46 40 28 128 145 164 219 37 76 37 76 17
105 -20 29 -42 20 -49 -22 -4 -18 -14 -39 -23 -46 -9 -8 -29 -32 -45 -54 -33
-44 -136 -137 -195 -174 -29 -18 -51 -24 -91 -23 -63 2 -157 44 -186 84 -22
31 -19 52 32 212 l25 78 66 30 c145 64 210 101 260 146 28 26 51 53 51 60 0 6
-1 12 -3 12 -19 0 -123 -38 -177 -66 -38 -19 -89 -37 -114 -40 l-46 -7 0 42
c0 48 27 186 42 216 6 11 29 36 51 56 34 30 39 39 33 62 -8 34 -25 34 -94 2
-55 -25 -82 -31 -82 -17 0 4 25 48 55 97 30 50 60 101 66 115 6 14 15 32 20
40 63 112 78 141 89 175 7 22 33 82 57 134 47 102 53 139 25 164 -20 19 -28
20 -57 8z"/>
<path d="M1053 1620 c-29 -13 -43 -25 -43 -38 0 -27 36 -56 73 -58 18 0 82 -7
144 -14 135 -15 237 -11 259 12 15 15 14 17 -14 32 -17 9 -71 22 -119 30 -92
15 -217 41 -243 49 -8 3 -34 -3 -57 -13z"/>
</g>
</svg>
