<?xml version="1.0" standalone="no"?>
<!DOCTYPE svg PUBLIC "-//W3C//DTD SVG 20010904//EN"
 "http://www.w3.org/TR/2001/REC-SVG-20010904/DTD/svg10.dtd">
<svg version="1.0" xmlns="http://www.w3.org/2000/svg"
 width="207.000000pt" height="210.000000pt" viewBox="0 0 207.000000 210.000000"
 preserveAspectRatio="xMidYMid meet">
<metadata>
Created by potrace 1.16, written by Peter Selinger 2001-2019
</metadata>
<g transform="translate(0.000000,210.000000) scale(0.100000,-0.100000)"
fill="#000000" stroke="none">
<path d="M1534 1740 c-33 -13 -35 -23 -26 -102 7 -49 6 -94 -2 -136 -12 -67
-14 -69 -101 -110 -22 -11 -46 -27 -54 -36 -7 -9 -18 -16 -23 -16 -18 0 -85
-59 -91 -79 -7 -29 20 -61 52 -61 16 0 45 11 65 25 20 14 53 36 73 50 45 31
53 22 47 -54 -11 -128 -25 -235 -34 -252 -11 -19 -86 -67 -190 -120 -36 -18
-85 -46 -109 -61 -25 -15 -51 -28 -59 -28 -8 0 -41 -13 -74 -30 -32 -16 -61
-30 -63 -30 -9 0 -5 49 4 55 5 3 21 30 35 60 13 30 38 72 54 92 17 21 37 58
45 83 15 44 40 105 77 185 44 95 88 214 99 270 7 33 19 76 26 95 22 59 37 126
33 151 -2 20 -9 24 -43 27 -22 1 -46 -2 -54 -7 -15 -10 -47 -128 -66 -247 -8
-56 -29 -119 -67 -205 -30 -68 -67 -153 -83 -189 -31 -73 -78 -167 -155 -315
-37 -72 -50 -90 -46 -65 4 19 9 80 12 135 5 85 3 108 -14 153 -17 45 -18 54
-6 66 18 19 18 27 -1 20 -20 -8 -19 1 5 63 23 62 72 143 112 186 35 39 58 105
40 116 -20 12 3 109 33 137 25 23 30 40 19 68 -9 23 -95 22 -122 -1 -20 -17
-64 -122 -64 -153 0 -41 -34 -123 -82 -200 -29 -47 -59 -101 -66 -120 -7 -19
-37 -71 -66 -115 -28 -44 -73 -120 -99 -170 -27 -49 -59 -105 -73 -122 -21
-29 -22 -33 -7 -33 17 0 72 50 113 104 12 16 25 26 28 23 4 -3 1 -52 -6 -109
-7 -57 -15 -147 -17 -200 -4 -77 -9 -100 -23 -113 -14 -13 -16 -23 -10 -38 5
-12 13 -79 20 -149 13 -153 22 -184 57 -193 51 -12 77 59 63 170 -6 48 -6 86
2 121 11 46 18 56 70 94 32 23 58 46 58 50 0 5 23 25 51 45 37 26 54 34 62 26
17 -17 29 -14 93 25 32 20 102 59 154 86 52 28 97 53 100 57 3 3 27 17 53 31
27 14 57 33 67 43 23 21 44 22 36 2 -3 -8 -11 -55 -17 -103 -18 -145 -84 -460
-114 -547 -8 -26 -13 -51 -10 -56 12 -19 36 -8 46 21 6 16 15 30 19 30 5 0 12
10 16 23 3 12 15 42 26 65 11 24 17 46 14 49 -3 4 1 11 10 17 22 16 61 159 84
308 11 70 25 139 30 153 6 15 10 37 10 51 0 13 5 24 10 24 6 0 10 11 10 24 0
13 7 26 15 30 8 3 15 11 15 18 0 15 46 68 59 68 15 0 100 89 117 121 15 30 13
59 -5 59 -5 0 -38 -20 -74 -45 -37 -25 -71 -45 -77 -45 -16 0 -1 126 20 175
10 22 23 74 31 115 7 45 19 82 30 93 23 22 15 45 -18 53 -24 6 -25 9 -18 53 4
25 6 73 6 106 -2 82 -35 110 -97 85z m-827 -825 c9 -22 15 -56 15 -75 -1 -52
-32 -168 -49 -181 -12 -11 -13 -8 -8 17 4 16 13 48 21 71 16 49 13 168 -4 185
-15 15 -16 31 -1 26 6 -2 18 -22 26 -43z m573 -120 c0 -8 -2 -15 -4 -15 -2 0
-6 7 -10 15 -3 8 -1 15 4 15 6 0 10 -7 10 -15z"/>
</g>
</svg>
