<?xml version="1.0" standalone="no"?>
<!DOCTYPE svg PUBLIC "-//W3C//DTD SVG 20010904//EN"
 "http://www.w3.org/TR/2001/REC-SVG-20010904/DTD/svg10.dtd">
<svg version="1.0" xmlns="http://www.w3.org/2000/svg"
 width="208.000000pt" height="211.000000pt" viewBox="0 0 208.000000 211.000000"
 preserveAspectRatio="xMidYMid meet">
<metadata>
Created by potrace 1.16, written by Peter Selinger 2001-2019
</metadata>
<g transform="translate(0.000000,211.000000) scale(0.100000,-0.100000)"
fill="#000000" stroke="none">
<path d="M734 1830 c-12 -5 -26 -15 -30 -22 -12 -18 -33 -92 -45 -157 -8 -45
-67 -220 -99 -296 -5 -11 -12 -36 -16 -55 -7 -36 -41 -111 -54 -120 -5 -3 -16
-25 -26 -50 -9 -25 -22 -52 -29 -60 -6 -8 -17 -31 -24 -50 -7 -19 -18 -46 -24
-60 -18 -39 -102 -163 -126 -184 -29 -26 -27 -54 4 -62 26 -6 52 6 90 43 38
37 90 105 116 151 52 96 50 97 48 -23 -1 -60 4 -170 11 -242 10 -102 11 -139
2 -158 -19 -41 -15 -75 7 -75 15 0 29 19 53 70 20 42 41 72 53 76 11 3 38 28
60 55 34 42 44 48 69 44 21 -4 44 6 95 40 37 25 70 45 74 45 8 0 65 40 143
100 54 42 129 90 140 90 8 0 4 -176 -7 -240 -11 -69 -30 -94 -79 -106 -14 -3
-52 -17 -85 -30 -38 -15 -77 -23 -105 -22 -26 1 -68 -7 -100 -19 -46 -18 -56
-26 -58 -48 -5 -35 23 -65 61 -65 24 0 28 -3 24 -20 -15 -58 39 -124 83 -100
10 5 29 10 41 10 12 0 51 11 86 25 64 26 83 26 83 -1 0 -21 28 -17 35 6 10 30
56 49 148 61 67 8 89 15 119 40 20 16 40 29 43 29 15 0 55 55 55 75 0 30 -35
73 -63 77 -19 3 -14 11 46 69 89 88 91 139 5 139 -31 0 -40 -5 -47 -22 -5 -13
-19 -33 -32 -44 -28 -25 -150 -97 -155 -91 -2 2 1 74 6 160 11 176 23 209 88
249 20 12 50 34 67 49 17 15 53 39 80 54 28 14 59 34 70 44 12 9 29 20 38 24
24 9 32 34 16 53 -19 23 -83 10 -144 -29 -27 -18 -59 -38 -70 -45 -11 -6 -43
-25 -71 -42 -56 -33 -64 -35 -64 -19 0 6 -7 35 -16 65 -20 71 -53 92 -108 69
-37 -16 -45 -38 -26 -73 11 -20 40 -124 40 -144 0 -8 -22 -27 -50 -42 -27 -15
-63 -38 -79 -52 -16 -13 -32 -24 -36 -24 -4 0 -36 -20 -72 -45 -35 -25 -66
-45 -68 -45 -11 0 -4 29 10 40 18 15 102 142 122 184 8 17 30 54 49 81 19 28
41 70 50 95 9 25 40 95 70 156 30 61 54 117 54 125 0 8 6 23 13 34 8 11 24 47
37 80 13 33 34 73 47 89 13 16 23 38 21 50 -3 18 -9 21 -50 19 -26 -1 -57 -7
-68 -13 -25 -14 -62 -91 -80 -170 -7 -30 -34 -100 -61 -155 -26 -55 -60 -131
-74 -170 -14 -38 -40 -95 -59 -125 -18 -30 -50 -90 -72 -134 -21 -43 -55 -97
-75 -120 -20 -22 -42 -52 -49 -66 -7 -14 -37 -61 -65 -105 -29 -44 -55 -90
-59 -101 -4 -12 -15 -29 -25 -38 -18 -17 -19 -16 -27 16 -4 18 -7 121 -8 230
l-1 196 -27 21 -27 21 23 53 c13 28 31 78 40 109 9 32 30 86 46 122 17 35 30
70 30 78 0 7 8 27 18 43 51 84 96 325 62 325 -5 0 -14 2 -22 4 -7 3 -23 1 -34
-4z"/>
</g>
</svg>
