<?xml version="1.0" standalone="no"?>
<!DOCTYPE svg PUBLIC "-//W3C//DTD SVG 20010904//EN"
 "http://www.w3.org/TR/2001/REC-SVG-20010904/DTD/svg10.dtd">
<svg version="1.0" xmlns="http://www.w3.org/2000/svg"
 width="206.000000pt" height="213.000000pt" viewBox="0 0 206.000000 213.000000"
 preserveAspectRatio="xMidYMid meet">
<metadata>
Created by potrace 1.16, written by Peter Selinger 2001-2019
</metadata>
<g transform="translate(0.000000,213.000000) scale(0.100000,-0.100000)"
fill="#000000" stroke="none">
<path d="M970 1823 c-21 -8 -30 -24 -30 -53 0 -14 -14 -61 -31 -105 -35 -89
-67 -174 -103 -267 -27 -74 -91 -190 -195 -358 -9 -14 -31 -54 -49 -89 -64
-124 -116 -206 -154 -244 -47 -46 -49 -62 -7 -53 29 6 119 71 119 86 0 4 17
25 38 46 22 22 50 59 64 84 14 25 41 68 59 96 35 53 47 72 111 184 60 104 83
150 112 225 30 78 58 133 97 191 30 46 71 189 63 221 -4 12 -19 26 -36 32 -34
12 -36 12 -58 4z"/>
<path d="M1016 1385 c-18 -14 -19 -36 -1 -92 6 -17 3 -23 -8 -23 -28 0 -40
-36 -26 -77 12 -38 10 -73 -15 -268 -34 -256 -46 -332 -56 -365 -7 -19 -13
-87 -16 -150 -4 -129 6 -113 -102 -164 l-52 -25 5 22 c29 123 38 189 41 286
l3 114 36 35 c39 40 41 45 20 62 -11 9 -22 9 -46 1 -18 -6 -49 -11 -70 -11
-55 0 -64 -22 -49 -113 13 -72 8 -199 -9 -253 -5 -16 -17 -66 -27 -111 -10
-46 -20 -86 -23 -91 -3 -4 -30 -18 -60 -32 -66 -30 -121 -79 -121 -108 0 -21
5 -22 76 -22 68 0 83 4 167 44 51 25 107 58 126 74 19 17 47 33 63 36 16 3 66
23 111 45 96 46 158 64 286 86 52 9 104 20 116 25 13 5 26 6 29 3 3 -3 12 0
20 7 10 7 37 11 73 9 32 -2 64 0 71 4 21 14 15 101 -8 122 -11 10 -20 24 -20
31 0 8 -9 19 -20 26 -12 8 -20 24 -20 39 0 15 -6 32 -14 38 -32 27 -59 -63
-37 -122 13 -34 2 -45 -54 -51 -28 -4 -63 -9 -79 -12 -16 -4 -45 -8 -65 -10
-37 -3 -144 -25 -219 -44 -24 -6 -48 -7 -54 -4 -13 8 -3 101 22 209 11 44 20
91 22 105 2 19 12 27 41 35 22 6 46 21 55 32 18 23 125 93 182 119 45 21 84
60 77 77 -3 8 -20 17 -38 21 -26 5 -51 -3 -133 -43 -56 -27 -112 -52 -125 -56
l-24 -7 7 88 c11 148 35 262 56 269 23 7 34 35 20 49 -20 20 -9 25 48 21 91
-7 291 22 316 46 6 5 18 9 28 9 10 0 21 6 24 14 3 8 14 16 25 19 11 3 19 14
19 27 0 22 -3 22 -56 16 -31 -3 -64 -10 -73 -15 -29 -15 -281 -13 -341 4 -68
18 -100 18 -124 0z"/>
</g>
</svg>
