<?xml version="1.0" standalone="no"?>
<!DOCTYPE svg PUBLIC "-//W3C//DTD SVG 20010904//EN"
 "http://www.w3.org/TR/2001/REC-SVG-20010904/DTD/svg10.dtd">
<svg version="1.0" xmlns="http://www.w3.org/2000/svg"
 width="208.000000pt" height="210.000000pt" viewBox="0 0 208.000000 210.000000"
 preserveAspectRatio="xMidYMid meet">
<metadata>
Created by potrace 1.16, written by Peter Selinger 2001-2019
</metadata>
<g transform="translate(0.000000,210.000000) scale(0.100000,-0.100000)"
fill="#000000" stroke="none">
<path d="M1501 1959 c-19 -12 -60 -41 -90 -66 -31 -25 -67 -51 -81 -57 -13 -6
-35 -21 -49 -33 -13 -13 -27 -23 -31 -23 -12 0 -21 63 -10 74 28 28 -20 96
-69 96 -33 0 -74 -42 -67 -69 3 -9 8 -57 11 -107 l7 -91 -56 -26 c-75 -36
-176 -106 -176 -122 0 -27 13 -46 42 -61 28 -14 32 -14 52 4 20 19 109 62 127
62 10 0 12 -180 3 -204 -3 -9 -10 -16 -15 -16 -16 0 -103 -42 -134 -65 -16
-12 -39 -25 -51 -29 -36 -11 -64 -45 -64 -77 0 -25 6 -33 36 -45 34 -14 37
-14 81 13 98 61 118 73 127 73 5 0 6 -44 2 -102 -8 -110 -5 -105 -83 -153 -84
-52 -196 -130 -264 -184 -39 -31 -42 -26 -65 97 -17 90 -21 98 -68 150 l-50
54 18 32 c90 153 155 322 167 436 13 119 27 172 54 200 27 28 32 54 13 67 -29
18 -83 31 -109 26 -54 -11 -58 -24 -63 -209 -2 -132 -7 -176 -20 -199 -9 -16
-16 -36 -16 -43 0 -7 -4 -20 -9 -30 -5 -9 -27 -55 -50 -102 -40 -83 -81 -135
-156 -195 -43 -34 -85 -96 -85 -124 0 -64 98 -45 162 30 23 27 44 49 48 49 16
0 61 -123 76 -205 9 -49 27 -133 40 -185 21 -78 24 -108 18 -168 -3 -40 -10
-75 -15 -78 -12 -7 -11 -41 1 -49 19 -11 54 21 69 61 7 21 20 47 29 56 12 14
14 34 8 105 l-6 88 55 33 c30 18 55 37 55 43 0 5 30 30 68 55 37 25 82 56 101
69 19 14 38 25 44 25 6 0 7 -29 2 -82 -4 -46 -9 -226 -10 -401 -2 -285 -1
-318 13 -315 20 4 40 86 53 213 15 156 26 238 35 284 l5 24 32 -31 c54 -50
155 -110 208 -121 27 -6 62 -20 77 -31 68 -50 89 8 157 425 36 215 64 334 105
445 24 66 27 155 5 164 -21 8 -42 -2 -105 -48 -30 -23 -80 -57 -110 -78 -30
-20 -87 -58 -126 -85 -38 -26 -79 -53 -90 -60 -10 -7 -40 -26 -66 -43 l-48
-30 0 43 c0 66 28 147 58 171 24 19 97 60 182 103 19 10 37 20 40 23 3 3 14
10 24 16 11 6 24 18 30 28 26 41 -68 62 -114 26 -14 -11 -31 -20 -37 -20 -7 0
-41 -14 -75 -30 -34 -17 -68 -28 -75 -26 -16 6 -10 133 6 149 6 6 11 29 11 51
0 35 6 45 61 95 34 31 74 63 89 71 37 20 154 130 163 153 7 18 -7 57 -21 57
-4 0 -23 -10 -41 -21z m99 -811 c-12 -40 -40 -172 -61 -293 -52 -302 -59 -339
-68 -353 -5 -9 -24 -5 -72 12 -99 36 -121 50 -182 115 -54 59 -56 62 -52 108
13 150 33 207 81 240 15 10 36 27 48 38 32 29 74 56 126 81 25 11 51 28 59 37
7 10 40 32 72 49 33 18 59 37 59 42 0 5 3 7 6 4 3 -4 -4 -39 -16 -80z"/>
</g>
</svg>
