<?xml version="1.0" standalone="no"?>
<!DOCTYPE svg PUBLIC "-//W3C//DTD SVG 20010904//EN"
 "http://www.w3.org/TR/2001/REC-SVG-20010904/DTD/svg10.dtd">
<svg version="1.0" xmlns="http://www.w3.org/2000/svg"
 width="209.000000pt" height="211.000000pt" viewBox="0 0 209.000000 211.000000"
 preserveAspectRatio="xMidYMid meet">
<metadata>
Created by potrace 1.16, written by Peter Selinger 2001-2019
</metadata>
<g transform="translate(0.000000,211.000000) scale(0.100000,-0.100000)"
fill="#000000" stroke="none">
<path d="M1303 1940 c-56 -13 -58 -19 -61 -152 l-3 -123 -37 -33 c-20 -18 -57
-43 -82 -56 -25 -13 -65 -43 -90 -66 -25 -23 -61 -56 -80 -72 -58 -51 -110
-119 -110 -144 0 -41 75 -61 102 -28 63 79 248 254 268 254 13 0 13 -61 0 -94
-5 -14 -15 -26 -23 -26 -21 0 -48 -57 -54 -114 -5 -53 -7 -54 -77 -107 -39
-30 -106 -88 -149 -130 -71 -69 -78 -80 -75 -110 4 -42 38 -57 95 -43 29 7 42
17 55 44 9 19 39 57 67 84 l51 49 0 -30 c0 -16 -14 -72 -30 -124 -45 -139 -47
-160 -17 -192 26 -29 46 -34 65 -15 15 15 104 48 227 83 33 10 87 26 119 36
66 21 106 24 106 8 0 -32 -93 -147 -137 -169 -15 -8 -41 -25 -56 -37 -16 -13
-35 -23 -42 -23 -7 0 -20 -7 -28 -14 -19 -20 -132 -74 -180 -87 -46 -12 -66
-46 -49 -84 11 -25 85 -64 187 -100 28 -10 64 -23 80 -30 39 -17 261 -71 350
-86 89 -14 185 1 185 30 0 19 -40 31 -102 31 -14 0 -66 13 -115 29 -48 15
-115 36 -148 45 -66 19 -225 93 -225 105 0 11 50 46 116 79 91 47 193 152 248
256 36 67 34 97 -9 134 -37 33 -52 34 -150 10 -22 -5 -64 -14 -94 -19 -30 -5
-87 -19 -128 -29 -74 -20 -113 -25 -113 -14 0 31 97 324 114 343 22 25 162
133 195 150 11 6 22 20 26 30 3 11 14 22 23 25 25 8 82 85 75 102 -5 15 -33
20 -33 6 0 -4 -15 -16 -32 -26 -61 -34 -163 -101 -182 -118 -27 -24 -37 -11
-37 48 0 49 35 203 49 214 86 70 132 115 132 131 0 27 -37 24 -82 -6 -39 -26
-68 -32 -68 -14 0 31 25 107 41 125 26 28 24 41 -11 59 -16 8 -30 15 -32 14
-2 -1 -18 -5 -35 -9z"/>
<path d="M847 1824 c-15 -14 -27 -33 -27 -44 0 -42 -76 -244 -143 -380 -77
-157 -197 -348 -246 -394 -50 -45 -171 -199 -200 -254 -10 -19 -10 -28 4 -48
8 -13 24 -24 35 -24 35 0 234 214 293 315 15 25 32 45 39 43 31 -11 68 -202
68 -358 0 -100 -20 -232 -40 -271 -23 -42 -3 -67 45 -55 31 8 48 41 74 143 43
166 19 456 -50 599 -32 67 -32 69 -15 99 18 31 22 38 74 140 16 33 37 74 45
90 9 17 30 66 48 110 18 44 43 104 56 133 28 64 30 132 6 154 -32 27 -39 27
-66 2z"/>
</g>
</svg>
