<?xml version="1.0" standalone="no"?>
<!DOCTYPE svg PUBLIC "-//W3C//DTD SVG 20010904//EN"
 "http://www.w3.org/TR/2001/REC-SVG-20010904/DTD/svg10.dtd">
<svg version="1.0" xmlns="http://www.w3.org/2000/svg"
 width="204.000000pt" height="212.000000pt" viewBox="0 0 204.000000 212.000000"
 preserveAspectRatio="xMidYMid meet">
<metadata>
Created by potrace 1.16, written by Peter Selinger 2001-2019
</metadata>
<g transform="translate(0.000000,212.000000) scale(0.100000,-0.100000)"
fill="#000000" stroke="none">
<path d="M954 1932 c-22 -13 -77 -117 -110 -205 -18 -49 -40 -97 -48 -106 -9
-10 -16 -23 -16 -30 0 -7 -9 -31 -19 -54 -10 -23 -43 -100 -72 -171 -29 -72
-65 -148 -80 -170 -15 -23 -42 -75 -60 -116 -36 -82 -80 -149 -108 -165 -9 -5
-34 -23 -54 -40 -46 -38 -50 -60 -6 -38 16 8 32 13 35 11 8 -8 -89 -148 -103
-148 -18 0 -17 6 9 51 24 43 15 68 -11 29 -9 -14 -25 -34 -36 -45 -21 -21 -22
-59 -3 -82 33 -40 125 16 189 115 66 102 66 102 119 102 72 0 75 -9 73 -220
-1 -97 -8 -196 -15 -223 -14 -57 -6 -70 49 -72 48 -2 76 12 133 66 40 39 45
41 48 22 2 -11 13 -30 26 -42 l23 -22 57 20 c30 11 82 35 113 54 110 66 99 74
99 -71 0 -128 11 -190 42 -224 14 -17 16 -17 43 -1 33 20 32 14 18 119 -9 62
-9 105 1 183 12 99 13 102 49 130 20 16 53 37 74 47 20 10 37 21 37 25 0 4 35
28 79 54 135 80 172 139 68 109 -59 -17 -190 -78 -226 -106 -13 -10 -32 -18
-43 -18 -19 0 -19 5 -13 113 10 186 5 175 76 175 101 0 108 39 17 87 -63 33
-66 40 -48 117 5 24 14 83 19 131 5 53 15 94 24 105 8 9 20 35 26 58 8 31 31
60 94 122 97 95 160 165 187 210 20 33 26 62 13 62 -11 0 -86 -52 -120 -82
-15 -14 -56 -51 -90 -82 -35 -31 -67 -56 -72 -56 -6 0 -8 15 -5 33 3 17 8 60
11 94 5 61 4 63 -33 107 -22 25 -47 45 -56 46 -25 0 -61 -50 -53 -75 11 -34
24 -238 18 -278 -4 -27 -13 -42 -32 -52 -14 -7 -46 -33 -70 -57 -43 -42 -84
-75 -239 -194 -91 -69 -136 -116 -153 -156 -12 -28 -11 -32 10 -49 13 -11 30
-19 38 -19 24 0 81 39 88 60 3 10 18 26 32 35 15 10 36 28 47 39 12 12 57 49
101 81 44 33 86 68 93 77 21 29 32 21 32 -21 0 -42 -23 -90 -76 -156 -17 -22
-37 -56 -43 -75 -6 -19 -25 -60 -42 -90 -18 -30 -53 -94 -79 -141 -26 -47 -72
-117 -101 -157 -30 -39 -64 -88 -77 -109 -13 -21 -46 -63 -74 -93 -58 -61 -70
-55 -45 22 18 56 22 268 6 333 -15 63 -24 74 -76 97 -24 10 -43 22 -42 26 0 4
13 28 27 54 95 168 120 216 126 238 8 27 13 41 45 112 12 26 21 51 21 55 0 19
97 153 111 153 27 0 38 22 48 93 5 36 12 71 16 77 12 19 8 140 -5 155 -13 16
-38 19 -56 7z m251 -1197 l-7 -100 -35 -22 c-19 -13 -39 -23 -44 -23 -5 0 -36
-13 -69 -30 -33 -16 -68 -30 -78 -30 -11 0 -31 -10 -46 -21 -33 -26 -46 -17
-20 14 11 12 28 38 38 57 10 19 45 65 77 101 32 36 66 86 75 110 21 52 59 115
88 146 l21 22 3 -62 c2 -34 0 -107 -3 -162z"/>
</g>
</svg>
