<?xml version="1.0" standalone="no"?>
<!DOCTYPE svg PUBLIC "-//W3C//DTD SVG 20010904//EN"
 "http://www.w3.org/TR/2001/REC-SVG-20010904/DTD/svg10.dtd">
<svg version="1.0" xmlns="http://www.w3.org/2000/svg"
 width="207.000000pt" height="214.000000pt" viewBox="0 0 207.000000 214.000000"
 preserveAspectRatio="xMidYMid meet">
<metadata>
Created by potrace 1.16, written by Peter Selinger 2001-2019
</metadata>
<g transform="translate(0.000000,214.000000) scale(0.100000,-0.100000)"
fill="#000000" stroke="none">
<path d="M873 2057 c-30 -16 -43 -39 -43 -75 0 -61 -139 -397 -201 -483 -10
-15 -36 -62 -57 -105 -37 -78 -91 -162 -178 -279 -24 -33 -60 -83 -79 -112
-19 -28 -39 -54 -45 -58 -16 -10 -12 -33 10 -55 35 -35 60 -25 120 47 82 99
91 108 137 132 72 36 131 23 151 -33 18 -50 15 -345 -4 -431 -28 -121 -29
-135 -8 -135 11 0 28 7 38 15 11 8 34 15 51 15 22 0 38 8 55 30 14 16 30 29
36 30 7 0 23 15 36 33 14 17 64 75 112 127 47 52 86 100 86 107 0 7 6 16 14
20 31 18 117 136 155 212 23 44 45 81 50 81 4 0 16 16 27 35 26 50 37 43 30
-17 -3 -29 -8 -89 -11 -133 -3 -44 -10 -101 -16 -127 -6 -25 -14 -86 -17 -135
l-7 -88 -50 -25 c-27 -13 -95 -48 -149 -77 -54 -29 -104 -53 -110 -53 -23 -1
-79 -58 -82 -83 -5 -47 58 -73 101 -43 11 7 63 36 115 63 52 28 109 59 127 69
17 10 34 16 37 13 4 -3 2 -64 -3 -135 -10 -142 -4 -174 32 -174 42 0 56 20 62
90 15 174 28 276 37 288 6 6 50 37 99 68 49 31 89 60 89 63 0 4 20 20 45 35
25 16 45 32 45 37 0 4 9 11 20 14 34 11 83 62 77 79 -8 20 -47 21 -73 1 -10
-8 -24 -15 -31 -15 -11 0 -111 -57 -219 -124 -23 -14 -45 -26 -49 -26 -12 0
30 398 43 412 4 4 41 12 82 18 79 11 121 32 178 90 35 35 37 42 21 71 -8 16
-17 19 -42 14 -18 -4 -36 -12 -42 -19 -5 -7 -23 -19 -40 -27 -64 -33 -141 -69
-145 -69 -11 0 13 206 26 227 16 26 18 60 4 65 -11 4 -15 108 -5 170 5 34 14
52 31 63 13 8 24 22 24 30 0 7 8 16 19 20 28 9 171 149 171 168 0 9 -4 17 -9
17 -15 0 -81 -40 -126 -75 -45 -36 -121 -85 -131 -85 -4 0 -4 34 -2 76 3 50 1
77 -6 79 -53 18 -126 7 -126 -19 1 -22 29 -181 35 -197 8 -20 -15 -45 -120
-134 -102 -86 -205 -184 -205 -195 0 -4 -19 -20 -42 -35 -57 -37 -167 -152
-175 -183 -8 -33 8 -57 40 -57 20 0 66 39 199 166 204 195 285 269 297 269 16
0 10 -114 -8 -150 -81 -160 -107 -209 -125 -232 -11 -14 -34 -49 -51 -77 -49
-84 -195 -293 -238 -341 -21 -25 -60 -67 -86 -95 -26 -27 -56 -63 -68 -80 -27
-38 -37 -28 -24 22 12 45 17 363 6 408 -21 82 -72 121 -155 118 -24 -1 -48 0
-52 3 -4 3 11 40 32 83 22 44 40 83 40 89 0 5 12 27 27 48 37 54 133 244 133
263 0 24 28 99 62 169 20 40 50 79 80 106 43 37 48 47 42 70 -7 31 -16 37 -71
52 -27 7 -48 7 -60 1z"/>
</g>
</svg>
