<?xml version="1.0" standalone="no"?>
<!DOCTYPE svg PUBLIC "-//W3C//DTD SVG 20010904//EN"
 "http://www.w3.org/TR/2001/REC-SVG-20010904/DTD/svg10.dtd">
<svg version="1.0" xmlns="http://www.w3.org/2000/svg"
 width="208.000000pt" height="212.000000pt" viewBox="0 0 208.000000 212.000000"
 preserveAspectRatio="xMidYMid meet">
<metadata>
Created by potrace 1.16, written by Peter Selinger 2001-2019
</metadata>
<g transform="translate(0.000000,212.000000) scale(0.100000,-0.100000)"
fill="#000000" stroke="none">
<path d="M1495 2108 c-11 -6 -29 -19 -40 -29 -45 -42 -83 -68 -140 -94 -33
-15 -67 -34 -76 -42 -13 -11 -146 -81 -324 -171 -37 -19 -74 -61 -75 -86 0
-10 11 -29 25 -42 31 -28 76 -23 99 11 16 24 108 81 233 143 44 23 83 45 85
50 1 5 39 28 83 52 44 23 87 49 97 57 11 10 18 11 23 3 11 -17 -5 -215 -25
-320 -10 -52 -21 -131 -25 -175 -3 -44 -12 -143 -20 -220 -7 -77 -13 -149 -13
-160 0 -11 -1 -106 -2 -211 -1 -104 2 -207 5 -227 7 -36 5 -40 -54 -96 -38
-36 -61 -66 -61 -80 0 -28 19 -27 81 5 28 14 60 24 72 23 40 -3 44 1 59 54 12
40 14 73 8 138 -9 94 5 538 20 663 5 45 12 104 14 131 3 28 10 82 16 120 6 39
18 131 26 205 19 176 23 198 45 235 11 16 19 40 19 53 0 21 -4 22 -67 22 -38
0 -77 -6 -88 -12z"/>
<path d="M629 1666 c-16 -8 -30 -29 -41 -66 -10 -30 -50 -149 -89 -265 -39
-115 -78 -232 -88 -259 -12 -36 -25 -55 -51 -71 -47 -30 -96 -93 -82 -107 7
-7 16 -2 27 16 16 24 55 37 55 19 0 -21 -50 -126 -75 -160 -48 -63 -76 -85
-101 -80 -28 5 -32 -14 -8 -37 36 -36 85 -13 181 84 l61 62 12 -38 c33 -117
30 -266 -7 -338 -14 -27 -14 -31 2 -42 25 -19 38 -9 77 57 30 50 37 74 43 139
4 43 3 93 -1 112 -4 18 -8 35 -9 38 -1 3 -4 19 -8 35 -4 17 -9 46 -11 65 -2
19 -12 50 -21 68 -24 48 -15 98 43 242 28 69 58 150 67 180 9 30 27 78 39 105
12 28 28 68 36 90 7 22 26 56 41 75 27 32 39 78 22 81 -41 7 -95 5 -114 -5z"/>
<path d="M1051 1270 c-61 -49 -75 -87 -59 -166 l11 -54 54 -16 c30 -9 70 -16
88 -16 31 0 33 -2 25 -26 -25 -83 -82 -178 -124 -206 -37 -24 -73 -20 -92 9
-14 22 -16 40 -9 113 13 153 12 207 -5 207 -48 0 -91 -275 -55 -355 22 -49 52
-69 114 -77 47 -5 121 11 121 26 0 4 14 23 31 42 68 75 128 237 129 345 0 61
-28 134 -68 177 -50 52 -92 51 -161 -3z m115 -97 c14 -19 19 -133 6 -133 -15
0 -72 84 -72 105 0 42 42 60 66 28z"/>
</g>
</svg>
