<?xml version="1.0" standalone="no"?>
<!DOCTYPE svg PUBLIC "-//W3C//DTD SVG 20010904//EN"
 "http://www.w3.org/TR/2001/REC-SVG-20010904/DTD/svg10.dtd">
<svg version="1.0" xmlns="http://www.w3.org/2000/svg"
 width="208.000000pt" height="210.000000pt" viewBox="0 0 208.000000 210.000000"
 preserveAspectRatio="xMidYMid meet">
<metadata>
Created by potrace 1.16, written by Peter Selinger 2001-2019
</metadata>
<g transform="translate(0.000000,210.000000) scale(0.100000,-0.100000)"
fill="#000000" stroke="none">
<path d="M823 2048 c-17 -29 -37 -66 -45 -83 -49 -100 -58 -121 -58 -130 0 -6
-12 -28 -27 -50 -39 -56 -56 -87 -108 -195 -25 -52 -50 -102 -55 -110 -6 -8
-17 -29 -25 -46 -8 -17 -29 -51 -47 -75 -18 -24 -60 -84 -93 -134 -33 -49 -67
-98 -75 -108 -8 -10 -24 -33 -35 -51 -89 -149 -87 -146 -74 -162 21 -26 59
-36 77 -22 15 13 54 68 127 183 22 34 51 78 65 98 25 36 65 65 76 55 22 -23
41 -424 23 -523 -28 -159 -82 -340 -106 -354 -9 -4 -24 -6 -34 -4 -27 7 -35
-23 -14 -47 23 -25 45 -25 93 0 56 29 86 92 128 266 44 182 53 321 34 533 -13
155 -33 218 -71 228 -10 3 -19 7 -19 10 0 2 18 35 40 73 22 38 40 74 40 81 0
24 84 165 112 188 17 13 27 29 24 37 -6 16 13 64 26 64 4 0 8 7 8 16 0 8 13
27 29 42 26 24 65 85 118 188 10 20 13 42 9 58 -6 24 -11 26 -59 26 l-53 0
-31 -52z"/>
<path d="M1141 1964 c-12 -16 -21 -42 -21 -63 -2 -120 -89 -467 -135 -537 -8
-13 -15 -29 -15 -36 0 -7 -30 -85 -66 -173 -37 -88 -77 -191 -90 -230 -14 -38
-36 -88 -49 -111 -24 -40 -105 -266 -105 -291 0 -29 41 -12 65 26 13 22 31 43
39 48 7 4 28 43 46 85 17 43 36 80 40 83 11 7 3 -58 -22 -175 -20 -97 -36
-260 -37 -387 -1 -81 12 -103 60 -103 40 0 62 51 64 150 1 41 3 100 3 131 l2
56 67 43 c37 24 86 52 108 62 22 10 58 30 80 44 22 13 63 36 90 50 106 56 185
107 185 120 0 40 -78 37 -159 -7 -20 -10 -40 -19 -45 -19 -4 0 -34 -11 -65
-24 -99 -42 -231 -89 -236 -84 -3 2 0 31 6 64 8 44 18 66 39 85 16 15 34 46
40 70 6 24 18 54 27 67 8 13 12 30 9 38 -7 19 45 71 80 80 15 4 43 18 62 31
19 12 39 23 44 23 8 0 78 49 116 80 6 6 12 29 12 50 0 36 -2 40 -25 40 -29 0
-85 -26 -85 -39 0 -5 -17 -12 -37 -16 -21 -3 -55 -15 -76 -26 -21 -10 -43 -19
-50 -19 -12 0 -57 62 -57 79 0 25 25 60 44 63 13 2 28 18 42 46 25 53 66 97
108 119 17 8 53 36 80 62 27 25 65 61 84 79 19 17 37 32 41 32 15 0 29 46 19
63 -13 23 -43 21 -81 -5 -34 -24 -125 -92 -143 -107 -20 -17 -76 -42 -81 -38
-2 3 5 36 16 74 11 37 23 85 26 106 4 20 11 37 15 37 10 0 40 97 40 132 0 57
-35 97 -87 98 -6 0 -21 -12 -32 -26z"/>
</g>
</svg>
