<?xml version="1.0" standalone="no"?>
<!DOCTYPE svg PUBLIC "-//W3C//DTD SVG 20010904//EN"
 "http://www.w3.org/TR/2001/REC-SVG-20010904/DTD/svg10.dtd">
<svg version="1.0" xmlns="http://www.w3.org/2000/svg"
 width="208.000000pt" height="211.000000pt" viewBox="0 0 208.000000 211.000000"
 preserveAspectRatio="xMidYMid meet">
<metadata>
Created by potrace 1.16, written by Peter Selinger 2001-2019
</metadata>
<g transform="translate(0.000000,211.000000) scale(0.100000,-0.100000)"
fill="#000000" stroke="none">
<path d="M702 2024 c-24 -16 -30 -60 -9 -67 9 -3 9 -10 -2 -31 -8 -15 -20 -25
-27 -22 -13 5 -16 -1 -29 -59 -4 -16 -13 -43 -20 -60 -8 -16 -28 -84 -45 -149
-17 -66 -44 -142 -59 -170 -16 -28 -39 -79 -51 -113 -17 -48 -34 -73 -71 -105
-77 -67 -209 -278 -209 -335 0 -23 31 -63 49 -63 25 0 95 33 112 52 10 13 46
79 80 148 75 157 73 153 87 158 48 16 41 -319 -13 -655 -8 -50 -12 -99 -9
-107 9 -22 34 -20 66 7 24 19 30 36 47 142 11 66 25 164 31 219 6 54 15 108
20 120 5 11 47 62 94 111 47 50 86 93 86 97 0 11 61 78 70 78 11 0 27 -82 29
-150 1 -30 7 -95 12 -145 6 -49 13 -151 15 -225 2 -74 7 -157 12 -185 7 -46
10 -50 35 -50 l27 1 0 -117 c0 -65 3 -124 6 -133 11 -29 32 -17 55 30 30 62
41 190 33 385 l-6 156 29 20 c15 11 43 25 61 33 18 7 39 22 47 33 8 11 29 29
48 41 53 32 188 129 210 150 16 15 17 20 6 32 -12 11 -25 10 -83 -6 -38 -11
-76 -25 -85 -33 -21 -17 -117 -59 -101 -44 27 25 175 127 184 127 17 0 96 67
96 81 0 49 -155 28 -201 -27 -6 -8 -18 -14 -26 -14 -8 0 -27 -6 -41 -14 -15
-7 -53 -25 -84 -39 l-57 -26 -6 32 c-12 62 -15 65 -55 72 -39 7 -39 7 -54 75
-21 89 -21 83 18 144 21 33 45 58 66 66 l32 13 -6 68 c-7 65 -6 70 37 156 88
176 104 303 37 303 -36 0 -60 -24 -60 -59 0 -41 -44 -172 -79 -238 -17 -31
-31 -61 -31 -67 0 -17 -92 -169 -121 -200 -15 -15 -32 -47 -39 -70 -7 -22 -34
-72 -59 -111 -26 -38 -70 -105 -97 -147 -27 -43 -52 -78 -56 -78 -5 0 -8 26
-8 58 0 74 -15 126 -51 180 l-29 43 34 72 c18 40 45 113 61 162 15 50 40 130
56 178 16 49 29 95 29 103 0 8 9 23 20 34 28 28 37 93 16 125 -19 29 -42 32
-74 9z m-370 -941 c-33 -73 -43 -91 -58 -104 -15 -13 -16 -12 -9 11 4 14 14
29 21 33 8 4 14 12 14 17 0 19 20 60 29 60 6 0 7 -7 3 -17z"/>
<path d="M1469 1656 c-41 -22 -82 -47 -90 -54 -8 -7 -36 -27 -64 -44 -69 -43
-152 -125 -176 -174 -28 -55 -22 -93 18 -117 29 -17 34 -17 62 -2 25 12 31 22
31 47 0 34 34 91 72 121 68 53 220 152 258 167 51 20 71 40 68 69 -3 24 -7 26
-53 27 -41 2 -63 -5 -126 -40z"/>
</g>
</svg>
