<?xml version="1.0" standalone="no"?>
<!DOCTYPE svg PUBLIC "-//W3C//DTD SVG 20010904//EN"
 "http://www.w3.org/TR/2001/REC-SVG-20010904/DTD/svg10.dtd">
<svg version="1.0" xmlns="http://www.w3.org/2000/svg"
 width="206.000000pt" height="204.000000pt" viewBox="0 0 206.000000 204.000000"
 preserveAspectRatio="xMidYMid meet">
<metadata>
Created by potrace 1.16, written by Peter Selinger 2001-2019
</metadata>
<g transform="translate(0.000000,204.000000) scale(0.100000,-0.100000)"
fill="#000000" stroke="none">
<path d="M589 1859 c-15 -13 -24 -32 -25 -52 0 -18 -8 -48 -17 -67 -9 -19 -26
-60 -37 -90 -22 -56 -187 -375 -210 -405 -4 -5 -11 -21 -15 -35 -4 -14 -29
-70 -55 -125 -48 -102 -100 -241 -100 -269 0 -24 44 -48 74 -40 20 5 28 16 37
48 18 69 50 159 69 191 10 17 23 48 30 70 12 38 42 99 113 230 18 33 37 69 43
80 38 70 105 216 115 250 7 22 24 66 40 98 15 31 23 57 18 57 -5 0 -12 12 -15
28 -7 29 -22 52 -34 52 -4 0 -18 -9 -31 -21z"/>
<path d="M1195 1797 c-16 -12 -17 -23 -11 -107 l8 -93 -72 -69 c-40 -38 -90
-80 -111 -94 -21 -13 -39 -28 -39 -33 0 -5 -25 -26 -56 -46 -39 -26 -62 -50
-77 -82 l-22 -45 24 -19 c43 -35 66 -25 155 64 133 132 181 177 189 177 4 0 7
-30 8 -67 0 -38 4 -94 8 -125 7 -56 6 -59 -23 -86 -53 -49 -157 -117 -254
-167 -87 -45 -92 -49 -92 -79 0 -24 8 -38 30 -54 16 -12 33 -22 39 -22 11 0
89 51 186 121 68 49 70 50 77 27 8 -31 9 -104 2 -150 -6 -34 -12 -40 -61 -62
-29 -14 -72 -44 -95 -66 -34 -36 -39 -45 -31 -63 6 -12 22 -29 37 -36 24 -13
31 -13 72 7 24 12 46 22 47 22 1 0 2 -44 2 -97 0 -54 2 -124 5 -156 l5 -58
-55 -20 c-30 -12 -74 -26 -98 -33 -54 -15 -102 -57 -102 -88 0 -14 10 -34 23
-46 23 -22 71 -30 81 -13 3 5 29 20 58 35 29 14 60 30 68 35 8 5 26 13 40 18
14 6 59 26 100 46 41 19 103 47 138 62 34 15 62 31 62 35 0 3 15 14 33 23 17
9 52 33 77 52 25 19 72 53 105 75 78 52 85 58 85 77 0 13 -8 15 -42 11 -48 -6
-139 -49 -323 -153 -33 -18 -63 -31 -67 -29 -5 3 -8 1 -8 -3 0 -9 -98 -48
-104 -42 -2 2 1 60 6 129 8 108 14 134 41 192 24 50 42 73 70 90 65 40 166
118 176 137 5 9 6 23 2 30 -11 18 -82 6 -113 -19 -27 -21 -94 -50 -115 -50
-12 0 -13 12 -7 68 4 37 7 76 6 87 -1 11 12 33 28 49 17 15 30 36 30 46 0 15
65 77 111 105 56 34 99 67 99 75 0 5 -9 14 -20 20 -35 19 -99 0 -174 -51 -39
-27 -78 -49 -86 -49 -9 0 -6 6 8 16 21 14 21 17 7 28 -15 10 -14 20 4 106 26
116 29 195 12 237 -10 25 -10 43 -2 83 15 72 15 75 -22 88 -43 15 -59 15 -82
-1z"/>
<path d="M533 1231 c-29 -18 -31 -22 -23 -58 4 -21 7 -132 6 -248 -2 -189 -15
-336 -44 -512 -11 -64 4 -93 48 -93 16 0 31 4 34 8 3 5 17 87 31 183 42 283
47 686 8 724 -19 19 -22 19 -60 -4z"/>
</g>
</svg>
