<?xml version="1.0" standalone="no"?>
<!DOCTYPE svg PUBLIC "-//W3C//DTD SVG 20010904//EN"
 "http://www.w3.org/TR/2001/REC-SVG-20010904/DTD/svg10.dtd">
<svg version="1.0" xmlns="http://www.w3.org/2000/svg"
 width="207.000000pt" height="202.000000pt" viewBox="0 0 207.000000 202.000000"
 preserveAspectRatio="xMidYMid meet">
<metadata>
Created by potrace 1.16, written by Peter Selinger 2001-2019
</metadata>
<g transform="translate(0.000000,202.000000) scale(0.100000,-0.100000)"
fill="#000000" stroke="none">
<path d="M1203 1855 c-40 -17 -49 -48 -28 -97 26 -63 20 -84 -27 -114 -24 -15
-55 -37 -69 -51 -15 -14 -47 -39 -71 -56 -112 -79 -151 -113 -174 -146 -13
-20 -31 -46 -40 -58 -14 -19 -14 -24 1 -52 22 -44 53 -41 90 10 16 22 58 64
92 92 35 29 63 55 63 60 0 4 5 7 11 7 5 0 24 14 42 30 40 39 123 91 131 83 9
-9 7 -196 -2 -208 -4 -6 -32 -27 -64 -48 -68 -45 -108 -112 -89 -153 15 -33
63 -33 93 1 27 31 44 32 42 3 -5 -94 -18 -149 -40 -175 -13 -15 -34 -41 -46
-58 -18 -25 -114 -116 -172 -163 -9 -7 -16 -26 -16 -42 0 -22 7 -32 32 -44 17
-9 35 -16 40 -16 5 0 28 20 52 45 25 25 49 45 54 45 5 0 -5 -41 -24 -90 -19
-50 -34 -99 -34 -109 0 -36 -12 -51 -39 -51 -45 1 -133 25 -145 41 -15 19 -50
13 -98 -17 -44 -28 -49 -54 -15 -88 18 -18 39 -24 102 -30 129 -12 136 -14
128 -45 -10 -42 -72 -165 -88 -174 -8 -4 -28 -28 -45 -52 -37 -54 -25 -65 37
-37 53 23 134 118 180 210 20 40 44 77 52 81 20 10 134 33 181 37 37 3 347 16
390 16 23 1 51 -4 185 -32 22 -5 67 -18 99 -29 82 -29 96 -28 96 9 0 24 -6 33
-27 40 -16 6 -35 15 -43 20 -18 12 -12 10 -125 46 -85 26 -102 28 -305 32
-118 2 -258 -1 -310 -7 -52 -6 -98 -7 -102 -3 -4 4 11 59 32 122 58 172 67
194 79 198 6 2 11 10 11 18 0 7 17 25 38 38 51 33 192 171 192 188 0 8 -3 18
-6 21 -8 8 -144 -62 -144 -74 0 -5 -11 -9 -25 -9 -14 0 -25 6 -25 13 0 15 52
91 69 102 6 3 20 24 31 46 11 21 27 39 35 39 16 0 82 126 91 176 5 26 2 34
-14 43 -28 15 -72 13 -102 -4 -14 -8 -37 -14 -52 -15 l-28 0 -2 88 c-4 159 -2
172 38 213 58 59 29 105 -37 58 -36 -25 -44 -20 -62 42 -14 49 -27 55 -74 34z
m177 -560 c0 -16 -29 -72 -43 -84 -15 -12 -17 -11 -17 4 0 21 38 85 51 85 5 0
9 -2 9 -5z m-360 -845 c0 -5 -4 -10 -10 -10 -5 0 -10 5 -10 10 0 6 5 10 10 10
6 0 10 -4 10 -10z"/>
<path d="M480 1583 c-29 -10 -40 -37 -40 -98 0 -34 -4 -75 -9 -91 -5 -16 -14
-49 -21 -74 -30 -107 -93 -256 -138 -324 -15 -22 -38 -61 -50 -86 -13 -25 -45
-85 -72 -135 -27 -49 -49 -97 -50 -106 0 -29 31 -31 66 -4 39 30 54 31 102 8
47 -22 182 -157 182 -181 0 -10 4 -22 9 -27 17 -19 33 -88 33 -143 0 -61 -22
-124 -54 -159 -23 -24 -18 -53 8 -53 9 0 38 16 65 35 40 30 50 45 63 89 34
118 12 248 -60 354 -34 48 -119 125 -200 180 -19 12 -34 25 -34 27 0 6 33 67
77 145 55 97 122 238 137 290 9 30 23 75 31 100 34 112 45 226 23 248 -12 12
-42 15 -68 5z"/>
<path d="M866 1155 c-3 -8 -14 -15 -24 -15 -10 0 -22 -3 -26 -7 -3 -4 -17 -8
-29 -10 -38 -6 -47 -12 -47 -32 0 -43 22 -70 72 -88 48 -17 68 -35 132 -118
28 -37 29 -37 48 -18 19 19 19 22 3 78 -10 34 -31 72 -51 95 -23 25 -34 47
-34 68 0 17 -3 37 -6 46 -8 20 -30 21 -38 1z"/>
</g>
</svg>
