<?xml version="1.0" standalone="no"?>
<!DOCTYPE svg PUBLIC "-//W3C//DTD SVG 20010904//EN"
 "http://www.w3.org/TR/2001/REC-SVG-20010904/DTD/svg10.dtd">
<svg version="1.0" xmlns="http://www.w3.org/2000/svg"
 width="208.000000pt" height="203.000000pt" viewBox="0 0 208.000000 203.000000"
 preserveAspectRatio="xMidYMid meet">
<metadata>
Created by potrace 1.16, written by Peter Selinger 2001-2019
</metadata>
<g transform="translate(0.000000,203.000000) scale(0.100000,-0.100000)"
fill="#000000" stroke="none">
<path d="M1280 2005 c-19 -21 -22 -29 -13 -47 21 -44 37 -139 27 -156 -6 -9
-36 -29 -67 -46 -32 -17 -72 -45 -90 -62 -17 -17 -43 -37 -57 -44 -38 -19 -70
-52 -70 -70 0 -9 -9 -25 -20 -35 -27 -25 -25 -50 6 -74 34 -26 40 -26 62 1 51
66 199 188 228 188 11 0 14 -23 14 -109 0 -116 -4 -127 -53 -153 -52 -27 -188
-143 -193 -165 -4 -15 -20 -29 -40 -38 -28 -11 -34 -19 -34 -44 0 -23 7 -33
28 -43 35 -17 61 -90 62 -175 0 -34 5 -65 10 -68 6 -3 10 -14 10 -24 0 -29 39
-71 66 -71 28 0 27 2 13 -56 -10 -40 -14 -45 -33 -39 -12 4 -27 7 -34 7 -8 1
-21 12 -29 25 -18 27 -51 30 -93 8 -62 -32 -42 -106 32 -126 23 -6 48 -15 57
-20 9 -5 28 -13 42 -18 l27 -10 -15 -78 c-8 -43 -28 -122 -44 -176 -17 -54
-29 -101 -26 -104 26 -25 148 165 167 260 13 66 28 77 74 55 46 -23 186 -75
224 -83 18 -4 60 -17 92 -30 33 -13 86 -29 118 -35 31 -7 68 -18 82 -25 37
-19 128 -36 204 -38 66 -2 67 -2 64 23 -2 21 -10 26 -43 32 -116 20 -279 72
-380 122 -60 30 -134 60 -163 66 -29 7 -58 18 -65 24 -15 15 -140 76 -156 76
-14 0 -8 46 21 147 11 40 25 70 30 67 4 -3 15 11 24 31 8 21 30 49 47 63 18
15 55 48 82 75 28 27 62 58 78 69 15 11 27 25 27 33 0 7 12 20 26 30 23 15 25
19 11 32 -13 13 -20 12 -66 -12 -29 -14 -72 -41 -97 -60 -48 -37 -99 -51 -58
-16 12 9 31 35 42 57 11 21 32 50 46 63 14 14 26 28 26 31 0 15 92 161 109
173 25 17 41 51 41 85 0 59 -39 62 -163 14 -58 -22 -70 -24 -78 -11 -5 8 -8
60 -8 116 1 109 -1 104 72 186 48 53 47 82 -3 81 -19 0 -42 -4 -51 -8 -13 -5
-19 1 -28 25 -6 18 -11 44 -11 58 0 67 -65 94 -110 46z m240 -602 c0 -13 -88
-126 -105 -135 -12 -7 -14 -3 -8 24 10 51 30 81 65 100 37 19 48 22 48 11z
m-235 -165 c-20 -150 -43 -219 -94 -278 l-40 -45 4 67 c3 39 -1 86 -9 112 -13
41 -12 46 5 62 11 9 19 22 20 28 1 13 95 96 109 96 6 0 8 -18 5 -42z"/>
<path d="M821 1829 c-13 -11 -29 -34 -36 -52 -6 -17 -23 -57 -37 -87 -14 -30
-38 -84 -53 -120 -15 -36 -34 -72 -41 -81 -8 -8 -14 -20 -14 -26 0 -6 -6 -16
-14 -22 -8 -7 -17 -24 -21 -39 -7 -29 -67 -175 -95 -232 -10 -19 -28 -60 -40
-90 -13 -30 -40 -92 -62 -137 -50 -106 -64 -177 -42 -210 13 -20 20 -23 47
-17 43 9 41 6 89 79 62 95 90 87 108 -31 15 -103 26 -336 20 -403 -6 -61 -3
-83 16 -115 9 -15 14 -17 25 -7 8 6 23 18 33 25 17 12 19 28 21 167 4 238 -8
371 -40 451 -34 86 -42 92 -100 80 -33 -7 -45 -7 -45 2 0 18 48 135 110 272
17 35 30 67 30 70 0 4 29 65 64 138 35 72 72 153 81 179 10 27 31 64 47 84 43
54 36 106 -17 136 -6 3 -21 -3 -34 -14z m-213 -567 c4 -25 -13 -30 -22 -6 -9
25 -7 36 7 32 6 -3 13 -14 15 -26z"/>
</g>
</svg>
