<?xml version="1.0" standalone="no"?>
<!DOCTYPE svg PUBLIC "-//W3C//DTD SVG 20010904//EN"
 "http://www.w3.org/TR/2001/REC-SVG-20010904/DTD/svg10.dtd">
<svg version="1.0" xmlns="http://www.w3.org/2000/svg"
 width="207.000000pt" height="204.000000pt" viewBox="0 0 207.000000 204.000000"
 preserveAspectRatio="xMidYMid meet">
<metadata>
Created by potrace 1.16, written by Peter Selinger 2001-2019
</metadata>
<g transform="translate(0.000000,204.000000) scale(0.100000,-0.100000)"
fill="#000000" stroke="none">
<path d="M1459 1921 c-22 -18 -23 -21 -11 -55 13 -34 12 -37 -15 -61 -15 -13
-36 -27 -45 -30 -10 -4 -18 -10 -18 -15 0 -5 -27 -25 -61 -46 -33 -20 -69 -50
-79 -66 -10 -16 -27 -36 -39 -44 -27 -19 -27 -44 -1 -72 34 -37 67 -27 111 34
8 11 36 36 63 55 26 19 57 40 68 48 19 14 20 13 15 -40 -10 -126 -27 -181 -73
-238 l-44 -53 19 -32 c18 -29 18 -36 5 -121 -7 -49 -14 -93 -14 -96 0 -7 -131
-141 -134 -137 -6 7 -28 237 -27 281 1 41 -1 47 -18 47 -11 0 -23 -5 -27 -11
-3 -6 -26 -19 -50 -29 -48 -21 -58 -48 -29 -80 8 -9 19 -36 24 -61 5 -24 14
-64 20 -89 6 -25 13 -56 16 -70 3 -14 18 -46 35 -72 25 -41 35 -48 61 -48 26
0 30 -3 24 -17 -3 -10 -13 -49 -21 -87 -18 -88 -34 -121 -59 -121 -36 -1 -90
17 -111 37 -17 15 -29 18 -58 12 -55 -10 -78 -39 -58 -72 18 -28 77 -62 108
-62 18 0 36 -4 39 -10 3 -5 15 -10 25 -10 10 0 21 -4 25 -10 5 -9 -37 -108
-69 -160 -8 -14 -39 -68 -67 -120 -28 -52 -66 -113 -83 -135 -50 -62 -51 -65
-17 -65 41 0 94 49 165 153 31 45 65 93 75 107 41 56 80 123 86 148 3 15 12
36 20 46 15 19 17 19 83 3 109 -27 204 -37 381 -42 91 -3 181 -8 199 -11 27
-4 32 -2 32 14 0 11 -6 24 -12 30 -17 13 -209 52 -258 52 -20 0 -59 6 -86 14
-27 8 -60 14 -74 14 -39 -1 -184 33 -197 46 -10 9 -7 33 17 116 17 58 30 106
30 107 0 1 8 10 18 20 10 10 26 39 35 64 12 30 27 51 45 60 15 7 40 24 55 36
16 13 33 23 39 23 5 0 27 17 49 37 67 63 42 97 -38 52 -21 -12 -51 -25 -66
-30 -26 -7 -27 -6 -21 14 4 12 10 24 14 27 4 3 16 19 26 35 27 44 73 101 124
155 51 54 100 142 100 181 0 51 -34 60 -127 33 -30 -9 -56 -14 -59 -11 -2 2 3
39 11 83 8 43 15 91 15 106 0 43 29 121 54 143 79 71 69 138 -13 95 -38 -19
-39 -19 -56 0 -23 25 -66 26 -96 1z m111 -555 c0 -2 -9 -15 -20 -28 -11 -12
-29 -34 -39 -48 -20 -24 -20 -25 -21 -3 0 12 14 35 31 52 27 27 49 39 49 27z"/>
<path d="M836 1869 c-14 -17 -26 -39 -26 -50 0 -11 -4 -27 -9 -37 -8 -16 -35
-103 -70 -227 -9 -33 -19 -64 -23 -70 -3 -5 -11 -28 -17 -50 -6 -22 -33 -78
-61 -125 -27 -47 -50 -89 -50 -95 -1 -19 -122 -197 -198 -288 -43 -53 -146
-167 -214 -239 -43 -45 -46 -60 -17 -89 33 -33 65 -17 149 74 115 126 141 148
200 175 159 73 256 -19 252 -240 -1 -71 -7 -100 -30 -155 -27 -65 -30 -68 -65
-71 -42 -4 -50 -27 -19 -54 29 -26 45 -26 94 -2 53 27 79 59 102 129 26 80 29
136 16 247 -22 185 -79 246 -232 247 -38 1 -68 3 -68 5 0 15 38 81 75 131 25
33 50 71 55 85 6 14 30 63 54 110 24 47 62 139 84 205 50 151 70 202 98 242
12 18 28 56 34 85 12 49 12 52 -10 70 -34 28 -74 23 -104 -13z"/>
</g>
</svg>
