<?xml version="1.0" standalone="no"?>
<!DOCTYPE svg PUBLIC "-//W3C//DTD SVG 20010904//EN"
 "http://www.w3.org/TR/2001/REC-SVG-20010904/DTD/svg10.dtd">
<svg version="1.0" xmlns="http://www.w3.org/2000/svg"
 width="205.000000pt" height="202.000000pt" viewBox="0 0 205.000000 202.000000"
 preserveAspectRatio="xMidYMid meet">
<metadata>
Created by potrace 1.16, written by Peter Selinger 2001-2019
</metadata>
<g transform="translate(0.000000,202.000000) scale(0.100000,-0.100000)"
fill="#000000" stroke="none">
<path d="M1330 1831 c-24 -7 -25 -11 -25 -80 -1 -67 -3 -76 -27 -96 -14 -12
-43 -26 -64 -29 -38 -8 -67 -33 -84 -73 -5 -13 -24 -32 -42 -42 -46 -27 -98
-72 -98 -85 0 -6 -9 -17 -20 -24 -11 -7 -20 -17 -20 -24 0 -6 -7 -19 -16 -29
-20 -23 -12 -59 16 -77 30 -18 49 -8 95 48 22 28 57 64 78 81 31 25 41 28 52
19 8 -7 15 -18 15 -25 0 -8 13 -16 29 -20 49 -11 52 -22 31 -121 -31 -141 -33
-147 -81 -181 -24 -18 -77 -58 -118 -90 -41 -32 -95 -68 -120 -80 -25 -13 -54
-32 -66 -42 -11 -10 -36 -27 -56 -39 -19 -12 -44 -31 -55 -43 -16 -18 -84 -59
-98 -59 -2 0 -7 19 -11 43 -12 81 -35 146 -55 157 -17 9 -18 14 -8 38 21 54
101 238 128 297 15 33 40 92 55 130 81 205 92 229 112 268 21 40 29 143 13
162 -15 19 -74 20 -89 2 -6 -8 -16 -38 -21 -68 -11 -56 -25 -110 -40 -144 -31
-74 -70 -182 -70 -192 0 -7 -4 -13 -9 -13 -5 0 -11 -14 -15 -31 -3 -16 -19
-58 -34 -92 -16 -34 -33 -73 -37 -87 -4 -14 -15 -36 -25 -50 -10 -14 -21 -36
-25 -50 -4 -14 -25 -59 -46 -100 -21 -41 -50 -102 -65 -135 -15 -33 -48 -85
-74 -115 -62 -72 -130 -184 -130 -214 0 -25 17 -36 55 -36 16 0 34 13 52 37
15 20 38 48 51 61 12 14 22 30 22 37 0 21 121 176 133 172 28 -9 29 -247 2
-501 -18 -173 -17 -179 35 -174 38 4 50 42 73 239 19 155 25 182 41 191 11 6
36 27 56 47 46 46 85 80 135 116 22 16 58 44 79 62 22 18 44 33 48 33 5 0 47
29 93 65 45 36 86 65 91 65 4 0 15 6 23 14 9 7 36 24 61 37 25 13 68 41 96 61
28 21 54 38 58 38 5 0 21 10 38 21 38 28 103 65 148 85 19 8 48 21 64 29 22
10 34 10 46 2 28 -17 79 29 79 71 1 28 -4 35 -34 48 -39 16 -20 23 -295 -105
-19 -9 -54 -31 -78 -50 -24 -18 -46 -31 -49 -28 -6 7 37 200 47 207 4 3 10 33
13 68 2 34 9 68 15 75 5 6 15 39 22 72 10 45 22 69 49 98 44 47 36 72 -25 73
-35 0 -39 3 -45 33 -10 48 -27 57 -79 42z m-30 -320 c0 -11 -5 -23 -10 -26 -6
-4 -8 -15 -5 -26 4 -10 2 -19 -3 -19 -13 0 -20 55 -10 74 12 22 28 20 28 -3z
m-240 -590 c0 -6 -4 -13 -10 -16 -5 -3 -10 1 -10 9 0 9 5 16 10 16 6 0 10 -4
10 -9z"/>
<path d="M1255 790 c-3 -5 -23 -10 -44 -10 -23 0 -51 -9 -72 -23 -30 -20 -35
-30 -46 -95 -6 -39 -14 -76 -17 -81 -3 -5 -8 -29 -11 -53 -2 -23 -22 -97 -45
-163 -39 -116 -53 -213 -30 -216 37 -5 45 -2 48 16 2 11 12 29 22 40 10 11 23
40 30 65 6 25 24 77 40 115 15 39 31 88 35 110 4 22 16 55 26 73 10 18 19 45
19 58 0 18 16 41 50 74 58 55 69 100 26 100 -14 0 -28 -4 -31 -10z"/>
<path d="M1521 531 c-6 -4 -14 -24 -18 -44 -5 -33 -2 -40 31 -71 31 -28 47
-34 99 -39 77 -8 139 13 156 50 15 34 0 45 -51 37 -41 -7 -133 19 -141 40 -7
17 -61 36 -76 27z"/>
</g>
</svg>
