<?xml version="1.0" standalone="no"?>
<!DOCTYPE svg PUBLIC "-//W3C//DTD SVG 20010904//EN"
 "http://www.w3.org/TR/2001/REC-SVG-20010904/DTD/svg10.dtd">
<svg version="1.0" xmlns="http://www.w3.org/2000/svg"
 width="206.000000pt" height="201.000000pt" viewBox="0 0 206.000000 201.000000"
 preserveAspectRatio="xMidYMid meet">
<metadata>
Created by potrace 1.16, written by Peter Selinger 2001-2019
</metadata>
<g transform="translate(0.000000,201.000000) scale(0.100000,-0.100000)"
fill="#000000" stroke="none">
<path d="M1524 1866 c-32 -32 -34 -39 -34 -97 0 -72 -23 -122 -61 -134 -12 -4
-52 -32 -88 -61 -88 -73 -107 -72 -51 2 59 78 34 93 -74 44 -76 -34 -88 -53
-75 -121 12 -67 13 -66 -43 -103 -78 -52 -124 -96 -147 -143 -27 -55 -27 -60
10 -78 l31 -16 61 58 c34 32 76 69 93 81 l32 22 23 -24 c35 -34 68 -48 95 -42
27 7 30 25 10 64 -7 15 -16 39 -20 55 -6 24 -2 30 29 48 20 12 42 33 50 48 14
28 79 70 91 59 3 -4 1 -21 -5 -39 -6 -18 -11 -44 -11 -59 0 -14 -6 -46 -14
-71 -7 -24 -20 -69 -29 -99 -49 -168 -37 -151 -142 -209 -51 -28 -95 -55 -97
-59 -5 -12 -99 -69 -150 -92 -26 -11 -50 -25 -53 -30 -3 -6 -16 -10 -27 -10
-11 0 -36 -10 -55 -21 l-35 -22 -24 29 c-13 16 -23 32 -24 37 0 4 -5 7 -11 7
-7 0 -17 7 -24 16 -12 17 -25 19 -112 22 l-42 2 27 48 c14 26 47 71 74 100 26
30 48 57 48 62 0 5 13 23 29 41 17 18 49 68 73 111 39 71 78 133 141 225 69
102 97 162 97 213 0 29 -27 60 -51 60 -18 0 -69 -51 -69 -68 0 -18 -50 -123
-80 -167 -15 -22 -52 -85 -84 -140 -68 -120 -120 -192 -241 -341 -27 -34 -66
-81 -85 -105 -19 -24 -56 -77 -82 -117 -26 -41 -60 -88 -75 -106 -42 -45 -93
-122 -93 -139 0 -17 17 -32 46 -41 24 -7 61 24 124 103 128 162 143 174 226
179 52 4 65 1 82 -16 41 -41 48 -112 27 -267 -10 -77 -60 -309 -81 -375 -18
-56 -18 -60 5 -89 15 -20 21 -22 39 -12 27 14 50 57 61 114 5 23 20 85 34 137
14 52 28 113 31 135 3 22 11 76 16 120 15 112 19 126 33 123 14 -3 113 35 172
67 101 54 157 89 162 101 3 8 14 14 25 14 19 0 19 -7 1 -57 -9 -23 27 -14 57
15 17 15 42 51 57 81 34 67 108 123 305 233 16 9 37 24 46 33 10 9 35 27 57
40 22 13 68 40 102 60 76 45 90 60 73 80 -22 26 -80 17 -167 -25 -45 -22 -85
-45 -89 -51 -3 -6 -27 -21 -53 -33 -25 -12 -66 -34 -89 -50 -24 -15 -46 -25
-49 -22 -3 3 6 35 19 73 14 37 33 102 43 143 9 41 23 82 29 90 18 23 48 166
42 197 -4 16 -7 55 -7 88 -1 59 -19 105 -40 105 -6 0 -26 -15 -45 -34z"/>
<path d="M1356 825 c-9 -9 -37 -23 -63 -32 -59 -20 -84 -40 -81 -67 4 -34 -92
-306 -137 -388 -8 -14 -15 -32 -15 -39 0 -7 -22 -58 -49 -113 -46 -95 -81
-174 -81 -182 0 -2 18 -4 39 -4 32 0 43 5 53 24 7 13 29 48 50 78 48 70 170
342 222 493 23 66 54 136 69 156 27 36 35 73 18 84 -5 3 -16 -2 -25 -10z"/>
<path d="M1539 461 c-23 -19 -23 -21 -9 -47 9 -16 41 -41 80 -61 52 -26 77
-33 125 -33 33 0 76 -4 94 -10 38 -11 61 0 61 29 0 32 -26 54 -76 63 -27 5
-62 12 -79 15 -16 3 -50 19 -76 34 -54 34 -88 36 -120 10z"/>
</g>
</svg>
