<?xml version="1.0" standalone="no"?>
<!DOCTYPE svg PUBLIC "-//W3C//DTD SVG 20010904//EN"
 "http://www.w3.org/TR/2001/REC-SVG-20010904/DTD/svg10.dtd">
<svg version="1.0" xmlns="http://www.w3.org/2000/svg"
 width="208.000000pt" height="201.000000pt" viewBox="0 0 208.000000 201.000000"
 preserveAspectRatio="xMidYMid meet">
<metadata>
Created by potrace 1.16, written by Peter Selinger 2001-2019
</metadata>
<g transform="translate(0.000000,201.000000) scale(0.100000,-0.100000)"
fill="#000000" stroke="none">
<path d="M1780 1969 c-7 -27 -8 -68 -3 -117 13 -123 9 -730 -5 -897 -16 -181
-59 -490 -71 -513 -5 -10 -17 -57 -27 -107 -10 -49 -21 -93 -24 -98 -8 -9 -76
14 -146 48 -118 59 -394 98 -394 56 0 -4 19 -13 43 -20 23 -7 51 -19 63 -26
11 -7 72 -30 135 -49 63 -20 132 -48 154 -61 22 -14 56 -32 75 -41 19 -9 50
-27 68 -41 18 -13 44 -25 59 -26 24 -2 28 3 36 38 4 22 10 58 13 80 2 23 11
74 19 115 86 422 116 723 116 1178 0 166 -3 331 -7 367 -4 38 -3 70 3 77 6 7
13 28 16 46 l7 32 -60 0 -59 0 -11 -41z"/>
<path d="M935 1911 c-14 -22 -25 -43 -25 -46 0 -4 -13 -25 -29 -48 -15 -23
-32 -53 -36 -65 -4 -13 -27 -61 -51 -105 -24 -45 -76 -145 -115 -222 -39 -77
-77 -147 -85 -156 -8 -8 -14 -22 -14 -30 0 -9 -18 -40 -41 -70 -22 -30 -61
-89 -86 -132 -26 -43 -50 -80 -55 -83 -4 -3 -8 -14 -8 -25 0 -11 -7 -22 -15
-25 -8 -4 -15 -16 -15 -29 0 -12 -7 -29 -17 -36 -9 -8 -24 -27 -35 -44 -12
-21 -18 -25 -18 -12 0 72 -97 -75 -115 -176 -7 -36 -6 -38 29 -52 35 -15 39
-14 62 4 28 22 61 62 84 101 31 55 83 130 90 130 3 0 7 -66 8 -147 4 -258 13
-448 22 -457 13 -13 37 0 57 31 16 24 19 63 25 378 7 383 12 440 38 470 21 23
53 77 73 121 8 17 25 48 39 70 13 21 30 55 38 74 7 19 19 42 26 50 7 8 20 35
30 59 27 67 66 122 82 116 8 -3 12 0 9 7 -2 7 8 27 24 43 16 17 56 87 90 155
52 107 60 128 52 155 -8 26 -13 30 -50 33 -39 3 -44 1 -68 -37z"/>
<path d="M1377 1797 c-134 -125 -141 -132 -168 -162 -23 -27 -167 -125 -182
-125 -4 0 -7 13 -7 28 0 16 -6 37 -14 47 -13 18 -15 18 -60 1 l-46 -18 0 -146
c0 -149 -13 -257 -49 -407 -11 -44 -27 -111 -36 -148 -12 -48 -14 -72 -7 -79
19 -19 39 -1 68 59 34 72 43 55 15 -29 -11 -35 -25 -83 -31 -108 -14 -54 -26
-70 -52 -70 -26 0 -78 -40 -78 -61 0 -13 8 -17 33 -15 28 1 32 -2 29 -23 -3
-28 -76 -153 -129 -221 -19 -25 -48 -50 -63 -55 -41 -15 -43 -20 -16 -35 15
-7 36 -10 52 -6 35 9 154 132 210 219 l44 68 38 -19 c86 -46 146 -64 204 -63
67 1 101 15 96 39 -2 12 -17 18 -55 22 -28 3 -60 12 -70 21 -10 8 -35 24 -56
34 -53 27 -107 73 -107 91 0 8 16 65 36 127 19 62 40 130 46 152 6 22 28 92
48 155 21 63 41 130 45 147 4 21 21 44 46 64 29 23 39 38 39 59 0 34 -25 43
-90 30 -61 -12 -60 -12 -52 9 8 22 55 62 97 84 17 8 66 49 110 91 44 41 84 76
88 76 14 0 -10 -197 -39 -320 -8 -36 -17 -85 -21 -110 -3 -25 -9 -50 -14 -55
-14 -18 -129 -426 -129 -458 0 -37 35 -12 62 43 14 30 30 60 35 65 50 59 177
495 208 720 8 61 20 128 26 150 13 48 21 162 13 187 -10 32 -37 19 -117 -55z
m-366 -548 c-10 -23 -10 -23 -10 7 -1 17 2 34 7 38 11 12 14 -18 3 -45z m-14
-51 c-3 -8 -6 -5 -6 6 -1 11 2 17 5 13 3 -3 4 -12 1 -19z"/>
<path d="M1431 1176 c-20 -21 -22 -31 -17 -78 15 -142 17 -232 7 -311 -12 -89
-5 -127 22 -127 15 0 45 34 56 63 32 85 40 403 12 456 -16 28 -52 27 -80 -3z"/>
</g>
</svg>
