<?xml version="1.0" standalone="no"?>
<!DOCTYPE svg PUBLIC "-//W3C//DTD SVG 20010904//EN"
 "http://www.w3.org/TR/2001/REC-SVG-20010904/DTD/svg10.dtd">
<svg version="1.0" xmlns="http://www.w3.org/2000/svg"
 width="206.000000pt" height="204.000000pt" viewBox="0 0 206.000000 204.000000"
 preserveAspectRatio="xMidYMid meet">
<metadata>
Created by potrace 1.16, written by Peter Selinger 2001-2019
</metadata>
<g transform="translate(0.000000,204.000000) scale(0.100000,-0.100000)"
fill="#000000" stroke="none">
<path d="M1288 1914 c-27 -15 -48 -30 -48 -36 0 -5 -20 -18 -45 -29 -24 -11
-47 -24 -50 -29 -4 -6 -21 -16 -39 -24 -50 -21 -94 -69 -102 -112 -9 -48 4
-68 48 -72 32 -3 38 0 54 34 20 38 104 96 104 71 0 -6 -14 -59 -31 -117 -22
-76 -31 -128 -32 -190 l-2 -85 -40 -22 c-22 -12 -47 -22 -55 -22 -8 -1 -28 -8
-44 -16 -36 -19 -56 -6 -56 37 0 48 -31 171 -51 205 -26 42 -37 44 -81 20 -48
-26 -49 -51 -3 -104 19 -23 35 -51 35 -63 0 -11 6 -33 14 -48 7 -15 17 -47 21
-72 10 -59 20 -77 55 -95 27 -14 33 -14 60 0 44 23 50 19 50 -32 0 -27 5 -83
12 -127 12 -78 12 -79 -13 -97 -13 -11 -29 -23 -35 -28 -6 -5 -26 -17 -45 -26
-19 -10 -36 -21 -39 -24 -3 -3 -21 -18 -40 -32 -87 -64 -141 -97 -225 -138
-49 -24 -104 -50 -122 -59 -18 -9 -35 -13 -38 -10 -4 3 -9 32 -12 64 -14 158
-55 286 -120 372 -38 49 -40 59 -13 87 10 11 30 39 42 61 13 23 43 73 67 113
24 39 56 113 72 164 16 50 40 115 53 143 34 72 49 131 38 151 -5 9 -7 24 -5
34 7 24 -14 49 -39 49 -24 0 -68 -28 -68 -44 0 -39 -116 -343 -163 -426 -82
-147 -165 -300 -180 -333 -10 -20 -29 -48 -42 -62 -14 -13 -25 -35 -25 -48 0
-13 -16 -45 -36 -71 -27 -36 -40 -45 -55 -41 -17 6 -19 1 -19 -59 0 -40 4 -66
11 -66 20 0 165 146 207 210 24 36 46 67 48 69 9 9 46 -35 65 -78 40 -89 58
-167 66 -284 5 -65 6 -120 2 -123 -11 -6 -20 -70 -13 -88 4 -9 19 -23 33 -31
25 -12 32 -11 91 19 53 27 66 39 71 63 3 16 9 35 13 41 8 13 86 67 141 97 82
44 115 65 162 99 55 41 144 96 156 96 10 0 9 -18 -4 -62 -5 -21 -16 -38 -23
-38 -25 0 -76 -69 -76 -102 0 -35 -45 -172 -66 -203 -8 -11 -14 -26 -14 -33 0
-8 -8 -26 -19 -40 -10 -15 -24 -45 -31 -67 -6 -22 -28 -64 -47 -93 -31 -46
-34 -56 -25 -77 14 -31 45 -32 71 -4 57 62 69 78 85 119 10 25 27 61 37 80 11
19 31 61 45 92 15 32 31 58 35 58 14 0 10 -103 -6 -156 -19 -63 -19 -99 1
-118 19 -19 68 -21 82 -3 21 27 37 172 47 444 3 72 9 143 15 158 5 14 10 42
10 61 0 19 4 34 9 34 5 0 14 12 20 28 19 51 41 68 161 122 25 11 68 34 95 51
28 18 65 37 84 44 60 21 65 95 6 95 -30 0 -153 -45 -174 -64 -9 -8 -34 -23
-56 -32 -22 -9 -59 -30 -83 -46 -54 -37 -66 -27 -58 47 4 36 13 56 31 73 47
43 31 57 -60 56 l-80 -2 35 30 c19 16 58 42 86 59 29 16 55 36 58 45 7 18 -10
54 -25 54 -23 0 11 133 61 245 5 11 16 45 25 75 8 30 27 72 41 93 21 32 24 47
22 100 -4 73 -12 78 -80 41z"/>
<path d="M1242 527 c-12 -13 -22 -28 -22 -34 0 -10 104 -53 128 -53 6 0 32 -7
58 -16 53 -18 144 -28 144 -15 0 4 11 7 25 6 13 -2 29 3 36 11 17 20 -3 40
-49 49 -20 4 -83 22 -138 41 -121 40 -153 42 -182 11z"/>
</g>
</svg>
