<?xml version="1.0" standalone="no"?>
<!DOCTYPE svg PUBLIC "-//W3C//DTD SVG 20010904//EN"
 "http://www.w3.org/TR/2001/REC-SVG-20010904/DTD/svg10.dtd">
<svg version="1.0" xmlns="http://www.w3.org/2000/svg"
 width="208.000000pt" height="205.000000pt" viewBox="0 0 208.000000 205.000000"
 preserveAspectRatio="xMidYMid meet">
<metadata>
Created by potrace 1.16, written by Peter Selinger 2001-2019
</metadata>
<g transform="translate(0.000000,205.000000) scale(0.100000,-0.100000)"
fill="#000000" stroke="none">
<path d="M1195 2020 c-3 -5 -16 -10 -27 -10 -18 0 -20 -4 -14 -37 3 -21 9
-108 13 -193 l6 -156 -29 -19 c-56 -36 -154 -138 -184 -191 -26 -46 -28 -57
-18 -79 9 -19 19 -25 45 -25 18 0 33 4 33 9 0 5 6 16 13 23 6 7 24 29 38 48
51 68 79 94 163 155 16 11 43 32 62 46 18 15 48 32 66 39 18 8 45 23 59 35 14
11 64 40 112 65 92 46 114 73 82 97 -26 18 -53 10 -211 -68 -77 -38 -142 -69
-145 -69 -2 0 -2 70 -1 155 4 163 -1 185 -39 185 -10 0 -21 -4 -24 -10z"/>
<path d="M815 1851 c-26 -16 -33 -29 -48 -97 -34 -150 -67 -260 -105 -356 -17
-40 -38 -98 -47 -128 -25 -79 -83 -180 -104 -180 -10 0 -35 -11 -55 -25 -20
-14 -40 -25 -44 -25 -4 0 -48 -42 -98 -94 -76 -78 -96 -105 -122 -169 -51
-122 -38 -175 41 -163 71 12 144 65 183 134 11 19 35 50 54 71 19 20 45 58 58
84 22 45 39 64 48 55 6 -6 8 -59 7 -188 -2 -156 10 -361 23 -427 5 -25 62 -49
78 -33 7 7 11 60 11 133 l0 121 50 27 c53 28 120 83 230 186 36 35 72 63 79
63 8 0 28 14 46 30 18 17 34 30 36 30 9 0 69 45 116 86 25 22 74 60 108 85 34
24 97 72 139 107 42 35 97 72 123 83 25 11 56 31 68 44 15 16 39 27 69 31 99
14 128 56 60 85 -24 9 -39 9 -72 0 -64 -19 -164 -70 -249 -128 -43 -29 -82
-53 -87 -53 -5 0 -16 -9 -23 -19 -8 -11 -47 -42 -88 -70 -41 -27 -89 -64 -107
-80 -36 -35 -186 -139 -217 -151 -12 -4 -30 -18 -41 -30 -11 -12 -51 -44 -90
-71 -38 -27 -81 -58 -95 -68 -14 -11 -35 -22 -48 -26 l-22 -6 1 123 c2 88 -3
143 -16 194 l-17 71 30 69 c16 38 35 85 42 104 7 19 24 59 37 88 12 29 37 94
53 145 46 139 81 219 111 252 30 34 42 65 31 81 -4 6 -29 14 -57 17 -39 6 -57
3 -80 -12z m-386 -929 c-66 -108 -174 -232 -204 -232 -19 0 10 71 60 146 86
127 216 205 144 86z"/>
<path d="M1535 1623 c-35 -7 -75 -25 -75 -33 0 -4 -12 -11 -26 -14 -14 -4 -59
-35 -99 -69 -40 -34 -125 -98 -188 -142 -160 -110 -203 -143 -267 -202 -50
-48 -53 -53 -42 -77 25 -55 87 -43 171 33 22 20 55 49 73 66 18 16 61 51 95
77 35 26 116 90 182 143 89 71 126 95 148 95 56 0 106 83 71 118 -7 7 -14 11
-17 11 -4 -1 -15 -3 -26 -6z"/>
<path d="M1625 987 c-11 -12 -38 -34 -60 -48 -64 -42 -145 -89 -151 -89 -4 0
-38 -16 -75 -35 -38 -19 -76 -35 -84 -35 -9 0 -18 -8 -22 -17 -11 -31 -56 -62
-81 -56 -13 3 -30 -1 -40 -10 -9 -8 -34 -17 -54 -21 -50 -9 -71 -31 -63 -65 4
-14 13 -33 21 -42 21 -24 24 -99 9 -217 -21 -151 -20 -183 5 -189 11 -3 20 -9
20 -15 0 -5 21 -18 48 -28 26 -11 59 -27 74 -35 14 -8 38 -15 52 -15 38 0 120
49 146 87 29 42 67 83 77 83 4 0 30 19 57 42 l49 42 -22 17 c-22 18 -22 19 -6
81 9 35 20 68 24 73 12 16 61 142 91 236 15 47 35 100 44 118 22 42 35 112 25
139 -11 29 -57 28 -84 -1z m-76 -223 c-5 -21 -14 -48 -19 -59 -25 -58 -100
-255 -109 -290 -6 -22 -26 -63 -45 -91 -34 -50 -37 -52 -108 -67 -107 -23
-174 -26 -169 -7 22 90 39 212 39 273 -1 55 4 82 18 105 16 27 20 30 34 18 32
-28 57 -28 89 1 16 15 52 39 78 52 26 14 62 34 78 46 17 12 41 26 55 30 14 4
34 14 44 21 26 18 27 15 15 -32z"/>
</g>
</svg>
