<?xml version="1.0" standalone="no"?>
<!DOCTYPE svg PUBLIC "-//W3C//DTD SVG 20010904//EN"
 "http://www.w3.org/TR/2001/REC-SVG-20010904/DTD/svg10.dtd">
<svg version="1.0" xmlns="http://www.w3.org/2000/svg"
 width="208.000000pt" height="204.000000pt" viewBox="0 0 208.000000 204.000000"
 preserveAspectRatio="xMidYMid meet">
<metadata>
Created by potrace 1.16, written by Peter Selinger 2001-2019
</metadata>
<g transform="translate(0.000000,204.000000) scale(0.100000,-0.100000)"
fill="#000000" stroke="none">
<path d="M1183 2003 c-39 -8 -48 -29 -34 -81 15 -53 27 -248 17 -285 -4 -16
-25 -37 -55 -55 -59 -37 -180 -149 -191 -177 -14 -37 6 -55 60 -55 47 0 80 17
80 41 0 12 63 78 89 93 16 10 71 48 246 171 28 19 54 35 59 35 6 0 22 12 37
26 30 29 29 64 -3 64 -24 0 -167 -56 -188 -74 -36 -31 -37 -29 -33 130 l3 154
-26 10 c-14 6 -28 9 -32 9 -4 -1 -17 -4 -29 -6z"/>
<path d="M737 1852 c-9 -10 -31 -63 -48 -118 -17 -54 -33 -106 -37 -114 -3 -8
-13 -42 -22 -75 -10 -33 -30 -91 -45 -130 -14 -38 -41 -115 -60 -170 -88 -263
-215 -562 -234 -550 -5 2 -5 24 0 47 11 58 11 70 -2 66 -5 -2 -22 -37 -36 -78
-20 -59 -24 -81 -17 -109 9 -35 11 -36 54 -36 43 0 46 2 92 64 27 35 48 71 48
79 0 8 9 31 19 51 32 60 66 143 81 194 7 26 18 46 24 44 18 -6 44 -88 55 -173
6 -44 9 -164 7 -270 -3 -174 2 -265 17 -280 12 -12 45 8 55 34 15 39 36 429
28 509 -15 143 -54 229 -109 240 -33 7 -33 2 8 128 48 145 85 237 105 262 11
14 22 41 26 62 4 20 12 43 19 51 18 20 43 119 51 201 6 61 5 68 -14 78 -29 16
-46 14 -65 -7z"/>
<path d="M1380 1466 c-20 -6 -62 -32 -95 -57 -33 -24 -91 -64 -130 -89 -126
-79 -140 -89 -154 -101 -7 -6 -28 -19 -46 -28 -50 -24 -107 -80 -101 -98 3 -8
6 -18 6 -23 0 -13 65 -31 86 -24 26 9 141 95 188 139 21 20 53 42 70 49 18 8
46 26 62 40 48 44 106 86 119 86 7 0 18 6 24 14 6 7 25 16 41 19 62 13 60 87
-3 87 -18 -1 -48 -7 -67 -14z"/>
<path d="M1567 1261 c-21 -11 -61 -28 -89 -38 -27 -10 -62 -32 -77 -49 -15
-17 -70 -52 -122 -78 -52 -26 -139 -72 -194 -101 -55 -29 -125 -65 -155 -80
-53 -27 -100 -66 -100 -85 0 -22 15 -42 41 -56 26 -13 32 -12 66 6 21 11 42
20 46 20 9 0 95 54 208 131 31 20 73 44 93 53 41 17 228 136 261 166 11 10 44
30 73 45 52 26 65 48 40 73 -17 17 -48 15 -91 -7z"/>
<path d="M1315 740 c-33 -14 -76 -34 -95 -46 -19 -11 -43 -23 -53 -27 -41 -16
-33 -78 13 -97 27 -11 34 -10 68 12 20 13 55 32 77 42 22 10 53 24 69 31 85
39 74 -32 -33 -224 -60 -106 -66 -113 -117 -137 -30 -14 -54 -29 -54 -33 0 -4
-17 -17 -37 -28 -44 -25 -85 -67 -100 -104 -9 -21 -8 -31 2 -47 35 -49 128
-24 189 51 19 23 55 57 80 76 25 19 46 40 46 47 0 7 28 32 63 56 69 49 89 88
43 88 -30 0 -32 8 -11 36 8 10 15 28 15 38 0 11 7 27 16 37 42 46 58 174 28
230 -15 30 -17 30 -82 28 -44 -2 -88 -12 -127 -29z"/>
<path d="M1016 471 c-4 -5 -19 -12 -35 -16 -16 -3 -37 -15 -47 -26 -14 -16
-15 -24 -6 -44 6 -14 18 -25 27 -25 8 0 15 -6 15 -12 0 -18 79 -98 96 -98 29
0 38 44 19 100 -9 28 -18 68 -19 88 -1 30 -5 38 -23 40 -11 2 -24 -1 -27 -7z"/>
</g>
</svg>
