<?xml version="1.0" standalone="no"?>
<!DOCTYPE svg PUBLIC "-//W3C//DTD SVG 20010904//EN"
 "http://www.w3.org/TR/2001/REC-SVG-20010904/DTD/svg10.dtd">
<svg version="1.0" xmlns="http://www.w3.org/2000/svg"
 width="205.000000pt" height="205.000000pt" viewBox="0 0 205.000000 205.000000"
 preserveAspectRatio="xMidYMid meet">
<metadata>
Created by potrace 1.16, written by Peter Selinger 2001-2019
</metadata>
<g transform="translate(0.000000,205.000000) scale(0.100000,-0.100000)"
fill="#000000" stroke="none">
<path d="M1166 1989 c-26 -85 -79 -189 -110 -218 -38 -36 -36 -85 4 -106 40
-21 59 -14 89 32 33 51 82 103 97 103 6 0 18 10 27 23 8 13 43 38 78 57 35 18
76 42 90 52 20 15 39 18 85 16 56 -3 59 -5 62 -30 4 -30 -80 -205 -134 -281
-19 -26 -34 -50 -34 -53 0 -3 -18 -28 -40 -54 -22 -26 -40 -52 -40 -57 0 -6
-37 -53 -82 -106 -119 -138 -205 -239 -225 -265 -54 -70 -204 -205 -240 -216
-20 -6 -21 -4 -17 31 3 21 8 153 13 293 9 268 9 270 -35 270 -53 0 -62 -40
-69 -300 -3 -102 -10 -244 -15 -316 -14 -176 -2 -225 50 -209 28 9 40 44 40
115 0 82 4 89 49 83 24 -3 61 3 108 19 60 21 79 34 130 89 96 103 149 163 159
180 5 9 37 47 72 83 l62 67 38 -11 c21 -5 63 -11 93 -12 30 -1 60 -6 67 -11
30 -23 210 22 247 63 14 16 15 22 5 34 -13 16 -46 16 -138 -3 -38 -8 -59 -7
-80 1 -15 6 -49 16 -77 22 -31 7 -51 17 -53 27 -3 14 49 109 79 145 20 24 34
50 92 170 59 120 72 156 81 221 5 37 2 47 -22 74 -28 32 -30 32 -116 31 -82
-1 -92 -4 -182 -48 -52 -26 -97 -44 -101 -40 -4 3 -1 21 5 39 19 53 17 57 -40
57 l-53 0 -19 -61z"/>
<path d="M553 1992 c-14 -11 -32 -52 -52 -122 -18 -58 -38 -125 -46 -150 -8
-25 -24 -80 -34 -122 -22 -86 -81 -228 -111 -266 -11 -14 -20 -37 -20 -53 0
-33 -120 -273 -173 -344 -79 -108 -110 -168 -111 -215 -1 -34 3 -45 16 -48 31
-6 83 27 103 66 10 20 29 51 42 69 13 17 23 37 23 43 0 6 12 23 26 37 32 32
64 83 64 102 0 8 13 41 29 75 15 34 34 79 42 101 7 22 20 48 29 58 15 16 16
-1 14 -207 -1 -124 -5 -238 -8 -253 -3 -15 -8 -75 -11 -133 -6 -98 -5 -107 14
-124 26 -24 69 -15 75 17 13 69 30 280 33 397 4 195 6 241 15 246 4 3 8 30 8
59 0 48 -3 57 -26 72 -25 16 -28 16 -56 0 -29 -17 -29 -16 -22 5 15 47 35 88
43 88 5 0 11 12 14 28 8 44 34 106 46 110 13 4 43 70 86 192 61 170 59 290 -4
290 -14 0 -36 -8 -48 -18z"/>
<path d="M1291 1169 c-10 -17 -22 -59 -26 -94 -10 -94 -70 -194 -177 -293 -45
-41 -46 -54 -13 -94 14 -16 25 -36 25 -44 0 -10 11 -5 33 14 133 119 168 147
211 169 56 29 158 64 165 57 25 -25 -225 -303 -307 -342 -33 -15 -37 -21 -37
-56 0 -34 4 -41 28 -49 39 -13 63 -4 131 46 36 28 81 51 120 61 33 10 75 24
91 31 54 25 175 39 175 21 0 -1 -34 -36 -75 -78 -76 -78 -211 -192 -250 -212
-12 -6 -44 -30 -71 -53 -49 -40 -83 -63 -159 -104 -22 -12 -53 -32 -70 -44
-16 -13 -51 -32 -77 -43 -46 -20 -64 -42 -34 -42 26 0 141 32 161 44 11 7 32
16 47 19 14 4 60 29 101 57 41 27 80 50 87 50 11 0 67 35 80 50 5 5 44 36 159
122 24 18 62 51 85 74 22 22 60 55 83 72 45 35 60 67 59 126 -1 37 -4 40 -36
49 -36 9 -147 4 -237 -11 -34 -5 -53 -5 -53 1 0 6 20 42 45 82 56 90 74 154
55 190 -12 23 -19 25 -82 25 -39 0 -68 -4 -68 -10 0 -5 -8 -10 -17 -10 -10 0
-37 -9 -60 -20 -24 -10 -43 -17 -43 -14 0 3 12 51 26 107 14 56 28 111 31 123
6 28 -21 54 -58 54 -22 0 -34 -8 -48 -31z"/>
</g>
</svg>
