<?xml version="1.0" standalone="no"?>
<!DOCTYPE svg PUBLIC "-//W3C//DTD SVG 20010904//EN"
 "http://www.w3.org/TR/2001/REC-SVG-20010904/DTD/svg10.dtd">
<svg version="1.0" xmlns="http://www.w3.org/2000/svg"
 width="206.000000pt" height="205.000000pt" viewBox="0 0 206.000000 205.000000"
 preserveAspectRatio="xMidYMid meet">
<metadata>
Created by potrace 1.16, written by Peter Selinger 2001-2019
</metadata>
<g transform="translate(0.000000,205.000000) scale(0.100000,-0.100000)"
fill="#000000" stroke="none">
<path d="M1237 1993 c-8 -10 -27 -52 -41 -93 -35 -106 -106 -276 -139 -334
-15 -27 -27 -52 -27 -56 0 -4 -9 -15 -20 -25 -29 -26 -27 -78 5 -99 35 -23 50
-20 74 17 33 52 88 129 126 177 19 25 35 50 35 57 0 7 21 26 47 44 25 18 54
40 64 50 69 69 227 112 269 74 11 -10 20 -31 20 -47 0 -35 -99 -228 -142 -278
-18 -20 -38 -45 -44 -56 -10 -16 -14 -17 -38 -6 -38 17 -111 15 -130 -3 -22
-23 -6 -57 37 -78 54 -27 54 -30 -54 -160 -14 -18 -42 -59 -61 -92 -19 -33
-63 -88 -96 -122 -34 -35 -74 -82 -89 -104 -61 -92 -178 -189 -227 -189 -25 0
-30 -21 -10 -40 18 -18 21 -18 69 -1 95 35 106 41 136 73 l30 33 30 -17 c17
-10 41 -18 53 -18 30 0 99 72 133 140 22 43 38 60 71 77 24 12 53 28 65 36 27
17 149 40 171 31 25 -10 18 -54 -17 -111 -56 -87 -90 -124 -293 -320 -35 -34
-54 -60 -54 -75 0 -26 31 -58 56 -58 9 0 48 30 88 68 75 71 128 112 146 112 6
0 27 11 48 24 21 13 73 38 115 56 42 17 79 36 83 41 7 12 44 12 44 0 0 -15
-186 -217 -228 -248 -20 -16 -55 -46 -77 -68 -22 -22 -72 -60 -110 -85 -39
-24 -88 -59 -110 -76 -22 -18 -78 -52 -124 -76 -93 -49 -116 -74 -60 -65 63
10 144 37 171 57 33 24 153 80 173 80 7 0 22 11 32 24 11 13 38 32 61 43 69
32 169 121 275 248 56 66 111 135 124 154 31 46 30 84 -3 106 -25 16 -30 16
-83 0 -31 -9 -73 -21 -95 -26 -21 -5 -63 -21 -93 -35 -30 -15 -57 -24 -60 -20
-3 3 4 20 16 38 19 29 28 48 61 123 5 11 11 39 13 61 4 38 2 44 -26 65 -27 19
-44 23 -112 23 -44 1 -96 -2 -116 -7 -29 -6 -38 -4 -43 8 -10 26 11 61 49 84
31 18 36 26 31 45 -5 20 3 33 39 69 27 28 58 48 77 52 83 16 135 28 156 36 13
5 34 9 47 9 14 0 25 5 25 11 0 6 7 9 15 6 8 -4 17 -2 20 3 4 6 13 10 21 10 21
0 44 25 44 47 0 39 -17 41 -133 16 -62 -12 -120 -23 -130 -23 -17 0 -17 2 2
28 11 16 29 51 39 78 11 27 30 69 43 93 15 30 22 62 23 105 1 55 -2 65 -33
103 -40 50 -71 59 -168 50 -65 -6 -153 -42 -226 -91 -21 -15 -40 -26 -42 -26
-12 0 -4 49 9 59 8 7 17 27 21 44 3 18 13 49 22 69 22 52 11 88 -26 88 -15 0
-35 -8 -44 -17z"/>
<path d="M638 1804 c-16 -8 -30 -26 -33 -42 -26 -126 -78 -279 -125 -367 -26
-49 -59 -119 -73 -155 -38 -95 -132 -286 -172 -350 -19 -30 -35 -63 -35 -72 0
-18 36 -48 57 -48 14 0 63 50 63 64 0 5 15 32 34 60 18 28 40 67 48 86 17 40
42 65 58 55 13 -8 12 -200 -1 -310 -12 -106 -28 -415 -22 -432 3 -7 16 -13 29
-13 37 0 53 44 64 187 6 70 17 177 25 236 8 59 15 170 15 245 0 150 -10 182
-54 182 -12 0 -26 3 -29 6 -3 4 14 46 38 94 25 48 45 91 45 96 0 5 13 25 28
44 16 19 41 67 56 105 15 39 33 84 40 101 8 16 17 69 21 116 7 79 6 87 -14
107 -25 25 -27 25 -63 5z"/>
<path d="M742 1224 c-33 -14 -33 -15 -31 -82 1 -37 6 -80 11 -97 5 -16 13 -75
19 -130 12 -122 25 -174 45 -182 43 -16 58 83 47 293 -7 134 -12 164 -28 186
-23 31 -20 31 -63 12z"/>
</g>
</svg>
