<?xml version="1.0" standalone="no"?>
<!DOCTYPE svg PUBLIC "-//W3C//DTD SVG 20010904//EN"
 "http://www.w3.org/TR/2001/REC-SVG-20010904/DTD/svg10.dtd">
<svg version="1.0" xmlns="http://www.w3.org/2000/svg"
 width="206.000000pt" height="206.000000pt" viewBox="0 0 206.000000 206.000000"
 preserveAspectRatio="xMidYMid meet">
<metadata>
Created by potrace 1.16, written by Peter Selinger 2001-2019
</metadata>
<g transform="translate(0.000000,206.000000) scale(0.100000,-0.100000)"
fill="#000000" stroke="none">
<path d="M1638 1820 c-38 -11 -137 -61 -144 -71 -6 -10 -111 -79 -119 -79 -3
0 -39 -28 -81 -62 -82 -66 -114 -108 -114 -149 0 -33 18 -49 62 -55 42 -6 82
28 92 77 5 29 20 45 79 90 39 30 76 60 80 66 11 18 40 17 34 -1 -3 -8 -31 -48
-61 -89 -30 -41 -65 -93 -76 -115 -11 -22 -30 -48 -41 -58 -12 -11 -32 -39
-44 -64 -68 -132 -146 -233 -213 -276 -29 -19 -55 -34 -58 -34 -3 0 -26 -18
-51 -40 -25 -22 -50 -40 -55 -40 -5 0 -14 -4 -21 -10 -79 -65 -125 -92 -132
-80 -3 6 -4 14 -1 18 3 5 12 73 21 153 9 79 23 176 31 214 19 95 21 229 4 249
-19 24 -56 19 -78 -9 -16 -20 -21 -53 -31 -187 -12 -163 -18 -215 -46 -383 -9
-49 -22 -130 -30 -180 -7 -49 -18 -110 -24 -134 -5 -25 -7 -49 -5 -53 3 -5 1
-14 -4 -21 -16 -21 -63 -219 -69 -292 -6 -81 7 -105 56 -105 35 0 35 1 101
125 29 55 62 114 75 130 12 17 30 45 39 62 9 18 31 48 49 67 106 111 119 136
72 136 -33 0 -108 -55 -169 -125 -27 -30 -53 -55 -58 -55 -11 0 -4 63 14 137
11 45 20 51 84 57 45 3 102 30 110 51 3 8 -3 28 -13 45 l-18 32 27 21 c84 67
85 68 126 61 25 -4 42 -2 46 5 28 45 35 -94 11 -198 -20 -83 -16 -95 26 -74
59 29 92 138 103 344 4 70 30 123 57 116 17 -5 60 20 84 50 6 6 32 23 58 37
53 27 170 111 229 162 20 18 46 38 58 44 22 12 22 11 17 -27 -3 -21 -10 -78
-16 -127 -13 -107 -35 -219 -66 -341 -33 -130 -54 -232 -61 -295 l-6 -55 22
25 c11 14 28 39 37 55 9 17 24 41 34 54 11 13 19 36 19 51 0 15 3 30 7 34 16
15 47 126 78 276 30 144 36 175 41 200 17 103 31 153 57 210 32 69 48 173 29
192 -19 19 -56 -1 -127 -68 -75 -71 -158 -137 -216 -172 -19 -12 -44 -31 -55
-43 -18 -20 -94 -62 -101 -56 -1 2 6 19 16 38 58 109 84 147 116 177 19 19 35
39 35 46 0 7 13 30 30 52 16 21 30 47 30 58 0 10 13 33 29 52 19 21 32 50 36
77 12 79 1 95 -57 77z m-868 -610 c0 -5 -4 -10 -10 -10 -5 0 -10 5 -10 10 0 6
5 10 10 10 6 0 10 -4 10 -10z"/>
<path d="M599 1589 c-24 -24 -52 -87 -75 -167 -20 -70 -102 -242 -149 -312
-19 -29 -35 -58 -35 -66 0 -21 -78 -182 -113 -234 -54 -80 -63 -94 -86 -145
-13 -27 -34 -62 -47 -77 -12 -16 -26 -38 -30 -50 -3 -12 -20 -43 -35 -69 -21
-33 -29 -59 -29 -93 0 -59 17 -60 62 -4 18 23 44 55 58 70 14 15 34 44 45 65
33 66 98 177 127 216 15 21 32 55 38 75 18 59 90 203 125 252 18 25 49 77 69
117 20 40 44 77 55 82 12 7 17 18 14 29 -2 10 11 40 31 70 20 28 36 59 36 69
0 9 12 34 26 54 23 34 25 41 14 73 -11 36 -43 66 -67 66 -7 0 -22 -9 -34 -21z"/>
<path d="M1497 1030 c-20 -4 -39 -9 -42 -11 -2 -3 -9 -72 -14 -155 -10 -145
-20 -215 -40 -281 -20 -66 -136 -291 -203 -391 -37 -57 -68 -105 -68 -108 0
-3 -9 -14 -20 -26 -27 -30 -26 -58 3 -58 26 0 87 35 87 50 0 6 24 37 53 69 28
32 65 80 81 107 l30 47 25 -30 c33 -37 84 -73 105 -73 9 0 33 -11 54 -23 20
-13 43 -22 50 -19 7 2 19 -2 28 -8 23 -20 191 -18 234 3 74 36 180 114 180
134 0 19 -15 15 -128 -26 -124 -46 -172 -43 -332 21 -19 8 -57 29 -85 46 -31
21 -59 31 -72 29 -30 -6 -29 3 11 87 70 146 101 255 111 392 7 97 17 135 44
170 12 15 21 35 21 45 0 15 -7 19 -37 18 -21 -1 -55 -5 -76 -9z"/>
<path d="M452 890 c-42 -17 -91 -162 -92 -271 0 -30 -7 -103 -15 -161 -8 -59
-19 -177 -25 -264 -5 -87 -14 -162 -20 -168 -19 -19 -10 -26 31 -26 36 0 41 3
53 33 14 33 26 94 31 156 5 69 26 246 30 261 3 8 11 76 20 151 11 105 20 148
40 187 29 58 31 75 9 96 -17 18 -29 19 -62 6z"/>
</g>
</svg>
