<?xml version="1.0" standalone="no"?>
<!DOCTYPE svg PUBLIC "-//W3C//DTD SVG 20010904//EN"
 "http://www.w3.org/TR/2001/REC-SVG-20010904/DTD/svg10.dtd">
<svg version="1.0" xmlns="http://www.w3.org/2000/svg"
 width="207.000000pt" height="208.000000pt" viewBox="0 0 207.000000 208.000000"
 preserveAspectRatio="xMidYMid meet">
<metadata>
Created by potrace 1.16, written by Peter Selinger 2001-2019
</metadata>
<g transform="translate(0.000000,208.000000) scale(0.100000,-0.100000)"
fill="#000000" stroke="none">
<path d="M1118 1991 c-36 -21 -82 -51 -101 -65 -18 -14 -36 -26 -40 -26 -3 0
-44 -22 -92 -50 -48 -27 -88 -50 -90 -50 -2 0 -3 46 -2 103 l2 102 -29 3 c-44
5 -79 -17 -73 -47 6 -29 -1 -53 -14 -46 -4 3 -13 -13 -19 -35 -13 -50 9 -107
43 -112 20 -3 18 -5 -13 -24 -19 -11 -67 -33 -107 -48 -88 -33 -123 -60 -123
-91 0 -38 87 -74 105 -45 6 10 230 120 244 120 4 0 27 13 52 28 24 16 73 46
109 67 66 40 132 86 184 131 16 14 42 32 58 40 47 24 36 84 -15 84 -7 0 -42
-18 -79 -39z"/>
<path d="M697 1603 c-11 -13 -17 -36 -17 -66 0 -82 -26 -176 -95 -347 -14 -36
-29 -72 -34 -80 -24 -46 -39 -68 -63 -100 -40 -54 -41 -89 -2 -115 25 -16 28
-16 58 6 17 12 35 29 39 36 5 8 32 24 60 37 29 13 94 51 146 85 52 34 99 61
103 61 5 0 24 11 41 24 18 13 50 33 72 45 51 27 67 37 132 84 81 57 87 54 79
-45 -18 -199 -18 -218 0 -225 40 -15 88 88 104 223 14 126 21 147 53 181 42
44 32 59 -47 67 -75 7 -101 -3 -109 -44 -6 -30 -70 -74 -162 -113 -76 -32
-208 -101 -261 -136 -33 -23 -95 -51 -110 -51 -9 0 -2 28 16 65 11 22 19 47
20 56 0 9 7 34 16 54 8 21 22 72 30 113 14 75 27 98 71 135 18 15 21 22 13 38
-6 10 -21 18 -33 18 -12 0 -40 3 -62 6 -32 6 -43 3 -58 -12z m-77 -467 c0 -3
-4 -8 -10 -11 -5 -3 -10 -1 -10 4 0 6 5 11 10 11 6 0 10 -2 10 -4z"/>
<path d="M780 1019 c-49 -14 -70 -42 -70 -95 0 -176 -126 -560 -194 -590 -30
-13 -67 -92 -64 -134 2 -25 10 -38 30 -50 27 -14 29 -14 57 15 31 32 162 276
179 335 6 19 22 67 36 107 14 40 35 123 48 184 21 106 25 115 65 158 24 25 43
49 43 53 0 19 -84 29 -130 17z"/>
<path d="M1653 905 c-12 -30 -7 -210 11 -385 9 -85 16 -163 16 -172 0 -24 -52
-39 -192 -56 -96 -11 -368 -7 -413 6 -72 21 -72 21 -47 109 86 303 79 473 -19
473 -23 0 -119 -52 -119 -64 0 -2 -6 -19 -14 -38 l-15 -34 32 4 c18 2 42 8 55
15 26 12 42 -1 42 -36 0 -38 -43 -222 -76 -323 -39 -122 -41 -144 -16 -167 22
-20 95 -43 179 -57 67 -11 257 -14 338 -5 202 21 293 42 331 77 41 37 40 121
-2 433 -16 122 -31 173 -61 213 -20 26 -21 26 -30 7z"/>
</g>
</svg>
