<?xml version="1.0" standalone="no"?>
<!DOCTYPE svg PUBLIC "-//W3C//DTD SVG 20010904//EN"
 "http://www.w3.org/TR/2001/REC-SVG-20010904/DTD/svg10.dtd">
<svg version="1.0" xmlns="http://www.w3.org/2000/svg"
 width="208.000000pt" height="209.000000pt" viewBox="0 0 208.000000 209.000000"
 preserveAspectRatio="xMidYMid meet">
<metadata>
Created by potrace 1.16, written by Peter Selinger 2001-2019
</metadata>
<g transform="translate(0.000000,209.000000) scale(0.100000,-0.100000)"
fill="#000000" stroke="none">
<path d="M1261 2073 c-19 -37 -29 -184 -20 -296 5 -62 11 -137 13 -167 3 -34
0 -64 -9 -79 -9 -17 -10 -33 -3 -55 10 -34 3 -239 -12 -376 -15 -129 -20 -341
-9 -381 15 -58 29 -65 107 -50 37 7 76 16 87 21 11 5 45 16 75 24 103 28 255
171 236 221 -4 11 -12 10 -42 -5 -20 -11 -47 -28 -58 -38 -40 -35 -122 -70
-181 -77 -33 -3 -72 -9 -87 -11 l-28 -6 0 123 c0 68 5 173 10 233 6 61 14 156
18 210 7 97 8 100 37 117 17 10 36 18 43 18 15 1 99 58 133 90 13 13 38 29 54
37 43 20 65 39 65 58 0 32 -72 19 -177 -30 -54 -25 -109 -47 -123 -47 -23 -2
-24 1 -36 103 -17 142 -17 213 1 289 9 36 13 71 11 78 -8 21 -93 17 -105 -4z"/>
<path d="M884 2005 c-31 -14 -49 -39 -39 -55 7 -12 12 -68 20 -212 5 -92 2
-150 -15 -265 -33 -233 -31 -226 -65 -243 -53 -27 -119 -72 -157 -106 -21 -19
-53 -40 -72 -48 -19 -8 -39 -23 -45 -34 -6 -12 -25 -30 -41 -42 -36 -26 -52
-17 -75 37 -8 18 -19 33 -24 33 -6 0 -11 7 -11 15 0 8 -9 15 -20 15 -23 0 -22
-11 6 -102 8 -27 17 -69 21 -95 5 -41 23 -81 72 -163 5 -8 28 -51 51 -95 47
-89 74 -125 182 -237 88 -91 113 -99 123 -38 4 22 12 43 19 47 13 8 50 153 60
233 3 25 8 99 11 165 4 66 11 158 16 205 5 47 16 157 24 245 8 88 20 185 25
215 16 88 33 270 31 331 -1 43 3 62 19 82 13 16 19 34 16 45 -5 16 -87 84 -98
81 -1 0 -17 -7 -34 -14z m-78 -907 c-4 -35 -11 -124 -16 -198 -13 -181 -29
-320 -41 -348 -9 -23 -9 -23 -40 -5 -32 18 -99 105 -138 178 -12 22 -33 59
-47 83 l-25 43 25 30 c15 17 26 34 26 39 0 10 106 116 169 170 23 19 49 43 58
53 30 30 36 20 29 -45z"/>
<path d="M512 1540 c-23 -10 -59 -22 -79 -26 -42 -8 -103 -67 -103 -100 0 -27
30 -54 61 -54 13 0 51 18 84 40 75 50 120 66 140 50 8 -7 13 -16 10 -20 -2 -4
2 -16 10 -26 35 -48 84 61 50 112 -31 47 -101 57 -173 24z"/>
<path d="M1758 1255 l-36 -36 -111 -4 c-120 -5 -164 -19 -182 -59 -14 -30 3
-64 36 -72 14 -3 57 1 96 10 97 22 121 20 154 -9 23 -22 35 -26 78 -23 l52 3
8 54 c7 51 -6 111 -25 111 -3 0 -4 9 -1 21 5 18 -9 38 -27 39 -3 0 -22 -16
-42 -35z"/>
</g>
</svg>
