<?xml version="1.0" standalone="no"?>
<!DOCTYPE svg PUBLIC "-//W3C//DTD SVG 20010904//EN"
 "http://www.w3.org/TR/2001/REC-SVG-20010904/DTD/svg10.dtd">
<svg version="1.0" xmlns="http://www.w3.org/2000/svg"
 width="205.000000pt" height="207.000000pt" viewBox="0 0 205.000000 207.000000"
 preserveAspectRatio="xMidYMid meet">
<metadata>
Created by potrace 1.16, written by Peter Selinger 2001-2019
</metadata>
<g transform="translate(0.000000,207.000000) scale(0.100000,-0.100000)"
fill="#000000" stroke="none">
<path d="M1135 1831 c-87 -46 -138 -86 -265 -210 -69 -66 -131 -121 -137 -121
-18 0 -16 25 3 66 20 42 15 135 -10 185 -9 18 -16 38 -16 45 0 7 -12 22 -27
34 -31 24 -66 20 -97 -10 -25 -24 -16 -57 28 -102 39 -40 52 -97 43 -178 -3
-28 -1 -52 5 -58 8 -8 -9 -20 -57 -41 -96 -44 -143 -55 -162 -40 -10 9 -17 9
-21 2 -4 -5 -20 -13 -35 -17 -16 -4 -33 -17 -39 -32 -10 -22 -8 -28 14 -50 24
-25 27 -25 83 -15 32 6 74 20 93 31 76 46 50 13 -163 -204 -44 -45 -100 -103
-125 -130 -25 -27 -61 -60 -80 -75 -19 -14 -41 -34 -48 -43 -7 -9 -35 -31 -62
-49 -39 -26 -50 -38 -50 -59 0 -15 8 -34 18 -43 20 -18 57 -23 66 -8 3 5 18
12 33 15 14 4 38 16 52 27 26 20 127 90 246 168 33 22 69 48 80 58 11 10 39
30 62 45 48 31 53 24 29 -39 -8 -21 -27 -78 -42 -128 -15 -49 -38 -115 -51
-145 -14 -30 -31 -74 -39 -98 -8 -24 -28 -64 -43 -90 -31 -54 -68 -146 -83
-210 -12 -52 8 -92 46 -92 30 0 42 15 51 65 11 55 36 117 110 270 39 80 90
211 131 336 37 112 72 211 79 219 7 8 15 24 19 35 8 28 51 71 132 133 109 83
144 103 224 132 86 30 99 50 49 76 -27 14 -41 15 -79 6 -45 -10 -175 -78 -257
-134 -23 -15 -47 -28 -53 -28 -6 0 -25 -7 -42 -16 -20 -10 -34 -12 -40 -6 -7
7 6 19 36 37 26 15 53 39 60 54 26 49 252 263 333 314 43 27 88 58 101 70 24
22 29 55 10 61 -46 14 -67 12 -113 -13z m-495 -615 c0 -8 -16 -24 -35 -36 -19
-12 -35 -25 -35 -30 0 -9 -31 -23 -37 -17 -5 5 90 97 100 97 4 0 7 -6 7 -14z"/>
<path d="M890 810 c-30 -38 -31 -42 -15 -54 16 -11 16 -16 2 -67 -39 -132 -55
-233 -47 -284 13 -78 20 -93 75 -148 85 -85 241 -96 381 -27 69 33 139 106
161 166 37 99 38 107 13 201 -12 48 -25 102 -28 118 -2 17 -9 36 -15 44 -6 7
-12 20 -13 28 -3 20 -34 53 -50 53 -33 0 -35 -149 -3 -243 32 -94 30 -102 -25
-192 -45 -72 -163 -122 -245 -104 -70 16 -101 37 -122 82 -24 55 -24 77 7 222
15 74 24 145 22 181 -3 58 -4 59 -34 62 -27 3 -37 -3 -64 -38z"/>
</g>
</svg>
