<?xml version="1.0" standalone="no"?>
<!DOCTYPE svg PUBLIC "-//W3C//DTD SVG 20010904//EN"
 "http://www.w3.org/TR/2001/REC-SVG-20010904/DTD/svg10.dtd">
<svg version="1.0" xmlns="http://www.w3.org/2000/svg"
 width="206.000000pt" height="208.000000pt" viewBox="0 0 206.000000 208.000000"
 preserveAspectRatio="xMidYMid meet">
<metadata>
Created by potrace 1.16, written by Peter Selinger 2001-2019
</metadata>
<g transform="translate(0.000000,208.000000) scale(0.100000,-0.100000)"
fill="#000000" stroke="none">
<path d="M1548 1823 c-9 -2 -23 -15 -32 -27 -8 -13 -27 -27 -43 -31 -31 -7
-88 -41 -166 -97 -59 -44 -99 -52 -53 -12 41 36 21 53 -30 25 -55 -30 -131
-61 -146 -61 -16 0 -88 71 -88 87 0 20 -30 35 -74 38 -48 4 -59 -4 -69 -46 -5
-19 -1 -31 16 -46 28 -26 75 -50 110 -58 24 -5 26 -8 17 -25 -6 -11 -15 -20
-21 -20 -12 0 -104 -54 -188 -109 -71 -47 -135 -124 -126 -151 8 -26 47 -36
83 -21 15 7 47 36 71 66 24 30 50 55 57 55 7 0 32 20 56 45 24 24 48 45 55 45
6 0 24 11 40 23 15 13 40 27 54 30 15 4 41 20 58 36 18 17 47 37 64 45 l32 16
-35 -31 c-19 -17 -51 -43 -70 -57 -19 -15 -57 -49 -85 -76 -27 -27 -66 -61
-85 -75 -20 -14 -62 -55 -94 -91 -70 -77 -154 -160 -294 -290 -56 -52 -102
-100 -102 -106 0 -6 -13 -23 -30 -37 -34 -30 -37 -52 -14 -85 23 -33 73 -30
109 8 16 17 52 45 80 62 27 17 65 45 82 62 18 16 36 27 39 23 18 -18 -113
-335 -259 -623 -38 -76 -40 -83 -28 -113 11 -26 19 -31 47 -31 27 0 36 6 49
30 8 16 15 33 15 39 0 5 34 79 76 163 89 180 128 272 200 468 29 80 59 149 66
155 7 5 21 22 31 38 10 15 24 27 32 27 7 0 20 9 28 20 7 10 45 42 83 69 38 28
80 60 93 71 13 12 45 32 70 45 25 12 64 39 86 59 21 20 44 36 51 36 20 0 36
28 29 50 -4 11 -15 20 -27 20 -17 0 -79 -28 -138 -62 -8 -5 -33 -18 -55 -29
-22 -11 -69 -37 -104 -59 -62 -39 -91 -49 -91 -31 0 5 15 20 33 32 17 12 52
41 77 63 26 23 77 66 115 96 38 30 85 69 104 86 20 18 56 43 80 56 59 33 188
139 196 161 7 19 -2 58 -13 56 -4 -1 -15 -3 -24 -6z"/>
<path d="M1121 981 c-31 -8 -76 -87 -92 -161 -6 -29 -24 -90 -40 -135 -16 -44
-41 -123 -55 -175 -14 -52 -32 -117 -41 -145 -25 -80 -22 -123 11 -151 16 -14
40 -24 59 -24 18 -1 48 -6 67 -13 55 -20 244 -9 321 18 82 29 138 60 145 80 9
27 5 99 -11 230 -16 123 -35 189 -56 193 -31 6 -53 -192 -34 -308 l7 -45 -48
-24 c-43 -22 -66 -25 -184 -29 -183 -5 -182 -6 -151 119 29 114 116 388 142
447 31 69 35 103 14 119 -11 7 -21 13 -24 12 -3 -1 -17 -4 -30 -8z m219 -711
c0 -5 -7 -10 -15 -10 -8 0 -15 5 -15 10 0 6 7 10 15 10 8 0 15 -4 15 -10z"/>
</g>
</svg>
