<?xml version="1.0" standalone="no"?>
<!DOCTYPE svg PUBLIC "-//W3C//DTD SVG 20010904//EN"
 "http://www.w3.org/TR/2001/REC-SVG-20010904/DTD/svg10.dtd">
<svg version="1.0" xmlns="http://www.w3.org/2000/svg"
 width="207.000000pt" height="207.000000pt" viewBox="0 0 207.000000 207.000000"
 preserveAspectRatio="xMidYMid meet">
<metadata>
Created by potrace 1.16, written by Peter Selinger 2001-2019
</metadata>
<g transform="translate(0.000000,207.000000) scale(0.100000,-0.100000)"
fill="#000000" stroke="none">
<path d="M1035 1900 c-22 -11 -50 -20 -62 -20 -24 0 -59 -43 -49 -59 4 -6 9
-61 12 -124 7 -132 17 -119 -132 -186 -70 -31 -92 -47 -108 -74 -18 -30 -18
-37 -6 -52 36 -43 117 -34 182 20 16 14 34 25 39 25 9 0 6 -209 -3 -214 -81
-51 -171 -168 -166 -214 3 -23 8 -27 38 -29 32 -3 38 2 70 47 19 27 38 50 42
50 3 0 20 11 37 25 16 14 54 38 83 54 29 15 78 41 110 59 61 35 68 37 68 22 0
-11 -123 -177 -149 -200 -29 -27 -108 -125 -114 -143 -4 -9 -31 -55 -61 -101
-50 -76 -59 -85 -111 -106 -65 -26 -77 -20 -68 35 3 17 -2 60 -11 94 -9 34
-16 91 -16 125 0 49 -4 67 -19 80 -17 15 -22 16 -52 3 -59 -24 -63 -35 -39
-124 11 -43 30 -124 42 -180 l21 -102 -26 -40 c-31 -47 -33 -58 -11 -89 25
-36 98 -26 151 22 39 34 37 10 -7 -66 -54 -93 -87 -193 -95 -288 l-6 -75 32
-18 c30 -17 33 -17 51 0 11 10 23 16 27 13 3 -3 15 20 26 50 22 58 41 103 56
132 13 25 11 48 -3 43 -7 -3 -24 -22 -38 -41 -13 -20 -26 -31 -28 -25 -5 16
43 117 77 161 15 19 40 66 56 105 16 38 43 85 61 105 19 22 34 51 39 77 6 36
4 43 -15 53 -26 14 -19 47 16 74 14 10 31 31 39 47 9 16 39 56 69 89 30 33 61
76 70 95 9 19 30 42 46 50 17 9 30 22 30 30 0 8 5 15 10 15 6 0 15 10 20 23
16 36 32 58 86 120 50 56 64 88 64 149 0 37 -22 45 -63 25 -18 -9 -70 -35
-117 -57 -47 -23 -127 -63 -179 -91 -52 -27 -96 -47 -98 -45 -5 5 22 87 38
119 6 10 23 56 39 103 19 58 38 94 59 113 17 16 31 33 31 39 0 5 9 12 20 15
11 3 24 16 29 29 5 13 16 30 25 37 20 17 21 51 2 51 -8 0 -45 -23 -82 -50 -36
-28 -68 -49 -70 -47 -2 2 0 37 4 78 7 69 9 75 37 88 38 18 67 50 63 70 -5 23
-66 23 -113 1z"/>
<path d="M1666 1016 c-5 -77 -2 -114 14 -188 26 -120 63 -257 78 -285 7 -12
12 -28 12 -36 0 -19 -103 -84 -246 -154 -116 -56 -121 -58 -199 -57 -73 0 -84
3 -128 33 -74 51 -74 41 -17 226 49 162 49 175 -2 175 -44 -1 -62 -27 -110
-164 -46 -131 -59 -195 -44 -229 48 -109 229 -185 367 -156 65 14 312 136 417
206 l82 55 0 59 c0 58 -12 100 -37 130 -15 18 -63 177 -87 286 -18 86 -60 187
-79 191 -11 2 -15 -17 -21 -92z"/>
</g>
</svg>
