<?xml version="1.0" standalone="no"?>
<!DOCTYPE svg PUBLIC "-//W3C//DTD SVG 20010904//EN"
 "http://www.w3.org/TR/2001/REC-SVG-20010904/DTD/svg10.dtd">
<svg version="1.0" xmlns="http://www.w3.org/2000/svg"
 width="204.000000pt" height="207.000000pt" viewBox="0 0 204.000000 207.000000"
 preserveAspectRatio="xMidYMid meet">
<metadata>
Created by potrace 1.16, written by Peter Selinger 2001-2019
</metadata>
<g transform="translate(0.000000,207.000000) scale(0.100000,-0.100000)"
fill="#000000" stroke="none">
<path d="M1100 1720 c-8 -5 -29 -10 -47 -10 -76 0 -101 -33 -182 -240 -29 -74
-56 -139 -61 -145 -4 -5 -31 -55 -60 -110 -29 -55 -58 -107 -65 -115 -20 -25
-110 -209 -151 -310 -21 -52 -51 -117 -66 -143 -51 -88 -33 -101 39 -29 68 66
133 169 214 332 28 58 59 116 69 130 20 29 67 121 139 274 29 60 63 122 75
137 13 15 33 48 45 73 13 27 37 54 57 67 41 25 60 64 43 85 -13 16 -28 17 -49
4z"/>
<path d="M1283 1480 c-34 -14 -40 -56 -12 -86 12 -13 31 -24 41 -24 10 0 30
-8 45 -17 24 -16 26 -16 39 2 22 30 16 58 -20 98 -34 37 -53 43 -93 27z"/>
<path d="M863 1053 c-18 -2 -37 -12 -42 -21 -7 -15 -15 -83 -27 -241 -1 -18
-8 -54 -14 -80 -17 -62 -153 -340 -190 -386 -36 -46 -39 -87 -8 -109 31 -22
75 -20 88 3 5 11 38 34 73 51 59 31 140 77 219 127 21 13 42 23 47 23 10 0
115 62 140 83 9 7 28 18 43 25 35 14 46 1 58 -72 5 -31 11 -60 14 -65 3 -5 8
-30 11 -56 11 -87 67 -186 92 -161 12 12 10 130 -3 221 -7 50 -27 140 -43 200
-29 100 -30 110 -15 126 20 22 11 37 -35 57 -48 21 -72 23 -98 6 -34 -21 -36
-47 -8 -103 32 -63 30 -82 -13 -93 -18 -5 -55 -22 -83 -38 -27 -17 -54 -30
-59 -30 -9 0 -136 -57 -203 -90 l-38 -20 7 23 c3 12 12 29 19 37 7 8 16 26 20
40 3 14 13 39 21 57 13 30 51 177 74 293 19 95 21 104 37 136 29 57 12 69 -84
57z"/>
</g>
</svg>
