<?xml version="1.0" standalone="no"?>
<!DOCTYPE svg PUBLIC "-//W3C//DTD SVG 20010904//EN"
 "http://www.w3.org/TR/2001/REC-SVG-20010904/DTD/svg10.dtd">
<svg version="1.0" xmlns="http://www.w3.org/2000/svg"
 width="207.000000pt" height="206.000000pt" viewBox="0 0 207.000000 206.000000"
 preserveAspectRatio="xMidYMid meet">
<metadata>
Created by potrace 1.16, written by Peter Selinger 2001-2019
</metadata>
<g transform="translate(0.000000,206.000000) scale(0.100000,-0.100000)"
fill="#000000" stroke="none">
<path d="M904 1833 c-13 -12 -24 -33 -24 -45 0 -21 61 -137 110 -208 23 -35
67 -132 75 -168 6 -29 5 -30 -62 -55 -37 -14 -87 -31 -111 -38 -23 -7 -47 -18
-53 -26 -6 -7 -22 -13 -35 -13 -14 0 -41 -15 -61 -33 -29 -27 -35 -38 -30 -59
9 -36 50 -52 96 -36 20 7 38 15 41 18 3 3 41 22 85 43 44 21 91 44 105 52 14
8 63 32 109 54 46 23 111 58 145 79 34 21 74 44 89 52 15 7 47 31 70 52 23 21
49 40 58 43 25 8 55 95 33 95 -7 0 -151 -79 -209 -115 -70 -44 -180 -94 -188
-86 -4 4 -14 33 -22 65 -8 32 -21 67 -27 79 -14 25 -34 75 -53 133 -13 40 -12
42 11 52 23 11 40 49 32 74 -3 9 -28 13 -82 13 -67 0 -82 -3 -102 -22z"/>
<path d="M942 1060 c-18 -11 -38 -20 -45 -20 -6 0 -36 -13 -66 -28 -51 -26
-55 -32 -68 -82 -7 -29 -20 -92 -28 -139 -8 -47 -31 -131 -51 -186 -52 -140
-83 -261 -83 -323 -1 -48 3 -57 30 -83 35 -33 60 -37 83 -13 20 20 20 40 1 48
-33 12 -16 121 46 283 38 101 71 216 89 315 12 64 43 105 114 152 64 42 69 49
61 76 -8 26 -41 26 -83 0z"/>
<path d="M1424 970 c-29 -11 -54 -54 -54 -92 0 -63 32 -263 56 -348 42 -147
121 -281 157 -267 19 7 23 56 8 73 -6 5 -14 27 -19 49 -5 22 -22 85 -37 140
-15 55 -32 146 -40 202 -12 95 -11 117 10 204 4 15 3 29 -2 31 -19 12 -60 16
-79 8z"/>
</g>
</svg>
