<?xml version="1.0" standalone="no"?>
<!DOCTYPE svg PUBLIC "-//W3C//DTD SVG 20010904//EN"
 "http://www.w3.org/TR/2001/REC-SVG-20010904/DTD/svg10.dtd">
<svg version="1.0" xmlns="http://www.w3.org/2000/svg"
 width="209.000000pt" height="205.000000pt" viewBox="0 0 209.000000 205.000000"
 preserveAspectRatio="xMidYMid meet">
<metadata>
Created by potrace 1.16, written by Peter Selinger 2001-2019
</metadata>
<g transform="translate(0.000000,205.000000) scale(0.100000,-0.100000)"
fill="#000000" stroke="none">
<path d="M1038 1856 c-14 -13 -26 -34 -26 -47 -1 -13 -7 -80 -15 -147 -8 -72
-10 -145 -6 -175 13 -88 11 -96 -16 -103 -14 -3 -46 -23 -71 -44 -25 -20 -80
-56 -122 -80 -135 -76 -160 -115 -102 -158 37 -28 52 -28 87 1 15 13 49 36 76
51 26 15 47 31 47 36 0 10 116 90 129 90 5 0 14 6 20 14 7 8 30 24 52 35 22
12 46 26 52 31 51 42 118 90 125 90 7 0 241 149 261 166 2 2 0 15 -3 30 -6 24
-11 26 -41 21 -19 -3 -55 -18 -80 -34 -70 -43 -73 -44 -178 -101 -54 -29 -111
-62 -127 -73 -31 -24 -55 -18 -41 9 5 9 12 39 16 67 4 27 15 59 25 72 10 13
21 43 24 68 6 40 11 46 39 53 29 7 32 12 35 49 3 39 1 43 -43 72 -55 37 -81
38 -117 7z"/>
<path d="M970 1037 c-19 -14 -59 -33 -89 -43 -71 -25 -107 -70 -115 -144 -4
-30 -9 -72 -12 -92 -3 -20 -7 -52 -9 -70 -1 -18 -7 -69 -13 -113 -6 -44 -14
-127 -17 -185 -3 -58 -11 -120 -17 -138 -7 -25 -7 -37 1 -45 30 -30 87 65 102
168 5 33 16 110 25 170 9 61 20 135 25 165 4 30 12 69 17 85 6 17 13 42 16 57
4 17 18 34 35 43 16 8 53 37 81 64 38 37 51 56 48 73 -4 32 -35 34 -78 5z"/>
<path d="M1273 695 c-34 -14 -48 -31 -34 -39 5 -3 19 -25 31 -48 12 -23 40
-64 63 -92 23 -28 48 -60 55 -71 39 -63 56 -81 113 -131 67 -57 84 -62 114
-41 17 13 16 16 -16 53 -66 76 -101 125 -134 192 -50 98 -107 175 -137 183
-14 3 -38 1 -55 -6z"/>
</g>
</svg>
