<?xml version="1.0" standalone="no"?>
<!DOCTYPE svg PUBLIC "-//W3C//DTD SVG 20010904//EN"
 "http://www.w3.org/TR/2001/REC-SVG-20010904/DTD/svg10.dtd">
<svg version="1.0" xmlns="http://www.w3.org/2000/svg"
 width="208.000000pt" height="206.000000pt" viewBox="0 0 208.000000 206.000000"
 preserveAspectRatio="xMidYMid meet">
<metadata>
Created by potrace 1.16, written by Peter Selinger 2001-2019
</metadata>
<g transform="translate(0.000000,206.000000) scale(0.100000,-0.100000)"
fill="#000000" stroke="none">
<path d="M1624 1822 c-23 -9 -48 -22 -55 -28 -8 -6 -39 -23 -69 -37 -30 -15
-107 -63 -170 -107 -63 -45 -135 -93 -159 -108 -24 -15 -92 -58 -151 -97 -59
-38 -133 -87 -166 -107 -32 -21 -68 -44 -78 -50 -128 -83 -281 -166 -374 -204
-48 -19 -102 -74 -102 -103 0 -10 12 -26 26 -36 36 -23 106 -13 132 19 10 13
29 27 42 31 14 4 34 16 45 26 22 20 126 86 267 169 48 29 92 58 99 66 6 8 16
14 21 14 5 0 19 9 31 21 12 11 36 28 52 36 17 9 51 33 76 54 26 22 52 39 57
39 21 0 98 49 172 109 56 46 161 121 169 121 5 0 31 18 57 40 27 22 52 40 57
40 4 0 25 11 47 25 22 14 45 25 52 25 19 0 47 31 41 46 -7 19 -68 17 -119 -4z"/>
<path d="M623 1534 c-23 -23 -25 -30 -18 -72 4 -26 7 -62 7 -79 0 -18 3 -33 7
-33 4 0 24 16 45 35 21 19 40 35 41 35 2 0 17 -23 34 -50 27 -45 34 -49 51
-40 33 18 26 76 -15 138 -20 28 -42 52 -49 52 -8 0 -16 9 -19 20 -7 29 -52 26
-84 -6z"/>
<path d="M875 971 c-11 -5 -23 -7 -26 -5 -4 2 -12 -3 -19 -11 -7 -8 -18 -15
-25 -15 -14 0 -25 -21 -25 -48 0 -9 -14 -42 -30 -72 -31 -58 -75 -146 -121
-245 -15 -33 -35 -71 -43 -85 -8 -14 -35 -66 -60 -117 -25 -50 -49 -100 -55
-110 -6 -10 -35 -73 -65 -141 l-55 -122 40 0 c24 0 39 5 39 13 0 6 17 35 38
62 39 53 93 151 168 305 26 52 52 102 59 110 7 8 24 43 38 78 14 34 53 103 86
153 34 51 61 101 61 113 0 12 14 36 30 54 28 31 41 82 21 82 -5 0 -15 2 -23 4
-7 3 -22 1 -33 -3z"/>
<path d="M1279 815 c-60 -32 -61 -113 -5 -200 19 -27 41 -66 51 -85 23 -45 54
-89 80 -115 12 -11 49 -53 84 -92 46 -53 70 -73 87 -73 30 0 40 23 26 55 -6
13 -43 66 -81 118 -39 53 -91 135 -117 184 -43 82 -45 92 -40 142 9 78 -21
101 -85 66z"/>
</g>
</svg>
