<?xml version="1.0" standalone="no"?>
<!DOCTYPE svg PUBLIC "-//W3C//DTD SVG 20010904//EN"
 "http://www.w3.org/TR/2001/REC-SVG-20010904/DTD/svg10.dtd">
<svg version="1.0" xmlns="http://www.w3.org/2000/svg"
 width="208.000000pt" height="206.000000pt" viewBox="0 0 208.000000 206.000000"
 preserveAspectRatio="xMidYMid meet">
<metadata>
Created by potrace 1.16, written by Peter Selinger 2001-2019
</metadata>
<g transform="translate(0.000000,206.000000) scale(0.100000,-0.100000)"
fill="#000000" stroke="none">
<path d="M1140 1910 c-40 -6 -42 -10 -80 -180 -20 -90 -47 -193 -72 -270 -6
-19 -33 -81 -60 -138 -27 -56 -48 -107 -46 -113 3 -10 88 47 88 60 0 3 19 31
41 61 23 30 46 66 51 80 32 79 72 192 83 235 20 79 54 158 81 186 33 35 32 67
-3 75 -16 3 -32 7 -38 8 -5 1 -26 0 -45 -4z"/>
<path d="M595 1597 c-22 -18 -25 -28 -20 -50 8 -30 49 -57 87 -57 13 0 47 11
76 25 30 14 62 25 72 25 11 0 21 4 24 9 3 5 22 12 42 15 29 6 35 11 32 29 -3
21 -7 22 -145 24 -135 3 -144 2 -168 -20z"/>
<path d="M1358 1387 c-48 -24 -96 -51 -106 -60 -10 -9 -23 -17 -29 -17 -5 0
-28 -13 -49 -28 -43 -31 -112 -65 -219 -110 -219 -92 -267 -114 -339 -153 -82
-46 -103 -71 -92 -113 11 -43 54 -45 116 -7 109 67 296 161 420 211 45 18 107
53 230 130 36 22 98 56 138 76 75 37 98 63 80 97 -14 27 -56 20 -150 -26z"/>
<path d="M1155 1029 c-27 -16 -61 -34 -75 -41 -14 -7 -45 -26 -70 -43 -49 -32
-210 -118 -251 -135 -47 -20 -68 -109 -30 -130 32 -17 52 -12 95 23 23 19 52
40 66 47 40 20 253 162 271 179 8 9 33 25 55 36 57 29 76 52 61 76 -17 27 -62
23 -122 -12z"/>
<path d="M1521 634 c-6 -13 -23 -27 -38 -30 -15 -4 -41 -15 -58 -25 -16 -10
-70 -32 -120 -50 -49 -18 -108 -42 -130 -54 -22 -13 -74 -34 -115 -49 -41 -14
-109 -43 -150 -63 -88 -43 -96 -46 -175 -68 -33 -9 -72 -23 -87 -31 -14 -8
-37 -14 -50 -14 -12 0 -32 -7 -42 -15 -11 -8 -30 -15 -42 -15 -13 0 -25 -4
-29 -10 -3 -5 -12 -7 -20 -3 -8 3 -15 0 -15 -6 0 -7 -8 -15 -17 -18 -18 -7
-42 -32 -43 -44 0 -3 11 -18 24 -34 20 -23 29 -27 57 -22 35 6 157 47 193 66
12 6 41 17 66 25 85 27 181 64 203 79 12 7 56 26 97 42 41 15 109 44 150 65
41 20 109 49 151 63 41 14 110 41 152 62 43 20 91 38 108 40 38 5 35 1 50 56
18 67 11 77 -54 77 -48 -1 -56 -4 -66 -24z"/>
</g>
</svg>
