<?xml version="1.0" standalone="no"?>
<!DOCTYPE svg PUBLIC "-//W3C//DTD SVG 20010904//EN"
 "http://www.w3.org/TR/2001/REC-SVG-20010904/DTD/svg10.dtd">
<svg version="1.0" xmlns="http://www.w3.org/2000/svg"
 width="209.000000pt" height="205.000000pt" viewBox="0 0 209.000000 205.000000"
 preserveAspectRatio="xMidYMid meet">
<metadata>
Created by potrace 1.16, written by Peter Selinger 2001-2019
</metadata>
<g transform="translate(0.000000,205.000000) scale(0.100000,-0.100000)"
fill="#000000" stroke="none">
<path d="M1082 2007 c-11 -37 -21 -48 -57 -66 -23 -12 -48 -28 -55 -36 -7 -8
-17 -15 -22 -15 -5 0 -30 -15 -56 -32 -75 -53 -115 -72 -152 -74 -56 -4 -127
-28 -152 -51 -13 -12 -43 -32 -68 -45 -91 -48 -132 -80 -145 -111 -21 -51 0
-81 68 -91 25 -4 48 -1 69 10 l32 17 61 -65 c61 -66 105 -92 146 -86 37 5 33
26 -13 71 -53 52 -97 141 -82 165 6 9 29 26 52 37 22 11 49 28 59 38 11 9 24
17 30 17 6 0 37 17 69 38 131 86 158 102 166 102 12 0 3 -66 -28 -207 -23
-102 -36 -142 -80 -240 -8 -17 -14 -41 -14 -54 0 -21 2 -20 31 12 17 19 47 58
66 88 19 30 41 61 49 68 8 8 14 22 14 31 0 9 6 29 14 44 8 14 24 74 36 133 13
59 28 112 35 118 6 7 18 33 26 57 12 37 23 49 56 65 52 26 83 53 83 75 0 21
-30 27 -145 30 l-80 1 -13 -44z"/>
<path d="M1405 1487 c-11 -7 -43 -23 -72 -35 -118 -50 -272 -128 -331 -168
-34 -24 -88 -55 -120 -69 -31 -14 -65 -30 -75 -36 -10 -6 -35 -19 -55 -30 -20
-11 -50 -29 -67 -39 -67 -42 -138 -79 -193 -101 -31 -13 -71 -33 -89 -46 -17
-13 -38 -23 -45 -23 -8 0 -18 -4 -23 -9 -6 -5 -39 -19 -75 -31 -64 -22 -79
-28 -172 -70 -43 -20 -48 -25 -48 -54 0 -52 43 -80 88 -57 9 5 37 17 62 26 25
10 65 27 90 37 25 11 61 27 80 35 19 8 46 21 60 28 14 8 46 24 72 36 27 13 48
26 48 31 0 4 9 8 19 8 11 0 22 4 26 9 3 6 18 16 33 24 39 20 105 58 117 67 6
4 66 37 135 73 69 36 146 78 171 95 24 17 103 63 174 102 72 40 137 78 145 85
8 7 30 17 49 24 19 6 40 20 48 31 8 11 21 20 29 20 23 0 16 37 -8 44 -35 9
-52 7 -73 -7z"/>
<path d="M732 758 c-70 -11 -76 -17 -87 -93 -7 -48 -58 -248 -89 -350 -22 -71
-21 -135 2 -135 9 0 22 4 28 8 24 16 65 110 111 257 14 44 33 100 43 125 10
25 23 59 30 77 7 18 21 35 32 39 22 7 40 46 32 69 -7 17 -11 17 -102 3z"/>
<path d="M1285 613 c-27 -6 -45 -31 -45 -63 0 -28 48 -85 85 -101 11 -5 27
-13 35 -18 37 -23 94 -42 138 -48 44 -5 52 -3 86 27 32 29 36 37 30 64 -9 46
-18 49 -47 20 l-27 -27 -53 24 c-61 28 -104 61 -130 102 -17 26 -30 30 -72 20z"/>
</g>
</svg>
