<?xml version="1.0" standalone="no"?>
<!DOCTYPE svg PUBLIC "-//W3C//DTD SVG 20010904//EN"
 "http://www.w3.org/TR/2001/REC-SVG-20010904/DTD/svg10.dtd">
<svg version="1.0" xmlns="http://www.w3.org/2000/svg"
 width="208.000000pt" height="205.000000pt" viewBox="0 0 208.000000 205.000000"
 preserveAspectRatio="xMidYMid meet">
<metadata>
Created by potrace 1.16, written by Peter Selinger 2001-2019
</metadata>
<g transform="translate(0.000000,205.000000) scale(0.100000,-0.100000)"
fill="#000000" stroke="none">
<path d="M1042 1972 c-12 -2 -27 -13 -34 -25 -11 -21 -13 -41 -16 -158 l-2
-56 -42 -16 c-56 -21 -194 -59 -235 -65 -50 -7 -43 22 10 37 63 19 72 25 75
55 3 26 3 26 -60 26 -38 0 -91 -10 -133 -24 -66 -21 -70 -24 -73 -55 -2 -18 2
-39 9 -47 18 -22 1 -32 -66 -37 -73 -5 -114 -23 -121 -53 -10 -39 0 -58 39
-78 38 -18 41 -18 100 0 34 10 73 24 87 31 14 7 30 13 36 13 5 0 34 -29 63
-64 41 -50 62 -66 93 -74 30 -8 40 -7 44 3 5 12 -43 112 -67 141 -13 16 -3 34
18 34 9 0 53 13 97 29 45 16 92 32 105 36 l23 7 -4 -98 c-3 -60 -12 -121 -24
-154 l-19 -55 -85 -25 c-47 -14 -98 -30 -115 -37 -16 -6 -84 -25 -150 -43 -66
-17 -133 -37 -150 -45 -64 -29 -103 -45 -112 -45 -27 0 -241 -76 -279 -99 -52
-31 -61 -51 -38 -86 15 -23 23 -26 53 -22 20 2 63 16 96 29 93 39 222 87 305
113 25 8 83 28 130 46 47 17 114 39 150 49 137 37 277 83 337 111 34 16 100
40 147 54 48 13 95 29 105 34 15 9 20 7 24 -10 5 -17 11 -19 44 -14 57 10 155
46 178 65 11 9 41 29 67 44 38 21 49 34 58 65 12 46 4 74 -19 67 -22 -7 -100
-26 -131 -32 -14 -3 -34 -10 -45 -15 -21 -9 -157 -53 -260 -84 -55 -17 -124
-45 -200 -80 -27 -13 -30 -12 -33 2 -2 8 6 29 19 46 14 19 30 67 41 122 11 49
21 102 24 116 3 15 16 32 27 38 12 6 31 16 42 23 11 7 42 26 68 42 39 23 88
82 75 90 -2 1 -10 7 -19 14 -13 10 -30 4 -95 -33 -43 -25 -85 -45 -92 -45 -23
0 -4 91 24 118 25 24 32 56 14 67 -13 8 -78 13 -108 7z m-302 -746 c0 -2 -7
-6 -15 -10 -8 -3 -15 -1 -15 4 0 6 7 10 15 10 8 0 15 -2 15 -4z"/>
<path d="M513 729 c-31 -11 -43 -33 -47 -85 -3 -27 -9 -62 -15 -77 -6 -16 -11
-43 -11 -60 0 -18 -9 -57 -19 -87 -29 -84 -6 -180 44 -180 32 0 37 10 40 83 1
36 14 94 30 137 14 41 32 95 39 120 10 37 18 47 45 56 60 20 88 58 59 82 -16
12 -140 21 -165 11z"/>
<path d="M1125 724 c-43 -22 -48 -30 -42 -56 6 -22 88 -111 188 -204 40 -37
102 -64 116 -51 13 13 -13 74 -44 106 -50 52 -133 171 -133 191 0 10 -10 20
-22 24 -31 8 -29 8 -63 -10z"/>
</g>
</svg>
