<?xml version="1.0" standalone="no"?>
<!DOCTYPE svg PUBLIC "-//W3C//DTD SVG 20010904//EN"
 "http://www.w3.org/TR/2001/REC-SVG-20010904/DTD/svg10.dtd">
<svg version="1.0" xmlns="http://www.w3.org/2000/svg"
 width="208.000000pt" height="207.000000pt" viewBox="0 0 208.000000 207.000000"
 preserveAspectRatio="xMidYMid meet">
<metadata>
Created by potrace 1.16, written by Peter Selinger 2001-2019
</metadata>
<g transform="translate(0.000000,207.000000) scale(0.100000,-0.100000)"
fill="#000000" stroke="none">
<path d="M1038 1764 c-24 -13 -27 -20 -27 -67 0 -62 -21 -136 -50 -173 -11
-15 -21 -32 -21 -40 0 -7 -22 -39 -50 -71 -27 -32 -50 -61 -50 -65 0 -27 45 6
136 96 95 95 107 111 125 168 11 35 24 78 30 97 9 26 8 36 -2 46 -23 21 -62
25 -91 9z"/>
<path d="M520 1556 c-37 -13 -46 -32 -36 -71 5 -18 16 -26 43 -31 44 -8 112
23 139 64 16 24 16 26 -2 39 -22 16 -97 16 -144 -1z"/>
<path d="M1275 1489 c-44 -29 -109 -71 -145 -94 -36 -23 -94 -59 -130 -79 -65
-37 -123 -76 -213 -141 -26 -19 -73 -49 -105 -66 -31 -17 -75 -45 -97 -60 -60
-44 -162 -109 -169 -109 -4 0 -22 -11 -39 -24 -18 -13 -43 -27 -57 -31 -14 -4
-47 -22 -75 -39 -27 -18 -77 -43 -110 -55 -72 -28 -102 -55 -111 -97 -5 -26
-2 -33 22 -49 27 -17 29 -17 58 0 17 10 51 29 76 42 25 13 61 33 80 45 19 11
65 36 102 55 38 18 68 38 68 43 0 6 6 10 14 10 21 0 154 78 206 121 25 20 56
42 70 49 14 7 95 58 180 115 85 56 194 127 242 158 48 31 96 64 105 72 10 8
20 14 23 14 10 -3 95 43 118 64 15 14 22 32 22 58 0 35 -14 48 -50 49 -3 0
-42 -23 -85 -51z"/>
<path d="M550 1305 c-7 -8 -19 -15 -27 -15 -7 0 -23 -8 -33 -18 -25 -23 -98
-62 -116 -62 -8 0 -17 -7 -20 -15 -3 -8 -30 -30 -60 -50 -30 -20 -54 -41 -54
-46 0 -6 7 -23 15 -39 25 -47 58 -40 134 28 111 99 202 195 199 211 -4 21 -23
24 -38 6z"/>
<path d="M675 750 c-10 -11 -32 -24 -49 -28 -26 -7 -39 -22 -81 -102 -28 -52
-56 -104 -62 -115 -7 -11 -27 -54 -45 -95 -31 -71 -109 -213 -149 -272 -22
-32 -25 -58 -5 -58 13 0 49 35 155 149 36 40 76 107 148 252 12 25 30 52 39
60 9 7 27 36 41 64 13 27 33 67 44 87 17 31 18 40 7 57 -16 26 -20 26 -43 1z"/>
<path d="M1246 691 c-42 -28 -49 -45 -35 -88 10 -34 52 -77 118 -118 9 -6 34
-27 55 -47 21 -21 55 -45 75 -54 20 -9 49 -28 65 -41 37 -31 120 -73 144 -73
44 0 69 72 36 104 -8 9 -27 18 -42 22 -47 9 -128 53 -175 94 -25 22 -48 40
-53 40 -11 0 -84 83 -84 96 0 10 -64 84 -72 84 -2 0 -16 -9 -32 -19z"/>
</g>
</svg>
