<?xml version="1.0" standalone="no"?>
<!DOCTYPE svg PUBLIC "-//W3C//DTD SVG 20010904//EN"
 "http://www.w3.org/TR/2001/REC-SVG-20010904/DTD/svg10.dtd">
<svg version="1.0" xmlns="http://www.w3.org/2000/svg"
 width="212.000000pt" height="208.000000pt" viewBox="0 0 212.000000 208.000000"
 preserveAspectRatio="xMidYMid meet">
<metadata>
Created by potrace 1.16, written by Peter Selinger 2001-2019
</metadata>
<g transform="translate(0.000000,208.000000) scale(0.100000,-0.100000)"
fill="#000000" stroke="none">
<path d="M1186 2045 c-16 -12 -18 -22 -12 -67 4 -29 14 -72 22 -96 8 -23 14
-56 14 -72 0 -26 -5 -31 -42 -41 -24 -6 -94 -35 -156 -65 -62 -30 -116 -54
-121 -54 -13 0 -20 37 -14 74 4 27 13 37 50 55 57 27 123 80 123 98 0 17 -38
17 -72 -1 -16 -8 -47 -18 -71 -21 -24 -4 -65 -19 -93 -34 -55 -30 -55 -27 -31
-148 8 -40 11 -76 8 -81 -3 -4 -37 -23 -76 -41 -38 -18 -79 -41 -90 -52 -11
-11 -32 -29 -48 -40 -31 -23 -35 -59 -9 -81 28 -25 52 -29 75 -13 12 8 33 15
47 15 32 0 42 8 57 43 7 15 17 27 23 27 5 0 13 0 16 0 10 0 4 -260 -6 -307
-14 -59 -20 -275 -9 -295 14 -26 23 -22 37 15 21 55 26 60 55 46 22 -10 31 -9
54 7 71 47 239 134 260 134 24 0 12 -55 -27 -129 -42 -81 -29 -71 -225 -172
-55 -28 -107 -57 -115 -64 -32 -28 -252 -133 -292 -139 -23 -4 -47 -11 -53
-16 -5 -4 -45 -13 -87 -19 -42 -6 -91 -17 -110 -25 -18 -8 -49 -18 -69 -21
-40 -6 -89 -39 -89 -59 0 -7 10 -26 22 -41 20 -25 25 -27 71 -21 43 6 109 24
157 43 18 7 20 8 85 23 27 6 54 15 60 19 5 5 34 14 62 22 29 7 53 16 53 20 0
3 15 12 33 19 59 24 162 73 187 91 28 19 194 111 309 170 41 22 81 45 90 52 9
7 32 20 52 29 33 15 36 15 46 -1 13 -20 37 -8 67 32 l20 27 -22 23 c-29 28
-98 27 -146 -2 -18 -12 -36 -21 -40 -21 -14 0 -4 32 23 72 16 24 36 60 44 81
9 20 23 40 32 43 18 7 19 33 3 69 -9 21 -9 45 2 113 7 48 15 174 16 280 2 126
6 198 14 207 6 7 30 17 52 20 24 4 50 17 63 31 12 13 27 24 33 24 6 0 17 8 24
18 7 9 32 26 56 36 24 11 56 35 72 53 31 35 36 48 22 57 -8 5 -166 -58 -187
-75 -6 -4 -40 -19 -75 -32 -36 -13 -72 -27 -81 -31 -12 -5 -18 4 -29 47 -7 32
-10 70 -6 92 6 29 4 40 -11 51 -23 17 -73 17 -97 -1z m39 -375 c8 -13 16 -200
9 -211 -3 -5 -13 -5 -24 1 -25 14 -77 -6 -123 -47 -20 -18 -41 -33 -46 -33 -5
0 -23 -12 -40 -26 -38 -32 -40 -65 -5 -93 21 -16 30 -18 52 -10 52 20 91 51
126 99 48 67 66 66 60 -2 -16 -169 -16 -172 -54 -190 -19 -10 -71 -29 -115
-43 -44 -14 -93 -34 -110 -45 -16 -12 -48 -30 -69 -41 l-39 -21 6 69 c4 37 11
95 17 128 6 33 14 110 19 170 10 129 27 169 75 185 19 6 42 20 51 30 10 11 23
20 30 20 10 0 28 7 130 55 36 17 42 18 50 5z m-435 -130 c0 -5 -5 -10 -11 -10
-5 0 -7 5 -4 10 3 6 8 10 11 10 2 0 4 -4 4 -10z"/>
<path d="M937 526 c-10 -8 -37 -17 -61 -20 l-43 -7 -28 -92 c-15 -51 -31 -111
-36 -134 -4 -24 -15 -55 -23 -70 -7 -16 -23 -59 -35 -98 -12 -38 -24 -78 -27
-87 -4 -15 1 -18 34 -18 35 0 41 3 52 33 6 17 19 50 27 72 8 22 24 60 36 85
12 25 28 63 37 85 8 22 31 69 50 104 63 116 78 146 73 154 -7 11 -36 8 -56 -7z"/>
<path d="M1253 318 c-13 -6 -23 -16 -23 -23 0 -19 52 -60 95 -74 22 -7 47 -20
56 -27 8 -8 36 -17 60 -20 56 -8 78 9 71 55 -3 26 -14 35 -71 62 -72 35 -151
47 -188 27z"/>
</g>
</svg>
