<?xml version="1.0" standalone="no"?>
<!DOCTYPE svg PUBLIC "-//W3C//DTD SVG 20010904//EN"
 "http://www.w3.org/TR/2001/REC-SVG-20010904/DTD/svg10.dtd">
<svg version="1.0" xmlns="http://www.w3.org/2000/svg"
 width="209.000000pt" height="208.000000pt" viewBox="0 0 209.000000 208.000000"
 preserveAspectRatio="xMidYMid meet">
<metadata>
Created by potrace 1.16, written by Peter Selinger 2001-2019
</metadata>
<g transform="translate(0.000000,208.000000) scale(0.100000,-0.100000)"
fill="#000000" stroke="none">
<path d="M1075 2041 c-16 -37 -23 -121 -10 -141 9 -14 -32 -46 -101 -80 -35
-18 -74 -42 -86 -55 -56 -55 -138 -95 -125 -61 3 8 9 30 12 50 6 31 4 36 -22
48 -69 34 -103 -3 -103 -114 0 -50 -4 -81 -12 -87 -7 -6 -35 -31 -63 -55 -27
-25 -73 -57 -102 -71 -51 -26 -64 -37 -123 -103 -37 -40 -37 -52 -4 -92 38
-45 59 -36 167 70 50 50 97 90 105 90 15 0 15 4 -3 -294 -2 -32 -9 -97 -16
-145 -10 -68 -10 -102 0 -161 18 -113 20 -130 23 -194 3 -64 6 -60 -77 -96
-27 -12 -68 -30 -90 -41 -22 -10 -58 -23 -80 -30 -78 -22 -191 -96 -216 -141
-11 -20 6 -64 27 -72 29 -11 101 12 148 48 26 20 68 45 91 56 24 11 45 23 47
28 1 5 23 16 48 24 135 49 215 78 229 84 28 13 144 45 226 64 113 25 222 55
275 75 25 9 70 21 100 27 30 5 87 24 125 43 39 18 92 43 118 55 50 23 70 46
81 92 5 23 0 31 -29 53 -36 28 -60 26 -50 -5 3 -11 2 -28 -4 -38 -17 -32 -319
-132 -400 -132 -26 0 -31 4 -31 24 0 14 5 28 10 31 6 3 10 17 10 30 0 31 16
68 58 133 28 42 33 59 28 84 -8 43 -32 66 -74 74 l-34 7 6 110 c3 61 8 112 10
115 3 2 22 10 43 17 74 26 70 77 -7 83 l-43 3 8 97 c4 53 7 114 6 134 -1 21 2
55 8 75 5 21 12 50 15 65 6 26 57 64 69 52 9 -9 47 16 47 31 0 23 -37 37 -84
30 -53 -8 -61 5 -45 71 16 62 8 74 -44 74 -41 0 -45 -2 -62 -39z m-13 -467
c-2 -93 -8 -174 -14 -181 -5 -6 -22 -15 -38 -18 -45 -10 -180 -102 -180 -123
0 -25 29 -50 66 -58 25 -5 39 2 86 40 31 25 59 51 61 58 8 20 12 -43 8 -146
-1 -52 -16 -63 -152 -117 -97 -38 -125 -54 -155 -89 -22 -25 -22 -25 -44 -5
-24 22 -24 33 5 275 7 63 17 151 20 194 4 44 11 87 15 95 4 9 12 29 16 45 5
17 22 37 40 47 17 9 53 34 80 55 27 20 67 45 89 56 22 10 49 25 60 33 37 29
40 15 37 -161z m-22 -623 c0 -15 -10 -41 -21 -55 -20 -26 -21 -29 -5 -44 13
-14 20 -14 36 -4 11 6 22 12 25 12 3 0 5 -37 3 -82 -3 -79 -4 -81 -28 -83 -48
-5 -145 -26 -200 -45 -30 -11 -75 -22 -99 -26 l-44 -7 7 64 c20 187 19 182 57
174 23 -5 40 0 72 21 49 32 179 103 190 104 4 0 7 -13 7 -29z m20 -291 c0 -5
-4 -10 -10 -10 -5 0 -10 5 -10 10 0 6 5 10 10 10 6 0 10 -4 10 -10z"/>
<path d="M752 402 c-13 -12 -22 -31 -22 -48 0 -16 -5 -45 -11 -64 -6 -19 -17
-64 -26 -100 -40 -170 -36 -190 32 -190 45 0 45 0 45 35 0 41 36 179 56 215 8
14 18 37 24 52 6 17 23 33 45 42 23 10 35 22 35 35 0 26 -3 28 -85 36 -61 6
-73 4 -93 -13z"/>
<path d="M1136 261 c-11 -13 -15 -27 -11 -40 10 -34 86 -87 140 -98 110 -24
235 10 235 63 0 24 -1 24 -94 23 -98 -1 -140 12 -179 52 -23 25 -69 24 -91 0z"/>
</g>
</svg>
