<?xml version="1.0" standalone="no"?>
<!DOCTYPE svg PUBLIC "-//W3C//DTD SVG 20010904//EN"
 "http://www.w3.org/TR/2001/REC-SVG-20010904/DTD/svg10.dtd">
<svg version="1.0" xmlns="http://www.w3.org/2000/svg"
 width="209.000000pt" height="208.000000pt" viewBox="0 0 209.000000 208.000000"
 preserveAspectRatio="xMidYMid meet">
<metadata>
Created by potrace 1.16, written by Peter Selinger 2001-2019
</metadata>
<g transform="translate(0.000000,208.000000) scale(0.100000,-0.100000)"
fill="#000000" stroke="none">
<path d="M1294 2037 c-65 -45 -79 -55 -208 -157 -45 -36 -108 -85 -140 -110
-157 -121 -149 -103 -152 -350 -4 -323 0 -297 -56 -332 -62 -38 -62 -64 0 -93
l42 -20 -6 -56 c-3 -35 -2 -59 5 -63 11 -7 53 69 65 116 5 22 17 30 73 49 38
12 98 37 134 55 36 19 70 34 77 34 6 0 23 11 38 25 15 14 30 25 33 25 3 0 6
-44 6 -97 0 -54 4 -126 9 -159 l9 -62 -39 -12 c-22 -7 -79 -32 -129 -55 -49
-23 -106 -46 -125 -50 -19 -4 -61 -16 -92 -26 -61 -20 -250 -49 -306 -47 -39
1 -82 -34 -82 -68 0 -21 50 -74 70 -74 5 0 29 6 52 14 24 8 79 20 123 26 44 7
97 21 117 31 20 10 47 19 59 19 21 0 194 66 215 82 10 8 60 26 214 80 68 23
120 46 292 130 10 4 25 8 33 8 24 0 29 29 10 50 -10 11 -29 20 -42 20 -23 0
-119 -29 -178 -54 -83 -36 -88 -37 -99 -26 -20 20 -13 299 11 470 12 85 29
214 37 285 9 72 19 151 22 177 3 26 14 64 25 84 10 21 19 47 19 59 0 11 11 41
25 68 l25 47 -62 -1 c-57 -1 -69 -5 -124 -42z m6 -121 c0 -3 -4 -16 -10 -30
-5 -14 -12 -65 -15 -113 -5 -83 -13 -143 -19 -143 -2 0 -17 5 -34 11 -26 9
-35 8 -48 -5 -8 -9 -27 -19 -42 -23 -15 -3 -38 -14 -51 -25 -13 -10 -27 -18
-32 -18 -4 0 -28 -13 -52 -30 -54 -36 -67 -37 -67 -6 0 26 16 47 56 73 13 8
24 25 24 37 0 11 8 33 18 47 20 31 101 109 152 148 19 14 48 38 63 53 25 24
57 37 57 24z m-53 -427 c-4 -60 -9 -115 -12 -120 -4 -5 -15 -3 -28 6 -42 29
-137 9 -221 -48 -28 -19 -61 -38 -73 -42 -21 -6 -23 -3 -23 28 0 39 10 49 60
66 19 6 57 34 84 61 27 28 53 50 56 50 4 0 40 25 80 55 40 30 76 55 78 55 3 0
2 -50 -1 -111z m-31 -244 c-6 -36 -14 -65 -18 -65 -4 0 -8 4 -8 9 0 26 -77 14
-148 -23 -17 -9 -42 -16 -56 -16 -14 0 -28 -4 -31 -10 -3 -5 -21 -10 -38 -9
l-32 1 38 12 c21 6 48 24 60 39 22 27 122 96 142 98 5 1 22 0 36 -1 14 0 31 6
39 14 22 28 26 17 16 -49z"/>
<path d="M863 373 c-34 -2 -66 -10 -72 -17 -6 -7 -13 -40 -15 -72 -2 -33 -20
-105 -40 -163 -20 -57 -36 -108 -36 -113 0 -20 50 -7 67 18 10 14 32 43 50 63
17 20 35 50 39 66 12 48 48 120 78 155 28 34 31 64 6 66 -8 0 -43 -1 -77 -3z"/>
<path d="M1310 272 c-70 -34 -48 -91 57 -143 52 -25 84 -34 138 -37 62 -3 71
-1 82 16 15 25 -3 44 -46 47 -16 1 -38 12 -50 24 -11 11 -25 21 -31 21 -5 0
-32 20 -60 45 -28 25 -52 45 -53 45 -1 -1 -18 -9 -37 -18z"/>
</g>
</svg>
