<?xml version="1.0" standalone="no"?>
<!DOCTYPE svg PUBLIC "-//W3C//DTD SVG 20010904//EN"
 "http://www.w3.org/TR/2001/REC-SVG-20010904/DTD/svg10.dtd">
<svg version="1.0" xmlns="http://www.w3.org/2000/svg"
 width="207.000000pt" height="208.000000pt" viewBox="0 0 207.000000 208.000000"
 preserveAspectRatio="xMidYMid meet">
<metadata>
Created by potrace 1.16, written by Peter Selinger 2001-2019
</metadata>
<g transform="translate(0.000000,208.000000) scale(0.100000,-0.100000)"
fill="#000000" stroke="none">
<path d="M1160 1978 c-81 -67 -134 -107 -143 -107 -13 -1 -119 -94 -219 -191
-48 -47 -115 -105 -148 -130 -67 -49 -78 -73 -61 -130 27 -91 10 -218 -74
-564 -25 -104 -44 -195 -41 -202 9 -24 25 -16 56 29 16 23 34 47 39 53 9 10
32 83 48 151 6 27 31 44 113 77 35 14 96 48 137 76 68 46 133 80 154 80 5 0 7
-11 3 -25 -3 -14 -2 -31 3 -38 5 -6 10 -24 11 -38 3 -23 -2 -27 -60 -43 -64
-18 -91 -29 -118 -45 -8 -5 -41 -14 -72 -21 -77 -15 -122 -47 -126 -87 -3 -28
1 -33 23 -39 26 -6 147 27 219 61 42 20 116 45 131 45 7 0 20 -29 29 -67 10
-37 22 -73 28 -80 19 -23 3 -31 -119 -63 -273 -70 -317 -83 -328 -91 -5 -4
-41 -14 -80 -23 -38 -8 -105 -24 -149 -35 -43 -12 -86 -21 -95 -21 -28 0 -91
-59 -91 -85 0 -27 43 -65 74 -65 11 0 35 9 51 20 17 11 38 20 49 20 10 0 33 8
50 19 17 10 49 22 71 25 38 7 115 30 160 47 11 4 36 12 55 18 19 5 64 19 100
30 36 10 83 23 105 27 22 4 55 13 73 21 18 7 67 22 110 33 42 10 97 26 121 35
24 9 64 18 90 22 37 4 264 93 280 109 10 9 3 75 -9 89 -16 19 -47 12 -134 -31
-38 -19 -85 -38 -105 -43 -20 -5 -69 -18 -108 -29 -40 -11 -74 -18 -77 -14 -2
4 -11 40 -20 81 -17 75 -12 101 20 101 8 0 14 10 14 25 0 17 -9 29 -30 40 -27
14 -30 21 -30 61 0 34 6 54 24 74 25 31 43 107 27 123 -5 5 -20 10 -33 11 -22
1 -23 4 -20 66 2 36 10 78 18 94 7 16 11 33 7 40 -10 15 -4 147 9 226 10 60
22 98 37 110 13 11 44 107 49 149 4 43 -6 60 -35 61 -6 0 -35 -19 -63 -42z
m-94 -294 c-7 -60 -14 -129 -14 -153 -1 -24 -7 -50 -14 -56 -7 -7 -58 -18
-113 -25 -55 -7 -122 -22 -148 -33 -26 -11 -50 -17 -54 -14 -8 9 16 37 31 37
7 0 22 9 34 20 18 17 20 25 12 41 -6 11 -8 25 -4 32 7 12 82 92 134 142 35 35
144 124 148 121 1 -2 -4 -52 -12 -112z m-31 -314 c4 -6 3 -39 0 -74 -6 -58 -9
-64 -38 -78 -18 -8 -75 -36 -127 -62 -164 -83 -172 -86 -187 -86 -13 0 -14 8
-9 43 4 23 13 78 19 122 l12 80 45 1 c25 0 70 8 100 17 164 49 176 52 185 37z"/>
<path d="M727 234 c-4 -4 -46 -8 -93 -8 -78 -1 -88 -3 -105 -25 -12 -15 -17
-31 -13 -40 4 -9 9 -49 12 -88 l4 -73 49 0 c49 0 49 0 49 34 0 63 16 89 68
110 72 30 93 46 90 70 -3 21 -46 35 -61 20z"/>
<path d="M1215 232 c-6 -5 -29 -14 -51 -20 -132 -38 -44 -142 158 -188 53 -12
72 -13 83 -4 8 6 19 9 26 5 6 -5 21 5 34 21 30 38 17 54 -44 54 -51 0 -141 26
-153 44 -4 6 -8 27 -8 47 0 24 -5 39 -16 43 -20 8 -18 8 -29 -2z"/>
</g>
</svg>
