<?xml version="1.0" standalone="no"?>
<!DOCTYPE svg PUBLIC "-//W3C//DTD SVG 20010904//EN"
 "http://www.w3.org/TR/2001/REC-SVG-20010904/DTD/svg10.dtd">
<svg version="1.0" xmlns="http://www.w3.org/2000/svg"
 width="208.000000pt" height="210.000000pt" viewBox="0 0 208.000000 210.000000"
 preserveAspectRatio="xMidYMid meet">
<metadata>
Created by potrace 1.16, written by Peter Selinger 2001-2019
</metadata>
<g transform="translate(0.000000,210.000000) scale(0.100000,-0.100000)"
fill="#000000" stroke="none">
<path d="M1320 2093 c-8 -3 -24 -14 -35 -23 -22 -19 -50 -35 -165 -91 -106
-52 -146 -69 -160 -69 -7 0 -55 -18 -106 -40 -52 -22 -110 -40 -129 -40 -21 0
-52 -11 -76 -26 -33 -20 -40 -30 -37 -52 2 -17 12 -31 30 -40 41 -19 105 -2
318 88 25 10 57 21 72 24 15 3 33 12 40 19 7 7 36 22 63 32 28 10 61 27 74 37
13 10 27 18 32 18 4 0 44 23 88 50 44 28 86 50 92 50 6 0 8 -11 5 -27 -3 -16
-8 -66 -11 -113 -7 -99 -20 -215 -41 -355 -8 -55 -17 -116 -19 -135 -8 -61
-23 -113 -37 -122 -26 -17 -70 -39 -73 -36 -1 2 -12 22 -24 46 -42 83 -144
129 -186 82 -19 -21 -19 -22 35 -92 l20 -26 -66 -37 c-37 -21 -85 -50 -108
-65 -36 -24 -155 -90 -163 -90 -4 0 6 43 27 117 12 42 29 73 54 99 41 42 45
59 16 74 -15 8 -26 7 -45 -6 -14 -9 -28 -14 -31 -11 -3 3 7 13 23 23 15 10 46
33 69 51 23 18 44 33 47 33 3 0 28 16 57 35 29 19 57 35 64 35 7 0 18 6 24 13
7 6 39 26 70 42 60 32 73 58 40 79 -13 8 -26 7 -50 -3 -18 -7 -71 -27 -118
-43 -47 -17 -89 -37 -93 -44 -4 -8 -13 -14 -19 -14 -6 0 -26 -11 -43 -24 -18
-14 -44 -28 -58 -31 -14 -4 -31 -13 -38 -21 -6 -8 -17 -14 -23 -14 -7 0 -36
-20 -65 -45 -29 -25 -56 -45 -60 -45 -4 0 -13 -11 -19 -25 -18 -40 2 -74 51
-82 36 -5 38 -8 33 -32 -3 -14 -10 -62 -16 -106 -6 -44 -13 -88 -16 -97 -5
-15 -82 -58 -105 -58 -5 0 -33 -16 -64 -35 -62 -40 -71 -69 -33 -105 27 -25
44 -25 93 0 22 11 41 20 43 20 3 0 2 -30 0 -67 -5 -62 -66 -270 -87 -297 -4
-6 -18 -37 -29 -70 -12 -32 -30 -65 -41 -73 -12 -8 -21 -18 -21 -23 0 -13 30
-40 44 -40 18 0 106 89 106 106 0 13 46 94 53 94 2 0 1 -16 -1 -35 -14 -119
31 -173 164 -201 43 -8 115 -17 159 -19 131 -4 344 13 430 35 44 11 87 22 95
24 57 14 105 29 119 35 9 5 41 16 71 26 30 9 74 29 97 44 23 16 66 41 96 56
60 32 78 64 67 120 -6 33 -59 75 -97 75 -13 0 -47 14 -76 30 -30 17 -60 30
-68 30 -8 0 -31 9 -50 19 -73 39 -224 69 -224 44 0 -6 45 -35 100 -63 55 -29
114 -60 130 -69 51 -27 125 -84 125 -95 -1 -17 -23 -40 -50 -52 -65 -30 -99
-44 -116 -47 -11 -2 -46 -17 -79 -32 -36 -17 -82 -29 -114 -31 -30 -2 -68 -6
-84 -10 l-30 -6 7 128 c12 210 19 256 39 265 9 5 25 13 35 18 30 14 26 44 -9
64 l-32 18 7 97 c3 53 2 124 -3 156 -9 67 -8 68 78 131 47 34 115 130 107 151
-3 8 -12 14 -20 14 -15 0 -15 12 0 86 10 55 46 305 50 354 5 70 32 163 61 217
13 23 23 44 23 47 0 8 -260 6 -280 -1z m-180 -901 c0 -19 -28 -44 -45 -41 -18
4 -18 6 5 27 24 23 40 28 40 14z m58 -173 c2 -30 1 -82 -3 -116 l-7 -63 -66 0
c-82 0 -116 -15 -120 -54 -3 -23 5 -37 35 -66 21 -20 53 -53 71 -73 18 -21 39
-37 47 -37 12 0 14 -9 10 -37 -3 -21 -7 -56 -9 -78 -2 -21 -8 -41 -13 -42 -6
-2 -35 23 -66 57 -31 33 -61 60 -66 60 -19 0 -82 63 -99 99 -10 20 -25 36 -34
36 -20 0 -80 -73 -76 -94 2 -9 30 -33 63 -55 65 -43 215 -193 215 -215 0 -23
-283 -11 -335 14 -34 17 -40 25 -43 55 -2 20 4 67 12 105 9 39 23 121 31 183
17 117 13 142 -21 142 -40 0 22 107 78 136 29 15 31 15 57 -10 15 -14 35 -26
44 -26 9 0 55 23 103 50 48 28 93 50 100 50 7 0 16 5 19 11 8 13 46 29 60 25
6 -1 11 -27 13 -57z"/>
<path d="M498 1767 c-32 -25 -37 -65 -42 -312 -5 -199 -3 -245 8 -245 38 0 76
106 96 265 6 50 16 130 24 178 9 63 10 92 2 102 -16 21 -68 28 -88 12z"/>
</g>
</svg>
