<?xml version="1.0" standalone="no"?>
<!DOCTYPE svg PUBLIC "-//W3C//DTD SVG 20010904//EN"
 "http://www.w3.org/TR/2001/REC-SVG-20010904/DTD/svg10.dtd">
<svg version="1.0" xmlns="http://www.w3.org/2000/svg"
 width="206.000000pt" height="211.000000pt" viewBox="0 0 206.000000 211.000000"
 preserveAspectRatio="xMidYMid meet">
<metadata>
Created by potrace 1.16, written by Peter Selinger 2001-2019
</metadata>
<g transform="translate(0.000000,211.000000) scale(0.100000,-0.100000)"
fill="#000000" stroke="none">
<path d="M1370 2044 c-19 -8 -38 -20 -41 -26 -4 -7 -8 -91 -9 -187 0 -97 -5
-206 -10 -244 -4 -37 -6 -75 -3 -85 2 -10 -2 -23 -9 -28 -21 -17 -129 -54
-138 -49 -16 10 -61 -19 -67 -44 -8 -32 16 -75 46 -79 13 -2 45 6 71 17 85 37
83 39 76 -106 -3 -71 -16 -187 -28 -260 l-22 -131 -50 -31 c-93 -55 -205 -111
-226 -111 -18 0 -19 5 -13 47 3 27 9 53 14 58 16 21 22 208 9 285 -7 41 -16
97 -19 123 -6 45 -9 50 -52 75 -44 25 -48 25 -72 10 -38 -26 -43 -65 -13 -97
23 -24 46 -70 46 -91 0 -5 -24 -26 -53 -47 -60 -43 -230 -224 -280 -298 -99
-146 -122 -184 -138 -232 -24 -66 -24 -74 2 -107 25 -31 66 -34 100 -7 19 15
24 29 24 68 0 26 8 62 17 78 9 17 30 57 48 90 18 33 39 72 47 88 8 15 18 27
22 27 3 0 14 12 23 27 9 16 28 40 41 54 14 14 28 35 31 47 4 12 16 27 27 32
10 6 19 16 19 23 0 7 8 20 18 29 9 9 25 28 36 43 11 16 22 23 27 18 5 -5 10
-92 10 -193 l1 -185 -35 -22 c-19 -12 -37 -28 -40 -36 -8 -22 15 -61 47 -75
23 -12 30 -12 45 2 9 8 50 31 91 51 41 20 104 54 140 75 36 22 69 40 73 40 16
0 -8 -407 -25 -427 -12 -15 -36 -152 -30 -175 6 -24 31 -31 56 -15 42 28 80
190 106 457 5 58 10 115 10 127 0 13 6 22 13 20 6 -1 12 8 12 20 0 11 3 25 8
29 4 4 7 15 7 25 0 34 22 67 57 86 35 18 63 58 63 89 0 14 -7 16 -36 11 -35
-6 -36 -5 -29 21 3 15 17 38 29 52 13 14 33 54 46 90 25 70 111 249 140 290
10 14 23 44 30 68 8 23 19 47 27 53 7 6 13 16 13 21 0 5 27 35 60 68 65 64 77
86 76 140 -1 24 -6 36 -18 38 -18 3 -87 -40 -134 -83 -56 -52 -256 -167 -267
-154 -2 2 3 90 11 194 22 270 22 304 -3 321 -17 10 -26 10 -55 -2z m180 -584
c0 -9 -25 -57 -77 -150 -11 -19 -33 -69 -49 -110 l-29 -75 -3 40 c-5 51 17
205 29 205 5 0 9 9 9 19 0 12 18 31 48 49 49 32 72 39 72 22z"/>
<path d="M558 1358 c-9 -7 -18 -25 -22 -40 -5 -22 -1 -33 19 -50 15 -13 36
-25 48 -28 13 -4 24 -17 29 -38 18 -68 64 -1 60 88 -2 65 -17 80 -77 80 -23 0
-48 -6 -57 -12z"/>
</g>
</svg>
