<?xml version="1.0" standalone="no"?>
<!DOCTYPE svg PUBLIC "-//W3C//DTD SVG 20010904//EN"
 "http://www.w3.org/TR/2001/REC-SVG-20010904/DTD/svg10.dtd">
<svg version="1.0" xmlns="http://www.w3.org/2000/svg"
 width="207.000000pt" height="213.000000pt" viewBox="0 0 207.000000 213.000000"
 preserveAspectRatio="xMidYMid meet">
<metadata>
Created by potrace 1.16, written by Peter Selinger 2001-2019
</metadata>
<g transform="translate(0.000000,213.000000) scale(0.100000,-0.100000)"
fill="#000000" stroke="none">
<path d="M694 1970 c-44 -17 -47 -31 -49 -237 -2 -194 -3 -197 -26 -215 -45
-34 -59 -52 -59 -75 0 -24 14 -31 25 -13 9 15 35 12 35 -4 0 -7 -10 -16 -22
-19 -18 -5 -19 -8 -8 -21 7 -9 23 -16 36 -16 20 0 24 -7 34 -57 6 -32 17 -83
25 -114 8 -30 15 -60 15 -65 0 -17 -67 -46 -201 -89 -92 -30 -140 -51 -164
-73 -42 -36 -44 -54 -9 -81 43 -34 59 -34 112 -1 27 16 55 30 62 30 7 0 38 11
69 24 86 36 132 49 141 40 5 -5 12 -50 16 -100 7 -90 -13 -282 -38 -362 -23
-75 -6 -132 44 -148 46 -14 138 107 138 183 0 41 -23 53 -52 27 -21 -19 -21
-19 -15 6 18 75 29 216 24 300 -8 124 5 156 77 194 28 15 87 46 131 69 47 24
107 68 145 104 55 53 63 64 54 80 -16 25 -62 29 -88 6 -34 -30 -98 -69 -136
-82 -19 -6 -52 -23 -72 -36 -21 -14 -43 -25 -49 -25 -7 0 -20 -7 -29 -15 -9
-8 -27 -16 -40 -17 -21 -3 -25 3 -37 60 -7 35 -15 78 -17 95 -3 18 -8 50 -12
73 -5 34 -2 44 17 66 13 14 47 33 74 43 75 26 153 73 160 96 9 29 -12 49 -53
49 -35 0 -109 -18 -127 -31 -5 -3 -24 -10 -42 -13 -28 -7 -32 -5 -37 21 -5 25
1 83 20 183 3 19 13 40 21 47 19 15 12 49 -17 85 -22 29 -47 38 -76 28z"/>
<path d="M445 593 c-4 -16 -8 -71 -9 -123 -2 -82 -7 -105 -34 -167 -18 -40
-41 -108 -51 -153 -11 -44 -29 -96 -41 -115 l-22 -35 124 0 125 0 79 43 c43
24 106 60 139 79 33 20 85 46 115 59 30 12 60 26 65 30 15 11 118 49 133 49 9
0 12 -33 12 -130 l0 -130 44 0 c42 0 44 1 50 37 3 21 6 65 6 98 1 41 8 75 23
105 22 44 23 45 65 42 41 -4 42 -3 42 26 0 38 -16 50 -73 58 -28 4 -49 13 -53
23 -4 9 -8 58 -8 109 -2 99 -12 120 -47 101 -10 -5 -28 -9 -41 -9 -57 0 -88
-72 -49 -114 18 -20 41 -77 41 -101 0 -6 -26 -16 -57 -22 -32 -6 -87 -24 -123
-41 -36 -16 -90 -40 -120 -53 -30 -12 -59 -28 -65 -34 -17 -18 -131 -82 -168
-94 -19 -7 -47 -23 -62 -36 -14 -14 -31 -25 -37 -25 -14 0 -1 88 17 115 13 22
47 136 64 215 5 25 17 73 25 107 9 34 13 70 9 78 -7 20 -44 35 -83 35 -22 0
-29 -6 -35 -27z m265 -438 c0 -8 -4 -15 -10 -15 -5 0 -10 7 -10 15 0 8 5 15
10 15 6 0 10 -7 10 -15z"/>
</g>
</svg>
