<?xml version="1.0" standalone="no"?>
<!DOCTYPE svg PUBLIC "-//W3C//DTD SVG 20010904//EN"
 "http://www.w3.org/TR/2001/REC-SVG-20010904/DTD/svg10.dtd">
<svg version="1.0" xmlns="http://www.w3.org/2000/svg"
 width="207.000000pt" height="211.000000pt" viewBox="0 0 207.000000 211.000000"
 preserveAspectRatio="xMidYMid meet">
<metadata>
Created by potrace 1.16, written by Peter Selinger 2001-2019
</metadata>
<g transform="translate(0.000000,211.000000) scale(0.100000,-0.100000)"
fill="#000000" stroke="none">
<path d="M1376 1870 c-22 -11 -46 -26 -55 -34 -9 -7 -36 -24 -61 -36 -25 -13
-63 -37 -85 -55 -22 -17 -73 -50 -112 -73 -83 -46 -86 -45 -99 39 -8 54 -17
72 -63 127 -38 46 -76 55 -105 26 -25 -24 -19 -51 24 -111 22 -31 40 -63 40
-72 0 -9 7 -36 16 -60 14 -40 13 -45 -2 -62 -9 -11 -21 -19 -26 -19 -24 0
-149 -100 -178 -143 -28 -40 -32 -51 -22 -71 26 -58 130 -30 175 47 27 45 61
77 82 77 16 0 40 -257 26 -273 -5 -7 -54 -34 -108 -62 -54 -27 -99 -53 -101
-57 -2 -5 -10 -8 -17 -8 -7 0 -15 -3 -17 -8 -1 -4 -30 -15 -63 -25 -79 -24
-164 -57 -192 -75 -30 -19 -29 -53 2 -80 27 -23 45 -27 60 -14 6 5 30 14 55
21 46 13 136 51 180 76 54 31 191 97 194 94 2 -2 11 -78 20 -169 9 -91 21
-209 27 -263 13 -112 13 -112 -61 -141 -25 -10 -62 -26 -84 -37 -21 -10 -42
-17 -45 -14 -16 9 8 159 32 205 36 69 43 108 21 117 -12 4 -24 -2 -38 -20 -12
-14 -33 -29 -48 -32 -53 -13 -59 -31 -67 -197 -8 -147 -15 -188 -31 -188 -11
0 -82 -71 -107 -108 -17 -25 -20 -38 -13 -56 10 -28 21 -36 55 -42 36 -6 59 9
97 65 18 27 58 71 89 98 57 51 211 137 223 126 3 -3 6 -15 6 -25 0 -28 30 -68
51 -68 20 0 22 7 19 52 -1 16 6 45 15 66 14 31 29 44 84 70 65 31 153 62 179
62 14 0 12 -32 -13 -195 -27 -177 -29 -228 -8 -254 14 -18 24 -21 46 -16 33 9
30 -5 78 332 12 89 50 179 79 188 31 10 24 32 -15 46 -43 16 -44 32 -5 71 17
16 33 41 36 54 6 23 4 24 -42 23 -27 0 -62 0 -78 0 -63 1 -77 -25 -55 -103 6
-22 7 -42 2 -47 -5 -5 -36 -14 -68 -19 -33 -6 -69 -14 -80 -19 -11 -5 -36 -15
-55 -23 -19 -9 -50 -19 -68 -22 -27 -6 -32 -5 -32 11 0 10 -7 88 -15 173 -8
85 -16 204 -17 264 l-1 110 34 28 c19 16 61 47 94 69 153 100 154 101 155 142
0 26 -5 40 -16 44 -22 8 -113 -42 -240 -132 -24 -17 -31 10 -39 138 -8 137
-12 130 92 183 29 15 54 33 57 41 3 7 16 18 28 23 13 6 58 32 101 60 53 34 89
50 111 50 52 0 99 67 76 110 -14 26 -61 26 -114 0z"/>
</g>
</svg>
