<?xml version="1.0" standalone="no"?>
<!DOCTYPE svg PUBLIC "-//W3C//DTD SVG 20010904//EN"
 "http://www.w3.org/TR/2001/REC-SVG-20010904/DTD/svg10.dtd">
<svg version="1.0" xmlns="http://www.w3.org/2000/svg"
 width="209.000000pt" height="211.000000pt" viewBox="0 0 209.000000 211.000000"
 preserveAspectRatio="xMidYMid meet">
<metadata>
Created by potrace 1.16, written by Peter Selinger 2001-2019
</metadata>
<g transform="translate(0.000000,211.000000) scale(0.100000,-0.100000)"
fill="#000000" stroke="none">
<path d="M933 1876 c-43 -41 -50 -56 -113 -226 -15 -41 -37 -95 -49 -120 -12
-25 -45 -101 -72 -170 -55 -136 -182 -395 -223 -456 -52 -76 -25 -99 39 -34
36 37 43 40 76 35 34 -6 72 10 124 53 22 18 126 82 167 103 24 12 45 25 48 28
3 4 34 25 70 46 36 21 81 51 101 67 20 15 40 28 44 28 3 0 38 20 76 45 74 48
95 55 85 28 -9 -23 -36 -258 -36 -313 0 -25 -11 -126 -25 -224 -14 -99 -25
-196 -25 -216 0 -21 -6 -52 -13 -69 l-13 -31 -20 22 c-28 31 -66 107 -104 208
-17 47 -40 104 -51 126 -16 33 -21 63 -21 143 0 56 -5 104 -10 107 -5 3 -26 3
-47 -1 -36 -6 -40 -10 -51 -53 -6 -26 -22 -83 -35 -127 -13 -44 -33 -120 -44
-170 -11 -49 -30 -121 -41 -160 -11 -38 -32 -117 -46 -175 -14 -57 -39 -133
-56 -167 -16 -35 -28 -68 -26 -73 8 -24 74 28 100 79 15 29 34 59 43 67 8 9
18 27 21 42 13 56 42 158 54 187 6 17 22 72 36 124 19 76 64 181 78 181 7 0
45 -120 56 -179 12 -67 53 -171 123 -311 46 -93 62 -111 92 -107 25 3 43 71
44 166 1 36 17 182 35 325 19 144 40 315 46 381 15 157 30 218 71 285 28 47
33 64 34 120 0 63 -1 65 -23 62 -24 -4 -80 -42 -161 -110 -24 -20 -56 -43 -70
-50 -23 -12 -116 -72 -305 -194 -32 -21 -62 -38 -67 -38 -5 0 -41 -18 -80 -40
-39 -22 -73 -40 -75 -40 -9 0 -3 35 9 49 15 17 117 251 117 267 0 5 8 25 19
44 10 19 33 71 51 115 19 44 61 125 95 180 88 141 90 165 21 178 -24 4 -37 -2
-73 -37z"/>
<path d="M1167 1762 c-23 -26 -21 -46 10 -100 25 -45 38 -85 50 -159 4 -23 11
-33 23 -33 60 0 63 139 6 273 -13 30 -21 37 -45 37 -15 0 -35 -8 -44 -18z"/>
</g>
</svg>
