<?xml version="1.0" standalone="no"?>
<!DOCTYPE svg PUBLIC "-//W3C//DTD SVG 20010904//EN"
 "http://www.w3.org/TR/2001/REC-SVG-20010904/DTD/svg10.dtd">
<svg version="1.0" xmlns="http://www.w3.org/2000/svg"
 width="207.000000pt" height="211.000000pt" viewBox="0 0 207.000000 211.000000"
 preserveAspectRatio="xMidYMid meet">
<metadata>
Created by potrace 1.16, written by Peter Selinger 2001-2019
</metadata>
<g transform="translate(0.000000,211.000000) scale(0.100000,-0.100000)"
fill="#000000" stroke="none">
<path d="M1495 2038 c-16 -17 -45 -39 -65 -49 -19 -11 -54 -34 -76 -52 -23
-18 -54 -40 -70 -49 -38 -23 -165 -118 -207 -155 -99 -87 -143 -179 -97 -203
11 -6 20 -15 20 -19 0 -5 -32 -25 -72 -45 -39 -20 -87 -49 -107 -65 -58 -45
-171 -114 -178 -107 -3 3 -8 28 -11 56 l-5 50 35 0 c34 0 58 14 58 34 0 25
-68 55 -130 57 -53 2 -64 -1 -85 -22 l-24 -24 18 -60 c11 -34 22 -82 26 -107
6 -42 5 -47 -17 -53 -12 -4 -33 -19 -46 -32 -16 -18 -30 -23 -45 -19 -15 3
-32 -2 -51 -19 -22 -19 -27 -30 -24 -62 2 -30 9 -41 32 -52 38 -18 131 1 149
30 33 52 46 -4 38 -166 -4 -92 -47 -312 -76 -389 -14 -38 -32 -96 -39 -130
-16 -72 -51 -204 -61 -228 -8 -19 34 -68 59 -68 22 0 57 52 122 180 31 63 70
140 85 170 16 30 29 60 29 65 1 14 85 148 140 224 61 85 117 147 126 139 6 -6
-5 -58 -50 -238 -26 -101 -32 -150 -36 -305 -2 -60 -8 -120 -14 -133 -6 -16
-6 -26 2 -34 21 -21 68 109 102 286 22 109 57 223 73 233 14 8 35 -23 48 -71
17 -62 96 -233 132 -283 18 -25 54 -69 80 -97 26 -28 63 -74 82 -102 42 -63
58 -76 87 -72 38 5 50 78 37 213 -15 149 -15 1325 0 1420 19 120 34 175 46
175 15 0 45 76 52 129 11 79 -36 104 -92 49z m-80 -205 c-5 -10 -15 -49 -23
-88 -13 -58 -15 -184 -16 -762 -1 -381 -4 -693 -8 -693 -5 0 -12 0 -18 0 -19
0 -89 81 -101 118 -6 20 -19 44 -28 53 -28 27 -121 221 -141 297 -21 77 -19
144 6 173 8 8 23 51 34 94 19 76 32 102 58 118 17 11 15 47 -2 47 -8 0 -18 -5
-21 -10 -5 -8 -11 -8 -20 0 -10 8 -23 6 -51 -7 -29 -13 -46 -32 -69 -75 -19
-36 -64 -89 -122 -145 -94 -90 -181 -195 -243 -292 -40 -63 -47 -55 -27 26 8
32 20 108 27 168 6 61 16 143 21 183 5 40 9 94 9 120 0 47 1 49 41 66 44 20
163 111 314 241 22 19 43 35 48 35 4 0 7 8 7 19 0 10 12 26 26 36 20 13 24 22
20 41 -9 36 3 52 98 129 47 38 86 72 86 77 0 4 5 8 11 8 6 0 22 9 36 20 33 25
58 27 48 3z m-745 -1253 c0 -5 -4 -10 -10 -10 -5 0 -10 5 -10 10 0 6 5 10 10
10 6 0 10 -4 10 -10z"/>
</g>
</svg>
