<?xml version="1.0" standalone="no"?>
<!DOCTYPE svg PUBLIC "-//W3C//DTD SVG 20010904//EN"
 "http://www.w3.org/TR/2001/REC-SVG-20010904/DTD/svg10.dtd">
<svg version="1.0" xmlns="http://www.w3.org/2000/svg"
 width="208.000000pt" height="207.000000pt" viewBox="0 0 208.000000 207.000000"
 preserveAspectRatio="xMidYMid meet">
<metadata>
Created by potrace 1.16, written by Peter Selinger 2001-2019
</metadata>
<g transform="translate(0.000000,207.000000) scale(0.100000,-0.100000)"
fill="#000000" stroke="none">
<path d="M1538 1923 c-42 -47 -56 -281 -44 -733 3 -100 -1 -195 -10 -270 -10
-77 -13 -167 -10 -274 4 -146 -9 -304 -28 -335 -4 -5 -32 -13 -64 -16 -84 -11
-261 -69 -302 -101 -8 -6 -37 -19 -65 -29 -69 -24 -92 -35 -148 -73 -27 -17
-55 -32 -63 -32 -22 0 -94 -39 -94 -50 0 -13 9 -12 100 5 106 20 249 65 275
84 40 32 270 84 362 83 l62 -1 24 42 c34 59 49 186 52 442 1 116 6 257 11 315
5 58 8 152 7 210 -4 246 -3 511 1 518 2 4 9 52 15 106 13 110 8 126 -39 126
-15 0 -34 -8 -42 -17z m-8 -1535 c0 -18 -2 -20 -9 -8 -6 8 -7 18 -5 22 9 14
14 9 14 -14z"/>
<path d="M842 1827 c-6 -7 -30 -64 -52 -127 -53 -147 -94 -243 -131 -303 -16
-26 -29 -49 -29 -51 0 -5 -71 -110 -135 -201 -38 -54 -42 -65 -21 -65 15 0
146 133 190 195 17 22 40 51 53 65 38 40 69 89 116 180 24 47 54 101 65 120
12 19 22 42 22 52 0 9 20 28 44 42 28 16 46 35 50 52 9 33 6 35 -51 45 -72 12
-109 10 -121 -4z"/>
<path d="M880 1537 c-19 -9 -25 -21 -27 -47 -6 -101 -14 -207 -18 -225 -2 -12
-31 -36 -69 -58 -35 -21 -84 -52 -107 -70 -24 -17 -60 -40 -79 -50 -59 -30
-80 -44 -108 -70 -15 -13 -38 -28 -50 -32 -13 -4 -31 -13 -40 -21 -45 -39
-105 -84 -112 -84 -5 0 -35 -22 -67 -48 -32 -27 -70 -56 -85 -66 -29 -19 -35
-44 -18 -77 15 -27 64 -25 87 4 10 13 43 40 73 60 30 20 80 56 110 81 30 25
68 53 83 61 43 25 159 106 208 146 50 41 135 90 142 82 7 -6 -22 -104 -35
-120 -6 -7 -44 -29 -85 -49 -124 -59 -279 -203 -339 -311 -20 -38 -50 -87 -66
-110 -24 -35 -27 -46 -18 -63 16 -29 27 -25 80 29 26 26 51 50 56 52 5 2 19
19 30 37 45 72 199 228 262 266 67 40 81 41 63 7 -7 -11 -20 -60 -30 -108 -11
-49 -24 -101 -30 -118 -14 -38 -53 -299 -58 -388 -5 -75 6 -100 41 -95 37 5
45 38 102 383 9 50 19 94 25 100 5 5 9 24 9 42 0 49 19 83 47 83 13 0 46 12
73 26 91 47 85 87 -12 82 l-53 -3 3 40 c10 120 103 385 135 385 8 0 22 9 31
19 24 26 5 36 -39 20 -19 -7 -37 -10 -40 -7 -4 3 -2 23 4 45 15 52 13 144 -3
166 -16 20 -41 22 -76 4z"/>
<path d="M1150 1370 c-24 -24 -24 -29 -4 -100 11 -40 15 -100 15 -215 0 -148
1 -163 22 -200 14 -25 31 -41 45 -43 12 -2 23 0 24 5 3 18 7 167 9 340 2 155
-1 186 -15 208 -20 31 -67 34 -96 5z"/>
</g>
</svg>
