<?xml version="1.0" standalone="no"?>
<!DOCTYPE svg PUBLIC "-//W3C//DTD SVG 20010904//EN"
 "http://www.w3.org/TR/2001/REC-SVG-20010904/DTD/svg10.dtd">
<svg version="1.0" xmlns="http://www.w3.org/2000/svg"
 width="208.000000pt" height="208.000000pt" viewBox="0 0 208.000000 208.000000"
 preserveAspectRatio="xMidYMid meet">
<metadata>
Created by potrace 1.16, written by Peter Selinger 2001-2019
</metadata>
<g transform="translate(0.000000,208.000000) scale(0.100000,-0.100000)"
fill="#000000" stroke="none">
<path d="M1479 1888 c-9 -7 -24 -47 -35 -88 -16 -63 -19 -107 -18 -275 1 -110
7 -222 13 -250 16 -67 24 -588 14 -855 l-8 -215 -247 4 c-260 3 -322 -4 -316
-37 2 -12 28 -20 108 -34 58 -9 128 -17 155 -17 28 0 64 -3 80 -5 17 -3 62 -8
100 -11 39 -3 94 -16 123 -28 53 -21 54 -21 68 -2 8 10 14 31 14 45 0 14 4 30
9 36 6 5 12 199 16 449 5 364 4 472 -10 625 -9 102 -18 212 -20 245 -5 77 12
285 25 300 16 19 28 91 18 109 -11 19 -67 22 -89 4z"/>
<path d="M705 1850 c-11 -5 -47 -17 -80 -28 -75 -25 -260 -97 -300 -117 -16
-8 -54 -23 -84 -33 -33 -10 -62 -27 -74 -43 -17 -24 -18 -30 -6 -63 11 -29 18
-36 40 -36 15 0 31 5 35 11 6 10 106 59 121 59 4 0 -2 -10 -13 -22 -35 -40
-44 -76 -55 -231 -10 -137 -20 -197 -60 -361 -11 -48 -11 -51 15 -73 15 -13
31 -23 35 -23 9 0 60 52 75 78 11 19 75 107 144 196 20 26 56 68 80 93 23 24
42 49 42 55 0 6 32 44 70 84 39 39 70 79 70 88 0 9 6 16 14 16 8 0 23 11 33
24 10 13 29 27 42 31 22 7 23 5 16 -27 -4 -18 -13 -40 -20 -48 -7 -8 -22 -40
-33 -70 -11 -30 -30 -80 -41 -110 -41 -108 -23 -117 60 -29 38 39 62 74 69 99
6 22 23 63 37 92 44 88 35 198 -17 198 -44 0 -196 -88 -208 -121 -4 -9 -60
-74 -126 -143 -65 -69 -135 -149 -155 -178 -57 -81 -65 -77 -57 28 4 49 14
125 23 169 15 70 22 85 57 120 23 23 54 49 70 59 26 16 28 22 23 63 -4 35 -1
46 12 51 13 5 179 99 189 108 6 4 -9 44 -16 43 -4 0 -16 -4 -27 -9z"/>
<path d="M1045 1309 c-30 -25 -30 -37 5 -199 26 -122 50 -263 50 -292 0 -14 8
-36 19 -49 15 -19 21 -21 33 -11 23 19 29 127 12 233 -8 52 -19 141 -24 198
-13 137 -35 166 -95 120z"/>
<path d="M483 1045 c-50 -21 -50 -23 -38 -215 l5 -76 -58 -34 c-31 -19 -78
-49 -104 -67 -26 -18 -77 -47 -112 -63 -36 -17 -79 -44 -96 -60 -18 -17 -36
-30 -40 -30 -22 0 -40 -35 -40 -76 l0 -44 40 0 c51 0 88 18 105 49 7 15 38 39
69 54 31 16 59 34 63 40 18 28 149 101 158 88 5 -9 3 -40 -9 -161 -6 -56 -24
-149 -32 -162 -16 -26 -12 -64 10 -92 22 -26 25 -27 48 -15 70 39 133 89 223
177 55 53 116 111 135 129 48 44 66 66 118 142 24 36 53 75 63 87 12 12 17 28
13 37 -7 20 -34 23 -34 4 0 -15 -123 -134 -230 -222 -40 -33 -101 -86 -136
-117 -35 -32 -68 -58 -74 -58 -13 0 -13 47 1 168 16 150 26 178 84 228 61 52
138 107 187 134 50 27 108 86 108 110 0 27 -26 25 -75 -5 -22 -14 -72 -41
-111 -60 -39 -19 -94 -53 -121 -75 -28 -22 -53 -37 -57 -33 -14 14 -6 135 11
163 13 23 14 32 4 43 -18 22 -45 26 -78 12z m-173 -435 c0 -5 -4 -10 -10 -10
-5 0 -10 5 -10 10 0 6 5 10 10 10 6 0 10 -4 10 -10z"/>
</g>
</svg>
