<?xml version="1.0" standalone="no"?>
<!DOCTYPE svg PUBLIC "-//W3C//DTD SVG 20010904//EN"
 "http://www.w3.org/TR/2001/REC-SVG-20010904/DTD/svg10.dtd">
<svg version="1.0" xmlns="http://www.w3.org/2000/svg"
 width="206.000000pt" height="208.000000pt" viewBox="0 0 206.000000 208.000000"
 preserveAspectRatio="xMidYMid meet">
<metadata>
Created by potrace 1.16, written by Peter Selinger 2001-2019
</metadata>
<g transform="translate(0.000000,208.000000) scale(0.100000,-0.100000)"
fill="#000000" stroke="none">
<path d="M562 1953 c-25 -10 -60 -101 -82 -213 -12 -63 -33 -158 -47 -210 -71
-272 -95 -396 -104 -545 -5 -82 -14 -187 -19 -233 -15 -117 -1 -132 52 -57 18
25 35 45 38 45 3 0 14 -25 24 -55 15 -44 18 -70 12 -139 -7 -98 4 -116 41 -70
57 71 64 113 37 249 -25 125 -27 152 -14 160 6 4 20 -2 31 -14 31 -33 62 -27
93 18 25 36 77 71 105 71 13 0 6 -399 -10 -535 -10 -90 -12 -219 -3 -252 8
-29 41 -39 63 -19 10 9 18 22 19 29 18 264 32 320 81 311 23 -5 32 0 56 32 28
36 94 210 95 247 0 10 9 35 19 55 48 95 92 258 89 332 l-3 65 -34 3 c-30 3
-79 -10 -146 -38 -57 -24 -116 -42 -121 -37 -3 3 -8 32 -11 65 -7 76 17 146
64 185 47 41 57 62 37 82 -13 12 -26 15 -55 10 -36 -6 -39 -5 -40 17 0 12 -2
34 -3 47 -2 16 13 39 51 80 54 56 70 88 59 116 -10 27 -47 16 -88 -25 -22 -22
-44 -40 -49 -40 -5 0 -15 11 -21 25 -12 28 -29 31 -77 14 -30 -11 -31 -13 -29
-66 1 -30 5 -56 9 -59 17 -10 -8 -43 -73 -98 -100 -85 -110 -121 -40 -147 l23
-9 -21 -29 c-11 -17 -29 -33 -40 -36 -11 -4 -32 -23 -46 -43 -28 -42 -29 -50
7 108 12 52 30 121 40 153 11 31 19 63 19 71 0 7 11 33 23 57 13 24 30 69 37
99 7 30 17 62 21 70 17 31 39 93 39 111 0 35 -64 60 -108 42z m162 -769 c7
-80 6 -87 -13 -101 -43 -29 -134 -73 -154 -73 -11 0 -28 -7 -38 -16 -10 -9
-36 -18 -58 -21 l-41 -6 6 64 c6 59 21 139 27 139 2 0 20 -9 41 -20 46 -23 48
-22 135 60 35 33 69 60 76 60 8 0 15 -29 19 -86z m296 -107 c0 -32 -25 -114
-50 -162 -11 -21 -20 -47 -20 -55 0 -9 -3 -20 -7 -23 -4 -4 -14 -38 -24 -75
-23 -87 -57 -164 -72 -159 -21 7 -12 373 11 419 8 18 32 34 75 52 77 31 87 32
87 3z"/>
<path d="M1493 1888 c-12 -6 -27 -26 -33 -45 -16 -48 -17 -209 -2 -423 16
-236 15 -790 -2 -940 -13 -106 -18 -136 -25 -149 -10 -15 -32 -13 -146 12
-100 22 -307 21 -364 -1 -23 -9 -43 -21 -42 -27 0 -5 31 -13 68 -18 37 -4 81
-12 97 -17 16 -6 53 -10 83 -10 85 0 285 -55 332 -91 31 -24 35 -24 55 6 44
68 73 699 51 1145 -6 113 -10 258 -10 322 1 106 3 120 23 145 45 57 55 74 46
82 -15 15 -108 21 -131 9z"/>
<path d="M1253 1220 c-35 -14 -47 -47 -29 -75 9 -14 16 -37 16 -52 0 -15 4
-44 9 -63 5 -19 12 -102 15 -184 2 -82 9 -153 14 -158 16 -16 50 9 56 39 16
75 19 175 13 393 -1 19 1 51 3 70 5 35 5 35 -35 37 -22 1 -50 -2 -62 -7z"/>
</g>
</svg>
