<?xml version="1.0" standalone="no"?>
<!DOCTYPE svg PUBLIC "-//W3C//DTD SVG 20010904//EN"
 "http://www.w3.org/TR/2001/REC-SVG-20010904/DTD/svg10.dtd">
<svg version="1.0" xmlns="http://www.w3.org/2000/svg"
 width="209.000000pt" height="213.000000pt" viewBox="0 0 209.000000 213.000000"
 preserveAspectRatio="xMidYMid meet">
<metadata>
Created by potrace 1.16, written by Peter Selinger 2001-2019
</metadata>
<g transform="translate(0.000000,213.000000) scale(0.100000,-0.100000)"
fill="#000000" stroke="none">
<path d="M1140 2073 c-17 -32 -38 -87 -45 -123 -30 -139 -75 -383 -75 -406 0
-34 -34 -64 -72 -64 -91 -2 -135 -64 -81 -114 24 -22 34 -26 66 -20 32 5 37 3
37 -13 0 -28 -38 -210 -59 -283 -10 -36 -27 -101 -36 -145 -10 -44 -24 -105
-32 -135 -8 -30 -28 -109 -44 -175 -16 -66 -33 -127 -39 -137 -11 -20 -40
-129 -40 -153 0 -28 25 -2 49 53 12 26 30 63 41 82 36 69 99 237 125 335 15
55 32 106 37 113 17 20 44 14 63 -14 24 -36 47 -64 74 -88 13 -12 36 -39 51
-61 15 -22 58 -69 95 -105 110 -106 135 -133 135 -147 0 -15 32 -33 59 -33 30
0 53 85 46 170 -13 157 -16 511 -7 695 11 218 30 308 77 352 13 12 26 32 30
43 3 11 10 20 14 20 5 0 30 23 57 52 27 28 72 75 101 103 77 76 94 165 31 165
-30 0 -89 -35 -138 -82 -24 -24 -61 -54 -81 -68 -38 -26 -109 -82 -212 -166
-92 -75 -215 -164 -227 -164 -15 0 -12 40 10 132 11 46 20 103 20 128 1 58 17
132 33 145 7 6 25 31 40 57 19 33 36 50 55 54 51 11 95 29 100 42 3 9 -24 12
-111 12 l-115 0 -32 -57z m284 -450 c-4 -16 -10 -35 -14 -43 -17 -32 -30 -163
-32 -320 -4 -218 -1 -461 7 -532 7 -67 0 -71 -48 -28 -19 16 -40 30 -47 30
-12 0 -48 29 -73 59 -7 7 -24 27 -39 43 -16 16 -28 34 -28 39 0 5 -5 9 -11 9
-10 0 -56 44 -117 112 l-23 25 37 139 c20 77 44 153 52 169 9 17 15 40 13 51
-2 21 44 65 96 93 13 6 44 32 70 58 26 25 66 57 88 71 22 14 44 31 48 38 14
24 28 15 21 -13z"/>
</g>
</svg>
