<?xml version="1.0" standalone="no"?>
<!DOCTYPE svg PUBLIC "-//W3C//DTD SVG 20010904//EN"
 "http://www.w3.org/TR/2001/REC-SVG-20010904/DTD/svg10.dtd">
<svg version="1.0" xmlns="http://www.w3.org/2000/svg"
 width="207.000000pt" height="210.000000pt" viewBox="0 0 207.000000 210.000000"
 preserveAspectRatio="xMidYMid meet">
<metadata>
Created by potrace 1.16, written by Peter Selinger 2001-2019
</metadata>
<g transform="translate(0.000000,210.000000) scale(0.100000,-0.100000)"
fill="#000000" stroke="none">
<path d="M1025 1860 c-52 -20 -74 -82 -94 -265 -11 -99 -28 -205 -37 -237 -3
-9 -25 -26 -49 -38 -25 -12 -48 -26 -51 -31 -3 -6 -35 -24 -70 -40 -44 -21
-68 -39 -75 -56 -13 -35 -12 -39 22 -78 30 -34 34 -35 78 -29 25 4 56 14 69
22 12 8 22 11 22 8 0 -4 -14 -89 -30 -189 -17 -100 -37 -252 -45 -337 -9 -85
-21 -188 -29 -227 -13 -71 -12 -83 6 -83 12 0 54 97 66 155 6 28 16 70 23 95
11 44 39 191 80 420 38 206 58 283 79 297 11 8 20 23 20 34 0 11 8 23 18 26
14 5 140 97 228 166 13 10 27 16 32 13 9 -5 -3 -116 -18 -176 -11 -43 -29
-288 -44 -610 l-11 -245 -26 -3 c-49 -6 -131 36 -202 103 -41 37 -75 61 -83
58 -8 -3 -14 -7 -14 -10 0 -20 79 -139 114 -171 37 -35 135 -82 169 -82 7 0
26 -9 42 -20 17 -11 42 -20 56 -20 23 0 28 6 38 43 6 24 13 113 15 198 11 354
36 715 56 799 5 25 14 68 19 96 5 29 21 74 34 101 31 61 54 170 39 185 -15 15
-69 0 -90 -25 -22 -28 -138 -127 -148 -127 -4 0 -37 -25 -74 -55 -37 -30 -71
-55 -75 -55 -4 0 -18 -9 -33 -20 -14 -11 -29 -17 -33 -13 -9 9 16 190 29 207
5 6 14 31 21 56 7 24 22 51 32 58 34 24 22 53 -41 99 -9 6 -24 7 -35 3z"/>
</g>
</svg>
