<?xml version="1.0" standalone="no"?>
<!DOCTYPE svg PUBLIC "-//W3C//DTD SVG 20010904//EN"
 "http://www.w3.org/TR/2001/REC-SVG-20010904/DTD/svg10.dtd">
<svg version="1.0" xmlns="http://www.w3.org/2000/svg"
 width="209.000000pt" height="212.000000pt" viewBox="0 0 209.000000 212.000000"
 preserveAspectRatio="xMidYMid meet">
<metadata>
Created by potrace 1.16, written by Peter Selinger 2001-2019
</metadata>
<g transform="translate(0.000000,212.000000) scale(0.100000,-0.100000)"
fill="#000000" stroke="none">
<path d="M1584 1817 c-131 -132 -214 -203 -214 -185 0 16 32 78 71 136 38 56
38 81 2 84 -58 3 -79 -4 -105 -32 -16 -17 -28 -36 -28 -44 0 -7 -10 -35 -22
-62 -11 -27 -24 -82 -28 -121 -8 -80 -22 -100 -120 -173 -52 -39 -51 -38 -151
-133 -105 -99 -121 -136 -77 -177 28 -26 68 -26 119 1 39 19 41 22 35 55 -6
31 -2 39 40 84 26 27 53 50 60 50 20 0 18 -57 -6 -165 -11 -49 -27 -126 -35
-170 -9 -44 -20 -93 -25 -110 -5 -16 -16 -70 -24 -120 -8 -49 -22 -115 -31
-145 -9 -30 -23 -82 -30 -115 -7 -33 -14 -67 -16 -75 -2 -8 2 -15 9 -15 14 0
54 62 67 105 4 14 13 39 21 55 38 84 101 300 109 370 1 17 16 84 33 150 16 66
35 149 41 185 19 106 50 189 77 207 13 8 24 19 24 24 0 10 92 98 138 133 16
11 49 40 73 63 59 58 74 57 65 -4 -4 -27 -11 -84 -16 -128 -5 -44 -14 -107
-19 -140 -23 -133 -33 -203 -37 -255 -2 -30 -6 -68 -9 -84 -3 -16 -8 -97 -11
-180 -2 -83 -9 -178 -14 -211 -5 -33 -12 -87 -15 -120 -3 -32 -13 -83 -21
-113 l-16 -53 -56 7 c-64 7 -81 15 -135 57 -29 22 -41 27 -50 18 -9 -9 -7 -20
7 -46 26 -48 72 -81 139 -98 31 -8 68 -24 83 -36 32 -25 84 -29 84 -6 0 8 4
23 10 33 36 65 72 315 90 632 6 102 22 257 35 345 40 262 46 314 52 451 7 160
3 184 -35 183 -21 0 -53 -26 -138 -112z"/>
<path d="M918 1581 c-25 -10 -61 -29 -78 -41 -18 -13 -67 -40 -109 -60 -42
-20 -82 -44 -88 -52 -7 -8 -59 -36 -117 -63 -109 -50 -134 -75 -120 -118 24
-76 139 -73 209 5 36 39 42 38 26 -5 -6 -14 -15 -92 -21 -174 -13 -179 -26
-274 -51 -373 -10 -41 -19 -96 -19 -121 0 -25 -7 -68 -15 -95 -8 -27 -15 -60
-15 -74 0 -63 70 -97 90 -44 14 35 90 134 160 209 112 119 160 172 160 178 0
4 22 28 48 54 64 65 105 120 97 133 -22 35 -84 -12 -304 -230 -106 -105 -106
-105 -109 -74 -2 18 4 60 13 94 9 34 23 133 30 219 21 228 23 239 63 319 42
86 130 175 191 193 54 16 100 84 84 125 -7 20 -68 17 -125 -5z"/>
</g>
</svg>
