<?xml version="1.0" standalone="no"?>
<!DOCTYPE svg PUBLIC "-//W3C//DTD SVG 20010904//EN"
 "http://www.w3.org/TR/2001/REC-SVG-20010904/DTD/svg10.dtd">
<svg version="1.0" xmlns="http://www.w3.org/2000/svg"
 width="208.000000pt" height="211.000000pt" viewBox="0 0 208.000000 211.000000"
 preserveAspectRatio="xMidYMid meet">
<metadata>
Created by potrace 1.16, written by Peter Selinger 2001-2019
</metadata>
<g transform="translate(0.000000,211.000000) scale(0.100000,-0.100000)"
fill="#000000" stroke="none">
<path d="M1165 1820 c-41 -45 -92 -263 -95 -407 0 -14 -21 -39 -60 -72 -33
-27 -85 -81 -114 -118 -30 -37 -68 -84 -84 -103 -17 -19 -38 -52 -48 -72 -15
-33 -16 -41 -4 -63 18 -33 48 -40 111 -25 55 13 67 29 51 65 -8 18 -6 31 9 63
19 39 55 80 63 71 2 -2 -2 -47 -10 -99 -13 -98 -36 -292 -40 -345 -1 -16 -10
-64 -19 -105 -13 -63 -55 -335 -55 -362 0 -4 7 -8 15 -8 8 0 15 6 15 14 0 8 9
31 19 53 39 77 73 162 76 190 1 15 12 66 23 113 11 47 27 146 36 220 40 332
69 463 106 473 12 3 20 14 20 25 0 37 167 232 198 232 36 0 -27 -624 -81 -800
-9 -28 -17 -120 -21 -240 -4 -134 -10 -198 -19 -207 -10 -10 -20 -9 -52 2 -53
19 -65 18 -65 -2 0 -26 42 -62 94 -79 25 -9 48 -20 52 -25 3 -5 16 -9 29 -9
43 0 55 58 64 315 7 169 14 254 29 320 65 289 80 430 78 716 -1 150 -4 200
-15 212 -7 10 -17 17 -21 17 -9 0 -110 -100 -199 -196 l-63 -69 7 55 c4 30 20
95 36 144 16 49 27 98 23 108 -8 25 -65 24 -89 -2z m285 -522 c0 -16 -3 -19
-11 -11 -6 6 -8 16 -5 22 11 17 16 13 16 -11z"/>
<path d="M807 1626 c-3 -7 -68 -60 -144 -117 -76 -57 -149 -114 -163 -127 -14
-13 -42 -32 -64 -44 -21 -11 -66 -41 -100 -68 -33 -26 -75 -55 -93 -64 -60
-30 -71 -90 -25 -133 24 -23 32 -24 81 -19 64 8 118 43 127 84 11 52 15 62 25
62 16 0 10 -102 -16 -246 -14 -76 -25 -157 -25 -178 0 -118 -37 -310 -75 -390
-25 -53 -26 -57 -10 -90 31 -65 41 -59 225 127 94 94 170 174 170 179 0 4 24
31 53 60 85 84 131 168 92 168 -8 0 -15 -4 -15 -9 0 -5 -15 -18 -32 -30 -18
-11 -49 -36 -68 -56 -19 -20 -47 -44 -62 -54 -15 -9 -66 -54 -114 -100 -47
-45 -88 -80 -92 -77 -4 5 4 83 39 346 30 222 41 288 54 315 7 17 17 43 21 60
4 16 31 53 61 82 49 49 63 79 46 96 -3 4 -17 0 -31 -9 -22 -14 -23 -14 -15 0
5 9 25 33 44 53 101 108 139 155 139 173 0 22 -25 27 -33 6z m-300 -508 c-3
-7 -5 -2 -5 12 0 14 2 19 5 13 2 -7 2 -19 0 -25z"/>
</g>
</svg>
