<?xml version="1.0" standalone="no"?>
<!DOCTYPE svg PUBLIC "-//W3C//DTD SVG 20010904//EN"
 "http://www.w3.org/TR/2001/REC-SVG-20010904/DTD/svg10.dtd">
<svg version="1.0" xmlns="http://www.w3.org/2000/svg"
 width="207.000000pt" height="216.000000pt" viewBox="0 0 207.000000 216.000000"
 preserveAspectRatio="xMidYMid meet">
<metadata>
Created by potrace 1.16, written by Peter Selinger 2001-2019
</metadata>
<g transform="translate(0.000000,216.000000) scale(0.100000,-0.100000)"
fill="#000000" stroke="none">
<path d="M529 1822 c-43 -22 -48 -41 -99 -412 -11 -86 -16 -93 -83 -133 -137
-82 -172 -140 -113 -188 26 -22 46 -15 92 32 21 21 42 39 47 39 16 0 -3 -160
-30 -255 -14 -49 -29 -110 -35 -135 -5 -25 -13 -59 -19 -76 -5 -17 -9 -41 -9
-55 0 -36 -28 -163 -55 -255 -50 -165 -64 -274 -36 -274 13 0 45 57 71 126 63
167 89 248 95 296 12 97 44 264 54 289 11 26 52 195 71 292 21 104 53 158 134
225 40 34 89 71 110 82 20 12 36 25 36 29 0 11 95 71 111 71 8 0 20 9 27 20
13 21 32 27 32 10 0 -6 -13 -39 -29 -73 -39 -83 -100 -262 -112 -328 -5 -30
-16 -103 -24 -164 -8 -60 -24 -159 -35 -219 -11 -61 -20 -131 -20 -158 0 -26
-2 -48 -5 -48 -23 0 -127 158 -147 221 -8 28 -17 39 -31 39 -17 0 -19 -5 -12
-47 13 -87 101 -270 154 -317 12 -11 21 -24 21 -31 0 -17 44 -55 63 -55 10 0
22 12 28 27 7 16 15 37 20 48 4 11 10 70 14 130 6 121 10 145 55 415 29 174
65 312 96 371 7 14 20 48 29 75 9 27 28 65 41 85 22 32 25 46 22 105 -3 67 -4
69 -31 72 -17 2 -45 -7 -72 -22 -24 -14 -74 -42 -110 -61 -37 -19 -82 -48
-100 -64 -19 -16 -49 -37 -67 -45 -19 -9 -55 -34 -82 -56 -27 -22 -51 -38 -53
-36 -7 6 26 246 36 271 22 52 32 97 26 115 -11 33 -38 41 -76 22z"/>
<path d="M1654 1646 c-12 -8 -43 -20 -70 -27 -147 -36 -226 -119 -178 -187 21
-31 36 -28 84 17 24 22 54 42 69 46 14 4 42 16 61 28 36 23 45 26 98 34 30 5
32 4 32 -26 0 -48 -43 -159 -90 -237 -24 -38 -54 -91 -68 -119 -13 -27 -43
-79 -67 -115 -23 -36 -58 -97 -77 -136 -41 -82 -130 -218 -164 -252 -45 -43
-17 -112 46 -112 22 0 36 9 57 37 51 69 148 160 178 167 17 4 48 15 70 26 22
10 57 23 77 30 42 13 63 33 54 55 -7 19 -89 20 -168 1 -32 -8 -58 -11 -58 -7
0 15 34 77 62 113 16 20 49 78 74 130 25 51 65 131 89 178 43 85 73 183 77
251 3 55 -25 105 -63 113 -52 10 -103 7 -125 -8z"/>
<path d="M1140 1351 c-34 -9 -35 -26 -11 -172 28 -169 37 -318 22 -360 -7 -22
-8 -36 -1 -43 15 -15 59 32 66 73 4 20 11 42 16 48 11 14 12 289 1 306 -3 5
-5 38 -5 73 1 53 -2 65 -18 74 -21 11 -33 11 -70 1z"/>
</g>
</svg>
