<?xml version="1.0" standalone="no"?>
<!DOCTYPE svg PUBLIC "-//W3C//DTD SVG 20010904//EN"
 "http://www.w3.org/TR/2001/REC-SVG-20010904/DTD/svg10.dtd">
<svg version="1.0" xmlns="http://www.w3.org/2000/svg"
 width="206.000000pt" height="218.000000pt" viewBox="0 0 206.000000 218.000000"
 preserveAspectRatio="xMidYMid meet">
<metadata>
Created by potrace 1.16, written by Peter Selinger 2001-2019
</metadata>
<g transform="translate(0.000000,218.000000) scale(0.100000,-0.100000)"
fill="#000000" stroke="none">
<path d="M1215 1939 c-37 -21 -100 -63 -125 -85 -38 -32 -162 -115 -167 -110
-2 2 1 43 8 91 13 94 9 105 -37 105 -46 0 -71 -52 -97 -202 -7 -36 -15 -70
-19 -74 -5 -4 -8 -15 -8 -25 0 -12 -26 -33 -77 -63 -143 -82 -159 -107 -104
-160 26 -25 33 -27 76 -20 47 7 48 6 42 -17 -3 -13 -15 -49 -26 -79 -12 -30
-26 -73 -30 -95 -5 -22 -32 -105 -61 -185 -58 -160 -135 -393 -152 -455 -5
-22 -14 -50 -19 -63 -15 -38 -11 -62 10 -62 30 0 85 70 110 140 13 36 40 112
61 170 45 127 84 240 101 297 6 24 23 60 36 80 l24 38 -6 -55 c-3 -30 -8 -159
-11 -286 -6 -228 -6 -232 20 -322 14 -50 26 -96 26 -103 0 -7 12 -30 26 -51
26 -37 56 -49 70 -27 10 16 25 78 29 119 2 19 9 62 14 95 6 33 20 125 31 205
33 224 88 493 119 583 16 45 41 116 55 157 15 41 31 84 36 95 4 11 11 32 14
46 3 15 21 50 40 78 42 62 60 112 61 174 2 68 -23 91 -70 66z m-100 -221 c-4
-18 -15 -49 -25 -68 -9 -19 -27 -71 -39 -114 -12 -44 -32 -100 -43 -125 -12
-25 -31 -83 -44 -128 -12 -46 -25 -87 -28 -92 -3 -5 -19 -89 -35 -188 -44
-267 -40 -240 -62 -438 0 -5 -7 13 -15 40 -34 125 -40 537 -10 680 14 68 18
86 49 207 23 93 81 162 181 213 31 16 60 33 62 37 11 18 15 6 9 -24z"/>
<path d="M1565 1479 c-44 -4 -97 -12 -119 -19 -45 -14 -86 -51 -86 -78 0 -31
58 -70 76 -52 14 13 116 52 149 57 75 10 70 14 68 -53 -1 -64 -28 -131 -75
-190 -13 -16 -34 -50 -48 -76 -13 -27 -30 -48 -37 -48 -7 0 -13 -5 -13 -11 0
-5 -18 -29 -39 -52 -84 -90 -141 -163 -141 -179 0 -18 50 -58 73 -58 20 0 64
43 118 115 24 32 62 75 84 95 72 65 76 70 70 91 -4 12 2 34 16 57 27 47 66
148 86 229 14 54 14 67 2 99 -14 38 -49 69 -84 76 -11 3 -56 1 -100 -3z"/>
<path d="M1151 1304 c-21 -15 -22 -21 -16 -73 11 -104 8 -195 -10 -268 -10
-40 -14 -80 -11 -90 6 -16 11 -14 37 17 63 74 76 109 89 225 6 61 17 125 23
143 10 30 9 36 -8 48 -25 19 -75 18 -104 -2z"/>
</g>
</svg>
