<?xml version="1.0" standalone="no"?>
<!DOCTYPE svg PUBLIC "-//W3C//DTD SVG 20010904//EN"
 "http://www.w3.org/TR/2001/REC-SVG-20010904/DTD/svg10.dtd">
<svg version="1.0" xmlns="http://www.w3.org/2000/svg"
 width="210.000000pt" height="216.000000pt" viewBox="0 0 210.000000 216.000000"
 preserveAspectRatio="xMidYMid meet">
<metadata>
Created by potrace 1.16, written by Peter Selinger 2001-2019
</metadata>
<g transform="translate(0.000000,216.000000) scale(0.100000,-0.100000)"
fill="#000000" stroke="none">
<path d="M1212 2024 c-26 -18 -51 -64 -87 -160 -14 -38 -48 -114 -75 -169 -26
-55 -51 -110 -55 -123 -3 -12 -26 -57 -49 -100 -24 -42 -47 -88 -51 -101 -9
-31 -101 -217 -163 -332 -66 -121 -104 -179 -119 -179 -19 0 -32 -32 -22 -57
10 -26 27 -29 72 -9 47 19 79 56 135 154 48 83 102 193 102 207 0 4 9 19 20
35 18 26 25 28 92 28 40 1 89 4 110 7 21 4 38 3 38 -2 0 -9 -23 -45 -79 -123
-22 -30 -62 -90 -90 -134 -46 -73 -102 -126 -133 -126 -26 -1 -108 -60 -113
-83 -4 -12 -1 -36 5 -51 10 -27 7 -33 -47 -90 -31 -33 -62 -66 -69 -71 -7 -6
-28 -30 -47 -53 -36 -43 -150 -148 -206 -191 -37 -28 -46 -62 -9 -37 12 9 30
16 38 16 9 0 27 11 40 25 13 14 28 25 33 25 5 0 26 14 46 30 20 17 41 34 46
38 29 22 291 267 298 278 8 14 91 74 101 74 11 0 6 -55 -14 -150 -11 -52 -23
-108 -26 -124 -16 -90 -77 -286 -101 -321 -7 -11 -13 -28 -13 -38 0 -10 -9
-35 -20 -57 -26 -52 -25 -60 9 -60 24 0 34 9 63 58 51 86 91 178 102 237 3 17
30 123 59 236 48 185 58 214 98 273 24 36 49 66 56 66 18 0 73 -199 113 -410
31 -165 106 -297 159 -283 13 3 21 16 24 41 17 133 58 312 91 397 12 33 44
125 70 205 26 80 55 161 65 180 10 19 33 64 51 100 23 44 34 79 34 110 l1 45
-46 -2 c-33 -2 -76 -18 -153 -57 -58 -30 -120 -64 -137 -77 -45 -32 -121 -69
-142 -69 -10 0 -33 -6 -52 -14 -25 -11 -35 -11 -38 -3 -8 24 25 120 63 182
115 188 191 369 193 460 2 59 2 60 -27 63 -62 7 -118 -18 -181 -83 -33 -33
-67 -74 -75 -90 -8 -17 -25 -42 -39 -58 -20 -21 -22 -30 -13 -39 10 -10 14 -8
18 8 4 13 20 24 51 33 25 8 68 29 96 48 27 18 52 31 55 28 3 -2 -7 -22 -21
-42 -14 -21 -31 -51 -37 -68 -6 -16 -25 -54 -43 -82 -38 -64 -66 -75 -178 -75
-88 1 -99 4 -99 33 0 27 78 168 101 182 11 7 19 19 19 28 0 34 80 186 92 174
2 -3 22 31 44 75 24 49 47 82 59 86 56 18 85 83 47 103 -19 10 -103 41 -112
41 -3 0 -16 -7 -28 -16z m408 -948 c0 -7 -15 -46 -34 -87 -19 -41 -39 -99 -44
-130 -6 -31 -36 -132 -66 -225 -30 -93 -58 -181 -62 -196 -6 -28 -24 -39 -24
-15 0 6 -12 37 -26 67 -14 30 -29 73 -34 95 -7 37 -24 99 -67 252 -21 74 -13
89 52 99 25 3 50 12 56 20 6 8 20 14 29 14 10 0 31 11 47 24 15 13 43 32 62
42 107 60 111 62 111 40z"/>
</g>
</svg>
