<?xml version="1.0" standalone="no"?>
<!DOCTYPE svg PUBLIC "-//W3C//DTD SVG 20010904//EN"
 "http://www.w3.org/TR/2001/REC-SVG-20010904/DTD/svg10.dtd">
<svg version="1.0" xmlns="http://www.w3.org/2000/svg"
 width="207.000000pt" height="215.000000pt" viewBox="0 0 207.000000 215.000000"
 preserveAspectRatio="xMidYMid meet">
<metadata>
Created by potrace 1.16, written by Peter Selinger 2001-2019
</metadata>
<g transform="translate(0.000000,215.000000) scale(0.100000,-0.100000)"
fill="#000000" stroke="none">
<path d="M1660 1769 c-13 -6 -27 -14 -30 -18 -3 -5 -43 -34 -90 -64 -47 -31
-94 -63 -105 -72 -11 -8 -47 -34 -80 -57 -33 -23 -62 -44 -65 -48 -14 -16 -91
-72 -95 -68 -15 14 61 191 102 239 20 24 27 71 11 80 -20 13 -80 -1 -106 -25
-47 -42 -100 -179 -122 -316 l-12 -75 -116 -114 c-100 -97 -119 -112 -134
-102 -10 6 -24 11 -31 11 -19 0 -67 -53 -67 -74 0 -23 -91 -160 -160 -241 -28
-33 -57 -71 -65 -85 -7 -14 -37 -48 -67 -76 -29 -28 -79 -79 -111 -113 -59
-61 -84 -76 -74 -43 52 157 61 202 76 362 17 181 27 213 80 263 25 24 65 63
87 88 23 24 72 73 108 109 99 98 82 139 -24 60 -29 -22 -57 -40 -61 -40 -4 0
-31 -22 -61 -48 -29 -27 -73 -62 -98 -77 -25 -15 -65 -49 -90 -74 -25 -26 -72
-70 -106 -99 -33 -29 -67 -63 -74 -77 -8 -14 -29 -35 -47 -46 -33 -21 -33 -21
-33 -101 l0 -79 27 21 c15 11 34 33 43 48 22 35 116 132 128 132 15 0 20 -68
10 -150 -12 -98 -49 -236 -88 -330 -18 -41 -37 -92 -43 -113 -11 -37 -10 -40
21 -68 27 -24 36 -27 52 -19 11 6 20 15 20 20 0 5 20 23 44 39 75 52 142 114
201 186 32 38 63 74 71 80 21 15 122 146 140 180 17 34 73 77 87 68 20 -12 -6
-293 -39 -423 -18 -70 -18 -70 10 -70 17 0 31 11 48 38 61 99 90 233 89 422
-1 69 2 144 5 167 l6 43 37 -6 c27 -4 41 -2 50 10 7 9 20 16 28 16 17 0 16
-14 -10 -115 -27 -106 -30 -120 -28 -129 6 -29 -133 -629 -164 -702 -16 -40
-19 -64 -7 -64 18 0 157 321 192 445 14 50 41 147 55 200 7 28 28 116 45 197
17 81 44 180 59 220 15 40 35 94 45 121 13 36 34 61 84 103 37 31 90 77 117
103 28 25 66 58 85 72 20 15 47 38 60 53 14 14 29 26 34 26 4 0 26 14 48 31
44 35 56 33 40 -8 -19 -46 -53 -183 -62 -248 -28 -193 -50 -327 -65 -379 -8
-33 -18 -80 -20 -105 -22 -223 -29 -314 -27 -358 0 -29 -2 -53 -4 -53 -3 0
-67 62 -142 138 -130 130 -137 136 -140 109 -3 -21 9 -46 45 -97 26 -37 79
-111 116 -163 62 -88 117 -147 136 -147 5 0 19 -16 32 -34 45 -66 93 -73 110
-16 10 32 9 49 -4 92 -47 157 -51 194 -38 342 6 78 23 195 36 261 14 66 31
161 39 210 38 228 70 376 97 445 61 160 45 217 -51 179z"/>
<path d="M461 1580 c-41 -16 -83 -38 -95 -49 -12 -10 -45 -32 -74 -47 -53 -28
-259 -194 -275 -220 -12 -21 3 -83 24 -94 20 -11 60 -13 84 -4 9 4 27 27 40
53 13 25 44 66 67 91 43 44 200 158 262 191 17 9 45 24 63 33 38 20 47 40 27
61 -21 20 -37 19 -123 -15z"/>
</g>
</svg>
