<?xml version="1.0" standalone="no"?>
<!DOCTYPE svg PUBLIC "-//W3C//DTD SVG 20010904//EN"
 "http://www.w3.org/TR/2001/REC-SVG-20010904/DTD/svg10.dtd">
<svg version="1.0" xmlns="http://www.w3.org/2000/svg"
 width="208.000000pt" height="214.000000pt" viewBox="0 0 208.000000 214.000000"
 preserveAspectRatio="xMidYMid meet">
<metadata>
Created by potrace 1.16, written by Peter Selinger 2001-2019
</metadata>
<g transform="translate(0.000000,214.000000) scale(0.100000,-0.100000)"
fill="#000000" stroke="none">
<path d="M945 2003 c-30 -16 -229 -193 -252 -224 -7 -9 -36 -32 -65 -50 -29
-19 -67 -47 -83 -64 -17 -16 -39 -37 -50 -46 -26 -22 -211 -219 -229 -244 -9
-13 -16 -64 -20 -140 -13 -238 -16 -278 -22 -286 -10 -16 -34 -175 -34 -225 0
-67 18 -161 40 -205 15 -32 15 -41 4 -69 -22 -51 -18 -69 21 -87 30 -14 40
-15 77 -3 57 18 98 47 98 70 0 18 93 100 114 100 6 0 26 16 45 35 48 49 58 45
66 -22 10 -88 22 -113 56 -113 16 0 29 3 30 8 0 4 2 140 4 302 2 269 7 343 35
567 12 93 46 238 77 333 24 70 122 252 143 265 6 4 10 31 10 61 0 61 -10 67
-65 37z m-179 -310 c-20 -63 -49 -179 -61 -240 -7 -40 -16 -76 -19 -81 -3 -5
-22 -12 -43 -15 -20 -4 -55 -15 -78 -26 -55 -27 -141 -61 -154 -61 -19 0 -12
27 10 41 18 13 19 17 9 41 -12 25 -9 31 41 95 56 72 86 102 159 161 25 20 60
51 78 69 36 36 67 44 58 16z m-96 -460 c0 -21 -5 -69 -10 -108 -5 -38 -10
-144 -11 -235 -2 -91 -6 -175 -10 -187 -6 -15 -39 -38 -96 -68 -48 -25 -116
-61 -151 -80 -35 -20 -67 -33 -71 -30 -5 2 -14 32 -20 65 -15 75 -14 77 87
127 43 21 92 49 110 62 18 13 50 27 70 30 31 5 37 10 37 30 0 45 -85 47 -183
5 -21 -9 -48 -20 -62 -24 -14 -4 -33 -11 -43 -15 -17 -7 -18 -3 -13 36 11 87
43 255 55 283 10 26 15 28 46 22 26 -5 43 -2 63 12 15 10 42 24 60 32 18 7 52
28 75 46 55 44 67 43 67 -3z"/>
<path d="M1323 1858 c-12 -6 -27 -25 -34 -42 -7 -17 -25 -47 -40 -67 -15 -19
-34 -53 -42 -75 -15 -40 -67 -163 -94 -222 -16 -37 -171 -197 -200 -206 -24
-9 -92 -107 -99 -146 -6 -27 -3 -31 29 -45 20 -8 48 -15 62 -15 34 0 75 41 69
68 -6 22 65 97 79 83 8 -8 -4 -134 -23 -226 -26 -129 -80 -504 -97 -673 -7
-64 13 -71 39 -14 55 120 67 154 78 222 38 257 52 340 83 500 13 67 23 127 42
257 4 24 11 45 16 49 5 3 9 14 9 25 0 33 76 105 164 154 47 26 97 59 113 75
15 15 51 39 80 54 28 15 62 37 75 50 31 29 78 59 78 48 0 -5 -13 -33 -29 -63
-17 -30 -34 -82 -40 -116 -5 -34 -22 -90 -36 -125 -51 -120 -63 -164 -74 -263
-6 -55 -21 -170 -33 -255 -12 -85 -23 -197 -24 -248 -2 -52 -5 -96 -8 -99 -9
-9 -108 29 -124 48 -21 25 -42 24 -42 -1 0 -31 68 -99 130 -130 31 -16 62 -35
69 -44 20 -24 37 -19 60 18 18 29 21 49 21 162 0 80 8 178 21 259 11 72 25
193 31 270 10 129 14 151 60 280 54 149 81 211 97 217 12 4 41 110 41 148 0
14 -6 34 -14 45 -25 35 -112 5 -236 -80 -36 -25 -70 -45 -75 -45 -6 0 -26 -13
-45 -28 -19 -16 -70 -47 -112 -71 l-77 -42 9 28 c15 51 40 103 50 103 5 0 23
21 41 48 18 26 45 59 61 75 16 15 28 33 26 39 -9 25 -96 35 -135 16z"/>
</g>
</svg>
