<?xml version="1.0" standalone="no"?>
<!DOCTYPE svg PUBLIC "-//W3C//DTD SVG 20010904//EN"
 "http://www.w3.org/TR/2001/REC-SVG-20010904/DTD/svg10.dtd">
<svg version="1.0" xmlns="http://www.w3.org/2000/svg"
 width="209.000000pt" height="216.000000pt" viewBox="0 0 209.000000 216.000000"
 preserveAspectRatio="xMidYMid meet">
<metadata>
Created by potrace 1.16, written by Peter Selinger 2001-2019
</metadata>
<g transform="translate(0.000000,216.000000) scale(0.100000,-0.100000)"
fill="#000000" stroke="none">
<path d="M810 1893 c-89 -90 -324 -317 -376 -364 -69 -62 -81 -83 -103 -179
-13 -52 -27 -111 -31 -130 -5 -19 -12 -60 -15 -90 -9 -81 -36 -217 -85 -440
-15 -65 -24 -155 -29 -285 -10 -214 -7 -258 17 -253 12 2 22 30 36 101 l20 97
69 0 c66 0 71 2 101 33 28 30 37 34 79 31 67 -4 97 7 163 61 80 65 96 101 102
244 l5 115 38 41 c22 23 39 49 39 57 0 20 -20 38 -43 38 -18 0 -19 6 -14 58
13 146 31 268 43 282 9 11 10 20 2 34 -17 30 6 233 38 336 16 51 22 64 54 135
12 28 24 76 27 108 4 56 3 57 -23 57 -21 0 -48 -21 -114 -87z m-55 -245 c-13
-59 -32 -210 -38 -288 -1 -26 -8 -37 -27 -46 -84 -39 -136 -58 -185 -69 -41
-9 -55 -23 -55 -55 0 -37 32 -64 67 -57 89 18 111 26 137 50 43 40 49 35 42
-30 -3 -32 -9 -105 -12 -162 l-6 -105 -53 -50 c-204 -196 -314 -286 -350 -286
-8 0 2 54 27 155 11 44 23 103 28 130 5 28 13 73 19 100 5 28 17 88 25 135 30
160 36 183 51 200 8 9 15 21 15 27 0 17 20 21 87 17 48 -3 62 0 67 12 9 23 -9
50 -44 64 -34 14 -35 18 -16 64 22 52 201 256 225 256 5 0 3 -28 -4 -62z m-95
-1015 c0 -23 -83 -117 -98 -112 -7 3 0 21 19 49 53 78 79 99 79 63z"/>
<path d="M568 1017 c-7 -6 -31 -21 -52 -32 -106 -54 -130 -195 -34 -195 26 0
50 32 109 143 9 16 26 37 39 47 31 23 21 50 -19 50 -16 0 -36 -6 -43 -13z"/>
<path d="M1333 1865 c-31 -13 -44 -38 -58 -115 -3 -19 -19 -89 -35 -155 -16
-66 -35 -154 -43 -195 -12 -68 -17 -77 -48 -97 -19 -13 -45 -32 -59 -43 -14
-11 -28 -20 -32 -20 -12 0 -80 -48 -130 -92 -54 -47 -62 -82 -27 -114 16 -15
34 -19 77 -17 77 3 104 18 91 50 -8 21 -4 30 26 60 19 19 39 32 45 28 6 -3 8
-10 6 -14 -9 -14 -55 -257 -61 -323 -7 -74 -17 -90 -37 -58 -15 24 -38 27 -38
4 0 -8 11 -35 24 -59 24 -42 24 -46 11 -107 -7 -34 -16 -88 -20 -118 -7 -54
-48 -177 -99 -297 -30 -72 -32 -83 -12 -83 8 0 40 46 71 102 52 96 74 146 128
303 30 87 33 89 76 63 20 -12 60 -41 89 -64 36 -29 69 -46 107 -55 32 -7 63
-22 76 -36 41 -42 79 -27 79 32 0 13 5 27 10 30 6 3 10 33 10 66 0 202 91 741
134 787 8 10 23 40 34 67 11 28 36 77 56 110 52 88 64 116 62 155 -1 48 -23
49 -91 6 -30 -20 -58 -36 -62 -36 -3 0 -20 -11 -38 -24 -17 -14 -48 -33 -67
-44 -19 -11 -46 -26 -59 -34 -13 -7 -33 -20 -44 -30 -11 -9 -38 -26 -60 -38
-22 -12 -55 -33 -74 -46 -19 -13 -38 -21 -43 -16 -11 11 21 171 56 277 54 162
55 174 19 193 -13 7 -28 6 -50 -3z m297 -400 c0 -3 -11 -27 -24 -53 -23 -45
-69 -234 -82 -337 -4 -27 -11 -58 -16 -69 -6 -10 -19 -115 -29 -235 -11 -119
-24 -220 -29 -225 -11 -11 -99 18 -142 47 -18 12 -59 35 -90 50 -62 30 -63 31
-49 104 5 26 15 86 21 133 18 126 64 298 94 354 20 37 39 57 79 79 28 17 66
41 84 54 81 62 183 116 183 98z"/>
</g>
</svg>
