<?xml version="1.0" standalone="no"?>
<!DOCTYPE svg PUBLIC "-//W3C//DTD SVG 20010904//EN"
 "http://www.w3.org/TR/2001/REC-SVG-20010904/DTD/svg10.dtd">
<svg version="1.0" xmlns="http://www.w3.org/2000/svg"
 width="207.000000pt" height="203.000000pt" viewBox="0 0 207.000000 203.000000"
 preserveAspectRatio="xMidYMid meet">
<metadata>
Created by potrace 1.16, written by Peter Selinger 2001-2019
</metadata>
<g transform="translate(0.000000,203.000000) scale(0.100000,-0.100000)"
fill="#000000" stroke="none">
<path d="M586 2014 c-14 -13 -19 -40 -20 -94 0 -8 3 -39 7 -68 6 -51 6 -52
-26 -67 -18 -9 -49 -25 -69 -37 -34 -19 -38 -20 -53 -4 -17 16 -35 16 -113 0
-30 -6 -44 -44 -31 -83 20 -56 10 -71 -61 -97 -68 -24 -120 -69 -120 -103 0
-20 25 -50 57 -69 20 -11 29 -8 80 28 32 22 63 40 69 40 26 0 97 -251 73 -259
-20 -6 -79 -63 -79 -75 0 -7 10 -22 21 -35 18 -19 28 -22 58 -16 42 8 114 51
156 95 16 16 35 30 42 30 7 0 13 5 13 10 0 6 3 10 8 10 4 0 7 -90 7 -201 l0
-201 -30 -24 c-62 -50 -85 -76 -85 -93 0 -28 24 -43 72 -44 41 -2 43 -4 46
-35 3 -30 -4 -40 -67 -98 -71 -66 -85 -96 -59 -122 19 -19 77 -14 106 9 24 18
28 19 38 5 6 -9 14 -51 18 -94 l7 -77 -63 -58 c-35 -31 -79 -67 -98 -78 -35
-21 -75 -64 -86 -93 -5 -14 5 -16 76 -16 l83 0 54 55 c30 30 63 55 74 55 10 0
19 4 19 8 0 5 38 48 84 96 47 48 88 91 93 97 4 5 61 61 126 124 110 108 130
136 107 150 -19 12 -128 -59 -259 -167 -52 -43 -100 -78 -106 -78 -16 0 -25
46 -25 132 0 78 12 109 73 179 36 42 66 104 67 137 0 28 -32 23 -76 -13 -25
-20 -48 -35 -51 -32 -12 12 8 57 42 92 46 49 79 107 105 184 38 114 7 185 -88
200 -29 4 -66 18 -82 30 -16 11 -38 21 -50 21 -25 0 -25 -3 1 55 13 29 19 58
16 75 -3 15 -2 31 2 36 5 5 13 43 19 85 11 76 5 172 -18 299 -13 66 -12 157 0
180 5 10 6 20 3 24 -13 13 -92 6 -107 -10z m25 -336 c12 -44 7 -276 -6 -310
-8 -20 -99 -88 -118 -88 -8 0 -18 25 -26 68 -8 37 -19 81 -25 97 -7 17 -9 53
-6 84 5 50 9 56 78 122 40 38 77 69 82 69 5 0 14 -19 21 -42z m202 -579 c6 -9
7 -32 3 -52 -7 -40 -65 -132 -81 -129 -6 1 -9 33 -7 80 4 69 7 79 30 99 30 24
41 25 55 2z"/>
<path d="M1428 1743 c-24 -29 -39 -125 -40 -246 l-1 -112 -37 -35 c-21 -19
-77 -71 -126 -115 -173 -157 -202 -193 -188 -237 7 -23 49 -41 75 -33 10 3 37
29 61 58 52 62 178 187 190 187 4 0 8 -20 8 -44 0 -39 -8 -88 -40 -241 -5 -22
-16 -130 -25 -240 -8 -110 -22 -237 -30 -284 -8 -46 -15 -105 -15 -131 0 -27
-7 -83 -15 -126 -10 -55 -12 -81 -4 -89 15 -15 33 14 59 98 12 40 28 92 36
117 26 78 36 124 35 164 0 21 4 46 9 55 9 17 40 263 40 318 0 17 11 89 26 160
14 70 29 161 35 202 5 41 13 77 18 80 4 3 11 28 15 54 6 41 16 57 56 95 26 26
67 61 90 77 23 17 46 38 51 48 5 9 17 17 25 17 17 0 17 -9 -6 -215 -14 -134
-18 -161 -35 -270 -16 -107 -21 -279 -11 -410 26 -358 28 -526 8 -525 -28 1
-125 128 -181 235 -39 74 -67 112 -77 102 -7 -7 11 -97 27 -127 4 -8 17 -40
29 -70 30 -78 94 -184 137 -225 35 -34 38 -35 120 -35 l83 0 0 43 c0 79 -29
532 -41 637 -13 122 -8 250 21 475 11 88 22 192 25 230 5 74 16 239 17 265 4
54 -3 68 -34 79 -34 12 -35 11 -62 -39 -8 -14 -34 -41 -57 -60 -24 -19 -52
-45 -62 -57 -10 -13 -24 -23 -30 -23 -7 0 -24 -10 -39 -23 -14 -12 -36 -30
-49 -41 l-22 -19 6 99 c3 55 9 113 13 130 11 54 -53 88 -88 47z m42 -393 c0
-5 -4 -10 -10 -10 -5 0 -10 5 -10 10 0 6 5 10 10 10 6 0 10 -4 10 -10z m272
-354 c4 -39 0 -56 -13 -56 -5 0 -9 20 -9 45 0 53 16 61 22 11z m-44 -945 c3
-8 -1 -12 -9 -9 -7 2 -15 10 -17 17 -3 8 1 12 9 9 7 -2 15 -10 17 -17z"/>
<path d="M420 920 c-8 -6 -34 -15 -57 -21 -44 -12 -57 -29 -48 -61 8 -23 44
-42 115 -60 92 -23 106 -12 71 59 -10 21 -24 50 -30 66 -11 28 -26 33 -51 17z"/>
</g>
</svg>
