<?xml version="1.0" standalone="no"?>
<!DOCTYPE svg PUBLIC "-//W3C//DTD SVG 20010904//EN"
 "http://www.w3.org/TR/2001/REC-SVG-20010904/DTD/svg10.dtd">
<svg version="1.0" xmlns="http://www.w3.org/2000/svg"
 width="204.000000pt" height="201.000000pt" viewBox="0 0 204.000000 201.000000"
 preserveAspectRatio="xMidYMid meet">
<metadata>
Created by potrace 1.16, written by Peter Selinger 2001-2019
</metadata>
<g transform="translate(0.000000,201.000000) scale(0.100000,-0.100000)"
fill="#000000" stroke="none">
<path d="M656 1898 c-9 -12 -16 -38 -16 -56 0 -39 -28 -142 -38 -142 -4 0 -32
-23 -62 -50 -30 -28 -59 -49 -65 -47 -5 2 -11 29 -13 60 -2 46 1 63 23 95 35
53 26 74 -28 67 -22 -3 -47 -11 -55 -17 -8 -7 -24 -17 -36 -23 -23 -12 -24
-21 -15 -149 l4 -70 -33 -8 c-23 -6 -37 -19 -49 -43 -16 -34 -16 -36 8 -61 20
-21 31 -25 68 -22 l43 3 15 -50 c8 -27 21 -63 29 -78 8 -16 14 -32 14 -36 0
-4 -25 -25 -55 -46 -30 -20 -55 -41 -55 -46 0 -5 -22 -20 -49 -33 -59 -31
-101 -78 -101 -116 0 -31 14 -40 64 -40 33 0 65 24 176 128 30 29 58 52 62 52
4 0 8 -19 9 -42 2 -119 4 -113 -45 -165 -36 -37 -49 -45 -55 -34 -10 16 -97 9
-115 -9 -7 -7 -5 -37 7 -93 17 -83 32 -107 69 -107 23 0 95 64 115 103 22 44
33 18 33 -84 0 -83 -1 -88 -26 -104 -21 -14 -31 -15 -51 -6 -58 26 -72 -2 -25
-49 25 -25 34 -28 70 -23 l42 6 0 -45 c0 -50 -21 -74 -123 -142 -32 -22 -61
-46 -66 -54 -12 -21 5 -57 33 -71 23 -13 32 -10 106 37 19 12 38 22 43 22 4 0
7 -38 7 -85 0 -90 -11 -124 -49 -159 -12 -11 -21 -24 -21 -31 0 -7 -10 -17
-23 -23 -18 -9 -8 -11 54 -11 63 -1 81 3 103 20 14 11 26 24 26 29 0 7 354
365 413 418 19 17 20 16 14 -18 -4 -19 -9 -60 -12 -90 -3 -30 -12 -75 -20
-100 -24 -73 -54 -221 -48 -236 8 -22 22 -16 35 13 7 16 23 45 35 65 13 21 23
44 23 53 0 8 16 57 36 107 20 51 38 108 40 128 8 82 86 435 104 470 4 8 18 62
30 120 36 177 48 207 96 258 136 143 191 197 240 233 l54 40 -1 -33 c0 -18 -4
-55 -9 -83 -9 -51 -22 -141 -40 -275 -5 -41 -12 -113 -15 -160 -3 -47 -10
-129 -16 -183 -5 -53 -7 -101 -4 -107 3 -5 8 -95 10 -200 6 -226 10 -224 -105
-74 -41 53 -87 111 -101 128 -14 17 -34 46 -45 64 -22 38 -40 37 -36 -2 5 -44
50 -132 96 -187 14 -17 26 -35 26 -41 0 -6 12 -27 28 -46 15 -20 32 -44 37
-53 6 -10 27 -37 47 -61 71 -83 85 -103 91 -130 5 -16 17 -30 35 -36 23 -8 30
-6 45 14 9 12 17 30 17 39 0 9 5 25 10 35 6 11 6 21 1 24 -16 10 -30 134 -41
352 -8 170 -7 250 5 405 25 331 61 556 106 664 43 104 37 144 -21 136 -27 -3
-95 -47 -125 -81 -11 -12 -45 -38 -75 -57 -30 -20 -94 -71 -142 -114 -48 -44
-89 -75 -93 -69 -3 5 -1 35 4 67 14 72 14 158 1 203 -6 19 -15 73 -21 120 -11
100 -32 131 -72 113 -39 -18 -46 -110 -16 -208 17 -55 18 -149 4 -220 -8 -38
-18 -99 -21 -135 -7 -63 -9 -67 -63 -120 -209 -206 -263 -320 -165 -344 44
-11 62 1 80 58 16 50 87 146 100 134 7 -8 -34 -174 -52 -209 -16 -31 -54 -209
-54 -253 0 -57 -10 -75 -38 -74 -29 1 -111 -52 -200 -130 -30 -26 -62 -51 -71
-56 -9 -5 -43 -34 -76 -65 -70 -66 -71 -65 -60 77 l7 94 90 89 c76 75 88 91
78 104 -17 21 -39 19 -79 -8 -19 -12 -47 -30 -62 -39 l-28 -17 6 52 c4 28 21
83 39 123 40 86 57 158 49 202 -4 24 -19 42 -56 68 l-49 36 -1 61 c-1 34 -3
89 -4 122 -2 33 1 66 7 72 6 7 7 20 4 29 -4 9 -1 23 5 31 7 8 16 33 20 56 4
23 12 70 18 104 6 34 20 83 31 108 26 61 60 195 60 237 0 19 -5 39 -12 46 -20
20 -65 14 -82 -10z m-92 -450 c-7 -56 -32 -120 -50 -125 -12 -4 -18 126 -6
143 8 12 43 33 55 34 4 0 5 -24 1 -52z"/>
</g>
</svg>
