<?xml version="1.0" standalone="no"?>
<!DOCTYPE svg PUBLIC "-//W3C//DTD SVG 20010904//EN"
 "http://www.w3.org/TR/2001/REC-SVG-20010904/DTD/svg10.dtd">
<svg version="1.0" xmlns="http://www.w3.org/2000/svg"
 width="208.000000pt" height="201.000000pt" viewBox="0 0 208.000000 201.000000"
 preserveAspectRatio="xMidYMid meet">
<metadata>
Created by potrace 1.16, written by Peter Selinger 2001-2019
</metadata>
<g transform="translate(0.000000,201.000000) scale(0.100000,-0.100000)"
fill="#000000" stroke="none">
<path d="M1195 1957 c-11 -6 -26 -17 -33 -24 -7 -7 -21 -13 -30 -13 -26 0 -59
-27 -65 -52 -3 -13 -31 -84 -62 -158 -31 -74 -74 -182 -95 -240 -22 -58 -57
-154 -80 -213 -22 -60 -47 -133 -55 -162 -7 -30 -22 -74 -33 -98 -10 -24 -24
-65 -31 -93 -6 -27 -20 -87 -31 -133 -11 -51 -27 -92 -40 -106 -44 -47 5 -61
57 -17 31 27 83 115 83 141 0 22 151 466 191 561 10 25 35 88 55 140 48 127
81 195 121 254 18 26 33 54 33 60 0 6 13 27 30 46 47 56 36 136 -15 107z"/>
<path d="M1579 1888 c-21 -24 -39 -46 -39 -50 0 -3 -19 -17 -42 -31 -24 -14
-61 -40 -83 -57 -22 -18 -58 -41 -80 -52 -91 -43 -163 -91 -192 -128 -21 -26
-15 -66 12 -84 33 -22 37 -21 78 17 52 46 94 77 104 77 5 0 39 23 77 50 38 28
73 50 77 50 5 0 9 -17 9 -38 0 -31 -7 -43 -41 -72 -22 -19 -50 -43 -61 -54
-11 -10 -70 -43 -130 -73 -60 -30 -112 -61 -115 -68 -3 -8 -11 -15 -18 -15 -7
0 -18 -7 -25 -15 -16 -20 4 -72 31 -80 26 -9 75 3 90 21 7 8 43 33 80 55 37
23 73 47 80 55 6 8 15 14 20 14 11 0 12 -37 1 -44 -13 -8 -39 -110 -57 -226
-12 -75 -23 -111 -37 -127 -18 -19 -19 -25 -7 -39 17 -21 22 -244 5 -244 -24
0 -126 87 -126 107 0 7 -6 13 -13 13 -17 0 -77 82 -77 106 0 9 9 35 19 58 11
23 25 56 31 74 7 17 16 32 21 32 5 0 9 11 9 25 0 19 -7 26 -37 34 -52 15 -64
13 -90 -8 -15 -12 -23 -30 -23 -50 0 -17 -9 -48 -20 -68 -11 -21 -20 -43 -20
-50 0 -6 -5 -13 -10 -15 -32 -10 -72 -402 -87 -831 l-5 -158 158 3 c156 3 160
4 220 35 33 17 89 41 123 53 78 26 248 50 276 39 11 -4 36 -10 56 -14 21 -3
42 -12 49 -20 22 -26 50 -18 65 19 20 47 0 118 -84 301 -75 165 -92 189 -103
147 -7 -25 18 -230 32 -266 18 -48 8 -56 -65 -56 -133 0 -285 -38 -375 -93
-50 -31 -126 -56 -194 -63 l-59 -7 7 139 c20 396 46 586 80 583 6 0 38 -33 72
-72 46 -54 83 -85 149 -124 111 -66 121 -69 135 -43 14 27 16 83 5 241 -4 69
-5 138 -1 154 6 25 10 27 44 20 45 -8 70 -23 162 -100 39 -33 89 -73 110 -90
21 -16 54 -43 73 -58 31 -25 38 -27 56 -15 23 14 28 43 10 54 -8 5 -4 12 10
23 18 14 20 21 13 41 -5 14 -13 57 -17 95 -4 39 -11 77 -15 86 -17 32 -58 314
-52 352 12 67 -1 372 -17 390 -19 24 -55 21 -87 -6 -26 -23 -26 -24 -26 -158
1 -74 5 -154 11 -179 6 -25 11 -65 11 -90 0 -46 17 -149 50 -300 10 -47 17
-87 15 -89 -3 -2 -35 15 -72 37 -69 41 -198 92 -233 92 -10 0 -22 4 -25 10 -9
14 22 186 45 248 11 29 20 59 20 67 0 8 14 34 30 58 17 25 30 52 30 60 0 9 5
19 10 22 6 3 10 31 10 61 0 49 -3 55 -25 64 -29 11 -33 40 -7 47 9 3 37 35 61
71 33 52 43 77 45 112 1 42 -1 45 -27 48 -22 3 -36 -5 -68 -40z"/>
</g>
</svg>
