<?xml version="1.0" standalone="no"?>
<!DOCTYPE svg PUBLIC "-//W3C//DTD SVG 20010904//EN"
 "http://www.w3.org/TR/2001/REC-SVG-20010904/DTD/svg10.dtd">
<svg version="1.0" xmlns="http://www.w3.org/2000/svg"
 width="205.000000pt" height="200.000000pt" viewBox="0 0 205.000000 200.000000"
 preserveAspectRatio="xMidYMid meet">
<metadata>
Created by potrace 1.16, written by Peter Selinger 2001-2019
</metadata>
<g transform="translate(0.000000,200.000000) scale(0.100000,-0.100000)"
fill="#000000" stroke="none">
<path d="M807 1801 c-26 -22 -28 -28 -21 -65 17 -93 -6 -228 -56 -330 -11 -23
-20 -47 -20 -52 0 -6 -11 -25 -25 -43 -13 -19 -50 -85 -82 -148 -57 -114 -132
-213 -159 -213 -24 0 -187 -175 -218 -234 -26 -48 -29 -60 -20 -93 6 -28 15
-39 31 -41 29 -4 112 41 132 71 16 25 75 94 143 171 67 75 73 37 50 -279 -7
-93 -14 -185 -17 -203 -5 -39 20 -56 41 -27 38 51 81 254 91 421 6 105 5 113
-21 171 l-28 61 37 68 c20 38 49 92 64 119 16 28 43 77 61 110 18 33 43 76 55
95 31 50 49 92 85 200 39 115 38 178 -5 235 -22 28 -33 35 -58 33 -17 -1 -44
-13 -60 -27z m-427 -991 c0 -10 -21 -38 -55 -75 -11 -11 -28 -33 -38 -48 -9
-15 -22 -27 -27 -27 -15 0 13 50 53 93 19 20 38 44 41 52 6 17 26 20 26 5z"/>
<path d="M1175 1500 c-16 -18 -17 -33 -11 -156 4 -74 9 -141 12 -149 8 -20
-43 -62 -126 -103 -94 -47 -160 -85 -227 -130 -57 -37 -67 -67 -38 -106 25
-33 69 -23 140 31 67 51 217 139 225 132 8 -6 0 -110 -10 -144 -5 -16 -19 -75
-31 -130 -12 -55 -33 -143 -46 -195 -14 -52 -29 -118 -33 -145 -4 -28 -15 -79
-24 -113 -29 -113 -20 -163 30 -181 131 -47 295 -3 479 130 125 90 115 73 115
203 0 114 -10 166 -38 199 -28 32 -43 -1 -55 -126 -9 -88 -17 -120 -31 -136
-11 -12 -24 -21 -31 -21 -7 0 -23 -12 -36 -28 -62 -71 -189 -133 -267 -130
-71 2 -77 12 -59 94 9 38 21 94 27 124 7 30 25 111 41 180 41 179 66 306 74
375 10 97 48 185 80 185 6 0 36 22 66 48 29 27 78 65 106 85 29 19 65 49 79
66 26 32 27 61 0 61 -21 0 -186 -91 -231 -127 -37 -31 -74 -52 -78 -46 -3 5
-5 49 -6 99 -2 87 -1 92 23 108 33 21 33 32 -4 51 -41 21 -93 19 -115 -5z"/>
</g>
</svg>
