<?xml version="1.0" standalone="no"?>
<!DOCTYPE svg PUBLIC "-//W3C//DTD SVG 20010904//EN"
 "http://www.w3.org/TR/2001/REC-SVG-20010904/DTD/svg10.dtd">
<svg version="1.0" xmlns="http://www.w3.org/2000/svg"
 width="209.000000pt" height="200.000000pt" viewBox="0 0 209.000000 200.000000"
 preserveAspectRatio="xMidYMid meet">
<metadata>
Created by potrace 1.16, written by Peter Selinger 2001-2019
</metadata>
<g transform="translate(0.000000,200.000000) scale(0.100000,-0.100000)"
fill="#000000" stroke="none">
<path d="M859 1882 c-19 -25 -32 -78 -50 -217 -27 -203 -38 -264 -63 -345 -14
-47 -29 -123 -33 -169 l-8 -85 -70 -48 c-38 -26 -78 -57 -90 -68 -11 -11 -36
-33 -55 -48 -20 -15 -67 -61 -104 -102 -38 -41 -84 -88 -103 -104 -19 -16 -41
-45 -48 -64 -8 -18 -26 -48 -40 -64 -28 -33 -31 -76 -5 -88 8 -4 25 -12 38
-19 12 -6 22 -7 22 -2 0 5 14 11 30 15 24 4 34 14 46 43 9 21 24 56 35 79 10
22 19 43 19 47 0 12 32 48 157 173 67 67 132 128 144 134 l22 12 -7 -78 c-11
-129 -26 -232 -52 -350 -18 -84 -24 -142 -24 -232 0 -132 10 -172 44 -172 47
0 50 10 57 182 4 90 11 175 17 189 13 32 48 268 62 419 11 120 18 136 88 204
17 18 32 37 32 43 0 22 -34 24 -61 4 -50 -37 -49 -3 2 200 16 64 36 158 45
210 8 51 19 98 23 103 5 6 12 27 16 46 4 19 20 55 37 79 26 36 29 48 22 70 -9
24 -14 26 -68 26 -49 0 -61 -4 -77 -23z"/>
<path d="M1272 1732 c-31 -26 -32 -30 -32 -97 0 -88 -36 -506 -50 -588 -6 -34
-22 -103 -36 -153 -13 -51 -31 -125 -39 -165 -8 -41 -24 -118 -35 -172 -27
-131 -27 -210 0 -237 16 -16 33 -20 90 -20 70 0 101 9 156 45 48 32 126 97
155 130 15 17 46 50 69 75 50 53 150 202 150 222 0 8 4 18 9 23 6 6 13 33 16
60 6 44 4 54 -17 78 -36 41 -52 36 -44 -16 6 -37 2 -53 -23 -100 -16 -31 -34
-62 -40 -69 -6 -7 -39 -47 -74 -89 -59 -73 -177 -189 -191 -189 -4 0 -32 -16
-63 -36 -30 -19 -65 -34 -77 -32 -19 3 -21 8 -19 78 1 41 10 113 21 160 11 47
35 147 53 223 l32 137 53 0 c30 0 54 4 54 8 0 5 -13 18 -30 30 -33 25 -36 38
-17 76 19 35 53 68 107 101 91 55 110 70 110 88 0 9 -7 17 -15 17 -15 0 -91
-24 -140 -45 -75 -31 -88 -35 -92 -31 -3 2 2 70 11 150 9 80 16 172 16 204 0
50 4 62 25 80 26 23 33 42 14 42 -6 0 -22 9 -36 20 -32 25 -31 25 -71 -8z"/>
<path d="M445 1252 c-26 -5 -55 -31 -55 -49 0 -7 11 -34 25 -61 13 -26 37 -78
54 -117 16 -38 35 -70 41 -70 7 0 19 20 27 44 13 39 13 49 -1 92 -21 62 -20
76 4 82 13 3 20 14 20 29 0 20 -8 27 -47 39 -27 8 -57 13 -68 11z"/>
</g>
</svg>
