<?xml version="1.0" standalone="no"?>
<!DOCTYPE svg PUBLIC "-//W3C//DTD SVG 20010904//EN"
 "http://www.w3.org/TR/2001/REC-SVG-20010904/DTD/svg10.dtd">
<svg version="1.0" xmlns="http://www.w3.org/2000/svg"
 width="206.000000pt" height="204.000000pt" viewBox="0 0 206.000000 204.000000"
 preserveAspectRatio="xMidYMid meet">
<metadata>
Created by potrace 1.16, written by Peter Selinger 2001-2019
</metadata>
<g transform="translate(0.000000,204.000000) scale(0.100000,-0.100000)"
fill="#000000" stroke="none">
<path d="M1040 1682 c-8 -3 -44 -25 -80 -50 -69 -48 -265 -150 -340 -177 -63
-23 -181 -55 -206 -55 -24 0 -47 -30 -57 -72 -5 -20 -1 -34 16 -54 20 -23 33
-28 76 -29 l53 -1 3 -220 c3 -161 0 -244 -11 -314 -9 -52 -19 -124 -24 -160
-14 -105 -26 -159 -65 -272 -40 -119 -39 -130 15 -168 l30 -22 43 44 c39 40
80 64 315 184 46 23 91 49 100 57 9 8 33 23 52 32 19 10 44 26 55 36 11 10 31
27 44 37 15 12 21 23 16 32 -14 23 -93 3 -174 -44 -42 -25 -89 -50 -106 -56
-16 -6 -46 -21 -65 -33 -45 -28 -135 -65 -179 -73 -29 -6 -33 -4 -28 12 45
156 78 421 83 649 2 104 6 202 10 217 3 16 28 51 56 79 40 40 49 56 45 75 -4
21 4 32 51 66 30 23 71 50 91 62 131 77 243 197 204 219 -5 2 -15 2 -23 -1z"/>
<path d="M1066 1259 c-16 -13 -26 -30 -26 -47 0 -29 -26 -185 -37 -217 -3 -11
-14 -40 -25 -64 l-19 -44 -38 37 c-22 21 -42 51 -45 67 -5 27 -9 29 -50 29
-27 0 -52 -7 -66 -18 -21 -17 -22 -21 -11 -55 8 -24 28 -48 59 -71 26 -19 62
-50 81 -69 l33 -35 -22 -69 c-13 -37 -26 -72 -30 -78 -4 -5 -17 -40 -30 -78
-16 -46 -21 -70 -13 -78 13 -13 51 36 99 132 56 111 76 128 113 95 35 -30 146
-57 222 -54 105 4 100 24 -17 64 -105 35 -104 35 -169 88 l-30 24 37 109 c20
59 44 140 54 178 12 53 25 79 50 106 33 34 34 36 16 52 -27 25 -102 22 -136
-4z"/>
</g>
</svg>
