<?xml version="1.0" standalone="no"?>
<!DOCTYPE svg PUBLIC "-//W3C//DTD SVG 20010904//EN"
 "http://www.w3.org/TR/2001/REC-SVG-20010904/DTD/svg10.dtd">
<svg version="1.0" xmlns="http://www.w3.org/2000/svg"
 width="209.000000pt" height="204.000000pt" viewBox="0 0 209.000000 204.000000"
 preserveAspectRatio="xMidYMid meet">
<metadata>
Created by potrace 1.16, written by Peter Selinger 2001-2019
</metadata>
<g transform="translate(0.000000,204.000000) scale(0.100000,-0.100000)"
fill="#000000" stroke="none">
<path d="M1052 1643 c-24 -3 -36 -11 -44 -31 -5 -15 -12 -112 -15 -217 -4
-157 -7 -192 -20 -200 -8 -5 -30 -19 -47 -30 -26 -17 -89 -41 -131 -51 -14 -3
-111 -42 -159 -64 -23 -10 -59 -22 -80 -26 -43 -7 -86 -43 -86 -69 0 -9 14
-30 30 -47 42 -42 56 -39 225 50 60 32 207 99 234 107 l24 7 -6 -63 c-4 -35
-11 -113 -17 -174 -6 -60 -17 -155 -25 -210 -18 -125 -31 -475 -17 -475 12 0
28 39 43 105 6 28 19 77 29 110 10 33 23 110 30 170 6 61 15 126 20 145 7 29
26 190 45 393 4 38 38 97 57 97 6 0 65 26 132 59 67 32 135 62 151 65 l30 6
-37 -33 c-38 -34 -48 -57 -25 -57 16 0 135 42 165 59 28 15 52 67 52 111 0 48
-34 55 -144 30 -41 -9 -88 -29 -300 -131 -68 -33 -68 -32 -63 89 7 142 14 171
49 208 43 45 35 69 -22 70 -25 1 -60 -1 -78 -3z"/>
</g>
</svg>
