<?xml version="1.0" standalone="no"?>
<!DOCTYPE svg PUBLIC "-//W3C//DTD SVG 20010904//EN"
 "http://www.w3.org/TR/2001/REC-SVG-20010904/DTD/svg10.dtd">
<svg version="1.0" xmlns="http://www.w3.org/2000/svg"
 width="206.000000pt" height="203.000000pt" viewBox="0 0 206.000000 203.000000"
 preserveAspectRatio="xMidYMid meet">
<metadata>
Created by potrace 1.16, written by Peter Selinger 2001-2019
</metadata>
<g transform="translate(0.000000,203.000000) scale(0.100000,-0.100000)"
fill="#000000" stroke="none">
<path d="M1163 2023 c-7 -2 -13 -11 -13 -18 0 -8 -7 -20 -15 -29 -9 -8 -29
-43 -45 -78 -28 -60 -50 -101 -115 -213 -25 -43 -79 -122 -183 -268 -13 -18
-47 -57 -76 -87 -29 -30 -84 -88 -121 -127 -38 -40 -72 -73 -76 -73 -4 0 -31
-16 -60 -36 -30 -20 -74 -46 -99 -57 -51 -23 -100 -57 -100 -69 0 -11 37 -10
44 1 3 4 25 11 48 13 87 11 270 120 387 231 106 101 130 128 156 173 29 50 81
101 92 90 4 -4 1 -48 -6 -99 -17 -129 -51 -358 -57 -385 -5 -25 -86 -82 -116
-82 -10 0 -36 -9 -57 -20 -21 -10 -41 -17 -44 -14 -3 3 -41 -10 -84 -30 -62
-28 -105 -39 -203 -52 -136 -18 -182 -35 -200 -72 -8 -19 -7 -30 6 -49 15 -23
19 -25 72 -18 32 4 62 11 68 16 6 5 49 14 95 20 75 9 123 25 257 84 18 8 40
15 50 15 9 1 35 7 57 15 21 8 41 13 42 11 2 -2 -1 -23 -7 -47 -6 -24 -24 -102
-40 -174 -16 -71 -35 -159 -43 -195 -56 -245 -68 -313 -58 -323 15 -15 24 -3
51 68 32 86 61 157 71 177 5 10 9 26 9 37 0 11 6 32 14 48 8 15 25 73 37 128
37 165 79 294 105 322 13 14 24 31 24 38 0 7 12 19 28 26 72 36 202 122 242
161 25 24 57 51 73 61 15 9 27 23 27 29 0 6 7 19 15 28 14 15 14 19 -2 39 -21
24 -59 20 -68 -8 -7 -22 -161 -132 -235 -169 -14 -6 -36 -20 -49 -29 l-24 -18
6 45 c8 55 31 206 51 320 11 69 19 88 40 105 34 27 26 53 -29 90 -25 17 -45
34 -45 39 0 13 54 96 63 96 4 0 7 7 7 15 0 8 15 32 34 52 18 21 41 53 50 71
10 19 33 54 52 79 19 25 42 59 50 74 l15 29 -78 -1 c-43 0 -84 -3 -90 -6z
m-576 -1239 c-3 -3 -12 -4 -19 -1 -8 3 -5 6 6 6 11 1 17 -2 13 -5z m-79 -16
c-3 -7 -11 -13 -18 -13 -7 0 -15 6 -17 13 -3 7 4 12 17 12 13 0 20 -5 18 -12z"/>
</g>
</svg>
