<?xml version="1.0" standalone="no"?>
<!DOCTYPE svg PUBLIC "-//W3C//DTD SVG 20010904//EN"
 "http://www.w3.org/TR/2001/REC-SVG-20010904/DTD/svg10.dtd">
<svg version="1.0" xmlns="http://www.w3.org/2000/svg"
 width="210.000000pt" height="206.000000pt" viewBox="0 0 210.000000 206.000000"
 preserveAspectRatio="xMidYMid meet">
<metadata>
Created by potrace 1.16, written by Peter Selinger 2001-2019
</metadata>
<g transform="translate(0.000000,206.000000) scale(0.100000,-0.100000)"
fill="#000000" stroke="none">
<path d="M1015 2038 c-12 -41 -34 -85 -50 -98 -8 -7 -15 -18 -15 -24 0 -6 -15
-34 -32 -61 -18 -28 -40 -64 -48 -80 -8 -17 -47 -75 -86 -130 -39 -55 -97
-138 -128 -185 -93 -139 -150 -218 -184 -253 -18 -18 -29 -36 -26 -40 16 -16
43 -5 75 31 19 20 62 62 95 94 32 31 66 64 75 75 9 10 25 25 36 34 11 9 27 27
36 39 9 13 19 21 22 18 10 -10 23 -112 30 -240 l8 -126 -72 -36 c-39 -20 -95
-51 -124 -69 -28 -18 -68 -39 -87 -46 -43 -16 -97 -39 -130 -56 -168 -87 -220
-125 -220 -164 0 -15 5 -32 12 -39 21 -21 82 -14 122 13 20 14 39 25 43 25 3
0 22 13 42 30 21 16 105 63 187 105 82 43 154 81 161 87 7 5 22 8 34 6 19 -2
23 -10 24 -48 3 -50 -29 -334 -43 -391 -5 -20 -10 -79 -11 -130 0 -52 -6 -119
-12 -149 -14 -70 -9 -110 14 -124 15 -9 22 -6 42 18 28 36 55 136 55 208 0 29
9 107 19 173 22 138 41 318 41 390 0 116 29 169 110 202 19 8 49 25 65 37 44
32 136 79 142 73 3 -3 0 -54 -7 -114 -6 -59 -13 -133 -15 -163 -2 -30 -11
-118 -19 -195 -30 -275 -35 -392 -19 -458 29 -126 79 -144 71 -25 -3 39 -2 86
2 106 7 31 20 139 46 377 23 213 40 312 76 445 23 84 23 85 81 123 60 40 67
58 41 95 -17 25 -50 29 -73 8 -9 -8 -25 -16 -36 -18 -19 -3 -20 3 -21 120 -2
143 -7 167 -35 182 -16 9 -27 7 -52 -8 -36 -21 -35 -9 -23 -215 l7 -128 -37
-15 c-21 -9 -52 -26 -68 -39 -56 -41 -177 -105 -201 -105 -30 0 -33 17 -41
223 -7 166 -7 168 14 174 29 7 39 41 16 57 -17 13 -16 16 14 62 34 53 91 132
108 151 24 25 75 113 84 143 16 54 0 70 -70 70 -52 0 -59 -2 -65 -22z"/>
</g>
</svg>
