<?xml version="1.0" standalone="no"?>
<!DOCTYPE svg PUBLIC "-//W3C//DTD SVG 20010904//EN"
 "http://www.w3.org/TR/2001/REC-SVG-20010904/DTD/svg10.dtd">
<svg version="1.0" xmlns="http://www.w3.org/2000/svg"
 width="207.000000pt" height="205.000000pt" viewBox="0 0 207.000000 205.000000"
 preserveAspectRatio="xMidYMid meet">
<metadata>
Created by potrace 1.16, written by Peter Selinger 2001-2019
</metadata>
<g transform="translate(0.000000,205.000000) scale(0.100000,-0.100000)"
fill="#000000" stroke="none">
<path d="M945 1870 c-30 -12 -85 -84 -133 -173 -23 -43 -60 -100 -83 -127 -23
-27 -52 -71 -65 -97 -14 -26 -40 -73 -59 -103 -19 -30 -41 -69 -50 -87 -70
-148 -105 -226 -105 -234 0 -5 -9 -23 -20 -41 -20 -34 -26 -68 -12 -68 13 0
67 61 96 107 14 23 38 53 53 67 14 14 36 44 47 66 37 74 140 230 151 230 12 0
18 -115 19 -335 l1 -119 -70 -37 c-178 -94 -337 -169 -358 -169 -8 0 -22 -9
-32 -20 -10 -11 -23 -20 -30 -20 -20 0 -45 -35 -45 -63 0 -45 63 -74 90 -41
12 14 68 42 80 40 3 0 21 9 41 22 20 12 43 22 52 22 8 0 28 10 44 23 38 31
179 101 190 94 9 -6 1 -134 -16 -252 -6 -38 -10 -97 -11 -131 0 -58 -21 -127
-64 -209 -20 -37 -7 -53 31 -39 16 5 35 24 45 44 38 76 58 130 58 159 0 16 4
32 9 35 4 3 11 34 15 68 3 35 13 106 21 158 8 52 17 121 20 152 9 85 62 144
195 215 30 17 75 44 100 62 88 62 121 82 129 77 17 -11 19 -66 10 -221 -5 -88
-12 -200 -14 -250 -3 -49 -15 -151 -26 -225 -11 -74 -25 -173 -30 -220 -5 -47
-11 -95 -14 -107 -3 -12 -8 -45 -11 -73 l-5 -51 43 3 43 3 13 60 c7 33 17 92
23 130 5 39 19 128 30 198 23 143 33 251 50 532 6 105 15 192 20 195 4 3 9 28
11 55 3 48 4 50 42 60 21 6 48 21 61 33 12 12 34 26 48 31 31 12 49 77 26 92
-20 12 -65 2 -109 -26 -21 -13 -50 -27 -64 -31 -15 -3 -29 -10 -32 -15 -19
-31 -29 10 -39 148 -5 72 -5 73 30 111 42 47 46 79 9 88 -35 9 -100 -1 -129
-20 -24 -16 -25 -21 -25 -117 0 -55 7 -134 16 -176 17 -85 15 -99 -20 -113
-14 -5 -60 -33 -103 -63 -43 -29 -105 -68 -138 -86 -33 -18 -64 -37 -69 -42
-28 -26 -34 -7 -35 121 -1 71 -4 136 -7 144 -3 8 -1 17 5 21 6 3 11 15 11 25
0 24 37 60 61 60 29 0 73 44 65 65 -6 16 -15 17 -72 12 -36 -4 -81 -12 -100
-19 -18 -6 -36 -9 -39 -6 -6 5 35 71 83 138 10 14 35 50 56 82 23 34 51 63 72
73 18 9 38 24 44 35 12 23 -2 65 -25 74 -23 8 -75 7 -100 -4z m-135 -1106 c0
-8 -4 -12 -10 -9 -5 3 -10 10 -10 16 0 5 5 9 10 9 6 0 10 -7 10 -16z"/>
</g>
</svg>
