<?xml version="1.0" standalone="no"?>
<!DOCTYPE svg PUBLIC "-//W3C//DTD SVG 20010904//EN"
 "http://www.w3.org/TR/2001/REC-SVG-20010904/DTD/svg10.dtd">
<svg version="1.0" xmlns="http://www.w3.org/2000/svg"
 width="207.000000pt" height="206.000000pt" viewBox="0 0 207.000000 206.000000"
 preserveAspectRatio="xMidYMid meet">
<metadata>
Created by potrace 1.16, written by Peter Selinger 2001-2019
</metadata>
<g transform="translate(0.000000,206.000000) scale(0.100000,-0.100000)"
fill="#000000" stroke="none">
<path d="M915 1918 c-30 -17 -36 -30 -31 -63 3 -16 8 -109 12 -206 l6 -176
-57 -18 c-31 -10 -71 -28 -89 -40 -17 -11 -53 -31 -79 -43 -48 -23 -75 -58
-64 -86 7 -19 92 -58 115 -54 9 2 23 21 30 42 17 53 46 86 93 108 23 10 43 18
45 18 2 0 4 -62 4 -138 l0 -139 -34 -35 c-19 -19 -64 -50 -101 -69 -71 -36
-155 -115 -155 -148 0 -22 44 -61 70 -61 9 0 36 23 59 50 24 28 65 62 92 76
l50 25 -3 -83 -3 -83 -50 -26 c-27 -15 -87 -46 -133 -68 -95 -48 -321 -175
-339 -190 -7 -6 -16 -11 -21 -11 -6 0 -32 -15 -60 -32 -57 -37 -66 -67 -30
-92 31 -22 67 -20 107 7 55 36 123 74 171 97 24 11 51 27 60 34 8 8 56 35 105
60 50 25 95 50 100 55 6 4 23 11 37 14 l27 7 -1 -92 c0 -51 0 -198 1 -325 l1
-233 53 0 53 0 -4 262 c-3 248 3 341 28 430 10 35 18 41 108 84 102 50 193
106 253 158 19 17 44 36 54 42 14 8 17 17 11 37 -8 34 -35 47 -48 24 -5 -10
-17 -17 -27 -17 -15 0 -63 -26 -127 -68 -46 -31 -186 -93 -202 -90 -14 3 -16
14 -13 72 5 105 31 147 115 190 37 19 82 45 99 59 18 13 42 27 55 31 12 4 27
16 32 27 6 10 17 19 25 19 8 0 20 8 27 18 7 9 32 33 56 51 49 38 69 76 51 97
-15 18 -67 -3 -119 -49 -61 -52 -286 -184 -297 -173 -5 5 24 53 44 74 7 7 13
17 13 22 0 5 14 25 31 44 42 48 70 88 120 171 44 74 110 130 159 137 21 3 25
8 25 38 l0 35 -65 0 c-98 0 -153 -39 -199 -140 -15 -33 -46 -91 -69 -129 -23
-37 -42 -71 -42 -75 0 -3 -9 -17 -19 -30 -18 -23 -18 -21 -25 165 -7 182 0
271 24 298 14 15 -11 64 -45 90 -38 29 -42 30 -70 14z"/>
</g>
</svg>
