<?xml version="1.0" standalone="no"?>
<!DOCTYPE svg PUBLIC "-//W3C//DTD SVG 20010904//EN"
 "http://www.w3.org/TR/2001/REC-SVG-20010904/DTD/svg10.dtd">
<svg version="1.0" xmlns="http://www.w3.org/2000/svg"
 width="207.000000pt" height="219.000000pt" viewBox="0 0 207.000000 219.000000"
 preserveAspectRatio="xMidYMid meet">
<metadata>
Created by potrace 1.16, written by Peter Selinger 2001-2019
</metadata>
<g transform="translate(0.000000,219.000000) scale(0.100000,-0.100000)"
fill="#000000" stroke="none">
<path d="M1380 1983 c-14 -6 -116 -69 -187 -116 -18 -12 -33 -27 -33 -32 0 -6
-9 -15 -19 -20 -11 -6 -49 -31 -86 -57 -36 -27 -69 -48 -73 -48 -4 0 -16 -14
-27 -32 l-19 -32 -7 28 c-5 16 -6 33 -2 39 5 8 8 41 16 167 2 32 -1 37 -42 56
-35 17 -51 20 -72 12 -31 -11 -54 -60 -40 -86 19 -35 68 -394 62 -447 -1 -11
-9 -24 -18 -30 -9 -5 -24 -17 -33 -26 -9 -8 -24 -18 -33 -22 -9 -3 -19 -18
-23 -33 -6 -23 -2 -32 22 -51 16 -12 35 -23 43 -23 8 0 73 39 145 88 149 99
137 91 194 137 51 41 64 44 58 13 -3 -13 -8 -45 -11 -73 -12 -87 -61 -117
-315 -196 -120 -37 -130 -43 -130 -75 0 -46 61 -56 151 -25 80 28 187 79 224
106 17 14 35 25 39 25 3 0 5 -43 4 -95 -1 -77 -4 -95 -16 -90 -7 3 -18 5 -23
5 -6 0 -7 9 -4 21 15 48 -58 59 -117 18 -14 -11 -29 -19 -33 -19 -10 0 -180
-130 -218 -165 -16 -15 -30 -25 -31 -24 -5 7 -26 173 -26 207 0 18 6 41 12 52
10 15 10 22 0 32 -15 15 -87 11 -123 -8 -32 -16 -36 -37 -15 -80 21 -40 45
-138 52 -204 3 -30 7 -65 10 -76 5 -30 33 -39 50 -17 10 14 15 16 25 6 29 -29
72 -15 134 43 32 31 74 68 93 82 19 14 48 39 64 54 34 32 58 36 58 11 1 -10 7
-58 15 -108 l14 -90 -27 -23 c-33 -28 -237 -164 -274 -183 -15 -8 -78 -45
-140 -82 -62 -37 -122 -73 -133 -80 -11 -7 -22 -15 -25 -18 -3 -4 -29 -18 -57
-33 -66 -33 -90 -65 -72 -98 7 -13 17 -26 23 -30 20 -14 61 -8 86 12 14 11 29
20 34 20 11 0 116 69 131 86 20 23 123 92 174 118 29 15 84 47 122 72 38 24
72 44 75 44 2 0 17 11 32 25 50 46 52 35 40 -180 -4 -77 -10 -206 -13 -288
l-5 -147 39 0 39 0 6 97 c3 54 13 188 21 298 8 110 15 218 15 241 0 77 15 99
101 150 43 25 87 56 97 68 9 12 44 37 77 56 33 18 81 51 108 73 30 25 53 37
63 33 25 -10 84 32 84 59 0 39 -22 49 -82 35 -57 -14 -79 -23 -100 -42 -16
-15 -38 -29 -93 -59 -22 -12 -55 -34 -73 -50 -18 -16 -37 -29 -42 -29 -4 0
-21 -10 -37 -23 -15 -13 -45 -34 -65 -46 l-38 -23 0 46 c0 33 4 46 14 46 8 0
24 15 35 34 18 28 20 43 15 100 -4 45 -2 72 6 81 7 8 10 24 7 36 -3 12 -2 29
3 38 5 9 19 66 30 126 25 130 68 251 112 316 14 21 16 38 12 73 -6 44 -8 46
-40 46 -24 0 -38 -7 -51 -26 -26 -38 -141 -154 -152 -154 -5 0 -12 -8 -15 -18
-4 -11 -19 -25 -34 -33 -15 -8 -29 -17 -32 -20 -14 -17 -157 -99 -172 -99 -17
0 -17 3 -5 33 8 17 15 56 16 86 1 30 3 57 6 59 2 2 16 -4 32 -15 27 -18 73
-20 73 -4 0 5 12 14 28 20 15 7 43 30 62 52 63 72 95 103 145 144 28 22 56 46
63 53 8 7 26 19 40 26 15 8 38 26 52 40 19 21 22 31 14 44 -12 18 -40 25 -64
15z"/>
</g>
</svg>
