<?xml version="1.0" standalone="no"?>
<!DOCTYPE svg PUBLIC "-//W3C//DTD SVG 20010904//EN"
 "http://www.w3.org/TR/2001/REC-SVG-20010904/DTD/svg10.dtd">
<svg version="1.0" xmlns="http://www.w3.org/2000/svg"
 width="205.000000pt" height="212.000000pt" viewBox="0 0 205.000000 212.000000"
 preserveAspectRatio="xMidYMid meet">
<metadata>
Created by potrace 1.16, written by Peter Selinger 2001-2019
</metadata>
<g transform="translate(0.000000,212.000000) scale(0.100000,-0.100000)"
fill="#000000" stroke="none">
<path d="M1197 1875 c-26 -7 -58 -20 -70 -28 -27 -17 -118 -44 -172 -50 -102
-12 -132 -64 -62 -110 21 -14 28 -13 73 2 68 24 98 38 179 79 126 64 130 67
130 93 0 29 -15 32 -78 14z"/>
<path d="M566 1839 c-35 -27 -33 -54 10 -163 32 -79 38 -105 42 -198 5 -121
-7 -158 -52 -158 -17 0 -26 -7 -30 -26 -10 -39 2 -62 34 -69 26 -6 31 -13 36
-46 5 -28 11 -39 24 -39 23 0 38 19 53 67 13 44 76 105 174 170 31 21 68 47
83 58 15 11 40 29 56 39 16 11 39 29 51 40 28 24 37 17 23 -18 -24 -64 -41
-181 -47 -327 l-6 -156 -41 -22 c-38 -20 -72 -42 -207 -132 -30 -19 -80 -51
-111 -69 -32 -19 -58 -37 -58 -40 0 -3 -11 -18 -25 -34 -14 -17 -23 -36 -20
-44 3 -7 5 -15 5 -18 0 -2 13 -10 28 -18 24 -12 33 -13 54 -2 l25 13 21 -120
c11 -67 19 -124 16 -128 -2 -5 -47 -32 -100 -61 -158 -88 -199 -111 -257 -150
-30 -20 -81 -49 -113 -64 -33 -15 -66 -35 -74 -44 -8 -10 -34 -27 -57 -38 -69
-36 -63 -42 45 -42 76 0 102 4 112 15 7 8 18 15 25 15 7 0 32 15 56 33 24 18
75 48 114 67 38 18 78 42 89 52 11 10 23 18 27 18 3 0 33 16 65 35 32 19 63
35 70 35 11 0 18 -59 28 -225 l2 -40 48 -3 47 -3 -1 143 c-1 79 2 157 7 173 9
30 24 40 123 83 19 9 44 24 55 33 11 9 43 24 70 32 28 8 72 27 99 41 28 15 54
25 59 23 6 -2 22 8 36 21 32 30 19 57 -29 58 -38 1 -223 -61 -296 -99 -57 -30
-131 -53 -140 -44 -4 4 -9 29 -12 56 -4 40 1 60 20 98 30 58 27 73 -15 73 -57
0 -61 13 -14 56 23 22 54 49 69 58 15 10 30 26 33 37 4 10 11 19 16 19 5 0 27
11 50 25 49 32 63 25 56 -28 -6 -44 6 -77 27 -77 33 0 59 131 76 385 14 201
24 246 85 371 40 81 46 101 43 146 -2 39 -7 54 -19 56 -17 3 -125 -64 -174
-108 -59 -53 -281 -197 -312 -202 -16 -3 -19 10 -24 132 -3 74 -9 142 -13 152
-4 9 -3 31 2 50 12 45 7 55 -39 78 -49 25 -70 25 -103 -1z m-106 -1633 c0 -3
-4 -8 -10 -11 -5 -3 -10 -1 -10 4 0 6 5 11 10 11 6 0 10 -2 10 -4z m-200 -120
c0 -20 -26 -40 -35 -26 -10 16 2 40 20 40 8 0 15 -6 15 -14z"/>
<path d="M840 1169 c-47 -15 -99 -28 -117 -29 -52 0 -120 -34 -125 -63 -6 -30
5 -53 33 -67 21 -12 83 9 224 76 40 19 77 34 83 34 16 0 33 35 26 53 -9 26
-36 25 -124 -4z"/>
<path d="M396 1073 c-27 -29 -28 -33 -7 -103 26 -88 42 -157 45 -185 1 -16 8
-71 16 -122 11 -72 17 -93 31 -96 39 -10 44 17 44 232 0 113 4 212 8 219 13
19 -17 58 -50 65 -15 3 -35 8 -44 12 -11 4 -26 -3 -43 -22z"/>
</g>
</svg>
