<?xml version="1.0" standalone="no"?>
<!DOCTYPE svg PUBLIC "-//W3C//DTD SVG 20010904//EN"
 "http://www.w3.org/TR/2001/REC-SVG-20010904/DTD/svg10.dtd">
<svg version="1.0" xmlns="http://www.w3.org/2000/svg"
 width="207.000000pt" height="205.000000pt" viewBox="0 0 207.000000 205.000000"
 preserveAspectRatio="xMidYMid meet">
<metadata>
Created by potrace 1.16, written by Peter Selinger 2001-2019
</metadata>
<g transform="translate(0.000000,205.000000) scale(0.100000,-0.100000)"
fill="#000000" stroke="none">
<path d="M1298 1998 c-3 -28 -3 -99 0 -158 l5 -105 -71 -57 c-39 -31 -83 -65
-99 -74 -15 -10 -57 -42 -93 -70 -36 -28 -83 -63 -105 -77 -22 -14 -52 -37
-67 -51 -15 -14 -33 -26 -41 -26 -40 0 -51 -69 -15 -94 12 -9 36 -16 52 -16
30 0 42 10 226 185 41 40 89 80 105 91 17 10 46 33 65 51 19 18 40 33 46 33 8
0 15 -31 21 -82 8 -71 7 -85 -6 -96 -9 -7 -50 -38 -91 -68 -137 -103 -169
-157 -115 -198 18 -13 23 -25 19 -41 -6 -26 16 -52 52 -61 18 -5 45 4 95 29
l69 36 1 -37 c3 -82 -7 -112 -45 -144 -27 -22 -36 -22 -51 -1 -12 16 -18 13
-63 -29 -28 -26 -73 -61 -100 -78 -52 -32 -68 -60 -51 -91 24 -45 44 -43 149
17 55 31 105 63 111 70 6 8 17 14 23 14 7 0 27 11 46 25 40 30 50 25 50 -23 0
-46 -19 -75 -73 -109 -23 -14 -62 -43 -87 -64 -41 -34 -240 -172 -317 -221
-18 -11 -33 -23 -33 -27 0 -3 -16 -15 -35 -25 -19 -11 -35 -23 -35 -27 0 -4
-35 -28 -77 -53 -43 -26 -105 -66 -138 -90 -55 -40 -61 -42 -67 -25 -8 21 22
251 47 364 35 154 64 399 70 588 l3 88 49 44 c26 23 55 50 63 59 77 85 77 85
120 150 32 50 8 55 -53 11 -52 -37 -140 -110 -169 -138 -15 -16 -32 -26 -37
-23 -12 8 -24 129 -16 174 5 32 11 40 37 48 18 5 33 14 35 21 6 17 -40 44 -79
48 -18 1 -37 4 -43 5 -24 6 -55 -1 -70 -17 -19 -18 -15 -86 9 -178 17 -61 28
-169 20 -190 -3 -8 -10 -15 -15 -15 -5 0 -33 -20 -63 -44 -29 -23 -80 -60
-112 -81 -32 -21 -71 -46 -86 -56 -15 -10 -52 -30 -82 -43 -52 -23 -56 -27
-56 -59 0 -20 7 -41 18 -50 46 -42 133 -3 264 117 23 21 59 50 80 64 21 13 38
29 38 33 0 5 6 9 14 9 20 0 23 -30 14 -180 -7 -140 -17 -210 -48 -345 -24
-102 -37 -204 -50 -376 -6 -75 -15 -160 -20 -189 -6 -29 -10 -57 -10 -61 0 -5
20 -9 44 -9 46 0 56 10 56 52 0 16 5 19 25 16 30 -6 86 27 160 94 46 41 85 68
100 68 3 0 3 -10 0 -23 -4 -15 1 -32 13 -48 18 -21 29 -24 105 -26 129 -4 258
-45 343 -109 27 -21 42 -24 116 -24 l85 0 -12 48 c-22 84 -26 257 -10 382 25
188 45 284 64 303 6 6 11 18 11 27 0 18 40 60 56 60 6 0 20 10 32 23 11 12 39
36 62 52 131 95 150 143 53 135 -29 -2 -29 10 -2 92 17 51 22 95 25 238 3 123
11 208 26 287 12 62 20 114 17 117 -2 2 -26 0 -54 -4 -27 -4 -52 -6 -54 -4 -3
3 -8 44 -11 92 -6 82 0 144 15 185 6 15 0 17 -49 17 -60 0 -76 -13 -76 -64 0
-25 -44 -76 -66 -76 -10 0 -44 57 -44 74 0 4 -10 20 -22 36 -20 27 -27 30 -79
30 l-56 0 -5 -52z m276 -175 c4 -32 12 -79 18 -106 l12 -47 -41 -38 c-113
-102 -126 -103 -139 -4 -9 71 1 133 22 149 26 19 35 16 47 -17 7 -19 18 -29
27 -27 15 3 15 12 4 74 -7 34 18 89 35 78 5 -2 12 -31 15 -62z m-142 25 c-7
-7 -12 -8 -12 -2 0 6 3 14 7 17 3 4 9 5 12 2 2 -3 -1 -11 -7 -17z m196 -338
c2 -14 9 -31 15 -38 29 -36 17 -432 -16 -496 -8 -17 -13 -15 -48 25 -44 51
-46 62 -19 96 19 25 28 73 13 73 -5 0 -30 -18 -58 -40 -67 -53 -75 -52 -75 14
0 45 5 60 33 97 64 84 68 110 11 89 -15 -6 -28 -9 -29 -8 -2 2 -6 21 -9 44 -7
38 -5 44 25 70 18 16 47 43 64 60 50 51 88 56 93 14z m-278 -225 c0 -20 -11
-30 -60 -55 -33 -16 -64 -30 -71 -30 -16 0 37 61 79 91 42 30 52 28 52 -6z
m30 -628 c0 -8 -22 -124 -26 -139 -4 -15 -61 -46 -236 -127 -37 -17 -72 -31
-77 -31 -5 0 -32 -12 -60 -27 -28 -14 -54 -23 -57 -20 -7 7 28 42 63 62 15 8
64 43 108 76 44 33 97 71 118 85 20 13 37 29 37 34 0 6 7 10 16 10 8 0 33 18
55 40 34 34 59 50 59 37z m-34 -253 c-4 -15 -7 -89 -7 -165 l0 -139 -43 25
c-23 14 -49 25 -57 25 -8 0 -31 9 -52 20 -21 11 -65 23 -98 27 -33 3 -62 9
-64 14 -6 9 52 59 70 59 7 0 18 7 25 15 7 9 43 32 79 52 36 20 81 49 99 65 41
35 56 36 48 2z m-476 -134 c0 -5 -5 -10 -11 -10 -5 0 -7 5 -4 10 3 6 8 10 11
10 2 0 4 -4 4 -10z"/>
<path d="M1045 1160 c-3 -5 -13 -10 -21 -10 -9 0 -38 -10 -65 -21 -42 -18 -49
-25 -49 -50 0 -15 4 -30 9 -34 25 -15 71 -115 71 -154 0 -35 3 -41 24 -47 32
-8 40 -2 60 41 18 38 14 94 -10 130 -18 25 -18 56 1 81 19 25 20 74 1 74 -8 0
-18 -4 -21 -10z"/>
</g>
</svg>
