<?xml version="1.0" standalone="no"?>
<!DOCTYPE svg PUBLIC "-//W3C//DTD SVG 20010904//EN"
 "http://www.w3.org/TR/2001/REC-SVG-20010904/DTD/svg10.dtd">
<svg version="1.0" xmlns="http://www.w3.org/2000/svg"
 width="208.000000pt" height="205.000000pt" viewBox="0 0 208.000000 205.000000"
 preserveAspectRatio="xMidYMid meet">
<metadata>
Created by potrace 1.16, written by Peter Selinger 2001-2019
</metadata>
<g transform="translate(0.000000,205.000000) scale(0.100000,-0.100000)"
fill="#000000" stroke="none">
<path d="M1655 2032 c-52 -21 -63 -36 -71 -102 -6 -55 -7 -55 -82 -112 -42
-32 -84 -58 -94 -58 -18 0 -20 7 -23 65 -1 17 -5 41 -10 55 -7 22 -6 23 8 12
9 -8 21 -11 27 -7 5 3 10 1 10 -4 0 -6 9 -11 20 -11 26 0 25 6 -5 46 -14 18
-25 37 -25 42 0 5 -15 15 -32 22 -18 7 -43 17 -55 23 -30 14 -87 -3 -91 -28
-4 -18 22 -121 39 -160 6 -11 16 -46 23 -77 12 -51 11 -59 -3 -72 -36 -32
-152 -116 -247 -178 -56 -37 -107 -74 -114 -83 -7 -8 -27 -22 -44 -30 -45 -21
-86 -63 -86 -86 0 -11 12 -31 27 -45 22 -20 32 -23 61 -18 34 7 122 60 122 74
0 21 77 103 127 135 32 21 80 58 107 82 61 55 81 55 97 3 11 -37 10 -42 -12
-66 -23 -25 -89 -63 -218 -127 -31 -15 -63 -31 -71 -36 -22 -12 -24 -48 -5
-78 13 -19 23 -24 43 -20 40 8 94 30 122 50 45 32 165 107 173 107 4 0 7 -15
7 -34 0 -35 -27 -66 -58 -66 -7 0 -34 -17 -60 -38 -26 -21 -59 -43 -73 -49
-51 -22 -37 -93 18 -93 30 0 93 21 93 30 0 12 89 70 94 62 5 -9 -10 -129 -20
-156 -6 -15 -87 -76 -101 -76 -4 0 -14 -6 -22 -14 -9 -8 -37 -25 -63 -38 -60
-30 -128 -93 -128 -118 0 -44 88 -51 125 -10 10 11 24 20 30 20 7 0 18 7 25
15 7 8 32 24 57 35 24 10 63 35 87 55 50 41 49 41 61 -51 6 -50 6 -50 -34 -77
-22 -15 -63 -44 -89 -65 -27 -20 -85 -64 -128 -98 -159 -123 -189 -144 -201
-144 -6 0 -13 -3 -15 -7 -1 -5 -32 -26 -68 -47 -36 -22 -72 -45 -81 -53 -9 -7
-43 -30 -75 -50 -115 -69 -124 -74 -129 -61 -14 43 -10 294 6 408 9 69 22 208
28 310 13 221 18 258 37 268 7 4 20 41 29 81 10 49 22 79 35 88 10 7 25 20 33
27 13 13 91 57 240 134 49 26 73 54 62 72 -14 23 -93 4 -152 -36 -18 -12 -49
-25 -70 -29 -37 -7 -111 -44 -147 -74 -18 -16 -18 -13 -14 77 2 52 9 97 16
104 7 7 12 26 12 44 0 28 4 32 35 38 19 4 37 12 41 17 10 18 -32 52 -65 53
-17 1 -31 4 -31 9 0 18 -68 6 -89 -17 -21 -22 -23 -35 -26 -177 -3 -85 -5
-169 -5 -187 0 -29 -5 -35 -52 -58 -29 -14 -71 -36 -93 -48 -22 -12 -66 -31
-98 -41 -89 -28 -112 -77 -58 -128 30 -28 49 -33 67 -19 5 4 34 16 64 26 30
11 75 30 99 44 l44 26 -7 -160 c-10 -228 -24 -400 -37 -467 -11 -56 -9 -180 7
-455 7 -113 21 -136 55 -94 10 13 29 22 44 22 14 0 41 11 59 25 31 23 40 25
154 25 111 0 123 -2 149 -23 15 -13 57 -41 92 -63 64 -39 66 -39 175 -42 102
-2 109 -1 80 12 -17 8 -51 28 -74 45 -24 17 -50 31 -58 31 -17 0 -119 57 -128
71 -7 12 24 49 41 49 6 0 22 11 35 25 13 14 30 25 38 25 7 0 31 17 51 38 21
21 52 47 69 58 31 19 92 90 92 105 0 15 -28 10 -67 -12 -49 -27 -105 -61 -118
-71 -32 -26 -97 -64 -141 -84 -61 -27 -160 -54 -168 -46 -9 8 15 32 48 48 34
15 67 38 165 111 35 27 73 55 86 63 13 9 58 45 100 80 105 88 112 93 125 85
10 -6 8 -179 -5 -512 l-5 -123 55 0 55 0 0 228 c1 249 7 369 21 422 5 19 9 47
9 62 0 29 76 105 139 139 130 69 116 141 -15 80 -36 -17 -78 -40 -94 -51 -16
-11 -31 -17 -33 -13 -12 20 -18 151 -8 157 21 13 11 35 -39 86 -61 62 -67 103
-22 145 27 25 60 41 68 32 3 -2 8 -59 11 -126 8 -167 32 -195 72 -85 17 43 21
78 21 167 0 84 5 124 18 160 l19 48 15 -23 c13 -19 19 -21 35 -12 32 19 39 59
20 112 -25 69 -22 92 24 171 49 86 51 124 4 129 -29 3 -46 -8 -83 -53 -23 -28
-32 -6 -27 66 5 65 26 119 46 119 7 0 29 62 29 83 0 12 -73 6 -115 -11z m-56
-302 l12 -55 -38 -33 c-70 -60 -125 -94 -133 -82 -4 7 -7 37 -6 66 l1 55 70
59 c39 32 73 55 76 52 3 -4 11 -32 18 -62z m-4 -255 c-23 -86 -32 -102 -62
-109 -15 -4 -36 -9 -45 -12 -15 -5 -18 1 -18 39 0 39 5 48 43 84 49 46 79 65
89 55 4 -4 1 -29 -7 -57z"/>
<path d="M855 1083 c-37 -10 -61 -72 -35 -88 6 -4 24 -34 41 -68 17 -34 37
-74 45 -88 7 -14 20 -62 27 -105 12 -69 16 -79 35 -82 14 -2 24 3 28 15 3 10
10 26 15 35 13 26 11 101 -5 150 -48 153 -50 167 -31 188 30 33 13 50 -47 49
-29 -1 -62 -4 -73 -6z"/>
</g>
</svg>
