<?xml version="1.0" standalone="no"?>
<!DOCTYPE svg PUBLIC "-//W3C//DTD SVG 20010904//EN"
 "http://www.w3.org/TR/2001/REC-SVG-20010904/DTD/svg10.dtd">
<svg version="1.0" xmlns="http://www.w3.org/2000/svg"
 width="209.000000pt" height="205.000000pt" viewBox="0 0 209.000000 205.000000"
 preserveAspectRatio="xMidYMid meet">
<metadata>
Created by potrace 1.16, written by Peter Selinger 2001-2019
</metadata>
<g transform="translate(0.000000,205.000000) scale(0.100000,-0.100000)"
fill="#000000" stroke="none">
<path d="M970 1980 c0 -15 -212 -169 -302 -220 -43 -24 -78 -47 -78 -52 0 -5
-21 -18 -47 -29 -26 -11 -50 -23 -53 -27 -6 -8 -64 -32 -96 -39 -34 -8 -57
-75 -35 -98 25 -28 79 -257 87 -373 l7 -92 -37 -34 c-44 -42 -49 -85 -12 -113
l25 -18 -24 -130 c-28 -153 -94 -396 -124 -458 -11 -24 -21 -48 -21 -55 0 -6
-13 -26 -30 -44 -35 -38 -38 -70 -9 -99 22 -22 50 -19 82 9 10 9 71 42 135 74
l117 57 7 -90 c6 -92 17 -119 49 -119 21 0 39 52 39 113 0 50 19 128 37 148 8
9 35 25 61 34 26 10 52 22 58 27 7 5 38 15 70 24 33 8 63 19 68 25 6 5 36 9
67 9 66 0 85 14 70 53 -19 48 -131 49 -264 1 -40 -14 -79 -28 -88 -31 -15 -4
-16 10 -12 143 2 81 6 150 8 153 3 2 5 27 5 55 1 28 7 62 15 76 19 33 19 69 0
76 -9 4 -33 2 -55 -4 -59 -15 -51 2 40 87 44 40 80 82 80 92 0 10 4 20 10 24
5 3 7 12 4 19 -4 10 5 16 28 21 33 7 52 22 137 106 25 25 53 48 61 51 9 3 21
22 27 42 9 30 9 39 -4 52 -26 26 -72 6 -164 -71 -32 -27 -101 -73 -198 -132
-46 -28 -65 -41 -109 -75 -35 -28 -52 -35 -52 -20 -1 23 -31 312 -36 340 -6
29 -3 33 23 43 17 5 36 20 42 32 14 25 88 87 103 87 16 0 3 -156 -22 -260 -28
-114 -31 -165 -11 -165 8 0 25 20 37 45 38 76 93 247 87 269 -3 12 0 28 7 35
6 8 15 58 19 111 5 79 10 99 25 107 24 13 136 132 159 169 18 27 16 49 -4 49
-5 0 -9 -5 -9 -10z m-358 -1237 c3 -153 1 -280 -6 -317 -6 -29 -15 -38 -64
-62 -31 -16 -74 -39 -94 -51 -21 -13 -40 -23 -43 -23 -11 0 -4 35 30 153 20
67 45 169 55 227 14 73 25 108 37 115 9 6 26 20 37 31 39 41 46 31 48 -73z
m-172 -493 c0 -5 -4 -10 -10 -10 -5 0 -10 5 -10 10 0 6 5 10 10 10 6 0 10 -4
10 -10z"/>
<path d="M1335 1629 c-89 -29 -90 -30 -70 -135 29 -151 43 -366 34 -504 -9
-138 -24 -262 -38 -318 -11 -41 -33 -165 -56 -317 -17 -110 -58 -270 -75 -290
-6 -7 -8 -25 -4 -39 13 -55 86 -17 120 64 27 62 62 212 79 335 9 66 19 123 21
127 3 4 28 -3 57 -15 29 -13 87 -31 129 -41 58 -14 87 -27 118 -53 22 -19 47
-33 54 -30 19 8 26 55 11 83 -12 24 -167 114 -197 114 -7 1 -23 9 -36 20 -20
17 -22 25 -16 69 5 42 4 52 -10 57 -11 4 -26 -2 -40 -15 -13 -13 -26 -18 -30
-13 -3 5 0 49 6 98 15 120 18 397 6 514 -17 165 -17 183 2 215 25 40 30 89 10
91 -8 1 -42 -7 -75 -17z"/>
</g>
</svg>
