<?xml version="1.0" standalone="no"?>
<!DOCTYPE svg PUBLIC "-//W3C//DTD SVG 20010904//EN"
 "http://www.w3.org/TR/2001/REC-SVG-20010904/DTD/svg10.dtd">
<svg version="1.0" xmlns="http://www.w3.org/2000/svg"
 width="208.000000pt" height="207.000000pt" viewBox="0 0 208.000000 207.000000"
 preserveAspectRatio="xMidYMid meet">
<metadata>
Created by potrace 1.16, written by Peter Selinger 2001-2019
</metadata>
<g transform="translate(0.000000,207.000000) scale(0.100000,-0.100000)"
fill="#000000" stroke="none">
<path d="M851 1994 c-18 -42 -42 -92 -55 -113 -19 -31 -45 -87 -111 -246 -51
-122 -71 -165 -94 -200 -40 -60 -195 -375 -188 -381 9 -10 60 31 90 73 15 21
42 58 60 82 17 24 46 65 62 92 80 129 115 188 115 193 0 4 9 25 19 49 11 23
33 75 51 115 17 40 40 88 51 107 l21 35 25 -20 c14 -11 31 -20 37 -20 6 0 17
-4 25 -9 24 -15 -63 -178 -105 -198 -30 -15 -32 -19 -38 -92 -9 -106 -59 -303
-105 -419 -22 -53 -51 -126 -64 -162 -42 -110 -92 -222 -125 -280 -63 -111
-302 -580 -302 -592 0 -5 18 -8 39 -8 38 0 41 3 72 58 18 31 39 61 46 65 7 4
13 12 13 16 0 4 23 50 51 102 111 202 229 433 229 446 0 16 74 163 82 163 10
0 12 -51 9 -175 -2 -83 -19 -169 -66 -329 -13 -47 -13 -52 7 -84 12 -20 37
-41 62 -51 106 -46 299 -68 421 -50 189 28 219 35 293 70 35 16 66 29 70 29 6
0 153 65 202 90 23 11 26 133 4 189 -14 36 -15 61 -9 140 11 150 10 183 -10
197 -29 21 -42 6 -70 -83 -24 -76 -26 -98 -22 -187 2 -56 8 -111 12 -123 14
-43 -54 -89 -250 -168 -112 -45 -288 -64 -417 -45 -90 13 -165 42 -175 67 -6
15 31 181 48 214 7 13 16 15 42 10 43 -10 66 -1 114 46 40 38 143 193 143 215
0 6 11 25 23 42 13 17 54 90 91 161 37 72 75 139 84 150 28 33 62 84 62 93 0
4 13 21 30 37 16 15 32 41 35 56 4 16 11 32 16 35 6 3 24 24 40 46 22 32 29
52 29 88 0 83 -20 84 -159 12 -79 -41 -121 -69 -162 -107 -8 -8 -34 -25 -56
-37 -62 -36 -154 -97 -195 -132 -93 -78 -128 -98 -128 -73 0 15 43 147 65 200
7 17 30 42 51 57 22 14 40 35 42 45 2 11 37 52 78 92 92 89 110 119 87 145
-15 17 -18 16 -63 -17 -67 -49 -86 -48 -52 3 11 15 32 47 48 71 16 24 52 65
81 90 29 25 53 50 53 55 0 5 6 17 13 25 12 14 37 86 37 105 0 3 -18 6 -40 6
-29 0 -64 -13 -129 -49 -104 -58 -161 -83 -161 -72 0 5 11 29 25 52 37 66 35
69 -49 69 l-73 0 -32 -76z m529 -594 c0 -6 -31 -57 -68 -113 -37 -56 -78 -128
-91 -159 -13 -32 -29 -62 -37 -69 -8 -6 -14 -17 -14 -24 0 -7 -15 -32 -33 -56
-18 -24 -47 -74 -64 -110 -16 -36 -46 -88 -66 -116 -19 -27 -44 -68 -56 -90
-20 -40 -37 -53 -70 -53 -15 0 -16 16 -14 163 1 89 2 170 3 180 0 10 12 30 26
44 18 18 24 33 21 49 -3 17 0 24 12 25 30 1 96 44 99 64 2 11 9 26 15 34 14
16 165 131 173 131 3 0 29 20 57 44 72 60 107 79 107 56z m-520 -308 c0 -13
-12 -22 -22 -16 -10 6 -1 24 13 24 5 0 9 -4 9 -8z"/>
</g>
</svg>
