<?xml version="1.0" standalone="no"?>
<!DOCTYPE svg PUBLIC "-//W3C//DTD SVG 20010904//EN"
 "http://www.w3.org/TR/2001/REC-SVG-20010904/DTD/svg10.dtd">
<svg version="1.0" xmlns="http://www.w3.org/2000/svg"
 width="206.000000pt" height="207.000000pt" viewBox="0 0 206.000000 207.000000"
 preserveAspectRatio="xMidYMid meet">
<metadata>
Created by potrace 1.16, written by Peter Selinger 2001-2019
</metadata>
<g transform="translate(0.000000,207.000000) scale(0.100000,-0.100000)"
fill="#000000" stroke="none">
<path d="M698 1893 c-9 -10 -19 -29 -23 -43 -18 -63 -202 -415 -295 -565 -31
-49 -64 -111 -74 -137 -10 -26 -22 -50 -27 -53 -14 -9 -11 -45 4 -45 21 1 42
23 90 95 26 39 64 89 84 111 20 23 46 58 57 77 36 61 117 199 157 267 20 36
46 72 57 81 11 9 22 23 24 30 3 10 13 7 41 -10 37 -23 85 -22 130 1 10 5 25 7
34 4 12 -5 7 -15 -23 -50 -22 -24 -57 -70 -79 -101 -22 -31 -59 -79 -82 -108
-24 -28 -43 -57 -43 -64 0 -8 -20 -33 -43 -57 -54 -53 -61 -70 -46 -113 9 -30
14 -33 48 -33 l37 0 -7 -67 c-9 -79 -60 -209 -154 -388 -114 -219 -215 -423
-230 -466 -9 -23 -20 -48 -26 -56 -6 -7 -9 -20 -5 -28 14 -39 69 1 109 80 13
28 34 59 46 69 12 11 21 27 21 37 0 10 6 24 14 31 8 8 26 37 40 64 14 27 30
56 35 64 4 8 12 24 18 35 5 11 26 52 46 90 53 105 147 305 162 346 7 20 21 74
30 120 27 130 40 156 91 178 31 14 44 26 44 40 0 36 12 51 76 97 35 25 67 52
71 59 9 15 129 105 141 105 14 1 51 47 57 72 9 36 -17 61 -50 48 -47 -18 -80
-38 -104 -64 -14 -14 -30 -26 -36 -26 -6 0 -32 -19 -58 -42 -109 -101 -127
-113 -127 -87 0 16 236 249 253 249 7 0 22 9 31 19 10 11 29 24 44 30 35 15
64 65 56 97 -9 35 -43 31 -159 -19 -97 -42 -141 -52 -322 -72 l-52 -6 -5 33
c-3 18 -7 44 -8 58 -4 32 -46 40 -70 13z"/>
<path d="M1129 1346 c-32 -19 -42 -41 -29 -66 14 -25 41 -32 131 -34 97 -1
124 -20 116 -79 -9 -68 -137 -239 -230 -309 -27 -20 -55 -45 -62 -55 -24 -32
-27 -7 -16 113 6 64 8 121 5 125 -8 14 -70 11 -81 -3 -14 -19 -31 -103 -38
-188 -7 -88 -43 -242 -90 -390 -63 -198 -67 -216 -63 -278 9 -107 49 -128 275
-137 162 -7 250 3 358 40 207 72 255 91 303 123 31 20 80 49 109 64 92 48 98
112 16 191 -56 53 -113 156 -134 240 -6 26 -15 47 -19 47 -4 0 -10 12 -13 28
-8 40 -31 66 -51 59 -13 -5 -16 -21 -16 -78 0 -123 34 -221 119 -348 34 -51
35 -54 17 -65 -10 -6 -42 -26 -70 -45 -58 -38 -92 -53 -191 -82 -224 -66 -244
-70 -380 -68 -129 3 -164 9 -198 38 -25 21 -16 78 34 235 21 67 39 127 39 134
0 7 14 45 31 85 28 66 37 76 93 112 104 66 197 146 211 180 8 17 34 54 59 81
73 82 96 192 52 258 -39 60 -226 106 -287 72z"/>
</g>
</svg>
