<?xml version="1.0" standalone="no"?>
<!DOCTYPE svg PUBLIC "-//W3C//DTD SVG 20010904//EN"
 "http://www.w3.org/TR/2001/REC-SVG-20010904/DTD/svg10.dtd">
<svg version="1.0" xmlns="http://www.w3.org/2000/svg"
 width="209.000000pt" height="207.000000pt" viewBox="0 0 209.000000 207.000000"
 preserveAspectRatio="xMidYMid meet">
<metadata>
Created by potrace 1.16, written by Peter Selinger 2001-2019
</metadata>
<g transform="translate(0.000000,207.000000) scale(0.100000,-0.100000)"
fill="#000000" stroke="none">
<path d="M1035 2023 c-44 -11 -46 -20 -39 -144 9 -161 8 -164 -71 -188 -35
-11 -90 -32 -120 -46 -31 -14 -62 -25 -70 -25 -8 0 -26 -11 -40 -26 -44 -44
-12 -111 55 -115 45 -2 68 8 83 36 10 19 109 95 123 95 8 0 3 -36 -10 -74 -14
-41 -57 -81 -98 -91 -13 -4 -46 -26 -71 -51 -57 -55 -64 -100 -20 -129 24 -16
28 -16 55 -1 35 21 35 14 -1 -66 -31 -69 -54 -98 -116 -144 -22 -16 -60 -48
-85 -70 -25 -23 -69 -61 -97 -83 -29 -23 -53 -45 -53 -50 0 -5 -15 -16 -33
-24 -18 -9 -41 -25 -51 -36 -27 -29 -110 -81 -130 -81 -21 0 -76 -58 -76 -81
0 -26 38 -53 78 -56 48 -3 120 45 221 146 42 42 94 90 116 106 l38 30 -7 -28
c-11 -47 -106 -247 -177 -377 -29 -52 -92 -174 -140 -270 l-88 -175 40 -3 c46
-4 69 11 69 42 0 12 11 38 25 58 14 20 25 40 25 43 0 4 11 21 24 38 13 18 40
64 61 102 21 39 48 89 61 112 30 52 154 300 154 307 0 10 86 184 123 249 22
37 50 75 62 83 12 8 35 35 51 59 15 24 33 46 40 47 20 5 173 132 173 145 1 6
16 21 34 32 18 11 53 41 77 66 25 26 51 52 59 58 51 42 111 111 102 120 -13
13 -44 1 -75 -28 -15 -14 -52 -41 -82 -60 -49 -32 -117 -84 -225 -175 -41 -34
-65 -41 -31 -9 13 11 37 50 54 87 17 36 46 81 65 99 38 39 41 58 13 73 -11 6
-20 17 -20 24 0 25 96 194 146 257 32 40 49 52 100 69 78 26 106 52 102 93 -3
37 -11 38 -131 18 -91 -15 -119 -31 -147 -86 -13 -25 -27 -48 -32 -51 -4 -3
-8 22 -8 55 0 54 -3 61 -29 80 -16 12 -31 20 -33 20 -1 -1 -12 -4 -23 -6z"/>
<path d="M1183 1174 c-15 -24 -15 -29 -2 -53 12 -21 23 -27 58 -29 48 -4 71
10 71 42 0 40 -28 66 -70 66 -32 0 -43 -5 -57 -26z"/>
<path d="M1260 920 c-36 -22 -71 -40 -78 -40 -13 0 -78 -33 -147 -75 -22 -13
-55 -31 -73 -40 -42 -20 -80 -53 -102 -88 -14 -23 -16 -35 -7 -63 8 -25 6 -66
-8 -165 -21 -154 -23 -250 -7 -300 18 -52 88 -116 147 -134 32 -9 91 -15 161
-15 115 0 160 9 262 56 28 13 88 38 132 55 44 17 93 41 108 53 15 12 53 35 85
52 32 16 68 38 80 49 12 12 34 26 50 33 47 20 63 107 32 170 -9 17 -20 59 -26
94 -12 77 -28 128 -39 128 -5 0 -10 12 -12 28 -2 20 -9 28 -27 30 -24 4 -24 3
-16 -60 4 -34 8 -97 10 -139 2 -43 8 -86 14 -97 6 -12 11 -32 11 -46 0 -21 -9
-30 -47 -49 -27 -12 -50 -24 -53 -27 -32 -32 -209 -130 -237 -131 -10 0 -31
-9 -48 -19 -108 -69 -312 -91 -419 -46 -43 18 -78 70 -70 106 3 14 8 44 12 68
7 40 10 45 57 65 76 33 129 69 217 149 119 109 199 239 214 347 9 71 -5 91
-64 91 -37 0 -60 -8 -112 -40z m62 -117 c-62 -136 -282 -363 -352 -363 -15 0
-11 89 5 135 8 22 15 46 15 53 0 16 50 59 99 85 20 10 45 27 56 37 17 16 167
87 187 89 4 1 -1 -16 -10 -36z"/>
</g>
</svg>
