<?xml version="1.0" standalone="no"?>
<!DOCTYPE svg PUBLIC "-//W3C//DTD SVG 20010904//EN"
 "http://www.w3.org/TR/2001/REC-SVG-20010904/DTD/svg10.dtd">
<svg version="1.0" xmlns="http://www.w3.org/2000/svg"
 width="208.000000pt" height="207.000000pt" viewBox="0 0 208.000000 207.000000"
 preserveAspectRatio="xMidYMid meet">
<metadata>
Created by potrace 1.16, written by Peter Selinger 2001-2019
</metadata>
<g transform="translate(0.000000,207.000000) scale(0.100000,-0.100000)"
fill="#000000" stroke="none">
<path d="M984 2055 c-7 -5 -18 -37 -24 -70 -18 -107 -27 -146 -37 -156 -4 -4
-44 -17 -87 -28 -108 -27 -130 -59 -76 -112 l29 -30 -23 -33 c-13 -19 -37 -52
-54 -74 -18 -22 -32 -44 -32 -50 0 -5 -7 -15 -15 -22 -8 -7 -15 -19 -15 -26 0
-16 51 -44 80 -44 17 0 19 -4 14 -27 -11 -46 -22 -60 -61 -80 -120 -62 -221
-118 -238 -132 -11 -10 -82 -48 -159 -86 -76 -39 -145 -80 -153 -92 -14 -21
-14 -26 1 -48 9 -14 26 -27 39 -30 24 -6 107 26 126 49 7 8 50 34 97 57 46 23
89 48 95 56 7 7 15 13 20 13 5 0 28 12 50 26 23 14 43 24 45 21 7 -6 -32 -87
-66 -137 -16 -25 -30 -48 -30 -52 0 -14 -94 -164 -117 -186 -12 -13 -23 -27
-23 -32 0 -5 -12 -28 -27 -52 -42 -64 -48 -75 -97 -173 -42 -84 -82 -145 -198
-302 -27 -35 -48 -70 -48 -78 0 -27 66 23 137 103 116 131 151 177 184 243 18
35 38 70 45 76 7 7 27 39 45 70 18 32 55 87 82 123 27 36 60 89 74 119 13 29
41 78 62 110 21 31 53 85 72 121 44 84 146 186 229 229 36 19 85 48 110 65 25
17 65 42 90 55 25 13 77 47 115 76 39 29 86 60 105 70 19 10 51 29 70 44 41
30 66 47 97 63 24 12 38 41 28 58 -11 17 -46 11 -104 -19 -31 -17 -78 -40
-104 -52 -27 -12 -60 -31 -75 -44 -72 -58 -385 -239 -396 -227 -11 11 49 110
92 150 25 23 49 42 53 42 4 0 19 14 32 30 14 17 30 30 36 30 5 0 14 6 18 13 4
7 19 18 33 25 23 12 49 29 123 84 59 44 127 111 127 124 0 20 -6 18 -95 -31
-44 -24 -107 -58 -140 -76 -33 -17 -68 -38 -78 -47 -9 -8 -20 -13 -23 -10 -3
3 21 30 52 59 31 30 95 101 141 159 l84 105 -57 3 -57 3 -69 -72 c-37 -40 -70
-70 -73 -67 -11 11 17 75 41 94 15 13 24 27 19 33 -8 15 -121 11 -141 -4z
m-229 -785 c3 -5 -1 -10 -9 -10 -9 0 -16 5 -16 10 0 6 4 10 9 10 6 0 13 -4 16
-10z"/>
<path d="M1023 1230 c-18 -7 -23 -17 -23 -43 0 -61 51 -81 218 -88 51 -2 90
25 70 48 -16 19 -64 38 -117 47 -24 4 -55 16 -69 26 -27 22 -45 24 -79 10z"/>
<path d="M955 909 c-86 -19 -185 -87 -185 -126 0 -4 -16 -26 -35 -48 -29 -32
-34 -45 -29 -68 3 -15 3 -50 -1 -78 l-7 -50 -24 16 c-44 29 -59 -5 -24 -55 17
-24 19 -34 10 -76 -5 -27 -21 -80 -35 -117 l-25 -69 21 -34 c23 -38 63 -61
160 -95 223 -76 499 -111 623 -81 22 6 64 16 91 22 57 14 96 26 142 46 17 8
34 14 38 14 10 0 109 72 113 82 2 5 9 8 17 8 36 0 60 100 42 175 -5 22 -11
132 -12 245 -4 222 -15 282 -53 288 -17 3 -21 -4 -26 -55 -19 -187 -27 -370
-22 -450 7 -91 7 -93 -21 -128 -15 -19 -33 -35 -40 -35 -6 0 -18 -6 -25 -14
-21 -21 -87 -52 -138 -64 -25 -6 -56 -14 -70 -17 -14 -3 -38 -9 -55 -13 -86
-20 -353 3 -425 37 -25 11 -54 21 -65 21 -11 0 -29 6 -40 14 -11 7 -32 16 -46
19 -14 4 -38 16 -52 27 -22 17 -25 26 -20 53 3 18 11 41 18 53 8 11 18 39 24
62 13 45 43 68 127 96 67 22 163 119 199 199 26 61 33 135 15 181 -9 24 -14
26 -67 25 -32 -1 -76 -5 -98 -10z m81 -104 c13 -32 -147 -208 -200 -221 -29
-7 -29 -7 -23 30 11 69 56 126 133 168 78 43 82 44 90 23z"/>
</g>
</svg>
