<?xml version="1.0" standalone="no"?>
<!DOCTYPE svg PUBLIC "-//W3C//DTD SVG 20010904//EN"
 "http://www.w3.org/TR/2001/REC-SVG-20010904/DTD/svg10.dtd">
<svg version="1.0" xmlns="http://www.w3.org/2000/svg"
 width="210.000000pt" height="206.000000pt" viewBox="0 0 210.000000 206.000000"
 preserveAspectRatio="xMidYMid meet">
<metadata>
Created by potrace 1.16, written by Peter Selinger 2001-2019
</metadata>
<g transform="translate(0.000000,206.000000) scale(0.100000,-0.100000)"
fill="#000000" stroke="none">
<path d="M1370 1926 c-30 -19 -113 -66 -185 -106 -71 -39 -139 -80 -150 -90
-11 -10 -36 -27 -56 -37 -59 -31 -166 -105 -176 -123 -20 -30 -24 -75 -10 -94
8 -10 31 -22 53 -25 31 -6 38 -11 36 -26 -2 -11 -6 -49 -10 -86 -6 -51 -21
-92 -69 -190 -34 -68 -76 -161 -93 -206 -17 -45 -39 -92 -49 -105 -10 -13 -22
-34 -26 -47 -4 -14 -16 -39 -26 -55 -27 -47 -89 -177 -89 -187 0 -14 -47 -105
-63 -120 -7 -8 -48 -84 -90 -169 -43 -85 -86 -167 -95 -182 -13 -22 -14 -30
-4 -40 17 -17 66 31 99 97 14 28 32 57 39 66 8 8 24 35 36 60 25 47 48 82 89
132 14 18 33 46 41 62 92 181 203 393 214 409 8 11 14 29 14 40 0 16 5 18 33
13 20 -3 40 0 52 9 27 20 35 18 35 -9 0 -43 -68 -352 -98 -442 -51 -156 -77
-201 -165 -281 -29 -26 -18 -66 23 -85 33 -16 36 -16 65 5 32 22 152 76 171
76 6 0 21 9 34 20 13 11 42 25 64 31 23 6 59 19 81 29 22 10 65 30 95 44 30
14 64 31 75 38 11 7 44 28 72 46 50 31 73 67 59 91 -9 14 -79 1 -93 -18 -7 -9
-13 -13 -13 -9 0 4 -30 -8 -67 -26 -90 -45 -126 -60 -203 -84 -36 -11 -82 -28
-104 -37 -21 -9 -40 -14 -43 -12 -2 3 9 40 26 83 36 97 67 211 76 284 4 30 12
66 17 80 5 14 14 52 19 85 6 33 16 83 24 110 8 28 17 61 19 75 4 16 24 37 58
59 65 43 118 97 118 122 0 26 -10 24 -81 -12 -33 -16 -72 -35 -86 -40 l-26
-10 6 76 c5 70 8 77 42 109 22 21 35 42 33 53 -3 16 -13 18 -71 15 -71 -3 -72
-2 -58 26 5 9 14 31 20 47 8 19 31 42 66 65 57 35 90 73 80 90 -9 15 -43 12
-70 -6 -23 -15 -25 -15 -25 -1 0 9 10 22 23 28 12 7 45 29 72 50 28 20 77 52
110 69 33 18 69 40 80 50 11 9 48 33 81 53 77 46 91 62 74 82 -21 25 -72 18
-130 -19z m-437 -799 c5 -34 3 -39 -25 -53 -16 -8 -32 -14 -34 -11 -2 2 8 27
22 56 14 29 26 52 28 50 2 -2 6 -21 9 -42z"/>
<path d="M1125 783 c-32 -31 -32 -57 3 -83 15 -11 29 -19 32 -18 14 6 100 -65
100 -82 0 -11 4 -20 10 -20 5 0 18 -10 30 -22 47 -51 60 42 16 116 -14 25 -26
56 -26 70 0 31 -11 38 -82 52 -54 10 -59 9 -83 -13z"/>
</g>
</svg>
