<?xml version="1.0" standalone="no"?>
<!DOCTYPE svg PUBLIC "-//W3C//DTD SVG 20010904//EN"
 "http://www.w3.org/TR/2001/REC-SVG-20010904/DTD/svg10.dtd">
<svg version="1.0" xmlns="http://www.w3.org/2000/svg"
 width="206.000000pt" height="209.000000pt" viewBox="0 0 206.000000 209.000000"
 preserveAspectRatio="xMidYMid meet">
<metadata>
Created by potrace 1.16, written by Peter Selinger 2001-2019
</metadata>
<g transform="translate(0.000000,209.000000) scale(0.100000,-0.100000)"
fill="#000000" stroke="none">
<path d="M948 2076 c-13 -12 -73 -48 -246 -148 -26 -15 -69 -35 -95 -45 -27
-9 -64 -33 -83 -51 -31 -30 -35 -39 -32 -75 3 -41 4 -42 43 -45 l40 -3 -3
-127 c-5 -161 -25 -263 -80 -409 -11 -29 -23 -72 -27 -95 -7 -42 -59 -195 -89
-261 -8 -18 -24 -63 -37 -102 -12 -38 -54 -140 -94 -225 -39 -85 -77 -171 -85
-190 -7 -19 -37 -69 -67 -112 -29 -42 -53 -79 -53 -83 0 -4 -9 -18 -20 -32
-11 -14 -20 -36 -20 -49 0 -20 5 -24 30 -24 22 0 36 9 57 37 15 20 40 48 54
62 33 33 91 123 117 181 11 25 51 112 88 194 37 82 80 186 96 230 79 221 118
337 133 396 28 109 36 115 53 40 17 -80 16 -208 -2 -258 -8 -20 -17 -56 -20
-80 -6 -43 -9 -49 -40 -109 -20 -39 -20 -43 2 -43 16 0 73 74 88 115 3 8 15
15 25 15 11 0 60 36 109 81 67 59 90 76 91 62 1 -10 3 -45 5 -78 6 -76 -14
-233 -32 -262 -7 -12 -23 -24 -34 -28 -11 -3 -30 -15 -42 -25 -13 -10 -39 -33
-59 -49 -20 -17 -41 -31 -46 -31 -6 0 -18 -9 -28 -20 -10 -11 -24 -20 -30 -20
-7 0 -25 -16 -39 -35 -25 -33 -26 -36 -11 -64 8 -16 20 -33 26 -36 20 -13 96
25 170 85 41 33 77 60 82 60 4 0 7 -38 7 -84 0 -98 -16 -126 -88 -157 -25 -11
-66 -35 -92 -54 -26 -19 -52 -35 -57 -35 -13 0 -63 -60 -63 -76 0 -23 160 -19
191 5 13 10 47 30 74 44 28 14 75 44 105 66 64 46 181 106 228 116 17 3 32 11
32 16 0 5 7 9 16 9 50 0 384 150 425 191 51 51 5 63 -101 25 -191 -68 -242
-85 -310 -106 -41 -12 -115 -37 -164 -56 -49 -19 -91 -32 -94 -29 -3 3 -1 53
6 111 9 78 17 112 32 131 30 38 167 151 225 185 28 16 57 33 65 38 8 5 23 11
33 14 25 8 32 35 14 54 -22 21 -73 19 -122 -6 -22 -12 -52 -26 -67 -31 -16 -6
-28 -15 -28 -21 0 -5 -17 -19 -37 -30 -21 -11 -48 -27 -61 -36 l-22 -17 3 164
c4 152 19 267 36 279 4 3 22 26 40 53 17 26 36 47 41 47 6 0 10 -33 10 -73 0
-41 3 -115 6 -165 7 -88 8 -92 30 -92 16 0 25 7 28 23 13 63 17 116 21 262 9
325 15 429 27 464 30 96 63 181 85 225 33 64 26 96 -21 96 -46 0 -75 -26 -115
-104 -19 -36 -38 -66 -43 -66 -4 0 -8 -6 -8 -13 0 -19 -87 -100 -150 -140 -30
-19 -64 -45 -75 -57 -11 -12 -38 -34 -59 -48 -22 -13 -68 -49 -103 -78 -35
-30 -66 -54 -69 -54 -8 0 10 254 23 329 7 41 91 129 153 161 23 11 73 43 113
69 40 27 87 56 105 65 17 9 32 23 32 30 0 8 6 17 13 19 6 3 -25 6 -70 6 -57 1
-86 -3 -95 -13z m173 -584 c-1 -70 -4 -128 -5 -129 0 0 -18 -4 -38 -8 l-38 -7
0 37 c0 24 -10 51 -31 81 -19 29 -28 51 -24 63 5 17 54 54 90 70 5 2 16 10 24
18 7 8 16 11 20 8 3 -4 4 -64 2 -133z m-491 -72 c0 -5 -4 -10 -10 -10 -5 0
-10 5 -10 10 0 6 5 10 10 10 6 0 10 -4 10 -10z m255 -20 c4 -6 4 -28 0 -50 -6
-38 -8 -39 -61 -51 -82 -18 -110 -71 -58 -105 21 -15 31 -15 58 -6 52 19 56
16 56 -36 0 -44 -5 -53 -51 -105 -43 -48 -93 -87 -113 -87 -2 0 0 17 6 37 6
23 7 81 3 150 l-7 112 33 31 c19 16 39 30 45 30 7 0 24 20 38 45 27 45 39 54
51 35z m245 -1080 c0 -5 -5 -10 -11 -10 -5 0 -7 5 -4 10 3 6 8 10 11 10 2 0 4
-4 4 -10z"/>
</g>
</svg>
