<?xml version="1.0" standalone="no"?>
<!DOCTYPE svg PUBLIC "-//W3C//DTD SVG 20010904//EN"
 "http://www.w3.org/TR/2001/REC-SVG-20010904/DTD/svg10.dtd">
<svg version="1.0" xmlns="http://www.w3.org/2000/svg"
 width="209.000000pt" height="218.000000pt" viewBox="0 0 209.000000 218.000000"
 preserveAspectRatio="xMidYMid meet">
<metadata>
Created by potrace 1.16, written by Peter Selinger 2001-2019
</metadata>
<g transform="translate(0.000000,218.000000) scale(0.100000,-0.100000)"
fill="#000000" stroke="none">
<path d="M1284 2140 c-45 -21 -114 -59 -153 -84 -39 -25 -75 -46 -80 -46 -5 0
-14 -7 -22 -16 -15 -18 -90 -58 -148 -78 -60 -20 -150 -77 -157 -99 -3 -10 1
-28 10 -41 9 -15 17 -62 22 -132 6 -98 4 -120 -20 -219 -46 -189 -42 -180
-102 -227 -44 -34 -54 -48 -52 -68 2 -19 10 -26 31 -28 15 -2 27 -8 27 -14 0
-7 -25 -62 -55 -123 -30 -62 -55 -117 -55 -123 0 -6 -6 -26 -14 -44 -8 -18
-29 -69 -46 -113 -17 -44 -40 -98 -50 -120 -10 -22 -33 -71 -50 -110 -18 -38
-51 -108 -73 -155 -22 -47 -48 -105 -59 -130 -10 -24 -35 -70 -54 -101 -18
-31 -34 -60 -34 -63 0 -4 26 -6 57 -4 l58 3 40 80 c22 44 53 109 69 145 16 36
58 125 93 198 35 74 63 137 63 142 0 4 15 46 34 92 19 45 44 110 57 143 12 33
32 78 45 100 25 46 74 164 101 245 10 30 25 64 33 76 33 45 187 144 225 144
22 0 19 -18 -20 -99 -53 -110 -86 -251 -69 -295 17 -44 77 13 101 94 9 30 21
64 28 75 7 11 16 31 20 45 4 14 13 32 20 40 19 23 65 147 65 175 0 17 -9 29
-29 39 -26 14 -35 14 -79 1 -27 -8 -55 -22 -62 -30 -7 -8 -16 -15 -21 -15 -17
0 -9 19 22 54 33 38 62 76 106 141 15 22 32 45 38 50 6 6 27 36 48 68 32 47
43 57 67 57 16 0 32 5 35 10 11 18 -5 49 -28 55 -12 4 -36 14 -54 23 -28 14
-35 14 -59 2 -14 -8 -27 -19 -29 -25 -22 -93 -80 -207 -136 -267 -40 -43 -107
-119 -135 -154 -14 -18 -15 -16 -9 16 3 19 9 91 14 160 4 69 11 133 16 143 4
10 23 24 41 32 46 19 113 74 130 107 8 15 35 40 62 55 26 15 53 35 60 45 7 10
30 27 50 38 20 11 44 25 52 30 8 6 26 15 40 20 14 6 41 22 60 36 19 14 44 32
55 40 65 47 65 43 0 43 -48 -1 -76 -8 -141 -39z"/>
<path d="M1652 1904 c-13 -9 -34 -26 -48 -39 -51 -47 -131 -104 -234 -166 -58
-35 -124 -78 -147 -96 -23 -18 -48 -33 -56 -33 -32 0 -37 -72 -7 -93 33 -23
117 -2 140 35 9 16 39 43 66 60 27 17 53 37 57 44 4 8 13 14 20 14 6 0 36 16
65 36 29 20 54 35 57 33 2 -3 0 -36 -6 -74 -12 -89 -16 -133 -18 -168 -1 -27
-1 -27 -26 -11 -20 13 -31 14 -48 7 -12 -6 -35 -16 -52 -22 -35 -14 -162 -88
-187 -109 -39 -33 -11 -72 50 -72 24 0 68 24 92 50 14 14 80 60 88 60 4 0 19
11 32 25 33 35 40 32 40 -19 0 -73 -11 -87 -98 -133 -44 -23 -89 -50 -100 -60
-11 -10 -43 -31 -72 -48 -29 -16 -63 -39 -74 -51 -12 -11 -50 -38 -86 -58 -99
-58 -230 -172 -230 -200 0 -21 49 -56 77 -56 15 0 44 20 81 56 31 31 73 68 92
82 19 15 63 51 98 81 34 29 66 51 70 47 10 -10 5 -384 -7 -594 -1 -17 -109 56
-116 79 -4 11 -23 31 -43 46 -20 16 -40 32 -44 38 -43 65 -54 74 -88 75 -43 0
-92 -46 -164 -156 -54 -83 -76 -133 -76 -169 0 -29 16 -65 29 -65 15 0 69 62
86 97 9 19 23 42 30 51 8 10 33 41 55 70 24 29 50 52 60 52 12 0 42 -29 77
-72 32 -40 75 -89 97 -108 22 -19 58 -54 81 -77 24 -24 50 -43 59 -43 23 0 46
24 46 49 0 11 5 23 11 27 7 4 10 65 8 188 -4 207 7 479 23 548 8 40 17 53 59
83 l49 35 0 -75 c0 -58 3 -77 15 -81 36 -14 49 24 80 228 7 51 16 125 19 163
14 149 30 233 62 314 58 144 36 231 -44 175z"/>
<path d="M1779 718 c-9 -12 -33 -27 -55 -33 -41 -11 -50 -28 -40 -70 12 -48
103 -41 143 11 24 32 25 36 9 53 -9 9 -16 27 -16 39 0 28 -20 28 -41 0z"/>
</g>
</svg>
