<?xml version="1.0" standalone="no"?>
<!DOCTYPE svg PUBLIC "-//W3C//DTD SVG 20010904//EN"
 "http://www.w3.org/TR/2001/REC-SVG-20010904/DTD/svg10.dtd">
<svg version="1.0" xmlns="http://www.w3.org/2000/svg"
 width="205.000000pt" height="210.000000pt" viewBox="0 0 205.000000 210.000000"
 preserveAspectRatio="xMidYMid meet">
<metadata>
Created by potrace 1.16, written by Peter Selinger 2001-2019
</metadata>
<g transform="translate(0.000000,210.000000) scale(0.100000,-0.100000)"
fill="#000000" stroke="none">
<path d="M1220 2065 c-30 -19 -75 -44 -100 -55 -117 -55 -137 -65 -161 -87
-26 -24 -157 -63 -210 -63 -47 0 -76 -72 -45 -112 7 -9 35 -24 62 -33 27 -9
68 -26 90 -38 l42 -21 -72 -53 c-77 -58 -69 -42 -119 -228 -14 -49 -28 -110
-32 -134 -5 -31 -17 -54 -39 -75 -67 -64 -77 -104 -39 -148 13 -14 11 -27 -12
-110 -14 -51 -32 -124 -40 -163 -8 -38 -22 -95 -30 -125 -9 -30 -22 -95 -30
-145 -8 -49 -21 -112 -29 -140 -13 -43 -51 -171 -75 -254 -12 -41 -36 -49 -70
-23 -34 25 -44 18 -32 -24 7 -29 8 -29 89 -32 80 -3 81 -2 95 25 29 59 79 242
126 468 12 55 28 123 36 150 8 28 23 88 35 135 70 287 69 285 102 304 16 10
35 15 43 13 24 -10 38 -114 31 -225 -6 -94 -5 -102 11 -102 10 0 32 12 48 27
l30 26 0 151 c0 83 -3 167 -8 186 -7 34 -4 39 45 91 29 31 77 82 107 113 55
59 78 67 48 17 -23 -39 -21 -56 8 -75 35 -23 43 -21 100 32 28 26 73 63 99 82
26 19 66 52 89 73 23 21 53 41 67 44 14 3 31 10 38 16 15 11 16 1 3 -39 -5
-16 -19 -66 -31 -111 -22 -79 -23 -81 -57 -88 -48 -9 -212 -62 -226 -73 -7 -5
-29 -15 -49 -21 -21 -7 -45 -22 -53 -33 -12 -19 -12 -24 2 -49 10 -16 28 -30
45 -33 32 -6 54 3 169 74 65 40 124 70 135 70 2 0 4 -22 4 -49 0 -46 -2 -50
-29 -56 -16 -3 -32 -12 -34 -19 -3 -7 -36 -30 -74 -51 -37 -21 -82 -51 -100
-66 -18 -15 -54 -40 -80 -55 -26 -16 -77 -51 -113 -80 -36 -28 -75 -56 -86
-62 -25 -13 -58 -77 -50 -97 3 -8 17 -21 31 -31 22 -14 30 -15 50 -4 31 16
105 77 180 148 107 101 125 116 130 110 8 -7 -12 -189 -31 -278 -12 -59 -14
-100 -7 -190 8 -117 7 -150 -5 -150 -17 0 -140 129 -157 165 -11 22 -22 42
-25 45 -3 3 -16 26 -30 53 -21 41 -29 47 -56 47 -45 0 -61 -25 -79 -125 -10
-50 -25 -112 -35 -140 -9 -27 -23 -68 -30 -90 -17 -54 -52 -125 -62 -125 -4 0
-8 -11 -8 -25 0 -39 43 -34 81 10 17 19 37 35 44 35 12 0 24 29 85 204 38 112
40 114 55 80 33 -75 235 -264 282 -264 19 0 28 9 42 43 16 38 17 57 8 208 -10
159 -9 173 16 323 27 158 34 178 76 230 l23 30 -7 -76 c-6 -62 -4 -76 8 -81
43 -17 67 66 87 298 5 66 17 154 25 195 15 71 92 258 120 290 7 8 16 39 20 68
7 55 8 54 -41 55 -20 0 -136 -72 -149 -93 -4 -6 -30 -21 -59 -34 -29 -13 -68
-37 -87 -53 -18 -17 -67 -52 -108 -79 -41 -27 -80 -53 -87 -59 -30 -22 -22 9
32 119 36 76 66 124 85 138 63 47 11 121 -66 92 -19 -8 -75 -87 -75 -106 0 -8
-9 -33 -20 -56 -11 -22 -20 -45 -20 -49 0 -30 -69 -134 -167 -253 l-79 -95
-48 0 c-26 -1 -50 3 -52 7 -3 5 5 41 17 81 13 39 23 75 24 79 0 4 6 13 13 20
6 6 12 23 12 37 0 19 28 53 110 133 61 60 110 115 110 124 0 8 5 25 11 36 8
15 8 23 0 31 -8 8 -21 1 -49 -24 -20 -20 -50 -43 -66 -53 -28 -17 -29 -17 -49
2 -25 25 -17 47 19 56 15 4 50 29 77 56 28 28 60 53 71 56 12 4 42 22 67 40
26 19 50 34 54 34 5 0 23 11 41 25 18 14 36 25 41 25 4 1 30 21 56 45 l49 45
-59 0 c-50 0 -67 -5 -113 -35z"/>
<path d="M1575 583 c-51 -6 -65 -18 -65 -59 0 -36 21 -54 62 -54 32 0 89 55
81 78 -8 22 -24 42 -32 40 -3 -1 -24 -3 -46 -5z"/>
</g>
</svg>
