<?xml version="1.0" standalone="no"?>
<!DOCTYPE svg PUBLIC "-//W3C//DTD SVG 20010904//EN"
 "http://www.w3.org/TR/2001/REC-SVG-20010904/DTD/svg10.dtd">
<svg version="1.0" xmlns="http://www.w3.org/2000/svg"
 width="219.000000pt" height="215.000000pt" viewBox="0 0 219.000000 215.000000"
 preserveAspectRatio="xMidYMid meet">
<metadata>
Created by potrace 1.16, written by Peter Selinger 2001-2019
</metadata>
<g transform="translate(0.000000,215.000000) scale(0.100000,-0.100000)"
fill="#000000" stroke="none">
<path d="M1288 2105 c-29 -25 -78 -57 -108 -72 -30 -14 -74 -41 -96 -60 -23
-18 -70 -45 -105 -59 -35 -14 -68 -30 -73 -35 -6 -5 -17 -9 -26 -9 -27 0 -87
-72 -93 -110 -3 -19 -10 -64 -15 -100 -12 -74 -16 -110 -32 -265 -20 -204 -70
-445 -104 -500 -7 -11 -23 -49 -36 -85 -13 -36 -52 -125 -87 -198 -35 -73 -63
-134 -63 -136 0 -3 -21 -49 -46 -103 -59 -127 -70 -153 -79 -183 -4 -14 -18
-45 -31 -70 -12 -25 -30 -62 -38 -82 l-15 -38 49 0 49 0 49 103 c61 126 75
157 102 227 12 30 58 129 102 220 44 91 86 183 93 205 7 22 29 76 47 121 41
95 108 366 108 435 l0 22 23 -21 c14 -13 36 -22 55 -22 32 0 32 0 18 -28 -8
-15 -22 -54 -31 -87 -10 -33 -31 -88 -48 -122 -30 -61 -30 -63 -12 -83 23 -25
51 -25 93 0 61 37 63 26 31 -121 -11 -52 -23 -109 -26 -126 -3 -18 -12 -38
-19 -44 -21 -17 -17 -56 8 -73 28 -20 57 -20 82 -1 11 8 23 15 27 15 11 0 -2
-38 -17 -51 -8 -6 -14 -19 -14 -29 0 -19 -58 -134 -101 -198 -28 -42 -80 -157
-125 -280 l-23 -62 53 0 53 0 25 53 c14 28 28 60 32 69 3 10 10 18 15 18 21 0
33 -42 26 -91 l-7 -49 42 0 c36 0 41 2 30 15 -22 27 12 81 44 69 20 -8 20 -28
0 -59 l-16 -25 48 0 c35 0 54 6 71 22 22 20 26 21 73 9 130 -33 324 -20 620
42 63 14 149 30 190 36 105 17 130 28 130 58 0 22 -3 24 -22 19 -26 -8 -130
-25 -333 -56 -169 -25 -446 -34 -508 -15 -23 7 -43 18 -45 26 -1 8 12 36 30
64 18 27 41 63 51 79 11 17 41 56 68 88 50 58 149 201 149 216 0 4 16 32 35
62 25 40 35 66 35 97 0 23 5 45 10 48 17 10 11 41 -11 61 -13 12 -33 18 -60
17 l-40 -2 6 142 c12 256 44 420 99 501 14 21 28 54 31 75 4 20 8 46 10 57 3
12 -2 27 -10 34 -24 20 -61 3 -97 -42 -48 -60 -143 -154 -171 -170 -14 -7 -49
-29 -79 -49 -51 -35 -91 -57 -203 -110 -46 -22 -50 -27 -50 -59 0 -28 5 -37
28 -48 19 -9 32 -10 40 -4 7 6 42 22 80 37 37 15 73 35 80 44 6 9 30 25 51 36
22 11 44 25 50 30 6 6 26 21 45 34 l34 24 -7 -59 c-4 -32 -11 -62 -15 -67 -4
-4 -44 -22 -89 -41 -109 -44 -202 -95 -209 -113 -3 -8 6 -27 21 -42 25 -26 31
-28 68 -19 23 5 55 20 72 35 26 22 106 63 122 63 3 0 3 -19 0 -42 -3 -24 -5
-46 -5 -50 -1 -5 -13 -8 -27 -8 -60 0 -113 -44 -223 -185 -28 -35 -62 -65 -92
-81 -68 -34 -97 -32 -66 5 20 23 47 149 47 215 0 70 -23 99 -70 90 -18 -4 -30
-2 -30 4 0 17 39 102 60 132 10 15 41 70 69 123 56 109 106 174 229 297 100
100 147 151 179 198 27 39 28 48 7 56 -11 4 -35 -8 -68 -32 -28 -22 -79 -55
-113 -76 -34 -20 -72 -48 -85 -62 -12 -14 -34 -36 -47 -47 -26 -23 -58 -55
-77 -79 -34 -40 -136 -130 -184 -161 -30 -20 -68 -46 -83 -58 l-28 -22 6 89
c4 49 13 99 21 111 8 12 14 35 14 50 0 41 23 67 71 83 47 16 139 103 139 132
0 10 10 22 21 29 12 6 47 31 79 55 32 24 62 44 68 44 5 0 40 30 78 66 38 36
81 72 96 80 49 26 42 34 -31 34 -69 0 -71 -1 -123 -45z m168 -1247 c-1 -39 -3
-41 -64 -73 -34 -17 -75 -44 -90 -58 -30 -29 -52 -35 -52 -14 0 6 18 36 40 65
22 29 40 57 40 62 0 5 26 37 57 71 l58 62 6 -37 c3 -21 6 -56 5 -78z m64 -135
c0 -9 -6 -24 -14 -32 -12 -14 -33 -50 -80 -136 -11 -20 -73 -111 -88 -130 -60
-74 -147 -199 -152 -219 -5 -19 -13 -26 -32 -26 -28 0 -91 24 -114 44 -8 8
-25 16 -37 18 -23 3 -23 3 10 57 28 48 52 92 141 259 l17 33 20 -25 c31 -40
61 -33 111 23 26 30 70 63 113 86 39 20 74 43 80 51 13 19 25 18 25 -3z"/>
</g>
</svg>
