<?xml version="1.0" standalone="no"?>
<!DOCTYPE svg PUBLIC "-//W3C//DTD SVG 20010904//EN"
 "http://www.w3.org/TR/2001/REC-SVG-20010904/DTD/svg10.dtd">
<svg version="1.0" xmlns="http://www.w3.org/2000/svg"
 width="209.000000pt" height="209.000000pt" viewBox="0 0 209.000000 209.000000"
 preserveAspectRatio="xMidYMid meet">
<metadata>
Created by potrace 1.16, written by Peter Selinger 2001-2019
</metadata>
<g transform="translate(0.000000,209.000000) scale(0.100000,-0.100000)"
fill="#000000" stroke="none">
<path d="M1207 2054 c-49 -25 -76 -34 -93 -30 -20 5 -32 -1 -61 -33 -23 -26
-53 -46 -84 -56 -27 -9 -51 -21 -54 -26 -4 -5 -21 -9 -39 -9 -19 0 -39 -7 -46
-15 -7 -8 -18 -15 -25 -15 -17 0 -32 -19 -40 -51 -5 -20 -1 -32 15 -47 14 -12
20 -27 16 -39 -2 -10 -10 -72 -15 -138 -22 -251 -37 -334 -76 -435 -7 -19 -32
-84 -55 -145 -23 -60 -48 -121 -55 -135 -12 -24 -27 -59 -75 -180 -24 -59 -50
-116 -110 -245 -21 -44 -55 -123 -75 -175 -20 -52 -50 -115 -66 -140 -23 -37
-59 -120 -59 -136 0 -2 18 -4 39 -4 37 0 43 4 83 58 54 72 64 91 84 150 19 55
69 171 129 297 24 50 59 133 79 185 21 52 44 106 52 118 9 13 30 63 49 110 18
48 47 122 64 166 33 79 81 268 81 317 0 15 3 41 6 58 6 27 11 31 38 31 49 0
91 15 120 45 15 15 30 25 33 22 7 -7 -42 -129 -75 -187 -14 -25 -38 -55 -54
-68 -28 -24 -38 -65 -17 -77 13 -9 7 -24 -37 -91 -34 -52 -36 -58 -26 -92 6
-20 13 -70 15 -109 l4 -73 -48 -30 c-27 -16 -49 -34 -49 -39 0 -28 22 -59 49
-71 32 -13 31 -14 152 64 17 10 33 16 36 13 3 -4 -13 -43 -35 -89 -23 -49 -49
-122 -61 -178 -11 -52 -32 -126 -47 -165 -39 -103 -52 -150 -68 -244 -8 -45
-19 -88 -25 -94 -19 -19 -12 -27 24 -27 38 0 59 22 70 75 4 17 13 44 20 60 24
55 34 80 47 119 16 49 28 53 75 27 21 -11 50 -25 66 -31 33 -12 34 -24 3 -55
-30 -30 -38 -68 -15 -73 13 -2 30 7 105 63 17 12 30 13 70 6 27 -6 81 -15 119
-21 39 -7 111 -18 160 -26 152 -25 515 -16 515 11 0 9 -21 15 -62 19 -35 3
-117 11 -183 17 -66 6 -136 12 -156 14 -20 2 -52 8 -70 13 -19 6 -68 18 -109
27 -41 9 -84 20 -95 25 -11 4 -35 13 -52 20 -32 12 -43 33 -23 45 5 3 10 13
10 22 0 31 110 229 169 305 12 15 26 52 32 84 10 52 9 59 -10 77 -15 16 -23
18 -34 9 -7 -7 -33 -18 -56 -27 -23 -8 -55 -24 -71 -35 -15 -11 -36 -20 -46
-20 -19 0 -115 -44 -156 -72 -31 -21 -36 -53 -14 -83 19 -27 69 -21 118 13 24
17 54 33 66 37 22 6 23 5 17 -17 -4 -12 -13 -30 -20 -38 -13 -16 -75 -145 -95
-197 -19 -51 -33 -57 -77 -37 -21 9 -47 25 -58 35 -11 9 -29 19 -40 21 -14 3
-19 11 -17 28 5 48 56 195 84 243 16 27 35 63 43 80 39 82 181 281 195 272 5
-3 8 -35 9 -72 1 -106 23 -107 65 -4 15 37 26 84 26 110 0 26 5 62 10 81 6 19
12 94 14 165 4 106 9 145 31 209 16 48 25 96 23 120 -3 38 -5 41 -36 44 -25 3
-37 -3 -55 -24 -25 -30 -36 -40 -122 -118 -58 -51 -143 -111 -150 -104 -6 6
38 93 69 136 17 24 51 68 76 97 133 159 204 260 196 281 -9 23 -28 16 -72 -24
-150 -135 -263 -215 -359 -253 -33 -13 -71 -31 -85 -40 -14 -9 -35 -20 -47
-23 -21 -7 -22 -5 -16 26 3 18 9 38 14 43 4 6 10 27 14 48 8 39 27 57 100 95
22 11 51 31 65 44 13 12 47 35 75 49 58 29 139 81 143 91 2 4 28 21 58 38 30
17 54 33 54 36 0 2 -35 4 -77 4 -70 0 -85 -4 -146 -36z m140 -669 c-3 -41 -8
-79 -11 -84 -4 -6 -39 -20 -79 -32 -40 -12 -84 -28 -99 -35 -14 -8 -33 -14
-42 -14 -60 0 -90 -57 -50 -97 26 -26 54 -29 92 -9 15 8 48 24 74 36 25 11 52
28 58 36 14 16 40 19 40 3 0 -6 -12 -20 -27 -32 -15 -12 -57 -52 -94 -89 -37
-38 -72 -68 -77 -68 -5 0 -35 -20 -66 -45 -32 -25 -67 -45 -78 -45 -18 0 -19
6 -17 88 2 48 0 97 -4 108 -6 17 -2 27 18 43 15 11 39 38 55 59 27 38 170 162
187 162 4 0 30 20 58 45 27 25 54 45 59 45 5 0 6 -33 3 -75z"/>
</g>
</svg>
