<?xml version="1.0" standalone="no"?>
<!DOCTYPE svg PUBLIC "-//W3C//DTD SVG 20010904//EN"
 "http://www.w3.org/TR/2001/REC-SVG-20010904/DTD/svg10.dtd">
<svg version="1.0" xmlns="http://www.w3.org/2000/svg"
 width="206.000000pt" height="210.000000pt" viewBox="0 0 206.000000 210.000000"
 preserveAspectRatio="xMidYMid meet">
<metadata>
Created by potrace 1.16, written by Peter Selinger 2001-2019
</metadata>
<g transform="translate(0.000000,210.000000) scale(0.100000,-0.100000)"
fill="#000000" stroke="none">
<path d="M1072 2006 c-24 -25 -52 -48 -62 -51 -11 -4 -20 -10 -20 -15 0 -5
-13 -16 -28 -24 -16 -8 -44 -30 -63 -48 -19 -18 -55 -45 -79 -61 -101 -61
-208 -146 -216 -169 -3 -10 -23 -22 -47 -29 -82 -22 -130 -77 -106 -122 7 -11
22 -31 34 -44 18 -21 25 -22 49 -13 67 25 122 2 190 -79 38 -46 46 -84 23
-115 -12 -17 -16 -17 -43 -4 -39 20 -123 40 -135 33 -5 -4 -18 -3 -29 0 -15 5
-20 15 -20 39 0 43 -16 56 -66 56 -46 0 -94 -30 -94 -59 0 -24 63 -126 104
-170 19 -20 59 -62 88 -94 29 -32 58 -64 64 -70 25 -28 25 -34 -40 -252 -15
-49 -38 -113 -51 -142 -14 -28 -25 -60 -25 -70 0 -27 -49 -213 -64 -241 -13
-24 -13 -24 -50 32 -67 102 -77 61 -16 -69 42 -89 54 -101 94 -91 26 6 69 83
85 151 19 85 62 241 73 265 6 14 28 77 47 140 23 74 42 116 51 118 14 2 51
-51 115 -167 10 -20 42 -66 70 -103 27 -37 61 -84 75 -104 14 -20 33 -44 42
-55 9 -10 27 -37 38 -59 22 -44 75 -75 105 -64 37 15 40 88 4 99 -10 4 -39 36
-63 73 -25 37 -65 94 -90 127 -24 33 -63 92 -87 130 -23 39 -50 82 -60 97 -39
56 -79 129 -79 144 0 8 -5 22 -11 32 -9 14 -6 32 14 82 14 36 30 88 37 115 14
61 78 224 95 245 7 8 16 26 20 40 4 14 16 36 26 49 11 13 19 31 19 40 0 9 7
29 15 45 8 15 15 33 15 40 1 17 45 121 58 137 18 21 59 85 79 122 18 35 42
145 35 165 -2 7 -20 12 -41 12 -31 0 -44 -7 -79 -44z m-123 -285 c-12 -34 -26
-64 -30 -67 -5 -3 -9 -14 -9 -25 0 -10 -4 -27 -10 -37 -15 -28 -47 -105 -54
-132 -3 -14 -13 -34 -21 -44 -12 -16 -17 -17 -30 -6 -8 7 -15 18 -15 25 0 7
-19 36 -42 65 l-42 53 43 36 c24 20 56 49 70 66 40 45 151 136 159 129 2 -1
-6 -30 -19 -63z m-261 -577 c34 -9 28 -84 -7 -84 -13 0 -55 50 -69 83 -4 8 44
9 76 1z"/>
</g>
</svg>
