<?xml version="1.0" standalone="no"?>
<!DOCTYPE svg PUBLIC "-//W3C//DTD SVG 20010904//EN"
 "http://www.w3.org/TR/2001/REC-SVG-20010904/DTD/svg10.dtd">
<svg version="1.0" xmlns="http://www.w3.org/2000/svg"
 width="207.000000pt" height="210.000000pt" viewBox="0 0 207.000000 210.000000"
 preserveAspectRatio="xMidYMid meet">
<metadata>
Created by potrace 1.16, written by Peter Selinger 2001-2019
</metadata>
<g transform="translate(0.000000,210.000000) scale(0.100000,-0.100000)"
fill="#000000" stroke="none">
<path d="M983 1923 c-17 -9 -34 -23 -37 -32 -3 -9 -13 -41 -24 -71 -11 -30
-22 -89 -26 -130 -4 -41 -20 -111 -35 -155 -15 -44 -36 -115 -46 -159 l-20
-79 -75 -57 c-41 -32 -82 -65 -90 -75 -16 -19 -90 -68 -95 -63 -2 2 3 28 11
58 8 30 14 66 14 80 0 14 16 56 35 94 20 38 38 89 42 115 3 25 15 64 28 86 12
22 28 63 35 90 8 28 22 64 32 80 36 60 10 118 -49 108 -45 -7 -87 -66 -103
-146 -7 -34 -17 -67 -22 -73 -5 -7 -8 -16 -6 -20 3 -13 -13 -96 -22 -114 -26
-50 -52 -133 -65 -211 -20 -112 -67 -243 -106 -291 -16 -20 -29 -42 -29 -47 0
-6 -5 -11 -10 -11 -6 0 -20 -20 -32 -46 -21 -41 -21 -47 -7 -72 11 -20 24 -28
49 -30 31 -2 39 2 70 44 19 25 63 75 98 112 34 36 62 69 62 73 0 4 15 12 34
19 18 6 44 22 56 35 13 14 38 34 56 45 l33 19 -6 -32 c-3 -18 -14 -54 -24 -80
-11 -26 -19 -56 -19 -67 0 -11 -6 -34 -14 -52 -12 -29 -30 -97 -67 -243 -17
-66 -96 -247 -151 -347 -39 -70 -45 -88 -28 -88 25 0 150 148 150 178 0 5 6
14 13 20 18 15 104 191 117 240 13 51 31 54 83 15 20 -16 47 -35 59 -44 22
-16 22 -18 6 -36 -34 -37 -14 -58 26 -28 32 24 24 26 301 -65 90 -30 183 -39
265 -27 73 10 100 22 100 41 0 17 -31 26 -95 26 -27 0 -68 5 -90 10 -22 6 -70
16 -106 24 -36 8 -82 26 -103 40 -21 14 -52 28 -70 31 -17 4 -42 15 -55 26
l-23 19 40 63 c52 82 122 203 122 214 1 4 9 26 20 48 10 22 27 66 37 98 10 32
33 75 51 95 18 20 41 62 52 92 21 56 36 92 51 121 9 19 50 214 56 274 3 22 9
44 14 50 5 5 9 24 9 42 0 17 5 43 11 56 14 32 -9 70 -53 88 -30 12 -33 11 -52
-15 -12 -16 -21 -43 -21 -64 -1 -20 -2 -60 -3 -89 l-2 -51 -72 -54 c-40 -29
-97 -67 -126 -85 -30 -18 -68 -44 -85 -59 -100 -81 -136 -101 -122 -66 12 32
63 237 68 277 6 44 17 77 27 85 10 7 50 100 50 115 0 33 -55 49 -97 28z m327
-387 c0 -7 -5 -38 -10 -67 -6 -30 -17 -99 -26 -154 -16 -109 -26 -129 -44 -95
-11 20 -17 22 -61 16 -85 -12 -202 -55 -236 -89 -39 -36 -42 -60 -11 -81 32
-23 55 -20 126 14 72 34 72 34 72 19 0 -20 -187 -409 -197 -409 -12 0 -63 60
-63 74 0 17 -29 36 -57 36 -40 0 -44 13 -23 81 69 225 88 286 95 304 17 40
277 275 305 275 5 0 19 14 32 30 12 17 27 30 34 30 6 0 17 7 24 15 16 19 40
20 40 1z m-255 -966 c3 -5 -1 -10 -9 -10 -9 0 -16 5 -16 10 0 6 4 10 9 10 6 0
13 -4 16 -10z"/>
</g>
</svg>
