<?xml version="1.0" standalone="no"?>
<!DOCTYPE svg PUBLIC "-//W3C//DTD SVG 20010904//EN"
 "http://www.w3.org/TR/2001/REC-SVG-20010904/DTD/svg10.dtd">
<svg version="1.0" xmlns="http://www.w3.org/2000/svg"
 width="209.000000pt" height="209.000000pt" viewBox="0 0 209.000000 209.000000"
 preserveAspectRatio="xMidYMid meet">
<metadata>
Created by potrace 1.16, written by Peter Selinger 2001-2019
</metadata>
<g transform="translate(0.000000,209.000000) scale(0.100000,-0.100000)"
fill="#000000" stroke="none">
<path d="M939 1970 l3 -119 -28 -25 c-16 -14 -32 -26 -36 -26 -15 0 -134 -82
-195 -134 -31 -27 -32 -90 -2 -107 27 -14 92 -14 97 0 2 6 9 11 16 11 7 0 21
17 32 37 11 21 30 43 43 50 13 6 28 17 32 25 7 10 9 9 9 -4 0 -9 -6 -21 -14
-25 -38 -22 -44 -70 -20 -158 28 -105 44 -189 44 -231 0 -82 31 -125 79 -109
25 8 32 40 21 90 -5 22 -11 74 -14 115 -2 41 -10 110 -16 152 l-12 77 32 44
c28 40 31 50 25 86 -4 25 -3 41 3 41 5 0 36 25 68 55 33 30 62 55 67 55 11 0
123 78 137 95 7 8 16 15 21 15 13 0 132 85 137 98 3 9 -17 12 -72 12 -74 0
-78 -1 -128 -40 -28 -23 -75 -52 -104 -66 -30 -14 -56 -29 -59 -35 -4 -5 -13
-9 -21 -9 -10 0 -14 14 -14 53 0 93 -3 97 -74 97 l-61 0 4 -120z"/>
<path d="M1133 1778 c-28 -59 -35 -119 -34 -288 1 -97 -3 -221 -9 -276 -10
-90 -13 -101 -40 -124 -36 -32 -85 -62 -130 -80 -19 -8 -64 -36 -99 -62 -35
-26 -67 -48 -71 -48 -12 0 -33 -58 -26 -75 3 -8 19 -23 36 -34 19 -11 27 -22
21 -25 -6 -4 -11 -19 -11 -34 0 -15 -7 -47 -16 -72 -8 -24 -16 -58 -16 -75 0
-16 -5 -35 -9 -41 -5 -6 -11 -38 -14 -70 -2 -33 -7 -79 -10 -104 -9 -72 -10
-203 -2 -232 15 -58 107 -44 174 24 22 24 59 70 81 104 23 33 51 69 63 80 12
10 25 29 30 42 12 32 31 27 80 -21 59 -58 163 -124 311 -200 l123 -62 190 1
c171 0 196 3 245 22 30 12 63 22 73 22 9 0 17 7 17 16 0 15 -10 16 -80 10
-112 -10 -264 -8 -350 4 -72 10 -164 43 -178 64 -9 14 -32 28 -109 67 -34 17
-85 53 -114 80 -28 27 -65 57 -80 66 -39 23 -57 68 -37 91 9 9 19 28 23 42 4
14 11 30 15 35 16 22 60 106 60 116 0 5 18 34 40 64 22 30 40 57 40 60 0 3 14
24 30 47 17 22 30 47 30 54 0 7 25 50 56 96 78 117 84 130 87 200 2 62 1 63
-23 61 -36 -2 -160 -64 -310 -155 -46 -28 -60 -33 -60 -20 0 23 30 133 42 156
5 10 14 80 19 155 4 75 13 161 19 191 7 30 10 75 8 100 -3 44 -4 45 -39 48
-28 2 -37 -1 -46 -20z m197 -679 c-6 -13 -18 -36 -28 -50 -75 -113 -94 -143
-107 -171 -20 -40 -44 -84 -69 -121 -23 -34 -49 -81 -70 -125 l-16 -34 -29 22
c-36 25 -123 121 -141 156 -17 32 -7 51 43 79 19 12 55 39 80 60 45 42 131
105 141 105 3 0 38 21 78 47 116 76 140 82 118 32z m-434 -533 l74 -73 -15
-36 c-8 -20 -23 -41 -34 -46 -10 -6 -26 -27 -36 -48 -43 -97 -103 -183 -126
-183 -25 0 -34 150 -15 291 6 52 57 169 73 169 2 0 38 -33 79 -74z"/>
<path d="M1271 1666 c-34 -36 -12 -96 36 -96 18 0 28 -9 39 -35 16 -39 54 -50
54 -15 0 10 8 23 17 29 16 8 16 12 -2 51 -22 49 -67 90 -99 90 -12 0 -33 -11
-45 -24z"/>
<path d="M729 1382 c-8 -9 -26 -26 -40 -37 -35 -28 -49 -57 -49 -101 0 -37
-54 -210 -71 -229 -5 -5 -9 -16 -9 -24 0 -8 -13 -43 -30 -77 -16 -35 -35 -85
-41 -111 -20 -88 -39 -224 -34 -234 9 -14 31 -11 46 7 16 20 50 113 50 139 0
10 10 39 23 65 54 107 86 176 86 185 0 6 14 43 30 82 17 39 37 109 45 155 8
47 21 100 29 120 25 59 1 102 -35 60z"/>
</g>
</svg>
