<?xml version="1.0" standalone="no"?>
<!DOCTYPE svg PUBLIC "-//W3C//DTD SVG 20010904//EN"
 "http://www.w3.org/TR/2001/REC-SVG-20010904/DTD/svg10.dtd">
<svg version="1.0" xmlns="http://www.w3.org/2000/svg"
 width="207.000000pt" height="210.000000pt" viewBox="0 0 207.000000 210.000000"
 preserveAspectRatio="xMidYMid meet">
<metadata>
Created by potrace 1.16, written by Peter Selinger 2001-2019
</metadata>
<g transform="translate(0.000000,210.000000) scale(0.100000,-0.100000)"
fill="#000000" stroke="none">
<path d="M1390 1855 c-8 -9 -31 -25 -51 -36 -21 -10 -42 -25 -46 -33 -4 -7
-28 -23 -53 -34 -25 -11 -56 -28 -70 -36 -34 -20 -83 -42 -160 -73 -82 -32
-178 -92 -186 -117 -8 -23 25 -68 58 -80 20 -7 33 -2 74 28 27 20 60 41 74 48
14 7 44 25 67 40 24 16 61 35 82 43 22 7 51 21 64 30 37 24 41 6 19 -88 -34
-141 -75 -366 -86 -467 -4 -30 -11 -85 -18 -122 l-11 -66 -96 -27 c-53 -15
-132 -40 -176 -55 -146 -50 -159 -48 -137 28 14 52 31 172 37 272 10 166 16
208 31 214 22 9 16 54 -11 81 -26 27 -80 34 -117 14 -19 -10 -20 -16 -12 -112
11 -146 9 -295 -4 -422 -11 -97 -15 -113 -37 -132 -27 -24 -31 -49 -13 -87 15
-34 32 -38 103 -21 156 37 180 46 197 76 10 16 26 29 36 29 23 0 109 44 138
71 11 10 29 19 39 19 16 0 17 -6 11 -77 -4 -43 -8 -89 -9 -103 -2 -19 3 -25
18 -25 16 0 25 15 45 75 14 42 28 81 33 87 4 6 4 19 1 28 -4 9 -2 26 4 38 6
12 21 81 32 152 34 208 88 475 111 545 11 35 36 94 54 130 27 53 33 75 32 120
-2 51 -4 55 -28 58 -15 2 -31 -4 -39 -13z"/>
</g>
</svg>
