<?xml version="1.0" standalone="no"?>
<!DOCTYPE svg PUBLIC "-//W3C//DTD SVG 20010904//EN"
 "http://www.w3.org/TR/2001/REC-SVG-20010904/DTD/svg10.dtd">
<svg version="1.0" xmlns="http://www.w3.org/2000/svg"
 width="208.000000pt" height="211.000000pt" viewBox="0 0 208.000000 211.000000"
 preserveAspectRatio="xMidYMid meet">
<metadata>
Created by potrace 1.16, written by Peter Selinger 2001-2019
</metadata>
<g transform="translate(0.000000,211.000000) scale(0.100000,-0.100000)"
fill="#000000" stroke="none">
<path d="M1504 1785 c-12 -8 -32 -38 -45 -67 -27 -62 -32 -179 -12 -293 7 -38
19 -111 28 -160 8 -50 20 -183 25 -295 5 -113 14 -230 19 -260 23 -138 63
-334 77 -379 4 -13 7 -13 19 0 24 24 30 187 12 314 -21 143 -26 206 -32 405
-3 91 -8 174 -10 185 -3 11 -14 90 -24 175 -22 168 -21 272 2 298 51 60 4 122
-59 77z"/>
<path d="M1164 1772 c-26 -21 -27 -22 -79 -227 -24 -93 -59 -215 -78 -270 -19
-55 -57 -168 -85 -250 -28 -83 -75 -200 -105 -260 -102 -208 -167 -350 -172
-380 -12 -69 66 -99 81 -31 3 17 15 43 25 58 11 15 26 44 33 65 7 21 43 97 78
168 72 143 101 210 119 270 6 22 15 44 20 50 5 5 9 16 9 24 0 8 13 42 29 76
17 34 37 87 46 116 9 30 25 77 36 104 18 48 61 204 78 286 4 20 18 51 30 68
13 18 25 49 28 71 5 36 3 40 -28 59 -41 25 -39 25 -65 3z"/>
<path d="M670 1449 c-14 -3 -40 -9 -58 -14 -30 -7 -72 -46 -72 -66 0 -18 41
-49 63 -49 12 0 39 9 59 19 19 11 38 18 40 15 3 -2 19 1 37 7 40 14 61 -1 61
-43 0 -34 -7 -49 -68 -143 -75 -115 -127 -178 -177 -215 -26 -19 -53 -47 -61
-62 -8 -15 -23 -29 -34 -33 -16 -5 -20 -15 -20 -46 0 -33 4 -41 26 -49 40 -16
45 -13 114 54 85 82 142 150 156 184 28 70 60 127 99 176 29 37 54 107 55 154
0 32 -26 79 -52 93 -28 15 -134 26 -168 18z"/>
<path d="M372 1390 c-18 -11 -32 -25 -32 -32 2 -49 53 -217 87 -281 8 -16 21
-51 29 -78 16 -54 23 -58 48 -30 21 23 18 95 -8 206 -20 89 -21 131 0 139 24
9 14 59 -16 72 -50 23 -75 24 -108 4z"/>
</g>
</svg>
