<?xml version="1.0" standalone="no"?>
<!DOCTYPE svg PUBLIC "-//W3C//DTD SVG 20010904//EN"
 "http://www.w3.org/TR/2001/REC-SVG-20010904/DTD/svg10.dtd">
<svg version="1.0" xmlns="http://www.w3.org/2000/svg"
 width="209.000000pt" height="209.000000pt" viewBox="0 0 209.000000 209.000000"
 preserveAspectRatio="xMidYMid meet">
<metadata>
Created by potrace 1.16, written by Peter Selinger 2001-2019
</metadata>
<g transform="translate(0.000000,209.000000) scale(0.100000,-0.100000)"
fill="#000000" stroke="none">
<path d="M1671 1828 c-45 -12 -68 -42 -82 -106 -12 -53 -11 -69 31 -297 23
-127 50 -324 50 -363 0 -24 9 -96 20 -160 34 -204 40 -245 51 -342 6 -52 13
-97 15 -99 13 -14 26 26 34 100 4 46 11 92 15 102 4 10 2 24 -5 32 -9 10 -9
19 -2 28 6 8 7 34 1 72 -5 33 -15 128 -24 210 -16 166 -38 338 -60 490 -30
204 -30 190 -1 239 28 49 32 76 14 94 -14 14 -11 14 -57 0z m31 -673 c-2 -14
-6 -25 -8 -25 -2 0 -4 11 -4 25 0 14 4 25 9 25 4 0 6 -11 3 -25z"/>
<path d="M1270 1797 c-22 -19 -25 -31 -26 -92 -1 -65 -12 -122 -50 -270 -18
-66 -50 -171 -69 -225 -7 -19 -21 -66 -30 -104 -21 -82 -34 -113 -185 -436
-83 -178 -97 -233 -67 -273 22 -30 57 0 84 73 21 57 99 227 124 270 5 8 12 22
15 30 4 8 29 66 57 129 27 62 55 134 62 160 7 25 22 70 33 99 21 54 52 162 97
341 15 58 33 115 42 127 19 30 21 121 2 159 -18 38 -55 43 -89 12z"/>
<path d="M823 1648 c-25 -12 -30 -46 -13 -79 8 -14 21 -19 54 -19 74 0 79 -22
34 -140 -40 -107 -217 -353 -284 -397 -21 -14 -21 -13 -10 35 8 35 8 107 2
246 -8 183 -8 199 10 231 22 41 16 51 -50 75 -37 15 -47 15 -69 3 -34 -17 -50
-48 -39 -70 5 -10 12 -34 15 -53 3 -19 15 -89 27 -155 24 -132 28 -278 11
-343 -11 -38 -44 -82 -62 -82 -17 0 -19 -40 -4 -63 23 -35 53 -40 85 -14 15
12 54 39 86 60 101 65 139 95 209 164 l67 67 -22 18 c-22 17 -22 18 -2 45 10
16 26 48 36 73 10 25 26 52 37 60 25 20 66 134 70 196 4 74 -8 112 -42 130
-39 20 -118 27 -146 12z"/>
</g>
</svg>
