<?xml version="1.0" standalone="no"?>
<!DOCTYPE svg PUBLIC "-//W3C//DTD SVG 20010904//EN"
 "http://www.w3.org/TR/2001/REC-SVG-20010904/DTD/svg10.dtd">
<svg version="1.0" xmlns="http://www.w3.org/2000/svg"
 width="209.000000pt" height="209.000000pt" viewBox="0 0 209.000000 209.000000"
 preserveAspectRatio="xMidYMid meet">
<metadata>
Created by potrace 1.16, written by Peter Selinger 2001-2019
</metadata>
<g transform="translate(0.000000,209.000000) scale(0.100000,-0.100000)"
fill="#000000" stroke="none">
<path d="M1037 2083 c-3 -5 -8 -24 -12 -43 -4 -19 -11 -39 -15 -45 -4 -5 -22
-48 -40 -95 -63 -159 -132 -280 -205 -359 -22 -23 -44 -50 -49 -59 -5 -10 -22
-33 -38 -53 -30 -40 -35 -65 -15 -91 31 -40 59 -34 232 51 93 46 169 90 175
101 6 11 15 20 20 20 8 0 138 90 186 129 5 4 21 14 35 21 13 7 42 29 64 50 66
62 143 111 152 97 4 -6 9 -54 11 -104 3 -68 8 -93 17 -93 20 0 65 103 65 149
0 23 7 82 16 132 15 86 14 92 -4 127 -37 73 -120 42 -109 -41 5 -38 3 -43 -36
-79 -23 -22 -55 -46 -70 -54 -16 -9 -49 -31 -75 -51 -25 -19 -57 -39 -70 -44
-13 -5 -45 -27 -71 -49 -26 -22 -52 -40 -58 -40 -6 0 -25 -11 -41 -25 -59 -49
-199 -131 -208 -122 -3 2 18 43 46 90 27 48 59 110 71 139 13 29 30 65 40 79
10 14 25 45 35 70 9 24 23 51 29 59 7 8 24 38 39 67 14 29 34 56 43 62 13 8
-5 10 -69 11 -48 0 -89 -3 -91 -7z"/>
<path d="M1365 1276 c-94 -13 -153 -40 -161 -73 -12 -48 57 -86 102 -56 12 8
53 19 91 25 115 17 133 17 133 3 0 -23 -49 -144 -75 -185 -14 -22 -25 -43 -25
-48 0 -5 -12 -19 -26 -33 -14 -13 -41 -47 -60 -76 -38 -57 -144 -167 -202
-210 -20 -15 -41 -34 -45 -40 -4 -7 -15 -13 -24 -13 -14 0 -13 4 5 23 45 48
55 236 23 395 -19 91 -19 94 -1 125 11 18 16 38 12 44 -9 15 -83 11 -130 -7
-54 -20 -56 -45 -13 -136 21 -44 43 -100 49 -127 15 -58 15 -186 2 -258 -9
-45 -8 -56 5 -65 8 -6 15 -19 15 -28 0 -25 27 -73 45 -80 9 -3 28 2 43 11 48
31 137 97 162 122 14 12 34 27 45 32 11 5 38 20 60 34 61 36 137 73 167 80 46
12 133 61 133 76 0 22 -66 22 -142 1 -111 -32 -123 -34 -123 -18 0 8 22 41 48
73 110 132 139 193 149 309 5 64 4 73 -16 93 -18 18 -32 21 -93 20 -40 -1
-109 -7 -153 -13z"/>
</g>
</svg>
