<?xml version="1.0" standalone="no"?>
<!DOCTYPE svg PUBLIC "-//W3C//DTD SVG 20010904//EN"
 "http://www.w3.org/TR/2001/REC-SVG-20010904/DTD/svg10.dtd">
<svg version="1.0" xmlns="http://www.w3.org/2000/svg"
 width="208.000000pt" height="210.000000pt" viewBox="0 0 208.000000 210.000000"
 preserveAspectRatio="xMidYMid meet">
<metadata>
Created by potrace 1.16, written by Peter Selinger 2001-2019
</metadata>
<g transform="translate(0.000000,210.000000) scale(0.100000,-0.100000)"
fill="#000000" stroke="none">
<path d="M1430 2055 c-14 -8 -38 -22 -55 -30 -16 -9 -48 -27 -70 -40 -22 -14
-46 -25 -53 -25 -7 0 -28 -11 -45 -24 -18 -14 -51 -31 -74 -39 -22 -8 -63 -27
-90 -43 -43 -26 -88 -46 -205 -90 -21 -7 -58 -15 -83 -18 -33 -2 -53 -11 -76
-34 -36 -36 -33 -60 11 -92 25 -18 35 -19 62 -11 77 23 171 62 210 88 102 65
289 166 296 159 2 -3 -16 -17 -40 -32 -70 -45 -82 -72 -57 -128 11 -23 16 -24
80 -22 73 3 76 5 148 75 19 19 37 29 39 23 2 -6 -4 -46 -14 -89 -10 -43 -18
-85 -19 -93 0 -9 -4 -20 -7 -25 -26 -43 -39 -242 -40 -620 -1 -257 4 -329 35
-523 8 -45 12 -82 9 -82 -2 0 -20 13 -38 30 -19 16 -51 34 -73 40 -21 5 -44
17 -51 25 -7 8 -21 15 -31 15 -22 0 -87 28 -111 49 -28 22 -169 10 -240 -22
-32 -14 -58 -30 -58 -35 0 -6 46 -8 118 -6 84 4 123 1 140 -8 12 -7 57 -31 99
-53 43 -22 102 -64 133 -93 30 -30 78 -71 105 -92 28 -20 59 -47 69 -59 23
-26 51 -27 61 -3 15 39 16 125 1 170 -19 58 -51 244 -65 372 -11 106 -6 441
10 685 10 160 25 237 59 308 10 21 22 52 25 70 4 18 10 37 14 42 4 6 14 30 21
55 8 25 20 54 27 65 7 11 13 38 13 61 0 34 -5 47 -26 63 -15 12 -31 21 -36 21
-11 0 -55 -44 -82 -84 -27 -38 -89 -66 -124 -57 l-27 8 30 15 c17 9 43 30 59
47 17 17 37 31 46 31 23 0 40 20 40 47 0 27 -31 31 -70 8z"/>
<path d="M1180 1533 c-25 -8 -53 -18 -63 -24 -9 -5 -47 -20 -83 -34 -36 -14
-82 -40 -103 -60 -21 -20 -59 -50 -86 -68 -51 -33 -70 -70 -59 -113 10 -39 39
-56 94 -56 72 0 101 30 64 66 -14 15 -14 18 4 43 39 55 144 131 187 136 17 2
48 13 70 24 23 12 58 25 79 28 34 7 37 10 34 39 -3 29 -5 31 -48 32 -25 1 -65
-5 -90 -13z"/>
<path d="M958 1095 c-20 -14 -39 -34 -43 -45 -5 -16 -15 -20 -53 -20 -60 0
-96 -18 -100 -50 -3 -29 30 -70 56 -70 15 0 18 -9 19 -51 1 -51 1 -51 -27 -45
-29 5 -40 -6 -40 -42 0 -23 85 -60 130 -57 40 2 302 70 329 85 21 11 38 103
21 108 -5 2 -10 9 -10 16 0 7 -40 32 -89 55 -79 38 -91 47 -97 75 -7 34 -30
66 -48 66 -6 0 -28 -11 -48 -25z m171 -211 c9 -9 -23 -24 -49 -24 -14 0 -41
-9 -61 -19 -20 -11 -58 -22 -85 -26 l-49 -7 35 31 c25 21 45 30 71 31 25 0 39
5 43 16 5 13 15 15 48 10 23 -4 45 -9 47 -12z"/>
</g>
</svg>
