<?xml version="1.0" standalone="no"?>
<!DOCTYPE svg PUBLIC "-//W3C//DTD SVG 20010904//EN"
 "http://www.w3.org/TR/2001/REC-SVG-20010904/DTD/svg10.dtd">
<svg version="1.0" xmlns="http://www.w3.org/2000/svg"
 width="208.000000pt" height="207.000000pt" viewBox="0 0 208.000000 207.000000"
 preserveAspectRatio="xMidYMid meet">
<metadata>
Created by potrace 1.16, written by Peter Selinger 2001-2019
</metadata>
<g transform="translate(0.000000,207.000000) scale(0.100000,-0.100000)"
fill="#000000" stroke="none">
<path d="M1009 1830 c-80 -10 -95 -38 -59 -107 19 -37 47 -142 57 -213 4 -31
1 -37 -25 -52 -17 -10 -39 -18 -50 -18 -11 0 -25 -6 -31 -14 -7 -8 -27 -17
-46 -20 -19 -4 -46 -17 -59 -29 -13 -12 -41 -28 -62 -35 -22 -7 -55 -19 -74
-27 -19 -7 -47 -16 -62 -19 -20 -5 -32 -17 -43 -42 -18 -44 -8 -68 36 -83 28
-10 41 -7 113 25 44 20 92 46 106 58 47 41 202 107 217 93 10 -11 6 -152 -5
-192 -12 -42 -29 -54 -187 -125 -159 -72 -196 -94 -211 -121 -18 -36 -5 -66
32 -75 18 -5 46 4 102 34 227 118 279 146 302 164 14 11 40 26 58 33 17 8 32
18 32 24 0 5 10 13 21 16 24 8 199 143 199 154 0 3 10 11 23 16 12 6 23 20 25
33 4 28 -27 56 -45 40 -7 -5 -29 -19 -50 -30 -21 -11 -50 -27 -64 -34 -15 -8
-33 -21 -39 -29 -15 -18 -87 -68 -112 -78 -21 -7 -24 13 -8 44 6 10 13 49 16
87 7 92 19 125 55 147 17 11 43 28 58 37 38 25 106 58 117 58 6 0 55 34 109
75 55 41 106 75 113 75 9 0 12 11 10 33 -3 30 -5 32 -36 29 -33 -3 -72 -23
-142 -70 -19 -13 -75 -44 -125 -69 -49 -24 -105 -54 -123 -65 -18 -11 -35 -18
-39 -15 -10 11 -42 142 -43 176 0 19 7 42 16 52 12 13 13 22 5 37 -14 26 -27
29 -82 22z"/>
<path d="M1648 1130 c-12 -11 -48 -37 -79 -58 -31 -20 -73 -50 -95 -65 -63
-46 -180 -111 -314 -177 -211 -102 -211 -102 -241 -150 -26 -41 -27 -46 -12
-62 25 -28 60 -21 137 26 39 25 94 55 121 66 107 46 156 72 165 90 5 10 23 23
40 29 17 5 44 19 59 31 36 25 76 27 67 4 -4 -10 -10 -44 -15 -78 -5 -34 -21
-110 -36 -171 -14 -60 -33 -143 -41 -184 -15 -75 -35 -111 -62 -111 -8 0 -44
-13 -79 -30 -34 -16 -68 -30 -74 -30 -7 0 -27 -9 -45 -21 -19 -11 -38 -18 -43
-15 -5 4 -12 2 -15 -3 -4 -5 -36 -13 -72 -16 -54 -6 -68 -12 -81 -32 -15 -23
-15 -28 -2 -51 19 -35 61 -42 135 -24 49 12 71 13 130 3 80 -13 116 -8 156 23
28 22 78 90 78 106 0 5 23 37 50 71 52 65 61 89 34 89 -14 0 -15 7 -9 46 3 26
11 56 15 68 5 11 23 86 40 166 31 146 77 263 132 336 19 26 22 41 20 88 -4 63
-21 73 -64 36z m-298 -909 c0 -19 -65 -71 -87 -71 -39 0 -25 26 22 44 25 10
45 22 45 27 0 5 5 9 10 9 6 0 10 -4 10 -9z"/>
<path d="M731 584 c-25 -32 -25 -37 -7 -72 16 -32 54 -241 52 -291 -1 -46 18
-50 56 -9 l31 33 -7 110 c-7 123 -23 224 -38 243 -18 22 -65 14 -87 -14z"/>
</g>
</svg>
