<?xml version="1.0" standalone="no"?>
<!DOCTYPE svg PUBLIC "-//W3C//DTD SVG 20010904//EN"
 "http://www.w3.org/TR/2001/REC-SVG-20010904/DTD/svg10.dtd">
<svg version="1.0" xmlns="http://www.w3.org/2000/svg"
 width="209.000000pt" height="208.000000pt" viewBox="0 0 209.000000 208.000000"
 preserveAspectRatio="xMidYMid meet">
<metadata>
Created by potrace 1.16, written by Peter Selinger 2001-2019
</metadata>
<g transform="translate(0.000000,208.000000) scale(0.100000,-0.100000)"
fill="#000000" stroke="none">
<path d="M1148 2055 c-8 -18 -8 -31 0 -48 6 -12 13 -37 16 -54 6 -37 -6 -49
-84 -79 -25 -10 -56 -25 -70 -35 -25 -17 -87 -39 -173 -60 -50 -12 -97 -55
-97 -88 0 -21 44 -61 68 -61 34 0 214 69 253 97 45 32 102 63 108 58 7 -7 10
-142 4 -214 l-6 -73 -56 -25 c-117 -51 -146 -69 -164 -100 -14 -25 -16 -36 -7
-52 14 -26 55 -37 83 -22 12 7 38 21 57 31 48 26 50 25 50 -15 0 -24 5 -35 15
-35 8 0 15 6 15 14 0 8 15 36 33 62 18 27 36 56 39 65 4 9 23 24 45 34 21 9
45 26 54 37 9 11 42 34 75 52 47 24 60 37 62 58 6 49 -61 41 -152 -19 -27 -18
-52 -30 -56 -28 -8 5 8 201 20 247 8 27 23 45 56 68 67 45 144 83 183 89 47 8
61 33 36 61 -17 19 -27 21 -65 16 -84 -11 -115 -19 -140 -37 -14 -10 -37 -21
-52 -25 -41 -9 -37 22 7 47 20 12 35 29 35 40 0 17 -8 19 -90 19 -87 0 -91 -1
-102 -25z"/>
<path d="M1425 1134 c-37 -8 -130 -38 -140 -45 -5 -4 -29 -10 -53 -14 -52 -8
-83 -23 -123 -59 -31 -28 -34 -41 -19 -80 8 -22 16 -26 47 -26 21 0 48 6 60
13 12 6 42 24 66 38 46 27 90 45 142 59 17 4 38 11 48 15 13 5 17 2 17 -13 0
-49 -32 -138 -83 -229 -30 -54 -58 -109 -62 -123 -6 -21 -58 -103 -75 -120 -3
-3 -25 -31 -48 -62 -47 -61 -129 -136 -171 -155 -14 -7 -37 -21 -50 -33 -34
-29 -20 -69 30 -88 l36 -14 109 73 c60 40 120 82 134 95 14 12 54 37 90 56 36
18 79 42 95 52 82 51 135 89 135 97 0 21 -42 17 -96 -9 -32 -16 -81 -37 -109
-47 -27 -10 -54 -22 -60 -27 -35 -31 -26 20 12 67 14 17 54 77 90 135 54 86
70 122 91 205 23 92 33 217 19 232 -8 7 -106 13 -132 7z"/>
<path d="M970 810 c-8 -5 -23 -7 -32 -4 -11 3 -28 -5 -44 -21 -21 -21 -25 -32
-19 -53 14 -53 17 -158 5 -211 -21 -92 24 -97 78 -7 26 42 34 69 39 126 5 61
11 78 35 105 23 26 37 64 26 65 -54 8 -76 8 -88 0z"/>
</g>
</svg>
