<?xml version="1.0" standalone="no"?>
<!DOCTYPE svg PUBLIC "-//W3C//DTD SVG 20010904//EN"
 "http://www.w3.org/TR/2001/REC-SVG-20010904/DTD/svg10.dtd">
<svg version="1.0" xmlns="http://www.w3.org/2000/svg"
 width="207.000000pt" height="206.000000pt" viewBox="0 0 207.000000 206.000000"
 preserveAspectRatio="xMidYMid meet">
<metadata>
Created by potrace 1.16, written by Peter Selinger 2001-2019
</metadata>
<g transform="translate(0.000000,206.000000) scale(0.100000,-0.100000)"
fill="#000000" stroke="none">
<path d="M1394 1906 c-34 -17 -68 -37 -76 -43 -8 -7 -50 -31 -93 -53 -43 -22
-85 -46 -93 -53 -8 -6 -36 -22 -61 -34 -58 -27 -69 -18 -74 62 -4 75 -13 91
-57 98 -28 5 -41 1 -63 -17 l-28 -23 19 -59 c11 -32 25 -71 32 -86 19 -40 1
-74 -42 -83 -18 -4 -51 -15 -73 -25 -22 -10 -62 -23 -90 -30 -27 -7 -57 -18
-65 -25 -8 -6 -53 -22 -100 -35 -92 -25 -130 -50 -130 -87 0 -24 32 -63 51
-63 19 0 93 23 104 32 5 4 16 8 25 8 9 0 54 18 101 41 46 22 111 50 144 61 33
12 63 25 66 30 4 6 15 8 25 6 17 -3 20 -16 24 -113 9 -190 12 -181 -89 -247
-88 -57 -128 -79 -211 -118 -82 -38 -101 -51 -121 -83 -29 -48 -25 -71 16 -86
36 -13 46 -10 80 20 11 10 31 24 45 31 14 7 58 33 98 58 84 52 133 79 146 80
4 0 5 -16 2 -35 -4 -19 -3 -35 1 -35 18 0 60 50 88 102 22 42 43 64 92 97 34
23 63 46 63 52 0 5 6 9 14 9 14 0 103 65 174 126 71 62 -3 90 -81 30 -19 -14
-36 -26 -40 -26 -3 0 -43 -22 -89 -49 -45 -27 -84 -49 -84 -48 -1 1 -4 64 -7
139 -5 127 -4 139 14 162 11 15 25 26 31 26 6 0 41 20 77 44 36 24 89 55 116
68 28 14 75 42 105 62 30 20 64 36 75 36 11 0 33 12 48 26 34 29 31 68 -5 78
-31 8 -35 7 -104 -28z"/>
<path d="M1335 939 c-32 -11 -71 -29 -85 -38 -14 -10 -38 -21 -55 -25 -16 -4
-37 -13 -45 -20 -8 -7 -62 -34 -120 -61 -58 -27 -112 -55 -120 -61 -8 -7 -28
-16 -45 -20 -46 -11 -117 -66 -132 -102 -12 -29 -11 -34 7 -52 26 -26 62 -25
97 3 34 28 225 137 240 137 10 0 66 28 160 81 23 13 45 20 50 16 8 -9 -30 -87
-89 -182 -21 -33 -51 -86 -68 -119 -53 -100 -158 -252 -194 -280 -19 -14 -43
-26 -53 -26 -15 0 -53 -38 -76 -77 -11 -18 12 -59 40 -72 28 -13 42 -6 171 81
38 26 89 57 113 69 71 36 146 87 153 105 15 39 -24 40 -111 3 -28 -12 -43 -14
-43 -7 0 10 47 89 99 167 42 61 83 131 107 181 15 30 43 85 61 122 30 59 34
76 31 130 -4 74 -8 76 -93 47z"/>
<path d="M552 605 c-53 -29 -54 -57 -2 -113 48 -53 89 -150 96 -232 4 -39 11
-73 15 -76 16 -9 67 25 73 50 9 37 -12 171 -36 224 -12 27 -21 71 -22 102 l-1
55 -50 2 c-27 1 -61 -4 -73 -12z"/>
</g>
</svg>
