<?xml version="1.0" standalone="no"?>
<!DOCTYPE svg PUBLIC "-//W3C//DTD SVG 20010904//EN"
 "http://www.w3.org/TR/2001/REC-SVG-20010904/DTD/svg10.dtd">
<svg version="1.0" xmlns="http://www.w3.org/2000/svg"
 width="208.000000pt" height="210.000000pt" viewBox="0 0 208.000000 210.000000"
 preserveAspectRatio="xMidYMid meet">
<metadata>
Created by potrace 1.16, written by Peter Selinger 2001-2019
</metadata>
<g transform="translate(0.000000,210.000000) scale(0.100000,-0.100000)"
fill="#000000" stroke="none">
<path d="M988 1934 c-16 -8 -28 -22 -28 -30 0 -29 -99 -282 -145 -370 -24 -48
-62 -110 -83 -138 -22 -28 -56 -80 -78 -116 -21 -36 -53 -84 -70 -107 -18 -24
-35 -51 -38 -60 -4 -11 -28 -25 -63 -35 -69 -21 -91 -38 -127 -100 -59 -101
-10 -127 100 -54 37 25 75 46 85 46 51 0 73 -269 39 -486 -5 -33 -11 -94 -12
-135 -3 -70 -2 -74 19 -77 18 -3 25 3 33 25 5 15 14 36 20 45 21 36 42 199 47
356 6 173 -3 250 -39 334 l-20 46 39 58 c21 31 47 71 57 88 11 17 34 49 51 71
65 82 122 172 160 255 21 47 46 94 55 105 9 11 29 49 45 85 15 36 34 74 41 85
20 28 17 68 -7 99 -23 29 -42 32 -81 10z"/>
<path d="M1668 1941 c-8 -3 -33 -23 -54 -43 -57 -56 -157 -139 -199 -168 -20
-14 -46 -34 -58 -45 -29 -27 -123 -95 -131 -95 -3 0 -28 -16 -55 -35 -26 -19
-53 -35 -59 -35 -6 0 -15 -6 -19 -12 -11 -18 -110 -82 -166 -108 -26 -13 -61
-39 -78 -59 -28 -33 -30 -40 -24 -86 3 -27 10 -54 15 -59 17 -17 56 5 82 48
17 28 42 53 67 66 23 11 41 24 41 29 0 4 12 13 26 20 15 6 68 43 118 80 50 38
107 76 126 84 20 8 44 26 53 41 10 14 22 26 28 26 11 0 85 57 129 98 13 13 38
31 54 39 l29 15 -8 -67 c-4 -36 -11 -80 -16 -98 -5 -17 -12 -59 -15 -92 -3
-33 -14 -121 -25 -197 -29 -203 -25 -702 7 -1067 l7 -74 -24 7 c-13 3 -46 9
-74 13 -27 3 -59 12 -70 19 -28 20 -67 18 -63 -3 2 -10 48 -40 113 -73 61 -30
121 -63 135 -72 29 -20 65 -14 75 10 15 40 15 115 -1 232 -11 89 -18 234 -21
505 l-5 380 31 210 c37 250 55 350 70 388 6 16 11 61 11 101 0 62 -3 74 -18
78 -9 3 -25 2 -34 -1z"/>
<path d="M1189 916 c-28 -9 -35 -17 -37 -43 -3 -27 2 -34 26 -47 20 -10 32
-12 39 -5 8 8 19 6 37 -6 23 -15 26 -24 26 -74 0 -70 -19 -131 -66 -222 -40
-77 -139 -185 -177 -194 -31 -8 -93 28 -112 66 -23 43 -18 132 12 236 36 124
21 140 -36 40 -63 -110 -77 -236 -37 -323 61 -131 179 -128 309 7 68 71 127
154 127 180 0 10 14 39 32 65 52 77 52 228 0 285 -33 35 -94 51 -143 35z"/>
</g>
</svg>
