<?xml version="1.0" standalone="no"?>
<!DOCTYPE svg PUBLIC "-//W3C//DTD SVG 20010904//EN"
 "http://www.w3.org/TR/2001/REC-SVG-20010904/DTD/svg10.dtd">
<svg version="1.0" xmlns="http://www.w3.org/2000/svg"
 width="206.000000pt" height="210.000000pt" viewBox="0 0 206.000000 210.000000"
 preserveAspectRatio="xMidYMid meet">
<metadata>
Created by potrace 1.16, written by Peter Selinger 2001-2019
</metadata>
<g transform="translate(0.000000,210.000000) scale(0.100000,-0.100000)"
fill="#000000" stroke="none">
<path d="M1510 2071 c-30 -15 -76 -36 -102 -46 -27 -10 -48 -21 -48 -26 0 -4
-10 -11 -22 -15 -13 -3 -54 -21 -93 -39 -38 -18 -109 -50 -157 -71 -49 -21
-88 -42 -88 -46 0 -4 -7 -8 -15 -8 -8 0 -19 -9 -25 -21 -14 -25 3 -75 30 -89
15 -8 95 -6 160 3 8 1 16 -2 17 -8 3 -12 -32 -127 -47 -154 -10 -20 -70 -41
-180 -63 -95 -19 -134 -63 -90 -103 24 -22 55 -22 140 -2 36 8 69 12 73 8 4
-4 -2 -30 -14 -57 -29 -67 -79 -211 -79 -228 0 -21 -38 -102 -55 -116 -11 -9
-18 -10 -29 -1 -11 9 -20 6 -42 -11 -37 -30 -142 -98 -151 -98 -3 0 -14 -6
-22 -14 -9 -8 -43 -29 -76 -47 -33 -17 -67 -38 -75 -45 -9 -7 -59 -33 -112
-58 -53 -24 -99 -49 -102 -55 -4 -6 -25 -15 -47 -21 -22 -6 -48 -20 -57 -31
-9 -10 -24 -19 -34 -19 -9 0 -20 -10 -24 -22 -8 -28 46 -81 73 -72 31 11 107
45 133 60 14 8 66 35 115 60 81 40 107 56 183 111 26 19 35 24 125 74 l65 36
-35 -76 c-19 -42 -40 -87 -46 -101 -6 -14 -33 -58 -60 -99 -26 -41 -55 -87
-63 -103 -49 -94 -187 -236 -210 -217 -19 16 -56 -26 -52 -58 4 -32 27 -48 59
-40 37 10 176 125 189 158 7 16 30 48 52 72 22 23 50 58 64 77 13 19 32 46 43
60 54 72 141 231 141 258 0 6 13 26 29 44 16 18 35 49 44 69 11 27 31 46 78
74 35 21 71 44 79 51 18 15 138 64 157 64 11 0 13 -14 9 -67 -4 -43 -2 -71 6
-80 14 -17 10 -22 -73 -76 -40 -26 -70 -54 -79 -74 -10 -23 -25 -36 -47 -42
-18 -5 -46 -19 -62 -30 -38 -28 -55 -101 -52 -231 3 -126 40 -290 66 -290 25
0 36 64 32 186 -5 144 8 214 51 279 28 42 37 49 61 47 21 -3 39 8 82 48 30 28
72 63 94 77 22 15 54 39 70 54 33 30 113 74 121 67 2 -3 -10 -36 -27 -74 -18
-38 -35 -85 -40 -104 -4 -19 -16 -69 -27 -110 -10 -41 -22 -104 -26 -140 -7
-71 -19 -85 -71 -82 -21 1 -41 -8 -69 -32 -37 -32 -38 -34 -27 -69 8 -24 20
-37 37 -41 27 -7 89 10 115 31 9 8 33 17 53 20 48 8 56 25 66 142 10 113 43
257 75 321 12 25 47 93 78 151 48 90 57 115 57 158 0 48 -1 51 -26 51 -28 0
-123 -50 -145 -76 -7 -8 -43 -33 -80 -55 -37 -23 -73 -47 -80 -55 -6 -8 -19
-14 -29 -14 -16 0 -17 8 -13 68 7 100 17 125 63 151 22 12 40 26 40 31 0 5 12
13 27 16 30 8 121 54 161 83 15 10 62 34 104 54 42 19 93 47 112 62 30 23 34
30 25 46 -20 38 -50 29 -306 -97 -95 -46 -179 -84 -188 -84 -12 0 -15 15 -14
83 1 145 12 197 44 223 34 27 61 40 95 48 14 3 38 16 54 29 l30 24 -26 17
c-25 17 -30 16 -82 0 -31 -10 -59 -15 -62 -11 -6 6 32 116 66 192 49 108 62
197 30 202 -8 1 -40 -10 -70 -26z m-87 -183 c-3 -18 -12 -45 -19 -60 -8 -15
-14 -42 -15 -60 0 -18 -6 -55 -12 -82 -11 -46 -15 -50 -55 -61 -25 -8 -44 -9
-48 -4 -3 5 4 29 15 52 12 24 21 49 21 55 0 18 -47 44 -68 38 -15 -5 -21 -1
-24 19 -4 21 2 30 40 55 25 16 49 30 53 30 5 0 25 11 45 25 20 14 45 25 55 25
15 0 17 -5 12 -32z m-79 -380 c-4 -13 -7 -81 -6 -153 1 -71 -1 -135 -5 -141
-10 -15 -88 -54 -106 -54 -8 0 -20 -7 -27 -15 -7 -8 -21 -15 -30 -15 -10 0
-32 -11 -48 -25 -17 -14 -33 -25 -36 -25 -20 0 15 134 55 212 10 20 19 42 19
49 0 6 16 44 36 83 32 64 42 75 78 89 61 23 79 22 70 -5z"/>
</g>
</svg>
