<?xml version="1.0" standalone="no"?>
<!DOCTYPE svg PUBLIC "-//W3C//DTD SVG 20010904//EN"
 "http://www.w3.org/TR/2001/REC-SVG-20010904/DTD/svg10.dtd">
<svg version="1.0" xmlns="http://www.w3.org/2000/svg"
 width="205.000000pt" height="210.000000pt" viewBox="0 0 205.000000 210.000000"
 preserveAspectRatio="xMidYMid meet">
<metadata>
Created by potrace 1.16, written by Peter Selinger 2001-2019
</metadata>
<g transform="translate(0.000000,210.000000) scale(0.100000,-0.100000)"
fill="#000000" stroke="none">
<path d="M1163 1937 c-112 -60 -194 -109 -253 -153 -86 -65 -95 -73 -140 -118
l-39 -38 6 -97 6 -98 -36 -22 c-46 -28 -52 -46 -26 -83 27 -37 22 -79 -25
-233 -50 -161 -62 -188 -88 -206 -83 -57 -185 -123 -226 -144 -26 -14 -67 -37
-92 -51 -25 -14 -67 -35 -95 -47 -27 -11 -74 -37 -102 -56 -48 -32 -53 -39
-53 -73 0 -35 2 -38 36 -44 38 -7 53 -1 149 56 28 16 57 33 65 37 8 3 29 17
46 30 17 13 34 23 38 23 3 0 36 18 71 39 36 22 65 37 65 33 0 -4 -31 -68 -69
-142 -68 -134 -174 -300 -192 -300 -5 0 -9 -9 -9 -21 0 -17 4 -19 23 -13 12 4
32 13 43 21 25 16 116 119 153 172 63 92 99 149 115 186 10 22 29 54 41 70 12
17 30 46 40 65 28 54 76 109 123 141 24 16 46 29 49 29 3 0 21 11 38 25 18 13
57 38 86 54 47 26 54 27 65 13 16 -23 40 -9 59 36 13 29 35 51 77 78 32 21 58
40 58 44 0 3 15 14 33 25 31 18 73 49 147 108 49 39 47 37 128 86 77 46 106
78 100 108 -5 26 -34 28 -66 3 -30 -24 -290 -180 -299 -180 -3 0 -23 -16 -44
-35 -22 -19 -44 -35 -49 -35 -10 0 -5 64 7 100 3 8 9 42 13 74 7 47 15 65 39
87 30 27 43 79 21 79 -22 0 1 92 32 127 25 29 40 115 33 180 -11 90 -28 100
-102 60z m-9 -139 c-3 -13 -18 -52 -31 -88 -13 -36 -29 -82 -34 -104 -15 -59
-26 -73 -66 -87 -20 -6 -58 -23 -84 -35 -50 -25 -84 -30 -94 -14 -6 10 13 82
39 142 9 20 33 49 53 64 21 15 52 40 68 55 29 27 132 88 148 89 5 0 5 -10 1
-22z m-114 -390 c0 -7 -9 -64 -20 -127 -11 -62 -20 -117 -20 -122 0 -5 -15
-16 -32 -25 -18 -9 -63 -38 -99 -65 -74 -54 -119 -76 -119 -56 0 21 32 161 41
179 5 10 9 25 9 33 0 33 45 108 72 122 12 6 50 25 83 42 66 33 85 37 85 19z"/>
<path d="M1232 937 c-51 -46 -190 -119 -272 -143 -26 -8 -59 -25 -75 -40 -15
-14 -34 -23 -41 -20 -15 6 -84 -37 -97 -60 -25 -44 -50 -495 -29 -516 6 -6 13
-10 14 -7 2 2 17 20 35 39 30 33 32 41 43 165 7 71 21 155 31 187 10 32 21 73
25 93 8 43 15 49 48 33 19 -8 32 -8 49 -1 55 26 135 61 167 73 19 7 39 17 44
22 17 14 28 9 21 -9 -4 -10 -11 -82 -16 -161 -13 -238 -7 -222 -106 -286 -47
-31 -90 -56 -97 -56 -6 0 -22 -9 -35 -19 -19 -15 -22 -23 -17 -49 10 -44 50
-68 91 -53 17 6 42 11 56 11 35 0 126 56 143 88 35 67 52 167 72 417 2 33 14
89 25 125 20 61 27 178 13 201 -12 20 -46 7 -92 -34z"/>
</g>
</svg>
