<?xml version="1.0" standalone="no"?>
<!DOCTYPE svg PUBLIC "-//W3C//DTD SVG 20010904//EN"
 "http://www.w3.org/TR/2001/REC-SVG-20010904/DTD/svg10.dtd">
<svg version="1.0" xmlns="http://www.w3.org/2000/svg"
 width="209.000000pt" height="211.000000pt" viewBox="0 0 209.000000 211.000000"
 preserveAspectRatio="xMidYMid meet">
<metadata>
Created by potrace 1.16, written by Peter Selinger 2001-2019
</metadata>
<g transform="translate(0.000000,211.000000) scale(0.100000,-0.100000)"
fill="#000000" stroke="none">
<path d="M832 2088 c-16 -30 -33 -111 -37 -169 -1 -26 -5 -51 -8 -56 -3 -5
-11 -40 -17 -77 -16 -98 -43 -172 -130 -346 -42 -85 -83 -173 -90 -195 -16
-49 -94 -199 -126 -242 -13 -17 -24 -36 -24 -40 0 -21 -70 -145 -126 -223 -76
-107 -124 -181 -124 -192 0 -24 41 -2 85 46 112 120 125 136 145 174 12 23 28
46 36 53 8 6 14 17 14 23 1 30 37 53 94 59 47 5 65 12 90 36 18 17 36 31 40
31 4 0 25 13 45 29 43 34 217 135 251 146 23 7 23 7 16 -56 -18 -165 -47 -238
-119 -299 -24 -20 -41 -95 -26 -121 8 -15 18 -19 42 -17 26 2 33 9 41 36 5 19
28 49 55 72 25 21 59 51 74 65 34 31 99 65 124 65 9 0 54 12 98 27 l82 26 39
-19 c37 -18 39 -21 39 -64 -1 -48 -63 -188 -108 -243 -12 -15 -42 -54 -67 -87
-53 -71 -152 -175 -196 -206 -17 -12 -49 -27 -70 -34 -22 -7 -46 -18 -54 -25
-20 -18 -116 -60 -165 -73 -47 -13 -105 -63 -105 -90 0 -11 12 -27 26 -37 51
-33 119 -6 379 153 61 37 144 82 185 101 41 18 82 39 90 45 8 7 30 19 49 27
67 27 113 54 109 64 -5 16 -56 8 -142 -20 -43 -14 -81 -24 -83 -21 -3 2 3 13
11 23 187 213 274 420 222 522 -25 47 -152 82 -229 62 -23 -6 -82 -20 -132
-32 -49 -11 -100 -27 -112 -35 -13 -8 -23 -12 -23 -9 0 11 33 110 40 120 4 6
13 39 20 75 15 73 45 110 122 149 53 28 148 92 148 101 0 3 16 12 35 19 42 15
75 47 75 73 0 26 -27 34 -49 14 -10 -9 -42 -23 -72 -32 -30 -9 -61 -22 -69
-28 -8 -7 -29 -18 -47 -25 -17 -7 -39 -21 -49 -32 -34 -38 -44 -25 -44 59 0
106 30 202 69 225 16 9 38 17 49 17 11 0 25 7 32 15 7 8 17 15 22 15 5 0 22
10 38 21 16 12 59 33 97 46 80 28 92 37 77 61 -23 36 -77 27 -200 -32 -63 -31
-125 -56 -138 -56 -20 0 -24 6 -29 50 -3 27 -3 72 0 98 5 42 2 52 -18 70 -26
25 -36 26 -75 12 -27 -11 -27 -11 -21 -88 4 -42 10 -105 13 -139 l7 -63 -39
-16 c-76 -31 -129 -55 -146 -64 -22 -13 -23 0 -4 61 8 24 26 85 41 134 15 50
33 104 40 120 16 35 19 60 17 133 l-2 52 -48 0 c-40 0 -51 -4 -60 -22z m53
-178 c-3 -5 -11 -10 -16 -10 -6 0 -7 5 -4 10 3 6 11 10 16 10 6 0 7 -4 4 -10z
m196 -193 c-8 -8 -11 -3 -11 19 1 25 2 27 11 11 8 -14 8 -22 0 -30z m-70 -169
c5 -53 -5 -234 -12 -236 -5 -2 -23 -15 -39 -28 -31 -27 -108 -71 -333 -194
-22 -12 -42 -19 -45 -15 -3 3 3 25 15 48 28 54 50 106 69 159 8 24 22 54 32
68 9 14 22 35 27 48 7 17 30 30 85 48 50 17 81 34 94 51 35 46 105 79 107 51z"/>
<path d="M546 665 c-71 -25 -72 -47 -7 -129 53 -67 88 -138 98 -198 5 -35 25
-59 39 -46 2 3 9 33 15 67 10 55 9 70 -11 131 -12 38 -29 75 -36 81 -21 17
-17 37 11 55 14 9 25 25 25 35 0 16 -7 19 -47 19 -27 -1 -66 -7 -87 -15z"/>
</g>
</svg>
