<?xml version="1.0" standalone="no"?>
<!DOCTYPE svg PUBLIC "-//W3C//DTD SVG 20010904//EN"
 "http://www.w3.org/TR/2001/REC-SVG-20010904/DTD/svg10.dtd">
<svg version="1.0" xmlns="http://www.w3.org/2000/svg"
 width="207.000000pt" height="214.000000pt" viewBox="0 0 207.000000 214.000000"
 preserveAspectRatio="xMidYMid meet">
<metadata>
Created by potrace 1.16, written by Peter Selinger 2001-2019
</metadata>
<g transform="translate(0.000000,214.000000) scale(0.100000,-0.100000)"
fill="#000000" stroke="none">
<path d="M722 2008 c-25 -30 -75 -156 -140 -353 -38 -115 -89 -253 -112 -305
-22 -52 -55 -131 -72 -175 -16 -44 -39 -98 -49 -121 -23 -48 -23 -54 -6 -54
32 0 119 138 230 365 l54 110 12 -55 c6 -30 12 -113 14 -184 l2 -129 -60 -31
c-55 -29 -108 -60 -160 -94 -11 -7 -31 -18 -45 -25 -34 -16 -95 -66 -185 -150
-40 -37 -94 -83 -120 -102 -65 -46 -85 -79 -85 -141 0 -49 9 -64 39 -64 4 0
77 68 162 151 85 83 172 163 194 177 22 15 67 47 100 72 65 50 131 90 146 90
5 0 9 -26 9 -58 0 -52 -3 -62 -30 -85 -16 -15 -62 -77 -102 -139 -100 -155
-97 -150 -109 -178 -5 -14 -27 -61 -48 -105 -21 -44 -49 -105 -62 -135 -13
-30 -41 -84 -62 -119 -33 -56 -36 -66 -23 -79 38 -39 135 89 282 375 56 110
113 193 131 193 14 0 15 -18 10 -137 -10 -227 -26 -466 -33 -496 -6 -27 -6
-27 44 -27 38 0 51 4 56 17 4 9 11 94 17 187 15 257 20 331 25 336 3 2 27 -3
53 -13 27 -9 57 -17 66 -17 10 0 35 -16 56 -35 41 -37 75 -44 123 -25 34 12
104 77 122 111 8 16 23 37 35 47 11 11 21 30 21 43 1 13 12 36 24 51 58 71
106 300 87 411 -12 71 -52 143 -86 156 -12 5 -41 12 -65 16 -39 6 -45 4 -72
-25 -40 -42 -40 -82 -1 -109 34 -25 54 -26 71 -6 18 22 28 19 45 -15 51 -99
-39 -422 -148 -529 -56 -54 -72 -48 -63 23 7 61 103 297 126 311 13 8 13 42 0
50 -10 6 -90 -62 -90 -78 0 -5 -11 -24 -23 -41 -33 -43 -102 -173 -117 -218
-6 -21 -15 -38 -20 -38 -5 0 -41 15 -80 33 l-72 32 8 85 c8 95 14 198 14 248
1 38 6 46 71 111 26 25 45 52 42 59 -6 14 -69 16 -78 2 -3 -5 -12 -10 -19 -10
-10 0 -15 37 -21 154 -6 130 -5 158 9 184 15 30 15 32 -6 46 -12 9 -35 16 -51
16 -15 0 -30 6 -33 13 -6 17 44 177 62 198 8 8 14 23 14 32 0 9 4 19 10 22 30
18 65 155 43 168 -24 14 -71 17 -81 5z"/>
<path d="M560 30 c0 -20 5 -30 15 -30 16 0 19 17 9 44 -10 26 -24 18 -24 -14z"/>
</g>
</svg>
