<?xml version="1.0" standalone="no"?>
<!DOCTYPE svg PUBLIC "-//W3C//DTD SVG 20010904//EN"
 "http://www.w3.org/TR/2001/REC-SVG-20010904/DTD/svg10.dtd">
<svg version="1.0" xmlns="http://www.w3.org/2000/svg"
 width="207.000000pt" height="212.000000pt" viewBox="0 0 207.000000 212.000000"
 preserveAspectRatio="xMidYMid meet">
<metadata>
Created by potrace 1.16, written by Peter Selinger 2001-2019
</metadata>
<g transform="translate(0.000000,212.000000) scale(0.100000,-0.100000)"
fill="#000000" stroke="none">
<path d="M1122 1965 c-12 -15 -19 -32 -15 -39 16 -29 38 -46 61 -46 13 0 38
-7 55 -15 18 -8 58 -24 90 -36 32 -11 61 -27 63 -34 17 -43 -125 -197 -219
-241 -30 -13 -61 -31 -67 -39 -13 -16 -39 -20 -41 -7 0 4 -2 27 -4 52 -5 77
-23 192 -32 200 -9 9 -52 14 -94 12 -18 -2 -30 -11 -42 -37 -17 -35 -17 -36 6
-58 36 -33 97 -165 97 -208 0 -29 7 -43 31 -63 17 -14 39 -26 50 -26 35 0 112
66 227 194 137 153 163 194 152 243 -8 35 -35 73 -53 73 -5 0 -44 21 -86 46
-45 28 -93 48 -117 51 -36 5 -44 2 -62 -22z"/>
<path d="M1465 1180 c-4 -6 -22 -17 -41 -25 -42 -17 -44 -42 -6 -77 23 -22 36
-26 97 -27 39 -1 85 -4 103 -7 30 -6 33 -9 27 -33 -4 -14 -15 -35 -26 -47 -10
-11 -19 -24 -19 -30 0 -5 -15 -25 -33 -45 -27 -31 -48 -61 -122 -178 -35 -55
-87 -154 -105 -201 -12 -30 -28 -62 -35 -70 -8 -9 -17 -34 -21 -57 -6 -39 -4
-42 24 -57 45 -23 56 -20 100 23 22 22 76 58 121 80 79 40 108 69 97 97 -7 19
-42 18 -103 -6 -31 -11 -55 -16 -58 -10 -7 12 62 142 120 224 45 65 47 69 112
198 60 120 62 132 23 168 -18 17 -43 30 -57 30 -39 0 -122 24 -175 51 -10 5
-20 5 -23 -1z"/>
<path d="M817 1002 c-13 -14 -16 -33 -14 -72 3 -51 17 -74 32 -50 11 17 35 -8
35 -37 0 -39 -46 -117 -99 -168 -28 -27 -53 -56 -56 -64 -3 -9 -19 -24 -36
-34 l-31 -17 5 32 c4 18 7 80 8 138 2 58 7 117 13 133 15 40 -2 62 -49 63 -46
1 -105 -30 -105 -56 0 -10 6 -33 14 -51 26 -63 13 -234 -29 -364 -10 -31 29
-75 66 -75 30 0 42 8 137 98 26 24 55 48 65 54 10 5 24 23 31 39 7 16 36 53
64 83 112 116 130 243 47 331 -36 39 -73 45 -98 17z"/>
<path d="M1132 993 c-26 -32 -28 -74 -6 -108 32 -49 42 -365 13 -428 -11 -24
-11 -30 2 -38 19 -12 19 -12 56 10 46 29 64 118 63 315 -2 208 -4 219 -51 250
-48 32 -50 32 -77 -1z"/>
</g>
</svg>
