<?xml version="1.0" standalone="no"?>
<!DOCTYPE svg PUBLIC "-//W3C//DTD SVG 20010904//EN"
 "http://www.w3.org/TR/2001/REC-SVG-20010904/DTD/svg10.dtd">
<svg version="1.0" xmlns="http://www.w3.org/2000/svg"
 width="208.000000pt" height="212.000000pt" viewBox="0 0 208.000000 212.000000"
 preserveAspectRatio="xMidYMid meet">
<metadata>
Created by potrace 1.16, written by Peter Selinger 2001-2019
</metadata>
<g transform="translate(0.000000,212.000000) scale(0.100000,-0.100000)"
fill="#000000" stroke="none">
<path d="M1240 2079 c-41 -11 -84 -24 -95 -28 -102 -46 -134 -65 -143 -86 -7
-14 -16 -25 -21 -25 -6 0 -13 -16 -17 -35 -5 -27 -2 -41 11 -55 26 -29 50 -25
90 14 20 19 59 48 88 65 60 34 167 65 179 53 15 -15 -9 -57 -81 -142 -39 -46
-71 -92 -71 -101 0 -19 -107 -119 -127 -119 -7 0 -13 -4 -13 -10 0 -5 -11 -10
-24 -10 -33 0 -49 -23 -41 -60 9 -42 37 -55 89 -42 22 6 48 11 56 11 96 3 131
32 91 75 -20 21 -20 23 -4 46 47 70 129 176 141 183 25 16 72 130 72 175 0 58
-24 102 -54 102 -14 0 -30 2 -38 4 -7 2 -47 -5 -88 -15z"/>
<path d="M770 1703 c0 -29 -20 -44 -42 -32 -10 5 -18 16 -18 24 0 21 -17 18
-30 -4 -20 -38 17 -91 64 -91 41 -1 104 -30 138 -65 31 -31 51 -24 62 21 9 34
-6 57 -58 90 -25 16 -47 38 -48 49 -4 28 -68 36 -68 8z"/>
<path d="M802 1098 c-24 -24 -14 -65 27 -106 61 -65 74 -100 61 -172 -12 -68
-43 -146 -59 -151 -16 -6 -141 -130 -153 -152 -15 -30 -2 -61 32 -74 31 -12
32 -11 108 69 42 45 103 107 135 138 62 62 70 86 32 96 -29 7 -30 12 -10 38
18 24 20 105 3 155 -6 20 -25 65 -43 101 -32 64 -33 65 -76 68 -26 2 -49 -2
-57 -10z"/>
<path d="M1352 978 c-22 -22 -24 -22 -51 -7 -24 14 -32 15 -60 3 -36 -15 -53
-50 -39 -77 38 -73 49 -202 38 -447 -5 -122 -1 -150 25 -150 17 0 49 80 60
150 20 124 26 220 21 307 -5 73 -4 103 5 108 6 4 73 10 148 12 166 6 211 -6
211 -56 0 -37 -38 -108 -94 -176 -41 -50 -142 -148 -177 -173 -26 -18 -24 -48
6 -77 33 -34 51 -31 104 14 26 21 55 41 66 45 21 7 95 72 95 85 0 4 -5 12 -11
18 -9 9 -1 27 30 72 41 61 64 115 76 182 6 30 2 42 -27 79 -49 65 -101 86
-245 99 -158 14 -155 15 -181 -11z"/>
<path d="M574 821 c-89 -15 -117 -61 -72 -123 11 -17 25 -47 29 -67 4 -20 13
-56 19 -80 6 -24 8 -63 4 -86 -10 -73 29 -64 80 17 14 21 16 39 12 80 -16 138
-15 166 5 184 28 25 25 62 -7 74 -14 6 -26 9 -27 9 -1 -1 -21 -5 -43 -8z"/>
</g>
</svg>
