<?xml version="1.0" standalone="no"?>
<!DOCTYPE svg PUBLIC "-//W3C//DTD SVG 20010904//EN"
 "http://www.w3.org/TR/2001/REC-SVG-20010904/DTD/svg10.dtd">
<svg version="1.0" xmlns="http://www.w3.org/2000/svg"
 width="205.000000pt" height="213.000000pt" viewBox="0 0 205.000000 213.000000"
 preserveAspectRatio="xMidYMid meet">
<metadata>
Created by potrace 1.16, written by Peter Selinger 2001-2019
</metadata>
<g transform="translate(0.000000,213.000000) scale(0.100000,-0.100000)"
fill="#000000" stroke="none">
<path d="M1350 2042 c-36 -27 -96 -66 -135 -87 -38 -21 -81 -49 -95 -62 -14
-13 -34 -26 -45 -29 -11 -4 -54 -29 -96 -55 -42 -27 -82 -49 -89 -49 -11 0
-24 -9 -102 -72 -37 -29 -37 -69 -1 -102 20 -19 34 -24 53 -19 43 10 74 27 85
48 16 31 97 105 116 105 9 0 22 7 29 15 20 24 36 18 34 -12 -1 -16 -5 -89 -8
-163 -9 -163 -33 -392 -44 -400 -4 -4 -29 -15 -57 -24 -81 -28 -95 -38 -95
-62 0 -33 33 -47 91 -40 l49 7 -1 -73 c0 -40 1 -77 3 -83 4 -13 -22 -75 -32
-75 -3 0 -23 -24 -43 -53 -40 -57 -169 -186 -209 -208 -129 -70 -128 -70 -103
-122 9 -19 26 -38 38 -41 13 -3 61 10 122 33 55 22 134 44 175 51 113 18 238
47 305 70 33 12 80 28 104 36 24 7 49 18 55 23 6 5 34 15 61 22 28 7 73 22
100 34 28 13 65 26 82 29 18 4 35 12 38 17 4 5 17 9 31 9 18 0 24 -5 24 -21 0
-18 4 -20 33 -16 119 19 159 43 172 104 8 41 -21 73 -66 73 -62 0 -274 -55
-328 -85 -27 -15 -110 -46 -196 -72 -27 -9 -79 -26 -115 -39 -54 -19 -252 -64
-281 -64 -21 0 -5 29 43 80 64 69 134 172 187 277 23 46 46 85 51 88 5 3 20
31 35 63 14 31 41 73 58 92 18 19 48 55 67 80 19 25 38 47 42 48 4 2 8 8 8 13
0 15 142 154 191 187 58 39 76 81 48 109 -13 13 -122 -36 -188 -84 -41 -30
-191 -196 -191 -211 0 -5 -11 -19 -25 -32 -18 -17 -25 -19 -26 -9 -2 34 2 89
13 161 9 58 9 99 1 160 -13 95 -27 113 -74 96 -17 -6 -32 -9 -34 -7 -6 7 20
96 34 112 7 9 11 23 8 31 -5 14 81 96 101 96 4 0 34 26 66 57 45 44 56 61 48
73 -19 30 -55 22 -122 -28z m-143 -709 c-2 -88 -5 -108 -17 -108 -10 0 -14 8
-12 25 1 14 5 62 9 108 3 45 9 82 14 82 5 0 8 -48 6 -107z m-12 -230 c-8 -34
-32 -73 -45 -73 -10 0 -3 54 12 83 5 9 16 17 24 17 13 0 15 -6 9 -27z"/>
<path d="M547 1553 c-1 -1 -34 -10 -73 -21 -47 -12 -79 -16 -94 -10 -27 10
-93 -6 -115 -28 -14 -14 -20 -36 -16 -58 3 -15 10 -194 16 -386 5 -191 19
-273 44 -268 12 2 18 22 25 71 4 37 12 67 17 67 5 0 9 -4 9 -10 0 -35 107 19
149 75 34 44 39 79 15 93 -15 8 -15 14 0 73 9 35 22 70 30 79 13 15 28 45 64
130 26 61 38 173 20 188 -11 9 -83 13 -91 5z m-65 -244 c-74 -156 -82 -176
-82 -191 0 -8 -9 -23 -21 -34 l-20 -18 5 94 c8 158 18 214 39 218 10 2 28 -4
39 -14 19 -18 20 -18 34 1 8 10 14 27 14 36 0 19 20 31 33 20 4 -4 -15 -54
-41 -112z"/>
</g>
</svg>
