<?xml version="1.0" standalone="no"?>
<!DOCTYPE svg PUBLIC "-//W3C//DTD SVG 20010904//EN"
 "http://www.w3.org/TR/2001/REC-SVG-20010904/DTD/svg10.dtd">
<svg version="1.0" xmlns="http://www.w3.org/2000/svg"
 width="208.000000pt" height="206.000000pt" viewBox="0 0 208.000000 206.000000"
 preserveAspectRatio="xMidYMid meet">
<metadata>
Created by potrace 1.16, written by Peter Selinger 2001-2019
</metadata>
<g transform="translate(0.000000,206.000000) scale(0.100000,-0.100000)"
fill="#000000" stroke="none">
<path d="M1857 2038 c-3 -13 -3 -54 0 -93 10 -130 1 -1534 -10 -1552 -3 -5 -8
-46 -11 -93 -3 -46 -10 -88 -15 -93 -6 -6 -28 -3 -58 8 -164 57 -227 62 -343
26 -75 -24 -152 -82 -134 -101 9 -9 20 -8 45 4 115 54 236 51 359 -10 38 -18
73 -34 77 -34 12 -1 53 -37 53 -47 1 -16 50 -44 68 -39 21 7 52 128 52 207 0
30 4 83 9 119 5 36 12 409 16 830 3 421 8 793 11 828 l6 62 -60 0 c-54 0 -60
-2 -65 -22z"/>
<path d="M1022 2020 c-34 -14 -44 -55 -39 -157 3 -60 0 -98 -7 -108 -13 -16
-128 -75 -148 -75 -20 0 -118 -92 -118 -110 0 -28 30 -60 56 -60 14 0 42 14
62 31 38 32 162 94 162 81 0 -4 5 -45 10 -91 10 -74 9 -86 -6 -102 -9 -11 -22
-19 -28 -19 -21 0 -87 -54 -92 -77 -13 -51 65 -85 108 -46 10 9 20 14 22 12 4
-4 9 -143 7 -216 -1 -50 -14 -55 -35 -14 -9 16 -29 42 -45 59 -30 29 -62 103
-76 170 -5 23 -12 32 -26 32 -17 0 -19 -7 -18 -62 1 -91 14 -139 51 -195 25
-37 111 -125 136 -139 3 -2 -21 -44 -55 -99 -7 -11 -19 -36 -28 -55 -8 -19
-19 -42 -24 -50 -43 -66 -134 -224 -153 -265 -17 -36 -33 -55 -57 -66 -39 -18
-56 -51 -41 -80 33 -60 132 21 205 167 29 58 70 104 94 104 11 0 23 5 26 10 3
6 11 10 17 10 11 0 2 -85 -10 -105 -4 -5 -8 -26 -9 -45 -1 -19 -7 -74 -13
-121 -18 -140 -19 -301 -2 -321 19 -23 78 -24 86 -2 11 29 36 220 46 358 6 77
13 142 15 145 3 2 24 -6 48 -18 46 -24 73 -21 82 9 6 18 -13 60 -27 60 -3 0
-27 27 -52 60 -45 59 -46 62 -46 134 0 40 4 98 10 127 9 48 17 61 72 115 80
78 80 78 129 171 49 94 89 205 89 248 0 31 -20 56 -66 82 -22 12 -126 -2 -186
-26 -33 -12 -36 -9 -39 54 -10 204 -18 189 154 276 44 23 50 55 12 65 -14 3
-31 1 -39 -5 -7 -6 -20 -9 -29 -5 -9 3 -35 -6 -60 -20 -24 -14 -46 -24 -48
-21 -3 2 -2 37 2 77 10 108 -14 144 -79 118z m296 -592 c39 -33 -37 -197 -138
-294 -19 -19 -40 -34 -47 -34 -16 0 -22 193 -7 239 6 19 19 40 30 45 10 6 22
15 26 20 18 25 113 42 136 24z m-328 -713 c0 -45 -4 -56 -21 -65 -33 -18 -40
-7 -21 30 11 19 22 47 26 63 10 42 16 32 16 -28z"/>
<path d="M420 1415 c-7 -8 -15 -35 -17 -58 -5 -39 -2 -46 22 -65 15 -12 33
-22 39 -22 14 0 85 -74 111 -115 36 -57 22 -159 -32 -231 -47 -63 -142 -106
-183 -84 -10 5 -28 36 -40 67 -12 32 -27 61 -33 65 -16 10 -14 112 3 162 14
43 10 51 -22 42 -36 -10 -68 -70 -75 -140 -8 -92 17 -167 78 -231 l48 -50 74
0 c57 0 77 4 91 18 10 10 36 27 57 38 74 37 124 159 123 295 0 87 -11 113 -81
200 -18 23 -33 46 -33 52 0 17 -73 72 -96 72 -12 0 -27 -7 -34 -15z"/>
<path d="M1408 1265 c-22 -29 -22 -33 -4 -109 8 -34 22 -97 31 -141 17 -81 39
-115 74 -115 38 1 42 13 31 86 -6 38 -14 110 -19 161 -5 57 -15 102 -25 118
-22 33 -65 33 -88 0z"/>
</g>
</svg>
