<?xml version="1.0" standalone="no"?>
<!DOCTYPE svg PUBLIC "-//W3C//DTD SVG 20010904//EN"
 "http://www.w3.org/TR/2001/REC-SVG-20010904/DTD/svg10.dtd">
<svg version="1.0" xmlns="http://www.w3.org/2000/svg"
 width="210.000000pt" height="206.000000pt" viewBox="0 0 210.000000 206.000000"
 preserveAspectRatio="xMidYMid meet">
<metadata>
Created by potrace 1.16, written by Peter Selinger 2001-2019
</metadata>
<g transform="translate(0.000000,206.000000) scale(0.100000,-0.100000)"
fill="#000000" stroke="none">
<path d="M747 2005 c-18 -17 -42 -174 -33 -216 7 -34 -3 -89 -15 -89 -12 0
-121 -81 -180 -134 -63 -57 -71 -99 -22 -127 29 -16 38 -17 70 -6 29 9 43 23
63 59 29 54 54 83 67 75 4 -3 10 -36 11 -74 1 -37 5 -80 8 -95 5 -23 2 -28
-23 -34 -75 -19 -208 -88 -218 -113 -9 -22 23 -61 50 -61 13 0 55 16 94 35
103 52 101 53 101 -69 0 -99 -1 -105 -22 -112 -13 -4 -42 -19 -66 -34 -53 -33
-99 -30 -113 7 -12 33 -43 27 -47 -9 -5 -42 22 -84 59 -92 55 -11 93 -7 134
14 22 11 41 20 43 20 2 0 2 -32 0 -71 -2 -64 -6 -76 -38 -118 -19 -26 -46 -58
-59 -72 -27 -28 -111 -155 -111 -168 0 -5 -15 -31 -33 -57 -18 -27 -45 -74
-61 -104 -29 -55 -84 -132 -98 -138 -5 -2 -8 -10 -8 -18 0 -17 33 -18 63 -3
30 17 97 80 97 93 0 6 10 23 23 36 42 48 86 119 96 157 6 22 30 58 55 84 24
25 46 55 50 65 3 10 3 -37 0 -106 -2 -69 -5 -134 -5 -145 0 -11 0 -102 0 -202
l1 -183 49 0 c28 0 52 4 56 10 3 5 6 113 6 241 0 128 2 236 5 240 2 5 16 4 30
-2 39 -14 152 -13 170 2 8 7 14 22 12 33 -2 17 -14 23 -58 32 -76 16 -83 20
-120 65 -24 30 -30 46 -26 67 3 15 8 75 10 134 6 145 31 212 104 274 30 26 52
54 52 65 0 11 9 37 20 59 38 75 18 167 -37 172 -26 2 -36 4 -56 13 -10 4 -23
3 -29 -3 -5 -5 -18 -7 -29 -5 -17 5 -19 15 -20 87 -2 114 1 137 17 170 8 16
14 35 14 42 0 11 18 30 117 122 13 12 23 30 21 40 -6 26 -45 17 -103 -23 -54
-38 -77 -34 -57 10 13 27 16 132 6 159 -8 20 -67 21 -87 1z m162 -694 c9 -6
11 -17 7 -32 -9 -35 -61 -93 -74 -85 -15 9 -16 43 -2 51 6 3 10 19 10 35 0 26
6 32 40 39 3 0 11 -3 19 -8z"/>
<path d="M1704 1968 c-55 -42 -64 -58 -66 -117 -2 -93 2 -166 23 -381 10 -113
19 -223 18 -245 -2 -50 17 -521 27 -670 7 -105 6 -306 -1 -314 -2 -2 -31 1
-64 7 -89 16 -260 -16 -351 -64 -113 -61 -159 -95 -160 -118 0 -13 71 4 100
23 14 10 48 24 75 31 28 7 63 20 79 28 22 10 59 13 151 10 115 -3 124 -5 163
-31 58 -41 82 -34 105 28 22 57 21 134 -7 740 -22 474 -22 478 -40 719 -15
203 -15 224 0 271 28 92 6 128 -52 83z m32 -1025 c-11 -11 -19 6 -11 24 8 17
8 17 12 0 3 -10 2 -21 -1 -24z"/>
<path d="M0 1180 c0 -45 4 -60 14 -60 8 0 26 -14 41 -32 24 -28 27 -38 22 -80
-4 -30 -19 -70 -42 -106 -28 -46 -35 -67 -35 -107 l1 -50 57 62 c66 72 92 137
92 230 0 86 -35 143 -112 184 l-38 19 0 -60z"/>
<path d="M1214 1217 l-27 -24 11 -84 c7 -46 14 -95 17 -109 3 -14 12 -72 21
-130 21 -144 53 -192 89 -137 13 20 13 42 4 163 -6 76 -11 159 -11 184 1 68
-17 139 -38 150 -27 14 -36 13 -66 -13z"/>
</g>
</svg>
