<?xml version="1.0" standalone="no"?>
<!DOCTYPE svg PUBLIC "-//W3C//DTD SVG 20010904//EN"
 "http://www.w3.org/TR/2001/REC-SVG-20010904/DTD/svg10.dtd">
<svg version="1.0" xmlns="http://www.w3.org/2000/svg"
 width="210.000000pt" height="206.000000pt" viewBox="0 0 210.000000 206.000000"
 preserveAspectRatio="xMidYMid meet">
<metadata>
Created by potrace 1.16, written by Peter Selinger 2001-2019
</metadata>
<g transform="translate(0.000000,206.000000) scale(0.100000,-0.100000)"
fill="#000000" stroke="none">
<path d="M1052 1963 c-34 -3 -45 -9 -56 -31 -15 -30 -27 -108 -31 -196 -3 -66
-9 -74 -98 -123 -51 -29 -97 -81 -97 -111 0 -27 42 -62 75 -62 19 0 40 11 61
31 l32 31 7 -41 c4 -23 4 -67 0 -99 -6 -51 -10 -60 -43 -83 -20 -14 -56 -31
-79 -37 -23 -7 -49 -19 -58 -28 -30 -30 -12 -81 35 -96 8 -3 38 7 67 22 28 16
54 26 56 23 3 -3 3 -26 0 -52 -8 -76 -45 -117 -85 -92 -15 10 -22 7 -43 -13
-54 -55 -17 -127 55 -106 19 6 38 10 42 10 9 0 -3 -114 -14 -118 -4 -2 -8 -8
-8 -14 0 -6 -17 -30 -37 -53 -77 -87 -158 -187 -178 -220 -11 -19 -32 -52 -46
-72 -82 -118 -159 -245 -159 -263 0 -20 10 -24 40 -20 17 2 110 99 110 115 0
6 20 30 45 53 25 23 45 48 45 55 0 7 14 26 30 42 17 16 30 33 30 38 0 6 15 28
34 51 18 23 41 56 50 74 10 19 20 31 23 28 9 -9 7 -252 -2 -266 -15 -24 -5
-151 13 -176 21 -28 53 -31 69 -5 17 27 28 134 32 311 2 52 5 88 8 80 13 -32
74 -77 130 -94 32 -10 68 -24 80 -32 11 -7 38 -14 58 -16 34 -2 56 -20 42 -35
-4 -3 -29 2 -57 11 -37 12 -55 14 -70 6 -11 -6 -20 -14 -20 -18 0 -13 64 -51
129 -77 34 -14 70 -30 79 -36 28 -16 191 -70 277 -91 44 -11 103 -31 130 -43
28 -13 62 -26 76 -29 24 -5 26 -2 37 52 6 31 12 156 13 277 1 121 6 301 11
400 22 447 -3 743 -69 809 -36 36 -67 38 -98 6 -28 -29 -26 -53 6 -80 10 -8
28 -53 40 -100 21 -76 23 -108 23 -315 0 -126 -3 -313 -7 -415 -4 -102 -9
-249 -11 -328 -2 -79 -8 -148 -14 -154 -6 -6 -22 -6 -48 1 -22 5 -66 15 -99
21 -71 14 -156 38 -175 50 -11 7 -10 11 3 25 10 9 17 29 17 44 0 15 5 32 11
38 9 9 6 19 -9 41 -20 27 -25 29 -70 24 -49 -4 -80 4 -202 54 -78 32 -86 38
-117 87 -22 35 -26 37 -59 31 l-35 -6 7 78 c3 44 12 118 19 166 14 102 34 134
126 205 32 25 61 54 65 65 3 10 22 30 42 43 21 13 46 40 56 60 11 19 22 35 26
35 11 0 40 65 40 89 0 14 -11 27 -34 37 -32 16 -36 15 -102 -11 -38 -15 -90
-38 -117 -51 -59 -30 -61 -27 -54 93 7 111 26 155 97 218 120 107 152 155 108
163 -10 2 -50 -17 -89 -43 -39 -25 -73 -44 -75 -42 -11 11 11 92 32 117 13 15
24 34 24 42 0 17 -32 49 -46 46 -5 -1 -28 -3 -52 -5z m-12 -209 c0 -8 -5 -12
-10 -9 -6 4 -8 11 -5 16 9 14 15 11 15 -7z m210 -399 c0 -11 -214 -215 -219
-209 -3 3 2 10 12 15 10 6 17 22 17 40 0 44 30 76 112 119 84 44 78 41 78 35z
m160 -1016 c0 -11 -31 -12 -57 -2 -15 6 -13 8 12 13 33 7 45 4 45 -11z"/>
<path d="M1506 1279 c-73 -11 -89 -23 -82 -63 9 -52 24 -127 40 -204 8 -40 18
-99 21 -130 8 -90 16 -123 32 -129 19 -7 34 16 27 40 -3 9 -1 17 4 17 5 0 9
12 10 28 0 69 0 145 0 239 -1 100 -1 103 25 123 18 15 27 31 27 51 0 16 -4 29
-9 29 -5 0 -15 2 -23 4 -7 2 -39 0 -72 -5z"/>
<path d="M136 1218 c-22 -31 -20 -58 10 -146 15 -42 34 -110 43 -151 9 -41 21
-76 27 -78 24 -8 53 64 56 137 1 40 6 70 13 70 5 0 28 14 49 30 40 30 113 57
124 45 14 -13 -34 -140 -90 -240 -45 -79 -111 -171 -148 -206 -30 -29 -37 -42
-33 -60 8 -31 20 -39 60 -39 23 0 37 7 50 26 10 14 35 46 56 70 20 25 37 51
37 57 0 7 9 20 20 30 11 9 20 28 20 42 0 27 38 110 74 160 32 44 42 82 41 155
-1 75 -17 107 -58 116 -48 10 -129 -6 -166 -34 -33 -24 -34 -25 -47 -6 -27 39
-36 44 -79 44 -34 0 -47 -5 -59 -22z"/>
</g>
</svg>
