<?xml version="1.0" standalone="no"?>
<!DOCTYPE svg PUBLIC "-//W3C//DTD SVG 20010904//EN"
 "http://www.w3.org/TR/2001/REC-SVG-20010904/DTD/svg10.dtd">
<svg version="1.0" xmlns="http://www.w3.org/2000/svg"
 width="207.000000pt" height="205.000000pt" viewBox="0 0 207.000000 205.000000"
 preserveAspectRatio="xMidYMid meet">
<metadata>
Created by potrace 1.16, written by Peter Selinger 2001-2019
</metadata>
<g transform="translate(0.000000,205.000000) scale(0.100000,-0.100000)"
fill="#000000" stroke="none">
<path d="M1299 1920 c-36 -15 -78 -35 -92 -45 -27 -17 -27 -17 -27 8 0 34 -47
54 -98 41 -31 -7 -38 -14 -40 -38 -2 -16 1 -33 7 -39 25 -25 12 -56 -31 -78
-23 -12 -54 -29 -68 -39 -14 -9 -44 -29 -67 -44 -61 -40 -113 -96 -113 -122 0
-15 12 -30 34 -43 29 -18 38 -20 60 -10 15 7 36 27 47 46 11 18 25 33 30 33 6
0 20 10 32 23 31 30 78 60 84 53 3 -3 0 -61 -7 -128 -6 -68 -14 -146 -17 -174
l-5 -51 -63 -31 c-89 -45 -101 -43 -64 8 28 38 19 65 -19 56 -15 -4 -40 -9
-57 -12 -53 -10 -65 -30 -65 -104 l0 -67 -58 -45 c-89 -71 -103 -116 -44 -143
12 -5 22 -13 22 -18 0 -4 17 4 37 18 21 14 43 25 50 25 7 0 25 -25 39 -55 27
-56 54 -75 79 -55 17 14 20 52 6 78 -5 9 -12 39 -15 66 -7 48 -7 49 38 90 38
36 212 136 236 136 4 0 4 -17 -1 -37 -14 -62 -11 -133 5 -133 16 0 86 90 86
111 0 7 10 45 22 84 21 65 30 77 120 167 54 54 101 98 106 98 20 0 43 39 40
67 -2 23 -7 28 -27 25 -13 -1 -41 -18 -62 -37 -22 -19 -45 -35 -52 -35 -7 0
-21 -10 -32 -22 -25 -30 -32 -8 -11 36 9 19 16 40 16 48 0 8 5 19 11 25 17 17
2 63 -21 63 -10 0 -22 -4 -25 -10 -3 -5 -15 -10 -25 -10 -26 0 -57 -35 -63
-73 -38 -216 -41 -223 -114 -261 -31 -16 -38 -14 -33 9 12 55 34 126 46 154 9
19 20 61 25 95 18 126 17 122 80 162 32 20 59 43 59 50 0 8 4 14 10 14 18 0
70 59 70 80 0 25 0 25 -81 -10z"/>
<path d="M1608 1409 c-15 -6 -30 -20 -34 -31 -8 -25 -65 -80 -156 -151 -38
-28 -68 -56 -68 -62 0 -10 -35 -45 -45 -45 -3 0 -31 -25 -62 -55 -32 -30 -83
-68 -114 -85 -31 -16 -59 -36 -62 -43 -3 -7 -31 -29 -63 -48 -116 -69 -202
-170 -174 -204 6 -8 25 -17 42 -20 26 -6 36 -2 67 29 44 43 55 45 48 9 -3 -16
-13 -69 -21 -118 -17 -104 -68 -286 -97 -348 -45 -97 -102 -203 -116 -219 -15
-17 -13 -18 24 -18 38 0 44 4 83 58 24 31 48 62 55 67 7 6 27 37 44 70 18 33
30 50 27 37 -3 -16 4 -33 24 -55 25 -28 44 -35 167 -64 76 -18 147 -35 158
-37 23 -4 143 -42 198 -62 28 -11 98 -14 281 -14 262 0 256 -1 256 52 0 18 -4
19 -37 12 -64 -15 -212 -7 -296 15 -42 12 -88 21 -103 21 -35 0 -162 39 -177
55 -7 6 -34 15 -60 19 -27 4 -74 16 -105 26 -31 11 -67 20 -79 20 -12 0 -24 4
-28 9 -3 6 -25 13 -50 16 -24 4 -46 13 -49 21 -6 16 -42 19 -51 4 -8 -12 -45
-13 -45 -1 0 5 7 28 15 52 9 24 32 106 51 181 42 165 73 238 116 276 36 33 34
65 -4 62 -66 -6 -63 7 10 50 31 19 66 42 77 52 47 40 155 152 155 160 0 4 5 8
10 8 6 0 31 19 55 41 25 23 48 39 51 36 3 -3 -1 -34 -10 -69 -9 -35 -23 -126
-31 -203 -17 -167 -40 -307 -54 -334 -26 -48 -1 -69 36 -28 21 24 73 136 73
159 0 7 6 22 14 33 13 20 19 53 35 195 11 95 37 207 56 241 8 14 20 67 26 117
10 73 10 94 -1 106 -14 18 -24 19 -62 5z"/>
<path d="M245 1171 c-11 -5 -45 -13 -75 -19 -30 -6 -81 -22 -112 -37 l-58 -26
0 -223 0 -223 25 -11 c67 -31 172 0 245 71 50 48 98 118 117 169 9 23 22 50
29 58 44 55 32 173 -23 222 -22 20 -118 32 -148 19z m95 -100 c22 -42 11 -94
-36 -174 -80 -138 -161 -200 -229 -176 -37 14 -50 36 -60 107 -6 36 -3 46 18
72 14 16 28 42 32 57 8 39 45 63 150 99 110 38 112 39 125 15z"/>
<path d="M668 757 c-16 -6 -30 -18 -33 -27 -5 -16 16 -128 28 -147 3 -4 8 -35
11 -67 7 -67 18 -86 44 -79 37 9 44 40 43 181 -1 74 -4 139 -7 143 -7 12 -52
10 -86 -4z"/>
</g>
</svg>
