<?xml version="1.0" standalone="no"?>
<!DOCTYPE svg PUBLIC "-//W3C//DTD SVG 20010904//EN"
 "http://www.w3.org/TR/2001/REC-SVG-20010904/DTD/svg10.dtd">
<svg version="1.0" xmlns="http://www.w3.org/2000/svg"
 width="209.000000pt" height="205.000000pt" viewBox="0 0 209.000000 205.000000"
 preserveAspectRatio="xMidYMid meet">
<metadata>
Created by potrace 1.16, written by Peter Selinger 2001-2019
</metadata>
<g transform="translate(0.000000,205.000000) scale(0.100000,-0.100000)"
fill="#000000" stroke="none">
<path d="M1555 2032 c-16 -8 -55 -34 -86 -58 -62 -46 -113 -76 -91 -53 27 29
14 46 -39 52 -28 4 -60 2 -70 -4 -27 -14 -33 -52 -15 -87 9 -17 16 -33 16 -36
0 -5 -149 -96 -157 -96 -12 0 -116 -108 -124 -129 -12 -30 11 -68 48 -82 34
-13 77 4 91 36 14 31 77 100 115 127 l30 22 -6 -120 c-4 -65 -15 -155 -24
-199 -15 -67 -24 -86 -55 -117 -47 -47 -78 -51 -78 -9 0 20 8 34 25 45 14 9
25 23 25 31 0 18 -38 30 -54 16 -7 -6 -31 -12 -53 -14 -22 -1 -48 -9 -58 -17
-17 -14 -17 -16 4 -130 l11 -55 -70 -69 c-77 -77 -84 -97 -45 -139 34 -36 49
-34 90 10 31 34 35 36 42 18 13 -35 9 -180 -6 -208 -19 -35 -3 -72 36 -82 24
-6 32 -2 53 26 49 65 188 192 314 289 25 19 46 41 46 47 0 7 5 13 11 13 14 0
126 87 137 107 20 35 31 1 28 -85 -16 -391 -19 -422 -61 -580 -10 -35 -15 -66
-12 -69 3 -2 15 -2 26 2 21 6 101 158 115 217 6 25 29 303 40 476 3 40 10 80
17 88 13 16 31 165 21 176 -4 3 -19 4 -33 1 -23 -4 -53 -27 -189 -143 -25 -21
-56 -48 -70 -59 -14 -12 -37 -32 -53 -46 -39 -35 -57 -33 -52 8 3 17 7 52 10
77 8 66 46 141 96 189 24 22 47 41 52 41 6 0 31 19 56 43 26 23 59 52 74 64
30 25 37 70 12 79 -15 6 -66 -22 -145 -79 -50 -37 -80 -51 -80 -37 0 5 13 44
29 87 32 88 29 113 -17 112 -41 -1 -61 -12 -82 -44 l-20 -30 0 45 c0 61 18
120 38 127 9 4 37 25 62 47 41 37 104 89 149 123 9 7 27 22 41 33 l25 19 -55
0 c-30 -1 -68 -8 -85 -17z m-254 -902 l2 -94 -34 -25 c-18 -14 -54 -45 -78
-69 -24 -24 -53 -48 -63 -53 -16 -9 -18 -7 -13 13 3 13 7 63 9 112 3 85 5 91
32 113 29 23 29 23 38 3 15 -33 36 -23 58 28 21 48 38 75 44 69 2 -1 4 -45 5
-97z"/>
<path d="M755 1281 c-17 -10 -55 -24 -85 -30 -30 -7 -75 -20 -100 -30 -37 -14
-46 -21 -48 -46 -3 -21 3 -34 20 -47 25 -19 73 -24 83 -9 7 12 104 45 111 38
12 -12 -52 -199 -110 -322 -18 -38 -43 -94 -56 -122 -13 -29 -27 -53 -31 -53
-5 0 -14 -18 -20 -40 -14 -48 -3 -67 40 -68 35 -1 42 7 71 78 12 30 31 71 41
90 64 116 130 266 150 340 22 82 30 187 16 223 -8 22 -43 21 -82 -2z"/>
<path d="M390 1095 c-13 -16 -10 -90 10 -190 26 -137 28 -163 19 -254 -10
-100 -4 -124 25 -93 36 41 68 239 62 391 -6 134 -18 161 -70 161 -18 0 -39 -7
-46 -15z"/>
<path d="M1298 819 c-63 -32 -73 -62 -118 -389 -13 -94 -84 -316 -126 -392
-20 -38 -19 -39 33 -36 40 3 51 8 68 34 31 46 109 293 130 409 42 231 81 343
122 344 19 1 26 21 13 36 -17 20 -77 17 -122 -6z"/>
<path d="M838 663 c-33 -17 -33 -20 -9 -148 11 -55 23 -142 27 -192 5 -70 11
-96 25 -109 16 -14 18 -14 27 3 25 52 35 136 29 261 -6 105 -4 132 8 149 17
24 7 37 -30 39 -11 1 -27 4 -35 7 -8 2 -27 -2 -42 -10z"/>
<path d="M1312 278 c-24 -31 -22 -55 9 -102 37 -55 73 -84 166 -133 l68 -37
213 -4 c142 -2 212 0 212 7 0 19 -34 29 -145 41 -218 25 -348 87 -433 208 -25
34 -70 44 -90 20z"/>
</g>
</svg>
