<?xml version="1.0" standalone="no"?>
<!DOCTYPE svg PUBLIC "-//W3C//DTD SVG 20010904//EN"
 "http://www.w3.org/TR/2001/REC-SVG-20010904/DTD/svg10.dtd">
<svg version="1.0" xmlns="http://www.w3.org/2000/svg"
 width="207.000000pt" height="205.000000pt" viewBox="0 0 207.000000 205.000000"
 preserveAspectRatio="xMidYMid meet">
<metadata>
Created by potrace 1.16, written by Peter Selinger 2001-2019
</metadata>
<g transform="translate(0.000000,205.000000) scale(0.100000,-0.100000)"
fill="#000000" stroke="none">
<path d="M1227 1963 c-25 -13 -67 -81 -67 -110 0 -7 -7 -33 -15 -58 -31 -90
11 -77 59 19 39 78 98 88 131 24 18 -37 19 -49 3 -100 -8 -29 -18 -40 -37 -45
-41 -9 -61 -33 -61 -70 0 -27 -10 -43 -54 -86 -30 -28 -73 -65 -95 -80 -24
-17 -41 -36 -41 -48 0 -26 10 -24 56 11 21 16 44 30 49 30 6 1 32 18 60 39
l49 38 23 -34 c25 -37 30 -73 11 -73 -7 0 -23 -10 -37 -23 -15 -13 -55 -36
-91 -52 -36 -15 -97 -45 -136 -66 -39 -22 -74 -39 -77 -39 -17 0 -4 25 33 68
22 25 39 50 37 56 -6 18 -68 17 -121 -2 l-49 -17 -28 -99 c-20 -70 -35 -103
-51 -115 -30 -22 -137 -83 -230 -131 -42 -22 -79 -44 -83 -50 -4 -6 -37 -26
-73 -46 -105 -55 -140 -78 -183 -120 -48 -47 -53 -89 -13 -104 54 -21 68 -15
154 63 14 13 39 32 55 42 17 11 40 28 51 40 12 11 74 47 138 79 64 33 121 66
126 75 32 54 -32 -214 -73 -309 -9 -19 -22 -51 -30 -70 -27 -62 -31 -90 -13
-90 9 0 16 3 16 8 0 4 17 25 38 47 21 22 42 52 45 67 4 15 20 36 35 47 20 14
34 38 47 80 l18 60 146 -1 c150 -1 161 0 244 9 42 4 48 8 45 26 -4 30 -70 47
-193 51 -120 4 -181 14 -195 32 -8 9 -8 23 2 51 28 78 75 128 162 168 17 8 45
24 61 35 17 11 37 22 45 26 8 3 33 14 56 25 23 10 46 19 51 19 5 0 35 18 67
40 31 22 71 42 89 45 17 4 38 12 47 18 26 22 97 57 114 57 9 0 16 -8 16 -20 0
-14 -19 -32 -61 -57 -34 -21 -74 -48 -90 -61 -15 -12 -45 -28 -66 -36 -22 -7
-39 -21 -42 -31 -3 -15 2 -17 30 -11 63 12 151 61 216 119 24 20 47 37 53 37
22 0 50 41 50 73 0 65 -50 80 -168 51 -78 -20 -85 -15 -108 74 l-16 62 35 42
c29 36 36 54 42 111 9 86 -14 139 -77 179 -47 29 -87 32 -131 11z"/>
<path d="M1000 1863 c-13 -16 -18 -33 -13 -42 12 -28 16 -320 4 -335 -6 -7 -9
-21 -5 -30 20 -52 94 41 105 134 11 84 10 245 -1 274 -13 36 -61 36 -90 -1z"/>
<path d="M587 1809 c-27 -21 -69 -98 -82 -152 -10 -39 -24 -43 -36 -8 -19 54
-102 62 -129 11 -12 -22 -8 -33 21 -65 26 -30 52 -141 44 -192 -7 -46 7 -83
30 -83 8 0 15 1 15 3 0 1 16 47 36 102 19 55 38 109 41 120 3 11 13 29 23 40
9 11 25 39 35 62 23 53 45 74 82 75 37 1 69 -16 89 -48 29 -44 14 -145 -36
-239 -51 -97 -95 -142 -183 -189 -63 -33 -70 -35 -91 -21 -26 17 -36 11 -36
-21 0 -23 33 -54 57 -54 24 0 121 41 143 60 13 11 26 20 31 20 12 0 89 53 89
61 0 4 16 26 36 50 68 82 87 133 92 244 3 97 3 101 -26 146 -34 53 -91 85
-167 94 -41 4 -55 2 -78 -16z"/>
<path d="M1246 605 c-38 -13 -56 -29 -56 -51 0 -22 54 -64 103 -82 90 -31 95
-78 17 -161 -50 -53 -93 -71 -180 -74 -32 -2 -35 1 -52 48 -45 122 -78 185
-110 208 -24 18 -30 18 -58 7 -34 -14 -55 -44 -43 -63 4 -6 28 -39 53 -72 61
-78 103 -161 95 -186 -4 -10 -22 -31 -41 -45 -40 -31 -42 -42 -13 -78 27 -34
52 -33 99 4 21 17 44 30 52 30 8 0 18 4 23 8 6 5 35 19 66 31 31 12 67 33 80
47 12 13 28 24 34 24 12 0 73 55 110 98 11 14 22 46 26 80 9 82 -8 119 -76
162 -31 20 -56 44 -60 57 -6 26 -15 27 -69 8z"/>
<path d="M528 459 c-31 -15 -38 -25 -38 -48 0 -22 7 -32 32 -44 18 -9 36 -13
41 -10 4 2 40 5 79 4 90 -1 108 -14 98 -71 -4 -22 -15 -50 -24 -62 -9 -13 -26
-37 -37 -54 -12 -19 -44 -43 -82 -62 -102 -50 -113 -53 -130 -34 -20 24 -30
59 -17 67 5 3 10 13 10 21 0 17 68 127 81 132 10 4 13 42 4 42 -4 0 -20 -7
-38 -16 -39 -20 -85 -68 -128 -135 -29 -45 -31 -55 -25 -104 10 -89 3 -85 136
-85 92 0 120 3 130 15 7 8 18 15 25 15 21 0 121 104 129 133 3 15 11 27 17 27
18 0 39 68 39 127 -1 92 -36 122 -171 147 -47 9 -87 16 -90 15 -2 -1 -21 -10
-41 -20z"/>
</g>
</svg>
