<?xml version="1.0" standalone="no"?>
<!DOCTYPE svg PUBLIC "-//W3C//DTD SVG 20010904//EN"
 "http://www.w3.org/TR/2001/REC-SVG-20010904/DTD/svg10.dtd">
<svg version="1.0" xmlns="http://www.w3.org/2000/svg"
 width="205.000000pt" height="202.000000pt" viewBox="0 0 205.000000 202.000000"
 preserveAspectRatio="xMidYMid meet">
<metadata>
Created by potrace 1.16, written by Peter Selinger 2001-2019
</metadata>
<g transform="translate(0.000000,202.000000) scale(0.100000,-0.100000)"
fill="#000000" stroke="none">
<path d="M1453 1960 c-43 -34 -94 -72 -113 -85 -19 -14 -75 -54 -125 -90 -49
-36 -103 -72 -120 -81 -16 -10 -57 -35 -90 -57 -33 -22 -107 -64 -165 -94 -58
-30 -113 -62 -123 -71 -26 -23 -18 -63 16 -82 24 -14 30 -13 55 2 15 9 60 34
100 54 41 21 84 48 97 60 13 11 29 24 37 27 31 11 128 78 128 87 0 6 7 10 16
10 8 0 35 15 59 33 24 17 69 50 99 71 31 22 56 43 56 48 0 4 6 8 13 8 6 0 23
9 37 20 37 29 43 25 37 -22 -4 -24 -11 -77 -17 -118 -13 -99 -17 -606 -6 -791
5 -81 6 -157 3 -171 -5 -19 -22 -30 -75 -51 -38 -15 -74 -27 -80 -27 -15 0
-66 62 -98 119 -27 48 -50 68 -63 56 -3 -3 0 -14 6 -23 27 -40 94 -175 91
-183 -2 -6 -40 -25 -85 -43 -45 -18 -94 -41 -110 -52 -38 -26 -115 -64 -130
-64 -7 0 -41 -13 -75 -30 -34 -16 -67 -30 -73 -30 -7 0 -20 -9 -30 -20 -10
-11 -22 -20 -26 -20 -15 0 -84 -51 -106 -78 -28 -35 -29 -57 -1 -76 40 -28 99
-14 142 33 11 12 24 21 31 21 7 0 25 11 40 24 29 25 342 186 361 186 5 0 28
13 50 29 64 46 77 47 110 4 36 -48 176 -188 201 -202 30 -16 42 0 55 77 10 61
10 84 -5 160 -9 49 -19 142 -22 208 -3 65 -9 202 -14 304 -5 102 -7 210 -6
240 2 30 6 131 9 223 7 181 29 332 51 357 12 13 35 110 35 147 0 9 -15 13 -49
13 -45 0 -56 -5 -128 -60z m17 -1407 c6 -32 13 -62 14 -68 2 -5 0 -18 -3 -28
-5 -15 -15 -9 -64 34 -31 29 -57 57 -57 63 0 9 67 49 92 54 4 1 12 -24 18 -55z"/>
<path d="M960 1420 c-22 -22 -23 -26 -45 -159 -9 -54 -26 -114 -40 -140 -32
-60 -70 -149 -78 -183 -4 -14 -25 -49 -47 -77 -44 -55 -49 -71 -22 -71 40 0
124 83 158 155 8 17 23 44 34 60 11 17 30 51 44 76 24 45 56 80 56 63 1 -5 7
5 14 21 8 19 12 66 11 125 -3 160 -1 150 -35 150 -17 0 -39 -9 -50 -20z"/>
<path d="M1159 1409 c-43 -16 -49 -45 -23 -112 24 -60 62 -235 66 -297 1 -19
-2 -63 -6 -97 -10 -76 9 -87 37 -22 49 113 42 415 -12 502 -25 40 -24 40 -62
26z"/>
<path d="M613 1293 c-36 -34 -48 -75 -62 -213 -14 -130 -14 -226 0 -355 6 -55
14 -129 17 -165 6 -56 10 -65 27 -65 12 0 25 11 34 29 15 31 16 88 11 344 -3
155 -3 163 19 193 12 16 25 46 28 65 4 25 13 39 30 47 14 6 30 22 38 37 18 34
-4 80 -39 80 -13 0 -29 7 -36 15 -18 22 -33 19 -67 -12z"/>
</g>
</svg>
