<?xml version="1.0" standalone="no"?>
<!DOCTYPE svg PUBLIC "-//W3C//DTD SVG 20010904//EN"
 "http://www.w3.org/TR/2001/REC-SVG-20010904/DTD/svg10.dtd">
<svg version="1.0" xmlns="http://www.w3.org/2000/svg"
 width="206.000000pt" height="203.000000pt" viewBox="0 0 206.000000 203.000000"
 preserveAspectRatio="xMidYMid meet">
<metadata>
Created by potrace 1.16, written by Peter Selinger 2001-2019
</metadata>
<g transform="translate(0.000000,203.000000) scale(0.100000,-0.100000)"
fill="#000000" stroke="none">
<path d="M1375 2007 c-16 -12 -35 -28 -42 -37 -6 -9 -48 -43 -93 -75 -45 -33
-112 -83 -149 -110 -36 -28 -77 -57 -91 -66 -14 -9 -41 -31 -60 -50 -19 -18
-75 -54 -125 -79 -49 -26 -130 -68 -179 -94 l-88 -48 -27 31 c-26 30 -36 34
-78 32 -24 -1 -56 -57 -44 -76 3 -5 6 -23 7 -40 0 -16 8 -73 18 -125 20 -106
23 -401 6 -492 -15 -76 -21 -486 -7 -495 17 -10 45 35 53 85 3 26 12 56 18 67
6 11 14 74 18 140 3 66 13 214 21 330 7 116 12 229 9 253 -2 23 0 48 6 55 6 6
10 29 10 50 0 42 16 59 100 108 28 17 52 34 52 39 0 4 8 10 18 14 9 3 31 15
47 26 17 11 55 33 85 49 30 16 89 59 130 95 41 36 105 86 143 112 37 26 67 50
67 54 0 3 12 13 28 21 15 7 61 44 102 81 71 64 109 85 97 54 -7 -17 -22 -103
-37 -206 -8 -59 -12 -391 -8 -750 0 -46 20 -214 29 -251 17 -69 39 -210 34
-219 -3 -5 -29 -13 -58 -19 -28 -6 -65 -18 -82 -26 -16 -7 -115 -43 -219 -80
-103 -36 -197 -70 -207 -76 -11 -5 -19 -6 -19 -2 0 8 11 15 125 80 33 19 62
38 65 42 3 5 37 25 75 46 39 21 91 58 117 83 40 38 45 48 37 65 -8 13 -18 18
-34 15 -13 -3 -28 -2 -34 2 -32 19 -43 251 -17 368 32 146 17 219 -40 193 -14
-6 -30 -11 -35 -11 -12 0 -7 120 5 139 4 6 35 30 69 53 74 50 90 68 75 85 -16
20 -50 16 -103 -12 -27 -13 -51 -22 -54 -19 -3 2 -4 25 -2 50 3 50 -16 88 -48
97 -28 7 -59 -18 -69 -55 -6 -23 -16 -34 -36 -39 -53 -14 -72 -51 -43 -81 7
-7 21 -25 30 -39 16 -24 16 -26 -4 -48 -12 -13 -36 -29 -53 -37 -17 -7 -57
-37 -89 -66 -70 -64 -81 -100 -45 -142 23 -27 25 -28 83 -17 44 8 66 18 83 37
13 14 25 24 27 22 3 -2 9 -37 15 -78 l10 -73 -52 -51 c-29 -28 -75 -61 -102
-74 -58 -27 -77 -48 -74 -82 2 -24 -2 -30 -22 -30 -16 0 -12 56 5 70 8 7 15
21 15 31 0 34 -51 24 -97 -19 -33 -30 -42 -46 -48 -86 -5 -31 -3 -61 4 -81 6
-17 11 -51 11 -76 0 -50 24 -147 39 -162 6 -6 11 -21 11 -32 0 -34 29 -83 52
-91 41 -13 -7 -24 -93 -21 -74 3 -85 1 -106 -19 -32 -29 -28 -70 9 -97 25 -19
33 -19 100 -10 98 14 249 53 269 70 8 7 21 13 27 13 12 0 177 64 202 78 8 5
42 17 75 26 33 9 69 21 80 25 45 20 142 40 167 34 18 -3 46 4 85 23 32 15 74
28 93 29 27 0 35 4 34 18 0 9 -1 40 -2 68 l-2 51 -44 -6 c-24 -4 -47 -3 -50 2
-3 5 -20 74 -38 153 l-32 144 -3 364 c-3 326 -2 380 17 512 20 143 34 204 51
224 5 5 9 17 9 27 0 10 4 18 10 18 5 0 14 9 20 20 10 19 8 20 -87 20 -85 -1
-102 -4 -128 -23z m-280 -1375 l8 -82 -32 -11 c-17 -6 -31 -14 -31 -19 0 -8
-160 -90 -176 -90 -5 0 -26 -11 -45 -24 -20 -14 -48 -28 -61 -31 -25 -6 -25
-6 -30 80 -8 121 -2 136 54 151 60 15 103 42 154 96 41 43 104 134 104 150 0
5 8 21 18 36 17 26 17 26 23 -73 4 -55 10 -137 14 -183z"/>
</g>
</svg>
