<?xml version="1.0" standalone="no"?>
<!DOCTYPE svg PUBLIC "-//W3C//DTD SVG 20010904//EN"
 "http://www.w3.org/TR/2001/REC-SVG-20010904/DTD/svg10.dtd">
<svg version="1.0" xmlns="http://www.w3.org/2000/svg"
 width="208.000000pt" height="204.000000pt" viewBox="0 0 208.000000 204.000000"
 preserveAspectRatio="xMidYMid meet">
<metadata>
Created by potrace 1.16, written by Peter Selinger 2001-2019
</metadata>
<g transform="translate(0.000000,204.000000) scale(0.100000,-0.100000)"
fill="#000000" stroke="none">
<path d="M1429 2004 c-18 -20 -59 -53 -89 -74 -30 -21 -77 -60 -105 -87 -27
-27 -81 -73 -120 -103 -38 -29 -78 -64 -90 -77 -11 -12 -51 -40 -90 -60 -161
-87 -182 -100 -224 -140 -24 -24 -45 -43 -47 -43 -2 0 -4 8 -4 19 0 10 -16 31
-36 46 -34 26 -38 27 -79 15 -24 -7 -46 -17 -48 -24 -7 -18 0 -199 9 -220 18
-46 -4 -822 -26 -916 -6 -25 -21 -55 -32 -67 -24 -26 -18 -54 12 -50 40 6 121
111 105 137 -3 5 1 30 10 55 8 25 15 65 15 88 0 58 11 73 36 50 30 -28 54 -77
52 -109 0 -16 4 -51 10 -79 6 -27 8 -65 6 -83 -4 -38 10 -72 30 -72 15 0 61
82 71 128 4 18 16 37 28 44 12 6 33 22 45 36 20 21 22 29 13 48 -7 15 -7 25 0
29 5 4 7 10 4 15 -7 12 32 100 45 100 6 0 41 25 76 55 60 50 84 65 84 49 0 -3
-14 -35 -31 -72 -16 -36 -35 -86 -41 -111 -6 -25 -14 -53 -18 -61 -4 -9 -11
-30 -15 -48 -5 -24 -16 -37 -43 -51 -88 -44 -103 -54 -112 -71 -15 -27 -13
-37 12 -60 26 -24 67 -26 111 -4 40 20 149 134 143 149 -7 18 21 137 43 186
10 24 26 68 35 97 15 52 72 148 101 172 17 14 16 17 19 -65 2 -46 12 -108 36
-225 5 -25 12 -74 15 -110 3 -36 8 -77 11 -93 6 -27 5 -27 -23 -15 -15 7 -30
15 -33 19 -11 14 -51 30 -60 24 -16 -10 -12 -20 29 -72 l39 -49 -31 -14 c-18
-8 -34 -15 -37 -15 -25 -4 -77 -19 -85 -23 -5 -4 -18 -8 -28 -9 -11 -2 -71
-15 -135 -29 -65 -14 -140 -29 -167 -33 -28 -5 -72 -16 -98 -25 -26 -9 -61
-16 -77 -16 -16 0 -32 -5 -35 -10 -3 -6 -17 -10 -30 -10 -24 0 -85 -44 -85
-61 0 -5 64 -9 143 -9 115 0 155 4 198 19 31 10 80 22 110 26 30 4 62 11 71
16 17 9 91 30 193 55 33 8 75 19 93 25 18 6 58 13 90 16 37 4 63 12 75 24 14
15 32 19 82 19 79 0 97 14 93 74 -3 46 1 45 -106 32 -61 -7 -62 -7 -73 21 -6
15 -15 60 -20 98 -5 39 -16 115 -24 170 -30 190 -34 343 -14 535 10 96 24 240
30 320 6 80 17 187 25 238 14 91 21 113 72 222 14 30 28 72 32 93 l7 37 -56 0
c-52 0 -60 -3 -92 -36z m-39 -174 c-10 -19 -25 -81 -35 -145 -2 -16 -9 -104
-15 -195 -5 -91 -15 -208 -20 -260 -6 -52 -13 -122 -16 -155 -5 -60 -21 -85
-52 -85 -8 0 -48 -34 -88 -75 -40 -41 -77 -75 -82 -75 -5 0 2 44 15 98 20 81
24 116 21 214 l-4 117 28 12 c15 6 28 15 28 19 0 5 29 29 65 55 36 25 65 48
65 50 0 39 -39 45 -90 13 -140 -87 -181 -89 -145 -7 17 37 17 40 1 58 -17 19
-21 19 -122 -4 -23 -5 -39 -52 -24 -70 4 -5 10 -28 13 -50 3 -22 7 -49 9 -60
2 -17 -20 -32 -133 -90 -75 -38 -148 -78 -163 -88 l-26 -17 0 55 c0 30 5 55
10 55 6 0 10 7 10 16 0 9 -5 12 -12 8 -10 -6 -10 -4 0 7 6 7 12 37 12 66 0 50
15 103 30 103 4 0 15 -9 25 -20 10 -11 28 -20 39 -20 20 0 109 56 131 83 6 7
37 26 69 42 32 17 75 45 96 63 21 17 42 32 47 32 5 0 32 24 60 53 60 62 89 88
126 111 15 10 27 23 27 30 0 6 16 21 35 34 19 12 35 27 35 32 0 6 9 10 20 10
18 0 19 -3 10 -20z m-372 -692 c22 -65 -29 -301 -69 -313 -10 -4 -31 -23 -47
-43 -15 -20 -35 -46 -44 -56 -10 -11 -20 -27 -23 -35 -3 -9 -24 -25 -47 -35
-39 -18 -42 -18 -54 -1 -9 11 -27 18 -54 19 -33 0 -46 -4 -61 -24 l-20 -25 6
165 c8 220 13 243 45 205 18 -21 41 -19 96 12 49 26 58 33 101 72 47 43 119
90 138 90 15 1 24 -9 33 -31z m342 -212 c0 -3 -4 -8 -10 -11 -5 -3 -10 -1 -10
4 0 6 5 11 10 11 6 0 10 -2 10 -4z m-552 -401 c7 -14 19 -28 28 -32 22 -8 -2
-23 -38 -23 -26 0 -28 3 -28 40 0 47 20 54 38 15z"/>
</g>
</svg>
