<?xml version="1.0" standalone="no"?>
<!DOCTYPE svg PUBLIC "-//W3C//DTD SVG 20010904//EN"
 "http://www.w3.org/TR/2001/REC-SVG-20010904/DTD/svg10.dtd">
<svg version="1.0" xmlns="http://www.w3.org/2000/svg"
 width="209.000000pt" height="204.000000pt" viewBox="0 0 209.000000 204.000000"
 preserveAspectRatio="xMidYMid meet">
<metadata>
Created by potrace 1.16, written by Peter Selinger 2001-2019
</metadata>
<g transform="translate(0.000000,204.000000) scale(0.100000,-0.100000)"
fill="#000000" stroke="none">
<path d="M1425 1948 c-11 -6 -30 -21 -42 -32 -40 -39 -163 -131 -273 -206 -59
-40 -131 -96 -185 -143 -11 -10 -64 -45 -117 -77 -98 -59 -115 -60 -87 -7 15
28 28 37 56 37 26 0 47 32 38 59 -13 43 -44 61 -104 61 -47 0 -61 -4 -79 -23
-33 -35 -50 -106 -57 -236 -4 -64 -13 -141 -20 -171 -8 -30 -17 -93 -20 -140
-4 -47 -11 -98 -16 -115 -5 -16 -13 -71 -19 -121 -5 -50 -23 -136 -40 -192
-24 -80 -30 -120 -30 -191 0 -130 22 -166 81 -135 28 14 30 18 22 47 -14 54
-6 171 15 233 21 63 37 144 47 234 9 86 22 124 47 136 80 39 127 66 138 79 8
9 29 23 48 31 20 8 42 23 49 34 8 11 22 20 32 20 10 0 30 9 44 20 61 49 77 2
45 -136 l-21 -93 -41 -14 c-33 -11 -42 -19 -44 -41 -4 -28 12 -45 63 -71 11
-6 26 -24 34 -40 55 -114 -14 -234 -139 -243 -55 -4 -56 -4 -98 42 -35 38 -42
52 -42 86 0 24 5 41 13 42 6 0 17 2 22 3 6 2 16 3 23 4 23 2 12 30 -18 46 -44
23 -75 18 -115 -16 -28 -25 -35 -38 -35 -69 0 -87 42 -153 118 -187 50 -22 61
-23 119 -14 64 10 123 38 157 75 96 106 123 213 74 293 -52 85 -52 85 -24 138
14 26 26 55 26 63 0 8 9 29 19 46 11 18 22 61 26 101 9 80 19 115 36 115 6 0
25 12 43 26 29 25 181 113 200 117 5 1 8 -188 8 -443 -1 -635 -1 -640 -11
-640 -6 0 -29 13 -53 29 -62 41 -88 48 -88 22 0 -11 7 -24 17 -29 26 -15 8
-39 -36 -47 -22 -4 -45 -13 -52 -21 -6 -8 -22 -14 -36 -14 -31 0 -172 -28
-198 -39 -11 -5 -48 -19 -83 -31 -34 -13 -64 -26 -67 -30 -2 -4 -37 -17 -77
-29 -40 -13 -110 -38 -155 -57 -45 -19 -86 -34 -91 -34 -12 0 -42 -34 -42 -48
0 -8 30 -12 100 -12 84 0 108 4 156 25 31 14 61 25 67 25 6 0 29 9 51 19 126
59 211 88 280 97 28 4 60 13 71 20 52 33 243 62 275 42 16 -10 25 -9 50 5 33
20 50 15 103 -29 56 -46 87 -26 78 50 -7 55 -11 58 -93 81 l-58 16 -1 77 c-1
42 -2 378 -3 747 -2 369 -6 690 -11 715 -12 69 -28 82 -70 58z m-21 -190 c3
-29 6 -99 6 -154 l0 -102 -32 -12 c-69 -25 -128 -54 -128 -61 0 -19 -63 -40
-98 -35 -50 8 -152 -8 -163 -25 -5 -8 -7 -30 -4 -50 l5 -36 -123 -60 c-123
-61 -214 -99 -221 -92 -2 2 5 45 15 94 10 50 19 92 19 95 0 2 5 -1 12 -8 19
-19 72 -14 96 8 12 12 22 24 22 29 0 5 19 21 42 37 23 16 53 39 67 52 14 13
55 47 89 75 35 29 98 80 140 115 42 34 80 62 84 62 9 0 27 14 100 78 27 23 52
42 57 42 4 0 11 -24 15 -52z"/>
</g>
</svg>
