<?xml version="1.0" standalone="no"?>
<!DOCTYPE svg PUBLIC "-//W3C//DTD SVG 20010904//EN"
 "http://www.w3.org/TR/2001/REC-SVG-20010904/DTD/svg10.dtd">
<svg version="1.0" xmlns="http://www.w3.org/2000/svg"
 width="208.000000pt" height="206.000000pt" viewBox="0 0 208.000000 206.000000"
 preserveAspectRatio="xMidYMid meet">
<metadata>
Created by potrace 1.16, written by Peter Selinger 2001-2019
</metadata>
<g transform="translate(0.000000,206.000000) scale(0.100000,-0.100000)"
fill="#000000" stroke="none">
<path d="M1539 1977 c-31 -18 -96 -54 -145 -81 -49 -27 -109 -64 -134 -82 -48
-34 -148 -89 -294 -162 -83 -41 -93 -43 -127 -33 -52 16 -71 14 -101 -12 -23
-19 -28 -33 -36 -107 -6 -47 -22 -159 -36 -250 -24 -144 -27 -189 -24 -350 2
-102 -1 -250 -6 -329 -4 -79 -8 -171 -8 -205 0 -33 -4 -85 -10 -113 -10 -47
-9 -55 7 -73 10 -11 26 -20 35 -20 42 0 55 49 64 238 2 34 5 64 7 66 10 9 148
39 184 40 34 1 40 -2 43 -21 8 -52 53 -52 72 0 25 67 36 81 80 100 25 11 59
31 76 43 17 13 36 24 42 24 7 0 12 5 12 10 0 6 10 14 23 19 19 7 23 5 27 -23
3 -17 -1 -62 -8 -99 -8 -38 -12 -71 -9 -73 10 -11 46 22 68 60 12 23 30 50 40
61 13 15 19 45 24 120 5 70 13 109 26 131 11 17 19 41 19 52 0 19 -5 21 -57
19 l-58 -2 -3 32 c-4 44 -23 55 -86 54 -52 0 -55 1 -61 28 -3 16 -14 36 -24
45 -10 9 -26 34 -36 55 -20 45 -46 56 -87 35 -26 -13 -28 -19 -30 -77 -4 -139
-8 -157 -32 -157 -14 0 -74 -26 -128 -56 -29 -15 -45 -54 -33 -74 4 -7 21 -18
37 -25 25 -10 36 -10 60 2 49 25 58 14 51 -69 -3 -40 -9 -77 -13 -81 -9 -11
-136 -37 -176 -37 -39 0 -43 13 -33 105 4 39 8 157 8 263 0 106 2 196 5 200 3
5 10 46 15 92 8 59 18 95 35 121 14 20 26 52 28 70 3 30 6 34 28 31 13 -1 48
2 77 8 43 9 55 17 72 45 11 19 37 43 58 55 21 11 45 24 53 29 8 5 30 15 47 21
18 7 43 22 56 34 13 13 44 34 68 48 24 14 68 42 98 62 29 20 59 36 67 36 8 0
14 5 14 10 0 6 12 10 26 10 25 0 25 0 19 -67 -5 -57 1 -159 20 -328 1 -16 6
-81 9 -142 4 -62 16 -163 26 -225 25 -146 46 -311 65 -523 9 -93 18 -177 21
-186 2 -9 0 -28 -5 -42 -11 -28 -67 -49 -166 -63 -27 -3 -54 -10 -60 -14 -5
-4 -30 -14 -55 -21 -25 -7 -50 -16 -55 -20 -16 -12 -102 -30 -165 -36 -30 -2
-80 -9 -110 -14 -30 -5 -98 -14 -150 -20 -90 -10 -170 -31 -197 -52 -20 -15
-16 -65 6 -77 27 -14 80 -13 137 4 54 16 211 43 289 50 28 3 66 9 85 15 19 6
60 18 90 27 30 9 67 18 82 21 15 3 33 11 39 19 16 20 52 17 81 -5 38 -30 186
-99 197 -91 14 8 39 81 55 155 11 54 14 60 41 66 52 10 187 79 182 92 -5 14
-78 12 -155 -5 -28 -6 -54 -9 -57 -7 -2 3 -15 103 -29 224 -14 121 -31 263
-37 315 -6 52 -19 142 -29 200 -26 147 -26 150 -55 580 -4 58 -1 108 10 158
20 98 20 168 -1 176 -22 8 -22 8 -85 -27z m96 -897 c3 -5 -1 -10 -10 -10 -9 0
-13 5 -10 10 3 6 8 10 10 10 2 0 7 -4 10 -10z m-359 -166 c18 -5 20 -13 20
-60 -1 -48 -5 -57 -31 -79 -16 -13 -34 -24 -38 -25 -17 0 -117 -54 -117 -62 0
-4 -11 -8 -25 -8 -21 0 -25 5 -25 32 0 17 16 65 36 105 33 69 38 74 82 87 53
17 68 18 98 10z m374 -711 c0 -31 -16 -45 -46 -41 -42 4 -43 32 -2 45 46 15
48 15 48 -4z"/>
<path d="M1265 1381 c-44 -9 -95 -25 -113 -34 -19 -9 -77 -24 -130 -32 -163
-28 -209 -62 -166 -124 13 -19 23 -22 53 -18 119 16 422 132 484 185 17 15 17
16 -5 29 -28 15 -25 15 -123 -6z"/>
</g>
</svg>
