<?xml version="1.0" standalone="no"?>
<!DOCTYPE svg PUBLIC "-//W3C//DTD SVG 20010904//EN"
 "http://www.w3.org/TR/2001/REC-SVG-20010904/DTD/svg10.dtd">
<svg version="1.0" xmlns="http://www.w3.org/2000/svg"
 width="209.000000pt" height="207.000000pt" viewBox="0 0 209.000000 207.000000"
 preserveAspectRatio="xMidYMid meet">
<metadata>
Created by potrace 1.16, written by Peter Selinger 2001-2019
</metadata>
<g transform="translate(0.000000,207.000000) scale(0.100000,-0.100000)"
fill="#000000" stroke="none">
<path d="M1550 2033 c-8 -3 -18 -11 -22 -18 -4 -7 -33 -27 -64 -46 -30 -19
-79 -51 -107 -72 -56 -41 -211 -119 -322 -164 -38 -15 -73 -31 -76 -36 -4 -5
-12 -6 -19 -2 -7 4 -27 -10 -51 -35 l-41 -42 -32 31 c-22 21 -42 31 -63 31
-49 0 -63 -9 -63 -41 0 -23 13 -42 58 -85 94 -91 109 -104 119 -104 5 0 25
-12 44 -26 19 -14 40 -29 46 -32 14 -9 -53 -148 -92 -192 -29 -33 -79 -122
-198 -352 -52 -100 -73 -128 -93 -128 -21 0 -74 -60 -74 -84 0 -12 10 -32 23
-44 41 -38 103 -24 149 34 10 12 35 29 55 38 21 9 56 27 78 41 22 13 46 24 53
25 7 0 22 9 34 20 12 11 28 20 36 20 7 0 28 11 45 24 18 13 43 27 56 31 22 7
23 5 18 -26 -25 -169 -49 -311 -56 -344 -10 -38 -1 -65 19 -65 5 0 20 33 35
73 30 78 43 111 57 142 5 12 13 45 18 75 21 133 47 232 66 250 19 18 93 64
185 114 89 48 139 118 92 128 -16 3 -197 -83 -248 -118 -35 -25 -45 -17 -45
36 0 42 4 52 25 66 41 27 32 51 -26 68 -54 16 -101 12 -120 -10 -9 -10 -9 -33
0 -89 6 -42 11 -94 11 -116 0 -37 -4 -42 -53 -73 -76 -49 -277 -147 -277 -135
0 5 9 18 20 29 11 11 20 22 20 25 0 3 19 36 42 73 23 37 49 81 58 97 9 17 29
50 45 75 53 83 91 145 107 175 21 38 66 74 76 59 4 -6 34 -18 67 -26 33 -9 85
-24 115 -33 33 -10 111 -19 196 -22 122 -5 142 -4 147 10 9 23 -18 40 -77 49
-130 19 -241 44 -281 65 -11 6 -41 20 -67 32 l-48 22 23 31 c12 18 29 39 37
48 22 24 56 69 93 120 30 42 115 127 260 261 55 51 60 59 61 100 1 42 0 44
-29 46 -16 1 -37 -1 -45 -4z m-399 -415 c-56 -72 -53 -68 -81 -110 -23 -36
-44 -48 -52 -30 -2 4 -20 20 -41 36 -36 26 -37 29 -22 46 18 20 142 88 184
100 51 16 52 10 12 -42z"/>
<path d="M1677 574 c-3 -3 -20 -9 -39 -14 -18 -5 -49 -14 -68 -21 -19 -7 -69
-25 -110 -39 -41 -15 -99 -30 -128 -34 -29 -4 -85 -20 -125 -36 -40 -16 -108
-39 -152 -51 -44 -12 -103 -32 -130 -44 -28 -12 -68 -25 -89 -29 -21 -4 -46
-11 -55 -16 -9 -5 -40 -16 -70 -26 -57 -18 -139 -68 -148 -90 -7 -18 35 -84
53 -84 8 0 45 16 83 35 37 19 73 35 78 35 5 0 28 9 51 20 22 11 46 20 53 20 7
0 35 11 63 24 64 30 94 40 181 62 39 10 86 27 105 37 35 20 113 45 160 52 47
7 155 38 185 53 16 8 62 18 102 23 41 4 78 11 83 14 5 3 12 26 16 51 5 34 3
48 -7 55 -16 10 -83 12 -92 3z m-472 -194 c3 -5 1 -10 -4 -10 -6 0 -11 5 -11
10 0 6 2 10 4 10 3 0 8 -4 11 -10z"/>
</g>
</svg>
