<?xml version="1.0" standalone="no"?>
<!DOCTYPE svg PUBLIC "-//W3C//DTD SVG 20010904//EN"
 "http://www.w3.org/TR/2001/REC-SVG-20010904/DTD/svg10.dtd">
<svg version="1.0" xmlns="http://www.w3.org/2000/svg"
 width="205.000000pt" height="211.000000pt" viewBox="0 0 205.000000 211.000000"
 preserveAspectRatio="xMidYMid meet">
<metadata>
Created by potrace 1.16, written by Peter Selinger 2001-2019
</metadata>
<g transform="translate(0.000000,211.000000) scale(0.100000,-0.100000)"
fill="#000000" stroke="none">
<path d="M1648 1919 c-13 -17 -49 -44 -82 -61 -32 -16 -69 -41 -82 -55 -25
-27 -114 -93 -126 -93 -4 0 -38 -20 -75 -44 -37 -24 -78 -46 -90 -50 l-22 -7
15 53 c24 84 56 168 63 168 4 0 22 13 41 30 44 38 32 48 -55 44 -60 -2 -104
-16 -106 -32 -4 -34 -8 -55 -23 -107 -9 -33 -26 -96 -37 -140 -22 -85 -47
-119 -97 -131 -15 -4 -38 -15 -51 -26 -13 -10 -31 -18 -41 -18 -10 0 -28 -8
-41 -18 -13 -10 -40 -24 -59 -32 -62 -24 -140 -71 -160 -97 -25 -32 -26 -75
-2 -96 20 -19 67 -23 77 -7 3 6 17 10 31 10 36 0 64 17 64 39 0 29 148 116
166 98 3 -2 -4 -20 -15 -38 -12 -19 -21 -41 -21 -50 0 -9 -8 -27 -18 -40 -10
-13 -32 -49 -48 -79 -16 -30 -39 -70 -51 -89 -13 -18 -35 -59 -50 -90 -15 -31
-33 -60 -41 -65 -35 -21 -92 -80 -92 -94 0 -12 4 -11 20 6 24 25 40 28 40 8 0
-29 -93 -182 -160 -263 -6 -7 -25 -34 -42 -60 -34 -51 -82 -103 -94 -103 -4 0
-13 8 -20 18 -18 25 -36 3 -32 -39 3 -36 20 -46 61 -35 26 6 125 96 164 148
64 84 112 146 125 159 7 8 26 39 41 69 83 164 110 121 109 -175 0 -99 -5 -202
-10 -230 -19 -89 20 -85 71 8 32 57 35 71 39 165 3 57 2 154 -2 216 -6 100
-10 119 -39 173 -21 39 -31 68 -27 81 4 11 29 57 56 102 27 44 57 102 66 128
10 26 33 72 51 102 18 30 33 60 33 67 0 7 15 28 33 46 17 19 42 46 54 60 13
13 82 62 154 108 72 46 163 112 201 147 38 34 73 62 77 62 4 0 31 22 59 49 43
41 52 56 52 84 0 48 -24 55 -52 16z m-333 -289 c-3 -5 -14 -10 -23 -10 -15 0
-15 2 -2 10 20 13 33 13 25 0z"/>
<path d="M1503 1280 l-41 -31 -37 21 c-42 23 -78 26 -98 6 -10 -11 -13 -34 -9
-93 l4 -78 -82 -55 c-44 -30 -103 -67 -130 -81 -27 -14 -58 -33 -68 -42 -10
-9 -24 -17 -30 -17 -12 0 -32 -31 -32 -49 0 -19 39 -51 63 -51 19 0 140 75
255 157 l24 17 -4 -165 c-3 -135 -9 -185 -32 -284 -15 -66 -32 -125 -37 -131
-4 -5 -40 -21 -79 -33 -39 -13 -77 -29 -83 -35 -7 -6 -33 -24 -59 -39 -51 -30
-63 -61 -33 -90 36 -37 100 -25 165 29 8 7 51 27 95 44 44 18 99 40 122 51 23
10 44 19 48 19 3 0 28 11 57 25 28 14 57 25 62 25 6 0 34 12 61 26 65 34 160
63 184 57 25 -6 32 8 35 73 3 49 1 55 -20 60 -12 3 -31 1 -42 -5 -12 -6 -36
-11 -55 -11 -19 0 -40 -7 -48 -16 -13 -16 -194 -106 -239 -119 -14 -4 -40 -16
-57 -27 -18 -11 -40 -18 -48 -16 -13 2 -12 11 9 53 14 28 41 99 61 159 34 103
36 116 36 242 0 76 4 136 9 139 6 3 10 21 10 39 0 27 13 48 75 115 77 83 89
113 56 131 -26 13 -21 14 -68 -20z"/>
</g>
</svg>
