<?xml version="1.0" standalone="no"?>
<!DOCTYPE svg PUBLIC "-//W3C//DTD SVG 20010904//EN"
 "http://www.w3.org/TR/2001/REC-SVG-20010904/DTD/svg10.dtd">
<svg version="1.0" xmlns="http://www.w3.org/2000/svg"
 width="209.000000pt" height="210.000000pt" viewBox="0 0 209.000000 210.000000"
 preserveAspectRatio="xMidYMid meet">
<metadata>
Created by potrace 1.16, written by Peter Selinger 2001-2019
</metadata>
<g transform="translate(0.000000,210.000000) scale(0.100000,-0.100000)"
fill="#000000" stroke="none">
<path d="M910 1782 c-14 -2 -32 -10 -42 -19 -26 -23 -42 -167 -35 -333 l5
-145 -39 -40 c-50 -51 -58 -80 -30 -108 11 -12 33 -22 48 -22 27 -2 28 -5 34
-61 10 -91 -16 -521 -48 -807 l-17 -148 23 -22 c21 -21 28 -22 214 -21 172 2
202 4 283 27 50 14 102 32 115 40 13 9 68 30 121 48 53 17 105 39 115 48 18
17 133 76 166 85 15 5 17 15 13 73 -2 38 -12 88 -21 113 -10 25 -22 77 -27
115 -13 84 -48 197 -65 202 -16 6 -19 -71 -10 -260 6 -143 5 -163 -9 -172 -9
-5 -39 -25 -67 -42 -28 -18 -67 -38 -86 -44 -20 -7 -58 -22 -86 -35 -83 -38
-154 -64 -178 -64 -13 0 -27 -4 -33 -9 -11 -11 -243 -31 -298 -25 -22 2 -44 8
-49 13 -14 14 13 191 36 228 10 18 23 33 27 33 24 0 77 77 129 185 32 66 61
127 64 135 3 8 6 1 6 -16 1 -18 10 -42 20 -55 16 -20 23 -22 47 -14 34 12 108
146 119 215 4 25 16 61 26 80 20 39 56 179 65 255 3 28 16 93 29 145 13 52 27
115 30 139 4 24 20 73 36 109 36 78 39 151 9 169 -16 11 -25 9 -57 -13 -21
-13 -49 -37 -63 -52 -33 -37 -99 -86 -106 -79 -3 2 -9 33 -14 68 -5 34 -15 66
-22 70 -21 14 -65 10 -81 -6 -16 -15 -44 -206 -33 -224 3 -5 -6 -23 -21 -39
-32 -34 -135 -102 -155 -102 -7 0 -19 -10 -26 -21 -25 -40 -35 -5 -36 128 -1
132 4 150 54 230 9 15 11 26 5 31 -14 13 -55 20 -85 14z m492 -281 c-24 -85
-52 -222 -62 -306 -17 -140 -52 -271 -104 -385 l-16 -35 0 52 c0 28 -4 53 -9
55 -5 2 1 75 14 163 13 88 26 201 30 250 5 59 13 101 26 123 10 18 19 42 19
53 0 12 12 27 31 37 17 9 41 25 53 34 26 20 32 8 18 -41z m-257 -248 c-10
-178 -13 -205 -25 -278 -38 -222 -109 -434 -166 -493 l-26 -27 6 80 c3 44 8
206 11 360 7 321 12 349 73 383 21 12 55 35 76 52 22 16 43 30 48 30 6 0 7
-43 3 -107z"/>
<path d="M364 1460 c-31 -12 -33 -27 -27 -152 l5 -114 -58 -28 c-32 -16 -75
-31 -96 -34 -31 -4 -44 -13 -63 -40 -26 -38 -23 -52 13 -86 15 -13 29 -16 51
-11 17 4 31 10 31 14 0 9 73 51 89 51 9 0 10 -18 6 -62 -12 -108 -44 -302 -59
-353 -8 -28 -26 -99 -41 -160 -29 -120 -52 -207 -66 -243 -15 -40 -11 -107 8
-124 45 -38 60 -28 143 93 19 28 59 81 87 117 29 37 53 71 53 76 0 4 14 24 30
43 17 18 30 39 30 44 0 6 23 36 51 67 28 31 54 64 58 73 7 21 61 88 111 138
54 55 92 109 85 121 -10 17 -32 12 -63 -15 -17 -14 -35 -25 -40 -25 -6 0 -15
-6 -19 -14 -4 -7 -45 -53 -91 -101 -46 -48 -101 -111 -122 -140 -22 -30 -46
-58 -53 -62 -7 -4 -29 -30 -47 -58 -30 -44 -71 -87 -77 -81 -3 3 45 194 61
246 19 58 42 185 51 275 6 54 50 255 58 261 1 1 13 7 26 14 66 34 201 157 201
183 0 9 -5 19 -10 22 -10 6 -141 -70 -193 -112 -43 -35 -50 -30 -43 30 5 39
13 58 33 76 33 29 24 47 -32 67 -46 16 -52 16 -81 4z"/>
</g>
</svg>
