<?xml version="1.0" standalone="no"?>
<!DOCTYPE svg PUBLIC "-//W3C//DTD SVG 20010904//EN"
 "http://www.w3.org/TR/2001/REC-SVG-20010904/DTD/svg10.dtd">
<svg version="1.0" xmlns="http://www.w3.org/2000/svg"
 width="209.000000pt" height="210.000000pt" viewBox="0 0 209.000000 210.000000"
 preserveAspectRatio="xMidYMid meet">
<metadata>
Created by potrace 1.16, written by Peter Selinger 2001-2019
</metadata>
<g transform="translate(0.000000,210.000000) scale(0.100000,-0.100000)"
fill="#000000" stroke="none">
<path d="M1879 1973 c-88 -59 -161 -112 -209 -153 -30 -26 -68 -55 -85 -66
-16 -10 -43 -31 -59 -46 -44 -42 -56 -37 -57 25 -1 89 -14 168 -30 178 -21 13
-75 11 -87 -3 -22 -28 -63 -210 -77 -340 -8 -73 -5 -69 -115 -158 -24 -19 -52
-43 -62 -52 -17 -17 -18 -16 -18 25 0 31 11 65 39 118 42 80 42 107 0 94 -47
-14 -97 -57 -113 -95 -19 -47 -76 -274 -76 -302 0 -11 -14 -33 -30 -48 -44
-41 -57 -83 -35 -116 9 -15 25 -29 35 -31 20 -5 23 -16 40 -123 10 -65 10 -65
-27 -120 -20 -30 -57 -82 -82 -115 -26 -33 -59 -78 -74 -100 -14 -22 -61 -76
-102 -120 -75 -79 -75 -80 -71 -45 7 51 15 167 21 320 7 169 13 246 26 335 17
110 18 113 42 120 12 4 38 19 57 34 19 14 47 33 61 41 94 53 164 113 156 134
-8 20 -13 18 -171 -61 -74 -36 -133 -60 -138 -55 -5 5 -6 26 -2 48 6 39 7 39
80 62 57 18 74 28 74 42 0 10 -4 21 -9 24 -15 10 -231 -11 -246 -24 -11 -9
-13 -33 -8 -114 l6 -102 -44 -18 c-24 -10 -66 -28 -94 -39 -27 -12 -73 -35
-102 -51 -46 -27 -52 -35 -53 -63 0 -74 62 -83 147 -20 65 47 118 77 138 77 9
0 11 -12 9 -42 -15 -157 -34 -445 -34 -504 0 -65 -27 -239 -48 -309 -24 -81
60 -128 111 -63 14 18 39 49 57 68 18 19 46 55 63 80 17 25 45 62 64 83 18 20
33 43 33 50 0 7 9 18 20 25 11 7 20 19 20 27 0 8 4 15 8 15 5 0 15 12 22 28 8
15 29 46 47 69 18 22 38 54 45 70 12 25 13 16 16 -81 1 -60 -2 -123 -8 -139
-5 -17 -10 -40 -10 -52 0 -12 -9 -51 -20 -86 -42 -131 -16 -160 147 -167 101
-4 113 -2 188 26 44 16 107 38 140 48 33 10 89 33 125 51 36 18 72 33 80 33 9
0 24 6 35 14 11 8 40 20 65 27 25 7 54 19 65 25 39 25 97 27 140 5 21 -12 43
-17 48 -12 4 4 12 39 18 76 8 56 6 79 -10 139 -10 39 -22 98 -25 131 -10 105
-60 215 -87 188 -12 -12 -14 -233 -3 -335 l6 -57 -38 -7 c-21 -4 -59 -18 -85
-31 -26 -12 -58 -23 -71 -23 -13 0 -32 -6 -43 -14 -11 -7 -38 -19 -60 -26 -22
-7 -47 -18 -55 -26 -16 -14 -261 -100 -321 -113 -19 -4 -41 -11 -47 -15 -6 -3
-13 -2 -17 4 -4 6 -23 7 -45 4 -30 -5 -41 -3 -45 8 -3 8 4 62 16 119 17 85 21
134 20 267 -1 96 -8 195 -16 240 -19 99 -19 152 1 180 8 12 13 31 9 41 -3 11
-1 22 5 26 6 4 21 23 34 43 13 21 51 66 85 102 l60 65 2 -60 c4 -219 -26 -557
-58 -645 -9 -25 -31 -65 -50 -89 -31 -42 -43 -81 -24 -81 24 0 91 70 130 137
37 65 46 93 61 182 10 58 21 122 24 141 4 19 13 134 20 255 12 184 18 226 35
259 24 47 107 136 126 136 7 0 28 13 47 30 50 45 192 159 195 156 1 -1 -15
-56 -36 -122 -41 -126 -93 -312 -135 -480 -29 -116 -76 -261 -107 -333 -14
-35 -28 -51 -42 -53 -39 -5 -34 -81 5 -94 33 -10 109 80 144 171 56 148 85
232 102 300 100 388 160 566 231 680 19 30 25 54 26 95 0 62 -13 72 -56 43z"/>
</g>
</svg>
