<?xml version="1.0" standalone="no"?>
<!DOCTYPE svg PUBLIC "-//W3C//DTD SVG 20010904//EN"
 "http://www.w3.org/TR/2001/REC-SVG-20010904/DTD/svg10.dtd">
<svg version="1.0" xmlns="http://www.w3.org/2000/svg"
 width="208.000000pt" height="206.000000pt" viewBox="0 0 208.000000 206.000000"
 preserveAspectRatio="xMidYMid meet">
<metadata>
Created by potrace 1.16, written by Peter Selinger 2001-2019
</metadata>
<g transform="translate(0.000000,206.000000) scale(0.100000,-0.100000)"
fill="#000000" stroke="none">
<path d="M1450 2014 c-43 -19 -50 -29 -50 -81 0 -23 -5 -54 -11 -70 -5 -15
-14 -75 -19 -133 -7 -81 -13 -107 -26 -115 -10 -5 -31 -22 -48 -36 -17 -15
-40 -29 -52 -33 -24 -7 -84 -64 -84 -79 0 -6 -8 -19 -17 -29 -21 -24 -19 -78
4 -95 21 -16 95 -17 111 -1 7 7 12 26 12 44 0 28 24 64 35 52 5 -5 -10 -128
-24 -198 -26 -133 -33 -159 -49 -197 -15 -38 -23 -45 -77 -64 -124 -44 -146
-55 -161 -77 -11 -17 -12 -27 -4 -42 12 -22 6 -32 -68 -119 -80 -95 -120 -129
-147 -124 -14 3 -42 -4 -66 -16 l-42 -22 7 32 c3 17 13 75 21 128 31 200 49
276 72 310 13 18 23 39 23 46 0 6 7 35 15 64 13 43 24 58 66 88 32 22 48 41
45 50 -4 8 16 34 49 65 63 59 71 88 24 88 -31 0 -99 -40 -151 -88 l-28 -26 0
25 c1 13 5 68 9 122 7 92 10 100 41 132 45 46 31 65 -49 65 -87 0 -98 -17 -95
-145 2 -125 -18 -284 -37 -296 -8 -5 -21 -9 -29 -9 -59 0 -212 -89 -225 -130
-3 -10 -3 -29 0 -43 5 -20 16 -26 55 -34 55 -11 80 -2 80 28 0 25 28 69 44 69
27 0 38 -68 26 -158 -17 -126 -38 -254 -61 -362 -17 -83 -24 -98 -52 -122 -18
-15 -37 -28 -43 -28 -18 0 -107 -41 -126 -58 -25 -21 -22 -58 4 -76 29 -20 92
-21 108 -1 17 20 37 19 49 -4 6 -10 25 -21 43 -23 35 -6 45 1 168 99 61 49
180 173 180 189 0 4 19 28 41 53 63 70 81 91 124 146 44 56 54 65 72 65 9 0
10 -7 4 -22 -5 -13 -24 -70 -42 -128 -50 -164 -78 -241 -103 -290 -13 -25 -29
-63 -36 -84 -7 -22 -23 -58 -36 -80 -13 -23 -34 -63 -48 -91 -13 -27 -34 -60
-46 -73 -28 -29 -23 -58 10 -54 31 3 110 86 163 169 20 33 37 63 37 68 0 5 16
40 36 78 33 64 87 211 148 407 46 147 81 198 164 240 23 12 42 25 42 30 0 4
32 29 72 56 39 26 80 56 90 66 10 10 24 18 32 18 8 0 21 8 28 18 14 19 104 82
116 82 5 0 18 9 31 21 17 16 19 24 11 34 -6 8 -19 11 -28 8 -57 -18 -131 -50
-154 -65 -15 -10 -52 -30 -83 -43 l-56 -25 23 32 c13 18 49 65 81 104 31 39
57 75 57 80 0 5 8 14 18 20 10 7 42 58 72 115 29 57 62 116 72 130 21 29 45
146 35 172 -4 10 -14 20 -22 24 -25 9 -141 -32 -183 -65 -20 -16 -65 -44 -100
-61 -55 -28 -63 -30 -69 -15 -3 9 -1 31 5 48 7 18 12 41 12 52 1 21 33 121 44
131 14 14 4 43 -22 61 -25 18 -30 19 -62 6z m290 -277 c0 -6 -37 -74 -61 -112
-14 -22 -31 -57 -38 -77 -7 -21 -16 -40 -21 -43 -5 -3 -37 -58 -71 -123 -34
-64 -75 -134 -91 -156 -15 -21 -28 -49 -28 -60 0 -28 -24 -62 -50 -69 -24 -6
-24 -11 -5 87 8 43 22 129 31 190 9 65 24 125 35 144 10 18 19 39 19 47 0 7
15 22 33 34 17 11 39 25 47 30 8 5 35 19 60 30 25 12 60 34 79 51 28 25 61 39
61 27z"/>
<path d="M1340 661 c-14 -4 -40 -11 -58 -16 -21 -5 -34 -15 -38 -30 -7 -29 21
-85 43 -85 9 0 30 -11 47 -23 17 -13 58 -32 91 -41 33 -10 76 -22 97 -28 48
-14 120 -3 135 21 17 27 -1 39 -84 55 -117 22 -204 83 -172 122 23 28 -6 40
-61 25z"/>
</g>
</svg>
