<?xml version="1.0" standalone="no"?>
<!DOCTYPE svg PUBLIC "-//W3C//DTD SVG 20010904//EN"
 "http://www.w3.org/TR/2001/REC-SVG-20010904/DTD/svg10.dtd">
<svg version="1.0" xmlns="http://www.w3.org/2000/svg"
 width="209.000000pt" height="205.000000pt" viewBox="0 0 209.000000 205.000000"
 preserveAspectRatio="xMidYMid meet">
<metadata>
Created by potrace 1.16, written by Peter Selinger 2001-2019
</metadata>
<g transform="translate(0.000000,205.000000) scale(0.100000,-0.100000)"
fill="#000000" stroke="none">
<path d="M1714 2011 c-17 -4 -36 -11 -42 -15 -7 -4 -20 -9 -29 -11 -29 -6
-246 -97 -270 -113 -30 -19 -29 -53 2 -80 l25 -22 79 35 c79 35 101 41 101 28
0 -13 -55 -113 -62 -113 -4 0 -8 -5 -8 -12 0 -7 -21 -43 -46 -80 -38 -58 -48
-67 -63 -58 -18 9 -31 50 -31 96 0 27 -19 33 -73 23 -57 -10 -62 -19 -48 -85
10 -42 22 -65 52 -95 21 -21 39 -45 39 -52 0 -35 -60 -123 -174 -255 -80 -94
-81 -96 -62 -137 14 -29 15 -46 6 -117 -21 -159 -6 -140 -175 -229 -83 -43
-156 -78 -164 -79 -19 0 -130 -50 -164 -73 -33 -23 -35 -56 -4 -85 35 -33 68
-27 129 24 15 12 41 25 58 29 18 4 59 23 93 42 56 32 177 93 183 93 6 0 -9
-79 -32 -170 -13 -52 -24 -102 -24 -110 0 -8 -16 -53 -35 -100 -19 -46 -35
-88 -35 -92 0 -20 33 -4 71 35 59 60 65 69 73 102 4 17 15 53 26 80 11 28 28
86 39 130 48 195 56 215 105 248 151 100 250 171 294 210 38 32 74 86 67 97
-8 13 -52 13 -60 0 -4 -6 -27 -22 -53 -36 -52 -27 -96 -55 -199 -127 -87 -60
-98 -60 -89 -5 14 89 27 115 68 138 29 16 38 27 36 43 -3 19 -9 21 -57 18
l-54 -3 27 33 c15 18 45 45 68 61 22 16 47 43 56 60 26 46 52 78 65 78 7 0 48
-34 92 -75 44 -41 85 -75 90 -75 17 0 35 22 35 43 0 17 -20 46 -106 150 -7 9
-14 21 -14 26 0 5 -7 14 -14 21 -18 14 -7 48 30 97 13 17 24 34 24 38 0 3 18
33 40 66 22 33 40 63 40 66 0 8 67 110 101 153 20 26 28 49 30 90 4 60 0 64
-57 51z"/>
<path d="M1072 1723 c-13 -3 -27 -14 -31 -26 -5 -12 -21 -119 -35 -237 -15
-118 -34 -240 -42 -271 -17 -70 -18 -89 -1 -89 18 1 42 37 72 111 14 35 30 73
35 84 5 11 16 56 25 100 36 183 54 257 65 270 9 11 6 20 -14 40 -25 25 -30 26
-74 18z"/>
<path d="M757 1622 c-24 -25 -26 -34 -21 -73 8 -60 -21 -239 -46 -289 -11 -22
-36 -83 -55 -137 -20 -53 -42 -104 -50 -113 -21 -23 -19 -47 5 -60 15 -8 28
-4 64 21 25 18 49 44 54 58 6 14 23 62 40 106 17 44 40 114 52 155 12 41 26
84 31 95 4 11 15 37 23 58 12 30 20 37 34 33 12 -4 25 1 36 13 22 24 11 70
-20 86 -10 6 -40 25 -66 43 -26 17 -48 32 -50 32 -3 0 -16 -13 -31 -28z"/>
<path d="M1505 314 c-33 -8 -96 -21 -139 -29 -43 -9 -91 -22 -105 -30 -14 -8
-89 -35 -166 -60 -77 -25 -149 -49 -160 -54 -41 -19 -105 -41 -113 -39 -4 1
-18 -4 -32 -10 -14 -6 -41 -18 -60 -26 -19 -9 -55 -27 -80 -41 l-45 -25 143 0
c137 0 145 1 200 29 31 15 71 31 87 35 37 9 148 52 195 76 32 17 87 34 227 74
28 8 63 22 78 32 15 10 43 20 63 23 25 4 38 12 40 25 8 38 -33 44 -133 20z"/>
</g>
</svg>
