<?xml version="1.0" standalone="no"?>
<!DOCTYPE svg PUBLIC "-//W3C//DTD SVG 20010904//EN"
 "http://www.w3.org/TR/2001/REC-SVG-20010904/DTD/svg10.dtd">
<svg version="1.0" xmlns="http://www.w3.org/2000/svg"
 width="207.000000pt" height="212.000000pt" viewBox="0 0 207.000000 212.000000"
 preserveAspectRatio="xMidYMid meet">
<metadata>
Created by potrace 1.16, written by Peter Selinger 2001-2019
</metadata>
<g transform="translate(0.000000,212.000000) scale(0.100000,-0.100000)"
fill="#000000" stroke="none">
<path d="M1355 1963 c-35 -9 -43 -23 -49 -86 -11 -111 -13 -269 -5 -306 10
-42 13 -437 4 -566 -11 -175 -30 -217 -105 -240 -14 -4 -78 -33 -142 -65 -65
-31 -120 -55 -123 -52 -12 13 -3 35 27 62 44 41 30 50 -65 43 -97 -7 -114 -24
-98 -94 20 -83 19 -84 -72 -129 -45 -22 -87 -40 -92 -40 -4 0 -16 -6 -24 -14
-15 -13 -136 -46 -224 -62 -49 -8 -82 -51 -67 -88 12 -32 51 -43 99 -28 97 29
172 56 226 82 121 57 177 80 186 74 15 -9 10 -145 -7 -204 -23 -83 -27 -107
-16 -114 12 -7 79 89 88 127 3 15 10 27 14 27 10 0 30 113 30 171 0 44 21 89
42 89 6 0 25 11 42 23 55 42 125 77 169 83 41 7 130 56 153 85 46 56 65 252
63 624 -1 143 -2 276 -1 295 2 226 0 285 -10 297 -6 7 -13 12 -17 12 -3 -1
-15 -4 -26 -6z"/>
<path d="M715 1750 c-11 -4 -45 -18 -75 -30 -30 -13 -83 -36 -118 -51 -34 -16
-68 -29 -75 -29 -6 0 -23 -6 -37 -13 -39 -20 -100 -36 -161 -42 -72 -8 -126
-48 -116 -86 10 -37 21 -49 55 -58 25 -7 36 -6 54 8 13 10 34 21 48 25 28 8
47 15 104 40 21 9 43 13 47 9 5 -5 10 -62 11 -126 3 -137 22 -114 -154 -196
-59 -28 -118 -51 -130 -51 -13 0 -56 -10 -96 -22 l-73 -23 3 -50 c3 -49 4 -50
33 -49 45 3 164 40 184 58 10 9 25 16 34 16 9 0 46 13 81 30 36 16 77 32 92
36 l27 7 -7 -128 c-6 -112 -4 -130 10 -146 10 -11 27 -19 40 -19 27 0 64 43
64 75 0 12 6 28 14 34 8 7 14 20 14 29 -2 20 121 268 154 312 26 36 38 28 49
-32 16 -88 40 -183 48 -191 5 -5 24 -10 42 -10 l33 -2 14 85 c7 47 15 98 16
113 5 57 22 52 62 -20 42 -76 78 -117 110 -125 41 -10 74 30 40 49 -22 13 -62
103 -80 178 -25 111 -50 169 -76 173 -35 6 -66 -23 -80 -73 -8 -29 -16 -43
-22 -37 -6 6 -6 17 1 30 16 31 13 62 -6 69 -25 9 -33 23 -33 60 0 53 -8 63
-51 63 -45 0 -59 -18 -59 -78 0 -22 -10 -65 -21 -96 -19 -50 -29 -61 -81 -92
-32 -20 -65 -33 -73 -31 -13 6 -18 56 -15 162 1 50 8 56 61 58 52 2 68 30 24
41 -39 10 -27 26 50 66 66 35 94 67 71 82 -14 9 -25 9 -51 -2z m-82 -513 c-6
-12 -24 -50 -39 -84 -15 -35 -31 -63 -36 -63 -25 0 15 130 49 157 32 26 41 22
26 -10z"/>
<path d="M1519 167 c-19 -4 -68 -10 -109 -13 -41 -3 -97 -11 -125 -19 -27 -7
-97 -23 -155 -34 -180 -36 -294 -63 -325 -76 -16 -7 -37 -15 -45 -18 -8 -3 71
-6 175 -6 138 0 208 4 255 15 36 9 90 19 120 24 68 10 197 36 272 55 32 8 69
15 83 15 14 0 33 4 43 9 9 5 25 12 35 15 24 7 21 23 -5 33 -29 10 -174 11
-219 0z"/>
</g>
</svg>
