<?xml version="1.0" standalone="no"?>
<!DOCTYPE svg PUBLIC "-//W3C//DTD SVG 20010904//EN"
 "http://www.w3.org/TR/2001/REC-SVG-20010904/DTD/svg10.dtd">
<svg version="1.0" xmlns="http://www.w3.org/2000/svg"
 width="208.000000pt" height="205.000000pt" viewBox="0 0 208.000000 205.000000"
 preserveAspectRatio="xMidYMid meet">
<metadata>
Created by potrace 1.16, written by Peter Selinger 2001-2019
</metadata>
<g transform="translate(0.000000,205.000000) scale(0.100000,-0.100000)"
fill="#000000" stroke="none">
<path d="M1431 2022 c-8 -18 -11 -100 -9 -247 2 -185 -1 -240 -19 -350 -12
-71 -24 -143 -26 -160 -7 -47 -35 -142 -56 -188 -10 -23 -22 -57 -26 -74 -3
-18 -10 -33 -14 -33 -6 0 -31 -58 -31 -73 0 -22 31 0 57 41 83 128 153 308
189 480 21 105 26 161 29 319 2 106 6 197 10 203 3 5 3 32 -1 60 l-7 50 -42 0
c-37 0 -44 -4 -54 -28z"/>
<path d="M855 1935 c-60 -21 -139 -58 -343 -159 -53 -26 -102 -72 -102 -95 0
-29 22 -41 75 -41 45 0 55 4 85 35 19 19 39 35 46 35 6 0 27 13 47 29 37 29
122 73 167 86 14 4 38 19 54 32 17 14 40 29 53 34 29 11 39 35 23 54 -16 19
-22 19 -105 -10z"/>
<path d="M1165 1702 c-12 -8 -55 -69 -55 -77 0 -15 -63 -135 -71 -135 -5 0 -9
16 -9 36 0 27 8 43 35 68 23 22 35 43 35 60 0 30 -23 35 -50 11 -15 -14 -18
-14 -30 0 -15 18 -60 20 -84 2 -10 -7 -19 -28 -20 -47 -2 -19 -4 -41 -5 -48
-2 -23 -135 -132 -161 -132 -7 0 -4 96 5 137 4 18 18 39 31 48 28 18 31 40 7
49 -9 4 -42 9 -74 13 -55 5 -59 4 -67 -18 -5 -13 -10 -85 -10 -158 -2 -163 10
-146 -160 -237 -24 -13 -81 -48 -126 -79 -45 -30 -89 -55 -97 -55 -19 -1 -64
-40 -72 -63 -10 -26 8 -53 43 -65 27 -10 38 -7 95 26 60 34 123 80 199 143 17
14 44 29 60 33 l29 7 -7 -43 c-10 -71 -22 -138 -45 -243 -24 -115 -26 -146 -9
-163 32 -32 68 2 68 66 0 26 6 56 14 67 7 11 16 42 20 69 3 27 10 54 14 60 5
6 16 45 26 86 40 178 51 205 95 232 20 12 51 34 69 50 18 15 39 28 46 28 13 0
31 -73 22 -88 -2 -4 -7 -52 -10 -107 -4 -55 -12 -123 -18 -152 -9 -41 -8 -56
2 -68 15 -18 40 -19 63 -2 21 15 51 130 71 272 1 11 8 30 14 42 7 12 12 32 12
44 0 12 11 41 24 63 13 23 27 56 31 74 3 18 13 32 21 32 11 0 14 -23 14 -122
0 -148 4 -168 35 -168 23 0 31 14 57 90 5 14 9 97 9 185 0 140 -2 161 -17 172
-20 14 -53 17 -69 5z"/>
<path d="M975 880 c-21 -11 -29 -21 -27 -35 2 -11 6 -48 9 -82 l5 -63 -107
-50 c-59 -27 -132 -59 -163 -69 -74 -25 -192 -81 -192 -91 0 -4 -21 -14 -47
-21 -58 -17 -113 -67 -113 -102 0 -23 39 -67 61 -67 16 0 134 73 154 95 17 20
53 38 200 101 17 7 50 20 75 30 25 10 59 26 75 36 56 33 58 29 53 -89 -3 -60
-12 -126 -20 -148 -9 -22 -26 -75 -39 -119 -26 -86 -29 -88 -139 -121 -69 -20
-97 -33 -135 -64 l-30 -24 155 5 c145 4 159 6 210 32 57 29 100 43 230 77 41
10 91 26 110 34 34 14 189 47 280 59 25 4 63 9 85 12 22 3 52 5 68 5 23 -1 27
3 28 26 5 92 -8 130 -55 155 -25 14 -46 -13 -46 -59 0 -31 -2 -33 -38 -33 -20
0 -53 -5 -72 -10 -19 -6 -57 -12 -85 -15 -68 -5 -156 -23 -169 -34 -6 -4 -45
-16 -86 -26 -41 -10 -79 -20 -85 -24 -14 -8 -136 -40 -157 -40 -14 -1 -11 10
14 72 17 39 37 81 44 92 7 11 18 67 24 125 6 58 18 128 27 157 14 43 22 54 52
67 20 8 59 29 86 46 28 17 69 39 93 50 51 23 112 70 112 86 0 7 -6 14 -14 17
-18 7 -121 -25 -185 -58 -28 -14 -56 -25 -63 -25 -7 0 -26 -7 -42 -15 -54 -28
-64 14 -16 68 25 29 28 37 16 46 -18 15 -103 10 -141 -9z"/>
</g>
</svg>
