<?xml version="1.0" standalone="no"?>
<!DOCTYPE svg PUBLIC "-//W3C//DTD SVG 20010904//EN"
 "http://www.w3.org/TR/2001/REC-SVG-20010904/DTD/svg10.dtd">
<svg version="1.0" xmlns="http://www.w3.org/2000/svg"
 width="208.000000pt" height="205.000000pt" viewBox="0 0 208.000000 205.000000"
 preserveAspectRatio="xMidYMid meet">
<metadata>
Created by potrace 1.16, written by Peter Selinger 2001-2019
</metadata>
<g transform="translate(0.000000,205.000000) scale(0.100000,-0.100000)"
fill="#000000" stroke="none">
<path d="M1264 1977 c-29 -16 -34 -27 -34 -85 0 -31 -7 -63 -16 -77 -15 -22
-14 -25 5 -42 12 -9 21 -29 21 -44 0 -15 9 -89 21 -166 24 -162 21 -285 -10
-378 -22 -67 -56 -102 -154 -161 -32 -19 -79 -50 -104 -69 -25 -19 -52 -35
-59 -35 -19 0 -18 59 1 84 8 11 15 28 15 38 0 22 -49 48 -89 48 -45 0 -56 -28
-56 -149 l0 -103 -35 -19 c-19 -10 -42 -19 -50 -19 -8 -1 -35 -15 -60 -31 -25
-16 -85 -50 -135 -75 -141 -72 -259 -137 -291 -160 -16 -11 -43 -26 -60 -33
-33 -13 -77 -55 -87 -82 -9 -28 20 -59 56 -59 37 0 48 6 159 82 46 31 119 75
163 97 76 39 113 61 181 105 16 11 45 29 64 42 19 13 48 24 65 26 28 3 30 0
41 -42 9 -35 8 -70 -3 -155 -8 -60 -18 -125 -23 -142 -10 -38 1 -50 23 -25 21
23 67 126 67 149 0 11 5 24 11 30 6 6 13 56 15 112 4 112 20 162 63 189 14 9
35 25 45 34 11 10 24 18 29 18 10 0 51 30 102 75 17 15 55 43 86 63 140 93
157 111 123 136 -12 10 -13 17 -4 41 25 67 30 178 15 325 -18 171 -34 348 -37
409 -3 49 -28 68 -64 48z"/>
<path d="M828 1938 c-16 -5 -28 -14 -28 -19 0 -5 -8 -9 -18 -9 -19 0 -82 -28
-92 -40 -12 -15 -99 -59 -140 -71 -25 -7 -56 -20 -70 -30 -14 -10 -72 -40
-127 -68 -56 -28 -104 -55 -107 -60 -4 -5 -21 -13 -38 -17 -45 -9 -98 -61 -98
-96 0 -34 32 -68 63 -68 12 0 34 11 49 25 31 29 158 115 170 115 4 0 8 -52 8
-115 0 -93 -3 -117 -16 -127 -9 -7 -34 -30 -56 -50 -21 -21 -44 -38 -49 -38
-6 0 -22 -9 -36 -20 -14 -11 -32 -20 -40 -20 -16 0 -84 -52 -125 -95 -34 -37
-35 -60 -4 -80 27 -18 61 -9 106 28 15 12 42 31 60 42 73 44 98 61 114 78 10
9 21 17 26 17 19 0 23 -130 6 -229 -7 -42 7 -61 44 -61 35 0 46 14 55 70 3 25
13 70 22 100 30 108 64 225 75 252 9 26 35 44 46 33 3 -3 6 -89 6 -191 2 -185
2 -186 26 -205 14 -10 32 -19 41 -19 21 0 39 37 37 80 0 19 0 55 0 80 1 25 1
86 0 135 -3 210 -2 216 42 264 49 52 49 75 -1 79 -30 3 -37 8 -45 35 -8 28
-14 32 -49 35 -35 3 -65 22 -65 42 0 4 11 12 25 18 14 7 31 17 38 22 30 26
122 80 147 85 15 3 42 21 60 40 28 29 31 37 20 50 -14 17 -42 18 -82 3z m-203
-300 c-20 -100 -36 -137 -73 -168 l-37 -31 -7 48 c-13 98 11 166 63 176 58 11
61 9 54 -25z"/>
<path d="M901 1644 c-23 -29 -84 -211 -75 -225 11 -18 24 -8 60 52 l38 61 17
-48 c10 -27 18 -58 18 -68 3 -59 57 -124 82 -99 21 21 8 155 -28 285 -11 42
-21 58 -37 62 -38 10 -54 6 -75 -20z"/>
<path d="M1240 475 c-7 -8 -10 -26 -6 -40 5 -21 0 -28 -31 -48 -21 -12 -63
-29 -92 -36 -69 -17 -137 -47 -177 -77 -17 -13 -36 -24 -41 -24 -14 0 -114
-44 -184 -81 -31 -16 -62 -29 -69 -29 -6 0 -26 -6 -43 -14 -277 -127 -275
-125 -122 -125 90 0 125 3 139 14 11 8 27 15 35 15 9 0 54 19 101 43 47 24
106 51 133 61 26 10 69 32 95 50 45 30 68 42 137 71 17 7 41 17 55 23 55 24
107 31 177 24 95 -11 110 -4 115 49 5 54 -7 65 -81 74 -40 5 -65 13 -78 27
-29 32 -49 39 -63 23z"/>
</g>
</svg>
