<?xml version="1.0" standalone="no"?>
<!DOCTYPE svg PUBLIC "-//W3C//DTD SVG 20010904//EN"
 "http://www.w3.org/TR/2001/REC-SVG-20010904/DTD/svg10.dtd">
<svg version="1.0" xmlns="http://www.w3.org/2000/svg"
 width="210.000000pt" height="204.000000pt" viewBox="0 0 210.000000 204.000000"
 preserveAspectRatio="xMidYMid meet">
<metadata>
Created by potrace 1.16, written by Peter Selinger 2001-2019
</metadata>
<g transform="translate(0.000000,204.000000) scale(0.100000,-0.100000)"
fill="#000000" stroke="none">
<path d="M1135 2032 c-21 -15 -34 -63 -41 -154 -7 -101 -17 -122 -68 -148 -40
-20 -95 -78 -102 -107 -8 -32 12 -53 53 -53 18 0 36 -6 38 -12 3 -7 -1 -47 -8
-88 -11 -65 -15 -75 -34 -75 -24 -1 -73 -54 -73 -81 0 -9 7 -26 17 -36 13 -15
14 -24 5 -56 -5 -20 -13 -57 -17 -82 -9 -61 -26 -122 -39 -140 -6 -8 -22 -37
-36 -64 -14 -27 -38 -62 -53 -79 -28 -30 -30 -57 -4 -57 36 0 74 24 97 61 13
22 37 53 52 68 35 36 55 83 82 196 l22 90 84 -5 c47 -3 142 -5 213 -5 120 0
127 -1 127 -20 1 -11 7 -31 15 -45 8 -14 14 -34 15 -46 0 -44 72 -82 98 -51
33 39 53 122 54 226 0 58 -1 115 -4 126 -2 11 -8 43 -12 70 -9 56 -24 90 -34
80 -4 -4 -5 -60 -4 -125 4 -113 -9 -190 -30 -190 -10 0 -28 35 -28 55 0 9 -9
28 -20 43 -34 46 -49 127 -44 242 2 58 9 116 14 130 5 14 14 49 20 79 6 30 17
69 25 87 8 19 22 49 30 68 17 38 19 74 6 95 -11 17 -67 6 -95 -20 -11 -11 -25
-19 -31 -19 -7 0 -20 -9 -31 -21 -10 -11 -34 -27 -54 -35 -19 -8 -44 -23 -55
-33 -19 -18 -78 -51 -90 -51 -9 0 -6 78 4 84 5 3 11 18 14 33 3 16 8 38 12 51
7 20 4 22 -36 22 -24 0 -49 -4 -54 -8z m250 -290 c-44 -132 -38 -276 16 -421
11 -29 17 -56 14 -60 -4 -3 -33 4 -67 16 -46 17 -65 20 -80 12 -14 -8 -25 -7
-41 4 -12 8 -42 17 -66 21 -80 12 -80 12 -59 113 10 48 18 99 18 112 0 14 9
52 21 85 15 47 29 67 55 85 19 13 34 27 34 32 0 5 15 16 33 25 17 9 42 25 53
36 12 10 37 27 55 37 33 18 34 18 37 0 2 -10 -9 -54 -23 -97z"/>
<path d="M623 1971 c-20 -16 -22 -27 -20 -96 2 -74 1 -78 -27 -100 -16 -13
-39 -28 -50 -33 -127 -58 -136 -63 -142 -88 -10 -40 9 -71 50 -78 20 -4 44 -2
55 4 11 5 31 10 45 10 14 0 35 9 46 20 11 11 22 20 25 20 3 0 5 -40 5 -88 0
-83 -1 -90 -27 -113 -16 -14 -50 -39 -78 -54 -70 -40 -135 -112 -135 -150 0
-39 9 -52 42 -60 35 -9 81 16 112 61 13 20 33 42 44 50 20 14 20 12 15 -134
-4 -110 -10 -160 -25 -199 -11 -29 -23 -55 -28 -58 -29 -18 -144 85 -180 160
-41 88 -70 105 -70 43 0 -102 66 -206 183 -285 112 -76 140 -78 157 -12 5 19
18 66 29 104 14 49 24 125 32 250 7 115 16 189 25 207 8 15 14 36 14 47 0 22
63 71 91 71 17 0 29 19 29 45 0 26 -81 37 -105 14 -5 -5 -13 -9 -17 -9 -12 0
-10 88 2 95 7 4 7 12 0 25 -5 10 -7 26 -3 35 3 10 6 31 7 49 1 27 10 37 66 75
36 23 84 59 108 80 39 33 42 38 29 55 -19 26 -73 15 -122 -24 l-37 -29 -50 54
c-28 30 -55 55 -62 55 -6 -1 -21 -9 -33 -19z"/>
<path d="M1290 935 c-36 -24 -92 -65 -124 -90 -62 -49 -76 -48 -68 6 3 20 14
34 33 45 16 8 29 21 29 29 0 18 -41 29 -75 21 -14 -4 -34 -1 -45 6 -17 11 -25
10 -48 -3 -23 -13 -27 -21 -26 -54 1 -22 7 -64 14 -94 6 -29 9 -59 6 -66 -2
-7 -35 -28 -73 -46 -37 -18 -79 -40 -93 -50 -56 -38 -187 -99 -212 -99 -30 0
-78 -50 -78 -81 0 -44 75 -91 95 -58 4 6 41 26 83 46 43 20 87 45 100 57 39
35 191 120 200 112 11 -12 10 -394 -2 -418 -12 -25 -93 -55 -276 -104 -52 -14
-101 -31 -109 -37 -8 -7 -28 -16 -44 -22 -17 -5 -32 -16 -35 -22 -3 -10 30
-13 140 -13 79 0 148 4 154 8 5 5 45 17 89 27 96 21 148 41 280 105 142 69
260 111 319 113 l51 2 0 60 0 60 -50 -3 c-27 -2 -57 -10 -65 -17 -8 -7 -34
-15 -57 -19 -23 -3 -93 -28 -156 -56 -63 -27 -120 -50 -127 -50 -9 0 -11 34
-6 148 12 273 22 343 51 360 16 8 142 119 198 174 22 21 37 43 35 50 -8 25
-44 16 -108 -27z"/>
</g>
</svg>
