<?xml version="1.0" standalone="no"?>
<!DOCTYPE svg PUBLIC "-//W3C//DTD SVG 20010904//EN"
 "http://www.w3.org/TR/2001/REC-SVG-20010904/DTD/svg10.dtd">
<svg version="1.0" xmlns="http://www.w3.org/2000/svg"
 width="207.000000pt" height="203.000000pt" viewBox="0 0 207.000000 203.000000"
 preserveAspectRatio="xMidYMid meet">
<metadata>
Created by potrace 1.16, written by Peter Selinger 2001-2019
</metadata>
<g transform="translate(0.000000,203.000000) scale(0.100000,-0.100000)"
fill="#000000" stroke="none">
<path d="M1109 2017 c-29 -23 -70 -118 -99 -234 -9 -38 -15 -44 -50 -53 -21
-6 -42 -15 -46 -21 -3 -6 -17 -14 -30 -19 -34 -13 -33 -61 2 -89 27 -21 27
-42 -1 -86 -6 -11 -18 -38 -25 -60 -7 -22 -27 -68 -46 -101 l-34 -62 -36 13
c-45 15 -97 -4 -87 -33 10 -26 51 -89 63 -97 5 -3 10 -16 10 -28 0 -26 -140
-307 -153 -307 -4 0 -6 8 -4 18 8 28 26 139 48 287 38 265 50 328 68 339 5 3
11 23 15 44 3 22 15 51 27 66 26 33 19 56 -19 56 -26 0 -29 4 -30 32 -1 34 12
49 63 74 17 8 37 18 45 23 8 5 28 14 43 20 33 13 44 36 27 56 -18 22 -61 18
-129 -11 l-60 -26 -34 26 c-38 29 -46 31 -82 14 -27 -12 -32 -38 -14 -84 9
-26 7 -31 -32 -64 -24 -19 -51 -39 -60 -45 -9 -5 -42 -28 -72 -50 -64 -46 -85
-83 -71 -123 9 -26 12 -27 88 -26 87 2 99 10 90 60 -5 26 -1 35 26 57 47 40
60 36 60 -21 0 -36 -5 -54 -20 -67 -11 -10 -20 -22 -20 -27 0 -24 -135 -199
-220 -283 -51 -51 -64 -93 -40 -123 25 -31 59 -28 118 11 36 23 57 45 71 77
26 55 57 97 66 88 7 -7 -15 -175 -45 -338 -27 -145 -34 -248 -22 -293 13 -48
8 -62 -29 -77 -56 -24 -81 -98 -40 -120 46 -24 132 -3 167 42 10 13 33 33 49
43 17 10 53 38 80 60 28 23 64 49 81 58 17 9 36 23 43 31 29 35 33 16 26 -132
-5 -97 -3 -178 5 -240 14 -107 8 -122 -46 -122 -18 0 -35 -4 -38 -9 -3 -4 -20
-11 -38 -15 -71 -14 -290 -89 -311 -107 -22 -18 -19 -18 134 -19 116 0 168 4
200 15 24 9 80 25 124 36 44 11 91 27 105 34 14 7 66 25 115 40 91 27 120 37
165 60 36 18 123 34 207 37 66 2 74 0 88 -20 22 -30 62 -29 76 2 15 32 1 74
-33 99 -50 37 -268 32 -348 -8 -14 -7 -63 -25 -110 -40 -47 -16 -89 -31 -95
-35 -5 -4 -17 -8 -25 -8 -8 0 -31 -4 -51 -7 l-35 -7 2 164 c3 149 14 245 44
369 9 37 18 50 51 70 22 13 63 42 90 65 27 22 67 47 90 54 22 8 59 31 82 51
117 104 -99 47 -275 -73 -40 -27 -49 -23 -33 15 9 23 23 35 48 42 50 15 70 34
55 52 -9 11 -23 13 -51 9 -25 -4 -49 -1 -72 10 -33 15 -36 15 -69 -5 l-35 -22
0 -96 0 -96 -34 -31 c-19 -17 -49 -39 -68 -49 -19 -9 -65 -40 -104 -67 -38
-27 -73 -50 -77 -50 -4 0 -10 21 -14 46 -6 41 -4 49 18 69 14 13 35 39 47 59
12 19 31 38 42 41 12 4 26 19 33 33 6 15 22 45 36 67 30 48 64 116 84 167 l15
37 68 -28 c64 -27 208 -67 281 -78 30 -5 32 -4 32 27 0 29 -5 33 -72 64 -40
19 -106 44 -146 56 -40 12 -85 32 -100 45 l-26 22 48 99 c26 55 68 143 94 197
27 55 55 100 65 103 9 3 24 21 31 39 8 18 25 39 38 46 12 6 38 25 56 40 18 16
37 29 41 29 7 0 23 -115 35 -267 10 -115 79 -381 109 -420 12 -16 63 -17 73
-1 13 20 7 102 -8 134 -8 16 -20 58 -27 94 -7 36 -18 92 -26 125 -16 70 -33
236 -39 384 -6 141 -20 149 -126 77 -36 -25 -66 -43 -68 -41 -5 5 32 75 40 75
4 0 18 12 31 26 12 15 36 33 52 40 28 12 23 13 -65 13 -60 0 -101 -4 -111 -12z
m-483 -593 c-3 -9 -6 -20 -6 -25 0 -5 -4 -9 -9 -9 -4 0 -6 11 -3 25 2 14 9 25
14 25 6 0 7 -7 4 -16z"/>
</g>
</svg>
