<?xml version="1.0" standalone="no"?>
<!DOCTYPE svg PUBLIC "-//W3C//DTD SVG 20010904//EN"
 "http://www.w3.org/TR/2001/REC-SVG-20010904/DTD/svg10.dtd">
<svg version="1.0" xmlns="http://www.w3.org/2000/svg"
 width="207.000000pt" height="203.000000pt" viewBox="0 0 207.000000 203.000000"
 preserveAspectRatio="xMidYMid meet">
<metadata>
Created by potrace 1.16, written by Peter Selinger 2001-2019
</metadata>
<g transform="translate(0.000000,203.000000) scale(0.100000,-0.100000)"
fill="#000000" stroke="none">
<path d="M1496 2018 c-3 -7 -7 -36 -10 -65 -3 -29 -12 -65 -20 -80 -22 -41
-296 -273 -323 -273 -20 0 -40 50 -47 115 l-7 60 39 35 c21 19 51 45 65 57 41
34 34 45 -20 37 -27 -4 -57 -11 -68 -16 -119 -55 -156 -96 -136 -146 5 -15 13
-45 17 -67 4 -22 17 -62 30 -89 34 -70 40 -112 19 -120 -12 -4 -16 -14 -12
-32 6 -35 -16 -175 -39 -249 -20 -62 -59 -109 -170 -200 -26 -22 -104 -95
-173 -163 -68 -68 -128 -119 -133 -114 -10 10 16 218 30 235 6 7 16 33 24 59
10 37 34 69 106 145 52 54 96 101 100 105 4 4 20 18 36 31 44 35 68 127 33
127 -6 0 -40 -28 -77 -62 -109 -102 -188 -168 -201 -168 -16 0 -7 183 10 204
6 8 27 17 46 20 25 5 35 12 35 26 0 39 -146 54 -182 18 -17 -17 -19 -32 -18
-141 3 -236 10 -210 -69 -261 -39 -25 -77 -56 -87 -70 -15 -24 -15 -28 0 -51
23 -35 58 -50 84 -36 38 20 45 14 39 -36 -23 -184 -31 -228 -57 -306 -37 -113
-27 -148 43 -147 22 1 32 12 106 125 60 92 90 129 166 208 103 107 218 236
235 263 8 13 21 26 29 29 11 4 13 -6 8 -57 -6 -74 -50 -279 -77 -359 -10 -31
-22 -80 -26 -110 -8 -68 -25 -95 -63 -102 -39 -8 -40 -29 -2 -44 27 -10 29
-13 22 -45 -4 -18 -14 -44 -20 -57 -11 -19 -11 -25 0 -32 8 -5 19 -9 26 -9 18
0 61 56 68 90 6 29 9 30 60 30 30 0 64 -4 77 -9 13 -5 82 -21 153 -36 72 -14
140 -33 153 -41 13 -9 33 -14 45 -12 25 4 71 68 87 123 10 33 57 149 67 164 8
13 36 -30 49 -78 31 -110 119 -225 179 -237 69 -13 97 19 110 122 5 39 2 54
-14 73 l-19 25 -22 -52 c-14 -33 -29 -52 -39 -52 -20 0 -65 67 -87 129 -8 25
-22 60 -31 77 -14 30 -14 33 10 60 36 41 97 134 97 148 0 6 9 29 20 51 11 22
20 45 20 52 0 8 6 24 14 36 18 28 42 142 61 287 20 157 50 236 86 227 12 -3
20 2 24 13 11 35 -5 51 -76 73 -25 8 -77 -19 -83 -45 -4 -12 -13 -45 -22 -73
-8 -27 -23 -122 -34 -210 -29 -244 -57 -367 -104 -460 -8 -16 -20 -43 -25 -58
-11 -28 -31 -29 -31 -1 0 8 -10 34 -21 57 -29 55 -39 89 -49 166 -8 60 -12 68
-62 116 -29 28 -62 69 -72 91 -11 21 -29 53 -41 69 -11 17 -26 41 -33 55 -7
14 -21 39 -32 55 -11 17 -25 41 -31 55 -6 14 -19 41 -29 60 -10 19 -20 53 -23
75 -9 53 25 104 159 240 57 58 104 111 104 116 0 6 8 9 18 8 48 -4 65 20 87
127 9 43 18 87 21 97 5 15 -2 17 -46 17 -32 0 -52 -5 -54 -12z m-311 -809 c41
-75 48 -88 117 -193 39 -60 47 -86 27 -86 -21 0 -175 -72 -196 -93 -28 -25
-30 -68 -4 -91 18 -16 23 -17 48 -3 15 8 67 35 116 61 48 25 91 46 95 46 13 0
52 -88 52 -117 0 -15 -4 -40 -9 -57 -5 -17 -19 -76 -32 -131 -12 -54 -31 -121
-42 -147 -22 -54 -39 -59 -112 -34 -22 7 -101 19 -175 26 -74 7 -139 16 -143
20 -9 8 5 73 38 175 31 94 95 406 95 460 0 25 6 64 14 87 8 24 21 69 31 101 9
35 21 57 28 55 7 -2 30 -38 52 -79z"/>
</g>
</svg>
