<?xml version="1.0" standalone="no"?>
<!DOCTYPE svg PUBLIC "-//W3C//DTD SVG 20010904//EN"
 "http://www.w3.org/TR/2001/REC-SVG-20010904/DTD/svg10.dtd">
<svg version="1.0" xmlns="http://www.w3.org/2000/svg"
 width="207.000000pt" height="205.000000pt" viewBox="0 0 207.000000 205.000000"
 preserveAspectRatio="xMidYMid meet">
<metadata>
Created by potrace 1.16, written by Peter Selinger 2001-2019
</metadata>
<g transform="translate(0.000000,205.000000) scale(0.100000,-0.100000)"
fill="#000000" stroke="none">
<path d="M920 2043 c0 -5 14 -53 31 -108 17 -55 34 -113 39 -130 13 -53 41
-139 53 -163 13 -27 -2 -62 -71 -166 -62 -93 -72 -117 -72 -175 0 -46 -4 -53
-66 -122 -36 -40 -109 -113 -162 -162 -53 -49 -100 -94 -104 -101 -9 -15 -138
-148 -138 -142 0 14 61 240 69 254 5 9 12 40 15 67 7 47 13 55 92 129 114 107
150 168 119 200 -17 16 -45 12 -45 -8 0 -10 -31 -42 -137 -141 -52 -48 -69
-40 -59 28 6 39 11 45 39 54 42 12 42 37 1 41 -17 2 -42 14 -55 28 -27 29 -68
31 -99 6 -20 -16 -22 -22 -12 -53 6 -19 13 -80 17 -137 7 -116 0 -135 -56
-147 -16 -4 -53 -27 -81 -51 -38 -32 -60 -44 -84 -44 -23 0 -42 -9 -63 -31
-35 -35 -36 -40 -16 -78 22 -44 66 -55 124 -32 25 10 59 22 76 27 17 6 31 18
35 31 3 12 17 31 33 43 l28 22 -7 -44 c-8 -58 -39 -171 -80 -295 -19 -56 -41
-132 -49 -168 -9 -36 -24 -88 -35 -116 -25 -63 -25 -72 3 -104 15 -18 28 -24
39 -20 23 9 74 101 100 182 12 38 30 80 40 95 10 14 18 31 18 37 0 11 125 200
140 211 3 3 16 19 27 36 12 17 39 49 60 71 21 23 51 57 66 77 31 39 48 44 66
22 7 -8 37 -18 67 -22 68 -8 84 -23 84 -80 0 -92 -47 -144 -128 -144 -25 0
-61 24 -60 40 0 3 -3 26 -7 52 -8 52 -23 64 -54 42 -48 -34 -10 -166 56 -198
39 -19 153 -22 186 -5 56 29 93 109 102 223 l7 85 -33 31 c-37 34 -81 56 -134
66 -37 7 -44 18 -22 31 36 21 166 183 186 232 21 50 69 131 77 131 7 0 44 -80
44 -95 0 -8 5 -23 10 -33 6 -9 24 -69 40 -132 17 -63 41 -155 55 -205 14 -49
31 -119 39 -155 8 -36 22 -99 31 -140 l16 -75 -28 -22 c-15 -12 -48 -38 -73
-58 -116 -93 -282 -185 -333 -185 -14 0 -27 -7 -30 -15 -4 -8 -36 -28 -72 -45
-57 -27 -65 -34 -65 -58 0 -27 35 -72 55 -72 9 0 182 87 268 135 90 50 179
108 207 135 28 29 75 60 88 60 13 0 32 -72 26 -97 -5 -19 17 -94 46 -158 5
-11 20 -60 34 -110 28 -97 37 -110 78 -120 25 -6 28 -4 42 46 15 50 15 56 -3
104 -48 123 -63 173 -107 349 -16 67 -8 90 44 123 36 24 131 96 162 125 43 39
87 66 140 85 43 15 51 22 56 49 14 73 -15 90 -88 53 -44 -22 -66 -37 -201
-139 -100 -75 -144 -103 -156 -96 -4 3 -18 50 -30 103 -12 54 -31 130 -42 170
-23 81 -21 185 5 246 7 19 17 54 21 78 3 24 13 62 21 84 26 74 33 214 18 372
-8 80 -19 152 -25 160 -6 7 -20 13 -31 13 -24 0 -142 -106 -181 -163 -15 -23
-30 -43 -32 -46 -8 -7 -37 71 -60 165 -21 87 -23 144 -4 144 17 0 68 -37 89
-63 12 -15 26 -27 31 -27 14 0 11 36 -5 49 -8 7 -17 23 -20 36 -6 25 -7 25
-126 25 -66 0 -120 -3 -120 -7z m383 -325 c17 -92 18 -172 8 -305 -7 -82 -14
-163 -15 -180 -3 -36 -16 -58 -16 -27 0 11 -23 90 -50 175 -57 172 -58 199
-12 279 27 48 61 90 73 90 4 0 9 -15 12 -32z"/>
</g>
</svg>
