<?xml version="1.0" standalone="no"?>
<!DOCTYPE svg PUBLIC "-//W3C//DTD SVG 20010904//EN"
 "http://www.w3.org/TR/2001/REC-SVG-20010904/DTD/svg10.dtd">
<svg version="1.0" xmlns="http://www.w3.org/2000/svg"
 width="206.000000pt" height="213.000000pt" viewBox="0 0 206.000000 213.000000"
 preserveAspectRatio="xMidYMid meet">
<metadata>
Created by potrace 1.16, written by Peter Selinger 2001-2019
</metadata>
<g transform="translate(0.000000,213.000000) scale(0.100000,-0.100000)"
fill="#000000" stroke="none">
<path d="M1124 2108 c3 -13 8 -58 11 -101 l6 -79 -38 -33 c-120 -106 -158
-135 -178 -135 -16 0 -17 8 -11 73 6 61 11 75 33 93 36 29 25 49 -34 60 -107
20 -124 0 -112 -136 11 -129 4 -177 -30 -197 -14 -9 -35 -24 -46 -34 -25 -22
-114 -69 -130 -69 -21 0 -56 -47 -57 -77 -1 -43 28 -83 62 -83 42 0 122 37
147 68 19 24 22 25 28 9 4 -10 5 -122 1 -250 -3 -128 -6 -242 -6 -255 0 -16
-16 -33 -58 -60 -31 -20 -85 -59 -120 -86 -49 -39 -62 -55 -62 -76 0 -34 17
-49 56 -52 32 -2 64 19 166 111 48 44 49 44 80 30 l30 -15 -40 -49 c-23 -28
-54 -66 -70 -85 -28 -34 -73 -97 -134 -187 -16 -23 -39 -50 -51 -60 -13 -10
-38 -40 -56 -66 -18 -27 -66 -81 -106 -120 -39 -40 -74 -77 -76 -84 -6 -18
-101 -92 -146 -114 -65 -32 -57 -44 27 -39 49 3 97 25 134 61 17 17 44 37 59
45 30 16 157 135 157 148 0 14 64 86 77 86 7 0 13 -4 13 -9 0 -5 11 -16 25
-25 23 -15 27 -14 92 21 37 20 70 40 73 43 6 7 152 96 202 123 30 15 34 16 45
1 16 -22 27 -150 18 -226 -4 -34 -16 -82 -27 -105 -16 -35 -30 -47 -81 -71
-34 -16 -79 -35 -100 -42 -21 -6 -41 -18 -44 -26 -3 -8 -11 -14 -18 -14 -8 0
-17 -5 -20 -11 -5 -7 36 -10 138 -7 142 3 147 4 174 29 15 15 47 37 71 48 24
12 67 37 95 54 29 18 63 38 77 45 14 6 32 16 40 20 8 5 29 16 45 25 206 108
288 176 244 202 -19 12 -74 -5 -133 -40 -31 -18 -87 -46 -124 -60 -37 -15 -92
-41 -122 -58 -64 -35 -148 -77 -155 -77 -8 0 7 64 19 79 7 9 11 71 11 170 0
86 3 161 7 167 4 6 26 24 50 40 69 47 142 105 151 121 9 15 -8 43 -26 43 -6 0
-50 -20 -98 -45 -115 -59 -134 -58 -87 7 16 23 19 35 11 47 -15 23 -36 25 -97
7 -66 -19 -71 -31 -55 -122 11 -65 11 -67 -12 -85 -13 -10 -62 -38 -109 -62
-47 -24 -111 -58 -142 -76 -77 -44 -76 -25 5 76 34 44 78 100 97 127 19 26 49
64 65 86 17 21 50 66 74 99 50 70 65 84 51 45 -13 -34 0 -50 29 -35 26 14 73
106 96 187 10 32 24 66 31 75 8 8 14 21 14 27 0 6 14 27 30 45 24 28 30 44 30
80 0 36 -4 47 -19 52 -27 8 -30 28 -31 240 0 105 -2 255 -5 335 -3 80 -5 160
-5 178 l0 32 -65 0 c-62 0 -65 -1 -61 -22z m37 -453 c4 -99 2 -109 -16 -119
-11 -6 -40 -28 -64 -48 -24 -21 -48 -38 -52 -38 -5 0 -37 -13 -71 -30 -34 -16
-65 -30 -70 -30 -16 0 -7 73 19 162 25 84 31 93 68 117 22 14 51 36 65 49 14
13 43 39 65 58 l39 36 7 -25 c4 -13 8 -72 10 -132z m9 -217 c-1 -13 -6 -32
-13 -44 -16 -27 -267 -254 -282 -254 -9 0 5 173 14 183 5 4 14 1 21 -8 7 -8
19 -15 26 -15 27 0 121 50 159 84 21 20 43 36 47 36 4 0 8 9 8 20 0 11 5 20
10 20 6 0 10 -10 10 -22z m-249 -531 c-10 -9 -11 -8 -5 6 3 10 9 15 12 12 3
-3 0 -11 -7 -18z"/>
<path d="M1242 1027 c-30 -32 -28 -49 11 -83 35 -32 84 -51 162 -62 66 -10 85
-5 85 21 0 34 -10 43 -91 81 -42 19 -79 42 -82 50 -10 24 -60 20 -85 -7z"/>
</g>
</svg>
