<?xml version="1.0" standalone="no"?>
<!DOCTYPE svg PUBLIC "-//W3C//DTD SVG 20010904//EN"
 "http://www.w3.org/TR/2001/REC-SVG-20010904/DTD/svg10.dtd">
<svg version="1.0" xmlns="http://www.w3.org/2000/svg"
 width="208.000000pt" height="214.000000pt" viewBox="0 0 208.000000 214.000000"
 preserveAspectRatio="xMidYMid meet">
<metadata>
Created by potrace 1.16, written by Peter Selinger 2001-2019
</metadata>
<g transform="translate(0.000000,214.000000) scale(0.100000,-0.100000)"
fill="#000000" stroke="none">
<path d="M1463 2130 c-28 -11 -63 -119 -63 -194 0 -51 -6 -94 -34 -261 -14
-82 -18 -93 -52 -124 -21 -20 -59 -47 -85 -61 -54 -28 -175 -141 -184 -171 -8
-25 17 -55 52 -64 21 -5 33 1 59 26 19 18 34 38 34 44 0 6 18 24 41 41 22 16
59 44 81 62 22 18 42 31 44 30 1 -2 6 -46 9 -98 3 -52 8 -106 10 -120 3 -14 2
-30 -3 -36 -9 -13 -101 -74 -112 -74 -5 0 -22 -12 -39 -26 -18 -14 -64 -37
-103 -51 -159 -55 -201 -112 -128 -171 28 -22 29 -22 47 -4 10 10 63 42 118
71 55 29 128 73 163 97 35 24 68 42 73 39 5 -4 9 -37 9 -75 0 -63 -2 -71 -25
-87 -37 -26 -98 -71 -111 -82 -6 -5 -21 -12 -35 -16 -58 -18 -146 -65 -173
-93 -34 -37 -30 -77 10 -92 21 -8 33 -5 67 18 23 16 68 40 100 55 31 15 57 31
57 37 0 12 87 56 95 49 16 -17 -30 -390 -51 -408 -5 -4 -40 -20 -79 -36 -38
-16 -81 -36 -95 -45 -165 -108 -174 -119 -144 -165 15 -23 22 -26 52 -20 19 3
55 22 81 40 68 51 149 91 211 105 52 12 127 47 160 76 9 7 45 21 80 30 36 9
83 26 105 37 44 22 161 29 243 13 l42 -9 0 69 c0 78 -5 89 -42 103 -28 10 -39
4 -51 -32 -5 -14 -18 -17 -68 -17 -39 0 -85 -9 -128 -24 -36 -13 -90 -26 -120
-30 -30 -4 -67 -14 -82 -22 -46 -23 -55 -19 -51 24 2 20 7 46 12 57 11 24 26
130 35 240 9 108 21 142 56 160 16 9 29 22 29 29 0 8 19 29 43 47 81 63 136
144 98 144 -13 0 -24 -7 -143 -95 -53 -39 -67 -46 -72 -34 -8 20 -8 70 0 128
6 39 12 49 33 57 33 13 180 166 187 196 6 23 -1 43 -16 43 -4 0 -44 -31 -89
-70 -93 -80 -129 -105 -138 -96 -14 14 -2 100 17 121 11 12 20 31 20 43 0 25
-30 29 -90 12 -19 -5 -38 -6 -42 -2 -10 10 62 70 127 106 75 42 145 96 145
112 0 8 7 14 16 14 9 0 36 20 60 45 38 38 43 48 34 65 -6 11 -14 20 -17 20
-10 0 -111 -59 -131 -76 -49 -43 -83 -65 -131 -83 l-54 -20 7 45 c3 24 13 58
22 75 9 18 22 74 30 126 8 53 25 118 39 147 14 29 25 63 25 74 0 19 -6 22 -37
21 -21 0 -48 -4 -60 -9z m37 -1720 c0 -5 -4 -10 -10 -10 -5 0 -10 5 -10 10 0
6 5 10 10 10 6 0 10 -4 10 -10z"/>
<path d="M969 1855 c-19 -14 -46 -30 -60 -35 -32 -13 -77 -94 -107 -190 -12
-36 -28 -87 -37 -115 -9 -27 -29 -93 -44 -145 -16 -52 -40 -126 -55 -165 -15
-38 -31 -81 -34 -95 -14 -51 -47 -90 -102 -119 -77 -41 -101 -69 -156 -181
-25 -51 -32 -71 -39 -107 -4 -19 -26 -53 -51 -80 -29 -31 -43 -41 -40 -28 19
72 46 316 40 366 -5 49 1 102 22 179 2 8 29 31 59 50 30 19 55 41 55 48 0 7
11 17 25 22 14 5 25 13 25 18 0 5 16 16 35 25 19 9 35 21 35 27 0 6 25 36 55
67 34 36 55 66 55 80 0 13 -4 23 -9 23 -8 0 -60 -37 -71 -51 -3 -3 -34 -26
-70 -50 -36 -24 -68 -47 -71 -51 -11 -16 -133 -98 -146 -98 -9 0 -13 16 -13
54 0 44 4 56 22 68 15 10 19 20 15 33 -6 15 -16 17 -69 12 -91 -8 -94 -14 -74
-138 20 -119 23 -113 -95 -196 l-69 -48 0 -82 c0 -87 10 -102 42 -65 45 51
119 122 128 122 10 0 15 -64 11 -145 -3 -64 -21 -175 -41 -245 -28 -99 -49
-202 -56 -267 -7 -66 8 -93 51 -93 21 0 65 44 65 65 0 4 18 32 40 64 22 31 40
62 40 69 0 7 4 12 8 12 4 0 47 51 95 114 49 63 106 131 128 150 21 20 39 39
39 42 0 3 18 29 40 56 22 28 40 54 40 58 0 4 7 11 15 14 10 4 19 -3 25 -18 5
-14 15 -28 23 -33 27 -16 40 -57 45 -144 8 -152 -67 -443 -118 -456 -17 -4
-20 -12 -18 -37 2 -26 8 -32 31 -34 23 -3 38 6 77 45 56 56 77 116 109 304 32
187 11 312 -68 407 -20 24 -40 49 -45 56 -5 8 7 53 32 122 23 60 52 147 66
194 13 47 31 103 39 125 8 22 30 85 47 140 31 95 40 111 138 245 10 14 11 24
2 39 -14 27 -20 26 -61 -4z m-469 -984 c-6 -12 -17 -21 -25 -21 -21 0 -19 10
7 37 25 26 36 16 18 -16z"/>
</g>
</svg>
