<?xml version="1.0" standalone="no"?>
<!DOCTYPE svg PUBLIC "-//W3C//DTD SVG 20010904//EN"
 "http://www.w3.org/TR/2001/REC-SVG-20010904/DTD/svg10.dtd">
<svg version="1.0" xmlns="http://www.w3.org/2000/svg"
 width="211.000000pt" height="212.000000pt" viewBox="0 0 211.000000 212.000000"
 preserveAspectRatio="xMidYMid meet">
<metadata>
Created by potrace 1.16, written by Peter Selinger 2001-2019
</metadata>
<g transform="translate(0.000000,212.000000) scale(0.100000,-0.100000)"
fill="#000000" stroke="none">
<path d="M1593 2068 c-13 -6 -23 -18 -24 -27 -1 -9 -2 -23 -3 -31 -2 -8 -3
-29 -4 -46 -2 -26 -9 -34 -42 -49 -23 -10 -44 -23 -48 -29 -6 -10 -49 -29 -96
-43 -19 -6 -19 -5 0 26 36 60 -20 82 -125 49 -33 -10 -33 -11 -26 -57 16 -108
20 -97 -41 -133 -31 -18 -70 -46 -88 -63 -18 -16 -56 -48 -85 -70 -92 -71 -75
-125 39 -125 61 0 90 18 90 55 0 18 73 95 89 95 5 0 9 -15 10 -32 0 -18 4 -58
9 -90 6 -40 4 -70 -6 -105 -15 -53 -73 -178 -107 -233 -12 -19 -29 -54 -38
-78 -9 -23 -27 -58 -40 -76 -93 -139 -119 -175 -149 -206 -45 -48 -118 -141
-118 -151 0 -4 -46 -48 -102 -97 -57 -49 -125 -111 -153 -137 -27 -25 -62 -53
-78 -61 -15 -8 -27 -18 -27 -23 0 -5 -15 -18 -32 -29 -18 -12 -51 -34 -73 -51
-73 -55 -245 -135 -287 -133 -9 0 -22 -6 -28 -14 -10 -11 -9 -15 4 -20 27 -10
122 4 169 25 23 11 65 27 92 37 72 26 137 62 163 90 13 13 27 24 32 24 14 0
93 59 103 76 5 9 17 18 27 22 42 16 275 237 310 294 9 16 32 45 51 66 86 94
146 179 202 282 14 25 39 70 56 100 17 30 41 74 53 97 18 35 28 44 57 48 20 3
59 12 86 20 51 15 114 27 150 30 28 2 108 27 120 37 5 4 20 8 33 8 56 0 182
73 182 106 0 19 -39 24 -81 8 -22 -7 -55 -15 -72 -17 -32 -4 -41 -7 -107 -34
-21 -9 -86 -17 -162 -20 l-127 -6 9 33 c5 18 18 43 29 54 10 12 24 38 31 60 7
21 34 61 61 88 27 28 49 56 49 64 0 19 -34 35 -67 29 -15 -2 -48 -7 -72 -10
-45 -6 -45 -6 -26 15 10 11 23 20 29 20 6 0 22 10 36 23 26 24 116 77 131 77
5 0 9 -26 9 -57 0 -85 18 -235 28 -245 17 -17 42 34 42 84 0 26 5 50 10 53 6
3 10 28 10 54 0 27 7 68 15 91 8 23 15 53 15 66 0 13 11 34 25 46 41 36 28 76
-22 69 -19 -2 -23 2 -23 28 0 30 -22 62 -43 60 -7 0 -22 -5 -34 -11z"/>
<path d="M189 1632 c-6 -15 -6 -38 0 -60 5 -21 12 -75 16 -122 6 -75 4 -88
-12 -101 -19 -17 -120 -71 -165 -88 -27 -10 -28 -14 -28 -78 l0 -66 23 20 c12
12 54 38 94 57 40 20 75 41 78 46 30 48 29 -77 -1 -230 -44 -218 -130 -519
-173 -599 -6 -11 -11 -35 -11 -53 0 -27 6 -37 31 -52 l31 -18 42 30 c22 17 81
51 130 77 49 25 107 61 129 80 22 19 46 35 52 35 6 0 29 15 51 33 21 18 74 50
117 72 43 21 82 44 88 51 6 7 17 10 25 7 33 -12 62 6 69 44 4 21 14 46 22 55
22 24 3 45 -45 50 -50 7 -81 -7 -115 -47 -15 -19 -57 -48 -93 -65 -35 -17 -64
-35 -64 -40 0 -4 -19 -18 -42 -30 -74 -38 -89 -47 -116 -72 -32 -30 -149 -94
-156 -87 -3 3 7 46 23 95 48 150 111 440 126 587 18 171 25 182 141 238 46 22
89 48 96 58 7 9 39 32 71 50 37 21 57 39 57 51 0 31 -19 33 -59 6 -20 -14 -40
-26 -44 -26 -3 0 -30 -11 -59 -24 -29 -13 -64 -27 -77 -31 -12 -4 -39 -18 -58
-31 -55 -37 -60 -33 -68 57 -6 70 -5 83 9 91 20 11 20 22 0 43 -12 11 -32 15
-71 14 -48 -2 -56 -6 -64 -27z"/>
<path d="M1482 993 c-13 -3 -26 -11 -29 -19 -3 -8 -13 -14 -22 -14 -9 0 -23
-6 -29 -12 -8 -8 -45 -14 -96 -15 -59 -1 -91 -6 -109 -18 -36 -23 -40 -52 -11
-82 21 -21 30 -23 72 -17 87 13 166 43 210 81 37 31 72 79 72 98 0 5 -22 5
-58 -2z"/>
<path d="M1208 706 c-151 -41 -271 -265 -207 -387 4 -8 26 -28 48 -44 40 -27
42 -27 103 -15 83 16 181 65 223 111 45 50 81 122 97 195 17 75 13 102 -17
116 -36 16 -72 -11 -80 -59 -16 -100 -98 -220 -172 -253 -77 -34 -104 -22
-108 49 l-2 40 66 6 c83 9 113 26 109 63 -3 24 -8 27 -45 30 -41 3 -41 4 -25
23 9 11 43 36 75 55 44 28 57 41 57 60 0 21 -4 24 -37 23 -21 0 -59 -6 -85
-13z"/>
</g>
</svg>
