<?xml version="1.0" standalone="no"?>
<!DOCTYPE svg PUBLIC "-//W3C//DTD SVG 20010904//EN"
 "http://www.w3.org/TR/2001/REC-SVG-20010904/DTD/svg10.dtd">
<svg version="1.0" xmlns="http://www.w3.org/2000/svg"
 width="206.000000pt" height="221.000000pt" viewBox="0 0 206.000000 221.000000"
 preserveAspectRatio="xMidYMid meet">
<metadata>
Created by potrace 1.16, written by Peter Selinger 2001-2019
</metadata>
<g transform="translate(0.000000,221.000000) scale(0.100000,-0.100000)"
fill="#000000" stroke="none">
<path d="M1551 2080 c-35 -33 -79 -69 -99 -79 -21 -11 -48 -31 -62 -46 -14
-15 -49 -43 -78 -62 -30 -19 -63 -44 -75 -56 -25 -25 -148 -107 -161 -107 -5
0 -17 -6 -25 -14 -24 -21 -177 -96 -198 -96 -10 -1 -29 -7 -42 -14 -19 -10
-29 -11 -43 -3 -14 9 -22 6 -44 -13 l-26 -25 7 -120 c4 -66 8 -194 9 -285 2
-193 13 -250 51 -250 18 0 25 -5 25 -19 0 -30 39 -52 78 -45 34 7 34 7 18 -17
-17 -27 -108 -109 -182 -165 -45 -34 -94 -82 -225 -220 -25 -27 -79 -80 -120
-119 -80 -75 -258 -265 -284 -302 -16 -23 -16 -23 24 -23 34 0 49 8 93 46 29
25 67 58 84 72 17 15 36 37 43 50 6 12 18 22 25 22 7 0 31 19 53 42 22 24 51
52 64 62 13 10 87 80 164 156 77 75 165 155 195 177 51 37 369 369 380 397 3
7 22 33 43 58 20 25 37 49 37 54 0 5 14 25 30 43 17 18 33 46 36 61 3 15 29
53 58 86 29 32 62 77 74 99 44 81 -6 132 -84 86 l-34 -20 6 27 c4 15 15 36 24
47 22 25 26 42 15 79 -8 29 6 46 123 146 21 18 14 50 -14 60 -27 11 -81 -9
-90 -34 -3 -7 -32 -33 -65 -56 -32 -24 -59 -46 -59 -50 0 -11 -103 -78 -125
-82 -11 -1 -28 -19 -37 -38 -10 -19 -56 -71 -103 -114 -95 -88 -104 -111 -56
-145 16 -12 32 -21 35 -21 14 0 86 54 86 64 0 13 64 76 77 76 5 0 17 -16 28
-36 21 -39 15 -60 -21 -79 -11 -5 -38 -24 -59 -41 -22 -17 -58 -41 -80 -54
-56 -33 -84 -67 -77 -94 6 -24 21 -41 41 -47 14 -5 -60 -66 -119 -100 -16 -9
-40 -23 -54 -32 -33 -22 -37 -21 -31 6 3 12 7 121 9 242 2 121 6 227 8 235 3
8 8 28 13 43 7 25 11 28 39 24 44 -6 102 22 249 121 71 48 143 96 161 107 52
33 96 66 188 142 48 40 89 69 91 65 3 -4 5 -45 6 -92 1 -47 4 -110 7 -140 6
-65 12 -149 19 -280 3 -52 8 -104 12 -114 5 -19 6 -19 24 3 37 45 43 97 41
341 -2 283 -10 441 -24 458 -18 21 -33 14 -97 -48z m-101 -134 c0 -2 -7 -9
-15 -16 -13 -11 -14 -10 -9 4 5 14 24 23 24 12z"/>
<path d="M992 1998 c-38 -10 -66 -48 -57 -77 7 -23 51 -61 71 -61 7 0 19 6 26
13 7 7 25 18 41 24 21 10 27 19 27 45 0 18 -4 38 -8 44 -10 16 -62 22 -100 12z"/>
<path d="M1520 1081 c-8 -5 -46 -19 -85 -31 -38 -12 -79 -26 -90 -31 -11 -4
-37 -15 -58 -23 -34 -14 -37 -18 -31 -43 12 -51 23 -63 56 -63 18 0 41 8 52
18 12 10 56 34 99 52 80 35 135 86 123 115 -6 16 -42 19 -66 6z"/>
<path d="M1554 845 c-23 -7 -61 -27 -84 -44 -24 -17 -47 -31 -52 -31 -6 0 -24
-10 -41 -22 -56 -41 -149 -76 -119 -46 7 7 12 25 12 40 0 35 -17 36 -91 6 -79
-32 -82 -35 -75 -89 l6 -47 -52 -18 c-88 -29 -133 -58 -136 -89 -4 -31 31 -75
60 -75 24 0 70 24 87 44 18 21 48 20 55 -1 9 -28 9 -352 1 -406 -4 -27 -14
-51 -24 -57 -11 -6 24 -9 107 -10 67 0 122 4 122 9 0 5 15 16 33 24 17 8 48
22 67 31 42 20 73 38 92 53 7 7 50 26 93 43 103 40 117 47 195 92 45 25 87 40
135 48 82 13 95 22 94 64 -2 55 -13 79 -42 89 -23 7 -33 5 -50 -10 -29 -26
-96 -64 -121 -69 -11 -2 -38 -16 -60 -31 -35 -23 -120 -58 -228 -93 -16 -5
-41 -18 -57 -29 -16 -12 -36 -21 -44 -21 -9 0 -19 -5 -22 -10 -3 -6 -25 -19
-48 -29 -23 -11 -58 -30 -77 -43 -71 -48 -67 -56 -63 140 6 260 21 318 87 338
21 7 71 40 154 102 24 17 48 32 54 32 5 0 30 16 54 37 35 28 44 42 42 61 -4
31 -12 33 -64 17z"/>
</g>
</svg>
