<?xml version="1.0" standalone="no"?>
<!DOCTYPE svg PUBLIC "-//W3C//DTD SVG 20010904//EN"
 "http://www.w3.org/TR/2001/REC-SVG-20010904/DTD/svg10.dtd">
<svg version="1.0" xmlns="http://www.w3.org/2000/svg"
 width="208.000000pt" height="213.000000pt" viewBox="0 0 208.000000 213.000000"
 preserveAspectRatio="xMidYMid meet">
<metadata>
Created by potrace 1.16, written by Peter Selinger 2001-2019
</metadata>
<g transform="translate(0.000000,213.000000) scale(0.100000,-0.100000)"
fill="#000000" stroke="none">
<path d="M983 2107 c-68 -46 -105 -67 -116 -67 -7 0 -32 -14 -56 -30 -24 -17
-49 -30 -55 -30 -6 0 -36 -17 -66 -38 -50 -35 -55 -42 -55 -77 0 -36 2 -38 40
-50 43 -12 44 -12 89 33 13 12 28 22 35 22 13 0 15 -46 2 -54 -5 -3 -14 -19
-19 -35 -9 -26 -7 -33 24 -68 52 -59 47 -79 -40 -152 -41 -34 -92 -82 -114
-106 -23 -25 -45 -45 -50 -45 -5 0 -10 58 -11 129 -1 104 2 131 14 141 18 15
20 54 3 67 -7 6 -33 9 -57 8 -37 -1 -46 -5 -53 -25 -6 -15 -5 -26 3 -30 8 -6
8 -9 -1 -15 -7 -4 -16 -2 -21 6 -18 30 -20 -3 -4 -79 9 -44 22 -131 29 -192
l12 -112 -53 -46 c-29 -25 -53 -54 -53 -63 0 -27 28 -49 63 -49 38 0 127 40
171 76 17 14 49 39 71 55 22 17 66 55 98 86 32 31 60 54 62 51 3 -3 8 -32 11
-65 6 -56 5 -62 -17 -76 -13 -9 -46 -21 -72 -27 -26 -5 -65 -22 -87 -36 -60
-40 -63 -71 -8 -92 21 -7 37 -8 49 -1 10 5 46 18 79 28 74 23 73 24 74 -92 l1
-79 -60 -31 c-33 -18 -74 -39 -92 -47 -61 -29 -202 -111 -209 -121 -4 -6 -30
-22 -59 -35 -29 -12 -56 -28 -60 -33 -3 -6 -15 -11 -25 -11 -34 0 -64 -21
-102 -71 -49 -63 -50 -94 -4 -109 46 -15 79 -5 100 31 9 16 21 29 26 29 12 0
142 81 155 97 12 14 140 85 215 119 30 13 67 31 83 40 26 14 27 14 27 -6 0
-30 25 -35 57 -10 l28 21 6 -25 c13 -48 57 -76 119 -76 35 0 42 4 51 27 8 21
7 28 -6 35 -8 5 -22 22 -30 37 -13 26 -18 28 -65 26 -45 -3 -50 -1 -50 19 0
15 15 30 51 51 28 17 63 39 77 51 15 11 58 33 96 48 38 15 83 38 100 51 18 13
52 34 77 45 24 12 62 32 84 45 22 13 58 34 80 46 22 12 62 38 90 59 27 20 66
45 85 55 50 25 80 55 80 81 0 43 -57 46 -109 5 -20 -15 -47 -32 -61 -36 -14
-4 -36 -16 -49 -26 -13 -11 -29 -19 -36 -19 -7 0 -18 -7 -26 -16 -7 -9 -56
-38 -108 -65 -53 -28 -112 -58 -131 -69 -59 -31 -188 -90 -199 -90 -5 0 -14
-7 -18 -15 -12 -21 -71 -37 -80 -22 -3 6 -9 45 -11 87 l-4 77 48 39 c126 101
145 131 102 158 -19 12 -73 -10 -115 -47 -44 -39 -50 -7 -28 156 2 16 28 54
64 93 34 37 61 73 61 81 0 28 -29 24 -78 -11 -52 -38 -72 -44 -72 -23 0 15 60
64 95 77 32 12 41 34 26 67 -11 23 -15 25 -53 19 -23 -4 -48 -12 -55 -18 -10
-8 -13 -5 -13 15 0 40 -38 76 -90 86 -25 5 -37 9 -27 10 22 1 93 41 158 88 26
18 50 33 53 33 4 0 19 9 34 19 15 11 36 22 48 25 20 6 21 1 32 -201 19 -341
22 -471 11 -500 -7 -20 -6 -30 4 -40 18 -18 39 -9 61 27 9 17 21 30 26 30 11
0 13 269 4 533 l-7 187 -136 -1 c-122 -1 -139 -3 -168 -22z m277 -986 c0 -6
-4 -13 -10 -16 -5 -3 -10 1 -10 9 0 9 5 16 10 16 6 0 10 -4 10 -9z m-226 -116
c-4 -8 -10 -15 -15 -15 -4 0 -6 7 -3 15 4 8 10 15 15 15 4 0 6 -7 3 -15z
m-223 -148 c-8 -8 -14 -8 -22 0 -7 7 -5 16 8 28 17 18 18 18 21 1 2 -10 -1
-23 -7 -29z"/>
<path d="M1347 1022 c-20 -22 -22 -53 -5 -70 7 -7 11 -36 10 -72 -2 -55 -1
-60 18 -60 12 0 25 10 32 25 6 14 15 25 19 25 15 0 41 109 34 140 -6 28 -10
30 -49 30 -29 0 -48 -6 -59 -18z"/>
<path d="M830 718 c-36 -5 -69 -14 -75 -19 -5 -5 -10 -33 -11 -62 0 -29 -8
-66 -17 -83 -24 -46 -26 -88 -4 -92 25 -5 51 21 75 72 11 23 45 68 76 101 57
61 71 96 39 94 -10 -1 -47 -6 -83 -11z"/>
<path d="M1320 697 c-30 -18 -77 -49 -105 -69 -48 -34 -108 -68 -120 -68 -3 0
-5 8 -5 19 0 52 -105 68 -130 20 -8 -14 -6 -28 10 -58 25 -51 25 -58 -2 -66
-13 -4 -34 -17 -48 -29 -14 -12 -65 -46 -115 -76 -49 -29 -97 -59 -105 -66 -8
-6 -46 -29 -84 -49 -97 -52 -156 -109 -156 -151 0 -29 4 -32 35 -38 42 -8 72
-1 100 24 11 10 52 39 90 65 39 27 80 58 93 70 13 13 37 30 55 38 18 9 46 27
62 42 68 59 143 55 130 -7 -7 -29 8 -58 29 -58 17 0 54 90 61 149 6 57 29 101
52 101 18 0 178 121 226 172 20 22 37 46 37 54 0 25 -52 16 -110 -19z"/>
<path d="M1884 390 c-12 -12 -154 -49 -204 -54 -19 -2 -69 -13 -110 -25 -120
-36 -170 -48 -245 -61 -181 -30 -213 -37 -250 -57 -22 -11 -60 -27 -85 -34
-25 -7 -49 -16 -55 -19 -5 -4 -33 -14 -60 -23 -75 -24 -180 -75 -200 -97 -18
-20 -17 -20 103 -20 108 0 128 3 178 25 31 14 62 25 68 25 6 0 37 13 69 30 32
16 83 34 115 39 31 6 86 15 122 21 36 7 74 13 86 14 11 2 26 6 31 9 25 15 279
77 360 88 48 6 93 13 99 14 17 5 25 77 11 107 -13 30 -18 33 -33 18z"/>
</g>
</svg>
