<?xml version="1.0" standalone="no"?>
<!DOCTYPE svg PUBLIC "-//W3C//DTD SVG 20010904//EN"
 "http://www.w3.org/TR/2001/REC-SVG-20010904/DTD/svg10.dtd">
<svg version="1.0" xmlns="http://www.w3.org/2000/svg"
 width="207.000000pt" height="211.000000pt" viewBox="0 0 207.000000 211.000000"
 preserveAspectRatio="xMidYMid meet">
<metadata>
Created by potrace 1.16, written by Peter Selinger 2001-2019
</metadata>
<g transform="translate(0.000000,211.000000) scale(0.100000,-0.100000)"
fill="#000000" stroke="none">
<path d="M1200 2064 c-36 -20 -67 -40 -68 -46 -4 -9 -33 -42 -139 -160 -29
-32 -53 -62 -53 -67 0 -26 -73 -116 -169 -208 -58 -57 -110 -108 -116 -114 -5
-6 -34 -35 -62 -63 -29 -29 -53 -57 -53 -62 0 -5 -18 -36 -40 -69 -45 -67 -47
-76 -22 -98 15 -14 22 -13 75 8 32 14 67 35 78 49 24 31 72 47 124 42 22 -2
48 -4 58 -5 25 -1 12 -22 -67 -106 -36 -38 -98 -106 -138 -150 -40 -44 -101
-105 -136 -135 -36 -30 -76 -66 -91 -80 -47 -45 -145 -119 -173 -129 -34 -13
-37 -41 -5 -41 47 1 99 19 154 56 32 21 60 41 63 44 3 4 23 17 45 28 65 33
377 356 475 491 11 15 37 25 95 36 146 28 190 37 230 51 22 7 67 15 100 19 69
7 137 25 250 67 44 17 109 37 144 44 35 8 72 19 82 24 10 6 30 10 44 10 15 0
39 6 53 14 15 8 35 17 45 20 24 8 17 28 -15 43 -20 10 -36 10 -82 -2 -31 -8
-71 -15 -87 -15 -17 0 -64 -13 -105 -30 -41 -16 -121 -38 -177 -49 -143 -27
-147 -28 -192 -41 -22 -7 -65 -16 -95 -20 -30 -4 -79 -11 -109 -15 l-53 -8 37
54 c21 30 46 63 56 75 11 11 19 26 19 33 0 6 9 24 19 39 11 15 31 71 45 124
40 151 35 168 -39 142 -22 -8 -43 -14 -47 -14 -34 -1 47 87 111 119 40 21 71
55 71 78 0 19 -37 53 -57 53 -10 0 -47 -16 -83 -36z m-101 -430 c-23 -44 -49
-88 -59 -99 -10 -11 -23 -30 -29 -42 -6 -12 -30 -43 -54 -69 l-42 -46 -68 5
c-37 2 -70 7 -73 10 -13 13 151 210 221 265 34 27 138 71 143 61 2 -4 -16 -42
-39 -85z"/>
<path d="M1364 1330 c-12 -4 -34 -24 -50 -43 -16 -18 -44 -42 -61 -53 -18 -10
-33 -22 -33 -26 0 -4 -19 -20 -42 -35 -22 -16 -51 -35 -62 -43 -12 -8 -37 -24
-55 -35 -18 -11 -62 -39 -97 -62 -36 -24 -68 -43 -72 -43 -4 0 -40 -27 -80
-60 -67 -55 -78 -60 -121 -60 -74 0 -107 -54 -61 -100 10 -10 29 -38 42 -62
21 -39 23 -57 23 -176 0 -142 4 -152 52 -152 12 0 38 -14 57 -31 28 -24 42
-29 63 -25 16 3 34 2 42 -3 10 -6 4 -12 -23 -22 -53 -19 -55 -45 -9 -113 21
-32 48 -59 60 -63 29 -7 68 18 93 60 10 18 24 37 29 44 6 7 11 21 11 31 0 10
11 29 25 42 25 24 33 50 15 50 -23 0 -8 29 20 39 17 5 30 15 30 20 0 6 9 11
20 11 13 0 18 -5 14 -15 -9 -21 14 -45 43 -45 51 0 91 27 113 75 35 76 42 153
35 396 -3 136 -2 230 4 233 23 15 39 237 18 264 -11 14 -14 14 -43 2z m-80
-485 c4 -174 3 -282 -3 -294 -9 -17 -122 -61 -156 -61 -19 0 -19 6 1 88 12 47
25 75 45 95 16 15 29 32 29 36 0 17 -27 30 -48 24 -21 -5 -22 -2 -22 60 0 42
5 69 13 74 25 17 47 51 42 65 -4 9 -18 18 -33 21 -15 3 -35 12 -46 20 -18 13
-17 15 20 45 80 65 129 100 140 101 7 1 13 -85 18 -274z m-304 40 c0 -8 -9
-19 -20 -25 -15 -8 -20 -8 -20 3 0 14 19 37 32 37 4 0 8 -7 8 -15z m-140 -94
c-45 -39 -60 -43 -60 -15 0 14 70 53 95 54 6 0 -10 -18 -35 -39z m172 -118
c-4 -13 -117 -73 -137 -73 -7 0 -20 -9 -30 -20 -29 -32 -45 -25 -45 19 l0 39
49 7 c54 7 67 17 73 55 2 14 17 34 38 48 l35 23 11 -43 c6 -24 9 -48 6 -55z
m-10 -166 c-3 -36 -8 -46 -25 -51 -33 -9 -85 -7 -91 3 -6 10 102 103 113 97 3
-2 5 -24 3 -49z m262 -61 c-6 -15 -34 -30 -41 -22 -7 7 20 35 34 36 7 0 10 -6
7 -14z m-295 -242 c-14 -40 -18 -44 -34 -37 -22 8 -18 28 8 46 32 23 38 21 26
-9z"/>
</g>
</svg>
