<?xml version="1.0" standalone="no"?>
<!DOCTYPE svg PUBLIC "-//W3C//DTD SVG 20010904//EN"
 "http://www.w3.org/TR/2001/REC-SVG-20010904/DTD/svg10.dtd">
<svg version="1.0" xmlns="http://www.w3.org/2000/svg"
 width="209.000000pt" height="207.000000pt" viewBox="0 0 209.000000 207.000000"
 preserveAspectRatio="xMidYMid meet">
<metadata>
Created by potrace 1.16, written by Peter Selinger 2001-2019
</metadata>
<g transform="translate(0.000000,207.000000) scale(0.100000,-0.100000)"
fill="#000000" stroke="none">
<path d="M835 2047 c-37 -29 -94 -52 -177 -71 -80 -19 -194 -70 -202 -93 -8
-19 39 -73 62 -73 8 0 38 11 66 24 28 14 71 31 96 40 105 34 152 55 187 79 20
15 39 25 41 23 13 -14 -132 -237 -208 -322 -20 -22 -41 -47 -46 -55 -11 -17
-57 -39 -84 -39 -24 0 -40 -29 -40 -72 0 -40 -28 -89 -69 -119 -53 -39 -39
-65 24 -43 22 7 43 10 47 6 4 -4 9 -101 9 -215 2 -195 3 -207 21 -207 10 0 21
8 24 18 3 9 15 37 26 62 17 37 21 70 24 195 2 83 8 173 14 200 5 28 11 61 12
74 4 30 28 41 28 13 0 -25 45 -62 74 -62 24 0 177 119 220 171 16 19 58 60 95
92 36 32 81 71 98 88 40 36 68 39 57 7 -4 -12 -10 -83 -14 -158 -10 -166 -16
-235 -29 -325 -6 -38 -10 -96 -11 -127 0 -31 -4 -59 -9 -62 -4 -3 -11 -25 -15
-48 -14 -84 -62 -139 -201 -232 -22 -14 -43 -26 -47 -26 -15 0 -8 31 17 80 14
27 25 59 25 72 0 12 12 39 26 59 14 21 27 53 27 71 l2 33 -45 -3 c-25 -1 -57
-11 -72 -22 -15 -11 -32 -20 -37 -20 -14 0 27 65 64 104 50 52 92 133 76 149
-6 6 -25 -4 -53 -31 -24 -23 -66 -56 -93 -73 -28 -17 -66 -48 -85 -69 -88 -95
-110 -122 -110 -133 0 -8 13 -25 28 -40 23 -22 37 -27 80 -27 45 0 52 -3 52
-19 0 -28 -57 -194 -91 -267 -16 -33 -29 -66 -29 -72 0 -38 -139 -327 -189
-392 -15 -19 -34 -46 -44 -60 -9 -14 -29 -43 -45 -65 -47 -67 -47 -65 -3 -65
35 0 43 4 56 29 8 16 21 35 28 43 31 31 127 164 148 204 34 66 37 67 120 44
40 -11 77 -24 81 -28 10 -10 -16 -76 -46 -117 -12 -16 -33 -51 -45 -78 -25
-53 -51 -72 -86 -63 -20 5 -35 -8 -35 -30 0 -2 33 -4 73 -4 l72 0 48 60 c26
32 47 62 47 66 0 3 13 23 29 43 15 20 31 48 35 63 7 30 8 30 206 13 41 -4 86
-8 100 -9 14 -1 30 -5 35 -8 6 -3 30 -9 55 -12 74 -11 134 -28 161 -47 14 -10
37 -21 52 -24 15 -4 40 -21 55 -39 37 -41 65 -56 102 -56 26 0 36 8 66 56 29
46 33 58 23 70 -10 12 -24 14 -59 9 -39 -5 -49 -3 -65 15 -10 11 -35 28 -54
37 -20 9 -43 22 -51 29 -30 25 -214 64 -321 69 -37 1 -72 6 -79 10 -7 5 -27 9
-44 11 -45 3 -109 14 -113 18 -2 2 3 19 11 37 8 19 28 66 44 104 17 39 33 81
37 95 4 14 15 36 25 50 9 14 33 55 52 92 20 37 45 80 57 96 11 16 25 40 30 53
5 13 32 57 60 98 56 84 55 101 -9 101 l-37 0 4 63 c2 34 10 107 18 162 8 55
17 132 20 170 15 186 29 289 52 389 28 116 26 138 -16 144 -17 3 -42 -16 -100
-75 -100 -100 -165 -161 -221 -203 -25 -19 -49 -40 -53 -47 -12 -20 -119 -99
-166 -124 -24 -12 -45 -28 -48 -35 -5 -13 -43 -20 -43 -9 0 3 32 37 70 77 39
40 70 76 70 80 0 4 19 31 43 60 23 30 50 71 60 93 10 22 26 54 34 70 9 17 31
58 48 93 l32 62 -106 0 c-95 0 -109 -3 -136 -23z m205 -1302 c0 -3 -22 -51
-49 -107 -27 -58 -52 -125 -55 -152 -3 -27 -13 -60 -21 -72 -13 -20 -18 -21
-56 -13 -51 12 -99 44 -99 67 0 9 9 37 20 61 11 24 20 49 20 55 0 10 43 83 67
115 1 2 12 -4 23 -14 19 -17 21 -17 77 23 56 39 73 48 73 37z"/>
<path d="M1070 1527 c-55 -49 -169 -108 -230 -120 -39 -8 -66 -20 -72 -31 -27
-48 37 -99 91 -72 14 8 41 17 60 21 19 4 48 21 65 37 17 16 48 38 69 49 20 11
37 25 37 33 0 7 9 21 20 31 23 20 26 45 8 63 -16 16 -19 15 -48 -11z"/>
<path d="M596 889 c-22 -32 -26 -43 -16 -49 7 -5 19 -6 26 -3 19 7 57 71 49
83 -12 19 -30 9 -59 -31z"/>
</g>
</svg>
