<?xml version="1.0" standalone="no"?>
<!DOCTYPE svg PUBLIC "-//W3C//DTD SVG 20010904//EN"
 "http://www.w3.org/TR/2001/REC-SVG-20010904/DTD/svg10.dtd">
<svg version="1.0" xmlns="http://www.w3.org/2000/svg"
 width="210.000000pt" height="204.000000pt" viewBox="0 0 210.000000 204.000000"
 preserveAspectRatio="xMidYMid meet">
<metadata>
Created by potrace 1.16, written by Peter Selinger 2001-2019
</metadata>
<g transform="translate(0.000000,204.000000) scale(0.100000,-0.100000)"
fill="#000000" stroke="none">
<path d="M1120 2024 c-14 -9 -44 -48 -66 -87 -43 -77 -51 -92 -86 -177 -12
-30 -45 -82 -73 -115 -28 -33 -63 -80 -78 -105 -56 -92 -164 -261 -228 -357
-36 -54 -73 -112 -82 -128 -8 -17 -24 -39 -36 -49 -12 -11 -21 -23 -21 -28 0
-15 -83 -131 -108 -151 -24 -20 -30 -47 -9 -47 26 0 107 60 134 99 16 22 36
42 45 44 10 3 45 49 79 102 58 89 64 96 88 90 39 -10 50 -9 126 8 39 9 74 12
78 8 4 -4 -9 -32 -29 -62 -21 -30 -80 -117 -132 -194 -99 -147 -144 -201 -174
-211 -25 -8 -24 -44 2 -44 31 0 125 57 140 85 7 14 19 25 26 25 7 0 22 12 33
28 192 260 227 311 264 381 21 42 51 92 67 112 15 19 36 51 47 70 10 19 32 54
47 79 16 24 39 68 52 96 13 29 30 57 39 62 9 5 18 22 20 38 2 16 7 52 11 80 4
32 2 54 -4 58 -12 7 -128 -16 -191 -39 -24 -8 -46 -13 -48 -11 -7 7 36 86 47
86 8 0 27 28 49 76 5 11 21 28 35 37 22 15 26 25 26 65 0 52 -21 92 -48 92 -9
0 -28 -8 -42 -16z m32 -467 c-28 -68 -84 -157 -128 -202 -22 -23 -48 -63 -58
-88 l-17 -45 -74 -7 c-69 -7 -145 -1 -145 11 0 3 20 34 45 70 25 35 45 66 45
69 0 16 67 95 81 95 9 0 39 20 65 45 56 53 88 72 141 84 64 15 64 15 45 -32z"/>
<path d="M1538 1829 c-16 -11 -28 -28 -28 -37 0 -10 -19 -49 -41 -87 -23 -39
-54 -92 -68 -120 -79 -146 -166 -288 -204 -331 -10 -12 -26 -36 -35 -53 -28
-50 -102 -153 -141 -196 -40 -43 -75 -89 -133 -175 -20 -30 -62 -82 -93 -115
-31 -33 -68 -77 -82 -97 -14 -21 -29 -38 -33 -38 -4 0 -22 -22 -39 -49 -40
-62 -261 -271 -312 -294 -38 -17 -48 -30 -30 -41 11 -7 122 32 142 50 8 8 20
14 25 14 28 0 201 157 271 245 31 39 91 106 133 150 42 44 88 98 101 120 13
22 29 46 36 53 7 7 13 16 13 20 0 4 18 27 40 51 22 25 40 48 40 53 0 4 16 25
35 45 19 20 35 41 35 45 0 4 7 8 16 8 9 0 33 9 53 19 61 32 170 81 182 81 6 0
38 14 71 30 32 17 61 30 63 30 16 0 -1 -25 -41 -62 -25 -24 -53 -59 -63 -78
-9 -20 -49 -78 -88 -130 -39 -52 -79 -111 -89 -130 -26 -47 -87 -137 -123
-180 -25 -29 -33 -33 -48 -24 -10 6 -20 22 -23 35 -3 13 -18 30 -32 38 -23 13
-32 13 -75 0 -43 -13 -48 -18 -51 -46 -3 -28 2 -35 50 -66 29 -19 63 -38 76
-42 12 -3 22 -13 22 -20 0 -8 -37 -74 -82 -147 -88 -143 -93 -154 -133 -240
-15 -32 -40 -71 -56 -88 l-31 -30 55 0 c52 0 56 2 88 41 33 41 95 142 151 249
53 101 107 183 134 205 15 12 24 27 21 32 -4 6 3 24 16 40 38 48 83 116 105
158 11 22 49 79 85 126 35 47 70 95 76 107 6 11 28 41 49 65 20 25 51 62 67
82 17 21 51 63 76 93 46 54 81 145 65 171 -16 25 -89 3 -241 -69 -55 -26 -119
-53 -143 -60 -24 -6 -51 -14 -60 -17 -13 -6 -12 0 6 28 29 43 132 211 152 247
62 109 83 141 110 165 16 15 30 31 30 37 0 5 11 26 25 46 33 48 32 58 -9 83
-41 26 -54 26 -88 0z"/>
</g>
</svg>
