<?xml version="1.0" standalone="no"?>
<!DOCTYPE svg PUBLIC "-//W3C//DTD SVG 20010904//EN"
 "http://www.w3.org/TR/2001/REC-SVG-20010904/DTD/svg10.dtd">
<svg version="1.0" xmlns="http://www.w3.org/2000/svg"
 width="209.000000pt" height="207.000000pt" viewBox="0 0 209.000000 207.000000"
 preserveAspectRatio="xMidYMid meet">
<metadata>
Created by potrace 1.16, written by Peter Selinger 2001-2019
</metadata>
<g transform="translate(0.000000,207.000000) scale(0.100000,-0.100000)"
fill="#000000" stroke="none">
<path d="M1290 1640 c0 -5 -18 -14 -39 -20 -75 -20 -162 -50 -189 -64 -15 -8
-58 -29 -97 -47 -38 -18 -98 -50 -133 -71 -35 -21 -81 -44 -102 -52 -58 -20
-130 -65 -130 -81 0 -8 -4 -15 -10 -15 -5 0 -10 -15 -10 -33 0 -61 56 -88 130
-62 49 17 100 60 100 84 0 15 89 81 109 81 5 0 11 4 13 9 3 9 199 111 214 111
5 0 32 12 59 25 28 14 55 25 62 25 20 0 83 61 83 80 0 11 -12 22 -30 29 -17 5
-30 6 -30 1z"/>
<path d="M1610 1324 c-25 -14 -70 -39 -100 -56 -30 -17 -66 -40 -80 -52 -14
-13 -61 -44 -106 -69 -45 -26 -89 -56 -99 -67 -10 -11 -22 -20 -27 -20 -4 0
-36 -20 -70 -45 -34 -25 -68 -45 -76 -45 -8 0 -30 -9 -48 -21 l-34 -21 0 23
c0 12 6 48 14 78 8 31 20 82 26 114 10 47 16 60 40 72 32 17 57 53 43 65 -4 4
-38 10 -75 13 -92 8 -102 -2 -118 -118 -7 -49 -16 -103 -20 -120 -5 -16 -16
-67 -26 -112 -15 -76 -20 -84 -51 -103 -102 -60 -313 -128 -406 -131 -31 -1
-59 -5 -64 -8 -17 -13 -35 -60 -29 -78 8 -26 71 -56 94 -44 9 5 70 21 134 36
64 15 131 36 148 46 38 24 54 24 47 2 -37 -120 -111 -311 -130 -336 -13 -18
-32 -50 -42 -72 -10 -22 -32 -59 -48 -83 -58 -86 -3 -99 79 -19 30 30 54 57
54 60 0 4 16 27 35 52 19 25 41 60 49 78 18 40 66 187 66 204 0 24 70 148 112
199 24 28 62 62 85 74 24 13 67 38 95 57 29 19 68 41 86 50 19 9 50 32 70 52
40 38 60 52 110 75 18 9 54 32 80 51 92 70 198 147 235 172 28 18 37 30 35 46
-4 31 -35 31 -88 1z"/>
<path d="M985 490 c-52 -32 -57 -40 -51 -74 11 -55 40 -72 211 -127 33 -11 74
-26 92 -34 17 -8 38 -15 46 -15 8 0 30 -6 49 -14 48 -20 210 -25 231 -7 27 22
20 37 -25 56 -24 10 -57 24 -74 31 -17 7 -56 20 -87 28 -44 12 -186 60 -275
94 -7 2 -20 19 -29 36 -26 51 -41 55 -88 26z"/>
</g>
</svg>
