<?xml version="1.0" standalone="no"?>
<!DOCTYPE svg PUBLIC "-//W3C//DTD SVG 20010904//EN"
 "http://www.w3.org/TR/2001/REC-SVG-20010904/DTD/svg10.dtd">
<svg version="1.0" xmlns="http://www.w3.org/2000/svg"
 width="208.000000pt" height="206.000000pt" viewBox="0 0 208.000000 206.000000"
 preserveAspectRatio="xMidYMid meet">
<metadata>
Created by potrace 1.16, written by Peter Selinger 2001-2019
</metadata>
<g transform="translate(0.000000,206.000000) scale(0.100000,-0.100000)"
fill="#000000" stroke="none">
<path d="M1365 1695 c-49 -25 -101 -49 -115 -55 -14 -6 -38 -18 -53 -26 -15
-9 -38 -17 -50 -18 -12 -1 -33 -9 -47 -18 -40 -25 -191 -68 -290 -83 -52 -8
-100 -47 -100 -82 0 -13 11 -35 25 -49 29 -28 46 -26 107 12 21 13 46 24 57
24 11 0 22 4 25 9 3 5 23 12 43 16 21 4 61 17 88 30 28 13 61 26 75 30 14 4
32 13 40 20 8 7 27 15 42 19 14 3 39 17 55 30 15 13 39 27 53 31 30 10 117 67
148 97 24 25 26 51 2 55 -8 1 -55 -18 -105 -42z"/>
<path d="M1077 1380 c-24 -19 -26 -25 -23 -92 1 -40 -3 -104 -10 -143 -18 -99
-58 -253 -70 -265 -5 -5 -50 -25 -100 -44 -50 -19 -131 -54 -180 -76 -52 -25
-121 -47 -166 -55 -83 -15 -110 -26 -145 -58 -30 -27 -29 -51 3 -76 33 -26 48
-26 88 -2 17 10 53 22 79 25 56 8 92 22 202 76 96 47 132 54 127 25 -2 -11
-19 -45 -38 -76 -19 -31 -34 -61 -34 -67 0 -5 -7 -15 -16 -23 -16 -13 -88
-152 -114 -219 -8 -19 -31 -64 -52 -99 -21 -34 -38 -66 -38 -71 0 -4 -9 -19
-21 -34 -11 -15 -18 -33 -15 -41 8 -22 50 -18 75 7 32 33 121 145 121 152 0
15 106 225 139 276 19 30 57 98 84 150 27 52 61 108 75 124 33 34 96 76 116
76 8 0 54 21 102 46 119 63 110 58 197 101 92 44 109 65 78 96 l-21 21 -57
-19 c-60 -20 -213 -89 -226 -101 -9 -10 -120 -54 -124 -50 -2 2 1 23 7 47 21
84 40 194 40 236 0 23 5 45 10 48 6 3 10 15 10 26 0 11 10 23 23 28 13 5 29
16 36 25 16 19 9 22 -59 29 -25 3 -52 8 -61 11 -9 4 -26 -2 -42 -14z m-507
-704 c0 -3 -4 -8 -10 -11 -5 -3 -10 -1 -10 4 0 6 5 11 10 11 6 0 10 -2 10 -4z"/>
<path d="M1041 551 c-12 -16 -21 -35 -21 -43 0 -16 44 -60 77 -77 25 -13 124
-40 168 -46 17 -3 41 -7 55 -10 14 -2 63 -7 110 -10 113 -7 190 -23 219 -46
13 -11 39 -19 58 -19 27 0 35 5 43 26 13 33 13 111 0 119 -6 4 -43 8 -83 9
-135 6 -272 19 -290 28 -10 5 -40 12 -65 14 -75 7 -151 31 -191 58 -47 33 -55
33 -80 -3z"/>
</g>
</svg>
