<?xml version="1.0" standalone="no"?>
<!DOCTYPE svg PUBLIC "-//W3C//DTD SVG 20010904//EN"
 "http://www.w3.org/TR/2001/REC-SVG-20010904/DTD/svg10.dtd">
<svg version="1.0" xmlns="http://www.w3.org/2000/svg"
 width="206.000000pt" height="208.000000pt" viewBox="0 0 206.000000 208.000000"
 preserveAspectRatio="xMidYMid meet">
<metadata>
Created by potrace 1.16, written by Peter Selinger 2001-2019
</metadata>
<g transform="translate(0.000000,208.000000) scale(0.100000,-0.100000)"
fill="#000000" stroke="none">
<path d="M933 1916 c-13 -6 -23 -20 -23 -32 0 -27 20 -84 29 -84 4 0 24 -24
45 -54 32 -46 40 -72 45 -138 2 -18 30 -6 55 24 28 35 33 72 15 128 -6 19 -14
55 -18 80 -5 41 -10 47 -51 67 -50 24 -64 26 -97 9z"/>
<path d="M1286 1789 c-14 -11 -26 -28 -26 -38 0 -22 -56 -186 -79 -231 -30
-59 -93 -173 -116 -210 -12 -19 -25 -45 -29 -56 -4 -12 -20 -47 -37 -78 -34
-62 -82 -101 -139 -112 -19 -4 -56 -18 -81 -31 -26 -13 -55 -23 -65 -23 -10 0
-41 -9 -69 -19 -27 -11 -95 -31 -150 -46 -55 -14 -124 -37 -153 -50 -50 -23
-53 -26 -50 -57 4 -48 44 -65 112 -48 28 7 67 20 86 30 43 22 143 56 233 80
38 10 77 26 88 36 14 13 23 14 30 7 8 -8 0 -31 -29 -80 -53 -91 -165 -288
-192 -338 -12 -22 -38 -66 -58 -98 -27 -44 -32 -61 -24 -69 9 -9 20 -5 44 18
18 16 40 37 48 47 8 11 32 40 53 65 21 26 50 61 64 77 29 34 127 186 163 255
14 25 29 52 36 60 6 8 22 35 35 59 33 61 78 103 154 146 35 19 67 40 70 45 3
5 33 21 65 36 33 15 60 31 60 36 0 5 8 11 18 15 35 13 148 91 195 135 36 34
48 52 45 69 -4 33 -29 34 -62 4 -15 -14 -31 -25 -36 -25 -5 0 -30 -16 -56 -36
-26 -20 -60 -41 -77 -46 -16 -6 -68 -33 -116 -59 -47 -27 -89 -49 -94 -49 -16
0 7 57 47 120 49 75 90 160 117 238 10 30 23 60 28 66 5 6 12 26 16 44 4 19
19 42 36 54 38 29 37 46 -6 64 -47 19 -68 18 -99 -7z"/>
<path d="M761 1602 c-13 -4 -27 -16 -31 -27 -9 -25 4 -64 25 -72 16 -5 55 -82
68 -133 12 -44 22 -53 44 -41 25 13 36 86 23 151 -7 39 -6 48 13 68 34 36 14
57 -59 59 -32 1 -70 -2 -83 -5z"/>
<path d="M1150 654 c-19 -8 -37 -19 -41 -25 -10 -17 2 -56 25 -77 23 -21 131
-79 209 -112 87 -36 163 -21 155 31 -2 20 -16 29 -78 54 -85 34 -157 87 -162
119 -4 27 -58 32 -108 10z"/>
</g>
</svg>
