<?xml version="1.0" standalone="no"?>
<!DOCTYPE svg PUBLIC "-//W3C//DTD SVG 20010904//EN"
 "http://www.w3.org/TR/2001/REC-SVG-20010904/DTD/svg10.dtd">
<svg version="1.0" xmlns="http://www.w3.org/2000/svg"
 width="209.000000pt" height="210.000000pt" viewBox="0 0 209.000000 210.000000"
 preserveAspectRatio="xMidYMid meet">
<metadata>
Created by potrace 1.16, written by Peter Selinger 2001-2019
</metadata>
<g transform="translate(0.000000,210.000000) scale(0.100000,-0.100000)"
fill="#000000" stroke="none">
<path d="M1061 2087 c-12 -16 -56 -215 -66 -302 -9 -84 -12 -91 -43 -104 -22
-9 -116 -23 -224 -35 -10 -1 -21 -5 -24 -9 -4 -4 -17 -7 -29 -7 -12 0 -30 -9
-39 -19 -15 -16 -16 -23 -6 -43 20 -37 51 -57 74 -47 32 13 246 52 252 46 3
-2 -6 -51 -20 -108 -13 -57 -30 -130 -36 -161 -10 -49 -15 -58 -33 -58 -16 0
-18 3 -9 12 35 35 -6 77 -55 56 -15 -6 -34 -10 -42 -9 -7 1 -37 -9 -67 -23
-47 -23 -54 -29 -54 -55 0 -49 39 -71 126 -71 40 0 76 -4 79 -10 3 -5 -2 -24
-12 -42 -9 -18 -17 -49 -18 -68 l0 -35 -90 -23 c-103 -25 -176 -39 -255 -48
-186 -20 -367 -70 -427 -118 -39 -31 -41 -48 -11 -76 26 -24 56 -26 87 -4 30
21 153 54 202 54 21 0 50 6 66 14 15 8 85 22 154 31 69 8 140 21 157 27 17 7
34 9 38 6 3 -4 -6 -38 -20 -75 -14 -38 -26 -74 -26 -82 0 -24 -53 -166 -88
-236 -19 -38 -58 -104 -86 -145 -29 -41 -68 -109 -88 -150 -19 -42 -43 -82
-52 -89 -9 -7 -16 -26 -16 -42 0 -35 28 -46 69 -25 37 20 63 55 101 142 17 37
45 88 63 113 49 71 84 134 147 271 4 8 20 58 35 110 16 52 42 117 57 143 15
26 28 52 28 57 0 22 68 54 139 66 42 8 105 22 141 33 72 21 188 45 325 66 121
18 211 61 223 107 14 51 -1 71 -46 63 -19 -4 -54 -15 -76 -25 -59 -26 -220
-63 -346 -80 -36 -4 -92 -17 -125 -28 -33 -11 -81 -23 -107 -27 -53 -7 -58 0
-36 52 7 15 12 33 13 39 1 14 81 94 94 94 6 0 60 48 120 108 60 59 121 115
135 125 34 23 37 81 5 98 -53 28 -97 -5 -254 -187 -36 -41 -51 -53 -53 -41 -5
23 58 271 70 278 5 4 15 17 22 30 8 17 23 26 53 31 23 4 52 12 63 18 12 6 47
18 78 26 31 8 63 21 72 29 8 7 26 15 40 17 26 3 39 33 22 50 -22 22 -158 2
-246 -36 -17 -7 -44 -19 -60 -25 l-29 -12 6 52 c4 28 11 57 18 65 6 7 16 34
23 60 11 43 13 46 28 30 9 -9 26 -16 37 -16 32 0 26 37 -14 95 -19 28 -39 60
-44 73 -8 16 -19 22 -45 22 -18 0 -39 -6 -45 -13z m-200 -470 c-1 -12 -15 -9
-19 4 -3 6 1 10 8 8 6 -3 11 -8 11 -12z m274 -607 c-3 -5 -15 -10 -26 -10 -11
0 -17 5 -14 10 3 6 15 10 26 10 11 0 17 -4 14 -10z"/>
<path d="M940 673 c-28 -10 -50 -36 -50 -57 0 -12 19 -39 44 -63 40 -37 176
-142 217 -168 9 -5 47 -31 85 -56 77 -51 120 -73 179 -88 54 -15 158 -14 173
1 7 7 12 9 12 5 0 -14 57 22 73 47 32 49 -4 72 -64 41 -33 -18 -153 -15 -172
4 -6 6 -16 11 -23 11 -6 0 -51 27 -100 60 -158 106 -248 179 -266 215 -25 48
-62 65 -108 48z"/>
</g>
</svg>
