<?xml version="1.0" standalone="no"?>
<!DOCTYPE svg PUBLIC "-//W3C//DTD SVG 20010904//EN"
 "http://www.w3.org/TR/2001/REC-SVG-20010904/DTD/svg10.dtd">
<svg version="1.0" xmlns="http://www.w3.org/2000/svg"
 width="210.000000pt" height="216.000000pt" viewBox="0 0 210.000000 216.000000"
 preserveAspectRatio="xMidYMid meet">
<metadata>
Created by potrace 1.16, written by Peter Selinger 2001-2019
</metadata>
<g transform="translate(0.000000,216.000000) scale(0.100000,-0.100000)"
fill="#000000" stroke="none">
<path d="M928 2148 c-16 -13 -43 -61 -88 -163 -22 -50 -93 -193 -124 -250 -9
-16 -16 -35 -16 -41 0 -6 -7 -17 -15 -24 -8 -7 -15 -20 -15 -30 0 -28 -74
-181 -109 -224 -17 -21 -28 -42 -25 -47 6 -10 -18 -50 -58 -97 -28 -33 -29
-52 -4 -52 7 0 21 9 32 21 10 12 31 27 46 35 27 14 27 14 33 -23 3 -21 10 -57
16 -80 5 -23 9 -71 9 -107 0 -49 3 -66 14 -66 13 0 19 12 44 89 9 26 9 126 1
178 -1 5 -1 54 0 109 1 109 -1 103 77 197 14 18 34 18 95 1 9 -2 30 10 48 27
18 17 54 41 81 53 27 13 56 29 64 36 20 16 29 -3 24 -55 -3 -35 -6 -38 -38
-41 -63 -6 -95 -20 -110 -47 -14 -25 -13 -28 6 -48 14 -13 40 -23 68 -26 25
-3 46 -8 46 -12 0 -9 -99 -94 -147 -125 -23 -15 -44 -34 -47 -41 -3 -8 -20
-21 -38 -31 -46 -23 -88 -64 -88 -86 0 -11 13 -27 30 -36 16 -9 30 -20 30 -23
0 -3 -27 -46 -60 -95 -33 -49 -60 -97 -60 -107 0 -9 -9 -25 -20 -34 -22 -19
-27 -53 -7 -53 21 1 125 104 132 132 4 14 28 44 53 66 126 110 144 122 173
122 31 0 41 -26 14 -36 -11 -5 -15 -20 -14 -58 1 -28 -6 -87 -15 -131 -29
-138 -31 -173 -12 -194 18 -20 14 -65 -8 -79 -27 -18 -137 -55 -199 -68 -38
-8 -81 -21 -95 -29 -15 -8 -54 -21 -87 -29 -33 -8 -73 -19 -90 -25 -16 -5 -61
-17 -100 -26 -113 -25 -171 -101 -109 -142 22 -14 30 -15 58 -4 31 13 93 34
156 52 19 6 51 16 70 23 89 34 249 82 310 93 14 2 29 8 35 14 5 5 13 9 17 9
34 0 -69 -340 -124 -410 -24 -31 -9 -38 35 -16 42 19 58 38 91 104 14 28 30
52 35 52 6 0 13 10 16 23 4 12 13 36 21 53 7 17 21 62 30 100 24 107 43 130
123 155 181 54 352 153 408 233 38 55 42 88 12 107 -20 14 -20 21 -20 354 0
187 4 363 9 390 5 28 21 115 36 195 27 150 41 207 63 250 24 46 18 50 -61 50
-70 0 -77 -2 -120 -35 -26 -19 -50 -35 -56 -35 -5 0 -14 -8 -19 -19 -11 -19
-171 -138 -200 -148 -9 -3 -27 -16 -41 -28 -78 -69 -294 -195 -309 -180 -7 7
68 157 84 167 6 3 26 39 45 80 19 40 40 78 46 84 6 7 8 32 5 60 -6 47 -7 49
-41 52 -19 2 -43 -3 -52 -10z m575 -144 c-13 -100 -36 -240 -42 -257 -20 -52
-24 -183 -21 -675 1 -177 -2 -237 -11 -249 -8 -8 -69 -42 -137 -74 -176 -84
-246 -91 -176 -18 33 34 26 60 -14 57 -56 -4 -62 15 -37 122 8 36 17 77 20 93
3 15 11 27 18 27 7 0 30 9 51 19 21 11 52 23 69 26 56 11 86 27 93 48 10 31
-22 50 -71 42 -125 -19 -125 -19 -125 3 0 12 7 39 15 59 17 45 35 143 35 191
0 19 9 49 19 66 49 81 49 232 -1 278 -24 21 -15 41 27 61 19 9 35 21 35 26 0
5 12 14 28 20 15 6 68 45 117 85 91 75 112 84 108 50z m-298 -390 c0 -28 -4
-39 -15 -39 -10 0 -15 11 -16 35 0 42 4 52 19 47 7 -2 12 -21 12 -43z m-185
-384 c0 -33 -7 -37 -35 -16 -16 12 -17 16 -6 30 22 26 41 19 41 -14z"/>
<path d="M1030 381 c-19 -36 -11 -57 32 -85 47 -31 99 -43 233 -56 160 -15
273 -42 290 -70 3 -5 13 -10 22 -10 8 0 35 -22 60 -50 25 -27 50 -50 56 -50 7
-1 28 -14 47 -30 31 -28 40 -30 110 -30 l75 1 -54 49 c-29 28 -57 50 -61 50
-12 0 -138 133 -171 181 -11 16 -27 24 -50 25 -19 1 -77 9 -129 18 -52 9 -115
16 -140 16 -54 1 -197 33 -213 49 -6 6 -30 11 -54 11 -32 0 -45 -5 -53 -19z"/>
</g>
</svg>
