<?xml version="1.0" standalone="no"?>
<!DOCTYPE svg PUBLIC "-//W3C//DTD SVG 20010904//EN"
 "http://www.w3.org/TR/2001/REC-SVG-20010904/DTD/svg10.dtd">
<svg version="1.0" xmlns="http://www.w3.org/2000/svg"
 width="208.000000pt" height="215.000000pt" viewBox="0 0 208.000000 215.000000"
 preserveAspectRatio="xMidYMid meet">
<metadata>
Created by potrace 1.16, written by Peter Selinger 2001-2019
</metadata>
<g transform="translate(0.000000,215.000000) scale(0.100000,-0.100000)"
fill="#000000" stroke="none">
<path d="M933 2051 c-37 -33 -88 -130 -118 -221 -28 -85 -50 -125 -130 -240
-36 -52 -86 -126 -112 -165 -47 -72 -102 -130 -132 -140 -10 -3 -27 -19 -39
-35 l-23 -30 26 0 c14 0 25 -3 25 -7 0 -5 -20 -37 -45 -72 -52 -75 -92 -106
-112 -89 -10 8 -17 8 -26 -1 -18 -18 5 -45 41 -49 47 -5 172 66 172 98 0 17
28 11 34 -8 15 -46 33 -208 25 -223 -4 -9 -20 -24 -34 -33 -32 -21 -32 -46 1
-80 30 -29 59 -33 88 -11 39 30 49 10 17 -32 -24 -30 -17 -53 16 -53 33 0 96
66 147 154 41 70 109 135 184 176 23 13 42 27 42 32 0 4 7 8 15 8 10 0 15 -10
15 -27 0 -38 -20 -217 -32 -280 l-9 -53 -76 -36 c-41 -19 -111 -49 -156 -65
-44 -16 -92 -36 -106 -44 -14 -8 -57 -24 -96 -34 -241 -67 -260 -77 -260 -131
0 -30 4 -35 33 -42 32 -8 139 16 202 47 61 29 118 54 150 65 19 7 44 16 55 21
11 4 48 17 83 28 34 11 76 29 91 41 16 11 41 20 55 20 33 0 33 -18 6 -134 -21
-93 -130 -348 -163 -384 l-20 -22 56 0 c42 0 62 5 75 18 38 38 147 335 177
482 14 68 53 130 93 147 20 8 79 35 131 60 105 50 116 48 107 -23 -8 -66 35
-88 72 -36 15 20 19 41 18 85 l-2 58 51 37 c113 84 115 85 141 72 20 -11 29
-9 74 20 79 51 101 98 62 133 -24 22 -35 21 -80 -6 -20 -13 -49 -27 -64 -31
-15 -3 -49 -20 -75 -36 -76 -47 -105 -62 -109 -57 -2 2 -4 113 -5 248 -1 229
1 250 24 339 27 105 40 177 58 320 15 124 16 133 23 167 3 15 2 34 -3 42 -13
20 -75 8 -120 -24 -21 -14 -43 -25 -50 -25 -8 0 -36 -16 -62 -35 -27 -19 -53
-35 -57 -35 -5 0 -17 -9 -27 -20 -10 -11 -23 -20 -29 -21 -6 0 -36 -18 -66
-39 -30 -22 -75 -49 -99 -61 -72 -35 -182 -116 -202 -149 -48 -79 13 -123 83
-59 56 52 61 56 148 109 47 29 94 61 105 71 11 10 31 23 45 28 14 6 52 29 85
51 75 48 117 71 123 66 7 -8 -18 -186 -48 -341 -32 -161 -39 -225 -39 -378
l-1 -97 -27 7 c-16 4 -41 6 -58 6 -51 -3 -149 -14 -163 -18 -20 -7 -25 20 -9
52 8 15 15 47 16 71 0 24 5 52 11 62 8 15 6 19 -13 22 -21 3 -22 9 -27 103 -4
88 -3 103 14 122 23 28 15 51 -21 58 -15 4 -35 10 -44 15 -22 12 -65 1 -85
-22 -16 -17 -16 -23 -5 -51 8 -18 16 -46 18 -62 l5 -31 -60 0 c-114 -2 -162
-21 -162 -64 0 -11 11 -26 24 -35 21 -14 29 -14 82 0 76 20 84 19 84 -6 0 -21
-35 -67 -150 -198 -62 -71 -178 -176 -186 -168 -10 10 -42 248 -39 288 4 52
28 95 102 185 49 59 153 214 153 228 0 5 9 21 21 37 11 16 24 43 29 61 5 17
31 68 57 113 37 66 55 87 90 106 38 21 44 28 41 54 -2 23 -9 32 -33 38 -16 5
-38 13 -47 18 -26 13 -31 12 -65 -20z m55 -861 c-18 -16 -36 -30 -40 -30 -18
0 -6 27 24 56 25 24 35 28 41 18 5 -9 -3 -24 -25 -44z m401 -231 c-3 -101 -7
-106 -94 -143 -22 -10 -59 -26 -83 -37 -59 -26 -70 -24 -39 9 15 15 27 36 27
45 0 15 -7 16 -55 11 l-55 -7 0 39 c0 50 21 90 44 86 17 -3 136 31 168 49 10
5 24 9 32 9 7 0 19 7 26 15 25 30 31 14 29 -76z"/>
<path d="M350 1190 c-20 -12 -5 -24 16 -12 9 5 12 12 7 15 -5 3 -15 2 -23 -3z"/>
<path d="M1157 396 c-13 -14 -14 -22 -2 -66 14 -53 68 -130 91 -130 15 0 92
-37 114 -56 8 -7 44 -18 80 -25 36 -7 67 -16 70 -19 9 -11 82 -29 94 -24 7 3
56 -4 108 -15 100 -21 165 -29 291 -35 l77 -4 0 48 c0 46 -2 49 -30 55 -17 4
-62 8 -100 10 -38 2 -98 10 -132 19 -35 8 -102 20 -151 26 -48 6 -97 15 -110
20 -12 5 -54 18 -94 29 -40 12 -75 26 -78 31 -3 5 -20 16 -38 25 -46 23 -59
35 -84 80 -18 33 -28 41 -56 43 -21 2 -40 -3 -50 -12z"/>
</g>
</svg>
