<?xml version="1.0" standalone="no"?>
<!DOCTYPE svg PUBLIC "-//W3C//DTD SVG 20010904//EN"
 "http://www.w3.org/TR/2001/REC-SVG-20010904/DTD/svg10.dtd">
<svg version="1.0" xmlns="http://www.w3.org/2000/svg"
 width="207.000000pt" height="217.000000pt" viewBox="0 0 207.000000 217.000000"
 preserveAspectRatio="xMidYMid meet">
<metadata>
Created by potrace 1.16, written by Peter Selinger 2001-2019
</metadata>
<g transform="translate(0.000000,217.000000) scale(0.100000,-0.100000)"
fill="#000000" stroke="none">
<path d="M1019 1850 c-25 -15 -57 -99 -92 -242 -32 -131 -36 -138 -87 -158
-64 -26 -165 -97 -168 -117 -5 -33 16 -63 54 -79 19 -8 34 -17 34 -20 0 -3
-16 -36 -35 -73 -19 -36 -58 -114 -85 -173 -28 -59 -67 -124 -87 -145 -20 -21
-48 -58 -64 -83 -15 -25 -44 -59 -64 -75 -65 -53 -67 -80 -10 -115 27 -17 37
-18 64 -9 20 7 36 8 44 1 6 -5 57 -22 112 -37 55 -15 106 -33 113 -39 16 -16
-8 -69 -49 -108 -54 -50 -32 -146 29 -132 15 4 28 7 29 8 5 3 86 146 96 168
14 33 46 37 97 10 19 -9 55 -23 80 -30 25 -8 62 -22 82 -33 20 -10 45 -19 55
-19 10 0 46 -13 80 -29 55 -26 92 -35 131 -32 8 1 12 10 10 23 -2 17 -25 35
-93 70 -98 51 -153 78 -230 110 -102 43 -113 48 -125 63 -12 15 -1 47 101 285
34 81 73 181 109 285 39 113 106 258 178 387 43 76 147 187 197 210 19 8 24
20 27 62 2 28 -1 54 -7 58 -15 10 -57 -2 -81 -23 -11 -11 -26 -19 -33 -19 -7
0 -45 -21 -83 -47 -38 -27 -79 -53 -91 -60 -12 -7 -33 -20 -45 -30 -35 -26
-183 -105 -189 -100 -2 3 3 33 12 68 12 44 28 76 56 107 21 25 39 50 39 55 0
6 -12 24 -27 39 -27 29 -56 35 -84 18z m201 -314 c0 -3 -23 -51 -51 -107 -28
-56 -57 -120 -65 -142 -8 -22 -18 -45 -23 -51 -4 -6 -14 -33 -20 -61 -7 -27
-33 -95 -58 -150 -25 -55 -53 -125 -63 -155 -31 -92 -103 -266 -115 -279 -2
-1 -34 6 -72 17 -37 11 -79 23 -93 26 -37 8 -90 44 -90 60 0 9 8 23 18 33 43
44 93 114 122 174 17 35 34 71 39 79 21 39 51 106 51 112 0 4 15 28 34 52 19
25 53 81 77 125 23 44 55 93 69 108 51 53 115 104 157 124 24 11 45 25 49 30
5 9 34 13 34 5z m51 -49 c-13 -13 -26 -3 -16 12 3 6 11 8 17 5 6 -4 6 -10 -1
-17z"/>
<path d="M1630 1372 c-19 -11 -48 -22 -65 -26 -32 -8 -95 -69 -95 -92 0 -8 9
-23 21 -35 28 -28 62 -21 133 27 36 23 71 38 101 41 44 6 45 5 45 -24 0 -28
-33 -125 -52 -149 -4 -6 -19 -32 -33 -58 -61 -114 -175 -276 -195 -276 -4 0
-10 35 -13 78 -3 42 -13 97 -22 122 -9 25 -17 74 -18 110 -2 58 -5 66 -27 77
-30 15 -70 16 -104 3 -32 -12 -35 -55 -7 -91 38 -50 76 -151 86 -231 8 -67 -9
-165 -34 -192 -35 -40 -41 -60 -23 -84 9 -12 31 -24 48 -28 29 -5 39 2 148
109 65 64 132 123 149 132 68 35 79 44 93 70 20 40 18 47 -17 43 -17 -2 -31 2
-30 7 0 10 22 49 73 128 61 96 89 296 48 337 -28 28 -159 29 -210 2z"/>
</g>
</svg>
