<?xml version="1.0" standalone="no"?>
<!DOCTYPE svg PUBLIC "-//W3C//DTD SVG 20010904//EN"
 "http://www.w3.org/TR/2001/REC-SVG-20010904/DTD/svg10.dtd">
<svg version="1.0" xmlns="http://www.w3.org/2000/svg"
 width="208.000000pt" height="209.000000pt" viewBox="0 0 208.000000 209.000000"
 preserveAspectRatio="xMidYMid meet">
<metadata>
Created by potrace 1.16, written by Peter Selinger 2001-2019
</metadata>
<g transform="translate(0.000000,209.000000) scale(0.100000,-0.100000)"
fill="#000000" stroke="none">
<path d="M1350 2033 c-14 -3 -33 -12 -42 -20 -32 -28 -18 -159 28 -272 17 -42
17 -45 0 -55 -82 -51 -183 -119 -200 -135 -12 -11 -26 -17 -31 -13 -21 15 -66
120 -85 197 -20 76 -20 81 -3 93 11 9 34 12 61 9 69 -7 66 14 -8 49 -62 30
-106 36 -152 22 -45 -13 -52 -31 -44 -105 6 -58 13 -79 36 -113 9 -14 20 -38
24 -55 4 -16 23 -61 42 -100 l34 -69 -32 -26 c-54 -42 -138 -90 -159 -90 -23
0 -79 -57 -79 -80 0 -8 7 -24 15 -34 22 -29 18 -42 -14 -56 -47 -19 -61 -42
-81 -132 -42 -189 -68 -285 -89 -324 -12 -23 -26 -68 -31 -100 -15 -89 -43
-178 -94 -297 -60 -142 -61 -188 -1 -173 15 4 35 24 51 51 l26 45 39 -35 c21
-19 51 -37 66 -41 52 -12 73 -31 67 -62 -4 -19 1 -36 17 -56 19 -24 26 -27 58
-21 20 4 46 13 58 21 28 18 54 18 123 0 104 -26 138 -28 155 -9 9 10 47 50 84
89 38 40 72 81 75 92 4 12 15 24 24 27 18 6 82 99 82 119 0 6 9 22 20 36 l20
25 0 -27 c0 -45 52 -159 93 -202 20 -22 37 -44 37 -49 0 -11 20 -31 47 -45 31
-17 81 3 90 36 8 33 -15 74 -47 82 -38 9 -86 88 -135 224 -25 68 -45 129 -45
135 0 6 21 78 46 159 68 217 74 241 81 307 14 145 56 218 168 296 52 36 70 74
40 85 -22 9 -181 -54 -207 -81 -21 -22 -60 -83 -77 -120 -5 -11 -14 -63 -21
-115 -6 -52 -18 -122 -26 -155 -9 -33 -19 -88 -23 -123 -16 -120 -15 -122
-166 268 -26 67 -35 104 -32 127 5 26 1 35 -14 43 -24 13 -44 60 -53 127 l-6
51 54 46 c29 26 69 57 87 71 19 13 44 32 57 41 17 13 26 14 35 5 18 -18 44
-13 50 9 3 11 -6 77 -20 147 -23 113 -24 131 -13 179 11 43 11 56 0 69 -13 15
-16 16 -60 8z m-272 -736 c12 -29 22 -57 22 -63 0 -11 -96 -107 -121 -120 -9
-5 -52 -40 -94 -79 -88 -79 -145 -114 -145 -88 0 36 58 131 110 180 30 29 58
53 62 53 4 0 23 28 44 63 34 55 79 107 95 107 3 0 15 -24 27 -53z m82 -217 c0
-8 14 -44 31 -80 32 -68 119 -297 146 -388 16 -51 15 -55 -4 -95 -11 -23 -28
-68 -37 -99 -9 -31 -27 -69 -40 -85 -12 -15 -44 -60 -69 -99 -71 -109 -73
-110 -151 -90 -36 9 -73 16 -83 16 -10 1 -28 9 -40 19 -24 20 -22 38 17 146
12 33 26 83 31 110 18 86 66 212 103 268 20 30 36 58 36 64 0 5 16 24 35 43
30 29 35 40 35 81 0 55 -8 63 -55 55 -26 -5 -46 -22 -85 -69 -51 -62 -92 -95
-119 -96 -8 -1 -29 -12 -47 -26 -45 -34 -57 -32 -49 8 13 58 29 82 77 107 29
15 48 32 48 42 0 26 57 105 98 136 20 15 50 42 66 60 l29 34 13 -24 c7 -13 13
-30 14 -38z m-273 -462 c-4 -13 -9 -43 -12 -68 -4 -25 -15 -72 -26 -105 -10
-33 -23 -82 -29 -110 -18 -87 -42 -114 -69 -81 -6 7 -25 16 -41 20 -25 4 -30
10 -30 34 0 16 3 32 7 36 9 8 33 77 33 94 0 7 15 46 34 87 30 65 39 76 77 93
57 26 62 26 56 0z m-274 -173 c-3 -9 -8 -14 -10 -11 -3 3 -2 9 2 15 9 16 15
13 8 -4z"/>
</g>
</svg>
