<?xml version="1.0" standalone="no"?>
<!DOCTYPE svg PUBLIC "-//W3C//DTD SVG 20010904//EN"
 "http://www.w3.org/TR/2001/REC-SVG-20010904/DTD/svg10.dtd">
<svg version="1.0" xmlns="http://www.w3.org/2000/svg"
 width="208.000000pt" height="208.000000pt" viewBox="0 0 208.000000 208.000000"
 preserveAspectRatio="xMidYMid meet">
<metadata>
Created by potrace 1.16, written by Peter Selinger 2001-2019
</metadata>
<g transform="translate(0.000000,208.000000) scale(0.100000,-0.100000)"
fill="#000000" stroke="none">
<path d="M1334 1815 c-28 -13 -73 -29 -100 -36 -27 -6 -63 -17 -81 -25 -17 -7
-60 -18 -95 -25 -34 -6 -80 -18 -101 -25 -20 -8 -72 -15 -115 -15 -104 -2
-134 -9 -149 -38 -14 -30 5 -76 37 -86 44 -14 241 21 315 55 29 14 187 51 193
46 7 -8 -75 -115 -126 -165 -32 -31 -73 -79 -92 -106 -18 -28 -36 -52 -39 -55
-18 -15 -122 -163 -136 -191 -34 -72 -47 -89 -73 -95 -15 -4 -31 -10 -37 -14
-5 -5 -41 -18 -80 -30 -38 -13 -75 -26 -81 -31 -6 -5 -43 -15 -83 -24 -39 -8
-84 -21 -99 -29 -15 -7 -46 -17 -70 -21 -51 -8 -102 -48 -102 -79 0 -34 40
-66 82 -66 43 0 119 25 133 44 6 8 35 22 65 32 30 9 62 23 70 30 9 7 37 18 64
24 27 6 74 22 104 36 64 29 109 26 114 -9 2 -12 12 -24 25 -27 28 -7 78 -71
110 -140 14 -30 34 -74 45 -98 11 -24 24 -59 29 -78 5 -19 13 -51 19 -71 5
-21 10 -62 10 -90 0 -63 -9 -71 -125 -109 -53 -17 -100 -25 -146 -25 -75 0
-86 -10 -48 -45 19 -17 36 -19 183 -16 190 4 211 11 233 82 29 92 -13 300 -96
481 -30 67 -84 153 -102 164 -5 4 -9 14 -9 24 0 13 16 22 63 36 34 10 109 33
167 51 58 18 130 39 160 45 56 11 110 34 122 52 3 6 4 17 0 25 -7 21 -162 9
-257 -19 -119 -35 -168 -47 -224 -54 -51 -7 -53 -6 -46 15 10 30 162 230 243
319 37 40 69 78 71 85 2 6 23 32 47 59 56 62 108 143 121 188 21 71 -22 88
-113 44z"/>
</g>
</svg>
