<?xml version="1.0" standalone="no"?>
<!DOCTYPE svg PUBLIC "-//W3C//DTD SVG 20010904//EN"
 "http://www.w3.org/TR/2001/REC-SVG-20010904/DTD/svg10.dtd">
<svg version="1.0" xmlns="http://www.w3.org/2000/svg"
 width="207.000000pt" height="209.000000pt" viewBox="0 0 207.000000 209.000000"
 preserveAspectRatio="xMidYMid meet">
<metadata>
Created by potrace 1.16, written by Peter Selinger 2001-2019
</metadata>
<g transform="translate(0.000000,209.000000) scale(0.100000,-0.100000)"
fill="#000000" stroke="none">
<path d="M1005 1715 c-22 -7 -53 -20 -70 -29 -16 -9 -39 -16 -51 -16 -28 0
-54 -30 -54 -62 0 -19 9 -32 34 -47 18 -12 36 -30 39 -41 8 -33 35 -24 39 12
6 59 101 87 226 67 85 -14 100 -30 59 -65 -15 -13 -27 -26 -27 -31 0 -4 -9
-16 -19 -28 -130 -140 -170 -184 -185 -209 -18 -28 -84 -101 -180 -197 -49
-50 -54 -68 -32 -121 6 -13 -7 -19 -81 -36 -157 -36 -298 -56 -385 -54 -9 0
-38 -7 -65 -17 -40 -14 -49 -21 -51 -45 -2 -19 4 -36 19 -52 24 -26 49 -30 79
-14 11 6 76 17 144 25 69 8 144 22 168 30 24 9 78 20 120 25 42 5 102 16 133
26 l56 18 25 -30 c38 -46 61 -106 74 -191 7 -43 20 -112 30 -153 10 -41 20
-109 22 -150 l3 -75 -68 2 c-58 2 -80 8 -145 43 -81 44 -155 71 -262 99 -115
29 -132 7 -42 -51 32 -20 88 -48 127 -62 38 -15 91 -41 119 -59 62 -40 127
-69 224 -99 67 -20 76 -21 100 -7 16 8 28 25 30 39 2 14 8 35 14 47 25 51 -36
445 -92 590 -15 40 -25 75 -22 78 3 3 14 5 25 5 10 0 31 6 45 14 27 14 145 45
255 66 33 7 74 18 93 26 18 8 48 14 67 14 18 0 38 5 45 12 18 18 15 87 -3 94
-8 4 -52 -3 -97 -15 -46 -11 -110 -25 -143 -31 -33 -6 -100 -22 -150 -36 -49
-14 -118 -30 -153 -36 -55 -9 -65 -8 -82 7 -11 10 -20 22 -20 27 0 8 75 97
201 239 28 31 58 67 67 80 9 13 43 56 77 95 98 116 107 196 28 229 -46 20
-173 52 -228 58 -22 2 -58 -1 -80 -8z m-425 -875 c0 -16 -23 -22 -71 -18 -42
4 -43 4 -19 15 32 15 90 16 90 3z"/>
</g>
</svg>
