<?xml version="1.0" standalone="no"?>
<!DOCTYPE svg PUBLIC "-//W3C//DTD SVG 20010904//EN"
 "http://www.w3.org/TR/2001/REC-SVG-20010904/DTD/svg10.dtd">
<svg version="1.0" xmlns="http://www.w3.org/2000/svg"
 width="208.000000pt" height="208.000000pt" viewBox="0 0 208.000000 208.000000"
 preserveAspectRatio="xMidYMid meet">
<metadata>
Created by potrace 1.16, written by Peter Selinger 2001-2019
</metadata>
<g transform="translate(0.000000,208.000000) scale(0.100000,-0.100000)"
fill="#000000" stroke="none">
<path d="M1155 1710 c-41 -16 -49 -36 -32 -83 13 -35 26 -113 30 -177 3 -61
-20 -210 -54 -345 -22 -88 -49 -196 -60 -240 -11 -44 -31 -116 -45 -160 -34
-106 -94 -344 -94 -373 0 -55 63 -94 173 -107 18 -2 52 -9 77 -15 64 -17 311
-14 411 4 71 13 268 37 319 39 8 0 32 -3 52 -7 34 -7 38 -6 52 23 23 44 20 79
-14 141 -46 83 -68 135 -76 177 -4 21 -15 56 -25 78 -42 94 -59 138 -59 150 0
14 -42 55 -57 55 -12 0 -9 -49 7 -135 39 -202 54 -265 72 -307 15 -34 18 -52
10 -60 -5 -5 -68 -14 -139 -19 -70 -5 -146 -15 -168 -22 -76 -23 -409 -12
-478 16 -30 13 -37 21 -37 44 1 27 66 284 88 348 6 17 18 57 26 90 9 33 25 96
36 140 73 279 88 382 79 543 -9 135 -22 182 -57 201 -9 5 -26 5 -37 1z m315
-1440 c-19 -13 -30 -13 -30 0 0 6 10 10 23 10 18 0 19 -2 7 -10z"/>
<path d="M729 1686 c-3 -3 -63 -6 -133 -7 -181 -1 -223 -20 -184 -84 24 -42
45 -49 89 -31 19 8 46 12 61 9 24 -5 120 8 186 24 28 7 30 -24 3 -58 -10 -13
-28 -44 -41 -69 -12 -25 -46 -68 -74 -96 -28 -28 -82 -89 -121 -134 -38 -46
-101 -115 -139 -154 -101 -104 -102 -106 -86 -173 13 -53 13 -57 -7 -73 -12
-9 -48 -20 -83 -23 -33 -4 -70 -11 -80 -17 -46 -24 -5 -110 51 -110 14 0 43 9
65 19 21 10 59 24 82 31 38 10 47 9 63 -6 10 -9 21 -26 25 -38 3 -11 16 -31
27 -44 35 -38 116 -276 117 -344 0 -23 -4 -28 -25 -28 -76 0 -201 79 -256 161
-34 51 -72 160 -71 202 1 54 -23 21 -29 -39 -19 -208 122 -387 336 -424 28 -5
61 -12 75 -15 15 -4 33 0 44 8 30 22 34 150 8 247 -32 120 -77 234 -116 291
-57 85 -51 104 51 155 28 15 65 38 81 53 17 14 55 41 85 59 30 18 63 42 73 53
9 10 22 19 28 19 18 0 126 91 126 106 0 23 -67 12 -90 -15 -3 -3 -25 -16 -50
-28 -25 -13 -54 -29 -64 -35 -91 -60 -145 -89 -203 -114 -37 -16 -72 -34 -78
-40 -5 -7 -20 -15 -32 -18 -17 -5 -26 -1 -39 19 -19 30 -23 23 87 140 90 95
159 174 159 183 0 4 28 37 63 73 70 73 141 204 152 281 6 42 5 48 -19 63 -27
18 -106 32 -117 21z"/>
</g>
</svg>
