<?xml version="1.0" standalone="no"?>
<!DOCTYPE svg PUBLIC "-//W3C//DTD SVG 20010904//EN"
 "http://www.w3.org/TR/2001/REC-SVG-20010904/DTD/svg10.dtd">
<svg version="1.0" xmlns="http://www.w3.org/2000/svg"
 width="208.000000pt" height="201.000000pt" viewBox="0 0 208.000000 201.000000"
 preserveAspectRatio="xMidYMid meet">
<metadata>
Created by potrace 1.16, written by Peter Selinger 2001-2019
</metadata>
<g transform="translate(0.000000,201.000000) scale(0.100000,-0.100000)"
fill="#000000" stroke="none">
<path d="M1084 1910 c-34 -14 -50 -48 -103 -230 -4 -13 -19 -31 -33 -40 -15
-8 -52 -31 -84 -50 -81 -49 -129 -76 -207 -117 -72 -38 -88 -62 -71 -112 8
-22 16 -27 53 -29 31 -2 49 2 65 15 38 34 105 75 115 72 6 -3 1 -21 -12 -46
-139 -260 -161 -293 -197 -293 -11 0 -30 -6 -43 -12 -27 -16 -107 -89 -107
-100 0 -4 -10 -24 -22 -45 -13 -21 -31 -60 -40 -87 -18 -49 -18 -50 4 -73 28
-30 43 -29 102 10 75 49 90 57 97 49 10 -10 39 -201 39 -255 0 -62 -26 -126
-56 -138 -29 -10 -31 -30 -4 -54 17 -15 24 -16 49 -6 42 18 81 63 92 107 14
61 11 240 -6 334 -22 123 -20 173 9 218 13 20 31 44 40 51 10 8 24 30 31 49
l15 34 35 -21 c20 -12 42 -21 50 -21 13 0 128 87 226 170 25 22 59 50 75 62
16 12 35 28 42 35 19 18 53 36 58 30 3 -2 -5 -29 -17 -58 -34 -88 -79 -323
-86 -451 l-6 -118 -135 -67 c-83 -42 -143 -78 -155 -95 l-20 -27 27 -35 c15
-20 32 -36 39 -36 7 0 44 -29 82 -65 39 -36 73 -65 77 -65 4 0 43 -32 85 -71
43 -39 92 -77 108 -84 17 -8 39 -23 50 -35 26 -29 73 -53 91 -46 9 3 14 20 14
44 0 21 6 44 13 51 10 10 8 15 -7 26 -11 8 -28 38 -38 67 -58 158 -88 256 -99
322 -15 86 -15 84 71 130 63 34 169 101 250 157 30 21 83 57 118 80 98 65 74
64 -78 -3 -90 -40 -114 -52 -120 -59 -3 -3 -61 -33 -129 -67 -92 -46 -127 -59
-133 -49 -7 12 -5 66 8 172 10 82 61 271 89 325 27 53 53 194 42 223 -9 24
-51 21 -84 -6 -15 -13 -59 -45 -98 -70 -38 -25 -81 -55 -95 -66 -14 -11 -29
-21 -34 -21 -4 0 -22 -12 -40 -26 -47 -39 -199 -135 -204 -129 -5 4 21 74 37
101 84 144 172 236 279 294 42 23 56 31 125 78 27 17 53 32 57 32 13 0 18 49
5 60 -16 14 -125 -21 -125 -41 0 -6 -139 -69 -153 -69 -13 0 47 101 66 111 24
13 37 28 37 45 0 14 -46 35 -64 28 -8 -3 -17 -1 -21 5 -7 13 -12 13 -41 1z
m-514 -934 c0 -15 -55 -97 -84 -125 -46 -44 -59 -38 -38 21 22 60 65 108 97
108 14 0 25 -2 25 -4z m690 -88 c0 -19 -2 -20 -10 -8 -13 19 -13 30 0 30 6 0
10 -10 10 -22z m-33 -272 c7 -36 24 -103 38 -147 14 -44 25 -84 25 -90 0 -14
-29 3 -76 44 -104 93 -122 107 -132 107 -13 0 -32 32 -32 53 0 14 94 86 130
100 28 10 35 0 47 -67z"/>
</g>
</svg>
