<?xml version="1.0" standalone="no"?>
<!DOCTYPE svg PUBLIC "-//W3C//DTD SVG 20010904//EN"
 "http://www.w3.org/TR/2001/REC-SVG-20010904/DTD/svg10.dtd">
<svg version="1.0" xmlns="http://www.w3.org/2000/svg"
 width="207.000000pt" height="204.000000pt" viewBox="0 0 207.000000 204.000000"
 preserveAspectRatio="xMidYMid meet">
<metadata>
Created by potrace 1.16, written by Peter Selinger 2001-2019
</metadata>
<g transform="translate(0.000000,204.000000) scale(0.100000,-0.100000)"
fill="#000000" stroke="none">
<path d="M1374 1867 c-12 -7 -43 -36 -69 -64 -26 -29 -53 -53 -60 -53 -8 0
-18 -6 -22 -13 -7 -12 -55 -56 -159 -146 -21 -19 -55 -44 -76 -57 -20 -13 -39
-28 -43 -34 -10 -17 -107 -84 -147 -103 -20 -10 -40 -22 -43 -27 -3 -5 -37
-26 -75 -46 -106 -56 -138 -123 -78 -167 26 -20 26 -20 56 2 39 28 46 27 37
-6 -3 -15 -10 -62 -15 -106 -12 -106 -14 -110 -57 -131 -21 -10 -58 -28 -81
-40 -65 -32 -79 -69 -40 -106 12 -11 34 -20 50 -20 15 0 28 -2 28 -5 0 -17
-145 -366 -164 -395 -12 -19 -37 -65 -55 -102 -18 -37 -42 -75 -52 -84 -22
-20 -26 -76 -6 -92 27 -23 83 4 115 56 75 118 140 259 211 457 10 28 32 73 48
101 17 27 36 68 43 90 18 52 67 112 112 135 20 10 38 22 40 26 1 5 29 26 61
47 74 48 164 132 184 170 13 25 13 30 0 44 -14 13 -20 12 -54 -8 -21 -13 -54
-38 -73 -55 -19 -18 -60 -45 -91 -59 -31 -14 -64 -35 -74 -46 -28 -31 -42 -25
-37 15 2 19 8 38 13 41 5 3 9 16 9 29 0 14 14 38 31 56 40 40 35 63 -14 67
-20 2 -37 8 -37 14 0 15 48 58 65 58 7 0 49 27 92 59 157 119 217 166 241 188
36 34 44 29 37 -24 -30 -233 -29 -226 -79 -433 -8 -36 -25 -118 -37 -184 -23
-129 -16 -165 18 -99 46 86 52 100 64 143 7 25 16 50 21 56 4 6 23 72 42 145
32 125 48 203 77 374 13 75 36 138 68 182 19 27 25 64 22 131 -1 34 -12 39
-47 19z"/>
<path d="M533 1665 c-27 -11 -33 -20 -33 -44 0 -47 49 -83 87 -63 33 18 210
34 233 22 26 -14 40 -5 40 25 0 33 -36 55 -96 60 -148 13 -200 13 -231 0z"/>
<path d="M348 1254 c-4 -3 -12 -7 -20 -8 -108 -24 -106 -22 -84 -154 24 -144
32 -375 16 -453 -16 -72 -4 -95 31 -63 24 21 54 82 50 102 -1 8 3 20 10 29 9
11 14 76 15 235 2 172 6 224 17 237 26 30 27 50 4 66 -23 16 -31 18 -39 9z"/>
<path d="M756 662 c-39 -18 -45 -29 -90 -169 -8 -23 -26 -63 -40 -89 -14 -25
-26 -52 -26 -59 0 -7 -7 -18 -15 -25 -25 -21 -85 -129 -85 -153 0 -23 52 -65
73 -58 7 2 32 5 57 7 38 3 124 20 310 62 19 5 46 14 59 21 29 16 37 8 53 -54
17 -64 45 -115 62 -115 24 0 27 34 25 282 0 10 -8 22 -18 28 -15 8 -17 18 -13
62 3 29 11 62 18 73 20 28 17 44 -11 57 -19 9 -34 7 -72 -7 -56 -21 -65 -31
-59 -65 3 -14 8 -55 11 -92 6 -62 5 -67 -16 -79 -47 -25 -288 -67 -309 -54 -6
4 3 27 21 58 17 29 44 81 60 117 17 36 37 81 46 100 19 41 34 95 36 129 3 34
-30 43 -77 23z"/>
</g>
</svg>
