<?xml version="1.0" standalone="no"?>
<!DOCTYPE svg PUBLIC "-//W3C//DTD SVG 20010904//EN"
 "http://www.w3.org/TR/2001/REC-SVG-20010904/DTD/svg10.dtd">
<svg version="1.0" xmlns="http://www.w3.org/2000/svg"
 width="207.000000pt" height="204.000000pt" viewBox="0 0 207.000000 204.000000"
 preserveAspectRatio="xMidYMid meet">
<metadata>
Created by potrace 1.16, written by Peter Selinger 2001-2019
</metadata>
<g transform="translate(0.000000,204.000000) scale(0.100000,-0.100000)"
fill="#000000" stroke="none">
<path d="M1362 1890 c-29 -15 -68 -41 -85 -57 -18 -16 -45 -35 -62 -43 -16 -8
-50 -28 -75 -46 -25 -17 -70 -44 -100 -59 -30 -16 -69 -39 -87 -52 -17 -13
-60 -36 -95 -52 -73 -34 -148 -104 -148 -138 0 -23 31 -63 50 -63 10 0 83 59
88 72 2 4 20 16 40 25 20 9 53 29 72 44 19 15 100 63 180 107 80 44 164 96
187 116 23 20 46 36 51 36 23 0 24 -126 2 -287 -12 -89 -10 -123 8 -123 5 0
15 14 23 31 7 18 23 44 35 59 31 36 48 169 42 324 -7 151 -20 162 -126 106z"/>
<path d="M728 1809 c-34 -19 -20 -189 15 -189 13 0 57 51 57 67 1 4 9 26 20
48 24 49 24 50 4 69 -17 18 -70 21 -96 5z"/>
<path d="M1252 1583 c-29 -14 -83 -66 -93 -90 -4 -7 -34 -34 -96 -84 -33 -27
-154 -95 -220 -126 -68 -30 -77 -44 -54 -85 19 -34 65 -46 90 -24 9 8 48 32
86 52 39 21 90 53 115 71 l45 35 3 -119 c2 -70 -3 -160 -12 -223 -9 -58 -18
-150 -21 -205 -8 -156 -14 -262 -21 -362 -7 -107 2 -133 46 -133 40 0 49 20
61 147 12 113 27 156 70 201 57 60 159 152 170 152 20 0 109 63 114 82 4 10
11 18 16 18 5 0 9 6 9 14 0 22 -48 25 -88 6 -20 -10 -62 -30 -92 -44 -30 -15
-81 -45 -112 -67 -32 -22 -62 -38 -67 -35 -11 7 -6 78 15 217 8 53 14 130 15
170 0 41 4 94 9 119 22 114 42 185 55 200 23 26 46 90 40 111 -8 23 -38 24
-83 2z"/>
<path d="M458 1268 c-31 -11 -59 -27 -62 -35 -3 -8 2 -29 11 -46 40 -74 46
-103 48 -230 3 -175 25 -194 72 -65 19 55 22 81 21 203 -1 77 2 152 7 168 7
24 5 27 -16 26 -13 -1 -50 -11 -81 -21z"/>
<path d="M835 864 c-16 -8 -31 -16 -32 -18 -4 -4 -90 -354 -98 -400 -18 -107
-92 -292 -160 -403 l-26 -43 53 0 c57 0 78 12 78 43 0 11 12 34 28 52 15 19
34 44 43 56 15 21 19 22 55 11 21 -6 62 -14 90 -17 28 -3 61 -8 75 -10 64 -13
268 -25 394 -23 169 2 306 -8 360 -27 76 -26 282 -58 329 -51 l46 7 0 52 0 52
-42 1 c-54 1 -123 10 -168 22 -49 14 -209 43 -267 48 -26 3 -142 7 -258 8
-115 2 -250 7 -300 11 -49 4 -97 7 -105 7 -30 0 -116 29 -138 46 l-23 18 19
60 c11 32 32 113 47 179 16 66 32 125 37 132 13 16 37 120 38 159 0 20 -6 34
-16 38 -22 8 -25 8 -59 -10z"/>
</g>
</svg>
