<?xml version="1.0" standalone="no"?>
<!DOCTYPE svg PUBLIC "-//W3C//DTD SVG 20010904//EN"
 "http://www.w3.org/TR/2001/REC-SVG-20010904/DTD/svg10.dtd">
<svg version="1.0" xmlns="http://www.w3.org/2000/svg"
 width="208.000000pt" height="205.000000pt" viewBox="0 0 208.000000 205.000000"
 preserveAspectRatio="xMidYMid meet">
<metadata>
Created by potrace 1.16, written by Peter Selinger 2001-2019
</metadata>
<g transform="translate(0.000000,205.000000) scale(0.100000,-0.100000)"
fill="#000000" stroke="none">
<path d="M1540 2003 c-8 -3 -30 -19 -48 -34 -18 -16 -37 -29 -43 -29 -6 0 -23
-8 -37 -19 -15 -10 -67 -40 -117 -66 -49 -26 -97 -53 -105 -60 -22 -19 -203
-106 -208 -100 -3 2 1 11 7 19 14 16 -4 93 -40 174 -10 23 -19 49 -19 57 0 27
-31 46 -64 39 -17 -3 -37 -11 -43 -16 -21 -17 -15 -74 10 -105 12 -15 40 -55
62 -88 22 -33 48 -67 58 -76 18 -15 15 -17 -46 -47 -35 -18 -69 -32 -76 -32
-10 0 -127 -52 -161 -71 -8 -5 -25 -13 -37 -19 -27 -12 -46 -45 -38 -69 8 -27
63 -48 84 -33 9 7 23 15 31 18 22 8 182 84 200 94 8 5 34 19 58 31 23 13 42
26 42 31 0 4 8 8 18 8 21 0 156 65 197 95 16 12 45 28 63 35 17 7 32 16 32 21
0 5 8 9 18 9 10 0 28 7 40 16 13 9 26 13 29 10 4 -3 -1 -32 -10 -63 -9 -32
-19 -87 -22 -123 -6 -74 -17 -127 -52 -253 -13 -49 -27 -125 -30 -169 -6 -79
-6 -80 15 -69 11 6 24 25 27 43 4 18 13 44 20 58 74 144 99 221 134 421 5 31
35 113 65 182 31 69 56 135 56 146 0 30 -35 47 -70 34z"/>
<path d="M500 1491 c-8 -5 -35 -15 -60 -22 l-45 -14 4 -85 c2 -47 5 -125 6
-175 4 -216 4 -215 23 -215 42 1 63 68 77 250 4 47 13 122 21 168 17 98 13
114 -26 93z"/>
<path d="M1176 1369 c-14 -11 -52 -31 -85 -44 -32 -13 -110 -50 -173 -82 -62
-32 -123 -62 -135 -68 -11 -5 -46 -29 -77 -53 -46 -35 -56 -48 -56 -72 0 -23
7 -33 31 -45 36 -19 63 -12 111 28 81 67 121 97 129 97 21 0 26 -49 15 -145
-9 -82 -15 -101 -31 -110 -11 -5 -49 -30 -84 -54 -34 -24 -100 -56 -145 -73
-100 -36 -124 -57 -110 -95 17 -50 52 -52 146 -8 46 21 94 47 108 59 23 20 65
46 73 46 11 0 -25 -143 -57 -230 -10 -25 -25 -76 -35 -115 -11 -38 -28 -90
-39 -115 -19 -45 -20 -46 -94 -63 -41 -9 -87 -17 -102 -17 -32 0 -93 -24 -118
-47 -45 -41 4 -98 82 -97 28 0 91 18 170 47 171 65 233 86 314 103 38 8 74 18
80 23 11 9 57 19 116 27 90 11 212 44 283 77 70 33 77 38 77 65 0 34 -24 59
-42 45 -7 -5 -42 -18 -78 -27 -36 -10 -76 -22 -90 -27 -14 -4 -47 -11 -75 -15
-27 -3 -86 -15 -130 -26 -44 -11 -107 -26 -140 -34 -70 -17 -155 -29 -155 -21
0 3 11 37 24 76 13 38 21 72 18 75 -3 3 3 14 12 25 17 19 76 191 76 223 0 10
14 52 31 94 23 60 42 89 85 130 29 29 54 57 54 63 0 19 -18 21 -59 6 l-41 -14
0 64 c0 76 -12 111 -40 120 l-21 7 21 18 c12 11 38 24 59 31 20 7 54 24 76 40
22 15 57 31 78 35 41 7 57 26 49 56 -5 19 -39 38 -66 38 -7 0 -25 -9 -40 -21z"/>
<path d="M1208 671 c-10 -10 -18 -23 -18 -30 0 -29 103 -148 158 -183 26 -16
35 -18 47 -8 22 18 18 39 -12 79 -17 21 -30 53 -33 80 -3 25 -11 47 -20 51 -8
4 -25 12 -37 18 -32 17 -65 14 -85 -7z"/>
</g>
</svg>
