<?xml version="1.0" standalone="no"?>
<!DOCTYPE svg PUBLIC "-//W3C//DTD SVG 20010904//EN"
 "http://www.w3.org/TR/2001/REC-SVG-20010904/DTD/svg10.dtd">
<svg version="1.0" xmlns="http://www.w3.org/2000/svg"
 width="205.000000pt" height="204.000000pt" viewBox="0 0 205.000000 204.000000"
 preserveAspectRatio="xMidYMid meet">
<metadata>
Created by potrace 1.16, written by Peter Selinger 2001-2019
</metadata>
<g transform="translate(0.000000,204.000000) scale(0.100000,-0.100000)"
fill="#000000" stroke="none">
<path d="M1350 1879 c-22 -23 -40 -45 -40 -50 0 -4 -44 -41 -97 -81 -54 -40
-99 -76 -101 -80 -2 -5 -9 -8 -17 -8 -7 0 -18 -6 -24 -14 -6 -7 -50 -33 -99
-57 -48 -24 -98 -51 -112 -60 -14 -10 -58 -25 -98 -35 -77 -18 -112 -46 -112
-88 0 -25 8 -37 36 -53 17 -9 28 -7 60 11 21 12 59 28 84 35 25 7 57 22 72 33
15 10 56 32 90 48 35 15 72 37 82 49 11 12 25 21 33 21 15 0 96 55 171 115 70
57 72 54 72 -101 0 -124 -1 -135 -17 -130 -61 18 -70 17 -94 -8 -13 -14 -30
-26 -37 -26 -16 0 -129 -76 -152 -102 -8 -9 -37 -29 -65 -44 -27 -15 -72 -41
-100 -59 -27 -18 -63 -36 -79 -39 -16 -4 -49 -19 -73 -33 -37 -21 -43 -30 -43
-58 0 -26 7 -39 30 -55 l30 -21 59 35 c32 20 63 36 69 36 5 0 15 7 23 16 7 8
31 25 52 37 107 59 155 92 257 180 26 23 100 60 100 50 0 -3 7 0 15 7 13 11
15 5 15 -46 0 -33 -4 -75 -8 -94 -11 -47 -5 -70 18 -70 14 0 24 16 39 58 12
31 26 66 32 76 17 29 31 227 31 430 -1 154 -3 181 -18 197 -25 28 -39 24 -84
-22z"/>
<path d="M742 1867 c-12 -13 -22 -31 -22 -40 0 -27 53 -59 105 -63 56 -4 95
-26 95 -54 0 -29 13 -31 48 -8 59 37 34 100 -53 132 -22 8 -65 24 -95 35 -30
12 -55 21 -56 21 0 0 -10 -10 -22 -23z"/>
<path d="M466 1471 c-66 -8 -94 -43 -77 -93 7 -18 14 -98 17 -178 5 -114 2
-160 -10 -215 -9 -38 -24 -108 -32 -155 -9 -46 -25 -102 -36 -123 -17 -35 -18
-41 -5 -54 13 -13 19 -8 53 42 22 31 44 62 49 68 38 43 87 259 91 397 4 143
11 205 31 249 11 24 13 39 6 50 -12 19 -22 20 -87 12z"/>
<path d="M986 1068 c-12 -17 -16 -48 -16 -134 0 -108 -13 -211 -28 -225 -4 -4
-22 -10 -41 -13 -18 -2 -38 -9 -44 -15 -6 -6 -17 -11 -25 -11 -8 0 -42 -12
-76 -26 -72 -31 -88 -37 -141 -54 -51 -16 -105 -57 -105 -79 0 -20 36 -56 66
-65 13 -4 31 2 53 18 19 14 48 28 65 32 17 3 37 11 45 18 8 6 44 23 80 37 l66
27 3 -26 c9 -65 -81 -343 -130 -403 -14 -17 -102 -59 -123 -59 -22 0 -99 -38
-125 -62 l-25 -23 149 -3 c114 -2 154 1 170 11 12 8 40 18 64 22 23 4 44 11
48 16 3 5 15 9 28 9 12 0 26 4 32 10 13 13 169 54 334 89 19 4 51 15 70 23 73
33 139 58 150 58 20 0 70 40 70 56 0 8 -11 19 -24 25 -22 10 -76 1 -203 -37
-22 -6 -23 -4 -23 47 -1 30 -7 72 -15 94 -17 46 -20 125 -5 125 25 0 7 40 -27
61 -62 38 -84 41 -110 17 -26 -24 -29 -54 -9 -83 7 -11 17 -40 21 -65 4 -25
16 -65 27 -90 10 -25 22 -66 25 -91 l5 -46 -53 -7 c-29 -4 -60 -11 -70 -17
-10 -5 -55 -16 -101 -24 -46 -9 -109 -25 -141 -37 -32 -11 -60 -19 -62 -16 -2
2 29 72 69 154 41 83 77 170 81 193 4 24 21 67 38 97 24 41 38 55 61 60 17 3
40 11 51 18 11 7 42 18 68 26 29 8 64 27 85 47 36 34 36 35 17 50 -23 17 -69
12 -156 -17 -32 -11 -63 -20 -69 -20 -15 0 -12 62 6 154 13 60 22 85 40 99 28
22 31 53 7 65 -10 4 -43 9 -75 11 -49 2 -58 -1 -72 -21z m-138 -966 c4 -14
-34 -16 -42 -3 -6 10 13 21 28 17 6 -1 12 -8 14 -14z"/>
</g>
</svg>
