<?xml version="1.0" standalone="no"?>
<!DOCTYPE svg PUBLIC "-//W3C//DTD SVG 20010904//EN"
 "http://www.w3.org/TR/2001/REC-SVG-20010904/DTD/svg10.dtd">
<svg version="1.0" xmlns="http://www.w3.org/2000/svg"
 width="206.000000pt" height="205.000000pt" viewBox="0 0 206.000000 205.000000"
 preserveAspectRatio="xMidYMid meet">
<metadata>
Created by potrace 1.16, written by Peter Selinger 2001-2019
</metadata>
<g transform="translate(0.000000,205.000000) scale(0.100000,-0.100000)"
fill="#000000" stroke="none">
<path d="M1126 2019 c-3 -16 -2 -60 3 -97 5 -37 13 -135 16 -219 l7 -152 -34
-21 c-18 -11 -50 -25 -70 -30 -21 -6 -57 -15 -80 -21 -24 -6 -55 -23 -70 -37
-22 -20 -41 -27 -87 -30 -84 -6 -96 -21 -84 -104 17 -111 6 -293 -23 -404 -41
-153 -41 -154 -11 -154 20 0 29 10 51 55 14 30 30 55 34 55 19 0 49 149 62
310 10 119 15 149 30 164 5 5 10 21 10 33 0 21 2 22 22 12 29 -16 116 -5 166
20 23 12 49 21 58 21 33 0 179 83 232 131 30 27 62 49 72 49 9 0 23 7 30 15 7
8 23 15 37 15 13 0 34 10 46 23 27 27 49 41 105 68 23 11 42 24 42 29 0 6 11
10 25 10 29 0 29 1 10 -47 -15 -41 -68 -271 -90 -393 -26 -150 -52 -495 -37
-504 32 -20 81 141 117 389 15 96 76 368 97 430 33 98 76 181 123 239 39 48
46 62 43 94 -3 33 -6 37 -34 40 -23 2 -39 -4 -55 -20 -13 -13 -39 -33 -57 -43
-17 -11 -32 -23 -32 -27 0 -4 -5 -8 -11 -8 -6 0 -28 -13 -48 -28 -65 -51 -236
-151 -297 -174 -32 -13 -84 -39 -114 -59 -100 -65 -93 -77 -87 148 3 109 8
210 12 226 l7 27 -65 0 c-64 0 -65 0 -71 -31z"/>
<path d="M1392 1255 c-30 -18 -61 -40 -70 -48 -10 -8 -28 -18 -42 -22 -31 -9
-123 -50 -172 -75 -20 -11 -42 -20 -48 -20 -32 0 -112 -45 -121 -68 -12 -30
10 -69 44 -77 26 -7 110 29 177 74 25 17 50 31 56 31 6 0 17 6 23 13 6 8 29
19 51 26 22 6 40 16 40 22 0 5 16 17 35 26 19 9 35 20 35 25 0 4 5 8 11 8 21
0 89 62 89 80 0 18 -27 40 -47 40 -4 0 -32 -16 -61 -35z"/>
<path d="M1068 859 c-23 -13 -23 -42 3 -114 12 -33 23 -79 26 -102 l4 -42 -58
-16 c-32 -8 -87 -24 -123 -35 -36 -10 -77 -21 -91 -24 -32 -5 -85 -32 -94 -46
-13 -21 5 -58 32 -67 28 -10 100 5 153 32 14 7 43 16 65 19 22 4 55 16 73 27
18 10 37 19 43 19 23 0 2 -145 -37 -253 -37 -104 -50 -125 -84 -132 -17 -4
-43 -13 -58 -21 -15 -8 -33 -14 -39 -14 -7 0 -52 -19 -100 -42 l-88 -43 139
-3 c114 -2 154 1 220 18 44 11 88 20 98 20 10 0 26 4 36 9 9 4 67 20 127 35
94 23 139 28 315 33 114 3 211 10 218 15 20 17 14 46 -13 64 -21 14 -53 16
-196 15 -94 0 -174 -3 -178 -5 -4 -3 -34 -6 -67 -7 -32 -1 -75 -8 -94 -15 -35
-12 -79 -21 -153 -30 -37 -5 -38 -4 -31 18 4 13 20 48 37 78 17 31 35 87 43
130 13 78 31 163 40 192 2 9 21 24 40 33 19 9 38 24 41 32 4 9 15 25 25 35 43
43 9 58 -55 23 -27 -14 -54 -25 -61 -25 -29 0 -59 137 -36 164 6 9 9 20 5 26
-8 13 -104 13 -127 -1z"/>
<path d="M1446 488 c-19 -63 -20 -63 91 -145 58 -43 78 -52 98 -47 30 7 33 37
6 56 -11 8 -28 41 -39 73 -16 52 -23 61 -48 66 -51 11 -104 10 -108 -3z"/>
</g>
</svg>
