<?xml version="1.0" standalone="no"?>
<!DOCTYPE svg PUBLIC "-//W3C//DTD SVG 20010904//EN"
 "http://www.w3.org/TR/2001/REC-SVG-20010904/DTD/svg10.dtd">
<svg version="1.0" xmlns="http://www.w3.org/2000/svg"
 width="207.000000pt" height="205.000000pt" viewBox="0 0 207.000000 205.000000"
 preserveAspectRatio="xMidYMid meet">
<metadata>
Created by potrace 1.16, written by Peter Selinger 2001-2019
</metadata>
<g transform="translate(0.000000,205.000000) scale(0.100000,-0.100000)"
fill="#000000" stroke="none">
<path d="M1757 2021 c-18 -17 -67 -46 -108 -65 -41 -19 -105 -55 -144 -80 -38
-25 -84 -52 -101 -60 -17 -8 -35 -19 -39 -25 -3 -6 -47 -32 -98 -57 -50 -25
-107 -56 -126 -68 -20 -13 -70 -36 -111 -51 -41 -16 -86 -36 -100 -45 -14 -10
-56 -34 -95 -55 -88 -49 -177 -116 -211 -160 -24 -32 -25 -35 -9 -59 24 -37
56 -33 103 13 22 21 41 43 43 48 2 5 45 30 94 55 50 25 108 56 130 67 22 12
67 34 100 49 97 46 272 138 287 151 28 26 296 181 312 181 19 0 -41 -225 -102
-385 -17 -44 -43 -129 -57 -190 -15 -60 -31 -118 -37 -128 -5 -11 -62 -44
-126 -74 -65 -31 -154 -80 -199 -109 -45 -30 -87 -54 -94 -54 -12 0 -12 2 11
174 10 78 24 133 41 168 18 35 10 59 -21 71 -16 6 -30 15 -30 19 0 16 -51 7
-70 -12 -16 -16 -19 -28 -14 -55 3 -19 3 -47 0 -61 l-7 -27 -79 7 c-71 6 -82
4 -99 -13 -21 -21 -19 -49 6 -88 8 -12 13 -34 11 -50 -3 -27 -4 -28 -56 -25
-32 3 -59 -1 -67 -8 -19 -16 -19 -64 -1 -80 21 -16 86 -145 86 -168 0 -14 -17
-28 -57 -47 -32 -16 -89 -46 -128 -68 -38 -22 -92 -51 -120 -65 -27 -13 -52
-28 -55 -32 -3 -5 -37 -25 -75 -46 -39 -21 -83 -50 -100 -65 -25 -24 -28 -32
-19 -56 6 -18 20 -30 39 -36 32 -9 74 12 180 92 22 16 49 33 59 37 17 6 106
62 131 82 18 14 95 52 106 52 11 0 93 52 97 63 2 4 10 7 17 7 14 0 8 -42 -13
-98 -10 -25 -26 -85 -50 -177 -6 -22 -22 -71 -37 -109 -34 -90 -21 -106 34
-45 22 24 47 60 56 79 9 19 21 45 27 57 6 13 8 26 5 30 -4 3 0 17 9 31 9 13
26 54 39 91 64 182 105 252 155 269 15 6 64 35 108 65 44 30 118 76 164 101
45 26 90 51 98 56 8 6 41 21 73 35 68 30 91 63 63 94 -16 17 -16 25 -6 58 7
21 20 54 30 73 10 19 22 44 26 55 4 11 17 47 29 80 74 201 181 521 195 583 8
32 8 32 -31 32 -28 0 -47 -8 -72 -29z m-780 -897 c6 -16 -18 -166 -37 -234
-10 -35 -62 -76 -81 -65 -11 7 -29 72 -29 106 0 16 13 40 35 63 23 24 35 47
35 65 0 53 61 105 77 65z"/>
<path d="M811 1871 c-22 -22 -52 -119 -71 -231 -7 -41 -15 -87 -17 -102 -8
-41 20 -47 51 -11 14 15 26 32 26 36 0 5 9 20 20 34 11 14 20 39 20 55 0 16
11 50 24 76 36 70 50 130 35 148 -17 20 -66 17 -88 -5z"/>
<path d="M338 1292 c-41 -16 -55 -40 -39 -69 16 -30 49 -183 56 -258 9 -102
15 -125 31 -125 31 0 42 61 46 244 l3 178 -30 23 c-28 21 -32 21 -67 7z"/>
<path d="M1135 423 c-59 -11 -65 -14 -65 -36 1 -12 11 -34 23 -48 23 -28 105
-74 114 -65 3 3 15 0 26 -5 22 -12 54 -17 172 -24 89 -5 180 17 180 45 0 14
-55 23 -193 31 -18 1 -35 6 -38 10 -3 5 -24 13 -47 19 -46 12 -127 51 -127 61
0 10 -22 16 -45 12z"/>
</g>
</svg>
