<?xml version="1.0" standalone="no"?>
<!DOCTYPE svg PUBLIC "-//W3C//DTD SVG 20010904//EN"
 "http://www.w3.org/TR/2001/REC-SVG-20010904/DTD/svg10.dtd">
<svg version="1.0" xmlns="http://www.w3.org/2000/svg"
 width="209.000000pt" height="205.000000pt" viewBox="0 0 209.000000 205.000000"
 preserveAspectRatio="xMidYMid meet">
<metadata>
Created by potrace 1.16, written by Peter Selinger 2001-2019
</metadata>
<g transform="translate(0.000000,205.000000) scale(0.100000,-0.100000)"
fill="#000000" stroke="none">
<path d="M1815 1981 c-6 -5 -54 -33 -109 -61 -54 -28 -108 -57 -120 -65 -11
-7 -34 -17 -50 -21 -30 -7 -119 -54 -172 -91 -47 -32 -87 -57 -119 -73 -16 -8
-49 -27 -72 -43 -24 -15 -47 -27 -52 -27 -5 0 -14 -6 -20 -14 -6 -7 -26 -16
-43 -20 -17 -3 -39 -12 -47 -20 -9 -8 -41 -24 -71 -36 -132 -52 -225 -118
-232 -164 -3 -18 -11 -21 -52 -24 -49 -3 -96 -25 -96 -45 0 -6 7 -18 16 -28
12 -14 16 -50 19 -187 1 -94 6 -175 9 -181 11 -18 42 4 63 46 16 30 21 67 26
172 6 129 7 134 34 160 27 26 65 49 112 71 13 6 36 21 51 34 16 13 93 56 172
95 176 89 260 136 324 181 76 54 123 83 194 116 65 31 130 51 130 40 0 -7 -42
-224 -66 -341 -9 -44 -20 -91 -26 -105 -11 -29 -68 -241 -75 -282 -7 -39 -89
-106 -199 -163 -38 -20 -79 -43 -91 -52 -21 -14 -23 -14 -23 3 0 11 10 39 21
63 11 25 25 77 31 115 12 77 43 183 60 204 8 10 6 20 -8 39 -28 37 -47 47 -78
39 -35 -9 -44 -35 -63 -181 -8 -66 -26 -151 -40 -190 -14 -38 -35 -100 -47
-138 -21 -67 -21 -68 -86 -101 -36 -18 -119 -61 -184 -94 -66 -34 -124 -62
-129 -62 -5 0 -21 -8 -35 -18 -15 -11 -61 -32 -102 -47 -120 -45 -178 -126
-109 -152 28 -11 40 -8 113 24 44 20 90 44 101 54 11 10 49 31 85 47 98 44
112 51 155 77 52 32 79 33 70 3 -12 -42 -59 -163 -65 -168 -4 -3 -12 -26 -20
-53 -7 -26 -17 -50 -21 -53 -12 -7 -11 -34 1 -34 29 0 108 117 201 299 56 109
91 152 173 211 26 19 55 43 64 53 9 9 24 17 33 17 9 0 22 7 29 15 7 8 16 15
21 15 11 0 103 62 107 72 2 4 10 8 18 8 8 0 26 11 39 24 13 13 38 34 57 47 84
59 118 93 118 118 0 26 -15 26 -75 0 -25 -11 -49 -18 -52 -16 -2 3 2 20 10 39
30 70 46 114 53 148 3 19 15 46 25 60 10 14 30 75 43 135 49 217 69 291 93
339 26 53 55 161 45 170 -9 9 -57 7 -67 -3z"/>
<path d="M1125 1940 c-38 -14 -57 -44 -45 -74 5 -15 16 -29 24 -32 17 -7 46
-97 46 -144 0 -28 3 -31 26 -28 22 2 29 11 40 48 8 25 14 60 14 79 0 19 5 50
12 68 11 30 10 36 -8 54 -25 24 -82 39 -109 29z"/>
<path d="M941 1290 c-51 -8 -60 -30 -33 -85 12 -25 25 -45 30 -45 5 0 14 -22
21 -50 7 -27 17 -52 22 -56 5 -3 20 7 34 22 23 25 25 34 24 111 -2 101 -17
116 -98 103z"/>
<path d="M784 857 c-26 -23 -26 -23 -9 -57 9 -18 20 -54 24 -79 5 -36 10 -46
25 -46 22 0 56 58 56 97 0 14 7 34 16 42 8 9 14 26 12 38 -3 20 -10 23 -50 26
-37 2 -52 -3 -74 -21z"/>
<path d="M1216 291 c-30 -6 -46 -33 -38 -63 12 -48 139 -96 301 -113 14 -2 62
-8 106 -14 44 -6 127 -13 185 -16 58 -3 120 -11 138 -17 39 -14 67 -2 67 29 0
11 5 26 10 34 14 19 45 76 45 82 0 3 -9 7 -21 10 -19 5 -58 -4 -104 -23 -45
-19 -70 -21 -182 -10 -253 23 -350 42 -433 84 -30 15 -54 21 -74 17z"/>
</g>
</svg>
