<?xml version="1.0" standalone="no"?>
<!DOCTYPE svg PUBLIC "-//W3C//DTD SVG 20010904//EN"
 "http://www.w3.org/TR/2001/REC-SVG-20010904/DTD/svg10.dtd">
<svg version="1.0" xmlns="http://www.w3.org/2000/svg"
 width="208.000000pt" height="214.000000pt" viewBox="0 0 208.000000 214.000000"
 preserveAspectRatio="xMidYMid meet">
<metadata>
Created by potrace 1.16, written by Peter Selinger 2001-2019
</metadata>
<g transform="translate(0.000000,214.000000) scale(0.100000,-0.100000)"
fill="#000000" stroke="none">
<path d="M763 2068 c-27 -13 -37 -50 -24 -91 38 -122 61 -297 47 -369 -4 -24
-24 -54 -61 -92 -63 -64 -69 -93 -27 -118 15 -8 33 -13 41 -10 20 7 6 -41 -24
-87 -14 -19 -32 -56 -40 -82 -9 -25 -36 -70 -62 -100 -96 -112 -126 -187 -88
-219 12 -10 20 -9 42 6 16 10 36 28 46 40 10 13 26 26 37 29 11 4 31 28 45 55
14 27 30 52 36 55 6 4 61 18 122 30 121 25 120 24 276 103 128 65 124 62 151
120 12 26 30 56 40 67 25 29 66 157 95 298 14 67 34 142 45 167 10 25 21 73
25 107 5 55 4 63 -14 72 -16 9 -27 5 -60 -22 -22 -17 -59 -46 -83 -64 -24 -17
-52 -40 -64 -51 -11 -11 -36 -28 -55 -37 -41 -22 -67 -39 -187 -130 -98 -74
-134 -96 -140 -90 -2 2 2 28 8 58 9 37 10 88 5 158 -9 136 -21 169 -65 191
-41 20 -39 20 -67 6z m574 -270 c-24 -135 -50 -244 -94 -385 l-26 -82 -71 -27
c-39 -14 -96 -37 -126 -51 -51 -22 -194 -46 -212 -36 -16 9 39 86 90 124 53
41 56 46 46 73 -7 18 -69 23 -79 6 -3 -5 -17 -10 -31 -10 -14 0 -34 -5 -45
-10 -11 -6 -19 -7 -19 -1 0 14 70 78 130 119 30 20 82 61 114 89 54 48 105 85
211 152 22 14 53 36 68 48 39 32 50 29 44 -9z"/>
<path d="M525 1573 c-69 -6 -81 -20 -88 -106 -4 -39 -20 -130 -36 -202 -16
-71 -37 -191 -46 -265 -9 -74 -21 -150 -27 -168 -12 -39 -1 -56 24 -38 16 12
68 139 68 166 0 8 6 21 13 29 8 9 26 76 41 150 17 81 36 145 47 161 11 14 27
64 36 111 11 52 23 89 34 96 26 19 30 52 9 63 -10 6 -20 9 -22 8 -2 -1 -25 -3
-53 -5z"/>
<path d="M1440 1025 c-47 -13 -101 -30 -120 -38 -46 -20 -153 -43 -254 -55
-81 -10 -96 -19 -96 -59 0 -27 44 -53 90 -53 57 0 255 58 290 86 8 6 40 19 70
28 30 10 64 22 75 27 11 5 32 13 48 19 33 12 44 35 27 55 -16 19 -28 18 -130
-10z"/>
<path d="M940 1015 c-6 -8 -35 -25 -64 -38 -47 -22 -116 -89 -116 -114 0 -4
-41 -53 -91 -108 -78 -85 -142 -171 -221 -293 -9 -15 -53 -65 -96 -112 -125
-133 -203 -220 -260 -287 l-53 -63 48 0 c46 0 51 3 130 78 45 42 90 84 100 93
62 55 263 281 263 297 0 4 11 19 25 32 14 13 25 29 25 36 0 7 28 41 63 76 34
34 85 90 112 124 28 33 77 93 110 133 105 127 98 116 86 140 -14 24 -43 28
-61 6z"/>
<path d="M1052 597 c-12 -13 -22 -31 -22 -39 0 -25 50 -60 75 -53 35 11 119 5
134 -10 33 -32 1 -130 -47 -141 -32 -8 -245 -118 -270 -140 -9 -8 -32 -26 -49
-40 -37 -29 -42 -53 -15 -76 23 -21 78 -32 87 -18 3 5 41 30 83 55 42 25 104
70 137 100 33 30 63 55 67 55 9 0 70 98 85 135 37 96 -7 156 -137 185 -72 16
-104 12 -128 -13z"/>
<path d="M813 585 c-27 -19 -30 -59 -9 -102 22 -42 37 -126 45 -250 2 -21 26
-15 52 13 23 24 24 33 24 144 0 82 4 123 13 131 15 16 16 45 1 54 -5 4 -20 8
-32 10 -12 1 -33 5 -47 9 -16 4 -33 1 -47 -9z"/>
</g>
</svg>
