<?xml version="1.0" standalone="no"?>
<!DOCTYPE svg PUBLIC "-//W3C//DTD SVG 20010904//EN"
 "http://www.w3.org/TR/2001/REC-SVG-20010904/DTD/svg10.dtd">
<svg version="1.0" xmlns="http://www.w3.org/2000/svg"
 width="210.000000pt" height="210.000000pt" viewBox="0 0 210.000000 210.000000"
 preserveAspectRatio="xMidYMid meet">
<metadata>
Created by potrace 1.16, written by Peter Selinger 2001-2019
</metadata>
<g transform="translate(0.000000,210.000000) scale(0.100000,-0.100000)"
fill="#000000" stroke="none">
<path d="M1519 2045 c-41 -31 -91 -69 -111 -85 -20 -17 -40 -30 -43 -30 -4 0
-29 -18 -55 -40 -51 -43 -177 -120 -196 -120 -6 0 -14 13 -17 29 -14 70 -98
113 -152 77 -20 -13 -25 -25 -25 -56 0 -34 4 -41 24 -46 24 -6 46 -46 46 -84
0 -21 -58 -74 -119 -110 -150 -88 -211 -143 -211 -189 0 -20 8 -35 22 -45 31
-22 44 -20 77 12 94 88 216 174 264 186 25 6 27 4 27 -23 0 -34 -29 -56 -59
-46 -22 7 -91 -21 -92 -38 0 -6 -1 -45 -2 -85 l-2 -74 -40 -22 c-22 -11 -82
-52 -133 -89 -69 -51 -92 -73 -92 -90 1 -27 32 -67 53 -67 26 0 101 36 121 59
28 31 84 64 96 56 5 -3 10 -37 10 -75 0 -66 -1 -70 -33 -94 -19 -15 -39 -26
-45 -26 -16 0 -72 -79 -72 -101 0 -22 26 -49 49 -49 9 0 35 18 58 39 41 40
140 97 151 87 3 -3 0 -27 -7 -54 -7 -26 -23 -90 -36 -142 -13 -52 -30 -113
-39 -135 -8 -22 -22 -65 -30 -95 -8 -30 -32 -82 -52 -115 -20 -33 -53 -96 -75
-141 -21 -44 -48 -89 -59 -99 -24 -21 -26 -48 -5 -65 16 -13 20 -11 84 38 47
35 96 111 157 241 20 42 42 89 50 105 8 16 14 35 14 42 0 19 120 395 143 447
6 15 18 27 25 27 18 0 26 28 13 43 -12 16 26 55 96 100 52 33 56 33 73 2 13
-25 11 -35 -50 -225 -4 -14 -18 -59 -30 -100 -11 -41 -30 -100 -41 -131 -23
-67 -23 -69 -4 -69 28 0 117 119 131 175 4 17 20 61 37 99 29 69 44 117 72
228 8 32 19 66 24 75 46 87 60 206 28 233 -17 14 -17 20 -4 80 8 36 30 110 49
165 19 55 53 154 74 220 21 66 46 131 55 145 10 14 19 42 22 63 l6 37 -73 0
c-72 0 -73 0 -147 -55z m32 -177 c-51 -176 -52 -178 -79 -192 -15 -8 -40 -27
-56 -42 -33 -32 -114 -94 -121 -94 -3 0 -29 -16 -58 -35 -28 -19 -55 -35 -60
-35 -15 0 6 75 25 88 24 17 23 52 -1 59 -34 9 -32 32 4 68 19 19 37 35 40 35
9 0 139 92 170 121 17 15 49 37 73 49 23 12 42 26 42 31 0 5 9 9 19 9 19 0 19
-1 2 -62z m-115 -365 c-4 -16 -11 -48 -16 -73 -15 -79 -38 -134 -66 -154 -15
-11 -41 -33 -58 -48 -32 -30 -137 -98 -151 -98 -12 0 1 143 16 175 8 17 62 65
124 112 61 46 117 90 125 98 22 23 33 18 26 -12z m-396 -118 c0 -8 -4 -15 -10
-15 -5 0 -7 7 -4 15 4 8 8 15 10 15 2 0 4 -7 4 -15z m-14 -333 c-31 -31 -34
97 -3 165 11 25 12 20 15 -61 2 -68 -1 -93 -12 -104z"/>
<path d="M492 1338 c-31 -15 -36 -46 -17 -92 19 -45 23 -253 6 -298 -5 -15
-13 -61 -17 -103 -6 -71 -6 -77 12 -73 45 8 114 204 114 325 0 41 5 75 11 79
6 3 8 16 5 29 -4 16 2 30 24 51 38 38 40 71 3 78 -69 12 -120 14 -141 4z"/>
<path d="M638 793 c-32 -8 -33 -50 -2 -117 15 -33 34 -69 42 -78 8 -9 18 -36
23 -59 16 -71 49 -92 70 -45 20 43 -21 247 -57 287 -16 18 -39 22 -76 12z"/>
<path d="M1715 553 c-4 -16 -8 -36 -10 -45 -4 -23 12 -156 24 -188 5 -14 17
-51 27 -82 l18 -57 -31 -28 c-16 -15 -54 -41 -82 -58 -29 -16 -69 -41 -89 -54
-32 -21 -52 -25 -150 -29 -123 -5 -182 6 -244 44 -50 32 -59 66 -57 233 1 123
-1 144 -16 161 -20 22 -73 27 -80 8 -9 -26 -13 -372 -5 -394 5 -13 18 -32 30
-44 19 -19 31 -20 343 -20 l324 0 40 29 c22 16 64 42 93 59 l54 31 -3 53 c-1
29 -6 58 -11 63 -4 6 -20 42 -35 80 -83 213 -99 251 -109 257 -19 13 -25 9
-31 -19z"/>
</g>
</svg>
