<?xml version="1.0" standalone="no"?>
<!DOCTYPE svg PUBLIC "-//W3C//DTD SVG 20010904//EN"
 "http://www.w3.org/TR/2001/REC-SVG-20010904/DTD/svg10.dtd">
<svg version="1.0" xmlns="http://www.w3.org/2000/svg"
 width="207.000000pt" height="212.000000pt" viewBox="0 0 207.000000 212.000000"
 preserveAspectRatio="xMidYMid meet">
<metadata>
Created by potrace 1.16, written by Peter Selinger 2001-2019
</metadata>
<g transform="translate(0.000000,212.000000) scale(0.100000,-0.100000)"
fill="#000000" stroke="none">
<path d="M1319 2091 c-112 -57 -286 -155 -358 -203 -41 -27 -88 -56 -105 -65
-17 -9 -33 -19 -36 -23 -3 -4 -25 -17 -50 -30 -68 -34 -262 -166 -311 -211
-23 -21 -46 -39 -49 -39 -4 0 -13 -13 -20 -29 -9 -24 -9 -33 3 -53 14 -21 14
-35 -3 -138 -11 -64 -26 -132 -34 -151 -8 -20 -18 -59 -22 -87 -9 -72 13 -69
48 6 76 163 112 248 135 325 3 10 15 17 29 17 14 0 30 10 41 26 16 25 16 27
-2 40 -18 14 -16 17 37 67 31 30 87 73 125 96 37 24 96 62 129 84 34 23 75 50
90 59 16 10 36 22 44 27 8 6 56 35 105 64 84 51 132 77 295 164 36 20 71 40
78 46 29 24 28 12 -25 -268 -23 -122 -67 -272 -103 -350 -18 -38 -44 -95 -58
-125 -14 -30 -35 -68 -46 -83 -50 -67 -78 -96 -89 -92 -36 12 -94 11 -142 -1
-30 -8 -58 -13 -62 -12 -21 5 -101 -16 -125 -34 -35 -24 -37 -62 -5 -83 22
-14 29 -13 83 4 115 36 185 54 191 47 10 -10 -95 -106 -115 -106 -10 0 -41 -6
-70 -14 -60 -15 -195 -7 -230 15 -25 15 -50 6 -61 -23 -24 -64 64 -95 220 -79
81 9 109 19 199 70 44 25 79 41 89 41 6 0 19 7 30 16 59 51 71 65 71 87 0 13
15 43 33 67 17 24 46 67 62 97 17 29 37 61 46 71 9 10 22 32 31 48 8 16 19 38
25 49 24 44 43 93 58 150 10 33 21 69 26 80 14 32 66 256 99 428 l7 37 -126 0
c-118 -1 -129 -3 -182 -29z"/>
<path d="M526 1929 c-14 -11 -26 -28 -26 -38 0 -29 53 -72 86 -70 16 1 51 -10
78 -24 46 -25 50 -26 61 -10 7 10 15 32 18 48 3 17 9 42 12 57 9 36 -9 44
-117 51 -77 5 -90 4 -112 -14z"/>
<path d="M1169 1697 c-24 -13 -54 -29 -64 -35 -30 -17 -131 -62 -138 -62 -6 0
-122 -76 -261 -170 -12 -8 -37 -25 -56 -37 -50 -32 -91 -88 -97 -131 -4 -31 0
-41 22 -62 22 -21 38 -25 100 -28 67 -4 79 -1 120 23 57 33 49 49 -31 65 -30
6 -54 15 -54 18 0 11 32 55 50 70 15 12 82 61 168 122 23 16 53 32 67 36 13 3
29 12 36 20 6 8 18 14 26 14 8 0 34 14 58 30 24 17 48 30 53 30 5 0 15 7 22
15 7 8 32 25 57 37 33 17 43 27 41 42 -5 32 -62 33 -119 3z"/>
<path d="M1559 1220 c-9 -5 -32 -24 -51 -42 -48 -46 -101 -88 -110 -88 -4 0
-38 -23 -75 -51 -37 -28 -82 -57 -99 -65 -17 -7 -57 -33 -90 -57 -32 -24 -86
-59 -119 -77 -33 -18 -75 -47 -94 -64 -18 -17 -42 -39 -52 -48 -26 -24 -24
-54 4 -73 29 -18 88 -4 130 31 37 31 47 30 47 -3 -1 -104 -24 -137 -110 -159
-69 -17 -90 -33 -90 -70 0 -40 28 -57 79 -49 99 15 106 10 90 -80 -11 -63 -14
-68 -46 -81 -18 -8 -38 -12 -42 -9 -5 2 -14 -2 -21 -10 -7 -8 -22 -15 -34 -15
-30 0 -119 -31 -128 -44 -12 -17 -9 -71 4 -84 7 -7 23 -12 37 -12 51 0 198 66
321 144 36 23 74 47 85 54 11 6 31 17 45 24 61 29 110 100 58 83 -13 -3 -30
-8 -39 -9 -9 -1 -40 -14 -70 -28 -84 -41 -95 -41 -91 6 2 21 12 55 23 74 10
20 19 46 19 58 0 26 44 83 99 126 44 36 61 72 42 91 -9 9 -24 6 -62 -15 -47
-27 -49 -27 -49 -7 0 19 42 71 66 80 6 2 14 16 17 30 9 35 -11 43 -57 24 -50
-21 -53 -19 -20 16 31 33 90 74 139 99 17 8 54 32 83 53 30 21 56 37 58 34 3
-3 -4 -70 -15 -149 -12 -79 -25 -195 -31 -258 -22 -263 -48 -432 -70 -454 -5
-5 -23 -11 -38 -12 -15 -1 -28 -3 -30 -3 -1 -1 2 -9 7 -19 13 -24 65 -27 102
-5 19 11 34 31 41 55 6 21 14 38 18 38 13 0 30 78 35 155 2 42 6 79 9 83 2 4
11 72 20 152 24 208 55 386 78 444 30 75 49 156 43 177 -7 20 -39 25 -66 9z"/>
<path d="M710 580 c-14 -4 -45 -14 -70 -21 -62 -19 -67 -53 -16 -110 39 -42
39 -45 40 -159 1 -72 2 -75 26 -78 51 -6 64 17 68 120 2 51 -1 111 -6 131 -12
43 -7 67 13 67 21 0 27 17 15 40 -11 21 -28 23 -70 10z"/>
</g>
</svg>
