<?xml version="1.0" standalone="no"?>
<!DOCTYPE svg PUBLIC "-//W3C//DTD SVG 20010904//EN"
 "http://www.w3.org/TR/2001/REC-SVG-20010904/DTD/svg10.dtd">
<svg version="1.0" xmlns="http://www.w3.org/2000/svg"
 width="210.000000pt" height="210.000000pt" viewBox="0 0 210.000000 210.000000"
 preserveAspectRatio="xMidYMid meet">
<metadata>
Created by potrace 1.16, written by Peter Selinger 2001-2019
</metadata>
<g transform="translate(0.000000,210.000000) scale(0.100000,-0.100000)"
fill="#000000" stroke="none">
<path d="M785 2066 c8 -19 18 -67 21 -106 6 -57 10 -70 23 -68 8 2 22 17 30
33 8 17 18 38 23 47 4 10 8 43 8 73 l0 55 -59 0 -60 0 14 -34z"/>
<path d="M1255 2050 c-49 -27 -162 -85 -250 -129 -88 -45 -173 -90 -190 -101
-16 -11 -39 -20 -49 -20 -11 0 -34 -11 -51 -24 -25 -20 -43 -25 -84 -24 -64 2
-80 -13 -87 -78 -3 -27 -12 -87 -21 -134 -26 -142 -58 -375 -55 -393 6 -32 32
-17 53 31 12 26 25 56 30 67 8 18 43 146 70 260 6 22 14 44 20 50 5 5 9 19 9
32 0 24 15 31 23 11 3 -9 10 -6 22 10 9 12 23 22 31 22 8 0 14 5 14 10 0 6 5
10 11 10 6 0 29 15 50 34 22 18 79 54 127 78 184 94 288 152 312 173 14 12 47
28 74 35 41 11 196 111 196 126 0 2 -37 4 -82 3 -80 0 -86 -2 -173 -49z"/>
<path d="M1525 2088 c-9 -30 -53 -294 -81 -488 -9 -63 -18 -130 -21 -147 -9
-56 21 -40 50 26 14 32 30 62 36 66 6 3 11 17 11 31 0 14 5 34 11 46 6 11 22
77 35 146 13 70 33 170 43 222 11 52 20 98 20 103 1 13 -99 8 -104 -5z"/>
<path d="M1336 1855 c-26 -8 -60 -25 -75 -38 -14 -14 -36 -28 -49 -32 -25 -7
-144 -73 -152 -83 -8 -12 -100 -72 -109 -72 -4 0 -40 -30 -79 -68 -76 -71 -87
-98 -58 -138 12 -16 25 -19 88 -17 103 3 118 8 118 40 0 14 -7 31 -17 38 -23
17 -11 39 39 74 24 17 69 50 102 73 120 86 197 128 234 128 44 0 57 8 66 38 9
28 -17 72 -42 71 -9 0 -39 -7 -66 -14z"/>
<path d="M1171 1301 c-1 -10 -10 -12 -32 -7 -36 7 -134 -36 -150 -67 -16 -29
15 -70 51 -69 3 0 20 3 38 7 l33 7 -35 -71 c-46 -91 -86 -136 -140 -156 -41
-16 -46 -16 -69 0 -38 25 -54 54 -59 113 -3 30 -12 60 -21 69 -14 14 -18 13
-41 -10 -22 -22 -26 -35 -26 -84 0 -66 19 -108 65 -146 89 -73 234 -22 318
112 16 25 34 51 41 56 19 16 58 120 58 157 1 32 -30 118 -31 89z"/>
<path d="M1473 1188 c-44 -40 -129 -111 -188 -158 -59 -47 -121 -96 -138 -110
-18 -14 -52 -36 -77 -49 -25 -13 -54 -32 -65 -41 -11 -10 -34 -25 -52 -34 -18
-9 -36 -22 -40 -30 -4 -7 -18 -18 -30 -25 -35 -18 -31 -66 7 -86 33 -17 90
-20 90 -5 0 17 102 110 145 132 28 15 130 88 165 120 53 46 133 108 141 108 6
0 6 -7 0 -18 -6 -11 -17 -77 -26 -148 -8 -71 -22 -165 -30 -209 -8 -44 -19
-133 -24 -199 -5 -65 -13 -122 -18 -126 -10 -9 -68 -30 -113 -40 -19 -5 -62
-18 -95 -30 -88 -31 -113 -38 -118 -34 -2 3 4 30 14 61 11 31 19 67 19 81 0
32 29 79 52 85 14 4 17 11 12 35 -5 25 -1 33 28 56 19 14 39 26 44 26 19 0
144 129 144 148 0 25 -25 35 -51 21 -18 -9 -19 -7 -13 15 9 37 -17 43 -74 18
-26 -11 -60 -25 -77 -29 -24 -7 -37 -23 -67 -81 -35 -68 -42 -75 -100 -105
-43 -22 -64 -39 -66 -53 -4 -24 33 -74 55 -74 14 0 15 -12 10 -93 -10 -145 -4
-138 -162 -208 -16 -7 -33 -15 -36 -17 -11 -5 -21 69 -11 81 12 16 22 86 33
232 13 172 20 225 29 225 12 0 20 28 13 46 -4 12 -14 14 -36 10 -16 -3 -36 -1
-42 4 -9 8 -23 5 -46 -8 -30 -17 -34 -23 -30 -53 7 -67 6 -366 -2 -481 l-8
-116 32 -16 c21 -11 59 -16 113 -16 73 0 85 3 126 30 25 16 49 30 54 30 4 0
21 11 38 25 16 14 38 25 47 25 10 0 35 11 55 25 20 14 49 28 64 32 15 3 52 19
84 35 31 15 62 28 67 28 14 0 14 -43 -1 -92 -9 -32 -9 -41 3 -54 13 -13 18
-11 40 13 25 27 49 91 49 129 0 10 10 28 21 41 17 17 19 26 11 36 -6 7 -9 29
-7 48 3 19 10 75 16 124 6 50 20 132 30 183 10 52 26 142 34 200 20 134 30
174 62 237 20 41 23 57 17 100 -6 45 -16 64 -35 65 -3 0 -42 -33 -86 -72z"/>
</g>
</svg>
