<?xml version="1.0" standalone="no"?>
<!DOCTYPE svg PUBLIC "-//W3C//DTD SVG 20010904//EN"
 "http://www.w3.org/TR/2001/REC-SVG-20010904/DTD/svg10.dtd">
<svg version="1.0" xmlns="http://www.w3.org/2000/svg"
 width="204.000000pt" height="207.000000pt" viewBox="0 0 204.000000 207.000000"
 preserveAspectRatio="xMidYMid meet">
<metadata>
Created by potrace 1.16, written by Peter Selinger 2001-2019
</metadata>
<g transform="translate(0.000000,207.000000) scale(0.100000,-0.100000)"
fill="#000000" stroke="none">
<path d="M1357 1733 l-28 -15 7 -118 7 -118 -41 -26 c-23 -14 -46 -26 -51 -26
-22 0 -207 -64 -240 -83 -64 -36 -70 -44 -61 -84 5 -20 15 -40 22 -44 33 -21
117 1 152 40 19 20 89 61 106 61 5 0 26 11 46 25 20 14 40 25 45 25 12 0 8
-245 -7 -395 -7 -71 -13 -239 -12 -373 0 -134 -2 -246 -5 -249 -18 -17 -135
67 -292 210 -28 26 -62 47 -74 47 -20 0 -21 -2 -7 -28 8 -15 29 -44 47 -64
143 -158 192 -206 249 -243 36 -23 76 -54 89 -69 14 -14 33 -26 43 -26 19 0
42 44 34 66 -2 6 1 17 7 23 9 9 12 99 12 324 1 172 6 375 13 452 6 77 13 178
16 225 3 49 11 98 20 115 9 17 16 35 16 41 0 15 51 52 113 84 26 14 47 28 47
32 0 5 9 8 19 8 27 0 68 57 52 73 -8 8 -19 8 -44 -2 -17 -7 -46 -18 -62 -25
-17 -6 -42 -18 -55 -27 -14 -9 -35 -18 -48 -21 -18 -5 -23 -1 -29 19 -8 34 9
58 38 56 34 -3 69 6 69 17 0 18 -55 61 -91 70 -20 6 -42 17 -49 25 -15 18 -36
18 -73 -2z"/>
<path d="M1060 905 c-36 -25 -72 -49 -80 -55 -63 -42 -141 -90 -147 -90 -16 0
-103 -95 -103 -112 0 -25 28 -48 58 -48 20 0 46 18 93 63 36 34 92 85 123 112
131 115 165 153 149 169 -12 12 -28 5 -93 -39z"/>
</g>
</svg>
