<?xml version="1.0" standalone="no"?>
<!DOCTYPE svg PUBLIC "-//W3C//DTD SVG 20010904//EN"
 "http://www.w3.org/TR/2001/REC-SVG-20010904/DTD/svg10.dtd">
<svg version="1.0" xmlns="http://www.w3.org/2000/svg"
 width="208.000000pt" height="207.000000pt" viewBox="0 0 208.000000 207.000000"
 preserveAspectRatio="xMidYMid meet">
<metadata>
Created by potrace 1.16, written by Peter Selinger 2001-2019
</metadata>
<g transform="translate(0.000000,207.000000) scale(0.100000,-0.100000)"
fill="#000000" stroke="none">
<path d="M1732 1962 c-51 -5 -79 -75 -93 -235 -6 -67 -16 -128 -22 -135 -6 -7
-42 -34 -81 -59 -39 -25 -78 -52 -86 -60 -37 -35 -152 -114 -215 -148 -39 -20
-86 -49 -105 -64 -20 -16 -54 -38 -78 -50 -40 -21 -92 -85 -92 -114 0 -18 32
-47 53 -47 9 0 36 17 61 38 25 20 73 57 106 82 34 25 66 50 73 55 7 6 37 23
67 39 30 16 66 40 80 53 14 13 69 58 123 99 l97 74 0 -44 c0 -120 -23 -471
-36 -546 -8 -47 -21 -134 -29 -195 -7 -60 -18 -137 -24 -170 -6 -32 -14 -106
-17 -162 -4 -57 -10 -106 -14 -108 -4 -2 -19 21 -34 53 -15 31 -32 64 -37 72
-5 8 -19 35 -30 60 -62 138 -91 191 -109 202 -11 7 -20 18 -20 25 0 6 -12 26
-27 43 l-26 32 49 41 c71 60 104 94 104 107 0 21 -32 22 -59 2 -15 -11 -57
-29 -92 -40 -136 -43 -157 -59 -140 -106 11 -28 62 -42 91 -24 15 10 23 9 39
-6 12 -11 21 -25 21 -31 0 -7 9 -23 19 -37 11 -13 29 -56 41 -94 71 -227 97
-299 140 -389 27 -55 51 -108 54 -117 7 -24 52 -51 74 -44 27 9 39 76 57 311
8 110 19 218 24 240 5 22 12 71 16 110 4 38 8 72 10 76 17 26 65 540 65 689 0
106 16 151 77 217 70 75 70 87 0 58 -20 -8 -39 -19 -42 -25 -4 -6 -11 -8 -16
-4 -18 11 2 116 33 181 41 84 31 103 -50 95z"/>
<path d="M1177 1740 c-16 -5 -43 -20 -60 -33 -18 -13 -57 -37 -87 -52 -30 -15
-73 -40 -95 -56 -22 -15 -74 -42 -115 -60 -41 -17 -82 -37 -91 -45 -8 -8 -18
-14 -22 -14 -13 0 -234 -151 -278 -189 -25 -23 -60 -48 -77 -56 -17 -9 -41
-27 -54 -41 -13 -15 -32 -35 -42 -47 -14 -14 -20 -36 -20 -66 -1 -40 2 -47 27
-59 25 -12 31 -12 48 4 10 9 19 23 19 31 0 15 137 155 168 172 34 18 39 13 45
-42 7 -58 32 -135 67 -211 27 -57 28 -54 -57 -241 -53 -115 -113 -278 -154
-415 -10 -36 -26 -82 -34 -103 -18 -44 -13 -57 19 -57 28 0 78 60 96 115 7 22
23 63 35 90 12 28 30 77 39 109 10 33 31 89 48 125 16 36 41 90 54 120 14 29
27 51 29 49 2 -2 27 -49 56 -103 28 -55 65 -117 83 -138 58 -72 140 -148 156
-145 17 4 27 37 13 47 -4 3 -19 30 -32 59 -14 28 -28 52 -33 52 -5 0 -14 12
-20 28 -7 15 -23 45 -37 67 -31 50 -73 136 -95 194 -28 73 -23 110 28 216 25
53 46 99 46 102 0 2 15 23 34 46 34 43 96 151 96 168 0 17 144 185 223 261 58
55 68 130 18 127 -9 0 -29 -5 -44 -9z m-298 -346 c-29 -54 -58 -106 -66 -115
-8 -9 -38 -60 -67 -113 -30 -54 -57 -93 -60 -87 -4 6 -11 36 -16 68 -8 46 -7
62 6 81 19 29 10 58 -21 66 -14 4 -25 10 -25 15 0 12 99 86 140 105 19 9 62
31 95 49 33 19 61 33 63 32 1 -1 -21 -46 -49 -101z"/>
</g>
</svg>
