<?xml version="1.0" standalone="no"?>
<!DOCTYPE svg PUBLIC "-//W3C//DTD SVG 20010904//EN"
 "http://www.w3.org/TR/2001/REC-SVG-20010904/DTD/svg10.dtd">
<svg version="1.0" xmlns="http://www.w3.org/2000/svg"
 width="204.000000pt" height="204.000000pt" viewBox="0 0 204.000000 204.000000"
 preserveAspectRatio="xMidYMid meet">
<metadata>
Created by potrace 1.16, written by Peter Selinger 2001-2019
</metadata>
<g transform="translate(0.000000,204.000000) scale(0.100000,-0.100000)"
fill="#000000" stroke="none">
<path d="M1292 1976 c-16 -15 -34 -26 -39 -26 -5 0 -20 -12 -34 -26 -13 -14
-48 -39 -79 -56 -30 -17 -67 -42 -82 -54 -15 -12 -44 -28 -65 -34 -21 -6 -69
-26 -106 -43 -75 -34 -93 -63 -62 -97 30 -33 62 -33 114 -2 26 16 58 33 72 37
13 4 53 26 89 50 36 23 76 47 89 54 23 13 23 13 17 -36 -3 -26 -8 -88 -11
-138 -4 -49 -8 -106 -10 -125 -2 -19 -7 -66 -11 -105 -3 -38 -12 -101 -20
-138 -18 -90 -18 -109 2 -105 16 3 54 102 54 140 0 9 14 47 30 84 24 54 34 94
46 203 16 152 37 247 66 304 27 53 22 131 -8 135 -12 2 -35 -8 -52 -22z"/>
<path d="M633 1958 c-32 -15 -51 -73 -58 -174 -8 -107 -26 -181 -100 -419 -31
-99 -61 -196 -66 -215 -5 -19 -27 -84 -49 -144 -40 -109 -48 -146 -32 -146 5
0 16 8 25 18 23 26 137 253 137 274 0 9 6 21 13 25 16 9 34 56 83 218 57 189
74 253 74 275 0 12 8 40 19 63 10 23 21 74 25 113 5 63 3 75 -15 98 -23 29
-24 29 -56 14z"/>
<path d="M950 1504 c-21 -25 -29 -95 -40 -364 -5 -140 -12 -273 -14 -295 -3
-22 -7 -128 -11 -235 -3 -107 -8 -197 -11 -200 -11 -9 -73 72 -88 114 -29 84
-48 194 -53 303 -7 133 -16 149 -82 138 -68 -11 -174 -113 -213 -205 -11 -25
-31 -66 -44 -93 -30 -57 -29 -101 3 -105 15 -2 27 5 39 25 10 15 35 47 56 70
21 24 38 48 38 54 0 11 49 72 102 127 12 12 29 21 37 20 20 -4 40 -101 41
-199 0 -159 28 -233 124 -333 65 -69 91 -79 118 -48 16 17 37 128 36 192 0 75
24 595 29 602 2 5 4 58 4 120 0 61 4 117 9 123 10 12 24 69 37 147 5 34 3 38
-21 48 -39 15 -82 12 -96 -6z m19 -267 c0 -21 -1 -21 -9 -2 -12 28 -12 37 0
30 6 -3 10 -16 9 -28z"/>
<path d="M1065 829 c-4 -5 -1 -18 7 -27 8 -9 20 -30 28 -45 17 -35 34 -44 88
-51 30 -3 51 -14 77 -40 40 -41 69 -46 85 -16 28 52 -48 137 -154 173 -56 19
-122 22 -131 6z"/>
</g>
</svg>
