<?xml version="1.0" standalone="no"?>
<!DOCTYPE svg PUBLIC "-//W3C//DTD SVG 20010904//EN"
 "http://www.w3.org/TR/2001/REC-SVG-20010904/DTD/svg10.dtd">
<svg version="1.0" xmlns="http://www.w3.org/2000/svg"
 width="208.000000pt" height="203.000000pt" viewBox="0 0 208.000000 203.000000"
 preserveAspectRatio="xMidYMid meet">
<metadata>
Created by potrace 1.16, written by Peter Selinger 2001-2019
</metadata>
<g transform="translate(0.000000,203.000000) scale(0.100000,-0.100000)"
fill="#000000" stroke="none">
<path d="M872 1893 c-28 -14 -53 -33 -54 -42 -2 -9 12 -56 31 -106 55 -147 54
-303 -4 -341 -16 -10 -51 -17 -102 -18 -96 -3 -133 -19 -133 -56 0 -41 25 -55
92 -53 32 1 58 0 58 -2 0 -5 -124 -172 -163 -219 -44 -53 -51 -66 -40 -77 9
-9 83 37 83 52 0 5 9 13 19 19 16 8 25 4 51 -20 39 -36 59 -37 108 -7 33 21
156 82 214 107 13 5 30 14 38 19 8 5 62 37 120 71 58 34 127 77 154 96 26 19
52 34 56 34 11 0 19 -49 31 -185 10 -124 14 -1043 4 -1053 -6 -6 -105 38 -105
48 0 4 -21 22 -47 40 -27 18 -53 40 -60 48 -6 7 -16 11 -22 7 -27 -16 -7 -50
70 -125 79 -77 137 -110 194 -110 11 0 26 -5 33 -12 17 -17 39 17 46 72 10 77
5 949 -6 1065 -6 61 -13 170 -17 244 -8 171 -10 173 -112 102 -41 -28 -99 -70
-129 -92 -30 -22 -73 -50 -95 -61 -22 -11 -42 -24 -45 -28 -3 -4 -21 -15 -40
-24 -19 -9 -62 -33 -95 -52 -33 -20 -89 -44 -125 -54 -36 -9 -75 -22 -88 -29
-12 -6 -22 -9 -22 -6 0 3 40 47 90 98 91 94 149 170 150 197 1 21 80 105 168
180 75 63 88 92 45 98 -12 2 -39 -8 -60 -22 -21 -14 -41 -26 -45 -26 -5 0 -34
-21 -66 -47 l-57 -46 -7 39 c-26 133 -34 192 -27 210 14 36 10 73 -10 84 -25
13 -19 14 -79 -17z m522 -474 c-3 -5 -10 -7 -15 -3 -5 3 -7 10 -3 15 3 5 10 7
15 3 5 -3 7 -10 3 -15z m-164 -99 c0 -5 -5 -10 -11 -10 -5 0 -7 5 -4 10 3 6 8
10 11 10 2 0 4 -4 4 -10z m250 -24 c0 -3 -4 -8 -10 -11 -5 -3 -10 -1 -10 4 0
6 5 11 10 11 6 0 10 -2 10 -4z m-330 -32 c0 -8 -5 -12 -10 -9 -6 4 -8 11 -5
16 9 14 15 11 15 -7z m-150 -84 c0 -5 -5 -10 -11 -10 -5 0 -7 5 -4 10 3 6 8
10 11 10 2 0 4 -4 4 -10z m-70 -30 c-20 -13 -43 -13 -35 0 3 6 16 10 28 10 18
0 19 -2 7 -10z"/>
<path d="M493 910 c-38 -23 -38 -22 -19 -81 38 -120 48 -175 59 -303 7 -82 17
-141 23 -143 6 -2 24 16 40 39 l29 43 -1 162 c-2 266 -37 341 -131 283z"/>
<path d="M1119 883 c-29 -35 11 -98 55 -87 20 5 27 0 39 -23 25 -49 27 -80 12
-151 -17 -81 -31 -119 -59 -149 -45 -52 -89 -7 -115 118 -4 19 -11 41 -15 48
-5 7 -12 42 -16 78 -10 75 -22 95 -46 72 -24 -25 -30 -151 -10 -227 18 -67 74
-165 105 -181 10 -6 36 -13 57 -17 34 -5 45 -1 89 32 61 46 60 44 86 123 54
169 24 328 -70 367 -45 19 -95 18 -112 -3z"/>
</g>
</svg>
