<?xml version="1.0" standalone="no"?>
<!DOCTYPE svg PUBLIC "-//W3C//DTD SVG 20010904//EN"
 "http://www.w3.org/TR/2001/REC-SVG-20010904/DTD/svg10.dtd">
<svg version="1.0" xmlns="http://www.w3.org/2000/svg"
 width="207.000000pt" height="203.000000pt" viewBox="0 0 207.000000 203.000000"
 preserveAspectRatio="xMidYMid meet">
<metadata>
Created by potrace 1.16, written by Peter Selinger 2001-2019
</metadata>
<g transform="translate(0.000000,203.000000) scale(0.100000,-0.100000)"
fill="#000000" stroke="none">
<path d="M1002 1943 c-28 -11 -33 -54 -21 -187 6 -72 8 -168 4 -214 -6 -78 -8
-82 -33 -89 -14 -3 -49 -1 -76 5 -175 41 -236 37 -236 -12 0 -18 9 -29 33 -40
32 -16 151 -29 238 -26 64 1 71 -25 24 -91 -37 -49 -43 -69 -22 -69 6 -1 -2
-9 -19 -18 -55 -31 -104 -74 -104 -92 0 -26 27 -50 55 -50 14 0 41 10 62 21
21 12 67 37 103 56 89 47 226 137 355 232 22 17 67 49 100 73 33 23 84 62 114
86 29 24 57 40 62 35 4 -4 2 -58 -6 -118 -8 -61 -17 -132 -20 -160 -3 -27 -8
-57 -10 -65 -17 -60 -54 -481 -55 -625 -2 -278 -9 -398 -22 -411 -31 -28 -64
-24 -141 16 -49 26 -78 36 -82 29 -7 -11 72 -93 117 -123 40 -26 107 -28 156
-4 73 35 73 35 78 325 5 268 17 497 35 643 58 480 74 554 143 630 37 42 40 48
30 74 -4 11 -19 16 -50 16 -38 0 -48 -5 -91 -48 -26 -27 -88 -77 -138 -112
-49 -35 -110 -80 -135 -100 -25 -20 -83 -58 -130 -85 -47 -26 -88 -52 -91 -58
-4 -5 -23 -19 -42 -31 -20 -11 -67 -39 -104 -62 -38 -23 -81 -44 -96 -48 -27
-6 -28 -6 -13 17 9 12 43 45 76 72 33 28 84 79 113 115 28 36 71 85 93 110 23
25 52 65 64 88 13 24 29 46 36 49 7 3 16 15 20 26 8 27 94 117 111 117 19 0
29 50 12 61 -41 27 -58 22 -125 -37 -37 -32 -78 -79 -92 -107 -22 -39 -97
-147 -149 -212 -5 -5 -16 -22 -26 -37 -21 -34 -42 -37 -32 -5 4 12 11 97 15
189 6 128 11 173 24 192 20 31 20 31 0 50 -15 15 -83 21 -112 9z m618 -1400
c0 -10 -5 -25 -10 -33 -7 -11 -10 -7 -10 18 0 17 5 32 10 32 6 0 10 -8 10 -17z"/>
<path d="M553 1009 c-39 -25 -40 -30 -12 -55 32 -29 45 -62 60 -152 10 -66 10
-102 1 -175 -13 -101 -37 -186 -58 -203 -21 -17 -17 -41 8 -47 33 -9 65 26
108 118 31 67 39 98 49 187 6 64 7 118 2 135 -5 15 -15 57 -22 92 -14 71 -48
121 -82 121 -12 0 -37 -10 -54 -21z"/>
<path d="M1250 1000 c-21 -21 -19 -36 9 -80 35 -53 7 -222 -47 -293 -31 -42
-49 -52 -68 -37 -28 24 -58 153 -70 304 -5 61 -16 86 -40 86 -29 0 -37 -41
-32 -164 6 -139 25 -201 83 -272 26 -31 44 -44 62 -44 35 0 112 40 125 65 6
11 20 31 33 45 12 14 27 41 34 60 7 19 18 46 24 59 13 27 16 168 4 223 -4 21
-15 44 -23 53 -22 21 -70 19 -94 -5z"/>
</g>
</svg>
