<?xml version="1.0" standalone="no"?>
<!DOCTYPE svg PUBLIC "-//W3C//DTD SVG 20010904//EN"
 "http://www.w3.org/TR/2001/REC-SVG-20010904/DTD/svg10.dtd">
<svg version="1.0" xmlns="http://www.w3.org/2000/svg"
 width="207.000000pt" height="203.000000pt" viewBox="0 0 207.000000 203.000000"
 preserveAspectRatio="xMidYMid meet">
<metadata>
Created by potrace 1.16, written by Peter Selinger 2001-2019
</metadata>
<g transform="translate(0.000000,203.000000) scale(0.100000,-0.100000)"
fill="#000000" stroke="none">
<path d="M750 1780 c-59 -5 -102 -15 -140 -34 -30 -14 -60 -26 -66 -26 -7 0
-26 -16 -44 -36 -25 -29 -30 -42 -25 -63 4 -14 12 -29 18 -33 19 -13 60 1 92
32 32 30 72 45 156 60 96 18 113 19 167 8 l52 -9 0 -40 c0 -58 -40 -134 -114
-215 -52 -57 -81 -79 -148 -112 -56 -27 -97 -40 -125 -40 -51 -1 -53 6 -23
112 22 79 16 129 -15 134 -21 5 -35 -14 -35 -45 0 -13 -3 -23 -7 -23 -5 0 -20
-11 -35 -24 -19 -16 -28 -33 -28 -54 0 -38 -17 -50 -35 -26 -11 16 -15 16 -30
4 -19 -16 -14 -52 15 -92 19 -26 19 -27 -1 -98 -10 -39 -17 -75 -14 -80 7 -12
-14 -99 -30 -125 -7 -11 -16 -40 -20 -65 -4 -24 -16 -68 -26 -98 -10 -29 -26
-84 -34 -120 -25 -103 -96 -269 -157 -364 -21 -32 -38 -64 -38 -71 0 -7 -11
-25 -25 -41 -31 -36 -37 -59 -33 -117 l3 -44 25 29 c14 17 46 50 72 75 27 26
48 52 48 59 0 6 8 20 18 30 20 20 102 154 102 168 0 5 4 15 9 23 7 12 14 10
36 -8 34 -26 57 -27 80 -1 19 20 133 79 245 125 99 40 104 41 97 19 -31 -97
-67 -234 -67 -255 0 -31 43 -80 101 -117 60 -38 95 -51 154 -58 28 -3 77 -11
110 -19 33 -7 67 -13 75 -13 135 -5 256 -2 282 7 18 6 58 18 88 27 30 9 78 27
105 39 28 13 63 27 78 30 43 11 49 34 37 138 -6 51 -15 130 -20 176 -9 87 -21
114 -41 94 -17 -17 -51 -213 -46 -261 4 -41 3 -43 -30 -57 -20 -8 -44 -15 -54
-15 -11 0 -36 -11 -57 -23 -95 -60 -251 -62 -525 -7 -28 6 -65 23 -89 42 -39
32 -40 34 -34 83 11 98 62 223 104 256 14 10 43 24 66 30 44 11 241 113 251
129 4 6 22 17 40 24 35 15 53 51 41 81 -7 19 -40 19 -56 1 -6 -8 -33 -23 -58
-32 -26 -10 -70 -30 -98 -46 -49 -27 -135 -58 -162 -58 -15 0 -10 72 10 141
13 47 70 82 117 73 41 -9 82 17 74 47 -7 27 -58 48 -100 42 -38 -6 -42 6 -13
32 23 21 26 43 6 51 -15 6 -45 -7 -68 -29 -7 -7 -35 -25 -61 -41 -26 -15 -53
-38 -59 -51 -6 -13 -25 -29 -42 -36 -32 -13 -131 -69 -178 -101 -15 -10 -32
-18 -39 -18 -6 0 -23 -8 -37 -18 -15 -10 -53 -33 -85 -51 l-58 -33 7 44 c4 23
15 63 25 88 10 25 28 85 39 134 32 133 47 166 79 168 14 1 43 2 64 4 36 2 52
-16 27 -31 -15 -9 -12 -52 6 -69 8 -9 26 -16 39 -16 27 0 160 75 194 109 11
11 26 21 32 21 6 0 25 11 43 25 18 14 40 25 48 25 8 0 24 11 36 25 12 14 27
25 33 25 17 0 6 55 -13 58 -15 3 -111 -36 -188 -78 -20 -10 -48 -24 -63 -29
-27 -11 -27 -10 -11 14 9 13 24 27 35 30 10 4 24 15 29 26 6 10 24 34 41 52
87 95 151 234 139 307 -4 30 -12 38 -50 57 -25 12 -65 24 -89 28 -24 4 -49 8
-55 9 -6 2 -49 0 -96 -4z m64 -982 c-3 -40 -7 -79 -10 -86 -4 -14 -72 -47 -91
-44 -13 3 -161 -45 -177 -56 -6 -5 -27 -15 -46 -22 -19 -7 -48 -19 -65 -25
-16 -7 -37 -16 -45 -19 -8 -3 -25 -13 -37 -21 -21 -16 -21 -16 -11 25 7 28 18
44 34 50 12 5 43 25 69 44 25 20 62 43 83 52 20 10 48 27 62 39 25 22 54 39
118 69 19 9 47 27 64 41 51 43 59 35 52 -47z m-59 -158 c3 -5 0 -7 -8 -4 -8 3
-18 1 -22 -5 -8 -13 -25 -14 -25 -2 0 8 15 15 42 20 4 0 10 -3 13 -9z"/>
</g>
</svg>
