<?xml version="1.0" standalone="no"?>
<!DOCTYPE svg PUBLIC "-//W3C//DTD SVG 20010904//EN"
 "http://www.w3.org/TR/2001/REC-SVG-20010904/DTD/svg10.dtd">
<svg version="1.0" xmlns="http://www.w3.org/2000/svg"
 width="204.000000pt" height="211.000000pt" viewBox="0 0 204.000000 211.000000"
 preserveAspectRatio="xMidYMid meet">
<metadata>
Created by potrace 1.16, written by Peter Selinger 2001-2019
</metadata>
<g transform="translate(0.000000,211.000000) scale(0.100000,-0.100000)"
fill="#000000" stroke="none">
<path d="M610 2060 c-41 -26 -84 -57 -95 -67 -11 -10 -32 -23 -47 -30 -16 -7
-30 -23 -34 -37 -3 -15 -13 -26 -23 -26 -10 0 -29 -13 -44 -28 -24 -25 -27
-35 -27 -103 0 -47 9 -107 25 -167 30 -113 31 -143 5 -167 -20 -18 -22 -18
-50 -2 -28 17 -29 17 -39 -2 -8 -15 -7 -23 3 -33 17 -18 29 -191 27 -413 -1
-165 -2 -173 -35 -270 -19 -55 -46 -144 -61 -198 -14 -54 -41 -134 -60 -177
-19 -43 -35 -87 -35 -98 0 -29 -34 -66 -61 -67 -30 0 -37 -35 -13 -59 21 -22
54 -15 90 19 15 14 31 25 35 25 5 0 9 9 9 21 0 11 13 39 28 62 16 23 40 65 55
92 27 52 107 292 107 321 0 13 7 15 35 10 37 -7 73 13 200 113 28 22 55 40 62
40 25 2 4 -229 -30 -319 -36 -95 -93 -192 -136 -232 -37 -34 -40 -70 -9 -92
28 -20 77 -21 84 -1 3 8 28 24 55 36 27 13 49 26 49 30 0 4 10 11 23 15 27 8
281 177 318 210 14 13 30 24 35 24 6 0 20 11 32 25 26 29 42 32 42 7 0 -10 5
-23 10 -28 12 -12 38 -108 65 -234 21 -99 51 -168 67 -152 17 17 29 161 18
227 -5 33 -11 76 -14 95 -2 19 -12 69 -21 110 -9 41 -18 96 -18 122 -2 58 -12
68 -67 71 -35 1 -46 -3 -66 -26 -19 -23 -22 -32 -13 -54 5 -14 8 -27 7 -27 -2
-1 -26 -17 -54 -34 -28 -18 -55 -32 -60 -32 -5 0 -26 -13 -46 -30 -20 -16 -67
-46 -105 -66 -37 -20 -70 -40 -73 -44 -3 -4 -15 -12 -27 -19 -21 -11 -23 -10
-23 16 0 15 9 43 20 61 23 37 37 118 50 284 7 96 11 111 35 140 15 18 40 41
56 51 16 11 29 23 29 28 0 6 17 17 38 25 41 17 46 22 145 118 78 76 87 114 29
122 -15 3 -75 -36 -107 -67 -11 -11 -42 -34 -70 -51 -27 -17 -61 -41 -75 -54
-26 -23 -176 -114 -188 -114 -4 0 -33 -18 -66 -40 -32 -22 -63 -40 -68 -40 -6
0 -37 -23 -69 -51 l-59 -51 5 223 c3 123 8 242 11 264 5 42 28 75 51 75 8 0
51 19 96 42 75 38 122 74 181 135 12 12 66 45 121 74 55 28 112 60 127 70 28
20 78 26 78 9 0 -6 -7 -24 -15 -41 -9 -16 -13 -33 -11 -38 9 -13 126 -24 140
-12 14 12 13 105 -1 123 -6 7 -13 27 -16 43 -3 17 -13 66 -22 110 -8 44 -16
119 -16 168 l0 87 -60 0 -60 0 6 -72 c3 -40 13 -115 22 -166 19 -105 20 -103
-52 -123 -22 -6 -73 -24 -112 -40 -40 -16 -79 -29 -87 -29 -9 0 -16 16 -21 46
-4 29 -17 57 -34 77 l-28 31 -64 -13 c-121 -25 -126 -25 -134 -2 -7 24 19 52
102 106 28 19 61 48 72 64 11 16 32 32 46 35 14 4 25 11 25 16 0 5 18 19 40
30 22 11 40 25 40 30 0 6 -33 10 -77 10 -76 -1 -80 -2 -153 -50z m-69 -502
c47 -13 49 -23 9 -43 -52 -27 -71 -17 -62 32 5 27 3 26 53 11z"/>
<path d="M965 1448 c-33 -22 -98 -61 -145 -86 -47 -25 -96 -54 -109 -64 -13
-10 -31 -18 -40 -18 -10 0 -28 -14 -41 -31 -52 -71 25 -120 100 -65 19 14 49
32 65 40 17 8 39 24 49 35 11 12 24 21 31 21 6 0 36 18 66 41 30 22 63 44 75
49 35 14 84 61 84 81 0 18 -35 40 -63 38 -7 0 -39 -18 -72 -41z"/>
</g>
</svg>
