<?xml version="1.0" standalone="no"?>
<!DOCTYPE svg PUBLIC "-//W3C//DTD SVG 20010904//EN"
 "http://www.w3.org/TR/2001/REC-SVG-20010904/DTD/svg10.dtd">
<svg version="1.0" xmlns="http://www.w3.org/2000/svg"
 width="206.000000pt" height="217.000000pt" viewBox="0 0 206.000000 217.000000"
 preserveAspectRatio="xMidYMid meet">
<metadata>
Created by potrace 1.16, written by Peter Selinger 2001-2019
</metadata>
<g transform="translate(0.000000,217.000000) scale(0.100000,-0.100000)"
fill="#000000" stroke="none">
<path d="M1110 2157 c-14 -7 -44 -25 -67 -40 -24 -15 -45 -27 -48 -27 -8 0
-108 -72 -131 -95 -12 -11 -27 -37 -35 -58 -9 -25 -18 -36 -27 -32 -8 3 -37 8
-66 11 -48 6 -54 4 -73 -20 -18 -23 -20 -36 -16 -110 3 -48 1 -97 -5 -114 -13
-37 2 -54 37 -45 21 5 22 4 15 -48 -6 -53 -70 -296 -119 -454 -100 -322 -129
-411 -136 -421 -5 -6 -25 -50 -44 -99 -20 -48 -46 -111 -60 -140 -13 -29 -29
-72 -35 -96 -7 -24 -23 -65 -36 -91 -13 -26 -24 -52 -24 -58 0 -6 -18 -41 -41
-78 -35 -58 -69 -126 -69 -138 0 -2 25 -4 55 -4 33 0 55 4 55 11 0 6 24 61 54
122 69 141 83 175 115 267 15 41 38 93 51 114 l24 39 11 -34 c9 -27 19 -36 49
-43 31 -8 40 -6 64 12 15 13 41 29 57 37 17 7 48 32 70 55 40 41 88 73 97 64
13 -12 -5 -213 -24 -269 -30 -86 -78 -184 -98 -198 -50 -35 -49 -98 1 -116 37
-13 40 -11 118 62 34 31 65 57 69 57 4 0 22 13 40 28 18 16 70 47 115 70 45
24 114 67 152 98 82 65 153 109 162 100 3 -3 8 -44 11 -92 5 -106 37 -197 70
-202 20 -3 22 1 23 50 3 192 31 385 64 435 32 49 -6 84 -70 63 -25 -8 -39 -22
-54 -54 -12 -23 -21 -52 -21 -64 0 -32 -27 -54 -126 -102 -49 -23 -107 -56
-130 -72 -59 -42 -224 -131 -231 -124 -2 2 3 35 12 75 8 40 15 90 15 112 0 62
30 182 51 205 10 11 19 26 19 32 0 14 84 82 140 113 22 13 42 31 46 41 3 10
12 18 21 18 9 0 31 9 49 21 26 16 34 27 34 50 0 28 -2 29 -43 29 -24 0 -47 -4
-53 -9 -5 -5 -36 -24 -69 -42 -33 -17 -82 -46 -110 -64 -59 -38 -140 -85 -241
-140 -41 -23 -79 -46 -86 -53 -7 -7 -16 -12 -20 -12 -5 0 -45 -30 -89 -66 -44
-36 -82 -64 -84 -62 -2 2 8 35 22 73 75 207 148 434 188 585 15 58 41 143 57
190 16 47 36 112 44 145 11 41 25 68 45 87 32 30 36 49 15 67 -11 10 -26 9
-65 -3 -28 -8 -53 -11 -56 -7 -2 5 6 28 18 52 18 33 31 45 52 49 21 4 31 12
35 30 5 18 12 24 28 23 13 -2 29 8 41 25 33 43 95 102 109 102 16 0 16 0 -9
-57 -28 -63 -94 -253 -130 -372 -7 -24 -32 -69 -56 -99 -48 -62 -49 -65 -27
-86 28 -29 70 -20 111 25 21 22 42 48 47 57 5 10 25 36 43 59 44 53 41 77 -10
81 -20 2 -37 5 -37 8 0 2 9 21 20 41 11 21 20 45 20 53 0 8 13 36 28 62 15 25
47 81 71 123 24 42 54 89 67 105 13 15 24 32 24 38 0 5 19 27 42 48 31 28 43
46 45 71 l2 33 -72 0 c-40 0 -83 -6 -97 -13z"/>
<path d="M1118 1379 c-32 -16 -58 -34 -58 -39 0 -5 -31 -30 -69 -54 -38 -25
-71 -49 -73 -53 -1 -5 -38 -26 -81 -48 -43 -22 -92 -52 -110 -67 -31 -26 -32
-27 -16 -55 23 -42 87 -39 160 8 60 38 168 116 214 155 17 14 45 34 63 45 33
20 52 53 52 93 0 43 -20 46 -82 15z"/>
</g>
</svg>
