<?xml version="1.0" standalone="no"?>
<!DOCTYPE svg PUBLIC "-//W3C//DTD SVG 20010904//EN"
 "http://www.w3.org/TR/2001/REC-SVG-20010904/DTD/svg10.dtd">
<svg version="1.0" xmlns="http://www.w3.org/2000/svg"
 width="208.000000pt" height="210.000000pt" viewBox="0 0 208.000000 210.000000"
 preserveAspectRatio="xMidYMid meet">
<metadata>
Created by potrace 1.16, written by Peter Selinger 2001-2019
</metadata>
<g transform="translate(0.000000,210.000000) scale(0.100000,-0.100000)"
fill="#000000" stroke="none">
<path d="M855 2077 c-16 -12 -34 -28 -38 -35 -5 -7 -29 -34 -53 -60 -85 -89
-92 -97 -118 -154 -14 -31 -26 -62 -26 -67 0 -6 -4 -11 -9 -11 -6 0 -13 -21
-17 -47 -4 -26 -17 -70 -30 -99 -32 -72 -55 -193 -48 -247 6 -40 -22 -157 -56
-242 -17 -41 -39 -113 -65 -210 -14 -55 -41 -138 -60 -185 -170 -436 -193
-487 -214 -493 -11 -3 -23 -26 -35 -68 -10 -35 -22 -75 -27 -88 -14 -34 14
-75 44 -65 12 4 24 11 26 17 2 6 14 20 27 32 13 12 31 39 40 60 8 21 22 49 31
61 14 22 17 22 36 9 25 -17 73 -20 82 -5 4 6 32 29 63 52 31 22 66 49 77 59
43 41 193 145 240 169 28 13 64 35 81 47 l32 24 5 -27 c2 -15 1 -41 -3 -58 -5
-17 -11 -74 -15 -126 -5 -76 -36 -232 -60 -307 -3 -9 11 -13 50 -13 l54 0 7
37 c3 21 15 67 25 102 11 35 26 123 34 195 8 72 19 156 24 188 9 54 41 130 65
153 22 21 111 54 122 45 6 -6 19 -4 32 5 11 9 23 12 26 7 2 -4 5 -93 5 -197 0
-165 -7 -267 -34 -488 l-6 -47 56 0 c37 0 55 4 55 13 0 6 7 70 15 142 8 72 17
229 20 350 7 287 12 343 33 354 9 5 40 12 68 16 42 5 54 11 63 31 22 49 8 84
-36 84 -21 0 -39 -6 -110 -36 -17 -8 -39 -14 -48 -14 -24 0 -54 -18 -90 -54
-18 -18 -60 -42 -96 -55 -35 -13 -74 -29 -87 -37 -19 -13 -23 -13 -28 0 -9 23
16 130 48 201 8 18 46 49 97 80 26 15 103 76 131 103 13 13 56 45 95 70 38 26
72 50 75 53 3 3 15 11 28 18 27 14 27 22 5 50 -16 19 -22 20 -56 11 -20 -6
-65 -32 -100 -58 -119 -90 -277 -194 -355 -234 -26 -13 -45 -31 -48 -45 -7
-28 -77 -80 -83 -62 -2 7 4 16 13 21 9 5 16 16 16 26 0 9 9 25 19 37 57 59 99
115 116 153 10 23 23 42 29 42 6 0 18 11 26 24 24 39 102 140 116 152 25 20
156 189 171 221 9 17 13 38 10 47 -6 15 -9 15 -37 1 -16 -8 -39 -28 -51 -44
-11 -15 -59 -59 -106 -97 -47 -38 -113 -91 -146 -119 -116 -96 -202 -160 -267
-195 -75 -41 -88 -70 -47 -109 l25 -22 56 32 c31 17 59 29 62 26 3 -3 -6 -23
-20 -44 -14 -20 -26 -43 -26 -48 0 -6 -14 -24 -31 -41 -17 -16 -55 -66 -86
-112 -31 -45 -71 -99 -89 -119 -43 -46 -43 -75 -3 -104 31 -21 32 -22 63 -4
17 10 47 30 66 44 72 54 126 88 148 95 21 7 22 4 23 -43 1 -28 2 -59 2 -68 2
-52 -37 -87 -204 -182 -59 -33 -129 -77 -156 -98 -53 -41 -59 -45 -148 -99
-33 -20 -63 -41 -67 -48 -5 -7 -8 -5 -8 6 0 19 57 176 69 193 5 5 23 53 40
105 18 52 36 104 41 115 5 11 20 56 34 100 30 95 127 387 141 424 18 47 57 93
92 107 18 8 50 32 71 53 80 83 132 142 149 168 10 16 22 33 28 39 15 18 72 94
100 134 30 43 104 180 127 235 9 22 17 57 17 78 l1 37 -157 -1 c-146 0 -160
-2 -188 -22z m261 -11 c3 -14 -1 -37 -9 -53 -9 -15 -34 -66 -57 -113 -23 -47
-51 -94 -61 -106 -11 -11 -32 -39 -47 -61 -46 -68 -99 -137 -124 -159 -12 -12
-47 -47 -77 -78 -87 -91 -95 -78 -60 95 13 65 19 121 16 150 -5 43 -4 49 21
65 38 25 182 170 182 183 0 6 15 17 33 26 17 8 39 19 47 24 32 18 106 51 117
51 7 0 15 -11 19 -24z m-356 -1515 c0 -5 -7 -12 -16 -15 -24 -9 -28 -7 -14 9
14 17 30 20 30 6z"/>
</g>
</svg>
