<?xml version="1.0" standalone="no"?>
<!DOCTYPE svg PUBLIC "-//W3C//DTD SVG 20010904//EN"
 "http://www.w3.org/TR/2001/REC-SVG-20010904/DTD/svg10.dtd">
<svg version="1.0" xmlns="http://www.w3.org/2000/svg"
 width="218.000000pt" height="211.000000pt" viewBox="0 0 218.000000 211.000000"
 preserveAspectRatio="xMidYMid meet">
<metadata>
Created by potrace 1.16, written by Peter Selinger 2001-2019
</metadata>
<g transform="translate(0.000000,211.000000) scale(0.100000,-0.100000)"
fill="#000000" stroke="none">
<path d="M1069 1942 c-26 -9 -53 -22 -60 -28 -8 -6 -27 -19 -44 -27 -16 -9
-55 -39 -85 -67 -30 -29 -79 -69 -107 -91 -30 -22 -55 -50 -59 -64 -8 -30 3
-74 22 -96 19 -21 61 -13 70 14 7 22 153 197 164 197 4 0 27 13 51 30 48 32
69 37 69 17 0 -20 -54 -128 -90 -178 -17 -24 -46 -67 -64 -94 -19 -28 -41 -57
-50 -64 -9 -7 -16 -18 -16 -24 0 -10 -60 -88 -91 -117 -130 -124 -131 -125
-145 -104 -26 38 -35 44 -63 44 -16 0 -34 -6 -40 -14 -7 -8 -14 -56 -16 -108
-3 -73 -33 -286 -49 -353 -1 -5 -8 -37 -15 -70 -19 -90 -144 -409 -186 -475
-12 -19 -34 -55 -49 -80 -39 -67 -109 -161 -128 -173 -12 -8 -20 -6 -33 6 -9
9 -20 17 -25 17 -7 0 -20 -23 -20 -36 0 -2 39 -4 86 -4 l86 0 66 69 c83 85
144 202 239 456 35 92 31 87 64 80 24 -5 37 -1 67 22 63 48 117 83 129 83 6 0
18 6 25 14 8 7 28 21 46 30 18 9 32 21 32 26 0 12 89 64 97 56 4 -3 -3 -27
-14 -54 -12 -26 -27 -67 -34 -92 -7 -25 -20 -61 -29 -80 -10 -19 -20 -51 -24
-71 -7 -42 -47 -100 -117 -176 -27 -28 -49 -61 -49 -71 0 -11 -7 -25 -15 -32
-18 -15 -20 -61 -3 -78 7 -7 24 -12 38 -12 20 0 38 15 78 65 29 36 58 80 66
98 21 47 89 132 106 132 9 0 17 -13 20 -35 6 -44 -13 -179 -35 -246 -9 -28
-15 -70 -13 -94 3 -40 6 -45 36 -52 29 -8 41 -4 100 34 45 28 88 67 127 117
33 40 80 96 105 124 l44 49 116 -7 c63 -3 133 -11 155 -15 170 -37 268 -69
324 -107 19 -13 43 -23 55 -23 49 1 129 28 161 53 28 23 35 35 35 64 0 34 -1
35 -17 21 -31 -28 -93 -31 -140 -8 -23 11 -54 20 -68 20 -15 0 -55 11 -90 26
-36 14 -86 29 -112 34 -26 5 -66 14 -88 20 -22 7 -73 15 -113 19 -39 4 -75 11
-78 14 -7 7 93 127 105 127 4 0 23 21 42 48 18 26 59 74 91 107 31 33 67 74
79 90 12 17 36 44 52 61 24 27 27 35 18 53 -24 44 -81 20 -161 -66 -70 -75
-82 -90 -114 -146 -25 -42 -205 -229 -251 -261 -17 -11 -77 -22 -178 -31 -15
-2 -38 -10 -52 -19 -32 -21 -32 -22 -39 22 -5 33 -46 92 -64 92 -4 0 -13 4
-20 9 -11 7 -11 14 1 42 7 19 17 50 21 69 4 19 20 58 36 85 16 28 41 73 56
102 42 82 232 267 387 377 26 19 66 55 89 81 l41 47 -25 24 -24 25 -40 -27
c-21 -15 -55 -36 -74 -47 -19 -11 -48 -30 -65 -44 -133 -107 -157 -125 -162
-120 -3 3 4 25 15 49 12 24 28 62 36 86 9 23 22 53 31 65 8 12 15 32 15 44 0
22 61 93 80 93 6 0 10 4 10 9 0 4 29 39 65 76 63 65 79 100 52 111 -20 7 -57
-10 -97 -45 -34 -31 -35 -31 -38 -9 -6 54 -14 69 -37 78 -39 15 -54 2 -87 -69
-16 -36 -36 -78 -43 -93 -7 -15 -11 -36 -8 -47 9 -35 -204 -178 -229 -153 -18
18 -32 15 -64 -13 -69 -59 -58 -11 17 78 33 40 67 87 76 105 9 19 29 43 45 55
15 11 28 28 28 37 0 9 13 31 29 49 35 40 76 177 67 229 -3 19 -6 36 -8 37 -14
12 -71 11 -109 -3z m101 -610 c0 -23 -36 -127 -72 -208 -38 -86 -43 -92 -97
-123 -95 -55 -125 -74 -187 -121 -54 -42 -220 -130 -244 -130 -15 0 -13 14 21
145 17 66 35 140 41 165 12 52 38 89 38 53 0 -26 23 -51 55 -59 16 -4 38 5 76
32 30 21 57 42 60 47 3 4 18 3 33 -3 15 -5 38 -10 51 -10 33 0 75 53 75 95 0
30 6 36 53 63 29 16 59 37 66 46 14 17 31 21 31 8z m-370 -101 c0 -9 -24 -21
-42 -21 -6 0 -6 6 2 15 14 16 40 20 40 6z m358 -901 c12 0 22 -4 22 -9 0 -9
-47 -60 -93 -101 l-29 -25 7 75 c4 41 9 78 11 82 3 4 17 0 32 -8 15 -7 37 -14
50 -14z"/>
</g>
</svg>
