<?xml version="1.0" standalone="no"?>
<!DOCTYPE svg PUBLIC "-//W3C//DTD SVG 20010904//EN"
 "http://www.w3.org/TR/2001/REC-SVG-20010904/DTD/svg10.dtd">
<svg version="1.0" xmlns="http://www.w3.org/2000/svg"
 width="206.000000pt" height="211.000000pt" viewBox="0 0 206.000000 211.000000"
 preserveAspectRatio="xMidYMid meet">
<metadata>
Created by potrace 1.16, written by Peter Selinger 2001-2019
</metadata>
<g transform="translate(0.000000,211.000000) scale(0.100000,-0.100000)"
fill="#000000" stroke="none">
<path d="M832 2090 c-24 -11 -51 -29 -61 -41 -15 -19 -20 -20 -40 -9 -35 18
-88 4 -105 -27 -12 -23 -11 -33 5 -78 19 -54 37 -146 46 -230 5 -47 3 -52 -20
-62 -40 -19 -54 -50 -67 -158 -6 -55 -16 -120 -21 -145 -28 -136 -59 -269 -69
-295 -7 -16 -23 -68 -36 -115 -14 -47 -29 -89 -35 -95 -5 -5 -9 -15 -9 -23 0
-8 -6 -28 -14 -45 -8 -18 -33 -90 -56 -162 -23 -71 -54 -154 -69 -183 -14 -29
-53 -107 -85 -172 -45 -91 -64 -120 -82 -124 -31 -8 -32 -45 -1 -74 29 -27 30
-27 62 2 15 14 30 26 34 28 10 4 111 176 111 189 0 5 18 39 39 75 22 36 56
117 76 182 51 162 63 193 88 220 46 50 186 129 174 99 -2 -6 -11 -37 -20 -67
-15 -52 -103 -226 -131 -260 -7 -8 -25 -40 -41 -70 -15 -30 -31 -57 -35 -60
-4 -3 -13 -22 -19 -43 -10 -30 -10 -41 -1 -52 19 -22 64 -18 87 7 27 31 83
119 83 131 0 15 101 147 120 157 32 17 48 11 59 -21 22 -63 11 -146 -36 -269
-31 -82 -28 -125 9 -148 26 -15 29 -15 66 6 22 12 46 22 54 22 16 0 162 153
178 186 3 5 24 27 46 47 42 37 42 37 93 26 28 -6 53 -14 56 -18 2 -5 16 -6 29
-4 13 3 39 0 58 -5 28 -9 174 -25 218 -24 8 0 68 -6 133 -14 105 -13 177 -16
272 -11 17 1 42 -2 58 -6 l27 -7 0 60 0 60 -122 -1 c-68 -1 -150 3 -183 9 -33
6 -116 13 -185 17 -116 6 -274 35 -292 53 -5 5 25 41 67 80 41 40 75 77 75 82
0 5 34 43 76 86 41 43 96 104 121 136 25 32 50 58 54 58 12 0 28 66 22 90 -4
14 -14 20 -35 20 -31 0 -42 -9 -131 -117 -139 -168 -172 -207 -264 -303 l-101
-105 -68 24 c-38 13 -86 32 -106 42 -21 11 -56 19 -78 19 -22 0 -57 8 -78 19
-20 10 -42 16 -49 14 -30 -11 -24 31 21 137 12 27 64 109 81 125 31 31 129
110 155 124 28 16 103 76 144 116 12 11 44 38 73 61 102 81 129 135 69 142
-20 3 -37 -5 -60 -25 -17 -16 -51 -42 -76 -58 -25 -16 -55 -38 -67 -49 -28
-24 -28 -17 -2 65 33 102 55 144 91 173 82 67 108 92 108 106 0 9 5 21 11 27
17 17 4 40 -28 48 -24 6 -33 1 -64 -34 -20 -23 -41 -41 -47 -41 -5 0 -12 14
-15 30 -5 24 -12 30 -32 30 -39 0 -71 -39 -79 -96 -4 -27 -16 -63 -26 -79 -24
-39 -73 -75 -102 -75 -13 0 -43 -14 -67 -30 -24 -17 -52 -30 -61 -30 -25 0
-44 -27 -45 -63 0 -24 -6 -35 -27 -44 -27 -14 -88 -77 -88 -93 0 -33 88 -67
105 -40 3 6 23 18 44 28 33 17 39 17 48 4 6 -11 17 -13 36 -8 24 6 27 11 27
50 0 49 20 81 69 109 38 22 39 16 4 -80 -18 -52 -34 -80 -52 -91 -14 -9 -44
-31 -66 -48 -22 -18 -85 -56 -140 -84 -55 -29 -106 -57 -112 -62 -7 -6 -20 -8
-28 -4 -12 4 -13 11 -4 33 15 40 53 193 80 318 12 61 27 116 32 123 6 8 21 10
42 6 26 -5 41 0 73 23 38 28 141 132 197 201 15 18 42 39 59 46 18 7 39 21 49
30 21 21 22 65 2 72 -25 10 -17 30 40 99 30 37 55 72 55 77 0 6 13 29 28 52
16 23 32 55 36 70 7 27 6 27 -40 24 -44 -3 -47 -5 -63 -43 -9 -22 -43 -80 -76
-128 -33 -49 -76 -114 -95 -145 -19 -31 -53 -75 -75 -97 -56 -56 -145 -128
-151 -122 -3 2 0 26 6 52 7 32 7 58 1 79 -11 34 -16 110 -13 200 2 55 3 58 25
53 14 -4 41 4 76 23 30 17 58 30 63 30 4 0 61 22 126 50 l117 49 -150 1 c-128
0 -156 -3 -193 -20z m141 -1568 c27 -12 55 -22 63 -22 8 0 17 -7 21 -16 4 -10
-19 -39 -71 -90 -42 -41 -80 -74 -84 -74 -5 0 -5 26 -1 58 4 31 8 83 8 115 1
32 4 57 9 55 4 -2 29 -14 55 -26z"/>
</g>
</svg>
