<?xml version="1.0" standalone="no"?>
<!DOCTYPE svg PUBLIC "-//W3C//DTD SVG 20010904//EN"
 "http://www.w3.org/TR/2001/REC-SVG-20010904/DTD/svg10.dtd">
<svg version="1.0" xmlns="http://www.w3.org/2000/svg"
 width="208.000000pt" height="212.000000pt" viewBox="0 0 208.000000 212.000000"
 preserveAspectRatio="xMidYMid meet">
<metadata>
Created by potrace 1.16, written by Peter Selinger 2001-2019
</metadata>
<g transform="translate(0.000000,212.000000) scale(0.100000,-0.100000)"
fill="#000000" stroke="none">
<path d="M1012 2108 c-7 -7 -12 -29 -12 -49 0 -44 -32 -186 -50 -218 -9 -17
-9 -26 0 -36 7 -9 9 -26 5 -45 -7 -31 -20 -40 -28 -17 -3 9 -7 9 -20 -2 -14
-11 -17 -11 -21 0 -15 58 -30 119 -33 145 -4 25 -1 32 16 37 13 3 21 13 21 26
0 12 -2 21 -4 21 -2 0 -26 4 -55 10 -66 12 -106 4 -119 -25 -9 -19 -3 -38 36
-117 26 -51 55 -116 63 -144 l16 -51 -34 -27 c-18 -15 -54 -36 -78 -47 -24
-11 -47 -24 -50 -29 -3 -6 -14 -10 -23 -10 -10 0 -36 -9 -57 -21 -40 -21 -127
-49 -154 -49 -9 0 -11 8 -6 28 4 15 8 38 10 52 2 14 8 38 14 53 16 41 13 149
-4 190 -17 40 -54 52 -92 29 -20 -13 -21 -19 -18 -124 2 -62 -1 -122 -7 -137
-34 -86 -48 -207 -26 -229 14 -14 89 -16 104 -3 5 4 50 21 99 36 50 16 96 33
104 39 7 6 41 24 75 41 33 17 91 48 128 68 l67 38 -6 -35 c-11 -67 33 -34 120
89 23 33 71 89 106 125 75 77 100 118 79 131 -19 13 -30 11 -58 -11 -42 -33
-52 -27 -44 33 4 28 11 60 15 69 5 9 9 53 9 97 l0 81 -38 0 c-21 0 -43 -5 -50
-12z"/>
<path d="M1415 1845 c-49 -42 -114 -94 -144 -118 -29 -23 -88 -73 -130 -111
-42 -37 -102 -88 -134 -113 -32 -25 -70 -57 -85 -71 -15 -13 -45 -38 -67 -54
-72 -51 -108 -82 -193 -163 -137 -130 -163 -189 -98 -220 41 -20 50 -16 75 33
26 50 158 183 208 211 11 5 50 39 88 74 38 36 82 73 97 82 26 15 28 15 28 -2
0 -10 -12 -45 -26 -78 -14 -33 -39 -94 -55 -135 -39 -95 -128 -278 -139 -285
-14 -8 -77 21 -120 55 -42 33 -89 39 -114 14 -20 -19 -20 -26 -2 -68 11 -25
28 -40 69 -60 31 -14 59 -26 64 -26 4 0 14 -4 22 -9 16 -10 7 -30 -46 -99 -78
-102 -137 -168 -226 -250 -81 -76 -75 -94 19 -48 48 24 262 215 276 245 3 9
27 39 53 66 l46 50 119 0 c99 0 122 3 136 17 27 26 3 44 -67 52 -78 9 -109 21
-109 42 0 9 20 58 44 108 24 50 47 102 51 116 4 14 22 57 40 95 18 39 42 97
53 130 27 83 68 161 97 187 26 23 32 47 15 64 -14 14 115 124 146 124 4 0 4
-57 0 -127 -3 -71 -9 -218 -11 -328 -3 -110 -10 -248 -15 -306 -6 -58 -10
-166 -9 -240 1 -99 -4 -150 -16 -194 -10 -33 -20 -76 -24 -95 -4 -22 -15 -39
-29 -46 -36 -18 -37 -23 -12 -49 27 -29 45 -31 88 -9 22 11 35 26 42 52 52
189 52 190 60 472 4 151 10 295 14 320 3 25 11 154 16 288 7 153 16 259 25
285 7 23 17 77 20 120 l7 77 -28 0 c-21 0 -53 -21 -119 -75z m-210 -235 c-3
-5 -11 -10 -16 -10 -6 0 -7 5 -4 10 3 6 11 10 16 10 6 0 7 -4 4 -10z"/>
<path d="M262 1030 c-40 -17 -46 -49 -22 -120 12 -35 28 -76 35 -91 15 -29 16
-31 16 -139 1 -155 -12 -258 -37 -308 -37 -73 -30 -92 26 -69 43 19 86 97 100
184 17 102 14 276 -6 373 -9 47 -17 105 -18 130 -1 44 -2 45 -36 47 -19 1 -45
-2 -58 -7z"/>
</g>
</svg>
