<?xml version="1.0" standalone="no"?>
<!DOCTYPE svg PUBLIC "-//W3C//DTD SVG 20010904//EN"
 "http://www.w3.org/TR/2001/REC-SVG-20010904/DTD/svg10.dtd">
<svg version="1.0" xmlns="http://www.w3.org/2000/svg"
 width="209.000000pt" height="213.000000pt" viewBox="0 0 209.000000 213.000000"
 preserveAspectRatio="xMidYMid meet">
<metadata>
Created by potrace 1.16, written by Peter Selinger 2001-2019
</metadata>
<g transform="translate(0.000000,213.000000) scale(0.100000,-0.100000)"
fill="#000000" stroke="none">
<path d="M1347 2093 c-15 -2 -31 -12 -36 -21 -12 -24 -21 -153 -22 -309 l-1
-132 -39 -25 c-21 -15 -45 -26 -53 -26 -8 0 -17 -4 -21 -9 -12 -20 -73 -43
-127 -48 -53 -5 -58 -4 -58 14 0 11 3 23 7 27 4 4 9 22 9 39 1 18 9 68 18 112
40 205 41 220 16 238 -28 19 -87 12 -116 -14 -11 -11 -25 -19 -31 -19 -19 0
-24 -49 -12 -143 6 -50 9 -124 6 -164 -4 -60 -11 -80 -41 -127 -42 -66 -43
-75 -13 -104 30 -28 85 -29 163 -1 32 11 76 25 97 30 22 5 55 18 75 28 21 10
49 21 64 25 14 3 39 17 55 29 15 13 54 29 87 35 32 7 64 19 70 27 6 8 39 23
73 34 34 11 75 27 92 35 35 18 41 19 41 7 0 -9 -26 -27 -183 -133 -39 -27 -82
-58 -96 -71 -14 -13 -48 -37 -76 -52 -27 -16 -101 -65 -163 -109 -62 -45 -137
-97 -168 -116 -69 -43 -81 -63 -59 -96 40 -61 73 -50 215 69 52 44 131 104
175 134 44 29 98 67 120 84 22 16 57 41 77 54 20 14 42 34 48 45 6 11 16 20
23 20 7 0 28 11 47 25 19 14 40 25 47 25 17 0 16 -35 -3 -85 -21 -57 -51 -234
-69 -410 -3 -27 -8 -68 -12 -90 -10 -67 -5 -396 8 -450 14 -62 23 -79 68 -134
44 -54 99 -80 167 -81 64 0 110 19 151 62 55 58 102 185 74 202 -16 10 -39 -5
-45 -30 -4 -13 -28 -47 -55 -75 l-49 -52 -58 5 c-53 5 -60 8 -104 54 l-47 49
-6 140 c-3 77 -5 165 -3 195 2 30 7 116 11 190 12 227 60 464 112 558 14 25
42 68 61 95 26 36 36 60 36 91 1 40 0 41 -36 44 -21 2 -38 6 -38 9 0 3 6 31
14 62 26 102 30 159 12 186 -21 32 -52 40 -80 22 -19 -13 -24 -28 -30 -84 -15
-150 -18 -165 -31 -147 -10 14 -14 15 -33 3 -12 -8 -22 -17 -22 -21 0 -5 -6
-8 -13 -8 -8 0 -34 -13 -58 -30 -24 -16 -47 -30 -51 -30 -11 0 27 101 61 161
17 31 31 67 31 82 0 35 -31 52 -71 38 -24 -8 -36 -7 -62 9 -50 30 -106 60
-109 59 -2 -1 -15 -4 -31 -6z"/>
<path d="M1207 1118 c-11 -9 -26 -52 -41 -123 -23 -104 -51 -192 -90 -277 -14
-32 -21 -38 -47 -38 -23 0 -44 13 -89 56 -54 51 -58 58 -53 90 7 44 -10 50
-81 30 -30 -9 -57 -16 -60 -16 -10 0 -7 58 3 64 12 8 35 132 27 151 -4 10 -19
15 -49 15 -69 0 -76 -14 -92 -186 -20 -205 -31 -266 -66 -359 -53 -139 -90
-205 -126 -222 -18 -8 -36 -12 -40 -10 -5 3 -15 2 -22 -3 -18 -10 -7 -56 15
-64 36 -14 154 51 154 84 0 3 8 15 18 26 59 66 88 129 122 269 11 44 25 97 30
117 l10 37 30 -29 c17 -16 44 -37 61 -45 17 -9 49 -31 73 -48 23 -18 52 -39
65 -47 23 -15 23 -17 8 -45 -33 -64 -195 -186 -292 -220 -62 -23 -75 -33 -55
-46 19 -13 100 -3 166 20 64 23 133 73 240 178 81 78 86 81 117 72 18 -4 41
-8 52 -8 11 0 36 -2 56 -6 66 -13 261 47 244 75 -3 4 -62 7 -133 7 -142 0
-208 14 -197 42 11 26 65 172 84 226 10 28 21 66 25 86 7 38 46 82 84 94 24 7
31 43 10 49 -41 13 -146 15 -161 4z"/>
</g>
</svg>
