<?xml version="1.0" standalone="no"?>
<!DOCTYPE svg PUBLIC "-//W3C//DTD SVG 20010904//EN"
 "http://www.w3.org/TR/2001/REC-SVG-20010904/DTD/svg10.dtd">
<svg version="1.0" xmlns="http://www.w3.org/2000/svg"
 width="207.000000pt" height="212.000000pt" viewBox="0 0 207.000000 212.000000"
 preserveAspectRatio="xMidYMid meet">
<metadata>
Created by potrace 1.16, written by Peter Selinger 2001-2019
</metadata>
<g transform="translate(0.000000,212.000000) scale(0.100000,-0.100000)"
fill="#000000" stroke="none">
<path d="M906 2073 c-14 -100 -33 -370 -29 -410 4 -37 2 -44 -18 -53 -13 -6
-37 -18 -54 -27 -31 -17 -124 -53 -137 -53 -17 0 29 308 61 412 12 36 -8 73
-39 74 -38 1 -58 -13 -65 -46 -4 -17 -13 -43 -20 -58 -11 -23 -21 -95 -54
-377 -4 -33 -18 -82 -31 -108 -28 -56 -22 -76 29 -91 28 -8 36 -6 64 21 18 16
52 38 77 48 25 10 50 24 55 31 6 6 43 26 84 43 40 17 85 39 99 49 15 10 77 38
137 61 133 52 189 76 235 102 19 11 59 31 88 45 29 14 60 37 69 50 15 23 15
27 0 41 -14 15 -20 14 -71 -10 -31 -15 -77 -32 -103 -38 -27 -5 -56 -15 -65
-20 -28 -14 -29 -11 -8 24 30 50 49 122 60 221 10 100 5 116 -40 116 -34 0
-46 -14 -53 -63 -3 -20 -13 -44 -21 -53 -19 -19 -19 -19 -2 -47 10 -16 12 -36
6 -77 -25 -175 -17 -155 -74 -179 -28 -11 -66 -24 -83 -27 l-33 -6 0 66 c0
138 44 344 74 347 6 1 20 2 31 3 11 1 21 9 23 19 3 15 -6 17 -91 17 l-94 0 -7
-47z"/>
<path d="M1355 1665 c-17 -9 -58 -39 -92 -68 -91 -76 -153 -122 -200 -145 -23
-12 -45 -26 -48 -32 -4 -6 -23 -22 -43 -35 -21 -13 -56 -38 -79 -54 -24 -17
-57 -38 -75 -47 -18 -9 -63 -47 -99 -85 -37 -38 -71 -69 -77 -69 -5 0 -15 -14
-23 -31 -12 -30 -11 -33 15 -55 39 -34 60 -30 108 23 90 98 115 121 174 162
34 22 65 41 70 41 5 0 30 17 55 38 26 20 90 69 144 107 53 39 118 87 143 108
26 20 51 36 57 34 13 -5 17 -214 5 -259 -11 -41 -40 -386 -40 -479 0 -100 47
-439 77 -549 50 -190 114 -251 201 -192 74 49 129 167 182 389 29 118 30 133
19 190 -7 38 -17 64 -26 68 -9 3 -17 4 -17 3 -14 -24 -26 -65 -26 -86 0 -15
-8 -44 -19 -64 -10 -20 -24 -64 -30 -98 -21 -107 -101 -290 -126 -290 -19 0
-49 68 -68 155 -14 65 -19 102 -47 320 -19 151 -15 319 13 550 7 55 12 156 12
225 0 143 -17 209 -61 229 -32 14 -42 14 -79 -4z m115 -1285 c0 -11 -4 -20
-10 -20 -5 0 -10 9 -10 20 0 11 5 20 10 20 6 0 10 -9 10 -20z"/>
<path d="M1158 1135 c-20 -11 -31 -30 -43 -72 -9 -32 -21 -62 -25 -68 -4 -5
-15 -35 -24 -65 -19 -63 -131 -294 -152 -311 -20 -16 -47 -3 -111 55 -29 27
-57 62 -63 81 -9 26 -17 35 -33 35 -30 0 -87 -36 -87 -56 0 -33 63 -106 136
-154 40 -28 74 -55 74 -61 0 -24 -121 -161 -162 -183 -24 -12 -43 -29 -43 -37
0 -19 35 -22 61 -7 12 7 39 23 60 35 22 12 70 51 108 88 l68 67 57 -5 c31 -4
79 -9 108 -13 75 -9 145 3 141 24 -2 10 -21 22 -48 30 -25 7 -70 20 -100 29
-30 9 -58 17 -61 19 -3 2 25 64 63 139 37 75 68 141 68 146 0 25 74 179 96
200 33 31 30 56 -8 79 -39 23 -45 24 -80 5z"/>
<path d="M478 1124 c-30 -16 -31 -21 -28 -105 1 -31 -4 -76 -10 -100 -7 -24
-13 -57 -15 -74 -11 -107 -53 -263 -94 -350 -16 -33 -32 -71 -36 -85 -12 -40
-65 -111 -96 -129 -40 -22 -33 -45 14 -49 35 -3 43 1 85 46 71 75 97 111 125
173 32 71 81 232 97 324 7 39 18 93 25 120 7 28 16 84 20 126 7 70 5 79 -14
98 -25 25 -36 25 -73 5z"/>
</g>
</svg>
