<?xml version="1.0" standalone="no"?>
<!DOCTYPE svg PUBLIC "-//W3C//DTD SVG 20010904//EN"
 "http://www.w3.org/TR/2001/REC-SVG-20010904/DTD/svg10.dtd">
<svg version="1.0" xmlns="http://www.w3.org/2000/svg"
 width="207.000000pt" height="211.000000pt" viewBox="0 0 207.000000 211.000000"
 preserveAspectRatio="xMidYMid meet">
<metadata>
Created by potrace 1.16, written by Peter Selinger 2001-2019
</metadata>
<g transform="translate(0.000000,211.000000) scale(0.100000,-0.100000)"
fill="#000000" stroke="none">
<path d="M891 2074 c-12 -19 -21 -37 -21 -40 0 -3 -13 -24 -28 -47 -16 -23
-41 -73 -57 -110 -29 -70 -128 -197 -178 -230 -17 -11 -27 -27 -27 -41 0 -26
28 -56 52 -56 21 0 124 47 172 79 49 33 88 56 168 102 135 78 160 90 165 85 9
-9 -27 -227 -43 -261 -8 -16 -24 -45 -35 -63 -15 -24 -18 -37 -11 -44 14 -14
78 25 87 52 3 11 17 28 30 39 28 21 40 48 49 111 4 25 22 88 42 140 57 154 67
206 38 217 -14 5 -155 -61 -255 -120 -94 -56 -153 -87 -157 -82 -12 12 66 146
164 283 l16 22 -75 0 -75 0 -21 -36z"/>
<path d="M981 1594 c-76 -23 -97 -56 -65 -102 30 -43 104 -17 130 45 8 18 14
37 14 42 0 21 -35 28 -79 15z"/>
<path d="M1317 1538 c-49 -47 -88 -76 -180 -130 -16 -9 -36 -23 -45 -31 -9 -7
-66 -40 -127 -72 -60 -32 -149 -84 -196 -116 -48 -33 -90 -59 -95 -59 -10 0
-9 219 0 256 3 12 22 31 41 43 37 21 45 50 21 70 -10 8 -24 7 -56 -4 -23 -8
-52 -12 -64 -9 -14 3 -28 -2 -40 -15 -18 -19 -18 -29 -7 -135 l11 -114 -35
-92 c-24 -60 -48 -103 -70 -126 -38 -37 -43 -59 -21 -89 29 -40 96 -13 217 87
26 21 50 38 54 38 5 0 26 15 49 34 23 18 57 41 76 51 34 17 144 89 185 120 10
8 27 15 36 15 10 0 30 10 46 23 15 13 57 40 92 60 l63 37 -7 -62 c-4 -35 -11
-81 -15 -103 -8 -38 -12 -93 -26 -385 -9 -190 -7 -397 6 -489 16 -119 6 -123
-80 -31 -61 65 -69 78 -63 100 5 14 8 117 8 229 0 200 0 204 23 218 50 34 12
65 -80 66 -32 0 -64 -5 -70 -11 -8 -8 -8 -36 0 -106 18 -143 17 -151 -20 -174
-18 -11 -35 -19 -39 -16 -10 6 -9 181 2 237 6 33 19 58 44 84 38 40 42 48 22
56 -24 9 -170 -12 -179 -25 -4 -7 -5 -49 -2 -93 15 -215 20 -301 16 -313 -8
-24 -121 -73 -188 -81 l-64 -7 0 85 c1 81 3 88 30 121 47 54 42 61 -50 59 -62
-1 -83 -6 -100 -21 -24 -23 -25 -30 -4 -71 27 -51 22 -151 -9 -216 -14 -30
-23 -60 -20 -68 12 -32 101 -45 123 -18 7 8 23 15 35 15 37 0 145 30 188 52
21 12 51 21 67 20 33 -1 118 -42 142 -69 17 -18 17 -21 -2 -56 -11 -20 -20
-44 -20 -52 0 -20 49 -20 78 1 22 15 24 14 69 -36 26 -29 59 -69 74 -90 15
-21 33 -41 39 -45 6 -4 22 -24 36 -46 21 -33 29 -39 59 -39 28 0 36 4 41 24 3
14 3 30 -1 36 -4 6 -3 16 3 23 8 11 5 121 -14 442 -7 130 11 562 28 654 6 31
14 79 18 106 5 28 13 68 20 90 23 80 42 184 37 199 -12 31 -53 17 -110 -36z
m-319 -1028 c4 -54 -5 -63 -48 -48 -19 6 -42 13 -50 15 -11 3 -2 16 29 44 24
22 49 38 55 36 6 -2 12 -23 14 -47z"/>
</g>
</svg>
