<?xml version="1.0" standalone="no"?>
<!DOCTYPE svg PUBLIC "-//W3C//DTD SVG 20010904//EN"
 "http://www.w3.org/TR/2001/REC-SVG-20010904/DTD/svg10.dtd">
<svg version="1.0" xmlns="http://www.w3.org/2000/svg"
 width="209.000000pt" height="212.000000pt" viewBox="0 0 209.000000 212.000000"
 preserveAspectRatio="xMidYMid meet">
<metadata>
Created by potrace 1.16, written by Peter Selinger 2001-2019
</metadata>
<g transform="translate(0.000000,212.000000) scale(0.100000,-0.100000)"
fill="#000000" stroke="none">
<path d="M673 2073 c-16 -27 -46 -88 -67 -138 -21 -49 -48 -110 -61 -135 -26
-51 -52 -122 -84 -228 -22 -70 -22 -74 -5 -93 9 -11 19 -32 20 -46 2 -15 8
-49 15 -76 8 -35 8 -72 0 -142 -6 -51 -11 -98 -11 -104 0 -6 -20 -35 -45 -66
-56 -68 -65 -105 -36 -134 41 -41 65 -28 163 90 117 140 159 187 189 212 72
58 128 103 151 120 12 10 40 31 61 47 21 16 48 32 60 36 12 4 51 30 87 59 36
28 91 66 123 82 51 28 62 28 58 1 -2 -16 -20 -149 -32 -233 -9 -73 -16 -93
-35 -107 -15 -13 -25 -34 -29 -66 -7 -46 -47 -122 -64 -122 -6 0 -58 -29 -118
-65 -59 -36 -114 -65 -122 -65 -18 0 -10 66 15 117 16 31 26 39 54 43 29 4 35
9 35 30 0 33 -36 50 -106 50 -41 0 -60 -5 -71 -17 -19 -22 -35 -85 -48 -188
-18 -137 -17 -136 -97 -175 -39 -19 -80 -42 -90 -51 -10 -9 -35 -26 -55 -38
l-38 -23 -10 28 c-8 21 -7 31 5 44 39 43 8 74 -67 64 -71 -8 -98 -26 -98 -64
0 -17 5 -30 10 -30 17 0 49 -61 56 -106 4 -29 1 -51 -11 -74 -20 -39 -13 -72
20 -94 33 -22 54 -10 93 51 47 73 206 213 241 213 6 0 11 -11 11 -24 0 -14 5
-37 10 -51 8 -22 13 -25 25 -15 8 6 17 22 21 33 3 12 14 40 24 62 10 22 21 48
24 57 3 10 20 27 38 37 33 19 58 37 155 111 29 22 56 40 60 40 5 0 17 10 27
22 19 21 19 21 26 2 4 -10 -1 -87 -10 -171 -15 -135 -21 -160 -55 -232 -46
-98 -92 -143 -133 -131 -39 11 -202 2 -219 -12 -22 -18 1 -32 75 -44 113 -19
194 -44 262 -82 36 -20 81 -44 100 -54 19 -9 50 -35 69 -57 21 -25 43 -41 57
-41 38 0 45 105 31 455 -3 61 1 184 9 275 7 91 13 215 13 275 1 110 20 250 46
335 8 25 17 65 21 90 3 25 15 68 26 97 11 31 18 70 16 95 -3 41 -5 43 -36 46
-28 3 -39 -4 -82 -48 -28 -29 -50 -55 -50 -59 0 -10 -134 -70 -142 -63 -13 14
50 227 86 290 28 49 36 75 36 112 0 40 -4 50 -20 55 -21 7 -52 -10 -173 -92
-34 -23 -86 -56 -115 -73 -29 -17 -71 -49 -95 -72 -23 -22 -64 -58 -92 -78
-27 -21 -68 -54 -90 -74 -38 -34 -75 -47 -75 -26 0 19 130 286 160 330 10 14
30 46 44 73 l27 47 -70 0 -69 0 -29 -47z m407 -258 c-5 -22 -18 -92 -30 -155
-15 -83 -26 -119 -39 -130 -55 -44 -136 -104 -215 -161 -49 -35 -111 -83 -138
-106 -27 -24 -53 -43 -58 -43 -5 0 -9 60 -9 140 1 130 2 142 22 160 11 11 25
20 30 20 5 0 32 16 58 35 54 38 71 42 109 20 26 -15 77 -19 104 -9 18 7 21 45
5 61 -8 8 -7 17 3 32 10 17 10 25 0 42 -14 22 -9 34 33 72 34 30 119 77 127
69 4 -4 3 -25 -2 -47z m145 -1367 c7 -97 7 -98 -16 -107 -17 -6 -30 -5 -44 5
-11 8 -35 20 -52 28 -18 8 -33 17 -33 19 0 3 16 28 35 57 19 29 35 58 35 65 0
7 7 18 15 25 8 7 21 31 27 54 l13 41 6 -45 c4 -25 10 -89 14 -142z"/>
</g>
</svg>
