<?xml version="1.0" standalone="no"?>
<!DOCTYPE svg PUBLIC "-//W3C//DTD SVG 20010904//EN"
 "http://www.w3.org/TR/2001/REC-SVG-20010904/DTD/svg10.dtd">
<svg version="1.0" xmlns="http://www.w3.org/2000/svg"
 width="206.000000pt" height="209.000000pt" viewBox="0 0 206.000000 209.000000"
 preserveAspectRatio="xMidYMid meet">
<metadata>
Created by potrace 1.16, written by Peter Selinger 2001-2019
</metadata>
<g transform="translate(0.000000,209.000000) scale(0.100000,-0.100000)"
fill="#000000" stroke="none">
<path d="M1692 2024 c-22 -9 -38 -25 -48 -51 -9 -21 -24 -56 -35 -79 -10 -22
-19 -48 -19 -57 0 -9 -5 -29 -11 -44 -6 -15 -15 -37 -20 -48 -4 -11 -11 -31
-15 -45 -3 -14 -32 -79 -64 -145 -31 -66 -69 -159 -84 -207 -15 -48 -34 -92
-42 -99 -8 -6 -14 -22 -14 -34 0 -25 -64 -171 -85 -195 -14 -16 -99 -170 -115
-210 -6 -14 -31 -55 -57 -92 -25 -36 -42 -71 -38 -77 19 -31 64 6 193 156 32
37 38 39 45 14 2 -10 16 -26 30 -36 24 -16 27 -15 79 14 30 17 57 28 60 25 8
-8 -28 -65 -77 -123 -23 -26 -63 -77 -90 -115 -28 -37 -62 -82 -77 -99 -60
-69 -24 -121 90 -131 40 -3 107 -16 149 -27 104 -29 307 -33 453 -10 81 12
105 20 108 33 3 17 -49 26 -180 33 -211 10 -296 23 -393 59 -22 8 -48 15 -57
16 -43 1 -32 22 65 134 20 24 37 47 37 52 0 5 18 35 40 67 22 31 40 61 40 66
0 4 9 16 21 27 12 10 28 32 36 49 9 16 24 40 35 51 15 17 18 33 16 80 -3 55
-5 59 -29 62 -14 2 -47 -6 -73 -18 -53 -22 -58 -21 -63 13 -1 12 -10 63 -19
113 -15 84 -14 94 1 150 10 32 30 86 45 119 15 33 35 79 45 103 17 39 35 56
35 31 0 -6 11 -25 24 -42 14 -18 33 -54 44 -82 32 -83 63 -85 78 -6 8 39 -61
260 -83 268 -20 8 -6 67 33 138 42 78 67 151 59 175 -10 31 -36 40 -73 24z
m-276 -998 c14 -56 2 -79 -61 -117 -33 -20 -62 -35 -65 -32 -2 2 0 7 5 11 9 6
22 27 59 95 22 41 41 67 48 67 4 0 10 -11 14 -24z"/>
<path d="M659 1911 c-27 -21 -38 -76 -63 -291 -25 -215 -60 -443 -123 -805
-18 -105 -22 -158 -18 -213 l7 -72 -52 -65 c-51 -64 -94 -105 -111 -105 -11 0
-12 33 -1 45 5 6 17 39 27 75 10 36 26 92 36 125 9 33 23 85 30 115 6 30 19
80 27 110 8 30 17 86 19 124 4 54 10 77 30 102 27 36 27 71 1 88 -14 8 -26 6
-55 -9 -20 -11 -45 -19 -55 -17 -10 2 -32 -6 -48 -18 -33 -24 -41 -69 -15 -90
11 -9 15 -35 15 -103 0 -76 -7 -117 -41 -241 -23 -82 -50 -170 -61 -195 -44
-102 -78 -214 -78 -256 0 -33 41 -59 80 -51 17 3 63 33 103 66 95 79 91 75
177 170 41 46 91 100 110 120 19 20 43 46 52 58 27 34 38 26 38 -26 0 -58 9
-70 30 -41 16 20 16 14 13 -93 -2 -62 -8 -139 -14 -171 -12 -67 -8 -77 29 -77
58 1 66 21 101 230 10 63 26 140 35 170 9 30 26 92 39 136 22 82 22 82 107
158 47 42 90 76 95 76 20 1 66 51 63 68 -6 34 -63 27 -138 -17 -97 -58 -112
-53 -85 26 32 95 35 135 13 171 -18 29 -19 44 -14 124 4 58 12 100 22 116 32
49 -13 92 -97 92 -38 0 -39 1 -39 38 0 44 -33 120 -55 128 -9 4 -21 2 -28 -5
-23 -23 -26 -8 -20 98 6 102 5 109 -16 130 -26 26 -42 27 -72 2z m80 -681 c0
-151 -6 -312 -13 -375 -13 -106 -14 -110 -46 -135 -18 -14 -51 -42 -74 -62
-64 -60 -62 -68 -30 152 8 58 26 159 39 225 13 66 31 176 40 245 8 69 20 134
25 145 5 11 16 38 25 60 12 31 18 36 25 25 6 -8 10 -131 9 -280z"/>
</g>
</svg>
