<?xml version="1.0" standalone="no"?>
<!DOCTYPE svg PUBLIC "-//W3C//DTD SVG 20010904//EN"
 "http://www.w3.org/TR/2001/REC-SVG-20010904/DTD/svg10.dtd">
<svg version="1.0" xmlns="http://www.w3.org/2000/svg"
 width="208.000000pt" height="220.000000pt" viewBox="0 0 208.000000 220.000000"
 preserveAspectRatio="xMidYMid meet">
<metadata>
Created by potrace 1.16, written by Peter Selinger 2001-2019
</metadata>
<g transform="translate(0.000000,220.000000) scale(0.100000,-0.100000)"
fill="#000000" stroke="none">
<path d="M1534 2148 c-30 -34 -50 -69 -64 -113 -11 -37 -26 -66 -77 -156 -12
-20 -27 -47 -34 -60 -40 -72 -99 -162 -144 -219 -45 -57 -105 -182 -105 -218
0 -19 38 -52 60 -52 24 0 105 108 139 187 5 11 15 24 20 28 10 6 82 122 119
191 16 30 104 96 152 114 19 7 40 17 45 21 18 12 93 21 99 11 5 -9 -15 -64
-50 -137 -8 -16 -33 -57 -54 -90 -22 -33 -46 -71 -52 -85 -7 -13 -35 -46 -63
-72 -27 -27 -56 -54 -64 -62 -7 -8 -14 -29 -16 -48 -2 -32 -51 -113 -138 -224
-18 -23 -50 -67 -72 -98 -51 -73 -270 -347 -324 -406 l-42 -45 6 60 c3 33 14
89 25 125 47 162 84 402 72 474 -7 36 -11 41 -36 44 -38 5 -76 -31 -76 -72 -1
-77 -28 -182 -58 -226 -36 -52 -119 -136 -127 -128 -3 3 -1 34 4 69 5 35 15
127 21 204 23 300 31 365 45 392 22 44 45 128 45 168 0 54 -15 75 -53 75 -62
0 -68 -14 -103 -230 -2 -14 -9 -97 -15 -185 -22 -352 -57 -599 -87 -622 -8 -7
-43 -40 -78 -73 -34 -33 -65 -60 -69 -60 -8 0 3 84 18 130 6 19 11 44 12 55 5
70 19 110 51 142 31 31 34 38 34 97 0 52 -4 66 -23 84 -28 26 -64 28 -94 4
-38 -29 -74 -144 -80 -252 -3 -60 -13 -121 -28 -165 -32 -96 -34 -231 -4 -269
11 -14 29 -26 39 -26 10 0 49 30 85 66 37 36 69 63 72 61 2 -3 -1 -33 -8 -67
-9 -48 -9 -64 0 -73 10 -9 17 -7 32 12 10 13 19 29 19 35 0 12 45 104 76 156
8 14 26 50 40 80 39 86 53 108 87 143 18 18 39 45 47 60 19 37 50 55 50 30 0
-42 -64 -447 -76 -478 -10 -26 -131 -202 -154 -225 -37 -35 -190 -212 -190
-220 0 -5 15 -10 33 -10 29 0 47 13 130 95 53 53 109 113 124 133 15 20 43 53
63 72 19 19 49 53 66 75 17 22 46 56 65 75 19 19 51 55 72 80 69 82 122 144
147 172 14 15 35 40 47 55 74 91 105 121 134 127 45 9 191 80 270 132 37 24
70 44 73 44 4 0 6 -36 6 -79 0 -91 2 -88 -98 -151 -39 -25 -74 -52 -77 -60 -7
-21 -65 -54 -94 -55 -13 0 -26 -6 -29 -14 -3 -9 0 -11 8 -6 8 5 11 4 6 -3 -4
-6 -13 -9 -20 -6 -9 3 -20 -6 -28 -23 -7 -15 -21 -28 -31 -28 -10 0 -23 -8
-28 -17 -5 -10 -30 -26 -55 -37 -61 -28 -124 -78 -124 -101 0 -21 45 -60 69
-60 10 0 32 11 51 25 19 14 38 25 43 25 13 0 124 70 155 99 15 13 46 36 69 52
23 16 43 33 45 38 1 5 28 28 58 50 l55 42 3 -61 c2 -33 -1 -68 -7 -78 -5 -10
-47 -40 -92 -67 -45 -26 -100 -62 -123 -79 -46 -35 -178 -116 -189 -116 -4 0
-16 -9 -27 -20 -11 -11 -27 -20 -36 -20 -14 0 -66 -29 -201 -111 -55 -33 -66
-57 -43 -100 16 -28 75 -25 116 6 32 24 99 63 209 120 28 15 59 34 70 44 11
10 34 23 52 30 17 7 42 24 55 38 12 13 50 40 83 59 33 19 68 40 77 47 35 23
39 -1 28 -158 -8 -108 -8 -151 0 -159 15 -15 37 15 51 69 6 22 19 60 29 85 10
25 20 81 23 125 7 97 25 136 80 174 23 16 44 28 47 28 6 -1 43 22 130 80 36
24 71 43 78 43 8 0 27 8 43 17 23 14 29 25 29 50 0 26 -5 34 -22 38 -28 7
-179 -49 -191 -70 -4 -8 -40 -31 -78 -50 -55 -28 -71 -33 -75 -21 -9 25 17 98
43 120 61 51 64 56 61 99 -3 41 -4 42 -45 51 -45 10 -54 27 -33 65 7 15 12 41
19 102 1 4 23 24 50 44 27 21 51 48 54 61 6 32 -20 53 -59 47 -25 -4 -34 0
-48 22 -10 14 -26 35 -37 46 -27 27 -13 44 52 60 50 13 58 24 37 51 -18 22
-51 28 -98 16 -22 -6 -43 -8 -46 -6 -4 5 52 104 74 131 50 61 93 188 95 284 2
52 -1 65 -18 77 -29 22 -124 20 -192 -4 -32 -11 -58 -20 -60 -20 -5 0 10 36
43 106 19 39 34 78 34 86 0 42 -74 53 -106 16z m116 -796 c0 -4 -4 -12 -9 -17
-6 -6 -11 -41 -13 -79 l-3 -70 -50 -25 c-28 -14 -68 -38 -90 -52 -22 -15 -52
-30 -67 -33 l-28 -6 18 36 c9 20 32 53 50 72 17 20 32 40 32 44 0 5 18 38 41
73 39 62 43 65 80 65 21 0 39 -4 39 -8z m-485 -1072 c-27 -12 -43 -12 -25 0 8
5 22 9 30 9 10 0 8 -3 -5 -9z"/>
</g>
</svg>
