<?xml version="1.0" standalone="no"?>
<!DOCTYPE svg PUBLIC "-//W3C//DTD SVG 20010904//EN"
 "http://www.w3.org/TR/2001/REC-SVG-20010904/DTD/svg10.dtd">
<svg version="1.0" xmlns="http://www.w3.org/2000/svg"
 width="208.000000pt" height="208.000000pt" viewBox="0 0 208.000000 208.000000"
 preserveAspectRatio="xMidYMid meet">
<metadata>
Created by potrace 1.16, written by Peter Selinger 2001-2019
</metadata>
<g transform="translate(0.000000,208.000000) scale(0.100000,-0.100000)"
fill="#000000" stroke="none">
<path d="M1583 1893 c-20 -3 -42 -15 -58 -34 -22 -27 -25 -40 -27 -122 0 -51
-1 -99 0 -107 11 -119 12 -336 2 -500 -7 -113 -13 -345 -14 -516 -2 -171 -6
-316 -10 -323 -13 -20 -26 -204 -18 -236 7 -26 13 -30 43 -30 l34 0 6 80 c4
44 12 109 19 145 7 38 16 237 21 475 5 226 13 556 17 735 6 285 9 329 25 358
19 34 20 74 2 77 -5 1 -24 0 -42 -2z m-22 -716 c-13 -13 -26 -3 -16 12 3 6 11
8 17 5 6 -4 6 -10 -1 -17z"/>
<path d="M752 1808 l-33 -21 8 -116 c4 -64 7 -143 6 -176 -8 -187 -43 -442
-77 -570 -9 -33 -23 -100 -31 -148 -13 -82 -32 -160 -71 -282 -38 -121 -122
-265 -155 -265 -23 0 -26 -42 -4 -60 12 -10 21 -10 46 0 34 15 116 92 130 124
5 12 13 28 18 36 18 29 61 138 61 153 0 9 4 18 9 21 5 4 12 25 16 48 4 22 13
55 20 72 7 17 16 61 20 99 3 37 20 117 36 178 50 191 97 577 86 700 -3 33 -1
62 4 65 5 3 9 34 9 69 0 55 -3 66 -22 79 -29 21 -36 20 -76 -6z m-52 -939 c0
-6 -4 -7 -10 -4 -5 3 -10 11 -10 16 0 6 5 7 10 4 6 -3 10 -11 10 -16z"/>
<path d="M1075 1250 c-44 -17 -45 -27 -20 -175 26 -151 31 -273 14 -324 -6
-17 -8 -39 -5 -48 10 -25 49 17 81 90 27 59 28 64 21 181 -10 151 -8 193 7
217 10 18 8 24 -16 45 -29 25 -48 28 -82 14z"/>
</g>
</svg>
