<?xml version="1.0" standalone="no"?>
<!DOCTYPE svg PUBLIC "-//W3C//DTD SVG 20010904//EN"
 "http://www.w3.org/TR/2001/REC-SVG-20010904/DTD/svg10.dtd">
<svg version="1.0" xmlns="http://www.w3.org/2000/svg"
 width="208.000000pt" height="207.000000pt" viewBox="0 0 208.000000 207.000000"
 preserveAspectRatio="xMidYMid meet">
<metadata>
Created by potrace 1.16, written by Peter Selinger 2001-2019
</metadata>
<g transform="translate(0.000000,207.000000) scale(0.100000,-0.100000)"
fill="#000000" stroke="none">
<path d="M898 2053 c-16 -19 -37 -75 -44 -121 -3 -15 -9 -155 -14 -312 -12
-354 -45 -650 -90 -795 -5 -16 -16 -73 -25 -125 -18 -103 -88 -373 -112 -430
-8 -19 -21 -50 -29 -68 -8 -18 -14 -40 -14 -50 -1 -9 -19 -46 -40 -82 l-40
-65 42 -3 c32 -3 46 1 53 13 6 10 22 33 38 52 15 20 33 57 41 83 8 26 21 60
29 76 37 74 116 365 131 484 4 30 11 71 16 90 21 80 50 201 50 205 0 17 36 -1
70 -35 22 -22 49 -40 60 -40 32 0 34 -25 11 -103 -11 -40 -23 -110 -26 -157
-8 -115 -41 -298 -71 -390 -24 -75 -22 -96 10 -84 18 7 86 135 86 162 0 7 6
23 14 35 19 30 34 104 46 217 5 52 19 131 30 175 11 44 23 103 27 133 3 29 9
55 13 57 4 3 22 0 39 -6 28 -10 35 -9 54 8 12 11 30 23 40 26 9 4 17 13 17 21
0 9 12 22 28 30 15 8 48 36 73 62 26 27 68 69 93 94 26 25 56 60 67 78 11 17
27 32 35 32 8 0 14 10 14 25 0 20 -5 25 -25 25 -14 0 -25 -3 -25 -8 0 -4 -27
-28 -61 -52 -34 -25 -69 -53 -78 -63 -9 -10 -29 -25 -46 -33 -16 -8 -66 -41
-110 -73 -97 -72 -95 -75 -65 117 12 75 26 173 30 217 9 91 46 174 98 223 53
50 40 76 -43 87 -72 10 -91 -9 -116 -110 -23 -91 -45 -227 -60 -365 -12 -118
-27 -202 -37 -211 -4 -4 -36 -3 -71 2 -36 5 -73 6 -84 3 -18 -6 -19 -2 -12
102 3 60 10 153 16 208 5 54 9 163 9 241 0 119 3 146 16 160 10 9 20 44 25 83
4 37 11 83 14 103 5 26 3 40 -10 52 -22 22 -68 22 -87 0z m172 -1020 c0 -10
-4 -24 -9 -31 -6 -11 -9 -10 -13 5 -3 10 -3 24 -1 31 7 18 23 15 23 -5z"/>
<path d="M1715 1917 c-17 -27 -20 -47 -34 -284 -9 -139 -29 -299 -66 -523 -8
-47 -22 -139 -31 -205 -9 -66 -18 -123 -20 -126 -2 -4 -9 -85 -14 -181 -6 -95
-13 -195 -16 -223 -3 -27 -6 -101 -6 -163 -1 -162 21 -173 62 -32 22 76 30
134 50 365 7 72 21 195 32 275 11 80 23 174 28 210 4 36 22 144 38 240 17 96
36 224 42 284 7 60 19 124 26 142 20 48 17 171 -5 209 -23 40 -64 45 -86 12z
m25 -434 c0 -5 -5 -15 -10 -23 -8 -12 -10 -11 -10 8 0 12 5 22 10 22 6 0 10
-3 10 -7z"/>
<path d="M630 1425 c-76 -15 -89 -23 -104 -60 -21 -49 -37 -260 -34 -432 3
-142 2 -153 -19 -181 -18 -24 -20 -33 -10 -46 11 -15 16 -14 49 16 54 48 78
126 78 249 0 66 6 117 19 160 10 35 22 84 25 108 8 56 22 80 51 91 29 11 57
52 50 72 -11 27 -46 35 -105 23z"/>
<path d="M445 10 c-3 -5 1 -10 9 -10 9 0 16 5 16 10 0 6 -4 10 -9 10 -6 0 -13
-4 -16 -10z"/>
</g>
</svg>
