<?xml version="1.0" standalone="no"?>
<!DOCTYPE svg PUBLIC "-//W3C//DTD SVG 20010904//EN"
 "http://www.w3.org/TR/2001/REC-SVG-20010904/DTD/svg10.dtd">
<svg version="1.0" xmlns="http://www.w3.org/2000/svg"
 width="206.000000pt" height="208.000000pt" viewBox="0 0 206.000000 208.000000"
 preserveAspectRatio="xMidYMid meet">
<metadata>
Created by potrace 1.16, written by Peter Selinger 2001-2019
</metadata>
<g transform="translate(0.000000,208.000000) scale(0.100000,-0.100000)"
fill="#000000" stroke="none">
<path d="M1165 1673 c-16 -9 -40 -26 -53 -39 -13 -12 -38 -26 -55 -30 -17 -3
-41 -12 -52 -20 -11 -7 -38 -15 -60 -19 -101 -17 -185 -51 -185 -76 0 -9 -2
-24 -6 -32 -7 -18 38 -48 74 -49 15 0 64 14 110 31 97 36 107 37 97 14 -3 -10
-15 -67 -25 -128 -10 -60 -29 -150 -41 -200 -19 -76 -23 -117 -23 -264 l-1
-174 -50 -14 c-27 -7 -81 -17 -119 -22 -41 -5 -79 -17 -95 -28 -36 -27 -39
-72 -8 -101 l24 -23 59 19 c33 11 93 27 134 36 41 10 95 22 119 27 25 6 68 21
95 34 28 13 76 27 106 31 30 4 60 10 65 14 10 8 60 16 155 26 71 7 114 31 118
67 3 26 1 27 -42 27 -25 0 -48 4 -51 10 -8 13 -69 13 -109 1 -17 -6 -67 -17
-111 -26 -44 -9 -102 -23 -129 -31 -29 -8 -53 -11 -58 -6 -5 5 -9 66 -9 135 0
98 5 148 25 229 13 56 27 123 31 148 4 25 12 54 19 65 7 11 18 40 25 65 17 61
57 146 93 199 16 24 27 49 24 56 -2 6 0 18 4 26 23 36 -41 51 -95 22z"/>
</g>
</svg>
