<?xml version="1.0" standalone="no"?>
<!DOCTYPE svg PUBLIC "-//W3C//DTD SVG 20010904//EN"
 "http://www.w3.org/TR/2001/REC-SVG-20010904/DTD/svg10.dtd">
<svg version="1.0" xmlns="http://www.w3.org/2000/svg"
 width="210.000000pt" height="208.000000pt" viewBox="0 0 210.000000 208.000000"
 preserveAspectRatio="xMidYMid meet">
<metadata>
Created by potrace 1.16, written by Peter Selinger 2001-2019
</metadata>
<g transform="translate(0.000000,208.000000) scale(0.100000,-0.100000)"
fill="#000000" stroke="none">
<path d="M1103 2066 c-22 -10 -28 -24 -24 -56 2 -25 -20 -202 -29 -225 -12
-32 -100 -91 -178 -121 -37 -14 -75 -30 -84 -35 -10 -5 -25 -9 -33 -9 -21 0
-64 -29 -76 -51 -13 -26 3 -53 40 -69 26 -11 38 -9 88 11 32 13 64 27 71 33
22 16 115 57 119 52 3 -3 -9 -43 -25 -90 -17 -46 -40 -120 -52 -163 -23 -81
-77 -235 -110 -313 -11 -25 -33 -92 -51 -150 -32 -108 -35 -118 -112 -305 -25
-60 -59 -156 -75 -212 -31 -103 -117 -327 -135 -350 -7 -10 1 -13 36 -13 38 0
49 4 65 28 33 47 69 132 122 292 29 85 67 191 85 235 61 148 75 183 101 267
45 144 55 162 68 120 10 -30 51 -48 78 -33 47 24 68 38 86 54 37 33 42 22 43
-90 2 -135 3 -157 13 -265 11 -110 5 -134 -34 -142 -65 -13 -136 -55 -164 -98
-33 -51 -29 -82 15 -97 32 -11 62 -2 84 24 15 18 221 97 335 128 70 20 176 37
215 35 60 -2 205 15 214 26 5 6 11 35 12 65 l4 55 -34 8 c-28 8 -43 5 -83 -16
-35 -18 -71 -27 -121 -31 -40 -3 -88 -7 -107 -10 -19 -3 -48 -8 -65 -10 -16
-3 -50 -10 -75 -16 -82 -19 -100 -21 -101 -13 0 5 -2 107 -5 227 -7 267 -2
289 84 367 31 28 66 60 77 71 12 10 25 19 30 19 6 0 30 18 54 39 31 26 42 43
38 54 -7 18 -47 23 -62 8 -6 -5 -52 -32 -102 -60 -51 -28 -135 -74 -185 -103
-51 -28 -116 -64 -145 -78 -29 -15 -59 -35 -68 -44 -16 -15 -35 -21 -35 -11 0
3 10 31 23 63 13 31 38 104 56 162 49 155 87 267 115 339 15 36 26 73 26 83 0
9 9 22 20 28 11 6 20 17 20 25 0 7 42 47 93 88 105 86 177 158 177 180 0 24
-27 28 -52 8 -13 -10 -41 -28 -63 -39 -22 -11 -62 -39 -89 -61 -71 -60 -77
-54 -40 35 8 18 18 35 24 39 22 14 10 58 -27 91 -39 36 -53 39 -90 20z"/>
</g>
</svg>
