<?xml version="1.0" standalone="no"?>
<!DOCTYPE svg PUBLIC "-//W3C//DTD SVG 20010904//EN"
 "http://www.w3.org/TR/2001/REC-SVG-20010904/DTD/svg10.dtd">
<svg version="1.0" xmlns="http://www.w3.org/2000/svg"
 width="208.000000pt" height="208.000000pt" viewBox="0 0 208.000000 208.000000"
 preserveAspectRatio="xMidYMid meet">
<metadata>
Created by potrace 1.16, written by Peter Selinger 2001-2019
</metadata>
<g transform="translate(0.000000,208.000000) scale(0.100000,-0.100000)"
fill="#000000" stroke="none">
<path d="M1064 1741 c-22 -9 -38 -37 -30 -50 3 -4 -2 -45 -10 -92 -8 -46 -20
-111 -25 -143 -5 -32 -14 -67 -20 -78 -10 -19 -285 -158 -314 -158 -29 0 -96
-40 -107 -65 -18 -39 2 -71 49 -78 76 -13 103 -9 115 18 6 14 17 25 24 25 7 0
26 12 43 26 17 14 54 35 81 45 l50 19 -26 -58 c-14 -31 -33 -75 -41 -97 -9
-22 -26 -63 -39 -92 -13 -28 -24 -55 -24 -58 0 -4 -6 -21 -14 -38 -7 -18 -33
-77 -56 -132 -56 -133 -82 -190 -140 -310 -45 -93 -99 -208 -165 -350 -15 -33
-30 -63 -32 -67 -2 -5 20 -8 49 -8 l53 0 48 103 c27 56 73 150 103 209 30 60
78 163 108 230 29 68 62 143 73 168 11 25 29 65 39 90 10 25 19 47 20 49 2 1
13 -4 26 -13 32 -23 57 -20 121 14 l56 31 7 -47 c9 -61 -1 -215 -20 -296 -8
-34 -20 -96 -27 -137 -13 -73 -13 -74 -53 -92 -23 -10 -63 -23 -91 -30 -27 -7
-68 -26 -90 -42 -22 -17 -42 -32 -43 -33 -2 -2 -1 -16 3 -32 9 -41 55 -61 99
-42 17 7 60 23 95 35 35 13 73 28 85 33 120 54 173 73 246 87 144 29 202 46
249 70 26 13 67 28 91 35 99 25 122 46 104 94 -11 30 -142 11 -229 -32 -22
-11 -56 -23 -75 -26 -19 -4 -46 -11 -60 -17 -14 -5 -71 -15 -127 -22 -122 -15
-114 -32 -78 162 14 74 25 169 25 212 0 88 25 169 62 206 42 42 155 133 165
133 5 0 14 5 21 12 16 16 -3 48 -29 48 -16 0 -136 -63 -229 -121 -28 -18 -144
-71 -161 -74 -9 -2 -34 -8 -55 -14 -54 -15 -55 -15 -43 17 9 24 23 54 92 202
19 40 39 73 79 132 7 10 28 23 48 29 78 24 285 128 312 156 12 13 29 23 38 23
9 0 25 9 35 20 10 11 25 20 33 20 18 0 82 66 82 85 0 35 -23 27 -270 -100
-115 -59 -260 -118 -268 -110 -3 3 3 50 13 106 17 93 21 103 59 141 39 38 40
41 21 54 -10 8 -26 14 -36 14 -9 0 -29 2 -45 5 -16 2 -38 0 -50 -4z"/>
</g>
</svg>
