<?xml version="1.0" standalone="no"?>
<!DOCTYPE svg PUBLIC "-//W3C//DTD SVG 20010904//EN"
 "http://www.w3.org/TR/2001/REC-SVG-20010904/DTD/svg10.dtd">
<svg version="1.0" xmlns="http://www.w3.org/2000/svg"
 width="206.000000pt" height="209.000000pt" viewBox="0 0 206.000000 209.000000"
 preserveAspectRatio="xMidYMid meet">
<metadata>
Created by potrace 1.16, written by Peter Selinger 2001-2019
</metadata>
<g transform="translate(0.000000,209.000000) scale(0.100000,-0.100000)"
fill="#000000" stroke="none">
<path d="M990 1691 c-25 -10 -76 -34 -115 -54 -141 -70 -213 -97 -263 -97 -48
0 -91 -30 -102 -70 -5 -20 -19 -45 -30 -55 -24 -22 -26 -62 -4 -113 21 -50 21
-383 -1 -526 -16 -109 -77 -338 -105 -401 -11 -22 -26 -57 -34 -78 -9 -21 -29
-56 -46 -77 -38 -47 -38 -62 0 -94 29 -24 48 -25 75 -6 15 11 78 19 196 26 57
3 118 7 134 9 196 22 339 34 346 30 4 -3 16 6 25 20 33 50 -8 145 -63 145 -19
0 -23 -5 -23 -30 0 -22 -5 -30 -17 -30 -10 -1 -40 -3 -68 -6 -27 -2 -70 -6
-95 -8 -25 -2 -56 -6 -70 -9 -14 -3 -87 -8 -164 -11 -126 -4 -138 -3 -133 12
3 9 15 44 26 77 48 147 91 360 112 557 l13 118 48 16 c26 8 48 20 48 24 0 10
76 64 130 94 34 18 112 69 158 102 24 18 43 11 24 -8 -7 -7 -12 -21 -12 -33 0
-12 -4 -25 -9 -31 -22 -24 -54 -156 -59 -242 l-5 -94 -46 -20 c-54 -23 -114
-46 -157 -59 -46 -14 -84 -52 -77 -78 8 -32 52 -63 77 -55 12 4 53 25 91 47
39 23 95 53 127 68 31 16 59 33 63 38 3 6 15 11 26 11 10 0 27 8 37 18 10 9
44 29 76 45 47 23 57 31 54 50 -4 30 -36 33 -103 8 -31 -12 -60 -21 -65 -21
-10 0 -5 59 10 115 21 76 62 170 98 223 48 70 154 180 187 192 26 10 44 65 27
82 -6 6 -29 11 -50 11 -42 0 -91 -25 -147 -74 -27 -24 -163 -99 -179 -99 -5 0
-115 -65 -186 -109 -52 -33 -153 -81 -170 -81 -13 0 -17 9 -18 38 -1 20 -6 68
-13 105 -12 77 -8 87 44 107 93 36 293 135 322 160 11 10 34 25 50 33 33 17
85 63 85 75 0 9 -22 32 -29 32 -4 -1 -26 -9 -51 -19z"/>
</g>
</svg>
