<?xml version="1.0" standalone="no"?>
<!DOCTYPE svg PUBLIC "-//W3C//DTD SVG 20010904//EN"
 "http://www.w3.org/TR/2001/REC-SVG-20010904/DTD/svg10.dtd">
<svg version="1.0" xmlns="http://www.w3.org/2000/svg"
 width="206.000000pt" height="209.000000pt" viewBox="0 0 206.000000 209.000000"
 preserveAspectRatio="xMidYMid meet">
<metadata>
Created by potrace 1.16, written by Peter Selinger 2001-2019
</metadata>
<g transform="translate(0.000000,209.000000) scale(0.100000,-0.100000)"
fill="#000000" stroke="none">
<path d="M1145 1905 c-33 -14 -66 -25 -72 -25 -7 0 -36 -11 -65 -24 -93 -41
-181 -68 -258 -77 -86 -11 -142 -27 -152 -43 -15 -23 -7 -55 19 -76 27 -21 45
-22 88 -5 15 6 13 2 -7 -13 -38 -32 -58 -100 -58 -205 0 -49 -4 -128 -10 -176
-5 -47 -14 -129 -20 -181 -8 -83 -23 -155 -59 -300 -24 -94 -78 -250 -101
-296 -15 -27 -30 -63 -34 -80 -4 -16 -20 -42 -36 -59 -43 -45 -48 -78 -14
-104 33 -26 51 -27 77 -4 16 15 48 19 186 25 316 14 349 16 367 22 11 3 55 10
99 15 110 14 204 34 240 52 28 14 30 18 28 64 -2 61 -28 88 -82 83 -34 -3 -36
-5 -34 -35 3 -30 1 -32 -45 -42 -39 -8 -138 -20 -297 -36 -43 -4 -271 -9 -327
-7 -60 2 -60 5 -7 141 23 58 47 126 53 151 11 45 11 45 51 42 49 -3 93 13 165
59 30 20 71 44 90 54 19 9 42 23 50 30 16 13 130 72 193 99 21 9 37 23 37 32
0 13 -10 15 -59 12 -33 -1 -62 0 -65 3 -3 3 3 32 14 64 11 32 20 68 20 79 0
12 17 60 38 108 30 71 36 96 34 137 -4 46 -6 51 -28 51 -34 0 -103 -29 -144
-60 -19 -15 -47 -30 -61 -33 -14 -4 -48 -23 -75 -42 -27 -19 -68 -49 -92 -66
-72 -50 -42 -99 61 -99 63 0 87 13 87 49 0 34 35 68 77 77 l31 6 -19 -83 c-10
-46 -24 -115 -30 -154 -6 -38 -17 -76 -24 -84 -8 -8 -50 -26 -94 -41 -44 -14
-88 -33 -98 -42 -18 -15 -104 -41 -112 -33 -2 3 6 53 18 112 11 59 30 205 41
323 25 268 33 306 70 325 32 17 80 71 80 91 0 16 50 44 79 44 11 0 22 4 25 9
3 4 34 18 68 31 120 43 206 94 208 122 0 11 -30 38 -43 38 -7 0 -39 -12 -72
-25z"/>
</g>
</svg>
