<?xml version="1.0" standalone="no"?>
<!DOCTYPE svg PUBLIC "-//W3C//DTD SVG 20010904//EN"
 "http://www.w3.org/TR/2001/REC-SVG-20010904/DTD/svg10.dtd">
<svg version="1.0" xmlns="http://www.w3.org/2000/svg"
 width="208.000000pt" height="209.000000pt" viewBox="0 0 208.000000 209.000000"
 preserveAspectRatio="xMidYMid meet">
<metadata>
Created by potrace 1.16, written by Peter Selinger 2001-2019
</metadata>
<g transform="translate(0.000000,209.000000) scale(0.100000,-0.100000)"
fill="#000000" stroke="none">
<path d="M1234 2074 c-45 -19 -136 -138 -250 -330 -13 -22 -54 -21 -152 1 -35
8 -72 15 -83 15 -22 0 -69 -42 -69 -62 0 -26 66 -56 139 -64 39 -3 71 -11 71
-16 0 -5 -11 -26 -25 -46 -14 -20 -25 -41 -25 -46 0 -5 -17 -32 -38 -60 -41
-55 -58 -81 -112 -162 -19 -29 -65 -95 -102 -147 -60 -84 -82 -106 -139 -142
-10 -5 -33 -23 -52 -38 -22 -18 -54 -31 -84 -35 -67 -10 -67 -36 1 -40 30 -2
56 -10 69 -23 11 -10 34 -19 49 -19 34 0 115 39 142 69 11 12 24 21 31 21 6 0
22 11 35 25 23 24 162 105 181 105 17 0 9 -16 -49 -106 -71 -109 -112 -187
-112 -213 0 -25 -17 -38 -63 -46 -31 -6 -41 -15 -58 -47 l-20 -40 20 -5 c27
-7 26 -25 -1 -77 -32 -57 -152 -201 -170 -201 -15 0 -20 -15 -6 -20 27 -10 80
20 149 84 75 68 79 67 79 -28 0 -34 -6 -65 -15 -78 -19 -27 -9 -53 21 -53 25
0 54 33 54 62 0 10 5 18 10 18 6 0 10 46 10 119 l0 119 35 6 c27 5 40 16 60
51 25 42 146 155 166 155 6 0 8 -79 5 -212 -5 -193 -12 -296 -32 -501 -6 -62
-5 -67 13 -67 23 0 43 57 67 195 9 50 21 104 25 120 5 17 13 50 16 75 16 98
19 105 41 75 47 -64 85 -92 178 -128 53 -22 103 -37 110 -34 7 3 21 29 31 59
14 42 16 71 10 139 -12 154 23 439 64 531 33 73 73 213 69 244 -5 50 -42 44
-123 -21 -38 -30 -74 -55 -79 -55 -5 0 -20 -10 -32 -21 -23 -22 -32 -28 -95
-63 -19 -10 -51 -32 -71 -48 -40 -32 -47 -29 -43 20 3 38 -17 64 -49 61 -34
-2 -36 0 -21 34 13 31 22 39 94 82 35 21 152 111 186 144 11 10 34 26 50 34
43 22 125 106 125 128 0 20 -24 26 -35 9 -3 -5 -25 -18 -48 -29 -23 -11 -53
-29 -67 -40 -56 -44 -244 -160 -251 -155 -15 9 27 89 54 102 55 27 17 67 -56
58 -65 -7 -87 -17 -92 -40 -2 -11 -15 -64 -28 -116 l-22 -95 -95 -57 c-120
-74 -147 -77 -93 -10 72 86 164 215 212 296 13 23 27 43 30 46 3 3 12 17 19
31 25 48 62 61 182 61 78 0 114 4 127 14 17 13 17 15 -5 33 -23 20 -101 41
-152 41 -38 0 -39 19 -2 62 16 18 38 49 50 70 13 20 41 52 65 72 96 82 105 99
65 136 -20 19 -66 25 -94 14z m126 -984 c0 -5 -11 -53 -24 -107 -39 -158 -46
-221 -46 -398 l0 -167 -27 6 c-62 15 -132 59 -177 113 -42 51 -46 59 -46 110
0 115 42 283 70 283 6 0 27 15 47 33 21 18 63 49 94 69 30 20 61 44 68 52 15
18 41 22 41 6z m-392 -92 c-2 -40 -8 -54 -26 -67 -13 -9 -48 -37 -78 -63 -90
-79 -104 -54 -20 35 20 21 36 46 36 56 0 22 70 102 82 95 5 -3 8 -28 6 -56z"/>
</g>
</svg>
