<?xml version="1.0" standalone="no"?>
<!DOCTYPE svg PUBLIC "-//W3C//DTD SVG 20010904//EN"
 "http://www.w3.org/TR/2001/REC-SVG-20010904/DTD/svg10.dtd">
<svg version="1.0" xmlns="http://www.w3.org/2000/svg"
 width="209.000000pt" height="209.000000pt" viewBox="0 0 209.000000 209.000000"
 preserveAspectRatio="xMidYMid meet">
<metadata>
Created by potrace 1.16, written by Peter Selinger 2001-2019
</metadata>
<g transform="translate(0.000000,209.000000) scale(0.100000,-0.100000)"
fill="#000000" stroke="none">
<path d="M1096 2033 c-3 -32 -7 -68 -8 -80 -2 -16 -20 -30 -65 -52 -81 -41
-86 -40 -81 12 4 31 0 49 -15 70 -16 24 -23 27 -50 21 -18 -4 -55 -6 -83 -5
-71 2 -81 -12 -87 -122 -3 -57 -9 -94 -18 -102 -8 -8 -43 -21 -79 -30 -122
-29 -202 -57 -270 -94 -25 -13 -44 -55 -37 -83 8 -32 68 -63 94 -49 100 55
258 120 267 110 4 -4 -8 -209 -20 -335 -5 -65 -4 -74 15 -93 25 -25 26 -34 6
-51 -18 -15 -20 -64 -2 -78 30 -24 54 -22 88 7 19 16 48 41 64 55 17 14 37 26
45 26 8 0 28 7 44 15 15 8 33 15 39 15 6 0 20 9 31 19 12 11 48 29 80 40 33
11 69 29 80 39 12 10 34 27 50 38 16 10 41 28 56 39 73 55 190 126 283 173 15
7 27 18 27 23 0 6 16 17 35 25 20 8 44 23 55 34 11 11 26 20 34 20 8 0 22 9
30 21 24 35 38 18 17 -21 -10 -19 -27 -51 -37 -70 -10 -19 -26 -47 -36 -62
-10 -14 -27 -57 -39 -94 -13 -41 -32 -78 -48 -93 -36 -34 -263 -178 -283 -180
-5 -1 -8 35 -8 79 l0 80 -34 0 c-43 0 -66 -22 -66 -62 0 -17 -4 -47 -9 -67
-41 -154 -32 -143 -200 -251 -52 -33 -104 -60 -116 -60 -30 0 -65 -28 -65 -51
0 -11 7 -33 15 -50 14 -26 14 -42 2 -137 -15 -125 -12 -211 9 -219 18 -7 54
24 54 47 0 9 4 20 9 25 5 6 16 51 25 100 22 130 29 147 61 165 17 9 32 29 37
46 5 19 23 39 52 56 24 16 46 28 49 28 16 0 18 -162 4 -278 -22 -171 -32 -388
-28 -559 1 -37 24 -45 39 -15 11 21 32 124 43 212 15 117 25 170 36 181 6 6
33 12 61 14 28 2 66 12 84 22 18 10 53 20 77 23 l45 5 18 60 c10 33 25 114 33
180 9 66 25 142 36 169 11 27 26 75 34 105 8 31 24 74 35 96 11 21 20 46 20
54 0 16 16 69 35 116 7 17 25 66 40 110 15 44 44 107 63 140 94 158 128 212
152 236 54 56 80 102 80 141 0 26 -5 41 -15 45 -21 7 -98 -23 -121 -48 -10
-11 -36 -28 -58 -39 -23 -11 -72 -42 -111 -70 -38 -27 -92 -63 -120 -79 -27
-15 -108 -64 -178 -107 -159 -98 -220 -133 -229 -134 -14 0 -8 63 7 79 10 12
16 56 21 151 4 74 12 147 18 162 12 27 66 70 102 82 11 3 38 23 62 45 46 43
54 77 24 104 -22 20 -79 9 -74 -15 2 -15 -24 -37 -77 -65 -37 -20 -41 -16 -41
42 l0 55 -54 0 -54 0 -6 -57z m1 -385 c-5 -174 -22 -259 -53 -283 -34 -25
-179 -95 -197 -95 -10 0 -38 -11 -62 -25 -24 -14 -45 -22 -48 -18 -7 12 21
294 32 323 5 14 12 38 16 55 14 63 25 -4 21 -122 -6 -164 2 -187 59 -161 31
14 33 21 46 183 21 264 21 265 79 265 15 0 35 9 45 20 10 11 29 20 43 20 l25
0 -6 -162z m528 11 c-4 -5 -13 -9 -22 -9 -13 0 -13 3 -3 15 13 15 35 11 25 -6z
m-205 -129 c0 -5 -4 -10 -10 -10 -5 0 -10 5 -10 10 0 6 5 10 10 10 6 0 10 -4
10 -10z m42 -436 c-4 -39 -21 -123 -32 -154 -9 -25 -16 -69 -25 -165 -8 -82
-26 -178 -37 -203 -6 -12 -27 -31 -46 -42 -38 -23 -116 -37 -125 -24 -8 14 21
314 34 357 7 20 9 40 6 44 -4 3 -1 16 7 27 7 12 16 35 20 52 5 20 18 36 41 48
19 11 35 22 35 26 0 5 11 11 25 14 13 3 36 17 51 31 34 31 50 27 46 -11z"/>
<path d="M508 1184 c-41 -13 -48 -37 -32 -99 20 -74 -1 -347 -33 -423 -17 -41
-12 -49 25 -36 17 6 34 24 46 49 11 22 26 52 33 67 15 31 41 183 49 298 4 41
10 83 15 92 5 9 9 27 9 40 0 21 -4 24 -40 23 -22 0 -54 -5 -72 -11z"/>
</g>
</svg>
