<?xml version="1.0" standalone="no"?>
<!DOCTYPE svg PUBLIC "-//W3C//DTD SVG 20010904//EN"
 "http://www.w3.org/TR/2001/REC-SVG-20010904/DTD/svg10.dtd">
<svg version="1.0" xmlns="http://www.w3.org/2000/svg"
 width="208.000000pt" height="222.000000pt" viewBox="0 0 208.000000 222.000000"
 preserveAspectRatio="xMidYMid meet">
<metadata>
Created by potrace 1.16, written by Peter Selinger 2001-2019
</metadata>
<g transform="translate(0.000000,222.000000) scale(0.100000,-0.100000)"
fill="#000000" stroke="none">
<path d="M1059 2213 c-1 -5 -3 -26 -5 -48 -4 -44 -20 -60 -76 -76 -21 -5 -60
-21 -88 -35 -52 -26 -70 -25 -70 5 0 25 -24 43 -52 39 -28 -4 -68 -62 -68 -98
0 -15 -8 -34 -18 -43 -24 -21 -29 -21 -34 1 -5 16 -15 18 -81 17 -90 -2 -121
-20 -110 -64 3 -14 12 -32 20 -39 20 -20 16 -30 -18 -48 -17 -8 -53 -31 -79
-50 -26 -19 -51 -34 -55 -34 -24 0 -86 -39 -105 -67 -26 -39 -24 -60 12 -86
27 -20 29 -20 83 -3 30 9 59 25 65 36 11 20 110 90 127 90 9 0 33 -130 33
-180 0 -31 17 -50 45 -50 52 1 55 17 42 196 -4 55 -5 108 -1 118 5 13 62 46
79 46 6 0 18 -38 26 -80 4 -25 12 -63 18 -85 6 -22 13 -57 16 -77 8 -49 34
-50 59 -3 19 35 19 44 0 256 -6 62 -5 66 20 82 33 22 178 78 185 72 2 -3 8
-60 13 -128 4 -67 12 -143 17 -168 15 -70 3 -99 -57 -134 -97 -57 -157 -92
-222 -129 -36 -21 -89 -54 -119 -75 -29 -21 -70 -46 -90 -56 -20 -11 -46 -27
-57 -38 -20 -16 -47 -23 -124 -30 -43 -4 -90 -39 -90 -67 0 -15 4 -30 9 -35
16 -16 44 -274 36 -339 -6 -52 -4 -58 10 -52 9 3 20 6 24 6 4 0 18 19 32 42
22 39 24 54 24 165 0 112 2 123 18 123 29 0 50 15 117 81 34 33 74 66 89 72
15 7 40 22 57 35 44 36 159 109 214 138 27 14 54 32 61 40 6 8 16 14 22 14 5
0 32 16 58 35 27 19 51 35 54 35 3 0 18 8 33 19 93 63 139 91 150 91 7 0 26 7
42 15 39 20 39 12 -9 -99 -21 -50 -44 -110 -51 -133 -15 -48 -79 -109 -190
-180 -86 -55 -115 -62 -124 -31 -3 13 -6 37 -6 53 0 47 -25 76 -58 69 -52 -12
-62 -36 -62 -145 l0 -99 -37 -23 c-21 -13 -78 -43 -126 -66 -93 -43 -167 -96
-167 -120 0 -7 8 -28 19 -45 32 -53 34 -125 6 -213 -33 -103 -33 -139 0 -126
27 10 99 118 112 167 7 27 10 53 7 58 -3 5 -2 37 1 72 l7 64 69 36 69 36 0
-62 c0 -35 -9 -99 -21 -143 -35 -141 -55 -313 -65 -562 l-7 -173 40 0 39 0 18
177 c22 229 44 407 57 458 5 22 11 49 13 61 8 40 29 104 36 104 3 0 14 -24 25
-52 19 -54 42 -93 79 -132 27 -29 49 -40 109 -55 56 -14 87 -2 87 33 0 12 3
26 7 29 7 8 9 21 18 172 8 132 20 198 44 245 10 19 24 67 31 105 16 97 84 310
131 413 10 23 19 47 19 53 0 6 13 31 30 56 16 24 30 48 30 53 0 4 18 30 39 58
53 67 60 142 12 142 -26 0 -80 -29 -131 -70 -64 -52 -255 -159 -286 -160 -13
0 -24 120 -24 263 0 115 7 126 108 173 65 30 79 54 43 73 -13 8 -32 7 -65 -3
-43 -13 -46 -13 -46 5 0 17 -8 19 -60 19 -33 0 -60 -3 -61 -7z m-75 -702 c3
-5 -1 -14 -8 -20 -16 -13 -32 2 -21 19 8 12 22 13 29 1z m216 -325 c0 -2 -11
-51 -24 -108 -13 -56 -29 -176 -36 -265 -15 -179 -18 -186 -74 -142 -87 69
-138 290 -85 375 11 19 24 34 28 34 3 0 44 25 91 55 78 51 100 62 100 51z"/>
</g>
</svg>
