<?xml version="1.0" standalone="no"?>
<!DOCTYPE svg PUBLIC "-//W3C//DTD SVG 20010904//EN"
 "http://www.w3.org/TR/2001/REC-SVG-20010904/DTD/svg10.dtd">
<svg version="1.0" xmlns="http://www.w3.org/2000/svg"
 width="209.000000pt" height="210.000000pt" viewBox="0 0 209.000000 210.000000"
 preserveAspectRatio="xMidYMid meet">
<metadata>
Created by potrace 1.16, written by Peter Selinger 2001-2019
</metadata>
<g transform="translate(0.000000,210.000000) scale(0.100000,-0.100000)"
fill="#000000" stroke="none">
<path d="M1122 2053 c-34 -54 -74 -138 -96 -201 -9 -24 -24 -55 -34 -70 -11
-15 -28 -47 -39 -72 -35 -78 -86 -137 -157 -184 -37 -24 -78 -47 -92 -50 -14
-4 -52 -27 -85 -51 -34 -25 -65 -45 -69 -45 -4 0 -20 -16 -35 -37 -26 -33 -27
-38 -14 -61 8 -14 27 -29 43 -33 26 -7 35 -3 74 32 24 23 81 59 125 80 45 21
114 61 152 88 150 107 238 159 412 245 23 12 42 26 43 31 1 13 73 59 134 85
25 11 48 25 51 30 3 6 11 10 17 10 7 0 9 -29 4 -93 -7 -91 -17 -144 -50 -257
-9 -30 -25 -96 -36 -146 -28 -129 -61 -197 -132 -270 -57 -58 -158 -106 -158
-75 0 15 -36 23 -74 15 -31 -5 -46 -14 -93 -54 -7 -6 -13 -29 -13 -50 0 -33
-6 -45 -36 -72 -19 -18 -48 -38 -64 -45 -25 -10 -31 -9 -39 4 -8 15 -16 15
-82 -7 -41 -13 -82 -33 -93 -44 -19 -22 -19 -47 0 -407 5 -86 3 -113 -10 -137
-21 -40 -20 -58 1 -66 12 -5 26 3 45 26 58 70 62 89 60 259 l-3 157 48 7 c57
8 73 19 73 51 0 22 44 63 55 52 2 -2 7 -101 9 -219 5 -193 13 -296 34 -429 7
-43 9 -45 42 -48 l35 -3 1 171 c0 94 5 175 10 180 5 5 32 -14 69 -51 41 -41
72 -63 100 -70 22 -6 59 -26 82 -45 32 -26 48 -33 67 -28 30 7 35 32 45 219 4
87 16 176 30 235 12 52 38 160 56 240 19 80 48 182 65 228 33 91 40 172 15
192 -11 9 -20 8 -43 -9 -16 -11 -35 -27 -42 -36 -7 -8 -19 -15 -27 -15 -11 0
-11 4 -3 21 17 30 49 131 50 152 0 9 9 26 21 38 11 11 18 26 16 34 -3 7 0 21
7 31 7 11 19 44 26 74 7 30 16 66 21 80 5 14 13 54 19 90 6 36 14 81 18 100 5
19 4 50 -1 69 -5 19 -7 50 -4 68 4 25 1 35 -12 42 -27 15 -61 2 -119 -46 -30
-24 -66 -46 -80 -49 -39 -9 -107 -54 -118 -77 -5 -11 -40 -34 -80 -51 -39 -17
-79 -37 -88 -45 -21 -17 -138 -73 -143 -68 -5 6 35 76 58 102 10 11 27 41 37
66 11 26 34 61 51 78 17 17 31 37 31 44 0 7 16 29 35 47 26 25 35 42 33 60 -3
23 -7 25 -64 28 l-61 3 -31 -48z m228 -283 c0 -5 -7 -10 -15 -10 -8 0 -15 5
-15 10 0 6 7 10 15 10 8 0 15 -4 15 -10z m115 -757 c-4 -16 -10 -48 -15 -73
-4 -25 -20 -90 -35 -145 -32 -121 -54 -236 -69 -370 l-11 -100 -35 3 c-39 3
-100 32 -133 62 -12 11 -38 25 -58 32 -21 6 -39 18 -41 27 -11 42 4 220 23
281 33 104 35 107 85 130 27 11 62 32 80 45 18 14 37 25 43 25 5 0 16 8 23 18
18 23 119 92 136 92 10 0 12 -7 7 -27z"/>
<path d="M853 2042 c-64 -6 -84 -76 -32 -114 16 -12 44 -51 60 -85 17 -35 35
-63 42 -63 7 0 -1 -8 -18 -18 -16 -11 -36 -26 -44 -35 -7 -10 -19 -17 -25 -17
-6 0 -33 -11 -61 -25 -55 -27 -76 -30 -91 -15 -8 8 -32 4 -80 -11 -82 -27 -94
-34 -94 -64 0 -38 24 -48 94 -42 56 5 84 14 163 50 33 15 160 118 179 146 13
18 14 25 4 31 -10 6 -10 15 -2 39 6 18 9 46 5 63 -4 23 -2 34 11 44 14 9 15
19 9 45 -11 40 -71 76 -120 71z"/>
<path d="M1018 1413 c-18 -20 -23 -60 -10 -78 16 -23 55 -32 90 -20 63 22 88
0 59 -52 -16 -29 -97 -113 -138 -144 -18 -13 -44 -35 -58 -49 -41 -40 -123
-90 -164 -101 -28 -7 -47 -7 -72 3 -28 9 -38 9 -47 0 -17 -17 -1 -42 45 -67
32 -17 41 -18 91 -8 32 7 76 26 103 45 100 70 139 102 172 140 18 21 46 45 62
53 72 37 109 104 109 194 0 80 -19 93 -139 99 -75 4 -88 2 -103 -15z"/>
<path d="M252 1219 c-15 -18 -21 -36 -18 -46 7 -17 44 -197 65 -313 7 -36 10
-93 8 -127 -5 -73 11 -100 37 -61 24 36 38 226 25 327 -6 46 -9 112 -7 146 l4
63 -41 18 c-22 11 -42 20 -45 21 -3 1 -16 -12 -28 -28z"/>
</g>
</svg>
