<?xml version="1.0" standalone="no"?>
<!DOCTYPE svg PUBLIC "-//W3C//DTD SVG 20010904//EN"
 "http://www.w3.org/TR/2001/REC-SVG-20010904/DTD/svg10.dtd">
<svg version="1.0" xmlns="http://www.w3.org/2000/svg"
 width="208.000000pt" height="229.000000pt" viewBox="0 0 208.000000 229.000000"
 preserveAspectRatio="xMidYMid meet">
<metadata>
Created by potrace 1.16, written by Peter Selinger 2001-2019
</metadata>
<g transform="translate(0.000000,229.000000) scale(0.100000,-0.100000)"
fill="#000000" stroke="none">
<path d="M1158 2263 c-14 -16 -38 -59 -52 -98 -45 -116 -90 -216 -100 -222 -5
-3 -24 -7 -42 -9 l-34 -3 -1 62 c-2 87 2 137 13 167 8 20 5 28 -12 42 -28 22
-78 23 -109 2 -19 -14 -22 -23 -18 -53 7 -46 32 -155 46 -201 18 -57 14 -68
-31 -91 -66 -34 -145 -48 -255 -46 -95 2 -103 0 -127 -22 -31 -29 -33 -52 -6
-76 24 -21 48 -22 160 -1 128 23 217 52 251 80 17 15 39 26 49 26 9 0 24 10
32 21 8 12 20 20 26 18 19 -6 -83 -178 -131 -221 -23 -21 -46 -38 -51 -38 -10
0 -138 -83 -169 -109 -11 -9 -40 -16 -68 -17 -27 0 -52 -4 -55 -7 -20 -19 -23
-107 -8 -221 11 -82 14 -154 10 -223 -6 -105 0 -125 28 -97 44 43 55 105 59
331 2 132 9 149 48 135 32 -12 56 -2 104 44 22 22 73 59 114 84 40 25 99 61
130 80 31 19 75 48 97 63 88 62 111 77 145 96 19 11 41 27 49 36 7 9 28 22 46
30 18 7 43 24 56 37 12 12 25 23 28 23 5 1 40 22 101 62 31 20 59 30 59 19 0
-2 -14 -34 -31 -72 -44 -97 -82 -216 -124 -394 -42 -176 -54 -260 -36 -260 15
0 47 54 67 115 9 28 32 82 50 122 19 39 34 77 34 85 0 33 131 371 154 398 8 8
20 29 29 45 8 17 47 63 85 102 60 63 71 79 74 115 3 24 1 48 -3 54 -16 21 -70
2 -112 -39 -41 -40 -120 -97 -135 -97 -4 0 -22 -13 -41 -29 -19 -16 -46 -35
-60 -43 -25 -13 -56 -33 -151 -100 -144 -101 -325 -218 -337 -218 -26 0 8 68
60 122 9 10 17 24 17 31 0 6 11 25 25 41 14 16 46 72 72 123 27 55 59 105 77
119 17 14 44 35 60 48 20 15 27 28 23 39 -5 14 -21 17 -80 17 -67 0 -75 -2
-99 -27z m-343 -693 c-3 -5 -11 -10 -16 -10 -6 0 -7 5 -4 10 3 6 11 10 16 10
6 0 7 -4 4 -10z"/>
<path d="M1153 1536 c-23 -7 -44 -12 -47 -9 -9 9 -106 -48 -122 -71 -33 -51
30 -93 116 -78 37 6 46 12 48 31 4 24 64 57 82 46 14 -8 12 -37 -3 -56 -55
-72 -89 -104 -160 -149 -45 -29 -93 -60 -107 -70 -14 -9 -36 -21 -50 -25 -13
-4 -47 -23 -73 -41 -27 -19 -55 -34 -62 -34 -6 0 -20 -9 -31 -21 -16 -17 -16
-22 -4 -29 21 -14 19 -14 132 29 101 38 178 75 248 119 19 12 39 22 44 22 10
0 0 -83 -15 -121 -6 -16 -26 -34 -51 -45 -23 -10 -62 -35 -87 -56 -25 -21 -66
-47 -91 -58 -25 -11 -52 -25 -60 -30 -8 -6 -37 -21 -65 -34 -90 -42 -90 -45
-87 -228 2 -132 0 -165 -13 -185 -9 -13 -13 -28 -9 -34 8 -13 81 -6 96 9 16
16 27 88 29 182 1 114 7 129 50 144 19 7 44 20 55 29 52 46 93 77 101 77 5 0
22 13 38 30 31 33 55 39 55 14 0 -9 -7 -43 -15 -77 -8 -34 -21 -107 -30 -162
-9 -55 -20 -120 -26 -145 -11 -54 -15 -96 -30 -302 -7 -87 -15 -158 -18 -159
-9 -2 -635 -8 -828 -9 -156 0 -163 -1 -163 -20 0 -20 7 -20 1040 -20 1025 0
1040 0 1040 20 0 21 -39 22 -777 21 l-223 -1 0 31 c0 17 4 38 9 47 5 9 14 71
21 137 16 172 78 506 97 528 9 9 18 15 20 13 2 -2 8 -42 13 -88 19 -184 103
-337 187 -338 6 0 15 14 18 32 4 18 11 39 16 48 4 8 17 89 29 180 42 334 71
446 156 613 8 16 14 45 14 66 0 68 -39 80 -97 28 -21 -18 -58 -45 -83 -61 -25
-16 -67 -45 -95 -66 -76 -56 -83 -57 -87 -7 -3 36 -6 42 -28 45 -42 6 -43 18
-7 53 59 59 83 121 67 181 -6 21 -19 42 -30 48 -33 17 -103 20 -147 6z m321
-418 c-23 -73 -57 -239 -69 -338 -21 -168 -36 -241 -49 -237 -13 4 -53 158
-61 232 -2 27 -8 92 -11 143 -8 103 -2 116 66 153 19 11 50 31 69 44 44 32 65
33 55 3z"/>
</g>
</svg>
