<?xml version="1.0" standalone="no"?>
<!DOCTYPE svg PUBLIC "-//W3C//DTD SVG 20010904//EN"
 "http://www.w3.org/TR/2001/REC-SVG-20010904/DTD/svg10.dtd">
<svg version="1.0" xmlns="http://www.w3.org/2000/svg"
 width="209.000000pt" height="211.000000pt" viewBox="0 0 209.000000 211.000000"
 preserveAspectRatio="xMidYMid meet">
<metadata>
Created by potrace 1.16, written by Peter Selinger 2001-2019
</metadata>
<g transform="translate(0.000000,211.000000) scale(0.100000,-0.100000)"
fill="#000000" stroke="none">
<path d="M1758 2050 c-9 -6 -45 -37 -80 -71 -67 -64 -180 -148 -213 -158 -31
-10 -86 -44 -112 -68 -25 -24 -30 -65 -10 -80 45 -36 103 -16 192 64 61 55
141 113 155 113 12 0 12 -9 0 -85 -32 -196 -32 -195 -75 -221 -58 -34 -115
-60 -150 -68 -16 -4 -36 -12 -42 -18 -17 -14 -16 -48 2 -72 20 -27 87 -17 149
23 28 17 54 31 59 31 18 0 -15 -222 -36 -248 -13 -16 -161 -92 -179 -92 -6 0
-31 -10 -56 -21 -24 -12 -47 -18 -52 -13 -4 5 3 70 16 144 13 74 24 157 24
183 0 27 7 59 16 73 23 35 4 69 -54 94 -68 31 -95 27 -120 -17 -17 -33 -15
-56 10 -88 35 -45 45 -168 24 -290 -9 -55 -21 -116 -27 -136 -20 -78 -10 -101
47 -113 30 -7 79 13 124 50 8 6 49 29 90 50 41 21 87 47 102 58 15 11 31 17
34 13 4 -4 1 -33 -7 -64 -8 -32 -14 -89 -14 -128 0 -75 0 -76 -60 -120 -22
-17 -42 -32 -45 -35 -3 -3 -30 -24 -60 -48 -30 -23 -61 -47 -67 -52 -7 -6 -13
-7 -14 -3 -6 63 -4 131 4 140 5 7 6 20 3 29 -5 13 -17 16 -67 12 -76 -5 -91
-21 -77 -76 48 -184 36 -301 -60 -572 -10 -30 -21 -81 -24 -112 l-5 -58 127 0
127 0 15 39 c10 25 30 49 54 64 70 46 98 73 91 90 -5 13 -12 14 -39 7 -58 -17
-154 -71 -204 -116 -53 -48 -64 -53 -64 -26 0 17 57 208 66 224 3 4 14 -2 24
-12 20 -20 85 -28 92 -12 8 18 141 92 167 92 3 0 7 -35 7 -77 1 -43 2 -122 3
-176 l1 -98 48 3 47 3 2 180 c1 99 5 191 9 205 3 14 7 63 9 110 2 47 11 110
20 140 9 30 20 72 25 93 4 21 26 73 49 117 22 43 41 86 41 94 0 8 11 28 25 44
14 17 25 35 25 40 0 6 7 15 16 20 22 12 11 46 -19 59 -25 12 -74 6 -94 -10
-16 -12 -76 -115 -83 -141 -3 -11 -12 -22 -19 -24 -11 -4 -12 1 -7 19 27 86
36 132 50 275 9 87 21 177 26 199 5 22 10 53 10 69 0 16 7 38 17 48 12 13 14
23 6 40 -7 15 -4 47 9 107 10 47 18 98 18 113 0 15 4 30 10 33 12 7 12 215 0
215 -5 0 -14 2 -22 5 -7 2 -20 0 -30 -5z m-12 -277 c-11 -11 -17 4 -9 23 7 18
8 18 11 1 2 -10 1 -21 -2 -24z m-146 -1107 c-5 -21 -12 -73 -15 -115 -9 -107
-10 -109 -63 -125 -119 -38 -195 -66 -210 -78 -14 -12 -15 -9 -8 22 3 19 9 69
12 110 3 41 7 86 10 99 l5 24 20 -22 c34 -37 102 -22 132 28 24 40 107 115
117 105 5 -5 5 -26 0 -48z"/>
<path d="M766 1977 c-34 -28 -36 -43 -40 -264 l-3 -142 -49 -41 c-27 -23 -66
-50 -87 -61 -36 -19 -40 -19 -57 -4 -10 9 -33 18 -53 22 -29 4 -40 1 -61 -20
-28 -28 -27 -18 -31 -247 -1 -74 -7 -155 -13 -180 -6 -25 -12 -66 -12 -92 0
-26 -4 -50 -10 -53 -6 -3 -10 -27 -10 -53 0 -26 -9 -93 -21 -150 -12 -57 -19
-106 -16 -109 13 -12 37 8 56 46 44 84 74 196 111 406 7 39 18 80 26 92 8 12
14 35 14 51 0 21 7 32 25 40 14 6 27 23 31 39 4 15 12 34 17 42 6 7 16 23 22
34 10 20 81 76 98 77 10 0 -1 -184 -18 -300 -14 -96 -44 -352 -50 -438 -2 -26
-11 -76 -19 -112 -23 -92 -35 -162 -45 -265 -12 -109 -39 -233 -57 -260 -8
-11 -14 -23 -14 -27 0 -5 32 -8 71 -8 61 0 73 3 90 23 23 27 24 63 3 71 -14 5
-16 16 -11 54 4 26 11 85 17 132 21 170 59 310 83 310 6 0 18 -7 28 -16 10 -9
35 -18 57 -21 47 -6 48 -5 93 121 40 110 85 292 98 401 31 246 51 377 71 450
24 88 30 246 10 270 -13 16 -30 11 -84 -24 -22 -14 -69 -45 -105 -68 l-66 -41
-5 31 c-3 18 -2 77 1 132 5 81 3 107 -10 135 -20 43 -37 47 -75 17z m234 -385
c0 -15 -14 -97 -31 -182 -17 -85 -32 -175 -35 -200 -25 -257 -50 -391 -90
-474 -14 -31 -30 -58 -34 -61 -12 -7 -26 15 -43 70 -13 41 -15 67 -8 140 5 50
14 110 19 135 6 25 13 88 17 140 19 291 43 367 134 424 31 20 59 35 64 36 4 0
7 -13 7 -28z m-19 -505 c-18 -18 -25 1 -11 30 l14 28 4 -24 c2 -13 -1 -28 -7
-34z"/>
</g>
</svg>
