<?xml version="1.0" standalone="no"?>
<!DOCTYPE svg PUBLIC "-//W3C//DTD SVG 20010904//EN"
 "http://www.w3.org/TR/2001/REC-SVG-20010904/DTD/svg10.dtd">
<svg version="1.0" xmlns="http://www.w3.org/2000/svg"
 width="209.000000pt" height="212.000000pt" viewBox="0 0 209.000000 212.000000"
 preserveAspectRatio="xMidYMid meet">
<metadata>
Created by potrace 1.16, written by Peter Selinger 2001-2019
</metadata>
<g transform="translate(0.000000,212.000000) scale(0.100000,-0.100000)"
fill="#000000" stroke="none">
<path d="M1615 2081 c-22 -21 -65 -55 -95 -75 -30 -20 -75 -52 -100 -71 -64
-50 -61 -48 -100 -75 -19 -13 -48 -37 -65 -53 -16 -15 -47 -37 -67 -48 -26
-13 -38 -26 -38 -40 0 -19 -4 -21 -32 -13 -41 10 -117 11 -140 2 -12 -5 -18
-18 -18 -40 0 -28 -7 -38 -48 -64 -56 -38 -174 -94 -183 -88 -4 2 -5 46 -2 98
3 70 0 111 -13 156 -15 54 -19 60 -44 60 -58 0 -66 -31 -74 -279 l-3 -114 -34
-28 c-19 -16 -72 -52 -119 -80 -76 -46 -88 -50 -126 -44 -31 4 -46 2 -63 -12
-27 -23 -31 -66 -35 -453 -3 -213 -7 -303 -17 -323 -10 -21 -10 -30 -1 -39 10
-10 16 -8 31 7 24 27 64 123 57 141 -3 7 1 31 8 51 7 22 16 113 20 213 4 96
11 177 15 180 4 3 11 22 15 42 6 36 8 37 48 35 39 -2 41 -1 52 38 8 27 24 49
55 72 23 18 47 33 51 33 10 0 4 -275 -6 -291 -7 -12 -25 -126 -49 -309 -18
-144 -32 -228 -40 -240 -3 -5 -14 -74 -25 -152 -10 -79 -23 -156 -29 -171 -24
-62 -9 -107 36 -107 32 0 59 48 73 129 6 36 17 104 24 151 18 112 42 206 64
253 16 37 19 38 57 33 48 -6 101 17 120 54 23 44 75 187 100 273 15 52 18 57
44 57 16 0 34 7 41 15 7 8 19 15 27 15 8 0 29 11 46 24 18 13 54 36 82 51 63
35 132 82 142 98 10 14 69 57 80 57 4 0 26 17 48 38 22 20 61 52 85 70 l45 33
3 -33 c2 -18 -4 -72 -14 -120 l-18 -88 -127 -85 c-70 -47 -133 -92 -140 -101
-12 -14 -61 -44 -74 -44 -3 0 -5 7 -5 15 0 27 -36 37 -76 20 -20 -8 -46 -15
-59 -15 -44 0 -73 -63 -41 -89 33 -28 28 -253 -10 -404 -8 -33 -12 -62 -10
-66 8 -12 -33 -196 -51 -231 -7 -14 -13 -30 -13 -36 0 -17 31 -40 71 -54 34
-12 41 -11 130 32 52 25 123 64 159 87 76 48 162 90 173 84 4 -2 7 -12 7 -21
0 -23 40 -69 67 -77 17 -5 26 0 40 22 15 22 18 51 20 158 5 395 12 531 33 618
26 112 69 196 132 260 23 23 23 49 0 77 -17 21 -22 22 -52 12 -18 -7 -35 -10
-37 -8 -3 2 5 60 17 128 22 125 42 247 60 372 6 37 24 108 40 156 17 49 30 95
30 102 0 7 9 30 20 51 11 20 20 39 20 42 0 3 -35 5 -78 5 -76 0 -78 -1 -117
-39z m30 -121 c-4 -17 -13 -43 -20 -58 -7 -15 -21 -63 -31 -108 -16 -76 -19
-80 -41 -76 -15 3 -42 -7 -73 -26 -27 -17 -79 -40 -117 -52 -122 -40 -152 -60
-153 -103 0 -21 46 -67 67 -67 8 0 43 14 78 30 35 17 71 30 80 30 8 0 15 6 15
13 0 12 74 87 87 87 3 0 15 8 26 18 20 17 20 16 13 -45 -4 -35 -11 -75 -16
-90 -5 -16 -11 -44 -14 -64 -6 -33 -9 -35 -36 -31 -23 3 -40 -4 -73 -30 -23
-20 -53 -38 -66 -43 -22 -7 -58 -28 -133 -80 -20 -14 -62 -39 -93 -55 -31 -16
-68 -39 -82 -50 -34 -26 -63 -26 -63 0 0 11 9 46 20 78 12 31 27 104 35 162 9
58 20 118 25 134 6 16 10 44 10 62 0 40 3 42 76 50 33 3 68 9 79 13 11 5 33
12 50 17 17 5 31 18 35 30 5 22 74 104 87 104 4 0 27 20 52 44 78 76 152 134
174 135 5 1 6 -13 2 -29z m-745 -494 c0 -15 -32 -141 -40 -154 -16 -30 -38
-115 -55 -212 -36 -214 -46 -254 -75 -323 -61 -144 -58 -139 -83 -131 -42 13
-45 32 -22 184 13 86 45 403 45 451 0 9 9 26 20 39 11 13 20 28 20 34 0 17 38
47 105 83 56 29 85 39 85 29z m586 -483 c-3 -16 -8 -37 -10 -49 -1 -11 -7 -27
-11 -34 -5 -7 -11 -52 -14 -99 l-6 -86 -49 3 c-44 4 -73 -4 -116 -29 -8 -5
-26 -15 -40 -21 -67 -33 -130 -91 -130 -120 0 -41 28 -65 86 -73 30 -3 52 -11
49 -16 -4 -5 -13 -9 -21 -9 -8 0 -32 -12 -54 -26 -31 -20 -40 -33 -40 -54 0
-50 54 -54 133 -10 36 19 69 30 95 30 24 0 47 7 57 16 9 9 18 14 20 12 3 -3 8
-33 12 -67 6 -61 5 -63 -15 -57 -11 4 -23 3 -26 -3 -3 -5 -24 -12 -45 -16 -22
-4 -45 -13 -52 -21 -6 -8 -23 -13 -38 -12 -14 1 -55 -11 -91 -26 -108 -46
-143 -57 -151 -49 -4 4 -3 28 2 53 7 37 38 253 65 457 4 36 9 44 32 49 15 4
32 10 37 14 6 5 29 13 53 19 23 7 43 17 43 24 1 7 2 17 4 22 1 6 3 15 3 22 1
6 21 25 45 43 52 38 124 99 146 123 23 25 34 21 27 -10z m-41 -407 c0 -95 -6
-108 -45 -95 -21 8 -39 8 -61 0 -48 -17 -57 -14 -75 25 l-17 36 43 40 c54 51
77 63 121 62 l34 -1 0 -67z"/>
</g>
</svg>
