<?xml version="1.0" standalone="no"?>
<!DOCTYPE svg PUBLIC "-//W3C//DTD SVG 20010904//EN"
 "http://www.w3.org/TR/2001/REC-SVG-20010904/DTD/svg10.dtd">
<svg version="1.0" xmlns="http://www.w3.org/2000/svg"
 width="206.000000pt" height="209.000000pt" viewBox="0 0 206.000000 209.000000"
 preserveAspectRatio="xMidYMid meet">
<metadata>
Created by potrace 1.16, written by Peter Selinger 2001-2019
</metadata>
<g transform="translate(0.000000,209.000000) scale(0.100000,-0.100000)"
fill="#000000" stroke="none">
<path d="M1260 1928 c-19 -12 -63 -36 -97 -53 -34 -18 -88 -53 -120 -77 -59
-46 -89 -62 -179 -97 -27 -10 -67 -29 -87 -40 -21 -12 -42 -21 -48 -21 -22 0
-69 -45 -69 -66 0 -46 94 -99 114 -65 3 4 23 11 45 15 31 5 48 16 77 52 39 48
58 61 107 75 l29 8 -7 -66 c-9 -84 -11 -88 -42 -102 -34 -16 -38 -10 -13 22
40 50 16 86 -30 42 -15 -15 -47 -31 -71 -36 -24 -6 -46 -15 -50 -20 -3 -5 -30
-23 -60 -39 -30 -15 -62 -39 -73 -53 -17 -23 -17 -26 -1 -51 30 -46 47 -49
135 -25 44 11 80 25 80 30 0 5 10 9 23 9 13 0 28 5 35 12 6 6 14 10 16 7 7 -6
-50 -64 -155 -160 -143 -130 -162 -145 -238 -189 -41 -24 -89 -57 -107 -74
-17 -16 -72 -51 -120 -78 -84 -44 -89 -49 -87 -78 3 -66 52 -77 149 -34 33 15
79 32 104 40 78 22 183 62 189 72 13 19 236 110 246 100 3 -2 0 -65 -5 -139
-5 -74 -12 -204 -15 -289 -3 -85 -13 -194 -20 -241 -21 -122 -27 -319 -10
-319 8 0 21 32 35 83 12 45 30 110 40 144 11 34 22 94 25 134 4 39 11 82 16
96 5 13 9 54 9 91 0 36 4 102 10 146 5 45 14 131 20 191 7 69 16 114 24 120 8
6 15 19 17 30 3 14 43 39 135 86 73 36 151 80 175 97 24 18 47 32 52 32 5 0
36 16 68 36 65 39 86 77 55 99 -20 15 -64 8 -91 -14 -11 -9 -42 -27 -70 -40
-27 -12 -57 -26 -65 -30 -121 -64 -221 -111 -244 -117 l-29 -7 6 68 c4 39 13
75 22 85 8 9 15 28 15 43 0 14 11 39 25 55 62 73 181 179 230 204 60 31 97 72
93 102 -3 18 -10 21 -53 21 -51 -1 -105 -29 -191 -99 -32 -26 -61 -35 -49 -16
15 24 -6 49 -42 52 -39 3 -52 19 -31 37 11 9 43 35 118 94 8 7 27 20 42 29 49
32 68 59 57 79 -12 24 -25 23 -69 -3z m-284 -745 c-5 -39 -14 -63 -27 -75 -21
-18 -179 -71 -187 -64 -7 8 190 196 205 196 13 0 14 -10 9 -57z"/>
</g>
</svg>
