<?xml version="1.0" standalone="no"?>
<!DOCTYPE svg PUBLIC "-//W3C//DTD SVG 20010904//EN"
 "http://www.w3.org/TR/2001/REC-SVG-20010904/DTD/svg10.dtd">
<svg version="1.0" xmlns="http://www.w3.org/2000/svg"
 width="206.000000pt" height="216.000000pt" viewBox="0 0 206.000000 216.000000"
 preserveAspectRatio="xMidYMid meet">
<metadata>
Created by potrace 1.16, written by Peter Selinger 2001-2019
</metadata>
<g transform="translate(0.000000,216.000000) scale(0.100000,-0.100000)"
fill="#000000" stroke="none">
<path d="M1079 1962 c-233 -187 -211 -173 -409 -272 -181 -91 -213 -124 -171
-181 l21 -28 -24 -18 c-13 -10 -31 -22 -39 -28 -25 -16 -29 -50 -10 -74 29
-34 133 -58 223 -50 41 3 90 9 108 13 38 9 44 -10 11 -40 -11 -10 -50 -55 -86
-101 -36 -45 -81 -92 -102 -104 -20 -12 -50 -38 -68 -59 -17 -20 -62 -58 -100
-84 -114 -79 -160 -110 -195 -131 -71 -43 -31 -114 56 -101 22 4 59 15 81 25
22 10 54 23 71 29 17 5 59 29 95 53 35 24 82 50 104 58 22 7 47 20 55 27 13
11 92 44 106 44 8 0 3 -76 -6 -115 -5 -22 -16 -94 -25 -160 -27 -219 -46 -348
-51 -357 -3 -5 -12 -66 -20 -136 -7 -70 -16 -137 -20 -149 -6 -21 -3 -23 28
-23 29 0 36 4 46 33 7 18 12 46 12 62 0 29 12 80 36 155 15 46 19 71 53 315
21 149 54 334 72 400 6 22 13 45 15 52 1 6 14 17 28 25 53 27 252 154 276 175
52 46 116 83 146 83 17 0 46 10 65 23 30 20 34 28 34 67 0 40 -2 44 -30 52
-23 6 -36 3 -57 -12 -15 -11 -33 -20 -41 -20 -7 0 -28 -11 -47 -25 -19 -14
-39 -25 -45 -25 -6 0 -24 -13 -40 -30 -16 -16 -32 -30 -36 -30 -10 0 -110 -61
-132 -81 -26 -23 -116 -63 -124 -55 -9 9 -5 77 6 91 4 5 13 25 19 43 7 19 23
48 37 65 14 18 62 78 106 134 87 112 145 173 199 208 75 49 96 85 68 113 -49
49 -207 -50 -324 -203 -32 -41 -62 -75 -67 -75 -5 0 -11 9 -14 20 -6 22 -71
46 -113 41 -46 -5 -53 -19 -46 -98 3 -43 2 -74 -4 -78 -5 -3 -36 -11 -67 -16
-159 -28 -173 -23 -122 41 20 24 32 50 31 67 0 20 8 34 31 51 33 24 162 102
226 137 21 11 47 29 58 40 12 11 36 31 53 45 18 14 38 37 46 53 8 15 21 27 29
27 8 0 20 10 26 23 6 12 23 31 37 43 22 18 23 22 11 42 -19 30 -36 27 -90 -16z
m-259 -855 c0 -17 -11 -30 -41 -46 -22 -13 -42 -21 -44 -19 -4 4 73 88 81 88
2 0 4 -10 4 -23z"/>
</g>
</svg>
