<?xml version="1.0" standalone="no"?>
<!DOCTYPE svg PUBLIC "-//W3C//DTD SVG 20010904//EN"
 "http://www.w3.org/TR/2001/REC-SVG-20010904/DTD/svg10.dtd">
<svg version="1.0" xmlns="http://www.w3.org/2000/svg"
 width="206.000000pt" height="211.000000pt" viewBox="0 0 206.000000 211.000000"
 preserveAspectRatio="xMidYMid meet">
<metadata>
Created by potrace 1.16, written by Peter Selinger 2001-2019
</metadata>
<g transform="translate(0.000000,211.000000) scale(0.100000,-0.100000)"
fill="#000000" stroke="none">
<path d="M1286 1970 c-8 -8 -37 -58 -65 -111 -46 -87 -55 -97 -84 -102 -18 -3
-43 0 -57 7 -21 9 -25 18 -25 51 l0 40 -75 -3 c-41 -2 -82 -5 -90 -8 -22 -6
-50 -57 -44 -81 5 -19 57 -57 66 -48 3 3 23 -1 46 -9 23 -8 69 -18 102 -22 42
-5 60 -11 60 -21 0 -17 -26 -70 -51 -102 -11 -13 -19 -34 -19 -48 0 -20 3 -22
19 -14 19 11 123 135 134 161 3 8 39 57 79 109 52 67 87 101 123 121 52 29 67
58 44 86 -17 21 -144 16 -163 -6z"/>
<path d="M1365 1600 c-60 -32 -126 -66 -145 -75 -19 -9 -65 -38 -103 -63 -38
-26 -77 -51 -86 -57 -51 -30 -127 -80 -131 -86 -3 -4 -36 -23 -75 -43 -38 -21
-80 -48 -93 -62 -13 -13 -27 -24 -32 -24 -5 0 -27 -22 -49 -49 -47 -60 -46
-96 2 -116 41 -17 56 -10 110 54 49 58 152 137 160 123 12 -18 27 -243 21
-303 -8 -80 -15 -93 -56 -109 -18 -7 -40 -19 -48 -26 -8 -6 -55 -28 -105 -49
-49 -20 -112 -47 -140 -60 -27 -13 -64 -29 -81 -35 -42 -15 -98 -74 -91 -94
16 -41 121 -32 189 15 14 11 31 19 37 19 6 0 62 25 125 55 62 30 119 55 125
55 15 0 14 -13 -10 -100 -11 -41 -27 -102 -35 -135 -7 -33 -20 -73 -28 -90 -8
-16 -24 -59 -34 -95 -11 -36 -32 -87 -46 -114 -26 -50 -24 -72 7 -60 18 7 77
99 102 158 8 20 20 36 25 36 6 0 10 9 10 20 0 11 12 42 26 69 14 27 27 67 29
88 2 21 13 56 24 79 11 22 29 78 41 124 23 91 35 120 51 120 5 0 27 11 49 25
22 14 44 25 50 25 11 0 9 -62 -5 -200 -3 -25 -7 -103 -10 -175 -15 -364 -15
-371 -31 -427 -4 -15 1 -18 31 -18 32 0 38 4 52 38 19 46 28 123 43 367 17
293 38 465 61 493 18 23 97 75 150 99 15 6 59 48 98 93 57 64 72 87 69 108 -5
43 -38 39 -71 -8 -16 -22 -34 -40 -40 -40 -7 0 -35 -20 -63 -45 -44 -38 -131
-81 -142 -71 -8 8 -2 164 8 196 8 29 7 38 -9 53 -14 15 -25 17 -51 10 -47 -12
-58 -51 -59 -200 l-1 -122 -52 -36 c-83 -55 -85 -54 -90 81 -2 63 -2 154 0
200 l5 85 55 41 c70 52 193 130 257 163 28 15 57 32 65 39 8 6 35 22 60 35 61
32 64 36 51 60 -18 33 -55 25 -176 -39z"/>
</g>
</svg>
