<?xml version="1.0" standalone="no"?>
<!DOCTYPE svg PUBLIC "-//W3C//DTD SVG 20010904//EN"
 "http://www.w3.org/TR/2001/REC-SVG-20010904/DTD/svg10.dtd">
<svg version="1.0" xmlns="http://www.w3.org/2000/svg"
 width="209.000000pt" height="210.000000pt" viewBox="0 0 209.000000 210.000000"
 preserveAspectRatio="xMidYMid meet">
<metadata>
Created by potrace 1.16, written by Peter Selinger 2001-2019
</metadata>
<g transform="translate(0.000000,210.000000) scale(0.100000,-0.100000)"
fill="#000000" stroke="none">
<path d="M1017 2062 c-24 -26 -21 -66 7 -99 13 -15 33 -46 45 -68 12 -22 37
-65 56 -95 45 -73 45 -95 -1 -110 -19 -7 -38 -18 -40 -24 -3 -7 -70 -45 -149
-86 -142 -71 -145 -73 -145 -105 0 -40 26 -65 69 -65 30 0 32 -2 27 -27 -3
-16 -13 -77 -22 -137 -8 -60 -22 -128 -31 -150 -17 -47 -96 -378 -112 -471 -4
-23 -11 -46 -15 -53 -4 -6 -14 -38 -22 -69 -15 -61 -55 -198 -80 -273 -8 -25
-23 -77 -33 -116 -10 -39 -24 -80 -30 -92 -11 -21 -10 -22 28 -22 40 0 41 1
77 73 20 39 38 87 40 105 1 19 10 50 20 70 29 61 113 371 183 672 13 52 31
124 42 160 11 36 27 110 35 164 22 141 55 219 124 284 30 30 69 60 87 67 17 7
39 25 49 40 9 14 35 35 57 46 59 31 127 97 127 125 0 32 -17 31 -98 -10 l-68
-34 -16 31 c-25 52 -38 87 -38 105 0 9 -6 28 -13 42 -8 14 -17 41 -20 60 -11
50 -43 80 -87 80 -23 0 -43 -7 -53 -18z"/>
</g>
</svg>
