<?xml version="1.0" standalone="no"?>
<!DOCTYPE svg PUBLIC "-//W3C//DTD SVG 20010904//EN"
 "http://www.w3.org/TR/2001/REC-SVG-20010904/DTD/svg10.dtd">
<svg version="1.0" xmlns="http://www.w3.org/2000/svg"
 width="208.000000pt" height="220.000000pt" viewBox="0 0 208.000000 220.000000"
 preserveAspectRatio="xMidYMid meet">
<metadata>
Created by potrace 1.16, written by Peter Selinger 2001-2019
</metadata>
<g transform="translate(0.000000,220.000000) scale(0.100000,-0.100000)"
fill="#000000" stroke="none">
<path d="M1160 2145 c-9 -8 -37 -15 -68 -16 -35 -2 -60 -8 -74 -21 -12 -10
-25 -18 -30 -18 -11 0 -10 -87 1 -94 5 -3 30 -71 56 -151 26 -80 51 -145 55
-145 4 0 14 10 22 23 14 24 16 102 3 219 -8 66 -7 67 27 110 50 61 60 82 46
96 -15 15 -21 15 -38 -3z"/>
<path d="M1830 2044 c-14 -7 -63 -29 -110 -49 -47 -20 -98 -43 -115 -52 -16
-9 -100 -52 -185 -96 -85 -43 -166 -87 -180 -96 -14 -9 -45 -26 -70 -38 -79
-37 -223 -110 -270 -137 -25 -14 -64 -34 -88 -45 -54 -26 -71 -60 -48 -95 26
-41 55 -42 133 -2 39 20 86 48 105 63 47 37 145 89 153 81 6 -6 -42 -223 -71
-320 -8 -26 -14 -62 -14 -80 0 -18 -33 -132 -74 -253 -40 -121 -83 -249 -94
-285 -11 -36 -36 -110 -55 -165 -19 -55 -46 -138 -61 -185 -15 -47 -33 -98
-40 -115 -17 -37 -66 -164 -66 -170 0 -3 16 -5 35 -5 32 0 36 4 63 57 15 32
33 67 40 78 24 42 74 169 91 233 10 37 27 87 38 112 10 25 25 65 32 90 7 25
21 64 32 88 10 23 19 49 19 56 0 8 7 27 15 42 8 16 15 36 15 45 0 8 18 69 39
135 68 208 93 304 122 460 17 97 77 199 136 234 33 19 42 47 23 66 -11 11 29
46 68 58 12 4 22 12 22 17 0 5 7 9 15 9 19 0 85 32 85 41 0 4 21 15 48 25 26
10 58 25 72 34 14 10 41 25 61 34 20 9 45 25 56 35 11 10 28 21 39 25 10 4 32
17 47 29 52 44 1 77 -63 41z"/>
</g>
</svg>
