<?xml version="1.0" standalone="no"?>
<!DOCTYPE svg PUBLIC "-//W3C//DTD SVG 20010904//EN"
 "http://www.w3.org/TR/2001/REC-SVG-20010904/DTD/svg10.dtd">
<svg version="1.0" xmlns="http://www.w3.org/2000/svg"
 width="208.000000pt" height="211.000000pt" viewBox="0 0 208.000000 211.000000"
 preserveAspectRatio="xMidYMid meet">
<metadata>
Created by potrace 1.16, written by Peter Selinger 2001-2019
</metadata>
<g transform="translate(0.000000,211.000000) scale(0.100000,-0.100000)"
fill="#000000" stroke="none">
<path d="M495 1880 c-62 -34 -37 -108 39 -113 38 -3 61 -24 72 -64 12 -43 9
-45 -116 -108 -30 -15 -62 -31 -70 -35 -8 -5 -52 -27 -97 -49 -69 -35 -82 -45
-88 -71 -5 -21 -2 -39 9 -55 25 -39 70 -37 139 6 27 16 53 29 58 29 6 0 8 -25
4 -65 -4 -36 -7 -91 -7 -122 0 -32 -6 -96 -14 -143 -7 -47 -15 -107 -18 -135
-10 -101 -25 -216 -30 -224 -3 -4 -8 -35 -10 -69 -3 -33 -13 -100 -21 -148 -9
-49 -21 -116 -26 -149 -6 -33 -21 -92 -35 -131 -13 -39 -24 -77 -24 -86 0 -8
-9 -35 -19 -59 -36 -84 -36 -91 -5 -87 23 3 34 15 68 83 90 176 127 311 166
610 5 44 22 159 36 255 14 96 29 227 34 290 11 136 19 190 31 190 5 0 9 10 9
23 0 31 6 37 85 89 39 26 79 56 89 67 11 12 25 21 32 21 7 0 27 14 44 30 17
17 37 30 45 30 8 0 20 8 27 19 7 10 23 21 35 25 17 6 189 109 202 122 2 2 -2
10 -9 19 -14 17 -56 20 -65 5 -3 -5 -14 -10 -23 -10 -10 0 -89 -36 -176 -80
-87 -44 -160 -80 -162 -80 -2 0 -4 10 -4 22 0 13 -10 46 -22 75 -19 48 -26 54
-67 67 -74 23 -85 24 -116 6z m-65 -1219 c0 -12 -20 -25 -27 -18 -7 7 6 27 18
27 5 0 9 -4 9 -9z"/>
</g>
</svg>
