<?xml version="1.0" standalone="no"?>
<!DOCTYPE svg PUBLIC "-//W3C//DTD SVG 20010904//EN"
 "http://www.w3.org/TR/2001/REC-SVG-20010904/DTD/svg10.dtd">
<svg version="1.0" xmlns="http://www.w3.org/2000/svg"
 width="207.000000pt" height="212.000000pt" viewBox="0 0 207.000000 212.000000"
 preserveAspectRatio="xMidYMid meet">
<metadata>
Created by potrace 1.16, written by Peter Selinger 2001-2019
</metadata>
<g transform="translate(0.000000,212.000000) scale(0.100000,-0.100000)"
fill="#000000" stroke="none">
<path d="M1050 2083 c50 -56 73 -118 78 -206 4 -75 4 -79 -24 -108 -22 -23
-34 -28 -54 -24 -19 4 -37 -2 -66 -22 -22 -15 -55 -37 -74 -47 -19 -11 -56
-39 -82 -63 -26 -23 -52 -43 -57 -43 -11 0 -46 -34 -68 -67 -14 -20 -13 -26 6
-57 12 -18 30 -36 40 -39 17 -4 19 -14 15 -118 -3 -115 -26 -252 -45 -275 -6
-7 -8 -17 -5 -22 9 -14 -36 -153 -94 -287 -28 -66 -59 -147 -69 -181 -11 -33
-30 -87 -44 -120 -14 -32 -28 -75 -32 -94 -12 -61 -102 -236 -134 -263 -42
-35 -39 -47 12 -47 36 0 49 7 89 44 69 65 89 109 202 451 18 56 45 125 60 154
33 66 125 156 188 183 26 11 53 26 59 34 6 8 20 14 30 14 21 0 25 -24 9 -65
-5 -14 -14 -49 -19 -78 -20 -109 -43 -182 -66 -209 -13 -16 -22 -35 -19 -42 9
-23 -37 -239 -58 -274 -16 -26 -18 -36 -8 -47 10 -11 17 -12 34 -3 29 15 85
80 86 98 0 9 9 33 20 55 11 22 20 49 20 61 0 18 7 23 33 26 17 2 43 -2 57 -8
14 -6 52 -17 85 -24 33 -7 67 -17 76 -21 9 -5 73 -20 143 -34 133 -27 214 -26
237 1 19 23 -8 44 -53 44 -40 0 -145 26 -163 40 -5 5 -28 12 -50 16 -22 4 -64
17 -93 30 -30 13 -84 33 -121 44 -113 33 -109 25 -72 181 57 239 102 343 160
373 37 20 153 115 170 140 8 12 21 25 29 30 8 4 34 28 59 52 35 35 44 50 41
72 -4 34 -37 41 -63 12 -10 -11 -23 -20 -30 -20 -6 0 -22 -12 -36 -26 -13 -14
-44 -40 -69 -57 -25 -17 -51 -37 -59 -45 -8 -7 -25 -20 -38 -29 -38 -25 -46
-6 -28 62 8 33 15 68 15 79 0 11 9 30 21 42 23 24 18 44 -10 44 -9 0 -26 7
-37 15 -28 21 -62 18 -78 -7 -8 -15 -18 -79 -25 -173 -11 -145 -12 -151 -39
-172 -15 -13 -43 -30 -62 -39 -19 -9 -59 -32 -88 -51 -51 -33 -86 -38 -77 -11
36 109 45 163 51 291 4 78 12 153 19 167 6 14 22 46 35 72 25 53 57 80 148
128 34 17 62 36 62 41 0 5 5 9 12 9 11 0 109 70 140 101 10 10 34 30 55 46 47
34 53 42 53 69 0 34 -44 40 -97 12 -23 -13 -43 -26 -43 -30 0 -5 -4 -8 -9 -8
-5 0 -12 39 -16 88 -4 48 -14 106 -23 129 l-17 43 -84 0 -83 0 32 -37z"/>
</g>
</svg>
