<?xml version="1.0" standalone="no"?>
<!DOCTYPE svg PUBLIC "-//W3C//DTD SVG 20010904//EN"
 "http://www.w3.org/TR/2001/REC-SVG-20010904/DTD/svg10.dtd">
<svg version="1.0" xmlns="http://www.w3.org/2000/svg"
 width="206.000000pt" height="213.000000pt" viewBox="0 0 206.000000 213.000000"
 preserveAspectRatio="xMidYMid meet">
<metadata>
Created by potrace 1.16, written by Peter Selinger 2001-2019
</metadata>
<g transform="translate(0.000000,213.000000) scale(0.100000,-0.100000)"
fill="#000000" stroke="none">
<path d="M932 2024 c-25 -17 -30 -65 -9 -86 38 -38 68 -108 70 -164 l2 -57
-100 -54 c-55 -30 -128 -67 -161 -83 -34 -16 -78 -45 -99 -64 -31 -30 -36 -40
-31 -63 8 -33 31 -53 62 -53 26 0 74 20 74 30 0 4 22 19 50 34 27 15 52 31 55
36 4 6 13 10 21 10 20 0 18 -37 -5 -85 -11 -22 -32 -74 -47 -115 -50 -138
-123 -316 -168 -409 -9 -19 -16 -37 -16 -42 0 -9 -100 -222 -145 -309 -18 -36
-56 -123 -85 -195 -28 -71 -62 -147 -76 -167 -13 -21 -24 -44 -24 -52 0 -7
-20 -41 -45 -75 l-45 -61 45 0 c36 0 47 4 56 23 7 12 31 45 53 72 59 71 92
124 106 170 7 22 35 85 61 141 27 56 49 104 49 108 0 3 31 71 70 151 69 143
70 145 95 133 33 -15 71 2 87 40 13 30 142 152 160 152 15 0 2 -85 -27 -169
-13 -39 -27 -92 -30 -118 -4 -27 -18 -75 -31 -108 -24 -61 -37 -98 -93 -259
-17 -49 -42 -104 -56 -121 -13 -18 -21 -35 -18 -39 11 -11 62 -6 73 7 28 33
89 128 95 149 4 12 16 42 26 65 11 24 24 54 29 68 10 27 34 33 47 12 18 -31
316 -180 416 -209 176 -52 537 -5 537 69 0 18 -6 23 -28 23 -15 0 -43 -5 -62
-10 -19 -6 -79 -17 -132 -24 -78 -11 -108 -11 -156 -1 -32 6 -64 15 -71 19 -6
4 -44 16 -84 27 -43 12 -98 37 -137 63 -36 24 -85 53 -110 65 -84 40 -107 56
-135 89 -30 36 -30 39 10 177 8 28 28 101 45 163 28 101 59 168 110 238 8 12
34 32 56 47 23 14 50 36 60 49 11 13 37 35 60 51 129 87 132 156 4 88 -30 -16
-89 -51 -130 -79 l-75 -50 -3 30 c-2 16 4 53 13 81 24 73 35 112 35 120 0 13
-71 39 -92 33 -43 -11 -47 -20 -53 -106 -11 -191 -21 -249 -45 -275 -13 -14
-28 -25 -33 -25 -5 0 -32 -16 -58 -35 -27 -19 -53 -35 -59 -35 -5 0 -21 -12
-37 -26 -35 -33 -40 -17 -15 49 140 362 144 371 199 430 38 40 44 52 38 75 -4
15 -7 31 -8 36 -2 8 55 45 177 113 27 16 58 33 70 40 37 22 148 127 162 155
19 36 18 58 -3 58 -9 0 -74 -38 -143 -84 -138 -92 -230 -140 -244 -126 -5 5
-10 35 -12 67 -5 97 -19 155 -44 175 -27 22 -68 23 -98 2z"/>
</g>
</svg>
