<?xml version="1.0" standalone="no"?>
<!DOCTYPE svg PUBLIC "-//W3C//DTD SVG 20010904//EN"
 "http://www.w3.org/TR/2001/REC-SVG-20010904/DTD/svg10.dtd">
<svg version="1.0" xmlns="http://www.w3.org/2000/svg"
 width="208.000000pt" height="212.000000pt" viewBox="0 0 208.000000 212.000000"
 preserveAspectRatio="xMidYMid meet">
<metadata>
Created by potrace 1.16, written by Peter Selinger 2001-2019
</metadata>
<g transform="translate(0.000000,212.000000) scale(0.100000,-0.100000)"
fill="#000000" stroke="none">
<path d="M1370 2037 c-31 -12 -73 -32 -95 -45 -54 -32 -75 -43 -110 -60 -16
-9 -43 -26 -58 -39 -16 -12 -33 -23 -38 -23 -6 0 -53 -25 -105 -55 -53 -30
-96 -55 -97 -55 -1 0 -3 32 -4 71 -2 59 -6 76 -24 95 -27 28 -60 30 -101 7
-25 -15 -29 -22 -24 -48 3 -16 14 -37 24 -45 20 -18 42 -76 42 -113 0 -27 -30
-67 -51 -67 -6 0 -20 -11 -30 -24 -11 -13 -50 -41 -87 -62 -106 -58 -172 -112
-172 -141 0 -39 17 -60 53 -67 35 -7 90 14 104 38 5 8 26 26 48 40 22 15 57
45 78 67 51 53 71 52 63 -3 -4 -24 -8 -68 -10 -98 -4 -61 -29 -168 -57 -245
-9 -27 -27 -84 -39 -125 -12 -41 -35 -106 -50 -145 -15 -38 -33 -92 -40 -120
-22 -93 -112 -359 -152 -450 -22 -49 -46 -106 -55 -125 -8 -19 -19 -43 -24
-53 -5 -9 -20 -46 -34 -82 l-24 -65 54 0 c53 0 54 0 66 38 6 20 15 42 19 47
21 29 127 273 157 360 18 55 37 109 42 120 5 11 20 58 33 105 l24 85 53 26
c39 18 58 35 70 59 9 19 32 44 51 57 19 12 47 31 62 42 14 12 28 21 31 21 9 0
17 -31 33 -133 14 -85 15 -143 9 -346 -4 -135 -11 -255 -16 -268 -10 -27 -19
-28 -62 -9 -62 27 -170 49 -234 47 -69 -2 -196 -46 -190 -65 2 -7 45 -11 113
-12 98 0 118 -4 199 -34 108 -40 148 -63 169 -96 21 -31 38 -30 62 4 51 68 69
254 69 680 0 127 3 232 7 232 4 0 26 -23 50 -50 73 -86 120 -110 239 -121 110
-10 129 -5 129 36 0 13 5 25 10 27 6 2 15 39 20 83 21 171 30 214 64 314 19
57 39 107 44 110 5 3 17 22 27 41 9 19 25 44 35 55 10 11 21 41 24 68 l7 47
-40 0 c-22 0 -43 -5 -46 -10 -3 -6 -23 -18 -43 -29 -68 -34 -227 -133 -235
-146 -4 -8 -24 -24 -45 -36 -20 -12 -57 -38 -82 -58 -24 -20 -60 -44 -80 -53
-19 -10 -43 -23 -52 -30 -13 -10 -22 -9 -42 2 -33 17 -34 49 -2 87 13 15 33
48 46 73 31 61 88 149 120 185 33 36 46 103 27 130 -12 15 -18 16 -50 6 -20
-7 -58 -24 -84 -38 -27 -14 -82 -43 -123 -65 -41 -22 -82 -45 -90 -52 -8 -7
-23 -16 -34 -20 -16 -5 -18 -2 -13 21 14 76 55 153 81 153 7 0 32 20 56 45 24
25 48 45 53 45 9 0 95 57 115 77 7 7 20 13 27 13 8 0 34 17 58 38 24 20 54 44
67 52 45 29 90 72 90 86 0 18 -14 17 -80 -9z m-293 -584 c-14 -26 -37 -75 -53
-108 -46 -101 -80 -143 -119 -151 -49 -9 -71 -37 -57 -70 7 -14 26 -31 42 -38
29 -12 30 -13 13 -28 -10 -9 -42 -28 -72 -43 l-54 -27 8 39 c4 21 15 57 26 80
10 23 19 47 19 54 0 7 9 42 20 78 11 36 22 79 25 94 5 26 9 28 43 25 33 -3 38
0 47 27 6 17 14 35 18 42 10 15 110 83 115 78 2 -2 -7 -25 -21 -52z m467 -135
c-4 -24 -13 -61 -21 -83 -17 -45 -63 -268 -63 -302 0 -29 -33 -49 -92 -57 -57
-9 -95 8 -153 68 -22 22 -58 50 -80 61 -57 30 -58 58 -3 84 24 12 55 29 69 38
14 10 47 32 73 48 27 17 72 48 100 71 67 53 156 114 167 114 5 0 6 -19 3 -42z
m-899 -569 c11 -17 -1 -21 -15 -4 -8 9 -8 15 -2 15 6 0 14 -5 17 -11z"/>
</g>
</svg>
