<?xml version="1.0" standalone="no"?>
<!DOCTYPE svg PUBLIC "-//W3C//DTD SVG 20010904//EN"
 "http://www.w3.org/TR/2001/REC-SVG-20010904/DTD/svg10.dtd">
<svg version="1.0" xmlns="http://www.w3.org/2000/svg"
 width="210.000000pt" height="213.000000pt" viewBox="0 0 210.000000 213.000000"
 preserveAspectRatio="xMidYMid meet">
<metadata>
Created by potrace 1.16, written by Peter Selinger 2001-2019
</metadata>
<g transform="translate(0.000000,213.000000) scale(0.100000,-0.100000)"
fill="#000000" stroke="none">
<path d="M770 2124 c0 -4 9 -21 19 -38 26 -43 54 -143 47 -170 -3 -12 -19 -29
-36 -37 -42 -20 -206 -160 -219 -187 -15 -31 -14 -39 9 -62 30 -30 71 -25 125
16 l47 37 -5 -39 c-17 -121 -28 -202 -36 -266 -4 -40 -21 -113 -36 -163 -69
-221 -97 -302 -116 -328 -16 -22 -19 -37 -14 -70 5 -35 0 -61 -29 -138 -19
-52 -46 -132 -59 -179 -14 -47 -35 -112 -47 -145 -12 -33 -28 -81 -36 -108
-12 -39 -21 -50 -51 -62 -19 -8 -46 -15 -59 -15 -12 0 -26 -5 -30 -11 -8 -13
14 -29 36 -28 33 3 50 -2 50 -12 0 -23 -55 -99 -72 -99 -9 0 -20 -4 -23 -10
-4 -6 20 -10 64 -10 40 0 71 4 71 10 0 5 15 25 34 44 l33 35 42 -15 c55 -19
118 -51 126 -64 4 -6 71 -10 174 -10 l167 0 27 128 c31 148 47 255 47 310 0
21 3 42 7 45 4 4 8 53 9 109 2 55 8 106 14 112 8 8 26 3 63 -16 104 -52 147
-69 163 -66 11 2 22 22 31 53 15 56 17 62 33 160 17 106 81 341 101 370 39 57
80 152 81 190 3 54 -13 76 -39 53 -10 -9 -31 -23 -48 -31 -16 -9 -64 -46 -105
-82 -41 -37 -91 -74 -110 -83 -19 -9 -55 -32 -79 -52 -25 -19 -55 -42 -67 -50
-12 -8 -48 -33 -80 -55 -33 -22 -79 -49 -104 -59 -25 -11 -52 -25 -60 -31 -29
-22 -109 -59 -115 -54 -5 5 69 251 83 273 3 5 16 -4 28 -19 l23 -29 66 27 c36
15 75 27 86 27 25 0 79 27 79 40 0 17 -39 50 -60 50 -26 0 -25 4 9 48 16 20
31 48 34 62 6 25 64 92 191 220 48 49 66 74 70 102 9 48 -7 82 -32 69 -9 -5
-33 -17 -52 -25 -40 -19 -55 -27 -129 -76 -29 -19 -60 -39 -69 -45 -9 -5 -51
-34 -95 -63 -44 -29 -81 -52 -82 -50 -2 2 0 24 4 49 10 66 40 110 93 139 25
14 53 31 62 39 21 17 21 47 0 59 -13 7 -3 18 52 54 38 25 92 55 119 67 74 32
79 36 89 64 11 30 -6 57 -34 57 -10 0 -42 -11 -72 -25 -29 -14 -60 -25 -69
-25 -9 0 -33 -13 -53 -29 -39 -32 -100 -56 -114 -47 -13 8 -22 127 -11 148 9
17 3 18 -76 18 -47 0 -85 -3 -85 -6z m94 -660 c7 -8 31 -18 54 -21 23 -3 42
-8 42 -11 0 -3 -16 -29 -35 -57 -23 -35 -46 -57 -66 -64 -18 -6 -34 -9 -37 -6
-6 6 19 175 26 175 3 0 10 -7 16 -16z m446 -288 c0 -8 -12 -61 -26 -118 -14
-56 -29 -125 -34 -153 -28 -148 -30 -155 -56 -155 -14 0 -51 17 -82 39 -56 38
-58 40 -75 112 -15 66 -15 75 -2 85 8 6 15 14 15 17 0 10 74 76 85 77 6 0 44
25 85 55 80 58 90 63 90 41z m-404 -318 c2 -24 9 -56 15 -71 30 -73 -19 -559
-77 -765 -3 -9 -14 -11 -41 -6 -43 7 -168 67 -198 94 -11 10 -46 26 -78 36
-59 18 -59 18 -53 52 3 18 20 75 39 125 19 51 44 124 55 162 11 39 36 115 57
170 20 55 39 109 42 120 9 30 23 45 45 45 24 0 123 45 156 71 14 11 27 17 30
14 3 -2 6 -24 8 -47z"/>
</g>
</svg>
