<?xml version="1.0" standalone="no"?>
<!DOCTYPE svg PUBLIC "-//W3C//DTD SVG 20010904//EN"
 "http://www.w3.org/TR/2001/REC-SVG-20010904/DTD/svg10.dtd">
<svg version="1.0" xmlns="http://www.w3.org/2000/svg"
 width="204.000000pt" height="207.000000pt" viewBox="0 0 204.000000 207.000000"
 preserveAspectRatio="xMidYMid meet">
<metadata>
Created by potrace 1.16, written by Peter Selinger 2001-2019
</metadata>
<g transform="translate(0.000000,207.000000) scale(0.100000,-0.100000)"
fill="#000000" stroke="none">
<path d="M1395 1953 c-27 -19 -77 -58 -110 -87 -33 -28 -76 -64 -97 -79 -20
-14 -58 -47 -85 -73 -63 -61 -202 -164 -221 -164 -12 0 -12 3 0 23 21 33 37
103 42 184 4 61 2 76 -15 97 -28 35 -62 34 -89 -4 -20 -28 -21 -36 -12 -102 9
-76 -9 -250 -28 -256 -19 -7 -108 -83 -114 -98 -10 -26 12 -53 49 -60 30 -5
43 0 100 40 36 25 65 42 65 38 0 -26 -45 -145 -84 -223 -25 -51 -46 -100 -46
-110 0 -10 -8 -42 -18 -71 -11 -29 -32 -93 -48 -143 -27 -84 -170 -381 -200
-415 -7 -9 -17 -24 -21 -35 -30 -75 -146 -236 -159 -222 -3 3 0 31 7 62 9 42
10 58 1 67 -18 18 -32 -1 -58 -79 -39 -114 -26 -193 32 -193 40 0 164 139 223
249 7 14 21 35 31 46 10 11 28 38 39 60 12 22 38 67 57 100 31 54 44 80 90
182 8 17 14 38 14 46 0 20 70 230 81 242 32 33 -21 -246 -61 -325 -10 -19 -25
-62 -33 -95 -9 -33 -18 -67 -22 -76 -7 -19 26 -59 51 -59 28 0 80 64 119 146
37 78 61 108 224 283 135 145 131 141 141 141 19 0 19 -3 60 -370 28 -253 62
-345 184 -499 96 -121 96 -121 210 -121 l96 0 38 41 c44 48 75 104 98 177 14
43 15 57 5 80 l-13 27 -45 -50 c-25 -28 -53 -66 -63 -85 -10 -19 -36 -52 -57
-72 l-38 -37 -43 19 c-49 22 -86 63 -179 198 -39 57 -77 222 -98 432 -3 30
-10 93 -16 138 -7 62 -7 88 2 98 8 10 9 42 4 109 -7 93 -8 96 -40 121 -28 21
-35 35 -45 92 -7 37 -19 71 -26 75 -8 4 -14 14 -14 22 0 15 -38 55 -52 55 -17
0 -58 -53 -58 -74 0 -12 14 -59 31 -106 48 -132 49 -128 -13 -191 -29 -31 -97
-102 -152 -160 l-98 -104 8 60 c10 72 7 231 -4 252 -12 20 56 142 140 251 92
120 162 188 230 223 29 15 38 26 38 44 0 19 -6 25 -22 26 -42 3 -53 2 -75 -5
-34 -11 -29 15 7 39 17 11 32 27 35 35 3 9 18 24 35 33 16 10 30 25 30 33 0 8
4 14 9 14 5 0 39 29 75 64 48 46 66 71 66 90 0 37 -33 33 -95 -11z"/>
<path d="M1113 285 c-28 -12 -33 -19 -33 -49 0 -47 34 -71 85 -62 32 6 37 4
53 -23 20 -36 41 -39 67 -11 26 29 7 89 -43 129 -41 34 -77 39 -129 16z"/>
</g>
</svg>
