<?xml version="1.0" standalone="no"?>
<!DOCTYPE svg PUBLIC "-//W3C//DTD SVG 20010904//EN"
 "http://www.w3.org/TR/2001/REC-SVG-20010904/DTD/svg10.dtd">
<svg version="1.0" xmlns="http://www.w3.org/2000/svg"
 width="207.000000pt" height="205.000000pt" viewBox="0 0 207.000000 205.000000"
 preserveAspectRatio="xMidYMid meet">
<metadata>
Created by potrace 1.16, written by Peter Selinger 2001-2019
</metadata>
<g transform="translate(0.000000,205.000000) scale(0.100000,-0.100000)"
fill="#000000" stroke="none">
<path d="M628 2043 c-2 -5 -2 -50 0 -100 3 -83 5 -93 22 -93 27 0 58 68 75
163 l7 37 -50 0 c-28 0 -52 -3 -54 -7z"/>
<path d="M1190 2017 c-125 -56 -170 -78 -175 -87 -3 -5 -40 -26 -83 -47 -42
-21 -85 -46 -95 -56 -10 -10 -35 -25 -55 -34 -66 -26 -122 -55 -128 -64 -11
-18 -68 -42 -72 -30 -5 16 -79 -67 -85 -95 -10 -55 70 -99 104 -58 7 8 30 24
50 35 l38 19 -18 -48 c-19 -49 -34 -97 -71 -222 -12 -41 -37 -118 -55 -170
-18 -52 -35 -104 -38 -115 -11 -42 -77 -207 -111 -279 -20 -42 -36 -78 -36
-81 0 -12 -107 -224 -142 -282 -21 -35 -38 -67 -38 -72 0 -5 -6 -14 -13 -20
-13 -10 -36 -54 -121 -231 l-35 -75 40 -3 c23 -2 47 -1 54 1 14 6 65 100 65
122 0 8 4 15 10 15 5 0 26 30 45 68 19 37 60 108 90 157 62 103 98 175 150
295 20 47 42 99 50 115 35 77 47 107 79 200 33 96 36 101 78 122 24 12 47 22
52 22 5 1 5 -53 0 -131 -5 -73 -9 -175 -9 -226 0 -81 3 -96 19 -108 35 -25 67
-16 140 40 133 102 247 245 354 446 67 125 86 200 77 299 -6 65 -11 78 -36
102 -26 25 -28 30 -17 53 19 43 -4 55 -45 23 -19 -14 -47 -29 -62 -33 -65 -16
-154 -78 -171 -120 -13 -31 -88 -93 -99 -82 -9 9 16 76 30 82 15 5 22 46 8 46
-4 0 -25 -9 -47 -19 -62 -29 -106 -36 -106 -17 0 25 66 129 109 171 23 22 41
48 41 61 0 12 7 27 15 34 8 7 15 19 15 27 0 7 8 17 18 20 9 4 42 22 72 42 30
19 66 41 79 48 13 7 42 23 65 35 22 13 50 31 60 41 11 9 25 17 32 17 22 0 26
21 8 41 -19 21 -46 23 -84 6z m17 -595 c11 -80 -29 -180 -135 -342 -102 -156
-246 -305 -254 -263 -6 33 20 299 35 353 16 58 58 104 175 191 28 22 52 44 52
48 0 5 21 25 48 44 55 41 70 35 79 -31z m-448 -78 c1 -45 -2 -52 -24 -62 -14
-7 -28 -12 -31 -12 -7 0 4 53 23 115 13 41 18 46 24 30 4 -11 8 -43 8 -71z"/>
<path d="M1331 969 c-14 -5 -46 -29 -71 -52 -95 -86 -342 -256 -371 -257 -9 0
-22 -6 -28 -13 -6 -8 -29 -20 -51 -27 -22 -7 -40 -17 -40 -22 0 -4 -8 -8 -18
-8 -10 0 -31 -12 -48 -27 -16 -16 -33 -29 -38 -29 -14 -3 -56 -43 -56 -54 0
-14 42 -53 72 -66 23 -11 79 -32 172 -64 28 -9 51 -21 53 -27 2 -5 -8 -22 -22
-37 -14 -15 -25 -30 -25 -33 0 -12 -77 -99 -154 -175 -65 -64 -75 -78 -57 -78
42 0 171 98 297 225 l94 95 52 0 c71 0 266 -36 286 -52 9 -7 24 -21 34 -30 10
-10 24 -18 31 -18 14 0 69 -23 97 -41 63 -39 148 -69 193 -69 68 0 139 34 135
64 -2 13 -9 20 -18 17 -70 -16 -165 7 -214 53 -17 16 -55 44 -83 63 -29 18
-53 40 -53 47 0 25 -27 36 -97 40 -77 4 -253 35 -267 47 -4 4 28 71 73 148 45
78 81 145 81 149 0 5 10 19 23 32 47 51 79 122 75 168 -3 40 -17 47 -57 31z
m-237 -356 c-21 -38 -45 -79 -54 -93 -9 -14 -22 -38 -28 -54 -11 -25 -16 -28
-45 -21 -18 3 -41 8 -52 9 -32 5 -75 28 -75 41 0 6 12 17 27 24 15 7 65 38
111 69 116 78 136 90 145 91 4 1 -9 -29 -29 -66z"/>
</g>
</svg>
