<?xml version="1.0" standalone="no"?>
<!DOCTYPE svg PUBLIC "-//W3C//DTD SVG 20010904//EN"
 "http://www.w3.org/TR/2001/REC-SVG-20010904/DTD/svg10.dtd">
<svg version="1.0" xmlns="http://www.w3.org/2000/svg"
 width="209.000000pt" height="206.000000pt" viewBox="0 0 209.000000 206.000000"
 preserveAspectRatio="xMidYMid meet">
<metadata>
Created by potrace 1.16, written by Peter Selinger 2001-2019
</metadata>
<g transform="translate(0.000000,206.000000) scale(0.100000,-0.100000)"
fill="#000000" stroke="none">
<path d="M875 1993 c4 -38 13 -104 22 -147 19 -98 8 -206 -20 -206 -5 0 -30
-16 -55 -37 -24 -20 -63 -46 -86 -57 -29 -15 -47 -34 -63 -66 -32 -63 -30 -84
12 -109 33 -19 34 -22 24 -48 -19 -46 -25 -65 -45 -128 -10 -33 -32 -91 -49
-130 -18 -38 -42 -104 -55 -145 -12 -41 -44 -115 -70 -165 -26 -49 -64 -133
-85 -185 -35 -89 -49 -122 -103 -241 -22 -47 -31 -72 -80 -204 -51 -138 -51
-127 4 -123 l48 3 11 52 c7 29 24 70 38 90 15 21 45 81 67 133 22 52 47 109
54 125 8 17 30 68 49 115 19 47 62 137 95 200 33 64 69 149 81 190 12 41 40
113 61 160 22 47 40 90 40 96 0 7 6 17 14 23 12 10 13 6 5 -26 -10 -47 -10
-239 1 -267 4 -12 20 -28 35 -36 24 -13 33 -12 93 9 73 26 131 70 254 191 76
75 78 78 86 141 11 80 5 136 -19 171 -24 33 -24 45 1 93 11 21 16 43 12 47
-12 12 -122 -41 -122 -58 0 -8 -5 -14 -11 -14 -12 0 -81 -51 -112 -82 -10 -10
-31 -25 -47 -33 -28 -15 -30 -14 -30 4 0 21 4 26 53 62 48 36 23 75 -37 58
-55 -16 -60 -12 -36 29 13 20 35 48 51 62 25 23 91 77 107 90 4 3 19 21 34 41
15 20 58 55 96 78 38 23 79 53 92 66 13 14 27 25 32 25 5 0 27 14 49 32 60 48
46 115 -16 74 -13 -9 -31 -16 -38 -16 -8 0 -20 -6 -26 -14 -7 -8 -24 -17 -39
-21 -15 -4 -49 -24 -77 -45 -27 -21 -80 -54 -118 -74 l-67 -36 6 93 c4 52 3
124 0 160 l-8 67 -59 0 -60 0 6 -67z m287 -723 c-2 -60 -5 -67 -37 -98 -19
-18 -35 -35 -35 -38 0 -7 -67 -71 -118 -111 -45 -36 -81 -43 -83 -15 -7 82 24
136 144 250 39 37 80 77 91 89 19 20 22 20 30 5 6 -9 9 -46 8 -82z"/>
<path d="M1415 1075 c-115 -95 -121 -100 -269 -197 -22 -16 -54 -33 -70 -39
-15 -7 -49 -23 -75 -36 -51 -28 -161 -64 -171 -58 -4 3 -15 -4 -25 -15 -13
-15 -16 -29 -12 -56 5 -27 2 -40 -9 -49 -21 -15 -9 -109 13 -101 33 13 203
-63 203 -90 0 -14 -79 -152 -116 -204 -44 -61 -130 -150 -146 -150 -16 0 -38
40 -38 67 0 33 -18 -2 -24 -47 -6 -38 -3 -49 15 -68 29 -32 73 -26 129 17 49
37 130 121 130 134 0 4 11 12 25 17 14 5 30 20 36 32 39 87 95 168 116 168 11
0 74 -28 113 -50 34 -20 159 -78 181 -85 13 -4 38 -18 55 -30 35 -27 99 -55
124 -55 24 0 102 -43 133 -74 26 -26 70 -35 82 -16 3 5 7 29 8 52 2 24 6 49
11 56 21 34 -27 72 -66 51 -19 -10 -82 3 -102 22 -6 5 -20 9 -32 9 -12 0 -46
16 -75 36 -47 32 -247 132 -274 138 -5 1 -27 13 -47 25 -36 22 -48 44 -29 55
13 8 81 126 81 140 0 7 16 35 35 62 19 27 35 53 35 57 0 11 93 147 120 175 25
26 43 87 34 115 -8 26 -63 22 -99 -8z m-208 -327 c-77 -144 -108 -197 -116
-203 -12 -7 -182 78 -178 89 2 5 21 16 44 25 23 9 49 23 60 32 10 9 34 25 53
36 19 10 55 32 79 48 86 59 95 64 99 60 2 -2 -16 -41 -41 -87z"/>
</g>
</svg>
