<?xml version="1.0" standalone="no"?>
<!DOCTYPE svg PUBLIC "-//W3C//DTD SVG 20010904//EN"
 "http://www.w3.org/TR/2001/REC-SVG-20010904/DTD/svg10.dtd">
<svg version="1.0" xmlns="http://www.w3.org/2000/svg"
 width="207.000000pt" height="205.000000pt" viewBox="0 0 207.000000 205.000000"
 preserveAspectRatio="xMidYMid meet">
<metadata>
Created by potrace 1.16, written by Peter Selinger 2001-2019
</metadata>
<g transform="translate(0.000000,205.000000) scale(0.100000,-0.100000)"
fill="#000000" stroke="none">
<path d="M813 1955 c-25 -11 -30 -18 -29 -46 1 -19 14 -60 29 -91 18 -38 29
-82 33 -125 l5 -68 -54 -33 c-30 -18 -63 -42 -72 -52 -10 -11 -39 -26 -66 -35
-37 -13 -58 -29 -89 -67 -44 -56 -49 -77 -22 -101 19 -17 67 -23 74 -9 8 18
66 61 90 67 24 6 26 5 21 -17 -6 -30 -14 -49 -51 -124 -16 -34 -33 -77 -37
-95 -4 -18 -18 -50 -31 -71 -13 -21 -24 -42 -24 -46 0 -5 -21 -58 -46 -118
-25 -60 -53 -125 -61 -144 -8 -19 -21 -46 -29 -60 -9 -14 -33 -61 -54 -105
-21 -44 -50 -96 -65 -115 -14 -19 -43 -72 -65 -117 -22 -45 -53 -102 -68 -125
-16 -24 -42 -69 -58 -101 -17 -34 -47 -74 -71 -94 -61 -50 -57 -63 20 -63 49
0 68 4 80 18 10 10 17 22 17 27 0 5 6 16 14 24 7 9 28 43 46 76 18 33 46 79
62 103 17 24 43 72 59 107 15 34 42 84 60 110 51 76 189 358 189 388 0 3 22
52 49 109 59 125 149 338 182 431 21 59 33 76 91 128 37 33 70 68 73 79 4 11
11 20 17 20 5 0 23 11 39 24 16 14 61 43 101 66 40 23 91 55 113 71 22 16 57
41 78 55 28 18 37 31 35 47 -2 18 -11 23 -44 25 -32 2 -50 -4 -90 -31 -27 -18
-76 -46 -109 -62 -33 -15 -76 -41 -96 -56 -20 -16 -40 -29 -43 -29 -4 0 -24
-11 -44 -25 -20 -14 -39 -25 -42 -25 -3 0 -6 42 -7 94 -1 69 -7 106 -21 139
-22 50 -45 60 -89 42z"/>
<path d="M1523 1670 c-15 -6 -24 -20 -28 -47 -9 -63 -33 -134 -68 -203 -31
-63 -33 -65 -77 -70 -25 -3 -50 -9 -57 -13 -14 -9 -28 -53 -48 -152 -29 -145
-35 -169 -50 -185 -8 -9 -15 -20 -15 -25 0 -9 -92 -134 -140 -190 -19 -22 -49
-71 -65 -108 -28 -62 -33 -68 -80 -86 -88 -34 -219 -103 -238 -125 -37 -44
-38 -53 -11 -85 26 -32 55 -39 77 -20 36 31 307 184 313 176 1 -1 -11 -51 -27
-112 -15 -60 -28 -124 -28 -140 -1 -32 -8 -37 -106 -79 -53 -23 -112 -64 -119
-82 -6 -16 20 -75 32 -72 4 0 15 -3 26 -7 11 -5 25 -4 35 3 9 7 23 15 31 19
61 26 161 76 165 83 3 5 20 12 38 15 17 4 37 11 42 15 6 5 46 18 90 30 44 12
93 28 109 36 16 8 33 14 39 14 5 0 36 13 69 30 32 16 68 30 79 30 11 0 22 7
25 15 4 8 14 15 24 15 11 0 22 5 25 10 3 6 16 10 29 10 12 0 51 12 87 26 44
18 75 25 100 21 64 -8 82 34 24 59 -44 18 -95 18 -183 -1 -66 -13 -215 -67
-237 -85 -5 -4 -30 -14 -55 -21 -25 -7 -54 -18 -65 -25 -11 -6 -51 -17 -90
-24 -38 -7 -79 -18 -90 -24 -11 -6 -35 -16 -52 -22 -32 -11 -33 -11 -26 15 3
14 28 72 55 128 26 57 48 107 48 112 0 14 22 52 52 92 17 22 56 50 105 74 69
35 128 69 158 93 54 41 122 86 180 117 39 20 80 48 93 61 26 27 26 57 1 62
-15 3 -104 -32 -153 -59 -71 -40 -89 -51 -125 -73 -22 -15 -45 -26 -51 -26 -5
0 -10 -4 -10 -8 0 -5 -28 -22 -62 -38 -35 -16 -66 -30 -70 -32 -16 -7 -7 23
33 117 69 161 80 185 112 224 l30 38 32 -31 c31 -30 37 -32 86 -27 65 6 110
16 126 29 17 14 -5 57 -31 63 -43 8 -122 17 -153 16 -36 -1 -39 5 -18 33 8 11
15 28 15 37 0 10 16 52 35 93 19 42 35 79 35 83 0 3 6 14 14 22 16 19 46 118
46 154 0 33 -40 46 -87 27z m-410 -940 c-5 -20 -81 -75 -90 -66 -4 3 14 27 38
54 42 45 62 50 52 12z m222 -409 c3 -5 1 -12 -5 -16 -5 -3 -10 1 -10 9 0 18 6
21 15 7z"/>
<path d="M1003 1366 c-29 -14 -53 -32 -53 -39 0 -8 -19 -37 -43 -63 -25 -29
-62 -90 -88 -148 -36 -81 -49 -100 -72 -109 -26 -9 -28 -13 -24 -46 4 -35 -21
-108 -49 -141 -22 -26 -124 -234 -124 -252 0 -50 51 -2 145 137 26 38 55 76
63 84 8 9 24 35 34 58 21 48 26 50 71 26 18 -9 48 -18 67 -20 19 -1 47 -6 62
-9 39 -9 76 3 89 28 15 29 -5 43 -70 51 -58 7 -131 41 -131 62 0 16 38 100 68
152 26 43 86 118 140 171 24 24 42 51 40 60 -5 27 -66 26 -125 -2z"/>
</g>
</svg>
