<?xml version="1.0" standalone="no"?>
<!DOCTYPE svg PUBLIC "-//W3C//DTD SVG 20010904//EN"
 "http://www.w3.org/TR/2001/REC-SVG-20010904/DTD/svg10.dtd">
<svg version="1.0" xmlns="http://www.w3.org/2000/svg"
 width="206.000000pt" height="206.000000pt" viewBox="0 0 206.000000 206.000000"
 preserveAspectRatio="xMidYMid meet">
<metadata>
Created by potrace 1.16, written by Peter Selinger 2001-2019
</metadata>
<g transform="translate(0.000000,206.000000) scale(0.100000,-0.100000)"
fill="#000000" stroke="none">
<path d="M1420 1967 c-68 -38 -191 -117 -238 -155 -30 -23 -57 -42 -62 -42 -4
0 -24 -14 -46 -30 -21 -17 -53 -38 -72 -47 -19 -9 -51 -33 -71 -53 -20 -20
-61 -51 -91 -69 -57 -34 -106 -82 -130 -126 -11 -21 -12 -33 -3 -56 10 -26 8
-45 -13 -117 -14 -48 -37 -114 -51 -147 -59 -139 -95 -217 -113 -248 -11 -17
-20 -42 -20 -54 0 -31 -34 -105 -122 -263 -100 -182 -111 -200 -151 -256 -19
-27 -47 -71 -62 -99 -50 -87 -108 -155 -129 -148 -20 6 -36 -11 -36 -39 0 -15
10 -18 61 -18 59 0 61 1 105 47 25 27 52 62 61 78 9 17 41 68 72 115 72 110
77 118 101 162 11 20 24 39 29 42 4 3 21 32 36 63 65 140 75 162 75 166 0 3
33 74 73 159 41 84 77 162 81 172 6 18 10 17 44 -15 20 -19 38 -35 40 -36 2 0
-8 -20 -22 -42 -15 -23 -35 -65 -46 -94 -11 -28 -37 -75 -58 -103 -22 -27 -61
-83 -88 -123 -27 -41 -53 -80 -59 -87 -12 -17 19 -84 39 -84 7 0 19 -6 25 -14
11 -13 18 -12 56 4 24 10 52 27 62 37 73 70 132 111 239 163 67 33 127 60 134
60 8 0 10 -9 5 -27 -4 -16 -13 -65 -21 -111 -7 -46 -26 -117 -41 -159 -30 -81
-36 -86 -136 -121 -85 -30 -117 -56 -113 -93 4 -34 32 -69 55 -69 9 0 61 22
116 49 101 50 120 58 255 104 41 14 103 38 138 52 35 15 92 32 126 39 35 8 71
18 82 23 37 20 130 36 192 35 l62 -2 0 60 c0 54 -2 60 -22 65 -34 8 -122 -9
-253 -49 -44 -13 -107 -32 -140 -41 -33 -9 -101 -32 -150 -51 -50 -19 -99 -34
-108 -34 -10 0 -26 -5 -37 -12 -29 -18 -35 -3 -11 30 12 17 21 33 21 37 0 8
36 91 54 125 8 14 17 41 21 60 13 67 58 171 79 182 12 6 23 14 26 17 3 4 30
19 60 34 30 15 73 39 95 52 22 13 55 32 74 42 48 26 65 54 47 78 -13 18 -17
19 -53 6 -21 -8 -55 -25 -75 -38 -44 -27 -168 -75 -168 -65 0 16 36 101 53
123 10 13 23 34 30 46 7 12 23 41 37 65 24 40 46 92 84 198 9 25 31 69 49 99
44 73 95 161 109 189 9 18 9 26 -3 37 -22 21 -71 21 -102 1 -28 -19 -92 -135
-116 -211 -24 -75 -63 -146 -77 -141 -8 3 -35 8 -61 12 -60 7 -84 -14 -88 -78
-5 -75 -17 -143 -28 -156 -7 -8 -21 -11 -40 -6 -16 3 -39 1 -51 -5 -11 -6 -33
-15 -48 -21 -39 -14 -38 -52 3 -80 l30 -22 55 21 c30 11 54 17 55 13 5 -32
-10 -67 -57 -128 -48 -63 -64 -77 -137 -113 -45 -22 -87 -41 -93 -41 -15 0
-144 -68 -166 -88 -10 -8 -18 -11 -18 -5 0 15 59 93 75 99 7 3 25 30 40 60 14
29 30 56 35 59 5 3 19 25 30 48 34 69 54 102 87 143 17 22 60 96 95 164 36 69
74 141 86 160 12 19 29 49 38 65 9 17 34 52 55 79 25 31 39 59 39 77 0 27 -3
29 -41 29 -29 0 -53 -9 -85 -30 -24 -17 -44 -35 -44 -39 0 -14 -80 -180 -116
-242 l-33 -56 -71 -1 c-38 -1 -70 0 -70 2 0 20 46 136 61 152 10 11 19 27 19
36 0 8 29 41 63 74 148 137 215 196 257 224 25 16 70 48 100 70 30 22 58 40
62 40 18 0 139 131 136 148 -4 22 -36 26 -68 9z m-530 -837 c0 -8 -33 -65 -57
-99 -6 -9 -22 14 -28 41 -6 23 -2 29 32 47 44 23 53 25 53 11z"/>
<path d="M927 1939 c-29 -17 -36 -50 -19 -94 8 -22 17 -58 21 -80 4 -26 12
-41 22 -43 24 -4 69 45 89 97 22 56 10 93 -37 115 -39 19 -51 19 -76 5z"/>
<path d="M1517 1282 c-15 -9 -30 -25 -33 -35 -7 -22 28 -64 60 -72 12 -4 31
-11 44 -18 19 -9 26 -7 43 10 31 30 18 76 -29 108 -43 29 -48 30 -85 7z"/>
</g>
</svg>
