<?xml version="1.0" standalone="no"?>
<!DOCTYPE svg PUBLIC "-//W3C//DTD SVG 20010904//EN"
 "http://www.w3.org/TR/2001/REC-SVG-20010904/DTD/svg10.dtd">
<svg version="1.0" xmlns="http://www.w3.org/2000/svg"
 width="208.000000pt" height="214.000000pt" viewBox="0 0 208.000000 214.000000"
 preserveAspectRatio="xMidYMid meet">
<metadata>
Created by potrace 1.16, written by Peter Selinger 2001-2019
</metadata>
<g transform="translate(0.000000,214.000000) scale(0.100000,-0.100000)"
fill="#000000" stroke="none">
<path d="M1143 2018 c-28 -14 -29 -37 -3 -83 34 -61 24 -187 -17 -202 -10 -3
-34 -19 -54 -35 -20 -15 -42 -28 -48 -28 -5 0 -34 -19 -63 -43 -29 -24 -74
-53 -100 -66 -28 -13 -67 -46 -94 -77 -42 -49 -46 -57 -36 -79 11 -24 34 -31
86 -27 14 2 16 -2 11 -15 -4 -10 -13 -40 -20 -68 -8 -27 -30 -93 -49 -145 -20
-52 -50 -133 -67 -180 -17 -47 -48 -119 -69 -160 -21 -42 -41 -90 -44 -107 -4
-17 -13 -36 -20 -42 -8 -6 -21 -33 -30 -59 -20 -55 -35 -89 -106 -232 -29 -58
-60 -133 -70 -168 -11 -34 -29 -79 -42 -100 -13 -20 -28 -52 -34 -69 l-12 -33
52 0 52 0 36 73 c20 39 39 86 42 104 9 38 35 91 64 128 12 15 22 34 22 41 0
39 44 86 105 113 60 27 65 26 65 -3 0 -23 -71 -120 -113 -155 -10 -7 -17 -20
-17 -27 0 -8 -9 -19 -20 -26 -11 -7 -20 -18 -20 -24 0 -12 45 -64 56 -64 12 0
107 62 139 91 17 14 41 32 54 39 22 11 27 10 49 -16 82 -99 153 -175 192 -205
25 -19 51 -42 58 -51 7 -10 26 -18 42 -18 24 0 30 6 41 38 6 20 15 42 20 48 5
6 6 13 3 16 -3 3 0 41 6 84 5 44 17 148 24 232 8 84 19 158 25 165 14 18 109
62 117 55 3 -4 -1 -19 -9 -35 -14 -26 -14 -33 1 -65 29 -60 125 -128 203 -144
84 -17 285 16 372 61 27 14 54 25 60 25 6 0 31 7 54 16 33 13 43 22 43 39 0
22 0 22 -72 9 -40 -7 -102 -20 -138 -29 -99 -25 -189 -37 -251 -33 -46 3 -63
10 -97 39 -41 34 -52 61 -31 75 17 10 49 86 49 117 0 22 -5 29 -29 33 l-29 6
-7 139 c-8 152 -7 158 49 186 43 21 108 91 104 111 -4 22 -70 29 -89 10 -8 -7
-27 -24 -44 -37 l-30 -23 -6 47 c-6 51 12 204 31 270 7 22 22 60 35 85 12 25
25 66 29 92 7 44 5 49 -17 59 -20 9 -32 6 -76 -18 -29 -15 -69 -37 -91 -48
-21 -11 -57 -37 -79 -58 -56 -52 -86 -64 -108 -45 -33 29 -60 31 -93 6 -30
-22 -31 -24 -25 -83 7 -60 7 -60 -34 -104 -58 -63 -101 -141 -90 -163 6 -10
21 -18 34 -18 30 0 32 -11 5 -28 -30 -19 -25 -58 12 -93 18 -16 39 -31 48 -34
17 -6 70 -73 70 -89 0 -12 -143 -109 -245 -166 -34 -19 -72 -43 -86 -53 -13
-10 -50 -33 -82 -52 -54 -32 -58 -33 -52 -12 4 12 25 56 47 97 22 41 53 108
69 147 16 40 33 81 38 90 6 10 28 69 51 131 22 62 49 129 60 150 11 20 20 48
20 61 0 13 11 39 25 57 14 18 25 38 25 44 0 6 7 22 16 36 20 30 11 43 -17 26
-19 -12 -19 -11 -8 10 24 44 123 129 187 160 36 17 84 45 107 62 62 46 182
128 220 151 18 11 56 34 84 50 42 25 51 35 51 58 0 25 -3 27 -42 26 -35 0 -60
-11 -133 -60 -81 -53 -177 -109 -189 -109 -2 0 -2 18 1 40 6 46 -12 128 -34
153 -18 19 -47 21 -80 5z m261 -495 c-3 -16 -12 -44 -19 -63 -19 -51 -28 -150
-27 -278 1 -112 1 -112 -26 -128 -15 -9 -40 -26 -56 -37 -23 -16 -30 -17 -37
-6 -19 30 2 64 64 102 19 13 27 26 27 47 0 37 -34 61 -92 64 l-43 3 3 79 c3
60 8 84 22 98 16 16 180 143 188 145 1 1 0 -11 -4 -26z m-327 -315 c-3 -8 -6
-5 -6 6 -1 11 2 17 5 13 3 -3 4 -12 1 -19z m301 -398 c-3 -42 -5 -45 -28 -42
-27 4 -45 23 -75 78 -18 34 -18 34 6 60 13 15 38 35 54 45 l30 19 8 -58 c4
-31 6 -77 5 -102z m-265 -99 c10 -71 3 -111 -18 -111 -8 0 -15 -5 -15 -10 0
-6 -17 -19 -38 -28 -20 -9 -51 -27 -69 -39 -17 -13 -34 -23 -38 -23 -3 0 -22
-11 -43 -25 -33 -23 -37 -23 -54 -8 -10 9 -18 27 -18 41 0 22 -3 24 -35 20
-42 -5 -44 4 -7 27 15 10 41 32 58 50 17 18 59 48 94 66 34 19 65 40 67 47 3
6 10 12 17 12 6 0 25 11 41 25 17 13 35 23 40 21 6 -1 14 -31 18 -65z m161 20
l27 -28 -25 -17 c-38 -25 -56 -21 -56 13 0 33 9 61 19 61 4 0 20 -13 35 -29z
m-165 -333 c-11 -159 -27 -238 -48 -238 -23 0 -105 81 -148 146 -38 57 -37 63
5 88 56 33 159 105 171 120 24 29 29 4 20 -116z"/>
</g>
</svg>
