<?xml version="1.0" standalone="no"?>
<!DOCTYPE svg PUBLIC "-//W3C//DTD SVG 20010904//EN"
 "http://www.w3.org/TR/2001/REC-SVG-20010904/DTD/svg10.dtd">
<svg version="1.0" xmlns="http://www.w3.org/2000/svg"
 width="207.000000pt" height="202.000000pt" viewBox="0 0 207.000000 202.000000"
 preserveAspectRatio="xMidYMid meet">
<metadata>
Created by potrace 1.16, written by Peter Selinger 2001-2019
</metadata>
<g transform="translate(0.000000,202.000000) scale(0.100000,-0.100000)"
fill="#000000" stroke="none">
<path d="M1071 1700 c-40 -21 -90 -52 -110 -68 -20 -16 -49 -36 -66 -46 -68
-38 -101 -59 -120 -76 -42 -38 -130 -100 -142 -100 -7 0 -13 -6 -13 -13 0 -7
-15 -21 -32 -30 -40 -22 -118 -117 -118 -143 0 -33 29 -64 60 -64 29 0 90 43
90 63 0 12 69 92 74 86 10 -14 26 -123 27 -182 0 -40 4 -94 8 -122 5 -27 7
-55 4 -61 -2 -6 -46 -30 -98 -54 -52 -24 -95 -47 -95 -51 0 -3 -40 -27 -88
-52 -97 -49 -160 -103 -182 -156 -13 -32 -12 -35 14 -57 15 -13 30 -24 34 -24
4 0 50 34 102 75 52 41 106 80 120 87 14 7 48 27 77 45 78 49 83 47 68 -34 -7
-38 -16 -94 -20 -126 -3 -32 -18 -89 -31 -125 -13 -37 -27 -88 -30 -114 l-7
-48 31 0 c28 0 32 4 43 43 7 23 20 51 30 62 30 34 49 91 70 213 26 156 39 196
75 235 29 29 189 117 215 117 13 0 7 -75 -21 -250 -10 -63 -21 -144 -25 -180
-3 -36 -13 -99 -21 -140 -19 -100 -25 -263 -12 -303 13 -36 48 -87 60 -87 14
0 40 49 32 62 -12 18 -6 139 11 263 31 215 56 381 65 435 5 30 14 92 21 138 7
48 17 86 24 88 7 3 20 24 29 48 13 34 24 45 54 55 20 8 56 27 79 42 23 16 45
29 48 29 4 0 39 21 77 48 38 26 78 52 89 57 13 7 19 18 17 35 -3 23 -7 25 -50
23 -36 -1 -59 -10 -105 -40 -83 -56 -204 -116 -213 -106 -5 4 -4 44 1 88 5 44
9 119 7 165 l-3 85 -36 3 c-21 2 -40 -2 -46 -10 -6 -7 -17 -98 -23 -203 -11
-167 -15 -193 -33 -212 -11 -13 -25 -23 -30 -23 -9 0 -133 -57 -199 -91 -22
-11 -25 0 -33 121 -8 118 -3 139 41 168 54 35 40 47 -54 47 -45 -1 -82 1 -82
3 0 14 152 132 169 132 6 0 14 6 18 13 4 8 24 24 43 38 19 13 63 45 97 72 65
49 89 61 136 71 29 7 34 24 17 57 -16 29 -55 23 -139 -21z m-141 -719 c0 -10
-24 -21 -43 -21 -7 0 -3 7 7 15 22 17 36 19 36 6z"/>
</g>
</svg>
