<?xml version="1.0" standalone="no"?>
<!DOCTYPE svg PUBLIC "-//W3C//DTD SVG 20010904//EN"
 "http://www.w3.org/TR/2001/REC-SVG-20010904/DTD/svg10.dtd">
<svg version="1.0" xmlns="http://www.w3.org/2000/svg"
 width="208.000000pt" height="202.000000pt" viewBox="0 0 208.000000 202.000000"
 preserveAspectRatio="xMidYMid meet">
<metadata>
Created by potrace 1.16, written by Peter Selinger 2001-2019
</metadata>
<g transform="translate(0.000000,202.000000) scale(0.100000,-0.100000)"
fill="#000000" stroke="none">
<path d="M1270 1983 c-8 -4 -19 -12 -25 -19 -5 -7 -28 -19 -50 -26 -35 -12
-158 -74 -204 -103 -39 -25 -159 -93 -191 -109 -49 -24 -101 -56 -141 -87 -19
-14 -52 -32 -73 -39 -58 -19 -87 -50 -93 -99 -5 -38 -3 -46 22 -67 16 -14 31
-23 34 -21 3 1 18 9 34 16 15 8 27 18 27 22 0 12 61 79 72 79 5 0 26 12 45 27
l36 28 -7 -40 c-4 -22 -11 -83 -16 -135 -4 -52 -15 -113 -24 -135 -8 -22 -15
-49 -16 -59 0 -11 -5 -48 -11 -82 -9 -51 -15 -65 -32 -70 -12 -4 -87 -38 -167
-76 -216 -104 -279 -185 -168 -213 20 -5 35 -1 62 20 19 15 53 36 75 48 22 12
57 32 78 43 21 12 48 25 61 29 21 6 22 4 17 -22 -16 -78 -39 -153 -59 -198
-13 -27 -29 -66 -36 -85 -47 -137 -148 -274 -193 -262 -29 7 -37 20 -37 65 0
57 -26 49 -35 -11 -7 -55 5 -94 37 -116 30 -21 93 -21 116 1 10 10 31 25 46
33 34 18 73 68 109 142 44 92 117 265 117 279 0 36 75 236 96 255 26 25 213
118 221 111 3 -3 0 -61 -6 -129 -7 -68 -14 -152 -17 -188 -3 -36 -10 -78 -15
-95 -13 -45 -49 -291 -49 -341 0 -24 -5 -63 -12 -87 -12 -48 -5 -97 16 -97 22
0 47 36 57 82 5 24 13 52 18 63 9 21 25 99 36 175 4 25 15 89 26 144 10 54 19
116 19 137 0 21 5 69 10 106 6 38 16 119 24 181 11 93 18 118 37 138 12 13 30
24 40 24 10 0 20 4 23 8 2 4 38 24 78 45 111 55 133 81 108 128 -13 23 -32 24
-68 5 -67 -37 -174 -86 -187 -86 -11 0 -14 30 -17 138 -2 75 -1 144 3 152 8
21 -9 80 -24 81 -25 2 -62 -3 -70 -10 -14 -14 -38 -123 -29 -135 13 -15 22
-254 12 -282 -5 -12 -21 -29 -37 -37 -15 -8 -59 -31 -98 -51 l-70 -37 -3 27
c-2 14 4 49 14 78 19 58 35 138 35 178 0 15 4 30 9 33 6 4 10 17 10 30 0 14 9
29 20 35 32 17 24 47 -20 79 -47 34 -46 36 62 88 40 19 87 45 103 57 17 12 66
40 110 61 44 22 92 48 107 58 14 11 32 17 40 15 7 -3 25 1 41 9 20 10 27 21
27 42 0 16 -6 33 -13 39 -17 14 -59 22 -77 15z m-700 -1413 c0 -5 -4 -10 -10
-10 -5 0 -10 5 -10 10 0 6 5 10 10 10 6 0 10 -4 10 -10z"/>
</g>
</svg>
