<?xml version="1.0" standalone="no"?>
<!DOCTYPE svg PUBLIC "-//W3C//DTD SVG 20010904//EN"
 "http://www.w3.org/TR/2001/REC-SVG-20010904/DTD/svg10.dtd">
<svg version="1.0" xmlns="http://www.w3.org/2000/svg"
 width="207.000000pt" height="204.000000pt" viewBox="0 0 207.000000 204.000000"
 preserveAspectRatio="xMidYMid meet">
<metadata>
Created by potrace 1.16, written by Peter Selinger 2001-2019
</metadata>
<g transform="translate(0.000000,204.000000) scale(0.100000,-0.100000)"
fill="#000000" stroke="none">
<path d="M1090 1880 c-24 -24 -24 -29 -5 -100 8 -30 15 -69 15 -86 0 -17 7
-48 15 -67 8 -20 15 -54 15 -75 0 -38 -3 -41 -82 -93 -45 -30 -87 -56 -93 -58
-39 -14 -95 -43 -100 -51 -3 -5 -14 -10 -24 -10 -9 0 -50 -16 -89 -35 -40 -20
-78 -35 -85 -33 -6 1 -37 -10 -67 -24 -30 -14 -63 -28 -73 -31 -46 -16 -41
-96 7 -118 34 -16 110 -3 143 25 16 12 66 39 113 60 47 21 97 49 112 62 16 12
38 26 50 29 13 4 31 14 40 22 9 9 36 25 60 37 24 12 53 29 65 36 12 8 24 12
27 10 6 -7 27 -189 31 -280 18 -341 26 -450 35 -480 14 -46 2 -54 -103 -70
-45 -7 -108 -18 -140 -26 -32 -8 -62 -12 -67 -9 -14 9 -1 268 16 339 24 98 61
167 107 201 35 26 42 37 42 65 0 28 -4 34 -25 36 -41 4 -79 -6 -108 -31 -54
-45 -207 -125 -240 -125 -11 0 -30 -12 -41 -26 -16 -21 -18 -30 -9 -50 6 -13
22 -31 36 -40 23 -15 26 -15 52 5 15 11 39 23 51 26 l24 6 0 -228 c0 -125 -4
-234 -8 -241 -5 -7 -39 -28 -77 -47 -41 -21 -77 -47 -91 -67 -13 -18 -29 -39
-36 -46 -17 -18 -16 -25 8 -56 30 -38 61 -33 116 20 26 25 62 52 80 59 17 8
37 20 45 27 54 53 257 145 339 155 l46 5 22 -65 c11 -37 21 -75 21 -86 0 -35
47 -103 80 -118 18 -7 34 -13 35 -13 15 0 38 94 50 204 8 74 19 154 25 178 22
80 112 319 146 386 37 72 46 142 19 142 -8 0 -15 -4 -15 -8 0 -5 -22 -34 -49
-65 -27 -30 -63 -86 -81 -124 -17 -37 -37 -79 -44 -93 -21 -40 -76 -206 -76
-229 0 -24 -18 -37 -32 -23 -16 16 -36 187 -42 372 -4 96 -11 217 -18 269 -12
105 3 261 26 261 7 0 45 25 85 55 40 30 76 55 81 55 19 0 21 -65 4 -131 -14
-56 -15 -71 -5 -82 10 -10 20 -4 49 29 62 70 71 133 41 310 -9 52 -8 66 5 87
15 22 15 26 1 37 -22 18 -119 8 -145 -15 -26 -24 -25 -46 5 -91 28 -42 30 -49
13 -64 -28 -23 -129 -90 -137 -90 -5 0 -14 -7 -21 -15 -7 -8 -16 -15 -19 -15
-10 0 -31 119 -27 158 1 17 3 43 4 57 1 18 8 25 22 25 11 0 20 6 20 14 0 27
-12 46 -29 46 -9 0 -29 9 -46 20 -38 25 -70 25 -95 0z"/>
</g>
</svg>
