<?xml version="1.0" standalone="no"?>
<!DOCTYPE svg PUBLIC "-//W3C//DTD SVG 20010904//EN"
 "http://www.w3.org/TR/2001/REC-SVG-20010904/DTD/svg10.dtd">
<svg version="1.0" xmlns="http://www.w3.org/2000/svg"
 width="208.000000pt" height="203.000000pt" viewBox="0 0 208.000000 203.000000"
 preserveAspectRatio="xMidYMid meet">
<metadata>
Created by potrace 1.16, written by Peter Selinger 2001-2019
</metadata>
<g transform="translate(0.000000,203.000000) scale(0.100000,-0.100000)"
fill="#000000" stroke="none">
<path d="M1027 1888 c-45 -16 -46 -30 -9 -238 11 -63 22 -149 24 -190 l3 -75
-102 -50 c-56 -27 -130 -63 -165 -79 -35 -16 -74 -38 -87 -48 -13 -10 -30 -18
-38 -18 -20 0 -148 -64 -168 -83 -32 -33 -4 -87 46 -87 27 0 102 37 163 82 32
23 98 58 111 58 1 0 2 -17 3 -37 1 -26 9 -44 23 -55 26 -22 36 -22 96 -2 62
21 94 50 87 79 -4 16 1 26 19 38 l25 16 6 -72 c8 -94 17 -274 21 -412 2 -60 7
-138 11 -173 7 -60 6 -65 -20 -89 -15 -13 -59 -39 -99 -57 -40 -18 -112 -57
-160 -85 -87 -52 -123 -59 -113 -24 2 10 12 74 21 143 9 69 23 145 31 169 8
25 14 54 14 66 0 12 17 37 39 58 53 49 67 117 24 117 -21 0 -126 -60 -136 -78
-18 -29 -72 -68 -140 -103 -59 -29 -73 -40 -75 -62 -3 -27 -25 -36 -37 -17 -4
6 -11 8 -16 5 -16 -11 -9 -41 15 -64 20 -19 29 -21 57 -13 19 5 54 23 79 40
25 17 48 27 52 23 8 -7 -17 -275 -28 -316 -11 -39 -35 -85 -45 -85 -17 0 -85
-74 -99 -108 -16 -42 -1 -62 48 -62 34 0 42 5 137 89 11 10 34 25 51 34 17 9
53 33 80 55 27 21 72 51 99 67 28 15 81 48 118 72 98 63 129 46 142 -77 12
-108 32 -193 49 -202 9 -5 16 -16 16 -23 0 -12 21 -15 110 -15 l110 0 0 45 c0
89 32 135 232 336 196 197 255 266 239 282 -10 10 -97 -40 -121 -69 -7 -7 -19
-14 -27 -14 -10 0 -5 18 21 67 20 37 36 73 36 80 0 19 -27 16 -42 -6 -25 -35
-234 -264 -342 -375 -117 -120 -114 -119 -129 -39 -5 26 -1 39 20 63 16 19 32
29 41 25 8 -3 21 0 30 7 12 10 16 10 19 1 10 -29 23 -10 23 32 0 35 -5 49 -27
70 -15 14 -31 25 -34 25 -18 0 -121 -54 -126 -66 -12 -32 -20 -9 -31 84 -22
193 -35 734 -19 792 4 14 26 37 49 52 24 15 65 44 91 64 27 19 51 33 54 31 4
-5 5 -154 1 -197 -2 -20 2 -25 22 -28 14 -1 35 6 48 16 19 15 24 34 37 142 8
69 15 150 15 180 0 57 -19 100 -44 100 -28 0 -71 -31 -81 -58 -14 -40 -205
-205 -220 -190 -10 10 -32 242 -28 295 4 49 9 62 24 66 21 6 16 37 -6 37 -6 0
-24 11 -39 25 -29 27 -37 28 -79 13z"/>
</g>
</svg>
