<?xml version="1.0" standalone="no"?>
<!DOCTYPE svg PUBLIC "-//W3C//DTD SVG 20010904//EN"
 "http://www.w3.org/TR/2001/REC-SVG-20010904/DTD/svg10.dtd">
<svg version="1.0" xmlns="http://www.w3.org/2000/svg"
 width="206.000000pt" height="204.000000pt" viewBox="0 0 206.000000 204.000000"
 preserveAspectRatio="xMidYMid meet">
<metadata>
Created by potrace 1.16, written by Peter Selinger 2001-2019
</metadata>
<g transform="translate(0.000000,204.000000) scale(0.100000,-0.100000)"
fill="#000000" stroke="none">
<path d="M884 1910 c-22 -11 -54 -33 -70 -49 -16 -15 -42 -35 -59 -44 -16 -8
-43 -29 -59 -46 -17 -17 -35 -31 -41 -31 -6 0 -27 -14 -48 -31 -27 -22 -37
-38 -37 -59 0 -81 94 -77 173 6 20 21 38 36 41 33 3 -3 -2 -27 -10 -54 -28
-90 -42 -149 -49 -205 -10 -78 -40 -114 -100 -116 -25 -1 -56 -9 -69 -18 -24
-15 -25 -19 -25 -140 0 -68 -5 -143 -11 -167 -17 -63 -103 -239 -134 -273 -51
-57 -23 -101 58 -94 81 7 191 67 292 159 72 67 104 90 104 77 0 -10 -32 -170
-40 -198 -5 -20 -12 -91 -14 -159 -3 -68 -7 -125 -9 -127 -2 -2 -36 12 -76 31
-39 19 -75 35 -79 35 -4 0 -31 16 -60 35 -29 19 -73 41 -98 50 -41 14 -51 14
-100 -1 -66 -19 -74 -44 -15 -44 55 0 83 -12 150 -67 32 -27 98 -73 147 -103
48 -30 109 -69 135 -87 72 -49 80 -47 95 16 6 30 12 121 12 202 0 81 3 152 5
157 8 12 47 206 47 234 0 13 9 39 19 59 15 27 19 56 19 118 0 129 -2 129 -219
-70 -80 -74 -159 -139 -176 -145 -35 -13 -35 -17 -2 61 30 73 38 100 44 142 9
67 35 155 53 176 8 9 25 17 37 17 26 0 38 13 53 59 7 18 24 45 38 58 23 22 26
30 21 71 -4 26 -2 65 3 87 5 22 13 58 18 80 12 50 76 213 102 260 12 21 20 54
20 80 0 40 -3 45 -22 45 -13 0 -41 -9 -64 -20z"/>
<path d="M1380 1873 c-43 -16 -47 -29 -42 -140 6 -127 8 -624 3 -768 -2 -55
-9 -151 -17 -213 -18 -147 -18 -341 1 -500 8 -70 16 -145 17 -166 2 -22 8 -41
14 -43 15 -5 45 104 43 154 -3 65 11 393 21 503 18 203 41 667 39 810 -3 165
7 264 27 281 20 17 18 24 -18 51 -38 29 -66 39 -88 31z"/>
</g>
</svg>
