<?xml version="1.0" standalone="no"?>
<!DOCTYPE svg PUBLIC "-//W3C//DTD SVG 20010904//EN"
 "http://www.w3.org/TR/2001/REC-SVG-20010904/DTD/svg10.dtd">
<svg version="1.0" xmlns="http://www.w3.org/2000/svg"
 width="208.000000pt" height="205.000000pt" viewBox="0 0 208.000000 205.000000"
 preserveAspectRatio="xMidYMid meet">
<metadata>
Created by potrace 1.16, written by Peter Selinger 2001-2019
</metadata>
<g transform="translate(0.000000,205.000000) scale(0.100000,-0.100000)"
fill="#000000" stroke="none">
<path d="M889 2032 c-14 -9 -44 -36 -68 -58 -23 -23 -52 -46 -64 -52 -12 -5
-43 -20 -70 -32 -104 -48 -138 -120 -74 -157 32 -19 34 -19 67 -2 19 10 35 17
36 16 6 -5 -36 -155 -51 -183 -8 -16 -17 -48 -21 -72 -6 -40 -8 -43 -33 -38
-21 4 -37 -5 -89 -52 l-62 -58 -10 -90 c-16 -156 -31 -235 -60 -323 l-29 -86
25 -25 c22 -22 33 -25 97 -25 65 0 79 4 142 39 39 21 77 45 86 52 56 49 75
-34 35 -156 -29 -90 -46 -183 -46 -251 0 -65 -16 -81 -76 -81 -125 1 -284 19
-301 34 -10 9 -28 19 -40 22 -18 6 -24 2 -29 -18 -14 -56 18 -79 136 -101 173
-31 197 -35 227 -35 17 0 50 -7 73 -15 96 -34 112 -16 116 125 6 183 25 213
42 64 9 -77 16 -104 38 -135 27 -40 34 -44 95 -54 24 -5 40 -2 50 7 8 8 39 31
71 51 58 39 84 68 152 172 64 97 82 116 95 101 15 -18 126 -86 140 -86 6 0 11
-3 11 -7 0 -5 21 -17 48 -28 50 -21 126 -25 143 -8 13 13 -9 92 -25 94 -6 1
-29 2 -52 3 -28 2 -59 15 -107 45 -88 58 -100 76 -91 150 8 74 -7 88 -47 43
-16 -18 -33 -32 -39 -32 -12 0 -69 61 -70 74 0 5 -17 32 -39 60 -52 70 -54 75
-40 92 17 21 -15 53 -63 60 -59 10 -44 49 33 83 19 9 43 24 52 33 10 9 41 25
69 36 101 38 226 102 232 118 9 24 -2 52 -24 59 -10 3 -21 14 -23 23 -4 14 -5
14 -6 1 0 -8 -20 -25 -43 -36 -51 -25 -139 -55 -145 -50 -4 5 44 103 62 127 6
8 20 38 30 65 10 28 23 57 30 65 7 8 16 25 20 38 3 12 24 34 46 48 27 16 39
31 39 47 0 41 -13 49 -66 42 -81 -12 -109 -30 -122 -78 -6 -23 -27 -105 -47
-182 -20 -77 -39 -154 -42 -172 -4 -27 -14 -36 -62 -60 -31 -15 -59 -29 -62
-31 -10 -4 0 297 10 333 5 17 9 46 10 65 1 19 9 42 17 51 17 19 11 59 -9 60
-7 0 -25 2 -41 4 -17 2 -44 -3 -61 -11 l-31 -14 -2 -253 c-1 -138 -6 -266 -10
-282 -6 -23 -22 -37 -63 -60 -90 -50 -142 -86 -185 -129 -50 -51 -99 -81 -165
-100 -65 -20 -66 -15 -40 113 12 55 21 112 21 128 0 44 20 105 33 100 7 -2 14
-17 17 -33 4 -23 10 -29 30 -29 20 0 26 7 37 44 7 24 19 51 28 61 8 9 18 32
21 51 4 19 16 44 27 57 18 19 19 26 9 43 -10 16 -8 28 11 72 14 28 28 68 32
87 14 64 120 265 168 318 13 15 17 32 15 68 -3 44 -6 49 -28 51 -14 1 -37 -6
-51 -15z m30 -1044 c-1 -33 -35 -148 -42 -142 -13 13 -7 90 9 122 16 32 34 43
33 20z m171 -90 c14 -18 46 -55 71 -83 52 -57 89 -108 89 -124 0 -13 -47 -81
-107 -155 -47 -58 -126 -124 -150 -125 -23 -2 -41 55 -48 143 -5 79 -2 103 30
234 47 192 40 176 67 158 13 -9 34 -30 48 -48z"/>
</g>
</svg>
