<?xml version="1.0" standalone="no"?>
<!DOCTYPE svg PUBLIC "-//W3C//DTD SVG 20010904//EN"
 "http://www.w3.org/TR/2001/REC-SVG-20010904/DTD/svg10.dtd">
<svg version="1.0" xmlns="http://www.w3.org/2000/svg"
 width="207.000000pt" height="209.000000pt" viewBox="0 0 207.000000 209.000000"
 preserveAspectRatio="xMidYMid meet">
<metadata>
Created by potrace 1.16, written by Peter Selinger 2001-2019
</metadata>
<g transform="translate(0.000000,209.000000) scale(0.100000,-0.100000)"
fill="#000000" stroke="none">
<path d="M1227 1925 c-101 -42 -157 -94 -157 -146 0 -33 4 -38 41 -55 40 -18
42 -18 55 1 8 10 14 27 14 36 0 18 44 59 63 59 6 0 18 6 26 14 9 8 31 17 50
21 34 7 34 7 28 -24 -12 -60 -99 -194 -171 -263 -39 -38 -74 -68 -78 -68 -20
0 -14 127 7 150 22 24 14 45 -27 70 -41 25 -66 25 -95 1 -30 -25 -29 -44 7
-187 41 -162 48 -181 67 -188 28 -11 38 24 33 109 l-2 30 26 -34 c22 -29 26
-45 26 -101 l0 -67 -52 -28 c-29 -15 -71 -47 -93 -71 -22 -23 -59 -50 -82 -59
-23 -9 -44 -24 -46 -33 -2 -10 5 -39 15 -66 11 -27 26 -88 34 -134 13 -76 13
-87 -1 -102 -22 -24 -18 -63 8 -88 30 -28 39 -27 112 8 33 16 63 25 67 22 6
-7 -12 -153 -31 -247 -11 -53 -53 -170 -79 -220 -8 -16 -31 -45 -49 -64 -42
-40 -40 -67 5 -97 l33 -23 43 29 c53 36 116 104 116 126 0 20 205 220 243 237
21 9 27 18 25 37 -3 21 -7 24 -33 21 -16 -1 -40 -12 -54 -22 -13 -10 -28 -19
-33 -19 -5 0 -37 -16 -70 -35 -33 -20 -62 -34 -65 -32 -2 3 2 31 10 63 8 33
20 91 27 129 17 99 18 102 43 109 22 7 107 124 107 148 0 7 12 26 26 42 24 25
27 37 29 115 3 105 36 212 100 323 51 88 59 142 26 170 -18 15 -21 15 -32 1
-13 -14 -155 -116 -196 -140 -26 -15 -34 -7 -27 24 4 14 0 33 -11 49 -18 28
-14 54 10 54 9 0 15 9 15 24 0 14 17 44 40 71 22 25 40 51 40 56 0 5 12 28 26
50 47 75 73 216 43 235 -6 4 -37 8 -68 9 -44 2 -72 -4 -134 -30z m123 -644 c0
-5 -9 -28 -19 -52 -11 -24 -26 -91 -34 -148 -15 -100 -32 -141 -56 -127 -16
10 -6 213 13 258 9 20 27 46 42 57 28 22 54 28 54 12z m-215 -221 c9 -86 -1
-164 -23 -183 -15 -12 -102 -50 -102 -44 0 1 -3 52 -6 113 l-5 112 28 10 c15
6 42 22 58 36 17 14 33 25 36 26 4 0 10 -31 14 -70z"/>
<path d="M605 1923 c-20 -5 -143 -93 -188 -135 -13 -13 -47 -41 -75 -63 -62
-49 -79 -83 -62 -124 6 -17 25 -35 42 -42 26 -11 35 -10 64 6 18 10 37 27 40
39 10 30 66 97 78 93 9 -3 10 -109 1 -187 -1 -14 -3 -37 -4 -52 -1 -23 -8 -29
-43 -39 -24 -7 -71 -32 -106 -57 -67 -46 -92 -82 -75 -104 33 -42 21 -200 -27
-348 -35 -108 -37 -146 -11 -177 19 -23 55 -31 65 -14 3 4 26 14 51 21 30 8
67 32 108 68 34 30 64 59 65 64 23 57 31 -188 11 -341 -20 -159 -18 -153 -76
-166 -28 -7 -77 -10 -107 -7 -48 4 -60 9 -77 33 -26 37 -49 28 -49 -18 0 -48
44 -88 113 -103 83 -19 219 -23 238 -8 21 18 46 102 48 163 1 28 7 88 13 135
6 47 11 137 13 200 1 63 5 170 10 236 8 121 8 122 -15 129 -25 8 -61 -23 -110
-95 -39 -58 -154 -170 -174 -170 -14 0 -17 5 -13 23 13 48 37 165 48 237 7 41
21 87 32 101 16 23 17 30 7 50 -11 20 -10 25 16 47 16 13 44 30 62 38 17 8 32
20 33 27 2 52 10 91 24 109 8 13 15 34 15 48 0 31 27 161 39 192 27 66 34 185
13 193 -8 3 -14 4 -15 4 -1 -1 -11 -3 -22 -6z"/>
<path d="M1519 841 c-13 -9 -27 -20 -31 -26 -11 -15 -9 -140 2 -171 11 -27 13
-54 25 -269 8 -143 30 -293 50 -341 11 -26 20 -34 40 -34 34 0 45 31 34 95 -4
28 -15 187 -25 354 l-16 304 26 24 c34 31 33 51 -1 58 -16 3 -39 9 -54 14 -17
5 -33 3 -50 -8z"/>
</g>
</svg>
