<?xml version="1.0" standalone="no"?>
<!DOCTYPE svg PUBLIC "-//W3C//DTD SVG 20010904//EN"
 "http://www.w3.org/TR/2001/REC-SVG-20010904/DTD/svg10.dtd">
<svg version="1.0" xmlns="http://www.w3.org/2000/svg"
 width="209.000000pt" height="211.000000pt" viewBox="0 0 209.000000 211.000000"
 preserveAspectRatio="xMidYMid meet">
<metadata>
Created by potrace 1.16, written by Peter Selinger 2001-2019
</metadata>
<g transform="translate(0.000000,211.000000) scale(0.100000,-0.100000)"
fill="#000000" stroke="none">
<path d="M1175 2075 c-22 -19 -49 -38 -60 -41 -11 -4 -34 -17 -51 -29 -80 -61
-384 -205 -430 -205 -6 0 -17 -6 -23 -14 -10 -12 -45 -23 -137 -41 -12 -3 -29
-16 -38 -30 -14 -22 -15 -32 -6 -61 13 -38 32 -52 70 -49 27 2 244 107 271
131 8 8 22 14 31 14 8 0 26 8 39 19 13 10 42 24 64 32 22 7 49 21 61 31 11 10
24 18 28 18 20 0 76 34 76 46 0 8 7 14 16 14 8 0 32 11 52 25 44 30 55 19 50
-52 l-3 -47 -70 -38 c-156 -85 -192 -102 -230 -109 -47 -8 -174 -55 -192 -71
-16 -13 -17 -52 -3 -79 7 -13 21 -19 43 -19 46 0 326 115 342 140 10 17 83 60
101 60 13 0 14 -9 9 -52 -3 -29 -7 -106 -9 -171 -4 -107 -6 -121 -27 -143 -36
-38 -41 -13 -26 140 1 12 -9 26 -25 35 -24 14 -30 14 -63 -2 -25 -12 -37 -25
-41 -46 -7 -35 -26 -53 -74 -71 -19 -7 -46 -21 -60 -30 -14 -10 -35 -21 -47
-24 -13 -4 -23 -11 -23 -16 0 -8 -84 -70 -180 -134 -105 -70 -136 -108 -121
-149 18 -48 67 -49 117 -3 52 49 73 67 124 107 25 20 63 53 85 73 22 21 58 47
80 58 22 11 50 29 61 40 21 19 22 19 29 -9 3 -15 5 -129 4 -253 -4 -280 -3
-308 6 -452 l8 -118 -31 0 c-17 0 -46 6 -64 14 -18 7 -47 18 -65 24 -49 15
-182 103 -188 123 -4 11 2 27 14 41 28 30 26 46 -6 54 -63 14 -63 14 -63 53 0
22 -6 44 -15 51 -20 16 -81 5 -95 -18 -10 -17 -17 -12 -69 54 -8 9 -18 10 -63
5 -4 -1 -15 -15 -23 -32 -16 -30 -16 -32 17 -79 18 -26 50 -59 71 -72 46 -28
45 -32 -19 -166 -54 -111 -54 -136 -2 -140 31 -3 40 2 61 30 14 18 41 68 61
111 20 42 42 77 49 77 7 0 39 -24 72 -53 109 -96 190 -141 325 -180 81 -23
104 -27 116 -19 17 12 37 89 31 119 -3 16 -2 35 3 42 9 16 25 13 185 -39 120
-39 321 -84 341 -76 37 14 -8 58 -96 93 -36 13 -103 40 -150 58 -47 18 -99 39
-117 45 -51 19 -56 32 -27 71 14 19 32 49 41 66 8 18 28 45 43 60 50 50 129
183 136 229 10 70 0 94 -40 94 -39 0 -94 -25 -118 -54 -24 -29 -22 -36 7 -36
14 0 25 -4 25 -9 0 -10 -31 -72 -40 -81 -14 -13 -67 -88 -78 -110 -7 -14 -38
-52 -67 -84 -48 -51 -56 -56 -62 -40 -9 22 -8 358 0 419 15 99 20 117 36 122
52 16 71 27 71 40 0 8 12 30 27 49 24 33 27 48 39 192 8 86 16 213 20 282 6
121 18 180 49 240 8 16 15 31 15 35 0 3 -33 5 -72 5 -69 -1 -75 -3 -113 -35z
m-125 -1250 c0 -8 -4 -15 -10 -15 -5 0 -10 7 -10 15 0 8 5 15 10 15 6 0 10 -7
10 -15z"/>
</g>
</svg>
