<?xml version="1.0" standalone="no"?>
<!DOCTYPE svg PUBLIC "-//W3C//DTD SVG 20010904//EN"
 "http://www.w3.org/TR/2001/REC-SVG-20010904/DTD/svg10.dtd">
<svg version="1.0" xmlns="http://www.w3.org/2000/svg"
 width="206.000000pt" height="211.000000pt" viewBox="0 0 206.000000 211.000000"
 preserveAspectRatio="xMidYMid meet">
<metadata>
Created by potrace 1.16, written by Peter Selinger 2001-2019
</metadata>
<g transform="translate(0.000000,211.000000) scale(0.100000,-0.100000)"
fill="#000000" stroke="none">
<path d="M1591 1921 c-11 -11 -23 -33 -27 -48 -4 -16 -10 -32 -14 -38 -4 -5
-13 -28 -20 -50 -7 -22 -23 -58 -35 -80 -13 -22 -35 -77 -50 -123 -15 -45 -38
-99 -51 -118 -13 -19 -24 -37 -24 -40 0 -16 -91 -153 -120 -181 -148 -140
-149 -141 -143 -163 7 -28 47 -53 71 -46 11 4 33 22 50 40 38 42 152 118 184
122 42 6 53 7 77 6 22 -2 23 -5 18 -43 -3 -23 -15 -51 -26 -63 -12 -12 -21
-26 -21 -32 0 -5 -15 -28 -33 -51 -17 -23 -45 -63 -61 -88 l-28 -46 28 -41
c37 -53 36 -95 -4 -173 -47 -94 -230 -297 -307 -340 -11 -6 -47 -38 -80 -70
-33 -31 -93 -83 -135 -115 -41 -32 -84 -67 -94 -79 -19 -21 -19 -21 4 -21 13
0 42 16 66 35 23 19 53 40 66 45 41 19 69 37 96 63 15 13 42 32 59 41 59 29
107 66 197 149 49 45 102 92 119 104 32 24 87 103 113 161 8 20 20 45 26 56
16 30 12 139 -6 174 -9 17 -16 36 -16 41 0 13 56 107 87 144 41 50 64 175 37
198 -26 21 -85 39 -131 39 -24 0 -43 2 -43 4 0 2 22 46 50 98 27 52 57 114 65
139 21 60 74 169 96 198 10 12 21 38 25 57 4 23 20 46 45 68 59 50 49 70 -38
81 -43 6 -54 4 -72 -14z"/>
<path d="M871 1783 c-14 -3 -39 -15 -55 -27 -17 -12 -60 -35 -96 -51 -36 -16
-83 -44 -105 -61 -44 -34 -127 -90 -222 -150 -34 -21 -62 -44 -63 -51 0 -6
-10 -20 -23 -30 -37 -29 -40 -50 -9 -82 15 -16 37 -32 50 -36 23 -7 31 0 105
83 16 18 32 32 36 32 11 0 21 -103 21 -205 0 -93 -4 -100 -100 -150 -30 -15
-76 -43 -101 -62 -26 -18 -50 -33 -53 -33 -14 0 -76 -68 -76 -83 0 -16 58 -70
69 -64 3 1 26 13 51 25 25 12 67 38 94 57 26 19 53 35 58 35 7 0 8 -23 3 -67
-4 -38 -9 -90 -10 -118 0 -27 -5 -109 -10 -181 -9 -157 -3 -177 53 -172 33 3
38 7 50 42 10 31 10 46 1 68 -6 16 -9 46 -5 70 3 24 10 101 16 172 10 128 21
188 42 236 30 68 43 89 67 103 14 9 41 30 59 48 18 17 35 29 38 26 9 -8 23
-180 27 -322 4 -126 1 -178 -20 -363 -3 -30 0 -79 7 -113 14 -63 32 -83 72
-77 38 5 45 77 45 452 0 189 2 347 5 352 3 5 -1 65 -8 134 -8 69 -13 132 -12
140 0 8 1 68 2 134 1 112 0 119 -21 136 -13 10 -23 23 -23 28 0 6 25 23 55 37
59 29 68 50 37 78 -10 10 -20 16 -23 16 -2 -1 -15 -4 -28 -6z m-105 -180 c-3
-10 -8 -85 -11 -167 l-5 -149 -37 -33 c-45 -39 -81 -60 -89 -52 -3 4 -6 47 -7
97 -1 75 2 93 18 110 10 12 26 21 35 21 9 0 25 9 36 21 18 20 18 21 -1 35 -10
8 -36 14 -57 14 -21 0 -38 2 -38 5 0 15 73 72 130 102 32 16 32 16 26 -4z"/>
</g>
</svg>
