<?xml version="1.0" standalone="no"?>
<!DOCTYPE svg PUBLIC "-//W3C//DTD SVG 20010904//EN"
 "http://www.w3.org/TR/2001/REC-SVG-20010904/DTD/svg10.dtd">
<svg version="1.0" xmlns="http://www.w3.org/2000/svg"
 width="206.000000pt" height="211.000000pt" viewBox="0 0 206.000000 211.000000"
 preserveAspectRatio="xMidYMid meet">
<metadata>
Created by potrace 1.16, written by Peter Selinger 2001-2019
</metadata>
<g transform="translate(0.000000,211.000000) scale(0.100000,-0.100000)"
fill="#000000" stroke="none">
<path d="M1458 1914 c-22 -11 -28 -22 -28 -49 0 -45 -52 -177 -87 -223 -24
-32 -62 -86 -125 -181 -10 -14 -35 -44 -56 -66 -39 -40 -62 -75 -62 -94 0 -16
42 -51 62 -51 10 0 35 15 55 33 43 37 132 77 173 77 55 0 75 -55 42 -117 -21
-40 -102 -160 -154 -229 -40 -53 -45 -72 -28 -105 11 -20 50 -25 79 -10 9 5
35 7 58 4 41 -5 63 -30 63 -71 0 -30 -63 -149 -110 -208 -14 -18 -36 -47 -50
-65 -24 -31 -43 -52 -157 -172 -29 -30 -53 -60 -53 -66 0 -18 38 -13 52 8 7
10 28 27 46 38 18 11 68 54 110 96 155 152 203 212 243 301 42 97 9 195 -78
232 -37 16 -42 38 -14 68 11 12 37 55 59 97 50 94 63 173 36 213 -23 37 -85
67 -141 69 -53 2 -62 15 -34 48 100 118 141 200 166 329 13 65 11 89 -9 102
-16 11 -27 9 -58 -8z"/>
<path d="M795 1801 c-28 -15 -59 -30 -70 -34 -39 -12 -166 -85 -196 -112 -17
-15 -46 -33 -64 -41 -19 -7 -36 -18 -40 -24 -4 -6 -22 -17 -41 -25 -63 -26
-42 -110 30 -117 36 -3 34 13 21 -241 l-8 -149 -51 -34 c-28 -19 -54 -34 -58
-34 -6 0 -59 -34 -198 -127 -49 -33 -95 -75 -102 -94 -8 -20 26 -54 60 -62 18
-4 43 9 110 61 85 66 204 143 210 137 2 -2 -1 -43 -7 -92 -6 -48 -11 -113 -11
-143 0 -30 -7 -84 -14 -120 -8 -36 -17 -113 -21 -172 -7 -103 -7 -106 15 -118
12 -6 33 -9 46 -6 34 9 38 31 75 421 11 117 46 299 65 336 26 52 159 133 176
107 10 -15 0 -289 -13 -368 -5 -30 -13 -83 -19 -116 -5 -34 -15 -75 -21 -90
-40 -102 -60 -165 -65 -206 -6 -44 -5 -47 19 -53 46 -12 69 16 110 133 60 168
95 373 98 567 1 152 18 216 67 260 36 33 36 34 17 55 -11 12 -25 18 -36 15
-15 -5 -18 1 -17 42 1 87 -8 218 -15 229 -14 24 -59 23 -84 -2 -20 -20 -23
-32 -23 -106 0 -46 -3 -112 -6 -148 -6 -64 -7 -66 -53 -98 -26 -17 -52 -32
-58 -32 -5 0 -18 -9 -28 -20 -10 -11 -27 -20 -38 -20 -19 0 -20 5 -13 101 3
57 13 113 21 129 8 16 15 37 15 47 0 10 10 23 22 28 29 13 33 37 14 76 -15 30
-12 59 5 59 5 0 32 16 59 35 27 19 53 35 58 35 5 0 21 14 37 30 16 17 33 30
38 30 5 0 22 11 39 25 16 14 36 25 44 25 8 0 14 10 14 25 0 22 -4 25 -32 24
-18 0 -56 -13 -83 -28z"/>
</g>
</svg>
