<?xml version="1.0" standalone="no"?>
<!DOCTYPE svg PUBLIC "-//W3C//DTD SVG 20010904//EN"
 "http://www.w3.org/TR/2001/REC-SVG-20010904/DTD/svg10.dtd">
<svg version="1.0" xmlns="http://www.w3.org/2000/svg"
 width="209.000000pt" height="211.000000pt" viewBox="0 0 209.000000 211.000000"
 preserveAspectRatio="xMidYMid meet">
<metadata>
Created by potrace 1.16, written by Peter Selinger 2001-2019
</metadata>
<g transform="translate(0.000000,211.000000) scale(0.100000,-0.100000)"
fill="#000000" stroke="none">
<path d="M655 2097 c-11 -7 -42 -30 -70 -53 -27 -22 -82 -61 -121 -86 -40 -25
-75 -51 -79 -57 -3 -6 -34 -25 -68 -42 -82 -42 -149 -93 -226 -173 -57 -61
-63 -70 -57 -99 4 -17 11 -36 16 -41 16 -16 83 -8 112 14 27 20 27 20 38 0 6
-11 15 -20 21 -20 6 0 29 -8 52 -19 23 -10 63 -21 88 -24 41 -6 49 -3 73 22
16 17 26 37 24 48 -3 15 -11 17 -49 15 -56 -4 -82 17 -56 46 8 9 18 34 22 55
6 32 5 37 -11 37 -10 0 -27 -9 -38 -19 -25 -23 -57 -30 -63 -15 -2 7 27 33 66
58 38 26 71 50 73 54 2 4 42 33 90 65 48 32 95 68 105 80 10 12 32 31 48 41
17 10 43 34 58 52 16 19 33 34 38 34 11 0 39 25 39 34 0 11 -105 5 -125 -7z"/>
<path d="M1364 2063 c-55 -150 -142 -289 -230 -368 -12 -11 -43 -51 -69 -90
-25 -38 -64 -86 -86 -106 -50 -46 -51 -74 -3 -96 29 -14 38 -15 56 -4 26 16
47 21 133 28 105 8 155 -23 155 -96 0 -24 -16 -45 -90 -118 -50 -48 -108 -103
-129 -121 -96 -81 -20 -162 94 -100 70 37 161 51 176 26 21 -33 7 -151 -34
-278 -17 -51 -71 -165 -90 -189 -7 -9 -21 -32 -31 -51 -11 -19 -36 -55 -56
-80 -20 -25 -47 -61 -58 -81 -12 -20 -45 -58 -74 -85 -29 -28 -72 -70 -96 -95
-23 -24 -53 -53 -65 -64 l-22 -20 22 -3 c24 -3 143 72 216 135 20 18 41 33 45
33 4 0 21 20 36 45 16 25 33 45 38 45 17 0 118 126 118 147 0 4 11 18 24 32
28 31 84 164 119 286 33 111 32 215 -2 282 -22 44 -27 47 -112 58 -40 5 -46 9
-42 25 3 11 9 20 14 20 15 0 58 83 69 135 13 60 8 84 -26 125 -34 40 -84 62
-158 69 -33 3 -61 11 -63 17 -2 5 11 31 29 58 18 26 38 55 43 64 6 10 35 43
66 73 30 31 63 72 72 91 9 20 23 41 32 48 8 7 15 21 15 31 0 10 4 20 10 24 5
3 24 36 41 73 18 37 41 79 52 95 l18 27 -69 0 -70 0 -18 -47z"/>
<path d="M703 1951 c-14 -12 -28 -43 -39 -87 -9 -38 -39 -115 -67 -171 -40
-82 -48 -105 -38 -117 12 -14 21 -6 130 114 13 14 40 62 62 107 37 79 46 122
33 157 -8 22 -54 20 -81 -3z"/>
<path d="M431 1487 c-14 -17 -8 -137 9 -205 8 -30 5 -36 -23 -63 -18 -16 -52
-38 -77 -50 -25 -11 -54 -26 -65 -32 -11 -6 -47 -25 -80 -43 -33 -17 -89 -47
-125 -66 l-65 -35 -3 -61 -3 -62 71 34 c39 19 83 43 98 53 15 9 43 25 63 34
20 9 40 22 43 28 4 6 14 11 21 11 8 0 46 20 85 45 l70 45 0 -48 c0 -43 -5 -52
-60 -112 -32 -36 -73 -81 -89 -100 -34 -38 -161 -234 -189 -290 -9 -19 -36
-55 -60 -80 -51 -54 -55 -93 -9 -97 15 -1 27 2 27 7 0 5 23 33 51 62 76 78
148 166 169 207 10 20 27 43 37 53 10 9 33 37 52 62 18 25 38 46 44 46 7 0 8
-33 3 -97 -4 -54 -9 -145 -12 -203 -4 -70 -10 -110 -20 -121 -16 -18 -18 -62
-4 -90 11 -19 43 -25 74 -13 26 10 44 97 57 277 7 92 15 169 18 172 4 2 26
-11 51 -28 61 -42 193 -89 263 -95 46 -3 65 0 94 18 20 11 42 19 49 16 8 -3
14 1 14 10 0 8 7 28 15 45 15 28 15 30 -10 41 -18 8 -29 9 -33 1 -14 -22 -58
-36 -110 -36 -43 0 -69 8 -119 34 -35 19 -77 46 -94 61 -17 16 -34 28 -39 28
-4 0 -13 14 -19 30 -7 20 -17 30 -30 30 -16 0 -21 6 -21 29 0 16 7 42 15 57
18 36 19 50 2 57 -11 4 -12 19 -4 74 11 78 13 82 74 122 25 17 75 57 111 90
37 32 79 70 94 83 15 12 28 32 30 43 4 29 -32 22 -91 -17 -27 -18 -63 -42 -82
-53 -47 -28 -60 -37 -96 -62 -17 -13 -36 -23 -42 -23 -18 0 -14 101 6 122 16
18 16 20 -3 39 -27 27 -115 37 -133 16z"/>
<path d="M748 613 c7 -3 16 -2 19 1 4 3 -2 6 -13 5 -11 0 -14 -3 -6 -6z"/>
</g>
</svg>
