<?xml version="1.0" standalone="no"?>
<!DOCTYPE svg PUBLIC "-//W3C//DTD SVG 20010904//EN"
 "http://www.w3.org/TR/2001/REC-SVG-20010904/DTD/svg10.dtd">
<svg version="1.0" xmlns="http://www.w3.org/2000/svg"
 width="205.000000pt" height="209.000000pt" viewBox="0 0 205.000000 209.000000"
 preserveAspectRatio="xMidYMid meet">
<metadata>
Created by potrace 1.16, written by Peter Selinger 2001-2019
</metadata>
<g transform="translate(0.000000,209.000000) scale(0.100000,-0.100000)"
fill="#000000" stroke="none">
<path d="M1109 1971 c-38 -8 -176 -91 -215 -130 -30 -30 -32 -81 -4 -106 26
-23 57 -11 97 40 15 20 45 46 67 57 l39 20 -7 -29 c-4 -15 -57 -128 -117 -249
-60 -122 -109 -228 -109 -235 0 -14 -127 -272 -165 -334 -14 -22 -29 -51 -35
-65 -48 -111 -80 -177 -125 -255 -18 -33 -43 -77 -55 -98 -11 -20 -21 -37 -23
-37 -1 0 -3 37 -5 83 -4 113 -43 226 -79 227 -27 0 -22 25 21 113 67 137 80
232 38 280 -8 9 -23 17 -34 17 -10 0 -18 2 -18 5 0 10 42 90 69 130 15 22 44
74 64 116 21 42 47 85 58 95 46 41 129 193 129 236 0 22 -7 32 -34 45 -32 15
-35 15 -64 -5 -16 -12 -34 -34 -40 -49 -16 -44 -21 -55 -57 -118 -19 -33 -54
-102 -79 -153 -25 -51 -59 -113 -76 -137 -31 -45 -74 -141 -84 -186 -3 -15
-38 -68 -77 -118 -39 -51 -88 -126 -110 -166 -34 -65 -38 -78 -27 -95 9 -15
20 -19 35 -15 50 12 73 26 90 52 10 15 20 30 24 33 18 14 59 85 59 102 0 25
57 98 76 98 8 0 14 -9 14 -20 0 -22 -40 -108 -71 -152 -11 -14 -19 -32 -19
-40 0 -8 -19 -40 -42 -71 -99 -133 -109 -149 -106 -175 4 -39 42 -42 73 -5 84
97 83 96 108 90 15 -4 30 -21 41 -46 34 -75 17 -306 -30 -410 -26 -58 -21 -81
13 -62 40 21 113 139 113 183 0 29 22 73 36 73 12 0 76 69 173 185 51 61 68
75 92 76 17 1 42 13 57 27 15 14 56 48 92 76 36 28 70 54 75 59 6 4 31 22 58
40 l47 33 0 -25 c0 -14 -4 -27 -8 -30 -4 -2 -9 -32 -10 -65 -1 -33 -9 -75 -16
-93 -13 -30 -17 -70 -32 -293 -11 -155 -21 -170 -149 -220 -78 -31 -135 -77
-135 -111 0 -13 12 -31 28 -42 24 -18 30 -19 54 -6 14 8 65 29 112 48 47 19
110 54 142 78 69 52 123 87 147 95 10 3 49 21 85 39 37 19 73 34 80 34 7 0 25
6 40 14 42 21 90 27 104 13 69 -62 138 -43 138 39 -1 60 -18 75 -89 78 -34 1
-64 -1 -67 -6 -3 -5 -14 -6 -23 -3 -23 7 -228 -60 -319 -105 -24 -12 -46 -19
-49 -17 -2 3 0 65 6 139 11 131 31 245 56 323 7 22 16 57 20 79 3 21 17 61 31
90 16 34 25 72 26 116 3 60 1 65 -19 68 -15 2 -49 -19 -108 -67 -47 -39 -96
-76 -108 -83 -12 -6 -53 -35 -91 -65 -77 -60 -102 -67 -92 -27 4 14 18 44 32
66 32 51 90 177 108 237 16 51 63 159 79 179 15 20 114 245 139 315 11 34 21
89 22 122 1 57 0 60 -24 62 -14 0 -41 -2 -61 -6z"/>
<path d="M1213 1613 c-35 -24 -31 -68 8 -88 17 -9 33 -14 36 -11 9 9 43 -14
43 -29 0 -16 27 -20 47 -7 6 4 14 19 18 34 8 32 -14 70 -60 98 -38 24 -62 25
-92 3z"/>
</g>
</svg>
