<?xml version="1.0" standalone="no"?>
<!DOCTYPE svg PUBLIC "-//W3C//DTD SVG 20010904//EN"
 "http://www.w3.org/TR/2001/REC-SVG-20010904/DTD/svg10.dtd">
<svg version="1.0" xmlns="http://www.w3.org/2000/svg"
 width="206.000000pt" height="207.000000pt" viewBox="0 0 206.000000 207.000000"
 preserveAspectRatio="xMidYMid meet">
<metadata>
Created by potrace 1.16, written by Peter Selinger 2001-2019
</metadata>
<g transform="translate(0.000000,207.000000) scale(0.100000,-0.100000)"
fill="#000000" stroke="none">
<path d="M1122 2030 c-51 -8 -62 -21 -62 -72 0 -28 -5 -40 -22 -49 -13 -6 -32
-19 -43 -29 -11 -10 -38 -24 -60 -31 -42 -15 -125 -89 -125 -112 0 -7 11 -24
25 -37 21 -20 28 -22 47 -11 46 24 95 57 119 79 32 31 38 8 10 -45 -10 -22
-23 -57 -27 -78 -9 -51 -36 -105 -82 -166 -21 -26 -53 -71 -72 -99 -66 -98
-85 -115 -111 -104 -50 23 -109 -31 -82 -75 5 -9 32 -28 59 -43 27 -14 59 -36
71 -49 22 -23 43 -95 43 -151 0 -23 4 -29 15 -24 28 10 14 -9 -35 -49 -59 -47
-66 -64 -46 -103 22 -43 59 -46 122 -11 61 35 68 30 59 -44 -8 -67 -14 -87
-25 -87 -5 0 -25 -11 -44 -24 -20 -13 -65 -29 -102 -36 -78 -13 -119 -32 -134
-60 -14 -27 -4 -57 21 -65 10 -4 24 -15 29 -26 16 -28 111 -27 152 2 16 12 32
18 35 15 4 -3 -9 -51 -28 -106 l-34 -100 27 -26 c21 -21 35 -26 70 -26 25 1
55 5 69 10 13 5 67 15 119 21 100 13 183 32 265 61 28 10 63 21 78 24 48 11
154 64 154 78 0 7 4 47 8 89 16 167 -8 209 -146 254 -52 17 -155 84 -172 112
-12 19 -51 16 -78 -6 -23 -18 -23 -19 -6 -63 17 -43 47 -68 81 -68 8 0 19 -7
26 -15 17 -20 77 -30 106 -17 20 10 28 8 51 -12 27 -23 28 -28 28 -114 0 -50
-3 -93 -6 -97 -10 -10 -137 -55 -224 -80 -79 -23 -292 -51 -303 -41 -3 3 7 52
21 108 14 57 35 159 47 227 22 127 54 210 93 242 19 16 19 16 1 45 -11 15 -14
25 -8 21 7 -4 14 -1 17 7 3 7 30 28 61 45 30 18 65 44 78 59 13 15 40 37 61
49 l37 22 0 -32 c0 -18 -7 -57 -15 -87 -20 -73 -20 -130 0 -130 14 0 65 94 65
120 0 16 19 78 31 102 5 10 9 27 9 38 0 11 4 28 10 38 9 17 37 169 68 369 9
61 20 115 25 119 4 4 7 17 8 28 0 12 8 45 18 74 9 30 15 67 13 83 -4 25 -9 29
-37 29 -26 0 -41 -9 -71 -43 -22 -23 -51 -50 -65 -59 -14 -9 -34 -25 -44 -35
-34 -34 -270 -194 -327 -221 -16 -7 -7 21 14 51 52 73 95 164 115 242 12 43
25 69 49 92 38 36 44 62 14 70 -11 3 -20 14 -20 24 0 21 -12 22 -88 9z m308
-375 c0 -19 -10 -92 -21 -162 -12 -71 -27 -161 -33 -201 l-11 -73 -58 -26
c-31 -14 -59 -24 -62 -21 -3 2 4 30 15 61 11 31 20 63 20 72 0 18 38 143 51
168 15 27 -5 45 -54 49 -22 2 -42 8 -44 14 -2 6 17 26 43 45 25 19 65 51 88
71 52 47 66 48 66 3z m-195 -135 c3 -5 -2 -26 -11 -47 -9 -21 -24 -67 -33
-102 -9 -36 -22 -66 -28 -69 -15 -4 -18 34 -3 43 6 3 10 13 10 21 0 11 -12 13
-59 10 -63 -4 -101 -19 -101 -40 0 -18 57 -88 83 -103 12 -7 30 -12 40 -13 33
0 18 -86 -22 -118 -24 -19 -203 -137 -229 -151 -29 -15 -37 -9 -23 16 24 44
30 85 21 135 -11 54 -17 66 -62 111 l-28 27 31 31 c23 22 34 28 42 20 6 -6 25
-11 42 -11 23 0 37 8 53 30 12 16 22 33 22 38 0 15 100 103 164 144 61 39 80
45 91 28z m-335 -964 c0 -29 -15 -41 -60 -51 l-35 -7 20 23 c25 30 58 58 68
59 4 0 7 -11 7 -24z"/>
<path d="M400 1847 c-17 -20 -45 -95 -65 -177 -45 -182 -87 -298 -158 -439
-33 -66 -56 -97 -110 -144 l-67 -61 0 -83 c0 -46 4 -83 9 -83 4 0 26 20 47 45
22 25 65 73 97 107 32 35 65 75 72 89 17 32 92 89 117 89 10 0 18 -3 18 -6 0
-17 -153 -298 -179 -329 -26 -31 -53 -99 -49 -126 2 -17 11 -25 33 -30 41 -8
60 4 86 51 13 22 28 39 33 37 23 -7 30 -98 18 -216 -10 -103 -20 -141 -64
-254 -6 -16 -22 -33 -35 -38 -24 -9 -24 -11 -10 -32 24 -37 45 -32 101 25 41
41 58 68 75 118 55 167 53 428 -4 516 -13 20 -6 37 71 190 63 126 85 180 86
212 1 23 -3 47 -9 53 -13 13 -88 -5 -100 -24 -10 -15 -59 -47 -73 -47 -17 0
-11 38 15 90 14 28 36 71 49 98 63 127 113 344 87 376 -17 20 -71 16 -91 -7z"/>
<path d="M1870 856 c0 -8 -7 -16 -15 -20 -50 -19 18 -112 110 -151 69 -29 85
-27 85 11 0 24 -107 151 -140 166 -25 11 -40 9 -40 -6z"/>
</g>
</svg>
