<?xml version="1.0" standalone="no"?>
<!DOCTYPE svg PUBLIC "-//W3C//DTD SVG 20010904//EN"
 "http://www.w3.org/TR/2001/REC-SVG-20010904/DTD/svg10.dtd">
<svg version="1.0" xmlns="http://www.w3.org/2000/svg"
 width="205.000000pt" height="207.000000pt" viewBox="0 0 205.000000 207.000000"
 preserveAspectRatio="xMidYMid meet">
<metadata>
Created by potrace 1.16, written by Peter Selinger 2001-2019
</metadata>
<g transform="translate(0.000000,207.000000) scale(0.100000,-0.100000)"
fill="#000000" stroke="none">
<path d="M1149 2042 c-14 -25 -144 -112 -167 -112 -23 0 -100 -64 -121 -100
l-23 -41 32 -29 c41 -38 56 -38 80 2 26 43 130 107 130 80 0 -37 -200 -389
-240 -422 -3 -3 -20 -28 -38 -57 -42 -65 -56 -76 -83 -68 -20 7 -21 12 -16 71
4 35 4 71 1 79 -9 22 -99 19 -153 -5 -63 -29 -75 -27 -56 8 9 15 29 45 45 67
16 22 39 58 51 80 12 22 27 43 33 47 20 11 106 184 106 212 0 13 -12 39 -26
56 -22 26 -32 30 -53 25 -38 -10 -51 -24 -51 -58 0 -17 -6 -38 -13 -46 -8 -9
-28 -50 -46 -91 -18 -41 -58 -114 -90 -162 -31 -47 -83 -129 -116 -182 -33
-52 -76 -118 -97 -146 -48 -65 -41 -98 24 -114 24 -5 32 1 73 50 56 69 115
115 189 148 88 39 87 31 -33 -187 -79 -144 -140 -237 -175 -266 -30 -25 -77
-103 -74 -124 2 -11 11 -25 20 -31 19 -12 79 17 135 65 67 57 95 7 101 -177
l4 -131 -36 -28 c-39 -30 -46 -58 -20 -86 25 -28 10 -75 -27 -83 -54 -10 -31
-76 27 -76 27 0 93 50 110 82 10 20 22 28 42 28 44 0 109 28 179 75 36 25 68
44 70 41 2 -2 -3 -23 -12 -47 -65 -175 -58 -187 120 -183 55 1 111 5 125 7 14
3 52 8 84 12 85 10 258 81 362 149 17 12 52 33 78 48 l46 28 -2 55 c-2 43 -6
56 -20 61 -10 3 -23 2 -30 -3 -7 -4 -82 -10 -167 -13 -97 -3 -156 -9 -158 -16
-5 -16 43 -35 121 -48 38 -7 71 -16 73 -22 4 -12 -136 -78 -222 -103 -136 -41
-299 -49 -311 -17 -3 7 2 39 11 71 8 32 22 115 30 184 9 69 22 146 29 171 8
25 17 57 20 71 3 14 24 44 46 66 46 47 48 56 19 76 -21 15 -21 15 -1 21 11 4
23 13 26 21 3 8 20 22 38 31 33 17 78 51 149 113 22 18 40 29 41 25 1 -5 2
-49 3 -99 0 -85 1 -90 22 -93 16 -2 25 3 32 20 17 44 29 93 36 138 11 74 43
241 59 305 8 33 20 105 26 160 7 55 25 138 40 185 33 97 38 137 24 163 -13 23
-54 15 -81 -15 -49 -54 -115 -116 -178 -166 -38 -31 -81 -67 -95 -80 -31 -30
-136 -112 -144 -112 -8 0 24 80 39 100 6 8 22 42 35 75 13 33 38 83 55 110 18
28 35 62 39 78 4 18 23 38 56 60 27 17 50 35 50 40 0 4 -44 7 -97 7 -97 0 -98
-1 -114 -28z m277 -334 c-4 -18 -11 -77 -16 -131 -5 -54 -12 -102 -15 -108 -4
-5 -14 -60 -24 -121 l-16 -111 -32 -2 c-17 -1 -44 -11 -60 -22 -31 -22 -92
-38 -74 -20 6 6 11 24 11 40 0 16 9 44 19 61 11 17 26 58 35 90 8 33 24 72 36
88 26 36 25 54 -5 74 -39 26 -73 11 -95 -41 -17 -40 -23 -45 -61 -51 -23 -4
-50 -15 -61 -26 -32 -32 -17 -153 23 -181 17 -13 19 -21 13 -71 -5 -45 -12
-60 -28 -67 -34 -15 -112 -61 -176 -104 -34 -22 -82 -53 -107 -70 -26 -16 -51
-37 -56 -46 -14 -23 13 -72 47 -84 24 -8 31 -6 46 12 9 12 29 25 44 29 24 6
26 4 26 -27 0 -51 -18 -198 -26 -210 -4 -8 -10 -7 -17 0 -16 16 -38 13 -61 -8
-12 -10 -43 -24 -71 -31 -27 -7 -63 -19 -78 -27 -16 -8 -30 -13 -32 -11 -2 2
-6 46 -10 98 -9 142 -36 222 -91 273 l-26 24 28 54 c15 30 47 84 71 120 24 36
43 71 43 78 0 6 5 11 10 11 14 0 12 -28 -2 -33 -7 -2 -9 -8 -5 -13 4 -4 17 -3
27 4 27 16 37 15 86 -9 30 -14 53 -36 73 -70 17 -27 35 -49 41 -49 10 0 40 52
40 71 0 6 -20 41 -43 78 -24 36 -47 71 -50 77 -4 6 10 30 29 53 30 35 41 41
74 41 29 0 42 5 50 19 11 21 141 130 192 161 27 16 89 70 217 188 19 17 42 32
49 32 11 0 13 -8 8 -32z m-583 -1206 c-54 -45 -213 -107 -213 -82 0 12 55 50
73 50 8 0 26 9 40 20 14 11 30 20 35 20 6 0 20 12 32 28 32 40 54 45 58 13 3
-18 -4 -32 -25 -49z"/>
<path d="M1933 843 c-4 -10 -20 -28 -35 -41 -37 -31 -35 -52 6 -89 37 -32 62
-99 52 -139 -6 -21 14 -54 32 -54 4 0 17 16 30 35 29 46 31 139 2 195 -11 22
-20 48 -20 59 0 13 -12 27 -30 36 -28 15 -31 14 -37 -2z"/>
<path d="M1108 744 c-47 -15 -58 -51 -29 -97 l22 -36 47 15 c82 25 106 32 144
38 48 9 65 36 38 61 -25 22 -174 35 -222 19z"/>
</g>
</svg>
