<?xml version="1.0" standalone="no"?>
<!DOCTYPE svg PUBLIC "-//W3C//DTD SVG 20010904//EN"
 "http://www.w3.org/TR/2001/REC-SVG-20010904/DTD/svg10.dtd">
<svg version="1.0" xmlns="http://www.w3.org/2000/svg"
 width="204.000000pt" height="205.000000pt" viewBox="0 0 204.000000 205.000000"
 preserveAspectRatio="xMidYMid meet">
<metadata>
Created by potrace 1.16, written by Peter Selinger 2001-2019
</metadata>
<g transform="translate(0.000000,205.000000) scale(0.100000,-0.100000)"
fill="#000000" stroke="none">
<path d="M570 1381 c-67 -19 -140 -289 -140 -515 0 -104 19 -160 53 -164 23
-3 26 1 31 40 3 24 7 87 10 141 3 53 10 125 16 160 11 60 33 107 46 94 14 -14
30 -181 28 -297 -1 -69 4 -169 11 -223 14 -111 26 -130 103 -168 26 -12 59
-28 74 -36 14 -7 36 -13 48 -13 12 0 30 -4 40 -10 30 -16 160 -18 245 -4 86
14 123 25 181 55 21 10 50 19 64 19 14 0 31 4 39 9 20 13 38 166 47 391 6 176
6 189 -16 258 -21 66 -39 87 -55 62 -3 -5 -8 -60 -10 -122 -3 -62 -10 -149
-15 -193 -5 -44 -12 -120 -15 -169 -4 -51 -12 -98 -21 -111 -8 -12 -41 -34
-73 -49 -118 -53 -264 -63 -371 -26 -90 31 -137 57 -150 79 -18 34 -24 219
-10 286 19 85 15 266 -6 308 -20 39 -31 47 -66 47 -35 0 -42 13 -18 35 24 22
26 72 4 103 -16 23 -30 25 -74 13z"/>
<path d="M1697 1329 c-10 -6 -29 -8 -43 -5 -13 4 -40 0 -59 -8 -47 -20 -47
-55 0 -104 33 -34 67 -80 128 -172 13 -19 32 -56 42 -82 33 -89 65 -89 65 0 0
73 -14 124 -45 160 -37 44 -49 80 -49 151 -1 67 -8 78 -39 60z"/>
<path d="M923 1135 c-20 -14 -22 -21 -16 -83 3 -37 11 -70 17 -74 6 -5 30 -5
52 -2 38 5 44 3 65 -25 15 -21 30 -31 44 -29 17 3 20 9 18 43 -2 22 -8 42 -13
43 -6 2 -19 21 -30 42 -46 91 -90 118 -137 85z"/>
</g>
</svg>
