<?xml version="1.0" standalone="no"?>
<!DOCTYPE svg PUBLIC "-//W3C//DTD SVG 20010904//EN"
 "http://www.w3.org/TR/2001/REC-SVG-20010904/DTD/svg10.dtd">
<svg version="1.0" xmlns="http://www.w3.org/2000/svg"
 width="208.000000pt" height="205.000000pt" viewBox="0 0 208.000000 205.000000"
 preserveAspectRatio="xMidYMid meet">
<metadata>
Created by potrace 1.16, written by Peter Selinger 2001-2019
</metadata>
<g transform="translate(0.000000,205.000000) scale(0.100000,-0.100000)"
fill="#000000" stroke="none">
<path d="M1548 1733 c-31 -8 -76 -89 -114 -205 -21 -62 -42 -119 -47 -126 -5
-7 -7 -15 -4 -18 3 -3 -14 -45 -39 -94 -24 -49 -59 -128 -78 -177 -38 -98
-141 -324 -177 -390 -12 -24 -28 -43 -33 -44 -6 0 -47 -3 -91 -6 -98 -7 -148
-7 -180 1 -24 6 -25 10 -25 79 0 90 51 481 71 543 14 44 3 64 -35 64 -49 0
-74 -23 -82 -78 -5 -26 -7 -51 -5 -57 4 -14 -18 -203 -29 -245 -5 -19 -11
-106 -15 -192 l-7 -158 30 -30 c28 -28 36 -30 109 -31 43 -1 102 -1 131 1 57
2 63 -5 34 -48 -31 -47 -78 -133 -130 -237 -8 -16 -23 -39 -33 -50 -19 -22
-89 -124 -89 -131 0 -2 -16 -25 -36 -51 -61 -80 -18 -62 69 30 123 127 283
336 305 396 3 9 18 32 33 51 40 52 93 63 289 58 116 -2 162 0 171 9 8 8 12 37
11 78 -2 53 -8 76 -34 123 -55 99 -84 127 -170 163 -28 11 -38 42 -18 54 6 3
10 13 10 22 0 9 30 77 66 152 37 75 81 178 99 230 19 51 43 103 54 115 11 11
25 44 32 71 6 28 16 58 21 68 7 13 5 26 -7 43 -15 24 -23 26 -57 17z m-196
-861 c12 -15 31 -48 42 -72 10 -25 23 -55 29 -67 6 -13 8 -25 5 -28 -10 -10
-238 -17 -238 -7 0 5 11 29 24 53 13 24 31 68 41 97 15 46 20 52 45 52 19 0
36 -9 52 -28z"/>
<path d="M979 1377 c-36 -28 -28 -58 34 -119 9 -10 17 -26 17 -37 0 -32 26
-46 55 -31 21 11 25 20 25 63 0 44 4 53 36 84 20 19 33 37 30 41 -13 13 -180
12 -197 -1z"/>
<path d="M1520 1270 c-13 -9 -12 -13 8 -29 12 -11 22 -23 22 -28 0 -15 83 -53
95 -43 6 5 38 1 77 -9 60 -16 70 -17 88 -4 47 33 -2 82 -113 111 -58 15 -90
15 -104 1 -8 -8 -17 -8 -31 0 -25 13 -23 13 -42 1z"/>
<path d="M540 1260 c-8 -4 -41 -13 -74 -19 -43 -8 -75 -23 -120 -55 -33 -25
-71 -52 -83 -61 -30 -21 -56 -79 -48 -104 3 -12 10 -21 14 -21 4 0 26 -17 47
-39 33 -32 49 -39 94 -45 83 -10 164 7 211 44 64 52 58 56 -56 36 -83 -14
-150 -7 -170 20 -8 10 -15 22 -15 25 0 12 83 89 156 145 41 30 74 59 74 64 0
14 -14 19 -30 10z"/>
</g>
</svg>
