<?xml version="1.0" standalone="no"?>
<!DOCTYPE svg PUBLIC "-//W3C//DTD SVG 20010904//EN"
 "http://www.w3.org/TR/2001/REC-SVG-20010904/DTD/svg10.dtd">
<svg version="1.0" xmlns="http://www.w3.org/2000/svg"
 width="205.000000pt" height="204.000000pt" viewBox="0 0 205.000000 204.000000"
 preserveAspectRatio="xMidYMid meet">
<metadata>
Created by potrace 1.16, written by Peter Selinger 2001-2019
</metadata>
<g transform="translate(0.000000,204.000000) scale(0.100000,-0.100000)"
fill="#000000" stroke="none">
<path d="M885 1910 c-13 -15 -21 -44 -27 -98 -6 -73 -9 -78 -44 -107 -20 -16
-68 -46 -105 -67 -98 -52 -208 -135 -219 -164 -15 -39 -12 -53 16 -81 24 -24
30 -25 92 -19 78 8 100 24 108 78 5 30 15 45 48 68 22 16 47 34 54 40 9 8 12
2 13 -27 5 -144 -16 -302 -41 -311 -8 -3 -35 -18 -59 -34 -25 -15 -51 -28 -58
-28 -7 0 -31 -11 -53 -25 -32 -20 -40 -31 -40 -55 0 -19 7 -33 19 -40 37 -20
62 -13 166 44 28 15 31 15 42 -1 11 -14 16 -15 38 -3 14 7 30 28 36 45 7 17
26 41 43 53 17 12 71 59 119 105 64 61 86 88 81 100 -13 36 -77 16 -153 -47
-53 -45 -65 -46 -57 -4 3 17 11 83 16 145 7 77 17 127 30 152 20 40 73 91 93
91 7 0 48 11 91 25 43 14 93 25 110 25 39 0 56 15 56 50 0 56 -42 63 -166 26
-43 -13 -96 -26 -116 -30 -33 -6 -38 -4 -38 12 0 11 7 25 16 32 8 8 14 25 12
39 -3 24 -8 26 -54 29 -41 2 -54 -1 -69 -18z"/>
<path d="M733 950 c-23 -3 -48 -11 -56 -18 -18 -15 -34 -69 -47 -162 -11 -85
-29 -146 -112 -382 -32 -92 -58 -176 -58 -187 0 -40 37 -52 151 -47 57 3 124
7 149 10 25 4 92 6 150 6 133 0 395 50 500 96 92 41 139 70 144 89 6 25 -2 98
-12 107 -4 3 -29 8 -57 11 -27 2 -98 21 -158 41 -59 20 -110 36 -113 36 -3 0
-4 -10 -2 -22 2 -16 28 -40 81 -75 43 -28 83 -54 90 -56 20 -8 -24 -35 -68
-43 -21 -3 -57 -14 -80 -24 -22 -9 -83 -22 -135 -29 -101 -13 -490 -32 -502
-25 -8 5 8 64 38 137 13 31 31 83 40 115 36 131 52 200 59 245 4 27 19 64 36
87 49 67 35 101 -38 90z m-83 -383 c0 -14 -20 -37 -32 -37 -12 0 -10 24 4 38
16 16 28 15 28 -1z"/>
<path d="M922 820 c-44 -10 -54 -22 -50 -55 3 -30 8 -34 83 -65 28 -11 55 -30
60 -42 25 -54 77 -47 83 10 2 24 -5 40 -33 70 -23 26 -34 48 -33 63 3 21 -1
24 -37 26 -22 1 -55 -2 -73 -7z"/>
<path d="M1441 775 c-10 -39 -9 -50 8 -84 24 -47 46 -61 143 -95 93 -32 156
-34 189 -6 l24 20 -24 20 c-13 11 -46 27 -75 35 -82 25 -149 66 -165 102 -12
28 -51 53 -81 53 -4 0 -13 -20 -19 -45z"/>
<path d="M450 734 c-19 -7 -47 -13 -61 -13 -54 -2 -139 -49 -139 -77 0 -28 66
-116 108 -144 34 -22 57 -30 91 -30 63 0 89 9 97 32 8 27 2 30 -53 33 -37 1
-51 7 -66 27 -24 33 -16 62 23 78 34 14 75 73 66 95 -6 18 -18 17 -66 -1z"/>
</g>
</svg>
