<?xml version="1.0" standalone="no"?>
<!DOCTYPE svg PUBLIC "-//W3C//DTD SVG 20010904//EN"
 "http://www.w3.org/TR/2001/REC-SVG-20010904/DTD/svg10.dtd">
<svg version="1.0" xmlns="http://www.w3.org/2000/svg"
 width="209.000000pt" height="204.000000pt" viewBox="0 0 209.000000 204.000000"
 preserveAspectRatio="xMidYMid meet">
<metadata>
Created by potrace 1.16, written by Peter Selinger 2001-2019
</metadata>
<g transform="translate(0.000000,204.000000) scale(0.100000,-0.100000)"
fill="#000000" stroke="none">
<path d="M1112 1948 c-21 -153 -47 -211 -102 -223 -15 -3 -58 -23 -95 -43
-112 -62 -189 -101 -201 -101 -17 -1 -45 -77 -37 -98 4 -10 18 -32 32 -50 23
-29 33 -33 92 -39 l67 -6 -11 -27 c-6 -14 -14 -28 -17 -31 -3 -3 -25 -34 -49
-70 -25 -36 -63 -85 -85 -110 -23 -26 -54 -68 -71 -94 -59 -96 -70 -113 -101
-152 -17 -21 -59 -82 -93 -134 -63 -94 -73 -108 -120 -156 -38 -38 -14 -51 42
-22 40 20 157 139 157 158 0 4 27 35 61 69 33 34 67 76 74 94 13 30 29 52 156
203 28 34 56 72 63 85 22 40 83 139 96 154 16 19 30 19 30 1 0 -26 58 -63 140
-90 105 -34 130 -34 130 -2 0 42 -10 54 -68 83 -31 15 -63 40 -71 55 -17 30
-47 36 -83 17 -43 -23 -42 6 1 94 47 94 123 186 176 211 19 9 45 28 58 40 12
13 45 37 73 52 54 31 97 74 108 111 5 17 1 26 -20 39 -24 16 -27 17 -35 1 -6
-9 -40 -35 -77 -57 -37 -22 -79 -50 -94 -62 -15 -12 -30 -19 -34 -16 -9 10 37
152 57 174 10 11 19 23 19 27 0 4 -35 7 -78 7 l-78 0 -12 -92z m-179 -428 c-5
-19 -23 -29 -23 -12 0 7 20 32 26 32 1 0 0 -9 -3 -20z"/>
<path d="M934 1120 c-46 -20 -58 -39 -44 -74 14 -37 40 -47 81 -33 19 7 39 15
44 19 6 3 27 9 47 13 71 13 76 61 8 83 -53 16 -87 14 -136 -8z"/>
<path d="M785 837 l-50 -32 3 -100 c4 -128 -4 -146 -78 -179 -70 -32 -74 -32
-92 -4 -13 20 -18 21 -39 11 -13 -7 -39 -15 -57 -18 -18 -4 -67 -22 -108 -41
-67 -31 -74 -37 -74 -64 0 -22 7 -32 32 -44 35 -18 74 -21 83 -6 3 6 17 10 30
10 22 0 77 20 115 41 58 32 154 79 157 75 2 -2 -8 -35 -22 -75 -26 -72 -26
-99 0 -121 10 -8 92 -12 287 -11 150 0 282 2 294 5 20 4 47 11 147 38 57 15
68 31 64 91 -2 36 -9 49 -43 80 -23 20 -46 37 -51 37 -6 0 -18 10 -29 21 -21
24 -83 54 -92 45 -3 -3 0 -16 7 -28 7 -13 19 -36 28 -53 8 -16 24 -40 35 -52
26 -28 19 -37 -41 -57 -40 -13 -94 -16 -265 -16 -122 0 -217 4 -221 9 -3 5 4
52 16 103 22 98 26 127 33 220 2 32 12 68 20 80 20 28 20 33 0 52 -22 22 -33
20 -89 -17z"/>
<path d="M980 847 c-40 -21 -46 -41 -25 -82 19 -33 74 -86 118 -111 10 -6 24
-21 30 -35 18 -36 54 -37 68 -2 15 39 5 74 -36 134 -19 28 -35 55 -35 59 0 4
-6 10 -12 13 -7 3 -29 12 -49 20 -28 13 -40 13 -59 4z"/>
<path d="M1547 742 c-26 -29 -21 -79 9 -107 15 -14 37 -25 50 -25 13 0 32 -10
44 -22 14 -15 34 -23 68 -25 60 -3 72 5 79 54 l5 40 -75 28 c-42 15 -86 38
-98 51 -27 29 -60 31 -82 6z"/>
</g>
</svg>
