<?xml version="1.0" standalone="no"?>
<!DOCTYPE svg PUBLIC "-//W3C//DTD SVG 20010904//EN"
 "http://www.w3.org/TR/2001/REC-SVG-20010904/DTD/svg10.dtd">
<svg version="1.0" xmlns="http://www.w3.org/2000/svg"
 width="204.000000pt" height="212.000000pt" viewBox="0 0 204.000000 212.000000"
 preserveAspectRatio="xMidYMid meet">
<metadata>
Created by potrace 1.16, written by Peter Selinger 2001-2019
</metadata>
<g transform="translate(0.000000,212.000000) scale(0.100000,-0.100000)"
fill="#000000" stroke="none">
<path d="M1205 2074 c-38 -26 -95 -57 -125 -71 -30 -14 -80 -40 -111 -59 -31
-19 -70 -34 -85 -34 -38 0 -104 -45 -104 -70 0 -26 34 -60 61 -60 11 0 45 11
75 25 30 14 59 25 65 25 6 0 29 16 52 35 22 19 45 35 51 35 15 0 127 59 151
80 29 24 123 80 136 80 8 0 9 -19 4 -62 -4 -35 -9 -220 -12 -413 -2 -192 -5
-370 -6 -394 -1 -24 3 -46 9 -48 6 -2 27 12 47 32 44 43 51 80 45 237 -9 228
16 605 44 660 4 9 5 24 2 32 -5 13 -25 16 -118 16 l-111 0 -70 -46z"/>
<path d="M586 1797 l-28 -23 22 -159 c12 -88 26 -227 31 -310 6 -95 14 -154
22 -161 6 -7 30 -22 51 -34 l39 -21 88 44 c79 39 88 42 92 25 5 -18 24 -23 42
-10 18 13 63 78 78 113 14 33 122 149 139 149 4 0 8 7 8 15 0 8 6 15 14 15 21
0 58 56 54 82 -5 38 -30 31 -112 -32 -43 -33 -82 -57 -87 -54 -16 10 -9 44 12
62 11 9 33 27 47 39 15 13 30 23 34 23 4 0 23 15 43 34 37 36 47 82 21 92 -16
6 -65 -17 -112 -52 -17 -13 -34 -24 -37 -24 -4 0 -7 18 -7 40 0 28 6 45 20 57
23 20 26 46 8 61 -23 18 -78 24 -109 12 l-29 -12 0 -100 c0 -95 -1 -101 -25
-120 -30 -23 -32 -41 -6 -65 13 -13 20 -38 23 -85 5 -60 3 -68 -17 -86 -32
-28 -60 -42 -84 -42 -11 0 -33 -11 -49 -25 -17 -14 -39 -25 -50 -25 -19 0 -19
5 -14 85 2 47 0 124 -7 173 -6 48 -11 107 -11 132 1 25 1 62 1 82 0 21 3 48 8
60 5 13 5 33 0 46 -12 31 -73 31 -113 -1z"/>
<path d="M790 1024 c-14 -8 -37 -19 -52 -24 -52 -18 -70 -75 -79 -255 -5 -88
-11 -188 -15 -221 -6 -62 -6 -62 -43 -68 -78 -13 -112 -8 -137 22 -28 32 -28
28 -9 82 11 32 12 46 4 56 -15 18 -34 18 -50 -2 -7 -9 -33 -25 -58 -37 -52
-24 -61 -33 -61 -64 0 -24 84 -103 136 -128 37 -18 103 -19 157 -4 22 6 41 8
44 5 3 -2 -2 -29 -11 -59 -24 -81 -21 -111 12 -133 15 -11 43 -19 62 -20 19 0
76 -4 125 -8 69 -5 121 -2 220 13 72 11 168 22 215 25 157 11 178 16 233 54
62 42 74 57 83 98 7 37 -40 147 -77 180 -61 54 -146 80 -156 48 -2 -6 16 -35
40 -63 62 -72 85 -117 71 -139 -16 -25 -91 -51 -149 -51 -27 -1 -88 -8 -135
-17 -104 -19 -116 -21 -266 -29 -106 -7 -124 -5 -148 10 -18 12 -25 23 -21 34
8 21 31 237 39 366 9 134 27 210 61 245 20 21 26 36 23 61 -3 38 -20 45 -58
23z"/>
<path d="M1064 872 c-12 -9 -36 -25 -53 -34 -40 -22 -41 -55 -2 -92 25 -24 40
-29 91 -32 50 -2 62 1 70 16 17 32 12 60 -15 72 -20 9 -25 18 -25 50 0 33 -3
38 -22 38 -13 -1 -33 -8 -44 -18z"/>
<path d="M1479 778 c-23 -38 -19 -83 9 -105 21 -17 155 -83 169 -83 20 0 43
38 43 71 0 32 -5 38 -52 63 -28 15 -65 41 -81 57 -37 38 -62 37 -88 -3z"/>
</g>
</svg>
