<?xml version="1.0" standalone="no"?>
<!DOCTYPE svg PUBLIC "-//W3C//DTD SVG 20010904//EN"
 "http://www.w3.org/TR/2001/REC-SVG-20010904/DTD/svg10.dtd">
<svg version="1.0" xmlns="http://www.w3.org/2000/svg"
 width="206.000000pt" height="212.000000pt" viewBox="0 0 206.000000 212.000000"
 preserveAspectRatio="xMidYMid meet">
<metadata>
Created by potrace 1.16, written by Peter Selinger 2001-2019
</metadata>
<g transform="translate(0.000000,212.000000) scale(0.100000,-0.100000)"
fill="#000000" stroke="none">
<path d="M1134 1716 c-29 -13 -56 -31 -60 -39 -14 -24 -92 -77 -136 -93 -21
-7 -51 -22 -66 -32 -15 -11 -38 -23 -51 -27 -44 -14 -112 -60 -129 -87 -13
-22 -14 -31 -4 -52 16 -36 75 -36 123 -1 19 14 81 54 140 89 58 35 116 74 130
87 14 13 54 48 88 78 44 39 61 61 59 75 -4 29 -34 29 -94 2z"/>
<path d="M1408 1595 c-15 -9 -36 -34 -46 -58 -37 -81 -263 -270 -443 -370 -41
-22 -69 -45 -74 -59 l-8 -23 -4 24 c-3 13 0 28 6 34 6 6 11 19 11 28 0 9 7 22
15 29 18 15 20 60 2 60 -7 0 -27 -15 -44 -34 -22 -22 -45 -35 -71 -40 -32 -5
-42 -12 -52 -36 -10 -25 -10 -36 4 -67 10 -21 21 -47 26 -58 21 -48 40 -175
40 -262 l0 -95 -107 6 c-60 3 -126 11 -148 17 -22 7 -59 12 -82 12 -39 0 -43
2 -43 25 0 14 7 34 16 43 14 15 15 23 5 47 -9 22 -8 42 4 97 34 147 36 172 33
290 -3 112 -5 126 -33 181 -38 74 -68 91 -120 70 -32 -14 -35 -18 -35 -57 0
-30 8 -55 27 -82 27 -39 28 -43 28 -191 0 -187 -10 -263 -47 -344 -15 -35 -28
-69 -28 -76 0 -16 -146 -305 -164 -325 -19 -21 -31 -71 -18 -71 24 0 62 20 62
33 0 7 12 24 26 38 14 13 41 50 61 82 19 32 37 56 39 54 3 -2 -2 -30 -11 -63
-8 -32 -15 -72 -15 -89 0 -16 -7 -64 -16 -105 -21 -95 -21 -208 0 -228 26 -26
64 -1 71 45 14 94 48 286 65 363 10 47 21 108 25 135 9 75 17 82 52 47 37 -37
102 -47 244 -39 96 6 97 6 103 -17 8 -31 68 -60 104 -51 24 6 128 68 142 85 3
3 19 14 35 25 17 10 53 40 80 65 68 63 115 94 125 84 5 -5 10 -53 11 -107 2
-69 6 -101 16 -109 34 -28 69 67 77 207 22 381 46 567 81 634 8 17 15 35 15
40 0 6 11 36 26 66 28 61 25 90 -9 99 -29 7 -27 8 -59 -9z m-123 -357 c-3 -40
-7 -127 -10 -193 -3 -66 -8 -139 -11 -162 -5 -40 -7 -43 -37 -43 -42 -1 -107
-31 -161 -75 -24 -19 -47 -35 -51 -35 -4 0 -34 -16 -67 -36 -85 -52 -90 -47
-83 83 4 76 1 131 -10 186 -21 107 -20 116 5 89 24 -25 68 -29 76 -7 4 8 10
15 16 15 22 0 227 151 283 209 21 23 42 41 47 41 4 0 5 -33 3 -72z"/>
<path d="M1120 1036 c-149 -66 -212 -99 -217 -113 -10 -27 11 -66 40 -76 25
-8 36 -4 85 28 31 21 68 46 82 57 14 10 39 26 57 35 40 20 63 68 42 88 -12 12
-25 10 -89 -19z"/>
<path d="M1390 381 c-5 -11 -10 -27 -10 -35 0 -10 -9 -16 -22 -16 -12 0 -29
-6 -37 -13 -9 -8 -38 -21 -66 -31 -27 -10 -59 -21 -70 -26 -11 -5 -45 -16 -75
-25 -30 -10 -63 -21 -72 -26 -78 -39 -275 -86 -292 -69 -16 16 -35 12 -64 -15
-15 -14 -38 -28 -52 -32 -56 -13 -80 -32 -80 -63 l0 -30 84 0 c92 0 228 24
263 46 12 8 31 14 42 14 11 0 33 5 48 11 35 14 40 16 190 73 67 25 127 46 134
46 6 0 17 7 23 15 8 12 32 16 85 18 92 3 103 14 76 83 -19 49 -57 94 -81 94
-7 0 -18 -9 -24 -19z m-410 -231 c0 -5 -5 -10 -11 -10 -5 0 -7 5 -4 10 3 6 8
10 11 10 2 0 4 -4 4 -10z"/>
</g>
</svg>
