<?xml version="1.0" standalone="no"?>
<!DOCTYPE svg PUBLIC "-//W3C//DTD SVG 20010904//EN"
 "http://www.w3.org/TR/2001/REC-SVG-20010904/DTD/svg10.dtd">
<svg version="1.0" xmlns="http://www.w3.org/2000/svg"
 width="206.000000pt" height="213.000000pt" viewBox="0 0 206.000000 213.000000"
 preserveAspectRatio="xMidYMid meet">
<metadata>
Created by potrace 1.16, written by Peter Selinger 2001-2019
</metadata>
<g transform="translate(0.000000,213.000000) scale(0.100000,-0.100000)"
fill="#000000" stroke="none">
<path d="M1166 2093 c-3 -21 -6 -59 -6 -84 0 -25 -4 -59 -9 -75 -5 -16 -17
-64 -26 -106 -18 -79 -24 -89 -75 -117 -16 -9 -63 -37 -105 -63 -42 -27 -80
-48 -86 -48 -6 0 -26 -12 -45 -26 -19 -15 -49 -35 -66 -44 -47 -25 -72 -62
-64 -95 13 -51 76 -49 146 5 61 47 214 149 218 145 3 -2 -3 -26 -11 -52 -9
-26 -26 -79 -38 -118 -18 -56 -72 -173 -150 -325 -9 -17 -89 -187 -114 -242
-17 -37 -18 -37 -45 -23 -34 18 -99 91 -121 136 -9 19 -22 46 -29 61 -13 28
-12 56 13 213 8 50 20 132 28 184 7 52 20 100 27 108 8 7 18 44 24 81 5 37 15
91 21 121 13 62 0 95 -46 121 -24 13 -30 13 -54 0 -42 -24 -53 -55 -53 -160 0
-53 -4 -131 -10 -175 -5 -44 -11 -98 -14 -120 -9 -79 -27 -150 -38 -154 -34
-11 -93 -85 -160 -198 -92 -157 -105 -182 -128 -249 -10 -29 -35 -88 -56 -131
-56 -117 -57 -120 -50 -132 18 -29 46 -9 92 65 26 42 52 81 58 87 22 23 48 69
62 110 17 47 62 123 111 183 18 23 33 46 33 53 0 6 5 11 10 11 7 0 9 -13 5
-32 -3 -18 -12 -82 -21 -143 -8 -60 -19 -126 -24 -145 -11 -41 -58 -277 -72
-365 -6 -33 -14 -65 -19 -71 -13 -16 -23 -98 -15 -128 8 -33 45 -35 80 -3 21
18 28 37 36 97 6 41 17 107 25 145 9 39 31 151 51 250 19 99 37 186 39 192 3
9 14 7 40 -8 19 -12 35 -24 35 -28 0 -12 58 -41 83 -41 14 0 28 -3 30 -7 3 -5
-10 -39 -29 -78 -18 -38 -33 -75 -34 -82 0 -21 -88 -197 -110 -220 -25 -27
-37 -78 -20 -88 18 -11 123 106 163 182 19 37 61 118 92 180 31 62 63 117 70
123 7 6 15 23 18 38 3 16 22 63 41 106 33 71 38 78 58 71 13 -4 51 -9 84 -12
l61 -5 -12 -42 c-7 -22 -29 -86 -49 -141 -31 -86 -50 -128 -108 -248 -5 -9
-17 -41 -28 -70 -11 -29 -35 -79 -54 -110 -19 -31 -40 -74 -47 -94 -17 -53
-87 -192 -117 -230 l-24 -33 43 0 c40 0 48 4 84 46 44 51 52 66 118 199 25 50
51 99 59 109 15 19 15 19 36 -2 12 -12 25 -22 28 -22 3 0 47 -25 97 -55 51
-30 117 -63 147 -73 30 -11 84 -32 120 -47 60 -26 116 -42 165 -49 11 -1 27
-5 35 -8 62 -23 246 -37 284 -22 19 7 21 43 4 48 -7 2 -52 11 -99 20 -79 14
-198 50 -354 105 -134 48 -171 67 -256 132 -61 46 -79 65 -79 85 0 16 -8 28
-25 36 -29 13 -31 27 -10 71 56 122 146 375 181 507 16 63 35 134 68 250 13
44 24 61 56 84 41 31 59 61 43 77 -13 13 -169 -21 -191 -42 -14 -12 -23 -44
-32 -116 -12 -96 -43 -231 -62 -265 -6 -13 -21 -18 -49 -18 -22 0 -39 3 -37 8
2 4 10 20 18 36 13 26 13 30 -8 47 l-23 18 35 73 c19 40 49 114 66 163 18 50
42 119 55 155 29 85 72 163 93 173 9 4 33 20 53 35 19 15 58 44 86 65 51 37
72 74 49 83 -7 3 -45 -13 -84 -35 -40 -22 -82 -43 -94 -47 -19 -6 -20 -3 -14
32 3 22 10 77 16 124 5 47 12 100 14 118 l5 32 -53 0 -53 0 -7 -37z m43 -171
c0 -24 -1 -25 -9 -7 -12 28 -12 47 0 40 6 -3 10 -18 9 -33z m-55 -1588 c9 -3
16 -13 16 -21 0 -20 -34 -12 -38 10 -4 19 -1 20 22 11z"/>
<path d="M1425 1413 c-11 -3 -24 -9 -30 -14 -6 -6 -10 -71 -11 -152 0 -125 -3
-148 -23 -190 -12 -27 -21 -61 -19 -79 l3 -31 30 30 c77 77 95 115 111 240 8
65 22 128 30 140 8 12 14 29 14 36 0 23 -53 32 -105 20z"/>
</g>
</svg>
