<?xml version="1.0" standalone="no"?>
<!DOCTYPE svg PUBLIC "-//W3C//DTD SVG 20010904//EN"
 "http://www.w3.org/TR/2001/REC-SVG-20010904/DTD/svg10.dtd">
<svg version="1.0" xmlns="http://www.w3.org/2000/svg"
 width="208.000000pt" height="221.000000pt" viewBox="0 0 208.000000 221.000000"
 preserveAspectRatio="xMidYMid meet">
<metadata>
Created by potrace 1.16, written by Peter Selinger 2001-2019
</metadata>
<g transform="translate(0.000000,221.000000) scale(0.100000,-0.100000)"
fill="#000000" stroke="none">
<path d="M726 1827 c-9 -7 -19 -24 -21 -37 -2 -14 -8 -50 -15 -80 -7 -30 -12
-111 -11 -180 0 -68 -6 -176 -14 -240 -9 -63 -15 -131 -13 -151 1 -28 -6 -46
-33 -80 -50 -63 -94 -152 -123 -249 -27 -90 -117 -332 -127 -340 -3 -3 -14
-20 -25 -38 -16 -29 -17 -34 -4 -42 24 -15 28 -13 84 43 46 46 69 85 127 212
5 11 20 49 33 85 38 104 49 92 42 -46 -9 -198 -22 -325 -40 -404 -37 -158 -37
-159 -60 -162 -28 -4 -35 -58 -10 -82 36 -36 114 15 114 75 0 16 4 29 9 29 14
0 30 50 36 115 3 33 12 98 20 145 8 47 17 115 21 153 3 37 9 67 12 67 18 0 77
-21 98 -35 l23 -15 -20 -47 c-11 -27 -33 -75 -50 -107 -28 -57 -37 -92 -21
-84 60 29 62 31 174 200 15 23 37 70 48 104 12 35 26 67 32 70 5 3 18 25 27
48 10 22 28 63 40 89 l22 48 29 -24 c16 -14 44 -27 63 -31 59 -11 61 -21 37
-143 -12 -59 -30 -139 -42 -178 -11 -38 -23 -83 -28 -100 -4 -16 -17 -48 -29
-70 -12 -21 -21 -45 -21 -51 0 -12 -80 -135 -111 -169 -9 -11 -21 -32 -24 -48
-6 -24 -4 -27 17 -27 27 0 89 60 141 137 18 27 42 58 54 70 11 11 26 29 32 39
7 12 13 15 18 8 5 -5 35 -20 68 -31 137 -48 181 -64 200 -74 34 -16 67 -21
145 -18 139 4 205 2 267 -5 l61 -8 7 46 c4 25 11 49 16 52 17 10 9 43 -11 49
-22 7 -127 -12 -134 -24 -3 -4 -74 -6 -158 -6 -134 2 -158 5 -195 23 -23 12
-77 33 -120 48 -102 34 -113 41 -113 66 0 29 43 190 81 303 23 68 34 127 45
239 13 142 37 261 55 272 15 9 10 54 -7 61 -27 10 -92 -16 -114 -46 -21 -30
-28 -78 -31 -201 -1 -36 -5 -76 -9 -90 -5 -14 -11 -33 -14 -43 -5 -15 -9 -16
-26 -7 -11 6 -20 19 -20 28 0 10 -6 27 -14 38 -13 16 -18 17 -35 7 -29 -18
-32 -4 -11 47 71 175 97 229 128 266 37 45 120 104 145 104 9 0 26 13 39 29
13 16 37 36 53 45 77 42 107 65 187 143 64 62 87 97 74 110 -7 7 -52 -14 -76
-36 -34 -30 -137 -102 -167 -116 -17 -8 -64 -35 -104 -60 -40 -25 -81 -45 -90
-45 -17 0 -16 4 1 63 10 34 23 76 29 92 5 17 15 49 21 72 8 31 19 46 46 62 23
14 34 27 32 39 -3 15 -13 17 -73 14 -38 -2 -75 -7 -81 -13 -16 -13 -68 -194
-104 -359 -11 -53 -18 -65 -50 -83 -16 -10 -35 -24 -43 -31 -17 -17 -101 -60
-148 -75 -19 -6 -50 -27 -68 -45 -37 -38 -36 -60 4 -88 23 -18 25 -17 97 22
40 22 77 40 82 40 13 0 -1 -43 -50 -153 -25 -56 -52 -118 -60 -137 -9 -19 -19
-44 -24 -55 -5 -11 -12 -31 -16 -45 -8 -28 -63 -130 -71 -130 -3 0 -16 9 -30
20 -14 11 -32 20 -39 20 -8 0 -14 6 -14 14 0 7 -7 19 -15 26 -8 7 -15 21 -15
31 0 10 -9 20 -19 24 -18 5 -19 14 -15 93 6 117 11 143 32 158 16 12 16 14 1
41 -22 37 -21 72 1 231 10 73 16 140 13 148 -3 8 2 42 10 77 47 188 50 252 16
278 -28 22 -58 24 -83 6z"/>
<path d="M1658 1287 c-53 -31 -64 -65 -73 -237 -5 -95 -24 -179 -52 -234 -9
-18 -11 -32 -5 -38 16 -16 50 13 73 62 12 25 32 54 44 66 16 15 24 37 29 80
10 81 46 224 62 251 9 14 12 33 8 48 -8 31 -35 32 -86 2z"/>
</g>
</svg>
