<?xml version="1.0" standalone="no"?>
<!DOCTYPE svg PUBLIC "-//W3C//DTD SVG 20010904//EN"
 "http://www.w3.org/TR/2001/REC-SVG-20010904/DTD/svg10.dtd">
<svg version="1.0" xmlns="http://www.w3.org/2000/svg"
 width="207.000000pt" height="212.000000pt" viewBox="0 0 207.000000 212.000000"
 preserveAspectRatio="xMidYMid meet">
<metadata>
Created by potrace 1.16, written by Peter Selinger 2001-2019
</metadata>
<g transform="translate(0.000000,212.000000) scale(0.100000,-0.100000)"
fill="#000000" stroke="none">
<path d="M1259 2060 c-41 -33 -79 -64 -84 -68 -6 -4 -38 -28 -72 -54 -34 -27
-64 -48 -68 -48 -23 0 -216 -104 -226 -121 -15 -28 0 -60 36 -79 24 -13 28
-13 39 3 7 9 53 36 102 61 50 24 96 51 103 60 7 9 19 16 27 16 15 0 141 100
229 182 l62 58 1 -118 c1 -64 6 -157 12 -207 5 -49 12 -175 14 -280 3 -104 8
-215 12 -246 l7 -56 -54 -5 c-30 -3 -70 -12 -89 -22 -39 -18 -190 -112 -271
-168 -30 -21 -79 -54 -109 -74 -30 -20 -56 -40 -58 -45 -4 -10 -122 -89 -167
-112 -55 -28 -116 -88 -113 -110 6 -44 83 -60 120 -24 7 6 32 25 56 40 24 15
60 43 80 61 20 18 53 41 72 51 19 10 58 35 85 56 216 165 329 241 395 263 25
9 48 16 52 16 4 0 8 -26 10 -57 2 -43 7 -58 18 -58 22 0 59 74 61 125 4 66 -9
464 -23 702 -11 204 -10 230 19 304 4 11 -14 14 -100 14 l-105 0 -73 -60z"/>
<path d="M1223 1856 c-13 -6 -23 -14 -23 -18 0 -5 -8 -8 -19 -8 -32 0 -46 -30
-56 -128 l-10 -95 -61 -21 c-66 -23 -134 -69 -134 -91 0 -8 11 -26 24 -42 l24
-28 46 23 c25 13 50 21 55 18 10 -7 -10 -69 -43 -136 -52 -104 -77 -150 -86
-155 -6 -3 -10 -18 -10 -33 0 -25 2 -24 55 28 l55 54 23 -22 c27 -26 65 -28
125 -7 42 15 100 50 114 70 13 18 8 44 -10 54 -12 7 -39 4 -87 -9 -75 -21
-115 -25 -115 -12 0 14 40 92 48 92 4 0 30 47 57 104 36 75 59 109 83 125 17
12 32 27 32 34 0 7 16 27 35 44 28 25 35 39 35 67 0 29 -4 36 -20 36 -11 0
-20 -4 -20 -10 0 -11 -80 -90 -92 -90 -18 0 -7 68 17 100 44 60 23 89 -42 56z"/>
<path d="M676 1676 c-26 -22 -28 -27 -21 -74 4 -28 18 -86 31 -129 20 -61 26
-106 29 -208 11 -329 21 -395 60 -395 49 0 58 390 17 727 -12 98 -56 128 -116
79z"/>
<path d="M970 725 c-7 -8 -18 -15 -24 -15 -6 0 -24 -11 -40 -24 -29 -22 -30
-25 -18 -63 7 -22 12 -79 12 -126 0 -94 5 -86 -98 -164 -52 -39 -157 -83 -200
-83 -49 0 -51 7 -16 49 24 29 25 51 3 51 -6 0 -25 -11 -42 -24 -18 -13 -54
-35 -82 -49 -27 -14 -66 -39 -85 -55 -31 -27 -34 -32 -25 -58 7 -19 22 -33 48
-43 35 -13 42 -13 67 2 15 9 63 22 106 28 83 12 142 36 184 74 14 12 42 32 62
44 l38 23 -6 -49 c-7 -55 -40 -147 -66 -182 -10 -13 -18 -32 -18 -42 0 -17 9
-19 81 -19 69 0 102 7 208 41 69 23 129 46 132 51 3 5 23 11 45 14 21 3 43 9
48 14 6 6 18 10 28 10 9 0 32 6 50 14 55 24 255 85 300 92 100 15 126 54 98
142 -10 29 -26 59 -36 67 -61 46 -172 69 -255 52 -64 -13 -65 -34 -1 -42 99
-13 192 -64 179 -98 -3 -9 -23 -19 -44 -23 -21 -4 -47 -11 -58 -17 -11 -6 -61
-20 -110 -32 -50 -12 -131 -38 -180 -58 -50 -19 -110 -41 -135 -47 -25 -7 -49
-15 -55 -20 -5 -4 -26 -10 -45 -13 -19 -3 -50 -9 -67 -13 -36 -7 -39 -1 -22
43 36 93 61 224 65 339 2 80 9 133 19 158 9 21 14 45 11 52 -7 19 -40 18 -56
-1z"/>
<path d="M1757 663 c-4 -3 -7 -16 -7 -28 0 -12 -13 -31 -30 -43 -38 -28 -39
-60 -2 -92 25 -22 35 -24 83 -20 85 9 126 41 109 86 -12 32 -29 38 -50 19 -16
-15 -22 -15 -35 -5 -8 7 -15 20 -15 29 0 19 -27 61 -39 61 -4 0 -11 -3 -14 -7z"/>
<path d="M1248 633 c-6 -7 -16 -13 -22 -13 -21 -1 -56 -39 -62 -67 -5 -24 -1
-33 20 -46 41 -27 78 -21 115 17 18 19 50 42 71 51 46 21 58 44 33 62 -22 17
-140 13 -155 -4z"/>
</g>
</svg>
