<?xml version="1.0" standalone="no"?>
<!DOCTYPE svg PUBLIC "-//W3C//DTD SVG 20010904//EN"
 "http://www.w3.org/TR/2001/REC-SVG-20010904/DTD/svg10.dtd">
<svg version="1.0" xmlns="http://www.w3.org/2000/svg"
 width="204.000000pt" height="212.000000pt" viewBox="0 0 204.000000 212.000000"
 preserveAspectRatio="xMidYMid meet">
<metadata>
Created by potrace 1.16, written by Peter Selinger 2001-2019
</metadata>
<g transform="translate(0.000000,212.000000) scale(0.100000,-0.100000)"
fill="#000000" stroke="none">
<path d="M1179 2085 c-18 -19 -36 -35 -41 -35 -7 0 -123 -90 -226 -177 -52
-43 -206 -145 -284 -188 -41 -22 -34 -76 13 -95 27 -11 34 -10 59 9 16 11 33
21 38 21 5 0 35 20 66 45 87 67 89 65 51 -60 -27 -86 -44 -105 -101 -105 -28
0 -94 -31 -112 -53 -15 -17 -3 -55 23 -77 15 -12 23 -12 63 2 26 10 48 16 50
14 7 -8 -71 -295 -95 -346 -13 -30 -31 -76 -39 -101 -26 -85 -55 -140 -80
-151 -13 -6 -24 -14 -24 -18 0 -4 -15 -15 -34 -24 -36 -17 -131 -77 -154 -96
-7 -6 -27 -16 -45 -22 -17 -6 -43 -21 -57 -33 -14 -13 -35 -26 -48 -30 -12 -3
-34 -19 -47 -33 -63 -67 6 -145 83 -94 37 24 60 38 107 63 50 27 106 69 123
91 7 10 18 18 24 18 6 0 29 14 52 31 37 27 112 78 200 134 17 10 62 41 100 68
37 27 75 51 85 54 9 4 34 21 56 38 22 18 54 40 72 50 30 18 33 18 50 2 13 -11
23 -13 33 -7 23 15 25 13 25 -32 0 -53 17 -58 44 -14 34 55 42 176 39 587 -2
288 1 380 10 392 12 14 16 150 5 190 -8 29 -49 20 -84 -18z m-33 -455 c3 -157
8 -345 12 -418 7 -124 3 -158 -13 -132 -9 15 -87 12 -110 -4 -11 -7 -30 -16
-42 -20 -27 -9 -98 -51 -214 -129 -47 -31 -88 -57 -92 -57 -14 0 -6 27 18 60
14 19 25 41 25 49 0 24 51 91 70 91 43 0 240 81 240 99 0 44 -55 62 -115 37
-20 -9 -48 -16 -61 -16 -35 0 -31 29 17 160 38 101 48 117 104 173 46 46 62
68 60 87 -1 19 -8 26 -28 28 -31 4 -33 10 -12 38 23 30 18 50 -16 64 -25 11
-35 11 -51 1 -63 -39 6 48 78 99 12 8 41 30 64 48 24 18 48 31 53 29 5 -1 11
-131 13 -287z"/>
<path d="M404 1534 c-31 -24 -32 -26 -27 -92 2 -37 8 -78 13 -92 9 -26 24
-309 21 -391 -1 -31 4 -50 14 -59 12 -10 18 -5 35 35 22 51 43 261 31 318 -3
17 -6 69 -6 114 0 68 3 84 19 96 27 19 17 44 -29 71 l-40 24 -31 -24z m50 -36
c7 -12 7 -21 0 -28 -14 -14 -55 16 -47 36 7 19 32 15 47 -8z"/>
<path d="M883 620 c-38 -23 -42 -50 -13 -87 11 -14 20 -31 20 -38 0 -10 -193
-115 -212 -115 -14 0 -9 45 7 66 33 44 13 67 -52 57 -88 -14 -121 -55 -87
-111 28 -49 24 -52 -126 -99 -8 -3 -51 -8 -95 -12 -105 -10 -139 -26 -143 -68
-3 -27 2 -34 29 -49 26 -13 39 -14 68 -5 20 5 59 13 86 17 28 3 55 9 60 13 6
4 30 13 55 20 25 7 53 15 63 17 14 5 17 -1 17 -35 0 -54 -26 -150 -46 -173
-16 -17 -15 -18 48 -18 l65 0 22 100 c11 56 21 118 21 140 0 36 4 41 48 66
100 57 240 156 252 178 14 27 7 75 -18 124 -19 37 -26 39 -69 12z"/>
<path d="M1627 633 c-4 -3 -4 -22 -1 -42 5 -28 1 -40 -14 -54 -17 -16 -27 -17
-78 -8 -33 6 -69 13 -81 17 -19 5 -23 2 -23 -14 0 -42 56 -76 163 -99 40 -9
90 -16 112 -17 38 -1 40 0 45 34 9 61 -1 87 -51 140 -47 49 -59 56 -72 43z"/>
<path d="M1142 350 c-35 -15 -23 -29 48 -57 69 -27 141 -71 147 -88 4 -13
-119 -71 -171 -80 -20 -4 -39 -11 -42 -16 -3 -5 -15 -9 -27 -9 -12 0 -53 -16
-90 -35 -38 -19 -78 -35 -91 -35 -12 0 -26 -4 -32 -9 -5 -5 -18 -11 -29 -14
-11 -3 54 -4 145 -3 178 3 201 7 324 59 44 19 95 40 112 47 35 13 44 42 34
110 -7 47 -78 101 -157 118 -84 19 -145 23 -171 12z"/>
</g>
</svg>
