<?xml version="1.0" standalone="no"?>
<!DOCTYPE svg PUBLIC "-//W3C//DTD SVG 20010904//EN"
 "http://www.w3.org/TR/2001/REC-SVG-20010904/DTD/svg10.dtd">
<svg version="1.0" xmlns="http://www.w3.org/2000/svg"
 width="208.000000pt" height="213.000000pt" viewBox="0 0 208.000000 213.000000"
 preserveAspectRatio="xMidYMid meet">
<metadata>
Created by potrace 1.16, written by Peter Selinger 2001-2019
</metadata>
<g transform="translate(0.000000,213.000000) scale(0.100000,-0.100000)"
fill="#000000" stroke="none">
<path d="M978 2089 c-24 -9 -28 -18 -39 -84 -10 -62 -15 -76 -33 -81 -11 -3
-80 -34 -152 -69 -133 -64 -162 -89 -166 -139 -3 -35 20 -73 53 -86 40 -17 62
-9 80 27 9 18 23 40 30 50 27 32 133 103 155 103 27 0 31 -17 39 -146 6 -104
4 -108 -78 -143 -74 -32 -81 -29 -73 24 8 51 0 56 -43 26 -14 -11 -56 -33 -92
-49 l-66 -30 -12 -86 c-16 -104 -16 -199 -1 -337 14 -135 26 -176 54 -194 12
-8 29 -26 36 -40 19 -35 78 -35 108 0 12 14 27 25 33 25 6 0 29 15 52 34 57
47 81 50 85 11 5 -45 17 -50 56 -25 32 19 36 26 36 65 0 39 4 46 54 89 30 25
59 46 65 46 7 0 14 7 18 15 5 14 71 55 88 55 3 0 5 -14 5 -30 0 -20 -9 -39
-26 -55 -29 -27 -26 -60 7 -70 28 -9 18 -18 -68 -63 -43 -21 -135 -77 -205
-123 -185 -123 -206 -134 -283 -162 -38 -14 -107 -39 -153 -56 -45 -17 -98
-31 -118 -31 -34 0 -122 -41 -136 -64 -13 -19 -9 -54 8 -70 23 -23 62 -20 156
13 228 80 383 146 438 185 26 19 63 42 81 52 19 9 58 36 87 58 54 41 96 68
164 105 20 12 40 26 43 32 4 6 26 19 49 30 22 11 59 32 81 48 31 23 47 28 70
24 42 -8 45 -13 36 -58 -22 -103 -22 -125 -2 -125 26 0 37 16 61 95 12 39 27
84 34 100 8 18 11 54 8 92 -4 51 -1 68 17 96 25 41 20 61 -22 82 -27 14 -34
13 -68 -2 -44 -19 -55 -48 -39 -103 18 -63 14 -80 -20 -80 -16 0 -54 -11 -85
-24 -47 -21 -55 -23 -55 -9 0 9 8 25 17 35 15 17 18 48 20 242 3 165 7 237 19
277 9 30 24 83 34 119 26 89 26 157 1 165 -32 10 -77 -18 -189 -117 -23 -21
-54 -44 -69 -51 -15 -6 -42 -27 -60 -44 -18 -18 -36 -33 -41 -33 -12 0 -26
220 -17 249 4 14 34 35 78 58 40 19 85 47 101 60 17 14 41 29 54 34 17 6 22
15 20 31 -4 32 -28 33 -95 2 -99 -45 -133 -55 -133 -39 0 8 5 17 10 20 16 10
12 42 -6 49 -22 8 -64 6 -96 -5z m312 -426 c0 -5 -5 -39 -10 -78 -6 -38 -11
-129 -11 -202 l-1 -133 -39 -10 c-21 -6 -41 -15 -44 -20 -6 -9 -112 -60 -126
-60 -5 0 -9 26 -9 59 l0 58 85 82 c47 45 85 88 85 96 0 8 -9 19 -20 25 -21 11
-55 -1 -113 -42 -36 -25 -41 -20 -28 29 8 29 24 50 63 81 29 23 60 47 68 54
68 60 100 79 100 61z m-350 -273 c0 -28 -11 -38 -94 -87 -47 -28 -39 -83 15
-102 25 -8 35 -8 52 4 12 8 24 15 28 15 3 0 7 -31 8 -69 2 -65 0 -70 -26 -89
-16 -11 -54 -32 -85 -47 -31 -15 -64 -35 -74 -46 -9 -10 -21 -19 -26 -19 -4 0
-17 -9 -28 -20 -11 -11 -23 -20 -27 -20 -14 0 -15 358 -2 415 l12 52 41 -4
c30 -3 62 3 116 25 41 16 78 27 83 25 4 -2 7 -17 7 -33z m385 20 c3 -5 1 -10
-4 -10 -6 0 -11 5 -11 10 0 6 2 10 4 10 3 0 8 -4 11 -10z"/>
<path d="M1753 671 c-34 -28 -30 -74 9 -125 18 -22 37 -43 43 -45 5 -2 22 -17
37 -33 32 -35 69 -35 74 -1 4 24 -24 81 -62 126 -13 16 -24 35 -24 43 0 15
-35 54 -47 54 -5 -1 -18 -9 -30 -19z"/>
<path d="M996 504 c-55 -20 -66 -32 -66 -69 0 -49 38 -62 123 -41 105 26 156
61 129 88 -7 7 -147 42 -147 37 0 0 -18 -7 -39 -15z"/>
<path d="M1338 494 c-5 -4 -8 -15 -8 -25 0 -12 12 -18 44 -23 65 -10 111 -68
100 -125 l-7 -31 -74 5 c-53 3 -86 0 -110 -10 -20 -8 -44 -15 -54 -15 -10 0
-60 -12 -111 -26 -91 -26 -156 -53 -291 -121 -68 -34 -91 -37 -68 -9 7 8 19
52 27 98 11 63 21 91 44 120 37 45 38 62 5 56 -16 -4 -25 -1 -25 8 0 7 -20 22
-45 33 -43 19 -47 19 -75 3 -37 -21 -45 -45 -30 -83 7 -16 10 -34 7 -42 -2 -7
-48 -34 -101 -61 -93 -46 -98 -47 -111 -30 -13 18 -15 18 -42 -7 -27 -25 -109
-69 -129 -69 -12 0 -64 -48 -64 -60 0 -24 16 -42 47 -55 33 -14 38 -13 76 9
23 13 60 29 82 36 22 7 51 23 65 35 14 13 52 37 85 55 33 18 67 39 77 47 36
32 33 -42 -5 -127 -42 -92 -52 -83 80 -78 l118 4 125 62 c69 34 131 62 138 62
7 0 34 6 60 14 160 47 206 51 359 31 l52 -7 5 36 c3 20 8 51 11 69 8 48 -28
157 -62 189 -24 23 -40 28 -108 34 -44 3 -83 3 -87 -2z"/>
</g>
</svg>
