<?xml version="1.0" standalone="no"?>
<!DOCTYPE svg PUBLIC "-//W3C//DTD SVG 20010904//EN"
 "http://www.w3.org/TR/2001/REC-SVG-20010904/DTD/svg10.dtd">
<svg version="1.0" xmlns="http://www.w3.org/2000/svg"
 width="209.000000pt" height="213.000000pt" viewBox="0 0 209.000000 213.000000"
 preserveAspectRatio="xMidYMid meet">
<metadata>
Created by potrace 1.16, written by Peter Selinger 2001-2019
</metadata>
<g transform="translate(0.000000,213.000000) scale(0.100000,-0.100000)"
fill="#000000" stroke="none">
<path d="M987 2091 c-63 -52 -114 -84 -126 -77 -4 3 -14 19 -21 35 -14 34 -32
43 -66 35 -35 -9 -45 -35 -38 -97 6 -50 5 -55 -21 -75 -15 -12 -38 -22 -50
-22 -35 0 -65 -40 -65 -88 0 -31 5 -44 20 -52 23 -12 64 -4 81 16 6 8 18 14
25 14 14 0 15 -3 35 -114 l13 -68 -29 -22 c-16 -11 -38 -31 -49 -43 -22 -26
-36 -29 -36 -9 0 7 -7 20 -16 27 -13 11 -18 10 -32 -9 -10 -12 -39 -33 -67
-47 -27 -15 -55 -32 -62 -38 -8 -8 -14 -79 -18 -222 -3 -115 -8 -237 -11 -270
-8 -81 10 -176 36 -194 26 -18 25 -28 -4 -35 -34 -8 -96 -81 -96 -112 0 -26
34 -63 59 -64 7 0 34 17 60 39 25 21 69 46 98 55 28 9 57 23 63 31 6 8 26 17
43 21 18 3 44 15 59 25 14 11 30 19 35 19 13 0 185 91 254 134 46 29 73 40
107 41 36 1 49 7 69 31 80 97 102 118 141 136 23 10 47 16 52 13 15 -9 12 -98
-6 -171 -9 -36 -14 -67 -11 -70 14 -14 49 27 82 100 37 79 37 83 31 166 -7 82
-23 163 -38 186 -13 20 -69 25 -95 9 -29 -19 -30 -53 -3 -97 32 -53 25 -64
-57 -84 -29 -8 -29 -14 1 121 17 75 29 154 46 303 5 51 14 101 19 110 4 9 11
35 14 57 4 22 18 76 32 119 31 97 32 141 6 156 -22 11 -61 -1 -96 -31 -11 -9
-40 -27 -65 -41 -67 -36 -123 -73 -144 -97 -11 -11 -23 -21 -27 -21 -12 0 -92
-56 -113 -79 -11 -12 -23 -21 -28 -21 -5 0 -27 -14 -48 -31 -21 -17 -45 -29
-53 -26 -19 7 -29 76 -21 153 6 61 9 66 48 96 132 103 213 174 227 199 9 17 5
19 -43 19 -47 0 -59 -4 -101 -39z m307 -377 c-18 -138 -20 -158 -34 -279 -6
-49 -15 -115 -20 -145 -5 -30 -9 -85 -9 -122 -1 -63 -3 -68 -35 -95 -38 -31
-313 -173 -335 -173 -9 0 -11 6 -6 18 4 9 11 31 15 47 5 17 15 48 24 70 8 22
15 56 16 76 0 49 25 105 59 138 16 14 36 41 45 59 9 17 20 32 25 32 16 0 102
113 97 127 -7 16 17 56 56 96 33 33 36 63 9 70 -13 3 -47 -15 -103 -54 -184
-131 -191 -134 -196 -77 -3 33 1 39 44 69 26 17 54 39 63 48 15 15 133 104
191 144 14 10 43 31 65 46 22 16 41 28 43 27 1 -2 -5 -56 -14 -122z m-220 15
c-3 -5 -10 -7 -15 -3 -5 3 -7 10 -3 15 3 5 10 7 15 3 5 -3 7 -10 3 -15z m-407
-289 c32 -25 50 -25 88 0 39 26 42 25 48 -7 4 -20 -2 -32 -25 -53 -24 -22 -28
-32 -22 -54 3 -15 17 -34 30 -43 13 -8 24 -23 24 -32 -1 -9 -35 -45 -76 -81
-42 -36 -95 -82 -119 -103 -24 -21 -46 -34 -49 -29 -7 12 11 308 23 355 8 31
33 65 49 67 2 0 15 -9 29 -20z m144 -417 c-1 -27 -7 -72 -14 -101 -10 -45 -17
-56 -47 -72 -65 -34 -180 -80 -200 -80 -17 0 -18 4 -10 26 6 14 10 42 10 63 0
21 3 53 6 70 6 31 7 31 30 16 35 -22 46 -19 100 28 107 95 119 105 123 101 2
-2 3 -25 2 -51z"/>
<path d="M784 550 c-28 -11 -38 -28 -40 -65 -1 -31 -31 -196 -36 -201 -12 -11
-134 -66 -158 -71 -25 -5 -29 -3 -24 11 3 9 10 16 15 16 4 0 19 23 33 50 22
43 23 52 10 57 -8 3 -22 -2 -32 -10 -9 -8 -29 -18 -44 -22 -14 -4 -34 -15 -44
-26 -9 -10 -21 -19 -26 -19 -17 0 -128 -82 -147 -108 -36 -52 7 -96 86 -87 86
9 152 29 210 66 34 21 65 39 68 39 14 0 2 -38 -30 -96 -19 -35 -35 -68 -35
-74 0 -16 254 -7 405 14 66 10 178 17 250 18 106 0 136 3 166 19 46 23 50 34
40 117 -11 85 -33 131 -77 160 -40 26 -80 22 -69 -6 23 -60 46 -144 43 -154
-3 -9 -33 -13 -99 -14 -118 -2 -323 -21 -369 -35 -19 -6 -54 -9 -77 -7 l-42 3
25 70 c14 39 37 115 50 170 14 54 31 106 38 115 20 23 28 57 15 65 -17 11 -81
14 -105 5z"/>
<path d="M1150 545 c-14 -8 -43 -20 -65 -26 -46 -13 -85 -45 -85 -70 0 -10 24
-41 54 -69 32 -30 57 -64 61 -81 9 -39 18 -42 48 -19 22 18 24 23 16 65 -5 26
-16 59 -26 75 -16 27 -16 30 0 48 9 10 17 22 17 27 0 5 7 16 16 26 9 10 13 23
9 28 -8 14 -15 13 -45 -4z"/>
<path d="M1459 463 c-11 -100 15 -156 87 -195 46 -25 77 -23 130 8 40 24 44
29 44 65 0 33 -4 40 -26 45 -14 4 -43 2 -63 -5 -35 -11 -37 -10 -69 26 -18 21
-38 44 -43 51 -11 13 -58 17 -60 5z"/>
</g>
</svg>
