<?xml version="1.0" standalone="no"?>
<!DOCTYPE svg PUBLIC "-//W3C//DTD SVG 20010904//EN"
 "http://www.w3.org/TR/2001/REC-SVG-20010904/DTD/svg10.dtd">
<svg version="1.0" xmlns="http://www.w3.org/2000/svg"
 width="206.000000pt" height="212.000000pt" viewBox="0 0 206.000000 212.000000"
 preserveAspectRatio="xMidYMid meet">
<metadata>
Created by potrace 1.16, written by Peter Selinger 2001-2019
</metadata>
<g transform="translate(0.000000,212.000000) scale(0.100000,-0.100000)"
fill="#000000" stroke="none">
<path d="M750 2105 c0 -8 4 -15 9 -15 13 0 71 -61 87 -92 13 -25 12 -27 -21
-52 -18 -14 -39 -26 -45 -26 -6 0 -35 -12 -65 -26 -70 -35 -89 -73 -55 -109
13 -14 29 -25 35 -25 21 0 150 62 158 75 4 7 37 23 74 35 90 29 113 42 170 95
26 24 53 45 60 45 17 0 93 79 93 96 0 19 -83 19 -99 1 -6 -8 -30 -22 -53 -33
-24 -10 -58 -29 -77 -41 -19 -13 -40 -23 -47 -23 -15 0 -44 61 -44 91 0 17 -9
19 -90 19 -73 0 -90 -3 -90 -15z"/>
<path d="M1169 1966 c-21 -7 -66 -44 -114 -94 -93 -98 -254 -206 -295 -198
-15 2 -45 -6 -75 -21 -27 -15 -56 -29 -64 -33 -8 -3 -19 -19 -24 -34 -7 -21
-5 -32 9 -47 22 -25 73 -20 134 11 20 10 40 17 43 14 8 -9 -60 -100 -98 -132
-18 -15 -51 -49 -73 -77 -43 -55 -77 -88 -195 -195 -43 -38 -83 -70 -89 -70
-6 0 -47 -17 -92 -38 -44 -22 -109 -51 -142 -67 -59 -26 -84 -53 -84 -91 0
-24 31 -64 50 -64 20 0 186 83 211 106 8 8 19 14 23 14 3 0 93 42 199 94 105
51 219 105 252 120 33 15 68 31 79 37 10 6 46 19 79 30 33 11 68 25 76 33 9 7
34 19 56 26 22 7 47 18 55 25 8 7 29 17 45 22 17 6 48 22 69 37 21 14 44 26
50 26 7 0 43 20 80 45 38 25 87 50 110 56 22 6 52 19 66 28 69 46 151 66 189
47 22 -12 27 -11 43 9 23 30 23 41 -4 59 -39 28 -133 20 -245 -18 -104 -36
-222 -91 -288 -135 -22 -15 -56 -33 -75 -40 -19 -8 -42 -20 -51 -28 -8 -7 -21
-13 -28 -13 -7 0 -26 -9 -42 -20 -15 -12 -57 -30 -91 -41 -114 -37 -203 -72
-223 -90 -11 -10 -33 -21 -50 -25 -16 -4 -34 -10 -40 -14 -5 -4 -19 -10 -30
-14 -18 -7 -18 -5 3 17 12 13 22 29 22 35 0 12 21 34 126 133 27 26 83 83 124
128 41 44 78 81 83 81 5 0 29 23 55 51 26 29 91 95 145 147 95 93 98 97 95
136 -3 46 -10 50 -59 32z m16 -546 c3 -5 -1 -10 -9 -10 -9 0 -16 5 -16 10 0 6
4 10 9 10 6 0 13 -4 16 -10z m-95 -51 c0 -6 -4 -7 -10 -4 -5 3 -10 11 -10 16
0 6 5 7 10 4 6 -3 10 -11 10 -16z m-380 -149 c0 -5 -5 -10 -11 -10 -5 0 -7 5
-4 10 3 6 8 10 11 10 2 0 4 -4 4 -10z"/>
<path d="M1350 1394 c-30 -25 -80 -62 -110 -82 -30 -20 -83 -60 -118 -89 -34
-29 -66 -53 -72 -53 -17 0 -80 -75 -80 -96 0 -41 67 -73 87 -41 4 6 26 26 48
42 22 16 57 45 77 65 45 43 90 78 113 87 16 5 17 2 11 -33 -4 -21 -11 -52 -16
-69 -26 -89 -42 -237 -39 -362 4 -130 4 -132 -19 -138 -12 -3 -33 1 -46 10
-29 19 -123 23 -153 6 -35 -18 -41 -60 -12 -83 21 -16 35 -18 99 -13 48 4 79
11 86 20 6 8 16 15 23 15 22 0 106 -48 130 -74 20 -21 22 -28 11 -41 -18 -21
-91 -70 -137 -91 -21 -9 -45 -23 -53 -29 -14 -12 -136 -56 -170 -62 -62 -11
-127 -12 -140 -3 -13 9 -12 13 7 28 12 9 41 28 64 42 41 24 99 74 99 85 0 11
-47 4 -66 -10 -10 -8 -29 -15 -41 -15 -12 0 -25 -4 -28 -10 -3 -5 -14 -10 -25
-10 -16 0 -18 6 -13 63 4 38 12 70 23 82 10 11 26 38 36 59 10 22 64 86 121
143 119 120 141 149 125 165 -8 8 -19 5 -40 -8 -65 -42 -120 -81 -182 -132
-36 -29 -76 -61 -90 -72 -14 -11 -38 -31 -54 -45 -31 -27 -48 -22 -46 11 2 61
14 120 26 127 8 4 14 21 14 37 0 24 -5 31 -27 36 -16 3 -38 11 -51 17 -17 8
-30 7 -57 -6 -45 -22 -51 -38 -31 -87 9 -22 16 -65 16 -95 0 -79 18 -157 42
-177 11 -10 24 -16 28 -13 25 15 48 -108 26 -143 -7 -12 -131 -42 -176 -42
-17 0 -47 -7 -66 -15 -31 -13 -35 -18 -32 -46 2 -24 11 -36 35 -49 35 -19 44
-17 172 26 47 15 61 9 61 -28 0 -60 161 -63 335 -8 103 33 273 116 312 152 12
11 48 26 80 32 l58 12 3 58 c3 56 4 58 28 52 14 -4 35 -16 47 -26 51 -48 154
-47 188 2 30 41 13 58 -58 58 -46 0 -58 4 -79 28 -15 15 -32 39 -40 53 -17 33
-32 39 -75 30 -36 -8 -37 -11 -24 -77 3 -20 3 -34 -2 -31 -36 21 -165 76 -193
82 -50 11 -54 15 -32 39 28 32 39 68 62 221 23 154 50 271 87 382 16 49 23 90
21 125 -3 48 -5 53 -28 55 -17 1 -43 -13 -80 -43z"/>
<path d="M1160 1043 c-8 -3 -29 -17 -46 -30 -17 -12 -37 -23 -45 -23 -8 0 -23
-6 -34 -13 -11 -7 -39 -19 -63 -26 -24 -7 -45 -18 -48 -26 -3 -7 -16 -16 -29
-19 -33 -8 -42 -42 -18 -74 31 -41 49 -49 71 -29 10 9 25 17 34 17 8 0 23 9
33 20 10 11 23 20 30 20 6 0 34 19 62 43 28 23 67 55 87 70 44 34 47 71 6 74
-14 1 -32 -1 -40 -4z"/>
</g>
</svg>
