<?xml version="1.0" standalone="no"?>
<!DOCTYPE svg PUBLIC "-//W3C//DTD SVG 20010904//EN"
 "http://www.w3.org/TR/2001/REC-SVG-20010904/DTD/svg10.dtd">
<svg version="1.0" xmlns="http://www.w3.org/2000/svg"
 width="209.000000pt" height="211.000000pt" viewBox="0 0 209.000000 211.000000"
 preserveAspectRatio="xMidYMid meet">
<metadata>
Created by potrace 1.16, written by Peter Selinger 2001-2019
</metadata>
<g transform="translate(0.000000,211.000000) scale(0.100000,-0.100000)"
fill="#000000" stroke="none">
<path d="M1505 2080 c-30 -6 -51 -20 -86 -59 -25 -28 -53 -51 -62 -51 -9 0
-38 -11 -64 -24 -54 -28 -89 -42 -118 -49 -11 -3 -45 -15 -75 -26 -96 -37
-100 -34 -115 71 -6 39 -3 52 14 77 21 30 21 30 2 40 -26 14 -64 14 -112 -1
-37 -11 -39 -13 -39 -53 0 -23 12 -73 26 -111 14 -38 28 -77 31 -86 4 -13 -14
-26 -83 -59 -49 -23 -95 -51 -103 -62 -7 -10 -28 -26 -45 -34 -50 -23 -75 -38
-106 -67 -16 -14 -34 -26 -40 -26 -6 0 -15 -12 -21 -27 -15 -40 12 -86 62
-106 48 -19 50 -49 8 -142 -4 -11 -22 -56 -40 -100 -46 -119 -64 -156 -96
-196 -15 -19 -37 -52 -47 -71 -24 -45 -11 -68 41 -68 28 0 37 6 51 31 9 17 34
53 55 79 20 26 37 51 37 54 0 4 13 34 30 67 16 34 44 106 61 162 48 158 61
187 84 188 11 1 25 3 30 4 6 2 16 3 23 4 6 0 12 12 12 25 0 15 10 32 28 44 34
24 99 52 121 52 16 -1 51 -49 90 -127 27 -54 27 -61 -6 -69 -16 -4 -34 -12
-42 -18 -7 -6 -55 -27 -105 -46 -80 -32 -93 -40 -109 -72 -14 -29 -15 -40 -6
-62 22 -48 43 -43 144 33 85 65 125 85 125 62 0 -5 -23 -36 -50 -69 -52 -62
-177 -148 -232 -159 -27 -5 -28 -4 -28 35 0 45 -25 76 -41 51 -15 -23 -29 -82
-29 -121 0 -82 90 -89 202 -15 35 23 75 47 89 53 14 6 38 34 54 60 15 27 33
56 40 64 7 8 20 42 30 75 l17 60 19 -24 c10 -13 19 -31 19 -40 0 -9 14 -39 31
-66 30 -47 61 -129 53 -138 -2 -2 -10 -49 -18 -103 -8 -54 -20 -114 -27 -132
-12 -28 -12 -34 0 -42 17 -10 61 16 61 36 0 7 13 28 28 46 16 18 32 42 36 52
6 17 9 15 30 -15 51 -73 68 -83 85 -50 13 23 1 62 -45 152 -19 37 -34 77 -34
89 0 36 80 330 100 369 10 20 30 49 44 65 68 77 -13 135 -88 64 -40 -39 -77
-130 -101 -248 -9 -47 -20 -89 -24 -93 -11 -11 -38 33 -66 106 -13 34 -43 105
-68 157 -80 172 -92 235 -49 273 41 36 212 92 212 70 0 -23 -22 -131 -32 -156
-8 -20 -7 -31 2 -42 21 -25 85 44 105 110 14 48 42 114 68 161 7 11 30 42 52
68 55 66 69 91 62 110 -4 9 -10 15 -14 15 -4 -1 -26 -5 -48 -9z m-545 -420 c0
-10 -79 -34 -87 -26 -6 5 54 34 75 35 6 1 12 -3 12 -9z"/>
<path d="M743 860 c-18 -4 -40 -13 -48 -20 -17 -14 -20 -57 -6 -92 5 -13 11
-41 12 -62 4 -38 4 -39 -46 -53 -27 -8 -61 -14 -75 -14 -36 1 -111 -29 -143
-58 -31 -28 -29 -53 8 -86 36 -32 147 -84 185 -87 33 -3 35 -5 32 -36 -1 -18
-11 -51 -22 -72 -23 -45 -26 -88 -7 -114 20 -28 80 -36 282 -36 105 -1 204 -2
220 -4 32 -3 117 -26 206 -56 80 -27 136 -21 171 19 33 37 34 45 9 143 -11 41
-25 103 -32 137 -6 34 -22 78 -35 97 -13 19 -24 39 -24 44 0 15 -26 12 -39 -4
-13 -16 8 -219 28 -270 19 -47 8 -59 -44 -51 -25 3 -71 15 -103 26 -74 26
-232 40 -377 33 -146 -7 -147 -6 -128 83 7 37 16 69 19 72 3 3 24 13 47 21 34
13 42 20 42 40 0 22 -4 25 -38 24 l-38 -1 7 182 c7 173 6 183 -12 192 -10 6
-34 7 -51 3z m-41 -302 c10 -66 -28 -96 -78 -63 l-26 17 33 34 c38 40 66 44
71 12z"/>
<path d="M1642 747 c-45 -24 -50 -40 -11 -46 42 -6 125 -108 158 -194 6 -16
17 -27 24 -25 18 6 37 49 37 83 0 34 -51 140 -80 167 -11 11 -20 23 -20 28 0
17 -63 9 -108 -13z"/>
<path d="M1073 622 c-5 -4 -15 -17 -22 -29 -18 -34 1 -60 64 -87 29 -13 58
-34 65 -46 l11 -21 21 26 c16 21 19 35 14 65 -5 33 -3 41 14 50 25 13 26 37 3
44 -26 7 -158 5 -170 -2z"/>
</g>
</svg>
