<?xml version="1.0" standalone="no"?>
<!DOCTYPE svg PUBLIC "-//W3C//DTD SVG 20010904//EN"
 "http://www.w3.org/TR/2001/REC-SVG-20010904/DTD/svg10.dtd">
<svg version="1.0" xmlns="http://www.w3.org/2000/svg"
 width="206.000000pt" height="207.000000pt" viewBox="0 0 206.000000 207.000000"
 preserveAspectRatio="xMidYMid meet">
<metadata>
Created by potrace 1.16, written by Peter Selinger 2001-2019
</metadata>
<g transform="translate(0.000000,207.000000) scale(0.100000,-0.100000)"
fill="#000000" stroke="none">
<path d="M1263 2053 c-4 -9 -23 -33 -42 -52 -20 -20 -51 -65 -70 -101 -49 -95
-115 -192 -176 -261 -54 -60 -68 -89 -42 -89 7 0 24 8 37 17 36 24 270 263
270 275 0 5 16 26 35 46 19 20 35 40 35 45 0 4 17 26 39 50 21 23 42 52 45 65
7 21 5 22 -59 22 -52 0 -67 -3 -72 -17z"/>
<path d="M986 1840 c-53 -36 -65 -40 -123 -40 -84 0 -133 -20 -133 -54 0 -16
9 -32 25 -42 57 -37 229 31 290 114 19 26 35 50 35 55 0 18 -40 4 -94 -33z"/>
<path d="M1305 1744 c-16 -8 -39 -24 -50 -34 -11 -10 -31 -24 -45 -30 -14 -6
-50 -26 -80 -45 -30 -19 -87 -50 -127 -70 -39 -20 -83 -45 -98 -57 -14 -11
-68 -36 -118 -55 -51 -18 -112 -43 -137 -55 -25 -12 -60 -28 -77 -37 -44 -21
-48 -39 -16 -73 31 -33 53 -34 108 -8 22 11 48 19 59 20 16 0 18 -5 13 -45 -4
-24 -11 -53 -16 -62 -5 -10 -21 -45 -36 -78 -68 -151 -177 -319 -240 -371 -23
-19 -55 -52 -70 -73 -25 -37 -26 -41 -11 -69 16 -30 50 -47 71 -34 7 4 48 39
91 79 176 160 242 180 112 34 -26 -30 -48 -60 -48 -66 0 -7 -9 -20 -20 -30
-11 -10 -20 -27 -20 -37 0 -22 37 -57 60 -58 15 0 135 66 211 116 19 13 39 24
45 24 5 0 40 25 78 55 38 30 84 65 103 76 32 20 37 21 66 7 30 -14 38 -13 106
9 67 22 82 32 168 116 80 78 99 92 123 89 47 -5 71 31 68 98 l-3 55 -35 -3
c-29 -2 -49 -16 -117 -87 -46 -47 -87 -85 -93 -85 -10 0 -2 31 11 40 4 3 25
30 48 60 38 50 41 60 39 105 -4 62 -19 67 -84 26 -27 -16 -50 -29 -51 -27 -2
2 19 48 47 102 27 54 50 106 50 114 0 24 60 132 91 165 46 49 34 85 -28 85
-78 0 -118 -48 -153 -187 -17 -65 -89 -218 -124 -263 -6 -8 -20 -31 -30 -50
-53 -96 -101 -129 -137 -93 -18 17 -18 20 5 83 26 71 22 104 -13 115 -39 12
-75 -16 -88 -67 -6 -26 -18 -59 -27 -75 -8 -15 -22 -45 -31 -65 -13 -29 -30
-44 -71 -64 -30 -15 -57 -24 -60 -22 -4 5 28 82 82 194 13 28 27 73 30 100 3
27 17 72 31 100 23 47 33 56 112 98 47 26 97 55 111 65 24 18 98 63 147 89 13
8 27 20 30 28 3 8 10 14 17 14 6 0 35 22 65 48 39 35 53 53 48 65 -8 22 -52
22 -92 1z m-255 -856 c8 -13 5 -20 -12 -29 -13 -7 -39 -24 -58 -39 -19 -15
-46 -31 -60 -35 -14 -4 -39 -18 -57 -31 -17 -13 -34 -24 -37 -24 -15 0 -4 35
20 64 14 17 50 64 81 105 l56 74 29 -34 c16 -19 33 -42 38 -51z"/>
<path d="M981 471 c-33 -26 -24 -52 29 -78 52 -25 98 -29 125 -9 26 19 14 41
-42 76 -54 34 -78 37 -112 11z"/>
<path d="M1515 399 c-16 -10 -37 -16 -45 -13 -41 16 -136 21 -168 8 -44 -18
-41 -48 6 -52 64 -6 21 -49 -68 -67 -19 -4 -46 -15 -60 -24 -14 -9 -41 -24
-60 -34 -19 -9 -42 -21 -50 -26 -8 -4 -37 -16 -65 -26 -158 -56 -210 -73 -214
-70 -1 2 16 59 39 126 46 132 46 147 -4 160 -19 6 -37 2 -62 -13 -28 -16 -34
-26 -34 -54 0 -32 -45 -178 -69 -223 -7 -12 -18 -21 -25 -21 -16 0 -40 -45
-32 -59 5 -7 53 -11 136 -11 124 0 131 1 210 35 45 19 90 35 100 35 10 0 21 4
24 8 7 12 154 84 190 93 17 4 60 19 95 34 56 24 68 25 105 16 23 -6 51 -8 63
-5 11 3 24 1 27 -5 18 -29 76 11 76 52 0 11 5 35 12 53 11 30 9 34 -23 68 -37
40 -60 44 -104 15z"/>
<path d="M615 291 c-22 -10 -55 -31 -74 -45 -19 -14 -41 -26 -48 -26 -7 0 -13
-4 -13 -8 0 -12 -122 -88 -155 -96 -16 -4 -41 -16 -56 -27 -15 -10 -32 -19
-37 -19 -16 0 -41 -40 -35 -56 4 -10 26 -14 82 -14 l77 0 65 54 c92 76 249
230 249 244 0 16 -8 15 -55 -7z"/>
</g>
</svg>
