<?xml version="1.0" standalone="no"?>
<!DOCTYPE svg PUBLIC "-//W3C//DTD SVG 20010904//EN"
 "http://www.w3.org/TR/2001/REC-SVG-20010904/DTD/svg10.dtd">
<svg version="1.0" xmlns="http://www.w3.org/2000/svg"
 width="207.000000pt" height="206.000000pt" viewBox="0 0 207.000000 206.000000"
 preserveAspectRatio="xMidYMid meet">
<metadata>
Created by potrace 1.16, written by Peter Selinger 2001-2019
</metadata>
<g transform="translate(0.000000,206.000000) scale(0.100000,-0.100000)"
fill="#000000" stroke="none">
<path d="M1503 1957 c-12 -7 -43 -27 -70 -45 -61 -42 -89 -49 -112 -28 -43 39
-91 8 -91 -58 0 -48 -19 -70 -98 -112 -62 -33 -92 -63 -92 -90 0 -16 -13 -29
-50 -48 -75 -39 -90 -36 -90 19 0 42 3 46 56 87 31 24 69 52 83 63 56 43 91
85 91 110 0 30 -3 30 -38 6 -84 -58 -156 -101 -169 -101 -8 0 -24 11 -35 25
-14 18 -29 25 -53 25 -45 0 -67 -30 -59 -80 6 -34 4 -38 -27 -50 -41 -17 -99
-67 -99 -86 0 -41 74 -70 100 -39 20 24 38 17 42 -17 6 -54 -1 -66 -49 -89
-25 -12 -65 -41 -89 -64 -50 -48 -51 -74 -1 -93 28 -11 35 -9 68 14 35 24 59
26 59 4 0 -17 -85 -90 -111 -95 -15 -4 -35 -15 -45 -26 -9 -10 -23 -19 -30
-19 -7 0 -20 -10 -28 -21 -8 -12 -25 -27 -38 -33 -23 -12 -36 -52 -21 -66 4
-5 24 -11 43 -15 31 -6 42 -1 85 33 63 49 95 66 105 55 5 -4 -8 -57 -29 -117
-27 -82 -42 -113 -61 -124 -43 -27 -80 -65 -80 -82 0 -23 42 -60 69 -60 19 0
128 73 172 115 22 21 29 19 29 -8 0 -32 27 -67 51 -67 12 0 39 16 62 35 41 35
175 105 202 105 8 0 17 4 20 10 3 6 15 10 26 10 27 0 47 44 29 65 -10 13 -9
23 10 63 13 26 30 62 38 80 8 17 21 32 29 32 10 0 13 -31 13 -149 0 -172 -2
-183 -34 -171 -19 7 -33 1 -71 -26 -27 -19 -52 -34 -56 -34 -5 0 -42 -20 -82
-45 -41 -25 -82 -45 -91 -45 -9 0 -26 -10 -37 -21 -12 -12 -63 -41 -113 -66
-111 -54 -166 -91 -166 -112 0 -9 7 -27 16 -40 17 -23 52 -26 98 -6 17 8 18 5
12 -40 -9 -60 -28 -76 -123 -104 -102 -31 -121 -24 -55 18 49 32 63 53 44 65
-13 8 -121 -29 -172 -58 -25 -14 -53 -26 -64 -26 -10 0 -34 -10 -53 -21 -27
-17 -33 -27 -31 -47 2 -21 11 -29 43 -38 56 -16 172 -2 268 32 42 15 79 25 82
22 3 -2 -7 -34 -21 -69 -43 -103 -45 -116 -25 -141 22 -26 63 -28 141 -6 86
24 144 30 290 29 265 -1 319 13 426 114 l54 50 0 64 c0 55 -5 71 -31 113 -36
56 -58 60 -134 28 -56 -24 -58 -50 -6 -61 68 -14 86 -67 40 -123 -58 -69 -81
-74 -376 -79 -145 -2 -263 -3 -263 -1 0 2 11 32 25 66 13 35 31 97 39 139 9
41 26 100 40 130 20 45 31 58 64 73 23 10 43 25 46 32 3 8 12 14 20 14 9 0 31
13 49 30 19 16 45 36 58 43 67 37 97 59 109 82 7 14 18 25 23 25 14 0 0 -87
-20 -120 -14 -24 -14 -31 -3 -45 29 -34 94 17 115 90 8 27 17 104 21 170 11
200 11 208 29 260 21 61 48 108 92 158 43 49 44 82 2 91 -53 10 -56 9 -133
-71 -49 -52 -78 -75 -85 -68 -16 17 11 95 57 164 45 67 45 97 0 61 -15 -11
-29 -20 -32 -20 -14 0 -4 62 12 78 10 9 40 37 66 61 43 40 46 45 32 59 -14 14
-19 14 -55 -6 -21 -12 -41 -22 -45 -22 -3 0 -6 21 -6 46 0 42 4 50 49 93 26
25 67 59 89 74 41 27 63 70 46 87 -6 6 -18 4 -31 -3z m-263 -352 c0 -18 -64
-60 -134 -88 -28 -11 -66 -36 -85 -54 -19 -18 -38 -33 -43 -33 -4 0 -17 -9
-28 -20 -28 -28 -48 -26 -43 4 5 26 71 79 113 90 44 13 192 90 197 103 7 18
23 16 23 -2z m-32 -225 c-13 -11 -60 -38 -105 -61 -95 -48 -136 -86 -131 -120
5 -37 44 -39 107 -7 31 16 67 39 81 53 30 29 60 33 60 8 0 -29 -12 -39 -73
-67 -32 -14 -68 -37 -80 -49 -31 -32 -112 -88 -177 -122 -30 -15 -66 -37 -79
-47 -13 -10 -30 -18 -38 -18 -13 0 -14 3 -1 23 8 12 23 47 33 77 11 30 23 59
27 65 4 5 8 18 8 30 1 80 107 195 181 195 18 0 106 58 174 116 l30 25 3 -41
c3 -33 -1 -45 -20 -60z m-26 -326 c-2 -16 -7 -32 -10 -36 -8 -7 -109 -38 -126
-38 -12 0 43 54 87 87 39 29 53 25 49 -13z"/>
<path d="M1742 661 c1 -32 -5 -47 -30 -76 -56 -63 -35 -121 47 -132 51 -7 91
16 91 53 0 13 -6 27 -14 30 -18 7 -27 29 -32 79 -3 34 -38 85 -58 85 -3 0 -5
-18 -4 -39z"/>
<path d="M1130 537 c-14 -6 -43 -19 -66 -29 -52 -24 -71 -60 -49 -94 12 -19
25 -24 77 -26 66 -3 118 14 118 40 0 7 -11 24 -24 37 -21 21 -22 26 -10 42 30
40 7 54 -46 30z"/>
</g>
</svg>
