<?xml version="1.0" standalone="no"?>
<!DOCTYPE svg PUBLIC "-//W3C//DTD SVG 20010904//EN"
 "http://www.w3.org/TR/2001/REC-SVG-20010904/DTD/svg10.dtd">
<svg version="1.0" xmlns="http://www.w3.org/2000/svg"
 width="207.000000pt" height="206.000000pt" viewBox="0 0 207.000000 206.000000"
 preserveAspectRatio="xMidYMid meet">
<metadata>
Created by potrace 1.16, written by Peter Selinger 2001-2019
</metadata>
<g transform="translate(0.000000,206.000000) scale(0.100000,-0.100000)"
fill="#000000" stroke="none">
<path d="M1352 2013 c-17 -12 -30 -14 -55 -6 -42 12 -85 -9 -94 -45 -8 -32
-20 -43 -93 -78 -30 -15 -65 -36 -77 -47 -12 -11 -33 -25 -45 -31 -29 -15 -34
-40 -14 -71 20 -30 38 -31 74 -6 59 40 126 81 134 81 10 0 10 -35 2 -79 -5
-26 -19 -38 -90 -77 -125 -71 -159 -136 -90 -173 33 -18 33 -23 -6 -46 -66
-39 -133 -120 -122 -149 10 -26 55 -45 82 -35 12 5 22 13 22 18 0 6 32 42 70
80 80 80 83 77 48 -51 -17 -62 -28 -84 -47 -96 -14 -9 -63 -40 -107 -69 -45
-29 -85 -53 -89 -53 -4 0 -23 -13 -42 -30 -18 -16 -39 -30 -45 -30 -11 0 -40
-17 -133 -80 -22 -15 -51 -31 -65 -35 -14 -4 -32 -13 -40 -20 -8 -7 -30 -20
-48 -29 -44 -23 -72 -52 -72 -75 0 -27 52 -52 88 -42 29 9 107 58 182 116 25
19 68 46 95 60 28 15 59 35 70 44 49 44 170 131 182 131 7 0 12 -9 10 -22 -4
-43 27 -31 50 19 26 58 78 113 105 113 19 0 20 -4 12 -47 -4 -27 -8 -152 -8
-280 -1 -225 -2 -232 -24 -262 -37 -51 -1 -71 52 -30 56 44 63 75 69 304 5
173 9 222 26 275 20 64 35 100 52 130 5 8 18 33 30 55 12 22 30 49 40 61 19
20 19 21 0 38 -28 25 -62 15 -116 -35 -49 -45 -127 -100 -134 -93 -2 2 1 14 7
27 6 12 22 56 36 97 13 41 33 95 44 120 15 35 19 62 16 125 -4 92 20 210 47
234 9 9 29 24 43 34 28 19 33 46 14 65 -15 15 -18 15 -46 -5z m-202 -467 c0
-11 -80 -76 -94 -76 -16 0 -2 23 36 59 40 39 58 44 58 17z"/>
<path d="M865 1884 c-32 -15 -64 -32 -70 -39 -5 -8 -33 -20 -61 -28 -28 -8
-65 -22 -82 -31 -24 -12 -37 -13 -62 -5 -43 15 -80 -1 -80 -35 0 -14 -8 -32
-17 -42 -19 -19 -90 -53 -111 -54 -16 0 -61 -50 -62 -68 0 -24 30 -72 46 -72
8 0 46 18 85 40 72 41 89 47 89 31 0 -11 -27 -33 -55 -46 -23 -10 -84 -56
-117 -87 -23 -23 -23 -70 0 -91 28 -25 39 -21 99 33 30 28 58 50 62 50 10 0
23 -114 16 -132 -6 -14 -196 -108 -219 -108 -7 0 -26 -16 -41 -36 -23 -30 -26
-41 -19 -62 13 -35 39 -50 62 -35 9 7 40 26 67 42 28 16 55 34 62 40 6 6 23
13 37 17 14 3 26 10 26 15 0 5 4 9 9 9 5 0 9 -30 10 -67 1 -63 12 -96 25 -75
15 25 66 169 66 189 0 14 16 36 44 59 45 37 61 69 50 98 -8 20 -30 21 -37 2
-3 -7 -15 -16 -26 -19 -19 -5 -21 -1 -21 43 0 27 5 52 10 55 6 3 10 17 10 30
0 15 11 30 33 44 73 47 90 60 98 73 7 10 11 10 21 0 21 -21 45 -14 77 23 36
42 37 46 13 68 -34 31 -77 22 -202 -43 -19 -10 -37 -14 -39 -8 -1 5 -1 10 0
12 45 32 213 136 236 145 36 15 67 55 59 77 -7 19 -21 17 -91 -12z"/>
<path d="M1040 920 c-42 -24 -102 -50 -116 -50 -9 0 -33 -9 -53 -20 -20 -11
-70 -30 -111 -43 -63 -20 -77 -29 -85 -52 -8 -23 -6 -30 14 -46 28 -23 67 -24
101 -4 14 8 41 22 60 31 113 53 140 68 190 102 41 27 56 44 58 65 3 23 0 27
-20 26 -13 0 -30 -4 -38 -9z"/>
<path d="M1035 776 c-150 -73 -225 -106 -240 -106 -8 0 -15 -4 -15 -8 0 -4
-24 -15 -53 -24 -60 -19 -143 -66 -151 -86 -3 -7 1 -26 9 -43 13 -24 22 -29
53 -30 20 -1 41 -1 46 0 12 2 -3 -151 -17 -167 -6 -7 -24 -20 -41 -27 -17 -8
-38 -18 -46 -23 -87 -50 -273 -117 -303 -110 -13 3 -14 8 -2 43 19 53 4 69
-30 32 -14 -15 -38 -30 -53 -33 -55 -14 -108 -66 -97 -96 9 -21 87 -53 126
-50 20 1 50 9 65 17 16 8 35 15 43 15 21 0 181 70 221 97 51 34 62 31 43 -14
-8 -21 -24 -48 -34 -62 -26 -33 -24 -56 8 -81 20 -15 36 -20 56 -16 24 5 143
57 202 88 11 6 49 19 85 29 36 9 92 27 125 38 157 54 206 64 277 56 83 -8 110
5 139 68 21 48 25 134 6 157 -36 44 -125 82 -169 72 -30 -6 -22 -48 12 -62 35
-15 62 -53 58 -83 -3 -19 -13 -24 -78 -34 -88 -14 -198 -45 -365 -102 -165
-57 -179 -61 -198 -61 -22 0 -22 0 12 62 16 29 39 96 51 148 40 173 38 168
115 222 39 26 85 55 103 64 39 18 159 101 168 115 7 12 -14 39 -30 39 -6 0
-51 -20 -101 -44z"/>
<path d="M942 563 c-34 -7 -58 -48 -44 -78 7 -14 16 -25 21 -25 6 0 30 -14 55
-31 31 -22 60 -33 95 -37 l51 -5 0 30 c0 25 -5 31 -28 36 -39 8 -67 50 -51 78
6 11 9 23 6 25 -7 7 -78 11 -105 7z"/>
<path d="M1613 470 c-9 -17 -25 -32 -34 -35 -33 -11 -50 -40 -43 -74 10 -48
121 -138 181 -147 25 -4 49 -2 54 3 14 14 0 63 -18 63 -19 0 -58 41 -83 87
-17 33 -18 37 -3 69 13 27 14 36 3 49 -19 23 -37 18 -57 -15z"/>
</g>
</svg>
