<?xml version="1.0" standalone="no"?>
<!DOCTYPE svg PUBLIC "-//W3C//DTD SVG 20010904//EN"
 "http://www.w3.org/TR/2001/REC-SVG-20010904/DTD/svg10.dtd">
<svg version="1.0" xmlns="http://www.w3.org/2000/svg"
 width="209.000000pt" height="206.000000pt" viewBox="0 0 209.000000 206.000000"
 preserveAspectRatio="xMidYMid meet">
<metadata>
Created by potrace 1.16, written by Peter Selinger 2001-2019
</metadata>
<g transform="translate(0.000000,206.000000) scale(0.100000,-0.100000)"
fill="#000000" stroke="none">
<path d="M1232 2050 c-30 -13 -34 -25 -35 -127 l-2 -87 -50 -19 c-27 -10 -61
-29 -76 -43 -14 -13 -30 -24 -35 -24 -16 0 -54 -44 -54 -62 0 -31 36 -50 79
-43 23 4 43 11 47 16 6 11 49 33 82 43 20 7 22 4 22 -34 0 -33 -4 -42 -23 -49
-63 -24 -167 -112 -167 -141 0 -18 30 -50 46 -50 5 0 15 -4 23 -9 10 -6 0 -22
-43 -63 -31 -30 -56 -61 -56 -70 0 -20 29 -45 62 -53 23 -6 26 -10 17 -26 -5
-10 -14 -19 -20 -19 -6 0 -52 -25 -103 -55 -51 -30 -102 -58 -112 -62 -30 -11
-124 -75 -124 -84 0 -10 -26 -24 -62 -33 l-28 -6 0 59 c0 88 27 141 94 188
114 79 237 175 246 193 13 23 4 48 -20 55 -24 8 -73 -17 -186 -94 -89 -61
-118 -72 -126 -48 -7 18 16 125 30 139 15 15 92 60 159 93 69 35 96 68 81 101
-6 13 -19 24 -28 24 -16 0 -143 -61 -165 -80 -6 -5 -23 -12 -39 -16 -28 -7
-29 -6 -22 22 4 16 10 42 13 57 3 18 20 39 47 58 76 54 86 64 106 101 20 37
18 68 -5 68 -7 0 -30 -14 -51 -31 -22 -17 -51 -37 -66 -45 -25 -13 -28 -13
-28 1 0 9 4 25 10 35 14 27 3 46 -33 57 -24 7 -40 6 -63 -5 -30 -14 -31 -17
-37 -94 -6 -92 -15 -106 -92 -143 -53 -25 -65 -39 -65 -77 0 -21 36 -57 58
-58 8 0 27 10 44 21 19 14 33 18 39 12 16 -16 -1 -43 -28 -43 -34 0 -60 -16
-77 -47 -25 -49 7 -85 77 -87 28 -1 28 -1 32 -83 l5 -82 -73 -39 c-181 -98
-212 -117 -234 -141 -30 -34 -29 -67 2 -87 33 -22 75 -5 166 65 14 11 39 26
55 33 16 7 33 18 37 25 4 7 16 13 26 13 16 0 18 -12 21 -107 2 -60 3 -125 2
-145 -2 -55 13 -88 40 -88 44 0 92 35 118 85 14 27 44 63 67 79 22 17 62 47
89 67 26 20 82 55 123 77 42 22 101 56 131 76 73 48 83 47 76 -6 -17 -137 -18
-138 -63 -161 -69 -35 -176 -98 -210 -124 -37 -27 -40 -43 -17 -78 23 -35 59
-32 121 9 28 19 70 44 92 57 23 12 62 42 87 66 26 24 53 43 60 43 7 0 26 17
43 39 41 51 67 58 75 20 8 -39 -10 -73 -47 -92 -74 -37 -184 -106 -247 -153
-30 -23 -86 -57 -125 -75 -84 -41 -145 -96 -145 -130 0 -29 17 -49 42 -49 15
0 17 -6 14 -36 -6 -44 -18 -54 -118 -98 -21 -10 -38 -21 -38 -26 0 -6 -9 -10
-20 -10 -11 0 -28 -4 -38 -9 -9 -5 -44 -20 -77 -34 -54 -21 -60 -27 -63 -55
-3 -27 1 -34 25 -43 41 -15 89 -2 132 37 21 19 45 34 54 34 8 0 29 11 45 25
17 14 33 25 37 25 4 0 17 10 28 22 l20 23 -6 -30 c-8 -51 -44 -133 -76 -177
-33 -45 -37 -64 -18 -89 26 -33 38 -33 257 5 47 8 101 19 120 25 19 6 67 19
106 30 102 28 228 73 236 85 3 5 33 19 65 31 l58 22 1 49 c1 41 -3 52 -25 71
-14 12 -32 22 -38 23 -7 0 -13 4 -13 9 0 5 -13 14 -29 21 -16 6 -32 19 -36 28
-5 14 -7 14 -15 2 -16 -25 -11 -66 11 -94 23 -29 20 -53 -8 -62 -10 -3 -43
-16 -73 -29 -30 -13 -71 -28 -90 -34 -19 -5 -67 -19 -105 -30 -39 -11 -91 -23
-115 -26 -98 -11 -140 -14 -140 -11 0 2 11 42 25 88 31 109 43 266 20 274 -23
9 -6 25 78 75 75 45 148 97 258 186 36 29 71 53 78 53 7 0 11 -19 11 -47 0
-27 8 -78 17 -116 16 -61 20 -67 43 -67 48 0 54 11 45 92 -16 159 -21 359 -11
443 12 96 73 224 126 263 45 34 61 64 54 100 -6 29 -10 32 -42 32 -48 0 -114
-41 -138 -85 -21 -40 -58 -67 -123 -90 l-41 -14 0 29 c0 17 5 30 10 30 6 0 10
12 10 27 0 14 7 33 15 42 38 42 75 90 75 99 0 5 7 15 15 22 11 9 14 22 10 40
-4 20 -2 29 9 33 21 8 20 50 -1 70 -22 19 -65 12 -89 -14 -29 -32 -44 -24 -44
26 0 41 3 47 48 80 56 43 112 111 112 136 0 35 -38 33 -88 -5 -25 -20 -51 -35
-56 -33 -6 2 -16 28 -23 58 -6 29 -20 59 -29 66 -20 15 -21 15 -52 3z m-97
-619 c-3 -6 -11 -11 -17 -11 -6 0 -6 6 2 15 14 17 26 13 15 -4z m55 -137 c0
-19 -8 -28 -36 -40 -20 -8 -39 -12 -43 -9 -5 6 62 75 74 75 3 0 5 -11 5 -26z
m195 -56 c-4 -18 -11 -50 -15 -72 -8 -39 -37 -71 -92 -101 -35 -19 -36 -12
-10 83 14 56 23 70 56 94 53 38 71 37 61 -4z"/>
<path d="M1781 627 c-5 -13 -16 -29 -25 -36 -22 -18 -20 -67 4 -91 56 -56 165
-103 181 -78 22 34 9 67 -41 109 -28 23 -54 56 -60 74 -9 28 -27 45 -46 45 -3
0 -8 -10 -13 -23z"/>
<path d="M1161 495 c-25 -33 -26 -39 -5 -59 16 -17 26 -19 89 -17 82 3 95 9
95 46 0 32 -2 33 -47 39 -27 4 -62 9 -79 12 -26 5 -35 1 -53 -21z"/>
</g>
</svg>
