<?xml version="1.0" standalone="no"?>
<!DOCTYPE svg PUBLIC "-//W3C//DTD SVG 20010904//EN"
 "http://www.w3.org/TR/2001/REC-SVG-20010904/DTD/svg10.dtd">
<svg version="1.0" xmlns="http://www.w3.org/2000/svg"
 width="205.000000pt" height="207.000000pt" viewBox="0 0 205.000000 207.000000"
 preserveAspectRatio="xMidYMid meet">
<metadata>
Created by potrace 1.16, written by Peter Selinger 2001-2019
</metadata>
<g transform="translate(0.000000,207.000000) scale(0.100000,-0.100000)"
fill="#000000" stroke="none">
<path d="M1032 1932 c-51 -5 -225 -142 -350 -274 -48 -51 -74 -62 -65 -28 7
27 -17 111 -34 117 -7 3 -13 13 -13 23 0 22 -17 36 -53 45 -38 10 -74 -1 -93
-29 -19 -31 -6 -62 35 -79 32 -14 91 -78 91 -99 0 -8 5 -19 11 -25 9 -9 3 -17
-22 -32 -19 -12 -37 -21 -42 -21 -26 0 -157 -104 -157 -125 0 -19 45 -55 68
-55 27 0 39 -39 24 -78 -6 -15 -15 -56 -22 -92 -11 -65 -68 -217 -120 -320
-15 -30 -31 -71 -35 -90 -4 -19 -16 -51 -25 -70 -10 -19 -23 -46 -28 -60 -86
-214 -125 -338 -137 -432 -6 -50 -5 -57 13 -67 26 -14 72 5 72 29 0 9 13 59
30 110 16 51 30 99 30 107 0 7 4 21 9 31 21 39 71 151 71 159 0 5 15 44 34 88
31 75 35 80 67 86 53 8 58 14 56 75 -2 52 0 56 38 89 22 19 64 51 93 72 30 21
73 55 96 76 61 53 70 50 62 -20 -13 -117 -28 -142 -137 -241 -117 -105 -173
-188 -183 -273 -3 -30 -3 -58 1 -64 14 -18 70 -45 95 -46 48 -1 192 -87 204
-121 3 -12 16 -18 33 -18 51 0 56 33 53 307 -3 265 0 283 57 328 14 11 32 28
40 37 9 10 19 18 24 18 4 0 28 20 52 44 24 25 57 52 73 60 16 8 62 46 103 83
41 38 87 77 103 87 l28 18 -8 -64 c-4 -34 -7 -132 -6 -216 l2 -154 -26 -21
c-15 -12 -37 -31 -49 -43 -12 -11 -39 -31 -60 -43 -39 -23 -54 -18 -55 18 0 7
-7 44 -17 82 -17 73 -44 103 -85 97 -40 -6 -43 -29 -18 -131 30 -125 25 -172
-28 -278 -23 -45 -42 -86 -42 -92 0 -14 48 -57 65 -57 14 0 65 55 65 71 0 17
52 89 64 89 7 0 20 -15 30 -32 9 -18 32 -60 51 -93 19 -33 42 -76 51 -95 9
-19 41 -72 70 -117 44 -67 59 -83 80 -83 44 0 58 83 30 183 -46 165 -36 970
13 1077 4 8 5 39 3 68 -3 46 -7 53 -30 59 -21 5 -32 -2 -70 -43 -124 -137
-244 -251 -305 -291 -37 -24 -70 -50 -73 -58 -4 -8 -11 -15 -17 -15 -6 0 -23
-12 -39 -27 -24 -23 -28 -24 -34 -10 -3 9 -1 31 6 49 7 18 18 59 25 90 11 52
11 58 -7 76 -20 19 -20 20 14 53 58 59 94 113 107 159 6 25 16 54 20 65 32 77
80 316 73 364 -5 37 -7 38 -50 33z m-77 -203 c-8 -56 -55 -226 -78 -280 -15
-36 -104 -159 -115 -159 -4 0 -20 -11 -37 -24 -30 -24 -30 -25 -10 -40 14 -11
16 -18 9 -23 -6 -5 -24 -18 -40 -30 -111 -87 -181 -130 -191 -119 -9 9 62 252
87 298 16 29 12 36 -27 49 l-37 12 49 44 c28 24 67 53 87 63 21 11 63 46 95
78 79 78 196 181 206 182 5 0 6 -23 2 -51z m-253 -1056 c4 -189 4 -234 -2
-238 -4 -2 -40 13 -81 34 -66 34 -74 41 -77 70 -2 23 7 50 33 94 33 55 94 117
117 117 4 0 9 -35 10 -77z m557 -28 c-1 -47 2 -119 6 -160 4 -41 3 -75 -1 -75
-5 0 -22 23 -39 52 -50 85 -51 87 -68 106 -25 27 -21 60 9 85 15 12 39 34 53
50 14 15 29 27 33 27 4 0 7 -38 7 -85z"/>
</g>
</svg>
