<?xml version="1.0" standalone="no"?>
<!DOCTYPE svg PUBLIC "-//W3C//DTD SVG 20010904//EN"
 "http://www.w3.org/TR/2001/REC-SVG-20010904/DTD/svg10.dtd">
<svg version="1.0" xmlns="http://www.w3.org/2000/svg"
 width="207.000000pt" height="209.000000pt" viewBox="0 0 207.000000 209.000000"
 preserveAspectRatio="xMidYMid meet">
<metadata>
Created by potrace 1.16, written by Peter Selinger 2001-2019
</metadata>
<g transform="translate(0.000000,209.000000) scale(0.100000,-0.100000)"
fill="#000000" stroke="none">
<path d="M476 1865 c-31 -28 -30 -23 -10 -71 10 -24 18 -82 21 -156 l6 -117
-27 -7 c-15 -3 -50 -17 -77 -30 -58 -28 -70 -57 -43 -103 22 -38 59 -45 100
-20 l31 19 6 -28 c8 -42 -2 -184 -15 -199 -6 -7 -28 -18 -49 -23 -21 -6 -47
-19 -56 -29 -10 -10 -38 -26 -63 -35 -166 -64 -200 -97 -146 -143 34 -29 56
-29 114 2 26 14 52 25 58 25 6 0 21 12 35 26 21 22 78 54 98 54 9 0 -4 -206
-23 -350 -9 -69 -18 -159 -20 -200 -8 -133 -28 -260 -41 -260 -6 0 -20 9 -30
20 -10 11 -24 20 -31 20 -7 0 -22 15 -33 33 -11 17 -41 52 -66 77 -43 42 -47
44 -60 27 -10 -13 -11 -27 -4 -52 23 -81 54 -129 137 -212 23 -24 42 -47 42
-52 0 -14 73 -69 95 -71 48 -5 43 -22 69 220 8 74 22 205 30 290 9 85 20 189
26 230 5 41 12 122 16 180 8 151 17 176 79 235 29 28 69 63 89 78 58 47 42 78
-24 47 -19 -8 -51 -26 -70 -38 -19 -12 -38 -22 -42 -22 -11 0 -10 156 1 178 4
9 16 34 26 54 10 21 27 40 38 44 22 7 87 71 87 85 0 19 -32 21 -68 6 -20 -9
-47 -19 -60 -22 l-23 -7 5 113 c6 119 2 134 -42 182 -32 33 -51 34 -86 2z"/>
<path d="M1445 1599 c-44 -29 -98 -67 -120 -84 -22 -18 -62 -45 -90 -60 -27
-15 -57 -33 -65 -40 -8 -7 -35 -22 -59 -34 -45 -21 -53 -19 -64 14 -5 14 -84
10 -103 -6 -13 -11 -15 -25 -10 -79 4 -36 9 -146 12 -245 5 -194 20 -290 44
-290 20 0 37 114 48 316 5 86 12 161 16 168 5 8 13 8 26 1 24 -13 66 5 152 67
90 64 140 95 145 89 3 -2 -14 -42 -37 -87 -42 -86 -79 -221 -105 -384 -36
-227 -58 -268 -152 -280 -26 -3 -66 -8 -89 -11 -43 -5 -84 -34 -84 -60 0 -19
45 -64 64 -64 8 0 27 5 43 11 15 7 54 13 85 15 63 3 115 27 124 59 4 11 12 27
19 35 7 8 15 42 17 74 3 40 10 63 22 72 17 12 46 119 81 300 13 69 125 318
182 405 21 32 35 121 22 133 -23 20 -52 12 -124 -35z"/>
</g>
</svg>
