<?xml version="1.0" standalone="no"?>
<!DOCTYPE svg PUBLIC "-//W3C//DTD SVG 20010904//EN"
 "http://www.w3.org/TR/2001/REC-SVG-20010904/DTD/svg10.dtd">
<svg version="1.0" xmlns="http://www.w3.org/2000/svg"
 width="208.000000pt" height="217.000000pt" viewBox="0 0 208.000000 217.000000"
 preserveAspectRatio="xMidYMid meet">
<metadata>
Created by potrace 1.16, written by Peter Selinger 2001-2019
</metadata>
<g transform="translate(0.000000,217.000000) scale(0.100000,-0.100000)"
fill="#000000" stroke="none">
<path d="M1387 1999 c-10 -6 -25 -8 -33 -5 -9 3 -16 -3 -19 -17 -7 -33 -32
-159 -50 -262 -15 -84 -19 -93 -60 -135 -70 -72 -81 -125 -29 -148 39 -19 50
-15 88 30 19 24 37 40 39 38 4 -4 -150 -482 -229 -710 -14 -41 -34 -109 -44
-150 -21 -92 -51 -190 -84 -272 -27 -68 -46 -138 -71 -261 -9 -43 -19 -85 -22
-93 -4 -11 5 -14 40 -14 l44 0 27 98 c15 53 50 162 78 242 28 80 60 191 73
248 13 56 32 122 43 145 11 24 32 86 46 138 14 52 37 126 52 164 14 39 50 142
79 230 65 195 92 267 103 274 5 3 19 24 30 47 12 23 31 48 44 56 49 34 98 87
98 107 0 13 9 25 24 31 13 5 27 14 31 19 3 6 13 11 22 11 8 0 29 6 46 14 18 8
40 16 50 20 24 8 33 36 16 47 -22 15 -78 4 -149 -28 -36 -17 -76 -34 -89 -38
-25 -8 -81 -41 -150 -89 -23 -16 -43 -27 -46 -24 -7 6 43 198 55 213 28 34
-16 95 -53 74z"/>
<path d="M731 1649 c-18 -19 -19 -32 -15 -105 4 -82 4 -84 -21 -96 -14 -6 -25
-15 -25 -19 0 -5 -17 -18 -37 -29 -123 -67 -183 -117 -183 -153 0 -30 40 -67
74 -67 56 0 148 36 171 67 8 10 10 -11 10 -71 l0 -85 -55 -45 c-30 -25 -66
-55 -80 -66 -115 -92 -126 -109 -93 -148 37 -43 64 -38 129 22 32 31 65 56 72
56 14 0 8 -118 -10 -185 -6 -22 -12 -44 -13 -50 -1 -5 -5 13 -9 40 -14 100
-17 115 -26 115 -32 0 -55 -154 -33 -215 8 -22 22 -59 30 -82 16 -45 36 -67
70 -77 19 -6 25 -1 38 31 19 45 39 163 55 323 18 191 19 199 35 230 9 17 43
56 77 88 137 128 169 165 166 186 -4 26 -46 25 -66 -1 -7 -10 -30 -29 -51 -43
-21 -14 -60 -40 -86 -59 l-48 -34 7 74 c4 41 14 93 22 117 8 23 14 53 14 66 0
15 9 27 25 34 14 6 25 16 25 22 0 5 5 10 11 10 6 0 28 17 48 38 20 20 55 44
79 51 59 20 70 35 38 56 -32 21 -68 14 -130 -26 -26 -16 -50 -29 -54 -29 -5 0
-26 18 -47 40 -45 46 -83 52 -114 19z"/>
</g>
</svg>
