<?xml version="1.0" standalone="no"?>
<!DOCTYPE svg PUBLIC "-//W3C//DTD SVG 20010904//EN"
 "http://www.w3.org/TR/2001/REC-SVG-20010904/DTD/svg10.dtd">
<svg version="1.0" xmlns="http://www.w3.org/2000/svg"
 width="210.000000pt" height="214.000000pt" viewBox="0 0 210.000000 214.000000"
 preserveAspectRatio="xMidYMid meet">
<metadata>
Created by potrace 1.16, written by Peter Selinger 2001-2019
</metadata>
<g transform="translate(0.000000,214.000000) scale(0.100000,-0.100000)"
fill="#000000" stroke="none">
<path d="M934 2005 c-45 -45 -3 -81 104 -88 88 -5 96 -21 50 -111 -15 -31
-207 -297 -228 -316 -3 -3 -17 -23 -32 -45 -15 -22 -61 -76 -102 -120 -55 -58
-76 -87 -76 -107 0 -28 31 -58 61 -58 17 0 259 120 314 156 40 26 82 61 174
147 22 20 44 37 50 37 5 0 36 23 68 51 49 43 163 119 179 119 11 0 2 -56 -21
-127 -13 -43 -28 -103 -34 -133 -5 -30 -18 -86 -29 -125 -25 -89 -47 -208 -67
-360 -8 -66 -22 -159 -30 -206 -8 -48 -15 -119 -15 -159 0 -60 -2 -71 -14 -61
-7 6 -21 33 -31 59 -10 26 -21 52 -25 57 -12 15 -31 82 -44 155 -10 53 -9 75
2 120 26 103 27 129 1 163 -21 28 -24 43 -24 127 0 92 -1 95 -23 98 -33 5 -68
-22 -75 -57 -10 -49 -130 -290 -148 -296 -8 -3 -25 -22 -38 -43 -12 -20 -40
-59 -62 -87 -22 -27 -47 -63 -55 -79 -15 -26 -14 -30 3 -48 32 -32 66 -14 151
79 92 101 142 170 142 195 0 19 26 36 37 24 13 -12 -27 -133 -106 -321 -28
-66 -51 -123 -51 -127 0 -5 -11 -32 -25 -61 -39 -78 -105 -235 -105 -247 0
-23 29 -8 54 28 14 21 26 41 26 45 0 8 101 152 130 185 11 13 20 30 20 38 0
16 45 111 66 139 13 17 16 18 24 5 5 -8 10 -25 10 -38 0 -38 64 -174 106 -225
13 -15 33 -45 45 -67 26 -45 62 -61 86 -38 23 24 33 84 33 219 0 70 4 148 9
175 5 27 21 137 35 244 25 182 44 277 117 587 34 141 40 291 14 313 -21 18
-59 5 -103 -34 -20 -18 -59 -46 -87 -61 -69 -40 -140 -93 -243 -181 -177 -152
-327 -237 -250 -141 38 47 91 124 155 224 23 36 51 72 62 80 12 8 21 19 21 25
0 7 9 31 20 54 12 23 23 64 27 92 7 66 -19 107 -80 122 -142 38 -140 38 -173
5z m436 -1315 c0 -5 -4 -10 -10 -10 -5 0 -10 5 -10 10 0 6 5 10 10 10 6 0 10
-4 10 -10z"/>
<path d="M421 1856 c-21 -22 -22 -28 -12 -82 6 -32 11 -87 11 -123 1 -36 5
-85 9 -108 6 -29 5 -46 -3 -51 -22 -18 -110 -42 -151 -42 -68 0 -97 -54 -59
-109 15 -21 23 -23 85 -19 58 3 71 7 93 31 14 15 30 27 36 27 6 0 10 -32 10
-84 l0 -84 -37 -23 c-21 -12 -54 -36 -75 -53 -20 -17 -55 -44 -78 -59 -33 -22
-41 -33 -38 -54 2 -14 15 -35 31 -47 27 -20 28 -20 64 -1 19 11 54 41 76 68
50 58 53 53 50 -76 -6 -294 -15 -387 -35 -387 -14 0 -48 81 -48 118 0 34 -23
53 -41 35 -6 -6 -12 -41 -15 -79 -5 -62 -3 -74 20 -114 14 -25 35 -64 45 -87
11 -23 32 -49 46 -59 25 -16 27 -16 46 2 12 13 30 64 48 139 25 104 30 147 35
320 3 110 12 232 19 271 12 69 14 74 75 132 95 92 78 143 -22 65 -39 -30 -49
-34 -57 -22 -5 8 -6 23 -3 34 4 11 9 40 11 65 5 41 11 50 69 99 64 53 80 86
49 98 -9 3 -23 -1 -33 -9 -19 -15 -88 -48 -101 -48 -5 0 -11 33 -13 73 -4 69
5 117 24 117 4 0 8 16 8 36 0 25 -9 47 -32 75 -37 46 -73 51 -107 15z"/>
</g>
</svg>
