<?xml version="1.0" standalone="no"?>
<!DOCTYPE svg PUBLIC "-//W3C//DTD SVG 20010904//EN"
 "http://www.w3.org/TR/2001/REC-SVG-20010904/DTD/svg10.dtd">
<svg version="1.0" xmlns="http://www.w3.org/2000/svg"
 width="209.000000pt" height="213.000000pt" viewBox="0 0 209.000000 213.000000"
 preserveAspectRatio="xMidYMid meet">
<metadata>
Created by potrace 1.16, written by Peter Selinger 2001-2019
</metadata>
<g transform="translate(0.000000,213.000000) scale(0.100000,-0.100000)"
fill="#000000" stroke="none">
<path d="M642 1713 c-19 -17 -20 -24 -12 -103 16 -152 18 -143 -52 -193 -35
-24 -84 -53 -110 -65 -80 -37 -104 -102 -50 -140 l28 -20 66 23 c36 13 77 31
92 40 l27 18 -7 -109 c-3 -60 -9 -112 -12 -116 -14 -13 -226 -118 -241 -119
-9 0 -43 -17 -76 -38 -48 -31 -59 -43 -57 -61 3 -32 18 -48 52 -55 24 -5 51 6
142 56 62 35 115 66 118 70 3 4 16 10 30 14 l25 6 -6 -99 c-3 -54 -8 -103 -12
-108 -22 -37 -33 -163 -30 -347 2 -162 0 -197 -11 -197 -17 0 -86 75 -86 93 0
8 -9 22 -19 31 -25 23 -49 99 -61 193 -14 107 -40 135 -61 64 -9 -31 -9 -61 0
-131 6 -50 15 -99 20 -108 5 -9 19 -42 32 -72 30 -70 44 -89 127 -172 63 -65
69 -68 113 -68 43 0 47 2 52 28 3 15 3 137 0 272 -5 222 -4 255 15 350 11 58
23 141 26 185 8 107 39 190 76 205 51 21 210 174 210 203 0 18 -34 24 -44 8
-3 -5 -25 -19 -48 -31 -24 -12 -52 -30 -63 -40 -28 -26 -92 -60 -99 -53 -3 3
-3 58 1 122 8 148 29 195 114 246 92 56 129 87 129 108 0 19 -81 -2 -149 -37
-39 -20 -72 -36 -74 -36 -1 0 -3 16 -4 35 -1 43 17 61 47 45 15 -8 26 -8 32
-2 19 19 -4 53 -52 77 -27 14 -51 29 -55 35 -10 16 -61 12 -83 -7z"/>
<path d="M1116 1719 c-51 -12 -103 -45 -111 -69 -7 -22 20 -80 38 -80 7 0 33
11 59 25 27 15 67 26 95 28 45 2 48 1 51 -25 9 -77 -160 -338 -376 -582 -111
-125 -107 -117 -81 -150 25 -32 68 -35 94 -6 10 11 21 20 25 20 4 0 34 16 65
35 32 19 61 32 65 30 4 -3 -8 -49 -26 -102 -19 -54 -41 -125 -49 -158 -24 -94
-38 -135 -46 -135 -4 0 -11 -10 -14 -22 -4 -13 -22 -46 -41 -74 -45 -68 -58
-109 -38 -129 9 -8 18 -15 20 -15 18 0 46 25 60 53 9 18 20 34 23 37 21 17 73
94 86 127 12 30 27 45 59 61 78 39 89 25 65 -78 -6 -25 -16 -79 -23 -120 -7
-41 -34 -140 -60 -219 -25 -80 -46 -151 -46 -158 0 -7 8 -13 18 -13 14 0 38
38 95 150 42 82 82 170 88 195 6 25 15 45 20 45 4 0 24 -24 43 -52 19 -29 57
-76 83 -104 26 -28 56 -63 66 -78 31 -45 65 -30 78 35 4 24 10 114 14 199 9
262 16 350 36 479 11 68 22 127 24 132 3 4 14 54 25 111 11 57 29 137 40 178
11 41 23 102 26 135 5 51 3 63 -12 77 -18 15 -24 14 -104 -26 -55 -27 -127
-76 -203 -139 -65 -53 -122 -97 -126 -97 -5 0 -28 -18 -51 -41 -23 -22 -43
-39 -45 -37 -4 3 44 80 64 104 22 27 114 196 132 245 23 61 28 163 10 197 -11
20 -18 22 -94 21 -45 -1 -100 -5 -121 -10z m444 -366 c0 -5 -6 -20 -14 -34 -8
-15 -21 -69 -31 -120 -9 -52 -23 -114 -30 -139 -14 -48 -36 -165 -59 -320 -8
-52 -14 -160 -15 -239 0 -82 -5 -149 -10 -154 -12 -12 -73 52 -123 127 -27 42
-32 57 -30 103 3 59 -16 106 -48 123 -12 6 -20 21 -20 35 0 16 -6 25 -15 25
-10 0 -15 -10 -15 -29 0 -23 -8 -34 -36 -50 -47 -28 -56 -27 -48 7 9 39 76
194 91 213 7 8 13 22 13 30 0 9 7 24 15 35 20 27 18 52 -5 59 -11 3 -20 12
-20 19 0 11 86 96 97 96 3 0 25 18 50 40 25 22 50 40 56 40 8 0 91 70 147 124
16 15 50 21 50 9z"/>
</g>
</svg>
