<?xml version="1.0" standalone="no"?>
<!DOCTYPE svg PUBLIC "-//W3C//DTD SVG 20010904//EN"
 "http://www.w3.org/TR/2001/REC-SVG-20010904/DTD/svg10.dtd">
<svg version="1.0" xmlns="http://www.w3.org/2000/svg"
 width="215.000000pt" height="218.000000pt" viewBox="0 0 215.000000 218.000000"
 preserveAspectRatio="xMidYMid meet">
<metadata>
Created by potrace 1.16, written by Peter Selinger 2001-2019
</metadata>
<g transform="translate(0.000000,218.000000) scale(0.100000,-0.100000)"
fill="#000000" stroke="none">
<path d="M890 1987 c-19 -10 -26 -21 -28 -52 -7 -91 -52 -357 -66 -382 -8 -16
-56 -68 -106 -117 -97 -95 -111 -116 -103 -159 4 -20 13 -29 36 -35 38 -10 88
-3 91 12 17 68 34 96 90 146 33 30 93 86 133 124 40 38 82 75 93 83 12 8 40
33 63 56 23 23 44 41 47 40 10 -3 120 102 120 115 0 19 -23 24 -54 12 -15 -5
-88 -50 -162 -99 -74 -50 -134 -88 -134 -85 0 26 55 244 66 261 19 31 18 49
-8 73 -25 23 -43 25 -78 7z"/>
<path d="M292 1784 c-21 -14 -23 -22 -18 -67 3 -29 8 -94 11 -146 6 -89 5 -94
-17 -110 -35 -25 -87 -51 -100 -51 -6 0 -39 -13 -72 -29 -34 -16 -69 -31 -79
-34 -14 -5 -17 -18 -17 -72 0 -36 3 -65 6 -65 11 0 96 51 116 70 12 11 26 20
32 20 5 0 17 6 25 14 24 21 90 56 106 56 8 0 16 -13 19 -32 14 -90 16 -140 6
-157 -8 -17 -222 -164 -288 -200 -20 -10 -22 -20 -22 -83 l0 -70 28 17 c15 10
34 25 42 35 8 9 37 32 64 51 27 19 59 43 70 54 37 35 90 75 98 75 21 0 -3
-281 -31 -352 -6 -15 -13 -75 -17 -133 -9 -137 -21 -147 -63 -55 -31 66 -32
75 -33 200 -1 71 -5 130 -8 130 -15 0 -31 -29 -56 -106 -21 -64 -25 -91 -21
-144 6 -66 37 -165 68 -210 9 -14 38 -58 64 -98 45 -70 75 -95 102 -85 20 8
24 31 34 200 5 89 21 229 35 310 14 81 29 204 34 272 5 69 14 129 20 135 5 5
10 19 10 30 1 23 35 70 95 127 35 34 38 40 25 54 -20 19 -54 9 -70 -20 -15
-28 -69 -51 -75 -32 -2 7 -6 33 -10 60 -10 78 21 141 88 177 38 21 66 65 50
81 -9 9 -23 6 -60 -11 -95 -45 -91 -45 -91 8 -1 76 7 102 29 102 29 0 22 51
-9 66 -13 6 -29 17 -35 23 -16 16 -59 14 -85 -5z m88 -564 c0 -5 -7 -10 -16
-10 -8 0 -12 5 -9 10 3 6 10 10 16 10 5 0 9 -4 9 -10z"/>
<path d="M919 1418 c-25 -24 -60 -56 -77 -71 -20 -18 -37 -47 -46 -80 -29 -98
-65 -262 -76 -347 -14 -101 -18 -119 -60 -275 -32 -119 -41 -146 -106 -302
-40 -96 -41 -103 -14 -103 14 0 32 19 56 58 20 31 44 68 53 81 23 35 27 41 55
101 35 75 93 268 107 359 8 46 19 80 30 90 10 9 22 35 26 57 7 33 15 42 52 61
24 12 51 28 60 36 18 15 67 37 81 37 16 0 11 -35 -16 -117 -24 -72 -44 -159
-94 -403 -24 -121 -43 -328 -35 -385 10 -64 31 -78 102 -71 32 3 94 8 138 12
44 4 89 13 100 20 11 7 56 15 100 17 90 6 138 18 194 50 64 36 148 104 178
144 15 21 34 44 40 51 42 44 39 174 -6 275 -15 34 -37 100 -50 147 -49 188
-98 321 -129 353 l-22 21 0 -59 c0 -127 64 -406 124 -547 9 -21 16 -49 16 -63
0 -65 -128 -198 -225 -234 -27 -10 -96 -24 -152 -30 -56 -7 -116 -16 -135 -21
-18 -6 -63 -10 -100 -10 l-68 0 0 68 c0 79 23 227 58 372 83 342 94 402 90
470 -3 55 -3 55 -38 58 -44 5 -100 -11 -166 -45 -90 -47 -104 -13 -40 95 17
29 41 70 53 90 26 45 28 68 7 76 -9 3 -16 6 -17 6 -2 0 -23 -19 -48 -42z m531
-1148 c0 -5 -5 -10 -11 -10 -5 0 -7 5 -4 10 3 6 8 10 11 10 2 0 4 -4 4 -10z"/>
</g>
</svg>
