<?xml version="1.0" standalone="no"?>
<!DOCTYPE svg PUBLIC "-//W3C//DTD SVG 20010904//EN"
 "http://www.w3.org/TR/2001/REC-SVG-20010904/DTD/svg10.dtd">
<svg version="1.0" xmlns="http://www.w3.org/2000/svg"
 width="205.000000pt" height="219.000000pt" viewBox="0 0 205.000000 219.000000"
 preserveAspectRatio="xMidYMid meet">
<metadata>
Created by potrace 1.16, written by Peter Selinger 2001-2019
</metadata>
<g transform="translate(0.000000,219.000000) scale(0.100000,-0.100000)"
fill="#000000" stroke="none">
<path d="M1255 2173 c-40 -9 -59 -68 -36 -112 6 -10 15 -56 22 -102 12 -82 12
-86 -9 -115 -25 -33 -24 -87 1 -107 9 -7 17 -23 19 -37 4 -34 31 -37 48 -5 7
14 22 25 32 25 13 0 18 8 18 28 0 15 11 39 24 54 27 28 165 98 196 98 10 0 22
5 25 10 8 12 25 13 25 2 0 -5 -34 -45 -77 -88 -42 -43 -92 -104 -111 -134 -19
-30 -38 -57 -42 -60 -7 -5 -22 -26 -116 -160 l-46 -65 7 81 c6 68 4 83 -10 97
-24 25 -50 21 -77 -11 -19 -23 -26 -48 -36 -133 -40 -350 -53 -439 -72 -489
-12 -30 -35 -106 -51 -169 -16 -62 -33 -120 -38 -130 -5 -9 -21 -59 -36 -111
-14 -52 -35 -113 -45 -135 -30 -65 -67 -155 -96 -230 -14 -38 -37 -91 -50
-117 -13 -26 -24 -50 -24 -53 0 -3 18 -5 39 -5 40 0 40 0 81 83 22 45 49 96
59 112 9 17 35 71 55 120 21 50 44 104 51 120 28 65 54 144 75 220 29 109 48
175 81 277 16 47 29 100 29 117 0 16 4 40 10 53 5 13 19 56 31 96 17 59 30 82
68 120 25 26 64 74 86 106 22 33 56 78 75 100 20 23 54 67 75 99 22 33 57 75
78 95 21 21 50 56 64 80 14 23 31 46 39 50 20 11 38 119 25 149 -9 20 -17 23
-68 23 -32 -1 -76 -8 -98 -17 -110 -43 -199 -72 -207 -67 -12 7 -10 132 2 139
20 12 9 44 -25 74 -20 17 -39 30 -43 30 -4 -1 -16 -3 -27 -6z"/>
<path d="M653 1858 c-27 -13 -32 -68 -8 -88 8 -7 15 -17 15 -22 0 -6 13 -38
29 -72 41 -88 51 -115 51 -135 0 -17 -77 -71 -169 -120 -14 -8 -43 -29 -64
-48 -21 -19 -49 -39 -62 -45 -32 -14 -51 -69 -34 -97 17 -26 56 -43 81 -35 41
13 91 55 112 94 19 36 141 140 164 140 13 0 22 -51 22 -125 0 -61 0 -62 -44
-93 -24 -18 -49 -32 -54 -32 -6 0 -23 -11 -39 -23 -15 -13 -57 -39 -93 -57
-36 -19 -86 -50 -112 -69 -43 -31 -48 -39 -48 -73 0 -32 4 -40 26 -48 38 -15
52 -12 76 13 30 29 74 61 122 87 21 12 55 39 75 60 33 36 91 64 91 44 0 -5 -7
-38 -15 -73 -9 -36 -20 -94 -25 -130 -5 -36 -22 -119 -37 -183 -21 -91 -31
-118 -44 -118 -24 0 -47 31 -57 75 -9 47 -28 56 -42 20 -26 -69 -9 -113 79
-198 43 -43 66 -58 82 -55 24 3 27 13 65 163 8 33 20 78 26 100 6 22 14 65 19
95 18 124 38 228 54 285 9 33 20 78 24 100 4 22 13 50 20 63 15 28 7 42 -23
42 -22 0 -23 5 -28 84 -8 115 0 145 42 174 45 30 46 56 4 60 -19 2 -38 -3 -47
-12 -35 -36 -51 -17 -82 97 -9 37 -10 56 -2 78 14 35 -2 55 -60 75 -45 16 -60
16 -90 2z"/>
</g>
</svg>
