<?xml version="1.0" standalone="no"?>
<!DOCTYPE svg PUBLIC "-//W3C//DTD SVG 20010904//EN"
 "http://www.w3.org/TR/2001/REC-SVG-20010904/DTD/svg10.dtd">
<svg version="1.0" xmlns="http://www.w3.org/2000/svg"
 width="209.000000pt" height="210.000000pt" viewBox="0 0 209.000000 210.000000"
 preserveAspectRatio="xMidYMid meet">
<metadata>
Created by potrace 1.16, written by Peter Selinger 2001-2019
</metadata>
<g transform="translate(0.000000,210.000000) scale(0.100000,-0.100000)"
fill="#000000" stroke="none">
<path d="M1115 1964 c-11 -3 -29 -9 -40 -14 -11 -4 -36 -14 -55 -21 -47 -18
-112 -63 -128 -88 -12 -21 -7 -71 8 -71 5 0 12 -9 15 -20 9 -28 39 -25 67 8
43 50 111 102 135 102 28 0 30 -30 9 -102 -18 -57 -111 -245 -136 -273 -9 -11
-30 -41 -45 -67 -45 -80 -54 -59 -30 73 6 31 4 38 -20 53 -50 33 -94 7 -109
-65 -6 -28 -97 -91 -149 -104 -15 -4 -34 -16 -42 -28 -14 -20 -64 -57 -77 -57
-12 0 -20 79 -12 136 5 44 11 58 26 62 17 4 19 10 13 41 -4 20 -8 36 -9 36 -1
0 -20 17 -43 39 -39 37 -43 38 -76 27 -40 -13 -57 -54 -38 -90 6 -11 11 -41
11 -67 0 -26 5 -98 11 -160 l12 -112 -50 -50 c-41 -41 -52 -59 -57 -97 -6 -36
-4 -51 8 -64 22 -24 21 -28 -19 -65 -41 -39 -43 -53 -13 -91 18 -23 26 -26 60
-22 35 5 38 3 38 -20 0 -13 -7 -61 -15 -106 -8 -45 -21 -116 -28 -157 l-12
-74 -43 44 c-57 58 -72 97 -77 193 -2 44 -6 82 -9 84 -3 3 -15 -5 -27 -16 -21
-19 -23 -31 -23 -109 -1 -108 25 -171 108 -261 31 -33 56 -67 56 -74 0 -20 33
-47 57 -47 31 0 54 74 73 235 7 55 20 143 30 195 10 52 21 122 25 155 4 33 11
65 15 70 4 6 13 29 19 52 8 30 29 60 74 105 84 83 103 113 87 133 -19 23 -33
19 -80 -25 -41 -37 -70 -51 -70 -32 0 14 106 117 150 146 60 40 70 36 64 -26
-3 -29 -10 -66 -16 -83 -5 -16 -12 -47 -14 -67 -11 -117 -63 -468 -70 -479 -3
-5 -14 -49 -24 -97 -32 -151 -67 -287 -79 -309 -6 -12 -11 -31 -11 -42 0 -12
-15 -61 -34 -111 l-34 -90 39 0 c34 0 41 4 54 33 14 31 18 38 43 82 21 36 30
59 52 140 12 44 26 94 31 110 23 77 70 292 88 405 39 247 60 349 74 372 8 13
18 38 22 56 4 20 25 52 49 77 41 42 136 167 136 180 0 3 11 21 25 39 14 18 25
36 25 40 0 4 18 35 40 68 22 34 40 72 40 84 0 12 4 24 10 26 25 8 40 201 17
231 -13 18 -67 29 -102 21z"/>
<path d="M1280 1266 c-31 -7 -89 -28 -130 -48 -41 -19 -99 -43 -127 -53 -70
-25 -84 -71 -32 -103 24 -15 85 1 180 50 51 25 79 34 79 24 0 -2 -49 -119
-110 -260 -60 -141 -110 -260 -110 -264 0 -4 -4 -13 -9 -21 -7 -11 -17 -8 -49
17 -45 36 -67 39 -100 16 -30 -21 -29 -64 3 -94 16 -15 25 -34 25 -54 0 -23 3
-27 12 -18 17 17 45 15 52 -4 6 -15 -40 -159 -65 -207 l-12 -21 -9 24 c-11 31
-23 18 -39 -42 -24 -90 18 -135 78 -84 29 25 36 35 93 161 18 39 37 80 42 91
10 21 13 21 122 -35 62 -31 123 -61 137 -67 13 -7 83 -41 154 -77 72 -36 149
-70 171 -76 23 -6 58 -25 79 -41 21 -17 46 -30 56 -30 9 0 31 19 48 42 38 51
41 95 8 126 -27 26 -47 28 -47 7 0 -11 -11 -15 -39 -15 -52 0 -95 15 -233 82
-10 4 -24 8 -31 8 -8 0 -22 9 -32 20 -10 11 -48 34 -84 51 -92 45 -201 109
-230 135 -15 14 -22 29 -18 41 13 42 79 199 88 207 5 6 9 18 9 27 0 9 6 22 13
28 8 6 19 30 26 53 7 24 35 90 63 148 49 104 79 218 65 254 -7 18 -21 19 -97
2z"/>
</g>
</svg>
