<?xml version="1.0" standalone="no"?>
<!DOCTYPE svg PUBLIC "-//W3C//DTD SVG 20010904//EN"
 "http://www.w3.org/TR/2001/REC-SVG-20010904/DTD/svg10.dtd">
<svg version="1.0" xmlns="http://www.w3.org/2000/svg"
 width="207.000000pt" height="202.000000pt" viewBox="0 0 207.000000 202.000000"
 preserveAspectRatio="xMidYMid meet">
<metadata>
Created by potrace 1.16, written by Peter Selinger 2001-2019
</metadata>
<g transform="translate(0.000000,202.000000) scale(0.100000,-0.100000)"
fill="#000000" stroke="none">
<path d="M1165 1979 c-19 -36 -25 -150 -13 -230 4 -32 4 -108 -1 -175 l-10
-119 -61 -56 c-34 -31 -72 -61 -84 -67 -146 -68 -162 -83 -149 -132 4 -16 -3
-29 -27 -51 -19 -17 -36 -27 -41 -22 -5 5 -6 37 -3 70 6 56 11 66 52 107 24
25 53 48 63 51 11 4 19 11 19 16 0 5 9 18 21 30 24 24 20 45 -7 41 -29 -5 -99
-42 -129 -68 -16 -13 -31 -24 -35 -24 -12 0 -50 163 -50 213 0 26 5 56 12 66
15 25 5 47 -31 65 -45 24 -89 11 -99 -28 -10 -36 0 -128 23 -206 45 -151 46
-178 8 -206 -16 -11 -62 -37 -103 -58 -41 -21 -82 -44 -90 -51 -8 -7 -45 -26
-81 -43 -99 -44 -128 -101 -70 -135 16 -9 37 -17 46 -17 24 0 144 81 151 102
3 10 9 18 13 18 9 0 99 53 141 82 13 10 27 14 31 10 3 -4 9 -33 13 -64 l6 -56
-53 -44 c-57 -48 -129 -98 -140 -98 -4 0 -25 -12 -47 -26 -40 -26 -70 -44
-148 -85 -36 -20 -42 -27 -42 -56 0 -28 5 -36 34 -50 34 -16 34 -16 103 27 37
24 100 69 138 100 96 77 144 105 157 92 13 -13 17 -626 5 -657 -7 -17 -12 -14
-52 30 -24 26 -41 53 -38 58 3 6 -1 15 -9 21 -18 13 -38 98 -38 161 0 99 -32
103 -49 5 -27 -147 14 -268 132 -393 53 -58 68 -68 92 -65 24 3 29 9 40 53 33
130 43 349 29 651 -9 204 3 277 52 331 19 20 34 42 34 47 0 6 33 26 73 45 39
19 86 45 103 58 17 13 34 23 37 23 8 0 0 -77 -20 -195 -8 -49 -17 -103 -19
-120 -39 -265 -60 -372 -89 -445 -23 -61 -63 -192 -99 -331 -20 -74 -39 -144
-42 -157 -6 -22 -4 -23 37 -20 42 3 44 5 56 47 7 24 16 48 21 55 5 6 15 35 22
65 9 38 18 55 32 59 14 3 16 7 7 13 -10 6 -5 34 23 126 20 65 45 143 56 174
20 54 101 504 122 681 11 95 17 118 31 118 4 0 6 6 3 14 -3 7 1 16 9 19 9 3
18 18 22 34 4 18 27 45 63 73 31 25 65 56 76 69 12 13 47 48 79 79 31 30 57
61 57 68 0 8 3 14 8 14 4 0 20 12 35 26 16 14 31 24 34 21 12 -13 24 -192 21
-323 -3 -135 -4 -141 -30 -172 -14 -17 -28 -35 -30 -39 -1 -4 -37 -37 -78 -72
-109 -94 -262 -252 -285 -294 -24 -46 -14 -68 38 -81 44 -11 67 5 102 74 13
25 48 70 79 100 31 30 56 60 56 66 0 11 40 28 47 20 4 -4 -16 -72 -117 -401
-11 -33 -22 -78 -25 -100 -14 -94 -8 -91 -83 -33 -37 29 -71 58 -77 65 -5 7
-23 17 -38 23 -25 9 -31 7 -53 -17 -26 -28 -31 -61 -11 -84 6 -9 35 -34 64
-58 29 -23 55 -51 58 -62 4 -11 14 -19 23 -18 26 2 35 0 56 -16 17 -13 18 -19
6 -62 -6 -26 -16 -57 -20 -68 -5 -11 -11 -29 -13 -40 -3 -17 -6 -14 -17 12
-19 51 -27 31 -25 -63 2 -90 8 -104 51 -104 11 0 30 10 41 23 21 23 53 111 53
146 0 11 5 23 10 26 5 3 10 15 10 26 0 39 35 33 140 -25 69 -38 185 -88 213
-93 33 -5 87 10 87 24 0 5 -19 17 -43 28 -23 11 -60 31 -82 44 -22 14 -69 40
-104 59 -35 18 -73 44 -83 58 -11 13 -33 31 -49 39 -38 20 -38 44 6 215 19 74
42 164 51 200 9 36 20 72 24 80 4 8 15 42 24 75 9 33 27 85 41 115 13 30 37
87 53 125 l29 70 -2 295 c-2 235 0 304 12 338 8 24 13 55 11 70 -2 22 -9 28
-36 30 -43 4 -78 -19 -87 -56 -5 -26 -97 -141 -119 -151 -6 -2 -46 -39 -90
-81 -160 -152 -165 -156 -167 -127 -2 57 3 263 7 309 6 55 8 57 30 52 19 -5
24 -2 24 14 0 31 -59 72 -103 72 -31 0 -39 -5 -52 -31z"/>
<path d="M1265 321 c-3 -5 -1 -12 5 -16 5 -3 10 1 10 9 0 18 -6 21 -15 7z"/>
</g>
</svg>
