<?xml version="1.0" standalone="no"?>
<!DOCTYPE svg PUBLIC "-//W3C//DTD SVG 20010904//EN"
 "http://www.w3.org/TR/2001/REC-SVG-20010904/DTD/svg10.dtd">
<svg version="1.0" xmlns="http://www.w3.org/2000/svg"
 width="206.000000pt" height="202.000000pt" viewBox="0 0 206.000000 202.000000"
 preserveAspectRatio="xMidYMid meet">
<metadata>
Created by potrace 1.16, written by Peter Selinger 2001-2019
</metadata>
<g transform="translate(0.000000,202.000000) scale(0.100000,-0.100000)"
fill="#000000" stroke="none">
<path d="M1352 1932 c-21 -7 -95 -91 -108 -122 -6 -14 -23 -45 -38 -68 -14
-23 -26 -46 -26 -50 0 -5 -25 -54 -55 -109 -30 -56 -55 -109 -55 -120 0 -10
-4 -23 -9 -29 -10 -11 -61 -160 -61 -180 0 -30 -24 -64 -45 -64 -12 0 -36 -10
-53 -22 -103 -76 -121 -88 -128 -88 -4 0 -5 45 -2 100 6 111 21 143 79 155 16
4 35 15 42 26 8 10 38 32 68 48 42 22 54 34 54 52 0 39 -45 36 -131 -7 -41
-20 -77 -41 -80 -46 -3 -4 -14 -8 -25 -8 -17 0 -19 7 -19 58 0 53 -15 120 -41
185 -10 23 -17 27 -49 27 -52 0 -66 -19 -51 -73 12 -47 30 -147 38 -221 7 -55
-3 -67 -87 -108 -71 -35 -180 -109 -180 -123 0 -7 -7 -18 -15 -25 -23 -19 -19
-66 7 -84 42 -30 67 -20 132 50 50 55 117 104 141 104 3 0 5 -40 5 -89 0 -89
-1 -90 -32 -120 -18 -17 -36 -31 -40 -31 -4 0 -40 -27 -80 -60 -40 -32 -99
-81 -131 -107 -33 -26 -72 -53 -88 -60 -23 -10 -29 -18 -29 -43 0 -26 6 -33
34 -45 36 -15 57 -12 85 12 9 8 50 41 91 75 41 33 79 67 83 74 10 18 67 48 67
35 0 -5 -9 -51 -19 -102 -10 -52 -22 -119 -26 -149 -8 -60 -20 -88 -44 -107
-24 -18 -36 -16 -70 13 -28 23 -32 24 -37 9 -10 -25 7 -65 36 -86 14 -10 53
-20 91 -24 l67 -6 20 43 c25 52 36 97 52 206 8 53 18 87 29 95 9 7 31 30 50
51 31 37 60 58 206 156 92 61 109 74 163 117 29 24 57 43 62 43 13 0 13 -116
0 -160 -6 -19 -15 -80 -20 -135 -6 -55 -13 -128 -16 -162 -8 -71 5 -83 34 -33
10 17 25 30 37 30 11 0 39 9 62 20 47 21 102 22 127 1 18 -15 21 -75 6 -116
-14 -36 -90 -125 -106 -125 -8 0 -19 -9 -26 -20 -7 -11 -21 -20 -31 -20 -9 0
-49 -9 -88 -20 -68 -18 -72 -18 -95 -2 -20 14 -24 25 -22 68 2 63 -6 78 -34
63 -33 -18 -57 -86 -49 -139 4 -25 10 -51 15 -58 25 -41 219 -38 281 4 11 8
28 14 38 14 22 0 125 96 172 160 47 64 59 117 43 186 -15 64 -46 97 -106 114
-47 13 -119 13 -127 0 -3 -5 -15 -10 -27 -10 -19 0 -20 4 -14 61 4 33 16 77
26 97 13 25 22 68 26 127 3 50 10 106 16 125 10 32 62 90 82 90 4 0 22 11 40
26 17 14 58 45 91 69 97 70 129 108 109 128 -4 3 -27 -5 -53 -20 -104 -58
-137 -77 -156 -92 -28 -23 -86 -54 -90 -49 -11 11 10 113 26 129 30 30 42 59
30 73 -13 16 -116 15 -132 -1 -6 -6 -15 -69 -20 -140 -5 -70 -11 -133 -14
-140 -2 -7 -21 -21 -42 -32 -21 -10 -76 -47 -123 -82 -88 -66 -97 -71 -202
-128 -35 -18 -69 -38 -75 -43 -10 -8 -13 -5 -13 10 0 12 27 44 69 81 60 54 69
59 74 41 7 -25 16 -25 48 3 25 21 84 130 180 332 24 50 53 104 65 120 13 17
32 55 44 85 12 30 32 66 46 81 13 14 24 33 24 42 0 9 8 25 18 35 34 35 92 111
92 120 0 24 -55 45 -88 34z"/>
</g>
</svg>
