<?xml version="1.0" standalone="no"?>
<!DOCTYPE svg PUBLIC "-//W3C//DTD SVG 20010904//EN"
 "http://www.w3.org/TR/2001/REC-SVG-20010904/DTD/svg10.dtd">
<svg version="1.0" xmlns="http://www.w3.org/2000/svg"
 width="205.000000pt" height="202.000000pt" viewBox="0 0 205.000000 202.000000"
 preserveAspectRatio="xMidYMid meet">
<metadata>
Created by potrace 1.16, written by Peter Selinger 2001-2019
</metadata>
<g transform="translate(0.000000,202.000000) scale(0.100000,-0.100000)"
fill="#000000" stroke="none">
<path d="M1426 1980 c-33 -30 -47 -54 -65 -112 -13 -40 -34 -96 -47 -125 -13
-28 -24 -57 -24 -63 0 -7 -9 -24 -19 -39 -11 -15 -41 -76 -66 -135 -25 -59
-59 -136 -76 -172 -17 -36 -34 -84 -36 -106 -5 -35 -4 -40 13 -36 10 2 33 28
51 58 17 30 49 81 70 114 21 32 41 63 44 70 3 6 14 25 23 41 10 17 35 68 58
115 22 47 53 112 69 145 16 33 29 66 29 73 0 6 3 12 8 12 4 0 13 14 21 31 8
17 26 46 41 63 52 60 48 89 -13 99 -35 5 -43 2 -81 -33z"/>
<path d="M601 1879 c-21 -8 -23 -13 -16 -47 3 -20 10 -70 14 -110 7 -82 6 -85
-66 -121 -23 -11 -45 -25 -48 -31 -4 -6 -28 -20 -53 -32 -62 -29 -122 -77
-122 -98 0 -9 9 -25 20 -35 11 -10 20 -24 20 -32 0 -23 38 -14 72 17 18 16 47
40 65 52 18 13 53 38 78 56 26 19 49 31 53 27 4 -4 7 -77 7 -162 l0 -156 -90
-63 c-49 -35 -107 -72 -127 -82 -21 -10 -49 -31 -62 -45 -14 -15 -39 -30 -56
-34 -58 -11 -65 -100 -10 -128 27 -14 30 -13 101 44 41 32 88 71 105 87 17 16
50 42 72 58 23 16 42 34 42 39 0 7 3 7 9 1 8 -9 6 -37 -19 -259 -6 -55 -13
-126 -16 -157 -3 -32 -11 -79 -19 -105 -8 -27 -15 -60 -15 -75 0 -73 -45 -22
-60 67 -5 32 -14 63 -20 69 -19 19 -38 -17 -45 -84 -5 -57 -3 -70 19 -110 14
-25 35 -64 46 -87 21 -44 70 -79 95 -69 8 3 17 21 21 41 3 19 10 37 14 40 5 3
11 24 15 48 4 23 18 84 31 136 13 51 24 107 24 125 0 30 2 31 43 32 40 1 75
20 148 83 8 6 42 30 77 53 35 23 68 50 73 60 5 10 15 18 20 18 14 0 139 91
139 101 0 4 11 10 24 13 14 3 31 12 38 19 12 12 115 77 121 77 1 0 -1 -39 -5
-87 -7 -82 -13 -119 -36 -218 -20 -82 -23 -125 -9 -125 10 0 43 58 46 83 0 4
12 29 26 55 14 26 28 64 31 85 4 20 10 37 14 37 3 0 15 46 25 103 10 56 24
111 32 122 7 11 13 27 13 36 0 15 69 78 87 79 4 1 32 23 62 50 53 48 63 80 26
80 -15 0 -92 -35 -132 -60 -12 -8 -25 -11 -29 -7 -10 10 17 147 34 174 17 27
10 53 -16 53 -10 0 -22 4 -27 9 -16 14 -74 -16 -79 -41 -12 -60 -27 -208 -22
-216 21 -34 -49 -107 -159 -167 -27 -15 -66 -39 -85 -54 -19 -15 -57 -40 -83
-56 -54 -34 -114 -74 -201 -137 -79 -58 -107 -76 -133 -88 -13 -5 -23 -14 -23
-20 0 -5 -7 -10 -16 -10 -13 0 -15 8 -10 38 3 20 13 98 21 172 9 74 20 144 25
155 5 11 14 37 20 57 6 20 18 42 26 48 17 15 19 66 2 76 -6 4 -14 2 -16 -4 -2
-7 -9 -12 -16 -12 -9 0 -15 23 -19 68 -10 100 -8 142 4 142 8 0 10 17 5 56 -5
46 -3 60 14 84 27 38 26 60 -4 60 -20 0 -26 9 -41 53 -18 57 -50 97 -74 96 -9
0 -27 -5 -40 -10z m30 -1092 c-8 -8 -11 -7 -11 4 0 20 13 34 18 19 3 -7 -1
-17 -7 -23z m-21 -309 c0 -13 -23 -5 -28 10 -2 7 2 10 12 6 9 -3 16 -11 16
-16z"/>
<path d="M1419 793 c-18 -5 -51 -61 -69 -118 -7 -22 -17 -45 -22 -51 -5 -7
-14 -31 -21 -55 -18 -62 -37 -62 -37 0 0 38 -4 53 -17 59 -29 15 -83 2 -100
-24 -14 -22 -14 -28 2 -69 31 -83 61 -130 88 -139 50 -18 95 25 112 106 4 17
16 47 26 65 11 19 19 41 19 51 0 23 43 72 64 72 23 0 102 -67 127 -106 30 -49
25 -76 -29 -133 -51 -54 -62 -60 -62 -36 0 8 -4 15 -9 15 -42 0 -200 -92 -283
-165 -24 -21 -23 -71 1 -85 33 -17 76 -11 112 15 19 14 67 41 107 60 113 55
240 189 262 277 10 40 9 49 -11 89 -21 41 -62 89 -76 89 -3 0 -28 20 -54 45
-48 45 -76 53 -130 38z"/>
</g>
</svg>
