<?xml version="1.0" standalone="no"?>
<!DOCTYPE svg PUBLIC "-//W3C//DTD SVG 20010904//EN"
 "http://www.w3.org/TR/2001/REC-SVG-20010904/DTD/svg10.dtd">
<svg version="1.0" xmlns="http://www.w3.org/2000/svg"
 width="209.000000pt" height="202.000000pt" viewBox="0 0 209.000000 202.000000"
 preserveAspectRatio="xMidYMid meet">
<metadata>
Created by potrace 1.16, written by Peter Selinger 2001-2019
</metadata>
<g transform="translate(0.000000,202.000000) scale(0.100000,-0.100000)"
fill="#000000" stroke="none">
<path d="M1305 1869 c-38 -21 -88 -41 -110 -44 -80 -12 -93 -17 -99 -32 -18
-46 53 -81 128 -63 22 5 43 7 48 4 7 -4 -24 -71 -57 -123 -6 -9 -39 -69 -74
-133 -34 -65 -66 -118 -70 -118 -4 0 -15 -15 -25 -32 -10 -18 -31 -46 -46 -63
-15 -16 -31 -40 -34 -52 -4 -12 -15 -24 -24 -27 -48 -16 -46 -85 2 -107 22
-10 35 -4 128 57 56 37 132 89 168 116 36 26 82 60 103 75 21 16 65 50 98 76
33 27 72 54 88 60 30 13 70 42 134 100 33 29 39 39 28 46 -15 10 -80 -12 -149
-49 -83 -46 -208 -122 -227 -139 -43 -39 -145 -85 -145 -66 0 8 32 57 47 73 7
7 13 20 13 28 0 8 4 14 9 14 14 0 184 321 201 380 8 29 7 37 -7 48 -26 19 -52
13 -128 -29z"/>
<path d="M495 1643 c-11 -3 -24 -9 -29 -13 -17 -16 -6 -168 20 -292 l26 -122
-24 -19 c-74 -59 -158 -142 -158 -156 1 -26 33 -61 65 -69 l29 -8 -65 -53
c-95 -78 -127 -109 -146 -142 -10 -16 -25 -31 -34 -34 -24 -8 -31 -46 -13 -73
14 -21 22 -24 61 -19 34 4 51 12 69 33 13 16 23 35 24 42 0 29 106 152 129
152 5 0 12 9 16 19 8 25 45 35 45 13 -1 -79 -23 -275 -34 -312 -8 -25 -17 -67
-21 -95 -4 -27 -13 -65 -21 -84 -14 -32 -15 -33 -33 -17 -10 9 -31 44 -46 77
-22 50 -29 58 -41 48 -24 -20 -17 -98 14 -155 113 -211 155 -202 215 46 36
148 77 435 77 542 0 74 4 82 61 124 50 36 63 64 32 64 -10 -1 -29 -7 -43 -15
-36 -21 -40 -19 -40 18 0 25 9 42 38 69 20 20 51 43 67 51 42 21 79 63 72 81
-9 24 -50 19 -88 -9 -47 -34 -100 -58 -108 -48 -12 14 -34 136 -33 187 1 60
14 76 42 51 11 -10 23 -16 26 -13 9 9 -7 55 -24 72 -71 67 -79 70 -127 59z"/>
<path d="M1502 1343 c-26 -24 -67 -131 -81 -216 -7 -37 -16 -78 -20 -90 -12
-31 -214 -167 -228 -153 -3 3 4 36 16 74 17 53 34 82 72 121 51 53 55 71 16
71 -28 0 -107 -29 -129 -48 -21 -18 -74 -143 -83 -197 -17 -97 -23 -109 -76
-140 -28 -16 -76 -46 -107 -65 -31 -20 -84 -49 -116 -65 -65 -33 -166 -122
-166 -146 0 -19 27 -44 57 -53 18 -6 44 8 119 61 183 130 233 162 237 155 3
-4 8 -72 12 -152 8 -154 15 -190 40 -190 36 0 48 47 56 208 4 87 11 169 15
185 6 27 71 87 94 87 6 0 26 11 44 25 18 14 37 25 41 25 5 0 17 8 28 18 19 17
19 16 14 -28 -3 -25 -10 -92 -16 -150 -7 -58 -19 -148 -27 -200 -23 -153 -44
-350 -44 -417 0 -55 2 -63 19 -63 29 0 48 55 81 245 6 33 17 92 25 130 8 39
22 115 30 170 46 286 56 337 76 389 20 50 28 59 83 91 68 39 198 146 229 187
21 28 17 58 -8 58 -8 0 -43 -19 -76 -42 -159 -112 -199 -133 -199 -108 0 15
52 142 67 165 18 26 16 62 -3 69 -29 11 -72 6 -92 -11z"/>
</g>
</svg>
