<?xml version="1.0" standalone="no"?>
<!DOCTYPE svg PUBLIC "-//W3C//DTD SVG 20010904//EN"
 "http://www.w3.org/TR/2001/REC-SVG-20010904/DTD/svg10.dtd">
<svg version="1.0" xmlns="http://www.w3.org/2000/svg"
 width="205.000000pt" height="205.000000pt" viewBox="0 0 205.000000 205.000000"
 preserveAspectRatio="xMidYMid meet">
<metadata>
Created by potrace 1.16, written by Peter Selinger 2001-2019
</metadata>
<g transform="translate(0.000000,205.000000) scale(0.100000,-0.100000)"
fill="#000000" stroke="none">
<path d="M1384 1916 c-41 -18 -56 -60 -59 -163 -1 -78 -4 -88 -26 -104 -13
-10 -37 -29 -54 -43 -73 -63 -103 -86 -112 -86 -5 0 -30 -20 -55 -44 -34 -32
-53 -43 -68 -39 -11 3 -34 0 -50 -7 -17 -7 -34 -9 -38 -6 -4 4 -8 59 -8 122
-2 106 -4 116 -27 144 -31 36 -47 37 -81 8 -29 -26 -29 -14 10 -257 14 -85 14
-95 -1 -111 -9 -10 -29 -21 -43 -25 -39 -10 -251 -115 -290 -144 -40 -29 -41
-69 -2 -88 21 -11 31 -8 79 17 30 17 60 30 68 30 7 0 30 16 52 35 21 19 44 35
50 35 6 0 28 9 48 20 21 11 40 16 44 12 4 -4 9 -47 10 -96 3 -89 3 -90 -26
-110 -16 -12 -52 -42 -81 -68 -28 -27 -54 -48 -57 -48 -4 0 -32 -17 -63 -37
-31 -21 -71 -47 -88 -58 -49 -30 -166 -127 -166 -138 0 -14 60 -67 76 -67 7 0
17 6 21 13 4 7 34 30 67 52 32 22 63 47 70 56 6 8 46 39 88 67 42 29 90 66
107 84 16 18 32 30 35 27 6 -6 -22 -327 -30 -349 -3 -8 -12 -64 -20 -125 -22
-180 -26 -205 -34 -205 -13 0 -99 100 -127 147 -16 28 -31 43 -42 41 -24 -5
-18 -80 11 -127 40 -68 98 -152 123 -179 13 -14 30 -40 37 -56 15 -39 25 -46
70 -46 l36 0 6 73 c3 39 8 126 11 192 3 66 14 181 26 255 11 74 24 185 30 245
5 61 17 141 26 179 15 65 22 75 87 140 70 71 116 129 116 146 0 19 -34 9 -84
-24 -28 -19 -60 -43 -70 -55 -11 -12 -25 -21 -31 -21 -17 0 -23 61 -14 143 5
56 12 74 35 98 34 35 40 36 48 5 3 -13 17 -31 31 -40 24 -16 27 -15 65 9 23
14 45 36 49 48 5 13 25 37 45 55 20 17 36 36 36 41 0 6 12 18 28 28 15 10 30
21 33 26 23 33 21 -135 -3 -278 -9 -58 -17 -75 -42 -97 -17 -15 -35 -27 -40
-28 -4 0 -28 -13 -53 -30 -24 -16 -48 -30 -52 -30 -5 0 -34 -21 -65 -47 -43
-36 -56 -54 -56 -75 0 -50 71 -77 108 -40 35 34 109 92 119 92 6 0 18 11 27
25 9 14 20 25 25 25 4 0 8 -56 9 -125 l0 -125 -28 -20 c-16 -11 -31 -20 -36
-20 -4 0 -21 -10 -38 -23 -17 -13 -59 -34 -94 -46 -60 -23 -149 -74 -164 -96
-16 -21 -7 -44 24 -63 l31 -20 116 60 c64 33 123 66 131 73 23 19 49 25 56 14
19 -32 -3 -233 -46 -417 -20 -87 -25 -95 -61 -121 -21 -16 -53 -34 -71 -41
-73 -28 -84 -34 -106 -62 l-24 -28 122 0 c110 0 125 2 153 23 51 36 136 85
160 93 12 3 48 19 79 35 34 17 59 25 63 19 12 -19 61 -10 134 25 40 19 81 35
91 35 32 0 50 28 50 80 0 40 -3 49 -20 53 -45 12 -168 -18 -275 -68 -22 -10
-77 -36 -123 -57 -46 -21 -88 -38 -94 -38 -15 0 -3 77 15 98 20 23 47 152 58
280 15 183 17 189 91 265 72 75 94 108 85 131 -11 28 -41 17 -104 -39 -34 -31
-64 -51 -67 -46 -9 14 14 108 29 121 8 6 11 19 8 28 -10 28 -45 62 -64 62 -21
0 8 31 87 95 93 74 155 141 148 159 -7 19 -53 33 -63 20 -9 -14 -80 -67 -123
-93 l-38 -23 7 34 c3 18 12 51 20 73 14 40 49 261 55 345 2 33 -1 45 -11 45
-15 0 -23 52 -11 70 13 18 21 66 15 86 -7 22 -28 24 -71 5z"/>
</g>
</svg>
