<?xml version="1.0" standalone="no"?>
<!DOCTYPE svg PUBLIC "-//W3C//DTD SVG 20010904//EN"
 "http://www.w3.org/TR/2001/REC-SVG-20010904/DTD/svg10.dtd">
<svg version="1.0" xmlns="http://www.w3.org/2000/svg"
 width="208.000000pt" height="205.000000pt" viewBox="0 0 208.000000 205.000000"
 preserveAspectRatio="xMidYMid meet">
<metadata>
Created by potrace 1.16, written by Peter Selinger 2001-2019
</metadata>
<g transform="translate(0.000000,205.000000) scale(0.100000,-0.100000)"
fill="#000000" stroke="none">
<path d="M784 1709 c-18 -5 -35 -16 -38 -25 -3 -9 -13 -93 -22 -187 -8 -95
-23 -228 -33 -297 -29 -200 -27 -222 24 -256 23 -15 27 -15 54 2 46 30 266
232 321 295 48 55 63 89 39 89 -17 0 -149 -89 -149 -100 0 -6 -21 -20 -47 -32
-27 -11 -67 -36 -90 -54 -44 -36 -63 -42 -63 -21 0 17 31 208 37 227 4 11 7
10 13 -6 5 -12 22 -26 39 -32 27 -9 38 -7 83 17 29 15 86 60 127 99 76 75 152
131 212 156 42 18 49 24 42 42 -16 41 -169 -9 -278 -91 -41 -30 -80 -55 -88
-55 -8 0 -25 -8 -38 -19 -13 -10 -34 -21 -46 -25 -11 -4 -27 -13 -33 -21 -26
-31 -32 -15 -26 73 4 48 12 113 18 144 8 45 8 61 -2 73 -14 17 -13 17 -56 4z"/>
<path d="M460 1622 c-35 -17 -35 -17 -42 -102 -18 -233 -19 -242 -47 -267 -14
-14 -44 -33 -67 -43 -56 -27 -94 -64 -94 -93 0 -35 44 -61 98 -58 l43 2 -3
-66 -3 -66 -45 -23 c-25 -13 -81 -41 -125 -62 -87 -43 -103 -68 -69 -105 22
-24 58 -24 92 0 15 10 44 24 64 30 21 7 40 17 43 22 4 5 10 9 16 9 14 0 10
-57 -11 -150 -11 -47 -20 -97 -20 -112 0 -15 -4 -29 -9 -32 -9 -6 -129 16
-161 29 -8 3 -25 21 -38 40 -29 46 -52 46 -52 1 0 -69 78 -136 177 -151 24 -3
49 -12 56 -19 37 -38 107 -50 107 -18 0 10 7 27 15 39 9 13 13 32 10 45 -3 13
-1 52 5 88 6 36 16 102 23 148 8 45 19 88 25 94 7 7 12 23 12 38 1 14 6 35 13
46 11 20 90 93 120 111 18 11 67 78 67 91 0 25 -59 11 -116 -28 -33 -22 -65
-40 -71 -40 -15 0 -17 26 -4 34 5 3 16 41 26 83 9 43 19 86 21 95 3 10 31 38
62 62 49 39 92 90 92 110 0 15 -69 3 -105 -19 -55 -34 -64 -33 -55 13 12 62
33 126 47 143 23 28 15 56 -23 78 -19 12 -36 21 -37 21 -1 -1 -18 -9 -37 -18z"/>
<path d="M1353 1182 c-13 -4 -35 -17 -50 -29 -16 -12 -46 -36 -68 -53 -22 -16
-46 -34 -52 -40 -7 -6 -28 -20 -48 -31 -19 -12 -35 -25 -35 -29 0 -4 -15 -15
-32 -24 -18 -9 -67 -37 -108 -61 -71 -42 -88 -51 -150 -79 -32 -14 -40 -25
-40 -58 0 -17 -6 -28 -17 -30 -31 -6 -61 -161 -75 -379 -6 -108 -9 -203 -5
-212 3 -9 15 -17 26 -17 36 0 66 95 76 240 6 94 17 117 33 72 7 -21 18 -31 40
-35 33 -7 105 30 207 104 28 20 60 40 73 44 16 5 22 13 20 28 -3 19 -9 22 -51
20 -46 -1 -158 -43 -261 -98 l-48 -26 6 38 c4 21 13 54 21 73 8 19 19 54 25
77 9 36 20 49 80 90 39 26 89 59 113 73 48 28 150 101 200 142 17 15 33 25 35
23 3 -2 -1 -64 -8 -137 -15 -168 -10 -592 7 -609 18 -18 43 6 43 41 0 15 8 42
17 61 14 27 17 71 20 234 3 200 14 305 38 380 19 61 28 170 15 194 -11 22 -13
23 -47 13z"/>
<path d="M1160 413 c-66 -28 -247 -142 -286 -180 -22 -21 -53 -45 -69 -53 -44
-21 -104 -69 -116 -92 -8 -14 -7 -25 5 -42 19 -30 60 -38 97 -19 30 15 43 27
167 156 41 41 89 83 108 92 19 9 42 27 51 41 9 14 36 39 60 55 62 43 51 71
-17 42z"/>
</g>
</svg>
