<?xml version="1.0" standalone="no"?>
<!DOCTYPE svg PUBLIC "-//W3C//DTD SVG 20010904//EN"
 "http://www.w3.org/TR/2001/REC-SVG-20010904/DTD/svg10.dtd">
<svg version="1.0" xmlns="http://www.w3.org/2000/svg"
 width="209.000000pt" height="206.000000pt" viewBox="0 0 209.000000 206.000000"
 preserveAspectRatio="xMidYMid meet">
<metadata>
Created by potrace 1.16, written by Peter Selinger 2001-2019
</metadata>
<g transform="translate(0.000000,206.000000) scale(0.100000,-0.100000)"
fill="#000000" stroke="none">
<path d="M1204 1923 c-25 -5 -38 -28 -58 -108 -8 -33 -22 -86 -31 -119 -10
-35 -13 -62 -7 -68 14 -14 42 2 59 36 9 17 29 46 44 64 16 18 29 42 29 52 0
11 4 20 9 20 22 0 39 94 21 115 -12 15 -25 16 -66 8z"/>
<path d="M1630 1913 c-8 -3 -28 -19 -44 -35 -17 -15 -35 -28 -42 -28 -7 0 -41
-23 -76 -52 -35 -29 -67 -56 -73 -61 -23 -18 -142 -105 -189 -137 -75 -51
-175 -128 -225 -174 -27 -23 -46 -35 -49 -28 -10 30 -91 -2 -242 -95 -36 -23
-69 -38 -73 -36 -14 8 10 234 27 250 2 3 14 -1 26 -7 28 -15 36 -6 24 27 -19
55 -107 91 -147 61 -23 -18 -37 -123 -37 -281 l0 -127 -27 -12 c-16 -7 -44
-24 -63 -39 -19 -15 -71 -48 -115 -75 -88 -52 -95 -59 -95 -92 0 -26 54 -64
79 -54 27 10 125 76 149 99 44 45 53 32 50 -64 l-3 -88 -67 -40 c-36 -22 -78
-50 -92 -62 -14 -12 -44 -32 -66 -43 -46 -23 -66 -60 -50 -90 31 -59 104 -42
192 44 51 49 62 47 55 -11 -4 -27 -9 -77 -13 -112 -6 -57 -8 -62 -20 -46 -8
10 -14 29 -14 41 0 27 -27 51 -41 37 -6 -6 -13 -28 -16 -49 -4 -31 3 -55 31
-113 41 -86 66 -109 102 -92 13 6 24 19 24 29 0 10 5 23 11 29 5 5 12 25 14
44 3 19 10 68 16 109 6 41 9 80 8 85 -7 23 13 118 35 164 16 36 39 62 77 90
30 22 62 47 71 57 16 15 64 44 75 44 2 0 1 -5 -3 -11 -3 -6 0 -15 7 -20 14 -9
59 25 59 45 0 6 11 34 25 61 26 53 31 90 15 100 -6 3 -10 40 -10 81 l0 75 -37
-6 c-33 -5 -35 -5 -18 6 11 7 31 24 45 38 l24 26 6 -30 c5 -31 38 -55 77 -55
12 0 38 17 60 41 151 160 188 192 303 261 25 14 65 45 90 67 l45 41 3 -38 c2
-20 -7 -96 -18 -167 -12 -72 -25 -163 -29 -203 -9 -82 -8 -80 -118 -144 -62
-37 -93 -46 -93 -30 0 4 9 41 21 82 19 71 19 75 3 87 -26 19 -49 16 -82 -12
-19 -16 -31 -38 -35 -62 -18 -112 -39 -189 -54 -204 -10 -9 -61 -38 -113 -65
-52 -27 -97 -52 -100 -55 -3 -4 -27 -19 -55 -34 -27 -16 -53 -33 -57 -39 -13
-20 -8 -64 9 -81 37 -37 203 12 203 60 0 16 28 40 37 31 3 -3 1 -16 -5 -29 -6
-12 -22 -57 -36 -100 -23 -69 -36 -95 -84 -172 -7 -11 -15 -28 -18 -38 -4 -9
-10 -17 -14 -17 -10 0 -70 -96 -70 -110 0 -26 72 -81 124 -94 55 -15 96 -32
96 -42 0 -20 -35 -81 -62 -106 -25 -24 -30 -33 -21 -46 21 -34 47 -25 104 35
30 32 62 69 72 82 l16 25 48 -22 c27 -11 66 -26 88 -32 22 -7 60 -21 84 -32
36 -17 45 -18 52 -7 5 8 9 17 9 20 0 16 -66 63 -152 109 -54 28 -98 54 -98 56
0 3 7 18 15 33 8 16 30 77 50 136 20 59 40 114 45 123 16 30 39 86 56 137 19
60 68 160 95 194 11 13 29 45 39 69 11 25 33 59 49 76 137 146 145 159 116
202 -13 20 -22 24 -41 20 -28 -8 -28 -10 -8 95 9 46 24 134 34 194 10 61 27
133 38 160 28 69 43 158 28 167 -13 9 -25 9 -46 1z m-837 -699 c10 -20 20 -55
24 -79 5 -41 4 -44 -28 -60 -19 -10 -54 -34 -79 -54 -25 -20 -60 -47 -78 -60
-29 -20 -33 -21 -38 -6 -4 9 -4 53 0 97 6 68 11 85 33 109 15 15 38 31 52 34
14 4 35 17 48 31 30 33 46 30 66 -12z m502 -271 c-20 -43 -45 -94 -55 -113 -9
-19 -46 -120 -80 -225 -93 -280 -89 -275 -157 -254 -61 19 -65 39 -19 107 48
72 78 136 136 292 27 74 62 153 77 174 27 38 121 111 130 102 3 -2 -12 -40
-32 -83z"/>
</g>
</svg>
