<?xml version="1.0" standalone="no"?>
<!DOCTYPE svg PUBLIC "-//W3C//DTD SVG 20010904//EN"
 "http://www.w3.org/TR/2001/REC-SVG-20010904/DTD/svg10.dtd">
<svg version="1.0" xmlns="http://www.w3.org/2000/svg"
 width="207.000000pt" height="206.000000pt" viewBox="0 0 207.000000 206.000000"
 preserveAspectRatio="xMidYMid meet">
<metadata>
Created by potrace 1.16, written by Peter Selinger 2001-2019
</metadata>
<g transform="translate(0.000000,206.000000) scale(0.100000,-0.100000)"
fill="#000000" stroke="none">
<path d="M1368 1882 c-21 -4 -25 -17 -33 -123 -5 -69 -4 -88 8 -98 20 -16 43
8 74 76 14 33 32 58 48 65 25 11 35 51 16 63 -15 9 -94 21 -113 17z"/>
<path d="M1575 1699 c-33 -11 -59 -23 -215 -97 -58 -27 -127 -57 -153 -66 -27
-9 -73 -32 -103 -51 -30 -19 -60 -35 -68 -35 -43 0 -46 -72 -5 -102 24 -18 28
-18 60 -5 19 9 49 29 68 46 18 17 38 31 43 31 5 0 45 21 89 46 45 25 83 43 86
40 4 -3 -16 -30 -43 -59 -93 -100 -129 -142 -148 -172 -10 -16 -37 -48 -60
-70 -22 -22 -48 -49 -57 -60 -21 -26 -90 -79 -206 -161 -103 -72 -116 -93 -82
-130 24 -25 72 -33 85 -13 3 6 30 21 58 34 28 13 75 40 105 60 30 21 82 51
115 67 63 30 158 94 236 157 53 44 160 114 166 108 2 -2 -3 -27 -11 -55 -9
-28 -22 -117 -30 -198 -7 -80 -16 -148 -18 -150 -3 -3 -36 -6 -74 -8 -38 -2
-80 -9 -93 -16 -14 -8 -41 -17 -60 -21 -115 -24 -199 -54 -206 -74 -10 -25 5
-65 28 -74 23 -8 137 23 193 52 82 43 167 78 182 75 17 -3 18 -17 15 -168 -2
-100 -8 -175 -15 -189 -9 -18 -63 -51 -186 -113 -95 -49 -176 -87 -178 -84 -3
3 24 35 61 72 36 37 66 75 66 84 0 10 7 23 15 30 8 7 15 19 15 26 0 20 -27 17
-42 -5 -17 -24 -89 -81 -156 -123 -30 -18 -71 -47 -93 -65 -21 -17 -57 -40
-78 -50 -53 -24 -69 -58 -43 -92 20 -27 61 -33 127 -18 17 4 48 11 70 15 39 9
84 28 135 57 14 7 32 16 40 19 17 6 60 33 150 93 35 24 67 43 71 43 8 0 27
-32 48 -77 14 -31 46 -46 70 -33 29 15 34 45 20 115 l-12 63 36 32 c52 45 50
76 -5 71 -10 -1 -18 4 -18 11 1 73 22 370 31 428 19 127 50 273 65 302 8 15
28 47 44 72 17 25 35 59 41 75 6 17 15 31 20 31 11 0 49 74 49 95 0 20 -38 34
-74 28 -15 -3 -39 -21 -54 -40 -15 -18 -45 -44 -67 -58 -22 -13 -58 -40 -80
-59 -22 -20 -45 -36 -51 -36 -6 0 -40 -22 -75 -48 -65 -49 -119 -83 -153 -95
-17 -7 -17 -6 1 24 11 17 33 45 50 62 16 18 35 42 42 55 6 12 17 22 22 22 6 0
20 12 32 26 44 56 152 166 182 184 43 26 66 97 39 117 -20 15 -19 15 -59 2z"/>
<path d="M470 1681 c-24 -7 -25 -10 -22 -83 3 -86 2 -87 -81 -118 -31 -12 -57
-26 -57 -31 0 -5 -5 -9 -11 -9 -5 0 -26 -12 -45 -27 -38 -31 -43 -60 -18 -98
28 -42 76 -32 147 31 44 40 75 44 81 12 11 -51 28 -267 22 -277 -10 -15 -111
-81 -125 -81 -6 0 -28 -15 -48 -34 -21 -19 -65 -47 -98 -63 -33 -17 -80 -42
-105 -56 -25 -15 -52 -27 -61 -27 -9 0 -24 -9 -33 -19 -24 -26 -19 -114 6
-119 36 -7 208 93 278 161 38 37 86 67 136 84 l31 11 -3 -58 c-5 -90 -59 -377
-75 -405 -4 -5 -9 -22 -13 -37 -9 -38 -19 -35 -40 9 -13 28 -17 59 -16 122 1
48 2 96 1 109 -1 31 -31 29 -31 -3 0 -13 -7 -46 -17 -72 -20 -58 -21 -183 -2
-239 7 -21 28 -59 45 -82 18 -24 34 -48 36 -52 2 -4 17 -11 35 -14 30 -7 33
-5 52 35 12 24 21 57 21 73 0 17 5 47 10 66 33 109 81 343 91 441 7 71 19 128
30 151 11 21 19 42 19 49 0 11 69 79 80 79 6 0 23 12 67 50 7 5 17 10 22 10 5
0 12 8 16 18 3 9 26 32 50 51 47 35 60 71 26 71 -17 0 -140 -75 -220 -135 -64
-47 -68 -41 -75 98 -9 195 -9 198 33 226 20 13 68 42 106 64 77 44 96 62 88
83 -8 23 -42 16 -133 -25 -82 -38 -106 -43 -82 -19 20 20 14 33 -29 61 -43 28
-49 29 -89 18z"/>
</g>
</svg>
