<?xml version="1.0" standalone="no"?>
<!DOCTYPE svg PUBLIC "-//W3C//DTD SVG 20010904//EN"
 "http://www.w3.org/TR/2001/REC-SVG-20010904/DTD/svg10.dtd">
<svg version="1.0" xmlns="http://www.w3.org/2000/svg"
 width="209.000000pt" height="206.000000pt" viewBox="0 0 209.000000 206.000000"
 preserveAspectRatio="xMidYMid meet">
<metadata>
Created by potrace 1.16, written by Peter Selinger 2001-2019
</metadata>
<g transform="translate(0.000000,206.000000) scale(0.100000,-0.100000)"
fill="#000000" stroke="none">
<path d="M1293 1915 c-13 -9 -25 -31 -28 -53 -11 -68 -27 -136 -46 -201 -36
-119 -19 -132 53 -42 30 38 54 82 68 127 12 38 28 86 35 106 11 31 11 40 -2
57 -17 25 -50 27 -80 6z"/>
<path d="M1440 1660 c-19 -10 -55 -28 -80 -39 -25 -11 -68 -35 -96 -54 -62
-43 -119 -72 -247 -127 -150 -65 -173 -90 -117 -130 28 -20 31 -20 67 -5 21 9
45 24 53 34 8 10 35 26 60 35 25 10 69 34 98 54 85 58 136 91 152 98 8 4 23
14 33 22 9 8 17 12 17 9 0 -6 -52 -66 -141 -162 -31 -33 -79 -89 -109 -125
-79 -98 -490 -498 -522 -509 -25 -9 -28 -8 -27 12 2 53 25 96 74 136 27 23 52
41 55 41 12 0 41 62 36 76 -7 19 -40 18 -56 -2 -13 -15 -86 -54 -102 -54 -11
0 -10 148 2 192 11 39 44 58 101 58 24 0 29 4 29 24 0 35 -24 49 -84 49 l-54
0 -7 43 c-3 25 -2 52 5 64 19 35 2 169 -27 211 l-24 37 -41 -20 -40 -19 6 -77
c3 -42 8 -112 11 -154 3 -42 7 -83 10 -90 3 -7 0 -21 -7 -30 -12 -16 -168 -98
-186 -98 -19 0 -147 -73 -159 -90 -12 -17 -11 -25 6 -58 11 -22 27 -42 34 -45
30 -11 95 15 131 53 20 21 61 50 91 64 29 15 57 31 60 36 18 29 25 -1 25 -108
l0 -119 -82 -58 c-45 -31 -111 -73 -147 -92 -118 -62 -148 -110 -95 -152 15
-12 31 -21 37 -21 13 0 136 83 201 136 30 24 60 44 66 44 16 0 12 -169 -6
-255 -19 -92 -58 -208 -71 -212 -31 -11 -47 158 -23 247 6 23 9 48 6 56 -12
31 -33 10 -60 -64 -32 -84 -41 -198 -19 -243 6 -13 29 -60 50 -103 55 -115 89
-126 119 -41 39 108 84 270 100 357 l17 98 42 20 c23 11 59 35 81 53 21 18 55
44 74 57 19 13 54 41 77 62 24 21 47 38 52 38 5 0 16 6 23 13 7 8 30 25 49 38
20 13 69 46 108 72 40 27 74 54 77 62 3 7 43 39 90 70 46 32 87 62 90 66 12
20 24 7 24 -24 0 -38 -34 -226 -50 -277 -6 -19 -15 -104 -20 -188 -6 -84 -14
-160 -19 -170 -11 -21 -111 -71 -216 -107 -44 -15 -84 -31 -89 -36 -16 -15
-26 -10 -26 11 0 30 -26 35 -56 11 -15 -12 -32 -21 -39 -21 -12 0 -99 -40
-135 -61 -8 -5 -25 -13 -36 -18 -41 -18 -38 -68 6 -91 26 -14 53 -13 92 4 18
8 60 22 93 32 33 9 69 23 80 30 11 8 26 14 34 14 29 0 217 92 244 119 6 6 18
11 25 11 12 0 14 -13 9 -72 -4 -40 -9 -88 -13 -105 -6 -31 -5 -33 20 -33 21 0
30 8 42 38 9 20 22 51 30 67 7 17 17 50 20 75 9 65 29 102 69 128 41 26 38 42
-7 42 l-31 0 7 131 c3 73 15 166 25 208 30 121 43 214 45 329 l1 107 -33 3
c-26 3 -50 -8 -120 -54 -48 -32 -111 -76 -140 -97 -29 -22 -55 -37 -58 -34 -3
3 12 25 33 49 21 24 51 59 65 79 15 20 44 55 66 77 74 77 152 169 152 180 0 6
12 20 26 31 14 11 38 43 52 72 26 50 26 51 7 65 -24 17 -23 18 -65 -6z"/>
<path d="M1150 691 c-8 -5 -72 -12 -142 -15 -70 -3 -137 -10 -148 -16 -33 -18
-37 -58 -8 -87 23 -22 29 -24 64 -15 21 6 80 16 129 22 58 8 106 21 135 37 59
33 63 37 55 62 -5 16 -14 21 -38 21 -18 0 -39 -5 -47 -9z"/>
</g>
</svg>
