<?xml version="1.0" standalone="no"?>
<!DOCTYPE svg PUBLIC "-//W3C//DTD SVG 20010904//EN"
 "http://www.w3.org/TR/2001/REC-SVG-20010904/DTD/svg10.dtd">
<svg version="1.0" xmlns="http://www.w3.org/2000/svg"
 width="208.000000pt" height="212.000000pt" viewBox="0 0 208.000000 212.000000"
 preserveAspectRatio="xMidYMid meet">
<metadata>
Created by potrace 1.16, written by Peter Selinger 2001-2019
</metadata>
<g transform="translate(0.000000,212.000000) scale(0.100000,-0.100000)"
fill="#000000" stroke="none">
<path d="M1150 1851 c-14 -5 -53 -25 -88 -44 -34 -20 -78 -39 -97 -43 -40 -7
-125 -71 -125 -94 0 -27 30 -59 63 -68 l32 -9 -40 -21 c-73 -39 -87 -55 -90
-103 -2 -24 -10 -78 -19 -119 -9 -41 -16 -95 -16 -120 0 -25 -9 -88 -20 -140
-12 -52 -25 -117 -30 -145 -13 -72 -65 -267 -94 -355 -14 -41 -43 -138 -66
-215 -22 -77 -63 -190 -90 -252 -28 -61 -50 -114 -50 -117 0 -3 24 -6 54 -6
l53 0 33 67 c32 67 110 294 110 323 1 8 7 26 15 40 l14 25 2 -25 c3 -62 -3
-123 -23 -224 -20 -106 -20 -110 -3 -143 26 -48 54 -44 102 15 22 26 52 69 69
95 16 27 38 64 49 82 11 18 48 69 83 114 34 44 62 85 62 91 0 14 0 14 82 -29
40 -21 90 -44 111 -50 20 -7 37 -16 37 -20 0 -11 189 -101 211 -101 4 0 24
-11 43 -24 33 -22 215 -86 246 -86 8 0 31 -10 50 -22 39 -24 105 -39 198 -43
l62 -3 0 47 0 46 -43 1 c-53 2 -166 30 -187 48 -14 12 -114 45 -185 62 -16 4
-48 18 -70 32 -21 14 -69 37 -105 52 -36 15 -83 37 -105 49 -22 11 -44 21 -49
21 -5 0 -16 8 -25 18 -9 10 -40 32 -70 48 -30 16 -56 34 -58 39 -2 6 28 43 67
84 38 40 73 85 77 99 3 15 18 36 32 47 49 38 136 119 140 129 2 6 12 21 23 33
16 17 18 25 9 42 -15 27 -17 27 -58 -9 -18 -16 -43 -30 -55 -30 -15 0 -59 -37
-133 -113 -60 -62 -136 -134 -167 -161 -56 -46 -57 -47 -82 -31 -14 9 -52 19
-84 22 -51 5 -62 3 -81 -16 -11 -11 -21 -28 -21 -37 0 -18 64 -81 92 -90 10
-3 18 -9 18 -14 0 -5 -24 -37 -52 -73 -29 -35 -63 -77 -74 -93 -12 -16 -24
-26 -28 -23 -3 3 -1 79 4 170 17 273 74 405 216 502 177 122 212 157 168 174
-15 6 -217 -90 -283 -134 -36 -24 -71 -30 -71 -12 0 25 23 99 31 99 5 0 9 -4
9 -8 0 -5 12 -14 26 -21 33 -15 90 2 99 28 3 10 35 49 70 87 36 38 65 72 65
77 0 4 11 13 25 19 14 6 25 16 25 22 0 7 14 23 30 38 30 26 39 61 19 74 -17
10 -115 -44 -148 -81 -16 -18 -38 -38 -48 -44 -11 -5 -38 -25 -61 -43 -111
-90 -112 -91 -112 -56 0 33 19 146 37 215 11 45 29 78 65 122 l49 60 -21 21
c-29 29 -26 37 28 64 27 13 55 32 62 41 8 10 23 21 35 26 11 5 38 20 60 33 71
42 45 92 -35 67z"/>
<path d="M198 1496 c-15 -21 -16 -38 -8 -152 5 -71 14 -157 21 -191 12 -62 12
-62 -17 -87 -16 -14 -33 -26 -37 -26 -12 0 -118 -71 -139 -92 -14 -14 -18 -35
-18 -97 l0 -80 42 24 c23 13 46 32 52 43 16 28 122 123 130 115 3 -3 6 -25 6
-48 0 -30 -6 -47 -22 -62 -29 -27 -127 -93 -138 -93 -5 0 -22 -12 -39 -26 -29
-24 -31 -31 -31 -90 0 -35 4 -64 9 -64 4 0 23 11 42 25 19 13 45 32 59 41 14
10 40 31 57 48 18 16 36 26 40 23 4 -4 1 -65 -6 -135 -7 -70 -17 -176 -22
-237 -10 -116 -26 -195 -40 -195 -5 0 -20 18 -35 39 -14 22 -32 42 -39 45 -8
3 -25 29 -39 58 l-26 53 3 -95 2 -96 63 -63 c34 -35 62 -67 62 -72 0 -5 23 -9
50 -9 43 0 50 3 50 20 0 10 4 29 9 42 12 30 39 222 51 373 15 169 40 327 60
379 6 17 38 56 71 89 32 32 59 63 59 67 0 19 -18 17 -74 -11 -70 -35 -76 -35
-76 -7 0 56 24 125 49 141 14 10 42 27 61 39 19 12 43 33 53 45 10 13 24 23
30 23 7 0 30 19 52 41 22 22 48 45 58 50 9 5 17 16 17 24 0 31 -68 7 -195 -70
-22 -13 -47 -27 -55 -31 -8 -4 -27 -16 -42 -26 -14 -10 -29 -18 -32 -18 -12 0
-26 79 -25 145 1 88 10 119 34 123 11 2 24 8 28 12 16 15 -13 49 -51 60 -60
16 -95 12 -114 -14z"/>
</g>
</svg>
