<?xml version="1.0" standalone="no"?>
<!DOCTYPE svg PUBLIC "-//W3C//DTD SVG 20010904//EN"
 "http://www.w3.org/TR/2001/REC-SVG-20010904/DTD/svg10.dtd">
<svg version="1.0" xmlns="http://www.w3.org/2000/svg"
 width="209.000000pt" height="209.000000pt" viewBox="0 0 209.000000 209.000000"
 preserveAspectRatio="xMidYMid meet">
<metadata>
Created by potrace 1.16, written by Peter Selinger 2001-2019
</metadata>
<g transform="translate(0.000000,209.000000) scale(0.100000,-0.100000)"
fill="#000000" stroke="none">
<path d="M1255 2068 c4 -13 11 -54 16 -93 4 -38 14 -92 21 -120 8 -32 13 -117
13 -233 l0 -184 -33 -29 c-30 -27 -81 -41 -67 -19 11 18 -6 50 -25 50 -27 0
-114 -48 -121 -67 -9 -26 7 -105 35 -175 14 -36 26 -75 26 -89 0 -13 7 -49 15
-79 8 -30 15 -78 15 -107 0 -63 7 -83 30 -83 39 0 50 31 50 138 0 56 3 102 7
102 3 0 14 -7 23 -15 15 -14 23 -13 74 10 31 14 62 25 69 25 7 0 28 11 47 25
40 30 53 19 45 -35 -3 -19 -7 -86 -10 -147 -2 -62 -7 -117 -10 -123 -3 -6 -20
-17 -36 -25 -26 -14 -30 -14 -35 -1 -3 9 3 27 15 42 16 21 18 30 10 46 -10 18
-17 19 -67 13 -32 -4 -68 -13 -80 -22 -25 -16 -25 -11 -6 -116 l6 -32 -109
-55 c-59 -30 -128 -64 -153 -75 -63 -28 -158 -94 -171 -117 -16 -29 6 -74 43
-89 30 -12 34 -11 50 21 2 3 23 15 48 28 55 28 70 37 142 85 62 41 156 82 167
72 12 -13 3 -419 -12 -507 l-14 -88 58 0 c77 0 69 -41 84 435 3 116 8 217 11
226 6 20 49 40 69 33 8 -4 36 11 66 35 28 23 55 41 60 41 5 0 13 9 19 19 8 16
5 25 -12 44 -13 13 -30 26 -38 29 -14 5 -14 27 -4 194 16 244 19 263 59 364
56 144 74 217 60 236 -8 12 -20 15 -36 11 -21 -6 -41 -21 -125 -98 -12 -10
-25 -19 -28 -19 -4 0 -17 -10 -29 -21 -21 -21 -86 -53 -92 -47 -2 2 0 36 3 77
6 66 10 76 33 90 31 19 73 47 111 72 15 11 29 19 32 19 8 0 99 63 123 84 26
24 30 64 9 72 -8 3 -50 -12 -93 -33 -43 -22 -87 -43 -98 -46 -11 -4 -31 -14
-45 -22 -14 -8 -35 -15 -47 -15 -19 0 -22 7 -28 53 -10 79 -11 177 -2 220 l8
37 -77 0 c-75 0 -76 -1 -69 -22z m267 -659 c-2 -7 -9 -46 -15 -87 l-12 -74
-50 -26 c-75 -39 -126 -55 -137 -44 -7 7 -2 33 13 76 22 61 29 69 78 99 29 18
65 42 80 54 27 23 48 25 43 2z m-267 -201 c-11 -83 -37 -92 -50 -17 -6 33 -4
43 12 54 36 28 45 19 38 -37z"/>
<path d="M653 1629 c-38 -11 -37 -8 -18 -119 8 -47 16 -114 17 -149 l3 -65
-40 -13 c-73 -26 -143 -66 -156 -91 -11 -20 -11 -28 2 -50 8 -15 25 -29 39
-30 34 -5 101 16 127 40 33 30 53 17 53 -34 0 -24 3 -60 6 -80 7 -40 -9 -62
-85 -118 -19 -14 -58 -49 -86 -77 -28 -29 -59 -53 -68 -53 -9 0 -17 -4 -17
-10 0 -5 -21 -24 -47 -41 -60 -41 -72 -57 -73 -91 0 -48 80 -79 110 -43 7 8
18 15 25 15 6 0 27 19 45 42 58 73 192 208 201 202 19 -11 -4 -354 -32 -489
-5 -27 -16 -84 -24 -125 -8 -41 -14 -76 -14 -77 -2 -9 -41 0 -80 17 -117 53
-114 50 -129 117 -12 59 -31 80 -46 54 -17 -27 -17 -102 -1 -144 18 -49 51
-71 170 -117 33 -13 67 -29 76 -37 29 -25 89 -13 89 17 0 10 6 31 14 47 20 40
46 179 56 308 6 61 14 134 20 164 5 30 10 106 11 170 1 197 7 220 67 286 33
35 52 66 52 81 0 32 -16 30 -73 -6 -26 -16 -50 -30 -52 -30 -2 0 -2 39 0 87
l3 87 36 18 c58 30 40 72 -26 62 l-35 -6 -6 73 c-7 101 -24 172 -48 198 -22
23 -21 23 -66 10z"/>
</g>
</svg>
