<?xml version="1.0" standalone="no"?>
<!DOCTYPE svg PUBLIC "-//W3C//DTD SVG 20010904//EN"
 "http://www.w3.org/TR/2001/REC-SVG-20010904/DTD/svg10.dtd">
<svg version="1.0" xmlns="http://www.w3.org/2000/svg"
 width="208.000000pt" height="246.000000pt" viewBox="0 0 208.000000 246.000000"
 preserveAspectRatio="xMidYMid meet">
<metadata>
Created by potrace 1.16, written by Peter Selinger 2001-2019
</metadata>
<g transform="translate(0.000000,246.000000) scale(0.100000,-0.100000)"
fill="#000000" stroke="none">
<path d="M1126 2334 c-12 -12 -16 -37 -16 -103 0 -99 -25 -385 -39 -446 -16
-72 -30 -139 -36 -182 l-7 -43 48 -20 c55 -24 97 -17 102 17 4 25 95 119 136
140 16 8 46 31 66 51 141 137 150 143 150 95 0 -97 -24 -410 -32 -420 -5 -6
-15 -10 -21 -7 -7 2 -35 -11 -62 -29 -109 -71 -144 -88 -170 -81 -20 5 -33 0
-53 -18 -15 -14 -40 -32 -57 -39 -40 -19 -44 -52 -10 -75 20 -13 31 -15 48 -6
12 6 38 13 59 17 48 7 124 48 168 90 19 18 45 38 58 44 22 11 22 11 22 -47 0
-94 34 -106 62 -22 45 131 70 263 83 435 3 44 12 108 20 141 35 152 30 224
-15 224 -25 0 -188 -117 -293 -211 -47 -42 -201 -149 -214 -149 -3 0 2 11 11
25 9 13 16 37 16 52 0 15 9 51 19 78 17 44 23 51 53 56 37 6 108 45 108 59 0
4 19 20 43 34 76 45 127 96 127 126 0 28 -15 40 -49 40 -10 0 -49 -23 -87 -52
-78 -58 -140 -92 -154 -83 -10 6 -8 41 12 160 9 52 18 75 35 88 37 30 30 53
-21 66 -61 15 -92 14 -110 -5z"/>
<path d="M453 1934 c-37 -16 -40 -29 -17 -82 24 -56 53 -145 54 -163 0 -8 -29
-42 -65 -75 -66 -60 -76 -83 -51 -116 29 -39 106 -45 125 -10 17 30 31 0 31
-67 l0 -68 -47 -31 c-27 -17 -79 -56 -118 -87 -38 -31 -95 -72 -127 -90 -61
-36 -132 -100 -141 -127 -7 -21 29 -68 52 -68 41 0 174 101 237 181 28 35 111
96 119 87 5 -6 -13 -212 -24 -258 -5 -25 -12 -72 -15 -105 -9 -86 -16 -115
-39 -160 -26 -53 -34 -57 -76 -35 -48 25 -77 53 -101 100 -38 75 -67 63 -45
-19 12 -48 52 -121 65 -121 3 0 43 -25 89 -55 46 -31 86 -53 89 -50 3 3 11 -9
16 -27 9 -26 18 -35 48 -42 30 -7 41 -6 55 6 10 9 29 19 43 23 14 4 64 34 112
66 49 33 92 59 96 59 4 0 13 5 19 11 19 19 391 174 399 166 4 -4 -33 -223 -45
-260 -5 -18 -15 -63 -20 -102 -18 -115 -32 -189 -37 -195 -3 -3 -258 -5 -567
-5 l-562 0 -3 -43 -3 -43 188 2 c103 1 193 1 198 0 6 -1 168 -1 361 -1 193 0
359 -2 368 -6 12 -5 16 -20 16 -65 l0 -59 50 0 49 0 3 63 3 62 420 1 420 0 3
42 3 42 -208 1 c-489 3 -622 5 -628 11 -3 3 -1 25 4 49 6 24 29 138 52 254 22
116 49 226 59 245 10 19 21 43 24 53 3 9 18 22 33 28 15 6 78 35 138 65 61 29
126 60 145 67 19 8 56 33 83 57 41 36 47 47 47 80 0 59 -21 64 -105 24 -38
-18 -75 -34 -81 -34 -5 0 -20 -13 -32 -29 -12 -16 -47 -41 -79 -56 -32 -15
-66 -34 -75 -42 -9 -8 -27 -13 -40 -11 -26 3 -27 19 -7 119 10 49 9 60 -6 83
-18 27 -64 36 -94 17 -18 -11 -30 -84 -30 -189 -1 -81 -2 -83 -28 -92 -16 -6
-35 -14 -44 -19 -9 -5 -52 -22 -95 -37 -44 -14 -108 -40 -144 -56 -204 -93
-333 -157 -413 -203 -26 -15 -50 -25 -53 -22 -3 3 8 45 24 94 16 48 35 133 41
188 7 55 16 123 21 150 10 51 17 111 24 202 3 28 9 61 15 72 6 11 11 30 11 43
0 17 23 45 80 97 70 64 97 101 72 101 -9 0 -65 -29 -111 -58 -19 -11 -38 -19
-43 -16 -4 3 -8 50 -8 105 0 113 -2 110 93 170 51 33 55 40 32 59 -19 16 -78
6 -124 -21 -18 -11 -36 -17 -39 -14 -3 3 -7 34 -9 68 -3 57 -6 65 -43 100 -44
41 -42 41 -87 21z"/>
<path d="M1415 1600 c-44 -10 -175 -78 -181 -95 -3 -7 -22 -20 -43 -28 -55
-22 -80 -86 -42 -107 48 -25 126 4 163 62 25 37 47 56 131 113 20 14 37 30 37
35 0 16 -34 27 -65 20z"/>
<path d="M932 1441 c-23 -4 -50 -15 -59 -23 -16 -17 -14 -36 23 -183 49 -194
57 -208 100 -180 26 17 27 19 21 90 -3 40 -10 82 -16 93 -17 31 -13 116 6 150
9 16 14 36 10 45 -7 18 -16 19 -85 8z"/>
</g>
</svg>
