<?xml version="1.0" standalone="no"?>
<!DOCTYPE svg PUBLIC "-//W3C//DTD SVG 20010904//EN"
 "http://www.w3.org/TR/2001/REC-SVG-20010904/DTD/svg10.dtd">
<svg version="1.0" xmlns="http://www.w3.org/2000/svg"
 width="205.000000pt" height="205.000000pt" viewBox="0 0 205.000000 205.000000"
 preserveAspectRatio="xMidYMid meet">
<metadata>
Created by potrace 1.16, written by Peter Selinger 2001-2019
</metadata>
<g transform="translate(0.000000,205.000000) scale(0.100000,-0.100000)"
fill="#000000" stroke="none">
<path d="M1436 1838 c-125 -125 -173 -167 -199 -173 -32 -8 -32 -6 -12 43 20
46 13 75 -21 90 -38 18 -78 -3 -82 -43 -4 -52 -34 -179 -46 -194 -6 -8 -27
-21 -46 -30 -57 -27 -147 -89 -154 -106 -12 -32 -6 -64 13 -75 30 -16 68 -12
88 9 26 27 59 42 77 35 10 -4 27 5 45 22 16 16 64 56 106 89 43 33 96 76 119
96 22 19 58 48 79 64 l38 28 -5 -119 c-3 -65 -11 -155 -17 -199 -6 -44 -15
-116 -19 -160 -4 -44 -15 -106 -24 -138 -21 -77 -21 -97 3 -97 22 0 36 15 46
50 4 14 22 57 40 95 21 45 35 95 40 139 4 38 9 79 10 90 14 83 37 402 33 466
-3 63 -4 65 -31 68 -22 3 -38 -7 -81 -50z"/>
<path d="M639 1735 c-15 -8 -29 -22 -33 -30 -3 -9 1 -62 9 -117 9 -56 14 -102
13 -103 -6 -5 -99 -35 -109 -35 -27 0 -69 -42 -69 -69 0 -47 64 -86 93 -57 8
8 30 18 50 21 33 6 35 5 41 -22 3 -15 5 -80 4 -144 -1 -105 -3 -118 -24 -142
-13 -15 -27 -27 -32 -27 -5 0 -19 -11 -32 -24 -12 -14 -37 -28 -54 -32 -17 -3
-40 -14 -51 -24 -22 -19 -183 -110 -194 -110 -4 0 -17 -10 -28 -22 -20 -22
-27 -39 -24 -65 1 -17 42 -53 60 -53 12 0 177 108 300 196 50 35 60 32 54 -18
-2 -24 -8 -61 -13 -83 -5 -22 -12 -87 -15 -145 -11 -190 -8 -177 -58 -225 -46
-44 -47 -44 -59 -22 -8 14 -13 71 -14 162 -1 137 -2 140 -24 143 -14 2 -20 0
-16 -7 4 -6 -1 -25 -10 -43 -13 -24 -19 -65 -22 -148 l-4 -115 67 -135 c38
-74 75 -143 83 -152 30 -35 82 -16 82 29 0 13 4 31 10 41 12 22 50 208 50 247
1 45 32 105 79 150 35 33 41 36 41 19 0 -11 12 -32 28 -46 37 -35 69 -28 127
29 52 52 178 137 183 123 2 -5 -18 -58 -44 -117 -26 -59 -58 -137 -71 -173
-14 -36 -36 -80 -49 -97 -14 -18 -36 -63 -50 -100 -14 -38 -35 -87 -47 -110
-17 -34 -19 -47 -11 -60 14 -23 97 -30 127 -10 12 8 45 17 72 21 51 7 112 25
130 37 6 4 30 10 54 14 24 4 72 20 106 35 34 15 77 31 96 34 48 10 130 49 126
60 -5 16 -71 34 -89 25 -16 -9 -119 -30 -233 -49 -27 -4 -62 -13 -76 -18 -38
-15 -136 -25 -142 -15 -3 5 15 49 40 98 25 49 53 112 63 140 9 27 31 77 47
110 17 33 34 71 38 85 4 14 17 45 28 70 15 34 20 64 19 119 -2 107 -24 121
-98 65 -17 -13 -36 -24 -42 -24 -6 0 -23 -10 -39 -23 -37 -30 -211 -137 -223
-137 -9 0 5 26 76 133 38 58 99 170 124 227 5 14 22 43 35 65 14 22 28 47 31
55 3 8 10 22 15 30 5 8 27 45 49 82 22 36 66 90 99 120 35 31 61 65 65 82 7
27 6 28 -21 23 -86 -17 -114 -26 -153 -48 -38 -21 -50 -38 -110 -154 -37 -71
-92 -175 -122 -230 -30 -55 -58 -111 -61 -125 -4 -14 -17 -41 -29 -60 -21 -30
-46 -74 -89 -150 -25 -45 -60 -90 -70 -90 -16 0 21 301 40 324 5 6 12 34 17
61 5 35 17 63 40 91 52 63 38 119 -20 81 -22 -15 -24 -15 -29 3 -4 16 -2 73 8
155 1 17 3 44 4 61 1 28 8 35 67 65 76 39 134 91 134 120 0 32 -24 32 -93 -1
-37 -17 -79 -32 -94 -33 -26 -2 -28 1 -38 58 -6 33 -17 71 -25 85 -7 14 -16
31 -20 39 -9 21 -21 22 -51 6z m-88 -1428 c-13 -35 -27 -34 -34 1 -4 20 0 31
16 44 21 16 22 16 25 -1 2 -9 -2 -29 -7 -44z"/>
<path d="M1228 1209 c-12 -6 -18 -22 -18 -44 0 -28 7 -38 42 -64 46 -34 69
-38 88 -16 14 17 6 46 -28 97 -25 39 -50 47 -84 27z"/>
</g>
</svg>
