<?xml version="1.0" standalone="no"?>
<!DOCTYPE svg PUBLIC "-//W3C//DTD SVG 20010904//EN"
 "http://www.w3.org/TR/2001/REC-SVG-20010904/DTD/svg10.dtd">
<svg version="1.0" xmlns="http://www.w3.org/2000/svg"
 width="210.000000pt" height="205.000000pt" viewBox="0 0 210.000000 205.000000"
 preserveAspectRatio="xMidYMid meet">
<metadata>
Created by potrace 1.16, written by Peter Selinger 2001-2019
</metadata>
<g transform="translate(0.000000,205.000000) scale(0.100000,-0.100000)"
fill="#000000" stroke="none">
<path d="M1204 2013 c-4 -21 -12 -44 -18 -52 -9 -11 -12 -9 -16 9 -3 13 -10
25 -16 27 -15 5 -132 -74 -138 -94 -3 -10 -5 -33 -4 -52 1 -35 -4 -42 -93
-114 -28 -22 -41 -26 -70 -22 -37 6 -67 -10 -198 -109 -85 -65 -81 -63 -91
-46 -5 8 -7 21 -5 29 3 8 8 42 12 75 3 34 10 67 15 73 7 9 4 23 -9 45 -15 26
-27 34 -54 36 -64 5 -65 0 -68 -265 l-1 -92 -62 -43 c-34 -23 -73 -54 -86 -70
-13 -15 -29 -28 -36 -28 -16 0 -64 -51 -66 -70 -5 -32 1 -51 20 -70 27 -27
116 -27 172 0 23 11 42 19 43 17 1 -1 5 -32 8 -69 l6 -67 -38 -38 c-20 -21
-61 -51 -89 -68 -29 -16 -66 -47 -83 -69 -27 -32 -30 -43 -23 -64 6 -17 20
-30 41 -36 29 -8 36 -5 73 28 44 40 86 63 96 53 9 -9 -6 -211 -17 -228 -8 -12
-11 -11 -20 4 -17 28 -45 4 -68 -58 -33 -87 -28 -188 12 -294 66 -173 112
-126 146 149 5 47 15 105 21 130 6 25 17 116 25 204 8 87 19 164 24 170 5 6
12 30 16 54 4 28 14 46 28 54 11 6 36 26 55 44 25 24 39 31 47 24 11 -9 52
-128 75 -220 22 -85 40 -168 40 -186 1 -21 22 -54 36 -54 21 0 30 40 28 125
-1 84 -7 122 -36 245 -6 25 -9 61 -8 80 6 99 8 95 -27 98 -18 2 -33 7 -33 11
0 5 15 28 34 53 73 96 39 145 -42 60 -72 -76 -190 -182 -202 -182 -16 0 -12
116 5 157 8 19 15 51 15 70 0 37 12 54 89 130 45 45 64 52 78 31 4 -7 17 -21
29 -31 19 -16 23 -16 53 -1 18 9 58 44 89 77 89 95 112 117 121 117 5 0 18
-16 30 -35 11 -19 27 -35 34 -35 32 0 36 -24 21 -110 -13 -79 -17 -88 -62
-133 -26 -27 -69 -67 -96 -89 -32 -25 -58 -57 -73 -90 l-24 -51 22 -24 c13
-12 28 -23 34 -23 13 0 115 100 115 112 0 4 5 8 10 8 6 0 10 -8 10 -18 0 -54
37 -31 70 42 20 42 52 86 107 141 96 99 181 175 193 175 13 0 12 -99 0 -219
-12 -111 -26 -171 -42 -171 -6 0 -26 -14 -45 -30 -18 -17 -38 -30 -43 -30 -17
0 -11 96 7 129 19 32 17 40 -13 42 -98 9 -114 -13 -114 -163 0 -130 -4 -141
-47 -164 -147 -78 -173 -99 -173 -140 0 -23 7 -38 22 -48 28 -20 67 -21 74 -1
3 8 26 26 51 41 53 31 63 24 62 -46 0 -78 -17 -304 -25 -323 -3 -10 -42 -36
-86 -58 -83 -42 -171 -100 -200 -133 -24 -25 -23 -57 2 -84 28 -30 76 -28 140
4 45 22 51 29 47 50 -5 26 16 53 28 34 7 -12 54 19 55 37 0 11 69 60 134 95
17 9 37 22 43 28 7 6 23 8 37 4 20 -5 36 7 100 71 42 42 76 80 76 86 0 5 -14
9 -31 9 -29 0 -31 2 -25 28 4 15 11 119 17 232 5 113 18 270 29 350 11 80 22
181 26 225 3 44 11 112 18 150 7 39 12 85 11 103 -1 17 -3 41 -4 51 0 10 -8
22 -17 25 -25 10 -40 0 -246 -167 -33 -27 -62 -46 -65 -43 -12 12 37 243 57
271 4 6 11 26 15 45 13 65 29 105 57 138 16 18 28 37 28 42 0 6 -39 10 -90 10
l-89 0 -7 -37z m-47 -235 c-3 -8 -6 -5 -6 6 -1 11 2 17 5 13 3 -3 4 -12 1 -19z
m229 -926 c-5 -274 -7 -286 -57 -318 -21 -13 -43 -24 -48 -24 -5 0 -14 -7 -21
-15 -7 -8 -19 -15 -27 -15 -13 0 -14 10 -8 57 4 32 13 69 19 83 8 15 14 73 15
140 2 139 19 194 79 262 24 26 46 48 48 48 2 0 2 -98 0 -218z m-989 -254 c-3
-8 -6 -5 -6 6 -1 11 2 17 5 13 3 -3 4 -12 1 -19z"/>
</g>
</svg>
