<?xml version="1.0" standalone="no"?>
<!DOCTYPE svg PUBLIC "-//W3C//DTD SVG 20010904//EN"
 "http://www.w3.org/TR/2001/REC-SVG-20010904/DTD/svg10.dtd">
<svg version="1.0" xmlns="http://www.w3.org/2000/svg"
 width="208.000000pt" height="205.000000pt" viewBox="0 0 208.000000 205.000000"
 preserveAspectRatio="xMidYMid meet">
<metadata>
Created by potrace 1.16, written by Peter Selinger 2001-2019
</metadata>
<g transform="translate(0.000000,205.000000) scale(0.100000,-0.100000)"
fill="#000000" stroke="none">
<path d="M1357 2030 c-13 -11 -28 -31 -31 -46 -6 -22 -11 -25 -31 -20 -15 4
-41 -1 -62 -11 -21 -9 -49 -18 -62 -19 -69 -8 -101 -41 -101 -103 0 -33 -9
-42 -70 -65 -25 -10 -53 -25 -63 -34 -10 -9 -51 -32 -90 -52 -61 -30 -72 -40
-80 -69 -11 -45 8 -64 65 -65 43 0 112 36 131 69 7 13 107 65 124 65 5 0 17
-17 28 -37 35 -65 75 -113 102 -124 25 -9 25 -11 21 -82 -3 -39 -11 -83 -17
-97 -7 -14 -44 -45 -82 -70 -89 -57 -162 -139 -157 -177 2 -21 12 -29 45 -42
47 -17 50 -24 55 -126 3 -58 2 -61 -27 -75 -16 -9 -51 -28 -76 -43 -87 -51
-92 -41 -98 175 -1 36 -15 58 -49 77 -15 9 -14 12 10 38 57 60 58 134 1 82
-39 -35 -144 -112 -148 -107 -1 1 -5 44 -8 93 l-5 90 65 63 c35 34 68 62 74
62 5 0 46 27 90 59 43 33 83 61 88 63 5 2 11 13 15 24 9 29 -23 37 -76 18 -38
-13 -106 -50 -118 -64 -3 -3 -16 -10 -30 -16 -14 -6 -46 -28 -73 -48 -26 -20
-51 -36 -56 -36 -11 0 -31 71 -31 114 0 30 5 38 26 46 32 13 27 30 -16 52 -18
9 -38 22 -43 27 -19 19 -63 12 -87 -14 -23 -25 -23 -26 -8 -78 9 -28 24 -88
33 -132 l17 -79 -72 -66 -73 -66 9 -39 c12 -52 56 -67 111 -41 20 9 39 13 43
9 4 -4 10 -32 12 -61 l5 -53 -46 -32 c-25 -18 -56 -37 -68 -44 -12 -6 -35 -18
-50 -27 -15 -8 -44 -22 -63 -31 -99 -43 -121 -77 -76 -113 22 -17 32 -18 68
-10 41 9 114 51 189 109 20 16 38 26 41 24 5 -5 -3 -98 -28 -323 -18 -157 -30
-196 -56 -175 -7 6 -40 21 -73 33 -33 12 -66 30 -73 39 -7 9 -21 16 -30 16
-12 0 -22 17 -34 54 -22 67 -32 79 -54 60 -13 -11 -15 -25 -11 -70 7 -80 32
-128 76 -146 80 -33 178 -82 215 -106 21 -15 45 -27 52 -27 19 0 61 97 73 170
6 36 20 150 31 253 11 104 23 194 27 200 4 7 9 36 10 65 2 50 15 82 33 82 11
0 46 -150 55 -240 4 -30 10 -73 15 -95 5 -22 10 -75 10 -117 0 -75 1 -78 23
-78 30 0 67 64 68 117 1 64 7 72 51 80 23 3 49 14 59 24 16 16 52 39 62 39 4
0 20 -72 37 -165 6 -33 13 -69 16 -80 4 -17 -3 -23 -48 -39 -124 -43 -224
-103 -234 -141 -8 -33 11 -61 47 -69 44 -9 73 1 97 33 22 30 153 89 288 130
83 25 94 26 94 7 0 -17 23 -27 39 -16 7 4 18 18 24 30 7 13 26 31 42 41 89 53
180 99 195 99 5 0 10 11 10 24 0 34 -31 38 -104 15 -96 -30 -125 -23 -105 26
4 11 8 38 8 60 1 22 8 98 16 170 7 71 19 194 25 273 6 79 18 178 26 220 14 77
20 92 75 208 44 91 37 134 -22 134 -22 0 -38 -14 -79 -65 -28 -36 -55 -65 -60
-65 -5 0 -45 -37 -90 -82 -81 -81 -93 -83 -54 -7 7 14 18 63 24 109 6 47 14
88 16 92 3 4 13 48 24 99 21 99 36 123 87 144 36 15 148 103 157 123 8 18 -56
15 -98 -5 -33 -15 -37 -15 -54 0 -26 24 -93 22 -125 -3z m-80 -300 c-8 -72
-17 -110 -26 -110 -14 0 -41 65 -41 100 0 33 5 42 28 54 42 24 45 20 39 -44z
m178 -359 c-13 -29 -24 -157 -51 -556 -18 -279 -21 -288 -93 -301 -20 -3 -55
-12 -79 -20 -52 -17 -66 -11 -58 25 4 14 10 91 15 171 l9 145 49 45 c58 53 87
95 78 110 -10 16 -34 12 -73 -15 -43 -29 -58 -31 -66 -9 -15 40 4 100 36 110
31 10 19 47 -19 59 -40 11 -42 29 -5 52 15 9 54 42 87 72 138 127 190 161 170
112z"/>
</g>
</svg>
