<?xml version="1.0" standalone="no"?>
<!DOCTYPE svg PUBLIC "-//W3C//DTD SVG 20010904//EN"
 "http://www.w3.org/TR/2001/REC-SVG-20010904/DTD/svg10.dtd">
<svg version="1.0" xmlns="http://www.w3.org/2000/svg"
 width="207.000000pt" height="205.000000pt" viewBox="0 0 207.000000 205.000000"
 preserveAspectRatio="xMidYMid meet">
<metadata>
Created by potrace 1.16, written by Peter Selinger 2001-2019
</metadata>
<g transform="translate(0.000000,205.000000) scale(0.100000,-0.100000)"
fill="#000000" stroke="none">
<path d="M1091 1865 c-37 -21 -44 -42 -45 -135 l-1 -85 -65 -35 c-36 -20 -84
-41 -106 -48 -24 -7 -49 -23 -58 -37 -9 -14 -22 -25 -29 -25 -8 0 -31 -13 -53
-30 -21 -16 -44 -30 -51 -30 -18 0 -83 -66 -83 -84 0 -28 46 -66 79 -66 16 0
33 5 36 10 3 6 38 37 77 71 l70 61 32 -30 c36 -35 93 -65 106 -57 4 3 12 19
15 36 6 25 2 36 -21 61 l-29 29 25 19 c14 11 30 18 35 16 6 -2 9 -53 6 -137
-3 -131 -4 -135 -30 -159 -55 -51 -118 -99 -201 -152 -128 -83 -169 -140 -128
-178 31 -29 55 -25 98 18 22 20 58 51 80 67 23 17 70 53 105 82 35 29 74 55
87 58 13 3 56 35 95 70 68 60 108 84 120 71 3 -3 -2 -36 -10 -73 -9 -37 -21
-102 -28 -144 -6 -42 -14 -81 -18 -86 -7 -10 -99 -73 -107 -73 -3 0 -32 -20
-64 -45 -63 -48 -80 -54 -80 -29 0 31 34 74 71 88 48 19 65 48 43 70 -17 18
-35 20 -50 7 -5 -5 -37 -11 -72 -13 -34 -2 -68 -10 -75 -17 -8 -8 -12 -49 -13
-118 l-2 -106 -43 -33 c-89 -67 -101 -77 -115 -100 -20 -30 -10 -60 24 -78 23
-11 35 -11 77 0 28 7 54 13 59 14 8 0 6 -43 -9 -188 -2 -18 -6 -51 -10 -72 -7
-42 1 -84 15 -75 9 6 46 120 56 175 4 19 10 40 14 45 9 12 16 48 34 173 14 90
33 132 60 132 14 0 76 58 76 71 0 5 6 9 13 9 8 0 30 16 50 35 l36 35 1 -279 0
-280 -32 -15 c-17 -9 -36 -16 -42 -16 -6 0 -28 -9 -49 -20 -21 -11 -59 -27
-85 -36 -26 -8 -56 -19 -67 -24 -29 -14 -150 -58 -222 -81 -34 -11 -65 -24
-68 -29 -3 -6 -15 -10 -25 -10 -23 0 -90 -38 -90 -51 0 -5 51 -9 113 -9 105 0
118 2 192 33 177 74 301 131 321 149 11 10 27 18 35 18 8 0 52 19 99 43 64 32
85 47 85 62 0 17 -6 20 -37 17 -20 -1 -39 1 -42 6 -10 16 14 519 29 597 8 44
15 93 15 109 0 37 29 158 41 170 5 6 9 18 9 27 0 9 18 51 40 93 22 44 42 99
46 128 l7 51 -39 -7 c-26 -5 -57 -24 -94 -57 -53 -48 -201 -151 -208 -145 -6
7 20 231 29 248 5 9 9 25 9 36 0 13 24 35 73 67 39 26 74 52 75 57 2 4 9 8 16
8 7 0 32 14 55 31 24 17 52 32 64 35 29 5 41 20 33 40 -15 38 -178 -12 -254
-78 -36 -31 -52 -29 -52 7 0 17 6 25 23 27 18 2 22 9 22 38 0 32 -3 35 -32 38
-17 2 -37 10 -43 18 -14 16 -17 16 -49 -1z"/>
<path d="M304 1643 c-15 -22 -19 -47 -19 -123 l0 -95 -35 -17 c-19 -10 -64
-32 -100 -49 -36 -17 -75 -36 -88 -42 -31 -16 -43 -64 -25 -101 14 -27 18 -28
64 -24 38 4 58 13 82 35 18 16 47 40 66 53 27 19 35 20 42 9 5 -8 9 -77 9
-155 0 -133 -1 -142 -22 -161 -28 -25 -161 -112 -206 -133 -41 -20 -61 -48
-62 -82 0 -36 30 -52 81 -43 33 6 97 45 177 108 11 9 12 -3 8 -64 -3 -41 -10
-92 -16 -114 -5 -22 -10 -87 -10 -145 0 -58 -4 -111 -9 -118 -11 -18 -54 3
-95 47 -17 17 -35 31 -43 31 -7 0 -17 9 -23 20 -6 11 -19 20 -30 20 -56 0 -27
-77 59 -158 36 -34 84 -80 107 -101 54 -52 85 -57 99 -15 5 17 15 37 22 45 8
10 13 75 16 194 4 179 22 361 36 380 5 5 14 32 22 58 10 36 29 63 74 107 109
108 124 125 130 152 11 45 -17 45 -75 1 -28 -21 -67 -50 -86 -65 -20 -16 -41
-28 -45 -28 -10 0 -11 215 -1 277 6 37 13 46 55 73 26 16 50 30 53 30 11 0
121 54 149 74 17 12 52 32 79 46 27 14 51 31 54 38 6 19 -48 26 -101 12 -55
-14 -163 -64 -184 -86 -8 -7 -33 -19 -56 -25 -23 -6 -46 -13 -51 -16 -13 -8 4
40 21 59 10 11 13 26 9 40 -7 26 -71 78 -96 78 -10 0 -26 -12 -36 -27z"/>
<path d="M491 887 c-14 -6 -27 -23 -31 -37 -6 -22 7 -135 24 -215 4 -16 9 -82
12 -145 8 -179 14 -191 60 -118 l27 42 0 235 1 235 -25 7 c-36 10 -42 10 -68
-4z"/>
</g>
</svg>
