<?xml version="1.0" standalone="no"?>
<!DOCTYPE svg PUBLIC "-//W3C//DTD SVG 20010904//EN"
 "http://www.w3.org/TR/2001/REC-SVG-20010904/DTD/svg10.dtd">
<svg version="1.0" xmlns="http://www.w3.org/2000/svg"
 width="205.000000pt" height="206.000000pt" viewBox="0 0 205.000000 206.000000"
 preserveAspectRatio="xMidYMid meet">
<metadata>
Created by potrace 1.16, written by Peter Selinger 2001-2019
</metadata>
<g transform="translate(0.000000,206.000000) scale(0.100000,-0.100000)"
fill="#000000" stroke="none">
<path d="M1061 2018 c-11 -24 -32 -74 -46 -112 -14 -38 -29 -74 -34 -80 -10
-12 -47 -115 -88 -241 -14 -44 -32 -87 -40 -96 -16 -19 -17 -65 -2 -75 7 -4
20 4 31 17 26 33 128 238 128 257 0 9 9 25 19 36 11 12 45 71 76 131 31 61 68
122 82 136 21 23 23 30 14 48 -10 17 -21 21 -66 21 -55 0 -55 0 -74 -42z"/>
<path d="M1157 1787 c-12 -9 -16 -52 -21 -197 -3 -102 -8 -195 -12 -206 -3
-12 -38 -44 -77 -70 -40 -27 -82 -58 -94 -69 -11 -11 -50 -35 -86 -53 -36 -18
-70 -39 -77 -47 -7 -8 -19 -15 -27 -15 -8 0 -33 -9 -55 -20 -55 -26 -59 -25
-45 9 15 35 40 64 126 143 59 54 69 78 35 78 -22 0 -66 -25 -113 -64 -24 -20
-47 -36 -52 -36 -12 0 -11 91 0 109 6 9 6 22 0 32 -6 11 -5 20 1 24 5 3 10 34
10 69 0 51 4 66 21 82 86 79 103 104 80 118 -13 8 -73 -14 -97 -35 -20 -19
-20 -19 -37 34 -9 29 -26 63 -37 75 -40 42 -107 16 -97 -37 21 -110 25 -143
21 -155 -5 -13 -95 -76 -108 -76 -16 0 -56 -46 -56 -65 0 -26 39 -65 64 -65
10 0 40 11 66 24 l49 25 5 -27 c10 -46 -2 -214 -16 -228 -7 -7 -57 -35 -112
-64 -253 -131 -285 -155 -271 -200 3 -11 20 -27 36 -36 29 -15 32 -14 82 17
29 18 68 47 87 64 39 36 169 109 178 100 3 -3 -7 -18 -21 -33 -32 -33 -35 -67
-7 -82 18 -10 20 -18 15 -93 -3 -45 -7 -127 -10 -182 -8 -190 -21 -295 -35
-295 -5 0 -22 19 -37 43 -15 23 -35 50 -45 60 -10 10 -19 34 -19 55 -1 20 -3
44 -4 52 -1 8 -3 25 -4 38 -2 42 -29 24 -45 -32 -32 -109 -17 -173 65 -273 30
-36 59 -71 65 -77 6 -6 16 -22 23 -35 11 -19 18 -22 44 -17 30 6 50 23 42 36
-2 4 2 28 10 54 19 61 34 215 41 396 3 80 7 156 10 170 3 14 8 48 11 77 5 47
9 54 48 82 24 17 48 31 53 31 5 0 27 12 48 27 21 14 65 39 97 55 32 16 75 44
95 62 39 34 126 96 136 96 4 0 4 -17 1 -37 -2 -21 -7 -79 -10 -128 -2 -50 -9
-124 -14 -165 -6 -41 -13 -124 -16 -185 -7 -141 -21 -274 -32 -303 -9 -23 -49
-50 -162 -108 -85 -45 -102 -93 -44 -131 21 -14 30 -15 61 -4 21 7 53 25 72
40 53 41 58 43 79 29 18 -11 27 -6 85 52 94 94 123 120 135 120 5 0 17 -24 25
-52 9 -29 25 -64 35 -78 17 -21 21 -22 36 -10 15 13 17 27 12 109 -7 104 -3
113 69 151 17 9 30 26 32 39 4 22 1 24 -35 19 -21 -3 -45 -7 -53 -9 -22 -6
-30 71 -19 191 10 99 43 237 89 360 25 68 27 145 4 154 -20 8 -47 -9 -149 -91
-43 -35 -82 -63 -88 -63 -16 0 1 140 24 191 13 28 34 53 53 64 47 27 196 165
196 181 0 8 -5 14 -10 14 -17 0 -120 -54 -179 -94 -29 -20 -55 -36 -57 -36 -9
0 -3 92 11 186 14 94 14 100 -4 124 -20 28 -70 36 -94 17z m123 -812 c-11 -56
-15 -66 -31 -62 -10 3 -27 -2 -38 -10 -20 -13 -21 -12 -21 16 0 21 5 31 15 31
8 0 29 23 46 51 17 27 34 48 36 45 3 -3 0 -35 -7 -71z m-37 -225 c4 -4 9 -56
10 -115 l2 -108 -30 -18 c-16 -9 -40 -20 -53 -24 -25 -7 -24 -30 -6 213 l6 73
31 -6 c18 -4 36 -10 40 -15z"/>
<path d="M859 1043 c-8 -2 -30 -34 -48 -71 -57 -119 -86 -166 -130 -212 -46
-48 -45 -38 -23 -155 11 -55 -1 -142 -24 -186 -12 -24 -12 -29 6 -52 11 -13
32 -27 47 -30 44 -8 60 14 67 96 13 147 11 142 81 192 35 25 66 45 69 45 9 0
90 90 100 112 7 14 6 22 -4 28 -16 10 -38 0 -90 -40 -48 -37 -128 -66 -143
-51 -8 8 -5 18 11 38 12 16 31 46 41 68 22 48 78 102 143 139 57 32 62 39 46
66 -11 17 -23 20 -73 19 -33 -1 -67 -3 -76 -6z"/>
</g>
</svg>
