<?xml version="1.0" standalone="no"?>
<!DOCTYPE svg PUBLIC "-//W3C//DTD SVG 20010904//EN"
 "http://www.w3.org/TR/2001/REC-SVG-20010904/DTD/svg10.dtd">
<svg version="1.0" xmlns="http://www.w3.org/2000/svg"
 width="208.000000pt" height="204.000000pt" viewBox="0 0 208.000000 204.000000"
 preserveAspectRatio="xMidYMid meet">
<metadata>
Created by potrace 1.16, written by Peter Selinger 2001-2019
</metadata>
<g transform="translate(0.000000,204.000000) scale(0.100000,-0.100000)"
fill="#000000" stroke="none">
<path d="M1372 1965 c-21 -70 -25 -76 -65 -96 -23 -12 -50 -28 -59 -37 -16
-13 -18 -13 -18 0 0 8 9 23 20 33 12 11 20 28 18 39 -4 25 -38 24 -105 0 -46
-18 -53 -32 -53 -111 0 -50 -2 -53 -42 -81 -24 -16 -65 -41 -93 -55 -65 -33
-89 -59 -81 -90 17 -68 126 -68 165 -1 26 44 38 43 51 -4 5 -22 23 -57 40 -80
16 -23 27 -47 24 -54 -3 -7 -24 -27 -47 -43 -23 -17 -52 -46 -65 -65 l-23 -35
30 -27 c20 -18 37 -25 48 -21 9 4 53 42 97 85 44 43 84 78 89 78 6 0 40 27 76
60 99 90 111 100 122 100 7 0 8 -7 4 -17 -8 -17 -44 -131 -66 -203 -21 -69
-32 -90 -48 -90 -10 0 -38 -13 -64 -30 -25 -16 -73 -43 -107 -59 -128 -64
-165 -117 -99 -140 24 -8 37 -7 62 5 44 22 163 103 178 120 23 28 31 14 24
-48 -7 -79 -12 -130 -21 -240 -6 -85 -6 -88 14 -88 12 0 24 -5 27 -10 10 -16
-11 -36 -64 -63 -27 -13 -62 -33 -79 -45 -16 -12 -36 -22 -42 -22 -18 0 -4 60
17 75 22 16 10 32 -35 45 -53 14 -65 13 -91 -11 -22 -20 -23 -27 -17 -98 3
-42 3 -81 -1 -87 -11 -15 -113 -80 -140 -88 -13 -4 -29 -13 -35 -20 -7 -6 -44
-29 -83 -51 -38 -21 -83 -48 -100 -61 -33 -25 -155 -78 -162 -71 -2 3 3 47 11
98 24 149 46 357 61 569 3 46 40 93 87 113 l37 16 37 -57 c20 -31 47 -73 60
-93 13 -19 24 -44 24 -56 0 -11 9 -31 19 -44 18 -22 21 -23 36 -8 26 25 24
113 -4 179 -12 30 -23 73 -25 95 -2 35 -5 40 -29 43 -29 4 -36 26 -13 39 14 9
46 65 46 83 0 21 -35 9 -79 -28 -25 -21 -64 -48 -86 -61 -84 -50 -106 -61
-115 -61 -13 0 -13 117 1 179 8 39 19 58 47 81 20 16 41 30 47 31 22 1 100 67
103 86 3 19 0 20 -31 13 -19 -4 -47 -15 -63 -24 -16 -9 -50 -25 -76 -36 -52
-21 -53 -20 -49 35 5 74 10 84 49 87 29 2 38 8 40 24 2 16 -6 25 -31 38 -19 9
-42 16 -51 16 -9 0 -25 5 -36 12 -15 10 -26 9 -55 -5 l-36 -17 6 -118 c3 -64
8 -125 11 -134 3 -11 -10 -28 -43 -53 -147 -111 -173 -137 -166 -166 8 -29 61
-60 93 -53 42 9 84 26 102 42 15 13 18 11 24 -14 4 -16 8 -47 8 -68 1 -38 -1
-40 -72 -82 -41 -24 -77 -44 -82 -44 -4 0 -14 -7 -21 -17 -8 -9 -32 -25 -54
-35 -105 -51 -120 -65 -111 -103 3 -13 20 -32 36 -40 36 -19 53 -12 176 75 82
59 117 80 130 80 16 0 -23 -353 -60 -540 -8 -41 -15 -92 -15 -112 -1 -20 -5
-39 -10 -42 -4 -3 -28 14 -52 38 -64 63 -106 154 -124 267 -3 21 -12 42 -20
49 -11 9 -16 4 -25 -32 -6 -24 -13 -48 -15 -55 -7 -20 15 -134 33 -178 22 -54
96 -170 119 -186 10 -8 32 -31 47 -52 24 -32 34 -37 67 -37 23 0 39 5 39 11 0
7 9 43 21 81 l20 69 29 -18 c27 -15 31 -15 47 -1 10 9 45 30 78 47 33 18 98
59 145 92 47 32 110 72 142 89 69 36 75 28 46 -67 -46 -155 -52 -203 -23 -203
23 0 92 100 113 165 11 33 28 92 37 130 10 39 28 84 41 102 13 18 68 58 122
89 87 51 165 108 214 156 9 9 31 24 47 33 37 19 55 49 47 81 -8 29 -27 31 -50
5 -10 -11 -23 -18 -29 -15 -7 2 -39 -16 -72 -41 -33 -25 -63 -45 -68 -45 -17
0 -18 33 -3 79 9 28 16 58 16 67 0 10 6 25 14 33 8 9 21 71 31 141 18 135 45
249 76 319 10 24 19 48 19 54 0 11 19 55 79 182 43 90 57 158 35 175 -16 14
-54 4 -74 -19 -8 -10 -35 -33 -60 -52 -24 -19 -65 -53 -89 -76 -25 -24 -48
-43 -53 -43 -9 0 -11 34 -2 43 4 3 8 25 9 48 2 24 8 52 14 63 5 12 17 47 27
79 9 33 23 64 29 71 24 23 36 54 24 62 -6 3 -9 17 -6 30 4 23 2 24 -57 24
l-61 0 -23 -75z m-46 -237 c-3 -18 -10 -66 -16 -106 -5 -41 -12 -81 -15 -90
-8 -25 -55 -56 -66 -45 -23 23 -29 193 -7 207 1 1 20 16 41 34 50 43 71 43 63
0z"/>
<path d="M1145 903 c-16 -8 -37 -21 -45 -28 -8 -7 -40 -26 -71 -43 -94 -49
-130 -81 -127 -111 6 -49 77 -54 130 -9 14 13 50 42 80 65 29 23 62 56 73 73
11 16 23 30 28 30 4 0 7 9 7 20 0 25 -32 26 -75 3z"/>
<path d="M1270 453 c-30 -6 -60 -31 -60 -51 0 -23 40 -73 69 -84 96 -38 159
-58 182 -58 15 0 60 -13 100 -30 41 -16 82 -30 92 -30 10 0 28 -5 40 -12 13
-7 86 -12 186 -14 97 -2 168 -7 175 -14 20 -20 26 -9 26 50 0 41 -4 60 -12 61
-7 0 -85 2 -173 4 -189 4 -190 4 -284 44 -40 17 -83 31 -95 31 -30 0 -157 62
-180 89 -11 11 -24 20 -30 20 -6 -1 -22 -4 -36 -6z"/>
</g>
</svg>
