<?xml version="1.0" standalone="no"?>
<!DOCTYPE svg PUBLIC "-//W3C//DTD SVG 20010904//EN"
 "http://www.w3.org/TR/2001/REC-SVG-20010904/DTD/svg10.dtd">
<svg version="1.0" xmlns="http://www.w3.org/2000/svg"
 width="209.000000pt" height="212.000000pt" viewBox="0 0 209.000000 212.000000"
 preserveAspectRatio="xMidYMid meet">
<metadata>
Created by potrace 1.16, written by Peter Selinger 2001-2019
</metadata>
<g transform="translate(0.000000,212.000000) scale(0.100000,-0.100000)"
fill="#000000" stroke="none">
<path d="M876 1867 c-13 -10 -19 -37 -26 -132 -5 -66 -10 -128 -10 -137 0 -10
-16 -26 -37 -37 -21 -10 -47 -29 -58 -41 -11 -12 -33 -29 -50 -38 -51 -26
-113 -84 -126 -116 -7 -17 -18 -36 -25 -42 -10 -8 -10 -15 0 -35 17 -34 83
-32 105 2 27 42 145 153 149 141 4 -14 -23 -131 -44 -185 -7 -20 -14 -55 -14
-76 0 -51 -5 -55 -157 -130 -50 -25 -83 -64 -83 -100 0 -15 -8 -31 -20 -39
-24 -15 -27 -58 -6 -88 15 -21 199 -117 249 -130 23 -5 28 -11 24 -28 -8 -34
-70 -176 -102 -236 -26 -48 -34 -55 -60 -55 -22 -1 -30 -5 -30 -19 0 -48 83
-45 141 6 40 35 94 110 94 130 0 24 57 135 73 141 8 3 41 -8 73 -24 33 -16 65
-29 72 -29 7 0 34 -8 60 -19 26 -10 81 -31 122 -45 41 -15 93 -36 116 -47 23
-10 46 -19 52 -19 30 0 132 -59 132 -77 0 -35 83 -55 135 -31 30 14 31 19 5
43 -11 10 -18 26 -15 35 9 27 -133 111 -261 154 -41 14 -83 30 -95 36 -11 6
-42 17 -67 25 -26 7 -72 23 -102 35 -30 13 -73 30 -95 39 -22 9 -51 24 -64 33
l-24 17 23 58 c12 32 29 72 36 90 8 17 14 36 14 42 0 15 67 175 98 236 15 28
37 58 49 68 13 10 34 38 48 62 14 24 32 46 40 49 18 6 21 111 5 121 -19 12
-101 -37 -126 -75 -14 -21 -47 -49 -74 -64 -27 -15 -52 -31 -55 -36 -7 -11
-116 -94 -143 -109 -10 -6 -22 -8 -25 -5 -3 3 17 49 44 102 28 54 64 138 80
187 19 59 40 100 59 120 16 17 46 46 66 66 24 24 35 42 31 53 -8 20 -41 21
-57 1 -15 -18 -67 -45 -74 -38 -15 16 23 116 50 131 11 6 14 16 10 29 -12 38
-93 57 -130 30z m-234 -479 c-7 -7 -12 -8 -12 -2 0 14 12 26 19 19 2 -3 -1
-11 -7 -17z m292 -270 c-3 -13 -15 -45 -26 -73 -37 -93 -70 -180 -85 -222 -8
-24 -20 -43 -27 -43 -24 0 -197 90 -203 106 -8 20 25 48 137 114 47 27 110 70
140 95 62 50 74 54 64 23z m26 -458 c0 -5 -2 -10 -4 -10 -3 0 -8 5 -11 10 -3
6 -1 10 4 10 6 0 11 -4 11 -10z m211 -80 c5 0 9 -4 9 -10 0 -14 -13 -12 -36 6
-17 14 -17 15 -1 10 10 -3 23 -6 28 -6z"/>
</g>
</svg>
