<?xml version="1.0" standalone="no"?>
<!DOCTYPE svg PUBLIC "-//W3C//DTD SVG 20010904//EN"
 "http://www.w3.org/TR/2001/REC-SVG-20010904/DTD/svg10.dtd">
<svg version="1.0" xmlns="http://www.w3.org/2000/svg"
 width="207.000000pt" height="212.000000pt" viewBox="0 0 207.000000 212.000000"
 preserveAspectRatio="xMidYMid meet">
<metadata>
Created by potrace 1.16, written by Peter Selinger 2001-2019
</metadata>
<g transform="translate(0.000000,212.000000) scale(0.100000,-0.100000)"
fill="#000000" stroke="none">
<path d="M1174 1778 c-28 -13 -42 -44 -50 -110 -9 -78 -38 -193 -69 -278 -15
-41 -30 -88 -35 -105 -24 -93 -61 -158 -180 -317 -55 -73 -105 -151 -112 -173
-6 -22 -13 -33 -15 -25 -2 8 4 40 13 70 8 30 19 84 24 120 13 109 30 193 47
230 9 19 19 71 21 115 8 146 -37 215 -98 150 -23 -24 -25 -36 -30 -148 l-5
-122 -37 -48 c-20 -27 -58 -65 -85 -85 -26 -20 -50 -39 -53 -42 -11 -14 -99
-70 -110 -70 -7 0 -8 6 -2 18 17 33 44 215 40 264 -7 64 -24 82 -71 73 -41 -8
-47 -22 -47 -106 0 -66 -43 -287 -67 -342 -16 -36 -15 -39 4 -65 30 -41 75
-42 105 -2 13 18 39 40 59 50 20 11 67 48 105 83 139 130 124 119 124 94 -1
-56 -54 -311 -89 -422 -12 -38 -26 -106 -31 -150 -5 -44 -12 -89 -15 -101 -8
-25 19 -56 41 -47 22 8 54 80 65 146 5 32 14 66 19 75 5 9 11 29 14 44 6 26 7
26 34 12 40 -20 49 -18 74 21 13 19 28 35 35 35 6 0 15 9 18 21 4 11 21 41 38
66 38 54 42 60 56 96 15 37 26 34 51 -15 11 -24 26 -50 32 -58 11 -16 7 -24
-94 -205 -21 -38 -59 -110 -83 -160 -60 -122 -78 -152 -109 -180 -29 -27 -33
-52 -12 -80 12 -17 17 -18 40 -7 14 6 31 23 38 37 6 14 15 25 19 25 5 0 16 14
25 31 9 17 29 46 46 65 17 18 41 55 55 81 53 105 67 131 110 206 25 42 52 77
60 77 8 0 45 -21 81 -46 36 -25 110 -65 164 -89 54 -25 111 -53 127 -64 15
-11 45 -26 67 -34 84 -31 199 -79 209 -86 5 -4 49 -20 97 -35 48 -15 92 -34
99 -42 19 -23 46 -17 53 12 10 39 -4 111 -25 130 -13 12 -28 15 -51 10 -35 -6
-58 -1 -148 34 -30 11 -75 28 -100 37 -25 8 -49 19 -55 23 -5 4 -37 19 -70 32
-34 14 -84 41 -113 61 -28 21 -60 37 -69 37 -10 1 -30 6 -45 13 -33 15 -135
103 -148 128 -8 14 1 45 36 131 26 62 57 147 70 188 24 73 60 168 92 240 16
35 21 177 7 199 -17 29 -90 4 -139 -48 -16 -17 -33 -28 -37 -25 -11 6 -1 58
21 110 10 22 24 67 31 99 9 40 18 59 31 63 27 7 22 30 -13 63 -33 31 -50 34
-85 17z m86 -439 c0 -5 -15 -47 -34 -92 -18 -45 -48 -128 -66 -185 -17 -57
-43 -123 -56 -146 l-24 -44 -37 19 c-21 11 -45 16 -55 13 -10 -3 -18 -2 -18 2
0 9 121 249 146 290 22 36 126 152 137 153 4 1 7 -4 7 -10z"/>
</g>
</svg>
