<?xml version="1.0" standalone="no"?>
<!DOCTYPE svg PUBLIC "-//W3C//DTD SVG 20010904//EN"
 "http://www.w3.org/TR/2001/REC-SVG-20010904/DTD/svg10.dtd">
<svg version="1.0" xmlns="http://www.w3.org/2000/svg"
 width="209.000000pt" height="212.000000pt" viewBox="0 0 209.000000 212.000000"
 preserveAspectRatio="xMidYMid meet">
<metadata>
Created by potrace 1.16, written by Peter Selinger 2001-2019
</metadata>
<g transform="translate(0.000000,212.000000) scale(0.100000,-0.100000)"
fill="#000000" stroke="none">
<path d="M1177 1842 c-10 -10 -17 -29 -17 -43 0 -30 -29 -177 -41 -204 -4 -11
-15 -47 -24 -80 -37 -136 -71 -221 -175 -431 -61 -121 -110 -224 -110 -227 0
-37 117 94 134 151 4 12 17 34 30 50 12 15 32 45 45 67 13 22 38 52 56 67 18
15 38 42 45 60 19 46 65 97 122 136 26 18 55 43 64 56 8 14 29 29 47 35 17 6
39 19 49 28 10 9 20 14 23 11 5 -4 -78 -173 -127 -258 -33 -57 -54 -99 -112
-222 -31 -64 -60 -119 -65 -122 -5 -3 -20 3 -34 14 -30 24 -99 27 -117 5 -18
-22 4 -68 51 -109 22 -18 39 -38 39 -45 0 -7 -11 -29 -25 -49 -14 -20 -25 -41
-25 -46 0 -23 -135 -278 -167 -315 -38 -45 -40 -74 -5 -79 29 -4 71 38 107
105 14 29 36 58 48 66 13 8 49 66 81 128 32 63 63 120 68 126 11 14 49 -2 105
-44 42 -32 315 -170 353 -178 16 -4 32 -10 35 -15 3 -5 31 -21 62 -37 31 -15
79 -50 106 -76 37 -37 54 -47 75 -45 27 3 27 4 23 68 -1 36 -7 70 -13 77 -5 7
-31 19 -58 28 -27 9 -60 25 -74 36 -38 30 -163 89 -187 89 -12 0 -36 10 -53
23 -42 31 -115 73 -145 82 -13 4 -54 32 -92 62 -78 62 -77 58 -30 153 15 30
50 100 77 155 27 55 58 113 70 130 11 17 35 60 52 95 18 36 45 88 62 115 17
28 40 70 51 95 11 25 27 52 35 61 8 9 17 39 21 68 l6 51 -35 0 c-21 0 -48 -10
-69 -25 -19 -13 -56 -36 -84 -50 -27 -14 -62 -33 -77 -42 -15 -10 -57 -37 -93
-60 -64 -42 -65 -42 -65 -18 0 14 18 78 41 142 54 155 55 160 34 183 -23 25
-76 26 -98 2z"/>
<path d="M643 1619 c-150 -79 -208 -107 -245 -119 -20 -6 -53 -22 -71 -35 -19
-12 -46 -26 -58 -30 -53 -17 -122 -60 -132 -83 -10 -21 -8 -27 18 -49 40 -35
92 -27 164 26 31 23 88 57 128 76 39 19 84 46 99 60 15 14 32 25 39 25 7 0 29
12 48 28 20 15 64 44 97 66 64 41 67 45 48 64 -21 21 -54 13 -135 -29z"/>
<path d="M515 1386 l-60 -12 0 -144 0 -144 -51 -25 c-28 -14 -61 -31 -75 -37
-117 -55 -152 -86 -147 -130 2 -21 11 -31 31 -38 31 -11 71 6 172 71 27 18 53
33 58 33 22 0 -30 -397 -64 -482 -12 -28 -52 -48 -100 -48 -42 0 -77 -20 -87
-49 -12 -37 -4 -61 24 -71 32 -12 141 -1 155 16 6 7 34 20 62 29 101 32 243
111 300 167 8 7 40 35 71 63 37 33 56 57 56 72 0 31 -20 29 -72 -5 -144 -95
-190 -122 -250 -146 -77 -30 -88 -32 -88 -11 0 16 34 124 50 160 5 11 13 49
19 85 39 241 59 311 94 327 44 20 127 104 127 128 0 34 -36 43 -69 16 -14 -11
-43 -30 -64 -41 -46 -25 -51 -17 -45 71 3 43 9 64 21 70 31 18 48 42 45 63 -4
26 -29 29 -113 12z"/>
</g>
</svg>
