<?xml version="1.0" standalone="no"?>
<!DOCTYPE svg PUBLIC "-//W3C//DTD SVG 20010904//EN"
 "http://www.w3.org/TR/2001/REC-SVG-20010904/DTD/svg10.dtd">
<svg version="1.0" xmlns="http://www.w3.org/2000/svg"
 width="206.000000pt" height="213.000000pt" viewBox="0 0 206.000000 213.000000"
 preserveAspectRatio="xMidYMid meet">
<metadata>
Created by potrace 1.16, written by Peter Selinger 2001-2019
</metadata>
<g transform="translate(0.000000,213.000000) scale(0.100000,-0.100000)"
fill="#000000" stroke="none">
<path d="M453 1843 c-58 -27 -57 -24 -42 -108 5 -33 14 -89 20 -124 9 -62 22
-91 40 -91 17 0 39 60 39 106 0 52 17 118 37 149 16 25 17 70 1 82 -19 15 -37
12 -95 -14z m27 -145 c0 -16 -3 -19 -11 -11 -6 6 -8 16 -5 22 11 17 16 13 16
-11z"/>
<path d="M1225 1758 c-10 -6 -33 -14 -50 -17 -26 -5 -36 -17 -71 -87 -40 -82
-46 -97 -85 -231 -20 -71 -22 -74 -67 -93 -26 -12 -60 -34 -77 -49 -16 -16
-70 -55 -119 -87 -48 -33 -94 -63 -102 -69 -24 -17 -28 5 -15 93 7 48 15 115
18 149 4 47 10 67 26 82 68 62 84 74 105 82 26 10 26 36 0 53 -20 12 -72 -4
-130 -41 -21 -12 -48 -23 -60 -23 -22 0 -77 -45 -79 -64 0 -6 -43 -45 -96 -86
-166 -130 -213 -240 -109 -257 42 -7 69 11 91 62 8 16 32 50 54 75 l40 45 1
-152 c0 -142 -1 -153 -20 -163 -16 -8 -20 -21 -20 -60 0 -27 -4 -60 -10 -75
-5 -14 -12 -45 -15 -68 -6 -55 -49 -217 -75 -284 -11 -29 -30 -79 -41 -110
-12 -32 -44 -104 -73 -161 -42 -84 -48 -104 -36 -112 8 -5 21 -5 32 1 29 16
57 65 215 373 14 27 35 86 47 130 12 44 26 81 32 83 10 3 54 -74 54 -96 0 -20
138 -158 170 -169 35 -13 49 -3 60 39 5 19 16 61 25 94 8 33 22 114 30 180 23
183 36 254 46 261 5 3 9 13 9 22 0 26 50 90 75 96 19 5 37 32 80 119 58 115
83 153 130 197 15 14 38 37 53 53 15 15 35 27 45 27 17 0 18 -6 13 -62 -11
-103 -26 -188 -52 -288 -28 -104 -111 -339 -126 -355 -9 -10 -60 39 -84 80 -9
17 -16 18 -49 10 -21 -6 -43 -18 -49 -28 -16 -25 26 -99 86 -150 26 -22 48
-47 48 -55 0 -16 -20 -64 -56 -133 -13 -26 -24 -57 -24 -69 0 -12 -9 -39 -19
-59 -11 -20 -27 -53 -36 -74 -11 -22 -24 -37 -35 -37 -30 0 -43 -25 -35 -70
10 -58 33 -67 80 -30 21 17 42 30 46 30 5 0 9 4 9 10 0 5 13 38 29 72 17 35
50 113 74 173 35 88 48 111 65 113 12 2 22 -1 22 -6 0 -6 21 -26 48 -45 26
-19 71 -54 100 -76 67 -52 198 -140 237 -158 17 -8 59 -32 95 -53 76 -46 105
-60 180 -90 30 -13 71 -33 90 -46 45 -31 56 -30 75 5 12 23 13 36 4 58 -6 15
-10 29 -10 31 5 15 -7 22 -51 32 -100 24 -333 147 -463 245 -200 150 -284 224
-285 253 0 7 22 74 49 150 110 309 134 411 134 577 1 131 -5 157 -39 180 -24
15 -28 15 -67 0 -23 -9 -54 -28 -69 -43 -15 -14 -30 -23 -34 -20 -8 9 33 98
46 98 6 0 15 11 22 25 8 19 8 28 -2 40 -15 18 -28 19 -55 3z m-388 -660 c-2
-13 -13 -57 -24 -98 -11 -41 -26 -122 -32 -180 -19 -176 -34 -252 -50 -258
-37 -14 -147 167 -158 260 -5 40 -2 54 16 78 11 16 21 33 21 37 0 5 19 24 42
43 23 19 60 51 82 70 47 41 87 69 100 69 4 1 6 -9 3 -21z"/>
</g>
</svg>
