<?xml version="1.0" standalone="no"?>
<!DOCTYPE svg PUBLIC "-//W3C//DTD SVG 20010904//EN"
 "http://www.w3.org/TR/2001/REC-SVG-20010904/DTD/svg10.dtd">
<svg version="1.0" xmlns="http://www.w3.org/2000/svg"
 width="207.000000pt" height="213.000000pt" viewBox="0 0 207.000000 213.000000"
 preserveAspectRatio="xMidYMid meet">
<metadata>
Created by potrace 1.16, written by Peter Selinger 2001-2019
</metadata>
<g transform="translate(0.000000,213.000000) scale(0.100000,-0.100000)"
fill="#000000" stroke="none">
<path d="M321 1733 c-32 -27 -63 -127 -69 -221 -4 -77 -3 -84 14 -80 19 3 24
12 100 171 41 85 45 101 36 122 -14 30 -50 33 -81 8z"/>
<path d="M1065 1711 c-12 -5 -26 -15 -31 -22 -11 -14 -84 -198 -84 -211 0 -4
-14 -38 -31 -75 -17 -38 -40 -87 -50 -111 -18 -41 -20 -43 -40 -28 -26 17 -56
9 -109 -32 -50 -39 -133 -92 -143 -92 -5 0 -22 -11 -39 -25 -56 -47 -69 -26
-47 75 18 88 20 124 8 148 -12 22 -10 26 26 58 22 19 54 42 70 51 17 8 34 22
38 29 4 8 13 14 18 14 17 0 99 40 99 49 0 12 -32 38 -56 45 -31 9 -89 -20
-220 -109 -33 -22 -74 -47 -93 -57 -34 -18 -50 -32 -178 -159 -92 -90 -96
-125 -19 -145 27 -6 35 0 114 82 66 69 87 85 90 71 8 -38 -40 -261 -64 -298
-13 -19 -24 -48 -24 -65 0 -16 -11 -89 -25 -163 -18 -99 -33 -152 -59 -205
-20 -39 -43 -93 -52 -121 -9 -27 -27 -63 -41 -79 -31 -37 -27 -70 9 -74 40 -5
83 33 108 92 27 66 69 147 86 167 8 9 22 48 32 87 10 40 21 74 24 78 4 3 18
-18 31 -48 13 -29 54 -85 90 -123 35 -39 66 -79 68 -90 2 -11 16 -24 31 -29
54 -19 70 21 88 234 12 132 50 314 70 334 7 7 14 6 22 -2 14 -14 58 -16 58 -3
0 10 21 38 134 176 85 105 206 230 256 265 19 13 41 32 48 42 15 21 42 24 42
5 0 -7 -11 -35 -24 -63 -26 -54 -56 -138 -56 -157 0 -7 -9 -30 -19 -52 -11
-22 -32 -71 -46 -110 -15 -38 -39 -97 -55 -130 -16 -33 -38 -85 -50 -115 -12
-30 -23 -56 -25 -58 -1 -2 -31 14 -65 34 l-63 37 -34 -18 c-59 -32 -39 -87 47
-130 50 -25 70 -44 63 -63 -18 -52 -68 -151 -117 -232 -31 -50 -56 -97 -56
-103 0 -7 -9 -23 -20 -37 -15 -20 -21 -23 -31 -13 -25 25 -39 15 -39 -28 0
-22 5 -49 10 -60 15 -27 63 -25 83 3 9 13 31 39 50 59 18 20 47 58 63 84 16
26 37 59 46 74 9 14 38 69 63 121 26 52 48 96 49 98 9 9 82 -29 136 -73 94
-75 270 -245 286 -278 16 -29 51 -36 72 -15 29 29 3 148 -40 176 -73 48 -108
75 -108 82 0 9 -106 96 -178 147 -104 74 -114 84 -108 116 3 16 16 50 29 75
13 26 45 101 71 167 26 66 59 146 72 178 13 32 24 63 24 68 0 6 13 44 30 86
38 94 52 230 26 252 -43 36 -178 -34 -320 -164 -33 -30 -63 -52 -68 -49 -5 3
0 22 11 42 11 20 25 54 31 74 6 20 18 42 26 48 7 7 14 16 14 21 0 5 14 39 32
75 24 50 29 69 21 82 -11 19 -58 26 -88 13z m-405 -703 c-7 -35 -17 -72 -23
-82 -15 -29 -38 -134 -43 -196 -7 -89 -14 -123 -25 -137 -12 -13 -10 -15 -85
89 -31 43 -64 126 -64 159 0 32 54 107 92 129 21 11 41 27 45 34 5 7 27 23 50
35 23 11 45 26 48 32 15 23 17 -4 5 -63z"/>
</g>
</svg>
