<?xml version="1.0" standalone="no"?>
<!DOCTYPE svg PUBLIC "-//W3C//DTD SVG 20010904//EN"
 "http://www.w3.org/TR/2001/REC-SVG-20010904/DTD/svg10.dtd">
<svg version="1.0" xmlns="http://www.w3.org/2000/svg"
 width="208.000000pt" height="214.000000pt" viewBox="0 0 208.000000 214.000000"
 preserveAspectRatio="xMidYMid meet">
<metadata>
Created by potrace 1.16, written by Peter Selinger 2001-2019
</metadata>
<g transform="translate(0.000000,214.000000) scale(0.100000,-0.100000)"
fill="#000000" stroke="none">
<path d="M1204 1938 c-36 -17 -50 -60 -74 -218 -5 -36 -15 -83 -23 -105 -7
-22 -24 -89 -37 -150 -12 -60 -33 -135 -46 -166 -13 -31 -24 -61 -24 -67 0 -6
-9 -28 -20 -49 -10 -21 -30 -67 -44 -103 -13 -36 -47 -120 -75 -188 -28 -68
-51 -127 -51 -132 0 -5 11 -4 25 2 14 6 25 18 25 26 0 8 16 37 35 63 19 27 35
51 35 54 0 3 14 30 31 61 31 55 32 55 50 35 11 -11 19 -25 19 -30 0 -6 12 -17
28 -25 15 -8 36 -24 46 -35 18 -20 19 -26 7 -74 -8 -29 -24 -72 -36 -97 -13
-25 -39 -79 -58 -120 -20 -41 -45 -85 -56 -97 -12 -12 -21 -31 -21 -43 0 -27
37 -26 71 3 33 28 104 135 113 171 4 15 16 34 27 44 22 18 59 87 59 109 0 17
27 17 37 0 9 -16 95 -77 142 -101 18 -10 42 -26 54 -36 12 -11 52 -34 87 -52
36 -18 77 -45 92 -60 14 -15 39 -30 55 -34 15 -4 40 -13 55 -21 25 -12 30 -11
48 7 12 12 17 26 13 37 -11 31 -126 139 -163 153 -71 27 -175 81 -190 98 -24
27 -97 82 -109 82 -6 0 -11 4 -11 9 0 5 -12 23 -26 41 l-26 31 29 77 c16 42
34 91 40 107 6 17 30 77 53 135 23 58 48 121 55 140 7 19 31 71 53 115 22 44
43 103 47 132 6 46 5 52 -14 58 -23 7 -58 -9 -81 -37 -8 -10 -43 -36 -77 -56
-34 -20 -87 -55 -118 -76 -30 -22 -58 -36 -61 -33 -9 8 31 162 64 249 15 42
32 70 44 73 22 8 39 37 30 52 -6 8 -100 55 -106 52 0 0 -11 -5 -22 -11z m96
-595 c-23 -59 -51 -133 -62 -163 -11 -30 -26 -69 -34 -87 -8 -17 -14 -35 -14
-40 0 -4 -4 -14 -9 -22 -7 -11 -18 -6 -50 25 -23 21 -55 41 -71 44 l-30 5 35
70 c19 39 35 76 35 83 0 8 8 24 19 37 10 13 24 51 31 84 7 34 16 61 21 61 4 0
21 -8 37 -17 29 -17 30 -16 78 15 27 17 50 27 52 22 2 -5 -15 -58 -38 -117z"/>
<path d="M684 1832 c-27 -18 -38 -63 -42 -182 l-5 -125 -59 -37 c-32 -21 -64
-38 -71 -38 -7 0 -21 -7 -31 -15 -11 -8 -27 -13 -37 -10 -22 7 -79 -47 -79
-75 0 -75 99 -90 174 -25 16 14 32 25 36 25 4 0 18 9 31 21 13 12 25 16 27 10
2 -6 -4 -68 -14 -139 -9 -70 -18 -138 -19 -151 -1 -14 -10 -30 -21 -35 -60
-33 -94 -61 -94 -78 0 -56 61 -83 108 -48 25 19 149 47 159 37 9 -10 -29 -81
-69 -129 -100 -118 -156 -171 -173 -164 -12 4 -15 13 -10 35 4 17 2 32 -5 36
-7 4 -9 21 -6 44 7 41 -4 93 -22 99 -15 5 -40 -56 -48 -118 -8 -58 27 -185 58
-213 41 -35 69 -23 149 62 131 140 159 175 191 240 34 72 44 169 20 193 -8 8
-42 13 -95 14 -45 0 -82 5 -81 10 1 29 19 94 34 124 9 19 25 89 35 155 17 113
38 178 72 217 21 24 13 62 -14 66 -19 3 -23 10 -23 37 0 19 4 45 10 59 22 59
-39 129 -86 98z"/>
</g>
</svg>
