<?xml version="1.0" standalone="no"?>
<!DOCTYPE svg PUBLIC "-//W3C//DTD SVG 20010904//EN"
 "http://www.w3.org/TR/2001/REC-SVG-20010904/DTD/svg10.dtd">
<svg version="1.0" xmlns="http://www.w3.org/2000/svg"
 width="208.000000pt" height="213.000000pt" viewBox="0 0 208.000000 213.000000"
 preserveAspectRatio="xMidYMid meet">
<metadata>
Created by potrace 1.16, written by Peter Selinger 2001-2019
</metadata>
<g transform="translate(0.000000,213.000000) scale(0.100000,-0.100000)"
fill="#000000" stroke="none">
<path d="M1012 1859 c-45 -17 -54 -35 -46 -92 21 -149 -4 -280 -86 -452 -47
-99 -50 -126 -14 -154 33 -26 53 -27 61 -3 3 9 18 35 33 57 15 22 47 74 70
115 24 41 46 77 50 80 4 3 17 24 30 48 13 23 27 42 31 42 5 0 25 17 46 39 21
21 49 42 63 46 14 4 38 18 53 31 26 22 57 32 57 18 0 -3 -11 -33 -24 -67 -14
-34 -32 -90 -41 -125 -9 -34 -24 -77 -34 -95 -10 -18 -26 -57 -36 -87 -9 -30
-21 -59 -26 -64 -5 -6 -9 -16 -9 -24 0 -23 -78 -182 -89 -182 -16 0 -41 43
-41 72 0 34 -27 44 -77 26 -43 -15 -53 -24 -53 -54 0 -26 57 -114 97 -148 27
-23 27 -25 14 -63 -8 -21 -38 -74 -66 -119 -29 -45 -56 -90 -59 -101 -3 -11
-20 -41 -36 -67 -23 -36 -34 -45 -43 -37 -24 19 -40 -4 -34 -49 6 -50 21 -63
62 -55 45 8 113 91 177 216 26 52 99 169 105 169 3 0 20 -11 37 -24 17 -13 40
-26 51 -30 11 -3 35 -20 54 -36 18 -17 38 -30 43 -30 5 0 30 -19 56 -43 26
-24 58 -51 72 -60 25 -17 39 -28 141 -116 30 -26 77 -63 104 -81 27 -18 74
-60 106 -92 55 -56 61 -59 101 -56 52 4 61 26 26 60 -39 38 -88 105 -88 121 0
13 -69 67 -87 67 -5 0 -27 18 -51 40 -45 42 -133 112 -183 145 -17 11 -51 37
-76 58 -25 21 -68 52 -96 71 -29 18 -58 40 -66 50 -8 10 -27 24 -43 32 -15 8
-30 25 -34 39 -7 27 36 149 136 385 54 128 99 282 106 361 5 65 4 78 -12 93
-27 28 -116 15 -171 -24 -23 -17 -46 -30 -52 -30 -5 0 -40 -23 -76 -51 -37
-28 -68 -49 -70 -47 -5 5 21 211 29 229 12 27 -54 62 -92 48z"/>
<path d="M582 1762 c-27 -4 -56 -44 -48 -69 3 -10 8 -73 11 -139 l6 -122 -53
-41 c-76 -59 -148 -133 -154 -158 -8 -31 17 -77 45 -81 39 -6 68 6 75 31 7 30
45 79 55 72 7 -4 -26 -193 -44 -252 -4 -11 -25 -35 -46 -53 -22 -17 -51 -49
-66 -71 -14 -21 -30 -39 -35 -39 -13 0 -46 -39 -58 -67 -5 -12 -10 -51 -12
-85 -2 -60 1 -67 40 -126 53 -77 84 -95 146 -83 83 15 202 151 245 279 24 70
28 179 9 204 -7 9 -36 23 -64 32 -42 14 -56 14 -78 5 -14 -7 -29 -9 -33 -6 -5
6 19 73 48 129 5 10 9 25 9 33 0 9 8 32 18 53 11 20 27 70 38 110 14 58 24 77
44 87 14 8 51 38 82 67 32 29 71 63 88 76 33 26 41 62 13 62 -20 0 -117 -49
-173 -86 -23 -16 -36 -20 -41 -13 -8 13 -2 156 6 170 3 4 24 13 46 19 33 9 40
15 37 33 -3 19 -10 22 -55 23 -28 1 -58 3 -65 6 -7 2 -23 2 -36 0z m36 -900
c6 -60 -98 -212 -182 -267 -24 -16 -28 -16 -44 -1 -51 45 -80 161 -44 172 38
12 65 30 105 67 51 48 92 68 132 64 26 -2 30 -6 33 -35z"/>
</g>
</svg>
