<?xml version="1.0" standalone="no"?>
<!DOCTYPE svg PUBLIC "-//W3C//DTD SVG 20010904//EN"
 "http://www.w3.org/TR/2001/REC-SVG-20010904/DTD/svg10.dtd">
<svg version="1.0" xmlns="http://www.w3.org/2000/svg"
 width="208.000000pt" height="213.000000pt" viewBox="0 0 208.000000 213.000000"
 preserveAspectRatio="xMidYMid meet">
<metadata>
Created by potrace 1.16, written by Peter Selinger 2001-2019
</metadata>
<g transform="translate(0.000000,213.000000) scale(0.100000,-0.100000)"
fill="#000000" stroke="none">
<path d="M1123 2013 c-40 -5 -49 -27 -63 -158 -14 -126 -65 -336 -96 -395 -13
-25 -32 -73 -43 -108 -10 -34 -31 -78 -45 -97 -14 -18 -26 -38 -26 -43 0 -5
-9 -17 -20 -27 -11 -10 -40 -53 -65 -96 -25 -43 -49 -80 -55 -84 -5 -3 -20 1
-32 9 -25 18 -113 22 -123 6 -3 -5 -13 -10 -22 -10 -17 0 -16 17 11 112 9 31
27 118 41 195 35 190 35 191 53 198 20 7 149 120 186 163 22 25 26 36 17 45
-13 13 -80 -20 -151 -72 -37 -27 -76 -51 -85 -51 -12 0 -3 45 12 62 22 25 6
54 -28 51 -13 -1 -39 -3 -58 -5 -47 -4 -58 -26 -43 -83 21 -81 17 -107 -26
-135 -20 -14 -44 -28 -52 -32 -47 -23 -165 -126 -168 -146 -4 -27 13 -51 46
-63 29 -11 38 -6 99 51 65 61 103 86 103 66 0 -126 -80 -371 -169 -516 -28
-46 -27 -64 5 -89 36 -29 57 -26 77 9 46 78 173 171 212 157 44 -18 39 -114
-12 -219 -18 -38 -33 -73 -33 -77 0 -13 -67 -64 -125 -95 -48 -25 -117 -34
-140 -18 -6 4 -21 22 -34 40 -18 26 -23 46 -22 100 0 37 1 78 3 92 5 38 -24
35 -51 -6 -38 -60 -48 -101 -40 -162 6 -46 14 -62 46 -94 22 -21 62 -46 92
-58 49 -18 57 -18 109 -5 31 8 64 15 73 15 34 0 134 62 161 99 45 63 98 223
98 295 0 49 2 53 45 86 24 19 47 42 50 51 3 9 14 24 24 33 18 17 19 16 26 -16
10 -45 66 -148 87 -162 10 -6 18 -15 18 -20 0 -11 -103 -179 -120 -196 -6 -6
-31 -50 -55 -97 -23 -43 -45 -51 -45 -15 0 30 -24 71 -35 60 -15 -15 -23 -83
-15 -131 12 -75 58 -106 107 -72 20 14 103 128 103 141 0 4 11 21 24 39 13 17
31 49 40 70 20 48 63 105 78 105 7 0 46 -35 87 -78 42 -43 105 -101 141 -127
36 -27 74 -57 85 -67 72 -64 146 -117 203 -146 37 -19 92 -47 122 -63 l56 -28
69 16 c81 18 97 31 93 75 -3 32 -4 33 -45 30 -51 -4 -140 13 -185 36 -89 46
-324 222 -413 309 -82 81 -145 156 -144 173 0 8 18 47 40 85 21 39 57 104 79
145 22 41 56 102 75 135 33 56 105 201 105 211 0 2 18 43 39 92 45 98 64 210
41 237 -19 23 -71 18 -112 -10 -20 -14 -39 -25 -42 -25 -9 0 -93 -59 -106 -75
-7 -8 -18 -15 -26 -15 -7 0 -40 -25 -73 -55 -33 -31 -62 -52 -65 -47 -2 4 8
57 25 118 16 60 29 119 29 130 0 12 7 46 16 75 9 30 22 74 29 98 12 39 11 45
-6 62 -10 10 -22 18 -26 17 -5 0 -22 -3 -40 -5z m287 -402 c0 -6 -4 -12 -9
-16 -5 -3 -12 -19 -16 -35 -8 -36 -80 -207 -95 -225 -5 -7 -26 -43 -46 -81
-21 -38 -50 -88 -65 -111 -16 -23 -29 -45 -29 -49 0 -4 -21 -45 -46 -91 -36
-66 -48 -82 -59 -73 -7 6 -15 23 -18 38 -22 108 -28 114 -103 88 l-45 -15 20
32 c11 18 33 55 49 82 35 59 91 141 148 216 92 120 314 290 314 240z"/>
</g>
</svg>
