<?xml version="1.0" standalone="no"?>
<!DOCTYPE svg PUBLIC "-//W3C//DTD SVG 20010904//EN"
 "http://www.w3.org/TR/2001/REC-SVG-20010904/DTD/svg10.dtd">
<svg version="1.0" xmlns="http://www.w3.org/2000/svg"
 width="208.000000pt" height="213.000000pt" viewBox="0 0 208.000000 213.000000"
 preserveAspectRatio="xMidYMid meet">
<metadata>
Created by potrace 1.16, written by Peter Selinger 2001-2019
</metadata>
<g transform="translate(0.000000,213.000000) scale(0.100000,-0.100000)"
fill="#000000" stroke="none">
<path d="M429 1995 c-32 -17 -51 -77 -43 -136 3 -24 2 -68 -3 -97 -7 -50 -10
-55 -44 -66 -20 -7 -53 -25 -73 -41 -47 -36 -47 -76 0 -105 30 -19 30 -19 65
4 112 75 245 162 253 165 12 5 -1 -32 -39 -119 -19 -41 -46 -106 -60 -145 -15
-38 -49 -116 -76 -172 -27 -56 -49 -104 -49 -108 0 -4 -22 -44 -50 -90 -27
-46 -50 -87 -50 -91 -1 -27 -189 -288 -216 -298 -7 -3 -20 -21 -29 -41 -30
-75 24 -98 84 -37 35 34 141 160 141 166 0 2 13 17 28 33 16 15 31 35 33 42 4
10 25 -4 69 -47 l63 -62 -47 -75 c-25 -42 -46 -78 -46 -81 0 -3 -25 -31 -55
-62 -59 -61 -63 -69 -40 -78 29 -11 73 18 136 89 35 39 72 79 82 89 9 10 17
22 17 26 0 5 9 17 19 26 18 16 23 15 97 -25 44 -24 94 -53 113 -66 19 -13 39
-23 46 -23 7 0 23 -8 36 -18 13 -11 37 -22 54 -26 16 -4 49 -21 73 -37 24 -16
59 -36 78 -44 19 -8 34 -18 34 -22 0 -4 -11 -35 -24 -68 -19 -46 -30 -61 -48
-63 -32 -5 -48 -29 -48 -73 0 -49 23 -73 64 -65 41 8 85 59 131 152 21 42 43
78 50 80 6 3 31 1 54 -5 55 -12 83 -4 79 23 -2 14 -18 28 -45 40 -25 11 -43
26 -43 36 0 15 104 227 119 243 10 10 46 -23 280 -254 119 -117 199 -189 217
-193 15 -4 39 -15 53 -25 58 -40 120 -62 163 -59 l43 3 3 59 c4 69 -12 116
-39 116 -15 0 -19 -7 -19 -35 0 -29 -4 -35 -21 -35 -12 0 -43 15 -69 34 -26
19 -61 41 -78 50 -17 9 -54 41 -84 72 -29 31 -88 91 -132 133 -148 143 -216
213 -216 221 0 4 -7 14 -16 21 -21 17 -14 79 14 134 39 75 61 123 78 177 42
132 170 424 189 431 22 9 58 170 41 187 -25 25 -59 12 -162 -62 -143 -102
-135 -104 -90 15 14 37 26 82 26 100 1 18 7 43 15 57 21 36 19 103 -3 123 -24
22 -32 21 -63 -6 -21 -17 -29 -37 -39 -97 -15 -94 -36 -170 -66 -238 -13 -29
-24 -57 -24 -63 0 -6 -22 -56 -50 -112 -50 -104 -106 -190 -156 -240 -15 -15
-55 -74 -90 -130 -34 -56 -74 -121 -88 -143 -14 -23 -26 -53 -26 -67 0 -27 32
-57 60 -57 23 0 137 143 160 200 12 30 10 26 88 135 35 48 66 95 69 104 11 30
101 135 177 208 42 40 76 70 76 66 0 -4 -4 -20 -9 -37 -5 -17 -15 -51 -22 -76
-7 -25 -25 -72 -40 -105 -14 -33 -41 -96 -60 -140 -18 -44 -42 -96 -54 -115
-12 -19 -27 -52 -34 -72 -16 -50 -25 -53 -55 -23 -22 22 -34 26 -74 23 -46 -3
-47 -4 -50 -39 -3 -31 4 -44 47 -92 28 -30 51 -61 51 -68 0 -7 -24 -55 -53
-108 -29 -53 -61 -115 -71 -138 -15 -33 -25 -43 -42 -43 -13 0 -25 4 -28 8 -8
14 -157 98 -216 123 -30 12 -71 35 -90 49 -19 15 -48 35 -65 43 -59 32 -88 63
-80 86 3 11 12 27 18 34 22 23 54 72 75 114 12 23 35 61 51 85 16 24 53 89 82
145 30 56 66 125 81 152 31 59 46 145 28 165 -14 18 -41 11 -146 -39 -106 -51
-134 -72 -134 -99 0 -31 24 -49 66 -50 42 -1 44 -20 11 -74 -13 -20 -41 -68
-62 -107 -21 -38 -43 -77 -50 -85 -6 -8 -23 -38 -37 -66 -28 -58 -76 -124 -90
-124 -5 0 -26 14 -47 30 -21 17 -49 34 -63 38 l-26 7 39 65 c21 36 55 99 74
140 19 41 39 82 45 91 5 10 39 91 75 180 36 90 77 180 89 200 13 19 33 56 45
82 12 26 26 47 31 47 6 0 10 6 10 13 0 8 9 22 20 32 11 10 20 24 20 31 0 7 12
22 26 33 50 39 70 106 39 131 -12 10 -22 9 -49 -4 -19 -9 -39 -16 -46 -16 -6
0 -23 -13 -37 -30 -13 -16 -32 -30 -41 -30 -9 0 -25 -8 -36 -19 -12 -10 -59
-44 -105 -76 l-84 -58 7 34 c4 19 12 69 18 113 8 64 8 80 -3 87 -19 12 -29 11
-60 -6z"/>
</g>
</svg>
