<?xml version="1.0" standalone="no"?>
<!DOCTYPE svg PUBLIC "-//W3C//DTD SVG 20010904//EN"
 "http://www.w3.org/TR/2001/REC-SVG-20010904/DTD/svg10.dtd">
<svg version="1.0" xmlns="http://www.w3.org/2000/svg"
 width="208.000000pt" height="213.000000pt" viewBox="0 0 208.000000 213.000000"
 preserveAspectRatio="xMidYMid meet">
<metadata>
Created by potrace 1.16, written by Peter Selinger 2001-2019
</metadata>
<g transform="translate(0.000000,213.000000) scale(0.100000,-0.100000)"
fill="#000000" stroke="none">
<path d="M534 1985 c-9 -13 -26 -62 -39 -107 -44 -159 -75 -260 -93 -296 -10
-20 -24 -57 -32 -82 -18 -62 -40 -131 -51 -155 -15 -34 -89 -257 -104 -313 -8
-28 -30 -85 -49 -125 -18 -39 -36 -81 -40 -92 -4 -13 -25 -27 -63 -41 l-58
-20 -3 -57 c-2 -45 0 -57 12 -57 22 0 198 60 223 76 12 8 29 14 37 14 8 0 19
6 23 13 4 8 22 19 38 24 17 6 39 14 49 19 22 8 24 22 -20 -161 -16 -66 -34
-124 -41 -130 -6 -5 -13 -18 -15 -27 -4 -23 33 -78 53 -78 9 0 35 18 59 40 23
22 52 42 64 46 12 3 35 16 51 28 17 12 57 37 90 55 33 18 69 41 80 51 25 21
84 45 92 37 7 -7 37 -311 34 -345 -1 -9 -17 -12 -56 -11 -56 2 -88 -12 -70
-30 13 -12 160 -61 184 -61 33 0 44 50 37 168 -21 342 -16 478 19 527 8 11 40
58 71 105 31 47 64 93 73 102 9 10 43 56 76 104 52 76 266 314 303 337 26 17
29 0 11 -63 -43 -147 -59 -189 -126 -340 -8 -19 -28 -69 -43 -110 -50 -135
-69 -182 -75 -188 -2 -3 -24 16 -47 41 -45 51 -76 59 -116 31 -35 -24 -27 -55
31 -120 79 -89 80 -93 57 -160 -11 -31 -24 -62 -28 -68 -5 -6 -26 -53 -48
-105 -21 -51 -46 -96 -54 -99 -23 -8 -30 -23 -30 -63 0 -56 40 -77 86 -45 22
16 117 202 156 306 27 72 51 87 85 51 11 -12 43 -33 72 -49 28 -15 101 -57
160 -94 60 -38 127 -75 150 -83 24 -8 70 -37 103 -65 41 -34 69 -50 88 -50 40
0 62 25 58 68 -2 28 -10 39 -38 54 -19 11 -55 33 -80 49 -25 16 -72 42 -105
59 -33 16 -89 47 -125 70 -36 22 -84 49 -106 60 -23 11 -47 27 -54 35 -7 8
-18 15 -24 15 -7 0 -32 20 -56 45 l-44 45 28 77 c15 43 39 108 52 145 13 37
40 103 60 145 20 43 42 98 49 123 19 62 59 170 73 197 7 12 12 31 12 43 0 11
7 31 15 44 23 35 36 83 40 153 4 60 3 63 -21 69 -18 5 -35 -2 -69 -27 -24 -19
-61 -45 -81 -59 -20 -14 -57 -44 -82 -68 -25 -24 -58 -50 -73 -58 -15 -7 -36
-27 -46 -44 -19 -33 -37 -40 -29 -12 15 55 59 201 66 222 5 14 12 68 15 120 6
88 5 97 -15 123 -27 35 -42 34 -73 -3 -22 -26 -26 -42 -32 -139 l-7 -109 -49
0 c-55 0 -88 -19 -160 -91 -25 -25 -76 -64 -113 -86 -92 -55 -154 -93 -198
-122 -20 -14 -56 -32 -80 -40 -38 -13 -64 -29 -150 -94 -13 -10 -24 -34 -30
-70 -10 -55 -11 -193 -3 -239 7 -34 2 -39 -92 -88 -92 -47 -99 -43 -61 31 11
23 31 74 44 112 13 39 44 129 69 200 25 72 51 148 57 170 14 54 25 63 42 40
14 -19 15 -19 34 -1 11 10 33 42 47 71 28 55 30 56 224 155 27 14 58 33 68 42
10 8 28 19 40 22 28 9 56 52 48 76 -4 11 -10 20 -15 20 -18 0 -165 -62 -181
-76 -8 -8 -25 -14 -36 -14 -11 0 -45 -13 -76 -30 -100 -53 -114 -40 -52 52 18
25 38 67 44 94 7 26 18 56 26 67 17 24 10 66 -14 84 -9 7 -33 13 -53 13 -29 0
-41 -6 -54 -25z m640 -407 c-4 -18 -14 -52 -24 -74 -10 -23 -21 -57 -25 -75
-12 -54 -81 -181 -116 -214 l-32 -30 7 52 c3 28 16 72 27 98 11 25 27 71 35
101 20 79 50 132 87 154 43 27 47 25 41 -12z m-268 -170 c-3 -13 -13 -57 -22
-98 -17 -80 -24 -89 -126 -172 -49 -40 -58 -44 -58 -28 0 11 54 84 88 118 51
51 14 77 -54 37 -25 -15 -52 -24 -61 -20 -13 4 -9 13 23 43 21 21 54 44 72 51
17 7 32 17 32 22 0 5 11 14 25 19 13 5 30 18 37 30 18 29 52 27 44 -2z m-328
-217 c9 -5 11 -19 7 -42 -3 -19 -2 -54 4 -79 10 -41 8 -47 -10 -62 -12 -10
-30 -18 -40 -18 -17 0 -19 8 -19 79 0 113 17 148 58 122z m276 -122 c-3 -45
-14 -134 -24 -184 -5 -27 -12 -67 -15 -87 -6 -36 -8 -38 -148 -107 -79 -39
-147 -71 -152 -71 -4 0 -17 -7 -27 -17 -27 -25 -32 -10 -15 54 l14 58 42 -3
c45 -3 81 11 81 31 0 14 46 62 77 81 80 48 84 51 81 76 -2 19 -10 26 -30 28
-47 5 -36 40 34 108 35 34 68 61 73 59 6 -1 9 -13 9 -26z m-239 -169 c-3 -5
-12 -10 -18 -10 -7 0 -6 4 3 10 19 12 23 12 15 0z m-62 -45 c-19 -25 -33 -32
-33 -16 0 9 38 41 48 41 1 0 -5 -11 -15 -25z"/>
</g>
</svg>
