<?xml version="1.0" standalone="no"?>
<!DOCTYPE svg PUBLIC "-//W3C//DTD SVG 20010904//EN"
 "http://www.w3.org/TR/2001/REC-SVG-20010904/DTD/svg10.dtd">
<svg version="1.0" xmlns="http://www.w3.org/2000/svg"
 width="206.000000pt" height="211.000000pt" viewBox="0 0 206.000000 211.000000"
 preserveAspectRatio="xMidYMid meet">
<metadata>
Created by potrace 1.16, written by Peter Selinger 2001-2019
</metadata>
<g transform="translate(0.000000,211.000000) scale(0.100000,-0.100000)"
fill="#000000" stroke="none">
<path d="M680 1936 c-36 -11 -42 -26 -74 -178 -4 -18 -26 -40 -73 -72 -112
-76 -138 -97 -142 -109 -2 -7 -33 -41 -69 -77 -76 -76 -88 -93 -96 -142 -6
-32 -3 -39 23 -57 40 -29 50 -27 67 16 9 20 26 51 38 67 13 17 25 38 28 46 7
18 87 60 115 60 26 0 46 24 39 47 -6 20 9 51 20 41 9 -10 -43 -237 -62 -266
-9 -13 -29 -31 -46 -40 -17 -10 -43 -27 -58 -39 -15 -13 -31 -23 -35 -23 -4 0
-24 -13 -44 -29 -20 -16 -70 -45 -111 -65 -41 -21 -93 -50 -115 -67 -22 -16
-50 -34 -62 -39 -21 -8 -23 -17 -23 -75 l0 -65 53 26 c28 15 72 42 96 62 46
37 107 72 127 72 6 0 17 7 25 16 19 23 99 77 106 71 5 -6 -29 -46 -104 -124
l-43 -44 0 -107 c0 -113 -21 -317 -40 -392 -7 -25 -14 -58 -16 -75 -3 -16 -14
-47 -25 -67 -23 -43 -19 -58 16 -58 27 0 85 55 85 80 0 9 4 20 9 25 5 6 16 33
24 60 11 41 18 51 39 53 17 2 32 16 48 45 27 48 88 131 100 135 4 2 11 -21 15
-50 8 -60 46 -161 85 -228 19 -32 34 -46 52 -48 35 -4 39 16 33 178 -3 74 -1
198 5 275 5 77 12 165 14 195 5 78 34 225 51 267 8 19 15 64 15 99 0 54 4 67
25 88 31 31 32 52 4 67 -27 14 -89 3 -89 -16 0 -8 -4 -15 -9 -15 -4 0 -29 -18
-54 -40 -25 -22 -48 -40 -51 -40 -14 0 -4 43 18 78 14 20 32 68 42 107 9 38
25 86 35 106 21 40 45 239 32 263 -6 11 -14 12 -43 2z m-59 -858 c-6 -40 -13
-95 -16 -123 -16 -136 -25 -222 -25 -238 0 -41 -18 -3 -24 50 -5 53 2 125 19
179 5 17 -1 24 -36 39 l-41 19 -19 -23 c-11 -13 -19 -32 -19 -44 0 -30 -38
-157 -62 -205 -34 -67 -42 -64 -35 14 4 38 7 83 7 100 0 25 6 33 35 47 30 14
35 22 35 51 0 19 6 39 13 43 6 4 23 24 37 44 26 37 130 132 138 125 2 -2 -1
-37 -7 -78z"/>
<path d="M1143 1849 c-13 -4 -31 -27 -42 -51 -10 -24 -31 -70 -46 -103 -15
-33 -40 -98 -56 -145 -104 -310 -108 -318 -195 -450 -58 -89 -61 -111 -13
-135 17 -9 37 -14 44 -12 16 7 125 158 157 218 32 60 78 125 125 176 21 23 49
56 63 73 39 49 257 263 282 277 61 33 60 22 -12 -157 -10 -25 -28 -72 -40
-105 -43 -121 -103 -271 -117 -293 -17 -28 -49 -115 -69 -190 -18 -68 -41
-112 -58 -112 -18 0 -50 44 -89 121 -23 47 -38 65 -55 67 -26 4 -80 -17 -86
-34 -12 -31 45 -132 124 -219 58 -64 69 -96 48 -139 -8 -17 -32 -67 -52 -111
-67 -145 -76 -155 -91 -103 -12 37 -31 47 -39 20 -8 -23 10 -156 24 -183 8
-14 21 -19 49 -19 l38 0 55 113 c30 61 67 139 83 172 l27 60 47 -54 c25 -30
132 -142 237 -248 153 -155 197 -194 220 -196 29 -2 29 -2 28 53 l-1 55 -109
110 c-61 61 -119 117 -129 126 -49 38 -173 187 -205 245 l-35 63 19 48 c11 26
38 102 61 168 23 66 49 136 58 155 15 33 41 99 89 230 11 30 32 82 48 115 41
88 62 161 67 243 7 88 -6 105 -72 95 -41 -6 -122 -42 -146 -65 -8 -7 -45 -40
-84 -73 -38 -33 -105 -96 -149 -140 -43 -44 -75 -71 -71 -60 4 11 13 40 22 65
8 25 18 50 22 55 4 6 16 37 26 70 11 33 27 71 36 85 24 37 30 59 23 86 -8 31
-32 44 -61 33z"/>
</g>
</svg>
