<?xml version="1.0" standalone="no"?>
<!DOCTYPE svg PUBLIC "-//W3C//DTD SVG 20010904//EN"
 "http://www.w3.org/TR/2001/REC-SVG-20010904/DTD/svg10.dtd">
<svg version="1.0" xmlns="http://www.w3.org/2000/svg"
 width="206.000000pt" height="211.000000pt" viewBox="0 0 206.000000 211.000000"
 preserveAspectRatio="xMidYMid meet">
<metadata>
Created by potrace 1.16, written by Peter Selinger 2001-2019
</metadata>
<g transform="translate(0.000000,211.000000) scale(0.100000,-0.100000)"
fill="#000000" stroke="none">
<path d="M705 1991 c-28 -16 -34 -30 -50 -103 -3 -18 -20 -38 -47 -55 -22 -16
-47 -32 -54 -38 -7 -5 -16 -6 -20 -2 -4 4 9 22 29 41 42 38 48 71 15 79 -12 4
-27 2 -33 -3 -5 -5 -36 -18 -67 -30 -35 -13 -69 -34 -87 -56 -35 -39 -35 -39
-20 -83 14 -40 -3 -63 -76 -98 -71 -34 -103 -65 -111 -108 -6 -31 -3 -40 22
-66 23 -24 34 -28 58 -23 45 10 90 38 96 60 3 11 20 38 38 60 31 37 34 38 44
20 19 -34 60 -66 84 -66 29 0 29 2 5 -53 -15 -35 -34 -54 -88 -91 -37 -25 -87
-59 -111 -76 -23 -16 -46 -30 -50 -30 -6 0 -109 -73 -186 -132 -16 -12 -38
-42 -49 -67 l-20 -45 23 -18 c23 -19 80 -25 80 -9 0 13 72 81 86 81 6 0 22 10
35 23 42 38 106 87 116 87 4 0 19 10 33 23 24 22 117 87 125 87 10 0 167 115
218 159 32 28 63 51 68 51 6 0 9 12 7 28 -4 36 -42 41 -97 13 -22 -12 -43 -21
-46 -21 -11 0 25 127 54 195 10 22 23 67 30 100 7 33 20 77 29 99 16 38 16 39
-11 62 -33 28 -33 28 -72 5z m-110 -323 c-11 -55 -26 -108 -29 -108 -6 0 -46
79 -46 90 0 16 43 50 63 50 16 0 18 -5 12 -32z"/>
<path d="M1129 1968 c-13 -10 -18 -40 -23 -154 -3 -77 -10 -165 -17 -195 -18
-93 -60 -217 -83 -251 -12 -18 -25 -41 -29 -52 -4 -10 -24 -43 -46 -75 -76
-111 -99 -151 -121 -211 -26 -71 -19 -105 26 -116 23 -6 32 -2 51 22 24 30 28
36 83 138 17 33 40 71 50 85 17 25 46 75 87 153 19 36 249 268 265 268 10 0
10 -3 -3 -37 -6 -15 -20 -59 -31 -98 -11 -38 -25 -83 -32 -100 -7 -16 -25 -66
-39 -110 -14 -44 -41 -111 -60 -150 -19 -38 -41 -89 -48 -113 -17 -59 -35 -72
-51 -36 -28 67 -52 77 -99 43 -46 -32 -36 -84 33 -171 27 -35 28 -39 15 -65
-8 -15 -24 -60 -35 -99 -12 -39 -29 -77 -37 -84 -8 -7 -15 -17 -15 -23 0 -19
-53 -127 -62 -127 -17 0 -27 -48 -17 -83 7 -28 16 -37 39 -42 39 -9 45 -4 68
58 11 29 43 98 70 153 28 55 54 113 58 129 8 35 22 55 38 55 7 0 33 -19 59
-43 26 -23 64 -52 85 -62 20 -11 56 -33 79 -50 102 -73 121 -86 163 -108 59
-30 119 -65 150 -87 14 -9 35 -21 48 -24 12 -4 22 -11 22 -15 0 -4 25 -20 55
-36 31 -15 60 -35 65 -44 10 -19 127 -81 153 -81 14 0 17 10 17 59 0 68 7 61
-145 141 -54 28 -114 64 -134 80 -20 15 -72 47 -116 70 -85 45 -238 144 -256
167 -6 7 -17 13 -24 13 -7 0 -28 15 -47 33 -19 17 -49 42 -65 55 -53 40 -59
70 -33 155 13 39 33 90 45 112 67 120 215 573 215 658 0 35 -15 57 -38 57 -34
0 -135 -62 -244 -150 -20 -17 -39 -30 -41 -30 -3 0 1 28 10 63 9 38 15 119 16
212 l2 150 -30 3 c-16 2 -37 -3 -46 -10z"/>
<path d="M600 1222 c-139 -141 -184 -202 -184 -254 0 -24 -5 -38 -13 -38 -17
0 -16 20 3 97 9 35 13 70 10 78 -8 21 -46 18 -76 -5 -14 -11 -30 -20 -37 -20
-19 0 -22 -25 -22 -210 -1 -168 -8 -265 -30 -415 -24 -162 -28 -210 -20 -219
11 -13 76 60 88 98 5 17 12 52 16 79 4 29 11 47 19 47 7 0 33 22 57 49 56 63
60 68 94 122 16 24 34 49 40 54 17 15 45 75 45 97 0 37 -39 16 -124 -67 -47
-47 -88 -85 -90 -85 -5 0 3 144 10 178 4 20 9 22 39 16 18 -3 49 -1 67 5 18 6
54 15 80 19 l47 9 0 -96 c0 -53 5 -121 11 -151 15 -75 11 -188 -7 -206 -33
-32 16 -131 67 -136 20 -3 27 3 35 29 11 33 12 217 2 438 -6 132 14 430 32
485 22 69 10 120 -28 120 -9 0 -68 -53 -131 -118z m29 -199 c0 -32 -3 -73 -6
-92 -5 -27 -8 -30 -15 -17 -6 10 -22 16 -48 16 -23 0 -40 5 -40 11 0 16 89
139 101 139 5 0 9 -26 8 -57z"/>
</g>
</svg>
