<?xml version="1.0" standalone="no"?>
<!DOCTYPE svg PUBLIC "-//W3C//DTD SVG 20010904//EN"
 "http://www.w3.org/TR/2001/REC-SVG-20010904/DTD/svg10.dtd">
<svg version="1.0" xmlns="http://www.w3.org/2000/svg"
 width="206.000000pt" height="211.000000pt" viewBox="0 0 206.000000 211.000000"
 preserveAspectRatio="xMidYMid meet">
<metadata>
Created by potrace 1.16, written by Peter Selinger 2001-2019
</metadata>
<g transform="translate(0.000000,211.000000) scale(0.100000,-0.100000)"
fill="#000000" stroke="none">
<path d="M840 2046 c-52 -23 -82 -50 -103 -94 -15 -32 -37 -56 -70 -76 -232
-149 -251 -166 -263 -225 -7 -35 27 -71 65 -70 42 1 106 42 104 65 -2 20 42
82 52 72 3 -2 0 -20 -5 -39 -6 -18 -10 -46 -10 -61 0 -21 -9 -34 -40 -53 -22
-14 -40 -32 -40 -39 0 -17 27 -46 41 -46 10 0 6 -110 -7 -210 -5 -39 -11 -47
-41 -63 -34 -17 -36 -17 -57 0 -30 26 -36 35 -36 61 0 34 -27 26 -33 -10 -3
-22 1 -46 14 -71 24 -48 24 -61 -3 -91 -13 -13 -43 -48 -68 -77 -25 -29 -66
-76 -93 -103 -26 -28 -47 -55 -47 -62 0 -6 -11 -19 -24 -27 -13 -9 -34 -33
-47 -54 -12 -21 -38 -55 -56 -76 -44 -50 -43 -92 1 -92 23 0 36 9 61 45 17 25
49 63 71 86 21 22 50 55 64 74 14 18 55 66 93 107 37 41 67 80 67 87 0 21 82
106 101 106 17 0 19 -8 19 -64 0 -35 -7 -83 -15 -106 -8 -23 -16 -61 -17 -84
-3 -34 0 -41 17 -44 24 -3 57 54 79 138 25 96 35 109 56 71 6 -12 38 -29 80
-42 39 -13 69 -26 68 -30 -2 -4 -19 -18 -38 -31 -26 -18 -35 -31 -35 -52 0
-28 -32 -55 -66 -56 -25 0 -149 -59 -149 -70 0 -6 -6 -10 -14 -10 -44 0 -166
-83 -166 -113 0 -7 13 -25 28 -40 l29 -28 57 31 c32 16 64 30 71 30 7 0 18 7
26 16 15 18 169 94 192 94 8 0 17 3 19 8 4 10 107 62 123 62 20 0 28 -71 31
-270 2 -102 3 -193 3 -202 2 -62 57 42 72 137 24 145 31 166 53 163 12 -1 26
1 32 5 7 4 42 23 80 44 85 46 184 120 184 138 0 24 -52 27 -95 5 -21 -11 -44
-20 -51 -20 -6 0 -17 -6 -23 -14 -6 -7 -38 -19 -71 -26 -34 -7 -63 -17 -66
-21 -14 -23 -24 -4 -24 45 0 72 13 102 52 125 41 24 102 69 134 98 14 13 38
30 54 38 33 17 60 51 60 76 0 17 -36 33 -45 19 -3 -4 -26 -18 -52 -30 -26 -12
-77 -41 -113 -64 -85 -56 -158 -91 -167 -82 -4 4 18 32 50 62 49 47 129 154
140 187 4 14 90 -9 133 -34 42 -26 62 -24 70 6 9 35 -16 68 -68 92 -52 25 -83
57 -72 74 4 7 15 40 25 73 10 34 25 81 34 106 22 57 55 214 55 261 0 49 -19
63 -72 55 l-41 -7 6 71 c5 63 4 71 -15 81 -29 16 -64 3 -76 -28 -6 -16 -16
-68 -23 -118 -6 -49 -18 -109 -26 -133 -13 -39 -13 -46 2 -68 11 -18 25 -24
50 -24 18 0 37 5 40 10 12 20 23 -1 15 -28 -4 -15 -20 -67 -34 -117 -35 -118
-38 -121 -101 -90 -28 13 -64 25 -82 25 l-32 0 5 63 c4 51 2 68 -15 94 -17 27
-27 32 -74 38 -30 4 -69 4 -86 0 -28 -6 -31 -4 -31 18 0 29 41 128 85 204 19
34 40 56 57 62 32 11 35 27 11 53 -15 17 -15 20 5 48 12 16 22 34 22 39 0 19
-34 29 -60 17z m0 -552 c0 -38 -25 -95 -64 -147 -45 -61 -91 -101 -104 -93
-12 7 5 127 26 190 14 43 22 52 47 57 60 13 95 10 95 -7z m100 -173 c22 -21
53 -44 70 -51 16 -7 30 -17 30 -23 0 -14 -74 -129 -118 -185 -29 -36 -37 -41
-60 -36 -48 12 -86 35 -125 77 l-38 40 53 52 c72 71 102 105 123 138 9 15 19
27 21 27 2 0 22 -17 44 -39z"/>
<path d="M693 555 l-42 -25 -3 -158 c-3 -169 -12 -206 -56 -228 -13 -6 -35
-27 -48 -46 -20 -28 -23 -39 -15 -60 16 -42 61 -46 119 -11 46 27 260 103 292
103 9 0 45 12 81 26 35 14 91 32 124 39 55 12 192 54 240 74 35 15 139 31 198
31 51 0 57 2 61 23 12 60 13 96 3 106 -16 16 -72 14 -87 -4 -7 -8 -22 -15 -34
-15 -11 0 -48 -9 -81 -20 -89 -29 -281 -81 -355 -96 -57 -11 -185 -50 -245
-74 -11 -5 -38 -10 -60 -13 l-41 -4 4 126 c3 100 8 135 23 168 38 79 2 106
-78 58z m287 -345 c0 -5 -4 -10 -9 -10 -6 0 -13 5 -16 10 -3 6 1 10 9 10 9 0
16 -4 16 -10z"/>
</g>
</svg>
