<?xml version="1.0" standalone="no"?>
<!DOCTYPE svg PUBLIC "-//W3C//DTD SVG 20010904//EN"
 "http://www.w3.org/TR/2001/REC-SVG-20010904/DTD/svg10.dtd">
<svg version="1.0" xmlns="http://www.w3.org/2000/svg"
 width="208.000000pt" height="209.000000pt" viewBox="0 0 208.000000 209.000000"
 preserveAspectRatio="xMidYMid meet">
<metadata>
Created by potrace 1.16, written by Peter Selinger 2001-2019
</metadata>
<g transform="translate(0.000000,209.000000) scale(0.100000,-0.100000)"
fill="#000000" stroke="none">
<path d="M638 1833 c-25 -27 -22 -41 18 -93 19 -25 44 -65 55 -90 12 -25 25
-51 28 -59 10 -21 39 -37 48 -27 4 4 8 42 8 84 0 56 5 83 17 101 34 48 -8 88
-105 98 -43 4 -55 2 -69 -14z"/>
<path d="M1325 1815 c-17 -7 -55 -36 -85 -65 -30 -28 -91 -69 -135 -91 -44
-23 -87 -47 -95 -53 -37 -31 -329 -183 -367 -191 -17 -3 -37 -12 -43 -20 -6
-8 -41 -24 -77 -36 -135 -45 -193 -110 -138 -156 14 -13 34 -23 43 -23 32 0
95 27 111 48 18 23 161 104 215 122 19 6 51 22 70 35 19 13 78 47 131 75 53
28 112 62 132 76 34 23 68 32 61 17 -1 -5 -20 -53 -41 -108 -130 -339 -161
-405 -191 -405 -15 0 -46 32 -46 47 0 6 -10 17 -22 25 -14 10 -21 24 -20 44 0
26 -6 33 -51 57 -64 33 -87 34 -115 4 -34 -36 -28 -68 21 -114 115 -111 174
-179 168 -194 -3 -8 -33 -53 -66 -100 -34 -46 -67 -96 -74 -110 -29 -59 -101
-137 -141 -155 -31 -14 -40 -23 -38 -39 5 -31 55 -31 114 0 102 54 104 56 270
308 13 20 30 37 37 37 7 0 26 -14 43 -31 30 -32 109 -89 123 -89 4 0 52 -34
107 -76 54 -41 142 -101 194 -132 52 -31 109 -66 126 -79 17 -13 34 -23 38
-23 4 0 37 -14 73 -30 35 -17 67 -30 69 -30 3 0 24 -8 47 -19 58 -25 148 -35
172 -17 28 20 12 43 -37 50 -24 4 -66 18 -93 31 -26 14 -57 25 -67 25 -10 0
-18 4 -18 9 0 5 -25 22 -55 36 -30 15 -59 33 -66 41 -6 8 -16 14 -21 14 -5 0
-29 16 -52 35 -23 19 -58 41 -78 49 -19 8 -40 22 -48 30 -7 9 -17 16 -23 16
-5 0 -20 10 -33 23 -62 59 -193 157 -209 157 -14 0 -137 120 -133 128 42 80
121 253 138 302 13 36 29 74 36 85 8 11 14 26 14 35 0 19 124 264 151 298 13
17 19 40 19 78 0 29 -3 55 -8 58 -4 2 -21 -2 -37 -9z m-425 -821 c0 -2 -7 -4
-15 -4 -8 0 -15 4 -15 10 0 5 7 7 15 4 8 -4 15 -8 15 -10z m445 -344 c0 -22
-29 -18 -33 3 -3 14 1 18 15 15 10 -2 18 -10 18 -18z"/>
</g>
</svg>
