<?xml version="1.0" standalone="no"?>
<!DOCTYPE svg PUBLIC "-//W3C//DTD SVG 20010904//EN"
 "http://www.w3.org/TR/2001/REC-SVG-20010904/DTD/svg10.dtd">
<svg version="1.0" xmlns="http://www.w3.org/2000/svg"
 width="207.000000pt" height="209.000000pt" viewBox="0 0 207.000000 209.000000"
 preserveAspectRatio="xMidYMid meet">
<metadata>
Created by potrace 1.16, written by Peter Selinger 2001-2019
</metadata>
<g transform="translate(0.000000,209.000000) scale(0.100000,-0.100000)"
fill="#000000" stroke="none">
<path d="M1187 2043 c-31 -35 -37 -98 -36 -340 1 -172 -3 -270 -15 -353 -9
-63 -20 -178 -25 -255 -4 -78 -13 -151 -20 -163 -10 -19 -20 -22 -75 -22 -44
0 -67 5 -76 15 -7 8 -19 15 -27 15 -8 0 -28 7 -45 16 -33 17 -33 8 -10 136 17
93 57 208 74 214 16 5 48 56 48 76 0 11 -37 10 -61 -2 -17 -10 -19 -7 -19 32
0 55 34 163 65 208 39 59 59 163 33 173 -7 2 -34 2 -59 0 l-46 -4 -22 75 c-25
83 -54 116 -102 116 -26 0 -59 -22 -59 -39 0 -5 11 -25 25 -45 68 -100 71
-128 16 -145 -42 -12 -81 -52 -81 -81 0 -41 87 -69 118 -38 9 9 12 5 12 -17 0
-37 -23 -71 -75 -116 -22 -19 -42 -38 -44 -44 -6 -14 -124 -125 -133 -125 -8
0 -3 37 18 123 18 77 18 82 -8 94 -31 14 -75 -5 -87 -37 -9 -24 -13 -46 -45
-228 -8 -45 -22 -92 -30 -104 -9 -12 -16 -39 -16 -60 0 -36 -42 -180 -59 -202
-4 -6 -13 -37 -19 -69 -7 -32 -30 -99 -52 -148 -22 -49 -40 -97 -40 -107 0
-26 34 -55 68 -58 79 -8 227 -27 302 -40 119 -20 335 -8 392 22 26 13 28 13
28 -3 0 -10 -16 -65 -35 -123 -67 -206 -89 -310 -64 -310 20 1 43 36 68 107
12 34 33 83 48 110 14 26 32 59 39 73 8 14 14 32 14 41 0 9 7 29 15 46 8 16
26 81 41 143 14 63 27 117 30 121 9 16 53 276 60 355 7 85 12 96 34 69 16 -19
44 -19 86 1 19 9 38 13 42 9 9 -9 9 -349 -1 -450 -14 -150 -38 -340 -52 -417
-8 -43 -14 -117 -14 -165 0 -49 -3 -96 -6 -105 -6 -16 -1 -18 38 -18 54 0 54
1 68 165 5 61 16 153 24 205 15 91 20 131 47 350 6 52 12 197 12 321 1 207 3
229 20 248 13 15 17 30 13 54 -4 28 -1 36 22 51 15 11 38 35 52 54 13 20 34
46 47 58 12 13 22 32 22 44 0 39 -28 34 -82 -15 -29 -26 -73 -61 -98 -78 -25
-17 -91 -78 -148 -135 -57 -57 -106 -101 -109 -98 -3 3 -1 59 6 123 6 65 13
200 16 300 2 106 9 191 15 203 13 25 3 178 -12 198 -15 18 -52 15 -71 -5z
m-322 -513 c3 -5 -1 -10 -9 -10 -9 0 -16 5 -16 10 0 6 4 10 9 10 6 0 13 -4 16
-10z m-72 -123 c2 -7 2 -30 -2 -52 -5 -32 -13 -43 -51 -66 -25 -15 -51 -28
-58 -28 -7 -1 -31 -10 -53 -22 -23 -11 -43 -18 -47 -15 -3 3 16 24 42 47 25
22 69 65 98 95 54 57 63 62 71 41z m-23 -259 c0 -66 -9 -85 -39 -91 -16 -3
-52 -17 -82 -31 -130 -62 -138 -69 -228 -222 -60 -101 -51 -45 27 165 l38 105
45 14 c48 15 102 38 134 55 49 26 91 46 98 47 4 0 7 -19 7 -42z m-50 -323
c-49 -250 -42 -230 -81 -229 -19 1 -70 6 -114 13 -44 6 -98 14 -120 17 -55 8
-60 15 -45 70 11 40 15 44 25 30 22 -29 52 -18 112 44 32 32 69 73 83 90 14
17 36 37 50 45 14 7 43 31 65 52 l40 39 3 -30 c2 -17 -6 -80 -18 -141z m158
10 c31 -21 48 -25 109 -25 l73 0 -6 -42 c-12 -84 -24 -120 -39 -114 -9 3 -19
-4 -26 -15 -6 -11 -25 -27 -42 -34 -42 -17 -192 -31 -200 -18 -4 6 -2 23 3 39
5 16 19 61 30 99 22 74 47 135 56 135 3 0 22 -11 42 -25z"/>
</g>
</svg>
