<?xml version="1.0" standalone="no"?>
<!DOCTYPE svg PUBLIC "-//W3C//DTD SVG 20010904//EN"
 "http://www.w3.org/TR/2001/REC-SVG-20010904/DTD/svg10.dtd">
<svg version="1.0" xmlns="http://www.w3.org/2000/svg"
 width="210.000000pt" height="210.000000pt" viewBox="0 0 210.000000 210.000000"
 preserveAspectRatio="xMidYMid meet">
<metadata>
Created by potrace 1.16, written by Peter Selinger 2001-2019
</metadata>
<g transform="translate(0.000000,210.000000) scale(0.100000,-0.100000)"
fill="#000000" stroke="none">
<path d="M1386 2001 c-25 -10 -43 -66 -51 -162 -4 -44 -14 -104 -22 -132 -13
-49 -20 -88 -57 -317 -8 -52 -25 -142 -37 -200 -12 -58 -25 -130 -29 -160 -5
-30 -22 -104 -39 -165 -18 -60 -36 -129 -41 -153 -5 -23 -14 -50 -19 -60 -5
-9 -12 -44 -16 -77 -7 -65 -30 -168 -45 -200 -4 -11 -11 -33 -14 -50 -3 -16
-8 -40 -12 -52 -10 -36 19 -29 50 12 33 43 116 269 127 345 8 55 39 177 82
325 14 44 34 120 46 169 11 49 23 91 25 93 2 3 24 1 48 -4 l43 -9 -2 -224 c-3
-241 -15 -422 -38 -535 -15 -74 -33 -193 -39 -260 -2 -22 -9 -53 -15 -69 -14
-34 -8 -56 22 -84 21 -20 23 -20 45 -3 19 14 27 37 43 127 40 228 50 293 64
419 8 72 17 140 20 152 3 12 5 127 6 255 0 269 14 374 59 453 51 89 72 136 66
143 -15 14 -103 -50 -199 -144 l-99 -99 6 40 c4 22 14 81 21 130 20 128 48
246 64 275 18 31 26 144 14 190 -10 37 -36 48 -77 31z"/>
<path d="M854 1955 c-17 -17 -24 -32 -19 -43 9 -23 42 -168 50 -219 8 -49 -1
-57 -85 -67 -67 -9 -100 -28 -100 -60 0 -34 33 -58 90 -64 27 -2 50 -9 50 -13
0 -11 -65 -106 -94 -136 -12 -13 -26 -23 -33 -23 -6 0 -26 -19 -45 -42 -18
-23 -46 -55 -63 -71 -72 -70 -105 -73 -105 -10 1 55 44 209 65 233 25 27 15
96 -17 118 -45 33 -74 41 -99 28 -43 -21 -46 -41 -48 -364 -2 -406 -28 -673
-76 -788 -12 -30 -12 -36 6 -58 28 -35 52 -40 90 -17 32 18 145 42 214 46 31
1 69 7 210 30 78 14 138 36 151 57 10 17 -19 38 -56 40 -57 3 -218 -12 -246
-22 -14 -6 -75 -10 -136 -10 -96 0 -109 2 -104 16 3 9 6 28 6 43 0 46 64 132
206 278 90 92 117 139 87 150 -14 6 -25 1 -99 -41 -42 -23 -114 -88 -114 -103
0 -4 -12 -16 -26 -26 l-25 -19 7 99 c3 54 11 104 17 111 5 7 49 31 96 53 47
22 116 56 152 75 36 18 69 31 72 27 10 -9 8 -122 -3 -167 -5 -22 -16 -43 -24
-48 -18 -10 -22 -38 -5 -38 12 0 4 -203 -11 -273 -9 -43 -3 -77 14 -77 17 1
43 42 55 88 7 23 16 44 21 47 6 3 10 25 10 49 0 23 2 45 5 48 3 3 23 -3 44
-14 56 -27 143 -35 160 -14 20 24 7 42 -36 49 -32 5 -46 17 -91 73 -29 37 -51
73 -48 80 3 7 8 48 12 91 14 150 56 254 111 268 36 9 86 58 81 82 -5 28 -43
27 -85 -1 -56 -38 -67 -35 -60 17 3 24 15 65 27 91 27 65 27 132 -1 146 -19
11 -20 17 -14 69 9 80 -16 164 -63 214 -20 20 -40 37 -44 37 -5 0 -20 -11 -34
-25z m-4 -642 c0 -13 -33 -43 -48 -43 -12 0 -10 6 8 25 23 24 40 32 40 18z"/>
</g>
</svg>
