<?xml version="1.0" standalone="no"?>
<!DOCTYPE svg PUBLIC "-//W3C//DTD SVG 20010904//EN"
 "http://www.w3.org/TR/2001/REC-SVG-20010904/DTD/svg10.dtd">
<svg version="1.0" xmlns="http://www.w3.org/2000/svg"
 width="210.000000pt" height="217.000000pt" viewBox="0 0 210.000000 217.000000"
 preserveAspectRatio="xMidYMid meet">
<metadata>
Created by potrace 1.16, written by Peter Selinger 2001-2019
</metadata>
<g transform="translate(0.000000,217.000000) scale(0.100000,-0.100000)"
fill="#000000" stroke="none">
<path d="M1318 2056 c-16 -11 -18 -31 -18 -151 0 -152 -13 -219 -61 -323 -74
-162 -116 -386 -135 -737 -9 -175 -9 -170 -30 -173 -28 -6 -36 -17 -43 -59 -8
-49 -39 -58 -156 -48 -82 7 -88 9 -104 36 -21 38 -42 37 -80 -6 -37 -42 -38
-52 -7 -86 41 -48 62 -53 203 -54 l133 0 0 -27 c0 -29 40 -68 71 -68 38 0 95
210 108 401 6 74 15 197 21 274 13 182 37 273 55 215 3 -11 12 -20 19 -20 44
0 59 -52 71 -250 3 -52 7 -106 10 -120 2 -14 7 -79 10 -145 4 -66 8 -133 10
-150 7 -88 17 -229 20 -300 2 -44 6 -122 10 -172 l8 -93 39 0 39 0 -1 63 c-1
34 -1 112 -1 172 1 129 -6 292 -19 425 -5 52 -9 131 -10 175 0 44 -6 130 -12
190 -13 126 -13 112 -3 230 9 115 17 135 65 165 22 14 40 31 40 39 0 8 27 41
61 73 62 58 70 80 31 86 -21 3 -128 -69 -183 -124 -27 -26 -52 -42 -106 -68
-21 -9 -33 -22 -33 -35 0 -11 -11 -28 -25 -39 -14 -11 -32 -33 -41 -48 l-15
-29 4 35 c7 60 57 244 108 394 11 33 24 105 30 160 6 56 15 102 20 104 5 2 19
12 31 21 27 23 19 48 -19 56 -15 4 -36 10 -45 16 -24 13 -50 11 -70 -5z m122
-1276 c0 -5 -5 -10 -11 -10 -5 0 -7 5 -4 10 3 6 8 10 11 10 2 0 4 -4 4 -10z"/>
<path d="M774 1990 c-29 -12 -35 -23 -43 -83 -5 -42 -10 -52 -26 -55 -79 -11
-171 -38 -194 -58 -25 -21 -26 -27 -26 -117 0 -95 -10 -127 -41 -127 -8 0 -19
-11 -24 -25 -5 -14 -14 -25 -19 -25 -5 0 -12 -11 -15 -26 -8 -29 27 -86 48
-78 30 11 34 -23 37 -288 4 -313 22 -273 -150 -337 -117 -43 -171 -73 -171
-95 0 -7 13 -25 30 -41 26 -25 33 -27 52 -17 13 6 64 26 113 43 50 17 99 39
110 48 83 72 126 64 94 -16 -6 -15 -22 -68 -34 -118 -13 -49 -35 -125 -49
-168 -32 -95 -32 -97 -3 -97 24 0 55 44 72 100 4 13 18 32 30 42 15 12 31 48
50 115 15 54 31 103 35 108 4 6 10 32 14 60 3 27 16 68 27 92 21 44 41 59 32
23 -9 -35 3 -51 30 -39 17 8 31 30 47 75 17 51 32 73 67 102 97 80 104 90 83
122 -8 13 -13 13 -39 -3 -37 -22 -61 -22 -62 1 0 9 -2 55 -5 102 -2 47 -6 112
-9 146 -5 55 -3 62 20 84 34 32 34 64 0 58 -30 -6 -39 16 -31 72 11 74 29 108
68 130 21 12 38 26 38 31 0 5 16 23 35 40 34 31 45 62 25 74 -6 4 -43 -14 -84
-39 l-74 -44 -5 26 c-3 15 0 36 7 47 20 30 30 133 16 151 -14 16 -44 17 -76 4z
m-54 -235 c0 -59 -5 -65 -80 -92 -48 -17 -47 -18 -42 24 6 47 27 80 67 104 48
30 55 25 55 -36z m8 -235 l3 -65 -68 -40 c-78 -46 -91 -73 -48 -101 24 -16 28
-16 71 1 49 19 53 18 55 -11 5 -47 -1 -64 -22 -64 -12 0 -48 -12 -81 -27 -41
-18 -62 -23 -69 -16 -19 19 9 229 39 296 14 31 31 57 37 57 7 0 20 9 30 20 34
37 50 22 53 -50z m28 -452 c-5 -25 -24 -47 -78 -93 -75 -63 -122 -95 -138 -95
-10 0 -1 177 11 201 5 10 18 14 41 12 23 -2 51 7 93 30 l60 32 9 -27 c5 -14 6
-42 2 -60z"/>
</g>
</svg>
