<?xml version="1.0" standalone="no"?>
<!DOCTYPE svg PUBLIC "-//W3C//DTD SVG 20010904//EN"
 "http://www.w3.org/TR/2001/REC-SVG-20010904/DTD/svg10.dtd">
<svg version="1.0" xmlns="http://www.w3.org/2000/svg"
 width="206.000000pt" height="210.000000pt" viewBox="0 0 206.000000 210.000000"
 preserveAspectRatio="xMidYMid meet">
<metadata>
Created by potrace 1.16, written by Peter Selinger 2001-2019
</metadata>
<g transform="translate(0.000000,210.000000) scale(0.100000,-0.100000)"
fill="#000000" stroke="none">
<path d="M803 2020 c-38 -15 -53 -62 -58 -173 -4 -92 -6 -103 -26 -117 -28
-18 -89 -40 -89 -31 0 29 25 82 50 106 34 32 41 75 12 75 -10 0 -23 -5 -29
-11 -6 -6 -35 -17 -65 -23 -49 -12 -54 -15 -64 -52 -7 -21 -15 -70 -19 -107
l-8 -68 -58 -39 c-32 -22 -61 -44 -64 -50 -3 -5 -14 -10 -24 -10 -27 0 -38
-70 -14 -87 24 -19 64 -15 93 7 14 11 30 20 36 20 17 0 38 -273 31 -391 -5
-80 -3 -100 9 -110 20 -17 37 2 57 61 14 41 18 45 49 46 18 1 46 6 62 13 16 6
33 8 37 4 7 -7 12 -98 10 -176 -1 -17 -8 -30 -18 -34 -36 -14 -189 -107 -221
-135 -18 -15 -40 -28 -48 -28 -26 0 -231 -105 -265 -136 -25 -22 -24 -49 2
-75 17 -17 28 -20 57 -14 21 4 44 12 52 19 8 6 35 22 60 36 25 13 72 42 105
65 64 44 150 95 159 95 26 0 -29 -299 -74 -405 -24 -57 -24 -55 0 -55 30 0 66
44 90 109 20 56 35 92 50 122 5 9 16 47 25 85 22 93 46 173 59 198 16 30 172
176 188 176 7 0 26 14 41 30 16 17 33 30 39 30 5 0 8 12 6 28 -5 42 -36 34
-175 -50 l-33 -19 5 328 c2 180 4 345 4 366 0 30 9 49 37 84 20 24 46 48 58
53 79 34 189 141 167 163 -11 11 -75 -8 -91 -29 -7 -7 -20 -14 -30 -14 -9 0
-34 -13 -55 -30 -70 -56 -98 -25 -55 60 25 48 25 62 2 83 -20 19 -36 20 -69 7z
m-72 -477 c1 -38 3 -81 5 -98 2 -16 0 -35 -4 -41 -7 -11 -123 -46 -130 -39
-10 10 -13 89 -4 112 6 16 13 39 16 53 5 24 77 80 104 80 8 0 12 -21 13 -67z
m-1 -278 c0 -29 -5 -37 -25 -45 -14 -5 -36 -22 -49 -37 -36 -41 -56 -26 -56
43 0 53 1 56 23 50 12 -3 40 1 62 9 22 8 41 14 43 15 1 0 2 -16 2 -35z"/>
<path d="M1479 1791 c-24 -19 -39 -68 -55 -181 -6 -49 -106 -290 -135 -328
-23 -30 -34 -92 -48 -265 -11 -133 -42 -310 -81 -467 -10 -41 -21 -88 -25
-104 -6 -28 -7 -29 -55 -23 -49 6 -160 52 -160 66 0 4 -14 26 -32 49 -33 42
-58 54 -58 27 0 -8 -11 -31 -25 -51 -32 -47 -32 -70 3 -88 15 -8 35 -24 44
-35 9 -11 35 -25 57 -31 63 -17 146 -63 149 -83 2 -10 -4 -27 -13 -37 -21 -23
-16 -54 9 -58 42 -8 82 28 121 111 44 95 56 132 90 292 15 66 33 149 42 185 8
36 17 85 19 109 2 26 13 59 29 80 14 21 25 44 25 52 0 25 48 82 85 100 l34 17
-5 -61 c-10 -120 -25 -253 -39 -332 -7 -44 -16 -123 -19 -176 -3 -52 -14 -140
-25 -195 -18 -87 -51 -316 -51 -351 0 -9 15 -13 44 -13 50 0 46 -9 67 135 6
44 20 123 31 175 11 52 24 138 29 190 6 52 21 178 34 280 13 102 27 217 30
255 7 77 26 142 56 193 10 18 19 39 19 46 0 7 9 21 20 31 26 24 26 55 0 55
-31 0 -181 -89 -289 -172 -27 -20 -41 -16 -41 14 0 21 8 40 81 193 23 50 57
137 75 194 21 68 38 107 50 114 42 23 37 59 -10 88 -39 24 -47 24 -77 0z"/>
</g>
</svg>
