<?xml version="1.0" standalone="no"?>
<!DOCTYPE svg PUBLIC "-//W3C//DTD SVG 20010904//EN"
 "http://www.w3.org/TR/2001/REC-SVG-20010904/DTD/svg10.dtd">
<svg version="1.0" xmlns="http://www.w3.org/2000/svg"
 width="209.000000pt" height="210.000000pt" viewBox="0 0 209.000000 210.000000"
 preserveAspectRatio="xMidYMid meet">
<metadata>
Created by potrace 1.16, written by Peter Selinger 2001-2019
</metadata>
<g transform="translate(0.000000,210.000000) scale(0.100000,-0.100000)"
fill="#000000" stroke="none">
<path d="M618 2069 c-26 -15 -23 -68 6 -98 32 -34 72 -134 79 -195 4 -45 2
-52 -22 -75 -16 -14 -66 -45 -112 -68 -185 -93 -206 -117 -149 -173 l29 -29
42 17 c22 9 55 31 72 49 38 40 54 42 63 7 9 -37 -52 -159 -122 -244 -97 -118
-205 -220 -233 -220 -6 0 -11 -6 -11 -13 0 -8 -11 -24 -24 -36 -16 -15 -22
-29 -18 -44 7 -31 32 -57 54 -57 20 0 105 57 158 106 19 18 60 50 90 73 30 22
62 46 70 54 36 33 114 78 127 73 11 -4 13 -17 8 -53 -3 -27 -8 -72 -11 -102
-7 -68 -16 -87 -57 -107 -18 -9 -41 -24 -52 -34 -11 -10 -56 -36 -100 -60 -44
-23 -87 -48 -96 -56 -8 -7 -31 -19 -50 -26 -19 -6 -50 -22 -69 -35 -19 -12
-40 -23 -47 -23 -21 0 -46 -47 -39 -74 5 -19 15 -27 41 -32 43 -8 66 3 220
102 44 28 95 59 114 69 19 9 46 28 60 41 14 13 30 24 34 24 14 0 -6 -241 -23
-283 -8 -20 -9 -20 -9 6 -1 41 -18 67 -45 67 -16 0 -44 -24 -97 -85 -41 -47
-115 -131 -164 -188 -124 -140 -165 -196 -165 -224 0 -30 2 -29 73 44 191 193
237 243 266 286 17 26 36 47 41 47 6 0 10 -17 10 -38 0 -21 13 -83 29 -138 16
-54 37 -132 47 -172 14 -60 21 -75 41 -83 59 -22 81 38 71 191 -1 8 0 45 0 82
l2 67 38 7 c63 11 112 41 112 68 0 31 -11 34 -84 28 l-59 -5 6 59 c24 235 54
352 101 389 14 11 45 36 70 55 47 35 58 64 34 88 -7 7 -19 12 -28 12 -9 0 -32
19 -51 42 -19 24 -49 58 -68 77 -18 20 -28 37 -22 39 6 2 33 19 59 38 26 18
74 51 107 73 33 22 66 45 73 51 21 19 140 90 168 100 19 7 25 16 22 33 -2 18
-9 22 -38 21 -47 -2 -247 -102 -329 -165 -36 -27 -75 -52 -88 -55 -13 -4 -23
-10 -23 -15 0 -9 -70 -42 -76 -36 -3 3 35 81 80 165 13 23 31 51 40 60 9 11
16 36 16 58 0 48 18 114 30 114 6 0 10 11 10 25 0 17 -8 29 -24 36 -20 9 -24
20 -29 73 -6 77 -42 172 -78 208 -29 29 -69 36 -101 17z"/>
<path d="M1298 1943 c-25 -6 -26 -19 -33 -228 -4 -104 -11 -210 -16 -235 -16
-71 -28 -180 -34 -307 -4 -65 -10 -143 -15 -173 -45 -303 -89 -570 -100 -605
-34 -110 -53 -209 -54 -285 -1 -77 1 -85 18 -85 14 0 23 12 34 45 8 25 20 48
25 52 10 6 73 219 84 283 2 17 17 100 33 185 15 85 33 198 40 250 16 131 14
127 68 135 57 8 72 19 72 54 1 25 20 61 34 61 3 0 4 -26 1 -57 -8 -96 -6 -420
4 -563 10 -142 7 -423 -4 -453 -6 -15 -1 -17 43 -17 51 0 51 0 59 37 8 38 9
198 3 693 -2 274 8 359 48 404 28 31 44 65 38 82 -7 17 -38 18 -54 2 -9 -9
-12 -9 -12 -1 0 7 21 34 48 61 88 92 122 136 122 159 0 32 -14 29 -68 -14 -26
-21 -51 -41 -57 -45 -5 -4 -50 -42 -98 -83 -49 -42 -106 -87 -127 -100 -21
-13 -41 -29 -45 -35 -3 -5 -13 -10 -21 -10 -17 0 -18 58 -5 160 5 36 17 128
26 205 9 77 21 163 27 192 6 29 8 86 5 130 -5 64 -10 81 -28 95 -21 18 -29 19
-61 11z"/>
</g>
</svg>
