<?xml version="1.0" standalone="no"?>
<!DOCTYPE svg PUBLIC "-//W3C//DTD SVG 20010904//EN"
 "http://www.w3.org/TR/2001/REC-SVG-20010904/DTD/svg10.dtd">
<svg version="1.0" xmlns="http://www.w3.org/2000/svg"
 width="207.000000pt" height="209.000000pt" viewBox="0 0 207.000000 209.000000"
 preserveAspectRatio="xMidYMid meet">
<metadata>
Created by potrace 1.16, written by Peter Selinger 2001-2019
</metadata>
<g transform="translate(0.000000,209.000000) scale(0.100000,-0.100000)"
fill="#000000" stroke="none">
<path d="M1197 1755 c-14 -7 -39 -16 -56 -20 -17 -4 -33 -11 -36 -16 -4 -5
-13 -9 -21 -9 -9 0 -34 -13 -57 -29 -23 -15 -80 -46 -127 -69 -47 -22 -101
-50 -120 -61 -19 -11 -62 -32 -95 -47 -33 -14 -78 -34 -100 -44 -22 -10 -59
-26 -82 -35 -32 -13 -45 -25 -53 -49 -14 -44 -6 -61 36 -74 42 -13 69 -5 122
37 41 32 130 81 148 81 6 0 24 10 39 22 16 12 53 35 84 51 31 16 65 37 76 47
31 27 100 68 147 87 24 9 59 28 78 41 19 13 49 30 67 39 36 17 40 25 21 40
-25 19 -46 21 -71 8z"/>
<path d="M860 1395 c-6 -7 -18 -53 -26 -101 -9 -49 -23 -124 -32 -168 -16 -78
-16 -78 -59 -97 -24 -10 -59 -30 -77 -44 -18 -13 -52 -32 -77 -40 -24 -9 -60
-26 -79 -40 -47 -31 -112 -65 -126 -65 -6 0 -18 -7 -25 -16 -7 -9 -23 -20 -36
-25 -25 -9 -30 -37 -13 -69 14 -26 76 -37 98 -17 9 8 35 23 57 33 22 10 65 35
95 55 30 21 69 43 85 50 17 7 38 19 48 28 9 8 19 12 22 9 4 -4 -95 -259 -122
-314 -28 -56 -74 -155 -93 -199 -12 -27 -35 -77 -51 -110 -16 -33 -29 -66 -29
-74 0 -7 -16 -39 -35 -71 -19 -32 -35 -64 -35 -73 0 -25 30 -28 60 -5 30 22
80 89 80 108 0 5 4 10 9 10 5 0 16 24 26 53 9 28 25 61 34 72 22 25 131 239
131 257 0 7 11 35 24 63 13 27 41 88 62 135 21 47 47 97 56 112 10 14 18 34
18 45 1 35 60 107 123 147 34 23 79 53 98 69 20 15 40 27 46 27 5 0 18 9 28
20 10 11 27 22 38 26 51 16 112 114 72 114 -20 0 -174 -77 -200 -99 -24 -22
-114 -71 -128 -71 -11 0 -2 95 12 132 5 13 12 35 15 50 4 17 18 34 37 43 19
10 29 22 27 33 -3 14 -17 17 -75 19 -50 1 -75 -2 -83 -12z"/>
<path d="M1558 863 c-35 -41 -49 -107 -42 -194 5 -74 38 -199 66 -252 10 -19
-3 -27 -87 -46 -27 -7 -86 -30 -130 -51 -89 -44 -218 -90 -253 -90 -12 0 -38
-6 -56 -14 -63 -26 -110 -29 -137 -8 -21 18 -23 27 -21 88 1 38 9 137 18 221
19 172 15 203 -20 203 -62 0 -74 -22 -86 -160 -5 -52 -14 -135 -20 -185 -16
-126 -10 -208 18 -238 26 -28 122 -62 154 -54 12 3 55 13 93 23 117 28 238 66
275 85 110 57 249 103 318 103 l62 1 6 35 c3 19 7 44 9 54 2 11 -6 40 -19 65
-69 134 -106 260 -106 360 0 68 -14 86 -42 54z"/>
</g>
</svg>
