<?xml version="1.0" standalone="no"?>
<!DOCTYPE svg PUBLIC "-//W3C//DTD SVG 20010904//EN"
 "http://www.w3.org/TR/2001/REC-SVG-20010904/DTD/svg10.dtd">
<svg version="1.0" xmlns="http://www.w3.org/2000/svg"
 width="209.000000pt" height="209.000000pt" viewBox="0 0 209.000000 209.000000"
 preserveAspectRatio="xMidYMid meet">
<metadata>
Created by potrace 1.16, written by Peter Selinger 2001-2019
</metadata>
<g transform="translate(0.000000,209.000000) scale(0.100000,-0.100000)"
fill="#000000" stroke="none">
<path d="M1378 1920 c-26 -11 -69 -35 -95 -54 -26 -18 -79 -48 -117 -65 -38
-17 -83 -42 -100 -55 -31 -23 -81 -41 -103 -37 -25 4 -94 -20 -114 -40 -10
-10 -19 -30 -19 -44 0 -27 43 -75 67 -75 28 0 149 63 183 95 19 18 68 45 108
61 39 15 72 31 72 35 0 5 32 28 70 53 39 25 70 49 70 54 0 5 16 17 35 28 25
13 35 25 33 39 -4 26 -32 28 -90 5z"/>
<path d="M1042 1547 c-18 -18 -32 -40 -32 -50 0 -9 -4 -26 -9 -39 -5 -13 -19
-66 -31 -118 -37 -160 -40 -168 -93 -206 -26 -19 -51 -34 -55 -34 -4 0 -26
-13 -48 -29 -38 -28 -91 -60 -147 -88 -15 -8 -32 -23 -37 -34 -6 -10 -17 -19
-25 -19 -39 0 -25 -74 18 -96 28 -15 31 -15 56 5 14 12 50 37 79 56 30 20 63
45 75 55 26 25 51 26 44 3 -27 -83 -61 -182 -68 -198 -5 -11 -25 -69 -45 -130
-20 -60 -50 -138 -67 -173 -28 -57 -29 -64 -15 -78 16 -17 58 -11 58 7 0 5 16
27 36 49 26 28 50 75 80 158 24 64 44 121 44 127 0 5 9 32 20 60 11 27 36 92
55 143 23 60 54 118 87 160 49 65 105 121 121 122 4 0 33 19 64 43 68 52 127
91 173 114 37 19 53 59 28 74 -34 22 -83 5 -196 -70 -33 -23 -65 -41 -71 -41
-5 0 -23 -12 -40 -26 l-31 -26 0 29 c0 50 40 187 62 210 24 26 20 59 -7 56
-11 -1 -27 2 -36 7 -12 7 -24 1 -47 -23z m-22 -285 c0 -12 -39 -46 -45 -40 -6
5 27 48 38 48 4 0 7 -4 7 -8z m-230 -252 c0 -5 -7 -10 -16 -10 -8 0 -12 5 -9
10 3 6 10 10 16 10 5 0 9 -4 9 -10z"/>
<path d="M1031 993 c-26 -22 -36 -86 -45 -288 -4 -78 -11 -168 -16 -200 -20
-123 -11 -183 34 -215 35 -25 140 -29 241 -8 153 30 265 58 324 79 31 12 72
23 93 26 l36 5 4 61 c3 57 1 64 -29 100 -44 52 -71 117 -84 199 -13 82 -44
158 -65 158 -26 0 -36 -50 -30 -150 7 -103 15 -134 54 -221 13 -31 22 -61 18
-67 -3 -5 -30 -15 -58 -22 -29 -7 -80 -20 -114 -30 -84 -25 -290 -47 -312 -33
-22 13 -27 98 -12 207 6 45 12 124 14 176 2 52 6 116 11 142 14 89 -13 122
-64 81z"/>
</g>
</svg>
