<?xml version="1.0" standalone="no"?>
<!DOCTYPE svg PUBLIC "-//W3C//DTD SVG 20010904//EN"
 "http://www.w3.org/TR/2001/REC-SVG-20010904/DTD/svg10.dtd">
<svg version="1.0" xmlns="http://www.w3.org/2000/svg"
 width="207.000000pt" height="209.000000pt" viewBox="0 0 207.000000 209.000000"
 preserveAspectRatio="xMidYMid meet">
<metadata>
Created by potrace 1.16, written by Peter Selinger 2001-2019
</metadata>
<g transform="translate(0.000000,209.000000) scale(0.100000,-0.100000)"
fill="#000000" stroke="none">
<path d="M1140 1716 c-19 -7 -54 -24 -77 -39 -24 -15 -46 -27 -49 -27 -4 0
-29 -16 -57 -36 -28 -21 -71 -46 -95 -56 -23 -11 -67 -39 -97 -64 -30 -24 -59
-44 -64 -44 -12 0 -158 -75 -180 -93 -9 -6 -34 -21 -56 -32 -51 -26 -64 -42
-65 -83 0 -28 5 -35 35 -48 33 -13 38 -13 87 13 29 15 75 44 101 64 27 20 69
46 93 58 24 12 44 26 44 31 0 5 20 21 44 35 24 14 47 32 50 40 3 8 12 15 20
15 8 0 28 13 43 29 15 16 53 42 83 57 30 16 76 45 102 65 26 21 62 40 80 44
43 9 58 22 58 50 0 36 -38 44 -100 21z"/>
<path d="M781 1317 c-23 -8 -37 -21 -42 -37 -20 -73 -29 -112 -39 -180 -19
-117 -27 -136 -65 -154 -19 -9 -37 -21 -40 -26 -3 -6 -26 -19 -50 -30 -24 -11
-46 -24 -50 -29 -3 -5 -19 -12 -35 -16 -17 -4 -40 -15 -53 -26 -12 -11 -53
-40 -90 -64 -38 -24 -89 -64 -113 -90 -50 -52 -49 -74 6 -93 27 -10 36 -7 78
20 26 18 61 43 78 57 17 14 40 34 52 43 28 23 135 78 140 73 14 -14 -90 -275
-109 -275 -5 0 -9 -7 -9 -16 0 -17 -61 -125 -88 -156 -8 -10 -23 -18 -33 -18
-24 0 -31 -14 -23 -45 5 -20 12 -25 36 -25 22 0 44 13 85 53 89 84 93 89 120
147 15 30 39 75 54 100 15 25 36 72 47 105 19 58 59 143 82 175 8 11 10 -11 5
-85 -8 -152 -21 -231 -50 -330 -29 -100 -28 -171 3 -213 25 -33 116 -45 233
-32 50 6 95 13 99 15 5 3 43 12 86 20 42 8 93 23 113 33 20 11 54 25 76 32 22
7 45 17 51 21 6 5 34 16 62 24 83 25 83 26 81 197 -2 160 -13 235 -47 311 -20
46 -35 57 -47 37 -4 -6 -8 -106 -9 -223 l-2 -212 -30 -10 c-16 -5 -40 -18 -54
-27 -13 -10 -32 -18 -40 -18 -9 0 -35 -9 -58 -20 -47 -23 -219 -65 -302 -75
-30 -3 -68 -2 -85 3 -28 8 -30 12 -28 53 1 24 9 78 17 119 21 98 56 353 56
411 0 32 -6 52 -20 67 l-21 22 47 28 c26 15 80 51 121 80 41 29 87 59 102 67
16 8 56 32 89 55 34 22 65 40 70 40 11 0 92 90 92 102 0 12 -34 18 -60 10 -26
-8 -58 -26 -143 -79 -28 -18 -57 -33 -65 -33 -7 0 -38 -17 -69 -37 -109 -74
-183 -116 -190 -110 -8 8 49 211 65 229 35 41 -14 60 -87 35z m-241 -491 c0
-3 -4 -8 -10 -11 -5 -3 -10 -1 -10 4 0 6 5 11 10 11 6 0 10 -2 10 -4z"/>
</g>
</svg>
