<?xml version="1.0" standalone="no"?>
<!DOCTYPE svg PUBLIC "-//W3C//DTD SVG 20010904//EN"
 "http://www.w3.org/TR/2001/REC-SVG-20010904/DTD/svg10.dtd">
<svg version="1.0" xmlns="http://www.w3.org/2000/svg"
 width="206.000000pt" height="210.000000pt" viewBox="0 0 206.000000 210.000000"
 preserveAspectRatio="xMidYMid meet">
<metadata>
Created by potrace 1.16, written by Peter Selinger 2001-2019
</metadata>
<g transform="translate(0.000000,210.000000) scale(0.100000,-0.100000)"
fill="#000000" stroke="none">
<path d="M1383 1820 c-30 -12 -34 -34 -30 -175 l3 -120 -28 -24 c-16 -13 -59
-30 -96 -38 -37 -9 -84 -24 -104 -34 -21 -11 -50 -19 -66 -19 -33 0 -46 -12
-56 -54 -5 -22 -2 -34 15 -52 12 -13 29 -24 36 -24 7 0 50 18 96 39 45 22 106
49 135 60 l53 21 9 -24 c5 -14 8 -148 7 -298 l-2 -273 -65 -16 c-84 -20 -189
-56 -217 -75 -30 -19 -29 -41 3 -87 14 -21 56 -97 93 -170 82 -161 127 -234
152 -248 11 -5 30 -27 43 -48 33 -52 71 -60 92 -19 8 16 15 41 14 56 -7 265
-8 1227 -2 1236 5 6 12 28 16 48 5 29 13 39 31 44 14 3 25 12 25 19 0 7 7 18
15 25 8 7 15 23 15 36 0 32 -28 31 -66 -1 -34 -29 -38 -22 -29 52 5 41 10 52
18 44 17 -17 37 -13 37 9 0 11 -4 20 -10 20 -5 0 -10 11 -10 24 0 16 -12 31
-40 50 -42 28 -53 30 -87 16z m-25 -1275 c-1 -124 -6 -225 -10 -225 -10 0 -38
55 -38 73 0 8 -7 20 -15 27 -8 7 -29 38 -47 69 -17 31 -36 58 -40 59 -12 5
-48 78 -48 97 0 9 22 26 53 40 28 13 70 37 92 54 22 16 43 30 48 30 4 1 6
-100 5 -224z"/>
<path d="M870 1673 c-8 -3 -41 -29 -72 -57 -31 -28 -81 -73 -111 -100 -31 -26
-81 -73 -113 -104 -52 -50 -59 -54 -68 -38 -36 60 -45 66 -94 59 -31 -4 -57
-15 -75 -32 -26 -24 -28 -30 -22 -76 4 -27 13 -73 21 -101 8 -29 15 -67 15
-85 0 -19 4 -79 8 -134 19 -212 4 -473 -30 -537 -8 -14 -8 -23 0 -31 7 -7 7
-16 0 -29 -15 -27 -3 -54 31 -68 59 -25 85 -7 305 217 66 68 125 123 131 123
13 0 24 -69 24 -151 0 -56 1 -59 25 -59 18 0 28 9 38 33 27 59 29 71 28 173
-1 80 2 104 14 114 20 16 19 40 -1 55 -15 10 -17 36 -15 199 0 104 3 192 6
196 3 4 5 93 6 196 1 133 -3 197 -12 217 -13 28 -14 29 -39 20z m-58 -378 c-1
-93 -6 -173 -10 -177 -13 -13 -102 -12 -149 1 -35 10 -48 9 -72 -4 -37 -19
-44 -30 -37 -59 10 -40 53 -50 159 -38 68 7 94 7 100 -2 4 -6 6 -60 6 -119 -2
-100 -4 -109 -25 -125 -127 -94 -162 -121 -188 -146 -32 -30 -180 -136 -190
-136 -12 0 7 86 32 145 24 58 25 67 23 276 l-1 216 37 40 c21 21 53 57 72 79
82 96 215 225 230 222 14 -3 16 -24 13 -173z"/>
</g>
</svg>
