<?xml version="1.0" standalone="no"?>
<!DOCTYPE svg PUBLIC "-//W3C//DTD SVG 20010904//EN"
 "http://www.w3.org/TR/2001/REC-SVG-20010904/DTD/svg10.dtd">
<svg version="1.0" xmlns="http://www.w3.org/2000/svg"
 width="208.000000pt" height="212.000000pt" viewBox="0 0 208.000000 212.000000"
 preserveAspectRatio="xMidYMid meet">
<metadata>
Created by potrace 1.16, written by Peter Selinger 2001-2019
</metadata>
<g transform="translate(0.000000,212.000000) scale(0.100000,-0.100000)"
fill="#000000" stroke="none">
<path d="M819 1702 c-14 -9 -55 -46 -91 -82 -92 -91 -246 -225 -259 -225 -6 0
-19 23 -28 50 -16 48 -19 50 -57 53 -31 2 -42 -3 -56 -22 -16 -22 -16 -34 -7
-108 21 -162 13 -702 -12 -853 -13 -78 -2 -109 47 -130 35 -14 39 -14 58 3 12
10 41 28 66 41 25 13 57 36 72 50 36 35 84 71 96 71 5 0 22 12 37 27 l27 28
-7 -45 c-3 -25 -15 -57 -26 -72 -23 -33 -23 -33 -3 -52 22 -23 34 -20 75 17
46 41 57 86 70 287 6 85 14 198 19 250 5 52 11 149 14 215 7 152 15 256 21
266 8 12 8 204 0 228 -8 26 -22 26 -56 3z m-64 -451 c-9 -153 -10 -154 -130
-169 -125 -16 -158 -53 -95 -106 29 -24 48 -25 75 -6 6 4 31 11 57 14 26 4 50
11 53 17 18 28 23 -5 19 -123 -8 -207 -2 -192 -97 -238 -45 -21 -98 -51 -117
-65 -34 -25 -129 -60 -138 -50 -3 2 1 12 8 20 14 17 22 95 40 403 10 158 14
189 34 225 42 81 87 138 189 240 l102 102 3 -70 c2 -38 0 -126 -3 -194z"/>
<path d="M1430 1624 c-56 -15 -292 -136 -320 -164 -11 -11 -28 -20 -38 -20
-47 0 -96 -97 -70 -139 23 -38 69 -28 118 25 41 45 127 101 137 90 3 -3 6 -76
7 -162 l1 -156 -30 -24 c-16 -13 -43 -36 -60 -50 -16 -14 -47 -35 -67 -45 -21
-11 -70 -41 -109 -67 -39 -26 -82 -53 -95 -60 -26 -14 -30 -32 -13 -63 17 -33
49 -39 89 -17 36 19 94 59 119 80 8 6 29 20 48 29 19 10 41 23 49 30 8 6 17 9
21 6 7 -7 -30 -203 -53 -281 -8 -27 -14 -66 -14 -85 0 -20 -4 -41 -8 -47 -16
-22 -80 -53 -147 -69 -120 -28 -134 -35 -151 -67 -15 -29 -15 -31 12 -59 28
-30 62 -37 80 -19 6 6 28 12 49 13 21 2 40 8 43 15 2 7 12 12 21 12 10 0 31 6
47 14 16 7 61 28 99 46 39 17 81 38 95 46 27 16 97 49 145 70 17 7 57 24 90
39 33 15 71 31 85 37 52 22 106 51 125 69 11 10 50 32 87 49 72 34 86 46 70
62 -14 14 -146 -16 -177 -40 -14 -11 -40 -24 -58 -27 -18 -4 -36 -11 -42 -15
-5 -3 -55 -24 -110 -45 -55 -21 -135 -53 -178 -72 -43 -18 -85 -33 -92 -33
-17 0 -21 55 -5 65 6 3 10 14 10 24 0 10 6 24 14 30 8 6 26 64 40 129 15 64
34 137 42 162 9 25 20 59 25 75 5 17 45 68 89 115 92 97 103 113 95 139 -11
36 -34 31 -90 -19 -72 -65 -85 -65 -85 3 0 78 22 140 51 147 41 10 31 43 -19
60 -23 8 -41 19 -39 25 1 5 36 27 77 47 78 40 99 60 80 82 -17 21 -41 24 -90
10z"/>
</g>
</svg>
