<?xml version="1.0" standalone="no"?>
<!DOCTYPE svg PUBLIC "-//W3C//DTD SVG 20010904//EN"
 "http://www.w3.org/TR/2001/REC-SVG-20010904/DTD/svg10.dtd">
<svg version="1.0" xmlns="http://www.w3.org/2000/svg"
 width="209.000000pt" height="211.000000pt" viewBox="0 0 209.000000 211.000000"
 preserveAspectRatio="xMidYMid meet">
<metadata>
Created by potrace 1.16, written by Peter Selinger 2001-2019
</metadata>
<g transform="translate(0.000000,211.000000) scale(0.100000,-0.100000)"
fill="#000000" stroke="none">
<path d="M873 1889 c-18 -12 -33 -25 -33 -30 0 -4 -25 -36 -55 -70 -30 -34
-55 -65 -55 -69 0 -8 -186 -173 -201 -178 -5 -2 -19 8 -30 22 -24 30 -46 32
-75 8 -18 -16 -22 -36 -33 -177 -7 -88 -23 -223 -36 -300 -13 -77 -26 -167
-30 -200 -3 -33 -12 -96 -20 -140 -7 -44 -19 -143 -26 -220 -14 -166 -7 -198
48 -203 24 -2 33 1 38 17 3 12 3 25 0 31 -4 6 -3 39 0 75 7 62 8 63 31 53 19
-9 45 -3 146 32 67 24 134 49 147 56 31 16 41 5 35 -40 -9 -69 27 -88 71 -39
19 22 24 39 25 84 0 33 6 63 15 75 18 23 19 56 3 72 -19 19 -8 487 15 617 9
50 18 117 22 150 8 88 16 127 31 157 17 33 27 93 28 173 1 69 -10 77 -61 44z
m-107 -391 c-3 -57 -10 -134 -16 -173 -6 -38 -11 -95 -13 -125 l-2 -55 -35 3
c-19 2 -62 -7 -95 -18 -54 -19 -91 -30 -135 -41 -19 -5 -19 3 -2 156 16 147
23 168 56 159 13 -3 27 -1 30 5 4 6 16 11 26 11 12 0 36 22 61 58 53 71 100
121 117 121 9 1 11 -23 8 -101z m-38 -450 c4 -13 6 -94 4 -180 l-4 -157 -56
-26 c-50 -23 -118 -36 -244 -48 -37 -3 -38 -2 -38 33 0 19 5 55 11 80 5 24 14
84 18 132 5 49 11 91 14 94 3 3 22 1 42 -6 24 -8 40 -8 48 -2 7 5 39 24 72 42
33 17 67 38 75 46 22 21 49 17 58 -8z"/>
<path d="M1490 1659 c-36 -4 -103 -23 -150 -42 -54 -22 -109 -37 -151 -40 -68
-6 -137 -29 -151 -50 -16 -26 -8 -66 18 -86 32 -25 52 -26 81 -6 12 8 45 20
73 26 29 6 75 22 102 36 69 35 186 73 223 73 42 0 68 20 63 49 -5 38 -34 49
-108 40z"/>
<path d="M1299 1452 c-28 -14 -34 -22 -32 -47 9 -122 12 -302 6 -311 -14 -21
-145 -94 -168 -94 -18 0 -71 -36 -97 -65 -10 -13 -15 -29 -11 -45 7 -34 49
-71 71 -63 28 10 156 95 169 112 7 9 13 12 13 6 4 -30 -3 -291 -9 -354 l-6
-75 -52 -11 c-29 -7 -58 -17 -66 -23 -7 -6 -45 -18 -83 -26 -46 -10 -74 -22
-86 -36 -31 -38 -23 -67 27 -92 29 -15 35 -14 134 25 96 38 104 40 116 24 14
-19 45 -13 45 8 0 14 94 50 160 60 25 4 57 13 71 21 25 13 90 31 134 38 11 1
29 6 40 9 60 18 174 26 250 17 l40 -5 0 63 0 62 -50 17 c-61 21 -110 18 -150
-11 -28 -20 -109 -42 -181 -50 -17 -2 -44 -10 -60 -19 -22 -11 -166 -47 -190
-47 -3 0 -3 35 0 78 3 42 8 128 12 191 4 76 11 119 20 129 8 7 14 21 14 30 0
35 28 94 58 125 18 18 32 43 32 54 0 26 -31 38 -59 24 -11 -6 -23 -11 -26 -11
-15 0 21 196 41 225 22 31 18 64 -8 69 -70 14 -87 14 -119 -2z"/>
</g>
</svg>
