<?xml version="1.0" standalone="no"?>
<!DOCTYPE svg PUBLIC "-//W3C//DTD SVG 20010904//EN"
 "http://www.w3.org/TR/2001/REC-SVG-20010904/DTD/svg10.dtd">
<svg version="1.0" xmlns="http://www.w3.org/2000/svg"
 width="208.000000pt" height="214.000000pt" viewBox="0 0 208.000000 214.000000"
 preserveAspectRatio="xMidYMid meet">
<metadata>
Created by potrace 1.16, written by Peter Selinger 2001-2019
</metadata>
<g transform="translate(0.000000,214.000000) scale(0.100000,-0.100000)"
fill="#000000" stroke="none">
<path d="M1429 2063 c-13 -10 -53 -36 -89 -58 -36 -21 -76 -47 -90 -57 -14
-11 -42 -32 -64 -49 -21 -16 -45 -29 -52 -29 -23 0 -118 -66 -142 -99 -27 -37
-23 -63 14 -79 37 -18 48 -15 92 21 23 17 59 45 81 61 23 17 41 33 41 38 0 4
6 8 13 8 8 0 22 9 32 20 10 11 24 20 30 20 7 0 24 12 39 27 l26 26 -5 -89 c-3
-49 -8 -121 -11 -160 l-5 -70 -57 -28 c-31 -14 -64 -31 -72 -36 -54 -34 -169
-100 -174 -100 -18 0 -56 -55 -56 -80 0 -26 5 -31 41 -40 39 -11 43 -10 63 14
21 26 90 76 105 76 4 0 20 11 35 25 14 13 46 36 71 50 l44 26 5 -23 c3 -13 8
-45 11 -72 7 -55 4 -60 -105 -134 -30 -20 -63 -47 -74 -60 -10 -13 -35 -34
-55 -47 -20 -14 -65 -47 -101 -75 -36 -27 -87 -58 -113 -67 -47 -17 -137 -90
-137 -112 0 -18 43 -51 66 -51 11 0 55 22 97 50 88 58 144 86 153 77 4 -3 -2
-48 -13 -99 l-19 -93 -75 -52 c-41 -28 -88 -55 -106 -58 -18 -4 -43 -17 -57
-30 -13 -12 -59 -37 -102 -55 -87 -36 -149 -81 -158 -113 -12 -46 64 -88 94
-52 14 17 127 75 146 75 6 0 24 13 40 30 16 16 33 30 37 30 4 0 27 9 49 20 23
11 43 18 45 16 4 -4 -12 -82 -33 -156 -29 -102 -82 -219 -118 -258 -23 -26
-14 -55 20 -60 23 -3 94 53 94 74 0 9 13 26 29 39 15 14 34 39 41 57 6 18 16
42 20 53 5 11 12 36 15 55 6 32 34 118 69 216 20 55 51 104 84 132 15 12 61
51 102 86 41 34 100 79 130 100 30 20 66 45 78 56 13 11 32 20 42 20 10 0 41
12 69 26 42 22 51 32 51 53 0 73 -66 68 -199 -14 -61 -37 -146 -95 -191 -129
-25 -19 -51 -35 -57 -35 -24 -2 -13 43 19 76 25 26 29 35 19 47 -7 8 -18 13
-26 10 -7 -3 -16 0 -20 7 -8 12 69 88 116 114 38 20 95 129 103 195 3 30 13
151 21 267 10 153 20 232 35 283 26 89 24 154 -6 158 -11 2 -31 -5 -45 -15z
m-249 -992 c0 -12 -20 -25 -27 -18 -7 7 6 27 18 27 5 0 9 -4 9 -9z"/>
<path d="M1210 1717 c-25 -12 -61 -34 -80 -48 -19 -14 -61 -41 -93 -59 -35
-19 -62 -42 -68 -57 -9 -24 -10 -25 -35 -8 -28 18 -75 13 -94 -10 -12 -15 -15
-430 -3 -461 3 -8 12 -14 21 -12 20 4 59 77 60 114 1 29 24 161 38 219 4 17
13 34 20 38 8 4 14 19 14 32 0 19 6 25 23 26 12 1 29 2 37 3 20 1 68 32 105
68 63 60 96 88 104 88 11 0 31 46 31 70 0 26 -22 25 -80 -3z"/>
<path d="M1272 583 c-55 -11 -46 -77 17 -114 45 -27 161 -70 171 -64 4 2 20 0
36 -5 68 -23 214 -59 282 -70 52 -9 81 -19 100 -36 18 -18 35 -24 56 -22 l31
3 -3 65 c-1 35 -6 68 -11 73 -4 4 -33 10 -62 13 -80 6 -158 20 -214 37 -27 9
-86 27 -130 40 -103 32 -186 64 -199 77 -10 10 -32 11 -74 3z"/>
</g>
</svg>
