<?xml version="1.0" standalone="no"?>
<!DOCTYPE svg PUBLIC "-//W3C//DTD SVG 20010904//EN"
 "http://www.w3.org/TR/2001/REC-SVG-20010904/DTD/svg10.dtd">
<svg version="1.0" xmlns="http://www.w3.org/2000/svg"
 width="209.000000pt" height="214.000000pt" viewBox="0 0 209.000000 214.000000"
 preserveAspectRatio="xMidYMid meet">
<metadata>
Created by potrace 1.16, written by Peter Selinger 2001-2019
</metadata>
<g transform="translate(0.000000,214.000000) scale(0.100000,-0.100000)"
fill="#000000" stroke="none">
<path d="M1299 1938 c-55 -51 -121 -110 -147 -130 -58 -46 -120 -106 -164
-160 -32 -38 -36 -41 -64 -31 -21 7 -38 6 -61 -4 -18 -7 -33 -14 -33 -16 0 -1
5 -29 11 -62 18 -105 9 -516 -16 -700 -39 -296 -58 -420 -70 -470 -32 -139
-47 -222 -44 -240 3 -13 14 -21 30 -23 37 -4 56 30 85 151 45 185 104 525 104
601 0 28 4 66 9 83 5 18 13 100 17 183 4 82 10 150 15 150 4 0 8 19 7 43 0 23
2 71 5 107 4 36 7 70 7 77 0 7 24 15 56 18 75 10 98 33 72 74 -10 16 -8 25 12
53 12 18 42 49 66 68 23 19 43 40 43 46 1 9 82 74 93 74 11 0 10 -464 -2 -745
-5 -132 -10 -376 -10 -543 l0 -303 -32 22 c-75 53 -244 244 -231 262 31 42
130 163 138 169 5 4 4 16 -4 32 -13 23 -10 33 23 110 20 46 36 91 36 98 0 8 5
19 11 25 17 17 0 81 -28 103 -25 20 -73 27 -87 13 -9 -9 -77 -33 -96 -33 -28
-1 -62 -40 -71 -81 -13 -57 5 -84 63 -92 50 -7 58 -1 67 45 7 33 50 66 70 53
16 -9 -24 -134 -58 -182 -17 -24 -31 -46 -31 -49 0 -13 -115 -140 -139 -153
-32 -17 -41 -29 -41 -58 0 -26 35 -53 67 -53 23 0 32 -10 121 -139 20 -30 55
-75 78 -100 22 -25 50 -62 62 -81 11 -20 32 -46 46 -59 14 -14 26 -30 26 -37
0 -24 43 -54 76 -54 36 0 48 18 38 56 -4 16 -2 24 6 24 10 0 11 19 4 88 -11
108 -10 627 1 987 5 149 10 367 11 485 1 118 6 248 9 287 8 78 -1 103 -36 103
-11 0 -64 -42 -120 -92z m111 -636 c0 -20 -37 -55 -45 -42 -3 4 2 15 10 23 8
9 15 20 15 26 0 6 5 11 10 11 6 0 10 -8 10 -18z"/>
<path d="M700 1485 c-19 -13 -40 -24 -46 -24 -6 -1 -19 -11 -30 -22 -10 -12
-35 -32 -54 -44 -19 -12 -50 -36 -69 -54 -18 -17 -36 -31 -40 -31 -13 0 -77
-74 -89 -102 -9 -22 -18 -28 -41 -28 -16 0 -39 -8 -50 -18 -22 -17 -22 -19
-11 -144 11 -127 9 -216 -10 -408 -15 -151 -8 -289 16 -307 25 -18 31 -17 46
14 7 15 28 37 46 48 18 11 64 46 103 78 38 31 76 57 84 57 16 0 48 67 39 81
-6 11 34 79 47 79 13 0 11 -97 -3 -120 -10 -16 -10 -23 4 -37 14 -14 24 -15
55 -7 l38 9 6 95 c4 52 10 189 13 305 8 270 15 380 27 432 11 52 1 132 -19
156 -19 21 -19 21 -62 -8z m-39 -332 c-4 -100 -10 -185 -13 -189 -4 -3 -22 3
-41 15 -46 28 -82 27 -103 -4 -8 -13 -13 -32 -10 -43 7 -20 65 -52 95 -52 10
0 29 -8 41 -18 21 -17 22 -22 12 -50 -28 -82 -190 -270 -266 -309 l-29 -15 7
54 c13 113 25 266 25 340 1 42 6 80 11 83 6 3 10 19 10 34 0 15 6 36 14 46 11
16 16 17 29 6 12 -9 21 -10 37 -1 20 11 21 17 16 64 -5 38 -3 60 8 81 16 30
104 115 119 115 5 0 15 7 24 15 8 9 17 15 18 13 2 -2 0 -85 -4 -185z"/>
</g>
</svg>
