<?xml version="1.0" standalone="no"?>
<!DOCTYPE svg PUBLIC "-//W3C//DTD SVG 20010904//EN"
 "http://www.w3.org/TR/2001/REC-SVG-20010904/DTD/svg10.dtd">
<svg version="1.0" xmlns="http://www.w3.org/2000/svg"
 width="205.000000pt" height="215.000000pt" viewBox="0 0 205.000000 215.000000"
 preserveAspectRatio="xMidYMid meet">
<metadata>
Created by potrace 1.16, written by Peter Selinger 2001-2019
</metadata>
<g transform="translate(0.000000,215.000000) scale(0.100000,-0.100000)"
fill="#000000" stroke="none">
<path d="M1189 2131 c-14 -5 -54 -28 -89 -52 -35 -24 -108 -69 -161 -99 -206
-116 -218 -124 -230 -152 -6 -15 -9 -42 -7 -58 l5 -31 -56 2 c-118 5 -133 -17
-91 -138 65 -188 84 -299 55 -323 -21 -17 -19 -46 5 -70 28 -28 27 -67 -10
-240 -18 -85 -34 -166 -35 -180 -5 -41 -42 -167 -85 -288 -22 -63 -38 -118
-35 -123 12 -18 54 -9 68 14 7 12 28 47 46 77 38 63 84 196 110 320 l18 85 39
-3 c22 -2 43 -7 47 -11 9 -9 -52 -200 -83 -261 -28 -55 -43 -127 -30 -150 25
-46 75 -30 107 35 49 100 121 220 144 241 21 19 21 18 42 -8 42 -51 77 -116
77 -140 0 -57 -98 -328 -118 -328 -4 0 -15 -13 -25 -29 -18 -30 -11 -46 16
-35 29 11 116 122 151 190 19 38 42 78 50 89 16 20 16 19 47 -15 66 -76 163
-204 204 -272 15 -24 29 -34 52 -36 30 -3 32 -1 39 35 11 54 9 92 -11 228 -15
104 -16 167 -10 480 6 352 11 407 51 632 5 24 2 34 -13 41 -31 17 -68 3 -119
-45 -27 -25 -83 -68 -124 -95 -41 -27 -84 -57 -94 -66 -18 -16 -19 -16 -12 23
4 22 13 47 21 55 8 10 14 66 18 170 7 168 21 268 44 314 23 45 45 184 33 207
-12 21 -13 21 -51 10z m-95 -192 c-3 -5 -8 -37 -10 -72 -3 -34 -9 -87 -14
-117 -5 -30 -7 -84 -5 -120 2 -36 5 -112 5 -170 1 -58 7 -111 12 -117 16 -20
-10 -45 -111 -108 -9 -5 -32 -22 -51 -36 -19 -15 -48 -34 -65 -43 -16 -9 -43
-25 -60 -36 -39 -25 -45 -24 -45 3 1 38 36 126 73 180 19 29 42 67 51 85 9 17
23 32 31 32 8 0 20 10 26 23 6 12 27 41 47 65 23 30 31 47 24 54 -15 15 -45 2
-113 -52 -34 -28 -65 -50 -69 -50 -4 0 -30 -20 -56 -45 -27 -25 -52 -45 -55
-45 -3 0 -6 18 -7 41 -1 22 -4 45 -7 50 -3 4 -7 46 -10 91 -3 78 -2 84 23 108
15 13 36 29 47 35 11 6 32 28 47 50 15 22 53 59 85 83 124 93 232 151 207 111z
m257 -620 c-14 -87 -22 -312 -22 -631 0 -148 -3 -268 -8 -268 -10 0 -133 127
-154 160 -13 21 -16 52 -14 177 2 129 0 155 -14 169 -33 32 -118 12 -156 -36
-13 -17 -22 -12 -28 19 -2 11 -7 26 -10 31 -9 14 15 151 29 169 6 8 33 31 61
52 27 20 109 82 180 137 72 55 134 96 138 92 4 -4 4 -36 -2 -71z m-446 -189
c3 -5 1 -10 -4 -10 -6 0 -11 5 -11 10 0 6 2 10 4 10 3 0 8 -4 11 -10z m-89
-176 c-3 -9 -6 -22 -6 -30 0 -8 -4 -14 -10 -14 -11 0 -14 43 -3 53 12 13 25 7
19 -9z m234 -166 l-1 -53 -19 24 c-23 26 -25 52 -8 69 22 22 28 13 28 -40z"/>
<path d="M900 1675 c-30 -6 -72 -19 -92 -28 -32 -14 -38 -21 -38 -47 0 -41 28
-53 105 -43 47 6 62 13 69 29 5 11 18 25 29 30 27 12 44 41 32 53 -19 17 -50
19 -105 6z"/>
</g>
</svg>
