<?xml version="1.0" standalone="no"?>
<!DOCTYPE svg PUBLIC "-//W3C//DTD SVG 20010904//EN"
 "http://www.w3.org/TR/2001/REC-SVG-20010904/DTD/svg10.dtd">
<svg version="1.0" xmlns="http://www.w3.org/2000/svg"
 width="207.000000pt" height="229.000000pt" viewBox="0 0 207.000000 229.000000"
 preserveAspectRatio="xMidYMid meet">
<metadata>
Created by potrace 1.16, written by Peter Selinger 2001-2019
</metadata>
<g transform="translate(0.000000,229.000000) scale(0.100000,-0.100000)"
fill="#000000" stroke="none">
<path d="M1060 2255 c-18 -19 -47 -41 -64 -49 -17 -9 -53 -33 -81 -56 -27 -22
-69 -49 -92 -60 -24 -10 -43 -23 -43 -28 0 -5 -9 -19 -20 -32 -11 -13 -20 -31
-20 -42 0 -25 35 -58 63 -58 13 0 40 19 67 46 25 26 62 57 83 70 20 13 37 28
37 33 0 7 73 61 84 61 2 0 4 -78 3 -172 0 -95 4 -210 9 -255 5 -45 7 -88 4
-96 -3 -8 -39 -43 -80 -77 -41 -34 -93 -77 -115 -95 -106 -88 -109 -88 -80 -4
14 41 42 75 144 174 23 22 41 45 41 52 0 34 -28 25 -230 -77 -19 -9 -41 -31
-49 -48 -12 -27 -38 -48 -47 -39 -2 1 1 32 6 67 5 36 10 84 10 107 0 39 4 45
40 68 22 14 40 30 40 35 0 6 13 1 29 -11 27 -20 32 -21 81 -8 36 9 58 22 72
41 27 38 17 58 -29 60 -62 2 -86 -2 -122 -23 -24 -14 -37 -17 -46 -9 -9 7 -21
6 -41 -5 -22 -12 -44 -14 -87 -9 -47 5 -62 3 -78 -12 -26 -24 -24 -63 8 -126
23 -43 28 -66 27 -123 0 -71 -29 -160 -60 -186 -16 -13 -19 -45 -5 -53 5 -4
23 6 41 20 29 25 32 25 49 10 10 -9 25 -16 34 -16 27 0 23 -32 -29 -225 -13
-49 -27 -103 -30 -120 -4 -16 -15 -42 -25 -57 -11 -14 -19 -29 -19 -33 0 -3
-11 -31 -25 -61 -14 -30 -25 -58 -25 -62 0 -4 -19 -42 -41 -86 -27 -50 -52
-84 -70 -95 -29 -16 -37 -35 -20 -45 4 -3 30 6 58 19 41 21 56 37 93 100 42
69 63 92 59 62 -7 -53 30 -76 88 -55 34 12 118 95 151 147 24 39 54 71 67 71
19 0 75 -86 75 -115 0 -26 -67 -191 -100 -246 -8 -14 -36 -62 -62 -106 -27
-44 -78 -115 -115 -158 -38 -43 -82 -96 -99 -119 -17 -23 -52 -61 -78 -86
l-46 -45 -228 -5 c-170 -4 -121 -6 193 -6 231 0 361 3 289 6 -115 4 -130 7
-125 21 6 16 70 93 139 168 19 20 46 52 60 71 14 19 44 56 67 81 57 66 100
139 150 254 29 66 49 100 60 100 14 0 119 -92 221 -193 54 -54 84 -54 98 -2 5
19 14 38 19 41 5 4 -3 67 -17 145 -23 124 -26 165 -27 374 -1 473 2 533 37
639 13 39 13 45 -2 62 -28 31 -62 23 -124 -31 -32 -27 -63 -50 -69 -50 -13 0
-19 211 -10 345 6 85 39 208 60 221 5 3 9 12 9 20 0 11 -17 14 -78 14 -76 0
-79 -1 -112 -35z m180 -672 c0 -5 2 -118 5 -253 2 -135 6 -338 8 -453 l5 -207
-52 37 c-28 20 -71 53 -95 73 l-44 36 1 90 c2 117 -17 160 -68 156 -19 -1 -50
-12 -68 -22 -18 -11 -37 -20 -42 -20 -18 0 -49 82 -60 158 l-12 77 28 20 c25
18 58 45 152 123 19 15 47 42 64 60 18 18 41 32 54 32 15 0 38 17 66 50 41 47
58 60 58 43z m-425 -599 l15 -36 -62 -70 c-34 -38 -64 -65 -66 -59 -2 6 8 35
22 65 14 30 26 63 26 73 0 21 27 63 40 63 6 0 16 -16 25 -36z"/>
<path d="M923 3 c32 -2 81 -2 110 0 29 2 3 3 -58 3 -60 0 -84 -1 -52 -3z"/>
<path d="M1143 3 c9 -2 25 -2 35 0 9 3 1 5 -18 5 -19 0 -27 -2 -17 -5z"/>
<path d="M1213 3 c9 -2 23 -2 30 0 6 3 -1 5 -18 5 -16 0 -22 -2 -12 -5z"/>
<path d="M1328 3 c6 -2 18 -2 25 0 6 3 1 5 -13 5 -14 0 -19 -2 -12 -5z"/>
<path d="M1473 3 c26 -2 68 -2 95 0 26 2 4 3 -48 3 -52 0 -74 -1 -47 -3z"/>
<path d="M1653 3 c15 -2 37 -2 50 0 12 2 0 4 -28 4 -27 0 -38 -2 -22 -4z"/>
<path d="M1773 3 c20 -2 54 -2 75 0 20 2 3 4 -38 4 -41 0 -58 -2 -37 -4z"/>
<path d="M1908 3 c12 -2 30 -2 40 0 9 3 -1 5 -23 4 -22 0 -30 -2 -17 -4z"/>
<path d="M2003 3 c9 -2 25 -2 35 0 9 3 1 5 -18 5 -19 0 -27 -2 -17 -5z"/>
</g>
</svg>
