<?xml version="1.0" standalone="no"?>
<!DOCTYPE svg PUBLIC "-//W3C//DTD SVG 20010904//EN"
 "http://www.w3.org/TR/2001/REC-SVG-20010904/DTD/svg10.dtd">
<svg version="1.0" xmlns="http://www.w3.org/2000/svg"
 width="207.000000pt" height="214.000000pt" viewBox="0 0 207.000000 214.000000"
 preserveAspectRatio="xMidYMid meet">
<metadata>
Created by potrace 1.16, written by Peter Selinger 2001-2019
</metadata>
<g transform="translate(0.000000,214.000000) scale(0.100000,-0.100000)"
fill="#000000" stroke="none">
<path d="M1103 2063 c-12 -2 -39 -24 -60 -47 -33 -37 -140 -116 -158 -116 -3
0 -44 -25 -90 -55 -45 -30 -88 -55 -94 -55 -6 0 -15 -9 -21 -20 -6 -11 -17
-20 -24 -20 -8 0 -19 -12 -25 -27 -6 -16 -16 -35 -23 -44 -13 -19 2 -221 26
-360 12 -67 12 -84 -2 -133 -18 -64 -10 -81 39 -88 22 -4 36 1 50 15 l19 21 0
-21 c0 -33 -15 -65 -42 -93 -44 -44 -51 -66 -29 -87 19 -18 18 -22 -59 -248
-43 -127 -85 -248 -93 -270 -8 -22 -13 -43 -10 -47 9 -15 43 -8 62 13 11 11
31 33 44 47 14 15 60 97 101 181 51 104 91 171 121 204 25 27 45 55 45 62 0 7
6 18 13 24 17 13 29 1 76 -77 46 -77 48 -99 16 -184 -15 -40 -31 -77 -35 -83
-5 -5 -20 -32 -35 -60 -53 -96 -115 -184 -170 -239 -51 -52 -69 -86 -45 -86
13 0 91 60 155 119 50 46 135 152 135 169 0 5 9 17 20 27 11 10 20 23 20 28 0
6 7 19 17 29 9 10 21 28 27 40 24 48 30 42 151 -147 35 -55 72 -111 83 -125
10 -14 27 -42 36 -62 21 -44 32 -54 67 -63 24 -6 27 -2 47 51 13 35 18 63 13
73 -24 47 -53 406 -58 716 -5 295 2 360 50 465 14 30 34 77 46 103 13 28 19
57 16 68 -6 17 -12 19 -43 13 -44 -8 -79 -29 -87 -52 -3 -10 -36 -39 -73 -67
-37 -27 -95 -74 -129 -102 -34 -29 -64 -49 -66 -45 -2 4 -2 18 -1 32 23 253
28 622 9 625 -5 1 -20 0 -32 -2z m-58 -275 c3 -40 5 -109 3 -153 -3 -69 -5
-80 -23 -85 -34 -9 -104 -59 -160 -113 -107 -104 -117 -111 -127 -92 -16 28
-1 82 25 88 108 27 159 70 161 136 2 57 -22 55 -157 -11 -11 -5 -20 -8 -22 -6
-1 2 -1 26 2 55 5 48 10 55 67 107 52 47 196 144 218 145 3 1 9 -32 13 -71z
m8 -378 l5 -65 -41 -36 c-51 -42 -116 -83 -123 -76 -7 6 72 163 86 172 5 3 10
13 10 22 0 21 41 66 51 56 3 -5 9 -37 12 -73z m269 14 c4 -3 2 -20 -3 -37 -9
-30 -14 -641 -5 -655 2 -4 7 -43 10 -87 3 -44 9 -101 12 -127 8 -62 -8 -62
-40 0 -14 26 -47 68 -74 94 -27 26 -62 68 -77 93 -25 43 -26 51 -16 90 18 71
14 248 -6 290 -29 60 -86 60 -152 0 -45 -41 -51 -43 -51 -12 0 23 29 56 85 95
17 11 53 43 81 70 28 27 75 67 105 90 30 22 68 54 84 71 31 31 38 35 47 25z
m-473 -466 c-7 -13 -14 -18 -16 -11 -3 7 1 22 8 35 7 13 14 18 16 11 3 -7 -1
-22 -8 -35z m191 -9 c0 -56 -11 -60 -43 -17 -15 21 -17 30 -8 47 7 11 21 21
31 21 17 0 20 -7 20 -51z"/>
</g>
</svg>
