<?xml version="1.0" standalone="no"?>
<!DOCTYPE svg PUBLIC "-//W3C//DTD SVG 20010904//EN"
 "http://www.w3.org/TR/2001/REC-SVG-20010904/DTD/svg10.dtd">
<svg version="1.0" xmlns="http://www.w3.org/2000/svg"
 width="207.000000pt" height="214.000000pt" viewBox="0 0 207.000000 214.000000"
 preserveAspectRatio="xMidYMid meet">
<metadata>
Created by potrace 1.16, written by Peter Selinger 2001-2019
</metadata>
<g transform="translate(0.000000,214.000000) scale(0.100000,-0.100000)"
fill="#000000" stroke="none">
<path d="M1029 2124 c-7 -8 -34 -26 -60 -40 -26 -13 -50 -28 -54 -34 -3 -6
-21 -17 -38 -26 -101 -48 -277 -182 -277 -210 0 -10 -6 -11 -26 -4 -85 33
-147 -6 -126 -78 30 -103 40 -433 17 -570 -9 -53 -18 -99 -20 -102 -2 -3 -6
-50 -10 -105 -4 -60 -16 -128 -30 -170 -12 -38 -26 -87 -29 -109 -4 -21 -24
-77 -45 -125 -21 -47 -42 -97 -46 -111 -4 -14 -27 -58 -51 -97 -24 -40 -44
-76 -44 -80 -1 -5 -21 -30 -45 -57 -39 -44 -47 -48 -75 -43 -22 5 -32 3 -37
-9 -9 -25 27 -45 73 -40 54 7 104 40 140 94 16 24 37 48 46 53 22 12 84 123
93 166 3 18 14 42 24 55 37 48 101 269 126 433 16 106 39 203 55 235 4 8 16
17 26 18 10 2 28 12 39 22 11 9 54 37 95 60 41 24 81 50 88 57 7 7 18 13 23
13 5 0 27 17 50 37 62 56 85 113 44 113 -23 0 -98 -38 -145 -74 -25 -19 -53
-35 -63 -35 -26 -1 -103 -40 -123 -62 -9 -10 -24 -19 -32 -19 -12 0 -14 22 -8
148 9 196 15 255 30 267 7 6 18 20 25 33 7 12 17 22 24 21 17 -2 57 12 57 20
0 10 66 81 75 81 5 0 20 11 34 24 28 26 77 57 127 80 17 8 37 22 44 31 16 19
112 66 120 59 12 -13 18 -193 13 -404 -3 -124 -6 -240 -6 -258 0 -29 -13 -45
-91 -118 -53 -50 -104 -88 -125 -95 -20 -6 -52 -29 -73 -51 -37 -41 -42 -45
-118 -87 -58 -31 -150 -119 -150 -143 0 -33 19 -56 51 -63 27 -6 36 -2 83 47
29 29 76 65 103 80 l51 28 4 -63 c3 -34 3 -67 1 -72 -2 -6 -27 -23 -56 -39
-28 -16 -68 -41 -87 -55 -19 -14 -57 -38 -85 -52 -44 -22 -95 -76 -95 -100 0
-5 10 -19 21 -30 18 -18 28 -20 72 -15 50 7 65 16 154 93 21 18 42 33 46 33 4
0 7 -56 5 -125 -3 -112 -5 -126 -22 -131 -10 -3 -66 -34 -125 -68 -58 -35
-117 -69 -131 -77 -47 -26 -90 -73 -90 -96 0 -17 10 -27 36 -38 41 -17 37 -18
158 60 44 29 98 60 119 68 20 9 37 21 37 26 0 6 7 11 15 11 24 0 100 42 209
114 55 36 103 66 108 66 5 0 37 22 71 48 34 27 74 55 88 63 15 8 61 43 102 79
79 67 103 112 80 149 -19 30 -39 22 -127 -54 -48 -41 -91 -75 -96 -75 -5 0
-41 -25 -81 -55 -40 -30 -78 -55 -85 -55 -7 0 -26 -11 -42 -25 -17 -14 -34
-25 -40 -25 -5 0 -12 -7 -15 -15 -5 -11 -127 -82 -127 -73 0 2 9 27 21 57 11
30 29 99 40 154 20 98 44 148 79 161 16 6 47 25 66 41 7 6 42 28 78 50 71 43
84 64 67 109 -10 25 -14 27 -44 21 -17 -4 -42 -16 -54 -27 -12 -12 -31 -26
-41 -32 -11 -6 -30 -18 -43 -27 -13 -10 -35 -20 -48 -24 l-24 -7 7 68 c4 38
14 76 22 85 7 8 14 21 14 27 0 14 125 121 168 144 30 16 32 20 32 73 0 49 -3
58 -20 62 -18 5 -19 11 -14 42 4 20 13 50 20 67 17 40 25 173 28 432 l2 212
-97 0 c-76 0 -99 -3 -110 -16z"/>
<path d="M1014 1786 c-27 -19 -80 -51 -117 -71 -38 -20 -97 -56 -132 -81 -35
-24 -73 -44 -83 -44 -23 0 -34 -33 -22 -65 30 -79 115 -44 305 124 144 128
147 130 143 149 -6 29 -42 25 -94 -12z"/>
</g>
</svg>
