<?xml version="1.0" standalone="no"?>
<!DOCTYPE svg PUBLIC "-//W3C//DTD SVG 20010904//EN"
 "http://www.w3.org/TR/2001/REC-SVG-20010904/DTD/svg10.dtd">
<svg version="1.0" xmlns="http://www.w3.org/2000/svg"
 width="209.000000pt" height="213.000000pt" viewBox="0 0 209.000000 213.000000"
 preserveAspectRatio="xMidYMid meet">
<metadata>
Created by potrace 1.16, written by Peter Selinger 2001-2019
</metadata>
<g transform="translate(0.000000,213.000000) scale(0.100000,-0.100000)"
fill="#000000" stroke="none">
<path d="M1115 2121 c-7 -12 -125 -91 -134 -91 -4 0 -18 -11 -31 -25 -13 -14
-28 -25 -32 -25 -5 0 -29 -13 -53 -30 -24 -16 -48 -30 -53 -30 -5 0 -40 -24
-78 -53 -79 -61 -93 -94 -51 -122 32 -21 64 -12 104 29 18 17 45 39 60 47 15
7 38 23 51 35 13 11 41 32 64 45 22 13 61 40 86 59 66 50 103 72 109 67 2 -3
-5 -56 -16 -118 -23 -127 -26 -220 -10 -336 12 -86 20 -103 43 -84 21 17 37
97 46 231 8 106 40 273 61 311 4 9 12 35 18 58 l9 41 -93 0 c-52 0 -96 -4
-100 -9z"/>
<path d="M435 1727 c-14 -11 -16 -21 -11 -53 4 -21 16 -55 26 -74 9 -19 29
-57 43 -85 26 -51 50 -134 61 -214 5 -33 3 -48 -10 -62 -15 -17 -15 -21 -1
-42 13 -21 53 -37 89 -37 5 0 50 41 99 90 49 50 93 90 98 90 5 0 11 6 14 13 2
7 25 23 51 36 25 13 48 32 51 41 3 9 17 22 32 29 45 21 103 72 103 91 0 36
-39 34 -98 -6 -79 -52 -123 -79 -153 -95 -51 -28 -93 -55 -123 -79 -17 -14
-43 -33 -58 -43 l-26 -16 1 67 c1 37 -3 92 -7 122 -9 55 -79 218 -100 232 -18
12 -61 9 -81 -5z"/>
<path d="M945 1729 c-65 -22 -133 -55 -203 -99 -65 -41 -72 -48 -70 -74 2 -17
13 -37 29 -48 24 -18 29 -18 74 -5 47 13 58 22 69 58 4 17 103 85 168 117 47
24 46 56 -2 59 -19 1 -48 -3 -65 -8z"/>
<path d="M940 1273 c-50 -9 -61 -30 -54 -102 3 -36 12 -93 19 -126 7 -33 16
-92 20 -131 l7 -71 -63 -89 c-105 -150 -123 -162 -114 -73 5 56 20 89 38 89
19 0 87 59 87 76 0 18 -9 18 -55 -2 -42 -17 -70 -12 -61 12 3 9 11 67 16 129
9 98 15 123 43 178 36 70 33 97 -12 97 -35 0 -108 -80 -114 -126 -3 -21 -10
-61 -17 -89 -6 -27 -14 -97 -18 -155 l-7 -105 -29 -3 c-16 -2 -39 -9 -50 -17
-12 -7 -43 -15 -69 -19 -64 -8 -87 -21 -87 -51 0 -17 9 -29 30 -40 32 -16 60
-20 60 -7 0 8 19 14 116 38 20 5 23 1 29 -48 3 -29 9 -61 11 -70 9 -30 -46
-76 -107 -92 -118 -30 -155 -72 -108 -122 25 -26 54 -30 109 -13 19 5 49 12
65 14 17 2 64 13 105 25 52 15 92 20 130 17 30 -2 69 0 85 5 17 4 53 11 80 14
28 3 79 9 115 14 157 22 287 30 336 20 116 -24 116 -24 130 -5 18 24 18 95 2
96 -90 7 -129 8 -218 9 -58 0 -172 -7 -255 -15 -82 -8 -198 -18 -258 -22 -97
-5 -107 -4 -101 10 7 20 102 80 128 81 13 1 31 24 58 74 21 40 49 90 63 110
14 20 25 44 25 53 0 10 22 33 48 53 26 19 77 68 112 108 34 40 76 81 91 90 31
19 48 63 31 80 -8 8 -30 3 -77 -17 -53 -23 -84 -46 -150 -114 -47 -46 -87 -82
-91 -78 -3 3 -9 55 -12 115 -4 93 -2 113 13 136 16 23 16 29 4 41 -18 17 -47
23 -79 18z m95 -793 c3 -5 1 -10 -4 -10 -6 0 -11 5 -11 10 0 6 2 10 4 10 3 0
8 -4 11 -10z"/>
</g>
</svg>
