<?xml version="1.0" standalone="no"?>
<!DOCTYPE svg PUBLIC "-//W3C//DTD SVG 20010904//EN"
 "http://www.w3.org/TR/2001/REC-SVG-20010904/DTD/svg10.dtd">
<svg version="1.0" xmlns="http://www.w3.org/2000/svg"
 width="206.000000pt" height="204.000000pt" viewBox="0 0 206.000000 204.000000"
 preserveAspectRatio="xMidYMid meet">
<metadata>
Created by potrace 1.16, written by Peter Selinger 2001-2019
</metadata>
<g transform="translate(0.000000,204.000000) scale(0.100000,-0.100000)"
fill="#000000" stroke="none">
<path d="M986 2018 c-9 -12 -16 -30 -16 -40 0 -9 -4 -19 -9 -22 -9 -6 -62
-167 -76 -231 -3 -16 -21 -59 -39 -95 -18 -36 -41 -87 -51 -115 -9 -27 -26
-69 -36 -91 -25 -57 -16 -84 27 -84 40 0 65 29 121 145 21 44 51 98 66 120 15
22 27 45 27 52 0 27 91 104 163 138 84 40 97 42 97 18 0 -38 -178 -308 -282
-427 -21 -24 -38 -46 -38 -49 0 -14 34 -15 59 -3 25 13 28 13 39 -5 15 -23 40
-24 70 -3 13 9 26 13 29 10 3 -3 -1 -51 -10 -105 -10 -55 -17 -122 -18 -148 0
-26 -3 -56 -7 -65 -6 -14 -75 -68 -87 -68 -2 0 -7 21 -11 46 -9 62 -40 146
-59 160 -8 6 -15 16 -15 22 0 11 -23 22 -45 22 -20 0 -65 -51 -65 -73 0 -9 17
-36 39 -60 44 -49 61 -78 61 -106 0 -11 7 -27 16 -35 14 -15 12 -20 -30 -63
-52 -52 -60 -89 -26 -123 28 -28 66 -25 95 6 14 15 25 31 25 35 0 10 40 33 46
26 11 -10 -84 -311 -128 -407 -35 -78 -35 -115 2 -115 19 0 33 12 57 49 18 27
30 53 27 58 -3 5 6 24 20 43 14 18 26 37 26 40 0 4 14 39 32 78 17 40 35 88
39 107 20 92 47 191 56 202 6 7 18 34 28 61 12 33 31 57 59 77 86 63 176 153
176 174 0 27 -18 46 -42 46 -10 0 -18 1 -18 3 2 25 69 166 101 210 16 22 29
44 29 49 0 4 10 30 21 56 42 92 47 108 65 184 14 63 15 80 4 92 -21 26 -53 18
-115 -27 -65 -46 -162 -107 -171 -107 -4 0 -2 6 4 13 19 23 43 106 45 158 2
43 -2 54 -23 71 -21 17 -34 19 -77 14 -28 -3 -64 -13 -80 -21 -15 -8 -54 -26
-86 -39 l-58 -25 7 22 c4 12 13 31 20 42 8 11 14 43 14 72 l0 53 -39 0 c-30 0
-44 -6 -55 -22z m474 -386 c0 -4 -25 -67 -55 -141 -30 -74 -55 -140 -55 -147
0 -7 -10 -33 -23 -56 -13 -24 -29 -65 -36 -90 -13 -46 -42 -88 -61 -88 -6 0
-10 15 -10 33 0 38 50 211 70 243 21 33 6 54 -37 54 l-37 0 49 51 c50 50 173
149 188 149 4 0 7 -3 7 -8z"/>
<path d="M533 1673 c-36 -38 -74 -81 -86 -97 -29 -38 -51 -60 -126 -125 -55
-47 -66 -53 -82 -43 -27 17 -29 16 -29 -20 0 -40 -9 -55 -35 -59 -18 -4 -20
-13 -22 -83 -2 -131 -31 -376 -58 -506 -30 -144 -32 -156 -41 -249 -8 -85 4
-105 57 -94 16 3 35 0 43 -7 18 -14 53 -5 81 22 11 11 39 32 62 46 48 31 150
119 205 177 20 21 40 37 43 34 3 -3 8 -46 11 -96 6 -86 6 -91 -16 -106 -21
-15 -22 -19 -10 -46 23 -56 74 -37 106 37 14 31 15 67 10 227 -3 105 -11 221
-16 259 -12 79 4 576 20 641 13 55 12 129 -2 143 -24 24 -52 11 -115 -55z
m-11 -385 c-2 -123 -7 -226 -10 -229 -24 -20 -111 -40 -187 -43 l-87 -2 6 56
c4 32 7 96 7 143 l0 85 37 -5 c34 -4 41 0 97 55 33 33 76 83 95 111 19 28 38
51 41 51 3 0 3 -100 1 -222z m-204 103 c-7 -11 -15 -18 -20 -15 -11 7 3 34 18
34 12 0 12 -4 2 -19z m203 -433 c0 -7 2 -22 3 -33 2 -11 7 -57 11 -101 l7 -81
-48 -24 c-27 -13 -57 -30 -66 -39 -9 -8 -28 -26 -43 -39 -18 -16 -37 -24 -60
-23 -25 1 -37 -5 -50 -24 -9 -14 -28 -30 -43 -36 -15 -7 -37 -21 -49 -32 -22
-19 -23 -19 -23 0 0 10 9 64 20 119 11 55 27 140 34 188 8 49 16 91 19 93 2 3
16 0 31 -6 35 -13 103 -13 111 0 3 6 18 10 33 10 15 0 43 8 62 19 43 23 50 24
51 9z"/>
<path d="M1656 915 c-15 -40 63 -255 134 -370 13 -21 19 -40 14 -45 -17 -16
-144 -78 -173 -85 -17 -3 -47 -18 -68 -32 -29 -20 -54 -27 -103 -30 -63 -4
-66 -3 -104 33 -50 48 -88 153 -79 216 9 64 6 138 -8 154 -18 22 -63 17 -93
-11 -31 -29 -33 -45 -5 -45 18 0 20 -4 15 -27 -4 -16 -9 -64 -12 -108 -5 -62
-3 -88 10 -115 24 -53 57 -102 105 -158 37 -43 50 -52 89 -58 61 -9 154 9 227
44 224 109 276 132 289 132 62 0 64 65 6 171 -23 41 -49 92 -59 114 -10 22
-26 46 -35 54 -9 7 -16 21 -16 30 0 9 -7 26 -15 36 -8 11 -31 41 -50 68 -37
48 -58 58 -69 32z m209 -355 c3 -5 -1 -10 -9 -10 -9 0 -16 5 -16 10 0 6 4 10
9 10 6 0 13 -4 16 -10z"/>
</g>
</svg>
