<?xml version="1.0" standalone="no"?>
<!DOCTYPE svg PUBLIC "-//W3C//DTD SVG 20010904//EN"
 "http://www.w3.org/TR/2001/REC-SVG-20010904/DTD/svg10.dtd">
<svg version="1.0" xmlns="http://www.w3.org/2000/svg"
 width="207.000000pt" height="205.000000pt" viewBox="0 0 207.000000 205.000000"
 preserveAspectRatio="xMidYMid meet">
<metadata>
Created by potrace 1.16, written by Peter Selinger 2001-2019
</metadata>
<g transform="translate(0.000000,205.000000) scale(0.100000,-0.100000)"
fill="#000000" stroke="none">
<path d="M1273 1901 c-32 -25 -63 -101 -104 -251 -22 -79 -65 -175 -104 -226
-13 -17 -31 -64 -40 -105 -9 -41 -29 -100 -43 -131 l-27 -57 -7 47 c-8 61 1
322 14 392 5 30 18 69 28 85 25 42 32 112 13 130 -8 8 -19 15 -24 15 -19 0
-69 -31 -69 -43 0 -6 -26 -34 -57 -62 -32 -27 -83 -75 -114 -105 -82 -80 -126
-120 -181 -166 l-50 -41 -24 24 c-21 21 -31 24 -62 18 -70 -13 -67 10 -68
-456 -1 -232 1 -433 5 -448 11 -38 37 -38 57 1 21 40 32 152 44 468 13 320 7
293 66 275 16 -5 32 3 64 32 63 57 190 186 190 193 0 3 13 14 30 23 l30 18 -3
-214 -2 -214 -37 -22 c-20 -11 -42 -21 -48 -21 -12 0 -60 -20 -118 -48 -17 -9
-35 -24 -38 -34 -5 -18 11 -58 30 -70 12 -9 68 0 76 12 3 4 40 25 82 48 88 47
87 47 94 -52 6 -89 41 -284 54 -301 4 -5 11 -39 15 -75 8 -83 13 -100 29 -100
8 0 21 10 30 22 16 23 16 23 10 -7 -4 -16 -19 -64 -35 -105 -65 -175 -65 -178
-47 -196 22 -22 39 -9 57 43 28 77 140 314 156 328 6 6 19 37 29 70 10 33 31
85 46 115 15 30 37 76 49 103 11 26 24 47 28 47 13 0 103 87 103 99 0 6 7 11
15 11 8 0 37 28 64 63 27 34 59 70 71 80 16 13 21 26 17 44 -5 25 17 76 125
288 20 39 39 85 43 103 4 18 13 45 20 60 22 42 39 117 32 135 -12 32 -46 17
-109 -46 -71 -71 -108 -97 -108 -74 0 7 9 43 21 80 11 36 19 80 17 98 -3 30
-7 34 -42 42 -46 11 -60 5 -198 -85 -32 -21 -58 -33 -58 -27 0 7 14 38 30 71
32 63 37 92 18 105 -23 14 -64 11 -85 -6z m192 -253 c-14 -40 -40 -97 -56
-127 -16 -30 -29 -60 -29 -67 0 -6 -11 -19 -25 -28 -13 -9 -43 -41 -66 -72
-35 -48 -40 -61 -36 -91 9 -55 -58 -353 -80 -360 -9 -3 -13 26 -15 104 -3 106
-3 108 -30 117 -18 6 -36 5 -58 -4 -31 -13 -32 -15 -26 -59 3 -25 8 -84 12
-131 l6 -85 -32 -23 c-17 -13 -34 -22 -36 -19 -3 3 -10 45 -15 94 -5 48 -12
109 -15 135 -6 44 -4 49 23 72 17 14 36 40 44 58 7 18 26 51 41 72 15 21 40
64 54 95 15 31 39 74 53 96 14 22 28 45 31 51 6 15 128 142 158 167 12 9 26
17 32 17 5 0 13 6 17 13 9 15 66 57 71 52 2 -2 -8 -36 -23 -77z m89 -284 c-63
-188 -108 -267 -174 -309 -50 -31 -53 -31 -47 3 20 102 56 180 97 209 17 12
21 22 16 47 -7 37 -1 46 74 107 30 24 57 48 59 52 1 5 5 6 7 4 3 -2 -12 -53
-32 -113z m-460 -686 c-27 -87 -67 -188 -73 -188 -3 0 -6 50 -6 111 l-1 111
26 -6 c14 -2 32 -1 40 5 26 16 28 10 14 -33z"/>
<path d="M1896 801 c-3 -5 -10 -37 -15 -72 -5 -35 -19 -89 -30 -120 -12 -31
-26 -92 -31 -135 -5 -44 -12 -87 -15 -96 -11 -28 -172 -67 -285 -70 -120 -3
-131 10 -146 170 -6 60 -3 91 16 166 27 106 23 146 -14 146 -27 0 -83 -58 -90
-93 -29 -150 -30 -167 -11 -283 15 -93 24 -123 47 -153 39 -54 88 -75 167 -73
86 2 354 65 383 89 20 17 48 101 53 157 2 23 12 77 23 121 33 134 31 187 -11
233 -22 24 -33 27 -41 13z"/>
<path d="M778 653 c-25 -21 -94 -76 -153 -123 -226 -180 -265 -228 -213 -264
36 -26 60 -18 113 34 28 28 61 61 74 73 125 114 254 267 249 293 -5 29 -21 26
-70 -13z"/>
</g>
</svg>
