<?xml version="1.0" standalone="no"?>
<!DOCTYPE svg PUBLIC "-//W3C//DTD SVG 20010904//EN"
 "http://www.w3.org/TR/2001/REC-SVG-20010904/DTD/svg10.dtd">
<svg version="1.0" xmlns="http://www.w3.org/2000/svg"
 width="208.000000pt" height="204.000000pt" viewBox="0 0 208.000000 204.000000"
 preserveAspectRatio="xMidYMid meet">
<metadata>
Created by potrace 1.16, written by Peter Selinger 2001-2019
</metadata>
<g transform="translate(0.000000,204.000000) scale(0.100000,-0.100000)"
fill="#000000" stroke="none">
<path d="M1155 2001 c-27 -22 -67 -49 -87 -60 -37 -20 -65 -41 -100 -73 -10
-10 -22 -18 -27 -18 -5 0 -14 -7 -21 -15 -7 -8 -31 -24 -54 -35 -22 -10 -61
-31 -86 -45 -28 -16 -53 -23 -65 -20 -59 18 -83 16 -104 -11 -28 -35 -27 -62
8 -180 17 -54 35 -148 41 -209 16 -153 15 -150 32 -153 9 -2 23 12 34 35 16
33 19 62 19 214 l0 176 31 27 c18 14 37 26 43 26 10 0 37 15 133 75 9 6 51 37
93 70 138 107 190 143 198 138 5 -3 6 -33 2 -67 -3 -33 -7 -81 -7 -106 -1 -69
-5 -79 -37 -78 -16 1 -35 -4 -42 -11 -34 -28 -100 -67 -169 -99 -117 -54 -180
-98 -180 -124 0 -29 9 -41 41 -55 22 -9 30 -7 64 18 21 16 42 29 47 29 13 0
108 57 158 95 25 19 59 43 77 54 28 17 32 18 38 4 7 -19 -13 -83 -25 -83 -5 0
-15 -6 -22 -13 -7 -7 -39 -29 -70 -50 -31 -21 -60 -42 -63 -47 -8 -14 -86 -64
-120 -78 -17 -7 -43 -26 -59 -42 -15 -17 -32 -30 -37 -30 -15 0 -41 -61 -35
-85 7 -27 57 -41 86 -22 17 10 23 8 42 -11 l23 -23 -29 -22 c-16 -12 -61 -43
-100 -69 -128 -86 -138 -93 -181 -134 -52 -50 -63 -78 -39 -105 9 -10 27 -19
39 -19 22 0 86 45 111 78 13 16 13 16 14 -3 0 -11 -14 -58 -30 -105 -17 -47
-44 -121 -59 -165 -30 -86 -106 -241 -128 -263 -7 -7 -13 -17 -13 -21 0 -13
24 -31 40 -31 15 0 56 41 79 79 7 10 40 14 132 16 157 3 239 13 261 32 9 8 20
29 24 47 4 17 15 46 25 65 27 50 33 114 19 181 -14 64 -36 81 -75 56 -11 -7
-37 -19 -58 -26 -21 -6 -68 -32 -104 -56 -36 -24 -68 -42 -71 -39 -3 2 9 35
25 72 17 38 36 86 43 108 20 67 68 160 104 201 l34 39 41 -40 c23 -21 41 -44
41 -50 0 -7 9 -20 21 -31 29 -26 199 -262 199 -276 0 -23 -113 -284 -131 -304
-20 -21 -59 -92 -59 -106 0 -4 13 -8 30 -8 32 0 57 22 98 85 14 22 31 45 38
52 6 7 22 29 34 50 65 110 92 135 106 98 4 -8 29 -33 56 -55 80 -64 153 -53
146 21 -2 26 -9 34 -31 40 -15 4 -41 19 -59 34 -32 27 -88 99 -88 112 0 5 16
39 35 77 19 39 35 78 35 87 0 19 54 173 70 201 13 22 13 59 0 92 -19 51 -92
28 -106 -32 -3 -15 -14 -45 -24 -67 -10 -22 -21 -56 -25 -75 -9 -47 -55 -170
-63 -169 -9 0 -104 116 -127 154 -10 17 -30 42 -43 57 -14 15 -30 36 -36 47
-52 92 -57 104 -47 114 7 7 16 6 27 -4 14 -12 19 -10 36 10 15 20 18 38 16
100 -1 42 -7 88 -14 102 -12 24 -11 29 11 49 14 13 34 24 45 25 11 1 38 18 61
38 34 31 40 41 33 60 -16 40 -9 335 10 405 9 35 16 75 16 88 0 23 -2 24 -82
24 -81 0 -84 -1 -133 -39z m-72 -793 c-17 -20 -18 -20 -35 2 -16 20 -16 23 10
59 l27 38 8 -39 c7 -32 5 -44 -10 -60z m-73 -614 c0 -4 -9 -33 -21 -65 -15
-40 -27 -59 -43 -63 -44 -12 -50 -5 -18 21 28 21 33 31 28 54 -4 22 0 32 17
44 23 16 37 19 37 9z m-243 -151 c2 -6 -5 -13 -17 -16 -12 -3 -20 0 -20 7 0
26 29 33 37 9z"/>
</g>
</svg>
