<?xml version="1.0" standalone="no"?>
<!DOCTYPE svg PUBLIC "-//W3C//DTD SVG 20010904//EN"
 "http://www.w3.org/TR/2001/REC-SVG-20010904/DTD/svg10.dtd">
<svg version="1.0" xmlns="http://www.w3.org/2000/svg"
 width="207.000000pt" height="205.000000pt" viewBox="0 0 207.000000 205.000000"
 preserveAspectRatio="xMidYMid meet">
<metadata>
Created by potrace 1.16, written by Peter Selinger 2001-2019
</metadata>
<g transform="translate(0.000000,205.000000) scale(0.100000,-0.100000)"
fill="#000000" stroke="none">
<path d="M998 2020 c-20 -16 -46 -34 -59 -40 -58 -25 -261 -168 -291 -204 -61
-75 -57 -130 10 -124 28 2 41 10 57 34 11 18 43 49 72 70 29 21 54 43 57 49 2
7 22 21 43 31 21 11 60 33 87 49 l49 29 -6 -33 c-4 -19 -7 -53 -7 -78 0 -26
-4 -42 -10 -38 -11 7 -66 -20 -77 -38 -10 -16 -107 -79 -150 -98 -18 -8 -33
-17 -33 -20 0 -4 -18 -18 -40 -33 -29 -19 -40 -33 -40 -51 0 -49 66 -59 124
-20 20 14 40 25 44 25 4 0 30 22 57 50 53 52 112 94 118 82 2 -4 1 -31 -1 -60
-3 -46 -8 -55 -29 -63 -14 -5 -37 -18 -52 -28 -14 -10 -37 -22 -51 -26 -14 -4
-32 -14 -41 -21 -8 -8 -33 -24 -55 -36 -73 -41 -148 -88 -199 -124 l-49 -35
-9 23 c-12 33 -7 276 7 317 6 19 2 29 -25 57 -40 41 -60 42 -98 7 -29 -28 -29
-29 -20 -93 5 -36 13 -110 19 -165 5 -55 14 -115 20 -134 5 -19 8 -36 6 -39
-4 -3 32 -63 54 -89 14 -17 77 -17 87 0 4 6 26 25 48 42 22 16 45 35 50 41 12
15 96 67 100 62 24 -25 -15 -97 -86 -159 -34 -30 -75 -67 -93 -84 -83 -79
-152 -135 -167 -135 -32 0 -124 -107 -114 -133 11 -27 63 -29 98 -4 18 12 34
24 37 27 3 3 17 11 32 19 14 7 41 27 60 44 18 18 48 39 66 49 32 18 32 18 32
-5 0 -12 -9 -40 -20 -62 -11 -22 -20 -47 -20 -55 0 -16 -92 -203 -110 -225 -4
-5 -25 -43 -44 -82 -20 -40 -41 -73 -46 -73 -6 0 -10 -8 -10 -17 0 -10 -9 -29
-20 -43 -11 -14 -20 -29 -20 -35 0 -5 -18 -37 -41 -70 -28 -42 -47 -60 -62
-60 -40 0 -77 -145 -41 -159 42 -16 64 -6 106 50 74 97 108 147 133 194 43 83
45 84 87 55 35 -24 43 -25 125 -20 147 10 201 24 233 63 72 88 77 312 7 312
-25 0 -87 -21 -87 -30 0 -5 -9 -11 -20 -15 -26 -8 -124 -76 -129 -89 -2 -6
-19 -24 -38 -40 -36 -32 -44 -74 -18 -96 8 -7 12 -16 9 -21 -6 -10 -94 -13
-94 -4 0 7 55 108 97 180 38 65 73 142 108 235 28 75 105 262 111 268 5 7 44
-77 68 -150 14 -40 36 -103 50 -141 15 -37 26 -76 26 -87 0 -24 83 -278 105
-319 8 -17 15 -38 15 -48 0 -10 18 -56 41 -102 71 -148 150 -196 219 -134 40
36 40 63 -1 63 -40 0 -80 42 -126 134 -49 98 -75 177 -61 193 42 51 86 147
124 272 45 145 87 239 113 249 7 3 22 0 33 -7 15 -9 23 -9 34 0 21 17 17 40
-13 71 -22 23 -35 28 -73 28 -38 0 -52 -5 -77 -30 -31 -30 -73 -107 -73 -133
0 -8 -9 -43 -19 -78 -11 -35 -31 -106 -45 -157 -14 -51 -30 -100 -35 -110 -13
-23 -24 2 -65 158 -8 30 -24 82 -36 115 -11 33 -26 76 -31 95 -6 19 -16 49
-23 65 -8 17 -19 46 -25 65 -6 19 -19 62 -30 95 -23 70 -31 177 -13 183 7 2
12 12 12 21 0 23 38 57 74 65 l29 7 -27 -31 c-21 -26 -24 -35 -15 -51 6 -11
17 -23 24 -25 8 -3 17 -13 20 -23 2 -9 23 -34 45 -56 21 -22 39 -44 40 -49 0
-4 16 -30 35 -56 19 -26 35 -54 35 -61 0 -32 33 22 37 61 3 34 -2 51 -29 93
-18 29 -44 74 -58 100 -14 26 -40 63 -59 82 -29 31 -32 37 -20 51 8 9 14 38
15 65 0 27 8 59 18 74 12 18 19 56 23 118 3 51 12 108 20 127 8 19 16 65 18
103 l4 67 -57 0 c-49 0 -63 -4 -94 -30z m-173 -1501 c-15 -42 -45 -98 -55
-100 -3 -1 -20 -3 -37 -5 -40 -3 -45 21 -8 38 14 6 25 18 25 27 0 18 59 80 77
80 9 1 9 -9 -2 -40z"/>
</g>
</svg>
