<?xml version="1.0" standalone="no"?>
<!DOCTYPE svg PUBLIC "-//W3C//DTD SVG 20010904//EN"
 "http://www.w3.org/TR/2001/REC-SVG-20010904/DTD/svg10.dtd">
<svg version="1.0" xmlns="http://www.w3.org/2000/svg"
 width="207.000000pt" height="204.000000pt" viewBox="0 0 207.000000 204.000000"
 preserveAspectRatio="xMidYMid meet">
<metadata>
Created by potrace 1.16, written by Peter Selinger 2001-2019
</metadata>
<g transform="translate(0.000000,204.000000) scale(0.100000,-0.100000)"
fill="#000000" stroke="none">
<path d="M1151 1976 c-33 -69 -43 -80 -81 -91 -14 -4 -53 -21 -88 -37 -50 -23
-78 -29 -143 -31 -85 -2 -109 -15 -109 -59 0 -41 85 -80 105 -48 3 6 17 10 29
10 32 0 154 58 165 78 5 9 12 14 16 11 16 -17 -121 -209 -178 -249 -23 -16
-60 -42 -82 -58 -22 -15 -67 -41 -100 -56 -59 -28 -145 -106 -145 -131 0 -8
12 -23 26 -34 30 -24 38 -21 113 36 25 20 65 44 89 54 23 10 62 33 86 51 24
18 65 47 92 63 26 17 67 42 91 57 24 15 54 30 66 33 22 6 23 5 20 -62 -2 -37
-6 -95 -9 -128 l-5 -60 -55 -29 c-63 -33 -79 -28 -64 23 16 57 4 61 -85 28
-47 -17 -56 -47 -30 -97 19 -36 15 -45 -28 -65 -50 -22 -91 -61 -84 -79 15
-38 98 -25 166 26 13 10 39 18 58 18 27 0 35 5 43 25 10 26 30 34 30 12 0 -22
-130 -178 -208 -251 -99 -92 -137 -119 -243 -170 -64 -31 -121 -56 -128 -56
-22 0 -108 -49 -115 -65 -19 -51 4 -89 54 -87 29 1 189 73 262 119 21 13 42
23 48 23 6 0 37 18 69 39 31 22 115 67 187 101 71 34 137 66 146 71 10 5 24 9
31 9 13 0 99 42 122 59 6 5 49 21 98 36 48 15 87 32 87 36 0 5 9 9 20 9 25 0
25 -5 -2 -42 -56 -72 -223 -209 -280 -227 -20 -7 -47 -20 -60 -30 -13 -10 -39
-24 -58 -31 -23 -8 -40 -23 -50 -44 -8 -17 -22 -31 -30 -32 -32 -2 -39 -5 -54
-20 -10 -9 -16 -33 -16 -57 0 -43 -31 -214 -49 -277 -18 -58 9 -97 56 -79 26
9 44 48 62 134 15 70 23 82 60 90 16 3 37 14 47 23 19 18 103 60 160 82 42 15
88 64 81 84 -12 30 -104 10 -201 -42 -27 -14 -95 -41 -105 -42 -2 0 -1 12 2
26 3 15 1 40 -4 57 -8 27 -7 28 9 14 35 -30 60 -30 110 1 26 16 74 44 107 62
33 18 67 39 75 46 47 41 88 74 93 74 7 0 0 -55 -20 -150 -12 -60 -14 -114 -10
-273 7 -207 14 -245 46 -227 10 5 22 17 27 27 4 10 11 110 14 223 6 193 28
367 51 412 5 10 9 28 9 40 0 12 16 50 35 86 20 35 38 84 42 108 6 43 7 45 84
84 44 22 102 44 130 48 53 7 77 27 66 55 -7 20 -79 32 -106 18 -11 -6 -27 -11
-37 -11 -17 0 -232 -82 -329 -125 -27 -12 -77 -32 -110 -43 -33 -11 -92 -37
-131 -56 -39 -20 -86 -39 -105 -42 -19 -4 -43 -11 -53 -17 -11 -5 -3 10 20 37
21 25 41 46 44 46 13 0 80 66 80 78 0 34 112 163 255 293 22 20 67 64 100 98
33 35 72 72 88 83 58 42 13 93 -60 69 -39 -13 -93 -53 -93 -69 0 -9 -20 -28
-119 -119 -77 -70 -128 -113 -135 -113 -15 0 -4 81 20 154 26 76 26 80 8 93
-17 13 -17 14 2 28 10 8 31 18 45 21 14 3 43 21 64 40 21 19 42 34 45 34 4 0
30 23 59 52 37 37 50 56 45 70 -3 10 -9 18 -14 18 -21 0 -105 -43 -138 -70
-20 -17 -41 -30 -47 -30 -6 0 -50 -22 -98 -50 -116 -66 -142 -68 -89 -4 15 18
61 84 102 148 41 63 86 121 100 130 24 15 21 15 -62 16 l-87 0 -30 -64z"/>
<path d="M1204 326 c-77 -39 -153 -81 -168 -93 -16 -13 -34 -23 -40 -23 -19 0
-116 -94 -116 -112 0 -9 7 -24 16 -32 27 -27 68 -19 122 24 27 22 53 40 57 40
5 0 22 15 40 33 18 17 54 43 80 57 26 13 66 41 87 62 22 21 46 37 53 36 13 -3
69 61 61 69 -17 17 -69 1 -192 -61z"/>
</g>
</svg>
