<?xml version="1.0" standalone="no"?>
<!DOCTYPE svg PUBLIC "-//W3C//DTD SVG 20010904//EN"
 "http://www.w3.org/TR/2001/REC-SVG-20010904/DTD/svg10.dtd">
<svg version="1.0" xmlns="http://www.w3.org/2000/svg"
 width="210.000000pt" height="202.000000pt" viewBox="0 0 210.000000 202.000000"
 preserveAspectRatio="xMidYMid meet">
<metadata>
Created by potrace 1.16, written by Peter Selinger 2001-2019
</metadata>
<g transform="translate(0.000000,202.000000) scale(0.100000,-0.100000)"
fill="#000000" stroke="none">
<path d="M1310 2005 c-30 -10 -40 -24 -87 -116 -70 -139 -95 -170 -134 -162
-17 3 -35 0 -44 -7 -24 -20 -111 -17 -135 5 -11 10 -23 15 -27 12 -3 -4 -12
-2 -19 3 -18 16 -83 -18 -90 -47 -10 -36 4 -73 31 -83 13 -5 57 -7 97 -4 56 4
81 11 109 29 19 14 38 25 42 25 14 0 7 -27 -13 -48 -11 -12 -20 -28 -20 -36 0
-19 -13 -26 -129 -66 -52 -17 -111 -40 -130 -51 -20 -10 -40 -19 -45 -19 -5 0
-23 -11 -41 -24 -17 -13 -47 -31 -66 -39 -32 -13 -89 -74 -89 -95 0 -5 9 -17
19 -26 26 -23 70 -11 147 42 66 44 210 112 239 112 1 0 5 -26 8 -57 3 -32 8
-67 12 -78 5 -18 -1 -23 -42 -37 -26 -9 -75 -22 -108 -28 -33 -7 -70 -14 -82
-16 -12 -2 -27 -13 -33 -24 -8 -16 -6 -24 11 -41 17 -17 28 -20 57 -15 21 4
46 8 57 10 11 2 27 6 35 9 44 18 107 37 121 37 9 0 22 -6 28 -14 10 -12 5 -23
-26 -57 -21 -24 -56 -59 -77 -79 -21 -19 -48 -45 -60 -58 -22 -24 -147 -92
-170 -92 -7 0 -20 -7 -27 -17 -8 -9 -30 -23 -49 -31 -56 -23 -160 -104 -166
-129 -5 -17 1 -29 17 -43 32 -26 61 -25 96 3 15 13 122 69 238 126 273 134
261 128 330 150 33 11 105 36 160 56 55 20 107 38 115 40 22 5 102 31 123 40
35 14 16 -13 -39 -56 -31 -24 -70 -56 -87 -71 -18 -15 -39 -28 -48 -28 -9 0
-22 -7 -29 -15 -7 -8 -18 -15 -24 -15 -6 0 -28 -14 -48 -31 -21 -16 -66 -43
-100 -59 -35 -16 -83 -47 -107 -69 -24 -23 -48 -41 -53 -41 -5 0 -8 -12 -6
-27 2 -19 12 -32 32 -42 33 -15 36 -14 146 59 41 27 89 58 105 69 47 31 94 64
126 90 33 26 66 22 54 -7 -4 -9 -10 -44 -12 -77 -6 -92 -10 -105 -36 -105 -12
0 -48 -18 -81 -40 -32 -22 -68 -40 -80 -40 -11 0 -30 -7 -40 -15 -11 -8 -27
-15 -36 -15 -10 0 -38 -11 -63 -24 -25 -14 -65 -30 -88 -37 -52 -16 -68 -46
-44 -83 30 -45 53 -43 172 18 59 30 124 62 143 70 19 8 55 33 80 56 24 22 49
39 54 37 5 -2 11 -47 13 -100 2 -86 0 -98 -15 -103 -38 -12 -127 -59 -153 -81
-15 -13 -51 -34 -81 -48 -29 -13 -93 -47 -143 -74 -90 -48 -90 -49 -89 -87 2
-41 26 -68 55 -59 35 12 270 171 321 218 44 41 80 67 93 67 17 0 27 -138 11
-162 -15 -25 3 -52 37 -56 21 -3 31 4 47 30 19 31 20 50 20 314 0 291 5 340
46 483 28 97 30 134 9 151 -21 17 -12 23 69 50 58 19 75 21 105 12 51 -16 81
5 81 57 0 43 -10 51 -68 51 -39 0 -256 -51 -288 -68 -10 -5 -37 -12 -59 -16
-22 -4 -64 -16 -93 -27 -82 -30 -91 -27 -85 24 9 77 22 100 76 139 29 21 84
68 122 104 39 37 88 78 110 92 22 13 64 45 93 70 l53 45 -22 23 c-12 13 -29
24 -37 24 -32 0 -169 -77 -213 -120 -81 -78 -141 -130 -148 -126 -11 7 5 164
19 181 7 9 33 25 57 36 23 11 43 24 43 29 0 6 6 10 13 10 8 0 35 14 60 31 38
25 47 36 47 60 0 17 -6 32 -15 35 -14 6 -63 -14 -125 -50 -14 -8 -50 -27 -80
-41 -30 -15 -74 -39 -97 -52 -58 -34 -54 -14 10 53 28 31 69 74 90 96 21 22
45 54 54 72 9 17 24 42 34 55 24 30 25 83 2 97 -13 8 -27 8 -53 -1z m-175
-586 c8 -92 3 -103 -57 -113 -35 -6 -38 -5 -38 16 0 13 11 44 25 70 14 26 25
55 25 66 0 18 18 42 31 42 4 0 10 -36 14 -81z m-7 -335 c-2 -23 -11 -30 -46
-42 -24 -8 -46 -11 -50 -8 -3 4 14 27 38 51 46 47 64 47 58 -1z m-298 -184 c0
-5 -7 -10 -16 -10 -8 0 -12 5 -9 10 3 6 10 10 16 10 5 0 9 -4 9 -10z"/>
<path d="M845 597 c-11 -6 -27 -13 -35 -17 -11 -6 -15 -24 -14 -76 2 -113 20
-304 30 -314 14 -14 48 -2 63 21 7 13 14 74 17 157 4 88 11 147 20 166 22 45
18 56 -20 56 -19 0 -36 4 -38 9 -1 5 -12 4 -23 -2z"/>
</g>
</svg>
