<?xml version="1.0" standalone="no"?>
<!DOCTYPE svg PUBLIC "-//W3C//DTD SVG 20010904//EN"
 "http://www.w3.org/TR/2001/REC-SVG-20010904/DTD/svg10.dtd">
<svg version="1.0" xmlns="http://www.w3.org/2000/svg"
 width="207.000000pt" height="207.000000pt" viewBox="0 0 207.000000 207.000000"
 preserveAspectRatio="xMidYMid meet">
<metadata>
Created by potrace 1.16, written by Peter Selinger 2001-2019
</metadata>
<g transform="translate(0.000000,207.000000) scale(0.100000,-0.100000)"
fill="#000000" stroke="none">
<path d="M442 1937 c-14 -15 -22 -36 -22 -59 0 -60 -39 -263 -64 -335 -13 -37
-43 -122 -65 -188 -61 -176 -60 -175 -88 -245 -35 -93 -35 -93 -19 -115 14
-19 14 -19 35 5 12 14 29 41 38 60 9 19 29 54 44 76 16 23 38 70 50 105 12 35
25 69 29 74 3 6 26 62 50 126 40 107 45 116 62 105 16 -9 24 -6 48 22 17 17
33 32 37 32 5 0 31 18 59 39 45 34 114 70 207 109 29 12 39 55 14 65 -20 8
-99 -9 -149 -32 -23 -11 -63 -25 -88 -32 -25 -7 -50 -16 -57 -21 -20 -16 -24
10 -8 57 18 54 18 59 4 107 -7 26 -19 43 -39 53 -39 20 -53 19 -78 -8z"/>
<path d="M1154 1845 c-38 -17 -84 -70 -84 -96 0 -38 79 -49 112 -16 7 8 28 16
46 20 31 6 32 5 32 -26 0 -62 -90 -187 -157 -219 -34 -16 -41 -43 -17 -69 28
-31 55 -23 102 29 60 65 147 204 161 255 14 53 3 98 -30 114 -41 19 -130 24
-165 8z"/>
<path d="M909 1685 c-28 -15 -44 -52 -30 -69 10 -13 61 -224 61 -253 0 -11 8
-31 18 -43 16 -20 21 -21 40 -9 29 18 37 88 23 208 -6 56 -7 100 -1 110 10 20
4 31 -32 54 -33 20 -45 21 -79 2z"/>
<path d="M632 1530 c-12 -5 -25 -18 -28 -27 -4 -10 -14 -36 -24 -58 -10 -22
-21 -66 -25 -97 -6 -57 -7 -58 -63 -95 -83 -55 -202 -178 -202 -208 0 -27 29
-49 64 -50 30 -1 42 5 66 32 35 39 40 41 40 9 0 -25 -53 -204 -72 -243 -6 -11
-8 -27 -6 -34 6 -18 50 30 74 79 18 38 64 113 75 122 3 3 11 15 18 28 10 18
18 22 39 17 15 -3 62 -7 105 -10 44 -2 81 -6 83 -8 3 -2 -9 -30 -26 -62 -27
-52 -29 -60 -17 -79 8 -12 27 -22 45 -24 27 -3 35 2 57 39 44 69 106 130 125
124 27 -8 81 26 104 67 25 42 61 88 70 88 4 0 33 27 65 59 32 33 68 64 80 71
22 11 22 11 14 -52 -20 -156 -5 -504 32 -730 4 -25 1 -28 -23 -28 -15 0 -47 9
-71 20 -24 11 -47 20 -52 20 -5 0 -18 8 -28 17 -22 19 -115 56 -203 81 -99 28
-86 59 50 116 114 49 116 49 108 -19 -7 -63 7 -74 30 -22 8 17 26 47 39 66 14
19 25 40 25 48 0 27 -47 63 -82 63 -38 0 -149 -25 -175 -39 -10 -5 -38 -19
-63 -30 -54 -24 -120 -86 -120 -111 0 -22 44 -58 79 -66 50 -10 114 -37 170
-70 31 -18 77 -45 104 -60 26 -15 47 -31 47 -35 0 -20 -222 -120 -236 -106 -3
3 3 18 14 34 21 29 37 83 26 83 -4 0 -50 -43 -101 -95 -52 -52 -98 -95 -102
-95 -4 0 -22 -13 -39 -28 -42 -38 -42 -72 -1 -96 34 -20 59 -14 134 33 22 14
74 43 115 64 41 22 84 48 95 57 11 10 55 39 98 64 l77 46 53 -19 c28 -11 67
-22 84 -26 29 -6 34 -4 44 22 20 51 21 98 5 162 -10 38 -21 151 -28 280 -12
233 -4 373 26 466 38 114 38 115 26 145 -14 34 -41 46 -69 31 -11 -6 -48 -36
-83 -66 -34 -30 -68 -55 -75 -55 -6 0 -22 -13 -36 -30 -27 -32 -110 -96 -236
-184 -75 -53 -78 -54 -122 -45 -24 6 -62 12 -84 15 -84 10 -145 27 -145 42 0
7 9 25 20 39 11 14 20 31 20 37 0 11 143 122 188 145 13 7 22 21 22 36 0 36
-39 42 -100 16 -27 -11 -51 -21 -54 -21 -14 0 -4 60 14 83 26 33 25 46 -6 57
-30 12 -42 12 -72 0z"/>
<path d="M567 829 l-27 -21 1 -168 c0 -93 -3 -185 -7 -204 -14 -80 22 -111 71
-62 24 25 29 51 40 211 2 44 7 110 11 147 6 62 5 68 -19 92 -31 31 -34 31 -70
5z"/>
</g>
</svg>
