<?xml version="1.0" standalone="no"?>
<!DOCTYPE svg PUBLIC "-//W3C//DTD SVG 20010904//EN"
 "http://www.w3.org/TR/2001/REC-SVG-20010904/DTD/svg10.dtd">
<svg version="1.0" xmlns="http://www.w3.org/2000/svg"
 width="210.000000pt" height="215.000000pt" viewBox="0 0 210.000000 215.000000"
 preserveAspectRatio="xMidYMid meet">
<metadata>
Created by potrace 1.16, written by Peter Selinger 2001-2019
</metadata>
<g transform="translate(0.000000,215.000000) scale(0.100000,-0.100000)"
fill="#000000" stroke="none">
<path d="M870 2110 c-25 -22 -64 -49 -86 -59 -23 -11 -48 -26 -56 -34 -8 -8
-30 -22 -48 -32 -19 -10 -41 -22 -48 -28 -7 -6 -35 -11 -62 -11 -56 -1 -83
-24 -77 -66 16 -109 84 -318 109 -334 35 -22 42 5 32 119 -5 58 -6 105 -2 105
5 0 8 -4 8 -8 0 -5 10 -13 22 -19 31 -13 69 2 148 58 36 26 81 55 100 66 93
51 100 58 100 86 0 17 -7 30 -17 34 -20 8 -90 -10 -146 -37 -59 -29 -57 -17 5
23 29 19 64 46 77 61 14 14 29 26 36 26 6 0 33 20 60 45 l50 44 -80 1 c-79 0
-80 0 -125 -40z m-212 -252 c-2 -6 -10 -14 -16 -16 -7 -2 -10 2 -6 12 7 18 28
22 22 4z"/>
<path d="M1126 2103 c-3 -27 -8 -113 -11 -193 -3 -80 -8 -178 -11 -218 l-7
-74 -81 -60 c-45 -33 -99 -69 -121 -80 -22 -12 -53 -31 -70 -43 -16 -12 -42
-25 -57 -29 -16 -3 -28 -10 -28 -15 0 -5 -24 -21 -52 -35 -29 -15 -71 -37 -92
-50 -22 -13 -69 -34 -105 -46 -151 -50 -204 -99 -170 -158 21 -39 57 -39 103
-3 21 17 47 33 59 37 12 4 55 22 96 41 50 23 78 30 84 24 16 -16 20 -112 8
-172 -10 -47 -21 -64 -82 -128 -86 -90 -93 -117 -37 -144 34 -17 36 -20 27
-45 -6 -14 -9 -38 -8 -52 3 -29 -16 -70 -34 -70 -15 0 -137 -125 -137 -140 0
-6 14 -24 32 -40 l32 -29 38 21 c21 12 66 52 99 88 69 75 65 71 144 148 33 32
66 66 73 76 14 18 34 13 27 -7 -3 -7 -9 -84 -16 -172 -6 -88 -14 -187 -19
-220 -17 -111 -17 -110 6 -113 28 -4 48 22 72 93 20 60 27 104 37 245 3 41 13
134 21 205 14 116 16 208 13 480 0 83 -16 125 -45 125 -21 0 -3 18 56 54 25
15 63 41 85 57 22 16 57 39 79 50 21 11 54 36 73 55 19 20 60 49 91 66 70 37
82 47 92 73 21 56 -31 60 -131 10 l-70 -36 7 36 c3 20 14 126 23 236 l16 199
-51 0 -52 0 -6 -47z m-282 -818 c9 -35 0 -48 -26 -34 -11 6 -33 9 -49 7 -41
-6 -36 7 14 31 53 26 54 26 61 -4z m0 -136 c11 -55 7 -68 -25 -84 -37 -20 -43
-16 -29 19 5 15 10 37 10 50 0 21 17 46 31 46 3 0 9 -14 13 -31z m-7 -302
c-12 -10 -49 -41 -81 -70 l-59 -51 6 45 c11 84 46 143 124 209 17 14 18 11 25
-50 7 -60 6 -66 -15 -83z"/>
<path d="M930 1792 c-19 -11 -57 -27 -85 -37 -68 -25 -115 -61 -115 -88 1 -57
51 -68 117 -27 26 16 71 41 100 56 70 36 93 62 82 92 -11 28 -50 29 -99 4z"/>
<path d="M1547 1575 c-22 -7 -48 -22 -58 -32 -11 -10 -50 -46 -87 -81 -168
-157 -249 -242 -279 -293 -47 -78 -43 -118 13 -131 29 -7 35 -2 73 67 36 65
113 160 174 214 36 33 37 33 28 8 -6 -14 -21 -43 -34 -64 -40 -64 -97 -195
-97 -224 0 -11 -4 -27 -9 -37 -5 -9 -17 -36 -26 -59 -10 -24 -20 -43 -23 -43
-2 0 -22 16 -43 35 -45 41 -84 45 -118 14 -34 -32 -26 -48 67 -141 l47 -47
-23 -83 c-12 -46 -31 -117 -43 -158 -28 -99 -30 -193 -6 -217 16 -16 20 -17
45 -3 21 13 29 26 35 65 20 129 70 295 89 295 5 0 26 -16 46 -36 20 -20 52
-43 71 -51 19 -8 64 -38 100 -66 76 -60 146 -107 160 -107 5 0 11 -5 13 -10 5
-16 139 -60 185 -60 49 0 81 24 62 46 -6 8 -16 14 -21 14 -5 0 -28 9 -50 20
-23 11 -47 20 -54 20 -7 0 -33 16 -58 35 -26 19 -50 35 -54 35 -5 0 -27 17
-49 38 -22 20 -71 57 -108 82 -108 72 -211 179 -202 209 61 200 127 349 208
468 16 23 29 45 29 49 0 4 15 37 34 73 41 80 51 123 36 150 -12 24 -21 25 -73
6z"/>
</g>
</svg>
