<?xml version="1.0" standalone="no"?>
<!DOCTYPE svg PUBLIC "-//W3C//DTD SVG 20010904//EN"
 "http://www.w3.org/TR/2001/REC-SVG-20010904/DTD/svg10.dtd">
<svg version="1.0" xmlns="http://www.w3.org/2000/svg"
 width="210.000000pt" height="208.000000pt" viewBox="0 0 210.000000 208.000000"
 preserveAspectRatio="xMidYMid meet">
<metadata>
Created by potrace 1.16, written by Peter Selinger 2001-2019
</metadata>
<g transform="translate(0.000000,208.000000) scale(0.100000,-0.100000)"
fill="#000000" stroke="none">
<path d="M1363 2056 c-26 -22 -151 -100 -246 -155 -23 -13 -67 -40 -97 -59
-80 -53 -137 -82 -144 -75 -3 4 -6 30 -6 59 0 56 -14 100 -35 108 -7 2 -23 -1
-36 -8 -22 -11 -24 -18 -25 -91 -2 -137 -3 -139 -129 -217 -27 -17 -83 -48
-123 -69 -66 -35 -127 -76 -160 -106 -7 -7 -18 -13 -23 -13 -5 0 -9 -8 -9 -18
0 -10 -7 -27 -15 -38 -8 -10 -15 -26 -15 -34 0 -21 55 -80 74 -80 9 0 32 26
52 58 20 31 53 70 74 85 55 39 162 98 168 93 7 -8 -12 -54 -84 -201 -34 -71
-77 -165 -95 -207 -22 -52 -43 -86 -66 -104 -18 -14 -33 -30 -33 -35 0 -4 -26
-34 -57 -66 -148 -149 -211 -272 -154 -303 29 -15 34 -13 80 23 39 31 64 62
148 187 117 173 204 273 221 256 5 -5 -17 -296 -24 -307 -2 -3 -8 -37 -14 -75
-6 -38 -20 -88 -32 -112 -23 -48 -16 -65 22 -54 62 18 93 64 109 162 22 143
40 285 44 360 6 99 -9 130 -65 130 -40 0 -36 24 21 132 27 51 64 134 81 184
36 103 85 163 166 203 43 21 114 71 152 108 7 7 18 13 23 13 10 0 70 42 97 68
7 6 19 12 26 12 7 0 23 12 37 26 13 14 37 32 52 40 15 9 46 32 68 54 35 34 38
41 29 64 -12 32 -21 32 -57 2z"/>
<path d="M1372 1773 c-158 -153 -227 -214 -278 -246 -24 -15 -44 -31 -44 -35
0 -4 -40 -42 -89 -83 -126 -104 -159 -178 -93 -209 23 -10 29 -9 45 12 50 63
241 248 255 248 14 0 82 72 82 87 0 7 6 13 13 13 8 0 19 10 26 23 11 21 70 62
78 54 2 -2 -3 -33 -11 -68 -24 -104 -49 -432 -42 -540 8 -111 14 -101 -96
-157 -41 -22 -97 -54 -122 -72 -51 -34 -64 -35 -46 -1 6 12 13 50 17 85 5 60
4 66 -22 91 -25 26 -31 27 -90 22 -69 -7 -139 -36 -149 -62 -15 -39 -6 -61 29
-78 46 -22 52 -22 87 8 38 32 62 33 52 3 -10 -34 -77 -138 -126 -198 -33 -41
-35 -63 -8 -90 20 -20 80 -28 80 -10 0 5 17 18 39 29 l38 20 81 -78 c55 -52
97 -84 129 -96 44 -17 126 -58 171 -86 28 -17 51 -5 68 37 14 33 14 59 -2 263
-18 247 -23 540 -12 696 13 176 38 286 94 416 36 84 30 109 -25 109 -10 0 -68
-48 -129 -107z m-48 -990 c4 -43 12 -122 18 -176 13 -121 9 -128 -59 -100 -26
11 -60 23 -74 27 -15 3 -54 26 -87 50 l-61 45 26 46 c14 26 33 49 42 53 9 3
52 34 96 69 44 34 83 63 87 63 3 0 9 -35 12 -77z"/>
</g>
</svg>
