<?xml version="1.0" standalone="no"?>
<!DOCTYPE svg PUBLIC "-//W3C//DTD SVG 20010904//EN"
 "http://www.w3.org/TR/2001/REC-SVG-20010904/DTD/svg10.dtd">
<svg version="1.0" xmlns="http://www.w3.org/2000/svg"
 width="206.000000pt" height="207.000000pt" viewBox="0 0 206.000000 207.000000"
 preserveAspectRatio="xMidYMid meet">
<metadata>
Created by potrace 1.16, written by Peter Selinger 2001-2019
</metadata>
<g transform="translate(0.000000,207.000000) scale(0.100000,-0.100000)"
fill="#000000" stroke="none">
<path d="M927 1813 c-26 -7 -49 -57 -38 -85 4 -13 9 -48 9 -78 1 -30 5 -78 8
-107 6 -51 5 -53 -22 -65 -16 -7 -48 -25 -71 -40 -23 -15 -49 -28 -58 -28 -9
0 -25 -9 -37 -20 -12 -11 -27 -20 -34 -20 -23 0 -232 -110 -238 -125 -11 -30
5 -47 40 -42 19 3 37 1 40 -5 10 -16 64 -1 127 37 32 19 64 35 70 35 7 0 23 9
37 20 14 11 31 20 39 20 8 0 29 11 47 25 60 46 64 40 64 -99 l0 -124 -37 -7
c-46 -8 -113 -74 -113 -109 0 -26 -100 -234 -135 -281 -12 -16 -37 -59 -55
-95 -18 -36 -41 -76 -51 -89 -21 -26 -25 -51 -9 -51 19 0 91 51 97 68 9 24 93
133 119 154 12 10 41 57 65 105 23 49 44 90 45 91 1 2 12 1 23 -3 20 -6 21
-13 21 -173 0 -172 -11 -262 -38 -322 -31 -68 -5 -134 52 -128 26 3 32 9 44
48 21 73 44 286 43 409 0 66 4 120 10 127 8 10 25 5 77 -22 92 -48 355 -112
466 -115 87 -2 106 3 106 26 0 24 -41 42 -124 55 -44 7 -87 16 -95 20 -16 9
-98 41 -206 81 -33 12 -67 27 -75 34 -22 19 -89 45 -116 45 -24 0 -24 1 -18
83 3 45 7 134 8 197 3 163 12 183 114 240 113 64 165 126 146 174 -11 28 -47
17 -133 -40 -93 -61 -122 -65 -96 -13 15 28 15 33 1 54 -9 14 -16 31 -16 39 0
33 -62 112 -82 105 -2 -1 -11 -3 -21 -6z m-27 -841 c0 -14 -39 -46 -47 -39 -3
4 2 16 12 27 19 21 35 26 35 12z"/>
</g>
</svg>
