<?xml version="1.0" standalone="no"?>
<!DOCTYPE svg PUBLIC "-//W3C//DTD SVG 20010904//EN"
 "http://www.w3.org/TR/2001/REC-SVG-20010904/DTD/svg10.dtd">
<svg version="1.0" xmlns="http://www.w3.org/2000/svg"
 width="206.000000pt" height="207.000000pt" viewBox="0 0 206.000000 207.000000"
 preserveAspectRatio="xMidYMid meet">
<metadata>
Created by potrace 1.16, written by Peter Selinger 2001-2019
</metadata>
<g transform="translate(0.000000,207.000000) scale(0.100000,-0.100000)"
fill="#000000" stroke="none">
<path d="M893 2020 c-32 -13 -37 -40 -37 -228 l-1 -174 -85 -45 c-47 -24 -96
-55 -110 -68 -33 -30 -186 -135 -198 -135 -18 0 -43 -38 -49 -74 -7 -43 16
-76 54 -76 32 0 63 17 63 35 0 16 78 85 97 85 8 0 30 15 49 33 56 53 67 61
104 81 19 10 38 24 42 30 5 8 10 8 18 0 8 -8 8 -41 1 -115 -6 -57 -11 -133
-12 -169 -1 -54 -6 -69 -26 -90 -47 -49 -104 -125 -110 -149 -3 -14 -21 -45
-40 -69 -18 -24 -33 -52 -33 -61 0 -10 -10 -29 -22 -43 -13 -13 -42 -49 -65
-80 -23 -30 -72 -89 -110 -129 -38 -41 -79 -89 -92 -107 -13 -18 -34 -37 -47
-42 -28 -11 -33 -47 -8 -57 9 -3 29 2 46 11 37 23 338 319 338 334 0 6 14 27
30 46 17 18 37 50 45 69 8 20 24 41 34 47 11 5 23 19 26 30 4 11 11 18 16 15
14 -9 7 -391 -8 -406 -8 -8 -13 2 -18 45 -4 31 -11 56 -15 56 -13 0 -23 -125
-16 -193 9 -72 34 -107 77 -107 55 0 80 102 88 367 3 105 9 194 13 198 3 4 33
-7 65 -24 32 -17 68 -31 79 -31 12 0 37 -6 55 -14 19 -7 63 -17 99 -20 36 -4
81 -11 100 -16 20 -5 62 -11 95 -13 80 -5 125 20 125 68 0 38 -18 47 -62 32
-17 -5 -47 -5 -80 2 -29 6 -71 13 -93 17 -38 5 -96 21 -175 46 -19 6 -43 12
-53 13 -10 1 -22 6 -25 11 -20 28 -122 47 -122 22 0 -6 -3 -8 -6 -5 -8 8 -6
160 6 344 7 118 14 155 36 213 30 75 47 91 164 153 30 15 69 39 85 51 17 12
38 25 48 29 33 12 17 51 -25 61 -36 9 -49 6 -98 -23 -8 -5 -31 -16 -50 -25
-19 -9 -46 -25 -60 -36 -14 -11 -36 -21 -50 -22 -24 -3 -25 -1 -27 64 -1 37 2
70 7 73 6 4 10 14 10 24 0 10 9 30 21 45 29 37 19 68 -29 89 -43 19 -48 19
-79 7z"/>
</g>
</svg>
