<?xml version="1.0" standalone="no"?>
<!DOCTYPE svg PUBLIC "-//W3C//DTD SVG 20010904//EN"
 "http://www.w3.org/TR/2001/REC-SVG-20010904/DTD/svg10.dtd">
<svg version="1.0" xmlns="http://www.w3.org/2000/svg"
 width="208.000000pt" height="208.000000pt" viewBox="0 0 208.000000 208.000000"
 preserveAspectRatio="xMidYMid meet">
<metadata>
Created by potrace 1.16, written by Peter Selinger 2001-2019
</metadata>
<g transform="translate(0.000000,208.000000) scale(0.100000,-0.100000)"
fill="#000000" stroke="none">
<path d="M1230 1683 c-63 -11 -60 -68 7 -129 l44 -42 -58 -35 c-154 -92 -203
-107 -203 -63 0 14 4 27 9 30 5 3 11 23 14 43 3 21 8 49 12 63 5 20 -1 35 -27
67 -37 46 -65 54 -92 24 -15 -16 -19 -46 -23 -178 -5 -176 -9 -189 -70 -220
-91 -47 -139 -76 -158 -93 -11 -10 -52 -35 -92 -55 -87 -44 -133 -92 -133
-139 0 -62 72 -88 100 -37 16 32 304 230 316 218 3 -3 0 -38 -7 -77 -11 -62
-16 -73 -40 -86 -16 -8 -38 -14 -50 -14 -34 0 -198 -179 -235 -255 -8 -18 -31
-51 -50 -73 -19 -22 -34 -45 -34 -51 0 -5 -34 -44 -75 -86 -41 -42 -75 -79
-75 -81 0 -13 50 -1 65 16 10 11 23 20 29 20 16 0 131 116 259 260 62 69 116
125 121 125 14 0 47 -49 48 -71 1 -33 -21 -244 -27 -253 -2 -5 -9 -42 -15 -82
-6 -41 -15 -78 -20 -83 -14 -14 -12 -80 2 -94 7 -7 24 -12 40 -12 21 0 31 8
44 31 15 30 42 168 64 333 6 38 12 71 14 74 3 2 36 -3 75 -12 82 -19 228 -21
354 -5 75 10 91 15 104 36 12 18 13 31 7 56 -8 27 -16 33 -53 40 -37 7 -46 6
-65 -12 -19 -17 -39 -22 -107 -25 -94 -5 -213 7 -251 24 -55 26 -59 61 -30
260 20 129 61 221 110 246 20 11 40 24 44 30 4 7 20 15 34 18 15 4 50 26 78
49 28 23 56 47 63 52 7 6 19 16 28 23 8 7 24 11 34 7 52 -16 68 37 26 87 -14
16 -25 42 -25 56 0 15 -4 32 -8 38 -7 12 -79 45 -91 43 -3 -1 -17 -4 -31 -6z"/>
</g>
</svg>
