<?xml version="1.0" standalone="no"?>
<!DOCTYPE svg PUBLIC "-//W3C//DTD SVG 20010904//EN"
 "http://www.w3.org/TR/2001/REC-SVG-20010904/DTD/svg10.dtd">
<svg version="1.0" xmlns="http://www.w3.org/2000/svg"
 width="207.000000pt" height="209.000000pt" viewBox="0 0 207.000000 209.000000"
 preserveAspectRatio="xMidYMid meet">
<metadata>
Created by potrace 1.16, written by Peter Selinger 2001-2019
</metadata>
<g transform="translate(0.000000,209.000000) scale(0.100000,-0.100000)"
fill="#000000" stroke="none">
<path d="M1483 1794 c-29 -21 -29 -54 -2 -102 22 -38 96 -102 142 -123 15 -7
27 -19 27 -27 0 -10 7 -12 27 -7 60 15 57 47 -12 121 -79 84 -81 87 -81 120 1
27 -2 29 -39 31 -24 2 -49 -4 -62 -13z"/>
<path d="M1097 1714 l-29 -16 6 -179 6 -180 -33 -19 c-17 -11 -37 -20 -44 -20
-15 0 -151 -78 -186 -107 -16 -13 -34 -23 -41 -23 -46 0 -116 -71 -116 -117 0
-47 76 -72 103 -33 21 31 92 79 194 131 l93 48 0 -58 c0 -64 -10 -79 -72 -104
-37 -15 -188 -155 -188 -174 0 -6 -22 -34 -49 -63 -28 -29 -64 -80 -82 -114
-17 -34 -46 -83 -64 -111 -18 -27 -51 -80 -74 -117 -23 -37 -52 -77 -63 -90
-62 -71 -82 -108 -57 -108 15 0 137 105 173 150 17 21 42 55 56 76 14 20 43
57 65 83 23 25 49 62 60 83 10 20 39 58 63 85 25 26 58 68 74 93 27 43 117
134 125 126 8 -7 -18 -175 -37 -247 -67 -246 -119 -501 -111 -542 4 -20 17
-37 33 -46 42 -24 64 3 72 87 4 37 13 92 21 122 7 30 16 80 20 110 7 63 62
270 76 284 5 6 15 4 26 -5 10 -8 45 -28 78 -44 33 -16 76 -38 95 -50 43 -26
78 -36 254 -70 108 -22 140 -25 146 -15 13 20 11 101 -3 104 -7 2 -31 9 -55
16 -32 10 -48 11 -67 2 -17 -8 -32 -9 -43 -3 -9 5 -46 17 -83 25 -37 9 -96 34
-137 58 -40 24 -80 48 -90 53 -92 55 -100 75 -79 203 9 53 19 118 22 144 8 60
32 109 70 140 30 25 138 79 185 93 45 13 140 79 140 98 0 9 -11 23 -25 29 -21
10 -37 6 -107 -25 -46 -20 -96 -39 -113 -43 -16 -4 -43 -16 -60 -26 -16 -10
-39 -18 -49 -18 -18 0 -19 6 -13 122 5 87 11 126 22 138 21 23 11 43 -31 63
-42 20 -41 20 -77 1z"/>
</g>
</svg>
