<?xml version="1.0" standalone="no"?>
<!DOCTYPE svg PUBLIC "-//W3C//DTD SVG 20010904//EN"
 "http://www.w3.org/TR/2001/REC-SVG-20010904/DTD/svg10.dtd">
<svg version="1.0" xmlns="http://www.w3.org/2000/svg"
 width="208.000000pt" height="211.000000pt" viewBox="0 0 208.000000 211.000000"
 preserveAspectRatio="xMidYMid meet">
<metadata>
Created by potrace 1.16, written by Peter Selinger 2001-2019
</metadata>
<g transform="translate(0.000000,211.000000) scale(0.100000,-0.100000)"
fill="#000000" stroke="none">
<path d="M472 1760 c-29 -12 -38 -36 -21 -56 9 -11 15 -60 19 -147 l5 -130
-47 -20 c-27 -11 -48 -23 -48 -27 0 -8 -143 -65 -222 -90 -47 -14 -88 -53 -88
-83 0 -28 38 -67 66 -67 11 0 35 11 54 25 19 14 37 25 42 25 10 0 144 65 180
88 15 9 29 14 31 12 3 -3 0 -54 -7 -115 l-11 -110 -47 3 -46 4 -40 -59 c-21
-32 -42 -69 -46 -83 -12 -39 -49 -133 -62 -155 -7 -11 -24 -53 -38 -93 -25
-72 -70 -144 -121 -191 -18 -16 -25 -33 -25 -58 l0 -35 38 28 c68 52 159 156
171 196 7 21 16 38 20 38 5 0 24 31 42 70 34 71 54 85 79 55 9 -10 9 -28 1
-67 -8 -44 -20 -120 -26 -163 -1 -5 -5 -21 -8 -35 -4 -14 -14 -56 -22 -95 -24
-105 -56 -188 -78 -206 -27 -22 -16 -49 21 -49 21 0 37 11 65 44 20 25 37 49
37 55 0 5 5 11 11 13 12 4 70 240 90 365 6 40 16 73 21 73 5 0 41 -14 80 -30
79 -34 207 -70 248 -70 14 0 35 6 46 14 18 14 18 17 4 43 -12 22 -25 29 -60
34 -55 8 -133 35 -180 63 -19 12 -46 27 -60 34 -44 22 -48 39 -35 127 7 44 20
140 29 214 11 84 22 139 31 148 8 8 18 26 21 41 10 39 18 47 92 88 99 55 144
92 140 118 -3 24 -32 32 -62 18 -11 -6 -39 -18 -61 -27 -22 -9 -57 -25 -78
-36 l-39 -21 6 119 c7 116 6 118 -18 146 -26 28 -53 33 -94 17z m-62 -814 c0
-25 -12 -46 -26 -46 -17 0 -18 14 -2 40 15 23 28 26 28 6z"/>
<path d="M1072 1640 c-133 -47 -192 -90 -192 -139 0 -43 10 -51 64 -51 45 0
53 3 71 30 18 27 63 50 127 64 33 7 61 46 52 70 -5 14 -55 48 -66 45 -2 0 -27
-9 -56 -19z"/>
<path d="M1132 1518 c-10 -13 -18 -91 -28 -248 -7 -126 -8 -126 -61 -146 -27
-10 -52 -21 -58 -25 -5 -3 -58 -23 -116 -43 -58 -19 -117 -41 -131 -48 -41
-22 -106 -82 -119 -111 -12 -26 -10 -30 19 -60 l32 -31 90 62 c60 42 112 69
157 83 38 11 81 27 96 35 17 9 33 12 38 7 4 -4 -2 -114 -17 -253 -27 -274 -31
-506 -7 -552 18 -37 56 -38 80 -1 15 23 17 44 14 133 -2 58 -4 125 -4 150 -1
49 18 244 34 355 6 39 13 100 16 137 3 52 9 68 22 73 9 3 21 18 27 33 6 16 29
40 51 53 81 49 179 117 201 142 29 31 28 90 -1 95 -16 3 -74 -29 -170 -95 -49
-34 -76 -47 -84 -39 -9 9 -4 99 6 106 4 3 11 23 14 45 3 22 9 56 13 76 6 33 4
37 -31 57 -41 25 -68 28 -83 10z m-2 -593 c0 -8 -7 -15 -15 -15 -8 0 -15 7
-15 15 0 8 7 15 15 15 8 0 15 -7 15 -15z"/>
</g>
</svg>
