<?xml version="1.0" standalone="no"?>
<!DOCTYPE svg PUBLIC "-//W3C//DTD SVG 20010904//EN"
 "http://www.w3.org/TR/2001/REC-SVG-20010904/DTD/svg10.dtd">
<svg version="1.0" xmlns="http://www.w3.org/2000/svg"
 width="208.000000pt" height="211.000000pt" viewBox="0 0 208.000000 211.000000"
 preserveAspectRatio="xMidYMid meet">
<metadata>
Created by potrace 1.16, written by Peter Selinger 2001-2019
</metadata>
<g transform="translate(0.000000,211.000000) scale(0.100000,-0.100000)"
fill="#000000" stroke="none">
<path d="M613 1773 c-23 -4 -28 -20 -23 -84 0 -15 -6 -44 -15 -65 -9 -22 -19
-67 -22 -102 -6 -58 -9 -66 -47 -98 -23 -20 -53 -38 -68 -41 -15 -3 -33 -12
-39 -19 -6 -8 -17 -14 -23 -14 -7 0 -28 -12 -47 -26 -19 -14 -62 -39 -97 -56
-62 -29 -102 -72 -102 -109 0 -16 51 -59 71 -59 17 0 128 73 128 85 1 10 120
87 154 99 14 4 17 2 13 -12 -3 -9 -14 -71 -25 -138 -15 -92 -30 -143 -62 -215
-23 -52 -48 -101 -56 -110 -7 -9 -22 -39 -32 -66 -10 -28 -38 -76 -62 -107
-148 -193 -217 -278 -240 -294 -23 -16 -26 -62 -4 -62 17 0 115 68 115 79 0 5
23 30 51 57 47 46 139 158 139 170 0 5 4 11 45 59 l25 30 -4 -70 c-3 -38 -14
-116 -25 -173 -12 -57 -21 -121 -21 -143 0 -22 -7 -54 -16 -70 -8 -17 -14 -48
-12 -72 3 -37 6 -42 28 -45 43 -5 69 34 86 129 20 110 34 184 45 239 5 25 14
86 21 135 6 50 12 91 13 93 2 2 25 -20 51 -48 36 -39 74 -64 159 -106 115 -56
158 -65 205 -41 13 7 31 24 39 39 15 25 14 29 -8 52 -29 31 -42 32 -66 6 -24
-27 -32 -26 -95 16 -30 19 -70 41 -88 49 -41 18 -75 56 -111 126 -16 30 -36
61 -44 67 -19 16 -9 74 24 132 17 31 21 44 12 47 -17 6 -16 67 2 147 30 127
65 186 130 215 23 10 45 23 49 29 3 6 30 22 59 35 28 13 63 33 77 45 14 12 35
30 48 39 28 22 21 50 -13 59 -25 6 -154 -47 -232 -97 -26 -16 -51 0 -37 23 5
7 7 21 6 31 -2 10 8 30 22 44 25 24 36 73 17 73 -5 0 -11 13 -14 30 -6 29 -40
71 -54 69 -5 -1 -18 -4 -30 -6z m-163 -1103 c0 -5 -5 -10 -11 -10 -5 0 -7 5
-4 10 3 6 8 10 11 10 2 0 4 -4 4 -10z"/>
<path d="M1310 1632 c0 -8 -70 -41 -145 -67 -117 -41 -185 -95 -185 -145 0
-31 31 -60 63 -60 11 0 51 24 91 54 43 32 97 62 138 76 37 12 76 32 87 44 25
27 31 66 11 76 -8 4 -25 12 -37 19 -13 6 -23 8 -23 3z"/>
<path d="M1319 1472 c-52 -6 -77 -56 -99 -202 -5 -36 -10 -88 -10 -117 0 -28
-4 -63 -10 -77 -11 -29 -94 -86 -127 -86 -12 0 -24 -4 -28 -10 -3 -5 -31 -17
-63 -26 -31 -10 -64 -23 -72 -29 -16 -12 -132 -68 -174 -85 -14 -5 -34 -27
-46 -51 l-21 -41 22 -24 c13 -13 34 -24 49 -24 23 0 67 22 80 41 3 4 23 17 45
28 22 12 47 26 55 30 69 38 228 96 237 87 3 -3 -2 -42 -11 -88 -31 -151 -35
-189 -41 -382 -3 -105 -8 -208 -11 -228 -5 -34 -9 -38 -34 -38 -16 0 -32 -5
-35 -11 -8 -12 22 -49 40 -49 6 0 24 -14 39 -31 31 -34 41 -34 70 5 19 24 21
47 27 244 4 119 12 260 19 312 16 135 50 302 66 320 8 8 25 29 39 46 13 17 54
50 90 74 36 23 65 46 65 51 0 5 5 9 11 9 6 0 39 21 74 46 65 48 88 91 64 120
-23 28 -53 15 -184 -81 -38 -28 -82 -56 -97 -62 l-28 -13 0 48 c1 100 36 194
81 218 32 16 37 35 15 53 -19 16 -66 27 -97 23z"/>
</g>
</svg>
