<?xml version="1.0" standalone="no"?>
<!DOCTYPE svg PUBLIC "-//W3C//DTD SVG 20010904//EN"
 "http://www.w3.org/TR/2001/REC-SVG-20010904/DTD/svg10.dtd">
<svg version="1.0" xmlns="http://www.w3.org/2000/svg"
 width="210.000000pt" height="211.000000pt" viewBox="0 0 210.000000 211.000000"
 preserveAspectRatio="xMidYMid meet">
<metadata>
Created by potrace 1.16, written by Peter Selinger 2001-2019
</metadata>
<g transform="translate(0.000000,211.000000) scale(0.100000,-0.100000)"
fill="#000000" stroke="none">
<path d="M1440 1733 c-35 -11 -149 -56 -195 -78 -27 -13 -76 -31 -108 -41 -45
-14 -66 -27 -90 -57 -29 -37 -30 -41 -16 -66 9 -16 25 -27 41 -29 25 -3 143
51 198 91 14 10 71 45 128 78 71 41 102 65 100 76 -3 18 -36 32 -58 26z"/>
<path d="M659 1685 c-27 -15 -33 -44 -43 -215 -2 -49 -8 -55 -73 -74 -32 -9
-81 -26 -110 -37 -29 -11 -60 -19 -70 -17 -10 2 -22 0 -28 -4 -5 -5 -22 -17
-38 -29 -37 -28 -37 -69 2 -102 27 -22 35 -24 76 -16 25 5 65 21 88 37 23 16
54 32 69 35 14 4 34 10 43 13 14 6 15 2 10 -27 -3 -19 -8 -43 -10 -54 -2 -11
-4 -42 -4 -68 -1 -43 -5 -52 -40 -83 -24 -22 -57 -73 -90 -137 -28 -56 -57
-111 -64 -122 -46 -74 -67 -111 -110 -195 -55 -106 -73 -131 -92 -124 -13 5
-28 -33 -18 -49 3 -5 22 -6 42 -2 41 8 75 42 122 123 17 29 44 65 60 80 16 15
29 30 29 34 0 4 14 28 32 53 22 31 39 45 55 45 35 0 38 -23 14 -108 -33 -120
-51 -245 -51 -358 0 -104 0 -104 25 -104 33 0 52 38 60 121 7 70 41 266 55
314 4 17 11 42 14 58 7 29 24 34 57 16 16 -8 18 -13 9 -25 -18 -21 -3 -63 26
-74 40 -16 51 -12 94 26 23 21 57 40 82 46 24 5 53 21 68 36 25 27 38 38 115
89 22 14 45 31 51 38 18 18 123 69 130 63 5 -6 -7 -75 -39 -233 -16 -77 -43
-278 -52 -395 -3 -41 -11 -89 -17 -107 -17 -47 2 -83 42 -83 24 0 31 5 35 28
4 15 12 50 20 77 8 28 19 99 25 159 6 61 13 113 16 117 2 4 9 42 14 85 6 44
15 99 20 124 5 25 16 88 26 140 9 52 22 102 29 110 7 8 20 32 29 52 15 30 28
41 79 62 34 13 79 27 100 31 34 5 37 8 37 40 0 47 -24 59 -87 44 -47 -11 -104
-27 -132 -37 -12 -4 -13 7 -8 63 4 38 10 71 15 74 16 11 32 73 32 121 0 60
-28 100 -70 100 -16 0 -35 -6 -43 -14 -14 -14 -31 -135 -45 -315 l-7 -95 -100
-53 c-55 -30 -114 -60 -131 -68 -17 -7 -36 -21 -44 -29 -7 -9 -16 -16 -20 -16
-5 0 -52 -25 -105 -56 -61 -35 -103 -53 -113 -49 -9 3 -38 16 -65 28 l-48 22
7 65 c3 36 10 72 14 80 4 8 8 52 9 98 1 104 24 213 51 251 11 16 20 35 20 43
0 7 26 28 58 45 31 18 80 52 107 77 l50 45 -17 28 c-24 40 -40 39 -85 -5 -39
-39 -104 -69 -123 -57 -6 4 -2 21 11 46 17 34 24 40 44 35 13 -3 27 0 33 7 12
14 -13 45 -82 97 -44 34 -42 34 -77 15z"/>
</g>
</svg>
