<?xml version="1.0" standalone="no"?>
<!DOCTYPE svg PUBLIC "-//W3C//DTD SVG 20010904//EN"
 "http://www.w3.org/TR/2001/REC-SVG-20010904/DTD/svg10.dtd">
<svg version="1.0" xmlns="http://www.w3.org/2000/svg"
 width="205.000000pt" height="209.000000pt" viewBox="0 0 205.000000 209.000000"
 preserveAspectRatio="xMidYMid meet">
<metadata>
Created by potrace 1.16, written by Peter Selinger 2001-2019
</metadata>
<g transform="translate(0.000000,209.000000) scale(0.100000,-0.100000)"
fill="#000000" stroke="none">
<path d="M890 1943 c-31 -11 -39 -34 -33 -98 5 -53 3 -65 -13 -79 -49 -43 -84
-66 -120 -78 -51 -18 -176 -110 -194 -143 -12 -23 -11 -28 7 -53 14 -19 32
-29 58 -32 l39 -5 -52 -59 c-29 -33 -52 -63 -52 -67 0 -4 -18 -29 -40 -54 -22
-26 -48 -63 -58 -83 -45 -90 -86 -159 -111 -187 -15 -16 -36 -43 -46 -60 -10
-16 -39 -51 -63 -77 -62 -64 -69 -78 -41 -78 33 0 97 42 153 100 27 27 53 50
58 50 4 0 8 7 8 15 0 8 26 46 58 85 31 38 84 109 117 157 69 100 229 263 258
263 16 0 18 -5 13 -32 -3 -18 -11 -67 -16 -108 -21 -155 -19 -151 -80 -182
-78 -41 -140 -101 -140 -137 0 -55 40 -70 118 -46 19 6 22 4 22 -19 0 -21 5
-26 23 -26 24 0 39 22 67 95 6 17 23 44 38 61 29 33 147 102 157 92 4 -4 -2
-19 -13 -35 -10 -15 -30 -44 -43 -64 -13 -20 -51 -72 -84 -115 -70 -92 -94
-141 -102 -205 -4 -35 -1 -49 12 -63 17 -16 17 -18 -1 -34 -44 -39 -92 -70
-137 -87 -28 -11 -67 -37 -93 -64 -37 -39 -44 -51 -42 -80 3 -29 8 -36 33 -43
20 -5 45 -3 72 6 48 17 52 15 112 -58 42 -52 165 -126 208 -126 29 0 95 59
126 113 29 50 52 139 48 187 -3 36 -15 62 -56 119 -14 19 -25 37 -25 41 0 9
230 114 280 128 131 38 185 59 185 72 0 12 -12 14 -60 12 -33 -2 -80 -9 -105
-17 -25 -7 -70 -20 -100 -29 -30 -8 -106 -31 -169 -51 -62 -19 -122 -35 -131
-35 -28 0 -42 24 -31 53 11 27 123 194 210 312 68 91 85 128 86 180 l0 50 -40
-3 c-36 -3 -62 -13 -191 -73 -43 -20 -79 -25 -70 -10 3 5 8 28 11 52 5 43 13
108 35 274 15 121 38 173 90 213 25 19 64 51 87 73 22 21 48 39 57 39 18 0 23
45 6 55 -17 10 -81 -14 -146 -56 -33 -21 -64 -39 -68 -39 -12 0 4 40 25 61 10
10 19 24 19 29 0 10 -103 13 -130 3z m-44 -339 c4 -14 3 -29 -2 -34 -14 -14
-102 -35 -111 -27 -10 10 75 84 99 86 4 1 11 -11 14 -25z m127 -1053 c20 -23
39 -56 43 -76 6 -31 1 -44 -31 -91 -47 -69 -76 -85 -124 -72 -20 6 -47 21 -62
34 -14 13 -30 24 -35 24 -11 0 -54 54 -54 68 0 14 110 102 174 139 34 20 52
15 89 -26z"/>
<path d="M988 1530 c-29 -17 -22 -58 16 -96 40 -40 69 -43 181 -19 51 11 77
23 99 44 51 51 11 79 -71 49 -27 -10 -45 -9 -100 6 -104 27 -107 27 -125 16z"/>
</g>
</svg>
