<?xml version="1.0" standalone="no"?>
<!DOCTYPE svg PUBLIC "-//W3C//DTD SVG 20010904//EN"
 "http://www.w3.org/TR/2001/REC-SVG-20010904/DTD/svg10.dtd">
<svg version="1.0" xmlns="http://www.w3.org/2000/svg"
 width="206.000000pt" height="209.000000pt" viewBox="0 0 206.000000 209.000000"
 preserveAspectRatio="xMidYMid meet">
<metadata>
Created by potrace 1.16, written by Peter Selinger 2001-2019
</metadata>
<g transform="translate(0.000000,209.000000) scale(0.100000,-0.100000)"
fill="#000000" stroke="none">
<path d="M770 2042 c-8 -2 -23 -13 -33 -24 -17 -17 -19 -35 -17 -166 1 -81 2
-152 1 -158 0 -6 -25 -26 -53 -44 -52 -32 -64 -42 -120 -94 -34 -30 -37 -77
-8 -106 30 -30 50 -25 100 30 53 57 70 62 70 21 0 -20 -13 -44 -43 -77 -40
-47 -89 -116 -137 -197 -12 -21 -27 -43 -33 -50 -7 -6 -19 -25 -27 -41 -8 -16
-30 -45 -47 -65 -31 -34 -150 -176 -218 -260 -16 -20 -69 -75 -117 -122 -83
-80 -107 -119 -74 -119 8 0 18 5 21 10 3 6 32 27 63 49 85 58 426 409 452 465
14 31 134 165 140 156 3 -5 2 -43 -2 -82 -5 -40 -10 -102 -12 -138 -2 -36 -5
-70 -5 -77 -1 -7 -40 -31 -89 -55 -101 -48 -132 -73 -132 -103 0 -22 22 -48
51 -58 9 -3 44 8 79 24 34 17 63 29 65 27 1 -2 8 -13 14 -25 25 -49 86 -16 96
51 6 37 13 48 46 69 44 29 52 17 19 -26 -33 -42 -51 -107 -48 -172 l3 -59 -40
-22 c-22 -12 -47 -28 -55 -36 -8 -7 -48 -30 -90 -51 -41 -21 -112 -62 -157
-90 -69 -43 -83 -56 -83 -77 0 -35 17 -50 60 -50 50 -1 146 -35 182 -65 68
-57 188 -99 284 -99 38 0 91 42 117 91 41 77 33 169 -25 296 -26 57 -29 71
-20 92 7 14 22 29 34 34 13 5 32 19 43 31 11 12 45 34 76 50 51 25 179 106
239 151 58 44 179 120 280 177 25 14 63 40 84 59 22 18 45 33 52 33 14 0 39
28 31 36 -2 3 -40 -11 -83 -31 -44 -21 -104 -48 -134 -62 -117 -53 -164 -78
-189 -99 -33 -27 -209 -134 -221 -134 -12 0 -132 -66 -195 -107 -27 -18 -55
-33 -62 -33 -43 0 22 128 107 210 64 62 90 106 90 154 0 45 -1 46 -31 46 -18
0 -53 -13 -80 -30 -27 -16 -69 -35 -93 -41 -24 -6 -55 -22 -67 -35 -32 -34
-49 -31 -48 9 3 96 25 230 39 237 8 4 25 12 37 18 13 7 35 12 50 12 15 0 50 9
78 19 42 16 168 56 213 67 6 2 12 19 12 37 0 19 -6 39 -12 44 -16 12 -57 10
-94 -5 -55 -22 -231 -62 -239 -54 -3 3 -5 22 -5 43 0 29 -4 38 -21 42 -19 5
-21 10 -14 53 4 26 17 63 30 83 27 42 81 91 100 91 8 0 27 11 43 25 17 14 35
25 41 25 6 0 20 14 33 30 12 17 26 30 30 30 5 0 28 9 50 20 23 11 47 20 52 20
18 0 96 76 96 93 0 35 -43 21 -255 -85 -55 -28 -109 -58 -120 -67 -21 -18 -69
-41 -85 -41 -11 0 -11 107 -1 154 5 23 14 32 38 38 61 16 51 48 -16 48 -20 0
-44 8 -55 19 -12 10 -28 16 -36 13z m95 -1564 c15 -35 33 -84 40 -110 12 -43
11 -49 -11 -82 -13 -19 -33 -38 -45 -41 -34 -11 -107 4 -136 29 -16 12 -49 33
-75 45 -63 30 -76 46 -54 70 10 11 32 25 49 32 18 7 36 19 40 26 5 8 18 18 30
24 25 10 51 26 86 52 13 9 29 17 36 17 6 0 24 -28 40 -62z"/>
</g>
</svg>
