<?xml version="1.0" standalone="no"?>
<!DOCTYPE svg PUBLIC "-//W3C//DTD SVG 20010904//EN"
 "http://www.w3.org/TR/2001/REC-SVG-20010904/DTD/svg10.dtd">
<svg version="1.0" xmlns="http://www.w3.org/2000/svg"
 width="209.000000pt" height="209.000000pt" viewBox="0 0 209.000000 209.000000"
 preserveAspectRatio="xMidYMid meet">
<metadata>
Created by potrace 1.16, written by Peter Selinger 2001-2019
</metadata>
<g transform="translate(0.000000,209.000000) scale(0.100000,-0.100000)"
fill="#000000" stroke="none">
<path d="M1464 1911 c-29 -18 -30 -21 -32 -92 0 -41 -4 -104 -7 -141 -8 -77
-20 -92 -130 -156 -78 -46 -98 -59 -201 -135 -132 -96 -174 -144 -174 -198 0
-23 25 -48 48 -49 17 0 117 79 132 105 16 27 151 132 186 145 16 6 34 16 39
23 15 17 71 47 78 41 6 -6 2 -61 -19 -234 -27 -222 -32 -274 -28 -310 9 -101
16 -351 10 -366 -5 -14 -16 -7 -64 37 -31 30 -75 70 -97 90 -22 20 -57 54 -77
75 l-38 40 38 71 c20 39 54 95 75 125 48 71 49 104 5 116 -61 17 -86 -8 -161
-158 -28 -58 -55 -106 -59 -108 -5 -2 -8 -10 -8 -18 0 -7 -7 -31 -16 -53 -17
-42 -30 -44 -67 -12 -22 18 -77 98 -77 110 0 5 -6 11 -14 14 -14 6 -15 109 -1
317 6 87 39 220 56 220 5 0 17 8 27 18 9 9 43 39 75 66 95 81 62 104 -58 41
-36 -20 -70 -33 -76 -30 -10 7 -12 62 -3 128 5 34 12 47 30 56 32 14 30 39 -3
52 -16 6 -36 15 -45 20 -28 14 -67 10 -86 -9 -19 -19 -19 -17 -6 -225 8 -123
8 -124 -85 -186 -29 -20 -64 -43 -76 -51 -12 -8 -36 -29 -52 -45 -15 -17 -44
-44 -63 -62 -52 -48 -60 -59 -60 -91 0 -35 37 -72 71 -72 13 0 45 14 72 30 43
27 47 34 47 68 0 33 8 46 56 95 31 31 60 54 65 51 5 -3 9 -31 9 -63 l0 -58
-58 -51 c-59 -51 -81 -84 -148 -222 -102 -213 -139 -275 -165 -275 -25 -1 -39
-16 -39 -44 0 -32 16 -51 44 -51 26 0 101 67 110 98 4 12 11 22 16 22 4 0 18
20 30 44 11 24 28 50 36 57 9 7 28 38 43 68 91 182 103 203 112 190 16 -26 10
-269 -11 -399 -32 -203 -43 -243 -63 -248 -13 -3 -17 -12 -15 -31 3 -29 23
-36 73 -27 39 8 58 41 74 131 37 215 55 305 61 305 4 0 17 -9 30 -20 13 -11
36 -20 52 -20 22 0 28 -5 28 -21 0 -11 -36 -94 -80 -185 -44 -90 -80 -168 -80
-172 0 -5 -9 -19 -20 -32 -23 -26 -17 -46 9 -28 39 29 141 163 164 218 4 8 18
33 32 55 13 22 36 64 50 93 14 28 30 52 34 52 5 0 19 16 31 37 l21 36 22 -33
c23 -34 85 -108 165 -196 50 -55 66 -75 113 -142 42 -60 69 -56 87 13 14 52
20 307 13 555 -2 99 2 175 17 285 11 83 24 188 28 234 3 45 11 93 18 105 24
46 63 88 97 108 33 18 59 53 59 78 0 15 -59 -1 -104 -26 -23 -13 -45 -24 -50
-24 -10 0 1 107 15 150 9 25 7 36 -11 65 -25 40 -33 42 -76 16z m-4 -516 c0
-14 -4 -25 -10 -25 -11 0 -14 33 -3 43 11 11 13 8 13 -18z"/>
</g>
</svg>
