<?xml version="1.0" standalone="no"?>
<!DOCTYPE svg PUBLIC "-//W3C//DTD SVG 20010904//EN"
 "http://www.w3.org/TR/2001/REC-SVG-20010904/DTD/svg10.dtd">
<svg version="1.0" xmlns="http://www.w3.org/2000/svg"
 width="209.000000pt" height="209.000000pt" viewBox="0 0 209.000000 209.000000"
 preserveAspectRatio="xMidYMid meet">
<metadata>
Created by potrace 1.16, written by Peter Selinger 2001-2019
</metadata>
<g transform="translate(0.000000,209.000000) scale(0.100000,-0.100000)"
fill="#000000" stroke="none">
<path d="M1220 2072 c0 -10 -6 -26 -14 -37 -13 -20 -104 -189 -156 -291 -14
-28 -41 -72 -60 -98 -53 -71 -203 -222 -241 -242 -43 -22 -99 -74 -150 -140
-44 -57 -48 -78 -20 -94 34 -17 70 -11 113 20 39 29 68 38 68 23 0 -5 34 -19
75 -32 42 -13 78 -27 80 -32 11 -16 -205 -247 -335 -359 -76 -65 -114 -99
-195 -172 -33 -30 -73 -64 -90 -75 -55 -38 -205 -114 -213 -109 -12 7 -82 -15
-82 -26 0 -40 134 -9 284 65 l129 65 22 -26 c18 -21 31 -26 63 -26 47 2 47 -4
-2 -75 -53 -80 -78 -133 -71 -158 3 -13 12 -23 19 -23 24 0 46 12 46 24 0 7
18 30 40 51 22 21 40 44 40 49 0 6 9 19 20 31 39 39 70 78 70 86 0 10 99 65
133 73 41 10 91 -23 131 -87 23 -38 76 -190 76 -221 0 -31 18 -78 33 -88 19
-12 57 -9 61 5 17 59 27 103 40 167 20 104 64 286 83 340 8 25 19 70 23 100
10 62 24 127 34 151 6 14 149 90 289 154 43 20 47 38 12 61 -22 15 -28 15 -57
1 -18 -8 -58 -22 -88 -32 -30 -10 -59 -21 -64 -26 -21 -19 -44 -9 -50 21 -8
42 -43 57 -85 36 -17 -9 -31 -24 -31 -35 0 -9 -11 -44 -24 -77 -17 -43 -31
-62 -52 -72 -16 -7 -36 -17 -44 -23 -8 -5 -67 -36 -130 -68 -105 -53 -289
-154 -366 -202 -17 -10 -34 -16 -38 -12 -9 9 118 130 146 138 13 4 41 25 63
46 108 102 195 194 201 211 3 10 10 18 15 18 5 0 26 16 46 36 69 66 75 68 237
79 l151 10 3 32 c4 42 -15 51 -118 57 -45 3 -84 7 -87 10 -3 3 7 21 22 40 28
37 95 145 95 153 0 3 21 31 48 62 113 134 157 204 167 268 6 39 5 43 -19 49
-25 6 -118 -19 -146 -40 -36 -27 -198 -91 -207 -82 -2 1 10 20 27 42 16 21 30
43 30 47 0 5 14 25 31 46 42 53 99 169 99 203 0 28 0 28 -65 28 -56 0 -65 -3
-65 -18z m40 -506 c-38 -57 -70 -107 -70 -112 0 -5 -33 -49 -73 -99 -82 -101
-62 -95 -226 -78 l-74 8 129 130 c111 112 143 138 229 185 89 49 124 66 148
69 4 1 -24 -46 -63 -103z m-130 -767 c0 -11 -6 -50 -14 -87 -8 -37 -20 -96
-26 -132 -7 -36 -19 -86 -28 -112 -15 -45 -17 -47 -34 -31 -10 9 -18 21 -18
28 0 7 -9 20 -20 30 -11 10 -20 22 -20 27 0 17 -66 68 -103 80 -30 9 -49 9
-90 -2 -29 -7 -58 -17 -64 -23 -9 -6 -13 -6 -13 1 0 5 24 22 54 37 29 15 75
43 102 64 55 41 128 81 148 81 7 0 31 13 52 29 47 36 74 39 74 10z"/>
<path d="M1304 637 c-32 -16 -42 -38 -32 -73 9 -36 46 -58 130 -76 121 -25
198 -15 198 27 0 20 -7 24 -42 30 -24 4 -50 13 -58 20 -8 7 -26 16 -40 20 -14
4 -46 20 -71 36 -49 31 -53 32 -85 16z"/>
</g>
</svg>
