<?xml version="1.0" standalone="no"?>
<!DOCTYPE svg PUBLIC "-//W3C//DTD SVG 20010904//EN"
 "http://www.w3.org/TR/2001/REC-SVG-20010904/DTD/svg10.dtd">
<svg version="1.0" xmlns="http://www.w3.org/2000/svg"
 width="206.000000pt" height="210.000000pt" viewBox="0 0 206.000000 210.000000"
 preserveAspectRatio="xMidYMid meet">
<metadata>
Created by potrace 1.16, written by Peter Selinger 2001-2019
</metadata>
<g transform="translate(0.000000,210.000000) scale(0.100000,-0.100000)"
fill="#000000" stroke="none">
<path d="M963 2018 c-23 -46 -51 -108 -63 -138 -12 -30 -25 -59 -29 -65 -5 -5
-27 -46 -51 -90 -23 -44 -55 -97 -71 -117 -16 -20 -29 -41 -29 -47 0 -16 -41
-82 -91 -146 -25 -33 -56 -78 -68 -100 -11 -22 -31 -52 -42 -66 -26 -33 -13
-64 31 -74 38 -8 62 9 106 74 l35 51 89 0 c49 0 91 -4 95 -9 15 -25 -157 -220
-366 -417 -24 -23 -96 -94 -159 -158 -63 -65 -129 -126 -147 -137 -18 -12 -33
-25 -33 -30 0 -5 -13 -17 -29 -27 -15 -9 -54 -39 -85 -66 -43 -38 -56 -56 -56
-78 0 -15 3 -28 8 -27 4 0 34 20 67 45 33 24 95 67 138 96 42 28 77 55 77 58
0 4 17 19 38 32 20 14 109 97 196 184 88 88 170 166 183 175 31 21 147 134
207 203 28 31 54 56 58 56 5 0 7 -55 6 -122 l-3 -121 -35 -20 c-35 -19 -149
-81 -232 -124 -24 -13 -50 -31 -58 -41 -8 -10 -58 -39 -110 -64 -126 -62 -170
-123 -120 -165 13 -12 20 -30 20 -55 0 -67 63 -104 94 -56 7 13 16 35 20 50 8
36 100 133 118 125 8 -2 28 -31 45 -64 18 -32 43 -68 57 -80 14 -12 28 -34 32
-48 3 -14 12 -25 18 -25 14 0 75 -63 100 -103 14 -23 23 -28 48 -25 25 2 33 9
40 33 5 17 13 39 18 50 5 11 16 121 25 245 9 124 20 234 24 245 28 70 43 96
63 108 13 8 70 43 127 78 121 74 163 112 159 143 -6 41 -70 23 -198 -54 -51
-32 -125 -70 -134 -70 -1 0 0 34 2 76 3 72 2 78 -24 105 -16 16 -38 29 -52 29
-23 0 -24 1 -10 22 18 27 59 38 188 52 30 3 87 10 125 15 149 20 189 21 216 7
55 -29 85 37 32 71 -23 15 -48 18 -173 16 -80 -1 -170 -5 -200 -8 -81 -8 -89
1 -61 67 13 29 27 61 32 70 5 10 9 23 9 29 0 5 11 25 24 42 30 40 44 92 48
177 l3 65 -43 -2 c-42 -2 -58 -10 -205 -109 -22 -14 -41 -23 -44 -20 -3 3 5
27 19 53 13 27 44 86 68 132 30 57 44 96 44 125 l1 41 -46 3 -45 3 -41 -83z
m161 -320 c-3 -13 -17 -43 -29 -68 -12 -25 -26 -56 -30 -70 -4 -14 -26 -53
-48 -88 l-41 -63 -90 3 c-76 3 -91 6 -94 20 -5 27 146 169 268 250 65 43 74
46 64 16z m-169 -1000 c-13 -226 -18 -253 -40 -250 -28 5 -76 48 -145 130 -63
75 -70 99 -35 117 11 6 40 24 64 40 65 44 136 83 154 84 5 1 6 -54 2 -121z"/>
<path d="M1320 713 c-60 -24 -93 -82 -55 -97 8 -3 15 -14 15 -25 0 -26 36 -36
88 -26 20 4 49 9 64 10 16 2 40 10 54 20 23 15 26 22 20 53 -7 44 -28 62 -70
60 -17 -1 -47 1 -66 5 -19 3 -42 3 -50 0z"/>
</g>
</svg>
