<?xml version="1.0" standalone="no"?>
<!DOCTYPE svg PUBLIC "-//W3C//DTD SVG 20010904//EN"
 "http://www.w3.org/TR/2001/REC-SVG-20010904/DTD/svg10.dtd">
<svg version="1.0" xmlns="http://www.w3.org/2000/svg"
 width="208.000000pt" height="210.000000pt" viewBox="0 0 208.000000 210.000000"
 preserveAspectRatio="xMidYMid meet">
<metadata>
Created by potrace 1.16, written by Peter Selinger 2001-2019
</metadata>
<g transform="translate(0.000000,210.000000) scale(0.100000,-0.100000)"
fill="#000000" stroke="none">
<path d="M1157 1988 c-10 -62 -17 -123 -17 -135 0 -25 -85 -95 -165 -136 -51
-26 -115 -93 -115 -122 0 -9 11 -27 25 -41 14 -14 25 -30 25 -36 0 -23 -360
-399 -440 -458 -193 -145 -230 -174 -230 -186 0 -53 214 63 355 192 22 20 60
52 85 73 25 20 47 39 48 44 2 4 9 7 15 7 7 0 59 47 116 105 58 58 108 105 111
105 3 0 14 -13 23 -30 10 -17 27 -30 38 -30 25 0 24 -13 -10 -148 -18 -75 -36
-121 -51 -137 -41 -43 -6 -96 54 -81 15 4 31 26 54 75 18 38 32 76 32 85 0 23
38 158 47 167 5 4 64 10 131 14 82 4 146 13 190 27 157 49 219 71 244 89 14
11 35 19 47 19 25 0 39 43 21 65 -17 21 -47 19 -119 -10 -154 -60 -395 -101
-476 -81 -26 7 -27 9 -23 62 4 44 10 61 31 80 31 29 33 37 12 58 -19 19 -19
70 0 86 8 7 20 30 25 51 6 22 17 39 25 39 7 0 22 11 33 25 11 14 25 25 30 25
6 0 37 23 68 50 31 28 64 50 71 50 24 0 73 56 73 84 0 44 -36 32 -161 -50 -71
-47 -116 -67 -123 -56 -2 4 4 44 13 90 l18 82 -57 0 -57 0 -16 -112z"/>
<path d="M1548 856 c-22 -16 -23 -69 -4 -181 17 -102 24 -117 49 -113 30 4 45
59 46 165 1 114 -8 143 -46 143 -16 0 -36 -7 -45 -14z"/>
<path d="M1260 817 c-33 -16 -37 -67 -12 -133 21 -55 63 -85 108 -76 21 4 24
9 19 26 -3 11 -12 55 -18 96 -7 41 -16 81 -20 88 -10 15 -45 15 -77 -1z"/>
<path d="M1056 794 c-73 -20 -85 -54 -41 -114 14 -19 25 -39 25 -46 0 -26 52
-73 86 -80 63 -12 64 4 13 111 -10 20 -12 56 -7 110 4 35 -7 38 -76 19z"/>
<path d="M748 752 c-9 -9 -20 -44 -26 -77 -5 -33 -20 -93 -32 -133 -24 -83
-24 -135 2 -140 12 -2 22 6 29 25 6 15 20 41 33 58 25 34 42 70 66 135 10 29
27 52 48 65 35 22 50 51 34 67 -6 6 -40 12 -75 14 -51 3 -68 0 -79 -14z"/>
</g>
</svg>
