<?xml version="1.0" standalone="no"?>
<!DOCTYPE svg PUBLIC "-//W3C//DTD SVG 20010904//EN"
 "http://www.w3.org/TR/2001/REC-SVG-20010904/DTD/svg10.dtd">
<svg version="1.0" xmlns="http://www.w3.org/2000/svg"
 width="205.000000pt" height="209.000000pt" viewBox="0 0 205.000000 209.000000"
 preserveAspectRatio="xMidYMid meet">
<metadata>
Created by potrace 1.16, written by Peter Selinger 2001-2019
</metadata>
<g transform="translate(0.000000,209.000000) scale(0.100000,-0.100000)"
fill="#000000" stroke="none">
<path d="M1472 1750 c-13 -6 -31 -29 -41 -54 -11 -24 -35 -66 -55 -94 -19 -27
-33 -52 -30 -54 4 -5 -38 -113 -56 -146 -5 -9 -23 -54 -40 -99 -33 -88 -143
-309 -165 -332 -12 -12 -19 -10 -49 12 -19 15 -42 27 -50 27 -20 0 -20 2 4 55
13 29 22 74 25 129 4 81 12 106 64 214 17 35 80 95 121 115 29 14 39 54 16 63
-8 3 -41 -4 -72 -15 -31 -12 -59 -20 -62 -17 -9 10 9 75 29 100 11 15 18 34
15 43 -6 19 -58 53 -80 53 -19 0 -47 -34 -50 -61 -2 -13 -8 -42 -14 -64 -6
-22 -14 -71 -18 -108 l-7 -69 -51 -34 c-28 -19 -89 -61 -136 -94 -47 -34 -100
-68 -119 -77 -48 -24 -161 -132 -178 -171 -12 -30 -12 -37 2 -58 22 -35 56
-39 111 -14 56 24 84 47 84 67 0 29 62 101 128 149 37 27 76 57 86 66 34 31
39 22 33 -49 -7 -74 -56 -187 -105 -245 -15 -18 -43 -62 -62 -98 -18 -36 -56
-99 -84 -140 -28 -41 -62 -95 -75 -120 -13 -25 -29 -52 -36 -60 -7 -8 -36 -62
-64 -120 -29 -58 -63 -116 -77 -131 -13 -14 -24 -30 -24 -36 0 -17 -60 -136
-80 -158 -26 -28 -29 -58 -7 -63 25 -5 44 13 92 88 23 36 49 71 58 78 9 8 26
34 38 59 12 24 28 47 35 50 8 3 14 13 14 23 0 9 9 28 20 40 12 13 30 44 40 68
11 25 35 65 53 91 18 25 45 66 59 91 14 25 40 58 57 74 l31 30 0 -58 c0 -55
-26 -294 -35 -326 -3 -8 -7 -33 -11 -55 -3 -22 -8 -42 -10 -44 -8 -8 19 -31
36 -31 39 0 58 33 79 135 20 101 35 201 46 310 10 104 28 205 36 211 5 2 26
-4 48 -15 l39 -21 -25 -52 c-14 -28 -27 -68 -30 -87 l-4 -36 18 23 c47 60 115
137 121 137 4 -1 28 -5 55 -9 38 -7 47 -12 47 -29 0 -23 -115 -434 -136 -482
-7 -18 -44 -65 -81 -106 -77 -84 -118 -157 -109 -195 6 -21 12 -24 56 -24 44
0 51 3 71 32 13 18 36 49 53 69 17 20 62 75 101 123 38 47 77 89 87 92 10 3
18 9 18 14 0 8 18 26 92 94 15 13 37 27 48 31 11 3 20 10 20 14 0 3 14 15 31
25 30 18 32 18 49 0 25 -28 62 -148 54 -179 -5 -19 -1 -32 17 -51 37 -39 92
-30 95 16 1 8 2 23 3 33 0 9 8 17 16 17 10 0 15 10 15 33 0 26 -6 36 -25 45
-25 12 -30 24 -39 106 -7 62 -59 154 -91 162 -38 9 -57 1 -75 -34 -19 -35 -76
-84 -125 -108 -17 -8 -52 -32 -79 -54 -26 -22 -52 -40 -56 -40 -9 0 -1 32 20
85 14 36 80 293 80 312 0 7 16 45 35 84 56 114 45 136 -48 96 -55 -25 -59 -31
-72 -95 -6 -30 -10 -33 -33 -27 -15 3 -34 13 -42 21 -13 13 -12 19 9 57 12 23
37 67 53 97 16 30 38 64 48 75 16 17 120 224 120 239 0 3 22 43 49 88 79 134
116 224 105 256 -10 29 -35 37 -72 22z"/>
<path d="M1587 1449 c-16 -9 -18 -18 -12 -57 14 -97 35 -114 74 -62 17 24 21
41 19 78 -3 44 -5 47 -33 49 -16 2 -38 -2 -48 -8z"/>
</g>
</svg>
