<?xml version="1.0" standalone="no"?>
<!DOCTYPE svg PUBLIC "-//W3C//DTD SVG 20010904//EN"
 "http://www.w3.org/TR/2001/REC-SVG-20010904/DTD/svg10.dtd">
<svg version="1.0" xmlns="http://www.w3.org/2000/svg"
 width="206.000000pt" height="210.000000pt" viewBox="0 0 206.000000 210.000000"
 preserveAspectRatio="xMidYMid meet">
<metadata>
Created by potrace 1.16, written by Peter Selinger 2001-2019
</metadata>
<g transform="translate(0.000000,210.000000) scale(0.100000,-0.100000)"
fill="#000000" stroke="none">
<path d="M755 1907 c-37 -22 -43 -42 -50 -147 -11 -192 -6 -178 -92 -246 -87
-66 -229 -161 -255 -170 -41 -13 -34 -89 10 -105 49 -19 92 -2 152 59 82 83
141 134 147 128 3 -3 1 -63 -4 -134 l-9 -129 -49 -79 c-26 -43 -58 -90 -70
-104 -35 -40 -59 -89 -95 -190 -18 -52 -44 -119 -57 -149 -13 -30 -27 -68 -30
-85 -4 -17 -28 -68 -55 -114 -45 -76 -52 -102 -27 -102 15 0 89 81 109 120 10
19 32 47 47 61 16 15 41 59 57 100 16 41 39 95 52 120 13 26 24 54 24 62 0 9
12 29 26 44 l25 28 -5 -95 c-3 -52 -9 -162 -12 -245 -6 -141 -5 -152 14 -175
18 -23 22 -23 46 -11 22 12 32 34 27 64 -2 11 28 404 35 465 3 28 10 52 14 52
11 0 80 -37 108 -58 l23 -18 -31 -74 c-17 -41 -38 -93 -46 -115 -8 -21 -20
-46 -28 -55 -7 -8 -21 -35 -30 -59 -38 -97 30 -62 86 44 11 22 37 60 57 85 62
76 121 179 121 211 0 32 25 89 39 89 8 0 110 226 126 278 4 13 28 67 55 120
26 53 51 107 54 120 4 12 11 22 16 22 4 0 10 17 12 38 3 20 14 59 24 85 l19
49 -23 19 c-21 16 -27 17 -55 6 -29 -11 -35 -23 -62 -103 -16 -50 -35 -102
-42 -115 -24 -50 -92 -216 -107 -259 -27 -80 -126 -281 -141 -286 -18 -7 -55
16 -119 72 -55 49 -58 70 -12 89 34 15 46 31 46 67 0 15 -6 19 -27 16 l-28 -3
2 102 c1 84 5 107 21 130 23 33 30 54 49 143 22 102 21 105 -7 105 -23 0 -25
4 -24 44 1 36 7 49 38 78 45 42 45 72 1 86 -16 5 -37 16 -46 23 -18 16 -18 16
-44 1z"/>
<path d="M1333 1528 c-35 -44 -17 -80 57 -119 25 -13 56 -32 69 -41 34 -26 48
-22 56 12 8 35 -16 76 -74 127 -38 34 -90 44 -108 21z"/>
<path d="M1225 1106 c-11 -7 -37 -19 -58 -26 -24 -7 -42 -21 -47 -35 -5 -13
-12 -79 -15 -146 -4 -94 -12 -147 -35 -224 -40 -139 -137 -340 -188 -386 -76
-71 -90 -111 -50 -149 31 -29 54 -25 96 18 21 20 46 45 57 54 11 10 29 27 40
39 11 12 36 32 55 45 19 13 60 45 90 70 107 88 176 137 216 154 23 10 45 23
48 29 15 24 25 9 31 -46 11 -91 77 -319 99 -340 23 -24 27 103 9 302 -5 55 -7
134 -3 175 4 46 2 82 -4 92 -8 13 -7 21 2 30 22 22 13 46 -19 57 -46 16 -65
14 -94 -11 -24 -21 -25 -26 -14 -56 6 -18 8 -48 5 -67 -6 -31 -14 -37 -99 -78
-51 -24 -98 -51 -106 -60 -7 -9 -19 -17 -27 -17 -7 0 -24 -11 -37 -23 -30 -31
-76 -61 -83 -55 -3 3 4 25 14 49 52 117 95 288 108 423 3 35 16 83 31 113 34
68 23 101 -22 69z"/>
</g>
</svg>
