<?xml version="1.0" standalone="no"?>
<!DOCTYPE svg PUBLIC "-//W3C//DTD SVG 20010904//EN"
 "http://www.w3.org/TR/2001/REC-SVG-20010904/DTD/svg10.dtd">
<svg version="1.0" xmlns="http://www.w3.org/2000/svg"
 width="208.000000pt" height="209.000000pt" viewBox="0 0 208.000000 209.000000"
 preserveAspectRatio="xMidYMid meet">
<metadata>
Created by potrace 1.16, written by Peter Selinger 2001-2019
</metadata>
<g transform="translate(0.000000,209.000000) scale(0.100000,-0.100000)"
fill="#000000" stroke="none">
<path d="M1290 2041 c-20 -16 -25 -31 -31 -88 -16 -157 -30 -250 -44 -283 -13
-30 -32 -104 -84 -340 -5 -19 -22 -78 -39 -130 -17 -52 -34 -108 -37 -125 -6
-27 -76 -247 -97 -303 -9 -27 -17 -26 -116 19 -78 36 -91 59 -74 132 7 29 14
97 16 153 2 56 8 110 14 120 5 10 18 39 28 62 11 26 36 58 63 80 96 79 132
118 138 156 5 32 3 36 -15 36 -11 0 -22 -4 -24 -9 -3 -9 -165 -121 -174 -121
-9 0 8 94 19 108 11 14 -17 52 -38 52 -7 0 -15 7 -19 15 -8 21 -46 18 -75 -4
-24 -18 -24 -20 -12 -74 8 -30 11 -59 8 -63 -3 -5 -2 -29 3 -54 5 -26 4 -52
-1 -62 -20 -37 -226 -155 -389 -222 -36 -15 -70 -47 -70 -66 0 -21 51 -70 73
-70 26 0 95 30 100 44 3 7 31 28 63 47 111 65 189 108 198 108 9 1 -2 -147
-15 -191 -4 -16 -25 -50 -47 -76 -69 -83 -113 -153 -182 -286 -81 -158 -136
-255 -157 -278 -12 -14 -13 -21 -4 -32 10 -12 16 -12 36 -2 36 19 101 96 135
161 17 32 42 71 57 89 14 17 33 47 41 66 16 39 82 130 94 130 11 0 10 -44 -1
-89 -14 -54 -31 -154 -47 -266 -7 -55 -16 -110 -20 -122 -11 -38 24 -42 53 -7
13 16 30 37 39 46 9 9 20 46 24 85 12 93 58 305 69 316 6 6 25 4 51 -7 22 -9
54 -16 70 -16 16 0 31 -4 34 -9 7 -10 -24 -109 -61 -196 -33 -79 -41 -105 -58
-199 -14 -80 -8 -116 22 -116 20 0 62 59 74 103 6 23 19 61 30 85 10 23 19 48
19 56 0 21 119 250 138 264 14 10 14 17 3 47 -11 31 -10 44 10 103 12 37 24
71 26 75 8 14 30 -12 36 -42 6 -26 19 -50 91 -155 19 -29 19 -31 2 -75 -10
-25 -22 -66 -28 -91 -5 -25 -18 -63 -28 -85 -9 -22 -25 -74 -35 -115 -9 -41
-24 -98 -32 -127 -17 -58 -13 -83 14 -83 35 1 70 43 88 105 49 166 109 335
119 335 7 0 28 -21 48 -48 39 -51 71 -80 115 -108 15 -10 44 -32 64 -49 21
-16 66 -50 100 -75 35 -25 75 -58 88 -74 57 -66 61 -67 97 -31 20 20 23 29 14
40 -8 10 -8 19 0 34 15 29 -2 53 -54 74 -23 9 -46 17 -52 17 -6 0 -20 10 -31
23 -12 12 -40 36 -64 52 -92 65 -179 148 -228 217 -28 39 -51 78 -51 86 0 39
120 381 175 500 14 29 25 58 25 65 0 6 18 47 40 90 36 70 40 84 40 152 0 74
-1 75 -25 75 -34 0 -120 -61 -161 -113 -19 -24 -64 -68 -101 -97 -38 -30 -83
-67 -100 -84 -18 -16 -35 -27 -37 -25 -8 8 50 274 78 364 28 87 66 311 62 361
-1 17 -6 36 -10 42 -11 18 -48 14 -76 -7z m190 -706 c0 -15 -67 -203 -119
-332 -34 -84 -61 -160 -61 -169 0 -10 -3 -14 -7 -11 -8 9 -14 50 -14 99 0 50
-18 62 -85 55 l-56 -6 7 42 c9 54 11 57 40 57 36 0 75 18 81 37 15 47 42 86
84 120 25 20 60 54 78 75 29 33 52 48 52 33z"/>
</g>
</svg>
