<?xml version="1.0" standalone="no"?>
<!DOCTYPE svg PUBLIC "-//W3C//DTD SVG 20010904//EN"
 "http://www.w3.org/TR/2001/REC-SVG-20010904/DTD/svg10.dtd">
<svg version="1.0" xmlns="http://www.w3.org/2000/svg"
 width="207.000000pt" height="207.000000pt" viewBox="0 0 207.000000 207.000000"
 preserveAspectRatio="xMidYMid meet">
<metadata>
Created by potrace 1.16, written by Peter Selinger 2001-2019
</metadata>
<g transform="translate(0.000000,207.000000) scale(0.100000,-0.100000)"
fill="#000000" stroke="none">
<path d="M574 1983 c-7 -12 -9 -61 -6 -135 4 -98 2 -122 -12 -143 -9 -14 -21
-25 -26 -25 -6 0 -29 -8 -53 -18 -49 -22 -104 -41 -131 -47 -10 -2 -24 -9 -31
-15 -7 -6 -43 -13 -79 -17 -109 -10 -148 -62 -90 -120 22 -22 32 -25 67 -20
23 4 89 29 146 58 58 29 119 55 135 59 17 4 38 9 46 11 8 2 14 0 13 -6 0 -5
-9 -66 -19 -135 -20 -144 -59 -241 -137 -343 -14 -19 -44 -72 -67 -118 -22
-45 -46 -90 -53 -98 -8 -9 -47 -82 -87 -164 -49 -97 -88 -163 -117 -192 -46
-48 -55 -75 -24 -75 43 0 129 86 191 193 24 39 55 90 69 111 14 22 40 65 56
95 43 80 97 161 107 161 5 0 5 -55 1 -122 -4 -68 -8 -188 -7 -267 0 -140 1
-144 24 -163 l25 -20 19 25 c16 22 19 47 22 164 3 136 18 321 28 330 8 9 43
-7 68 -31 14 -12 39 -28 57 -35 36 -16 38 -24 11 -78 -23 -48 -82 -103 -111
-103 -16 0 -20 -5 -17 -28 3 -23 8 -27 41 -30 31 -3 43 2 68 28 46 45 68 55
75 33 17 -55 38 -86 81 -117 52 -39 85 -44 135 -22 18 8 55 23 83 33 31 11 67
36 96 66 l47 48 39 -21 c21 -11 58 -34 83 -50 25 -16 62 -39 83 -50 21 -11 46
-28 55 -36 9 -9 39 -29 65 -46 27 -17 60 -49 73 -70 14 -21 31 -41 39 -44 8
-3 29 -29 46 -57 17 -29 35 -54 38 -57 4 -3 20 -26 36 -51 68 -105 153 -176
233 -194 25 -5 33 -3 39 11 4 12 -1 22 -18 33 -13 9 -40 32 -60 52 -20 19 -43
38 -52 42 -9 3 -17 15 -17 25 0 11 -8 30 -19 43 -39 50 -141 230 -141 250 0
14 -12 25 -37 36 -21 8 -42 21 -46 29 -7 12 -59 49 -143 100 -66 40 -203 135
-214 148 -9 11 -7 23 8 53 35 69 81 217 91 290 15 113 -12 194 -92 280 -80 86
-87 94 -87 104 0 15 30 60 75 109 87 99 134 213 114 278 l-11 32 -69 0 c-39 0
-79 -5 -89 -10 -10 -6 -38 -11 -62 -12 -24 -1 -50 -4 -58 -8 -8 -4 -28 -14
-44 -21 -68 -32 -51 -109 23 -109 21 0 44 6 50 14 13 15 148 52 158 43 8 -8
-27 -62 -90 -136 -43 -52 -63 -68 -102 -80 -55 -18 -57 -20 -80 -121 -43 -188
-145 -432 -186 -445 -29 -9 -43 -33 -30 -49 13 -15 -1 -66 -18 -66 -26 0 -123
77 -179 141 l-32 37 15 57 c8 31 24 72 36 91 20 33 20 36 4 54 -16 18 -17 27
-5 116 25 186 50 231 174 309 38 24 54 43 79 94 33 68 30 93 -12 99 -15 2 -21
-2 -21 -15 0 -26 -141 -153 -169 -153 -6 0 -8 23 -4 58 6 77 9 82 38 82 34 0
33 26 -2 35 -15 3 -39 15 -54 26 -34 24 -81 25 -95 2z m26 -552 c0 -6 -4 -13
-10 -16 -5 -3 -10 1 -10 9 0 9 5 16 10 16 6 0 10 -4 10 -9z m616 -63 c30 -30
63 -74 74 -101 18 -42 20 -56 12 -115 -6 -38 -28 -112 -54 -172 -50 -120 -64
-130 -120 -83 -18 16 -59 46 -91 67 -86 58 -86 56 19 272 24 50 44 96 44 102
0 15 43 81 53 82 5 0 33 -24 63 -52z m-273 -482 c18 -13 52 -34 77 -46 50 -25
90 -58 90 -74 0 -6 -22 -32 -48 -57 -73 -71 -156 -88 -200 -40 -63 68 -74 96
-53 130 7 12 14 10 36 -8 35 -27 71 -27 85 0 13 24 7 49 -12 49 -22 0 -41 39
-27 56 15 18 15 18 52 -10z"/>
</g>
</svg>
