<?xml version="1.0" standalone="no"?>
<!DOCTYPE svg PUBLIC "-//W3C//DTD SVG 20010904//EN"
 "http://www.w3.org/TR/2001/REC-SVG-20010904/DTD/svg10.dtd">
<svg version="1.0" xmlns="http://www.w3.org/2000/svg"
 width="208.000000pt" height="207.000000pt" viewBox="0 0 208.000000 207.000000"
 preserveAspectRatio="xMidYMid meet">
<metadata>
Created by potrace 1.16, written by Peter Selinger 2001-2019
</metadata>
<g transform="translate(0.000000,207.000000) scale(0.100000,-0.100000)"
fill="#000000" stroke="none">
<path d="M1245 1913 c-43 -11 -47 -28 -45 -208 0 -49 -2 -122 -5 -161 l-6 -71
-65 -39 c-35 -22 -98 -57 -139 -79 -100 -54 -185 -122 -185 -149 0 -12 12 -34
26 -49 37 -40 73 -29 147 44 32 33 62 59 66 59 5 0 28 16 52 35 39 31 69 44
69 31 0 -30 -43 -283 -55 -320 -8 -27 -15 -64 -15 -83 0 -26 -7 -38 -37 -60
-72 -53 -124 -108 -200 -212 -2 -2 -45 16 -95 42 -51 25 -105 50 -119 56 l-27
10 35 108 c20 59 40 117 46 128 5 10 11 53 12 95 2 41 12 120 24 175 24 112 6
88 197 262 49 46 95 96 101 113 11 28 10 30 -12 30 -13 0 -41 -15 -62 -32 -21
-18 -72 -55 -112 -83 -40 -27 -79 -54 -86 -60 -20 -14 -25 -4 -31 57 -4 46 -2
57 16 73 31 28 24 44 -26 65 -57 25 -85 25 -115 2 -21 -18 -22 -22 -11 -65 7
-26 17 -66 23 -90 5 -23 9 -65 7 -92 l-3 -50 -100 -50 c-55 -27 -101 -53 -103
-57 -2 -4 -18 -15 -36 -23 -18 -9 -48 -28 -66 -44 l-34 -28 23 -36 c34 -56 88
-48 166 23 42 39 140 102 147 95 2 -3 -2 -51 -9 -107 -12 -86 -18 -105 -36
-118 -83 -57 -150 -152 -180 -256 -17 -57 -52 -129 -67 -139 -5 -3 -10 -14
-10 -24 0 -10 -7 -24 -16 -32 -8 -7 -25 -31 -36 -53 -12 -23 -36 -60 -55 -83
-36 -43 -36 -63 -2 -63 25 0 96 64 119 109 10 20 35 53 54 74 20 21 36 43 36
50 1 19 37 57 54 57 24 0 20 -32 -15 -118 -16 -42 -39 -113 -49 -157 -10 -44
-28 -102 -39 -129 -27 -63 -26 -84 4 -98 21 -9 28 -8 45 7 26 24 67 110 80
171 12 54 86 273 95 282 3 4 34 -2 68 -12 34 -10 85 -20 114 -23 l51 -5 -66
-86 c-98 -128 -153 -214 -150 -231 9 -45 61 -9 158 108 25 30 53 61 63 70 10
9 27 32 37 51 24 43 99 121 173 179 17 13 18 12 11 -15 -4 -16 -11 -34 -16
-41 -15 -19 -35 -119 -48 -233 -6 -58 -18 -134 -26 -169 -17 -67 -13 -113 11
-145 13 -17 18 -18 40 -8 34 16 51 60 59 152 17 194 30 273 61 370 18 58 39
132 45 165 7 32 19 70 28 83 13 19 13 28 4 43 -10 15 -9 31 4 75 19 67 41 182
54 281 5 39 18 90 29 112 12 22 21 48 21 58 0 10 27 42 60 71 57 50 73 83 49
97 -5 4 -27 -5 -48 -19 -69 -48 -74 -36 -58 144 9 116 9 134 -6 165 -16 35
-23 37 -62 28z"/>
<path d="M1246 694 c-22 -21 -20 -26 12 -57 15 -15 35 -35 44 -45 14 -15 44
-21 144 -30 106 -9 135 -16 187 -41 53 -26 64 -29 86 -18 33 16 48 80 26 113
-17 27 -66 40 -92 24 -14 -9 -36 -7 -100 9 -45 12 -100 21 -122 21 -22 0 -56
9 -76 20 -43 24 -88 26 -109 4z"/>
</g>
</svg>
