<?xml version="1.0" standalone="no"?>
<!DOCTYPE svg PUBLIC "-//W3C//DTD SVG 20010904//EN"
 "http://www.w3.org/TR/2001/REC-SVG-20010904/DTD/svg10.dtd">
<svg version="1.0" xmlns="http://www.w3.org/2000/svg"
 width="208.000000pt" height="206.000000pt" viewBox="0 0 208.000000 206.000000"
 preserveAspectRatio="xMidYMid meet">
<metadata>
Created by potrace 1.16, written by Peter Selinger 2001-2019
</metadata>
<g transform="translate(0.000000,206.000000) scale(0.100000,-0.100000)"
fill="#000000" stroke="none">
<path d="M1255 1845 c-16 -16 -25 -36 -25 -57 0 -18 -7 -53 -16 -77 -8 -25
-19 -93 -25 -153 -10 -119 -18 -138 -63 -162 -17 -9 -56 -32 -86 -51 -30 -19
-64 -39 -76 -44 -11 -5 -27 -15 -35 -23 -8 -7 -37 -24 -64 -38 -62 -32 -88
-67 -89 -121 -1 -37 2 -43 27 -51 38 -13 77 -2 77 21 0 19 26 42 149 132 52
38 96 57 108 46 3 -3 0 -30 -7 -59 -12 -48 -42 -207 -55 -288 -9 -57 -15 -71
-51 -109 -18 -20 -46 -61 -62 -91 -16 -30 -50 -93 -74 -140 -25 -47 -56 -105
-69 -130 -13 -25 -45 -74 -71 -109 -27 -35 -48 -70 -48 -77 0 -26 21 -24 66 6
32 23 67 65 119 145 41 62 86 120 99 129 l25 16 -6 -213 c-3 -116 -3 -242 1
-279 l8 -68 59 0 59 0 -5 53 c-21 215 -24 319 -10 448 29 272 30 277 81 331
25 27 44 54 41 61 -2 7 -18 13 -36 15 -26 3 -31 7 -25 20 4 9 15 62 24 117 47
278 73 342 159 398 94 61 104 69 149 111 25 24 42 49 42 63 0 35 9 39 -198
-84 -58 -35 -65 -32 -58 30 4 30 15 70 25 90 18 36 28 159 16 198 -9 27 -51
24 -80 -6z"/>
<path d="M561 1744 c-23 -16 -23 -18 -16 -143 8 -144 12 -135 -85 -191 -30
-18 -77 -48 -105 -69 -57 -41 -64 -45 -162 -101 -81 -45 -97 -65 -87 -115 8
-43 41 -52 103 -30 24 8 52 15 63 15 12 0 24 12 33 34 8 18 25 40 39 49 13 9
44 37 68 63 41 44 94 76 111 67 4 -3 5 -26 2 -51 -13 -100 -27 -189 -36 -222
l-8 -35 -62 0 c-56 0 -63 -3 -85 -30 -94 -116 -209 -345 -241 -479 -13 -56
-63 -159 -84 -171 -11 -7 -12 -65 -1 -65 14 1 62 49 82 82 11 18 33 59 50 91
17 32 39 66 50 77 11 11 20 25 20 30 0 19 118 247 158 306 49 71 107 130 99
99 -38 -139 -83 -329 -103 -440 -20 -114 -46 -199 -92 -299 l-36 -78 23 -19
c32 -26 39 -24 77 16 44 47 98 218 144 457 6 32 16 58 21 58 6 0 42 -33 80
-74 58 -62 81 -79 136 -100 36 -14 70 -23 74 -20 25 15 -9 61 -88 123 -24 18
-43 38 -43 44 0 7 -25 43 -55 81 -64 80 -73 105 -56 160 28 95 91 443 91 506
1 32 39 74 114 125 108 73 176 138 176 166 0 37 -19 30 -168 -68 -52 -35 -99
-60 -104 -56 -14 8 -3 130 13 149 6 8 20 14 30 14 10 0 21 5 25 11 12 20 -20
37 -81 43 -47 5 -65 3 -84 -10z"/>
<path d="M1610 694 c-95 -41 -242 -51 -275 -17 -8 7 -27 16 -43 19 -25 5 -31
2 -37 -15 -3 -12 -11 -21 -16 -21 -15 0 -10 -57 6 -74 9 -8 32 -18 52 -22 45
-9 199 1 216 13 6 5 28 16 47 23 19 7 42 20 50 27 8 7 26 21 39 32 16 12 22
24 18 34 -8 20 -12 20 -57 1z"/>
</g>
</svg>
