<?xml version="1.0" standalone="no"?>
<!DOCTYPE svg PUBLIC "-//W3C//DTD SVG 20010904//EN"
 "http://www.w3.org/TR/2001/REC-SVG-20010904/DTD/svg10.dtd">
<svg version="1.0" xmlns="http://www.w3.org/2000/svg"
 width="207.000000pt" height="208.000000pt" viewBox="0 0 207.000000 208.000000"
 preserveAspectRatio="xMidYMid meet">
<metadata>
Created by potrace 1.16, written by Peter Selinger 2001-2019
</metadata>
<g transform="translate(0.000000,208.000000) scale(0.100000,-0.100000)"
fill="#000000" stroke="none">
<path d="M1154 1841 c-21 -13 -35 -32 -42 -57 -21 -75 -44 -139 -62 -174 -10
-19 -23 -54 -29 -76 -6 -23 -23 -57 -39 -77 -30 -39 -79 -110 -118 -171 -27
-42 -27 -40 1 -156 27 -114 19 -370 -13 -370 -13 0 -104 40 -202 89 -34 16
-35 19 -34 72 0 29 3 72 7 94 4 22 11 81 17 130 17 136 39 175 125 214 54 25
120 84 111 99 -10 16 -36 15 -80 -3 -20 -9 -59 -24 -86 -35 l-49 -19 6 37 c7
45 19 62 44 62 29 0 23 11 -29 63 -53 52 -68 56 -104 28 -23 -18 -24 -26 -26
-127 -2 -59 -7 -113 -13 -120 -5 -7 -35 -22 -67 -35 -31 -12 -62 -26 -68 -31
-11 -8 -93 -40 -202 -79 -29 -11 -61 -28 -72 -39 -11 -11 -27 -20 -35 -20 -23
0 -47 -44 -39 -74 7 -28 49 -56 84 -56 12 0 38 13 58 30 20 16 57 45 80 65 24
19 50 35 57 35 7 0 52 20 101 45 48 25 92 41 96 37 16 -16 -9 -147 -41 -214
-17 -37 -31 -70 -31 -74 0 -4 -9 -28 -21 -53 -27 -60 -44 -97 -64 -146 -36
-85 -78 -165 -87 -165 -5 0 -11 -8 -15 -18 -3 -9 -29 -52 -56 -95 -27 -43 -47
-81 -43 -84 10 -11 68 26 104 66 18 20 51 61 74 91 23 30 48 60 54 65 7 6 22
31 33 56 26 62 41 70 41 22 0 -87 -22 -322 -34 -370 -16 -61 -2 -95 34 -86 47
12 73 114 99 397 6 61 15 114 20 119 11 11 87 -7 131 -30 14 -7 44 -13 68 -13
28 0 45 -5 48 -15 7 -17 -6 -73 -41 -180 -42 -126 -47 -136 -73 -160 -31 -29
-25 -57 15 -69 41 -11 79 11 99 59 17 43 24 46 53 30 25 -13 69 -7 94 13 7 5
26 14 42 20 17 6 68 27 115 46 46 20 90 36 96 36 15 0 21 -29 29 -143 6 -81 8
-87 31 -93 63 -16 75 18 62 169 -9 101 -8 119 6 139 21 29 20 44 -3 67 -15 15
-20 41 -26 134 -4 63 -5 119 -2 124 4 6 9 92 12 193 4 100 11 195 17 209 14
36 19 131 7 153 -13 24 -30 23 -56 -4 -12 -13 -34 -36 -50 -53 -15 -16 -54
-52 -87 -80 -32 -27 -74 -64 -92 -81 -28 -26 -85 -48 -114 -45 -3 0 -8 20 -11
43 -6 37 -2 52 27 104 18 34 41 67 50 74 9 8 26 34 38 60 12 25 27 54 34 65
18 32 62 143 62 158 0 8 14 39 30 70 35 65 37 88 12 110 -23 21 -30 21 -68 -2z
m98 -758 c2 -54 1 -116 -2 -138 -5 -36 -8 -40 -45 -50 -22 -5 -56 -19 -75 -30
-59 -33 -131 -65 -146 -65 -9 0 -12 9 -9 28 2 15 7 61 10 103 l6 76 77 54 c42
30 86 64 99 76 27 26 54 42 70 43 8 0 13 -31 15 -97z m-7 -383 c3 -65 4 -124
0 -130 -3 -5 -15 -10 -25 -10 -10 0 -58 -15 -107 -34 -48 -18 -106 -36 -128
-40 -22 -4 -50 -14 -62 -22 -21 -13 -23 -13 -23 4 0 9 11 51 24 92 13 41 27
94 31 118 6 40 25 55 40 32 16 -26 106 12 176 75 62 56 65 51 74 -85z"/>
</g>
</svg>
