<?xml version="1.0" standalone="no"?>
<!DOCTYPE svg PUBLIC "-//W3C//DTD SVG 20010904//EN"
 "http://www.w3.org/TR/2001/REC-SVG-20010904/DTD/svg10.dtd">
<svg version="1.0" xmlns="http://www.w3.org/2000/svg"
 width="208.000000pt" height="209.000000pt" viewBox="0 0 208.000000 209.000000"
 preserveAspectRatio="xMidYMid meet">
<metadata>
Created by potrace 1.16, written by Peter Selinger 2001-2019
</metadata>
<g transform="translate(0.000000,209.000000) scale(0.100000,-0.100000)"
fill="#000000" stroke="none">
<path d="M1210 1893 c-8 -3 -22 -11 -30 -18 -8 -7 -33 -18 -55 -25 -22 -7 -44
-16 -49 -21 -6 -5 -20 -9 -32 -9 -12 0 -46 -21 -75 -47 -86 -77 -99 -94 -99
-127 0 -46 -9 -54 -79 -72 -35 -8 -83 -26 -106 -40 -23 -13 -45 -21 -48 -17
-9 8 4 126 14 138 6 5 13 5 21 -3 15 -15 58 -16 58 -1 0 11 -56 64 -88 83 -11
6 -31 19 -44 29 -20 14 -31 15 -51 8 -33 -13 -51 -45 -39 -68 5 -10 12 -68 16
-129 7 -119 5 -126 -44 -137 -14 -3 -54 -25 -90 -47 -36 -22 -87 -51 -115 -65
-27 -13 -63 -35 -79 -49 -16 -14 -34 -26 -40 -26 -19 0 -95 -76 -101 -101 -10
-42 16 -64 73 -63 48 2 54 5 109 61 32 33 76 72 98 86 22 15 58 40 80 56 22
16 52 32 67 35 l28 6 -7 -47 c-8 -61 -15 -75 -49 -93 -28 -15 -79 -66 -99
-100 -5 -9 -23 -37 -39 -61 -16 -24 -42 -76 -57 -116 -51 -131 -99 -210 -174
-288 -25 -25 -45 -50 -45 -54 0 -20 51 -21 78 -2 60 43 199 203 209 241 10 42
67 142 86 154 15 9 21 7 33 -9 8 -11 12 -26 8 -35 -3 -8 -10 -37 -14 -65 -5
-27 -16 -77 -24 -110 -9 -33 -16 -82 -16 -110 0 -64 -23 -190 -43 -235 -18
-42 -7 -70 28 -70 21 0 30 12 61 76 20 43 40 104 45 138 5 34 16 110 24 171 8
60 20 114 25 119 6 6 35 -2 78 -22 38 -18 81 -32 96 -32 26 0 27 -2 21 -32 -9
-47 -124 -285 -159 -332 -28 -36 -29 -40 -15 -65 19 -34 68 -40 107 -13 78 56
286 81 386 47 84 -29 118 -4 76 54 -32 46 -112 66 -257 65 -90 -1 -123 2 -123
11 0 7 20 59 44 116 24 57 56 139 71 182 25 70 29 77 54 77 14 0 59 6 99 14
120 23 239 121 147 121 -17 0 -31 3 -33 8 -1 4 9 29 23 57 14 27 25 55 25 62
1 7 9 31 20 53 11 22 19 46 20 53 0 7 16 34 35 59 28 36 35 55 35 90 0 31 -5
45 -16 50 -31 12 -197 -16 -245 -41 -26 -13 -50 -22 -53 -18 -10 10 -6 253 4
273 6 10 21 19 34 19 13 0 31 9 41 20 20 22 71 50 92 50 7 0 13 5 13 10 0 6 7
10 16 10 20 0 106 88 101 104 -4 12 -44 18 -67 9z m-345 -509 c-1 -135 -10
-211 -51 -394 -19 -88 -35 -130 -49 -130 -5 0 -40 12 -78 27 -94 37 -122 73
-113 146 25 207 38 281 56 314 11 21 20 45 20 54 0 11 26 30 72 54 40 20 83
45 97 55 15 11 30 18 36 16 6 -1 10 -58 10 -142z m263 -66 c-3 -7 -26 -76 -53
-153 -26 -77 -54 -146 -60 -154 -9 -9 -25 -11 -55 -6 l-41 7 6 41 c3 23 16 84
28 135 16 69 25 92 37 91 34 -3 48 2 74 26 28 26 72 35 64 13z m-678 -748 c0
-5 -4 -10 -10 -10 -5 0 -10 5 -10 10 0 6 5 10 10 10 6 0 10 -4 10 -10z"/>
</g>
</svg>
