<?xml version="1.0" standalone="no"?>
<!DOCTYPE svg PUBLIC "-//W3C//DTD SVG 20010904//EN"
 "http://www.w3.org/TR/2001/REC-SVG-20010904/DTD/svg10.dtd">
<svg version="1.0" xmlns="http://www.w3.org/2000/svg"
 width="208.000000pt" height="209.000000pt" viewBox="0 0 208.000000 209.000000"
 preserveAspectRatio="xMidYMid meet">
<metadata>
Created by potrace 1.16, written by Peter Selinger 2001-2019
</metadata>
<g transform="translate(0.000000,209.000000) scale(0.100000,-0.100000)"
fill="#000000" stroke="none">
<path d="M1666 1870 c-28 -3 -52 -12 -54 -19 -9 -27 -58 -70 -112 -99 -120
-64 -176 -91 -205 -98 -16 -3 -34 -12 -40 -18 -5 -7 -36 -22 -67 -35 -32 -13
-62 -29 -69 -37 -6 -8 -17 -14 -24 -14 -8 0 -17 -14 -20 -32 -8 -34 8 -53 51
-64 22 -6 149 59 189 96 11 11 40 28 65 39 25 11 71 38 103 60 32 23 62 41 67
41 15 0 12 -105 -4 -174 -8 -34 -21 -115 -30 -181 -9 -66 -23 -163 -32 -215
-32 -194 -33 -212 -49 -744 -3 -88 -8 -162 -10 -165 -3 -2 -15 1 -28 7 -12 6
-44 13 -71 16 -26 3 -75 18 -106 32 -55 25 -80 26 -80 3 0 -23 69 -70 154
-105 50 -21 105 -49 123 -62 20 -15 42 -22 60 -20 24 3 30 10 41 53 8 28 15
102 17 165 2 63 7 180 10 260 3 80 8 190 10 245 4 91 16 187 60 470 8 55 17
114 19 130 3 17 9 59 16 95 6 36 15 90 20 120 5 30 18 80 30 110 12 30 27 69
32 87 11 31 6 64 -9 62 -4 -1 -30 -5 -57 -9z m-74 -410 c-2 -16 -9 -30 -14
-30 -6 0 -7 7 -4 16 3 9 6 22 6 30 0 8 4 14 8 14 5 0 7 -13 4 -30z"/>
<path d="M526 1739 c-23 -18 -26 -28 -26 -78 0 -32 -7 -102 -15 -157 -8 -54
-15 -104 -15 -111 0 -14 -79 -63 -102 -63 -9 0 -21 -6 -27 -13 -13 -16 -145
-87 -162 -87 -6 0 -33 -14 -60 -31 -72 -47 -87 -110 -31 -137 45 -21 102 -8
102 23 0 22 201 153 238 154 10 1 12 -7 8 -26 -4 -16 -11 -59 -16 -98 -21
-145 -26 -163 -61 -203 -60 -69 -126 -157 -144 -193 -10 -19 -24 -38 -31 -42
-8 -4 -32 -34 -53 -65 -22 -31 -60 -76 -85 -100 -61 -58 -59 -73 8 -64 22 4
58 34 140 118 61 62 126 129 143 149 l33 37 -7 -188 c-3 -104 -11 -213 -17
-244 -10 -49 -14 -55 -33 -52 -36 5 -30 -40 8 -72 43 -37 74 -34 97 9 20 40
40 172 47 318 4 81 9 147 11 147 3 0 23 -12 46 -27 72 -49 158 -88 210 -97 21
-4 51 -18 67 -31 46 -39 81 -28 81 27 0 17 7 31 16 35 31 12 -2 133 -36 133
-4 0 -23 -16 -42 -36 -35 -35 -36 -35 -79 -24 -56 15 -161 85 -182 121 -8 16
-28 31 -42 35 -26 6 -27 9 -23 54 3 26 15 61 26 78 26 35 28 58 7 69 -13 7
-12 24 5 133 11 76 24 128 33 135 8 5 19 26 26 45 7 21 27 46 51 63 22 16 40
32 40 37 0 5 13 16 29 25 37 18 77 73 64 86 -6 6 -41 -8 -93 -36 -46 -25 -86
-45 -88 -45 -9 0 6 144 18 178 8 20 19 32 30 32 11 0 21 4 24 9 6 10 -85 91
-102 91 -5 0 -21 -9 -36 -21z"/>
<path d="M1094 1095 c-20 -31 -12 -55 28 -80 40 -25 134 -163 141 -207 13 -83
-40 -188 -95 -188 -47 0 -67 13 -107 66 -52 70 -75 146 -66 223 5 46 3 60 -9
70 -13 11 -20 11 -41 -3 -41 -27 -48 -52 -42 -139 14 -171 119 -300 243 -299
92 1 165 62 183 154 22 109 -5 257 -53 297 -8 7 -22 32 -32 56 -19 52 -50 75
-98 75 -27 0 -40 -6 -52 -25z"/>
</g>
</svg>
