<?xml version="1.0" standalone="no"?>
<!DOCTYPE svg PUBLIC "-//W3C//DTD SVG 20010904//EN"
 "http://www.w3.org/TR/2001/REC-SVG-20010904/DTD/svg10.dtd">
<svg version="1.0" xmlns="http://www.w3.org/2000/svg"
 width="208.000000pt" height="214.000000pt" viewBox="0 0 208.000000 214.000000"
 preserveAspectRatio="xMidYMid meet">
<metadata>
Created by potrace 1.16, written by Peter Selinger 2001-2019
</metadata>
<g transform="translate(0.000000,214.000000) scale(0.100000,-0.100000)"
fill="#000000" stroke="none">
<path d="M1277 1971 c-39 -40 -50 -114 -43 -294 l7 -167 -25 -23 c-13 -12 -48
-35 -77 -51 -30 -15 -67 -35 -82 -43 -16 -8 -30 -13 -32 -11 -3 2 2 36 11 74
8 38 19 94 23 124 5 30 14 73 20 95 6 22 12 78 13 125 l3 85 -29 3 c-32 4 -56
-23 -68 -73 -6 -28 -42 -223 -53 -292 -5 -29 -8 -32 -34 -27 -33 7 -76 -13
-195 -90 -155 -100 -149 -99 -139 -28 5 40 7 42 39 42 58 0 43 38 -28 70 -25
11 -48 27 -52 35 -8 23 -50 18 -80 -10 -22 -20 -25 -28 -16 -44 16 -31 13
-217 -5 -251 -9 -17 -19 -30 -24 -30 -13 0 -150 -94 -208 -142 -28 -24 -75
-56 -103 -73 -86 -49 -107 -81 -78 -116 21 -25 62 -45 85 -41 12 2 63 44 113
93 49 49 94 89 99 89 5 0 23 14 39 30 35 35 52 38 52 11 0 -22 -59 -73 -132
-115 -26 -15 -57 -43 -68 -62 -12 -19 -25 -34 -29 -34 -3 0 -15 -17 -26 -38
-10 -20 -31 -57 -46 -82 -15 -25 -33 -64 -40 -88 -7 -23 -18 -47 -26 -53 -7
-6 -13 -19 -13 -28 0 -9 -7 -29 -15 -45 -17 -33 -19 -62 -5 -71 26 -16 82 54
158 195 13 24 37 59 53 77 16 18 36 48 46 66 16 30 18 30 21 10 2 -13 9 -23
16 -23 7 0 24 -12 39 -27 l26 -28 -9 -125 c-5 -69 -14 -150 -19 -180 -26 -144
-42 -263 -37 -276 9 -22 48 -16 72 12 13 15 25 46 29 77 9 66 27 100 81 157
51 54 144 170 144 180 0 15 72 80 89 80 25 0 54 35 47 57 -8 25 84 119 139
143 22 9 65 37 95 62 30 25 69 52 86 61 17 9 36 23 43 31 22 26 31 18 31 -28
0 -44 -10 -56 -46 -56 -7 0 -38 -11 -68 -25 -67 -31 -146 -125 -190 -225 -16
-36 -32 -69 -36 -75 -10 -13 -46 -77 -76 -135 -13 -25 -37 -58 -54 -74 -52
-50 -35 -71 35 -42 40 17 115 75 115 88 0 6 15 28 33 51 18 23 54 85 80 139
30 59 70 120 104 157 57 64 88 79 78 39 -6 -25 -8 -50 -26 -308 -12 -181 -20
-220 -43 -201 -17 14 -26 4 -26 -30 0 -35 45 -62 93 -57 54 5 65 40 76 237 5
95 12 175 15 179 3 3 17 -5 30 -17 21 -20 80 -40 206 -71 79 -20 308 -11 338
12 18 15 15 46 -7 57 -10 6 -72 11 -137 13 -116 2 -148 7 -209 33 -16 7 -41
16 -55 20 -14 4 -40 19 -58 33 -25 19 -40 23 -67 19 -19 -3 -35 -3 -35 1 0 4
7 63 16 132 15 122 31 195 44 215 4 6 10 22 14 37 4 18 22 37 49 54 23 15 59
41 79 58 20 17 62 49 93 71 61 42 80 67 71 92 -8 19 -54 12 -94 -15 -61 -42
-141 -92 -148 -92 -4 0 -16 -8 -27 -17 -20 -18 -20 -17 -13 47 4 36 11 81 16
100 4 19 11 47 14 62 4 19 19 34 47 48 76 39 78 105 2 82 -20 -6 -39 -9 -42
-6 -10 10 -11 197 -1 254 5 30 12 71 15 90 6 32 3 37 -25 53 -38 21 -40 21
-63 -2z m-367 -587 c-37 -148 -151 -447 -223 -587 l-51 -99 -34 7 c-36 7 -108
41 -118 56 -6 10 20 204 38 284 6 28 19 66 29 85 11 19 19 40 19 46 0 6 21 30
48 53 26 23 54 47 62 55 8 7 56 42 105 77 50 35 101 74 115 86 13 12 25 21 27
19 2 -1 -6 -38 -17 -82z m304 -76 c-18 -135 -21 -142 -87 -199 -56 -49 -88
-74 -135 -104 -9 -5 -38 -25 -65 -42 -78 -52 -82 -46 -38 55 16 37 33 81 37
97 4 17 13 39 20 50 6 11 15 35 19 53 6 31 9 32 40 26 27 -5 41 -1 72 22 21
15 43 33 48 39 13 15 67 44 83 45 9 0 11 -12 6 -42z m-830 -470 c-6 -32 -10
-36 -42 -42 -20 -3 -38 -4 -40 -1 -2 2 13 25 33 50 42 51 58 48 49 -7z m159
-222 c24 -6 27 -10 21 -29 -4 -12 -15 -34 -25 -49 -11 -14 -19 -30 -19 -35 0
-4 -16 -26 -36 -48 l-35 -40 7 55 c7 54 9 81 12 148 2 31 3 32 25 18 12 -7 35
-17 50 -20z"/>
</g>
</svg>
