<?xml version="1.0" standalone="no"?>
<!DOCTYPE svg PUBLIC "-//W3C//DTD SVG 20010904//EN"
 "http://www.w3.org/TR/2001/REC-SVG-20010904/DTD/svg10.dtd">
<svg version="1.0" xmlns="http://www.w3.org/2000/svg"
 width="208.000000pt" height="215.000000pt" viewBox="0 0 208.000000 215.000000"
 preserveAspectRatio="xMidYMid meet">
<metadata>
Created by potrace 1.16, written by Peter Selinger 2001-2019
</metadata>
<g transform="translate(0.000000,215.000000) scale(0.100000,-0.100000)"
fill="#000000" stroke="none">
<path d="M1354 2023 c-7 -8 -14 -19 -14 -25 0 -6 -18 -47 -39 -92 -22 -44 -45
-103 -51 -130 -17 -77 -89 -219 -147 -290 -33 -40 -27 -76 15 -93 30 -12 34
-11 60 14 29 29 107 139 131 185 7 14 26 40 42 58 16 17 29 34 29 38 0 11 107
102 119 102 26 0 6 -61 -65 -203 -42 -84 -89 -171 -105 -195 -16 -24 -29 -45
-29 -48 0 -2 -16 -27 -35 -54 -19 -27 -35 -54 -35 -59 0 -10 -64 -93 -124
-162 -23 -26 -56 -66 -73 -90 -18 -24 -59 -72 -92 -107 l-60 -63 -21 21 c-18
18 -29 21 -57 15 l-36 -6 6 43 c4 24 13 86 21 138 8 52 17 127 21 165 4 39 16
89 26 112 10 23 19 48 19 57 0 8 35 35 78 61 117 70 157 101 157 122 0 26 -45
28 -94 4 -22 -12 -42 -25 -46 -31 -3 -5 -14 -10 -24 -10 -10 0 -30 -9 -45 -21
-14 -11 -30 -17 -36 -14 -13 8 -11 185 3 255 l12 55 47 0 c53 0 62 6 54 33 -7
21 -45 42 -79 42 -12 0 -31 7 -41 15 -29 22 -72 19 -90 -7 -13 -18 -16 -57
-16 -214 0 -210 -5 -253 -29 -262 -17 -6 -88 -52 -160 -103 -57 -40 -117 -100
-125 -126 -10 -32 9 -66 48 -87 47 -25 86 -11 86 31 0 16 6 35 13 43 23 28
129 120 138 120 6 0 7 -28 4 -67 -10 -109 -10 -110 -65 -134 -36 -15 -65 -40
-109 -92 -33 -40 -69 -81 -79 -92 -28 -29 -105 -154 -120 -195 -25 -65 -25
-68 -2 -80 25 -13 57 3 100 51 29 31 124 69 176 69 l35 0 -6 -58 c-10 -82 -25
-109 -100 -185 -142 -142 -326 -256 -350 -218 -3 6 -15 11 -26 11 -16 0 -19
-4 -14 -22 4 -13 14 -29 23 -35 22 -18 87 -16 125 3 53 27 201 117 215 131 20
19 53 35 59 29 3 -3 -1 -23 -9 -43 -12 -33 -18 -38 -43 -35 -26 3 -27 2 -21
-29 3 -17 6 -35 6 -39 0 -4 11 -15 24 -23 23 -15 26 -15 68 18 39 29 48 43 71
117 15 45 32 107 39 137 10 47 20 60 71 105 33 28 66 58 73 66 8 8 63 66 123
128 61 62 111 117 113 121 2 5 33 42 70 82 37 41 87 95 110 121 l43 47 50 -24
c95 -47 147 -61 227 -60 91 1 117 15 80 45 -13 10 -44 22 -70 25 -56 8 -154
53 -200 92 l-32 28 20 35 c74 131 158 295 187 367 28 67 35 99 36 159 2 62 -1
78 -16 89 -21 15 -84 18 -93 4 -3 -5 -20 -15 -38 -23 -17 -7 -39 -21 -49 -30
-24 -24 -21 -6 8 64 28 66 31 93 13 108 -19 14 -67 12 -84 -5z m-681 -1110
c-12 -77 -18 -86 -56 -99 -21 -7 -51 -22 -66 -34 -16 -11 -32 -20 -35 -20 -15
0 47 91 108 158 41 44 56 42 49 -5z m137 -171 c0 -5 -13 -21 -30 -37 l-30 -29
0 27 c0 25 21 46 48 47 6 0 12 -4 12 -8z"/>
<path d="M1360 730 c-25 -25 -18 -64 15 -96 20 -19 21 -26 14 -82 -11 -78 -37
-130 -84 -168 -43 -34 -65 -42 -124 -43 -38 -1 -48 4 -82 38 -32 32 -39 46
-39 78 0 25 8 50 20 66 11 14 20 28 20 32 0 4 14 24 30 45 17 21 30 41 30 44
0 14 -39 4 -87 -24 -42 -24 -57 -40 -82 -91 -17 -34 -31 -72 -31 -83 1 -43 54
-120 110 -159 55 -39 55 -39 135 -34 83 5 158 30 186 64 106 124 136 363 54
417 -33 22 -61 20 -85 -4z"/>
</g>
</svg>
