<?xml version="1.0" standalone="no"?>
<!DOCTYPE svg PUBLIC "-//W3C//DTD SVG 20010904//EN"
 "http://www.w3.org/TR/2001/REC-SVG-20010904/DTD/svg10.dtd">
<svg version="1.0" xmlns="http://www.w3.org/2000/svg"
 width="209.000000pt" height="214.000000pt" viewBox="0 0 209.000000 214.000000"
 preserveAspectRatio="xMidYMid meet">
<metadata>
Created by potrace 1.16, written by Peter Selinger 2001-2019
</metadata>
<g transform="translate(0.000000,214.000000) scale(0.100000,-0.100000)"
fill="#000000" stroke="none">
<path d="M1237 2070 c-15 -12 -27 -35 -32 -57 -3 -21 -12 -47 -19 -58 -7 -11
-19 -45 -25 -75 -15 -62 -64 -165 -117 -246 -33 -49 -38 -53 -49 -37 -12 16
-16 16 -76 -1 -35 -10 -98 -31 -140 -47 -42 -16 -79 -29 -84 -29 -9 0 1 87 16
129 8 23 17 31 35 31 14 0 27 7 30 15 8 21 -14 45 -41 45 -12 0 -34 9 -48 20
-30 24 -55 25 -81 5 -20 -15 -21 -21 -25 -227 l-1 -66 -42 -25 c-24 -13 -76
-39 -116 -55 -40 -17 -87 -43 -106 -57 -18 -14 -38 -25 -44 -25 -22 0 -89 -74
-116 -127 -33 -66 -35 -124 -4 -153 17 -16 35 -20 84 -20 78 0 89 13 67 77
-14 41 -14 47 3 79 21 38 118 108 198 143 49 21 68 21 61 -2 -2 -7 -6 -35 -8
-63 -4 -41 -20 -77 -79 -180 -42 -71 -81 -147 -88 -169 -34 -106 -117 -273
-153 -307 -49 -47 -10 -99 45 -58 15 11 31 20 36 20 10 0 42 60 42 79 0 16 40
88 56 102 8 7 21 27 29 46 10 23 21 33 36 33 21 0 21 -3 15 -58 -4 -31 -11
-131 -16 -222 -4 -91 -8 -166 -9 -168 -4 -14 -187 -182 -197 -182 -15 0 -44
50 -44 75 0 9 -6 15 -12 13 -8 -3 -14 -25 -16 -54 -3 -64 19 -94 74 -100 34
-4 48 1 114 45 41 28 80 55 87 60 6 6 23 13 37 17 18 4 30 18 42 50 11 29 41
67 88 113 79 76 229 238 234 252 2 5 9 9 16 9 9 0 15 -23 19 -72 9 -113 49
-183 123 -214 46 -19 135 -8 180 22 19 13 39 24 43 24 12 0 81 78 81 92 0 6 6
19 14 27 21 23 46 130 46 194 0 47 -5 60 -32 94 -18 22 -48 51 -66 66 -31 24
-36 24 -65 12 -23 -9 -33 -21 -35 -40 -4 -31 22 -75 44 -75 25 0 64 -47 64
-76 0 -15 -8 -55 -17 -88 -22 -80 -97 -160 -161 -171 -68 -11 -104 27 -126
135 -3 14 1 60 8 103 11 60 21 88 45 117 20 25 31 50 31 70 0 25 11 42 59 86
32 30 80 88 106 129 27 41 51 75 56 75 4 0 34 -29 66 -65 64 -72 98 -84 109
-40 6 26 -17 74 -83 167 -18 26 -33 53 -33 60 0 6 33 61 73 122 149 224 220
355 232 428 6 36 4 43 -16 59 -31 24 -61 24 -145 -2 -69 -22 -179 -86 -242
-140 -55 -49 -64 -39 -38 39 13 37 35 90 49 117 15 28 30 72 33 99 6 41 4 51
-11 62 -25 19 -38 18 -68 -6z m323 -276 c0 -16 -43 -97 -67 -125 -8 -10 -29
-40 -46 -68 -18 -28 -58 -89 -90 -136 -50 -73 -62 -85 -86 -85 -38 0 -50 -18
-44 -63 8 -65 -51 -173 -147 -267 -31 -30 -78 -84 -105 -120 -79 -104 -142
-181 -205 -247 -32 -34 -81 -92 -110 -130 -82 -108 -84 -107 -77 38 6 139 18
185 45 174 28 -11 96 -21 119 -17 25 4 38 29 23 47 -6 7 -37 22 -70 34 -33 12
-64 30 -70 40 -6 13 -5 54 5 127 8 60 18 154 23 209 6 74 16 115 35 158 25 53
32 60 85 83 31 14 66 30 77 36 28 16 95 27 95 16 0 -5 -18 -33 -40 -63 -44
-59 -48 -79 -23 -107 35 -38 81 -10 159 97 16 22 65 73 108 115 44 41 94 90
112 108 18 17 36 32 41 32 7 0 28 14 131 86 24 17 89 43 110 44 6 0 12 -7 12
-16z"/>
</g>
</svg>
