<?xml version="1.0" standalone="no"?>
<!DOCTYPE svg PUBLIC "-//W3C//DTD SVG 20010904//EN"
 "http://www.w3.org/TR/2001/REC-SVG-20010904/DTD/svg10.dtd">
<svg version="1.0" xmlns="http://www.w3.org/2000/svg"
 width="207.000000pt" height="215.000000pt" viewBox="0 0 207.000000 215.000000"
 preserveAspectRatio="xMidYMid meet">
<metadata>
Created by potrace 1.16, written by Peter Selinger 2001-2019
</metadata>
<g transform="translate(0.000000,215.000000) scale(0.100000,-0.100000)"
fill="#000000" stroke="none">
<path d="M1189 2045 c-28 -58 -70 -131 -94 -163 -24 -31 -55 -79 -69 -107 -15
-27 -42 -69 -62 -93 -39 -47 -50 -48 -135 -10 -33 14 -53 32 -68 59 -18 31
-28 39 -51 39 -53 0 -60 -18 -53 -139 l6 -108 -29 -20 c-33 -22 -158 -83 -172
-83 -5 0 -20 -9 -34 -19 -13 -11 -60 -38 -104 -61 -116 -62 -155 -91 -177
-133 -34 -67 -5 -107 78 -107 39 0 64 21 72 62 4 19 19 38 42 53 20 14 56 38
80 56 24 17 54 35 65 40 12 5 50 25 86 44 36 19 68 31 71 27 4 -4 0 -56 -8
-116 l-15 -110 -100 -109 c-54 -60 -107 -121 -116 -135 -9 -14 -26 -36 -37
-47 -11 -12 -42 -51 -69 -86 -27 -35 -55 -69 -61 -74 -7 -6 -22 -30 -35 -54
-21 -42 -21 -45 -5 -57 23 -17 65 3 90 43 10 15 26 37 37 48 33 35 64 76 89
116 25 40 91 82 115 72 8 -3 14 -15 14 -27 0 -27 -26 -135 -50 -211 -10 -33
-28 -89 -40 -125 -21 -69 -60 -116 -161 -192 -26 -19 -57 -45 -70 -57 -28 -26
-41 -26 -64 -1 -10 11 -21 17 -26 14 -13 -8 1 -67 21 -87 16 -17 22 -18 74 -6
31 7 61 18 67 26 18 21 32 15 25 -11 -4 -16 0 -30 10 -40 21 -22 24 -21 72 16
33 25 48 47 69 103 15 38 30 74 35 79 4 6 8 18 8 28 0 10 4 18 8 18 16 0 332
327 332 343 0 4 21 30 47 58 50 54 153 195 178 246 9 17 53 75 97 128 l80 97
47 -6 c58 -9 67 -10 116 -24 52 -13 152 -26 190 -23 17 1 43 -3 59 -9 39 -14
66 -4 66 25 0 33 -36 55 -87 55 -76 0 -313 70 -313 92 0 6 9 22 19 37 11 14
40 70 65 124 25 53 61 121 79 149 57 93 93 176 103 238 13 78 12 84 -18 112
-32 30 -52 28 -125 -13 -51 -29 -228 -173 -248 -202 -8 -11 -18 -18 -22 -14
-3 4 4 22 17 39 13 18 54 92 91 165 l68 133 -59 0 -59 0 -52 -105z m281 -175
c-12 -32 -37 -83 -56 -112 -32 -49 -72 -126 -125 -242 -12 -26 -35 -62 -51
-78 l-29 -30 -34 26 c-37 29 -61 32 -100 14 -49 -22 -24 -104 38 -124 28 -9
15 -45 -39 -112 -25 -32 -72 -95 -104 -142 -99 -144 -144 -199 -167 -206 -26
-7 -82 24 -112 62 -18 23 -19 28 -5 72 7 26 21 94 29 152 16 112 28 170 54
264 12 45 22 61 41 69 14 6 34 18 45 27 33 28 52 30 80 8 24 -18 29 -19 53 -7
26 14 209 184 312 290 30 31 69 63 85 72 17 8 46 29 65 45 19 17 37 26 39 21
1 -6 -7 -37 -19 -69z m-661 -263 c12 -15 5 -27 -16 -27 -7 0 -13 9 -13 20 0
23 13 26 29 7z m-239 -632 c0 -8 -7 -15 -16 -15 -14 0 -14 3 -4 15 7 8 14 15
16 15 2 0 4 -7 4 -15z m30 -119 c0 -3 -4 -8 -10 -11 -5 -3 -10 -1 -10 4 0 6 5
11 10 11 6 0 10 -2 10 -4z m128 -66 c17 0 -12 -41 -78 -113 -55 -58 -58 -54
-35 50 26 113 21 105 63 83 20 -11 43 -20 50 -20z"/>
<path d="M1251 876 c-18 -10 -31 -11 -52 -3 -80 31 -158 -48 -178 -180 -16
-102 -14 -149 9 -223 29 -92 58 -126 120 -139 59 -13 81 -6 132 42 44 42 69
90 93 180 19 72 17 177 -4 227 -5 14 -12 36 -15 50 -4 17 -18 32 -41 43 -20 9
-37 17 -38 17 -1 -1 -13 -7 -26 -14z m-28 -74 c9 -15 27 -43 40 -62 47 -74 21
-255 -45 -301 -42 -31 -65 -18 -85 49 -27 86 -23 205 8 261 13 24 28 52 34 62
14 26 27 24 48 -9z"/>
</g>
</svg>
