<?xml version="1.0" standalone="no"?>
<!DOCTYPE svg PUBLIC "-//W3C//DTD SVG 20010904//EN"
 "http://www.w3.org/TR/2001/REC-SVG-20010904/DTD/svg10.dtd">
<svg version="1.0" xmlns="http://www.w3.org/2000/svg"
 width="208.000000pt" height="213.000000pt" viewBox="0 0 208.000000 213.000000"
 preserveAspectRatio="xMidYMid meet">
<metadata>
Created by potrace 1.16, written by Peter Selinger 2001-2019
</metadata>
<g transform="translate(0.000000,213.000000) scale(0.100000,-0.100000)"
fill="#000000" stroke="none">
<path d="M565 1830 c-43 -17 -47 -32 -36 -134 6 -52 11 -140 11 -194 0 -112 0
-112 -89 -157 -30 -15 -61 -33 -68 -41 -7 -7 -44 -27 -81 -45 -82 -40 -112
-65 -112 -95 0 -32 49 -77 75 -68 11 3 33 8 48 11 15 3 57 32 92 64 36 33 72
59 80 59 34 0 32 10 20 -100 -4 -42 -13 -63 -33 -85 -15 -17 -39 -48 -52 -70
-13 -22 -32 -48 -42 -59 -9 -10 -24 -34 -33 -53 -9 -19 -41 -74 -70 -121 -29
-48 -63 -112 -75 -142 -13 -30 -29 -62 -37 -71 -7 -8 -13 -19 -13 -24 0 -4
-16 -28 -36 -52 -28 -34 -34 -47 -24 -53 14 -8 61 5 70 20 3 4 27 26 55 49 33
27 68 72 107 138 31 54 70 119 85 145 15 27 31 48 34 48 6 0 5 -45 -5 -230 -4
-58 -8 -150 -11 -205 -2 -55 -7 -109 -10 -120 -4 -14 1 -27 13 -38 15 -14 24
-15 49 -6 18 6 33 19 37 32 8 33 15 136 21 297 9 227 12 243 41 202 15 -21 69
-42 111 -42 22 0 116 -32 141 -48 10 -7 8 -26 -8 -93 -11 -46 -29 -109 -41
-139 -11 -30 -28 -75 -36 -100 -9 -25 -24 -54 -33 -65 -29 -33 -32 -69 -9 -99
27 -34 62 -34 94 3 15 16 41 31 58 34 18 3 70 13 117 22 96 18 122 21 270 30
187 11 256 35 248 87 -2 13 -8 22 -13 22 -6 -1 -95 -5 -200 -9 -243 -9 -320
-13 -373 -20 -42 -6 -43 -6 -36 22 3 15 14 54 25 85 10 31 22 76 26 100 l7 43
8 -33 c12 -46 48 -58 113 -38 28 8 75 23 105 32 30 9 61 21 69 27 34 29 200
76 267 77 26 0 47 6 57 18 21 23 21 35 1 73 -15 30 -16 30 -72 23 -31 -3 -61
-10 -67 -14 -5 -4 -32 -10 -58 -12 -56 -7 -65 4 -60 72 2 25 4 82 4 126 0 69
3 85 20 100 11 10 29 33 41 52 25 40 13 55 -34 42 l-29 -9 29 37 c53 68 122
180 164 265 28 57 35 129 13 147 -33 27 -137 5 -190 -41 -11 -9 -43 -30 -72
-46 -28 -15 -79 -55 -113 -87 -48 -47 -60 -64 -58 -85 2 -19 11 -28 33 -34 59
-18 58 -16 56 -112 -3 -104 -20 -147 -87 -212 -51 -49 -57 -82 -19 -107 33
-21 42 -20 81 9 18 14 37 25 42 25 10 0 22 -71 22 -135 0 -46 2 -44 -125 -87
-22 -7 -64 -25 -92 -41 l-53 -28 0 25 c0 14 6 43 14 63 42 113 45 135 51 433
3 162 8 307 11 321 3 15 21 39 41 55 19 16 40 35 47 42 45 53 85 92 111 108
36 22 55 38 141 120 61 58 80 94 50 94 -22 0 -144 -66 -164 -88 -9 -11 -33
-25 -52 -32 -50 -19 -211 -110 -237 -135 -13 -11 -23 -32 -23 -47 0 -15 -7
-31 -16 -36 -14 -8 -15 -23 -5 -138 11 -128 8 -570 -4 -582 -3 -3 -19 2 -36
12 -21 12 -42 17 -65 13 -38 -6 -116 16 -135 39 -15 18 -45 18 -53 -1 -3 -8
-13 -15 -22 -15 -14 0 -16 8 -10 63 4 34 16 96 26 137 10 41 21 107 25 145 4
39 13 81 20 95 8 14 16 42 20 62 5 30 16 44 68 82 104 76 177 147 177 173 0
34 -36 29 -90 -13 -47 -35 -141 -94 -151 -94 -11 0 -18 141 -8 166 5 14 9 36
9 50 0 27 12 31 30 9 30 -36 52 2 23 38 -23 30 -112 107 -121 106 -4 0 -16 -4
-27 -9z m815 -395 c0 -33 -49 -79 -74 -69 -10 4 -5 14 22 39 34 32 52 42 52
30z"/>
</g>
</svg>
