<?xml version="1.0" standalone="no"?>
<!DOCTYPE svg PUBLIC "-//W3C//DTD SVG 20010904//EN"
 "http://www.w3.org/TR/2001/REC-SVG-20010904/DTD/svg10.dtd">
<svg version="1.0" xmlns="http://www.w3.org/2000/svg"
 width="206.000000pt" height="214.000000pt" viewBox="0 0 206.000000 214.000000"
 preserveAspectRatio="xMidYMid meet">
<metadata>
Created by potrace 1.16, written by Peter Selinger 2001-2019
</metadata>
<g transform="translate(0.000000,214.000000) scale(0.100000,-0.100000)"
fill="#000000" stroke="none">
<path d="M1210 1875 c-35 -25 -68 -45 -73 -45 -9 0 -66 -46 -112 -90 -13 -12
-28 -17 -41 -14 -14 4 -31 -3 -50 -19 -26 -23 -27 -27 -17 -63 41 -138 36
-605 -7 -734 -10 -30 -21 -66 -24 -80 -9 -40 -21 -51 -58 -56 -25 -3 -53 4
-88 20 -59 27 -66 26 -98 -14 -22 -28 -22 -31 -7 -59 12 -24 27 -34 70 -46 30
-9 55 -21 55 -26 0 -5 9 -9 20 -9 30 0 25 -21 -26 -107 -42 -72 -45 -80 -33
-102 20 -35 63 -44 119 -24 66 23 441 25 520 2 60 -18 84 -12 95 21 13 40 -9
54 -127 83 -95 23 -137 27 -266 29 -171 1 -174 3 -151 64 15 39 48 60 131 87
38 11 50 12 58 2 12 -15 44 -9 61 11 6 8 21 14 33 14 11 0 104 29 206 63 183
62 185 64 188 93 2 19 -3 36 -13 44 -17 14 -41 10 -268 -54 -99 -27 -98 -28
-92 62 16 229 14 220 46 243 16 11 50 41 76 66 27 25 58 52 71 60 14 10 22 25
22 44 0 26 -3 29 -32 29 -24 -1 -52 -15 -98 -50 -36 -28 -71 -50 -77 -50 -9 0
-13 17 -13 50 0 45 3 51 30 65 17 9 30 20 30 25 0 13 37 50 50 50 6 0 8 -11 4
-25 -10 -40 12 -30 71 30 30 30 59 55 64 55 15 0 51 69 51 98 -1 66 -25 65
-132 -4 -37 -24 -96 -58 -130 -76 -135 -70 -192 -118 -184 -158 3 -14 13 -61
22 -104 17 -76 17 -79 -1 -93 -11 -7 -24 -12 -29 -10 -13 4 -16 458 -3 474 5
7 19 10 32 7 31 -8 81 20 89 50 3 13 40 55 81 94 78 73 88 94 56 112 -29 15
-31 14 -101 -35z m-87 -885 c8 -62 0 -157 -14 -166 -5 -3 -34 -8 -64 -11 -64
-7 -62 -14 -38 111 15 80 20 91 47 107 47 29 60 21 69 -41z"/>
<path d="M528 1753 l-28 -18 0 -171 0 -172 -51 -37 c-27 -21 -84 -52 -124 -70
-41 -18 -80 -37 -88 -43 -7 -6 -33 -20 -59 -31 -80 -34 -111 -88 -70 -123 34
-31 162 3 162 42 0 3 34 23 75 44 42 21 78 43 81 47 3 5 9 9 15 9 15 0 10
-190 -6 -238 -18 -52 -72 -161 -90 -182 -7 -8 -25 -46 -40 -84 -33 -82 -139
-273 -167 -299 -15 -15 -16 -22 -8 -33 16 -18 57 3 92 48 14 18 43 51 63 73
21 22 53 64 71 93 19 28 35 52 36 52 2 0 2 -96 0 -212 -2 -117 -1 -227 3 -245
6 -34 31 -67 45 -58 22 14 42 116 46 244 5 170 9 219 36 406 20 143 22 152 54
188 19 20 34 44 34 52 0 13 -37 41 -50 37 -7 -2 -3 144 5 185 4 21 10 30 19
27 8 -3 19 8 27 30 8 19 34 56 59 83 41 44 70 90 70 113 0 5 -9 12 -20 15 -14
4 -32 -3 -59 -24 -21 -17 -44 -31 -50 -31 -31 0 1 167 39 202 31 29 22 57 -25
75 -65 24 -69 24 -97 6z m-213 -533 c-3 -5 -11 -10 -16 -10 -6 0 -7 5 -4 10 3
6 11 10 16 10 6 0 7 -4 4 -10z"/>
</g>
</svg>
