<?xml version="1.0" standalone="no"?>
<!DOCTYPE svg PUBLIC "-//W3C//DTD SVG 20010904//EN"
 "http://www.w3.org/TR/2001/REC-SVG-20010904/DTD/svg10.dtd">
<svg version="1.0" xmlns="http://www.w3.org/2000/svg"
 width="210.000000pt" height="214.000000pt" viewBox="0 0 210.000000 214.000000"
 preserveAspectRatio="xMidYMid meet">
<metadata>
Created by potrace 1.16, written by Peter Selinger 2001-2019
</metadata>
<g transform="translate(0.000000,214.000000) scale(0.100000,-0.100000)"
fill="#000000" stroke="none">
<path d="M1500 1694 c-19 -8 -55 -32 -80 -53 -66 -55 -69 -56 -80 -27 -8 21
-16 26 -44 26 -61 0 -83 -46 -51 -106 30 -59 22 -74 -95 -175 -41 -35 -78 -69
-83 -76 -4 -6 -24 -22 -45 -34 -48 -30 -53 -38 -46 -76 5 -25 1 -39 -17 -62
-31 -38 -153 -141 -168 -141 -13 0 -7 106 9 170 5 19 13 64 18 100 13 85 40
158 63 171 10 5 29 19 43 32 13 12 45 38 70 57 47 35 60 55 50 71 -10 16 -35
9 -110 -31 -73 -39 -74 -39 -74 -16 0 19 4 22 25 18 21 -4 25 -1 25 21 0 16
-11 34 -29 49 -15 13 -36 35 -46 51 -20 31 -45 34 -79 11 -23 -14 -24 -20 -25
-136 -2 -125 -5 -138 -46 -161 -12 -6 -39 -25 -61 -40 -21 -16 -70 -48 -109
-72 -192 -121 -227 -165 -160 -209 31 -20 40 -20 89 2 23 10 55 23 71 28 24 8
30 15 30 38 -1 28 8 38 105 112 l45 34 3 -43 c2 -23 -1 -85 -8 -137 -11 -100
-25 -126 -81 -156 -22 -11 -119 -141 -119 -159 0 -3 -13 -34 -30 -68 -16 -35
-30 -70 -30 -77 0 -7 -17 -51 -38 -99 -22 -48 -42 -103 -46 -124 -4 -20 -14
-42 -24 -49 -27 -21 -45 -59 -33 -71 16 -16 67 11 97 52 15 20 32 41 38 46 15
13 56 112 56 134 0 9 11 29 25 45 13 16 34 53 45 82 31 83 80 175 89 169 5 -3
7 -47 4 -98 -4 -76 -8 -95 -25 -110 -18 -15 -19 -22 -9 -61 7 -30 8 -60 1 -95
-5 -28 -12 -100 -16 -160 -7 -116 -3 -128 40 -117 31 8 45 46 60 160 7 53 15
99 19 102 3 4 19 2 34 -4 15 -6 57 -16 92 -22 36 -7 76 -20 89 -31 24 -18 25
-18 54 2 20 14 27 26 23 39 -3 10 1 25 10 33 20 21 19 44 -3 56 -9 5 -51 9
-93 10 -82 1 -114 9 -160 42 -30 21 -30 17 -15 179 2 19 4 43 5 52 1 10 23 28
55 43 30 15 62 35 71 45 9 10 38 27 64 39 26 11 54 27 61 36 7 8 17 15 22 15
5 0 19 9 31 21 12 11 46 32 75 46 29 14 74 41 99 60 58 44 114 76 121 68 3 -3
1 -26 -6 -50 -7 -25 -12 -60 -12 -78 0 -73 -12 -107 -41 -122 -35 -19 -39 -19
-39 -1 0 8 -5 18 -10 21 -15 9 -42 -15 -38 -34 5 -21 -38 -47 -93 -56 -55 -9
-109 -49 -109 -80 0 -23 37 -55 64 -55 26 0 123 40 161 65 20 14 49 25 65 25
l29 0 0 -125 c1 -68 1 -128 2 -132 4 -22 -6 -32 -68 -62 -78 -38 -73 -35 -144
-82 -30 -20 -65 -40 -79 -44 -26 -8 -57 -31 -135 -99 -54 -46 -58 -75 -15
-106 26 -19 33 -20 54 -8 40 22 170 110 187 127 52 51 139 110 182 122 25 7
27 5 27 -19 0 -52 20 -102 40 -102 30 0 50 40 57 114 6 71 21 91 87 116 33 12
43 35 25 56 -10 13 -24 15 -61 11 -60 -7 -61 -5 -60 170 0 107 3 136 16 149
14 13 14 19 3 41 -21 38 4 167 48 253 7 14 18 42 24 62 7 20 19 42 27 48 9 8
14 32 14 72 l0 59 -37 -7 c-22 -4 -61 -25 -93 -51 -85 -67 -158 -115 -169
-112 -6 2 17 33 51 69 33 36 77 90 96 120 20 30 61 78 91 107 105 99 121 116
121 133 0 33 -52 39 -110 14z"/>
</g>
</svg>
