<?xml version="1.0" standalone="no"?>
<!DOCTYPE svg PUBLIC "-//W3C//DTD SVG 20010904//EN"
 "http://www.w3.org/TR/2001/REC-SVG-20010904/DTD/svg10.dtd">
<svg version="1.0" xmlns="http://www.w3.org/2000/svg"
 width="208.000000pt" height="213.000000pt" viewBox="0 0 208.000000 213.000000"
 preserveAspectRatio="xMidYMid meet">
<metadata>
Created by potrace 1.16, written by Peter Selinger 2001-2019
</metadata>
<g transform="translate(0.000000,213.000000) scale(0.100000,-0.100000)"
fill="#000000" stroke="none">
<path d="M1330 1983 c-34 -14 -50 -41 -84 -144 -61 -186 -102 -286 -183 -448
l-87 -173 -78 -55 c-43 -30 -78 -58 -78 -63 0 -9 -62 -40 -71 -35 -9 6 29 224
45 260 8 17 22 57 31 90 20 72 27 82 87 123 63 43 81 77 59 110 -10 16 -47 0
-95 -42 -38 -34 -56 -33 -56 2 0 33 51 138 75 156 26 19 12 61 -27 80 -37 19
-58 20 -92 5 -30 -14 -33 -23 -52 -205 l-15 -147 -42 -38 c-23 -21 -47 -38
-54 -39 -6 0 -24 -11 -40 -24 -15 -13 -51 -36 -78 -51 -78 -44 -83 -48 -89
-68 -8 -32 14 -74 45 -88 26 -10 40 -9 86 5 53 17 76 35 115 87 18 24 18 23
13 -26 -3 -27 -8 -60 -11 -73 -2 -13 -9 -65 -13 -116 -10 -100 -33 -165 -82
-226 -16 -19 -31 -51 -35 -70 -4 -19 -15 -51 -24 -70 -26 -50 -66 -159 -75
-200 -17 -82 -99 -290 -117 -298 -13 -6 -9 -32 5 -32 22 0 35 14 84 90 50 78
108 192 119 235 3 14 11 28 16 31 6 4 8 -1 5 -12 -4 -11 -9 -68 -13 -129 -3
-60 -17 -161 -30 -224 -34 -162 -35 -161 25 -161 l48 0 6 53 c5 47 36 197 44
206 1 2 8 -1 15 -6 36 -28 85 8 158 117 19 29 44 60 54 69 10 9 34 29 53 45
18 15 50 58 71 95 l37 66 4 -50 c2 -27 -2 -134 -9 -237 -12 -171 -11 -190 4
-213 23 -36 78 -35 94 0 15 32 15 60 2 86 -12 21 12 407 30 489 5 25 12 71 16
102 8 87 20 95 149 112 61 8 120 17 133 21 28 9 29 -7 2 -45 -31 -44 -48 -143
-53 -310 -8 -299 22 -600 59 -600 32 0 37 44 40 349 3 311 13 421 44 501 31
80 34 116 10 133 -18 13 -20 18 -9 35 7 10 9 27 6 37 -7 18 -41 18 -132 -2
-22 -4 -67 -6 -100 -3 -59 5 -60 6 -58 33 1 16 16 50 32 76 17 26 31 53 31 59
0 6 14 27 30 45 17 19 30 41 30 49 0 8 9 23 20 33 11 10 20 25 20 34 0 9 12
28 28 42 15 14 33 34 41 46 8 12 24 24 36 27 38 10 115 126 83 126 -5 0 -22
-8 -36 -17 -15 -10 -34 -22 -44 -28 -9 -5 -30 -20 -47 -33 l-31 -23 0 23 c1
13 7 34 15 48 8 14 14 35 15 48 0 12 7 25 15 28 24 10 18 33 -17 65 -38 34
-56 36 -92 8 -21 -16 -26 -29 -26 -62 0 -48 -32 -185 -56 -238 -9 -22 -32 -46
-56 -60 -22 -13 -52 -34 -67 -46 -16 -12 -39 -27 -52 -33 -13 -5 -32 -15 -41
-22 -44 -32 -19 21 51 108 24 29 101 160 101 171 0 6 13 26 29 44 16 18 36 53
45 78 27 84 76 181 106 213 17 17 30 39 30 48 0 37 -54 60 -100 43z m-179
-832 c-12 -22 -21 -45 -21 -51 0 -6 -26 -54 -59 -108 -32 -53 -62 -108 -66
-122 -4 -14 -15 -36 -25 -50 -10 -14 -37 -63 -60 -110 -39 -80 -98 -167 -145
-216 -11 -12 -39 -60 -62 -106 -30 -60 -50 -88 -69 -97 l-27 -12 7 98 c7 103
19 170 33 184 4 4 42 11 83 14 79 7 95 14 103 45 7 27 -16 37 -87 39 -33 0
-63 4 -67 8 -7 8 25 205 36 223 3 4 34 25 70 45 36 20 89 60 118 88 28 29 73
69 98 90 55 44 153 98 157 87 2 -5 -6 -27 -17 -49z"/>
</g>
</svg>
