<?xml version="1.0" standalone="no"?>
<!DOCTYPE svg PUBLIC "-//W3C//DTD SVG 20010904//EN"
 "http://www.w3.org/TR/2001/REC-SVG-20010904/DTD/svg10.dtd">
<svg version="1.0" xmlns="http://www.w3.org/2000/svg"
 width="208.000000pt" height="212.000000pt" viewBox="0 0 208.000000 212.000000"
 preserveAspectRatio="xMidYMid meet">
<metadata>
Created by potrace 1.16, written by Peter Selinger 2001-2019
</metadata>
<g transform="translate(0.000000,212.000000) scale(0.100000,-0.100000)"
fill="#000000" stroke="none">
<path d="M1186 2098 c-17 -26 -47 -134 -72 -258 -19 -96 -41 -126 -131 -187
-47 -31 -90 -81 -123 -143 -17 -31 -3 -57 37 -71 35 -11 38 -10 66 21 15 17
31 30 33 27 3 -3 -8 -46 -25 -96 -17 -51 -40 -133 -52 -184 -19 -84 -43 -169
-101 -360 -29 -95 -31 -97 -120 -82 -64 11 -128 29 -128 37 0 2 7 25 15 52 16
51 30 158 40 291 6 74 15 114 52 221 8 22 28 51 45 65 29 23 41 35 81 82 10
12 17 30 15 41 -5 34 -37 31 -77 -7 -47 -45 -80 -63 -85 -45 -22 70 -4 180 30
187 46 8 61 55 22 70 -97 36 -121 38 -149 10 -20 -20 -21 -28 -15 -143 4 -66
9 -140 12 -163 6 -40 4 -43 -27 -58 -19 -8 -53 -26 -76 -40 -23 -13 -75 -36
-115 -50 -83 -30 -118 -58 -118 -93 0 -33 45 -71 79 -66 87 12 109 22 126 54
14 27 101 85 109 72 2 -4 1 -42 -3 -86 -6 -74 -9 -80 -41 -107 -61 -50 -82
-73 -118 -129 -20 -30 -52 -75 -72 -100 -20 -25 -41 -57 -49 -71 -7 -15 -24
-38 -37 -52 -13 -14 -24 -29 -24 -32 0 -11 -72 -118 -99 -148 -17 -19 -22 -30
-14 -38 24 -24 94 21 148 95 11 15 35 43 53 62 17 19 32 38 32 42 0 4 12 20
26 36 l26 30 44 -24 c49 -25 50 -29 29 -114 -8 -34 -24 -113 -35 -176 -15 -80
-31 -132 -53 -171 -29 -55 -31 -89 -5 -89 19 0 29 10 74 67 34 43 47 73 72
165 16 62 36 144 42 182 l13 68 41 -7 c47 -9 77 -12 125 -14 28 -1 32 -4 25
-19 -4 -9 -18 -48 -30 -85 -27 -77 -91 -244 -104 -269 -22 -40 -60 -143 -60
-161 0 -13 5 -17 16 -13 9 3 18 6 20 6 2 0 4 6 4 13 0 6 14 25 31 42 25 25 84
131 103 188 3 9 10 17 16 17 10 0 71 115 85 160 4 14 22 57 40 95 17 39 35 90
39 115 10 64 56 210 66 210 5 0 22 -8 38 -17 29 -17 31 -17 71 12 23 15 55 42
71 58 17 17 32 28 34 26 3 -3 -1 -50 -9 -104 -27 -188 -61 -310 -119 -426 -40
-79 -62 -109 -82 -109 -23 0 -96 -45 -120 -73 -33 -39 -30 -53 18 -83 32 -20
45 -24 57 -16 9 6 58 35 110 64 51 29 96 58 98 65 3 7 15 13 28 13 12 0 28 7
35 15 7 8 20 15 30 15 9 0 28 8 41 18 45 33 104 60 159 72 30 7 91 29 135 51
44 21 118 52 165 69 143 53 181 72 178 89 -3 12 -16 16 -56 15 -52 -2 -228
-40 -247 -54 -13 -10 -222 -80 -238 -80 -11 0 -103 -42 -179 -82 -25 -13 -38
-15 -38 -7 0 19 23 93 32 104 4 5 8 19 8 31 0 12 6 27 14 33 20 17 70 235 80
348 9 98 26 142 76 190 25 24 56 51 70 60 30 18 64 83 50 97 -6 6 -16 4 -27
-6 -25 -21 -130 -78 -144 -78 -20 0 -5 167 17 191 25 27 9 51 -42 62 -31 6
-43 4 -64 -11 -25 -19 -25 -20 -25 -182 l0 -162 -40 -21 c-22 -11 -44 -25 -50
-32 -5 -7 -31 -24 -57 -38 -38 -20 -48 -22 -48 -10 0 32 50 212 105 378 48
143 82 202 164 285 80 80 180 160 200 160 6 0 16 10 22 23 6 12 28 34 50 49
39 28 50 54 26 64 -23 8 -91 -27 -243 -128 -53 -35 -99 -61 -102 -58 -11 9 -1
64 14 81 13 14 45 89 61 142 14 46 -73 68 -101 25z m-682 -1165 c-10 -58 -22
-83 -38 -83 -26 0 -29 20 -10 58 38 74 59 85 48 25z"/>
</g>
</svg>
