<?xml version="1.0" standalone="no"?>
<!DOCTYPE svg PUBLIC "-//W3C//DTD SVG 20010904//EN"
 "http://www.w3.org/TR/2001/REC-SVG-20010904/DTD/svg10.dtd">
<svg version="1.0" xmlns="http://www.w3.org/2000/svg"
 width="206.000000pt" height="206.000000pt" viewBox="0 0 206.000000 206.000000"
 preserveAspectRatio="xMidYMid meet">
<metadata>
Created by potrace 1.16, written by Peter Selinger 2001-2019
</metadata>
<g transform="translate(0.000000,206.000000) scale(0.100000,-0.100000)"
fill="#000000" stroke="none">
<path d="M1197 1894 l-27 -15 5 -117 c4 -64 11 -155 17 -201 l10 -84 -28 -22
c-16 -12 -49 -39 -74 -58 -25 -20 -74 -53 -110 -73 -36 -20 -78 -47 -95 -58
-16 -12 -59 -36 -95 -54 -82 -39 -126 -90 -112 -130 4 -15 21 -33 35 -40 30
-15 45 -6 162 94 33 28 76 59 95 69 19 10 77 47 128 82 52 36 99 62 106 60 12
-5 46 -160 46 -210 0 -28 -31 -53 -54 -44 -8 3 -15 29 -18 62 -6 66 -24 91
-63 81 -37 -9 -53 -53 -44 -119 15 -101 15 -100 -52 -135 -33 -18 -65 -32 -70
-32 -14 0 -11 22 7 42 14 14 14 20 4 33 -18 21 -25 20 -87 -22 -55 -36 -55
-37 -50 -78 4 -45 -6 -75 -26 -75 -7 0 -34 -11 -61 -25 -27 -14 -54 -25 -59
-25 -6 0 -27 18 -47 40 -36 39 -38 40 -65 26 -16 -8 -32 -13 -37 -10 -13 8 -9
113 7 179 8 33 15 73 15 90 0 16 9 61 21 100 18 60 29 78 79 125 96 93 148
177 120 195 -6 4 -46 -24 -91 -61 -44 -36 -82 -64 -85 -61 -15 15 38 219 73
281 15 27 15 30 -2 43 -11 7 -30 14 -44 15 -83 5 -97 -11 -104 -115 -5 -76
-18 -168 -36 -257 -5 -25 -15 -39 -36 -50 -46 -22 -127 -50 -147 -50 -28 0
-68 -30 -68 -50 0 -10 7 -34 15 -54 13 -32 19 -36 51 -36 23 0 54 12 90 35 68
43 76 44 70 3 -3 -18 -10 -66 -17 -106 -8 -53 -16 -75 -30 -82 -10 -6 -19 -21
-19 -33 0 -12 -32 -77 -70 -145 -39 -68 -70 -127 -70 -132 0 -22 44 -4 93 37
34 27 51 21 42 -16 -20 -81 -27 -134 -40 -306 -8 -104 -12 -198 -9 -207 24
-79 89 98 114 307 11 97 38 225 50 238 7 8 36 -19 103 -94 l27 -31 48 27 c26
15 70 29 98 32 l51 5 11 -45 c7 -25 15 -90 18 -146 8 -115 17 -131 63 -111 36
15 41 42 31 180 -7 98 -5 197 5 246 4 19 121 102 130 92 4 -4 14 -68 35 -223
10 -73 25 -220 51 -480 9 -97 24 -155 39 -155 4 0 13 26 20 58 11 46 26 71 79
134 37 42 74 77 83 77 21 1 38 -28 38 -65 0 -33 72 -104 106 -104 23 0 83 52
85 73 1 17 3 27 34 152 31 129 57 210 79 253 9 17 16 40 16 50 0 10 9 27 19
36 11 10 23 32 26 50 4 17 21 64 37 104 17 40 27 76 24 79 -6 6 -43 -33 -82
-85 -9 -12 -15 -6 -33 32 -16 32 -31 48 -49 53 -15 3 -27 2 -29 -4 -2 -6 -26
-39 -53 -73 -28 -34 -50 -65 -50 -70 0 -6 -18 -39 -40 -75 -22 -36 -40 -69
-40 -74 0 -5 -6 -14 -14 -20 -11 -9 -16 0 -29 46 -18 66 -48 235 -72 398 -8
61 -18 124 -21 140 -27 162 -27 239 1 276 18 24 118 109 128 109 3 0 4 -109 3
-242 -2 -134 -1 -249 2 -255 7 -20 26 -15 51 11 25 26 42 110 41 199 -1 60 18
243 30 282 4 17 11 73 14 126 6 87 4 97 -14 117 -27 28 -45 28 -75 -3 -18 -17
-25 -35 -25 -61 0 -30 -8 -44 -42 -78 -73 -70 -141 -126 -155 -126 -19 0 -26
45 -13 84 10 31 14 35 31 26 25 -14 38 14 20 42 -6 10 -9 23 -6 27 8 14 -40
110 -71 142 -31 33 -38 34 -77 13z m78 -895 c4 -6 20 -84 35 -174 15 -90 31
-168 34 -174 15 -24 27 -121 17 -140 -7 -13 -7 -28 0 -49 9 -27 6 -37 -36
-102 -26 -40 -50 -69 -55 -64 -7 8 -34 280 -49 504 -9 134 23 251 54 199z
m468 -195 c-6 -17 -43 -88 -86 -166 -15 -27 -40 -87 -57 -135 -44 -128 -41
-122 -56 -88 -17 38 -17 86 -2 122 15 35 65 110 89 134 10 10 25 33 35 51 14
28 72 98 81 98 1 0 0 -7 -4 -16z"/>
</g>
</svg>
