<?xml version="1.0" standalone="no"?>
<!DOCTYPE svg PUBLIC "-//W3C//DTD SVG 20010904//EN"
 "http://www.w3.org/TR/2001/REC-SVG-20010904/DTD/svg10.dtd">
<svg version="1.0" xmlns="http://www.w3.org/2000/svg"
 width="204.000000pt" height="207.000000pt" viewBox="0 0 204.000000 207.000000"
 preserveAspectRatio="xMidYMid meet">
<metadata>
Created by potrace 1.16, written by Peter Selinger 2001-2019
</metadata>
<g transform="translate(0.000000,207.000000) scale(0.100000,-0.100000)"
fill="#000000" stroke="none">
<path d="M1286 2048 c-23 -36 -37 -154 -30 -266 5 -77 3 -104 -7 -119 -22 -30
-200 -184 -223 -193 -39 -15 -116 -91 -116 -114 0 -49 70 -74 106 -38 29 29
249 212 255 212 10 0 30 -55 44 -123 7 -34 23 -98 35 -142 21 -76 21 -80 4
-92 -10 -7 -23 -12 -29 -10 -12 4 -24 64 -24 128 -1 25 -7 53 -14 63 -12 17
-18 17 -50 7 -47 -16 -57 -35 -57 -107 0 -45 -3 -55 -12 -46 -9 9 -24 5 -65
-18 -29 -17 -60 -30 -68 -30 -25 0 -33 -40 -20 -98 l13 -53 -37 -18 c-59 -30
-119 -45 -133 -34 -7 6 -31 16 -53 23 -22 7 -60 23 -84 36 -25 14 -52 22 -63
19 -16 -6 -18 -1 -18 37 0 24 9 81 20 127 11 47 23 116 25 156 6 91 47 176
113 235 63 55 58 51 87 86 30 39 46 79 39 99 -9 22 -19 19 -61 -21 -59 -57
-119 -104 -131 -104 -6 0 -8 27 -5 78 5 69 3 80 -19 112 -27 40 -61 49 -88 25
-16 -14 -18 -28 -15 -88 11 -193 9 -206 -18 -235 -15 -15 -52 -41 -84 -57 -32
-17 -69 -38 -82 -47 -12 -10 -39 -20 -60 -24 -20 -4 -40 -10 -46 -14 -5 -3
-32 -15 -60 -25 -56 -20 -84 -48 -85 -84 0 -46 62 -66 118 -38 47 23 114 58
202 103 47 24 86 44 87 44 2 0 3 -19 3 -43 0 -47 -10 -64 -53 -91 -15 -9 -33
-29 -38 -44 -13 -34 -48 -111 -61 -137 -6 -10 -28 -69 -48 -130 -62 -181 -114
-279 -212 -396 -21 -26 -38 -52 -38 -58 0 -24 42 -9 84 32 24 23 52 50 62 59
29 26 44 45 96 125 47 72 56 90 109 213 29 70 44 86 35 40 -10 -49 -24 -230
-31 -392 l-6 -138 25 0 c16 0 32 11 47 32 19 27 24 50 31 157 7 112 19 222 34
289 3 17 8 21 17 14 16 -13 172 -36 193 -28 11 4 19 -2 26 -22 10 -25 47 -52
71 -52 5 0 32 11 59 25 27 14 54 22 60 19 11 -7 1 -174 -12 -209 -11 -28 6
-65 29 -65 55 0 81 41 81 127 0 32 7 82 14 110 8 29 12 61 9 72 -5 19 27 61
46 61 5 0 12 -44 15 -97 4 -54 13 -126 21 -160 8 -34 22 -128 31 -210 15 -144
22 -171 42 -159 24 14 32 253 17 531 -7 145 -7 151 15 178 37 46 50 38 65 -43
4 -19 18 -75 32 -123 18 -65 22 -92 14 -100 -15 -15 -14 -70 3 -102 11 -21 12
-34 4 -54 -21 -54 -78 -247 -78 -263 0 -31 26 -19 56 25 16 23 41 57 56 75 15
18 28 39 28 47 0 38 23 18 62 -55 33 -61 51 -84 77 -96 45 -22 64 -9 73 47 4
24 13 67 21 94 51 182 89 336 93 379 3 28 9 65 14 81 5 17 10 57 12 90 2 47 0
60 -11 60 -18 0 -58 -93 -110 -260 -36 -117 -46 -152 -66 -247 -3 -16 -9 -28
-13 -28 -10 0 -42 109 -42 145 0 30 40 134 79 210 24 44 25 64 10 118 -8 29
-15 37 -33 37 -38 0 -76 -55 -106 -155 -18 -59 -27 -62 -40 -14 -7 24 -16 55
-21 69 -5 14 -15 54 -22 90 -12 58 -12 69 3 103 23 52 15 85 -23 95 -35 9 -45
34 -78 206 -28 144 -23 175 39 231 26 24 50 41 53 39 4 -2 10 -46 14 -96 4
-51 12 -104 18 -118 5 -14 12 -65 16 -114 7 -98 17 -114 64 -102 27 6 27 7 27
104 0 53 -5 115 -12 137 -12 45 -16 256 -4 327 6 40 4 50 -13 67 -29 29 -40
27 -80 -20 -93 -108 -135 -149 -152 -149 -17 0 -19 8 -19 67 0 37 5 82 12 100
10 28 17 33 44 33 17 0 37 -7 44 -15 16 -19 30 -19 30 1 0 8 -17 31 -37 50
-30 29 -47 36 -94 41 -52 5 -58 4 -73 -19z m-87 -940 c1 -18 -5 -29 -19 -33
-44 -14 -52 19 -18 66 20 26 23 28 30 12 3 -10 7 -30 7 -45z"/>
</g>
</svg>
