<?xml version="1.0" standalone="no"?>
<!DOCTYPE svg PUBLIC "-//W3C//DTD SVG 20010904//EN"
 "http://www.w3.org/TR/2001/REC-SVG-20010904/DTD/svg10.dtd">
<svg version="1.0" xmlns="http://www.w3.org/2000/svg"
 width="209.000000pt" height="207.000000pt" viewBox="0 0 209.000000 207.000000"
 preserveAspectRatio="xMidYMid meet">
<metadata>
Created by potrace 1.16, written by Peter Selinger 2001-2019
</metadata>
<g transform="translate(0.000000,207.000000) scale(0.100000,-0.100000)"
fill="#000000" stroke="none">
<path d="M1262 2020 c-12 -5 -27 -22 -33 -37 -6 -15 -17 -41 -24 -58 -7 -16
-22 -64 -34 -105 -35 -121 -65 -214 -72 -225 -4 -5 -10 -26 -13 -45 -4 -19
-19 -63 -34 -98 -41 -95 -236 -480 -255 -502 -13 -16 -21 -18 -45 -9 -16 6
-40 21 -53 35 -12 13 -31 24 -42 24 -15 0 -18 5 -13 28 6 29 22 124 31 183 3
21 12 42 20 49 8 7 15 20 15 30 0 22 23 42 88 74 28 14 52 30 52 34 0 5 18 16
41 26 50 22 70 59 46 83 -16 16 -20 16 -62 -5 -25 -12 -50 -22 -55 -22 -5 0
-26 -11 -46 -25 -20 -14 -45 -25 -56 -25 -17 0 -18 5 -12 53 4 28 14 62 21 74
14 20 12 26 -14 65 -35 53 -71 68 -106 45 -25 -16 -25 -18 -25 -164 -1 -139
-2 -149 -22 -165 -12 -10 -30 -18 -40 -18 -9 0 -28 -8 -41 -18 -13 -10 -77
-44 -142 -76 -122 -60 -157 -91 -157 -135 1 -50 22 -64 90 -59 56 4 64 8 98
44 20 22 61 53 90 69 28 15 52 31 52 35 0 4 11 12 25 18 24 11 25 11 25 -28 0
-33 -5 -43 -35 -66 -19 -14 -35 -30 -35 -34 0 -5 -19 -44 -42 -87 -24 -43 -53
-103 -64 -133 -67 -173 -147 -366 -155 -374 -16 -17 -10 -46 10 -46 21 0 68
50 82 87 5 13 13 23 19 23 6 0 15 10 20 23 6 12 14 29 19 37 5 8 32 63 61 122
62 129 76 143 67 67 -3 -30 -11 -115 -18 -189 -13 -149 -15 -155 -96 -241 -46
-48 -57 -55 -84 -51 -29 4 -30 3 -23 -24 10 -42 12 -44 48 -44 24 0 42 9 69
36 49 50 67 41 67 -31 0 -52 1 -55 24 -55 43 0 64 44 70 146 5 96 15 128 56
184 35 49 115 149 145 183 14 15 25 31 25 35 0 15 86 92 103 92 10 0 23 12 29
26 10 22 10 28 -4 38 -16 11 -13 21 30 107 26 52 48 96 50 98 1 3 20 -5 41
-17 39 -22 40 -22 73 -4 18 10 54 30 79 44 26 15 68 42 95 61 27 19 63 42 79
50 17 9 53 36 80 61 28 25 53 46 58 46 9 0 87 80 87 89 0 30 -69 42 -90 16
-18 -22 -44 -20 -35 3 26 62 23 269 -4 321 -14 25 -22 26 -62 5 -29 -15 -31
-18 -26 -62 10 -91 50 -267 64 -283 12 -15 10 -20 -24 -46 -21 -16 -63 -43
-93 -58 -30 -16 -62 -34 -70 -40 -8 -7 -37 -20 -65 -30 -27 -10 -63 -27 -80
-37 -57 -35 -59 -20 -8 83 50 101 112 277 164 464 12 44 31 90 42 102 24 27
40 105 27 138 -10 26 -29 30 -68 15z m-292 -870 c0 -5 -4 -10 -10 -10 -5 0
-10 5 -10 10 0 6 5 10 10 10 6 0 10 -4 10 -10z m-325 -269 c3 -5 19 -12 35
-16 16 -4 32 -10 35 -15 5 -9 -86 -154 -105 -165 -12 -8 -10 60 6 168 6 36 17
47 29 28z"/>
<path d="M1472 1093 c-22 -20 -35 -43 -43 -78 -20 -87 -92 -268 -97 -243 -2 9
-19 22 -38 28 -45 15 -60 42 -44 80 17 42 6 53 -47 45 -66 -10 -112 -32 -118
-58 -8 -28 -75 -79 -123 -92 -33 -9 -37 -15 -40 -46 -3 -34 0 -38 56 -74 38
-23 65 -50 76 -71 18 -38 44 -44 69 -16 21 23 21 49 1 87 -47 85 -47 85 -34
116 7 16 15 29 18 29 3 0 23 -12 45 -27 28 -20 55 -28 98 -31 32 -2 59 -9 59
-15 0 -12 -37 -75 -61 -102 -9 -11 -26 -38 -38 -60 -35 -67 -150 -181 -196
-194 -22 -6 -57 -27 -78 -47 -46 -44 -48 -85 -5 -117 l28 -21 28 21 c40 30
155 78 247 103 44 12 85 27 92 32 7 5 41 12 77 14 35 2 76 8 91 14 35 13 112
13 120 0 5 -8 11 -7 21 1 7 6 20 9 28 6 28 -11 47 27 44 84 l-3 54 -67 -2
c-37 -1 -81 -9 -97 -18 -16 -8 -73 -20 -126 -26 -54 -5 -108 -15 -122 -20 -13
-5 -36 -9 -50 -9 l-25 0 19 29 c35 55 78 113 126 168 26 31 50 68 53 82 4 14
12 35 18 46 7 11 20 43 30 70 10 28 27 65 38 83 23 38 58 130 58 153 0 17 -30
49 -46 49 -5 0 -24 -12 -42 -27z"/>
</g>
</svg>
