<?xml version="1.0" standalone="no"?>
<!DOCTYPE svg PUBLIC "-//W3C//DTD SVG 20010904//EN"
 "http://www.w3.org/TR/2001/REC-SVG-20010904/DTD/svg10.dtd">
<svg version="1.0" xmlns="http://www.w3.org/2000/svg"
 width="206.000000pt" height="207.000000pt" viewBox="0 0 206.000000 207.000000"
 preserveAspectRatio="xMidYMid meet">
<metadata>
Created by potrace 1.16, written by Peter Selinger 2001-2019
</metadata>
<g transform="translate(0.000000,207.000000) scale(0.100000,-0.100000)"
fill="#000000" stroke="none">
<path d="M1030 1969 c-14 -6 -36 -24 -49 -40 -29 -37 -82 -163 -106 -253 -17
-61 -22 -70 -54 -84 -20 -9 -50 -29 -67 -45 -17 -15 -62 -44 -100 -63 l-69
-35 -3 42 c-4 45 7 59 45 59 12 0 25 5 29 12 12 20 -33 45 -93 53 -52 6 -59 5
-76 -16 -17 -21 -18 -35 -12 -126 l7 -103 -35 -20 c-20 -12 -38 -27 -40 -35
-3 -7 -18 -16 -34 -19 -15 -4 -47 -21 -70 -39 -23 -17 -60 -44 -81 -59 -46
-32 -60 -69 -38 -103 26 -40 115 -36 149 7 39 50 101 108 115 108 12 0 14 -14
10 -76 -5 -73 -7 -78 -44 -114 -43 -41 -96 -111 -124 -162 -24 -45 -71 -131
-108 -198 -16 -30 -40 -84 -53 -118 -12 -35 -30 -69 -39 -75 -16 -10 -16 -47
0 -47 25 0 72 36 85 66 8 19 19 34 24 34 6 0 11 5 11 12 0 6 7 19 16 29 9 10
40 64 68 121 29 56 57 103 64 106 6 2 20 -16 31 -39 20 -40 20 -45 6 -107 -9
-36 -20 -109 -25 -161 -11 -108 -38 -241 -51 -255 -16 -18 -9 -44 12 -49 31
-8 46 1 65 41 9 20 22 44 29 52 13 16 39 149 50 257 8 87 27 138 51 138 16 0
20 -10 25 -75 3 -41 11 -93 16 -115 25 -92 24 -232 -2 -297 -6 -14 -2 -18 18
-18 21 0 32 11 59 58 l33 57 0 147 c1 81 3 149 6 152 3 3 16 -1 30 -8 31 -16
60 -6 82 28 10 14 22 26 27 26 10 0 8 -155 -5 -447 l-8 -173 34 0 c32 0 35 3
46 43 7 23 14 71 18 107 7 77 34 180 47 180 5 0 28 -9 50 -20 24 -12 62 -20
90 -20 27 0 59 -7 72 -15 34 -23 70 -4 84 44 9 31 29 244 24 262 -4 19 21 195
39 264 33 133 40 159 53 196 15 42 9 99 -10 99 -22 0 -24 14 -14 101 5 46 11
140 14 208 3 69 8 141 12 160 6 40 46 143 81 209 27 50 29 84 8 106 -25 25
-82 -5 -114 -59 -10 -18 -45 -53 -77 -76 -31 -24 -82 -63 -113 -87 -31 -23
-69 -50 -85 -60 -15 -9 -44 -27 -63 -40 -20 -13 -38 -21 -41 -18 -14 15 74
221 122 285 31 41 33 72 8 94 -21 19 -27 20 -62 6z m235 -341 c-3 -24 -11
-146 -15 -273 -5 -126 -12 -242 -16 -258 -4 -16 -30 -47 -63 -75 -71 -61 -152
-122 -161 -122 -16 0 -18 31 -5 87 8 33 11 70 8 82 -4 14 1 29 15 44 11 12 24
34 27 50 6 24 4 27 -18 27 -14 0 -39 -11 -55 -25 -16 -13 -53 -41 -82 -60 -64
-43 -90 -40 -90 11 0 39 -32 128 -54 153 -14 16 -13 21 17 64 32 46 32 47 78
41 l45 -6 80 77 c43 42 99 91 124 108 25 17 47 34 50 37 3 4 24 19 47 33 23
14 44 31 48 37 16 26 27 8 20 -32z m-495 -185 c-1 -17 -90 -145 -114 -164 -28
-22 -31 -33 -16 -52 51 -63 64 -83 76 -124 18 -60 18 -58 -11 -87 -66 -66 23
-145 97 -87 13 11 37 23 52 27 l27 6 -2 -81 -1 -81 -46 -31 c-42 -28 -47 -30
-58 -14 -13 18 -19 18 -142 -1 -27 -4 -48 -2 -55 5 -6 6 -19 11 -28 11 -10 0
-20 3 -23 8 -2 4 0 70 6 147 10 140 12 184 16 262 1 23 9 49 18 58 9 8 18 34
21 56 5 36 12 44 65 80 33 21 63 39 67 39 5 0 14 7 21 15 13 16 30 20 30 8z
m443 -560 c-2 -21 -11 -65 -20 -98 -8 -33 -19 -125 -25 -205 -5 -80 -13 -158
-17 -175 -7 -29 -9 -30 -75 -33 -60 -3 -72 0 -103 24 -48 36 -52 56 -38 161
14 102 52 193 97 231 44 37 172 131 180 132 4 0 4 -17 1 -37z m-785 -25 c-2
-13 -11 -24 -20 -26 -14 -3 -15 0 -5 22 15 32 30 34 25 4z"/>
<path d="M1153 1475 c-12 -8 -76 -43 -143 -78 -82 -43 -127 -72 -138 -91 -17
-27 -16 -28 11 -52 15 -13 38 -24 51 -24 26 0 112 54 138 86 10 12 43 39 74
59 30 20 60 47 66 60 22 48 -14 72 -59 40z"/>
</g>
</svg>
