<?xml version="1.0" standalone="no"?>
<!DOCTYPE svg PUBLIC "-//W3C//DTD SVG 20010904//EN"
 "http://www.w3.org/TR/2001/REC-SVG-20010904/DTD/svg10.dtd">
<svg version="1.0" xmlns="http://www.w3.org/2000/svg"
 width="209.000000pt" height="206.000000pt" viewBox="0 0 209.000000 206.000000"
 preserveAspectRatio="xMidYMid meet">
<metadata>
Created by potrace 1.16, written by Peter Selinger 2001-2019
</metadata>
<g transform="translate(0.000000,206.000000) scale(0.100000,-0.100000)"
fill="#000000" stroke="none">
<path d="M1198 2043 c-22 -27 -104 -171 -127 -224 -10 -26 -50 -94 -88 -150
-70 -106 -84 -129 -103 -164 -16 -29 -269 -185 -300 -185 -14 0 -1 162 14 172
6 4 32 8 59 8 34 0 47 4 47 15 0 23 -29 32 -122 38 -92 6 -117 -2 -119 -41 0
-9 -1 -69 -2 -132 l-2 -114 -38 -22 c-21 -11 -64 -27 -95 -33 -99 -22 -136
-35 -159 -58 -32 -31 -29 -66 7 -97 l31 -25 109 54 c116 59 136 65 126 39 -4
-10 -9 -51 -13 -93 l-6 -76 -57 -55 c-31 -30 -72 -80 -90 -110 -18 -30 -50
-80 -72 -112 -21 -31 -38 -59 -38 -62 0 -3 -20 -37 -45 -75 -25 -38 -45 -77
-45 -86 0 -9 -16 -35 -35 -58 -44 -51 -46 -77 -6 -77 34 0 102 64 123 115 6
17 24 46 38 65 15 19 35 49 44 65 8 17 32 48 51 69 31 35 37 38 50 25 12 -12
11 -23 -6 -84 -20 -72 -35 -193 -45 -350 -3 -50 -10 -111 -16 -138 -12 -54 1
-80 36 -75 34 5 62 60 70 135 34 357 44 419 66 416 8 -1 33 -7 55 -12 22 -6
67 -11 101 -11 49 0 65 4 80 21 25 28 8 55 -32 51 -47 -4 -145 31 -165 58 -17
24 -17 29 1 118 11 51 24 100 28 110 5 9 12 55 16 101 10 121 69 261 110 261
6 0 28 11 48 25 43 29 58 31 58 9 0 -13 6 -15 28 -8 30 8 71 9 79 1 9 -10 23
-82 23 -126 0 -42 -9 -85 -32 -160 -12 -40 2 -54 39 -40 14 5 38 9 55 9 l30 0
-7 -77 c-4 -44 -13 -84 -21 -92 -19 -20 -28 -8 -13 17 25 40 -20 82 -47 43 -8
-11 -22 -21 -30 -21 -8 0 -14 -6 -14 -12 0 -7 -16 -26 -36 -42 -56 -44 -76
-101 -78 -215 -1 -101 8 -218 17 -228 17 -16 37 13 51 76 9 38 16 77 16 86 0
32 40 93 75 115 19 12 40 31 46 41 5 11 14 17 18 14 18 -11 -3 -557 -24 -623
-12 -37 -12 -44 0 -48 8 -3 18 -3 23 0 11 6 56 132 71 199 27 117 34 144 44
174 l11 32 40 -35 c23 -20 57 -51 77 -70 43 -42 104 -57 112 -28 11 34 55 278
62 337 4 32 16 84 26 115 11 31 24 82 29 111 5 30 21 78 34 105 43 89 60 201
32 212 -8 3 -42 -10 -76 -30 -72 -42 -84 -44 -74 -13 13 40 35 131 40 162 26
170 55 307 88 423 8 30 16 74 17 100 3 43 1 47 -25 57 -24 8 -31 6 -45 -12
-10 -12 -40 -40 -67 -63 -27 -23 -71 -61 -99 -84 -52 -45 -105 -89 -213 -177
-34 -28 -76 -71 -93 -95 -26 -38 -49 -56 -49 -39 0 8 39 62 93 128 26 32 47
62 47 66 0 4 22 31 49 59 29 29 68 85 92 133 22 46 53 99 68 118 45 58 108
145 115 159 5 9 -10 12 -62 12 -53 0 -72 -4 -84 -17z m122 -420 c0 -5 -7 -53
-15 -108 -18 -115 -33 -260 -41 -390 -3 -49 -11 -95 -17 -102 -25 -25 -162
-102 -170 -94 -4 4 -10 36 -13 72 l-6 64 37 24 c40 27 59 55 51 77 -6 17 -52
19 -62 3 -6 -11 -46 -30 -91 -43 -22 -7 -23 -5 -23 64 0 65 2 71 18 65 44 -20
82 -17 115 8 101 77 146 147 95 147 -19 0 -94 -30 -160 -65 -25 -13 -28 -12
-28 3 0 24 265 282 290 282 11 0 20 -3 20 -7z m5 -700 c-4 -21 -13 -50 -21
-65 -8 -15 -14 -40 -14 -56 0 -16 -7 -48 -15 -71 -8 -23 -17 -65 -20 -94 -10
-86 -47 -239 -55 -230 -51 55 -114 141 -121 166 -14 51 0 215 21 230 9 7 40
32 68 56 51 44 139 100 156 101 4 0 5 -17 1 -37z m-952 -160 c7 -12 -12 -55
-22 -49 -10 7 -2 56 10 56 4 0 10 -3 12 -7z"/>
</g>
</svg>
