<?xml version="1.0" standalone="no"?>
<!DOCTYPE svg PUBLIC "-//W3C//DTD SVG 20010904//EN"
 "http://www.w3.org/TR/2001/REC-SVG-20010904/DTD/svg10.dtd">
<svg version="1.0" xmlns="http://www.w3.org/2000/svg"
 width="206.000000pt" height="206.000000pt" viewBox="0 0 206.000000 206.000000"
 preserveAspectRatio="xMidYMid meet">
<metadata>
Created by potrace 1.16, written by Peter Selinger 2001-2019
</metadata>
<g transform="translate(0.000000,206.000000) scale(0.100000,-0.100000)"
fill="#000000" stroke="none">
<path d="M1355 2003 c-9 -32 -23 -85 -32 -118 -9 -33 -22 -67 -28 -75 -7 -8
-34 -60 -61 -115 -59 -123 -127 -230 -159 -251 -23 -15 -53 -80 -42 -90 3 -3
14 -1 25 5 12 6 28 11 36 11 24 0 21 -102 -5 -179 -22 -64 -18 -88 14 -75 9 3
19 13 22 22 3 10 18 25 35 34 29 16 30 16 30 -3 0 -20 39 -42 71 -41 23 1 108
64 108 80 1 20 -38 30 -83 21 -23 -5 -52 -8 -64 -9 -22 0 -23 3 -17 43 4 23 9
43 10 45 2 2 17 -4 34 -12 16 -9 36 -16 44 -16 21 0 138 79 187 127 24 23 48
43 52 43 10 0 10 -23 -3 -158 -8 -93 -8 -117 4 -141 14 -28 13 -30 -12 -48
-47 -34 -57 -34 -74 3 -31 64 -102 38 -113 -42 -6 -38 -12 -59 -36 -110 -7
-14 -38 -42 -71 -62 -32 -20 -79 -55 -103 -76 -24 -21 -47 -36 -50 -33 -12 12
9 89 32 116 25 30 31 65 14 76 -14 9 -73 -12 -101 -35 -26 -24 -45 -25 -53 -5
-6 18 -35 19 -69 4 -18 -8 -30 -8 -46 0 -26 14 -27 51 -6 116 10 28 13 51 7
61 -13 24 39 287 60 300 4 3 8 14 8 24 0 11 12 27 28 37 37 23 141 111 175
147 43 47 45 71 8 106 -24 24 -40 30 -74 30 -39 0 -50 6 -100 54 -60 56 -81
61 -118 29 -21 -18 -44 -183 -36 -259 5 -47 3 -58 -16 -77 -31 -33 -126 -72
-232 -96 -105 -25 -141 -47 -138 -86 1 -15 9 -38 18 -51 20 -31 59 -31 129 1
30 14 57 25 61 25 6 0 130 57 149 68 9 5 4 -45 -14 -128 -5 -25 -14 -79 -20
-120 -8 -58 -19 -87 -45 -127 -19 -29 -35 -55 -35 -58 0 -3 -8 -18 -19 -33
-85 -124 -126 -193 -148 -250 -13 -37 -32 -75 -40 -84 -18 -20 -11 -48 13 -48
18 0 84 67 84 86 0 7 13 28 30 46 17 18 30 40 30 49 0 9 9 24 20 34 12 10 30
34 41 52 12 19 23 32 26 30 5 -5 -19 -214 -42 -366 -9 -57 -14 -110 -11 -117
8 -21 40 -17 64 9 23 24 57 181 85 390 8 59 17 110 19 112 3 3 28 9 58 15 29
6 59 15 67 21 7 6 13 10 13 8 7 -68 14 -245 13 -309 -2 -84 -7 -109 -38 -205
-33 -100 -17 -120 44 -56 52 54 76 109 92 210 l13 84 85 83 c47 46 89 84 94
84 5 0 7 -22 3 -52 -3 -29 -11 -109 -16 -178 -14 -176 -28 -323 -40 -410 -13
-107 -13 -140 4 -140 16 0 35 39 66 135 12 39 25 75 30 80 11 13 30 174 30
250 0 33 4 76 9 95 6 19 12 59 14 88 8 88 28 89 23 2 -8 -135 26 -205 119
-249 53 -25 88 -27 105 -6 15 18 38 168 45 295 8 131 23 261 39 330 8 32 11
61 8 65 -3 3 -7 18 -8 33 -1 15 -2 35 -3 45 -1 22 -28 22 -74 -2 -20 -10 -37
-15 -37 -11 0 5 4 11 9 15 17 10 42 102 51 187 31 296 43 376 65 428 28 66 49
174 41 206 -4 13 -13 24 -21 24 -9 0 -66 -50 -127 -111 -62 -61 -131 -124
-154 -140 -23 -15 -44 -35 -47 -44 -4 -8 -11 -15 -16 -15 -12 0 -2 40 15 60 6
8 19 40 28 70 9 30 27 89 41 130 14 42 25 81 25 88 0 8 -19 12 -55 12 l-54 0
-16 -57z m-366 -267 c7 -8 26 -18 42 -21 37 -8 50 -35 24 -49 -10 -6 -32 -23
-49 -37 -39 -33 -91 -60 -100 -52 -9 10 -7 73 3 73 5 0 12 11 15 25 18 73 39
92 65 61z m566 -108 c-10 -111 -10 -113 -34 -110 -13 1 -34 -6 -45 -17 -12
-11 -50 -34 -86 -51 -36 -17 -86 -42 -111 -55 -26 -14 -51 -25 -56 -25 -5 0
-13 21 -20 48 -12 53 -6 63 38 60 25 -2 36 6 153 114 28 25 76 69 106 97 30
28 57 51 60 51 3 0 1 -51 -5 -112z m1 -715 c-3 -49 -9 -139 -12 -201 -4 -62
-9 -137 -13 -165 -5 -46 -9 -52 -30 -52 -18 0 -29 10 -44 39 -18 33 -20 59
-21 195 -2 175 4 206 43 226 15 7 33 21 40 29 8 9 20 16 29 16 13 0 14 -13 8
-87z"/>
</g>
</svg>
