<?xml version="1.0" standalone="no"?>
<!DOCTYPE svg PUBLIC "-//W3C//DTD SVG 20010904//EN"
 "http://www.w3.org/TR/2001/REC-SVG-20010904/DTD/svg10.dtd">
<svg version="1.0" xmlns="http://www.w3.org/2000/svg"
 width="209.000000pt" height="209.000000pt" viewBox="0 0 209.000000 209.000000"
 preserveAspectRatio="xMidYMid meet">
<metadata>
Created by potrace 1.16, written by Peter Selinger 2001-2019
</metadata>
<g transform="translate(0.000000,209.000000) scale(0.100000,-0.100000)"
fill="#000000" stroke="none">
<path d="M1233 1990 c-26 -11 -25 -6 -29 -85 -5 -115 -14 -145 -43 -145 -25 0
-129 -54 -169 -87 -28 -23 -32 -33 -27 -54 8 -34 58 -62 112 -63 33 -1 43 -5
43 -17 0 -32 -36 -60 -119 -94 -117 -47 -171 -86 -171 -124 0 -25 6 -31 36
-41 47 -16 78 -7 133 41 26 21 50 39 54 39 10 0 9 -34 -1 -46 -5 -5 -19 -38
-32 -74 -13 -36 -33 -81 -46 -101 -19 -31 -29 -37 -73 -43 -27 -4 -71 -16 -97
-27 -25 -12 -81 -27 -123 -35 -42 -7 -91 -16 -108 -20 -38 -8 -38 -9 -18 76
36 153 55 252 50 260 -3 4 4 30 16 56 15 37 37 63 92 106 112 90 177 157 177
185 0 20 -4 23 -21 18 -12 -4 -28 -14 -38 -24 -9 -9 -48 -38 -87 -64 -39 -26
-77 -54 -84 -62 -7 -8 -19 -15 -28 -15 -12 0 -14 11 -8 67 8 77 11 83 37 83
11 0 22 7 25 15 9 22 -14 45 -44 45 -14 0 -40 5 -58 12 -27 9 -37 9 -57 -5
l-24 -16 5 -145 c3 -93 1 -146 -5 -146 -5 0 -41 -27 -80 -59 -39 -32 -81 -64
-93 -71 -30 -16 -45 -28 -78 -62 -15 -15 -40 -30 -55 -34 -46 -11 -107 -75
-107 -111 0 -40 24 -58 75 -56 65 2 115 27 115 56 0 19 24 46 100 111 55 47
102 86 106 86 8 0 -5 -115 -17 -155 -5 -16 -18 -70 -30 -120 -12 -49 -37 -141
-55 -204 -19 -63 -41 -155 -50 -205 -15 -86 -66 -285 -100 -389 -14 -42 -19
-47 -42 -45 -34 4 -41 -23 -12 -52 15 -15 28 -19 43 -14 39 11 86 48 102 79
18 36 76 264 99 390 24 125 65 254 85 265 18 9 121 37 176 47 17 3 35 9 41 14
6 5 31 13 55 18 24 5 54 13 67 16 19 6 21 5 15 -11 -3 -11 -22 -44 -42 -74
-20 -30 -39 -62 -42 -70 -4 -10 -17 -14 -42 -12 -21 2 -53 -2 -73 -8 -33 -11
-38 -10 -63 14 -31 30 -85 36 -95 10 -8 -20 -8 -58 0 -79 8 -20 96 -65 128
-65 14 0 28 -5 31 -10 8 -13 -36 -91 -87 -152 -22 -27 -37 -52 -34 -57 3 -4
-6 -23 -19 -41 -14 -19 -25 -40 -25 -47 0 -7 -13 -27 -29 -45 -15 -18 -36 -49
-46 -68 -10 -19 -35 -56 -57 -81 -21 -25 -38 -49 -38 -55 0 -5 -26 -33 -57
-61 l-58 -53 46 0 c45 0 50 3 139 87 75 72 170 189 170 210 0 2 11 19 25 38
24 31 30 33 96 37 72 4 89 13 89 52 0 11 -8 28 -17 38 -16 17 -14 21 33 64 27
25 67 55 89 66 22 12 51 29 64 39 47 37 52 28 49 -87 l-3 -105 -35 -19 c-19
-10 -64 -33 -100 -50 -78 -37 -178 -95 -203 -118 -12 -11 -17 -27 -15 -51 3
-31 7 -36 37 -42 42 -9 92 14 178 82 78 61 124 83 135 67 5 -7 8 -78 6 -158
l-2 -145 30 -3 c28 -3 30 0 42 44 7 26 16 104 19 173 7 142 15 163 80 196 21
10 45 24 53 31 8 6 47 28 86 48 87 45 114 67 114 94 0 33 -16 35 -73 7 -30
-14 -57 -25 -61 -25 -5 0 -44 -18 -88 -40 -44 -23 -85 -39 -92 -37 -7 2 -10
35 -8 103 4 105 15 137 55 155 12 5 36 18 52 29 34 22 107 58 182 91 29 12 60
30 69 40 15 17 15 19 -10 30 -21 10 -38 8 -98 -11 -116 -36 -116 -36 -124 -6
-3 15 -15 31 -26 37 -26 14 -154 17 -167 4 -5 -5 -14 -50 -18 -100 l-8 -90
-40 -21 c-22 -12 -57 -31 -78 -43 -45 -25 -47 -25 -47 -6 0 8 4 15 8 15 5 0
21 21 36 48 15 26 36 61 46 77 11 17 23 38 27 47 16 34 126 157 147 164 11 4
49 20 83 36 62 29 83 30 83 3 0 -12 61 -55 80 -55 5 0 37 -13 72 -29 38 -18
84 -31 118 -33 53 -3 55 -2 58 23 3 24 -4 30 -75 64 -43 21 -92 53 -109 71
l-31 33 84 52 c46 29 86 56 89 61 3 5 21 15 41 23 19 8 56 32 82 53 25 21 63
49 84 61 36 22 56 59 43 80 -9 14 -43 0 -113 -47 -32 -22 -91 -54 -130 -72
-40 -18 -73 -36 -73 -40 0 -4 -21 -17 -47 -29 -27 -12 -68 -32 -93 -45 -55
-29 -107 -52 -140 -61 -14 -3 -40 -13 -58 -22 -19 -8 -36 -12 -39 -9 -3 3 13
53 36 111 22 58 41 108 41 111 0 15 85 87 118 101 79 33 96 93 29 105 -15 3
-31 0 -35 -6 -10 -15 -61 -41 -68 -34 -10 10 35 100 46 93 6 -4 10 4 10 18 0
27 35 77 53 77 7 0 30 13 53 28 23 15 61 40 85 56 58 38 57 36 35 52 -28 20
-60 17 -109 -8 -86 -44 -96 -48 -101 -40 -3 5 -3 20 0 33 22 94 22 99 0 114
-23 17 -41 18 -73 5z m-68 -1130 c-3 -5 -10 -10 -16 -10 -5 0 -9 5 -9 10 0 6
7 10 16 10 8 0 12 -4 9 -10z"/>
<path d="M304 1002 c-47 -45 -66 -74 -94 -141 -19 -46 -51 -109 -71 -140 -20
-31 -49 -81 -64 -111 -16 -30 -39 -68 -52 -83 -31 -38 -29 -47 8 -47 24 0 40
10 70 42 22 24 39 47 39 52 0 4 11 21 25 38 14 16 25 36 25 43 0 7 12 27 26
44 27 32 55 83 137 246 11 22 28 49 39 61 21 24 15 54 -12 54 -10 0 -44 -26
-76 -58z"/>
</g>
</svg>
