<?xml version="1.0" standalone="no"?>
<!DOCTYPE svg PUBLIC "-//W3C//DTD SVG 20010904//EN"
 "http://www.w3.org/TR/2001/REC-SVG-20010904/DTD/svg10.dtd">
<svg version="1.0" xmlns="http://www.w3.org/2000/svg"
 width="208.000000pt" height="208.000000pt" viewBox="0 0 208.000000 208.000000"
 preserveAspectRatio="xMidYMid meet">
<metadata>
Created by potrace 1.16, written by Peter Selinger 2001-2019
</metadata>
<g transform="translate(0.000000,208.000000) scale(0.100000,-0.100000)"
fill="#000000" stroke="none">
<path d="M1177 2063 c-23 -26 -41 -117 -34 -174 5 -42 3 -49 -23 -72 -15 -14
-41 -32 -57 -40 -15 -8 -39 -27 -52 -41 -14 -14 -29 -26 -35 -26 -6 0 -34 -15
-61 -33 -28 -19 -67 -42 -88 -52 -21 -10 -50 -33 -64 -52 -22 -29 -24 -37 -15
-58 7 -14 23 -30 37 -37 21 -9 30 -7 62 15 21 15 55 43 76 62 21 19 41 35 44
35 3 0 20 11 37 24 51 38 116 68 117 54 6 -70 -10 -93 -85 -127 -43 -19 -82
-54 -96 -86 -3 -7 -26 -35 -52 -64 -49 -54 -126 -91 -190 -91 -29 0 -29 0 -22
48 4 26 10 56 14 67 4 11 13 63 19 115 18 149 33 230 43 230 5 0 24 14 41 32
18 17 56 47 84 65 29 18 53 39 53 46 0 7 14 24 30 39 26 23 42 68 24 68 -15 0
-82 -36 -115 -62 -31 -24 -46 -28 -97 -28 -41 0 -63 5 -72 15 -21 25 -77 19
-96 -11 -15 -21 -15 -31 -6 -58 20 -54 15 -97 -15 -128 -15 -15 -31 -28 -35
-28 -5 0 -26 -17 -48 -37 -21 -21 -56 -47 -77 -58 -62 -33 -133 -105 -133
-136 0 -40 32 -63 79 -56 60 8 94 28 102 62 8 28 122 145 143 145 4 0 5 -17 2
-37 -3 -21 -6 -45 -7 -53 0 -8 -6 -34 -12 -58 -8 -30 -16 -41 -26 -37 -23 9
-113 -25 -145 -54 -45 -42 -74 -95 -112 -204 -19 -56 -39 -103 -44 -105 -13
-5 -13 -52 0 -52 38 0 118 77 135 129 4 13 23 45 41 71 19 26 34 51 34 56 0
13 80 94 92 94 7 0 8 -12 4 -32 -4 -18 -9 -53 -12 -78 -3 -25 -11 -65 -19 -90
-14 -47 -24 -99 -46 -234 -9 -55 -18 -84 -33 -98 -11 -10 -67 -41 -123 -69
-56 -27 -114 -61 -128 -77 -33 -34 -30 -71 7 -92 26 -14 31 -13 74 9 25 14 62
37 81 53 19 15 65 42 101 59 37 18 81 43 97 57 25 20 76 52 206 128 10 6 27
18 37 27 10 9 39 27 64 40 l46 23 5 -55 c6 -59 -7 -200 -23 -241 -5 -14 -18
-62 -29 -108 -17 -75 -17 -84 -3 -89 18 -7 72 51 72 77 0 9 5 21 11 27 5 5 18
25 27 44 15 29 23 35 62 39 43 5 46 8 70 57 31 64 118 159 133 144 17 -17 85
46 135 123 28 43 62 117 87 191 49 142 60 204 41 231 -13 17 -19 16 -122 -35
-60 -30 -121 -62 -136 -73 -36 -25 -68 -24 -61 2 3 12 14 20 27 20 24 0 46 17
46 36 0 7 -9 34 -21 61 -17 40 -21 66 -19 152 1 67 7 118 17 145 17 43 69 106
88 106 7 0 30 22 52 48 42 49 62 114 44 141 -12 19 -39 7 -50 -22 -12 -30
-118 -121 -126 -107 -4 6 -5 43 -3 83 l3 72 -31 3 c-19 2 -36 -3 -47 -15z
m-61 -590 c-3 -16 -11 -73 -17 -128 -13 -117 -20 -132 -63 -150 -18 -8 -38
-21 -46 -29 -7 -9 -17 -16 -23 -16 -5 0 -24 -10 -41 -23 -17 -13 -58 -38 -91
-57 -33 -18 -71 -42 -85 -52 -49 -37 -130 -87 -151 -93 -19 -6 -21 -4 -15 16
7 23 41 157 51 206 5 23 60 53 96 53 20 0 26 -15 9 -25 -15 -9 -12 -51 5 -65
11 -10 19 -8 38 7 30 24 101 110 155 191 24 34 47 62 51 62 5 0 33 29 62 65
57 70 75 81 65 38z m259 -225 c-4 -24 -19 -78 -33 -122 -25 -72 -30 -79 -62
-90 -49 -17 -122 -70 -186 -136 -61 -62 -60 -63 -47 59 6 59 8 64 40 79 35 17
40 31 21 62 -7 10 -10 21 -8 23 35 30 257 165 273 166 5 1 6 -18 2 -41z"/>
<path d="M673 695 c-40 -17 -47 -32 -63 -130 -7 -44 -17 -89 -23 -100 -6 -11
-16 -56 -23 -100 -17 -112 -32 -164 -54 -193 -24 -29 -26 -60 -5 -68 24 -9 62
22 84 68 12 24 34 63 49 88 25 39 33 45 58 42 16 -2 50 -14 75 -27 105 -54
219 -87 369 -105 58 -7 110 -17 117 -22 7 -6 17 -7 22 -3 6 3 39 0 73 -6 35
-7 90 -14 123 -16 33 -1 76 -5 95 -8 19 -2 142 -7 273 -9 l237 -5 0 78 0 78
-44 17 c-42 16 -46 16 -70 0 -29 -18 -31 -25 -14 -42 6 -6 9 -14 7 -17 -9 -8
-248 -8 -354 0 -55 4 -109 8 -120 8 -11 0 -36 3 -55 8 -19 5 -71 13 -115 18
-232 28 -448 84 -500 129 -11 10 -39 31 -62 46 -24 16 -43 31 -43 35 0 11 31
146 41 179 21 66 -9 87 -78 57z m291 -426 c-6 -11 -24 -2 -24 11 0 5 7 7 15 4
8 -4 12 -10 9 -15z"/>
</g>
</svg>
