<?xml version="1.0" standalone="no"?>
<!DOCTYPE svg PUBLIC "-//W3C//DTD SVG 20010904//EN"
 "http://www.w3.org/TR/2001/REC-SVG-20010904/DTD/svg10.dtd">
<svg version="1.0" xmlns="http://www.w3.org/2000/svg"
 width="209.000000pt" height="210.000000pt" viewBox="0 0 209.000000 210.000000"
 preserveAspectRatio="xMidYMid meet">
<metadata>
Created by potrace 1.16, written by Peter Selinger 2001-2019
</metadata>
<g transform="translate(0.000000,210.000000) scale(0.100000,-0.100000)"
fill="#000000" stroke="none">
<path d="M1242 1983 c-26 -23 -42 -101 -42 -207 0 -92 -3 -98 -78 -135 -36
-18 -43 -19 -48 -7 -10 27 29 110 69 147 64 59 28 81 -48 30 -24 -16 -54 -32
-67 -36 -36 -12 -46 -23 -53 -65 -6 -37 -37 -70 -66 -70 -6 0 -54 -30 -106
-66 -64 -45 -98 -63 -105 -56 -9 9 -7 69 5 151 5 33 34 51 83 51 43 0 64 14
47 31 -5 5 -53 17 -107 26 -83 14 -101 14 -123 2 l-26 -14 7 -162 c6 -122 4
-163 -4 -163 -7 0 -41 -19 -78 -42 -36 -24 -90 -52 -121 -63 -54 -19 -56 -21
-59 -61 -3 -34 1 -42 22 -53 35 -19 80 -8 156 39 l65 40 3 -31 c5 -44 -2 -56
-47 -78 -22 -12 -43 -31 -46 -43 -4 -13 -19 -39 -34 -58 -32 -43 -44 -74 -82
-214 -16 -59 -41 -136 -55 -170 -32 -74 -37 -87 -60 -150 -9 -28 -28 -60 -41
-72 -32 -29 -30 -54 4 -54 20 0 42 16 85 60 32 34 58 66 58 73 0 7 9 29 20 50
35 66 77 179 94 257 9 41 26 91 38 110 20 35 21 35 29 12 5 -13 7 -27 5 -31
-2 -3 -7 -51 -11 -106 -4 -55 -11 -120 -16 -145 -5 -25 -16 -130 -24 -235 -13
-178 -40 -324 -63 -347 -5 -5 -7 -20 -4 -34 4 -20 10 -24 42 -24 46 0 51 6 79
96 23 75 35 163 51 359 12 155 22 185 62 185 34 0 119 -19 131 -30 13 -12 16
-52 18 -259 1 -107 5 -205 8 -219 4 -14 19 -34 33 -45 21 -16 29 -17 45 -7 18
12 19 25 19 189 l0 176 46 3 c44 3 48 5 79 58 18 29 39 54 46 54 7 0 18 9 25
21 18 28 256 205 265 196 3 -4 -30 -213 -42 -264 -3 -13 -13 -23 -22 -23 -29
0 -147 -62 -192 -102 -24 -21 -48 -38 -52 -38 -14 0 -10 -60 4 -64 62 -20 68
-18 120 35 53 53 103 89 124 89 8 0 11 -29 10 -94 -1 -52 -4 -96 -7 -99 -3 -2
-36 -19 -75 -37 -38 -18 -77 -38 -85 -45 -8 -7 -31 -18 -50 -24 -19 -6 -66
-33 -105 -60 -63 -44 -70 -51 -70 -82 0 -33 1 -34 47 -37 52 -3 99 20 160 80
31 30 66 56 142 102 23 15 30 16 37 5 8 -13 14 -77 9 -108 -1 -8 1 -30 5 -48
6 -32 8 -34 42 -31 l36 3 2 285 c2 266 4 294 29 415 34 160 60 240 92 278 26
31 32 75 12 95 -19 19 -76 15 -95 -7 -10 -10 -29 -37 -43 -60 -28 -47 -45 -54
-36 -13 4 15 11 47 16 71 6 24 18 57 29 75 10 17 24 58 31 91 7 33 18 71 25
85 7 14 18 50 25 80 18 78 30 98 109 178 57 57 71 77 71 102 0 29 -1 30 -50
30 -48 0 -54 -3 -117 -62 -37 -35 -77 -73 -89 -86 -25 -26 -91 -72 -104 -72
-13 0 -16 39 -8 93 6 42 14 54 75 110 37 34 83 78 103 97 19 20 44 42 56 50
41 29 49 110 11 110 -12 0 -103 -72 -179 -141 -23 -21 -46 -35 -50 -31 -4 4
-3 25 2 47 5 22 12 57 15 78 3 20 10 37 15 37 18 0 10 29 -12 44 -30 21 -71
20 -96 -1z m-295 -447 c-42 -30 -78 -54 -142 -96 -74 -48 -94 -117 -44 -147
35 -22 67 -8 138 57 29 28 57 50 62 50 14 0 29 -36 35 -82 5 -41 3 -45 -51
-100 l-57 -58 -68 0 c-42 0 -71 -5 -77 -12 -24 -31 -20 -48 28 -114 27 -38 49
-74 49 -81 0 -18 37 -35 60 -28 36 11 37 48 3 128 -15 34 -15 39 -1 53 14 14
21 14 54 3 22 -7 50 -21 63 -31 31 -23 58 -23 112 2 51 23 59 13 36 -43 -10
-23 -34 -47 -73 -72 -33 -21 -68 -44 -79 -52 -11 -7 -42 -27 -68 -44 -45 -29
-48 -34 -45 -67 2 -32 0 -36 -26 -43 -21 -6 -39 -2 -70 14 -22 12 -66 31 -96
42 -74 27 -72 0 -19 385 6 41 19 105 30 141 20 66 26 73 109 134 15 11 54 41
86 68 55 44 59 46 62 25 2 -12 -3 -27 -11 -32z m243 -61 c0 -63 -3 -77 -17
-82 -10 -4 -31 -16 -46 -27 -36 -27 -47 -12 -47 66 0 56 0 56 47 87 25 17 50
31 55 31 4 0 8 -34 8 -75z m194 -102 c-7 -56 -17 -69 -61 -78 -31 -6 -33 -5
-33 23 0 21 11 38 42 65 23 20 46 37 51 37 4 0 5 -21 1 -47z m-201 -129 c-6
-16 -52 -38 -61 -30 -6 7 51 55 60 50 4 -3 4 -12 1 -20z m147 -134 c-22 -110
-24 -156 -9 -166 17 -10 -63 -73 -166 -130 -32 -18 -49 -31 -157 -119 -60 -49
-68 -53 -68 -34 0 13 7 31 16 40 9 10 17 29 18 41 1 15 24 39 71 75 39 29 92
72 119 96 26 23 60 50 75 59 15 10 34 30 42 44 13 25 12 28 -9 42 -27 18 -28
41 -2 92 20 38 68 75 82 62 3 -4 -2 -50 -12 -102z"/>
</g>
</svg>
