<?xml version="1.0" standalone="no"?>
<!DOCTYPE svg PUBLIC "-//W3C//DTD SVG 20010904//EN"
 "http://www.w3.org/TR/2001/REC-SVG-20010904/DTD/svg10.dtd">
<svg version="1.0" xmlns="http://www.w3.org/2000/svg"
 width="206.000000pt" height="209.000000pt" viewBox="0 0 206.000000 209.000000"
 preserveAspectRatio="xMidYMid meet">
<metadata>
Created by potrace 1.16, written by Peter Selinger 2001-2019
</metadata>
<g transform="translate(0.000000,209.000000) scale(0.100000,-0.100000)"
fill="#000000" stroke="none">
<path d="M1545 2074 c-11 -8 -41 -29 -66 -47 -26 -17 -70 -51 -99 -74 -60 -49
-69 -52 -63 -19 7 35 -44 51 -98 30 l-39 -16 0 -73 c0 -79 -7 -92 -62 -121
-40 -21 -45 -12 -19 31 11 20 21 43 21 51 0 22 -29 28 -48 10 -10 -8 -38 -26
-63 -39 l-44 -24 3 -77 c3 -61 1 -76 -11 -76 -8 0 -20 -7 -28 -16 -7 -8 -29
-24 -50 -34 -20 -11 -52 -33 -70 -50 -19 -16 -37 -30 -41 -30 -5 0 -8 20 -8
45 0 37 3 45 19 45 26 0 33 25 13 43 -9 8 -39 27 -65 41 -45 24 -51 24 -77 11
-35 -18 -45 -47 -29 -77 17 -31 29 -198 17 -222 -6 -10 -31 -38 -57 -62 -25
-24 -55 -53 -67 -64 -12 -11 -26 -20 -31 -20 -12 0 -63 -64 -63 -78 0 -5 -9
-17 -20 -27 -31 -28 -26 -67 12 -95 17 -13 38 -23 45 -23 9 0 5 -9 -10 -26
-13 -14 -49 -80 -81 -146 -32 -66 -67 -137 -77 -157 -11 -20 -19 -45 -19 -54
0 -10 -8 -36 -19 -58 -38 -82 -52 -129 -43 -138 17 -17 52 15 104 97 62 96 80
132 107 208 22 64 74 148 115 186 l26 24 0 -29 c0 -16 -9 -63 -20 -104 -11
-41 -32 -154 -45 -250 -14 -96 -32 -204 -40 -240 -25 -117 -27 -147 -9 -154
19 -7 64 39 64 67 0 11 6 28 13 36 22 25 35 69 57 184 11 59 20 110 20 111 0
2 19 6 43 9 23 3 56 8 74 10 37 6 39 3 48 -88 3 -33 10 -82 15 -110 5 -27 11
-105 14 -173 3 -68 8 -128 11 -133 8 -12 42 -12 65 1 10 5 36 13 57 16 21 3
58 19 83 35 25 16 58 37 74 47 103 62 181 120 184 135 4 22 -19 22 -80 0 -50
-18 -74 -12 -43 11 21 15 13 36 -15 36 -10 0 -20 -10 -24 -24 -3 -14 -18 -29
-36 -36 -17 -7 -34 -18 -38 -25 -8 -14 -131 -79 -137 -73 -2 2 -6 90 -9 195
l-5 191 29 38 c52 65 31 89 -59 69 -31 -7 -90 -16 -131 -20 -100 -9 -106 -2
-85 91 18 78 26 120 49 249 25 145 35 187 55 229 10 23 22 53 25 67 5 21 15
29 58 40 42 11 56 20 67 44 18 39 49 73 82 91 33 17 47 4 56 -49 5 -30 1 -37
-28 -58 -42 -29 -49 -38 -49 -68 0 -27 25 -50 55 -51 12 0 54 20 95 45 81 49
90 52 90 32 0 -18 -52 -55 -103 -73 -62 -22 -117 -61 -117 -83 0 -19 48 -61
69 -61 6 0 41 19 77 42 53 33 68 38 75 27 5 -8 9 -17 9 -21 0 -5 6 -8 13 -8 7
0 21 25 31 55 9 30 21 55 25 55 16 0 20 -27 11 -66 -5 -22 -10 -72 -11 -112
-1 -62 -5 -75 -23 -90 -43 -34 -149 -128 -212 -190 -35 -34 -69 -62 -74 -62
-6 0 -10 -15 -10 -34 0 -30 4 -36 34 -46 28 -9 40 -8 66 5 36 19 64 45 88 83
18 28 201 206 207 200 2 -2 -1 -40 -5 -85 -5 -45 -6 -180 -2 -300 10 -366 11
-349 -15 -345 -28 4 -29 -7 -2 -55 41 -75 87 -100 113 -61 17 26 17 38 9 448
-2 154 0 288 6 320 16 93 48 197 70 233 13 22 21 51 21 81 0 46 0 46 -34 46
-28 0 -41 -9 -86 -61 -29 -33 -54 -58 -56 -56 -2 2 1 30 6 63 5 32 12 77 14
99 14 122 81 331 127 397 20 27 25 83 10 107 -13 20 -73 6 -98 -22 -10 -12
-30 -44 -44 -70 -27 -54 -65 -97 -85 -97 -17 0 -17 6 -3 87 10 58 15 66 62
105 29 24 80 70 114 104 35 34 63 60 63 59 0 -2 25 20 55 48 30 27 55 56 55
63 0 19 -69 17 -95 -2z m-374 -456 c0 -7 3 -33 5 -57 8 -69 -47 -115 -60 -50
-11 58 -7 86 17 102 27 20 37 21 38 5z m129 -180 c0 -18 -2 -20 -9 -8 -6 8 -7
18 -5 22 9 14 14 9 14 -14z m-695 -285 c-3 -10 -9 -31 -12 -48 -5 -28 -27 -55
-45 -55 -20 0 -7 65 19 92 30 32 48 37 38 11z"/>
<path d="M736 1154 c-9 -8 -16 -18 -16 -20 0 -10 40 -82 47 -86 14 -6 59 -72
82 -119 18 -40 27 -48 57 -54 25 -4 42 -2 57 9 12 8 42 29 66 46 49 35 74 62
96 101 28 51 -9 52 -104 4 -37 -19 -75 -35 -84 -35 -18 0 -53 64 -63 114 -3
20 -15 41 -25 46 -28 15 -96 12 -113 -6z"/>
<path d="M1180 664 c-25 -7 -55 -14 -67 -14 -26 0 -64 -45 -56 -66 3 -8 19
-22 35 -30 27 -14 33 -13 93 15 36 17 69 31 74 31 6 0 17 10 25 22 14 20 14
24 -1 40 -19 21 -42 22 -103 2z"/>
</g>
</svg>
