<?xml version="1.0" standalone="no"?>
<!DOCTYPE svg PUBLIC "-//W3C//DTD SVG 20010904//EN"
 "http://www.w3.org/TR/2001/REC-SVG-20010904/DTD/svg10.dtd">
<svg version="1.0" xmlns="http://www.w3.org/2000/svg"
 width="207.000000pt" height="215.000000pt" viewBox="0 0 207.000000 215.000000"
 preserveAspectRatio="xMidYMid meet">
<metadata>
Created by potrace 1.16, written by Peter Selinger 2001-2019
</metadata>
<g transform="translate(0.000000,215.000000) scale(0.100000,-0.100000)"
fill="#000000" stroke="none">
<path d="M1390 2046 c-14 -7 -48 -35 -76 -62 -29 -27 -93 -87 -144 -134 -51
-47 -108 -100 -127 -118 -25 -25 -37 -31 -47 -23 -24 20 -109 -12 -161 -63
-27 -25 -54 -46 -61 -46 -23 0 -26 20 -7 59 13 28 24 39 38 38 14 -1 21 5 23
21 4 27 -24 63 -42 56 -7 -3 -20 6 -29 19 -12 19 -22 23 -46 19 -53 -8 -60
-25 -63 -162 l-3 -125 -45 -23 c-25 -13 -59 -35 -77 -48 -17 -13 -37 -24 -43
-24 -6 0 -39 -19 -73 -42 -34 -23 -80 -52 -102 -63 -52 -26 -58 -59 -17 -98
28 -27 32 -28 72 -17 61 16 145 66 166 98 24 36 45 57 71 71 43 22 45 17 40
-101 l-4 -113 -43 -22 c-72 -38 -73 -40 -212 -258 -24 -38 -61 -106 -82 -150
-21 -44 -43 -89 -49 -100 -19 -36 -35 -69 -51 -105 -8 -19 -24 -43 -35 -52
-24 -21 -27 -34 -8 -41 16 -6 77 39 77 58 0 7 7 18 15 25 9 7 29 34 46 59 17
25 38 50 45 54 8 4 14 18 14 31 0 13 9 31 20 41 11 10 20 23 20 30 0 7 9 20
20 30 11 10 20 26 20 35 0 9 15 34 34 56 19 22 42 55 52 75 35 65 66 109 85
120 18 9 19 6 19 -43 0 -62 -17 -102 -45 -106 -50 -7 -65 -13 -65 -26 0 -14
49 -61 71 -68 9 -3 8 -21 -4 -74 -19 -79 -35 -239 -36 -364 -1 -47 -7 -107
-13 -133 -9 -34 -9 -53 -1 -65 16 -27 38 -25 53 5 8 15 23 39 32 53 14 20 20
60 28 190 9 154 31 314 44 327 3 3 32 -4 64 -16 68 -24 101 -26 126 -8 17 12
17 14 -1 34 -10 11 -49 38 -88 58 -38 21 -74 41 -78 45 -5 4 -1 63 8 131 9 68
22 193 30 276 8 84 19 161 25 172 5 11 10 29 10 40 0 23 47 64 63 54 6 -4 8
-56 5 -147 -6 -150 -4 -166 17 -166 26 0 49 53 76 173 7 32 16 60 21 63 4 3 8
16 8 29 0 14 7 26 18 29 10 3 25 18 34 33 26 45 203 217 206 202 1 -8 -6 -47
-16 -88 l-19 -75 -48 -13 c-26 -8 -58 -26 -71 -41 -26 -30 -74 -145 -74 -178
0 -12 -7 -41 -16 -65 -17 -49 -41 -132 -48 -175 -6 -34 -34 -130 -47 -163 -12
-29 -5 -37 22 -25 19 9 95 133 120 197 13 33 25 34 64 3 26 -21 28 -26 18 -48
-11 -24 -37 -128 -64 -250 l-12 -58 -71 -38 c-98 -53 -196 -129 -196 -152 0
-22 45 -60 70 -60 9 0 34 14 55 30 21 17 41 30 46 30 4 0 14 3 23 6 25 10 20
-28 -14 -98 -37 -76 -62 -104 -117 -128 -46 -20 -56 -48 -30 -84 15 -21 17
-21 197 -7 69 6 139 8 155 5 87 -16 253 -59 272 -71 19 -13 25 -12 47 2 41 27
27 115 -18 115 -35 0 -177 37 -189 49 -9 9 1 35 38 106 27 52 52 95 55 95 5 0
26 39 48 90 26 62 115 236 127 250 7 8 22 33 33 55 12 22 43 63 70 91 72 75
89 144 41 159 -27 9 -103 -41 -165 -108 -74 -78 -180 -165 -243 -198 -31 -16
-66 -36 -78 -45 -23 -16 -23 -16 -23 18 0 42 47 138 75 152 11 6 24 17 28 23
4 7 17 13 27 13 10 0 22 5 25 10 13 22 -22 52 -105 90 -47 22 -86 44 -88 50
-2 6 -15 15 -28 20 -32 12 -30 31 11 115 33 66 34 68 30 30 -3 -22 -1 -47 5
-55 15 -23 95 64 111 121 11 41 13 42 20 19 11 -40 10 -149 -3 -212 -10 -47
-9 -60 1 -70 10 -11 20 -4 52 32 21 24 44 57 50 72 6 16 15 28 20 28 5 0 9 11
9 25 0 14 4 25 9 25 4 0 14 21 22 48 12 45 35 86 77 142 67 89 75 142 19 121
-45 -18 -42 7 7 55 26 24 51 44 56 44 13 0 13 -51 0 -84 -5 -14 -14 -65 -20
-113 -14 -106 -28 -142 -58 -150 -42 -10 -45 -37 -11 -92 26 -42 37 -51 60
-51 28 0 31 4 44 67 3 17 13 37 21 44 8 6 14 22 14 35 0 12 5 35 11 51 6 15
17 69 25 118 16 102 42 204 56 222 6 7 12 47 15 90 5 66 3 81 -11 92 -15 13
-22 12 -49 -4 -18 -10 -50 -36 -72 -58 -22 -22 -72 -64 -112 -94 -74 -56 -119
-113 -109 -138 3 -8 21 -23 41 -32 41 -20 42 -23 12 -49 -12 -11 -32 -33 -44
-49 l-22 -30 -1 30 c0 17 -13 50 -29 74 -29 43 -29 45 -14 85 25 67 64 149 84
176 10 15 19 48 21 80 3 49 1 55 -17 58 -11 1 -31 -4 -45 -12z m-30 -1210 c0
-14 -61 -158 -83 -196 -14 -25 -39 -70 -55 -100 -76 -143 -85 -155 -127 -158
-22 -2 -54 -1 -72 3 -27 5 -31 9 -24 23 5 9 26 58 46 107 80 195 85 200 214
275 14 8 37 23 51 33 23 16 50 23 50 13z"/>
</g>
</svg>
