<?xml version="1.0" standalone="no"?>
<!DOCTYPE svg PUBLIC "-//W3C//DTD SVG 20010904//EN"
 "http://www.w3.org/TR/2001/REC-SVG-20010904/DTD/svg10.dtd">
<svg version="1.0" xmlns="http://www.w3.org/2000/svg"
 width="208.000000pt" height="215.000000pt" viewBox="0 0 208.000000 215.000000"
 preserveAspectRatio="xMidYMid meet">
<metadata>
Created by potrace 1.16, written by Peter Selinger 2001-2019
</metadata>
<g transform="translate(0.000000,215.000000) scale(0.100000,-0.100000)"
fill="#000000" stroke="none">
<path d="M1685 2060 c-4 -6 -24 -21 -44 -34 -21 -13 -58 -41 -84 -63 -130
-107 -170 -138 -176 -133 -3 3 -6 16 -7 30 -4 130 -1 120 -34 120 -18 0 -37
-8 -47 -21 -57 -66 -168 -171 -204 -189 -13 -7 -47 -33 -75 -56 -51 -43 -51
-44 -69 -24 -23 26 -40 25 -77 -1 -29 -21 -32 -21 -58 -5 -16 9 -49 16 -75 16
-25 0 -59 7 -75 15 -65 34 -113 -34 -68 -95 21 -28 23 -45 26 -159 l4 -128
-61 -41 c-33 -23 -64 -42 -67 -42 -4 0 -30 -15 -58 -33 -28 -19 -80 -51 -115
-73 -35 -21 -81 -56 -103 -76 -22 -21 -44 -38 -49 -38 -5 0 -9 -15 -9 -34 0
-36 19 -59 52 -61 36 -3 112 30 123 52 15 29 67 76 139 126 34 23 74 52 89 64
41 33 51 29 44 -19 -4 -31 -15 -50 -45 -77 -72 -66 -152 -202 -182 -309 -11
-37 -35 -105 -55 -152 -19 -46 -35 -88 -35 -92 0 -15 47 -8 62 10 9 9 38 60
64 112 58 112 68 125 112 133 25 5 34 3 39 -9 13 -34 -53 -290 -83 -325 -20
-22 -17 -49 4 -49 52 0 126 119 150 239 7 34 7 34 67 35 45 2 78 10 129 34 82
39 97 32 67 -29 -39 -80 -51 -96 -86 -123 -19 -15 -35 -36 -35 -47 0 -32 42
-65 106 -84 32 -9 83 -28 112 -41 29 -13 59 -24 68 -24 22 0 29 -29 12 -47
-13 -12 -19 -13 -36 -2 -33 21 -47 0 -32 -45 21 -65 82 -59 154 14 22 22 48
40 58 40 43 0 231 -54 261 -75 24 -17 55 -19 75 -6 31 19 -42 101 -91 101 -8
0 -22 9 -31 19 -10 11 -40 25 -67 31 -27 7 -52 16 -55 21 -3 5 -14 9 -25 9
-24 0 -24 14 0 54 11 17 47 96 81 176 34 80 70 161 80 180 9 19 23 49 30 65 6
17 20 46 31 65 10 19 37 72 59 117 25 52 62 105 100 145 51 54 60 68 60 100 0
41 -24 64 -51 47 -25 -16 -49 -10 -49 11 0 12 -11 32 -24 45 l-24 24 24 32
c13 18 24 39 24 45 0 7 9 28 19 46 11 18 27 71 35 118 25 132 32 162 48 201
18 40 21 148 6 166 -13 16 -44 17 -53 3z m-80 -222 c-3 -13 -9 -43 -13 -68 -6
-41 -11 -47 -51 -66 -45 -22 -121 -95 -121 -117 0 -7 -11 -28 -24 -48 -13 -19
-29 -53 -35 -75 -15 -51 -50 -115 -51 -91 0 10 6 46 14 80 8 34 18 89 23 122
7 56 10 60 36 63 22 3 32 12 47 45 10 23 41 63 69 90 28 26 55 56 61 67 6 11
20 20 31 20 15 0 18 -5 14 -22z m-387 -171 l3 -37 -57 0 -58 0 42 31 c23 17
42 35 42 41 0 5 6 8 13 6 6 -3 13 -21 15 -41z m-376 -84 c2 -32 2 -64 0 -70
-2 -7 -29 -31 -60 -53 -40 -28 -58 -36 -64 -27 -11 18 -10 125 2 132 6 4 9 18
8 33 -3 22 2 27 27 33 17 4 42 7 57 8 25 1 26 -2 30 -56z m712 -35 c-4 -18 -8
-53 -9 -78 -1 -25 -7 -64 -13 -86 -7 -23 -14 -64 -17 -91 -3 -27 -13 -65 -22
-85 -20 -39 -96 -104 -164 -138 -24 -13 -46 -26 -49 -30 -11 -16 -129 -74
-136 -67 -7 7 16 59 68 150 22 38 67 88 123 138 40 36 55 55 55 72 0 8 7 20
16 28 8 7 27 35 40 61 38 75 93 158 106 158 7 0 8 -11 2 -32z m-340 -35 c-26
-215 -27 -217 -64 -235 -37 -18 -86 -23 -94 -10 -3 5 15 58 39 118 25 60 45
114 45 120 0 18 47 64 65 64 14 0 15 -8 9 -57z m-212 -76 c-16 -51 -35 -111
-42 -135 -22 -69 -32 -61 -25 19 10 103 32 179 64 212 38 41 39 15 3 -96z
m-175 -209 c-9 -80 -12 -137 -6 -142 12 -13 55 29 63 60 4 13 11 24 16 24 15
0 13 -4 -22 -70 -24 -44 -30 -62 -21 -71 19 -19 49 -1 82 51 18 28 36 50 41
50 4 0 13 14 20 31 11 27 17 30 49 27 44 -4 52 -28 19 -61 -23 -23 -31 -46
-68 -177 -20 -73 -54 -109 -72 -76 -14 26 -54 37 -147 42 -46 3 -87 7 -91 9
-17 10 4 230 25 272 8 17 19 52 24 79 5 27 14 50 21 52 6 2 23 15 38 27 15 13
31 20 36 15 4 -4 1 -67 -7 -142z m540 -300 c-8 -23 -38 -96 -66 -162 -28 -65
-51 -122 -51 -127 0 -12 -79 -171 -90 -183 -15 -15 -163 39 -203 74 -8 7 82
202 122 264 19 29 43 47 105 76 45 20 105 53 135 73 30 20 57 35 59 33 2 -2
-3 -24 -11 -48z m-775 -19 c-3 -20 -14 -34 -33 -45 -37 -19 -38 -5 -2 52 29
46 42 43 35 -7z m182 -98 c6 -10 -33 -26 -82 -35 -29 -5 -32 -4 -22 13 5 11
15 22 22 24 22 9 77 7 82 -2z"/>
</g>
</svg>
