<?xml version="1.0" standalone="no"?>
<!DOCTYPE svg PUBLIC "-//W3C//DTD SVG 20010904//EN"
 "http://www.w3.org/TR/2001/REC-SVG-20010904/DTD/svg10.dtd">
<svg version="1.0" xmlns="http://www.w3.org/2000/svg"
 width="208.000000pt" height="215.000000pt" viewBox="0 0 208.000000 215.000000"
 preserveAspectRatio="xMidYMid meet">
<metadata>
Created by potrace 1.16, written by Peter Selinger 2001-2019
</metadata>
<g transform="translate(0.000000,215.000000) scale(0.100000,-0.100000)"
fill="#000000" stroke="none">
<path d="M1570 1927 c-75 -72 -137 -125 -183 -156 -13 -9 -59 -40 -103 -69
-43 -30 -86 -59 -94 -67 -8 -7 -25 -16 -36 -19 -19 -6 -22 -2 -26 31 -3 21 1
57 8 80 14 48 10 159 -7 179 -6 8 -24 14 -40 14 -43 0 -59 -32 -59 -120 -1
-110 -14 -157 -63 -211 -23 -25 -53 -63 -67 -83 -32 -47 -216 -229 -227 -224
-12 4 -7 92 6 117 7 12 28 29 49 39 47 22 51 45 14 82 -26 26 -38 30 -85 30
-90 0 -93 -7 -89 -220 2 -134 -1 -182 -10 -192 -8 -7 -32 -38 -56 -68 -23 -30
-52 -67 -65 -82 -31 -38 -93 -163 -112 -226 -15 -49 -15 -56 0 -78 18 -28 64
-32 105 -9 22 12 25 20 26 77 1 44 8 76 24 108 25 49 113 171 188 261 26 31
71 85 99 120 29 35 63 75 77 89 13 14 31 40 40 58 9 18 26 42 36 52 11 11 28
39 39 63 11 24 27 50 36 57 26 21 19 -33 -10 -76 -27 -40 -31 -64 -14 -81 15
-15 -14 -154 -52 -253 -41 -105 -38 -137 8 -87 27 28 93 156 93 178 0 9 14 43
30 74 17 31 30 65 30 75 0 19 131 147 165 160 11 5 31 18 45 29 74 60 217 161
228 161 16 0 15 -25 -2 -86 -8 -27 -29 -121 -47 -209 -48 -242 -66 -325 -85
-377 -16 -47 -14 -78 6 -78 6 0 24 30 41 68 18 37 36 74 41 82 33 56 68 146
78 201 27 141 94 398 121 464 16 38 32 98 35 132 l7 63 -34 0 c-28 0 -46 -12
-109 -73z m-3 -309 c-3 -8 -6 -5 -6 6 -1 11 2 17 5 13 3 -3 4 -12 1 -19z"/>
<path d="M1178 1337 c-51 -22 -67 -48 -124 -204 -23 -64 -32 -95 -55 -188 -18
-74 -101 -279 -177 -435 -41 -85 -78 -157 -81 -160 -16 -13 -71 -95 -71 -107
0 -56 143 90 224 228 20 35 48 82 61 104 14 22 26 44 28 49 5 14 56 -17 136
-83 74 -61 97 -72 243 -111 70 -19 88 -14 88 22 0 18 -53 58 -77 58 -25 0
-126 53 -157 81 -17 16 -46 39 -64 49 -18 11 -36 28 -39 38 -4 9 -19 32 -35
50 -15 18 -28 38 -28 45 0 15 80 244 111 317 54 130 74 167 108 197 l36 33
-24 20 c-28 24 -42 24 -103 -3z"/>
</g>
</svg>
