<?xml version="1.0" standalone="no"?>
<!DOCTYPE svg PUBLIC "-//W3C//DTD SVG 20010904//EN"
 "http://www.w3.org/TR/2001/REC-SVG-20010904/DTD/svg10.dtd">
<svg version="1.0" xmlns="http://www.w3.org/2000/svg"
 width="209.000000pt" height="215.000000pt" viewBox="0 0 209.000000 215.000000"
 preserveAspectRatio="xMidYMid meet">
<metadata>
Created by potrace 1.16, written by Peter Selinger 2001-2019
</metadata>
<g transform="translate(0.000000,215.000000) scale(0.100000,-0.100000)"
fill="#000000" stroke="none">
<path d="M1574 2010 c-11 -4 -40 -31 -64 -60 -24 -29 -58 -62 -75 -73 -18 -12
-79 -61 -136 -109 -99 -82 -275 -208 -311 -221 -10 -3 -19 0 -22 9 -9 23 -7
82 3 88 4 3 11 38 13 78 5 62 3 76 -16 103 -11 16 -22 32 -23 34 -2 2 -21 -1
-43 -8 l-40 -12 3 -194 2 -194 -135 -133 -135 -133 -3 43 c-6 79 16 183 43
208 14 13 25 32 25 43 0 25 -50 61 -83 61 -75 0 -83 -25 -77 -236 3 -93 3
-179 1 -191 -2 -13 -32 -53 -68 -90 -79 -83 -98 -118 -130 -245 -24 -95 -24
-100 -7 -119 19 -22 69 -25 108 -8 32 15 40 38 21 59 -33 36 -13 129 42 196
18 23 33 43 33 46 0 5 30 39 152 168 86 91 101 109 132 158 32 52 47 47 35
-10 -4 -24 -22 -114 -39 -201 -17 -88 -29 -162 -25 -165 7 -8 44 37 45 54 0
12 42 116 79 196 11 26 21 54 21 64 0 9 10 59 22 110 l23 94 43 0 c37 0 50 6
90 43 26 24 83 69 127 100 44 31 115 87 158 123 43 36 81 63 85 60 7 -8 -17
-137 -38 -206 -10 -30 -23 -82 -30 -115 -6 -33 -18 -80 -25 -105 -26 -88 -48
-241 -36 -253 16 -16 37 9 59 70 10 28 24 58 31 66 17 21 51 134 95 312 37
150 79 298 98 345 17 42 27 134 16 148 -12 14 -15 14 -44 2z"/>
<path d="M1048 1339 c-27 -38 -38 -67 -74 -189 -92 -309 -195 -579 -281 -735
-21 -38 -45 -86 -52 -105 -8 -19 -18 -39 -23 -45 -14 -16 -9 -35 11 -35 24 0
59 34 100 98 19 28 38 52 42 52 12 0 69 101 69 122 0 9 18 56 41 105 56 122
104 245 156 403 72 218 100 269 179 316 33 20 1 38 -75 42 -68 4 -69 4 -93
-29z"/>
<path d="M1048 707 c-83 -68 21 -189 279 -328 67 -36 85 -42 144 -43 70 -1 94
9 84 36 -7 17 -36 33 -137 73 -109 44 -274 181 -285 237 -5 26 -29 49 -50 48
-4 -1 -20 -11 -35 -23z"/>
</g>
</svg>
