<?xml version="1.0" standalone="no"?>
<!DOCTYPE svg PUBLIC "-//W3C//DTD SVG 20010904//EN"
 "http://www.w3.org/TR/2001/REC-SVG-20010904/DTD/svg10.dtd">
<svg version="1.0" xmlns="http://www.w3.org/2000/svg"
 width="210.000000pt" height="216.000000pt" viewBox="0 0 210.000000 216.000000"
 preserveAspectRatio="xMidYMid meet">
<metadata>
Created by potrace 1.16, written by Peter Selinger 2001-2019
</metadata>
<g transform="translate(0.000000,216.000000) scale(0.100000,-0.100000)"
fill="#000000" stroke="none">
<path d="M1048 1959 c-33 -24 -43 -60 -58 -194 -18 -172 -46 -304 -68 -328
-56 -61 -75 -126 -50 -166 9 -15 5 -36 -25 -115 -38 -99 -44 -126 -27 -126 16
0 76 92 114 175 15 33 31 67 36 75 6 8 14 24 19 35 5 11 19 31 31 45 12 14 30
34 39 45 20 25 150 135 159 135 4 0 30 21 57 46 28 25 69 59 93 75 l42 30 0
-43 c0 -24 -5 -59 -10 -78 -6 -19 -24 -118 -40 -220 -17 -102 -37 -212 -45
-246 -28 -115 -16 -133 39 -57 38 52 79 168 96 273 16 97 58 296 80 375 10 39
19 98 19 132 1 53 -2 64 -20 73 -17 10 -27 7 -57 -16 -61 -47 -155 -125 -183
-153 -15 -14 -48 -42 -75 -61 -27 -19 -53 -41 -57 -48 -11 -16 -87 -65 -94
-59 -6 7 26 177 38 199 5 10 9 31 9 48 0 17 7 47 15 67 20 47 19 58 -7 83 -27
25 -36 25 -70 -1z"/>
<path d="M723 1760 c-18 -10 -63 -36 -100 -56 -37 -21 -98 -57 -136 -81 -37
-24 -82 -49 -100 -55 -17 -6 -39 -16 -47 -23 -8 -7 -46 -27 -85 -44 -38 -18
-77 -35 -85 -40 -9 -5 -29 -12 -45 -15 -36 -8 -70 -51 -67 -86 4 -49 67 -76
112 -48 13 9 27 9 47 2 22 -7 29 -18 35 -49 9 -46 1 -273 -13 -390 -5 -44 -14
-118 -20 -164 -11 -93 -46 -186 -85 -222 -30 -28 -30 -51 -3 -88 19 -26 25
-28 52 -20 16 4 37 15 47 24 9 8 42 23 72 34 31 11 67 25 79 32 13 7 40 14 59
16 19 2 59 13 88 23 60 23 191 54 198 47 13 -12 -46 -113 -149 -252 -43 -59
-46 -75 -11 -75 35 0 62 16 83 51 10 16 41 54 70 84 28 29 66 80 85 112 54 94
78 133 82 133 10 0 102 -50 106 -57 2 -7 150 -106 223 -151 53 -32 113 -60
142 -66 17 -4 37 -14 44 -22 6 -8 19 -14 27 -14 9 0 34 -6 57 -14 112 -38 150
-46 270 -56 142 -11 182 -5 222 32 22 20 32 57 16 59 -5 1 -48 3 -98 4 -169 6
-277 21 -335 47 -30 14 -75 31 -100 38 -25 8 -50 17 -55 21 -6 4 -37 18 -70
30 -33 12 -79 36 -103 53 -24 17 -57 41 -75 54 -62 45 -124 109 -134 138 -7
21 -17 30 -36 32 -15 2 -27 8 -27 14 0 20 22 81 46 128 12 25 36 83 52 130 35
99 94 233 112 255 7 8 23 15 36 15 20 0 24 5 24 29 0 24 -5 30 -32 36 -58 13
-109 8 -129 -12 -21 -22 -65 -142 -102 -278 -6 -22 -25 -67 -43 -100 -17 -33
-39 -85 -48 -114 -17 -58 -81 -181 -100 -193 -6 -4 -16 -6 -22 -4 -10 4 -44
-3 -302 -59 -128 -27 -159 -28 -153 -4 2 8 8 48 13 89 5 41 12 86 14 100 2 14
8 86 14 160 13 162 26 185 80 142 l22 -18 -38 -72 c-26 -51 -34 -76 -27 -83
14 -14 73 38 110 96 15 25 33 45 40 45 6 0 41 -7 78 -15 61 -15 132 -14 155 0
18 11 11 41 -12 52 -13 6 -50 16 -82 22 -82 15 -101 35 -76 79 5 9 20 51 34
92 57 170 57 170 105 170 55 0 70 22 38 54 -14 14 -38 28 -54 31 -15 3 -41 10
-57 15 -22 7 -34 5 -51 -8 -32 -24 -40 -42 -60 -157 -16 -92 -48 -190 -67
-201 -4 -3 -22 3 -39 12 -17 8 -43 14 -56 11 l-25 -5 4 116 c3 101 6 116 22
126 11 6 29 20 40 31 28 28 141 95 158 95 8 0 37 17 65 38 28 20 80 57 117 82
64 44 84 69 71 90 -10 17 -78 11 -112 -10z m567 -1330 c0 -5 -4 -10 -10 -10
-5 0 -10 5 -10 10 0 6 5 10 10 10 6 0 10 -4 10 -10z m115 -50 c3 -6 -1 -7 -9
-4 -18 7 -21 14 -7 14 6 0 13 -4 16 -10z"/>
</g>
</svg>
