<?xml version="1.0" standalone="no"?>
<!DOCTYPE svg PUBLIC "-//W3C//DTD SVG 20010904//EN"
 "http://www.w3.org/TR/2001/REC-SVG-20010904/DTD/svg10.dtd">
<svg version="1.0" xmlns="http://www.w3.org/2000/svg"
 width="208.000000pt" height="215.000000pt" viewBox="0 0 208.000000 215.000000"
 preserveAspectRatio="xMidYMid meet">
<metadata>
Created by potrace 1.16, written by Peter Selinger 2001-2019
</metadata>
<g transform="translate(0.000000,215.000000) scale(0.100000,-0.100000)"
fill="#000000" stroke="none">
<path d="M824 2038 c-17 -13 -55 -44 -86 -70 -61 -53 -77 -57 -102 -29 -30 33
-72 45 -106 31 -16 -7 -30 -18 -30 -24 -3 -69 -12 -132 -22 -143 -15 -18 -157
-91 -190 -97 -38 -7 -132 -46 -150 -63 -20 -18 -23 -45 -8 -73 18 -34 41 -39
115 -25 56 11 75 19 97 44 23 26 109 71 135 71 3 0 3 -41 0 -91 -5 -82 -9 -95
-33 -120 -15 -16 -31 -29 -35 -29 -4 0 -20 -11 -35 -25 -16 -13 -58 -42 -94
-64 -76 -45 -92 -74 -65 -114 25 -38 58 -34 117 13 58 46 78 50 78 16 0 -29
-16 -48 -105 -121 -105 -87 -138 -151 -97 -188 26 -24 65 -21 123 9 42 21 50
29 45 47 -4 16 5 29 37 56 127 108 258 236 263 258 9 34 -16 58 -50 49 -14 -3
-39 -20 -56 -36 -17 -17 -35 -30 -41 -30 -12 0 -2 43 22 96 10 22 19 46 19 53
0 7 15 31 34 54 44 55 66 115 46 127 -8 5 -22 4 -33 -2 -28 -15 -36 4 -25 60
14 76 17 82 71 117 61 38 191 164 220 212 8 13 -8 53 -21 53 -5 0 -22 -10 -38
-22z"/>
<path d="M1216 1813 c-53 -60 -109 -117 -126 -126 -16 -10 -30 -22 -30 -27 0
-5 -15 -17 -32 -26 -18 -9 -43 -27 -55 -40 -45 -48 -54 -22 -27 74 8 32 20 66
25 78 6 11 9 36 7 55 -3 31 -6 34 -32 31 -32 -3 -68 -27 -86 -55 -13 -21 -31
-115 -56 -282 -8 -60 -22 -123 -29 -140 -18 -40 -73 -268 -81 -338 -8 -64 4
-87 42 -87 30 0 47 26 74 115 70 228 87 274 131 340 46 70 153 180 219 225 19
13 50 38 69 57 19 18 38 33 42 33 27 0 21 -195 -10 -340 -48 -225 -74 -331
-97 -398 -29 -87 -29 -82 -5 -82 19 0 61 43 61 63 0 15 42 101 52 108 10 6 22
44 48 146 10 39 20 76 23 80 3 5 15 64 26 130 16 91 21 160 20 284 -2 208 -5
223 -45 227 -28 3 -40 -7 -128 -105z"/>
<path d="M1117 1315 c-11 -7 -25 -11 -33 -8 -37 14 -81 -83 -129 -287 -10 -41
-25 -88 -33 -105 -15 -30 -25 -61 -62 -204 -11 -41 -31 -97 -45 -125 -13 -28
-28 -67 -31 -86 -4 -19 -13 -46 -20 -60 -7 -14 -31 -74 -54 -135 -23 -60 -50
-130 -60 -155 -26 -64 -28 -91 -7 -104 25 -16 49 3 65 49 7 21 19 43 26 49 15
11 86 146 86 162 0 5 13 41 29 79 16 39 41 100 56 137 28 71 39 81 50 49 8
-28 147 -129 270 -198 45 -25 51 -33 61 -78 23 -95 44 -139 81 -167 28 -22 39
-25 54 -17 24 12 24 29 -1 76 -20 40 -40 141 -40 206 0 32 -4 39 -27 48 -59
23 -99 44 -133 70 -19 14 -45 29 -58 33 -12 4 -43 32 -68 61 -54 63 -65 69
-99 53 -14 -6 -28 -9 -31 -5 -8 8 22 142 47 208 11 30 32 95 46 144 32 113 86
221 132 261 44 39 38 64 -16 64 -21 0 -46 -7 -56 -15z"/>
<path d="M596 1158 c-27 -17 -56 -44 -65 -59 -27 -43 -112 -128 -190 -189 -39
-30 -107 -84 -151 -120 -117 -95 -137 -110 -149 -110 -6 0 -11 -6 -11 -14 0
-8 -7 -16 -15 -20 -10 -3 -15 -19 -15 -45 0 -41 18 -61 55 -61 21 0 149 97
199 151 54 58 172 159 187 159 8 0 9 -12 5 -37 -11 -62 -17 -73 -35 -73 -21 0
-41 -22 -60 -65 -7 -16 -18 -38 -23 -48 -9 -17 -37 -123 -51 -192 -4 -16 -16
-64 -27 -104 -19 -72 -19 -111 1 -111 14 0 68 89 80 132 5 21 14 38 18 38 8 0
42 77 56 128 15 52 25 3 21 -106 -4 -147 8 -203 47 -217 51 -17 57 4 57 214 1
262 12 363 57 500 28 84 46 124 70 149 25 26 33 44 33 71 0 37 -14 61 -35 61
-6 0 -33 -14 -59 -32z"/>
<path d="M621 679 c-15 -14 -20 -27 -15 -41 8 -26 54 -67 75 -68 8 0 20 -5 25
-10 7 -7 21 -7 42 1 41 14 36 37 -21 97 -46 47 -72 52 -106 21z"/>
</g>
</svg>
