<?xml version="1.0" standalone="no"?>
<!DOCTYPE svg PUBLIC "-//W3C//DTD SVG 20010904//EN"
 "http://www.w3.org/TR/2001/REC-SVG-20010904/DTD/svg10.dtd">
<svg version="1.0" xmlns="http://www.w3.org/2000/svg"
 width="206.000000pt" height="213.000000pt" viewBox="0 0 206.000000 213.000000"
 preserveAspectRatio="xMidYMid meet">
<metadata>
Created by potrace 1.16, written by Peter Selinger 2001-2019
</metadata>
<g transform="translate(0.000000,213.000000) scale(0.100000,-0.100000)"
fill="#000000" stroke="none">
<path d="M1100 2018 c-15 -17 -20 -31 -17 -53 3 -16 11 -61 17 -100 21 -129
22 -210 1 -237 -15 -18 -21 -49 -26 -136 l-8 -113 -35 -14 c-19 -8 -37 -15
-39 -15 -5 0 0 43 12 105 4 17 10 89 15 160 5 72 10 141 12 154 5 38 -23 48
-65 23 -31 -20 -35 -28 -41 -75 -3 -28 -5 -119 -5 -200 0 -202 -8 -237 -56
-258 -74 -31 -244 -158 -269 -201 -21 -35 -8 -68 37 -91 49 -26 81 -20 87 18
7 40 16 54 76 103 53 44 74 52 74 27 0 -8 5 -15 10 -15 6 0 10 4 10 8 0 20
117 122 141 122 34 0 -14 -157 -98 -325 -31 -60 -62 -123 -70 -140 -8 -16 -18
-37 -22 -45 -14 -26 -21 -74 -13 -86 4 -6 18 -17 30 -23 21 -11 27 -10 48 10
25 23 54 73 54 93 0 6 22 43 48 81 51 75 82 92 101 56 9 -16 4 -40 -25 -118
-21 -54 -49 -116 -63 -138 -45 -69 -125 -180 -136 -187 -5 -4 -30 -25 -55 -48
-135 -125 -217 -167 -264 -136 -33 21 -46 20 -46 -3 0 -11 14 -30 32 -42 48
-34 116 -30 193 11 82 44 244 168 260 200 8 15 21 33 31 41 19 16 90 125 116
179 28 60 57 162 62 227 9 97 -20 143 -99 155 -11 2 -19 5 -19 8 1 3 11 37 22
75 11 39 30 106 42 150 35 124 37 126 175 211 33 20 62 40 65 44 3 4 28 20 56
36 65 37 105 83 97 112 -3 12 -8 22 -12 22 -13 0 -61 -25 -61 -32 0 -10 -91
-64 -131 -77 -19 -6 -59 -27 -89 -46 -30 -19 -58 -35 -62 -35 -4 0 -8 29 -8
65 l0 65 30 0 c24 0 31 5 35 28 16 77 103 180 230 274 59 43 88 86 74 110 -8
15 -14 15 -66 -8 -32 -14 -72 -39 -90 -55 -19 -16 -37 -29 -41 -29 -4 0 -32
-20 -62 -45 -30 -25 -58 -45 -62 -45 -12 0 -10 44 4 93 11 43 10 45 -23 85
-41 50 -85 57 -119 20z"/>
<path d="M790 951 c-14 -3 -44 -26 -65 -49 -37 -42 -135 -198 -135 -215 0 -5
-7 -15 -16 -24 -10 -11 -12 -19 -5 -26 14 -14 47 10 101 73 66 78 131 140 147
140 19 0 37 44 29 73 -7 29 -21 36 -56 28z"/>
</g>
</svg>
