<?xml version="1.0" standalone="no"?>
<!DOCTYPE svg PUBLIC "-//W3C//DTD SVG 20010904//EN"
 "http://www.w3.org/TR/2001/REC-SVG-20010904/DTD/svg10.dtd">
<svg version="1.0" xmlns="http://www.w3.org/2000/svg"
 width="208.000000pt" height="212.000000pt" viewBox="0 0 208.000000 212.000000"
 preserveAspectRatio="xMidYMid meet">
<metadata>
Created by potrace 1.16, written by Peter Selinger 2001-2019
</metadata>
<g transform="translate(0.000000,212.000000) scale(0.100000,-0.100000)"
fill="#000000" stroke="none">
<path d="M1122 2095 c-23 -13 -64 -42 -90 -64 -27 -23 -52 -41 -58 -41 -5 0
-28 -15 -51 -33 -23 -17 -70 -50 -105 -72 -35 -21 -88 -59 -118 -82 -362 -284
-358 -279 -325 -342 32 -63 100 -54 149 22 54 82 142 169 226 222 54 34 54 40
-10 -200 -33 -126 -81 -257 -108 -298 -14 -21 -29 -62 -33 -91 -6 -49 -20 -82
-109 -271 -21 -44 -41 -90 -44 -101 -10 -32 -116 -233 -127 -239 -5 -4 -9 -13
-9 -22 0 -9 -11 -30 -23 -47 -24 -32 -80 -137 -75 -141 8 -7 48 16 48 28 0 7
23 38 50 68 28 30 67 79 87 109 21 30 45 64 54 75 21 24 56 86 100 178 34 70
41 75 83 55 l26 -11 -32 -56 c-17 -31 -46 -78 -63 -106 -48 -74 -90 -156 -105
-201 -7 -21 -28 -70 -47 -108 -19 -37 -32 -74 -29 -82 10 -26 45 -15 62 19 9
17 26 43 38 57 13 14 28 44 36 67 7 22 30 63 51 90 20 26 47 66 59 88 12 22
39 63 60 90 21 28 50 70 64 93 15 24 41 51 58 60 62 34 72 46 59 71 -10 18 -8
30 20 77 38 68 58 62 41 -13 -18 -83 -51 -205 -78 -288 -41 -129 -44 -140 -44
-176 0 -42 16 -98 35 -123 36 -47 274 -81 369 -53 28 9 71 21 96 29 45 13 45
13 52 68 4 30 8 107 9 170 1 91 -2 123 -16 155 -10 22 -21 49 -26 60 -17 44
-49 111 -61 129 -19 28 -109 116 -119 116 -37 0 38 83 93 102 15 5 28 14 28
19 0 4 23 23 50 41 45 29 72 69 57 84 -3 3 -38 -10 -79 -29 -40 -19 -98 -45
-128 -57 -30 -13 -59 -27 -64 -32 -30 -26 -28 9 6 122 13 43 21 109 25 198 5
118 4 134 -12 152 -11 12 -31 20 -51 20 -65 0 -64 3 -64 -160 0 -106 -4 -150
-12 -158 -7 -5 -38 -13 -68 -17 -30 -4 -74 -13 -97 -20 -23 -7 -44 -10 -47 -8
-3 3 1 22 9 42 8 20 28 88 46 151 48 177 71 216 161 272 25 15 38 30 38 46 0
26 -6 27 -82 6 -73 -21 -88 -10 -47 34 16 17 34 32 39 32 5 0 15 6 22 13 7 7
30 23 51 36 20 12 37 26 37 31 0 4 25 22 55 39 30 17 55 36 55 41 0 6 7 10 15
10 8 0 23 8 33 18 10 10 44 26 75 36 31 10 57 20 57 22 0 2 -42 4 -92 4 -80 0
-99 -4 -136 -25z m-238 -928 c-27 -52 -102 -175 -141 -228 l-35 -50 -32 21
c-17 11 -30 23 -29 27 36 113 64 171 101 203 37 33 127 72 144 63 5 -2 1 -19
-8 -36z m253 -208 c37 -12 95 -79 111 -129 42 -129 43 -130 36 -252 -8 -136
-9 -138 -106 -164 -73 -19 -114 -18 -186 7 -49 17 -62 25 -63 42 -3 48 4 105
21 162 9 33 25 89 35 125 10 36 24 84 31 108 8 23 14 53 14 67 0 50 26 58 107
34z"/>
</g>
</svg>
