<?xml version="1.0" standalone="no"?>
<!DOCTYPE svg PUBLIC "-//W3C//DTD SVG 20010904//EN"
 "http://www.w3.org/TR/2001/REC-SVG-20010904/DTD/svg10.dtd">
<svg version="1.0" xmlns="http://www.w3.org/2000/svg"
 width="208.000000pt" height="205.000000pt" viewBox="0 0 208.000000 205.000000"
 preserveAspectRatio="xMidYMid meet">
<metadata>
Created by potrace 1.16, written by Peter Selinger 2001-2019
</metadata>
<g transform="translate(0.000000,205.000000) scale(0.100000,-0.100000)"
fill="#000000" stroke="none">
<path d="M1378 1769 c-48 -18 -59 -70 -52 -226 6 -115 5 -138 -8 -147 -45 -33
-94 -73 -112 -92 -12 -11 -37 -31 -56 -44 -19 -13 -53 -40 -75 -61 -22 -20
-63 -49 -92 -64 -73 -38 -82 -80 -22 -105 25 -11 36 -10 68 5 37 16 207 182
263 255 21 28 29 33 39 22 10 -10 11 -23 2 -67 -7 -31 -10 -62 -7 -70 3 -8 -1
-50 -10 -94 -9 -43 -14 -85 -11 -93 3 -7 -4 -42 -15 -77 -11 -35 -20 -71 -20
-80 0 -9 -4 -21 -9 -26 -4 -6 -15 -37 -24 -70 -10 -34 -28 -89 -41 -124 -28
-70 -22 -102 23 -125 28 -15 65 -8 149 30 29 13 56 24 61 24 7 0 40 26 74 58
27 26 105 145 120 182 20 54 23 104 5 98 -7 -3 -33 -29 -56 -59 -97 -120 -110
-135 -148 -161 -21 -14 -54 -29 -71 -33 -42 -8 -42 4 -8 106 26 75 62 213 67
259 2 20 11 26 46 33 45 9 47 12 27 59 -5 13 1 22 25 35 47 27 80 49 130 88
25 19 55 39 68 45 20 9 32 50 15 50 -5 0 -42 -14 -83 -31 -41 -18 -86 -36
-100 -42 -14 -5 -33 -13 -42 -18 -10 -5 -27 -9 -38 -9 -18 0 -19 7 -18 108 0
59 -2 157 -5 217 -7 134 -1 176 24 182 20 5 25 29 11 50 -11 18 -62 24 -94 12z"/>
<path d="M804 1585 c-9 -13 -20 -56 -25 -94 -4 -38 -11 -80 -14 -93 -3 -13
-10 -54 -15 -93 -5 -38 -17 -101 -25 -140 -9 -38 -20 -99 -25 -135 -5 -36 -18
-114 -30 -175 -72 -395 -73 -494 -5 -511 54 -13 232 128 272 216 4 8 24 33 45
55 21 22 41 49 44 60 4 11 14 31 24 45 29 42 53 117 46 145 -9 34 -19 32 -42
-8 -36 -63 -94 -146 -107 -154 -7 -4 -36 -35 -63 -68 -72 -86 -132 -145 -150
-145 -18 0 -16 30 17 215 11 61 27 159 35 219 8 60 17 112 19 116 6 9 41 192
51 265 4 27 13 63 19 80 7 16 18 70 26 118 14 100 11 107 -48 107 -24 0 -37
-7 -49 -25z"/>
</g>
</svg>
