<?xml version="1.0" standalone="no"?>
<!DOCTYPE svg PUBLIC "-//W3C//DTD SVG 20010904//EN"
 "http://www.w3.org/TR/2001/REC-SVG-20010904/DTD/svg10.dtd">
<svg version="1.0" xmlns="http://www.w3.org/2000/svg"
 width="207.000000pt" height="205.000000pt" viewBox="0 0 207.000000 205.000000"
 preserveAspectRatio="xMidYMid meet">
<metadata>
Created by potrace 1.16, written by Peter Selinger 2001-2019
</metadata>
<g transform="translate(0.000000,205.000000) scale(0.100000,-0.100000)"
fill="#000000" stroke="none">
<path d="M1381 1811 c-33 -27 -35 -33 -52 -147 -10 -65 -18 -143 -19 -173 0
-82 -29 -348 -46 -421 -8 -36 -20 -92 -28 -125 -7 -33 -23 -84 -35 -113 -11
-29 -21 -75 -21 -102 0 -41 4 -51 22 -61 29 -16 198 -5 237 15 26 14 111 105
111 120 0 3 9 15 20 26 12 12 20 33 20 54 0 19 5 38 10 41 6 3 10 22 10 41 0
27 -4 34 -20 34 -11 0 -20 -4 -20 -9 0 -4 -16 -28 -35 -52 -19 -24 -35 -49
-35 -54 0 -6 -21 -32 -48 -58 -39 -38 -56 -48 -95 -53 -59 -8 -65 4 -38 77 11
30 24 77 30 104 20 101 33 145 42 145 5 0 9 -5 9 -11 0 -7 11 -9 28 -6 41 7
185 46 190 52 10 9 -21 35 -42 35 -46 0 -50 15 -14 56 18 22 37 42 43 46 5 3
40 33 77 65 45 39 67 65 68 81 0 25 -12 28 -33 7 -9 -8 -36 -22 -62 -30 -48
-17 -83 -39 -183 -117 -33 -27 -63 -48 -67 -48 -3 0 -3 30 0 68 3 37 10 138
15 224 5 89 16 171 23 190 26 60 36 99 30 114 -9 23 -55 16 -92 -15z"/>
<path d="M757 1732 c-11 -12 -17 -36 -17 -69 0 -28 -4 -73 -10 -102 -5 -28
-12 -94 -14 -147 -6 -116 -44 -335 -87 -504 -5 -19 -23 -120 -40 -224 l-30
-188 27 -29 c15 -16 35 -29 43 -28 48 2 291 172 291 203 0 6 23 30 50 54 28
24 50 48 50 54 0 6 13 32 28 57 31 51 62 128 62 154 0 36 -29 14 -92 -70 -102
-137 -276 -301 -320 -303 -11 0 -10 49 2 107 5 26 17 91 26 143 18 108 27 153
46 228 l13 54 27 -21 c32 -26 46 -26 72 -2 12 11 45 31 74 46 41 21 53 31 51
48 -3 41 1 46 59 89 31 24 59 46 60 51 5 11 24 29 60 56 35 26 65 78 51 86
-11 7 -66 -21 -76 -39 -4 -8 -40 -32 -79 -53 -73 -39 -179 -114 -243 -170 -20
-17 -37 -30 -40 -28 -2 2 6 84 18 182 12 98 23 223 24 278 l2 100 -36 3 c-24
2 -40 -3 -52 -16z"/>
</g>
</svg>
