<?xml version="1.0" standalone="no"?>
<!DOCTYPE svg PUBLIC "-//W3C//DTD SVG 20010904//EN"
 "http://www.w3.org/TR/2001/REC-SVG-20010904/DTD/svg10.dtd">
<svg version="1.0" xmlns="http://www.w3.org/2000/svg"
 width="210.000000pt" height="206.000000pt" viewBox="0 0 210.000000 206.000000"
 preserveAspectRatio="xMidYMid meet">
<metadata>
Created by potrace 1.16, written by Peter Selinger 2001-2019
</metadata>
<g transform="translate(0.000000,206.000000) scale(0.100000,-0.100000)"
fill="#000000" stroke="none">
<path d="M638 1677 c-15 -6 -33 -24 -41 -41 -16 -33 -49 -204 -42 -216 8 -14
-15 -276 -28 -320 -8 -25 -17 -76 -21 -115 -4 -38 -19 -135 -32 -215 -14 -80
-29 -185 -34 -235 -5 -49 -13 -120 -19 -157 -13 -80 -3 -117 31 -120 44 -3 57
2 85 28 15 14 76 69 135 123 60 53 108 102 108 109 0 6 4 12 9 12 17 0 100 82
131 128 34 51 36 60 15 68 -15 6 -124 -66 -138 -91 -4 -8 -32 -31 -63 -51 -30
-20 -60 -44 -67 -53 -6 -9 -37 -33 -67 -54 l-55 -36 -3 61 c-3 55 24 256 49
365 5 23 9 53 9 67 0 14 5 26 10 26 6 0 10 -6 10 -13 0 -22 35 -47 65 -47 39
0 115 30 115 44 0 7 -5 17 -10 22 -8 8 15 34 72 86 145 131 195 175 204 179
19 8 53 55 59 82 9 33 -11 37 -43 7 -12 -11 -24 -20 -27 -20 -3 0 -40 -24 -81
-52 -108 -75 -136 -97 -160 -119 -11 -10 -26 -19 -33 -19 -12 0 -75 -49 -143
-113 l-31 -28 7 53 c4 29 13 78 21 108 7 30 18 110 24 177 5 67 15 132 21 143
6 12 15 42 20 68 5 26 17 69 27 95 18 47 18 49 -1 63 -23 16 -49 17 -88 1z"/>
<path d="M1223 1662 c-31 -20 -46 -113 -44 -274 2 -146 0 -164 -30 -285 -17
-70 -35 -148 -40 -173 -4 -25 -16 -73 -25 -108 l-17 -63 24 -25 c23 -25 28
-26 99 -21 82 5 128 25 193 84 40 35 97 134 97 168 0 40 -28 38 -54 -4 -41
-64 -144 -141 -190 -141 -8 0 -19 7 -24 16 -9 16 -5 40 42 259 19 89 26 151
27 240 0 66 7 162 15 214 14 88 13 94 -3 107 -20 15 -52 18 -70 6z"/>
<path d="M1636 1443 c-19 -5 -49 -25 -158 -103 -27 -19 -48 -39 -48 -46 0 -6
-21 -28 -46 -49 -55 -45 -57 -78 -8 -107 31 -18 33 -18 78 1 40 18 46 24 46
51 0 42 35 93 119 173 39 37 71 72 71 77 0 10 -21 11 -54 3z"/>
</g>
</svg>
