<?xml version="1.0" standalone="no"?>
<!DOCTYPE svg PUBLIC "-//W3C//DTD SVG 20010904//EN"
 "http://www.w3.org/TR/2001/REC-SVG-20010904/DTD/svg10.dtd">
<svg version="1.0" xmlns="http://www.w3.org/2000/svg"
 width="209.000000pt" height="204.000000pt" viewBox="0 0 209.000000 204.000000"
 preserveAspectRatio="xMidYMid meet">
<metadata>
Created by potrace 1.16, written by Peter Selinger 2001-2019
</metadata>
<g transform="translate(0.000000,204.000000) scale(0.100000,-0.100000)"
fill="#000000" stroke="none">
<path d="M702 2021 c-39 -18 -43 -30 -47 -144 -5 -161 -72 -468 -120 -554 -14
-25 -25 -49 -25 -54 0 -14 -122 -190 -167 -239 -24 -27 -53 -50 -65 -52 -12
-2 -23 -9 -26 -17 -3 -10 5 -12 39 -6 45 8 116 53 156 99 28 32 41 33 45 4 5
-35 50 -55 89 -41 30 11 31 11 24 -10 -3 -12 -12 -62 -20 -112 -24 -152 -46
-268 -55 -284 -4 -9 -22 -29 -39 -45 -38 -36 -39 -49 -6 -74 l26 -20 -12 -156
c-10 -126 -10 -157 0 -170 8 -9 19 -16 25 -16 22 0 56 40 56 66 0 15 7 56 15
93 8 36 20 95 27 131 7 38 21 74 33 86 18 18 122 60 130 52 9 -9 47 -220 55
-305 13 -139 39 -153 63 -34 l13 63 60 20 c64 22 103 53 140 110 13 21 29 38
34 38 6 0 10 -38 10 -91 0 -77 4 -98 26 -144 31 -63 57 -79 116 -73 51 6 168
58 210 93 16 14 36 25 44 25 8 0 14 5 14 10 0 6 6 10 12 10 7 0 38 16 68 36
30 20 73 49 95 63 22 15 54 33 71 40 33 13 61 52 50 70 -17 26 -71 22 -131
-10 -33 -17 -80 -42 -105 -55 -25 -13 -50 -24 -56 -24 -6 0 -19 -9 -29 -20
-10 -11 -26 -19 -35 -18 -9 2 -28 -9 -41 -23 -38 -42 -178 -85 -194 -60 -4 8
-6 188 -3 386 1 43 19 138 29 150 4 6 11 30 15 53 5 31 2 45 -10 57 -9 9 -14
21 -11 26 7 10 25 221 32 360 3 78 1 98 -11 108 -19 16 -59 8 -84 -17 -26 -25
-110 -64 -157 -73 -65 -12 -218 -57 -224 -67 -3 -4 -43 -19 -89 -32 -45 -12
-85 -26 -87 -31 -3 -4 -27 -15 -54 -24 -27 -9 -57 -25 -66 -35 -20 -22 -45
-27 -45 -9 0 7 15 30 34 53 18 23 45 64 59 92 34 67 52 82 75 62 25 -21 53
-30 66 -20 6 5 24 12 40 16 17 4 41 15 55 25 14 10 67 40 116 66 50 26 97 54
106 61 8 8 25 14 36 14 51 0 58 75 9 99 -27 12 -35 10 -150 -49 -66 -34 -123
-66 -126 -70 -3 -4 -18 -10 -33 -14 -16 -4 -47 -18 -69 -32 -22 -14 -42 -23
-45 -21 -8 8 28 160 43 184 25 40 55 61 102 73 26 6 72 24 102 39 31 16 75 32
99 36 23 4 55 13 69 21 15 8 36 14 47 14 30 0 65 28 65 51 0 33 -44 43 -125
28 -38 -7 -77 -14 -85 -15 -8 -2 -23 -7 -35 -12 -53 -24 -74 -31 -123 -42 -29
-7 -56 -9 -59 -6 -12 11 -2 119 14 158 13 32 13 43 3 63 -15 29 -57 36 -98 16z
m504 -883 c-4 -57 -12 -141 -19 -186 l-11 -84 -71 -41 c-121 -72 -139 -76
-130 -31 3 13 7 35 10 49 3 14 13 34 23 43 38 40 85 116 103 168 17 47 18 59
6 82 -8 18 -20 27 -35 26 -16 0 -22 5 -22 22 0 19 9 25 63 37 97 23 90 31 83
-85z m-300 16 c-3 -9 -6 -20 -6 -25 0 -5 -21 -19 -47 -32 -30 -14 -57 -37 -72
-60 -29 -44 -48 -47 -57 -9 -4 15 -11 32 -16 39 -12 15 21 37 114 74 85 33 92
34 84 13z m-55 -273 c-5 -30 -11 -37 -33 -39 -18 -2 -30 3 -37 15 -8 16 -3 27
26 58 32 35 37 37 43 21 3 -11 4 -35 1 -55z m-147 -94 c-3 -9 -10 -17 -15 -17
-11 0 -12 34 -2 44 11 11 24 -9 17 -27z m431 -91 c-8 -27 -19 -54 -25 -61 -5
-6 -16 -31 -24 -54 -9 -23 -26 -56 -39 -74 -14 -17 -28 -43 -32 -57 -11 -37
-45 -70 -72 -70 -23 0 -23 2 -18 73 11 139 22 171 74 208 41 30 143 88 148 84
1 0 -4 -23 -12 -49z m-295 24 c0 -5 -4 -10 -10 -10 -5 0 -10 5 -10 10 0 6 5
10 10 10 6 0 10 -4 10 -10z m-86 -36 c3 -9 6 -19 6 -23 0 -7 -66 -31 -84 -31
-14 0 -5 22 19 45 28 29 50 32 59 9z"/>
</g>
</svg>
