<?xml version="1.0" standalone="no"?>
<!DOCTYPE svg PUBLIC "-//W3C//DTD SVG 20010904//EN"
 "http://www.w3.org/TR/2001/REC-SVG-20010904/DTD/svg10.dtd">
<svg version="1.0" xmlns="http://www.w3.org/2000/svg"
 width="206.000000pt" height="208.000000pt" viewBox="0 0 206.000000 208.000000"
 preserveAspectRatio="xMidYMid meet">
<metadata>
Created by potrace 1.16, written by Peter Selinger 2001-2019
</metadata>
<g transform="translate(0.000000,208.000000) scale(0.100000,-0.100000)"
fill="#000000" stroke="none">
<path d="M756 1949 c-14 -11 -26 -28 -26 -36 0 -9 -7 -41 -16 -72 -9 -31 -25
-87 -36 -126 -11 -38 -28 -90 -38 -115 -10 -25 -35 -94 -54 -155 -20 -60 -45
-128 -56 -150 -11 -21 -20 -45 -20 -53 0 -7 -11 -37 -23 -65 -13 -29 -29 -74
-37 -102 -14 -56 -93 -236 -122 -277 -48 -70 10 -83 66 -14 20 23 36 46 36 50
0 4 18 31 41 61 28 37 53 89 79 168 21 63 57 157 79 209 23 53 41 103 41 112
0 9 4 24 10 34 5 9 22 49 36 87 14 39 38 105 54 149 16 43 35 86 43 95 20 24
41 124 33 162 -12 62 -43 75 -90 38z"/>
<path d="M1167 1892 c-23 -21 -60 -51 -82 -67 -22 -16 -59 -46 -82 -67 -23
-21 -68 -54 -99 -74 -31 -20 -78 -58 -106 -84 -60 -58 -63 -93 -11 -119 39
-19 40 -25 9 -56 -33 -33 -52 -91 -36 -110 7 -8 19 -15 26 -15 21 0 17 -28 -6
-35 -11 -3 -27 -16 -37 -28 -10 -12 -39 -39 -64 -59 -46 -37 -122 -150 -134
-199 -7 -30 8 -46 51 -55 40 -8 76 23 108 91 24 53 26 55 63 53 21 -2 49 1 62
6 l24 8 -23 -32 c-12 -17 -48 -57 -80 -88 -70 -70 -95 -114 -80 -142 13 -25
74 -37 97 -19 14 12 15 11 8 -11 -4 -14 -16 -35 -27 -47 -27 -29 -20 -64 19
-88 18 -11 32 -25 33 -30 0 -14 -207 -225 -221 -225 -23 0 -79 -53 -79 -76 0
-25 34 -54 64 -54 17 0 94 34 136 60 8 5 49 25 90 45 41 20 80 43 86 51 6 8
14 14 16 14 10 0 19 -65 28 -205 6 -77 13 -161 16 -188 l7 -47 40 0 40 0 -6
233 c-8 296 -10 289 109 366 49 32 92 57 95 55 4 -2 15 -34 24 -71 26 -100 55
-139 116 -153 28 -7 64 -9 82 -6 47 10 117 46 117 61 0 7 3 15 8 17 18 8 52
90 61 148 12 77 1 148 -26 167 -10 7 -23 17 -30 23 -35 29 -47 -3 -27 -71 17
-55 14 -77 -18 -150 -35 -82 -113 -102 -156 -41 -25 36 -53 132 -46 159 4 13
-3 42 -17 70 -22 45 -24 58 -21 195 1 81 7 169 12 195 6 26 15 79 21 118 6 38
17 85 25 104 8 18 14 46 14 61 0 15 7 44 15 63 8 20 18 67 21 105 6 65 5 70
-14 76 -15 5 -37 -3 -74 -28 -83 -56 -254 -193 -292 -234 -23 -25 -106 -84
-106 -76 0 3 9 17 20 31 11 14 20 31 20 38 0 7 25 32 55 55 30 23 55 46 55 50
0 4 19 15 43 25 53 24 77 43 77 65 0 25 -33 50 -65 50 l-28 0 43 48 c24 26 59
58 79 72 39 28 52 70 30 96 -17 21 -25 18 -72 -24z m69 -476 c-9 -34 -16 -76
-16 -94 0 -17 -7 -51 -14 -74 -17 -50 -26 -378 -12 -445 l8 -41 -78 -46 c-103
-60 -108 -60 -99 7 5 38 13 58 31 72 40 34 26 55 -37 55 -36 0 -38 21 -4 48
47 37 81 142 54 169 -13 13 -63 0 -90 -23 -15 -14 -39 -19 -39 -9 0 3 29 40
64 82 46 55 67 88 71 116 4 21 4 41 1 45 -10 9 -78 7 -100 -3 -29 -13 118 129
241 233 l28 24 3 -27 c2 -14 -4 -54 -12 -89z m-346 -831 c0 -17 -59 -74 -77
-75 -19 0 -4 30 31 61 35 32 46 35 46 14z"/>
</g>
</svg>
