<?xml version="1.0" standalone="no"?>
<!DOCTYPE svg PUBLIC "-//W3C//DTD SVG 20010904//EN"
 "http://www.w3.org/TR/2001/REC-SVG-20010904/DTD/svg10.dtd">
<svg version="1.0" xmlns="http://www.w3.org/2000/svg"
 width="205.000000pt" height="208.000000pt" viewBox="0 0 205.000000 208.000000"
 preserveAspectRatio="xMidYMid meet">
<metadata>
Created by potrace 1.16, written by Peter Selinger 2001-2019
</metadata>
<g transform="translate(0.000000,208.000000) scale(0.100000,-0.100000)"
fill="#000000" stroke="none">
<path d="M1120 1981 c-25 -6 -57 -59 -104 -171 -10 -25 -29 -68 -42 -96 -13
-28 -24 -54 -24 -58 0 -11 -112 -239 -126 -256 -12 -16 -68 -119 -212 -395
-11 -22 -42 -89 -69 -150 -45 -103 -116 -214 -155 -243 -38 -28 -5 -62 45 -47
39 13 141 126 161 180 10 28 39 88 64 134 l45 84 15 -36 c14 -36 14 -37 -23
-72 -41 -38 -41 -54 -1 -81 25 -15 29 -15 81 6 61 25 86 22 78 -9 -6 -23 -279
-279 -292 -274 -11 5 -41 -8 -41 -18 0 -5 -8 -9 -18 -9 -22 0 -45 -44 -37 -70
3 -10 19 -23 34 -30 25 -10 36 -8 84 14 30 15 60 33 67 41 7 8 21 15 31 15 10
0 20 4 23 9 4 5 39 21 79 36 39 14 80 30 89 35 14 8 18 3 23 -38 3 -26 10 -69
15 -97 12 -64 28 -198 36 -302 l7 -83 38 0 c33 0 40 4 45 26 7 28 -1 149 -21
328 -8 65 -11 147 -8 182 6 60 8 64 47 91 56 38 100 73 109 89 13 22 -14 65
-45 71 -15 3 -28 11 -28 17 0 6 -24 18 -52 26 l-53 15 -7 50 c-7 46 -5 53 26
92 18 24 39 63 46 88 10 36 23 53 61 81 27 20 52 41 56 47 5 7 23 23 42 36
l34 24 -6 -69 c-4 -38 -11 -114 -16 -169 -12 -126 7 -315 39 -395 32 -79 72
-190 81 -225 4 -16 17 -65 28 -109 11 -43 27 -86 36 -95 8 -10 15 -23 15 -29
0 -20 31 -42 59 -42 33 0 80 43 112 103 30 56 40 205 15 226 -9 7 -16 20 -16
28 0 20 -36 87 -55 103 -25 20 -37 0 -24 -40 20 -64 22 -201 4 -244 -9 -21
-18 -36 -21 -33 -3 2 -24 65 -48 138 -24 74 -59 172 -76 219 -64 168 -77 350
-39 526 22 101 62 219 83 244 18 21 28 107 16 131 -17 30 -42 22 -80 -23 -61
-73 -111 -119 -260 -239 -164 -131 -174 -137 -239 -152 -76 -18 -77 -13 -17
93 40 72 43 75 78 75 38 0 73 29 227 187 123 126 138 152 105 189 -12 13 -10
22 16 63 34 52 37 77 15 96 -22 18 -53 -1 -90 -55 -32 -48 -111 -102 -98 -68
3 10 15 26 25 36 10 10 29 39 42 66 28 55 42 68 76 73 47 6 29 88 -20 88 -9 0
-25 7 -36 15 -21 16 -19 16 -54 6z m-50 -1221 c13 -9 12 -13 -9 -30 -25 -21
-61 -27 -61 -9 0 39 38 60 70 39z m-200 -100 c0 -15 -40 -48 -66 -53 -32 -6
-30 6 7 37 31 26 59 34 59 16z"/>
</g>
</svg>
