<?xml version="1.0" standalone="no"?>
<!DOCTYPE svg PUBLIC "-//W3C//DTD SVG 20010904//EN"
 "http://www.w3.org/TR/2001/REC-SVG-20010904/DTD/svg10.dtd">
<svg version="1.0" xmlns="http://www.w3.org/2000/svg"
 width="208.000000pt" height="208.000000pt" viewBox="0 0 208.000000 208.000000"
 preserveAspectRatio="xMidYMid meet">
<metadata>
Created by potrace 1.16, written by Peter Selinger 2001-2019
</metadata>
<g transform="translate(0.000000,208.000000) scale(0.100000,-0.100000)"
fill="#000000" stroke="none">
<path d="M1082 1882 c-20 -15 -23 -28 -27 -127 -8 -184 -27 -449 -32 -457 -2
-5 -11 -8 -19 -8 -15 0 -75 -28 -84 -39 -3 -3 -32 -19 -65 -36 -33 -16 -76
-44 -95 -61 -60 -54 -133 -94 -147 -82 -7 6 -13 16 -13 22 0 6 -5 28 -11 50
-10 37 -12 38 -46 33 -19 -3 -41 -11 -49 -18 -15 -13 -19 -55 -5 -63 9 -6 -2
-85 -19 -133 -15 -41 0 -69 41 -78 24 -5 38 -2 60 14 l28 21 43 -57 c23 -32
61 -80 84 -108 22 -27 51 -67 63 -87 12 -21 27 -38 32 -38 4 0 16 -15 25 -33
9 -17 31 -50 49 -72 30 -36 42 -59 73 -136 16 -41 83 -48 97 -11 3 9 13 88 21
176 8 88 16 162 19 164 4 4 98 10 175 11 25 0 193 -2 375 -5 290 -5 328 -4
317 9 -7 8 -31 18 -54 21 -23 4 -47 11 -53 15 -14 12 -142 28 -315 41 -79 6
-147 13 -151 15 -3 3 -49 5 -102 6 -53 1 -101 5 -107 9 -8 5 1 33 28 91 61
131 77 180 84 259 7 83 -26 125 -107 135 l-55 7 0 54 c0 30 4 62 10 72 20 37
41 137 46 220 2 48 7 99 9 114 13 80 -63 136 -123 90z m120 -684 c7 -21 2 -43
-22 -101 -32 -76 -55 -116 -63 -107 -10 10 14 225 26 232 22 15 50 3 59 -24z
m-182 -67 c0 -25 -5 -78 -10 -118 -5 -39 -10 -132 -11 -205 -1 -131 -13 -218
-30 -218 -5 0 -9 3 -9 8 0 4 -31 41 -70 82 -38 41 -75 86 -82 100 -7 14 -36
53 -64 86 -71 85 -75 100 -33 136 88 75 132 108 144 108 8 0 20 8 27 18 24 31
99 64 126 54 7 -2 12 -22 12 -51z"/>
</g>
</svg>
