<?xml version="1.0" standalone="no"?>
<!DOCTYPE svg PUBLIC "-//W3C//DTD SVG 20010904//EN"
 "http://www.w3.org/TR/2001/REC-SVG-20010904/DTD/svg10.dtd">
<svg version="1.0" xmlns="http://www.w3.org/2000/svg"
 width="208.000000pt" height="208.000000pt" viewBox="0 0 208.000000 208.000000"
 preserveAspectRatio="xMidYMid meet">
<metadata>
Created by potrace 1.16, written by Peter Selinger 2001-2019
</metadata>
<g transform="translate(0.000000,208.000000) scale(0.100000,-0.100000)"
fill="#000000" stroke="none">
<path d="M965 1596 c-15 -22 -17 -61 -19 -269 l-2 -244 -35 -31 c-19 -17 -38
-32 -42 -32 -10 0 -124 -68 -148 -87 -23 -19 -26 -17 -39 25 -7 20 -16 41 -21
46 -5 6 -9 17 -9 27 0 9 -9 28 -20 42 -11 14 -20 32 -20 39 0 8 -10 24 -23 36
l-22 21 -33 -25 c-28 -22 -32 -31 -32 -74 0 -38 -11 -69 -50 -147 -27 -55 -62
-115 -78 -135 -15 -20 -34 -54 -42 -77 -7 -23 -17 -41 -22 -41 -5 0 -13 -12
-18 -26 -14 -36 3 -62 46 -70 29 -5 40 -2 62 17 15 14 44 33 66 44 21 11 63
43 94 72 56 54 88 71 102 56 4 -4 15 -33 24 -64 19 -69 72 -183 92 -200 8 -6
14 -17 14 -24 0 -6 23 -38 50 -69 28 -31 50 -61 50 -66 0 -10 62 -50 78 -50
11 0 28 38 24 54 -2 5 5 17 14 27 13 15 16 47 19 191 4 250 22 469 41 488 8 8
38 29 67 47 29 18 70 44 93 58 43 26 104 43 104 29 0 -12 -145 -205 -173 -229
-13 -12 -31 -40 -40 -63 -15 -38 -15 -45 -1 -81 8 -21 25 -43 37 -50 12 -6 42
-24 67 -39 25 -15 60 -36 78 -47 19 -11 53 -32 75 -46 112 -71 137 -85 207
-119 41 -20 82 -45 90 -55 8 -10 34 -30 57 -44 23 -14 62 -45 87 -68 24 -24
49 -43 54 -43 16 0 21 54 7 75 -16 24 -93 104 -155 161 -47 43 -99 74 -124 74
-8 0 -19 6 -23 14 -4 7 -25 21 -45 31 -21 9 -40 26 -43 37 -4 10 -12 17 -18
15 -7 -2 -28 8 -47 23 -19 14 -55 38 -80 53 -25 14 -58 37 -74 50 l-30 24 60
79 c32 44 76 104 96 134 21 30 56 75 78 99 22 24 42 53 45 65 14 75 14 87 -1
93 -37 14 -171 -31 -328 -111 -60 -31 -115 -56 -123 -56 -9 0 -13 17 -13 63 0
52 4 67 20 82 19 17 21 28 17 127 -2 66 -8 113 -15 120 -7 7 -12 20 -12 29 0
21 -5 24 -47 33 -27 6 -34 3 -48 -18z m-38 -802 c-8 -82 -11 -171 -8 -199 8
-61 2 -145 -10 -145 -5 0 -9 6 -9 13 0 6 -20 37 -45 67 -25 30 -52 77 -61 105
-8 27 -22 63 -31 79 -8 15 -21 50 -28 77 l-13 49 29 15 c16 9 44 29 63 46 19
16 54 40 78 53 54 29 53 34 35 -160z m-312 130 c19 -47 19 -61 -2 -68 -10 -3
-34 -19 -53 -36 -32 -27 -67 -41 -58 -22 26 53 44 88 49 92 3 3 14 20 23 38 9
17 19 32 21 32 3 0 12 -16 20 -36z"/>
</g>
</svg>
