<?xml version="1.0" standalone="no"?>
<!DOCTYPE svg PUBLIC "-//W3C//DTD SVG 20010904//EN"
 "http://www.w3.org/TR/2001/REC-SVG-20010904/DTD/svg10.dtd">
<svg version="1.0" xmlns="http://www.w3.org/2000/svg"
 width="209.000000pt" height="210.000000pt" viewBox="0 0 209.000000 210.000000"
 preserveAspectRatio="xMidYMid meet">
<metadata>
Created by potrace 1.16, written by Peter Selinger 2001-2019
</metadata>
<g transform="translate(0.000000,210.000000) scale(0.100000,-0.100000)"
fill="#000000" stroke="none">
<path d="M1388 1699 c-40 -28 -107 -75 -148 -105 -41 -29 -98 -67 -126 -84
-91 -53 -105 -92 -49 -133 25 -18 27 -18 69 2 24 12 56 36 73 54 16 17 44 43
62 57 18 14 46 36 62 48 l29 24 1 -34 c3 -56 -2 -120 -11 -178 -26 -147 -41
-361 -46 -615 -3 -154 -7 -294 -10 -312 -5 -31 -8 -33 -102 -62 -53 -16 -123
-34 -155 -41 -47 -9 -60 -17 -72 -40 -19 -37 -19 -34 10 -66 l25 -27 107 12
c109 12 177 37 283 103 57 35 223 118 237 118 7 0 17 -9 23 -20 14 -25 46 -26
60 -1 16 31 13 127 -6 145 -18 18 -30 20 -39 6 -3 -5 -25 -14 -48 -20 -23 -6
-84 -31 -135 -56 -120 -57 -125 -57 -116 4 3 26 10 51 15 57 5 5 9 59 9 120 1
117 12 297 29 460 6 55 13 120 15 145 8 74 36 234 46 255 24 55 36 215 17 227
-21 14 -34 9 -109 -43z"/>
<path d="M591 1599 c-29 -31 -26 -65 9 -105 16 -19 32 -44 34 -57 2 -12 11
-56 20 -97 9 -41 16 -91 16 -110 0 -19 5 -42 10 -50 8 -13 11 -13 23 0 23 25
50 121 52 190 4 81 -17 206 -38 227 -8 8 -35 17 -60 20 -37 4 -48 2 -66 -18z"/>
<path d="M508 879 c-34 -19 -37 -41 -21 -154 8 -61 17 -147 20 -192 5 -78 3
-86 -23 -130 -38 -64 -94 -192 -94 -215 0 -21 52 -48 79 -41 21 5 158 247 167
293 4 19 10 37 14 40 4 3 16 21 26 41 11 20 43 72 71 115 67 101 74 112 96
139 22 29 22 45 -1 45 -19 0 -62 -27 -74 -45 -18 -30 -150 -185 -157 -185 -5
0 -10 57 -13 128 -3 71 -10 137 -17 150 -12 23 -44 28 -73 11z"/>
</g>
</svg>
