<?xml version="1.0" standalone="no"?>
<!DOCTYPE svg PUBLIC "-//W3C//DTD SVG 20010904//EN"
 "http://www.w3.org/TR/2001/REC-SVG-20010904/DTD/svg10.dtd">
<svg version="1.0" xmlns="http://www.w3.org/2000/svg"
 width="205.000000pt" height="206.000000pt" viewBox="0 0 205.000000 206.000000"
 preserveAspectRatio="xMidYMid meet">
<metadata>
Created by potrace 1.16, written by Peter Selinger 2001-2019
</metadata>
<g transform="translate(0.000000,206.000000) scale(0.100000,-0.100000)"
fill="#000000" stroke="none">
<path d="M1535 1842 c-29 -6 -54 -31 -77 -77 -11 -22 -39 -58 -61 -80 -23 -23
-50 -50 -59 -60 -51 -59 -66 -69 -82 -55 -9 7 -16 18 -16 25 0 7 -13 27 -30
45 -25 27 -35 31 -72 28 l-43 -3 -13 -55 c-28 -116 -42 -192 -39 -223 4 -43
-19 -90 -54 -111 -16 -9 -29 -21 -29 -27 0 -5 -9 -9 -21 -9 -19 0 -20 4 -14
48 3 26 8 61 10 79 2 18 9 41 15 53 8 15 7 27 -4 49 -17 32 -34 41 -76 41 -46
0 -51 -23 -50 -208 2 -198 0 -204 -116 -348 -41 -51 -74 -95 -74 -98 0 -3 -7
-14 -16 -23 -28 -32 -99 -131 -117 -164 l-18 -33 -14 29 c-7 17 -16 60 -20 97
-8 81 -24 91 -85 57 -53 -30 -60 -58 -26 -108 14 -20 36 -64 47 -97 24 -66 22
-128 -8 -238 -16 -60 -16 -65 0 -90 25 -38 63 -35 72 5 4 17 16 46 26 64 10
17 28 67 39 109 18 70 86 227 116 266 6 8 28 47 48 85 21 39 44 74 52 78 8 4
14 14 14 21 0 15 55 66 70 66 7 0 9 -29 5 -82 -17 -243 -28 -355 -41 -404 -21
-83 -18 -133 13 -194 25 -47 36 -58 98 -90 39 -20 76 -35 81 -33 6 2 17 -3 24
-12 15 -18 177 -21 262 -4 131 26 206 42 239 50 20 5 45 9 56 9 37 0 43 23 48
178 5 120 3 162 -10 204 -29 97 -79 132 -68 47 3 -22 1 -71 -5 -107 -7 -37
-14 -96 -17 -132 -4 -36 -10 -71 -14 -78 -13 -22 -218 -69 -331 -76 -122 -7
-154 1 -219 55 -38 31 -45 43 -52 89 -6 37 -4 79 6 134 7 45 16 135 20 201 8
168 25 318 36 330 5 5 9 17 9 26 0 9 19 34 43 55 l42 39 3 -125 c2 -69 -2
-143 -8 -165 -6 -22 -15 -74 -19 -115 -5 -42 -16 -90 -25 -107 -29 -57 -15
-92 24 -60 8 7 26 36 39 65 14 28 28 52 31 52 4 0 10 12 13 28 4 15 13 59 22
99 8 39 19 141 25 225 12 193 21 221 90 289 30 30 81 83 113 116 64 69 68 65
42 -43 -8 -34 -17 -74 -20 -90 -10 -43 -23 -224 -31 -426 -6 -164 -8 -178 -25
-178 -24 0 -24 -23 -2 -61 13 -22 25 -29 49 -29 21 0 34 6 38 18 22 61 27 87
31 177 3 55 10 133 15 173 6 40 10 101 10 135 0 111 51 371 100 510 23 65 31
151 15 165 -5 5 -19 7 -30 4z m-330 -338 c0 -18 -34 -56 -44 -50 -15 9 16 69
32 63 7 -2 12 -8 12 -13z m230 -144 c0 -7 -6 -15 -12 -17 -8 -3 -13 4 -13 17
0 13 5 20 13 18 6 -3 12 -11 12 -18z"/>
<path d="M403 1433 c-31 -21 -30 -67 2 -98 13 -14 33 -25 43 -25 10 0 29 -11
42 -25 19 -20 23 -35 21 -75 -1 -38 2 -50 13 -50 21 0 73 80 71 110 -2 47 -63
132 -104 145 -10 3 -22 12 -25 20 -7 19 -35 18 -63 -2z"/>
</g>
</svg>
