<?xml version="1.0" standalone="no"?>
<!DOCTYPE svg PUBLIC "-//W3C//DTD SVG 20010904//EN"
 "http://www.w3.org/TR/2001/REC-SVG-20010904/DTD/svg10.dtd">
<svg version="1.0" xmlns="http://www.w3.org/2000/svg"
 width="206.000000pt" height="209.000000pt" viewBox="0 0 206.000000 209.000000"
 preserveAspectRatio="xMidYMid meet">
<metadata>
Created by potrace 1.16, written by Peter Selinger 2001-2019
</metadata>
<g transform="translate(0.000000,209.000000) scale(0.100000,-0.100000)"
fill="#000000" stroke="none">
<path d="M1152 1984 c-42 -21 -78 -69 -130 -169 -51 -100 -65 -133 -93 -215
-21 -65 -28 -83 -70 -175 -26 -58 -39 -39 -15 20 9 21 16 50 16 64 0 15 7 36
15 47 21 28 18 53 -9 64 -13 5 -27 14 -31 19 -10 17 -40 13 -67 -9 -23 -18
-25 -27 -31 -127 -6 -111 -26 -231 -53 -315 -22 -68 -23 -133 -2 -154 15 -16
10 -25 -85 -144 -56 -71 -117 -153 -135 -184 -18 -31 -38 -56 -44 -56 -10 0
-2 225 9 243 2 4 6 35 9 68 2 34 12 75 22 91 12 21 14 33 6 45 -23 36 -124 40
-140 5 -4 -9 -8 -143 -9 -297 -1 -154 -6 -352 -10 -440 -7 -145 -6 -163 9
-178 10 -9 23 -17 31 -17 24 0 65 67 71 117 13 114 30 173 75 267 16 33 29 65
29 71 0 7 6 18 14 24 8 7 26 33 39 59 39 73 69 125 110 192 20 34 37 72 37 85
0 13 7 30 16 37 47 38 72 72 84 115 7 26 20 62 28 78 8 17 19 38 23 47 5 10 9
23 9 30 0 6 22 57 49 112 27 56 52 117 55 136 4 19 20 53 36 74 17 22 30 47
31 55 0 9 9 30 20 46 10 17 24 41 29 55 18 40 54 90 66 90 20 0 23 -26 23
-198 0 -93 4 -179 10 -193 5 -13 23 -37 40 -53 17 -17 31 -33 31 -37 0 -11
-134 -142 -176 -171 -21 -16 -68 -50 -104 -78 -36 -28 -78 -56 -95 -64 -16 -8
-40 -23 -52 -33 -12 -10 -31 -26 -42 -35 -26 -22 -26 -56 -2 -85 36 -43 80
-26 207 78 38 31 85 73 103 93 34 35 61 47 61 26 0 -16 -31 -101 -56 -154 -13
-28 -28 -69 -33 -91 -9 -39 -60 -186 -67 -194 -1 -2 -17 14 -35 34 -37 41
-100 85 -124 85 -9 0 -27 -7 -40 -16 -45 -29 -33 -58 61 -151 68 -67 85 -89
81 -106 -11 -46 -60 -167 -114 -280 -51 -107 -55 -119 -41 -133 24 -24 51 -10
86 45 18 27 32 52 32 55 0 3 20 39 45 78 25 40 50 90 56 111 5 21 16 40 24 43
8 3 44 -25 87 -69 40 -41 91 -85 113 -99 22 -14 72 -51 110 -83 79 -65 114
-82 235 -114 47 -13 92 -27 101 -32 59 -31 287 -51 343 -29 26 9 26 11 26 109
0 76 -3 100 -14 104 -22 9 -25 -1 -19 -57 5 -49 4 -53 -18 -59 -61 -17 -278
13 -344 46 -17 9 -57 23 -90 33 -33 10 -76 30 -97 44 -116 80 -232 176 -279
230 -30 35 -64 74 -76 88 -13 14 -23 28 -23 32 0 3 23 74 51 156 27 82 66 196
85 253 20 58 59 152 88 210 50 101 54 118 48 194 -2 15 -7 17 -32 12 -31 -7
-34 -3 -21 30 5 11 5 25 1 30 -23 32 -32 98 -31 235 1 130 -2 156 -23 221 -22
68 -26 74 -52 77 -16 1 -44 -5 -62 -14z m372 -1810 c20 -8 21 -34 2 -34 -13 0
-46 26 -46 36 0 6 26 5 44 -2z"/>
<path d="M492 1640 c-38 -23 -38 -25 -13 -180 16 -99 24 -123 38 -127 15 -5
53 54 53 83 0 12 7 27 15 34 8 7 15 21 15 32 0 10 7 30 16 44 23 35 8 82 -35
111 -41 28 -47 28 -89 3z"/>
</g>
</svg>
