<?xml version="1.0" standalone="no"?>
<!DOCTYPE svg PUBLIC "-//W3C//DTD SVG 20010904//EN"
 "http://www.w3.org/TR/2001/REC-SVG-20010904/DTD/svg10.dtd">
<svg version="1.0" xmlns="http://www.w3.org/2000/svg"
 width="208.000000pt" height="210.000000pt" viewBox="0 0 208.000000 210.000000"
 preserveAspectRatio="xMidYMid meet">
<metadata>
Created by potrace 1.16, written by Peter Selinger 2001-2019
</metadata>
<g transform="translate(0.000000,210.000000) scale(0.100000,-0.100000)"
fill="#000000" stroke="none">
<path d="M966 1849 c-33 -26 -33 -33 3 -105 39 -79 56 -134 72 -225 l13 -77
-27 -32 c-23 -27 -27 -41 -27 -94 0 -35 -9 -105 -20 -157 -12 -52 -28 -137
-36 -189 -25 -152 -157 -535 -251 -728 -35 -74 -62 -136 -59 -139 24 -24 145
109 200 221 19 39 52 123 74 186 22 63 52 147 66 185 14 39 38 117 53 175 14
58 34 122 45 142 10 21 27 74 38 120 11 45 23 84 27 87 5 3 34 40 65 81 31 41
73 93 93 115 20 22 52 72 71 112 30 59 36 83 37 145 l2 73 -33 3 c-43 4 -127
-25 -172 -59 -47 -35 -74 -43 -89 -25 -7 8 -10 20 -6 26 4 6 0 21 -8 33 -7 12
-17 36 -21 52 -11 45 -45 95 -65 95 -10 0 -30 -9 -45 -21z m324 -243 c0 -8 -5
-18 -11 -21 -6 -4 -24 -25 -40 -47 l-29 -41 0 29 c0 18 11 40 32 61 35 36 48
41 48 19z m-116 -122 c24 -9 19 -27 -18 -63 -34 -33 -34 -33 -46 -11 -6 12 -8
34 -5 51 7 30 31 38 69 23z"/>
<path d="M550 1523 c-17 -22 -20 -36 -16 -68 13 -95 18 -208 12 -258 l-7 -54
-40 0 c-27 0 -47 -7 -60 -20 -19 -18 -20 -34 -21 -209 0 -104 5 -209 10 -234
6 -25 13 -57 17 -72 7 -34 33 -37 39 -5 15 74 18 105 22 225 2 73 8 141 14
152 5 10 10 32 10 47 0 20 9 36 28 50 25 19 41 45 70 113 6 14 16 60 23 102
11 67 16 78 36 83 38 9 32 65 -14 117 -21 24 -38 44 -38 44 0 1 -14 5 -31 8
-27 6 -35 3 -54 -21z"/>
<path d="M806 831 c-4 -5 -34 -28 -68 -52 -77 -52 -73 -49 -164 -140 -94 -95
-164 -197 -188 -272 -16 -54 -16 -60 -2 -82 26 -39 60 -42 100 -9 31 26 35 33
30 64 -3 20 0 49 6 65 22 59 101 164 209 277 67 70 101 119 101 143 0 17 -16
20 -24 6z"/>
</g>
</svg>
