<?xml version="1.0" standalone="no"?>
<!DOCTYPE svg PUBLIC "-//W3C//DTD SVG 20010904//EN"
 "http://www.w3.org/TR/2001/REC-SVG-20010904/DTD/svg10.dtd">
<svg version="1.0" xmlns="http://www.w3.org/2000/svg"
 width="207.000000pt" height="210.000000pt" viewBox="0 0 207.000000 210.000000"
 preserveAspectRatio="xMidYMid meet">
<metadata>
Created by potrace 1.16, written by Peter Selinger 2001-2019
</metadata>
<g transform="translate(0.000000,210.000000) scale(0.100000,-0.100000)"
fill="#000000" stroke="none">
<path d="M936 2004 c-9 -8 -16 -22 -16 -30 0 -8 -12 -25 -26 -37 l-26 -23 35
-74 c33 -72 57 -157 57 -203 0 -12 -17 -41 -38 -64 -83 -92 -104 -124 -99
-146 34 -133 42 -157 58 -162 25 -8 30 -44 20 -147 -6 -51 -12 -122 -15 -158
-2 -36 -13 -85 -23 -110 -11 -25 -30 -85 -42 -135 -39 -151 -109 -320 -171
-415 -9 -14 -34 -52 -56 -85 -21 -33 -42 -61 -46 -63 -19 -9 -6 -32 17 -32 14
0 24 3 23 8 -4 13 24 56 56 87 50 48 156 182 156 197 0 8 16 38 35 68 19 30
46 93 60 140 14 47 38 126 54 175 16 50 32 117 36 150 11 104 16 138 26 205 6
36 13 86 16 112 l6 48 69 32 c38 17 78 43 88 58 10 14 37 32 60 40 23 8 54 29
73 51 89 103 127 185 127 276 0 47 -4 58 -37 94 l-38 41 -93 -4 c-83 -5 -98
-9 -135 -35 -39 -27 -42 -32 -45 -83 -3 -56 -15 -80 -37 -80 -15 0 -39 120
-33 167 3 25 6 28 35 25 63 -6 49 64 -22 108 -39 24 -88 26 -109 4z m420 -238
c3 -14 3 -33 0 -43 -9 -29 -78 -128 -118 -170 -33 -35 -54 -53 -158 -140 -19
-16 -42 -32 -52 -36 -25 -9 -48 24 -48 69 0 36 8 48 77 123 42 45 90 88 108
95 23 10 34 23 43 53 14 46 26 59 62 66 62 11 79 8 86 -17z"/>
<path d="M298 1584 c-15 -8 -30 -25 -34 -38 -7 -28 20 -86 40 -86 16 0 66 -70
66 -92 0 -52 30 -63 57 -22 13 20 17 45 15 92 -1 36 3 71 9 78 36 43 -92 100
-153 68z"/>
<path d="M221 1095 c-31 -27 -40 -58 -21 -70 6 -3 10 -14 10 -23 0 -9 7 -30
15 -46 8 -15 15 -38 15 -50 0 -12 4 -26 8 -31 15 -17 32 -140 33 -236 0 -52 4
-114 7 -139 9 -57 -2 -79 -69 -137 -85 -72 -101 -109 -61 -140 32 -24 65 -14
97 28 17 22 52 63 78 91 26 28 53 59 60 68 30 43 86 107 127 147 24 23 52 58
62 75 44 83 59 121 54 135 -5 11 -29 -8 -94 -73 -116 -117 -206 -197 -210
-186 -1 5 2 36 7 68 10 63 9 188 -4 347 -6 72 -5 108 5 137 7 22 11 42 9 44
-2 2 -25 6 -50 10 -41 6 -50 4 -78 -19z"/>
</g>
</svg>
