<?xml version="1.0" standalone="no"?>
<!DOCTYPE svg PUBLIC "-//W3C//DTD SVG 20010904//EN"
 "http://www.w3.org/TR/2001/REC-SVG-20010904/DTD/svg10.dtd">
<svg version="1.0" xmlns="http://www.w3.org/2000/svg"
 width="205.000000pt" height="208.000000pt" viewBox="0 0 205.000000 208.000000"
 preserveAspectRatio="xMidYMid meet">
<metadata>
Created by potrace 1.16, written by Peter Selinger 2001-2019
</metadata>
<g transform="translate(0.000000,208.000000) scale(0.100000,-0.100000)"
fill="#000000" stroke="none">
<path d="M1500 1807 c-14 -7 -35 -31 -48 -55 -40 -73 -162 -182 -292 -262 -30
-18 -64 -41 -75 -51 -11 -10 -53 -35 -93 -56 -40 -21 -87 -46 -105 -55 -51
-27 -67 -23 -67 15 0 19 9 59 19 89 22 63 36 178 24 193 -14 19 -59 33 -86 28
-32 -6 -50 -32 -36 -54 13 -20 1 -129 -28 -244 -14 -55 -25 -113 -25 -128 1
-28 33 -67 56 -67 41 0 330 149 361 186 6 6 35 27 65 46 30 19 80 53 110 76
30 23 56 40 58 38 6 -7 -19 -180 -34 -230 -8 -27 -14 -60 -14 -73 0 -33 35
-30 57 5 9 15 23 35 31 45 9 9 28 68 43 130 34 133 63 207 93 240 32 35 68
123 64 160 -2 26 -8 33 -28 35 -14 1 -36 -4 -50 -11z"/>
<path d="M423 1673 c-39 -8 -42 -22 -32 -143 13 -162 28 -247 44 -254 17 -6
19 -3 39 55 10 29 16 80 16 149 0 82 4 111 17 129 16 23 15 25 -13 48 -16 12
-33 22 -39 22 -5 -1 -20 -4 -32 -6z"/>
<path d="M293 1119 c-16 -30 -18 -60 -18 -274 l0 -240 -31 -45 c-18 -25 -42
-54 -54 -65 -57 -51 -62 -113 -10 -140 41 -21 74 -4 94 49 9 23 16 45 16 49 0
4 17 22 38 41 35 32 56 57 194 229 32 40 66 81 76 92 50 54 68 105 36 105 -17
0 -146 -104 -204 -165 -69 -72 -72 -70 -65 47 11 185 22 239 58 271 l31 27
-21 21 c-14 15 -38 23 -71 27 -49 4 -51 3 -69 -29z"/>
<path d="M1285 968 c-27 -6 -70 -18 -95 -28 -25 -11 -56 -22 -70 -26 -46 -12
-142 -76 -161 -108 -30 -48 -25 -82 12 -95 18 -6 36 -11 41 -11 4 0 35 25 68
55 39 36 68 55 85 55 14 0 25 4 25 9 0 8 88 43 143 56 23 6 27 4 27 -14 0 -95
-193 -397 -312 -489 -56 -42 -64 -79 -23 -106 30 -20 54 -20 79 -1 11 8 30 15
43 15 13 0 31 4 41 9 42 22 92 41 156 61 89 27 106 37 106 60 0 30 -14 32
-107 15 -116 -20 -126 -20 -114 3 5 9 21 29 35 44 15 15 53 71 85 125 89 147
129 316 86 363 -20 22 -63 24 -150 8z"/>
<path d="M699 699 c-24 -24 -24 -51 0 -98 20 -37 43 -113 81 -266 23 -94 33
-115 56 -115 38 0 47 113 19 235 -7 33 -16 82 -18 109 l-5 48 43 19 c40 18 65
54 47 70 -4 4 -51 9 -105 12 -88 5 -101 3 -118 -14z"/>
</g>
</svg>
