<?xml version="1.0" standalone="no"?>
<!DOCTYPE svg PUBLIC "-//W3C//DTD SVG 20010904//EN"
 "http://www.w3.org/TR/2001/REC-SVG-20010904/DTD/svg10.dtd">
<svg version="1.0" xmlns="http://www.w3.org/2000/svg"
 width="204.000000pt" height="209.000000pt" viewBox="0 0 204.000000 209.000000"
 preserveAspectRatio="xMidYMid meet">
<metadata>
Created by potrace 1.16, written by Peter Selinger 2001-2019
</metadata>
<g transform="translate(0.000000,209.000000) scale(0.100000,-0.100000)"
fill="#000000" stroke="none">
<path d="M1537 1709 c-10 -6 -34 -44 -53 -84 -22 -47 -48 -83 -71 -102 -20
-15 -49 -39 -64 -53 -16 -14 -57 -46 -91 -73 -35 -26 -97 -73 -138 -105 -137
-105 -170 -124 -156 -86 4 10 13 57 22 107 21 119 8 227 -30 266 l-26 25 -27
-21 c-24 -18 -27 -26 -23 -59 9 -69 5 -207 -7 -260 -16 -68 -66 -170 -98 -200
-30 -28 -31 -43 -4 -78 28 -36 51 -33 114 17 29 23 77 58 106 77 63 43 225
178 334 279 50 46 86 73 92 68 3 -4 1 -26 -5 -49 -18 -70 -45 -295 -39 -312 8
-21 23 -20 31 2 3 9 10 24 15 32 22 35 71 150 71 168 0 25 45 172 76 247 13
33 24 65 24 71 0 6 7 17 15 24 15 13 20 65 9 94 -7 18 -50 21 -77 5z"/>
<path d="M447 1393 c-30 -15 -30 -22 -1 -111 8 -23 14 -70 14 -102 0 -53 2
-60 20 -60 32 0 67 68 86 169 11 57 14 94 8 100 -18 17 -98 20 -127 4z"/>
<path d="M332 957 c-7 -8 -10 -102 -10 -263 l1 -250 -41 -95 c-54 -125 -56
-133 -35 -151 47 -40 89 -20 112 52 20 63 102 183 165 242 34 31 64 60 68 65
4 4 30 32 58 60 27 29 50 58 50 66 0 7 23 35 50 62 28 27 50 55 50 61 0 7 6
14 14 17 7 3 16 15 19 26 4 16 0 21 -13 21 -32 0 -111 -61 -206 -157 -50 -51
-96 -93 -102 -93 -7 0 -12 -6 -12 -12 -1 -16 -99 -93 -107 -84 -3 3 -1 11 4
18 12 15 27 152 24 220 -1 26 5 75 15 109 l17 62 -22 19 c-27 21 -84 24 -99 5z"/>
<path d="M1430 896 c-19 -8 -53 -24 -75 -36 -22 -13 -74 -31 -115 -41 -41 -10
-106 -29 -145 -43 -77 -27 -96 -49 -77 -91 17 -37 52 -41 110 -11 28 14 82 35
119 47 37 11 76 25 85 30 21 11 48 12 48 1 0 -4 -17 -31 -37 -61 -43 -61 -82
-122 -136 -215 -21 -36 -42 -68 -46 -71 -5 -3 -25 -33 -45 -68 -19 -34 -51
-77 -70 -95 -42 -39 -45 -60 -13 -90 27 -25 54 -28 80 -7 10 7 51 19 90 25
159 25 267 66 267 99 0 30 -25 44 -62 35 -82 -18 -202 -29 -197 -18 7 16 59
109 77 136 9 15 37 60 61 100 25 40 57 89 72 108 33 43 109 196 109 220 0 20
-36 60 -53 59 -7 0 -28 -6 -47 -13z m-41 -632 c-6 -8 -18 -14 -26 -14 -11 0
-11 4 -3 20 6 11 16 17 25 13 12 -4 13 -9 4 -19z"/>
<path d="M801 599 c-121 -15 -133 -62 -40 -153 51 -50 65 -73 83 -126 18 -57
24 -65 46 -65 24 0 25 3 28 63 2 51 -3 78 -24 134 -25 62 -26 73 -15 104 12
32 8 56 -7 53 -4 -1 -36 -5 -71 -10z"/>
</g>
</svg>
