<?xml version="1.0" standalone="no"?>
<!DOCTYPE svg PUBLIC "-//W3C//DTD SVG 20010904//EN"
 "http://www.w3.org/TR/2001/REC-SVG-20010904/DTD/svg10.dtd">
<svg version="1.0" xmlns="http://www.w3.org/2000/svg"
 width="209.000000pt" height="208.000000pt" viewBox="0 0 209.000000 208.000000"
 preserveAspectRatio="xMidYMid meet">
<metadata>
Created by potrace 1.16, written by Peter Selinger 2001-2019
</metadata>
<g transform="translate(0.000000,208.000000) scale(0.100000,-0.100000)"
fill="#000000" stroke="none">
<path d="M1040 1693 c-63 -10 -253 -102 -302 -147 -58 -51 -49 -106 17 -106
21 0 46 13 85 46 56 46 122 84 148 84 18 0 7 -35 -24 -77 -14 -18 -52 -86 -84
-151 -33 -65 -69 -127 -80 -137 -11 -10 -20 -21 -20 -25 0 -15 -101 -159 -125
-178 -47 -37 -23 -112 35 -112 16 0 48 24 96 70 67 65 74 70 105 64 42 -8 39
-6 40 -40 2 -53 -37 -429 -45 -443 -5 -8 -87 -17 -238 -25 -42 -3 -85 -9 -96
-15 -30 -16 -152 -19 -152 -4 0 7 16 35 35 62 19 26 35 51 35 55 0 3 12 25 27
49 28 42 53 101 53 125 0 6 -11 12 -25 12 -18 0 -35 -14 -63 -52 -22 -29 -49
-62 -62 -73 -12 -11 -29 -33 -37 -48 -29 -57 -37 -27 -38 134 l0 154 -31 3
c-18 2 -39 -4 -53 -15 -21 -18 -21 -19 -14 -233 l8 -215 -30 -70 c-38 -86 -35
-110 11 -125 30 -10 38 -9 55 6 20 18 25 26 77 125 16 31 32 61 36 67 4 6 18
-1 34 -17 l28 -28 257 2 c142 2 259 4 260 6 15 23 37 114 37 151 0 25 8 108
17 185 19 161 21 290 3 333 -12 28 -54 50 -98 50 -9 0 -11 7 -6 23 14 46 67
153 90 184 13 17 24 37 24 44 0 7 6 20 14 28 8 9 24 34 36 56 40 71 38 228 -3
224 -7 -1 -23 -4 -37 -6z"/>
<path d="M1438 1653 c-33 -36 -45 -77 -53 -183 -3 -47 -8 -112 -11 -145 -5
-55 -36 -182 -84 -345 -11 -36 -37 -123 -59 -195 -21 -71 -51 -157 -66 -190
-43 -95 -65 -157 -65 -187 0 -34 32 -68 63 -67 44 1 163 28 232 52 81 30 145
43 145 31 0 -16 90 -149 100 -148 6 1 15 2 20 2 15 3 12 102 -6 151 -8 24 -13
50 -10 58 3 7 26 22 51 33 25 11 45 26 45 33 0 23 -28 40 -55 35 -27 -6 -32 1
-13 20 8 8 8 15 -2 27 -11 13 -26 14 -89 9 -100 -9 -123 -24 -119 -77 l3 -40
-90 -23 c-95 -25 -135 -29 -135 -16 0 4 16 47 35 94 19 48 44 124 55 170 11
45 32 126 47 178 14 52 32 120 39 150 7 30 22 92 33 137 11 44 23 112 27 150
4 37 13 83 20 102 8 18 14 41 14 50 0 8 12 40 27 69 l27 54 -23 19 c-33 27
-73 24 -103 -8z"/>
<path d="M152 1438 c-19 -25 -22 -53 -7 -82 8 -15 15 -33 15 -38 0 -5 10 -30
21 -56 12 -26 25 -58 29 -72 11 -41 35 -36 52 12 16 45 19 212 5 236 -5 7 -29
12 -56 12 -27 0 -53 -6 -59 -12z"/>
</g>
</svg>
