<?xml version="1.0" standalone="no"?>
<!DOCTYPE svg PUBLIC "-//W3C//DTD SVG 20010904//EN"
 "http://www.w3.org/TR/2001/REC-SVG-20010904/DTD/svg10.dtd">
<svg version="1.0" xmlns="http://www.w3.org/2000/svg"
 width="208.000000pt" height="208.000000pt" viewBox="0 0 208.000000 208.000000"
 preserveAspectRatio="xMidYMid meet">
<metadata>
Created by potrace 1.16, written by Peter Selinger 2001-2019
</metadata>
<g transform="translate(0.000000,208.000000) scale(0.100000,-0.100000)"
fill="#000000" stroke="none">
<path d="M1140 1767 c-19 -7 -39 -15 -45 -19 -5 -3 -38 -12 -72 -18 -72 -14
-120 -41 -132 -73 -7 -17 -3 -28 17 -49 31 -33 41 -34 89 -8 56 30 67 27 58
-17 -4 -21 -13 -49 -21 -64 -7 -15 -20 -64 -28 -108 -15 -90 -29 -115 -59
-107 -30 8 -51 -8 -103 -76 -50 -65 -56 -83 -74 -234 -5 -45 -14 -92 -19 -105
-8 -21 -86 -101 -108 -111 -4 -1 -20 -21 -35 -42 -27 -39 -179 -199 -184 -193
-3 3 -18 317 -17 357 1 14 7 44 14 67 18 59 3 74 -43 45 -18 -12 -48 -29 -66
-39 -31 -16 -33 -20 -31 -68 1 -27 9 -66 17 -85 16 -38 21 -318 8 -416 -7 -48
-6 -54 21 -78 15 -14 33 -26 40 -26 11 0 116 131 179 224 12 17 36 44 53 60
17 17 31 35 31 40 0 6 20 33 44 61 l43 49 40 -27 c29 -20 51 -27 87 -27 52 0
68 9 162 101 29 27 57 49 64 49 13 0 7 -71 -11 -140 -5 -19 -9 -47 -9 -62 0
-15 -8 -44 -17 -63 -16 -33 -21 -36 -46 -31 -16 3 -53 6 -82 6 -43 0 -57 5
-76 25 -31 32 -59 33 -59 1 0 -91 77 -127 278 -130 l54 -1 22 55 c25 60 49
166 64 275 6 39 15 88 21 110 6 22 11 70 11 107 0 58 -3 67 -20 73 -43 14 -83
-15 -144 -103 -15 -22 -38 -47 -50 -55 -11 -8 -36 -29 -55 -46 -50 -47 -91
-67 -102 -49 -5 7 -6 20 -3 28 3 8 12 60 20 115 21 156 41 219 67 209 11 -4
55 34 118 102 28 31 36 84 16 96 -24 13 -21 28 13 70 17 20 42 62 56 93 14 30
41 78 59 104 27 42 32 58 31 103 -1 49 -3 53 -26 55 -14 1 -41 -4 -60 -10z"/>
<path d="M1561 1757 c-7 -9 -9 -43 -6 -97 7 -100 -9 -244 -36 -337 -11 -38
-36 -124 -54 -193 -32 -121 -53 -172 -115 -290 -16 -30 -36 -75 -43 -100 -8
-25 -31 -79 -50 -120 -19 -41 -38 -86 -42 -100 -10 -33 -82 -160 -105 -185
-35 -39 -42 -63 -28 -93 11 -22 21 -28 53 -30 25 -2 43 2 50 11 5 8 26 22 45
32 19 9 44 25 55 35 11 10 31 21 45 25 14 4 71 29 127 56 57 27 109 49 116 49
9 0 18 -24 26 -72 18 -103 33 -150 53 -162 37 -23 41 3 44 245 2 198 5 234 19
249 26 29 15 62 -23 72 -42 11 -119 -28 -114 -58 2 -11 6 -51 9 -90 l5 -72
-47 -21 c-26 -11 -69 -27 -95 -35 -27 -8 -57 -19 -67 -24 -10 -5 -34 -12 -54
-15 l-37 -5 19 54 c11 31 24 63 29 72 5 9 26 58 46 107 20 50 51 120 70 156
38 75 79 183 105 279 9 36 29 106 43 155 58 209 80 411 52 479 -13 31 -19 36
-49 36 -19 0 -40 -6 -46 -13z"/>
<path d="M410 1530 l-25 -19 18 -48 c47 -122 57 -163 46 -189 -13 -35 -3 -64
22 -64 13 0 26 15 42 48 12 26 26 50 31 53 5 4 3 42 -4 88 -11 75 -11 83 5
101 15 16 15 22 5 35 -19 23 -108 20 -140 -5z"/>
</g>
</svg>
