<?xml version="1.0" standalone="no"?>
<!DOCTYPE svg PUBLIC "-//W3C//DTD SVG 20010904//EN"
 "http://www.w3.org/TR/2001/REC-SVG-20010904/DTD/svg10.dtd">
<svg version="1.0" xmlns="http://www.w3.org/2000/svg"
 width="207.000000pt" height="208.000000pt" viewBox="0 0 207.000000 208.000000"
 preserveAspectRatio="xMidYMid meet">
<metadata>
Created by potrace 1.16, written by Peter Selinger 2001-2019
</metadata>
<g transform="translate(0.000000,208.000000) scale(0.100000,-0.100000)"
fill="#000000" stroke="none">
<path d="M1067 1880 c-25 -20 -26 -24 -24 -124 1 -85 -1 -106 -15 -120 -10 -9
-21 -23 -25 -30 -5 -7 -42 -36 -83 -64 -77 -52 -162 -133 -173 -165 -10 -27 9
-54 42 -62 55 -12 79 3 122 76 23 38 45 69 50 69 4 0 24 14 43 30 19 17 37 27
39 23 3 -4 -1 -51 -9 -104 -12 -93 -14 -96 -57 -140 -37 -37 -46 -52 -52 -96
-7 -57 -22 -74 -80 -94 -40 -14 -124 -64 -158 -94 -27 -24 -17 -57 24 -79 40
-22 44 -21 113 29 28 20 59 35 70 33 18 -3 21 -10 21 -58 -2 -190 -34 -341
-99 -460 -7 -14 -16 -37 -19 -51 -4 -14 -22 -45 -42 -70 -39 -49 -42 -65 -19
-97 23 -33 75 -30 116 7 18 15 58 41 88 56 30 15 65 36 77 47 32 30 227 137
234 129 4 -3 19 -64 34 -136 28 -134 48 -195 63 -195 23 0 37 283 17 347 -6
17 19 62 44 79 33 24 27 52 -11 56 -25 2 -33 8 -33 23 0 11 10 24 21 30 38 19
54 37 54 60 0 32 -14 35 -104 20 -88 -13 -112 -32 -100 -75 13 -44 10 -102 -6
-111 -8 -5 -46 -22 -85 -39 -38 -17 -81 -37 -95 -45 -41 -24 -111 -57 -115
-53 -2 1 9 41 25 88 18 58 33 137 44 240 33 303 32 302 69 332 17 15 37 28 42
28 6 0 26 13 45 29 19 15 55 38 80 50 52 26 150 126 150 153 0 34 -26 30 -92
-14 -72 -47 -151 -92 -212 -120 -36 -17 -38 -17 -31 0 4 9 10 40 15 67 4 28
17 76 29 107 11 31 25 98 31 148 11 98 19 121 55 154 38 36 78 107 66 119 -7
7 -24 -1 -55 -26 -50 -41 -60 -45 -52 -19 2 9 7 43 11 75 l6 57 -34 0 c-19 0
-46 -9 -60 -20z"/>
<path d="M253 1510 c-25 -15 -33 -27 -33 -49 0 -16 7 -34 15 -41 21 -18 58
-100 79 -179 14 -50 17 -86 12 -154 -3 -49 -8 -92 -11 -95 -2 -3 -31 -7 -62
-9 -65 -4 -106 -28 -111 -62 -5 -31 11 -46 82 -82 33 -17 67 -36 73 -41 15
-12 10 -90 -14 -222 -15 -82 -18 -89 -44 -98 -40 -14 -45 -41 -16 -91 17 -31
21 -49 15 -63 -20 -45 31 -98 77 -81 17 7 39 56 49 110 6 30 13 40 41 51 84
35 245 175 245 212 0 18 -4 22 -17 16 -24 -9 -111 -60 -145 -83 -15 -11 -39
-19 -52 -19 -25 0 -25 1 -12 33 36 86 46 128 31 133 -7 3 -22 1 -34 -5 -27
-15 -27 -15 -23 22 3 26 10 36 33 44 36 14 37 36 2 66 -96 80 -99 84 -80 104
21 24 21 32 1 54 -15 17 -15 19 0 34 9 9 18 28 21 43 3 15 12 48 20 73 19 58
19 89 0 158 -9 35 -12 81 -9 127 l4 73 -46 20 c-56 25 -52 25 -91 1z"/>
</g>
</svg>
