<?xml version="1.0" standalone="no"?>
<!DOCTYPE svg PUBLIC "-//W3C//DTD SVG 20010904//EN"
 "http://www.w3.org/TR/2001/REC-SVG-20010904/DTD/svg10.dtd">
<svg version="1.0" xmlns="http://www.w3.org/2000/svg"
 width="204.000000pt" height="208.000000pt" viewBox="0 0 204.000000 208.000000"
 preserveAspectRatio="xMidYMid meet">
<metadata>
Created by potrace 1.16, written by Peter Selinger 2001-2019
</metadata>
<g transform="translate(0.000000,208.000000) scale(0.100000,-0.100000)"
fill="#000000" stroke="none">
<path d="M1092 1830 c-47 -7 -71 -31 -72 -70 0 -32 17 -50 47 -50 13 0 23 -2
23 -5 0 -12 -71 -154 -79 -159 -5 -3 -21 18 -35 48 -41 84 -97 96 -140 32 -21
-33 -20 -49 3 -70 11 -10 23 -31 26 -47 7 -33 19 -37 34 -11 9 15 12 15 21 2
5 -8 10 -23 10 -33 0 -10 7 -20 15 -23 26 -10 16 -41 -19 -62 -19 -11 -61 -52
-93 -92 -53 -64 -64 -84 -96 -188 -48 -156 -78 -266 -87 -328 -4 -28 -14 -64
-23 -80 -27 -55 -48 -140 -45 -184 3 -39 6 -45 33 -52 26 -7 33 -4 52 18 14
18 21 40 21 68 -1 24 12 72 30 116 17 41 38 109 46 150 28 135 48 196 118 364
30 74 88 159 131 193 24 19 137 227 137 255 0 7 12 31 25 53 41 66 29 155 -21
160 -10 1 -38 -1 -62 -5z"/>
<path d="M665 1631 c-3 -6 -14 -11 -23 -11 -9 0 -30 -7 -46 -15 -15 -8 -36
-15 -45 -15 -47 0 -80 -81 -45 -111 22 -18 17 -116 -11 -206 -6 -18 -3 -23 12
-23 31 0 92 100 114 189 8 32 24 57 56 87 34 33 45 51 46 76 2 29 -1 33 -25
36 -14 2 -29 -2 -33 -7z"/>
<path d="M1012 1197 c-19 -22 -49 -127 -62 -213 -23 -150 -90 -459 -119 -554
-31 -98 -15 -165 44 -193 32 -15 143 -34 175 -30 8 1 71 5 140 7 230 10 283
16 335 40 28 13 69 29 93 36 56 18 66 31 58 82 -7 43 -52 104 -106 143 -15 11
-46 35 -70 53 -46 34 -70 41 -70 18 0 -16 61 -109 97 -148 14 -14 22 -31 18
-37 -23 -38 -151 -68 -310 -73 -193 -6 -261 -3 -287 14 l-26 17 19 78 c10 43
23 98 28 123 6 25 17 75 25 111 9 36 25 113 36 170 10 57 29 147 40 199 21 92
28 146 19 154 -14 13 -67 15 -77 3z"/>
<path d="M1354 971 c-78 -35 -193 -169 -194 -223 0 -40 33 -57 118 -61 56 -3
72 -1 72 10 0 7 -5 13 -10 13 -6 0 -14 8 -17 18 -4 9 -13 22 -20 27 -18 14 13
71 79 148 69 79 58 107 -28 68z"/>
<path d="M478 912 c-54 -34 -59 -41 -78 -102 -31 -98 -35 -141 -16 -178 14
-27 22 -32 54 -32 31 0 46 9 94 55 31 31 60 66 64 78 3 12 15 32 26 44 16 17
18 25 9 42 -7 12 -13 21 -15 21 -2 0 -23 -16 -47 -35 -53 -42 -60 -43 -49 -7
15 49 35 81 53 86 14 3 18 12 15 33 -5 42 -41 40 -110 -5z"/>
</g>
</svg>
