<?xml version="1.0" standalone="no"?>
<!DOCTYPE svg PUBLIC "-//W3C//DTD SVG 20010904//EN"
 "http://www.w3.org/TR/2001/REC-SVG-20010904/DTD/svg10.dtd">
<svg version="1.0" xmlns="http://www.w3.org/2000/svg"
 width="208.000000pt" height="206.000000pt" viewBox="0 0 208.000000 206.000000"
 preserveAspectRatio="xMidYMid meet">
<metadata>
Created by potrace 1.16, written by Peter Selinger 2001-2019
</metadata>
<g transform="translate(0.000000,206.000000) scale(0.100000,-0.100000)"
fill="#000000" stroke="none">
<path d="M1323 1800 c-63 -13 -93 -36 -88 -68 12 -80 14 -145 5 -162 -6 -11
-30 -29 -53 -41 -23 -12 -62 -38 -87 -58 -25 -20 -62 -49 -82 -64 -43 -31 -48
-57 -18 -87 30 -30 57 -24 102 20 23 22 47 40 53 40 7 0 25 16 40 35 28 34 52
38 40 7 -3 -9 -8 -43 -11 -75 -5 -53 -4 -58 13 -55 11 2 26 23 39 55 11 29 27
61 36 70 8 10 21 45 28 78 10 42 22 68 42 86 15 14 28 34 28 43 0 14 -6 16
-30 11 -25 -5 -30 -3 -31 12 -3 48 5 70 32 93 32 27 38 54 13 64 -9 3 -19 6
-22 5 -4 -1 -26 -5 -49 -9z"/>
<path d="M460 1557 c-36 -18 -39 -74 -6 -114 14 -16 28 -43 31 -59 23 -100 38
-114 74 -68 16 21 19 35 14 77 -3 29 -12 67 -19 86 -8 18 -14 42 -14 52 0 17
-27 39 -47 39 -4 0 -19 -6 -33 -13z"/>
<path d="M1890 1503 c-8 -3 -23 -14 -34 -25 -11 -10 -29 -18 -40 -18 -12 0
-32 -7 -46 -14 -14 -8 -45 -25 -70 -38 -25 -13 -54 -29 -65 -35 -31 -18 -145
-70 -200 -92 -27 -10 -79 -35 -115 -53 -36 -19 -78 -40 -95 -46 -16 -6 -52
-25 -80 -41 -92 -55 -124 -71 -139 -71 -8 0 -16 -3 -18 -7 -6 -15 -129 -73
-176 -84 -65 -14 -92 -42 -92 -95 0 -37 -3 -43 -32 -55 -57 -23 -165 -140
-198 -214 -17 -37 -38 -77 -48 -90 -18 -23 -18 -23 -20 43 -1 37 -4 126 -7
197 -5 105 -3 138 9 174 26 71 24 74 -41 66 -33 -4 -66 -14 -75 -24 -19 -18
-25 -71 -14 -136 3 -22 13 -110 21 -195 9 -100 22 -176 36 -213 24 -65 17
-105 -26 -152 -50 -53 -23 -110 47 -103 25 2 36 11 52 40 12 21 31 56 43 78
13 22 23 45 23 51 0 21 116 263 139 291 9 11 43 46 76 79 46 46 65 59 84 55
26 -4 91 51 91 78 0 9 7 16 16 16 8 0 28 13 44 28 28 28 87 63 269 157 53 28
110 58 126 67 50 29 141 68 157 68 8 0 29 11 48 25 19 14 39 25 45 25 6 0 53
23 105 51 52 28 140 75 194 103 108 55 128 75 107 100 -13 16 -70 21 -101 9z"/>
<path d="M1367 905 c-117 -32 -173 -117 -103 -154 20 -11 29 -9 74 18 28 18
76 37 107 44 53 11 58 10 71 -8 8 -11 13 -29 10 -41 -11 -42 -73 -162 -100
-193 -8 -9 -23 -34 -34 -56 -28 -54 -189 -211 -251 -244 -29 -16 -26 -47 8
-82 36 -35 53 -36 83 -5 36 38 117 96 162 116 22 11 52 28 66 39 34 27 17 57
-30 53 l-33 -2 17 25 c10 15 25 35 34 46 44 52 151 244 161 290 13 62 -2 133
-32 154 -27 19 -143 19 -210 0z"/>
<path d="M999 667 c-32 -24 -36 -50 -28 -192 10 -165 13 -181 37 -187 45 -12
59 26 69 182 4 74 9 100 24 116 24 26 25 63 2 70 -10 3 -26 10 -35 15 -24 12
-50 11 -69 -4z"/>
</g>
</svg>
