<?xml version="1.0" standalone="no"?>
<!DOCTYPE svg PUBLIC "-//W3C//DTD SVG 20010904//EN"
 "http://www.w3.org/TR/2001/REC-SVG-20010904/DTD/svg10.dtd">
<svg version="1.0" xmlns="http://www.w3.org/2000/svg"
 width="205.000000pt" height="205.000000pt" viewBox="0 0 205.000000 205.000000"
 preserveAspectRatio="xMidYMid meet">
<metadata>
Created by potrace 1.16, written by Peter Selinger 2001-2019
</metadata>
<g transform="translate(0.000000,205.000000) scale(0.100000,-0.100000)"
fill="#000000" stroke="none">
<path d="M1083 1818 c-26 -13 -26 -11 -24 -139 l2 -97 -43 -22 c-24 -12 -58
-36 -77 -52 -19 -17 -49 -37 -67 -44 -38 -16 -104 -110 -104 -149 0 -29 11
-37 60 -42 32 -4 39 -1 54 24 20 30 146 153 158 153 9 0 9 1 9 -167 0 -73 4
-144 9 -158 9 -24 7 -27 -23 -41 -17 -8 -39 -18 -47 -23 -8 -5 -40 -19 -70
-31 -30 -12 -68 -29 -84 -38 -16 -8 -71 -30 -124 -48 -52 -19 -96 -35 -97 -36
-2 -2 -10 -18 -20 -37 -16 -32 -16 -35 1 -67 21 -39 51 -45 78 -15 17 18 94
59 226 118 30 14 63 29 73 35 11 5 63 25 118 44 81 28 179 79 234 121 34 26
131 86 181 111 91 46 164 110 164 143 0 42 -21 57 -72 50 -37 -5 -46 -11 -60
-41 -17 -34 -47 -54 -193 -128 -16 -8 -48 -27 -70 -42 -22 -14 -58 -34 -80
-44 -22 -10 -53 -24 -69 -32 -16 -8 -30 -13 -31 -12 -2 2 8 46 22 98 13 52 26
131 29 175 8 132 9 135 77 199 89 86 115 105 137 99 13 -3 30 5 49 25 25 25
29 34 22 58 -6 25 -13 29 -49 32 -44 3 -90 -20 -153 -77 -18 -17 -37 -31 -41
-31 -16 0 -7 37 12 55 35 31 22 57 -35 72 -58 15 -54 15 -82 1z m174 -690 c-3
-8 -6 -5 -6 6 -1 11 2 17 5 13 3 -3 4 -12 1 -19z"/>
<path d="M338 1452 c-12 -9 -26 -21 -30 -26 -13 -18 -9 -69 7 -86 18 -20 46
-118 54 -190 7 -65 25 -72 54 -23 30 53 32 284 2 321 -1 1 -16 7 -33 11 -22 7
-36 5 -54 -7z"/>
<path d="M1405 934 c-27 -9 -68 -20 -90 -25 -151 -38 -209 -73 -203 -126 5
-41 47 -51 100 -23 38 19 270 100 290 100 11 0 10 -48 -2 -55 -5 -3 -10 -13
-10 -21 0 -8 -18 -51 -40 -97 -44 -91 -142 -207 -219 -259 -105 -70 -124 -108
-75 -147 27 -21 64 -28 64 -12 0 5 30 28 67 52 37 23 74 48 81 56 7 7 19 13
25 13 7 0 26 7 42 16 17 9 57 25 90 36 56 19 105 51 105 70 0 4 -39 5 -86 1
l-86 -6 7 24 c4 13 13 29 20 34 33 27 115 231 115 287 0 36 -24 83 -45 92 -28
10 -97 6 -150 -10z"/>
<path d="M737 748 c-32 -42 -108 -169 -165 -278 -24 -47 -60 -108 -78 -137
-19 -28 -34 -56 -34 -61 0 -5 -9 -17 -20 -27 -19 -17 -19 -16 -14 66 3 47 17
121 31 169 28 92 34 153 16 171 -16 16 -67 -5 -86 -35 -29 -46 -56 -168 -62
-276 -12 -219 -10 -229 38 -252 30 -14 37 -14 64 -1 17 8 42 26 55 41 59 64
238 397 238 441 0 10 11 40 25 67 29 56 43 128 27 138 -6 3 -22 -8 -35 -26z"/>
<path d="M925 715 c-30 -29 -31 -52 -6 -79 10 -12 26 -43 36 -71 37 -106 37
-106 59 -103 15 2 25 16 36 46 13 38 13 47 -3 91 -9 27 -17 60 -17 75 0 31
-32 66 -60 66 -12 0 -32 -11 -45 -25z"/>
</g>
</svg>
