<?xml version="1.0" standalone="no"?>
<!DOCTYPE svg PUBLIC "-//W3C//DTD SVG 20010904//EN"
 "http://www.w3.org/TR/2001/REC-SVG-20010904/DTD/svg10.dtd">
<svg version="1.0" xmlns="http://www.w3.org/2000/svg"
 width="204.000000pt" height="209.000000pt" viewBox="0 0 204.000000 209.000000"
 preserveAspectRatio="xMidYMid meet">
<metadata>
Created by potrace 1.16, written by Peter Selinger 2001-2019
</metadata>
<g transform="translate(0.000000,209.000000) scale(0.100000,-0.100000)"
fill="#000000" stroke="none">
<path d="M1631 2013 c-19 -16 -22 -31 -26 -118 -19 -432 -17 -420 -59 -461
-61 -61 -126 -131 -126 -135 0 -9 -87 -99 -95 -99 -4 0 -4 39 0 88 4 48 7 115
6 149 -1 33 3 89 9 123 14 78 -1 110 -54 110 -57 0 -61 -13 -61 -204 0 -190
-4 -208 -70 -279 -38 -41 -59 -41 -51 1 26 127 17 641 -11 674 -14 15 -18 16
-48 1 -18 -9 -36 -25 -39 -37 -8 -28 -6 -193 2 -287 4 -42 4 -121 0 -175 -5
-55 -12 -184 -17 -289 -8 -168 -13 -206 -44 -325 -20 -74 -45 -199 -56 -277
-11 -79 -25 -151 -30 -160 -21 -40 -36 -112 -36 -168 0 -57 1 -60 27 -63 23
-3 29 3 52 52 14 30 26 67 26 82 0 26 13 80 45 184 7 25 19 74 25 110 6 36 27
126 45 201 18 74 36 161 40 193 6 47 13 63 37 85 17 14 37 43 45 64 8 20 20
37 25 37 13 0 5 -133 -15 -240 -8 -47 -23 -143 -33 -215 -11 -85 -27 -156 -46
-205 -32 -83 -38 -142 -18 -190 11 -27 17 -31 44 -28 26 3 31 7 29 28 -1 14 8
53 18 87 11 35 18 67 14 73 -3 5 3 22 14 37 18 27 34 105 62 303 6 47 18 111
25 143 8 32 17 90 20 128 6 65 8 69 31 69 13 0 33 5 44 11 19 10 159 215 172
252 12 33 29 19 23 -20 -3 -21 -10 -90 -16 -153 -6 -63 -15 -158 -20 -210 -12
-125 -25 -321 -23 -340 2 -8 -2 -37 -7 -65 -9 -47 -26 -262 -35 -435 -5 -95 8
-120 65 -120 36 0 40 2 45 32 3 18 4 62 2 98 -3 59 9 229 33 465 5 50 14 167
20 260 5 94 14 206 20 250 6 44 15 139 20 210 6 72 15 185 20 251 5 67 10 193
11 280 1 141 -1 159 -17 171 -24 17 -38 16 -63 -4z m19 -453 c0 -5 -5 -10 -11
-10 -5 0 -7 5 -4 10 3 6 8 10 11 10 2 0 4 -4 4 -10z"/>
<path d="M400 1515 c-24 -26 -25 -33 -4 -56 9 -10 21 -40 26 -66 12 -62 11
-218 -1 -260 -9 -31 -8 -33 14 -33 12 0 26 8 30 18 53 134 59 159 59 259 1 99
0 102 -28 132 -34 35 -67 37 -96 6z"/>
<path d="M842 1432 c-12 -12 -21 -41 -25 -74 -11 -90 -111 -321 -178 -413 -17
-22 -48 -71 -71 -110 -66 -114 -82 -126 -93 -72 -4 17 -14 41 -21 52 -8 11
-14 27 -14 36 0 17 -28 79 -36 79 -3 0 -21 -12 -41 -27 -31 -24 -34 -31 -30
-60 3 -19 17 -57 31 -86 51 -109 54 -150 23 -322 -16 -86 -12 -109 20 -124 41
-19 69 7 83 76 6 32 18 83 27 113 8 30 21 79 28 109 8 30 18 57 23 60 10 6 52
94 52 108 0 5 20 49 45 98 24 50 45 94 45 99 0 5 13 30 28 55 15 25 34 62 42
81 7 19 22 43 32 53 17 17 18 15 18 -50 0 -37 -5 -86 -11 -108 -22 -81 -22
-103 -2 -113 27 -15 37 -5 71 73 25 59 31 88 37 185 14 222 12 263 -7 282 -23
23 -53 23 -76 0z"/>
</g>
</svg>
