<?xml version="1.0" standalone="no"?>
<!DOCTYPE svg PUBLIC "-//W3C//DTD SVG 20010904//EN"
 "http://www.w3.org/TR/2001/REC-SVG-20010904/DTD/svg10.dtd">
<svg version="1.0" xmlns="http://www.w3.org/2000/svg"
 width="209.000000pt" height="218.000000pt" viewBox="0 0 209.000000 218.000000"
 preserveAspectRatio="xMidYMid meet">
<metadata>
Created by potrace 1.16, written by Peter Selinger 2001-2019
</metadata>
<g transform="translate(0.000000,218.000000) scale(0.100000,-0.100000)"
fill="#000000" stroke="none">
<path d="M1704 2034 c4 -14 2 -32 -4 -40 -7 -7 -21 -46 -32 -86 -23 -82 -30
-273 -16 -458 18 -244 0 -703 -31 -775 -5 -11 -14 -51 -21 -90 -14 -78 -31
-105 -67 -105 -13 0 -77 -15 -141 -34 -113 -33 -151 -38 -390 -50 -50 -3 -83
-18 -70 -32 4 -3 24 -10 45 -16 135 -35 262 -34 448 3 61 12 139 22 175 23
l64 1 17 50 c17 51 47 222 75 424 17 122 19 322 7 521 -10 151 -9 409 0 544 8
109 -3 146 -44 146 -18 0 -20 -4 -15 -26z"/>
<path d="M1190 1955 c-7 -8 -17 -15 -22 -15 -11 0 -60 -34 -108 -75 -20 -16
-51 -41 -70 -55 -19 -14 -49 -38 -66 -55 -18 -16 -49 -41 -69 -55 -43 -30 -75
-60 -75 -72 0 -5 -10 -2 -22 6 -30 21 -71 20 -91 -2 -14 -15 -19 -57 -27 -213
-13 -227 -26 -383 -35 -421 -13 -52 20 -31 48 30 30 65 43 108 52 172 4 25 11
50 16 55 4 6 12 46 18 89 5 45 16 85 25 95 9 10 16 24 16 33 0 16 48 70 120
133 73 64 139 115 149 115 5 0 16 11 25 25 9 14 24 25 33 25 14 0 15 -9 10
-67 -4 -38 -16 -110 -27 -162 -11 -52 -20 -109 -20 -128 0 -34 -11 -92 -35
-178 -28 -97 -33 -144 -20 -161 10 -15 14 -14 33 13 11 16 31 54 42 84 12 30
27 63 34 74 7 11 18 47 25 80 16 77 36 168 49 225 6 25 16 86 23 135 6 50 16
95 21 102 16 20 22 151 8 168 -16 19 -44 19 -60 0z"/>
<path d="M200 1563 c-20 -8 -39 -34 -40 -55 0 -9 10 -29 23 -45 23 -29 80
-140 92 -181 3 -12 15 -27 25 -32 17 -9 21 -5 30 30 6 23 8 51 4 63 -4 12 -9
27 -10 32 -1 6 -11 46 -23 90 -25 96 -48 118 -101 98z"/>
<path d="M1247 1520 c-11 -16 -12 -32 -5 -70 6 -33 5 -56 -2 -69 -15 -29 -12
-41 10 -41 11 0 20 5 20 10 0 6 4 10 10 10 15 0 47 -127 55 -214 3 -44 11 -88
16 -98 12 -23 45 -23 54 0 21 51 9 268 -20 362 -38 122 -40 125 -83 128 -31 2
-43 -1 -55 -18z"/>
<path d="M875 1353 c-63 -33 -105 -92 -105 -148 0 -12 -6 -40 -14 -62 -8 -22
-16 -75 -19 -119 -6 -87 -35 -243 -48 -260 -5 -5 -11 -35 -14 -65 -2 -30 -8
-72 -12 -94 -4 -22 -6 -43 -5 -47 1 -4 -7 -22 -18 -40 -26 -43 -25 -58 3 -58
47 1 97 86 116 201 24 149 31 185 46 228 8 25 16 75 19 111 5 83 43 207 89
291 20 37 33 69 30 73 -10 10 -36 6 -68 -11z"/>
<path d="M820 851 c-5 -11 -10 -40 -10 -65 0 -44 2 -47 56 -87 49 -36 65 -42
119 -47 54 -4 65 -2 84 17 30 30 27 38 -24 49 -62 13 -108 47 -142 104 -31 52
-64 64 -83 29z"/>
<path d="M200 809 c0 -6 -16 -30 -35 -54 -49 -59 -55 -101 -21 -140 16 -18 30
-53 37 -88 13 -64 29 -87 62 -87 46 0 59 23 87 151 11 52 28 113 37 137 12 32
13 46 5 54 -7 7 -13 10 -15 7 -18 -21 -67 -99 -67 -106 0 -4 -9 -14 -20 -21
-17 -11 -20 -9 -26 14 -4 14 -4 41 -1 59 3 19 1 37 -4 40 -5 4 -9 15 -9 26 0
10 -7 19 -15 19 -8 0 -15 -5 -15 -11z"/>
</g>
</svg>
