<?xml version="1.0" standalone="no"?>
<!DOCTYPE svg PUBLIC "-//W3C//DTD SVG 20010904//EN"
 "http://www.w3.org/TR/2001/REC-SVG-20010904/DTD/svg10.dtd">
<svg version="1.0" xmlns="http://www.w3.org/2000/svg"
 width="207.000000pt" height="214.000000pt" viewBox="0 0 207.000000 214.000000"
 preserveAspectRatio="xMidYMid meet">
<metadata>
Created by potrace 1.16, written by Peter Selinger 2001-2019
</metadata>
<g transform="translate(0.000000,214.000000) scale(0.100000,-0.100000)"
fill="#000000" stroke="none">
<path d="M1417 1998 c-14 -18 -30 -43 -36 -55 -14 -27 -91 -113 -102 -113 -4
0 -36 28 -69 61 -58 57 -64 61 -98 56 -44 -8 -54 -22 -48 -67 33 -244 32 -256
-26 -286 -15 -8 -28 -21 -28 -28 0 -8 -20 -32 -45 -54 -56 -49 -105 -119 -105
-150 0 -21 43 -72 61 -72 24 0 42 18 65 64 14 28 34 60 43 71 10 11 24 30 30
43 24 45 33 24 29 -65 l-4 -88 -69 -68 c-39 -37 -87 -84 -108 -105 -34 -33
-39 -35 -48 -19 -21 36 -149 6 -149 -35 0 -10 9 -73 19 -141 15 -93 19 -167
18 -310 l-2 -188 -48 -46 c-29 -28 -46 -51 -43 -60 4 -8 6 -18 6 -22 0 -4 14
-15 30 -24 36 -21 38 -48 10 -95 -37 -61 -24 -92 39 -92 48 0 66 33 86 152 14
82 7 72 115 168 17 16 32 25 90 55 73 37 70 37 71 13 1 -71 -3 -265 -7 -338
-12 -179 -14 -161 20 -158 l31 3 21 145 c12 80 24 152 27 160 3 8 8 42 11 74
3 33 7 61 10 63 2 2 25 -31 50 -74 26 -43 52 -85 57 -93 5 -8 18 -32 29 -53
29 -52 56 -77 84 -77 22 0 25 6 33 53 6 33 4 79 -3 127 -7 41 -19 121 -28 177
-24 156 -22 188 16 232 29 33 49 48 88 68 29 14 70 57 70 72 -1 17 -23 51 -34
51 -3 0 -6 -7 -6 -15 0 -8 -15 -22 -32 -30 -18 -9 -44 -22 -58 -30 -34 -20
-60 -19 -60 3 1 115 23 515 30 550 16 71 43 156 52 163 13 8 17 72 6 92 -6 12
-16 16 -29 12 -17 -6 -19 -1 -19 34 0 23 9 81 19 129 29 127 20 191 -26 192
-7 0 -23 -15 -36 -32z m-201 -234 c-3 -8 -10 -14 -16 -14 -11 0 -14 43 -3 54
10 10 26 -23 19 -40z m139 -86 c-1 -40 -3 -83 -4 -95 -1 -24 -132 -163 -152
-163 -9 0 -10 25 -7 89 5 82 8 92 39 131 48 60 110 120 119 115 4 -3 7 -37 5
-77z m-33 -430 l-4 -146 -32 -5 c-17 -2 -40 -8 -50 -12 -18 -8 -19 -4 -14 61
3 38 11 79 19 91 11 18 11 26 -1 48 -14 26 -13 28 33 72 27 25 49 44 51 42 1
-2 0 -70 -2 -151z m-216 -151 l4 -76 -37 -25 c-21 -15 -42 -26 -48 -26 -16 0
-73 -58 -90 -90 -18 -34 -11 -55 28 -94 16 -16 35 -40 44 -52 14 -22 13 -26
-12 -61 -28 -39 -122 -120 -134 -116 -3 2 -7 97 -8 212 l-1 210 26 3 c17 2 31
12 39 29 7 14 34 40 60 59 26 19 50 39 52 45 6 14 63 66 68 62 2 -3 6 -38 9
-80z m271 -89 c-3 -8 -6 -5 -6 6 -1 11 2 17 5 13 3 -3 4 -12 1 -19z m-118 -40
c-12 -43 -4 -47 31 -13 l30 29 0 -112 0 -112 -47 -30 c-30 -20 -50 -27 -57
-20 -12 12 8 250 24 280 16 30 30 15 19 -22z m-159 -134 c0 -61 -11 -67 -38
-21 -16 26 -16 28 8 51 14 14 26 25 28 25 1 1 2 -24 2 -55z m-22 -200 c-4 -20
-34 -41 -44 -31 -8 8 24 47 38 47 5 0 8 -7 6 -16z m246 -89 c3 -38 9 -81 12
-95 5 -23 5 -24 -7 -5 -7 11 -32 43 -56 72 -26 30 -43 60 -41 70 4 23 70 56
79 40 4 -7 9 -43 13 -82z"/>
<path d="M467 1573 c-25 -29 -24 -63 3 -115 25 -46 33 -147 20 -232 -7 -47
-13 -89 -12 -93 2 -17 19 -12 30 9 11 22 24 41 63 99 12 17 18 58 23 148 4 69
12 131 18 138 8 10 8 20 0 38 -10 22 -18 25 -70 25 -43 0 -63 -5 -75 -17z"/>
<path d="M393 868 c-27 -42 -28 -74 -6 -178 18 -84 22 -138 23 -272 0 -92 -4
-169 -8 -172 -4 -3 -6 -21 -4 -40 8 -65 93 -81 105 -19 3 15 10 46 16 68 13
54 31 283 24 320 -3 17 -14 40 -25 52 -19 21 -48 138 -48 195 0 46 -55 79 -77
46z"/>
</g>
</svg>
