<?xml version="1.0" standalone="no"?>
<!DOCTYPE svg PUBLIC "-//W3C//DTD SVG 20010904//EN"
 "http://www.w3.org/TR/2001/REC-SVG-20010904/DTD/svg10.dtd">
<svg version="1.0" xmlns="http://www.w3.org/2000/svg"
 width="208.000000pt" height="214.000000pt" viewBox="0 0 208.000000 214.000000"
 preserveAspectRatio="xMidYMid meet">
<metadata>
Created by potrace 1.16, written by Peter Selinger 2001-2019
</metadata>
<g transform="translate(0.000000,214.000000) scale(0.100000,-0.100000)"
fill="#000000" stroke="none">
<path d="M1330 1963 c-22 -9 -74 -48 -156 -118 -23 -19 -45 -35 -50 -35 -5 0
-21 -10 -36 -23 -98 -81 -229 -180 -233 -175 -2 2 1 25 7 52 10 49 -1 111 -26
145 -13 16 -85 9 -98 -11 -11 -17 -1 -55 24 -91 17 -23 19 -39 16 -85 -4 -45
-2 -60 11 -69 13 -9 14 -14 4 -24 -7 -7 -13 -23 -13 -35 0 -25 14 -37 46 -41
21 -3 47 19 220 187 34 33 66 60 72 60 6 0 29 16 52 35 47 39 65 38 49 -3 -11
-29 -58 -253 -66 -312 -8 -71 -12 -80 -37 -80 -13 0 -43 -17 -67 -39 -24 -21
-60 -46 -79 -56 -19 -9 -42 -23 -50 -30 -8 -7 -32 -18 -53 -25 -52 -16 -64
-47 -31 -77 26 -24 68 -31 79 -13 3 5 22 17 43 27 20 9 69 50 109 90 l73 73
-7 -109 c-6 -116 -2 -144 20 -135 31 12 62 110 81 254 24 184 61 340 111 466
51 132 58 197 20 201 -11 1 -27 -1 -35 -4z"/>
<path d="M17 1386 c-27 -20 -25 -198 3 -243 20 -33 54 -44 63 -20 6 17 0 254
-8 267 -9 14 -36 12 -58 -4z"/>
<path d="M613 1373 c-18 -9 -35 -23 -38 -31 -5 -14 19 -93 35 -117 9 -12 27
-93 35 -157 6 -50 24 -65 55 -46 31 20 34 3 7 -44 -31 -54 -45 -135 -52 -308
-6 -141 -12 -196 -45 -420 -20 -140 -19 -161 15 -217 17 -29 25 -33 61 -33 71
0 121 54 262 282 23 37 42 74 42 81 0 7 11 24 25 37 14 13 25 29 25 36 0 7 9
15 19 19 14 4 48 -13 115 -60 52 -36 99 -65 104 -65 4 0 29 -14 55 -30 26 -17
54 -30 61 -30 8 0 21 -11 30 -25 9 -14 23 -25 30 -25 8 0 23 -11 33 -25 13
-19 32 -28 73 -34 30 -5 85 -23 122 -40 55 -25 82 -31 141 -32 75 -1 121 13
114 34 -2 7 -42 19 -89 27 -81 15 -126 35 -217 97 -20 13 -40 31 -44 38 -4 8
-28 23 -52 34 -25 11 -59 31 -77 44 -18 14 -62 37 -98 52 -61 26 -89 45 -165
110 -16 15 -38 32 -48 38 -23 16 -12 49 31 98 16 19 34 44 41 57 6 12 18 22
26 22 16 0 105 85 105 100 0 24 -37 29 -69 9 -17 -10 -43 -19 -57 -19 -35 0
-114 -99 -114 -144 0 -8 -9 -24 -20 -37 l-20 -24 -44 48 c-71 76 -167 93 -182
32 -6 -22 19 -85 34 -85 4 0 31 -21 59 -46 l52 -47 -17 -31 c-9 -17 -33 -51
-52 -76 -51 -64 -120 -164 -120 -173 0 -17 -75 -106 -82 -99 -5 5 0 71 11 148
11 76 25 225 30 329 14 241 19 279 34 267 22 -18 72 -20 102 -6 36 17 114 89
138 126 42 66 -9 98 -61 38 -15 -16 -30 -30 -35 -30 -5 0 -20 -9 -34 -20 -14
-11 -36 -20 -49 -20 -14 0 -30 -10 -40 -26 -19 -29 -42 -18 -27 12 7 16 9 55
4 107 -2 15 -31 6 -45 -15 -9 -12 -16 -18 -16 -13 -1 6 -2 53 -3 105 -2 52 -8
105 -15 117 -7 12 -12 42 -12 66 0 60 -24 71 -87 40z"/>
<path d="M141 843 c-69 -129 -66 -115 -65 -293 0 -197 6 -232 40 -255 39 -25
61 -11 96 63 17 37 49 92 70 123 40 59 63 149 39 149 -13 0 -55 -42 -98 -97
-14 -18 -29 -33 -34 -33 -9 0 -5 188 6 261 5 31 4 49 -4 53 -6 4 -11 18 -11
31 0 39 -17 38 -39 -2z"/>
</g>
</svg>
