<?xml version="1.0" standalone="no"?>
<!DOCTYPE svg PUBLIC "-//W3C//DTD SVG 20010904//EN"
 "http://www.w3.org/TR/2001/REC-SVG-20010904/DTD/svg10.dtd">
<svg version="1.0" xmlns="http://www.w3.org/2000/svg"
 width="207.000000pt" height="215.000000pt" viewBox="0 0 207.000000 215.000000"
 preserveAspectRatio="xMidYMid meet">
<metadata>
Created by potrace 1.16, written by Peter Selinger 2001-2019
</metadata>
<g transform="translate(0.000000,215.000000) scale(0.100000,-0.100000)"
fill="#000000" stroke="none">
<path d="M1157 1895 c-82 -73 -203 -183 -238 -218 -15 -15 -43 -34 -62 -42
-19 -8 -50 -33 -69 -55 -19 -22 -40 -40 -46 -40 -7 0 -13 18 -13 43 -2 50 -3
56 -14 125 -4 29 -14 59 -21 67 -16 15 -48 9 -66 -12 -16 -20 -18 -145 -1
-158 15 -13 1 -259 -20 -330 -8 -27 -18 -68 -21 -90 -8 -49 -30 -125 -64 -225
-40 -118 -60 -161 -98 -202 -27 -31 -34 -46 -32 -71 3 -27 7 -32 33 -35 119
-11 244 -64 245 -104 0 -10 -9 -39 -19 -66 -23 -58 -35 -133 -27 -166 9 -37
61 -56 153 -56 97 1 180 20 255 60 66 34 81 36 131 15 53 -22 169 -20 190 3
19 21 22 81 6 132 -6 19 -15 128 -20 241 -8 182 -6 223 10 342 11 75 23 143
28 151 13 22 116 96 135 96 9 0 23 8 30 19 7 10 28 26 45 35 39 20 68 60 59
82 -7 18 -36 12 -76 -16 -32 -23 -151 -73 -157 -66 -8 8 36 139 79 236 36 79
38 90 28 111 -13 24 -47 24 -81 1 -44 -29 -137 -100 -187 -145 -26 -23 -61
-51 -76 -62 -28 -20 -42 -31 -165 -129 -34 -27 -64 -46 -67 -44 -3 3 0 57 7
119 13 127 36 195 73 209 13 5 43 32 67 61 24 29 60 68 79 88 60 60 102 121
96 136 -10 28 -46 15 -109 -40z m182 -402 c-6 -16 -15 -50 -20 -78 -21 -111
-38 -154 -69 -170 -48 -25 -59 -20 -53 24 6 47 -6 57 -47 36 -17 -9 -34 -13
-39 -10 -5 2 -16 -6 -25 -20 -12 -18 -15 -38 -10 -77 l6 -53 -54 -36 c-72 -48
-98 -56 -98 -31 0 10 11 29 25 42 14 13 25 35 25 48 0 19 25 50 94 119 52 51
99 93 104 93 5 0 20 15 33 34 29 41 106 106 125 106 11 0 11 -6 3 -27z m-505
-230 c-4 -197 -17 -278 -51 -315 -10 -11 -49 -36 -88 -55 -38 -19 -85 -46
-104 -59 -64 -45 -65 -33 -11 72 22 43 40 92 40 109 0 17 9 48 20 70 11 22 27
69 34 105 8 36 23 94 33 129 16 59 21 66 50 73 18 5 40 19 50 33 10 13 21 25
24 25 4 0 5 -84 3 -187z m422 -140 c-12 -44 -19 -192 -17 -343 l2 -165 -38
-45 c-21 -25 -41 -46 -45 -48 -4 -2 -26 -16 -50 -32 -24 -17 -51 -30 -61 -30
-24 0 -197 59 -224 78 -30 19 -29 46 3 129 14 37 33 95 41 128 25 100 32 112
91 152 32 21 70 48 85 60 37 30 53 29 61 -2 4 -14 12 -25 20 -25 14 0 26 21
51 91 16 44 41 67 73 68 8 1 11 -6 8 -16z m-508 -360 c-9 -21 -21 -57 -28 -79
-20 -68 -23 -70 -69 -49 -23 10 -41 22 -41 27 0 5 -12 13 -26 18 -26 10 -25
30 2 30 8 0 14 4 14 8 0 5 16 17 36 28 91 49 119 62 123 58 2 -2 -3 -21 -11
-41z m117 -293 c28 -15 63 -35 79 -46 l30 -19 -40 -12 c-49 -15 -149 -16 -175
-3 -21 12 -19 40 7 92 16 30 19 30 99 -12z m393 -48 c3 -21 0 -23 -34 -20 -44
4 -54 20 -22 36 33 16 53 10 56 -16z"/>
<path d="M1040 781 c-19 -3 -50 -15 -68 -26 -27 -16 -32 -25 -30 -50 2 -22 11
-34 32 -44 26 -12 33 -11 70 9 81 45 120 99 80 114 -17 7 -32 6 -84 -3z"/>
<path d="M207 1522 c-24 -26 -21 -59 8 -94 33 -39 48 -97 49 -195 1 -88 12
-104 41 -60 53 82 59 317 9 354 -26 19 -88 16 -107 -5z"/>
<path d="M305 871 c-22 -10 -58 -23 -80 -30 -82 -25 -96 -34 -115 -71 -18 -36
-18 -38 -1 -54 9 -9 32 -19 50 -22 28 -6 37 -2 65 27 18 19 58 52 88 74 59 42
82 70 73 85 -9 15 -35 12 -80 -9z"/>
<path d="M310 529 c-23 -25 -54 -47 -90 -60 -66 -25 -90 -45 -90 -75 0 -25 26
-44 60 -44 36 0 93 36 143 89 46 49 56 77 41 115 -10 25 -26 18 -64 -25z"/>
</g>
</svg>
