<?xml version="1.0" standalone="no"?>
<!DOCTYPE svg PUBLIC "-//W3C//DTD SVG 20010904//EN"
 "http://www.w3.org/TR/2001/REC-SVG-20010904/DTD/svg10.dtd">
<svg version="1.0" xmlns="http://www.w3.org/2000/svg"
 width="207.000000pt" height="213.000000pt" viewBox="0 0 207.000000 213.000000"
 preserveAspectRatio="xMidYMid meet">
<metadata>
Created by potrace 1.16, written by Peter Selinger 2001-2019
</metadata>
<g transform="translate(0.000000,213.000000) scale(0.100000,-0.100000)"
fill="#000000" stroke="none">
<path d="M1026 1982 c-3 -6 -14 -8 -24 -5 -25 6 -50 -26 -61 -78 -6 -24 -20
-89 -31 -144 -12 -55 -39 -153 -62 -218 -22 -65 -37 -124 -34 -132 6 -17 -57
-172 -83 -199 -14 -16 -17 -27 -10 -43 7 -20 11 -22 34 -11 13 6 39 36 57 67
28 49 33 53 36 32 2 -13 -1 -43 -7 -67 -6 -23 -11 -121 -11 -217 0 -123 -4
-178 -12 -189 -25 -31 -239 -128 -282 -128 -8 0 -19 -7 -26 -15 -26 -31 -41
-6 -20 33 28 52 81 176 101 236 12 38 28 80 35 94 7 14 10 30 7 35 -9 14 -53
-40 -53 -64 0 -10 -4 -19 -9 -19 -11 0 -46 -57 -91 -146 -29 -59 -55 -92 -65
-82 -12 12 20 187 43 231 13 26 21 54 18 62 -9 23 -37 31 -47 12 -5 -8 -25
-21 -43 -27 -40 -13 -61 -35 -62 -64 -2 -64 -28 -263 -45 -336 -10 -47 -21
-116 -24 -155 -4 -38 -13 -87 -22 -107 -9 -21 -13 -47 -9 -62 7 -30 49 -61 70
-53 17 7 106 181 106 208 0 10 6 33 14 51 8 18 19 46 25 62 l12 29 23 -22 c37
-35 91 -28 193 25 48 26 97 53 108 60 11 8 23 14 27 14 12 0 9 -213 -3 -268
-11 -45 -10 -54 8 -84 24 -41 56 -41 94 1 25 28 199 121 225 121 8 0 54 21
104 47 50 25 92 44 94 42 2 -2 9 -56 15 -119 7 -63 16 -132 22 -154 17 -62 10
-67 -63 -50 -35 7 -76 20 -93 27 -127 58 -155 70 -161 65 -11 -12 15 -45 53
-64 21 -10 54 -31 73 -46 48 -36 239 -118 275 -118 8 0 19 18 26 43 10 35 8
65 -9 177 -23 148 -27 191 -42 447 -7 117 -7 199 0 254 10 80 10 82 69 145 94
100 97 139 6 79 -31 -21 -58 -35 -61 -33 -2 3 0 49 6 102 12 114 56 232 127
338 52 79 54 111 9 116 -33 4 -76 -15 -76 -34 0 -7 -13 -22 -30 -34 -16 -12
-30 -26 -30 -31 0 -34 -192 -216 -309 -293 -74 -49 -151 -128 -151 -157 0 -38
66 -73 95 -49 8 7 15 17 15 23 0 13 188 194 221 212 l25 14 -4 -142 c-5 -156
-9 -167 -71 -193 -18 -8 -35 -14 -37 -14 -11 0 -2 39 16 68 11 17 23 50 26 72
9 53 -16 65 -55 27 -14 -14 -45 -43 -68 -63 -48 -40 -54 -70 -31 -147 12 -38
11 -41 -18 -64 -16 -13 -47 -29 -69 -35 -22 -7 -51 -19 -63 -27 -18 -11 -25
-12 -31 -2 -10 16 -4 235 8 312 6 34 8 66 5 70 -3 5 2 19 10 31 9 12 16 38 16
56 0 19 8 46 18 60 39 56 63 115 53 125 -10 10 -72 -37 -110 -82 -14 -17 -14
-15 12 40 25 57 168 192 240 229 39 20 99 88 95 108 -5 27 -65 28 -93 2 -32
-30 -157 -110 -173 -110 -8 0 -11 7 -8 18 18 62 46 199 46 225 0 36 -14 65
-24 49z m-155 -669 c-12 -20 -14 -14 -5 12 4 9 9 14 11 11 3 -2 0 -13 -6 -23z
m439 -435 c0 -46 3 -134 7 -195 l6 -113 -31 0 c-17 0 -41 -4 -54 -9 -13 -5
-59 -19 -103 -31 -44 -13 -94 -29 -112 -36 -53 -24 -94 -29 -104 -13 -14 22
-11 176 5 213 15 35 63 76 91 76 9 0 40 14 70 30 30 17 65 30 80 30 20 0 28 8
41 38 13 32 73 89 97 91 4 1 7 -36 7 -81z"/>
<path d="M1008 694 c-41 -18 -55 -43 -38 -73 17 -33 45 -43 88 -31 20 5 51 10
67 10 44 0 140 52 140 76 0 17 -8 19 -85 20 -47 1 -96 4 -110 7 -14 4 -41 0
-62 -9z"/>
<path d="M252 1753 c-23 -28 -23 -72 0 -99 10 -13 12 -22 34 -149 9 -49 22
-119 31 -155 11 -48 13 -93 8 -170 l-6 -105 20 24 c12 13 21 29 21 36 0 7 9
24 20 37 25 32 38 117 28 188 -34 255 -36 310 -13 322 31 18 11 68 -27 68 -10
0 -21 7 -24 15 -10 26 -67 19 -92 -12z"/>
</g>
</svg>
