<?xml version="1.0" standalone="no"?>
<!DOCTYPE svg PUBLIC "-//W3C//DTD SVG 20010904//EN"
 "http://www.w3.org/TR/2001/REC-SVG-20010904/DTD/svg10.dtd">
<svg version="1.0" xmlns="http://www.w3.org/2000/svg"
 width="207.000000pt" height="212.000000pt" viewBox="0 0 207.000000 212.000000"
 preserveAspectRatio="xMidYMid meet">
<metadata>
Created by potrace 1.16, written by Peter Selinger 2001-2019
</metadata>
<g transform="translate(0.000000,212.000000) scale(0.100000,-0.100000)"
fill="#000000" stroke="none">
<path d="M1473 2107 c-4 -7 -19 -21 -33 -30 -14 -10 -72 -61 -129 -115 -282
-262 -342 -333 -343 -403 0 -49 11 -62 46 -53 18 4 38 25 62 63 20 31 44 65
55 76 10 11 33 36 51 57 106 118 303 308 319 308 7 0 9 -12 5 -32 -3 -18 -8
-60 -11 -93 -3 -33 -8 -67 -11 -76 -8 -28 -12 -68 -19 -219 -3 -80 -10 -170
-15 -200 -5 -30 -12 -100 -15 -155 -8 -134 -24 -339 -31 -397 -6 -46 -7 -47
-68 -77 -88 -42 -168 -73 -174 -66 -3 3 0 15 6 28 13 26 28 101 37 176 5 43
15 65 55 119 56 73 65 112 25 112 -15 0 -31 -9 -41 -25 -9 -14 -20 -25 -25
-25 -17 0 -9 95 11 135 11 22 20 47 20 56 0 24 -38 30 -79 13 -63 -27 -71 -39
-71 -119 0 -106 -10 -167 -26 -161 -7 3 -20 -1 -27 -8 -7 -8 -42 -28 -76 -45
-87 -44 -92 -73 -22 -114 31 -19 31 -19 76 8 25 14 50 23 56 20 12 -8 2 -190
-12 -217 -5 -9 -23 -19 -41 -23 -18 -3 -57 -16 -86 -27 -78 -31 -83 -78 -11
-108 26 -11 37 -10 77 7 65 29 93 42 125 59 29 16 47 12 47 -12 0 -26 75 -125
184 -244 58 -63 112 -118 119 -122 46 -25 60 66 39 267 -20 197 -21 317 -7
480 8 88 20 228 25 310 6 83 15 180 20 217 6 37 10 104 10 149 0 45 6 127 14
183 8 55 17 119 19 141 3 22 12 71 21 110 9 38 16 73 16 77 0 14 -158 9 -167
-5z m-79 -1424 c3 -10 7 -78 11 -151 5 -131 5 -133 -15 -122 -33 18 -124 113
-144 151 l-19 35 25 25 c24 23 115 78 130 79 4 0 9 -8 12 -17z"/>
<path d="M860 1893 c-35 -7 -50 -21 -50 -48 0 -33 28 -95 43 -95 17 0 107 82
107 97 0 9 -67 56 -73 52 -1 -1 -13 -4 -27 -6z"/>
<path d="M303 1713 c-29 -24 -31 -50 -9 -97 11 -22 20 -70 23 -115 2 -42 9
-80 14 -86 13 -13 59 38 59 65 0 10 4 22 10 25 5 3 10 19 10 34 0 36 19 91 31
91 13 0 30 47 23 64 -3 7 -22 16 -42 20 -20 3 -51 9 -67 12 -22 4 -37 0 -52
-13z"/>
<path d="M1226 1472 c-11 -2 -36 -14 -55 -27 -20 -12 -48 -25 -62 -28 -15 -4
-37 -15 -50 -26 -34 -27 -18 -69 33 -87 35 -12 39 -11 80 20 24 19 66 44 93
57 57 28 75 51 59 77 -11 17 -58 24 -98 14z"/>
<path d="M819 1353 c-6 -16 -19 -37 -29 -48 -9 -11 -34 -51 -55 -89 -31 -57
-38 -82 -45 -155 -4 -47 -13 -121 -20 -165 -6 -43 -9 -85 -5 -93 5 -15 -36
-254 -55 -318 -5 -16 -16 -72 -25 -124 -12 -72 -13 -97 -4 -108 17 -19 51 -12
64 13 6 12 16 28 22 35 10 13 31 97 74 309 11 52 24 141 29 198 5 56 12 107
15 111 2 5 7 52 10 106 4 57 16 131 31 181 25 87 32 174 14 174 -6 0 -15 -12
-21 -27z"/>
<path d="M319 1080 c-67 -68 -73 -81 -65 -169 3 -42 8 -134 11 -206 4 -71 11
-154 16 -183 14 -68 13 -172 0 -240 -13 -65 -3 -88 40 -97 51 -11 60 7 90 180
11 64 65 215 140 389 16 38 29 77 29 87 0 43 -24 23 -86 -73 -99 -154 -108
-168 -117 -168 -7 0 -4 332 4 468 1 23 -2 47 -7 51 -5 5 -29 -12 -55 -39z"/>
</g>
</svg>
