<?xml version="1.0" standalone="no"?>
<!DOCTYPE svg PUBLIC "-//W3C//DTD SVG 20010904//EN"
 "http://www.w3.org/TR/2001/REC-SVG-20010904/DTD/svg10.dtd">
<svg version="1.0" xmlns="http://www.w3.org/2000/svg"
 width="207.000000pt" height="212.000000pt" viewBox="0 0 207.000000 212.000000"
 preserveAspectRatio="xMidYMid meet">
<metadata>
Created by potrace 1.16, written by Peter Selinger 2001-2019
</metadata>
<g transform="translate(0.000000,212.000000) scale(0.100000,-0.100000)"
fill="#000000" stroke="none">
<path d="M1635 2085 c-22 -19 -53 -47 -70 -63 -16 -16 -44 -37 -62 -46 -17 -8
-62 -50 -100 -92 -37 -42 -79 -86 -93 -98 -64 -56 -120 -120 -131 -153 -10
-31 -9 -41 6 -70 10 -18 22 -33 27 -33 14 0 58 48 58 63 0 8 23 37 50 66 28
29 50 56 50 62 0 5 6 9 14 9 8 0 36 26 63 58 26 31 51 59 56 60 4 2 7 10 7 18
0 8 4 14 10 14 5 0 23 12 39 28 17 15 45 38 62 52 l32 24 -7 -49 c-16 -115
-25 -229 -31 -370 -4 -82 -8 -152 -10 -155 -22 -36 -37 -748 -17 -825 6 -22
13 -69 16 -105 20 -214 19 -210 5 -210 -25 0 -75 37 -114 84 -47 58 -60 59
-51 4 10 -65 34 -104 83 -140 24 -18 62 -50 84 -71 31 -31 45 -38 71 -35 31 3
33 6 41 53 11 69 0 255 -24 403 -24 152 -25 440 -3 682 8 91 19 233 24 315 16
246 18 270 45 384 14 60 25 123 25 140 l0 31 -57 0 c-51 -1 -63 -5 -98 -35z"/>
<path d="M518 1695 c-33 -19 -53 -51 -37 -61 7 -4 10 -46 8 -123 l-4 -116 25
-3 c28 -3 32 6 75 152 10 33 30 72 46 89 36 37 38 67 7 67 -13 0 -39 2 -58 5
-21 3 -46 -1 -62 -10z"/>
<path d="M940 1690 c-11 -11 -20 -29 -20 -40 0 -26 48 -48 90 -42 26 4 30 8
30 38 0 56 -61 83 -100 44z"/>
<path d="M1335 1416 c-16 -12 -52 -35 -79 -50 -114 -63 -143 -106 -94 -140 30
-22 61 -20 83 4 10 11 23 20 30 20 6 0 48 37 93 82 64 63 79 84 71 95 -18 20
-71 15 -104 -11z"/>
<path d="M435 1237 l-26 -22 31 -85 c43 -117 60 -198 67 -315 7 -129 -13 -432
-33 -499 -22 -71 -39 -124 -57 -171 -18 -47 -6 -78 33 -83 38 -6 96 65 114
140 5 24 45 111 128 283 31 65 49 98 75 139 24 36 26 38 37 20 19 -32 11 -200
-13 -284 -12 -41 -26 -83 -32 -93 -10 -19 4 -57 22 -57 16 0 56 48 69 83 26
71 43 113 51 132 12 26 14 128 7 278 -6 117 8 213 39 272 6 11 14 43 18 71 8
62 -7 79 -32 36 -9 -16 -28 -35 -42 -43 -14 -9 -38 -38 -53 -65 -23 -43 -28
-67 -34 -166 -6 -102 -9 -115 -24 -111 -10 3 -23 -5 -33 -20 -8 -13 -32 -39
-51 -58 -20 -18 -36 -38 -36 -44 -1 -5 -14 -26 -30 -45 -29 -34 -30 -34 -32
-10 0 14 -1 32 0 40 14 230 7 367 -25 495 -8 33 -17 71 -20 85 -2 14 -11 46
-20 73 -13 42 -18 47 -43 47 -16 0 -41 -10 -55 -23z"/>
<path d="M1275 1220 c-35 -14 -42 -32 -49 -125 -9 -119 -10 -119 -61 -150 -48
-28 -95 -73 -95 -91 0 -18 35 -44 60 -44 13 0 34 9 46 21 38 36 47 17 42 -88
-6 -99 -8 -104 -68 -134 -97 -49 -109 -139 -18 -139 28 0 122 62 155 101 24
28 75 59 98 59 6 0 46 28 89 62 58 46 76 66 74 82 -5 33 -32 30 -110 -15 -40
-23 -86 -45 -102 -50 l-28 -8 6 62 c10 107 18 152 27 162 5 5 9 18 9 30 0 11
7 29 15 39 20 27 19 43 -5 51 -16 5 -20 15 -20 54 0 33 6 56 20 74 11 14 20
30 20 35 0 20 -68 28 -105 12z"/>
</g>
</svg>
