<?xml version="1.0" standalone="no"?>
<!DOCTYPE svg PUBLIC "-//W3C//DTD SVG 20010904//EN"
 "http://www.w3.org/TR/2001/REC-SVG-20010904/DTD/svg10.dtd">
<svg version="1.0" xmlns="http://www.w3.org/2000/svg"
 width="206.000000pt" height="211.000000pt" viewBox="0 0 206.000000 211.000000"
 preserveAspectRatio="xMidYMid meet">
<metadata>
Created by potrace 1.16, written by Peter Selinger 2001-2019
</metadata>
<g transform="translate(0.000000,211.000000) scale(0.100000,-0.100000)"
fill="#000000" stroke="none">
<path d="M1286 2068 c-36 -62 -51 -101 -85 -213 -32 -103 -37 -135 -23 -135
18 0 57 53 82 110 41 94 64 130 102 170 53 53 81 94 71 103 -3 4 -32 7 -64 7
-58 0 -58 0 -83 -42z"/>
<path d="M1620 2004 c-147 -123 -179 -145 -189 -127 -8 15 -11 15 -32 1 -24
-15 -109 -96 -109 -103 0 -25 -215 -221 -280 -255 -44 -23 -91 -74 -88 -95 2
-11 16 -26 32 -34 25 -12 33 -11 71 8 23 11 45 21 49 21 12 0 -2 -38 -61 -165
-127 -278 -160 -334 -243 -424 -53 -57 -77 -87 -94 -118 -9 -15 -25 -39 -36
-53 l-20 -25 6 185 c4 102 7 242 8 311 l1 126 -26 12 c-21 9 -34 8 -64 -5
l-38 -15 9 -77 c17 -151 4 -563 -27 -855 -10 -96 -9 -110 6 -133 13 -20 23
-24 47 -22 28 3 41 17 110 118 43 63 86 128 96 144 9 16 33 54 54 85 20 31 44
76 54 101 15 37 53 84 61 76 1 -1 -9 -42 -23 -91 -14 -50 -30 -112 -35 -140
-6 -27 -22 -88 -36 -134 -20 -61 -24 -87 -16 -100 13 -20 66 -26 81 -8 14 16
82 218 82 241 0 14 18 76 46 155 3 10 14 5 38 -20 18 -19 54 -49 80 -67 49
-35 53 -54 19 -93 -7 -9 -27 -52 -44 -95 -17 -43 -49 -116 -71 -163 l-42 -84
-22 27 c-13 14 -26 26 -29 26 -3 0 -5 -31 -5 -70 l0 -70 53 0 c50 0 54 2 93
48 22 26 46 62 52 80 6 18 20 45 31 61 11 15 23 40 27 57 10 43 60 150 73 158
10 7 105 -54 113 -72 2 -4 28 -24 59 -44 30 -20 61 -44 68 -52 16 -20 128 -96
140 -96 4 0 20 -9 34 -20 49 -38 223 -64 246 -36 16 19 7 46 -15 46 -9 0 -30
6 -47 14 -18 8 -52 21 -77 31 -25 9 -53 24 -63 32 -9 9 -25 21 -35 27 -63 38
-134 89 -139 102 -3 7 -35 35 -72 61 -67 48 -90 69 -128 116 -21 27 -21 28 -3
65 10 20 35 75 55 122 20 47 46 99 58 115 13 17 35 56 51 87 15 31 39 64 52
73 18 11 23 22 19 35 -4 12 4 39 18 67 14 27 28 55 31 63 3 8 10 22 15 30 6 8
19 42 30 75 10 33 31 92 45 130 30 84 34 155 9 176 -37 30 -70 41 -104 34 -42
-10 -99 -36 -99 -47 0 -4 -13 -14 -29 -22 -16 -9 -54 -41 -86 -73 -53 -55 -56
-56 -50 -28 4 17 12 37 18 45 7 8 21 31 32 50 10 19 27 44 37 55 12 12 18 31
16 50 -3 28 -5 30 -43 27 -21 -2 -48 -10 -59 -18 -47 -33 -100 -143 -170 -358
-21 -63 -47 -122 -73 -165 -4 -7 -53 10 -53 19 0 5 11 33 24 62 13 29 39 89
57 133 18 44 66 136 107 205 70 119 103 158 207 245 20 17 50 45 68 64 18 19
41 41 52 50 59 48 135 137 135 158 0 36 -28 27 -100 -33z m33 -532 c-3 -15
-13 -43 -23 -62 -10 -19 -33 -71 -50 -115 -17 -44 -48 -115 -67 -157 -40 -87
-61 -98 -98 -53 -16 20 -30 25 -72 27 -31 0 -53 6 -53 12 0 6 16 34 34 61 19
28 47 71 61 98 14 26 29 47 33 47 5 0 27 23 50 51 53 65 160 143 177 129 7 -6
10 -22 8 -38z m-398 -441 c7 -22 25 -31 79 -37 21 -3 49 -12 62 -21 l24 -16
-31 -56 c-44 -78 -43 -75 -95 -183 -25 -54 -52 -98 -58 -98 -7 0 -22 9 -34 20
-18 17 -20 24 -10 40 10 15 10 22 1 31 -9 9 -23 8 -60 -5 -86 -31 -93 -31 -93
-5 0 48 20 91 64 140 25 28 64 86 88 130 23 43 45 79 49 79 4 0 10 -9 14 -19z
m-295 -171 c-6 -12 -14 -19 -17 -17 -2 3 1 15 7 27 6 12 14 19 17 17 2 -3 -1
-15 -7 -27z m-49 -63 c-10 -9 -11 -8 -5 6 3 10 9 15 12 12 3 -3 0 -11 -7 -18z"/>
<path d="M663 1693 c-25 -17 -30 -54 -13 -99 6 -15 11 -71 11 -125 0 -54 4
-101 9 -104 13 -8 69 65 80 105 6 19 10 50 10 68 0 18 10 50 22 72 18 31 21
44 13 67 -9 25 -15 28 -60 30 -32 1 -58 -4 -72 -14z"/>
</g>
</svg>
