<?xml version="1.0" standalone="no"?>
<!DOCTYPE svg PUBLIC "-//W3C//DTD SVG 20010904//EN"
 "http://www.w3.org/TR/2001/REC-SVG-20010904/DTD/svg10.dtd">
<svg version="1.0" xmlns="http://www.w3.org/2000/svg"
 width="208.000000pt" height="210.000000pt" viewBox="0 0 208.000000 210.000000"
 preserveAspectRatio="xMidYMid meet">
<metadata>
Created by potrace 1.16, written by Peter Selinger 2001-2019
</metadata>
<g transform="translate(0.000000,210.000000) scale(0.100000,-0.100000)"
fill="#000000" stroke="none">
<path d="M1292 1900 c-12 -5 -25 -18 -28 -27 -3 -10 -16 -41 -30 -69 -13 -28
-24 -55 -24 -60 0 -16 -35 -80 -66 -121 -16 -21 -43 -58 -59 -83 -16 -25 -34
-49 -40 -55 -5 -5 -15 -22 -22 -36 -19 -43 19 -107 75 -123 12 -4 22 -12 22
-17 0 -16 80 -46 130 -50 25 -2 73 -3 108 -2 34 0 62 -1 62 -3 0 -10 -36 -44
-46 -44 -7 0 -25 -11 -40 -24 -79 -67 -189 -157 -255 -206 -110 -83 -149 -126
-149 -161 0 -22 6 -32 26 -39 44 -17 60 -11 108 36 25 26 48 45 49 43 2 -2 2
-39 -1 -82 -4 -73 -6 -79 -31 -90 -41 -17 -61 -38 -61 -63 0 -26 46 -74 71
-74 18 0 26 -33 38 -152 7 -74 14 -87 39 -72 18 12 28 71 33 189 1 33 7 74 12
90 11 35 55 85 74 85 23 0 155 137 151 157 -5 27 -42 27 -74 0 -41 -35 -135
-89 -142 -82 -9 9 19 78 45 109 33 39 27 60 -20 66 -33 4 -36 7 -25 21 23 27
151 134 203 169 28 19 60 43 72 54 13 11 26 16 30 13 3 -4 1 -60 -6 -125 -7
-64 -17 -153 -22 -197 -4 -44 -6 -168 -3 -276 l5 -195 -28 -14 c-64 -29 -151
-61 -212 -76 -37 -9 -75 -23 -86 -30 -11 -7 -51 -21 -90 -30 -109 -27 -153
-75 -107 -117 31 -28 114 -18 171 20 14 9 76 34 138 55 61 21 128 49 149 63
45 31 52 31 56 3 6 -41 33 -32 62 22 15 27 32 50 37 50 5 0 15 11 21 25 9 20
8 28 -4 42 -13 16 -14 55 -7 283 5 167 14 291 23 335 25 117 50 197 79 256 33
68 34 89 4 117 -29 27 -51 28 -78 1 -11 -11 -40 -31 -65 -44 l-44 -24 -48 21
c-53 23 -102 64 -102 87 0 8 32 61 70 118 39 57 70 106 70 110 0 3 12 22 28
42 49 65 54 79 35 112 -10 16 -25 31 -34 34 -24 8 -65 -13 -77 -39 -5 -11 -20
-46 -33 -76 -13 -30 -33 -66 -45 -80 -12 -14 -49 -67 -84 -119 -64 -95 -76
-135 -49 -167 16 -19 6 -28 -22 -19 -22 7 -79 60 -79 73 0 4 11 24 25 44 14
20 25 40 25 44 0 3 17 27 38 53 21 25 60 89 86 141 26 52 53 103 59 112 9 14
7 23 -9 45 -23 31 -47 37 -82 23z"/>
<path d="M947 1705 c-9 -8 -18 -29 -22 -47 -23 -117 -33 -147 -67 -202 -21
-33 -49 -84 -62 -112 -13 -28 -29 -55 -35 -58 -20 -13 -12 -40 22 -74 79 -82
147 -112 217 -97 44 10 40 40 -8 64 -22 11 -53 36 -71 57 -37 41 -36 61 4 122
13 20 36 69 50 107 15 39 38 98 52 132 28 69 22 96 -23 113 -34 13 -40 13 -57
-5z"/>
<path d="M634 1562 c-16 -8 -30 -16 -32 -17 -2 -2 -5 -49 -8 -106 -3 -57 -7
-112 -10 -121 -3 -10 0 -27 6 -39 l12 -21 25 24 c14 12 29 31 35 42 19 35 59
188 56 214 -4 34 -43 45 -84 24z"/>
<path d="M464 1039 c-17 -5 -39 -18 -49 -29 -18 -20 -18 -24 -2 -128 17 -104
31 -420 29 -627 -1 -99 -1 -100 29 -127 35 -31 66 -27 81 11 23 61 73 157 113
218 23 35 58 100 76 144 19 43 38 79 43 79 5 0 6 -74 2 -178 -7 -189 -1 -232
32 -232 37 0 50 31 62 145 6 61 16 137 22 170 6 33 12 104 15 157 4 89 3 98
-17 118 -17 17 -29 21 -53 16 -46 -9 -68 -34 -65 -74 2 -24 -4 -39 -18 -50
-11 -10 -33 -37 -49 -62 -17 -25 -33 -47 -38 -48 -4 -2 -14 -17 -22 -33 -20
-38 -96 -139 -105 -139 -9 0 -26 414 -23 568 2 123 4 121 -63 101z"/>
</g>
</svg>
