<?xml version="1.0" standalone="no"?>
<!DOCTYPE svg PUBLIC "-//W3C//DTD SVG 20010904//EN"
 "http://www.w3.org/TR/2001/REC-SVG-20010904/DTD/svg10.dtd">
<svg version="1.0" xmlns="http://www.w3.org/2000/svg"
 width="209.000000pt" height="208.000000pt" viewBox="0 0 209.000000 208.000000"
 preserveAspectRatio="xMidYMid meet">
<metadata>
Created by potrace 1.16, written by Peter Selinger 2001-2019
</metadata>
<g transform="translate(0.000000,208.000000) scale(0.100000,-0.100000)"
fill="#000000" stroke="none">
<path d="M1520 2046 c-30 -18 -66 -35 -80 -39 -31 -8 -240 -144 -240 -156 0
-5 -21 -19 -47 -31 -27 -12 -57 -26 -68 -31 -12 -6 -27 -11 -35 -13 -29 -4
-90 -28 -91 -34 -1 -4 -2 -77 -4 -162 -1 -90 -7 -171 -14 -192 -14 -43 -6 -81
16 -76 30 6 88 137 103 231 16 105 30 127 110 167 32 16 60 35 63 43 13 36
281 187 299 169 4 -4 3 -46 -2 -92 -8 -82 -45 -195 -112 -343 -20 -44 -24 -47
-51 -41 -47 10 -124 6 -146 -8 -11 -7 -23 -9 -27 -6 -12 13 50 137 93 185 24
26 43 50 43 54 0 4 -20 11 -44 14 -79 12 -102 -8 -168 -143 -31 -64 -66 -146
-78 -182 -23 -69 -46 -125 -61 -150 -5 -8 -29 -53 -54 -100 -25 -47 -55 -97
-67 -112 -28 -36 -16 -47 25 -23 50 28 66 45 114 120 25 39 56 81 68 95 13 14
38 56 55 94 23 53 33 67 42 58 16 -16 58 -15 101 3 20 8 47 14 62 13 22 -2 25
-7 25 -40 0 -51 14 -55 42 -11 12 20 35 55 50 77 15 23 34 56 42 73 8 18 26
48 39 65 59 81 107 224 107 318 0 27 4 59 9 72 5 13 6 56 3 96 l-5 72 -31 0
c-17 -1 -56 -16 -86 -34z"/>
<path d="M638 1603 c-45 -3 -61 -9 -73 -26 -17 -24 -20 -63 -6 -71 5 -3 12
-34 15 -68 5 -48 2 -82 -14 -142 -13 -53 -17 -83 -10 -90 13 -13 44 17 70 68
12 22 31 54 43 69 16 21 22 45 25 97 3 56 8 73 28 91 27 26 32 64 8 73 -9 3
-19 5 -22 4 -4 -1 -33 -3 -64 -5z"/>
<path d="M1245 1294 c-21 -16 -26 -89 -12 -182 8 -53 7 -54 -28 -87 -19 -19
-53 -46 -75 -62 -21 -15 -77 -56 -124 -91 -47 -34 -100 -68 -118 -74 -18 -6
-44 -19 -57 -30 -13 -10 -28 -18 -34 -18 -5 0 -25 -12 -43 -28 -19 -15 -50
-40 -69 -55 -48 -40 -48 -77 1 -106 l36 -21 31 21 c18 12 46 36 63 53 16 17
52 45 78 61 72 45 149 93 170 107 17 11 45 34 133 108 25 22 33 17 33 -22 0
-17 -5 -28 -14 -28 -8 0 -16 -3 -18 -7 -1 -5 -27 -26 -55 -48 -29 -21 -53 -42
-53 -46 0 -4 -18 -29 -40 -55 -22 -27 -40 -53 -40 -59 0 -15 -72 -154 -103
-199 -15 -21 -27 -43 -27 -49 0 -6 -7 -18 -16 -28 -21 -23 -11 -49 19 -49 26
0 46 14 70 50 9 14 30 43 47 65 16 22 38 59 49 81 11 23 36 63 56 90 21 27 54
82 74 123 31 65 36 72 39 48 2 -15 -1 -59 -7 -97 -6 -38 -11 -99 -11 -137 0
-77 -22 -182 -47 -224 -14 -23 -15 -33 -5 -53 17 -37 66 -36 85 1 40 80 92
385 106 621 l8 143 34 35 c19 20 54 46 79 58 48 24 149 116 168 153 10 17 9
25 -4 37 -8 9 -18 16 -22 16 -4 0 -41 -26 -82 -58 -41 -32 -96 -70 -123 -85
-56 -33 -63 -26 -54 52 5 41 3 49 -16 62 -36 23 -62 27 -82 13z"/>
<path d="M531 993 c-24 -21 -31 -89 -37 -336 -2 -82 -6 -152 -9 -157 -10 -16
9 -104 27 -122 21 -21 66 -24 74 -4 3 7 6 24 8 38 1 13 5 28 9 34 3 6 3 44 0
85 -9 99 -4 268 8 290 8 15 15 134 10 177 -2 18 -66 15 -90 -5z"/>
<path d="M1499 662 c-33 -4 -54 -44 -39 -72 22 -41 91 -34 103 9 7 29 -31 67
-64 63z"/>
<path d="M685 421 c-27 -22 -90 -78 -140 -125 -49 -47 -94 -86 -101 -86 -13 0
-39 -28 -47 -53 -9 -23 34 -67 64 -67 12 0 31 7 41 17 10 9 28 21 40 27 13 6
24 20 27 31 2 10 14 27 27 38 13 10 24 27 24 38 0 10 5 19 10 19 6 0 10 8 10
19 0 10 11 26 25 35 14 9 37 36 53 59 15 23 33 48 40 55 13 15 8 32 -11 31 -7
0 -34 -17 -62 -38z"/>
</g>
</svg>
