<?xml version="1.0" standalone="no"?>
<!DOCTYPE svg PUBLIC "-//W3C//DTD SVG 20010904//EN"
 "http://www.w3.org/TR/2001/REC-SVG-20010904/DTD/svg10.dtd">
<svg version="1.0" xmlns="http://www.w3.org/2000/svg"
 width="206.000000pt" height="209.000000pt" viewBox="0 0 206.000000 209.000000"
 preserveAspectRatio="xMidYMid meet">
<metadata>
Created by potrace 1.16, written by Peter Selinger 2001-2019
</metadata>
<g transform="translate(0.000000,209.000000) scale(0.100000,-0.100000)"
fill="#000000" stroke="none">
<path d="M1565 2052 c-34 -20 -88 -59 -121 -87 -78 -63 -168 -133 -213 -164
-132 -91 -189 -159 -171 -206 11 -29 76 -34 85 -6 3 11 15 23 25 26 11 3 27
16 37 29 10 12 56 53 103 91 47 37 93 76 103 86 10 11 22 19 27 19 4 0 34 23
65 51 30 29 58 49 61 46 10 -10 -47 -247 -66 -272 -4 -5 -10 -26 -13 -45 -4
-19 -19 -77 -34 -129 -27 -89 -30 -95 -65 -111 -40 -18 -148 -100 -148 -112 0
-7 72 -13 113 -9 36 4 15 -19 -30 -32 l-48 -14 -6 -84 c-4 -46 -4 -111 -1
-145 5 -69 8 -65 -88 -127 -36 -23 -96 -61 -132 -84 -36 -24 -72 -43 -80 -43
-13 0 -78 -46 -155 -109 -38 -31 -63 -40 -63 -21 0 24 -29 6 -58 -36 -21 -29
-39 -44 -50 -42 -15 3 -18 22 -24 143 -3 77 -11 163 -18 190 -6 28 -13 84 -16
125 -7 115 -9 120 -47 120 -52 0 -77 -24 -77 -73 0 -46 23 -169 41 -214 6 -15
15 -129 21 -253 l11 -225 -31 -94 c-34 -102 -31 -126 13 -137 55 -14 65 1 126
191 21 66 56 110 121 152 24 15 45 31 48 34 3 3 14 9 25 13 11 3 43 26 70 51
28 25 67 55 88 67 20 12 37 25 37 29 0 4 33 25 73 47 40 22 79 47 86 56 11 13
66 46 78 46 1 0 3 -27 3 -60 0 -45 -3 -58 -13 -54 -16 6 -100 -81 -143 -146
-16 -25 -39 -57 -52 -71 -24 -28 -42 -57 -91 -149 -16 -30 -43 -68 -60 -83
-17 -16 -31 -33 -31 -39 0 -6 -19 -31 -42 -56 -39 -42 -40 -46 -23 -58 11 -8
25 -14 32 -14 30 0 173 154 214 229 22 41 51 87 64 103 14 16 25 33 25 38 0 5
24 45 54 90 30 45 52 88 49 96 -3 8 1 14 7 14 16 0 8 -148 -10 -195 -13 -33
-16 -61 -28 -222 -6 -83 -12 -117 -25 -131 -25 -27 -21 -51 8 -58 33 -8 54 11
89 77 20 39 26 65 26 114 0 35 4 67 10 70 11 7 88 -13 107 -28 7 -5 17 -6 23
-2 18 11 99 19 175 17 97 -3 108 1 129 49 26 58 9 90 -52 103 -37 8 -46 6 -65
-12 -12 -11 -40 -25 -63 -31 -53 -14 -159 -5 -196 17 -27 15 -29 21 -24 57 3
22 10 126 16 230 6 105 13 195 15 201 2 6 29 28 62 49 32 21 61 44 66 51 4 7
32 27 62 44 30 17 58 37 62 44 5 8 25 25 46 39 46 31 77 69 77 92 0 31 -52 10
-177 -72 -65 -43 -129 -83 -143 -90 -14 -7 -33 -18 -42 -25 -25 -18 -33 -3
-31 64 1 47 7 68 28 98 15 22 24 44 20 50 -4 7 1 24 12 38 28 39 73 121 73
134 0 6 13 39 29 72 36 75 92 243 120 357 11 47 32 111 45 142 14 31 24 70 23
86 -2 30 -3 31 -52 31 -40 -1 -62 -8 -110 -38z"/>
<path d="M675 1716 c-13 -20 -16 -37 -11 -71 19 -127 -1 -340 -36 -382 -8 -10
-8 -17 0 -25 16 -16 73 46 91 98 7 21 19 46 26 54 11 13 17 41 31 150 9 67 18
96 34 112 37 35 5 72 -73 83 -41 6 -47 5 -62 -19z"/>
<path d="M1213 1582 c-23 -9 -44 -20 -48 -24 -6 -6 -78 -203 -112 -308 -19
-60 -88 -198 -114 -232 -24 -29 -20 -58 9 -58 17 0 122 117 122 136 0 5 16 32
35 60 34 50 90 170 122 264 8 25 28 61 43 80 72 93 50 125 -57 82z"/>
<path d="M982 1495 c-23 -7 -49 -18 -56 -24 -17 -14 -26 -124 -17 -231 5 -70
9 -85 23 -88 11 -2 21 5 27 20 12 33 51 200 51 219 0 9 16 33 37 52 31 31 34
38 23 51 -15 19 -31 19 -88 1z"/>
</g>
</svg>
