<?xml version="1.0" standalone="no"?>
<!DOCTYPE svg PUBLIC "-//W3C//DTD SVG 20010904//EN"
 "http://www.w3.org/TR/2001/REC-SVG-20010904/DTD/svg10.dtd">
<svg version="1.0" xmlns="http://www.w3.org/2000/svg"
 width="208.000000pt" height="209.000000pt" viewBox="0 0 208.000000 209.000000"
 preserveAspectRatio="xMidYMid meet">
<metadata>
Created by potrace 1.16, written by Peter Selinger 2001-2019
</metadata>
<g transform="translate(0.000000,209.000000) scale(0.100000,-0.100000)"
fill="#000000" stroke="none">
<path d="M919 2072 c-27 -16 -86 -128 -109 -207 -7 -22 -25 -71 -40 -110 -16
-38 -40 -104 -55 -146 -15 -42 -37 -92 -48 -110 -80 -121 -159 -277 -155 -304
2 -15 9 -19 31 -17 37 4 156 85 180 122 28 44 56 40 59 -7 4 -77 0 -91 -43
-146 -24 -31 -66 -85 -94 -122 -27 -36 -69 -84 -92 -105 -51 -47 -58 -85 -17
-100 37 -14 73 -2 120 39 22 20 53 45 69 56 16 11 38 30 49 43 11 12 25 22 32
22 18 0 23 -85 12 -205 l-11 -110 -56 -74 c-72 -95 -71 -94 -104 -109 -36 -16
-30 -36 11 -40 38 -4 39 -10 9 -82 -40 -96 -173 -270 -207 -270 -12 0 -13 -20
-1 -39 17 -27 69 -2 144 72 86 86 92 94 159 227 6 14 26 48 43 75 61 99 103
181 109 215 9 44 33 104 62 151 12 19 34 66 49 105 16 38 34 78 41 89 16 26
51 155 59 221 6 40 4 54 -10 67 -30 31 -69 21 -132 -33 l-58 -50 -7 26 c-7 28
12 90 42 134 10 14 20 40 24 58 3 17 9 46 12 62 4 20 1 39 -11 56 -22 34 -55
28 -125 -21 -27 -19 -52 -35 -56 -35 -3 0 -37 -28 -75 -62 -70 -62 -105 -76
-50 -19 17 17 36 41 42 53 7 13 27 41 46 64 18 23 33 46 33 52 0 20 98 254
117 281 34 45 83 157 83 188 0 29 -26 64 -46 62 -5 0 -21 -8 -35 -17z m0 -638
c-10 -27 -12 -27 -19 -9 -13 32 -11 43 8 47 23 5 25 -3 11 -38z m91 -299 c0
-9 -9 -33 -20 -55 -11 -22 -20 -44 -20 -49 0 -6 -9 -25 -20 -43 l-21 -33 5 68
c3 58 8 73 32 98 31 32 44 36 44 14z"/>
<path d="M1625 1782 c-175 -115 -203 -132 -294 -179 -57 -30 -131 -97 -131
-119 0 -21 42 -54 69 -54 14 0 37 11 51 25 58 57 104 95 115 95 12 0 15 2 126
88 41 33 85 65 97 71 32 17 57 69 41 87 -16 19 -27 17 -74 -14z"/>
<path d="M225 1615 c-29 -28 -31 -47 -10 -106 28 -79 44 -167 47 -254 2 -62 6
-85 15 -85 8 0 16 8 19 18 3 9 15 38 25 64 16 39 19 71 18 170 0 68 2 135 6
149 5 21 1 31 -21 48 -35 28 -69 27 -99 -4z"/>
<path d="M1612 1594 c-37 -26 -52 -68 -58 -166 -5 -85 -14 -118 -34 -118 -16
0 -207 -134 -247 -174 -59 -57 -55 -88 13 -102 24 -5 38 2 86 43 32 26 81 67
110 90 50 39 53 41 61 21 4 -11 2 -61 -4 -110 -10 -76 -16 -94 -38 -114 -14
-13 -35 -27 -46 -30 -22 -8 -116 -67 -158 -101 -16 -13 -35 -23 -42 -23 -24 0
-99 -57 -123 -94 -30 -45 -26 -66 19 -90 l37 -20 33 27 c19 15 43 35 54 46 11
10 54 43 95 73 66 49 85 60 125 70 6 2 8 -60 5 -172 -10 -378 -4 -563 21 -615
18 -38 54 -45 65 -13 4 13 8 131 9 263 1 132 6 316 13 408 9 146 14 175 37
222 14 30 32 55 40 55 8 0 32 16 54 35 21 19 43 35 48 35 13 0 41 62 36 78 -6
17 -58 15 -73 -3 -7 -8 -18 -15 -24 -15 -6 0 -22 -9 -36 -20 -14 -11 -29 -20
-34 -20 -12 0 2 144 20 209 9 33 22 55 32 58 9 2 25 15 34 28 14 19 16 29 8
50 -9 23 -14 25 -45 19 -30 -5 -35 -4 -35 13 0 31 22 87 37 96 22 13 15 36
-19 57 -40 24 -47 24 -76 4z"/>
<path d="M211 900 c-62 -31 -79 -60 -81 -145 0 -27 -7 -79 -15 -115 -12 -59
-12 -68 4 -95 33 -58 85 -37 163 68 56 75 49 130 -12 87 -26 -19 -31 -19 -36
-6 -4 9 -2 22 4 29 5 6 13 32 17 57 4 24 14 54 22 67 16 23 14 75 -2 78 -5 1
-34 -10 -64 -25z"/>
</g>
</svg>
