<?xml version="1.0" standalone="no"?>
<!DOCTYPE svg PUBLIC "-//W3C//DTD SVG 20010904//EN"
 "http://www.w3.org/TR/2001/REC-SVG-20010904/DTD/svg10.dtd">
<svg version="1.0" xmlns="http://www.w3.org/2000/svg"
 width="207.000000pt" height="209.000000pt" viewBox="0 0 207.000000 209.000000"
 preserveAspectRatio="xMidYMid meet">
<metadata>
Created by potrace 1.16, written by Peter Selinger 2001-2019
</metadata>
<g transform="translate(0.000000,209.000000) scale(0.100000,-0.100000)"
fill="#000000" stroke="none">
<path d="M1278 1978 c-91 -90 -199 -168 -234 -168 -6 0 -19 -9 -29 -20 -10
-11 -21 -20 -25 -20 -4 0 -10 27 -12 61 -5 64 -18 83 -53 73 -11 -3 -29 -14
-39 -25 -17 -16 -18 -23 -8 -56 28 -96 27 -110 -18 -153 -23 -22 -45 -40 -49
-40 -5 0 -29 -20 -55 -45 -54 -53 -61 -90 -20 -105 35 -14 71 -12 81 3 4 7 19
20 33 29 14 9 42 33 64 53 21 20 39 35 40 33 28 -56 64 -228 72 -343 l6 -81
-43 -38 c-61 -54 -118 -124 -125 -153 -5 -17 0 -31 17 -49 12 -13 26 -24 31
-24 4 0 63 54 129 120 168 167 219 190 163 72 -15 -31 -39 -93 -54 -137 -25
-73 -30 -80 -59 -86 -42 -9 -81 -36 -81 -57 0 -19 -21 -80 -33 -99 -4 -7 -17
-41 -28 -75 -12 -35 -31 -85 -44 -113 -12 -27 -26 -61 -30 -75 -4 -14 -23 -44
-42 -67 -20 -25 -31 -48 -27 -55 16 -28 48 -58 63 -58 16 0 151 52 174 67 7 4
14 8 17 9 26 5 67 18 75 24 6 5 37 23 70 41 33 18 71 40 84 51 13 10 29 18 36
18 6 0 40 23 75 50 81 66 91 64 71 -15 -31 -121 -55 -222 -76 -324 -15 -73
-31 -121 -42 -131 -10 -9 -46 -25 -81 -35 -35 -10 -65 -22 -68 -27 -3 -4 54
-8 125 -8 110 0 131 2 131 15 0 8 4 23 9 33 5 9 17 62 26 117 9 55 22 120 30
145 46 143 84 305 84 367 1 38 -2 43 -24 49 -35 9 -100 -18 -166 -66 -30 -22
-72 -48 -94 -58 -22 -11 -46 -27 -54 -36 -7 -9 -18 -16 -24 -16 -5 0 -24 -11
-41 -23 -17 -13 -53 -32 -81 -42 -27 -10 -54 -22 -60 -26 -17 -12 -85 -28 -89
-20 -2 3 4 24 14 46 11 22 19 46 20 54 0 8 9 33 19 55 11 23 35 76 55 118 26
58 40 77 57 80 23 3 54 51 109 168 17 36 35 72 40 80 6 8 15 25 20 38 6 13 21
38 35 56 14 18 25 38 25 43 0 6 29 52 65 102 87 120 88 161 5 161 -24 0 -30 5
-35 30 -4 17 -17 37 -29 45 -40 26 -49 61 -30 112 16 40 16 46 2 60 -15 14
-20 14 -62 -2 -40 -15 -47 -23 -57 -57 -8 -32 -13 -210 -7 -278 3 -38 -5 -51
-42 -75 -23 -14 -44 -23 -49 -21 -4 3 -11 45 -15 93 -3 48 -13 110 -21 137 -9
28 -18 80 -21 117 -6 59 -4 70 17 98 12 17 29 31 36 31 7 0 13 4 13 8 0 5 19
21 42 38 76 54 167 146 179 181 24 74 -18 84 -83 21z m66 -554 c9 -3 16 -12
16 -19 0 -16 -30 -29 -42 -17 -5 5 -6 16 -2 25 7 19 7 19 28 11z"/>
<path d="M394 1594 c-16 -24 -16 -29 4 -87 18 -53 39 -139 58 -234 7 -37 42
-29 59 12 23 54 20 198 -4 264 -23 60 -33 71 -73 71 -19 0 -33 -8 -44 -26z"/>
<path d="M852 1294 c-23 -22 -68 -73 -100 -115 -151 -199 -231 -285 -256 -276
-13 5 -16 24 -18 89 -1 46 -1 95 0 110 3 36 -11 42 -64 28 -52 -15 -76 -42
-64 -74 13 -33 42 -209 44 -268 2 -53 -8 -225 -18 -313 -4 -29 -19 -66 -41
-99 -37 -56 -43 -87 -22 -104 17 -14 87 -26 87 -15 0 5 22 43 50 84 27 40 50
79 50 85 0 6 15 31 33 55 18 24 37 51 40 59 4 8 21 33 38 55 16 22 40 56 53
75 13 19 31 41 40 49 9 7 16 19 16 27 0 7 6 19 13 26 45 46 74 118 48 118 -21
0 -143 -122 -260 -260 -16 -19 -33 -32 -36 -28 -4 4 -4 55 0 113 l7 106 34 14
c51 21 191 174 315 343 51 70 60 88 57 119 l-3 35 -43 -38z"/>
</g>
</svg>
