<?xml version="1.0" standalone="no"?>
<!DOCTYPE svg PUBLIC "-//W3C//DTD SVG 20010904//EN"
 "http://www.w3.org/TR/2001/REC-SVG-20010904/DTD/svg10.dtd">
<svg version="1.0" xmlns="http://www.w3.org/2000/svg"
 width="206.000000pt" height="212.000000pt" viewBox="0 0 206.000000 212.000000"
 preserveAspectRatio="xMidYMid meet">
<metadata>
Created by potrace 1.16, written by Peter Selinger 2001-2019
</metadata>
<g transform="translate(0.000000,212.000000) scale(0.100000,-0.100000)"
fill="#000000" stroke="none">
<path d="M1394 2026 c-27 -19 -65 -43 -84 -53 -19 -9 -58 -37 -87 -60 -29 -24
-63 -49 -77 -57 -14 -7 -46 -36 -71 -64 l-47 -52 -9 -188 c-8 -182 -12 -237
-24 -314 -6 -44 8 -57 29 -26 11 16 16 18 16 7 0 -9 -11 -26 -25 -39 -14 -13
-25 -27 -25 -32 0 -4 -16 -28 -35 -54 -29 -38 -35 -53 -34 -92 2 -72 12 -105
36 -117 21 -11 20 -11 -9 -28 -29 -17 -30 -19 -22 -65 12 -61 7 -338 -7 -422
-6 -36 -19 -93 -30 -128 -23 -76 -24 -130 -3 -153 15 -16 19 -17 44 -4 22 11
32 29 50 87 27 89 49 225 59 378 10 132 21 170 51 170 11 0 32 7 45 16 25 16
25 16 46 -30 l20 -47 -21 -57 c-12 -31 -33 -74 -47 -95 -22 -32 -24 -41 -14
-63 10 -22 16 -24 51 -21 27 3 51 13 70 32 l28 27 15 -23 c9 -13 24 -44 33
-69 18 -46 80 -140 92 -140 4 0 25 -16 46 -35 22 -19 50 -35 62 -35 53 0 58
50 28 285 -14 117 -24 250 -25 346 l-1 156 40 84 c22 46 43 95 47 108 4 13 20
44 35 68 16 25 27 50 24 57 -2 6 6 26 19 44 14 18 42 74 62 125 21 50 49 103
61 117 15 16 24 40 25 65 3 49 -5 65 -33 65 -24 0 -169 -71 -215 -106 -17 -13
-35 -24 -40 -24 -4 0 -28 -16 -52 -35 -24 -19 -46 -35 -48 -35 -3 0 -2 17 1
38 3 20 8 66 11 102 9 106 25 223 36 260 6 21 6 60 2 95 -10 75 -28 81 -99 31z
m-30 -275 c-8 -63 -13 -120 -10 -127 8 -21 -26 -208 -40 -223 -21 -23 -26 -7
-9 32 18 43 19 68 4 101 -17 37 -57 47 -121 30 -29 -7 -54 -14 -56 -14 -7 0
11 136 21 155 16 31 59 75 90 91 16 9 49 31 74 50 25 19 50 31 54 27 5 -5 1
-60 -7 -122z m267 -292 c-12 -22 -21 -48 -21 -59 0 -10 -4 -21 -9 -24 -5 -4
-12 -25 -16 -49 -11 -75 -39 -124 -40 -69 0 11 -10 18 -26 20 -27 3 -45 -14
-169 -164 -32 -40 -75 -81 -93 -93 -19 -12 -42 -32 -51 -46 -21 -33 -99 -84
-133 -89 -15 -2 -36 -7 -45 -11 -13 -5 -18 -2 -18 8 0 9 4 18 8 21 5 3 9 26
10 52 0 31 6 52 19 63 10 10 32 35 48 56 62 78 193 195 237 210 32 11 178 122
178 136 0 8 97 81 120 90 23 10 24 -8 1 -52z m-411 -17 c0 -10 -13 -32 -30
-50 -16 -18 -30 -37 -30 -41 0 -12 -78 -91 -89 -91 -13 0 -14 5 -2 28 22 45
41 94 41 110 0 11 17 27 43 40 51 26 67 27 67 4z m192 -593 c-1 -112 3 -214
13 -293 27 -210 28 -226 17 -226 -11 0 -72 107 -90 159 -10 28 -9 38 4 58 21
33 11 53 -25 53 l-29 0 0 73 c1 76 -22 151 -48 161 -8 3 -14 11 -14 18 0 14
152 168 166 168 5 0 8 -77 6 -171z"/>
<path d="M606 1602 c-14 -16 -15 -29 -7 -93 10 -81 53 -278 65 -297 23 -38 43
50 51 235 5 127 5 132 -17 152 -27 26 -69 27 -92 3z"/>
<path d="M691 1139 c-13 -5 -36 -18 -51 -29 -52 -37 -63 -171 -36 -430 7 -69
12 -171 11 -228 -2 -113 3 -122 60 -122 30 0 38 17 82 153 14 45 32 89 39 97
7 8 22 44 34 80 11 36 28 79 36 97 37 80 -2 101 -42 21 -27 -54 -94 -148 -105
-148 -19 0 -25 238 -9 352 5 37 17 83 26 102 14 29 15 38 4 51 -14 17 -16 17
-49 4z"/>
</g>
</svg>
