<?xml version="1.0" standalone="no"?>
<!DOCTYPE svg PUBLIC "-//W3C//DTD SVG 20010904//EN"
 "http://www.w3.org/TR/2001/REC-SVG-20010904/DTD/svg10.dtd">
<svg version="1.0" xmlns="http://www.w3.org/2000/svg"
 width="207.000000pt" height="211.000000pt" viewBox="0 0 207.000000 211.000000"
 preserveAspectRatio="xMidYMid meet">
<metadata>
Created by potrace 1.16, written by Peter Selinger 2001-2019
</metadata>
<g transform="translate(0.000000,211.000000) scale(0.100000,-0.100000)"
fill="#000000" stroke="none">
<path d="M1282 2095 c-13 -7 -31 -21 -41 -31 -38 -39 -151 -141 -220 -199 -39
-33 -74 -68 -77 -77 -3 -9 -14 -20 -25 -23 -24 -8 -52 -61 -46 -87 5 -17 2
-19 -17 -14 -13 3 -38 -2 -56 -10 l-32 -16 8 -157 c4 -86 8 -181 8 -211 1 -61
10 -82 30 -74 26 10 42 81 56 259 10 110 12 121 35 138 14 10 25 27 25 38 0
10 4 19 8 19 4 0 30 22 58 48 27 26 98 93 158 147 l109 100 -7 -240 c-4 -132
-8 -251 -10 -264 -3 -24 -57 -81 -77 -81 -8 0 -9 13 -4 38 8 44 7 180 -1 194
-13 21 -103 0 -165 -37 -74 -46 -85 -64 -59 -98 17 -22 24 -24 55 -17 20 4 42
13 49 19 27 22 28 -9 5 -107 -24 -100 -28 -107 -104 -169 -98 -79 -126 -94
-178 -98 -70 -5 -91 -30 -82 -98 4 -27 13 -60 21 -75 31 -61 25 -252 -12 -326
-28 -58 22 -65 57 -8 13 20 36 57 51 82 15 25 28 59 28 75 1 29 1 30 11 6 5
-13 9 -52 7 -85 -1 -34 1 -66 4 -72 7 -10 -17 -187 -28 -214 -4 -8 -10 -46
-14 -85 -3 -38 -15 -101 -26 -138 -19 -68 -15 -95 15 -105 22 -7 79 66 95 121
25 90 59 301 71 439 5 46 13 82 21 89 8 6 14 18 14 26 0 19 32 66 89 128 25
28 78 86 116 128 39 43 83 85 99 94 l29 15 -7 -93 c-5 -52 -9 -150 -11 -219
-2 -69 -7 -214 -13 -323 -5 -114 -5 -222 0 -254 9 -57 4 -81 -9 -47 -4 10 -15
28 -25 38 -10 11 -18 24 -18 28 0 5 -11 25 -24 46 -41 66 -41 89 4 157 22 33
40 65 40 72 0 20 -31 15 -74 -12 -58 -35 -66 -23 -59 80 5 66 3 89 -9 107 -22
33 -64 34 -105 3 -39 -30 -42 -48 -11 -69 22 -15 22 -18 10 -97 -6 -45 -21
-97 -32 -116 -11 -19 -20 -42 -20 -51 1 -47 66 -74 116 -47 35 18 54 19 54 3
0 -22 72 -201 99 -245 l26 -43 85 0 86 0 -8 73 c-4 39 -12 101 -17 137 -13 82
-14 234 -1 375 5 61 12 155 15 210 3 55 10 114 15 130 4 17 11 59 15 95 15
158 72 375 125 480 35 68 46 143 24 160 -11 10 -18 10 -32 -4 -10 -9 -22 -16
-27 -16 -4 0 -26 -15 -49 -33 -43 -35 -127 -87 -141 -87 -4 0 -5 44 -1 98 3
53 9 151 12 216 4 66 13 134 20 152 8 19 14 54 14 79 l0 45 -47 -1 c-27 -1
-58 -7 -71 -14z m133 -737 c-8 -56 -40 -109 -78 -129 -12 -6 -106 -96 -209
-200 -168 -169 -192 -189 -228 -195 -23 -4 -47 -15 -54 -26 -12 -17 -14 -11
-19 54 -4 69 -3 74 22 95 14 13 42 38 62 57 25 24 43 33 57 30 15 -5 44 18
126 98 134 130 151 145 195 168 20 10 54 37 76 59 21 23 43 41 48 41 5 0 6
-23 2 -52z"/>
<path d="M299 1351 c-32 -33 -36 -52 -15 -74 30 -29 56 -93 56 -134 0 -39 2
-43 25 -43 27 0 39 30 50 130 4 30 10 66 14 80 5 14 5 35 0 48 -7 18 -16 22
-54 22 -38 0 -52 -5 -76 -29z"/>
<path d="M555 760 c-33 -64 -65 -122 -75 -135 -5 -6 -22 -37 -39 -70 l-30 -60
-1 37 c0 20 -4 47 -9 60 -5 13 -14 42 -20 65 -14 52 -42 71 -77 52 -35 -18
-37 -41 -14 -116 16 -51 23 -105 27 -216 5 -135 8 -149 27 -162 34 -25 64 -19
83 18 26 48 53 124 73 202 10 39 23 82 28 96 6 15 8 29 5 32 -3 3 4 18 14 34
26 37 66 169 58 194 -10 30 -23 23 -50 -31z"/>
</g>
</svg>
