<?xml version="1.0" standalone="no"?>
<!DOCTYPE svg PUBLIC "-//W3C//DTD SVG 20010904//EN"
 "http://www.w3.org/TR/2001/REC-SVG-20010904/DTD/svg10.dtd">
<svg version="1.0" xmlns="http://www.w3.org/2000/svg"
 width="206.000000pt" height="213.000000pt" viewBox="0 0 206.000000 213.000000"
 preserveAspectRatio="xMidYMid meet">
<metadata>
Created by potrace 1.16, written by Peter Selinger 2001-2019
</metadata>
<g transform="translate(0.000000,213.000000) scale(0.100000,-0.100000)"
fill="#000000" stroke="none">
<path d="M1255 2044 c-16 -8 -39 -23 -50 -32 -11 -10 -36 -26 -55 -36 -138
-74 -192 -244 -78 -246 29 0 35 6 58 60 19 47 48 81 85 106 17 10 39 27 49 36
22 20 42 23 51 8 16 -26 -80 -241 -166 -370 -24 -36 -57 -88 -73 -116 -42 -70
-115 -173 -144 -204 l-24 -25 5 75 c2 41 11 91 19 110 26 59 37 118 24 134
-30 36 -101 16 -111 -31 -4 -15 -13 -46 -20 -68 -17 -49 -24 -101 -30 -230 -3
-55 -9 -134 -14 -176 -10 -73 -14 -94 -44 -209 -26 -102 -40 -165 -42 -190 -5
-59 -27 -154 -45 -195 -5 -11 -21 -63 -36 -115 -15 -52 -42 -125 -60 -161 -19
-37 -34 -73 -34 -80 0 -8 -9 -27 -20 -44 -26 -39 -25 -45 6 -45 25 0 84 45 84
64 0 5 11 24 25 42 14 18 25 36 25 39 0 4 8 19 19 33 18 26 44 93 61 157 5 17
20 62 33 100 14 39 28 85 32 103 4 19 11 30 15 25 10 -10 30 -164 23 -176 -3
-5 -6 -41 -8 -81 -1 -40 -8 -82 -14 -94 -15 -28 -14 -67 3 -81 18 -15 61 35
76 89 12 45 25 51 34 17 7 -31 54 -77 77 -77 43 0 109 112 109 187 0 10 7 31
15 47 8 15 15 38 15 50 0 14 16 32 53 56 66 44 89 70 75 87 -7 9 -23 11 -51 6
-37 -6 -40 -5 -32 13 5 10 14 57 21 104 7 47 19 105 27 130 9 25 21 67 29 94
11 43 30 66 163 198 82 81 152 148 156 148 3 0 2 -21 -2 -47 -5 -27 -13 -149
-18 -273 -10 -233 -17 -275 -58 -323 -30 -37 -30 -82 1 -102 20 -13 25 -29 35
-108 7 -50 21 -126 31 -167 10 -41 21 -96 25 -122 l6 -47 -28 14 c-15 8 -34
15 -42 15 -20 0 -111 70 -122 94 -5 12 -27 48 -49 81 -22 33 -48 77 -57 98
-10 20 -21 37 -25 37 -14 0 -14 -36 0 -70 8 -19 20 -48 27 -65 39 -94 60 -133
98 -177 56 -67 146 -111 239 -116 66 -4 67 -4 74 23 6 25 -8 115 -49 300 -26
119 -39 225 -32 250 8 29 25 239 31 395 3 74 12 176 21 225 24 143 29 192 25
230 -4 31 -7 35 -35 35 -25 0 -44 -14 -101 -73 -110 -113 -262 -247 -281 -247
-6 0 -15 15 -20 33 -9 30 -12 32 -50 29 -59 -5 -61 -10 -79 -175 -2 -15 -5
-29 -7 -31 -2 -1 -20 -13 -39 -26 -19 -13 -51 -38 -70 -56 -66 -62 -105 -91
-138 -102 -33 -11 -33 -11 -28 16 3 15 8 47 12 70 5 36 12 48 40 64 19 11 41
36 50 55 19 38 67 95 134 157 103 95 220 222 218 236 -5 24 -35 23 -70 -2 -18
-13 -45 -30 -60 -38 -16 -7 -28 -17 -28 -21 0 -4 -16 -16 -36 -28 -36 -22 -36
-17 1 34 11 17 31 50 44 75 12 25 30 50 38 57 16 13 28 31 64 98 11 22 31 58
44 80 50 84 58 101 76 164 23 81 25 178 3 209 -19 27 -83 30 -129 6z m-149
-1246 c-4 -23 -9 -67 -11 -97 -11 -122 -21 -151 -56 -151 -26 0 -34 -37 -14
-60 14 -16 16 -30 11 -72 -12 -91 -35 -158 -56 -158 -16 0 -55 173 -66 296 -7
71 -6 75 20 99 14 13 26 31 26 39 0 19 121 146 139 146 10 0 12 -10 7 -42z"/>
<path d="M428 1560 c-29 -18 -22 -59 16 -94 18 -18 38 -42 45 -54 28 -53 80 0
84 87 1 27 -1 53 -5 57 -12 12 -122 15 -140 4z"/>
<path d="M403 1163 c-35 -12 -43 -19 -43 -39 0 -14 5 -34 10 -44 22 -41 70
-358 70 -463 1 -40 5 -103 9 -141 8 -56 6 -78 -10 -125 -19 -58 -24 -118 -11
-137 15 -22 52 -23 77 -1 22 20 25 33 30 115 4 59 13 109 25 138 11 25 20 57
20 71 0 22 -3 25 -27 20 l-28 -6 0 117 c0 64 -4 144 -9 177 -16 120 -22 250
-13 278 18 54 -20 69 -100 40z"/>
</g>
</svg>
