<?xml version="1.0" standalone="no"?>
<!DOCTYPE svg PUBLIC "-//W3C//DTD SVG 20010904//EN"
 "http://www.w3.org/TR/2001/REC-SVG-20010904/DTD/svg10.dtd">
<svg version="1.0" xmlns="http://www.w3.org/2000/svg"
 width="209.000000pt" height="213.000000pt" viewBox="0 0 209.000000 213.000000"
 preserveAspectRatio="xMidYMid meet">
<metadata>
Created by potrace 1.16, written by Peter Selinger 2001-2019
</metadata>
<g transform="translate(0.000000,213.000000) scale(0.100000,-0.100000)"
fill="#000000" stroke="none">
<path d="M1214 2102 c-28 -15 -78 -48 -111 -74 -33 -25 -70 -51 -82 -57 -28
-16 -81 -122 -81 -164 0 -40 15 -57 50 -57 33 0 60 28 60 61 0 18 19 43 68 88
75 71 232 177 232 158 0 -18 -68 -179 -78 -186 -5 -3 -40 -64 -77 -136 -38
-71 -87 -159 -110 -195 -23 -36 -45 -76 -48 -90 -7 -27 -78 -110 -95 -110 -6
0 -7 13 -1 38 5 20 9 62 9 92 1 30 7 73 15 95 20 55 19 68 -8 93 -30 28 -49
28 -81 0 -23 -21 -26 -33 -36 -153 -5 -71 -15 -150 -21 -175 -6 -25 -23 -106
-39 -180 -15 -74 -37 -157 -49 -183 -12 -27 -21 -61 -21 -76 0 -29 -27 -129
-39 -146 -4 -5 -20 -44 -35 -85 -15 -41 -40 -102 -56 -135 -15 -33 -35 -83
-44 -112 -9 -29 -26 -68 -39 -87 -12 -19 -34 -56 -50 -83 -15 -26 -37 -63 -48
-81 -24 -38 -19 -62 13 -62 29 1 46 14 83 65 16 22 34 45 39 50 35 33 94 127
104 165 6 25 25 72 43 105 l33 59 11 -50 c10 -46 9 -88 -8 -339 -2 -24 2 -30
18 -30 27 0 62 56 75 123 6 31 15 67 20 80 6 13 10 40 10 62 l0 38 40 -5 c55
-8 123 13 156 48 15 16 31 29 35 29 8 0 10 -78 2 -104 -5 -19 -6 -19 -24 3
-37 45 -53 -11 -22 -76 18 -38 51 -56 91 -48 40 7 53 27 57 89 2 32 6 60 8 63
6 5 64 -106 87 -167 17 -43 85 -141 139 -198 23 -24 41 -48 41 -53 0 -5 22 -9
49 -9 44 0 49 3 55 25 3 13 1 57 -5 97 -15 95 -6 425 15 583 9 66 23 176 32
245 18 145 32 207 68 307 31 87 32 99 7 113 -32 17 -60 12 -84 -16 -12 -14
-42 -38 -67 -52 -50 -29 -99 -65 -180 -133 -30 -26 -65 -49 -77 -53 -21 -7
-23 -4 -23 29 0 20 5 67 11 105 9 52 9 73 1 83 -9 11 1 26 49 72 42 41 59 64
57 79 -4 26 -43 34 -66 13 -60 -52 -200 -133 -211 -122 -2 3 14 31 37 63 70
95 152 219 168 254 8 18 26 51 39 73 38 62 85 157 85 171 0 6 11 36 24 65 12
30 26 71 29 92 l6 37 -102 -1 c-90 -1 -108 -4 -153 -27z m-90 -969 l-3 -128
-33 -22 c-18 -12 -38 -22 -44 -22 -5 -1 -23 -14 -39 -31 -15 -16 -42 -36 -59
-45 -62 -33 -78 -43 -107 -71 -16 -15 -31 -25 -34 -22 -9 9 26 139 55 203 29
62 61 102 119 145 18 14 43 35 54 47 12 12 38 33 57 47 19 13 35 25 36 25 1 1
0 -56 -2 -126z m391 -15 c-4 -35 -11 -72 -15 -83 -4 -11 -11 -46 -14 -78 -7
-51 -13 -63 -52 -101 -24 -24 -44 -51 -44 -60 0 -10 15 -23 38 -33 20 -8 38
-16 39 -17 2 -1 -2 -18 -7 -36 -15 -53 -30 -222 -31 -370 -1 -74 -4 -138 -6
-143 -10 -18 -44 19 -92 103 -52 89 -103 153 -129 161 -12 4 -12 41 -2 223 7
138 16 231 25 252 15 36 73 92 138 134 23 15 62 46 87 68 64 59 74 56 65 -20z
m-415 -372 c0 -118 -1 -126 -24 -153 l-25 -28 -16 22 c-21 30 -62 22 -133 -25
-63 -41 -76 -35 -85 40 -6 45 -6 47 23 53 15 3 36 18 45 33 19 31 73 82 86 82
5 0 31 23 59 50 28 28 55 50 60 50 6 0 10 -49 10 -124z"/>
<path d="M1355 750 c4 -6 11 -8 16 -5 14 9 11 15 -7 15 -8 0 -12 -5 -9 -10z"/>
<path d="M233 1480 c-32 -13 -32 -71 0 -102 33 -32 57 -74 57 -97 0 -22 38
-38 65 -27 13 5 14 22 9 108 -4 57 -10 107 -14 112 -12 13 -92 17 -117 6z"/>
<path d="M258 847 c-43 -35 -56 -108 -64 -366 -7 -225 -7 -228 15 -250 42 -42
85 -21 154 75 20 29 37 56 37 60 0 5 24 45 53 88 99 151 105 161 106 179 2 39
-41 15 -127 -72 -48 -49 -95 -101 -105 -115 -26 -38 -37 -32 -32 17 3 23 8 83
10 132 3 50 8 127 11 172 5 72 4 82 -13 91 -14 8 -25 5 -45 -11z"/>
</g>
</svg>
