<?xml version="1.0" standalone="no"?>
<!DOCTYPE svg PUBLIC "-//W3C//DTD SVG 20010904//EN"
 "http://www.w3.org/TR/2001/REC-SVG-20010904/DTD/svg10.dtd">
<svg version="1.0" xmlns="http://www.w3.org/2000/svg"
 width="208.000000pt" height="213.000000pt" viewBox="0 0 208.000000 213.000000"
 preserveAspectRatio="xMidYMid meet">
<metadata>
Created by potrace 1.16, written by Peter Selinger 2001-2019
</metadata>
<g transform="translate(0.000000,213.000000) scale(0.100000,-0.100000)"
fill="#000000" stroke="none">
<path d="M1436 1915 c-15 -8 -54 -36 -85 -62 -86 -74 -205 -150 -381 -247 -47
-25 -100 -58 -117 -73 l-33 -26 0 23 c0 37 22 104 42 126 27 30 22 48 -17 67
-45 21 -64 21 -91 -1 -25 -20 -30 -41 -48 -222 -12 -119 -26 -184 -55 -255 -5
-11 -16 -54 -25 -95 -9 -42 -26 -91 -38 -110 -12 -19 -39 -69 -60 -110 -34
-65 -38 -70 -35 -40 2 19 18 91 35 160 48 191 62 293 63 435 0 121 7 187 23
226 11 27 -20 49 -69 49 -64 0 -73 -23 -69 -170 6 -233 5 -260 -9 -278 -11
-14 -46 -12 -154 9 -40 8 -53 15 -53 28 0 34 -33 51 -102 53 -75 3 -118 -18
-118 -55 0 -32 35 -67 68 -67 15 0 47 -8 72 -17 31 -11 82 -16 162 -17 81 -1
118 -5 118 -12 0 -32 -33 -181 -46 -205 -8 -16 -14 -38 -14 -51 0 -35 -54
-231 -93 -340 -21 -59 -46 -111 -66 -133 -33 -39 -37 -68 -10 -73 24 -4 106
84 134 145 14 28 25 55 25 60 0 4 4 14 9 22 8 12 31 -5 108 -80 76 -73 111
-98 152 -113 50 -18 54 -18 69 -2 16 16 12 22 -60 89 -42 40 -84 86 -92 104
-9 18 -22 36 -30 40 -18 11 -46 67 -46 92 0 11 6 24 14 28 17 10 125 163 160
226 14 26 29 66 32 90 4 23 14 53 23 67 27 39 41 78 56 149 7 36 18 77 23 91
9 24 10 24 18 5 18 -46 64 -47 107 -1 18 18 48 44 67 57 19 12 55 39 80 59 45
37 157 96 165 88 2 -2 -2 -22 -10 -45 -21 -60 -51 -260 -66 -433 -5 -58 -11
-118 -13 -135 -3 -16 -10 -104 -16 -194 -10 -164 0 -342 30 -510 6 -36 6 -57
0 -61 -5 -3 -45 -2 -87 2 -136 15 -297 10 -386 -11 -45 -11 -104 -22 -130 -26
-26 -4 -58 -15 -70 -25 l-22 -18 27 -7 c15 -4 99 -2 188 5 122 8 184 8 258 0
53 -7 100 -14 103 -15 3 -2 37 -9 75 -15 38 -6 77 -18 86 -27 15 -13 22 -14
48 -3 28 12 31 17 29 49 -2 20 0 41 4 47 3 6 -2 51 -12 100 -29 140 -45 340
-38 461 19 307 32 446 68 705 14 99 91 275 148 340 43 48 52 82 25 92 -19 7
-14 8 -48 -9z"/>
</g>
</svg>
