<?xml version="1.0" standalone="no"?>
<!DOCTYPE svg PUBLIC "-//W3C//DTD SVG 20010904//EN"
 "http://www.w3.org/TR/2001/REC-SVG-20010904/DTD/svg10.dtd">
<svg version="1.0" xmlns="http://www.w3.org/2000/svg"
 width="206.000000pt" height="211.000000pt" viewBox="0 0 206.000000 211.000000"
 preserveAspectRatio="xMidYMid meet">
<metadata>
Created by potrace 1.16, written by Peter Selinger 2001-2019
</metadata>
<g transform="translate(0.000000,211.000000) scale(0.100000,-0.100000)"
fill="#000000" stroke="none">
<path d="M1260 1908 c-25 -11 -70 -32 -100 -46 -30 -14 -68 -30 -85 -37 -56
-23 -80 -33 -146 -64 -85 -40 -97 -40 -91 0 4 25 13 34 46 49 50 21 74 46 59
61 -13 13 -162 2 -195 -15 -21 -10 -23 -20 -28 -101 l-5 -90 -43 -23 c-49 -27
-87 -90 -78 -128 4 -13 17 -31 31 -40 14 -9 25 -26 25 -38 0 -39 -49 -217 -85
-307 -19 -48 -43 -120 -54 -159 -11 -38 -30 -84 -42 -101 -20 -29 -59 -125
-99 -249 -19 -57 -74 -186 -108 -255 -17 -33 -18 -42 -7 -53 18 -20 53 1 71
41 16 36 29 58 60 102 27 39 91 174 100 211 4 16 28 72 54 125 26 53 55 121
65 150 10 30 19 57 22 61 2 4 32 -12 68 -36 35 -24 77 -47 94 -51 17 -4 31
-13 31 -20 0 -8 -14 -74 -31 -147 -17 -73 -35 -153 -39 -178 -33 -169 -85
-321 -134 -385 -15 -20 -25 -43 -22 -51 5 -13 10 -13 37 3 42 25 62 49 99 118
17 33 37 65 44 70 12 10 45 121 72 241 7 33 23 94 34 135 12 41 25 90 29 109
4 19 13 51 19 70 16 49 39 130 46 161 7 31 86 154 124 190 15 14 38 39 52 55
l25 29 3 -30 c5 -35 -13 -151 -33 -215 -8 -25 -21 -72 -30 -105 -9 -33 -26
-82 -39 -110 -28 -60 -40 -110 -31 -126 8 -11 75 47 75 64 0 6 15 28 33 51 32
39 85 177 102 266 4 19 11 40 16 46 14 17 33 113 33 167 1 79 -52 102 -105 46
-24 -26 -34 -30 -58 -24 -18 4 -52 -1 -86 -11 -46 -15 -62 -27 -94 -68 -39
-50 -65 -107 -81 -176 -12 -54 -39 -110 -41 -85 -1 11 -1 23 0 28 2 16 -18 5
-24 -13 -9 -30 -25 -14 -22 23 2 26 -3 34 -27 45 -24 12 -36 13 -63 2 -19 -6
-37 -9 -41 -5 -4 3 4 34 16 68 29 79 61 196 62 222 0 11 6 32 14 47 8 14 17
45 21 67 4 23 14 47 24 54 9 6 24 24 33 38 9 15 54 47 100 71 46 25 97 52 113
61 17 9 61 30 99 47 57 25 153 85 176 110 3 3 14 10 25 16 11 6 21 19 23 28 5
23 -51 20 -108 -6z"/>
<path d="M963 646 c-17 -8 -34 -23 -38 -35 -7 -23 19 -81 38 -81 10 0 46 -22
151 -92 59 -39 279 -104 311 -92 32 12 8 54 -31 54 -12 0 -32 8 -45 18 -13 10
-59 35 -103 56 -100 49 -155 101 -153 148 2 33 2 33 -48 35 -27 2 -64 -4 -82
-11z"/>
</g>
</svg>
