<?xml version="1.0" standalone="no"?>
<!DOCTYPE svg PUBLIC "-//W3C//DTD SVG 20010904//EN"
 "http://www.w3.org/TR/2001/REC-SVG-20010904/DTD/svg10.dtd">
<svg version="1.0" xmlns="http://www.w3.org/2000/svg"
 width="210.000000pt" height="203.000000pt" viewBox="0 0 210.000000 203.000000"
 preserveAspectRatio="xMidYMid meet">
<metadata>
Created by potrace 1.16, written by Peter Selinger 2001-2019
</metadata>
<g transform="translate(0.000000,203.000000) scale(0.100000,-0.100000)"
fill="#000000" stroke="none">
<path d="M1278 1795 c-52 -29 -108 -167 -108 -266 0 -25 -7 -45 -19 -56 -81
-77 -99 -91 -118 -102 -17 -9 -23 -21 -23 -47 0 -28 5 -36 27 -45 14 -5 39 -7
55 -4 26 6 28 4 27 -22 0 -38 -33 -200 -41 -208 -23 -23 -75 37 -57 66 13 20
11 36 -4 42 -16 6 -95 -44 -119 -76 -9 -12 -20 -18 -24 -14 -4 4 -7 60 -6 124
2 103 5 123 27 168 14 27 39 66 55 85 72 82 80 93 80 110 0 11 -5 22 -11 26
-12 7 -102 -52 -139 -91 -13 -14 -27 -25 -31 -25 -12 0 -4 77 9 93 19 23 6 40
-52 68 l-53 26 -33 -27 c-23 -19 -30 -31 -25 -41 9 -13 12 -29 35 -163 10 -59
10 -71 -2 -80 -23 -17 -30 -51 -17 -80 7 -14 16 -26 20 -26 13 0 41 -155 40
-220 -1 -27 -4 -30 -102 -100 -62 -45 -84 -58 -151 -92 -53 -26 -51 -75 3
-104 26 -13 32 -13 61 2 18 9 40 26 49 38 10 12 45 41 79 65 l62 42 -5 -83
c-10 -142 -14 -154 -63 -183 -23 -14 -52 -25 -63 -25 -25 0 -27 -17 -5 -48 12
-18 25 -22 69 -22 40 0 59 5 72 18 10 11 26 22 36 25 30 11 53 85 60 192 7
124 27 248 40 257 6 3 29 -9 51 -28 22 -19 45 -34 52 -34 25 0 26 -22 4 -76
-13 -30 -20 -57 -17 -61 15 -15 59 11 87 52 34 50 36 50 192 46 69 -2 111 12
137 43 11 13 11 19 0 32 -10 12 -23 14 -53 10 -22 -4 -73 -2 -113 5 -86 14
-84 11 -54 142 11 45 24 117 31 159 12 85 48 160 90 193 14 10 42 37 62 59 56
60 53 69 62 -229 8 -237 23 -454 38 -512 5 -23 19 -50 29 -59 19 -17 21 -17
41 4 21 20 21 25 12 114 -10 91 -20 584 -14 703 1 33 3 98 4 145 l1 85 -31 3
c-27 3 -37 -4 -70 -46 -42 -52 -139 -142 -154 -142 -5 0 -5 13 0 31 15 51 51
119 64 119 21 0 58 32 49 41 -18 18 -106 20 -135 4z"/>
<path d="M1724 625 c-3 -14 -16 -33 -29 -43 -38 -30 -46 -56 -39 -129 6 -70
32 -156 60 -197 18 -29 63 -43 75 -24 8 13 2 55 -11 73 -14 19 -17 168 -5 239
14 77 7 106 -25 106 -13 0 -22 -9 -26 -25z"/>
<path d="M1310 527 c-18 -9 -25 -21 -25 -42 0 -25 9 -36 55 -67 41 -28 65 -37
95 -37 46 0 78 20 73 45 -4 21 -22 31 -70 39 -28 4 -41 14 -57 40 -22 38 -33
41 -71 22z"/>
<path d="M1140 443 c-57 -11 -64 -45 -23 -119 42 -78 50 -84 108 -84 48 0 53
2 59 25 8 33 1 45 -27 45 -19 0 -27 12 -49 67 -28 71 -29 73 -68 66z"/>
<path d="M610 425 c-14 -8 -32 -14 -41 -15 -9 0 -31 -13 -47 -28 -28 -26 -30
-32 -22 -68 12 -54 94 -129 151 -138 39 -6 46 -3 105 41 65 49 84 77 66 95
-15 15 -87 0 -108 -23 -22 -24 -46 -24 -67 -1 -23 25 -21 59 3 72 22 12 27 49
8 68 -15 15 -17 15 -48 -3z"/>
</g>
</svg>
