<?xml version="1.0" standalone="no"?>
<!DOCTYPE svg PUBLIC "-//W3C//DTD SVG 20010904//EN"
 "http://www.w3.org/TR/2001/REC-SVG-20010904/DTD/svg10.dtd">
<svg version="1.0" xmlns="http://www.w3.org/2000/svg"
 width="204.000000pt" height="204.000000pt" viewBox="0 0 204.000000 204.000000"
 preserveAspectRatio="xMidYMid meet">
<metadata>
Created by potrace 1.16, written by Peter Selinger 2001-2019
</metadata>
<g transform="translate(0.000000,204.000000) scale(0.100000,-0.100000)"
fill="#000000" stroke="none">
<path d="M1357 1846 c-21 -13 -43 -30 -50 -38 -7 -9 -34 -32 -62 -53 -50 -37
-149 -120 -194 -164 l-24 -23 8 68 c14 116 12 127 -13 140 -19 9 -32 9 -62 -3
l-39 -16 0 -108 c0 -100 -3 -116 -32 -186 -18 -42 -39 -83 -48 -92 -44 -44
-141 -166 -141 -178 0 -12 30 -33 48 -33 13 0 268 257 302 305 8 11 29 29 45
39 17 11 43 33 60 50 31 33 144 116 157 116 4 0 5 -15 2 -32 -7 -41 -73 -230
-85 -242 -5 -6 -9 -18 -9 -28 0 -10 -25 -34 -61 -58 -67 -45 -68 -43 -24 54
30 65 24 80 -29 72 -51 -9 -82 -28 -91 -58 -13 -41 -45 -107 -55 -113 -5 -3
-10 -14 -10 -24 0 -9 -23 -47 -51 -83 -49 -64 -50 -68 -37 -95 16 -35 58 -42
92 -16 142 110 184 140 199 146 10 4 16 3 13 -1 -25 -41 -122 -181 -136 -197
-10 -11 -25 -35 -35 -54 -10 -19 -46 -64 -81 -99 -35 -36 -64 -67 -64 -71 0
-3 -15 -22 -33 -41 -17 -19 -74 -81 -126 -138 -89 -97 -96 -103 -125 -96 -17
3 -35 10 -41 13 -5 4 -39 18 -75 31 -36 12 -74 29 -85 36 -11 8 -27 14 -37 14
-10 0 -50 11 -90 24 -40 13 -85 27 -101 30 -18 4 -27 13 -27 27 0 22 49 89 66
89 13 0 109 71 137 101 11 12 34 42 52 68 17 25 52 75 76 111 25 36 51 81 59
100 7 19 24 48 37 63 30 38 80 204 87 295 4 41 10 82 15 91 14 25 1 100 -18
110 -9 5 -30 4 -51 -3 l-35 -11 -7 -95 c-10 -157 -33 -278 -58 -315 -3 -5 -15
-32 -25 -60 -10 -27 -34 -78 -54 -113 -20 -35 -43 -76 -51 -91 -14 -25 -77
-110 -117 -157 -10 -12 -29 -27 -42 -34 -22 -12 -24 -11 -17 11 4 13 16 62 27
109 33 139 50 192 80 246 16 28 29 57 29 65 0 8 20 35 45 59 25 24 45 49 45
56 0 6 7 17 15 24 8 7 15 21 15 31 0 11 5 19 10 19 6 0 10 7 10 15 0 24 -12
18 -65 -29 -27 -25 -52 -43 -55 -41 -6 4 0 60 15 150 9 54 -10 73 -54 55 -49
-20 -63 -44 -71 -122 -5 -40 -13 -96 -20 -124 -10 -48 -14 -52 -58 -72 -26
-11 -66 -25 -89 -31 -40 -11 -43 -14 -43 -47 0 -69 22 -85 87 -62 18 6 35 9
38 6 6 -6 -41 -235 -55 -263 -6 -11 -24 -60 -40 -109 -26 -77 -30 -105 -30
-194 0 -115 7 -121 52 -41 22 39 58 53 73 28 10 -16 108 -56 168 -69 30 -6 88
-28 130 -49 l75 -38 -129 -129 c-72 -71 -140 -139 -152 -151 -25 -25 -125 -93
-137 -93 -4 0 -13 -7 -20 -15 -11 -13 -3 -15 61 -15 68 0 77 3 115 33 122 95
194 156 239 202 28 28 64 59 80 70 17 10 36 27 43 37 17 23 58 23 106 -1 21
-11 62 -23 92 -27 46 -5 57 -11 69 -34 35 -68 121 -100 215 -80 68 14 84 29
133 120 34 62 44 118 38 202 -2 27 -30 48 -65 48 -47 0 -64 -22 -46 -63 21
-49 16 -87 -21 -149 -34 -57 -71 -84 -112 -80 -35 2 -43 20 -13 31 14 6 29 18
32 26 9 21 -14 45 -42 45 -13 0 -43 4 -66 10 -24 5 -75 14 -115 20 -47 8 -77
18 -88 30 -17 19 -14 23 73 112 50 51 139 146 199 210 85 93 109 113 111 98 2
-11 15 -28 28 -37 24 -15 29 -15 97 15 40 17 89 38 110 46 25 10 37 21 37 35
0 37 -55 51 -129 31 -20 -5 -47 -11 -61 -14 -14 -3 -36 -15 -48 -27 -13 -11
-26 -19 -29 -16 -7 8 36 77 48 77 5 0 18 17 29 38 11 20 47 75 81 122 77 108
105 163 113 223 6 39 4 53 -9 67 -16 18 -15 25 20 122 43 121 73 291 54 314
-16 20 -38 17 -82 -10z"/>
</g>
</svg>
