<?xml version="1.0" standalone="no"?>
<!DOCTYPE svg PUBLIC "-//W3C//DTD SVG 20010904//EN"
 "http://www.w3.org/TR/2001/REC-SVG-20010904/DTD/svg10.dtd">
<svg version="1.0" xmlns="http://www.w3.org/2000/svg"
 width="206.000000pt" height="203.000000pt" viewBox="0 0 206.000000 203.000000"
 preserveAspectRatio="xMidYMid meet">
<metadata>
Created by potrace 1.16, written by Peter Selinger 2001-2019
</metadata>
<g transform="translate(0.000000,203.000000) scale(0.100000,-0.100000)"
fill="#000000" stroke="none">
<path d="M1594 1962 c-10 -10 -41 -33 -69 -52 -27 -19 -82 -65 -122 -103 -40
-38 -83 -77 -95 -85 -13 -9 -31 -26 -41 -37 -18 -20 -18 -19 -12 25 4 25 13
77 21 117 15 78 12 99 -17 108 -28 9 -78 -4 -88 -23 -5 -10 -14 -87 -21 -172
-13 -176 -23 -205 -85 -256 -42 -34 -43 -34 -72 -17 -29 16 -33 16 -76 -1 -25
-9 -57 -26 -71 -37 -32 -25 -56 -108 -66 -229 -13 -152 -78 -331 -157 -428
-48 -60 -52 -72 -24 -72 31 0 116 76 165 148 46 69 95 198 127 337 14 58 15
60 48 62 21 1 43 11 61 28 27 25 28 26 33 6 5 -20 37 -30 37 -12 0 4 16 29 36
55 20 26 41 58 48 71 19 36 79 104 196 222 159 161 178 178 186 170 4 -4 0
-33 -10 -64 -9 -32 -24 -83 -32 -113 -8 -30 -19 -63 -24 -72 -6 -10 -10 -24
-10 -32 0 -7 -14 -44 -32 -81 -24 -53 -29 -71 -20 -85 11 -19 -10 -40 -75 -73
l-32 -17 11 33 c6 17 17 39 24 48 8 8 14 20 14 25 0 5 9 17 20 27 34 28 22 52
-30 59 -61 9 -91 -14 -130 -100 -19 -43 -55 -111 -81 -152 -25 -42 -55 -93
-67 -115 -11 -22 -61 -82 -111 -133 -50 -52 -91 -100 -91 -107 0 -22 28 -38
57 -30 33 7 225 201 268 269 26 41 78 77 91 63 3 -3 -12 -22 -33 -43 -44 -44
-113 -129 -113 -139 0 -3 -13 -26 -30 -50 -16 -24 -30 -47 -30 -51 0 -11 -89
-143 -124 -182 -17 -20 -44 -55 -58 -77 -15 -22 -38 -53 -51 -68 -23 -28 -26
-28 -53 -14 -16 8 -51 18 -79 22 -27 4 -67 15 -90 25 -22 9 -59 23 -83 30 -24
8 -45 17 -48 21 -5 9 40 155 71 229 43 100 56 164 65 318 6 85 15 172 21 195
7 23 12 62 13 87 l1 45 -40 3 c-22 1 -45 -1 -52 -6 -14 -9 -43 -173 -43 -242
0 -25 -3 -62 -6 -82 l-7 -38 -63 1 c-36 1 -70 -4 -78 -10 -24 -20 -25 -60 -3
-88 19 -23 24 -25 75 -19 l55 6 -7 -32 c-3 -18 -26 -96 -51 -173 -24 -77 -49
-159 -55 -182 -6 -24 -14 -43 -19 -43 -4 0 -22 -14 -40 -31 -31 -29 -38 -67
-12 -61 17 4 8 -22 -48 -140 -38 -80 -50 -97 -71 -100 -18 -2 -26 -10 -28 -27
-9 -58 64 -58 107 -1 12 17 28 30 36 30 7 0 40 54 75 125 34 69 66 125 71 125
5 0 37 -9 70 -20 33 -11 92 -27 132 -36 39 -8 76 -19 80 -23 9 -9 -51 -111
-65 -111 -8 0 -15 -8 -83 -85 -73 -85 -152 -165 -192 -197 l-36 -28 72 0 72 0
134 131 c74 72 146 149 161 170 46 67 56 70 175 52 57 -8 117 -15 133 -14 27
1 28 0 23 -31 -2 -18 0 -59 5 -91 12 -69 49 -107 104 -107 39 0 62 20 109 96
68 110 98 207 99 319 1 68 6 96 19 115 23 33 22 60 -3 60 -24 0 -70 -21 -70
-32 0 -4 -16 -16 -35 -25 -46 -22 -52 -45 -24 -97 l22 -43 -23 -59 c-59 -151
-63 -158 -82 -162 -26 -5 -32 44 -8 68 28 28 27 86 0 95 -12 4 -26 2 -33 -3
-27 -21 -103 -23 -186 -3 -46 11 -85 22 -87 24 -11 10 42 86 142 202 28 33 54
68 58 79 9 25 80 136 87 136 3 0 11 -11 17 -25 18 -40 52 -41 129 -3 103 50
98 99 -9 76 -102 -22 -118 -25 -118 -19 1 15 29 53 75 103 28 30 70 79 95 109
25 30 66 77 92 104 142 150 197 227 184 260 -4 12 -10 13 -33 3 -15 -6 -39
-21 -53 -33 -31 -27 -86 -65 -94 -65 -13 0 -4 25 28 79 43 71 120 305 133 398
3 27 10 53 15 60 15 18 -13 53 -43 53 -14 0 -34 -8 -45 -18z"/>
</g>
</svg>
