<?xml version="1.0" standalone="no"?>
<!DOCTYPE svg PUBLIC "-//W3C//DTD SVG 20010904//EN"
 "http://www.w3.org/TR/2001/REC-SVG-20010904/DTD/svg10.dtd">
<svg version="1.0" xmlns="http://www.w3.org/2000/svg"
 width="206.000000pt" height="204.000000pt" viewBox="0 0 206.000000 204.000000"
 preserveAspectRatio="xMidYMid meet">
<metadata>
Created by potrace 1.16, written by Peter Selinger 2001-2019
</metadata>
<g transform="translate(0.000000,204.000000) scale(0.100000,-0.100000)"
fill="#000000" stroke="none">
<path d="M1706 1965 c-9 -9 -18 -28 -21 -43 -3 -15 -12 -54 -20 -87 -8 -33
-17 -82 -20 -108 -6 -45 -14 -56 -87 -129 -45 -44 -85 -75 -89 -71 -5 5 -5 53
0 107 5 54 7 104 4 112 -8 23 -34 12 -52 -21 -9 -16 -24 -41 -33 -55 -8 -14
-18 -47 -22 -75 -3 -27 -8 -59 -10 -70 -3 -11 -5 -35 -5 -52 -1 -23 -12 -45
-37 -73 -57 -62 -68 -55 -60 38 7 79 -4 164 -26 210 -23 46 -80 82 -131 85
-26 1 -47 7 -47 12 0 6 20 51 44 99 25 49 42 94 39 102 -8 21 -70 17 -102 -5
-15 -11 -34 -35 -43 -53 -51 -102 -78 -163 -78 -173 0 -6 -14 -37 -30 -67 -17
-31 -37 -89 -45 -130 -14 -73 -27 -117 -51 -173 -11 -27 -32 -98 -34 -117 -4
-28 -96 -191 -127 -223 -21 -22 -46 -52 -56 -67 -45 -71 -37 8 13 121 15 36
31 83 35 103 4 23 23 54 51 85 24 26 44 52 44 57 0 6 13 24 29 41 35 36 49 75
28 75 -8 0 -22 -11 -31 -24 -14 -23 -96 -86 -111 -86 -3 0 -4 8 -1 18 3 9 6
53 7 97 1 44 9 108 18 141 17 69 8 94 -33 94 -32 0 -51 -19 -69 -70 -15 -44
-21 -85 -32 -258 -9 -123 -21 -147 -64 -120 -15 9 -29 9 -58 1 -21 -7 -59 -15
-84 -18 -37 -5 -49 -12 -58 -32 -27 -60 17 -88 117 -73 102 15 103 14 97 -17
-40 -188 -101 -397 -120 -413 -8 -7 -15 -24 -15 -39 -1 -83 -118 -315 -196
-388 -17 -15 -24 -28 -17 -30 20 -7 96 38 131 76 47 53 142 194 142 213 0 29
26 42 60 28 17 -7 34 -18 38 -24 11 -18 79 -43 164 -61 72 -16 80 -16 138 2
63 18 87 41 76 70 -5 13 -18 14 -70 8 -100 -10 -214 31 -292 107 -47 45 -47
51 2 153 13 28 24 55 24 62 0 6 21 27 48 46 61 45 164 153 186 194 9 18 25 37
36 43 11 6 24 27 30 48 16 57 24 66 47 52 33 -21 89 -121 96 -170 5 -41 2 -50
-37 -108 -51 -74 -162 -177 -221 -203 -49 -23 -98 -24 -115 -4 -18 22 -37 18
-44 -7 -9 -36 42 -81 91 -81 48 0 137 29 179 57 17 12 56 38 88 59 31 21 66
53 76 70 23 39 75 109 114 151 15 17 42 61 60 97 17 36 51 88 75 115 l44 49
-7 -51 c-3 -28 -17 -74 -31 -102 -14 -29 -25 -56 -25 -61 0 -6 -18 -48 -40
-95 -22 -47 -40 -90 -40 -96 0 -7 -13 -42 -29 -78 -39 -90 -45 -112 -31 -112
21 0 70 41 70 59 0 10 12 28 26 42 15 13 38 49 51 79 14 30 48 102 77 160 32
63 64 146 79 205 31 123 63 182 128 236 27 23 56 54 65 70 8 16 21 29 28 29
14 0 14 -93 2 -205 -7 -52 3 -106 20 -112 15 -5 43 49 50 98 4 24 11 52 16 61
4 10 15 70 23 133 8 64 26 171 40 240 15 71 25 146 23 177 -3 49 -5 53 -29 56
-15 2 -34 -4 -43 -13z m-586 -355 c37 -26 45 -78 30 -185 -7 -44 -14 -97 -17
-118 -4 -32 -12 -43 -52 -67 -25 -17 -50 -30 -56 -30 -5 0 -27 30 -48 65 -27
47 -44 65 -59 65 -18 0 -19 4 -13 38 8 43 56 147 83 179 18 20 89 73 99 73 3
0 18 -9 33 -20z"/>
<path d="M1 1894 c0 -11 3 -14 6 -6 3 7 2 16 -1 19 -3 4 -6 -2 -5 -13z"/>
<path d="M1405 1046 c-18 -13 -18 -14 1 -46 52 -89 246 -109 267 -29 9 33 -1
42 -44 36 -46 -6 -117 13 -134 36 -15 20 -64 22 -90 3z"/>
<path d="M1205 578 c-11 -6 -54 -39 -95 -73 -108 -88 -190 -139 -286 -181 -94
-40 -147 -41 -159 -4 -15 48 -145 -3 -145 -57 0 -13 39 -43 62 -47 7 -2 22 -7
33 -12 34 -15 157 -9 190 9 17 9 34 17 39 17 4 0 25 13 45 29 20 15 47 32 61
36 24 7 180 133 209 169 19 22 28 20 45 -11 41 -77 159 -153 238 -153 40 0
116 38 131 65 17 31 68 72 99 80 32 8 39 -3 67 -104 39 -139 72 -179 106 -127
16 24 16 31 2 93 -8 38 -21 95 -27 128 -17 86 -47 115 -117 115 -66 0 -116
-30 -204 -124 -23 -24 -33 -28 -62 -23 -53 8 -111 55 -148 122 -36 63 -51 72
-84 53z"/>
</g>
</svg>
