<?xml version="1.0" standalone="no"?>
<!DOCTYPE svg PUBLIC "-//W3C//DTD SVG 20010904//EN"
 "http://www.w3.org/TR/2001/REC-SVG-20010904/DTD/svg10.dtd">
<svg version="1.0" xmlns="http://www.w3.org/2000/svg"
 width="209.000000pt" height="204.000000pt" viewBox="0 0 209.000000 204.000000"
 preserveAspectRatio="xMidYMid meet">
<metadata>
Created by potrace 1.16, written by Peter Selinger 2001-2019
</metadata>
<g transform="translate(0.000000,204.000000) scale(0.100000,-0.100000)"
fill="#000000" stroke="none">
<path d="M1055 1830 c-14 -22 -25 -43 -25 -47 0 -4 -9 -30 -19 -58 -10 -27
-26 -77 -36 -110 -9 -33 -24 -76 -32 -95 -17 -39 -75 -132 -79 -127 -2 2 3 32
12 68 9 35 22 90 30 122 25 106 14 142 -42 135 -44 -5 -62 -42 -74 -150 -8
-71 -22 -124 -51 -200 -22 -57 -49 -128 -60 -158 -21 -60 -138 -301 -139 -285
0 5 9 48 19 95 39 168 61 286 70 370 5 47 17 102 25 122 21 48 24 131 7 152
-32 39 -96 5 -105 -56 -3 -18 -10 -67 -17 -108 -7 -41 -15 -102 -19 -135 -10
-81 -28 -173 -35 -186 -11 -16 -32 8 -32 36 0 29 -38 64 -69 65 -23 0 -64 -39
-64 -62 0 -15 38 -70 80 -116 15 -16 27 -21 45 -16 20 5 25 2 25 -13 0 -19
-29 -123 -49 -178 -6 -16 -27 -88 -47 -160 -20 -71 -44 -155 -53 -185 -10 -30
-24 -75 -31 -100 -8 -25 -33 -76 -57 -113 -59 -93 -57 -106 12 -66 50 30 120
119 140 178 23 71 35 78 90 51 49 -24 60 -50 20 -50 -20 0 -25 -5 -25 -25 0
-31 30 -40 104 -31 54 6 103 -10 166 -54 14 -10 41 -21 60 -25 19 -4 40 -12
47 -17 18 -14 53 1 53 23 0 28 -62 78 -148 119 l-42 21 26 34 c14 19 49 53 77
77 64 54 91 82 130 135 23 33 35 41 51 37 27 -6 70 47 79 98 10 62 73 141 157
196 30 19 65 44 77 55 13 11 26 18 29 14 9 -9 -15 -74 -56 -152 -20 -39 -40
-83 -44 -99 -4 -15 -22 -50 -41 -78 -19 -28 -35 -56 -35 -64 0 -49 73 -5 129
78 22 33 41 66 41 73 0 6 11 18 25 25 20 11 32 11 72 -1 134 -38 291 1 266 67
-5 13 -14 15 -47 9 -58 -11 -117 -12 -122 -3 -3 5 -14 8 -25 8 -10 0 -32 12
-48 26 l-29 25 19 37 c10 20 30 64 44 97 58 131 80 171 109 203 16 17 34 32
38 32 4 0 8 -25 8 -56 0 -67 19 -146 33 -141 21 7 66 155 71 234 2 43 8 111
12 150 7 79 -2 103 -38 103 -11 0 -33 -13 -49 -29 -24 -24 -29 -38 -29 -78 -1
-41 -6 -54 -35 -85 -46 -50 -58 -49 -51 5 17 137 18 160 4 168 -20 13 -64 11
-77 -4 -12 -15 -34 -128 -53 -267 -12 -90 -26 -116 -76 -141 -15 -7 -35 -20
-45 -28 -29 -24 -31 -4 -4 56 30 68 52 180 44 230 -17 100 -127 149 -226 100
-16 -8 -32 -13 -34 -10 -3 2 3 30 13 61 36 117 50 186 38 199 -21 26 -57 15
-83 -27z m193 -364 c4 -65 -24 -142 -90 -249 -29 -45 -65 -107 -81 -137 -31
-60 -46 -80 -56 -80 -4 0 -29 34 -56 75 -52 80 -70 89 -113 59 -33 -23 -27
-48 28 -120 71 -92 74 -100 59 -137 -7 -18 -30 -51 -51 -74 -21 -24 -38 -46
-38 -50 0 -5 -47 -57 -104 -117 l-103 -108 -29 15 c-16 9 -41 26 -56 39 -15
13 -43 34 -62 48 -20 14 -36 31 -36 39 0 7 11 34 24 60 14 25 28 53 31 61 10
27 30 54 59 85 24 25 80 114 133 208 7 12 18 26 25 32 22 16 47 61 64 112 9
26 27 71 40 99 l24 52 31 -29 c39 -36 45 -33 146 67 83 82 120 104 173 101 35
-2 35 -3 38 -51z"/>
<path d="M1385 429 c-11 -6 -24 -17 -30 -23 -5 -7 -30 -26 -55 -42 -118 -81
-156 -104 -169 -104 -7 0 -27 -6 -44 -14 -18 -8 -62 -22 -99 -31 -55 -14 -74
-14 -104 -5 -28 10 -35 16 -31 32 5 17 2 19 -18 14 -13 -3 -41 -18 -64 -33
-31 -20 -41 -33 -41 -54 0 -37 15 -46 94 -59 69 -11 154 -2 195 20 11 5 30 10
43 10 33 0 171 73 227 119 25 21 62 46 80 56 39 20 54 17 166 -35 33 -15 87
-40 120 -55 33 -15 89 -41 125 -58 123 -59 215 -43 213 38 -1 42 -18 58 -44
44 -40 -21 -69 -13 -247 72 -57 27 -106 49 -109 49 -3 0 -23 14 -44 31 -43 34
-128 49 -164 28z"/>
</g>
</svg>
