<?xml version="1.0" standalone="no"?>
<!DOCTYPE svg PUBLIC "-//W3C//DTD SVG 20010904//EN"
 "http://www.w3.org/TR/2001/REC-SVG-20010904/DTD/svg10.dtd">
<svg version="1.0" xmlns="http://www.w3.org/2000/svg"
 width="209.000000pt" height="204.000000pt" viewBox="0 0 209.000000 204.000000"
 preserveAspectRatio="xMidYMid meet">
<metadata>
Created by potrace 1.16, written by Peter Selinger 2001-2019
</metadata>
<g transform="translate(0.000000,204.000000) scale(0.100000,-0.100000)"
fill="#000000" stroke="none">
<path d="M961 1924 c-12 -15 -21 -34 -21 -43 0 -10 -4 -21 -10 -27 -5 -5 -20
-39 -33 -75 -13 -36 -43 -101 -67 -145 -23 -43 -56 -104 -72 -134 -16 -30 -37
-64 -47 -75 -10 -11 -21 -29 -25 -39 -3 -10 -9 -17 -11 -14 -4 4 1 26 37 138
6 19 15 38 20 41 4 3 10 14 12 25 2 10 10 41 16 67 13 51 8 110 -11 133 -17
20 -66 17 -89 -6 -11 -11 -20 -33 -20 -49 0 -30 -18 -123 -46 -241 -19 -82
-51 -165 -81 -209 -13 -19 -23 -39 -23 -46 0 -7 -13 -29 -30 -50 -16 -21 -30
-44 -30 -51 0 -26 48 -14 90 21 23 19 45 35 49 35 3 0 17 18 31 40 13 21 26
37 28 35 2 -2 -4 -14 -13 -28 -21 -33 -54 -124 -47 -131 15 -16 53 -3 76 25
14 17 26 35 26 40 0 5 4 9 9 9 5 0 19 -30 31 -66 18 -53 22 -82 18 -143 -4
-72 -7 -79 -49 -134 -28 -36 -57 -62 -81 -72 -42 -16 -43 -18 -28 -46 25 -46
99 -8 202 104 63 69 91 112 154 233 42 82 85 158 95 169 69 73 89 97 89 103 0
4 11 12 25 19 30 13 29 19 9 -111 -17 -113 -46 -198 -82 -237 -17 -20 -21 -33
-16 -53 4 -18 -2 -41 -20 -76 -29 -55 -33 -90 -12 -90 21 0 62 39 84 80 20 37
30 39 92 21 138 -41 170 -45 236 -34 69 12 114 41 114 74 0 23 -30 32 -64 19
-61 -23 -188 -2 -252 42 -38 26 -40 33 -19 85 13 34 29 102 70 307 8 37 23 81
33 97 21 34 81 81 93 73 16 -9 6 -208 -17 -341 -6 -39 -5 -43 15 -43 11 0 21
4 21 10 0 5 13 24 29 42 24 28 31 48 40 113 6 44 15 116 21 160 27 203 32 230
47 256 14 24 15 30 3 44 -11 13 -23 15 -53 11 -60 -10 -76 -23 -90 -72 -7 -30
-24 -56 -45 -75 -47 -41 -56 -38 -47 19 8 55 21 82 47 100 10 8 18 25 18 43 0
24 -4 29 -23 29 -13 0 -34 -11 -47 -25 -13 -14 -31 -25 -41 -25 -9 0 -23 -10
-31 -23 -18 -26 -48 -152 -48 -199 0 -41 -5 -48 -54 -87 -38 -30 -74 -42 -60
-20 10 17 5 149 -7 186 -7 23 -19 35 -45 43 -19 6 -34 15 -34 18 0 4 12 46 26
94 34 109 29 158 -16 158 -19 0 -35 -9 -49 -26z m28 -366 c15 -41 -35 -220
-78 -281 -20 -27 -34 -60 -36 -85 -5 -48 -44 -110 -57 -90 -4 7 -8 27 -8 43 0
17 -7 41 -15 55 -40 69 -40 67 -12 107 14 21 48 82 75 137 32 63 60 105 78
117 37 24 43 24 53 -3z"/>
<path d="M456 1825 c-18 -19 -24 -49 -31 -175 -8 -129 -12 -143 -39 -135 -93
29 -124 22 -148 -30 -9 -20 -7 -29 13 -54 13 -16 33 -33 44 -37 36 -12 56 -41
49 -71 -28 -124 -137 -433 -200 -568 -51 -110 -75 -170 -80 -206 -6 -34 -4
-39 13 -39 11 0 25 10 31 23 18 33 34 58 68 102 34 45 64 101 64 122 0 20 23
16 38 -7 7 -11 19 -20 27 -20 7 0 20 -8 27 -18 12 -17 121 -92 134 -92 3 0 32
-13 66 -30 67 -34 108 -37 162 -15 29 12 37 21 34 37 -3 24 -31 35 -90 37 -20
1 -40 5 -43 11 -3 6 -14 10 -24 10 -10 0 -29 10 -42 21 -13 12 -46 38 -74 59
-27 20 -71 61 -96 91 l-46 54 46 136 c25 74 54 143 63 153 10 9 23 36 29 59 6
23 16 52 22 64 6 13 11 46 12 75 1 29 10 82 19 118 10 36 21 101 26 145 4 44
13 97 20 118 10 33 9 42 -6 58 -21 23 -67 25 -88 4z"/>
<path d="M1150 602 c-25 -10 -61 -26 -80 -38 -19 -12 -60 -35 -90 -52 -30 -17
-63 -40 -72 -51 -10 -12 -28 -21 -40 -22 -13 0 -36 -9 -53 -19 -60 -38 -105
-60 -123 -60 -10 0 -27 -7 -38 -15 -10 -8 -30 -15 -44 -15 -107 -2 -182 -78
-112 -114 32 -17 96 -8 164 22 24 11 54 23 68 27 14 4 32 13 40 20 8 7 36 23
62 35 26 13 58 34 70 47 12 13 27 23 35 23 7 0 13 4 13 9 0 5 14 14 31 21 17
7 47 28 66 47 20 18 39 33 44 33 4 0 25 11 45 25 20 14 47 25 60 25 23 0 24
-3 24 -79 0 -58 4 -82 15 -91 8 -7 15 -21 15 -31 0 -10 12 -30 28 -45 80 -77
189 -72 281 13 20 18 39 33 43 33 3 0 25 16 48 35 26 21 66 42 101 52 32 9 61
23 64 31 20 54 -112 73 -186 27 -22 -14 -45 -37 -51 -50 -6 -14 -15 -25 -19
-25 -5 0 -35 -18 -66 -40 -66 -46 -75 -47 -113 -20 -33 24 -60 94 -60 157 0
57 -12 78 -51 92 -41 14 -64 13 -119 -7z"/>
</g>
</svg>
