<?xml version="1.0" standalone="no"?>
<!DOCTYPE svg PUBLIC "-//W3C//DTD SVG 20010904//EN"
 "http://www.w3.org/TR/2001/REC-SVG-20010904/DTD/svg10.dtd">
<svg version="1.0" xmlns="http://www.w3.org/2000/svg"
 width="206.000000pt" height="205.000000pt" viewBox="0 0 206.000000 205.000000"
 preserveAspectRatio="xMidYMid meet">
<metadata>
Created by potrace 1.16, written by Peter Selinger 2001-2019
</metadata>
<g transform="translate(0.000000,205.000000) scale(0.100000,-0.100000)"
fill="#000000" stroke="none">
<path d="M1427 2032 c-26 -28 -43 -89 -57 -199 -7 -56 -16 -105 -19 -110 -17
-22 -94 -65 -145 -80 -63 -18 -102 -48 -112 -87 -14 -59 40 -72 127 -31 29 13
54 23 56 22 1 -1 -5 -31 -14 -65 -14 -56 -19 -64 -44 -69 -30 -6 -86 -78 -121
-155 -21 -46 -53 -82 -66 -74 -6 3 -12 1 -14 -5 -5 -15 -104 -30 -137 -22 -14
3 -32 12 -39 19 -8 8 -24 11 -43 7 -29 -5 -30 -5 -23 23 3 16 15 54 26 84 11
30 29 89 39 130 11 41 30 111 44 155 49 165 42 235 -23 221 -17 -4 -36 -14
-44 -23 -12 -15 -49 -170 -67 -288 -5 -33 -23 -96 -39 -140 -16 -44 -35 -102
-41 -130 -13 -57 -163 -363 -169 -345 -7 21 20 193 33 215 36 54 56 206 34
247 -6 12 -10 51 -9 87 8 203 2 231 -44 231 -47 -1 -56 -21 -64 -141 l-7 -114
-56 -15 c-74 -20 -91 -35 -87 -78 5 -53 40 -75 101 -63 55 10 52 17 33 -99 -8
-47 -17 -114 -20 -150 -13 -146 -17 -179 -32 -270 -9 -52 -27 -139 -40 -193
-13 -54 -28 -137 -34 -185 -11 -89 -35 -194 -50 -223 -6 -10 -5 -20 2 -27 18
-18 48 5 70 56 11 26 27 55 36 65 8 9 12 20 9 23 -3 4 0 18 7 33 8 14 19 58
25 98 6 39 15 83 21 98 5 14 10 43 10 63 0 58 13 69 41 35 31 -36 183 -129
253 -154 88 -30 210 -10 222 38 7 28 3 35 -22 33 -11 -1 -46 -2 -80 -1 -83 1
-158 42 -250 138 -69 70 -106 90 -117 61 -2 -7 -7 -10 -11 -7 -16 15 17 88 62
139 26 30 58 73 71 95 13 22 39 65 59 96 l36 56 128 -1 c70 -1 128 -4 128 -8
0 -3 -11 -28 -24 -55 -13 -26 -44 -91 -69 -143 -25 -52 -57 -106 -71 -119 -29
-27 -35 -61 -10 -61 24 0 132 108 144 145 6 18 17 36 25 38 7 3 31 32 53 64
22 32 61 75 86 96 l47 38 126 -10 c70 -6 128 -13 130 -15 8 -7 -76 -54 -137
-75 -63 -23 -155 -81 -162 -102 -2 -6 -27 -12 -55 -13 -63 -2 -97 -27 -90 -66
19 -92 62 -180 89 -180 19 0 36 57 37 129 1 43 1 43 32 37 44 -8 75 2 87 29
12 25 137 93 149 81 4 -4 1 -21 -5 -39 -7 -19 -12 -42 -12 -54 0 -29 -10 -34
-34 -18 -11 8 -26 15 -33 15 -25 0 -53 -39 -53 -75 0 -40 -30 -103 -64 -132
-23 -20 -23 -21 -9 -99 8 -44 19 -83 24 -88 5 -6 9 -35 9 -65 l0 -56 -35 -1
c-61 -1 -131 -47 -235 -153 -36 -37 -76 -75 -90 -84 -24 -17 -24 -17 42 -17
72 0 59 -7 181 101 26 23 50 39 54 36 3 -4 11 -35 17 -69 l11 -63 65 -3 66 -3
12 58 c6 32 14 110 18 173 5 98 3 128 -15 201 -22 85 -22 86 -2 131 13 32 29
49 54 61 41 20 80 75 122 172 22 50 37 204 22 224 -9 11 1 12 58 5 39 -5 129
-9 200 -9 119 0 133 2 168 23 36 23 45 36 29 46 -4 2 -61 6 -127 7 -66 2 -138
7 -160 12 -41 9 -70 13 -182 23 -35 3 -63 9 -63 12 0 4 16 20 35 36 25 21 33
35 29 50 -3 15 7 34 38 67 130 138 144 161 129 202 -10 25 -13 27 -33 16 -67
-35 -178 -148 -199 -202 -17 -41 -26 -46 -66 -32 -20 7 -15 42 12 84 13 22 34
68 45 103 54 158 94 218 203 301 20 15 37 33 37 38 0 6 15 30 34 53 39 46 56
85 56 122 0 40 -29 23 -121 -71 -45 -47 -88 -85 -96 -85 -24 0 11 129 53 193
l24 37 -58 0 c-44 0 -63 -5 -75 -18z m-700 -814 c-3 -8 -6 -5 -6 6 -1 11 2 17
5 13 3 -3 4 -12 1 -19z m571 -36 c24 -3 32 -9 32 -24 0 -18 -4 -20 -37 -14
-21 3 -48 6 -60 6 -13 0 -23 6 -23 13 0 20 23 38 40 31 8 -4 30 -9 48 -12z"/>
<path d="M1533 364 c-56 -28 -37 -83 32 -100 17 -4 36 -11 43 -17 19 -15 170
-2 191 17 10 9 23 16 29 16 7 0 12 9 12 20 0 22 -11 24 -90 21 -32 -2 -65 6
-113 28 -38 17 -70 31 -70 31 -1 0 -17 -8 -34 -16z"/>
</g>
</svg>
