<?xml version="1.0" standalone="no"?>
<!DOCTYPE svg PUBLIC "-//W3C//DTD SVG 20010904//EN"
 "http://www.w3.org/TR/2001/REC-SVG-20010904/DTD/svg10.dtd">
<svg version="1.0" xmlns="http://www.w3.org/2000/svg"
 width="204.000000pt" height="207.000000pt" viewBox="0 0 204.000000 207.000000"
 preserveAspectRatio="xMidYMid meet">
<metadata>
Created by potrace 1.16, written by Peter Selinger 2001-2019
</metadata>
<g transform="translate(0.000000,207.000000) scale(0.100000,-0.100000)"
fill="#000000" stroke="none">
<path d="M1098 1813 c-38 -10 -47 -47 -58 -220 -13 -222 -16 -234 -83 -268
-18 -8 -61 -33 -97 -55 -106 -64 -122 -72 -128 -65 -3 3 2 41 11 83 9 42 24
107 31 144 8 36 22 81 31 98 17 34 48 217 40 238 -10 25 -55 33 -86 15 -34
-20 -43 -46 -69 -212 -10 -64 -26 -150 -34 -191 -9 -41 -16 -92 -16 -112 0
-20 -15 -83 -34 -140 -19 -57 -37 -119 -41 -138 -18 -95 -130 -487 -152 -531
-8 -16 -32 -78 -52 -137 -31 -87 -43 -109 -65 -120 -39 -20 -30 -46 16 -50 26
-2 43 3 56 16 24 24 87 130 97 163 4 13 20 52 36 86 15 34 35 86 44 115 53
174 46 161 100 181 28 9 59 22 70 26 11 5 43 17 70 27 28 10 52 21 55 25 3 3
16 10 30 14 14 4 42 19 63 32 22 14 40 23 42 21 2 -2 -6 -37 -17 -78 -25 -94
-32 -390 -10 -412 21 -21 38 12 46 89 4 36 16 94 28 127 11 34 29 99 38 146
10 47 30 123 45 170 36 117 45 168 30 180 -20 16 -44 4 -165 -86 -127 -93
-207 -132 -312 -151 -24 -4 -28 -2 -28 16 0 32 24 83 54 116 14 15 26 34 26
40 0 14 131 135 146 135 5 0 27 14 48 30 73 55 85 31 36 -76 -23 -52 -26 -66
-15 -70 8 -3 18 -3 24 0 13 9 118 205 126 237 6 24 89 119 104 119 11 0 84
100 78 106 -10 10 -74 -16 -92 -36 -10 -11 -22 -20 -27 -20 -14 0 15 259 33
292 6 11 4 29 -8 52 -16 34 -27 39 -65 29z"/>
</g>
</svg>
