<?xml version="1.0" standalone="no"?>
<!DOCTYPE svg PUBLIC "-//W3C//DTD SVG 20010904//EN"
 "http://www.w3.org/TR/2001/REC-SVG-20010904/DTD/svg10.dtd">
<svg version="1.0" xmlns="http://www.w3.org/2000/svg"
 width="206.000000pt" height="208.000000pt" viewBox="0 0 206.000000 208.000000"
 preserveAspectRatio="xMidYMid meet">
<metadata>
Created by potrace 1.16, written by Peter Selinger 2001-2019
</metadata>
<g transform="translate(0.000000,208.000000) scale(0.100000,-0.100000)"
fill="#000000" stroke="none">
<path d="M709 1783 c-23 -6 -43 -48 -35 -75 7 -26 -11 -394 -24 -478 -5 -30
-20 -95 -33 -145 -14 -49 -35 -126 -47 -170 -12 -44 -34 -119 -51 -166 -16
-48 -29 -99 -29 -114 0 -15 -17 -78 -37 -139 -44 -132 -87 -196 -133 -196 -28
0 -29 -1 -18 -25 15 -33 37 -38 81 -20 71 30 177 204 197 325 15 88 28 120 41
99 15 -25 89 -14 164 26 39 20 77 43 86 51 8 8 20 14 25 14 5 0 26 11 47 25
20 14 42 23 47 20 5 -3 8 -128 8 -293 -1 -276 4 -352 22 -352 17 0 48 116 55
210 3 36 9 92 14 125 10 65 25 361 22 435 -2 49 -5 55 -38 64 -16 5 -31 -2
-60 -27 -56 -49 -220 -156 -251 -163 -15 -3 -46 -14 -69 -25 -54 -24 -66 -24
-55 -1 5 9 15 45 21 79 19 97 36 130 71 138 16 4 33 13 38 20 9 18 114 91 142
100 21 7 21 5 15 -39 -13 -86 31 -46 100 92 34 67 55 97 76 107 16 9 29 20 29
25 0 5 9 18 21 29 12 11 18 24 14 30 -8 15 -38 14 -53 -1 -24 -24 -24 -15 8
209 4 34 16 78 26 98 l17 37 -30 30 c-30 29 -30 29 -67 14 -20 -8 -38 -21 -41
-28 -2 -7 -9 -80 -15 -163 -13 -184 -30 -285 -47 -285 -7 0 -13 -4 -13 -9 0
-5 -24 -21 -52 -36 -29 -14 -73 -37 -97 -50 -25 -14 -46 -23 -47 -22 -4 3 15
291 22 355 3 23 9 40 13 37 10 -6 21 43 22 99 0 22 4 50 8 61 12 31 2 53 -31
64 -31 11 -50 12 -79 4z"/>
</g>
</svg>
