<?xml version="1.0" standalone="no"?>
<!DOCTYPE svg PUBLIC "-//W3C//DTD SVG 20010904//EN"
 "http://www.w3.org/TR/2001/REC-SVG-20010904/DTD/svg10.dtd">
<svg version="1.0" xmlns="http://www.w3.org/2000/svg"
 width="208.000000pt" height="207.000000pt" viewBox="0 0 208.000000 207.000000"
 preserveAspectRatio="xMidYMid meet">
<metadata>
Created by potrace 1.16, written by Peter Selinger 2001-2019
</metadata>
<g transform="translate(0.000000,207.000000) scale(0.100000,-0.100000)"
fill="#000000" stroke="none">
<path d="M708 2043 c-14 -16 -28 -41 -31 -58 -3 -16 -12 -62 -21 -102 -9 -39
-16 -98 -17 -131 -2 -64 -13 -96 -27 -75 -6 10 -20 9 -61 -2 l-53 -14 6 67 c4
37 9 79 12 94 4 21 -1 34 -20 53 -33 33 -79 33 -111 0 -29 -28 -29 -28 -10
-102 30 -116 16 -211 -44 -283 -20 -25 -51 -66 -68 -91 -17 -25 -38 -51 -47
-58 -38 -31 -8 -91 45 -91 32 0 40 8 116 108 45 59 87 118 93 132 15 32 109
110 132 110 22 0 22 14 3 -205 -26 -305 -32 -356 -63 -490 -17 -71 -35 -168
-42 -215 -23 -164 -30 -205 -39 -230 -12 -34 -40 -228 -45 -320 -2 -41 -8 -90
-11 -107 -7 -33 -7 -33 31 -33 36 0 41 3 56 38 9 20 19 69 23 107 3 39 15 115
25 170 33 178 50 278 65 388 9 60 26 152 39 205 22 89 46 270 51 382 3 61 24
262 35 335 6 33 10 80 10 105 0 25 9 68 19 95 10 28 24 83 30 124 10 63 9 77
-4 97 -20 31 -45 30 -77 -3z"/>
<path d="M1214 2006 c-30 -14 -31 -15 -43 -122 -25 -237 -63 -392 -141 -579
-23 -55 -46 -113 -52 -130 -6 -16 -14 -37 -19 -45 -4 -8 -31 -62 -59 -120 -67
-137 -68 -140 -130 -245 -75 -128 -111 -215 -98 -238 12 -23 32 -31 62 -23 17
4 34 26 60 78 20 40 48 93 62 118 15 25 55 99 89 165 91 175 153 286 169 304
8 9 25 40 40 69 14 30 41 73 61 95 19 23 50 60 69 81 44 52 66 45 66 -22 0
-26 -6 -72 -14 -102 -7 -30 -16 -79 -19 -109 -4 -30 -17 -75 -30 -100 -13 -25
-32 -71 -41 -101 -26 -82 -68 -180 -77 -180 -4 0 -25 20 -45 45 -21 24 -43 46
-50 49 -24 9 -81 -14 -94 -38 -11 -22 -9 -28 16 -61 16 -21 52 -55 81 -76 l52
-39 -28 -67 c-36 -86 -91 -189 -114 -214 -11 -12 -31 -19 -52 -19 -28 0 -35
-4 -35 -19 0 -26 37 -51 73 -51 23 0 44 15 93 64 35 34 64 71 64 80 0 10 13
31 29 47 16 16 36 48 44 71 17 53 35 52 147 -10 19 -11 55 -28 79 -38 92 -39
217 -107 243 -131 16 -15 39 -25 60 -26 l33 -2 0 55 0 54 -50 28 c-27 15 -72
40 -100 55 -27 15 -75 38 -105 51 -106 45 -125 55 -177 89 -30 19 -53 41 -53
51 1 27 84 266 103 295 24 37 61 257 61 363 -1 143 -33 180 -141 159 -19 -3
-44 -17 -55 -31 -27 -30 -42 -31 -35 -1 39 180 50 223 58 232 5 5 9 28 9 50 0
23 5 67 11 98 10 48 9 60 -5 82 -19 28 -28 30 -72 11z"/>
<path d="M443 1265 c-17 -7 -41 -27 -54 -44 -17 -23 -26 -28 -36 -20 -10 9
-13 7 -13 -11 0 -13 -8 -24 -20 -27 -11 -3 -20 -9 -20 -13 0 -5 -15 -13 -33
-19 -19 -7 -44 -23 -55 -36 -12 -14 -26 -25 -32 -25 -12 0 -13 -49 -2 -67 13
-21 60 -26 87 -9 13 9 27 16 30 16 10 0 -5 -70 -30 -145 -29 -87 -42 -152 -55
-281 -5 -56 -12 -108 -15 -116 -3 -8 -1 -27 4 -41 9 -22 17 -27 45 -27 43 0
56 20 56 86 0 51 17 167 30 199 4 11 8 34 9 52 1 18 10 53 21 78 11 26 20 54
20 64 0 9 4 21 8 26 5 6 17 42 27 80 19 71 59 149 101 195 21 23 22 30 13 63
-11 42 -30 47 -86 22z"/>
</g>
</svg>
