<?xml version="1.0" standalone="no"?>
<!DOCTYPE svg PUBLIC "-//W3C//DTD SVG 20010904//EN"
 "http://www.w3.org/TR/2001/REC-SVG-20010904/DTD/svg10.dtd">
<svg version="1.0" xmlns="http://www.w3.org/2000/svg"
 width="207.000000pt" height="208.000000pt" viewBox="0 0 207.000000 208.000000"
 preserveAspectRatio="xMidYMid meet">
<metadata>
Created by potrace 1.16, written by Peter Selinger 2001-2019
</metadata>
<g transform="translate(0.000000,208.000000) scale(0.100000,-0.100000)"
fill="#000000" stroke="none">
<path d="M1444 2053 l-41 -14 -7 -70 c-6 -71 -42 -151 -151 -340 -46 -79 -125
-247 -125 -265 0 -9 -6 -28 -14 -42 -8 -15 -22 -65 -31 -112 -9 -47 -27 -134
-41 -195 -13 -60 -31 -146 -40 -190 -17 -87 -78 -294 -95 -326 -6 -11 -16 -41
-24 -66 -7 -25 -26 -62 -40 -84 -55 -79 11 -99 80 -24 72 79 139 271 206 590
28 133 43 194 55 234 8 25 14 55 14 67 0 26 8 47 55 149 18 39 36 81 40 95 8
27 30 66 111 206 30 51 54 95 54 99 0 4 6 21 14 38 8 18 24 62 37 99 12 38 32
79 45 94 13 14 24 28 24 32 -1 32 -65 45 -126 25z"/>
<path d="M843 1948 c-13 -6 -23 -18 -24 -27 -1 -19 -3 -33 -18 -136 -21 -141
-18 -135 -54 -131 -18 3 -35 5 -38 5 -4 1 -10 22 -13 49 -15 109 -29 129 -80
116 -29 -7 -32 -19 -46 -229 -5 -77 -11 -151 -14 -165 -5 -30 -54 -120 -66
-120 -15 0 -48 -62 -43 -81 3 -10 16 -25 30 -34 29 -19 72 -9 110 27 29 28 29
15 -1 -36 -24 -41 -22 -75 3 -91 18 -11 13 -19 -29 -45 -21 -13 -47 -38 -56
-55 -9 -17 -43 -48 -74 -69 -93 -60 -108 -100 -49 -130 31 -16 30 -52 -6 -159
-59 -182 -56 -269 12 -275 18 -2 43 4 57 14 28 18 35 54 11 54 -9 0 -15 9 -15
23 1 32 46 184 71 237 32 66 37 81 50 130 8 33 25 58 61 93 27 27 52 47 54 44
3 -2 -7 -91 -20 -198 -32 -251 -34 -272 -42 -409 -6 -99 -4 -118 9 -132 17
-17 50 -14 65 6 5 6 15 70 21 141 22 232 67 528 91 590 23 61 39 176 39 280
-1 160 42 460 77 542 8 17 14 38 14 47 0 9 18 34 41 55 62 56 53 75 -36 78
-39 1 -80 -3 -92 -9z m-155 -845 c-13 -27 -58 -46 -58 -24 0 6 3 10 8 10 21
-4 34 3 44 26 6 14 13 23 16 21 2 -3 -2 -17 -10 -33z"/>
<path d="M1609 1618 c-146 -106 -334 -292 -349 -347 -14 -51 -12 -81 6 -88 23
-9 63 13 76 43 7 15 28 43 47 63 121 128 194 201 201 201 4 0 13 7 20 15 7 9
15 14 17 12 6 -7 -25 -114 -50 -175 -37 -87 -67 -164 -67 -173 0 -8 -41 -101
-116 -266 -13 -29 -28 -53 -33 -53 -14 0 -41 47 -48 83 -11 55 -44 62 -93 21
-27 -23 -30 -31 -24 -58 10 -47 28 -77 73 -121 41 -41 48 -61 32 -93 -41 -78
-91 -187 -91 -199 0 -22 -36 -86 -65 -115 -21 -21 -26 -34 -21 -53 4 -14 13
-25 22 -25 17 0 74 40 74 52 0 5 14 22 31 39 18 17 58 83 90 146 32 64 62 120
68 126 6 6 37 -6 84 -32 85 -46 209 -80 257 -69 28 7 40 19 40 43 0 21 -6 25
-47 30 -95 13 -148 40 -260 131 l-26 21 22 49 c13 27 41 85 62 129 40 84 67
153 76 195 3 14 9 30 13 35 9 12 44 113 76 220 28 91 40 211 23 232 -20 23
-73 15 -120 -19z"/>
</g>
</svg>
