<?xml version="1.0" standalone="no"?>
<!DOCTYPE svg PUBLIC "-//W3C//DTD SVG 20010904//EN"
 "http://www.w3.org/TR/2001/REC-SVG-20010904/DTD/svg10.dtd">
<svg version="1.0" xmlns="http://www.w3.org/2000/svg"
 width="206.000000pt" height="208.000000pt" viewBox="0 0 206.000000 208.000000"
 preserveAspectRatio="xMidYMid meet">
<metadata>
Created by potrace 1.16, written by Peter Selinger 2001-2019
</metadata>
<g transform="translate(0.000000,208.000000) scale(0.100000,-0.100000)"
fill="#000000" stroke="none">
<path d="M1433 1984 c-11 -5 -59 -99 -84 -164 -7 -19 -23 -51 -36 -70 -69
-102 -114 -163 -174 -233 -20 -23 -42 -53 -49 -67 -19 -36 -83 -112 -173 -203
-65 -67 -77 -84 -72 -104 3 -13 13 -27 22 -30 27 -10 92 -85 112 -128 10 -22
23 -69 28 -105 10 -64 10 -65 -18 -92 -32 -30 -37 -59 -14 -78 22 -18 18 -69
-10 -154 -35 -105 -34 -132 9 -153 22 -10 41 -13 53 -8 10 5 36 14 58 21 22 6
64 21 94 32 29 12 72 24 96 27 l42 7 -1 -159 c-1 -163 3 -251 12 -267 8 -14
41 94 42 135 0 19 5 40 12 47 8 8 14 52 16 115 2 56 7 111 12 122 5 11 11 32
14 47 6 27 19 36 106 78 52 25 90 57 90 78 0 12 -10 13 -50 8 -27 -4 -68 -13
-91 -21 -34 -12 -44 -13 -51 -3 -11 18 -8 134 5 186 9 35 17 44 41 50 43 11
57 38 29 57 -23 16 -23 55 -2 82 23 27 37 118 37 230 0 65 5 185 12 266 12
129 11 150 -2 163 -11 11 -21 12 -39 5 -24 -9 -141 -118 -156 -146 -10 -18
-143 -125 -155 -125 -22 0 12 51 85 125 32 33 66 74 74 90 9 17 31 52 51 80
55 77 104 188 100 226 -3 28 -7 33 -33 35 -16 2 -35 0 -42 -2z m3 -670 c3 -99
2 -216 -1 -262 l-7 -82 -37 -6 c-61 -10 -66 -26 -62 -211 2 -90 1 -163 -2
-163 -24 0 -174 -34 -201 -45 -33 -14 -40 -13 -38 6 19 149 46 213 113 277 27
25 49 52 49 59 0 7 4 13 8 13 5 0 18 9 30 20 16 15 22 32 22 65 0 25 -5 45
-10 45 -6 0 -30 -18 -53 -41 -51 -50 -86 -74 -94 -65 -7 6 33 242 43 258 4 5
14 2 24 -7 10 -9 33 -17 51 -17 25 -1 39 6 61 33 15 19 39 47 53 62 28 31 35
87 10 87 -8 0 -44 -20 -81 -45 -36 -25 -69 -45 -75 -45 -16 0 -10 26 11 45 11
10 20 27 20 38 0 20 147 174 157 164 2 -3 7 -85 9 -183z m-381 -101 c33 -16
36 -20 30 -48 -4 -16 -10 -50 -14 -74 l-6 -44 -37 72 c-31 61 -35 76 -25 92
14 23 9 23 52 2z"/>
<path d="M502 1882 c-47 -8 -48 -12 -81 -432 -5 -58 -9 -130 -9 -160 0 -99
-12 -213 -32 -325 -10 -60 -31 -175 -45 -255 -14 -80 -39 -183 -54 -230 -16
-47 -43 -130 -61 -185 -35 -110 -93 -236 -116 -256 -13 -10 -17 -10 -25 2 -5
8 -9 22 -9 31 0 24 -11 48 -21 48 -5 0 -9 -27 -9 -60 l0 -60 69 0 c64 0 71 2
94 30 14 16 31 46 38 67 6 20 19 45 28 54 9 10 45 107 80 216 69 218 55 195
165 260 22 13 51 35 65 50 24 24 71 48 80 41 2 -2 2 -93 0 -203 -5 -270 -1
-400 14 -460 13 -47 15 -50 49 -53 l37 -3 -5 123 c-2 68 0 227 5 355 8 204 12
237 31 280 40 88 52 141 44 199 -9 75 -26 71 -126 -27 -101 -99 -205 -184
-237 -194 l-23 -7 7 72 c4 39 15 104 24 143 15 65 19 71 47 79 18 4 53 31 83
63 47 50 71 66 71 49 0 -15 -24 -90 -32 -99 -4 -5 -8 -22 -8 -38 0 -46 22 -28
62 53 21 41 43 84 50 95 38 61 59 144 69 275 5 74 16 176 25 227 14 84 14 94
-1 116 -14 22 -41 36 -70 37 -23 0 -36 -46 -40 -143 -9 -208 -17 -291 -31
-319 -8 -15 -18 -28 -22 -28 -4 0 -25 -23 -46 -50 -35 -46 -111 -98 -119 -82
-2 4 0 66 4 137 4 92 12 146 27 185 27 75 47 301 30 337 -16 33 -46 51 -76 45z"/>
</g>
</svg>
