<?xml version="1.0" standalone="no"?>
<!DOCTYPE svg PUBLIC "-//W3C//DTD SVG 20010904//EN"
 "http://www.w3.org/TR/2001/REC-SVG-20010904/DTD/svg10.dtd">
<svg version="1.0" xmlns="http://www.w3.org/2000/svg"
 width="205.000000pt" height="208.000000pt" viewBox="0 0 205.000000 208.000000"
 preserveAspectRatio="xMidYMid meet">
<metadata>
Created by potrace 1.16, written by Peter Selinger 2001-2019
</metadata>
<g transform="translate(0.000000,208.000000) scale(0.100000,-0.100000)"
fill="#000000" stroke="none">
<path d="M1282 2013 c-18 -38 -32 -73 -32 -79 0 -5 -11 -34 -25 -62 -14 -29
-25 -55 -25 -59 0 -5 -14 -37 -31 -73 -67 -138 -103 -206 -124 -232 -13 -14
-38 -55 -58 -90 -42 -76 -70 -103 -121 -120 -56 -19 -67 -40 -36 -73 13 -14
30 -25 37 -25 29 0 89 -39 107 -70 16 -27 17 -44 12 -111 -7 -73 -6 -79 11
-79 10 0 33 19 51 42 28 36 32 50 32 100 0 77 -22 127 -75 172 -25 20 -45 41
-45 46 0 5 13 24 29 42 17 18 39 44 50 58 17 22 22 24 41 12 31 -19 57 -7 125
57 73 68 242 211 250 211 7 0 6 -51 -1 -89 -4 -17 -12 -31 -19 -31 -8 0 -26
-6 -42 -14 -15 -8 -43 -20 -60 -27 -49 -17 -92 -66 -130 -146 -18 -40 -40 -73
-47 -73 -28 0 -45 -34 -39 -78 3 -23 9 -45 14 -47 7 -5 5 -67 -7 -162 -3 -25
-10 -43 -18 -43 -7 0 -20 -6 -29 -13 -15 -10 -18 -34 -21 -152 -4 -168 -20
-219 -97 -314 -39 -49 -49 -68 -45 -87 7 -24 61 -60 85 -55 15 3 120 109 159
161 50 67 172 165 196 157 8 -3 11 -81 12 -250 0 -136 3 -250 7 -254 15 -15
27 16 47 127 11 63 26 131 32 150 7 19 13 62 15 95 1 33 7 83 14 110 6 28 14
66 19 85 15 68 27 86 80 113 37 19 67 27 104 27 58 0 76 12 76 50 0 31 -28 60
-58 60 -11 0 -24 5 -27 11 -5 6 -11 4 -19 -7 -10 -13 -21 -15 -46 -11 -19 4
-38 2 -46 -4 -8 -6 -14 -8 -14 -4 0 4 -7 1 -16 -6 -14 -12 -16 -11 -12 6 2 11
9 19 16 18 8 -2 10 7 6 27 -5 25 -2 31 20 41 20 9 26 20 26 43 0 17 7 40 15
50 17 23 20 62 5 71 -6 4 -26 -3 -44 -15 -19 -11 -37 -17 -39 -13 -8 14 22
362 33 383 16 29 18 276 3 291 -21 22 -60 0 -144 -82 -46 -45 -95 -88 -109
-97 -14 -9 -42 -29 -63 -45 -21 -16 -40 -27 -43 -25 -7 8 24 75 39 81 14 5 77
117 77 137 0 6 25 61 55 122 30 60 52 114 49 119 -3 5 -29 9 -58 9 l-52 0 -32
-67z m132 -840 c-6 -38 -15 -76 -19 -86 -4 -10 -2 -24 5 -32 7 -9 10 -28 6
-47 -3 -18 -8 -60 -11 -93 -6 -55 -10 -63 -48 -97 -23 -20 -61 -46 -83 -57
-23 -12 -47 -28 -54 -36 -10 -12 -40 -22 -40 -12 1 21 42 193 54 226 9 24 16
53 16 64 0 29 41 137 52 137 5 0 7 -13 3 -29 -9 -41 7 -45 36 -10 13 17 34 41
45 52 12 12 25 37 28 55 14 61 22 32 10 -35z"/>
<path d="M364 1857 c-54 -30 -57 -79 -11 -135 33 -39 34 -43 46 -189 13 -153
11 -320 -7 -553 -17 -222 -29 -276 -69 -324 -19 -22 -23 -37 -19 -59 3 -16 -1
-55 -9 -86 -9 -31 -21 -74 -26 -96 -28 -103 -51 -155 -70 -155 -12 0 -19 -7
-19 -18 0 -26 28 -62 48 -62 23 1 76 48 95 85 23 46 57 168 57 206 0 41 37
123 75 164 62 68 118 125 121 123 1 -2 4 -106 7 -233 6 -234 20 -392 41 -454
13 -41 40 -61 57 -44 14 14 14 33 8 418 -3 265 -2 285 19 375 19 75 22 105 15
145 -8 44 -12 50 -32 47 -15 -1 -21 2 -18 10 3 7 13 38 23 68 55 182 68 220
91 267 13 29 29 55 34 58 5 4 9 17 9 31 0 17 -5 24 -19 24 -11 0 -23 -4 -26
-10 -3 -5 -13 -10 -22 -10 -13 0 -14 10 -10 58 4 31 10 97 15 146 7 65 13 91
25 98 26 14 21 47 -9 58 -19 8 -34 5 -64 -10 -52 -26 -57 -50 -66 -278 l-7
-182 -52 -45 c-77 -66 -80 -65 -81 35 -1 47 -3 126 -4 175 -2 50 0 97 4 106 9
21 -18 169 -38 207 -8 16 -21 33 -28 39 -17 14 -59 14 -84 0z m249 -724 c-4
-21 -15 -69 -25 -108 -10 -38 -22 -81 -25 -95 -8 -33 -62 -100 -81 -100 -21 0
-7 95 19 128 10 14 19 39 19 56 0 34 30 98 63 134 29 31 37 28 30 -15z"/>
<path d="M1355 91 c-9 -69 -1 -91 36 -91 l29 0 0 64 c0 58 -2 64 -22 70 -36 9
-36 9 -43 -43z"/>
</g>
</svg>
