<?xml version="1.0" standalone="no"?>
<!DOCTYPE svg PUBLIC "-//W3C//DTD SVG 20010904//EN"
 "http://www.w3.org/TR/2001/REC-SVG-20010904/DTD/svg10.dtd">
<svg version="1.0" xmlns="http://www.w3.org/2000/svg"
 width="208.000000pt" height="209.000000pt" viewBox="0 0 208.000000 209.000000"
 preserveAspectRatio="xMidYMid meet">
<metadata>
Created by potrace 1.16, written by Peter Selinger 2001-2019
</metadata>
<g transform="translate(0.000000,209.000000) scale(0.100000,-0.100000)"
fill="#000000" stroke="none">
<path d="M1157 1918 c-13 -13 -38 -66 -57 -118 -42 -118 -74 -184 -115 -235
-18 -22 -52 -71 -76 -110 -88 -142 -177 -247 -234 -275 -22 -11 -69 -49 -105
-85 -35 -36 -70 -65 -77 -65 -7 0 -13 -4 -13 -8 0 -10 -87 -72 -100 -72 -13 0
-6 32 32 140 16 47 37 94 47 105 10 11 34 45 54 75 39 60 118 150 131 150 5 0
6 -18 2 -40 -3 -22 -2 -40 2 -40 12 0 42 34 42 46 0 6 9 29 20 51 33 69 49
126 49 173 0 102 8 200 19 213 14 17 8 24 -37 43 -27 11 -38 12 -59 1 -41 -20
-48 -40 -29 -84 11 -25 18 -70 19 -130 l2 -92 -84 -81 c-47 -45 -98 -91 -114
-102 l-29 -22 6 40 c3 21 13 79 21 127 9 49 18 112 21 139 3 28 10 59 15 69 6
10 10 48 10 86 0 64 -2 69 -29 84 -27 16 -31 16 -57 -2 -35 -22 -42 -44 -43
-130 -2 -102 -20 -264 -41 -354 -10 -44 -25 -129 -35 -190 -16 -106 -21 -134
-64 -330 -18 -84 -30 -156 -36 -215 -2 -14 -12 -70 -23 -125 -64 -310 -75
-342 -114 -329 -19 6 -20 3 -14 -27 14 -70 58 -67 123 10 41 49 52 70 62 123
7 34 19 95 28 133 8 39 23 116 33 172 11 57 24 112 30 122 11 22 104 103 139
121 23 12 24 11 17 -11 -47 -165 -80 -425 -79 -628 1 -165 6 -183 46 -162 30
16 44 74 52 211 3 58 12 143 19 190 8 47 17 117 21 155 8 87 46 218 91 311 19
38 34 80 34 91 0 36 16 35 52 -5 49 -54 56 -110 23 -199 -14 -40 -21 -71 -15
-77 5 -5 25 -5 44 -2 26 5 40 15 51 35 13 26 33 41 55 41 14 0 -61 -210 -94
-263 -30 -47 -29 -81 2 -116 30 -34 41 -36 97 -11 27 12 147 40 169 40 16 0
17 -7 11 -67 -4 -38 -9 -90 -10 -118 -2 -27 -11 -88 -20 -135 -31 -155 -31
-160 -1 -160 21 0 26 5 26 25 0 14 10 45 21 68 33 63 50 133 78 312 16 98 42
135 118 165 32 13 65 28 73 35 8 6 36 19 61 28 70 26 129 75 129 107 0 31 -49
25 -129 -15 -37 -19 -76 -35 -85 -35 -9 0 -33 -7 -53 -15 -20 -9 -40 -12 -45
-7 -11 11 8 165 27 223 14 40 22 50 56 63 43 17 54 50 19 59 -19 5 -19 7 -4
58 9 29 22 62 29 73 19 28 41 129 54 251 14 119 38 238 58 283 24 56 36 134
25 163 -8 21 -16 26 -39 23 -15 -1 -37 -14 -48 -27 -11 -14 -48 -48 -83 -77
-35 -29 -87 -74 -115 -100 -76 -70 -107 -93 -107 -79 0 7 6 20 14 28 20 24 76
134 76 151 0 8 14 39 30 69 17 30 30 62 30 71 0 43 -66 55 -103 18z m190 -335
c-8 -37 -20 -111 -27 -163 -6 -52 -23 -162 -36 -245 -26 -154 -31 -165 -78
-172 -42 -7 -52 -31 -61 -148 -3 -33 -10 -100 -16 -149 -12 -87 -13 -89 -46
-103 -53 -22 -135 -35 -147 -23 -6 6 -1 29 16 67 38 85 68 166 68 183 0 9 6
24 14 35 7 11 17 35 21 54 4 18 28 57 56 87 27 30 49 58 49 64 0 5 14 17 30
27 50 29 85 123 46 123 -6 0 -34 -18 -61 -41 -70 -58 -85 -65 -85 -39 0 25 69
94 132 133 15 10 35 29 44 43 15 23 15 27 2 40 -14 14 -22 12 -76 -15 -34 -17
-63 -31 -65 -31 -3 0 4 26 15 58 10 31 16 67 13 78 -4 17 11 37 69 92 41 38
83 73 94 76 11 4 22 16 26 28 3 12 8 19 12 16 3 -4 0 -38 -9 -75z m-337 -289
c0 -17 -12 -37 -35 -58 -38 -35 -44 -60 -19 -87 23 -26 3 -126 -31 -156 -15
-13 -32 -23 -39 -23 -7 0 -20 27 -30 61 -11 33 -29 72 -42 86 -32 34 -30 46 9
89 30 33 36 35 56 24 22 -11 27 -8 70 39 25 28 49 51 54 51 4 0 7 -12 7 -26z"/>
</g>
</svg>
