<?xml version="1.0" standalone="no"?>
<!DOCTYPE svg PUBLIC "-//W3C//DTD SVG 20010904//EN"
 "http://www.w3.org/TR/2001/REC-SVG-20010904/DTD/svg10.dtd">
<svg version="1.0" xmlns="http://www.w3.org/2000/svg"
 width="207.000000pt" height="210.000000pt" viewBox="0 0 207.000000 210.000000"
 preserveAspectRatio="xMidYMid meet">
<metadata>
Created by potrace 1.16, written by Peter Selinger 2001-2019
</metadata>
<g transform="translate(0.000000,210.000000) scale(0.100000,-0.100000)"
fill="#000000" stroke="none">
<path d="M733 1875 c-13 -9 -24 -30 -28 -57 -41 -274 -85 -448 -153 -599 -11
-24 -32 -71 -46 -104 -15 -33 -49 -94 -76 -136 -27 -42 -59 -98 -72 -125 -13
-27 -35 -62 -50 -79 -68 -76 -80 -92 -94 -117 -19 -36 -5 -36 53 -1 60 37 133
102 133 119 0 16 43 29 65 20 9 -3 25 4 38 17 12 12 53 38 92 58 38 20 105 55
149 78 43 23 81 40 83 37 3 -2 0 -46 -6 -98 -6 -51 -13 -138 -15 -193 -3 -55
-16 -165 -30 -245 -14 -79 -26 -164 -26 -187 0 -65 25 -45 50 40 28 93 49 154
67 194 15 34 27 119 42 298 18 207 37 251 133 310 31 19 60 35 66 35 5 0 15 7
22 15 7 8 24 21 39 28 14 8 40 21 56 30 17 10 47 23 68 31 58 23 46 76 -17 76
-34 0 -127 -33 -160 -56 -11 -8 -26 -14 -34 -14 -7 0 -30 -11 -50 -25 -20 -14
-40 -25 -44 -25 -11 0 -10 103 2 172 10 66 44 117 93 143 67 35 83 45 115 76
18 18 31 40 30 48 -5 23 -71 15 -117 -13 -20 -13 -46 -26 -58 -30 -22 -7 -23
-5 -23 46 0 29 7 66 15 82 8 15 15 35 15 42 0 8 11 20 25 26 26 12 44 54 29
67 -15 14 -118 20 -139 8 -29 -15 -34 -27 -34 -72 1 -83 -21 -230 -36 -241 -9
-6 -32 -14 -53 -18 -74 -11 -100 -59 -57 -102 21 -21 31 -24 57 -19 l31 7 -7
-128 c-7 -138 -17 -166 -67 -191 -172 -84 -233 -113 -241 -113 -13 0 -2 34 32
100 15 30 40 87 54 125 15 39 31 78 37 88 26 48 65 188 106 387 3 14 13 33 21
43 20 23 29 122 12 142 -16 19 -69 19 -97 0z"/>
</g>
</svg>
