<?xml version="1.0" standalone="no"?>
<!DOCTYPE svg PUBLIC "-//W3C//DTD SVG 20010904//EN"
 "http://www.w3.org/TR/2001/REC-SVG-20010904/DTD/svg10.dtd">
<svg version="1.0" xmlns="http://www.w3.org/2000/svg"
 width="209.000000pt" height="209.000000pt" viewBox="0 0 209.000000 209.000000"
 preserveAspectRatio="xMidYMid meet">
<metadata>
Created by potrace 1.16, written by Peter Selinger 2001-2019
</metadata>
<g transform="translate(0.000000,209.000000) scale(0.100000,-0.100000)"
fill="#000000" stroke="none">
<path d="M1402 1891 c-41 -31 -45 -40 -57 -137 -5 -41 -13 -58 -38 -81 -46
-41 -179 -132 -240 -163 -31 -16 -97 -84 -97 -101 0 -15 50 -59 67 -59 8 0 34
16 57 35 24 19 46 35 51 35 4 0 17 9 29 19 80 72 106 91 127 93 24 3 24 2 24
-81 l0 -83 -57 -52 c-32 -29 -95 -72 -140 -96 -110 -57 -147 -86 -146 -113 3
-50 76 -87 102 -51 7 9 27 24 43 33 44 23 135 86 168 117 35 32 45 20 45 -57
0 -54 -1 -56 -39 -81 -22 -14 -57 -32 -78 -38 -21 -7 -51 -22 -68 -34 -16 -11
-56 -34 -88 -51 -32 -16 -70 -41 -84 -54 -15 -12 -49 -30 -77 -38 -28 -8 -57
-20 -64 -25 -7 -6 -15 -8 -18 -5 -9 8 16 146 27 153 5 3 9 21 9 39 0 23 9 45
28 67 45 54 54 76 42 99 -9 16 -17 19 -41 14 -32 -7 -38 1 -14 19 9 7 20 40
26 81 6 39 16 80 22 93 14 29 0 56 -32 60 -21 3 -22 7 -17 55 18 157 18 201
-3 235 -23 35 -45 40 -79 16 -19 -13 -22 -24 -22 -77 0 -34 -3 -106 -7 -160
-6 -94 -7 -99 -33 -112 -15 -8 -38 -16 -51 -19 -13 -2 -39 -8 -56 -12 -31 -6
-33 -5 -33 19 0 14 4 29 10 32 6 3 10 15 10 25 0 10 7 23 16 28 19 10 43 76
44 118 0 34 -26 64 -56 64 -47 -1 -94 -54 -94 -106 0 -12 -4 -25 -9 -28 -4 -3
-14 -47 -20 -98 -7 -51 -28 -172 -46 -268 -18 -96 -39 -208 -46 -248 -11 -65
-17 -79 -56 -119 -46 -50 -55 -87 -25 -109 16 -12 16 -14 0 -46 -10 -18 -37
-77 -62 -130 -43 -94 -102 -184 -144 -221 -15 -14 -29 -17 -51 -12 -38 8 -43
-15 -9 -39 37 -26 82 -20 119 15 19 18 44 38 56 46 45 30 144 202 197 344 14
36 34 59 97 110 44 35 107 86 140 112 66 53 64 55 49 -58 -39 -291 -55 -535
-34 -542 6 -2 27 37 47 89 35 89 42 118 51 198 18 166 22 179 53 159 17 -10
29 -8 76 15 31 14 63 26 71 26 8 0 38 19 65 42 80 68 284 189 297 176 3 -3 6
-79 7 -167 l2 -162 -25 -19 c-33 -25 -170 -77 -260 -98 -45 -10 -75 -23 -81
-34 -9 -18 -2 -67 10 -69 49 -6 119 -41 161 -82 41 -39 123 -141 150 -185 11
-17 32 -38 48 -46 27 -14 31 -14 45 2 15 17 19 56 33 267 3 50 9 131 14 180 6
50 10 144 10 210 0 182 14 287 41 305 12 8 47 41 79 73 31 31 62 57 68 57 16
0 27 50 15 68 -16 27 -28 24 -76 -15 -56 -47 -115 -79 -125 -69 -16 17 -4 98
19 122 18 19 20 26 10 38 -10 12 -4 23 33 60 52 51 61 86 21 86 -30 0 -76 -22
-94 -44 -26 -31 -32 -16 -26 57 8 98 37 172 89 227 77 82 122 170 86 170 -4 0
-34 -21 -66 -47 -50 -41 -56 -44 -50 -22 4 13 9 39 13 57 5 29 3 32 -19 32
-14 0 -43 -13 -66 -29z m-646 -678 c-9 -113 -22 -160 -47 -174 -11 -6 -45 -31
-74 -57 -146 -127 -149 -126 -115 33 11 50 25 117 31 149 12 70 15 76 38 76 9
0 23 6 29 13 14 13 97 44 126 46 18 1 18 -5 12 -86z m575 -739 c-6 -32 -11
-84 -11 -116 0 -32 -3 -58 -7 -58 -5 0 -28 21 -53 46 -25 25 -57 52 -72 60
-32 16 -37 42 -10 51 9 3 35 18 57 33 107 72 114 70 96 -16z"/>
</g>
</svg>
