<?xml version="1.0" standalone="no"?>
<!DOCTYPE svg PUBLIC "-//W3C//DTD SVG 20010904//EN"
 "http://www.w3.org/TR/2001/REC-SVG-20010904/DTD/svg10.dtd">
<svg version="1.0" xmlns="http://www.w3.org/2000/svg"
 width="207.000000pt" height="210.000000pt" viewBox="0 0 207.000000 210.000000"
 preserveAspectRatio="xMidYMid meet">
<metadata>
Created by potrace 1.16, written by Peter Selinger 2001-2019
</metadata>
<g transform="translate(0.000000,210.000000) scale(0.100000,-0.100000)"
fill="#000000" stroke="none">
<path d="M603 1785 c-21 -15 -22 -21 -18 -163 4 -151 -1 -216 -15 -207 -5 3
-21 -34 -35 -82 -16 -54 -45 -117 -73 -161 -66 -102 -90 -142 -110 -181 -9
-19 -27 -46 -40 -59 -12 -14 -22 -29 -22 -33 0 -5 -14 -24 -31 -43 -16 -19
-34 -49 -39 -66 -8 -27 -6 -35 15 -56 38 -38 87 -27 99 23 8 30 68 136 126
219 19 28 48 78 64 112 31 65 52 82 42 35 -3 -16 -10 -68 -16 -118 -5 -49 -21
-153 -35 -230 -14 -77 -32 -185 -41 -240 -8 -55 -24 -142 -34 -194 -24 -113
-24 -121 -5 -121 20 0 57 62 79 135 10 33 21 67 26 75 4 9 11 31 14 50 4 19
18 85 31 145 14 61 32 154 41 207 l16 98 25 -20 c31 -24 56 -26 73 -5 7 8 17
15 22 15 6 0 32 11 60 25 27 14 56 25 64 25 9 0 31 12 50 26 l34 26 0 -23 c0
-33 -28 -192 -47 -264 -8 -33 -19 -82 -24 -110 -4 -27 -22 -110 -39 -183 -35
-156 -35 -152 -12 -152 21 0 66 98 102 225 30 104 44 127 73 120 29 -8 152 12
192 30 16 8 50 19 75 25 71 19 98 52 64 81 -13 11 -33 10 -117 -4 -141 -23
-202 -25 -201 -6 1 8 11 70 23 139 22 128 37 180 52 180 5 0 17 17 28 38 11
22 36 52 57 68 61 48 76 60 149 123 38 34 72 61 76 61 4 0 11 -9 14 -20 17
-53 55 8 55 87 0 32 -38 192 -58 243 -16 42 -38 55 -66 40 -36 -19 -49 -55
-32 -88 7 -15 17 -42 21 -61 4 -18 16 -54 27 -79 12 -25 17 -47 12 -49 -5 -2
-24 -13 -43 -26 -19 -12 -42 -26 -50 -32 -9 -5 -28 -21 -42 -35 -15 -14 -44
-35 -64 -48 l-38 -23 7 113 c4 73 14 133 27 171 16 46 18 61 9 72 -14 17 -73
13 -95 -5 -20 -17 -34 -90 -45 -238 -12 -168 -22 -204 -57 -222 -16 -8 -47
-27 -70 -42 -23 -15 -44 -28 -47 -28 -16 0 -143 -65 -186 -95 -27 -19 -50 -30
-50 -24 0 6 7 89 16 183 22 223 24 558 5 604 -15 35 -35 40 -68 17z"/>
<path d="M356 1731 c-22 -22 -49 -41 -60 -43 -35 -5 -32 -48 7 -98 48 -64 60
-102 66 -209 4 -56 11 -96 17 -98 13 -4 54 85 65 142 8 40 -11 149 -32 188 -8
14 -6 28 5 50 17 37 9 100 -15 105 -8 1 -32 -15 -53 -37z"/>
</g>
</svg>
