<?xml version="1.0" standalone="no"?>
<!DOCTYPE svg PUBLIC "-//W3C//DTD SVG 20010904//EN"
 "http://www.w3.org/TR/2001/REC-SVG-20010904/DTD/svg10.dtd">
<svg version="1.0" xmlns="http://www.w3.org/2000/svg"
 width="209.000000pt" height="211.000000pt" viewBox="0 0 209.000000 211.000000"
 preserveAspectRatio="xMidYMid meet">
<metadata>
Created by potrace 1.16, written by Peter Selinger 2001-2019
</metadata>
<g transform="translate(0.000000,211.000000) scale(0.100000,-0.100000)"
fill="#000000" stroke="none">
<path d="M858 2078 c-32 -8 -38 -14 -38 -38 0 -15 8 -38 19 -51 10 -13 27 -48
37 -78 l19 -53 -40 -32 c-55 -42 -188 -175 -209 -208 -33 -51 8 -121 61 -104
10 3 46 40 78 81 51 65 112 125 129 125 7 0 -14 -69 -34 -115 -10 -22 -39 -92
-64 -155 -26 -63 -63 -141 -82 -172 -19 -32 -37 -67 -39 -79 -7 -36 -45 -68
-45 -37 0 6 -15 24 -32 39 -32 26 -32 28 -20 61 16 45 15 63 -2 77 -11 9 -17
8 -28 -6 -18 -25 -64 -53 -86 -53 -26 0 -52 -31 -52 -63 0 -33 35 -57 121 -84
33 -10 59 -23 59 -30 0 -11 -27 -39 -110 -113 -34 -30 -38 -59 -13 -88 35 -40
57 -37 111 17 48 49 112 137 141 194 8 15 29 34 45 42 17 8 51 33 75 55 24 22
47 40 52 40 11 0 -9 -54 -37 -104 -13 -23 -24 -53 -24 -68 0 -28 30 -68 51
-68 38 0 118 82 167 173 36 67 45 76 57 57 3 -6 20 -17 36 -25 28 -15 32 -14
81 12 29 15 63 38 77 51 14 12 28 22 31 22 12 0 41 62 36 77 -6 15 -40 15 -77
-1 -12 -5 -5 15 22 66 96 183 109 212 109 237 0 41 -11 50 -49 42 -34 -6 -64
-41 -159 -182 -33 -50 -187 -238 -194 -239 -5 0 -8 9 -8 19 0 22 -45 62 -63
56 -47 -14 -77 -14 -77 1 0 9 27 72 60 140 33 68 66 143 74 165 17 50 7 89
-24 89 -11 0 -20 5 -20 10 0 6 4 10 8 10 5 0 24 14 43 31 19 17 46 38 62 47
15 9 27 19 27 23 0 4 20 19 44 33 42 25 64 62 47 79 -17 17 -76 11 -106 -10
-17 -11 -52 -35 -80 -52 l-50 -32 -7 48 c-4 26 -6 59 -3 73 3 14 1 31 -3 37
-11 18 -61 23 -104 11z"/>
<path d="M1109 1069 c-27 -29 -48 -105 -42 -149 6 -35 -9 -61 -45 -79 -21 -11
-72 -42 -113 -69 -41 -27 -89 -54 -106 -60 -18 -6 -64 -31 -103 -56 -38 -25
-81 -48 -94 -52 -14 -3 -32 -14 -42 -25 -9 -10 -22 -19 -29 -19 -6 0 -26 -17
-43 -39 -34 -43 -34 -72 1 -89 46 -23 63 -23 83 -1 10 12 47 35 81 50 34 16
76 44 93 62 17 19 56 47 88 63 31 16 84 47 117 70 107 75 100 89 100 -211 0
-143 -4 -281 -9 -308 -8 -47 -8 -47 25 -61 78 -33 88 7 91 380 3 261 5 294 21
311 9 11 17 27 17 36 0 9 4 17 8 17 5 0 36 22 70 49 34 27 70 52 81 56 24 7
75 80 66 94 -17 28 -146 -13 -206 -65 -8 -8 -18 -14 -21 -14 -10 0 4 39 18 51
26 21 16 48 -26 69 -21 11 -42 20 -46 20 -3 0 -19 -14 -35 -31z"/>
</g>
</svg>
