<?xml version="1.0" standalone="no"?>
<!DOCTYPE svg PUBLIC "-//W3C//DTD SVG 20010904//EN"
 "http://www.w3.org/TR/2001/REC-SVG-20010904/DTD/svg10.dtd">
<svg version="1.0" xmlns="http://www.w3.org/2000/svg"
 width="206.000000pt" height="207.000000pt" viewBox="0 0 206.000000 207.000000"
 preserveAspectRatio="xMidYMid meet">
<metadata>
Created by potrace 1.16, written by Peter Selinger 2001-2019
</metadata>
<g transform="translate(0.000000,207.000000) scale(0.100000,-0.100000)"
fill="#000000" stroke="none">
<path d="M1314 1738 c-15 -24 -41 -56 -58 -73 -17 -16 -66 -67 -109 -113 -96
-104 -101 -133 -21 -146 41 -7 41 -7 90 53 45 56 71 70 60 33 -3 -10 -7 -69
-11 -132 -7 -144 -14 -232 -21 -292 -5 -43 -9 -48 -31 -48 -28 0 -76 -45 -108
-100 -11 -19 -37 -64 -57 -100 -21 -36 -49 -87 -63 -115 -31 -63 -145 -231
-180 -267 -32 -32 -27 -58 10 -58 28 0 105 63 105 86 0 8 17 31 39 52 21 20
48 56 59 79 12 23 33 53 46 68 13 14 30 34 38 45 7 10 31 21 54 25 l41 6 11
-83 c6 -46 14 -119 18 -163 4 -44 11 -88 16 -98 10 -19 72 -24 84 -6 6 11 6
219 -1 273 -7 59 4 69 86 72 131 5 151 14 130 60 -9 20 -17 25 -36 22 -23 -5
-100 4 -154 17 -24 6 -24 6 -17 113 4 59 11 139 16 177 5 39 12 135 16 215 4
101 14 172 30 234 23 90 23 99 -2 194 -2 6 -15 12 -29 12 -18 0 -32 -11 -51
-42z"/>
<path d="M749 1694 c-31 -19 -90 -69 -130 -111 -41 -41 -94 -94 -119 -117 -90
-82 -170 -171 -170 -189 0 -58 64 -82 124 -46 20 11 39 32 42 44 3 13 14 31
24 40 17 15 17 10 14 -119 l-4 -135 -51 -48 c-28 -26 -59 -52 -70 -57 -10 -5
-19 -13 -19 -17 0 -5 -13 -15 -29 -23 -62 -33 -64 -119 -2 -128 26 -4 41 4 88
44 62 52 73 57 73 31 0 -146 -58 -405 -95 -425 -9 -6 -34 -37 -55 -71 -41 -64
-41 -84 -1 -114 29 -23 47 -13 122 64 41 43 93 96 115 119 23 23 43 45 45 50
2 5 51 54 109 108 58 55 111 108 119 119 8 12 22 28 31 37 8 8 41 47 73 86 55
69 72 114 43 114 -14 0 -112 -79 -206 -167 -74 -69 -223 -193 -232 -193 -12 0
-10 20 7 94 8 36 19 115 24 176 6 78 14 117 25 129 9 10 16 27 16 39 0 11 15
36 33 54 18 18 39 47 46 65 22 54 -4 68 -61 33 -18 -11 -37 -20 -41 -20 -9 0
-2 57 16 124 12 45 16 50 52 61 28 7 41 17 43 30 5 39 -13 50 -78 48 -65 -1
-74 7 -35 33 14 9 48 46 76 82 29 36 73 85 98 108 39 36 44 46 35 61 -17 27
-34 25 -95 -13z"/>
</g>
</svg>
