<?xml version="1.0" standalone="no"?>
<!DOCTYPE svg PUBLIC "-//W3C//DTD SVG 20010904//EN"
 "http://www.w3.org/TR/2001/REC-SVG-20010904/DTD/svg10.dtd">
<svg version="1.0" xmlns="http://www.w3.org/2000/svg"
 width="208.000000pt" height="205.000000pt" viewBox="0 0 208.000000 205.000000"
 preserveAspectRatio="xMidYMid meet">
<metadata>
Created by potrace 1.16, written by Peter Selinger 2001-2019
</metadata>
<g transform="translate(0.000000,205.000000) scale(0.100000,-0.100000)"
fill="#000000" stroke="none">
<path d="M1197 1773 c-11 -10 -63 -123 -80 -173 -9 -25 -28 -72 -42 -105 -15
-33 -33 -78 -40 -100 -38 -117 -61 -168 -147 -325 -19 -36 -39 -76 -43 -90 -4
-14 -13 -32 -20 -40 -7 -8 -30 -48 -50 -89 -21 -40 -49 -84 -62 -97 -13 -14
-23 -32 -21 -42 4 -21 34 -28 54 -11 23 19 154 196 154 207 0 6 10 23 23 39
12 15 27 36 32 45 36 58 80 118 87 118 17 0 48 -92 48 -140 0 -53 19 -95 57
-124 24 -18 27 -18 59 -2 40 19 64 21 64 5 0 -29 -96 -182 -175 -277 -17 -20
-44 -57 -60 -82 -66 -104 -78 -120 -130 -174 -30 -31 -55 -62 -55 -67 0 -46
69 -85 135 -76 25 4 57 2 72 -5 16 -6 38 -10 50 -9 11 1 24 -2 27 -8 4 -5 28
-13 54 -17 26 -4 63 -14 82 -24 97 -47 284 -62 297 -24 4 11 -53 38 -102 49
-16 4 -71 26 -120 49 -50 24 -115 49 -145 56 -30 8 -66 21 -80 31 -14 9 -38
20 -54 26 -40 13 -42 25 -8 65 16 18 32 40 36 48 16 35 33 59 65 90 18 19 41
53 51 75 10 23 31 57 47 76 90 108 145 238 129 304 -6 23 -11 25 -64 25 -31 0
-79 -7 -106 -15 -27 -8 -50 -14 -52 -13 -1 2 1 23 6 47 4 24 4 56 0 70 -5 14
-11 52 -15 84 -6 50 -10 59 -36 72 l-29 15 21 52 c25 64 38 88 47 88 4 0 20
-22 35 -50 35 -61 64 -81 84 -54 17 23 16 52 -2 105 -9 24 -13 54 -10 67 7 29
-22 85 -41 78 -19 -7 -18 14 2 42 8 12 28 54 45 94 27 66 28 73 14 95 -11 16
-25 23 -49 23 -18 0 -36 -3 -39 -7z"/>
<path d="M760 1586 c-23 -23 -81 -63 -125 -87 -22 -12 -45 -29 -52 -38 -7 -9
-13 -12 -13 -7 0 4 -20 -8 -44 -28 -24 -20 -47 -36 -51 -36 -3 0 -44 -16 -90
-37 -52 -22 -87 -43 -91 -55 -14 -44 28 -119 58 -104 7 3 42 26 78 51 36 24
80 55 99 67 19 13 46 35 62 51 15 15 30 27 34 27 4 0 20 10 35 23 15 12 40 31
56 42 64 46 94 87 94 131 0 18 -32 18 -50 0z"/>
<path d="M577 1240 c-21 -16 -27 -35 -37 -104 l-13 -85 -82 -56 c-80 -54 -105
-65 -105 -45 0 19 -31 10 -39 -12 -9 -23 -20 -33 -79 -68 -28 -17 -33 -25 -30
-53 3 -28 8 -33 41 -41 45 -12 92 8 190 81 67 49 79 52 73 21 -3 -13 -7 -43
-11 -68 -6 -48 -36 -182 -60 -265 -7 -27 -19 -72 -26 -100 -16 -67 -45 -122
-66 -130 -10 -3 -33 -24 -50 -47 -42 -52 -45 -99 -8 -116 14 -7 34 -12 43 -12
10 0 59 40 110 90 51 49 95 90 97 90 2 0 31 19 65 43 116 79 102 68 224 173
52 44 71 67 71 85 0 31 -21 28 -79 -11 -24 -17 -47 -30 -50 -30 -3 0 -43 -25
-88 -56 -46 -31 -105 -67 -133 -81 -27 -14 -61 -37 -74 -52 -34 -36 -37 -13
-6 51 50 102 103 265 149 458 20 83 46 153 77 212 12 23 12 48 -1 48 -5 0 -10
13 -10 28 0 52 -55 82 -93 52z"/>
</g>
</svg>
