<?xml version="1.0" standalone="no"?>
<!DOCTYPE svg PUBLIC "-//W3C//DTD SVG 20010904//EN"
 "http://www.w3.org/TR/2001/REC-SVG-20010904/DTD/svg10.dtd">
<svg version="1.0" xmlns="http://www.w3.org/2000/svg"
 width="207.000000pt" height="204.000000pt" viewBox="0 0 207.000000 204.000000"
 preserveAspectRatio="xMidYMid meet">
<metadata>
Created by potrace 1.16, written by Peter Selinger 2001-2019
</metadata>
<g transform="translate(0.000000,204.000000) scale(0.100000,-0.100000)"
fill="#000000" stroke="none">
<path d="M1196 1837 c-24 -17 -47 -131 -45 -222 2 -83 -8 -106 -59 -140 -20
-13 -70 -50 -111 -82 -56 -44 -77 -67 -84 -92 -12 -49 -2 -77 32 -89 32 -11
38 -8 91 62 32 42 89 88 100 81 8 -5 -16 -233 -31 -300 -7 -27 -25 -75 -42
-105 -24 -44 -27 -58 -18 -73 21 -32 1 -85 -56 -155 -30 -37 -59 -69 -65 -71
-15 -5 -2 97 27 199 13 47 31 120 41 163 9 42 21 77 25 77 5 0 9 11 9 24 0 26
-51 58 -79 49 -57 -18 -58 -20 -70 -132 -7 -58 -21 -135 -31 -171 -11 -36 -24
-94 -29 -129 -10 -59 -14 -67 -63 -112 -29 -26 -57 -48 -62 -49 -5 0 -18 -9
-30 -20 -58 -56 -141 -108 -153 -96 -7 7 16 281 28 346 10 51 18 61 94 135 99
95 116 121 104 153 -4 12 -11 22 -14 22 -3 0 -37 -27 -76 -60 -38 -33 -74 -60
-79 -60 -19 0 -19 20 -1 63 16 37 25 46 48 49 66 7 23 62 -47 60 -99 -4 -105
-11 -125 -174 -12 -101 -15 -109 -47 -138 -34 -32 -155 -120 -164 -120 -3 0
-26 -16 -50 -36 -66 -54 -58 -104 18 -104 32 0 49 10 125 75 61 53 89 71 94
62 10 -17 -6 -252 -21 -307 -12 -46 -44 -99 -68 -113 -7 -5 -18 -20 -23 -34
-19 -50 58 -98 92 -57 7 8 25 22 40 30 15 7 52 39 82 69 30 30 60 55 67 55 6
0 21 11 32 25 11 14 25 25 32 25 7 0 27 16 46 35 55 57 57 51 24 -80 -18 -71
-110 -293 -130 -316 -8 -8 -14 -25 -14 -37 0 -19 6 -22 38 -22 45 0 57 7 67
40 4 14 17 39 29 55 44 59 66 112 106 255 22 80 47 161 56 180 l15 35 -6 -37
c-6 -41 5 -53 46 -50 22 2 27 -3 32 -27 4 -16 1 -58 -4 -93 -14 -84 -4 -197
19 -214 36 -27 112 20 164 102 34 53 59 62 101 35 17 -12 48 -28 67 -37 67
-30 155 -76 170 -89 8 -7 29 -17 45 -22 52 -14 149 -70 179 -102 28 -29 34
-31 103 -31 76 0 87 6 52 30 -11 8 -37 31 -58 50 -68 64 -99 90 -105 90 -4 0
-23 11 -44 25 -20 13 -56 31 -80 39 -24 9 -55 25 -69 36 -14 11 -34 20 -43 20
-10 0 -23 7 -30 15 -7 9 -38 28 -69 43 -52 25 -91 54 -91 68 0 3 9 18 19 33
11 15 29 50 39 77 11 27 61 132 110 234 104 213 125 285 98 338 -14 27 -21 32
-39 26 -46 -13 -221 -133 -279 -190 -21 -21 -41 -34 -45 -31 -6 6 6 56 29 119
6 15 20 39 33 52 50 54 210 413 221 498 4 26 3 59 0 74 -6 24 -10 26 -45 21
-21 -2 -57 -17 -80 -32 -24 -14 -45 -24 -48 -22 -2 3 1 50 7 106 7 56 10 108
6 116 -7 18 -56 20 -80 2z m79 -421 c-30 -83 -47 -93 -34 -20 8 44 46 111 56
100 3 -3 -7 -39 -22 -80z m115 -477 c0 -6 -8 -23 -19 -37 -10 -15 -29 -52 -42
-82 -12 -30 -33 -71 -44 -90 -12 -19 -25 -46 -30 -60 -17 -56 -109 -210 -125
-210 -10 0 -34 14 -55 30 -21 17 -43 31 -49 31 -27 3 -52 -4 -59 -17 -4 -8
-13 -14 -18 -14 -43 0 251 329 376 422 53 40 65 45 65 27z m-330 -589 c12 -8
13 -13 3 -27 -7 -10 -22 -35 -33 -56 -25 -45 -46 -43 -44 4 3 74 33 105 74 79z"/>
<path d="M793 1548 c-24 -13 -102 -63 -174 -113 -72 -49 -143 -97 -159 -105
-15 -8 -40 -27 -55 -42 -15 -15 -36 -30 -46 -33 -10 -4 -19 -13 -19 -21 0 -8
-7 -14 -15 -14 -8 0 -41 -26 -74 -57 -32 -32 -67 -63 -77 -69 -27 -16 -23 -72
7 -95 31 -24 56 -24 99 2 39 24 59 47 60 68 0 20 72 102 120 136 23 17 64 49
91 72 27 23 75 59 106 79 32 20 65 44 75 53 9 9 44 38 77 66 44 35 61 55 59
70 -4 28 -26 29 -75 3z"/>
</g>
</svg>
