<?xml version="1.0" standalone="no"?>
<!DOCTYPE svg PUBLIC "-//W3C//DTD SVG 20010904//EN"
 "http://www.w3.org/TR/2001/REC-SVG-20010904/DTD/svg10.dtd">
<svg version="1.0" xmlns="http://www.w3.org/2000/svg"
 width="204.000000pt" height="208.000000pt" viewBox="0 0 204.000000 208.000000"
 preserveAspectRatio="xMidYMid meet">
<metadata>
Created by potrace 1.16, written by Peter Selinger 2001-2019
</metadata>
<g transform="translate(0.000000,208.000000) scale(0.100000,-0.100000)"
fill="#000000" stroke="none">
<path d="M1358 1698 c-16 -5 -29 -17 -30 -26 -6 -75 -80 -287 -125 -362 -22
-36 -47 -86 -57 -112 -9 -25 -24 -52 -32 -58 -7 -7 -14 -16 -14 -21 0 -9 -55
-101 -83 -139 -10 -14 -40 -57 -65 -96 -26 -40 -60 -88 -76 -108 -23 -30 -26
-39 -16 -51 7 -8 17 -15 22 -15 17 0 159 144 178 181 10 19 32 48 48 65 39 38
108 147 169 264 27 52 57 106 65 120 9 14 20 37 23 53 10 37 19 41 54 22 69
-35 196 -3 189 48 -3 19 -11 23 -63 28 -88 10 -130 23 -130 39 0 8 4 45 9 83
11 91 -2 109 -66 85z"/>
<path d="M858 1413 c-123 -112 -153 -137 -191 -163 -59 -40 -60 -74 -1 -110
l33 -21 31 23 c17 12 40 37 51 55 11 18 30 41 42 50 57 46 147 177 147 214 0
35 -36 20 -112 -48z"/>
<path d="M1389 1234 c-38 -52 -45 -64 -111 -185 -56 -104 -131 -221 -152 -238
-25 -21 -19 -55 14 -79 16 -12 31 -22 34 -22 3 0 41 36 86 81 51 50 88 79 98
77 30 -6 17 -36 -100 -218 -55 -86 -60 -115 -22 -132 23 -11 34 -8 88 22 138
74 126 -13 -31 -217 -30 -40 -59 -73 -63 -73 -5 0 -36 -27 -69 -60 -34 -33
-66 -60 -73 -60 -7 -1 -29 -14 -48 -30 -19 -17 -40 -30 -47 -30 -7 0 -13 -4
-13 -9 0 -6 -13 -18 -30 -28 -60 -35 -24 -44 63 -17 29 10 59 23 68 30 8 8 18
14 22 14 7 0 140 89 147 98 11 15 88 72 98 72 6 0 29 24 51 52 22 29 44 58 49
63 4 6 22 39 40 74 26 53 32 76 32 131 0 75 -13 95 -69 106 -18 4 -35 13 -38
20 -5 14 19 65 53 110 18 23 25 47 28 96 2 36 0 71 -4 78 -4 7 -31 15 -59 18
-28 2 -51 6 -51 7 0 1 12 29 26 61 32 73 64 172 64 200 0 19 -17 34 -39 34 -4
0 -23 -21 -42 -46z"/>
<path d="M758 1103 c-55 -19 -58 -25 -58 -149 0 -86 -1 -92 -27 -115 -36 -33
-79 -59 -96 -59 -7 0 -27 -15 -43 -32 -17 -18 -44 -41 -62 -50 -41 -22 -52
-62 -24 -89 33 -30 59 -23 144 41 43 33 84 60 90 60 16 0 3 -133 -21 -217 -18
-67 -56 -143 -71 -143 -8 0 -52 -43 -87 -85 -31 -36 -29 -58 7 -88 35 -30 64
-26 86 12 9 14 31 36 50 49 19 12 34 26 34 31 0 11 96 83 133 99 15 6 30 19
33 27 4 8 11 15 16 15 11 0 95 60 134 94 37 34 86 71 105 78 9 3 21 20 27 38
15 40 -2 48 -51 23 -20 -10 -64 -32 -99 -50 -35 -17 -85 -47 -110 -66 -47 -36
-81 -57 -94 -57 -3 0 -3 15 0 33 4 17 11 75 16 127 17 168 31 228 66 268 38
45 64 94 64 122 0 28 -13 25 -53 -10 -19 -16 -37 -30 -41 -30 -11 0 -5 55 9
80 34 60 12 72 -77 43z"/>
</g>
</svg>
