<?xml version="1.0" standalone="no"?>
<!DOCTYPE svg PUBLIC "-//W3C//DTD SVG 20010904//EN"
 "http://www.w3.org/TR/2001/REC-SVG-20010904/DTD/svg10.dtd">
<svg version="1.0" xmlns="http://www.w3.org/2000/svg"
 width="208.000000pt" height="207.000000pt" viewBox="0 0 208.000000 207.000000"
 preserveAspectRatio="xMidYMid meet">
<metadata>
Created by potrace 1.16, written by Peter Selinger 2001-2019
</metadata>
<g transform="translate(0.000000,207.000000) scale(0.100000,-0.100000)"
fill="#000000" stroke="none">
<path d="M1318 1829 c-30 -11 -42 -37 -43 -89 -1 -19 -2 -96 -3 -171 l-2 -136
-59 -42 c-33 -22 -64 -41 -70 -41 -6 0 -15 -9 -21 -20 -6 -11 -17 -20 -24 -20
-22 0 -66 -58 -59 -78 19 -54 68 -68 108 -28 12 13 40 34 60 46 l37 23 -3 -69
c-5 -80 -5 -81 -139 -187 -47 -37 -92 -73 -100 -80 -8 -7 -33 -21 -55 -31 -22
-11 -53 -30 -68 -42 -28 -23 -57 -32 -57 -16 0 4 7 21 16 37 24 46 124 292
124 307 0 29 141 440 155 455 14 13 14 18 2 37 -8 11 -31 25 -52 31 -33 8 -40
7 -56 -14 -11 -13 -19 -32 -19 -43 0 -10 -9 -36 -20 -58 -11 -22 -20 -50 -20
-63 0 -30 -28 -135 -45 -169 -7 -15 -16 -42 -20 -60 -4 -18 -11 -46 -16 -63
-46 -149 -80 -236 -128 -330 -65 -128 -136 -280 -146 -312 -10 -37 -125 -106
-125 -76 0 4 13 43 30 87 16 45 36 126 45 181 26 173 27 180 41 195 7 8 17 34
22 58 6 23 22 58 36 77 33 43 33 51 -4 59 -27 5 -30 8 -24 33 3 16 13 38 20
50 8 12 11 29 8 37 -3 8 2 26 11 39 19 29 12 71 -17 104 l-20 21 40 51 c64 81
68 150 7 123 -28 -13 -90 -59 -140 -105 -16 -15 -48 -40 -70 -55 -71 -49 -107
-90 -100 -115 21 -68 65 -86 115 -47 14 11 28 20 32 20 9 0 -2 -181 -12 -200
-4 -8 -34 -28 -66 -45 -65 -34 -114 -76 -114 -98 0 -18 55 -67 75 -67 7 0 18
7 25 15 7 8 23 15 37 15 27 0 27 16 -3 -160 -9 -52 -22 -105 -30 -117 -8 -12
-14 -28 -14 -35 0 -40 -55 -176 -86 -212 -40 -47 -42 -62 -11 -102 26 -34 58
-35 97 0 36 31 85 56 109 56 12 0 40 17 64 38 38 35 73 60 116 87 9 5 64 41
124 79 104 68 107 71 107 107 0 35 5 41 100 116 190 149 200 155 200 107 0
-35 -16 -63 -59 -104 -20 -19 -50 -56 -66 -81 -17 -26 -52 -80 -80 -120 -27
-41 -56 -86 -65 -101 -24 -44 -136 -201 -161 -228 -13 -14 -37 -34 -52 -45
-30 -22 -29 -55 2 -55 22 0 98 50 133 86 15 16 44 47 65 69 59 63 106 127 134
185 7 14 25 39 41 55 15 17 39 53 52 80 29 57 32 44 16 -65 -5 -36 -12 -93
-15 -128 -4 -35 -11 -86 -16 -115 -29 -160 -23 -197 30 -197 36 0 51 17 51 59
0 32 6 75 40 272 6 30 10 65 10 78 0 12 5 31 11 43 l11 20 22 -21 c18 -17 44
-24 117 -32 51 -6 105 -17 121 -25 35 -18 82 -18 98 0 15 19 6 34 -55 88 -49
44 -52 45 -134 51 -46 3 -88 10 -94 16 -6 6 -24 11 -40 11 l-29 0 7 73 c4 39
11 90 16 112 5 22 9 58 10 80 2 85 20 119 112 215 49 51 87 100 87 111 0 29
-28 34 -60 11 -16 -12 -45 -31 -66 -42 l-37 -21 7 23 c4 13 11 63 17 111 10
77 9 90 -5 106 -11 12 -16 37 -16 84 0 37 4 67 8 67 14 0 34 118 23 139 -9 16
-55 53 -63 50 -2 0 -15 -5 -30 -10z m-518 -1142 c0 -6 -85 -57 -94 -57 -14 0
-3 29 25 68 l31 42 19 -24 c10 -13 19 -26 19 -29z"/>
</g>
</svg>
