<?xml version="1.0" standalone="no"?>
<!DOCTYPE svg PUBLIC "-//W3C//DTD SVG 20010904//EN"
 "http://www.w3.org/TR/2001/REC-SVG-20010904/DTD/svg10.dtd">
<svg version="1.0" xmlns="http://www.w3.org/2000/svg"
 width="206.000000pt" height="209.000000pt" viewBox="0 0 206.000000 209.000000"
 preserveAspectRatio="xMidYMid meet">
<metadata>
Created by potrace 1.16, written by Peter Selinger 2001-2019
</metadata>
<g transform="translate(0.000000,209.000000) scale(0.100000,-0.100000)"
fill="#000000" stroke="none">
<path d="M1094 1874 c-15 -22 -16 -47 -12 -192 3 -92 3 -177 -1 -189 -6 -22
-151 -153 -168 -153 -5 0 -22 -13 -38 -30 -16 -16 -34 -30 -39 -30 -20 0 -110
-70 -159 -122 -53 -58 -56 -80 -15 -111 38 -28 64 -17 128 58 30 36 60 65 67
65 7 0 17 8 22 18 5 10 22 24 38 32 15 8 49 38 75 66 26 28 56 54 67 57 17 4
20 -2 26 -63 11 -110 14 -492 4 -531 -7 -27 -17 -40 -39 -49 -16 -7 -35 -18
-41 -26 -15 -18 -49 -18 -49 -1 0 17 -29 50 -56 65 -17 9 -29 7 -62 -9 -49
-25 -50 -25 -97 -114 -20 -38 -48 -86 -62 -105 -30 -42 -27 -71 10 -88 37 -18
81 -9 153 28 31 17 61 30 68 30 10 0 25 -47 88 -285 6 -22 21 -63 34 -92 13
-29 28 -63 34 -78 8 -22 16 -25 54 -25 56 0 57 2 57 221 -1 93 3 169 7 169 4
0 17 -7 29 -15 29 -21 288 -31 404 -17 99 12 139 28 139 53 0 16 -13 18 -142
18 -124 0 -211 11 -296 37 -19 6 -8 34 49 123 27 42 49 79 49 83 0 4 13 29 29
55 36 59 44 98 35 158 -8 57 -37 76 -86 57 -30 -11 -30 -11 -24 16 7 26 21
136 31 237 2 28 7 74 11 104 3 29 10 113 14 185 5 72 14 164 20 204 16 106 11
145 -20 153 -14 3 -37 0 -52 -7 -21 -11 -29 -25 -38 -71 -11 -52 -19 -65 -81
-125 -37 -38 -69 -68 -71 -68 -2 0 -3 70 -3 155 0 128 -3 157 -15 165 -27 17
-59 11 -76 -16z m222 -456 c-3 -84 -8 -193 -11 -243 -3 -49 -7 -118 -9 -151
-4 -73 -9 -84 -42 -84 -26 0 -33 -27 -12 -48 10 -10 7 -17 -10 -34 -14 -14
-25 -19 -31 -13 -13 15 -24 510 -12 572 9 44 19 60 63 102 29 28 57 51 62 51
4 0 5 -69 2 -152z m84 -597 c0 -39 -54 -131 -163 -279 -22 -29 -43 -49 -48
-46 -5 3 -9 50 -9 105 l0 100 49 48 c43 42 138 101 163 101 4 0 8 -13 8 -29z
m-514 -213 c4 -15 1 -25 -12 -35 -24 -18 -37 -2 -25 30 13 33 27 35 37 5z
m198 -30 c6 -35 -1 -269 -9 -276 -2 -3 -7 4 -10 14 -4 10 -11 28 -17 39 -6 11
-14 53 -19 95 -4 41 -10 83 -14 92 -5 11 2 26 19 43 33 33 43 32 50 -7z"/>
<path d="M487 1505 c-53 -20 -136 -65 -170 -92 -16 -13 -41 -26 -55 -29 -39
-9 -135 -55 -147 -70 -5 -7 -34 -20 -62 -29 l-53 -17 0 -69 c0 -59 3 -69 18
-69 29 0 101 41 162 94 25 21 68 48 96 61 27 12 66 36 85 52 18 17 57 42 84
57 28 14 68 42 90 61 39 34 39 35 21 50 -23 18 -20 18 -69 0z"/>
<path d="M291 1163 c-23 -16 -24 -18 -17 -128 7 -124 7 -124 -69 -185 -34 -27
-40 -29 -54 -16 -18 16 -30 11 -47 -19 -6 -11 -24 -26 -40 -34 -50 -24 -64
-42 -64 -83 0 -31 5 -41 25 -50 21 -9 32 -7 74 15 27 15 61 33 76 41 14 8 35
23 46 35 37 40 49 28 43 -41 -17 -198 -68 -356 -145 -446 -6 -7 -13 -31 -16
-52 -5 -33 -2 -40 20 -55 33 -21 60 -13 112 34 22 20 69 56 103 81 35 25 80
57 99 73 20 15 41 27 48 27 7 0 25 15 40 32 15 18 36 38 45 43 30 17 110 93
110 105 0 28 -38 18 -129 -35 -55 -31 -105 -63 -112 -71 -6 -8 -18 -14 -26
-14 -8 0 -28 -11 -45 -25 -35 -29 -62 -33 -54 -7 30 98 46 192 56 322 13 153
23 193 56 221 23 19 64 85 64 104 0 25 -28 29 -65 9 -19 -10 -38 -15 -42 -10
-4 4 -8 31 -8 60 0 80 -32 106 -84 69z"/>
</g>
</svg>
