<?xml version="1.0" standalone="no"?>
<!DOCTYPE svg PUBLIC "-//W3C//DTD SVG 20010904//EN"
 "http://www.w3.org/TR/2001/REC-SVG-20010904/DTD/svg10.dtd">
<svg version="1.0" xmlns="http://www.w3.org/2000/svg"
 width="209.000000pt" height="209.000000pt" viewBox="0 0 209.000000 209.000000"
 preserveAspectRatio="xMidYMid meet">
<metadata>
Created by potrace 1.16, written by Peter Selinger 2001-2019
</metadata>
<g transform="translate(0.000000,209.000000) scale(0.100000,-0.100000)"
fill="#000000" stroke="none">
<path d="M1416 1964 c-44 -30 -84 -54 -91 -54 -6 0 -22 -12 -36 -26 -24 -26
-127 -84 -151 -84 -7 -1 -31 -16 -52 -36 -36 -31 -39 -37 -30 -61 13 -37 58
-62 81 -46 32 22 126 73 135 73 4 0 8 -27 8 -60 0 -52 -3 -61 -26 -77 -14 -10
-42 -31 -62 -48 -21 -16 -46 -35 -57 -41 -31 -16 -85 -103 -85 -135 0 -63 86
-77 118 -18 22 39 81 103 88 96 9 -8 -13 -138 -25 -150 -7 -7 -16 -5 -29 6
-16 15 -20 15 -39 2 -59 -42 -157 -145 -198 -210 -10 -16 -22 -34 -27 -40 -31
-36 -102 -153 -137 -223 -22 -46 -59 -109 -82 -140 -50 -69 -158 -234 -179
-272 -8 -16 -27 -42 -42 -59 -16 -17 -28 -37 -28 -44 0 -7 -15 -31 -33 -53
-18 -21 -40 -48 -48 -60 -21 -31 -90 -114 -126 -153 -37 -39 -41 -51 -15 -51
30 0 112 68 197 163 44 49 89 100 101 112 12 13 31 38 42 57 12 18 33 45 47
60 14 15 25 30 25 33 0 3 17 28 38 55 74 97 120 167 192 290 40 69 84 137 98
153 l26 27 35 -34 c20 -19 59 -46 88 -60 l52 -26 28 24 c24 20 25 26 14 40 -7
9 -17 16 -22 16 -12 0 -38 27 -67 68 -13 17 -34 35 -48 38 -13 3 -24 10 -24
16 0 21 74 96 99 101 28 6 134 72 139 88 2 5 9 9 15 9 16 0 139 85 171 119 30
31 31 57 5 74 -13 8 -31 1 -83 -31 -58 -37 -96 -52 -96 -37 0 2 7 19 15 37 8
18 22 59 30 90 18 63 61 123 103 145 40 21 91 73 86 88 -8 19 -57 25 -74 10
-20 -18 -90 -48 -90 -38 0 4 10 17 22 30 18 19 20 27 10 48 -6 14 -18 25 -26
25 -7 0 -19 7 -26 15 -7 8 -8 15 -3 15 5 0 47 32 94 71 61 53 83 77 81 92 -3
24 -2 23 -27 30 -13 3 -46 -13 -99 -49z"/>
<path d="M800 1912 c-14 -9 -27 -19 -30 -22 -11 -13 -162 -110 -171 -110 -5 0
-9 -4 -9 -10 0 -10 -161 -90 -183 -90 -24 0 -57 -40 -57 -70 0 -16 10 -41 23
-55 21 -25 25 -26 64 -16 23 6 43 15 45 19 4 9 166 132 174 132 16 0 98 69
110 92 8 16 23 28 33 28 24 0 81 70 81 99 0 16 -6 21 -27 20 -16 0 -39 -8 -53
-17z"/>
<path d="M634 1556 c-15 -12 -20 -30 -24 -97 -4 -74 -8 -85 -27 -95 -13 -6
-31 -18 -41 -27 -10 -10 -22 -17 -27 -17 -10 0 -94 -66 -117 -93 -23 -25 -23
-70 0 -90 32 -29 64 -21 112 28 24 25 48 45 53 45 10 0 0 -120 -15 -170 -6
-19 -25 -51 -43 -70 -60 -65 -66 -107 -19 -129 37 -16 42 -15 84 27 97 95 150
140 270 233 80 63 113 97 106 114 -8 23 -41 18 -93 -15 -26 -16 -51 -30 -55
-30 -12 0 -89 -51 -117 -77 -13 -13 -30 -23 -38 -23 -21 0 -27 28 -11 53 8 12
20 40 27 62 43 144 46 151 98 207 57 61 71 108 34 108 -11 0 -23 -4 -26 -10
-14 -23 -31 -10 -27 20 2 17 -1 37 -8 45 -16 19 -70 19 -96 1z"/>
<path d="M965 796 c-34 -20 -40 -28 -38 -56 0 -17 10 -41 21 -53 21 -24 47
-109 39 -129 -2 -8 -30 -26 -60 -42 -31 -15 -62 -34 -68 -42 -17 -20 3 -61 37
-76 23 -11 32 -9 68 11 22 13 84 45 136 73 52 27 100 54 107 60 18 14 17 -11
0 -37 -8 -11 -22 -42 -32 -70 -10 -27 -24 -57 -31 -65 -7 -8 -19 -37 -27 -65
-8 -27 -29 -79 -45 -115 -19 -41 -32 -88 -35 -127 l-5 -63 44 0 c47 0 64 17
64 64 0 14 11 49 24 78 13 29 40 91 61 138 70 160 124 260 165 309 35 41 42
58 47 106 l6 58 -34 -6 c-41 -6 -195 -71 -260 -110 -60 -36 -79 -35 -79 2 0
16 -5 42 -11 58 -6 15 -14 48 -18 73 -8 54 -21 58 -76 26z"/>
</g>
</svg>
