<?xml version="1.0" standalone="no"?>
<!DOCTYPE svg PUBLIC "-//W3C//DTD SVG 20010904//EN"
 "http://www.w3.org/TR/2001/REC-SVG-20010904/DTD/svg10.dtd">
<svg version="1.0" xmlns="http://www.w3.org/2000/svg"
 width="206.000000pt" height="215.000000pt" viewBox="0 0 206.000000 215.000000"
 preserveAspectRatio="xMidYMid meet">
<metadata>
Created by potrace 1.16, written by Peter Selinger 2001-2019
</metadata>
<g transform="translate(0.000000,215.000000) scale(0.100000,-0.100000)"
fill="#000000" stroke="none">
<path d="M1305 2116 c-13 -13 -26 -39 -29 -57 -2 -19 -9 -70 -15 -114 -10 -72
-15 -83 -44 -107 -54 -46 -67 -35 -67 60 0 36 5 61 15 72 21 23 11 44 -29 58
-45 17 -59 15 -85 -9 -25 -23 -25 -33 6 -181 8 -42 13 -87 9 -101 -3 -14 -36
-49 -76 -81 l-70 -57 0 80 c0 75 -2 82 -25 97 -25 16 -27 16 -50 -6 -19 -18
-25 -34 -25 -64 0 -23 -10 -98 -21 -169 -24 -140 -22 -150 33 -161 28 -6 35
-1 87 56 127 142 170 181 185 169 17 -14 29 -1 45 51 10 31 27 48 47 48 3 0 2
-16 -2 -35 -8 -47 19 -48 42 -2 9 17 20 34 24 37 22 15 85 157 106 240 28 113
31 185 8 194 -28 11 -44 6 -69 -18z"/>
<path d="M405 1654 c-38 -20 -79 -44 -90 -54 -11 -10 -36 -25 -55 -33 -47 -19
-66 -44 -75 -94 -6 -40 -5 -43 26 -62 21 -13 44 -19 60 -16 33 6 36 -1 45 -98
l6 -74 -108 -112 c-60 -62 -113 -123 -119 -137 -11 -30 1 -54 38 -72 37 -18
90 8 124 60 14 21 29 38 33 38 9 0 -5 -110 -25 -196 -29 -126 -46 -167 -86
-205 -34 -31 -39 -42 -39 -81 0 -38 4 -46 25 -56 43 -20 58 -14 114 43 29 30
57 55 61 55 5 0 42 20 84 44 41 25 98 55 127 67 47 21 54 21 78 8 26 -15 26
-16 28 -146 2 -129 11 -173 36 -173 16 0 44 55 51 100 3 19 12 76 20 125 8 50
21 111 30 136 9 27 13 59 10 77 -7 34 8 49 26 27 21 -25 34 -18 97 50 34 36
63 62 65 58 2 -4 1 -132 -2 -283 -6 -280 -2 -320 30 -320 27 0 46 40 44 95 -1
28 2 66 7 85 5 19 13 123 17 230 6 155 11 202 25 230 17 33 17 35 -2 50 -20
15 -20 16 20 58 22 23 44 42 47 42 4 0 7 -136 7 -303 -1 -347 3 -422 24 -422
16 0 28 35 38 105 3 25 10 53 15 64 6 10 12 104 14 210 2 105 9 226 16 268 10
68 9 79 -6 102 -9 14 -24 26 -34 26 -11 0 6 23 50 66 38 36 72 63 77 60 18
-12 35 -711 18 -788 -5 -23 -15 -39 -27 -43 -22 -7 -26 -35 -8 -53 38 -38 121
8 135 75 9 44 10 475 1 733 -4 96 -7 191 -7 211 -1 42 -18 53 -57 39 -37 -15
-73 -43 -177 -141 -82 -77 -162 -147 -248 -218 -16 -13 -29 -19 -29 -13 0 20
45 77 140 175 120 125 128 140 121 227 -2 19 -59 11 -75 -11 -8 -12 -27 -29
-43 -39 -28 -17 -126 -93 -197 -152 -22 -18 -51 -40 -65 -49 -41 -25 -230
-174 -293 -230 -65 -58 -74 -88 -33 -107 39 -18 42 -16 115 43 37 30 72 55 78
55 6 0 19 12 30 26 10 15 24 25 31 23 9 -3 7 -12 -7 -30 -11 -13 -38 -58 -60
-99 -35 -66 -47 -78 -93 -102 -30 -16 -58 -28 -62 -28 -5 0 -42 -16 -83 -35
-40 -19 -78 -35 -83 -35 -5 0 -17 -7 -26 -16 -24 -24 -29 -11 -16 48 6 29 16
78 22 108 6 30 15 73 21 95 6 22 12 47 14 55 1 8 11 41 23 72 12 32 21 65 21
75 0 10 6 30 13 44 17 31 5 69 -22 69 -10 0 -22 7 -25 16 -18 46 8 184 35 191
21 6 29 31 19 58 -8 22 14 55 36 55 20 0 37 38 30 66 -9 35 -57 31 -141 -12z"/>
</g>
</svg>
