<?xml version="1.0" standalone="no"?>
<!DOCTYPE svg PUBLIC "-//W3C//DTD SVG 20010904//EN"
 "http://www.w3.org/TR/2001/REC-SVG-20010904/DTD/svg10.dtd">
<svg version="1.0" xmlns="http://www.w3.org/2000/svg"
 width="208.000000pt" height="216.000000pt" viewBox="0 0 208.000000 216.000000"
 preserveAspectRatio="xMidYMid meet">
<metadata>
Created by potrace 1.16, written by Peter Selinger 2001-2019
</metadata>
<g transform="translate(0.000000,216.000000) scale(0.100000,-0.100000)"
fill="#000000" stroke="none">
<path d="M1035 2151 c-9 -15 10 -77 44 -142 l28 -57 -54 -38 c-119 -85 -143
-105 -143 -124 0 -10 -4 -22 -10 -25 -18 -11 -11 -71 11 -100 21 -26 22 -30 9
-128 -15 -112 -26 -155 -39 -141 -5 5 -18 45 -29 89 l-21 80 21 22 c11 12 18
29 15 37 -8 21 -131 15 -177 -8 -51 -27 -168 -104 -220 -145 -45 -37 -78 -57
-140 -88 -19 -9 -39 -22 -45 -28 -5 -6 -29 -23 -52 -38 -58 -37 -65 -69 -25
-109 40 -41 64 -34 150 44 60 55 67 59 70 39 2 -12 0 -30 -4 -39 -4 -9 -6 -54
-5 -98 l3 -82 -38 -28 c-21 -16 -46 -36 -55 -45 -9 -10 -39 -30 -65 -45 -27
-16 -54 -33 -61 -39 -7 -5 -19 -16 -28 -23 -36 -31 -7 -84 47 -84 27 0 51 11
93 42 31 23 59 48 62 56 12 33 25 12 20 -33 -29 -246 -54 -331 -115 -390 -29
-28 -33 -37 -30 -74 3 -39 6 -44 37 -52 29 -7 37 -5 60 17 15 14 31 26 35 26
5 0 25 13 45 29 20 15 88 53 151 84 63 31 137 70 163 88 64 42 74 32 54 -58
-9 -37 -23 -93 -32 -123 -27 -88 -29 -101 -14 -110 15 -10 56 9 81 36 31 35
78 209 78 289 0 43 18 75 43 75 7 0 24 11 39 25 22 20 26 30 19 48 -14 37 16
75 83 105 12 6 2 -70 -23 -166 -29 -114 -14 -138 85 -143 63 -3 131 16 144 41
20 37 44 23 78 -43 59 -113 109 -186 182 -267 77 -84 109 -99 130 -61 12 24
19 1174 7 1209 -5 12 -13 22 -19 22 -16 0 -177 -111 -213 -146 -52 -50 -131
-115 -160 -130 -16 -8 -37 -11 -49 -7 -12 4 -31 6 -44 4 -22 -2 -23 -1 -11 21
7 13 23 37 36 54 12 17 23 35 23 40 0 5 15 18 33 29 17 10 43 29 57 42 16 15
31 21 46 17 17 -4 27 1 40 23 9 15 29 46 44 68 35 53 66 130 75 185 3 25 15
64 25 86 34 74 34 90 5 128 l-26 34 19 39 c11 21 27 64 37 96 17 54 17 58 1
76 -15 16 -33 19 -113 20 -92 1 -98 0 -147 -31 -28 -18 -53 -36 -54 -41 -5
-10 -103 -60 -108 -54 -2 2 -12 30 -23 63 l-18 59 -56 3 c-30 2 -58 -2 -62 -7z
m505 -9 c0 -4 -6 -17 -14 -28 -23 -33 -96 -181 -96 -195 0 -17 -113 -248 -121
-249 -12 0 -1 158 13 180 11 18 11 23 -6 36 -11 8 -35 14 -53 14 -18 0 -33 3
-33 7 0 8 81 83 90 83 3 0 23 16 44 34 20 19 62 51 91 71 30 19 57 40 60 45 7
12 25 13 25 2z m-352 -306 c16 -36 25 -93 18 -120 -5 -21 -10 -23 -32 -17 -45
12 -94 1 -111 -25 -14 -22 -14 -26 0 -48 17 -26 74 -56 106 -56 12 0 21 -2 21
-4 0 -15 -14 -36 -24 -36 -6 0 -34 -18 -63 -39 -28 -22 -61 -45 -74 -51 -22
-12 -22 -12 -16 36 4 27 10 96 13 154 l7 105 62 63 c34 34 66 62 72 62 5 0 15
-11 21 -24z m-449 -354 c5 -26 21 -82 35 -125 32 -95 33 -162 5 -216 -19 -37
-19 -41 -4 -70 20 -40 70 -43 104 -7 13 14 36 30 52 36 16 7 29 16 29 20 0 4
9 10 20 13 11 3 20 2 20 -2 0 -13 -51 -61 -65 -61 -8 0 -16 -4 -20 -9 -8 -14
16 -61 32 -61 22 0 70 28 85 48 7 11 24 24 38 31 14 7 37 27 52 45 23 26 29
29 38 16 5 -8 9 -22 9 -30 0 -18 -113 -114 -161 -137 -18 -9 -45 -27 -60 -41
l-27 -24 -27 21 c-32 25 -37 26 -86 4 -43 -19 -46 -34 -23 -98 8 -22 14 -54
15 -71 0 -27 -6 -34 -47 -55 -27 -13 -55 -29 -63 -34 -13 -10 -36 -20 -155
-71 -40 -17 -85 -28 -85 -20 0 3 9 43 19 88 11 46 22 124 26 173 8 121 24 182
55 212 43 42 133 133 168 169 38 40 39 70 2 66 -13 -1 -59 -29 -103 -62 -79
-60 -104 -72 -94 -46 3 8 9 31 13 51 4 24 22 53 50 82 24 25 44 48 44 53 0 16
-27 29 -48 23 -32 -8 -29 24 3 39 14 6 25 15 25 19 0 11 68 72 88 80 25 9 29
4 41 -49z m401 -118 c0 -17 -24 -45 -55 -64 -40 -25 -63 -17 -27 9 13 9 33 26
45 39 20 21 37 29 37 16z m462 -81 c2 -10 2 -79 0 -153 -2 -74 -3 -264 -3
-422 1 -243 -1 -288 -13 -288 -16 0 -96 96 -96 115 0 6 -9 20 -20 30 -26 23
-70 99 -70 120 0 28 23 11 35 -26 8 -23 18 -34 31 -34 15 0 24 19 47 105 49
183 47 220 -13 220 -36 0 -70 -41 -70 -84 0 -41 -65 -110 -80 -86 -5 8 -10 20
-10 26 0 6 -7 24 -14 40 -20 40 -46 141 -46 180 0 25 8 38 38 60 55 42 59 45
162 133 52 44 100 80 106 81 7 0 14 -8 16 -17z m-315 -539 c5 -30 3 -32 -40
-47 -63 -21 -72 -13 -57 59 7 33 19 75 27 94 l15 35 25 -55 c13 -30 27 -69 30
-86z m-337 57 c0 -6 -4 -13 -10 -16 -5 -3 -10 1 -10 9 0 9 5 16 10 16 6 0 10
-4 10 -9z"/>
</g>
</svg>
