<?xml version="1.0" standalone="no"?>
<!DOCTYPE svg PUBLIC "-//W3C//DTD SVG 20010904//EN"
 "http://www.w3.org/TR/2001/REC-SVG-20010904/DTD/svg10.dtd">
<svg version="1.0" xmlns="http://www.w3.org/2000/svg"
 width="209.000000pt" height="216.000000pt" viewBox="0 0 209.000000 216.000000"
 preserveAspectRatio="xMidYMid meet">
<metadata>
Created by potrace 1.16, written by Peter Selinger 2001-2019
</metadata>
<g transform="translate(0.000000,216.000000) scale(0.100000,-0.100000)"
fill="#000000" stroke="none">
<path d="M1036 2144 c-4 -9 -2 -31 4 -48 5 -17 17 -96 25 -176 18 -161 20
-155 -52 -186 -18 -8 -33 -18 -33 -23 0 -6 -9 -13 -20 -16 -34 -11 -51 -34
-44 -63 13 -54 69 -69 111 -30 19 18 23 19 23 5 0 -25 36 -53 86 -67 57 -16
57 -31 -1 -116 -49 -73 -85 -102 -157 -127 l-48 -16 0 30 c0 17 7 44 16 61 21
41 5 51 -51 31 -62 -21 -75 -40 -85 -129 -5 -44 -12 -91 -16 -106 -4 -19 0
-32 15 -47 27 -27 50 -26 95 4 20 14 38 25 40 25 2 0 7 -11 10 -25 10 -38 42
-31 88 18 121 128 202 207 214 207 20 0 17 -60 -9 -159 l-22 -85 -69 -53 c-38
-29 -73 -53 -77 -53 -3 0 -14 -12 -24 -26 -23 -36 -8 -68 40 -84 37 -12 37
-13 31 -54 -4 -22 -22 -87 -41 -143 -19 -55 -35 -113 -35 -126 0 -47 64 -72
104 -42 11 8 29 15 40 16 12 0 35 9 51 20 17 10 46 26 65 35 35 16 140 65 151
71 12 7 21 -107 10 -121 -9 -10 -8 -26 1 -61 17 -64 76 -122 145 -145 62 -20
79 -13 92 38 10 38 26 319 36 622 6 188 19 332 36 394 6 21 15 64 20 94 7 46
6 59 -8 74 -9 10 -23 18 -31 18 -8 0 -97 -83 -198 -185 -101 -102 -189 -185
-194 -185 -14 0 -13 19 6 119 9 51 22 91 31 98 20 15 36 7 29 -15 -7 -21 11
-51 22 -37 4 6 30 28 57 50 74 59 105 93 99 109 -3 8 -1 17 5 21 29 17 -4 65
-44 65 -13 0 -35 -12 -48 -26 -29 -30 -119 -58 -145 -44 -9 5 -25 11 -35 14
-17 5 -11 20 47 131 36 69 91 159 123 202 52 70 57 83 60 135 l4 58 -32 0
c-22 0 -46 -11 -74 -35 -23 -19 -54 -40 -69 -46 -14 -7 -26 -16 -26 -20 0 -5
-14 -16 -32 -25 -17 -9 -61 -40 -96 -70 -80 -66 -96 -69 -85 -16 14 64 9 172
-12 255 -7 25 -11 27 -60 27 -40 0 -54 -4 -59 -16z m256 -412 c-58 -122 -54
-118 -93 -102 -61 24 -63 30 -27 65 66 64 130 115 143 115 10 0 3 -23 -23 -78z
m353 -579 c-4 -98 -9 -182 -12 -186 -2 -4 -20 -5 -38 -1 -28 5 -38 1 -59 -20
-15 -14 -26 -34 -26 -45 0 -38 -39 -111 -64 -121 -13 -5 -28 -15 -33 -23 -11
-20 -133 -77 -179 -84 -37 -6 -37 -6 -30 23 4 16 13 58 21 94 23 110 89 253
128 279 13 9 30 22 38 28 8 7 35 30 60 50 25 21 76 71 115 110 38 40 73 73 78
73 4 0 5 -80 1 -177z m-10 -390 c-4 -60 -9 -151 -10 -203 -3 -131 -3 -130 -22
-130 -24 1 -45 18 -71 61 l-22 36 20 49 c12 27 27 63 35 79 7 17 15 46 18 65
8 59 38 150 49 150 7 0 8 -34 3 -107z"/>
<path d="M777 1837 c-48 -74 -329 -317 -365 -317 -6 0 -15 -6 -19 -14 -4 -7
-24 -21 -43 -31 -53 -26 -70 -45 -70 -76 0 -32 34 -69 62 -69 28 0 90 28 115
52 26 25 53 18 54 -14 0 -13 1 -77 2 -143 l2 -120 -137 -136 c-76 -75 -138
-143 -138 -152 0 -8 -7 -20 -15 -27 -8 -7 -15 -20 -15 -29 0 -18 49 -71 65
-71 13 0 92 86 121 132 25 39 61 77 75 78 16 1 -9 -161 -40 -270 -11 -36 -25
-87 -32 -115 -10 -37 -24 -60 -55 -88 -47 -43 -60 -81 -38 -114 20 -32 56 -29
106 7 22 16 47 30 53 30 7 0 18 7 25 15 15 18 98 75 109 75 4 0 19 9 32 20 77
64 97 78 123 84 17 4 46 21 67 37 43 34 49 35 49 12 0 -19 -49 -173 -87 -276
-17 -47 -22 -72 -15 -79 16 -16 45 -1 83 45 33 41 45 65 104 227 15 41 38 100
51 131 13 31 24 66 24 78 0 12 7 51 16 86 16 64 16 64 -7 94 -51 64 -112 19
-124 -90 -6 -64 -14 -79 -57 -115 -15 -12 -143 -70 -176 -79 -12 -4 -35 -17
-51 -31 -30 -25 -139 -79 -146 -72 -6 6 20 88 45 142 12 28 25 85 31 139 11
109 27 184 43 212 7 11 18 39 25 63 7 25 30 62 57 90 50 53 61 80 44 111 -15
29 -25 27 -66 -15 -20 -19 -38 -34 -40 -32 -10 10 11 80 25 86 9 3 19 10 23
15 16 25 -54 116 -88 113 -31 -2 -24 20 21 64 24 25 45 49 45 54 0 5 38 47 85
94 81 82 129 156 123 191 -2 10 -15 17 -34 19 -24 2 -35 -3 -47 -21z"/>
</g>
</svg>
