<?xml version="1.0" standalone="no"?>
<!DOCTYPE svg PUBLIC "-//W3C//DTD SVG 20010904//EN"
 "http://www.w3.org/TR/2001/REC-SVG-20010904/DTD/svg10.dtd">
<svg version="1.0" xmlns="http://www.w3.org/2000/svg"
 width="206.000000pt" height="212.000000pt" viewBox="0 0 206.000000 212.000000"
 preserveAspectRatio="xMidYMid meet">
<metadata>
Created by potrace 1.16, written by Peter Selinger 2001-2019
</metadata>
<g transform="translate(0.000000,212.000000) scale(0.100000,-0.100000)"
fill="#000000" stroke="none">
<path d="M823 1913 c-40 -8 -44 -24 -46 -203 l-2 -172 -99 -45 c-62 -28 -102
-41 -108 -35 -15 15 5 97 22 97 19 0 58 140 59 211 1 63 -19 92 -70 100 -34 6
-39 3 -62 -31 -18 -26 -23 -44 -18 -57 13 -36 -28 -267 -59 -328 -19 -38 -76
-178 -136 -330 -20 -52 -42 -102 -49 -110 -12 -14 -98 -164 -170 -296 -17 -31
-43 -65 -58 -76 -16 -12 -27 -29 -27 -44 0 -13 2 -24 6 -24 25 0 97 47 132 87
57 64 60 68 74 98 6 14 15 25 19 25 4 0 14 12 22 28 8 15 30 56 49 92 72 134
93 176 104 205 69 182 64 174 134 210 125 66 199 97 215 91 13 -5 15 -20 13
-87 l-3 -81 -145 -77 c-80 -42 -156 -83 -167 -91 -33 -24 -39 -64 -14 -89 34
-34 76 -25 161 35 63 44 134 84 150 84 10 0 11 -20 6 -92 -4 -51 -9 -131 -12
-178 -3 -47 -8 -88 -10 -92 -2 -4 -30 -12 -62 -19 -31 -7 -86 -24 -122 -37
-36 -13 -78 -27 -95 -32 -83 -24 -146 -40 -200 -51 -76 -16 -135 -60 -135
-100 0 -46 71 -79 98 -46 6 7 27 14 46 15 19 1 47 9 63 17 15 8 35 15 43 15 9
0 24 6 35 14 11 7 44 18 72 25 29 6 74 22 100 36 32 16 77 28 131 34 46 5 91
15 100 24 9 8 31 17 47 21 17 4 79 23 139 42 59 18 117 34 127 34 10 0 34 7
53 16 30 15 35 22 39 63 5 57 -11 80 -45 63 -44 -22 -101 -42 -118 -42 -10 0
-42 -11 -71 -24 -30 -13 -73 -27 -96 -31 l-43 -7 0 62 c0 85 20 253 31 265 5
5 9 21 9 36 0 65 38 99 111 99 46 0 59 10 59 45 0 56 -23 63 -139 39 -31 -6
-33 -5 -26 12 4 11 10 35 12 54 7 63 13 79 38 106 38 41 30 76 -19 85 -30 6
-41 63 -22 104 9 18 16 42 16 53 0 11 7 25 16 33 23 19 11 62 -32 115 -20 24
-39 43 -43 43 -3 -1 -16 -4 -28 -6z"/>
</g>
</svg>
