<?xml version="1.0" standalone="no"?>
<!DOCTYPE svg PUBLIC "-//W3C//DTD SVG 20010904//EN"
 "http://www.w3.org/TR/2001/REC-SVG-20010904/DTD/svg10.dtd">
<svg version="1.0" xmlns="http://www.w3.org/2000/svg"
 width="205.000000pt" height="212.000000pt" viewBox="0 0 205.000000 212.000000"
 preserveAspectRatio="xMidYMid meet">
<metadata>
Created by potrace 1.16, written by Peter Selinger 2001-2019
</metadata>
<g transform="translate(0.000000,212.000000) scale(0.100000,-0.100000)"
fill="#000000" stroke="none">
<path d="M1255 1695 c-16 -8 -37 -19 -45 -24 -8 -5 -58 -31 -110 -57 -52 -25
-102 -52 -110 -59 -8 -7 -26 -16 -40 -20 -14 -4 -69 -32 -124 -62 -94 -53
-100 -55 -136 -44 -54 16 -68 14 -95 -14 -19 -18 -24 -32 -21 -57 13 -107 17
-473 6 -568 -7 -58 -14 -150 -15 -205 -1 -63 -8 -118 -18 -148 -9 -26 -17 -54
-17 -62 0 -16 46 -65 61 -65 16 0 46 18 73 44 23 21 211 90 311 115 73 18 210
74 220 90 15 24 24 57 40 145 8 43 18 83 23 90 5 6 14 54 20 106 6 52 16 136
22 185 6 50 15 198 21 330 14 297 9 316 -66 280z m-30 -211 c-1 -74 -13 -265
-26 -409 -5 -60 -13 -180 -18 -265 -5 -85 -12 -162 -16 -171 -6 -15 -26 -22
-185 -59 -41 -10 -83 -21 -92 -25 -11 -4 -18 -3 -18 4 0 6 8 19 18 29 25 25
72 147 72 187 0 69 45 195 70 195 15 0 109 96 112 114 6 39 -24 39 -86 2 -73
-44 -83 -38 -68 40 9 40 20 63 39 80 33 28 23 45 -37 63 -36 11 -45 10 -73 -6
l-32 -19 -3 -136 -3 -137 -57 -35 c-31 -19 -68 -51 -81 -72 -23 -33 -24 -38
-10 -62 15 -28 43 -39 100 -41 46 -1 54 -24 34 -102 -29 -112 -37 -124 -102
-142 -32 -9 -75 -19 -96 -22 -37 -6 -38 -5 -31 17 8 26 9 31 24 148 24 186 30
264 31 401 1 79 5 151 10 159 4 8 10 22 12 31 4 12 13 15 31 12 21 -4 29 1 46
30 20 34 97 93 169 131 20 10 43 22 51 27 62 35 197 98 205 95 6 -1 10 -29 10
-62z"/>
</g>
</svg>
