<?xml version="1.0" standalone="no"?>
<!DOCTYPE svg PUBLIC "-//W3C//DTD SVG 20010904//EN"
 "http://www.w3.org/TR/2001/REC-SVG-20010904/DTD/svg10.dtd">
<svg version="1.0" xmlns="http://www.w3.org/2000/svg"
 width="207.000000pt" height="212.000000pt" viewBox="0 0 207.000000 212.000000"
 preserveAspectRatio="xMidYMid meet">
<metadata>
Created by potrace 1.16, written by Peter Selinger 2001-2019
</metadata>
<g transform="translate(0.000000,212.000000) scale(0.100000,-0.100000)"
fill="#000000" stroke="none">
<path d="M1310 1880 c-14 -11 -43 -29 -64 -41 -22 -11 -51 -30 -65 -40 -15
-11 -53 -38 -86 -59 -77 -51 -89 -59 -139 -96 -22 -17 -61 -42 -86 -55 -24
-13 -56 -36 -70 -50 -30 -32 -149 -109 -167 -109 -15 0 -17 28 -4 49 13 20 -9
61 -49 95 l-31 26 -35 -26 -34 -26 8 -87 c17 -207 7 -405 -39 -729 -10 -74
-19 -160 -19 -192 0 -54 -14 -102 -42 -142 -19 -27 1 -71 38 -81 23 -7 41 -4
75 11 24 11 61 23 81 26 20 4 50 13 65 21 15 8 36 15 46 15 10 0 27 5 38 10
20 11 131 42 234 66 67 15 151 18 159 6 5 -8 -26 -129 -42 -158 -11 -23 -5
-44 13 -44 13 0 65 59 65 74 0 3 18 43 41 89 59 120 87 253 94 457 8 222 23
405 40 460 19 64 65 416 65 503 0 46 0 47 -32 47 -18 0 -44 -9 -58 -20z m-23
-177 c-22 -157 -30 -212 -47 -313 -31 -179 -40 -284 -40 -451 0 -125 -19 -322
-32 -334 -2 -2 -47 -6 -101 -9 -54 -4 -128 -16 -165 -27 -37 -12 -87 -27 -111
-35 -25 -8 -51 -14 -59 -14 -8 0 -28 -6 -45 -14 -42 -19 -140 -46 -166 -46
-24 0 -27 28 -11 95 6 22 15 63 19 91 5 28 15 70 21 93 10 36 14 40 35 35 29
-7 165 36 165 52 0 17 42 46 51 36 6 -6 -22 -157 -46 -244 -6 -22 -4 -28 9
-28 22 0 69 77 90 147 10 32 23 69 30 83 7 14 19 53 26 88 13 65 21 76 109
155 30 26 41 43 39 60 -2 17 -9 22 -32 20 -15 -1 -33 -9 -40 -17 -6 -7 -21
-17 -33 -21 -22 -6 -23 -4 -23 53 0 68 25 152 46 152 25 0 15 38 -17 61 -27
19 -35 20 -69 10 -47 -14 -49 -20 -60 -214 -4 -82 -12 -153 -17 -158 -21 -21
-121 -75 -159 -87 -23 -7 -45 -19 -48 -27 -3 -8 -13 -15 -22 -15 -14 0 -16 8
-11 63 13 136 29 253 37 272 5 11 14 32 19 46 6 16 43 51 88 85 43 31 83 64
90 72 6 8 42 33 80 57 87 56 172 118 173 127 0 4 21 19 48 34 26 15 58 37 72
49 28 25 78 52 99 54 10 1 12 -9 8 -36z"/>
</g>
</svg>
