<?xml version="1.0" standalone="no"?>
<!DOCTYPE svg PUBLIC "-//W3C//DTD SVG 20010904//EN"
 "http://www.w3.org/TR/2001/REC-SVG-20010904/DTD/svg10.dtd">
<svg version="1.0" xmlns="http://www.w3.org/2000/svg"
 width="209.000000pt" height="210.000000pt" viewBox="0 0 209.000000 210.000000"
 preserveAspectRatio="xMidYMid meet">
<metadata>
Created by potrace 1.16, written by Peter Selinger 2001-2019
</metadata>
<g transform="translate(0.000000,210.000000) scale(0.100000,-0.100000)"
fill="#000000" stroke="none">
<path d="M1585 1827 c-35 -14 -196 -115 -241 -151 -18 -14 -35 -26 -39 -26 -5
0 -24 -12 -43 -27 -20 -15 -63 -41 -96 -57 -69 -35 -101 -56 -156 -103 -20
-18 -41 -33 -46 -33 -4 0 -17 -9 -29 -20 -11 -11 -34 -22 -50 -25 -27 -5 -32
-2 -46 32 -9 21 -19 46 -23 56 -7 22 -53 14 -78 -15 -15 -16 -16 -33 -12 -111
4 -51 1 -191 -6 -312 -18 -343 -22 -542 -13 -640 7 -83 10 -90 30 -93 43 -6
61 76 68 313 9 309 16 418 28 449 6 16 10 44 9 63 -2 18 2 33 8 33 5 0 10 8
10 19 0 10 11 26 25 35 14 9 25 22 25 29 1 15 38 58 70 80 14 10 45 33 70 52
25 19 59 42 75 51 17 9 68 42 114 73 46 31 98 64 115 74 17 11 47 31 66 45 42
32 134 91 137 88 4 -4 -26 -312 -42 -431 -40 -294 -44 -364 -31 -620 13 -280
12 -337 -7 -366 -19 -29 -14 -39 18 -39 33 0 51 27 72 110 18 68 19 95 13 280
-8 224 -1 353 29 561 11 75 25 194 31 265 6 71 16 158 21 194 6 36 9 90 7 120
-3 51 -5 55 -28 57 -14 1 -38 -4 -55 -10z"/>
<path d="M1169 1313 c-11 -13 -13 -56 -11 -197 l2 -181 -78 -37 c-43 -21 -82
-38 -86 -38 -4 0 -23 -12 -42 -27 -26 -20 -34 -32 -32 -51 4 -33 60 -67 88
-52 10 5 28 10 40 10 13 0 24 9 30 24 11 31 48 52 63 37 13 -13 -6 -238 -29
-334 -15 -62 -18 -69 -52 -83 -46 -20 -128 -49 -208 -75 -34 -10 -67 -26 -74
-34 -20 -24 -8 -68 22 -83 25 -12 35 -10 97 18 38 16 72 30 75 30 3 0 39 15
79 34 40 18 83 37 96 41 14 4 38 16 55 26 17 11 38 19 46 19 9 0 31 8 50 18
19 9 54 24 78 31 54 18 69 35 51 57 -13 16 -18 16 -139 -2 -25 -4 -52 -12 -60
-20 -8 -7 -28 -16 -44 -20 -26 -6 -28 -5 -22 12 37 88 68 204 76 279 15 131
34 175 100 224 30 23 57 41 61 41 8 0 29 47 29 65 0 11 -8 11 -47 -2 -27 -9
-60 -25 -75 -36 -14 -11 -31 -16 -37 -13 -12 8 -15 165 -5 229 5 28 14 42 35
53 32 16 38 38 13 48 -9 3 -42 6 -74 6 -41 0 -61 -5 -71 -17z"/>
</g>
</svg>
