<?xml version="1.0" standalone="no"?>
<!DOCTYPE svg PUBLIC "-//W3C//DTD SVG 20010904//EN"
 "http://www.w3.org/TR/2001/REC-SVG-20010904/DTD/svg10.dtd">
<svg version="1.0" xmlns="http://www.w3.org/2000/svg"
 width="209.000000pt" height="211.000000pt" viewBox="0 0 209.000000 211.000000"
 preserveAspectRatio="xMidYMid meet">
<metadata>
Created by potrace 1.16, written by Peter Selinger 2001-2019
</metadata>
<g transform="translate(0.000000,211.000000) scale(0.100000,-0.100000)"
fill="#000000" stroke="none">
<path d="M1051 1993 c-31 -26 -41 -79 -42 -235 l-1 -137 -56 -38 c-32 -20 -59
-40 -62 -43 -3 -4 -25 -16 -50 -27 -40 -18 -107 -58 -136 -82 -5 -4 -20 -13
-31 -20 -19 -9 -24 -7 -42 24 -29 50 -62 63 -106 42 -42 -20 -57 -72 -32 -111
9 -14 20 -66 26 -124 9 -84 7 -126 -9 -258 -11 -87 -20 -210 -20 -272 0 -111
0 -113 22 -110 16 2 24 12 29 35 3 18 11 39 17 45 5 7 13 36 17 63 19 145 48
321 55 325 3 3 12 44 19 93 11 71 17 90 34 99 12 6 35 25 53 42 51 49 64 60
144 112 90 59 107 66 112 51 2 -7 1 -58 -2 -113 -6 -109 -16 -134 -57 -134
-27 0 -110 -44 -130 -68 -23 -28 -14 -53 42 -112 l56 -58 -56 -60 c-30 -33
-55 -62 -55 -66 0 -3 -36 -50 -80 -105 -79 -98 -144 -161 -165 -161 -17 0 -65
-54 -65 -72 0 -9 14 -28 30 -41 l30 -26 43 21 c23 11 101 48 172 83 72 34 134
60 138 58 10 -6 3 -98 -18 -248 -8 -55 -16 -133 -18 -174 -4 -68 -2 -76 19
-98 38 -38 59 -30 85 33 17 44 20 62 13 83 -16 42 20 371 46 418 11 21 20 46
20 56 0 20 54 77 72 77 6 0 25 -12 44 -27 111 -92 164 -123 210 -123 53 0 67
37 70 190 2 69 8 208 14 310 20 350 23 535 11 602 -14 76 -40 128 -63 128 -20
0 -142 -62 -164 -84 -8 -9 -21 -16 -28 -16 -7 0 -27 -11 -46 -25 -30 -22 -35
-23 -43 -9 -9 16 -2 130 13 211 6 38 4 45 -19 67 -32 31 -33 31 -60 9z m309
-455 c0 -90 -5 -215 -10 -278 -6 -63 -12 -212 -14 -330 -2 -118 -5 -221 -5
-229 -2 -27 -56 0 -102 52 l-47 52 45 41 c36 34 44 47 41 70 -4 33 -3 33 -91
0 l-67 -25 -19 20 c-22 23 -31 71 -19 93 4 8 10 99 13 203 8 315 20 364 100
407 17 9 42 25 56 36 22 18 90 48 112 50 4 0 7 -73 7 -162z m-403 -450 c-3 -8
-6 -5 -6 6 -1 11 2 17 5 13 3 -3 4 -12 1 -19z m-7 -191 c0 -8 -5 -39 -11 -69
-13 -62 -30 -80 -128 -130 -71 -36 -79 -35 -47 6 14 19 26 38 26 41 0 11 142
165 151 165 5 0 9 -6 9 -13z"/>
</g>
</svg>
