<?xml version="1.0" standalone="no"?>
<!DOCTYPE svg PUBLIC "-//W3C//DTD SVG 20010904//EN"
 "http://www.w3.org/TR/2001/REC-SVG-20010904/DTD/svg10.dtd">
<svg version="1.0" xmlns="http://www.w3.org/2000/svg"
 width="207.000000pt" height="210.000000pt" viewBox="0 0 207.000000 210.000000"
 preserveAspectRatio="xMidYMid meet">
<metadata>
Created by potrace 1.16, written by Peter Selinger 2001-2019
</metadata>
<g transform="translate(0.000000,210.000000) scale(0.100000,-0.100000)"
fill="#000000" stroke="none">
<path d="M848 1869 c-11 -6 -18 -22 -18 -40 0 -17 -5 -40 -11 -51 -6 -12 -11
-65 -10 -122 1 -55 -2 -106 -6 -112 -5 -7 -22 -20 -39 -30 -103 -61 -194 -122
-229 -154 -22 -20 -61 -50 -87 -68 -46 -32 -47 -32 -50 -10 -2 16 -11 24 -28
26 -14 2 -29 8 -34 13 -29 28 -106 -14 -106 -57 0 -13 12 -43 28 -66 27 -41
27 -43 27 -207 0 -91 -4 -193 -8 -226 -6 -47 -4 -65 7 -80 19 -26 32 -13 50
51 8 27 21 69 30 93 11 28 19 90 22 175 8 187 2 175 73 169 56 -5 60 -4 77 22
30 46 169 175 188 175 5 0 19 9 34 20 14 11 29 17 33 13 12 -13 15 -213 4
-214 -6 0 -36 5 -68 11 -59 11 -78 9 -134 -17 -26 -12 -33 -21 -33 -44 0 -18
8 -36 22 -47 11 -9 44 -38 71 -63 l49 -46 -18 -29 c-35 -55 -188 -238 -231
-277 -13 -11 -23 -25 -23 -31 -1 -12 -112 -96 -128 -96 -18 0 -35 -56 -23 -79
19 -35 53 -35 129 -2 39 17 79 31 89 31 11 0 59 20 109 44 63 32 91 41 96 33
7 -13 -2 -97 -31 -285 -17 -116 -15 -212 7 -234 28 -28 100 68 88 117 -3 13
-2 26 4 30 5 3 7 12 3 20 -3 8 2 59 10 113 9 53 19 120 22 147 4 28 16 68 26
89 10 22 19 49 19 61 0 23 27 85 37 85 3 0 23 -18 44 -41 69 -75 119 -38 138
102 5 35 16 105 24 154 8 50 20 131 26 180 24 182 53 341 71 376 21 41 58 148
63 179 3 19 9 49 12 67 6 26 3 33 -14 43 -18 9 -30 7 -64 -9 -23 -11 -53 -25
-67 -31 -29 -12 -57 -29 -134 -84 -30 -21 -59 -35 -65 -32 -24 15 0 158 36
213 13 19 12 23 -6 32 -25 14 -80 14 -103 0z m260 -301 c-23 -62 -78 -317 -78
-368 0 -19 -7 -60 -15 -90 -8 -30 -15 -75 -15 -100 0 -68 -17 -116 -52 -145
l-31 -26 -23 23 c-21 21 -22 28 -14 88 23 175 28 246 29 373 0 112 4 143 18
167 9 17 25 32 34 35 9 3 45 26 80 50 35 25 69 45 76 45 7 0 5 -18 -9 -52z
m-343 -680 c-2 -7 -9 -45 -15 -84 l-11 -70 -69 -33 c-38 -18 -77 -42 -86 -52
-9 -10 -25 -19 -34 -19 -9 0 -21 -5 -28 -12 -8 -8 -12 -8 -12 -1 0 12 40 65
105 138 24 28 63 71 86 98 39 44 73 63 64 35z"/>
</g>
</svg>
