<?xml version="1.0" standalone="no"?>
<!DOCTYPE svg PUBLIC "-//W3C//DTD SVG 20010904//EN"
 "http://www.w3.org/TR/2001/REC-SVG-20010904/DTD/svg10.dtd">
<svg version="1.0" xmlns="http://www.w3.org/2000/svg"
 width="206.000000pt" height="204.000000pt" viewBox="0 0 206.000000 204.000000"
 preserveAspectRatio="xMidYMid meet">
<metadata>
Created by potrace 1.16, written by Peter Selinger 2001-2019
</metadata>
<g transform="translate(0.000000,204.000000) scale(0.100000,-0.100000)"
fill="#000000" stroke="none">
<path d="M936 1781 c-34 -7 -47 -35 -34 -71 12 -31 23 -86 44 -209 15 -90 15
-95 -2 -108 -10 -7 -23 -13 -30 -13 -7 0 -24 -10 -38 -23 -13 -12 -44 -33 -68
-45 -23 -13 -59 -32 -78 -44 -19 -11 -41 -21 -50 -23 -86 -17 -95 -31 -86
-129 4 -39 9 -98 12 -131 3 -33 7 -145 9 -250 4 -210 16 -280 50 -280 14 0 21
8 23 25 5 34 28 58 66 66 17 4 47 15 66 25 36 19 70 25 70 12 0 -5 -9 -86 -21
-182 -21 -167 -22 -175 -5 -206 11 -19 33 -40 54 -49 43 -19 140 -38 153 -31
4 3 17 0 27 -6 12 -7 30 -9 48 -4 16 4 47 8 69 10 119 8 309 56 475 120 19 8
52 20 73 27 56 18 61 34 53 170 -8 144 -40 263 -71 263 -17 0 -21 -10 -27 -70
-4 -38 -6 -109 -3 -157 l4 -87 -52 -29 c-29 -16 -67 -32 -85 -35 -18 -4 -65
-21 -104 -38 -138 -60 -399 -84 -471 -42 -42 25 -55 48 -39 73 6 11 12 48 12
83 0 34 7 87 15 117 9 30 20 73 26 95 15 59 24 62 65 22 43 -42 74 -52 118
-37 67 22 90 96 106 340 31 472 31 474 18 550 -13 73 -14 75 -43 78 -21 2 -58
-11 -117 -42 -98 -51 -89 -56 -108 52 -22 123 -64 226 -90 221 -3 -1 -18 -4
-34 -8z m305 -432 c0 -250 -27 -633 -47 -671 -19 -38 -64 -38 -93 -2 l-20 26
25 40 c34 53 26 69 -28 66 -34 -2 -42 0 -39 12 30 118 32 150 29 358 -1 52 3
87 10 94 7 7 12 29 12 49 0 34 4 39 43 58 23 12 53 30 67 41 14 10 29 15 33
11 5 -5 8 -42 8 -82z m-281 -112 c0 -42 -1 -43 -50 -60 -27 -10 -50 -22 -50
-27 0 -6 16 -41 35 -79 45 -88 49 -159 10 -189 -14 -11 -25 -25 -25 -30 0 -16
-119 -162 -132 -162 -6 0 -17 -8 -25 -17 -12 -16 -13 12 -11 202 3 148 8 227
16 242 6 12 32 32 57 44 25 12 45 26 45 30 0 7 117 89 126 89 2 0 4 -19 4 -43z
m-49 -506 c-12 -22 -41 -29 -41 -9 0 6 8 20 17 30 21 24 39 8 24 -21z"/>
</g>
</svg>
