<?xml version="1.0" standalone="no"?>
<!DOCTYPE svg PUBLIC "-//W3C//DTD SVG 20010904//EN"
 "http://www.w3.org/TR/2001/REC-SVG-20010904/DTD/svg10.dtd">
<svg version="1.0" xmlns="http://www.w3.org/2000/svg"
 width="207.000000pt" height="206.000000pt" viewBox="0 0 207.000000 206.000000"
 preserveAspectRatio="xMidYMid meet">
<metadata>
Created by potrace 1.16, written by Peter Selinger 2001-2019
</metadata>
<g transform="translate(0.000000,206.000000) scale(0.100000,-0.100000)"
fill="#000000" stroke="none">
<path d="M1155 1810 c-15 -17 -16 -24 -7 -46 15 -33 16 -32 -9 -36 -25 -3 -24
-2 -76 -123 -21 -49 -54 -108 -73 -131 -19 -23 -48 -65 -65 -93 -116 -199
-271 -370 -375 -413 -41 -17 -100 -80 -100 -106 0 -55 91 -52 148 5 23 23 70
43 85 37 32 -12 42 -66 42 -214 0 -122 -3 -151 -19 -183 -17 -35 -18 -40 -3
-55 15 -15 19 -15 51 1 29 13 38 26 51 69 9 29 19 95 22 146 3 50 8 92 11 92
3 0 13 -7 21 -15 15 -12 27 -11 101 11 105 32 240 83 260 99 23 19 113 65 126
65 9 0 12 -29 11 -97 -1 -54 2 -137 6 -184 l8 -87 -45 -25 c-25 -14 -83 -40
-128 -57 -46 -18 -105 -41 -133 -52 -69 -28 -125 -47 -158 -53 -37 -7 -77 -48
-77 -78 0 -36 34 -63 63 -49 12 6 53 20 92 32 38 12 72 25 75 29 8 13 105 58
138 66 17 3 48 19 70 34 21 16 53 32 71 36 31 6 32 5 26 -15 -14 -44 64 -83
94 -47 13 17 32 179 22 192 -13 16 -30 265 -22 329 4 44 11 62 26 70 42 23 48
65 13 88 -22 15 -23 21 -19 129 1 67 8 126 16 144 25 55 36 178 18 196 -5 5
-31 -5 -63 -25 -30 -19 -73 -44 -95 -55 -22 -12 -60 -34 -85 -51 -25 -16 -63
-38 -85 -49 -22 -11 -49 -28 -59 -40 -10 -11 -43 -35 -73 -53 -30 -18 -73 -48
-95 -66 -22 -18 -43 -31 -45 -28 -8 8 69 134 149 241 20 28 67 109 104 180 36
72 75 142 85 157 44 62 -45 134 -96 78z m230 -487 c-3 -15 -8 -81 -10 -146 -3
-66 -7 -128 -10 -138 -3 -10 -23 -23 -43 -30 -20 -6 -64 -26 -97 -44 -33 -18
-107 -47 -165 -65 -58 -17 -127 -40 -154 -51 -66 -26 -73 -24 -81 17 -6 37 6
60 48 92 9 7 17 17 17 23 0 17 112 120 159 145 26 14 76 50 111 80 36 30 79
61 97 69 17 8 37 20 45 28 24 23 62 47 76 47 10 0 12 -7 7 -27z"/>
</g>
</svg>
