<?xml version="1.0" standalone="no"?>
<!DOCTYPE svg PUBLIC "-//W3C//DTD SVG 20010904//EN"
 "http://www.w3.org/TR/2001/REC-SVG-20010904/DTD/svg10.dtd">
<svg version="1.0" xmlns="http://www.w3.org/2000/svg"
 width="209.000000pt" height="205.000000pt" viewBox="0 0 209.000000 205.000000"
 preserveAspectRatio="xMidYMid meet">
<metadata>
Created by potrace 1.16, written by Peter Selinger 2001-2019
</metadata>
<g transform="translate(0.000000,205.000000) scale(0.100000,-0.100000)"
fill="#000000" stroke="none">
<path d="M930 1793 c-14 -3 -32 -11 -40 -18 -34 -29 -111 -65 -215 -101 -127
-43 -175 -76 -175 -116 0 -16 9 -37 20 -48 20 -20 50 -27 50 -11 0 13 131 90
167 97 17 3 41 15 52 25 20 19 41 25 41 13 0 -4 -15 -27 -33 -53 -19 -25 -46
-68 -62 -96 -16 -27 -32 -54 -37 -60 -28 -34 -80 -108 -100 -141 -13 -22 -62
-105 -109 -184 -119 -199 -140 -243 -150 -318 -11 -76 -3 -92 47 -92 18 0 36
-5 39 -11 11 -17 43 -179 50 -256 5 -47 3 -90 -5 -125 -13 -51 -48 -120 -70
-133 -5 -3 -10 -15 -10 -26 0 -15 7 -19 31 -19 73 0 130 85 150 225 11 82 3
185 -26 310 -7 33 -16 92 -20 130 -5 53 -12 74 -27 86 -20 16 -20 17 38 112
33 53 75 123 94 155 19 32 47 74 63 93 15 20 27 39 27 43 0 4 14 24 31 44 17
21 41 54 53 74 11 20 44 73 71 117 28 45 57 94 65 109 9 15 24 39 33 54 13 18
17 41 15 75 -3 50 -9 55 -58 46z"/>
<path d="M1280 1593 c-24 -10 -112 -74 -141 -102 -15 -14 -45 -39 -68 -56 -23
-16 -65 -50 -93 -75 -47 -42 -84 -69 -131 -97 -44 -25 -187 -176 -220 -230
-51 -83 -54 -103 -22 -141 15 -18 33 -32 40 -32 22 0 42 27 49 65 4 20 23 57
43 83 48 65 168 181 227 222 27 18 56 40 65 49 49 48 149 117 158 107 3 -2 0
-29 -7 -59 -6 -33 -9 -112 -7 -198 3 -79 2 -149 0 -156 -4 -9 -27 -13 -69 -13
-46 0 -81 -7 -124 -25 -33 -14 -65 -25 -72 -25 -7 0 -41 -13 -75 -29 -77 -37
-120 -82 -127 -136 -17 -123 -18 -145 -7 -145 6 0 11 7 11 15 0 53 112 157
205 190 28 10 55 22 61 27 19 14 107 38 140 38 50 0 59 -20 45 -97 -15 -82
-73 -197 -145 -288 -31 -38 -68 -85 -82 -103 -14 -18 -32 -31 -39 -28 -7 2
-41 26 -75 53 -106 83 -101 80 -89 44 11 -30 46 -70 103 -118 14 -12 26 -26
26 -31 0 -5 -28 -39 -62 -76 -35 -37 -68 -73 -74 -79 -22 -24 -81 -68 -138
-105 l-59 -37 108 -3 c90 -2 111 0 132 15 60 43 77 51 113 57 22 3 56 17 76
31 20 14 42 25 48 25 6 0 27 8 46 19 35 18 74 19 140 5 78 -18 74 -19 99 34
14 29 21 58 17 68 -24 62 -43 805 -26 1019 5 56 18 131 31 170 30 92 31 149 4
152 -11 1 -27 -1 -35 -4z m-99 -1178 l4 -170 -37 1 c-43 1 -168 53 -168 70 0
14 62 118 88 148 26 32 57 77 77 115 26 52 32 27 36 -164z m-218 -181 c9 -4
17 -9 17 -13 0 -10 -110 -54 -117 -47 -3 3 -2 6 4 6 6 0 21 16 32 36 12 21 26
33 34 30 6 -3 20 -9 30 -12z"/>
</g>
</svg>
