<?xml version="1.0" standalone="no"?>
<!DOCTYPE svg PUBLIC "-//W3C//DTD SVG 20010904//EN"
 "http://www.w3.org/TR/2001/REC-SVG-20010904/DTD/svg10.dtd">
<svg version="1.0" xmlns="http://www.w3.org/2000/svg"
 width="209.000000pt" height="205.000000pt" viewBox="0 0 209.000000 205.000000"
 preserveAspectRatio="xMidYMid meet">
<metadata>
Created by potrace 1.16, written by Peter Selinger 2001-2019
</metadata>
<g transform="translate(0.000000,205.000000) scale(0.100000,-0.100000)"
fill="#000000" stroke="none">
<path d="M877 2033 c-8 -10 -43 -72 -77 -138 -34 -66 -75 -138 -91 -159 -16
-22 -29 -43 -29 -47 0 -13 -72 -132 -113 -186 -29 -39 -46 -53 -64 -53 -47 0
-106 -49 -145 -120 -46 -83 6 -131 83 -76 19 14 55 38 81 55 47 30 48 30 59 9
7 -13 10 -58 7 -122 -3 -79 -10 -115 -30 -164 -21 -52 -24 -64 -12 -69 19 -7
62 22 74 50 6 12 19 34 31 49 32 39 47 183 29 280 -7 40 -17 78 -22 85 -9 11
4 49 21 63 10 8 61 86 61 92 0 8 102 171 112 178 4 3 12 17 18 30 5 14 19 39
30 55 31 47 70 128 70 148 0 22 -35 57 -58 57 -11 0 -26 -8 -35 -17z m-443
-698 c-4 -8 -10 -15 -15 -15 -4 0 -6 7 -3 15 4 8 10 15 15 15 4 0 6 -7 3 -15z"/>
<path d="M1315 1920 c-11 -4 -30 -18 -42 -31 -12 -13 -32 -32 -45 -41 -13 -10
-42 -32 -65 -50 -23 -18 -63 -48 -88 -67 -25 -19 -50 -42 -56 -53 -5 -10 -14
-18 -18 -18 -19 0 -152 -83 -161 -100 -5 -9 -23 -23 -40 -30 -37 -15 -66 -70
-61 -117 2 -18 20 -16 72 10 45 22 59 32 105 74 14 13 39 30 57 39 38 20 176
124 196 148 7 9 20 16 28 16 11 0 13 -11 9 -52 -12 -119 -17 -169 -26 -303 -6
-77 -15 -169 -21 -205 -5 -36 -12 -80 -15 -98 -3 -18 -9 -30 -14 -27 -14 8
-45 83 -60 142 -12 47 -12 53 8 78 28 35 28 69 1 94 -30 27 -145 24 -166 -5
-21 -29 -12 -57 25 -75 53 -24 54 -36 10 -93 -44 -58 -196 -196 -215 -196 -18
0 -43 -29 -43 -50 0 -49 60 -64 120 -30 70 39 160 80 175 80 8 0 15 -7 15 -15
0 -18 16 -20 27 -2 4 7 21 20 36 30 l28 18 14 -35 c17 -40 41 -56 83 -56 28 0
31 4 41 48 6 26 13 79 16 117 4 39 13 113 20 165 7 52 19 151 25 220 16 173
26 236 55 324 28 84 31 126 13 144 -14 14 -16 14 -43 2z m-261 -797 c20 -58
20 -53 -6 -53 -35 0 -68 11 -68 22 0 15 40 78 50 78 4 0 15 -21 24 -47z"/>
<path d="M969 783 c-122 -82 -170 -111 -209 -128 -25 -10 -62 -29 -82 -42 -21
-13 -44 -23 -52 -23 -30 0 -84 -33 -95 -58 -10 -20 -9 -28 5 -43 18 -20 88
-27 98 -10 11 17 55 19 61 2 2 -9 33 -29 67 -45 53 -24 71 -27 115 -22 l52 6
-6 -50 c-3 -27 -13 -82 -22 -122 -15 -65 -19 -72 -46 -80 -17 -5 -46 -14 -65
-20 -19 -6 -57 -13 -83 -14 -94 -4 -133 -40 -100 -90 22 -33 72 -40 151 -19
37 9 100 23 141 30 50 10 82 21 100 38 35 32 147 87 177 87 14 0 35 6 47 14
12 8 51 20 87 27 36 6 86 17 112 24 39 10 51 10 65 -1 10 -7 31 -14 46 -14 33
0 125 28 133 41 21 35 -74 99 -146 99 -21 0 -83 -12 -137 -26 -54 -14 -123
-32 -153 -39 -30 -8 -91 -25 -134 -39 -44 -15 -81 -24 -84 -21 -8 8 20 148 34
170 19 30 48 163 48 217 -1 28 -8 58 -19 75 -10 15 -19 41 -19 58 -1 26 -5 30
-31 33 -16 1 -42 -6 -56 -15z m-9 -162 c0 -71 -83 -131 -135 -97 -32 21 -31
37 3 58 15 10 47 31 72 47 25 16 48 30 53 30 4 1 7 -17 7 -38z"/>
</g>
</svg>
