<?xml version="1.0" standalone="no"?>
<!DOCTYPE svg PUBLIC "-//W3C//DTD SVG 20010904//EN"
 "http://www.w3.org/TR/2001/REC-SVG-20010904/DTD/svg10.dtd">
<svg version="1.0" xmlns="http://www.w3.org/2000/svg"
 width="208.000000pt" height="205.000000pt" viewBox="0 0 208.000000 205.000000"
 preserveAspectRatio="xMidYMid meet">
<metadata>
Created by potrace 1.16, written by Peter Selinger 2001-2019
</metadata>
<g transform="translate(0.000000,205.000000) scale(0.100000,-0.100000)"
fill="#000000" stroke="none">
<path d="M441 1931 c-13 -13 -22 -46 -30 -117 -7 -54 -19 -121 -27 -149 -18
-66 -96 -181 -161 -236 -28 -24 -52 -49 -52 -54 -1 -6 -11 -15 -23 -20 -13 -6
-24 -20 -26 -32 -3 -18 4 -26 30 -37 115 -48 143 -63 170 -91 42 -43 71 -111
65 -152 -5 -27 -3 -33 12 -33 11 0 26 10 34 23 20 31 33 132 18 141 -6 4 -11
16 -11 27 0 11 -31 49 -72 89 -53 53 -78 70 -99 70 -15 0 -30 4 -34 9 -3 5 32
47 78 93 124 125 155 167 172 240 9 35 20 71 25 80 6 10 10 26 10 36 0 10 7
27 15 38 46 61 -39 130 -94 75z"/>
<path d="M1155 1917 c-9 -14 -28 -28 -43 -32 -15 -4 -29 -10 -32 -14 -8 -10
-109 -81 -117 -81 -4 0 -17 -10 -31 -22 -44 -42 -195 -135 -366 -226 -135 -71
-180 -142 -111 -174 21 -9 30 -6 73 31 28 23 65 47 83 55 19 8 63 33 99 55 36
22 97 60 135 83 39 23 75 47 80 53 29 32 127 97 140 92 12 -5 12 -11 1 -39 -8
-18 -21 -64 -30 -103 -9 -38 -25 -104 -35 -145 -10 -41 -29 -127 -40 -190 -12
-63 -23 -115 -24 -116 -1 0 -21 1 -44 4 -47 4 -58 22 -54 78 1 18 -2 35 -8 39
-6 3 -11 14 -11 23 1 15 2 15 14 -1 18 -23 43 -10 69 35 23 40 21 60 -8 88
-31 29 -83 24 -144 -15 -41 -25 -43 -28 -36 -63 4 -19 20 -52 36 -71 16 -20
29 -41 29 -47 0 -15 -249 -267 -279 -283 -11 -7 -21 -18 -21 -25 0 -19 39 -66
54 -66 7 0 34 20 59 44 25 24 60 49 76 56 17 7 35 18 42 26 6 7 23 20 38 27
49 25 106 59 115 68 13 12 56 12 56 -1 0 -19 -25 -65 -43 -78 -14 -11 -17 -24
-15 -55 2 -34 0 -42 -17 -45 -11 -3 -33 -15 -50 -28 -17 -13 -72 -42 -121 -64
-49 -23 -96 -45 -104 -50 -8 -5 -31 -17 -50 -25 -93 -43 -107 -50 -127 -69
-27 -23 -29 -48 -5 -68 31 -27 54 -30 76 -10 12 11 39 25 61 32 22 7 49 20 60
29 39 33 134 91 149 91 12 0 16 -10 16 -37 0 -83 -13 -95 -106 -98 -54 -2
-103 -25 -123 -57 -11 -18 -10 -24 7 -40 24 -25 123 -27 168 -3 50 26 57 21
49 -37 -10 -85 -25 -159 -43 -220 -19 -64 -10 -59 -165 -97 -70 -17 -152 -57
-168 -83 -5 -7 -9 -21 -9 -30 0 -16 11 -18 84 -18 45 0 96 4 112 9 16 5 56 16
89 26 33 9 69 20 80 25 87 35 154 59 175 63 14 3 41 10 60 16 107 31 161 41
178 32 12 -6 32 -6 58 0 21 6 48 13 60 16 11 2 38 -3 59 -11 36 -16 40 -15 56
1 19 19 28 90 14 112 -6 11 -34 13 -131 8 -68 -3 -131 -10 -142 -16 -10 -5
-46 -15 -78 -20 -32 -6 -77 -15 -99 -20 -86 -19 -140 -29 -144 -26 -2 2 4 23
13 47 8 24 20 79 27 123 23 168 46 230 94 253 38 19 135 114 135 133 0 10 -5
19 -11 19 -11 0 -91 -41 -99 -51 -7 -8 -88 -59 -95 -59 -3 0 -5 15 -5 34 0 19
-6 36 -12 39 -23 8 5 39 62 68 57 29 79 57 80 102 0 16 11 61 24 100 13 40 36
133 51 207 24 116 63 272 110 440 7 25 27 78 45 118 21 49 30 86 28 110 -3 33
-6 37 -35 40 -25 2 -35 -2 -48 -21z m-345 -783 c0 -8 -4 -14 -9 -14 -5 0 -17
-3 -26 -7 -16 -6 -16 -4 0 20 17 27 35 28 35 1z"/>
</g>
</svg>
