<?xml version="1.0" standalone="no"?>
<!DOCTYPE svg PUBLIC "-//W3C//DTD SVG 20010904//EN"
 "http://www.w3.org/TR/2001/REC-SVG-20010904/DTD/svg10.dtd">
<svg version="1.0" xmlns="http://www.w3.org/2000/svg"
 width="207.000000pt" height="213.000000pt" viewBox="0 0 207.000000 213.000000"
 preserveAspectRatio="xMidYMid meet">
<metadata>
Created by potrace 1.16, written by Peter Selinger 2001-2019
</metadata>
<g transform="translate(0.000000,213.000000) scale(0.100000,-0.100000)"
fill="#000000" stroke="none">
<path d="M1650 2078 c-36 -24 -69 -48 -73 -55 -4 -7 -22 -20 -40 -29 -30 -16
-48 -31 -172 -142 -26 -23 -50 -40 -53 -38 -2 3 1 27 7 53 6 26 12 78 14 114
2 72 -10 99 -47 99 -40 0 -48 -14 -51 -96 -2 -44 -8 -92 -14 -107 -6 -16 -11
-40 -11 -55 0 -53 -55 -179 -121 -277 -61 -90 -114 -204 -102 -216 18 -18 52
0 72 39 11 20 33 50 49 65 26 25 33 27 52 17 12 -6 32 -9 44 -6 33 9 237 -13
278 -31 l36 -15 -26 -24 c-36 -33 -171 -127 -307 -213 -60 -39 -117 -76 -125
-83 -8 -7 -33 -21 -55 -31 -22 -10 -49 -27 -60 -37 -11 -10 -48 -33 -83 -51
-62 -32 -102 -65 -129 -106 -19 -28 0 -60 41 -69 22 -5 33 -2 45 14 17 22 99
68 107 60 2 -3 -2 -20 -10 -39 -7 -19 -16 -55 -19 -81 -6 -41 -4 -49 15 -63
39 -26 90 -16 131 26 18 19 47 16 47 -6 0 -7 -21 -49 -46 -92 -26 -43 -62
-109 -80 -148 -18 -38 -54 -94 -81 -123 -44 -48 -55 -55 -123 -72 -104 -25
-279 -79 -304 -93 -42 -24 -46 -44 -13 -82 21 -25 24 -26 77 -15 70 14 172 41
185 50 6 4 28 11 50 14 35 7 78 23 193 73 18 8 73 27 121 43 220 70 458 98
616 70 33 -5 83 -10 112 -10 53 0 100 -15 206 -66 55 -25 58 -29 53 -55 -3
-16 -1 -31 4 -34 6 -4 10 26 10 77 l0 84 -42 27 c-23 15 -50 27 -60 27 -11 0
-31 6 -47 14 -15 8 -74 20 -131 26 -57 6 -107 13 -111 16 -4 2 -50 4 -103 5
-53 0 -98 4 -100 8 -9 14 68 527 90 601 31 109 87 248 113 285 37 53 65 128
56 154 -11 35 -72 23 -123 -24 -15 -14 -30 -25 -34 -25 -4 0 -22 13 -40 28
-18 16 -55 34 -83 41 -47 13 -103 33 -134 50 -8 4 -15 15 -17 25 -4 27 -9 28
-42 9 -17 -10 -33 -15 -37 -12 -11 11 7 34 60 79 30 25 55 48 55 51 0 15 251
249 304 285 41 28 108 112 100 125 -10 16 -28 9 -94 -33z m-130 -814 c0 -3
-16 -53 -36 -112 -20 -59 -40 -134 -44 -167 -4 -33 -17 -123 -28 -200 -11 -77
-23 -170 -27 -207 -4 -38 -11 -68 -16 -68 -25 0 -50 24 -78 73 -17 29 -40 62
-51 72 -21 19 -27 50 -11 59 18 11 71 139 71 171 0 76 -64 83 -153 16 l-57
-44 -35 39 -34 39 22 17 c12 9 33 23 47 30 14 7 41 24 60 38 40 28 62 43 104
68 16 9 39 26 50 38 12 12 35 29 51 38 37 21 92 59 123 86 23 19 42 26 42 14z
m-360 -462 c0 -13 -12 -22 -22 -16 -10 6 -1 24 13 24 5 0 9 -4 9 -8z m49 -237
c8 -17 41 -56 75 -87 33 -32 56 -58 52 -58 -36 0 -257 -54 -288 -71 -32 -17
-50 -11 -42 13 8 27 62 110 102 158 16 19 35 45 41 58 16 30 42 25 60 -13z"/>
<path d="M890 1788 c-22 -23 -22 -27 -15 -203 4 -123 3 -189 -5 -209 -9 -24
-8 -32 4 -45 14 -13 18 -13 39 7 31 29 47 150 44 332 -2 130 -3 135 -24 138
-12 2 -30 -6 -43 -20z"/>
<path d="M563 1640 c-33 -14 -35 -39 -13 -175 11 -69 20 -145 20 -170 0 -52
24 -74 55 -51 27 20 36 202 14 304 -6 30 -8 56 -5 59 8 8 -24 43 -38 42 -6 0
-21 -4 -33 -9z"/>
<path d="M531 843 c-46 -6 -81 -31 -81 -57 0 -12 11 -37 25 -56 14 -19 25 -40
25 -46 0 -7 6 -17 13 -21 16 -10 43 -112 56 -212 11 -82 22 -102 49 -85 44 28
54 179 19 284 -33 99 -40 126 -40 162 0 29 -4 38 -16 36 -9 0 -31 -3 -50 -5z"/>
</g>
</svg>
