<?xml version="1.0" standalone="no"?>
<!DOCTYPE svg PUBLIC "-//W3C//DTD SVG 20010904//EN"
 "http://www.w3.org/TR/2001/REC-SVG-20010904/DTD/svg10.dtd">
<svg version="1.0" xmlns="http://www.w3.org/2000/svg"
 width="206.000000pt" height="211.000000pt" viewBox="0 0 206.000000 211.000000"
 preserveAspectRatio="xMidYMid meet">
<metadata>
Created by potrace 1.16, written by Peter Selinger 2001-2019
</metadata>
<g transform="translate(0.000000,211.000000) scale(0.100000,-0.100000)"
fill="#000000" stroke="none">
<path d="M1012 2097 c-38 -18 -111 -207 -112 -288 0 -15 -6 -49 -14 -75 -8
-27 -26 -89 -41 -137 -14 -48 -39 -109 -55 -134 -34 -52 -37 -75 -15 -93 19
-16 58 8 80 49 8 17 24 36 34 43 26 18 72 159 117 358 21 90 46 150 75 176 47
42 46 75 -2 99 -33 17 -36 17 -67 2z"/>
<path d="M1207 2078 c-31 -67 -31 -78 -2 -78 23 0 25 -3 19 -27 -29 -137 -105
-344 -162 -441 -18 -31 -22 -46 -14 -54 16 -16 35 3 99 99 51 76 73 94 73 58
0 -17 61 -65 83 -65 9 0 19 -4 22 -10 3 -5 18 -10 33 -10 40 0 72 -11 72 -24
-1 -6 -24 -29 -52 -51 -27 -22 -66 -53 -86 -70 -36 -31 -78 -58 -147 -96 -22
-12 -42 -25 -45 -29 -3 -4 -25 -17 -50 -29 -25 -12 -72 -37 -105 -56 -33 -19
-67 -38 -75 -42 -8 -3 -43 -19 -77 -34 -34 -15 -71 -25 -83 -22 -11 3 -31 -2
-44 -11 -34 -22 -41 -61 -67 -354 -12 -144 -8 -218 16 -276 35 -82 93 -7 80
104 -6 56 7 212 27 314 8 42 16 60 29 63 10 3 21 13 24 22 5 18 55 51 75 51 7
0 10 -6 7 -14 -7 -18 17 -121 32 -140 6 -7 24 -16 39 -19 15 -3 35 -12 45 -19
17 -13 16 -17 -7 -88 -14 -41 -32 -97 -41 -125 -18 -54 -38 -106 -67 -172 -10
-23 -18 -48 -18 -55 0 -8 -5 -19 -11 -25 -6 -6 -16 -20 -23 -31 -27 -47 -66
-100 -102 -140 -34 -37 -49 -45 -120 -62 -45 -11 -92 -20 -105 -19 -30 1 -168
-30 -191 -42 -10 -5 -18 -21 -18 -34 l0 -25 167 0 c97 0 181 5 202 11 20 7 68
22 106 35 108 35 164 45 410 69 154 15 660 89 730 107 22 6 58 16 80 24 23 8
53 14 68 14 26 0 27 1 27 60 0 58 -1 60 -21 50 -37 -20 -162 -48 -329 -74 -91
-14 -181 -28 -200 -31 -19 -3 -46 -5 -60 -5 -14 0 -81 -8 -150 -19 -69 -11
-168 -23 -220 -25 -52 -3 -125 -9 -162 -12 -63 -6 -68 -5 -68 14 0 11 7 25 16
33 8 7 27 34 40 61 13 26 29 48 34 48 6 0 10 7 10 15 0 8 14 44 30 80 17 36
30 70 30 75 0 5 6 24 14 42 8 18 33 81 56 141 23 59 45 107 49 107 13 0 69
-65 154 -182 69 -94 97 -123 139 -148 64 -36 85 -35 114 7 20 30 22 50 28 240
7 220 18 344 42 483 27 162 38 205 55 237 28 49 49 144 42 186 -5 31 -10 37
-29 37 -23 0 -129 -53 -139 -70 -2 -4 -28 1 -57 11 -29 10 -60 18 -69 19 -24
0 -52 36 -56 72 -4 40 -23 54 -43 30 -35 -41 -90 -66 -90 -41 0 20 89 148 113
163 12 8 51 26 87 41 36 15 74 35 86 46 11 10 29 19 40 19 10 0 28 7 39 16 15
11 17 18 9 32 -17 26 -100 27 -165 2 -86 -32 -92 -30 -84 35 l7 55 -65 0 c-63
0 -65 -1 -80 -32z m336 -620 c-6 -7 -22 -98 -37 -203 -15 -104 -29 -206 -32
-225 -6 -33 -14 -281 -13 -383 0 -62 -8 -87 -26 -80 -15 5 -104 113 -140 169
-20 31 -63 85 -123 154 -23 26 -32 47 -32 72 0 41 -15 58 -50 58 -15 0 -46 14
-70 31 -56 41 -65 32 157 158 43 24 103 66 132 93 30 26 59 48 64 48 6 0 29
17 52 38 60 52 117 93 123 87 3 -2 0 -10 -5 -17z m-268 -128 c-3 -5 -10 -10
-16 -10 -5 0 -9 5 -9 10 0 6 7 10 16 10 8 0 12 -4 9 -10z m-280 -383 c0 -26
-20 -25 -23 2 -3 16 1 22 10 19 7 -3 13 -12 13 -21z"/>
<path d="M651 2003 c-20 -8 -60 -55 -61 -71 0 -7 6 -23 12 -35 37 -64 46 -297
15 -388 -8 -24 -18 -77 -22 -117 -8 -83 7 -122 49 -122 37 0 79 77 57 104 -4
6 -2 38 5 71 25 106 34 206 35 370 0 153 -1 160 -21 177 -22 18 -43 21 -69 11z"/>
<path d="M1137 1966 c-6 -16 2 -28 14 -20 12 7 11 34 0 34 -5 0 -11 -6 -14
-14z"/>
</g>
</svg>
