<?xml version="1.0" standalone="no"?>
<!DOCTYPE svg PUBLIC "-//W3C//DTD SVG 20010904//EN"
 "http://www.w3.org/TR/2001/REC-SVG-20010904/DTD/svg10.dtd">
<svg version="1.0" xmlns="http://www.w3.org/2000/svg"
 width="210.000000pt" height="228.000000pt" viewBox="0 0 210.000000 228.000000"
 preserveAspectRatio="xMidYMid meet">
<metadata>
Created by potrace 1.16, written by Peter Selinger 2001-2019
</metadata>
<g transform="translate(0.000000,228.000000) scale(0.100000,-0.100000)"
fill="#000000" stroke="none">
<path d="M1392 2156 c-13 -7 -51 -37 -84 -67 -139 -124 -165 -146 -205 -172
-24 -15 -44 -27 -46 -27 -3 0 -34 -19 -70 -42 -118 -78 -167 -107 -167 -100 0
4 15 25 33 46 19 21 49 73 66 114 18 42 45 91 59 110 30 40 36 108 11 125 -29
18 -66 0 -89 -45 -12 -23 -33 -55 -46 -71 -13 -16 -24 -34 -24 -41 0 -20 -73
-160 -103 -197 -48 -58 -95 -122 -134 -179 -90 -132 -120 -166 -162 -180 -38
-12 -71 -45 -71 -70 0 -16 32 -12 75 10 22 11 45 20 53 20 19 0 93 -82 90
-100 -4 -19 -178 -113 -273 -146 -27 -10 -57 -22 -65 -29 -8 -6 -43 -24 -77
-40 -69 -33 -94 -64 -73 -90 7 -8 17 -15 23 -15 6 0 19 -7 29 -17 17 -15 19
-15 36 0 10 9 34 22 53 28 19 7 40 17 47 22 14 11 58 34 217 116 55 28 109 58
120 66 26 18 35 11 70 -50 27 -46 42 -64 55 -65 3 0 11 18 18 41 10 34 10 47
-3 85 -15 43 -14 46 7 68 20 21 63 45 149 86 18 8 40 9 75 3 68 -13 75 -9 68
37 -6 37 -6 38 45 60 28 13 51 27 51 31 0 11 80 50 90 44 5 -3 9 -36 9 -73 -1
-37 0 -120 1 -184 l1 -117 -33 -31 c-104 -95 -261 -220 -277 -220 -5 0 -47
-29 -94 -64 -92 -70 -143 -100 -156 -92 -4 3 -16 23 -25 45 -23 50 -65 71
-103 50 -47 -25 -50 -51 -10 -116 55 -90 65 -227 31 -429 -4 -25 -2 -44 4 -48
14 -9 67 38 80 71 16 41 32 139 32 199 0 44 4 54 25 68 14 9 25 23 25 31 0 14
106 105 123 105 4 0 7 -7 7 -15 0 -24 49 -37 123 -32 37 2 67 3 67 1 0 -9
-129 -244 -145 -264 -6 -8 -30 -50 -53 -92 -97 -179 -126 -204 -195 -171 -62
31 -170 38 -268 18 -67 -14 -89 -15 -123 -5 -37 10 -47 9 -77 -8 -19 -11 -55
-23 -81 -26 -51 -8 -72 -24 -62 -50 4 -12 19 -16 54 -16 34 0 55 -6 76 -22
l28 -22 -25 -7 c-13 -4 152 -7 366 -7 215 0 382 2 371 5 -16 4 -13 10 20 44
21 21 45 39 54 39 9 0 20 4 25 9 25 22 222 74 370 96 280 42 414 25 501 -62
38 -38 87 -55 122 -42 28 10 30 14 34 66 3 62 -12 80 -63 69 -20 -4 -36 1 -56
17 -15 13 -59 33 -98 46 -59 19 -88 22 -200 20 -71 -1 -168 -8 -215 -16 -47
-7 -112 -16 -145 -19 -33 -4 -67 -10 -76 -15 -9 -5 -58 -18 -108 -29 -83 -18
-94 -19 -114 -5 -12 8 -29 15 -39 15 -10 0 -18 2 -18 5 0 14 36 75 75 125 23
30 44 60 46 65 9 22 122 185 128 185 12 0 79 -107 85 -137 10 -46 38 -67 80
-59 19 4 39 13 45 20 14 16 33 141 56 351 25 241 54 334 137 438 33 42 38 55
32 81 -14 70 -43 68 -144 -11 -71 -55 -112 -83 -122 -83 -5 0 -8 73 -8 163 0
191 8 217 82 255 25 13 67 41 94 63 27 21 82 57 122 80 76 43 93 62 74 81 -11
11 -81 -4 -107 -23 -34 -24 -221 -119 -235 -119 -6 0 -10 4 -10 9 0 27 46 227
66 289 27 80 30 122 12 140 -15 15 -17 15 -46 -2z m-106 -251 c-9 -25 -16 -60
-16 -78 0 -17 -5 -66 -12 -108 l-12 -75 -85 -52 c-115 -69 -124 -72 -115 -38
8 33 -11 35 -58 6 -18 -11 -45 -20 -59 -20 -37 0 -52 -21 -44 -63 6 -31 4 -35
-27 -47 -18 -8 -58 -29 -88 -47 -74 -45 -92 -43 -130 12 -18 27 -39 45 -50 45
-33 0 -33 21 1 56 37 38 54 44 45 14 -3 -11 -9 -29 -12 -40 -11 -34 19 -23 62
23 22 23 67 66 99 95 57 51 100 81 315 226 52 36 118 85 145 109 28 25 51 41
53 37 2 -5 -4 -29 -12 -55z m-692 -670 c-6 -16 -24 -21 -24 -7 0 11 11 22 21
22 5 0 6 -7 3 -15z m782 -173 c-11 -32 -37 -237 -46 -359 -5 -68 -12 -134 -16
-148 -6 -24 -8 -25 -24 -10 -10 9 -33 45 -51 80 l-32 63 21 50 c25 57 28 101
10 106 -56 18 -67 16 -104 -19 -42 -39 -59 -42 -93 -16 l-23 18 85 66 c47 37
98 72 113 79 16 7 53 34 82 60 55 50 88 62 78 30z m-799 -1037 c-2 -6 -55 -11
-138 -12 -81 0 -119 2 -96 6 20 5 40 11 43 14 11 11 194 3 191 -8z"/>
<path d="M964 1204 c-39 -13 -64 -37 -64 -61 0 -19 37 -53 59 -53 23 0 111 66
111 84 0 33 -53 48 -106 30z"/>
<path d="M128 3 c7 -3 16 -2 19 1 4 3 -2 6 -13 5 -11 0 -14 -3 -6 -6z"/>
<path d="M1028 3 c7 -3 16 -2 19 1 4 3 -2 6 -13 5 -11 0 -14 -3 -6 -6z"/>
<path d="M1678 3 c7 -3 16 -2 19 1 4 3 -2 6 -13 5 -11 0 -14 -3 -6 -6z"/>
</g>
</svg>
