<?xml version="1.0" standalone="no"?>
<!DOCTYPE svg PUBLIC "-//W3C//DTD SVG 20010904//EN"
 "http://www.w3.org/TR/2001/REC-SVG-20010904/DTD/svg10.dtd">
<svg version="1.0" xmlns="http://www.w3.org/2000/svg"
 width="210.000000pt" height="217.000000pt" viewBox="0 0 210.000000 217.000000"
 preserveAspectRatio="xMidYMid meet">
<metadata>
Created by potrace 1.16, written by Peter Selinger 2001-2019
</metadata>
<g transform="translate(0.000000,217.000000) scale(0.100000,-0.100000)"
fill="#000000" stroke="none">
<path d="M1477 2119 c-41 -10 -72 -27 -132 -74 -22 -18 -50 -35 -62 -39 -60
-19 -147 -117 -161 -182 -5 -27 -14 -40 -27 -42 -84 -12 -85 -17 -74 -171 7
-96 6 -149 -6 -235 -8 -61 -17 -137 -19 -170 -3 -32 -8 -61 -11 -64 -7 -8 15
-32 31 -32 7 0 29 24 48 53 30 45 37 67 45 138 5 46 15 125 22 176 10 70 10
113 1 184 -6 51 -9 95 -7 97 3 3 11 -1 20 -8 19 -16 60 8 71 42 12 38 77 109
119 130 22 11 52 31 67 45 36 34 47 24 37 -34 -4 -27 -13 -102 -20 -167 l-13
-119 -23 28 c-31 35 -100 46 -126 20 -24 -23 -21 -53 9 -97 l27 -38 -26 -39
c-14 -21 -37 -51 -51 -66 -14 -15 -26 -33 -26 -40 0 -7 -9 -22 -20 -35 -11
-13 -20 -29 -20 -37 0 -8 -6 -26 -14 -42 -18 -33 -7 -53 28 -54 33 0 58 27
120 131 47 77 72 99 80 70 30 -105 33 -147 17 -206 -11 -42 -25 -67 -47 -86
-18 -14 -35 -26 -39 -26 -4 0 -59 -35 -123 -77 -65 -43 -136 -88 -160 -101
-24 -13 -64 -39 -89 -58 -24 -19 -50 -34 -57 -34 -7 0 -36 -23 -65 -51 -58
-57 -67 -96 -29 -123 31 -22 38 -20 86 24 50 45 62 49 62 19 0 -13 16 -35 36
-53 48 -42 44 -54 -63 -162 l-85 -88 -32 81 c-17 44 -36 86 -43 94 -6 8 -21
36 -33 62 -26 55 -51 69 -95 54 -54 -18 -60 -58 -17 -105 15 -16 37 -43 48
-59 28 -38 94 -169 94 -185 0 -20 -57 -79 -150 -154 -91 -74 -122 -94 -144
-94 -7 0 -19 -6 -25 -14 -7 -8 -27 -18 -44 -22 -18 -3 -45 -17 -60 -30 -16
-13 -33 -24 -38 -24 -5 0 -9 -7 -9 -15 0 -12 17 -15 93 -15 86 0 146 13 242
51 11 5 45 17 75 28 84 29 193 70 215 81 37 18 230 82 290 96 33 7 101 25 150
40 139 40 224 52 426 57 205 5 259 0 293 -32 43 -40 56 -29 56 48 0 54 -3 70
-16 75 -9 3 -107 6 -218 5 -110 0 -219 0 -241 1 -22 1 -72 -6 -112 -16 -100
-23 -108 -19 -84 48 11 29 25 78 31 108 7 30 16 63 21 72 5 10 9 30 9 45 0 16
4 44 10 63 18 61 60 319 60 365 0 48 -19 75 -52 75 -18 0 -20 4 -15 38 4 20
11 111 17 202 20 312 31 455 42 542 9 71 9 92 -2 113 -14 27 -16 27 -73 14z
m-67 -569 c0 -5 -4 -10 -10 -10 -5 0 -10 5 -10 10 0 6 5 10 10 10 6 0 10 -4
10 -10z m37 -492 c-25 -147 -49 -273 -54 -281 -3 -5 -11 -46 -19 -91 -11 -72
-28 -134 -68 -246 -14 -42 -57 -67 -90 -52 -14 6 -31 35 -49 79 -15 39 -27 74
-27 79 0 5 -10 28 -22 51 -21 40 -22 42 -4 80 18 41 15 106 -7 120 -6 3 -35 6
-64 5 -59 -2 -67 9 -25 34 15 10 66 43 115 76 48 32 90 58 93 58 3 0 20 10 37
23 18 12 48 30 67 41 19 10 39 24 45 31 5 8 19 15 30 18 44 10 48 8 42 -25z
m-372 -515 c14 -21 25 -41 25 -46 0 -5 11 -23 24 -40 13 -18 27 -45 30 -62 5
-26 2 -32 -21 -42 -15 -7 -33 -13 -40 -13 -7 0 -41 -11 -75 -24 -35 -14 -101
-37 -148 -51 -47 -15 -120 -43 -163 -61 -43 -19 -82 -34 -87 -34 -33 0 8 46
120 136 8 6 35 31 60 54 25 24 55 49 68 58 12 8 22 19 22 26 0 6 15 21 33 33
18 12 50 41 72 63 21 22 42 40 47 40 4 0 19 -17 33 -37z"/>
<path d="M856 1981 c-4 -5 -41 -24 -84 -41 -42 -18 -115 -51 -161 -73 -76 -36
-89 -39 -122 -30 -45 12 -86 -6 -93 -40 -14 -67 -15 -95 -6 -160 5 -40 14
-164 19 -277 7 -141 15 -220 26 -252 12 -35 14 -52 6 -67 -14 -26 -14 -31 4
-31 8 0 27 -13 42 -30 55 -63 79 -48 303 190 94 99 136 174 106 186 -19 7 -22
123 -6 251 26 206 35 323 26 357 -5 19 -13 26 -31 26 -13 0 -26 -4 -29 -9z
m-59 -218 c-15 -189 -20 -234 -27 -238 -5 -3 -21 2 -36 10 -35 18 -64 19 -99
3 -39 -18 -31 -65 15 -95 67 -42 69 -46 58 -100 -12 -54 -43 -113 -102 -193
-43 -57 -77 -91 -87 -85 -13 9 -14 420 -1 559 7 77 8 80 37 89 33 11 119 61
148 86 17 14 69 37 91 40 5 0 6 -33 3 -76z m-39 -515 c-5 -10 -17 -22 -28 -28
-27 -14 -27 9 0 43 11 14 20 31 21 39 1 7 4 2 8 -12 5 -14 4 -33 -1 -42z"/>
</g>
</svg>
