<?xml version="1.0" standalone="no"?>
<!DOCTYPE svg PUBLIC "-//W3C//DTD SVG 20010904//EN"
 "http://www.w3.org/TR/2001/REC-SVG-20010904/DTD/svg10.dtd">
<svg version="1.0" xmlns="http://www.w3.org/2000/svg"
 width="207.000000pt" height="217.000000pt" viewBox="0 0 207.000000 217.000000"
 preserveAspectRatio="xMidYMid meet">
<metadata>
Created by potrace 1.16, written by Peter Selinger 2001-2019
</metadata>
<g transform="translate(0.000000,217.000000) scale(0.100000,-0.100000)"
fill="#000000" stroke="none">
<path d="M1096 2029 c-22 -18 -106 -172 -106 -196 0 -18 -55 -119 -74 -134
-31 -27 -162 -89 -185 -89 -53 0 -109 -65 -94 -107 19 -55 59 -66 123 -33 22
11 40 17 40 12 0 -8 -140 -273 -160 -302 -5 -8 -15 -25 -20 -38 -12 -29 -35
-52 -50 -52 -21 0 -68 -29 -74 -47 -3 -10 -14 -31 -25 -48 -24 -37 -25 -45 -7
-45 7 0 16 9 19 20 3 11 10 20 16 20 15 0 14 -32 -3 -55 -7 -11 -23 -38 -35
-60 -12 -23 -37 -49 -58 -60 -45 -26 -50 -38 -20 -52 29 -14 47 -5 108 54 33
31 49 41 54 33 14 -23 23 -164 15 -235 -14 -125 -31 -209 -51 -258 -26 -62
-21 -82 16 -63 29 15 105 155 105 194 0 13 4 32 10 42 28 52 28 371 0 444 -12
32 1 63 36 89 22 17 27 17 42 4 33 -29 60 -30 74 -3 20 37 136 136 152 130 8
-3 42 21 83 58 60 57 121 103 124 96 1 -2 3 -118 4 -258 2 -140 7 -297 10
-349 6 -86 5 -93 -10 -81 -9 7 -23 29 -30 47 -8 19 -28 55 -45 79 -16 25 -30
48 -30 51 0 3 -11 21 -25 39 -34 45 -32 65 15 119 44 51 48 66 23 90 -13 14
-28 16 -68 11 -74 -8 -129 -30 -134 -51 -3 -20 -30 -51 -32 -38 -1 4 -1 16 0
26 3 20 -10 22 -27 5 -22 -22 -13 -46 28 -75 22 -15 40 -31 40 -35 0 -3 -24
-26 -52 -49 -29 -24 -56 -49 -61 -56 -4 -7 -14 -19 -23 -27 -20 -20 -10 -51
22 -72 19 -13 45 -15 121 -13 l98 4 -3 -24 c-2 -14 -24 -49 -48 -79 -24 -29
-44 -57 -44 -61 0 -13 -212 -219 -255 -247 -116 -77 -187 -106 -305 -123 -78
-12 -160 -61 -160 -98 0 -17 51 -63 71 -63 9 0 42 11 73 25 31 14 75 27 99 31
23 3 94 23 157 44 144 48 157 51 270 69 96 16 143 26 165 38 11 6 56 13 100
16 105 8 160 15 215 27 53 12 337 29 428 27 57 -2 66 -5 86 -30 22 -27 40 -32
70 -21 13 5 16 22 16 86 l0 80 -37 -6 c-21 -3 -148 -8 -283 -12 -135 -3 -254
-8 -265 -10 -11 -3 -87 -13 -168 -24 -81 -11 -173 -27 -203 -35 -62 -16 -214
-38 -220 -32 -4 4 52 66 159 177 35 36 77 85 92 110 47 73 87 92 101 48 3 -12
26 -49 49 -82 23 -34 45 -71 49 -84 9 -27 40 -45 66 -37 31 10 38 59 26 205
-5 74 -10 259 -10 410 1 275 1 275 34 419 31 137 32 145 15 157 -24 17 -62 -3
-90 -46 -49 -77 -410 -358 -432 -336 -7 7 27 77 69 143 128 200 180 266 300
387 92 92 128 135 128 152 0 32 -29 32 -67 0 -15 -12 -38 -28 -50 -35 -21 -11
-22 -10 -14 11 5 14 19 25 37 28 16 3 30 12 32 20 3 18 -75 110 -93 110 -7 0
-24 -10 -39 -21z m-154 -391 c-7 -7 -12 -8 -12 -2 0 14 12 26 19 19 2 -3 -1
-11 -7 -17z m12 -794 c9 -23 8 -24 -13 -24 -14 0 -18 5 -14 20 6 24 19 26 27
4z"/>
</g>
</svg>
