<?xml version="1.0" standalone="no"?>
<!DOCTYPE svg PUBLIC "-//W3C//DTD SVG 20010904//EN"
 "http://www.w3.org/TR/2001/REC-SVG-20010904/DTD/svg10.dtd">
<svg version="1.0" xmlns="http://www.w3.org/2000/svg"
 width="207.000000pt" height="217.000000pt" viewBox="0 0 207.000000 217.000000"
 preserveAspectRatio="xMidYMid meet">
<metadata>
Created by potrace 1.16, written by Peter Selinger 2001-2019
</metadata>
<g transform="translate(0.000000,217.000000) scale(0.100000,-0.100000)"
fill="#000000" stroke="none">
<path d="M1401 1853 c-33 -32 -102 -96 -155 -143 -52 -47 -122 -111 -156 -142
-33 -31 -69 -59 -79 -63 -24 -7 -41 -47 -41 -98 -1 -50 -30 -194 -59 -292 -12
-38 -33 -115 -47 -170 -14 -55 -29 -104 -33 -108 -11 -11 -88 12 -131 40 -79
50 -75 36 -44 148 14 55 31 121 38 147 6 25 14 50 19 54 4 4 7 18 7 30 0 28
20 76 37 87 6 4 14 20 18 37 8 36 41 80 61 80 8 0 14 4 14 9 0 4 17 20 38 33
60 41 92 75 92 100 0 31 -9 42 -48 62 -34 18 -45 35 -61 101 -20 76 -88 123
-135 92 -25 -17 -26 -22 -57 -272 -7 -55 -17 -106 -22 -113 -21 -26 -243 -121
-310 -132 -88 -13 -120 -75 -63 -121 47 -38 216 -7 242 44 8 14 26 29 41 35
16 5 35 13 45 17 15 6 15 2 6 -37 -15 -60 -24 -68 -75 -68 -43 0 -49 -4 -114
-72 -73 -75 -119 -144 -119 -175 0 -10 -6 -27 -14 -38 -7 -11 -33 -58 -58
-105 -24 -47 -57 -104 -71 -127 -15 -24 -27 -46 -27 -50 0 -5 -11 -25 -25 -45
-32 -47 -33 -78 -2 -78 12 1 31 8 42 18 24 20 85 108 85 123 0 5 4 9 9 9 5 0
13 10 17 22 3 12 13 28 20 36 16 16 89 138 120 202 29 59 159 219 169 208 4
-3 -43 -191 -48 -193 -1 0 -15 -6 -30 -13 -36 -15 -45 -39 -21 -56 18 -14 18
-17 -4 -112 -13 -55 -27 -115 -32 -134 -27 -102 -60 -253 -60 -275 0 -18 7
-26 27 -31 14 -4 33 -2 42 3 10 6 33 75 61 189 70 275 70 274 92 274 51 0 208
-62 208 -82 0 -6 -15 -62 -34 -122 -19 -61 -39 -130 -45 -152 -10 -39 -27 -54
-67 -58 -6 -1 -28 -15 -49 -32 -37 -29 -37 -31 -24 -59 8 -16 26 -36 41 -44
24 -14 29 -14 45 0 10 9 57 21 108 28 50 7 104 16 120 21 141 40 182 53 195
61 8 5 26 14 40 19 42 17 55 27 55 41 0 28 -108 23 -244 -11 -25 -6 -54 -10
-65 -8 -19 3 -18 6 12 36 31 32 42 62 22 62 -6 0 -24 -14 -40 -30 -16 -17 -32
-30 -36 -30 -15 0 6 84 30 121 14 21 26 44 26 51 0 23 39 78 55 78 9 0 23 16
31 35 25 60 83 68 84 13 0 -29 1 -31 38 -102 26 -47 57 -86 103 -127 37 -32
72 -59 78 -59 6 0 20 18 31 40 18 35 21 63 24 198 2 86 10 209 19 272 9 63 27
203 41 310 46 353 53 390 84 453 23 47 43 158 34 186 -2 6 -17 11 -32 11 -22
0 -44 -15 -89 -57z m-527 -174 c14 -17 26 -37 26 -45 0 -17 -49 -63 -66 -64
-6 0 -17 -7 -24 -15 -37 -45 -41 23 -5 101 14 30 29 54 34 54 5 0 21 -14 35
-31z m482 -51 c-3 -24 -11 -63 -16 -88 -14 -67 -39 -235 -46 -315 -5 -61 -26
-220 -41 -310 -2 -16 -6 -95 -9 -174 -2 -79 -5 -146 -7 -148 -2 -2 -19 12 -38
30 -45 44 -65 113 -41 142 64 75 55 122 -24 128 -55 5 -56 31 -5 112 23 35 41
68 41 73 0 4 14 34 31 67 53 101 59 126 40 158 -21 36 -54 44 -108 24 -51 -19
-56 -8 -18 43 14 19 25 42 25 52 0 27 26 74 45 81 8 4 15 15 15 25 0 12 12 24
30 32 17 7 38 26 47 41 10 16 23 29 30 29 7 0 17 9 23 20 19 36 33 23 26 -22z
m-218 -476 c-16 -37 -39 -76 -50 -87 l-20 -20 7 50 c8 59 27 98 57 119 36 26
38 9 6 -62z m-108 -134 c-1 -46 -5 -58 -36 -93 l-35 -40 6 35 c4 19 11 39 16
44 5 6 9 23 9 39 0 32 16 67 30 67 6 0 10 -24 10 -52z m-500 -252 c0 -3 -4 -8
-10 -11 -5 -3 -10 -1 -10 4 0 6 5 11 10 11 6 0 10 -2 10 -4z"/>
</g>
</svg>
