<?xml version="1.0" standalone="no"?>
<!DOCTYPE svg PUBLIC "-//W3C//DTD SVG 20010904//EN"
 "http://www.w3.org/TR/2001/REC-SVG-20010904/DTD/svg10.dtd">
<svg version="1.0" xmlns="http://www.w3.org/2000/svg"
 width="209.000000pt" height="210.000000pt" viewBox="0 0 209.000000 210.000000"
 preserveAspectRatio="xMidYMid meet">
<metadata>
Created by potrace 1.16, written by Peter Selinger 2001-2019
</metadata>
<g transform="translate(0.000000,210.000000) scale(0.100000,-0.100000)"
fill="#000000" stroke="none">
<path d="M1105 1981 c-33 -19 -36 -27 -58 -148 -9 -46 -25 -96 -36 -112 -24
-33 -27 -73 -8 -89 6 -5 26 -13 43 -16 30 -7 34 -4 74 56 78 116 145 171 166
137 6 -10 -35 -113 -75 -189 -78 -146 -117 -212 -130 -223 -9 -8 -36 -19 -59
-26 l-44 -12 2 -97 c4 -142 -10 -206 -75 -347 -34 -75 -37 -91 -20 -105 8 -7
15 -17 15 -22 0 -18 -39 -95 -55 -108 -8 -7 -15 -19 -15 -27 0 -17 -97 -221
-115 -243 -7 -8 -39 -62 -71 -120 -31 -58 -68 -119 -81 -136 -12 -17 -23 -35
-23 -40 0 -18 -63 -85 -75 -80 -13 5 -35 -12 -35 -26 0 -5 30 -8 67 -6 l67 3
53 65 c55 68 173 262 252 413 50 97 64 108 160 133 31 8 60 19 65 25 6 5 15 9
22 9 13 0 136 71 225 131 30 19 81 50 113 69 l59 33 -7 -36 c-4 -21 -4 -37 0
-37 17 0 74 52 88 80 18 36 13 53 -19 74 -30 20 -59 20 -93 2 -103 -54 -246
-117 -260 -114 -9 2 -18 12 -21 23 -2 11 -14 34 -28 51 -31 42 -25 79 28 169
21 37 39 80 39 96 0 15 5 31 10 34 17 11 11 64 -10 85 -25 25 -25 41 0 90 13
26 18 49 14 65 -4 16 -1 32 8 43 56 66 117 244 118 344 0 65 -25 82 -113 76
l-64 -4 -28 38 c-33 43 -30 42 -70 19z m3 -1168 c3 -17 -6 -27 -37 -42 -51
-26 -76 -28 -66 -3 4 9 12 30 17 45 9 25 15 28 47 25 28 -2 37 -8 39 -25z"/>
<path d="M672 1883 c-30 -32 -80 -89 -111 -128 -30 -38 -79 -96 -108 -127 -29
-31 -53 -61 -53 -67 0 -6 -15 -28 -34 -48 -33 -38 -33 -39 -40 -163 -4 -69 -7
-136 -7 -150 0 -14 -6 -52 -14 -85 -10 -45 -14 -126 -13 -320 1 -143 -2 -283
-6 -311 -5 -37 -4 -55 6 -65 7 -8 18 -24 24 -34 6 -11 25 -24 42 -29 27 -7 38
-5 73 20 23 15 45 38 49 50 5 12 14 25 19 29 6 3 11 18 11 32 0 13 6 37 14 51
31 57 37 94 21 118 -20 31 -19 35 11 97 14 28 34 75 45 104 19 50 46 75 53 50
2 -6 9 -39 15 -72 25 -131 44 -187 68 -202 58 -38 79 33 69 241 -4 83 -9 196
-11 251 -3 55 -10 143 -16 195 -6 56 -8 161 -5 255 3 88 7 198 9 245 2 47 -1
93 -5 103 -16 31 -49 19 -106 -40z m-9 -380 c3 -109 3 -200 1 -203 -3 -2 -27
3 -53 13 -27 9 -56 17 -64 17 -40 0 -57 105 -29 171 11 26 25 50 31 53 6 4 11
14 11 23 0 9 18 35 40 59 22 24 40 48 40 54 0 5 4 10 8 10 5 0 12 -89 15 -197z
m67 87 c0 -5 -5 -10 -11 -10 -5 0 -7 5 -4 10 3 6 8 10 11 10 2 0 4 -4 4 -10z
m-213 -363 c34 -46 72 -123 73 -147 0 -19 -51 -144 -80 -195 -13 -22 -40 -75
-61 -117 -22 -42 -44 -80 -50 -84 -9 -5 -10 33 -6 142 7 188 12 221 58 370 5
17 9 40 9 52 0 34 22 26 57 -21z m-113 -652 c-4 -8 -8 -15 -10 -15 -2 0 -4 7
-4 15 0 8 4 15 10 15 5 0 7 -7 4 -15z"/>
<path d="M1380 1481 c-5 -11 -10 -29 -10 -40 0 -11 -4 -23 -10 -26 -15 -9 -12
-45 5 -51 8 -3 17 -14 20 -25 6 -18 45 -28 45 -11 0 5 9 18 21 31 30 32 37
108 12 127 -27 20 -70 17 -83 -5z"/>
<path d="M1230 590 c-39 -36 -39 -65 1 -85 24 -13 37 -14 64 -5 45 15 58 6 50
-33 -8 -38 -84 -164 -117 -193 -37 -33 -85 -49 -103 -34 -29 24 -13 78 56 187
22 37 0 50 -52 29 -78 -32 -124 -112 -117 -208 6 -84 28 -102 118 -96 36 3 81
13 100 23 40 21 130 111 130 131 0 7 14 29 31 48 17 20 36 57 43 83 14 56 6
160 -12 172 -8 4 -47 8 -87 9 -68 0 -77 -2 -105 -28z"/>
</g>
</svg>
