<?xml version="1.0" standalone="no"?>
<!DOCTYPE svg PUBLIC "-//W3C//DTD SVG 20010904//EN"
 "http://www.w3.org/TR/2001/REC-SVG-20010904/DTD/svg10.dtd">
<svg version="1.0" xmlns="http://www.w3.org/2000/svg"
 width="208.000000pt" height="211.000000pt" viewBox="0 0 208.000000 211.000000"
 preserveAspectRatio="xMidYMid meet">
<metadata>
Created by potrace 1.16, written by Peter Selinger 2001-2019
</metadata>
<g transform="translate(0.000000,211.000000) scale(0.100000,-0.100000)"
fill="#000000" stroke="none">
<path d="M1232 2083 c-6 -16 -23 -64 -38 -108 -15 -44 -35 -92 -46 -107 -10
-14 -18 -35 -18 -45 0 -41 -139 -385 -161 -399 -15 -9 -10 -44 6 -44 27 0 155
197 180 278 3 12 17 34 31 47 13 13 24 31 24 39 0 9 8 31 17 51 15 31 18 33
32 21 9 -8 33 -16 54 -18 l37 -3 -22 -25 c-13 -14 -34 -38 -46 -55 -48 -64
-63 -83 -132 -170 -74 -93 -87 -132 -42 -128 12 2 22 -2 22 -8 0 -10 -38 -90
-69 -146 -18 -32 -88 -187 -96 -213 -4 -14 -23 -59 -42 -100 -93 -202 -98
-207 -109 -123 -5 32 -8 184 -8 338 0 229 3 295 18 365 10 47 21 105 26 130
10 55 21 91 47 150 11 25 23 66 26 92 6 44 5 48 -16 53 -40 10 -75 -11 -101
-62 -30 -58 -199 -233 -287 -298 -63 -47 -77 -58 -136 -115 -36 -35 -43 -37
-43 -10 0 34 -32 88 -56 94 -26 7 -68 -7 -81 -26 -4 -7 -8 -98 -9 -203 0 -104
-6 -217 -12 -250 -6 -33 -14 -77 -17 -98 -2 -22 -13 -103 -24 -180 -11 -78
-27 -227 -36 -332 -19 -221 -22 -238 -37 -229 -6 4 -4 -3 5 -17 9 -13 17 -31
17 -41 0 -26 36 -23 54 4 9 12 16 32 16 45 0 12 4 25 10 28 5 3 10 19 10 36 0
33 2 34 30 17 15 -10 28 -10 62 0 85 25 308 60 308 49 0 -13 -74 -158 -83
-164 -6 -3 -20 6 -32 20 -11 15 -24 27 -28 27 -14 0 -7 -96 9 -118 19 -28 42
-28 98 0 38 18 53 35 98 111 49 83 99 137 127 137 6 0 21 11 33 25 24 28 62
32 114 13 26 -9 39 -9 59 0 23 10 26 17 20 41 -4 18 -2 32 5 36 7 4 9 18 6 31
-5 20 -3 24 14 24 25 0 79 27 161 80 33 21 77 44 97 51 20 6 42 15 47 19 20
16 130 70 141 70 6 0 17 6 23 13 6 8 38 22 72 32 49 15 64 16 80 7 25 -16 39
-7 39 23 0 35 -26 55 -72 55 -50 0 -160 -32 -227 -65 -69 -35 -91 -33 -91 6 0
17 8 43 19 57 26 37 36 89 21 108 -10 11 -9 18 5 34 9 10 20 41 22 67 4 38 13
56 44 88 45 47 59 81 59 141 0 39 -3 46 -26 54 -14 6 -36 10 -50 10 -45 0 -20
73 33 95 37 16 42 38 17 74 -15 21 -15 24 10 50 33 34 34 76 4 92 -13 6 -25
13 -27 15 -1 1 7 22 19 46 12 24 26 51 31 60 5 10 9 36 9 58 0 32 -4 42 -21
48 -27 10 -137 -4 -156 -20 -17 -14 -5 15 44 108 18 34 33 67 33 73 0 7 -25
11 -69 11 -66 0 -69 -1 -79 -27z m-516 -591 c-18 -150 -24 -402 -12 -521 7
-67 6 -83 -4 -79 -7 2 -18 24 -25 49 -6 24 -18 60 -27 79 -28 60 -30 79 -13
130 11 32 14 62 10 82 -8 36 -53 91 -67 82 -5 -3 -22 6 -39 20 -30 25 -41 30
-66 27 -7 -1 -13 1 -13 4 0 16 84 127 107 142 15 10 56 46 92 80 46 43 67 57
69 47 2 -9 -3 -72 -12 -142z m-306 -186 c0 -5 17 -30 38 -55 45 -54 66 -102
58 -129 -4 -10 -26 -45 -51 -76 -32 -42 -46 -69 -50 -104 -3 -26 -8 -55 -10
-65 -4 -21 47 -83 75 -92 28 -9 32 -35 11 -69 -11 -17 -32 -53 -47 -80 -38
-72 -211 -232 -230 -213 -12 11 40 423 55 441 5 6 9 34 9 61 0 30 9 70 23 100
22 49 46 159 55 260 8 77 11 82 39 55 14 -13 25 -28 25 -34z m897 -69 c-10
-26 -97 -143 -132 -176 -19 -19 -35 -40 -35 -48 0 -8 -9 -26 -20 -40 -27 -34
-26 -77 2 -95 20 -14 21 -16 6 -37 -11 -15 -15 -35 -11 -55 5 -31 1 -36 -57
-77 -89 -63 -100 -75 -100 -109 0 -25 -4 -30 -24 -30 -12 0 -37 -5 -55 -11
-18 -6 -34 -9 -37 -7 -2 3 10 32 27 64 65 122 159 313 159 326 1 7 21 51 45
98 25 47 55 107 67 134 l23 48 42 -6 c32 -4 47 -1 65 14 27 22 42 26 35 7z
m-683 -357 c28 -90 75 -309 76 -352 0 -4 -17 -15 -37 -24 -42 -18 -203 -32
-203 -18 0 5 10 25 23 44 29 44 93 170 118 234 24 59 18 82 -23 90 -36 7 -68
32 -68 53 0 7 12 37 26 65 33 66 41 58 88 -92z"/>
<path d="M1297 615 c-20 -14 -37 -30 -37 -35 0 -24 16 -42 47 -55 32 -14 34
-17 27 -50 -8 -45 -66 -154 -98 -184 l-24 -23 -16 29 c-18 36 -14 118 8 162
21 39 21 91 1 91 -8 0 -32 -19 -54 -42 -69 -71 -90 -181 -51 -258 24 -48 47
-61 108 -62 70 -2 118 33 170 122 23 40 42 78 42 85 0 7 7 29 15 48 8 20 15
59 15 86 0 44 -4 52 -35 80 -43 38 -69 39 -118 6z"/>
</g>
</svg>
