<?xml version="1.0" standalone="no"?>
<!DOCTYPE svg PUBLIC "-//W3C//DTD SVG 20010904//EN"
 "http://www.w3.org/TR/2001/REC-SVG-20010904/DTD/svg10.dtd">
<svg version="1.0" xmlns="http://www.w3.org/2000/svg"
 width="207.000000pt" height="209.000000pt" viewBox="0 0 207.000000 209.000000"
 preserveAspectRatio="xMidYMid meet">
<metadata>
Created by potrace 1.16, written by Peter Selinger 2001-2019
</metadata>
<g transform="translate(0.000000,209.000000) scale(0.100000,-0.100000)"
fill="#000000" stroke="none">
<path d="M377 1655 c-19 -18 -23 -37 -42 -199 -9 -71 -19 -134 -22 -140 -4 -6
-15 -58 -24 -116 -10 -58 -27 -145 -38 -195 -11 -49 -27 -121 -36 -159 -10
-47 -25 -82 -45 -107 -16 -21 -30 -48 -30 -60 0 -12 -10 -50 -22 -85 -12 -35
-18 -67 -14 -71 9 -10 38 9 51 33 21 39 41 60 85 83 25 14 61 37 80 53 19 15
40 28 47 28 7 0 16 6 20 14 4 7 27 25 51 40 41 25 42 26 42 6 0 -24 -60 -214
-96 -305 -13 -33 -24 -68 -24 -77 0 -10 -11 -39 -25 -65 -14 -27 -41 -82 -60
-123 -19 -41 -43 -87 -52 -102 -22 -34 -13 -44 25 -24 30 16 114 123 126 163
4 12 18 41 31 65 49 89 104 204 116 246 7 23 14 42 17 42 2 0 18 -10 35 -22
40 -29 76 -48 90 -48 6 0 40 -14 76 -32 45 -22 81 -32 118 -33 29 -1 56 -5 59
-8 6 -5 -41 -70 -79 -109 -10 -11 -53 -31 -95 -45 -42 -14 -80 -31 -84 -37
-15 -22 -7 -63 15 -84 23 -21 62 -30 69 -14 3 7 94 29 223 54 63 13 203 53
275 79 72 27 114 38 175 49 28 5 68 16 90 23 22 8 64 20 94 27 46 11 56 11 65
-2 15 -20 44 -29 52 -16 4 6 25 8 54 5 80 -10 112 11 86 55 -8 13 -6 21 7 31
23 16 14 41 -19 56 -29 13 -81 15 -88 2 -3 -4 -39 -11 -80 -14 -40 -3 -87 -12
-102 -19 -16 -8 -65 -23 -109 -32 -109 -25 -174 -42 -280 -77 -97 -31 -181
-49 -189 -41 -9 8 55 82 85 97 15 8 41 15 57 15 33 0 62 27 62 58 0 18 -6 22
-35 22 -42 0 -44 12 -12 60 13 19 43 70 68 113 24 43 53 93 64 112 71 119 87
153 94 196 10 62 -6 79 -73 79 -56 0 -103 -18 -135 -54 -21 -22 -23 -31 -15
-54 11 -32 42 -39 85 -21 16 6 32 9 36 5 7 -7 -41 -100 -66 -130 -33 -38 -170
-86 -290 -101 -62 -8 -118 -51 -108 -83 3 -9 10 -32 15 -49 8 -25 8 -33 -1
-33 -23 0 -158 77 -173 99 -12 16 -24 21 -45 19 -34 -3 -33 -4 -19 70 19 101
36 135 80 160 22 12 69 43 105 68 49 34 65 51 65 69 0 13 -5 27 -10 30 -6 4
-52 -14 -103 -38 l-92 -45 -3 24 c-5 35 27 112 49 119 20 7 35 47 24 64 -7 12
-61 13 -110 2 -20 -4 -35 -16 -44 -36 -17 -34 -40 -152 -40 -207 -1 -28 -7
-40 -23 -49 -13 -7 -56 -34 -97 -60 -41 -27 -77 -46 -82 -43 -7 4 11 83 30
129 8 19 23 84 43 190 22 119 50 220 63 235 8 9 15 25 15 36 0 10 7 51 16 90
10 39 14 83 10 98 -14 57 -75 85 -109 51z m608 -1095 c-3 -5 -13 -10 -21 -10
-8 0 -14 5 -14 10 0 6 9 10 21 10 11 0 17 -4 14 -10z"/>
<path d="M839 1531 c-13 -10 -64 -37 -114 -60 -227 -106 -244 -120 -256 -206
-6 -48 2 -75 23 -75 5 0 36 26 68 59 33 32 79 69 102 81 82 42 125 67 139 78
49 42 67 55 94 66 17 7 36 20 44 29 34 41 -53 65 -100 28z"/>
<path d="M1375 1543 c-11 -3 -27 -11 -36 -19 -8 -8 -44 -26 -80 -40 -35 -14
-68 -29 -74 -33 -5 -5 -31 -13 -56 -20 -63 -17 -139 -83 -139 -121 0 -51 54
-83 105 -64 8 4 22 19 31 35 15 31 102 91 146 102 15 4 33 14 42 22 8 8 47 31
85 51 39 20 71 42 71 49 0 17 -39 45 -60 44 -8 -1 -24 -4 -35 -6z"/>
</g>
</svg>
