<?xml version="1.0" standalone="no"?>
<!DOCTYPE svg PUBLIC "-//W3C//DTD SVG 20010904//EN"
 "http://www.w3.org/TR/2001/REC-SVG-20010904/DTD/svg10.dtd">
<svg version="1.0" xmlns="http://www.w3.org/2000/svg"
 width="209.000000pt" height="211.000000pt" viewBox="0 0 209.000000 211.000000"
 preserveAspectRatio="xMidYMid meet">
<metadata>
Created by potrace 1.16, written by Peter Selinger 2001-2019
</metadata>
<g transform="translate(0.000000,211.000000) scale(0.100000,-0.100000)"
fill="#000000" stroke="none">
<path d="M421 1762 c-27 -13 -38 -28 -54 -72 -21 -61 -21 -59 -71 -295 -20
-93 -43 -184 -51 -202 -8 -17 -15 -41 -15 -53 0 -23 -71 -268 -96 -331 -9 -21
-27 -45 -40 -54 -19 -12 -24 -24 -24 -54 0 -25 -13 -65 -36 -110 -24 -47 -34
-80 -32 -101 l3 -32 55 67 c30 36 57 76 60 88 3 12 46 50 100 89 52 37 113 81
135 96 22 16 51 35 64 42 l24 12 -6 -48 c-7 -62 -28 -124 -78 -229 -21 -46
-39 -91 -39 -99 0 -8 -4 -18 -10 -21 -5 -3 -39 -64 -75 -135 -36 -70 -79 -142
-96 -158 -35 -34 -31 -52 11 -52 31 0 76 39 138 122 39 51 181 319 194 365 11
41 24 42 32 3 8 -44 95 -160 119 -160 18 0 178 -103 174 -113 -1 -5 -27 -23
-57 -39 -30 -16 -59 -36 -63 -44 -14 -24 0 -58 31 -76 25 -15 33 -15 73 -3 24
8 85 26 134 41 50 14 104 33 120 40 17 8 77 23 135 34 142 26 232 47 310 71
58 19 270 42 354 39 16 0 40 7 53 15 21 14 24 22 21 68 l-3 52 -60 -3 c-33 -2
-64 -8 -69 -13 -6 -5 -28 -9 -50 -9 -75 -1 -230 -29 -358 -64 -71 -19 -167
-37 -215 -41 l-88 -7 88 89 c138 139 194 225 185 285 -3 25 -70 51 -126 49
-17 -1 -32 1 -32 4 0 4 13 25 29 48 58 85 87 182 76 250 -9 47 -39 69 -97 67
-24 -1 -62 -1 -85 0 -56 1 -109 -43 -100 -82 9 -34 58 -55 93 -39 37 17 94 14
94 -4 0 -25 -56 -128 -81 -151 -38 -33 -144 -84 -175 -84 -15 0 -35 7 -44 15
-24 22 -70 24 -83 4 -18 -29 15 -62 105 -107 89 -45 121 -50 237 -36 l65 7
-24 -39 c-25 -40 -67 -82 -176 -178 -95 -83 -91 -82 -175 -35 -114 65 -181
115 -219 164 -27 35 -43 47 -72 51 -21 4 -38 11 -38 16 0 26 43 178 62 218 12
25 26 55 31 67 5 12 19 24 31 27 12 3 43 20 70 38 26 18 64 42 84 53 45 25 52
51 19 66 -21 9 -36 5 -115 -37 -50 -27 -94 -45 -98 -42 -13 14 14 152 34 168
31 25 43 55 29 69 -9 9 -6 16 13 31 14 11 32 20 41 20 9 0 23 7 30 16 11 14
10 18 -6 30 -24 18 -50 17 -100 -3 -22 -8 -80 -30 -130 -48 -49 -17 -98 -35
-107 -40 -12 -5 -18 -3 -18 6 0 34 42 185 55 199 8 9 24 45 36 80 11 34 27 73
36 86 20 31 10 67 -22 82 -32 15 -32 15 -74 -6z m74 -659 c-8 -107 -3 -101
-140 -173 -63 -33 -81 -39 -83 -27 -2 8 11 59 29 112 35 107 63 145 144 195
l50 31 4 -23 c1 -13 0 -64 -4 -115z m670 -293 c-3 -5 -11 -10 -16 -10 -6 0 -7
5 -4 10 3 6 11 10 16 10 6 0 7 -4 4 -10z"/>
<path d="M1255 1649 c-33 -16 -65 -29 -71 -29 -13 0 -127 -120 -149 -158 -16
-26 -16 -31 -1 -60 13 -25 25 -33 71 -43 43 -10 57 -10 70 1 17 14 20 46 5 55
-19 12 -10 48 26 101 19 30 42 54 51 54 20 0 93 75 93 95 0 22 -27 17 -95 -16z"/>
</g>
</svg>
