<?xml version="1.0" standalone="no"?>
<!DOCTYPE svg PUBLIC "-//W3C//DTD SVG 20010904//EN"
 "http://www.w3.org/TR/2001/REC-SVG-20010904/DTD/svg10.dtd">
<svg version="1.0" xmlns="http://www.w3.org/2000/svg"
 width="207.000000pt" height="209.000000pt" viewBox="0 0 207.000000 209.000000"
 preserveAspectRatio="xMidYMid meet">
<metadata>
Created by potrace 1.16, written by Peter Selinger 2001-2019
</metadata>
<g transform="translate(0.000000,209.000000) scale(0.100000,-0.100000)"
fill="#000000" stroke="none">
<path d="M1152 1891 c-15 -11 -26 -39 -37 -96 -24 -116 -47 -196 -93 -317 -22
-58 -43 -120 -47 -137 -3 -16 -13 -35 -21 -42 -8 -6 -14 -15 -14 -20 0 -5 -23
-49 -50 -98 l-50 -89 -39 5 c-37 5 -42 2 -86 -43 -25 -27 -72 -89 -105 -139
-33 -49 -73 -109 -90 -132 -17 -24 -33 -50 -36 -58 -4 -8 -11 -15 -16 -15 -21
0 2 92 44 173 49 95 175 286 223 337 18 19 44 53 58 75 14 22 57 74 96 115 40
41 86 94 103 118 17 23 35 42 38 42 13 0 20 63 9 76 -17 21 -71 17 -120 -10
-152 -81 -191 -103 -253 -145 -38 -25 -74 -49 -80 -53 -24 -16 -162 -78 -173
-78 -6 0 -18 -8 -25 -19 -7 -10 -23 -21 -35 -25 -17 -5 -23 -15 -23 -35 0 -28
32 -71 53 -71 20 0 118 60 124 75 3 8 13 15 23 15 10 0 41 16 70 35 29 19 55
35 60 35 4 0 19 9 34 21 63 50 41 4 -52 -108 -56 -67 -120 -157 -143 -200 -23
-43 -47 -85 -54 -93 -7 -8 -19 -28 -27 -45 -9 -16 -29 -55 -45 -85 -17 -30
-40 -75 -53 -100 -12 -25 -27 -53 -32 -63 -5 -10 -22 -44 -38 -75 -16 -31 -34
-79 -40 -107 -6 -27 -20 -83 -31 -122 -25 -97 -25 -139 2 -153 11 -7 31 -9 44
-6 25 6 82 85 92 126 3 14 18 44 33 67 16 22 31 51 35 62 8 26 25 27 55 1 25
-22 113 -29 125 -10 3 6 15 10 26 10 21 0 119 85 119 104 0 6 11 32 25 58 31
59 74 187 83 253 7 50 8 50 42 48 31 -3 38 2 63 37 15 22 27 44 27 48 0 4 18
34 40 67 22 33 40 65 40 71 0 16 74 125 101 151 13 12 36 33 51 46 58 54 234
127 305 127 35 0 34 -46 -2 -94 -12 -17 -39 -62 -60 -101 -40 -74 -90 -151
-102 -157 -5 -1 -25 -39 -45 -83 -21 -44 -47 -90 -58 -101 -11 -12 -20 -25
-20 -29 0 -5 -45 -76 -66 -103 -5 -7 -100 41 -121 60 -18 17 -31 20 -64 15
-49 -6 -62 -21 -54 -61 7 -40 21 -54 66 -66 22 -6 55 -20 74 -32 29 -16 34
-25 29 -42 -13 -41 -33 -72 -96 -146 -34 -42 -67 -83 -73 -92 -18 -30 -145
-213 -167 -240 -18 -23 -19 -30 -8 -43 7 -8 23 -15 35 -15 37 0 121 78 182
169 31 47 67 97 80 111 41 45 103 129 124 169 32 62 37 63 120 41 41 -11 83
-22 93 -25 53 -13 100 32 69 67 -8 9 -52 31 -98 49 l-84 32 16 31 c9 17 25 44
37 61 11 16 38 64 60 105 21 41 44 82 51 90 19 22 134 217 167 280 33 65 53
148 44 183 -6 25 -34 41 -93 51 -39 6 -185 -9 -210 -23 -49 -26 -173 -79 -173
-74 0 9 61 206 76 243 21 55 28 144 12 157 -24 19 -55 21 -76 4z m-451 -1038
c-11 -43 -39 -110 -79 -191 -22 -44 -86 -102 -113 -102 -22 0 -49 22 -49 39 0
11 81 126 129 182 17 20 31 41 31 47 0 12 81 84 88 77 3 -2 -1 -26 -7 -52z
m-348 -328 c-26 -41 -43 -56 -43 -37 0 4 12 36 27 71 26 60 28 62 36 37 7 -21
3 -35 -20 -71z"/>
</g>
</svg>
