<?xml version="1.0" standalone="no"?>
<!DOCTYPE svg PUBLIC "-//W3C//DTD SVG 20010904//EN"
 "http://www.w3.org/TR/2001/REC-SVG-20010904/DTD/svg10.dtd">
<svg version="1.0" xmlns="http://www.w3.org/2000/svg"
 width="205.000000pt" height="207.000000pt" viewBox="0 0 205.000000 207.000000"
 preserveAspectRatio="xMidYMid meet">
<metadata>
Created by potrace 1.16, written by Peter Selinger 2001-2019
</metadata>
<g transform="translate(0.000000,207.000000) scale(0.100000,-0.100000)"
fill="#000000" stroke="none">
<path d="M1155 1862 c-105 -59 -148 -87 -170 -115 -14 -18 -33 -40 -42 -50
-11 -11 -20 -41 -23 -78 -5 -56 1 -82 14 -60 3 4 19 11 35 14 19 4 36 17 45
34 17 33 42 58 117 118 69 55 93 59 86 13 -8 -55 -29 -152 -37 -173 -5 -11
-11 -28 -14 -39 -4 -13 -11 -16 -24 -11 -22 10 -58 8 -81 -5 -11 -5 -37 -56
-61 -117 -23 -59 -67 -158 -96 -219 -30 -61 -54 -118 -54 -127 0 -9 11 -24 25
-33 32 -21 77 -11 107 24 33 38 144 133 203 172 28 19 79 58 114 87 92 76 101
73 101 -29 -1 -46 -7 -110 -15 -143 -8 -33 -17 -92 -21 -131 -4 -40 -9 -76
-13 -81 -3 -5 -38 -23 -77 -40 -39 -18 -93 -45 -120 -62 -26 -17 -55 -31 -64
-31 -8 0 -24 -6 -35 -13 -36 -25 -189 -85 -232 -92 -60 -9 -92 -37 -85 -72 3
-15 14 -35 26 -43 51 -37 192 -120 204 -120 7 0 41 -13 75 -29 118 -55 152
-68 227 -91 41 -13 79 -27 84 -32 6 -4 24 -8 42 -8 34 0 44 13 44 59 0 15 4
31 9 36 6 6 6 43 -1 95 -17 142 9 548 42 655 12 41 15 187 6 258 -10 66 -30
87 -87 87 -40 0 -79 -23 -236 -142 -100 -75 -109 -78 -97 -30 5 18 12 22 28
18 13 -3 30 3 46 17 32 28 110 147 110 167 0 9 4 20 9 25 6 6 15 37 20 70 33
191 33 199 19 240 -13 40 -13 40 -68 42 -35 1 -66 -5 -85 -15z m181 -1242 l0
-210 -25 0 c-14 0 -43 6 -66 14 -22 7 -58 19 -79 26 -22 7 -78 30 -124 52 -47
22 -96 44 -109 49 -42 16 -25 36 70 83 143 71 269 148 296 180 32 39 36 19 37
-194z"/>
<path d="M849 1813 c-130 -138 -238 -235 -333 -299 -51 -34 -86 -64 -86 -74 0
-24 -11 -32 -26 -19 -37 30 -63 -41 -28 -75 32 -32 88 -12 166 60 43 40 78 56
78 36 0 -8 -54 -115 -137 -272 -27 -52 -55 -112 -62 -132 -7 -20 -23 -47 -36
-60 -14 -13 -25 -26 -25 -31 0 -4 -11 -25 -24 -46 -14 -21 -29 -56 -35 -77 -6
-21 -26 -61 -45 -89 -19 -27 -49 -74 -66 -103 -28 -46 -34 -51 -44 -36 -12 15
-14 15 -29 -1 -31 -30 -50 -78 -51 -129 -1 -50 0 -51 30 -54 35 -3 100 43 130
93 9 17 32 48 51 69 18 22 33 45 33 52 0 22 28 38 44 25 32 -26 79 -32 114
-14 77 41 149 200 159 349 6 90 5 93 -20 117 l-27 24 21 44 c11 24 26 55 35
69 8 14 30 59 50 100 19 41 41 86 49 100 8 14 21 39 29 56 8 17 22 36 30 44 9
7 16 18 16 25 0 8 4 15 8 17 5 2 23 26 42 53 18 28 36 52 39 55 28 24 61 92
63 130 3 44 2 45 -28 48 -27 3 -39 -5 -85 -55z m-346 -948 c-23 -50 -74 -122
-90 -129 -8 -3 -13 2 -13 12 0 25 63 149 92 179 l23 25 3 -24 c2 -13 -5 -42
-15 -63z"/>
</g>
</svg>
