<?xml version="1.0" standalone="no"?>
<!DOCTYPE svg PUBLIC "-//W3C//DTD SVG 20010904//EN"
 "http://www.w3.org/TR/2001/REC-SVG-20010904/DTD/svg10.dtd">
<svg version="1.0" xmlns="http://www.w3.org/2000/svg"
 width="205.000000pt" height="208.000000pt" viewBox="0 0 205.000000 208.000000"
 preserveAspectRatio="xMidYMid meet">
<metadata>
Created by potrace 1.16, written by Peter Selinger 2001-2019
</metadata>
<g transform="translate(0.000000,208.000000) scale(0.100000,-0.100000)"
fill="#000000" stroke="none">
<path d="M1389 1860 c-41 -12 -75 -38 -89 -68 -19 -37 -40 -96 -36 -99 1 -2
29 2 60 8 32 6 60 9 62 7 3 -4 -26 -95 -62 -195 -14 -39 -17 -41 -39 -31 -33
15 -70 3 -92 -30 -11 -15 -34 -72 -52 -127 -47 -143 -62 -171 -91 -167 -65 7
-153 -52 -256 -172 -97 -114 -106 -112 -48 12 20 42 49 104 64 137 15 33 31
71 35 85 4 14 13 32 20 40 6 8 21 33 32 55 64 126 109 203 130 226 13 14 30
49 37 77 13 46 12 52 -4 67 -17 15 -21 15 -52 1 -34 -17 -108 -81 -144 -126
-26 -33 -140 -130 -152 -130 -5 0 -12 -7 -15 -14 -3 -8 -24 -20 -45 -26 -48
-12 -142 -97 -142 -126 0 -26 40 -64 67 -64 11 0 46 22 77 50 31 28 62 50 68
50 6 0 26 17 43 38 18 20 35 35 38 32 5 -5 -9 -35 -91 -195 -43 -86 -76 -160
-106 -242 -15 -39 -34 -77 -42 -84 -8 -7 -40 -65 -70 -128 -31 -64 -92 -189
-136 -278 -48 -95 -78 -168 -75 -177 8 -19 45 -20 70 -2 21 17 87 107 87 120
0 5 7 17 15 26 8 9 41 67 73 130 33 63 64 116 69 117 6 2 13 -7 17 -20 3 -13
18 -36 32 -50 24 -24 34 -27 95 -27 42 0 72 5 81 13 7 7 21 18 30 23 27 15
116 142 134 192 9 26 27 71 40 101 22 48 26 53 49 47 18 -5 36 1 63 19 20 14
41 25 45 25 24 0 115 83 242 219 77 83 144 151 149 151 9 0 2 -132 -15 -255
-24 -174 -23 -168 -44 -170 -18 -1 -68 -35 -130 -87 -11 -10 -38 -31 -60 -48
-39 -30 -207 -182 -229 -208 -6 -7 -18 -22 -28 -32 -46 -52 -31 -87 54 -125
34 -15 86 -43 115 -62 29 -18 55 -33 58 -33 3 0 40 -20 83 -44 82 -46 246 -96
263 -79 20 20 27 104 12 156 -31 111 -21 549 17 797 16 102 9 225 -16 275 -16
33 -25 41 -52 43 -27 3 -38 -3 -70 -39 -20 -23 -72 -78 -114 -122 -43 -44 -78
-82 -78 -84 0 -7 -102 -102 -128 -120 -12 -9 -25 -13 -28 -10 -6 6 14 68 51
160 39 95 47 108 75 122 72 37 111 94 146 215 34 119 32 221 -5 251 -25 21
-25 21 -62 9z m-429 -842 c-1 -7 -8 -31 -16 -53 -8 -22 -24 -65 -34 -96 -30
-86 -84 -169 -132 -201 -50 -32 -69 -35 -90 -10 -41 47 -27 80 83 192 35 36
70 78 76 93 7 15 23 31 35 36 13 5 32 18 42 30 21 24 36 27 36 9z m575 -149
c-10 -15 -7 -400 3 -477 7 -50 6 -65 -5 -69 -14 -5 -94 32 -208 96 -38 22 -82
46 -97 53 -31 14 -36 39 -13 58 8 7 15 17 15 22 0 6 14 27 30 47 52 62 265
281 273 281 5 0 5 -5 2 -11z"/>
</g>
</svg>
