<?xml version="1.0" standalone="no"?>
<!DOCTYPE svg PUBLIC "-//W3C//DTD SVG 20010904//EN"
 "http://www.w3.org/TR/2001/REC-SVG-20010904/DTD/svg10.dtd">
<svg version="1.0" xmlns="http://www.w3.org/2000/svg"
 width="209.000000pt" height="205.000000pt" viewBox="0 0 209.000000 205.000000"
 preserveAspectRatio="xMidYMid meet">
<metadata>
Created by potrace 1.16, written by Peter Selinger 2001-2019
</metadata>
<g transform="translate(0.000000,205.000000) scale(0.100000,-0.100000)"
fill="#000000" stroke="none">
<path d="M1251 1835 c-26 -14 -52 -55 -45 -67 3 -5 14 -8 26 -8 18 0 20 -4 15
-42 -3 -24 -11 -101 -18 -172 l-12 -129 -61 -58 c-63 -59 -78 -83 -116 -181
-21 -54 -21 -62 -10 -125 17 -87 31 -109 72 -116 68 -10 147 88 167 209 21
125 40 194 60 222 11 17 67 57 124 91 99 58 137 73 137 51 0 -10 -27 -75 -41
-100 -5 -8 -27 -53 -49 -100 -22 -47 -50 -103 -62 -125 -12 -22 -41 -78 -65
-125 -24 -47 -59 -108 -76 -137 -18 -29 -47 -78 -66 -110 -18 -32 -46 -72 -61
-90 -15 -17 -34 -49 -40 -70 -17 -50 -93 -148 -138 -178 -21 -13 -85 -70 -144
-127 -93 -89 -108 -108 -108 -136 0 -23 7 -36 26 -48 35 -24 63 -8 161 87 174
171 247 257 293 348 18 36 64 115 104 175 79 123 81 126 144 246 25 47 58 105
74 129 15 25 28 51 28 59 0 8 13 40 30 71 95 182 128 325 80 351 -44 24 -149
-8 -255 -76 -55 -35 -81 -42 -87 -24 -3 10 7 146 18 236 4 40 2 54 -11 67 -19
20 -60 20 -94 2z m-86 -697 c-7 -33 -25 -62 -25 -41 0 15 21 73 27 73 2 0 2
-15 -2 -32z"/>
<path d="M865 1520 c-3 -5 -17 -10 -29 -10 -13 0 -29 -7 -36 -15 -7 -8 -18
-15 -25 -15 -8 0 -26 -10 -42 -23 -15 -13 -48 -35 -73 -50 -25 -15 -65 -43
-90 -62 -25 -19 -57 -44 -72 -55 -41 -32 -35 -95 12 -120 21 -11 64 11 131 69
21 18 39 31 39 29 0 -8 -21 -72 -31 -93 -5 -11 -25 -65 -45 -120 -20 -55 -45
-124 -56 -153 -17 -46 -86 -175 -146 -272 -40 -64 -25 -110 35 -110 27 0 37 7
57 38 13 20 32 45 43 55 20 17 21 17 32 -12 7 -16 26 -41 42 -55 24 -21 39
-26 84 -26 48 0 59 4 79 26 48 53 59 71 111 170 31 61 31 164 0 164 -9 0 -23
5 -33 11 -14 9 -36 6 -97 -11 -44 -12 -87 -29 -97 -37 -9 -8 -18 -11 -21 -6
-4 7 38 121 72 198 5 11 24 56 41 100 41 103 61 141 117 229 44 67 56 108 46
149 -5 18 -38 23 -48 7z m-65 -739 c0 -18 -105 -160 -128 -175 -16 -10 -50 27
-57 60 -5 27 -1 35 27 58 18 15 47 38 63 51 38 31 95 34 95 6z"/>
</g>
</svg>
