<?xml version="1.0" standalone="no"?>
<!DOCTYPE svg PUBLIC "-//W3C//DTD SVG 20010904//EN"
 "http://www.w3.org/TR/2001/REC-SVG-20010904/DTD/svg10.dtd">
<svg version="1.0" xmlns="http://www.w3.org/2000/svg"
 width="208.000000pt" height="205.000000pt" viewBox="0 0 208.000000 205.000000"
 preserveAspectRatio="xMidYMid meet">
<metadata>
Created by potrace 1.16, written by Peter Selinger 2001-2019
</metadata>
<g transform="translate(0.000000,205.000000) scale(0.100000,-0.100000)"
fill="#000000" stroke="none">
<path d="M1461 1956 c-17 -18 -23 -39 -27 -92 -2 -38 -7 -76 -10 -84 -5 -15
-106 -93 -153 -119 -14 -8 -47 -32 -73 -54 -53 -44 -63 -81 -30 -110 34 -31
64 -21 130 43 34 33 67 60 75 60 10 0 12 -16 9 -67 -8 -136 -18 -151 -134
-213 -55 -30 -98 -75 -98 -105 0 -14 4 -25 10 -25 5 0 18 -10 30 -22 l20 -22
42 31 c74 52 71 53 63 -18 -5 -49 -13 -71 -34 -92 -37 -40 -160 -134 -245
-186 -39 -25 -76 -52 -83 -60 -16 -21 -16 -11 3 84 8 44 17 117 19 162 3 69 0
87 -15 105 l-18 23 -43 -22 c-24 -12 -82 -58 -129 -102 -47 -43 -87 -78 -89
-76 -4 5 55 109 91 159 15 21 28 43 28 47 0 4 18 35 40 68 22 33 40 63 40 67
0 4 24 39 54 79 29 39 61 86 71 105 10 19 28 46 41 59 13 13 21 28 17 34 -4 6
-6 28 -4 49 2 28 -2 40 -15 45 -19 7 -115 -42 -179 -91 -22 -17 -56 -40 -75
-50 -120 -66 -220 -139 -220 -162 0 -8 -4 -14 -10 -14 -12 0 -14 -67 -2 -73
35 -20 61 -15 96 17 20 19 45 38 56 41 11 3 20 11 20 16 0 11 81 71 88 65 6
-7 -51 -108 -103 -181 -23 -33 -68 -107 -100 -165 -32 -58 -65 -114 -75 -125
-9 -11 -33 -52 -52 -91 -20 -38 -65 -113 -100 -165 -35 -51 -81 -128 -102
-169 -20 -41 -55 -106 -77 -145 -49 -85 -53 -114 -20 -131 20 -10 30 -10 50 1
34 17 67 54 80 87 14 37 135 214 181 264 21 23 43 52 50 65 11 20 77 89 86 89
1 0 2 -19 2 -42 -2 -79 45 -218 73 -218 10 0 21 -4 24 -10 19 -31 79 19 120
101 20 39 28 46 48 42 23 -5 95 32 122 62 6 6 31 26 56 44 26 18 51 43 58 57
6 13 18 24 27 24 9 0 34 16 57 35 69 59 71 56 63 -112 -4 -82 -12 -172 -19
-202 -11 -47 -18 -56 -54 -77 -23 -13 -67 -30 -97 -39 -31 -9 -58 -21 -61 -26
-4 -5 -15 -9 -26 -9 -11 0 -36 -12 -55 -27 -40 -33 -45 -69 -11 -100 l22 -21
73 24 c40 14 87 33 105 43 24 13 37 15 49 8 13 -9 25 -3 57 26 23 20 46 37 51
37 11 0 127 51 174 77 16 9 59 23 95 33 64 16 68 16 101 -1 34 -18 35 -18 54
1 17 17 18 24 8 57 -6 21 -9 48 -6 60 4 16 1 25 -10 29 -26 10 -132 -19 -241
-67 -41 -18 -117 -40 -122 -36 -2 3 0 40 6 82 6 42 11 118 11 168 1 102 19
204 44 242 9 13 32 40 51 59 60 60 53 113 -10 84 -31 -14 -43 -4 -21 17 21 21
20 26 -9 54 -14 13 -25 27 -25 31 0 4 32 36 72 71 82 73 128 121 128 132 0 4
-9 16 -20 27 -17 17 -24 18 -47 8 -16 -7 -38 -21 -50 -32 -13 -11 -25 -17 -28
-14 -3 3 10 59 28 124 48 167 47 160 38 253 -7 63 -13 88 -27 98 -24 17 -27
17 -53 -11z m-646 -636 c-10 -11 -21 -17 -24 -14 -3 3 3 12 13 20 28 20 32 17
11 -6z m55 -302 c0 -31 -36 -173 -60 -234 -37 -98 -54 -124 -70 -108 -26 26
-14 222 16 255 8 8 14 20 14 25 1 18 100 79 100 62z"/>
</g>
</svg>
