<?xml version="1.0" standalone="no"?>
<!DOCTYPE svg PUBLIC "-//W3C//DTD SVG 20010904//EN"
 "http://www.w3.org/TR/2001/REC-SVG-20010904/DTD/svg10.dtd">
<svg version="1.0" xmlns="http://www.w3.org/2000/svg"
 width="206.000000pt" height="205.000000pt" viewBox="0 0 206.000000 205.000000"
 preserveAspectRatio="xMidYMid meet">
<metadata>
Created by potrace 1.16, written by Peter Selinger 2001-2019
</metadata>
<g transform="translate(0.000000,205.000000) scale(0.100000,-0.100000)"
fill="#000000" stroke="none">
<path d="M1458 1889 c-26 -10 -28 -15 -28 -67 0 -31 -4 -62 -8 -69 -9 -14 -93
-73 -106 -73 -4 0 -21 -11 -38 -25 -16 -14 -37 -25 -47 -25 -23 0 -71 -51 -71
-76 0 -10 12 -27 26 -37 28 -21 14 -25 148 44 21 11 40 19 42 16 4 -3 -23
-105 -57 -219 -19 -63 -22 -68 -67 -88 -26 -12 -54 -26 -62 -31 -8 -5 -26 -14
-39 -19 -52 -23 -81 -51 -81 -79 0 -32 27 -61 56 -61 11 0 55 23 99 50 44 28
82 50 86 50 3 0 6 -53 5 -118 l-1 -118 -40 -36 c-22 -19 -70 -52 -106 -72
l-65 -36 -11 80 c-9 69 -16 87 -49 130 -21 27 -44 50 -51 50 -7 0 -13 5 -13
10 0 15 -87 12 -119 -5 -26 -13 -41 -33 -41 -55 0 -4 24 -15 53 -24 79 -25 94
-35 112 -76 13 -28 15 -49 10 -81 -10 -60 -42 -125 -70 -143 -16 -10 -21 -22
-18 -38 5 -27 -63 -97 -114 -118 -38 -14 -95 -7 -114 16 -15 18 -17 91 -6 234
8 107 22 173 61 275 15 39 38 108 51 155 48 164 75 238 127 336 92 176 86 158
79 277 -2 18 -50 3 -159 -48 -143 -68 -192 -94 -213 -111 -8 -8 -30 -17 -47
-20 -18 -4 -32 -10 -32 -14 0 -4 -11 -11 -25 -14 -34 -9 -42 -48 -21 -93 16
-35 18 -35 63 -30 31 3 52 12 62 25 9 12 39 32 68 45 28 13 68 38 88 55 62 55
68 38 19 -60 -24 -47 -49 -118 -79 -223 -33 -116 -74 -244 -84 -263 -6 -11
-15 -50 -21 -88 -6 -38 -16 -85 -22 -104 -24 -80 -41 -127 -54 -157 -8 -17
-14 -36 -14 -41 0 -6 -7 -23 -15 -39 -19 -38 -42 -92 -50 -123 -4 -14 -18 -42
-32 -62 -54 -80 -25 -157 49 -129 25 9 58 76 89 179 7 24 18 51 25 60 12 15
13 13 14 -16 0 -80 59 -129 139 -117 67 9 113 26 142 52 14 13 29 23 34 23 4
0 40 33 79 73 39 40 85 79 101 87 17 8 55 31 85 50 30 20 73 49 96 63 22 15
44 27 48 27 5 0 5 -42 2 -92 -11 -160 -12 -162 -96 -202 -92 -45 -126 -70
-144 -108 -22 -42 -20 -63 6 -87 30 -29 64 -18 115 37 34 37 46 43 67 38 14
-3 28 -2 31 4 9 14 144 100 158 100 7 0 24 7 39 14 16 8 49 18 75 22 27 3 54
10 62 14 8 4 25 3 38 -3 36 -16 65 15 57 62 -12 65 -38 75 -110 44 -39 -16
-206 -54 -212 -48 -2 2 1 38 7 80 6 42 11 102 11 133 0 76 16 129 40 137 11 4
20 13 20 20 0 8 9 19 20 25 11 6 20 17 20 24 0 7 9 25 21 40 17 21 19 29 9 41
-19 23 -33 18 -84 -26 -25 -22 -46 -37 -47 -32 -4 30 5 90 17 118 19 47 18 54
-11 61 -14 3 -25 10 -25 14 0 5 25 30 56 57 31 26 76 66 101 89 l46 40 -18 27
c-9 15 -21 27 -26 27 -5 0 -30 -15 -56 -33 -82 -58 -85 -56 -56 26 14 40 29
77 34 82 4 6 12 29 18 50 5 22 20 72 32 112 l22 72 -20 53 c-22 57 -36 65 -85
47z m-871 -1161 c-3 -8 -6 -5 -6 6 -1 11 2 17 5 13 3 -3 4 -12 1 -19z"/>
<path d="M790 980 c0 -5 5 -10 10 -10 6 0 10 5 10 10 0 6 -4 10 -10 10 -5 0
-10 -4 -10 -10z"/>
</g>
</svg>
