<?xml version="1.0" standalone="no"?>
<!DOCTYPE svg PUBLIC "-//W3C//DTD SVG 20010904//EN"
 "http://www.w3.org/TR/2001/REC-SVG-20010904/DTD/svg10.dtd">
<svg version="1.0" xmlns="http://www.w3.org/2000/svg"
 width="209.000000pt" height="206.000000pt" viewBox="0 0 209.000000 206.000000"
 preserveAspectRatio="xMidYMid meet">
<metadata>
Created by potrace 1.16, written by Peter Selinger 2001-2019
</metadata>
<g transform="translate(0.000000,206.000000) scale(0.100000,-0.100000)"
fill="#000000" stroke="none">
<path d="M1413 1879 c-13 -4 -23 -17 -23 -27 0 -11 -7 -39 -16 -63 -8 -24 -22
-80 -30 -124 -21 -113 -21 -113 -65 -141 -22 -13 -57 -40 -78 -59 -21 -19 -53
-38 -71 -42 -32 -6 -33 -5 -27 23 18 93 49 305 51 339 1 34 -2 40 -26 49 -20
7 -32 5 -50 -6 -22 -14 -26 -30 -42 -159 -10 -79 -27 -178 -38 -219 -28 -103
-37 -143 -38 -155 0 -17 51 -67 64 -62 47 20 46 20 46 -11 0 -42 -20 -134 -32
-149 -17 -21 -136 -76 -147 -68 -6 3 -11 19 -11 35 0 44 -26 63 -77 57 -36 -4
-50 -12 -86 -52 -48 -54 -72 -94 -62 -103 4 -4 29 5 56 21 61 33 69 34 69 1 0
-41 -18 -64 -68 -87 -58 -27 -95 -52 -138 -95 -39 -37 -40 -43 -18 -77 19 -29
48 -32 89 -7 17 10 42 23 57 29 l27 12 -19 -37 c-10 -20 -24 -48 -29 -62 -27
-64 -60 -105 -101 -127 -38 -20 -46 -21 -58 -9 -22 21 -32 93 -25 177 6 81 -3
101 -30 71 -42 -46 -62 -196 -36 -270 13 -37 83 -92 117 -92 13 0 35 9 49 20
14 11 31 20 37 20 6 0 26 16 45 35 18 19 36 35 41 35 17 0 125 228 145 307 7
31 62 93 82 93 21 0 15 -51 -11 -100 -37 -68 -51 -100 -70 -160 -10 -30 -30
-82 -46 -115 -44 -97 -81 -196 -75 -205 17 -27 91 55 139 155 11 22 23 42 26
45 4 3 12 15 19 27 12 25 65 43 124 43 39 0 46 -12 24 -39 -18 -22 -127 -206
-127 -214 0 -4 -22 -46 -50 -94 -53 -92 -59 -113 -35 -113 23 0 150 141 175
194 3 6 22 29 42 51 80 87 147 204 215 375 6 14 26 61 46 105 68 149 70 215 7
215 -50 0 -63 -21 -124 -197 -48 -142 -59 -160 -104 -173 -50 -15 -108 -10
-105 10 10 83 134 314 183 344 15 8 49 37 77 64 28 27 71 64 97 82 25 18 46
40 46 47 0 7 18 30 40 50 39 36 48 62 34 97 -9 24 -42 19 -67 -11 -24 -30 -37
-41 -145 -133 -85 -73 -116 -77 -82 -11 23 46 26 77 8 84 -8 3 -3 12 15 26 15
13 27 29 27 37 0 8 5 14 11 14 6 0 39 29 73 65 56 57 64 71 70 114 4 28 20 90
37 138 17 48 32 101 33 117 1 36 -29 58 -61 45z"/>
<path d="M1209 1851 c-23 -18 -24 -24 -24 -155 0 -113 3 -138 17 -152 11 -11
25 -14 40 -11 23 6 25 13 37 114 6 60 14 126 17 149 10 66 -37 96 -87 55z"/>
<path d="M873 1706 c-4 -7 -38 -34 -75 -60 -37 -25 -87 -59 -109 -76 -23 -16
-46 -30 -51 -30 -6 0 -33 -20 -61 -43 -50 -42 -130 -94 -223 -147 -34 -19 -47
-34 -56 -63 -10 -33 -9 -40 11 -61 28 -30 51 -25 111 24 25 21 70 55 101 76
31 22 80 58 109 82 75 61 87 56 49 -20 -17 -35 -41 -76 -53 -93 -30 -42 -146
-257 -146 -271 0 -6 -16 -32 -36 -58 -20 -26 -51 -80 -70 -121 -19 -41 -38
-76 -43 -80 -5 -3 -15 -22 -22 -43 -7 -20 -41 -86 -76 -147 -94 -164 -121
-248 -88 -275 13 -11 21 -10 42 1 34 18 57 56 138 224 16 33 47 89 69 125 21
36 50 90 64 120 14 30 37 73 52 95 14 22 53 90 85 150 80 152 174 311 191 326
8 6 14 19 14 29 0 9 13 37 30 61 16 24 30 49 30 54 0 6 11 20 24 32 13 13 31
38 40 57 9 20 21 38 26 41 6 3 10 28 10 56 l0 49 -40 0 c-23 0 -42 -6 -47 -14z"/>
<path d="M1513 1104 c-29 -15 -31 -19 -30 -67 1 -65 -26 -171 -65 -259 -44
-99 -22 -130 36 -50 15 20 45 62 67 92 67 93 93 236 49 280 -24 24 -18 23 -57
4z"/>
<path d="M1218 424 c-33 -18 -37 -57 -10 -92 21 -27 188 -90 262 -98 56 -7 92
-26 114 -58 17 -27 53 -34 85 -16 15 7 18 20 17 60 -1 27 -6 54 -11 58 -16 14
-134 54 -202 68 -34 7 -97 31 -139 53 -43 23 -80 41 -83 41 -3 -1 -18 -8 -33
-16z"/>
</g>
</svg>
