<?xml version="1.0" standalone="no"?>
<!DOCTYPE svg PUBLIC "-//W3C//DTD SVG 20010904//EN"
 "http://www.w3.org/TR/2001/REC-SVG-20010904/DTD/svg10.dtd">
<svg version="1.0" xmlns="http://www.w3.org/2000/svg"
 width="216.000000pt" height="203.000000pt" viewBox="0 0 216.000000 203.000000"
 preserveAspectRatio="xMidYMid meet">
<metadata>
Created by potrace 1.16, written by Peter Selinger 2001-2019
</metadata>
<g transform="translate(0.000000,203.000000) scale(0.100000,-0.100000)"
fill="#000000" stroke="none">
<path d="M611 1917 c-24 -30 -23 -73 4 -138 39 -93 38 -98 -23 -130 -62 -33
-110 -65 -135 -91 -10 -10 -24 -18 -31 -18 -17 0 -126 -116 -126 -135 0 -14
55 -65 71 -65 23 0 87 47 129 95 25 29 60 60 79 71 19 10 53 34 75 53 22 18
42 29 44 23 1 -5 -18 -51 -43 -103 -25 -51 -57 -124 -71 -163 -14 -39 -31 -84
-39 -101 -7 -16 -21 -55 -31 -85 -9 -30 -30 -76 -46 -103 -15 -26 -28 -51 -28
-56 0 -4 -9 -16 -19 -25 -11 -10 -22 -29 -26 -43 -3 -15 -15 -38 -26 -51 -12
-16 -19 -39 -18 -61 2 -36 -75 -220 -125 -300 -13 -20 -28 -51 -34 -69 -6 -18
-20 -45 -32 -59 -11 -14 -20 -30 -20 -36 0 -5 -31 -56 -70 -113 -66 -97 -70
-107 -70 -159 0 -41 4 -55 14 -55 14 0 106 98 106 113 0 4 18 30 40 58 22 28
40 54 40 59 0 4 17 37 38 71 59 98 101 176 129 243 14 34 47 106 73 161 27 55
51 112 55 127 4 14 18 36 31 49 13 12 24 26 24 31 0 4 17 31 37 59 25 36 50
57 82 71 25 10 65 35 88 54 24 19 47 32 53 29 17 -11 11 -22 -22 -40 -79 -41
-99 -54 -132 -81 -19 -16 -45 -36 -58 -45 -22 -16 -23 -18 -8 -60 10 -29 22
-45 35 -48 33 -6 97 -62 86 -75 -5 -6 -11 -24 -13 -40 -2 -24 3 -33 28 -48 30
-18 32 -18 57 2 14 11 37 20 52 20 25 0 26 -2 14 -19 -8 -10 -36 -52 -64 -93
-27 -40 -119 -142 -202 -226 -84 -84 -153 -157 -153 -162 0 -5 -17 -26 -39
-47 -53 -52 -58 -79 -19 -102 39 -25 60 -18 105 35 21 24 70 78 108 120 39 41
78 91 88 110 9 19 23 34 30 34 19 0 106 99 189 215 139 195 150 210 170 243
11 17 26 32 33 32 8 0 18 6 22 14 4 7 18 19 31 25 39 21 62 44 62 64 0 10 8
31 18 45 10 15 26 46 36 69 16 36 17 47 6 73 -9 22 -10 48 -5 88 21 141 4 324
-35 379 -17 26 -57 30 -85 9 -17 -12 -18 -18 -6 -71 12 -54 12 -58 -9 -80 -13
-13 -41 -33 -64 -45 -22 -11 -70 -41 -106 -66 -43 -30 -66 -41 -69 -33 -2 7 1
15 8 17 13 4 14 31 2 51 -8 12 -16 12 -55 1 -55 -15 -69 -36 -64 -97 3 -46 3
-46 -61 -94 -63 -48 -81 -57 -81 -41 0 13 48 153 65 188 8 16 27 60 44 96 16
37 59 111 95 166 36 55 68 112 72 126 3 14 12 26 19 26 8 0 27 11 43 25 17 14
36 25 44 25 8 0 23 9 34 21 10 12 31 27 46 35 20 10 28 22 28 41 0 24 -2 25
-44 21 -29 -4 -60 -17 -87 -37 -24 -17 -49 -31 -57 -31 -18 0 -95 -46 -117
-70 -9 -10 -33 -24 -52 -31 -43 -14 -53 -3 -53 59 0 48 -21 96 -45 106 -27 10
-52 7 -64 -7z m559 -524 c0 -23 -13 -37 -68 -78 -37 -27 -83 -64 -102 -81 -19
-17 -45 -34 -57 -38 -38 -12 -27 19 20 56 39 30 86 71 160 141 17 15 34 27 38
27 5 0 9 -12 9 -27z m-8 -206 l-5 -88 -98 -64 c-53 -36 -102 -65 -108 -65 -6
0 -11 19 -11 43 0 35 6 48 38 79 20 20 60 61 89 90 85 87 96 98 98 96 1 -2 0
-43 -3 -91z m-314 -248 c-3 -46 -7 -55 -41 -83 l-38 -31 -19 25 c-28 36 -25
54 18 89 20 17 42 36 47 41 25 23 36 10 33 -41z m172 -39 c0 -15 -46 -60 -62
-60 -6 0 3 16 22 35 37 38 40 40 40 25z"/>
<path d="M998 604 c-11 -23 -9 -28 22 -52 19 -15 55 -33 80 -41 25 -7 48 -18
52 -25 37 -56 -57 -148 -186 -181 -31 -8 -59 -15 -61 -15 -9 0 -5 39 5 45 16
10 12 45 -7 52 -23 9 -83 -58 -83 -93 0 -38 37 -93 67 -100 16 -5 49 1 87 16
34 12 80 27 102 32 47 10 121 75 147 128 42 83 5 171 -96 229 -69 39 -113 41
-129 5z"/>
</g>
</svg>
