<?xml version="1.0" standalone="no"?>
<!DOCTYPE svg PUBLIC "-//W3C//DTD SVG 20010904//EN"
 "http://www.w3.org/TR/2001/REC-SVG-20010904/DTD/svg10.dtd">
<svg version="1.0" xmlns="http://www.w3.org/2000/svg"
 width="209.000000pt" height="205.000000pt" viewBox="0 0 209.000000 205.000000"
 preserveAspectRatio="xMidYMid meet">
<metadata>
Created by potrace 1.16, written by Peter Selinger 2001-2019
</metadata>
<g transform="translate(0.000000,205.000000) scale(0.100000,-0.100000)"
fill="#000000" stroke="none">
<path d="M568 1615 c-37 -20 -41 -41 -28 -135 15 -112 9 -134 -46 -161 -46
-22 -124 -92 -163 -147 -36 -51 -25 -82 31 -82 11 0 47 25 79 55 33 30 75 58
93 64 19 5 50 20 68 34 40 31 88 45 88 26 0 -27 -98 -201 -158 -279 -11 -14
-43 -75 -71 -135 -28 -61 -56 -117 -61 -125 -6 -8 -15 -25 -20 -38 -9 -22 -58
-91 -71 -102 -3 -3 -14 -21 -24 -40 -9 -19 -24 -43 -32 -52 -8 -9 -22 -30 -31
-46 -26 -46 -145 -202 -154 -202 -9 0 -11 -34 -2 -43 4 -3 18 0 33 8 29 15
151 128 151 140 0 7 34 50 88 111 46 52 141 185 147 206 10 30 44 78 55 78 19
0 31 -43 40 -142 8 -82 7 -116 -5 -168 -9 -36 -18 -87 -20 -115 -2 -27 -7 -73
-10 -102 -4 -45 -2 -54 15 -63 17 -9 22 -5 40 29 11 22 20 53 20 69 0 15 5 33
11 39 6 6 15 29 20 50 4 21 13 58 19 83 6 25 12 108 13 186 1 99 6 146 15 157
7 8 12 24 10 34 -3 15 5 18 54 21 54 3 58 2 73 -27 11 -22 25 -32 51 -37 31
-6 39 -3 58 20 11 14 57 43 101 65 44 21 89 48 100 61 11 12 33 29 49 37 l29
15 -7 -53 c-4 -30 -11 -88 -16 -130 -13 -117 -68 -331 -91 -350 -10 -9 -49
-22 -86 -29 -89 -15 -189 -48 -204 -66 -7 -9 -26 -22 -41 -30 -24 -13 -29 -20
-26 -47 2 -26 11 -36 42 -52 29 -15 40 -17 43 -7 9 25 129 74 248 102 27 6 57
17 65 24 32 28 225 84 330 96 207 24 264 27 273 13 10 -17 81 -17 95 0 9 11
20 55 25 102 1 14 -9 25 -36 38 -36 16 -43 17 -85 3 -26 -8 -80 -17 -120 -20
-41 -4 -82 -11 -91 -16 -10 -5 -58 -14 -107 -20 -49 -7 -124 -23 -167 -37 -81
-27 -99 -25 -79 7 7 11 12 26 12 34 0 8 13 39 30 70 16 31 32 73 36 94 4 20 9
42 13 47 3 6 6 24 7 40 0 17 13 76 27 132 15 56 27 108 27 115 0 21 81 103
125 126 59 32 75 46 85 81 7 25 6 33 -5 37 -13 5 -62 -16 -95 -42 -8 -7 -36
-23 -62 -37 l-48 -25 0 48 c0 27 4 60 10 75 16 41 -12 75 -60 75 -48 0 -73
-23 -66 -59 5 -26 9 -140 7 -193 -1 -16 -6 -28 -13 -28 -6 0 -43 -20 -82 -44
-39 -24 -108 -60 -152 -81 l-81 -37 -87 15 c-86 15 -118 13 -165 -12 -11 -7
-21 -17 -21 -24 -1 -17 -48 -73 -55 -65 -9 8 28 79 85 163 26 39 77 127 114
197 52 101 68 140 73 188 l6 60 -29 1 c-52 2 -78 -3 -116 -22 -64 -33 -71 -28
-64 44 3 34 8 78 12 97 5 31 2 37 -24 53 -35 20 -30 20 -64 2z"/>
</g>
</svg>
