<?xml version="1.0" standalone="no"?>
<!DOCTYPE svg PUBLIC "-//W3C//DTD SVG 20010904//EN"
 "http://www.w3.org/TR/2001/REC-SVG-20010904/DTD/svg10.dtd">
<svg version="1.0" xmlns="http://www.w3.org/2000/svg"
 width="207.000000pt" height="206.000000pt" viewBox="0 0 207.000000 206.000000"
 preserveAspectRatio="xMidYMid meet">
<metadata>
Created by potrace 1.16, written by Peter Selinger 2001-2019
</metadata>
<g transform="translate(0.000000,206.000000) scale(0.100000,-0.100000)"
fill="#000000" stroke="none">
<path d="M529 1448 c-6 -12 -17 -26 -23 -30 -8 -5 -6 -17 6 -40 16 -30 24 -91
20 -146 -1 -12 -10 -26 -21 -30 -22 -8 -78 -53 -132 -105 -43 -41 -51 -80 -20
-97 36 -19 66 -10 130 40 35 28 66 48 68 46 8 -8 -49 -167 -65 -183 -9 -9 -27
-36 -41 -62 -46 -88 -171 -341 -171 -348 0 -4 -34 -76 -76 -159 -84 -170 -94
-209 -54 -209 19 0 33 12 57 50 18 28 40 55 48 61 8 6 62 104 120 219 58 115
108 211 111 214 7 7 2 -66 -20 -268 -22 -194 -6 -341 32 -317 7 4 12 18 12 31
0 13 5 36 10 50 10 25 29 169 50 375 6 52 16 100 23 105 6 6 19 30 27 54 15
45 15 45 89 63 41 10 79 18 85 17 27 -3 36 3 36 25 0 29 -16 43 -55 50 -17 2
-49 7 -72 11 -25 4 -58 2 -78 -5 -20 -7 -39 -9 -43 -5 -7 7 89 201 123 250 52
73 74 130 68 176 -3 24 -10 47 -16 50 -5 4 -31 -1 -58 -9 -27 -9 -52 -13 -55
-9 -4 3 0 21 9 39 13 27 14 36 2 58 -19 36 -34 47 -77 55 -32 6 -38 4 -49 -17z"/>
<path d="M1268 1335 c-25 -14 -27 -21 -34 -106 l-7 -91 -36 -14 c-20 -8 -43
-18 -52 -23 -9 -5 -60 -32 -115 -61 -108 -56 -149 -91 -159 -131 -12 -48 54
-81 86 -43 23 28 263 177 271 168 3 -2 1 -30 -3 -61 -22 -179 -32 -245 -45
-308 -8 -38 -14 -83 -14 -100 0 -16 -6 -52 -13 -79 -12 -47 -14 -49 -73 -71
-33 -12 -75 -26 -94 -30 -19 -4 -40 -13 -47 -20 -7 -7 -34 -21 -60 -31 -83
-31 -163 -94 -163 -130 0 -38 42 -62 97 -57 84 7 93 11 93 38 0 44 147 133
198 120 15 -4 32 1 49 15 14 11 31 20 38 20 7 0 18 7 25 14 6 8 35 22 63 31
29 9 60 20 69 26 10 5 28 9 42 9 24 0 67 15 142 51 22 10 47 19 55 19 8 0 23
6 34 14 11 7 56 24 99 36 44 12 87 26 95 30 9 5 37 16 64 25 60 21 51 39 -17
32 -143 -15 -278 -48 -401 -99 -27 -11 -63 -22 -80 -23 -16 -1 -58 -10 -93
-20 -34 -10 -65 -15 -68 -12 -3 2 4 22 15 43 12 21 21 49 21 62 0 13 7 47 15
75 8 29 22 104 31 167 24 177 30 201 53 252 24 53 85 108 152 136 42 18 79 57
79 83 0 18 -68 2 -146 -37 -39 -18 -74 -34 -77 -34 -15 0 -6 39 14 64 18 23
20 30 8 41 -22 21 -81 26 -111 10z m-318 -1019 c0 -11 -19 -15 -25 -6 -3 5 1
10 9 10 9 0 16 -2 16 -4z"/>
</g>
</svg>
