<?xml version="1.0" standalone="no"?>
<!DOCTYPE svg PUBLIC "-//W3C//DTD SVG 20010904//EN"
 "http://www.w3.org/TR/2001/REC-SVG-20010904/DTD/svg10.dtd">
<svg version="1.0" xmlns="http://www.w3.org/2000/svg"
 width="208.000000pt" height="207.000000pt" viewBox="0 0 208.000000 207.000000"
 preserveAspectRatio="xMidYMid meet">
<metadata>
Created by potrace 1.16, written by Peter Selinger 2001-2019
</metadata>
<g transform="translate(0.000000,207.000000) scale(0.100000,-0.100000)"
fill="#000000" stroke="none">
<path d="M1309 1921 c-54 -40 -112 -103 -159 -174 -14 -20 -32 -39 -40 -42 -8
-3 -21 -19 -29 -35 -7 -17 -37 -49 -66 -70 -29 -22 -66 -51 -81 -65 -15 -14
-54 -35 -86 -47 -33 -12 -62 -27 -65 -35 -10 -26 7 -61 35 -72 25 -10 34 -9
65 9 21 12 37 18 37 13 0 -4 -17 -37 -38 -73 -21 -36 -50 -91 -65 -123 l-27
-58 -32 18 c-22 11 -65 18 -125 21 l-92 4 34 48 c18 26 45 69 58 96 14 27 39
66 56 88 17 21 31 43 31 49 0 6 11 25 25 43 14 18 28 48 32 66 3 18 10 41 15
51 5 10 6 27 3 38 -5 16 -13 19 -43 15 -20 -2 -46 -8 -57 -11 -41 -14 -231
-108 -248 -123 -19 -17 -44 -32 -97 -59 -19 -10 -36 -21 -38 -25 -2 -5 -10 -8
-19 -8 -11 0 -10 6 6 29 12 16 21 40 21 54 0 14 7 62 16 107 14 77 14 83 -2
101 -23 26 -76 25 -99 -1 -17 -19 -18 -27 -7 -91 7 -38 12 -88 12 -112 0 -23
5 -58 10 -77 9 -35 8 -38 -45 -94 -71 -75 -72 -106 -2 -118 24 -5 37 3 85 51
79 77 117 108 145 115 13 3 35 16 49 29 31 29 128 80 136 73 3 -4 -3 -19 -14
-34 -11 -15 -23 -34 -27 -42 -4 -8 -16 -28 -27 -45 -10 -16 -26 -44 -35 -61
-9 -18 -32 -50 -51 -73 -49 -57 -136 -182 -186 -270 -24 -40 -80 -130 -125
-199 -46 -69 -83 -130 -83 -136 0 -6 -16 -36 -35 -66 -33 -51 -35 -59 -34
-140 l0 -85 18 40 c10 22 28 49 40 59 11 11 21 23 21 29 0 5 14 29 30 54 17
24 30 49 30 54 0 6 13 23 28 39 28 27 64 81 157 233 26 43 50 76 53 73 3 -3
11 -1 17 4 14 12 20 -3 30 -85 3 -27 15 -95 27 -149 28 -134 25 -161 -41 -444
-15 -64 -16 -76 -4 -88 8 -8 19 -14 24 -14 15 0 39 26 39 43 0 8 9 21 20 28
12 9 23 34 29 69 6 30 20 98 31 150 24 106 22 243 -5 355 -19 81 -19 134 2
157 16 17 16 20 0 35 -15 15 -22 16 -49 5 -50 -19 -44 -7 14 26 44 24 69 31
146 36 79 6 92 5 92 -9 0 -18 31 -20 48 -3 39 39 69 -112 42 -208 -21 -75 24
-89 59 -18 14 27 15 28 24 7 9 -21 46 -43 72 -43 14 0 71 74 99 128 9 17 20
32 25 32 10 0 32 -195 33 -304 l1 -89 -44 -30 c-50 -34 -112 -57 -221 -81 -86
-19 -128 -46 -128 -81 0 -40 40 -59 110 -52 37 4 60 3 60 -3 0 -6 5 -10 11
-10 6 0 8 8 4 19 -7 22 12 33 120 72 102 36 102 36 113 -7 14 -56 23 -217 13
-232 -10 -16 -57 -7 -64 13 -3 7 -28 26 -56 44 -44 27 -51 28 -51 13 0 -10 15
-34 33 -53 47 -49 175 -139 208 -146 25 -5 30 -1 40 23 6 16 8 55 5 89 -3 33
-7 87 -9 120 -1 33 -7 97 -11 142 -9 81 -9 82 19 107 15 14 36 26 46 26 10 0
38 11 63 25 25 14 53 25 63 25 10 0 28 6 39 14 11 8 35 14 54 13 45 -1 120 32
120 53 0 9 5 21 11 27 6 6 9 21 7 34 -5 35 -50 37 -113 6 -27 -14 -88 -37
-135 -52 -47 -15 -96 -35 -110 -44 -14 -10 -40 -22 -56 -25 l-31 -7 -8 133
c-14 226 -13 279 1 314 8 18 11 45 8 61 -3 16 4 53 15 87 12 33 21 71 21 86 0
30 -23 56 -40 45 -5 -3 -10 -2 -10 3 0 11 76 82 89 82 5 0 11 4 13 8 5 13 98
74 98 64 0 -5 -9 -35 -20 -67 -11 -32 -18 -61 -15 -63 3 -3 1 -10 -4 -16 -8
-11 -26 -79 -51 -196 -6 -30 -25 -93 -41 -139 -32 -92 -32 -111 3 -111 35 0
83 98 123 256 14 55 32 110 39 124 24 45 86 273 86 314 0 33 -24 50 -60 43
-32 -7 -190 -106 -190 -119 0 -4 -5 -8 -12 -8 -6 0 -20 -7 -30 -16 -9 -9 -35
-26 -56 -38 -97 -53 -144 -91 -177 -144 -37 -60 -36 -89 5 -104 19 -7 30 -2
66 37 43 44 64 56 64 35 0 -41 -36 -148 -55 -165 -12 -11 -47 -54 -78 -95 -61
-84 -125 -149 -113 -115 27 71 11 190 -31 229 l-25 24 28 48 c15 27 35 58 45
69 9 11 26 38 37 61 11 22 37 60 56 83 20 24 36 49 36 57 0 8 7 17 15 20 8 3
28 28 46 55 17 27 39 55 49 62 9 7 27 31 39 55 12 24 31 52 43 64 11 11 31 39
43 60 13 22 33 45 46 52 28 14 47 85 27 98 -19 12 -20 11 -79 -31z"/>
</g>
</svg>
