<?xml version="1.0" standalone="no"?>
<!DOCTYPE svg PUBLIC "-//W3C//DTD SVG 20010904//EN"
 "http://www.w3.org/TR/2001/REC-SVG-20010904/DTD/svg10.dtd">
<svg version="1.0" xmlns="http://www.w3.org/2000/svg"
 width="214.000000pt" height="209.000000pt" viewBox="0 0 214.000000 209.000000"
 preserveAspectRatio="xMidYMid meet">
<metadata>
Created by potrace 1.16, written by Peter Selinger 2001-2019
</metadata>
<g transform="translate(0.000000,209.000000) scale(0.100000,-0.100000)"
fill="#000000" stroke="none">
<path d="M376 1709 c-25 -20 -27 -26 -21 -63 3 -23 8 -69 11 -103 5 -50 9 -63
25 -68 34 -11 16 -28 -72 -71 -76 -37 -149 -98 -149 -123 0 -12 46 -41 64 -41
8 0 38 14 66 30 28 17 55 30 59 30 5 0 33 16 62 36 52 35 199 114 212 114 19
0 -35 -92 -135 -227 -21 -29 -38 -57 -38 -63 0 -5 -3 -10 -7 -10 -12 0 -104
-115 -133 -165 -39 -67 -136 -207 -167 -240 -16 -16 -50 -61 -77 -98 -26 -38
-54 -71 -62 -74 -16 -6 -21 -147 -4 -141 15 5 150 140 161 161 11 20 25 38 75
96 16 20 52 67 78 104 27 38 52 65 57 60 4 -4 20 -53 35 -108 24 -90 27 -118
28 -275 1 -112 -4 -195 -12 -230 -24 -103 -25 -109 -8 -135 16 -25 57 -34 83
-17 28 18 42 89 47 237 6 226 -7 349 -55 538 -14 52 -18 92 -14 118 l7 39 48
0 c27 0 79 -7 117 -16 37 -8 78 -13 90 -11 32 6 37 -7 18 -42 -33 -66 -3 -180
50 -189 46 -7 47 -11 17 -50 l-30 -38 -8 -189 c-4 -105 -7 -211 -6 -237 1 -77
30 -109 64 -70 25 28 37 81 44 202 3 63 8 131 10 150 1 19 3 46 3 59 1 21 4
23 32 17 39 -8 65 6 73 40 8 30 35 74 46 74 4 0 5 -35 2 -77 l-5 -78 -53 -55
c-30 -30 -54 -62 -54 -72 0 -22 38 -48 71 -48 25 0 27 -4 32 -52 3 -29 4 -76
3 -105 l-2 -52 -80 -41 c-43 -23 -86 -48 -95 -56 -8 -8 -21 -14 -28 -14 -16 0
-81 -49 -81 -61 0 -5 42 -9 94 -9 73 0 96 3 107 16 7 8 26 22 43 31 17 9 42
24 56 35 58 45 237 148 255 148 4 0 5 -6 2 -14 -3 -8 0 -22 7 -32 13 -17 15
-16 43 7 37 30 79 99 104 170 17 45 21 99 29 334 5 154 6 314 2 355 l-7 75
-35 3 c-28 2 -44 -4 -75 -30 -22 -18 -60 -44 -83 -57 -42 -22 -43 -22 -33 -3
6 11 15 22 21 24 15 5 52 117 48 147 -5 47 -38 53 -198 36 -131 -13 -144 -17
-167 -41 -54 -59 4 -117 81 -80 19 9 42 16 53 16 10 1 29 7 43 15 14 8 40 14
58 15 56 0 42 -33 -56 -128 -90 -90 -211 -174 -277 -195 -33 -10 -39 -9 -52 8
-18 24 -11 89 14 142 16 35 16 36 -6 54 -15 13 -39 19 -71 19 -26 0 -65 7 -86
16 -74 30 -104 46 -104 55 0 5 19 36 43 70 164 233 219 346 186 385 -22 27
-91 11 -212 -49 -119 -59 -180 -80 -159 -54 11 12 31 125 32 173 0 51 -53 75
-94 43z m1031 -1026 c-3 -186 -9 -300 -17 -323 -31 -91 -31 -92 -45 -73 -10
13 -16 14 -26 7 -8 -6 -36 -16 -63 -23 -27 -7 -70 -23 -97 -36 -27 -14 -53
-25 -58 -25 -6 0 3 28 19 62 25 52 29 74 28 128 -3 81 21 127 94 185 50 40 73
77 64 102 -9 21 -32 15 -81 -23 -26 -19 -49 -33 -52 -30 -11 11 9 77 25 82 61
20 72 28 72 49 0 25 -39 39 -79 28 -11 -3 -21 -2 -21 2 0 20 201 173 229 174
11 1 13 -46 8 -286z"/>
<path d="M1275 1613 c-11 -3 -24 -9 -30 -13 -5 -4 -28 -13 -50 -20 -22 -7 -65
-26 -95 -43 -30 -17 -73 -40 -95 -51 -41 -22 -113 -93 -134 -134 -18 -34 -6
-67 30 -85 48 -23 80 -7 105 52 19 45 115 134 174 162 25 12 64 34 87 50 23
16 46 29 51 29 5 0 15 7 22 15 10 12 10 18 0 30 -12 15 -28 17 -65 8z"/>
</g>
</svg>
