<?xml version="1.0" standalone="no"?>
<!DOCTYPE svg PUBLIC "-//W3C//DTD SVG 20010904//EN"
 "http://www.w3.org/TR/2001/REC-SVG-20010904/DTD/svg10.dtd">
<svg version="1.0" xmlns="http://www.w3.org/2000/svg"
 width="207.000000pt" height="210.000000pt" viewBox="0 0 207.000000 210.000000"
 preserveAspectRatio="xMidYMid meet">
<metadata>
Created by potrace 1.16, written by Peter Selinger 2001-2019
</metadata>
<g transform="translate(0.000000,210.000000) scale(0.100000,-0.100000)"
fill="#000000" stroke="none">
<path d="M1420 1993 c-40 -15 -127 -57 -140 -69 -8 -7 -37 -20 -65 -29 -27 -9
-83 -32 -123 -51 -40 -18 -93 -40 -118 -49 l-47 -16 -36 42 c-20 24 -41 50
-48 59 -22 31 -69 44 -103 30 -25 -10 -30 -18 -30 -45 0 -27 6 -37 35 -55 31
-19 55 -47 55 -64 0 -3 -28 -6 -63 -6 -36 0 -68 -5 -75 -12 -17 -17 -15 -54 4
-72 14 -14 12 -17 -18 -30 -113 -49 -147 -67 -180 -98 -44 -40 -48 -71 -13
-94 33 -21 73 -11 121 30 22 18 52 36 67 40 28 7 39 14 77 48 11 10 42 29 69
42 27 14 62 37 77 51 15 14 41 29 58 34 17 5 62 21 100 35 39 14 72 24 74 21
3 -2 -22 -39 -54 -81 -32 -42 -68 -92 -80 -111 -35 -58 -39 -59 -82 -25 -41
33 -75 34 -99 3 -22 -28 -14 -54 29 -98 l42 -43 -19 -37 c-11 -20 -29 -48 -40
-61 -11 -14 -40 -66 -65 -116 -42 -84 -50 -94 -110 -133 -75 -49 -156 -113
-205 -161 -18 -18 -35 -30 -38 -25 -5 8 17 122 46 241 9 34 29 84 46 111 35
54 33 81 -7 81 -31 0 -112 -80 -112 -110 0 -11 -9 -46 -20 -78 -12 -31 -29
-95 -40 -142 -21 -96 -51 -198 -73 -250 -18 -43 -14 -56 23 -75 26 -14 30 -12
86 31 33 25 63 53 68 62 5 10 19 24 30 32 12 8 58 47 103 87 75 67 237 183
255 183 11 0 10 -8 -7 -64 -8 -27 -15 -71 -15 -97 0 -40 -4 -51 -30 -73 -23
-19 -41 -25 -78 -24 -26 0 -72 -9 -103 -21 -47 -18 -59 -28 -72 -59 -16 -36
-50 -249 -61 -389 -3 -39 -10 -83 -16 -97 -5 -14 -12 -54 -16 -89 -6 -55 -4
-65 11 -71 54 -20 103 94 131 305 17 137 33 181 70 197 13 7 29 22 35 34 11
24 56 64 83 74 11 4 16 1 16 -10 0 -23 -60 -139 -76 -149 -18 -10 -17 -47 0
-70 20 -26 63 -21 104 13 41 32 108 63 121 56 5 -3 14 -27 22 -53 15 -55 102
-212 127 -231 9 -7 26 -20 36 -29 24 -20 93 -36 122 -29 45 12 70 117 79 338
9 201 24 354 42 418 26 92 93 222 145 281 43 50 49 62 46 96 -3 32 -7 38 -28
41 -26 3 -110 -53 -212 -142 -55 -48 -129 -105 -210 -162 -32 -22 -64 -47 -71
-56 -18 -22 -84 -68 -97 -68 -7 0 -9 8 -5 19 11 34 9 130 -3 144 -7 8 -10 22
-6 31 10 26 188 154 286 206 l48 25 16 -23 c20 -29 42 -28 56 4 22 48 111 131
172 160 55 27 116 76 116 93 0 33 -107 58 -187 44 -43 -7 -87 -53 -102 -106
-17 -56 -53 -92 -107 -107 -37 -11 -49 -10 -78 4 -65 31 -69 41 -35 89 16 23
37 53 46 67 65 96 218 254 312 320 28 19 52 45 55 57 3 11 8 28 12 36 3 8 -2
22 -11 31 -17 17 -21 18 -45 9z m-420 -671 l23 -19 -48 -26 c-69 -39 -80 -35
-43 18 18 25 35 45 39 45 4 0 17 -8 29 -18z m220 -316 c0 -7 -7 -33 -16 -57
-16 -45 -31 -198 -39 -394 -7 -170 -15 -284 -21 -300 -4 -8 -19 -15 -34 -15
-23 0 -33 8 -51 40 -13 22 -26 40 -31 40 -10 0 -88 141 -88 161 0 11 23 29 60
48 74 39 99 62 107 102 7 37 -31 86 -54 68 -7 -6 -13 -18 -13 -25 0 -36 -178
-101 -197 -71 -3 5 0 42 7 81 12 70 14 74 62 109 27 20 53 37 58 37 4 0 10 3
12 8 2 4 28 26 59 49 31 23 64 50 74 60 30 30 87 73 96 73 5 0 9 -6 9 -14z"/>
</g>
</svg>
