<?xml version="1.0" standalone="no"?>
<!DOCTYPE svg PUBLIC "-//W3C//DTD SVG 20010904//EN"
 "http://www.w3.org/TR/2001/REC-SVG-20010904/DTD/svg10.dtd">
<svg version="1.0" xmlns="http://www.w3.org/2000/svg"
 width="207.000000pt" height="210.000000pt" viewBox="0 0 207.000000 210.000000"
 preserveAspectRatio="xMidYMid meet">
<metadata>
Created by potrace 1.16, written by Peter Selinger 2001-2019
</metadata>
<g transform="translate(0.000000,210.000000) scale(0.100000,-0.100000)"
fill="#000000" stroke="none">
<path d="M820 2044 c-25 -16 -80 -87 -80 -103 0 -5 -29 -60 -66 -122 -57 -99
-79 -132 -141 -209 -6 -8 -33 -43 -58 -78 -26 -34 -56 -67 -66 -73 -24 -13
-25 -29 0 -29 10 0 40 19 67 43 83 73 224 219 224 232 0 7 11 20 25 29 27 18
135 156 135 173 0 6 11 21 25 34 31 30 32 61 3 94 -25 29 -34 30 -68 9z"/>
<path d="M900 1717 c-23 -12 -25 -18 -27 -92 -1 -44 -2 -85 -2 -91 -1 -7 -18
-19 -38 -28 -21 -9 -69 -34 -108 -56 -38 -22 -85 -48 -104 -56 -19 -9 -49 -26
-65 -39 -17 -13 -57 -35 -88 -49 -31 -14 -60 -31 -63 -36 -4 -6 -30 -22 -58
-36 -66 -33 -97 -62 -97 -89 0 -25 29 -55 53 -55 21 0 92 37 108 56 6 8 17 14
24 14 7 0 24 10 39 21 15 12 29 19 32 16 7 -7 -50 -101 -102 -170 -24 -31 -44
-60 -44 -63 0 -9 -81 -128 -92 -135 -4 -3 -19 -21 -33 -40 -45 -61 -107 -129
-115 -124 -4 3 -13 -2 -20 -10 -10 -12 -9 -16 4 -21 27 -10 59 4 111 51 28 25
57 47 66 50 9 3 21 16 28 28 7 13 26 31 42 41 16 9 29 23 29 30 0 7 9 21 21
32 12 10 28 32 36 48 8 16 34 50 58 75 23 25 54 69 70 96 15 28 55 92 89 143
55 84 64 93 98 99 21 3 39 11 39 17 1 6 2 17 3 25 0 8 16 21 34 28 29 12 33
11 39 -3 14 -37 -37 -323 -64 -355 -13 -16 -173 -99 -190 -99 -5 0 -27 -13
-49 -30 -21 -16 -44 -30 -50 -30 -29 0 -84 -95 -84 -145 0 -38 16 -55 52 -55
15 0 28 -3 28 -6 0 -8 -127 -330 -143 -364 -7 -14 -34 -65 -61 -113 -26 -48
-46 -91 -43 -93 13 -14 48 11 85 59 21 29 63 78 92 110 l52 57 57 -59 c71 -77
126 -101 226 -101 147 0 271 44 350 124 73 73 108 130 140 221 42 122 30 238
-26 249 -8 2 -29 10 -47 18 -25 11 -45 12 -85 6 -67 -12 -126 -25 -154 -33
-29 -9 -31 14 -3 38 11 9 20 24 20 32 0 8 4 15 9 15 5 0 16 15 25 33 9 17 25
43 36 57 11 14 23 46 26 72 6 44 5 47 -25 63 -21 11 -43 14 -66 9 -46 -8 -51
7 -30 94 17 67 18 69 49 70 206 6 210 6 226 36 15 27 14 28 -20 57 -19 16 -41
29 -50 29 -8 0 -46 -16 -84 -35 -39 -19 -76 -35 -84 -35 -15 0 -13 33 8 125 6
28 13 60 16 73 2 12 9 22 16 22 14 0 170 104 188 124 16 21 6 46 -20 46 -11 0
-34 -9 -49 -21 -31 -23 -131 -59 -143 -52 -5 2 -8 17 -8 32 0 17 -11 38 -33
59 -29 28 -35 30 -57 19z m68 -751 c-4 -21 -102 -137 -106 -127 -6 19 30 121
46 131 26 15 64 12 60 -4z m-208 -101 c0 -14 -9 -53 -21 -87 -11 -33 -18 -67
-14 -76 3 -9 -9 -27 -35 -49 -44 -38 -51 -70 -22 -95 32 -28 50 -28 93 4 77
56 252 122 354 134 49 6 60 4 71 -11 17 -23 8 -93 -17 -143 -11 -20 -19 -42
-19 -48 0 -7 -4 -14 -8 -16 -5 -1 -25 -24 -45 -51 -56 -74 -94 -103 -176 -135
-113 -45 -166 -52 -239 -33 -65 17 -97 37 -148 90 -25 27 -30 39 -24 55 15 40
70 151 115 236 54 102 56 124 14 149 l-31 19 43 28 c53 34 91 54 102 54 4 0 7
-11 7 -25z"/>
</g>
</svg>
