<?xml version="1.0" standalone="no"?>
<!DOCTYPE svg PUBLIC "-//W3C//DTD SVG 20010904//EN"
 "http://www.w3.org/TR/2001/REC-SVG-20010904/DTD/svg10.dtd">
<svg version="1.0" xmlns="http://www.w3.org/2000/svg"
 width="210.000000pt" height="211.000000pt" viewBox="0 0 210.000000 211.000000"
 preserveAspectRatio="xMidYMid meet">
<metadata>
Created by potrace 1.16, written by Peter Selinger 2001-2019
</metadata>
<g transform="translate(0.000000,211.000000) scale(0.100000,-0.100000)"
fill="#000000" stroke="none">
<path d="M764 1765 c-30 -13 -32 -19 -49 -112 -25 -136 -64 -232 -141 -348
-36 -55 -77 -121 -90 -147 -13 -26 -28 -49 -34 -53 -6 -4 -22 -27 -35 -53 -14
-26 -35 -59 -47 -74 -12 -15 -19 -31 -15 -34 9 -10 98 74 168 157 33 41 80 97
104 124 84 98 119 151 141 216 12 36 32 81 43 100 12 19 26 51 31 71 6 21 18
39 29 43 19 6 31 32 31 68 0 11 -13 23 -32 31 -56 23 -72 25 -104 11z"/>
<path d="M1288 1674 c-32 -17 -31 -12 -17 -124 16 -120 17 -137 20 -303 1 -81
-1 -150 -4 -154 -4 -3 -26 -7 -50 -8 -23 -1 -63 -6 -89 -10 -43 -7 -48 -6 -48
11 0 11 11 37 25 59 95 158 115 242 79 345 -17 50 -110 170 -131 170 -8 0 -27
-7 -43 -15 -50 -26 -41 -61 33 -136 83 -84 98 -118 88 -191 -4 -34 -18 -73
-33 -95 -14 -21 -36 -56 -49 -78 -13 -22 -34 -51 -46 -65 -13 -14 -23 -28 -23
-31 0 -4 -30 -31 -67 -62 -38 -30 -81 -66 -97 -81 -33 -32 -40 -29 -31 13 4
20 23 44 53 68 26 21 59 49 73 63 15 14 41 35 58 48 32 24 41 59 17 68 -18 7
-75 -17 -130 -55 -24 -17 -46 -27 -50 -24 -17 18 9 162 31 170 29 11 13 43
-33 65 -43 20 -48 20 -73 5 -24 -15 -26 -22 -33 -114 -17 -222 -11 -206 -82
-242 -25 -12 -48 -26 -51 -31 -5 -9 -90 -51 -140 -70 -15 -6 -45 -23 -68 -39
-23 -15 -76 -45 -117 -65 -41 -20 -94 -47 -118 -60 -49 -27 -112 -88 -112
-108 0 -8 15 -22 33 -31 33 -18 35 -18 75 3 23 12 44 25 47 29 2 4 46 29 97
56 51 26 107 58 123 70 17 12 40 25 53 29 12 4 22 11 22 16 0 4 19 15 43 25
23 9 56 27 72 39 32 23 85 49 91 43 7 -6 -19 -124 -30 -139 -10 -13 -130 -88
-142 -88 -3 0 -2 9 1 20 3 11 3 20 -1 20 -40 0 -271 -223 -281 -272 -13 -64
68 -31 145 58 40 46 181 145 233 163 l31 11 -5 -33 c-18 -122 -80 -372 -98
-392 -5 -5 -9 -22 -9 -37 0 -22 4 -28 23 -28 40 0 46 7 100 111 10 19 28 84
42 144 13 61 31 137 40 171 16 59 18 61 62 74 37 10 52 11 80 1 28 -11 39 -10
71 6 41 20 51 55 17 61 -35 5 -65 25 -65 42 0 26 76 107 143 151 60 40 123 59
198 59 l38 0 -5 -62 c-23 -299 -58 -605 -84 -733 -6 -27 -13 -80 -17 -117 l-6
-68 55 0 55 0 1 57 c1 32 11 108 22 168 12 61 28 171 35 245 28 281 37 356 45
375 4 11 13 46 20 78 13 67 27 77 102 77 48 0 58 4 88 35 32 33 33 34 16 60
-18 27 -44 27 -76 0 -9 -8 -36 -12 -70 -10 l-55 3 0 154 c1 84 4 175 7 202 8
57 -6 132 -36 196 -24 50 -45 58 -88 34z m-861 -880 c-3 -3 -12 -4 -19 -1 -8
3 -5 6 6 6 11 1 17 -2 13 -5z"/>
</g>
</svg>
