<?xml version="1.0" standalone="no"?>
<!DOCTYPE svg PUBLIC "-//W3C//DTD SVG 20010904//EN"
 "http://www.w3.org/TR/2001/REC-SVG-20010904/DTD/svg10.dtd">
<svg version="1.0" xmlns="http://www.w3.org/2000/svg"
 width="209.000000pt" height="212.000000pt" viewBox="0 0 209.000000 212.000000"
 preserveAspectRatio="xMidYMid meet">
<metadata>
Created by potrace 1.16, written by Peter Selinger 2001-2019
</metadata>
<g transform="translate(0.000000,212.000000) scale(0.100000,-0.100000)"
fill="#000000" stroke="none">
<path d="M1436 1961 c-11 -12 -25 -70 -41 -177 -14 -87 -27 -164 -29 -171 -8
-21 -37 -261 -44 -364 l-7 -100 -85 -36 c-47 -20 -102 -47 -123 -60 -21 -13
-42 -21 -47 -18 -6 3 -9 34 -9 68 1 39 -5 78 -16 105 -15 36 -16 47 -5 67 7
13 10 31 7 40 -6 13 -15 11 -66 -15 -33 -17 -61 -39 -63 -48 -2 -9 11 -45 29
-80 18 -35 33 -73 33 -84 0 -41 -35 -121 -63 -142 -39 -29 -127 -117 -127
-127 0 -4 5 -19 11 -33 16 -35 56 -42 88 -16 45 36 98 74 127 92 16 10 54 36
84 58 30 22 59 40 63 40 5 0 23 10 40 23 65 46 106 59 108 35 2 -23 -3 -172
-6 -208 -2 -19 -8 -101 -14 -182 -6 -81 -16 -171 -21 -200 -13 -69 -33 -273
-31 -320 1 -26 -6 -45 -24 -66 -14 -16 -25 -33 -25 -36 0 -3 31 -6 68 -6 l68
0 12 70 c7 39 12 101 12 138 1 37 5 87 10 112 14 67 48 408 55 545 10 202 21
223 153 286 85 41 110 63 123 111 9 35 8 41 -13 58 -30 25 -37 25 -47 -2 -13
-33 -49 -64 -102 -86 -26 -11 -50 -25 -53 -31 -4 -6 -14 -11 -22 -11 -13 0
-15 12 -10 78 10 145 17 207 32 292 9 47 19 112 23 145 9 62 37 134 59 148 19
13 15 91 -6 110 -25 23 -85 22 -106 -2z"/>
<path d="M620 1753 c-30 -16 -36 -25 -46 -73 -7 -30 -17 -68 -22 -85 -6 -16
-22 -67 -36 -113 -14 -45 -39 -110 -56 -143 -33 -68 -36 -79 -17 -79 39 0 166
178 193 270 4 14 17 48 30 75 55 120 62 155 29 155 -7 0 -19 2 -27 5 -7 3 -29
-3 -48 -12z"/>
<path d="M1146 1621 c-14 -15 -16 -31 -12 -82 3 -34 10 -67 16 -73 17 -17 60
12 76 52 8 20 19 45 24 54 15 26 12 55 -6 62 -32 12 -81 6 -98 -13z"/>
<path d="M668 1488 c-20 -17 -44 -143 -47 -249 -1 -22 -16 -36 -83 -79 -46
-29 -99 -63 -119 -76 -19 -13 -39 -24 -45 -24 -8 0 -122 -73 -219 -140 -56
-39 -139 -90 -147 -90 -4 0 -8 -32 -8 -72 l0 -71 23 19 c12 11 62 46 112 78
163 106 185 121 185 128 0 3 24 18 53 32 60 30 79 41 127 76 77 55 103 71 108
66 2 -3 -1 -61 -8 -130 l-13 -124 -41 -44 c-23 -23 -67 -77 -97 -118 -31 -41
-73 -96 -95 -121 -21 -25 -44 -55 -51 -65 -7 -10 -28 -43 -48 -73 -39 -59 -43
-76 -18 -85 19 -8 162 136 238 239 70 95 87 116 91 113 2 -2 -1 -35 -7 -73 -5
-39 -16 -125 -24 -193 -8 -67 -22 -152 -31 -188 -19 -76 -12 -94 32 -78 22 7
31 22 50 84 13 41 24 83 24 93 0 10 4 27 10 37 5 10 19 83 30 162 28 190 26
187 55 148 34 -45 57 -59 117 -70 92 -16 137 -19 172 -9 52 14 61 59 11 59
-35 0 -165 49 -200 76 -17 13 -50 26 -73 30 -50 8 -50 5 -27 194 17 143 43
240 65 248 34 13 200 162 200 181 0 25 -29 20 -91 -15 -126 -73 -138 -79 -144
-72 -4 3 -1 41 5 83 10 66 9 79 -4 101 -18 26 -44 31 -68 12z"/>
</g>
</svg>
