<?xml version="1.0" standalone="no"?>
<!DOCTYPE svg PUBLIC "-//W3C//DTD SVG 20010904//EN"
 "http://www.w3.org/TR/2001/REC-SVG-20010904/DTD/svg10.dtd">
<svg version="1.0" xmlns="http://www.w3.org/2000/svg"
 width="208.000000pt" height="211.000000pt" viewBox="0 0 208.000000 211.000000"
 preserveAspectRatio="xMidYMid meet">
<metadata>
Created by potrace 1.16, written by Peter Selinger 2001-2019
</metadata>
<g transform="translate(0.000000,211.000000) scale(0.100000,-0.100000)"
fill="#000000" stroke="none">
<path d="M1320 1980 c-11 -11 -20 -27 -20 -36 0 -9 -20 -53 -44 -97 -24 -45
-51 -107 -60 -138 -9 -31 -24 -67 -34 -80 -10 -13 -24 -38 -30 -56 -9 -26 -7
-34 9 -52 36 -38 65 -25 160 72 31 32 38 36 41 20 8 -37 -36 -173 -57 -173 -7
0 -18 7 -25 15 -19 22 -79 31 -97 13 -13 -13 -12 -20 3 -54 10 -21 20 -42 21
-45 4 -7 -161 -89 -179 -89 -7 0 -8 27 -3 80 11 123 -17 169 -75 122 -20 -17
-24 -33 -34 -140 l-11 -121 -60 -37 c-129 -79 -153 -92 -176 -99 -13 -4 -41
-18 -61 -32 -62 -42 -66 -21 -7 42 143 154 170 185 221 255 31 41 65 84 77 94
11 11 21 27 21 36 0 10 7 23 15 30 8 6 38 58 66 113 28 56 71 132 95 168 56
84 61 159 10 159 -42 -1 -93 -63 -146 -180 -55 -120 -144 -292 -176 -341 -16
-24 -33 -52 -39 -61 -21 -34 -119 -174 -132 -188 -53 -57 -103 -136 -103 -162
0 -18 -6 -31 -18 -35 -9 -4 -42 -22 -72 -40 -30 -18 -62 -33 -71 -33 -44 0
-88 -92 -56 -118 33 -27 56 -23 117 17 34 23 64 41 66 41 3 0 10 5 17 10 33
29 216 142 245 152 18 7 41 19 50 28 9 9 36 26 60 38 56 29 61 17 36 -89 l-19
-80 -73 -31 c-41 -17 -72 -36 -72 -44 0 -18 24 -18 40 1 8 9 22 12 43 8 18 -3
33 -6 34 -7 1 -1 -5 -35 -13 -76 -14 -73 -24 -105 -62 -192 -31 -69 -80 -200
-87 -233 -4 -16 -18 -54 -31 -82 -26 -59 -23 -83 12 -83 37 0 80 48 104 119
12 34 31 83 42 107 18 43 21 44 52 38 31 -5 36 -2 79 54 25 34 52 73 61 89 8
15 47 66 86 113 39 47 77 96 85 110 16 30 173 190 235 240 24 19 72 54 106 78
76 50 76 52 -15 -121 -34 -63 -61 -121 -61 -129 0 -11 -79 -136 -111 -175 -9
-10 -17 -8 -39 9 -36 26 -72 19 -89 -18 -16 -35 -6 -61 30 -79 16 -9 29 -20
29 -26 0 -17 -72 -142 -122 -210 -26 -36 -57 -86 -68 -110 -42 -90 -148 -219
-180 -219 -17 0 -40 -19 -40 -32 0 -4 34 -8 76 -8 l77 0 53 57 c29 31 64 77
78 102 30 59 48 88 116 192 31 46 69 105 85 131 23 36 38 49 65 55 38 9 52 41
30 68 -8 10 -5 25 14 64 14 27 30 52 36 56 5 3 23 35 40 71 17 36 61 130 99
207 79 162 94 206 89 262 l-3 40 -46 -2 c-44 -1 -110 -32 -147 -70 -7 -7 -20
-13 -28 -13 -12 0 -12 5 1 37 9 21 25 47 35 58 25 26 101 190 152 324 21 57
46 117 53 132 18 34 20 110 3 127 -7 7 -21 12 -33 12 -36 -1 -61 -33 -79 -100
-21 -77 -81 -241 -106 -290 -10 -19 -23 -48 -30 -65 -9 -26 -70 -108 -70 -95
0 10 26 76 37 95 11 20 45 183 58 278 5 40 3 51 -12 63 -29 22 -62 16 -95 -16
-37 -37 -47 -32 -26 12 29 61 58 143 58 165 0 21 -25 43 -49 43 -6 0 -20 -9
-31 -20z m-115 -707 c-16 -65 -210 -331 -228 -313 -3 3 1 52 10 108 l16 103
70 47 c39 26 82 55 96 64 36 25 44 22 36 -9z m-160 -410 c-23 -36 -66 -83 -77
-83 -21 0 -4 46 29 76 47 43 73 47 48 7z"/>
<path d="M523 705 c-70 -68 -136 -132 -146 -142 -26 -25 -17 -47 19 -51 24 -2
36 3 52 22 11 15 25 26 31 26 6 0 19 12 28 28 10 15 34 43 53 63 68 70 90 98
90 112 0 8 7 17 15 21 19 7 20 46 0 46 -8 0 -72 -56 -142 -125z"/>
</g>
</svg>
