<?xml version="1.0" standalone="no"?>
<!DOCTYPE svg PUBLIC "-//W3C//DTD SVG 20010904//EN"
 "http://www.w3.org/TR/2001/REC-SVG-20010904/DTD/svg10.dtd">
<svg version="1.0" xmlns="http://www.w3.org/2000/svg"
 width="210.000000pt" height="210.000000pt" viewBox="0 0 210.000000 210.000000"
 preserveAspectRatio="xMidYMid meet">
<metadata>
Created by potrace 1.16, written by Peter Selinger 2001-2019
</metadata>
<g transform="translate(0.000000,210.000000) scale(0.100000,-0.100000)"
fill="#000000" stroke="none">
<path d="M1117 1919 c-19 -11 -67 -102 -67 -128 0 -7 -18 -49 -40 -92 -42 -83
-49 -123 -26 -154 13 -18 18 -19 60 -7 25 6 69 30 98 52 29 22 56 40 61 40 11
0 9 -71 -4 -132 -12 -54 -55 -174 -71 -194 -15 -20 -95 14 -128 55 -59 72 -59
72 -88 65 -39 -9 -45 -18 -37 -53 11 -49 62 -96 129 -117 32 -10 61 -24 63
-32 15 -36 -49 -145 -159 -272 -131 -151 -129 -150 -206 -150 -86 0 -138 14
-145 40 -3 11 -1 37 5 57 5 21 13 54 17 73 5 19 20 57 35 84 14 27 26 57 26
67 0 11 14 26 33 35 17 9 34 20 37 23 3 4 20 13 38 21 18 7 44 27 58 45 46 61
26 77 -52 40 -31 -15 -72 -29 -91 -32 -36 -6 -36 -6 -30 28 2 19 10 60 16 92
11 51 10 62 -6 95 -15 30 -24 38 -51 40 -45 5 -62 -12 -61 -62 0 -22 -4 -95
-8 -161 l-8 -119 -40 -12 c-22 -7 -65 -24 -95 -38 -30 -14 -61 -26 -68 -26 -8
0 -26 -9 -41 -19 -15 -11 -56 -29 -91 -41 -36 -12 -91 -36 -122 -53 l-58 -32
0 -62 c0 -35 3 -63 8 -63 10 0 103 49 122 65 8 6 39 22 69 34 30 13 94 42 141
66 48 23 99 45 115 49 26 7 27 6 21 -21 -4 -15 -11 -52 -17 -81 -8 -44 -18
-61 -62 -105 -30 -29 -77 -91 -106 -139 -29 -47 -70 -105 -92 -129 -39 -43
-47 -63 -30 -73 12 -8 90 54 121 94 14 19 34 44 45 56 11 13 33 41 48 64 27
38 47 51 47 30 0 -6 -7 -36 -15 -68 -30 -121 -44 -211 -50 -325 l-5 -117 27 0
c43 0 72 59 79 157 3 43 11 103 19 133 8 30 22 88 31 128 l16 72 89 2 c49 1
97 2 107 2 11 1 16 -5 14 -18 -4 -23 35 -66 60 -66 10 0 26 8 36 18 34 36 118
130 162 181 25 29 66 74 91 100 26 26 50 57 53 69 4 12 13 22 19 22 6 0 20 9
32 20 11 12 63 55 116 98 53 42 117 95 143 116 52 43 71 41 38 -4 -12 -16 -22
-32 -22 -35 0 -9 -100 -154 -111 -161 -5 -3 -9 -12 -9 -20 0 -9 -24 -46 -52
-83 -29 -37 -61 -78 -71 -92 -50 -70 -45 -67 -66 -41 -16 18 -26 21 -48 16
-66 -16 -75 -58 -26 -117 12 -16 23 -32 23 -35 0 -10 -31 -54 -100 -147 -33
-44 -76 -102 -96 -130 -19 -27 -50 -70 -69 -95 -19 -25 -60 -83 -92 -129 -31
-47 -72 -99 -90 -117 -43 -43 -36 -64 23 -64 34 0 51 6 74 27 17 14 30 30 30
35 0 5 7 17 16 25 9 9 48 59 87 112 39 53 123 166 186 251 63 85 116 156 117
158 1 2 20 -2 43 -9 32 -10 43 -9 56 1 21 18 19 34 -12 70 l-26 32 18 37 c11
20 45 68 77 108 31 39 67 91 79 115 12 23 36 61 54 83 40 50 157 240 174 281
6 16 13 50 14 75 l2 44 -43 3 c-38 3 -53 -3 -111 -42 -37 -25 -72 -46 -78 -46
-6 0 -16 -7 -23 -15 -17 -21 -100 -76 -100 -67 0 4 12 27 26 52 14 25 37 73
51 107 13 33 33 69 43 78 10 9 16 23 13 31 -2 7 2 28 11 45 9 18 16 39 16 48
0 9 12 38 26 65 31 57 27 96 -10 96 -52 0 -85 -46 -142 -198 -15 -40 -30 -75
-33 -77 -3 -1 -7 29 -8 68 -1 40 -7 90 -15 112 -12 36 -17 40 -51 43 -20 2
-51 -4 -68 -12 -43 -21 -46 -3 -15 73 32 74 32 86 4 105 -26 19 -27 19 -51 5z"/>
<path d="M477 1782 c-10 -10 -17 -29 -17 -43 0 -13 -12 -71 -26 -129 -20 -82
-39 -131 -90 -222 -35 -64 -64 -120 -64 -123 0 -3 -16 -31 -35 -61 -19 -30
-35 -56 -35 -59 0 -2 13 1 29 6 21 7 52 44 112 131 46 66 96 135 111 153 34
39 41 59 79 203 27 106 29 116 14 138 -19 29 -55 31 -78 6z"/>
</g>
</svg>
