<?xml version="1.0" standalone="no"?>
<!DOCTYPE svg PUBLIC "-//W3C//DTD SVG 20010904//EN"
 "http://www.w3.org/TR/2001/REC-SVG-20010904/DTD/svg10.dtd">
<svg version="1.0" xmlns="http://www.w3.org/2000/svg"
 width="207.000000pt" height="214.000000pt" viewBox="0 0 207.000000 214.000000"
 preserveAspectRatio="xMidYMid meet">
<metadata>
Created by potrace 1.16, written by Peter Selinger 2001-2019
</metadata>
<g transform="translate(0.000000,214.000000) scale(0.100000,-0.100000)"
fill="#000000" stroke="none">
<path d="M1768 2062 c-23 -9 -83 -100 -98 -149 -16 -51 -145 -311 -170 -343
l-20 -25 0 63 c0 123 -54 172 -156 143 -28 -8 -31 -7 -27 10 3 10 27 44 54 74
65 75 83 109 69 135 -34 63 -137 -15 -233 -174 -11 -17 -27 -40 -37 -51 -10
-11 -31 -45 -46 -75 -15 -30 -35 -66 -46 -79 -10 -13 -18 -37 -18 -53 0 -24 6
-32 36 -44 40 -17 40 -17 114 51 25 23 74 59 109 80 70 42 81 39 81 -22 0 -55
-86 -274 -97 -245 -3 6 -13 12 -23 12 -10 0 -30 4 -44 10 -24 9 -24 10 -10 39
20 39 10 71 -20 71 -13 0 -29 -7 -36 -15 -6 -8 -22 -17 -33 -21 -34 -10 -57
-35 -57 -60 0 -16 -10 -29 -32 -40 -18 -9 -35 -20 -38 -23 -10 -14 -55 -41
-67 -41 -15 0 -10 132 7 190 13 46 -6 90 -38 90 -28 0 -26 11 18 105 47 100
53 125 34 147 -10 10 -26 18 -36 18 -25 0 -68 -29 -68 -45 0 -7 -20 -63 -45
-125 -25 -62 -45 -117 -45 -123 0 -7 -14 -32 -31 -57 -16 -25 -46 -76 -65
-115 -89 -177 -184 -333 -226 -372 -13 -13 -59 -41 -101 -63 -43 -22 -91 -49
-107 -62 -38 -28 -40 -64 -5 -80 14 -6 25 -15 25 -20 0 -15 23 -9 45 12 12 11
79 50 149 85 69 36 145 77 167 93 75 49 152 93 157 87 3 -2 -5 -44 -17 -92
-11 -49 -24 -110 -27 -138 -5 -40 -13 -56 -37 -77 -31 -25 -31 -27 -14 -46 18
-19 17 -23 -2 -103 -11 -46 -31 -110 -45 -141 -14 -31 -28 -81 -32 -110 -5
-39 -13 -58 -32 -74 -21 -17 -24 -24 -15 -49 13 -40 45 -50 75 -21 45 44 59
68 69 119 5 29 22 90 38 137 16 47 35 108 43 135 15 51 26 60 95 85 57 21 51
66 -10 72 -31 3 -32 4 -29 48 2 25 9 68 17 95 8 28 22 86 30 129 9 44 23 89
31 100 8 11 14 28 14 38 0 9 15 27 33 39 17 12 58 47 89 77 l57 56 34 -19 c34
-18 85 -18 131 0 17 8 17 7 1 -26 -10 -19 -36 -56 -59 -84 -23 -27 -54 -69
-69 -92 -15 -24 -32 -43 -39 -43 -6 0 -8 -3 -5 -6 15 -15 -97 -133 -176 -186
-48 -32 -64 -55 -48 -71 22 -22 175 69 260 155 9 9 30 35 46 57 17 22 34 40
38 41 15 0 -49 -100 -101 -160 -28 -32 -66 -82 -84 -112 -18 -30 -53 -78 -78
-107 -25 -29 -67 -78 -93 -109 -26 -31 -45 -62 -42 -70 3 -7 5 -19 5 -26 0
-12 40 -36 59 -36 13 0 67 55 109 112 44 59 164 191 231 252 24 23 60 56 80
75 20 18 53 45 74 59 20 13 37 28 37 32 0 4 20 18 45 31 25 13 45 27 45 31 0
8 108 69 131 73 27 5 23 -14 -13 -70 -18 -27 -38 -57 -44 -67 -6 -11 -24 -34
-40 -52 -42 -47 -105 -132 -147 -198 -20 -32 -54 -75 -76 -97 l-40 -40 -41 20
c-40 19 -43 19 -61 3 -24 -22 -24 -45 1 -94 l20 -39 -29 -33 c-15 -18 -35 -46
-44 -63 -8 -16 -26 -42 -38 -56 -22 -24 -41 -46 -154 -177 -23 -26 -49 -58
-58 -72 -9 -14 -24 -35 -33 -47 l-16 -23 69 0 70 0 45 57 c25 32 56 69 69 83
38 39 93 110 124 160 15 24 57 73 92 109 36 36 73 81 83 101 10 19 28 44 40
55 12 11 48 59 80 106 31 48 62 93 69 100 65 76 129 169 164 238 35 71 42 94
42 144 0 60 0 61 -33 69 -38 10 -106 -10 -157 -47 -16 -12 -52 -32 -80 -45
-27 -13 -72 -43 -99 -67 -28 -23 -52 -40 -55 -38 -7 8 121 232 141 245 4 3 26
44 48 90 22 47 57 117 77 155 67 130 183 363 183 368 0 3 16 31 35 63 39 64
43 85 19 108 -16 17 -37 19 -66 8z m-965 -744 c-3 -51 -8 -98 -12 -105 -8 -14
-217 -153 -231 -153 -17 0 -11 13 16 39 14 13 37 45 52 70 14 25 34 52 44 59
10 7 18 24 18 37 0 13 9 30 20 38 11 8 34 35 51 61 17 25 35 46 39 46 5 0 6
-42 3 -92z"/>
<path d="M613 835 c-29 -29 -53 -56 -53 -59 0 -4 -15 -28 -32 -53 -18 -25 -40
-56 -48 -68 -8 -12 -36 -53 -62 -91 -52 -74 -58 -94 -30 -94 30 0 111 85 167
176 11 17 48 73 83 124 59 85 71 121 40 119 -7 0 -37 -24 -65 -54z"/>
</g>
</svg>
