<?xml version="1.0" standalone="no"?>
<!DOCTYPE svg PUBLIC "-//W3C//DTD SVG 20010904//EN"
 "http://www.w3.org/TR/2001/REC-SVG-20010904/DTD/svg10.dtd">
<svg version="1.0" xmlns="http://www.w3.org/2000/svg"
 width="207.000000pt" height="207.000000pt" viewBox="0 0 207.000000 207.000000"
 preserveAspectRatio="xMidYMid meet">
<metadata>
Created by potrace 1.16, written by Peter Selinger 2001-2019
</metadata>
<g transform="translate(0.000000,207.000000) scale(0.100000,-0.100000)"
fill="#000000" stroke="none">
<path d="M1289 1773 c-21 -5 -37 -39 -41 -83 -2 -31 0 -35 19 -33 57 6 29
-185 -30 -201 -27 -7 -64 37 -82 98 -32 109 -80 159 -121 126 -23 -20 -18 -58
8 -62 17 -2 26 -15 38 -53 17 -58 73 -149 103 -170 26 -18 74 -19 104 -2 35
19 81 100 92 163 9 49 8 67 -9 125 -19 63 -41 101 -58 98 -4 -1 -14 -3 -23 -6z"/>
<path d="M687 1701 c-24 -9 -81 -82 -97 -123 -6 -18 -18 -48 -26 -66 -8 -18
-14 -38 -14 -46 0 -17 -48 -110 -86 -166 -16 -25 -50 -89 -74 -143 -24 -54
-47 -100 -52 -103 -11 -7 -10 -44 2 -44 6 0 23 12 38 28 27 27 41 46 122 175
24 37 46 67 50 67 4 0 22 30 40 68 18 37 37 74 41 82 5 8 24 44 43 80 19 36
48 78 65 94 62 60 26 128 -52 97z"/>
<path d="M559 1269 c-8 -16 -8 -28 0 -46 6 -13 11 -53 11 -87 l0 -64 -62 -30
c-35 -16 -73 -33 -85 -36 -13 -4 -23 -11 -23 -17 0 -5 -39 -29 -87 -54 -49
-25 -95 -50 -103 -55 -24 -16 -143 -83 -175 -100 -27 -14 -30 -20 -33 -72 -3
-61 -2 -63 26 -49 9 5 43 21 75 36 32 15 72 39 89 53 30 25 57 42 158 93 25
13 76 44 114 70 99 67 106 61 84 -82 -12 -75 -13 -76 -54 -98 -45 -24 -145
-117 -191 -177 -15 -21 -47 -56 -70 -77 -49 -45 -55 -67 -17 -67 30 0 92 41
149 98 136 137 140 141 143 126 4 -18 -25 -145 -69 -303 -33 -118 -35 -143
-15 -160 21 -18 51 1 66 41 6 18 18 45 26 60 17 32 64 192 89 303 10 44 22 83
28 87 6 4 59 7 118 6 59 0 116 5 127 11 11 6 21 8 24 6 2 -3 23 4 46 15 29 14
40 25 35 35 -10 27 -36 33 -110 24 -42 -4 -86 -4 -105 2 -18 5 -50 9 -70 9
-20 0 -40 4 -43 10 -7 12 24 229 36 252 10 18 26 28 129 78 77 38 100 57 100
82 0 31 -24 26 -182 -39 -51 -21 -60 -12 -56 58 4 69 -5 79 -69 79 -33 0 -45
-5 -54 -21z"/>
<path d="M1400 1202 c-19 -2 -40 -7 -45 -12 -6 -5 -53 -31 -105 -58 -52 -27
-108 -56 -125 -65 -16 -9 -35 -17 -41 -17 -6 0 -22 -8 -35 -19 -13 -10 -40
-23 -59 -30 -20 -6 -59 -34 -88 -63 -41 -40 -52 -58 -52 -83 0 -35 21 -60 61
-70 23 -6 29 -1 54 42 40 67 64 85 240 178 60 32 114 64 120 71 5 7 38 27 73
44 50 25 62 35 62 54 0 28 -11 33 -60 28z"/>
<path d="M1167 930 c-20 -4 -40 -10 -44 -14 -4 -3 -9 -50 -12 -103 l-6 -96
-117 -61 c-144 -75 -222 -142 -212 -184 10 -40 12 -42 54 -42 29 0 47 7 68 27
63 61 124 113 131 113 4 0 22 7 40 16 18 9 34 14 37 11 3 -2 0 -63 -6 -133 -6
-71 -11 -145 -12 -165 0 -20 -3 -41 -7 -46 -8 -11 -74 -39 -131 -54 -25 -7
-57 -21 -72 -31 -14 -10 -29 -18 -33 -18 -27 0 -48 -91 -24 -105 25 -16 79 -8
116 17 21 15 61 32 88 39 28 7 87 30 132 51 45 22 96 44 115 49 18 4 74 19
123 33 50 13 110 27 135 31 62 10 80 21 80 51 0 39 -38 48 -145 34 -49 -6
-112 -18 -139 -27 -26 -8 -75 -21 -108 -28 l-59 -12 7 26 c10 39 24 108 35
181 30 205 27 195 72 231 23 19 58 45 77 57 36 24 60 50 60 64 0 16 -52 7
-100 -17 -68 -34 -80 -33 -80 10 0 24 6 39 20 47 24 15 26 43 4 52 -18 7 -35
6 -87 -4z"/>
</g>
</svg>
