<?xml version="1.0" standalone="no"?>
<!DOCTYPE svg PUBLIC "-//W3C//DTD SVG 20010904//EN"
 "http://www.w3.org/TR/2001/REC-SVG-20010904/DTD/svg10.dtd">
<svg version="1.0" xmlns="http://www.w3.org/2000/svg"
 width="205.000000pt" height="208.000000pt" viewBox="0 0 205.000000 208.000000"
 preserveAspectRatio="xMidYMid meet">
<metadata>
Created by potrace 1.16, written by Peter Selinger 2001-2019
</metadata>
<g transform="translate(0.000000,208.000000) scale(0.100000,-0.100000)"
fill="#000000" stroke="none">
<path d="M730 1790 c0 -5 -6 -10 -12 -10 -24 0 -71 -73 -99 -154 -42 -123
-155 -382 -191 -436 -9 -14 -28 -54 -43 -90 -15 -36 -31 -69 -36 -74 -5 -6 -9
-20 -9 -33 0 -20 3 -22 18 -12 10 6 28 26 40 43 12 17 35 47 52 66 16 19 30
39 30 43 0 4 22 40 49 80 44 65 72 111 99 163 37 72 51 102 57 124 15 50 60
136 97 183 21 27 38 53 38 58 0 6 -11 21 -25 34 -24 25 -65 34 -65 15z"/>
<path d="M1317 1776 c-20 -21 -22 -32 -17 -78 6 -68 23 -72 78 -18 45 43 58
47 87 26 40 -29 -2 -157 -72 -222 -39 -36 -84 -32 -122 11 -17 20 -33 46 -37
60 -7 27 -40 43 -56 27 -6 -6 -8 -29 -4 -55 12 -80 107 -154 176 -138 60 14
96 39 129 89 17 27 40 59 51 72 17 19 40 98 40 135 0 28 -43 97 -67 106 -13 5
-56 9 -94 9 -61 0 -73 -3 -92 -24z"/>
<path d="M1085 1341 c-22 -4 -58 -16 -80 -27 -157 -81 -165 -84 -172 -66 -16
43 -45 72 -73 72 -41 0 -60 -31 -53 -89 6 -51 -8 -70 -77 -107 -70 -37 -284
-175 -288 -186 -2 -5 -25 -19 -50 -32 -26 -13 -77 -47 -114 -75 -38 -27 -78
-56 -90 -62 -13 -7 -38 -24 -55 -38 -31 -25 -33 -29 -33 -94 l0 -68 80 63
c110 87 260 192 362 253 9 6 47 32 85 59 75 54 154 99 161 92 5 -5 -32 -183
-53 -256 -7 -25 -16 -62 -20 -82 -7 -45 -45 -75 -45 -36 0 13 7 32 15 42 19
25 19 36 1 36 -22 0 -94 -78 -132 -144 -19 -34 -55 -88 -80 -121 -67 -91 -78
-116 -60 -133 13 -13 18 -13 40 2 14 9 26 21 26 26 0 6 12 23 27 39 16 16 35
39 43 51 15 22 117 100 131 100 15 0 -34 -220 -67 -299 -8 -18 -14 -40 -14
-47 0 -15 37 -19 57 -6 13 8 83 155 83 175 1 7 9 30 20 52 11 22 19 45 20 50
0 6 5 27 10 47 l11 37 62 -30 c34 -16 79 -29 99 -29 31 0 40 -5 53 -29 8 -16
20 -31 27 -34 20 -6 58 11 103 46 22 18 58 41 80 52 22 10 47 25 57 33 9 7 18
9 22 4 7 -11 -16 -123 -37 -177 -8 -22 -23 -71 -33 -110 -9 -38 -20 -73 -24
-78 -3 -4 -46 -21 -96 -38 -49 -17 -96 -37 -105 -45 -8 -8 -20 -14 -26 -14
-18 0 -43 -36 -43 -63 0 -33 39 -62 72 -52 13 4 40 18 60 32 26 18 46 24 65
20 19 -3 37 2 58 16 36 26 65 44 85 52 8 4 23 11 32 16 10 5 24 9 32 9 8 0 53
18 100 40 47 22 89 40 94 40 5 0 23 7 38 15 16 8 37 15 46 15 9 0 19 4 22 9 7
11 73 8 99 -3 25 -12 85 2 95 22 19 36 22 80 6 93 -24 20 -270 -14 -298 -42
-6 -5 -16 -9 -23 -9 -8 0 -61 -19 -119 -41 -58 -23 -107 -39 -109 -37 -3 3 6
32 20 66 14 34 25 68 25 75 0 8 9 26 20 40 11 14 29 59 40 99 45 172 48 180
106 235 30 28 54 59 54 67 0 27 -27 29 -59 5 -17 -12 -34 -19 -38 -15 -5 4 -7
44 -6 89 2 71 6 84 24 98 25 19 20 49 -8 49 -50 1 -42 18 27 61 39 24 83 50
98 58 15 8 45 29 66 48 22 18 50 33 62 33 27 0 41 34 24 55 -27 32 -109 12
-172 -41 -15 -12 -44 -28 -65 -34 -21 -7 -47 -21 -58 -30 -11 -10 -45 -30 -75
-44 -30 -15 -93 -53 -140 -86 -47 -32 -97 -62 -112 -65 -53 -12 -80 -93 -39
-115 35 -18 55 -11 144 50 49 33 92 60 97 60 18 0 27 -146 14 -241 -7 -50 -29
-70 -139 -122 -33 -16 -69 -38 -81 -48 -11 -11 -38 -28 -58 -39 -37 -18 -38
-18 -57 1 -10 10 -33 19 -49 19 -16 0 -30 4 -30 9 0 5 -24 32 -52 59 l-53 51
17 73 c28 128 50 213 58 229 5 9 14 41 21 71 13 54 13 55 86 94 41 21 81 47
90 57 9 9 21 17 27 17 22 0 146 65 146 77 0 11 -33 35 -42 32 -2 -1 -21 -4
-43 -8z"/>
</g>
</svg>
