<?xml version="1.0" standalone="no"?>
<!DOCTYPE svg PUBLIC "-//W3C//DTD SVG 20010904//EN"
 "http://www.w3.org/TR/2001/REC-SVG-20010904/DTD/svg10.dtd">
<svg version="1.0" xmlns="http://www.w3.org/2000/svg"
 width="207.000000pt" height="205.000000pt" viewBox="0 0 207.000000 205.000000"
 preserveAspectRatio="xMidYMid meet">
<metadata>
Created by potrace 1.16, written by Peter Selinger 2001-2019
</metadata>
<g transform="translate(0.000000,205.000000) scale(0.100000,-0.100000)"
fill="#000000" stroke="none">
<path d="M1382 1911 c-7 -4 -28 -53 -47 -107 -51 -153 -107 -247 -207 -348
-58 -59 -69 -85 -45 -104 27 -21 56 -23 74 -5 43 43 166 135 198 149 26 11 41
12 55 4 27 -14 25 -46 -5 -107 -26 -51 -76 -97 -170 -155 -51 -32 -175 -169
-175 -193 0 -3 -10 -19 -22 -35 -18 -25 -20 -33 -9 -56 10 -24 15 -25 49 -19
20 3 49 18 64 32 16 15 55 33 100 45 73 19 156 67 178 102 11 18 9 19 -44 13
-50 -5 -56 -4 -56 13 0 37 206 217 226 198 2 -3 -11 -52 -31 -110 -19 -58 -35
-112 -35 -121 0 -29 -88 -287 -116 -339 -8 -14 -14 -33 -14 -41 0 -8 -9 -17
-20 -20 -17 -4 -20 0 -20 23 0 41 -18 76 -46 89 -28 13 -30 28 -7 53 15 17 15
20 2 34 -14 13 -26 6 -115 -71 -85 -75 -164 -125 -194 -125 -5 0 -17 16 -26
37 -10 20 -30 43 -46 52 -34 19 -35 35 -7 151 24 102 29 112 88 143 51 26 57
35 37 62 -12 17 -17 18 -40 7 -15 -7 -37 -12 -50 -12 -27 0 -30 10 -42 105 -8
76 -18 95 -49 95 -20 0 -25 5 -25 25 0 14 4 25 8 25 5 0 21 30 36 68 15 37 33
78 41 92 8 14 25 45 39 70 13 25 52 73 86 108 50 52 59 66 49 78 -13 16 -65
19 -74 4 -3 -5 -21 -10 -38 -10 -24 0 -40 -9 -64 -35 -35 -38 -117 -201 -132
-262 -15 -62 -81 -218 -107 -253 -6 -8 -26 -42 -43 -75 -35 -64 -86 -135 -145
-199 -38 -42 -49 -80 -19 -69 29 11 5 -15 -45 -49 -26 -18 -70 -50 -99 -73
-108 -84 -149 -112 -169 -119 -12 -4 -34 -25 -50 -47 -34 -49 -25 -72 28 -77
27 -2 42 3 66 25 55 50 106 90 132 103 14 7 36 23 50 35 14 12 68 51 120 86
52 35 97 66 100 69 3 3 31 19 64 35 32 17 74 38 93 48 19 10 37 16 40 13 6 -6
-15 -178 -38 -306 -10 -58 -24 -139 -30 -180 -8 -53 -18 -83 -35 -103 -24 -28
-32 -71 -16 -81 5 -3 7 -19 4 -35 -3 -22 0 -33 13 -37 21 -8 67 16 72 37 3 10
39 30 89 49 46 18 88 38 94 45 14 17 140 78 147 72 2 -3 -11 -39 -31 -81 -25
-53 -38 -95 -42 -144 -7 -68 -6 -69 24 -90 26 -19 43 -22 134 -22 56 0 128 6
158 14 61 15 210 72 225 87 5 5 20 9 34 9 13 0 38 10 55 23 42 32 105 64 139
71 24 6 27 11 27 46 0 22 5 40 10 40 29 0 -16 40 -85 75 -78 40 -129 52 -140
35 -8 -13 4 -50 16 -50 6 0 24 -14 42 -31 l32 -30 -34 -29 c-19 -16 -58 -37
-85 -46 -28 -9 -76 -30 -106 -47 -30 -16 -80 -36 -110 -43 -57 -13 -213 -14
-226 -2 -4 4 3 31 16 60 12 29 34 80 47 112 56 134 134 217 186 200 12 -5 28
-7 35 -5 8 1 24 -5 37 -13 47 -31 105 -17 105 25 0 15 -60 63 -93 74 -36 11
-42 36 -11 49 34 15 135 241 154 346 8 43 21 83 40 125 5 11 14 38 21 60 6 22
22 60 35 85 65 123 27 172 -86 115 -75 -38 -84 -35 -78 27 5 48 3 55 -24 79
-21 20 -44 30 -83 34 l-54 7 25 38 c14 21 41 89 60 152 31 104 33 114 17 126
-19 14 -42 15 -61 3z m-629 -703 c3 -24 9 -59 12 -78 7 -34 5 -37 -42 -66 -26
-17 -79 -46 -118 -65 -38 -19 -73 -38 -77 -44 -4 -5 -10 -6 -14 -3 -4 4 -18
-2 -32 -12 -14 -11 -28 -18 -31 -15 -3 4 8 17 24 30 84 66 171 164 225 253 14
23 30 42 36 42 6 0 14 -19 17 -42z m445 -515 c-6 -21 -18 -49 -28 -63 -9 -14
-25 -41 -34 -61 -21 -44 -120 -99 -130 -72 -7 17 -20 15 -106 -15 -30 -10 -68
-22 -84 -26 l-28 -7 6 48 c4 26 14 80 23 120 l16 72 23 -16 c13 -8 24 -22 24
-30 0 -8 4 -12 8 -9 5 3 23 -4 40 -15 45 -27 69 -24 112 14 20 17 52 41 70 52
19 11 43 26 55 32 36 23 44 17 33 -24z m-428 -63 c0 -5 -4 -10 -10 -10 -5 0
-10 5 -10 10 0 6 5 10 10 10 6 0 10 -4 10 -10z"/>
<path d="M652 853 c-58 -28 -352 -336 -352 -368 0 -7 -7 -18 -15 -25 -19 -16
-19 -44 0 -60 17 -14 50 7 84 55 29 42 120 142 221 244 83 85 130 143 130 161
0 15 -31 12 -68 -7z"/>
<path d="M1591 720 c-35 -11 -69 -24 -74 -29 -19 -19 2 -24 45 -11 58 18 139
18 171 1 24 -13 27 -20 27 -67 0 -65 7 -84 30 -84 11 0 22 -4 25 -10 3 -5 14
-10 24 -10 30 0 39 99 14 148 -36 70 -146 96 -262 62z"/>
</g>
</svg>
