<?xml version="1.0" standalone="no"?>
<!DOCTYPE svg PUBLIC "-//W3C//DTD SVG 20010904//EN"
 "http://www.w3.org/TR/2001/REC-SVG-20010904/DTD/svg10.dtd">
<svg version="1.0" xmlns="http://www.w3.org/2000/svg"
 width="208.000000pt" height="206.000000pt" viewBox="0 0 208.000000 206.000000"
 preserveAspectRatio="xMidYMid meet">
<metadata>
Created by potrace 1.16, written by Peter Selinger 2001-2019
</metadata>
<g transform="translate(0.000000,206.000000) scale(0.100000,-0.100000)"
fill="#000000" stroke="none">
<path d="M1118 1883 c-20 -5 -43 -51 -52 -101 -6 -36 -143 -321 -181 -376 -45
-66 -39 -98 21 -109 27 -5 35 -1 64 36 99 123 227 220 282 215 30 -3 33 -6 32
-34 -3 -59 -73 -180 -146 -251 -24 -23 -85 -82 -135 -131 -55 -53 -93 -98 -93
-109 0 -37 30 -51 100 -48 79 4 115 17 155 55 17 16 47 36 68 45 30 12 38 20
35 38 -2 18 -11 23 -45 27 l-43 5 21 34 c11 18 29 35 40 38 10 3 19 9 19 14 0
5 19 21 43 36 23 15 45 32 49 38 5 6 11 6 18 -1 8 -8 7 -28 -4 -72 -9 -33 -23
-97 -32 -143 -25 -133 -53 -192 -102 -210 -29 -11 -24 -31 12 -44 19 -6 32 -6
44 3 9 7 29 18 44 24 33 15 80 111 103 213 9 39 23 91 31 116 19 64 18 178 -2
207 -18 26 -61 29 -104 7 -35 -18 -40 -4 -14 33 9 13 18 50 21 83 6 65 -5 87
-59 115 -39 20 -71 17 -132 -13 -31 -15 -58 -24 -61 -21 -3 3 10 52 30 108 38
113 44 164 19 174 -17 6 -19 6 -46 -1z"/>
<path d="M793 1759 c-62 -36 -96 -84 -219 -309 -99 -181 -117 -215 -151 -295
-33 -76 -86 -158 -186 -288 -67 -87 -97 -117 -133 -132 -48 -20 -104 -74 -104
-100 0 -38 23 -39 130 -6 19 6 58 29 85 51 28 22 72 52 98 67 26 16 89 55 138
88 107 70 139 89 145 82 9 -8 -40 -259 -50 -262 -6 -1 -28 -8 -49 -15 -47 -15
-53 -10 -34 27 18 34 31 103 20 103 -10 -1 -59 -52 -108 -115 -22 -27 -43 -51
-47 -53 -5 -2 -8 -9 -8 -16 0 -7 -8 -22 -18 -34 -10 -11 -27 -33 -38 -48 -35
-51 -117 -134 -143 -147 -19 -9 -26 -20 -26 -42 0 -26 4 -30 29 -33 24 -3 37
5 75 45 86 91 131 145 167 204 20 32 40 59 43 59 3 1 27 3 53 5 49 4 78 -11
78 -40 0 -15 -27 -45 -40 -45 -12 0 -40 -29 -40 -41 0 -5 14 -23 30 -41 17
-17 28 -38 26 -45 -3 -7 -8 -36 -12 -65 -7 -64 -42 -199 -55 -212 -27 -29 3
-79 42 -69 25 7 96 156 104 218 3 28 11 71 16 96 l10 46 79 12 c43 6 106 23
140 37 34 14 65 23 67 20 3 -3 -10 -29 -29 -58 -56 -87 -121 -225 -115 -243 4
-9 32 -27 62 -41 46 -21 71 -26 153 -27 70 0 106 4 127 15 33 17 114 46 160
57 29 8 48 17 130 66 22 14 51 29 65 35 14 6 38 18 54 25 15 8 44 17 65 21 56
10 71 29 71 88 -1 43 -6 57 -34 88 -33 38 -141 105 -173 108 -62 7 -57 -19 16
-89 79 -74 83 -91 29 -117 -24 -11 -88 -44 -143 -72 -167 -85 -279 -126 -341
-124 -64 2 -94 15 -94 43 0 11 17 51 39 87 21 37 56 101 77 142 57 109 52 103
81 80 14 -11 32 -20 39 -20 8 0 14 -4 14 -10 0 -13 66 -13 91 0 28 15 24 31
-18 66 l-36 30 16 46 c14 44 14 47 -3 63 -18 16 -21 16 -47 -5 l-28 -22 -7 41
c-9 53 -25 81 -46 82 -9 0 -37 2 -61 4 -38 3 -50 -1 -85 -28 -23 -18 -50 -37
-61 -43 -24 -13 -32 -56 -13 -71 28 -23 56 -24 75 -4 26 28 83 40 83 17 0 -28
-54 -114 -83 -131 -68 -40 -238 -84 -273 -71 -15 6 -15 8 1 26 10 11 26 20 35
20 17 0 34 36 24 51 -2 4 -18 10 -34 14 -36 8 -38 26 -14 150 8 44 19 111 25
149 12 80 35 134 64 150 144 80 230 166 165 166 -18 0 -103 -43 -177 -90 -29
-19 -35 -11 -38 52 -3 86 -15 128 -41 145 -13 8 -24 22 -24 30 0 17 64 128
127 221 24 34 43 64 43 66 0 2 16 20 35 40 39 42 45 80 16 96 -25 13 -17 15
-78 -21z m-111 -231 c-9 -9 -12 -7 -12 12 0 19 3 21 12 12 9 -9 9 -15 0 -24z
m-74 -382 c12 -73 12 -78 -8 -106 -12 -17 -26 -30 -31 -30 -6 0 -38 -16 -72
-36 -143 -84 -150 -88 -138 -65 6 11 15 23 21 26 13 8 100 139 100 151 0 6 9
19 21 30 12 10 32 41 46 67 13 27 29 47 36 44 7 -2 18 -38 25 -81z"/>
<path d="M1705 802 c-19 -14 -18 -82 2 -104 29 -33 63 -41 84 -22 36 32 16 90
-41 119 -33 17 -32 17 -45 7z"/>
</g>
</svg>
