<?xml version="1.0" standalone="no"?>
<!DOCTYPE svg PUBLIC "-//W3C//DTD SVG 20010904//EN"
 "http://www.w3.org/TR/2001/REC-SVG-20010904/DTD/svg10.dtd">
<svg version="1.0" xmlns="http://www.w3.org/2000/svg"
 width="207.000000pt" height="202.000000pt" viewBox="0 0 207.000000 202.000000"
 preserveAspectRatio="xMidYMid meet">
<metadata>
Created by potrace 1.16, written by Peter Selinger 2001-2019
</metadata>
<g transform="translate(0.000000,202.000000) scale(0.100000,-0.100000)"
fill="#000000" stroke="none">
<path d="M1635 1984 c-27 -18 -53 -34 -58 -34 -9 0 -127 -57 -196 -96 -24 -13
-50 -24 -56 -24 -7 0 -18 -6 -24 -13 -6 -8 -43 -30 -83 -49 -174 -86 -309
-148 -322 -148 -8 0 -17 -4 -20 -9 -3 -5 -29 -16 -58 -26 -92 -30 -191 -84
-251 -137 -51 -45 -57 -55 -57 -90 0 -25 5 -41 15 -44 17 -7 78 31 115 71 13
14 30 25 37 25 8 0 33 13 56 29 23 15 53 31 67 35 14 4 44 16 68 27 24 11 57
22 73 26 15 3 34 12 40 19 6 8 18 14 25 14 17 0 112 49 120 61 3 5 12 9 20 9
17 0 141 57 164 75 16 13 132 77 192 107 64 31 73 22 34 -33 -36 -50 -65 -117
-72 -163 -6 -44 -7 -48 -54 -149 -27 -60 -66 -185 -85 -270 -3 -18 -15 -31
-33 -38 -31 -12 -126 -92 -191 -162 -49 -52 -169 -137 -193 -137 -9 0 -22 9
-29 21 -16 23 -72 30 -92 10 -6 -6 -11 -25 -12 -42 0 -27 -7 -35 -55 -61 -30
-17 -62 -36 -70 -43 -15 -13 -75 -45 -84 -45 -7 0 4 70 16 102 8 21 34 39 122
81 61 30 131 62 156 72 25 11 53 25 63 33 9 9 20 12 23 9 4 -3 15 -2 25 4 15
8 17 14 9 29 -17 31 -96 26 -199 -11 -47 -17 -90 -35 -95 -40 -6 -5 -25 -9
-43 -9 -19 0 -52 -9 -74 -21 -46 -23 -45 -17 10 51 20 25 39 50 43 55 4 6 26
31 47 58 22 26 54 68 71 92 17 25 35 45 40 45 15 0 12 38 -6 65 -33 50 -89 20
-140 -73 -73 -132 -146 -242 -199 -298 -57 -59 -75 -92 -56 -103 8 -5 7 -16
-2 -40 -11 -31 -10 -34 16 -57 15 -13 37 -24 48 -24 18 0 19 -4 13 -37 -9 -50
-7 -48 -67 -77 -61 -29 -154 -95 -162 -115 -3 -8 5 -26 19 -39 l24 -25 44 22
c53 25 58 26 58 6 0 -50 -132 -275 -161 -275 -14 0 -11 -28 4 -33 6 -2 23 1
37 8 28 15 150 147 150 164 0 24 37 31 82 16 24 -9 73 -21 108 -29 86 -17 89
-33 15 -98 -40 -36 -55 -57 -53 -72 4 -31 41 -32 73 -2 16 15 32 26 36 26 5 0
15 13 23 28 8 15 25 34 39 41 13 7 34 30 45 50 12 20 30 45 41 55 11 10 27 40
36 67 9 27 28 59 43 71 15 13 27 29 28 36 1 6 2 20 3 30 1 13 9 18 34 18 20 0
50 12 78 31 60 41 179 164 179 184 0 9 18 34 40 55 58 57 111 170 120 258 8
70 17 97 87 246 42 89 117 275 126 311 4 15 27 54 52 88 25 33 45 64 45 67 0
10 87 118 119 147 18 17 31 39 31 53 0 23 -2 24 -72 23 -66 0 -78 -3 -123 -35z
m-365 -950 c0 -9 -71 -148 -83 -163 -7 -8 -25 -38 -42 -67 -29 -51 -177 -214
-194 -214 -5 0 -11 14 -15 32 -8 41 -23 58 -51 58 -33 0 -49 -25 -61 -99 -13
-72 -59 -178 -86 -195 -21 -13 -163 9 -193 30 -10 8 -30 14 -42 14 -31 0 -29
19 8 88 21 39 43 65 71 82 23 14 53 33 67 42 14 10 40 25 56 34 17 9 41 25 55
36 59 45 103 68 129 68 71 0 147 49 276 179 70 70 105 95 105 75z"/>
<path d="M650 1801 c-16 -30 -12 -69 8 -80 9 -5 45 -12 80 -16 l62 -7 0 34 c0
41 -7 51 -47 72 -44 22 -90 21 -103 -3z"/>
<path d="M430 1480 c-8 -5 -31 -10 -51 -10 -20 0 -50 -5 -67 -11 -37 -13 -38
-14 -51 -227 -6 -84 -18 -180 -27 -213 -20 -70 -9 -96 26 -64 11 10 20 22 20
27 0 4 11 32 25 61 28 56 41 102 55 182 17 103 36 138 89 168 56 31 73 63 45
84 -21 15 -43 16 -64 3z"/>
<path d="M986 1383 c-21 -5 -196 -179 -196 -194 0 -19 35 -7 114 37 99 56 139
65 158 35 16 -26 54 -27 67 -2 15 27 -5 86 -35 106 -28 18 -78 27 -108 18z"/>
<path d="M1577 736 c-3 -7 0 -36 8 -62 7 -27 21 -87 31 -134 10 -47 30 -116
46 -155 15 -38 28 -71 28 -72 0 -1 -12 -14 -27 -28 -47 -43 -110 -75 -201
-102 -73 -21 -100 -24 -172 -20 -104 6 -179 30 -226 71 -38 34 -41 48 -29 153
7 60 7 63 -23 92 -39 40 -59 39 -102 -5 l-35 -37 33 8 c29 6 32 5 32 -19 0
-13 -4 -35 -9 -48 -21 -57 -22 -117 -1 -158 22 -43 99 -99 166 -120 21 -6 52
-18 67 -26 37 -18 190 -18 282 0 79 15 210 66 228 88 19 22 64 48 86 48 26 0
61 46 61 79 -1 14 -9 40 -18 57 -46 84 -116 234 -137 294 -16 45 -60 110 -74
110 -5 0 -11 -6 -14 -14z"/>
</g>
</svg>
