<?xml version="1.0" standalone="no"?>
<!DOCTYPE svg PUBLIC "-//W3C//DTD SVG 20010904//EN"
 "http://www.w3.org/TR/2001/REC-SVG-20010904/DTD/svg10.dtd">
<svg version="1.0" xmlns="http://www.w3.org/2000/svg"
 width="208.000000pt" height="208.000000pt" viewBox="0 0 208.000000 208.000000"
 preserveAspectRatio="xMidYMid meet">
<metadata>
Created by potrace 1.16, written by Peter Selinger 2001-2019
</metadata>
<g transform="translate(0.000000,208.000000) scale(0.100000,-0.100000)"
fill="#000000" stroke="none">
<path d="M825 1836 c-25 -25 -25 -32 2 -118 8 -26 12 -52 9 -57 -10 -16 5 -41
24 -41 10 0 28 8 40 18 20 16 22 27 22 90 -1 90 -6 106 -38 120 -33 15 -31 16
-59 -12z"/>
<path d="M1220 1735 c-14 -8 -31 -14 -38 -15 -7 0 -73 -29 -147 -65 -73 -36
-140 -65 -149 -65 -16 0 -199 -91 -229 -114 -12 -9 -17 -24 -15 -42 4 -41 53
-54 108 -29 22 10 40 21 40 26 0 10 53 40 120 68 30 13 66 30 80 39 14 10 47
26 73 38 57 24 209 142 204 157 -5 17 -20 17 -47 2z"/>
<path d="M1175 1549 c-27 -16 -61 -34 -75 -41 -130 -60 -183 -82 -239 -101
-36 -12 -81 -32 -100 -44 -19 -13 -37 -23 -42 -23 -4 0 -11 -10 -15 -22 -5
-16 0 -27 20 -44 24 -22 29 -22 64 -9 39 14 105 47 125 62 7 6 28 16 47 23 19
8 41 20 48 27 16 15 35 17 30 3 -5 -15 -99 -110 -109 -110 -9 0 -176 -142
-199 -170 -8 -10 -38 -36 -67 -57 -28 -21 -61 -51 -73 -66 -12 -15 -29 -27
-39 -27 -10 0 -55 -25 -102 -56 -148 -99 -174 -137 -126 -182 34 -32 55 -28
119 23 31 24 85 59 120 77 73 39 178 109 197 132 7 9 19 16 26 16 7 0 15 6 18
13 2 7 47 36 98 65 116 66 115 65 164 88 22 10 60 32 85 50 62 43 135 79 195
93 28 7 66 21 85 31 55 28 172 70 206 74 17 2 36 6 43 10 17 11 13 42 -6 45
-38 6 -119 0 -152 -10 -59 -17 -103 -29 -153 -39 -27 -5 -68 -19 -92 -30 -25
-11 -47 -20 -50 -20 -3 0 -50 -25 -103 -55 -54 -30 -103 -55 -110 -55 -15 0
126 144 150 153 9 3 28 24 42 47 14 22 30 40 36 40 19 0 59 49 59 74 0 27 -25
46 -57 45 -10 0 -40 -14 -68 -30z"/>
<path d="M1115 1051 c-96 -26 -148 -56 -248 -144 -17 -16 -39 -48 -47 -70 -12
-33 -23 -44 -50 -53 -18 -6 -60 -37 -92 -68 -51 -49 -59 -61 -56 -89 2 -22 10
-35 26 -42 29 -13 28 -22 -13 -80 -19 -28 -46 -66 -59 -85 -14 -19 -45 -60
-70 -90 -55 -65 -67 -98 -42 -116 25 -17 62 -2 108 44 43 42 177 205 213 257
40 60 128 165 138 165 5 0 37 27 71 60 35 33 68 60 74 60 7 0 23 18 36 39 14
22 34 42 45 46 26 8 70 67 77 105 5 24 1 36 -16 55 -13 14 -26 24 -29 24 -3
-1 -33 -9 -66 -18z m-56 -156 c-47 -49 -106 -91 -116 -82 -10 11 37 65 84 96
68 45 83 38 32 -14z"/>
<path d="M988 683 c-52 -31 -148 -118 -148 -134 0 -6 3 -9 8 -7 4 2 33 16 66
31 32 15 62 27 66 25 4 -2 -7 -48 -26 -103 -37 -109 -40 -132 -23 -169 14 -31
114 -85 166 -90 21 -2 67 -7 103 -11 40 -4 87 -3 120 4 30 6 91 16 135 21 44
5 121 22 171 38 49 16 110 32 134 35 47 5 72 28 69 62 -1 11 2 28 6 38 6 14
-4 31 -46 73 -30 30 -79 74 -109 97 -30 23 -62 50 -72 60 -21 19 -34 22 -43 6
-11 -17 3 -56 33 -91 30 -35 82 -121 82 -135 0 -17 -154 -73 -200 -73 -20 0
-62 -7 -95 -15 -103 -27 -277 -10 -327 33 -19 16 -16 61 7 97 21 34 47 148 43
190 -3 38 -5 40 -38 43 -24 2 -50 -6 -82 -25z"/>
</g>
</svg>
