<?xml version="1.0" standalone="no"?>
<!DOCTYPE svg PUBLIC "-//W3C//DTD SVG 20010904//EN"
 "http://www.w3.org/TR/2001/REC-SVG-20010904/DTD/svg10.dtd">
<svg version="1.0" xmlns="http://www.w3.org/2000/svg"
 width="206.000000pt" height="216.000000pt" viewBox="0 0 206.000000 216.000000"
 preserveAspectRatio="xMidYMid meet">
<metadata>
Created by potrace 1.16, written by Peter Selinger 2001-2019
</metadata>
<g transform="translate(0.000000,216.000000) scale(0.100000,-0.100000)"
fill="#000000" stroke="none">
<path d="M969 2013 c-138 -281 -140 -285 -137 -316 2 -26 10 -34 40 -45 36
-14 39 -13 86 17 58 37 78 40 62 11 -14 -27 -5 -54 24 -73 39 -26 69 -25 82 3
31 64 38 88 35 118 -2 18 -43 14 -71 -8 -14 -11 -31 -20 -38 -20 -24 0 7 39
48 60 22 11 44 29 50 40 6 11 17 20 25 20 8 0 15 5 15 11 0 13 25 39 39 39 14
0 41 41 41 62 0 10 -7 18 -15 18 -21 0 -88 -34 -150 -76 -27 -18 -62 -36 -77
-39 -27 -7 -27 -7 -17 30 6 20 39 85 74 146 90 154 89 149 17 149 l-59 0 -74
-147z"/>
<path d="M563 2051 c-16 -15 -24 -46 -37 -138 -10 -65 -26 -152 -37 -193 -10
-41 -24 -95 -30 -120 -6 -25 -15 -52 -20 -61 -4 -9 -10 -35 -14 -58 -3 -22
-20 -80 -36 -128 -30 -85 -45 -134 -56 -180 -6 -27 20 -41 42 -23 8 7 32 47
52 89 21 42 41 78 46 79 4 2 7 14 7 27 0 12 6 28 14 34 7 6 19 33 26 59 20 80
27 92 55 92 14 0 38 6 54 14 31 16 151 145 151 162 0 6 7 17 15 24 25 20 17
38 -24 59 -27 14 -49 18 -75 14 -41 -6 -41 -8 -21 72 22 93 20 141 -10 170
-29 30 -73 32 -102 6z"/>
<path d="M1321 1765 c-16 -14 -33 -36 -37 -48 -6 -20 -117 -147 -208 -240 -21
-21 -71 -63 -110 -93 -39 -29 -109 -82 -156 -117 -162 -123 -189 -158 -151
-196 31 -31 57 -26 99 18 20 21 66 60 102 87 36 26 82 64 103 83 20 20 46 40
56 46 34 19 143 120 181 167 20 26 39 45 42 43 3 -3 4 -146 3 -317 -2 -354 6
-500 36 -641 11 -53 22 -107 24 -120 1 -12 7 -40 13 -62 15 -59 24 -145 15
-145 -10 0 -51 28 -71 47 -37 36 -44 -9 -9 -59 33 -49 145 -158 162 -158 18 0
43 37 46 70 3 30 -13 131 -46 295 -50 241 -54 273 -61 435 -3 91 -7 185 -8
210 -2 25 1 156 5 292 7 207 12 256 29 307 24 73 25 107 4 115 -25 9 -31 8
-63 -19z"/>
<path d="M460 1171 c-29 -15 -35 -24 -33 -47 8 -96 23 -245 28 -280 4 -23 2
-79 -4 -125 -6 -46 -13 -113 -16 -149 -7 -88 -13 -114 -41 -193 -26 -74 -30
-102 -14 -112 18 -11 45 5 77 49 43 57 58 101 76 232 24 167 27 206 31 385 3
137 7 171 21 193 17 25 17 27 0 46 -23 26 -79 26 -125 1z"/>
<path d="M1085 1023 c-11 -2 -40 -11 -65 -20 -25 -8 -88 -30 -140 -47 -76 -26
-98 -38 -108 -59 -16 -33 -3 -62 33 -71 28 -7 111 24 160 60 17 12 41 25 53
29 34 10 112 65 119 82 5 13 -13 34 -27 32 -3 -1 -14 -3 -25 -6z"/>
<path d="M982 784 c-12 -8 -29 -30 -38 -47 -44 -93 -54 -105 -85 -112 -20 -5
-52 -27 -82 -58 -49 -50 -49 -51 -42 -101 9 -70 35 -102 92 -114 30 -7 55 -7
71 -1 14 6 37 9 51 8 47 -4 58 1 76 27 19 29 23 120 6 137 -16 16 -13 69 5
112 8 21 17 62 20 92 3 50 2 54 -22 63 -31 12 -25 13 -52 -6z"/>
</g>
</svg>
