<?xml version="1.0" standalone="no"?>
<!DOCTYPE svg PUBLIC "-//W3C//DTD SVG 20010904//EN"
 "http://www.w3.org/TR/2001/REC-SVG-20010904/DTD/svg10.dtd">
<svg version="1.0" xmlns="http://www.w3.org/2000/svg"
 width="207.000000pt" height="217.000000pt" viewBox="0 0 207.000000 217.000000"
 preserveAspectRatio="xMidYMid meet">
<metadata>
Created by potrace 1.16, written by Peter Selinger 2001-2019
</metadata>
<g transform="translate(0.000000,217.000000) scale(0.100000,-0.100000)"
fill="#000000" stroke="none">
<path d="M1464 2156 c-11 -8 -45 -52 -77 -98 -31 -47 -68 -95 -82 -108 -14
-13 -25 -27 -25 -32 0 -4 -15 -27 -33 -51 -18 -23 -38 -61 -46 -83 -12 -39
-12 -44 9 -72 l22 -30 -27 -36 c-15 -20 -31 -36 -36 -36 -5 0 -9 -9 -9 -21 0
-13 11 -25 35 -35 19 -8 35 -18 35 -23 0 -6 -39 -34 -86 -63 -47 -29 -96 -60
-109 -68 -22 -13 -25 -12 -49 13 -26 28 -57 34 -100 17 -32 -12 -35 -54 -6
-72 11 -7 20 -20 20 -28 0 -9 -35 -47 -77 -85 -130 -116 -157 -147 -192 -218
-39 -78 -36 -100 17 -105 22 -2 34 3 47 20 9 13 36 50 60 83 25 33 45 65 45
70 0 6 30 30 65 55 35 25 81 58 102 73 60 43 182 130 222 156 20 13 47 33 61
45 14 12 44 31 68 41 23 10 47 24 52 31 6 6 37 24 68 39 31 14 70 34 87 42 39
22 135 44 135 31 0 -15 -76 -101 -226 -255 -138 -142 -142 -145 -190 -150 -60
-6 -147 -45 -177 -79 -11 -13 -28 -44 -37 -67 -22 -58 -10 -87 36 -87 29 0 36
6 53 38 26 51 59 78 103 86 34 6 38 4 44 -18 14 -59 -102 -279 -198 -373 -39
-38 -52 -42 -42 -10 4 12 7 69 6 125 -2 111 -18 153 -62 167 -58 18 -100 -17
-114 -96 -9 -53 10 -213 30 -243 14 -23 15 -32 4 -73 -8 -25 -29 -69 -48 -97
-19 -28 -36 -65 -39 -83 -5 -29 -2 -34 31 -49 33 -16 36 -21 36 -59 0 -101 69
-152 217 -162 85 -5 91 -4 177 31 49 20 103 48 121 62 38 29 114 134 134 184
43 112 50 141 51 195 0 132 -89 183 -275 156 -38 -6 -71 -8 -73 -6 -3 2 26 65
64 140 66 133 68 138 69 216 0 69 4 83 20 95 29 20 129 110 197 179 34 33 65
60 69 60 5 0 16 11 25 25 10 14 29 39 45 55 15 17 35 56 44 87 14 49 14 62 3
85 -13 27 -16 28 -86 27 -42 0 -77 -5 -84 -12 -7 -7 -22 -12 -34 -12 -20 0
-48 -13 -198 -94 -38 -20 -71 -35 -73 -32 -3 3 4 18 16 34 24 34 27 63 9 91
-9 15 -8 22 3 34 8 8 26 30 41 48 123 151 133 170 107 196 -9 9 -6 23 11 57
12 25 25 46 30 46 10 0 60 73 60 88 0 17 -71 15 -96 -2z m-534 -1341 c0 -62
-11 -84 -24 -49 -8 20 -8 78 0 98 13 35 24 13 24 -49z m523 -160 c33 -24 32
-82 -2 -159 -62 -137 -142 -213 -281 -268 -116 -46 -219 -4 -220 89 0 23 -4
44 -10 48 -13 8 -2 32 47 96 48 64 87 96 170 140 108 57 256 85 296 54z"/>
<path d="M814 1987 c-6 -7 -18 -44 -28 -82 -9 -39 -24 -97 -32 -130 -13 -49
-55 -143 -122 -272 -10 -17 -74 -181 -85 -214 -3 -9 -1 -22 3 -30 13 -20 35 4
105 111 l60 91 48 -3 c33 -2 47 1 47 10 0 6 4 12 10 12 14 0 210 190 210 204
0 6 13 22 29 36 21 18 27 30 22 44 -7 17 -9 17 -36 -8 -35 -33 -48 -33 -33 -1
10 22 9 29 -10 47 -18 18 -25 20 -44 11 -13 -7 -38 -13 -57 -16 l-33 -4 6 41
c17 102 18 136 6 151 -15 18 -51 19 -66 2z m156 -284 c-1 -15 -94 -76 -124
-82 -22 -5 -32 -13 -34 -29 -2 -12 -8 -22 -14 -22 -6 0 -7 7 -3 18 4 9 11 32
17 50 8 28 13 32 42 32 19 0 44 9 57 20 24 19 59 27 59 13z"/>
</g>
</svg>
