<?xml version="1.0" standalone="no"?>
<!DOCTYPE svg PUBLIC "-//W3C//DTD SVG 20010904//EN"
 "http://www.w3.org/TR/2001/REC-SVG-20010904/DTD/svg10.dtd">
<svg version="1.0" xmlns="http://www.w3.org/2000/svg"
 width="209.000000pt" height="218.000000pt" viewBox="0 0 209.000000 218.000000"
 preserveAspectRatio="xMidYMid meet">
<metadata>
Created by potrace 1.16, written by Peter Selinger 2001-2019
</metadata>
<g transform="translate(0.000000,218.000000) scale(0.100000,-0.100000)"
fill="#000000" stroke="none">
<path d="M1192 2151 c-71 -46 -255 -216 -339 -314 l-33 -38 -31 17 c-17 9 -42
14 -55 11 -28 -5 -33 17 -10 42 23 26 29 66 12 83 -12 12 -26 13 -67 7 -29 -5
-57 -13 -62 -18 -6 -6 -16 -54 -23 -108 -13 -94 -20 -121 -49 -188 -17 -38
-53 -136 -71 -194 -15 -47 -8 -66 18 -56 19 8 62 70 73 105 4 14 20 39 35 55
15 17 36 46 45 65 29 56 56 88 86 101 16 6 29 15 29 20 0 5 7 9 15 9 19 0 19
-11 0 -36 -8 -10 -15 -29 -15 -41 0 -19 5 -23 33 -23 31 0 38 7 99 98 46 68
105 134 194 220 70 67 133 122 141 122 7 0 13 4 13 8 0 10 87 72 100 72 5 0 6
-8 3 -17 -9 -24 -86 -136 -140 -202 -25 -30 -53 -72 -64 -94 -11 -21 -36 -52
-55 -69 -25 -23 -34 -38 -34 -62 0 -36 -13 -51 -100 -109 -56 -37 -140 -119
-140 -137 0 -5 5 -20 12 -34 10 -23 7 -30 -33 -75 -60 -67 -66 -74 -90 -117
-11 -20 -37 -58 -57 -83 -20 -25 -44 -59 -52 -76 -9 -17 -24 -30 -35 -30 -24
0 -38 50 -25 88 5 16 23 44 40 63 37 43 41 84 6 84 -13 0 -34 -8 -47 -19 -13
-10 -34 -21 -47 -25 -29 -10 -72 -67 -72 -97 0 -42 32 -117 70 -160 31 -36 43
-43 72 -43 44 0 61 14 106 83 34 54 179 233 210 261 9 8 25 28 35 43 10 15 26
31 35 34 9 4 45 28 79 55 35 26 68 48 74 48 6 0 23 9 37 21 32 24 190 119 200
119 4 0 27 16 50 35 24 19 53 37 65 41 11 4 50 28 86 54 36 26 82 56 103 65
58 28 76 85 26 85 -11 0 -54 -17 -96 -39 -43 -21 -111 -54 -152 -73 -41 -19
-89 -47 -106 -61 -36 -30 -139 -87 -159 -87 -6 0 -33 -16 -59 -36 -26 -20 -50
-33 -54 -29 -4 4 -1 10 6 12 7 3 36 27 65 54 28 27 70 59 92 70 22 11 63 33
90 49 28 16 60 34 71 39 20 9 77 61 220 201 59 58 82 96 68 110 -12 12 -190
-103 -298 -193 -61 -50 -96 -69 -96 -52 0 5 52 89 90 145 16 24 80 156 80 166
0 2 -39 4 -87 3 -78 0 -93 -3 -131 -28z"/>
<path d="M1323 1452 c-28 -10 -62 -26 -75 -35 -12 -10 -41 -30 -63 -45 -62
-42 -118 -85 -135 -104 -36 -40 -101 -86 -117 -82 -11 3 -37 -14 -70 -45 l-53
-49 -1 -159 c-2 -246 -6 -290 -34 -360 -28 -71 -24 -96 21 -113 34 -13 50 -4
85 50 17 27 51 62 74 79 24 17 56 45 72 61 15 17 65 53 111 81 137 83 258 119
290 87 17 -17 15 -69 -6 -99 -57 -86 -75 -109 -123 -156 -66 -64 -147 -108
-224 -122 -68 -13 -75 -8 -75 52 0 30 -4 37 -20 37 -12 0 -26 -12 -36 -32 -14
-27 -15 -39 -5 -84 7 -28 20 -59 29 -67 30 -28 92 -31 163 -9 114 36 144 53
241 134 65 54 133 176 159 284 11 46 10 56 -7 90 -15 28 -34 46 -68 62 -45 22
-52 23 -124 11 -47 -7 -95 -22 -122 -37 -80 -47 -98 -57 -140 -80 -24 -13 -68
-44 -99 -68 -49 -38 -56 -42 -59 -25 -2 10 4 36 12 56 9 21 16 46 16 56 0 15
7 19 38 19 87 0 135 25 228 118 75 75 195 239 244 332 19 36 19 158 0 170 -23
15 -69 11 -127 -8z m32 -124 c-4 -13 -20 -36 -35 -53 -15 -16 -43 -55 -61 -85
-18 -30 -61 -84 -95 -120 -35 -36 -72 -78 -84 -93 -25 -31 -96 -71 -115 -64
-8 4 -13 26 -13 62 0 49 4 61 31 93 18 20 37 40 44 45 6 4 35 32 65 63 29 30
80 72 113 92 33 19 73 46 88 59 38 31 71 31 62 1z"/>
</g>
</svg>
