<?xml version="1.0" standalone="no"?>
<!DOCTYPE svg PUBLIC "-//W3C//DTD SVG 20010904//EN"
 "http://www.w3.org/TR/2001/REC-SVG-20010904/DTD/svg10.dtd">
<svg version="1.0" xmlns="http://www.w3.org/2000/svg"
 width="207.000000pt" height="212.000000pt" viewBox="0 0 207.000000 212.000000"
 preserveAspectRatio="xMidYMid meet">
<metadata>
Created by potrace 1.16, written by Peter Selinger 2001-2019
</metadata>
<g transform="translate(0.000000,212.000000) scale(0.100000,-0.100000)"
fill="#000000" stroke="none">
<path d="M1082 2108 c-11 -15 -53 -91 -88 -160 -13 -25 -28 -49 -34 -53 -12
-7 -14 -65 -2 -65 5 0 8 -18 8 -40 -1 -34 4 -44 26 -57 21 -14 32 -15 50 -6
13 7 32 14 44 18 21 5 21 4 8 -47 -7 -29 -15 -65 -18 -79 -3 -16 -25 -39 -59
-62 -56 -39 -80 -47 -71 -23 9 25 -14 27 -58 7 -24 -11 -59 -23 -78 -26 -39
-6 -74 -40 -65 -64 3 -8 8 -33 12 -56 5 -39 4 -41 -44 -72 -27 -17 -64 -45
-83 -62 -19 -17 -39 -31 -44 -31 -17 0 -146 -183 -146 -206 0 -62 65 -73 118
-21 18 17 42 47 53 65 11 18 33 41 49 50 16 9 34 28 40 42 6 14 25 37 42 50
17 14 42 35 56 48 27 24 38 27 47 13 3 -6 25 -13 49 -16 33 -5 50 -3 70 10 34
23 33 32 -9 52 -39 19 -39 19 -22 50 10 19 79 73 92 73 11 0 4 -70 -10 -104
-8 -19 -20 -58 -26 -86 -7 -34 -17 -54 -32 -61 -12 -6 -33 -21 -47 -34 -28
-25 -92 -61 -267 -152 -152 -78 -184 -99 -279 -177 -18 -14 -35 -26 -39 -26
-10 0 -98 -63 -112 -80 -7 -8 -23 -34 -35 -58 l-23 -43 24 -20 c36 -30 61 -23
121 33 55 52 136 118 145 118 9 0 95 64 95 71 0 5 19 17 43 28 23 11 61 32 85
46 24 14 91 50 149 80 58 31 111 62 117 70 11 13 73 48 301 165 253 131 309
161 322 172 10 8 17 8 25 0 13 -13 55 1 72 23 6 8 31 25 55 38 58 30 79 74 53
107 -18 22 -19 22 -78 5 -62 -18 -164 -71 -164 -85 0 -5 -17 -14 -37 -21 -21
-6 -66 -28 -101 -48 -168 -96 -299 -157 -311 -145 -3 2 1 15 9 27 29 46 40 75
65 159 14 48 37 100 50 117 19 22 25 40 24 73 -1 23 6 75 15 113 10 39 15 84
12 102 -5 32 13 58 97 147 36 38 34 80 -3 84 -19 2 -40 -10 -80 -47 -30 -28
-58 -50 -62 -51 -13 0 -9 22 6 39 8 9 17 35 21 59 l7 42 -70 0 c-43 0 -73 -5
-80 -12z m-557 -1228 c-3 -5 -10 -10 -16 -10 -5 0 -9 5 -9 10 0 6 7 10 16 10
8 0 12 -4 9 -10z"/>
<path d="M632 1817 c-12 -13 -29 -54 -38 -93 -18 -75 -112 -331 -149 -405 -16
-30 -20 -50 -14 -60 13 -20 72 47 122 138 21 40 43 73 48 73 10 0 54 91 65
133 8 34 42 58 83 59 17 1 36 7 42 15 6 7 20 13 30 13 13 0 19 7 19 23 0 33
-18 47 -60 47 -41 0 -60 14 -60 46 0 39 -55 46 -88 11z"/>
<path d="M810 1569 c0 -5 5 -7 10 -4 6 3 10 8 10 11 0 2 -4 4 -10 4 -5 0 -10
-5 -10 -11z"/>
<path d="M1358 1158 c-16 -5 -28 -13 -28 -18 0 -5 -13 -11 -28 -15 -16 -3 -44
-21 -62 -40 -19 -19 -40 -35 -46 -35 -7 0 -34 -18 -59 -40 -26 -22 -59 -47
-73 -54 -48 -25 -140 -119 -147 -151 -4 -16 -8 -61 -10 -100 -5 -89 5 -104 75
-110 29 -2 55 -7 59 -10 3 -4 6 -49 5 -101 0 -80 2 -94 16 -94 10 0 22 18 34
50 10 28 21 50 25 50 4 0 22 -18 39 -39 18 -22 41 -43 52 -46 29 -9 108 25
115 50 3 11 10 100 16 198 10 160 14 187 41 260 34 92 53 210 37 238 -11 21
-21 22 -61 7z m-97 -264 c-14 -62 -21 -133 -25 -281 -2 -61 -7 -116 -10 -122
-10 -15 -60 24 -81 63 -12 21 -16 44 -12 67 24 148 27 194 18 221 -15 43 15
86 84 122 28 15 30 15 34 -1 2 -9 -2 -40 -8 -69z m-225 -180 c-5 -12 -9 -12
-26 -2 -24 16 -25 31 -3 54 16 16 18 15 26 -10 5 -15 6 -33 3 -42z"/>
<path d="M708 692 c-41 -25 -41 -73 -2 -192 33 -100 34 -102 80 -98 34 3 39 6
42 31 2 15 -4 52 -13 83 -9 31 -16 79 -17 106 0 35 -5 55 -19 69 -23 23 -36
23 -71 1z"/>
<path d="M1521 382 c-5 -10 -35 -31 -65 -46 -61 -31 -70 -52 -40 -94 20 -29
68 -29 110 0 53 37 69 92 38 136 -18 27 -30 28 -43 4z"/>
<path d="M874 327 c-29 -25 -54 -82 -54 -125 0 -26 33 -45 63 -36 67 21 101
85 50 92 -18 3 -22 11 -25 49 l-3 46 -31 -26z"/>
</g>
</svg>
