<?xml version="1.0" standalone="no"?>
<!DOCTYPE svg PUBLIC "-//W3C//DTD SVG 20010904//EN"
 "http://www.w3.org/TR/2001/REC-SVG-20010904/DTD/svg10.dtd">
<svg version="1.0" xmlns="http://www.w3.org/2000/svg"
 width="209.000000pt" height="212.000000pt" viewBox="0 0 209.000000 212.000000"
 preserveAspectRatio="xMidYMid meet">
<metadata>
Created by potrace 1.16, written by Peter Selinger 2001-2019
</metadata>
<g transform="translate(0.000000,212.000000) scale(0.100000,-0.100000)"
fill="#000000" stroke="none">
<path d="M980 1943 c-37 -25 -37 -27 -45 -147 -8 -145 -14 -158 -73 -175 -110
-32 -202 -90 -202 -129 0 -25 73 -66 106 -58 14 4 24 14 24 25 0 18 83 91 103
91 6 0 7 -43 3 -117 -4 -65 -7 -130 -6 -144 0 -46 -86 -115 -310 -245 -58 -34
-118 -73 -133 -88 -16 -14 -34 -26 -40 -27 -7 0 -43 -20 -82 -45 -38 -24 -83
-52 -99 -61 -61 -38 -111 -80 -126 -107 -15 -27 -14 -28 20 -57 39 -33 52 -36
71 -12 8 9 40 28 71 43 31 15 70 41 87 58 17 17 64 52 104 77 39 26 83 56 97
66 14 10 39 25 55 33 17 7 39 23 49 35 11 11 24 21 30 21 11 0 69 37 129 83
21 16 41 27 44 24 9 -10 -15 -215 -29 -240 -11 -22 -61 -89 -85 -115 -7 -7
-13 -16 -13 -20 0 -4 -14 -22 -31 -40 -17 -18 -47 -54 -66 -80 -20 -26 -43
-54 -53 -62 -9 -8 -25 -29 -35 -47 -15 -26 -16 -35 -6 -47 11 -13 17 -13 51 5
40 21 120 100 120 119 0 6 12 16 28 23 15 6 35 21 44 32 13 15 17 17 18 5 7
-191 19 -277 41 -291 8 -5 26 -9 40 -9 45 0 79 98 43 125 -13 9 -16 30 -15
116 2 197 21 257 106 347 55 58 67 88 40 98 -15 6 -20 5 -65 -21 -13 -8 -26
-13 -28 -11 -8 9 12 139 24 150 7 7 16 27 21 45 8 31 41 57 167 128 27 16 76
48 110 73 33 26 81 56 106 69 25 13 68 39 96 57 28 19 58 34 67 34 22 0 29 14
21 45 -15 59 -117 20 -394 -153 -30 -19 -66 -42 -80 -51 -25 -18 -80 -36 -80
-27 0 10 92 136 108 148 26 20 55 66 96 152 63 135 50 214 -29 172 -27 -15
-36 -27 -41 -55 -3 -20 -11 -49 -18 -66 -7 -16 -19 -46 -27 -65 -7 -19 -27
-56 -44 -82 -16 -25 -35 -55 -42 -65 -10 -15 -12 -10 -12 32 0 28 5 73 10 100
5 28 9 63 9 79 0 16 9 60 21 98 17 54 28 72 46 79 27 10 28 37 3 49 -8 4 -30
14 -48 23 -41 21 -42 21 -72 0z"/>
<path d="M1120 832 c0 -68 0 -69 43 -109 23 -21 47 -47 52 -56 22 -37 268 -78
297 -49 6 6 11 31 10 54 -3 59 -21 71 -96 64 -54 -5 -66 -3 -120 25 -34 18
-81 55 -109 85 -66 73 -77 71 -77 -14z"/>
</g>
</svg>
