<?xml version="1.0" standalone="no"?>
<!DOCTYPE svg PUBLIC "-//W3C//DTD SVG 20010904//EN"
 "http://www.w3.org/TR/2001/REC-SVG-20010904/DTD/svg10.dtd">
<svg version="1.0" xmlns="http://www.w3.org/2000/svg"
 width="208.000000pt" height="211.000000pt" viewBox="0 0 208.000000 211.000000"
 preserveAspectRatio="xMidYMid meet">
<metadata>
Created by potrace 1.16, written by Peter Selinger 2001-2019
</metadata>
<g transform="translate(0.000000,211.000000) scale(0.100000,-0.100000)"
fill="#000000" stroke="none">
<path d="M949 1728 c-33 -28 -89 -109 -113 -162 -14 -32 -42 -75 -63 -97 l-38
-40 -6 68 c-5 48 -3 72 6 83 7 8 16 33 19 55 6 38 5 41 -29 58 -27 13 -41 15
-56 7 -41 -23 -48 -49 -51 -200 -3 -140 -4 -145 -25 -148 -30 -4 -47 29 -28
54 35 47 1 73 -46 35 -21 -17 -26 -17 -45 -4 -20 13 -25 12 -44 -7 -26 -26
-23 -70 5 -85 11 -6 33 -22 49 -37 15 -15 46 -31 69 -35 22 -5 42 -13 44 -19
2 -6 -16 -33 -40 -60 -24 -27 -56 -67 -71 -89 -34 -50 -123 -141 -174 -178
-21 -15 -75 -45 -121 -66 -126 -59 -159 -96 -120 -137 23 -24 89 -35 89 -14 0
6 6 10 13 10 7 0 34 13 60 29 25 17 63 35 84 40 21 6 74 29 117 51 44 22 82
38 84 35 12 -12 -35 -99 -70 -128 -67 -56 -227 -211 -253 -247 -30 -40 -32
-75 -6 -90 20 -10 58 23 201 176 55 58 61 46 26 -57 -62 -185 -101 -369 -82
-381 32 -21 59 -3 70 47 4 17 20 59 35 95 16 36 35 88 44 115 8 28 21 66 28
85 7 19 19 54 27 78 17 49 26 49 103 2 38 -22 53 -26 85 -21 50 8 56 33 13 54
-18 8 -59 37 -90 64 -66 55 -70 69 -38 153 47 121 59 136 162 202 53 35 121
81 152 102 53 37 57 38 94 27 44 -13 91 -1 91 22 0 8 15 25 34 38 19 13 67 51
107 84 39 33 97 79 128 102 31 23 75 56 99 74 40 30 52 52 33 63 -4 3 -37 -9
-72 -26 -35 -18 -91 -45 -124 -61 -33 -16 -63 -35 -67 -41 -23 -36 -26 47 -6
166 9 53 8 70 -2 83 -16 19 -60 20 -86 1 -17 -13 -20 -31 -24 -169 l-5 -155
-55 -44 c-48 -39 -354 -198 -380 -198 -16 0 -12 29 10 69 10 20 24 55 30 79 6
23 15 42 21 42 5 0 14 11 19 25 5 14 29 46 52 72 24 25 51 54 61 64 9 11 17
21 17 23 0 7 61 98 81 121 26 30 59 93 59 113 0 39 -58 57 -91 30z m-399 -713
c-13 -16 -40 -20 -40 -7 0 5 10 19 22 32 20 22 23 22 26 7 2 -10 -2 -24 -8
-32z"/>
<path d="M1255 1060 c-22 -5 -64 -14 -93 -20 -59 -12 -171 -63 -183 -82 -14
-21 -10 -37 11 -58 23 -23 72 -26 90 -5 6 8 37 21 68 30 32 9 74 22 95 30 48
19 77 19 77 0 0 -28 -68 -149 -112 -200 -67 -78 -68 -79 -163 -178 -49 -51
-105 -103 -122 -115 -36 -26 -43 -63 -18 -96 16 -20 67 -25 88 -7 7 5 55 23
107 40 52 17 102 35 110 40 9 5 31 12 50 16 19 4 55 16 80 27 25 11 92 30 150
43 58 13 113 26 122 30 11 4 24 -2 39 -19 28 -32 43 -32 114 -4 44 18 55 28
55 46 0 12 -5 22 -12 22 -6 0 -4 7 5 18 10 10 17 26 17 34 0 36 -124 38 -241
3 -46 -13 -97 -25 -114 -25 -16 0 -50 -6 -75 -14 -25 -8 -70 -22 -100 -30 -30
-8 -73 -21 -95 -30 -49 -18 -56 -5 -18 33 32 32 106 119 146 172 31 41 87 189
87 229 0 64 -66 91 -165 70z"/>
</g>
</svg>
