<?xml version="1.0" standalone="no"?>
<!DOCTYPE svg PUBLIC "-//W3C//DTD SVG 20010904//EN"
 "http://www.w3.org/TR/2001/REC-SVG-20010904/DTD/svg10.dtd">
<svg version="1.0" xmlns="http://www.w3.org/2000/svg"
 width="209.000000pt" height="206.000000pt" viewBox="0 0 209.000000 206.000000"
 preserveAspectRatio="xMidYMid meet">
<metadata>
Created by potrace 1.16, written by Peter Selinger 2001-2019
</metadata>
<g transform="translate(0.000000,206.000000) scale(0.100000,-0.100000)"
fill="#000000" stroke="none">
<path d="M1105 1996 c-82 -12 -129 -35 -141 -69 -8 -24 22 -57 53 -57 25 0
136 24 186 39 33 11 38 -12 7 -31 -23 -15 -89 -106 -114 -158 -9 -19 -23 -44
-31 -55 -15 -18 -17 -18 -59 24 -40 40 -48 43 -80 37 -30 -6 -37 -12 -46 -44
-13 -50 -13 -62 4 -56 24 9 26 -12 3 -43 -47 -65 -177 -220 -211 -252 -44 -43
-48 -81 -11 -105 27 -18 29 -24 16 -45 -8 -12 -12 -12 -25 -2 -8 7 -19 10 -24
7 -12 -7 -24 -80 -16 -100 8 -20 46 -20 85 -1 28 15 30 15 39 -9 5 -14 18 -30
30 -36 11 -6 20 -15 20 -20 0 -21 -230 -245 -295 -287 -38 -26 -83 -55 -100
-67 -129 -89 -156 -106 -163 -106 -19 0 -82 -75 -82 -96 0 -58 73 -72 130 -26
19 16 53 39 75 52 22 13 60 40 85 60 25 20 72 54 105 76 33 23 81 55 106 72
26 18 54 32 62 32 8 0 20 7 27 15 7 8 17 15 22 15 12 0 67 26 103 49 17 11 40
20 53 20 21 1 22 -3 24 -66 3 -156 -13 -397 -28 -412 -3 -3 -14 4 -25 17 -21
26 -109 62 -151 62 -45 0 -156 -50 -239 -107 -75 -51 -138 -123 -160 -180 -21
-55 46 -98 84 -55 20 22 22 39 5 45 -8 2 11 29 47 64 66 67 214 153 262 153
47 0 99 -43 118 -97 9 -27 21 -58 26 -71 5 -13 9 -42 9 -66 0 -59 19 -84 57
-71 42 16 60 63 68 190 4 60 11 131 15 156 5 26 12 116 15 200 12 325 11 324
176 380 35 12 68 25 73 30 6 5 18 9 27 9 23 0 39 22 33 47 -8 30 -51 35 -100
13 -23 -10 -57 -21 -75 -25 -19 -4 -83 -31 -144 -60 -60 -29 -131 -58 -158
-65 -26 -7 -50 -17 -53 -21 -7 -12 -24 -11 -24 1 0 5 22 34 49 62 28 29 58 61
67 72 21 24 31 101 15 120 -10 11 -9 33 0 98 13 86 40 138 103 197 l26 24 24
-26 c43 -46 86 -30 86 31 0 19 -9 45 -20 59 -23 30 -25 46 -7 65 7 7 30 45 51
83 21 39 47 80 59 92 11 12 25 31 31 41 6 11 19 31 30 45 25 37 39 103 26 127
-9 17 -21 20 -83 19 -40 -1 -108 -6 -152 -13z m-275 -1146 c0 -5 -4 -10 -10
-10 -5 0 -10 5 -10 10 0 6 5 10 10 10 6 0 10 -4 10 -10z"/>
<path d="M656 1863 c-2 -10 -5 -61 -5 -113 -1 -80 -6 -108 -32 -180 -17 -47
-33 -94 -36 -105 -3 -11 -14 -39 -24 -63 -29 -65 -35 -102 -16 -102 14 0 57
49 57 64 0 4 18 35 40 68 22 34 40 70 40 80 0 10 9 27 20 38 32 32 35 43 70
240 11 64 -8 90 -65 90 -33 0 -45 -4 -49 -17z"/>
<path d="M365 1820 c-31 -12 -45 -34 -45 -71 1 -48 -16 -239 -30 -334 -7 -44
-13 -129 -14 -188 -1 -97 1 -110 18 -123 17 -12 23 -12 40 0 17 10 24 31 33
97 15 107 43 394 43 435 0 17 7 37 15 44 18 15 19 55 4 99 -13 37 -36 52 -64
41z m13 -78 c2 -7 -3 -12 -12 -12 -9 0 -16 7 -16 16 0 17 22 14 28 -4z m-43
-372 c3 -5 -1 -10 -10 -10 -9 0 -13 5 -10 10 3 6 8 10 10 10 2 0 7 -4 10 -10z"/>
<path d="M1336 433 c-24 -12 -45 -14 -105 -8 -95 9 -163 7 -175 -5 -6 -6 -3
-17 7 -28 9 -10 17 -23 17 -29 0 -57 185 -59 289 -4 27 15 44 47 36 71 -8 24
-30 25 -69 3z"/>
</g>
</svg>
