<?xml version="1.0" standalone="no"?>
<!DOCTYPE svg PUBLIC "-//W3C//DTD SVG 20010904//EN"
 "http://www.w3.org/TR/2001/REC-SVG-20010904/DTD/svg10.dtd">
<svg version="1.0" xmlns="http://www.w3.org/2000/svg"
 width="208.000000pt" height="211.000000pt" viewBox="0 0 208.000000 211.000000"
 preserveAspectRatio="xMidYMid meet">
<metadata>
Created by potrace 1.16, written by Peter Selinger 2001-2019
</metadata>
<g transform="translate(0.000000,211.000000) scale(0.100000,-0.100000)"
fill="#000000" stroke="none">
<path d="M781 1901 c-13 -13 -20 -40 -25 -92 -11 -126 -34 -211 -87 -325 -16
-34 -29 -68 -29 -77 0 -8 -15 -38 -32 -66 -18 -28 -53 -83 -78 -122 -25 -39
-64 -96 -87 -127 -24 -30 -43 -59 -43 -65 0 -6 -9 -20 -19 -31 -19 -20 -25
-38 -22 -63 0 -6 17 -17 36 -23 30 -10 40 -9 60 4 14 9 25 20 25 24 0 4 25 23
56 42 30 19 73 50 96 68 22 18 49 37 59 43 32 17 23 -34 -13 -78 -18 -22 -53
-72 -78 -112 -25 -40 -62 -92 -82 -116 -27 -30 -38 -52 -38 -74 0 -63 75 -58
175 11 22 15 53 30 70 34 l29 7 -17 -26 c-9 -14 -17 -40 -17 -57 0 -39 -28
-95 -74 -145 -20 -22 -36 -45 -36 -52 0 -7 -49 -56 -110 -110 -106 -95 -122
-118 -102 -149 4 -6 21 -15 38 -18 29 -6 38 -1 115 71 46 43 102 94 124 113
22 19 63 58 91 86 28 28 56 53 61 55 6 2 14 14 17 27 9 29 -11 29 -65 1 -23
-11 -43 -18 -46 -15 -3 3 6 19 21 36 14 17 26 35 26 38 0 4 34 32 76 62 42 30
91 67 109 83 18 15 36 27 40 27 3 0 34 20 68 44 34 24 81 55 103 68 62 35 128
79 139 93 6 6 20 15 33 19 l23 8 -6 -129 c-3 -70 -9 -175 -14 -233 -4 -58 -9
-177 -10 -265 -2 -157 -8 -185 -37 -185 -21 0 -17 -28 7 -40 11 -7 25 -24 31
-40 6 -20 19 -31 39 -35 62 -14 71 19 69 257 -1 235 28 678 46 699 8 8 14 29
14 45 0 36 29 68 133 148 42 33 77 63 77 67 0 5 13 15 30 24 40 21 54 49 38
75 -7 11 -19 20 -26 20 -13 0 -64 -34 -189 -127 l-73 -54 0 78 c1 82 1 82 64
127 37 26 3 74 -77 108 -22 9 -59 -7 -76 -33 -8 -13 -14 -82 -18 -193 l-6
-173 -46 -28 c-25 -16 -71 -47 -101 -70 -64 -47 -144 -95 -159 -95 -15 0 18
64 61 121 19 24 43 63 55 86 35 67 47 86 71 116 12 16 22 37 22 47 0 10 4 20
8 22 25 10 98 168 121 263 5 22 19 73 31 114 29 101 25 124 -22 135 -26 7 -41
6 -51 -3 -8 -6 -25 -55 -37 -109 -12 -53 -26 -107 -31 -120 -5 -13 -9 -31 -9
-40 0 -17 -48 -142 -69 -178 -6 -10 -25 -57 -42 -104 -18 -47 -40 -97 -50
-111 -10 -15 -23 -37 -28 -50 -5 -13 -45 -82 -90 -153 -70 -113 -88 -134 -131
-159 l-50 -29 -45 22 c-29 14 -54 20 -70 16 -32 -8 -31 0 5 49 79 110 104 178
98 276 l-3 54 -40 3 c-28 3 -53 -3 -82 -19 -23 -13 -45 -20 -49 -17 -3 4 9 33
28 65 19 32 44 83 57 113 12 30 31 73 41 95 44 95 101 359 91 415 -7 34 -60
41 -90 11z"/>
</g>
</svg>
