<?xml version="1.0" standalone="no"?>
<!DOCTYPE svg PUBLIC "-//W3C//DTD SVG 20010904//EN"
 "http://www.w3.org/TR/2001/REC-SVG-20010904/DTD/svg10.dtd">
<svg version="1.0" xmlns="http://www.w3.org/2000/svg"
 width="207.000000pt" height="214.000000pt" viewBox="0 0 207.000000 214.000000"
 preserveAspectRatio="xMidYMid meet">
<metadata>
Created by potrace 1.16, written by Peter Selinger 2001-2019
</metadata>
<g transform="translate(0.000000,214.000000) scale(0.100000,-0.100000)"
fill="#000000" stroke="none">
<path d="M1549 1710 c-35 -28 -82 -65 -104 -84 -47 -38 -122 -83 -128 -76 -3
3 -1 29 4 58 9 61 -1 97 -29 106 -28 9 -71 -10 -81 -36 -16 -40 -41 -172 -41
-210 0 -21 -6 -42 -12 -47 -58 -48 -108 -83 -133 -95 -16 -8 -50 -38 -74 -66
-26 -31 -49 -49 -57 -46 -22 8 -61 -11 -79 -38 -16 -24 -16 -29 1 -71 14 -39
16 -64 10 -173 -8 -138 -21 -270 -31 -317 -4 -16 -11 -54 -16 -82 -10 -50 -13
-54 -57 -73 -26 -12 -60 -34 -77 -50 -41 -39 -147 -112 -220 -151 -67 -36
-121 -82 -129 -112 -3 -13 5 -30 25 -50 28 -27 31 -28 48 -13 10 9 21 16 25
16 13 0 92 55 141 100 28 25 66 59 85 75 19 17 56 54 82 84 l47 54 19 -23 19
-23 36 47 c27 35 41 69 56 134 22 94 29 146 69 506 6 55 10 61 42 79 19 10 54
40 76 65 23 26 45 44 48 41 4 -4 2 -35 -4 -70 -6 -35 -15 -112 -20 -170 -5
-58 -20 -153 -33 -210 -66 -280 -69 -312 -32 -317 18 -2 24 8 43 71 12 40 22
79 22 87 0 8 7 24 15 34 8 11 15 31 15 45 0 14 7 34 15 45 17 22 49 167 65
296 18 140 45 248 79 310 25 45 44 63 101 99 38 24 70 47 70 51 0 8 65 50 76
50 3 0 3 -8 0 -17 -3 -10 -10 -67 -16 -128 -6 -60 -17 -141 -25 -180 -7 -38
-19 -115 -25 -170 -19 -161 -46 -223 -70 -161 -8 22 -15 26 -52 26 -31 -1 -51
-7 -70 -25 -35 -30 -35 -43 -1 -47 20 -2 29 -10 35 -33 4 -17 23 -46 43 -65
19 -19 35 -44 35 -56 0 -12 7 -27 15 -34 25 -21 17 -240 -9 -240 -21 0 -92 77
-116 126 -14 27 -28 51 -32 52 -5 2 -8 9 -8 15 0 7 -11 26 -24 42 -23 28 -25
29 -32 11 -10 -25 18 -133 55 -211 18 -39 44 -74 75 -100 26 -22 66 -59 90
-83 46 -47 79 -54 97 -20 6 12 16 106 21 212 5 105 14 199 19 208 12 24 11
122 -1 134 -8 8 -5 39 9 105 23 111 59 339 72 459 6 47 14 114 20 150 18 126
21 187 10 209 -7 11 -15 21 -20 21 -4 0 -37 -23 -72 -50z m-13 -457 c-10 -10
-19 5 -10 18 6 11 8 11 12 0 2 -7 1 -15 -2 -18z"/>
<path d="M703 1633 c-30 -6 -66 -66 -232 -388 -20 -38 -50 -90 -67 -115 -16
-25 -39 -62 -49 -83 -22 -42 -58 -82 -99 -110 -33 -22 -33 -51 -1 -82 32 -33
55 -31 96 5 63 55 112 90 125 90 7 0 26 11 42 25 35 30 65 34 55 8 -3 -10 -29
-52 -58 -93 -28 -41 -64 -97 -80 -125 -16 -27 -44 -66 -62 -85 -36 -39 -83
-106 -83 -120 0 -4 -18 -27 -40 -50 -22 -23 -40 -47 -40 -54 0 -23 30 -55 59
-61 25 -5 36 0 77 37 74 66 126 120 154 158 49 67 218 230 238 230 18 0 52 24
52 36 0 3 -4 13 -10 23 -14 27 -64 34 -105 14 -19 -9 -37 -14 -41 -11 -3 3 5
28 17 55 16 32 23 67 23 108 l1 60 -37 9 c-28 7 -47 5 -79 -7 -49 -19 -59 -15
-39 16 7 12 24 42 36 67 12 25 38 67 58 95 20 27 36 54 36 58 0 5 13 27 29 50
15 23 32 53 36 66 4 13 20 44 36 69 16 25 29 53 29 62 0 18 -31 51 -46 49 -5
-1 -19 -4 -31 -6z"/>
</g>
</svg>
