<?xml version="1.0" standalone="no"?>
<!DOCTYPE svg PUBLIC "-//W3C//DTD SVG 20010904//EN"
 "http://www.w3.org/TR/2001/REC-SVG-20010904/DTD/svg10.dtd">
<svg version="1.0" xmlns="http://www.w3.org/2000/svg"
 width="208.000000pt" height="215.000000pt" viewBox="0 0 208.000000 215.000000"
 preserveAspectRatio="xMidYMid meet">
<metadata>
Created by potrace 1.16, written by Peter Selinger 2001-2019
</metadata>
<g transform="translate(0.000000,215.000000) scale(0.100000,-0.100000)"
fill="#000000" stroke="none">
<path d="M1182 2133 c-14 -27 -30 -106 -47 -233 -9 -63 -20 -131 -25 -150 -15
-58 -70 -343 -70 -367 0 -15 -27 -45 -82 -95 -128 -114 -158 -148 -158 -179 0
-29 15 -39 58 -39 20 0 38 14 72 55 25 30 53 58 62 61 9 3 36 26 60 52 24 27
72 65 108 87 36 21 76 50 90 63 14 13 49 40 78 58 78 50 91 45 47 -20 -14 -20
-25 -43 -25 -51 0 -7 -7 -21 -15 -29 -9 -8 -27 -41 -41 -73 -65 -151 -188
-400 -208 -421 -10 -10 -18 -5 -42 25 -17 21 -40 54 -52 74 -43 71 -75 82
-126 43 -18 -13 -19 -17 -7 -51 8 -20 25 -48 38 -62 14 -14 41 -50 60 -79 19
-29 41 -56 48 -58 27 -11 26 -43 -4 -101 -16 -32 -37 -74 -46 -93 -18 -41 -67
-126 -77 -136 -4 -4 -14 -2 -21 4 -10 9 -18 8 -33 -2 -28 -21 -9 -69 31 -77
63 -12 149 62 204 177 52 108 47 107 130 26 101 -97 117 -113 194 -193 62 -63
118 -103 211 -151 18 -9 38 -23 45 -32 8 -9 19 -16 25 -16 6 0 49 -23 96 -50
47 -28 93 -50 102 -50 27 0 46 40 50 105 3 57 2 60 -21 63 -13 2 -28 -1 -34
-7 -6 -6 -19 -11 -29 -11 -22 0 -144 64 -174 91 -11 11 -24 19 -28 19 -58 0
-456 391 -456 448 0 3 29 65 64 137 35 71 100 204 144 295 92 186 139 264 225
365 71 84 89 118 85 153 -5 45 -45 41 -135 -14 -43 -26 -99 -62 -124 -80 -26
-19 -50 -34 -54 -34 -4 0 -30 -16 -56 -35 -27 -19 -54 -35 -60 -35 -10 0 -107
-71 -153 -112 -11 -10 -23 -18 -28 -18 -11 0 -10 17 1 25 5 3 15 22 21 43 7
20 19 53 27 72 8 19 18 44 23 55 50 132 52 141 95 362 8 46 23 102 33 125 10
24 16 53 14 66 -3 19 -9 22 -52 22 -37 0 -52 -4 -58 -17z m63 -1553 c3 -5 -1
-10 -9 -10 -9 0 -16 5 -16 10 0 6 4 10 9 10 6 0 13 -4 16 -10z m-265 -99 c0
-12 -20 -25 -27 -18 -7 7 6 27 18 27 5 0 9 -4 9 -9z"/>
<path d="M386 1701 c-19 -7 -75 -152 -76 -197 0 -19 -30 -100 -63 -174 -9 -19
-28 -66 -43 -105 -15 -38 -46 -112 -70 -163 -54 -114 -56 -137 -11 -158 37
-18 34 -19 158 74 40 31 130 82 144 82 10 0 5 -49 -7 -77 -7 -15 -39 -68 -70
-117 -32 -48 -58 -96 -58 -106 0 -20 -58 -120 -70 -120 -9 0 -30 -47 -30 -69
0 -21 26 -46 57 -55 17 -6 27 1 51 36 27 39 95 111 154 163 29 25 75 50 110
58 31 8 45 41 27 63 -10 12 -24 14 -66 9 -59 -7 -62 -3 -39 48 32 75 36 91 42
155 5 58 4 70 -13 91 -30 37 -100 34 -177 -7 -33 -18 -62 -30 -64 -27 -2 2 3
26 11 52 9 26 21 68 28 93 7 25 26 69 41 98 15 29 28 57 28 63 0 6 11 34 24
62 27 58 55 137 63 180 9 47 -27 69 -81 48z"/>
<path d="M621 608 c-32 -29 -87 -75 -121 -103 -34 -27 -77 -62 -95 -77 -18
-16 -36 -28 -39 -28 -4 0 -25 -14 -47 -32 -53 -43 -54 -86 -2 -115 32 -18 51
-16 63 7 6 11 17 20 25 20 9 0 25 12 38 26 12 15 37 41 55 57 17 17 32 34 32
39 0 10 31 46 89 105 18 19 44 50 57 69 24 35 32 84 14 84 -6 0 -37 -24 -69
-52z"/>
</g>
</svg>
