<?xml version="1.0" standalone="no"?>
<!DOCTYPE svg PUBLIC "-//W3C//DTD SVG 20010904//EN"
 "http://www.w3.org/TR/2001/REC-SVG-20010904/DTD/svg10.dtd">
<svg version="1.0" xmlns="http://www.w3.org/2000/svg"
 width="209.000000pt" height="216.000000pt" viewBox="0 0 209.000000 216.000000"
 preserveAspectRatio="xMidYMid meet">
<metadata>
Created by potrace 1.16, written by Peter Selinger 2001-2019
</metadata>
<g transform="translate(0.000000,216.000000) scale(0.100000,-0.100000)"
fill="#000000" stroke="none">
<path d="M1267 2003 c-4 -3 -7 -16 -7 -28 0 -12 -8 -51 -19 -86 -10 -35 -26
-100 -36 -144 -9 -44 -31 -118 -47 -165 -38 -107 -42 -126 -30 -134 19 -12
132 197 132 245 0 16 4 29 9 29 4 0 14 21 21 48 8 26 26 76 42 110 30 69 35
101 16 120 -13 13 -70 17 -81 5z"/>
<path d="M1500 1680 c-19 -17 -37 -30 -41 -30 -25 0 -197 -132 -230 -177 -13
-17 -34 -36 -47 -42 -33 -16 -189 -168 -214 -210 -12 -20 -37 -54 -56 -76 -28
-34 -32 -45 -27 -75 3 -19 15 -47 26 -62 10 -15 19 -33 19 -39 0 -7 16 -37 36
-67 20 -30 37 -65 37 -78 0 -14 -15 -47 -32 -75 -17 -28 -31 -53 -31 -55 0
-11 -143 -247 -160 -264 -10 -10 -30 -38 -44 -63 -15 -25 -33 -51 -41 -57 -20
-17 -19 -66 1 -74 24 -9 49 9 99 74 25 33 52 63 59 67 14 9 96 118 96 129 0 3
14 27 31 52 17 25 35 55 40 66 20 44 46 81 60 84 8 1 25 -14 39 -35 14 -20 44
-59 68 -87 23 -27 42 -56 42 -63 0 -16 49 -64 100 -99 19 -13 51 -36 72 -51
20 -15 82 -63 138 -105 55 -42 125 -89 155 -104 30 -15 71 -43 91 -61 21 -18
45 -33 55 -33 24 0 47 41 44 79 -2 36 -14 51 -65 78 -19 10 -46 26 -60 35 -28
18 -96 57 -152 88 -21 11 -38 25 -38 30 0 5 -17 21 -37 35 -21 14 -54 36 -73
49 -67 45 -230 217 -230 243 0 4 -9 16 -19 27 -10 12 -29 44 -41 73 l-22 52
45 78 c24 43 47 88 51 100 4 11 28 50 54 85 26 35 65 91 87 123 22 33 55 80
74 105 18 25 41 61 49 80 9 19 22 42 28 50 27 34 82 148 85 175 5 42 -7 55
-49 55 -26 -1 -47 -10 -72 -30z m-77 -181 c-9 -19 -32 -55 -52 -80 -39 -51
-79 -114 -126 -199 -44 -80 -153 -248 -167 -256 -11 -7 -39 42 -49 87 -15 67
14 113 178 276 79 79 161 154 183 168 22 14 40 30 40 37 0 6 2 9 5 6 3 -2 -2
-20 -12 -39z m77 32 c0 -5 -7 -14 -15 -21 -12 -10 -15 -10 -15 2 0 8 3 18 7
21 9 10 23 9 23 -2z m-420 -255 c0 -3 -4 -8 -10 -11 -5 -3 -10 -1 -10 4 0 6 5
11 10 11 6 0 10 -2 10 -4z m-40 -350 c0 -3 -4 -8 -10 -11 -5 -3 -10 -1 -10 4
0 6 5 11 10 11 6 0 10 -2 10 -4z m660 -676 c0 -5 -2 -10 -4 -10 -3 0 -8 5 -11
10 -3 6 -1 10 4 10 6 0 11 -4 11 -10z"/>
<path d="M812 1586 c-35 -19 -118 -169 -153 -277 -25 -75 -80 -174 -145 -262
-27 -36 -62 -86 -79 -112 -16 -27 -38 -60 -48 -75 -21 -33 -14 -56 23 -75 30
-16 35 -14 125 59 71 58 65 1 -15 -130 -21 -35 -42 -74 -46 -86 -7 -25 -53
-95 -91 -141 -29 -36 -29 -58 0 -85 31 -30 53 -28 96 8 20 17 78 65 130 108
51 42 105 86 119 98 57 47 -16 75 -85 33 -19 -12 -36 -19 -39 -16 -3 3 3 22
14 44 61 118 79 251 42 291 -12 12 -27 22 -35 22 -21 0 -18 19 8 54 13 17 52
87 86 156 70 142 132 259 155 292 19 27 20 67 2 91 -16 20 -32 21 -64 3z"/>
<path d="M651 460 c-13 -11 -29 -20 -37 -20 -7 0 -23 -13 -34 -28 -12 -16 -43
-42 -71 -58 -27 -16 -51 -37 -54 -46 -4 -9 -19 -28 -34 -41 -32 -26 -45 -56
-33 -74 12 -19 61 -34 80 -24 23 12 101 100 115 128 5 13 19 25 29 29 11 3 27
22 36 42 9 21 25 47 35 59 11 12 17 29 14 37 -8 21 -17 20 -46 -4z"/>
</g>
</svg>
