<?xml version="1.0" standalone="no"?>
<!DOCTYPE svg PUBLIC "-//W3C//DTD SVG 20010904//EN"
 "http://www.w3.org/TR/2001/REC-SVG-20010904/DTD/svg10.dtd">
<svg version="1.0" xmlns="http://www.w3.org/2000/svg"
 width="209.000000pt" height="216.000000pt" viewBox="0 0 209.000000 216.000000"
 preserveAspectRatio="xMidYMid meet">
<metadata>
Created by potrace 1.16, written by Peter Selinger 2001-2019
</metadata>
<g transform="translate(0.000000,216.000000) scale(0.100000,-0.100000)"
fill="#000000" stroke="none">
<path d="M1030 2005 c-7 -8 -10 -29 -7 -47 3 -18 12 -80 21 -138 8 -58 19
-119 24 -136 5 -17 13 -58 17 -92 8 -69 19 -58 -98 -102 -66 -26 -85 -50 -67
-86 7 -12 25 -28 41 -34 24 -10 34 -8 78 16 28 15 53 25 56 22 3 -3 8 -27 11
-54 6 -47 4 -52 -27 -82 -48 -47 -128 -114 -166 -141 -38 -26 -41 -46 -13 -80
28 -32 56 -30 122 13 86 54 89 52 86 -51 l-3 -88 -50 -27 c-27 -15 -59 -25
-69 -23 -12 3 -36 -9 -63 -31 -23 -19 -67 -46 -97 -60 -30 -13 -60 -31 -66
-39 -7 -8 -18 -15 -26 -15 -18 0 -26 -33 -15 -63 13 -33 78 -50 92 -24 5 8 32
23 59 32 27 9 52 21 56 26 3 5 22 18 42 30 20 11 55 33 77 49 22 16 45 29 51
30 7 0 13 -56 18 -167 11 -262 29 -374 77 -479 32 -71 100 -79 172 -18 49 41
137 195 137 240 0 13 4 33 9 46 14 38 21 102 12 116 -8 14 -41 6 -41 -10 0
-22 -66 -157 -107 -220 -61 -95 -95 -107 -108 -38 -2 13 -9 37 -14 54 -29 93
-40 376 -19 506 9 61 17 80 40 102 16 16 32 28 35 28 3 0 14 11 25 25 11 14
25 25 31 25 12 0 45 30 92 84 51 59 -20 56 -89 -4 -17 -15 -57 -41 -88 -58
l-58 -32 0 55 c0 63 23 130 41 119 13 -7 139 123 139 144 0 24 -20 52 -39 52
-9 0 -44 -13 -77 -29 -32 -16 -63 -25 -67 -21 -5 4 -5 43 -2 87 l7 78 51 35
c27 19 62 41 76 49 14 7 35 21 46 31 11 9 28 20 38 23 10 4 17 17 17 31 0 39
-48 48 -103 20 -18 -9 -34 -20 -37 -23 -10 -12 -113 -72 -117 -68 -2 2 -8 30
-13 61 -6 31 -14 81 -20 111 -11 67 -6 85 26 85 27 0 28 2 14 50 -13 48 -90
120 -129 120 -16 0 -34 -7 -41 -15z"/>
<path d="M589 1890 c-22 -22 -53 -47 -69 -55 -34 -18 -37 -33 -14 -77 21 -41
15 -67 -51 -221 -30 -71 -55 -133 -55 -139 0 -6 -6 -19 -14 -27 -8 -9 -27 -48
-44 -87 -16 -39 -50 -98 -74 -131 -62 -85 -73 -114 -56 -150 21 -45 60 -43
108 6 35 36 111 91 125 91 20 0 -71 -189 -137 -287 -15 -23 -28 -45 -28 -49 0
-4 -10 -18 -21 -30 -15 -16 -20 -30 -15 -47 7 -30 50 -60 74 -53 10 3 55 42
102 86 47 45 97 88 113 96 15 8 27 19 27 24 0 6 6 10 13 10 7 0 23 14 36 31
19 25 25 28 38 18 12 -11 14 -8 11 22 -2 28 -7 35 -30 37 -14 2 -49 -8 -77
-22 -28 -14 -53 -26 -56 -26 -17 0 1 42 45 107 28 40 50 76 50 79 0 4 14 26
30 51 17 25 42 68 57 97 28 55 113 199 151 256 29 43 28 113 -2 118 -52 10
-128 -55 -168 -145 -11 -25 -33 -66 -49 -91 -44 -69 -169 -173 -169 -141 0 7
47 107 104 223 57 116 109 227 117 246 7 19 25 59 41 88 23 44 25 56 16 82
-21 62 -74 66 -129 10z"/>
<path d="M1513 1755 c-42 -18 -42 -46 0 -104 40 -54 72 -79 115 -87 29 -6 32
-4 32 16 0 13 -6 31 -14 39 -22 25 -23 57 -2 80 20 21 20 22 0 40 -26 26 -91
34 -131 16z"/>
<path d="M684 796 c-30 -13 -102 -80 -221 -206 -34 -36 -83 -81 -107 -100 -25
-19 -60 -55 -77 -80 -37 -52 -32 -86 15 -109 36 -17 65 -3 100 48 30 44 64 88
91 115 11 11 34 39 50 62 30 42 86 112 153 193 47 56 55 69 47 81 -8 13 -13
12 -51 -4z"/>
</g>
</svg>
