<?xml version="1.0" standalone="no"?>
<!DOCTYPE svg PUBLIC "-//W3C//DTD SVG 20010904//EN"
 "http://www.w3.org/TR/2001/REC-SVG-20010904/DTD/svg10.dtd">
<svg version="1.0" xmlns="http://www.w3.org/2000/svg"
 width="206.000000pt" height="211.000000pt" viewBox="0 0 206.000000 211.000000"
 preserveAspectRatio="xMidYMid meet">
<metadata>
Created by potrace 1.16, written by Peter Selinger 2001-2019
</metadata>
<g transform="translate(0.000000,211.000000) scale(0.100000,-0.100000)"
fill="#000000" stroke="none">
<path d="M1377 1917 c-16 -5 -35 -24 -46 -45 -11 -21 -64 -87 -118 -147 -54
-61 -114 -129 -133 -152 -19 -23 -54 -63 -77 -91 -61 -70 -123 -164 -123 -184
0 -35 -18 -17 -24 25 -5 27 -18 53 -38 75 -36 36 -47 38 -88 17 -34 -18 -39
-46 -16 -92 34 -66 44 -102 51 -178 7 -89 -8 -263 -32 -364 -8 -36 -19 -93
-24 -126 -5 -33 -14 -82 -20 -110 -24 -118 -25 -115 10 -115 24 0 34 6 43 25
6 14 14 25 18 25 15 0 39 88 55 195 8 61 22 139 31 175 8 37 17 134 19 225 3
88 8 161 13 163 4 1 16 -12 26 -28 21 -36 36 -35 55 6 56 118 119 206 274 385
18 21 39 45 47 55 14 17 15 9 18 -86 1 -57 -4 -160 -12 -228 -9 -69 -14 -128
-11 -132 3 -4 -2 -61 -10 -126 -8 -66 -15 -177 -16 -249 -1 -162 -5 -176 -40
-132 -51 64 -142 259 -141 303 0 34 -23 64 -50 64 -10 0 -30 -11 -43 -24 -21
-21 -23 -28 -14 -60 8 -29 6 -43 -9 -73 -30 -60 -35 -106 -15 -147 9 -20 25
-38 35 -42 10 -3 25 -18 33 -34 15 -28 50 -48 63 -35 4 3 12 20 17 36 l11 31
29 -49 c17 -26 35 -55 40 -65 6 -9 31 -46 57 -82 31 -43 43 -68 36 -72 -7 -4
-43 -15 -82 -25 -39 -9 -109 -31 -156 -47 -81 -28 -85 -29 -92 -11 -10 27 -43
24 -56 -5 -6 -13 -30 -32 -54 -43 -104 -48 -138 -62 -164 -69 -43 -10 -87 -34
-102 -55 -7 -11 -19 -19 -26 -19 -16 0 -26 -32 -19 -58 2 -10 19 -26 37 -36
31 -16 34 -16 72 3 130 65 276 131 289 131 9 0 26 6 38 14 12 7 44 19 71 25
27 7 62 19 79 27 16 9 73 27 126 41 214 56 248 59 302 30 37 -20 42 -20 67 -6
16 8 28 25 30 39 2 14 8 37 13 52 24 59 -20 81 -116 58 -48 -12 -185 -24 -185
-17 0 3 5 18 10 33 6 14 13 86 15 158 10 287 17 415 25 495 5 47 14 184 20
305 6 122 15 244 20 271 5 28 12 77 16 111 6 54 4 62 -12 66 -11 3 -31 1 -47
-5z m-313 -1132 c3 -8 1 -15 -4 -15 -6 0 -10 7 -10 15 0 8 2 15 4 15 2 0 6 -7
10 -15z"/>
<path d="M289 1623 c-28 -7 -36 -45 -31 -145 5 -104 -13 -210 -49 -300 -10
-26 -19 -54 -19 -63 0 -27 -49 -103 -87 -134 -29 -24 -34 -34 -31 -62 2 -25
10 -37 30 -47 25 -12 34 -10 90 18 35 16 73 30 86 30 l22 0 -21 -42 c-29 -58
-128 -196 -145 -202 -21 -8 -17 -53 6 -76 29 -29 57 -25 109 18 64 54 194 142
209 142 7 0 12 -10 12 -23 0 -34 -85 -203 -129 -256 -20 -25 -54 -71 -74 -101
-21 -30 -47 -67 -58 -82 -26 -32 -20 -78 11 -78 10 0 22 -5 25 -11 14 -22 37
1 134 136 55 77 104 145 108 150 34 41 82 114 87 132 9 27 -7 37 -35 23 -30
-17 -33 -7 -10 39 29 57 27 112 -5 150 -29 34 -57 39 -100 16 -34 -17 -39 -9
-25 42 6 21 11 57 11 80 0 55 -31 79 -89 69 -21 -3 -40 -3 -43 0 -3 3 7 42 22
87 15 45 33 109 40 142 6 33 18 79 26 102 7 23 16 78 20 122 10 115 -15 146
-97 124z"/>
</g>
</svg>
