<?xml version="1.0" standalone="no"?>
<!DOCTYPE svg PUBLIC "-//W3C//DTD SVG 20010904//EN"
 "http://www.w3.org/TR/2001/REC-SVG-20010904/DTD/svg10.dtd">
<svg version="1.0" xmlns="http://www.w3.org/2000/svg"
 width="207.000000pt" height="212.000000pt" viewBox="0 0 207.000000 212.000000"
 preserveAspectRatio="xMidYMid meet">
<metadata>
Created by potrace 1.16, written by Peter Selinger 2001-2019
</metadata>
<g transform="translate(0.000000,212.000000) scale(0.100000,-0.100000)"
fill="#000000" stroke="none">
<path d="M1370 2053 c-16 -6 -116 -106 -278 -278 -57 -60 -129 -131 -159 -157
-61 -51 -65 -51 -116 -4 -29 27 -47 33 -47 17 0 -5 -14 -12 -31 -16 -31 -7
-31 -7 -26 -59 16 -139 19 -243 8 -347 -6 -63 -13 -170 -16 -239 -3 -69 -9
-170 -15 -225 -5 -55 -10 -150 -10 -212 0 -112 0 -112 -32 -149 -18 -20 -57
-48 -87 -63 -54 -26 -84 -56 -96 -98 -4 -17 2 -27 30 -49 32 -24 37 -25 53
-11 26 24 208 116 249 126 21 6 54 14 73 20 44 12 328 109 355 121 21 9 57 18
112 27 24 4 32 1 37 -14 3 -10 14 -23 25 -30 25 -16 57 7 66 47 4 17 15 34 24
40 47 24 112 40 173 40 75 0 94 11 103 63 13 79 13 81 -28 91 -32 8 -45 6 -85
-14 -99 -50 -202 -75 -202 -51 0 5 -4 43 -10 83 -13 102 -19 260 -25 728 -4
223 -2 449 2 502 5 53 7 101 5 107 -4 12 -27 13 -52 4z m-65 -369 c2 -82 7
-311 11 -509 3 -198 7 -374 8 -392 3 -41 -10 -66 -20 -38 -4 11 -25 43 -46 72
-20 28 -47 71 -60 95 -12 24 -46 76 -75 116 -38 51 -60 92 -73 138 -23 84 -37
98 -97 98 -45 1 -48 -1 -51 -25 -2 -15 6 -42 17 -60 31 -50 28 -125 -8 -207
-16 -37 -37 -107 -45 -157 -30 -165 -36 -188 -58 -224 -22 -34 -22 -35 -28
-11 -3 13 0 78 7 144 7 67 15 162 18 211 2 50 9 144 15 210 5 66 12 153 14
193 2 40 7 76 10 79 3 4 17 1 30 -6 27 -15 66 -1 66 24 0 21 44 82 103 141 28
29 79 83 112 120 77 85 138 145 142 140 2 -2 6 -71 8 -152z m85 -643 c0 -21
-25 -46 -34 -33 -9 15 5 52 20 52 8 0 14 -8 14 -19z m-287 -128 c24 -38 52
-82 63 -100 10 -17 40 -63 66 -102 82 -123 91 -151 49 -151 -25 0 -203 -56
-272 -86 -31 -13 -65 -24 -76 -24 -10 0 -27 -6 -38 -14 -27 -18 -105 -28 -105
-13 0 13 15 37 94 150 41 58 58 92 66 135 27 140 73 272 96 272 7 0 33 -30 57
-67z"/>
<path d="M496 1614 c-16 -20 -42 -75 -58 -123 -16 -47 -42 -113 -57 -146 -16
-33 -38 -85 -51 -115 -44 -107 -48 -116 -68 -140 -79 -93 -122 -158 -122 -184
0 -22 55 -48 85 -40 30 7 32 -4 9 -48 -15 -30 -15 -34 2 -66 15 -28 22 -32 43
-27 27 6 109 88 176 175 22 29 47 60 55 69 43 47 94 147 86 168 -11 29 -46 11
-105 -54 -33 -37 -63 -64 -66 -61 -4 3 1 23 11 44 9 22 20 78 24 126 6 77 11
94 41 140 19 29 46 73 59 98 12 25 30 53 39 64 20 23 22 116 2 139 -7 10 -28
17 -45 17 -24 0 -38 -8 -60 -36z"/>
<path d="M445 698 c-146 -129 -320 -331 -313 -364 2 -10 19 -26 38 -37 l36
-18 73 42 c70 40 73 43 67 73 -6 33 -7 32 107 184 18 24 49 62 70 85 43 48 46
80 7 85 -19 2 -41 -11 -85 -50z"/>
</g>
</svg>
