<?xml version="1.0" standalone="no"?>
<!DOCTYPE svg PUBLIC "-//W3C//DTD SVG 20010904//EN"
 "http://www.w3.org/TR/2001/REC-SVG-20010904/DTD/svg10.dtd">
<svg version="1.0" xmlns="http://www.w3.org/2000/svg"
 width="209.000000pt" height="211.000000pt" viewBox="0 0 209.000000 211.000000"
 preserveAspectRatio="xMidYMid meet">
<metadata>
Created by potrace 1.16, written by Peter Selinger 2001-2019
</metadata>
<g transform="translate(0.000000,211.000000) scale(0.100000,-0.100000)"
fill="#000000" stroke="none">
<path d="M1139 1977 c-71 -23 -111 -78 -144 -196 -20 -73 -51 -147 -74 -180
-29 -41 -28 -86 4 -107 13 -9 28 -14 33 -12 12 4 75 54 135 106 27 24 54 41
60 39 18 -6 9 -76 -17 -127 -13 -25 -29 -64 -36 -85 -12 -38 -54 -104 -92
-146 -26 -28 -49 -24 -122 22 -57 35 -71 40 -101 35 -47 -9 -66 -46 -45 -83
16 -29 20 -31 102 -68 32 -15 59 -29 62 -33 13 -24 -187 -272 -220 -272 -6 0
-19 9 -29 20 -23 26 -75 26 -117 0 -60 -36 -61 -27 -14 73 71 148 64 278 -16
306 -28 10 -36 29 -19 46 5 6 25 59 45 119 21 61 43 121 51 135 7 14 21 48 31
74 14 40 15 52 4 72 -31 59 -104 33 -125 -45 -7 -25 -31 -108 -54 -184 -40
-132 -45 -143 -102 -210 -67 -79 -73 -110 -27 -135 24 -14 32 -14 75 2 77 27
83 25 83 -32 0 -28 -4 -52 -9 -55 -5 -3 -12 -17 -15 -31 -4 -14 -36 -75 -71
-135 -36 -60 -65 -112 -65 -115 0 -4 -20 -35 -45 -69 -25 -35 -45 -70 -45 -78
0 -25 46 -61 68 -54 11 4 51 37 90 74 114 110 204 182 229 182 52 0 -58 -119
-196 -212 -42 -27 -76 -55 -76 -62 0 -20 64 -9 126 24 33 17 63 30 65 28 9
-10 -61 -96 -118 -146 -127 -111 -176 -160 -180 -180 -4 -25 29 -62 56 -62 23
1 133 87 151 118 5 11 24 37 42 58 151 184 147 177 125 194 -18 15 -19 18 -3
46 16 30 66 79 156 155 28 23 57 51 65 63 8 12 23 28 35 37 11 9 38 43 59 75
65 96 106 144 125 144 28 0 129 -29 177 -50 24 -12 61 -23 82 -25 49 -6 130
-24 167 -36 17 -6 57 -14 90 -19 33 -4 68 -11 77 -15 38 -15 81 80 46 101 -7
4 -44 8 -83 9 -49 1 -95 11 -155 32 -47 16 -137 47 -200 68 -63 20 -119 41
-124 46 -5 4 4 29 22 56 93 149 143 308 120 385 -20 66 -84 97 -140 67 -11 -6
-22 -8 -25 -6 -9 10 60 140 92 172 73 73 50 113 -46 82z"/>
<path d="M1119 680 c-31 -4 -62 -11 -70 -16 -8 -4 -48 -15 -89 -24 -61 -12
-77 -19 -87 -40 -10 -21 -9 -30 5 -55 25 -42 52 -42 157 -2 49 19 117 42 150
52 122 35 130 39 130 65 0 24 -3 25 -70 26 -38 1 -95 -2 -126 -6z"/>
<path d="M1308 405 c-5 -6 -85 -29 -160 -46 -39 -9 -53 -8 -78 4 -23 12 -44
13 -101 6 -39 -5 -78 -14 -85 -20 -23 -19 -18 -76 8 -90 47 -25 329 19 388 61
16 11 33 20 38 20 20 0 42 42 30 57 -11 13 -30 17 -40 8z"/>
</g>
</svg>
