<?xml version="1.0" standalone="no"?>
<!DOCTYPE svg PUBLIC "-//W3C//DTD SVG 20010904//EN"
 "http://www.w3.org/TR/2001/REC-SVG-20010904/DTD/svg10.dtd">
<svg version="1.0" xmlns="http://www.w3.org/2000/svg"
 width="207.000000pt" height="210.000000pt" viewBox="0 0 207.000000 210.000000"
 preserveAspectRatio="xMidYMid meet">
<metadata>
Created by potrace 1.16, written by Peter Selinger 2001-2019
</metadata>
<g transform="translate(0.000000,210.000000) scale(0.100000,-0.100000)"
fill="#000000" stroke="none">
<path d="M1250 1694 c-127 -40 -305 -133 -312 -163 -8 -31 4 -50 37 -61 29
-10 40 -8 87 16 29 15 60 33 68 39 19 15 70 28 70 18 0 -5 -22 -64 -48 -133
-39 -100 -69 -155 -149 -275 -55 -82 -112 -170 -128 -195 -37 -61 -143 -204
-183 -248 -31 -34 -33 -35 -28 -12 8 35 -13 109 -34 120 -10 5 -36 12 -59 16
-44 7 -49 17 -26 51 22 31 40 160 26 189 -9 20 -18 24 -57 24 -25 0 -44 3 -42
8 2 4 24 50 50 102 52 105 88 206 88 245 0 37 -27 74 -50 68 -31 -8 -61 -43
-55 -63 7 -23 -52 -179 -91 -240 -34 -53 -104 -142 -121 -153 -30 -19 -93 -87
-93 -100 0 -9 14 -27 31 -41 32 -28 58 -28 89 -1 18 16 115 55 135 55 23 0 18
-16 -20 -70 -19 -27 -35 -53 -35 -56 0 -3 -18 -28 -40 -54 -22 -26 -40 -52
-40 -57 0 -6 -9 -18 -20 -28 -27 -25 -25 -41 9 -76 29 -29 53 -31 76 -5 13 15
163 106 174 106 5 0 14 -6 20 -14 14 -17 -7 -119 -36 -177 -31 -61 -115 -153
-185 -203 -74 -52 -85 -79 -48 -116 38 -38 69 -27 153 58 42 42 102 100 133
127 112 101 154 145 154 161 0 12 -6 14 -30 9 -16 -4 -30 -3 -30 0 0 4 36 42
80 85 76 74 82 77 137 84 40 4 63 13 73 26 20 25 207 93 213 77 5 -17 -101
-236 -176 -362 -41 -69 -82 -123 -108 -145 -68 -56 -79 -69 -79 -93 0 -32 20
-54 55 -61 24 -5 42 1 85 29 30 19 58 35 63 35 4 0 20 9 35 20 33 23 180 50
278 50 l72 0 6 -35 c7 -37 28 -45 64 -25 9 5 34 16 54 24 30 12 39 22 48 54
15 58 0 92 -42 93 -18 1 -60 3 -93 5 -74 6 -170 6 -210 0 -16 -2 -51 -7 -77
-11 -27 -4 -48 -5 -48 -1 0 4 24 57 54 119 30 62 57 123 61 137 4 14 18 48 30
76 32 70 43 185 21 203 -17 15 -110 9 -144 -8 -33 -17 -89 -31 -120 -31 -37 0
-41 16 -13 51 36 47 121 178 121 187 0 5 6 12 13 15 16 6 80 136 106 216 12
35 39 97 61 138 37 66 41 80 38 131 -3 53 -5 57 -28 59 -14 1 -45 -5 -70 -13z"/>
<path d="M1279 1382 c-31 -27 -31 -29 -16 -58 19 -36 70 -84 90 -84 8 0 26 -9
40 -20 31 -25 39 -25 61 -1 15 17 16 23 4 44 -17 32 -125 147 -138 147 -5 0
-24 -13 -41 -28z"/>
</g>
</svg>
