<?xml version="1.0" standalone="no"?>
<!DOCTYPE svg PUBLIC "-//W3C//DTD SVG 20010904//EN"
 "http://www.w3.org/TR/2001/REC-SVG-20010904/DTD/svg10.dtd">
<svg version="1.0" xmlns="http://www.w3.org/2000/svg"
 width="207.000000pt" height="211.000000pt" viewBox="0 0 207.000000 211.000000"
 preserveAspectRatio="xMidYMid meet">
<metadata>
Created by potrace 1.16, written by Peter Selinger 2001-2019
</metadata>
<g transform="translate(0.000000,211.000000) scale(0.100000,-0.100000)"
fill="#000000" stroke="none">
<path d="M693 1908 c-15 -7 -24 -23 -28 -47 -7 -47 -74 -256 -96 -301 -10 -19
-28 -57 -39 -85 -12 -27 -59 -106 -104 -175 -45 -69 -91 -145 -101 -170 -10
-25 -25 -52 -32 -61 -7 -8 -13 -20 -13 -26 0 -6 -10 -22 -21 -37 -31 -39 -17
-86 29 -98 30 -8 38 -5 85 35 44 36 126 87 142 87 2 0 -7 -17 -21 -37 -14 -21
-46 -76 -71 -122 -41 -74 -99 -169 -121 -196 -22 -28 -62 -105 -73 -143 -11
-39 -11 -44 11 -67 34 -36 69 -32 117 13 22 20 55 48 73 62 19 14 42 33 52 42
10 10 21 18 25 18 4 0 18 11 32 24 15 14 48 37 75 51 39 21 51 23 63 13 24
-20 8 -63 -50 -136 -87 -109 -87 -146 0 -74 106 87 434 427 508 527 89 119 90
119 207 68 47 -21 61 -23 73 -13 35 29 9 80 -65 131 -20 13 -21 18 -11 38 7
12 21 32 31 44 10 12 28 33 39 46 12 13 21 28 21 32 0 5 30 46 67 91 83 104
97 127 128 218 39 116 29 171 -35 185 -70 15 -282 -43 -363 -100 -12 -8 -27
-15 -35 -15 -19 0 -93 -61 -102 -85 -8 -20 4 -54 24 -67 23 -16 47 -7 105 37
32 25 63 45 69 45 5 0 25 11 44 23 19 13 57 32 84 42 27 9 59 22 70 27 31 14
59 6 62 -19 5 -31 -43 -120 -96 -178 -24 -27 -62 -75 -83 -105 -21 -30 -53
-75 -70 -100 -17 -25 -48 -61 -68 -81 -55 -53 -164 -178 -200 -228 -17 -25
-63 -79 -101 -121 -38 -42 -82 -94 -98 -116 -50 -69 -56 -71 -102 -34 -35 28
-47 32 -83 28 -49 -6 -100 -28 -139 -60 -46 -36 -48 -10 -6 56 7 11 32 50 55
88 23 37 58 84 76 105 18 21 49 61 67 88 19 28 55 74 81 103 45 52 64 104 51
140 -7 19 -68 6 -106 -23 -17 -13 -58 -38 -91 -56 -33 -18 -84 -47 -113 -66
-29 -18 -55 -33 -57 -33 -14 0 0 32 40 90 81 115 112 166 120 191 6 21 54 132
100 234 65 141 89 240 64 256 -19 12 -69 10 -96 -3z m-253 -684 c0 -8 -5 -12
-10 -9 -6 4 -8 11 -5 16 9 14 15 11 15 -7z"/>
<path d="M1180 740 c-14 -4 -65 -20 -115 -35 -49 -15 -104 -33 -122 -41 -17
-8 -36 -14 -42 -14 -6 0 -38 -14 -71 -31 -51 -26 -60 -34 -60 -57 0 -33 8 -45
39 -61 24 -13 59 -2 196 65 28 13 58 24 68 24 10 0 43 9 74 20 32 11 61 20 65
20 22 0 1 -56 -79 -215 -63 -125 -148 -256 -210 -323 -75 -82 -72 -92 26 -92
65 0 87 4 118 22 96 57 213 74 293 42 37 -15 42 -15 65 0 21 14 25 24 25 66 0
70 -18 80 -140 76 -52 -2 -112 -7 -132 -11 -49 -9 -49 3 -3 74 19 29 35 57 35
61 0 5 9 24 19 42 17 28 40 92 81 224 13 40 13 110 0 135 -8 15 -21 19 -58 18
-26 0 -58 -4 -72 -9z"/>
<path d="M592 405 c-28 -19 -73 -55 -99 -80 -26 -24 -52 -45 -56 -45 -14 0
-90 -56 -145 -107 -45 -41 -53 -54 -50 -78 8 -71 119 -69 168 2 13 20 67 78
118 130 104 104 162 175 162 198 0 26 -45 17 -98 -20z"/>
</g>
</svg>
