<?xml version="1.0" standalone="no"?>
<!DOCTYPE svg PUBLIC "-//W3C//DTD SVG 20010904//EN"
 "http://www.w3.org/TR/2001/REC-SVG-20010904/DTD/svg10.dtd">
<svg version="1.0" xmlns="http://www.w3.org/2000/svg"
 width="209.000000pt" height="210.000000pt" viewBox="0 0 209.000000 210.000000"
 preserveAspectRatio="xMidYMid meet">
<metadata>
Created by potrace 1.16, written by Peter Selinger 2001-2019
</metadata>
<g transform="translate(0.000000,210.000000) scale(0.100000,-0.100000)"
fill="#000000" stroke="none">
<path d="M1024 2069 c-16 -18 -19 -37 -19 -143 0 -91 4 -134 18 -173 28 -79
22 -91 -58 -134 -38 -21 -77 -41 -85 -45 -29 -14 -60 -48 -60 -66 0 -63 49
-79 128 -43 86 40 87 41 86 66 -1 22 11 38 28 39 7 0 55 -101 64 -136 5 -19
-2 -28 -45 -54 -28 -18 -51 -36 -51 -41 0 -5 -6 -9 -13 -9 -8 0 -22 -9 -33
-21 -10 -12 -32 -28 -48 -36 -58 -30 -73 -66 -38 -95 40 -35 61 -27 174 66 63
52 96 76 105 76 5 0 29 -29 52 -65 24 -36 47 -65 52 -65 15 0 10 -22 -8 -37
-10 -7 -43 -24 -73 -38 -30 -14 -62 -30 -70 -35 -85 -55 -213 -111 -333 -145
-39 -11 -63 -24 -74 -41 -15 -24 -15 -27 3 -51 33 -44 50 -50 85 -29 30 18 31
18 20 -1 -13 -26 -97 -94 -105 -86 -3 4 -6 25 -6 48 0 24 -6 47 -12 52 -25 18
-85 31 -102 21 -9 -5 -28 -8 -42 -6 -25 3 -25 3 -6 24 69 73 132 216 132 301
0 57 -48 65 -159 28 -29 -9 -55 -14 -58 -11 -3 3 12 32 35 63 112 156 214 317
272 428 28 55 60 111 71 125 25 33 36 95 19 115 -43 52 -117 -27 -219 -234
-39 -80 -77 -151 -84 -159 -7 -8 -25 -38 -42 -67 -26 -45 -73 -116 -171 -259
-12 -17 -31 -40 -43 -50 -29 -26 -26 -52 8 -87 28 -28 30 -28 64 -14 33 13 44
17 112 31 17 4 35 11 42 16 7 5 16 7 22 4 12 -8 -22 -79 -61 -128 -35 -45
-130 -187 -139 -208 -4 -9 4 -26 19 -42 29 -31 74 -37 107 -15 29 19 125 41
135 31 11 -11 -56 -149 -96 -199 -26 -33 -61 -87 -79 -122 -9 -17 32 -73 53
-73 19 0 69 49 98 95 10 17 38 52 61 80 24 27 43 53 43 57 0 4 23 28 50 54 28
26 60 63 72 83 12 20 30 46 41 58 13 15 18 31 14 49 -4 21 0 28 16 32 11 3 54
23 95 44 41 21 79 38 83 38 16 0 9 -21 -20 -63 -53 -77 -101 -154 -101 -162 0
-5 -21 -49 -46 -98 -41 -80 -47 -99 -48 -160 -1 -64 1 -71 25 -89 46 -35 83
-12 200 125 27 31 49 62 49 67 0 5 13 16 29 25 28 14 30 14 36 -5 3 -11 4 -24
1 -29 -11 -17 16 -176 35 -209 10 -18 19 -37 19 -42 0 -17 82 -99 116 -115 58
-27 228 -15 345 25 122 42 219 87 219 101 0 6 6 9 13 6 7 -3 21 1 31 9 11 8
30 11 48 7 48 -9 68 18 64 86 -5 63 -12 86 -38 120 -10 13 -18 36 -18 52 0 15
-5 40 -10 55 -6 15 -12 75 -15 133 -3 95 -6 106 -23 109 -14 2 -25 -8 -38 -35
-25 -50 -30 -279 -8 -321 29 -57 8 -101 -68 -138 -111 -55 -158 -74 -218 -89
-36 -9 -79 -21 -96 -26 -46 -14 -77 -11 -128 11 -28 12 -50 29 -55 43 -5 12
-16 29 -25 36 -9 7 -16 21 -16 30 0 9 -4 21 -10 27 -10 10 -14 99 -11 228 2
87 -14 117 -58 107 -32 -7 -55 -27 -180 -155 -46 -47 -86 -84 -88 -82 -11 10
90 190 147 264 36 46 72 94 80 106 8 12 36 47 61 77 26 30 57 73 69 97 12 23
25 42 29 42 16 0 72 -41 87 -64 13 -21 22 -25 43 -20 36 9 52 33 49 74 -2 28
-9 38 -33 49 -16 8 -31 18 -33 23 -2 4 -10 8 -17 8 -24 0 -134 122 -162 178
-25 52 -25 53 -7 73 11 12 42 37 71 56 86 57 150 141 111 144 -39 4 -63 -6
-90 -37 -17 -19 -35 -34 -42 -34 -6 0 -33 -16 -60 -35 -27 -19 -53 -35 -57
-35 -12 0 -49 115 -49 151 0 29 56 79 136 122 62 32 74 34 74 6 0 -28 17 -21
41 18 20 32 20 32 0 52 -15 15 -28 18 -63 14 -23 -3 -54 -13 -68 -23 -41 -28
-152 -81 -159 -75 -3 3 -13 42 -22 87 -12 58 -14 91 -7 121 12 54 16 59 39 46
26 -13 33 -7 24 21 -21 65 -110 94 -151 49z"/>
</g>
</svg>
