<?xml version="1.0" standalone="no"?>
<!DOCTYPE svg PUBLIC "-//W3C//DTD SVG 20010904//EN"
 "http://www.w3.org/TR/2001/REC-SVG-20010904/DTD/svg10.dtd">
<svg version="1.0" xmlns="http://www.w3.org/2000/svg"
 width="207.000000pt" height="203.000000pt" viewBox="0 0 207.000000 203.000000"
 preserveAspectRatio="xMidYMid meet">
<metadata>
Created by potrace 1.16, written by Peter Selinger 2001-2019
</metadata>
<g transform="translate(0.000000,203.000000) scale(0.100000,-0.100000)"
fill="#000000" stroke="none">
<path d="M1138 1939 c-16 -11 -28 -26 -28 -33 0 -10 -30 -86 -84 -208 -9 -21
-36 -60 -61 -88 -48 -54 -52 -80 -16 -108 30 -24 72 -5 142 64 93 91 147 134
169 134 13 0 4 -38 -15 -60 -7 -8 -16 -25 -19 -37 -4 -13 -12 -23 -17 -23 -5
0 -9 -5 -9 -12 0 -6 -8 -20 -17 -30 -9 -10 -39 -51 -67 -92 -127 -184 -195
-273 -268 -358 -16 -17 -28 -39 -28 -48 0 -19 40 -50 65 -50 25 0 17 -13 -25
-43 -32 -23 -40 -35 -46 -72 -3 -25 -3 -64 0 -88 12 -80 -42 -297 -115 -458
-60 -133 -51 -189 31 -201 37 -6 168 5 260 21 30 6 109 17 174 26 66 9 125 20
131 25 17 14 162 29 200 20 27 -6 45 3 63 33 16 28 19 55 21 207 l2 176 -29
32 c-50 55 -60 46 -68 -65 -17 -255 -17 -257 -44 -265 -92 -27 -515 -98 -583
-98 -44 0 -67 8 -67 25 0 7 13 44 30 83 45 106 100 332 109 448 6 81 12 107
30 133 26 36 22 58 -11 70 -21 8 -21 9 17 34 74 49 90 62 113 90 25 29 42 35
42 15 0 -7 -34 -81 -76 -166 -71 -141 -76 -155 -64 -178 18 -32 55 -41 94 -22
17 8 53 24 81 34 27 11 54 29 60 41 17 33 36 53 92 94 77 58 127 169 164 374
7 39 19 80 26 91 16 25 12 139 -5 156 -21 21 -103 -27 -193 -112 -83 -79 -129
-120 -134 -120 -10 0 38 85 63 110 112 115 181 352 109 379 -24 9 -116 -6
-136 -22 -7 -7 -2 12 13 40 32 64 33 87 4 107 -29 21 -47 20 -80 -5z m236
-601 c-18 -95 -61 -224 -104 -306 -41 -80 -69 -111 -110 -119 -34 -6 -34 -5
-19 13 27 32 91 156 106 208 9 31 12 65 8 92 -7 46 -2 53 85 123 35 28 40 26
34 -11z"/>
<path d="M232 1868 c-29 -32 -43 -73 -30 -86 8 -8 8 -22 0 -50 -7 -22 -12 -51
-12 -65 0 -14 -4 -29 -10 -32 -5 -3 -10 -14 -10 -24 0 -10 -9 -29 -19 -43 -32
-41 -132 -345 -136 -417 -8 -117 43 -167 108 -107 14 13 53 41 87 62 33 20 60
40 60 44 0 9 71 42 77 36 3 -3 -13 -42 -35 -88 -44 -91 -112 -263 -112 -282 0
-7 -11 -35 -25 -62 -31 -61 -31 -85 -1 -113 22 -21 26 -21 57 -8 19 8 60 40
92 71 32 30 63 59 70 63 7 4 48 46 92 93 43 47 84 86 92 88 7 2 13 8 13 13 0
5 6 9 14 9 23 0 46 29 46 59 0 20 -7 29 -29 37 -36 14 -100 -13 -126 -53 -10
-15 -27 -34 -38 -42 -10 -7 -42 -38 -70 -67 -28 -30 -54 -54 -58 -54 -11 0 75
209 102 251 9 13 20 35 24 49 4 14 15 41 25 60 10 19 21 65 25 103 l7 67 -38
0 c-26 0 -56 -12 -103 -42 -36 -23 -82 -50 -101 -60 -19 -10 -55 -30 -78 -44
-24 -14 -45 -24 -47 -22 -7 7 24 116 49 173 15 33 36 79 46 101 56 124 98 355
70 389 -18 22 -53 18 -78 -7z"/>
<path d="M580 699 c-14 -6 -40 -24 -58 -42 -30 -29 -32 -34 -26 -78 6 -46 6
-47 -49 -99 -85 -80 -137 -99 -137 -49 0 28 -5 25 -77 -52 -76 -79 -82 -108
-28 -133 l35 -17 96 48 c53 26 100 56 105 65 5 10 15 18 22 18 27 0 141 138
180 217 12 26 13 40 4 70 -11 40 -25 63 -36 62 -3 0 -17 -5 -31 -10z"/>
</g>
</svg>
