<?xml version="1.0" standalone="no"?>
<!DOCTYPE svg PUBLIC "-//W3C//DTD SVG 20010904//EN"
 "http://www.w3.org/TR/2001/REC-SVG-20010904/DTD/svg10.dtd">
<svg version="1.0" xmlns="http://www.w3.org/2000/svg"
 width="206.000000pt" height="202.000000pt" viewBox="0 0 206.000000 202.000000"
 preserveAspectRatio="xMidYMid meet">
<metadata>
Created by potrace 1.16, written by Peter Selinger 2001-2019
</metadata>
<g transform="translate(0.000000,202.000000) scale(0.100000,-0.100000)"
fill="#000000" stroke="none">
<path d="M1360 1960 c-11 -11 -20 -29 -20 -41 0 -55 -151 -339 -181 -339 -5 0
-16 -11 -24 -24 -20 -30 -3 -74 32 -82 13 -4 23 -8 23 -10 0 -2 -18 -41 -40
-86 -22 -46 -40 -89 -40 -97 0 -7 -11 -26 -25 -43 -14 -16 -25 -35 -25 -42 0
-7 -18 -38 -40 -70 -22 -31 -40 -60 -40 -65 0 -4 -9 -16 -20 -26 -26 -24 -25
-60 2 -79 40 -28 62 -20 109 40 89 115 324 312 346 290 3 -2 -13 -46 -35 -98
-22 -51 -44 -104 -47 -118 -4 -14 -18 -45 -30 -70 -13 -25 -29 -61 -36 -80 -7
-19 -16 -39 -20 -43 -8 -10 -59 60 -59 80 0 8 -14 13 -39 13 -41 0 -71 -25
-71 -60 0 -31 39 -97 74 -123 l34 -27 -44 -84 c-24 -46 -44 -90 -44 -97 0 -8
-16 -32 -35 -54 -66 -75 -89 -95 -107 -89 -23 7 -32 -15 -19 -49 11 -29 47
-43 82 -32 43 14 182 180 209 250 5 13 17 36 26 50 15 23 17 24 45 9 16 -8 51
-36 78 -62 27 -26 75 -69 107 -97 31 -27 74 -67 95 -87 21 -21 42 -38 47 -38
5 0 15 -7 22 -15 8 -10 21 -13 34 -9 30 9 29 7 31 75 2 57 1 61 -24 72 -62 27
-133 81 -231 176 -58 55 -109 101 -113 101 -13 0 1 51 39 142 20 46 44 106 54
133 10 28 34 87 54 132 20 45 36 85 36 90 0 5 10 23 23 41 31 41 37 146 9 160
-21 12 -39 5 -71 -25 -14 -12 -29 -23 -34 -23 -4 0 -39 -20 -77 -45 -39 -25
-78 -48 -87 -52 -10 -3 -26 -13 -36 -21 -29 -25 -31 -5 -3 42 14 24 26 51 26
58 0 7 11 33 24 58 39 75 45 170 10 170 -26 0 -14 25 30 69 25 24 50 58 56 75
7 17 23 56 37 87 34 76 27 109 -22 109 -22 0 -43 -8 -55 -20z"/>
<path d="M803 1748 c-11 -13 -24 -34 -28 -48 -14 -53 -141 -333 -160 -354 -24
-27 -71 -95 -104 -150 -13 -23 -32 -47 -43 -54 -18 -13 -24 -57 -10 -78 4 -6
17 -16 29 -23 26 -13 52 -3 138 50 28 18 65 38 83 46 41 17 41 11 6 -100 -51
-161 -68 -203 -101 -250 -18 -26 -33 -50 -33 -53 0 -4 -16 -41 -36 -82 l-36
-75 20 -26 c10 -14 28 -27 39 -29 22 -3 163 73 176 94 4 8 15 14 23 14 8 0 38
23 65 50 35 35 58 50 72 48 14 -2 26 6 36 24 15 25 14 28 -4 43 -25 19 -90 11
-125 -16 -52 -40 -102 -70 -108 -65 -3 4 4 23 15 44 54 96 133 369 133 459 0
66 -15 76 -85 57 -27 -7 -53 -13 -58 -14 -10 0 19 68 42 100 10 14 21 37 24
52 4 15 22 53 41 85 18 32 39 74 45 94 6 20 20 53 31 74 11 22 20 49 20 62 0
44 -73 58 -107 21z"/>
<path d="M773 456 c-32 -24 -75 -67 -97 -95 -21 -28 -44 -55 -50 -59 -21 -13
-76 -90 -76 -106 0 -16 30 -40 67 -50 16 -5 23 -2 27 12 4 11 26 39 51 63 24
24 42 45 41 47 -5 4 32 69 77 133 35 50 49 99 28 99 -5 0 -35 -20 -68 -44z"/>
</g>
</svg>
