<?xml version="1.0" standalone="no"?>
<!DOCTYPE svg PUBLIC "-//W3C//DTD SVG 20010904//EN"
 "http://www.w3.org/TR/2001/REC-SVG-20010904/DTD/svg10.dtd">
<svg version="1.0" xmlns="http://www.w3.org/2000/svg"
 width="209.000000pt" height="203.000000pt" viewBox="0 0 209.000000 203.000000"
 preserveAspectRatio="xMidYMid meet">
<metadata>
Created by potrace 1.16, written by Peter Selinger 2001-2019
</metadata>
<g transform="translate(0.000000,203.000000) scale(0.100000,-0.100000)"
fill="#000000" stroke="none">
<path d="M1190 1907 c-53 -25 -64 -65 -27 -100 45 -43 69 -127 36 -127 -18 0
-171 -165 -185 -199 -23 -55 -18 -79 21 -103 24 -13 34 -26 31 -37 -2 -9 -7
-31 -11 -49 -8 -40 -67 -188 -102 -254 -20 -39 -24 -56 -17 -75 14 -39 37 -50
76 -35 17 6 33 10 36 8 2 -3 -4 -42 -13 -88 -15 -76 -54 -187 -92 -263 -8 -16
-28 -70 -44 -119 -16 -49 -38 -105 -48 -125 -35 -66 -61 -131 -61 -150 0 -19
14 -34 42 -44 40 -14 119 99 133 190 7 47 22 87 96 253 21 47 46 117 55 155
19 81 49 147 82 180 14 15 22 33 20 47 -3 21 -7 23 -55 20 -29 -2 -53 1 -53 6
0 8 86 92 141 137 96 79 109 87 138 80 17 -3 31 -14 34 -26 3 -12 14 -19 29
-19 36 0 46 16 38 61 -8 41 -33 75 -81 110 -25 17 -29 18 -55 4 -16 -8 -33
-15 -38 -15 -5 0 -44 -31 -87 -70 -42 -38 -80 -70 -83 -70 -19 0 5 99 45 187
10 24 19 48 19 53 0 27 46 96 105 158 69 74 85 103 85 158 0 41 -19 52 -63 36
-34 -13 -43 -7 -53 39 -3 14 -20 41 -37 61 -29 33 -34 35 -57 25z"/>
<path d="M770 1866 c-5 -5 -10 -16 -10 -23 0 -8 -7 -16 -15 -19 -16 -6 -123
-198 -133 -237 -3 -12 -18 -40 -33 -63 -15 -22 -49 -81 -74 -130 -26 -49 -53
-96 -59 -104 -7 -8 -22 -34 -34 -57 -18 -35 -20 -47 -11 -67 16 -34 50 -47 74
-30 10 8 25 14 33 14 8 0 24 9 36 21 34 34 117 91 123 86 3 -3 -3 -22 -13 -42
-11 -19 -41 -79 -67 -133 -27 -53 -59 -117 -72 -142 -13 -25 -37 -80 -53 -122
-16 -42 -39 -90 -51 -107 -31 -44 -36 -82 -14 -110 28 -35 73 -22 109 31 44
63 271 252 317 263 14 4 35 18 48 31 l23 24 -21 21 -21 21 -68 -22 c-37 -13
-88 -36 -113 -51 -25 -16 -49 -29 -54 -29 -13 0 2 53 19 66 7 6 14 17 14 24 0
16 64 143 92 183 11 15 33 64 49 108 16 45 35 87 42 95 75 87 117 145 117 163
0 9 3 33 6 54 6 35 5 37 -19 37 -33 0 -94 -36 -130 -77 -16 -18 -33 -33 -37
-33 -4 0 -26 -19 -49 -41 -23 -23 -44 -39 -47 -36 -7 7 68 140 101 179 14 16
25 36 25 44 0 8 10 34 23 57 19 37 25 79 18 148 -1 12 -60 16 -71 5z"/>
<path d="M1255 938 c-38 -22 -62 -78 -69 -158 -4 -42 -31 -130 -57 -186 -10
-22 -20 -54 -22 -70 -2 -16 -8 -38 -15 -50 -19 -36 -26 -121 -12 -156 14 -36
44 -68 77 -87 35 -18 163 -13 229 9 116 40 144 57 163 103 43 100 53 290 17
325 -22 22 -46 7 -46 -27 0 -17 -9 -65 -19 -108 -11 -43 -22 -91 -26 -106 -3
-15 -13 -31 -23 -34 -9 -4 -19 -10 -22 -13 -6 -8 -166 -60 -183 -60 -7 0 -24
10 -39 23 l-28 22 14 65 c8 36 22 85 31 110 34 93 77 247 88 314 10 63 9 69
-8 82 -22 17 -24 17 -50 2z m-100 -448 c3 -5 2 -10 -4 -10 -5 0 -13 5 -16 10
-3 6 -2 10 4 10 5 0 13 -4 16 -10z"/>
<path d="M790 572 c-38 -17 -148 -99 -189 -142 -25 -25 -70 -66 -100 -90 -69
-57 -131 -135 -131 -166 0 -18 9 -27 37 -39 35 -15 38 -15 76 12 22 16 49 42
58 58 10 17 35 44 55 60 20 17 43 44 51 60 9 17 51 65 94 108 85 84 104 110
95 133 -6 15 -21 17 -46 6z"/>
</g>
</svg>
