<?xml version="1.0" standalone="no"?>
<!DOCTYPE svg PUBLIC "-//W3C//DTD SVG 20010904//EN"
 "http://www.w3.org/TR/2001/REC-SVG-20010904/DTD/svg10.dtd">
<svg version="1.0" xmlns="http://www.w3.org/2000/svg"
 width="205.000000pt" height="206.000000pt" viewBox="0 0 205.000000 206.000000"
 preserveAspectRatio="xMidYMid meet">
<metadata>
Created by potrace 1.16, written by Peter Selinger 2001-2019
</metadata>
<g transform="translate(0.000000,206.000000) scale(0.100000,-0.100000)"
fill="#000000" stroke="none">
<path d="M1364 1840 c-12 -5 -25 -13 -28 -19 -4 -5 1 -62 10 -126 19 -132 17
-138 -59 -176 -36 -19 -58 -40 -147 -139 -52 -58 -53 -92 -5 -150 19 -23 35
-49 34 -58 0 -30 -142 -222 -192 -262 -27 -21 -30 -22 -22 -5 15 36 18 361 4
443 -17 102 -53 136 -105 98 -15 -12 -19 -25 -17 -67 1 -28 8 -68 15 -88 8
-23 12 -90 12 -191 0 -147 -2 -160 -33 -255 -33 -98 -66 -217 -98 -345 -8 -36
-26 -85 -38 -110 -29 -57 -67 -179 -60 -191 3 -5 22 -16 41 -25 29 -14 41 -15
82 -4 56 14 123 41 213 85 36 17 80 35 98 38 17 4 44 16 60 28 19 14 44 21 77
22 38 0 53 5 66 22 10 13 28 25 40 28 13 3 40 10 61 15 35 9 38 8 43 -14 12
-48 64 -22 64 32 0 25 4 33 18 32 9 0 62 11 117 26 55 14 112 26 128 26 20 0
30 7 37 26 10 26 4 70 -13 92 -12 16 -54 16 -60 0 -2 -9 -28 -13 -86 -12 -83
2 -141 17 -141 38 -1 15 -36 56 -48 56 -5 0 -9 -18 -9 -41 0 -22 -5 -45 -12
-52 -6 -6 -11 -18 -11 -27 0 -21 44 -70 64 -70 15 0 22 -21 10 -33 -3 -3 -24
1 -47 9 -23 8 -54 12 -74 8 -39 -7 -39 -9 -18 101 55 297 67 353 77 375 38 87
34 80 122 169 32 33 56 66 54 73 -9 25 -38 19 -84 -17 -26 -19 -51 -32 -56
-27 -8 8 23 273 40 352 9 38 5 70 -8 70 -14 0 -21 33 -26 125 -5 77 -8 92 -27
107 -25 20 -33 21 -63 8z m-38 -452 c-8 -13 -23 -37 -31 -54 -9 -18 -32 -49
-51 -70 l-34 -39 0 37 c0 30 9 46 51 92 28 31 58 56 66 56 14 0 14 -3 -1 -22z
m6 -225 c-3 -81 -4 -81 -35 -94 -18 -7 -34 -16 -37 -19 -17 -20 -95 -69 -98
-61 -3 9 37 75 63 102 8 9 15 20 15 26 0 5 15 27 33 49 19 21 39 50 46 62 7
13 13 22 14 20 1 -1 1 -40 -1 -85z m-64 -309 c-4 -37 -9 -68 -10 -69 -93 -67
-143 -111 -275 -244 -156 -157 -192 -185 -174 -138 5 12 12 47 16 77 4 30 15
73 25 95 10 22 30 83 45 135 14 52 30 99 35 104 4 4 22 -2 40 -15 30 -23 32
-23 58 -7 15 10 57 33 94 52 36 20 70 40 73 46 8 13 43 28 66 29 13 1 14 -8 7
-65z m52 -80 c0 -8 -4 -12 -10 -9 -5 3 -10 10 -10 16 0 5 5 9 10 9 6 0 10 -7
10 -16z m-83 -121 c-3 -16 -9 -57 -13 -93 -8 -80 -16 -96 -51 -105 -16 -3 -48
-17 -73 -29 -25 -12 -65 -28 -90 -36 -25 -7 -52 -19 -60 -25 -17 -14 -50 -27
-50 -20 0 9 324 335 333 335 5 0 7 -12 4 -27z"/>
<path d="M572 1758 c-12 -6 -34 -35 -48 -65 -15 -29 -31 -56 -36 -59 -6 -4
-19 -25 -29 -48 -10 -22 -32 -56 -48 -74 -17 -18 -36 -51 -42 -73 -12 -38 -11
-41 21 -74 31 -32 33 -38 34 -107 0 -97 -27 -181 -115 -363 -22 -44 -39 -86
-39 -92 0 -7 -4 -13 -9 -13 -24 0 -31 -97 -8 -112 20 -13 55 -9 64 7 18 31
153 102 153 81 0 -14 -61 -129 -83 -156 -99 -125 -133 -217 -91 -247 26 -19
65 -28 73 -17 3 5 30 27 59 49 28 21 52 46 52 55 0 26 -21 39 -51 33 -37 -7
-40 18 -5 41 14 8 28 26 32 38 8 26 28 48 43 48 6 0 11 6 11 13 0 7 11 28 24
47 57 85 59 224 4 242 -20 7 -36 5 -59 -6 -18 -9 -34 -16 -36 -16 -9 0 0 37
28 117 49 143 60 207 57 328 -2 103 -1 114 26 170 15 33 38 76 51 95 13 21 25
58 29 92 5 50 4 59 -13 68 -23 12 -20 12 -49 -2z"/>
</g>
</svg>
