<?xml version="1.0" standalone="no"?>
<!DOCTYPE svg PUBLIC "-//W3C//DTD SVG 20010904//EN"
 "http://www.w3.org/TR/2001/REC-SVG-20010904/DTD/svg10.dtd">
<svg version="1.0" xmlns="http://www.w3.org/2000/svg"
 width="207.000000pt" height="205.000000pt" viewBox="0 0 207.000000 205.000000"
 preserveAspectRatio="xMidYMid meet">
<metadata>
Created by potrace 1.16, written by Peter Selinger 2001-2019
</metadata>
<g transform="translate(0.000000,205.000000) scale(0.100000,-0.100000)"
fill="#000000" stroke="none">
<path d="M1228 1919 c-21 -11 -38 -21 -38 -23 0 -2 5 -60 10 -131 6 -70 8
-135 5 -145 -3 -10 -25 -30 -48 -46 -23 -15 -68 -52 -99 -82 -44 -42 -58 -62
-58 -83 0 -31 23 -49 64 -49 34 0 35 -31 3 -62 -13 -13 -34 -41 -47 -63 -65
-110 -188 -255 -216 -255 -10 0 -13 32 -12 148 2 198 -31 332 -83 332 -10 0
-29 -10 -43 -22 l-25 -23 25 -85 c28 -94 34 -225 14 -335 -6 -33 -17 -103 -25
-155 -9 -52 -21 -115 -29 -140 -70 -226 -67 -220 -95 -220 -19 0 -52 -24 -121
-89 -52 -49 -97 -87 -99 -85 -3 3 12 41 33 87 21 45 46 100 57 122 43 94 62
184 56 268 -7 104 -19 118 -79 91 -24 -10 -57 -35 -75 -54 -41 -44 -55 -31
-25 23 105 191 133 258 137 332 l4 66 -34 16 c-19 9 -35 21 -35 25 0 15 30 67
66 118 19 26 34 54 34 62 0 9 7 21 15 28 8 7 15 18 15 24 0 6 16 42 36 79 44
82 45 138 3 169 -24 19 -28 19 -56 4 -22 -11 -32 -25 -37 -49 -3 -19 -15 -52
-26 -74 -11 -23 -24 -59 -29 -82 -5 -23 -27 -65 -49 -94 -45 -60 -122 -209
-122 -237 0 -20 51 -62 72 -59 47 6 50 -23 10 -98 -15 -28 -44 -84 -66 -125
-21 -40 -55 -98 -74 -128 -54 -84 -122 -230 -122 -261 0 -31 31 -59 67 -59 25
0 120 73 213 165 28 27 50 33 50 13 0 -29 -80 -269 -112 -338 -20 -41 -39 -90
-43 -108 -4 -19 -20 -45 -36 -59 -39 -35 -41 -89 -3 -103 39 -15 62 -12 82 10
9 12 46 51 82 88 36 37 83 91 105 120 22 30 52 68 66 85 l26 31 16 -31 c9 -17
24 -34 34 -38 48 -20 249 -23 388 -6 55 7 117 14 137 16 90 10 258 121 258
172 0 30 32 53 72 53 56 0 66 49 19 94 -24 23 -35 27 -59 21 -37 -8 -69 8
-135 68 l-47 43 26 129 c15 74 33 139 44 152 10 13 21 38 24 56 4 22 16 39 36
50 17 10 30 22 30 26 0 5 21 21 46 37 43 27 64 56 64 90 0 23 -34 16 -96 -21
-32 -19 -62 -35 -67 -35 -16 0 -2 148 15 168 10 10 19 48 23 100 6 73 5 85
-11 104 -16 17 -19 39 -20 145 -2 153 -9 163 -86 122z m-47 -677 c3 -39 0 -44
-26 -58 -17 -8 -38 -23 -48 -31 -48 -45 -17 49 36 104 17 18 32 32 33 30 1 -1
4 -21 5 -45z m-57 -254 c-6 -42 -37 -88 -58 -88 -19 -1 -117 -99 -288 -290
-38 -41 -46 -64 -28 -75 22 -14 76 29 237 188 57 55 105 98 107 96 11 -12 -22
-171 -64 -305 -6 -17 -10 -40 -10 -51 0 -17 -9 -21 -62 -27 -141 -16 -235 -18
-242 -7 -4 6 -16 11 -26 11 -10 0 -21 4 -24 8 -2 4 8 46 23 92 24 72 41 138
67 258 3 14 11 22 22 21 39 -3 52 3 99 46 57 54 187 145 223 156 14 4 26 8 28
8 1 1 -1 -18 -4 -41z m132 -388 c5 0 15 -4 22 -9 22 -14 -10 -63 -55 -84 -21
-10 -50 -25 -65 -32 -15 -8 -29 -11 -31 -7 -3 4 10 51 26 104 l31 98 32 -35
c17 -19 36 -35 40 -35z"/>
</g>
</svg>
