<?xml version="1.0" standalone="no"?>
<!DOCTYPE svg PUBLIC "-//W3C//DTD SVG 20010904//EN"
 "http://www.w3.org/TR/2001/REC-SVG-20010904/DTD/svg10.dtd">
<svg version="1.0" xmlns="http://www.w3.org/2000/svg"
 width="209.000000pt" height="207.000000pt" viewBox="0 0 209.000000 207.000000"
 preserveAspectRatio="xMidYMid meet">
<metadata>
Created by potrace 1.16, written by Peter Selinger 2001-2019
</metadata>
<g transform="translate(0.000000,207.000000) scale(0.100000,-0.100000)"
fill="#000000" stroke="none">
<path d="M1043 1892 c-7 -4 -17 -30 -23 -57 -22 -101 -76 -233 -138 -340 -7
-11 -21 -40 -32 -65 -10 -25 -57 -112 -104 -195 -81 -144 -86 -151 -137 -177
-54 -29 -71 -30 -49 -3 19 23 65 125 79 177 7 25 14 70 15 100 l1 53 -37 3
c-32 3 -36 6 -29 20 21 40 61 133 61 143 0 13 33 89 66 151 18 34 24 60 22 90
-3 41 -4 43 -38 46 -29 2 -41 -3 -67 -30 -43 -45 -123 -199 -123 -236 0 -17
-4 -34 -10 -37 -18 -11 -11 -35 8 -28 14 5 15 4 6 -8 -6 -8 -16 -28 -22 -45
-5 -17 -26 -54 -46 -83 -70 -100 -37 -183 54 -136 17 9 30 14 30 12 0 -21
-111 -250 -202 -417 -20 -37 -18 -88 5 -102 6 -4 29 -8 49 -8 32 0 42 6 75 45
33 40 41 44 68 40 25 -5 33 -1 50 22 39 54 160 171 200 192 51 27 59 27 85 -6
23 -29 23 -31 -4 -138 -42 -164 -53 -202 -67 -230 -9 -16 -26 -58 -38 -93 -12
-34 -25 -70 -30 -80 -5 -9 -23 -48 -40 -85 l-30 -68 20 -20 c11 -11 27 -18 36
-15 8 3 21 6 28 6 19 0 68 93 104 196 17 49 35 98 41 109 39 86 100 335 100
411 0 59 -55 120 -118 130 -23 4 -42 9 -41 13 0 3 18 38 39 76 46 82 176 344
231 466 22 48 41 110 45 142 7 55 6 57 -17 57 -13 0 -33 3 -44 5 -11 3 -25 2
-32 -3z"/>
<path d="M1370 1877 c-23 -12 -26 -22 -43 -157 l-17 -145 -48 -43 c-26 -24
-64 -52 -85 -63 -41 -22 -111 -117 -102 -140 3 -8 22 -21 41 -30 l35 -17 36
39 c20 22 80 74 132 116 53 42 116 93 141 113 25 19 79 61 120 92 141 105 165
137 116 159 -28 13 -46 4 -184 -94 -46 -33 -85 -57 -89 -54 -3 4 2 44 12 89
22 107 18 142 -15 146 -14 1 -36 -4 -50 -11z"/>
<path d="M1336 1378 c-26 -22 -27 -26 -29 -148 l-2 -125 -48 -45 c-27 -25 -64
-53 -83 -63 -38 -21 -111 -108 -120 -143 -8 -29 22 -74 50 -74 14 0 35 19 63
55 23 29 55 62 70 71 15 10 36 27 45 38 17 21 18 20 18 -19 1 -22 3 -62 5 -89
5 -52 -7 -86 -30 -86 -8 0 -15 -5 -15 -11 0 -7 -29 -38 -64 -70 -70 -65 -82
-89 -58 -119 34 -39 63 -35 110 15 24 25 48 43 53 39 18 -11 -15 -186 -43
-226 -23 -33 -159 -125 -199 -133 -16 -4 -29 -11 -29 -16 0 -4 -14 -16 -31
-24 -52 -27 -59 -83 -13 -104 35 -16 64 -14 87 7 10 9 38 28 61 42 24 14 60
38 82 53 94 67 115 80 219 132 61 31 126 64 145 75 46 25 67 32 115 37 22 2
43 7 46 11 13 14 17 102 5 103 -39 5 -105 -6 -135 -22 -20 -10 -42 -19 -49
-19 -13 0 -63 -29 -73 -42 -3 -5 -29 -17 -57 -27 l-52 -19 0 22 c0 12 5 27 11
33 7 7 14 63 18 127 6 115 6 117 38 146 18 17 35 30 39 30 4 0 26 18 50 40 24
22 50 40 58 40 23 0 25 24 4 50 l-19 24 -54 -19 c-30 -10 -62 -26 -71 -37 -10
-10 -24 -18 -32 -18 -13 0 -14 16 -9 105 5 96 9 112 41 172 20 37 36 73 36 80
0 21 -19 24 -46 6 l-27 -17 7 54 c4 30 8 71 9 90 2 33 0 35 -34 38 -27 2 -44
-3 -63 -20z"/>
<path d="M565 608 c-16 -12 -48 -40 -70 -63 -22 -22 -65 -59 -95 -80 -30 -22
-63 -50 -73 -62 -10 -13 -27 -23 -37 -23 -10 0 -25 -7 -34 -15 -8 -8 -19 -15
-25 -15 -21 0 -33 -39 -19 -67 18 -37 57 -45 112 -25 48 18 136 94 136 117 0
7 8 16 18 19 10 4 29 24 43 47 13 22 41 62 62 88 36 48 50 101 25 101 -7 0
-26 -10 -43 -22z"/>
</g>
</svg>
