<?xml version="1.0" standalone="no"?>
<!DOCTYPE svg PUBLIC "-//W3C//DTD SVG 20010904//EN"
 "http://www.w3.org/TR/2001/REC-SVG-20010904/DTD/svg10.dtd">
<svg version="1.0" xmlns="http://www.w3.org/2000/svg"
 width="209.000000pt" height="208.000000pt" viewBox="0 0 209.000000 208.000000"
 preserveAspectRatio="xMidYMid meet">
<metadata>
Created by potrace 1.16, written by Peter Selinger 2001-2019
</metadata>
<g transform="translate(0.000000,208.000000) scale(0.100000,-0.100000)"
fill="#000000" stroke="none">
<path d="M1479 1870 c-10 -11 -20 -46 -24 -91 -4 -41 -13 -89 -21 -108 -8 -19
-15 -58 -15 -88 -1 -32 -6 -52 -12 -50 -6 2 -31 -16 -56 -40 -25 -24 -49 -43
-53 -43 -4 0 -8 -15 -8 -33 0 -63 44 -75 100 -26 19 16 60 48 90 71 30 23 71
55 91 72 19 17 52 44 72 60 38 29 48 61 25 84 -20 20 -65 14 -85 -11 -25 -31
-73 -67 -89 -67 -9 0 -5 12 12 37 13 20 27 48 30 62 4 14 12 45 20 69 9 26 12
59 8 82 -6 37 -9 40 -38 39 -17 0 -38 -9 -47 -19z"/>
<path d="M539 1813 c-25 -6 -46 -53 -68 -153 -24 -111 -40 -162 -70 -210 -11
-19 -26 -46 -33 -60 -7 -14 -32 -58 -55 -98 -24 -40 -43 -77 -43 -82 0 -5 -8
-15 -18 -22 -20 -14 -93 -110 -111 -145 -19 -37 11 -83 55 -83 21 0 136 76
187 124 15 14 32 26 37 26 5 0 25 16 46 35 20 19 40 35 43 35 4 0 29 14 55 31
27 16 51 27 55 24 9 -10 -68 -148 -124 -223 -53 -70 -78 -113 -164 -273 -56
-106 -60 -127 -33 -152 38 -34 89 -16 168 59 92 88 207 190 228 201 11 7 38
17 58 23 24 7 50 27 78 60 23 28 48 50 55 50 57 0 67 -208 21 -425 -37 -176
-65 -263 -88 -271 -41 -13 -29 -104 14 -104 78 1 106 51 157 285 10 44 23 98
29 120 16 63 24 216 16 317 l-7 92 -50 54 c-50 52 -51 53 -35 80 9 15 23 41
31 57 8 17 24 48 35 70 11 22 45 116 76 209 74 224 76 282 9 320 -18 10 -49
-59 -58 -129 -4 -33 -14 -73 -22 -90 -27 -52 -30 -59 -43 -115 -7 -30 -26 -83
-41 -118 -16 -34 -29 -65 -29 -67 0 -3 -22 -40 -48 -83 -27 -42 -52 -86 -56
-97 -4 -11 -28 -50 -53 -87 -37 -54 -53 -69 -92 -83 -25 -10 -57 -28 -71 -40
-14 -12 -35 -28 -48 -34 -22 -12 -22 -11 -10 18 7 17 30 54 50 83 109 153 147
236 161 349 13 99 -56 96 -229 -8 -54 -33 -100 -56 -102 -52 -2 4 15 36 38 71
57 88 84 148 118 264 52 175 46 262 -19 247z"/>
<path d="M1408 1338 c-14 -10 -18 -32 -20 -111 l-3 -98 -38 -22 -37 -21 -16
22 c-13 18 -19 21 -30 11 -8 -6 -14 -17 -14 -23 0 -7 -18 -22 -40 -35 -42 -24
-53 -57 -27 -80 20 -16 75 -25 89 -14 12 9 95 33 116 33 15 0 21 -39 11 -68
-12 -32 -87 -90 -140 -109 -21 -7 -58 -35 -85 -63 -26 -27 -52 -50 -59 -50
-35 0 -26 -72 11 -89 39 -18 52 -14 107 32 28 23 56 45 62 49 5 4 29 23 52 43
24 21 47 34 54 30 8 -5 9 -33 5 -94 -13 -168 -70 -349 -116 -362 -14 -4 -61
-20 -105 -36 -88 -32 -101 -50 -69 -97 13 -20 25 -26 55 -26 21 0 41 5 44 10
3 6 15 10 26 10 25 0 186 53 229 75 18 9 53 19 79 22 25 2 55 11 67 18 12 7
38 17 59 21 37 7 38 6 33 -20 -7 -33 8 -45 49 -39 27 4 35 12 48 47 9 24 15
60 13 82 l-3 39 -60 6 c-44 4 -76 0 -119 -14 -33 -10 -82 -23 -110 -27 -28 -5
-62 -12 -75 -16 -28 -8 -29 -14 18 118 21 59 33 114 37 170 3 46 13 101 21
123 11 28 14 69 13 135 -3 125 -3 189 1 220 3 18 -2 28 -17 34 -18 8 -23 21
-28 80 -4 39 -10 74 -14 78 -15 15 -58 18 -74 6z"/>
<path d="M662 648 c-50 -51 -96 -97 -101 -103 -130 -133 -171 -177 -171 -181
0 -6 -16 -27 -57 -72 -38 -40 -40 -52 -16 -80 27 -32 75 -33 89 -3 5 11 38 51
74 88 72 77 130 147 130 160 0 5 11 20 25 33 14 14 30 30 35 35 39 38 114 190
104 207 -10 15 -21 7 -112 -84z"/>
</g>
</svg>
