<?xml version="1.0" standalone="no"?>
<!DOCTYPE svg PUBLIC "-//W3C//DTD SVG 20010904//EN"
 "http://www.w3.org/TR/2001/REC-SVG-20010904/DTD/svg10.dtd">
<svg version="1.0" xmlns="http://www.w3.org/2000/svg"
 width="208.000000pt" height="210.000000pt" viewBox="0 0 208.000000 210.000000"
 preserveAspectRatio="xMidYMid meet">
<metadata>
Created by potrace 1.16, written by Peter Selinger 2001-2019
</metadata>
<g transform="translate(0.000000,210.000000) scale(0.100000,-0.100000)"
fill="#000000" stroke="none">
<path d="M1405 1878 c-49 -17 -63 -37 -90 -127 -14 -47 -35 -108 -45 -135 -29
-72 -26 -116 11 -145 l30 -24 27 26 27 26 40 -19 c54 -26 77 -25 106 6 22 23
23 26 6 35 -21 12 -22 52 -2 69 8 6 17 22 21 33 3 12 26 46 50 76 58 71 57
111 -2 111 -17 0 -78 -45 -136 -99 l-38 -35 0 27 c0 15 13 55 30 90 28 58 28
63 12 78 -14 13 -23 15 -47 7z"/>
<path d="M497 1801 c-24 -24 -27 -34 -21 -67 7 -49 -41 -174 -113 -290 -27
-43 -62 -108 -77 -144 -16 -36 -37 -76 -48 -89 -14 -18 -17 -33 -12 -60 4 -20
12 -39 18 -43 22 -15 68 -8 99 16 18 13 61 38 97 56 35 17 75 40 88 51 50 39
54 19 13 -62 -15 -30 -33 -69 -40 -85 -6 -16 -21 -46 -34 -66 -12 -20 -39 -66
-60 -102 -21 -36 -43 -68 -48 -72 -19 -12 -39 -65 -33 -89 4 -18 15 -26 40
-31 29 -5 39 -1 79 33 24 22 80 83 124 135 43 52 104 111 135 133 60 41 64 48
40 72 -11 12 -27 14 -65 10 -54 -7 -57 -2 -34 42 8 16 19 59 25 96 10 60 9 70
-10 99 -19 31 -22 33 -62 26 -41 -7 -116 -42 -165 -77 -34 -23 -29 -4 32 111
30 57 55 111 55 120 0 9 17 49 38 89 73 143 77 164 36 196 -36 28 -64 26 -97
-8z"/>
<path d="M1155 1705 c-5 -2 -27 -6 -47 -10 -64 -10 -70 -24 -46 -103 17 -53
21 -96 22 -207 1 -116 4 -140 16 -140 10 0 22 22 33 60 10 33 24 69 30 80 6
11 12 72 13 138 1 74 6 122 14 132 23 27 -1 62 -35 50z"/>
<path d="M846 1627 c-15 -11 -17 -21 -12 -48 4 -19 10 -81 13 -139 5 -100 -5
-185 -38 -342 -7 -32 -7 -53 0 -66 11 -20 55 -37 70 -27 31 19 77 315 81 516
1 52 -3 70 -20 92 -24 30 -64 36 -94 14z"/>
<path d="M1585 1420 c-3 -5 -12 -10 -20 -10 -7 0 -37 -16 -66 -36 -51 -34 -80
-57 -172 -135 -23 -20 -60 -46 -82 -57 -22 -11 -60 -38 -85 -61 -25 -23 -51
-41 -57 -41 -16 0 -80 -64 -112 -111 -22 -33 -30 -37 -99 -48 -111 -17 -129
-40 -90 -119 20 -40 23 -63 24 -158 1 -61 4 -117 8 -123 12 -19 31 -13 53 17
26 36 34 76 40 202 2 57 9 110 14 117 7 8 27 10 58 6 46 -5 47 -5 81 41 19 25
38 46 41 46 8 0 -4 -62 -23 -120 -8 -25 -23 -79 -33 -120 -10 -41 -21 -80 -26
-85 -4 -6 -24 -55 -45 -110 -20 -55 -48 -114 -60 -131 -35 -45 -41 -89 -16
-103 15 -8 28 -8 46 0 32 15 100 112 116 167 16 52 40 77 40 41 0 -13 -4 -38
-9 -55 -8 -29 2 -198 14 -233 9 -25 90 -72 153 -87 84 -20 131 -17 177 11 22
13 54 31 72 40 17 9 50 37 72 61 46 51 49 72 27 186 -11 59 -18 72 -60 112
-58 57 -92 80 -106 71 -16 -10 -12 -29 20 -76 34 -52 58 -136 52 -180 -3 -23
-17 -39 -58 -66 -30 -20 -54 -40 -54 -44 0 -19 -107 -9 -151 14 l-44 24 0 99
c0 75 6 117 24 174 12 41 25 92 28 113 4 28 11 41 28 47 12 5 41 32 64 62 22
29 48 62 57 73 46 58 102 199 124 310 6 33 20 76 30 96 30 59 52 159 39 175
-14 17 -25 18 -34 4z m-141 -262 c-12 -85 -75 -267 -113 -328 -12 -19 -29 -52
-39 -72 -12 -26 -25 -38 -41 -40 -16 -2 -32 -16 -46 -43 -26 -45 -45 -56 -45
-26 0 22 48 180 60 196 4 6 13 33 20 62 8 36 19 57 36 68 32 21 27 36 -17 50
-42 15 -43 26 -3 45 48 24 137 86 158 109 29 32 37 26 30 -21z"/>
<path d="M600 615 c-14 -8 -46 -23 -71 -35 -26 -11 -60 -32 -75 -46 -16 -14
-50 -36 -76 -50 -27 -13 -48 -30 -48 -37 0 -7 -13 -23 -30 -35 -46 -35 -38
-86 15 -93 38 -4 61 11 203 142 24 21 47 39 52 39 6 0 10 4 10 8 0 5 11 14 25
20 14 7 28 20 32 29 3 10 15 25 26 34 40 33 -11 52 -63 24z"/>
</g>
</svg>
