<?xml version="1.0" standalone="no"?>
<!DOCTYPE svg PUBLIC "-//W3C//DTD SVG 20010904//EN"
 "http://www.w3.org/TR/2001/REC-SVG-20010904/DTD/svg10.dtd">
<svg version="1.0" xmlns="http://www.w3.org/2000/svg"
 width="205.000000pt" height="207.000000pt" viewBox="0 0 205.000000 207.000000"
 preserveAspectRatio="xMidYMid meet">
<metadata>
Created by potrace 1.16, written by Peter Selinger 2001-2019
</metadata>
<g transform="translate(0.000000,207.000000) scale(0.100000,-0.100000)"
fill="#000000" stroke="none">
<path d="M1035 1857 c-17 -12 -46 -34 -66 -49 -20 -16 -41 -28 -47 -28 -6 0
-51 -34 -101 -75 -112 -94 -125 -130 -60 -167 27 -16 33 -16 53 -3 12 8 37 35
56 60 33 44 141 145 156 145 4 0 26 18 50 40 24 22 48 40 53 40 5 0 11 9 14
20 11 42 -58 52 -108 17z"/>
<path d="M554 1808 c-25 -8 -46 -36 -122 -161 -50 -84 -98 -170 -105 -192 -8
-22 -33 -68 -56 -102 -74 -111 -76 -130 -20 -158 30 -16 33 -16 60 4 42 31 52
27 45 -16 -8 -44 -19 -76 -56 -158 -15 -33 -33 -77 -40 -99 -7 -21 -23 -54
-36 -74 -27 -39 -31 -84 -10 -101 8 -7 29 -14 48 -17 26 -5 38 -1 52 15 11 12
24 21 31 21 7 0 20 9 30 20 19 21 102 56 111 47 5 -5 -52 -138 -76 -177 -5 -8
-21 -37 -35 -64 -14 -26 -34 -60 -45 -73 -11 -14 -20 -32 -20 -40 0 -17 48
-63 65 -63 7 0 48 37 91 82 44 45 92 94 108 108 16 14 72 66 125 117 53 51
109 102 125 115 l29 22 -7 -28 c-7 -27 -81 -183 -131 -276 -37 -69 -74 -170
-68 -187 4 -10 18 -13 47 -11 41 3 41 4 81 83 86 170 160 255 348 398 76 58
87 46 37 -44 -16 -30 -37 -76 -46 -104 -10 -27 -25 -63 -34 -80 -9 -16 -29
-54 -45 -82 -15 -29 -34 -53 -42 -53 -8 0 -27 10 -43 22 -29 21 -30 21 -70 3
-32 -14 -40 -23 -40 -44 0 -36 10 -48 53 -66 34 -14 36 -17 30 -48 -3 -17 -14
-41 -24 -52 -10 -11 -24 -36 -33 -55 -10 -25 -20 -35 -37 -35 -27 0 -37 -28
-19 -50 31 -37 112 1 147 69 9 17 28 45 42 62 14 17 31 39 37 49 9 17 14 17
41 6 16 -6 49 -14 72 -16 155 -14 274 -40 316 -69 31 -21 55 -22 67 -3 8 13
-1 98 -13 113 -9 11 -101 30 -199 40 -68 7 -195 36 -206 47 -4 4 7 30 24 58
18 27 32 54 32 60 0 5 34 80 76 166 93 193 109 235 109 293 0 44 -1 45 -36 48
-25 2 -40 -3 -54 -18 -10 -11 -23 -20 -30 -20 -6 0 -20 -8 -31 -18 -11 -10
-33 -27 -49 -38 -17 -10 -65 -47 -109 -82 -43 -35 -80 -62 -82 -60 -2 2 10 47
25 99 23 74 40 110 79 162 71 93 104 151 96 171 -10 25 -24 19 -66 -29 -22
-25 -44 -45 -49 -45 -18 0 -8 22 27 57 37 36 37 37 16 53 -20 17 -20 17 8 43
16 15 33 27 38 27 5 0 16 7 23 16 7 9 24 20 37 25 18 7 23 15 20 37 -3 25 -6
27 -50 26 -27 0 -48 3 -48 7 0 5 15 23 34 41 48 47 96 127 96 160 0 17 -7 31
-19 38 -53 28 -110 -1 -281 -142 -155 -128 -190 -160 -190 -175 0 -7 16 -24
35 -39 l36 -27 29 28 c29 28 30 28 30 7 0 -12 -5 -22 -10 -22 -6 0 -16 -11
-22 -25 -10 -22 -8 -29 12 -50 12 -13 32 -25 44 -27 18 -3 20 -9 17 -47 -4
-62 -16 -89 -61 -136 -21 -22 -74 -80 -118 -130 -92 -103 -170 -181 -176 -174
-2 2 1 37 6 78 17 129 -17 156 -128 101 -36 -17 -68 -30 -70 -27 -6 6 52 176
66 192 13 15 25 192 17 227 -4 14 -16 28 -27 31 -20 5 -20 7 -5 44 9 21 28 56
43 78 15 22 31 48 37 57 5 9 28 48 51 85 45 74 60 134 41 164 -6 10 -14 19
-17 18 -3 -1 -19 -6 -36 -11z m556 -338 c0 -5 -8 -10 -17 -10 -15 0 -16 2 -3
10 19 12 20 12 20 0z"/>
</g>
</svg>
