<?xml version="1.0" standalone="no"?>
<!DOCTYPE svg PUBLIC "-//W3C//DTD SVG 20010904//EN"
 "http://www.w3.org/TR/2001/REC-SVG-20010904/DTD/svg10.dtd">
<svg version="1.0" xmlns="http://www.w3.org/2000/svg"
 width="209.000000pt" height="207.000000pt" viewBox="0 0 209.000000 207.000000"
 preserveAspectRatio="xMidYMid meet">
<metadata>
Created by potrace 1.16, written by Peter Selinger 2001-2019
</metadata>
<g transform="translate(0.000000,207.000000) scale(0.100000,-0.100000)"
fill="#000000" stroke="none">
<path d="M1100 1823 c-36 -7 -50 -22 -50 -54 0 -20 8 -33 30 -46 17 -9 30 -21
30 -25 0 -4 13 -8 30 -8 31 0 50 22 50 58 0 16 -51 84 -61 81 -2 -1 -15 -4
-29 -6z"/>
<path d="M687 1757 c-22 -10 -40 -38 -90 -142 -57 -119 -79 -158 -144 -260
-24 -38 -43 -97 -43 -136 0 -32 28 -59 63 -59 14 0 28 -3 30 -7 6 -10 -26
-150 -41 -183 -7 -14 -21 -37 -33 -52 -39 -48 2 -111 63 -94 13 3 64 44 113
91 51 48 96 83 103 80 8 -3 28 10 45 27 23 25 31 43 31 73 1 38 -1 40 -32 43
-35 4 -80 -23 -121 -71 -13 -15 -27 -25 -32 -20 -8 8 11 97 24 109 4 4 7 36 7
71 0 52 -3 65 -20 75 -27 17 -25 34 7 77 33 42 62 102 109 223 40 103 41 118
12 145 -20 18 -27 20 -51 10z"/>
<path d="M1190 1682 c0 -5 -17 -18 -38 -29 -66 -38 -102 -92 -102 -155 0 -28
7 -49 20 -63 l19 -21 -46 -59 -47 -60 -10 55 c-9 46 -15 56 -38 64 -23 8 -32
6 -52 -13 -24 -23 -33 -53 -43 -150 -3 -33 0 -62 7 -76 13 -24 12 -30 -14
-185 -16 -95 -49 -213 -92 -324 -17 -47 -23 -54 -26 -35 -4 31 -32 27 -73 -10
-16 -14 -41 -35 -54 -46 l-23 -20 7 35 c4 19 13 42 21 51 16 18 18 45 5 53
-12 8 -28 -13 -36 -46 -4 -15 -15 -34 -26 -44 -10 -9 -28 -36 -40 -61 -12 -25
-33 -50 -50 -59 -47 -24 -35 -83 21 -102 27 -10 33 -8 77 34 27 24 55 46 63
49 8 3 32 30 54 61 21 30 40 53 43 51 2 -3 -3 -27 -12 -54 -15 -43 -48 -187
-62 -271 -6 -40 10 -62 46 -62 46 0 61 19 66 85 7 82 41 225 76 317 16 42 29
82 29 88 0 5 4 18 9 28 23 47 49 138 86 307 10 44 21 87 25 95 5 8 14 35 21
58 10 33 35 66 104 135 132 132 175 212 175 325 l0 62 -45 0 c-25 0 -45 -4
-45 -8z"/>
<path d="M1580 1545 c-7 -8 -17 -15 -23 -15 -29 0 -239 -192 -305 -280 -15
-19 -32 -39 -39 -43 -22 -13 -134 -178 -154 -225 -11 -25 -34 -61 -51 -80 -42
-49 -56 -87 -74 -204 -11 -77 -12 -108 -4 -134 13 -37 16 -39 54 -24 19 7 26
17 26 36 0 42 22 104 36 104 19 0 40 -38 48 -82 7 -38 36 -68 67 -68 9 0 28
18 43 40 l27 41 44 -37 c25 -20 45 -37 46 -38 0 0 4 -47 8 -104 8 -117 18
-135 59 -112 24 14 27 22 30 79 l3 63 32 -6 c35 -6 94 -67 99 -101 2 -16 11
-20 37 -20 31 0 36 4 44 34 5 19 7 44 4 55 -39 175 -39 181 -33 346 3 91 8
188 10 215 2 28 9 122 15 209 8 116 15 166 27 184 12 18 16 45 15 95 -1 38 -4
73 -7 78 -9 15 -71 10 -84 -6z m-20 -138 c0 -1 -5 -18 -10 -37 -10 -34 -31
-243 -36 -370 -2 -36 -8 -121 -15 -190 -6 -69 -8 -162 -4 -207 6 -81 6 -81
-17 -76 -50 12 -55 25 -62 176 -19 382 -24 445 -37 490 l-14 49 87 84 c72 70
108 97 108 81z m-334 -461 c-3 -14 -15 -30 -26 -36 -17 -9 -20 -8 -20 10 0 21
38 66 47 56 3 -3 3 -16 -1 -30z m85 -223 c2 -35 0 -66 -4 -69 -3 -3 -17 2 -31
13 -31 22 -33 55 -6 111 11 22 20 49 21 59 2 37 18 -54 20 -114z"/>
</g>
</svg>
