<?xml version="1.0" standalone="no"?>
<!DOCTYPE svg PUBLIC "-//W3C//DTD SVG 20010904//EN"
 "http://www.w3.org/TR/2001/REC-SVG-20010904/DTD/svg10.dtd">
<svg version="1.0" xmlns="http://www.w3.org/2000/svg"
 width="208.000000pt" height="209.000000pt" viewBox="0 0 208.000000 209.000000"
 preserveAspectRatio="xMidYMid meet">
<metadata>
Created by potrace 1.16, written by Peter Selinger 2001-2019
</metadata>
<g transform="translate(0.000000,209.000000) scale(0.100000,-0.100000)"
fill="#000000" stroke="none">
<path d="M803 1828 c-6 -15 -9 -68 -5 -139 3 -75 -1 -165 -12 -259 -9 -80 -19
-163 -21 -186 -6 -51 8 -100 36 -130 l21 -22 -28 -52 c-16 -29 -37 -56 -49
-60 -11 -4 -31 -19 -45 -32 -14 -14 -44 -37 -67 -51 -23 -14 -44 -31 -48 -37
-3 -5 -15 -10 -26 -10 -19 0 -19 1 1 37 40 75 16 127 -56 121 -23 -2 -38 1
-37 7 2 6 14 42 29 80 74 197 55 254 -79 242 -52 -5 -58 -3 -54 11 3 10 22 62
42 117 72 193 90 290 61 315 -27 22 -66 -9 -106 -85 -20 -38 -49 -88 -64 -109
-14 -21 -26 -45 -26 -52 0 -7 -3 -19 -6 -28 -4 -12 0 -16 15 -16 18 0 20 -4
15 -27 -9 -37 -79 -179 -104 -211 -22 -28 -26 -72 -8 -90 18 -18 62 -15 89 7
49 38 138 81 154 74 28 -10 17 -41 -65 -203 -13 -25 -29 -58 -36 -75 -29 -67
-72 -154 -88 -176 -9 -13 -16 -31 -16 -40 0 -25 31 -57 62 -65 23 -5 29 -2 38
20 5 14 13 26 17 26 5 0 27 26 50 58 87 118 123 144 123 87 0 -22 -50 -107
-70 -120 -5 -3 -12 -19 -15 -36 -6 -27 -57 -113 -76 -129 -3 -3 -13 -19 -22
-35 -8 -17 -47 -64 -86 -105 -39 -41 -71 -82 -71 -91 0 -25 23 -47 56 -54 29
-5 37 0 112 75 45 44 82 85 82 90 0 5 18 26 40 46 22 21 40 43 40 49 0 7 9 20
20 30 20 18 28 65 12 65 -5 0 -28 -14 -51 -31 -24 -17 -45 -29 -47 -27 -2 2 4
20 12 39 14 30 21 35 50 35 18 0 41 8 52 17 10 9 24 17 30 17 23 0 101 42 126
67 26 26 56 26 56 0 0 -7 11 -19 24 -26 20 -11 32 -9 89 18 36 17 71 31 77 31
6 0 27 8 48 19 75 37 138 32 144 -12 0 -7 3 -23 5 -37 16 -118 16 -118 -22
-212 -20 -50 -47 -112 -61 -137 l-24 -45 5 139 c5 132 16 198 36 220 5 5 9 17
9 26 0 21 -57 46 -75 33 -7 -5 -49 -34 -94 -64 -49 -34 -81 -62 -81 -72 0 -10
-4 -18 -8 -18 -5 0 -20 -9 -33 -21 -13 -12 -36 -31 -50 -43 -27 -23 -49 -57
-49 -75 0 -21 33 -41 68 -41 31 0 47 10 100 59 34 32 62 62 62 66 0 16 62 85
72 79 14 -9 4 -108 -22 -208 -19 -76 -27 -225 -14 -260 6 -17 84 -24 84 -8 0
5 25 46 55 92 30 46 57 91 60 101 8 23 14 23 220 4 232 -22 266 -26 311 -34
32 -6 47 -4 64 9 13 10 21 24 18 31 -7 18 -122 59 -165 59 -17 0 -43 4 -57 10
-14 5 -78 16 -143 25 -150 20 -163 23 -163 38 0 6 22 38 48 69 84 103 112 140
112 152 0 6 8 16 19 23 10 6 45 51 78 100 58 86 60 91 46 116 -17 34 -51 35
-90 4 -15 -12 -38 -29 -49 -37 -120 -83 -148 -100 -164 -100 -12 0 -29 17 -45
44 -20 34 -33 45 -58 48 -34 6 -120 -4 -149 -17 -34 -14 -18 14 77 133 71 90
95 128 97 153 3 32 1 34 -32 37 -25 2 -47 -5 -73 -23 -44 -29 -62 -32 -52 -7
4 9 18 44 30 77 12 33 31 80 42 105 48 109 64 167 61 221 l-3 54 -36 3 c-23 2
-40 -2 -49 -12 -7 -9 -18 -16 -25 -16 -20 0 -58 -22 -90 -52 -27 -25 -30 -26
-37 -10 -3 9 -7 55 -8 102 -2 112 -17 154 -56 158 -24 2 -33 -2 -41 -20z m166
-368 c17 0 31 -4 31 -8 0 -29 -91 -215 -111 -228 -19 -11 -22 32 -10 134 7 58
15 110 17 114 3 4 14 4 24 -2 10 -5 32 -10 49 -10z m380 -642 c-6 -13 -26 -36
-45 -51 -30 -26 -35 -27 -41 -11 -4 12 4 27 30 51 44 40 72 45 56 11z"/>
</g>
</svg>
