<?xml version="1.0" standalone="no"?>
<!DOCTYPE svg PUBLIC "-//W3C//DTD SVG 20010904//EN"
 "http://www.w3.org/TR/2001/REC-SVG-20010904/DTD/svg10.dtd">
<svg version="1.0" xmlns="http://www.w3.org/2000/svg"
 width="206.000000pt" height="205.000000pt" viewBox="0 0 206.000000 205.000000"
 preserveAspectRatio="xMidYMid meet">
<metadata>
Created by potrace 1.16, written by Peter Selinger 2001-2019
</metadata>
<g transform="translate(0.000000,205.000000) scale(0.100000,-0.100000)"
fill="#000000" stroke="none">
<path d="M1071 2019 c-24 -17 -50 -37 -58 -45 -8 -8 -18 -14 -21 -14 -4 0 -18
-10 -32 -23 -14 -12 -36 -28 -50 -35 -37 -19 -63 -35 -106 -64 -22 -14 -57
-32 -79 -39 -22 -8 -60 -29 -85 -47 -25 -18 -61 -39 -80 -47 -99 -42 -154 -93
-143 -134 4 -17 41 -41 64 -41 6 0 39 20 74 44 34 25 86 56 113 70 28 14 53
30 57 36 3 5 14 10 24 10 10 0 26 9 36 20 10 11 24 20 31 20 7 0 19 6 26 13 7
7 39 26 72 42 32 17 71 42 86 56 43 39 78 60 84 50 3 -5 -1 -75 -10 -157 -14
-139 -17 -150 -41 -170 -28 -24 -112 -68 -118 -63 -5 6 15 121 25 144 22 51
21 74 -4 90 -20 13 -28 14 -52 3 -48 -22 -67 -48 -72 -100 -4 -43 -8 -50 -36
-62 -43 -18 -66 -43 -66 -71 0 -29 -12 -37 -61 -40 -21 -1 -46 -8 -54 -15 -17
-14 -20 -65 -5 -75 20 -12 9 -33 -22 -45 -48 -19 -69 -40 -62 -62 3 -11 -1
-27 -8 -36 -17 -19 -22 -97 -8 -122 13 -24 76 -24 108 0 13 11 31 20 38 20 8
0 14 5 14 10 0 6 6 10 14 10 15 0 23 -58 31 -210 2 -36 6 -76 8 -90 2 -14 5
-28 6 -32 0 -5 14 -8 29 -8 21 0 32 8 47 33 10 17 24 36 32 40 7 4 13 19 13
33 0 37 17 63 74 117 95 89 109 82 53 -28 -42 -81 -127 -179 -189 -217 -50
-31 -118 -102 -118 -124 0 -7 12 -25 28 -39 l27 -26 -31 -27 c-17 -15 -71 -72
-119 -127 -48 -55 -95 -104 -104 -109 -9 -5 -26 -18 -38 -29 -12 -11 -31 -25
-41 -31 -76 -44 -135 -91 -156 -125 -14 -22 -30 -42 -36 -46 -15 -9 -12 -51 6
-69 30 -30 62 -19 127 43 34 33 87 79 118 103 31 24 72 55 90 69 19 15 68 43
109 64 41 21 82 44 90 50 8 7 30 18 49 25 50 20 63 -2 60 -107 -2 -84 5 -104
42 -124 11 -6 27 -5 43 1 21 8 26 16 26 42 -1 99 13 264 23 277 6 7 77 45 157
83 232 111 230 110 230 161 0 49 -17 60 -74 47 -44 -10 -58 -18 -109 -66 -12
-11 -66 -42 -120 -69 -110 -53 -106 -54 -143 28 l-17 38 32 27 c29 24 33 33
35 87 3 61 22 106 72 167 12 15 28 54 35 85 11 49 52 121 81 143 12 10 27 142
29 251 1 69 6 110 15 124 12 18 11 24 -2 44 -14 20 -15 34 -4 119 6 53 16 117
21 142 6 25 12 71 14 103 l4 57 -52 0 c-41 -1 -61 -7 -96 -31z m-301 -239 c0
-5 -4 -10 -10 -10 -5 0 -10 5 -10 10 0 6 5 10 10 10 6 0 10 -4 10 -10z m297
-421 c-3 -84 -9 -155 -14 -160 -4 -4 -14 -4 -22 0 -10 7 -10 13 -2 29 34 63
-7 74 -95 28 -37 -20 -71 -36 -76 -36 -4 0 -8 18 -8 41 0 38 6 46 106 145 58
57 109 104 112 104 3 0 2 -68 -1 -151z m-259 -797 c3 -33 -1 -43 -15 -48 -10
-4 -51 -22 -92 -41 -40 -19 -76 -31 -79 -28 -9 9 157 167 171 163 6 -3 13 -23
15 -46z"/>
<path d="M262 1631 c-35 -32 -37 -39 -22 -88 6 -18 14 -48 20 -65 5 -18 14
-94 20 -168 14 -170 16 -180 39 -180 42 0 50 34 55 250 3 91 9 178 15 193 11
28 1 66 -17 68 -30 3 -49 7 -63 13 -10 5 -27 -3 -47 -23z"/>
<path d="M595 903 c-76 -10 -117 -51 -101 -101 4 -11 11 -46 16 -77 12 -71 32
-105 65 -105 27 0 55 42 55 84 0 13 11 48 25 78 33 71 33 106 -1 118 -14 6
-26 9 -27 9 -1 -1 -15 -4 -32 -6z"/>
</g>
</svg>
