<?xml version="1.0" standalone="no"?>
<!DOCTYPE svg PUBLIC "-//W3C//DTD SVG 20010904//EN"
 "http://www.w3.org/TR/2001/REC-SVG-20010904/DTD/svg10.dtd">
<svg version="1.0" xmlns="http://www.w3.org/2000/svg"
 width="206.000000pt" height="205.000000pt" viewBox="0 0 206.000000 205.000000"
 preserveAspectRatio="xMidYMid meet">
<metadata>
Created by potrace 1.16, written by Peter Selinger 2001-2019
</metadata>
<g transform="translate(0.000000,205.000000) scale(0.100000,-0.100000)"
fill="#000000" stroke="none">
<path d="M1230 2025 c-14 -8 -50 -26 -80 -40 -30 -14 -75 -38 -100 -55 -44
-29 -95 -55 -207 -106 -32 -15 -76 -39 -98 -54 -22 -14 -60 -34 -86 -43 -47
-18 -126 -83 -129 -108 -5 -34 2 -49 32 -63 41 -21 41 -21 80 14 38 35 49 37
68 10 8 -11 22 -20 31 -20 24 0 27 -8 15 -43 -24 -67 -91 -172 -143 -221 -60
-58 -69 -94 -31 -120 39 -27 62 -19 132 47 81 77 105 93 111 75 6 -20 25 -250
25 -311 0 -39 -6 -61 -20 -80 -48 -61 -66 -147 -31 -147 11 0 22 4 26 10 3 5
12 7 20 4 16 -7 22 -2 118 91 80 78 165 150 171 144 3 -2 0 -24 -6 -49 -24
-111 -39 -188 -45 -227 -7 -55 -24 -70 -48 -43 -10 11 -23 20 -28 20 -24 0
-141 -66 -154 -87 -18 -27 -11 -53 17 -60 11 -3 20 -7 20 -9 0 -14 -57 -109
-80 -134 -15 -16 -34 -40 -43 -53 -32 -50 -129 -147 -180 -180 -72 -48 -137
-116 -137 -144 0 -26 27 -43 68 -43 20 0 42 12 69 38 22 20 57 48 77 62 20 14
61 44 90 67 29 24 57 43 61 43 9 0 156 99 165 110 10 14 52 31 58 25 4 -4 8
-83 10 -176 l3 -169 54 0 53 0 -5 161 c-4 113 -2 182 7 230 13 68 15 71 54 89
62 28 98 120 47 120 -9 0 -36 -12 -60 -25 l-44 -25 6 42 c3 24 24 124 47 223
37 161 41 189 35 260 -3 44 -10 84 -15 89 -17 17 -88 -14 -170 -75 -45 -33
-89 -59 -98 -57 -18 3 -18 5 -24 223 -3 114 -1 123 25 179 23 51 25 62 14 73
-21 21 -56 8 -112 -42 -63 -56 -79 -58 -53 -5 11 22 24 40 28 40 16 0 60 93
60 126 0 37 -9 45 -60 54 l-35 6 35 17 c19 10 46 24 60 31 14 8 69 36 123 63
54 26 103 53 109 60 6 7 17 13 24 13 24 0 19 -39 -34 -255 -18 -74 -31 -107
-67 -177 -13 -26 -13 -28 6 -28 48 0 160 162 179 260 6 30 16 66 21 80 6 13
17 73 25 132 19 146 6 179 -56 143z m-197 -1510 c9 -25 6 -31 -16 -49 -53 -43
-113 -85 -131 -92 -28 -11 -11 30 41 98 65 85 89 95 106 43z"/>
<path d="M298 1649 c-19 -14 -28 -30 -28 -48 0 -29 36 -71 61 -71 16 0 89 -62
89 -76 0 -5 9 -27 20 -48 11 -23 17 -49 14 -65 -3 -14 1 -34 8 -44 13 -17 15
-17 37 7 21 22 24 35 24 99 0 67 -3 77 -35 123 -19 27 -37 57 -41 67 -7 18
-93 77 -111 77 -6 0 -23 -10 -38 -21z"/>
<path d="M1150 1314 c-73 -38 -170 -125 -170 -152 0 -10 7 -27 15 -40 16 -22
17 -22 71 7 26 14 141 109 171 141 36 38 39 50 21 68 -18 18 -37 14 -108 -24z"/>
<path d="M607 836 c-9 -7 -22 -27 -28 -45 -10 -28 -8 -35 14 -64 25 -33 57
-122 57 -161 1 -12 10 -32 21 -46 l21 -25 25 30 c24 27 25 33 18 109 -8 92
-34 169 -66 197 -26 22 -38 23 -62 5z"/>
</g>
</svg>
