<?xml version="1.0" standalone="no"?>
<!DOCTYPE svg PUBLIC "-//W3C//DTD SVG 20010904//EN"
 "http://www.w3.org/TR/2001/REC-SVG-20010904/DTD/svg10.dtd">
<svg version="1.0" xmlns="http://www.w3.org/2000/svg"
 width="205.000000pt" height="209.000000pt" viewBox="0 0 205.000000 209.000000"
 preserveAspectRatio="xMidYMid meet">
<metadata>
Created by potrace 1.16, written by Peter Selinger 2001-2019
</metadata>
<g transform="translate(0.000000,209.000000) scale(0.100000,-0.100000)"
fill="#000000" stroke="none">
<path d="M1559 1958 c-62 -42 -151 -114 -216 -176 -56 -54 -72 -56 -73 -9 0
55 -123 -12 -248 -136 -59 -58 -66 -72 -50 -104 23 -48 99 -48 117 -1 5 13 20
34 35 47 l25 24 -6 -39 c-3 -22 -10 -57 -15 -79 -5 -22 -9 -50 -9 -63 1 -13
-4 -32 -10 -43 -10 -20 -39 -192 -39 -237 0 -38 -95 -226 -166 -329 -35 -51
-64 -99 -64 -107 0 -20 39 -46 67 -46 21 0 22 -3 16 -47 -8 -64 -19 -83 -49
-83 -14 0 -38 -7 -55 -15 -40 -21 -184 -32 -203 -16 -19 16 -13 52 30 203 35
126 68 195 121 257 18 22 33 44 33 49 0 5 -12 17 -26 27 -26 17 -27 16 -83
-22 -69 -47 -95 -92 -132 -232 -43 -156 -52 -200 -55 -265 -3 -72 24 -133 63
-142 37 -10 198 3 268 21 33 9 78 20 100 26 54 14 65 25 66 73 1 28 3 33 6 16
5 -27 -14 -128 -27 -145 -17 -21 -35 -136 -24 -153 12 -18 71 -29 85 -15 18
18 61 253 66 363 5 106 4 120 -17 160 -12 25 -30 54 -40 65 -17 19 -16 23 36
115 30 52 65 124 79 160 14 36 43 88 66 115 43 53 67 70 56 40 -4 -9 -10 -29
-13 -43 -12 -55 -38 -118 -61 -150 -15 -20 -23 -43 -21 -60 3 -23 8 -27 36
-29 27 -1 43 7 75 38 39 36 57 47 57 33 0 -3 -25 -48 -56 -99 -62 -105 -63
-124 -9 -144 19 -7 35 -18 35 -25 0 -14 -31 -56 -83 -110 -43 -47 -47 -77 -12
-100 30 -20 32 -45 5 -79 -29 -36 -27 -90 4 -111 26 -16 49 -13 123 20 17 8
33 14 36 14 2 0 39 21 80 46 67 40 84 45 139 47 35 1 77 -2 94 -7 29 -7 32 -6
42 22 11 31 4 79 -18 133 -9 22 -19 29 -39 29 -31 0 -51 -16 -51 -41 0 -19
-18 -27 -76 -34 -21 -2 -70 -15 -109 -29 -38 -14 -70 -24 -71 -23 -2 1 6 20
16 42 11 22 19 45 20 52 0 6 18 31 40 54 43 46 57 91 44 136 -4 16 -8 44 -9
63 0 28 -5 37 -30 49 -26 12 -32 12 -57 -2 -35 -20 -37 -2 -3 25 14 11 25 27
25 37 0 10 3 21 7 25 10 10 11 48 2 74 -5 13 -25 30 -44 38 -19 8 -35 16 -35
19 0 3 14 32 32 66 21 41 45 69 69 85 21 13 46 35 56 49 10 15 29 40 42 56 65
82 129 490 88 568 -20 40 -48 43 -98 9z m11 -170 c0 -101 -31 -249 -68 -323
-42 -86 -51 -98 -66 -87 -35 28 -136 13 -173 -24 -8 -8 -19 -14 -25 -14 -14 0
-1 90 28 180 20 65 32 84 87 140 102 105 189 180 209 180 5 0 8 -23 8 -52z"/>
<path d="M573 1775 c-20 -14 -22 -24 -22 -111 0 -100 -13 -138 -49 -151 -25
-9 -62 -45 -62 -60 0 -8 13 -22 30 -31 16 -9 30 -21 30 -26 0 -20 -303 -321
-343 -340 -25 -13 -34 -50 -17 -71 24 -28 68 -28 138 1 83 35 154 72 209 107
24 15 45 27 47 27 8 0 -11 -56 -33 -96 -11 -22 -33 -66 -49 -99 -16 -33 -46
-91 -67 -130 -20 -38 -50 -95 -66 -125 -16 -30 -45 -74 -65 -98 -43 -52 -76
-124 -68 -147 9 -24 51 -37 75 -24 11 5 32 36 46 67 15 31 30 59 35 62 12 9
101 161 153 262 27 51 58 109 70 128 37 61 76 141 116 239 21 51 45 101 54
111 23 26 18 57 -12 77 -16 10 -31 22 -35 27 -15 23 -63 -9 -88 -58 -15 -30
-38 -55 -57 -66 -18 -9 -48 -29 -67 -44 -46 -34 -49 -33 -25 9 12 19 29 35 39
35 20 0 78 63 124 135 11 17 25 34 33 38 7 4 30 31 51 60 47 63 61 131 31 147
-10 6 -24 9 -31 8 -9 -2 -14 15 -16 62 -2 46 -7 69 -19 78 -23 16 -64 15 -90
-3z"/>
</g>
</svg>
