<?xml version="1.0" standalone="no"?>
<!DOCTYPE svg PUBLIC "-//W3C//DTD SVG 20010904//EN"
 "http://www.w3.org/TR/2001/REC-SVG-20010904/DTD/svg10.dtd">
<svg version="1.0" xmlns="http://www.w3.org/2000/svg"
 width="206.000000pt" height="209.000000pt" viewBox="0 0 206.000000 209.000000"
 preserveAspectRatio="xMidYMid meet">
<metadata>
Created by potrace 1.16, written by Peter Selinger 2001-2019
</metadata>
<g transform="translate(0.000000,209.000000) scale(0.100000,-0.100000)"
fill="#000000" stroke="none">
<path d="M1490 1875 c-24 -13 -158 -147 -207 -208 -37 -44 -45 -35 -39 45 3
45 1 77 -6 85 -17 20 -71 16 -86 -7 -6 -11 -27 -26 -45 -34 -49 -21 -194 -161
-206 -199 -20 -63 -23 -101 -8 -121 14 -19 106 -40 133 -29 22 8 17 35 -12 58
-26 21 -26 21 -10 60 15 36 93 121 102 112 3 -2 7 -51 10 -108 5 -112 21 -223
36 -252 6 -13 -1 -34 -27 -82 -32 -57 -40 -64 -60 -59 -30 7 -36 -4 -26 -48 7
-29 3 -50 -20 -108 -16 -39 -44 -92 -62 -116 -17 -25 -42 -58 -54 -75 -34 -46
-57 -132 -44 -158 7 -11 18 -21 26 -21 27 0 15 -18 -25 -39 -50 -26 -81 -20
-113 22 -27 36 -56 119 -55 157 0 14 -5 54 -10 89 -11 62 -10 65 19 107 20 30
29 55 29 84 0 48 -15 58 -67 42 l-34 -11 6 32 c4 18 11 36 16 41 5 6 9 18 9
28 0 11 9 36 20 58 25 49 25 61 0 90 -23 27 -23 24 -9 73 8 29 15 37 32 37 37
0 47 19 47 93 0 51 -5 76 -19 95 -10 15 -21 43 -25 63 -8 44 -26 62 -58 57
-38 -5 -68 -79 -79 -200 -14 -143 -13 -142 -54 -157 -24 -8 -35 -18 -35 -33 0
-17 5 -20 35 -16 28 3 35 1 35 -13 0 -11 -12 -19 -37 -24 -49 -9 -129 -50
-137 -70 -12 -33 -5 -46 31 -61 30 -13 44 -14 80 -3 24 6 46 10 48 7 6 -5 -11
-64 -27 -92 -5 -10 -16 -36 -23 -57 -21 -60 -171 -309 -186 -309 -3 0 -9 -11
-11 -25 -10 -48 60 -80 102 -47 50 38 57 35 52 -21 -2 -29 -8 -56 -12 -62 -4
-5 -11 -31 -14 -57 -6 -43 -5 -48 18 -64 40 -26 70 -12 83 38 6 24 17 57 24
73 7 17 13 50 14 75 2 48 20 94 34 85 5 -2 12 -21 16 -41 9 -50 33 -100 78
-161 39 -55 50 -59 122 -55 31 2 55 11 117 43 49 25 62 25 53 -3 -4 -13 -9
-40 -11 -61 -2 -21 -9 -47 -14 -57 -12 -23 2 -65 25 -74 39 -15 62 -6 89 34
18 28 26 53 26 85 0 50 1 51 33 31 20 -13 27 -11 84 24 34 21 64 35 67 32 3
-3 6 -28 6 -55 0 -44 -4 -53 -36 -83 -19 -19 -39 -34 -43 -34 -9 0 -41 -55
-41 -72 0 -21 38 -58 60 -58 11 0 41 15 67 34 64 44 265 140 328 154 28 7 98
13 157 13 119 1 118 0 118 83 l0 38 -57 -5 c-32 -4 -89 -8 -128 -11 -66 -4
-250 -47 -287 -67 -36 -19 -38 -12 -33 109 6 126 9 138 62 250 41 88 41 122
-2 136 -16 6 -32 11 -34 13 -10 6 23 71 51 100 21 22 33 46 38 78 6 42 5 48
-17 62 -29 19 -26 42 19 140 26 57 28 69 17 94 -6 16 -18 29 -27 29 -19 0 -72
-57 -106 -114 -36 -62 -62 -213 -44 -262 10 -29 9 -39 -6 -66 -36 -67 -54
-100 -59 -105 -3 -2 -33 22 -67 55 l-61 60 14 40 c8 22 27 58 44 79 16 21 35
54 43 73 23 60 72 153 100 190 15 19 40 58 56 85 15 28 34 55 41 60 7 6 24 41
38 78 13 37 33 79 43 92 25 31 44 102 40 146 -2 28 -7 34 -28 36 -14 1 -36 -5
-50 -12z m-50 -203 c0 -11 -12 -32 -26 -48 -14 -16 -36 -45 -49 -64 -29 -44
-85 -98 -85 -82 0 29 52 111 101 160 29 28 54 52 56 52 2 0 3 -8 3 -18z m-315
-772 c3 -11 22 -38 41 -61 19 -22 34 -44 34 -48 0 -11 -57 -51 -74 -51 -9 0
-16 14 -19 43 -2 23 -10 56 -17 74 -11 26 -11 34 -1 47 18 21 28 20 36 -4z
m-115 -209 c0 -30 -6 -44 -22 -55 -26 -19 -48 -21 -48 -5 0 16 53 99 63 99 4
0 7 -18 7 -39z m190 -47 c0 -4 -10 -17 -22 -29 -13 -12 -31 -31 -40 -43 -19
-23 -38 -29 -38 -12 0 6 18 28 40 50 37 37 60 50 60 34z"/>
</g>
</svg>
