<?xml version="1.0" standalone="no"?>
<!DOCTYPE svg PUBLIC "-//W3C//DTD SVG 20010904//EN"
 "http://www.w3.org/TR/2001/REC-SVG-20010904/DTD/svg10.dtd">
<svg version="1.0" xmlns="http://www.w3.org/2000/svg"
 width="209.000000pt" height="210.000000pt" viewBox="0 0 209.000000 210.000000"
 preserveAspectRatio="xMidYMid meet">
<metadata>
Created by potrace 1.16, written by Peter Selinger 2001-2019
</metadata>
<g transform="translate(0.000000,210.000000) scale(0.100000,-0.100000)"
fill="#000000" stroke="none">
<path d="M1385 2071 c-8 -16 -19 -31 -23 -33 -5 -1 -21 -25 -35 -52 -14 -27
-43 -69 -64 -94 -177 -208 -200 -229 -188 -169 4 17 13 51 21 75 17 53 18 126
2 140 -30 24 -82 16 -168 -26 -47 -23 -93 -47 -103 -54 -23 -17 -29 -7 -46 74
-18 88 -18 88 -40 88 -60 0 -96 -45 -74 -93 14 -31 33 -112 33 -143 0 -15 -13
-41 -30 -60 -55 -63 -50 -146 9 -159 40 -9 48 -2 63 48 16 57 69 117 151 171
63 42 117 59 117 37 0 -18 -40 -96 -72 -143 -18 -25 -46 -70 -63 -98 -16 -29
-42 -66 -56 -81 -15 -16 -35 -42 -45 -57 -33 -47 -142 -152 -159 -152 -14 0
-15 9 -10 63 4 34 11 77 17 95 14 48 -5 92 -41 92 -62 0 -82 -66 -110 -360
-10 -99 -58 -280 -82 -304 -5 -6 -9 -16 -9 -23 0 -24 -44 -74 -77 -88 -60 -25
-29 -64 40 -51 39 8 52 18 99 77 37 44 98 177 98 211 0 16 7 38 36 113 10 27
9 24 24 79 10 38 19 50 40 57 104 37 216 138 338 308 l44 61 32 -25 c18 -14
38 -25 43 -25 19 0 100 40 113 55 7 9 50 36 95 61 46 24 88 51 95 59 7 8 18
15 24 15 7 0 25 13 41 30 15 16 43 34 62 41 18 6 33 15 33 20 0 12 109 64 117
56 3 -4 -21 -36 -53 -72 -32 -37 -66 -76 -74 -89 -8 -12 -34 -39 -57 -60 -28
-25 -43 -47 -43 -62 0 -17 -8 -27 -25 -34 -14 -5 -25 -14 -25 -19 0 -5 -9 -13
-21 -16 -11 -4 -35 -19 -52 -34 -64 -55 -147 -90 -147 -62 0 5 -10 11 -22 14
-35 10 -64 -16 -72 -62 -5 -36 -13 -44 -80 -89 -41 -28 -98 -58 -126 -67 -29
-10 -60 -25 -70 -35 -9 -9 -36 -28 -59 -40 -34 -20 -41 -29 -41 -55 0 -17 5
-36 12 -43 16 -16 80 -16 96 0 9 9 12 5 12 -18 0 -25 8 -36 41 -57 22 -15 51
-27 64 -27 32 0 55 -10 55 -24 -1 -14 -206 -236 -291 -312 -220 -199 -239
-218 -239 -241 0 -29 37 -48 74 -39 14 3 40 19 58 34 18 16 59 43 90 61 56 31
57 31 63 10 9 -27 -13 -69 -36 -69 -17 0 -29 -19 -29 -47 0 -12 8 -13 40 -8
40 7 40 6 40 -25 0 -57 46 -118 104 -137 28 -9 64 -64 101 -154 8 -20 17 -24
50 -24 35 0 40 3 43 25 2 14 8 30 14 37 5 7 8 16 5 20 -5 8 -11 175 -8 228 1
22 10 36 36 53 19 12 42 22 50 22 9 0 18 6 21 14 3 8 21 17 40 20 19 4 34 11
34 15 0 5 16 18 35 30 32 19 48 51 26 51 -6 0 -50 -13 -99 -30 -50 -16 -99
-30 -111 -30 -19 0 -20 4 -14 47 7 56 46 117 86 134 15 6 27 15 27 20 0 4 18
18 39 30 22 12 49 35 61 51 12 17 37 36 56 44 26 11 34 20 34 40 0 17 -7 28
-20 31 -27 7 -26 12 14 55 31 34 40 58 37 96 -2 21 -34 13 -71 -19 -33 -28
-36 -28 -48 -12 -10 13 -13 42 -10 103 4 72 10 96 41 160 20 41 45 86 55 99
16 20 22 22 41 11 24 -13 97 -5 107 11 15 24 -6 56 -46 69 -66 22 -59 39 75
185 40 44 84 94 97 110 13 16 39 46 59 65 20 19 40 46 44 60 4 14 12 31 18 38
5 7 13 31 18 55 8 48 -9 77 -46 77 -38 0 -125 -30 -172 -61 -26 -16 -55 -29
-64 -29 -10 0 -19 -4 -21 -9 -12 -32 -178 -135 -178 -111 0 5 3 10 8 10 4 0
36 44 72 98 35 53 76 112 92 130 15 18 28 37 28 42 0 6 -27 10 -60 10 -56 0
-60 -2 -75 -29z m-183 -857 c-27 -69 -35 -125 -23 -170 24 -96 14 -146 -23
-109 -14 14 -15 32 -10 113 3 54 10 101 15 107 5 5 9 26 9 46 0 28 6 42 22 53
12 9 23 14 25 12 2 -2 -5 -25 -15 -52z m-162 -59 c0 -50 -3 -57 -25 -67 -20
-9 -34 -9 -61 1 -21 7 -50 10 -70 7 -51 -10 -41 5 29 43 34 19 73 43 86 53 36
27 41 23 41 -37z m-30 -332 c0 -47 -1 -48 -57 -83 -32 -19 -73 -45 -91 -58
-42 -28 -53 -21 -21 14 34 37 163 173 167 173 1 1 2 -20 2 -46z m-20 -190 c-1
-19 -29 -43 -50 -43 l-23 0 23 25 c22 24 50 34 50 18z m-11 -184 c1 -4 -9 -9
-21 -12 -13 -3 -47 -15 -75 -28 -29 -12 -56 -20 -60 -16 -13 13 46 62 95 78
43 15 48 15 54 0 4 -9 7 -19 7 -22z m-19 -153 c0 -32 -38 -47 -69 -27 -11 7
-10 11 5 20 18 10 64 15 64 7z"/>
</g>
</svg>
