<?xml version="1.0" standalone="no"?>
<!DOCTYPE svg PUBLIC "-//W3C//DTD SVG 20010904//EN"
 "http://www.w3.org/TR/2001/REC-SVG-20010904/DTD/svg10.dtd">
<svg version="1.0" xmlns="http://www.w3.org/2000/svg"
 width="206.000000pt" height="222.000000pt" viewBox="0 0 206.000000 222.000000"
 preserveAspectRatio="xMidYMid meet">
<metadata>
Created by potrace 1.16, written by Peter Selinger 2001-2019
</metadata>
<g transform="translate(0.000000,222.000000) scale(0.100000,-0.100000)"
fill="#000000" stroke="none">
<path d="M561 2149 c-18 -29 -18 -34 -4 -67 21 -49 24 -161 6 -189 -21 -32
-13 -66 21 -82 35 -16 51 -9 84 40 33 51 64 82 97 99 17 8 32 18 35 22 4 4 21
11 39 14 29 6 32 5 25 -9 -12 -21 -169 -183 -223 -230 -48 -42 -65 -43 -67 -5
-3 64 -51 67 -91 5 -42 -63 -51 -79 -68 -112 -8 -16 -20 -38 -27 -47 -10 -14
-10 -24 1 -53 11 -31 10 -39 -5 -62 -16 -25 -27 -58 -60 -183 -47 -175 -77
-254 -110 -286 -38 -36 -43 -60 -14 -69 21 -7 90 21 90 36 0 5 6 9 13 9 23 0
47 56 96 222 26 90 55 177 64 195 9 18 17 38 17 46 0 8 11 35 25 61 14 26 25
53 25 61 0 7 23 31 51 52 27 21 83 65 122 98 40 33 89 73 110 88 20 15 37 35
37 43 0 7 6 14 13 14 21 0 80 77 99 128 20 56 22 94 6 110 -22 22 -94 14 -156
-19 -33 -17 -78 -33 -101 -36 l-41 -6 0 45 c0 88 -70 131 -109 67z"/>
<path d="M1093 2077 c-91 -74 -109 -110 -78 -154 12 -18 22 -21 53 -17 20 3
54 13 75 21 20 9 39 14 42 11 10 -10 -45 -222 -63 -240 -16 -16 -78 16 -85 44
-3 10 -11 18 -19 17 -7 -2 -24 1 -36 5 -28 9 -62 -18 -87 -70 -10 -21 -29 -39
-48 -48 -35 -14 -68 -63 -51 -74 16 -10 34 -48 34 -69 0 -13 -35 -35 -131 -82
-72 -35 -133 -70 -136 -78 -9 -22 14 -62 43 -75 22 -10 31 -9 58 6 147 85 156
89 177 70 32 -28 24 -52 -18 -60 -61 -10 -145 -41 -154 -55 -5 -8 -9 -28 -9
-45 0 -30 12 -45 60 -74 12 -7 10 -13 -10 -35 -49 -50 -147 -140 -190 -175
-18 -14 -35 -32 -39 -41 -7 -17 -119 -119 -131 -119 -13 0 -20 -30 -14 -55 9
-35 81 -45 126 -18 56 33 78 35 88 7 6 -14 24 -33 41 -42 52 -29 79 -53 105
-93 13 -21 24 -42 24 -46 0 -5 -38 -49 -85 -98 -94 -100 -104 -128 -52 -153
30 -15 23 -18 139 60 31 20 66 40 80 43 21 5 27 1 43 -35 21 -47 43 -63 67
-49 21 11 38 69 38 125 0 40 30 84 58 84 6 0 17 8 24 19 7 10 27 21 43 24 17
3 55 14 85 25 30 11 82 26 115 32 33 7 78 18 100 25 22 7 77 19 122 26 84 13
113 23 101 34 -11 11 -219 8 -263 -3 -22 -6 -67 -13 -100 -17 -62 -7 -133 -23
-150 -36 -10 -7 -117 -39 -130 -39 -12 0 4 100 21 131 9 18 14 53 12 97 -2 80
5 97 32 82 29 -16 38 -12 56 22 13 25 15 48 10 106 -3 44 -2 81 5 93 7 15 6
27 -7 49 -15 25 -16 38 -7 97 6 37 20 88 31 113 11 25 26 63 31 86 6 22 19 48
29 57 17 16 24 16 95 -3 59 -15 83 -17 106 -9 56 20 52 73 -7 84 -20 3 -61 13
-89 21 -51 15 -53 17 -53 51 0 19 11 67 24 106 30 91 35 112 42 191 6 64 -8
134 -27 138 -5 0 -14 1 -21 2 -7 1 -22 11 -35 24 -31 31 -50 27 -110 -21z
m-116 -424 c18 -21 33 -41 33 -45 0 -9 -55 -48 -67 -48 -12 0 -30 34 -42 77
-8 27 -6 35 7 43 27 15 33 12 69 -27z m-118 -645 c9 -15 6 -21 -17 -35 -15
-10 -32 -23 -39 -29 -6 -6 -26 -17 -45 -24 -18 -8 -44 -22 -57 -32 -13 -10
-31 -18 -40 -18 -10 0 -35 -13 -57 -29 -39 -28 -95 -48 -93 -34 2 15 237 223
252 223 8 0 17 7 21 15 4 13 9 12 34 -2 17 -10 35 -25 41 -35z m1 -176 c0 -34
-5 -54 -17 -64 -32 -28 -203 -52 -203 -29 0 9 75 61 89 61 5 0 22 12 39 28 73
66 92 67 92 4z m-20 -189 c0 -25 -37 -82 -57 -90 -11 -4 -26 5 -46 27 l-30 33
29 15 c25 13 69 27 97 31 4 1 7 -7 7 -16z"/>
</g>
</svg>
