<?xml version="1.0" standalone="no"?>
<!DOCTYPE svg PUBLIC "-//W3C//DTD SVG 20010904//EN"
 "http://www.w3.org/TR/2001/REC-SVG-20010904/DTD/svg10.dtd">
<svg version="1.0" xmlns="http://www.w3.org/2000/svg"
 width="208.000000pt" height="211.000000pt" viewBox="0 0 208.000000 211.000000"
 preserveAspectRatio="xMidYMid meet">
<metadata>
Created by potrace 1.16, written by Peter Selinger 2001-2019
</metadata>
<g transform="translate(0.000000,211.000000) scale(0.100000,-0.100000)"
fill="#000000" stroke="none">
<path d="M858 1935 c-36 -20 -42 -45 -28 -118 11 -57 10 -67 -9 -116 -35 -88
-5 -91 81 -9 19 18 37 40 40 48 3 8 9 12 13 8 10 -9 -4 -44 -83 -208 -119
-249 -157 -322 -179 -346 -12 -13 -34 -39 -48 -58 -26 -34 -28 -35 -50 -20
-22 14 -26 14 -54 -7 -18 -13 -31 -32 -31 -44 0 -22 24 -61 52 -85 31 -25 27
-199 -7 -325 -15 -55 -30 -106 -35 -115 -18 -34 -49 -133 -44 -141 24 -40 130
86 154 184 5 18 18 65 29 104 13 45 21 102 21 147 0 41 5 87 12 101 9 20 9 37
-1 76 -12 45 -11 53 3 67 14 15 17 14 38 -5 58 -53 71 -50 169 42 48 44 246
221 292 260 9 8 21 15 25 15 5 0 10 -93 11 -207 2 -115 4 -242 5 -283 l1 -74
-40 -23 c-22 -12 -43 -23 -46 -23 -4 0 -6 22 -6 50 1 42 -4 55 -27 79 -16 16
-44 32 -64 36 -19 4 -50 17 -67 31 -18 13 -41 24 -53 24 -23 0 -62 -36 -62
-56 0 -14 46 -64 58 -64 14 0 112 -101 112 -115 0 -12 -136 -154 -195 -203
-41 -35 9 -107 59 -84 19 8 125 100 202 173 25 25 48 17 64 -22 7 -16 16 -29
20 -29 9 0 90 -181 90 -202 0 -19 37 -58 55 -58 31 0 53 69 43 140 -4 30 -12
129 -18 220 -7 91 -14 183 -17 205 -3 22 -8 134 -10 250 -4 164 -1 224 11 275
8 36 15 93 15 127 0 51 -4 65 -19 73 -15 8 -26 2 -63 -33 -24 -24 -46 -48 -48
-54 -7 -17 -144 -138 -284 -248 -38 -30 -83 -66 -99 -80 -27 -24 -56 -33 -56
-18 0 24 35 93 49 98 10 3 36 42 60 88 23 45 60 114 82 152 21 39 51 93 65
120 15 28 44 74 65 104 42 59 46 76 24 105 -11 15 -21 17 -50 12 -30 -6 -42
-17 -71 -62 -55 -86 -61 -75 -38 59 11 67 -49 99 -118 62z m406 -1253 c5 -73
-6 -79 -42 -25 l-31 48 27 26 c33 32 41 23 46 -49z"/>
<path d="M756 1552 c-3 -5 -27 -15 -53 -22 -92 -25 -163 -83 -163 -134 0 -20
31 -36 69 -36 39 0 61 9 61 26 0 21 71 89 107 104 39 15 54 31 45 47 -10 16
-58 27 -66 15z"/>
</g>
</svg>
