<?xml version="1.0" standalone="no"?>
<!DOCTYPE svg PUBLIC "-//W3C//DTD SVG 20010904//EN"
 "http://www.w3.org/TR/2001/REC-SVG-20010904/DTD/svg10.dtd">
<svg version="1.0" xmlns="http://www.w3.org/2000/svg"
 width="206.000000pt" height="211.000000pt" viewBox="0 0 206.000000 211.000000"
 preserveAspectRatio="xMidYMid meet">
<metadata>
Created by potrace 1.16, written by Peter Selinger 2001-2019
</metadata>
<g transform="translate(0.000000,211.000000) scale(0.100000,-0.100000)"
fill="#000000" stroke="none">
<path d="M1110 1923 c-22 -8 -60 -45 -60 -57 0 -6 -9 -17 -20 -24 -11 -6 -30
-29 -44 -50 -22 -35 -340 -362 -352 -362 -8 0 1 73 16 131 6 26 10 71 8 100
-3 50 -5 54 -30 57 -19 2 -34 -4 -50 -23 -30 -35 -45 -103 -68 -323 -5 -51
-12 -97 -14 -100 -3 -4 -9 -84 -15 -177 -6 -94 -16 -237 -22 -320 -5 -82 -12
-183 -14 -223 -2 -41 -7 -82 -10 -92 -3 -9 -1 -29 4 -43 9 -22 14 -25 33 -18
45 16 63 72 73 215 3 43 10 129 15 192 6 63 15 167 20 232 21 246 21 242 44
242 11 0 39 11 61 25 22 14 47 28 57 31 9 3 19 21 23 40 3 20 15 44 26 55 10
10 19 23 19 28 0 5 15 22 33 38 19 15 42 42 52 60 17 28 57 57 67 48 5 -5 -27
-233 -36 -261 -3 -11 -6 -64 -7 -119 -2 -101 -14 -152 -46 -187 -26 -29 -32
-21 -16 25 17 48 12 149 -8 173 -8 10 -21 13 -37 9 -44 -11 -71 -36 -98 -91
-26 -53 -26 -55 -10 -95 22 -54 15 -83 -40 -185 -47 -86 -54 -123 -28 -148 31
-31 65 -20 121 42 38 41 55 53 61 44 4 -6 16 -49 26 -95 41 -190 56 -242 72
-254 22 -16 60 -17 70 -2 4 6 8 100 9 208 1 108 7 244 13 302 6 59 11 158 12
220 2 182 44 393 115 574 19 49 23 70 17 110 -7 49 -15 58 -42 48z m-206
-1006 c0 -9 -1 -35 -2 -57 -1 -22 -6 -40 -11 -40 -13 0 -24 74 -16 100 8 24
30 22 29 -3z"/>
<path d="M1374 1851 c-27 -27 -60 -63 -73 -81 l-24 -32 -14 25 c-28 55 -88 42
-98 -21 -4 -20 -24 -100 -45 -177 -36 -127 -38 -142 -25 -162 16 -23 55 -39
78 -30 7 2 30 40 51 83 44 92 38 82 97 170 72 109 75 109 84 12 6 -69 12 -92
41 -139 57 -95 135 -117 142 -40 2 23 -5 42 -26 69 -16 20 -33 44 -38 52 -5 8
-11 83 -14 165 l-5 150 -41 2 c-38 2 -47 -3 -90 -46z"/>
<path d="M1545 1260 c-10 -11 -22 -20 -27 -20 -5 0 -31 -22 -57 -50 -26 -27
-50 -50 -54 -50 -7 0 -55 -33 -160 -113 -64 -48 -77 -63 -77 -86 0 -33 27 -61
59 -61 12 0 40 17 62 38 23 20 48 41 57 46 10 5 40 26 68 47 28 22 54 39 57
39 3 0 -7 -37 -24 -82 -17 -46 -33 -92 -36 -103 -9 -36 -92 -205 -100 -205
-20 0 -75 43 -83 65 -5 14 -22 41 -37 60 -23 28 -35 35 -63 35 -20 0 -41 -5
-48 -12 -15 -15 -15 -60 -1 -90 11 -22 123 -127 163 -152 17 -12 17 -15 -9
-67 -15 -30 -41 -69 -56 -87 -16 -18 -29 -37 -29 -42 0 -6 -8 -10 -18 -10 -17
0 -34 23 -45 60 -2 8 -8 -6 -12 -31 -10 -66 4 -89 57 -89 38 0 46 6 122 84 44
46 88 95 97 107 15 22 18 22 40 8 13 -9 62 -28 109 -44 47 -15 93 -31 102 -36
10 -5 23 -9 30 -9 20 0 118 -43 118 -52 0 -4 9 -8 21 -8 11 0 38 -18 60 -40
31 -31 47 -40 74 -40 38 0 48 11 52 55 1 17 4 46 5 65 l3 35 -45 0 c-43 0
-113 25 -125 44 -3 5 -36 19 -73 31 -37 12 -76 25 -87 30 -11 5 -50 16 -86 25
-37 10 -79 28 -93 40 -27 23 -27 24 -12 68 8 24 28 73 45 108 16 35 57 135 91
222 59 150 62 162 55 215 -4 32 -12 60 -19 64 -21 14 -53 8 -71 -12z"/>
</g>
</svg>
