<?xml version="1.0" standalone="no"?>
<!DOCTYPE svg PUBLIC "-//W3C//DTD SVG 20010904//EN"
 "http://www.w3.org/TR/2001/REC-SVG-20010904/DTD/svg10.dtd">
<svg version="1.0" xmlns="http://www.w3.org/2000/svg"
 width="206.000000pt" height="211.000000pt" viewBox="0 0 206.000000 211.000000"
 preserveAspectRatio="xMidYMid meet">
<metadata>
Created by potrace 1.16, written by Peter Selinger 2001-2019
</metadata>
<g transform="translate(0.000000,211.000000) scale(0.100000,-0.100000)"
fill="#000000" stroke="none">
<path d="M1415 1940 c-20 -8 -44 -32 -122 -118 -37 -42 -39 -42 -72 -30 -32
13 -34 12 -61 -21 -29 -34 -50 -116 -50 -195 0 -21 -7 -75 -16 -121 -16 -78
-16 -86 0 -110 18 -27 43 -32 68 -12 15 11 71 137 116 259 21 57 81 162 88
155 4 -3 -3 -42 -27 -152 -4 -22 -8 -64 -9 -94 0 -49 3 -57 39 -92 43 -43 73
-49 121 -24 16 8 32 24 35 35 8 26 -12 52 -35 45 -9 -3 -24 3 -35 15 -20 22
-18 59 9 235 20 132 20 199 0 219 -17 18 -21 18 -49 6z"/>
<path d="M985 1870 c-21 -16 -42 -30 -48 -30 -5 0 -31 -19 -56 -41 -117 -105
-142 -126 -185 -157 -42 -30 -48 -31 -62 -17 -18 18 -25 19 -58 3 -18 -8 -27
-22 -32 -47 -3 -20 -10 -49 -14 -66 -5 -16 -14 -147 -19 -290 -6 -143 -16
-296 -22 -340 -6 -44 -22 -159 -35 -255 -14 -96 -30 -211 -35 -255 -7 -51 -17
-90 -30 -108 -23 -32 -22 -55 4 -71 13 -8 24 -7 44 4 53 30 71 76 87 220 12
109 26 198 34 221 5 13 13 60 17 104 3 44 13 125 21 180 7 55 14 132 14 171 0
39 3 99 7 133 6 59 8 62 29 58 41 -8 47 47 9 78 -26 20 -26 20 -10 65 14 40
116 159 137 160 4 0 31 22 60 50 29 27 57 50 61 50 10 0 -1 -76 -13 -100 -13
-24 -48 -226 -60 -345 -6 -60 -16 -123 -20 -140 -5 -16 -12 -42 -15 -57 -5
-27 -28 -41 -24 -15 1 6 -1 34 -6 61 -10 61 -36 90 -73 81 -52 -13 -66 -43
-37 -81 21 -28 19 -40 -21 -137 -33 -78 -36 -90 -24 -112 16 -30 34 -37 66
-25 35 14 74 12 79 -2 14 -36 37 -188 45 -302 11 -151 23 -179 73 -174 29 3
32 7 40 48 4 26 3 87 -4 147 -15 127 -6 485 15 643 8 63 20 149 25 190 19 142
47 248 93 346 14 31 18 59 16 110 -4 82 -16 90 -73 44z"/>
<path d="M1544 1261 c-44 -23 -88 -53 -97 -68 -4 -6 -29 -22 -55 -35 -26 -12
-80 -42 -120 -65 -41 -24 -77 -43 -80 -43 -4 0 -26 -18 -49 -40 -58 -53 -57
-85 3 -106 29 -10 36 -8 95 32 138 95 213 143 217 139 2 -2 -12 -44 -32 -94
-20 -50 -36 -95 -36 -100 0 -6 -18 -48 -40 -95 -45 -99 -47 -99 -125 -26 -87
81 -116 93 -160 64 -31 -20 -32 -45 -1 -81 12 -15 28 -38 35 -50 6 -12 17 -20
24 -18 19 8 127 -72 127 -94 0 -13 -84 -119 -119 -149 -14 -13 -36 -27 -48
-32 -33 -13 -30 -48 4 -56 30 -8 98 23 132 60 58 61 133 136 138 136 3 0 41
-18 85 -40 44 -22 89 -40 100 -40 26 0 89 -33 113 -60 55 -61 144 -93 259 -91
100 2 130 15 134 61 5 45 -16 61 -64 50 -44 -10 -143 3 -181 24 -15 8 -38 20
-51 25 -12 6 -27 22 -34 36 -7 15 -19 25 -33 25 -12 0 -25 3 -29 7 -3 4 -34
16 -69 27 -34 12 -84 34 -111 50 -48 29 -48 29 -42 73 3 23 20 73 37 110 17
36 39 92 49 123 10 32 23 66 28 76 6 11 22 49 37 86 23 58 26 76 20 127 -4 33
-12 62 -19 64 -6 3 -25 -3 -42 -12z"/>
</g>
</svg>
