<?xml version="1.0" standalone="no"?>
<!DOCTYPE svg PUBLIC "-//W3C//DTD SVG 20010904//EN"
 "http://www.w3.org/TR/2001/REC-SVG-20010904/DTD/svg10.dtd">
<svg version="1.0" xmlns="http://www.w3.org/2000/svg"
 width="207.000000pt" height="211.000000pt" viewBox="0 0 207.000000 211.000000"
 preserveAspectRatio="xMidYMid meet">
<metadata>
Created by potrace 1.16, written by Peter Selinger 2001-2019
</metadata>
<g transform="translate(0.000000,211.000000) scale(0.100000,-0.100000)"
fill="#000000" stroke="none">
<path d="M1181 2101 c-22 -14 -31 -108 -21 -221 16 -193 -21 -280 -135 -313
-39 -11 -52 -20 -60 -41 -22 -63 88 -92 176 -47 22 12 44 21 50 21 5 0 27 11
47 25 60 41 80 30 44 -23 -43 -62 -124 -205 -184 -322 -72 -140 -90 -173 -99
-180 -4 -3 -22 -33 -41 -67 -19 -35 -37 -61 -39 -58 -9 9 1 617 11 653 5 20
10 52 10 70 0 18 9 62 21 98 25 76 20 174 -8 174 -9 0 -59 -44 -113 -97 -140
-142 -199 -195 -278 -252 -38 -28 -73 -59 -76 -68 -9 -23 -25 -5 -30 37 -12
90 -52 122 -104 83 l-27 -20 -2 -309 c-1 -170 -6 -340 -11 -379 -14 -108 -58
-326 -72 -360 -4 -11 -14 -36 -21 -55 -19 -53 -58 -110 -74 -110 -21 0 -29
-19 -15 -35 22 -26 58 -17 105 26 25 23 45 46 45 51 0 5 8 18 18 28 10 11 26
43 35 72 42 136 97 494 97 631 0 39 5 64 15 73 10 10 15 35 15 74 0 32 4 61 8
64 5 3 27 0 50 -6 49 -12 72 0 72 38 0 32 40 87 107 148 32 28 74 68 95 89 20
20 40 37 44 37 3 0 3 -21 -1 -47 -5 -27 -11 -97 -14 -158 l-6 -110 -27 3 c-15
2 -38 -4 -50 -12 -12 -9 -30 -16 -39 -16 -10 0 -31 -11 -47 -25 -17 -14 -37
-25 -47 -25 -56 0 -72 -50 -29 -91 40 -38 58 -83 43 -111 -6 -13 -15 -25 -19
-28 -5 -3 -23 -32 -41 -65 -17 -33 -50 -86 -72 -117 -38 -56 -39 -58 -23 -83
24 -36 61 -42 97 -16 16 11 44 31 62 43 17 13 62 51 99 85 36 35 72 63 78 63
10 0 11 -22 6 -91 -9 -119 -16 -149 -33 -149 -7 0 -17 10 -22 22 -8 22 -8 22
-14 -3 -4 -14 -2 -52 4 -85 5 -32 14 -86 20 -118 10 -58 24 -79 62 -89 27 -8
46 40 56 143 10 97 15 110 36 110 7 0 36 29 64 65 80 102 236 250 374 354 32
24 61 49 65 55 4 6 17 17 30 24 20 11 22 10 22 -9 0 -18 -73 -155 -90 -169 -4
-3 -14 -25 -24 -50 -26 -67 -129 -239 -143 -240 -7 0 -13 6 -13 13 0 7 -6 21
-13 31 -12 17 -16 17 -70 1 -63 -18 -87 -36 -87 -66 0 -25 42 -67 80 -81 17
-5 30 -15 30 -20 0 -16 -87 -134 -115 -156 -22 -18 -24 -23 -14 -46 17 -37 39
-36 83 1 22 18 45 33 51 33 14 0 45 34 71 78 10 18 27 35 37 38 20 6 126 -45
157 -76 10 -10 40 -30 66 -46 27 -15 54 -32 59 -39 6 -6 28 -22 50 -35 22 -13
54 -39 72 -57 25 -27 37 -32 56 -28 14 4 28 2 31 -4 4 -6 18 -11 31 -11 30 0
38 32 21 90 -11 37 -18 46 -45 53 -18 4 -54 23 -79 42 -26 19 -62 42 -79 51
-18 9 -33 20 -33 25 0 5 -4 9 -9 9 -15 0 -121 73 -170 117 l-45 40 21 39 c11
21 48 93 83 159 34 66 67 126 73 133 6 7 35 63 64 125 53 109 54 113 48 175
-4 39 -12 65 -20 68 -20 8 -178 -69 -217 -105 -173 -158 -250 -208 -205 -131
10 16 34 62 55 102 20 40 47 88 60 105 12 17 22 34 22 37 0 4 21 38 46 77 26
39 57 95 69 125 12 30 25 57 29 61 8 8 8 128 -1 136 -3 4 -12 2 -19 -4 -8 -6
-20 -9 -27 -6 -7 3 -21 -1 -32 -9 -10 -8 -25 -14 -32 -14 -7 0 -21 -7 -30 -15
-45 -40 -106 -85 -114 -85 -15 0 -10 20 6 26 35 14 44 64 47 267 l3 197 -35 0
c-19 0 -41 -4 -49 -9z m-363 -966 c-1 -68 -6 -99 -17 -112 -15 -19 -123 -93
-135 -93 -8 0 6 33 25 58 10 13 23 40 29 60 7 20 25 64 40 97 16 33 31 68 34
78 3 10 10 15 16 12 6 -4 9 -45 8 -100z"/>
</g>
</svg>
