<?xml version="1.0" standalone="no"?>
<!DOCTYPE svg PUBLIC "-//W3C//DTD SVG 20010904//EN"
 "http://www.w3.org/TR/2001/REC-SVG-20010904/DTD/svg10.dtd">
<svg version="1.0" xmlns="http://www.w3.org/2000/svg"
 width="207.000000pt" height="210.000000pt" viewBox="0 0 207.000000 210.000000"
 preserveAspectRatio="xMidYMid meet">
<metadata>
Created by potrace 1.16, written by Peter Selinger 2001-2019
</metadata>
<g transform="translate(0.000000,210.000000) scale(0.100000,-0.100000)"
fill="#000000" stroke="none">
<path d="M1095 1917 c-48 -23 -52 -28 -107 -140 -32 -64 -58 -122 -58 -130 0
-8 -7 -28 -15 -43 -8 -16 -15 -36 -15 -45 0 -9 -7 -22 -15 -29 -8 -7 -15 -16
-15 -21 0 -18 41 -49 64 -49 14 0 28 -5 31 -10 8 -13 -32 -100 -135 -292 -44
-81 -80 -157 -80 -169 0 -27 46 -68 69 -62 10 2 33 30 51 61 35 59 158 187
204 211 14 8 26 20 26 28 0 7 7 13 16 13 8 0 29 14 46 30 56 57 73 24 27 -55
-9 -16 -34 -75 -54 -130 -20 -55 -40 -109 -45 -120 -5 -11 -27 -67 -50 -125
-23 -58 -46 -109 -52 -115 -14 -15 -78 64 -78 97 0 40 -32 54 -83 37 -53 -17
-66 -46 -43 -96 17 -38 66 -94 120 -137 24 -19 28 -27 22 -51 -5 -21 -10 -25
-19 -16 -6 6 -16 11 -23 11 -35 0 -19 -100 18 -117 26 -11 88 1 88 18 0 5 12
21 26 34 22 20 30 23 48 13 11 -6 23 -14 26 -18 3 -4 28 -20 55 -35 28 -16 52
-31 55 -35 8 -11 127 -80 138 -80 5 0 15 -6 21 -14 26 -32 211 46 211 89 0 20
-17 27 -63 27 -23 -1 -60 4 -82 10 -22 6 -46 10 -53 9 -16 -3 -109 44 -137 69
-11 10 -36 25 -55 35 -19 9 -48 29 -63 43 -35 33 -33 45 39 215 30 70 54 132
54 138 0 6 6 25 14 42 8 18 25 61 39 97 22 58 45 110 93 217 8 17 14 35 14 40
0 5 18 29 39 52 33 35 40 51 43 92 3 47 2 49 -24 49 -17 0 -56 -23 -112 -65
-47 -35 -96 -70 -108 -76 -13 -7 -47 -31 -77 -53 -80 -61 -80 -61 -86 -55 -3
3 4 35 15 70 28 90 26 140 -5 167 -14 12 -31 21 -38 19 -16 -3 -13 43 7 85 18
38 79 117 124 163 16 17 37 42 46 57 16 25 16 27 -5 47 -28 26 -33 26 -94 -2z"/>
<path d="M733 1780 c-18 -11 -33 -24 -33 -29 0 -9 -133 -182 -212 -274 -49
-58 -81 -122 -74 -145 3 -9 22 -30 41 -45 l35 -28 25 25 c14 14 25 33 26 43 0
22 82 166 96 170 11 4 27 -62 19 -76 -3 -4 -8 -59 -11 -122 -3 -63 -8 -139
-11 -169 -8 -68 -8 -75 -25 -337 -7 -117 -16 -213 -20 -213 -10 0 -27 56 -39
129 -8 45 -6 60 11 95 21 44 20 86 -6 181 -13 46 -18 52 -57 66 -50 19 -79 12
-103 -25 -15 -22 -15 -30 6 -109 l23 -85 -28 -61 c-15 -34 -26 -69 -24 -79 4
-22 47 -43 79 -39 25 3 27 -1 48 -77 12 -45 41 -119 64 -166 39 -77 45 -85 74
-88 29 -3 33 0 43 35 6 21 15 128 20 238 5 110 16 294 25 410 9 116 22 292 29
393 8 108 19 188 26 197 27 32 24 205 -3 205 -7 0 -27 -9 -44 -20z"/>
<path d="M212 1419 c-17 -12 -32 -24 -32 -27 0 -4 -3 -74 -6 -157 -2 -82 -9
-186 -14 -230 -5 -44 -12 -143 -15 -220 -7 -159 -68 -486 -98 -523 -7 -9 -7
-16 1 -24 14 -14 61 8 70 32 3 8 16 32 29 53 36 58 88 272 98 400 9 132 29
287 37 287 5 0 6 16 2 35 -8 44 23 125 49 125 9 0 17 5 17 10 0 6 -3 10 -8 10
-4 0 -8 19 -8 43 -1 54 -45 177 -70 194 -16 10 -24 9 -52 -8z"/>
</g>
</svg>
