<?xml version="1.0" standalone="no"?>
<!DOCTYPE svg PUBLIC "-//W3C//DTD SVG 20010904//EN"
 "http://www.w3.org/TR/2001/REC-SVG-20010904/DTD/svg10.dtd">
<svg version="1.0" xmlns="http://www.w3.org/2000/svg"
 width="207.000000pt" height="211.000000pt" viewBox="0 0 207.000000 211.000000"
 preserveAspectRatio="xMidYMid meet">
<metadata>
Created by potrace 1.16, written by Peter Selinger 2001-2019
</metadata>
<g transform="translate(0.000000,211.000000) scale(0.100000,-0.100000)"
fill="#000000" stroke="none">
<path d="M1346 2095 c-36 -27 -49 -65 -91 -255 -36 -170 -117 -357 -185 -427
-44 -46 -50 -71 -22 -96 25 -23 46 -21 92 8 22 14 43 25 48 25 5 0 17 9 27 20
18 20 161 120 171 120 4 0 3 -8 -1 -17 -20 -52 -81 -252 -106 -347 -15 -60
-32 -113 -38 -119 -13 -13 -37 6 -57 45 -11 21 -22 28 -45 28 -48 0 -69 -16
-69 -54 0 -27 11 -43 66 -94 l65 -62 -11 -38 c-6 -20 -15 -46 -20 -57 -4 -11
-13 -36 -20 -55 -18 -53 -31 -79 -73 -152 -62 -107 -75 -93 -78 85 -1 98 1
110 20 131 23 25 27 52 9 58 -33 11 -108 -5 -134 -29 -22 -21 -25 -30 -20 -61
15 -91 24 -230 17 -267 l-8 -40 -12 30 c-22 54 -42 178 -45 282 -3 86 0 109
15 138 23 43 24 61 3 69 -18 7 -18 11 10 321 21 234 27 258 87 377 26 51 26
125 -1 133 -10 3 -32 -1 -47 -9 -50 -27 -217 -200 -293 -303 -23 -32 -55 -44
-62 -23 -6 18 -68 -1 -84 -25 -11 -16 -15 -69 -18 -216 -2 -113 -10 -231 -20
-284 -35 -205 -46 -291 -47 -378 0 -51 -4 -128 -8 -172 -4 -44 -4 -88 1 -97
15 -30 44 -20 74 23 27 40 28 45 36 232 5 106 16 237 25 292 8 55 19 145 25
200 6 72 13 103 25 110 54 34 57 41 44 74 -17 39 -5 73 56 155 42 57 144 174
129 147 -5 -7 -10 -45 -11 -85 -4 -93 -24 -297 -31 -307 -3 -5 -16 -9 -30 -9
-34 0 -81 -26 -88 -47 -2 -10 -3 -83 -2 -162 3 -132 5 -145 24 -160 12 -10 27
-42 37 -81 20 -78 55 -179 83 -240 11 -25 26 -64 31 -86 12 -47 27 -62 61 -66
17 -2 28 4 37 22 8 16 19 24 32 22 23 -3 71 19 90 42 7 9 29 18 50 22 20 3 65
14 101 24 36 10 93 23 127 30 35 7 77 23 95 36 17 13 38 24 45 24 8 0 31 11
51 25 20 14 42 25 49 25 12 0 19 -39 15 -80 -5 -42 11 -130 23 -130 17 0 41
53 55 125 6 33 16 76 21 95 11 45 26 167 35 293 4 65 11 103 21 113 21 21 12
47 -21 63 -23 10 -34 11 -48 2 -10 -6 -24 -11 -32 -11 -26 0 -30 -22 -32 -165
-1 -77 -5 -158 -9 -180 -5 -39 -8 -41 -75 -68 -154 -63 -320 -103 -320 -77 0
6 21 44 46 86 25 42 57 100 70 130 13 30 27 54 30 54 3 0 32 -14 64 -31 73
-39 104 -36 106 9 1 24 -5 38 -24 52 -13 11 -31 20 -38 20 -7 0 -27 15 -43 32
-29 30 -30 37 -25 83 4 28 13 65 20 83 7 18 28 88 45 155 18 67 38 131 44 142
7 11 16 35 20 54 4 18 16 53 27 78 33 76 29 193 -7 193 -30 0 -205 -104 -205
-122 0 -5 -12 -13 -26 -18 -15 -6 -40 -20 -56 -31 -16 -12 -31 -20 -33 -18 -6
6 35 89 44 89 10 0 91 156 91 175 0 8 5 15 10 15 6 0 10 9 10 19 0 11 3 21 8
23 4 2 20 41 36 88 16 47 40 104 53 128 35 60 26 92 -25 92 -20 0 -45 -7 -56
-15z"/>
</g>
</svg>
