<?xml version="1.0" standalone="no"?>
<!DOCTYPE svg PUBLIC "-//W3C//DTD SVG 20010904//EN"
 "http://www.w3.org/TR/2001/REC-SVG-20010904/DTD/svg10.dtd">
<svg version="1.0" xmlns="http://www.w3.org/2000/svg"
 width="209.000000pt" height="213.000000pt" viewBox="0 0 209.000000 213.000000"
 preserveAspectRatio="xMidYMid meet">
<metadata>
Created by potrace 1.16, written by Peter Selinger 2001-2019
</metadata>
<g transform="translate(0.000000,213.000000) scale(0.100000,-0.100000)"
fill="#000000" stroke="none">
<path d="M789 1790 c-66 -71 -109 -98 -109 -71 0 5 -12 16 -26 26 -23 15 -33
16 -65 6 -21 -6 -42 -17 -46 -24 -7 -11 -19 -167 -26 -332 -2 -39 -6 -75 -9
-81 -4 -6 -14 -93 -23 -195 -9 -101 -18 -192 -21 -203 -13 -42 -23 -191 -24
-354 0 -216 9 -244 78 -226 21 6 22 12 20 63 -1 31 -1 115 0 186 2 150 -6 134
133 257 l86 76 11 -81 c7 -45 14 -113 17 -152 9 -103 13 -115 42 -126 20 -7
30 -6 41 4 20 20 26 154 11 251 -12 79 -12 80 12 95 13 8 47 40 76 70 29 30
55 52 59 48 4 -4 2 -13 -4 -19 -7 -7 -12 -20 -12 -30 0 -10 -9 -32 -20 -50
-11 -18 -20 -39 -20 -47 0 -8 -14 -36 -31 -63 -39 -60 -34 -93 16 -114 31 -13
40 -12 84 5 27 10 69 37 92 61 24 23 54 49 67 57 12 8 22 21 22 27 0 7 12 23
26 37 14 13 46 50 71 82 25 32 47 56 50 54 2 -3 0 -40 -6 -83 -5 -44 -13 -226
-16 -406 l-7 -326 22 -12 c30 -16 69 -4 74 23 3 12 8 101 12 197 15 398 19
485 27 483 4 -2 20 -3 36 -3 16 0 37 -7 46 -16 40 -40 65 21 65 161 1 114 27
277 76 475 44 174 50 283 18 307 -22 16 -74 6 -96 -18 -9 -10 -20 -19 -25 -19
-5 0 -19 -11 -31 -25 -12 -13 -39 -33 -61 -45 -42 -21 -46 -28 -56 -115 -3
-27 -15 -111 -27 -185 -17 -110 -26 -142 -49 -175 -15 -22 -35 -67 -45 -99
-11 -41 -28 -71 -53 -96 -20 -20 -63 -66 -96 -103 -32 -37 -63 -67 -68 -67
-14 0 -2 60 22 112 11 25 32 80 46 123 21 63 36 88 81 134 29 31 54 61 54 67
0 7 7 14 15 17 15 7 35 64 27 85 -6 17 -44 15 -92 -4 -23 -9 -43 -14 -45 -12
-7 7 22 188 35 223 6 17 29 47 51 68 41 40 47 62 26 90 -18 25 -149 13 -183
-17 -23 -20 -24 -26 -29 -226 -8 -289 -9 -297 -53 -342 -20 -21 -40 -38 -45
-38 -5 0 -36 -18 -68 -40 -65 -44 -71 -46 -88 -26 -9 11 -10 28 -1 73 10 48 9
66 -4 103 -30 87 -15 334 25 412 31 60 28 188 -4 188 -7 0 -46 -36 -88 -80z
m827 -162 c-18 -96 -31 -144 -39 -153 -13 -14 2 102 18 143 16 37 27 42 21 10z
m-870 -60 c-3 -13 -6 -87 -6 -165 l0 -141 -27 -9 c-16 -6 -45 -8 -65 -5 -31 3
-38 8 -38 26 0 39 30 161 40 164 5 2 12 19 16 37 3 19 12 39 20 46 8 6 14 16
14 22 0 14 30 47 43 47 5 0 7 -10 3 -22z m773 -414 c-6 -27 -9 -67 -8 -89 2
-58 1 -65 -16 -65 -19 0 -19 -6 2 127 11 66 21 105 24 94 4 -9 3 -40 -2 -67z
m-779 -2 c0 -11 -49 -78 -87 -118 -16 -17 -39 -44 -50 -60 -12 -16 -24 -26
-27 -23 -3 3 -2 39 3 79 10 78 25 100 67 100 12 0 27 7 34 15 13 16 60 21 60
7z"/>
</g>
</svg>
