<?xml version="1.0" standalone="no"?>
<!DOCTYPE svg PUBLIC "-//W3C//DTD SVG 20010904//EN"
 "http://www.w3.org/TR/2001/REC-SVG-20010904/DTD/svg10.dtd">
<svg version="1.0" xmlns="http://www.w3.org/2000/svg"
 width="210.000000pt" height="209.000000pt" viewBox="0 0 210.000000 209.000000"
 preserveAspectRatio="xMidYMid meet">
<metadata>
Created by potrace 1.16, written by Peter Selinger 2001-2019
</metadata>
<g transform="translate(0.000000,209.000000) scale(0.100000,-0.100000)"
fill="#000000" stroke="none">
<path d="M657 2083 c-28 -47 -61 -147 -62 -193 -2 -46 -25 -129 -66 -235 -20
-50 -39 -117 -39 -135 0 -46 -53 -171 -127 -298 -24 -40 -43 -76 -43 -81 0 -4
-9 -16 -20 -26 -11 -10 -20 -23 -20 -30 0 -7 -9 -20 -21 -31 -51 -46 -60 -106
-17 -117 26 -7 59 14 94 61 36 47 96 112 105 112 12 0 18 -74 10 -124 -7 -38
-15 -54 -42 -75 -19 -14 -49 -41 -67 -58 -18 -18 -37 -33 -42 -33 -12 0 -70
-62 -70 -76 0 -6 -11 -20 -25 -32 -14 -12 -25 -27 -25 -32 0 -23 33 -60 54
-60 11 -1 43 -9 70 -18 46 -17 51 -21 65 -67 16 -49 17 -50 56 -50 22 0 48 4
57 10 26 14 168 -65 237 -131 30 -30 64 -57 75 -60 12 -3 31 -16 43 -27 15
-13 37 -21 64 -21 39 -1 43 2 51 29 4 17 8 109 7 205 0 96 4 281 10 410 6 129
13 332 17 450 3 118 10 242 15 275 6 33 12 90 15 128 l4 67 -27 0 c-19 0 -36
-10 -53 -30 -14 -16 -29 -31 -35 -31 -5 -1 -55 -50 -110 -110 -158 -172 -206
-221 -211 -216 -9 9 48 226 66 252 4 6 18 42 30 80 12 39 28 77 36 85 7 8 18
38 25 65 6 28 18 72 26 99 20 68 14 76 -51 76 -30 0 -57 -3 -59 -7z m242 -580
c-1 -152 -5 -169 -52 -213 -22 -22 -43 -37 -47 -35 -14 9 3 58 21 62 11 3 19
11 19 19 0 20 -33 33 -90 35 -61 3 -73 -9 -66 -66 3 -22 8 -62 12 -90 l6 -50
-61 -53 c-34 -29 -66 -50 -71 -47 -12 8 -13 42 -1 49 5 3 6 26 4 50 -5 38 0
53 30 103 20 33 45 67 57 78 11 10 20 24 20 31 0 7 6 17 13 21 13 9 79 81 141
156 59 70 66 64 65 -50z m-13 -355 c-16 -154 -16 -154 -48 -178 -16 -12 -31
-20 -33 -18 -1 1 1 46 5 99 6 78 12 103 31 128 38 51 52 42 45 -31z m-178
-178 c-4 -35 -16 -62 -46 -105 -47 -65 -50 -75 -24 -97 41 -36 59 -30 131 43
68 67 108 89 97 52 -10 -37 -18 -204 -18 -355 1 -124 -2 -158 -12 -158 -12 0
-38 15 -113 69 -62 43 -173 111 -181 111 -5 0 -17 9 -27 20 -17 19 -18 26 -6
83 6 34 17 96 22 137 15 110 29 157 53 181 32 32 109 78 119 72 5 -3 7 -27 5
-53z m-294 -237 c-6 -52 -14 -73 -25 -73 -17 0 -49 20 -49 30 0 12 60 80 71
80 4 0 6 -17 3 -37z"/>
<path d="M1465 1823 c-30 -7 -150 -129 -200 -204 -25 -36 -45 -68 -45 -72 0
-12 -43 -57 -54 -57 -6 0 -24 -11 -41 -24 -24 -19 -30 -34 -36 -82 -4 -33 -12
-79 -17 -103 -6 -25 -8 -50 -5 -58 6 -14 68 -34 86 -27 11 4 41 61 106 204 19
42 101 193 128 236 24 38 24 3 1 -83 -20 -76 -23 -109 -21 -244 1 -120 5 -164
17 -187 24 -46 44 -62 79 -62 25 0 39 8 60 36 28 34 28 36 11 55 -10 11 -24
17 -31 15 -20 -8 -30 27 -37 139 -7 109 6 195 58 363 40 130 23 174 -59 155z"/>
<path d="M1355 841 c-16 -3 -52 -18 -80 -32 -34 -18 -60 -25 -82 -22 -30 5
-144 -28 -170 -49 -23 -18 -14 -44 30 -92 50 -53 88 -60 123 -23 29 30 165
132 186 140 58 21 27 -149 -44 -241 -57 -73 -110 -91 -164 -56 -22 15 -24 21
-18 65 8 58 -4 63 -47 20 -70 -71 3 -176 126 -180 59 -2 135 27 158 61 8 13
26 35 40 51 29 31 47 83 47 142 1 22 7 58 15 80 9 25 11 43 5 49 -6 6 -10 16
-10 24 0 18 -55 72 -72 71 -7 -1 -26 -4 -43 -8z"/>
</g>
</svg>
