<?xml version="1.0" standalone="no"?>
<!DOCTYPE svg PUBLIC "-//W3C//DTD SVG 20010904//EN"
 "http://www.w3.org/TR/2001/REC-SVG-20010904/DTD/svg10.dtd">
<svg version="1.0" xmlns="http://www.w3.org/2000/svg"
 width="207.000000pt" height="209.000000pt" viewBox="0 0 207.000000 209.000000"
 preserveAspectRatio="xMidYMid meet">
<metadata>
Created by potrace 1.16, written by Peter Selinger 2001-2019
</metadata>
<g transform="translate(0.000000,209.000000) scale(0.100000,-0.100000)"
fill="#000000" stroke="none">
<path d="M1259 1882 c-14 -9 -73 -64 -130 -122 -57 -58 -138 -131 -179 -163
-41 -31 -98 -75 -127 -98 -41 -32 -56 -39 -69 -31 -12 7 -30 6 -56 -4 -21 -7
-45 -11 -53 -8 -8 4 -27 -1 -41 -11 -22 -14 -25 -22 -21 -53 6 -37 21 -116 32
-162 12 -52 11 -236 -2 -285 -7 -27 -13 -96 -13 -152 0 -101 0 -103 25 -109
29 -7 29 -5 14 -145 -17 -167 15 -272 74 -240 12 7 36 20 53 29 37 19 174 146
174 160 0 5 11 14 25 20 14 6 44 30 68 51 39 36 46 39 63 27 10 -7 33 -16 49
-19 17 -2 98 -19 180 -36 83 -17 177 -32 210 -35 87 -6 116 -15 150 -46 60
-53 147 -58 153 -7 2 16 -1 27 -9 27 -7 0 -41 27 -76 61 -43 41 -69 60 -82 56
-10 -2 -74 6 -142 20 -68 13 -158 29 -199 37 -76 13 -127 33 -148 58 -8 11 -7
20 6 40 34 52 78 104 147 176 84 87 89 96 75 122 -19 35 -68 26 -119 -20 -39
-35 -70 -53 -57 -32 8 13 45 295 51 392 8 141 27 294 36 305 5 5 9 51 9 102 0
81 -2 94 -19 103 -25 13 -21 13 -52 -8z m-62 -297 c-3 -52 -8 -99 -11 -104 -3
-4 -16 -6 -28 -4 -16 3 -41 -10 -85 -44 -34 -26 -85 -64 -113 -83 -109 -74
-140 -102 -140 -125 0 -25 14 -39 47 -49 30 -9 106 41 204 136 121 117 110
119 105 -18 -10 -208 -21 -275 -62 -360 -36 -72 -37 -77 -20 -90 17 -12 17
-14 0 -43 -29 -50 -53 -56 -118 -32 -49 18 -60 19 -93 8 -33 -11 -38 -16 -36
-42 2 -55 18 -100 36 -103 9 -2 17 1 17 7 0 6 9 11 20 11 11 0 20 -4 20 -9 0
-16 -35 -71 -44 -71 -6 0 -33 -24 -62 -54 -29 -30 -63 -57 -75 -61 l-22 -7 7
108 c4 60 11 113 15 119 4 5 13 30 21 55 7 25 17 49 22 55 4 5 8 17 8 26 0 19
63 108 107 152 36 36 105 84 149 102 30 12 34 19 34 49 0 34 -2 36 -35 36 -32
0 -133 -42 -145 -60 -12 -18 -135 -90 -146 -86 -7 3 -18 -2 -24 -10 -25 -29
-31 -13 -26 59 2 39 5 124 5 189 1 115 1 116 24 111 12 -3 30 -13 39 -21 16
-14 26 -6 120 90 94 95 274 258 286 258 2 0 2 -43 -1 -95z"/>
<path d="M784 1880 c-21 -8 -34 -46 -34 -95 0 -31 46 -50 84 -35 15 5 42 10
60 10 39 0 56 15 56 51 0 39 -9 44 -130 74 -8 2 -24 0 -36 -5z"/>
</g>
</svg>
