<?xml version="1.0" standalone="no"?>
<!DOCTYPE svg PUBLIC "-//W3C//DTD SVG 20010904//EN"
 "http://www.w3.org/TR/2001/REC-SVG-20010904/DTD/svg10.dtd">
<svg version="1.0" xmlns="http://www.w3.org/2000/svg"
 width="208.000000pt" height="207.000000pt" viewBox="0 0 208.000000 207.000000"
 preserveAspectRatio="xMidYMid meet">
<metadata>
Created by potrace 1.16, written by Peter Selinger 2001-2019
</metadata>
<g transform="translate(0.000000,207.000000) scale(0.100000,-0.100000)"
fill="#000000" stroke="none">
<path d="M1085 1721 c-3 -5 -10 -33 -15 -62 -6 -29 -14 -57 -18 -61 -4 -4 -46
-13 -92 -20 -47 -6 -109 -22 -137 -35 -48 -21 -53 -26 -59 -62 -6 -36 -11 -42
-55 -60 -26 -12 -52 -29 -57 -38 -12 -21 4 -69 26 -78 34 -14 64 -15 78 -5 13
12 34 6 34 -10 0 -5 18 -36 40 -69 53 -80 89 -100 110 -61 7 13 7 26 1 37 -16
29 -41 120 -41 147 0 20 7 27 38 36 20 7 41 16 46 21 6 5 19 9 29 9 18 0 19
-6 12 -72 -3 -40 -13 -96 -21 -125 -8 -28 -11 -58 -8 -67 3 -9 2 -16 -2 -16
-5 0 -25 -10 -44 -22 -62 -40 -183 -107 -269 -150 -86 -43 -171 -113 -171
-142 0 -8 14 -23 32 -32 29 -15 33 -15 62 1 17 10 40 26 51 36 29 25 219 122
222 112 7 -24 25 -400 29 -603 3 -129 7 -241 10 -248 6 -21 19 -7 49 53 43 89
47 151 31 495 -6 110 4 233 19 248 2 3 28 -20 57 -50 38 -39 80 -68 149 -102
53 -26 105 -46 114 -44 14 2 26 29 47 108 43 153 104 314 152 401 24 41 48 90
54 109 16 45 15 107 -2 113 -29 11 -263 -88 -351 -149 -11 -8 -25 -14 -32 -14
-8 0 -32 -12 -56 -27 -58 -37 -110 -64 -115 -58 -5 5 34 71 58 100 10 11 23
45 30 75 32 140 40 159 84 183 34 18 41 28 41 52 0 27 -3 30 -33 30 -36 0 -50
24 -38 69 10 41 -2 56 -44 56 -22 0 -41 -4 -45 -9z m355 -476 c0 -3 -11 -22
-23 -43 -13 -20 -30 -55 -37 -77 -7 -22 -26 -76 -42 -120 -17 -44 -34 -101
-38 -127 -11 -60 -16 -68 -43 -67 -62 2 -161 88 -213 185 l-19 35 29 22 c36
26 67 44 176 98 47 23 101 52 121 65 40 25 89 41 89 29z"/>
</g>
</svg>
