<?xml version="1.0" standalone="no"?>
<!DOCTYPE svg PUBLIC "-//W3C//DTD SVG 20010904//EN"
 "http://www.w3.org/TR/2001/REC-SVG-20010904/DTD/svg10.dtd">
<svg version="1.0" xmlns="http://www.w3.org/2000/svg"
 width="208.000000pt" height="207.000000pt" viewBox="0 0 208.000000 207.000000"
 preserveAspectRatio="xMidYMid meet">
<metadata>
Created by potrace 1.16, written by Peter Selinger 2001-2019
</metadata>
<g transform="translate(0.000000,207.000000) scale(0.100000,-0.100000)"
fill="#000000" stroke="none">
<path d="M1294 2000 c-13 -5 -29 -30 -44 -69 -18 -49 -25 -59 -38 -52 -10 5
-26 5 -41 -1 -15 -6 -58 -14 -98 -18 -105 -13 -111 -19 -105 -101 4 -59 2 -70
-13 -75 -10 -4 -40 -22 -67 -40 -27 -19 -68 -39 -90 -44 -22 -6 -72 -28 -112
-49 -58 -30 -72 -42 -74 -63 -2 -20 4 -32 27 -49 17 -13 38 -24 47 -25 9 -1
45 17 81 42 35 24 69 44 74 44 6 0 30 16 53 35 24 19 48 35 55 35 7 0 11 -31
11 -98 0 -99 9 -128 40 -133 33 -6 66 11 81 43 21 42 53 167 45 175 -8 8 -36
-17 -36 -32 0 -7 -7 -18 -15 -25 -12 -10 -15 -9 -15 5 0 28 33 155 40 155 3 0
15 8 26 18 29 26 75 54 81 49 2 -3 -4 -50 -15 -104 -10 -54 -20 -134 -21 -178
-5 -158 -2 -153 -116 -214 -173 -93 -246 -135 -290 -167 -16 -12 -41 -25 -54
-29 -41 -12 -113 -59 -133 -86 -17 -23 -18 -29 -6 -48 13 -22 51 -38 78 -32 8
2 29 16 47 31 17 16 42 31 55 35 13 4 31 15 41 23 24 21 83 57 127 78 19 9 47
25 62 35 14 11 66 39 114 64 49 25 91 49 94 54 6 10 115 61 130 61 6 0 8 -10
6 -22 -19 -87 -25 -135 -31 -218 -3 -52 -12 -113 -19 -135 -8 -22 -19 -59 -25
-82 -7 -24 -16 -43 -20 -43 -27 0 -43 61 -60 230 -8 83 -21 116 -50 125 -27 8
-45 -2 -63 -38 -36 -72 -53 -191 -63 -422 -6 -143 -14 -213 -35 -315 -10 -47
-36 -214 -45 -288 l-5 -42 34 0 c33 0 36 3 46 43 6 23 15 56 21 73 5 17 7 38
3 47 -3 9 3 31 14 49 12 19 24 61 28 98 3 36 11 70 16 77 8 10 16 74 32 272 7
74 20 84 54 41 52 -67 67 -80 98 -86 28 -5 32 -3 44 28 7 18 19 40 25 48 30
39 52 145 79 377 8 67 22 136 31 154 12 22 18 60 19 118 l1 86 -33 -3 c-18 -1
-51 -16 -74 -32 -22 -17 -48 -30 -58 -30 -9 0 -21 -5 -28 -12 -15 -15 -15 -11
3 122 13 94 28 168 43 210 3 8 7 22 8 30 2 8 10 40 19 70 9 30 19 67 22 82 3
15 16 34 29 43 49 32 72 121 25 95 -13 -7 -22 -7 -26 0 -7 12 -62 12 -91 0z
m-169 -210 c-10 -11 -21 -17 -24 -14 -3 3 3 12 13 20 28 20 32 17 11 -6z"/>
</g>
</svg>
