<?xml version="1.0" standalone="no"?>
<!DOCTYPE svg PUBLIC "-//W3C//DTD SVG 20010904//EN"
 "http://www.w3.org/TR/2001/REC-SVG-20010904/DTD/svg10.dtd">
<svg version="1.0" xmlns="http://www.w3.org/2000/svg"
 width="210.000000pt" height="208.000000pt" viewBox="0 0 210.000000 208.000000"
 preserveAspectRatio="xMidYMid meet">
<metadata>
Created by potrace 1.16, written by Peter Selinger 2001-2019
</metadata>
<g transform="translate(0.000000,208.000000) scale(0.100000,-0.100000)"
fill="#000000" stroke="none">
<path d="M1405 2057 c-12 -6 -36 -21 -55 -32 -18 -11 -49 -34 -69 -50 -20 -17
-52 -38 -72 -47 -20 -9 -52 -30 -70 -46 -42 -36 -109 -82 -120 -82 -5 0 -9 14
-9 30 0 28 -3 30 -34 30 -19 0 -38 -5 -41 -10 -4 -6 -25 -23 -48 -37 -55 -34
-59 -40 -52 -90 6 -41 5 -42 -35 -63 -75 -38 -103 -120 -54 -159 28 -22 51
-18 72 11 7 10 17 18 21 18 14 0 23 -67 27 -199 4 -133 11 -156 43 -127 25 23
40 134 39 287 0 64 2 125 6 135 3 10 23 30 44 44 37 24 103 60 110 60 2 0 1
-21 -2 -47 -3 -27 -8 -137 -11 -245 -3 -109 -9 -208 -14 -221 -5 -13 -24 -30
-43 -37 -18 -8 -46 -24 -61 -37 -16 -13 -34 -23 -41 -23 -7 0 -41 -19 -77 -43
-35 -23 -84 -51 -109 -61 -59 -24 -150 -120 -150 -158 0 -30 3 -33 45 -42 26
-6 39 1 95 48 108 91 134 111 160 123 14 6 45 21 70 32 25 12 59 30 75 40 70
45 192 97 202 87 13 -13 4 -131 -16 -201 -11 -38 -29 -103 -40 -142 -26 -94
-71 -159 -71 -103 0 11 -6 29 -12 40 -9 15 -10 25 -2 38 28 45 -3 191 -44 207
-22 8 -82 -25 -86 -49 -2 -11 -13 -70 -25 -131 -12 -68 -22 -175 -26 -280 -3
-93 -10 -190 -15 -215 -5 -25 -14 -74 -20 -110 -6 -36 -16 -82 -21 -104 -24
-91 40 -55 77 44 10 25 21 50 26 56 23 31 49 138 54 229 5 93 19 165 31 165 3
0 16 -9 30 -20 45 -35 106 -2 157 85 34 58 92 255 106 361 13 106 12 253 -3
272 -12 15 -67 7 -117 -19 -46 -23 -80 -32 -80 -22 0 4 9 37 21 73 11 35 19
74 18 85 -8 71 20 284 51 390 11 37 68 105 88 105 4 0 24 16 43 36 18 19 51
45 71 56 42 24 54 44 37 64 -14 17 -47 18 -74 1z"/>
</g>
</svg>
