<?xml version="1.0" standalone="no"?>
<!DOCTYPE svg PUBLIC "-//W3C//DTD SVG 20010904//EN"
 "http://www.w3.org/TR/2001/REC-SVG-20010904/DTD/svg10.dtd">
<svg version="1.0" xmlns="http://www.w3.org/2000/svg"
 width="209.000000pt" height="208.000000pt" viewBox="0 0 209.000000 208.000000"
 preserveAspectRatio="xMidYMid meet">
<metadata>
Created by potrace 1.16, written by Peter Selinger 2001-2019
</metadata>
<g transform="translate(0.000000,208.000000) scale(0.100000,-0.100000)"
fill="#000000" stroke="none">
<path d="M1611 2023 c-8 -3 -52 -30 -99 -59 -47 -30 -101 -57 -121 -60 -19 -4
-49 -15 -66 -26 -37 -21 -79 -27 -226 -32 -146 -5 -171 -22 -134 -92 8 -16 15
-37 15 -46 0 -23 -62 -54 -127 -63 -29 -4 -69 -15 -90 -26 -20 -10 -45 -19
-55 -19 -27 0 -43 -37 -27 -66 22 -42 86 -48 149 -15 60 31 150 55 161 44 7
-7 7 -40 0 -102 -10 -90 -3 -141 18 -141 6 0 22 5 36 12 30 14 42 50 50 168 4
47 12 96 18 109 12 25 118 89 149 90 17 1 22 -13 34 -102 8 -60 29 -71 58 -32
15 22 21 46 23 105 3 95 10 116 50 138 18 9 65 39 105 66 40 27 94 63 121 80
59 38 62 70 7 73 -19 1 -41 -1 -49 -4z"/>
<path d="M1669 1233 c-1 -5 0 -18 0 -29 1 -12 -15 -41 -38 -68 -50 -58 -52
-85 -8 -125 36 -35 69 -44 142 -39 48 3 50 4 50 33 0 25 -5 30 -33 36 -55 11
-70 33 -67 92 2 51 -16 107 -35 107 -6 0 -10 -3 -11 -7z"/>
<path d="M823 1158 c-10 -13 -32 -107 -53 -233 -14 -78 -70 -264 -100 -333
-20 -45 -27 -145 -12 -169 23 -36 102 -33 257 11 122 35 254 61 360 72 33 3
89 12 124 21 35 8 94 13 130 12 90 -4 95 0 87 75 -7 68 -29 136 -60 181 -25
37 -30 41 -89 60 -76 25 -87 7 -32 -53 42 -48 80 -131 65 -146 -5 -5 -22 -11
-37 -12 -59 -5 -238 -36 -248 -44 -5 -4 -43 -11 -83 -14 -89 -9 -174 -26 -266
-55 -93 -29 -99 -28 -93 12 6 34 56 204 81 272 8 22 17 63 21 90 13 105 12
103 46 62 39 -48 139 -82 200 -68 51 12 51 12 36 44 -8 18 -25 29 -55 38 -23
6 -45 16 -48 21 -8 13 25 60 47 65 10 3 19 14 19 24 0 16 -5 18 -27 14 -56
-12 -164 -48 -169 -56 -14 -24 -24 -4 -21 46 1 41 -2 58 -13 65 -21 14 -56 12
-67 -2z"/>
<path d="M680 914 c-19 -9 -71 -33 -115 -54 -115 -54 -303 -109 -325 -95 -17
10 3 43 36 61 19 10 34 26 34 36 0 21 -17 23 -39 4 -9 -7 -47 -24 -85 -36 -97
-32 -136 -56 -136 -86 0 -42 72 -68 180 -67 53 1 157 30 227 63 34 17 67 30
72 30 6 0 11 4 11 10 0 5 17 16 38 25 44 20 44 20 116 69 31 21 56 43 56 47 0
14 -31 10 -70 -7z"/>
</g>
</svg>
