<?xml version="1.0" standalone="no"?>
<!DOCTYPE svg PUBLIC "-//W3C//DTD SVG 20010904//EN"
 "http://www.w3.org/TR/2001/REC-SVG-20010904/DTD/svg10.dtd">
<svg version="1.0" xmlns="http://www.w3.org/2000/svg"
 width="207.000000pt" height="211.000000pt" viewBox="0 0 207.000000 211.000000"
 preserveAspectRatio="xMidYMid meet">
<metadata>
Created by potrace 1.16, written by Peter Selinger 2001-2019
</metadata>
<g transform="translate(0.000000,211.000000) scale(0.100000,-0.100000)"
fill="#000000" stroke="none">
<path d="M1038 1936 c-14 -10 -18 -28 -18 -83 0 -62 -3 -72 -22 -85 -33 -21
-88 -42 -94 -36 -9 10 20 63 54 100 34 36 38 68 9 68 -29 0 -84 -29 -125 -67
-37 -33 -44 -47 -54 -98 -6 -33 -12 -65 -13 -71 -3 -11 -34 -28 -136 -73 -25
-11 -52 -27 -59 -36 -7 -8 -20 -15 -30 -15 -26 0 -42 -26 -44 -69 -1 -53 25
-81 75 -81 21 0 50 -5 64 -12 37 -17 51 0 36 43 -9 27 -8 35 6 51 14 15 74 48
88 48 6 0 34 -79 39 -109 15 -88 26 -111 51 -111 31 0 56 26 50 53 -2 12 -7
42 -9 67 -3 25 -9 70 -15 100 -5 34 -5 59 0 67 10 11 110 63 122 63 14 0 7
-123 -10 -186 -27 -101 5 -98 53 5 15 31 30 58 34 61 12 8 30 71 30 104 0 48
23 101 56 132 16 16 42 45 57 65 26 35 26 37 11 67 -8 18 -20 32 -27 32 -6 0
-26 -17 -44 -37 -28 -30 -36 -34 -44 -22 -5 7 -9 24 -9 36 0 37 -49 54 -82 29z"/>
<path d="M1021 1271 c-19 -22 -38 -45 -42 -53 -4 -7 -51 -47 -104 -88 -54 -41
-122 -96 -152 -122 -30 -25 -86 -61 -124 -79 -38 -18 -69 -36 -69 -41 0 -4 -5
-8 -11 -8 -6 0 -34 -16 -63 -35 -29 -19 -59 -35 -67 -35 -19 0 -95 -79 -103
-106 -5 -16 0 -27 20 -43 44 -35 55 -32 157 50 73 58 174 126 207 139 38 15
92 50 183 119 32 24 60 41 63 38 4 -3 1 -34 -5 -69 -16 -91 -48 -304 -56 -368
-7 -63 -49 -259 -72 -338 -10 -38 -21 -56 -38 -62 -19 -7 -42 -38 -33 -45 41
-31 107 -7 129 47 7 18 19 38 27 44 14 10 55 136 76 232 11 54 28 72 34 36 2
-10 7 -28 12 -39 5 -11 11 -31 14 -45 9 -41 44 -90 65 -90 36 0 44 26 49 156
l5 125 26 -6 c14 -4 58 -8 97 -11 39 -2 93 -8 119 -14 38 -9 50 -8 57 2 15 24
8 61 -19 97 -14 20 -27 37 -28 38 -1 2 -27 -2 -59 -8 -51 -9 -62 -8 -101 11
-41 20 -45 20 -69 5 -14 -9 -30 -14 -35 -10 -13 8 -8 236 8 380 9 72 10 131 5
170 -9 57 -10 60 -39 62 -24 2 -37 -5 -64 -36z"/>
<path d="M545 641 c-33 -16 -82 -50 -110 -75 -27 -26 -63 -59 -78 -74 -53 -50
-152 -184 -170 -230 -18 -45 -18 -115 -1 -174 8 -27 25 -21 19 5 -6 22 28 97
43 97 4 0 16 19 27 43 10 23 35 60 55 83 19 22 54 62 78 89 23 26 42 52 42 56
0 4 9 11 20 14 11 3 26 12 32 18 7 7 32 27 56 45 23 19 42 40 42 47 0 8 10 23
21 34 22 21 20 51 -3 51 -7 -1 -40 -14 -73 -29z"/>
</g>
</svg>
