<?xml version="1.0" standalone="no"?>
<!DOCTYPE svg PUBLIC "-//W3C//DTD SVG 20010904//EN"
 "http://www.w3.org/TR/2001/REC-SVG-20010904/DTD/svg10.dtd">
<svg version="1.0" xmlns="http://www.w3.org/2000/svg"
 width="207.000000pt" height="213.000000pt" viewBox="0 0 207.000000 213.000000"
 preserveAspectRatio="xMidYMid meet">
<metadata>
Created by potrace 1.16, written by Peter Selinger 2001-2019
</metadata>
<g transform="translate(0.000000,213.000000) scale(0.100000,-0.100000)"
fill="#000000" stroke="none">
<path d="M1168 2053 c-38 -6 -53 -56 -63 -216 -4 -65 -23 -102 -57 -112 -13
-4 -30 -13 -38 -19 -22 -18 -101 -46 -111 -40 -32 19 16 94 84 130 59 32 21
53 -55 30 -29 -8 -72 -20 -95 -26 -29 -7 -43 -16 -44 -28 0 -9 0 -52 1 -94 l1
-78 -38 -17 c-21 -10 -47 -26 -58 -36 -11 -10 -31 -20 -45 -24 -14 -3 -29 -9
-35 -13 -5 -5 -33 -16 -61 -25 -40 -13 -56 -24 -69 -50 -18 -32 -18 -33 4 -61
25 -32 66 -35 107 -7 13 8 41 24 63 36 22 12 57 32 78 43 71 40 82 40 98 0 27
-65 74 -40 72 38 -1 41 19 64 79 90 81 36 82 35 63 -54 -9 -44 -16 -53 -40
-62 -16 -6 -34 -19 -40 -30 -20 -37 -39 -123 -45 -205 -7 -80 -7 -82 -49 -116
-23 -20 -73 -51 -111 -71 -39 -19 -81 -47 -94 -61 -13 -14 -28 -25 -34 -25
-10 0 -124 -59 -181 -93 -105 -63 -123 -88 -85 -119 33 -27 69 -22 127 17 29
19 56 35 61 35 5 0 20 8 33 19 13 10 34 21 45 25 12 4 72 40 134 81 61 41 116
75 120 75 10 0 4 -81 -10 -145 -5 -22 -14 -85 -20 -140 -10 -85 -31 -228 -45
-300 -3 -11 -9 -47 -14 -80 -13 -81 -29 -127 -53 -148 -17 -14 -18 -20 -8 -33
40 -47 91 -25 111 49 6 23 18 56 25 74 8 17 14 40 14 52 0 11 6 35 14 53 20
48 34 119 46 233 8 85 25 175 70 375 4 19 9 28 10 20 2 -8 4 -172 4 -365 2
-379 2 -382 58 -411 27 -14 32 -14 46 0 13 13 16 58 18 303 1 158 5 306 9 328
19 108 37 193 59 268 30 109 25 190 -14 195 -17 2 -37 -8 -64 -33 -21 -19 -42
-35 -46 -35 -13 0 -20 27 -26 100 -6 58 -3 76 15 114 11 25 21 50 21 55 0 4
20 49 45 100 41 81 51 94 96 120 98 56 136 161 59 161 -5 0 -23 -13 -40 -30
-17 -16 -35 -30 -40 -30 -16 0 -22 44 -11 74 22 55 9 152 -18 145 -4 -1 -18
-4 -33 -6z m-58 -933 c0 -5 -5 -10 -11 -10 -5 0 -7 5 -4 10 3 6 8 10 11 10 2
0 4 -4 4 -10z"/>
<path d="M668 782 c-10 -4 -33 -21 -51 -39 -36 -33 -51 -70 -137 -316 -26 -76
-56 -153 -66 -172 -15 -28 -16 -38 -6 -59 6 -14 15 -26 20 -26 14 0 78 101 92
143 6 20 15 37 20 37 9 0 20 31 40 108 6 24 17 42 25 42 7 0 25 31 41 73 45
121 61 147 89 147 29 0 33 20 8 42 -23 20 -54 28 -75 20z"/>
<path d="M1258 662 c-62 -62 -45 -101 53 -127 48 -13 55 -13 71 2 24 22 23 36
-7 71 -14 17 -25 38 -25 47 0 18 -27 44 -45 44 -5 0 -27 -17 -47 -37z"/>
</g>
</svg>
