<?xml version="1.0" standalone="no"?>
<!DOCTYPE svg PUBLIC "-//W3C//DTD SVG 20010904//EN"
 "http://www.w3.org/TR/2001/REC-SVG-20010904/DTD/svg10.dtd">
<svg version="1.0" xmlns="http://www.w3.org/2000/svg"
 width="210.000000pt" height="214.000000pt" viewBox="0 0 210.000000 214.000000"
 preserveAspectRatio="xMidYMid meet">
<metadata>
Created by potrace 1.16, written by Peter Selinger 2001-2019
</metadata>
<g transform="translate(0.000000,214.000000) scale(0.100000,-0.100000)"
fill="#000000" stroke="none">
<path d="M1005 2068 c-20 -82 -33 -101 -89 -132 -68 -37 -77 -43 -104 -69 -15
-13 -38 -28 -50 -32 -42 -12 -22 28 25 50 67 32 70 72 4 61 -85 -14 -136 -27
-159 -42 -25 -17 -26 -27 -6 -130 5 -28 3 -33 -23 -41 -16 -6 -54 -27 -86 -47
-53 -34 -57 -39 -57 -75 0 -30 5 -40 24 -49 34 -15 125 0 144 24 7 11 20 28
28 39 15 20 15 20 34 -2 27 -33 59 -43 100 -29 27 8 36 17 38 37 3 22 -2 29
-27 37 -41 14 -41 46 -1 67 17 9 30 19 30 24 0 11 95 71 114 71 14 0 16 -15
16 -104 l0 -104 -34 -6 c-18 -4 -40 -14 -48 -24 -18 -20 -58 -108 -58 -127 0
-20 -85 -181 -117 -222 -17 -21 -47 -65 -69 -98 -21 -33 -51 -72 -66 -88 -26
-25 -38 -70 -20 -80 4 -2 19 -7 35 -11 23 -5 35 1 78 41 28 26 60 66 71 88 12
22 33 55 49 75 15 19 38 54 51 78 19 35 161 186 276 293 28 27 93 72 141 99
14 8 40 24 56 36 17 12 39 24 50 27 11 3 34 10 52 15 39 12 53 -8 24 -35 -11
-10 -49 -58 -85 -106 -36 -49 -75 -96 -85 -105 -25 -21 -202 -259 -227 -303
-26 -48 -115 -139 -135 -139 -10 0 -32 18 -51 40 l-34 41 -37 -16 c-20 -8 -37
-22 -37 -30 0 -17 35 -55 50 -55 16 0 42 -72 30 -84 -5 -5 -10 -17 -10 -26 0
-8 -54 -75 -120 -148 -66 -73 -120 -139 -120 -147 0 -8 -5 -15 -10 -15 -6 0
-27 -26 -48 -58 -83 -128 -155 -212 -183 -212 -26 0 -41 -25 -37 -67 3 -35 6
-38 36 -41 72 -7 133 54 289 287 20 30 63 82 96 115 l60 61 13 -40 c7 -22 13
-53 13 -69 1 -45 32 -189 43 -203 15 -18 42 -16 61 5 14 16 15 22 2 62 -8 25
-18 101 -23 170 l-8 125 25 22 26 21 -23 24 -22 25 26 38 c14 22 44 55 67 74
81 71 116 110 135 153 10 23 37 63 58 88 22 25 52 62 68 83 15 21 37 48 48 60
28 31 119 153 142 191 11 17 34 49 51 71 52 65 83 135 81 184 -1 41 -4 45 -31
53 -84 22 -242 -44 -420 -178 -38 -29 -74 -50 -79 -47 -10 7 0 152 13 186 5
12 17 50 26 84 19 64 49 99 121 136 17 9 34 23 38 32 3 8 17 20 31 27 29 13
33 43 7 57 -19 10 -58 -4 -92 -33 -8 -7 -24 -16 -34 -20 -17 -6 -18 -3 -13 39
l7 45 -53 0 -53 0 -19 -72z"/>
<path d="M1168 1010 c-10 -6 -18 -20 -18 -31 0 -26 -40 -119 -51 -119 -5 0 -9
-11 -9 -25 0 -14 5 -25 10 -25 6 0 16 11 22 25 6 14 17 25 23 25 7 0 20 9 30
20 27 29 45 25 99 -24 l48 -45 -4 -68 c-7 -119 -62 -200 -233 -344 -33 -28
-81 -60 -107 -71 -72 -31 -78 -85 -12 -106 40 -12 86 3 158 52 22 14 66 38 98
53 61 27 70 43 47 84 -9 17 -5 27 24 62 19 23 41 58 50 77 8 19 28 62 43 95
21 46 27 76 27 125 0 90 -28 135 -138 222 -30 23 -84 32 -107 18z"/>
</g>
</svg>
