<?xml version="1.0" standalone="no"?>
<!DOCTYPE svg PUBLIC "-//W3C//DTD SVG 20010904//EN"
 "http://www.w3.org/TR/2001/REC-SVG-20010904/DTD/svg10.dtd">
<svg version="1.0" xmlns="http://www.w3.org/2000/svg"
 width="209.000000pt" height="217.000000pt" viewBox="0 0 209.000000 217.000000"
 preserveAspectRatio="xMidYMid meet">
<metadata>
Created by potrace 1.16, written by Peter Selinger 2001-2019
</metadata>
<g transform="translate(0.000000,217.000000) scale(0.100000,-0.100000)"
fill="#000000" stroke="none">
<path d="M1144 1990 c-30 -12 -38 -28 -39 -80 l0 -45 -115 3 c-70 1 -125 -2
-142 -9 -32 -13 -45 -48 -29 -77 6 -12 11 -23 11 -26 0 -4 -52 -34 -180 -102
-84 -45 -133 -79 -151 -104 -41 -59 -30 -94 36 -112 89 -24 137 -5 114 46 -14
29 -11 32 67 81 17 11 50 32 72 47 71 48 85 47 141 -12 44 -47 52 -51 87 -48
29 2 42 9 49 26 13 29 25 28 25 -2 0 -41 -90 -118 -189 -161 -25 -11 -73 -35
-108 -52 -48 -25 -76 -33 -116 -33 -29 0 -58 -5 -65 -12 -16 -16 -15 -133 2
-183 31 -92 36 -114 38 -171 1 -33 -2 -65 -6 -72 -4 -7 -5 -24 -2 -38 5 -19
12 -25 29 -22 17 2 27 17 45 68 23 66 24 100 6 251 -6 45 -5 46 26 52 17 4 43
19 58 35 15 16 54 41 87 57 33 16 83 43 112 61 40 26 53 30 57 18 10 -25 22
-19 67 32 9 11 36 34 60 52 197 146 279 203 289 197 3 -2 1 -37 -6 -77 -7 -40
-15 -102 -18 -138 -21 -222 -18 -216 -120 -270 -33 -17 -74 -42 -92 -55 -18
-14 -47 -28 -64 -31 -29 -6 -30 -5 -30 29 0 52 26 106 55 113 14 3 25 11 25
16 0 15 -48 58 -65 58 -8 0 -17 5 -20 10 -8 13 -51 13 -74 0 -16 -8 -19 -29
-26 -152 -7 -142 -15 -178 -38 -178 -7 0 -41 -19 -77 -43 -120 -78 -185 -115
-212 -122 -15 -4 -32 -13 -39 -21 -6 -8 -19 -14 -28 -14 -9 0 -43 -15 -76 -33
-50 -27 -61 -37 -63 -61 -4 -31 27 -65 59 -66 21 0 121 41 134 55 6 7 44 31
85 55 41 24 84 52 95 61 11 10 37 25 58 34 20 8 37 20 37 26 0 5 5 7 10 4 6
-3 8 -16 5 -28 -3 -12 -7 -41 -9 -65 -4 -30 -12 -49 -28 -61 -13 -10 -43 -34
-68 -53 -39 -29 -100 -101 -150 -178 -8 -12 -22 -32 -31 -44 -38 -52 -119
-257 -119 -303 0 -49 40 -39 65 17 10 21 28 49 41 61 14 13 24 34 24 51 0 15
4 28 10 28 5 0 19 19 31 42 45 89 185 288 202 288 5 0 7 -12 3 -28 -3 -15 -13
-94 -21 -176 -16 -160 -11 -232 21 -281 20 -30 35 -32 59 -5 14 15 16 29 11
67 -6 47 4 189 24 328 5 39 18 133 29 210 22 158 47 220 101 260 19 14 38 25
43 25 5 0 41 25 80 55 39 30 75 55 80 55 5 0 7 -15 3 -32 -20 -106 -20 -110
-1 -107 18 4 41 43 86 145 37 82 45 116 74 294 34 213 46 272 62 296 13 21 23
65 26 119 2 26 -2 30 -25 33 -41 5 -92 -27 -288 -181 -60 -46 -111 -77 -130
-77 -21 0 -21 3 -15 52 11 78 27 107 76 135 41 23 61 31 167 63 62 19 56 66
-11 77 -34 5 -125 -19 -179 -48 -14 -7 -18 -1 -24 39 -10 69 -23 81 -70 62z
m-54 -272 c0 -29 -41 -88 -60 -87 -8 0 -26 14 -39 30 -28 35 -21 47 37 65 54
17 62 16 62 -8z"/>
<path d="M1143 504 c-9 -24 31 -77 77 -101 60 -32 240 -93 274 -93 15 0 43 -7
63 -15 43 -18 107 -20 121 -2 6 6 12 29 13 49 4 43 -23 73 -52 57 -9 -4 -19
-6 -21 -3 -7 7 -181 34 -187 29 -2 -3 -9 -1 -15 4 -6 5 -40 26 -76 47 -53 30
-76 37 -128 40 -47 2 -65 -1 -69 -12z"/>
</g>
</svg>
