<?xml version="1.0" standalone="no"?>
<!DOCTYPE svg PUBLIC "-//W3C//DTD SVG 20010904//EN"
 "http://www.w3.org/TR/2001/REC-SVG-20010904/DTD/svg10.dtd">
<svg version="1.0" xmlns="http://www.w3.org/2000/svg"
 width="210.000000pt" height="213.000000pt" viewBox="0 0 210.000000 213.000000"
 preserveAspectRatio="xMidYMid meet">
<metadata>
Created by potrace 1.16, written by Peter Selinger 2001-2019
</metadata>
<g transform="translate(0.000000,213.000000) scale(0.100000,-0.100000)"
fill="#000000" stroke="none">
<path d="M1352 2120 c-13 -6 -43 -23 -67 -40 -24 -16 -47 -30 -51 -30 -4 0
-17 11 -30 25 -46 49 -89 22 -103 -65 -5 -30 -17 -60 -29 -73 -28 -27 -113
-60 -126 -47 -6 6 -3 12 7 16 9 3 17 12 17 19 0 7 14 18 30 25 46 19 36 46
-15 43 -22 -2 -41 -7 -43 -13 -2 -5 -16 -10 -31 -10 -25 0 -68 -23 -82 -43 -4
-5 -3 -24 2 -41 21 -74 17 -81 -83 -135 -51 -28 -101 -51 -110 -51 -9 0 -30
-12 -47 -26 -25 -21 -31 -33 -31 -65 0 -26 4 -39 14 -39 7 0 19 -7 27 -16 17
-21 62 -12 103 22 136 111 180 135 201 110 6 -7 24 -21 42 -31 26 -15 36 -17
57 -7 33 15 33 41 0 67 -19 15 -25 27 -20 41 6 21 65 59 75 48 3 -3 5 -50 3
-104 -2 -84 0 -99 14 -104 19 -7 31 6 40 44 4 14 12 32 19 40 8 8 16 33 19 55
19 118 29 147 65 174 19 14 48 38 63 53 16 15 50 42 76 60 26 18 52 38 58 43
12 11 34 50 34 59 0 9 -73 6 -98 -4z"/>
<path d="M1585 1878 c-27 -18 -71 -45 -97 -59 -27 -15 -68 -43 -92 -62 -39
-32 -78 -57 -168 -104 -15 -8 -30 -18 -33 -23 -3 -5 -39 -27 -80 -50 -40 -22
-75 -44 -77 -48 -7 -17 -68 -52 -91 -52 -13 0 -30 -7 -37 -15 -7 -8 -22 -15
-33 -15 -27 0 -87 -22 -87 -32 0 -4 -7 -8 -15 -8 -27 0 -65 -50 -65 -86 0 -27
6 -35 31 -48 34 -17 36 -16 82 26 25 22 143 78 165 78 10 0 55 25 100 55 46
30 86 55 89 55 3 0 22 12 42 28 51 38 91 65 126 82 17 7 45 27 62 44 38 35 52
28 34 -17 -7 -18 -16 -48 -21 -67 -7 -32 -80 -197 -114 -260 -8 -15 -48 -43
-95 -67 -80 -42 -81 -42 -81 -19 0 13 7 29 15 36 26 22 17 45 -23 63 -86 38
-108 17 -116 -107 -3 -49 -7 -90 -9 -91 -1 -1 -27 -17 -57 -36 -30 -19 -99
-52 -152 -73 -54 -21 -100 -42 -104 -47 -3 -5 -13 -9 -23 -9 -23 0 -78 -58
-86 -92 -5 -21 -2 -29 15 -38 36 -19 87 -16 112 7 48 43 236 129 250 115 6 -6
5 -46 -2 -98 -6 -49 -13 -98 -14 -110 -4 -30 -15 -44 -35 -44 -10 0 -33 -8
-51 -17 -39 -19 -170 -142 -170 -159 0 -6 -8 -18 -17 -25 -22 -19 -122 -174
-146 -228 -39 -89 36 -78 91 14 18 30 37 55 43 55 5 0 9 7 9 15 0 8 8 15 18
15 10 0 29 21 46 49 16 27 57 77 93 111 35 35 70 72 78 83 17 25 28 17 28 -20
1 -80 -14 -343 -22 -375 -10 -43 5 -64 39 -53 42 13 66 97 74 255 14 271 52
556 77 585 5 5 9 19 9 31 0 13 10 31 23 41 35 27 95 58 102 51 3 -3 -5 -39
-19 -79 -36 -110 -4 -126 48 -24 62 123 177 279 213 289 30 8 48 43 32 62 -6
8 -20 14 -30 14 -21 0 -24 12 -9 38 12 22 58 126 78 177 16 42 71 131 109 178
18 22 23 41 23 83 0 66 -13 69 -85 22z"/>
<path d="M515 1346 c-63 -15 -92 -31 -106 -57 -13 -24 4 -329 22 -411 11 -48
31 -74 47 -64 18 11 42 104 34 128 -17 47 14 298 36 298 16 0 93 84 90 99 -4
19 -57 22 -123 7z"/>
<path d="M1076 585 c-24 -18 -16 -53 23 -98 31 -34 62 -45 190 -67 90 -16 171
-2 171 30 0 15 -10 20 -47 26 -27 3 -52 10 -58 14 -5 4 -25 11 -44 15 -47 10
-130 55 -142 77 -12 22 -65 24 -93 3z"/>
</g>
</svg>
