<?xml version="1.0" standalone="no"?>
<!DOCTYPE svg PUBLIC "-//W3C//DTD SVG 20010904//EN"
 "http://www.w3.org/TR/2001/REC-SVG-20010904/DTD/svg10.dtd">
<svg version="1.0" xmlns="http://www.w3.org/2000/svg"
 width="209.000000pt" height="214.000000pt" viewBox="0 0 209.000000 214.000000"
 preserveAspectRatio="xMidYMid meet">
<metadata>
Created by potrace 1.16, written by Peter Selinger 2001-2019
</metadata>
<g transform="translate(0.000000,214.000000) scale(0.100000,-0.100000)"
fill="#000000" stroke="none">
<path d="M1112 2013 c-30 -6 -39 -25 -52 -122 -14 -102 -15 -104 -48 -119 -15
-7 -47 -23 -72 -36 -25 -13 -48 -22 -52 -19 -12 6 -10 63 2 63 5 0 17 11 26
26 26 39 8 48 -65 32 -78 -16 -86 -27 -72 -115 6 -37 8 -70 5 -74 -2 -4 -26
-15 -52 -24 -52 -17 -172 -119 -172 -146 0 -26 44 -59 79 -59 30 0 77 32 184
125 22 19 46 19 53 0 4 -8 18 -15 34 -15 30 0 58 24 40 35 -5 3 -10 19 -10 34
0 26 14 38 84 70 5 2 6 -9 2 -25 -4 -16 -7 -56 -7 -90 l0 -61 -62 -44 c-73
-52 -203 -135 -233 -148 -12 -5 -30 -20 -40 -33 -14 -17 -30 -23 -61 -24 -61
-3 -108 -21 -123 -49 -16 -29 -5 -76 38 -165 22 -47 26 -69 27 -147 0 -61 -4
-96 -12 -104 -18 -18 -16 -59 2 -59 20 0 19 -7 -5 -37 -25 -32 -25 -38 0 -63
38 -38 106 -17 200 60 24 19 53 42 66 50 12 8 61 43 109 78 47 34 90 62 96 62
7 0 9 -11 5 -31 -3 -17 -6 -63 -6 -101 0 -57 -3 -70 -17 -74 -88 -27 -146 -60
-176 -97 -17 -23 -49 -57 -69 -75 -21 -19 -48 -50 -60 -70 -12 -21 -36 -55
-53 -77 -48 -60 -94 -152 -88 -175 5 -19 6 -19 37 2 40 28 116 109 116 126 0
6 6 12 13 12 8 0 31 23 53 51 21 28 47 58 56 67 97 94 142 140 154 156 7 11
16 17 19 14 3 -3 -2 -54 -10 -114 -9 -60 -20 -140 -25 -179 -11 -94 -16 -105
-51 -105 -24 0 -29 -4 -29 -23 0 -36 47 -59 96 -46 21 6 44 15 51 21 13 11 26
65 48 208 26 166 19 157 78 94 42 -45 62 -58 102 -69 98 -24 128 21 50 75 -32
22 -53 46 -66 76 -10 25 -25 47 -33 50 -11 4 -63 -13 -97 -33 -3 -2 -2 23 2
54 4 32 8 94 8 137 1 50 9 110 24 160 19 70 26 82 60 105 21 14 58 41 83 59
24 17 49 32 55 32 11 0 8 -35 -6 -71 -6 -15 17 -49 33 -49 10 0 52 110 58 152
4 21 23 53 50 82 44 49 59 96 29 96 -18 0 -19 21 -5 127 24 180 32 218 55 267
13 28 27 78 31 110 6 54 6 59 -10 53 -10 -4 -28 -7 -41 -7 -14 0 -32 -8 -42
-18 -15 -15 -54 -46 -118 -94 -5 -4 -28 -23 -51 -40 -57 -46 -174 -130 -201
-146 -21 -12 -23 -11 -23 10 0 34 39 179 51 195 7 7 30 22 53 33 55 27 76 41
106 68 14 12 46 41 73 63 45 39 59 71 37 84 -13 8 -111 -38 -151 -72 -42 -35
-74 -53 -93 -53 -12 0 -14 10 -9 51 5 43 3 54 -12 65 -11 8 -21 13 -24 13 -3
-1 -16 -4 -29 -6z m314 -390 c-2 -10 -7 -54 -11 -98 -15 -193 -23 -251 -36
-277 -5 -9 -35 -34 -67 -55 -31 -20 -72 -50 -90 -65 -57 -49 -64 -41 -56 62 8
105 -6 171 -44 200 -20 17 -22 22 -12 35 7 8 19 15 26 15 8 0 31 15 51 33 21
19 59 46 86 61 26 16 50 33 55 40 12 19 76 66 90 66 8 0 11 -7 8 -17z m-380
-446 l7 -155 -44 -27 c-24 -16 -46 -32 -47 -37 -2 -5 -20 -17 -40 -28 -50 -27
-72 -41 -103 -66 -15 -11 -40 -26 -58 -33 -17 -8 -31 -17 -31 -22 0 -5 -6 -9
-13 -9 -6 0 -34 -16 -62 -35 -53 -38 -69 -33 -38 12 11 16 25 42 32 58 17 38
14 154 -4 209 -8 23 -17 61 -21 86 l-7 45 25 -23 c22 -20 32 -22 77 -16 47 6
52 9 59 38 5 20 19 36 38 45 16 8 34 20 39 28 6 7 46 37 90 66 68 45 81 50 87
36 4 -9 10 -87 14 -172z"/>
</g>
</svg>
