<?xml version="1.0" standalone="no"?>
<!DOCTYPE svg PUBLIC "-//W3C//DTD SVG 20010904//EN"
 "http://www.w3.org/TR/2001/REC-SVG-20010904/DTD/svg10.dtd">
<svg version="1.0" xmlns="http://www.w3.org/2000/svg"
 width="206.000000pt" height="213.000000pt" viewBox="0 0 206.000000 213.000000"
 preserveAspectRatio="xMidYMid meet">
<metadata>
Created by potrace 1.16, written by Peter Selinger 2001-2019
</metadata>
<g transform="translate(0.000000,213.000000) scale(0.100000,-0.100000)"
fill="#000000" stroke="none">
<path d="M984 2115 c-4 -8 -3 -26 0 -40 7 -28 -17 -55 -76 -86 -20 -10 -39
-23 -43 -29 -3 -6 -19 -17 -36 -25 -28 -15 -29 -14 -29 5 0 12 12 32 26 45 14
13 23 29 19 34 -8 14 -51 14 -91 -1 -39 -14 -64 -65 -64 -127 0 -46 -13 -61
-76 -93 -25 -12 -58 -34 -72 -48 -15 -14 -43 -34 -64 -45 -44 -24 -102 -75
-117 -103 -42 -78 33 -126 95 -61 52 56 215 172 226 161 5 -5 10 -65 11 -133
l2 -124 -68 -133 c-38 -72 -74 -138 -80 -145 -25 -27 -77 -96 -77 -102 0 -12
-130 -166 -202 -240 -76 -79 -83 -103 -39 -134 16 -12 32 -21 36 -21 3 0 65
60 138 133 139 140 264 247 289 247 11 0 17 -15 22 -52 11 -100 12 -98 -71
-168 -79 -66 -173 -156 -173 -166 0 -17 44 -85 67 -104 43 -33 197 -140 204
-140 13 0 44 91 50 150 4 36 12 115 18 175 14 134 33 186 77 220 19 14 34 34
34 44 0 10 7 24 16 32 8 7 22 25 30 40 18 35 65 87 83 91 18 4 39 -107 40
-209 1 -61 4 -74 22 -87 14 -9 29 -12 42 -7 28 11 57 68 51 100 -3 15 1 53 9
84 11 41 12 59 4 64 -6 3 -13 1 -15 -5 -2 -7 -8 -12 -14 -12 -7 0 -8 41 -4
125 l6 125 -39 0 c-40 0 -71 -20 -71 -46 0 -7 -37 -53 -82 -102 -46 -48 -100
-106 -120 -130 -21 -23 -42 -42 -48 -42 -5 0 -7 22 -4 53 9 89 12 96 51 112
20 9 43 24 50 35 8 11 22 20 32 20 23 0 37 17 45 56 5 22 2 35 -9 44 -13 11
-24 6 -74 -29 -66 -46 -81 -50 -81 -22 0 35 12 52 51 72 48 24 52 53 10 67
-16 6 -39 8 -50 5 -16 -4 -21 -1 -21 15 0 24 27 88 47 113 8 9 11 24 7 33 -5
14 -15 16 -50 10 l-44 -6 0 86 c0 89 2 93 52 131 7 6 34 27 60 49 26 21 52 35
58 31 6 -4 10 -54 10 -126 0 -134 8 -147 54 -81 17 26 29 60 35 103 15 112 43
223 62 248 42 52 13 81 -82 81 -35 0 -51 -4 -55 -15z m-270 -890 c6 -18 -48
-84 -60 -73 -4 5 0 16 8 25 9 10 19 28 22 41 8 25 21 29 30 7z m-24 -569 c-7
-48 -15 -86 -18 -86 -16 0 -62 45 -62 62 0 20 78 123 87 114 3 -3 0 -43 -7
-90z"/>
<path d="M1406 1759 c-14 -17 -26 -40 -26 -52 0 -12 -12 -53 -25 -92 -14 -38
-25 -79 -25 -89 0 -20 0 -20 14 0 14 18 15 18 21 1 4 -10 2 -37 -4 -60 -10
-39 -22 -312 -23 -572 -1 -86 3 -124 20 -175 11 -36 28 -109 38 -163 16 -94
16 -98 -2 -119 -11 -11 -33 -27 -51 -34 -18 -8 -42 -25 -55 -38 -33 -34 -88
-49 -153 -41 -49 7 -55 5 -55 -11 0 -29 74 -66 130 -67 51 -1 191 45 211 69 6
8 19 14 29 14 23 0 60 70 65 124 2 22 0 59 -5 81 -5 22 -16 76 -25 120 -8 44
-22 109 -31 145 -10 47 -13 95 -9 175 4 61 8 189 10 285 3 147 24 407 39 473
5 21 -26 57 -48 57 -8 0 -26 -14 -40 -31z"/>
</g>
</svg>
