<?xml version="1.0" standalone="no"?>
<!DOCTYPE svg PUBLIC "-//W3C//DTD SVG 20010904//EN"
 "http://www.w3.org/TR/2001/REC-SVG-20010904/DTD/svg10.dtd">
<svg version="1.0" xmlns="http://www.w3.org/2000/svg"
 width="208.000000pt" height="214.000000pt" viewBox="0 0 208.000000 214.000000"
 preserveAspectRatio="xMidYMid meet">
<metadata>
Created by potrace 1.16, written by Peter Selinger 2001-2019
</metadata>
<g transform="translate(0.000000,214.000000) scale(0.100000,-0.100000)"
fill="#000000" stroke="none">
<path d="M1137 2085 c-24 -49 -92 -115 -118 -115 -4 0 -25 -11 -45 -25 -33
-22 -38 -23 -57 -10 -19 13 -24 12 -51 -8 -17 -13 -43 -28 -58 -35 -24 -10
-28 -18 -28 -51 0 -36 -5 -43 -42 -69 -24 -16 -65 -42 -93 -56 -223 -122 -262
-161 -218 -220 24 -34 57 -33 84 3 12 16 39 37 60 47 22 9 39 21 39 25 0 5 14
16 32 25 17 9 36 20 42 25 20 17 128 79 138 79 14 0 38 -65 38 -105 0 -19 5
-44 12 -54 9 -15 7 -30 -10 -74 -26 -68 -175 -276 -269 -374 -86 -90 -163
-169 -186 -190 -24 -24 -18 -62 15 -86 l27 -20 58 38 c32 22 78 59 103 84 68
69 262 221 282 221 10 0 10 -218 0 -242 -8 -20 -182 -138 -259 -175 -62 -31
-123 -97 -123 -134 0 -34 27 -69 53 -69 12 0 41 -13 65 -29 23 -16 75 -46 116
-67 45 -23 79 -48 89 -66 19 -32 36 -35 66 -11 22 20 37 89 70 334 21 159 38
203 97 246 l44 33 20 -42 c11 -23 20 -46 20 -51 0 -20 54 -117 66 -117 7 0 19
-3 28 -6 30 -11 74 107 80 218 4 75 17 130 32 135 7 2 10 -57 10 -189 -1 -210
10 -430 24 -493 5 -22 10 -61 10 -87 0 -68 10 -70 -233 48 -79 39 -107 37 -81
-5 17 -26 82 -91 91 -91 3 0 25 -13 50 -30 24 -16 47 -30 52 -30 13 0 145 -83
157 -98 16 -22 50 1 59 40 12 50 9 261 -6 352 -20 126 -18 616 3 731 9 50 20
143 23 207 6 112 6 117 -15 128 -35 19 -63 8 -82 -30 -16 -34 -60 -168 -92
-280 -8 -30 -30 -107 -47 -170 -18 -63 -35 -119 -39 -123 -4 -4 -12 29 -18 75
-7 45 -16 86 -21 91 -5 5 -24 7 -42 5 -26 -2 -38 -11 -54 -36 -31 -52 -87
-114 -96 -105 -4 4 -1 51 7 103 7 52 13 114 14 136 0 39 38 125 61 139 18 12
9 45 -17 62 -16 10 -41 16 -60 14 -19 -1 -34 0 -34 3 0 3 11 26 25 53 14 26
23 53 21 59 -3 8 -22 12 -49 11 -33 -1 -47 -7 -53 -21 -17 -37 -34 -30 -34 13
0 45 13 60 29 34 9 -16 10 -16 11 5 0 12 6 22 14 22 15 0 26 21 26 50 0 13 -9
20 -27 22 -22 2 -29 9 -31 29 -2 21 8 35 60 77 94 77 94 76 90 -77 -3 -77 0
-136 6 -147 9 -16 14 -9 40 44 17 34 38 95 47 135 36 158 66 219 140 283 30
26 55 56 55 66 0 16 -10 18 -93 18 l-93 0 -27 -55z m-227 -778 c0 -16 -16 -37
-48 -65 l-49 -41 41 64 c44 69 56 78 56 42z m-48 -604 c-3 -65 -23 -195 -31
-210 -8 -15 -91 25 -145 71 l-39 33 24 22 c13 12 31 29 40 37 25 23 133 93
144 93 6 1 9 -19 7 -46z"/>
</g>
</svg>
