<?xml version="1.0" standalone="no"?>
<!DOCTYPE svg PUBLIC "-//W3C//DTD SVG 20010904//EN"
 "http://www.w3.org/TR/2001/REC-SVG-20010904/DTD/svg10.dtd">
<svg version="1.0" xmlns="http://www.w3.org/2000/svg"
 width="209.000000pt" height="215.000000pt" viewBox="0 0 209.000000 215.000000"
 preserveAspectRatio="xMidYMid meet">
<metadata>
Created by potrace 1.16, written by Peter Selinger 2001-2019
</metadata>
<g transform="translate(0.000000,215.000000) scale(0.100000,-0.100000)"
fill="#000000" stroke="none">
<path d="M1554 2137 c-12 -6 -40 -25 -64 -40 -30 -21 -45 -26 -53 -18 -6 6
-23 11 -39 11 -30 0 -51 -25 -62 -72 -4 -19 -19 -33 -53 -49 -27 -13 -70 -36
-96 -52 -26 -16 -51 -27 -54 -23 -7 7 80 87 129 118 21 13 38 29 38 36 0 6 -1
12 -3 12 -6 0 -106 -39 -142 -55 -22 -11 -68 -31 -102 -47 -67 -31 -79 -49
-69 -103 6 -31 4 -33 -41 -53 -27 -11 -60 -23 -75 -27 -15 -4 -32 -13 -39 -21
-6 -8 -17 -14 -24 -14 -18 0 -55 -48 -55 -70 0 -37 43 -66 107 -73 33 -4 74
-14 90 -23 30 -18 63 -14 63 7 0 6 -16 26 -36 44 l-35 32 31 27 c59 49 107 47
112 -5 2 -27 11 -38 55 -63 28 -17 61 -43 72 -57 19 -25 19 -28 4 -40 -45 -39
-263 -149 -293 -149 -11 0 -29 -9 -41 -21 -11 -11 -49 -36 -82 -54 -60 -32
-62 -33 -60 -71 3 -90 -19 -248 -43 -307 -24 -61 -30 -97 -16 -97 21 0 112
119 112 147 0 9 6 24 14 32 15 17 35 96 43 174 l5 48 54 -7 c48 -6 54 -4 54
12 0 19 103 94 128 94 7 0 21 9 31 19 11 11 59 41 108 67 48 26 106 62 129 81
23 18 46 33 51 33 6 0 31 16 56 35 29 22 48 31 53 24 25 -40 -10 -464 -42
-516 -18 -29 -18 -30 7 -36 32 -9 76 41 98 109 22 70 28 110 47 319 8 88 18
191 24 230 5 38 7 78 4 87 -8 26 -70 24 -84 -2 -6 -11 -16 -20 -23 -20 -7 0
-35 -21 -62 -47 -62 -60 -163 -126 -181 -119 -22 9 -16 36 11 46 27 10 55 57
55 93 0 12 4 27 9 32 5 6 17 46 27 90 15 69 22 83 53 110 20 16 52 47 72 68
20 20 40 37 46 37 17 0 53 46 53 68 0 17 -6 22 -27 22 -16 0 -37 -6 -49 -13z
m-256 -344 c1 -81 -9 -145 -23 -150 -12 -4 -85 62 -85 77 0 5 10 34 22 63 20
48 61 90 79 81 4 -2 7 -34 7 -71z"/>
<path d="M1390 1383 c-30 -5 -67 -21 -97 -44 -13 -9 -71 -36 -130 -59 -60 -24
-115 -49 -124 -57 -9 -8 -30 -18 -45 -22 -31 -8 -40 -28 -30 -66 4 -17 18 -28
45 -36 37 -11 42 -10 110 32 39 24 89 54 111 66 23 12 46 26 53 31 7 5 49 29
95 52 73 37 82 44 82 70 0 25 -18 43 -38 39 -4 -1 -18 -4 -32 -6z"/>
<path d="M1235 1081 c-22 -10 -56 -34 -75 -53 -54 -54 -162 -118 -187 -112
-14 4 -25 -1 -34 -14 -8 -10 -32 -28 -54 -40 -22 -11 -60 -35 -85 -53 -25 -19
-74 -49 -110 -67 -140 -73 -168 -120 -84 -146 26 -8 49 1 134 54 36 22 80 47
98 55 17 8 57 31 87 50 62 40 68 34 36 -37 -82 -179 -141 -318 -141 -330 0
-19 42 -58 63 -58 17 0 70 70 87 115 16 43 71 117 121 165 110 104 108 103
115 85 6 -16 -7 -94 -27 -159 -5 -16 -9 -47 -9 -68 0 -31 6 -45 32 -69 18 -16
37 -29 43 -29 5 0 23 -7 39 -15 45 -24 192 -59 207 -50 4 3 42 14 83 25 89 23
137 51 211 126 80 82 92 112 86 226 0 17 -8 29 -20 33 -11 3 -27 24 -36 47 -9
23 -27 55 -41 71 -13 16 -24 39 -24 52 0 33 -28 137 -40 149 -6 6 -15 4 -25
-4 -13 -11 -14 -27 -10 -89 9 -109 23 -166 61 -246 41 -87 38 -105 -29 -167
-113 -105 -236 -130 -358 -72 -32 16 -61 34 -64 41 -2 8 4 59 15 114 24 122
26 192 5 209 -20 17 -77 7 -137 -24 -53 -28 -57 -25 -28 19 52 78 90 122 127
148 34 22 43 35 51 74 6 26 8 51 6 55 -9 13 -47 8 -89 -11z"/>
</g>
</svg>
