<?xml version="1.0" standalone="no"?>
<!DOCTYPE svg PUBLIC "-//W3C//DTD SVG 20010904//EN"
 "http://www.w3.org/TR/2001/REC-SVG-20010904/DTD/svg10.dtd">
<svg version="1.0" xmlns="http://www.w3.org/2000/svg"
 width="209.000000pt" height="214.000000pt" viewBox="0 0 209.000000 214.000000"
 preserveAspectRatio="xMidYMid meet">
<metadata>
Created by potrace 1.16, written by Peter Selinger 2001-2019
</metadata>
<g transform="translate(0.000000,214.000000) scale(0.100000,-0.100000)"
fill="#000000" stroke="none">
<path d="M770 2093 c0 -63 -3 -66 -97 -115 -24 -12 -43 -25 -43 -29 0 -8 -72
-59 -118 -83 -42 -23 -131 -111 -142 -142 -9 -22 -7 -33 12 -61 27 -39 45 -45
112 -40 36 3 55 11 68 27 20 25 23 51 8 66 -8 8 8 30 52 75 63 64 126 114 135
105 3 -2 7 -51 10 -108 3 -57 10 -111 15 -121 5 -10 29 -27 54 -37 24 -11 44
-24 44 -29 0 -5 -39 -36 -87 -68 -49 -31 -101 -68 -116 -80 -15 -12 -45 -27
-66 -33 -20 -5 -48 -21 -61 -35 -20 -21 -22 -29 -12 -47 6 -13 21 -56 33 -97
22 -76 21 -112 -7 -248 -5 -29 -4 -33 14 -33 21 0 31 14 67 90 10 20 21 80 27
140 l9 105 47 48 c26 27 63 58 82 70 19 11 41 29 48 39 7 10 20 18 28 18 8 0
14 4 14 8 0 5 15 15 33 24 17 9 64 39 102 68 39 29 97 68 131 86 33 19 71 45
84 59 43 46 50 35 50 -75 0 -55 -5 -167 -11 -250 -6 -83 -8 -154 -5 -157 12
-12 43 28 55 70 7 23 17 47 22 52 12 15 27 122 35 249 3 61 10 124 15 140 5
17 9 54 9 83 0 28 4 63 9 77 21 54 -53 59 -107 8 -98 -96 -215 -182 -228 -169
-3 3 -1 21 5 39 6 18 11 91 12 161 1 142 3 146 74 178 l40 19 -227 0 -228 0 0
-47z m170 29 c0 -10 -41 -35 -47 -28 -9 8 17 36 33 36 8 0 14 -3 14 -8z m60
-106 c0 -2 5 -28 10 -57 15 -75 14 -257 -1 -275 -20 -24 -44 -16 -75 26 -16
22 -37 42 -46 46 -15 4 -18 17 -18 72 0 98 13 132 63 164 37 24 67 35 67 24z"/>
<path d="M1044 1383 c-36 -36 -146 -111 -203 -139 -41 -20 -66 -39 -78 -61
-16 -31 -16 -33 2 -52 46 -52 138 -5 318 162 51 47 54 54 35 80 -18 24 -55 29
-74 10z"/>
<path d="M988 1102 c-118 -99 -174 -142 -183 -142 -9 0 -66 -47 -149 -122 -34
-32 -68 -58 -74 -58 -6 0 -15 -6 -19 -14 -4 -7 -24 -22 -44 -32 -49 -26 -136
-91 -142 -108 -10 -26 5 -54 35 -67 27 -11 33 -9 106 42 42 29 93 69 113 89
41 40 118 94 126 87 2 -3 -9 -31 -25 -64 -48 -92 -97 -203 -116 -261 -17 -49
-17 -55 -2 -77 19 -29 57 -33 81 -8 10 9 31 45 47 79 16 34 38 70 49 80 10 9
19 28 19 41 0 13 9 31 20 40 11 10 20 25 20 35 0 9 10 22 23 29 12 6 41 32 64
57 22 26 45 43 49 39 4 -4 3 -28 -4 -52 -7 -25 -12 -54 -12 -65 0 -11 -4 -20
-9 -20 -14 0 -34 -87 -26 -117 9 -39 53 -82 95 -93 40 -10 162 -6 236 9 28 5
83 26 122 46 l72 36 2 57 c0 31 1 62 0 67 -3 27 -33 152 -41 170 -18 39 -66
138 -76 156 -9 18 -42 35 -51 27 -4 -5 28 -200 51 -307 9 -41 14 -79 12 -85
-16 -40 -197 -85 -267 -66 -47 13 -49 24 -20 120 11 36 23 102 26 147 l7 81
-41 13 c-35 10 -45 10 -66 -5 -14 -9 -30 -16 -36 -16 -20 0 10 40 90 124 68
70 79 87 85 127 6 43 5 47 -17 52 -12 4 -26 7 -30 7 -4 0 -49 -35 -100 -78z"/>
</g>
</svg>
