<?xml version="1.0" standalone="no"?>
<!DOCTYPE svg PUBLIC "-//W3C//DTD SVG 20010904//EN"
 "http://www.w3.org/TR/2001/REC-SVG-20010904/DTD/svg10.dtd">
<svg version="1.0" xmlns="http://www.w3.org/2000/svg"
 width="208.000000pt" height="213.000000pt" viewBox="0 0 208.000000 213.000000"
 preserveAspectRatio="xMidYMid meet">
<metadata>
Created by potrace 1.16, written by Peter Selinger 2001-2019
</metadata>
<g transform="translate(0.000000,213.000000) scale(0.100000,-0.100000)"
fill="#000000" stroke="none">
<path d="M1209 2104 c-18 -9 -29 -27 -37 -61 -13 -48 -14 -49 -95 -88 -45 -22
-97 -45 -114 -52 l-33 -12 16 25 c13 20 14 27 4 39 -15 18 -45 12 -75 -15 -11
-10 -37 -21 -57 -24 -21 -4 -38 -11 -38 -16 0 -6 -6 -10 -14 -10 -7 0 -25 -9
-39 -20 -21 -17 -25 -26 -20 -53 5 -32 4 -33 -54 -51 -32 -11 -62 -23 -68 -27
-5 -3 -21 -10 -35 -14 -52 -15 -110 -46 -119 -63 -12 -24 4 -60 33 -73 36 -17
147 4 165 31 7 11 19 20 27 20 7 0 33 11 58 25 55 31 64 31 95 1 35 -32 65
-40 81 -21 10 12 10 21 2 38 -20 40 -23 64 -10 74 7 6 49 25 93 43 44 18 82
36 85 41 7 10 62 31 68 25 2 -3 0 -27 -6 -53 -6 -26 -14 -65 -17 -85 -7 -43
-26 -56 -127 -89 -34 -10 -66 -23 -72 -27 -6 -5 -47 -21 -91 -37 -44 -15 -89
-34 -100 -41 -11 -8 -25 -14 -31 -14 -7 0 -31 -12 -53 -27 -31 -20 -41 -33
-41 -53 0 -32 28 -60 58 -60 23 0 225 92 252 115 8 7 25 16 37 19 22 7 23 6
19 -51 -2 -32 -4 -78 -5 -103 -1 -45 -1 -45 -64 -75 -34 -16 -95 -39 -135 -50
-58 -16 -77 -26 -90 -47 -15 -26 -15 -29 1 -45 13 -13 33 -18 70 -17 43 0 64
7 121 42 39 23 73 42 78 42 18 0 6 -34 -19 -56 -71 -61 -179 -144 -188 -144
-6 0 -33 -21 -60 -47 -28 -27 -63 -54 -78 -60 -15 -7 -27 -17 -27 -22 0 -5
-13 -14 -29 -21 -16 -6 -41 -25 -57 -41 -15 -16 -32 -29 -36 -29 -5 0 -34 -18
-64 -41 -49 -36 -114 -74 -191 -113 -29 -15 -38 -52 -18 -82 21 -33 59 -40 93
-18 15 10 70 40 122 66 52 27 99 53 104 59 6 5 18 9 28 9 10 0 27 5 38 10 11
5 29 14 40 20 11 6 28 14 38 20 9 5 33 16 52 25 19 8 46 22 60 29 14 8 45 20
70 27 25 7 49 16 54 21 21 18 27 6 20 -39 -9 -64 -22 -96 -35 -88 -5 4 -18 0
-27 -8 -9 -8 -30 -17 -46 -21 -42 -10 -186 -160 -290 -302 -15 -19 12 -44 47
-44 22 0 38 9 61 36 17 20 49 55 72 78 22 22 49 56 59 74 11 17 24 32 30 32 5
0 30 21 54 46 l44 45 -7 -40 c-3 -22 -11 -85 -16 -139 -6 -54 -15 -114 -20
-133 -6 -18 -10 -57 -10 -86 0 -45 4 -55 24 -68 38 -25 62 -6 70 52 4 26 16
89 26 138 10 50 24 129 30 175 22 164 53 299 80 350 5 10 32 26 60 35 27 9 50
21 50 26 0 5 4 9 10 9 5 0 34 11 64 25 30 14 60 25 66 25 7 0 24 8 38 18 31
21 136 72 150 72 16 0 77 33 98 54 12 12 32 28 45 37 28 19 20 49 -14 49 -22
0 -137 -47 -210 -85 -16 -8 -36 -15 -46 -15 -9 0 -26 -7 -37 -15 -10 -8 -25
-15 -32 -15 -8 0 -52 -18 -98 -41 -47 -22 -101 -43 -121 -46 l-36 -6 7 42 c9
55 40 117 67 132 20 10 61 41 129 94 14 11 50 45 80 75 30 31 72 66 93 79 31
19 38 28 35 49 -2 21 -10 28 -41 34 -31 6 -44 4 -66 -11 -15 -11 -58 -32 -96
-47 -38 -15 -88 -38 -112 -50 -23 -13 -45 -19 -48 -14 -7 12 16 102 32 121 7
8 13 24 14 35 0 22 85 87 169 131 98 50 140 85 140 116 0 35 -25 36 -94 2 -62
-29 -106 -41 -106 -27 0 5 11 34 24 63 13 30 26 70 30 90 4 21 18 53 31 73 24
36 35 104 15 91 -6 -4 -25 3 -44 14 -18 12 -35 21 -37 20 -2 -1 -15 -7 -30
-15z m-299 -224 c0 -5 -4 -10 -10 -10 -5 0 -10 5 -10 10 0 6 5 10 10 10 6 0
10 -4 10 -10z m235 -560 c-3 -5 -10 -10 -16 -10 -5 0 -9 5 -9 10 0 6 7 10 16
10 8 0 12 -4 9 -10z m-233 -313 c6 -30 0 -47 -17 -47 -7 0 -18 -6 -24 -14 -11
-13 -97 -46 -122 -46 -10 0 11 22 77 80 24 21 68 50 75 50 4 0 9 -10 11 -23z"/>
<path d="M1096 578 c-26 -25 -44 -68 -27 -68 5 0 22 -11 38 -24 27 -23 37 -24
155 -25 125 -1 126 -1 197 34 39 20 71 40 71 46 0 5 -5 18 -12 28 -11 18 -15
18 -58 5 -80 -24 -210 -16 -269 16 -32 16 -68 12 -95 -12z"/>
</g>
</svg>
