<?xml version="1.0" standalone="no"?>
<!DOCTYPE svg PUBLIC "-//W3C//DTD SVG 20010904//EN"
 "http://www.w3.org/TR/2001/REC-SVG-20010904/DTD/svg10.dtd">
<svg version="1.0" xmlns="http://www.w3.org/2000/svg"
 width="208.000000pt" height="205.000000pt" viewBox="0 0 208.000000 205.000000"
 preserveAspectRatio="xMidYMid meet">
<metadata>
Created by potrace 1.16, written by Peter Selinger 2001-2019
</metadata>
<g transform="translate(0.000000,205.000000) scale(0.100000,-0.100000)"
fill="#000000" stroke="none">
<path d="M1308 2023 c-9 -2 -20 -13 -23 -23 -5 -15 -12 -103 -14 -182 -1 -20
-87 -68 -121 -68 -12 0 -36 -11 -53 -24 -18 -13 -50 -31 -72 -41 -22 -10 -71
-32 -110 -51 -91 -43 -191 -81 -235 -89 -19 -4 -62 -24 -95 -44 -53 -33 -60
-41 -58 -66 1 -16 9 -36 18 -44 22 -22 96 -19 132 5 56 38 73 44 73 29 0 -10
10 -14 28 -13 38 2 43 7 32 28 -9 16 0 23 77 61 67 33 88 39 92 28 8 -25 59
-69 80 -69 29 0 49 44 33 71 -18 29 -14 57 9 64 11 4 47 24 79 46 65 43 84 48
76 22 -3 -10 -8 -40 -12 -68 -8 -59 -66 -181 -117 -248 -27 -35 -35 -55 -31
-71 5 -20 -1 -25 -53 -44 -32 -11 -86 -27 -120 -36 -35 -9 -81 -25 -103 -36
-48 -24 -59 -25 -75 -4 -10 15 -16 14 -56 -12 -66 -42 -68 -46 -62 -128 6 -79
-5 -113 -51 -157 -26 -24 -34 -53 -17 -63 14 -9 61 12 90 40 14 13 36 33 47
44 16 15 25 43 35 110 l13 90 58 0 c32 0 78 8 105 19 26 10 66 21 88 25 22 4
81 27 130 51 50 24 117 53 150 64 33 12 67 30 75 40 8 10 26 22 40 26 14 4 32
13 40 20 8 6 58 33 110 59 52 27 101 53 107 58 31 25 148 75 151 65 1 -7 -12
-48 -29 -92 -17 -44 -40 -107 -51 -140 -11 -33 -35 -98 -54 -145 -19 -47 -34
-92 -34 -99 0 -8 -11 -29 -25 -47 -14 -18 -25 -40 -25 -48 0 -31 33 -15 85 39
54 56 92 119 115 190 7 22 23 63 36 92 26 56 78 185 100 248 8 22 28 68 45
103 53 109 20 144 -76 80 -26 -18 -63 -42 -81 -53 -18 -12 -41 -28 -51 -37
-10 -10 -34 -24 -53 -33 -19 -8 -42 -19 -50 -24 -81 -50 -142 -83 -175 -95
-22 -7 -67 -29 -100 -48 -33 -18 -76 -40 -95 -48 -19 -7 -42 -19 -50 -25 -16
-13 -70 -29 -70 -21 0 3 17 25 38 50 84 101 128 186 152 293 l23 103 68 46
c70 47 95 85 78 117 -12 20 -47 9 -93 -30 l-31 -26 -3 74 c-3 91 -20 109 -84
92z m-477 -478 c-1 -15 -24 -12 -29 3 -3 9 2 13 12 10 10 -1 17 -7 17 -13z"/>
<path d="M943 1053 c-30 -20 -29 -43 2 -90 39 -59 43 -63 83 -63 48 0 88 19
101 48 9 18 19 22 57 22 57 0 55 -12 -12 -63 -47 -37 -75 -54 -173 -107 -73
-41 -101 -61 -101 -75 0 -32 74 -14 177 42 23 13 48 23 56 23 8 0 22 9 32 20
10 11 24 20 30 20 21 0 105 81 125 121 27 52 25 74 -7 99 -38 30 -113 22 -190
-19 -31 -17 -60 -31 -65 -31 -5 0 -6 16 -2 35 l6 35 -48 -1 c-28 0 -59 -7 -71
-16z"/>
<path d="M1465 701 c-16 -4 -44 -15 -62 -24 -18 -9 -43 -17 -56 -17 -14 0 -30
-7 -37 -15 -13 -16 -134 -75 -195 -95 -44 -14 -113 -55 -132 -79 -21 -25 -15
-51 14 -62 24 -9 38 -6 90 20 34 17 65 31 70 31 4 0 61 27 127 61 65 33 125
59 133 57 11 -2 3 -19 -31 -63 -26 -33 -58 -78 -73 -100 -44 -68 -205 -221
-239 -228 -49 -9 -78 -39 -70 -70 3 -15 17 -34 30 -42 21 -14 29 -14 82 1 32
8 75 20 94 25 67 17 185 68 195 84 16 26 -17 43 -71 37 -46 -5 -46 -5 -34 19
7 13 25 38 40 54 100 109 220 335 203 381 -12 34 -25 38 -78 25z"/>
<path d="M854 595 c-4 -9 -24 -25 -46 -36 -50 -26 -55 -41 -30 -92 11 -23 27
-69 35 -102 26 -103 47 -202 47 -222 0 -25 40 -63 67 -63 11 0 27 8 37 18 15
17 15 24 2 68 -16 56 -33 142 -51 263 -9 54 -21 94 -35 113 -16 22 -19 32 -10
43 8 9 8 15 0 20 -5 3 -13 -1 -16 -10z"/>
</g>
</svg>
