<?xml version="1.0" standalone="no"?>
<!DOCTYPE svg PUBLIC "-//W3C//DTD SVG 20010904//EN"
 "http://www.w3.org/TR/2001/REC-SVG-20010904/DTD/svg10.dtd">
<svg version="1.0" xmlns="http://www.w3.org/2000/svg"
 width="208.000000pt" height="203.000000pt" viewBox="0 0 208.000000 203.000000"
 preserveAspectRatio="xMidYMid meet">
<metadata>
Created by potrace 1.16, written by Peter Selinger 2001-2019
</metadata>
<g transform="translate(0.000000,203.000000) scale(0.100000,-0.100000)"
fill="#000000" stroke="none">
<path d="M1041 1889 c-11 -17 -22 -52 -25 -78 -10 -71 -24 -97 -74 -135 -68
-54 -108 -47 -57 8 25 27 26 46 1 46 -7 0 -21 -10 -32 -21 -10 -12 -38 -30
-61 -41 -45 -20 -63 -42 -63 -77 0 -12 -5 -21 -10 -21 -6 0 -16 -5 -23 -11 -7
-5 -34 -24 -62 -42 -27 -18 -56 -45 -63 -61 -13 -25 -12 -31 5 -55 31 -41 57
-38 116 12 68 58 128 88 188 93 39 4 49 1 49 -11 0 -19 34 -20 50 0 7 8 18 15
25 15 7 0 24 26 38 58 27 59 52 90 125 154 29 25 42 45 42 62 0 29 -31 51 -62
43 -18 -5 -20 -2 -15 28 11 65 -58 90 -92 34z"/>
<path d="M1327 1739 c-45 -44 -102 -91 -127 -104 -25 -14 -61 -41 -80 -60 -19
-20 -60 -55 -90 -78 -30 -23 -63 -50 -73 -61 -9 -11 -26 -24 -36 -30 -10 -6
-45 -31 -76 -56 -113 -88 -130 -100 -162 -115 -43 -20 -53 -19 -53 5 0 24 -8
25 -40 3 -67 -46 -87 -98 -67 -171 8 -31 7 -50 -6 -90 -23 -68 -22 -92 3 -92
27 0 56 34 96 115 19 39 40 77 47 86 22 28 73 49 106 43 39 -8 93 19 184 93
37 30 71 51 77 48 11 -7 -12 -90 -46 -162 -28 -61 -63 -91 -115 -99 -42 -7
-64 -26 -56 -47 5 -15 16 -15 87 -2 57 9 85 24 136 72 47 44 76 113 94 226 11
68 11 79 -4 102 -9 14 -26 25 -38 25 -19 0 -18 3 13 33 62 59 203 173 261 210
27 17 28 17 34 -9 11 -45 -3 -186 -26 -254 -21 -63 -52 -122 -76 -148 -15 -15
-28 -52 -21 -59 13 -12 51 13 107 70 33 34 60 67 60 74 0 6 4 13 10 15 5 2 22
48 36 103 22 87 25 113 20 205 -11 221 -44 241 -179 109z"/>
<path d="M1180 1040 c-20 -10 -54 -36 -76 -57 -22 -21 -60 -50 -85 -66 -94
-59 -113 -73 -149 -110 -36 -37 -36 -38 -54 -18 -14 15 -26 18 -54 14 -51 -7
-64 -27 -56 -83 4 -24 13 -59 20 -77 8 -18 14 -49 14 -70 1 -21 7 -65 15 -98
8 -33 15 -74 15 -92 0 -24 5 -33 23 -38 31 -9 71 -28 78 -39 4 -5 21 -2 38 7
17 8 44 18 60 22 16 3 35 13 42 21 6 8 20 14 30 14 11 0 36 15 57 34 27 25 42
32 53 25 12 -6 23 -2 39 16 21 23 22 27 10 87 -11 59 -10 71 19 188 35 138 58
297 48 323 -8 22 -43 21 -87 -3z m-36 -192 c-4 -24 -10 -50 -14 -58 -5 -8 -11
-32 -14 -53 -3 -22 -10 -58 -16 -80 -5 -23 -11 -54 -14 -69 -4 -18 -23 -38
-60 -63 -29 -19 -59 -35 -66 -35 -7 0 -29 -12 -47 -26 -23 -17 -38 -23 -45
-16 -5 5 -12 49 -15 98 -5 89 -5 89 21 104 15 7 35 28 46 44 23 38 123 127
168 150 18 9 36 24 39 32 11 31 23 12 17 -28z"/>
</g>
</svg>
