<?xml version="1.0" standalone="no"?>
<!DOCTYPE svg PUBLIC "-//W3C//DTD SVG 20010904//EN"
 "http://www.w3.org/TR/2001/REC-SVG-20010904/DTD/svg10.dtd">
<svg version="1.0" xmlns="http://www.w3.org/2000/svg"
 width="207.000000pt" height="203.000000pt" viewBox="0 0 207.000000 203.000000"
 preserveAspectRatio="xMidYMid meet">
<metadata>
Created by potrace 1.16, written by Peter Selinger 2001-2019
</metadata>
<g transform="translate(0.000000,203.000000) scale(0.100000,-0.100000)"
fill="#000000" stroke="none">
<path d="M811 2002 c-37 -30 -50 -76 -51 -175 0 -72 -18 -92 -122 -131 -135
-52 -147 -58 -197 -107 -39 -38 -48 -52 -44 -71 14 -57 64 -76 99 -37 10 11
32 27 49 35 16 7 67 34 113 59 56 31 84 41 87 32 2 -6 6 -43 9 -81 4 -68 10
-82 50 -101 7 -3 6 -7 -3 -11 -26 -12 -216 -144 -248 -172 -60 -54 -62 -114
-4 -127 28 -6 38 0 106 61 42 37 79 73 83 79 8 14 92 68 92 59 0 -3 -13 -24
-28 -47 -75 -112 -92 -138 -92 -146 0 -4 -15 -24 -34 -43 -19 -19 -41 -48 -49
-64 -9 -17 -29 -43 -45 -60 -43 -43 -102 -136 -102 -160 0 -28 30 -54 62 -54
38 0 93 26 136 63 20 18 53 44 72 57 19 13 51 39 70 59 20 20 49 45 65 56 44
31 110 86 113 96 5 14 28 11 41 -5 9 -11 9 -16 -1 -23 -28 -18 -165 -171 -201
-225 -41 -63 -46 -95 -18 -129 27 -34 69 -18 95 36 19 40 19 40 26 14 16 -56
-3 -87 -75 -124 -30 -16 -32 -69 -3 -89 12 -9 33 -16 45 -16 28 0 30 -20 7
-87 -22 -65 -51 -103 -91 -119 -19 -8 -36 -21 -40 -29 -10 -28 6 -62 36 -75
27 -11 44 -8 158 30 70 23 135 48 143 54 8 7 31 20 50 30 74 36 123 66 141 87
27 31 34 102 20 194 -7 44 -15 96 -17 115 -2 19 -5 49 -8 65 -7 37 -8 268 -2
315 2 19 9 54 15 78 33 130 33 124 14 138 -10 7 -23 14 -29 14 -10 0 -70 -58
-124 -122 -35 -42 -69 -53 -50 -17 17 30 15 96 -3 114 -21 20 -70 19 -89 -2
-8 -10 -18 -30 -22 -44 -8 -35 -81 -108 -184 -186 -55 -42 -79 -55 -71 -40 14
25 114 172 138 202 17 21 35 52 88 150 62 115 71 130 100 162 38 43 67 82 74
102 8 21 -9 46 -38 55 -20 6 -22 13 -19 55 6 87 21 114 86 156 59 38 88 80 76
110 -7 20 -79 20 -96 0 -7 -8 -16 -15 -21 -15 -5 0 -9 7 -9 15 0 12 -13 15
-59 15 l-58 0 -6 -57 c-6 -60 -6 -61 -79 -108 -69 -44 -73 -41 -69 50 3 85 10
101 44 108 12 2 2 5 -23 6 -36 1 -53 -5 -79 -27z m199 -246 c0 -20 -6 -24 -41
-29 -22 -3 -43 -8 -46 -11 -3 -2 -7 -35 -9 -72 -5 -80 -31 -168 -56 -191 -10
-9 -20 -14 -22 -12 -5 5 20 219 28 239 6 15 124 100 139 100 4 0 7 -11 7 -24z
m199 -850 c1 -125 10 -217 37 -377 8 -45 -2 -52 -56 -40 -48 11 -64 -7 -36
-38 9 -10 16 -20 16 -23 0 -9 -104 -57 -137 -64 -36 -7 -40 0 -23 38 6 13 26
88 45 168 19 80 37 155 41 168 5 18 2 24 -15 29 -27 7 -27 24 4 69 31 45 32
67 3 87 -23 15 -23 15 42 75 36 33 68 58 71 56 4 -2 7 -69 8 -148z"/>
<path d="M621 701 c-17 -31 -13 -64 15 -143 39 -106 56 -128 106 -128 40 0 40
0 34 33 -4 17 -11 57 -16 87 -4 30 -16 80 -27 110 -18 54 -19 55 -60 58 -33 2
-44 -1 -52 -17z"/>
</g>
</svg>
