<?xml version="1.0" standalone="no"?>
<!DOCTYPE svg PUBLIC "-//W3C//DTD SVG 20010904//EN"
 "http://www.w3.org/TR/2001/REC-SVG-20010904/DTD/svg10.dtd">
<svg version="1.0" xmlns="http://www.w3.org/2000/svg"
 width="209.000000pt" height="203.000000pt" viewBox="0 0 209.000000 203.000000"
 preserveAspectRatio="xMidYMid meet">
<metadata>
Created by potrace 1.16, written by Peter Selinger 2001-2019
</metadata>
<g transform="translate(0.000000,203.000000) scale(0.100000,-0.100000)"
fill="#000000" stroke="none">
<path d="M1141 2016 c-7 -8 -16 -37 -20 -65 -4 -28 -10 -53 -12 -54 -38 -26
-130 -77 -139 -77 -15 0 -3 41 16 56 16 13 19 44 4 44 -17 0 -118 -78 -130
-101 -7 -11 -9 -27 -6 -35 6 -16 -45 -70 -75 -79 -50 -16 -233 -137 -258 -171
-29 -39 -30 -55 -2 -87 19 -22 77 -15 101 12 23 26 107 91 118 91 5 0 15 6 21
14 7 8 31 24 53 36 22 11 47 28 55 36 14 13 17 13 32 0 30 -27 78 -29 101 -4
23 25 25 39 8 56 -9 9 -7 16 8 33 18 20 65 49 80 49 3 0 3 -35 -2 -77 -4 -43
-7 -126 -6 -186 l2 -107 -47 -21 c-27 -12 -67 -30 -91 -42 -23 -11 -45 -17
-49 -13 -3 3 -2 6 4 6 13 0 59 87 68 129 11 51 -8 64 -55 37 -32 -18 -130
-131 -130 -150 0 -7 -27 -42 -55 -70 -12 -12 -56 -48 -100 -81 -119 -90 -177
-147 -170 -166 3 -9 30 -34 59 -55 30 -21 63 -52 74 -69 40 -60 46 -177 13
-277 -12 -37 -69 -249 -78 -288 -2 -14 -11 -40 -20 -58 -18 -42 -10 -67 29
-83 28 -11 32 -10 49 12 23 30 69 165 69 202 0 15 12 71 26 124 15 54 31 123
36 153 21 119 -17 280 -78 326 -19 15 -34 32 -34 40 0 7 28 31 63 53 90 58
131 89 172 131 l37 38 25 -24 c32 -29 32 -29 118 0 39 13 72 22 75 19 2 -2 -9
-14 -24 -27 -25 -19 -27 -25 -17 -44 13 -25 41 -42 70 -42 12 0 21 -6 21 -13
0 -14 -103 -116 -206 -205 -70 -60 -73 -79 -18 -108 33 -18 34 -18 56 3 13 12
37 25 53 29 38 9 101 40 142 71 17 12 38 23 46 23 8 0 20 7 27 15 7 8 18 15
26 15 7 0 19 6 26 13 7 8 25 17 39 20 15 4 41 20 59 37 18 16 34 30 36 30 1 0
25 14 51 32 48 32 65 48 84 81 25 44 -55 23 -145 -38 -19 -13 -45 -26 -57 -30
-13 -4 -50 -21 -81 -36 -60 -30 -70 -26 -42 16 8 13 18 48 21 77 5 51 4 54
-21 66 -46 21 -39 34 68 130 30 27 37 39 34 65 -3 28 -7 32 -36 35 -18 2 -39
-1 -45 -6 -7 -5 -24 -12 -39 -16 -40 -9 -40 17 -2 134 27 79 23 120 -12 120
-12 0 -15 6 -10 23 3 12 11 45 17 73 11 46 18 54 70 89 59 39 99 83 99 110 0
22 -62 19 -102 -5 -42 -25 -58 -25 -58 0 0 17 -7 20 -39 20 -21 0 -44 -6 -50
-14z"/>
<path d="M1230 704 c-24 -8 -51 -20 -59 -28 -12 -13 -12 -18 3 -41 26 -40 57
-50 94 -31 47 24 62 21 62 -14 0 -38 -29 -97 -64 -129 -14 -14 -26 -29 -26
-34 0 -16 -164 -177 -206 -202 -47 -28 -55 -41 -43 -72 14 -37 69 -40 137 -8
31 15 71 33 87 40 17 7 51 22 78 34 26 11 56 21 66 21 10 0 26 9 36 20 10 11
32 22 50 26 32 6 55 35 55 69 0 26 -21 26 -98 2 -88 -29 -142 -40 -142 -29 0
6 80 120 130 184 29 38 38 120 16 152 -13 21 -101 59 -125 55 -3 -1 -26 -7
-51 -15z"/>
<path d="M912 605 c-44 -19 -51 -43 -21 -69 36 -31 50 -72 55 -156 5 -88 11
-110 28 -110 21 0 59 47 52 66 -3 9 -1 23 5 30 16 19 6 141 -15 179 -9 17 -16
40 -16 53 0 17 -6 22 -27 22 -16 -1 -43 -7 -61 -15z"/>
</g>
</svg>
