<?xml version="1.0" standalone="no"?>
<!DOCTYPE svg PUBLIC "-//W3C//DTD SVG 20010904//EN"
 "http://www.w3.org/TR/2001/REC-SVG-20010904/DTD/svg10.dtd">
<svg version="1.0" xmlns="http://www.w3.org/2000/svg"
 width="207.000000pt" height="207.000000pt" viewBox="0 0 207.000000 207.000000"
 preserveAspectRatio="xMidYMid meet">
<metadata>
Created by potrace 1.16, written by Peter Selinger 2001-2019
</metadata>
<g transform="translate(0.000000,207.000000) scale(0.100000,-0.100000)"
fill="#000000" stroke="none">
<path d="M1125 2030 c-6 -33 -12 -41 -33 -46 -15 -3 -40 -10 -57 -15 -16 -4
-54 -8 -84 -7 -68 2 -85 -16 -76 -82 7 -53 -7 -71 -91 -114 -29 -15 -60 -36
-69 -46 -10 -11 -27 -20 -37 -20 -25 0 -80 -55 -76 -76 2 -9 17 -27 33 -40 28
-21 33 -22 57 -10 15 8 45 17 67 21 28 4 45 14 53 28 13 27 27 37 50 37 14 0
18 -11 20 -56 4 -67 22 -86 60 -65 19 9 24 21 25 54 1 23 7 71 13 107 10 61
14 67 53 92 23 15 45 24 49 20 11 -11 16 -255 7 -306 -5 -25 -14 -67 -19 -93
-6 -27 -13 -60 -16 -74 -5 -20 0 -30 17 -43 39 -27 62 -19 116 39 29 30 56 55
62 55 5 0 18 -13 27 -30 17 -28 58 -50 94 -50 27 0 32 40 10 76 l-20 31 31 84
c43 115 47 145 19 154 -26 8 -46 -5 -136 -91 l-72 -69 0 110 c1 61 -3 132 -7
158 -12 76 24 167 66 167 10 0 21 5 24 10 4 6 24 18 45 26 37 15 54 41 41 62
-10 16 -49 24 -68 14 -10 -6 -31 -12 -48 -13 -26 -3 -30 -1 -29 19 1 20 -4 22
-47 22 l-47 0 -7 -40z"/>
<path d="M680 1310 c-24 -18 -25 -22 -25 -146 0 -122 1 -127 23 -142 22 -15
25 -14 47 14 19 24 24 46 30 124 3 52 8 103 11 112 5 18 -28 58 -48 58 -7 0
-24 -9 -38 -20z"/>
<path d="M835 1276 c-13 -19 -14 -29 -5 -46 8 -15 8 -46 -1 -120 -16 -122 -8
-136 45 -81 34 35 39 46 48 117 13 106 0 154 -42 154 -20 0 -35 -8 -45 -24z"/>
<path d="M1533 1258 c-17 -13 -41 -30 -54 -38 -12 -8 -44 -33 -71 -55 -93 -78
-114 -93 -203 -154 -49 -34 -110 -77 -135 -96 -25 -19 -50 -35 -56 -35 -6 0
-18 -8 -25 -17 -8 -9 -43 -35 -79 -59 -36 -23 -74 -51 -84 -63 -25 -28 -36
-27 -36 4 0 36 -38 49 -85 29 -20 -8 -39 -22 -42 -31 -7 -17 11 -118 48 -273
41 -173 40 -169 25 -198 -23 -42 -110 -129 -154 -151 -45 -23 -112 -87 -112
-107 0 -11 18 -14 78 -14 70 0 81 3 112 29 45 36 135 79 191 89 24 5 60 16 79
24 98 44 266 90 377 104 12 1 27 5 32 9 6 3 35 8 65 11 78 7 140 19 231 44 54
14 113 22 180 23 l100 2 0 60 c0 54 -2 60 -20 59 -44 -3 -175 -26 -260 -46
-106 -25 -130 -29 -335 -63 -85 -14 -180 -33 -210 -42 -30 -9 -65 -17 -77 -19
-13 -1 -38 -12 -57 -23 -30 -19 -96 -29 -96 -15 0 10 54 76 105 128 74 77 145
162 145 175 0 6 7 11 15 11 8 0 15 4 15 9 0 5 15 18 33 28 35 21 87 112 87
151 0 15 -18 40 -47 69 l-48 45 23 17 c13 9 45 33 72 54 27 20 54 37 59 37 9
0 62 42 146 117 l40 36 3 -43 c2 -23 -2 -64 -7 -92 -6 -27 -16 -118 -22 -201
-5 -84 -15 -169 -21 -189 -14 -46 -52 -75 -74 -57 -11 9 -18 9 -27 0 -15 -15
1 -42 37 -59 24 -12 34 -12 72 3 37 14 47 25 71 73 23 48 30 81 45 231 9 97
22 205 27 241 13 83 14 191 1 224 -12 32 -36 33 -77 4z m-424 -492 c32 -33 33
-37 22 -65 -7 -16 -26 -42 -42 -58 -15 -15 -29 -32 -29 -36 0 -5 -22 -32 -49
-60 -27 -29 -75 -80 -107 -114 -31 -35 -60 -63 -64 -63 -4 0 -14 44 -23 98
-17 107 -11 133 35 148 12 4 34 19 49 33 14 14 52 49 83 76 32 28 63 55 70 62
16 18 19 17 55 -21z"/>
</g>
</svg>
