<?xml version="1.0" standalone="no"?>
<!DOCTYPE svg PUBLIC "-//W3C//DTD SVG 20010904//EN"
 "http://www.w3.org/TR/2001/REC-SVG-20010904/DTD/svg10.dtd">
<svg version="1.0" xmlns="http://www.w3.org/2000/svg"
 width="209.000000pt" height="207.000000pt" viewBox="0 0 209.000000 207.000000"
 preserveAspectRatio="xMidYMid meet">
<metadata>
Created by potrace 1.16, written by Peter Selinger 2001-2019
</metadata>
<g transform="translate(0.000000,207.000000) scale(0.100000,-0.100000)"
fill="#000000" stroke="none">
<path d="M1007 1996 c5 -67 4 -76 -12 -82 -25 -10 -105 13 -125 36 -27 31 -65
35 -90 10 -22 -22 -23 -45 -4 -140 4 -22 -4 -31 -63 -70 -73 -48 -237 -140
-344 -192 -40 -20 -74 -44 -84 -61 -15 -25 -15 -30 -1 -52 8 -13 24 -26 35
-30 38 -12 144 35 226 100 22 17 48 34 58 38 9 3 17 11 17 17 0 5 7 10 16 10
8 0 30 11 47 24 18 13 47 30 65 39 37 18 37 18 47 -55 8 -59 24 -74 68 -61 31
9 32 11 29 59 -2 27 0 72 3 100 6 48 8 52 55 77 54 29 69 23 52 -21 -15 -39
-33 -187 -26 -220 4 -19 -1 -35 -16 -55 -19 -24 -23 -25 -36 -12 -9 8 -29 15
-44 15 -39 0 -65 -38 -57 -84 4 -25 1 -39 -12 -50 -10 -9 -21 -13 -24 -10 -13
13 -36 -18 -42 -57 -8 -46 4 -66 43 -71 20 -2 28 -9 30 -28 2 -20 -13 -40 -69
-95 -84 -83 -112 -132 -110 -195 1 -25 1 -80 1 -122 0 -68 3 -78 18 -78 27 0
77 58 106 123 14 32 26 61 26 66 0 5 6 14 14 20 12 10 15 1 21 -56 3 -37 12
-97 20 -133 8 -36 17 -81 20 -100 16 -85 53 -116 96 -81 30 24 33 76 11 161
-20 75 -19 100 1 100 19 0 107 64 107 77 0 22 -40 35 -86 28 -40 -6 -45 -4
-52 17 -10 29 -3 138 9 138 5 0 9 -4 9 -10 0 -5 5 -10 11 -10 7 0 10 21 9 58
-1 31 -2 62 -1 69 0 7 35 47 77 89 58 59 78 74 87 65 8 -8 12 -55 12 -139 0
-120 -2 -130 -29 -186 l-30 -59 23 -40 c19 -32 22 -48 16 -84 -4 -25 -7 -96
-7 -159 0 -63 -3 -112 -7 -110 -8 5 -45 77 -61 120 -19 50 -31 17 -20 -52 21
-125 68 -215 131 -248 28 -14 30 -14 50 18 19 31 20 42 14 219 -4 112 -3 189
3 193 5 3 39 -27 76 -65 75 -79 76 -86 31 -153 -14 -20 -25 -39 -25 -41 0 -2
-12 -30 -27 -62 -24 -53 -31 -92 -18 -113 7 -12 75 26 94 52 9 13 27 45 41 72
35 67 49 75 95 50 21 -10 44 -29 53 -42 8 -13 31 -34 50 -47 78 -53 262 -230
262 -252 0 -7 6 -13 13 -13 8 0 27 -13 43 -30 31 -31 65 -38 82 -17 6 7 11 34
10 60 0 45 -3 49 -58 95 -91 74 -311 264 -342 294 -15 16 -31 28 -35 28 -4 0
-20 18 -35 39 -28 39 -36 79 -19 96 15 17 102 269 116 335 4 19 11 40 15 45 5
6 18 48 29 94 12 46 26 90 32 97 13 16 24 143 15 178 -8 31 -36 34 -83 8 -17
-9 -50 -27 -72 -40 -23 -12 -64 -46 -92 -75 l-51 -52 8 40 c4 22 13 58 21 80
20 53 32 164 22 193 -11 29 -61 30 -89 2 -16 -16 -19 -28 -15 -53 5 -23 -4
-64 -29 -141 -20 -59 -36 -111 -36 -116 0 -5 -9 -30 -21 -57 -25 -57 -28 -53
-54 77 -9 47 -20 92 -24 100 -12 24 -48 23 -87 0 -19 -12 -36 -21 -38 -19 -1
2 -7 22 -12 44 -8 35 -14 41 -45 49 l-36 9 37 61 c34 57 49 96 69 186 14 58
30 90 48 97 10 3 31 15 46 26 16 10 30 17 33 14 6 -5 82 20 144 47 53 23 79
48 89 84 l10 32 -79 0 c-72 0 -87 -4 -164 -41 -47 -22 -88 -45 -92 -50 -3 -5
-11 -9 -19 -9 -9 0 -15 15 -17 48 l-3 47 -52 3 -52 3 6 -75z m-87 -126 c0 -5
-4 -10 -10 -10 -5 0 -10 5 -10 10 0 6 5 10 10 10 6 0 10 -4 10 -10z m676 -616
c-14 -43 -34 -113 -46 -154 -12 -41 -28 -91 -35 -110 -7 -19 -23 -66 -35 -105
-26 -82 -47 -125 -60 -125 -15 0 -40 56 -40 90 0 24 -6 33 -27 41 -16 6 -35
15 -44 19 -8 4 -23 3 -33 -2 -10 -5 -19 -8 -21 -6 -1 1 12 34 29 71 30 62 106
165 166 223 64 62 162 145 166 142 2 -3 -7 -40 -20 -84z m-606 63 c0 -17 -38
-53 -46 -44 -8 8 23 57 36 57 6 0 10 -6 10 -13z"/>
<path d="M557 1227 c-38 -18 -48 -28 -53 -54 -3 -17 -4 -36 -1 -40 11 -17 9
-268 -2 -363 -6 -52 -16 -138 -22 -190 -16 -139 -14 -244 7 -275 19 -29 31
-31 62 -9 20 14 22 24 22 98 0 46 10 163 22 262 11 98 22 238 24 309 1 72 4
163 6 204 1 43 -2 76 -7 77 -6 2 -31 -6 -58 -19z"/>
</g>
</svg>
