<?xml version="1.0" standalone="no"?>
<!DOCTYPE svg PUBLIC "-//W3C//DTD SVG 20010904//EN"
 "http://www.w3.org/TR/2001/REC-SVG-20010904/DTD/svg10.dtd">
<svg version="1.0" xmlns="http://www.w3.org/2000/svg"
 width="209.000000pt" height="207.000000pt" viewBox="0 0 209.000000 207.000000"
 preserveAspectRatio="xMidYMid meet">
<metadata>
Created by potrace 1.16, written by Peter Selinger 2001-2019
</metadata>
<g transform="translate(0.000000,207.000000) scale(0.100000,-0.100000)"
fill="#000000" stroke="none">
<path d="M1084 1903 c-27 -5 -53 -52 -47 -84 3 -14 -1 -30 -9 -36 -13 -10
-147 -53 -167 -53 -6 0 -11 17 -11 39 0 40 20 71 44 71 8 0 19 7 26 16 11 12
11 17 -1 28 -11 11 -29 12 -87 3 -96 -13 -105 -26 -93 -126 10 -75 7 -101 -11
-101 -5 0 -41 -16 -79 -35 -39 -19 -76 -35 -84 -35 -7 0 -29 -9 -47 -21 -18
-11 -58 -35 -88 -52 -36 -21 -62 -46 -77 -71 -27 -49 -18 -71 34 -85 34 -10
41 -7 97 29 42 28 72 40 97 40 24 0 42 7 55 21 10 12 36 30 57 40 42 22 42 22
52 -56 9 -79 36 -195 46 -201 5 -3 9 -10 9 -15 0 -6 -4 -8 -9 -5 -12 8 -63
-12 -73 -27 -4 -7 -7 -50 -7 -96 1 -67 -3 -86 -15 -93 -9 -5 -28 -20 -43 -32
-24 -21 -27 -30 -26 -82 2 -55 0 -60 -25 -72 -40 -18 -60 -15 -74 15 -20 41
-40 49 -88 33 l-42 -14 8 -60 c4 -34 7 -162 6 -286 -1 -123 1 -232 4 -242 9
-30 39 -21 57 18 10 19 15 40 11 45 -3 5 -1 16 5 23 6 7 13 46 17 87 7 84 38
215 56 236 15 19 68 46 76 39 3 -3 0 -17 -6 -30 -6 -14 -16 -64 -23 -112 -11
-81 -10 -89 7 -101 12 -9 32 -12 52 -9 30 4 32 3 32 -26 0 -17 -8 -40 -17 -51
-21 -22 -23 -88 -4 -111 20 -24 63 -20 83 8 11 15 23 69 34 147 21 154 19 149
43 149 26 0 83 49 79 68 -2 10 -21 20 -48 27 l-45 11 -3 59 c-2 32 2 70 8 85
9 23 62 69 115 102 15 9 13 -606 -3 -624 -16 -20 -3 -63 28 -93 63 -61 88 -5
92 208 2 85 7 159 11 163 4 4 26 -10 49 -33 l41 -41 -12 -48 c-7 -27 -30 -90
-52 -141 -52 -123 -51 -151 7 -165 32 -8 48 11 71 82 30 91 71 180 83 180 5 0
10 -4 10 -9 0 -12 114 -131 125 -131 4 0 36 -27 72 -60 35 -33 68 -60 74 -60
6 0 35 -25 66 -55 79 -78 112 -95 184 -95 51 0 59 2 59 19 0 11 2 26 5 33 4 9
-8 20 -32 32 -83 39 -201 126 -337 249 -93 84 -112 103 -158 165 l-39 53 21
87 c12 48 44 152 72 231 53 152 69 255 51 336 -8 35 -13 40 -38 43 -20 2 -38
-5 -55 -20 -14 -13 -37 -31 -52 -41 -27 -17 -28 -17 -28 1 0 10 4 22 10 28 8
8 21 53 46 159 7 26 -15 53 -46 56 -36 5 -90 -30 -90 -58 0 -13 -4 -23 -9 -23
-12 0 -25 221 -16 268 4 20 10 55 13 77 6 36 10 40 42 45 19 4 64 18 100 32
36 14 72 28 81 31 17 6 30 58 21 89 -6 26 -43 23 -116 -12 -35 -16 -82 -32
-105 -36 -34 -5 -42 -4 -47 12 -14 48 -23 54 -60 47z m-86 -308 c-6 -51 7 -69
22 -31 17 45 28 28 35 -51 6 -72 23 -143 46 -200 10 -27 37 -30 55 -5 13 16
13 16 14 -3 0 -32 -27 -157 -41 -190 l-13 -30 -4 32 c-2 21 -10 34 -22 38 -24
8 -75 -18 -95 -48 -8 -12 -37 -40 -65 -61 -38 -29 -54 -36 -59 -27 -5 7 -19
18 -32 25 -21 11 -24 18 -20 61 4 61 16 85 41 85 33 0 72 63 76 124 l4 54 -24
-11 c-15 -7 -27 -24 -31 -42 -12 -61 -27 4 -26 115 1 138 7 155 73 185 29 14
57 25 62 25 5 0 6 -20 4 -45z m308 -612 c-15 -49 -37 -115 -48 -148 -11 -33
-27 -87 -35 -120 -24 -95 -21 -92 -49 -60 -13 17 -27 43 -31 58 -3 16 -12 31
-19 34 -22 8 -17 25 37 119 69 120 152 224 167 209 3 -2 -7 -44 -22 -92z
m-592 -88 c-4 -8 -8 -15 -10 -15 -2 0 -4 7 -4 15 0 8 4 15 10 15 5 0 7 -7 4
-15z"/>
</g>
</svg>
