<?xml version="1.0" standalone="no"?>
<!DOCTYPE svg PUBLIC "-//W3C//DTD SVG 20010904//EN"
 "http://www.w3.org/TR/2001/REC-SVG-20010904/DTD/svg10.dtd">
<svg version="1.0" xmlns="http://www.w3.org/2000/svg"
 width="208.000000pt" height="209.000000pt" viewBox="0 0 208.000000 209.000000"
 preserveAspectRatio="xMidYMid meet">
<metadata>
Created by potrace 1.16, written by Peter Selinger 2001-2019
</metadata>
<g transform="translate(0.000000,209.000000) scale(0.100000,-0.100000)"
fill="#000000" stroke="none">
<path d="M1020 2064 c-6 -14 -10 -56 -10 -93 0 -63 -2 -69 -32 -98 -32 -31
-110 -72 -135 -73 -9 0 -13 16 -13 45 0 25 6 54 13 65 10 17 9 22 -3 30 -9 6
-18 6 -24 0 -6 -6 -23 -10 -39 -10 -15 0 -37 -5 -49 -11 -18 -10 -19 -17 -13
-82 4 -40 11 -80 16 -89 7 -13 2 -23 -23 -41 -47 -35 -106 -67 -125 -67 -16 0
-81 -44 -95 -64 -16 -24 -8 -64 17 -80 13 -9 30 -16 38 -16 24 0 141 51 163
71 11 11 38 28 59 39 34 18 41 18 55 5 26 -23 86 -19 104 7 22 31 20 37 -10
49 -25 9 -25 11 -11 27 9 9 30 25 47 36 l32 18 -6 -75 c-5 -52 -3 -77 5 -82
20 -13 76 62 90 118 29 123 55 155 224 284 6 5 30 21 55 37 24 16 56 40 69 53
l26 23 -75 0 c-84 -1 -111 -12 -185 -74 -54 -46 -75 -40 -56 15 19 55 16 59
-44 59 -50 0 -56 -2 -65 -26z"/>
<path d="M1563 1895 c-28 -36 -131 -142 -217 -224 -25 -24 -51 -41 -58 -38 -8
3 -13 22 -13 48 0 38 3 44 23 44 12 0 23 2 24 5 6 12 -30 47 -60 59 -18 8 -37
22 -42 31 -11 21 -58 15 -77 -9 -17 -22 -16 -44 6 -93 10 -24 24 -64 30 -91
21 -91 19 -95 -84 -196 -107 -104 -133 -154 -100 -191 10 -11 26 -22 36 -25
27 -9 25 -17 -27 -95 -53 -79 -54 -109 -4 -135 27 -14 33 -14 61 0 23 12 29
21 24 35 -4 12 4 39 21 70 31 57 58 85 73 75 16 -9 13 -117 -2 -140 -8 -11
-21 -41 -29 -66 -13 -39 -14 -50 -2 -77 7 -18 20 -35 29 -38 8 -3 15 -10 15
-14 0 -5 -35 -37 -77 -71 -76 -61 -223 -202 -223 -214 0 -19 23 -43 45 -49 57
-14 151 61 310 249 28 33 62 72 77 86 16 15 32 37 37 50 l9 24 10 -26 c6 -15
10 -97 9 -192 l-2 -166 -52 -48 c-62 -57 -114 -101 -133 -113 -14 -9 -18 -69
-5 -89 3 -6 15 -11 27 -11 47 0 172 -120 188 -181 12 -43 33 -59 79 -59 26 0
31 4 31 23 0 13 6 32 14 42 10 14 11 25 5 37 -11 20 -27 131 -39 268 -8 93 -7
96 21 153 16 32 29 69 29 82 0 22 -4 24 -24 19 -15 -3 -25 -1 -28 8 -9 25 -9
313 0 337 11 32 -13 183 -34 217 -9 13 -27 27 -41 30 -21 6 -23 10 -17 38 3
17 12 43 20 57 7 15 16 55 20 91 5 51 3 66 -9 77 -20 16 -73 6 -81 -15 -3 -8
-10 -14 -16 -14 -5 0 -19 -9 -31 -21 -26 -26 -31 -21 -19 22 6 20 28 52 52 75
23 21 63 60 89 87 26 26 52 47 58 47 6 0 11 -20 12 -47 1 -69 9 -253 12 -288
3 -41 16 -75 28 -75 19 0 59 49 59 72 3 255 21 431 50 502 19 46 21 58 10 71
-23 27 -65 18 -97 -20z m-393 -469 c0 -13 -8 -27 -17 -30 -27 -11 -35 8 -13
32 26 28 30 28 30 -2z m6 -99 c-6 -24 -76 -87 -76 -69 0 14 71 104 77 98 3 -3
3 -16 -1 -29z m124 -51 c-18 -41 -40 -54 -40 -24 0 14 51 81 57 75 2 -3 -5
-26 -17 -51z m70 -248 c0 -25 -10 -41 -52 -80 -28 -26 -54 -46 -56 -43 -8 7
40 99 66 128 33 35 42 34 42 -5z m20 -700 c0 -30 -1 -31 -17 -16 -13 14 -14
20 -3 32 18 22 20 20 20 -16z"/>
<path d="M560 1249 c-25 -16 -31 -25 -27 -42 3 -12 13 -49 21 -82 9 -33 18
-72 21 -86 7 -37 32 -44 61 -17 21 20 24 32 24 94 0 126 -35 172 -100 133z"/>
<path d="M650 731 c0 -55 4 -111 9 -124 6 -15 6 -40 1 -63 -5 -22 -19 -88 -30
-149 l-21 -110 31 -28 c16 -15 35 -27 41 -27 22 0 93 88 125 155 37 77 64 219
45 238 -16 16 -48 -18 -55 -57 -4 -18 -15 -41 -25 -50 -18 -16 -18 -14 -19 70
-1 73 -4 90 -21 108 -12 12 -21 32 -21 44 0 12 -4 30 -9 40 -5 9 -12 25 -15
35 -3 9 -12 17 -21 17 -12 0 -15 -17 -15 -99z"/>
</g>
</svg>
