<?xml version="1.0" standalone="no"?>
<!DOCTYPE svg PUBLIC "-//W3C//DTD SVG 20010904//EN"
 "http://www.w3.org/TR/2001/REC-SVG-20010904/DTD/svg10.dtd">
<svg version="1.0" xmlns="http://www.w3.org/2000/svg"
 width="208.000000pt" height="210.000000pt" viewBox="0 0 208.000000 210.000000"
 preserveAspectRatio="xMidYMid meet">
<metadata>
Created by potrace 1.16, written by Peter Selinger 2001-2019
</metadata>
<g transform="translate(0.000000,210.000000) scale(0.100000,-0.100000)"
fill="#000000" stroke="none">
<path d="M1284 1683 c-44 -58 -145 -154 -179 -169 -35 -15 -88 -62 -104 -92
-9 -17 -9 -27 0 -44 27 -52 60 -50 113 7 24 25 46 45 50 45 4 0 23 12 42 26
19 15 37 24 41 20 7 -7 10 -403 4 -594 -4 -104 -8 -135 -20 -147 -9 -7 -52
-28 -96 -45 -91 -35 -104 -44 -124 -83 -14 -26 -13 -29 16 -59 31 -30 31 -30
63 -14 43 21 55 20 90 -5 l29 -22 33 28 c18 15 40 40 48 56 36 67 208 148 380
179 35 6 72 16 81 21 19 10 34 62 24 79 -15 25 -190 3 -325 -40 -51 -16 -95
-28 -97 -26 -2 2 1 174 6 382 6 209 11 413 12 454 l2 75 -30 3 c-25 3 -35 -4
-59 -35z"/>
<path d="M403 1600 c-15 -6 -24 -21 -28 -47 -3 -21 -10 -46 -16 -55 -5 -10 -9
-49 -9 -88 0 -59 -5 -79 -32 -132 -25 -48 -32 -76 -33 -118 0 -46 3 -55 18
-54 38 3 14 -129 -32 -170 -28 -25 -26 -47 4 -76 19 -18 25 -34 25 -64 0 -55
-27 -221 -45 -272 -8 -23 -17 -65 -21 -93 -6 -46 -4 -55 16 -76 29 -31 43 -31
60 -1 7 14 63 71 124 128 61 57 137 129 169 161 l59 57 40 -31 c22 -18 42 -38
45 -46 14 -37 104 -47 111 -12 2 12 -69 119 -105 157 -7 7 -13 16 -13 20 0 4
-16 24 -34 46 l-34 38 -28 -18 c-40 -26 -45 -35 -39 -69 6 -38 1 -46 -60 -80
-27 -16 -76 -53 -108 -82 -52 -46 -77 -62 -77 -49 0 2 6 39 14 82 8 44 17 107
21 141 3 34 17 83 30 110 14 26 25 53 25 58 0 9 24 35 90 99 64 61 143 202
155 273 4 24 4 56 0 73 -10 45 -42 48 -146 15 -49 -16 -91 -26 -94 -23 -3 3 1
31 10 64 20 78 19 103 -7 125 -24 21 -24 21 -55 9z m194 -284 c-19 -49 -85
-137 -107 -142 -14 -4 -30 -11 -37 -16 -6 -5 -14 -5 -16 0 -7 10 10 87 24 114
20 37 149 79 136 44z"/>
<path d="M22 1184 c-35 -24 -30 -85 11 -137 18 -23 40 -58 49 -77 9 -19 30
-54 47 -77 59 -81 92 -45 63 67 -12 49 -81 191 -105 218 -24 26 -35 27 -65 6z"/>
</g>
</svg>
