<?xml version="1.0" standalone="no"?>
<!DOCTYPE svg PUBLIC "-//W3C//DTD SVG 20010904//EN"
 "http://www.w3.org/TR/2001/REC-SVG-20010904/DTD/svg10.dtd">
<svg version="1.0" xmlns="http://www.w3.org/2000/svg"
 width="205.000000pt" height="206.000000pt" viewBox="0 0 205.000000 206.000000"
 preserveAspectRatio="xMidYMid meet">
<metadata>
Created by potrace 1.16, written by Peter Selinger 2001-2019
</metadata>
<g transform="translate(0.000000,206.000000) scale(0.100000,-0.100000)"
fill="#000000" stroke="none">
<path d="M1345 1968 c-25 -51 -49 -100 -54 -108 -5 -8 -17 -35 -27 -60 -10
-25 -40 -78 -66 -119 -53 -82 -59 -112 -26 -135 33 -23 44 -20 96 27 78 73
252 174 274 161 4 -3 1 -22 -8 -42 -9 -20 -23 -52 -30 -70 -8 -18 -22 -35 -32
-39 -9 -3 -46 -19 -82 -35 -35 -17 -91 -38 -125 -49 -71 -22 -142 -77 -132
-102 4 -10 17 -22 31 -28 20 -9 33 -8 68 10 25 11 51 21 59 21 8 1 31 7 51 14
l37 13 -31 -56 c-17 -31 -40 -65 -50 -77 -10 -11 -18 -24 -18 -30 -1 -5 -23
-40 -50 -79 -27 -38 -66 -97 -86 -130 -52 -84 -144 -205 -157 -205 -5 0 -25
-11 -44 -26 -24 -18 -33 -33 -33 -53 0 -33 -67 -139 -110 -173 -58 -46 -102
-77 -154 -109 -17 -10 -18 -8 -13 23 5 30 39 190 67 315 9 39 24 67 63 111 65
74 104 139 134 221 41 115 38 210 -8 221 -34 9 -99 -7 -132 -31 -16 -12 -30
-19 -32 -17 -10 10 -6 179 4 210 7 21 22 40 36 46 31 14 32 27 1 47 -27 18
-89 12 -120 -10 -31 -23 -36 -80 -25 -315 6 -124 7 -253 4 -288 -6 -54 -9 -63
-30 -68 -31 -8 -88 11 -110 36 -16 17 -16 25 -5 64 12 43 8 66 -10 66 -17 0
-50 -87 -50 -132 0 -40 5 -50 32 -74 38 -32 95 -57 113 -51 6 3 17 2 24 -2 13
-8 13 -5 -39 -251 -26 -121 -46 -193 -59 -218 -15 -29 -14 -43 8 -71 13 -17
28 -24 51 -23 18 0 36 5 39 11 4 6 22 17 41 25 19 8 91 59 160 114 69 55 126
99 127 98 2 -1 5 -34 8 -72 13 -155 17 -167 52 -178 37 -10 71 9 218 123 28
21 69 48 92 60 23 11 44 25 48 31 3 5 13 10 22 10 14 0 15 -10 8 -77 -12 -111
-11 -298 2 -406 5 -37 5 -37 53 -37 l48 0 7 60 c4 37 2 72 -5 95 -17 50 -4
321 16 353 9 13 13 30 10 39 -9 24 29 99 61 119 15 10 41 28 56 41 16 13 36
23 44 23 9 0 25 8 35 17 10 9 47 29 81 44 62 28 84 58 70 95 -8 22 -95 18
-124 -5 -19 -14 -127 -70 -191 -99 -10 -5 2 60 14 74 5 7 11 35 15 63 5 41 2
55 -12 71 -16 17 -16 24 -6 47 14 31 24 22 42 -40 10 -40 33 -57 50 -40 7 7 2
27 -15 61 -27 53 -33 87 -17 96 13 8 46 75 55 109 15 62 -13 80 -83 56 -44
-15 -59 0 -36 35 23 34 12 46 -18 19 -25 -23 -87 -41 -87 -25 0 6 11 23 23 39
13 15 41 55 62 88 48 77 113 140 162 156 21 7 45 18 53 25 34 26 108 61 143
68 38 7 47 22 25 44 -14 14 -90 16 -116 3 -82 -40 -134 -62 -139 -57 -3 3 0
32 6 64 8 39 8 68 2 84 -15 41 -75 46 -141 13 -14 -7 -49 -22 -79 -34 l-53
-21 7 28 c3 15 15 36 26 48 10 11 19 23 19 26 0 3 15 32 33 65 18 32 38 70 44
86 l13 27 -65 0 -64 0 -46 -92z m-518 -743 c-9 -53 -97 -178 -97 -137 0 4 9
13 20 20 16 10 20 22 18 56 -1 49 22 96 49 96 12 0 14 -7 10 -35z m563 -191
c0 -9 -22 -38 -49 -65 -27 -26 -51 -52 -53 -57 -1 -4 -33 -32 -70 -61 -70 -55
-77 -66 -55 -94 21 -29 70 -32 103 -5 31 25 104 61 110 55 2 -2 1 -19 -3 -37
-8 -41 -154 -192 -258 -268 -38 -28 -84 -63 -101 -77 -18 -14 -35 -25 -38 -25
-17 0 2 74 24 90 3 3 17 36 29 74 18 54 22 82 18 126 -6 51 -3 62 22 101 16
24 45 60 66 79 20 19 43 48 52 63 8 16 29 35 46 43 18 8 55 28 82 44 58 33 75
36 75 14z"/>
<path d="M1575 1390 c-15 -17 -16 -20 -3 -20 19 0 42 26 30 34 -5 3 -17 -3
-27 -14z"/>
</g>
</svg>
