<?xml version="1.0" standalone="no"?>
<!DOCTYPE svg PUBLIC "-//W3C//DTD SVG 20010904//EN"
 "http://www.w3.org/TR/2001/REC-SVG-20010904/DTD/svg10.dtd">
<svg version="1.0" xmlns="http://www.w3.org/2000/svg"
 width="208.000000pt" height="208.000000pt" viewBox="0 0 208.000000 208.000000"
 preserveAspectRatio="xMidYMid meet">
<metadata>
Created by potrace 1.16, written by Peter Selinger 2001-2019
</metadata>
<g transform="translate(0.000000,208.000000) scale(0.100000,-0.100000)"
fill="#000000" stroke="none">
<path d="M1530 2043 c-31 -11 -116 -68 -142 -95 -14 -16 -32 -28 -40 -28 -20
0 -72 -58 -96 -105 -38 -78 14 -115 72 -51 17 19 60 57 96 86 73 58 82 53 56
-28 -8 -26 -20 -75 -26 -110 -6 -35 -15 -73 -20 -85 -8 -22 -8 -21 -19 6 -9
23 -16 27 -51 27 -36 0 -41 -4 -59 -37 -17 -33 -109 -123 -125 -123 -3 0 -6
33 -6 74 0 147 -35 224 -95 208 -45 -12 -53 -34 -32 -89 35 -90 39 -149 16
-249 -12 -51 -19 -100 -17 -110 6 -35 33 -19 61 36 32 65 47 74 47 30 0 -37
16 -70 42 -88 10 -7 18 -19 18 -25 0 -7 -22 -46 -50 -87 -27 -41 -50 -80 -50
-86 0 -6 -7 -17 -16 -24 -8 -8 -14 -25 -12 -39 2 -20 11 -28 36 -36 17 -5 32
-12 32 -15 0 -13 -91 -90 -106 -90 -9 0 -43 -27 -76 -60 -34 -33 -67 -60 -74
-60 -7 0 -19 18 -25 40 -18 58 -32 67 -76 46 -35 -17 -35 -17 -29 -67 9 -66
-7 -114 -53 -162 -37 -39 -159 -112 -169 -102 -3 3 -1 20 6 38 6 17 20 77 31
132 26 127 49 195 67 195 14 0 94 57 125 89 9 9 29 28 45 42 16 14 55 54 87
87 118 124 124 262 11 262 -35 0 -166 -32 -207 -51 -15 -7 -30 -9 -35 -5 -10
11 -3 203 9 249 9 33 8 41 -8 53 -26 20 -63 13 -84 -16 -16 -22 -19 -53 -23
-245 -4 -206 -22 -383 -46 -460 -10 -30 -14 -49 -50 -225 -23 -115 -39 -179
-51 -202 -16 -31 -10 -57 18 -75 34 -22 50 -24 57 -7 3 8 12 14 21 14 14 0 85
35 134 65 17 11 53 40 79 65 9 8 34 16 56 17 23 1 60 5 84 9 23 3 42 2 42 -3
0 -5 -9 -37 -21 -70 -17 -51 -18 -68 -9 -102 12 -46 36 -47 46 -2 12 53 17 66
43 106 49 76 93 124 138 151 58 34 66 26 75 -79 19 -236 20 -241 44 -265 14
-15 32 -22 46 -20 19 2 26 14 40 68 9 36 17 81 17 101 1 20 11 81 22 135 30
138 49 240 55 299 3 28 14 73 24 100 10 28 23 68 30 90 7 22 24 53 37 69 15
18 23 39 21 55 -3 22 -7 26 -32 23 -25 -3 -28 -1 -23 18 8 29 -33 70 -69 70
-23 0 -25 3 -19 23 3 12 9 32 12 45 5 19 10 22 34 17 37 -8 65 8 72 42 3 16
11 46 17 68 7 22 18 69 25 105 7 36 23 110 35 165 44 208 33 284 -40 258z
m-130 -529 c0 -40 -9 -51 -39 -46 -19 3 -37 -4 -60 -23 -44 -38 -52 -23 -9 18
20 18 39 44 43 58 12 37 37 52 53 32 6 -9 12 -27 12 -39z m-488 -234 c-2 -24
-54 -111 -82 -140 -8 -8 -32 -36 -52 -61 -40 -49 -134 -114 -143 -99 -5 7 8
87 30 187 7 29 53 83 72 83 9 0 34 9 57 19 105 48 123 50 118 11z m418 -55 c0
-14 -8 -29 -19 -35 -27 -14 -30 -13 -24 13 12 47 43 64 43 22z m-20 -253 c0
-42 -32 -249 -41 -272 -11 -25 -11 -25 -21 -4 -37 80 -180 55 -270 -45 -38
-42 -48 -43 -48 -4 0 15 8 27 23 32 12 5 49 35 82 67 33 31 71 64 85 73 14 9
59 51 100 93 41 43 78 77 83 78 4 0 7 -8 7 -18z"/>
<path d="M410 1158 c-20 -21 -21 -30 -15 -108 8 -105 23 -170 41 -177 8 -3 25
2 39 11 24 16 25 18 23 147 -1 128 -2 131 -25 140 -34 13 -40 12 -63 -13z"/>
<path d="M1500 715 c-7 -8 -18 -15 -26 -15 -20 0 -27 -39 -11 -63 17 -26 73
-53 128 -62 20 -3 44 -14 54 -25 21 -24 87 -27 104 -6 7 8 34 19 61 26 26 6
57 21 67 32 17 19 17 20 -2 34 -10 8 -30 14 -44 14 -14 0 -51 7 -81 15 -30 8
-76 15 -102 15 -35 0 -54 6 -76 25 -34 29 -54 31 -72 10z"/>
</g>
</svg>
