<?xml version="1.0" standalone="no"?>
<!DOCTYPE svg PUBLIC "-//W3C//DTD SVG 20010904//EN"
 "http://www.w3.org/TR/2001/REC-SVG-20010904/DTD/svg10.dtd">
<svg version="1.0" xmlns="http://www.w3.org/2000/svg"
 width="208.000000pt" height="208.000000pt" viewBox="0 0 208.000000 208.000000"
 preserveAspectRatio="xMidYMid meet">
<metadata>
Created by potrace 1.16, written by Peter Selinger 2001-2019
</metadata>
<g transform="translate(0.000000,208.000000) scale(0.100000,-0.100000)"
fill="#000000" stroke="none">
<path d="M1465 1969 c-16 -4 -48 -27 -70 -49 -22 -22 -58 -54 -80 -69 -22 -16
-55 -43 -74 -60 -19 -17 -40 -31 -46 -31 -10 0 -81 -45 -165 -106 -68 -49
-104 -114 -86 -159 8 -22 54 -9 87 24 25 26 177 139 296 220 35 23 65 47 69
52 3 5 10 9 15 9 6 0 8 -4 4 -10 -3 -5 -8 -46 -10 -91 -6 -112 -42 -293 -71
-355 -26 -56 -29 -70 -14 -79 23 -15 56 7 74 51 10 24 29 60 42 80 31 46 59
176 73 339 6 72 13 151 16 176 2 27 -1 51 -8 58 -12 12 -11 12 -52 0z"/>
<path d="M268 1669 c-19 -11 -24 -44 -9 -54 5 -3 13 -20 16 -38 4 -17 15 -48
25 -67 10 -19 24 -69 30 -110 12 -66 11 -79 -3 -107 -16 -29 -41 -118 -54
-185 -7 -35 17 -38 47 -6 l20 22 0 -53 c0 -29 -5 -61 -10 -72 -12 -21 -46 -26
-53 -6 -8 21 -30 -9 -30 -42 0 -32 22 -61 47 -61 10 0 16 -9 16 -22 0 -27 -24
-134 -45 -198 -21 -67 -36 -152 -41 -230 -7 -112 29 -127 152 -60 77 42 187
141 220 198 10 17 21 32 25 32 4 0 10 -25 14 -56 8 -63 -2 -86 -66 -145 -22
-20 -39 -43 -39 -51 0 -22 22 -45 51 -52 21 -4 42 7 111 60 48 35 93 75 101
87 29 41 357 370 364 363 3 -3 0 -97 -7 -209 -7 -111 -14 -221 -15 -244 -1
-54 -10 -62 -34 -31 -11 14 -46 42 -77 64 -51 35 -63 39 -118 39 -90 0 -146
-41 -146 -105 0 -30 39 -97 72 -125 56 -47 117 -13 70 38 -22 24 -46 102 -37
117 8 13 31 13 70 -1 22 -8 41 -28 65 -72 19 -33 44 -72 56 -86 11 -14 29 -48
40 -75 25 -62 65 -106 98 -106 21 0 26 6 31 38 4 20 10 46 15 57 5 11 11 133
14 270 2 138 7 279 10 315 3 36 8 103 12 150 3 49 12 96 21 110 20 32 118 126
154 147 55 33 39 94 -20 72 -14 -5 -30 -15 -36 -22 -20 -25 -93 -77 -108 -77
-24 0 -38 25 -31 59 9 44 -9 62 -55 55 -32 -5 -38 -3 -51 20 -7 14 -19 26 -27
26 -7 0 -13 3 -13 7 0 10 63 94 96 128 37 37 54 66 54 94 0 12 9 29 20 38 25
22 25 34 0 61 -27 29 -33 28 -75 -9 -26 -23 -35 -39 -35 -63 -1 -32 -42 -97
-80 -123 -11 -8 -20 -21 -20 -29 0 -8 -7 -17 -15 -21 -21 -7 -115 -133 -115
-153 0 -28 49 -70 81 -70 l31 0 -7 -49 c-6 -46 -5 -51 19 -66 14 -10 26 -21
26 -25 0 -22 -47 -110 -58 -110 -7 0 -17 -12 -23 -27 -8 -24 -160 -177 -233
-234 -29 -23 -46 -18 -46 13 0 31 -31 151 -41 163 -5 5 -9 21 -9 35 0 33 -28
60 -63 60 -51 0 -70 -47 -46 -115 21 -57 5 -83 -109 -188 -17 -15 -34 -27 -37
-27 -3 0 -22 -11 -43 -25 -56 -38 -62 -11 -22 120 21 71 46 186 59 272 10 66
63 159 107 188 13 8 24 21 24 28 0 7 5 18 11 24 25 25 69 155 69 203 0 69 -24
96 -85 93 -25 -1 -58 -9 -72 -18 -14 -9 -29 -13 -33 -8 -4 4 -15 39 -24 77 -9
37 -30 97 -46 132 -25 57 -32 64 -57 64 -15 0 -36 -5 -45 -11z m262 -362 c0
-18 -58 -125 -72 -133 -8 -5 -9 -1 -5 10 4 10 7 35 7 56 0 27 7 45 22 60 25
23 48 26 48 7z m670 -991 c0 -3 -4 -8 -10 -11 -5 -3 -10 -1 -10 4 0 6 5 11 10
11 6 0 10 -2 10 -4z"/>
<path d="M844 1543 c-12 -2 -29 -12 -39 -23 -15 -16 -15 -26 -4 -92 7 -40 14
-130 14 -201 1 -70 5 -130 9 -134 15 -15 39 15 65 77 24 59 26 77 25 190 -1
96 -5 133 -18 158 -9 17 -20 31 -24 31 -4 -1 -17 -4 -28 -6z"/>
<path d="M93 1172 c-25 -4 -63 -46 -63 -69 0 -8 15 -28 34 -46 19 -18 48 -62
64 -98 16 -37 35 -70 42 -74 7 -4 22 3 38 18 l25 26 -16 66 c-16 64 -71 171
-92 178 -5 1 -20 1 -32 -1z"/>
<path d="M1653 574 c-11 -8 -30 -11 -49 -8 -27 5 -39 0 -72 -31 -23 -20 -39
-42 -36 -48 2 -7 26 -22 53 -35 51 -23 83 -20 138 15 29 19 49 78 34 97 -18
21 -48 25 -68 10z"/>
</g>
</svg>
