<?xml version="1.0" standalone="no"?>
<!DOCTYPE svg PUBLIC "-//W3C//DTD SVG 20010904//EN"
 "http://www.w3.org/TR/2001/REC-SVG-20010904/DTD/svg10.dtd">
<svg version="1.0" xmlns="http://www.w3.org/2000/svg"
 width="209.000000pt" height="210.000000pt" viewBox="0 0 209.000000 210.000000"
 preserveAspectRatio="xMidYMid meet">
<metadata>
Created by potrace 1.16, written by Peter Selinger 2001-2019
</metadata>
<g transform="translate(0.000000,210.000000) scale(0.100000,-0.100000)"
fill="#000000" stroke="none">
<path d="M1131 1996 c-6 -7 -14 -46 -17 -87 l-7 -74 -51 -24 c-28 -14 -69 -33
-91 -44 -22 -11 -51 -20 -65 -21 -31 -1 -90 -37 -90 -54 0 -7 -6 -21 -12 -32
-11 -17 -10 -25 2 -48 21 -36 44 -39 83 -10 34 26 166 98 179 98 14 0 9 -26
-24 -115 -25 -69 -37 -89 -57 -98 -26 -10 -68 -28 -153 -66 -26 -12 -51 -21
-55 -22 -4 0 -21 -16 -37 -35 -25 -30 -28 -40 -20 -62 9 -23 15 -27 48 -26 21
1 50 11 66 22 15 12 40 24 55 28 31 8 35 18 -44 -119 -28 -49 -51 -93 -51 -98
0 -5 -4 -9 -9 -9 -4 0 -24 -11 -44 -25 -20 -13 -54 -29 -74 -35 -21 -6 -56
-21 -78 -33 -53 -29 -58 -60 -15 -96 l32 -27 -33 -54 c-42 -70 -101 -151 -122
-169 -30 -24 -20 -68 19 -89 18 -10 28 -7 62 17 21 16 50 44 62 63 27 38 70
77 86 78 26 0 32 -89 12 -181 -15 -73 -14 -107 5 -127 15 -15 21 -14 74 2 79
25 148 61 190 99 19 18 49 40 67 50 30 18 34 18 67 2 57 -27 100 -53 123 -73
31 -28 123 -70 190 -87 33 -8 79 -24 102 -36 24 -11 48 -18 53 -14 6 3 24 -1
40 -10 17 -8 39 -15 49 -15 11 0 45 -14 77 -31 l57 -31 59 28 c56 27 69 45 51
69 -17 24 -73 55 -99 55 -15 0 -46 5 -68 11 -22 6 -58 13 -80 14 -64 5 -116
20 -172 48 -29 15 -58 27 -65 27 -14 0 -90 38 -98 49 -3 4 -26 19 -52 34 -27
15 -59 39 -72 52 l-24 24 26 27 c35 34 82 105 82 123 0 17 70 101 137 166 64
62 71 95 19 95 -18 0 -45 -9 -59 -20 -14 -11 -32 -20 -40 -20 -35 0 -167 -177
-167 -224 0 -19 -54 -66 -76 -66 -11 0 -52 27 -90 60 -73 63 -109 74 -148 45
-15 -11 -18 -22 -13 -52 5 -31 20 -51 78 -106 39 -37 70 -69 68 -70 -2 -2 -21
-15 -41 -30 -37 -28 -117 -61 -125 -53 -3 2 -6 48 -7 101 -1 95 -2 98 -33 125
-17 15 -39 32 -48 37 -24 14 -14 38 38 95 42 47 87 83 142 114 17 9 80 50 140
90 61 40 138 87 170 105 33 18 79 46 102 63 23 17 54 39 68 49 50 35 18 99
-38 78 -14 -6 -28 -15 -32 -21 -4 -6 -32 -24 -63 -39 -32 -15 -79 -42 -107
-59 -27 -18 -66 -39 -85 -48 -19 -9 -47 -23 -62 -31 -16 -8 -28 -10 -28 -6 0
15 86 145 124 188 39 45 194 129 219 119 28 -11 57 14 57 49 0 18 -5 38 -12
45 -18 18 -71 14 -124 -8 -53 -23 -70 -16 -51 20 7 14 22 49 32 78 11 29 29
62 41 73 27 25 21 52 -13 68 -24 11 -25 15 -20 62 9 72 -4 99 -47 99 -18 0
-39 -6 -45 -14z"/>
</g>
</svg>
