<?xml version="1.0" standalone="no"?>
<!DOCTYPE svg PUBLIC "-//W3C//DTD SVG 20010904//EN"
 "http://www.w3.org/TR/2001/REC-SVG-20010904/DTD/svg10.dtd">
<svg version="1.0" xmlns="http://www.w3.org/2000/svg"
 width="206.000000pt" height="210.000000pt" viewBox="0 0 206.000000 210.000000"
 preserveAspectRatio="xMidYMid meet">
<metadata>
Created by potrace 1.16, written by Peter Selinger 2001-2019
</metadata>
<g transform="translate(0.000000,210.000000) scale(0.100000,-0.100000)"
fill="#000000" stroke="none">
<path d="M629 1923 c-19 -5 -39 -44 -39 -76 0 -40 -37 -201 -58 -253 -11 -28
-38 -84 -59 -125 -56 -106 -85 -183 -77 -202 7 -20 44 -31 73 -22 12 3 37 35
58 72 20 36 59 94 86 127 28 34 52 63 54 65 2 2 6 1 9 -2 10 -10 -14 -61 -57
-123 -22 -30 -39 -57 -39 -59 0 -3 -16 -29 -35 -59 -19 -30 -35 -58 -35 -62 0
-4 -17 -28 -38 -53 -41 -49 -95 -130 -132 -198 -13 -24 -27 -43 -31 -43 -4 0
-13 -16 -19 -35 -13 -40 -2 -65 30 -65 32 0 50 -12 66 -43 13 -25 15 -62 13
-215 -4 -167 -2 -186 14 -196 12 -8 22 -8 35 0 35 22 43 62 49 227 6 170 -1
227 -38 314 l-17 41 30 41 c34 46 43 50 58 21 6 -11 19 -20 29 -20 17 0 189
168 415 405 l67 70 -6 -70 c-4 -38 -8 -200 -9 -359 -1 -189 -5 -291 -12 -293
-6 -2 -32 24 -59 58 l-48 62 5 82 c7 106 -4 125 -59 104 -21 -8 -43 -26 -50
-39 -8 -17 -26 -28 -55 -36 -39 -10 -43 -14 -49 -47 -3 -20 -11 -42 -17 -50
-21 -25 -82 -151 -82 -168 0 -10 -4 -21 -10 -24 -19 -12 -11 -63 12 -79 12 -9
28 -16 34 -16 26 0 77 56 116 127 22 41 42 72 44 70 2 -2 6 -39 9 -83 10 -154
36 -212 81 -180 15 11 18 25 16 72 -3 67 6 134 17 134 14 0 86 -113 111 -172
17 -41 31 -60 51 -68 15 -7 32 -9 37 -6 5 3 23 1 40 -4 19 -5 34 -5 37 1 4 5
26 9 50 9 50 0 124 15 170 35 17 7 52 21 78 30 27 9 51 23 54 31 10 28 33 15
33 -18 1 -57 43 -170 68 -179 12 -5 23 -5 26 0 17 27 2 308 -21 391 -31 114
-69 152 -115 116 -22 -16 -22 -44 -3 -116 8 -30 15 -65 15 -77 0 -31 -79 -72
-170 -89 -109 -20 -128 -19 -132 8 -5 33 7 108 36 223 39 157 45 171 86 185
45 16 136 83 151 113 7 12 21 28 31 35 26 19 83 137 97 200 24 113 4 169 -68
191 -54 16 -88 8 -147 -34 -26 -19 -51 -32 -54 -30 -4 3 -10 31 -13 64 -7 80
-47 168 -83 181 -21 8 -32 7 -51 -5 -23 -15 -24 -20 -19 -88 3 -40 5 -80 5
-89 1 -29 21 -21 21 8 0 16 5 24 13 22 8 -3 13 -37 15 -114 2 -97 0 -113 -21
-149 -13 -23 -32 -41 -46 -45 -23 -5 -47 -52 -36 -70 2 -4 0 -24 -6 -45 -11
-40 -11 -40 31 -125 l22 -45 -21 -105 c-12 -58 -24 -114 -26 -125 -3 -11 -9
-38 -13 -60 l-8 -40 -7 35 c-4 19 -5 197 -3 395 2 283 6 372 18 415 20 70 21
122 4 145 -13 18 -15 17 -54 -11 -22 -16 -55 -47 -74 -69 -57 -66 -387 -389
-392 -384 -3 3 10 29 29 59 19 30 43 73 54 95 10 22 35 74 55 117 36 78 55
172 38 196 -8 12 -19 11 -68 -1 -33 -9 -67 -19 -77 -22 -13 -6 -16 -3 -11 9 3
9 10 16 15 16 5 0 9 15 9 33 0 17 7 41 15 51 18 24 20 104 3 143 -7 15 -12 29
-13 29 -1 5 -43 11 -56 7z m915 -449 c11 -4 16 -19 16 -50 0 -42 -7 -60 -68
-171 -8 -13 -20 -27 -28 -30 -8 -3 -14 -11 -14 -18 0 -8 -24 -34 -52 -59 -60
-53 -66 -48 -49 45 31 172 43 194 135 260 44 33 39 31 60 23z m-307 -346 c-3
-8 -6 -5 -6 6 -1 11 2 17 5 13 3 -3 4 -12 1 -19z"/>
</g>
</svg>
