<?xml version="1.0" standalone="no"?>
<!DOCTYPE svg PUBLIC "-//W3C//DTD SVG 20010904//EN"
 "http://www.w3.org/TR/2001/REC-SVG-20010904/DTD/svg10.dtd">
<svg version="1.0" xmlns="http://www.w3.org/2000/svg"
 width="209.000000pt" height="207.000000pt" viewBox="0 0 209.000000 207.000000"
 preserveAspectRatio="xMidYMid meet">
<metadata>
Created by potrace 1.16, written by Peter Selinger 2001-2019
</metadata>
<g transform="translate(0.000000,207.000000) scale(0.100000,-0.100000)"
fill="#000000" stroke="none">
<path d="M652 1873 c-7 -2 -17 -13 -22 -24 -13 -23 4 -60 51 -110 32 -34 59
-86 59 -113 0 -8 -25 -27 -56 -43 -30 -15 -79 -40 -108 -55 -57 -29 -116 -88
-116 -117 0 -44 75 -62 117 -28 70 56 161 108 198 112 28 3 73 31 131 80 36
30 69 55 73 55 4 0 24 15 43 33 20 17 54 44 77 59 36 25 41 32 41 67 0 26 -5
41 -16 45 -20 8 -71 -16 -120 -57 -55 -46 -118 -85 -148 -93 -23 -5 -28 -2
-46 41 -11 26 -20 55 -20 65 0 10 -18 34 -40 54 -37 33 -66 42 -98 29z"/>
<path d="M1073 1571 c-17 -5 -43 -17 -58 -29 -14 -11 -40 -24 -56 -27 -17 -4
-54 -21 -82 -37 -29 -17 -59 -34 -67 -39 -8 -5 -53 -28 -100 -51 -46 -23 -93
-50 -105 -61 -11 -10 -28 -25 -37 -34 -27 -25 -23 -77 7 -97 13 -9 29 -16 35
-16 7 0 37 23 69 50 32 28 61 50 65 50 4 0 33 17 64 38 31 21 68 42 82 48 14
6 58 27 97 47 43 22 87 37 108 37 32 0 38 4 51 36 8 20 14 48 12 63 -3 29 -28
35 -85 22z"/>
<path d="M1163 1285 c-61 -30 -115 -60 -118 -65 -4 -6 -43 -28 -87 -50 -44
-22 -99 -52 -121 -68 -23 -15 -62 -38 -87 -50 -62 -32 -87 -46 -107 -64 -10
-8 -32 -20 -48 -27 -17 -6 -44 -23 -59 -36 -16 -14 -35 -25 -43 -25 -8 0 -29
-11 -47 -25 -18 -14 -37 -25 -42 -25 -17 -1 -62 -45 -78 -77 -13 -26 -14 -37
-5 -51 25 -40 42 -42 96 -8 27 17 58 39 67 49 10 9 22 17 27 17 6 0 25 11 43
25 18 14 36 25 39 25 6 0 122 72 142 88 6 4 26 14 45 21 19 8 49 25 67 38 17
12 36 23 42 23 5 0 22 11 38 23 15 13 43 29 61 35 19 6 47 23 64 37 16 14 35
25 43 25 7 0 18 7 25 15 26 31 105 68 150 69 44 1 45 2 53 41 10 48 -5 95 -30
95 -10 0 -68 -25 -130 -55z"/>
<path d="M1044 968 c-3 -4 -20 -8 -38 -8 -53 0 -78 -27 -87 -96 -9 -66 0 -86
28 -63 35 29 149 73 164 63 14 -8 11 -80 -5 -117 -7 -18 -32 -55 -54 -84 -32
-39 -52 -55 -82 -63 -56 -15 -159 -87 -166 -117 -15 -57 56 -96 118 -66 38 19
133 88 143 103 4 6 31 29 62 51 47 36 54 45 50 68 -3 14 4 53 15 86 26 76 20
176 -12 210 -21 23 -127 49 -136 33z"/>
<path d="M641 707 c-26 -12 -26 -19 2 -170 20 -103 33 -123 87 -124 51 -1 59
14 35 66 -13 29 -16 56 -12 109 2 38 7 74 10 78 2 5 1 19 -4 32 -7 18 -16 22
-51 21 -24 0 -54 -5 -67 -12z"/>
</g>
</svg>
