<?xml version="1.0" standalone="no"?>
<!DOCTYPE svg PUBLIC "-//W3C//DTD SVG 20010904//EN"
 "http://www.w3.org/TR/2001/REC-SVG-20010904/DTD/svg10.dtd">
<svg version="1.0" xmlns="http://www.w3.org/2000/svg"
 width="204.000000pt" height="209.000000pt" viewBox="0 0 204.000000 209.000000"
 preserveAspectRatio="xMidYMid meet">
<metadata>
Created by potrace 1.16, written by Peter Selinger 2001-2019
</metadata>
<g transform="translate(0.000000,209.000000) scale(0.100000,-0.100000)"
fill="#000000" stroke="none">
<path d="M1245 2048 c-14 -13 -48 -59 -74 -103 -49 -80 -49 -80 -95 -83 -25
-2 -46 -7 -46 -11 0 -14 -50 -31 -88 -31 -45 0 -62 -14 -62 -51 0 -20 7 -30
23 -35 42 -14 111 6 139 40 10 12 18 15 18 9 0 -18 -112 -175 -156 -219 -11
-11 -27 -29 -35 -40 -20 -28 -140 -125 -190 -154 -54 -31 -129 -98 -129 -115
0 -7 11 -20 24 -28 37 -25 78 -7 204 88 62 47 116 85 119 85 3 0 26 21 50 46
24 26 57 54 73 63 16 9 49 35 74 59 47 45 56 50 56 29 0 -14 -7 -24 -130 -173
-130 -159 -170 -210 -170 -221 0 -5 -23 -32 -50 -59 -28 -27 -89 -100 -138
-163 -168 -219 -201 -257 -346 -406 -80 -82 -146 -155 -146 -160 0 -11 -99
-91 -124 -101 -19 -7 -22 -44 -3 -44 35 0 84 24 150 74 104 81 122 96 169 146
34 36 172 171 211 208 4 4 29 34 55 68 26 33 76 98 112 144 87 112 192 222
202 212 10 -10 -7 -89 -29 -141 -14 -30 -13 -36 3 -67 l19 -34 -65 -66 c-36
-36 -84 -77 -107 -90 -56 -34 -63 -58 -27 -95 15 -16 33 -29 39 -29 23 0 193
125 269 198 71 68 230 202 240 202 2 0 30 18 62 41 98 67 118 79 137 79 10 0
22 11 27 26 13 33 13 31 -11 37 -35 9 -151 -35 -220 -84 -80 -56 -108 -68
-134 -58 -11 4 -35 8 -52 8 -38 1 -38 -2 -16 63 18 57 22 49 -48 98 -21 15
-21 17 -6 45 9 17 31 47 49 68 29 33 40 38 86 42 43 4 57 1 74 -15 25 -23 51
-26 67 -6 27 32 -26 116 -74 116 -30 0 -33 20 -5 45 11 10 20 23 20 29 0 6 19
34 43 61 73 85 112 196 73 211 -24 9 -98 -16 -143 -49 -24 -17 -45 -28 -48
-25 -11 10 26 77 70 129 25 29 45 56 45 60 0 4 18 29 40 55 22 27 40 59 40 71
0 20 -5 23 -44 23 -32 0 -52 -6 -71 -22z m-133 -360 c-7 -7 -12 -8 -12 -2 0
14 12 26 19 19 2 -3 -1 -11 -7 -17z"/>
<path d="M748 1733 c-21 -10 -28 -22 -28 -43 0 -53 47 -88 108 -81 15 1 15 36
-1 81 -23 65 -30 69 -79 43z"/>
<path d="M1240 714 c-30 -6 -70 -17 -88 -24 -18 -7 -36 -10 -39 -6 -3 3 -18
-2 -32 -10 -28 -17 -108 -131 -98 -140 3 -4 -1 -24 -10 -46 -18 -46 -13 -126
12 -175 17 -35 62 -51 109 -39 39 10 135 94 158 139 11 23 31 56 43 72 36 50
63 188 42 216 -19 24 -38 27 -97 13z m-8 -132 c-16 -40 -75 -130 -112 -172
-33 -37 -41 -42 -50 -30 -14 21 -12 141 3 173 13 30 19 32 47 17 13 -7 30 -4
62 10 53 24 59 25 50 2z"/>
</g>
</svg>
