<?xml version="1.0" standalone="no"?>
<!DOCTYPE svg PUBLIC "-//W3C//DTD SVG 20010904//EN"
 "http://www.w3.org/TR/2001/REC-SVG-20010904/DTD/svg10.dtd">
<svg version="1.0" xmlns="http://www.w3.org/2000/svg"
 width="208.000000pt" height="207.000000pt" viewBox="0 0 208.000000 207.000000"
 preserveAspectRatio="xMidYMid meet">
<metadata>
Created by potrace 1.16, written by Peter Selinger 2001-2019
</metadata>
<g transform="translate(0.000000,207.000000) scale(0.100000,-0.100000)"
fill="#000000" stroke="none">
<path d="M706 2039 c-12 -60 -44 -117 -74 -133 -29 -15 -29 -15 -24 10 7 38
-22 30 -61 -18 -19 -24 -39 -52 -45 -64 -6 -11 -40 -35 -76 -53 -90 -44 -126
-76 -126 -111 0 -41 10 -60 30 -60 11 0 22 -4 25 -10 10 -17 22 -12 70 30 25
22 50 40 54 40 4 0 27 -9 50 -21 24 -11 50 -18 58 -15 12 5 14 1 9 -16 -3 -13
-9 -42 -12 -65 -5 -30 -17 -51 -45 -79 -21 -21 -41 -36 -43 -33 -2 2 -1 33 3
68 6 51 5 64 -7 69 -43 16 -102 -61 -102 -132 0 -77 -37 -151 -117 -233 -41
-41 -73 -82 -71 -91 2 -8 15 -24 29 -34 25 -19 28 -19 62 -3 19 9 54 37 78 63
l42 47 12 -28 c15 -36 31 -47 72 -47 26 0 37 7 58 37 28 43 32 63 10 63 -8 0
-15 6 -15 14 0 14 44 66 57 66 13 0 50 -63 68 -116 12 -35 17 -82 17 -167 -1
-115 0 -118 23 -129 13 -6 31 -8 40 -4 21 7 45 66 45 108 0 48 12 63 39 49 15
-9 32 -9 59 -1 80 22 80 12 4 -77 -138 -160 -413 -407 -509 -457 -17 -8 -33
-22 -37 -31 -3 -8 -17 -20 -31 -27 -29 -13 -33 -43 -9 -76 32 -46 41 -41 335
181 57 44 129 92 159 108 30 16 87 49 125 74 70 45 167 95 185 95 5 0 29 13
52 28 168 112 239 152 266 152 12 0 25 6 29 14 9 16 138 86 159 86 30 0 47 96
19 107 -21 7 -100 -16 -128 -37 -21 -17 -74 -47 -207 -118 -36 -19 -72 -40
-80 -47 -8 -7 -46 -29 -85 -51 -38 -21 -72 -41 -75 -46 -3 -4 -26 -14 -50 -23
-25 -9 -55 -23 -68 -31 -36 -24 -39 -8 -4 28 16 18 54 60 83 93 29 33 64 71
77 85 13 14 29 39 37 57 7 17 35 48 62 69 47 37 183 195 183 213 0 5 11 34 25
64 33 76 55 175 55 251 0 79 -26 123 -85 145 -22 8 -42 16 -44 18 -2 1 4 22
13 46 19 51 13 75 -21 83 -30 8 -52 -11 -83 -71 -12 -24 -35 -56 -49 -72 -15
-15 -41 -48 -58 -73 -17 -25 -52 -67 -77 -94 -25 -27 -46 -52 -46 -54 0 -3 -6
-13 -14 -21 -20 -23 -4 -56 32 -69 29 -10 33 -8 80 46 166 189 228 228 267
168 39 -59 1 -231 -75 -341 -16 -24 -30 -48 -30 -54 0 -17 -14 -13 -27 8 -9
14 -23 19 -59 18 -49 -1 -74 18 -74 55 0 26 -26 22 -66 -9 -40 -33 -43 -60
-10 -100 21 -25 30 -28 97 -31 40 -2 76 -5 78 -8 3 -3 -18 -28 -47 -56 -41
-39 -58 -49 -75 -44 -14 3 -44 -6 -81 -24 -37 -19 -67 -28 -81 -24 -16 4 -27
-1 -37 -15 -19 -26 -86 -72 -92 -63 -5 9 15 198 39 364 16 111 53 219 99 288
20 30 24 46 19 75 -6 36 -7 37 -42 31 -24 -5 -45 -17 -61 -38 -49 -61 -143
-158 -148 -153 -6 6 18 92 35 125 7 14 13 33 13 43 0 26 27 75 70 127 49 61
52 65 44 95 -6 24 -9 25 -84 25 l-77 0 -7 -31z m34 -590 c-5 -57 -13 -117 -18
-134 l-9 -30 -27 43 c-17 27 -41 49 -62 58 l-35 15 38 40 c82 87 116 120 120
116 2 -2 -1 -51 -7 -108z"/>
<path d="M1170 694 c-138 -45 -165 -67 -141 -112 8 -15 5 -24 -14 -42 -35 -33
-85 -178 -85 -247 0 -64 17 -130 40 -154 16 -18 70 -34 70 -22 0 5 25 35 55
67 30 33 61 73 70 90 9 17 33 58 55 91 22 33 53 89 70 125 17 36 38 71 47 77
24 18 30 114 9 132 -28 24 -96 22 -176 -5z m100 -81 c-2 -23 -81 -152 -144
-233 -71 -93 -86 -101 -86 -45 0 19 6 54 14 77 7 24 19 64 26 90 11 41 17 49
49 59 20 6 43 17 51 24 26 21 90 41 90 28z"/>
</g>
</svg>
