<?xml version="1.0" standalone="no"?>
<!DOCTYPE svg PUBLIC "-//W3C//DTD SVG 20010904//EN"
 "http://www.w3.org/TR/2001/REC-SVG-20010904/DTD/svg10.dtd">
<svg version="1.0" xmlns="http://www.w3.org/2000/svg"
 width="208.000000pt" height="207.000000pt" viewBox="0 0 208.000000 207.000000"
 preserveAspectRatio="xMidYMid meet">
<metadata>
Created by potrace 1.16, written by Peter Selinger 2001-2019
</metadata>
<g transform="translate(0.000000,207.000000) scale(0.100000,-0.100000)"
fill="#000000" stroke="none">
<path d="M1471 1970 c-19 -11 -44 -31 -55 -45 -12 -13 -66 -54 -121 -89 -143
-93 -141 -91 -165 -141 -16 -32 -20 -55 -16 -78 3 -18 8 -41 10 -52 2 -11 4
-21 5 -23 4 -10 61 32 66 49 15 46 186 202 203 185 6 -7 -15 -130 -28 -161 -5
-11 -16 -85 -25 -165 -27 -240 -29 -246 -102 -325 -46 -50 -63 -75 -63 -96 0
-31 23 -49 62 -49 29 0 88 35 88 52 0 8 34 49 75 92 41 43 75 82 75 87 0 4
-16 13 -36 19 -24 8 -34 17 -30 26 5 12 14 83 31 229 13 109 77 359 95 370 6
4 10 35 10 71 0 60 -1 64 -22 63 -13 0 -39 -9 -57 -19z"/>
<path d="M756 1835 c-34 -32 -33 -52 9 -135 20 -40 35 -84 35 -105 0 -43 25
-47 60 -10 28 30 38 114 19 160 -6 17 -14 39 -16 50 -12 64 -61 83 -107 40z"/>
<path d="M775 1367 c-122 -70 -176 -129 -157 -171 6 -15 23 -27 42 -31 25 -6
36 -1 66 25 20 17 38 29 40 27 13 -13 -20 -268 -50 -388 -20 -75 -38 -152 -40
-170 -3 -19 -8 -46 -12 -60 -4 -20 0 -32 17 -48 13 -11 31 -21 40 -21 19 0 85
75 115 130 10 19 24 42 30 50 12 14 18 41 15 68 -1 17 -31 15 -53 -5 -17 -15
-18 -15 -18 1 0 9 9 58 21 108 11 51 24 155 30 230 8 117 7 146 -6 193 -9 31
-25 59 -35 65 -22 12 -20 12 -45 -3z"/>
<path d="M1110 1223 c-24 -10 -83 -55 -117 -92 -31 -33 -33 -39 -33 -111 0
-41 4 -91 10 -110 14 -47 14 -218 1 -268 -24 -93 -30 -119 -36 -173 -6 -50 -4
-58 20 -87 16 -19 35 -31 48 -30 12 1 58 -8 102 -19 171 -44 178 -45 355 -37
152 6 172 9 181 25 10 19 21 612 12 636 -14 35 -53 1 -71 -62 -32 -115 -42
-210 -33 -335 9 -134 4 -160 -32 -160 -12 -1 -61 -3 -109 -6 -48 -3 -102 -1
-120 4 -18 5 -60 15 -93 22 -33 7 -64 17 -70 22 -5 4 -16 8 -25 8 -9 0 -25 9
-35 20 -17 19 -18 26 -5 98 22 135 27 195 19 277 -15 152 -11 216 14 256 12
20 37 49 55 64 35 29 41 50 16 59 -18 7 -33 7 -54 -1z"/>
</g>
</svg>
