<?xml version="1.0" standalone="no"?>
<!DOCTYPE svg PUBLIC "-//W3C//DTD SVG 20010904//EN"
 "http://www.w3.org/TR/2001/REC-SVG-20010904/DTD/svg10.dtd">
<svg version="1.0" xmlns="http://www.w3.org/2000/svg"
 width="208.000000pt" height="212.000000pt" viewBox="0 0 208.000000 212.000000"
 preserveAspectRatio="xMidYMid meet">
<metadata>
Created by potrace 1.16, written by Peter Selinger 2001-2019
</metadata>
<g transform="translate(0.000000,212.000000) scale(0.100000,-0.100000)"
fill="#000000" stroke="none">
<path d="M1430 1793 c-14 -9 -38 -29 -55 -43 -16 -15 -38 -30 -48 -33 -26 -10
-137 -105 -175 -151 -40 -47 -40 -83 -1 -105 25 -14 29 -13 59 12 17 15 38 27
45 27 7 0 27 24 44 53 27 47 86 96 99 82 3 -3 0 -34 -8 -68 -7 -34 -17 -105
-21 -157 -10 -129 -33 -250 -63 -337 -39 -111 -56 -231 -56 -390 0 -144 7
-171 36 -141 15 14 46 152 65 283 5 38 15 87 21 108 9 31 13 35 21 22 5 -9 6
-32 3 -50 -8 -40 8 -55 26 -25 7 11 18 20 24 20 6 0 17 12 23 28 14 33 84 107
140 147 58 41 51 60 -20 60 -50 0 -62 -5 -113 -44 -32 -23 -60 -41 -62 -38 -3
3 2 38 11 78 28 130 44 223 45 259 0 61 32 234 47 259 11 17 13 38 8 79 -4 30
-9 61 -12 69 -7 18 -52 16 -83 -4z"/>
<path d="M764 1577 c-27 -23 -27 -25 -15 -68 14 -52 8 -200 -11 -272 -13 -47
-15 -49 -69 -67 -106 -36 -254 -153 -241 -190 19 -54 77 -67 111 -24 30 38
101 86 118 80 10 -4 13 -15 9 -33 -3 -16 -8 -59 -12 -98 -7 -77 -26 -176 -42
-215 -14 -36 -54 -240 -54 -273 1 -34 26 -56 64 -57 21 0 34 9 50 35 13 19 28
35 34 35 14 0 94 85 94 100 0 5 6 10 13 10 6 0 33 26 58 58 26 31 58 69 72 84
13 14 34 40 46 57 13 17 26 29 31 26 12 -8 1 -161 -21 -292 -26 -153 -26 -156
17 -176 l36 -18 36 33 c46 41 124 63 402 112 122 22 184 47 188 75 4 24 3 24
-70 18 -40 -3 -91 -8 -113 -11 -22 -3 -79 -8 -126 -11 -47 -2 -125 -8 -174
-11 l-88 -7 8 59 c8 68 9 357 0 384 -3 10 -17 20 -31 23 -21 4 -28 -1 -38 -22
-18 -41 -325 -361 -346 -361 -11 0 -4 49 15 105 23 69 39 205 41 357 2 156 3
159 62 243 56 80 74 195 44 280 -14 41 -22 51 -43 53 -17 2 -37 -6 -55 -21z"/>
</g>
</svg>
