<?xml version="1.0" standalone="no"?>
<!DOCTYPE svg PUBLIC "-//W3C//DTD SVG 20010904//EN"
 "http://www.w3.org/TR/2001/REC-SVG-20010904/DTD/svg10.dtd">
<svg version="1.0" xmlns="http://www.w3.org/2000/svg"
 width="209.000000pt" height="214.000000pt" viewBox="0 0 209.000000 214.000000"
 preserveAspectRatio="xMidYMid meet">
<metadata>
Created by potrace 1.16, written by Peter Selinger 2001-2019
</metadata>
<g transform="translate(0.000000,214.000000) scale(0.100000,-0.100000)"
fill="#000000" stroke="none">
<path d="M1405 2087 c-8 -13 -23 -48 -34 -79 -23 -66 -48 -108 -66 -108 -7 0
-20 -11 -29 -25 -9 -13 -49 -43 -89 -66 -39 -22 -86 -49 -103 -60 -19 -11 -65
-23 -115 -29 -46 -6 -96 -15 -111 -21 -61 -24 -31 -89 42 -89 53 0 165 37 193
65 12 12 38 28 57 35 19 8 38 19 42 24 24 35 74 95 81 96 15 0 6 -41 -27 -117
-39 -92 -122 -251 -142 -274 -8 -8 -14 -22 -14 -30 0 -17 -44 -60 -117 -112
-41 -30 -54 -46 -59 -74 -5 -29 -3 -39 11 -50 31 -22 61 -15 94 22 17 19 34
35 39 35 5 0 16 7 23 16 8 9 28 26 45 38 17 11 63 46 101 77 62 51 169 119
186 119 28 0 -20 -85 -129 -230 -100 -133 -117 -146 -186 -153 -69 -7 -197
-65 -228 -104 -23 -30 -21 -64 7 -95 18 -21 111 -25 144 -8 23 13 23 16 0 -45
-43 -112 -105 -247 -163 -355 -21 -39 -48 -100 -48 -107 0 -5 -11 -25 -25 -46
-29 -42 -36 -104 -14 -118 42 -27 80 0 105 74 9 26 20 49 25 53 5 3 9 19 9 35
0 17 6 32 15 35 8 4 15 14 15 24 0 9 9 25 20 35 11 10 20 23 20 28 0 5 14 32
30 59 17 26 30 53 30 59 0 6 21 53 46 106 26 53 52 117 60 142 30 108 44 131
122 208 43 43 94 101 113 128 19 28 46 66 60 85 46 61 99 190 99 240 0 37 -50
62 -100 51 -49 -11 -107 -37 -137 -61 -36 -28 -66 -27 -58 3 4 12 14 33 24 46
49 71 83 137 148 291 63 148 77 192 69 224 -9 35 -58 37 -81 3z m-319 -1056
c-10 -11 -37 -29 -61 -40 -24 -11 -46 -25 -50 -31 -10 -16 -25 -12 -25 8 1 28
85 82 129 82 23 0 23 -1 7 -19z"/>
<path d="M453 1573 c-20 -42 -16 -56 32 -103 l45 -44 26 25 c23 21 25 29 19
69 -9 58 -29 80 -74 80 -29 0 -38 -5 -48 -27z"/>
<path d="M500 1280 c-72 -13 -112 -35 -158 -85 -43 -47 -50 -71 -32 -106 16
-28 64 -25 84 6 18 28 111 85 139 85 28 0 30 -23 12 -122 -19 -105 -23 -120
-59 -238 -31 -100 -82 -346 -92 -442 -8 -84 -1 -111 32 -127 24 -11 31 -9 63
17 34 28 99 108 100 125 1 4 19 32 41 62 22 30 40 57 40 61 0 4 22 41 49 83
26 42 52 87 56 101 4 14 15 43 25 65 31 66 35 94 15 101 -11 5 -21 1 -26 -9
-5 -9 -15 -22 -22 -29 -18 -20 -57 -76 -57 -83 0 -3 -21 -32 -47 -64 -27 -33
-58 -76 -71 -98 -13 -21 -33 -50 -46 -66 l-22 -28 2 28 c4 63 37 215 69 318
60 192 79 395 42 432 -18 18 -78 24 -137 13z"/>
<path d="M1238 882 c-10 -4 -27 -25 -38 -47 -24 -47 -25 -51 -5 -35 9 7 18 10
21 7 6 -6 -20 -217 -36 -300 -6 -27 -10 -92 -10 -145 0 -148 32 -188 144 -180
49 3 84 15 181 62 88 43 133 60 170 62 28 1 53 3 56 3 18 3 32 98 31 217 0
106 -5 142 -22 195 -24 70 -53 109 -83 109 -18 0 -19 -5 -13 -50 4 -27 9 -116
12 -198 l5 -149 -33 -13 c-29 -10 -121 -50 -223 -96 -17 -8 -45 -18 -63 -23
-30 -9 -34 -8 -42 15 -14 36 -12 123 6 244 37 262 36 302 -11 320 -15 6 -27
10 -28 9 -1 0 -10 -3 -19 -7z"/>
</g>
</svg>
