<?xml version="1.0" standalone="no"?>
<!DOCTYPE svg PUBLIC "-//W3C//DTD SVG 20010904//EN"
 "http://www.w3.org/TR/2001/REC-SVG-20010904/DTD/svg10.dtd">
<svg version="1.0" xmlns="http://www.w3.org/2000/svg"
 width="207.000000pt" height="206.000000pt" viewBox="0 0 207.000000 206.000000"
 preserveAspectRatio="xMidYMid meet">
<metadata>
Created by potrace 1.16, written by Peter Selinger 2001-2019
</metadata>
<g transform="translate(0.000000,206.000000) scale(0.100000,-0.100000)"
fill="#000000" stroke="none">
<path d="M655 2010 c-7 -11 -27 -96 -46 -200 -11 -58 -47 -174 -70 -225 -7
-16 -31 -54 -52 -83 -21 -29 -41 -70 -44 -90 -8 -52 -23 -79 -34 -61 -4 7 -9
11 -11 9 -74 -100 -76 -160 -6 -143 61 16 139 106 213 248 52 101 68 121 99
131 11 4 33 16 48 27 52 39 49 6 -14 -133 -51 -114 -89 -182 -129 -233 -21
-27 -39 -53 -39 -59 0 -5 -7 -16 -15 -25 -12 -12 -19 -12 -30 -3 -22 18 -82 4
-100 -24 -10 -15 -14 -36 -10 -62 23 -175 22 -281 -1 -325 -18 -36 -18 -68 1
-75 24 -10 80 22 94 53 15 31 40 218 41 299 0 42 5 55 28 76 15 14 38 28 52
31 14 4 45 25 70 47 25 23 70 54 100 70 75 39 181 108 263 170 38 29 71 50 74
46 8 -7 -32 -231 -67 -376 -10 -41 -21 -97 -25 -125 -3 -27 -10 -59 -15 -70
-15 -33 -40 -115 -40 -129 0 -8 -7 -19 -15 -26 -19 -16 -19 -44 1 -60 20 -18
30 -7 94 105 41 71 58 114 80 205 43 178 68 295 89 415 10 61 24 122 30 137 6
17 8 50 3 85 -9 78 -30 81 -97 16 -28 -26 -72 -65 -100 -85 -27 -20 -56 -42
-64 -49 -37 -32 -103 -79 -133 -95 -18 -9 -41 -23 -50 -32 -24 -21 -23 -1 3
50 11 22 29 66 39 97 10 31 25 73 34 93 23 53 22 174 -1 187 -22 12 -47 2
-119 -49 -57 -40 -59 -41 -62 -19 -2 13 4 48 13 79 13 42 14 70 8 120 l-8 65
-37 3 c-20 2 -39 -2 -43 -8z"/>
<path d="M884 1203 c-12 -2 -39 -19 -60 -37 -35 -30 -38 -38 -50 -117 -18
-117 -39 -215 -62 -285 -34 -104 -163 -369 -209 -430 -13 -17 -23 -36 -23 -42
0 -6 -18 -26 -41 -45 -80 -69 -18 -108 67 -42 70 52 105 98 164 212 53 101 70
117 70 65 1 -15 9 -37 19 -49 16 -19 159 -93 181 -93 5 0 50 -14 99 -30 88
-30 108 -30 139 -5 1 1 -2 13 -9 26 -16 35 -117 104 -171 117 -25 6 -79 32
-119 57 -41 25 -85 45 -101 45 -34 0 -34 1 -7 70 11 30 34 100 50 155 16 55
34 114 39 130 5 17 11 46 14 65 7 56 17 91 48 158 15 35 28 68 28 73 0 9 -26
10 -66 2z"/>
</g>
</svg>
