<?xml version="1.0" standalone="no"?>
<!DOCTYPE svg PUBLIC "-//W3C//DTD SVG 20010904//EN"
 "http://www.w3.org/TR/2001/REC-SVG-20010904/DTD/svg10.dtd">
<svg version="1.0" xmlns="http://www.w3.org/2000/svg"
 width="207.000000pt" height="206.000000pt" viewBox="0 0 207.000000 206.000000"
 preserveAspectRatio="xMidYMid meet">
<metadata>
Created by potrace 1.16, written by Peter Selinger 2001-2019
</metadata>
<g transform="translate(0.000000,206.000000) scale(0.100000,-0.100000)"
fill="#000000" stroke="none">
<path d="M1693 1891 c-23 -19 -28 -51 -48 -321 -3 -41 -9 -77 -13 -81 -7 -7
-128 -107 -187 -155 -57 -46 -141 -107 -234 -167 -35 -23 -69 -51 -75 -62 -6
-10 -17 -26 -24 -33 -20 -22 -10 -54 20 -71 25 -15 29 -14 65 15 21 17 102 79
181 138 78 58 142 111 142 116 0 6 11 15 24 20 14 5 32 21 42 35 9 14 20 25
24 25 15 0 21 -108 10 -194 -6 -48 -12 -128 -14 -179 -8 -181 -41 -420 -62
-446 -5 -5 -164 90 -164 98 0 3 -14 22 -30 40 l-31 33 22 47 c13 25 26 48 29
51 21 15 30 51 19 71 -9 18 -17 21 -51 16 -68 -9 -80 -26 -167 -243 -37 -94
-83 -192 -132 -289 -42 -82 -47 -93 -39 -105 6 -9 12 -8 27 6 11 11 28 24 38
30 10 6 23 19 29 30 6 10 23 35 38 55 15 20 32 47 38 60 5 13 26 44 45 69 19
25 39 56 45 70 29 73 41 73 84 5 24 -37 52 -65 83 -83 44 -25 78 -55 111 -96
7 -9 27 -16 46 -16 32 0 35 3 50 48 16 46 48 200 60 293 4 25 11 119 16 210
29 502 35 539 93 615 55 74 70 102 63 120 -7 18 -35 18 -42 1 -3 -8 -19 -24
-36 -37 l-31 -23 7 109 c11 162 11 166 -10 181 -24 17 -34 16 -61 -6z"/>
<path d="M922 1653 c-99 -94 -180 -155 -225 -170 -23 -8 -49 -20 -57 -28 -8
-7 -46 -24 -85 -37 -38 -14 -78 -28 -87 -32 -12 -6 -17 -2 -20 16 -5 33 -51
47 -86 26 -24 -15 -27 -22 -26 -70 1 -29 7 -96 14 -148 7 -52 12 -148 11 -212
-1 -67 3 -119 9 -123 14 -9 50 13 50 30 0 8 10 33 21 55 19 37 21 53 17 180
l-3 140 32 0 c18 0 41 4 51 9 9 5 37 17 62 27 25 10 58 28 73 41 16 13 34 23
40 23 7 0 29 11 49 25 20 14 42 25 49 25 6 0 28 14 48 30 60 50 62 52 67 47
10 -10 5 -116 -9 -207 -42 -262 -50 -319 -51 -362 0 -54 7 -66 28 -48 40 33
67 105 97 263 5 26 13 68 19 95 12 61 29 207 28 252 0 19 1 65 2 102 2 73 -11
108 -39 108 -9 0 -45 -26 -79 -57z"/>
<path d="M690 1311 c-43 -12 -51 -44 -39 -172 16 -174 5 -302 -38 -437 -20
-62 -40 -115 -44 -118 -5 -3 -9 -11 -9 -19 0 -15 -86 -145 -104 -158 -6 -4
-23 -10 -38 -14 -33 -7 -36 -28 -7 -44 28 -15 75 -4 120 26 58 41 133 143 158
215 59 171 63 194 67 419 2 118 9 232 15 254 14 54 -9 68 -81 48z"/>
<path d="M757 723 c-4 -3 -7 -16 -7 -28 0 -12 -7 -30 -15 -41 -31 -41 -10
-108 61 -187 49 -55 52 -57 114 -64 54 -5 65 -4 76 12 17 24 18 64 2 69 -7 2
-32 9 -55 15 -33 9 -46 20 -68 57 -15 26 -30 65 -32 88 -8 57 -52 103 -76 79z"/>
</g>
</svg>
