<?xml version="1.0" standalone="no"?>
<!DOCTYPE svg PUBLIC "-//W3C//DTD SVG 20010904//EN"
 "http://www.w3.org/TR/2001/REC-SVG-20010904/DTD/svg10.dtd">
<svg version="1.0" xmlns="http://www.w3.org/2000/svg"
 width="208.000000pt" height="205.000000pt" viewBox="0 0 208.000000 205.000000"
 preserveAspectRatio="xMidYMid meet">
<metadata>
Created by potrace 1.16, written by Peter Selinger 2001-2019
</metadata>
<g transform="translate(0.000000,205.000000) scale(0.100000,-0.100000)"
fill="#000000" stroke="none">
<path d="M1581 1776 l-22 -23 21 -37 c17 -27 23 -59 27 -134 5 -93 5 -99 -20
-127 -14 -17 -37 -37 -51 -44 -14 -8 -28 -23 -32 -34 -3 -10 -20 -25 -38 -32
-18 -8 -38 -21 -46 -29 -7 -9 -17 -16 -23 -16 -5 0 -32 -14 -59 -30 -27 -17
-70 -38 -96 -46 -77 -27 -203 -118 -217 -158 -8 -23 -6 -30 10 -42 10 -8 27
-14 37 -14 15 0 177 98 214 128 6 5 21 13 35 17 51 16 182 95 196 118 10 17
53 41 60 33 3 -3 0 -36 -6 -73 -7 -37 -16 -100 -21 -139 -5 -39 -19 -127 -30
-195 -11 -68 -20 -157 -20 -197 0 -54 -4 -74 -15 -78 -20 -8 -73 35 -134 111
-59 73 -87 85 -77 33 14 -72 56 -141 131 -214 45 -44 75 -82 75 -94 0 -24 36
-41 65 -30 30 11 48 98 69 333 9 92 20 194 25 225 22 123 51 319 51 343 0 14
4 29 9 35 5 5 16 36 26 68 9 34 31 78 51 101 38 47 45 85 16 85 -10 0 -29 -11
-42 -25 -28 -30 -40 -19 -40 35 0 19 -9 59 -20 89 -29 81 -68 101 -109 57z
m14 -896 c3 -5 1 -10 -4 -10 -6 0 -11 5 -11 10 0 6 2 10 4 10 3 0 8 -4 11 -10z"/>
<path d="M951 1696 c-44 -33 -226 -129 -268 -141 -17 -5 -23 -2 -23 10 0 9 -7
29 -15 45 -12 22 -23 30 -43 30 -45 0 -63 -22 -94 -111 -42 -125 -48 -146 -64
-244 -8 -49 -18 -103 -24 -120 -29 -92 -37 -378 -10 -410 33 -40 70 7 70 91 1
52 23 198 54 359 14 72 26 131 26 133 0 1 13 2 29 2 20 0 32 6 36 19 10 33 45
70 83 88 20 10 39 18 42 19 6 0 66 30 103 50 16 9 33 12 37 8 5 -5 0 -47 -11
-94 -10 -47 -23 -109 -29 -139 -5 -30 -21 -95 -35 -145 -45 -161 -57 -200 -66
-231 -5 -17 -12 -52 -15 -78 -6 -42 -5 -47 13 -47 18 0 31 21 81 140 8 19 30
60 48 90 18 30 41 91 52 135 31 124 50 216 57 265 3 24 10 49 14 55 5 5 16 37
26 70 49 174 24 224 -74 151z"/>
<path d="M763 1386 c-43 -15 -58 -31 -59 -64 -2 -84 -27 -207 -72 -347 -18
-60 -109 -227 -128 -238 -8 -4 -14 -17 -14 -28 0 -25 -95 -156 -119 -164 -10
-3 -26 -14 -36 -25 -17 -19 -17 -20 11 -30 41 -16 61 -8 141 60 l72 60 24 -24
c13 -13 43 -34 66 -46 24 -12 73 -42 109 -67 81 -56 135 -64 140 -22 4 33 -30
75 -76 95 -20 8 -58 36 -85 62 -28 26 -63 59 -79 74 -35 33 -35 54 -3 98 14
19 25 39 25 45 0 6 11 33 24 61 32 64 83 226 92 289 3 28 13 75 20 105 26 100
11 129 -53 106z"/>
<path d="M1252 1020 c-23 -16 -51 -49 -63 -72 -12 -24 -27 -50 -35 -58 -7 -9
-27 -49 -44 -90 -17 -41 -35 -84 -40 -95 -5 -11 -16 -43 -24 -70 -9 -28 -27
-67 -40 -86 -68 -100 -83 -146 -43 -133 27 8 77 42 77 53 0 3 18 21 41 38 34
26 48 49 83 135 23 57 56 128 72 158 17 30 36 64 42 75 45 83 58 128 46 159
-9 23 -26 20 -72 -14z"/>
</g>
</svg>
