<?xml version="1.0" standalone="no"?>
<!DOCTYPE svg PUBLIC "-//W3C//DTD SVG 20010904//EN"
 "http://www.w3.org/TR/2001/REC-SVG-20010904/DTD/svg10.dtd">
<svg version="1.0" xmlns="http://www.w3.org/2000/svg"
 width="209.000000pt" height="205.000000pt" viewBox="0 0 209.000000 205.000000"
 preserveAspectRatio="xMidYMid meet">
<metadata>
Created by potrace 1.16, written by Peter Selinger 2001-2019
</metadata>
<g transform="translate(0.000000,205.000000) scale(0.100000,-0.100000)"
fill="#000000" stroke="none">
<path d="M1233 2043 c5 -8 -8 -159 -18 -201 -6 -22 -45 -45 -96 -56 -74 -16
-103 -85 -53 -125 33 -26 54 -26 87 -1 30 24 36 18 30 -31 -4 -28 -11 -38 -33
-46 -44 -16 -50 -57 -15 -93 27 -28 27 -29 16 -95 -7 -37 -10 -70 -6 -73 7 -8
-25 -42 -40 -42 -7 0 -18 -7 -25 -14 -6 -8 -35 -22 -63 -32 -29 -9 -77 -31
-107 -49 -30 -18 -93 -53 -140 -78 -106 -57 -170 -110 -170 -141 0 -27 33 -61
52 -53 7 2 73 43 147 91 74 47 137 86 141 86 3 0 42 20 86 45 43 25 83 45 89
45 6 0 15 -15 20 -32 14 -48 45 -44 68 7 37 82 41 86 112 116 66 28 91 40 140
66 29 16 92 43 100 43 7 0 68 26 97 41 25 13 28 12 28 -11 0 -23 3 -24 68 -9
27 5 59 19 71 30 27 26 27 65 0 80 -34 18 -166 7 -219 -17 -25 -12 -67 -27
-95 -34 -50 -13 -195 -80 -221 -101 -8 -6 -20 -9 -28 -6 -15 6 -9 51 13 109
11 30 66 58 115 58 73 0 133 41 121 81 -7 21 -11 21 -89 16 -44 -4 -90 -8
-101 -9 -18 -3 -20 2 -18 49 4 84 22 113 111 179 86 63 99 79 81 100 -16 20
-46 17 -79 -6 -15 -11 -38 -21 -51 -22 -23 -3 -24 -1 -24 67 l0 70 -53 3 c-30
2 -52 -1 -49 -5z"/>
<path d="M1655 1348 c-11 -6 -53 -40 -94 -75 -41 -35 -79 -63 -83 -63 -11 0
-80 -51 -90 -66 -4 -6 -34 -22 -65 -34 -32 -13 -70 -32 -85 -42 -14 -10 -30
-18 -35 -18 -6 0 -18 -8 -27 -19 -9 -10 -46 -33 -82 -51 -58 -30 -67 -32 -89
-20 -34 18 -76 3 -93 -32 -6 -14 -14 -51 -16 -81 -3 -30 -9 -72 -15 -93 -5
-22 -15 -66 -21 -99 -7 -33 -16 -73 -21 -88 -4 -15 -6 -34 -3 -42 21 -54 99
47 143 185 19 58 41 111 50 117 13 11 122 68 156 82 5 2 2 -7 -6 -20 -9 -13
-19 -46 -22 -74 -33 -277 -65 -412 -128 -541 -22 -45 -38 -65 -64 -77 -41 -20
-44 -31 -10 -53 35 -23 56 -12 124 62 79 86 113 175 151 389 16 88 32 174 35
190 8 32 59 129 83 157 21 24 5 41 -31 34 -41 -8 -27 4 48 44 33 17 77 45 97
61 20 16 40 29 43 29 4 0 23 12 42 27 l36 28 -7 -70 c-10 -98 -87 -361 -126
-427 -13 -24 -13 -68 1 -68 12 0 63 52 106 108 14 18 29 49 33 70 4 20 21 80
38 132 16 53 33 124 37 159 4 34 16 83 27 107 14 33 18 60 16 103 -6 80 -14
91 -53 69z m-375 -382 c0 -3 -4 -8 -10 -11 -5 -3 -10 -1 -10 4 0 6 5 11 10 11
6 0 10 -2 10 -4z"/>
<path d="M1238 483 c-3 -4 -6 -33 -6 -65 -1 -48 3 -61 29 -95 17 -21 45 -44
62 -51 18 -8 47 -25 64 -38 19 -15 58 -29 93 -36 33 -5 60 -15 60 -20 0 -6 6
-6 14 1 11 9 20 9 35 2 48 -26 130 3 116 40 -7 17 -31 28 -177 74 -73 24 -94
36 -140 80 -29 29 -62 64 -73 78 -20 27 -69 46 -77 30z"/>
</g>
</svg>
