<?xml version="1.0" standalone="no"?>
<!DOCTYPE svg PUBLIC "-//W3C//DTD SVG 20010904//EN"
 "http://www.w3.org/TR/2001/REC-SVG-20010904/DTD/svg10.dtd">
<svg version="1.0" xmlns="http://www.w3.org/2000/svg"
 width="208.000000pt" height="205.000000pt" viewBox="0 0 208.000000 205.000000"
 preserveAspectRatio="xMidYMid meet">
<metadata>
Created by potrace 1.16, written by Peter Selinger 2001-2019
</metadata>
<g transform="translate(0.000000,205.000000) scale(0.100000,-0.100000)"
fill="#000000" stroke="none">
<path d="M1075 2001 c-27 -28 -62 -70 -79 -94 -17 -24 -77 -101 -134 -172 -57
-70 -111 -144 -122 -164 -10 -20 -37 -57 -60 -83 -46 -53 -61 -104 -40 -144 7
-13 17 -24 22 -24 28 0 96 -42 107 -66 25 -55 12 -205 -25 -292 -8 -21 -24
-63 -35 -95 -37 -111 -102 -236 -122 -239 -21 -3 -42 -50 -49 -105 -2 -23 3
-31 34 -48 l37 -20 25 24 c26 24 96 161 141 276 15 39 31 79 36 90 29 68 72
227 70 265 0 8 2 30 5 48 4 27 9 33 24 29 24 -6 48 20 57 64 7 39 41 96 62
104 11 4 12 -11 5 -82 -7 -90 -11 -127 -13 -163 0 -11 -16 -37 -35 -57 -18
-21 -36 -47 -40 -58 -3 -11 -17 -32 -31 -47 -29 -31 -31 -45 -10 -75 23 -33
62 -35 85 -4 27 36 73 81 78 76 10 -9 -21 -332 -34 -364 -8 -18 -14 -43 -14
-55 0 -12 -31 -85 -69 -162 -59 -119 -75 -143 -105 -159 -20 -11 -38 -25 -40
-32 -7 -18 22 -43 51 -43 30 0 83 30 83 47 0 7 14 22 30 35 61 44 163 305 181
458 22 197 30 254 38 269 5 9 11 35 15 59 6 38 4 42 -15 42 -12 0 -38 -12 -57
-26 l-34 -27 7 24 c4 13 22 44 40 69 39 53 188 200 203 200 6 0 18 3 28 7 15
6 17 1 11 -43 -5 -46 -21 -89 -68 -190 -10 -22 -19 -46 -19 -52 0 -7 -21 -53
-46 -103 -54 -104 -50 -131 10 -83 20 16 36 32 36 37 0 4 11 12 24 16 50 20
151 280 163 422 6 75 5 77 -21 94 -19 13 -40 16 -74 13 -65 -6 -107 -29 -182
-98 -36 -33 -68 -60 -72 -60 -21 0 -5 80 39 208 22 62 35 82 95 139 46 46 72
80 80 106 22 74 -23 64 -116 -25 -27 -25 -63 -39 -54 -20 2 4 10 19 17 34 21
42 9 58 -46 58 -28 0 -58 -7 -71 -15 -20 -15 -21 -21 -15 -104 l6 -88 -54 -41
c-30 -23 -55 -37 -57 -32 -2 5 8 41 22 80 14 39 26 88 27 108 1 20 4 47 7 60
10 34 112 152 131 152 20 0 41 19 41 38 0 19 47 119 59 127 27 16 6 25 -58 25
l-68 0 -48 -49z m-251 -560 c-4 -25 -12 -41 -20 -41 -18 0 -18 12 3 55 21 43
26 40 17 -14z"/>
<path d="M1210 462 c0 -6 4 -13 9 -16 5 -4 12 -25 16 -49 15 -88 138 -169 295
-193 25 -4 53 -11 63 -16 11 -5 30 -7 43 -4 23 6 25 10 22 64 -3 53 -5 57 -28
60 -71 7 -171 26 -176 33 -3 5 -24 13 -46 20 -28 7 -55 25 -83 55 -29 32 -50
46 -78 51 -23 3 -37 2 -37 -5z"/>
</g>
</svg>
