<?xml version="1.0" standalone="no"?>
<!DOCTYPE svg PUBLIC "-//W3C//DTD SVG 20010904//EN"
 "http://www.w3.org/TR/2001/REC-SVG-20010904/DTD/svg10.dtd">
<svg version="1.0" xmlns="http://www.w3.org/2000/svg"
 width="206.000000pt" height="209.000000pt" viewBox="0 0 206.000000 209.000000"
 preserveAspectRatio="xMidYMid meet">
<metadata>
Created by potrace 1.16, written by Peter Selinger 2001-2019
</metadata>
<g transform="translate(0.000000,209.000000) scale(0.100000,-0.100000)"
fill="#000000" stroke="none">
<path d="M1681 1859 c-19 -11 -42 -31 -52 -43 -10 -12 -37 -35 -61 -51 -24
-16 -79 -63 -122 -103 -43 -40 -95 -85 -115 -100 -56 -42 -179 -173 -206 -219
-29 -49 -31 -74 -7 -95 44 -40 57 -34 112 49 45 68 95 130 173 211 12 13 39
35 60 48 20 13 37 28 37 33 0 15 60 71 76 71 8 0 14 3 14 8 0 4 13 16 27 26
26 19 26 19 18 0 -4 -10 -21 -55 -37 -99 l-28 -80 2 -552 c2 -303 0 -554 -4
-558 -9 -9 -52 21 -67 48 -11 20 -80 72 -86 65 -1 -2 -5 -12 -9 -23 -4 -15 9
-38 48 -87 30 -37 73 -96 97 -132 36 -55 48 -66 71 -66 55 0 59 29 57 485 -4
827 -2 865 54 948 21 31 57 149 57 187 0 53 -49 66 -109 29z"/>
<path d="M1024 1610 c-18 -7 -24 -22 -32 -77 -6 -37 -11 -86 -11 -108 -1 -64
-10 -112 -48 -235 -20 -63 -39 -137 -44 -165 -4 -27 -19 -81 -33 -119 -14 -38
-26 -81 -26 -95 0 -15 -6 -35 -14 -46 -7 -11 -19 -37 -26 -58 -7 -22 -18 -51
-26 -65 -16 -31 -18 -58 -5 -66 14 -9 71 49 71 71 0 11 12 30 26 44 42 39 87
150 150 369 63 219 83 316 91 432 8 123 -6 145 -73 118z"/>
<path d="M670 1435 c-25 -13 -69 -39 -99 -59 -29 -20 -60 -36 -68 -36 -8 0
-26 -9 -40 -20 -14 -11 -29 -20 -33 -20 -4 0 -17 9 -30 20 -32 28 -64 25 -85
-6 -14 -22 -17 -50 -16 -173 2 -337 2 -333 -20 -388 -12 -30 -29 -55 -40 -58
-41 -13 -5 -51 38 -40 29 7 63 32 63 46 0 4 11 19 24 32 20 20 25 38 31 108 9
114 14 161 20 180 3 9 7 40 9 70 3 48 7 56 46 91 58 52 179 113 194 98 7 -7
11 -70 11 -183 0 -153 -3 -182 -25 -259 -13 -48 -22 -90 -18 -93 16 -16 53 28
94 110 34 70 45 105 50 160 6 68 -10 360 -21 400 -11 39 -36 45 -85 20z"/>
<path d="M1260 1205 c-8 -8 -32 -31 -53 -51 -40 -38 -57 -69 -63 -119 -5 -39
-77 -227 -131 -341 -36 -77 -16 -114 57 -104 16 2 29 10 100 65 89 68 131 95
150 95 10 0 23 6 27 13 10 15 89 67 102 67 18 0 41 31 41 55 0 15 -10 31 -25
41 -23 15 -26 14 -71 -20 -26 -20 -59 -39 -72 -43 -13 -3 -49 -19 -78 -34 -30
-16 -54 -25 -54 -19 0 6 8 29 19 53 10 23 28 80 41 127 12 47 29 95 37 108 21
34 41 95 36 110 -6 17 -45 15 -63 -3z"/>
<path d="M534 1092 c-41 -6 -52 -32 -64 -147 -20 -193 -49 -299 -127 -467 -22
-46 -45 -97 -52 -115 -7 -18 -24 -39 -37 -48 -45 -29 -22 -95 28 -79 39 12 82
54 113 113 17 31 38 57 47 59 10 2 41 -20 74 -52 48 -46 67 -58 120 -71 67
-17 96 -14 132 13 20 15 21 20 9 36 -7 10 -27 19 -44 20 -18 1 -35 5 -39 9 -4
4 -15 7 -25 7 -9 0 -29 14 -43 30 -29 35 -98 69 -138 70 -16 0 -28 3 -28 6 0
3 16 49 36 102 20 52 44 132 54 176 11 45 24 99 29 121 6 22 11 54 11 70 0 17
6 41 13 55 8 14 11 33 8 42 -9 25 -54 54 -77 50z"/>
</g>
</svg>
