<?xml version="1.0" standalone="no"?>
<!DOCTYPE svg PUBLIC "-//W3C//DTD SVG 20010904//EN"
 "http://www.w3.org/TR/2001/REC-SVG-20010904/DTD/svg10.dtd">
<svg version="1.0" xmlns="http://www.w3.org/2000/svg"
 width="209.000000pt" height="208.000000pt" viewBox="0 0 209.000000 208.000000"
 preserveAspectRatio="xMidYMid meet">
<metadata>
Created by potrace 1.16, written by Peter Selinger 2001-2019
</metadata>
<g transform="translate(0.000000,208.000000) scale(0.100000,-0.100000)"
fill="#000000" stroke="none">
<path d="M1290 1947 c-40 -19 -120 -77 -120 -87 0 -5 -26 -23 -58 -39 -31 -16
-77 -47 -102 -70 -25 -23 -49 -41 -53 -41 -11 0 -164 -101 -197 -130 -36 -31
-50 -26 -39 12 12 43 4 65 -32 84 -52 26 -109 -6 -109 -62 0 -18 -5 -45 -11
-60 -5 -16 -13 -112 -16 -214 -3 -102 -8 -234 -12 -295 -8 -147 -5 -167 22
-163 17 2 25 14 34 52 7 26 19 56 27 65 10 12 16 57 21 176 7 182 17 254 40
289 16 24 17 24 45 8 27 -16 31 -15 75 6 25 12 67 42 93 66 26 24 67 56 92 71
25 15 68 45 96 66 28 22 56 39 62 39 6 0 18 10 26 22 23 32 20 10 -13 -89 -16
-48 -32 -106 -36 -128 -4 -22 -18 -74 -32 -115 -13 -41 -30 -111 -37 -155 -7
-44 -27 -134 -44 -200 -25 -99 -45 -207 -64 -350 -5 -35 41 -25 73 15 23 28
33 58 49 140 11 58 32 152 46 210 15 58 35 141 45 185 24 108 83 328 104 390
9 28 29 70 44 95 36 60 49 95 54 152 6 66 -15 82 -73 55z"/>
<path d="M1537 1818 c-30 -11 -33 -19 -42 -128 -8 -88 -31 -313 -44 -420 -8
-68 -45 -222 -57 -242 -9 -14 7 -48 23 -48 8 0 17 10 21 22 9 34 63 132 81
145 9 6 28 14 43 17 36 7 178 105 190 130 5 12 24 30 41 41 21 13 33 30 35 48
5 41 -21 44 -70 8 -23 -17 -47 -31 -53 -31 -7 0 -20 -9 -30 -20 -10 -11 -27
-22 -39 -26 -11 -4 -34 -16 -49 -26 -16 -11 -31 -17 -34 -14 -4 3 -1 34 5 69
25 131 47 400 37 447 -7 34 -21 40 -58 28z"/>
<path d="M873 1391 c-26 -16 -33 -28 -38 -68 -6 -48 -11 -73 -40 -218 -32
-159 -46 -216 -55 -233 -6 -9 -16 -35 -24 -57 -10 -32 -18 -41 -40 -43 -31 -4
-86 -48 -86 -69 0 -15 26 -18 35 -3 10 16 45 12 45 -6 0 -9 -9 -27 -20 -41
-11 -14 -20 -31 -20 -38 0 -22 -31 -39 -66 -37 -38 3 -43 -10 -18 -46 30 -43
92 -23 158 54 l34 39 98 -34 c133 -45 248 -52 313 -19 50 26 59 39 38 60 -11
11 -29 13 -71 8 -64 -7 -192 14 -217 36 -8 8 -21 14 -27 14 -7 0 -23 10 -37
22 -27 23 -32 56 -14 91 16 28 75 270 83 337 15 120 34 185 65 223 31 37 -45
60 -96 28z"/>
<path d="M1580 903 c-72 -23 -128 -80 -144 -146 -7 -30 -47 -97 -57 -97 -12 0
-31 141 -24 180 6 36 4 41 -19 52 -23 10 -28 9 -41 -8 -8 -10 -15 -25 -15 -33
0 -7 -9 -29 -21 -47 -20 -33 -20 -35 -4 -110 19 -84 15 -186 -11 -262 -19 -59
-18 -71 11 -78 18 -4 32 -1 46 12 20 18 21 18 34 1 17 -24 71 -32 122 -18 85
23 221 185 259 310 41 135 37 226 -10 235 -43 9 -111 14 -126 9z m66 -118 c23
-59 -77 -225 -203 -337 -11 -10 -23 -18 -26 -18 -12 0 -7 21 8 36 17 17 20 50
6 58 -5 3 -21 -4 -35 -15 -15 -12 -29 -20 -31 -18 -2 3 -1 33 2 67 5 54 9 65
29 72 12 5 30 25 40 45 17 36 83 100 119 115 34 14 85 11 91 -5z"/>
</g>
</svg>
