<?xml version="1.0" standalone="no"?>
<!DOCTYPE svg PUBLIC "-//W3C//DTD SVG 20010904//EN"
 "http://www.w3.org/TR/2001/REC-SVG-20010904/DTD/svg10.dtd">
<svg version="1.0" xmlns="http://www.w3.org/2000/svg"
 width="208.000000pt" height="207.000000pt" viewBox="0 0 208.000000 207.000000"
 preserveAspectRatio="xMidYMid meet">
<metadata>
Created by potrace 1.16, written by Peter Selinger 2001-2019
</metadata>
<g transform="translate(0.000000,207.000000) scale(0.100000,-0.100000)"
fill="#000000" stroke="none">
<path d="M1005 1768 c-11 -7 -26 -18 -33 -25 -7 -7 -16 -13 -20 -13 -4 0 -20
-13 -37 -28 -45 -41 -156 -132 -210 -172 -26 -19 -59 -47 -74 -61 -14 -14 -36
-31 -49 -38 -21 -11 -42 -38 -95 -121 l-22 -35 -7 40 c-4 22 -7 57 -7 78 -1
45 -26 87 -53 87 -10 0 -30 -7 -43 -16 -24 -16 -25 -21 -25 -123 0 -90 -10
-181 -47 -423 -3 -20 -3 -48 1 -62 18 -73 79 17 112 168 13 60 24 115 24 121
0 7 10 34 21 60 18 40 23 45 31 32 5 -10 12 -17 16 -17 13 0 52 31 131 105 96
90 248 216 280 233 23 12 24 11 18 -20 -29 -168 -41 -231 -54 -278 -8 -30 -25
-98 -38 -150 -32 -133 -83 -302 -117 -389 -30 -73 -28 -101 5 -88 17 6 87 108
87 125 0 6 6 15 13 19 31 20 87 206 167 563 39 171 49 209 65 240 7 14 13 36
14 50 2 65 3 126 2 138 -1 15 -29 15 -56 0z"/>
<path d="M1334 1770 c-12 -5 -25 -14 -29 -21 -11 -17 -32 -143 -45 -271 -15
-157 -16 -162 -33 -258 -8 -47 -20 -98 -26 -113 -15 -39 -14 -77 2 -77 16 0
47 31 47 47 0 6 7 16 15 23 8 7 15 21 15 31 0 30 43 109 58 109 20 0 85 54
199 165 93 91 113 128 77 142 -22 8 -51 -8 -120 -64 -86 -69 -120 -90 -131
-79 -7 7 23 252 38 309 15 58 -11 80 -67 57z"/>
<path d="M635 1302 c-34 -21 -49 -75 -60 -211 -7 -93 -70 -380 -95 -436 -11
-24 -28 -45 -40 -48 -17 -4 -19 -9 -10 -29 9 -19 7 -33 -12 -74 -29 -63 -113
-170 -139 -177 -27 -7 -26 -47 2 -47 49 0 126 63 205 168 8 12 19 10 65 -11
107 -49 122 -52 251 -53 l127 -2 28 29 c15 16 35 29 43 29 8 0 26 9 40 20 23
18 25 24 24 112 -1 83 -4 100 -32 159 -18 36 -32 80 -32 97 0 41 -16 41 -63
-2 -42 -39 -47 -70 -17 -109 32 -41 50 -104 50 -178 l0 -68 -56 -7 c-97 -12
-221 15 -293 63 -19 13 -38 23 -42 23 -17 0 -20 48 -6 77 8 15 29 85 45 153
28 113 39 170 72 378 6 34 19 77 29 95 34 61 -17 90 -84 49z"/>
<path d="M1246 996 c-30 -27 -34 -66 -8 -89 23 -21 31 -21 70 -1 21 10 43 13
67 8 32 -6 35 -9 35 -39 0 -40 -20 -87 -60 -140 -16 -22 -34 -49 -40 -60 -6
-11 -25 -30 -43 -42 -18 -13 -69 -60 -115 -105 -90 -89 -96 -107 -50 -141 26
-20 26 -20 60 1 18 12 69 58 113 103 44 45 97 93 117 107 38 25 42 31 39 64
-1 10 10 38 24 63 30 50 55 133 55 183 0 52 -41 87 -121 101 -93 16 -115 14
-143 -13z"/>
</g>
</svg>
