<?xml version="1.0" standalone="no"?>
<!DOCTYPE svg PUBLIC "-//W3C//DTD SVG 20010904//EN"
 "http://www.w3.org/TR/2001/REC-SVG-20010904/DTD/svg10.dtd">
<svg version="1.0" xmlns="http://www.w3.org/2000/svg"
 width="207.000000pt" height="212.000000pt" viewBox="0 0 207.000000 212.000000"
 preserveAspectRatio="xMidYMid meet">
<metadata>
Created by potrace 1.16, written by Peter Selinger 2001-2019
</metadata>
<g transform="translate(0.000000,212.000000) scale(0.100000,-0.100000)"
fill="#000000" stroke="none">
<path d="M1064 2107 c-12 -7 -37 -24 -55 -39 -19 -15 -58 -46 -86 -68 -65 -50
-67 -74 -11 -118 26 -21 74 6 154 86 68 68 94 85 94 61 0 -15 -50 -162 -59
-174 -4 -5 -19 -39 -33 -75 -36 -90 -78 -162 -78 -133 0 12 5 25 10 28 18 11
11 40 -17 74 -24 28 -32 32 -56 26 -45 -12 -57 -42 -68 -175 -9 -113 -29 -208
-60 -286 -7 -17 -9 -39 -6 -48 10 -25 38 -6 72 49 36 56 44 44 16 -22 -11 -26
-25 -67 -31 -90 -9 -35 -20 -49 -68 -82 -31 -22 -71 -51 -88 -65 -18 -14 -36
-26 -41 -26 -6 0 -27 -13 -48 -30 -20 -16 -41 -27 -46 -24 -19 12 -9 82 16
112 17 20 25 42 25 66 0 35 -12 47 -25 25 -4 -6 -40 -26 -81 -45 -41 -20 -74
-42 -74 -50 0 -8 10 -49 21 -92 23 -83 28 -212 16 -377 -9 -106 0 -132 32 -94
11 13 26 42 32 64 6 22 15 45 19 50 4 6 11 52 15 102 7 92 7 93 41 114 19 11
34 25 34 30 0 5 17 18 38 29 20 11 57 36 82 55 25 18 48 34 53 34 4 1 7 -47 7
-106 0 -82 -6 -129 -26 -207 -15 -56 -30 -105 -35 -111 -5 -5 -9 -16 -9 -25 0
-8 -22 -60 -49 -115 -47 -97 -81 -145 -102 -145 -6 0 -9 -10 -7 -23 2 -17 10
-23 38 -25 31 -2 42 4 93 53 31 31 60 69 63 83 4 15 14 41 23 57 9 17 21 44
28 60 11 29 11 29 12 5 1 -31 117 -153 194 -203 201 -132 290 -179 384 -203
59 -15 74 -16 87 -5 9 8 16 16 16 20 0 10 -82 61 -98 61 -7 0 -28 11 -46 25
-18 14 -37 25 -43 25 -11 0 -126 80 -131 91 -2 5 -24 18 -49 30 -27 13 -86 63
-143 121 -82 82 -102 98 -129 98 -17 0 -31 2 -31 4 0 2 11 41 24 87 13 46 29
136 36 199 10 95 16 122 37 152 34 50 26 73 -23 63 -20 -3 -35 -3 -33 2 6 14
152 147 189 173 19 13 66 50 103 82 37 32 73 56 79 52 24 -15 -8 -151 -87
-374 -12 -36 -31 -92 -41 -125 -10 -32 -36 -84 -56 -115 -60 -88 -47 -116 28
-61 53 37 93 86 116 141 44 101 139 405 152 485 9 57 24 106 46 148 27 50 32
72 31 117 -1 49 -11 69 -33 70 -8 0 -80 -62 -194 -169 -77 -73 -142 -126 -185
-154 -28 -18 -29 -18 -29 0 0 21 104 313 121 338 4 6 32 75 64 155 32 80 75
178 97 218 l40 72 -124 0 c-78 -1 -131 -5 -144 -13z"/>
<path d="M420 2001 c-13 -20 -27 -54 -31 -76 -14 -72 -45 -190 -57 -211 -6
-12 -18 -61 -27 -110 -8 -48 -22 -98 -30 -111 -14 -21 -14 -27 1 -58 29 -61
53 -57 136 24 l73 71 3 -36 c4 -43 57 -101 101 -110 24 -5 32 -1 46 20 16 25
16 27 -4 61 -20 35 -21 38 -5 113 17 82 24 196 12 207 -18 18 -63 6 -85 -21
-52 -66 -129 -134 -120 -107 3 10 15 48 26 84 10 37 24 76 30 87 6 12 14 49
17 84 4 35 11 70 15 79 11 21 -6 35 -47 41 -26 3 -34 -1 -54 -31z"/>
</g>
</svg>
