<?xml version="1.0" standalone="no"?>
<!DOCTYPE svg PUBLIC "-//W3C//DTD SVG 20010904//EN"
 "http://www.w3.org/TR/2001/REC-SVG-20010904/DTD/svg10.dtd">
<svg version="1.0" xmlns="http://www.w3.org/2000/svg"
 width="207.000000pt" height="210.000000pt" viewBox="0 0 207.000000 210.000000"
 preserveAspectRatio="xMidYMid meet">
<metadata>
Created by potrace 1.16, written by Peter Selinger 2001-2019
</metadata>
<g transform="translate(0.000000,210.000000) scale(0.100000,-0.100000)"
fill="#000000" stroke="none">
<path d="M1395 2060 c-27 -21 -61 -48 -74 -60 -13 -13 -52 -38 -85 -58 -34
-19 -70 -43 -81 -52 -11 -10 -42 -27 -70 -39 -43 -19 -145 -104 -145 -121 0
-4 9 -16 20 -28 24 -25 54 -28 90 -9 92 50 108 61 203 142 9 8 20 15 25 15 4
0 25 14 47 31 34 26 41 28 43 13 2 -9 -5 -29 -16 -43 -17 -23 -74 -145 -184
-393 -12 -27 -25 -48 -28 -48 -4 0 -10 17 -14 39 -9 58 -35 85 -73 77 -47 -11
-60 -31 -43 -69 19 -46 29 -175 17 -224 -8 -32 -8 -45 2 -57 18 -22 22 -21 62
15 19 17 53 47 76 66 23 19 45 44 48 56 9 31 98 231 161 364 30 62 54 115 54
119 0 3 11 19 25 36 14 16 25 36 25 45 0 8 17 48 39 88 21 40 40 87 43 104 l5
31 -61 0 c-55 -1 -66 -4 -111 -40z"/>
<path d="M577 1920 l-26 -20 6 -125 c5 -120 5 -127 -27 -222 -32 -98 -94 -237
-117 -261 -7 -7 -18 -32 -24 -55 -7 -23 -18 -49 -26 -58 -19 -22 -16 -63 6
-83 14 -13 28 -15 62 -10 45 7 139 66 139 87 0 11 18 -7 81 -79 50 -58 93 -63
130 -15 l21 26 -22 15 c-49 33 -80 69 -80 94 0 13 -4 28 -10 31 -5 3 -10 26
-10 50 0 54 -21 79 -59 70 -31 -7 -51 -31 -51 -60 0 -22 -55 -83 -66 -73 -3 4
8 32 25 63 17 31 36 77 42 103 7 26 25 88 42 137 25 77 30 110 34 226 7 175
-8 208 -70 159z"/>
<path d="M1490 1471 c-21 -21 -41 -48 -45 -60 -3 -12 -10 -21 -14 -21 -5 0
-35 -21 -67 -46 -33 -25 -80 -57 -106 -70 -26 -13 -70 -44 -98 -69 -28 -25
-55 -45 -60 -45 -5 0 -35 -17 -67 -38 -84 -56 -180 -112 -190 -112 -6 0 -18
-9 -29 -21 -10 -12 -35 -29 -54 -39 -50 -26 -121 -102 -131 -141 -8 -32 -8
-32 -5 -4 2 17 6 37 10 46 4 9 -1 25 -11 38 l-18 21 -57 -27 c-53 -24 -58 -29
-58 -59 0 -18 4 -35 9 -38 14 -9 34 -163 27 -212 -3 -25 -13 -60 -21 -77 -8
-18 -16 -43 -17 -57 -3 -21 2 -25 27 -28 31 -3 32 -2 68 73 20 44 40 160 34
203 -2 20 -2 47 2 59 6 22 7 22 35 8 29 -15 29 -15 82 37 30 29 64 58 77 63
13 6 36 23 52 38 17 15 77 53 135 84 89 48 135 77 195 126 26 21 116 84 141
99 16 10 37 23 46 30 9 7 19 10 21 8 11 -11 -91 -391 -145 -540 -43 -119 -80
-200 -94 -200 -7 0 -18 9 -24 20 -15 28 -29 25 -36 -8 -3 -15 -12 -40 -19 -56
-17 -38 -9 -60 34 -97 20 -17 50 -43 67 -59 17 -15 42 -31 54 -35 13 -4 44
-22 69 -39 61 -42 211 -112 286 -132 61 -17 257 -26 305 -14 14 4 26 14 28 23
5 24 -54 47 -120 47 -29 0 -81 7 -115 15 -68 16 -240 94 -290 131 -17 13 -35
24 -40 24 -4 1 -24 14 -43 30 -19 17 -40 30 -47 30 -13 0 -63 61 -63 78 0 6
10 18 21 26 12 8 32 32 45 53 40 66 74 132 74 143 0 7 11 39 24 73 25 66 80
246 95 312 12 52 52 178 90 285 33 92 38 129 19 148 -21 21 -50 13 -88 -27z"/>
<path d="M1070 974 c-19 -13 -40 -24 -46 -24 -7 0 -26 -11 -43 -25 -23 -20
-31 -37 -36 -73 -24 -197 -49 -306 -88 -392 -14 -30 -30 -66 -36 -80 -31 -70
-67 -114 -139 -172 -12 -9 -11 -13 1 -26 26 -25 61 -9 137 61 14 13 32 26 41
30 24 8 103 179 129 277 12 47 28 123 35 170 13 90 32 138 70 180 24 26 38 91
20 96 -5 2 -26 -8 -45 -22z"/>
</g>
</svg>
