<?xml version="1.0" standalone="no"?>
<!DOCTYPE svg PUBLIC "-//W3C//DTD SVG 20010904//EN"
 "http://www.w3.org/TR/2001/REC-SVG-20010904/DTD/svg10.dtd">
<svg version="1.0" xmlns="http://www.w3.org/2000/svg"
 width="208.000000pt" height="209.000000pt" viewBox="0 0 208.000000 209.000000"
 preserveAspectRatio="xMidYMid meet">
<metadata>
Created by potrace 1.16, written by Peter Selinger 2001-2019
</metadata>
<g transform="translate(0.000000,209.000000) scale(0.100000,-0.100000)"
fill="#000000" stroke="none">
<path d="M760 2057 c0 -18 -5 -59 -11 -91 -6 -36 -7 -62 -1 -68 12 -12 58 9
66 31 11 30 34 63 65 95 52 54 44 66 -44 66 l-75 0 0 -33z"/>
<path d="M1154 2077 c-6 -7 -46 -41 -88 -77 -42 -36 -105 -90 -139 -120 -35
-30 -85 -71 -111 -90 -26 -19 -65 -48 -87 -63 -21 -15 -48 -41 -61 -58 -13
-17 -32 -40 -44 -52 -31 -33 -45 -77 -36 -112 10 -38 42 -44 78 -16 15 12 33
21 40 21 7 0 43 20 79 45 l67 46 -7 -58 c-17 -140 -24 -155 -99 -216 -39 -30
-90 -65 -115 -78 -25 -12 -61 -33 -79 -46 -18 -14 -36 -23 -39 -19 -3 3 0 34
7 70 7 38 11 129 10 218 -2 131 0 177 8 221 1 4 14 12 28 17 16 7 24 16 22 28
-5 27 -99 40 -143 19 -29 -14 -33 -21 -38 -64 -2 -26 2 -88 10 -137 17 -104
13 -259 -11 -416 -20 -132 -21 -210 -3 -210 23 0 65 54 72 93 7 34 10 37 42
37 24 0 41 8 58 26 14 15 37 34 52 42 66 35 84 44 88 40 6 -5 -43 -150 -55
-162 -5 -5 -10 -16 -10 -23 0 -7 -20 -55 -44 -106 -41 -84 -63 -138 -85 -207
-8 -25 -41 -90 -81 -159 -18 -33 -18 -36 -3 -53 47 -52 138 53 199 230 14 42
33 87 42 101 l17 25 6 -40 c4 -25 0 -64 -12 -109 -23 -87 -23 -85 1 -85 12 0
24 9 29 23 5 12 20 33 35 46 35 33 49 82 42 145 -7 55 -1 86 17 86 6 0 27 11
46 24 20 13 47 27 60 31 23 7 23 6 17 -41 -9 -62 -61 -259 -87 -332 -38 -105
-83 -187 -123 -224 -34 -31 -38 -39 -27 -52 19 -23 49 -20 87 9 18 14 36 25
40 25 39 0 152 255 169 381 11 81 61 205 93 228 22 16 25 23 16 38 -6 10 -21
23 -33 29 l-23 12 27 18 c14 11 47 36 71 57 25 20 60 45 77 53 18 9 40 23 49
32 16 13 18 13 24 -3 7 -18 -14 -124 -47 -230 -10 -33 -26 -87 -35 -120 -10
-33 -27 -80 -40 -105 -12 -25 -28 -60 -35 -77 -17 -39 -35 -42 -51 -8 -9 20
-18 25 -48 25 l-37 0 -7 -54 c-9 -83 1 -99 126 -196 56 -44 210 -85 306 -81
76 2 124 24 120 53 -3 21 -9 23 -68 24 -80 2 -163 23 -213 55 -55 35 -107 79
-107 93 0 6 18 28 40 48 61 58 70 80 161 388 11 36 23 91 29 123 5 32 20 81
34 110 28 58 30 66 28 155 -2 59 -3 62 -27 62 -15 0 -31 -9 -41 -24 -19 -31
-83 -80 -91 -72 -4 4 -1 12 5 18 17 17 15 58 -3 64 -8 4 -27 -1 -41 -11 -33
-21 -39 -15 -26 27 17 56 66 291 102 483 6 33 17 86 24 118 l14 57 -101 0
c-67 -1 -106 -5 -113 -13z m80 -152 c-18 -118 -29 -178 -54 -300 -11 -49 -24
-121 -31 -160 -15 -92 -32 -129 -66 -145 -30 -14 -164 -42 -170 -36 -13 12 36
83 110 161 89 93 131 165 108 188 -8 8 -29 -7 -78 -54 -38 -35 -75 -70 -83
-78 -21 -21 -23 -1 -6 67 9 33 16 74 16 90 0 21 8 36 23 47 66 47 96 68 140
96 26 17 45 35 42 39 -3 5 -19 15 -35 24 -29 14 -32 13 -55 -10 -13 -13 -29
-24 -35 -24 -20 0 -9 21 31 58 22 20 66 61 97 89 30 29 57 51 58 50 2 -2 -4
-48 -12 -102z m23 -639 c-32 -28 -146 -107 -307 -212 -19 -13 -57 -30 -84 -39
-47 -16 -50 -16 -63 1 -16 22 -4 62 42 144 8 14 16 29 18 34 2 5 17 -1 34 -13
24 -18 40 -22 70 -19 43 6 164 48 185 65 7 6 25 14 40 18 14 4 36 18 49 31 12
13 30 24 38 24 10 -1 3 -13 -22 -34z"/>
</g>
</svg>
