<?xml version="1.0" standalone="no"?>
<!DOCTYPE svg PUBLIC "-//W3C//DTD SVG 20010904//EN"
 "http://www.w3.org/TR/2001/REC-SVG-20010904/DTD/svg10.dtd">
<svg version="1.0" xmlns="http://www.w3.org/2000/svg"
 width="206.000000pt" height="213.000000pt" viewBox="0 0 206.000000 213.000000"
 preserveAspectRatio="xMidYMid meet">
<metadata>
Created by potrace 1.16, written by Peter Selinger 2001-2019
</metadata>
<g transform="translate(0.000000,213.000000) scale(0.100000,-0.100000)"
fill="#000000" stroke="none">
<path d="M738 1863 c-30 -37 -41 -82 -47 -198 l-6 -120 -65 -32 c-46 -23 -80
-32 -117 -32 -59 -1 -97 -27 -107 -72 -10 -46 60 -88 106 -64 31 15 126 40
132 34 7 -7 -48 -237 -74 -306 -12 -34 -75 -83 -196 -156 -70 -42 -124 -93
-124 -117 0 -19 30 -50 48 -50 19 0 14 -16 -8 -31 -22 -15 -24 -24 -15 -109 5
-45 1 -74 -24 -154 -38 -121 -40 -169 -8 -183 29 -13 100 -2 149 25 64 34 186
15 353 -55 98 -42 164 -74 170 -83 3 -4 33 -24 68 -43 34 -19 79 -44 101 -56
85 -48 113 -54 309 -58 181 -5 189 -4 220 17 40 28 72 91 71 141 -1 38 -50
125 -90 160 -46 41 -95 28 -56 -14 35 -37 65 -115 58 -152 -9 -46 -34 -64
-102 -71 -61 -6 -250 20 -269 37 -5 5 -18 9 -28 9 -18 0 -67 23 -97 46 -22 17
-180 101 -296 158 -63 31 -166 66 -193 66 -10 0 -29 8 -42 19 -23 18 -23 18
-4 47 11 16 26 41 35 55 55 95 62 101 94 95 17 -3 51 -9 75 -13 41 -5 45 -9
67 -57 32 -71 98 -132 149 -141 45 -7 117 18 147 51 51 58 83 229 55 297 -19
45 -35 52 -90 41 -34 -7 -45 -16 -57 -41 -17 -38 -47 -44 -52 -10 -2 16 -11
23 -30 25 -41 5 -38 16 46 143 71 108 96 150 96 163 0 7 6 19 14 25 12 10 17
8 25 -8 6 -11 11 -29 11 -41 0 -28 25 -36 56 -15 25 16 25 16 14 -5 -6 -11
-22 -25 -36 -30 -28 -11 -31 -32 -8 -54 27 -27 64 -15 130 41 21 17 94 185 94
216 0 8 16 48 36 88 148 306 164 346 164 404 0 45 -3 53 -21 58 -13 4 -31 -4
-52 -21 -34 -29 -54 -42 -102 -68 -16 -9 -39 -24 -50 -34 -11 -10 -47 -32 -80
-50 -33 -18 -69 -40 -80 -50 -11 -9 -42 -29 -70 -45 -101 -58 -119 -98 -61
-138 l35 -23 -38 -45 c-20 -24 -47 -73 -60 -109 -12 -36 -40 -101 -61 -145
-21 -44 -48 -102 -61 -130 -12 -27 -37 -83 -56 -123 l-34 -74 -42 7 c-23 4
-46 11 -51 16 -6 5 0 46 13 101 12 51 28 127 35 168 18 97 22 106 57 120 16 7
34 21 40 31 5 11 15 19 22 19 18 0 87 75 87 94 0 24 -46 20 -83 -6 -18 -13
-51 -33 -75 -45 l-43 -22 7 55 c6 51 5 56 -15 61 -25 6 -26 19 -5 75 30 81 39
94 99 148 78 71 104 103 107 131 5 37 -23 33 -76 -11 -62 -52 -86 -53 -86 -4
0 45 27 141 43 151 7 4 19 8 27 8 26 0 22 34 -6 60 -33 30 -93 34 -116 8z
m666 -360 c-46 -106 -95 -226 -118 -293 -28 -82 -72 -173 -62 -130 3 14 -1 38
-8 52 -8 15 -14 53 -13 87 2 71 -25 118 -64 113 -27 -3 -29 -6 62 70 36 31 74
58 85 62 10 3 37 22 59 41 22 19 48 35 58 35 16 0 16 -2 1 -37z m-772 -595
c-5 -62 -39 -199 -53 -213 -5 -5 -9 -17 -9 -27 0 -10 -4 -26 -8 -36 -41 -84
-52 -108 -52 -117 0 -6 -11 -27 -25 -47 -20 -30 -34 -38 -76 -47 -29 -6 -54
-9 -57 -6 -3 3 0 29 6 57 6 29 14 89 17 134 6 76 6 82 -19 111 l-26 31 39 35
c22 20 52 43 68 53 24 16 63 44 99 73 14 11 87 50 95 51 3 0 4 -24 1 -52z
m451 -270 c-2 -56 -27 -122 -56 -147 -37 -30 -107 29 -107 90 0 22 7 29 48 44
59 22 72 32 72 57 0 14 6 19 23 16 20 -3 22 -8 20 -60z m-8 -508 c3 -5 1 -10
-4 -10 -6 0 -11 5 -11 10 0 6 2 10 4 10 3 0 8 -4 11 -10z"/>
</g>
</svg>
