<?xml version="1.0" standalone="no"?>
<!DOCTYPE svg PUBLIC "-//W3C//DTD SVG 20010904//EN"
 "http://www.w3.org/TR/2001/REC-SVG-20010904/DTD/svg10.dtd">
<svg version="1.0" xmlns="http://www.w3.org/2000/svg"
 width="208.000000pt" height="214.000000pt" viewBox="0 0 208.000000 214.000000"
 preserveAspectRatio="xMidYMid meet">
<metadata>
Created by potrace 1.16, written by Peter Selinger 2001-2019
</metadata>
<g transform="translate(0.000000,214.000000) scale(0.100000,-0.100000)"
fill="#000000" stroke="none">
<path d="M432 1872 c-24 -21 -37 -58 -22 -67 5 -3 10 -35 10 -71 0 -58 -3 -68
-27 -90 -16 -15 -48 -37 -73 -51 -60 -35 -119 -73 -152 -99 -15 -12 -59 -37
-98 -55 l-70 -32 0 -69 0 -69 81 43 c45 24 84 51 86 61 3 9 9 17 15 17 5 0 14
5 21 11 7 5 47 35 90 64 54 39 77 50 77 39 0 -15 -13 -53 -98 -283 -22 -60
-34 -78 -67 -101 -22 -15 -49 -29 -60 -31 -24 -5 -65 -64 -65 -95 0 -26 34
-54 65 -54 12 0 34 14 51 31 38 40 94 65 106 47 10 -16 -5 -209 -19 -231 -2
-4 -9 -35 -13 -69 -10 -66 3 -109 36 -122 28 -11 65 34 75 90 5 27 20 72 34
100 28 58 151 187 204 214 49 25 95 75 88 94 -14 36 -120 6 -189 -52 -42 -35
-95 -72 -103 -72 -12 0 7 154 20 176 8 12 34 34 59 50 48 30 70 66 64 106 -5
35 -41 35 -80 -1 -43 -40 -56 -27 -39 41 7 29 20 63 28 76 7 12 11 27 8 32 -7
11 13 86 31 115 7 11 15 34 18 51 4 18 18 37 34 47 34 21 82 64 82 73 0 4 16
22 35 41 74 72 28 86 -61 18 -32 -24 -65 -45 -71 -45 -18 0 -16 45 2 60 21 18
19 35 -7 52 -39 25 -84 29 -106 10z"/>
<path d="M1315 1770 c-12 -4 -27 -15 -34 -24 -7 -9 -19 -16 -26 -16 -7 0 -24
-9 -38 -20 -14 -11 -65 -41 -114 -66 -85 -45 -117 -63 -214 -118 -65 -37 -98
-78 -106 -131 -6 -50 1 -57 64 -59 31 -1 37 3 46 29 9 27 82 104 100 105 4 0
20 9 35 20 15 11 44 27 66 35 l38 16 -6 -28 c-4 -15 -20 -55 -36 -88 -16 -33
-32 -70 -35 -83 -5 -16 -13 -22 -28 -21 -12 2 -46 -6 -76 -16 -58 -21 -60 -24
-91 -130 -9 -33 -31 -90 -49 -126 -17 -36 -31 -71 -31 -76 0 -6 -7 -24 -15
-39 -15 -29 -20 -64 -9 -64 3 0 37 29 76 64 41 39 80 66 96 68 18 2 37 17 59
48 17 25 41 54 52 66 12 12 21 25 21 29 0 5 20 40 44 79 24 39 65 114 91 166
56 112 137 235 161 244 12 5 15 14 10 38 -3 17 -1 37 5 44 6 8 8 25 5 39 -7
26 -24 30 -61 15z"/>
<path d="M106 885 c-49 -39 -54 -50 -31 -81 20 -26 19 -113 -1 -142 -27 -39
-4 -82 62 -116 31 -17 75 -45 96 -63 22 -18 44 -33 49 -33 5 0 49 -33 99 -73
49 -40 110 -83 134 -96 25 -12 48 -26 51 -32 4 -5 45 -27 93 -50 48 -23 94
-45 102 -50 55 -32 77 -40 152 -53 170 -30 321 -36 463 -19 l70 8 -1 50 c-2
57 -53 170 -82 179 -9 3 -25 19 -34 36 -19 33 -35 38 -45 13 -8 -20 15 -133
30 -152 23 -27 -20 -41 -127 -40 -98 0 -122 3 -251 29 -51 10 -175 60 -225 91
-8 5 -22 12 -30 15 -18 7 -23 10 -91 56 -30 21 -79 54 -109 74 -30 20 -66 47
-80 59 -14 13 -44 36 -66 52 -23 15 -65 49 -94 75 l-53 46 10 119 c6 65 9 121
6 126 -10 17 -53 5 -97 -28z"/>
<path d="M1059 859 c-36 -4 -83 -12 -105 -18 -21 -6 -53 -11 -70 -11 -38 0
-102 -47 -119 -86 -15 -36 -1 -84 25 -84 9 0 28 8 41 18 24 19 145 64 207 77
38 8 51 -10 31 -47 -25 -47 -113 -153 -147 -178 -96 -69 -119 -118 -66 -142
22 -10 39 -8 107 15 45 15 95 27 110 27 52 0 115 21 120 40 7 27 -24 50 -65
50 -19 0 -37 3 -41 6 -3 3 12 35 34 70 34 53 41 74 46 132 7 81 0 118 -25 130
-9 4 -46 5 -83 1z"/>
<path d="M570 662 c-31 -25 -21 -66 24 -93 42 -24 57 -58 63 -139 3 -36 10
-71 16 -77 14 -19 44 -16 67 7 18 18 20 29 15 83 -10 104 -33 164 -78 203 -46
38 -74 43 -107 16z"/>
</g>
</svg>
