<?xml version="1.0" standalone="no"?>
<!DOCTYPE svg PUBLIC "-//W3C//DTD SVG 20010904//EN"
 "http://www.w3.org/TR/2001/REC-SVG-20010904/DTD/svg10.dtd">
<svg version="1.0" xmlns="http://www.w3.org/2000/svg"
 width="210.000000pt" height="215.000000pt" viewBox="0 0 210.000000 215.000000"
 preserveAspectRatio="xMidYMid meet">
<metadata>
Created by potrace 1.16, written by Peter Selinger 2001-2019
</metadata>
<g transform="translate(0.000000,215.000000) scale(0.100000,-0.100000)"
fill="#000000" stroke="none">
<path d="M850 1734 c-19 -8 -51 -24 -70 -35 -19 -10 -94 -49 -166 -85 -94 -47
-135 -73 -143 -90 -6 -14 -24 -30 -41 -35 -38 -14 -49 -53 -38 -139 15 -116
26 -255 22 -275 -6 -26 21 -64 35 -50 25 25 58 149 66 245 11 131 16 152 47
178 59 50 150 102 177 102 4 0 -9 -33 -28 -73 -20 -40 -41 -84 -47 -98 -6 -13
-24 -49 -40 -79 -17 -30 -46 -91 -64 -135 -19 -44 -39 -87 -45 -95 -5 -8 -19
-32 -30 -53 -10 -21 -27 -43 -37 -48 -16 -9 -18 -18 -13 -53 l7 -43 -45 -22
c-82 -40 -84 -45 -60 -169 20 -109 21 -131 8 -214 -6 -37 -4 -51 9 -64 30 -29
65 -23 180 33 159 78 169 84 212 128 22 22 51 48 65 57 33 21 76 105 61 120
-6 6 -16 3 -28 -11 -11 -11 -32 -24 -47 -30 -33 -13 -31 -7 20 56 18 23 33 48
33 57 0 9 18 32 40 52 22 20 37 40 34 46 -3 5 0 23 6 39 10 24 10 33 1 42 -10
9 -15 8 -24 -4 -7 -9 -18 -14 -24 -12 -7 3 -13 0 -13 -6 0 -5 -45 -56 -101
-113 l-100 -103 5 75 c5 81 -11 248 -26 267 -11 14 0 62 19 85 17 20 45 66 76
128 34 68 78 143 98 165 9 11 33 53 53 94 37 77 47 146 24 169 -15 15 -25 15
-68 -4z m-278 -875 c-4 -63 -38 -212 -58 -251 -8 -15 -14 -38 -14 -53 0 -18
-5 -25 -20 -25 -17 0 -20 7 -21 48 0 26 -3 86 -5 134 -3 53 -1 89 6 93 5 3 10
17 10 31 0 19 8 28 34 39 18 8 36 22 40 30 3 9 12 15 19 12 8 -2 11 -21 9 -58z"/>
<path d="M1235 1632 c-16 -8 -46 -22 -65 -32 -20 -10 -44 -33 -55 -54 -14 -26
-37 -45 -80 -67 -141 -71 -175 -97 -175 -136 0 -58 73 -85 104 -38 17 25 75
62 77 48 4 -36 -5 -145 -18 -223 -8 -52 -17 -106 -18 -120 -7 -62 -25 -174
-44 -277 -12 -61 -22 -158 -23 -216 -3 -117 5 -136 69 -163 27 -12 38 -11 85
5 90 32 140 63 216 136 l72 71 0 67 c0 37 -4 67 -10 67 -5 0 -21 -17 -34 -37
-31 -50 -130 -142 -158 -147 -7 -2 -33 -12 -58 -23 -25 -11 -50 -18 -57 -16
-20 8 -26 87 -13 176 6 46 15 88 18 94 4 5 32 18 62 28 52 17 149 75 215 129
28 22 29 26 18 55 -9 26 -8 34 8 55 10 13 19 29 19 35 0 6 11 30 24 54 34 59
40 172 11 193 -10 8 -26 14 -36 14 -24 0 -148 -48 -187 -72 -49 -30 -56 -16
-42 78 15 100 30 134 69 165 127 98 146 120 129 152 -11 22 -77 21 -123 -1z
m76 -504 c-71 -125 -197 -259 -215 -229 -3 4 1 43 8 86 15 85 37 114 87 115
16 0 50 17 80 40 30 22 57 40 61 40 5 0 -5 -24 -21 -52z"/>
</g>
</svg>
