<?xml version="1.0" standalone="no"?>
<!DOCTYPE svg PUBLIC "-//W3C//DTD SVG 20010904//EN"
 "http://www.w3.org/TR/2001/REC-SVG-20010904/DTD/svg10.dtd">
<svg version="1.0" xmlns="http://www.w3.org/2000/svg"
 width="207.000000pt" height="216.000000pt" viewBox="0 0 207.000000 216.000000"
 preserveAspectRatio="xMidYMid meet">
<metadata>
Created by potrace 1.16, written by Peter Selinger 2001-2019
</metadata>
<g transform="translate(0.000000,216.000000) scale(0.100000,-0.100000)"
fill="#000000" stroke="none">
<path d="M1577 2089 c-23 -14 -38 -45 -83 -179 -44 -133 -113 -276 -186 -388
-35 -53 -89 -142 -105 -174 -30 -59 29 -102 126 -91 39 3 61 2 61 -4 0 -10
-44 -72 -77 -108 -10 -10 -26 -32 -35 -47 -13 -20 -26 -28 -47 -28 -22 0 -41
-13 -85 -60 -30 -33 -67 -77 -83 -98 -42 -58 -76 -92 -90 -92 -24 0 -18 59 27
290 31 157 34 169 67 245 49 114 50 125 13 155 -31 25 -31 25 -17 65 26 73 84
179 136 249 56 74 68 107 52 147 -14 38 -54 28 -117 -31 -28 -26 -68 -57 -90
-68 -21 -11 -66 -43 -99 -71 -33 -28 -73 -58 -90 -67 -16 -9 -43 -27 -58 -40
-16 -13 -34 -24 -40 -24 -13 0 -66 -35 -130 -84 -34 -26 -38 -34 -35 -65 3
-33 0 -36 -25 -39 -32 -4 -51 -34 -42 -69 3 -14 6 -126 5 -249 0 -213 1 -224
19 -224 19 0 51 52 51 83 0 9 4 18 9 21 12 8 30 141 36 275 4 90 2 119 -9 136
-14 22 -13 23 18 28 20 3 68 32 117 69 46 35 91 68 100 73 41 25 76 50 97 69
27 24 27 17 3 -60 -11 -32 -27 -84 -36 -114 -38 -126 -79 -178 -173 -225 -17
-9 -40 -31 -52 -50 -12 -19 -29 -37 -40 -40 -13 -4 -18 -15 -18 -35 1 -24 8
-32 41 -45 l40 -16 57 58 c46 46 64 58 90 58 28 0 31 -3 27 -25 -12 -61 -28
-144 -39 -197 -6 -32 -12 -115 -12 -185 -1 -88 -5 -129 -13 -132 -12 -5 -33
71 -33 119 0 13 -4 27 -10 30 -15 9 -11 87 5 109 8 11 15 29 15 39 0 17 -5 19
-37 14 -21 -4 -39 -11 -41 -17 -2 -5 -9 -10 -16 -10 -23 0 -50 -40 -49 -74 1
-18 8 -61 18 -97 9 -37 17 -109 18 -170 2 -117 16 -149 63 -149 21 0 64 34 64
50 0 10 57 40 78 40 13 0 35 22 63 62 44 61 272 298 287 298 8 0 25 19 107
115 101 120 155 188 155 196 0 15 58 36 158 59 133 29 182 54 182 92 0 21 -5
22 -122 7 -52 -7 -93 -8 -98 -3 -8 8 22 76 82 188 14 25 21 58 22 97 1 83 -12
94 -114 94 -91 -1 -88 -6 -43 94 59 130 66 175 30 209 -27 25 -26 25 -50 11z
m73 -425 c0 -9 -23 -58 -52 -108 -97 -173 -116 -193 -173 -187 -56 5 -58 12
-18 77 60 94 62 97 78 130 24 47 66 82 110 93 56 13 55 13 55 -5z"/>
<path d="M1521 1014 c-54 -45 -54 -53 -9 -127 50 -83 54 -145 14 -224 -65
-129 -206 -205 -230 -126 -8 28 0 176 12 203 19 45 52 159 52 180 0 17 -4 20
-22 15 -32 -10 -41 -21 -76 -90 -43 -83 -62 -160 -62 -247 0 -65 4 -80 29
-120 39 -62 60 -72 138 -65 60 4 67 8 116 53 61 57 118 126 139 169 8 17 20
62 26 102 11 63 10 78 -8 136 -11 35 -27 70 -35 77 -9 8 -13 21 -9 36 7 26
-10 54 -31 54 -8 0 -27 -12 -44 -26z"/>
</g>
</svg>
