<?xml version="1.0" standalone="no"?>
<!DOCTYPE svg PUBLIC "-//W3C//DTD SVG 20010904//EN"
 "http://www.w3.org/TR/2001/REC-SVG-20010904/DTD/svg10.dtd">
<svg version="1.0" xmlns="http://www.w3.org/2000/svg"
 width="208.000000pt" height="216.000000pt" viewBox="0 0 208.000000 216.000000"
 preserveAspectRatio="xMidYMid meet">
<metadata>
Created by potrace 1.16, written by Peter Selinger 2001-2019
</metadata>
<g transform="translate(0.000000,216.000000) scale(0.100000,-0.100000)"
fill="#000000" stroke="none">
<path d="M1409 1777 c-20 -7 -53 -25 -72 -42 -20 -16 -53 -44 -74 -62 -21 -17
-40 -29 -42 -27 -3 3 3 21 14 40 18 35 18 35 -3 56 l-22 22 -29 -28 c-28 -27
-65 -95 -111 -201 -44 -101 -92 -194 -106 -205 -8 -7 -14 -18 -14 -25 0 -8
-16 -34 -35 -59 -43 -57 -46 -98 -10 -122 23 -15 29 -15 52 -3 14 7 29 24 34
36 5 13 13 23 19 23 5 0 10 6 10 13 0 17 85 145 121 182 16 17 29 35 29 40 0
5 9 18 20 30 43 44 150 170 150 177 0 13 88 68 118 74 38 8 56 -15 49 -61 -9
-53 -123 -273 -192 -370 -33 -46 -65 -92 -71 -101 -9 -16 -16 -16 -73 -5 -57
11 -64 11 -77 -6 -22 -29 -16 -59 16 -87 l31 -25 -27 -43 c-15 -23 -44 -64
-66 -91 -21 -27 -38 -53 -38 -58 0 -14 -75 -113 -132 -174 -25 -27 -67 -77
-92 -109 -38 -49 -46 -55 -46 -36 0 12 6 28 13 34 15 12 57 150 57 186 0 16
-4 20 -16 16 -9 -3 -18 -6 -20 -6 -2 0 -4 -7 -4 -15 0 -9 -12 -34 -27 -58 -15
-23 -35 -58 -44 -79 -10 -20 -25 -45 -34 -55 -9 -10 -24 -29 -35 -43 -10 -14
-21 -22 -24 -19 -3 3 23 53 58 110 116 187 137 232 129 284 -3 25 -10 48 -14
51 -5 2 -33 -33 -63 -78 -30 -46 -66 -96 -80 -112 l-24 -29 -6 44 c-4 39 -16
197 -21 304 -2 43 -30 62 -41 28 -4 -10 -16 -25 -27 -34 -12 -10 -23 -36 -28
-69 -6 -41 -15 -59 -36 -76 -32 -25 -44 -23 -21 3 8 10 21 45 28 78 8 33 25
75 38 93 34 44 15 40 -58 -14 -60 -44 -87 -51 -62 -16 6 9 26 44 43 77 18 33
46 83 63 110 17 28 47 81 66 119 19 38 54 91 78 117 39 44 43 54 45 104 2 68
-9 78 -78 69 -72 -8 -121 -24 -145 -46 -40 -37 -15 -108 39 -108 19 0 21 -4
16 -22 -9 -28 -75 -181 -81 -187 -3 -3 -3 20 -2 50 5 117 -1 167 -25 195 -22
25 -26 26 -60 15 -30 -10 -37 -18 -43 -46 -3 -18 -1 -42 6 -55 18 -33 22 -58
25 -153 2 -49 6 -91 9 -95 4 -3 19 7 34 21 16 15 31 27 35 27 4 0 -6 -36 -23
-80 -16 -45 -32 -102 -36 -128 -4 -26 -13 -56 -20 -67 -28 -39 -14 -78 30 -86
17 -4 20 -14 22 -74 2 -74 28 -223 45 -265 14 -31 12 -221 -2 -275 -17 -68
-17 -81 2 -103 29 -37 64 -28 99 23 22 31 38 45 54 45 30 0 89 45 146 110 25
29 68 76 95 104 138 145 273 305 352 421 58 85 90 115 119 115 22 0 53 -10
154 -52 32 -13 108 -20 138 -13 15 4 22 13 22 29 0 30 -11 38 -85 60 -33 10
-67 22 -75 27 -8 5 -34 19 -57 31 -24 12 -43 25 -43 29 0 3 9 17 19 31 30 37
111 160 111 167 0 3 16 35 35 71 79 150 105 220 105 286 0 105 -88 158 -201
121z m-819 -1304 c0 -10 -11 -31 -24 -47 l-23 -29 1 34 c1 19 5 40 9 47 12 18
37 15 37 -5z"/>
<path d="M1108 631 c-52 -45 -82 -111 -74 -161 7 -44 40 -103 76 -135 19 -17
36 -20 120 -20 112 0 125 7 166 87 17 33 24 64 24 104 0 52 -3 59 -36 90 -48
46 -100 48 -132 4 -12 -16 -22 -34 -22 -39 0 -13 57 -56 73 -56 7 0 13 -12 15
-27 9 -75 -135 -104 -182 -36 -25 36 -19 78 19 138 19 30 34 59 32 65 -7 22
-46 15 -79 -14z"/>
</g>
</svg>
