<?xml version="1.0" standalone="no"?>
<!DOCTYPE svg PUBLIC "-//W3C//DTD SVG 20010904//EN"
 "http://www.w3.org/TR/2001/REC-SVG-20010904/DTD/svg10.dtd">
<svg version="1.0" xmlns="http://www.w3.org/2000/svg"
 width="206.000000pt" height="213.000000pt" viewBox="0 0 206.000000 213.000000"
 preserveAspectRatio="xMidYMid meet">
<metadata>
Created by potrace 1.16, written by Peter Selinger 2001-2019
</metadata>
<g transform="translate(0.000000,213.000000) scale(0.100000,-0.100000)"
fill="#000000" stroke="none">
<path d="M825 2001 l-50 -17 -6 -70 c-4 -38 -7 -111 -8 -162 l-1 -92 -82 -40
c-46 -22 -89 -40 -96 -40 -7 0 -21 -14 -32 -32 -16 -27 -17 -34 -5 -58 7 -14
24 -32 38 -39 21 -11 30 -10 65 8 23 12 43 21 46 21 8 0 -7 -65 -24 -105 -4
-11 -20 -57 -35 -103 -38 -116 -149 -336 -190 -378 -39 -38 -45 -73 -17 -96
35 -31 52 -29 102 7 26 19 53 35 59 35 6 0 37 14 68 31 105 57 190 99 200 99
6 0 16 7 23 15 7 8 19 15 27 15 11 0 13 -19 11 -96 l-3 -96 -75 -38 c-95 -47
-163 -76 -220 -92 -55 -15 -150 -84 -150 -108 0 -32 12 -50 41 -66 28 -14 32
-13 87 17 31 18 73 42 92 54 40 25 207 105 219 105 15 0 18 -59 14 -237 -6
-194 -3 -209 27 -193 48 26 67 104 76 322 6 141 8 156 30 185 16 21 39 36 64
43 22 6 40 15 40 20 0 5 12 13 28 16 15 4 47 19 72 33 24 14 62 33 85 41 28
11 40 21 40 35 0 15 -6 20 -25 19 -42 -2 -153 -31 -312 -80 -16 -5 -18 1 -17
43 0 26 10 75 22 107 19 52 30 65 82 102 33 24 65 43 71 43 6 1 16 12 22 25
19 41 -6 50 -69 26 -30 -12 -64 -28 -76 -36 -12 -7 -24 -10 -27 -5 -10 15 1
255 12 284 7 15 23 32 37 37 47 18 26 47 -52 71 -56 18 -59 18 -83 0 l-25 -18
0 -214 0 -214 -105 -53 c-102 -52 -189 -86 -197 -78 -3 2 9 36 26 75 38 85 76
192 103 286 30 107 68 199 89 214 10 7 19 19 19 25 0 6 22 25 47 41 26 17 57
37 68 45 12 8 46 31 76 51 67 45 95 76 104 112 14 55 -39 76 -86 33 -14 -13
-36 -29 -49 -36 -14 -7 -55 -35 -91 -62 -37 -26 -70 -48 -73 -48 -3 0 -6 40
-6 89 0 81 2 92 25 119 14 17 25 39 25 51 0 26 -26 27 -95 2z"/>
</g>
</svg>
