<?xml version="1.0" standalone="no"?>
<!DOCTYPE svg PUBLIC "-//W3C//DTD SVG 20010904//EN"
 "http://www.w3.org/TR/2001/REC-SVG-20010904/DTD/svg10.dtd">
<svg version="1.0" xmlns="http://www.w3.org/2000/svg"
 width="207.000000pt" height="213.000000pt" viewBox="0 0 207.000000 213.000000"
 preserveAspectRatio="xMidYMid meet">
<metadata>
Created by potrace 1.16, written by Peter Selinger 2001-2019
</metadata>
<g transform="translate(0.000000,213.000000) scale(0.100000,-0.100000)"
fill="#000000" stroke="none">
<path d="M821 1849 c-43 -48 -43 -50 -57 -159 -7 -61 -16 -114 -18 -118 -3 -4
-38 -25 -80 -45 -99 -50 -128 -84 -120 -140 4 -23 11 -48 17 -54 13 -18 54
-16 69 3 7 9 24 28 38 42 25 26 25 27 28 5 4 -24 -24 -167 -37 -192 -5 -9 -23
-59 -41 -111 -18 -52 -39 -108 -47 -125 -26 -51 -76 -125 -85 -125 -4 0 -8
-13 -8 -29 0 -29 38 -71 64 -71 6 0 70 57 141 126 72 69 142 135 157 145 l27
20 7 -25 c3 -13 2 -64 -3 -113 l-8 -88 -41 -20 c-22 -11 -56 -26 -75 -34 -30
-13 -77 -43 -196 -124 -41 -28 -43 -63 -7 -94 l26 -22 47 24 c25 13 57 34 70
46 33 31 98 68 147 83 19 6 22 2 27 -46 9 -73 8 -156 -2 -201 -5 -20 -7 -46
-4 -57 7 -27 44 -26 76 4 37 34 50 111 41 250 l-7 114 45 45 c25 25 65 54 89
66 24 12 73 41 109 66 36 25 70 45 77 45 15 0 44 40 37 52 -10 16 -66 8 -143
-22 -44 -17 -90 -39 -103 -49 -13 -10 -38 -26 -56 -35 -43 -22 -45 -15 -39
111 7 126 20 182 46 202 26 20 53 69 45 82 -3 6 -14 7 -25 4 -10 -3 -27 -7
-38 -10 -23 -7 -33 23 -20 63 5 15 11 44 14 65 5 28 12 40 31 47 13 5 24 14
24 20 0 42 -61 83 -108 74 -52 -10 -72 -83 -73 -251 l0 -129 -32 -28 c-80 -68
-132 -105 -135 -96 -2 5 10 54 26 107 17 54 39 140 51 191 12 52 30 105 41
119 11 14 20 32 20 39 0 7 22 25 49 41 145 83 298 226 289 271 -6 32 -56 27
-98 -12 -21 -19 -51 -42 -67 -52 -15 -10 -43 -31 -61 -46 -18 -15 -39 -28 -46
-28 -8 0 -19 -7 -26 -15 -33 -40 -39 2 -14 104 9 36 20 70 25 76 5 5 9 22 9
37 0 44 -37 35 -89 -23z"/>
</g>
</svg>
