<?xml version="1.0" standalone="no"?>
<!DOCTYPE svg PUBLIC "-//W3C//DTD SVG 20010904//EN"
 "http://www.w3.org/TR/2001/REC-SVG-20010904/DTD/svg10.dtd">
<svg version="1.0" xmlns="http://www.w3.org/2000/svg"
 width="207.000000pt" height="212.000000pt" viewBox="0 0 207.000000 212.000000"
 preserveAspectRatio="xMidYMid meet">
<metadata>
Created by potrace 1.16, written by Peter Selinger 2001-2019
</metadata>
<g transform="translate(0.000000,212.000000) scale(0.100000,-0.100000)"
fill="#000000" stroke="none">
<path d="M356 1850 c-60 -56 -80 -105 -97 -230 -6 -44 -16 -80 -25 -86 -8 -7
-49 -15 -91 -19 -112 -10 -157 -47 -131 -106 18 -41 39 -44 119 -19 45 15 74
19 80 13 29 -29 -58 -421 -120 -538 -17 -33 -34 -74 -37 -91 -5 -27 -2 -34 25
-53 24 -17 35 -20 50 -11 29 15 30 13 18 -20 -14 -36 -4 -57 36 -80 23 -13 28
-13 46 4 11 10 35 21 53 25 26 6 32 11 30 29 -2 11 5 33 14 47 20 30 102 90
112 81 3 -4 0 -39 -7 -79 -6 -40 -15 -141 -18 -225 -5 -115 -10 -155 -20 -159
-19 -7 -16 -53 5 -69 25 -19 48 -17 77 9 24 20 26 31 35 152 10 135 16 192 25
235 3 14 9 77 15 139 7 85 14 117 25 123 8 5 15 14 15 20 0 6 11 21 25 34 30
27 34 64 7 64 -10 0 -23 -5 -30 -12 -9 -9 -15 -9 -24 0 -9 9 -12 56 -11 165
l2 152 -30 27 -30 28 -28 -21 c-26 -19 -29 -28 -33 -91 -2 -39 -1 -94 2 -122
3 -28 4 -72 2 -98 -4 -43 -7 -48 -60 -84 -32 -21 -59 -41 -62 -44 -9 -9 -54
-36 -74 -43 -16 -6 -18 -3 -13 25 3 18 15 67 26 108 29 102 49 206 57 298 9
92 24 120 89 164 185 126 187 128 248 186 37 35 68 103 55 120 -18 22 -37 13
-116 -57 -43 -37 -89 -72 -102 -76 -14 -4 -46 -23 -71 -41 -26 -19 -49 -34
-53 -34 -12 0 -6 56 14 128 11 39 20 80 20 90 0 11 9 27 20 37 24 22 26 41 4
49 -10 4 -34 -12 -68 -44z"/>
<path d="M915 1780 c-16 -18 -17 -26 -6 -73 6 -28 15 -93 18 -142 l6 -91 -34
-25 c-19 -14 -51 -32 -73 -40 -21 -8 -47 -25 -57 -38 -52 -66 18 -136 81 -81
34 29 52 26 45 -7 -15 -71 -27 -122 -41 -168 -23 -78 -94 -298 -104 -320 -5
-11 -18 -47 -28 -80 -11 -33 -34 -88 -51 -122 -33 -67 -39 -93 -18 -93 22 0
57 30 84 73 44 70 123 228 123 247 0 10 6 23 14 29 8 7 17 28 21 49 4 20 16
62 26 92 11 30 40 134 65 230 47 183 56 201 122 242 28 17 36 18 43 7 17 -28
21 -125 13 -298 -4 -97 -8 -275 -8 -396 -1 -250 7 -294 59 -345 54 -52 124
-42 233 32 35 24 42 34 42 63 0 45 -16 53 -89 46 -6 -1 -18 -14 -28 -31 -23
-40 -74 -43 -91 -5 -23 50 -35 198 -28 360 20 500 20 491 -21 700 -11 55 -34
55 -118 0 -75 -49 -95 -48 -76 6 17 48 13 105 -9 148 -28 55 -80 69 -115 31z"/>
</g>
</svg>
