<?xml version="1.0" standalone="no"?>
<!DOCTYPE svg PUBLIC "-//W3C//DTD SVG 20010904//EN"
 "http://www.w3.org/TR/2001/REC-SVG-20010904/DTD/svg10.dtd">
<svg version="1.0" xmlns="http://www.w3.org/2000/svg"
 width="206.000000pt" height="211.000000pt" viewBox="0 0 206.000000 211.000000"
 preserveAspectRatio="xMidYMid meet">
<metadata>
Created by potrace 1.16, written by Peter Selinger 2001-2019
</metadata>
<g transform="translate(0.000000,211.000000) scale(0.100000,-0.100000)"
fill="#000000" stroke="none">
<path d="M1352 2020 c-31 -13 -43 -51 -47 -150 -2 -47 -4 -90 -4 -96 -1 -6
-29 -28 -63 -48 -35 -21 -70 -42 -78 -47 -8 -5 -31 -17 -50 -25 -19 -9 -52
-30 -72 -46 -47 -37 -49 -67 -7 -102 33 -28 44 -31 53 -17 3 5 31 26 62 48 88
60 108 73 116 73 8 0 4 -35 -13 -108 -10 -47 -64 -112 -93 -112 -9 0 -16 -4
-16 -8 0 -4 -19 -22 -42 -40 -24 -18 -81 -68 -128 -112 -92 -86 -174 -150
-191 -150 -7 0 -9 9 -4 23 3 12 11 44 17 72 7 38 19 58 50 87 l40 37 -6 86
c-8 105 -22 129 -81 144 -88 22 -113 -15 -120 -179 -2 -52 -4 -98 -4 -102 -1
-12 -111 -82 -117 -75 -3 3 2 42 11 86 9 44 20 118 25 164 11 107 43 174 119
245 65 63 133 112 154 112 25 0 50 37 43 65 -6 22 -12 25 -49 25 -36 0 -56 -9
-113 -50 -39 -27 -77 -56 -84 -65 -14 -17 -40 -20 -40 -4 0 60 56 174 86 174
27 0 42 32 24 49 -13 13 -25 11 -97 -25 -96 -47 -99 -52 -109 -202 l-7 -102
-78 -77 c-43 -43 -81 -89 -85 -102 -12 -50 19 -96 66 -96 67 0 70 -10 39 -132
-25 -97 -75 -205 -118 -253 -18 -20 -31 -47 -31 -62 0 -25 32 -63 53 -63 14 0
80 50 91 69 6 9 25 30 44 46 20 17 62 54 95 83 33 28 64 52 68 52 5 0 7 -35 5
-77 l-4 -78 -82 -77 c-44 -43 -86 -78 -93 -78 -7 0 -30 -18 -52 -40 -22 -22
-56 -49 -75 -60 -19 -11 -52 -35 -74 -53 -43 -38 -51 -78 -20 -102 45 -34 95
-8 229 119 44 42 95 85 113 96 l32 19 -5 -122 c-10 -217 -29 -288 -81 -301
-28 -7 -30 -18 -8 -40 18 -18 65 -21 81 -5 6 6 21 16 33 23 15 7 28 30 40 67
15 51 22 98 51 377 7 59 17 114 24 122 7 8 16 25 19 37 4 13 32 43 62 68 47
38 59 43 76 34 16 -9 34 -4 94 27 57 29 77 35 86 26 9 -9 9 -15 0 -24 -7 -7
-12 -21 -12 -31 0 -21 -4 -30 -106 -242 -37 -77 -66 -148 -66 -159 1 -10 11
-30 24 -43 20 -21 30 -24 68 -20 80 8 134 17 160 26 14 5 40 12 58 15 31 5 33
4 26 -17 -14 -47 -80 -131 -122 -158 -66 -42 -76 -60 -58 -104 14 -32 18 -35
58 -35 24 0 68 -4 98 -9 72 -12 471 -18 488 -8 48 30 -40 59 -268 87 -101 13
-170 27 -170 36 0 3 17 36 39 72 38 66 91 207 91 242 0 55 -45 66 -115 29 -91
-47 -225 -77 -225 -49 0 11 40 100 101 229 23 46 52 120 65 165 24 81 45 109
89 122 11 3 35 13 53 22 26 13 32 22 30 42 -3 23 -7 25 -59 25 l-56 0 9 35
c17 70 39 167 57 250 23 103 46 160 66 160 8 0 15 4 15 8 0 5 20 23 45 41 25
18 45 37 45 43 0 6 7 19 16 29 23 25 27 76 6 84 -12 4 -30 -9 -62 -44 -26 -28
-51 -51 -58 -51 -21 0 -21 17 -2 53 l19 35 -39 41 c-22 23 -41 41 -42 40 -2 0
-13 -4 -26 -9z m-533 -647 c0 -5 -4 -17 -9 -28 -8 -18 -9 -17 -9 8 -1 15 4 27
9 27 6 0 10 -3 9 -7z m341 -97 c0 -29 -24 -56 -51 -56 -26 0 -24 10 10 48 36
38 41 39 41 8z"/>
</g>
</svg>
