<?xml version="1.0" standalone="no"?>
<!DOCTYPE svg PUBLIC "-//W3C//DTD SVG 20010904//EN"
 "http://www.w3.org/TR/2001/REC-SVG-20010904/DTD/svg10.dtd">
<svg version="1.0" xmlns="http://www.w3.org/2000/svg"
 width="209.000000pt" height="210.000000pt" viewBox="0 0 209.000000 210.000000"
 preserveAspectRatio="xMidYMid meet">
<metadata>
Created by potrace 1.16, written by Peter Selinger 2001-2019
</metadata>
<g transform="translate(0.000000,210.000000) scale(0.100000,-0.100000)"
fill="#000000" stroke="none">
<path d="M1499 1902 c-9 -4 -29 -19 -45 -34 -40 -37 -92 -79 -134 -108 -19
-13 -71 -54 -115 -91 -44 -36 -100 -79 -125 -94 -25 -15 -47 -31 -50 -35 -13
-16 -100 -57 -106 -49 -3 5 1 44 10 87 8 42 17 94 21 115 5 31 9 37 25 32 21
-7 25 -2 34 42 6 24 3 35 -14 51 -31 29 -77 35 -110 15 -33 -19 -37 -30 -45
-138 -3 -44 -10 -96 -16 -115 -5 -19 -9 -48 -9 -64 0 -16 -7 -56 -16 -87 -13
-45 -22 -60 -43 -69 -14 -6 -50 -33 -80 -60 -42 -39 -61 -50 -87 -50 -40 0
-43 16 -19 77 15 38 60 73 95 73 10 0 28 8 40 18 32 26 20 62 -20 62 -41 0
-46 17 -12 37 16 9 40 36 52 58 19 34 21 45 11 63 -16 29 -29 28 -66 -7 -35
-34 -174 -111 -200 -111 -14 0 -16 6 -10 43 7 42 24 88 50 137 9 17 24 26 45
28 17 2 34 10 37 18 7 19 -34 51 -77 59 -19 3 -42 8 -51 11 -28 8 -61 -29 -69
-77 -4 -24 -15 -80 -24 -124 -9 -44 -16 -91 -16 -105 -1 -31 -32 -70 -56 -70
-10 0 -30 -12 -45 -26 -24 -23 -26 -29 -16 -62 21 -75 5 -172 -35 -218 -26
-30 -23 -69 8 -93 34 -27 44 -26 104 4 27 14 61 25 76 25 24 0 26 -3 19 -27
-4 -16 -9 -66 -12 -113 -5 -92 -16 -114 -61 -125 -15 -4 -47 -17 -72 -29 -48
-24 -74 -32 -136 -42 -68 -10 -89 -25 -92 -65 -3 -32 1 -38 25 -48 23 -9 41
-9 88 4 33 8 65 15 72 15 7 0 32 14 55 30 50 37 88 40 88 8 -1 -70 -22 -229
-34 -263 -23 -65 13 -95 59 -49 37 37 41 49 59 169 38 256 35 243 71 271 18
14 49 30 68 35 37 10 44 19 124 153 44 73 93 172 93 187 0 5 5 9 10 9 6 0 10
7 10 15 0 9 24 40 53 70 28 29 57 60 63 67 15 18 66 59 154 123 115 85 157
117 206 158 70 58 78 50 43 -49 -28 -81 -71 -245 -65 -251 2 -2 0 -19 -5 -36
-42 -143 -143 -623 -135 -643 11 -29 32 -11 59 49 15 34 27 65 27 70 0 4 9 26
19 50 27 60 31 73 51 157 10 41 31 125 48 185 17 61 38 148 47 195 17 89 51
193 112 345 41 99 55 192 32 206 -16 10 -18 10 -40 1z m-1057 -660 c-4 -41
-24 -62 -59 -62 -28 0 -28 5 -2 55 36 67 68 70 61 7z m275 -65 c5 -6 -36 -119
-69 -189 -22 -48 -38 -68 -50 -68 -10 0 -35 -7 -55 -15 l-36 -15 5 63 c3 34
18 94 33 133 25 64 31 72 69 86 35 14 91 16 103 5z"/>
<path d="M989 1217 c-9 -7 -21 -37 -28 -67 -7 -30 -21 -82 -32 -115 -10 -33
-23 -91 -29 -130 -6 -38 -15 -83 -21 -100 -5 -16 -21 -66 -35 -110 -14 -44
-37 -100 -51 -125 -14 -25 -41 -83 -60 -130 -19 -47 -46 -107 -60 -134 -30
-60 -21 -75 32 -50 44 21 87 75 126 162 28 62 37 70 54 53 11 -10 40 -26 234
-128 129 -68 233 -113 261 -113 28 0 70 24 70 41 0 21 -25 41 -80 64 -25 11
-61 31 -80 46 -19 14 -45 29 -57 33 -13 4 -23 11 -23 16 0 5 -13 11 -30 15
-16 4 -32 11 -35 16 -4 5 -13 9 -21 9 -9 0 -47 20 -86 45 -38 25 -83 49 -99
52 -16 3 -29 10 -29 14 0 5 20 64 45 131 25 67 45 131 45 143 0 73 76 275 104
275 28 0 24 29 -10 64 -37 38 -75 46 -105 23z"/>
</g>
</svg>
