<?xml version="1.0" standalone="no"?>
<!DOCTYPE svg PUBLIC "-//W3C//DTD SVG 20010904//EN"
 "http://www.w3.org/TR/2001/REC-SVG-20010904/DTD/svg10.dtd">
<svg version="1.0" xmlns="http://www.w3.org/2000/svg"
 width="206.000000pt" height="206.000000pt" viewBox="0 0 206.000000 206.000000"
 preserveAspectRatio="xMidYMid meet">
<metadata>
Created by potrace 1.16, written by Peter Selinger 2001-2019
</metadata>
<g transform="translate(0.000000,206.000000) scale(0.100000,-0.100000)"
fill="#000000" stroke="none">
<path d="M690 1746 c-47 -23 -98 -50 -115 -59 -63 -35 -83 -8 -27 40 35 29 24
58 -19 49 -18 -3 -47 -6 -65 -6 -49 0 -74 -44 -74 -127 0 -55 -3 -64 -26 -80
-14 -10 -49 -36 -77 -59 -29 -22 -86 -61 -128 -87 -43 -27 -81 -58 -87 -73
-38 -82 40 -142 100 -76 13 15 41 42 61 60 21 18 37 36 37 41 0 5 17 20 38 32
20 13 43 28 50 32 11 7 12 0 8 -35 -4 -23 -8 -65 -11 -93 -3 -27 -9 -68 -14
-90 -26 -113 -43 -170 -60 -208 -71 -157 -92 -196 -119 -225 -28 -31 -1 -92
42 -92 36 0 103 60 136 121 10 19 58 73 107 118 l88 82 3 -48 c4 -60 -15 -129
-42 -155 -12 -11 -38 -31 -60 -45 -21 -14 -57 -42 -80 -62 -22 -21 -49 -41
-58 -44 -23 -8 -23 -49 0 -69 9 -9 38 -19 65 -22 47 -7 47 -7 47 21 0 15 4 33
8 38 11 16 73 65 81 65 13 0 -20 -182 -40 -222 -21 -41 -24 -68 -9 -68 13 0
13 -107 0 -115 -6 -3 -10 -22 -10 -40 0 -57 47 -68 93 -22 25 25 36 79 37 172
0 100 13 132 74 198 31 32 69 75 85 95 l29 37 30 -17 c17 -10 39 -18 50 -18
23 0 90 30 147 65 93 57 155 86 155 71 0 -50 -96 -265 -163 -365 -15 -23 -54
-95 -87 -159 -40 -78 -76 -135 -110 -170 -55 -56 -58 -76 -20 -116 16 -16 22
-17 56 -5 22 7 44 16 49 20 16 11 199 79 213 79 7 0 41 8 75 19 34 10 98 27
142 38 212 54 310 94 310 129 0 23 -52 32 -85 14 -21 -11 -191 -45 -305 -60
-33 -4 -73 -13 -88 -19 -16 -6 -43 -11 -62 -11 -19 0 -37 -4 -40 -10 -3 -5
-15 -10 -26 -10 -27 0 -24 35 6 85 13 22 32 56 41 75 10 19 23 42 30 50 26 32
133 250 140 286 4 21 16 58 27 82 10 25 21 63 23 86 2 22 6 51 9 63 3 12 2 29
-1 37 -9 22 -66 21 -112 -3 -20 -11 -73 -34 -117 -51 -99 -40 -139 -59 -188
-88 -40 -24 -60 -25 -32 -2 8 7 15 18 15 26 0 7 6 17 14 21 8 4 37 44 66 87
29 44 72 98 95 120 23 23 55 61 71 84 l28 44 50 -6 c28 -4 89 -7 136 -7 69 -1
86 3 97 17 7 10 13 22 13 26 0 15 -49 31 -174 58 -27 5 -51 12 -54 14 -8 9 35
84 97 165 66 88 131 216 131 261 0 33 -13 51 -36 52 -28 0 -120 -20 -141 -31
-23 -13 -130 -57 -208 -86 -73 -26 -131 -61 -139 -81 -9 -23 11 -53 40 -60 25
-7 94 17 125 43 8 7 21 13 28 13 7 0 48 18 92 40 44 22 85 40 90 40 16 0 -20
-62 -71 -120 -26 -31 -71 -101 -100 -155 -76 -145 -86 -160 -171 -265 -42 -53
-94 -127 -115 -165 -51 -94 -110 -180 -157 -229 l-39 -41 6 63 c3 34 12 72 20
85 8 12 15 45 15 72 0 28 6 73 12 100 7 28 12 128 13 224 1 172 1 173 -22 182
-37 14 -60 11 -83 -12 -19 -19 -20 -30 -17 -140 l3 -120 -42 -37 c-74 -66
-125 -100 -109 -73 15 24 57 256 71 391 12 117 27 144 112 190 98 54 213 128
231 149 38 46 -23 40 -128 -13z"/>
</g>
</svg>
