<?xml version="1.0" standalone="no"?>
<!DOCTYPE svg PUBLIC "-//W3C//DTD SVG 20010904//EN"
 "http://www.w3.org/TR/2001/REC-SVG-20010904/DTD/svg10.dtd">
<svg version="1.0" xmlns="http://www.w3.org/2000/svg"
 width="205.000000pt" height="208.000000pt" viewBox="0 0 205.000000 208.000000"
 preserveAspectRatio="xMidYMid meet">
<metadata>
Created by potrace 1.16, written by Peter Selinger 2001-2019
</metadata>
<g transform="translate(0.000000,208.000000) scale(0.100000,-0.100000)"
fill="#000000" stroke="none">
<path d="M776 1961 c-43 -19 -55 -45 -76 -159 -7 -37 -20 -89 -29 -117 -15
-46 -19 -50 -51 -53 -74 -7 -93 -67 -39 -120 30 -29 31 -32 19 -69 -7 -21 -16
-43 -21 -49 -16 -20 -40 -98 -55 -179 -16 -83 -60 -182 -117 -264 -77 -110
-82 -126 -56 -162 26 -37 72 -40 90 -7 7 13 32 40 55 61 24 21 46 47 49 57 3
10 18 23 34 28 15 6 59 42 98 81 69 70 100 88 89 54 -10 -34 -24 -109 -31
-166 -6 -52 -10 -60 -41 -80 -19 -12 -36 -29 -39 -37 -3 -8 -26 -30 -50 -49
-25 -18 -45 -37 -45 -42 0 -5 -27 -36 -60 -70 -46 -46 -60 -68 -60 -90 0 -22
6 -32 26 -39 14 -6 52 -33 84 -62 46 -40 58 -57 58 -79 -1 -33 23 -74 53 -89
28 -15 75 4 83 33 3 12 6 56 6 98 0 41 9 116 19 165 10 49 22 112 26 140 5 41
15 61 49 100 41 46 44 47 50 26 4 -12 15 -22 25 -22 9 0 22 -5 28 -11 9 -9 24
-4 60 16 26 16 63 35 81 44 17 8 32 19 32 23 0 10 80 61 86 55 3 -2 -36 -85
-86 -183 -49 -99 -90 -186 -90 -194 0 -9 -4 -20 -9 -25 -25 -26 -125 -243
-123 -265 3 -29 36 -60 63 -60 10 0 37 18 61 40 24 22 47 40 52 40 4 0 25 13
45 29 59 47 156 92 202 95 40 2 72 -8 141 -45 46 -24 99 4 97 52 -1 13 2 32 6
41 5 13 -1 22 -25 37 -28 17 -77 23 -195 23 -48 0 -111 -16 -169 -42 -37 -17
-70 -29 -73 -26 -8 8 189 414 234 480 18 26 33 53 33 58 0 5 9 21 20 35 12 15
20 41 20 63 0 34 -3 38 -32 44 -20 4 -37 1 -47 -7 -44 -38 -391 -220 -400
-211 -3 2 5 17 17 32 12 15 30 41 39 59 8 17 26 37 39 44 15 8 26 25 30 47 5
24 16 40 35 51 16 9 31 23 34 32 3 9 22 34 43 57 l37 41 77 -2 c77 -1 108 10
108 39 0 15 -79 64 -103 64 -10 0 -17 4 -17 8 0 18 44 99 80 147 55 73 77 123
84 190 13 122 -25 135 -179 60 -125 -61 -148 -82 -149 -137 -1 -41 0 -43 31
-46 25 -3 47 7 98 42 36 25 67 46 70 46 12 0 4 -25 -14 -44 -17 -19 -35 -50
-101 -171 -27 -49 -111 -178 -139 -212 -14 -17 -39 -53 -55 -80 -115 -190
-165 -252 -150 -185 16 70 27 108 34 117 26 35 57 199 39 211 -14 8 -1 84 19
107 20 23 5 56 -36 79 -29 17 -31 17 -63 -5 l-34 -23 -6 -106 c-3 -59 -12
-120 -18 -135 -7 -15 -46 -53 -88 -83 -91 -67 -96 -69 -83 -35 5 14 10 37 10
49 0 13 13 61 29 107 95 275 108 299 199 373 82 65 157 137 171 164 18 35 -12
40 -57 8 -135 -94 -162 -110 -173 -99 -15 15 5 106 30 142 24 36 51 91 51 108
0 18 -46 16 -94 -6z m-86 -1303 c0 -2 -6 -37 -14 -78 -8 -41 -16 -108 -17
-147 -2 -40 -7 -73 -11 -73 -11 0 -48 56 -48 73 0 9 -8 29 -17 45 -17 29 -16
30 17 83 37 58 71 99 83 99 4 0 7 -1 7 -2z"/>
</g>
</svg>
