<?xml version="1.0" standalone="no"?>
<!DOCTYPE svg PUBLIC "-//W3C//DTD SVG 20010904//EN"
 "http://www.w3.org/TR/2001/REC-SVG-20010904/DTD/svg10.dtd">
<svg version="1.0" xmlns="http://www.w3.org/2000/svg"
 width="207.000000pt" height="206.000000pt" viewBox="0 0 207.000000 206.000000"
 preserveAspectRatio="xMidYMid meet">
<metadata>
Created by potrace 1.16, written by Peter Selinger 2001-2019
</metadata>
<g transform="translate(0.000000,206.000000) scale(0.100000,-0.100000)"
fill="#000000" stroke="none">
<path d="M955 2049 c-13 -21 18 -167 51 -245 8 -17 19 -55 25 -84 l11 -52 -53
-46 c-30 -26 -76 -68 -103 -94 -59 -57 -82 -65 -56 -20 5 9 24 56 40 103 17
48 42 97 55 109 25 24 34 73 15 85 -43 27 -99 8 -134 -46 -15 -21 -43 -50 -64
-63 -37 -24 -104 -96 -128 -138 -13 -23 -44 -88 -44 -93 0 -11 40 -44 58 -47
l22 -3 -23 -35 c-14 -19 -27 -49 -31 -66 -4 -18 -16 -40 -28 -50 -11 -11 -42
-47 -68 -82 -55 -72 -56 -95 -4 -112 38 -13 58 -4 69 31 10 31 22 22 29 -21 4
-29 2 -47 -10 -65 -11 -18 -15 -38 -11 -65 6 -49 -9 -180 -23 -194 -31 -31 20
-104 64 -90 12 4 50 33 85 65 92 84 97 82 105 -48 7 -104 7 -107 -16 -125 -13
-9 -27 -18 -31 -18 -5 0 -46 -18 -92 -40 -46 -22 -87 -40 -90 -40 -3 0 -43
-17 -88 -37 -87 -39 -157 -87 -157 -107 0 -7 12 -24 28 -39 23 -22 36 -26 82
-26 61 1 175 -16 215 -31 14 -5 25 -6 25 -1 0 5 -7 11 -15 15 -8 3 -20 17 -25
30 -5 15 -24 32 -46 41 -19 8 -34 20 -32 27 5 13 125 78 144 78 6 0 23 9 37
20 21 17 55 27 58 18 0 -2 7 -55 15 -118 17 -127 18 -198 3 -216 -15 -18 -1
-41 36 -58 45 -22 51 -20 65 14 12 29 11 83 -6 348 -7 107 -5 112 72 151 157
80 222 111 231 111 10 0 23 -37 60 -170 22 -80 50 -156 73 -198 11 -20 27 -53
35 -73 19 -42 62 -93 88 -102 28 -10 64 20 81 66 31 87 40 333 17 471 -16 97
-45 24 -56 -142 -6 -76 -28 -209 -38 -218 -6 -6 -94 207 -105 256 -27 117 -32
140 -32 153 0 7 18 26 40 43 55 40 53 58 -5 50 -51 -8 -46 -16 -64 117 -16
113 -15 115 24 134 19 9 35 21 35 25 0 5 20 18 45 29 50 22 71 49 53 67 -17
17 -46 15 -108 -8 -30 -11 -60 -20 -66 -20 -5 0 -19 44 -29 98 -10 53 -26 126
-37 162 -10 36 -26 106 -34 155 -14 83 -14 91 2 100 9 6 36 25 59 43 24 17 55
32 68 32 14 0 30 7 38 16 20 24 -1 48 -51 56 -24 4 -53 17 -66 29 -12 12 -27
18 -33 14 -14 -8 -14 -48 0 -62 15 -15 6 -27 -35 -51 l-35 -21 -15 52 c-8 29
-18 66 -21 82 -4 17 -11 39 -16 51 -6 11 -9 40 -7 65 3 40 6 45 36 54 17 5 32
13 32 17 0 12 -188 10 -195 -3z m142 -571 c38 -114 73 -276 74 -349 2 -82 -16
-173 -55 -286 -20 -56 -36 -113 -36 -126 0 -18 -8 -27 -27 -34 -57 -20 -128
-43 -135 -43 -10 0 -9 163 1 216 4 22 15 49 25 60 9 10 30 34 46 52 37 40 32
65 -11 50 -17 -6 -32 -8 -35 -5 -3 2 17 25 43 51 43 43 45 48 31 62 -15 15
-19 15 -49 0 -17 -9 -41 -16 -51 -16 -57 0 -118 -77 -118 -148 0 -33 -5 -44
-32 -64 -39 -30 -78 -51 -83 -46 -8 8 38 143 60 177 12 20 85 99 160 176 76
77 146 154 156 170 19 30 25 66 13 78 -8 8 -57 -25 -100 -68 -106 -102 -145
-137 -196 -174 -31 -22 -59 -45 -63 -51 -3 -5 -11 -10 -16 -10 -19 0 2 84 30
117 14 18 36 45 47 60 12 15 39 37 60 48 21 11 78 59 128 108 49 48 92 87 95
87 4 0 21 -42 38 -92z m122 -700 c1 -11 -13 -23 -36 -33 -42 -18 -53 -13 -30
13 10 10 17 24 17 30 0 6 8 18 17 28 16 15 17 15 24 -2 4 -11 8 -27 8 -36z"/>
</g>
</svg>
