<?xml version="1.0" standalone="no"?>
<!DOCTYPE svg PUBLIC "-//W3C//DTD SVG 20010904//EN"
 "http://www.w3.org/TR/2001/REC-SVG-20010904/DTD/svg10.dtd">
<svg version="1.0" xmlns="http://www.w3.org/2000/svg"
 width="206.000000pt" height="207.000000pt" viewBox="0 0 206.000000 207.000000"
 preserveAspectRatio="xMidYMid meet">
<metadata>
Created by potrace 1.16, written by Peter Selinger 2001-2019
</metadata>
<g transform="translate(0.000000,207.000000) scale(0.100000,-0.100000)"
fill="#000000" stroke="none">
<path d="M981 1953 l-34 -14 6 -107 c3 -59 12 -138 21 -177 8 -38 18 -91 21
-116 l7 -45 -87 -75 c-48 -41 -103 -89 -122 -108 -42 -40 -62 -32 -44 20 6 17
11 50 11 73 0 51 17 113 33 123 19 11 47 55 47 71 0 11 -8 13 -29 9 -26 -5
-28 -4 -23 16 3 12 12 27 20 33 22 16 11 46 -25 67 -64 37 -97 -3 -109 -131
l-7 -70 -99 -93 c-113 -105 -125 -125 -100 -169 26 -45 75 -42 130 8 23 22 42
46 42 54 0 9 7 22 17 29 15 13 16 8 11 -54 -5 -59 -10 -73 -37 -101 -17 -17
-47 -58 -67 -91 -31 -52 -35 -66 -29 -101 5 -36 3 -44 -17 -60 -54 -43 -71
-92 -44 -123 11 -13 12 -27 3 -73 -12 -69 -2 -88 51 -88 38 0 160 57 199 93
26 23 25 25 42 -81 14 -89 14 -122 1 -122 -11 0 -228 -144 -284 -189 -21 -17
-43 -31 -49 -31 -6 0 -24 -11 -41 -24 -17 -13 -50 -33 -72 -44 -37 -19 -104
-92 -104 -114 0 -5 11 -20 25 -33 19 -20 34 -25 72 -25 27 0 73 -6 103 -14
178 -44 413 -57 446 -24 25 25 37 143 31 307 l-6 154 33 33 c19 19 41 34 50
34 9 0 38 16 65 35 27 20 51 32 54 28 3 -4 12 -42 22 -83 9 -41 23 -96 31
-122 8 -26 14 -54 14 -63 0 -8 4 -23 10 -33 5 -9 28 -60 51 -112 23 -52 54
-113 68 -134 14 -21 31 -46 36 -55 25 -39 33 -41 143 -41 129 0 122 -8 122
138 0 62 -7 116 -20 164 -11 40 -20 89 -20 108 0 20 -5 41 -11 47 -17 17 -41
200 -48 363 l-6 145 -42 3 c-37 3 -45 -1 -87 -44 -25 -25 -67 -84 -93 -130
-48 -84 -69 -105 -57 -59 3 14 2 25 -4 25 -10 0 -26 97 -37 225 -4 39 -13 120
-21 180 -10 76 -13 143 -8 215 l7 105 68 58 c37 31 71 57 76 57 16 0 51 44 58
72 6 23 2 29 -27 44 -20 11 -50 17 -78 15 -25 -1 -65 -3 -90 -4 l-45 -2 4 91
c3 84 1 92 -20 116 -30 33 -65 40 -108 21z m75 -292 c-13 -20 -26 -11 -26 16
0 25 1 26 16 11 9 -9 13 -21 10 -27z m169 9 c11 -18 -61 -80 -95 -80 -14 0
-13 47 3 57 12 8 66 30 79 32 4 0 9 -3 13 -9z m-198 -418 c45 -381 56 -523 42
-537 -8 -7 -50 -31 -94 -53 -65 -33 -81 -38 -88 -26 -4 8 -6 62 -4 121 4 99 6
108 28 123 50 33 69 60 63 88 -12 51 -22 54 -109 26 -43 -14 -85 -29 -91 -35
-6 -5 -14 -26 -17 -47 -6 -34 -13 -40 -68 -69 -34 -18 -65 -30 -70 -27 -19 11
34 97 86 139 20 17 55 47 78 68 23 20 44 37 48 37 4 0 10 8 13 18 3 9 26 28
51 42 25 14 45 28 45 33 0 4 14 13 30 18 22 8 30 17 30 35 0 53 -59 38 -194
-50 -111 -73 -116 -74 -76 -30 19 21 39 42 44 45 14 11 125 109 176 156 30 28
48 38 55 32 6 -5 15 -54 22 -107z m394 -439 c0 -5 4 -57 9 -118 12 -140 25
-226 38 -251 5 -10 15 -74 21 -141 23 -257 10 -315 -51 -229 -17 25 -36 46
-40 46 -18 0 -121 250 -158 382 -20 71 -20 79 -6 107 9 17 25 35 35 41 11 5
29 27 42 47 48 81 107 143 110 116z m-626 -482 c7 -120 1 -196 -17 -218 -22
-28 -219 -1 -340 46 -43 16 -37 27 44 76 9 6 60 44 113 85 53 41 113 87 132
103 20 15 42 27 48 27 9 0 15 -35 20 -119z"/>
</g>
</svg>
