<?xml version="1.0" standalone="no"?>
<!DOCTYPE svg PUBLIC "-//W3C//DTD SVG 20010904//EN"
 "http://www.w3.org/TR/2001/REC-SVG-20010904/DTD/svg10.dtd">
<svg version="1.0" xmlns="http://www.w3.org/2000/svg"
 width="210.000000pt" height="207.000000pt" viewBox="0 0 210.000000 207.000000"
 preserveAspectRatio="xMidYMid meet">
<metadata>
Created by potrace 1.16, written by Peter Selinger 2001-2019
</metadata>
<g transform="translate(0.000000,207.000000) scale(0.100000,-0.100000)"
fill="#000000" stroke="none">
<path d="M975 1920 c-31 -12 -48 -36 -38 -54 12 -23 -3 -182 -23 -236 -34 -91
-63 -146 -108 -204 -25 -32 -46 -61 -46 -65 0 -4 7 -17 16 -29 24 -35 67 -29
106 14 18 20 53 50 78 67 25 17 49 37 53 44 5 7 12 11 18 8 5 -4 9 -2 9 4 0 6
14 17 30 26 27 14 30 14 30 -1 0 -9 -13 -28 -28 -42 -45 -43 -202 -287 -241
-377 -41 -91 -66 -126 -126 -170 -22 -17 -64 -49 -93 -72 -29 -24 -58 -43 -64
-43 -12 0 -4 189 12 275 5 28 12 72 15 98 5 37 12 50 30 59 30 14 59 78 50
109 -14 42 -47 69 -87 69 -20 0 -39 -4 -43 -10 -3 -5 -11 -7 -18 -4 -20 7 -47
-61 -47 -120 0 -49 -3 -55 -37 -83 -71 -56 -145 -104 -151 -98 -3 3 4 36 15
73 12 37 27 91 34 121 7 32 23 66 40 85 26 31 142 116 156 116 4 0 16 9 27 19
22 20 79 62 181 131 61 42 75 56 75 78 0 18 -27 15 -77 -8 -24 -11 -64 -30
-89 -42 -26 -11 -61 -34 -78 -49 -18 -15 -51 -35 -74 -44 -23 -10 -42 -21 -42
-26 0 -5 -6 -9 -12 -9 -7 0 -24 -9 -38 -20 -25 -20 -50 -26 -50 -12 0 7 41 35
97 65 46 24 46 57 0 57 -18 0 -37 -4 -43 -8 -5 -5 -38 -17 -74 -26 -36 -10
-71 -20 -77 -22 -9 -2 -13 -26 -13 -73 0 -67 -1 -70 -36 -101 -21 -18 -55 -40
-78 -50 -23 -9 -58 -33 -78 -53 -37 -34 -38 -38 -38 -105 0 -75 4 -85 29 -72
9 5 24 11 33 14 9 2 24 20 33 38 18 37 97 106 103 89 8 -24 -43 -173 -89 -259
-27 -51 -49 -99 -49 -106 0 -20 59 -68 73 -59 7 4 30 24 52 45 113 106 137
128 145 128 4 0 25 16 46 35 21 19 46 35 56 35 18 0 19 -7 13 -112 -7 -126
-23 -236 -39 -256 -5 -8 -38 -26 -73 -42 -35 -16 -84 -43 -109 -60 -25 -16
-47 -30 -50 -30 -16 0 -115 -52 -142 -75 -37 -31 -40 -47 -11 -76 16 -16 29
-20 51 -15 39 8 148 56 148 66 0 10 162 101 168 95 3 -3 -3 -46 -12 -97 -18
-98 -19 -259 -1 -265 23 -7 35 17 51 97 9 47 20 89 25 95 5 5 9 26 9 47 0 22
8 55 19 76 10 20 22 57 26 81 5 33 18 54 49 85 l41 41 3 -33 c3 -25 10 -35 30
-43 28 -11 72 2 72 21 0 5 13 16 30 25 35 18 40 18 40 4 0 -19 54 -69 97 -90
70 -34 70 -36 -2 -142 -36 -53 -72 -100 -79 -104 -25 -15 -39 -53 -25 -69 6
-8 17 -14 25 -14 21 0 101 53 116 77 7 12 39 51 71 86 l58 65 38 -21 c37 -22
71 -46 135 -99 19 -16 38 -28 42 -28 5 0 14 -10 19 -21 6 -12 31 -33 57 -48
25 -14 77 -54 114 -89 37 -34 71 -62 76 -62 4 0 19 -13 33 -29 27 -30 70 -46
150 -56 87 -11 174 35 175 93 0 28 -35 30 -70 2 -32 -25 -47 -25 -113 0 -34
13 -85 48 -142 97 -50 42 -92 79 -95 83 -3 3 -27 22 -55 40 -44 30 -65 48
-134 111 -10 9 -38 30 -62 46 -24 17 -54 42 -67 56 l-23 25 35 68 c20 38 42
78 48 89 7 11 26 43 43 70 17 28 46 82 65 120 19 39 45 83 57 99 13 15 30 43
37 61 8 18 26 46 40 62 32 36 100 143 127 201 12 24 21 67 22 100 2 52 0 57
-21 60 -23 4 -96 -34 -145 -74 -15 -13 -42 -27 -60 -32 -36 -10 -106 -72 -284
-251 -68 -68 -126 -122 -129 -118 -4 3 4 19 17 35 21 27 58 86 98 161 8 14 30
45 50 68 65 74 153 199 202 283 36 63 44 126 18 143 -21 13 -70 -6 -113 -44
-17 -15 -53 -39 -81 -54 -27 -15 -54 -33 -60 -39 -37 -43 -115 -74 -96 -38 36
70 53 126 72 236 l12 70 -29 23 c-32 25 -31 25 -59 13z m371 -675 c-20 -30
-36 -59 -36 -64 0 -5 -3 -11 -7 -13 -12 -5 -77 -116 -110 -189 -17 -36 -46
-88 -64 -116 -19 -28 -53 -85 -77 -127 -23 -42 -47 -76 -52 -76 -5 0 -28 20
-51 45 -47 50 -97 72 -128 56 -11 -6 -22 -11 -26 -11 -11 0 52 84 89 119 20
19 36 39 36 44 0 5 42 55 93 112 50 56 99 110 108 121 18 21 104 101 134 123
26 20 119 50 123 40 2 -4 -13 -33 -32 -64z"/>
</g>
</svg>
