<?xml version="1.0" standalone="no"?>
<!DOCTYPE svg PUBLIC "-//W3C//DTD SVG 20010904//EN"
 "http://www.w3.org/TR/2001/REC-SVG-20010904/DTD/svg10.dtd">
<svg version="1.0" xmlns="http://www.w3.org/2000/svg"
 width="206.000000pt" height="206.000000pt" viewBox="0 0 206.000000 206.000000"
 preserveAspectRatio="xMidYMid meet">
<metadata>
Created by potrace 1.16, written by Peter Selinger 2001-2019
</metadata>
<g transform="translate(0.000000,206.000000) scale(0.100000,-0.100000)"
fill="#000000" stroke="none">
<path d="M1272 1977 c-12 -13 -22 -30 -22 -38 0 -8 -12 -46 -26 -84 -14 -39
-30 -87 -35 -107 -5 -20 -17 -53 -26 -73 -13 -28 -14 -38 -5 -47 10 -10 19 -5
43 22 17 19 37 49 46 65 9 17 28 44 43 61 15 18 35 51 44 75 11 27 30 52 49
64 44 29 44 41 -2 64 -52 27 -82 26 -109 -2z"/>
<path d="M950 1766 c-19 -14 -48 -34 -63 -43 -16 -10 -79 -51 -140 -90 -62
-40 -116 -73 -121 -73 -10 0 -4 35 19 115 11 36 23 56 36 60 25 8 24 21 -2 36
-24 12 -101 -4 -118 -25 -7 -10 -17 -57 -40 -210 -8 -51 -29 -75 -86 -97 -125
-48 -148 -60 -162 -89 -9 -19 -9 -29 3 -52 23 -44 46 -51 104 -32 28 9 53 15
55 12 7 -7 -34 -187 -50 -217 -20 -39 -55 -147 -55 -170 0 -25 46 -62 68 -54
27 10 134 89 166 122 17 17 33 31 38 31 10 0 9 -104 -1 -140 -4 -14 -21 -34
-39 -45 -17 -11 -32 -24 -32 -30 -1 -5 -30 -32 -66 -60 -35 -27 -79 -62 -97
-77 -17 -15 -36 -28 -40 -28 -4 0 -35 -22 -68 -50 -33 -27 -65 -50 -72 -50
-16 0 -87 -79 -87 -97 0 -32 32 -63 65 -63 27 0 46 12 104 68 62 59 207 182
237 200 6 4 14 17 18 30 4 12 13 22 21 22 13 0 13 0 -15 -107 -5 -21 -10 -64
-10 -95 0 -50 -26 -142 -74 -258 -10 -24 10 -47 31 -34 19 12 22 16 56 99 45
105 50 119 68 180 19 68 60 188 65 194 2 2 13 -8 25 -22 14 -19 30 -27 52 -27
40 1 50 8 125 98 34 41 76 86 95 100 56 45 98 83 180 165 43 42 83 77 87 77 5
0 22 16 37 35 15 19 35 35 44 35 9 0 27 8 40 19 13 10 34 21 46 25 20 6 21 5
14 -21 -17 -55 -33 -88 -52 -109 -11 -12 -35 -52 -53 -90 -47 -98 -220 -324
-248 -324 -6 0 -33 21 -60 46 -35 33 -54 44 -66 39 -9 -4 -27 -10 -39 -12 -47
-11 -35 -60 31 -121 l47 -44 -94 -89 c-94 -89 -148 -132 -199 -158 -36 -18
-27 -31 21 -31 69 0 126 34 268 161 81 73 88 74 153 34 55 -34 376 -190 465
-226 83 -34 118 -54 173 -101 29 -25 36 -27 55 -16 12 7 56 13 97 14 160 2
150 0 150 38 0 31 -2 34 -32 33 -58 0 -170 23 -185 38 -8 8 -26 18 -41 21 -15
3 -58 21 -97 40 -38 18 -101 46 -140 60 -38 15 -79 34 -90 43 -11 9 -31 22
-45 28 -97 43 -220 107 -245 127 l-30 24 55 59 c85 91 154 193 224 331 86 168
110 235 111 301 0 76 -13 81 -105 38 -41 -19 -81 -41 -89 -51 -7 -9 -19 -16
-26 -16 -6 0 -22 -9 -35 -20 -23 -20 -40 -26 -40 -13 0 4 17 27 38 52 21 25
45 57 52 71 7 13 20 31 28 40 29 28 85 162 90 212 5 55 -4 68 -47 68 -49 0
-200 -72 -231 -110 -3 -4 -25 -14 -50 -24 -68 -26 -160 -81 -208 -125 -51 -44
-55 -79 -11 -95 40 -14 69 -1 127 54 30 27 66 53 80 56 15 4 63 30 107 59 44
29 91 56 104 60 l23 7 -28 -49 c-15 -26 -41 -64 -58 -84 -17 -20 -41 -49 -53
-65 -80 -107 -205 -257 -234 -281 -19 -15 -35 -31 -37 -35 -15 -33 -252 -322
-258 -315 -13 12 16 92 46 127 46 54 136 145 178 177 48 38 41 85 -10 63 -12
-6 -54 -32 -93 -59 -38 -27 -72 -48 -76 -46 -3 3 -2 26 2 52 5 26 12 72 15
101 5 41 13 57 31 69 31 21 54 65 43 83 -7 12 -14 12 -44 -3 l-36 -17 0 33 c0
47 18 104 35 111 20 7 19 35 0 43 -29 10 -136 -18 -144 -39 -4 -10 -8 -71 -10
-135 l-3 -116 -51 -48 c-57 -53 -84 -63 -72 -26 23 77 45 165 45 185 0 34 55
149 91 190 18 21 54 49 81 64 26 15 64 43 83 63 20 19 39 35 44 35 7 0 82 56
154 115 20 17 22 44 4 69 -12 16 -15 15 -47 -8z"/>
</g>
</svg>
