<?xml version="1.0" standalone="no"?>
<!DOCTYPE svg PUBLIC "-//W3C//DTD SVG 20010904//EN"
 "http://www.w3.org/TR/2001/REC-SVG-20010904/DTD/svg10.dtd">
<svg version="1.0" xmlns="http://www.w3.org/2000/svg"
 width="208.000000pt" height="207.000000pt" viewBox="0 0 208.000000 207.000000"
 preserveAspectRatio="xMidYMid meet">
<metadata>
Created by potrace 1.16, written by Peter Selinger 2001-2019
</metadata>
<g transform="translate(0.000000,207.000000) scale(0.100000,-0.100000)"
fill="#000000" stroke="none">
<path d="M1259 1941 l-24 -19 -1 -257 -1 -257 -39 -35 c-21 -18 -50 -41 -64
-51 -28 -19 -75 -59 -133 -113 -21 -20 -53 -40 -70 -43 -67 -14 -98 -75 -57
-116 24 -24 17 -24 110 -4 88 18 117 34 126 72 4 15 22 47 41 71 18 24 33 49
33 56 0 14 29 29 38 20 3 -3 1 -58 -4 -123 -10 -113 -11 -119 -47 -167 -44
-59 -97 -158 -97 -180 0 -29 35 -14 70 30 44 56 60 57 60 6 0 -57 -8 -71 -42
-71 -16 0 -38 -5 -49 -11 -11 -5 -48 -11 -82 -13 -34 -1 -72 -8 -84 -14 -19
-10 -24 -9 -32 6 -14 27 -1 133 20 160 36 46 2 68 -77 52 -74 -15 -80 -26 -64
-108 29 -158 29 -175 6 -199 -11 -11 -36 -24 -53 -28 l-33 -7 0 104 c0 57 -5
163 -10 236 -10 125 -9 135 10 172 20 40 20 60 -2 60 -6 0 -17 -8 -24 -17 -12
-16 -13 -16 -14 9 0 30 21 55 57 69 19 7 24 15 21 34 -3 22 10 35 92 95 153
111 201 152 211 178 18 46 -12 56 -58 19 -15 -13 -68 -45 -118 -71 -49 -27
-92 -52 -95 -56 -6 -9 -126 -70 -138 -70 -12 0 -7 126 7 175 14 52 37 85 60
85 20 0 31 17 24 38 -7 20 -57 14 -110 -13 l-50 -24 -16 -94 c-9 -51 -17 -129
-17 -173 l0 -80 -47 -24 c-27 -13 -73 -40 -103 -60 -30 -21 -65 -40 -77 -44
-31 -10 -69 -65 -76 -112 -6 -39 -5 -41 27 -52 40 -15 60 -9 74 23 6 13 26 32
44 41 18 9 50 32 71 50 41 37 61 43 54 17 -3 -10 -13 -52 -22 -93 -22 -92 -49
-148 -115 -234 -27 -36 -50 -70 -50 -76 0 -17 47 -60 65 -60 29 0 110 96 154
180 23 44 46 80 51 80 17 0 23 -72 18 -226 -5 -150 -6 -155 -29 -172 -30 -21
-91 -52 -102 -52 -4 0 -34 -12 -65 -26 -31 -14 -68 -30 -82 -36 -105 -45 -145
-79 -135 -116 12 -48 66 -147 98 -180 85 -86 213 -89 299 -5 21 20 38 41 38
47 0 5 9 28 19 50 11 23 27 86 35 141 9 55 19 108 22 117 5 18 84 68 108 68
28 0 31 -67 6 -124 -12 -28 -25 -65 -27 -82 -4 -28 -2 -32 22 -36 53 -11 115
96 115 198 0 21 5 53 12 71 10 28 16 33 35 28 13 -3 32 0 43 7 16 10 28 10 62
-2 57 -20 61 -46 15 -97 -18 -21 -36 -45 -40 -54 -9 -26 20 -58 59 -65 l36 -7
-6 -105 c-4 -58 -8 -108 -11 -110 -9 -9 -27 12 -50 58 -27 54 -42 67 -57 52
-12 -12 32 -137 62 -175 10 -13 22 -36 25 -50 7 -25 12 -27 55 -27 55 0 61 9
64 95 3 58 15 195 22 243 3 18 11 32 19 32 7 0 21 7 30 17 15 15 19 15 43 1
52 -31 128 -55 149 -47 31 11 46 61 40 129 l-5 58 57 53 c41 38 52 53 40 56
-9 2 -34 -7 -54 -21 -21 -15 -41 -26 -45 -26 -4 0 -10 15 -13 33 -3 17 -15 82
-26 144 -16 89 -20 147 -19 287 2 121 -2 180 -9 187 -17 17 -68 -6 -94 -42
-11 -16 -27 -29 -36 -29 -13 0 -15 9 -9 54 3 30 12 67 20 83 8 15 19 47 25 70
6 22 21 50 34 61 12 11 45 41 73 66 28 25 56 46 62 46 15 0 25 -54 24 -137 -1
-40 3 -75 9 -79 6 -3 23 -1 38 6 40 16 49 59 53 241 2 134 0 160 -15 182 -36
56 -104 22 -111 -56 -3 -27 -10 -55 -16 -62 -21 -25 -171 -136 -178 -131 -13
8 -5 199 10 266 l15 65 66 -2 c57 -1 67 2 72 18 8 24 -3 42 -20 35 -8 -3 -31
6 -51 20 -28 19 -107 42 -150 44 -1 0 -12 -9 -25 -19z m104 -1013 c4 -51 18
-149 32 -218 32 -163 32 -161 -14 -182 -47 -22 -47 -22 -73 1 -16 15 -19 26
-14 48 17 66 21 120 13 153 -5 19 -7 84 -4 143 4 88 8 112 23 127 11 10 22 19
25 19 3 1 9 -41 12 -91z m-175 -282 c6 -27 -11 -38 -33 -22 -11 8 -16 19 -12
30 9 22 41 17 45 -8z m252 -200 c0 -18 -17 -29 -30 -21 -8 5 -7 11 1 21 15 18
29 18 29 0z m-844 -115 c-6 -71 -31 -139 -66 -184 -25 -32 -86 -52 -132 -43
-57 10 -129 93 -114 132 10 27 199 125 315 163 2 0 1 -30 -3 -68z"/>
</g>
</svg>
