<?xml version="1.0" standalone="no"?>
<!DOCTYPE svg PUBLIC "-//W3C//DTD SVG 20010904//EN"
 "http://www.w3.org/TR/2001/REC-SVG-20010904/DTD/svg10.dtd">
<svg version="1.0" xmlns="http://www.w3.org/2000/svg"
 width="209.000000pt" height="207.000000pt" viewBox="0 0 209.000000 207.000000"
 preserveAspectRatio="xMidYMid meet">
<metadata>
Created by potrace 1.16, written by Peter Selinger 2001-2019
</metadata>
<g transform="translate(0.000000,207.000000) scale(0.100000,-0.100000)"
fill="#000000" stroke="none">
<path d="M1113 2033 c-29 -15 -33 -21 -33 -57 1 -23 5 -72 10 -111 5 -38 13
-118 16 -177 7 -115 1 -138 -38 -138 -34 0 -126 -30 -149 -49 -30 -24 -19 -65
22 -87 29 -15 33 -14 85 11 29 14 58 24 64 20 6 -4 10 -52 10 -114 0 -92 -3
-110 -18 -124 -10 -10 -23 -17 -29 -17 -6 0 -16 -6 -22 -14 -6 -7 -22 -11 -35
-9 -18 4 -41 -9 -92 -51 -59 -49 -73 -56 -111 -56 -37 0 -44 -4 -58 -30 -8
-16 -15 -36 -15 -45 0 -8 -11 -21 -25 -27 -14 -6 -25 -15 -25 -20 0 -5 -4 -7
-9 -4 -4 3 5 62 20 131 24 104 26 129 16 146 -10 16 -8 26 10 58 l22 39 -26
18 c-15 9 -43 18 -62 18 -44 1 -56 -20 -69 -129 -10 -75 -13 -82 -49 -113 -21
-18 -46 -40 -55 -49 -26 -24 -33 -9 -19 45 6 26 16 64 22 85 5 21 16 48 23 60
7 12 16 38 20 57 5 27 27 54 99 123 50 49 104 96 120 105 19 11 27 24 27 44 0
15 -4 29 -8 32 -9 5 -99 -37 -167 -79 -52 -32 -59 -31 -52 8 9 58 35 107 67
125 56 32 50 88 -6 59 -16 -8 -49 -17 -74 -20 -26 -3 -50 -13 -57 -24 -23 -31
-37 -96 -38 -175 0 -71 -3 -80 -29 -107 -15 -16 -40 -32 -55 -36 -35 -9 -71
-44 -71 -70 0 -34 33 -65 69 -65 31 0 32 -1 26 -33 -32 -154 -62 -238 -120
-332 -33 -54 -33 -98 0 -113 14 -7 31 -12 38 -12 7 0 41 33 75 74 34 40 88 99
119 130 55 54 58 56 64 34 6 -22 2 -99 -6 -144 -4 -17 -93 -97 -144 -129 -9
-5 -32 -21 -51 -36 -19 -14 -48 -31 -65 -39 -32 -16 -105 -68 -117 -85 -4 -5
-8 -22 -8 -36 0 -20 7 -30 29 -38 35 -15 76 0 148 54 26 20 77 58 113 85 55
41 66 46 74 33 16 -29 -19 -316 -44 -363 -15 -29 -12 -50 8 -50 24 0 56 31 73
69 16 36 25 39 32 11 7 -28 55 -45 89 -32 43 16 113 62 191 126 82 67 185 136
203 136 2 0 4 -27 4 -60 0 -68 -2 -69 -71 -45 -52 19 -69 8 -48 -31 17 -32
129 -87 168 -82 37 4 60 57 61 136 0 78 12 78 54 0 54 -97 110 -176 133 -187
22 -10 52 -6 54 8 0 3 3 15 6 26 10 41 2 144 -17 211 -15 52 -24 139 -37 346
-19 319 -21 309 65 479 39 79 47 104 44 137 -5 47 -27 61 -64 41 -13 -7 -59
-48 -102 -92 -74 -74 -80 -78 -93 -61 -15 20 -10 63 16 134 12 34 28 53 62 75
25 17 60 45 78 63 57 56 68 58 87 15 30 -70 52 -177 48 -233 -2 -30 0 -61 5
-69 13 -21 47 -4 70 35 17 28 20 48 18 102 -4 63 -69 369 -86 402 -23 44 -91
5 -91 -53 0 -29 -10 -43 -74 -100 -119 -107 -145 -110 -146 -17 0 25 -4 72 -9
105 -5 33 -6 80 -2 105 5 41 9 46 41 56 49 16 44 35 -15 49 -27 7 -57 15 -65
18 -8 3 -30 -2 -47 -10z m144 -901 c-6 -77 4 -272 18 -357 6 -41 -6 -56 -46
-58 l-34 -2 2 85 c8 275 15 358 34 389 10 17 22 31 25 31 4 0 4 -40 1 -88z
m-167 -92 c0 -27 -7 -33 -96 -77 -54 -27 -102 -56 -108 -66 -16 -26 4 -50 52
-62 23 -5 48 -17 56 -25 18 -19 86 -145 86 -159 0 -9 -50 -41 -64 -41 -3 0 2
16 10 36 29 69 -7 82 -44 17 -17 -32 -103 -103 -123 -103 -16 0 -7 416 9 432
9 9 21 8 48 -6 l37 -17 30 37 c26 31 74 62 100 64 4 0 7 -13 7 -30z m-8 -162
c2 -7 1 -29 -3 -48 -3 -19 -7 -30 -8 -24 0 5 -11 21 -23 34 -21 22 -21 23 -3
36 23 17 32 18 37 2z m-342 -55 c1 -42 7 -147 15 -269 l6 -82 -38 -29 c-59
-45 -123 -86 -127 -82 -2 2 1 31 5 64 5 33 11 112 14 175 7 146 7 148 55 209
49 62 70 66 70 14z m546 -231 c5 -60 -11 -70 -39 -23 -22 37 -21 50 1 67 27
21 34 13 38 -44z"/>
</g>
</svg>
