<?xml version="1.0" standalone="no"?>
<!DOCTYPE svg PUBLIC "-//W3C//DTD SVG 20010904//EN"
 "http://www.w3.org/TR/2001/REC-SVG-20010904/DTD/svg10.dtd">
<svg version="1.0" xmlns="http://www.w3.org/2000/svg"
 width="204.000000pt" height="204.000000pt" viewBox="0 0 204.000000 204.000000"
 preserveAspectRatio="xMidYMid meet">
<metadata>
Created by potrace 1.16, written by Peter Selinger 2001-2019
</metadata>
<g transform="translate(0.000000,204.000000) scale(0.100000,-0.100000)"
fill="#000000" stroke="none">
<path d="M1258 1963 c-8 -10 -23 -40 -33 -68 -9 -27 -30 -77 -45 -110 -16 -33
-43 -94 -60 -135 -18 -41 -41 -93 -50 -115 -10 -22 -33 -76 -51 -120 -18 -44
-45 -98 -59 -120 -15 -22 -29 -47 -32 -55 -12 -33 -220 -340 -274 -405 l-25
-30 6 251 c6 201 5 255 -6 272 -11 17 -11 24 -1 34 6 6 12 22 12 34 0 19 -7
24 -45 30 -34 5 -51 2 -70 -10 -29 -19 -29 -23 -14 -115 l11 -67 -60 -62 c-34
-34 -63 -62 -66 -62 -11 0 -6 58 8 92 8 19 18 59 21 89 9 73 34 187 50 224 7
17 19 49 26 73 9 31 22 48 48 64 50 29 89 67 106 102 8 16 15 31 15 34 0 12
-67 -11 -106 -38 -25 -16 -47 -30 -49 -30 -2 0 -1 17 2 38 7 45 28 82 48 82
21 0 28 19 15 35 -8 10 -31 15 -67 15 -83 0 -98 -20 -107 -147 l-7 -100 -67
-43 c-125 -81 -145 -95 -191 -135 -25 -23 -58 -48 -72 -57 -14 -9 -32 -31 -39
-49 -13 -30 -12 -33 14 -55 17 -15 40 -24 60 -24 28 0 38 7 59 39 15 22 42 52
62 68 19 15 35 33 35 39 0 6 19 23 41 37 l41 27 -7 -87 c-7 -96 -21 -164 -42
-203 -7 -14 -13 -34 -13 -45 0 -28 -54 -184 -76 -222 -33 -56 -113 -187 -131
-215 -17 -26 -17 -30 -1 -55 24 -40 69 -43 97 -6 66 85 83 110 108 162 28 58
106 158 195 249 28 28 53 52 54 52 9 0 3 -270 -8 -356 -11 -91 -13 -96 -42
-111 -17 -9 -37 -24 -44 -34 -7 -11 -21 -19 -30 -19 -9 0 -40 -25 -69 -56 -45
-47 -53 -62 -53 -94 0 -29 6 -43 26 -59 41 -32 81 -88 100 -139 29 -76 61
-112 99 -112 48 0 48 -2 86 345 6 55 19 116 29 135 18 34 69 80 90 80 5 0 10
4 10 9 0 14 80 52 92 45 7 -5 8 -42 4 -113 -7 -105 -12 -131 -56 -299 -20 -77
-21 -85 -6 -101 18 -19 58 -18 74 3 27 33 82 250 103 406 16 120 26 160 41
173 8 6 21 27 28 45 7 18 43 60 79 93 l66 59 3 -56 c3 -53 -3 -74 -40 -150
-33 -70 14 -288 77 -351 37 -37 47 -40 66 -17 16 19 18 149 5 306 -5 58 -5
119 -1 135 l7 28 15 -30 c35 -68 74 -83 114 -46 27 25 69 116 69 149 0 34 28
161 41 185 7 13 6 23 -2 33 -18 21 -26 17 -33 -17 -12 -61 -92 -229 -109 -229
-7 0 -27 24 -44 53 -24 40 -33 70 -38 125 -4 40 -12 75 -17 78 -24 15 -102
-21 -161 -75 -34 -31 -97 -82 -140 -114 -42 -33 -81 -66 -86 -75 -5 -9 -12
-14 -16 -11 -9 9 44 101 71 122 12 9 33 34 45 55 50 82 72 102 110 102 32 0
44 8 98 68 112 121 199 206 255 251 32 25 56 52 56 62 0 22 -8 23 -46 9 -15
-6 -29 -9 -31 -6 -3 2 8 41 23 86 l28 81 -21 20 c-27 27 -67 17 -92 -25 -21
-35 -44 -164 -35 -200 5 -20 -5 -32 -73 -82 -43 -32 -84 -62 -91 -68 -23 -17
-3 41 59 170 33 66 59 125 59 131 0 7 11 24 24 40 13 15 29 45 37 66 7 21 26
53 42 70 15 17 26 38 25 46 -8 38 -112 56 -140 24z m-778 -1471 c0 -67 -14
-182 -21 -182 -5 0 -15 15 -23 34 -8 18 -19 37 -25 40 -26 17 -7 86 33 118 29
24 36 22 36 -10z"/>
<path d="M1550 1440 c-11 -11 -22 -32 -26 -47 -3 -16 -10 -44 -15 -63 -5 -19
-9 -46 -9 -59 0 -19 3 -21 14 -12 16 13 19 -1 33 -134 12 -108 8 -461 -6 -545
-7 -41 -14 -118 -17 -170 -2 -52 -7 -137 -10 -188 -6 -90 -7 -92 -32 -98 -15
-3 -53 -12 -84 -20 -31 -8 -107 -15 -169 -15 -105 -1 -263 -19 -275 -32 -15
-14 12 -26 74 -32 37 -4 81 -9 97 -12 17 -2 127 -6 246 -9 180 -4 218 -2 228
10 8 9 17 110 26 285 7 149 16 274 18 278 3 5 8 60 12 123 4 63 9 118 11 121
2 3 -1 75 -7 160 -5 85 -14 218 -19 297 -7 114 -12 148 -26 163 -22 24 -39 24
-64 -1z"/>
</g>
</svg>
