<?xml version="1.0" standalone="no"?>
<!DOCTYPE svg PUBLIC "-//W3C//DTD SVG 20010904//EN"
 "http://www.w3.org/TR/2001/REC-SVG-20010904/DTD/svg10.dtd">
<svg version="1.0" xmlns="http://www.w3.org/2000/svg"
 width="209.000000pt" height="206.000000pt" viewBox="0 0 209.000000 206.000000"
 preserveAspectRatio="xMidYMid meet">
<metadata>
Created by potrace 1.16, written by Peter Selinger 2001-2019
</metadata>
<g transform="translate(0.000000,206.000000) scale(0.100000,-0.100000)"
fill="#000000" stroke="none">
<path d="M1022 1758 c-5 -7 -13 -71 -16 -143 -4 -71 -16 -185 -28 -253 l-22
-123 -57 -34 c-31 -20 -79 -45 -106 -56 -102 -44 -119 -53 -151 -81 -53 -46
-66 -23 -31 56 14 32 20 65 19 104 -1 31 5 102 14 156 9 55 16 105 16 113 0 8
12 26 26 40 40 39 23 58 -52 58 l-59 0 -3 -39 c-2 -24 5 -58 19 -89 18 -44 20
-62 15 -125 -4 -40 -16 -95 -28 -120 -34 -77 -45 -104 -63 -154 -9 -27 -20
-48 -24 -48 -11 0 -50 -96 -57 -139 -5 -30 0 -43 28 -81 30 -41 33 -51 33
-116 0 -60 -5 -79 -33 -135 -46 -87 -68 -109 -109 -109 -18 0 -49 -10 -68 -23
-28 -17 -35 -28 -35 -54 0 -28 4 -34 33 -41 19 -6 39 -5 50 0 11 6 44 7 75 4
32 -4 181 -9 332 -11 151 -3 291 -7 310 -10 77 -10 424 -13 530 -4 78 7 116 7
123 0 16 -16 63 -13 77 4 7 8 30 20 51 26 45 14 78 44 63 59 -9 9 -66 28 -140
46 -14 4 -28 -1 -40 -14 -11 -11 -40 -22 -67 -26 -69 -10 -439 -8 -602 3 -77
6 -227 12 -333 15 -106 2 -196 7 -200 10 -3 4 6 30 22 58 30 53 59 146 50 160
-3 5 0 16 7 24 9 11 9 18 1 26 -7 7 -12 28 -12 47 0 22 -8 43 -21 57 -16 17
-21 36 -22 81 0 54 14 103 31 103 4 0 15 -14 25 -31 16 -29 20 -31 60 -25 23
4 52 8 65 9 14 2 29 16 40 37 11 22 39 48 80 72 66 40 71 40 47 -5 -8 -16 -22
-68 -30 -115 -9 -48 -28 -122 -42 -165 -13 -43 -33 -112 -43 -154 -13 -50 -28
-85 -44 -102 -15 -15 -26 -32 -26 -38 0 -12 23 -23 48 -23 41 1 120 110 137
190 7 30 24 96 38 145 13 50 30 115 37 145 16 77 68 205 91 226 10 9 19 22 19
29 0 7 16 20 35 31 19 10 35 23 35 28 0 6 4 6 10 0 11 -11 35 -217 43 -369 4
-60 12 -106 26 -138 12 -27 21 -60 21 -74 0 -28 53 -87 73 -81 24 8 58 101 82
231 14 73 35 179 46 237 22 114 76 287 96 308 7 7 13 21 13 31 0 9 4 21 9 26
5 6 11 40 15 78 8 78 -4 91 -58 65 -17 -8 -52 -25 -78 -37 -26 -12 -48 -25
-50 -29 -4 -8 -166 -92 -178 -92 -5 0 -11 15 -15 33 -8 38 -45 148 -55 162 -4
6 -10 42 -13 80 -8 97 -12 105 -57 105 -21 0 -42 -6 -48 -12z m20 -400 c-9 -9
-12 -4 -11 23 0 32 1 33 11 11 8 -17 8 -26 0 -34z m85 -12 c-8 -21 -37 -21
-37 0 0 8 5 25 12 37 l11 22 10 -22 c5 -12 7 -29 4 -37z m293 22 c0 -7 -18
-68 -40 -136 -22 -67 -40 -136 -40 -152 0 -16 -5 -39 -10 -52 -6 -13 -16 -67
-24 -122 -24 -160 -34 -149 -57 67 -10 89 -19 197 -19 239 l0 78 88 44 c98 50
102 51 102 34z"/>
</g>
</svg>
