<?xml version="1.0" standalone="no"?>
<!DOCTYPE svg PUBLIC "-//W3C//DTD SVG 20010904//EN"
 "http://www.w3.org/TR/2001/REC-SVG-20010904/DTD/svg10.dtd">
<svg version="1.0" xmlns="http://www.w3.org/2000/svg"
 width="206.000000pt" height="205.000000pt" viewBox="0 0 206.000000 205.000000"
 preserveAspectRatio="xMidYMid meet">
<metadata>
Created by potrace 1.16, written by Peter Selinger 2001-2019
</metadata>
<g transform="translate(0.000000,205.000000) scale(0.100000,-0.100000)"
fill="#000000" stroke="none">
<path d="M1315 1625 c-14 -13 -25 -33 -25 -44 0 -11 -11 -55 -24 -98 -14 -43
-27 -91 -31 -106 -4 -23 -17 -33 -61 -53 -30 -13 -61 -24 -68 -24 -7 0 -25 -9
-39 -20 -14 -11 -37 -20 -50 -20 -47 0 -75 -17 -82 -51 -6 -27 -3 -36 27 -66
l35 -34 77 41 78 42 -7 -32 c-10 -46 -85 -233 -153 -380 -19 -41 -50 -110 -68
-154 -61 -141 -51 -133 -173 -140 -58 -4 -136 -9 -173 -12 -38 -3 -68 -2 -68
2 0 3 8 21 19 38 10 17 33 74 51 126 18 52 41 104 51 115 9 11 21 38 25 59 6
35 4 42 -19 60 -41 34 -37 103 12 211 25 55 39 101 46 160 5 42 33 150 42 164
1 2 22 4 45 5 36 1 43 4 43 21 0 28 -125 71 -169 58 l-31 -9 -3 -134 c-2 -144
-8 -170 -69 -319 -39 -94 -39 -134 -3 -183 24 -32 24 -40 6 -81 -46 -103 -58
-127 -85 -176 -16 -29 -41 -66 -55 -80 -14 -15 -26 -33 -26 -40 0 -7 -20 -32
-44 -56 -33 -32 -43 -48 -39 -64 12 -47 53 -55 116 -24 79 39 372 65 372 33 0
-24 35 -24 60 0 24 22 28 23 172 16 81 -4 162 -9 178 -11 17 -3 98 -7 180 -11
83 -3 164 -9 180 -13 53 -13 143 3 152 27 8 19 -23 42 -58 42 -14 0 -32 7 -39
15 -15 19 -62 24 -255 30 -88 2 -189 9 -225 15 -36 5 -90 10 -121 10 -31 0
-58 3 -62 6 -8 8 17 58 41 81 10 10 25 34 32 53 7 19 37 85 65 145 29 61 63
139 78 175 81 205 101 247 125 271 15 14 35 40 44 57 10 19 25 32 37 32 11 0
27 8 37 18 10 9 41 31 70 47 119 68 218 169 186 189 -9 5 -198 -87 -222 -109
-9 -8 -32 -21 -53 -30 -36 -15 -37 -15 -37 6 0 30 47 121 73 141 30 24 14 48
-47 70 l-47 18 -24 -25z"/>
<path d="M1228 893 c-31 -3 -39 -9 -44 -30 -9 -34 4 -53 52 -80 40 -24 170
-66 237 -78 20 -4 39 -11 42 -15 8 -12 53 1 60 17 8 23 -23 53 -85 80 -99 44
-165 76 -192 95 -14 10 -28 17 -30 16 -1 -1 -20 -3 -40 -5z"/>
</g>
</svg>
