<?xml version="1.0" standalone="no"?>
<!DOCTYPE svg PUBLIC "-//W3C//DTD SVG 20010904//EN"
 "http://www.w3.org/TR/2001/REC-SVG-20010904/DTD/svg10.dtd">
<svg version="1.0" xmlns="http://www.w3.org/2000/svg"
 width="208.000000pt" height="206.000000pt" viewBox="0 0 208.000000 206.000000"
 preserveAspectRatio="xMidYMid meet">
<metadata>
Created by potrace 1.16, written by Peter Selinger 2001-2019
</metadata>
<g transform="translate(0.000000,206.000000) scale(0.100000,-0.100000)"
fill="#000000" stroke="none">
<path d="M1396 1702 c-9 -11 -38 -28 -64 -37 -26 -10 -54 -23 -62 -30 -8 -6
-42 -22 -75 -35 -33 -13 -103 -44 -155 -70 -52 -25 -120 -56 -151 -69 -68 -27
-105 -64 -112 -112 -5 -35 -4 -37 26 -42 24 -4 38 1 57 18 22 20 182 101 299
151 24 11 63 29 87 40 24 12 44 18 44 14 0 -9 -38 -135 -56 -185 -8 -23 -14
-56 -14 -74 0 -36 -25 -62 -89 -93 -58 -28 -73 -24 -65 17 14 78 31 110 61
116 61 12 92 46 61 65 -29 18 -196 6 -221 -16 -4 -3 -9 -61 -10 -128 -3 -94
-7 -126 -19 -138 -8 -8 -55 -28 -103 -45 -49 -16 -99 -39 -112 -51 -30 -28
-29 -62 2 -82 23 -15 38 -16 117 -7 68 8 94 7 99 -1 19 -31 -65 -433 -99 -471
-14 -16 -14 -19 0 -33 69 -70 161 153 214 521 16 110 30 139 87 169 62 33 68
23 66 -111 -1 -65 2 -127 8 -138 5 -11 15 -47 22 -80 14 -66 81 -189 119 -219
13 -11 32 -28 43 -39 13 -15 36 -21 88 -25 l69 -5 41 44 c22 24 41 49 41 56 0
7 9 29 20 48 29 52 24 135 -9 135 -12 0 -32 -28 -62 -87 l-45 -88 -39 2 c-34
2 -47 10 -82 50 -24 26 -43 52 -43 57 0 5 -6 17 -13 25 -29 33 -49 136 -54
271 -6 157 4 211 42 228 14 7 28 19 32 28 3 8 17 20 30 25 21 8 22 11 12 31
-6 13 -13 24 -14 26 -2 2 -19 -4 -39 -12 -35 -14 -36 -14 -36 6 0 12 14 50 30
85 17 34 30 66 30 69 0 3 16 39 36 80 27 56 34 84 32 116 -3 38 -6 43 -29 46
-15 2 -32 -5 -43 -16z"/>
<path d="M344 1271 c-28 -11 -34 -18 -34 -43 0 -33 63 -134 112 -180 15 -14
28 -33 28 -41 0 -8 8 -25 18 -38 38 -49 53 -150 41 -276 -9 -101 -22 -135 -69
-181 -16 -17 -30 -39 -30 -50 0 -21 104 -133 175 -188 22 -17 63 -39 90 -49
28 -10 55 -21 60 -25 16 -11 114 -29 190 -36 39 -3 73 -8 76 -10 3 -2 82 -4
175 -5 192 -1 406 -21 478 -43 26 -9 51 -14 55 -12 4 3 34 7 67 10 67 6 97 31
92 75 -3 25 -5 26 -56 23 -30 -2 -86 3 -125 12 -91 19 -341 38 -494 37 -65 -1
-176 4 -248 11 -116 10 -138 15 -205 48 -120 58 -154 85 -185 146 -27 54 -28
56 -12 90 37 76 48 283 23 394 -18 75 -29 100 -72 155 -65 82 -69 112 -21 149
27 22 30 28 17 36 -20 13 -103 8 -146 -9z"/>
</g>
</svg>
