<?xml version="1.0" standalone="no"?>
<!DOCTYPE svg PUBLIC "-//W3C//DTD SVG 20010904//EN"
 "http://www.w3.org/TR/2001/REC-SVG-20010904/DTD/svg10.dtd">
<svg version="1.0" xmlns="http://www.w3.org/2000/svg"
 width="208.000000pt" height="207.000000pt" viewBox="0 0 208.000000 207.000000"
 preserveAspectRatio="xMidYMid meet">
<metadata>
Created by potrace 1.16, written by Peter Selinger 2001-2019
</metadata>
<g transform="translate(0.000000,207.000000) scale(0.100000,-0.100000)"
fill="#000000" stroke="none">
<path d="M1192 1900 c-26 -11 -36 -34 -48 -110 -8 -54 -9 -63 -12 -127 -2 -37
-7 -40 -171 -99 -57 -21 -98 -31 -104 -25 -10 10 -4 134 10 196 6 31 14 41 31
43 61 9 18 69 -66 93 -72 20 -76 10 -83 -194 -3 -95 -7 -172 -8 -172 0 0 -20
-10 -43 -22 -24 -12 -51 -24 -60 -27 -13 -4 -18 -16 -18 -44 0 -31 5 -41 28
-54 16 -10 38 -14 55 -11 l27 5 0 -116 0 -117 -75 -34 c-97 -44 -155 -91 -155
-126 0 -51 52 -69 102 -36 19 13 46 27 61 31 l27 6 -3 -126 c-2 -114 0 -127
17 -140 56 -40 77 -4 81 134 2 100 5 118 31 168 24 48 41 65 112 113 46 31 92
61 103 67 10 6 27 18 37 27 10 10 27 17 37 17 16 0 17 -6 11 -57 -3 -32 -9
-123 -12 -203 -6 -173 -18 -251 -51 -345 -34 -99 -44 -108 -111 -99 l-55 7 6
-33 7 -32 -38 8 c-20 4 -153 8 -294 8 -182 1 -260 4 -269 13 -6 6 -18 9 -26 6
-32 -12 -30 20 3 64 19 25 34 49 34 55 0 10 12 39 51 126 29 64 21 137 -20
168 -13 11 -14 13 -8 540 1 134 -5 154 -53 154 -46 0 -53 -19 -40 -102 6 -40
10 -109 9 -153 -1 -44 4 -114 11 -156 10 -65 10 -88 -4 -165 -27 -141 -27
-140 -7 -158 10 -9 23 -16 29 -16 17 0 32 -35 32 -76 0 -48 -29 -106 -83 -167
-37 -42 -49 -49 -102 -58 -70 -13 -85 -23 -85 -56 0 -32 43 -71 94 -83 23 -6
49 -15 59 -20 22 -13 117 -21 227 -19 305 6 462 -1 501 -21 10 -6 33 -10 51
-10 73 0 188 -47 256 -104 24 -20 50 -36 57 -36 8 0 18 -6 22 -14 14 -25 80
-36 123 -21 21 7 59 17 84 20 25 4 50 13 57 21 19 23 6 48 -31 55 -54 12 -123
20 -148 20 -13 -1 -35 8 -49 19 -14 11 -29 20 -34 20 -4 0 -29 14 -54 31 -40
27 -108 58 -167 76 -15 5 -15 9 8 38 47 63 92 239 104 415 5 69 16 159 25 200
10 46 16 116 15 180 -4 287 -2 316 14 332 37 35 57 46 95 53 32 5 42 12 47 31
13 53 -21 62 -117 30 l-36 -13 4 46 c2 25 5 63 8 85 4 45 -9 86 -27 85 -7 0
-23 -4 -36 -9z m-66 -476 l-1 -86 -70 -38 c-86 -46 -144 -79 -178 -103 -14
-10 -31 -16 -36 -13 -15 10 -11 137 5 163 8 12 14 32 14 43 0 13 10 24 28 30
15 6 36 15 47 20 11 5 40 17 65 25 24 9 51 22 60 29 15 14 50 25 61 19 4 -1 6
-42 5 -89z"/>
</g>
</svg>
