<?xml version="1.0" standalone="no"?>
<!DOCTYPE svg PUBLIC "-//W3C//DTD SVG 20010904//EN"
 "http://www.w3.org/TR/2001/REC-SVG-20010904/DTD/svg10.dtd">
<svg version="1.0" xmlns="http://www.w3.org/2000/svg"
 width="207.000000pt" height="208.000000pt" viewBox="0 0 207.000000 208.000000"
 preserveAspectRatio="xMidYMid meet">
<metadata>
Created by potrace 1.16, written by Peter Selinger 2001-2019
</metadata>
<g transform="translate(0.000000,208.000000) scale(0.100000,-0.100000)"
fill="#000000" stroke="none">
<path d="M1270 1461 c-47 -15 -119 -40 -160 -55 -72 -28 -98 -38 -185 -76 -22
-10 -67 -28 -100 -41 -92 -37 -115 -77 -76 -129 15 -18 28 -24 57 -23 23 1 41
7 46 17 5 9 14 16 20 16 13 0 80 43 114 73 12 10 55 29 95 43 83 28 137 51
159 68 8 7 35 18 60 25 25 7 57 18 72 23 15 6 35 8 44 4 26 -10 49 21 38 52
-8 23 -15 27 -54 29 -26 1 -80 -10 -130 -26z"/>
<path d="M368 1243 c-21 -5 -26 -27 -17 -77 4 -22 1 -66 -7 -105 -8 -36 -14
-78 -14 -92 0 -14 -12 -44 -26 -65 -46 -68 -49 -93 -14 -168 36 -80 38 -134 9
-232 -52 -177 -64 -211 -78 -235 -22 -34 -92 -96 -124 -108 -30 -11 -46 -55
-30 -80 13 -21 117 -41 283 -55 25 -2 63 -9 85 -16 29 -8 173 -10 510 -8 l470
3 70 39 c99 54 141 106 116 145 -7 10 -20 6 -62 -23 -30 -20 -61 -36 -69 -36
-9 0 -24 -6 -35 -14 -40 -28 -194 -50 -345 -50 -232 0 -337 5 -460 21 -63 8
-128 16 -145 18 -16 1 -52 6 -80 11 -27 4 -54 8 -60 9 -42 4 -85 19 -85 29 0
7 11 23 25 36 14 13 25 34 25 46 0 13 5 26 10 29 6 3 10 32 10 64 0 36 8 76
19 102 12 27 23 88 29 158 10 108 9 117 -10 143 -22 31 -21 42 6 180 8 42 20
86 25 97 6 11 11 29 11 41 0 35 49 127 70 133 30 8 24 22 -17 40 -48 20 -74
26 -95 20z"/>
<path d="M1287 1169 c-26 -10 -60 -28 -75 -38 -15 -11 -58 -32 -97 -47 -38
-15 -87 -38 -107 -51 -21 -13 -43 -23 -50 -23 -6 0 -43 -14 -82 -31 -140 -62
-154 -68 -211 -88 -72 -25 -97 -47 -93 -80 2 -18 11 -27 33 -33 44 -13 82 -4
167 36 42 20 79 36 82 36 3 0 6 -9 6 -19 0 -28 -89 -281 -110 -311 -45 -66
-81 -160 -78 -202 3 -40 5 -43 34 -46 36 -3 59 21 104 112 14 27 30 51 36 53
6 2 37 -21 70 -51 84 -78 120 -88 318 -89 88 0 172 1 186 2 79 8 159 28 189
48 19 13 40 23 47 23 7 0 29 15 48 34 29 27 36 41 36 71 0 61 -24 89 -92 110
-33 10 -62 24 -65 31 -2 7 -19 16 -36 19 -18 4 -57 22 -87 40 -177 104 -238
99 -117 -10 34 -31 78 -66 97 -76 19 -11 49 -28 65 -39 17 -11 44 -27 62 -35
17 -8 35 -20 39 -26 10 -17 -40 -57 -79 -63 -17 -3 -76 -12 -130 -22 -134 -22
-251 -22 -313 1 -60 23 -70 30 -106 79 -24 34 -28 48 -28 108 0 37 -5 77 -12
87 -9 15 -5 38 23 122 33 102 60 149 85 149 18 0 165 79 190 101 11 11 23 19
27 19 4 0 25 11 47 25 22 14 44 25 50 25 5 0 19 9 31 21 16 16 18 23 8 35 -16
19 -54 17 -112 -7z"/>
</g>
</svg>
