<?xml version="1.0" standalone="no"?>
<!DOCTYPE svg PUBLIC "-//W3C//DTD SVG 20010904//EN"
 "http://www.w3.org/TR/2001/REC-SVG-20010904/DTD/svg10.dtd">
<svg version="1.0" xmlns="http://www.w3.org/2000/svg"
 width="206.000000pt" height="210.000000pt" viewBox="0 0 206.000000 210.000000"
 preserveAspectRatio="xMidYMid meet">
<metadata>
Created by potrace 1.16, written by Peter Selinger 2001-2019
</metadata>
<g transform="translate(0.000000,210.000000) scale(0.100000,-0.100000)"
fill="#000000" stroke="none">
<path d="M1045 1890 c-16 -11 -46 -20 -66 -20 -64 0 -70 -17 -71 -190 -1 -144
-2 -152 -22 -161 -11 -5 -28 -13 -36 -18 -8 -6 -28 -16 -45 -23 -22 -9 -31
-21 -33 -42 -6 -51 6 -74 44 -88 l36 -13 -6 -53 c-7 -58 -35 -149 -68 -222
-12 -25 -38 -90 -60 -145 l-38 -100 26 -23 c14 -12 33 -22 43 -22 10 0 53 27
94 60 42 33 79 60 82 60 6 0 106 81 149 121 17 15 34 25 37 21 10 -10 18 -227
10 -241 -4 -6 -22 -20 -39 -29 -16 -9 -48 -27 -69 -40 -21 -13 -81 -47 -133
-75 -89 -49 -95 -54 -93 -82 3 -45 36 -67 90 -59 31 5 50 2 68 -10 28 -18 55
-21 55 -6 0 6 -7 24 -15 39 -14 28 -13 29 23 57 41 33 89 64 97 64 14 0 -16
-322 -37 -393 -14 -45 -2 -63 36 -53 30 7 58 54 68 111 3 22 13 83 22 135 9
52 16 118 16 145 0 74 18 126 54 160 18 17 54 50 80 74 37 34 46 49 44 70 -5
40 -38 38 -94 -4 -26 -20 -51 -32 -55 -28 -11 11 -13 179 -3 231 6 29 17 48
35 60 85 56 145 132 105 132 -24 0 -80 -23 -116 -46 -45 -31 -57 -19 -40 40
11 40 16 46 39 46 49 0 71 11 71 35 0 26 -10 29 -118 40 -50 6 -68 4 -88 -10
-25 -16 -26 -17 -21 -130 l4 -114 -51 -41 c-76 -62 -174 -130 -187 -130 -13 0
-6 37 16 85 24 51 55 153 55 178 0 24 41 152 58 183 20 36 128 135 164 151 21
9 38 23 38 30 0 7 8 13 18 13 9 0 28 10 42 23 14 12 36 28 50 35 42 22 90 71
93 94 2 21 -2 23 -33 20 -19 -2 -42 -10 -50 -17 -8 -7 -49 -30 -90 -51 -41
-20 -85 -45 -98 -55 -29 -22 -112 -63 -117 -57 -3 2 -5 33 -7 69 -2 83 18 130
72 164 27 17 40 32 38 43 -5 24 -38 24 -73 2z m128 -684 c3 -8 0 -17 -8 -20
-14 -5 -28 17 -18 28 10 10 21 7 26 -8z"/>
<path d="M373 1280 c-13 -11 -23 -26 -23 -33 0 -7 19 -41 43 -77 42 -64 42
-66 42 -155 0 -49 -6 -125 -13 -168 -7 -42 -14 -147 -15 -232 l-3 -156 -77
-74 c-62 -60 -77 -80 -77 -104 0 -27 4 -31 43 -42 23 -6 58 -19 77 -30 19 -10
64 -28 100 -39 35 -11 74 -27 85 -34 11 -7 36 -17 55 -21 19 -4 44 -12 55 -19
11 -6 49 -16 85 -23 36 -6 90 -17 120 -22 91 -18 148 -22 295 -21 178 0 323 9
355 20 74 27 223 51 307 51 62 0 75 13 71 71 -3 39 -5 43 -28 42 -49 -3 -176
-24 -240 -40 -211 -52 -571 -73 -684 -40 -28 8 -87 20 -131 26 -93 13 -141 28
-174 52 -13 10 -28 18 -33 18 -9 0 -63 23 -145 61 -60 29 -61 44 -7 101 l47
50 -8 91 c-14 167 -7 329 20 455 11 53 11 70 -1 109 -8 25 -11 49 -9 54 3 4 0
17 -6 27 -12 19 -9 33 13 64 19 26 -11 50 -69 55 -39 4 -52 1 -70 -17z"/>
</g>
</svg>
