<?xml version="1.0" standalone="no"?>
<!DOCTYPE svg PUBLIC "-//W3C//DTD SVG 20010904//EN"
 "http://www.w3.org/TR/2001/REC-SVG-20010904/DTD/svg10.dtd">
<svg version="1.0" xmlns="http://www.w3.org/2000/svg"
 width="207.000000pt" height="209.000000pt" viewBox="0 0 207.000000 209.000000"
 preserveAspectRatio="xMidYMid meet">
<metadata>
Created by potrace 1.16, written by Peter Selinger 2001-2019
</metadata>
<g transform="translate(0.000000,209.000000) scale(0.100000,-0.100000)"
fill="#000000" stroke="none">
<path d="M1126 1802 c-15 -18 -28 -83 -44 -234 -4 -37 -10 -69 -12 -70 -18
-13 -208 -98 -219 -98 -7 0 -29 -9 -47 -21 -36 -22 -43 -51 -20 -81 14 -19 71
-25 81 -8 3 6 16 10 28 10 13 0 47 16 77 35 81 52 88 49 84 -32 -2 -38 -4 -87
-4 -111 0 -39 -3 -44 -30 -53 -41 -15 -47 -43 -17 -87 13 -20 26 -49 29 -64 7
-35 -18 -167 -36 -187 -7 -9 -38 -47 -69 -86 -103 -127 -118 -144 -163 -172
-56 -36 -61 -74 -13 -98 22 -12 34 -13 43 -6 7 6 41 20 77 31 35 11 78 29 95
40 28 16 34 17 45 4 17 -21 25 -17 39 16 11 26 88 90 108 90 4 0 24 11 44 25
38 26 49 23 62 -22 4 -11 13 -27 21 -33 8 -7 15 -22 15 -35 0 -28 54 -85 80
-85 11 0 26 10 34 22 21 34 29 168 16 296 -20 214 13 693 55 805 8 20 15 60
15 87 0 68 -23 81 -84 45 -24 -14 -51 -34 -61 -45 -10 -11 -22 -20 -27 -20 -5
0 -33 -16 -62 -35 -62 -41 -81 -44 -72 -12 24 90 39 176 33 190 -9 24 -78 23
-101 -1z m236 -254 c2 -13 -2 -50 -9 -83 -24 -114 -37 -538 -21 -703 14 -153
4 -169 -35 -61 -18 48 -37 93 -44 100 -6 8 -23 39 -37 69 -14 30 -37 75 -51
100 -24 41 -25 52 -20 120 3 41 8 116 10 165 6 138 21 192 64 232 20 18 41 33
46 34 6 0 26 11 45 24 44 30 48 30 52 3z m-162 -794 c6 -15 5 -25 -3 -31 -24
-18 -97 -46 -104 -40 -5 6 14 79 39 146 8 23 9 23 34 -15 14 -21 30 -48 34
-60z m-194 -110 c-3 -8 -12 -14 -20 -14 -16 0 -10 40 8 52 13 9 20 -16 12 -38z"/>
<path d="M413 1630 c-37 -22 -43 -52 -17 -81 8 -9 20 -49 25 -88 10 -69 10
-71 -25 -134 -39 -71 -65 -104 -142 -181 -48 -48 -74 -84 -74 -103 0 -4 16
-26 35 -48 106 -121 112 -226 21 -375 -19 -30 -44 -88 -56 -128 -22 -72 -59
-118 -86 -108 -26 10 -37 -21 -24 -68 14 -51 31 -61 125 -71 33 -4 75 -13 95
-20 50 -18 290 -36 545 -40 121 -1 254 -8 295 -14 79 -13 291 -61 400 -91 171
-47 194 -50 370 -35 91 7 166 13 168 14 1 1 2 16 2 35 0 32 -3 35 -37 40 -21
4 -111 8 -200 11 -90 2 -167 6 -173 10 -5 3 -38 11 -72 16 -35 5 -76 14 -93
19 -16 5 -52 16 -80 25 -116 35 -451 75 -606 73 -238 -3 -454 19 -543 57 -37
16 -38 17 -31 53 4 20 10 39 14 42 23 15 88 170 107 255 23 102 18 182 -16
266 -16 41 -30 83 -30 93 0 10 20 44 45 73 25 31 49 74 55 97 6 22 15 51 20
64 6 13 10 36 10 53 0 16 6 40 14 52 8 12 17 39 20 60 10 55 25 85 47 90 26 7
27 65 2 73 -16 5 -59 24 -73 31 -3 2 -20 -6 -37 -17z"/>
<path d="M717 1228 c-15 -12 -17 -46 -21 -313 -3 -165 -7 -309 -11 -320 -3
-11 1 -29 10 -40 15 -20 15 -20 30 0 16 20 19 31 51 160 19 78 20 85 30 312 6
142 5 165 -10 187 -18 28 -52 34 -79 14z"/>
</g>
</svg>
