<?xml version="1.0" standalone="no"?>
<!DOCTYPE svg PUBLIC "-//W3C//DTD SVG 20010904//EN"
 "http://www.w3.org/TR/2001/REC-SVG-20010904/DTD/svg10.dtd">
<svg version="1.0" xmlns="http://www.w3.org/2000/svg"
 width="209.000000pt" height="210.000000pt" viewBox="0 0 209.000000 210.000000"
 preserveAspectRatio="xMidYMid meet">
<metadata>
Created by potrace 1.16, written by Peter Selinger 2001-2019
</metadata>
<g transform="translate(0.000000,210.000000) scale(0.100000,-0.100000)"
fill="#000000" stroke="none">
<path d="M809 1834 c-9 -3 -21 -16 -28 -30 -9 -20 -8 -30 5 -50 19 -29 47 -37
109 -32 47 3 58 -8 31 -32 -8 -6 -29 -35 -47 -63 -18 -29 -57 -79 -86 -112
-74 -82 -83 -94 -83 -102 0 -5 -25 -35 -55 -68 -63 -69 -71 -104 -30 -131 29
-19 80 -13 171 21 67 25 174 43 174 28 0 -4 -25 -23 -55 -41 -73 -44 -145
-113 -145 -139 0 -28 55 -52 79 -34 9 6 29 19 45 29 16 9 39 26 50 38 12 12
35 28 52 37 18 9 63 46 100 82 37 36 70 65 73 65 3 0 23 18 43 40 41 43 86 76
94 68 3 -3 7 -99 10 -214 3 -115 8 -303 12 -419 7 -224 6 -315 -7 -315 -4 0
-20 18 -37 41 -73 101 -183 237 -195 241 -11 4 -10 22 5 94 10 49 20 103 21
119 2 17 7 55 11 87 3 31 4 68 0 83 -7 26 -9 27 -49 21 -23 -4 -45 -10 -49
-14 -4 -4 -18 -63 -31 -130 -14 -68 -27 -125 -30 -129 -4 -3 -22 2 -42 11 -25
12 -48 16 -75 11 -55 -9 -67 -42 -52 -144 21 -141 26 -155 52 -168 22 -11 28
-9 57 19 18 17 36 28 40 24 11 -11 7 -355 -4 -391 -7 -21 -15 -29 -29 -27 -32
5 -513 3 -604 -2 -47 -2 -99 -2 -116 2 -27 6 -30 10 -24 28 5 12 24 25 50 33
22 7 58 29 79 50 35 35 38 43 44 112 7 78 -4 190 -23 249 -44 135 -53 234 -29
307 6 21 9 62 6 100 -4 54 -10 70 -41 107 -20 25 -36 53 -36 64 0 30 -22 43
-57 33 -94 -27 -97 -57 -13 -130 55 -48 60 -56 60 -94 0 -23 -7 -86 -17 -140
-18 -108 -11 -165 26 -213 36 -45 56 -202 38 -294 -3 -14 -6 -28 -6 -32 -1 -3
-43 -27 -95 -52 -120 -59 -156 -97 -156 -165 0 -71 10 -73 265 -66 466 13 525
14 660 4 172 -11 300 -43 365 -89 28 -20 80 -28 80 -12 0 26 -132 142 -163
142 -7 0 -17 3 -21 7 -3 4 -44 16 -89 27 -70 18 -82 24 -80 41 12 115 16 141
22 150 3 6 11 72 17 147 5 76 13 140 17 144 10 10 129 -104 147 -140 25 -50
54 -99 72 -124 9 -13 20 -43 24 -68 4 -30 14 -51 32 -64 81 -64 83 -34 74 960
-1 157 -1 305 0 330 3 41 1 45 -22 48 -24 3 -33 -4 -95 -69 -11 -12 -45 -40
-75 -62 -30 -22 -57 -43 -60 -47 -17 -19 -128 -110 -136 -110 -5 0 -15 9 -22
20 -10 16 -23 20 -67 20 -30 0 -75 -5 -100 -12 -24 -7 -47 -9 -50 -6 -8 8 33
79 60 103 12 11 56 63 97 115 41 52 95 113 119 136 38 34 44 46 45 81 1 26 -4
44 -12 47 -18 7 -276 16 -295 10z m127 -1032 c11 -6 18 -40 15 -68 -1 -6 -12
-16 -26 -22 -22 -10 -27 -9 -33 9 -4 11 -6 36 -4 55 4 34 22 44 48 26z"/>
<path d="M578 1105 c-33 -19 -35 -36 -8 -115 32 -95 35 -230 10 -405 -32 -215
-35 -269 -17 -283 27 -22 65 2 72 45 4 21 11 52 15 68 33 117 68 529 47 562
-9 14 0 39 26 75 24 33 17 44 -30 51 -21 3 -49 8 -63 11 -14 3 -37 -1 -52 -9z"/>
</g>
</svg>
