<?xml version="1.0" standalone="no"?>
<!DOCTYPE svg PUBLIC "-//W3C//DTD SVG 20010904//EN"
 "http://www.w3.org/TR/2001/REC-SVG-20010904/DTD/svg10.dtd">
<svg version="1.0" xmlns="http://www.w3.org/2000/svg"
 width="206.000000pt" height="210.000000pt" viewBox="0 0 206.000000 210.000000"
 preserveAspectRatio="xMidYMid meet">
<metadata>
Created by potrace 1.16, written by Peter Selinger 2001-2019
</metadata>
<g transform="translate(0.000000,210.000000) scale(0.100000,-0.100000)"
fill="#000000" stroke="none">
<path d="M1220 1819 c-36 -4 -119 -7 -186 -8 -130 -1 -178 -12 -195 -43 -15
-28 -2 -76 24 -84 24 -8 112 -7 138 1 29 10 31 -12 4 -52 -49 -72 -104 -137
-124 -144 -10 -4 -25 -24 -31 -45 -12 -36 -11 -39 14 -61 20 -17 40 -23 72
-23 24 0 44 -4 44 -10 0 -5 -4 -10 -10 -10 -5 0 -17 -12 -27 -26 -20 -32 -27
-174 -8 -174 11 0 145 155 145 168 0 4 24 23 53 41 77 51 167 121 207 161 34
35 79 70 90 70 10 0 0 -315 -18 -530 -4 -47 -7 -178 -7 -293 0 -114 -3 -207
-7 -207 -5 0 -8 4 -8 8 0 5 -18 26 -40 48 -22 21 -40 45 -40 52 0 6 -4 12 -10
12 -5 0 -16 15 -23 33 -8 17 -35 52 -61 76 -45 41 -48 45 -43 85 16 132 30
204 45 226 34 50 42 73 42 114 0 87 -79 113 -128 42 -20 -29 -40 -107 -57
-216 -9 -60 -19 -67 -51 -36 -16 14 -32 26 -36 26 -4 0 -14 13 -22 28 -8 15
-26 34 -40 42 -14 7 -26 18 -26 23 0 5 -12 18 -26 29 l-26 21 27 21 27 21 -21
20 c-17 14 -34 18 -78 16 -71 -3 -93 -14 -93 -46 0 -38 -39 -268 -66 -395 -14
-63 -28 -162 -31 -220 -5 -98 -4 -106 16 -124 17 -16 26 -17 45 -8 21 9 24 19
30 100 6 86 21 170 44 257 21 79 42 174 42 194 0 31 16 33 54 9 19 -13 53 -34
75 -48 23 -13 41 -30 41 -36 0 -13 -83 -74 -100 -74 -17 0 -42 -48 -35 -69 3
-10 20 -24 38 -30 29 -11 36 -8 103 39 40 27 76 50 79 50 10 0 -12 -179 -41
-328 -5 -27 -3 -32 12 -32 25 0 88 100 109 173 8 29 22 62 30 73 14 18 15 18
34 -6 11 -14 26 -36 33 -50 7 -14 16 -28 21 -31 16 -12 97 -143 97 -157 0 -9
6 -23 14 -31 8 -9 25 -45 39 -81 19 -51 30 -67 51 -74 21 -8 30 -6 44 7 15 16
17 49 18 360 0 188 4 378 7 422 4 44 11 159 17 255 10 170 32 316 51 353 25
46 -32 91 -78 62 -13 -9 -27 -23 -30 -31 -3 -8 -23 -24 -45 -35 -22 -11 -74
-46 -115 -77 -42 -31 -85 -63 -97 -71 -11 -8 -36 -28 -54 -45 -30 -28 -38 -30
-94 -28 -34 1 -64 4 -66 6 -5 6 160 168 193 190 16 11 49 24 75 31 41 10 45
14 48 46 2 18 8 39 14 46 24 30 -15 41 -112 32z"/>
<path d="M245 1393 c-11 -2 -36 -17 -55 -33 l-34 -28 17 -88 c10 -53 25 -99
37 -114 11 -14 29 -41 39 -61 11 -19 36 -55 55 -78 20 -24 39 -55 43 -69 12
-51 -16 -177 -59 -257 -11 -19 -48 -87 -74 -135 -20 -35 -17 -63 6 -78 16 -10
20 -23 20 -70 0 -71 -23 -119 -72 -151 -33 -21 -38 -29 -38 -62 0 -44 8 -51
67 -56 44 -3 88 -23 175 -80 l43 -28 200 -2 200 -2 -80 14 c-44 8 -93 21 -110
29 -16 9 -55 23 -85 33 -30 10 -66 26 -80 36 -13 9 -29 17 -34 17 -5 0 -29 15
-53 33 -94 69 -89 63 -76 88 16 32 22 183 10 230 -7 31 -5 46 10 81 52 113 95
328 74 367 -6 11 -11 33 -11 50 0 29 -41 116 -82 174 -29 40 -31 166 -3 197
19 21 19 22 0 36 -10 8 -21 13 -24 13 -3 -1 -15 -4 -26 -6z"/>
</g>
</svg>
