<?xml version="1.0" standalone="no"?>
<!DOCTYPE svg PUBLIC "-//W3C//DTD SVG 20010904//EN"
 "http://www.w3.org/TR/2001/REC-SVG-20010904/DTD/svg10.dtd">
<svg version="1.0" xmlns="http://www.w3.org/2000/svg"
 width="206.000000pt" height="208.000000pt" viewBox="0 0 206.000000 208.000000"
 preserveAspectRatio="xMidYMid meet">
<metadata>
Created by potrace 1.16, written by Peter Selinger 2001-2019
</metadata>
<g transform="translate(0.000000,208.000000) scale(0.100000,-0.100000)"
fill="#000000" stroke="none">
<path d="M917 1865 c-11 -11 -15 -41 -16 -120 -1 -157 -35 -349 -66 -375 -8
-7 -15 -25 -15 -40 0 -31 -57 -219 -88 -290 -12 -27 -46 -70 -86 -107 -68 -65
-82 -97 -51 -123 8 -7 15 -19 15 -27 0 -21 -27 -69 -55 -97 -30 -30 -31 -42
-5 -56 17 -9 28 -5 65 26 51 41 85 91 85 124 0 20 63 88 200 213 29 26 120 81
125 75 2 -2 -2 -26 -9 -53 -11 -45 -16 -51 -51 -63 -96 -32 -136 -100 -80
-136 33 -22 62 -20 83 5 9 11 29 27 44 35 33 17 137 18 159 1 23 -17 29 -74
13 -127 -31 -103 -167 -260 -243 -279 -87 -22 -97 -22 -124 -1 -15 12 -27 27
-27 33 0 7 -9 30 -21 51 -16 29 -20 53 -18 104 3 72 -8 87 -41 57 -54 -49 -44
-236 15 -285 9 -7 20 -21 26 -31 9 -17 2 -18 -103 -14 -158 7 -327 26 -335 38
-4 6 2 16 12 21 67 39 100 106 130 271 13 69 16 117 11 205 -5 82 -3 140 8
200 15 89 13 125 -10 176 -7 17 -14 44 -14 60 -1 37 25 130 45 160 22 34 19
52 -14 68 -21 12 -37 13 -63 5 -34 -9 -35 -10 -43 -77 -14 -111 -11 -183 10
-244 18 -54 18 -61 3 -105 -33 -99 -42 -160 -30 -202 17 -56 15 -205 -4 -270
-29 -98 -37 -113 -75 -140 -66 -48 -136 -116 -143 -138 -10 -32 10 -62 52 -80
68 -29 281 -51 556 -58 185 -5 192 -5 265 -36 106 -44 145 -65 177 -94 15 -14
60 -42 98 -62 39 -19 82 -42 96 -49 16 -9 59 -14 118 -14 91 0 93 0 142 37 28
21 50 44 50 52 0 8 7 22 15 31 9 10 19 34 22 54 8 51 -12 46 -62 -14 -43 -52
-95 -80 -151 -80 -40 0 -129 34 -160 62 -11 10 -24 18 -28 18 -4 0 -33 19 -64
43 -80 61 -116 81 -204 113 -43 16 -78 32 -78 36 0 4 10 13 22 19 12 6 33 23
47 36 14 13 38 31 54 39 15 8 35 30 45 48 9 18 34 58 54 89 58 88 69 114 75
186 5 55 2 76 -15 114 -24 54 -59 74 -149 87 -29 3 -56 9 -59 13 -4 3 3 22 15
42 11 20 21 43 21 51 0 8 5 14 10 14 6 0 20 21 31 47 11 25 36 62 57 80 109
100 142 135 142 152 0 11 3 26 6 35 10 26 -25 19 -65 -11 -58 -45 -101 -73
-111 -73 -13 0 -12 22 3 72 11 37 18 44 82 75 104 51 129 65 142 82 31 42 -67
46 -150 8 -79 -38 -81 -38 -73 35 9 72 24 98 68 112 65 22 40 61 -49 78 -60
11 -64 10 -87 -11 -21 -20 -24 -33 -30 -149 -4 -70 -11 -131 -15 -135 -4 -4
-25 -11 -46 -14 l-39 -6 22 37 c12 20 22 49 22 64 0 15 9 50 19 78 11 28 21
80 23 117 2 58 0 69 -21 91 -28 30 -90 36 -114 11z m133 -587 c0 -49 -3 -59
-22 -69 -13 -6 -41 -26 -63 -44 -47 -38 -83 -58 -95 -53 -12 4 47 178 68 201
9 11 33 27 52 37 32 17 36 17 48 2 6 -8 12 -42 12 -74z"/>
</g>
</svg>
