<?xml version="1.0" standalone="no"?>
<!DOCTYPE svg PUBLIC "-//W3C//DTD SVG 20010904//EN"
 "http://www.w3.org/TR/2001/REC-SVG-20010904/DTD/svg10.dtd">
<svg version="1.0" xmlns="http://www.w3.org/2000/svg"
 width="207.000000pt" height="208.000000pt" viewBox="0 0 207.000000 208.000000"
 preserveAspectRatio="xMidYMid meet">
<metadata>
Created by potrace 1.16, written by Peter Selinger 2001-2019
</metadata>
<g transform="translate(0.000000,208.000000) scale(0.100000,-0.100000)"
fill="#000000" stroke="none">
<path d="M1166 1724 c-31 -17 -31 -8 -1 -146 10 -43 15 -84 12 -91 -5 -12 -26
-25 -164 -98 -60 -31 -61 -30 -40 56 13 53 50 117 86 149 36 32 21 76 -25 76
-13 0 -26 5 -29 10 -10 16 -61 11 -77 -7 -9 -10 -21 -43 -26 -73 -29 -147 -81
-361 -101 -415 -5 -16 -22 -66 -35 -110 -49 -156 -90 -239 -126 -250 -23 -7
-35 -43 -25 -74 9 -31 66 -38 102 -13 65 44 170 111 200 126 18 9 53 30 78 47
35 24 49 28 59 20 20 -17 37 -5 81 56 22 30 51 61 65 68 14 7 39 27 55 45 34
35 103 85 133 94 27 9 182 163 182 181 0 8 -4 15 -10 15 -15 0 -64 -24 -75
-36 -13 -15 -181 -126 -222 -148 -33 -16 -33 -16 -33 8 0 13 7 37 15 52 8 16
15 55 15 89 0 56 2 62 34 87 41 33 106 64 164 78 36 9 43 15 40 32 -5 36 -46
39 -139 8 -46 -15 -87 -26 -91 -23 -11 6 -10 52 2 93 13 46 6 65 -36 89 -19
12 -36 21 -37 21 -1 -1 -15 -8 -31 -16z m-17 -532 c-12 -37 -26 -72 -31 -78
-13 -18 -170 -122 -208 -138 -19 -8 -44 -23 -55 -33 -23 -22 -65 -36 -65 -22
0 10 15 36 56 99 13 19 30 63 38 97 16 71 22 83 41 83 8 0 34 20 59 44 24 25
64 55 88 67 23 12 54 31 68 41 l25 20 3 -56 c2 -38 -4 -78 -19 -124z"/>
<path d="M235 1509 c-16 -6 -48 -18 -70 -29 -22 -10 -55 -24 -73 -31 -33 -12
-50 -44 -38 -74 3 -9 25 -25 50 -35 70 -32 70 -31 63 -209 -8 -182 -3 -207 54
-264 67 -67 64 -131 -8 -267 -60 -112 -71 -129 -106 -166 -44 -49 -35 -72 43
-111 36 -18 83 -38 105 -44 22 -6 63 -21 90 -34 28 -13 66 -26 85 -30 19 -3
44 -10 55 -15 115 -50 314 -95 480 -110 55 -4 123 -13 150 -19 28 -6 79 -9
115 -8 36 2 79 0 95 -5 44 -12 210 -38 243 -38 17 0 38 10 51 24 20 21 20 25
7 39 -15 14 -96 32 -201 44 -27 3 -54 9 -60 13 -5 4 -55 8 -110 9 -55 1 -116
6 -135 10 -19 5 -67 12 -107 16 -39 3 -82 8 -95 10 -13 2 -50 6 -83 10 -33 3
-82 14 -110 24 -27 10 -81 29 -120 41 -38 13 -74 26 -80 30 -5 4 -37 13 -69
20 -32 8 -74 24 -91 36 -18 12 -41 25 -51 28 -20 7 -74 51 -74 60 0 6 31 75
92 204 28 61 29 66 20 144 -9 75 -13 82 -45 109 -48 40 -58 75 -51 194 5 105
-7 206 -33 265 l-15 34 45 42 c50 48 60 67 44 83 -13 13 -21 13 -62 0z"/>
<path d="M1090 770 c-8 -5 -25 -10 -37 -10 -33 0 -103 -67 -103 -97 0 -18 9
-28 36 -39 34 -14 38 -14 58 3 54 47 88 64 119 61 29 -3 32 -6 35 -41 3 -33
-2 -43 -41 -82 -50 -49 -76 -59 -162 -60 -72 0 -123 19 -131 50 -3 12 -21 38
-40 56 -28 27 -38 31 -52 23 -38 -25 -27 -78 30 -140 55 -59 85 -74 152 -74
96 0 148 17 207 67 30 25 60 57 68 72 8 14 18 29 24 32 15 11 21 96 7 128 -19
47 -126 79 -170 51z"/>
</g>
</svg>
