<?xml version="1.0" standalone="no"?>
<!DOCTYPE svg PUBLIC "-//W3C//DTD SVG 20010904//EN"
 "http://www.w3.org/TR/2001/REC-SVG-20010904/DTD/svg10.dtd">
<svg version="1.0" xmlns="http://www.w3.org/2000/svg"
 width="207.000000pt" height="207.000000pt" viewBox="0 0 207.000000 207.000000"
 preserveAspectRatio="xMidYMid meet">
<metadata>
Created by potrace 1.16, written by Peter Selinger 2001-2019
</metadata>
<g transform="translate(0.000000,207.000000) scale(0.100000,-0.100000)"
fill="#000000" stroke="none">
<path d="M771 1850 c-51 -27 -114 -63 -140 -79 -25 -16 -75 -41 -111 -56 -91
-37 -179 -75 -222 -96 -10 -5 -24 -9 -31 -9 -8 0 -33 -14 -55 -30 -35 -25 -42
-36 -42 -64 0 -25 7 -39 22 -50 31 -22 51 -20 78 9 26 27 143 99 182 110 13 4
30 13 38 19 8 7 34 18 58 25 39 11 77 32 142 78 14 10 39 23 55 29 17 6 38 15
49 19 17 7 17 6 6 -16 -7 -13 -32 -49 -54 -79 -23 -30 -65 -95 -94 -145 -59
-101 -57 -97 -93 -151 -32 -47 -56 -69 -87 -79 -56 -17 -212 -183 -212 -225 0
-25 36 -53 60 -47 25 7 25 5 -5 -57 -13 -28 -33 -71 -45 -96 -11 -25 -34 -71
-51 -104 -33 -64 -34 -83 -6 -100 15 -9 23 -5 50 28 55 68 127 178 127 195 0
9 9 22 19 28 17 11 21 8 36 -23 15 -33 15 -37 1 -53 -26 -28 -19 -49 34 -105
l50 -53 -10 -53 c-12 -62 -68 -164 -161 -291 -46 -63 -65 -97 -61 -111 7 -28
46 -51 74 -43 36 11 188 166 188 193 0 12 -4 22 -10 22 -16 0 -12 42 9 80 10
19 22 51 26 70 8 36 22 60 35 60 8 0 89 -187 105 -240 4 -14 12 -31 17 -37 15
-19 52 -16 72 6 16 18 16 24 1 107 -9 49 -19 152 -22 229 -6 166 7 256 67 440
79 243 110 358 110 413 l0 55 -56 -7 c-31 -3 -66 -13 -77 -21 -12 -8 -25 -15
-29 -15 -17 0 -6 37 20 70 38 46 67 102 92 175 30 89 26 109 -25 118 -23 4
-51 -5 -124 -43z m72 -445 c-1 -15 -13 -57 -27 -94 -85 -232 -136 -450 -136
-589 0 -79 -15 -79 -47 2 -12 32 -34 73 -48 91 -14 19 -25 41 -25 49 0 8 -18
52 -40 97 -39 81 -40 83 -22 103 19 21 49 70 75 119 16 31 128 150 176 187 18
14 43 35 54 46 28 28 43 24 40 -11z"/>
<path d="M1183 1630 c-36 -22 -38 -28 -22 -64 14 -30 34 -39 59 -26 10 6 47
10 81 10 47 0 65 -4 75 -17 29 -38 8 -143 -56 -278 -41 -86 -61 -119 -157
-267 -23 -37 -43 -71 -43 -76 0 -5 -11 -19 -25 -32 -14 -13 -25 -27 -25 -32 0
-16 -44 -68 -57 -68 -19 0 -16 24 7 53 24 30 26 55 4 64 -24 9 -122 -25 -134
-47 -13 -25 -13 -165 1 -214 8 -28 7 -66 -2 -142 -14 -124 -7 -150 57 -196 54
-38 122 -64 239 -89 50 -11 110 -24 135 -29 80 -17 236 -5 320 24 41 14 82 26
91 26 33 0 57 47 79 155 5 22 20 81 33 130 39 142 48 252 25 308 -19 49 -41
30 -59 -53 -9 -41 -23 -93 -31 -115 -30 -78 -67 -211 -73 -257 -4 -33 -12 -50
-28 -60 -75 -48 -249 -79 -333 -58 -27 6 -76 16 -108 21 -67 10 -159 49 -195
82 -33 30 -52 80 -45 116 4 17 7 61 8 98 1 66 1 67 31 74 83 19 154 78 147
122 -4 18 36 103 63 137 7 8 34 56 60 105 26 50 51 95 56 101 5 6 17 37 28 70
10 32 33 97 50 144 32 87 38 126 26 193 -10 55 -52 82 -148 96 -100 14 -96 14
-134 -9z"/>
<path d="M28 1023 c-23 -6 -33 -48 -19 -79 6 -14 11 -37 11 -52 0 -15 7 -54
15 -86 22 -83 25 -117 26 -236 0 -76 -4 -116 -16 -144 -13 -32 -14 -40 -3 -47
7 -5 15 -9 18 -9 23 0 70 77 70 114 0 13 7 29 15 36 11 9 15 35 15 104 0 152
-18 317 -37 338 -9 10 -21 28 -27 41 -11 22 -35 29 -68 20z"/>
</g>
</svg>
