<?xml version="1.0" standalone="no"?>
<!DOCTYPE svg PUBLIC "-//W3C//DTD SVG 20010904//EN"
 "http://www.w3.org/TR/2001/REC-SVG-20010904/DTD/svg10.dtd">
<svg version="1.0" xmlns="http://www.w3.org/2000/svg"
 width="206.000000pt" height="207.000000pt" viewBox="0 0 206.000000 207.000000"
 preserveAspectRatio="xMidYMid meet">
<metadata>
Created by potrace 1.16, written by Peter Selinger 2001-2019
</metadata>
<g transform="translate(0.000000,207.000000) scale(0.100000,-0.100000)"
fill="#000000" stroke="none">
<path d="M1043 1917 c-95 -54 -193 -114 -218 -134 -16 -13 -59 -45 -93 -71
-91 -67 -175 -130 -189 -142 -7 -5 -17 -10 -23 -10 -23 0 -108 -72 -115 -97
-11 -46 22 -77 84 -81 66 -4 116 23 125 69 6 34 48 79 71 79 7 0 23 17 35 38
12 22 36 47 53 57 18 10 50 33 71 52 39 33 56 40 56 25 0 -9 -39 -71 -111
-178 -26 -38 -61 -109 -79 -159 -38 -103 -75 -149 -154 -191 -49 -26 -109 -82
-140 -129 -20 -31 -1 -69 38 -73 23 -3 35 3 53 27 14 17 30 31 38 31 14 0 -7
-88 -46 -198 -10 -30 -19 -62 -19 -73 0 -10 -14 -48 -30 -85 -24 -51 -28 -69
-19 -80 20 -24 40 -16 89 36 53 56 73 58 110 7 l23 -31 -22 -39 c-25 -42 -58
-88 -152 -209 -34 -43 -72 -95 -85 -115 -14 -21 -39 -50 -56 -65 -25 -22 -29
-31 -23 -56 13 -60 87 -61 235 -5 99 37 126 53 182 105 35 31 45 47 39 57 -8
12 -16 13 -53 2 -24 -7 -64 -23 -90 -36 -59 -30 -116 -46 -123 -35 -4 7 99
155 131 187 6 7 24 32 40 57 16 25 32 46 36 46 4 0 22 -26 42 -58 19 -31 44
-68 55 -81 12 -13 22 -30 22 -38 1 -7 2 -19 3 -25 0 -7 15 -14 31 -15 17 -2
46 -5 66 -9 49 -8 69 20 69 94 0 42 8 71 36 128 32 64 42 75 78 89 22 9 59 31
81 49 22 18 72 50 110 71 39 20 84 49 100 64 17 14 47 35 68 46 35 18 37 18
49 2 12 -17 16 -16 45 13 18 17 35 39 38 48 3 9 22 28 41 42 20 14 51 39 68
56 17 18 50 43 72 57 73 45 109 117 60 117 -13 0 -26 -4 -28 -8 -5 -12 -99
-82 -111 -82 -11 0 -2 60 17 110 44 118 56 169 56 243 0 42 4 85 9 95 6 9 12
29 15 44 4 15 15 30 26 33 27 8 25 23 -6 51 -30 29 -84 32 -106 7 -10 -12 -23
-69 -34 -157 -22 -159 -21 -158 -132 -223 -80 -47 -126 -97 -113 -121 5 -10
21 -24 35 -31 23 -13 28 -11 77 28 28 22 56 41 62 41 15 0 -1 -96 -26 -160
-21 -52 -26 -57 -99 -95 -42 -22 -85 -47 -95 -56 -10 -10 -48 -31 -85 -47 -72
-32 -85 -27 -49 19 10 13 39 67 65 119 26 52 51 102 56 110 16 26 96 242 113
305 9 33 21 106 28 162 11 91 10 105 -5 127 -18 29 -43 33 -71 12 -16 -11 -21
-32 -27 -107 -10 -130 -38 -234 -113 -419 -31 -76 -32 -78 -68 -143 -18 -31
-52 -95 -77 -142 -25 -47 -48 -85 -52 -85 -5 0 -8 -5 -8 -11 0 -21 -103 -170
-111 -162 -10 10 -15 235 -11 433 3 127 23 296 42 345 11 29 13 104 4 129 -8
22 -29 20 -75 -6 -48 -27 -61 -17 -28 20 31 34 78 103 102 151 11 20 34 59 52
86 36 55 65 132 58 152 -6 16 -61 17 -90 0z m-143 -619 c-1 -13 -7 -50 -15
-83 -18 -76 -20 -480 -3 -673 13 -151 7 -173 -37 -132 -14 13 -25 28 -25 33 0
6 -6 18 -14 26 -8 9 -26 38 -40 65 -22 41 -25 57 -20 101 7 56 -6 95 -32 95
-8 0 -37 11 -65 25 -37 19 -49 30 -45 43 3 9 14 49 24 87 19 74 40 115 58 115
6 0 28 -16 48 -36 34 -33 37 -39 31 -79 -5 -32 -3 -43 8 -48 19 -7 57 19 57
40 0 9 6 24 14 32 24 26 -11 112 -69 171 -53 54 -54 70 -5 127 15 17 29 35 31
40 5 11 82 73 91 73 5 0 8 -10 8 -22z"/>
<path d="M262 886 c-21 -21 -22 -27 -16 -122 4 -63 3 -119 -5 -150 -6 -27 -13
-80 -16 -119 -5 -70 -21 -171 -35 -232 -8 -33 3 -53 30 -53 22 0 65 84 83 165
9 39 23 122 33 185 9 63 21 123 26 133 9 17 26 97 31 141 1 12 -7 25 -22 32
-13 7 -28 20 -33 28 -13 23 -49 19 -76 -8z"/>
<path d="M1547 574 c-1 -2 -21 -5 -43 -8 -79 -9 -119 -18 -141 -32 -12 -8 -28
-14 -35 -14 -7 0 -30 -11 -51 -25 -62 -43 -46 -105 26 -105 14 0 30 7 37 15
27 33 164 79 216 73 44 -5 44 -45 1 -118 -19 -32 -38 -68 -42 -79 -3 -12 -10
-21 -14 -21 -4 0 -31 -32 -60 -71 -44 -59 -101 -110 -121 -109 -3 1 -13 7 -24
15 -17 13 -17 20 -7 76 6 38 20 74 36 95 27 35 30 64 8 71 -17 6 -112 -93
-129 -133 -23 -56 -18 -132 12 -171 l25 -33 89 0 89 0 48 56 c26 30 50 61 53
68 3 7 22 33 43 58 63 77 109 182 115 264 l4 71 -33 25 c-28 21 -92 41 -102
32z"/>
</g>
</svg>
