<?xml version="1.0" standalone="no"?>
<!DOCTYPE svg PUBLIC "-//W3C//DTD SVG 20010904//EN"
 "http://www.w3.org/TR/2001/REC-SVG-20010904/DTD/svg10.dtd">
<svg version="1.0" xmlns="http://www.w3.org/2000/svg"
 width="209.000000pt" height="207.000000pt" viewBox="0 0 209.000000 207.000000"
 preserveAspectRatio="xMidYMid meet">
<metadata>
Created by potrace 1.16, written by Peter Selinger 2001-2019
</metadata>
<g transform="translate(0.000000,207.000000) scale(0.100000,-0.100000)"
fill="#000000" stroke="none">
<path d="M1620 1927 c-57 -21 -154 -92 -246 -182 -114 -110 -135 -128 -141
-122 -10 10 17 189 34 226 14 32 14 35 -3 48 -26 19 -88 17 -106 -4 -11 -13
-15 -43 -15 -109 -1 -53 -7 -112 -16 -140 -8 -27 -22 -74 -31 -104 -9 -31 -25
-70 -36 -88 -26 -42 -25 -56 2 -82 25 -23 63 -26 75 -6 7 13 177 198 243 265
42 42 123 111 132 111 11 0 -2 -27 -57 -118 -27 -45 -61 -101 -75 -124 -16
-26 -37 -45 -55 -51 -50 -16 -83 -45 -91 -79 -3 -18 -10 -39 -15 -48 -4 -8
-19 -55 -33 -105 -66 -228 -100 -306 -175 -397 -42 -51 -61 -77 -61 -83 0 -4
-32 -41 -71 -83 -39 -43 -83 -95 -97 -117 -14 -22 -38 -56 -54 -75 -15 -19
-28 -42 -28 -50 0 -26 28 -57 57 -63 22 -4 34 2 65 36 52 56 175 212 251 318
98 136 140 185 172 205 17 10 35 25 42 33 19 25 15 -2 -4 -29 -10 -14 -27 -43
-39 -65 -36 -69 -93 -158 -118 -185 -13 -14 -27 -35 -31 -48 -3 -12 -16 -34
-29 -50 -12 -15 -34 -48 -49 -74 -23 -39 -34 -48 -65 -54 -53 -10 -96 -37
-106 -67 -11 -30 6 -57 35 -57 28 0 23 -20 -16 -76 -45 -63 -72 -118 -89 -183
l-13 -51 47 0 c51 0 54 4 76 80 4 14 22 42 41 63 19 21 39 49 45 63 6 13 14
24 18 24 4 0 22 28 40 62 58 112 89 129 160 88 58 -33 152 -76 205 -95 28 -10
57 -24 65 -30 8 -7 51 -29 95 -50 44 -20 100 -47 125 -59 84 -42 130 -43 130
-4 0 12 -12 24 -36 34 -20 8 -71 39 -114 68 -43 30 -139 84 -214 121 -75 37
-136 71 -136 75 0 5 -8 11 -17 14 -10 3 -30 16 -45 28 -14 13 -34 28 -44 34
-21 12 -20 13 36 109 43 75 83 144 99 174 8 14 27 42 42 62 16 20 54 85 85
145 47 91 57 119 60 172 l4 62 -28 0 c-33 0 -57 -15 -142 -93 -36 -32 -74 -64
-84 -69 -17 -9 -18 -7 -13 18 43 194 70 264 120 317 76 79 156 171 183 212 15
22 37 53 50 68 13 16 24 35 24 43 0 8 5 14 10 14 6 0 10 5 10 10 0 6 9 23 20
38 34 48 25 143 -14 142 -6 -1 -27 -7 -46 -13z"/>
<path d="M817 1750 c-30 -22 -64 -40 -74 -40 -10 0 -29 -8 -43 -17 -28 -19
-164 -89 -229 -117 -25 -10 -68 -42 -98 -71 -44 -42 -53 -57 -53 -86 0 -69 58
-102 128 -73 31 13 36 21 33 56 -3 22 60 85 117 118 24 14 59 35 79 48 19 13
37 21 39 20 3 -4 -53 -119 -101 -207 -32 -60 -74 -109 -103 -120 -27 -11 -57
-29 -182 -106 -139 -87 -187 -180 -103 -201 21 -6 31 -1 51 22 26 29 181 144
195 144 14 0 -4 -42 -58 -135 -122 -210 -144 -278 -107 -318 34 -38 45 -93 38
-185 -8 -100 -36 -168 -101 -240 -25 -28 -45 -59 -45 -70 0 -22 34 -52 58 -52
33 0 135 114 183 206 6 11 24 28 39 38 16 9 32 25 35 36 9 28 22 25 40 -10 18
-35 60 -50 81 -28 11 11 16 48 19 149 2 75 11 175 19 225 9 49 16 112 17 139
1 28 11 79 21 115 10 36 23 101 28 145 5 44 17 100 28 125 22 51 28 136 11
156 -9 11 -4 29 21 79 17 35 42 75 54 87 52 55 72 101 68 156 -3 46 -6 52 -26
52 -13 0 -48 -18 -79 -40z m-239 -755 c8 -18 8 -53 -3 -142 -8 -64 -15 -153
-15 -198 0 -105 -9 -119 -46 -75 -16 18 -41 53 -56 76 -15 23 -35 47 -46 53
-38 20 -36 40 12 116 11 17 24 35 30 40 15 14 81 116 89 138 9 24 22 21 35 -8z
m-84 -533 c-6 -9 -21 -18 -33 -20 -22 -4 -27 18 -14 66 l6 24 26 -26 c21 -21
24 -30 15 -44z"/>
<path d="M41 914 c-25 -18 -25 -27 -2 -139 12 -63 13 -284 0 -350 -16 -84 -31
-217 -25 -223 11 -10 56 21 62 42 4 12 12 28 19 36 29 35 54 222 68 505 2 32
6 40 26 45 14 3 26 11 28 17 6 16 -33 53 -56 53 -10 0 -24 7 -31 15 -16 20
-60 19 -89 -1z"/>
</g>
</svg>
