<?xml version="1.0" standalone="no"?>
<!DOCTYPE svg PUBLIC "-//W3C//DTD SVG 20010904//EN"
 "http://www.w3.org/TR/2001/REC-SVG-20010904/DTD/svg10.dtd">
<svg version="1.0" xmlns="http://www.w3.org/2000/svg"
 width="207.000000pt" height="216.000000pt" viewBox="0 0 207.000000 216.000000"
 preserveAspectRatio="xMidYMid meet">
<metadata>
Created by potrace 1.16, written by Peter Selinger 2001-2019
</metadata>
<g transform="translate(0.000000,216.000000) scale(0.100000,-0.100000)"
fill="#000000" stroke="none">
<path d="M992 2117 c-26 -24 -61 -52 -78 -61 -35 -21 -84 -93 -84 -124 0 -23
34 -52 61 -52 10 0 33 22 52 49 20 27 53 62 74 77 21 16 43 34 48 39 6 6 43
33 83 59 39 27 72 51 72 53 0 1 -41 3 -90 3 l-91 0 -47 -43z"/>
<path d="M1370 2094 c-16 -37 -30 -70 -30 -74 0 -11 -59 -161 -75 -190 -7 -14
-22 -62 -34 -106 -32 -132 -41 -146 -107 -180 -188 -97 -260 -136 -268 -144
-6 -6 -18 -10 -27 -10 -9 0 -22 -6 -28 -14 -12 -15 -137 -89 -221 -132 -30
-15 -73 -40 -95 -55 -41 -27 -64 -41 -200 -116 -96 -53 -115 -69 -115 -98 0
-25 29 -55 52 -55 9 0 45 16 80 35 34 19 74 40 88 47 14 7 100 58 191 115 92
57 171 103 177 103 5 0 15 7 23 16 7 9 21 13 34 10 12 -3 30 1 41 9 35 27 44
19 44 -40 0 -42 -4 -55 -15 -55 -18 0 -42 -36 -55 -81 -11 -37 5 -73 38 -83
23 -8 28 -73 8 -101 -12 -16 -18 -17 -39 -8 -35 16 -52 77 -51 181 0 45 -1 82
-3 82 -2 0 -13 -21 -25 -47 -30 -67 -27 -177 5 -235 18 -33 32 -45 63 -54 l39
-11 -4 -64 c-4 -72 -16 -103 -37 -95 -7 3 -18 -3 -23 -12 -5 -10 -33 -24 -63
-31 -118 -30 -188 -75 -188 -122 0 -11 17 -30 42 -46 51 -31 157 -137 177
-174 12 -24 11 -29 -5 -46 -11 -10 -28 -30 -39 -43 -11 -14 -39 -41 -63 -60
-38 -30 -43 -38 -40 -70 l3 -35 60 1 c33 0 85 6 115 13 30 7 69 14 85 16 17 2
55 9 85 15 59 12 223 37 305 46 28 3 174 7 325 8 245 3 279 5 303 21 30 19 31
23 17 59 -10 27 -43 36 -56 15 -4 -7 -25 -9 -63 -4 -73 9 -276 17 -371 14 -41
-1 -115 -3 -165 -5 -105 -3 -227 -17 -303 -34 -60 -13 -84 -4 -58 23 62 62
162 192 185 242 34 72 49 180 29 208 -9 12 -37 22 -86 29 l-73 12 7 55 c8 69
26 105 62 128 85 55 160 120 226 196 29 33 51 120 37 145 -25 46 -47 55 -123
49 -40 -3 -90 -13 -112 -22 -21 -9 -41 -14 -44 -11 -3 3 -5 34 -5 67 0 58 2
64 34 90 19 16 99 61 179 100 192 94 280 139 310 159 14 9 50 22 80 30 68 16
90 29 83 49 -15 42 -59 51 -120 25 -21 -9 -47 -20 -58 -24 -11 -3 -40 -16 -65
-28 -51 -24 -120 -52 -127 -52 -12 0 8 73 47 170 23 58 50 130 61 160 11 30
28 73 38 95 10 22 21 52 25 68 6 27 6 27 -44 27 l-50 0 -30 -66z m-174 -956
c-3 -18 -21 -48 -39 -66 -41 -43 -142 -122 -156 -122 -15 0 -3 72 19 125 18
41 35 54 105 79 67 24 79 21 71 -16z m-168 -580 c4 -23 -35 -101 -64 -129
l-22 -21 -7 31 c-11 51 4 121 29 131 31 13 60 7 64 -12z m-203 -115 c-4 -49
-7 -96 -6 -105 0 -10 -3 -18 -6 -18 -9 0 -64 58 -98 104 l-29 38 23 19 c13 11
33 19 46 19 12 0 28 7 35 15 7 8 19 15 27 15 13 0 14 -13 8 -87z"/>
<path d="M998 1852 c-57 -7 -62 -68 -7 -79 21 -4 29 -11 29 -27 0 -25 -44 -70
-76 -80 -29 -9 -56 -41 -52 -62 1 -9 16 -26 31 -38 l28 -21 37 20 c20 11 38
29 40 40 6 33 34 89 53 105 24 21 34 74 16 92 -8 8 -17 23 -19 34 -3 19 -21
23 -80 16z"/>
<path d="M530 1776 c-5 -15 -10 -35 -10 -45 0 -25 32 -51 62 -51 34 0 63 -37
100 -128 17 -44 47 -40 64 9 17 51 6 92 -41 148 -54 64 -79 82 -126 88 -35 5
-39 3 -49 -21z"/>
</g>
</svg>
