<?xml version="1.0" standalone="no"?>
<!DOCTYPE svg PUBLIC "-//W3C//DTD SVG 20010904//EN"
 "http://www.w3.org/TR/2001/REC-SVG-20010904/DTD/svg10.dtd">
<svg version="1.0" xmlns="http://www.w3.org/2000/svg"
 width="206.000000pt" height="214.000000pt" viewBox="0 0 206.000000 214.000000"
 preserveAspectRatio="xMidYMid meet">
<metadata>
Created by potrace 1.16, written by Peter Selinger 2001-2019
</metadata>
<g transform="translate(0.000000,214.000000) scale(0.100000,-0.100000)"
fill="#000000" stroke="none">
<path d="M1046 2122 c-17 -10 -38 -39 -53 -72 -24 -52 -101 -277 -139 -405 -9
-33 -41 -107 -71 -165 -29 -57 -53 -109 -53 -116 0 -30 -94 -225 -147 -305
-15 -23 -35 -53 -44 -66 -9 -13 -51 -57 -94 -98 -44 -41 -72 -75 -66 -79 5 -4
18 -2 28 3 10 5 38 19 63 31 52 25 109 77 151 138 21 29 37 42 53 42 13 0 35
11 50 25 15 14 31 25 35 25 5 0 26 14 47 31 21 17 71 46 110 65 40 19 77 41
84 49 7 8 18 15 25 15 8 0 27 11 43 25 17 14 35 25 41 25 6 0 11 5 11 10 0 6
5 10 11 10 7 0 34 16 60 35 27 19 52 35 57 35 4 0 34 18 67 40 33 22 75 45 93
51 27 9 33 15 30 36 -4 36 -32 52 -60 34 -12 -8 -82 -44 -154 -81 -72 -37
-160 -88 -195 -112 -57 -41 -215 -118 -239 -118 -19 0 -9 27 54 150 35 69 87
190 114 270 64 184 76 211 105 246 25 31 45 100 49 172 2 35 -1 47 -17 57 -17
12 -24 11 -49 -3z"/>
<path d="M1275 1718 c-27 -4 -84 -11 -125 -17 -54 -7 -78 -15 -85 -27 -5 -10
-20 -28 -33 -40 -20 -19 -20 -23 -7 -34 18 -15 121 -9 205 13 30 8 71 18 90
21 19 4 46 16 59 27 21 17 22 23 13 44 -13 27 -17 28 -117 13z"/>
<path d="M1142 1273 c-15 -3 -28 -17 -38 -39 -7 -19 -20 -49 -28 -66 -8 -21
-35 -48 -72 -72 -33 -22 -69 -49 -81 -59 -12 -11 -31 -25 -41 -31 -11 -6 -46
-29 -78 -50 -32 -22 -93 -61 -134 -88 -160 -102 -171 -114 -145 -154 11 -18
25 -24 50 -24 32 0 34 -2 23 -20 -9 -13 -9 -27 -2 -47 13 -37 74 -55 101 -30
10 9 39 21 63 26 25 6 93 24 153 40 63 17 110 25 113 19 3 -5 3 -28 0 -51 -7
-46 -61 -111 -130 -157 -21 -14 -52 -36 -69 -50 -18 -14 -48 -34 -67 -44 -19
-11 -60 -41 -90 -67 -30 -26 -75 -57 -99 -70 -24 -13 -51 -28 -60 -34 -9 -5
-46 -27 -84 -48 -59 -33 -67 -42 -67 -67 0 -37 20 -47 87 -45 45 2 63 9 137
58 47 32 90 57 96 57 6 0 45 16 86 35 41 19 78 35 83 35 12 0 163 56 221 81
25 11 70 24 100 28 49 8 113 22 220 51 176 47 306 48 334 4 9 -13 22 -24 30
-24 24 0 141 68 144 84 3 15 -37 39 -56 34 -4 -1 -16 3 -27 9 -36 20 -210 35
-260 22 -16 -4 -64 -13 -105 -20 -41 -6 -106 -20 -145 -30 -38 -10 -92 -21
-120 -25 -27 -4 -86 -19 -130 -34 -110 -37 -150 -50 -159 -50 -14 0 86 81 124
100 27 14 42 30 50 55 6 19 20 41 29 47 10 7 44 44 75 82 46 57 55 73 50 95
-9 37 -23 51 -50 51 -12 0 -25 3 -28 8 -9 14 16 257 29 277 7 11 16 35 20 53
4 19 19 42 36 54 41 31 39 65 -6 84 -35 14 -42 15 -83 7z m-90 -373 c-3 -103
-5 -112 -25 -120 -32 -12 -194 -48 -252 -56 -27 -4 -54 -9 -60 -12 -5 -3 -16
-7 -25 -9 -8 -1 -28 -5 -45 -9 l-30 -7 24 27 c14 14 29 26 35 26 5 0 24 15 41
33 41 41 55 52 100 77 31 17 85 59 180 138 22 19 47 31 55 27 3 -2 4 -53 2
-115z"/>
</g>
</svg>
