<?xml version="1.0" standalone="no"?>
<!DOCTYPE svg PUBLIC "-//W3C//DTD SVG 20010904//EN"
 "http://www.w3.org/TR/2001/REC-SVG-20010904/DTD/svg10.dtd">
<svg version="1.0" xmlns="http://www.w3.org/2000/svg"
 width="209.000000pt" height="213.000000pt" viewBox="0 0 209.000000 213.000000"
 preserveAspectRatio="xMidYMid meet">
<metadata>
Created by potrace 1.16, written by Peter Selinger 2001-2019
</metadata>
<g transform="translate(0.000000,213.000000) scale(0.100000,-0.100000)"
fill="#000000" stroke="none">
<path d="M948 2105 c-10 -13 -18 -32 -18 -42 0 -18 -39 -108 -61 -143 -5 -8
-25 -48 -45 -89 -49 -104 -131 -225 -201 -296 -32 -33 -83 -91 -113 -130 -56
-72 -108 -126 -147 -152 -26 -17 -29 -31 -10 -39 37 -14 182 91 238 172 15 23
53 58 82 78 30 19 57 42 60 50 4 10 20 15 48 14 25 0 47 5 53 13 22 28 78 69
87 63 5 -3 9 -59 9 -125 l0 -119 -40 6 c-31 5 -45 3 -60 -11 -26 -23 -25 -60
0 -85 25 -25 25 -42 3 -62 -28 -23 -84 -48 -110 -48 -13 0 -34 -11 -46 -25
-61 -70 -114 -119 -162 -150 -52 -33 -105 -91 -105 -113 0 -7 -4 -12 -9 -12
-5 0 -14 -12 -20 -27 -7 -16 -21 -46 -32 -67 -14 -27 -20 -52 -17 -80 5 -44 2
-48 -64 -92 -59 -38 -45 -85 25 -87 24 -1 46 8 73 30 21 16 50 36 64 43 14 7
34 22 45 32 34 33 143 100 153 94 10 -6 25 -156 26 -261 1 -66 0 -70 -22 -73
-13 -2 -29 1 -36 7 -32 27 -146 80 -193 89 -69 15 -143 -7 -143 -43 0 -29 14
-40 91 -70 34 -14 72 -33 83 -43 29 -26 100 -44 141 -36 25 4 41 1 62 -14 37
-26 80 -33 94 -16 21 26 37 134 32 215 l-6 79 34 0 c46 0 96 33 165 108 46 50
62 62 80 58 31 -8 83 20 130 70 37 39 90 71 101 60 3 -2 -8 -29 -24 -58 -16
-29 -38 -86 -47 -125 l-18 -73 -49 -6 c-34 -5 -59 -16 -86 -39 -35 -30 -37
-34 -25 -57 12 -23 10 -27 -42 -79 -76 -74 -102 -96 -129 -110 -12 -6 -29 -19
-37 -29 -8 -10 -43 -32 -77 -50 -48 -24 -63 -37 -63 -54 0 -27 9 -40 38 -55
24 -13 35 -11 152 29 136 46 156 53 196 71 22 11 46 19 52 19 7 0 22 6 33 12
17 11 23 10 38 -8 17 -22 53 -44 69 -44 11 0 32 45 32 71 0 13 12 25 38 35 20
9 45 20 54 25 10 5 28 9 40 9 13 0 46 12 73 25 31 16 88 31 150 40 56 7 114
19 130 25 35 13 55 -1 35 -25 -7 -8 -19 -15 -27 -15 -19 0 -12 -34 8 -38 8 -1
31 9 50 23 18 14 42 28 53 31 15 6 17 14 13 46 -6 48 -6 48 -53 58 -67 15
-248 -14 -429 -69 -55 -17 -113 -31 -128 -31 -29 0 -29 0 -24 52 11 136 27
193 88 324 51 109 57 147 29 167 -22 15 -22 16 -5 49 45 87 38 139 -23 163
-22 9 -49 29 -61 45 -15 21 -30 30 -50 30 -27 0 -61 -26 -61 -46 0 -25 -42
-93 -67 -109 -15 -10 -44 -34 -63 -52 -19 -19 -46 -41 -60 -49 -14 -9 -45 -41
-70 -72 -25 -30 -57 -69 -72 -85 -16 -17 -28 -35 -28 -41 -1 -6 -14 -27 -30
-46 l-30 -34 0 34 c0 19 9 46 20 60 28 35 24 66 -14 137 -30 57 -32 63 -18 85
19 29 135 116 167 124 22 5 25 3 25 -19 0 -35 22 -49 64 -42 28 6 36 13 41 36
4 16 4 42 0 58 -6 28 -2 32 67 79 95 64 187 108 240 117 24 4 57 14 73 23 17
9 53 21 80 27 54 12 68 32 36 52 -16 10 -38 10 -98 2 -43 -6 -87 -15 -98 -19
-11 -5 -51 -16 -89 -24 -38 -8 -82 -24 -97 -35 -37 -27 -111 -44 -121 -28 -4
7 -7 68 -6 137 1 106 -2 135 -21 192 l-23 68 -39 -6 c-45 -8 -49 3 -18 51 10
17 23 39 28 51 12 28 54 54 87 54 24 0 26 -2 20 -34 -4 -19 -3 -37 2 -40 16
-10 47 6 71 36 22 27 23 33 12 69 -7 21 -16 39 -21 39 -4 0 -22 12 -39 26 -23
19 -31 34 -31 58 0 24 -7 38 -30 54 -38 28 -61 27 -82 -3z m360 -1058 c4 -19
-98 -141 -121 -145 -24 -5 -21 10 11 51 15 20 40 55 55 77 28 41 49 48 55 17z
m-248 -120 c0 -19 -170 -223 -216 -259 -31 -25 -37 -20 -19 16 8 16 15 35 15
43 0 8 15 29 33 47 17 19 48 52 67 75 34 40 97 91 112 91 5 0 8 -6 8 -13z
m-384 -59 c4 -6 -4 -21 -20 -35 -46 -39 -62 -26 -25 21 22 28 34 32 45 14z
m-215 -41 l-23 -22 17 28 c10 15 20 25 23 22 3 -3 -5 -16 -17 -28z m666 -466
c11 -17 8 -22 -20 -38 -39 -24 -98 -45 -105 -38 -8 7 29 45 44 45 6 0 22 11
35 25 29 30 31 30 46 6z"/>
</g>
</svg>
