<?xml version="1.0" standalone="no"?>
<!DOCTYPE svg PUBLIC "-//W3C//DTD SVG 20010904//EN"
 "http://www.w3.org/TR/2001/REC-SVG-20010904/DTD/svg10.dtd">
<svg version="1.0" xmlns="http://www.w3.org/2000/svg"
 width="208.000000pt" height="214.000000pt" viewBox="0 0 208.000000 214.000000"
 preserveAspectRatio="xMidYMid meet">
<metadata>
Created by potrace 1.16, written by Peter Selinger 2001-2019
</metadata>
<g transform="translate(0.000000,214.000000) scale(0.100000,-0.100000)"
fill="#000000" stroke="none">
<path d="M875 1791 c-31 -18 -30 -16 -110 -246 -15 -44 -36 -102 -46 -130 -11
-27 -30 -93 -43 -145 -46 -187 -73 -250 -107 -250 -28 0 -62 -19 -82 -46 -22
-29 -9 -61 28 -70 14 -3 25 -7 25 -9 0 -11 -67 -156 -86 -187 -13 -20 -24 -41
-24 -46 0 -5 -20 -35 -45 -68 -88 -117 -95 -127 -95 -146 0 -18 2 -18 39 2 22
11 44 26 48 34 23 40 165 174 231 217 41 27 78 49 82 49 18 0 -4 -167 -31
-247 -33 -94 -35 -114 -13 -148 25 -38 67 -33 110 13 34 35 163 199 193 245 8
12 27 36 41 52 58 65 135 198 125 215 -8 13 -35 1 -35 -16 0 -8 -3 -14 -7 -14
-7 0 -72 -55 -108 -90 -59 -59 -105 -110 -105 -118 0 -13 -59 -76 -65 -70 -7
6 11 182 24 241 9 41 22 60 84 120 41 40 86 82 101 94 20 17 27 30 24 50 -4
40 -47 43 -99 7 -40 -27 -56 -27 -45 1 3 8 19 18 35 21 39 8 74 55 78 104 4
37 2 40 -22 40 -26 0 -105 -44 -105 -58 0 -4 -12 -13 -27 -19 -16 -6 -43 -22
-62 -34 l-34 -23 7 38 c15 78 31 110 66 132 19 13 43 29 52 38 9 8 29 23 45
33 46 30 64 47 79 75 12 23 12 29 -1 42 -14 13 -19 13 -53 -1 -20 -8 -46 -23
-58 -34 -25 -24 -44 -24 -44 -1 0 26 46 160 73 217 14 28 34 59 46 69 28 26
28 63 -1 71 -46 13 -54 13 -83 -4z m-170 -874 c-7 -16 -34 -31 -43 -23 -2 3 3
17 13 32 18 27 41 21 30 -9z"/>
<path d="M1425 1786 c-14 -10 -20 -28 -21 -63 -1 -26 -7 -115 -12 -197 -9
-122 -14 -151 -29 -165 -24 -22 -124 -82 -198 -119 -111 -56 -133 -108 -55
-128 36 -10 44 -8 112 28 40 22 80 46 90 55 9 8 18 10 21 6 8 -12 -24 -236
-53 -376 -5 -27 -14 -130 -20 -230 -6 -100 -15 -209 -19 -242 -4 -33 -7 -87
-5 -120 1 -33 3 -99 3 -147 l1 -88 49 0 49 0 5 213 c5 235 29 529 52 652 8 44
19 114 25 155 29 218 36 246 64 269 9 7 16 21 17 30 0 14 34 45 133 121 45 34
86 89 79 106 -8 21 -56 17 -83 -6 -13 -11 -28 -20 -35 -20 -6 0 -28 -16 -49
-35 -21 -19 -43 -35 -49 -35 -6 0 -7 27 -2 78 4 42 9 93 10 112 2 19 6 49 10
67 13 69 -40 115 -90 79z"/>
</g>
</svg>
