<?xml version="1.0" standalone="no"?>
<!DOCTYPE svg PUBLIC "-//W3C//DTD SVG 20010904//EN"
 "http://www.w3.org/TR/2001/REC-SVG-20010904/DTD/svg10.dtd">
<svg version="1.0" xmlns="http://www.w3.org/2000/svg"
 width="207.000000pt" height="220.000000pt" viewBox="0 0 207.000000 220.000000"
 preserveAspectRatio="xMidYMid meet">
<metadata>
Created by potrace 1.16, written by Peter Selinger 2001-2019
</metadata>
<g transform="translate(0.000000,220.000000) scale(0.100000,-0.100000)"
fill="#000000" stroke="none">
<path d="M578 1813 c-27 -13 -37 -35 -36 -78 0 -11 -7 -56 -15 -100 -9 -44
-21 -105 -27 -135 -10 -54 -52 -195 -110 -375 -16 -49 -36 -117 -45 -150 -9
-33 -39 -107 -67 -165 -48 -99 -119 -285 -138 -357 -14 -57 22 -42 66 27 36
55 41 59 69 54 31 -5 75 24 204 137 24 22 48 39 52 39 5 0 9 -22 9 -48 0 -38
5 -53 23 -70 33 -31 48 -28 105 25 28 27 87 82 132 123 45 41 91 93 102 114
11 22 27 46 34 54 19 18 18 52 -2 52 -18 0 -90 -55 -146 -111 -21 -21 -58 -52
-83 -69 -38 -26 -46 -29 -51 -16 -12 32 6 63 56 94 34 21 50 38 50 52 0 28
-45 45 -78 30 -22 -9 -23 -9 -16 7 4 10 8 37 9 60 0 24 6 48 13 55 7 7 12 18
12 24 0 7 12 19 27 26 32 15 56 58 47 82 -9 24 -25 20 -100 -29 -49 -32 -79
-45 -106 -45 -27 0 -38 -5 -43 -19 -5 -18 -33 -36 -41 -28 -8 7 74 258 88 272
3 4 11 -3 18 -14 15 -28 38 -26 73 7 24 23 36 27 78 25 39 -2 51 2 59 17 15
27 12 66 -5 80 -22 19 -137 4 -170 -22 -14 -11 -28 -18 -31 -15 -11 10 28 171
44 183 9 6 13 18 9 27 -3 9 -2 19 3 22 11 7 14 134 4 159 -7 19 -39 19 -76 -1z
m-93 -843 c4 -6 21 -8 42 -4 32 6 34 5 25 -12 -5 -11 -12 -41 -16 -67 -5 -45
-33 -86 -59 -87 -4 0 -32 -20 -63 -45 -30 -25 -61 -45 -69 -45 -19 0 -19 24 0
40 23 19 61 93 85 165 20 61 40 80 55 55z"/>
<path d="M1220 1774 l-33 -14 8 -58 c5 -31 9 -108 9 -171 l1 -115 -97 -65
c-97 -66 -138 -106 -138 -134 0 -17 50 -57 72 -57 7 0 44 27 81 60 73 64 82
68 91 45 16 -42 4 -419 -21 -680 -8 -88 -17 -198 -19 -245 -1 -47 -5 -128 -8
-182 -3 -53 -3 -110 0 -127 6 -30 9 -31 55 -31 48 0 49 0 50 33 3 205 11 401
19 487 26 287 33 392 34 585 3 229 14 295 63 345 37 39 63 72 63 81 0 13 -30
39 -45 39 -7 0 -27 -11 -43 -25 -17 -14 -32 -25 -34 -25 -3 0 -5 44 -5 98 0
143 -29 187 -103 156z m84 -585 c-10 -16 -24 -9 -24 12 0 18 2 19 15 9 8 -7
12 -16 9 -21z"/>
</g>
</svg>
