<?xml version="1.0" standalone="no"?>
<!DOCTYPE svg PUBLIC "-//W3C//DTD SVG 20010904//EN"
 "http://www.w3.org/TR/2001/REC-SVG-20010904/DTD/svg10.dtd">
<svg version="1.0" xmlns="http://www.w3.org/2000/svg"
 width="208.000000pt" height="213.000000pt" viewBox="0 0 208.000000 213.000000"
 preserveAspectRatio="xMidYMid meet">
<metadata>
Created by potrace 1.16, written by Peter Selinger 2001-2019
</metadata>
<g transform="translate(0.000000,213.000000) scale(0.100000,-0.100000)"
fill="#000000" stroke="none">
<path d="M1200 1773 c-8 -4 -38 -22 -65 -42 -28 -20 -66 -45 -85 -55 -34 -19
-122 -85 -183 -137 -25 -21 -29 -30 -23 -53 4 -15 14 -30 24 -33 9 -3 25 -12
34 -20 21 -19 53 -3 61 29 6 24 83 105 91 97 5 -5 -19 -201 -33 -269 -16 -76
-36 -396 -36 -565 1 -119 5 -174 18 -215 9 -30 17 -87 19 -125 l3 -70 -30 1
c-58 2 -190 26 -203 36 -7 6 -53 11 -102 12 -144 2 -141 -33 5 -69 39 -9 79
-20 90 -25 52 -20 126 -42 190 -56 111 -25 130 -27 142 -12 19 23 31 106 22
151 -48 251 -53 289 -53 417 -1 74 5 200 13 280 16 169 57 438 70 454 5 6 15
31 22 56 8 25 31 70 52 101 33 47 38 62 32 88 -5 26 -11 31 -33 30 -15 0 -34
-3 -42 -6z"/>
<path d="M180 1719 c-19 -11 -40 -19 -48 -19 -7 0 -16 -10 -21 -22 -16 -40
-40 -170 -46 -248 -3 -41 -14 -111 -25 -155 -32 -136 -40 -217 -40 -422 1
-172 3 -195 14 -173 8 14 21 60 30 103 18 91 23 102 39 89 32 -25 66 -22 99 7
78 69 148 121 163 121 15 0 0 -24 -37 -57 -188 -167 -298 -289 -298 -329 0
-31 39 -49 73 -33 19 10 159 172 203 237 30 44 41 28 50 -70 5 -51 8 -97 8
-103 -1 -5 -4 -42 -8 -82 -6 -65 -5 -74 13 -92 42 -42 65 -30 151 81 41 53
111 201 108 228 -3 23 -8 20 -67 -43 -36 -37 -71 -67 -78 -67 -7 0 -16 12 -19
26 -12 45 15 278 37 332 13 31 12 34 -10 51 l-23 18 28 21 c67 48 156 142 151
157 -7 17 -62 21 -72 5 -6 -10 -154 -110 -162 -110 -2 0 -28 -19 -58 -42 -29
-24 -83 -63 -120 -88 -36 -25 -79 -56 -96 -69 -16 -13 -32 -21 -35 -18 -5 5 6
71 37 218 9 43 11 45 40 41 25 -4 38 3 72 36 51 49 224 163 312 205 37 18 85
75 78 93 -10 28 -43 26 -101 -7 -31 -18 -102 -56 -157 -84 -55 -28 -119 -63
-142 -78 -24 -15 -47 -27 -53 -27 -11 0 -4 72 11 105 12 26 39 135 39 156 0 9
7 30 16 47 16 33 12 67 -9 75 -7 2 -28 -4 -47 -14z"/>
</g>
</svg>
