<?xml version="1.0" standalone="no"?>
<!DOCTYPE svg PUBLIC "-//W3C//DTD SVG 20010904//EN"
 "http://www.w3.org/TR/2001/REC-SVG-20010904/DTD/svg10.dtd">
<svg version="1.0" xmlns="http://www.w3.org/2000/svg"
 width="208.000000pt" height="212.000000pt" viewBox="0 0 208.000000 212.000000"
 preserveAspectRatio="xMidYMid meet">
<metadata>
Created by potrace 1.16, written by Peter Selinger 2001-2019
</metadata>
<g transform="translate(0.000000,212.000000) scale(0.100000,-0.100000)"
fill="#000000" stroke="none">
<path d="M676 1999 c-21 -31 -25 -44 -16 -54 17 -21 -15 -333 -50 -480 -16
-69 -58 -201 -81 -255 -41 -98 -48 -116 -63 -140 -8 -14 -35 -78 -61 -142 -26
-65 -59 -137 -74 -160 -15 -24 -41 -68 -58 -98 -16 -30 -44 -75 -60 -100 -31
-46 -96 -173 -109 -213 -4 -12 -24 -51 -46 -86 -37 -62 -43 -91 -17 -91 21 0
100 90 123 139 12 25 36 66 54 90 17 24 32 49 32 54 0 8 26 51 78 127 1 2 11
-1 21 -7 14 -9 27 -6 62 13 49 28 159 132 159 150 0 7 7 14 15 18 8 3 20 17
27 31 19 42 38 31 37 -22 0 -61 -25 -274 -38 -333 -5 -25 -17 -87 -27 -138
l-18 -93 30 -24 c16 -13 34 -24 40 -25 14 0 247 229 259 256 6 12 31 46 57 76
27 29 54 62 62 73 21 30 28 13 12 -31 -13 -37 -86 -199 -106 -236 -16 -28 -12
-48 9 -48 18 0 87 100 109 160 5 14 25 59 44 100 19 41 50 120 68 175 18 55
38 116 45 135 7 19 18 54 24 78 l12 43 67 -59 c37 -32 75 -62 85 -65 32 -12
23 -43 -65 -225 -22 -45 -43 -82 -47 -82 -11 0 -32 -50 -26 -61 12 -19 35 -8
75 39 42 47 107 141 118 171 3 9 17 31 30 49 25 33 56 40 110 26 28 -8 28 -27
2 -198 -44 -285 -52 -321 -71 -339 -11 -10 -19 -27 -19 -38 0 -27 40 -79 60
-79 50 0 78 96 126 434 41 298 46 329 64 441 19 113 26 189 35 380 3 61 11
171 17 245 13 152 13 299 0 312 -13 13 -78 -16 -90 -39 -14 -24 -167 -179
-375 -378 l-167 -159 0 -81 c0 -116 -16 -252 -47 -395 l-26 -125 -159 -155
c-151 -148 -209 -200 -222 -200 -9 0 -7 46 3 74 10 25 14 54 31 252 5 62 14
124 20 138 5 15 10 45 10 67 0 33 4 41 24 49 43 16 42 80 -1 80 -17 0 -65 30
-76 47 -4 7 -21 13 -37 13 -38 0 -54 -29 -45 -80 6 -38 5 -41 -51 -92 -32 -29
-72 -68 -89 -85 -36 -38 -45 -41 -45 -13 0 11 4 20 9 20 4 0 32 54 60 119 50
113 54 120 81 119 27 -1 117 62 229 158 20 17 50 39 68 47 24 13 30 21 26 37
-10 39 -40 45 -97 19 -28 -13 -64 -33 -81 -45 -16 -12 -45 -29 -64 -39 l-34
-17 6 29 c3 15 15 64 27 108 32 120 38 149 59 280 11 66 29 138 40 160 12 21
21 50 21 63 0 14 14 40 30 59 17 18 30 38 30 44 0 6 -13 24 -29 40 -25 24 -38
29 -79 29 -47 0 -51 -2 -76 -41z m1008 -416 c-3 -60 -8 -153 -12 -207 l-7
-100 -48 -24 c-35 -17 -52 -33 -64 -60 -8 -20 -19 -45 -24 -54 -5 -10 -9 -22
-9 -28 0 -6 -8 -29 -19 -53 -10 -23 -24 -61 -31 -85 -23 -75 -29 -78 -78 -36
-23 20 -49 49 -58 66 -13 26 -20 29 -51 26 l-36 -3 2 70 c3 91 5 98 42 112 29
11 31 15 25 48 -6 31 -2 42 47 107 30 40 83 98 117 128 34 30 67 61 73 68 7 7
27 27 46 45 19 18 46 44 59 60 14 15 26 27 28 27 1 0 0 -48 -2 -107z m-27
-505 c-4 -57 -39 -280 -43 -287 -5 -6 -63 20 -75 35 -8 10 -5 32 16 91 15 43
34 87 41 98 8 11 14 25 14 31 0 22 30 84 41 84 7 0 9 -19 6 -52z"/>
<path d="M904 1524 c-16 -7 -45 -15 -65 -19 -82 -13 -120 -87 -57 -109 27 -9
94 4 128 25 8 5 27 15 43 22 30 13 42 37 32 66 -7 24 -43 31 -81 15z"/>
</g>
</svg>
