<?xml version="1.0" standalone="no"?>
<!DOCTYPE svg PUBLIC "-//W3C//DTD SVG 20010904//EN"
 "http://www.w3.org/TR/2001/REC-SVG-20010904/DTD/svg10.dtd">
<svg version="1.0" xmlns="http://www.w3.org/2000/svg"
 width="208.000000pt" height="208.000000pt" viewBox="0 0 208.000000 208.000000"
 preserveAspectRatio="xMidYMid meet">
<metadata>
Created by potrace 1.16, written by Peter Selinger 2001-2019
</metadata>
<g transform="translate(0.000000,208.000000) scale(0.100000,-0.100000)"
fill="#000000" stroke="none">
<path d="M782 1949 c-45 -9 -69 -34 -75 -77 -27 -222 -105 -592 -133 -637 -7
-11 -20 -47 -29 -80 -10 -33 -25 -80 -35 -105 -11 -25 -37 -92 -60 -150 -23
-58 -59 -139 -81 -180 -21 -42 -39 -79 -39 -83 0 -14 -44 -102 -78 -155 -28
-44 -37 -52 -60 -50 -33 4 -41 -22 -18 -57 21 -31 36 -31 81 -1 20 14 39 26
43 28 11 5 52 66 52 77 0 6 6 14 14 18 7 4 20 22 29 39 12 23 26 33 49 38 19
3 56 26 85 51 28 25 55 45 60 45 12 0 5 -131 -13 -223 -12 -64 -13 -82 -2
-105 16 -32 67 -43 88 -18 7 9 17 16 22 16 10 0 41 27 111 97 49 49 57 58 83
98 10 17 26 37 35 45 22 20 39 74 29 90 -8 12 -51 -25 -182 -153 -42 -40 -68
-48 -68 -19 0 9 5 80 11 156 11 148 14 157 80 225 31 31 43 63 34 91 -5 15
-12 19 -25 15 -14 -4 -19 0 -22 17 -2 14 -12 24 -28 28 -22 5 -23 7 -7 13 10
4 38 7 61 7 23 0 47 5 54 12 18 18 15 95 -4 106 -17 9 -100 -3 -119 -18 -17
-13 -75 -22 -75 -12 0 5 10 32 21 61 19 45 26 52 63 62 73 18 77 20 112 51 47
41 57 63 44 88 -14 26 -29 25 -86 -5 -52 -28 -74 -31 -74 -12 0 31 62 312 74
335 7 15 21 50 30 79 10 30 27 58 40 67 17 11 22 21 19 40 -8 42 -48 58 -111
45z m-182 -1077 c0 -57 -1 -59 -41 -86 -23 -14 -43 -25 -45 -23 -4 3 46 135
59 155 17 26 27 10 27 -46z"/>
<path d="M1462 1847 c-11 -12 -24 -31 -29 -43 -12 -31 -56 -83 -175 -206 -114
-118 -127 -143 -86 -172 34 -24 66 -20 86 12 9 15 36 45 60 66 l42 38 0 -108
c0 -60 -4 -114 -8 -120 -4 -6 -29 -19 -55 -29 -69 -26 -77 -42 -77 -160 l0
-101 -45 -44 c-55 -54 -56 -80 -5 -96 l35 -12 0 -118 c-1 -96 -5 -133 -24
-194 -13 -41 -30 -97 -39 -125 -14 -47 -30 -68 -134 -175 -38 -38 -38 -84 0
-104 34 -17 56 -9 101 39 66 69 193 149 271 170 14 4 45 19 70 33 63 37 231
79 360 89 30 3 61 10 68 15 6 6 12 32 12 60 0 39 -5 54 -25 73 -32 33 -42 31
-59 -9 -13 -31 -20 -35 -63 -41 -26 -4 -99 -17 -161 -30 -80 -16 -115 -19
-117 -11 -7 21 -25 332 -25 428 0 75 5 109 22 153 17 46 19 61 10 76 -17 26
-15 226 2 319 8 41 30 124 50 184 43 130 44 143 10 156 -37 14 -48 13 -72 -13z
m-112 -677 c0 -51 -13 -67 -23 -29 -5 19 9 79 19 79 2 0 4 -22 4 -50z m-9
-300 c1 -63 5 -167 10 -230 12 -154 -1 -181 -93 -204 -34 -8 -35 0 -12 99 9
39 20 99 24 135 5 36 13 78 19 93 6 16 11 49 11 74 0 38 30 157 37 149 1 -1 3
-53 4 -116z"/>
</g>
</svg>
