<?xml version="1.0" standalone="no"?>
<!DOCTYPE svg PUBLIC "-//W3C//DTD SVG 20010904//EN"
 "http://www.w3.org/TR/2001/REC-SVG-20010904/DTD/svg10.dtd">
<svg version="1.0" xmlns="http://www.w3.org/2000/svg"
 width="207.000000pt" height="207.000000pt" viewBox="0 0 207.000000 207.000000"
 preserveAspectRatio="xMidYMid meet">
<metadata>
Created by potrace 1.16, written by Peter Selinger 2001-2019
</metadata>
<g transform="translate(0.000000,207.000000) scale(0.100000,-0.100000)"
fill="#000000" stroke="none">
<path d="M769 1765 c-16 -9 -32 -31 -42 -57 -8 -24 -34 -97 -57 -163 -23 -65
-48 -131 -56 -146 -7 -15 -21 -49 -30 -76 -9 -26 -63 -142 -120 -258 -154
-313 -315 -565 -361 -565 -18 0 -16 -27 2 -34 41 -15 114 41 197 151 81 108
118 162 118 168 0 3 16 28 36 55 l36 50 24 -24 c34 -33 59 -38 85 -15 22 19
43 26 37 11 -5 -12 -118 -114 -156 -141 -35 -24 -82 -91 -82 -115 0 -8 12 -24
26 -35 33 -26 38 -23 134 69 l75 73 3 -94 c2 -67 -3 -118 -18 -182 -11 -49
-20 -97 -20 -108 0 -28 33 -56 65 -55 24 1 33 10 61 66 18 36 33 74 34 85 0
11 33 64 73 118 127 171 147 201 147 224 0 13 -3 23 -6 23 -9 0 -65 -49 -145
-126 -37 -35 -70 -64 -73 -64 -8 0 -6 191 2 213 4 9 39 41 77 70 44 34 70 61
70 73 0 29 -36 29 -89 -1 -40 -22 -47 -24 -52 -10 -7 16 12 45 28 45 5 0 17 8
26 19 10 10 53 33 97 52 96 40 105 46 105 70 0 33 -47 43 -110 23 -30 -9 -64
-21 -75 -27 -11 -6 -42 -21 -70 -35 -62 -31 -183 -107 -212 -135 -39 -35 -31
-12 82 228 18 39 52 115 75 170 23 55 49 107 56 116 8 8 14 25 14 36 0 11 7
26 15 33 19 15 55 131 55 175 0 30 -25 66 -46 65 -5 -1 -21 -7 -35 -15z"/>
<path d="M1325 1624 c-136 -128 -191 -200 -179 -236 7 -24 60 -51 84 -43 11 4
32 33 49 68 35 73 87 129 100 108 10 -16 2 -128 -10 -153 -5 -9 -9 -35 -9 -57
0 -62 -25 -114 -63 -131 -17 -7 -35 -15 -38 -17 -4 -2 -4 17 -2 42 7 56 -10
60 -67 14 -40 -32 -60 -72 -60 -119 0 -32 -18 -49 -85 -83 -28 -14 -61 -34
-75 -45 l-25 -21 32 -33 c31 -31 34 -32 65 -19 56 22 63 20 66 -24 2 -22 -1
-96 -8 -164 -11 -122 -9 -144 10 -125 12 12 48 130 60 194 13 73 41 183 56
217 8 17 14 35 14 40 0 11 81 66 87 59 3 -2 -3 -62 -11 -133 -9 -71 -17 -187
-17 -258 -2 -195 3 -185 -104 -211 -50 -12 -119 -28 -155 -34 -94 -17 -214
-58 -239 -81 -27 -25 -28 -80 -3 -102 27 -25 60 -21 96 11 18 15 57 35 87 44
96 28 229 58 258 58 27 0 52 7 211 64 81 29 113 37 260 66 52 10 129 25 170
34 41 8 91 17 110 18 34 3 35 5 40 51 9 70 4 73 -87 53 -43 -10 -91 -22 -108
-28 -31 -11 -59 -16 -210 -42 -49 -8 -110 -19 -135 -25 -25 -6 -56 -14 -69
-17 l-23 -5 5 193 c2 106 10 218 16 248 31 155 95 614 95 690 1 52 0 55 -26
58 -22 3 -49 -18 -163 -124z"/>
<path d="M925 1447 c-44 -24 -101 -50 -127 -60 -29 -11 -50 -26 -54 -39 -8
-25 13 -66 38 -74 42 -13 272 150 266 190 -5 33 -36 28 -123 -17z"/>
</g>
</svg>
