<?xml version="1.0" standalone="no"?>
<!DOCTYPE svg PUBLIC "-//W3C//DTD SVG 20010904//EN"
 "http://www.w3.org/TR/2001/REC-SVG-20010904/DTD/svg10.dtd">
<svg version="1.0" xmlns="http://www.w3.org/2000/svg"
 width="209.000000pt" height="207.000000pt" viewBox="0 0 209.000000 207.000000"
 preserveAspectRatio="xMidYMid meet">
<metadata>
Created by potrace 1.16, written by Peter Selinger 2001-2019
</metadata>
<g transform="translate(0.000000,207.000000) scale(0.100000,-0.100000)"
fill="#000000" stroke="none">
<path d="M355 1840 c-8 -16 -15 -36 -15 -45 0 -9 -6 -26 -14 -38 -8 -13 -16
-64 -19 -127 -4 -73 -14 -131 -32 -190 -14 -47 -35 -119 -45 -160 -21 -87 -35
-129 -61 -186 -11 -22 -19 -48 -19 -57 0 -10 -11 -40 -25 -67 -13 -26 -43 -95
-65 -152 -22 -57 -45 -111 -51 -122 -7 -11 -7 -22 -1 -28 14 -14 67 36 85 81
18 45 29 53 68 56 15 2 35 10 44 19 9 9 21 16 27 16 5 0 30 14 55 30 24 17 53
30 64 30 16 0 19 -7 19 -54 0 -54 0 -54 -47 -82 -27 -16 -71 -38 -99 -50 -101
-41 -132 -77 -101 -116 21 -28 59 -24 141 15 43 20 83 37 88 37 23 0 -3 -153
-44 -270 -45 -127 -47 -144 -22 -171 30 -33 58 -23 121 42 79 84 124 129 229
229 49 47 104 104 123 125 36 42 41 45 112 84 24 13 58 33 74 45 47 34 142 86
148 80 3 -3 -12 -41 -34 -84 -21 -44 -39 -85 -39 -92 0 -8 -4 -18 -9 -23 -4
-6 -21 -44 -36 -85 -15 -41 -37 -95 -47 -119 -21 -46 -65 -170 -75 -208 -3
-14 -1 -23 6 -23 20 0 59 49 104 129 23 42 49 90 59 106 25 44 45 86 58 120 6
17 19 41 29 53 l18 24 33 -36 c19 -20 40 -36 47 -36 12 0 78 -30 138 -62 11
-6 74 -38 140 -71 66 -33 133 -73 149 -89 17 -15 35 -28 40 -28 6 0 22 -14 36
-31 18 -21 35 -31 58 -32 32 -2 33 0 59 73 14 41 30 80 35 87 13 16 -8 53 -29
53 -10 0 -32 -14 -49 -31 -35 -34 -35 -34 -105 8 -94 57 -195 111 -216 118
-13 3 -43 18 -68 33 -26 15 -65 38 -89 52 -80 46 -135 85 -136 94 0 13 67 143
93 180 13 18 54 45 111 73 108 51 139 69 187 106 20 15 40 27 45 27 24 0 254
189 254 208 0 26 -37 20 -99 -16 -117 -69 -225 -134 -270 -164 -25 -15 -49
-28 -54 -28 -5 0 -21 -8 -35 -18 -35 -25 -90 -43 -97 -33 -2 5 2 28 9 52 8 24
24 80 36 124 31 113 73 173 154 220 36 21 74 47 83 58 17 18 17 19 0 32 -16
11 -29 10 -85 -10 -37 -13 -68 -22 -70 -21 -1 2 4 16 13 32 8 16 15 37 15 46
0 9 5 20 10 23 18 11 11 44 -13 60 -31 20 -86 10 -97 -19 -5 -12 -19 -64 -30
-117 l-22 -96 -46 -23 c-83 -41 -187 -102 -199 -118 -12 -14 -13 -14 -13 1 0
9 6 34 14 54 7 21 23 72 36 113 12 41 37 108 56 148 39 83 41 93 16 115 -20
18 -87 23 -97 7 -6 -9 -40 -124 -86 -290 -44 -156 -141 -385 -199 -470 -9 -14
-42 -72 -72 -130 -31 -58 -65 -121 -76 -140 -26 -43 -62 -120 -62 -131 0 -13
-116 -129 -130 -129 -16 0 -4 122 21 224 18 72 38 105 63 106 5 0 26 16 48 36
22 20 55 42 72 49 18 8 38 21 45 29 17 21 10 60 -12 64 -21 4 -131 -50 -165
-81 -31 -29 -50 -11 -32 32 10 24 10 34 0 46 -17 21 -5 33 64 66 76 37 140 72
158 86 7 6 24 13 37 15 13 1 30 12 37 24 12 17 12 23 0 39 -12 17 -17 17 -62
5 -27 -7 -72 -26 -100 -42 -28 -15 -56 -28 -63 -28 -8 0 -60 -22 -117 -50 -57
-27 -109 -50 -116 -50 -7 0 -32 -9 -56 -20 -23 -10 -42 -15 -42 -9 0 19 42
139 50 144 5 3 17 32 26 64 11 41 24 65 44 80 42 30 149 77 194 84 51 8 91 46
81 77 -8 25 -19 24 -158 -6 -42 -9 -80 -14 -83 -11 -3 3 0 32 6 64 7 32 16 94
20 138 4 44 13 109 20 143 15 77 4 112 -35 112 -17 0 -29 -9 -40 -30z m890
-602 c-4 -24 -14 -60 -21 -82 -8 -22 -21 -67 -30 -100 -9 -34 -20 -66 -26 -73
-5 -7 -49 -33 -96 -59 -276 -149 -278 -149 -238 -78 14 26 26 52 26 59 0 7 7
19 17 26 9 8 43 70 76 139 33 69 61 127 63 128 1 2 12 -6 23 -17 12 -12 25
-21 29 -21 4 0 37 24 72 53 97 80 115 84 105 25z"/>
</g>
</svg>
