<?xml version="1.0" standalone="no"?>
<!DOCTYPE svg PUBLIC "-//W3C//DTD SVG 20010904//EN"
 "http://www.w3.org/TR/2001/REC-SVG-20010904/DTD/svg10.dtd">
<svg version="1.0" xmlns="http://www.w3.org/2000/svg"
 width="207.000000pt" height="208.000000pt" viewBox="0 0 207.000000 208.000000"
 preserveAspectRatio="xMidYMid meet">
<metadata>
Created by potrace 1.16, written by Peter Selinger 2001-2019
</metadata>
<g transform="translate(0.000000,208.000000) scale(0.100000,-0.100000)"
fill="#000000" stroke="none">
<path d="M761 1935 c-17 -15 -31 -36 -31 -46 0 -11 -6 -32 -14 -47 -7 -15 -28
-81 -46 -147 -41 -150 -83 -278 -110 -340 -5 -11 -43 -101 -84 -201 -112 -271
-182 -388 -226 -377 -16 4 -20 0 -20 -20 0 -27 16 -37 61 -37 29 0 109 60 109
82 0 6 15 27 33 47 31 34 59 85 101 184 l16 38 31 -22 31 -22 30 23 c40 30 54
16 37 -40 -8 -25 -21 -45 -33 -50 -21 -8 -90 -70 -134 -121 -27 -31 -21 -54
18 -74 25 -13 30 -13 54 6 14 11 26 16 26 11 0 -17 -49 -199 -66 -244 -9 -23
-21 -67 -27 -95 -9 -46 -8 -55 8 -73 37 -41 68 -27 146 65 117 137 195 288
160 309 -12 8 -121 -102 -121 -121 0 -7 -7 -13 -16 -13 -18 0 -16 7 26 120 15
41 35 101 45 133 18 57 54 105 97 128 20 11 21 9 14 -40 -4 -28 -3 -51 1 -51
21 2 243 387 243 423 0 5 10 23 22 40 13 18 30 53 39 78 9 25 27 57 40 71 13
13 46 53 73 87 42 53 88 91 112 91 9 0 -4 -163 -16 -212 -27 -105 -86 -294
-100 -323 -5 -11 -14 -40 -20 -65 -8 -38 -7 -49 8 -69 10 -14 31 -28 47 -32
29 -8 99 2 148 20 38 15 143 121 162 163 9 18 20 40 27 49 14 20 4 49 -17 49
-8 0 -41 -24 -73 -54 -81 -76 -159 -136 -177 -136 -10 0 -4 40 24 156 16 65
33 140 36 167 4 26 11 50 16 53 5 3 9 24 9 48 0 23 4 46 9 51 5 6 11 39 13 75
11 157 -57 236 -140 162 -18 -16 -32 -33 -32 -38 0 -5 -12 -17 -26 -25 -25
-15 -28 -15 -46 3 -16 16 -29 19 -61 15 -44 -6 -57 -19 -57 -58 0 -15 -7 -43
-15 -62 -8 -20 -15 -49 -15 -65 0 -26 -16 -85 -41 -152 -9 -23 -15 -25 -67
-25 -45 0 -72 -8 -125 -34 -37 -18 -67 -37 -67 -42 0 -6 -8 -12 -17 -16 -10
-3 -38 -23 -63 -43 -25 -21 -65 -47 -89 -60 l-44 -22 6 24 c5 23 48 138 71
193 7 17 22 53 32 80 l20 50 59 -3 c62 -3 89 5 158 47 42 26 48 53 14 75 -19
13 -28 13 -62 2 -65 -22 -135 -26 -135 -9 0 24 42 157 54 173 7 8 20 34 30 57
37 84 -16 133 -83 78z m259 -643 c0 -14 -30 -71 -41 -77 -5 -4 -9 -12 -9 -19
0 -8 -16 -49 -36 -92 l-35 -77 -19 31 c-17 27 -23 31 -50 26 -23 -5 -30 -3
-30 9 0 8 -3 27 -6 43 -5 26 0 33 47 69 98 74 179 114 179 87z"/>
<path d="M1340 842 c-36 -6 -80 -40 -80 -63 0 -29 45 -43 123 -40 126 6 150
-46 81 -176 -20 -37 -40 -70 -44 -73 -4 -3 -23 -29 -44 -59 -37 -55 -132 -138
-189 -167 -18 -9 -62 -36 -99 -61 -52 -34 -68 -51 -68 -69 0 -26 34 -54 65
-54 22 0 87 30 114 53 35 30 112 68 123 61 22 -14 71 -4 90 18 10 12 23 40 29
62 5 23 12 48 15 58 3 9 0 19 -6 23 -19 11 -10 50 19 85 31 39 71 111 97 180
19 49 21 127 5 158 -18 33 -168 74 -231 64z"/>
<path d="M983 630 c-15 -17 -17 -41 -15 -182 2 -90 5 -171 8 -180 6 -22 51
-35 73 -21 13 8 18 42 25 181 8 152 7 174 -8 197 -20 31 -59 33 -83 5z"/>
</g>
</svg>
