<?xml version="1.0" standalone="no"?>
<!DOCTYPE svg PUBLIC "-//W3C//DTD SVG 20010904//EN"
 "http://www.w3.org/TR/2001/REC-SVG-20010904/DTD/svg10.dtd">
<svg version="1.0" xmlns="http://www.w3.org/2000/svg"
 width="209.000000pt" height="209.000000pt" viewBox="0 0 209.000000 209.000000"
 preserveAspectRatio="xMidYMid meet">
<metadata>
Created by potrace 1.16, written by Peter Selinger 2001-2019
</metadata>
<g transform="translate(0.000000,209.000000) scale(0.100000,-0.100000)"
fill="#000000" stroke="none">
<path d="M1846 1849 c-14 -11 -26 -25 -26 -31 0 -6 -21 -35 -47 -63 -72 -79
-103 -135 -103 -187 0 -57 25 -83 70 -75 34 7 36 1 19 -73 -5 -24 -14 -98 -19
-165 -5 -66 -14 -169 -21 -230 -6 -60 -11 -139 -11 -174 0 -36 -1 -68 -4 -72
-2 -4 -30 1 -61 12 -31 10 -67 19 -80 19 -35 0 -37 21 -14 123 25 107 40 213
46 312 3 39 7 101 11 138 7 89 -11 161 -48 193 -24 19 -33 21 -52 13 -33 -16
-49 -54 -34 -82 8 -15 12 -85 12 -212 1 -187 -5 -237 -40 -361 -8 -28 -14 -60
-14 -71 0 -11 -7 -26 -16 -33 -11 -10 -14 -23 -9 -49 3 -20 -2 -92 -12 -161
-19 -131 -22 -305 -7 -320 15 -14 58 -21 73 -11 11 7 17 44 22 135 11 162 28
299 39 310 6 6 26 2 52 -9 24 -10 61 -27 84 -36 22 -10 47 -25 54 -34 17 -20
53 -19 72 3 20 22 28 73 33 202 5 123 29 391 50 575 18 148 18 147 41 235 19
72 20 165 3 186 -16 19 -32 17 -63 -7z"/>
<path d="M557 1823 c-8 -10 -19 -31 -23 -48 -4 -16 -15 -43 -25 -60 -10 -16
-23 -61 -29 -100 -15 -93 -59 -218 -126 -363 -19 -40 -34 -77 -34 -82 0 -5
-11 -29 -24 -52 -75 -138 -103 -190 -132 -248 -18 -38 -51 -83 -78 -107 -76
-69 -51 -101 35 -43 55 37 93 85 126 158 13 31 38 69 54 84 29 27 31 27 55 12
20 -14 29 -14 54 -4 17 7 30 17 30 22 0 5 8 12 18 15 9 4 35 20 57 37 22 17
56 40 75 50 19 10 49 31 65 46 17 14 60 46 98 70 69 45 80 65 51 94 -29 30
-77 18 -133 -31 -14 -13 -30 -23 -36 -23 -6 0 -27 -14 -47 -30 -20 -17 -53
-37 -72 -45 -20 -9 -36 -20 -36 -25 0 -14 -51 -33 -61 -23 -5 5 7 40 26 78 19
39 35 76 35 83 0 24 41 93 58 98 138 44 230 120 191 159 -12 13 -23 11 -74
-10 -61 -25 -95 -31 -95 -17 0 4 10 32 21 62 79 204 82 219 44 244 -31 21 -48
20 -68 -1z"/>
<path d="M1023 1585 c-41 -17 -65 -72 -61 -139 3 -45 12 -59 46 -72 8 -3 -69
-142 -88 -159 -35 -31 -100 -122 -100 -140 0 -9 16 -25 35 -36 44 -26 45 -46
5 -159 -37 -105 -38 -133 -5 -154 13 -9 29 -16 35 -16 6 0 51 39 99 88 205
203 219 213 207 147 -4 -20 -6 -133 -6 -253 3 -433 6 -466 43 -476 14 -3 29 1
41 13 15 16 18 31 15 92 -10 196 -1 637 15 729 46 269 46 272 -8 278 -44 5
-66 -22 -66 -83 0 -109 -10 -145 -52 -186 -38 -37 -155 -109 -177 -109 -7 0
-11 34 -11 98 0 97 0 99 34 138 43 50 59 83 85 170 31 106 24 214 -14 214 -5
0 -16 6 -24 14 -14 12 -21 12 -48 1z"/>
<path d="M509 975 c-27 -15 -39 -48 -39 -109 0 -41 -12 -55 -85 -101 -33 -21
-71 -48 -85 -61 -14 -13 -33 -30 -42 -37 -23 -17 -32 -58 -16 -78 29 -37 53
-32 120 26 36 30 70 55 76 55 11 0 24 -28 18 -39 -2 -3 -12 -62 -20 -129 -17
-129 -14 -152 23 -172 19 -10 97 10 111 28 3 4 28 25 55 46 45 35 82 69 165
149 14 13 40 42 57 65 27 34 30 42 18 52 -17 14 -79 -20 -139 -75 -21 -20 -53
-43 -72 -51 -19 -8 -34 -19 -34 -24 0 -12 -60 -44 -68 -36 -7 8 13 191 29 266
8 36 22 66 41 87 30 31 30 31 12 56 -11 14 -26 28 -35 30 -9 2 -19 18 -22 36
-7 35 -26 39 -68 16z"/>
</g>
</svg>
