<?xml version="1.0" standalone="no"?>
<!DOCTYPE svg PUBLIC "-//W3C//DTD SVG 20010904//EN"
 "http://www.w3.org/TR/2001/REC-SVG-20010904/DTD/svg10.dtd">
<svg version="1.0" xmlns="http://www.w3.org/2000/svg"
 width="206.000000pt" height="211.000000pt" viewBox="0 0 206.000000 211.000000"
 preserveAspectRatio="xMidYMid meet">
<metadata>
Created by potrace 1.16, written by Peter Selinger 2001-2019
</metadata>
<g transform="translate(0.000000,211.000000) scale(0.100000,-0.100000)"
fill="#000000" stroke="none">
<path d="M1524 1936 c-21 -20 -41 -36 -45 -36 -7 0 -158 -175 -180 -210 -9
-14 -65 -75 -125 -135 -63 -64 -119 -131 -132 -158 -20 -41 -27 -46 -47 -41
-18 4 -27 0 -39 -19 -15 -22 -15 -34 2 -144 24 -158 14 -279 -45 -517 -13 -55
-33 -147 -43 -205 -11 -58 -26 -131 -34 -161 -15 -57 -8 -90 18 -90 15 0 66
62 66 79 0 6 4 19 9 29 11 20 41 135 45 172 3 28 25 110 33 123 3 4 22 -8 44
-28 34 -31 45 -35 92 -35 39 0 58 5 78 23 15 12 47 40 73 62 33 27 50 51 57
80 6 22 14 45 19 50 4 6 10 34 14 63 6 46 3 59 -21 103 -35 65 -57 77 -92 52
-36 -27 -39 -65 -7 -87 33 -21 34 -62 2 -135 -45 -104 -98 -151 -149 -132 -58
22 -58 86 0 229 20 47 23 66 15 74 -9 9 -18 6 -38 -13 l-27 -24 6 75 c2 41 2
111 -2 155 -5 70 -4 84 13 108 15 20 28 27 52 27 28 0 81 23 153 65 10 6 37
27 62 47 24 20 59 49 77 63 61 50 28 95 -37 51 -40 -27 -164 -86 -181 -86 -24
0 -6 33 48 88 31 32 63 70 71 85 8 14 36 50 63 79 27 29 60 68 74 86 14 17 29
32 35 32 23 0 -12 -637 -46 -840 -26 -149 -27 -203 -10 -445 l6 -100 -23 28
c-29 33 -34 34 -42 1 -5 -19 1 -37 21 -69 15 -24 35 -57 45 -73 20 -37 60 -65
81 -56 35 13 41 79 22 241 -20 174 -17 388 8 518 21 106 46 498 49 765 l3 215
-27 3 c-19 2 -37 -6 -64 -32z"/>
<path d="M437 1822 c-26 -28 -53 -117 -77 -257 -7 -38 -19 -90 -27 -115 -15
-47 -25 -93 -48 -218 -26 -140 -86 -302 -187 -501 l-98 -193 0 -77 1 -76 29
34 c16 19 37 48 45 65 27 51 50 91 56 96 17 15 150 295 169 355 7 22 17 45 22
52 5 7 13 36 18 65 18 122 65 333 77 347 2 3 10 -5 19 -17 11 -16 25 -22 54
-22 33 0 47 7 84 43 24 23 71 67 105 97 76 68 104 140 55 140 -15 0 -190 -126
-213 -153 -7 -9 -21 -17 -31 -17 -10 0 -23 -7 -30 -15 -22 -26 -22 -10 0 76
25 99 47 163 72 204 31 52 18 88 -39 104 -27 8 -34 6 -56 -17z"/>
<path d="M675 1315 c-17 -7 -47 -23 -66 -37 -19 -15 -59 -39 -89 -54 -56 -28
-150 -115 -150 -139 0 -28 14 -46 45 -59 31 -13 32 -17 39 -85 5 -57 3 -76
-10 -96 -9 -14 -22 -25 -28 -25 -12 0 -122 -93 -198 -165 -42 -41 -41 -62 4
-88 27 -16 33 -16 52 -3 42 30 56 43 56 54 0 5 16 23 36 39 19 15 49 41 66 56
18 17 34 24 37 18 18 -28 -19 -318 -50 -399 -5 -13 -9 -37 -9 -55 0 -18 -11
-52 -25 -76 -41 -71 -26 -121 35 -121 23 0 35 10 64 54 20 30 36 59 36 64 0 5
13 26 29 46 17 21 36 51 43 67 7 16 16 29 19 29 11 0 120 139 137 174 8 17 25
42 37 56 26 29 95 151 95 168 0 25 -24 9 -90 -60 -39 -40 -70 -75 -70 -78 0
-3 -24 -30 -53 -60 -28 -30 -65 -70 -80 -89 -15 -18 -30 -32 -32 -29 -2 2 0
46 6 98 6 52 12 133 13 180 3 103 12 136 43 173 27 33 27 37 10 61 -12 16 -17
17 -36 6 -31 -16 -39 -5 -43 55 -2 28 -10 61 -17 73 -11 21 -10 27 10 48 12
13 28 24 35 24 7 0 28 13 46 28 50 42 82 60 114 64 25 3 29 8 32 36 6 58 -21
71 -93 47z"/>
</g>
</svg>
