<?xml version="1.0" standalone="no"?>
<!DOCTYPE svg PUBLIC "-//W3C//DTD SVG 20010904//EN"
 "http://www.w3.org/TR/2001/REC-SVG-20010904/DTD/svg10.dtd">
<svg version="1.0" xmlns="http://www.w3.org/2000/svg"
 width="209.000000pt" height="213.000000pt" viewBox="0 0 209.000000 213.000000"
 preserveAspectRatio="xMidYMid meet">
<metadata>
Created by potrace 1.16, written by Peter Selinger 2001-2019
</metadata>
<g transform="translate(0.000000,213.000000) scale(0.100000,-0.100000)"
fill="#000000" stroke="none">
<path d="M576 1862 c-26 -16 -31 -28 -53 -132 -13 -63 -26 -129 -28 -147 -3
-17 -10 -44 -15 -58 -6 -14 -10 -37 -10 -49 0 -13 -7 -29 -15 -36 -10 -8 -15
-30 -15 -64 0 -65 -32 -168 -91 -292 -10 -22 -19 -45 -19 -50 0 -5 -9 -27 -19
-48 -11 -20 -24 -49 -30 -64 -6 -15 -19 -39 -29 -54 -35 -54 -75 -125 -106
-193 -37 -81 -87 -142 -119 -147 -29 -4 -33 -30 -7 -46 17 -10 29 -11 58 -1
69 23 117 74 172 185 35 72 57 105 73 110 12 4 40 27 61 51 36 42 195 167 202
160 2 -1 -1 -32 -6 -67 -6 -42 -15 -69 -25 -75 -9 -5 -43 -30 -75 -55 -32 -25
-86 -67 -121 -94 -108 -82 -137 -151 -79 -181 38 -20 52 -12 113 57 25 29 53
60 62 68 9 8 28 27 43 43 28 29 52 35 52 15 0 -45 -32 -197 -55 -259 -29 -82
-27 -114 10 -131 37 -17 67 -2 104 52 38 57 65 87 199 223 96 97 119 114 107
78 -3 -11 -2 -22 4 -25 15 -10 24 -85 21 -181 -7 -205 -8 -200 18 -200 19 0
31 13 58 64 l34 64 0 158 c0 146 -1 159 -19 169 -13 7 -28 7 -46 0 -14 -5 -30
-10 -35 -10 -16 0 2 38 25 50 29 16 52 57 39 70 -11 11 -74 -8 -74 -22 0 -4
-21 -19 -47 -35 -69 -39 -141 -94 -194 -147 -26 -25 -50 -46 -54 -46 -8 0 3
131 17 198 9 44 20 61 56 93 25 21 51 39 58 39 15 0 34 31 34 55 0 18 -21 17
-92 0 -24 -6 -26 -5 -21 16 4 13 13 34 21 46 8 13 12 33 9 45 -5 20 7 32 91
88 53 36 101 67 107 69 14 5 35 33 35 47 0 33 -105 15 -159 -27 -14 -12 -39
-27 -56 -35 -31 -14 -49 -25 -100 -59 -16 -11 -48 -29 -70 -40 -22 -11 -59
-34 -82 -52 -75 -59 -74 -52 13 144 8 17 14 38 14 47 0 30 41 123 63 143 12
12 49 35 82 52 33 18 85 47 115 66 30 19 72 43 92 54 20 12 40 25 43 31 4 6
24 22 46 36 43 27 45 32 25 59 -13 18 -17 17 -107 -28 -52 -26 -118 -60 -147
-76 -57 -30 -129 -57 -136 -50 -5 5 16 121 38 204 8 33 13 71 10 85 -16 69
-20 72 -68 42z"/>
<path d="M1385 1766 c-49 -22 -71 -56 -66 -102 1 -13 45 -34 70 -34 9 0 30 14
46 30 35 36 53 38 61 5 4 -17 -3 -39 -26 -77 -67 -112 -97 -149 -241 -304 -44
-47 -44 -73 1 -93 42 -18 66 -7 105 52 20 29 45 66 58 82 68 91 87 119 87 132
0 7 9 22 20 33 11 11 34 47 50 79 24 46 30 72 30 120 0 61 0 62 -35 77 -43 17
-120 18 -160 0z"/>
<path d="M1040 1497 c-35 -18 -35 -38 0 -82 16 -21 30 -43 30 -50 0 -7 7 -26
15 -41 8 -16 15 -52 15 -81 0 -85 18 -104 56 -62 16 18 19 37 19 118 0 112 -6
139 -41 180 -28 33 -54 38 -94 18z"/>
<path d="M1430 1043 c-14 -9 -44 -29 -67 -45 -23 -15 -44 -28 -48 -28 -9 0
-71 -47 -141 -107 -96 -83 -110 -163 -29 -163 28 0 40 8 74 51 39 50 134 129
154 129 19 0 -29 -126 -85 -223 -15 -26 -28 -53 -28 -59 0 -34 -68 -146 -126
-205 -35 -36 -64 -75 -64 -85 0 -10 11 -30 24 -43 22 -22 27 -23 61 -12 20 6
39 17 42 24 3 7 19 13 37 13 17 0 60 7 96 15 70 17 115 19 171 9 25 -4 47 -1
69 11 27 14 31 20 25 42 -3 14 -1 31 5 38 14 17 3 43 -21 50 -36 12 -79 8 -97
-7 -18 -17 -180 -54 -189 -44 -3 3 8 37 26 76 17 39 31 77 31 85 0 8 4 15 9
15 9 0 51 78 51 96 0 5 11 25 24 45 14 20 32 62 41 95 10 32 24 71 32 87 7 15
15 55 16 90 l2 62 -35 2 c-19 1 -46 -5 -60 -14z"/>
</g>
</svg>
