<?xml version="1.0" standalone="no"?>
<!DOCTYPE svg PUBLIC "-//W3C//DTD SVG 20010904//EN"
 "http://www.w3.org/TR/2001/REC-SVG-20010904/DTD/svg10.dtd">
<svg version="1.0" xmlns="http://www.w3.org/2000/svg"
 width="211.000000pt" height="217.000000pt" viewBox="0 0 211.000000 217.000000"
 preserveAspectRatio="xMidYMid meet">
<metadata>
Created by potrace 1.16, written by Peter Selinger 2001-2019
</metadata>
<g transform="translate(0.000000,217.000000) scale(0.100000,-0.100000)"
fill="#000000" stroke="none">
<path d="M593 1998 c-14 -15 -26 -46 -33 -90 -6 -38 -14 -78 -19 -90 -5 -13
-30 -90 -56 -173 -27 -82 -51 -159 -55 -170 -5 -11 -13 -33 -18 -50 -40 -115
-87 -237 -106 -275 -13 -25 -49 -101 -81 -170 -104 -226 -135 -283 -186 -338
-17 -18 -19 -25 -9 -37 19 -23 42 -18 80 19 62 59 87 90 114 145 l28 53 32
-31 c17 -17 38 -31 45 -31 13 0 56 30 132 92 l47 38 5 -29 c3 -16 4 -46 1 -67
-9 -60 -64 -223 -96 -282 -15 -29 -28 -57 -28 -63 0 -18 52 -59 75 -59 13 0
30 11 39 25 9 13 30 32 47 41 32 16 55 38 144 137 66 74 118 136 129 156 5 9
27 34 50 57 64 63 155 219 138 236 -5 5 -43 -29 -98 -89 -128 -140 -285 -298
-311 -311 -20 -11 -21 -10 -12 16 18 57 58 250 64 312 4 36 14 77 21 92 13 25
12 29 -7 46 -23 22 -28 67 -10 100 10 19 9 29 -7 56 l-20 34 27 19 c14 11 43
26 64 34 53 19 72 41 57 68 -16 30 -57 27 -172 -13 -110 -38 -110 -38 -76 51
26 72 60 117 98 133 17 7 30 16 30 20 0 5 19 16 43 25 23 9 62 34 87 56 38 33
43 42 34 56 -16 26 -46 27 -98 4 -25 -12 -49 -21 -55 -21 -20 0 -23 23 -7 58
9 21 20 64 25 97 8 49 6 66 -7 95 -21 44 -58 51 -89 18z m-68 -855 l7 -88 -28
-20 c-15 -11 -41 -32 -57 -47 -17 -16 -33 -28 -37 -28 -4 0 -30 -22 -58 -50
-28 -27 -56 -50 -62 -50 -9 0 13 59 35 90 12 17 31 58 70 145 62 141 58 135
91 135 l32 0 7 -87z"/>
<path d="M1385 1754 c-67 -26 -84 -28 -91 -10 -8 22 -56 20 -85 -3 -24 -19
-51 -66 -86 -151 -10 -24 -42 -81 -72 -125 -77 -114 -116 -195 -104 -213 13
-21 44 -31 70 -21 12 4 37 32 56 62 20 30 40 58 46 61 6 4 11 15 11 25 0 29
57 101 75 95 10 -4 15 0 15 14 0 21 108 127 148 145 12 6 22 14 22 19 0 4 9 8
20 8 13 0 20 -7 20 -20 0 -80 -78 -291 -142 -387 -16 -23 -37 -63 -48 -88 -23
-53 -45 -58 -54 -12 -4 17 -15 43 -25 56 -15 20 -24 23 -54 17 -28 -5 -38 -13
-46 -38 -15 -44 -14 -48 14 -48 16 0 30 -9 42 -27 9 -16 26 -38 36 -50 20 -22
20 -23 -6 -63 -15 -22 -27 -45 -27 -52 -1 -7 -16 -38 -35 -68 -18 -30 -46 -79
-61 -107 -16 -29 -31 -53 -34 -53 -3 0 -37 -44 -76 -97 -122 -172 -364 -393
-404 -368 -6 3 -10 31 -10 61 0 37 -4 54 -13 54 -18 0 -39 -54 -39 -105 -1
-53 30 -95 70 -95 41 0 145 58 207 116 32 29 63 54 69 54 6 0 36 27 68 60 31
33 61 60 67 60 6 0 18 -14 26 -30 20 -39 91 -90 124 -90 29 0 146 54 158 73 4
7 25 25 46 40 20 15 46 45 56 65 10 20 29 56 40 78 15 28 24 68 28 125 5 82 5
85 -22 109 -24 23 -35 25 -111 25 -53 0 -84 4 -84 11 0 6 27 53 61 105 33 52
71 117 83 144 13 28 34 64 48 80 46 56 84 155 139 360 30 112 33 171 9 200
-16 20 -93 19 -145 -1z m-215 -959 c0 -21 40 -35 92 -32 42 2 43 1 46 -31 4
-42 -69 -192 -115 -237 -36 -35 -102 -61 -128 -51 -19 7 -45 65 -45 101 0 27
33 99 50 110 6 4 26 40 46 81 33 70 54 93 54 59z"/>
</g>
</svg>
