<?xml version="1.0" standalone="no"?>
<!DOCTYPE svg PUBLIC "-//W3C//DTD SVG 20010904//EN"
 "http://www.w3.org/TR/2001/REC-SVG-20010904/DTD/svg10.dtd">
<svg version="1.0" xmlns="http://www.w3.org/2000/svg"
 width="207.000000pt" height="217.000000pt" viewBox="0 0 207.000000 217.000000"
 preserveAspectRatio="xMidYMid meet">
<metadata>
Created by potrace 1.16, written by Peter Selinger 2001-2019
</metadata>
<g transform="translate(0.000000,217.000000) scale(0.100000,-0.100000)"
fill="#000000" stroke="none">
<path d="M1588 1982 c-29 -18 -86 -62 -234 -178 -50 -40 -104 -79 -121 -87
-16 -9 -42 -34 -57 -56 -27 -39 -28 -42 -12 -66 29 -44 63 -37 130 28 138 136
196 177 182 130 -16 -57 -25 -106 -31 -168 -4 -38 -14 -81 -22 -94 -8 -12 -43
-36 -76 -53 -116 -55 -162 -80 -179 -95 -26 -23 -22 -60 6 -79 23 -14 28 -14
72 5 26 12 67 37 90 56 23 19 47 35 52 35 7 0 10 -51 10 -136 -1 -106 2 -138
13 -145 9 -5 18 -4 25 4 14 15 54 139 54 167 0 12 14 92 30 178 17 86 37 193
45 237 8 43 26 100 39 125 54 103 77 170 66 190 -13 25 -46 26 -82 2z"/>
<path d="M641 1959 c-23 -19 -24 -23 -16 -107 19 -223 17 -258 -20 -422 -20
-85 -43 -175 -51 -200 -9 -25 -25 -76 -36 -115 -11 -38 -31 -92 -43 -120 -13
-27 -26 -65 -30 -82 -4 -18 -11 -35 -16 -38 -5 -4 -9 -15 -9 -25 0 -10 -18
-54 -39 -97 -22 -43 -53 -105 -69 -138 -51 -106 -85 -155 -109 -155 -7 0 -13
-6 -13 -13 0 -15 31 -47 46 -47 4 0 37 28 72 63 46 45 65 58 71 49 4 -7 20
-20 35 -27 25 -13 28 -12 48 10 12 14 33 32 46 41 l25 16 -6 -46 c-4 -26 -13
-56 -20 -67 -19 -27 -10 -66 22 -88 29 -21 62 -14 79 14 5 9 50 59 100 110 51
51 92 98 92 104 0 6 4 11 9 11 11 0 81 111 81 130 0 46 -24 33 -119 -62 -54
-54 -104 -98 -111 -98 -9 0 -11 11 -6 42 8 52 32 93 64 110 30 16 89 73 103
100 13 25 3 68 -16 68 -8 0 -30 -14 -48 -30 -19 -16 -44 -30 -56 -30 -18 0
-21 6 -21 38 1 57 16 112 39 136 12 12 21 29 21 37 0 18 40 56 117 108 69 47
81 66 57 92 -21 23 -30 23 -68 4 -15 -8 -34 -15 -41 -15 -7 0 -15 -6 -18 -13
-5 -15 -124 -87 -143 -87 -21 0 11 99 43 132 27 29 120 94 152 106 24 9 50 45
51 69 0 28 -14 37 -37 24 -14 -8 -139 -51 -148 -51 -2 0 4 30 12 68 8 37 19
121 25 187 23 269 23 279 -8 309 -21 22 -64 19 -93 -5z m-68 -1126 c-6 -111
-7 -114 -62 -152 -28 -18 -58 -42 -67 -52 -24 -27 -40 -24 -21 3 19 27 54 99
93 188 23 52 45 85 60 90 1 0 -1 -35 -3 -77z"/>
<path d="M1005 1636 c-14 -21 -14 -29 -4 -48 21 -39 13 -311 -13 -427 -29
-132 -47 -282 -36 -304 12 -24 33 -8 53 40 15 34 21 38 43 24 11 -6 5 -25 -25
-87 -22 -43 -45 -99 -52 -124 -7 -25 -17 -58 -22 -74 -10 -34 -10 -126 0 -208
8 -67 39 -108 81 -108 35 0 78 33 177 135 45 47 90 85 100 85 22 0 63 -22 140
-76 59 -41 187 -93 301 -122 62 -15 64 -17 88 -69 22 -46 29 -53 54 -53 40 0
54 42 34 106 -8 26 -14 58 -14 70 0 25 -28 36 -125 50 -27 3 -72 15 -100 26
-85 34 -139 58 -161 71 -33 18 -114 96 -114 108 0 6 12 26 28 44 15 18 52 67
82 110 30 42 70 96 89 119 71 87 77 137 17 144 -35 4 -122 -73 -176 -156 -22
-33 -65 -87 -95 -119 l-55 -58 -21 25 c-12 14 -27 33 -34 43 -12 17 -19 18
-59 9 -28 -6 -46 -6 -46 0 0 5 18 44 40 87 22 43 40 81 40 86 0 5 6 16 14 24
19 21 55 131 49 148 -12 30 -52 26 -92 -8 -101 -88 -121 -101 -121 -81 0 10 4
32 9 48 18 60 31 131 36 199 2 39 8 102 11 142 6 71 -8 164 -29 191 -17 22
-75 15 -92 -12z m174 -965 c39 -49 39 -66 1 -89 -16 -10 -40 -34 -52 -52 -26
-38 -54 -58 -65 -47 -4 4 -7 38 -7 75 1 62 26 160 56 216 10 18 12 16 23 -21
7 -23 27 -60 44 -82z"/>
</g>
</svg>
