<?xml version="1.0" standalone="no"?>
<!DOCTYPE svg PUBLIC "-//W3C//DTD SVG 20010904//EN"
 "http://www.w3.org/TR/2001/REC-SVG-20010904/DTD/svg10.dtd">
<svg version="1.0" xmlns="http://www.w3.org/2000/svg"
 width="208.000000pt" height="215.000000pt" viewBox="0 0 208.000000 215.000000"
 preserveAspectRatio="xMidYMid meet">
<metadata>
Created by potrace 1.16, written by Peter Selinger 2001-2019
</metadata>
<g transform="translate(0.000000,215.000000) scale(0.100000,-0.100000)"
fill="#000000" stroke="none">
<path d="M1122 1807 c-18 -19 -21 -30 -15 -75 4 -40 1 -65 -17 -111 -19 -52
-28 -63 -64 -81 -23 -11 -48 -20 -55 -20 -7 0 -32 -12 -57 -26 -36 -21 -44
-31 -44 -55 0 -30 23 -49 60 -49 11 0 54 18 95 39 43 23 72 34 68 25 -3 -8 -9
-14 -13 -14 -4 0 -41 -44 -81 -97 -41 -54 -93 -115 -117 -138 -24 -22 -57 -60
-73 -83 -16 -24 -41 -56 -54 -70 -110 -118 -121 -161 -47 -177 26 -5 38 -3 54
12 20 18 20 18 14 -37 -3 -30 -8 -103 -12 -162 -6 -103 -8 -108 -29 -108 -25
0 -170 -44 -198 -60 -9 -6 -37 -13 -62 -17 -31 -4 -51 -14 -69 -34 -15 -16
-26 -33 -26 -38 0 -10 -30 -24 -38 -17 -2 3 5 40 16 83 11 43 23 101 27 128 9
70 29 103 116 192 73 75 106 119 96 129 -8 8 -71 -22 -86 -40 -13 -16 -82 -56
-96 -56 -8 0 5 69 20 106 10 23 10 35 2 43 -16 16 -21 15 -71 -31 -45 -42 -46
-45 -52 -118 -7 -84 -19 -104 -79 -131 -22 -10 -71 -46 -110 -79 -38 -33 -74
-60 -79 -60 -14 0 2 59 25 91 28 39 73 166 93 264 19 91 27 113 72 210 31 67
59 102 135 171 19 16 46 43 60 60 14 16 69 71 123 122 74 71 96 98 94 115 -5
35 -43 33 -93 -5 -24 -18 -69 -51 -100 -72 -30 -22 -55 -44 -55 -51 0 -6 -10
-17 -21 -25 -12 -8 -36 -27 -52 -42 -17 -15 -33 -25 -35 -23 -6 6 18 156 28
175 4 8 10 58 14 110 8 105 1 124 -46 135 -21 6 -32 1 -51 -19 -21 -22 -25
-39 -31 -133 -4 -60 -14 -153 -22 -208 -8 -55 -15 -113 -15 -129 1 -32 -23
-121 -44 -171 -27 -62 -43 -112 -60 -185 -9 -41 -28 -110 -41 -153 -18 -60
-24 -101 -24 -175 0 -118 17 -162 68 -174 34 -9 46 -1 148 100 31 30 54 41 54
25 0 -10 -30 -108 -72 -234 -21 -65 -38 -125 -38 -135 1 -23 63 -65 80 -54 23
14 92 74 141 121 25 25 67 55 92 67 25 12 61 35 80 52 19 16 38 30 43 30 4 0
17 8 28 19 12 10 47 33 79 50 l57 32 0 -71 c0 -57 4 -74 20 -90 26 -26 32 -25
59 4 20 21 22 35 26 179 3 85 9 175 14 199 5 24 15 106 22 183 6 77 18 153 26
168 17 34 111 132 119 124 8 -8 -33 -65 -56 -77 -31 -17 -37 -91 -11 -146 12
-25 21 -47 19 -49 -2 -1 -13 -8 -25 -14 -40 -21 -30 -67 45 -217 l26 -52 -29
-38 c-15 -22 -37 -47 -49 -56 -30 -24 -13 -69 33 -82 31 -9 36 -7 62 22 16 18
31 32 33 32 3 0 26 -35 51 -77 26 -43 62 -94 79 -114 17 -20 47 -59 66 -88 65
-95 71 -102 94 -99 47 7 51 38 52 398 1 507 14 661 76 888 12 42 21 100 22
127 1 47 -1 50 -25 53 -21 2 -41 -10 -90 -55 -79 -74 -117 -111 -150 -148 -39
-45 -181 -175 -190 -175 -12 0 2 33 18 43 7 4 13 14 13 22 0 17 45 66 83 90
15 9 27 22 27 27 0 12 37 59 103 129 53 57 58 75 22 91 -22 10 -34 7 -88 -21
l-62 -32 -3 30 c-2 16 4 43 12 60 20 38 20 71 0 99 -20 28 -55 28 -82 -1z
m255 -429 c-39 -247 -40 -265 -41 -625 -1 -235 -5 -363 -11 -363 -25 1 -104
99 -144 177 l-21 42 42 39 c45 42 44 62 -3 62 -34 0 -38 20 -14 76 31 74 -7
165 -75 180 -42 9 -70 27 -70 43 0 40 77 145 197 268 70 73 132 132 137 132 4
1 6 -14 3 -31z m-277 -523 c15 -18 0 -70 -20 -70 -16 0 -34 49 -26 70 7 19 30
19 46 0z"/>
<path d="M530 1277 c-71 -34 -261 -183 -305 -241 -31 -41 -32 -80 -3 -100 32
-23 54 -20 78 12 39 51 105 124 193 213 102 105 118 153 37 116z"/>
</g>
</svg>
