<?xml version="1.0" standalone="no"?>
<!DOCTYPE svg PUBLIC "-//W3C//DTD SVG 20010904//EN"
 "http://www.w3.org/TR/2001/REC-SVG-20010904/DTD/svg10.dtd">
<svg version="1.0" xmlns="http://www.w3.org/2000/svg"
 width="209.000000pt" height="215.000000pt" viewBox="0 0 209.000000 215.000000"
 preserveAspectRatio="xMidYMid meet">
<metadata>
Created by potrace 1.16, written by Peter Selinger 2001-2019
</metadata>
<g transform="translate(0.000000,215.000000) scale(0.100000,-0.100000)"
fill="#000000" stroke="none">
<path d="M1443 1933 c-37 -30 -93 -78 -123 -107 -30 -29 -69 -58 -87 -64 -17
-6 -40 -18 -50 -27 -26 -24 -215 -145 -225 -145 -5 0 -22 -10 -38 -22 -50 -36
-37 -81 26 -94 25 -5 37 1 79 40 57 53 68 56 22 5 -49 -54 -127 -158 -127
-169 0 -5 -18 -24 -41 -42 -22 -18 -47 -44 -54 -57 -9 -18 -22 -25 -51 -28
-66 -7 -75 -28 -55 -128 19 -95 13 -202 -15 -283 -14 -41 -23 -76 -20 -79 8
-8 -47 -76 -141 -173 -87 -90 -97 -90 -68 -1 8 25 24 82 34 126 11 44 29 115
42 158 19 65 21 81 11 98 -11 17 -10 29 3 70 9 27 25 54 36 59 21 12 25 40 7
58 -18 18 -77 14 -113 -8 -29 -18 -32 -26 -43 -97 -7 -43 -12 -94 -12 -114 0
-43 -8 -53 -90 -114 -86 -64 -85 -64 -159 -134 -60 -57 -64 -62 -53 -86 7 -14
23 -30 37 -35 25 -10 55 -4 55 10 0 4 23 30 50 56 28 26 50 52 50 57 0 12 62
77 73 77 5 0 6 -12 2 -27 -4 -16 -11 -44 -15 -63 -5 -19 -18 -73 -29 -120 -34
-137 -41 -169 -41 -196 0 -27 26 -60 50 -65 20 -4 60 18 60 34 1 7 15 23 32
37 75 60 99 84 119 118 12 20 35 51 50 67 15 17 33 41 39 55 6 14 35 59 65
100 30 41 60 86 67 100 66 144 70 160 38 160 -19 0 -20 5 -15 138 4 132 5 138
30 160 36 30 49 28 42 -7 -4 -18 -1 -33 7 -40 18 -15 86 8 98 34 10 22 48 48
118 80 25 11 50 23 55 26 6 4 51 28 100 54 50 26 97 53 106 61 8 8 19 14 22
14 4 0 25 11 47 25 l40 25 0 -34 c0 -32 -15 -137 -41 -296 -6 -36 -18 -87 -26
-115 -8 -27 -18 -73 -23 -102 -5 -28 -22 -80 -39 -115 -41 -87 -46 -108 -27
-108 18 0 49 31 77 77 34 54 109 246 109 277 0 16 7 37 15 47 9 9 20 48 26 85
21 146 41 257 49 279 5 13 10 56 12 95 2 60 0 74 -14 84 -14 8 -22 8 -35 -2
-10 -6 -24 -15 -31 -18 -7 -4 -26 -19 -43 -35 -17 -16 -38 -29 -46 -29 -8 0
-29 -11 -46 -24 -29 -22 -133 -78 -197 -106 -26 -11 -46 -23 -90 -52 -37 -24
-70 -32 -70 -17 0 20 224 259 336 359 22 19 53 51 71 72 17 20 40 41 52 47 11
7 21 18 21 25 0 8 7 16 15 20 9 3 15 18 15 34 0 47 -37 38 -117 -25z"/>
<path d="M1190 1915 c-13 -15 -16 -98 -4 -116 12 -19 44 -7 70 26 21 28 25 41
20 70 -6 32 -10 35 -40 35 -19 0 -39 -7 -46 -15z"/>
<path d="M619 1837 c-16 -12 -79 -132 -79 -150 0 -6 -6 -18 -14 -26 -8 -9 -19
-32 -25 -51 -27 -92 -59 -171 -84 -209 -15 -22 -27 -44 -27 -47 0 -9 -47 -113
-60 -134 -39 -62 -145 -285 -167 -352 -27 -83 -122 -279 -149 -309 -17 -19
-18 -49 -1 -49 16 0 34 21 117 135 36 50 73 111 84 135 34 81 85 185 98 201 7
9 31 19 52 22 43 7 53 17 62 59 7 29 128 158 149 158 7 0 18 7 25 16 8 8 28
21 47 29 39 17 43 42 7 55 -26 10 -57 7 -107 -12 -15 -6 -30 -8 -33 -5 -8 8
49 89 88 123 57 51 138 151 140 174 2 12 -4 27 -13 33 -13 8 -26 4 -58 -22
-23 -19 -44 -31 -47 -28 -3 2 6 25 19 50 51 95 70 180 45 205 -15 15 -48 15
-69 -1z"/>
<path d="M1200 1253 c-25 -7 -67 -83 -103 -188 -75 -219 -139 -373 -192 -465
-8 -14 -22 -43 -32 -65 -52 -118 -208 -362 -270 -422 -46 -45 -54 -76 -25 -92
21 -11 62 -4 62 11 0 5 17 26 38 47 83 84 113 121 131 163 10 24 26 50 35 57
16 13 42 52 107 156 14 22 31 56 39 75 8 19 25 53 39 75 26 40 36 63 66 145
18 52 42 108 55 132 6 10 10 23 10 30 0 13 44 110 96 210 29 57 32 71 23 95
-15 40 -35 49 -79 36z"/>
<path d="M1039 507 c-43 -29 -49 -54 -15 -67 14 -5 26 -14 26 -19 0 -5 33 -21
73 -36 122 -46 151 -58 179 -77 14 -10 30 -18 36 -18 10 0 149 -61 197 -86 84
-45 215 -54 233 -16 22 44 -32 100 -97 102 -28 0 -84 16 -121 35 -14 7 -37 15
-52 19 -15 3 -44 17 -64 31 -20 14 -41 25 -46 25 -5 0 -46 18 -92 40 -45 22
-87 40 -92 40 -5 0 -26 11 -46 25 -46 31 -75 32 -119 2z m366 -167 c3 -6 -1
-7 -9 -4 -18 7 -21 14 -7 14 6 0 13 -4 16 -10z"/>
</g>
</svg>
