<?xml version="1.0" standalone="no"?>
<!DOCTYPE svg PUBLIC "-//W3C//DTD SVG 20010904//EN"
 "http://www.w3.org/TR/2001/REC-SVG-20010904/DTD/svg10.dtd">
<svg version="1.0" xmlns="http://www.w3.org/2000/svg"
 width="210.000000pt" height="214.000000pt" viewBox="0 0 210.000000 214.000000"
 preserveAspectRatio="xMidYMid meet">
<metadata>
Created by potrace 1.16, written by Peter Selinger 2001-2019
</metadata>
<g transform="translate(0.000000,214.000000) scale(0.100000,-0.100000)"
fill="#000000" stroke="none">
<path d="M1427 1936 c-19 -13 -45 -27 -56 -31 -12 -4 -46 -30 -76 -58 -30 -29
-74 -65 -97 -82 -23 -16 -80 -65 -127 -108 -47 -43 -97 -80 -111 -83 -56 -12
-55 -6 -52 -206 2 -179 -8 -277 -30 -305 -6 -7 -8 -20 -4 -28 5 -13 10 -14 27
-5 18 10 32 36 74 135 5 11 13 42 19 69 7 29 19 54 30 60 22 13 54 40 95 79
31 29 50 35 52 15 4 -52 -4 -199 -12 -225 -6 -20 -24 -41 -47 -55 -20 -12 -47
-32 -59 -45 -12 -13 -33 -23 -46 -23 -16 0 -35 -14 -57 -42 -19 -24 -62 -70
-97 -102 -52 -50 -63 -65 -63 -92 0 -27 -12 -46 -60 -97 -33 -36 -60 -68 -60
-73 0 -5 -15 -25 -33 -44 -18 -19 -40 -47 -50 -63 -10 -15 -21 -27 -25 -27 -5
0 -9 63 -9 140 -1 87 2 140 9 140 13 0 142 110 145 124 2 6 -1 18 -7 26 -8 13
-15 12 -51 -9 -38 -21 -43 -22 -51 -7 -7 13 -17 16 -41 10 -34 -7 -97 -7 -104
0 -12 12 206 198 245 210 12 4 29 21 38 38 14 27 14 32 1 46 -14 13 -23 11
-83 -17 -37 -17 -101 -55 -141 -84 -41 -29 -91 -64 -112 -78 -21 -15 -50 -48
-65 -74 -28 -47 -28 -47 -11 -86 16 -34 21 -38 44 -33 14 4 30 11 36 15 18 17
25 9 25 -29 0 -35 -6 -42 -91 -112 -152 -125 -205 -197 -166 -228 31 -25 55
-23 101 10 25 17 46 35 46 40 0 4 21 36 46 70 32 43 53 63 68 63 19 0 22 -7
28 -70 9 -98 -15 -248 -56 -345 -7 -19 0 -29 42 -58 32 -23 34 -23 48 -5 8 10
25 38 37 63 31 61 137 220 147 220 5 0 12 -4 15 -10 8 -13 50 -13 73 0 9 5 33
16 52 24 19 9 54 27 78 41 23 14 49 25 56 25 7 0 44 14 81 31 80 36 88 31 81
-46 -20 -192 -17 -177 -43 -172 -20 4 -25 0 -29 -22 -5 -24 -13 -28 -68 -38
-75 -15 -122 -37 -143 -69 -15 -23 -14 -27 3 -59 22 -41 44 -44 106 -15 37 18
128 43 418 114 30 8 80 22 110 31 30 9 71 20 91 24 19 4 41 11 48 15 6 4 33
13 59 19 36 9 49 18 56 39 7 19 6 31 -4 42 -14 18 -62 21 -88 7 -10 -5 -67
-19 -127 -32 -61 -12 -117 -27 -125 -34 -23 -19 -164 -42 -173 -28 -3 4 -1 29
3 54 5 26 11 84 13 130 2 48 10 94 18 107 15 24 104 55 194 67 l49 7 -49 -51
c-28 -28 -50 -57 -50 -63 0 -21 23 -20 45 2 20 20 54 42 115 76 60 33 95 75
95 115 0 68 -15 70 -205 24 -38 -10 -93 -20 -122 -24 -44 -6 -52 -4 -56 10 -3
10 2 80 10 156 8 76 14 185 14 243 -1 75 6 139 24 224 23 111 24 121 8 138
-38 42 -98 11 -118 -61 -9 -32 -16 -37 -60 -50 -89 -24 -115 -25 -115 -6 0 13
6 16 21 12 18 -5 25 2 42 43 13 31 28 51 42 54 11 3 34 23 50 45 17 22 42 45
58 52 15 6 31 17 35 23 4 7 22 22 40 35 17 12 32 29 32 37 0 15 48 39 58 29 3
-3 0 -51 -7 -108 -7 -56 -17 -140 -21 -187 -17 -161 -30 -265 -41 -312 -12
-52 -6 -76 16 -58 25 21 62 115 79 200 10 47 23 96 30 110 7 14 14 45 15 68 0
24 3 48 6 53 8 11 24 109 30 175 2 28 9 64 16 80 18 48 38 128 33 136 -11 18
-92 8 -127 -16z m-262 -896 c4 -11 1 -36 -5 -55 -6 -18 -10 -40 -9 -47 2 -7 0
-46 -5 -86 -6 -60 -12 -77 -32 -95 -27 -23 -109 -57 -210 -87 -33 -10 -75 -25
-92 -34 -17 -9 -33 -16 -37 -16 -13 0 -2 31 25 68 17 23 30 49 30 57 0 9 9 15
24 15 18 0 41 19 83 67 32 37 73 81 91 98 17 17 32 35 32 38 0 9 82 95 92 96
4 1 10 -8 13 -19z"/>
<path d="M569 1903 c-55 -60 -111 -186 -154 -350 -28 -105 -56 -173 -80 -193
-8 -7 -15 -25 -15 -41 0 -16 -4 -29 -10 -29 -5 0 -10 -12 -10 -28 0 -15 -8
-43 -19 -62 -10 -20 -33 -80 -50 -135 -18 -55 -41 -115 -52 -133 -10 -18 -19
-39 -19 -45 0 -21 -117 -195 -139 -207 -24 -12 -29 -60 -7 -60 17 0 141 130
181 190 17 25 46 77 65 115 19 39 40 76 46 82 7 7 10 21 7 32 -3 12 13 51 41
101 25 45 46 86 46 90 0 17 120 170 147 187 15 10 34 23 41 30 7 7 19 13 26
13 7 0 21 9 31 20 10 11 24 20 31 20 7 0 18 8 23 18 5 10 29 25 51 32 46 15
59 32 40 55 -16 19 -64 19 -98 0 -47 -25 -139 -65 -150 -65 -24 0 -11 55 28
112 22 33 40 67 40 75 0 8 14 34 31 59 25 37 30 52 27 92 -3 46 -4 47 -38 50
-28 2 -41 -3 -61 -25z"/>
</g>
</svg>
