<?xml version="1.0" standalone="no"?>
<!DOCTYPE svg PUBLIC "-//W3C//DTD SVG 20010904//EN"
 "http://www.w3.org/TR/2001/REC-SVG-20010904/DTD/svg10.dtd">
<svg version="1.0" xmlns="http://www.w3.org/2000/svg"
 width="205.000000pt" height="203.000000pt" viewBox="0 0 205.000000 203.000000"
 preserveAspectRatio="xMidYMid meet">
<metadata>
Created by potrace 1.16, written by Peter Selinger 2001-2019
</metadata>
<g transform="translate(0.000000,203.000000) scale(0.100000,-0.100000)"
fill="#000000" stroke="none">
<path d="M1389 2014 c-14 -17 -19 -25 -63 -106 -16 -29 -37 -64 -48 -78 -38
-48 -88 -132 -94 -156 -5 -18 0 -32 17 -50 12 -13 28 -24 34 -24 10 0 57 22
115 55 53 31 100 16 100 -31 0 -38 -60 -222 -84 -259 -29 -43 -119 -74 -284
-94 -104 -13 -136 -28 -140 -63 -2 -20 4 -31 23 -44 23 -15 34 -16 98 -5 82
14 164 30 190 38 9 2 17 1 17 -4 0 -10 -132 -236 -181 -309 -33 -49 -44 -64
-129 -167 -22 -26 -45 -58 -51 -70 -7 -12 -23 -33 -36 -47 -14 -14 -33 -41
-43 -60 -10 -19 -60 -78 -112 -130 -51 -52 -125 -133 -165 -180 -39 -47 -105
-116 -145 -155 l-73 -70 59 -3 c48 -3 63 1 80 17 12 12 27 21 33 21 5 0 39 33
75 73 36 39 108 118 159 175 134 147 175 197 254 306 55 77 74 96 89 92 23 -6
79 25 117 63 41 42 110 96 122 96 22 0 18 -59 -5 -96 -13 -20 -36 -58 -53 -85
-16 -26 -47 -65 -68 -85 -32 -30 -67 -80 -67 -95 0 -8 45 -44 56 -44 7 0 36
16 65 35 29 19 56 32 61 29 14 -9 9 -51 -7 -57 -40 -16 -218 -144 -277 -200
-85 -80 -91 -121 -24 -147 26 -10 35 -7 75 21 25 18 73 56 106 84 49 42 102
75 119 75 10 0 29 -113 28 -167 -1 -79 23 -116 72 -111 25 2 33 9 41 35 6 17
18 40 27 50 16 17 16 22 -9 69 -24 47 -25 56 -18 138 6 71 11 92 31 115 34 40
191 133 213 126 10 -3 25 -3 34 1 29 11 51 114 26 129 -19 12 -97 -6 -134 -31
-50 -34 -59 -31 -52 15 6 48 -6 61 -55 61 l-38 0 5 43 c4 23 26 83 50 132 35
70 45 103 47 149 3 59 3 60 -29 69 -25 8 -40 5 -70 -11 -22 -11 -58 -20 -81
-20 -54 -1 -57 -4 -70 -54 -10 -38 -46 -78 -59 -65 -5 6 23 63 36 71 5 3 35
58 67 121 54 108 62 118 113 150 31 19 61 35 67 35 7 0 19 6 26 14 8 7 40 25
71 40 61 28 66 35 41 61 -19 19 -40 16 -122 -17 -29 -11 -56 -18 -59 -14 -4 4
4 39 17 79 31 93 33 196 5 227 -24 27 -78 50 -116 50 -15 0 -30 4 -34 9 -5 9
62 127 96 166 9 11 24 35 33 53 l17 32 -60 0 c-42 0 -62 -5 -72 -16z"/>
<path d="M542 1798 c2 -26 -1 -33 -15 -32 -12 1 -17 -4 -15 -15 2 -10 -2 -24
-8 -32 -6 -8 -16 -70 -23 -139 -12 -130 -26 -191 -68 -300 -32 -82 -118 -281
-148 -340 -77 -154 -135 -291 -135 -320 0 -6 7 -10 15 -10 8 0 36 34 62 75 26
42 72 112 101 157 28 45 52 90 52 99 0 10 5 21 11 24 5 4 21 32 35 63 14 32
34 73 44 93 11 20 31 68 45 105 31 83 59 114 145 162 36 20 94 58 129 84 35
27 67 48 71 48 14 0 20 31 10 51 -20 37 -79 21 -200 -56 -30 -20 -59 -34 -64
-32 -5 2 -8 32 -6 68 9 152 5 213 -13 247 -10 17 -21 32 -23 32 -2 0 -3 -15
-2 -32z m-14 -334 c-10 -10 -28 6 -28 24 0 15 1 15 17 -1 9 -9 14 -19 11 -23z"/>
<path d="M760 1243 c-19 -8 -48 -25 -65 -36 -32 -24 -65 -43 -132 -77 -24 -12
-43 -26 -43 -30 0 -4 -16 -17 -35 -29 -25 -14 -35 -27 -35 -45 0 -29 33 -56
68 -56 24 0 121 62 202 130 25 21 69 48 98 61 59 27 65 37 48 70 -14 29 -56
34 -106 12z"/>
<path d="M649 960 c-9 -5 -20 -22 -23 -36 -4 -15 -14 -33 -22 -42 -25 -24
-127 -102 -134 -102 -4 0 -35 -27 -69 -59 -70 -66 -75 -90 -29 -124 38 -29 70
-16 138 55 32 34 62 60 65 56 3 -3 0 -32 -9 -64 -12 -52 -14 -81 -8 -131 3
-19 57 -43 95 -43 71 0 153 134 130 213 -6 23 -23 10 -66 -52 -17 -25 -32 -40
-34 -34 -2 6 10 53 26 103 17 50 31 106 31 124 0 18 7 41 15 52 15 20 20 70 8
77 -19 11 -100 16 -114 7z"/>
</g>
</svg>
