<?xml version="1.0" standalone="no"?>
<!DOCTYPE svg PUBLIC "-//W3C//DTD SVG 20010904//EN"
 "http://www.w3.org/TR/2001/REC-SVG-20010904/DTD/svg10.dtd">
<svg version="1.0" xmlns="http://www.w3.org/2000/svg"
 width="208.000000pt" height="202.000000pt" viewBox="0 0 208.000000 202.000000"
 preserveAspectRatio="xMidYMid meet">
<metadata>
Created by potrace 1.16, written by Peter Selinger 2001-2019
</metadata>
<g transform="translate(0.000000,202.000000) scale(0.100000,-0.100000)"
fill="#000000" stroke="none">
<path d="M1278 1998 c-8 -13 -27 -48 -41 -78 -15 -30 -40 -77 -57 -105 -16
-27 -33 -57 -37 -65 -4 -8 -19 -35 -35 -59 -15 -25 -28 -50 -28 -57 0 -18 50
-74 66 -74 8 0 46 41 86 91 65 83 73 89 85 73 18 -24 15 -90 -5 -144 -18 -46
-36 -57 -95 -59 -16 -1 -42 -10 -58 -22 -49 -35 -32 -87 34 -103 32 -8 33 -16
4 -81 -36 -78 -57 -112 -131 -203 -37 -46 -83 -110 -102 -141 -18 -31 -49 -78
-69 -106 -19 -27 -51 -73 -70 -101 -54 -79 -216 -253 -236 -254 -6 0 -14 51
-24 167 l-5 52 50 38 c27 20 50 40 50 44 0 4 24 23 53 42 135 90 161 147 62
137 -25 -2 -146 -74 -170 -100 -10 -11 -30 -20 -46 -20 -20 0 -47 -18 -100
-68 -41 -38 -105 -90 -144 -117 -103 -70 -117 -97 -69 -134 33 -26 39 -26 64
-1 28 28 114 80 132 80 21 0 28 -30 28 -116 0 -102 -21 -162 -71 -199 -22 -16
-63 -53 -90 -81 -28 -28 -73 -62 -100 -75 l-50 -23 -24 30 -23 29 -11 -28
c-17 -44 20 -117 61 -117 20 0 150 58 158 71 3 5 27 20 53 34 26 13 53 29 60
35 40 34 91 70 98 70 5 0 14 11 21 25 16 30 124 157 231 270 76 80 186 217
188 232 0 5 16 28 35 53 19 25 39 55 46 68 8 16 17 21 30 16 14 -4 43 10 94
45 41 29 79 49 84 46 6 -3 10 -21 10 -40 0 -28 -12 -47 -73 -112 -109 -117
-177 -203 -177 -222 0 -23 31 -51 57 -51 13 0 45 24 79 60 32 33 61 60 66 60
4 0 8 -18 8 -40 0 -49 -36 -93 -123 -148 -34 -22 -73 -51 -86 -65 -13 -14 -48
-38 -78 -54 -30 -15 -74 -44 -97 -64 -22 -20 -60 -48 -83 -62 -54 -34 -114
-97 -111 -116 4 -19 65 -55 81 -47 6 3 46 31 87 61 41 30 110 78 153 106 42
29 77 56 77 60 0 5 5 9 11 9 6 0 29 15 52 34 23 18 52 39 64 45 l23 11 -6
-220 -6 -220 66 0 c72 0 78 7 57 64 -24 62 -9 374 20 422 11 17 19 39 19 48 0
30 109 126 205 181 33 20 45 23 36 12 -10 -13 -11 -21 -3 -29 15 -15 94 25
138 70 19 19 34 31 34 26 1 -28 29 47 30 79 l0 37 -54 0 c-36 0 -61 -6 -77
-18 -40 -30 -156 -92 -173 -92 -13 0 -15 4 -6 19 5 11 10 37 10 59 0 45 -23
72 -63 72 -15 0 -27 2 -27 5 0 21 46 86 80 115 23 18 48 49 56 68 7 19 22 36
32 38 27 8 72 86 72 126 0 37 -13 49 -55 54 -21 2 -129 -48 -156 -72 -8 -8
-20 -14 -25 -14 -14 0 -54 67 -61 100 -5 25 0 35 29 63 19 17 68 45 109 61
123 48 198 87 211 110 24 43 -26 45 -157 7 -38 -12 -80 -24 -92 -27 -21 -6
-21 -3 -21 78 -1 101 -20 152 -64 167 -34 12 -35 21 -3 71 14 22 25 42 25 45
0 4 12 22 26 41 l26 34 -70 0 c-61 0 -71 -3 -84 -22z m195 -821 c-23 -24 -46
-54 -52 -66 -14 -24 -31 -20 -26 7 2 9 4 22 4 29 1 12 102 83 110 77 2 -2 -14
-23 -36 -47z m-213 -1 c0 -3 -4 -8 -10 -11 -5 -3 -10 -1 -10 4 0 6 5 11 10 11
6 0 10 -2 10 -4z"/>
<path d="M567 1832 c-21 -21 -32 -53 -52 -142 -33 -146 -44 -188 -56 -225 -58
-169 -86 -241 -130 -333 -28 -59 -65 -136 -82 -172 -26 -55 -69 -124 -158
-256 -8 -13 -32 -40 -52 -59 -35 -34 -49 -75 -26 -75 32 0 122 70 153 119 13
20 37 51 55 70 17 18 31 38 31 43 0 6 14 32 32 59 23 36 38 49 55 49 13 0 41
11 61 25 20 14 40 25 44 25 12 0 130 79 181 121 18 14 44 29 58 32 15 4 46 23
70 43 23 19 55 42 69 49 50 26 47 66 -5 79 -27 7 -75 -13 -110 -44 -11 -10
-56 -37 -100 -61 -44 -23 -82 -45 -85 -49 -7 -10 -87 -50 -100 -50 -5 0 -10 7
-10 15 0 8 4 15 10 15 14 0 42 60 84 180 20 58 41 109 46 114 5 5 18 3 31 -6
19 -12 28 -12 70 2 129 42 111 102 -28 95 -29 -1 -53 0 -53 2 0 21 35 120 44
128 7 6 16 28 20 50 4 22 16 59 27 81 15 31 17 47 10 66 -17 46 -65 51 -104
10z"/>
</g>
</svg>
