<?xml version="1.0" standalone="no"?>
<!DOCTYPE svg PUBLIC "-//W3C//DTD SVG 20010904//EN"
 "http://www.w3.org/TR/2001/REC-SVG-20010904/DTD/svg10.dtd">
<svg version="1.0" xmlns="http://www.w3.org/2000/svg"
 width="209.000000pt" height="200.000000pt" viewBox="0 0 209.000000 200.000000"
 preserveAspectRatio="xMidYMid meet">
<metadata>
Created by potrace 1.16, written by Peter Selinger 2001-2019
</metadata>
<g transform="translate(0.000000,200.000000) scale(0.100000,-0.100000)"
fill="#000000" stroke="none">
<path d="M1565 1982 c-16 -8 -36 -22 -42 -31 -23 -29 -61 -116 -69 -156 -4
-25 -18 -51 -37 -68 -33 -31 -94 -60 -108 -51 -5 3 -26 -7 -46 -21 -21 -14
-43 -25 -49 -25 -6 0 -29 -18 -50 -41 -45 -47 -122 -106 -175 -132 -20 -11
-42 -29 -48 -40 -7 -12 -48 -40 -93 -61 -44 -21 -94 -52 -110 -68 -16 -15 -31
-28 -33 -28 -3 0 -36 -24 -75 -54 -64 -50 -106 -73 -115 -64 -3 4 31 188 37
192 1 2 35 18 73 36 105 48 129 62 143 82 7 10 19 18 27 18 14 0 99 64 148
111 25 23 27 30 18 48 -21 38 -52 29 -136 -42 -18 -15 -50 -34 -71 -43 -22 -9
-48 -24 -59 -34 -22 -20 -106 -43 -117 -32 -17 18 49 330 82 385 16 27 18 40
10 61 -5 14 -15 26 -22 27 -7 0 -33 2 -57 5 -77 8 -87 -14 -96 -216 -9 -196
-69 -578 -96 -604 -5 -6 -9 -20 -9 -32 0 -11 -11 -38 -25 -58 -14 -20 -25 -51
-25 -69 -1 -50 -144 -354 -192 -407 -13 -14 -38 -36 -55 -48 -18 -13 -33 -27
-33 -32 0 -15 44 -22 72 -11 31 12 106 90 133 139 11 20 25 42 31 49 7 7 22
34 33 60 12 26 31 64 41 83 11 19 33 63 50 97 25 49 42 69 82 93 27 17 77 52
111 79 34 26 77 56 95 66 17 11 32 22 32 26 0 9 97 79 108 79 5 0 19 11 32 25
26 28 97 65 124 65 27 0 55 18 124 78 55 48 71 57 119 63 30 4 63 15 74 25 23
20 23 21 4 -38 -13 -45 -8 -67 14 -53 5 3 31 35 57 70 26 36 51 65 55 65 4 0
19 31 34 69 14 38 33 75 41 81 8 7 14 20 14 30 0 9 11 33 24 53 13 19 27 44
31 55 3 12 19 35 36 53 34 37 39 83 10 99 -25 13 -39 12 -76 -8z"/>
<path d="M1750 1551 c-25 -9 -74 -36 -109 -59 -36 -23 -70 -42 -76 -42 -6 0
-26 -11 -45 -25 -18 -13 -49 -30 -69 -36 -20 -6 -44 -18 -54 -27 -18 -16 -43
-32 -87 -54 -14 -8 -51 -29 -82 -48 -77 -47 -153 -88 -273 -150 -145 -75 -175
-94 -175 -107 0 -14 -39 -38 -47 -29 -4 3 1 14 10 24 39 42 8 58 -72 37 -30
-8 -58 -20 -62 -27 -5 -7 -9 -41 -9 -75 l0 -61 -48 -30 c-26 -16 -73 -49 -103
-74 -30 -25 -67 -53 -81 -62 -62 -40 -73 -101 -23 -124 41 -19 57 -14 95 25
20 21 65 64 100 97 l65 58 3 -80 c3 -89 -16 -182 -48 -235 -27 -44 -26 -92 2
-111 32 -23 55 -20 75 11 10 14 47 57 83 95 36 38 85 90 110 116 25 26 56 62
70 80 14 17 36 46 50 63 14 18 37 46 52 63 l27 31 1 -43 c0 -24 -7 -75 -15
-115 -8 -40 -20 -93 -25 -119 -17 -86 -24 -232 -11 -256 7 -13 17 -20 22 -16
16 10 58 105 68 154 18 91 50 235 54 250 3 8 8 27 11 42 4 17 21 38 44 53 21
14 63 49 94 79 31 30 74 66 96 80 22 14 43 30 47 36 3 5 11 10 17 10 8 0 9
-27 4 -86 -10 -133 -9 -132 -64 -126 -62 6 -119 -18 -128 -52 -6 -24 13 -87
43 -146 7 -14 13 -32 13 -41 0 -18 -102 -149 -127 -163 -10 -5 -24 -16 -31
-23 -7 -7 -17 -13 -21 -13 -15 0 -91 -77 -91 -93 0 -15 45 -57 61 -57 13 0
136 86 194 135 67 56 130 95 155 95 33 0 66 41 73 91 4 24 11 125 17 224 11
182 40 329 76 379 8 12 14 44 14 75 l0 54 -37 -6 c-25 -4 -48 -17 -67 -38 -16
-18 -50 -47 -75 -65 -26 -17 -60 -45 -77 -61 -16 -16 -51 -42 -79 -58 -27 -15
-62 -39 -77 -53 -17 -16 -46 -28 -79 -33 -32 -5 -62 -18 -78 -32 -14 -12 -39
-29 -56 -37 -28 -14 -78 -58 -211 -187 -29 -29 -58 -53 -64 -53 -13 0 -4 234
10 261 14 25 97 79 123 79 10 0 31 8 45 19 15 10 57 33 94 51 37 19 91 53 120
76 28 24 66 49 82 55 17 7 42 22 56 35 14 12 59 39 100 60 41 21 84 45 95 55
25 21 324 209 364 229 35 17 39 37 14 56 -22 16 -19 17 -73 -5z m-387 -947
c-4 -12 -8 -13 -14 -3 -9 15 -2 32 11 24 5 -3 6 -13 3 -21z m53 -100 c-3 -8
-10 -14 -16 -14 -14 0 -13 27 2 53 l13 22 3 -23 c2 -13 1 -30 -2 -38z"/>
</g>
</svg>
