<?xml version="1.0" standalone="no"?>
<!DOCTYPE svg PUBLIC "-//W3C//DTD SVG 20010904//EN"
 "http://www.w3.org/TR/2001/REC-SVG-20010904/DTD/svg10.dtd">
<svg version="1.0" xmlns="http://www.w3.org/2000/svg"
 width="207.000000pt" height="204.000000pt" viewBox="0 0 207.000000 204.000000"
 preserveAspectRatio="xMidYMid meet">
<metadata>
Created by potrace 1.16, written by Peter Selinger 2001-2019
</metadata>
<g transform="translate(0.000000,204.000000) scale(0.100000,-0.100000)"
fill="#000000" stroke="none">
<path d="M1420 1975 c-134 -85 -335 -267 -370 -336 -28 -53 -25 -67 16 -87 36
-17 37 -17 53 6 9 13 27 38 41 55 14 18 32 44 39 60 8 15 18 27 23 27 4 0 40
30 79 68 73 69 99 89 99 75 0 -4 -9 -51 -21 -103 -34 -159 -47 -250 -53 -365
-8 -163 -15 -202 -40 -219 -29 -19 -136 -125 -136 -134 0 -7 -51 -34 -56 -29
-2 1 13 37 32 80 43 95 56 183 29 193 -12 5 -37 -3 -69 -19 -65 -34 -229 -191
-224 -215 2 -9 19 -24 38 -33 31 -15 37 -15 57 -2 25 17 28 13 13 -15 -5 -9
-21 -44 -36 -76 -15 -33 -46 -78 -68 -101 -93 -94 -213 -224 -246 -268 -19
-25 -38 -47 -41 -47 -9 0 20 179 33 203 6 12 17 28 25 35 7 7 13 25 13 38 0
36 16 62 51 79 38 20 34 33 -16 53 -22 8 -42 16 -43 18 -10 7 23 122 39 137
10 10 19 24 19 32 0 16 43 53 93 80 46 24 50 57 9 74 -31 13 -69 0 -149 -52
-24 -15 -45 -27 -49 -27 -3 0 -29 -21 -58 -46 -57 -52 -106 -85 -117 -79 -6 4
52 239 73 294 7 18 12 21 20 13 18 -18 46 -14 81 12 18 13 51 33 74 45 24 12
79 48 123 82 70 52 80 64 80 91 0 30 -1 31 -41 25 -22 -3 -59 -18 -82 -34 -65
-43 -227 -121 -227 -108 0 28 34 122 50 140 49 54 88 292 56 340 -19 29 -72
40 -101 21 -18 -12 -23 -28 -29 -89 -7 -83 -24 -170 -61 -322 -13 -55 -36
-152 -50 -215 -15 -63 -33 -133 -40 -155 -7 -22 -17 -56 -20 -75 -4 -19 -18
-62 -32 -95 -21 -51 -32 -99 -70 -296 -3 -18 0 -28 10 -32 19 -7 67 28 67 49
0 8 4 14 10 14 5 0 15 11 23 25 16 32 145 173 169 186 16 9 18 4 18 -52 0 -56
-3 -63 -31 -87 -17 -15 -66 -62 -107 -104 -42 -43 -81 -78 -88 -78 -13 0 -94
-122 -94 -142 0 -17 26 -42 53 -51 21 -8 49 15 155 122 35 35 66 61 69 57 8
-7 -46 -288 -58 -300 -13 -14 -11 -64 3 -103 9 -26 18 -33 38 -33 20 0 35 14
73 67 81 115 127 187 127 201 0 6 4 12 9 12 5 0 19 20 31 45 19 39 60 79 60
59 0 -4 -20 -51 -45 -105 -25 -54 -52 -131 -60 -171 l-16 -72 25 -24 c18 -19
30 -23 50 -18 30 7 56 60 101 201 33 108 76 202 119 262 17 25 36 52 41 61 32
53 56 83 110 139 33 34 66 67 72 75 66 69 221 203 228 196 9 -9 6 -360 -4
-438 -5 -41 -10 -118 -10 -170 -1 -52 -5 -108 -9 -124 l-8 -28 -27 41 c-32 49
-34 74 -7 143 26 70 26 139 0 163 -19 17 -31 17 -102 -1 -22 -5 -28 -3 -28 9
0 9 -5 28 -12 42 -22 49 -108 22 -108 -35 0 -31 -72 -186 -101 -215 -16 -17
-29 -36 -29 -42 0 -5 -15 -30 -33 -54 -18 -24 -46 -66 -61 -92 -25 -45 -26
-50 -12 -71 8 -13 27 -27 41 -30 30 -8 50 11 85 81 12 24 25 45 31 48 5 4 25
30 43 58 19 29 55 74 79 102 l44 49 18 -37 c15 -33 16 -40 3 -60 -8 -12 -25
-49 -38 -82 -12 -33 -35 -87 -50 -120 -15 -33 -30 -71 -35 -85 -4 -14 -23 -56
-41 -93 l-35 -68 58 3 58 3 76 154 c42 85 81 157 87 159 6 2 18 -10 26 -26 8
-15 22 -35 31 -42 9 -8 26 -34 37 -58 22 -47 57 -76 84 -70 23 4 54 90 41 114
-6 11 -8 82 -4 193 12 328 27 616 38 739 6 67 8 129 5 137 -8 21 -53 18 -76
-5 -35 -35 -43 -25 -36 43 18 176 25 210 121 576 25 98 -17 118 -115 56z"/>
<path d="M930 1502 c-41 -20 -48 -47 -25 -93 9 -17 19 -61 22 -98 6 -76 26
-119 48 -101 8 6 22 33 31 58 10 26 18 48 19 50 1 1 14 -2 29 -8 21 -7 34 -5
64 11 50 27 82 64 75 87 -4 17 -10 18 -53 11 -27 -4 -58 -12 -69 -18 -35 -19
-41 -13 -35 32 6 43 3 46 -66 84 -3 2 -21 -5 -40 -15z"/>
</g>
</svg>
