<?xml version="1.0" standalone="no"?>
<!DOCTYPE svg PUBLIC "-//W3C//DTD SVG 20010904//EN"
 "http://www.w3.org/TR/2001/REC-SVG-20010904/DTD/svg10.dtd">
<svg version="1.0" xmlns="http://www.w3.org/2000/svg"
 width="206.000000pt" height="205.000000pt" viewBox="0 0 206.000000 205.000000"
 preserveAspectRatio="xMidYMid meet">
<metadata>
Created by potrace 1.16, written by Peter Selinger 2001-2019
</metadata>
<g transform="translate(0.000000,205.000000) scale(0.100000,-0.100000)"
fill="#000000" stroke="none">
<path d="M1368 1968 c-12 -14 -18 -54 -23 -148 -8 -142 -9 -144 -98 -203 -39
-27 -87 -88 -87 -111 0 -20 45 -46 79 -46 20 0 36 8 49 25 11 14 21 25 23 25
2 0 2 -39 0 -87 l-3 -88 -44 -41 c-50 -46 -50 -59 -2 -110 39 -42 31 -68 -40
-137 -32 -30 -87 -88 -124 -130 -42 -46 -84 -83 -113 -96 -38 -18 -45 -25 -45
-51 0 -22 7 -33 29 -45 27 -13 33 -13 73 5 57 26 68 25 68 -5 0 -32 39 -49 92
-40 l38 7 0 -86 c0 -80 -13 -136 -32 -136 -4 0 -8 -5 -8 -10 0 -21 -51 -91
-73 -101 -18 -8 -35 -5 -78 14 -30 14 -72 29 -94 33 -22 4 -51 15 -64 25 -13
11 -29 19 -35 19 -6 0 -24 11 -41 24 -24 20 -28 27 -17 37 6 7 12 21 12 30 0
10 7 24 15 32 18 19 34 116 36 235 2 51 6 95 11 98 5 3 6 14 3 24 -3 10 -2 21
3 24 5 3 17 40 26 83 10 43 26 101 36 128 38 107 42 129 31 157 -23 62 -124
87 -188 48 -34 -20 -37 -27 -27 -54 8 -21 83 -41 97 -27 17 17 27 13 37 -15 9
-22 1 -44 -49 -147 -69 -142 -78 -181 -85 -377 -5 -132 -13 -192 -31 -220 -3
-6 -28 7 -59 30 -29 22 -64 40 -77 40 -40 0 -69 -27 -69 -64 0 -24 -9 -41 -36
-67 l-36 -34 7 60 c11 99 46 259 59 267 6 4 15 9 19 11 5 1 9 18 10 37 2 28
-3 37 -21 45 -20 8 -23 15 -18 44 3 19 0 41 -6 48 -8 10 -6 19 8 35 27 29 119
97 149 108 38 14 32 80 -7 80 -35 0 -100 -23 -105 -37 -5 -12 -53 -43 -66 -43
-2 0 -1 18 3 40 9 51 84 177 110 185 11 3 20 10 20 16 0 5 19 21 42 35 24 15
49 33 56 41 7 7 19 13 25 13 7 0 17 11 23 25 9 18 9 28 -2 43 -13 19 -16 19
-56 5 -24 -8 -49 -19 -56 -25 -21 -18 -23 -4 -8 43 43 132 44 143 18 177 -15
19 -26 23 -58 20 l-39 -3 -53 -160 c-29 -88 -64 -202 -77 -253 -14 -51 -42
-132 -64 -180 -21 -48 -49 -114 -62 -147 -12 -33 -35 -75 -51 -93 -21 -24 -28
-43 -28 -74 0 -27 -8 -51 -23 -72 -13 -17 -29 -47 -36 -66 -7 -19 -22 -54 -32
-77 -25 -57 -24 -66 7 -60 18 3 32 -2 49 -19 13 -13 31 -24 40 -24 9 0 44 27
78 60 34 33 64 55 65 50 6 -18 -18 -211 -28 -230 -19 -36 -12 -95 14 -120 29
-26 48 -22 73 17 10 15 28 38 40 51 11 12 28 38 37 57 9 19 21 37 27 41 6 3
14 17 19 30 12 31 30 30 60 -1 13 -14 32 -25 42 -25 11 0 40 -9 65 -21 25 -11
85 -36 133 -54 114 -43 167 -71 194 -100 24 -26 64 -38 85 -25 10 6 29 1 57
-15 23 -13 44 -21 47 -19 2 3 24 -6 48 -20 36 -19 56 -24 107 -22 35 1 65 -1
68 -6 3 -4 10 -3 17 2 7 6 22 18 35 28 15 11 27 37 35 72 11 48 11 61 -4 100
-9 24 -22 46 -29 48 -18 6 -40 -26 -40 -59 0 -83 -61 -109 -92 -40 -28 60 -23
82 25 122 23 19 58 41 77 49 56 23 100 51 111 72 9 17 8 19 -8 14 -10 -3 -39
-10 -65 -16 -26 -5 -70 -19 -98 -30 -28 -11 -55 -20 -60 -20 -17 0 -11 72 10
128 24 62 25 110 5 159 -14 33 -14 38 2 55 9 11 18 41 21 73 4 47 9 59 33 75
l28 20 44 -30 c25 -16 50 -30 55 -30 6 0 19 12 30 28 15 21 22 64 34 207 9 99
21 191 26 205 5 14 20 63 32 110 13 47 28 94 36 106 7 11 22 66 34 120 28 133
21 154 -50 154 -34 0 -67 -8 -100 -25 -27 -14 -56 -25 -63 -25 -8 0 -24 -9
-37 -20 -12 -11 -27 -17 -31 -14 -5 3 -9 40 -9 82 0 42 -6 88 -13 101 -17 34
-59 44 -79 19z m284 -264 c-17 -33 -42 -99 -57 -149 -14 -49 -35 -119 -45
-155 -11 -36 -22 -110 -26 -165 -4 -55 -11 -110 -15 -123 -12 -31 -36 -38 -59
-17 -30 27 -26 75 10 120 54 68 36 155 -29 138 -22 -5 -22 -4 -16 53 3 33 7
82 9 109 5 64 37 136 71 163 15 12 56 35 90 51 35 17 66 35 70 41 5 8 11 8 17
2 6 -6 -1 -30 -20 -68z m-396 -752 c-14 -14 -16 -14 -16 -1 0 20 23 44 29 28
2 -6 -4 -18 -13 -27z m-866 -152 c0 -35 -5 -42 -42 -69 -24 -16 -55 -43 -70
-60 -31 -37 -52 -41 -43 -8 7 22 25 45 75 98 14 14 33 38 43 52 25 38 37 34
37 -13z m870 20 c0 -12 -35 -31 -44 -23 -8 9 14 33 30 33 8 0 14 -4 14 -10z"/>
</g>
</svg>
