<?xml version="1.0" standalone="no"?>
<!DOCTYPE svg PUBLIC "-//W3C//DTD SVG 20010904//EN"
 "http://www.w3.org/TR/2001/REC-SVG-20010904/DTD/svg10.dtd">
<svg version="1.0" xmlns="http://www.w3.org/2000/svg"
 width="207.000000pt" height="206.000000pt" viewBox="0 0 207.000000 206.000000"
 preserveAspectRatio="xMidYMid meet">
<metadata>
Created by potrace 1.16, written by Peter Selinger 2001-2019
</metadata>
<g transform="translate(0.000000,206.000000) scale(0.100000,-0.100000)"
fill="#000000" stroke="none">
<path d="M1415 2020 c-12 -13 -13 -36 -8 -119 l6 -103 -38 -34 c-21 -19 -42
-34 -46 -34 -9 0 -138 -108 -156 -130 -7 -8 -13 -27 -13 -42 0 -20 7 -28 31
-37 64 -22 101 -8 113 44 7 33 80 100 96 90 6 -4 9 -35 6 -78 -3 -40 -5 -89
-5 -109 -1 -34 -4 -38 -36 -44 -37 -7 -59 -32 -49 -58 3 -8 21 -24 40 -35 32
-19 45 -41 24 -41 -5 0 -10 -8 -10 -18 0 -10 -11 -34 -25 -53 -37 -49 -234
-249 -246 -249 -6 0 -24 -9 -40 -21 l-29 -20 0 33 c0 19 4 38 9 43 16 19 41
109 41 152 0 97 -61 164 -150 165 -39 0 -58 -6 -85 -26 -18 -14 -38 -26 -44
-26 -6 0 -15 -9 -20 -19 -6 -10 -23 -24 -38 -30 -29 -12 -61 -34 -154 -110
-44 -35 -55 -40 -57 -27 -6 28 30 133 55 162 13 15 23 30 23 33 0 4 27 21 60
39 33 18 62 37 65 42 3 4 33 24 68 44 93 53 89 49 78 79 -13 33 -34 34 -86 6
-83 -44 -156 -79 -165 -79 -16 0 -12 30 15 118 13 45 27 108 31 140 8 72 -6
89 -63 75 -33 -8 -38 -13 -51 -58 -8 -28 -22 -93 -32 -145 -11 -52 -24 -117
-29 -144 -14 -61 -51 -165 -62 -172 -5 -3 -9 -26 -9 -52 -1 -75 -24 -162 -63
-237 -20 -39 -39 -83 -42 -100 -13 -63 -50 -152 -87 -210 -21 -33 -47 -79 -58
-103 -11 -23 -42 -65 -70 -93 -27 -27 -50 -54 -50 -59 0 -28 86 11 133 61 11
11 31 19 52 19 19 0 37 4 40 10 11 18 139 110 153 110 12 0 13 -12 8 -62 -4
-35 -14 -77 -23 -95 -8 -17 -13 -39 -11 -49 5 -25 52 -57 74 -50 21 6 72 109
85 171 20 93 39 217 34 225 -2 4 5 19 16 34 25 32 16 49 -21 41 -27 -6 -29 -4
-32 27 -5 51 16 139 35 149 9 6 17 21 17 34 0 24 65 89 122 123 16 9 28 20 28
24 0 4 5 8 10 8 6 0 10 -7 10 -15 0 -8 3 -15 8 -15 6 0 54 38 92 74 29 26 57
28 79 5 12 -13 21 -33 21 -45 0 -55 -203 -485 -229 -484 -3 0 -14 7 -24 14
-23 18 -84 1 -92 -25 -7 -20 20 -79 36 -79 5 0 2 -13 -7 -29 -15 -25 -15 -34
-4 -60 15 -38 38 -40 78 -6 17 14 38 25 48 25 29 0 127 -28 133 -38 3 -5 15
-11 26 -15 92 -28 172 -60 189 -76 16 -15 35 -19 81 -19 87 0 129 -20 154 -75
34 -74 73 -88 99 -34 7 15 21 27 31 27 28 0 105 -37 126 -60 26 -29 44 -25 59
12 14 35 14 72 -2 202 -16 124 -41 130 -61 14 -8 -40 -17 -78 -22 -84 -7 -8
-25 -5 -67 12 -56 22 -57 24 -69 76 l-12 53 47 42 c26 23 52 42 57 43 6 0 36
16 68 36 37 23 57 42 57 55 0 24 -24 25 -76 3 -22 -9 -68 -27 -103 -41 l-63
-24 6 128 c10 194 37 325 73 355 12 10 19 6 40 -20 15 -20 33 -32 48 -32 44 0
53 33 64 236 10 180 19 244 55 379 20 73 20 106 1 150 -18 45 -52 58 -137 52
-68 -4 -68 -4 -68 22 -1 14 -7 51 -14 81 -12 52 -14 55 -49 61 -27 4 -41 1
-52 -11z m237 -253 c9 -15 -1 -56 -22 -87 -22 -34 -48 -180 -56 -323 -7 -115
-7 -117 -26 -100 -38 34 -45 72 -41 202 2 68 8 132 14 142 5 10 9 43 9 74 0
64 12 92 43 105 26 11 69 3 79 -13z m-290 -669 c-7 -7 -12 -8 -12 -2 0 14 12
26 19 19 2 -3 -1 -11 -7 -17z m-2 -163 c0 -43 -1 -45 -29 -45 -38 0 -97 -25
-105 -45 -9 -24 14 -52 56 -68 25 -10 38 -22 38 -34 -1 -24 -33 -95 -63 -136
-13 -17 -32 -49 -42 -69 -11 -21 -24 -38 -29 -38 -16 0 -158 51 -180 65 -12 7
-39 18 -61 25 -22 7 -48 19 -57 27 -16 14 -15 19 13 72 16 31 33 63 39 71 5 8
16 32 26 52 14 33 18 36 31 23 22 -23 69 -18 116 12 23 15 60 37 82 48 22 12
65 36 95 53 30 17 58 31 63 31 4 1 7 -19 7 -44z m-898 -183 c-4 -49 -8 -55
-44 -78 -22 -14 -47 -28 -56 -32 -16 -6 -15 -4 0 20 10 15 15 33 13 41 -3 7 3
22 15 32 11 10 20 23 20 29 0 6 10 27 21 46 20 32 22 33 29 15 4 -11 5 -44 2
-73z"/>
</g>
</svg>
