<?xml version="1.0" standalone="no"?>
<!DOCTYPE svg PUBLIC "-//W3C//DTD SVG 20010904//EN"
 "http://www.w3.org/TR/2001/REC-SVG-20010904/DTD/svg10.dtd">
<svg version="1.0" xmlns="http://www.w3.org/2000/svg"
 width="207.000000pt" height="207.000000pt" viewBox="0 0 207.000000 207.000000"
 preserveAspectRatio="xMidYMid meet">
<metadata>
Created by potrace 1.16, written by Peter Selinger 2001-2019
</metadata>
<g transform="translate(0.000000,207.000000) scale(0.100000,-0.100000)"
fill="#000000" stroke="none">
<path d="M519 1775 c-24 -13 -27 -21 -33 -97 -12 -154 -42 -302 -67 -334 -12
-15 -61 -149 -115 -319 -56 -172 -78 -226 -115 -288 -16 -26 -29 -54 -29 -62
0 -7 -4 -16 -9 -19 -5 -3 -18 -26 -30 -50 -11 -25 -34 -60 -50 -78 -35 -40
-29 -64 11 -49 28 11 108 80 108 94 0 5 13 22 29 38 17 16 49 66 72 112 23 45
43 83 44 85 1 2 23 5 49 7 l46 4 0 -54 c0 -49 -3 -56 -32 -77 -18 -13 -60 -37
-93 -55 -109 -57 -169 -142 -107 -151 13 -2 26 -10 29 -18 5 -15 52 13 145 89
39 31 49 36 54 23 11 -28 -61 -295 -87 -321 -17 -17 -9 -44 20 -64 41 -29 69
-27 83 6 31 79 136 281 158 308 20 24 66 127 73 163 9 45 -12 42 -54 -10 -19
-22 -49 -57 -66 -77 l-33 -36 0 35 c0 77 16 106 99 172 44 35 87 68 97 74 22
13 12 44 -13 44 -10 0 -51 -16 -92 -35 -40 -19 -75 -35 -77 -35 -9 0 -2 47 11
70 8 14 14 34 15 46 0 15 23 36 79 72 44 29 86 52 94 52 8 0 25 8 37 18 22 17
22 19 4 36 -27 28 -101 13 -208 -41 -50 -26 -93 -50 -96 -54 -3 -5 -23 -15
-44 -24 -38 -16 -38 -16 -31 7 3 13 17 50 30 83 13 33 31 86 40 118 14 48 20
57 39 57 13 0 40 13 61 30 20 16 46 32 58 36 41 12 165 99 182 127 35 59 -34
78 -96 27 -34 -27 -93 -54 -148 -67 -24 -6 -24 -5 -17 43 3 27 16 67 27 89 53
103 54 230 2 254 -28 13 -22 13 -54 -4z"/>
<path d="M1308 1735 c-12 -14 -26 -25 -31 -25 -5 0 -33 -22 -62 -48 -29 -27
-70 -57 -92 -67 -50 -23 -83 -54 -83 -77 0 -10 14 -27 32 -38 l32 -19 49 27
c27 14 68 43 92 64 24 21 46 38 49 38 9 0 -3 -62 -26 -139 -30 -99 -80 -157
-172 -198 -46 -21 -77 -16 -112 18 -18 17 -37 28 -43 25 -18 -11 -31 -78 -31
-161 -1 -124 -62 -382 -117 -490 -24 -47 -63 -147 -63 -163 0 -7 -27 -70 -60
-139 -33 -69 -60 -128 -60 -133 0 -4 -6 -12 -13 -19 -8 -6 -26 -35 -41 -65
-15 -30 -43 -71 -62 -90 l-35 -36 26 0 c14 0 37 7 51 16 29 19 135 158 170
224 14 25 41 72 60 105 19 33 52 95 72 138 28 62 40 77 54 74 13 -4 24 6 39
31 11 21 39 51 62 68 23 17 70 52 105 77 34 26 65 47 68 47 25 0 -72 -292
-123 -370 -28 -43 -29 -54 -3 -80 29 -29 51 -25 136 25 41 25 79 45 84 45 5 0
21 11 37 24 38 31 101 43 110 20 9 -24 -40 -117 -91 -172 -23 -26 -47 -54 -52
-63 -18 -33 -164 -145 -211 -162 -102 -37 -163 -13 -163 62 0 46 -20 59 -45
31 -21 -23 -23 -86 -6 -119 12 -22 14 -23 182 -19 l170 3 65 68 c36 37 69 67
73 67 17 0 143 181 160 232 18 53 18 111 -1 135 -26 33 -109 55 -123 33 -3 -6
-17 -10 -30 -10 -14 0 -47 -9 -75 -19 -40 -15 -50 -16 -50 -5 0 17 32 148 71
284 16 58 29 112 29 120 1 8 41 47 91 85 129 100 189 158 189 183 0 32 -44 29
-89 -7 -20 -15 -51 -36 -69 -45 -18 -9 -38 -25 -45 -36 -6 -11 -19 -20 -28
-20 -9 0 -22 -7 -29 -15 -14 -17 -46 -20 -55 -5 -11 18 -53 11 -69 -12 -9 -12
-13 -31 -10 -44 6 -25 4 -27 -106 -128 -63 -57 -124 -95 -135 -84 -3 3 8 47
24 99 25 81 39 182 41 282 0 25 3 27 40 27 68 0 210 82 250 144 11 17 24 38
29 46 35 55 87 281 77 334 -3 16 -11 33 -18 38 -26 16 -68 8 -90 -17z"/>
</g>
</svg>
