<?xml version="1.0" standalone="no"?>
<!DOCTYPE svg PUBLIC "-//W3C//DTD SVG 20010904//EN"
 "http://www.w3.org/TR/2001/REC-SVG-20010904/DTD/svg10.dtd">
<svg version="1.0" xmlns="http://www.w3.org/2000/svg"
 width="207.000000pt" height="205.000000pt" viewBox="0 0 207.000000 205.000000"
 preserveAspectRatio="xMidYMid meet">
<metadata>
Created by potrace 1.16, written by Peter Selinger 2001-2019
</metadata>
<g transform="translate(0.000000,205.000000) scale(0.100000,-0.100000)"
fill="#000000" stroke="none">
<path d="M1140 1935 c0 -154 21 -151 74 8 36 107 36 107 -24 107 l-50 0 0
-115z"/>
<path d="M461 2021 c-15 -4 -28 -18 -34 -36 -5 -17 -16 -37 -23 -45 -23 -26
-46 -90 -74 -205 -16 -60 -42 -157 -58 -215 -25 -89 -49 -195 -92 -415 -12
-58 -37 -131 -56 -164 -16 -27 -14 -61 4 -61 21 0 73 71 94 129 22 58 27 64
55 66 21 2 54 21 102 61 73 62 164 124 180 124 5 0 16 6 23 13 27 26 68 47 91
47 32 0 49 22 45 56 -5 43 -29 52 -90 30 -28 -10 -68 -28 -87 -41 -20 -12 -80
-46 -135 -74 l-99 -53 7 48 c14 93 28 134 50 146 11 6 41 28 66 48 25 20 60
42 77 48 61 21 163 109 163 141 0 35 -71 33 -110 -4 -25 -24 -125 -75 -147
-75 -16 0 -17 32 -3 74 5 17 15 50 20 74 6 23 16 42 23 43 15 0 87 146 87 176
0 62 -22 80 -79 64z"/>
<path d="M1456 1964 c-49 -26 -240 -166 -251 -184 -4 -6 -30 -26 -58 -44 -29
-19 -90 -71 -137 -114 l-85 -80 15 -29 c19 -35 72 -44 101 -17 18 16 19 16 19
-10 0 -39 -64 -284 -110 -417 -22 -63 -46 -140 -53 -170 -11 -42 -19 -55 -38
-59 -13 -3 -45 -34 -74 -70 -27 -36 -63 -79 -80 -95 -31 -32 -107 -116 -138
-155 -10 -12 -21 -19 -24 -16 -8 8 16 152 33 201 17 47 20 218 7 378 -7 90
-11 111 -27 123 -50 36 -68 3 -72 -134 -2 -57 -6 -108 -10 -113 -3 -5 -47 -37
-97 -70 -104 -69 -137 -103 -137 -140 0 -31 28 -59 59 -59 19 0 129 89 139
113 2 4 13 7 24 7 23 0 22 -9 -13 -219 -10 -62 -21 -130 -24 -150 -2 -20 -9
-67 -16 -106 -6 -38 -13 -84 -16 -101 -5 -35 7 -49 54 -58 31 -7 32 -6 67 69
20 42 36 79 36 82 0 3 20 34 45 70 25 35 45 68 45 73 0 5 9 14 20 20 11 6 26
26 34 45 8 18 32 53 53 77 22 24 52 69 68 101 30 60 45 78 45 55 0 -12 -48
-158 -135 -408 -18 -52 -58 -144 -89 -204 -30 -60 -53 -113 -50 -118 12 -19
45 -6 71 29 15 20 37 46 49 57 12 12 25 32 29 46 4 14 25 61 46 106 42 88 129
307 129 324 0 6 9 36 21 68 11 31 41 128 65 216 48 171 67 216 88 216 8 0 24
12 36 28 l21 27 -6 -110 c-6 -102 -5 -112 14 -129 31 -28 73 -13 135 51 30 31
76 93 103 139 26 47 60 101 76 121 15 20 30 48 34 61 3 14 21 52 39 84 47 83
67 154 68 243 2 81 -47 125 -138 125 -56 0 -97 -24 -133 -80 -59 -89 -37 -108
39 -34 36 34 57 47 87 51 38 5 41 4 57 -30 17 -36 17 -43 -13 -167 -3 -14 -19
-44 -35 -68 -16 -23 -37 -59 -46 -80 -9 -20 -33 -62 -53 -92 -19 -30 -44 -68
-53 -84 -10 -16 -30 -42 -45 -58 l-26 -30 -7 43 c-3 24 -7 71 -7 104 -1 59 0
61 55 123 50 56 55 66 46 87 -12 26 -59 30 -67 5 -8 -24 -74 -65 -86 -53 -14
14 -16 118 -2 135 6 7 16 29 22 49 6 20 23 47 36 59 17 16 25 34 25 56 0 23 7
36 26 49 15 9 48 38 74 64 46 45 114 105 136 119 12 8 27 82 16 82 -4 0 -29
-12 -56 -26z"/>
<path d="M1465 912 c-70 -30 -129 -70 -173 -117 -46 -50 -49 -60 -26 -93 23
-34 58 -28 109 19 25 23 48 39 52 35 7 -7 -108 -236 -119 -236 -4 0 -9 4 -12
9 -3 5 -41 30 -84 55 -42 26 -89 56 -103 67 -26 20 -28 20 -53 4 -50 -33 -51
-51 -9 -90 21 -20 70 -54 109 -75 104 -58 104 -58 63 -142 -23 -49 -49 -83
-81 -111 -56 -47 -61 -67 -17 -67 39 0 114 46 128 77 6 13 18 26 26 30 9 3 25
23 36 44 22 44 25 45 65 24 16 -8 36 -15 45 -15 9 0 36 -15 60 -34 26 -20 66
-39 99 -46 30 -7 89 -26 130 -42 41 -17 95 -33 120 -36 25 -2 54 -11 65 -18
24 -17 56 -18 89 -3 18 8 33 9 55 1 l31 -11 0 39 c0 34 -4 42 -30 55 -16 8
-34 15 -40 15 -6 0 -24 10 -40 21 -26 20 -31 21 -52 7 -25 -16 -72 -8 -148 25
-19 8 -51 18 -70 22 -75 16 -288 133 -278 153 2 4 12 26 22 50 10 23 22 42 27
42 5 0 9 5 9 11 0 12 23 67 45 109 24 46 55 144 55 176 0 32 -26 64 -51 63 -8
0 -32 -8 -54 -17z"/>
</g>
</svg>
