<?xml version="1.0" standalone="no"?>
<!DOCTYPE svg PUBLIC "-//W3C//DTD SVG 20010904//EN"
 "http://www.w3.org/TR/2001/REC-SVG-20010904/DTD/svg10.dtd">
<svg version="1.0" xmlns="http://www.w3.org/2000/svg"
 width="208.000000pt" height="206.000000pt" viewBox="0 0 208.000000 206.000000"
 preserveAspectRatio="xMidYMid meet">
<metadata>
Created by potrace 1.16, written by Peter Selinger 2001-2019
</metadata>
<g transform="translate(0.000000,206.000000) scale(0.100000,-0.100000)"
fill="#000000" stroke="none">
<path d="M1510 1893 c-26 -9 -65 -35 -94 -64 -27 -27 -54 -49 -60 -49 -6 0
-26 -15 -46 -34 -19 -19 -60 -48 -90 -64 -30 -15 -75 -43 -100 -61 -25 -18
-65 -43 -90 -56 -59 -30 -95 -77 -80 -105 16 -30 43 -41 68 -27 11 7 40 23 64
36 23 13 56 34 73 48 61 50 108 83 118 83 15 0 126 84 127 95 0 14 59 49 68
41 3 -4 1 -32 -6 -64 -6 -31 -14 -104 -17 -162 -3 -58 -10 -145 -15 -195 -9
-86 -24 -462 -24 -590 0 -33 4 -109 8 -170 5 -60 10 -132 12 -160 1 -27 6 -76
9 -107 6 -53 5 -58 -12 -58 -11 0 -42 19 -70 42 -105 90 -198 147 -236 148
-10 0 -17 -5 -15 -10 4 -14 189 -200 198 -200 4 0 25 -19 48 -43 82 -84 118
-114 144 -121 24 -5 28 -2 39 32 16 47 14 181 -7 427 -13 159 -14 228 -5 420
23 485 37 684 55 793 24 140 24 174 0 182 -11 5 -39 1 -64 -7z"/>
<path d="M480 1592 c-31 -15 -35 -21 -34 -54 2 -69 37 -85 93 -44 18 13 48 27
67 30 39 8 43 22 13 60 -16 21 -29 26 -62 26 -23 0 -58 -8 -77 -18z"/>
<path d="M1325 1373 c-10 -3 -31 -17 -45 -32 -34 -35 -79 -72 -115 -95 -16
-11 -43 -32 -59 -47 -16 -14 -50 -39 -77 -55 -80 -47 -75 -109 9 -109 39 0 83
28 159 99 18 16 36 26 40 22 12 -12 17 -496 5 -496 -5 0 -17 11 -26 25 -24 36
-38 31 -22 -7 8 -18 18 -55 23 -82 6 -36 15 -54 35 -69 25 -19 28 -19 52 -4
14 10 30 25 35 35 5 10 12 157 15 327 3 171 10 326 16 345 15 52 12 116 -6
134 -8 9 -16 15 -17 15 -1 -1 -11 -4 -22 -6z"/>
<path d="M523 1102 c-10 -17 -33 -38 -51 -47 l-34 -16 6 -62 c3 -34 8 -123 12
-197 5 -121 3 -146 -19 -245 -14 -60 -34 -153 -46 -205 -11 -52 -23 -105 -27
-117 -9 -32 30 -51 57 -27 10 9 19 23 19 29 0 7 11 28 24 47 12 19 29 66 36
104 7 38 17 80 22 94 30 79 47 223 47 391 0 95 2 196 3 224 3 41 0 50 -15 53
-11 2 -23 -7 -34 -26z"/>
<path d="M824 1055 c-19 -19 -23 -31 -18 -48 12 -38 -1 -326 -19 -432 -3 -18
0 -38 9 -49 12 -17 17 -18 39 -6 23 12 28 11 56 -16 34 -32 69 -36 158 -14 64
15 156 92 131 110 -8 6 -24 8 -35 4 -39 -12 -75 -16 -75 -9 0 8 21 48 29 55 3
3 23 32 45 64 37 58 38 60 25 100 -15 50 -65 106 -94 106 -11 0 -31 -7 -43
-16 -28 -20 -22 -47 19 -82 l29 -24 -36 -69 c-20 -38 -39 -69 -43 -69 -3 0
-28 -20 -56 -45 -27 -25 -54 -45 -59 -45 -4 0 -5 16 -2 35 7 34 33 232 43 322
3 23 11 47 19 54 22 18 17 35 -18 68 -40 38 -71 39 -104 6z"/>
</g>
</svg>
