<?xml version="1.0" standalone="no"?>
<!DOCTYPE svg PUBLIC "-//W3C//DTD SVG 20010904//EN"
 "http://www.w3.org/TR/2001/REC-SVG-20010904/DTD/svg10.dtd">
<svg version="1.0" xmlns="http://www.w3.org/2000/svg"
 width="206.000000pt" height="205.000000pt" viewBox="0 0 206.000000 205.000000"
 preserveAspectRatio="xMidYMid meet">
<metadata>
Created by potrace 1.16, written by Peter Selinger 2001-2019
</metadata>
<g transform="translate(0.000000,205.000000) scale(0.100000,-0.100000)"
fill="#000000" stroke="none">
<path d="M1270 2024 c-14 -14 -46 -43 -72 -66 -27 -22 -48 -46 -48 -53 0 -7
-7 -16 -15 -19 -18 -7 -50 -73 -46 -96 3 -19 39 -50 57 -50 8 0 24 17 37 38
45 70 218 234 233 220 2 -3 0 -17 -5 -31 -31 -80 -52 -337 -40 -465 12 -111
23 -408 34 -884 6 -247 7 -242 -49 -213 -15 8 -33 15 -38 15 -11 0 -94 35
-123 52 -11 7 -44 25 -72 41 -29 15 -55 33 -58 38 -9 14 -35 11 -35 -5 0 -26
146 -145 222 -181 40 -19 89 -43 108 -53 19 -11 52 -28 73 -38 l38 -19 19 25
c23 31 35 129 25 213 -3 34 -8 154 -11 267 -2 113 -9 333 -16 490 -16 355 -14
519 8 635 9 50 19 107 21 128 l5 37 -113 0 c-108 -1 -115 -2 -139 -26z"/>
<path d="M398 1692 c-24 -41 -23 -61 8 -93 24 -25 31 -27 80 -22 53 6 54 5 65
-26 6 -17 14 -31 18 -31 4 0 20 13 35 29 23 24 26 34 21 62 -13 69 -54 96
-160 106 -47 4 -51 3 -67 -25z"/>
<path d="M1183 1467 c-15 -12 -32 -27 -38 -34 -5 -6 -37 -22 -70 -36 -76 -30
-185 -111 -185 -138 0 -23 34 -59 55 -59 18 0 85 42 133 82 18 15 36 28 41 28
8 0 13 -113 26 -524 5 -133 9 -146 48 -146 12 0 25 15 38 44 17 39 19 60 14
158 -13 262 -14 445 -3 494 12 59 3 140 -17 148 -7 2 -26 -5 -42 -17z"/>
<path d="M734 1150 l-31 -20 -7 -135 c-6 -97 -14 -157 -31 -210 -22 -71 -22
-76 -5 -85 23 -12 37 0 84 73 29 45 40 74 47 125 5 37 15 105 23 151 15 83 15
83 -7 102 -28 23 -35 23 -73 -1z"/>
<path d="M435 1133 c-22 -14 -43 -31 -47 -36 -3 -6 -11 -56 -17 -111 -6 -56
-20 -153 -31 -216 -23 -135 -31 -206 -33 -315 -2 -68 1 -80 15 -83 13 -2 20 8
28 40 6 24 18 62 26 86 8 23 14 53 14 65 0 12 9 45 19 72 10 28 22 73 26 100
4 28 16 84 27 125 11 41 24 93 29 115 5 22 13 57 18 77 11 45 0 102 -19 106
-8 1 -33 -10 -55 -25z"/>
<path d="M943 1140 c-32 -13 -31 -57 1 -72 14 -6 31 -24 40 -41 13 -27 13 -35
0 -58 -8 -16 -14 -37 -14 -47 0 -11 -15 -35 -32 -54 -18 -19 -46 -52 -63 -72
-16 -21 -46 -46 -65 -56 -44 -23 -90 -65 -90 -83 0 -26 27 -50 57 -50 19 0 49
15 88 44 32 24 86 60 119 79 34 19 76 46 94 59 35 27 43 61 15 61 -21 0 -90
-23 -99 -33 -14 -13 -34 -7 -34 11 0 15 42 88 60 102 3 3 13 23 23 45 14 32
16 50 8 89 -13 71 -52 98 -108 76z"/>
</g>
</svg>
