<?xml version="1.0" standalone="no"?>
<!DOCTYPE svg PUBLIC "-//W3C//DTD SVG 20010904//EN"
 "http://www.w3.org/TR/2001/REC-SVG-20010904/DTD/svg10.dtd">
<svg version="1.0" xmlns="http://www.w3.org/2000/svg"
 width="205.000000pt" height="205.000000pt" viewBox="0 0 205.000000 205.000000"
 preserveAspectRatio="xMidYMid meet">
<metadata>
Created by potrace 1.16, written by Peter Selinger 2001-2019
</metadata>
<g transform="translate(0.000000,205.000000) scale(0.100000,-0.100000)"
fill="#000000" stroke="none">
<path d="M1263 1837 c-106 -60 -176 -97 -183 -97 -5 0 -15 -6 -23 -14 -8 -8
-54 -41 -102 -73 -134 -88 -145 -97 -215 -161 l-65 -60 24 -26 c14 -14 34 -26
45 -26 12 1 53 28 91 61 39 33 102 81 140 106 39 26 88 61 110 78 35 28 118
75 130 75 11 0 4 -39 -21 -114 -24 -78 -30 -124 -65 -526 -10 -113 -9 -234 7
-538 5 -94 -3 -116 -49 -137 -18 -8 -44 -24 -58 -36 -15 -11 -41 -24 -59 -28
-42 -8 -48 -24 -15 -39 36 -17 94 -15 130 4 17 8 52 18 78 21 41 5 50 11 64
37 18 35 18 29 11 386 -9 415 12 676 76 931 38 154 38 189 -3 189 -14 0 -36
-6 -48 -13z m-173 -147 c0 -5 -4 -10 -10 -10 -5 0 -10 5 -10 10 0 6 5 10 10
10 6 0 10 -4 10 -10z m-96 -71 c-3 -5 -10 -7 -15 -3 -5 3 -7 10 -3 15 3 5 10
7 15 3 5 -3 7 -10 3 -15z"/>
<path d="M158 1423 c-41 -10 -30 -103 12 -103 11 0 42 -12 69 -27 47 -27 50
-27 69 -10 23 21 18 64 -9 72 -10 4 -19 13 -19 21 0 40 -61 63 -122 47z"/>
<path d="M979 1291 c-24 -17 -62 -44 -84 -60 -22 -17 -53 -37 -68 -46 -15 -9
-36 -24 -47 -35 -10 -10 -35 -26 -55 -35 -19 -10 -58 -38 -85 -62 l-49 -44
-71 37 c-61 32 -74 35 -96 26 -31 -15 -46 -52 -34 -89 38 -125 58 -220 65
-303 7 -75 15 -88 48 -73 24 11 44 64 31 84 -3 5 0 25 5 45 7 27 6 55 -4 106
-8 38 -15 85 -15 104 0 31 3 34 28 34 16 0 37 -7 48 -15 29 -22 60 -18 107 12
23 15 44 30 47 33 3 3 28 20 57 38 28 18 57 40 64 48 7 9 26 22 41 30 l29 15
-2 -58 c-1 -32 1 -137 6 -234 5 -130 4 -181 -4 -198 -10 -17 -10 -26 0 -37 18
-22 43 -17 75 17 l29 30 1 257 c0 150 5 282 12 316 8 43 9 63 1 73 -17 19 -30
16 -80 -16z"/>
<path d="M276 992 c-8 -16 -30 -41 -48 -56 -18 -14 -39 -31 -46 -37 -8 -7 -10
-22 -5 -52 5 -23 8 -60 7 -82 -1 -52 -24 -319 -31 -367 -4 -30 -2 -39 12 -45
25 -9 51 25 59 79 4 24 13 52 20 63 15 23 24 60 30 120 21 204 29 262 41 286
20 38 16 113 -7 117 -10 2 -23 -8 -32 -26z"/>
<path d="M730 967 c-26 -13 -36 -43 -22 -65 5 -7 27 -19 48 -27 50 -17 54 -40
17 -106 -30 -56 -62 -92 -108 -124 -81 -55 -98 -103 -46 -125 34 -14 59 -8 92
21 13 11 61 45 106 76 46 31 86 60 89 65 4 6 0 16 -8 24 -11 12 -21 12 -43 4
-15 -6 -30 -8 -33 -6 -5 5 12 45 49 120 18 35 19 40 4 62 -8 13 -15 32 -15 43
0 12 -12 26 -32 35 -37 19 -65 20 -98 3z"/>
</g>
</svg>
