<?xml version="1.0" standalone="no"?>
<!DOCTYPE svg PUBLIC "-//W3C//DTD SVG 20010904//EN"
 "http://www.w3.org/TR/2001/REC-SVG-20010904/DTD/svg10.dtd">
<svg version="1.0" xmlns="http://www.w3.org/2000/svg"
 width="209.000000pt" height="205.000000pt" viewBox="0 0 209.000000 205.000000"
 preserveAspectRatio="xMidYMid meet">
<metadata>
Created by potrace 1.16, written by Peter Selinger 2001-2019
</metadata>
<g transform="translate(0.000000,205.000000) scale(0.100000,-0.100000)"
fill="#000000" stroke="none">
<path d="M580 1765 c-15 -18 -27 -72 -40 -180 -6 -44 -16 -109 -24 -145 -30
-137 -36 -173 -36 -208 0 -20 -9 -91 -19 -157 -11 -66 -22 -146 -25 -178 -3
-32 -8 -62 -11 -67 -5 -7 -18 -122 -29 -259 -3 -30 -8 -130 -12 -223 -7 -165
-7 -168 14 -168 32 0 57 55 70 160 12 97 33 285 37 330 3 39 4 40 31 40 49 0
133 50 202 120 257 261 296 313 296 393 0 41 -5 53 -25 70 -21 17 -34 19 -121
14 -54 -3 -98 -3 -98 -1 0 16 65 103 90 119 34 23 70 88 70 129 0 69 -65 130
-156 147 -37 7 -63 18 -72 30 -31 44 -117 64 -142 34z m266 -186 c25 -27 20
-76 -11 -107 -14 -14 -35 -41 -47 -61 -12 -20 -33 -44 -45 -54 -12 -10 -39
-35 -60 -56 -21 -22 -51 -42 -67 -45 l-28 -7 7 58 c4 32 10 63 14 68 4 6 8 21
9 33 0 13 12 34 25 46 15 14 28 40 32 67 12 74 18 79 89 79 51 0 66 -4 82 -21z
m94 -363 c0 -21 -58 -103 -125 -176 -157 -171 -274 -275 -291 -257 -4 4 32
282 42 320 4 18 11 26 20 23 7 -3 44 12 81 33 38 21 88 42 113 46 25 4 52 11
60 16 26 14 100 11 100 -5z"/>
<path d="M1544 1608 c-25 -24 -58 -56 -72 -73 -29 -33 -94 -97 -133 -132 -97
-87 -172 -191 -171 -237 2 -78 132 -89 132 -11 0 18 7 45 15 61 13 27 31 48
149 173 l41 44 5 -59 c3 -33 0 -97 -7 -144 -8 -47 -18 -157 -23 -245 -9 -180
-28 -295 -47 -295 -16 0 -17 32 -2 47 8 8 9 30 5 67 -6 46 -12 59 -37 77 -43
30 -146 38 -183 14 -23 -15 -26 -23 -21 -49 4 -17 25 -59 47 -93 l40 -63 -20
-32 c-11 -17 -48 -60 -82 -94 -42 -42 -61 -68 -57 -78 9 -22 68 -56 83 -48 7
4 40 33 74 65 73 70 77 68 126 -39 37 -80 53 -97 85 -92 29 4 36 31 48 183 5
66 16 179 25 250 8 72 20 191 25 265 5 74 19 231 31 349 18 176 19 215 8 222
-23 15 -36 10 -84 -33z m-204 -818 c0 -5 -4 -10 -10 -10 -5 0 -10 5 -10 10 0
6 5 10 10 10 6 0 10 -4 10 -10z"/>
<path d="M1115 1390 c-37 -41 -63 -137 -105 -395 -16 -95 -31 -154 -61 -245
-39 -119 -60 -253 -47 -291 9 -26 15 -30 41 -27 30 3 30 3 47 103 9 55 33 150
53 210 31 93 82 304 104 434 4 19 19 60 34 90 34 67 36 90 9 119 -26 27 -51
28 -75 2z"/>
</g>
</svg>
