<?xml version="1.0" standalone="no"?>
<!DOCTYPE svg PUBLIC "-//W3C//DTD SVG 20010904//EN"
 "http://www.w3.org/TR/2001/REC-SVG-20010904/DTD/svg10.dtd">
<svg version="1.0" xmlns="http://www.w3.org/2000/svg"
 width="207.000000pt" height="206.000000pt" viewBox="0 0 207.000000 206.000000"
 preserveAspectRatio="xMidYMid meet">
<metadata>
Created by potrace 1.16, written by Peter Selinger 2001-2019
</metadata>
<g transform="translate(0.000000,206.000000) scale(0.100000,-0.100000)"
fill="#000000" stroke="none">
<path d="M1409 1908 c-8 -7 -25 -29 -38 -48 -13 -19 -87 -96 -164 -170 -78
-74 -179 -172 -225 -217 -45 -45 -93 -85 -105 -89 -30 -9 -48 -24 -57 -50 -8
-20 -17 -22 -117 -26 -59 -3 -116 -9 -126 -13 -26 -11 -20 7 15 45 66 71 137
196 144 255 7 51 -10 74 -56 76 -46 2 -176 -25 -195 -41 -12 -10 -21 -10 -46
1 -30 12 -33 11 -61 -20 -17 -19 -26 -37 -21 -44 4 -7 8 -39 9 -72 1 -33 9
-150 18 -260 18 -213 17 -516 -4 -730 -5 -60 -12 -194 -13 -298 -4 -200 0
-220 41 -198 40 21 49 67 55 261 3 102 10 212 16 245 5 33 13 101 16 151 l7
91 72 89 c40 49 106 137 148 197 42 59 78 104 81 100 7 -13 -14 -198 -43 -389
-6 -34 -10 -87 -10 -118 0 -31 -7 -84 -16 -119 -9 -34 -22 -87 -30 -118 -15
-60 -11 -89 13 -89 24 0 73 30 73 45 0 8 11 54 24 102 13 48 29 131 35 183 6
52 21 165 32 250 12 85 24 206 28 267 6 106 19 150 35 124 10 -16 52 -13 66 4
7 8 10 23 8 33 -3 11 0 29 6 40 12 23 271 292 295 306 11 7 12 -19 7 -150 -3
-88 -9 -172 -14 -189 -4 -16 -9 -196 -10 -400 -2 -203 -4 -371 -6 -373 -11
-10 -50 25 -84 76 -43 62 -92 152 -92 166 0 30 51 102 102 142 32 26 58 50 58
54 0 21 -31 32 -61 21 -18 -6 -36 -11 -40 -11 -4 0 -7 33 -7 74 0 82 -11 112
-48 126 -41 16 -69 11 -99 -16 -28 -25 -28 -26 -21 -116 4 -50 12 -111 19
-135 9 -37 8 -55 -6 -110 -19 -72 -13 -93 27 -93 31 0 37 -7 86 -90 43 -75
138 -200 150 -200 4 0 17 -21 29 -46 28 -56 65 -77 85 -48 23 30 28 78 19 177
-25 282 11 1225 48 1247 8 5 13 33 13 77 1 65 0 68 -24 71 -14 2 -32 -3 -41
-10z m-769 -344 c0 -5 -22 -36 -93 -131 -43 -58 -67 -68 -67 -28 0 14 4 25 9
25 6 0 11 19 13 43 3 39 6 44 53 69 47 25 85 35 85 22z m50 -368 c0 -22 -167
-266 -182 -266 -4 0 -8 53 -8 119 l0 118 68 21 c82 24 122 27 122 8z"/>
</g>
</svg>
