<?xml version="1.0" standalone="no"?>
<!DOCTYPE svg PUBLIC "-//W3C//DTD SVG 20010904//EN"
 "http://www.w3.org/TR/2001/REC-SVG-20010904/DTD/svg10.dtd">
<svg version="1.0" xmlns="http://www.w3.org/2000/svg"
 width="205.000000pt" height="205.000000pt" viewBox="0 0 205.000000 205.000000"
 preserveAspectRatio="xMidYMid meet">
<metadata>
Created by potrace 1.16, written by Peter Selinger 2001-2019
</metadata>
<g transform="translate(0.000000,205.000000) scale(0.100000,-0.100000)"
fill="#000000" stroke="none">
<path d="M1470 1813 c-8 -3 -59 -51 -114 -107 -240 -247 -284 -300 -330 -398
-30 -65 -30 -65 -14 -118 22 -70 55 -51 103 60 38 87 95 169 183 260 l74 75
-7 -95 c-4 -52 -11 -117 -16 -144 -5 -27 -9 -101 -9 -165 0 -64 -5 -145 -10
-181 -5 -36 -12 -202 -15 -370 -4 -168 -9 -307 -11 -309 -7 -8 -123 117 -175
189 -76 103 -74 99 -52 123 35 39 83 115 83 132 0 16 -10 16 -59 -3 -11 -4
-12 4 -6 39 14 81 7 179 -16 223 -48 94 -102 121 -177 90 -42 -16 -44 -16 -66
5 -12 11 -29 21 -37 21 -21 0 -69 -52 -69 -74 0 -15 -6 -17 -40 -11 -23 4 -55
2 -75 -5 -20 -7 -39 -10 -41 -7 -3 3 5 21 18 39 200 296 215 324 220 432 2 55
-14 75 -66 78 -62 3 -88 -3 -122 -29 -42 -31 -42 -62 -1 -81 24 -12 33 -12 60
1 54 26 62 -1 22 -68 -14 -22 -31 -54 -38 -71 -15 -32 -74 -104 -86 -104 -4 0
-5 38 -3 84 6 109 -3 152 -33 172 -22 14 -27 14 -60 -1 -20 -10 -37 -26 -39
-39 -12 -56 -17 -162 -21 -391 -3 -137 -10 -318 -17 -402 -10 -133 -14 -152
-30 -156 -29 -8 -33 -35 -9 -61 25 -27 27 -75 6 -161 -8 -33 -18 -111 -21
-172 l-7 -113 51 0 c52 0 52 0 53 33 2 77 10 163 19 196 5 20 14 83 20 140 11
109 19 129 86 218 38 50 129 234 139 281 4 17 11 32 16 32 15 0 10 -56 -16
-209 -14 -79 -25 -161 -25 -181 0 -20 -7 -59 -15 -86 -8 -27 -15 -63 -15 -81
0 -18 -5 -44 -12 -58 -16 -36 7 -60 44 -46 34 13 66 102 83 226 3 28 20 124
36 214 16 90 29 179 29 197 0 56 15 46 39 -24 59 -175 81 -220 186 -374 100
-148 161 -227 211 -275 24 -22 44 -46 44 -52 0 -16 59 -73 72 -69 7 3 21 17
32 31 16 22 18 31 9 46 -7 11 -8 22 -2 28 6 6 5 47 -1 109 -6 54 -10 110 -10
124 -2 220 6 532 15 600 3 19 10 130 15 246 7 146 18 253 36 349 32 177 29
214 -16 198z m-50 -430 c0 -29 -12 -63 -21 -63 -10 0 -12 63 -2 73 12 12 23 7
23 -10z m-435 -403 c34 -37 29 -210 -6 -210 -5 0 -9 1 -9 3 0 1 -11 32 -24 70
-20 57 -22 75 -14 112 11 49 25 56 53 25z m-345 -46 c0 -10 -35 -109 -40 -114
-3 -3 -16 -29 -29 -58 -45 -97 -54 -91 -48 31 3 59 9 112 12 117 3 6 15 10 25
10 10 0 22 5 25 10 7 11 55 14 55 4z"/>
</g>
</svg>
