<?xml version="1.0" standalone="no"?>
<!DOCTYPE svg PUBLIC "-//W3C//DTD SVG 20010904//EN"
 "http://www.w3.org/TR/2001/REC-SVG-20010904/DTD/svg10.dtd">
<svg version="1.0" xmlns="http://www.w3.org/2000/svg"
 width="206.000000pt" height="205.000000pt" viewBox="0 0 206.000000 205.000000"
 preserveAspectRatio="xMidYMid meet">
<metadata>
Created by potrace 1.16, written by Peter Selinger 2001-2019
</metadata>
<g transform="translate(0.000000,205.000000) scale(0.100000,-0.100000)"
fill="#000000" stroke="none">
<path d="M1605 1851 c-45 -14 -226 -142 -330 -235 -22 -20 -43 -36 -46 -36
-13 0 -79 -106 -79 -127 0 -28 31 -45 72 -41 26 2 33 9 40 33 9 35 22 51 103
120 32 28 74 64 94 81 43 37 78 57 84 47 2 -5 2 -28 0 -53 -7 -106 -16 -601
-17 -918 -1 -219 -5 -342 -11 -342 -9 0 -58 31 -162 102 -23 15 -46 28 -51 28
-11 0 -56 66 -66 97 -11 36 35 106 82 124 15 6 22 17 22 34 0 24 -2 25 -35 19
-30 -5 -35 -4 -35 14 0 11 7 25 15 32 8 7 15 18 15 25 0 7 9 32 20 56 22 50
26 144 7 198 -23 66 -103 98 -151 60 -31 -25 -32 -38 -6 -72 11 -14 20 -32 20
-41 0 -22 26 -31 44 -17 36 30 27 -97 -14 -179 -58 -118 -71 -139 -101 -170
-28 -27 -30 -34 -21 -55 7 -15 26 -28 53 -36 30 -10 46 -21 56 -43 39 -83 57
-103 197 -206 49 -36 108 -82 131 -103 37 -32 46 -36 68 -28 19 7 28 20 33 46
3 19 10 38 15 41 5 3 5 12 0 22 -15 28 -24 203 -24 447 1 380 12 847 23 890 5
22 10 70 10 107 0 72 -13 91 -55 79z"/>
<path d="M755 1602 c-44 -27 -60 -51 -61 -91 -1 -50 -12 -160 -34 -341 -10
-85 -24 -205 -31 -267 -13 -126 -23 -155 -59 -163 -33 -8 -35 -51 -2 -65 25
-11 27 -26 12 -106 -15 -88 -39 -366 -33 -389 5 -19 11 -21 41 -17 19 4 36 7
37 9 4 4 25 145 31 203 13 124 37 295 46 325 6 19 18 42 27 51 9 8 24 31 35
50 10 20 31 44 45 54 25 17 83 98 115 161 30 62 46 120 46 176 0 48 -3 59 -21
69 -25 13 -104 5 -125 -12 -20 -17 -36 0 -29 29 5 21 64 151 117 258 13 28 -4
62 -35 68 -75 16 -93 15 -122 -2z m115 -460 c0 -34 -116 -226 -131 -217 -9 6
-1 103 12 155 6 25 19 41 46 56 48 27 73 29 73 6z"/>
<path d="M1066 1387 c-16 -13 -30 -35 -31 -48 -1 -13 -8 -64 -14 -114 -7 -49
-16 -119 -21 -155 -4 -36 -16 -92 -25 -125 -17 -57 -34 -145 -54 -265 -6 -30
-19 -84 -31 -120 -12 -36 -26 -83 -32 -105 -7 -22 -18 -53 -26 -69 -18 -37 -8
-74 24 -88 23 -11 29 -9 45 11 10 12 25 46 33 74 53 189 78 285 95 374 11 57
29 138 40 180 10 43 26 123 36 178 9 55 23 117 30 137 17 44 13 137 -6 149
-21 13 -32 11 -63 -14z"/>
</g>
</svg>
