<?xml version="1.0" standalone="no"?>
<!DOCTYPE svg PUBLIC "-//W3C//DTD SVG 20010904//EN"
 "http://www.w3.org/TR/2001/REC-SVG-20010904/DTD/svg10.dtd">
<svg version="1.0" xmlns="http://www.w3.org/2000/svg"
 width="209.000000pt" height="205.000000pt" viewBox="0 0 209.000000 205.000000"
 preserveAspectRatio="xMidYMid meet">
<metadata>
Created by potrace 1.16, written by Peter Selinger 2001-2019
</metadata>
<g transform="translate(0.000000,205.000000) scale(0.100000,-0.100000)"
fill="#000000" stroke="none">
<path d="M1324 1803 c-22 -21 -67 -62 -100 -92 -130 -117 -235 -224 -250 -254
-9 -18 -22 -39 -29 -47 -7 -8 -15 -27 -19 -41 -7 -32 9 -48 57 -56 41 -6 77
22 77 61 0 27 26 62 114 154 99 103 91 124 92 -231 0 -172 3 -370 7 -440 4
-71 5 -133 1 -138 -7 -11 -38 26 -48 57 -3 11 -14 29 -24 40 -10 10 -37 57
-59 104 -31 62 -43 103 -48 152 -6 62 -9 69 -39 88 -42 25 -67 25 -100 -1 -34
-27 -33 -46 5 -92 17 -20 29 -41 27 -45 -2 -4 -25 -40 -51 -80 -54 -80 -55
-101 -6 -129 16 -9 29 -25 29 -34 0 -40 -52 -158 -96 -218 -44 -61 -124 -142
-134 -136 -15 9 -12 60 10 170 19 96 56 319 80 475 7 41 17 87 22 103 18 48
36 171 27 193 -4 12 -15 24 -24 28 -26 10 -74 -21 -81 -52 -3 -15 -12 -48 -19
-73 -8 -25 -17 -77 -19 -115 -12 -164 -31 -304 -77 -549 -11 -60 -19 -132 -17
-160 l3 -50 35 2 35 1 -45 -40 c-43 -38 -94 -70 -150 -93 -90 -37 -122 -83
-80 -117 27 -22 42 -22 100 -3 25 8 74 23 110 34 81 25 131 43 150 56 14 9 52
21 213 65 37 10 74 23 82 30 16 13 199 70 226 70 9 0 39 9 66 21 58 25 137 34
298 34 130 0 175 -8 175 -29 0 -17 18 -25 42 -18 11 3 19 19 23 54 6 43 4 53
-15 73 -22 23 -28 24 -154 24 -72 0 -180 -7 -239 -16 -60 -8 -112 -12 -115 -8
-7 6 -14 174 -28 689 -7 265 3 404 34 439 12 13 16 40 17 95 0 75 -1 77 -25
80 -17 1 -38 -10 -66 -35z m-234 -948 c28 -52 31 -58 78 -129 18 -28 32 -54
32 -58 0 -5 11 -26 25 -48 14 -22 31 -58 39 -80 16 -47 14 -49 -69 -69 -27 -7
-66 -21 -85 -32 -19 -10 -88 -32 -152 -49 -64 -16 -131 -36 -147 -45 -34 -17
-61 -20 -61 -5 0 6 36 49 81 97 44 48 95 113 112 145 18 32 38 58 45 58 7 0
24 24 38 54 19 42 25 73 27 135 0 44 4 78 7 76 3 -2 17 -24 30 -50z"/>
<path d="M525 1644 c-49 -7 -100 -19 -112 -25 -33 -18 -40 -49 -15 -70 21 -16
21 -18 6 -90 -17 -82 -43 -284 -50 -399 -14 -214 -20 -253 -48 -273 -33 -23
-33 -40 -1 -61 24 -16 25 -18 20 -119 -3 -56 -10 -124 -15 -150 -20 -96 -41
-360 -30 -371 17 -17 45 7 48 40 2 16 11 47 21 69 24 53 28 69 36 140 3 33 10
76 15 95 4 19 13 100 20 180 6 80 19 165 27 190 9 25 40 70 68 100 109 117
185 246 185 315 0 54 -22 70 -80 60 -39 -7 -39 -7 -27 19 7 14 15 26 19 26 4
0 24 25 44 56 21 31 45 59 55 61 20 6 54 72 68 133 8 36 7 50 -5 68 -13 20
-22 22 -87 21 -39 -1 -112 -7 -162 -15z m170 -83 c3 -6 -8 -25 -25 -44 -16
-19 -30 -38 -30 -41 0 -10 -71 -76 -80 -76 -5 0 -6 18 -3 39 3 22 1 54 -5 71
-9 23 -8 32 1 34 91 26 133 30 142 17z m-136 -443 c-24 -44 -64 -88 -81 -88
-32 0 -18 34 30 72 54 43 68 47 51 16z"/>
</g>
</svg>
