<?xml version="1.0" standalone="no"?>
<!DOCTYPE svg PUBLIC "-//W3C//DTD SVG 20010904//EN"
 "http://www.w3.org/TR/2001/REC-SVG-20010904/DTD/svg10.dtd">
<svg version="1.0" xmlns="http://www.w3.org/2000/svg"
 width="207.000000pt" height="204.000000pt" viewBox="0 0 207.000000 204.000000"
 preserveAspectRatio="xMidYMid meet">
<metadata>
Created by potrace 1.16, written by Peter Selinger 2001-2019
</metadata>
<g transform="translate(0.000000,204.000000) scale(0.100000,-0.100000)"
fill="#000000" stroke="none">
<path d="M1587 1826 c-21 -8 -52 -31 -70 -51 -39 -46 -57 -63 -93 -93 -16 -13
-66 -60 -112 -105 -148 -144 -203 -253 -164 -320 10 -18 17 -40 15 -50 -3 -10
14 -39 39 -70 24 -28 49 -65 56 -80 14 -32 16 -103 3 -111 -4 -3 -11 -18 -14
-33 -4 -16 -27 -59 -52 -98 -25 -38 -45 -79 -45 -90 0 -11 13 -37 30 -56 23
-29 28 -42 22 -63 -8 -28 -116 -145 -168 -180 -29 -19 -110 -78 -194 -141 -64
-47 -138 -92 -162 -99 -35 -9 -87 -58 -90 -85 -2 -16 6 -30 25 -44 l27 -21 56
28 c53 27 223 86 248 86 7 0 27 8 47 18 71 36 119 52 319 102 122 31 177 40
271 45 95 4 112 2 167 -19 64 -25 144 -91 165 -136 10 -19 20 -25 46 -25 30 0
35 4 47 38 11 33 11 43 -3 72 -9 19 -21 35 -26 35 -5 0 -39 20 -76 45 -37 24
-85 49 -107 54 -21 6 -66 17 -98 25 -77 20 -227 13 -308 -14 -32 -11 -76 -22
-96 -25 -106 -18 -276 -67 -296 -86 -6 -5 -16 -9 -23 -9 -24 0 -2 25 64 75 88
66 193 173 228 233 17 28 33 52 37 52 3 0 16 -30 28 -66 12 -36 32 -77 45 -92
20 -23 26 -25 47 -15 34 16 40 47 43 253 1 96 7 206 14 243 11 64 20 147 41
388 12 138 71 341 110 379 3 3 11 27 18 54 10 40 10 51 0 58 -16 10 -15 10
-61 -6z m-137 -265 c0 -11 -7 -47 -15 -80 -9 -33 -18 -102 -20 -153 -4 -101
-20 -268 -35 -363 -6 -33 -13 -111 -17 -173 -4 -78 -9 -110 -17 -102 -17 17
-25 12 -34 -22 l-8 -32 -23 46 c-25 53 -21 112 9 128 23 12 35 90 33 216 -1
94 -4 105 -33 157 -17 31 -40 59 -51 62 -49 16 -6 105 112 233 27 29 56 64 65
77 19 30 34 32 34 6z m-310 -1281 c0 -5 -7 -10 -15 -10 -8 0 -15 5 -15 10 0 6
7 10 15 10 8 0 15 -4 15 -10z"/>
<path d="M485 1658 c-11 -6 -27 -14 -35 -18 -21 -10 -29 -83 -17 -165 16 -119
17 -517 1 -645 -7 -63 -16 -151 -19 -195 -4 -44 -13 -138 -21 -208 -19 -177
-20 -174 16 -182 62 -14 67 4 105 376 l6 57 57 7 c31 4 73 16 92 28 59 36 169
126 181 150 7 12 24 38 39 57 35 44 47 127 30 199 -13 55 -41 87 -82 95 -15 2
-31 7 -36 10 -4 3 -32 6 -61 7 -28 2 -54 6 -56 9 -2 4 23 36 57 71 88 94 118
145 118 206 0 67 -21 86 -98 89 -87 3 -147 -39 -123 -85 14 -25 37 -33 77 -25
23 4 34 2 34 -6 0 -21 -57 -94 -129 -164 l-71 -69 -1 57 c-1 31 -2 71 -4 89
-2 32 7 88 27 180 9 41 8 51 -7 68 -20 21 -49 24 -80 7z m322 -533 c29 -20 37
-75 19 -120 -18 -42 -89 -131 -146 -182 -49 -44 -126 -81 -141 -66 -7 7 -7 44
0 113 6 56 11 133 11 171 0 47 4 71 13 73 102 29 211 34 244 11z m-307 -295
c0 -5 -2 -10 -4 -10 -3 0 -8 5 -11 10 -3 6 -1 10 4 10 6 0 11 -4 11 -10z"/>
<path d="M1018 1378 c-30 -11 -56 -74 -38 -92 29 -29 -13 -320 -48 -333 -9 -4
-10 -9 -2 -19 8 -9 8 -18 1 -33 -6 -11 -11 -44 -11 -73 0 -29 -7 -93 -16 -143
-28 -160 -29 -183 -9 -205 20 -23 58 -26 72 -7 11 14 43 213 53 332 4 44 18
125 33 180 29 112 52 309 42 355 -5 24 -32 53 -47 49 -2 0 -15 -5 -30 -11z"/>
</g>
</svg>
