<?xml version="1.0" standalone="no"?>
<!DOCTYPE svg PUBLIC "-//W3C//DTD SVG 20010904//EN"
 "http://www.w3.org/TR/2001/REC-SVG-20010904/DTD/svg10.dtd">
<svg version="1.0" xmlns="http://www.w3.org/2000/svg"
 width="208.000000pt" height="204.000000pt" viewBox="0 0 208.000000 204.000000"
 preserveAspectRatio="xMidYMid meet">
<metadata>
Created by potrace 1.16, written by Peter Selinger 2001-2019
</metadata>
<g transform="translate(0.000000,204.000000) scale(0.100000,-0.100000)"
fill="#000000" stroke="none">
<path d="M1383 1775 c-85 -37 -361 -282 -412 -366 -28 -45 -26 -97 3 -132 32
-39 58 -33 68 16 9 46 27 74 92 152 77 92 177 185 198 185 8 0 9 -56 4 -177
-8 -188 -8 -189 -25 -298 -7 -38 -16 -118 -21 -178 -5 -59 -13 -122 -18 -140
-5 -17 -15 -59 -22 -92 -7 -33 -14 -66 -16 -73 -6 -21 -24 -3 -43 42 -10 22
-28 62 -39 87 -54 117 -62 148 -61 230 1 63 -3 84 -17 100 -20 22 -80 25 -106
5 -21 -16 -23 -49 -5 -68 20 -20 20 -259 0 -323 -26 -84 -112 -220 -128 -203
-5 4 30 292 40 336 3 12 8 73 11 135 3 62 9 131 15 154 5 23 6 69 2 103 -5 51
-10 64 -28 72 -28 12 -73 -13 -80 -46 -3 -11 -7 -97 -9 -191 -4 -155 -17 -330
-32 -445 -3 -25 -7 -56 -9 -70 -1 -14 -8 -58 -16 -99 -16 -84 -23 -92 -112
-110 -38 -8 -61 -19 -67 -32 -26 -47 48 -108 94 -79 11 7 34 14 51 16 89 7
334 66 410 99 70 30 154 55 167 50 8 -3 31 7 51 23 40 32 133 58 237 67 36 2
91 7 122 11 55 6 58 5 94 -30 35 -34 37 -35 66 -20 24 13 29 20 27 52 -1 20 1
44 5 52 12 30 -29 58 -79 54 -197 -18 -405 -47 -442 -61 -14 -6 -16 2 -10 73
3 43 15 132 27 197 11 66 20 135 20 154 0 20 9 97 19 172 11 75 22 197 26 271
3 74 10 169 16 210 7 52 7 83 0 103 -12 30 -22 32 -68 12z m-254 -1070 c18
-44 41 -98 52 -121 10 -23 19 -44 19 -47 0 -3 -33 -21 -72 -40 -74 -35 -168
-65 -245 -77 l-42 -7 30 41 c61 85 109 155 109 160 0 3 19 33 43 68 24 35 47
76 51 92 9 36 14 30 55 -69z"/>
<path d="M475 1610 c-14 -16 -18 -41 -21 -127 -8 -239 -50 -581 -94 -768 -42
-178 -50 -214 -67 -320 -28 -177 -21 -235 32 -235 37 0 59 33 51 80 -3 22 -2
59 4 83 5 23 19 94 30 157 31 167 71 330 82 330 10 0 78 49 89 63 13 17 55 70
85 105 36 42 85 168 87 224 2 49 -22 73 -70 73 -20 0 -38 5 -40 12 -2 6 11 29
30 50 42 47 71 128 62 177 -5 26 -15 38 -40 50 -18 9 -39 16 -47 16 -7 0 -34
11 -60 25 -57 30 -89 32 -113 5z m165 -149 c0 -21 -45 -80 -54 -71 -2 3 -2 24
1 48 5 36 9 42 29 42 17 0 24 -6 24 -19z m0 -320 c-11 -40 -27 -68 -74 -131
-23 -30 -44 -62 -48 -70 -4 -8 -5 14 -2 50 11 140 12 144 47 162 34 18 68 27
79 21 3 -2 3 -16 -2 -32z"/>
</g>
</svg>
