<?xml version="1.0" standalone="no"?>
<!DOCTYPE svg PUBLIC "-//W3C//DTD SVG 20010904//EN"
 "http://www.w3.org/TR/2001/REC-SVG-20010904/DTD/svg10.dtd">
<svg version="1.0" xmlns="http://www.w3.org/2000/svg"
 width="207.000000pt" height="209.000000pt" viewBox="0 0 207.000000 209.000000"
 preserveAspectRatio="xMidYMid meet">
<metadata>
Created by potrace 1.16, written by Peter Selinger 2001-2019
</metadata>
<g transform="translate(0.000000,209.000000) scale(0.100000,-0.100000)"
fill="#000000" stroke="none">
<path d="M1491 1903 c-31 -32 -71 -75 -88 -95 -18 -21 -61 -57 -97 -82 -122
-84 -206 -156 -206 -177 0 -12 -8 -23 -19 -26 -30 -8 -51 -64 -67 -176 -18
-130 -21 -140 -42 -131 -40 17 -94 16 -142 -5 -27 -12 -51 -21 -54 -21 -13 0
-4 20 29 68 154 225 165 418 25 452 -117 28 -218 -43 -153 -108 18 -18 16 -39
-6 -76 -19 -31 -29 -101 -36 -251 -4 -98 -13 -163 -26 -186 -6 -12 -5 -20 2
-25 8 -5 10 -53 7 -165 -6 -168 -17 -209 -57 -209 -24 0 -42 -22 -32 -39 5 -7
24 -16 42 -20 l34 -7 1 -94 c6 -356 7 -371 25 -381 10 -5 26 -9 37 -9 43 0 46
18 43 280 -1 196 1 256 12 283 17 40 78 128 122 177 18 19 49 60 69 90 l37 55
-6 -40 c-4 -22 -14 -77 -22 -122 -23 -124 -9 -143 52 -65 35 45 37 46 32 17
-3 -16 -9 -68 -12 -115 -4 -47 -13 -110 -20 -140 -21 -89 -72 -225 -100 -266
-30 -44 -32 -77 -5 -104 24 -24 31 -24 92 -5 70 21 138 78 258 213 30 34 63
62 72 62 9 0 40 -23 70 -51 29 -28 88 -77 130 -110 42 -32 80 -64 83 -69 7
-11 111 -80 121 -80 3 0 19 -14 36 -30 17 -17 45 -42 63 -56 l33 -25 58 22
c93 35 134 96 85 126 -16 10 -24 9 -44 -7 -33 -26 -49 -25 -85 5 -17 14 -33
25 -36 25 -11 0 -178 119 -236 167 -30 25 -71 67 -92 93 -21 26 -53 59 -73 74
-42 32 -43 44 -10 80 14 15 25 29 25 30 0 2 14 19 31 37 17 19 47 56 65 84 19
27 50 73 70 100 19 28 37 60 40 73 7 26 -11 52 -37 52 -17 0 -139 -110 -139
-125 0 -7 -60 -86 -105 -140 -14 -16 -34 -41 -44 -54 l-18 -25 -31 25 c-17 13
-31 29 -31 35 -1 18 -60 64 -82 64 -20 0 -21 4 -17 63 9 101 27 147 77 192
122 109 153 144 149 167 -4 29 -43 37 -66 13 -25 -24 -140 -105 -150 -105 -5
0 -17 -9 -27 -20 -29 -32 -38 -24 -30 27 13 88 43 189 50 171 11 -27 32 -22
109 26 39 23 90 54 114 66 41 23 42 23 57 4 17 -22 19 -112 11 -374 -1 -46 29
-52 61 -11 30 38 43 156 43 386 0 209 21 372 57 432 18 32 23 53 21 90 -3 42
-6 48 -26 51 -18 3 -38 -11 -81 -55z m-51 -211 c0 -5 -5 -35 -12 -68 -11 -56
-14 -82 -17 -132 -1 -20 -5 -22 -39 -16 -28 4 -41 2 -51 -10 -7 -9 -19 -16
-26 -16 -7 0 -18 -7 -25 -15 -7 -8 -20 -15 -30 -15 -9 0 -38 -11 -64 -25 -56
-30 -59 -30 -53 -7 3 9 8 33 11 53 5 27 13 39 29 43 12 3 49 31 82 62 33 31
80 69 104 85 24 15 50 37 58 49 14 20 33 27 33 12z m-604 -94 c10 -16 7 -74
-5 -97 -11 -20 -13 -19 -51 18 -45 44 -48 53 -21 80 19 19 65 19 77 -1z m-46
-193 c0 -2 -9 -19 -20 -37 l-20 -33 0 31 c0 17 3 34 7 37 7 8 33 9 33 2z m80
-280 c0 -10 -63 -120 -94 -162 -36 -52 -56 -56 -56 -10 0 77 11 104 50 126 20
11 43 28 50 36 12 14 50 22 50 10z m320 -580 c11 -20 10 -28 -4 -50 -10 -14
-24 -29 -32 -32 -8 -3 -28 -24 -43 -47 -28 -40 -91 -87 -91 -68 0 5 7 29 16
53 8 24 24 80 35 124 11 44 22 86 25 93 5 16 75 -38 94 -73z"/>
</g>
</svg>
