<?xml version="1.0" standalone="no"?>
<!DOCTYPE svg PUBLIC "-//W3C//DTD SVG 20010904//EN"
 "http://www.w3.org/TR/2001/REC-SVG-20010904/DTD/svg10.dtd">
<svg version="1.0" xmlns="http://www.w3.org/2000/svg"
 width="208.000000pt" height="210.000000pt" viewBox="0 0 208.000000 210.000000"
 preserveAspectRatio="xMidYMid meet">
<metadata>
Created by potrace 1.16, written by Peter Selinger 2001-2019
</metadata>
<g transform="translate(0.000000,210.000000) scale(0.100000,-0.100000)"
fill="#000000" stroke="none">
<path d="M1387 1890 c-29 -31 -81 -151 -113 -260 -4 -14 -17 -41 -29 -60 -12
-19 -42 -73 -67 -120 -35 -68 -128 -221 -144 -239 -2 -2 -24 7 -49 19 -58 28
-105 34 -178 22 -32 -5 -60 -5 -63 -1 -6 11 7 36 72 134 52 79 84 168 84 233
0 46 -72 112 -122 112 -48 0 -84 -31 -68 -60 5 -10 15 -22 20 -25 6 -3 10 -17
10 -31 0 -32 35 -33 44 -1 10 36 25 0 20 -47 -6 -47 -10 -55 -83 -165 -63 -96
-69 -94 -70 26 -1 65 -4 76 -28 102 -38 40 -67 47 -93 21 -19 -19 -20 -28 -16
-268 5 -245 -4 -362 -34 -482 -6 -25 -14 -57 -17 -73 -4 -18 -13 -29 -29 -33
-28 -7 -31 -31 -8 -49 15 -11 16 -19 5 -81 -18 -101 -28 -128 -59 -156 -40
-37 -72 -51 -114 -50 -32 2 -38 -1 -38 -19 0 -28 59 -53 95 -39 32 12 45 6 45
-22 0 -24 -39 -218 -46 -230 -9 -14 17 -38 40 -38 24 0 66 38 66 60 0 8 7 43
16 79 61 259 78 302 126 327 16 8 28 21 28 29 0 8 15 21 33 28 19 8 67 54 114
108 46 52 102 115 125 142 23 26 58 70 76 98 19 28 44 54 56 59 11 4 32 20 45
34 14 15 45 38 70 52 25 15 64 44 86 65 88 84 134 120 186 143 30 13 63 32 74
43 11 10 37 26 58 36 45 20 46 45 4 65 -24 12 -33 11 -80 -11 -28 -14 -74 -35
-102 -47 -27 -13 -66 -36 -85 -51 -19 -16 -42 -29 -52 -29 -15 0 -16 3 -6 28
7 15 25 47 40 72 15 25 36 63 47 85 11 22 37 72 58 110 21 39 45 89 52 113 8
24 18 39 23 34 5 -5 4 -21 -2 -36 -10 -26 -6 -159 6 -213 13 -62 56 17 90 166
23 97 23 105 8 123 -10 10 -30 18 -46 18 -15 0 -28 2 -28 3 0 2 9 30 20 62 30
86 27 102 -15 107 -28 3 -40 -1 -58 -22z m-454 -742 c27 -14 21 -41 -25 -108
-24 -34 -49 -72 -55 -84 -31 -57 -263 -250 -280 -233 -3 4 1 39 10 79 17 74
35 216 40 298 l2 45 92 5 c50 3 95 9 99 13 9 9 91 -1 117 -15z m-355 -528
c-19 -26 -38 -39 -38 -26 0 24 23 56 40 56 20 0 20 0 -2 -30z"/>
<path d="M1200 824 c-52 -14 -115 -30 -139 -35 -56 -11 -97 -36 -128 -76 l-24
-31 22 -21 c28 -26 59 -27 90 -3 13 10 47 24 74 32 28 7 59 18 70 25 27 17
164 50 172 41 10 -9 -12 -45 -69 -111 -63 -75 -165 -182 -183 -192 -7 -5 -54
-46 -105 -93 -50 -47 -99 -89 -109 -95 -86 -50 -111 -95 -71 -135 28 -28 54
-25 108 12 60 42 141 80 217 102 33 10 74 25 92 32 140 62 365 34 492 -60 38
-28 70 -33 89 -14 16 16 16 105 0 115 -24 15 -203 74 -253 83 -109 20 -226 15
-327 -15 -26 -8 -49 -11 -52 -7 -2 4 42 55 97 114 126 132 182 227 174 296 -3
24 -11 48 -18 53 -26 16 -123 8 -219 -17z"/>
</g>
</svg>
