<?xml version="1.0" standalone="no"?>
<!DOCTYPE svg PUBLIC "-//W3C//DTD SVG 20010904//EN"
 "http://www.w3.org/TR/2001/REC-SVG-20010904/DTD/svg10.dtd">
<svg version="1.0" xmlns="http://www.w3.org/2000/svg"
 width="210.000000pt" height="210.000000pt" viewBox="0 0 210.000000 210.000000"
 preserveAspectRatio="xMidYMid meet">
<metadata>
Created by potrace 1.16, written by Peter Selinger 2001-2019
</metadata>
<g transform="translate(0.000000,210.000000) scale(0.100000,-0.100000)"
fill="#000000" stroke="none">
<path d="M1185 2065 c-14 -13 -25 -33 -25 -44 0 -11 -4 -22 -9 -25 -4 -3 -23
-43 -41 -88 -42 -105 -108 -198 -229 -318 -59 -58 -107 -116 -124 -149 -26
-50 -26 -55 -12 -77 9 -13 20 -24 25 -24 24 0 60 22 72 44 28 54 199 235 279
297 47 36 188 74 226 62 24 -9 28 -15 27 -45 -1 -35 -17 -60 -111 -181 l-37
-48 -113 3 c-129 3 -148 -4 -121 -50 10 -16 35 -34 60 -43 24 -9 44 -23 46
-31 3 -15 -86 -99 -233 -218 -55 -44 -118 -95 -139 -113 -70 -56 -209 -157
-217 -157 -5 0 -33 -20 -62 -44 -30 -24 -68 -51 -85 -60 -18 -9 -48 -27 -68
-41 -21 -14 -39 -23 -41 -21 -2 2 1 33 7 68 10 57 15 66 44 82 70 37 152 146
198 261 28 68 41 188 26 237 -11 36 -10 40 19 71 48 52 73 101 73 145 0 22 -5
44 -11 48 -6 3 -9 15 -6 25 3 11 1 19 -3 19 -5 0 -26 16 -47 36 -35 33 -41 35
-73 28 -28 -7 -36 -15 -38 -35 -2 -15 4 -34 14 -43 24 -24 14 -28 -43 -16 -56
12 -98 2 -106 -27 -16 -55 -37 -154 -42 -198 -18 -147 -47 -333 -55 -355 -6
-14 -14 -54 -20 -90 -5 -36 -16 -99 -25 -140 -9 -41 -20 -99 -26 -128 -11 -54
-11 -54 -75 -84 -57 -27 -64 -33 -64 -59 0 -16 1 -29 3 -29 1 0 23 7 50 15 58
17 56 31 17 -180 -34 -190 -50 -312 -43 -332 3 -8 16 -13 30 -11 37 4 77 112
99 268 5 35 17 96 50 243 l18 79 70 35 c39 19 85 45 101 57 17 12 57 37 90 56
33 18 69 41 80 50 11 9 40 28 65 42 25 14 92 63 148 108 57 45 105 80 107 78
9 -9 -83 -126 -106 -137 -96 -43 -269 -226 -269 -285 0 -77 109 -19 266 140
101 102 134 129 195 158 41 20 80 36 86 36 27 0 11 -29 -34 -66 -27 -21 -76
-64 -110 -94 -34 -30 -79 -68 -99 -84 -75 -61 -81 -108 -16 -125 32 -9 41 -8
77 16 22 15 45 32 50 38 16 19 146 85 167 85 39 0 14 -67 -50 -130 -110 -110
-264 -230 -450 -352 -15 -10 -43 -21 -62 -24 -19 -3 -44 -12 -55 -19 -11 -6
-36 -17 -56 -24 -20 -6 -49 -24 -65 -40 -16 -15 -39 -33 -51 -40 -16 -8 -23
-21 -23 -41 0 -30 0 -30 59 -30 57 0 101 16 151 55 8 7 42 23 75 36 33 13 83
36 110 52 92 51 200 99 260 117 33 9 90 29 126 44 46 18 75 24 97 20 26 -5 35
-1 62 30 18 20 42 36 54 37 30 0 147 32 174 48 21 11 49 14 107 11 26 -2 69 5
82 13 6 4 25 2 42 -3 45 -12 73 16 69 68 l-3 37 -90 3 c-74 2 -102 -1 -160
-21 -76 -27 -148 -44 -209 -52 l-38 -4 7 47 c23 153 31 248 28 337 -4 116 -20
234 -33 250 -5 6 -25 9 -45 7 -41 -5 -59 -30 -53 -73 3 -16 0 -29 -6 -30 -6
-1 -25 -2 -43 -4 -18 -1 -43 -5 -57 -9 -38 -9 -38 6 0 70 20 32 42 74 49 91 8
18 50 69 94 113 80 81 140 117 221 135 19 4 39 13 45 20 5 7 27 18 48 25 47
15 68 48 41 67 -23 17 -32 16 -84 -2 -67 -24 -75 -21 -51 18 78 121 87 185 33
236 -23 23 -41 29 -98 34 -38 4 -87 2 -109 -3 -22 -5 -44 -10 -48 -10 -11 0 2
41 20 61 8 9 25 47 38 84 19 56 21 72 12 94 -21 47 -38 51 -72 16z m-649 -499
c9 -23 -25 -77 -82 -132 -59 -56 -70 -95 -34 -114 41 -22 24 -114 -51 -267
-45 -92 -69 -120 -69 -82 0 13 5 40 10 59 6 19 21 106 34 194 18 117 29 166
44 186 11 15 24 44 28 64 4 22 16 43 29 52 13 8 25 24 28 34 6 24 55 28 63 6z
m638 -728 c15 -59 -4 -89 -34 -53 -7 8 -21 15 -31 15 -26 0 -24 15 7 39 34 27
50 26 58 -1z m-25 -314 c-8 -34 -22 -67 -34 -77 -42 -37 -185 -94 -185 -74 0
12 217 222 223 216 5 -4 3 -33 -4 -65z"/>
</g>
</svg>
