<?xml version="1.0" standalone="no"?>
<!DOCTYPE svg PUBLIC "-//W3C//DTD SVG 20010904//EN"
 "http://www.w3.org/TR/2001/REC-SVG-20010904/DTD/svg10.dtd">
<svg version="1.0" xmlns="http://www.w3.org/2000/svg"
 width="206.000000pt" height="213.000000pt" viewBox="0 0 206.000000 213.000000"
 preserveAspectRatio="xMidYMid meet">
<metadata>
Created by potrace 1.16, written by Peter Selinger 2001-2019
</metadata>
<g transform="translate(0.000000,213.000000) scale(0.100000,-0.100000)"
fill="#000000" stroke="none">
<path d="M1080 1967 c-83 -28 -242 -131 -321 -209 -42 -42 -49 -45 -49 -24 0
33 -69 41 -165 19 -53 -12 -88 -25 -185 -66 -37 -16 -120 -69 -120 -77 0 -4
-9 -18 -21 -31 -15 -18 -19 -31 -14 -54 4 -16 15 -75 26 -130 11 -55 24 -122
29 -149 7 -39 16 -403 11 -452 -1 -15 -62 -44 -93 -44 -12 0 -30 -5 -38 -10
-13 -8 -13 -11 3 -27 13 -13 31 -17 73 -15 l57 2 -6 -47 c-4 -27 -9 -84 -12
-128 -5 -74 -19 -222 -31 -321 -5 -51 3 -74 26 -74 20 0 50 30 50 51 0 8 4 19
9 25 13 13 37 173 51 334 17 210 16 204 76 273 72 82 114 182 114 270 0 76
-17 115 -68 157 -28 23 -34 34 -27 44 6 8 31 45 56 83 26 37 69 93 97 123 28
30 61 76 74 103 22 46 38 60 38 33 0 -22 28 -39 53 -32 13 3 38 29 61 64 21
32 51 67 67 76 16 10 51 37 77 61 65 61 109 89 165 104 60 17 75 40 43 70 -27
25 -24 25 -106 -2z m-466 -319 c-13 -41 -92 -148 -212 -288 -17 -19 -33 -32
-37 -28 -4 4 -9 53 -11 111 l-3 103 72 47 c39 26 78 47 87 47 8 1 26 7 40 15
14 8 35 14 48 15 20 0 22 -4 16 -22z m-172 -517 c16 -28 17 -39 8 -70 -17 -55
-52 -131 -62 -131 -4 0 -8 54 -8 121 0 118 0 120 22 117 12 -2 30 -18 40 -37z"/>
<path d="M1140 1683 c-8 -3 -52 -23 -97 -44 -90 -44 -136 -88 -152 -146 -9
-33 -8 -40 11 -60 12 -13 25 -23 28 -23 13 0 70 60 70 74 0 8 12 22 28 32 34
23 102 55 102 48 0 -9 -40 -65 -85 -119 -23 -27 -45 -59 -49 -71 -7 -24 -142
-160 -204 -205 -32 -24 -46 -29 -55 -20 -20 20 -54 12 -99 -25 -54 -45 -64
-68 -39 -93 10 -10 24 -20 32 -23 16 -5 16 -95 1 -348 -15 -236 -28 -337 -48
-367 -8 -13 -14 -34 -12 -46 2 -18 9 -22 42 -22 34 0 43 5 59 32 26 44 61 300
73 533 3 69 10 135 15 148 5 13 10 43 11 68 1 31 7 48 18 54 25 13 33 0 13
-22 -38 -42 29 -110 78 -79 25 15 24 16 37 -32 10 -34 7 -44 -26 -105 -20 -37
-51 -87 -69 -111 -45 -58 -42 -89 12 -116 22 -11 43 -24 48 -30 8 -11 1 -480
-9 -532 l-6 -33 44 0 45 0 6 83 c4 45 9 161 13 257 3 96 8 182 11 190 3 8 7
37 9 64 2 28 8 54 13 59 13 13 31 0 31 -22 0 -10 7 -24 15 -31 15 -12 26 -31
74 -125 27 -52 47 -83 91 -137 29 -37 136 -118 156 -118 7 0 22 12 31 27 16
25 18 63 19 448 1 444 12 595 55 764 24 93 26 199 4 207 -29 11 -70 -21 -183
-141 -63 -66 -124 -126 -138 -133 -13 -7 -28 -21 -34 -32 -6 -11 -15 -20 -21
-20 -6 0 10 26 34 58 24 31 51 73 60 92 26 54 48 149 41 176 -5 21 -12 24 -48
23 -22 0 -48 -3 -56 -6z m230 -250 c0 -10 -7 -52 -15 -94 -32 -169 -50 -733
-30 -936 3 -28 1 -54 -4 -57 -10 -6 -75 62 -141 148 -25 32 -61 78 -81 101
-19 23 -41 57 -48 76 -7 19 -21 53 -32 77 -25 55 -25 55 12 130 26 51 32 75
31 123 -1 61 -13 89 -38 89 -8 0 -14 6 -14 13 0 13 59 73 97 98 31 21 172 158
213 207 38 46 50 51 50 25z m-288 -125 c-7 -7 -12 -8 -12 -2 0 14 12 26 19 19
2 -3 -1 -11 -7 -17z"/>
</g>
</svg>
