<?xml version="1.0" standalone="no"?>
<!DOCTYPE svg PUBLIC "-//W3C//DTD SVG 20010904//EN"
 "http://www.w3.org/TR/2001/REC-SVG-20010904/DTD/svg10.dtd">
<svg version="1.0" xmlns="http://www.w3.org/2000/svg"
 width="206.000000pt" height="212.000000pt" viewBox="0 0 206.000000 212.000000"
 preserveAspectRatio="xMidYMid meet">
<metadata>
Created by potrace 1.16, written by Peter Selinger 2001-2019
</metadata>
<g transform="translate(0.000000,212.000000) scale(0.100000,-0.100000)"
fill="#000000" stroke="none">
<path d="M368 1842 c-27 -30 -36 -56 -31 -84 4 -18 -2 -36 -16 -55 -24 -29
-22 -69 4 -88 21 -17 27 -312 9 -449 -8 -61 -14 -130 -14 -155 0 -45 -17 -81
-50 -112 -49 -45 -65 -54 -93 -54 -38 0 -45 -17 -16 -46 22 -22 39 -22 122 -3
24 6 27 3 27 -17 0 -13 -10 -58 -21 -99 -20 -76 -27 -110 -54 -297 -17 -118
-21 -241 -10 -295 6 -31 12 -38 30 -38 47 0 55 9 55 61 0 27 11 138 25 246 28
224 71 417 90 409 6 -2 31 4 55 15 23 10 44 19 47 19 2 0 2 -26 -1 -57 -12
-123 -7 -398 9 -486 8 -48 17 -100 18 -115 6 -50 25 -72 61 -72 25 0 35 5 39
20 3 11 -4 87 -14 168 -27 195 -22 508 7 529 25 18 34 16 34 -6 0 -28 11 -51
24 -51 14 0 43 54 51 95 8 39 24 73 53 112 34 46 89 103 100 103 5 0 15 14 22
30 7 17 18 30 25 30 14 0 106 67 117 86 4 6 21 17 38 24 16 7 30 16 30 20 0 5
19 19 43 33 23 14 55 39 71 56 17 17 36 31 43 31 13 0 14 -31 17 -740 1 -101
-3 -167 -9 -170 -5 -2 -19 10 -30 28 -11 18 -35 55 -52 82 -18 27 -33 53 -33
57 0 5 -23 44 -50 88 -68 109 -90 159 -90 208 0 23 -4 47 -8 54 -9 15 -96 35
-117 27 -24 -9 -30 -54 -13 -85 15 -26 14 -29 -23 -83 -40 -58 -58 -80 -98
-121 -18 -19 -22 -31 -16 -52 9 -36 20 -43 73 -43 l42 0 0 -55 c0 -30 -12
-108 -26 -172 -33 -149 -54 -276 -54 -330 l0 -43 45 0 45 0 0 42 c0 23 4 55
10 72 22 72 72 366 77 455 3 75 1 103 -11 126 -21 40 -20 68 2 88 18 16 20 15
43 -10 28 -31 99 -144 99 -156 0 -5 13 -27 29 -50 15 -23 43 -71 61 -107 35
-70 120 -160 151 -160 10 0 27 12 36 27 17 25 18 66 18 553 0 307 4 531 9 539
14 21 17 113 4 128 -19 23 -38 14 -108 -52 -38 -36 -74 -65 -79 -65 -6 0 -23
-11 -38 -26 -40 -36 -176 -134 -181 -129 -2 2 6 25 17 51 27 60 43 167 31 200
-19 50 -85 47 -195 -7 -97 -48 -132 -121 -81 -168 20 -19 28 -21 45 -12 11 6
26 19 33 29 22 30 97 86 105 78 8 -7 4 -15 -58 -116 -36 -59 -138 -180 -151
-180 -5 0 -8 31 -8 70 0 67 -1 70 -31 85 -17 9 -41 15 -54 13 -13 -2 -25 -1
-25 2 -1 3 17 43 39 89 32 67 41 96 41 138 0 42 4 55 18 60 9 3 33 21 52 39
51 48 178 113 218 112 50 -2 66 32 34 71 -28 35 -83 30 -186 -18 -48 -22 -110
-57 -137 -76 -34 -24 -60 -35 -84 -35 -22 0 -51 -10 -75 -26 -22 -15 -42 -25
-44 -23 -2 2 1 28 7 56 10 48 9 56 -9 80 -21 28 -67 55 -115 66 -18 5 -31 1
-41 -11z m230 -373 c-13 -23 -29 -52 -36 -65 l-13 -23 -37 25 c-20 14 -38 27
-41 29 -8 9 22 35 39 35 10 0 38 15 62 33 51 39 60 28 26 -34z m62 -273 c0 -8
-12 -42 -26 -76 -22 -48 -30 -59 -45 -55 -11 4 -26 -2 -39 -15 -19 -19 -21
-29 -15 -66 6 -43 5 -46 -46 -99 -28 -30 -56 -55 -60 -55 -20 0 1 190 22 215
5 5 9 16 9 25 0 30 56 94 101 117 51 26 99 30 99 9z"/>
</g>
</svg>
