<?xml version="1.0" standalone="no"?>
<!DOCTYPE svg PUBLIC "-//W3C//DTD SVG 20010904//EN"
 "http://www.w3.org/TR/2001/REC-SVG-20010904/DTD/svg10.dtd">
<svg version="1.0" xmlns="http://www.w3.org/2000/svg"
 width="208.000000pt" height="210.000000pt" viewBox="0 0 208.000000 210.000000"
 preserveAspectRatio="xMidYMid meet">
<metadata>
Created by potrace 1.16, written by Peter Selinger 2001-2019
</metadata>
<g transform="translate(0.000000,210.000000) scale(0.100000,-0.100000)"
fill="#000000" stroke="none">
<path d="M1200 2078 c-58 -26 -151 -72 -252 -125 -45 -24 -88 -43 -95 -43 -8
0 -24 -11 -36 -24 -12 -13 -36 -31 -54 -40 -94 -48 -53 -143 57 -132 25 3 46
5 47 5 1 1 4 15 8 31 5 24 24 42 90 85 46 30 86 55 89 55 3 0 30 16 60 35 30
19 58 35 61 35 3 0 29 15 58 33 59 37 119 67 137 67 6 0 10 8 8 18 -5 27 -119
28 -178 0z"/>
<path d="M1484 1875 c-4 -8 -12 -15 -19 -15 -7 0 -18 -7 -25 -15 -7 -8 -18
-15 -25 -15 -7 0 -66 -30 -131 -67 -66 -36 -136 -75 -156 -85 -20 -11 -42 -26
-49 -34 -21 -26 -39 -16 -39 21 0 28 4 35 20 35 11 0 20 -4 20 -10 0 -16 20
-12 26 5 4 9 -5 33 -20 55 -19 29 -35 41 -60 45 -77 15 -106 -26 -106 -150 0
-97 1 -96 -125 -140 -123 -42 -266 -120 -331 -180 l-57 -54 7 -58 c14 -105 16
-127 19 -213 2 -67 6 -86 19 -88 8 -2 22 8 31 22 19 29 26 68 36 198 6 88 9
99 34 122 15 14 47 34 72 45 25 11 45 24 45 30 0 5 19 18 43 29 121 55 189 82
198 77 5 -4 9 -33 9 -66 0 -55 -2 -60 -26 -69 -59 -23 -171 -81 -199 -104 -25
-20 -28 -28 -19 -43 6 -10 26 -20 45 -23 29 -4 34 -9 40 -40 7 -48 23 -75 60
-101 l31 -22 -22 -17 c-17 -13 -25 -33 -32 -81 -5 -38 -5 -66 1 -72 11 -11 88
48 96 74 4 11 17 22 30 25 13 3 26 11 28 18 3 7 25 23 49 36 23 12 69 39 101
61 33 21 78 44 100 50 23 6 48 16 55 21 17 15 6 -15 -26 -66 -38 -61 -81 -96
-119 -96 -35 0 -53 -17 -32 -31 51 -33 126 -10 193 59 42 43 46 45 46 23 0
-12 -12 -46 -26 -75 -14 -28 -35 -85 -46 -126 -11 -41 -30 -106 -43 -145 -13
-38 -35 -108 -50 -155 -40 -129 -55 -156 -88 -152 -15 1 -27 -2 -27 -7 0 -8
-130 -44 -136 -38 -4 4 31 121 39 135 5 7 17 10 29 6 18 -6 19 -4 5 18 -13 20
-14 32 -2 88 18 88 35 130 68 169 33 40 36 66 6 58 -31 -8 -35 19 -10 70 31
64 22 83 -38 83 -44 0 -50 -3 -59 -27 -19 -50 -30 -97 -37 -151 -6 -44 -13
-57 -43 -82 -20 -17 -41 -30 -47 -30 -17 0 -75 -64 -75 -82 0 -23 22 -38 71
-46 l44 -8 -2 -61 c-2 -90 -52 -193 -92 -193 -20 0 -81 -76 -81 -100 0 -15 29
-48 56 -63 7 -4 28 6 48 22 21 17 51 33 69 37 17 3 43 15 57 25 50 36 310 93
411 90 62 -2 69 5 69 76 0 39 -17 46 -103 41 -37 -2 -62 1 -62 7 0 12 76 249
110 345 13 36 29 81 36 100 7 19 27 71 44 115 18 44 36 91 40 105 3 14 17 50
30 81 17 37 23 68 20 95 -2 21 -4 42 -4 47 -1 4 -12 12 -26 17 -30 11 -32 37
-10 101 24 68 62 225 75 314 6 44 16 106 21 139 4 32 6 63 3 67 -9 15 -74 10
-80 -6z m-41 -172 c-7 -46 -34 -176 -43 -208 -4 -16 -20 -79 -35 -140 -15 -60
-34 -117 -44 -126 -9 -8 -72 -42 -141 -74 -69 -31 -138 -66 -153 -77 -16 -11
-31 -17 -35 -14 -3 4 2 35 11 70 9 36 17 84 17 109 0 39 5 48 41 80 34 31 38
39 29 57 -6 12 -21 20 -36 20 -31 0 -40 22 -25 68 11 37 39 61 122 107 20 11
54 30 75 43 212 126 224 130 217 85z m-523 -514 c0 -37 -37 -126 -55 -133 -24
-9 -65 33 -65 65 0 23 7 34 31 47 17 9 41 25 53 34 30 24 36 22 36 -13z"/>
<path d="M609 769 c-11 -11 -35 -23 -53 -26 -24 -4 -35 -12 -43 -34 -7 -17 -8
-31 -2 -35 19 -11 57 -101 69 -162 15 -75 29 -90 64 -67 31 21 33 57 11 183
-11 62 -11 89 -3 107 11 25 5 55 -12 55 -5 0 -19 -9 -31 -21z"/>
</g>
</svg>
