<?xml version="1.0" standalone="no"?>
<!DOCTYPE svg PUBLIC "-//W3C//DTD SVG 20010904//EN"
 "http://www.w3.org/TR/2001/REC-SVG-20010904/DTD/svg10.dtd">
<svg version="1.0" xmlns="http://www.w3.org/2000/svg"
 width="210.000000pt" height="209.000000pt" viewBox="0 0 210.000000 209.000000"
 preserveAspectRatio="xMidYMid meet">
<metadata>
Created by potrace 1.16, written by Peter Selinger 2001-2019
</metadata>
<g transform="translate(0.000000,209.000000) scale(0.100000,-0.100000)"
fill="#000000" stroke="none">
<path d="M1175 1982 c-6 -5 -37 -17 -70 -27 -33 -9 -89 -35 -125 -56 -82 -48
-320 -158 -357 -165 -15 -3 -35 -11 -43 -18 -8 -7 -23 -16 -33 -19 -29 -11
-41 -57 -23 -94 25 -53 78 -56 135 -7 16 13 45 31 65 39 l36 15 0 -33 c0 -31
-4 -35 -62 -62 -35 -16 -105 -46 -157 -67 -51 -21 -104 -47 -117 -57 -13 -10
-44 -22 -68 -25 -57 -9 -80 -34 -71 -77 18 -79 0 -217 -42 -337 -19 -54 -23
-76 -15 -84 15 -15 42 9 68 60 10 20 29 53 41 72 21 35 41 101 63 215 15 76
31 95 75 88 18 -3 35 -1 39 5 13 22 222 109 234 97 4 -3 7 -48 8 -98 1 -112
-3 -116 -101 -117 -42 0 -76 -5 -83 -12 -19 -19 -14 -56 8 -70 28 -18 25 -33
-18 -86 -21 -26 -58 -81 -82 -122 -24 -41 -59 -97 -78 -125 -23 -32 -35 -62
-36 -84 -1 -31 3 -36 32 -44 27 -8 38 -7 61 11 15 11 37 22 47 24 16 3 19 -4
22 -52 3 -51 -1 -73 -33 -175 -7 -22 -18 -60 -25 -85 -7 -25 -20 -70 -29 -100
-10 -30 -23 -73 -30 -95 -7 -22 -24 -68 -38 -103 -24 -56 -25 -65 -11 -78 24
-25 65 -8 80 32 6 19 15 34 18 34 14 0 63 121 74 182 2 14 10 36 17 49 6 12
18 45 25 73 7 28 20 78 29 111 8 33 20 98 25 144 10 97 0 135 -45 168 l-28 20
46 69 c53 79 118 149 159 170 28 14 59 62 64 99 12 86 25 193 31 260 7 71 11
81 33 92 101 50 241 113 263 118 l27 7 -5 -73 c-8 -104 -14 -149 -24 -185 -14
-48 -60 -127 -89 -150 -33 -27 -22 -48 21 -40 18 4 44 22 66 48 20 23 46 51
58 62 12 10 27 33 32 50 21 63 41 224 41 325 l0 104 -40 -6 c-22 -3 -86 -26
-142 -52 -146 -67 -169 -73 -196 -49 -12 10 -22 21 -22 24 0 9 186 120 199
120 6 0 29 11 51 25 22 14 44 25 49 25 6 0 22 5 36 12 30 14 36 62 8 72 -10 3
-23 8 -28 11 -6 3 -15 1 -20 -3z"/>
<path d="M892 1068 c-21 -11 -23 -17 -21 -92 1 -46 8 -91 16 -103 7 -12 13
-35 13 -51 0 -46 -46 -127 -89 -155 -46 -31 -57 -67 -29 -97 10 -11 28 -20 38
-20 29 0 24 -19 -15 -56 -41 -39 -55 -84 -31 -103 25 -21 121 -9 149 17 13 12
26 22 30 22 11 0 8 -121 -4 -163 -5 -20 -21 -44 -34 -53 -14 -9 -25 -22 -25
-30 0 -7 -9 -18 -20 -24 -11 -6 -20 -20 -20 -31 0 -25 26 -65 47 -73 15 -6 79
26 138 70 17 12 41 25 55 29 14 4 34 15 45 25 11 10 56 28 100 40 160 45 348
23 440 -50 20 -16 46 -32 58 -36 12 -4 35 -16 50 -27 23 -16 33 -17 52 -9 46
21 45 90 -3 116 -15 8 -38 20 -52 25 -14 6 -36 17 -50 26 -151 89 -311 108
-510 59 -58 -15 -113 -31 -124 -36 -30 -16 -36 3 -25 77 6 39 12 127 14 198 2
79 7 133 15 141 6 8 10 30 8 48 -2 27 -7 33 -28 35 -14 1 -39 -2 -56 -7 l-32
-8 -7 77 c-4 42 -7 104 -8 138 -1 34 -7 66 -12 71 -18 17 -49 21 -73 10z"/>
</g>
</svg>
