<?xml version="1.0" standalone="no"?>
<!DOCTYPE svg PUBLIC "-//W3C//DTD SVG 20010904//EN"
 "http://www.w3.org/TR/2001/REC-SVG-20010904/DTD/svg10.dtd">
<svg version="1.0" xmlns="http://www.w3.org/2000/svg"
 width="206.000000pt" height="207.000000pt" viewBox="0 0 206.000000 207.000000"
 preserveAspectRatio="xMidYMid meet">
<metadata>
Created by potrace 1.16, written by Peter Selinger 2001-2019
</metadata>
<g transform="translate(0.000000,207.000000) scale(0.100000,-0.100000)"
fill="#000000" stroke="none">
<path d="M818 1985 c-21 -12 -27 -24 -32 -62 -12 -107 -19 -250 -21 -463 -3
-245 -20 -598 -29 -608 -4 -3 -12 3 -20 13 -12 17 -15 17 -54 -5 -23 -13 -42
-27 -42 -31 0 -5 -22 -19 -48 -31 l-49 -24 39 89 c47 104 53 137 39 197 -10
44 -9 46 40 120 45 65 50 80 46 113 -7 54 -19 64 -93 76 -96 17 -148 -11 -129
-69 9 -27 63 -56 78 -41 14 14 37 14 37 1 0 -19 -91 -149 -118 -168 -15 -11
-35 -33 -44 -50 -24 -40 -5 -66 46 -65 33 1 36 -1 30 -20 -3 -12 -12 -29 -19
-37 -8 -8 -29 -50 -49 -93 -20 -43 -65 -117 -101 -163 -73 -93 -79 -120 -31
-143 31 -14 26 -16 123 38 32 18 146 112 173 142 8 9 40 38 70 64 30 25 58 54
62 63 5 14 13 -98 10 -148 -1 -14 -18 -179 -26 -241 -4 -35 -32 -75 -39 -57
-3 7 -6 3 -6 -9 -1 -13 -10 -28 -21 -35 -24 -15 -25 -31 -4 -63 22 -34 57 -32
104 5 29 23 41 42 49 78 17 74 31 203 41 377 5 88 14 223 20 300 6 77 15 264
20 415 5 157 13 287 19 304 7 16 14 66 17 112 4 67 2 88 -12 109 -18 28 -37
31 -76 10z"/>
<path d="M1145 1827 c-18 -25 -24 -42 -20 -63 3 -16 7 -112 9 -214 3 -160 0
-202 -20 -310 -21 -118 -29 -178 -39 -310 -11 -137 -18 -177 -42 -217 -14 -24
-31 -43 -39 -43 -22 0 -28 -48 -11 -85 13 -28 14 -49 6 -132 -18 -184 -17
-208 15 -228 18 -12 30 -14 44 -6 15 8 20 26 26 98 21 262 20 254 44 273 23
19 167 70 196 70 9 0 63 23 121 50 58 28 113 50 123 50 21 0 42 19 42 37 0 7
-10 19 -22 27 -26 16 -98 8 -153 -18 -44 -20 -98 -36 -124 -36 -23 0 -22 2 12
43 44 54 107 172 107 200 0 57 -19 77 -77 81 -12 1 -25 5 -28 8 -3 3 10 37 29
76 20 38 36 76 36 84 0 8 4 18 9 24 6 5 13 27 16 49 5 31 3 46 -12 64 -18 22
-21 22 -81 11 -35 -7 -65 -11 -67 -8 -2 2 -5 68 -6 146 -1 118 2 144 15 157 9
9 16 25 16 35 0 10 5 22 10 25 6 3 10 19 10 35 0 33 -16 44 -77 54 -39 6 -44
4 -68 -27z m133 -599 c-13 -23 -33 -48 -45 -56 -23 -14 -23 -14 -23 26 0 58 8
73 35 66 13 -3 26 -1 30 5 3 6 11 9 16 5 6 -3 0 -23 -13 -46z m0 -225 c30 -4
42 -10 42 -22 0 -9 -34 -52 -76 -96 l-75 -80 6 75 c10 128 14 143 39 135 11
-3 40 -9 64 -12z"/>
</g>
</svg>
