<?xml version="1.0" standalone="no"?>
<!DOCTYPE svg PUBLIC "-//W3C//DTD SVG 20010904//EN"
 "http://www.w3.org/TR/2001/REC-SVG-20010904/DTD/svg10.dtd">
<svg version="1.0" xmlns="http://www.w3.org/2000/svg"
 width="209.000000pt" height="209.000000pt" viewBox="0 0 209.000000 209.000000"
 preserveAspectRatio="xMidYMid meet">
<metadata>
Created by potrace 1.16, written by Peter Selinger 2001-2019
</metadata>
<g transform="translate(0.000000,209.000000) scale(0.100000,-0.100000)"
fill="#000000" stroke="none">
<path d="M813 1968 c-26 -29 -49 -153 -63 -343 -6 -77 -17 -176 -25 -220 -15
-82 -82 -499 -90 -564 -3 -20 -9 -112 -15 -204 -10 -169 -18 -207 -45 -207
-10 0 -13 -8 -10 -27 2 -16 7 -45 10 -66 11 -69 69 -101 99 -55 16 26 40 215
56 448 10 144 50 428 86 615 8 44 21 128 29 187 16 122 25 161 33 153 12 -12
28 94 27 176 -2 110 -9 129 -44 129 -16 0 -36 -10 -48 -22z"/>
<path d="M1118 1913 c-25 -6 -27 -20 -33 -186 -3 -83 -12 -210 -20 -282 -8
-71 -19 -173 -25 -227 -5 -53 -19 -125 -30 -160 -11 -36 -26 -133 -35 -228
-17 -181 -29 -271 -50 -370 -7 -36 -16 -114 -20 -175 -3 -60 -8 -117 -11 -126
-6 -21 21 -49 46 -49 37 0 47 25 59 157 7 70 25 193 41 273 16 80 32 188 35
241 l7 97 55 -2 c30 -1 72 4 92 11 20 7 51 13 69 13 27 0 32 -4 32 -24 0 -14
-4 -27 -9 -31 -6 -3 -23 -29 -40 -58 -17 -30 -62 -86 -101 -126 -38 -40 -70
-78 -70 -85 0 -20 34 -46 60 -46 12 0 44 13 69 29 26 15 58 32 72 36 13 4 61
25 106 46 46 22 89 39 97 39 13 0 30 39 20 49 -2 3 -36 0 -75 -7 -38 -7 -79
-12 -91 -12 -19 0 -20 2 -7 18 29 36 50 83 60 136 8 46 7 62 -6 91 -10 19 -24
37 -33 39 -24 8 -82 8 -119 0 -18 -3 -33 -4 -33 0 0 6 5 14 125 226 45 80 85
152 88 160 7 15 26 44 61 94 26 37 13 80 -26 84 -50 6 -218 -105 -218 -143 0
-7 13 -23 30 -35 24 -17 32 -19 49 -8 29 18 36 4 14 -29 -10 -15 -23 -35 -28
-44 -10 -16 -33 -51 -104 -158 -20 -30 -40 -61 -46 -71 -19 -32 -66 -82 -71
-77 -3 3 3 47 14 99 11 51 26 145 32 208 7 63 18 165 26 225 8 61 14 129 14
152 0 24 5 74 12 111 19 111 -5 146 -84 125z m2 -697 c0 -8 -4 -18 -10 -21 -5
-3 -10 3 -10 14 0 12 5 21 10 21 6 0 10 -6 10 -14z"/>
<path d="M555 1370 c-42 -16 -49 -36 -28 -79 13 -30 23 -39 36 -35 26 8 22
-24 -17 -126 -39 -99 -149 -258 -212 -306 -21 -16 -47 -38 -59 -49 -12 -11
-30 -25 -40 -31 -30 -17 -7 -60 37 -68 34 -6 40 -4 188 74 16 8 48 32 72 53
23 20 49 42 56 48 15 12 16 45 2 54 -6 4 -23 -2 -38 -12 -34 -23 -80 -43 -98
-43 -17 0 41 115 99 198 21 28 37 55 37 58 0 3 18 28 40 54 36 43 40 53 40
104 0 49 -4 61 -26 81 -15 14 -30 25 -35 25 -4 0 -13 2 -21 4 -7 3 -22 1 -33
-4z"/>
</g>
</svg>
