<?xml version="1.0" standalone="no"?>
<!DOCTYPE svg PUBLIC "-//W3C//DTD SVG 20010904//EN"
 "http://www.w3.org/TR/2001/REC-SVG-20010904/DTD/svg10.dtd">
<svg version="1.0" xmlns="http://www.w3.org/2000/svg"
 width="207.000000pt" height="209.000000pt" viewBox="0 0 207.000000 209.000000"
 preserveAspectRatio="xMidYMid meet">
<metadata>
Created by potrace 1.16, written by Peter Selinger 2001-2019
</metadata>
<g transform="translate(0.000000,209.000000) scale(0.100000,-0.100000)"
fill="#000000" stroke="none">
<path d="M1069 1939 c-17 -17 -19 -27 -13 -66 13 -88 8 -346 -9 -463 -9 -63
-23 -178 -32 -255 -8 -77 -27 -198 -41 -270 -14 -71 -30 -155 -34 -185 -5 -30
-16 -80 -25 -110 -8 -30 -20 -131 -25 -225 -8 -149 -21 -267 -36 -342 -4 -22
-1 -23 51 -23 30 0 56 3 56 8 11 68 29 313 29 383 0 38 6 102 14 142 8 40 20
104 26 142 7 39 23 117 35 175 13 58 28 143 34 190 6 47 20 155 31 240 11 85
24 203 30 263 5 59 15 117 21 129 6 12 11 42 10 68 -1 44 -32 187 -45 209 -11
18 -54 13 -77 -10z m21 -640 c0 -5 -4 -9 -10 -9 -5 0 -10 7 -10 16 0 8 5 12
10 9 6 -3 10 -10 10 -16z"/>
<path d="M1398 1770 c-22 -17 -23 -24 -24 -221 -1 -112 -4 -213 -7 -224 -3
-11 -8 -67 -11 -125 -4 -58 -14 -136 -21 -175 -24 -113 -66 -345 -75 -410 -5
-33 -15 -86 -24 -117 -26 -94 -46 -200 -46 -241 0 -20 -9 -70 -20 -109 -11
-40 -20 -90 -20 -110 l0 -38 45 0 c50 0 46 -9 65 125 6 44 18 107 25 140 36
162 68 301 71 312 2 7 15 13 29 13 14 0 42 11 63 25 20 13 87 41 147 61 127
41 235 89 235 103 0 25 -69 30 -166 12 -24 -5 -44 -7 -44 -4 0 2 11 25 25 51
18 33 25 63 25 99 0 50 -1 53 -26 53 -28 0 -81 27 -88 46 -4 10 48 107 94 174
60 88 67 154 19 177 -22 11 -35 10 -78 -4 -59 -19 -66 -39 -27 -78 20 -20 22
-26 11 -35 -8 -7 -26 -33 -41 -58 -29 -50 -68 -101 -81 -105 -9 -3 -5 95 8
188 14 99 28 423 20 453 -10 35 -53 47 -83 22z m52 -763 c0 -19 59 -87 76 -87
33 0 24 -32 -26 -92 -29 -35 -62 -69 -74 -77 -11 -8 -24 -20 -28 -25 -16 -24
-1 127 24 242 10 47 28 72 28 39z"/>
<path d="M687 1252 c-10 -10 -17 -30 -17 -45 0 -23 7 -28 58 -43 69 -22 82
-30 82 -58 0 -29 -76 -188 -130 -271 -24 -38 -49 -77 -55 -86 -43 -67 -86
-127 -99 -138 -20 -17 -20 -40 0 -69 16 -23 52 -29 82 -12 9 5 35 17 57 27 50
22 92 50 127 86 15 15 32 27 38 27 5 0 10 14 10 30 0 38 -12 38 -96 -1 -36
-17 -68 -28 -71 -25 -7 6 5 31 40 87 88 140 137 227 137 243 0 7 9 21 20 31
10 9 22 36 25 60 9 54 -23 121 -63 135 -15 5 -40 16 -55 25 -38 20 -70 19 -90
-3z"/>
</g>
</svg>
