<?xml version="1.0" standalone="no"?>
<!DOCTYPE svg PUBLIC "-//W3C//DTD SVG 20010904//EN"
 "http://www.w3.org/TR/2001/REC-SVG-20010904/DTD/svg10.dtd">
<svg version="1.0" xmlns="http://www.w3.org/2000/svg"
 width="207.000000pt" height="208.000000pt" viewBox="0 0 207.000000 208.000000"
 preserveAspectRatio="xMidYMid meet">
<metadata>
Created by potrace 1.16, written by Peter Selinger 2001-2019
</metadata>
<g transform="translate(0.000000,208.000000) scale(0.100000,-0.100000)"
fill="#000000" stroke="none">
<path d="M1385 1900 c-3 -5 -15 -10 -26 -10 -11 0 -45 -13 -77 -29 -73 -36
-96 -41 -206 -47 -123 -7 -159 -33 -126 -95 13 -23 59 -25 168 -5 40 7 75 9
78 5 3 -5 -23 -41 -56 -81 -33 -40 -86 -107 -117 -148 -31 -41 -68 -91 -83
-110 -14 -19 -41 -62 -60 -95 -18 -33 -41 -69 -52 -81 -21 -23 -58 -92 -58
-109 0 -5 -9 -21 -20 -35 -24 -31 -26 -68 -3 -77 12 -5 28 6 54 35 36 42 37
42 43 17 3 -13 -1 -66 -9 -117 -19 -119 -19 -128 3 -128 25 0 62 28 62 48 0 9
9 35 19 57 11 22 25 75 31 118 13 89 6 107 -41 107 -25 0 -27 2 -20 23 5 12
17 24 27 26 23 4 54 30 54 46 0 13 100 74 185 113 99 45 348 174 410 213 22
14 50 28 63 32 19 4 22 2 16 -11 -4 -9 -10 -39 -14 -67 -4 -27 -19 -95 -33
-150 -14 -55 -32 -145 -41 -200 -15 -91 -29 -147 -74 -305 -8 -30 -28 -73 -44
-94 -35 -50 -36 -66 -2 -66 18 0 41 16 78 55 51 52 55 60 89 182 19 71 47 184
62 253 72 344 92 420 112 442 8 10 13 24 9 33 -3 8 -1 27 4 41 11 28 -2 64
-24 64 -13 0 -85 -36 -226 -114 -103 -57 -380 -194 -407 -201 -54 -15 -15 35
219 280 81 84 87 95 94 143 l7 52 -31 0 c-17 0 -34 -4 -37 -10z"/>
<path d="M1240 1192 c-36 -18 -62 -60 -79 -129 -5 -21 -18 -62 -29 -90 -11
-29 -23 -72 -27 -95 -4 -23 -16 -63 -27 -88 -11 -25 -28 -71 -39 -104 -25 -74
-128 -279 -179 -354 -21 -31 -59 -79 -84 -107 -53 -57 -59 -85 -20 -85 39 0
212 181 267 280 17 30 32 57 34 59 1 2 28 -18 59 -45 58 -51 135 -110 169
-131 54 -33 172 -93 183 -93 17 0 159 -71 222 -110 68 -42 115 -57 134 -41 25
21 19 49 -13 66 -16 8 -51 33 -77 55 -25 23 -67 52 -93 64 -147 74 -173 86
-186 86 -9 0 -18 6 -21 14 -3 8 -25 21 -50 31 -24 9 -47 22 -51 29 -5 6 -36
33 -70 59 -34 26 -65 57 -69 70 -10 32 -44 58 -67 51 -16 -5 -18 -2 -12 18 4
12 16 43 27 68 31 71 48 120 68 195 18 69 41 141 63 200 6 16 26 46 44 66 36
40 36 63 0 73 -32 9 -39 8 -77 -12z"/>
</g>
</svg>
