<?xml version="1.0" standalone="no"?>
<!DOCTYPE svg PUBLIC "-//W3C//DTD SVG 20010904//EN"
 "http://www.w3.org/TR/2001/REC-SVG-20010904/DTD/svg10.dtd">
<svg version="1.0" xmlns="http://www.w3.org/2000/svg"
 width="207.000000pt" height="208.000000pt" viewBox="0 0 207.000000 208.000000"
 preserveAspectRatio="xMidYMid meet">
<metadata>
Created by potrace 1.16, written by Peter Selinger 2001-2019
</metadata>
<g transform="translate(0.000000,208.000000) scale(0.100000,-0.100000)"
fill="#000000" stroke="none">
<path d="M1360 1858 c-25 -11 -52 -26 -60 -33 -8 -7 -53 -32 -100 -56 -88 -46
-165 -101 -174 -126 -10 -25 5 -60 30 -72 39 -18 52 -14 91 30 31 34 133 99
133 84 0 -2 -21 -36 -47 -76 -27 -39 -56 -85 -67 -102 -10 -18 -31 -50 -46
-72 -48 -71 -146 -279 -159 -335 -28 -118 11 -260 70 -260 34 0 45 14 54 67 4
24 17 65 30 92 13 27 27 62 31 78 12 49 45 106 98 167 48 55 76 84 151 154 33
31 159 122 169 122 7 0 -4 -92 -14 -105 -4 -5 -15 -50 -24 -100 -28 -146 -87
-398 -118 -502 -12 -42 -8 -60 10 -49 6 3 36 46 66 95 52 82 60 102 96 253 22
89 54 222 71 293 45 186 52 315 15 315 -8 0 -39 -19 -69 -42 -31 -24 -99 -76
-151 -116 -53 -41 -102 -81 -108 -91 -7 -10 -26 -26 -43 -37 -16 -10 -39 -27
-49 -36 -23 -21 -40 -24 -33 -5 2 6 30 50 61 95 31 46 56 86 56 89 0 2 17 25
38 51 64 77 91 133 94 193 3 54 3 54 -27 56 -16 1 -50 -7 -75 -19z"/>
<path d="M845 1679 c-33 -22 -80 -57 -105 -78 -25 -20 -70 -52 -100 -70 -30
-18 -64 -41 -75 -52 -11 -10 -43 -30 -70 -45 -28 -14 -52 -29 -55 -33 -8 -10
-69 -51 -77 -51 -11 0 -83 -81 -83 -94 0 -22 47 -57 76 -58 61 -2 164 71 164
115 0 8 12 23 28 33 15 9 40 32 56 51 16 18 38 33 50 33 l21 0 -2 -325 c-1
-179 -7 -360 -13 -403 -6 -42 -14 -95 -17 -117 -3 -22 -11 -43 -17 -47 -20
-13 -122 51 -144 91 -44 78 -78 76 -66 -4 5 -37 41 -105 55 -105 3 0 26 -16
50 -35 24 -19 50 -35 56 -35 7 0 35 -13 61 -30 27 -16 54 -30 59 -30 40 0 71
272 77 682 3 189 9 334 15 345 5 10 20 52 32 93 19 64 29 83 75 128 33 33 51
58 48 67 -10 24 -35 17 -99 -26z"/>
<path d="M1262 1090 c-29 -12 -36 -32 -56 -180 -10 -69 -26 -143 -35 -165 -10
-22 -31 -85 -46 -140 -15 -55 -41 -129 -56 -164 -16 -35 -29 -69 -29 -75 0 -6
-16 -35 -35 -65 -19 -29 -35 -55 -35 -58 0 -14 -77 -131 -98 -148 -32 -27 -26
-59 10 -63 40 -5 99 47 162 143 29 44 59 91 66 105 26 49 97 236 104 275 4 22
16 56 26 75 27 51 53 152 70 275 8 58 27 111 52 147 9 12 9 21 2 28 -15 15
-75 21 -102 10z"/>
<path d="M1289 562 l-31 -28 28 -45 c20 -32 48 -57 94 -84 36 -22 82 -54 103
-72 20 -18 41 -33 47 -33 14 0 232 -121 254 -142 11 -10 22 -18 25 -18 16 1
36 28 39 50 1 13 11 34 22 45 36 38 23 52 -59 60 -73 7 -324 158 -412 248 -25
26 -54 47 -63 47 -8 0 -30 -13 -47 -28z"/>
</g>
</svg>
