<?xml version="1.0" standalone="no"?>
<!DOCTYPE svg PUBLIC "-//W3C//DTD SVG 20010904//EN"
 "http://www.w3.org/TR/2001/REC-SVG-20010904/DTD/svg10.dtd">
<svg version="1.0" xmlns="http://www.w3.org/2000/svg"
 width="210.000000pt" height="208.000000pt" viewBox="0 0 210.000000 208.000000"
 preserveAspectRatio="xMidYMid meet">
<metadata>
Created by potrace 1.16, written by Peter Selinger 2001-2019
</metadata>
<g transform="translate(0.000000,208.000000) scale(0.100000,-0.100000)"
fill="#000000" stroke="none">
<path d="M1095 1894 c-33 -20 -98 -59 -145 -87 -47 -27 -105 -67 -130 -87 -43
-35 -136 -90 -153 -90 -4 0 -40 -16 -80 -35 -39 -19 -80 -35 -90 -35 -57 0
-137 -62 -137 -106 0 -24 34 -54 61 -54 10 0 66 27 126 60 59 34 118 63 130
66 l22 6 -4 -462 c-2 -255 -8 -476 -14 -493 -5 -18 -12 -58 -16 -89 -8 -72
-22 -75 -95 -16 -51 42 -100 118 -100 156 0 11 -6 25 -14 31 -21 18 -30 -3
-29 -74 1 -99 52 -172 166 -239 25 -15 53 -38 61 -51 11 -17 26 -25 46 -25 32
0 30 -3 50 100 22 114 34 240 39 422 3 108 9 199 13 203 20 21 28 -15 28 -130
0 -137 6 -148 54 -110 27 21 31 34 48 142 31 195 31 200 19 207 -22 14 -11 28
18 21 27 -6 33 -2 61 37 44 60 146 142 238 190 24 12 57 35 75 50 17 16 42 31
54 34 13 4 23 9 23 13 0 10 125 101 139 101 12 0 11 -11 -10 -170 -22 -167
-61 -323 -104 -415 -30 -62 -30 -65 -8 -65 20 0 103 78 103 97 0 7 4 13 9 13
21 0 67 166 112 405 40 211 45 241 41 298 -3 43 -5 47 -28 47 -25 0 -67 -30
-152 -107 -26 -24 -50 -43 -54 -43 -3 0 -23 -16 -44 -35 -20 -19 -41 -35 -47
-35 -5 0 -38 -20 -72 -44 -61 -42 -105 -64 -105 -51 0 3 30 58 67 121 65 113
66 116 57 162 -9 45 -11 47 -46 50 -37 3 -70 -12 -115 -52 -28 -24 -29 -43 -4
-70 19 -21 18 -22 -33 -111 -50 -88 -86 -145 -125 -195 -11 -14 -46 -68 -80
-120 -77 -122 -112 -172 -117 -167 -2 2 -4 97 -5 213 0 203 0 210 24 260 24
47 71 94 142 139 16 10 46 33 65 51 19 17 64 54 100 81 58 44 65 54 65 84 0
48 -26 48 -100 3z"/>
<path d="M1235 1231 c-39 -8 -51 -34 -80 -184 -35 -178 -72 -317 -106 -400
-32 -77 -82 -223 -94 -272 -3 -16 -12 -37 -19 -45 -17 -19 -44 -72 -100 -193
-25 -54 -56 -107 -68 -117 l-23 -19 63 -1 c34 0 62 4 62 8 0 8 20 36 53 72 7
8 22 38 31 65 10 28 31 73 46 100 15 28 47 106 70 175 23 69 46 130 51 136 14
17 47 118 79 239 82 314 97 358 125 369 28 11 17 46 -20 62 -19 7 -36 13 -37
13 -2 -1 -16 -4 -33 -8z"/>
<path d="M1202 570 c-39 -16 -56 -110 -19 -110 6 0 43 -28 82 -62 38 -33 83
-67 100 -74 16 -7 43 -24 59 -38 16 -14 38 -28 50 -32 51 -16 153 -68 178 -91
35 -33 110 -43 138 -18 25 23 35 71 19 91 -9 11 -23 13 -52 9 -33 -6 -43 -3
-65 18 -15 14 -57 39 -94 56 -66 29 -173 97 -212 133 -11 10 -26 18 -33 18 -7
0 -17 10 -22 23 -5 13 -21 37 -36 55 -27 33 -51 38 -93 22z"/>
</g>
</svg>
