<?xml version="1.0" standalone="no"?>
<!DOCTYPE svg PUBLIC "-//W3C//DTD SVG 20010904//EN"
 "http://www.w3.org/TR/2001/REC-SVG-20010904/DTD/svg10.dtd">
<svg version="1.0" xmlns="http://www.w3.org/2000/svg"
 width="208.000000pt" height="209.000000pt" viewBox="0 0 208.000000 209.000000"
 preserveAspectRatio="xMidYMid meet">
<metadata>
Created by potrace 1.16, written by Peter Selinger 2001-2019
</metadata>
<g transform="translate(0.000000,209.000000) scale(0.100000,-0.100000)"
fill="#000000" stroke="none">
<path d="M1365 1825 c-22 -14 -56 -32 -75 -41 -56 -26 -170 -123 -170 -144 0
-10 -4 -22 -10 -25 -16 -10 -12 -22 20 -56 26 -30 32 -32 53 -20 13 7 31 28
42 46 10 19 26 42 36 51 37 34 0 -43 -45 -94 -24 -26 -69 -85 -100 -132 -103
-155 -146 -215 -175 -244 l-29 -29 -7 47 c-4 25 -5 176 -2 334 4 158 2 293 -2
301 -6 10 -19 12 -46 7 -30 -6 -39 -14 -52 -44 -14 -33 -15 -75 -7 -357 9
-317 6 -482 -15 -728 -14 -159 -58 -335 -96 -377 -19 -21 -29 -72 -21 -104 7
-29 39 -50 65 -41 35 11 128 299 143 445 2 15 9 25 19 25 39 1 84 71 93 146
23 189 19 219 -25 219 -24 0 -24 5 2 46 31 51 55 64 106 57 43 -6 43 -5 43 25
0 17 6 32 15 36 19 7 19 1 1 -60 -8 -27 -24 -106 -35 -175 -15 -95 -30 -151
-61 -222 -22 -52 -40 -98 -40 -103 0 -17 -91 -226 -114 -263 -13 -20 -33 -56
-44 -81 -23 -48 -34 -67 -70 -118 -27 -37 -23 -62 9 -62 21 0 91 67 127 120 9
14 36 51 60 82 43 57 44 58 70 43 15 -9 55 -31 89 -49 33 -19 71 -44 82 -55
12 -12 25 -21 31 -21 9 0 63 -23 177 -76 66 -31 81 -30 89 3 11 43 -6 59 -131
123 -78 41 -103 55 -149 90 -116 87 -145 112 -151 130 -6 18 16 106 35 142 33
61 63 158 86 276 15 76 36 157 48 182 18 39 27 46 63 55 56 14 72 30 51 51
-14 15 -42 19 -143 23 l-40 2 35 29 c19 17 65 51 102 76 37 25 71 52 76 60 9
16 118 111 145 125 17 9 18 7 11 -28 -4 -21 -13 -50 -20 -65 -8 -15 -14 -37
-14 -49 0 -13 -11 -59 -24 -103 -14 -45 -30 -130 -36 -191 -22 -221 -48 -370
-71 -423 -24 -54 -25 -82 -1 -82 61 0 105 81 131 245 12 72 25 155 30 185 6
30 13 80 16 110 7 55 35 176 60 260 8 25 24 79 36 120 22 73 71 162 103 189
11 9 16 30 16 67 0 49 -2 54 -22 54 -35 0 -83 -34 -120 -83 -18 -25 -49 -55
-68 -68 -18 -13 -49 -39 -67 -56 -18 -18 -37 -33 -44 -33 -6 0 -43 -30 -82
-66 -118 -109 -144 -109 -54 1 98 119 179 341 131 359 -23 9 -25 8 -69 -19z"/>
<path d="M507 1348 c-10 -8 -20 -37 -26 -73 -11 -73 -58 -249 -75 -284 -7 -14
-16 -37 -20 -51 -3 -14 -15 -36 -26 -50 l-20 -25 1 25 c0 39 25 161 43 205 22
57 20 121 -5 162 -12 19 -24 32 -28 31 -3 -2 -18 -10 -33 -17 -20 -10 -28 -22
-28 -40 0 -14 -5 -42 -10 -61 -15 -50 -40 -243 -40 -309 0 -31 -9 -94 -20
-141 -33 -144 -23 -210 31 -210 46 0 98 103 114 223 3 26 17 71 29 100 13 28
26 65 30 82 4 16 17 50 28 75 12 25 29 65 39 90 9 25 21 45 25 45 17 0 24
-130 18 -316 -7 -212 -3 -232 49 -227 30 3 32 7 44 58 23 103 8 419 -28 597
-23 119 -25 123 -50 123 -14 0 -33 -6 -42 -12z"/>
</g>
</svg>
