<?xml version="1.0" standalone="no"?>
<!DOCTYPE svg PUBLIC "-//W3C//DTD SVG 20010904//EN"
 "http://www.w3.org/TR/2001/REC-SVG-20010904/DTD/svg10.dtd">
<svg version="1.0" xmlns="http://www.w3.org/2000/svg"
 width="208.000000pt" height="208.000000pt" viewBox="0 0 208.000000 208.000000"
 preserveAspectRatio="xMidYMid meet">
<metadata>
Created by potrace 1.16, written by Peter Selinger 2001-2019
</metadata>
<g transform="translate(0.000000,208.000000) scale(0.100000,-0.100000)"
fill="#000000" stroke="none">
<path d="M866 2048 c-23 -36 -47 -135 -57 -229 -5 -47 -16 -99 -24 -115 -8
-16 -15 -46 -15 -68 0 -32 2 -36 14 -27 9 8 16 8 20 2 11 -18 -2 -375 -18
-481 -9 -58 -20 -134 -26 -170 -5 -36 -12 -114 -15 -175 -10 -185 -12 -198
-39 -265 -14 -36 -34 -96 -46 -135 -17 -59 -28 -77 -68 -112 l-47 -42 22 -20
c28 -27 48 -26 98 2 48 27 68 65 118 222 39 119 57 206 57 269 0 46 9 86 19
86 11 0 56 -84 68 -129 16 -60 27 -69 61 -50 24 14 27 20 25 67 -2 33 -11 67
-26 94 -14 24 -36 63 -50 87 -28 48 -26 63 10 101 13 14 37 42 54 63 24 29 38
37 63 37 26 0 45 13 101 68 39 37 93 81 120 97 59 34 155 102 283 202 51 40
96 73 99 73 19 0 -29 -322 -65 -435 -11 -33 -23 -76 -27 -95 -13 -65 -45 -153
-71 -197 -26 -44 -26 -73 -1 -73 17 0 100 86 120 125 45 86 127 423 148 605 6
58 16 114 22 125 16 30 26 117 15 138 -5 9 -17 17 -26 17 -25 0 -72 -23 -72
-35 -1 -5 -22 -27 -48 -47 -26 -21 -70 -58 -97 -83 -28 -25 -70 -58 -95 -72
-25 -15 -59 -39 -76 -53 -34 -30 -147 -100 -160 -100 -4 0 4 12 18 28 27 29
138 187 138 197 0 3 20 33 43 68 62 88 97 170 97 225 0 46 -14 62 -55 62 -54
0 -277 -159 -364 -261 -84 -96 -91 -141 -28 -163 31 -11 49 1 87 61 43 68 132
163 172 184 21 10 42 28 48 39 10 18 40 29 40 14 0 -10 -23 -49 -79 -133 -31
-46 -78 -118 -104 -160 -27 -42 -60 -87 -74 -101 -14 -13 -33 -41 -43 -60 -10
-19 -31 -49 -47 -67 -24 -27 -79 -95 -181 -223 -11 -14 -23 -22 -27 -18 -4 3
1 66 10 140 9 73 20 243 25 378 6 169 15 281 29 360 12 63 21 130 21 148 0 31
-2 32 -40 32 -30 0 -43 -5 -54 -22z"/>
<path d="M494 1632 c-6 -4 -23 -30 -37 -59 -31 -59 -42 -69 -62 -53 -17 14
-65 5 -77 -13 -4 -7 -8 -37 -8 -67 0 -30 -7 -84 -16 -120 -8 -36 -26 -118 -40
-183 -13 -65 -42 -174 -63 -242 -63 -196 -64 -225 -11 -244 27 -9 31 -7 49 22
34 56 108 300 130 432 4 22 13 51 21 65 7 13 17 38 21 55 14 54 63 165 69 158
4 -5 3 -87 -2 -183 -5 -96 -7 -254 -6 -350 l3 -175 36 -3 c35 -3 37 -2 53 47
18 55 21 127 7 136 -6 3 -2 23 9 48 24 52 27 127 5 127 -14 0 -15 21 -8 173
10 212 9 316 -1 385 -8 47 -11 52 -35 52 -14 0 -31 -4 -37 -8z"/>
<path d="M1345 1078 c-55 -20 -74 -46 -101 -145 -8 -32 -22 -80 -30 -108 -7
-27 -19 -72 -25 -100 -12 -55 -46 -154 -58 -170 -5 -5 -14 -28 -21 -50 -21
-65 -101 -217 -134 -253 -28 -29 -29 -34 -14 -48 10 -10 23 -14 36 -9 27 8
144 140 164 185 9 19 26 56 38 81 l21 46 47 -5 c26 -2 56 -13 67 -23 11 -10
46 -30 77 -44 32 -14 60 -30 63 -35 3 -4 17 -11 31 -14 25 -7 85 -33 223 -99
83 -39 97 -32 94 48 -3 72 -23 99 -70 92 -48 -8 -164 33 -332 119 l-74 38 -50
-18 c-27 -10 -51 -16 -53 -13 -2 2 3 21 11 41 9 20 20 60 26 89 30 160 87 295
147 348 41 35 42 38 23 48 -24 13 -66 13 -106 -1z"/>
</g>
</svg>
