<?xml version="1.0" standalone="no"?>
<!DOCTYPE svg PUBLIC "-//W3C//DTD SVG 20010904//EN"
 "http://www.w3.org/TR/2001/REC-SVG-20010904/DTD/svg10.dtd">
<svg version="1.0" xmlns="http://www.w3.org/2000/svg"
 width="206.000000pt" height="209.000000pt" viewBox="0 0 206.000000 209.000000"
 preserveAspectRatio="xMidYMid meet">
<metadata>
Created by potrace 1.16, written by Peter Selinger 2001-2019
</metadata>
<g transform="translate(0.000000,209.000000) scale(0.100000,-0.100000)"
fill="#000000" stroke="none">
<path d="M1180 1803 c-48 -16 -149 -63 -190 -87 -14 -8 -43 -24 -65 -34 -41
-20 -190 -104 -305 -172 -53 -32 -75 -39 -120 -40 -30 0 -61 -4 -69 -9 -14 -9
-61 -271 -54 -301 2 -8 -4 -51 -12 -95 -33 -166 -45 -241 -45 -279 0 -56 -34
-188 -84 -328 -24 -68 -57 -159 -72 -202 -15 -43 -38 -92 -52 -107 -24 -29
-22 -49 4 -49 39 0 152 162 178 255 10 33 22 74 27 91 5 17 9 36 9 43 0 7 6
19 14 27 8 7 19 37 26 66 6 29 18 82 26 118 19 87 53 257 60 300 21 129 76
324 99 350 10 11 46 34 81 51 35 17 64 34 64 37 0 4 29 23 65 41 36 19 65 38
65 41 0 4 28 19 63 35 34 16 98 51 142 77 44 26 94 51 112 54 l32 6 -20 -63
c-36 -117 -50 -173 -59 -248 -6 -41 -14 -79 -20 -86 -6 -7 -38 -16 -71 -19
-33 -4 -71 -12 -83 -18 -25 -11 -72 -103 -127 -247 -32 -84 -88 -192 -116
-223 -14 -16 -18 -16 -54 2 -20 11 -40 24 -44 30 -10 17 -42 11 -70 -13 -23
-19 -25 -26 -16 -48 11 -31 56 -69 82 -69 31 0 32 -19 3 -68 -42 -71 -96 -137
-158 -190 -54 -46 -68 -73 -45 -88 7 -4 16 1 21 10 5 9 30 27 56 40 42 22 162
129 162 145 0 4 18 26 41 49 l41 43 133 -7 c149 -8 185 -3 185 25 0 18 -25 28
-110 45 -71 14 -123 31 -126 41 -3 7 16 45 41 86 25 40 54 97 64 125 42 111
95 207 126 226 16 10 33 18 36 18 3 0 6 -92 7 -204 1 -215 13 -374 38 -493 17
-84 114 -296 143 -315 12 -7 21 -20 21 -28 0 -17 49 -50 74 -50 33 0 48 45 50
150 1 96 0 101 -25 123 -14 12 -38 42 -53 66 -36 56 -51 44 -37 -30 5 -30 13
-62 16 -71 15 -38 -11 -15 -29 25 -10 23 -25 56 -32 72 -58 128 -82 571 -44
825 22 148 59 299 79 325 18 22 34 191 20 217 -12 22 -38 22 -99 1z m-30
-1293 c0 -5 -4 -10 -10 -10 -5 0 -10 5 -10 10 0 6 5 10 10 10 6 0 10 -4 10
-10z"/>
</g>
</svg>
