<?xml version="1.0" standalone="no"?>
<!DOCTYPE svg PUBLIC "-//W3C//DTD SVG 20010904//EN"
 "http://www.w3.org/TR/2001/REC-SVG-20010904/DTD/svg10.dtd">
<svg version="1.0" xmlns="http://www.w3.org/2000/svg"
 width="208.000000pt" height="211.000000pt" viewBox="0 0 208.000000 211.000000"
 preserveAspectRatio="xMidYMid meet">
<metadata>
Created by potrace 1.16, written by Peter Selinger 2001-2019
</metadata>
<g transform="translate(0.000000,211.000000) scale(0.100000,-0.100000)"
fill="#000000" stroke="none">
<path d="M968 1519 c-92 -10 -141 -19 -268 -53 -52 -14 -115 -27 -140 -29 -68
-5 -131 -28 -142 -52 -14 -31 6 -73 38 -81 17 -4 59 4 123 24 53 17 119 36
146 43 28 7 70 22 95 35 33 16 70 24 138 28 51 3 97 8 102 11 10 6 62 -15 72
-30 19 -26 7 -111 -24 -180 -68 -146 -230 -460 -266 -514 -54 -80 -117 -206
-142 -281 -36 -108 -17 -260 33 -260 6 0 21 -10 34 -22 38 -36 122 -37 211 -2
39 16 84 39 99 52 130 111 112 94 234 234 l24 28 65 -14 c36 -8 106 -16 155
-20 98 -6 235 -30 265 -46 10 -5 30 -10 44 -10 39 0 35 42 -6 73 -53 39 -226
87 -314 87 -26 0 -64 5 -83 11 -20 7 -42 13 -48 15 -10 3 -9 12 4 39 23 48 9
55 -30 17 -34 -33 -71 -41 -105 -23 -9 6 -41 17 -69 26 -29 9 -55 21 -59 26
-5 8 8 27 69 99 7 8 21 29 32 45 10 17 38 50 62 75 24 25 65 81 91 124 46 78
105 142 235 261 37 33 67 66 67 73 0 16 -50 16 -75 -1 -11 -7 -39 -19 -62 -26
-68 -19 -212 -159 -244 -236 -2 -5 -25 -43 -51 -82 -27 -40 -68 -104 -93 -143
-48 -74 -132 -165 -177 -194 -33 -19 -35 -35 -9 -67 15 -18 44 -30 127 -49 60
-14 109 -31 112 -38 5 -15 -93 -111 -150 -148 -20 -13 -39 -28 -43 -33 -9 -15
-98 -58 -112 -54 -6 2 -14 -1 -18 -6 -3 -6 -21 -11 -40 -11 -49 0 -75 37 -75
108 0 64 49 188 115 292 23 36 58 97 77 135 19 39 58 113 85 165 28 52 53 106
57 120 4 14 26 63 49 110 36 73 42 96 45 163 5 93 -7 127 -56 160 -45 30 -101
37 -204 26z"/>
</g>
</svg>
