<?xml version="1.0" standalone="no"?>
<!DOCTYPE svg PUBLIC "-//W3C//DTD SVG 20010904//EN"
 "http://www.w3.org/TR/2001/REC-SVG-20010904/DTD/svg10.dtd">
<svg version="1.0" xmlns="http://www.w3.org/2000/svg"
 width="209.000000pt" height="213.000000pt" viewBox="0 0 209.000000 213.000000"
 preserveAspectRatio="xMidYMid meet">
<metadata>
Created by potrace 1.16, written by Peter Selinger 2001-2019
</metadata>
<g transform="translate(0.000000,213.000000) scale(0.100000,-0.100000)"
fill="#000000" stroke="none">
<path d="M962 1959 c-18 -5 -50 -22 -71 -37 -21 -15 -69 -48 -105 -74 -37 -27
-69 -48 -72 -48 -14 0 -174 -144 -179 -161 -17 -51 44 -109 84 -80 9 6 30 18
46 25 19 9 37 29 49 56 15 35 107 120 129 120 10 0 8 -38 -2 -45 -5 -3 -13
-20 -16 -38 -4 -17 -15 -43 -25 -57 -9 -14 -28 -54 -42 -90 -14 -36 -37 -92
-51 -125 -14 -33 -31 -74 -37 -92 -11 -30 -80 -95 -80 -75 0 19 74 178 86 185
21 12 16 43 -8 54 -26 11 -86 6 -105 -9 -7 -6 -13 -21 -13 -34 0 -12 -4 -26
-10 -29 -5 -3 -16 -28 -24 -54 -26 -87 -130 -232 -202 -282 -53 -36 -69 -66
-47 -91 30 -34 67 -32 121 6 27 20 54 36 60 36 6 0 23 10 39 23 15 12 41 28
57 35 26 12 28 11 21 -5 -4 -10 -10 -40 -13 -67 -4 -44 -3 -48 12 -43 10 4 19
7 21 7 10 0 110 139 126 174 19 43 55 84 65 73 3 -3 -1 -36 -10 -74 -8 -37
-17 -77 -18 -87 -2 -11 -15 -26 -29 -35 -45 -27 -81 -54 -167 -121 -46 -36
-99 -75 -118 -88 -46 -30 -128 -113 -147 -148 -38 -68 -47 -95 -41 -119 7 -29
53 -47 122 -46 52 0 156 -21 243 -50 31 -11 65 -19 75 -19 11 0 37 -12 57 -26
67 -45 98 -17 98 86 0 14 -1 84 -1 155 -1 72 -1 172 -1 223 l1 93 46 49 c42
45 109 88 120 77 5 -4 -13 -95 -36 -187 -5 -19 -14 -57 -19 -85 -6 -27 -22
-99 -37 -160 -35 -147 -39 -212 -14 -252 23 -38 115 -113 138 -113 10 0 50
-12 91 -25 41 -14 80 -24 85 -22 6 2 38 1 71 -3 102 -12 405 21 450 48 6 4 30
14 55 23 25 9 63 23 85 32 22 9 52 18 66 21 23 5 29 14 37 53 6 27 13 82 17
123 3 41 12 121 21 178 16 108 13 132 -13 110 -50 -41 -104 -177 -112 -281
l-6 -81 -90 -39 c-103 -45 -158 -60 -270 -77 -97 -15 -310 -5 -350 16 -15 8
-36 14 -47 14 -35 0 -82 29 -107 65 l-24 35 23 70 c12 38 28 70 35 70 26 0
134 122 160 182 9 18 19 40 24 48 5 8 16 32 25 53 17 40 43 52 32 15 -14 -47
-24 -150 -17 -176 6 -23 13 -27 49 -30 56 -4 55 -5 172 333 64 183 117 304
155 350 19 24 35 46 35 50 0 4 14 24 30 45 17 21 30 41 30 45 0 4 8 13 17 20
11 9 17 28 17 61 1 48 0 49 -31 52 -23 2 -40 -5 -65 -26 -18 -16 -53 -40 -78
-53 -25 -13 -63 -36 -84 -51 -42 -30 -66 -36 -66 -15 0 6 -5 29 -11 50 -14 50
-44 65 -88 43 -17 -9 -31 -20 -32 -24 -1 -4 -3 -25 -5 -47 -2 -22 -5 -58 -8
-80 -3 -22 -5 -45 -5 -51 -1 -7 -19 -21 -40 -32 -22 -12 -49 -27 -60 -34 -32
-20 -36 -3 -18 75 10 39 17 84 17 98 0 33 -23 53 -52 45 -50 -13 -47 -3 -91
-250 -10 -55 -17 -71 -34 -77 -12 -4 -24 -12 -28 -18 -8 -13 -99 -61 -116 -61
-15 0 -4 59 26 135 13 33 26 81 30 106 9 58 -10 69 -66 39 l-39 -20 0 21 c0
22 77 203 117 274 67 121 86 188 67 239 -7 18 -14 18 -62 5z m578 -533 c0 -2
-11 -27 -25 -54 -14 -28 -25 -55 -25 -60 0 -6 -11 -32 -25 -57 -13 -26 -27
-63 -31 -83 -4 -21 -10 -42 -15 -48 -5 -6 -22 -51 -38 -100 -16 -49 -36 -107
-45 -129 l-15 -40 1 38 c1 21 -4 43 -10 49 -14 14 -16 64 -3 73 5 3 12 18 16
35 3 16 19 42 35 57 22 22 33 51 54 137 15 60 30 115 34 122 13 22 92 74 92
60z m-280 -202 c-6 -14 -10 -39 -10 -55 0 -17 -6 -42 -14 -57 -7 -15 -19 -51
-25 -81 -6 -30 -18 -68 -26 -85 -7 -17 -25 -59 -39 -92 -33 -81 -66 -135 -77
-128 -12 7 -11 105 2 169 5 28 13 70 17 95 5 25 15 56 24 70 8 14 25 52 37 86
18 49 29 65 59 82 51 30 64 29 52 -4z m-530 -386 c-3 -29 -3 -93 0 -143 7
-131 0 -179 -27 -183 -12 -2 -39 6 -60 17 -40 20 -172 51 -218 51 -16 0 -25 6
-25 16 0 26 41 91 64 102 11 5 44 30 71 54 28 25 60 50 73 57 13 7 31 19 40
27 44 38 77 62 82 59 3 -2 3 -27 0 -57z"/>
</g>
</svg>
