<?xml version="1.0" standalone="no"?>
<!DOCTYPE svg PUBLIC "-//W3C//DTD SVG 20010904//EN"
 "http://www.w3.org/TR/2001/REC-SVG-20010904/DTD/svg10.dtd">
<svg version="1.0" xmlns="http://www.w3.org/2000/svg"
 width="209.000000pt" height="212.000000pt" viewBox="0 0 209.000000 212.000000"
 preserveAspectRatio="xMidYMid meet">
<metadata>
Created by potrace 1.16, written by Peter Selinger 2001-2019
</metadata>
<g transform="translate(0.000000,212.000000) scale(0.100000,-0.100000)"
fill="#000000" stroke="none">
<path d="M1378 1991 c-13 -11 -39 -53 -57 -93 -18 -40 -46 -100 -62 -133 -16
-33 -29 -64 -29 -69 0 -4 -16 -43 -36 -85 -20 -42 -42 -94 -50 -116 -8 -21
-21 -46 -28 -55 -8 -8 -17 -26 -21 -40 -6 -21 -36 -77 -115 -218 -9 -15 -28
-46 -43 -69 -15 -24 -27 -45 -27 -48 0 -2 -28 -48 -63 -102 -35 -54 -74 -117
-87 -140 -26 -48 -50 -63 -50 -32 0 53 23 219 35 254 8 22 32 82 55 133 53
122 54 182 1 182 -14 0 -40 -9 -58 -19 -32 -20 -183 -143 -286 -233 -114 -100
-115 -100 -97 -38 9 31 18 39 85 69 41 19 75 38 75 43 0 4 8 15 18 25 10 10
34 38 52 63 19 25 42 51 51 57 10 7 34 43 55 80 21 38 53 90 72 117 53 76 88
238 62 287 -21 39 -66 47 -149 26 -42 -10 -94 -27 -117 -38 -22 -10 -46 -19
-52 -19 -7 0 -41 -18 -75 -40 -62 -39 -107 -91 -107 -123 0 -26 28 -87 39 -87
6 0 39 29 73 65 55 57 75 70 162 106 54 22 108 39 120 37 27 -4 32 -32 12 -72
-8 -17 -31 -64 -50 -105 -75 -155 -176 -301 -252 -364 -40 -33 -61 -30 -66 10
-3 24 -8 28 -39 31 -21 2 -40 -2 -46 -10 -5 -7 -18 -49 -28 -93 -22 -94 -75
-229 -110 -281 -37 -55 -40 -72 -14 -100 12 -13 30 -24 39 -24 9 0 109 91 222
202 233 230 288 281 295 274 3 -2 -2 -20 -11 -38 -10 -18 -27 -81 -38 -140
-18 -92 -24 -108 -41 -108 -21 0 -43 -16 -136 -98 -99 -88 -178 -171 -232
-243 -68 -92 -65 -131 12 -145 47 -8 186 -76 233 -113 21 -17 49 -31 62 -31
13 0 42 -16 64 -36 54 -49 81 -44 94 16 5 25 7 61 6 80 -11 119 -5 153 40 245
24 50 58 111 76 136 18 25 42 64 53 85 12 21 41 66 66 99 24 33 44 64 44 68 1
4 11 21 23 37 17 23 25 27 39 20 29 -16 47 -12 86 23 42 36 115 87 126 87 6 0
75 49 120 86 10 9 27 18 37 22 10 4 41 29 70 56 57 53 54 71 -9 59 -31 -5 -33
-4 -26 13 4 10 10 27 12 37 6 21 -15 104 -34 132 -7 11 -13 32 -13 47 0 29
-40 65 -59 54 -33 -21 -3 71 47 141 12 17 22 37 22 45 1 7 14 29 30 48 36 42
39 82 8 104 -30 21 -50 20 -80 -3z m-58 -446 c6 -8 27 -47 46 -86 19 -40 42
-78 51 -84 14 -10 6 -18 -53 -50 -38 -21 -80 -46 -94 -55 -47 -32 -121 -70
-135 -70 -22 0 -19 10 31 117 117 249 126 262 154 228z m-717 -822 c-4 -153
-20 -242 -51 -276 -19 -21 -73 -18 -101 6 -9 7 -38 22 -64 31 -56 21 -66 37
-43 71 9 13 16 30 16 37 0 16 40 58 56 58 7 0 14 9 16 20 3 19 156 200 169
200 3 0 5 -66 2 -147z"/>
<path d="M1130 913 c-8 -3 -24 -13 -35 -23 -11 -10 -33 -24 -49 -31 -44 -21
-54 -43 -31 -68 24 -27 71 -39 168 -44 86 -4 97 -11 97 -61 0 -83 -173 -294
-353 -429 -45 -34 -77 -65 -77 -75 0 -29 23 -50 60 -57 30 -5 42 -1 73 24 21
16 59 38 85 47 26 10 56 23 67 30 19 12 154 50 205 58 144 22 304 10 405 -30
56 -23 61 -23 72 -7 17 22 17 119 1 129 -7 5 -27 7 -44 5 -17 -1 -67 3 -110 8
-121 17 -269 16 -363 -3 -46 -9 -86 -14 -89 -11 -3 3 16 35 41 73 26 37 47 74
47 82 0 8 9 21 21 28 30 19 49 73 49 139 0 99 -6 105 -155 146 -48 13 -50 15
-47 45 3 32 -4 37 -38 25z"/>
</g>
</svg>
