<?xml version="1.0" standalone="no"?>
<!DOCTYPE svg PUBLIC "-//W3C//DTD SVG 20010904//EN"
 "http://www.w3.org/TR/2001/REC-SVG-20010904/DTD/svg10.dtd">
<svg version="1.0" xmlns="http://www.w3.org/2000/svg"
 width="205.000000pt" height="214.000000pt" viewBox="0 0 205.000000 214.000000"
 preserveAspectRatio="xMidYMid meet">
<metadata>
Created by potrace 1.16, written by Peter Selinger 2001-2019
</metadata>
<g transform="translate(0.000000,214.000000) scale(0.100000,-0.100000)"
fill="#000000" stroke="none">
<path d="M908 1963 c-9 -10 -28 -74 -43 -143 -15 -69 -33 -135 -42 -148 -8
-13 -33 -31 -56 -41 -76 -33 -361 -176 -409 -206 -76 -47 -91 -112 -29 -128
40 -10 54 -3 216 101 55 36 116 75 135 88 19 12 57 30 85 39 27 9 54 20 60 24
5 4 29 15 52 24 23 9 64 32 91 52 27 19 53 35 58 35 4 0 26 9 48 19 23 11 66
29 96 41 30 12 72 29 93 38 22 9 54 15 72 15 42 -1 64 36 36 61 -22 20 -62 20
-132 1 -30 -9 -79 -22 -109 -31 -30 -8 -83 -30 -117 -47 -34 -17 -65 -28 -69
-25 -4 4 12 46 35 93 40 82 41 86 27 120 -13 30 -20 35 -49 35 -20 0 -40 -7
-49 -17z"/>
<path d="M1035 1518 c-16 -6 -43 -20 -60 -32 -16 -11 -46 -29 -66 -39 -26 -14
-44 -34 -63 -72 -32 -66 -32 -69 0 -94 30 -23 54 -16 87 26 19 23 37 30 37 14
0 -5 -8 -17 -17 -27 -10 -9 -25 -27 -33 -39 -49 -70 -251 -225 -294 -225 -6 0
-24 16 -39 35 -21 26 -36 35 -57 35 -32 0 -40 -14 -15 -24 16 -6 20 -33 9 -60
-13 -35 -99 -9 -124 38 -16 31 -36 34 -43 7 -7 -29 29 -80 68 -97 37 -15 41
-27 25 -69 -20 -53 -24 -124 -22 -375 2 -246 11 -353 32 -374 6 -6 19 -7 37 0
l26 9 2 305 c1 168 5 320 10 338 7 29 11 33 32 27 30 -7 63 10 63 33 0 10 26
37 61 63 33 24 79 58 102 76 74 56 211 150 302 208 33 20 93 60 133 87 41 27
76 47 80 44 8 -9 9 -451 1 -538 -4 -43 -2 -182 5 -315 7 -131 11 -240 10 -242
-4 -5 -76 32 -138 70 -61 38 -87 33 -55 -10 12 -16 35 -35 50 -41 16 -7 34
-19 40 -26 6 -8 28 -22 48 -31 20 -9 52 -32 71 -50 41 -39 52 -40 80 -10 19
19 21 30 16 77 -21 222 -27 402 -24 750 3 359 5 398 21 428 11 20 17 48 15 70
-3 34 -6 37 -35 40 -24 2 -39 -3 -55 -21 -24 -25 -152 -107 -167 -107 -5 0
-11 -4 -13 -9 -1 -4 -22 -20 -45 -35 -44 -27 -56 -19 -30 19 19 28 36 101 30
128 -12 48 -36 56 -98 35z"/>
<path d="M456 1101 c-4 -5 -2 -12 3 -15 5 -4 12 -2 15 3 4 5 2 12 -3 15 -5 4
-12 2 -15 -3z"/>
<path d="M925 763 c-12 -11 -15 -25 -11 -46 3 -16 6 -34 6 -39 0 -5 8 -7 18
-4 31 10 55 -28 59 -92 4 -62 -12 -97 -40 -86 -25 9 -59 72 -82 149 -24 82
-50 99 -61 41 -9 -50 1 -92 41 -172 43 -87 75 -121 122 -130 47 -9 63 1 92 59
19 38 23 63 23 131 1 74 -2 90 -26 130 -40 68 -105 96 -141 59z"/>
</g>
</svg>
