<?xml version="1.0" standalone="no"?>
<!DOCTYPE svg PUBLIC "-//W3C//DTD SVG 20010904//EN"
 "http://www.w3.org/TR/2001/REC-SVG-20010904/DTD/svg10.dtd">
<svg version="1.0" xmlns="http://www.w3.org/2000/svg"
 width="206.000000pt" height="215.000000pt" viewBox="0 0 206.000000 215.000000"
 preserveAspectRatio="xMidYMid meet">
<metadata>
Created by potrace 1.16, written by Peter Selinger 2001-2019
</metadata>
<g transform="translate(0.000000,215.000000) scale(0.100000,-0.100000)"
fill="#000000" stroke="none">
<path d="M1395 2013 c-11 -3 -24 -9 -30 -13 -5 -4 -62 -27 -125 -51 -63 -24
-145 -62 -183 -86 -88 -56 -250 -134 -260 -124 -4 4 -11 34 -15 66 -6 53 -10
60 -37 71 -25 10 -37 10 -63 -1 -42 -18 -43 -55 -2 -102 18 -20 30 -45 30 -62
0 -25 -7 -31 -49 -50 -27 -11 -53 -21 -56 -21 -4 0 -19 -8 -33 -19 -15 -10
-43 -24 -63 -30 -44 -14 -139 -111 -139 -141 0 -25 42 -70 66 -70 28 0 82 31
87 50 8 31 126 109 265 176 72 36 132 68 132 73 0 5 16 11 36 14 20 3 59 24
88 45 29 22 71 49 94 61 23 11 60 30 82 41 21 11 44 20 50 20 6 0 29 12 53 27
23 15 63 37 90 50 48 23 59 47 35 71 -12 12 -19 13 -53 5z m-445 -273 c0 -5
-7 -10 -15 -10 -8 0 -15 5 -15 10 0 6 7 10 15 10 8 0 15 -4 15 -10z m-140 -60
c0 -5 -4 -10 -10 -10 -5 0 -10 5 -10 10 0 6 5 10 10 10 6 0 10 -4 10 -10z"/>
<path d="M922 1521 c-78 -40 -131 -92 -132 -129 0 -23 55 -66 72 -56 4 3 8 1
8 -4 0 -10 -33 -42 -43 -42 -4 0 -39 -21 -78 -46 -111 -71 -111 -71 -169 -19
-55 49 -60 51 -78 33 -16 -16 -15 -58 3 -101 12 -29 13 -54 6 -131 -5 -52 -13
-101 -17 -107 -4 -7 -9 -28 -11 -47 -2 -19 -8 -43 -13 -53 -6 -10 -10 -29 -10
-42 0 -14 -7 -44 -15 -68 -26 -74 -45 -179 -52 -289 -5 -92 -4 -108 11 -123
10 -9 21 -17 26 -17 16 0 40 31 41 53 7 112 52 334 75 364 12 16 13 14 14 -22
1 -50 30 -115 63 -142 44 -34 135 -48 230 -34 75 10 85 15 121 50 23 23 45 60
56 92 17 50 17 55 2 97 -14 36 -27 49 -72 74 -48 26 -64 30 -125 29 -87 -1
-119 -20 -123 -75 -3 -31 3 -45 35 -84 21 -26 50 -59 66 -73 15 -14 24 -28 21
-32 -13 -12 -114 -7 -142 7 -55 28 -65 50 -59 119 3 34 2 68 -2 76 -8 13 -11
11 -51 -36 -14 -16 -15 -16 -18 -1 -2 9 9 67 24 129 24 103 30 117 70 159 27
29 76 64 126 90 46 24 134 82 197 129 143 109 182 132 196 121 29 -24 59 -568
45 -805 -12 -199 -18 -246 -36 -273 -15 -22 -20 -23 -75 -17 -72 8 -78 -6 -22
-55 33 -29 41 -32 89 -28 93 8 119 51 136 223 26 278 3 855 -42 1024 -5 20 -8
45 -7 56 3 29 -66 34 -103 6 -39 -28 -64 -30 -68 -6 -10 65 -10 65 -55 64 -27
-1 -68 -15 -115 -38z m-6 -791 c7 0 21 -11 29 -24 15 -22 15 -28 2 -53 -14
-26 -62 -62 -70 -52 -15 18 -47 120 -42 129 5 7 19 10 37 6 17 -3 37 -6 44 -6z"/>
</g>
</svg>
