<?xml version="1.0" standalone="no"?>
<!DOCTYPE svg PUBLIC "-//W3C//DTD SVG 20010904//EN"
 "http://www.w3.org/TR/2001/REC-SVG-20010904/DTD/svg10.dtd">
<svg version="1.0" xmlns="http://www.w3.org/2000/svg"
 width="207.000000pt" height="213.000000pt" viewBox="0 0 207.000000 213.000000"
 preserveAspectRatio="xMidYMid meet">
<metadata>
Created by potrace 1.16, written by Peter Selinger 2001-2019
</metadata>
<g transform="translate(0.000000,213.000000) scale(0.100000,-0.100000)"
fill="#000000" stroke="none">
<path d="M1044 1968 c-33 -11 -36 -16 -105 -172 -40 -89 -49 -101 -94 -131
-27 -18 -76 -59 -107 -91 -31 -33 -69 -70 -84 -84 -39 -36 -94 -121 -94 -145
0 -79 116 -46 210 60 83 94 198 208 238 235 24 17 58 31 80 32 37 3 37 3 35
-33 -2 -41 -32 -103 -78 -165 -16 -22 -39 -53 -50 -68 -33 -47 -127 -150 -174
-192 -24 -21 -50 -47 -58 -56 -45 -52 -157 -158 -202 -192 -40 -29 -58 -37
-79 -33 -36 7 -89 -29 -97 -65 -8 -37 -2 -44 42 -53 20 -4 43 -14 50 -23 15
-21 17 -140 2 -213 -16 -79 -16 -83 4 -87 26 -5 88 62 98 106 5 20 9 80 9 132
0 87 -2 99 -27 135 -18 26 -22 40 -14 43 7 2 20 12 29 22 9 9 33 25 52 35 19
10 43 24 52 32 12 11 28 13 52 9 28 -5 40 -2 56 14 11 11 20 23 20 28 0 4 46
43 102 87 55 44 124 100 152 125 28 25 62 51 76 57 23 10 86 58 136 103 12 11
26 20 32 20 5 0 26 16 46 35 21 19 43 35 50 35 8 0 19 7 26 15 7 8 17 15 22
15 12 0 7 -31 -16 -110 -27 -92 -43 -180 -56 -295 -7 -60 -21 -146 -32 -189
-11 -44 -23 -113 -28 -155 -15 -128 -30 -180 -62 -217 -17 -20 -28 -40 -24
-49 7 -20 50 -19 66 0 23 28 90 167 90 187 0 11 5 29 12 41 15 30 43 164 78
384 33 203 48 263 95 374 37 86 61 179 52 203 -13 33 -60 18 -142 -44 -43 -33
-116 -83 -162 -111 -46 -28 -97 -62 -114 -76 -16 -14 -32 -24 -34 -21 -2 2 9
40 24 84 35 99 46 166 31 194 -16 29 -60 48 -102 42 -60 -7 -70 1 -54 40 23
53 29 121 14 139 -10 13 -20 14 -44 7z"/>
<path d="M1076 1155 c-11 -8 -30 -15 -41 -15 -43 0 -58 -33 -70 -145 -1 -16
-3 -33 -4 -36 -1 -4 -21 -14 -46 -24 -78 -29 -87 -76 -21 -105 24 -10 47 -27
50 -38 6 -17 -7 -100 -16 -106 -44 -27 -117 -92 -121 -107 -8 -28 26 -59 64
-59 23 0 47 14 92 53 34 29 83 65 108 80 25 14 51 33 58 41 7 9 33 26 58 38
48 24 73 51 73 80 0 25 -47 15 -145 -33 -44 -21 -86 -39 -93 -39 -15 0 -10 25
14 72 8 15 14 34 14 42 0 8 10 21 23 27 51 28 117 92 117 116 0 27 -24 30 -54
8 -11 -8 -31 -15 -44 -15 -21 0 -23 3 -17 28 12 49 30 77 58 90 20 10 27 20
25 35 -4 27 -53 34 -82 12z"/>
<path d="M1725 558 c-10 -6 -44 -17 -75 -24 -30 -7 -93 -27 -140 -44 -47 -17
-110 -38 -140 -46 -30 -8 -79 -25 -110 -38 -111 -47 -171 -68 -177 -63 -3 3
-17 1 -32 -5 -14 -5 -44 -12 -66 -14 -22 -3 -67 -11 -100 -19 -85 -21 -190
-34 -260 -34 -76 1 -189 -17 -226 -36 -35 -19 -45 -49 -25 -80 17 -26 66 -41
93 -27 22 11 142 29 243 37 41 3 104 12 140 21 36 8 84 17 108 20 24 3 64 11
90 19 136 38 197 57 221 69 40 20 382 134 415 138 21 2 32 -3 40 -17 17 -31
28 -35 57 -20 26 14 39 47 39 105 0 45 -57 80 -95 58z m-887 -310 c-3 -7 -18
-13 -34 -14 -59 -2 -53 20 7 24 21 2 30 -1 27 -10z"/>
</g>
</svg>
