<?xml version="1.0" standalone="no"?>
<!DOCTYPE svg PUBLIC "-//W3C//DTD SVG 20010904//EN"
 "http://www.w3.org/TR/2001/REC-SVG-20010904/DTD/svg10.dtd">
<svg version="1.0" xmlns="http://www.w3.org/2000/svg"
 width="206.000000pt" height="203.000000pt" viewBox="0 0 206.000000 203.000000"
 preserveAspectRatio="xMidYMid meet">
<metadata>
Created by potrace 1.16, written by Peter Selinger 2001-2019
</metadata>
<g transform="translate(0.000000,203.000000) scale(0.100000,-0.100000)"
fill="#000000" stroke="none">
<path d="M1387 1870 c-20 -4 -55 -21 -77 -38 -21 -18 -41 -32 -44 -32 -3 0 -6
11 -6 25 0 14 -7 28 -15 31 -20 8 -106 -26 -112 -45 -3 -9 -28 -64 -54 -122
-58 -126 -65 -186 -24 -213 13 -9 31 -16 39 -16 13 0 62 54 211 231 65 78 116
112 138 90 7 -7 13 -47 15 -95 4 -73 0 -96 -27 -177 -18 -52 -38 -107 -46
-124 -50 -106 -95 -208 -95 -215 0 -4 -7 -13 -15 -20 -17 -14 -21 -70 -5 -70
32 0 -21 -74 -110 -155 -24 -22 -61 -57 -82 -77 -58 -57 -78 -47 -38 17 61 98
131 423 99 461 -6 8 -15 14 -19 14 -16 0 -61 -91 -91 -182 -17 -51 -37 -107
-45 -125 -8 -17 -19 -54 -24 -82 -5 -28 -14 -58 -19 -68 -5 -10 -20 -50 -32
-90 -19 -62 -20 -74 -9 -89 30 -35 58 -36 124 -4 50 25 99 66 251 216 103 101
189 183 191 181 2 -2 -1 -19 -7 -38 -5 -19 -23 -95 -39 -169 -16 -74 -36 -160
-45 -190 -8 -30 -15 -68 -15 -85 0 -26 -7 -35 -39 -53 -21 -12 -44 -22 -50
-22 -6 0 -30 -12 -54 -27 -23 -15 -67 -39 -97 -54 -48 -22 -141 -81 -265 -166
-55 -37 -87 -83 -80 -112 16 -65 43 -73 264 -76 135 -3 194 0 220 10 20 7 59
19 86 25 28 7 59 21 70 31 12 10 35 21 52 25 47 9 49 47 15 327 -9 70 -2 149
22 252 52 218 67 305 64 365 l-3 65 -46 3 c-35 2 -49 -2 -64 -18 -20 -22 -45
-27 -45 -9 0 6 7 23 15 37 8 15 24 50 35 77 12 28 27 64 34 80 54 122 68 190
63 313 l-3 113 -35 33 c-37 37 -74 47 -132 36z m-9 -1454 c7 -52 14 -100 17
-108 7 -19 -87 -88 -144 -105 -29 -9 -86 -14 -151 -13 -58 1 -120 -2 -137 -5
-45 -10 -44 13 3 51 20 16 52 44 71 62 20 17 41 32 48 32 6 0 22 11 35 25 13
14 29 25 36 25 6 0 17 7 24 15 7 8 46 33 86 56 41 22 74 45 74 50 0 5 6 9 13
9 10 0 17 -28 25 -94z"/>
<path d="M233 1487 c-40 -14 -46 -28 -32 -81 6 -22 11 -104 11 -181 -1 -174 7
-255 23 -255 7 0 16 20 20 48 3 26 18 94 31 152 14 58 28 134 31 168 4 40 11
66 20 69 7 3 13 18 13 34 0 24 -6 31 -36 44 -20 8 -39 14 -43 14 -3 -1 -20 -7
-38 -12z"/>
<path d="M1247 1465 c-21 -15 -37 -34 -37 -45 0 -33 51 -80 93 -87 l37 -6 0
37 c0 20 -5 36 -11 36 -7 0 -9 12 -4 36 4 26 2 39 -7 45 -20 13 -31 11 -71
-16z"/>
<path d="M692 1422 c-141 -156 -223 -249 -250 -287 -33 -47 -36 -146 -3 -144
36 1 78 40 102 95 3 5 15 26 28 47 39 64 46 37 31 -122 -7 -77 -10 -162 -6
-188 6 -54 -17 -184 -55 -296 -22 -67 -22 -69 -3 -87 10 -11 33 -22 51 -26 26
-5 33 -2 44 17 6 13 44 58 84 100 78 82 148 190 139 214 -9 22 -14 19 -64 -26
-25 -22 -57 -47 -72 -55 l-26 -14 4 58 c2 31 6 129 9 217 8 251 21 378 45 445
12 34 19 68 16 76 -9 24 -39 15 -74 -24z"/>
<path d="M235 890 c-3 -5 -4 -14 0 -19 6 -11 -30 -232 -44 -271 -19 -50 -52
-201 -49 -222 4 -30 52 -57 75 -42 20 12 31 45 62 184 32 145 30 251 -5 318
-8 15 -14 35 -14 45 0 19 -15 23 -25 7z"/>
</g>
</svg>
