<?xml version="1.0" standalone="no"?>
<!DOCTYPE svg PUBLIC "-//W3C//DTD SVG 20010904//EN"
 "http://www.w3.org/TR/2001/REC-SVG-20010904/DTD/svg10.dtd">
<svg version="1.0" xmlns="http://www.w3.org/2000/svg"
 width="211.000000pt" height="203.000000pt" viewBox="0 0 211.000000 203.000000"
 preserveAspectRatio="xMidYMid meet">
<metadata>
Created by potrace 1.16, written by Peter Selinger 2001-2019
</metadata>
<g transform="translate(0.000000,203.000000) scale(0.100000,-0.100000)"
fill="#000000" stroke="none">
<path d="M1008 1873 c-14 -2 -31 -10 -36 -16 -6 -7 -22 -66 -37 -132 -29 -132
-40 -148 -108 -159 -21 -4 -73 -24 -116 -45 -42 -22 -104 -47 -137 -56 -32
-10 -75 -26 -94 -36 -19 -10 -61 -30 -92 -45 -51 -23 -58 -30 -58 -56 0 -35
42 -78 77 -78 21 0 119 59 133 79 3 5 22 14 43 20 20 7 37 17 37 22 0 5 12 12
27 15 15 4 38 13 52 20 14 8 33 14 42 14 9 0 22 7 29 15 7 8 19 15 26 15 8 0
14 5 14 10 0 6 9 10 20 10 20 0 20 -1 4 -37 -20 -47 -50 -135 -64 -189 -9 -36
-16 -44 -53 -59 -23 -9 -49 -22 -57 -29 -8 -8 -36 -21 -63 -31 -55 -21 -117
-84 -117 -120 0 -15 10 -31 26 -41 24 -17 27 -16 68 13 24 17 53 34 64 38 20
6 19 2 -11 -62 -18 -38 -36 -76 -42 -84 -14 -20 -117 -89 -133 -89 -40 0 -172
-102 -172 -133 0 -21 46 -67 68 -67 8 0 31 14 52 30 21 17 42 30 48 30 17 0
-4 -60 -55 -157 -105 -201 -126 -239 -143 -263 -10 -14 -39 -68 -64 -120 l-46
-95 36 -3 c37 -3 74 18 74 43 0 16 29 73 41 80 5 4 9 15 9 25 0 10 6 23 14 27
31 17 132 185 222 368 105 212 151 273 244 321 30 15 69 38 85 50 17 12 40 25
52 28 13 4 69 38 125 75 57 37 119 77 138 88 52 32 96 81 83 94 -11 11 -126
-30 -175 -63 -14 -10 -29 -18 -34 -18 -4 0 -53 -26 -108 -59 -125 -73 -187
-104 -193 -98 -7 7 45 102 71 130 28 30 101 67 202 102 118 41 214 88 214 106
0 22 -21 39 -49 39 -29 0 -181 -48 -196 -61 -5 -5 -16 -9 -25 -9 -10 0 -31 -7
-49 -16 -18 -9 -34 -14 -37 -11 -8 7 64 191 77 196 6 2 19 22 29 45 18 43 65
76 107 76 27 0 63 28 63 50 0 24 -40 36 -68 21 -12 -6 -30 -11 -41 -11 -17 0
-21 6 -21 37 0 20 7 44 16 54 8 9 21 42 28 73 12 50 12 58 -4 76 -10 11 -21
19 -26 19 -5 -1 -21 -4 -36 -6z"/>
<path d="M1232 935 c-23 -8 -59 -23 -80 -33 -20 -11 -72 -36 -114 -56 -42 -20
-80 -41 -83 -46 -4 -6 -25 -20 -47 -33 -136 -74 -263 -160 -284 -192 -17 -27
-11 -48 20 -64 19 -11 29 -8 77 23 29 20 59 40 64 44 6 4 39 24 75 44 36 20
83 51 105 68 22 18 49 36 60 41 11 5 34 18 50 28 46 30 49 25 15 -22 -17 -24
-38 -57 -48 -74 -9 -17 -28 -51 -41 -74 -13 -24 -34 -52 -48 -62 -13 -10 -35
-41 -49 -69 -24 -47 -27 -50 -57 -45 -151 27 -187 36 -225 56 -15 8 -29 7 -56
-4 -63 -27 -65 -66 -6 -119 l33 -28 -5 -95 c-3 -53 -2 -112 3 -131 8 -37 42
-71 70 -72 32 0 105 40 132 72 46 57 117 162 117 176 0 18 37 18 420 7 85 -2
171 -6 190 -9 31 -4 191 6 305 18 22 3 43 5 48 5 10 1 9 29 -3 36 -16 10 -65
14 -247 24 -95 6 -178 13 -183 16 -6 4 -53 6 -106 6 -100 -1 -302 23 -317 38
-4 4 2 21 15 37 21 26 39 56 71 117 18 34 107 155 116 159 5 2 33 34 64 72
102 128 82 182 -51 141z m-487 -621 c22 -4 43 -7 48 -6 13 3 7 -28 -10 -56 -9
-15 -31 -43 -48 -64 -16 -20 -38 -48 -48 -62 -19 -27 -41 -34 -52 -16 -6 10
11 175 21 208 2 7 13 11 26 8 13 -3 41 -8 63 -12z"/>
</g>
</svg>
