<?xml version="1.0" standalone="no"?>
<!DOCTYPE svg PUBLIC "-//W3C//DTD SVG 20010904//EN"
 "http://www.w3.org/TR/2001/REC-SVG-20010904/DTD/svg10.dtd">
<svg version="1.0" xmlns="http://www.w3.org/2000/svg"
 width="207.000000pt" height="204.000000pt" viewBox="0 0 207.000000 204.000000"
 preserveAspectRatio="xMidYMid meet">
<metadata>
Created by potrace 1.16, written by Peter Selinger 2001-2019
</metadata>
<g transform="translate(0.000000,204.000000) scale(0.100000,-0.100000)"
fill="#000000" stroke="none">
<path d="M1066 1985 c-60 -29 -125 -66 -144 -84 -19 -17 -55 -43 -79 -57 -64
-37 -166 -141 -187 -191 -16 -36 -17 -47 -6 -73 7 -16 19 -30 28 -30 16 0 47
32 67 70 13 25 127 130 140 130 4 0 28 19 53 41 41 36 91 70 175 116 48 27
117 53 141 53 33 0 33 -17 0 -95 -14 -33 -36 -93 -50 -134 -14 -41 -35 -97
-48 -125 -12 -28 -30 -80 -40 -116 -19 -72 -26 -91 -65 -167 -16 -34 -32 -53
-43 -53 -13 0 -18 -8 -18 -28 0 -55 41 -67 98 -29 44 29 66 75 146 302 81 228
92 258 117 310 11 25 21 73 25 128 l6 87 -104 -1 -103 -1 -109 -53z"/>
<path d="M893 1708 c-6 -7 -10 -56 -11 -109 0 -52 -5 -113 -10 -135 -25 -92
-34 -131 -37 -164 -2 -19 -9 -74 -16 -122 -12 -80 -15 -87 -44 -104 -16 -9
-34 -23 -38 -31 -4 -7 -18 -13 -31 -13 -13 0 -29 -7 -36 -15 -15 -19 -5 -65
15 -65 19 0 95 -33 95 -41 0 -27 -217 -289 -239 -289 -14 0 -23 -37 -16 -61
10 -31 48 -41 89 -24 19 8 37 19 40 24 4 5 19 12 35 16 32 7 93 36 117 56 8 7
34 22 57 34 103 53 232 127 247 140 9 8 37 25 61 37 49 25 149 106 149 120 0
23 -87 -13 -275 -114 -16 -9 -41 -21 -55 -28 -14 -6 -36 -17 -50 -25 -13 -8
-26 -13 -27 -11 -1 1 -3 44 -4 94 -1 82 2 96 25 136 30 52 33 88 9 112 -12 11
-16 30 -14 63 4 84 25 185 52 258 4 12 9 70 10 128 2 89 -1 108 -16 125 -20
22 -67 27 -82 8z m-91 -760 c-7 -7 -12 -8 -12 -2 0 14 12 26 19 19 2 -3 -1
-11 -7 -17z m8 -177 c16 -31 13 -34 -52 -71 l-63 -34 36 45 c19 24 38 52 42
62 8 22 24 22 37 -2z"/>
<path d="M366 1578 c-25 -36 -25 -37 44 -193 28 -64 42 -150 38 -243 -3 -82
-2 -87 18 -90 28 -4 42 15 54 74 21 94 22 140 7 239 -15 97 -55 211 -80 227
-24 15 -66 8 -81 -14z"/>
<path d="M887 350 c-36 -7 -87 -28 -97 -41 -3 -4 -25 -17 -50 -29 -25 -12 -49
-29 -53 -36 -4 -8 -16 -14 -25 -14 -9 0 -28 -9 -42 -20 -15 -12 -41 -20 -66
-20 -54 0 -68 26 -45 87 14 40 14 44 -1 60 -16 15 -20 15 -55 -9 -21 -14 -48
-29 -60 -32 -34 -11 -36 -36 -6 -85 20 -33 42 -53 77 -69 71 -34 117 -25 203
41 81 63 132 88 189 95 35 4 54 -2 106 -31 35 -19 66 -35 71 -35 4 0 44 -2 90
-6 85 -6 218 4 297 23 76 18 160 24 160 12 0 -6 0 -12 1 -13 0 -2 4 -23 9 -47
7 -41 5 -48 -22 -82 -16 -20 -28 -45 -26 -56 4 -23 50 -30 69 -10 28 28 65 41
114 42 l50 0 3 56 3 56 -46 19 c-31 12 -48 26 -51 41 -4 13 -13 23 -21 23 -8
0 -26 9 -40 20 -30 23 -130 27 -228 9 -32 -6 -111 -11 -174 -12 -102 -2 -122
1 -161 20 -40 20 -131 55 -134 52 0 -1 -18 -5 -39 -9z"/>
</g>
</svg>
