<?xml version="1.0" standalone="no"?>
<!DOCTYPE svg PUBLIC "-//W3C//DTD SVG 20010904//EN"
 "http://www.w3.org/TR/2001/REC-SVG-20010904/DTD/svg10.dtd">
<svg version="1.0" xmlns="http://www.w3.org/2000/svg"
 width="208.000000pt" height="205.000000pt" viewBox="0 0 208.000000 205.000000"
 preserveAspectRatio="xMidYMid meet">
<metadata>
Created by potrace 1.16, written by Peter Selinger 2001-2019
</metadata>
<g transform="translate(0.000000,205.000000) scale(0.100000,-0.100000)"
fill="#000000" stroke="none">
<path d="M1275 1973 c-175 -36 -415 -171 -415 -233 0 -54 82 -80 117 -37 42
53 197 136 261 140 l37 2 3 -63 c2 -38 -3 -83 -12 -110 -9 -26 -18 -90 -22
-142 -3 -52 -12 -115 -19 -140 -7 -25 -16 -68 -19 -97 -6 -46 -4 -53 14 -63
35 -19 64 9 84 81 10 35 22 75 27 89 5 14 13 70 19 125 5 55 14 124 19 153 13
67 7 218 -10 257 -20 44 -31 50 -84 38z"/>
<path d="M651 1569 c-31 -34 -27 -73 10 -101 67 -49 108 -97 111 -130 4 -41
28 -48 59 -17 18 18 21 29 16 72 -6 44 -22 76 -93 185 -1 2 -20 6 -42 9 -32 4
-43 1 -61 -18z"/>
<path d="M1022 1508 c-18 -18 -15 -43 8 -63 11 -10 20 -22 20 -26 0 -18 -103
-129 -121 -129 -19 0 -69 -67 -69 -93 0 -27 31 -57 60 -57 30 0 33 3 142 149
15 20 27 41 28 46 0 6 10 23 23 39 21 26 25 27 45 15 19 -12 24 -12 32 1 6 10
2 22 -14 40 -12 14 -33 40 -45 58 -19 26 -29 32 -60 32 -20 0 -42 -5 -49 -12z"/>
<path d="M504 1341 c-75 -38 -98 -72 -129 -186 -25 -92 -27 -111 -22 -228 4
-116 7 -131 28 -153 16 -17 29 -22 43 -18 40 13 111 47 141 69 17 12 62 39
100 60 39 21 75 44 81 51 6 8 16 14 23 14 6 0 19 4 29 9 56 28 115 51 131 51
17 0 18 -14 20 -217 1 -120 4 -253 7 -295 5 -69 -9 -248 -23 -306 -7 -31 -34
-28 -69 8 -35 35 -51 38 -56 8 -2 -15 7 -33 23 -50 33 -33 145 -89 165 -81 48
18 64 160 63 545 -1 276 1 325 17 375 9 32 21 62 26 68 10 11 11 85 1 86 -54
7 -92 4 -113 -9 -41 -27 -72 -42 -85 -42 -7 0 -38 -13 -68 -29 -30 -16 -70
-32 -89 -36 -35 -8 -171 -77 -238 -121 -22 -15 -44 -24 -48 -20 -15 16 -12
210 4 251 37 95 70 151 101 170 35 22 40 49 8 51 -11 1 -43 -10 -71 -25z"/>
<path d="M1474 1204 c-27 -14 -57 -35 -67 -47 -75 -90 -174 -203 -181 -206
-46 -19 -61 -86 -23 -100 15 -6 30 -30 47 -72 22 -57 25 -77 24 -194 -1 -153
-23 -264 -59 -307 -33 -39 -33 -81 0 -96 41 -19 53 -15 84 28 32 44 54 122 71
250 17 132 17 130 49 130 22 0 43 15 93 68 69 71 162 154 180 161 7 2 8 -6 4
-25 -17 -73 -27 -253 -22 -399 5 -148 16 -226 47 -347 l12 -48 69 0 c54 0 68
3 68 15 0 8 -4 15 -9 15 -20 0 -52 91 -67 191 -22 141 -22 394 0 524 10 55 21
104 26 110 11 13 36 164 32 188 -2 10 -13 17 -27 17 -37 0 -55 -10 -70 -41 -8
-15 -27 -35 -43 -44 -15 -9 -35 -30 -44 -46 -10 -16 -27 -33 -40 -39 -13 -5
-48 -32 -78 -60 -30 -27 -60 -50 -66 -50 -6 0 -29 -16 -51 -35 -40 -34 -41
-34 -46 -12 -3 12 -14 47 -25 77 -37 104 -37 104 14 152 26 23 50 48 55 53 51
62 84 95 100 100 31 10 42 50 24 86 -9 16 -19 29 -24 29 -4 0 -30 -11 -57 -26z"/>
<path d="M735 650 c-55 -33 -116 -62 -135 -65 -19 -3 -51 -13 -70 -22 -78 -37
-89 -66 -39 -102 26 -19 35 -21 53 -12 22 11 115 41 130 41 4 0 5 -7 2 -17 -4
-9 -11 -50 -17 -92 -11 -85 -19 -120 -56 -238 -28 -88 -26 -108 11 -122 58
-23 82 9 125 169 12 42 26 114 32 160 8 61 20 101 42 140 67 121 77 145 77
176 0 30 -14 45 -43 43 -7 0 -57 -27 -112 -59z"/>
</g>
</svg>
