<?xml version="1.0" standalone="no"?>
<!DOCTYPE svg PUBLIC "-//W3C//DTD SVG 20010904//EN"
 "http://www.w3.org/TR/2001/REC-SVG-20010904/DTD/svg10.dtd">
<svg version="1.0" xmlns="http://www.w3.org/2000/svg"
 width="210.000000pt" height="204.000000pt" viewBox="0 0 210.000000 204.000000"
 preserveAspectRatio="xMidYMid meet">
<metadata>
Created by potrace 1.16, written by Peter Selinger 2001-2019
</metadata>
<g transform="translate(0.000000,204.000000) scale(0.100000,-0.100000)"
fill="#000000" stroke="none">
<path d="M1125 1911 c-217 -41 -255 -55 -282 -104 -15 -27 -17 -82 -3 -107 14
-25 43 -16 91 31 45 43 131 74 231 84 48 4 59 2 67 -12 12 -23 -7 -117 -79
-386 -26 -94 -30 -121 -20 -132 7 -8 19 -15 26 -15 16 0 56 75 77 147 9 28 22
62 30 75 20 32 55 178 62 265 7 76 -10 135 -42 147 -27 11 -117 15 -158 7z"/>
<path d="M624 1629 c-28 -8 -54 -42 -54 -70 0 -5 18 -29 41 -54 29 -31 42 -56
46 -84 7 -54 27 -59 83 -23 11 7 8 201 -3 217 -15 19 -70 26 -113 14z"/>
<path d="M948 1533 c-30 -5 -45 -36 -33 -72 4 -14 -5 -36 -31 -73 -20 -29 -41
-55 -45 -58 -4 -3 -10 -17 -14 -31 -7 -29 6 -44 45 -54 32 -8 49 11 79 86 21
53 54 96 100 130 32 24 20 65 -21 73 -17 3 -36 5 -42 5 -6 -1 -23 -4 -38 -6z"/>
<path d="M1346 1314 c-9 -8 -21 -24 -26 -35 -6 -11 -29 -31 -50 -44 -22 -14
-57 -47 -77 -74 -21 -27 -50 -56 -65 -63 -15 -8 -36 -26 -47 -40 -20 -25 -20
-27 -4 -64 14 -32 17 -69 17 -209 -1 -195 -16 -336 -50 -481 -27 -116 -30
-162 -10 -189 12 -16 17 -17 43 -6 29 12 38 32 60 146 3 17 9 35 13 40 9 12
26 122 39 258 l10 98 53 64 c29 35 62 67 72 71 11 3 38 24 60 46 23 22 49 47
59 56 19 18 90 53 95 47 2 -2 6 -115 8 -252 3 -244 14 -393 34 -465 6 -20 12
-58 15 -85 3 -26 8 -67 11 -91 l7 -42 64 0 65 0 -7 32 c-4 18 -15 62 -25 98
-25 88 -27 104 -44 260 -14 128 -22 340 -18 460 3 79 -25 200 -46 202 -50 4
-99 -15 -187 -75 -22 -15 -45 -27 -51 -27 -7 0 -14 -6 -17 -14 -9 -22 -96 -78
-113 -72 -18 7 -19 141 -1 172 11 20 44 59 155 186 46 53 50 68 26 92 -20 20
-48 20 -68 0z m-216 -854 c0 -5 -5 -10 -11 -10 -5 0 -7 5 -4 10 3 6 8 10 11
10 2 0 4 -4 4 -10z"/>
<path d="M465 1193 c-50 -53 -83 -114 -97 -177 -12 -54 -12 -60 -1 -135 8 -48
16 -68 34 -82 30 -23 48 -24 79 -2 14 10 41 26 62 38 20 11 56 31 79 44 37 20
47 22 74 12 17 -6 41 -11 53 -11 12 0 22 -3 23 -7 5 -43 8 -200 4 -211 -3 -9
-15 -2 -36 23 -55 63 -109 41 -184 -75 -31 -48 -93 -109 -111 -110 -6 0 -19
-9 -28 -19 -16 -18 -16 -21 -1 -50 12 -25 22 -31 48 -31 46 0 103 -42 117 -86
18 -53 6 -133 -29 -206 -40 -81 -41 -108 -3 -108 34 0 47 9 56 36 4 12 20 35
36 52 34 36 52 95 52 174 0 46 -6 68 -33 115 -17 32 -40 67 -50 78 -18 20 -18
22 5 55 12 19 33 57 47 84 26 52 39 63 67 50 9 -4 24 -8 32 -8 20 -1 23 -128
4 -228 -8 -43 -21 -114 -29 -158 -21 -113 -20 -136 9 -156 32 -20 70 -15 74
11 2 11 10 27 17 35 23 26 37 97 24 118 -9 15 -8 37 5 103 20 104 25 519 6
588 -6 23 -9 49 -7 55 3 7 39 39 81 70 42 31 76 61 76 65 0 4 -10 13 -22 18
-20 9 -43 0 -158 -60 -378 -197 -362 -191 -381 -145 -11 27 -10 35 4 60 9 16
17 39 17 51 0 26 35 105 57 129 18 20 11 48 -12 48 -9 0 -36 -21 -60 -47z"/>
</g>
</svg>
