<?xml version="1.0" standalone="no"?>
<!DOCTYPE svg PUBLIC "-//W3C//DTD SVG 20010904//EN"
 "http://www.w3.org/TR/2001/REC-SVG-20010904/DTD/svg10.dtd">
<svg version="1.0" xmlns="http://www.w3.org/2000/svg"
 width="207.000000pt" height="207.000000pt" viewBox="0 0 207.000000 207.000000"
 preserveAspectRatio="xMidYMid meet">
<metadata>
Created by potrace 1.16, written by Peter Selinger 2001-2019
</metadata>
<g transform="translate(0.000000,207.000000) scale(0.100000,-0.100000)"
fill="#000000" stroke="none">
<path d="M981 2011 c-32 -32 -26 -67 19 -121 22 -26 40 -54 40 -62 0 -19 -32
-47 -110 -96 -144 -90 -187 -125 -255 -205 -50 -58 -56 -70 -53 -104 3 -34 6
-38 41 -48 38 -11 38 -11 18 -29 -12 -11 -20 -21 -18 -23 2 -2 38 -7 81 -13
42 -5 87 -16 99 -25 12 -8 34 -15 50 -15 26 0 29 -2 23 -26 -4 -15 -30 -55
-59 -89 -54 -65 -83 -100 -163 -200 -81 -102 -166 -196 -248 -275 -119 -114
-128 -121 -192 -170 -32 -25 -61 -47 -64 -50 -20 -20 -112 -55 -147 -55 -33 0
-43 -4 -43 -16 0 -23 46 -41 89 -33 45 8 213 91 246 121 13 13 27 23 31 23 3
0 28 23 54 50 26 28 52 50 57 50 5 0 23 13 40 29 18 16 36 31 40 33 5 1 23 22
41 45 19 24 38 43 44 43 6 0 35 26 65 58 l53 57 -5 -110 c-3 -60 -10 -135 -16
-165 -5 -30 -12 -108 -16 -172 -7 -133 3 -172 44 -183 46 -11 55 10 59 146 2
68 8 146 14 173 6 28 14 96 19 151 10 105 24 146 66 185 46 43 26 73 -45 67
-31 -3 -37 22 -13 48 10 11 32 38 48 60 17 22 36 46 43 53 6 7 12 17 12 21 0
4 17 27 39 51 l38 44 76 -18 c42 -10 102 -19 134 -21 32 -1 60 -3 62 -4 3 0
-6 -12 -19 -26 -31 -33 -43 -119 -30 -205 16 -95 26 -370 18 -464 -9 -111 -9
-309 0 -321 34 -46 73 -38 92 21 12 36 16 695 5 715 -5 8 -6 153 -2 247 3 45
3 45 216 102 47 12 64 44 42 79 -7 11 -21 11 -82 0 -41 -7 -83 -18 -94 -26
-45 -30 -306 -9 -349 28 -10 9 70 139 85 139 5 0 16 17 24 37 13 32 54 88 125
171 11 13 20 30 20 38 0 8 4 14 9 14 5 0 37 36 70 81 60 79 61 81 61 145 0 74
-4 76 -71 41 -24 -13 -62 -30 -84 -36 -22 -7 -77 -33 -122 -57 -46 -24 -87
-44 -91 -44 -5 0 -18 24 -31 54 -36 87 -92 125 -130 87z m309 -209 c0 -17 -45
-90 -80 -128 -39 -43 -95 -123 -145 -209 -16 -28 -40 -64 -51 -80 l-22 -29
-58 15 c-33 8 -93 14 -135 13 l-77 -1 17 27 c9 15 40 54 69 85 28 32 52 61 52
65 0 7 130 99 168 119 18 9 27 10 37 1 11 -9 23 -4 58 24 24 20 48 36 53 36 5
0 29 16 54 35 45 35 60 41 60 27z"/>
</g>
</svg>
