<?xml version="1.0" standalone="no"?>
<!DOCTYPE svg PUBLIC "-//W3C//DTD SVG 20010904//EN"
 "http://www.w3.org/TR/2001/REC-SVG-20010904/DTD/svg10.dtd">
<svg version="1.0" xmlns="http://www.w3.org/2000/svg"
 width="210.000000pt" height="206.000000pt" viewBox="0 0 210.000000 206.000000"
 preserveAspectRatio="xMidYMid meet">
<metadata>
Created by potrace 1.16, written by Peter Selinger 2001-2019
</metadata>
<g transform="translate(0.000000,206.000000) scale(0.100000,-0.100000)"
fill="#000000" stroke="none">
<path d="M1290 1850 c-8 -5 -40 -17 -70 -26 -30 -10 -62 -23 -70 -30 -8 -7
-35 -17 -60 -24 -25 -6 -87 -32 -138 -57 -51 -25 -95 -44 -98 -41 -3 4 0 23 6
45 6 21 10 56 8 77 -3 34 -7 41 -32 47 -43 12 -64 -7 -71 -63 -18 -131 -47
-183 -120 -216 -76 -34 -225 -154 -225 -180 0 -7 14 -21 32 -32 35 -21 44 -18
123 41 68 51 109 76 191 117 44 22 102 52 129 66 28 14 54 26 59 26 5 0 23 10
40 23 47 34 133 70 147 62 14 -9 -68 -133 -147 -223 -23 -26 -53 -64 -67 -84
-45 -67 -75 -98 -97 -98 -11 0 -43 16 -71 35 -28 19 -59 35 -69 35 -37 0 -68
-19 -74 -45 -5 -20 0 -32 23 -55 16 -17 33 -30 36 -30 16 0 75 -33 75 -42 0
-8 -150 -187 -224 -268 -50 -53 -200 -222 -222 -249 -10 -13 -60 -54 -110 -92
-69 -50 -102 -68 -130 -71 -49 -4 -55 -25 -11 -43 39 -16 61 -12 143 27 61 28
141 95 248 207 45 46 99 102 122 125 38 38 193 213 266 299 29 35 35 38 67 32
20 -4 61 -11 91 -15 30 -5 99 -15 154 -23 86 -13 115 -14 230 -2 155 17 182
23 261 61 42 21 61 36 63 51 6 43 -67 53 -123 18 -61 -39 -331 -50 -492 -21
-56 10 -106 22 -113 26 -8 5 -4 18 14 44 24 36 42 59 127 159 20 23 51 65 69
92 19 28 49 66 68 85 97 101 131 287 42 230z"/>
<path d="M1179 998 c-34 -37 -37 -58 -23 -165 7 -56 14 -162 15 -235 1 -73 6
-162 10 -198 5 -36 12 -125 15 -197 6 -117 5 -133 -10 -139 -10 -4 -16 -18
-16 -35 0 -29 0 -29 64 -29 l64 0 4 64 c2 35 0 115 -4 177 -4 63 -10 166 -13
229 -3 63 -7 149 -10 190 -3 41 -8 131 -11 200 -5 109 -8 127 -26 143 -26 22
-33 22 -59 -5z"/>
<path d="M653 875 c-20 -14 -21 -21 -16 -103 3 -57 -1 -123 -12 -192 -9 -58
-18 -121 -20 -140 -5 -42 -23 -139 -36 -197 -11 -51 -12 -143 -1 -161 5 -7 20
-15 35 -17 20 -4 30 1 42 18 8 14 13 30 10 38 -5 14 0 47 30 179 9 41 19 89
21 105 2 17 11 80 20 140 8 61 21 151 29 201 19 117 19 117 -12 132 -36 16
-64 15 -90 -3z"/>
</g>
</svg>
