<?xml version="1.0" standalone="no"?>
<!DOCTYPE svg PUBLIC "-//W3C//DTD SVG 20010904//EN"
 "http://www.w3.org/TR/2001/REC-SVG-20010904/DTD/svg10.dtd">
<svg version="1.0" xmlns="http://www.w3.org/2000/svg"
 width="206.000000pt" height="205.000000pt" viewBox="0 0 206.000000 205.000000"
 preserveAspectRatio="xMidYMid meet">
<metadata>
Created by potrace 1.16, written by Peter Selinger 2001-2019
</metadata>
<g transform="translate(0.000000,205.000000) scale(0.100000,-0.100000)"
fill="#000000" stroke="none">
<path d="M1105 2040 c7 -12 13 -51 23 -145 6 -58 10 -70 25 -70 10 0 24 11 32
25 19 35 45 96 45 106 0 4 6 15 14 23 7 9 16 28 20 44 l6 27 -85 0 c-54 0 -84
-4 -80 -10z"/>
<path d="M1455 1833 c-11 -3 -27 -11 -35 -17 -8 -7 -37 -24 -65 -37 -27 -14
-70 -37 -95 -51 -25 -14 -62 -35 -82 -46 -86 -49 -170 -94 -282 -151 -66 -33
-132 -73 -146 -88 -15 -16 -41 -40 -59 -55 -26 -22 -31 -32 -26 -50 9 -29 33
-48 59 -48 31 0 96 20 96 29 0 5 15 25 33 45 43 46 68 46 137 -4 30 -21 70
-47 88 -56 17 -10 32 -23 32 -28 0 -6 -16 -34 -34 -61 -19 -28 -47 -70 -61
-95 -67 -117 -136 -215 -200 -286 -38 -42 -95 -105 -126 -139 -89 -98 -154
-155 -177 -155 -27 0 -37 -17 -22 -35 19 -23 67 -18 118 12 25 15 123 104 217
198 134 134 180 187 215 248 25 43 54 91 66 105 11 15 26 41 33 57 7 17 28 48
47 69 l34 39 47 -25 c27 -14 66 -31 88 -38 22 -7 45 -16 50 -20 6 -4 38 -16
72 -26 35 -10 63 -22 63 -26 0 -4 -9 -24 -19 -45 -13 -25 -21 -68 -25 -128 -3
-49 -10 -157 -15 -240 -6 -82 -13 -270 -17 -417 l-7 -268 50 0 50 0 2 107 c8
398 39 871 61 912 5 9 11 24 14 35 6 16 13 17 64 11 92 -12 222 -6 295 12 l67
17 0 53 c0 59 -8 68 -56 59 -24 -5 -34 -12 -34 -25 0 -25 -39 -31 -155 -25
-49 2 -97 5 -105 5 -8 0 -33 6 -55 13 -22 8 -60 19 -85 26 -49 13 -84 26 -115
43 -52 27 -73 37 -119 54 -26 10 -50 23 -53 29 -4 10 21 60 101 207 14 26 26
55 26 63 0 8 7 17 15 20 8 4 32 27 53 53 33 43 37 53 37 107 0 63 -8 70 -60
57z m-135 -200 c0 -5 -11 -21 -25 -37 -14 -16 -25 -33 -25 -39 0 -9 -63 -142
-78 -165 -8 -11 -21 -7 -70 18 -93 48 -92 71 4 119 22 12 49 30 59 41 10 11
28 20 39 21 12 0 37 11 56 24 40 28 40 27 40 18z"/>
<path d="M1133 988 c-27 -16 -33 -26 -33 -53 0 -19 -5 -46 -11 -62 -6 -15 -19
-71 -29 -123 -10 -52 -30 -140 -45 -195 -29 -108 -33 -193 -15 -282 13 -60 19
-67 60 -58 l29 6 0 119 c0 90 4 134 20 187 11 38 32 119 45 179 30 131 61 197
98 212 30 11 48 56 29 75 -9 9 -16 8 -32 -1 -17 -11 -26 -10 -51 3 -17 8 -32
15 -32 14 -1 0 -16 -10 -33 -21z"/>
</g>
</svg>
