<?xml version="1.0" standalone="no"?>
<!DOCTYPE svg PUBLIC "-//W3C//DTD SVG 20010904//EN"
 "http://www.w3.org/TR/2001/REC-SVG-20010904/DTD/svg10.dtd">
<svg version="1.0" xmlns="http://www.w3.org/2000/svg"
 width="208.000000pt" height="203.000000pt" viewBox="0 0 208.000000 203.000000"
 preserveAspectRatio="xMidYMid meet">
<metadata>
Created by potrace 1.16, written by Peter Selinger 2001-2019
</metadata>
<g transform="translate(0.000000,203.000000) scale(0.100000,-0.100000)"
fill="#000000" stroke="none">
<path d="M933 1810 c-36 -15 -50 -49 -78 -185 -15 -71 -42 -175 -60 -230 -18
-55 -37 -116 -42 -135 l-9 -35 -134 -33 c-74 -19 -141 -38 -147 -44 -17 -13
-16 -68 0 -90 21 -27 63 -32 125 -14 31 10 65 22 75 27 10 5 22 7 27 4 15 -9
-30 -118 -97 -239 -19 -33 -49 -106 -68 -162 -19 -57 -61 -152 -92 -211 -32
-60 -69 -133 -82 -163 -13 -30 -39 -88 -58 -129 -39 -85 -41 -135 -6 -158 20
-14 24 -13 45 10 13 14 34 56 47 93 27 81 107 251 163 347 22 37 52 107 67
155 30 91 120 275 150 305 6 6 11 21 11 33 0 32 50 144 65 144 6 0 17 11 22
23 11 23 47 50 145 107 23 14 77 48 119 77 42 29 79 50 81 48 9 -9 -32 -310
-57 -413 -15 -61 -25 -119 -21 -127 10 -26 32 -17 69 29 39 46 53 92 82 266
37 223 54 284 92 337 13 18 26 46 29 63 4 17 19 41 35 55 50 42 29 113 -29 99
-68 -17 -98 -45 -121 -116 -13 -40 -92 -107 -159 -135 -20 -8 -49 -25 -63 -38
-39 -32 -176 -101 -185 -92 -4 4 10 60 30 125 21 64 41 131 43 147 3 17 11 37
18 45 7 8 16 36 19 62 8 56 21 67 82 76 26 4 49 12 51 18 5 15 -100 64 -135
63 -15 0 -37 -4 -49 -9z"/>
<path d="M1555 840 c-22 -16 -56 -40 -75 -53 -35 -24 -100 -92 -152 -158 -60
-76 -68 -87 -68 -95 0 -9 -62 -86 -122 -151 -26 -28 -48 -57 -48 -63 0 -5 -14
-19 -30 -29 -30 -18 -32 -18 -112 5 -84 23 -101 36 -94 69 4 21 41 157 56 210
5 17 13 46 19 65 5 19 21 62 35 95 28 67 32 95 14 113 -32 32 -90 -6 -105 -67
-3 -14 -12 -33 -19 -42 -8 -8 -18 -35 -23 -60 -16 -72 -58 -220 -81 -284 -24
-67 -21 -119 7 -141 27 -21 115 -62 148 -69 65 -14 66 -8 -20 -113 -62 -76
-61 -72 -28 -72 19 0 40 11 60 31 32 31 67 58 137 105 33 22 45 25 83 19 37
-5 204 2 453 20 30 2 90 4 132 4 103 1 110 9 103 109 -8 124 -30 234 -56 285
-23 45 -26 47 -40 31 -11 -13 -14 -50 -14 -156 0 -114 -3 -141 -15 -147 -8 -5
-85 -13 -170 -19 -391 -28 -383 -29 -329 40 19 23 50 59 69 79 19 20 53 60 75
89 22 29 50 64 63 79 12 14 32 41 45 59 12 18 45 47 72 65 28 17 58 42 68 54
10 13 45 31 80 42 108 33 103 73 -11 78 -61 3 -70 1 -107 -27z"/>
</g>
</svg>
