<?xml version="1.0" standalone="no"?>
<!DOCTYPE svg PUBLIC "-//W3C//DTD SVG 20010904//EN"
 "http://www.w3.org/TR/2001/REC-SVG-20010904/DTD/svg10.dtd">
<svg version="1.0" xmlns="http://www.w3.org/2000/svg"
 width="206.000000pt" height="205.000000pt" viewBox="0 0 206.000000 205.000000"
 preserveAspectRatio="xMidYMid meet">
<metadata>
Created by potrace 1.16, written by Peter Selinger 2001-2019
</metadata>
<g transform="translate(0.000000,205.000000) scale(0.100000,-0.100000)"
fill="#000000" stroke="none">
<path d="M1005 1775 c-14 -13 -25 -33 -25 -45 0 -11 -4 -20 -9 -20 -11 0 -35
-66 -61 -170 -71 -280 -83 -305 -224 -442 -92 -89 -116 -119 -116 -140 0 -29
31 -58 62 -58 10 0 18 -3 18 -6 0 -7 -34 -114 -62 -192 -10 -29 -23 -74 -28
-100 -6 -26 -22 -69 -35 -97 -13 -27 -36 -81 -51 -120 -40 -107 -67 -168 -80
-185 -21 -27 -56 -136 -52 -166 3 -26 7 -29 38 -29 34 0 37 3 72 75 45 88 98
225 98 249 0 19 52 147 81 198 11 18 35 50 54 69 20 19 46 52 59 73 13 21 32
45 41 54 35 35 38 22 29 -110 -12 -194 -8 -296 18 -398 22 -88 38 -117 63
-121 7 -1 30 -10 51 -20 31 -15 62 -19 145 -19 l107 0 158 80 c258 131 328
168 376 203 26 17 49 32 52 32 4 0 41 21 84 48 43 26 91 54 107 62 27 14 30
20 30 65 0 47 -1 50 -25 47 -14 -1 -63 -5 -110 -8 -47 -3 -103 -10 -125 -15
-22 -6 -86 -16 -143 -23 -86 -10 -106 -10 -122 1 -19 13 -20 12 -20 -15 0 -19
7 -33 18 -37 9 -5 71 -11 137 -14 l120 -6 -54 -40 c-30 -22 -65 -46 -80 -54
-14 -8 -33 -18 -41 -23 -8 -4 -22 -11 -30 -14 -8 -3 -31 -14 -50 -24 -19 -11
-71 -38 -115 -60 -44 -22 -92 -50 -106 -61 -36 -28 -159 -45 -216 -30 -57 16
-57 43 0 107 48 55 73 91 101 149 11 22 32 55 48 73 15 18 28 37 28 43 0 6 23
35 51 65 46 47 57 54 91 54 48 0 57 19 28 60 -41 58 -117 49 -194 -23 -40 -37
-76 -96 -154 -252 -8 -16 -23 -41 -32 -55 -10 -14 -21 -36 -25 -50 -4 -13 -17
-37 -29 -53 l-20 -28 -11 23 c-6 14 -10 141 -10 333 0 292 -1 310 -18 313 -48
10 -85 -26 -141 -135 -29 -57 -35 -45 -14 29 27 101 105 259 161 329 44 55 58
69 135 125 39 30 72 59 72 64 0 6 6 10 14 10 7 0 34 16 60 35 25 20 46 31 46
25 0 -6 -13 -34 -30 -63 -59 -104 -70 -157 -77 -344 -5 -154 -4 -173 10 -173
20 0 47 38 47 66 0 12 6 27 14 33 7 6 16 40 20 76 13 131 19 152 64 245 50
105 110 183 237 310 90 89 103 119 64 141 -27 14 -85 -1 -126 -34 -15 -12 -44
-31 -63 -41 -47 -25 -211 -137 -252 -171 -9 -7 -29 -22 -45 -32 -15 -9 -52
-35 -82 -57 -50 -36 -54 -37 -47 -15 3 13 14 51 22 84 44 168 87 244 108 189
5 -13 9 -14 21 -4 11 9 13 24 8 58 -8 62 -28 101 -59 112 -33 13 -31 14 -59
-15z m600 -1445 c3 -5 1 -10 -4 -10 -6 0 -11 5 -11 10 0 6 2 10 4 10 3 0 8 -4
11 -10z"/>
</g>
</svg>
